<svg width="24" height="24" viewBox="0 0 24 24" fill="none" xmlns="http://www.w3.org/2000/svg">
<path fill-rule="evenodd" clip-rule="evenodd" d="M12.729 12.4027C12.6051 13.4253 11.6734 14.1537 10.6474 14.0311C9.62139 13.9084 8.89043 12.979 9.01352 11.9565C9.13745 10.9339 10.0691 10.2046 11.0951 10.3281C12.1212 10.4516 12.8529 11.3801 12.729 12.4027Z" stroke="black" stroke-width="1.5" stroke-linecap="round" stroke-linejoin="round"/>
<path d="M12.73 12.4031L13.4021 6.8457C13.4021 6.8457 13.7335 8.15566 14.9998 8.5741" stroke="black" stroke-width="1.5" stroke-linecap="round" stroke-linejoin="round"/>
<path d="M3 10.4864C3 6.64354 6.09693 3.52828 9.91719 3.52828H14.0828C17.9031 3.52828 21 6.64354 21 10.4864C21 14.3293 17.9031 17.4446 14.0828 17.4446H13.0414V20.4709C13.0414 20.4709 7.06525 18.5695 4.39456 14.6768C3.51916 13.5112 3 12.0598 3 10.4864Z" stroke="black" stroke-width="1.5" stroke-linecap="round" stroke-linejoin="round"/>
<path d="M3 10.4864C3 6.64354 6.09693 3.52828 9.91719 3.52828H14.0828C17.9031 3.52828 21 6.64354 21 10.4864C21 14.3293 17.9031 17.4446 14.0828 17.4446H13.0414V20.4709C13.0414 20.4709 7.06525 18.5695 4.39456 14.6768C3.51916 13.5112 3 12.0598 3 10.4864Z" stroke="black" stroke-width="1.5" stroke-linecap="round" stroke-linejoin="round"/>
<path d="M3 10.4864C3 6.64354 6.09693 3.52828 9.91719 3.52828H14.0828C17.9031 3.52828 21 6.64354 21 10.4864C21 14.3293 17.9031 17.4446 14.0828 17.4446H13.0414V20.4709C13.0414 20.4709 7.06525 18.5695 4.39456 14.6768C3.51916 13.5112 3 12.0598 3 10.4864Z" stroke="black" stroke-width="1.5" stroke-linecap="round" stroke-linejoin="round"/>
</svg>
