<svg width="24" height="24" viewBox="0 0 24 24" fill="none" xmlns="http://www.w3.org/2000/svg">
<path d="M10.21 10.3828C10.21 9.55439 9.53839 8.88281 8.70996 8.88281C7.88153 8.88281 7.20996 9.55439 7.20996 10.3828" stroke="black" stroke-width="1.5" stroke-linecap="round" stroke-linejoin="round"/>
<path d="M16.79 10.3828C16.79 9.55439 16.1185 8.88281 15.29 8.88281C14.4616 8.88281 13.79 9.55439 13.79 10.3828" stroke="black" stroke-width="1.5" stroke-linecap="round" stroke-linejoin="round"/>
<path d="M3 10.4864C3 6.64354 6.09693 3.52828 9.91719 3.52828H14.0828C17.9031 3.52828 21 6.64354 21 10.4864C21 14.3293 17.9031 17.4446 14.0828 17.4446H13.0414V20.4709C13.0414 20.4709 7.06525 18.5695 4.39456 14.6768C3.51916 13.5112 3 12.0598 3 10.4864Z" stroke="black" stroke-width="1.5" stroke-linecap="round" stroke-linejoin="round"/>
<path d="M3 10.4864C3 6.64354 6.09693 3.52828 9.91719 3.52828H14.0828C17.9031 3.52828 21 6.64354 21 10.4864C21 14.3293 17.9031 17.4446 14.0828 17.4446H13.0414V20.4709C13.0414 20.4709 7.06525 18.5695 4.39456 14.6768C3.51916 13.5112 3 12.0598 3 10.4864Z" stroke="black" stroke-width="1.5" stroke-linecap="round" stroke-linejoin="round"/>
<path d="M3 10.4864C3 6.64354 6.09693 3.52828 9.91719 3.52828H14.0828C17.9031 3.52828 21 6.64354 21 10.4864C21 14.3293 17.9031 17.4446 14.0828 17.4446H13.0414V20.4709C13.0414 20.4709 7.06525 18.5695 4.39456 14.6768C3.51916 13.5112 3 12.0598 3 10.4864Z" stroke="black" stroke-width="1.5" stroke-linecap="round" stroke-linejoin="round"/>
</svg>
