<svg width="24" height="24" viewBox="0 0 24 24" fill="none" xmlns="http://www.w3.org/2000/svg">
<path fill-rule="evenodd" clip-rule="evenodd" d="M16.0248 10.4141L15.2048 10.5512C14.6047 10.6524 14.0745 10.1515 14.1397 9.54645L14.2311 8.70023C14.2759 8.29171 14.4461 7.9075 14.7204 7.60111L18.294 3.70069C18.7161 3.24451 19.4281 3.21727 19.8843 3.63941L20.6391 4.33779C21.0953 4.75993 21.1225 5.47193 20.7004 5.92811L17.1657 9.78573C16.8681 10.1184 16.4654 10.3402 16.0248 10.4141Z" stroke="black" stroke-width="1.5" stroke-linecap="round" stroke-linejoin="round"/>
<path d="M14 3.33984H6C4.34315 3.33984 3 4.67846 3 6.32972V15.0834C3 16.7347 4.34315 18.0733 6 18.0733H8.16198C8.5598 18.0733 8.94134 18.2308 9.22264 18.5111L10.9393 20.222C11.5251 20.8058 12.4749 20.8058 13.0607 20.222L14.7774 18.5111C15.0587 18.2308 15.4402 18.0733 15.838 18.0733H18C19.6569 18.0733 21 16.7347 21 15.0834V10.3162" stroke="black" stroke-width="1.5" stroke-linecap="round" stroke-linejoin="round"/>
</svg>
