<svg width="24" height="24" viewBox="0 0 24 24" fill="none" xmlns="http://www.w3.org/2000/svg">
<path fill-rule="evenodd" clip-rule="evenodd" d="M16.0248 10.4141L15.2048 10.5512C14.6047 10.6524 14.0745 10.1515 14.1397 9.54645L14.2311 8.70023C14.2759 8.29171 14.4461 7.9075 14.7204 7.60111L18.294 3.70069C18.7161 3.24451 19.4281 3.21727 19.8843 3.63941L20.6391 4.33779C21.0953 4.75993 21.1225 5.47193 20.7004 5.92811L17.1657 9.78573C16.8681 10.1184 16.4654 10.3402 16.0248 10.4141Z" stroke="black" stroke-width="1.5" stroke-linecap="round" stroke-linejoin="round"/>
<path d="M21 10.5227C21 14.3786 17.9031 17.5044 14.0828 17.5044H13.0414V20.541C13.0414 20.541 7.06525 18.6331 4.39456 14.7273C3.51916 13.5578 3 12.1014 3 10.5227C3 6.66682 6.09693 3.54102 9.91719 3.54102H14.0828" stroke="black" stroke-width="1.5" stroke-linecap="round" stroke-linejoin="round"/>
<path d="M21 10.5227C21 14.3786 17.9031 17.5044 14.0828 17.5044H13.0414V20.541C13.0414 20.541 7.06525 18.6331 4.39456 14.7273C3.51916 13.5578 3 12.1014 3 10.5227C3 6.66682 6.09693 3.54102 9.91719 3.54102H14.0828" stroke="black" stroke-width="1.5" stroke-linecap="round" stroke-linejoin="round"/>
<path d="M21 10.5227C21 14.3786 17.9031 17.5044 14.0828 17.5044H13.0414V20.541C13.0414 20.541 7.06525 18.6331 4.39456 14.7273C3.51916 13.5578 3 12.1014 3 10.5227C3 6.66682 6.09693 3.54102 9.91719 3.54102H14.0828" stroke="black" stroke-width="1.5" stroke-linecap="round" stroke-linejoin="round"/>
</svg>
