<svg width="24" height="24" viewBox="0 0 24 24" fill="none" xmlns="http://www.w3.org/2000/svg">
<path d="M11.8511 9.24072V9.25387" stroke="black" stroke-width="1.5" stroke-linecap="round" stroke-linejoin="round"/>
<path d="M13.387 15.8884L13.3874 12.1938C13.5594 12.0837 13.7227 11.9628 13.873 11.8125C14.996 10.6894 14.996 8.86863 13.873 7.74559C12.75 6.62256 10.9292 6.62256 9.80614 7.74559C8.68311 8.86862 8.68311 10.6894 9.80614 11.8125C10.0242 12.0305 10.2693 12.207 10.5298 12.3404L10.5307 13.1768L11.0169 13.663L10.2755 14.4044L11.0291 15.1581L10.5468 15.6404C10.4104 15.7768 10.4104 15.998 10.5468 16.1345L11.6692 17.2569C11.8056 17.3933 12.0268 17.3933 12.1633 17.2569L13.2848 16.1354C13.3503 16.0699 13.387 15.9811 13.387 15.8884Z" stroke="black" stroke-width="1.5" stroke-linecap="round" stroke-linejoin="round"/>
<path d="M3 12C3 7.02944 7.02944 3 12 3C16.9706 3 21 7.02944 21 12C21 16.9706 16.9706 21 12 21H4C3.44772 21 3 20.5523 3 20V12Z" stroke="black" stroke-width="1.5" stroke-linecap="round" stroke-linejoin="round"/>
</svg>
