<svg width="24" height="24" viewBox="0 0 24 24" fill="none" xmlns="http://www.w3.org/2000/svg">
<path d="M8.04233 20.0855C9.23677 20.6712 10.58 21.0001 12.0001 21.0001C16.9707 21.0001 21.0001 16.9707 21.0001 12.0001C21.0001 7.02951 16.9706 3 12 3C7.02944 3 3 7.02944 3 12C3 13.4201 3.32891 14.7634 3.9147 15.9578C4.43146 17.0333 3.93662 18.2125 3.67471 19.2914C3.52546 19.883 4.11717 20.4747 4.70879 20.3254C5.78685 20.0535 6.96586 19.5682 8.04233 20.0855Z" stroke="black" stroke-width="1.5" stroke-linecap="round" stroke-linejoin="round"/>
<path d="M12 16.4999V15.0293" stroke="black" stroke-width="1.5" stroke-linecap="round" stroke-linejoin="round"/>
<path fill-rule="evenodd" clip-rule="evenodd" d="M11.9999 12.8681C11.0627 12.8681 10.3027 12.1051 10.3027 11.1635V9.20508C10.3027 8.26348 11.0627 7.5 11.9999 7.5C12.9376 7.5 13.6971 8.26348 13.6971 9.20508V11.1635C13.6971 12.1051 12.9376 12.8681 11.9999 12.8681Z" stroke="black" stroke-width="1.5" stroke-linecap="round" stroke-linejoin="round"/>
<path d="M15.7219 11.2896C15.7219 13.3546 14.0559 15.0289 11.9999 15.0289C9.94436 15.0289 8.27832 13.3546 8.27832 11.2896" stroke="black" stroke-width="1.5" stroke-linecap="round" stroke-linejoin="round"/>
</svg>
