<svg width="24" height="24" viewBox="0 0 24 24" fill="none" xmlns="http://www.w3.org/2000/svg">
<path d="M17.1085 4.58932C15.6573 3.58701 13.8972 3 12 3C7.02944 3 3 7.02944 3 12C3 13.4201 3.32891 14.7634 3.9147 15.9578C4.43146 17.0333 3.93662 18.2125 3.67471 19.2914C3.52546 19.883 4.11717 20.4747 4.70879 20.3254C5.78685 20.0535 6.96586 19.5682 8.04233 20.0855C9.23677 20.6712 10.58 21.0001 12.0001 21.0001C16.9707 21.0001 21.0001 16.9707 21.0001 12.0001C21.0001 10.1634 20.45 8.45522 19.5054 7.03133" stroke="black" stroke-width="1.5" stroke-linecap="round" stroke-linejoin="round"/>
<path d="M15.1205 10.3172L15.9523 10.1781C16.3999 10.1032 16.8085 9.87749 17.11 9.53991L20.696 5.6261C21.125 5.16399 21.0968 4.44116 20.6337 4.01213L19.8691 3.30389C19.406 2.87583 18.6832 2.90307 18.2541 3.36615L14.6283 7.32374C14.351 7.63505 14.1778 8.02517 14.1321 8.43863L14.0397 9.29767C13.9735 9.91154 14.5115 10.4194 15.1205 10.3172Z" stroke="black" stroke-width="1.5" stroke-linecap="round" stroke-linejoin="round"/>
<path d="M8.64203 14.208H14.0341M8.59619 10.3306H11.5138" stroke="black" stroke-width="1.5" stroke-linecap="round" stroke-linejoin="round"/>
</svg>
