<svg width="24" height="24" viewBox="0 0 24 24" fill="none" xmlns="http://www.w3.org/2000/svg">
<path d="M10.2108 17.8415C9.07306 17.8415 7.99683 17.5779 7.03986 17.1086C6.17741 16.6942 5.23279 17.083 4.36907 17.3009C3.89507 17.4205 3.42099 16.9464 3.54057 16.4724C3.75041 15.6081 4.14687 14.6633 3.73285 13.8016C3.26352 12.8446 3 11.7684 3 10.6306C3 6.64827 6.22834 3.41992 10.2107 3.41992C14.1931 3.41992 17.4215 6.64832 17.4215 10.6307" stroke="black" stroke-width="1.5" stroke-linecap="round" stroke-linejoin="round"/>
<path fill-rule="evenodd" clip-rule="evenodd" d="M11.0454 13.4075V17.8028C11.0454 19.4313 12.0645 20.58 13.693 20.58H18.3577C19.9862 20.58 20.9999 19.4313 20.9999 17.8028V13.4075C20.9999 11.779 19.9808 10.6309 18.3577 10.6309H13.693C12.0645 10.6309 11.0454 11.779 11.0454 13.4075Z" stroke="black" stroke-width="1.5" stroke-linecap="round" stroke-linejoin="round"/>
<path d="M21.0002 17.8139L19.0049 15.9048C18.4763 15.3981 17.6406 15.4143 17.1286 15.937L12.8145 20.3593" stroke="black" stroke-width="1.5" stroke-linecap="round" stroke-linejoin="round"/>
<path d="M14.1714 13.9578V13.9036M14.1643 13.7427C14.0339 13.7427 13.9277 13.8489 13.9287 13.9793C13.9287 14.1098 14.035 14.216 14.1654 14.216C14.2958 14.216 14.402 14.1098 14.402 13.9793C14.402 13.8479 14.2958 13.7427 14.1643 13.7427Z" stroke="black" stroke-width="1.5" stroke-linecap="round" stroke-linejoin="round"/>
<path d="M7.44651 8.70068H12.8141M7.40088 12.5604H10.3052" stroke="black" stroke-width="1.5" stroke-linecap="round" stroke-linejoin="round"/>
</svg>
