<svg width="24" height="24" viewBox="0 0 24 24" fill="none" xmlns="http://www.w3.org/2000/svg">
<path d="M3.00781 5.53418L18.4728 21.0001" stroke="black" stroke-width="1.5" stroke-linecap="round" stroke-linejoin="round"/>
<path d="M17.0297 19.4648C15.5938 20.4343 13.8631 21.0003 12.0001 21.0003C10.58 21.0003 9.23677 20.6714 8.04233 20.0856C6.96586 19.5683 5.78685 20.0536 4.70879 20.3256C4.11717 20.4748 3.52546 19.8831 3.67471 19.2915C3.93662 18.2127 4.43146 17.0334 3.9147 15.9579C3.32891 14.7635 3 13.4202 3 12.0001C3 10.1051 3.5857 8.3468 4.58596 6.89648" stroke="black" stroke-width="1.5" stroke-linecap="round" stroke-linejoin="round"/>
<path d="M7.38916 4.26922C8.73768 3.4632 10.3147 3 12 3C16.9706 3 21.0002 7.02951 21.0002 12.0001C21.0002 13.6388 20.5622 15.1752 19.797 16.4986" stroke="black" stroke-width="1.5" stroke-linecap="round" stroke-linejoin="round"/>
</svg>
