<svg width="24" height="24" viewBox="0 0 24 24" fill="none" xmlns="http://www.w3.org/2000/svg">
<path d="M10.1611 13.3506C10.4619 14.0352 11.1518 14.5157 11.9529 14.5157C12.754 14.5157 13.4434 14.0352 13.7442 13.3506" stroke="black" stroke-width="1.5" stroke-linecap="round" stroke-linejoin="round"/>
<path d="M14.8535 9.75296V9.82253M15.1364 9.76791C15.1364 9.9245 15.0089 10.0514 14.8518 10.0514C14.6947 10.0514 14.5674 9.9245 14.5674 9.76791C14.5674 9.61132 14.6947 9.48438 14.8518 9.48438C15.0089 9.48438 15.1364 9.61132 15.1364 9.76791Z" stroke="black" stroke-width="1.5" stroke-linecap="round" stroke-linejoin="round"/>
<path d="M9.15042 9.75296V9.82253M9.43328 9.76791C9.43328 9.9245 9.3058 10.0514 9.14868 10.0514C8.99156 10.0514 8.86426 9.9245 8.86426 9.76791C8.86426 9.61132 8.99156 9.48438 9.14868 9.48438C9.3058 9.48438 9.43328 9.61132 9.43328 9.76791Z" stroke="black" stroke-width="1.5" stroke-linecap="round" stroke-linejoin="round"/>
<path d="M8.04233 20.0855C9.23677 20.6712 10.58 21.0001 12.0001 21.0001C16.9707 21.0001 21.0001 16.9707 21.0001 12.0001C21.0001 7.02951 16.9706 3 12 3C7.02944 3 3 7.02944 3 12C3 13.4201 3.32891 14.7634 3.9147 15.9578C4.43146 17.0333 3.93662 18.2125 3.67471 19.2914C3.52546 19.883 4.11717 20.4747 4.70879 20.3254C5.78685 20.0535 6.96586 19.5682 8.04233 20.0855Z" stroke="black" stroke-width="1.5" stroke-linecap="round" stroke-linejoin="round"/>
</svg>
