<svg width="24" height="24" viewBox="0 0 24 24" fill="none" xmlns="http://www.w3.org/2000/svg">
<path d="M8.29179 9.24512H13.6676M8.24609 13.1108H11.1549" stroke="black" stroke-width="1.5" stroke-linecap="round" stroke-linejoin="round"/>
<path d="M20.9384 15.23H14.1211" stroke="black" stroke-width="1.44" stroke-linecap="round" stroke-linejoin="round"/>
<path d="M20.3817 15.2299L20.1294 19.6238C20.0772 20.3819 19.4821 20.9694 18.7651 20.9694H16.2934C15.5767 20.9694 14.9813 20.3819 14.9291 19.6234L14.6768 15.2299" stroke="black" stroke-width="1.44" stroke-linecap="round" stroke-linejoin="round"/>
<path d="M19.2675 15.2301L18.9297 13.7338C18.8669 13.5 18.6541 13.3374 18.4115 13.3374H16.64C16.3962 13.3366 16.1825 13.4991 16.1194 13.7338L15.7901 15.2301" stroke="black" stroke-width="1.44" stroke-linecap="round" stroke-linejoin="round"/>
<path d="M11.8301 19.8296C11.7016 19.8354 11.5722 19.8384 11.4422 19.8384C10.116 19.8384 8.86153 19.5312 7.74606 18.9842C6.74076 18.5011 5.6397 18.9543 4.63292 19.2083C4.08042 19.3477 3.52782 18.7951 3.66721 18.2426C3.9118 17.2351 4.37393 16.1338 3.89133 15.1294C3.34427 14.014 3.03711 12.7595 3.03711 11.4333C3.03711 6.79135 6.80014 3.02832 11.4421 3.02832C15.8765 3.02832 19.5089 6.46241 19.8249 10.8162" stroke="black" stroke-width="1.5" stroke-linecap="round" stroke-linejoin="round"/>
</svg>
