<svg width="24" height="24" viewBox="0 0 24 24" fill="none" xmlns="http://www.w3.org/2000/svg">
<path fill-rule="evenodd" clip-rule="evenodd" d="M11.0454 13.4075V17.8028C11.0454 19.4313 12.0645 20.58 13.693 20.58H18.3577C19.9862 20.58 20.9999 19.4313 20.9999 17.8028V13.4075C20.9999 11.779 19.9808 10.6309 18.3577 10.6309H13.693C12.0645 10.6309 11.0454 11.779 11.0454 13.4075Z" stroke="black" stroke-width="1.5" stroke-linecap="round" stroke-linejoin="round"/>
<path d="M21.0002 17.8139L19.0049 15.9048C18.4763 15.3981 17.6406 15.4143 17.1286 15.937L12.8145 20.3593" stroke="black" stroke-width="1.5" stroke-linecap="round" stroke-linejoin="round"/>
<path d="M14.1714 13.9578V13.9036M14.1643 13.7427C14.0339 13.7427 13.9277 13.8489 13.9287 13.9793C13.9287 14.1098 14.035 14.216 14.1654 14.216C14.2958 14.216 14.402 14.1098 14.402 13.9793C14.402 13.8479 14.2958 13.7427 14.1643 13.7427Z" stroke="black" stroke-width="1.5" stroke-linecap="round" stroke-linejoin="round"/>
<path d="M7.44651 8.70068H12.8141M7.40088 12.5604H10.3052" stroke="black" stroke-width="1.5" stroke-linecap="round" stroke-linejoin="round"/>
<path d="M17.3107 10.5753C17.3107 6.62348 14.1071 3.41992 10.1553 3.41992C6.20356 3.41992 3 6.62348 3 10.5753C3 12.2838 3.5988 13.8524 4.59797 15.0828C4.71742 15.2299 4.72696 15.4399 4.6129 15.5912L3.76822 16.7117C3.45228 17.1308 3.75126 17.7306 4.2761 17.7306H10.9449" stroke="black" stroke-width="1.5" stroke-linecap="round" stroke-linejoin="round"/>
</svg>
