<svg width="24" height="24" viewBox="0 0 24 24" fill="none" xmlns="http://www.w3.org/2000/svg">
<path d="M15.0049 8.88093V13.4404C15.0049 15.3734 13.4379 16.9404 11.5049 16.9404C9.57188 16.9404 8.00488 15.3734 8.00488 13.4404V10.2654C8.00488 8.98143 9.04588 7.94043 10.3299 7.94043C11.6139 7.94043 12.6549 8.98143 12.6549 10.2654V13.3624C12.6549 14.0104 12.1294 14.5364 11.4814 14.5364C10.8329 14.5364 10.3074 14.0104 10.3074 13.3624V10.4399" stroke="black" stroke-width="1.5" stroke-linecap="round" stroke-linejoin="round"/>
<path d="M3 12C3 7.02944 7.02944 3 12 3C16.9706 3 21 7.02944 21 12C21 16.9706 16.9706 21 12 21H4C3.44772 21 3 20.5523 3 20V12Z" stroke="black" stroke-width="1.5" stroke-linecap="round" stroke-linejoin="round"/>
</svg>
