<svg width="24" height="24" viewBox="0 0 24 24" fill="none" xmlns="http://www.w3.org/2000/svg">
<path fill-rule="evenodd" clip-rule="evenodd" d="M14.4784 10.6694L13.6584 10.8066C13.0583 10.9078 12.5282 10.4068 12.5933 9.80183L12.6848 8.9556C12.7295 8.54708 12.8997 8.16287 13.174 7.85648L16.7476 3.95606C17.1698 3.49988 17.8818 3.47264 18.3379 3.89478L19.0927 4.59316C19.5489 5.0153 19.5762 5.7273 19.154 6.18348L15.6193 10.0411C15.3217 10.3738 14.919 10.5955 14.4784 10.6694Z" stroke="black" stroke-width="1.5" stroke-linecap="round" stroke-linejoin="round"/>
<path d="M12 3C7.02944 3 3 7.02944 3 12C3 13.4201 3.32891 14.7634 3.9147 15.9578C4.43146 17.0333 3.93662 18.2125 3.67471 19.2914C3.52546 19.883 4.11717 20.4747 4.70879 20.3254C5.78685 20.0535 6.96586 19.5682 8.04233 20.0855C9.23677 20.6712 10.58 21.0001 12.0001 21.0001C16.9707 21.0001 21.0001 16.9707 21.0001 12.0001C21.0001 11.3602 20.9334 10.7359 20.8064 10.1338" stroke="black" stroke-width="1.5" stroke-linecap="round" stroke-linejoin="round"/>
</svg>
