<svg width="24" height="24" viewBox="0 0 24 24" fill="none" xmlns="http://www.w3.org/2000/svg">
<path d="M12 16.4999V15.0293" stroke="black" stroke-width="1.5" stroke-linecap="round" stroke-linejoin="round"/>
<path fill-rule="evenodd" clip-rule="evenodd" d="M11.9999 12.8681C11.0627 12.8681 10.3027 12.1051 10.3027 11.1635V9.20508C10.3027 8.26348 11.0627 7.5 11.9999 7.5C12.9376 7.5 13.6971 8.26348 13.6971 9.20508V11.1635C13.6971 12.1051 12.9376 12.8681 11.9999 12.8681Z" stroke="black" stroke-width="1.5" stroke-linecap="round" stroke-linejoin="round"/>
<path d="M15.7219 11.2896C15.7219 13.3546 14.0559 15.0289 11.9999 15.0289C9.94436 15.0289 8.27832 13.3546 8.27832 11.2896" stroke="black" stroke-width="1.5" stroke-linecap="round" stroke-linejoin="round"/>
<path d="M12 21C16.9706 21 21 16.9706 21 12C21 7.02944 16.9706 3 12 3C7.02944 3 3 7.02944 3 12C3 14.149 3.75317 16.122 5.00993 17.6696C5.16017 17.8546 5.17217 18.1188 5.0287 18.3091L3.96627 19.7184C3.56888 20.2456 3.94494 21 4.60508 21H12Z" stroke="black" stroke-width="1.5" stroke-linejoin="round"/>
</svg>
