<svg width="24" height="24" viewBox="0 0 24 24" fill="none" xmlns="http://www.w3.org/2000/svg">
<path d="M8.39648 9.96826H13.091M8.39648 13.4819H10.4231" stroke="black" stroke-width="1.5" stroke-linecap="round" stroke-linejoin="round"/>
<path d="M19.3614 18.5924L20.9998 20.2279M17.3278 13.4155C18.9779 13.4155 20.3157 14.7533 20.3157 16.4035C20.3157 18.0536 18.9779 19.3924 17.3278 19.3924C15.6777 19.3924 14.3398 18.0536 14.3398 16.4035C14.3398 14.7533 15.6777 13.4155 17.3278 13.4155Z" stroke="black" stroke-width="1.5" stroke-linecap="round" stroke-linejoin="round"/>
<path d="M11.7542 20.754H4.56125C3.91913 20.754 3.55334 20.0202 3.93988 19.5074L4.97329 18.1366C5.11284 17.9515 5.10117 17.6945 4.95503 17.5145C3.7326 16.0092 3 14.0901 3 11.9998C3 7.16499 6.91939 3.24561 11.7542 3.24561C15.8792 3.24561 19.3379 6.09869 20.2645 9.93917" stroke="black" stroke-width="1.5" stroke-linecap="round" stroke-linejoin="round"/>
</svg>
