<svg width="24" height="24" viewBox="0 0 24 24" fill="none" xmlns="http://www.w3.org/2000/svg">
<path d="M13.0127 14.6138H8.57227" stroke="black" stroke-width="1.5" stroke-linecap="round" stroke-linejoin="round"/>
<path d="M10.9878 9.38281H15.4282" stroke="black" stroke-width="1.5" stroke-linecap="round" stroke-linejoin="round"/>
<path fill-rule="evenodd" clip-rule="evenodd" d="M10.9881 9.3268C10.9881 10.0593 10.3939 10.6536 9.66176 10.6536C8.92908 10.6536 8.33496 10.0593 8.33496 9.3268C8.33496 8.59429 8.92908 8 9.66176 8C10.3939 8 10.9881 8.59429 10.9881 9.3268Z" stroke="black" stroke-width="1.5" stroke-linecap="round" stroke-linejoin="round"/>
<path fill-rule="evenodd" clip-rule="evenodd" d="M13.0122 14.673C13.0122 13.9405 13.6058 13.3462 14.3385 13.3462C15.0712 13.3462 15.6653 13.9405 15.6653 14.673C15.6653 15.4055 15.0712 15.9998 14.3385 15.9998C13.6058 15.9998 13.0122 15.4055 13.0122 14.673Z" stroke="black" stroke-width="1.5" stroke-linecap="round" stroke-linejoin="round"/>
<path d="M3 12C3 7.02944 7.02944 3 12 3C16.9706 3 21 7.02944 21 12C21 16.9706 16.9706 21 12 21H4C3.44772 21 3 20.5523 3 20V12Z" stroke="black" stroke-width="1.5" stroke-linecap="round" stroke-linejoin="round"/>
</svg>
