<svg width="24" height="24" viewBox="0 0 24 24" fill="none" xmlns="http://www.w3.org/2000/svg">
<path d="M10.1611 13.3506C10.4619 14.0352 11.1518 14.5157 11.9529 14.5157C12.754 14.5157 13.4434 14.0352 13.7442 13.3506" stroke="black" stroke-width="1.5" stroke-linecap="round" stroke-linejoin="round"/>
<path d="M14.8535 9.75296V9.82253M15.1364 9.76791C15.1364 9.9245 15.0089 10.0514 14.8518 10.0514C14.6947 10.0514 14.5674 9.9245 14.5674 9.76791C14.5674 9.61132 14.6947 9.48438 14.8518 9.48438C15.0089 9.48438 15.1364 9.61132 15.1364 9.76791Z" stroke="black" stroke-width="1.5" stroke-linecap="round" stroke-linejoin="round"/>
<path d="M9.15042 9.75296V9.82253M9.43328 9.76791C9.43328 9.9245 9.3058 10.0514 9.14868 10.0514C8.99156 10.0514 8.86426 9.9245 8.86426 9.76791C8.86426 9.61132 8.99156 9.48438 9.14868 9.48438C9.3058 9.48438 9.43328 9.61132 9.43328 9.76791Z" stroke="black" stroke-width="1.5" stroke-linecap="round" stroke-linejoin="round"/>
<path d="M3 11.9594C3 7.0056 7.02944 2.98975 12 2.98975C16.9706 2.98975 21 7.0056 21 11.9594C21 16.9132 16.9706 20.9291 12 20.9291H4C3.44772 20.9291 3 20.4829 3 19.9324V11.9594Z" stroke="black" stroke-width="1.5" stroke-linecap="round" stroke-linejoin="round"/>
</svg>
