<svg width="24" height="24" viewBox="0 0 24 24" fill="none" xmlns="http://www.w3.org/2000/svg">
<path d="M8.04233 20.0855C9.23677 20.6712 10.58 21.0001 12.0001 21.0001C16.9707 21.0001 21.0001 16.9707 21.0001 12.0001C21.0001 7.02951 16.9706 3 12 3C7.02944 3 3 7.02944 3 12C3 13.4201 3.32891 14.7634 3.9147 15.9578C4.43146 17.0333 3.93662 18.2125 3.67471 19.2914C3.52546 19.883 4.11717 20.4747 4.70879 20.3254C5.78685 20.0535 6.96586 19.5682 8.04233 20.0855Z" stroke="black" stroke-width="1.5" stroke-linecap="round" stroke-linejoin="round"/>
<path d="M12.4084 10.1686C13.0368 8.22301 12.7142 7.448 12.0912 7.32038C11.8531 7.27157 11.7543 7.2741 11.5661 7.45681C10.9568 8.17282 9.92778 9.29369 9.36641 9.90051C9.22139 10.0573 9.14886 10.1357 9.09745 10.2242C9.04957 10.3065 9.01531 10.3939 8.99453 10.4867C8.97217 10.5865 8.97217 10.6926 8.97217 10.9047V13.5018C8.97217 14.1223 8.97217 14.4325 9.09138 14.6703C9.20085 14.8886 9.3784 15.0656 9.59743 15.1746C9.83604 15.2935 10.1473 15.2935 10.7699 15.2935H13.493C13.9944 15.2935 14.2451 15.2935 14.4553 15.2084C14.6488 15.1301 14.8176 15.0012 14.9439 14.8354C15.081 14.6553 15.1463 14.414 15.2769 13.9316L15.507 13.0812C15.7536 12.1701 15.8769 11.7146 15.7738 11.3542C15.6795 11.0246 15.4631 10.7429 15.1683 10.5664C14.846 10.3734 14.3726 10.3734 13.4258 10.3734H12.5561C12.3935 10.3734 12.3625 10.3108 12.4084 10.1686Z" stroke="black" stroke-width="1.5" stroke-linecap="round" stroke-linejoin="round"/>
</svg>
