<svg width="24" height="24" viewBox="0 0 24 24" fill="none" xmlns="http://www.w3.org/2000/svg">
<path d="M7.78313 3H16.2178C19.1659 3 21 5.08119 21 8.02638V15.9736C21 18.9188 19.1659 21 16.2169 21H7.78313C4.83503 21 3 18.9188 3 15.9736V8.02638C3 5.08119 4.84378 3 7.78313 3Z" stroke="black" stroke-width="1.5" stroke-linecap="round" stroke-linejoin="round"/>
<path d="M20.9922 13.4561H16.7092C15.8219 13.4561 15.0114 13.9581 14.6173 14.753C14.1396 15.7163 13.1462 16.3779 11.9981 16.3779C10.85 16.3779 9.85754 15.7163 9.37884 14.753C8.98479 13.9581 8.17527 13.4561 7.28792 13.4561H3.00781" stroke="black" stroke-width="1.5" stroke-linecap="round" stroke-linejoin="round"/>
<path d="M17.2939 13.4564V10.6707C17.2939 8.93787 16.2149 7.71387 14.4801 7.71387H9.51794C7.78897 7.71387 6.70508 8.93787 6.70508 10.6707V13.4564" stroke="black" stroke-width="1.5" stroke-linecap="round" stroke-linejoin="round"/>
</svg>
