<svg width="24" height="24" viewBox="0 0 24 24" fill="none" xmlns="http://www.w3.org/2000/svg">
<path d="M7.78216 3H16.2169C19.165 3 21 5.08119 21 8.02638V15.9736C21 18.9188 19.165 21 16.2159 21H7.78216C4.83405 21 3 18.9188 3 15.9736V8.02638C3 5.08119 4.84281 3 7.78216 3Z" stroke="black" stroke-width="1.5" stroke-linecap="round" stroke-linejoin="round"/>
<path d="M7.5 11.2408C7.5 9.31288 9.04847 7.74998 10.9586 7.74998H13.0414C14.9515 7.74998 16.5 9.31288 16.5 11.2408C16.5 13.1688 14.9515 14.7317 13.0414 14.7317H12.5207V16.25C12.5207 16.25 9.53263 15.296 8.19728 13.3431C7.75958 12.7584 7.5 12.0302 7.5 11.2408Z" stroke="black" stroke-width="1.5" stroke-linecap="round" stroke-linejoin="round"/>
<path d="M7.5 11.2408C7.5 9.31288 9.04847 7.74998 10.9586 7.74998H13.0414C14.9515 7.74998 16.5 9.31288 16.5 11.2408C16.5 13.1688 14.9515 14.7317 13.0414 14.7317H12.5207V16.25C12.5207 16.25 9.53263 15.296 8.19728 13.3431C7.75958 12.7584 7.5 12.0302 7.5 11.2408Z" stroke="black" stroke-width="1.5" stroke-linecap="round" stroke-linejoin="round"/>
<path d="M7.5 11.2408C7.5 9.31288 9.04847 7.74998 10.9586 7.74998H13.0414C14.9515 7.74998 16.5 9.31288 16.5 11.2408C16.5 13.1688 14.9515 14.7317 13.0414 14.7317H12.5207V16.25C12.5207 16.25 9.53263 15.296 8.19728 13.3431C7.75958 12.7584 7.5 12.0302 7.5 11.2408Z" stroke="black" stroke-width="1.5" stroke-linecap="round" stroke-linejoin="round"/>
</svg>
