<svg width="24" height="24" viewBox="0 0 24 24" fill="none" xmlns="http://www.w3.org/2000/svg">
<path d="M9.10938 10.8379L9.12252 10.8379" stroke="black" stroke-width="1.5" stroke-linecap="round" stroke-linejoin="round"/>
<path d="M15.7571 9.30145L12.0624 9.30108C11.9523 9.12912 11.8314 8.96578 11.6811 8.81546C10.5581 7.69244 8.73728 7.69244 7.61424 8.81546C6.49122 9.93848 6.49122 11.7593 7.61424 12.8823C8.73727 14.0054 10.5581 14.0054 11.6811 12.8823C11.8991 12.6643 12.0757 12.4191 12.209 12.1587L13.0454 12.1578L13.5317 11.6716L14.2731 12.413L15.0268 11.6594L15.5091 12.1417C15.6455 12.2781 15.8667 12.2781 16.0032 12.1417L17.1255 11.0193C17.262 10.8828 17.262 10.6616 17.1255 10.5252L16.0041 9.40371C15.9386 9.33823 15.8497 9.30145 15.7571 9.30145Z" stroke="black" stroke-width="1.5" stroke-linecap="round" stroke-linejoin="round"/>
<path d="M21 6.31055C21 4.65369 19.6569 3.31055 18 3.31055H6C4.34315 3.31055 3 4.65369 3 6.31055V15.0938C3 16.7507 4.34315 18.0938 6 18.0938H8.16198C8.5598 18.0938 8.94134 18.2519 9.22264 18.5332L10.9393 20.2499C11.5251 20.8357 12.4749 20.8357 13.0607 20.2499L14.7774 18.5332C15.0587 18.2519 15.4402 18.0938 15.838 18.0938H18C19.6569 18.0938 21 16.7507 21 15.0938V6.31055Z" stroke="black" stroke-width="1.5" stroke-linecap="round" stroke-linejoin="round"/>
</svg>
