<svg width="24" height="24" viewBox="0 0 24 24" fill="none" xmlns="http://www.w3.org/2000/svg">
<path d="M13.6135 12.4422L15.1749 14.0017M11.6737 7.50781C13.2468 7.50781 14.5223 8.78323 14.5223 10.3554C14.5223 11.9285 13.2468 13.2039 11.6737 13.2039C10.1006 13.2039 8.8252 11.9285 8.8252 10.3554C8.8252 8.78323 10.1006 7.50781 11.6737 7.50781Z" stroke="black" stroke-width="1.5" stroke-linecap="round" stroke-linejoin="round"/>
<path d="M21 6.76527C21 5.11401 19.6569 3.77539 18 3.77539H6C4.34315 3.77539 3 5.11401 3 6.76527V19.2254C3 20.0279 3.9031 20.5013 4.56659 20.0466L7.5582 17.9965C7.80826 17.8251 8.10461 17.7334 8.40809 17.7334H18C19.6569 17.7334 21 16.3948 21 14.7435V6.76527Z" stroke="black" stroke-width="1.5" stroke-linecap="round" stroke-linejoin="round"/>
</svg>
