<svg width="24" height="24" viewBox="0 0 24 24" fill="none" xmlns="http://www.w3.org/2000/svg">
<path d="M13.6135 13.7343L15.1749 15.299M11.6737 8.7832C13.2468 8.7832 14.5223 10.0629 14.5223 11.6404C14.5223 13.2188 13.2468 14.4986 11.6737 14.4986C10.1006 14.4986 8.8252 13.2188 8.8252 11.6404C8.8252 10.0629 10.1006 8.7832 11.6737 8.7832Z" stroke="black" stroke-width="1.5" stroke-linecap="round" stroke-linejoin="round"/>
<path d="M3 9.50852C3 6.75641 5.23858 4.52539 8 4.52539H16C18.7614 4.52539 21 6.75642 21 9.50852V18.4782C21 19.0286 20.5523 19.4748 20 19.4748H8C5.23858 19.4748 3 17.2438 3 14.4917V9.50852Z" stroke="black" stroke-width="1.5" stroke-linecap="round" stroke-linejoin="round"/>
</svg>
