<svg width="24" height="24" viewBox="0 0 24 24" fill="none" xmlns="http://www.w3.org/2000/svg">
<path d="M15.164 15.1109H11.1111C9.39289 15.1109 8 13.718 8 11.9998C8 10.2816 9.39289 8.88867 11.1111 8.88867L13.9333 8.88867C15.0747 8.88867 16 9.81401 16 10.9553C16 12.0967 15.0747 13.022 13.9333 13.022H11.1804C10.6044 13.022 10.1369 12.5549 10.1369 11.9789C10.1369 11.4025 10.6044 10.9353 11.1804 10.9353L13.7782 10.9353" stroke="black" stroke-width="1.5" stroke-linecap="round" stroke-linejoin="round"/>
<path d="M21 9.17578C21 6.41436 18.7614 4.17578 16 4.17578H8C5.23858 4.17578 3 6.41436 3 9.17578V18.8242C3 19.3765 3.44772 19.8242 4 19.8242H16C18.7614 19.8242 21 17.5856 21 14.8242V9.17578Z" stroke="black" stroke-width="1.5" stroke-linecap="round" stroke-linejoin="round"/>
</svg>
