<svg width="24" height="24" viewBox="0 0 24 24" fill="none" xmlns="http://www.w3.org/2000/svg">
<path fill-rule="evenodd" clip-rule="evenodd" d="M13.2488 17.9351C14.2134 18.8996 15.6249 19.1424 16.8163 18.6662L18.7355 20.5859C19.2333 21.0833 20.0529 21.1548 20.5738 20.6815C21.128 20.178 21.1398 19.3235 20.6204 18.8036L18.6498 16.8331C19.1288 15.6385 18.886 14.2269 17.9215 13.2624C16.9536 12.2946 15.5388 12.0551 14.3475 12.5373L15.9938 14.1837C16.1425 14.3323 16.2074 14.5455 16.166 14.752L16.0108 15.5321C15.9609 15.782 15.7651 15.9772 15.5153 16.0267L14.738 16.1805C14.5319 16.221 14.3192 16.156 14.1706 16.0079L12.5238 14.361C12.0382 15.5491 12.281 16.9672 13.2488 17.9351Z" stroke="black" stroke-width="1.5" stroke-linecap="round" stroke-linejoin="round"/>
<path d="M7.74213 9.10547H13.1342M7.69629 12.9829H9.22568" stroke="black" stroke-width="1.5" stroke-linecap="round" stroke-linejoin="round"/>
<path d="M21 12.7552V6.75C21 5.09315 19.6569 3.75 18 3.75H6C4.34315 3.75 3 5.09315 3 6.75V19.2523C3 20.0575 3.9031 20.5325 4.56659 20.0763L7.5582 18.0192C7.80826 17.8473 8.10461 17.7552 8.40809 17.7552H9.20404" stroke="black" stroke-width="1.5" stroke-linecap="round" stroke-linejoin="round"/>
</svg>
