<svg width="24" height="24" viewBox="0 0 24 24" fill="none" xmlns="http://www.w3.org/2000/svg">
<path fill-rule="evenodd" clip-rule="evenodd" d="M13.2488 16.5073C14.2134 17.4719 15.6249 17.7146 16.8163 17.2385L18.7355 19.1582C19.2333 19.6555 20.0529 19.727 20.5738 19.2537C21.128 18.7502 21.1398 17.8958 20.6204 17.3759L18.6498 15.4054C19.1288 14.2107 18.886 12.7992 17.9215 11.8347C16.9536 10.8668 15.5388 10.6273 14.3475 11.1096L15.9938 12.7559C16.1425 12.9046 16.2074 13.1178 16.166 13.3243L16.0108 14.1044C15.9609 14.3543 15.7651 14.5495 15.5153 14.5989L14.738 14.7528C14.5319 14.7933 14.3192 14.7283 14.1706 14.5801L12.5238 12.9333C12.0382 14.1214 12.281 15.5395 13.2488 16.5073Z" stroke="black" stroke-width="1.5" stroke-linecap="round" stroke-linejoin="round"/>
<path d="M7.75091 8.12207H13.143M7.70508 11.9995H9.23447" stroke="black" stroke-width="1.5" stroke-linecap="round" stroke-linejoin="round"/>
<path d="M13.0607 20.2499C12.4749 20.8357 11.5251 20.8357 10.9393 20.2499L9.22264 18.5332C8.94134 18.2519 8.5598 18.0938 8.16198 18.0938H6C4.34315 18.0938 3 16.7507 3 15.0938V6.31055C3 4.65369 4.34315 3.31055 6 3.31055H18C19.6569 3.31055 21 4.65369 21 6.31055V10.7022" stroke="black" stroke-width="1.5" stroke-linecap="round" stroke-linejoin="round"/>
</svg>
