<svg width="24" height="24" viewBox="0 0 24 24" fill="none" xmlns="http://www.w3.org/2000/svg">
<path d="M12.8858 13.0938H9.00049" stroke="black" stroke-width="1.5" stroke-linecap="round" stroke-linejoin="round"/>
<path d="M11.1143 8.5166H14.9996" stroke="black" stroke-width="1.5" stroke-linecap="round" stroke-linejoin="round"/>
<path fill-rule="evenodd" clip-rule="evenodd" d="M11.1144 8.46758C11.1144 9.10851 10.5946 9.62852 9.95391 9.62852C9.31282 9.62852 8.79297 9.10851 8.79297 8.46758C8.79297 7.82664 9.31282 7.30664 9.95391 7.30664C10.5946 7.30664 11.1144 7.82664 11.1144 8.46758Z" stroke="black" stroke-width="1.5" stroke-linecap="round" stroke-linejoin="round"/>
<path fill-rule="evenodd" clip-rule="evenodd" d="M12.8857 13.1453C12.8857 12.5044 13.4051 11.9844 14.0463 11.9844C14.6873 11.9844 15.2072 12.5044 15.2072 13.1453C15.2072 13.7863 14.6873 14.3063 14.0463 14.3063C13.4051 14.3063 12.8857 13.7863 12.8857 13.1453Z" stroke="black" stroke-width="1.5" stroke-linecap="round" stroke-linejoin="round"/>
<path d="M21 6.75C21 5.09315 19.6569 3.75 18 3.75H6C4.34315 3.75 3 5.09315 3 6.75V19.2523C3 20.0575 3.9031 20.5325 4.56659 20.0763L7.5582 18.0192C7.80826 17.8473 8.10461 17.7552 8.40809 17.7552H18C19.6569 17.7552 21 16.4121 21 14.7552V6.75Z" stroke="black" stroke-width="1.5" stroke-linecap="round" stroke-linejoin="round"/>
</svg>
