<svg width="24" height="24" viewBox="0 0 24 24" fill="none" xmlns="http://www.w3.org/2000/svg">
<path d="M8 11.0002C8 12.61 9.90622 14.1566 12 14.1566C14.0942 14.1566 16 12.61 16 11.0002C16 9.39042 14.0774 7.84375 12 7.84375C9.92311 7.84375 8 9.39042 8 11.0002Z" stroke="black" stroke-width="1.5" stroke-linecap="round" stroke-linejoin="round"/>
<path d="M12.006 10.9778V10.9234M11.9989 10.7617C11.8679 10.7617 11.7612 10.8684 11.7622 10.9995C11.7622 11.1305 11.8689 11.2372 12 11.2372C12.131 11.2372 12.2377 11.1305 12.2377 10.9995C12.2377 10.8674 12.131 10.7617 11.9989 10.7617Z" stroke="black" stroke-width="1.5" stroke-linecap="round" stroke-linejoin="round"/>
<path d="M21 6.75C21 5.09315 19.6569 3.75 18 3.75H6C4.34315 3.75 3 5.09315 3 6.75V19.2523C3 20.0575 3.9031 20.5325 4.56659 20.0763L7.5582 18.0192C7.80826 17.8473 8.10461 17.7552 8.40809 17.7552H18C19.6569 17.7552 21 16.4121 21 14.7552V6.75Z" stroke="black" stroke-width="1.5" stroke-linecap="round" stroke-linejoin="round"/>
</svg>
