<svg width="24" height="24" viewBox="0 0 24 24" fill="none" xmlns="http://www.w3.org/2000/svg">
<path d="M15.6929 10.0254H17.7516C19.5458 10.0254 21.0002 11.475 21.0002 13.2631V19.5108C21.0002 19.8684 20.7093 20.1583 20.3505 20.1583H11.5992C9.80505 20.1583 8.35059 18.7088 8.35059 16.9206V14.0416" stroke="black" stroke-width="1.5" stroke-linecap="round" stroke-linejoin="round"/>
<path d="M15.6499 7.07949C15.6499 5.29136 14.1955 3.8418 12.4013 3.8418H6.24889C4.45471 3.8418 3.00025 5.29136 3.00025 7.07949V13.3272C3.00025 13.6848 3.29114 13.9747 3.64998 13.9747H12.4013C14.1955 13.9747 15.6499 12.5252 15.6499 10.7371V7.07949Z" stroke="black" stroke-width="1.5" stroke-linecap="round" stroke-linejoin="round"/>
<path d="M11.2805 8.89714V8.94765M11.4859 8.908C11.4859 9.02168 11.3933 9.11385 11.2792 9.11385C11.1652 9.11385 11.0728 9.02168 11.0728 8.908C11.0728 8.79431 11.1652 8.70215 11.2792 8.70215C11.3933 8.70215 11.4859 8.79431 11.4859 8.908Z" stroke="black" stroke-width="1.5" stroke-linecap="round" stroke-linejoin="round"/>
<path d="M7.37231 8.89714V8.94765M7.57767 8.908C7.57767 9.02168 7.48512 9.11385 7.37105 9.11385C7.25697 9.11385 7.16455 9.02168 7.16455 8.908C7.16455 8.79431 7.25697 8.70215 7.37105 8.70215C7.48512 8.70215 7.57767 8.79431 7.57767 8.908Z" stroke="black" stroke-width="1.5" stroke-linecap="round" stroke-linejoin="round"/>
<path d="M16.6306 16.3552V16.4057M16.836 16.366C16.836 16.4797 16.7434 16.5719 16.6293 16.5719C16.5153 16.5719 16.4229 16.4797 16.4229 16.366C16.4229 16.2523 16.5153 16.1602 16.6293 16.1602C16.7434 16.1602 16.836 16.2523 16.836 16.366Z" stroke="black" stroke-width="1.5" stroke-linecap="round" stroke-linejoin="round"/>
<path d="M12.7224 16.3552V16.4057M12.9278 16.366C12.9278 16.4797 12.8352 16.5719 12.7211 16.5719C12.6071 16.5719 12.5146 16.4797 12.5146 16.366C12.5146 16.2523 12.6071 16.1602 12.7211 16.1602C12.8352 16.1602 12.9278 16.2523 12.9278 16.366Z" stroke="black" stroke-width="1.5" stroke-linecap="round" stroke-linejoin="round"/>
</svg>
