<svg width="24" height="24" viewBox="0 0 24 24" fill="none" xmlns="http://www.w3.org/2000/svg">
<path d="M9.38257 9.78687L9.38257 14.2273M9.3268 9.78688C10.0593 9.78688 10.6536 9.19276 10.6536 8.46059C10.6536 7.72791 10.0593 7.13379 9.3268 7.13379C8.59429 7.13379 8 7.72791 8 8.46059C8 9.19276 8.59429 9.78688 9.3268 9.78688Z" stroke="black" stroke-width="1.5" stroke-linecap="round" stroke-linejoin="round"/>
<path d="M14.6135 11.8115L14.6135 7.37109M14.673 11.8112C13.9405 11.8112 13.3462 12.4048 13.3462 13.1375C13.3462 13.8701 13.9405 14.4642 14.673 14.4642C15.4055 14.4642 15.9998 13.8701 15.9998 13.1375C15.9998 12.4048 15.4055 11.8112 14.673 11.8112Z" stroke="black" stroke-width="1.5" stroke-linecap="round" stroke-linejoin="round"/>
<path d="M21 6.30957C21 4.65272 19.6569 3.30957 18 3.30957H6C4.34315 3.30957 3 4.65272 3 6.30957V15.0929C3 16.7497 4.34315 18.0929 6 18.0929H8.16198C8.5598 18.0929 8.94134 18.2509 9.22264 18.5322L10.9393 20.2489C11.5251 20.8347 12.4749 20.8347 13.0607 20.2489L14.7774 18.5322C15.0587 18.2509 15.4402 18.0929 15.838 18.0929H18C19.6569 18.0929 21 16.7497 21 15.0929V6.30957Z" stroke="black" stroke-width="1.5" stroke-linecap="round" stroke-linejoin="round"/>
</svg>
