<svg width="24" height="24" viewBox="0 0 24 24" fill="none" xmlns="http://www.w3.org/2000/svg">
<path d="M13.1025 6.46777L15.298 8.66322L13.1025 10.8587" stroke="black" stroke-width="1.5" stroke-linecap="round" stroke-linejoin="round"/>
<path d="M15.2984 8.66309H11.6044C10.0015 8.66309 8.70215 9.96247 8.70215 11.5653C8.70215 13.1682 10.0015 14.4676 11.6044 14.4676H15.2984" stroke="black" stroke-width="1.5" stroke-linecap="round" stroke-linejoin="round"/>
<path d="M21 6.30957C21 4.65272 19.6569 3.30957 18 3.30957H6C4.34315 3.30957 3 4.65272 3 6.30957V15.0929C3 16.7497 4.34315 18.0929 6 18.0929H8.16198C8.5598 18.0929 8.94134 18.2509 9.22264 18.5322L10.9393 20.2489C11.5251 20.8347 12.4749 20.8347 13.0607 20.2489L14.7774 18.5322C15.0587 18.2509 15.4402 18.0929 15.838 18.0929H18C19.6569 18.0929 21 16.7497 21 15.0929V6.30957Z" stroke="black" stroke-width="1.5" stroke-linecap="round" stroke-linejoin="round"/>
</svg>
