<svg width="24" height="24" viewBox="0 0 24 24" fill="none" xmlns="http://www.w3.org/2000/svg">
<path d="M20.0093 18.6726L20.0072 18.6766C19.9431 18.788 19.9033 18.9121 19.9054 19.041L19.9128 19.4606C19.9162 19.6772 19.8156 19.8836 19.6409 20.0105C19.4533 20.1461 19.253 20.2621 19.0411 20.3559C18.8441 20.4436 18.6147 20.4274 18.4298 20.3161L18.0702 20.1009C17.9596 20.0341 17.8321 20.0057 17.7026 20.0064H17.6985C17.5696 20.0064 17.4428 20.0341 17.3322 20.1002L16.9719 20.3161C16.7863 20.4274 16.5576 20.4436 16.36 20.3559C16.1488 20.2614 15.9477 20.1454 15.7608 20.0098C15.5861 19.8823 15.4862 19.6758 15.4896 19.4599L15.497 19.041C15.4991 18.9114 15.4593 18.7873 15.3945 18.6753L15.3925 18.6712C15.3277 18.5599 15.24 18.4641 15.128 18.402L14.761 18.1983C14.5673 18.0903 14.4412 17.8933 14.4189 17.6734C14.3967 17.4528 14.3967 17.2301 14.4196 17.0095C14.4419 16.7896 14.568 16.5926 14.7617 16.4853L15.1273 16.2822C15.2407 16.2195 15.3284 16.123 15.3931 16.011L15.3952 16.0076C15.4593 15.8956 15.4991 15.7715 15.497 15.6426L15.4896 15.2237C15.4862 15.0071 15.5868 14.8006 15.7622 14.6731C15.9491 14.5375 16.1495 14.4215 16.3613 14.3277C16.5583 14.24 16.7877 14.2562 16.9726 14.3675L17.3322 14.5834C17.4428 14.6495 17.5703 14.6778 17.6992 14.6772H17.7039C17.8328 14.6772 17.9596 14.6495 18.0702 14.5834L18.4298 14.3675C18.6154 14.2562 18.8448 14.24 19.0425 14.3277C19.2536 14.4221 19.4547 14.5382 19.6416 14.6738C19.8163 14.8013 19.9162 15.0078 19.9128 15.2237L19.9054 15.6426C19.9033 15.7722 19.9431 15.8963 20.0079 16.0076L20.0099 16.0123C20.0747 16.1237 20.1624 16.2195 20.2751 16.2822L20.6414 16.4853C20.8351 16.5932 20.9612 16.7902 20.9835 17.0102C21.0058 17.2315 21.0058 17.4534 20.9828 17.6747C20.9606 17.8947 20.8344 18.091 20.6408 18.1983L20.2751 18.4014C20.1617 18.4641 20.074 18.5606 20.0093 18.6726Z" stroke="black" stroke-width="1.5" stroke-linecap="round" stroke-linejoin="round"/>
<path d="M17.7068 17.3604V17.4094M17.7005 17.5547C17.5827 17.5547 17.4868 17.4588 17.4878 17.341C17.4878 17.2233 17.5837 17.1274 17.7014 17.1274C17.8192 17.1274 17.9151 17.2233 17.9151 17.341C17.9151 17.4597 17.8192 17.5547 17.7005 17.5547Z" stroke="black" stroke-width="1.5" stroke-linecap="round" stroke-linejoin="round"/>
<path d="M10.9171 14.1367V13.2286M10.9171 9.59602V8.68792M8.55518 12.7746L9.33927 12.3206M12.4937 10.5039L13.277 10.0498M8.55518 10.0498L9.33927 10.5039M12.4937 12.3206L13.277 12.7746M12.2006 12.6973C12.9095 11.9884 12.9095 10.8371 12.2006 10.1281C11.4916 9.41922 10.3412 9.41922 9.63226 10.1281C8.92329 10.8371 8.92329 11.9884 9.63226 12.6973C10.3412 13.4054 11.4916 13.4054 12.2006 12.6973Z" stroke="black" stroke-width="1.5" stroke-linecap="round" stroke-linejoin="round"/>
<path d="M11 19.2363H4C3.44772 19.2363 3 18.7886 3 18.2363V8.58789C3 5.82647 5.23858 3.58789 8 3.58789H16C18.7614 3.58789 21 5.82647 21 8.58789V11.2363" stroke="black" stroke-width="1.5" stroke-linecap="round" stroke-linejoin="round"/>
</svg>
