<svg width="24" height="24" viewBox="0 0 24 24" fill="none" xmlns="http://www.w3.org/2000/svg">
<path d="M7.66309 8H13.2202M7.66309 11.8175H10.0619" stroke="black" stroke-width="1.5" stroke-linecap="round" stroke-linejoin="round"/>
<path d="M11.2086 17.2989H8.40809C8.10461 17.2989 7.80826 17.3906 7.5582 17.562L4.56659 19.6121C3.9031 20.0668 3 19.5934 3 18.7909V6.33071C3 4.67944 4.34315 3.34082 6 3.34082H18C19.6569 3.34082 21 4.67944 21 6.33071V11.1368" stroke="black" stroke-width="1.5" stroke-linecap="round" stroke-linejoin="round"/>
<path d="M14.2627 18.9067C14.8985 19.9562 16.0526 20.6585 17.37 20.6585C19.3744 20.6585 21 19.033 21 17.0274C21 15.023 19.3744 13.3975 17.37 13.3975C15.9514 13.3975 14.7221 14.2119 14.1255 15.3975" stroke="black" stroke-width="1.5" stroke-linecap="round" stroke-linejoin="round"/>
<path d="M16.1354 15.3964L14.1255 15.3975V13.3975" stroke="black" stroke-width="1.5" stroke-linecap="round" stroke-linejoin="round"/>
</svg>
