<svg width="24" height="24" viewBox="0 0 24 24" fill="none" xmlns="http://www.w3.org/2000/svg">
<path fill-rule="evenodd" clip-rule="evenodd" d="M16.0248 11.0069L15.2048 11.144C14.6047 11.2452 14.0745 10.7442 14.1397 10.1392L14.2311 9.293C14.2759 8.88448 14.4461 8.50027 14.7204 8.19388L18.294 4.29346C18.7161 3.83728 19.4281 3.81005 19.8843 4.23219L20.6391 4.93056C21.0953 5.3527 21.1225 6.0647 20.7004 6.52088L17.1657 10.3785C16.8681 10.7112 16.4654 10.9329 16.0248 11.0069Z" stroke="black" stroke-width="1.5" stroke-linecap="round" stroke-linejoin="round"/>
<path d="M13 5.13477H8C5.23858 5.13477 3 7.37334 3 10.1348V19.1348C3 19.6871 3.44772 20.1348 4 20.1348H16C18.7614 20.1348 21 17.8962 21 15.1348V11.1348" stroke="black" stroke-width="1.5" stroke-linecap="round" stroke-linejoin="round"/>
</svg>
