<svg width="24" height="24" viewBox="0 0 24 24" fill="none" xmlns="http://www.w3.org/2000/svg">
<path d="M8.64822 9.13086H14.0226M8.60254 12.9955H11.5106" stroke="black" stroke-width="1.5" stroke-linecap="round" stroke-linejoin="round"/>
<path d="M14.5118 14.0254L14.5219 14.0355M20.8873 18.0075L18.0093 15.1289C18.0574 14.9091 18.0905 14.6877 18.0905 14.4535C18.0905 12.7037 16.672 11.2852 14.9222 11.2852C13.1724 11.2851 11.7539 12.7037 11.7539 14.4535C11.7539 16.2033 13.1724 17.6218 14.9222 17.6218C15.2619 17.6217 15.5904 17.5683 15.8972 17.4693L16.5495 18.1202L17.3072 18.1202L17.3071 19.2754L18.4814 19.2755L18.4815 20.027C18.4814 20.2395 18.6537 20.4118 18.8663 20.4119L20.6151 20.4119C20.8277 20.4119 21.0001 20.2395 21.0001 20.0269L21.0001 18.2796C21.0001 18.1775 20.9595 18.0796 20.8873 18.0075Z" stroke="black" stroke-width="1.5" stroke-linecap="round" stroke-linejoin="round"/>
<path d="M11 19.2363H4C3.44772 19.2363 3 18.7886 3 18.2363V8.58789C3 5.82647 5.23858 3.58789 8 3.58789H16C18.7614 3.58789 21 5.82647 21 8.58789V11.2363" stroke="black" stroke-width="1.5" stroke-linecap="round" stroke-linejoin="round"/>
</svg>
