<svg width="24" height="24" viewBox="0 0 24 24" fill="none" xmlns="http://www.w3.org/2000/svg">
<path d="M9.10938 10.8379L9.12252 10.8379" stroke="black" stroke-width="1.5" stroke-linecap="round" stroke-linejoin="round"/>
<path d="M15.7571 9.30145L12.0624 9.30108C11.9523 9.12912 11.8314 8.96578 11.6811 8.81546C10.5581 7.69244 8.73728 7.69244 7.61424 8.81546C6.49122 9.93848 6.49122 11.7593 7.61424 12.8823C8.73727 14.0054 10.5581 14.0054 11.6811 12.8823C11.8991 12.6643 12.0757 12.4191 12.209 12.1587L13.0454 12.1578L13.5317 11.6716L14.2731 12.413L15.0268 11.6594L15.5091 12.1417C15.6455 12.2781 15.8667 12.2781 16.0032 12.1417L17.1255 11.0193C17.262 10.8828 17.262 10.6616 17.1255 10.5252L16.0041 9.40371C15.9386 9.33823 15.8497 9.30145 15.7571 9.30145Z" stroke="black" stroke-width="1.5" stroke-linecap="round" stroke-linejoin="round"/>
<path d="M21 6.75C21 5.09315 19.6569 3.75 18 3.75H6C4.34315 3.75 3 5.09315 3 6.75V19.2523C3 20.0575 3.9031 20.5325 4.56659 20.0763L7.5582 18.0192C7.80826 17.8473 8.10461 17.7552 8.40809 17.7552H18C19.6569 17.7552 21 16.4121 21 14.7552V6.75Z" stroke="black" stroke-width="1.5" stroke-linecap="round" stroke-linejoin="round"/>
</svg>
