<svg width="24" height="24" viewBox="0 0 24 24" fill="none" xmlns="http://www.w3.org/2000/svg">
<path d="M18.8283 18.8283L16.719 20.9376L16.2712 20.4898L16.09 18.88L13.5413 16.3312M18.8283 18.8283L20.9375 16.7191L20.4898 16.2712L18.8799 16.0901L16.3311 13.5414M18.8283 18.8283L18.8134 18.8134M18.8283 18.8283L21 21M13.5413 16.3312L16.3311 13.5414M13.5413 16.3312L12.9999 16.8726M16.3311 13.5414L16.8725 13" stroke="black" stroke-width="1.5" stroke-linecap="round" stroke-linejoin="round"/>
<path d="M7.92181 8.55859H13.3139M7.87598 12.436H10.7936" stroke="black" stroke-width="1.5" stroke-linecap="round" stroke-linejoin="round"/>
<path d="M21 12.7148V6.75C21 5.09315 19.6569 3.75 18 3.75H6C4.34315 3.75 3 5.09315 3 6.75V19.2523C3 20.0575 3.9031 20.5325 4.56659 20.0763L7.5582 18.0192C7.80826 17.8473 8.10461 17.7552 8.40809 17.7552H9.79685" stroke="black" stroke-width="1.5" stroke-linecap="round" stroke-linejoin="round"/>
</svg>
