<svg width="24" height="24" viewBox="0 0 24 24" fill="none" xmlns="http://www.w3.org/2000/svg">
<path d="M8 12.0002C8 13.61 9.90622 15.1566 12 15.1566C14.0942 15.1566 16 13.61 16 12.0002C16 10.3904 14.0774 8.84375 12 8.84375C9.92311 8.84375 8 10.3904 8 12.0002Z" stroke="black" stroke-width="1.5" stroke-linecap="round" stroke-linejoin="round"/>
<path d="M12.006 11.9788V11.9244M11.9989 11.7627C11.8679 11.7627 11.7612 11.8694 11.7622 12.0004C11.7622 12.1315 11.8689 12.2382 12 12.2382C12.131 12.2382 12.2377 12.1315 12.2377 12.0004C12.2377 11.8684 12.131 11.7627 11.9989 11.7627Z" stroke="black" stroke-width="1.5" stroke-linecap="round" stroke-linejoin="round"/>
<path d="M21 9.17578C21 6.41436 18.7614 4.17578 16 4.17578H8C5.23858 4.17578 3 6.41436 3 9.17578V18.8242C3 19.3765 3.44772 19.8242 4 19.8242H16C18.7614 19.8242 21 17.5856 21 14.8242V9.17578Z" stroke="black" stroke-width="1.5" stroke-linecap="round" stroke-linejoin="round"/>
</svg>
