<svg width="24px"  height="24px"  viewBox="0 0 24 24" fill="none" xmlns="http://www.w3.org/2000/svg">
<path fill-rule="evenodd" clip-rule="evenodd" d="M3.7402 3.89737C4.72468 2.84117 6.12669 2.25 7.78216 2.25H16.2169C17.8762 2.25 19.2788 2.84084 20.2629 3.89765C21.2413 4.94841 21.75 6.39889 21.75 8.02638V15.9736C21.75 17.6011 21.2413 19.0516 20.2627 20.1024C19.2785 21.1592 17.8756 21.75 16.2159 21.75H7.78216C6.1228 21.75 4.72038 21.1591 3.73657 20.1023C2.75842 19.0515 2.25 17.601 2.25 15.9736V8.02638C2.25 6.39806 2.76117 4.94771 3.7402 3.89737ZM4.83745 4.92012C4.16024 5.64666 3.75 6.70951 3.75 8.02638V15.9736C3.75 17.2914 4.15861 18.3541 4.83451 19.0802C5.50475 19.8003 6.49341 20.25 7.78216 20.25H16.2159C17.5052 20.25 18.4944 19.8002 19.165 19.0801C19.8412 18.354 20.25 17.2913 20.25 15.9736V8.02638C20.25 6.70868 19.8412 5.64597 19.1651 4.91984C18.4946 4.19975 17.5056 3.75 16.2169 3.75H7.78216C6.49828 3.75 5.50921 4.19943 4.83745 4.92012Z" fill="#000000" />
<path fill-rule="evenodd" clip-rule="evenodd" d="M7.09403 7.98829H9.08783C10.3937 7.98829 11.4539 9.0464 11.4539 10.3534C11.4539 10.9786 11.2118 11.5473 10.816 11.9705C11.2118 12.3937 11.4539 12.9624 11.4539 13.5876C11.4539 14.895 10.3952 15.9537 9.08783 15.9537H7.09256C6.50176 15.9537 6.01953 15.4754 6.01953 14.8807V9.05527C6.02274 8.46865 6.49823 7.98645 7.09403 7.98829ZM9.08783 11.2205C9.56622 11.2205 9.95394 10.833 9.95394 10.3534C9.95394 9.87601 9.56642 9.48829 9.08783 9.48829H7.51953V11.2205H9.08783ZM7.51953 12.7205H9.08783C9.56622 12.7205 9.95394 13.108 9.95394 13.5876C9.95394 14.0666 9.56681 14.4537 9.08783 14.4537H7.51953V12.7205ZM7.08846 9.48829H7.09256C7.09119 9.48829 7.08983 9.48829 7.08846 9.48829Z" fill="#000000" />
<path fill-rule="evenodd" clip-rule="evenodd" d="M13.9271 13.7121H17.0292C17.5543 13.7121 17.9806 13.2858 17.9806 12.7607V12.7256C17.9806 11.1517 16.7039 9.875 15.1299 9.875C13.5559 9.875 12.2793 11.1517 12.2793 12.7256V13.0774C12.2793 14.6984 13.5942 16.0125 15.2156 16.0125C15.9619 16.0125 16.7103 15.7272 17.2817 15.1609C17.576 14.8694 17.5781 14.3945 17.2866 14.1003C16.995 13.806 16.5202 13.8039 16.2259 14.0954C15.9451 14.3737 15.5804 14.5125 15.2156 14.5125C14.6503 14.5125 14.1615 14.1862 13.9271 13.7121ZM15.1299 11.375C14.5662 11.375 14.0827 11.721 13.8805 12.2121H16.3794C16.1772 11.721 15.6937 11.375 15.1299 11.375Z" fill="#000000" />
</svg>