<svg width="24px"  height="24px"  viewBox="0 0 24 24" fill="none" xmlns="http://www.w3.org/2000/svg">
<path fill-rule="evenodd" clip-rule="evenodd" d="M8.75 12C8.75 11.5858 9.08579 11.25 9.5 11.25H13.6055C14.0197 11.25 14.3555 11.5858 14.3555 12C14.3555 12.4142 14.0197 12.75 13.6055 12.75H9.5C9.08579 12.75 8.75 12.4142 8.75 12Z" fill="#000000" />
<path fill-rule="evenodd" clip-rule="evenodd" d="M7.75 8C7.75 7.58579 8.08579 7.25 8.5 7.25H15.5C15.9142 7.25 16.25 7.58579 16.25 8V9C16.25 9.41421 15.9142 9.75 15.5 9.75C15.0858 9.75 14.75 9.41421 14.75 9V8.75H8.5C8.08579 8.75 7.75 8.41421 7.75 8Z" fill="#000000" />
<path fill-rule="evenodd" clip-rule="evenodd" d="M9.5 7.25C9.91421 7.25 10.25 7.58579 10.25 8L10.25 16C10.25 16.4142 9.91421 16.75 9.5 16.75C9.08579 16.75 8.75 16.4142 8.75 16L8.75 8C8.75 7.58579 9.08579 7.25 9.5 7.25Z" fill="#000000" />
<path fill-rule="evenodd" clip-rule="evenodd" d="M13.6055 10.25C14.0197 10.25 14.3555 10.5858 14.3555 11V13C14.3555 13.4142 14.0197 13.75 13.6055 13.75C13.1913 13.75 12.8555 13.4142 12.8555 13L12.8555 11C12.8555 10.5858 13.1913 10.25 13.6055 10.25Z" fill="#000000" />
<path fill-rule="evenodd" clip-rule="evenodd" d="M15.5 14.25C15.9142 14.25 16.25 14.5858 16.25 15V16C16.25 16.4142 15.9142 16.75 15.5 16.75H8.5C8.08579 16.75 7.75 16.4142 7.75 16C7.75 15.5858 8.08579 15.25 8.5 15.25H14.75V15C14.75 14.5858 15.0858 14.25 15.5 14.25Z" fill="#000000" />
<path fill-rule="evenodd" clip-rule="evenodd" d="M3.7402 3.89737C4.72468 2.84117 6.12669 2.25 7.78216 2.25H16.2169C17.8762 2.25 19.2788 2.84084 20.2629 3.89765C21.2413 4.94841 21.75 6.39889 21.75 8.02638V15.9736C21.75 17.6011 21.2413 19.0516 20.2627 20.1024C19.2785 21.1592 17.8756 21.75 16.2159 21.75H7.78216C6.1228 21.75 4.72038 21.1591 3.73657 20.1023C2.75842 19.0515 2.25 17.601 2.25 15.9736V8.02638C2.25 6.39806 2.76117 4.94771 3.7402 3.89737ZM4.83745 4.92012C4.16024 5.64666 3.75 6.70951 3.75 8.02638V15.9736C3.75 17.2914 4.15861 18.3541 4.83451 19.0802C5.50475 19.8003 6.49341 20.25 7.78216 20.25H16.2159C17.5052 20.25 18.4944 19.8002 19.165 19.0801C19.8412 18.354 20.25 17.2913 20.25 15.9736V8.02638C20.25 6.70868 19.8412 5.64597 19.1651 4.91984C18.4946 4.19975 17.5056 3.75 16.2169 3.75H7.78216C6.49828 3.75 5.50921 4.19943 4.83745 4.92012Z" fill="#000000" />
</svg>