<svg width="24px"  height="24px"  viewBox="0 0 24 24" fill="none" xmlns="http://www.w3.org/2000/svg">
<path fill-rule="evenodd" clip-rule="evenodd" d="M6.44294 2.80469C6.76565 2.80481 7.0521 3.01136 7.15416 3.31752L9.46004 10.2352L12.7137 20.2139C12.8146 20.5234 12.7043 20.8627 12.4407 21.0538C12.177 21.2448 11.8202 21.2439 11.5576 21.0515L2.55695 14.4607C2.29376 14.268 2.18533 13.9273 2.28872 13.6179L5.73132 3.31696C5.83361 3.01089 6.12022 2.80456 6.44294 2.80469ZM3.88494 13.574L10.5662 18.4664L8.03546 10.7049L6.44172 5.92362L3.88494 13.574Z" fill="#000000" />
<path fill-rule="evenodd" clip-rule="evenodd" d="M17.5551 2.80469C17.8783 2.80393 18.1657 3.01037 18.2682 3.31696L21.7108 13.6179C21.8142 13.9273 21.7057 14.268 21.4426 14.4607L12.4432 21.0515C12.1802 21.2441 11.823 21.2448 11.5593 21.0532C11.2955 20.8616 11.1858 20.5217 11.2876 20.212L16.8444 3.32032C16.9454 3.01325 17.2318 2.80545 17.5551 2.80469ZM17.5625 5.93766L13.4431 18.46L20.1146 13.574L17.5625 5.93766Z" fill="#000000" />
<path fill-rule="evenodd" clip-rule="evenodd" d="M3.4668 10.2148C3.4668 9.80063 3.80258 9.46484 4.2168 9.46484H19.7833C20.1975 9.46484 20.5333 9.80063 20.5333 10.2148C20.5333 10.6291 20.1975 10.9648 19.7833 10.9648H4.2168C3.80258 10.9648 3.4668 10.6291 3.4668 10.2148Z" fill="#000000" />
</svg>