<svg width="24px"  height="24px"  viewBox="0 0 24 24" fill="none" xmlns="http://www.w3.org/2000/svg">
<path d="M13.4512 21.1387C13.2612 21.1387 13.0711 21.0687 12.9211 20.9187C12.6311 20.6287 12.6311 20.1487 12.9211 19.8587L19.8712 12.9187C20.3812 12.4087 20.3812 11.5787 19.8712 11.0687L12.9312 4.12868C12.4412 3.63868 11.5712 3.63868 11.0812 4.12868C10.8312 4.37868 10.7012 4.70867 10.7012 5.05867C10.7012 5.40867 10.8412 5.73865 11.0812 5.97865L16.5612 11.4587C16.8512 11.7487 16.8512 12.2287 16.5612 12.5187L12.5312 16.5487C12.2412 16.8387 11.7612 16.8387 11.4712 16.5487C11.1812 16.2587 11.1812 15.7787 11.4712 15.4887L14.9712 11.9887L10.0212 7.03865C9.49118 6.50865 9.20117 5.79866 9.20117 5.04866C9.20117 4.29866 9.49118 3.58867 10.0212 3.05867C11.0812 1.99867 12.9311 1.99867 13.9911 3.05867L20.9312 9.99867C22.0212 11.0887 22.0212 12.8786 20.9312 13.9686L13.9811 20.9086C13.8311 21.0586 13.6412 21.1287 13.4512 21.1287V21.1387Z" fill="#000000" />
<path d="M11.991 21.7371C11.271 21.7371 10.551 21.4671 10.011 20.9171L3.07098 13.9771C2.54098 13.4471 2.25098 12.7471 2.25098 11.9971C2.25098 11.2471 2.54098 10.5371 3.07098 10.0071L10.011 3.06711C10.301 2.77711 10.781 2.77711 11.071 3.06711C11.361 3.35711 11.361 3.83711 11.071 4.12711L4.12097 11.0671C3.87097 11.3171 3.74097 11.6471 3.74097 11.9871C3.74097 12.3271 3.88097 12.6671 4.12097 12.9071L11.061 19.8471C11.571 20.3571 12.401 20.3571 12.911 19.8471C13.421 19.3371 13.421 18.5071 12.911 17.9971L7.43097 12.5171C7.29097 12.3771 7.211 12.1871 7.211 11.9871C7.211 11.7871 7.29097 11.5971 7.43097 11.4571L11.461 7.42709C11.751 7.13709 12.231 7.13709 12.521 7.42709C12.811 7.71709 12.811 8.19709 12.521 8.48709L9.021 11.9871L13.971 16.9371C15.061 18.0271 15.061 19.8171 13.971 20.9071C13.421 21.4571 12.701 21.7271 11.981 21.7271L11.991 21.7371Z" fill="#000000" />
</svg>