<svg width="24px"  height="24px"  viewBox="0 0 24 24" fill="none" xmlns="http://www.w3.org/2000/svg">
<path fill-rule="evenodd" clip-rule="evenodd" d="M11.4694 2.46967C11.6101 2.32902 11.8008 2.25 11.9998 2.25C16.6518 2.25004 20.6558 5.53664 21.5626 10.0995C22.4695 14.6623 20.0264 19.2301 15.7279 21.009C11.4294 22.7879 6.47295 21.2822 3.89026 17.4129C1.30757 13.5437 1.81818 8.38874 5.10976 5.10133C5.40284 4.80863 5.87772 4.80893 6.17042 5.10201C6.46313 5.39509 6.46283 5.86996 6.16975 6.16267C3.38457 8.94432 2.95251 13.3062 5.13786 16.5802C7.32321 19.8542 11.5172 21.1282 15.1544 19.623C18.7916 18.1178 20.8587 14.2527 20.0914 10.3918C19.3733 6.7786 16.3599 4.11117 12.7498 3.78387V10.714C12.7498 11.1282 12.414 11.464 11.9998 11.464C11.5855 11.464 11.2498 11.1282 11.2498 10.714V3C11.2498 2.80109 11.3288 2.61032 11.4694 2.46967Z" fill="#000000" />
</svg>