<svg width="24px"  height="24px"  viewBox="0 0 24 24" fill="none" xmlns="http://www.w3.org/2000/svg">
<path fill-rule="evenodd" clip-rule="evenodd" d="M12 3.75C7.44329 3.75 3.75 7.44329 3.75 12C3.75 16.5567 7.44329 20.25 12 20.25C16.5567 20.25 20.25 16.5567 20.25 12C20.25 7.44329 16.5567 3.75 12 3.75ZM2.25 12C2.25 6.61487 6.61487 2.25 12 2.25C17.3851 2.25 21.75 6.61487 21.75 12C21.75 17.3851 17.3851 21.75 12 21.75C6.61487 21.75 2.25 17.3851 2.25 12Z" fill="#000000" />
<path fill-rule="evenodd" clip-rule="evenodd" d="M11.1234 7.14062C11.5376 7.14062 11.8734 7.47641 11.8734 7.89062V8.5143C11.8734 8.87035 11.799 9.20903 11.6649 9.51565H14.1883C14.6025 9.51565 14.9383 9.85144 14.9383 10.2657C14.9383 10.6799 14.6025 11.0157 14.1883 11.0157H9.37207C8.95786 11.0157 8.62207 10.6799 8.62207 10.2657C8.62207 9.85144 8.95786 9.51565 9.37207 9.51565C9.92499 9.51565 10.3734 9.06722 10.3734 8.5143V7.89062C10.3734 7.47641 10.7092 7.14062 11.1234 7.14062Z" fill="#000000" />
<path fill-rule="evenodd" clip-rule="evenodd" d="M11.1221 6.89062C11.5363 6.89062 11.8721 7.22641 11.8721 7.64062V14.683C11.8721 15.1951 12.2864 15.6094 12.7985 15.6094C13.1336 15.6094 13.4364 15.4743 13.6566 15.2541C13.9495 14.9612 14.4244 14.9612 14.7173 15.2541C15.0102 15.547 15.0102 16.0218 14.7173 16.3147C14.2272 16.8048 13.5473 17.1094 12.7985 17.1094C11.458 17.1094 10.3721 16.0235 10.3721 14.683V7.64062C10.3721 7.22641 10.7079 6.89062 11.1221 6.89062Z" fill="#000000" />
</svg>