<svg width="24px"  height="24px"  viewBox="0 0 24 24" fill="none" xmlns="http://www.w3.org/2000/svg">
<path d="M14.6951 17.9009C13.4751 17.9009 12.4751 16.9009 12.4751 15.6809C12.4751 15.0909 12.7051 14.531 13.1251 14.111C13.5451 13.691 14.1051 13.4609 14.6951 13.4609C15.9251 13.4609 16.9151 14.4609 16.9151 15.6809C16.9151 16.9009 15.9151 17.9009 14.6951 17.9009ZM14.6951 14.9609C14.5051 14.9609 14.3251 15.0409 14.1851 15.1709C14.0551 15.3109 13.9751 15.4909 13.9751 15.6809C13.9751 16.0809 14.3051 16.4009 14.6951 16.4009C15.0851 16.4009 15.4151 16.0809 15.4151 15.6809C15.4151 15.2809 15.0951 14.9609 14.6951 14.9609Z" fill="#000000" />
<path d="M18.115 6.69995C16.895 6.69995 15.895 5.69998 15.895 4.47998C15.895 3.87998 16.125 3.3199 16.545 2.8999C16.965 2.4799 17.525 2.25 18.115 2.25C19.345 2.25 20.335 3.24997 20.335 4.46997C20.335 5.68997 19.335 6.69995 18.115 6.69995ZM18.115 3.75C17.925 3.75 17.745 3.81996 17.615 3.95996C17.475 4.09996 17.405 4.27998 17.405 4.47998C17.405 4.87998 17.725 5.19995 18.125 5.19995C18.525 5.19995 18.845 4.86997 18.845 4.46997C18.845 4.06997 18.525 3.75 18.125 3.75H18.115Z" fill="#000000" />
<path d="M18.0548 21.7505H5.94482C4.56482 21.7505 3.44482 20.6305 3.44482 19.2505V6.23047C3.44482 4.85047 4.56482 3.73047 5.94482 3.73047H16.6448C17.0548 3.73047 17.3948 4.07047 17.3948 4.48047C17.3948 4.89047 17.0548 5.23047 16.6448 5.23047H5.94482C5.39482 5.23047 4.94482 5.68047 4.94482 6.23047V19.2505C4.94482 19.8005 5.39482 20.2505 5.94482 20.2505H18.0548C18.6048 20.2505 19.0548 19.8005 19.0548 19.2505V12.0104C19.0548 11.4504 18.6048 11.0005 18.0548 11.0005H11.3048C10.7548 11.0005 10.3048 11.4504 10.3048 12.0104V13.9104C10.3048 14.4604 10.7548 14.9104 11.3048 14.9104H13.2348C13.6448 14.9104 13.9848 15.2504 13.9848 15.6604C13.9848 16.0704 13.6448 16.4104 13.2348 16.4104H11.3048C9.92484 16.4104 8.80484 15.2904 8.80484 13.9104V12.0104C8.80484 10.6304 9.92484 9.50049 11.3048 9.50049H18.0548C19.4348 9.50049 20.5548 10.6304 20.5548 12.0104V19.2505C20.5548 20.6305 19.4348 21.7505 18.0548 21.7505Z" fill="#000000" />
</svg>