<svg width="24px"  height="24px"  viewBox="0 0 24 24" fill="none" xmlns="http://www.w3.org/2000/svg">
<path fill-rule="evenodd" clip-rule="evenodd" d="M11.9866 8.99219C10.3253 8.99219 8.97852 10.3389 8.97852 12.0002C8.97852 13.6615 10.3253 15.0083 11.9866 15.0083C13.6478 15.0083 14.9946 13.6615 14.9946 12.0002C14.9946 10.3389 13.6478 8.99219 11.9866 8.99219ZM7.47852 12.0002C7.47852 9.5105 9.49683 7.49219 11.9866 7.49219C14.4763 7.49219 16.4946 9.5105 16.4946 12.0002C16.4946 14.4899 14.4763 16.5083 11.9866 16.5083C9.49683 16.5083 7.47852 14.4899 7.47852 12.0002Z" fill="#000000" />
<path fill-rule="evenodd" clip-rule="evenodd" d="M12 2.25C12.4142 2.25 12.75 2.58579 12.75 3V8.24197C12.75 8.65618 12.4142 8.99197 12 8.99197C11.5858 8.99197 11.25 8.65618 11.25 8.24197V3C11.25 2.58579 11.5858 2.25 12 2.25Z" fill="#000000" />
<path fill-rule="evenodd" clip-rule="evenodd" d="M12 15.0081C12.4142 15.0081 12.75 15.3438 12.75 15.7581V21C12.75 21.4142 12.4142 21.75 12 21.75C11.5858 21.75 11.25 21.4142 11.25 21V15.7581C11.25 15.3438 11.5858 15.0081 12 15.0081Z" fill="#000000" />
<path fill-rule="evenodd" clip-rule="evenodd" d="M21.75 12C21.75 12.4142 21.4142 12.75 21 12.75L15.758 12.75C15.3438 12.75 15.008 12.4142 15.008 12C15.008 11.5858 15.3438 11.25 15.758 11.25L21 11.25C21.4142 11.25 21.75 11.5858 21.75 12Z" fill="#000000" />
<path fill-rule="evenodd" clip-rule="evenodd" d="M8.99219 12C8.99219 12.4142 8.6564 12.75 8.24219 12.75L3.00022 12.75C2.58601 12.75 2.25022 12.4142 2.25022 12C2.25022 11.5858 2.58601 11.25 3.00022 11.25L8.24219 11.25C8.6564 11.25 8.99219 11.5858 8.99219 12Z" fill="#000000" />
<path fill-rule="evenodd" clip-rule="evenodd" d="M16.8751 3.5575C17.2338 3.7646 17.3567 4.22329 17.1496 4.58201L14.5286 9.12169C14.3215 9.48041 13.8628 9.60332 13.5041 9.39621C13.1454 9.1891 13.0225 8.73041 13.2296 8.37169L15.8506 3.83201C16.0577 3.47329 16.5164 3.35039 16.8751 3.5575Z" fill="#000000" />
<path fill-rule="evenodd" clip-rule="evenodd" d="M10.4962 14.6044C10.8549 14.8115 10.9778 15.2702 10.7707 15.6289L8.14973 20.1686C7.94263 20.5273 7.48394 20.6502 7.12522 20.4431C6.7665 20.236 6.64359 19.7773 6.8507 19.4186L9.47168 14.8789C9.67879 14.5202 10.1375 14.3973 10.4962 14.6044Z" fill="#000000" />
<path fill-rule="evenodd" clip-rule="evenodd" d="M20.4434 16.875C20.2363 17.2337 19.7776 17.3566 19.4188 17.1495L14.8792 14.5285C14.5204 14.3214 14.3975 13.8627 14.6046 13.504C14.8118 13.1453 15.2704 13.0224 15.6292 13.2295L20.1688 15.8505C20.5276 16.0576 20.6505 16.5163 20.4434 16.875Z" fill="#000000" />
<path fill-rule="evenodd" clip-rule="evenodd" d="M9.39453 10.4961C9.18742 10.8548 8.72873 10.9777 8.37001 10.7706L3.83034 8.14961C3.47162 7.94251 3.34871 7.48381 3.55582 7.12509C3.76292 6.76637 4.22162 6.64347 4.58034 6.85057L9.12001 9.47156C9.47873 9.67866 9.60164 10.1374 9.39453 10.4961Z" fill="#000000" />
<path fill-rule="evenodd" clip-rule="evenodd" d="M20.4434 7.12498C20.6505 7.4837 20.5276 7.9424 20.1688 8.1495L15.6292 10.7705C15.2704 10.9776 14.8118 10.8547 14.6046 10.496C14.3975 10.1372 14.5204 9.67855 14.8792 9.47145L19.4188 6.85046C19.7776 6.64336 20.2363 6.76626 20.4434 7.12498Z" fill="#000000" />
<path fill-rule="evenodd" clip-rule="evenodd" d="M9.39453 13.5039C9.60164 13.8626 9.47873 14.3213 9.12001 14.5284L4.58034 17.1494C4.22162 17.3565 3.76292 17.2336 3.55582 16.8749C3.34871 16.5162 3.47162 16.0575 3.83034 15.8504L8.37001 13.2294C8.72873 13.0223 9.18742 13.1452 9.39453 13.5039Z" fill="#000000" />
<path fill-rule="evenodd" clip-rule="evenodd" d="M16.8749 20.4425C16.5162 20.6496 16.0575 20.5267 15.8504 20.168L13.2294 15.6283C13.0223 15.2696 13.1452 14.8109 13.5039 14.6038C13.8626 14.3967 14.3213 14.5196 14.5284 14.8783L17.1494 19.418C17.3565 19.7767 17.2336 20.2354 16.8749 20.4425Z" fill="#000000" />
<path fill-rule="evenodd" clip-rule="evenodd" d="M10.496 9.39563C10.1373 9.60274 9.67858 9.47983 9.47147 9.12111L6.85049 4.58143C6.64338 4.22272 6.76629 3.76402 7.12501 3.55692C7.48373 3.34981 7.94242 3.47272 8.14953 3.83144L10.7705 8.37111C10.9776 8.72983 10.8547 9.18852 10.496 9.39563Z" fill="#000000" />
</svg>