<svg width="24px"  height="24px"  viewBox="0 0 24 24" fill="none" xmlns="http://www.w3.org/2000/svg">
<path fill-rule="evenodd" clip-rule="evenodd" d="M3.7402 3.89737C4.72468 2.84117 6.12669 2.25 7.78216 2.25H16.2169C17.8762 2.25 19.2788 2.84084 20.2629 3.89765C21.2413 4.94841 21.75 6.39889 21.75 8.02638V15.9736C21.75 17.6011 21.2413 19.0516 20.2627 20.1024C19.2785 21.1592 17.8756 21.75 16.2159 21.75H7.78216C6.1228 21.75 4.72038 21.1591 3.73657 20.1023C2.75842 19.0515 2.25 17.601 2.25 15.9736V8.02638C2.25 6.39806 2.76117 4.94771 3.7402 3.89737ZM4.83745 4.92012C4.16024 5.64666 3.75 6.70951 3.75 8.02638V15.9736C3.75 17.2914 4.15861 18.3541 4.83451 19.0802C5.50475 19.8003 6.49341 20.25 7.78216 20.25H16.2159C17.5052 20.25 18.4944 19.8002 19.165 19.0801C19.8412 18.354 20.25 17.2913 20.25 15.9736V8.02638C20.25 6.70868 19.8412 5.64597 19.1651 4.91984C18.4946 4.19975 17.5056 3.75 16.2169 3.75H7.78216C6.49828 3.75 5.50921 4.19943 4.83745 4.92012Z" fill="#000000" />
<path fill-rule="evenodd" clip-rule="evenodd" d="M13.3353 9.2454C13.5506 9.02995 13.8647 8.83594 14.2628 8.83594C14.6609 8.83594 14.975 9.02988 15.1903 9.2452C15.4027 9.45759 15.5595 9.72716 15.6752 10.0005C15.9077 10.5501 16.0335 11.2574 16.0335 11.9999C16.0335 12.7424 15.9077 13.4496 15.6752 13.9993C15.5595 14.2726 15.4027 14.5422 15.1903 14.7546C14.975 14.9699 14.6609 15.1638 14.2628 15.1638C13.8647 15.1638 13.5506 14.9698 13.3353 14.7544C13.123 14.5419 12.9663 14.2723 12.8509 13.9989C12.6187 13.4494 12.4932 12.7422 12.4932 11.9999C12.4932 11.2576 12.6187 10.5504 12.8509 10.0008C12.9663 9.72751 13.123 9.45787 13.3353 9.2454ZM14.2326 10.5845C14.0958 10.9084 13.9932 11.4082 13.9932 11.9999C13.9932 12.5915 14.0958 13.0913 14.2326 13.4152C14.2429 13.4396 14.2531 13.4622 14.2631 13.4832C14.2731 13.4621 14.2833 13.4394 14.2937 13.4149C14.4307 13.091 14.5335 12.5913 14.5335 11.9999C14.5335 11.4084 14.4307 10.9087 14.2937 10.5849C14.2833 10.5603 14.2731 10.5376 14.2631 10.5166C14.2531 10.5375 14.2429 10.5601 14.2326 10.5845Z" fill="#000000" />
<path fill-rule="evenodd" clip-rule="evenodd" d="M16.6288 9.2032C16.6553 9.16019 16.8554 8.83594 17.2817 8.83594C17.708 8.83594 17.908 9.16019 17.9346 9.2032C17.9348 9.20355 17.935 9.20388 17.9352 9.2042C17.9904 9.29347 18.0176 9.37729 18.0293 9.41529C18.0559 9.50232 18.0719 9.5943 18.0825 9.66578C18.1052 9.81925 18.1229 10.0207 18.137 10.246C18.1655 10.7027 18.1825 11.3226 18.1825 11.9999C18.1825 12.6772 18.1655 13.297 18.137 13.7538C18.1229 13.9791 18.1052 14.1805 18.0825 14.334C18.0719 14.4055 18.0559 14.4974 18.0293 14.5845C18.0176 14.6225 17.9904 14.7063 17.9352 14.7956L17.9346 14.7966C17.9081 14.8396 17.708 15.1638 17.2817 15.1638C16.8554 15.1638 16.6553 14.8396 16.6288 14.7966L16.6281 14.7956C16.573 14.7063 16.5457 14.6225 16.5341 14.5845C16.5074 14.4974 16.4915 14.4055 16.4809 14.334C16.4582 14.1805 16.4404 13.9791 16.4263 13.7538C16.3979 13.297 16.3809 12.6772 16.3809 11.9999C16.3809 11.3226 16.3979 10.7027 16.4263 10.246C16.4404 10.0207 16.4582 9.81925 16.4809 9.66578C16.4915 9.5943 16.5074 9.50232 16.5341 9.41529C16.5457 9.37729 16.573 9.29347 16.6281 9.2042C16.6283 9.20388 16.6285 9.20355 16.6288 9.2032Z" fill="#000000" />
<path fill-rule="evenodd" clip-rule="evenodd" d="M5.81836 11.9999C5.81836 10.2515 7.23532 8.83594 8.98231 8.83594C10.7293 8.83594 12.1463 10.2515 12.1463 11.9999C12.1463 13.7482 10.7293 15.1638 8.98231 15.1638C7.23532 15.1638 5.81836 13.7482 5.81836 11.9999ZM8.98231 10.3359C8.06335 10.3359 7.31836 11.0803 7.31836 11.9999C7.31836 12.9194 8.06335 13.6638 8.98231 13.6638C9.90126 13.6638 10.6463 12.9194 10.6463 11.9999C10.6463 11.0803 9.90126 10.3359 8.98231 10.3359Z" fill="#000000" />
</svg>