<svg width="24px"  height="24px"  viewBox="0 0 24 24" fill="none" xmlns="http://www.w3.org/2000/svg">
<path fill-rule="evenodd" clip-rule="evenodd" d="M12.25 14.5C12.25 13.5335 13.0335 12.75 14 12.75H20C20.9665 12.75 21.75 13.5335 21.75 14.5V19.9999C21.75 20.4977 21.538 20.9719 21.1671 21.3039C20.7962 21.6358 20.3015 21.7941 19.8067 21.7392L13.8067 21.0725H13.8067C12.9205 20.974 12.25 20.2249 12.25 19.3332V14.5ZM14 14.25C13.8619 14.25 13.75 14.3619 13.75 14.5V19.3332C13.75 19.4606 13.8458 19.5676 13.9724 19.5817C13.9724 19.5817 13.9724 19.5817 13.9724 19.5817L19.9724 20.2483L19.9724 20.2483C20.0431 20.2562 20.1137 20.2336 20.1667 20.1862C20.2197 20.1387 20.25 20.071 20.25 19.9999V14.5C20.25 14.3619 20.1381 14.25 20 14.25H14Z" fill="#000000" />
<path fill-rule="evenodd" clip-rule="evenodd" d="M20.1667 3.81385C20.1137 3.76642 20.0431 3.74381 19.9724 3.75166L13.9724 4.41834C13.9724 4.41834 13.9724 4.41834 13.9724 4.41834C13.8458 4.43241 13.75 4.53943 13.75 4.66681V9.50001C13.75 9.63808 13.8619 9.75001 14 9.75001H20C20.1381 9.75001 20.25 9.63808 20.25 9.50001V4.00013C20.25 3.92902 20.2197 3.86127 20.1667 3.81385ZM19.8067 2.26084C20.3015 2.20586 20.7962 2.36417 21.1671 2.69615C21.538 3.02813 21.75 3.50235 21.75 4.00013V9.50001C21.75 10.4665 20.9665 11.25 20 11.25H14C13.0335 11.25 12.25 10.4665 12.25 9.50001V4.66682C12.25 4.66682 12.25 4.66682 12.25 4.66682C12.25 3.77512 12.9205 3.026 13.8067 2.92752L19.8067 2.26084C19.8067 2.26083 19.8067 2.26084 19.8067 2.26084Z" fill="#000000" />
<path fill-rule="evenodd" clip-rule="evenodd" d="M9.16673 5.15357C9.11374 5.10615 9.04307 5.08353 8.97239 5.09138L3.97239 5.64693C3.84579 5.661 3.75 5.76801 3.75 5.8954C3.75 5.8954 3.75 5.8954 3.75 5.8954V9.5004C3.75 9.63847 3.86193 9.7504 4 9.7504H9C9.13807 9.7504 9.25 9.63847 9.25 9.5004V5.33985C9.25 5.26874 9.21972 5.201 9.16673 5.15357ZM8.80675 3.60056C9.30148 3.54559 9.79621 3.7039 10.1671 4.03588C10.538 4.36786 10.75 4.84209 10.75 5.33986V9.5004C10.75 10.4669 9.9665 11.2504 9 11.2504H4C3.0335 11.2504 2.25 10.4669 2.25 9.5004V5.8954C2.25 5.00369 2.92049 4.25458 3.80675 4.15611L8.80675 3.60056Z" fill="#000000" />
<path fill-rule="evenodd" clip-rule="evenodd" d="M2.25 14.5C2.25 13.5335 3.0335 12.75 4 12.75H9C9.9665 12.75 10.75 13.5335 10.75 14.5V18.6605C10.75 19.1583 10.538 19.6325 10.1671 19.9645C9.79621 20.2965 9.30148 20.4548 8.80675 20.3998L3.80675 19.8443C2.92049 19.7458 2.25 18.9967 2.25 18.105V14.5ZM4 14.25C3.86193 14.25 3.75 14.3619 3.75 14.5V18.105C3.75 18.2324 3.84578 18.3394 3.97239 18.3535L8.97239 18.909C9.04307 18.9169 9.11374 18.8943 9.16673 18.8468C9.21972 18.7994 9.25 18.7317 9.25 18.6605V14.5C9.25 14.3619 9.13807 14.25 9 14.25H4Z" fill="#000000" />
</svg>