<svg width="24px"  height="24px"  viewBox="0 0 24 24" fill="none" xmlns="http://www.w3.org/2000/svg">
<path fill-rule="evenodd" clip-rule="evenodd" d="M3.7402 3.89737C4.72468 2.84117 6.12669 2.25 7.78216 2.25H16.2169C17.8762 2.25 19.2788 2.84084 20.2629 3.89765C21.2413 4.94841 21.75 6.39889 21.75 8.02638V15.9736C21.75 17.6011 21.2413 19.0516 20.2627 20.1024C19.2785 21.1592 17.8756 21.75 16.2159 21.75H7.78216C6.1228 21.75 4.72038 21.1591 3.73657 20.1023C2.75842 19.0515 2.25 17.601 2.25 15.9736V8.02638C2.25 6.39806 2.76117 4.94771 3.7402 3.89737ZM4.83745 4.92012C4.16024 5.64666 3.75 6.70951 3.75 8.02638V15.9736C3.75 17.2914 4.15861 18.3541 4.83451 19.0802C5.50475 19.8003 6.49341 20.25 7.78216 20.25H16.2159C17.5052 20.25 18.4944 19.8002 19.165 19.0801C19.8412 18.354 20.25 17.2913 20.25 15.9736V8.02638C20.25 6.70868 19.8412 5.64597 19.1651 4.91984C18.4946 4.19975 17.5056 3.75 16.2169 3.75H7.78216C6.49828 3.75 5.50921 4.19943 4.83745 4.92012Z" fill="#000000" />
<path fill-rule="evenodd" clip-rule="evenodd" d="M10.4805 7.35199C10.7888 7.07533 11.263 7.10095 11.5396 7.40922L13.9216 10.0633C14.1053 10.268 14.1622 10.5568 14.0699 10.8159L12.1003 16.3435C11.9613 16.7336 11.5323 16.9372 11.1421 16.7982C10.7519 16.6592 10.5483 16.2302 10.6873 15.84L12.5071 10.7329L10.4233 8.41111C10.1466 8.10284 10.1722 7.62866 10.4805 7.35199Z" fill="#000000" />
<path fill-rule="evenodd" clip-rule="evenodd" d="M6.54339 7.31518C6.87197 7.06298 7.34279 7.1249 7.59499 7.45348L10.3223 11.0067C10.4977 11.2353 10.5267 11.5443 10.3968 11.8015L8.05914 16.4299C7.87241 16.7996 7.4213 16.9479 7.05157 16.7612C6.68183 16.5745 6.53349 16.1233 6.72023 15.7536L8.84532 11.5461L6.40509 8.36679C6.15288 8.0382 6.2148 7.56738 6.54339 7.31518Z" fill="#000000" />
<path fill-rule="evenodd" clip-rule="evenodd" d="M14.6513 7.37983C14.9442 7.08693 15.4191 7.08693 15.712 7.37983L17.5302 9.19801C17.7164 9.38429 17.7913 9.65466 17.7274 9.91024L16.1365 16.2736C16.0361 16.6754 15.6289 16.9197 15.227 16.8193C14.8252 16.7188 14.5809 16.3116 14.6813 15.9098L16.1692 9.9584L14.6513 8.44049C14.3584 8.14759 14.3584 7.67272 14.6513 7.37983Z" fill="#000000" />
</svg>