<svg width="24px"  height="24px"  viewBox="0 0 24 24" fill="none" xmlns="http://www.w3.org/2000/svg">
<path fill-rule="evenodd" clip-rule="evenodd" d="M3.7402 3.89737C4.72468 2.84117 6.12669 2.25 7.78216 2.25H16.2169C17.8762 2.25 19.2788 2.84084 20.2629 3.89765C21.2413 4.94841 21.75 6.39889 21.75 8.02638V15.9736C21.75 17.6011 21.2413 19.0516 20.2627 20.1024C19.2785 21.1592 17.8756 21.75 16.2159 21.75H7.78216C6.1228 21.75 4.72038 21.1591 3.73657 20.1023C2.75842 19.0515 2.25 17.601 2.25 15.9736V8.02638C2.25 6.39806 2.76117 4.94771 3.7402 3.89737ZM4.83745 4.92012C4.16024 5.64666 3.75 6.70951 3.75 8.02638V15.9736C3.75 17.2914 4.15861 18.3541 4.83451 19.0802C5.50475 19.8003 6.49341 20.25 7.78216 20.25H16.2159C17.5052 20.25 18.4944 19.8002 19.165 19.0801C19.8412 18.354 20.25 17.2913 20.25 15.9736V8.02638C20.25 6.70868 19.8412 5.64597 19.1651 4.91984C18.4946 4.19975 17.5056 3.75 16.2169 3.75H7.78216C6.49828 3.75 5.50921 4.19943 4.83745 4.92012Z" fill="#000000" />
<path fill-rule="evenodd" clip-rule="evenodd" d="M8.75 7.25C9.16421 7.25 9.5 7.58579 9.5 8V16C9.5 16.4142 9.16421 16.75 8.75 16.75C8.33579 16.75 8 16.4142 8 16V8C8 7.58579 8.33579 7.25 8.75 7.25Z" fill="#000000" />
<path fill-rule="evenodd" clip-rule="evenodd" d="M13.75 8C13.75 7.58579 14.0858 7.25 14.5 7.25H16C16.4142 7.25 16.75 7.58579 16.75 8C16.75 8.41421 16.4142 8.75 16 8.75H14.5C14.0858 8.75 13.75 8.41421 13.75 8Z" fill="#000000" />
<path fill-rule="evenodd" clip-rule="evenodd" d="M7.25 16C7.25 15.5858 7.58579 15.25 8 15.25H9.5C9.91421 15.25 10.25 15.5858 10.25 16C10.25 16.4142 9.91421 16.75 9.5 16.75H8C7.58579 16.75 7.25 16.4142 7.25 16Z" fill="#000000" />
<path fill-rule="evenodd" clip-rule="evenodd" d="M7.25 8C7.25 7.58579 7.58579 7.25 8 7.25H9C9.24697 7.25 9.47811 7.37159 9.61803 7.5751L14.8945 15.25H15.25C15.6642 15.25 16 15.5858 16 16C16 16.4142 15.6642 16.75 15.25 16.75H14.5C14.253 16.75 14.0219 16.6284 13.882 16.4249L8.60548 8.75H8C7.58579 8.75 7.25 8.41421 7.25 8Z" fill="#000000" />
<path fill-rule="evenodd" clip-rule="evenodd" d="M15.25 7.25C15.6642 7.25 16 7.58579 16 8V16C16 16.4142 15.6642 16.75 15.25 16.75C14.8358 16.75 14.5 16.4142 14.5 16V8C14.5 7.58579 14.8358 7.25 15.25 7.25Z" fill="#000000" />
</svg>