<svg width="24px"  height="24px"  viewBox="0 0 24 24" fill="none" xmlns="http://www.w3.org/2000/svg">
<path d="M16.21 21.75H7.78001C4.47001 21.75 2.25 19.43 2.25 15.97V8.03003C2.25 4.57003 4.47001 2.25 7.78001 2.25H16.22C19.53 2.25 21.75 4.57003 21.75 8.03003V15.97C21.75 19.43 19.53 21.75 16.22 21.75H16.21ZM7.78001 3.75C5.33001 3.75 3.75 5.43003 3.75 8.03003V15.97C3.75 18.57 5.33001 20.25 7.78001 20.25H16.21C18.66 20.25 20.24 18.57 20.24 15.97V8.03003C20.24 5.43003 18.66 3.75 16.21 3.75H7.77H7.78001Z" fill="#000000" />
<path d="M12.8504 15.1689C12.0204 15.1689 11.2604 14.8489 10.7504 14.2889C10.2104 13.6889 9.99036 12.8689 10.1304 11.9889C10.2004 11.5789 10.5804 11.2989 10.9904 11.3689C11.4004 11.4389 11.6804 11.8189 11.6104 12.2289C11.5404 12.6589 11.6304 13.0189 11.8604 13.2889C12.1104 13.5689 12.5004 13.699 12.9504 13.679C14.3604 13.599 15.1204 12.2189 15.1204 10.9489C15.1204 9.33885 13.8304 8.12891 12.1104 8.12891C10.3104 8.12891 8.85036 9.37894 8.85036 10.9089C8.85036 11.1489 8.88036 11.3789 8.95036 11.6089C9.00036 11.7789 9.07035 11.9489 9.16035 12.0889C9.37035 12.4489 9.24036 12.9089 8.88036 13.1089C8.52036 13.3189 8.06035 13.1889 7.86035 12.8289C7.72035 12.5889 7.61036 12.3189 7.52036 12.0389C7.41036 11.6589 7.36035 11.2989 7.36035 10.9089C7.36035 8.54894 9.50036 6.62891 12.1204 6.62891C14.7404 6.62891 16.6304 8.48885 16.6304 10.9489C16.6304 12.9089 15.3704 15.049 13.0404 15.179C12.9804 15.179 12.9104 15.179 12.8504 15.179V15.1689Z" fill="#000000" />
<path d="M9.80987 17.3804C9.74987 17.3804 9.69987 17.3803 9.63987 17.3603C9.23987 17.2703 8.98986 16.8603 9.07986 16.4603L10.4899 10.4603C10.5799 10.0603 10.9899 9.80037 11.3899 9.90037C11.7899 9.99037 12.0399 10.4004 11.9499 10.8004L10.5399 16.8004C10.4599 17.1504 10.1499 17.3804 9.80987 17.3804Z" fill="#000000" />
</svg>