<svg width="24px"  height="24px"  viewBox="0 0 24 24" fill="none" xmlns="http://www.w3.org/2000/svg">
<path fill-rule="evenodd" clip-rule="evenodd" d="M10.8593 6.01562C9.09229 6.01562 7.36523 7.93152 7.36523 10.706C7.36523 10.8426 7.36962 10.9777 7.37821 11.1112C7.40481 11.5245 7.09127 11.8812 6.67791 11.9078C6.26455 11.9344 5.9079 11.6208 5.88131 11.2075C5.87065 11.0419 5.86523 10.8747 5.86523 10.706C5.86523 7.47116 7.93846 4.51562 10.8593 4.51562C13.7802 4.51562 15.8534 7.47117 15.8534 10.706C15.8534 11.647 15.5929 12.5134 15.3379 13.2256C15.1983 13.6155 14.769 13.8185 14.379 13.6789C13.989 13.5392 13.7861 13.1099 13.9257 12.7199C14.1649 12.0519 14.3534 11.3828 14.3534 10.706C14.3534 7.93151 12.6264 6.01562 10.8593 6.01562Z" fill="#000000" />
<path fill-rule="evenodd" clip-rule="evenodd" d="M10.8595 3.75C7.12164 3.75 4.06445 6.8497 4.06445 10.7071C4.06445 14.5645 7.12164 17.6643 10.8595 17.6643C11.5199 17.6643 12.1573 17.568 12.7594 17.3888C13.1564 17.2707 13.574 17.4968 13.6922 17.8938C13.8103 18.2908 13.5842 18.7084 13.1872 18.8265C12.4479 19.0465 11.6665 19.1643 10.8595 19.1643C6.26331 19.1643 2.56445 15.3627 2.56445 10.7071C2.56445 6.0515 6.26331 2.25 10.8595 2.25C15.4557 2.25 19.1545 6.0515 19.1545 10.7071C19.1545 11.9447 18.8933 13.1224 18.423 14.1844C18.2553 14.5631 17.8123 14.7341 17.4335 14.5664C17.0548 14.3987 16.8838 13.9557 17.0515 13.5769C17.4385 12.7032 17.6545 11.7322 17.6545 10.7071C17.6545 6.8497 14.5973 3.75 10.8595 3.75Z" fill="#000000" />
<path fill-rule="evenodd" clip-rule="evenodd" d="M12.8955 11.6652C14.4223 12.1485 15.6794 13.4843 16.4091 15.7133C16.6589 16.4766 17.0048 16.883 17.3278 17.0984C17.6519 17.3144 18.0251 17.3864 18.4161 17.3511C18.8143 17.3151 19.2076 17.1684 19.5171 16.9786C19.6704 16.8846 19.7907 16.7876 19.8743 16.7022C19.9537 16.6212 19.9791 16.5724 19.9826 16.5656C19.983 16.5648 19.9831 16.5646 19.9829 16.5651C20.1103 16.2226 20.466 16.0218 20.825 16.0896C21.1841 16.1574 21.442 16.4741 21.4358 16.8394C21.4136 18.129 21.1123 19.3278 20.3877 20.2329C19.6449 21.1609 18.536 21.6822 17.1153 21.7458C16.275 21.7835 15.3517 21.5662 14.4935 20.9063C13.6441 20.2531 12.9085 19.2055 12.3555 17.6658L13.0614 17.4123L12.3555 17.6658C11.9214 16.4571 11.6272 15.7975 11.2236 15.3914C10.8716 15.0372 10.3519 14.8013 9.2201 14.7495C8.91049 14.7353 8.6415 14.5321 8.54318 14.2382L8.24095 13.3347C8.13483 13.0175 8.25162 12.6683 8.52726 12.4788C9.80303 11.6015 11.3883 11.1881 12.8955 11.6652ZM10.065 13.3206C10.8682 12.9485 11.7011 12.8604 12.4427 13.0952C13.3796 13.3918 14.3562 14.2636 14.9835 16.1799C15.3136 17.1882 15.8339 17.9052 16.4958 18.3465C17.1567 18.7871 17.8872 18.905 18.5511 18.845C18.9273 18.811 19.2891 18.7198 19.6198 18.5927C19.5112 18.862 19.3761 19.0964 19.2167 19.2955C18.7902 19.8283 18.1174 20.1995 17.0482 20.2473C16.5276 20.2707 15.96 20.1417 15.4079 19.7172C14.8471 19.2859 14.2529 18.511 13.7672 17.1588L13.0723 17.4084L13.7672 17.1588C13.3532 16.0061 12.9649 15.0156 12.2876 14.334C11.7109 13.7537 10.9899 13.4514 10.065 13.3206Z" fill="#000000" />
</svg>