<svg width="24px"  height="24px"  viewBox="0 0 24 24" fill="none" xmlns="http://www.w3.org/2000/svg">
<path fill-rule="evenodd" clip-rule="evenodd" d="M12 3.75013C7.44365 3.75013 3.75 7.44377 3.75 12.0001C3.75 16.5564 7.44365 20.2501 12 20.2501C16.5563 20.2501 20.25 16.5564 20.25 12.0001C20.25 7.44378 16.5563 3.75013 12 3.75013ZM2.25 12.0001C2.25 6.61535 6.61522 2.25013 12 2.25013C17.3847 2.25013 21.75 6.61535 21.75 12.0001C21.75 17.3849 17.3847 21.7501 12 21.7501C6.61522 21.7501 2.25 17.3849 2.25 12.0001Z" fill="#000000" />
<path fill-rule="evenodd" clip-rule="evenodd" d="M15.2514 2.80855C15.6419 2.94667 15.8465 3.3752 15.7084 3.76571L15.2583 5.03845C15.1201 5.42895 14.6916 5.63355 14.3011 5.49543C13.9106 5.35731 13.706 4.92878 13.8441 4.53827L14.2943 3.26553C14.4324 2.87503 14.8609 2.67043 15.2514 2.80855ZM9.69948 18.5056C10.09 18.6437 10.2946 19.0723 10.1565 19.4628L9.7063 20.7355C9.56818 21.126 9.13965 21.3306 8.74914 21.1925C8.35863 21.0544 8.15403 20.6259 8.29215 20.2353L8.74231 18.9626C8.88043 18.5721 9.30897 18.3675 9.69948 18.5056Z" fill="#000000" />
<path fill-rule="evenodd" clip-rule="evenodd" d="M2.80778 8.74991C2.9459 8.3594 3.37443 8.1548 3.76494 8.29292L5.03768 8.74308C5.42818 8.8812 5.63278 9.30974 5.49466 9.70025C5.35654 10.0908 4.92801 10.2954 4.5375 10.1572L3.26476 9.70707C2.87426 9.56895 2.66966 9.14042 2.80778 8.74991ZM18.5049 14.3019C18.643 13.9114 19.0715 13.7068 19.462 13.8449L20.7348 14.295C21.1253 14.4332 21.3299 14.8617 21.1917 15.2522C21.0536 15.6427 20.6251 15.8473 20.2346 15.7092L18.9618 15.259C18.5713 15.1209 18.3667 14.6924 18.5049 14.3019Z" fill="#000000" />
<path fill-rule="evenodd" clip-rule="evenodd" d="M20.7985 7.79795C20.977 8.17175 20.8186 8.61944 20.4449 8.79791L19.2266 9.37956C18.8528 9.55802 18.4051 9.39968 18.2266 9.02588C18.0482 8.65209 18.2065 8.20439 18.5803 8.02593L19.7986 7.44428C20.1724 7.26581 20.6201 7.42416 20.7985 7.79795ZM5.77319 14.9716C5.95166 15.3454 5.79331 15.7931 5.41951 15.9716L4.20124 16.5532C3.82745 16.7317 3.37975 16.5734 3.20129 16.1996C3.02282 15.8258 3.18117 15.3781 3.55497 15.1996L4.77324 14.618C5.14703 14.4395 5.59473 14.5978 5.77319 14.9716Z" fill="#000000" />
<path fill-rule="evenodd" clip-rule="evenodd" d="M7.79911 3.20209C8.1729 3.02362 8.6206 3.18197 8.79906 3.55577L9.38071 4.77404C9.55918 5.14783 9.40083 5.59553 9.02703 5.77399C8.65324 5.95246 8.20554 5.79411 8.02708 5.42031L7.44543 4.20204C7.26696 3.82825 7.42531 3.38055 7.79911 3.20209ZM14.9728 18.2274C15.3466 18.049 15.7943 18.2073 15.9727 18.5811L16.5544 19.7994C16.7329 20.1732 16.5745 20.6209 16.2007 20.7993C15.8269 20.9778 15.3792 20.8194 15.2008 20.4457L14.6191 19.2274C14.4406 18.8536 14.599 18.4059 14.9728 18.2274Z" fill="#000000" />
<path fill-rule="evenodd" clip-rule="evenodd" d="M9.48041 9.48139C9.77331 9.1885 10.2482 9.1885 10.5411 9.48139L14.5192 13.4596C14.8121 13.7525 14.8121 14.2273 14.5192 14.5202C14.2264 14.8131 13.7515 14.8131 13.4586 14.5202L9.48041 10.542C9.18752 10.2492 9.18752 9.77428 9.48041 9.48139Z" fill="#000000" />
<path fill-rule="evenodd" clip-rule="evenodd" d="M15.4227 7.3018C15.7855 7.1809 16.1854 7.27532 16.4557 7.54569C16.7261 7.81605 16.8205 8.21596 16.6996 8.5787L16.6996 8.57873L14.9519 13.822C14.9519 13.822 14.9519 13.822 14.9519 13.822C14.7739 14.3559 14.355 14.7749 13.8211 14.9529L13.8211 14.9529L8.57778 16.7006L8.57775 16.7006C8.21501 16.8215 7.8151 16.7271 7.54473 16.4567C7.27436 16.1864 7.17995 15.7865 7.30084 15.4237L7.30085 15.4237L9.04857 10.1804C9.04858 10.1804 9.04858 10.1804 9.04858 10.1804C9.22654 9.64648 9.6455 9.22752 10.1794 9.04956C10.1794 9.04955 10.1794 9.04955 10.1794 9.04955L15.4227 7.30181L15.4227 7.3018ZM14.9664 9.03505L10.6538 10.4726L10.6537 10.4726C10.5677 10.5012 10.5003 10.5687 10.4716 10.6547L10.4716 10.6547L9.03409 14.9674L13.3467 13.5299C13.3467 13.5299 13.3467 13.5299 13.3467 13.5299C13.4327 13.5012 13.5002 13.4337 13.5289 13.3477L13.5289 13.3477L14.9664 9.03505ZM8.34013 15.9877L8.34061 15.9891L8.34013 15.9877L15.9867 8.34109L15.9881 8.34157" fill="#000000" />
</svg>