<svg width="24px"  height="24px"  viewBox="0 0 24 24" fill="none" xmlns="http://www.w3.org/2000/svg">
<path d="M11.9948 21.7241C11.0548 21.7241 10.3248 21.4041 9.62479 21.0941C8.95479 20.7941 8.26478 20.4842 7.27478 20.4042C6.65478 20.3542 6.09479 19.9642 5.81479 19.3842C5.39479 18.5142 4.9848 18.3041 4.0748 17.8341L3.74478 17.6641C3.02478 17.3141 2.65479 16.8041 2.65479 16.1741C2.65479 15.3441 3.29479 15.0042 3.75479 14.7642C4.18479 14.5342 4.71479 14.2541 5.28479 13.5641C5.59479 13.2041 5.8848 12.8241 6.1348 12.4241L4.91479 11.6841C4.12479 11.1441 3.86479 10.1641 4.25479 9.33411C4.64479 8.48411 5.58479 8.0641 6.47479 8.3241V7.76416C6.47479 6.30416 7.06479 4.88414 8.09479 3.86414C9.13479 2.82414 10.5248 2.24414 12.0048 2.24414C13.4848 2.24414 14.8748 2.82414 15.9148 3.86414C16.9448 4.88414 17.5348 6.30416 17.5348 7.76416V8.3241C18.4248 8.0641 19.3648 8.48412 19.7548 9.34412C20.1348 10.1641 19.8748 11.1441 19.1248 11.6641L17.8648 12.4341C18.1048 12.8041 18.3948 13.1941 18.7048 13.5641C19.2848 14.2741 19.8148 14.5542 20.2448 14.7842C20.7148 15.0342 21.3448 15.3641 21.3448 16.1941C21.3448 16.8241 20.9748 17.3341 20.2348 17.6941L19.9148 17.8641C19.0048 18.3341 18.5948 18.5541 18.1748 19.4141C17.8948 19.9941 17.3348 20.3841 16.7148 20.4341C15.7248 20.5141 15.0348 20.8241 14.3648 21.1241C13.6648 21.4341 12.9448 21.7542 11.9948 21.7542V21.7241ZM4.22479 16.2041C4.22479 16.2041 4.33478 16.2741 4.43478 16.3241L4.77478 16.5042C5.75478 17.0142 6.53477 17.4141 7.17477 18.7341C7.22477 18.8341 7.3148 18.9041 7.41479 18.9141C8.65479 19.0141 9.50478 19.3941 10.2448 19.7241C10.8748 20.0041 11.3748 20.2241 12.0048 20.2241C12.6348 20.2241 13.1248 20.0041 13.7648 19.7241C14.5148 19.3941 15.3548 19.0141 16.5948 18.9141C16.6848 18.9141 16.7848 18.8341 16.8348 18.7341C17.4648 17.4241 18.2448 17.0242 19.2348 16.5142L19.5548 16.3441C19.6648 16.2941 19.7348 16.2441 19.7748 16.2141C19.7048 16.1741 19.6148 16.1241 19.5448 16.0841C19.0548 15.8241 18.3148 15.4342 17.5548 14.5042C17.1748 14.0642 16.8148 13.5741 16.4948 13.0541C16.1348 12.3641 16.3548 11.5741 16.9748 11.1941L18.2948 10.3842C18.4048 10.3042 18.4548 10.1141 18.3848 9.9541C18.3048 9.7741 18.1048 9.69415 17.9248 9.75415L17.0148 10.0641C16.7848 10.1441 16.5348 10.1041 16.3348 9.96411C16.1348 9.82411 16.0248 9.59413 16.0248 9.35413V7.74414C16.0248 6.68414 15.5948 5.65417 14.8448 4.90417C14.0948 4.14417 13.0748 3.72412 12.0048 3.72412C10.9348 3.72412 9.91479 4.14417 9.16479 4.90417C8.41479 5.65417 7.9848 6.68414 7.9848 7.74414V9.35413C7.9848 9.59413 7.86477 9.82411 7.67477 9.96411C7.47477 10.1041 7.22478 10.1441 6.99478 10.0641L6.08478 9.75415C5.90478 9.68415 5.70479 9.77409 5.62479 9.94409C5.54479 10.1041 5.60478 10.3042 5.74478 10.4042L7.03479 11.1941C7.65479 11.5641 7.87479 12.3642 7.53479 13.0042C7.18479 13.5642 6.82478 14.0642 6.43478 14.5142C5.68478 15.4242 4.95478 15.8141 4.46478 16.0741C4.39478 16.1141 4.30479 16.1641 4.22479 16.2041Z" fill="#000000" />
</svg>