<svg width="24px"  height="24px"  viewBox="0 0 24 24" fill="none" xmlns="http://www.w3.org/2000/svg">
<path fill-rule="evenodd" clip-rule="evenodd" d="M3.7402 3.89737C4.72468 2.84117 6.12669 2.25 7.78216 2.25H16.2169C17.8762 2.25 19.2788 2.84084 20.2629 3.89765C21.2413 4.94841 21.75 6.39889 21.75 8.02638V15.9736C21.75 17.6011 21.2413 19.0516 20.2627 20.1024C19.2785 21.1592 17.8756 21.75 16.2159 21.75H7.78216C6.1228 21.75 4.72038 21.1591 3.73657 20.1023C2.75842 19.0515 2.25 17.601 2.25 15.9736V8.02638C2.25 6.39806 2.76117 4.94771 3.7402 3.89737ZM4.83745 4.92012C4.16024 5.64666 3.75 6.70951 3.75 8.02638V15.9736C3.75 17.2914 4.15861 18.3541 4.83451 19.0802C5.50475 19.8003 6.49341 20.25 7.78216 20.25H16.2159C17.5052 20.25 18.4944 19.8002 19.165 19.0801C19.8412 18.354 20.25 17.2913 20.25 15.9736V8.02638C20.25 6.70868 19.8412 5.64597 19.1651 4.91984C18.4946 4.19975 17.5056 3.75 16.2169 3.75H7.78216C6.49828 3.75 5.50921 4.19943 4.83745 4.92012Z" fill="#000000" />
<path fill-rule="evenodd" clip-rule="evenodd" d="M15.96 8.93421L14.6468 15.1231L12.7511 13.723C12.4557 13.5047 12.0456 13.5326 11.7824 13.7888L11.0388 14.5127L10.4302 12.5083C10.358 12.2707 10.173 12.0843 9.936 12.0103L8.85764 11.6737L15.96 8.93421ZM14.5908 15.3869C14.5908 15.387 14.5908 15.3868 14.5908 15.3869V15.3869ZM15.9499 7.33039C16.8324 6.99035 17.7395 7.76425 17.5455 8.68831L16.0583 15.6975C15.8583 16.6421 14.7478 17.0644 13.9713 16.4891C13.9711 16.4889 13.9715 16.4892 13.9713 16.4891L12.3723 15.3079L11.5799 16.0793C11.004 16.6322 10.0435 16.3881 9.80763 15.6206L9.80689 15.6182L9.11021 13.3239L7.16314 12.7162C7.16311 12.7162 7.16316 12.7162 7.16314 12.7162C6.22326 12.4229 6.17032 11.1012 7.09911 10.7443C7.09947 10.7442 7.09984 10.744 7.1002 10.7439L15.9499 7.33039Z" fill="#000000" />
</svg>