<svg width="24px"  height="24px"  viewBox="0 0 24 24" fill="none" xmlns="http://www.w3.org/2000/svg">
<path fill-rule="evenodd" clip-rule="evenodd" d="M8.861 3.5838C9.93054 2.98248 11.227 2.98248 12.2965 3.5838L13.208 4.09622C13.569 4.29922 13.6972 4.75648 13.4942 5.11754C13.2912 5.4786 12.8339 5.60674 12.4728 5.40374L11.5614 4.89132C10.9484 4.54664 10.2092 4.54664 9.59611 4.89132L4.83049 7.57067C4.17085 7.94154 3.75 8.66038 3.75 9.45307V14.5477C3.75 15.3404 4.17085 16.0592 4.83049 16.4301L9.59611 19.1094C10.2092 19.4541 10.9484 19.4541 11.5614 19.1094L16.327 16.4301C16.9867 16.0592 17.4075 15.3404 17.4075 14.5477V13.4425C17.4075 13.0283 17.7433 12.6925 18.1575 12.6925C18.5717 12.6925 18.9075 13.0283 18.9075 13.4425V14.5477C18.9075 15.8682 18.2065 17.0942 17.0622 17.7376L12.2965 20.4169C11.227 21.0183 9.93054 21.0183 8.861 20.4169L4.09537 17.7376C2.95101 17.0942 2.25 15.8682 2.25 14.5477V9.45307C2.25 8.13256 2.95101 6.90654 4.09538 6.26315L8.861 3.5838Z" fill="#000000" />
<path fill-rule="evenodd" clip-rule="evenodd" d="M17.846 5.17188C16.5185 5.17188 15.4424 6.24803 15.4424 7.57553C15.4424 8.90304 16.5185 9.97919 17.846 9.97919C19.1735 9.97919 20.2497 8.90304 20.2497 7.57553C20.2497 6.24803 19.1735 5.17188 17.846 5.17188ZM13.9424 7.57553C13.9424 5.4196 15.6901 3.67188 17.846 3.67188C20.002 3.67188 21.7497 5.4196 21.7497 7.57553C21.7497 9.73146 20.002 11.4792 17.846 11.4792C15.6901 11.4792 13.9424 9.73146 13.9424 7.57553Z" fill="#000000" />
</svg>