<svg width="24px"  height="24px"  viewBox="0 0 24 24" fill="none" xmlns="http://www.w3.org/2000/svg">
<path d="M13.5823 12.7492C13.1823 12.7492 12.8423 12.4292 12.8323 12.0192C12.8223 11.6092 13.1522 11.2592 13.5622 11.2492C14.1922 11.2292 14.9422 11.1792 15.6622 10.9292C16.5622 10.6092 17.4023 9.99919 18.2223 9.07919C19.0223 8.17919 19.7323 7.10918 20.3323 5.88918C20.5123 5.51918 20.9623 5.35916 21.3323 5.54916C21.7023 5.72916 21.8622 6.17916 21.6722 6.54916C21.0122 7.88916 20.2323 9.06918 19.3323 10.0692C18.3423 11.1792 17.3022 11.9192 16.1622 12.3392C15.2322 12.6692 14.3022 12.7292 13.5922 12.7492C13.5922 12.7492 13.5823 12.7492 13.5723 12.7492H13.5823Z" fill="#000000" />
<path d="M21.0019 18.5317C20.7219 18.5317 20.4619 18.3817 20.3319 18.1117C19.7319 16.9017 19.0319 15.8217 18.2219 14.9217C17.3819 13.9917 16.5419 13.3917 15.6619 13.0717C15.0819 12.8717 14.4419 12.7717 13.5719 12.7617H12.4219C12.0119 12.7617 11.6719 12.4217 11.6719 12.0117C11.6719 11.6017 12.0119 11.2617 12.4219 11.2617H13.5819C14.6219 11.2717 15.4219 11.4017 16.1619 11.6617C17.2919 12.0717 18.3319 12.8117 19.3419 13.9217C20.2419 14.9317 21.0219 16.1117 21.6819 17.4517C21.8619 17.8217 21.7119 18.2717 21.3419 18.4517C21.2319 18.5017 21.1219 18.5317 21.0119 18.5317H21.0019Z" fill="#000000" />
<path d="M12.3822 18.5088C4.74219 18.5088 2.24219 9.36875 2.24219 6.21875C2.24219 5.80875 2.58219 5.46875 2.99219 5.46875C3.40219 5.46875 3.74219 5.80875 3.74219 6.21875C3.74219 9.25875 6.02219 16.3787 11.6322 16.9688V6.96875H10.0722C9.66219 6.96875 9.32219 6.62875 9.32219 6.21875C9.32219 5.80875 9.66219 5.46875 10.0722 5.46875H12.3822C12.7922 5.46875 13.1322 5.80875 13.1322 6.21875V17.7588C13.1322 18.1688 12.7922 18.5088 12.3822 18.5088Z" fill="#000000" />
</svg>