<svg width="24px"  height="24px"  viewBox="0 0 24 24" fill="none" xmlns="http://www.w3.org/2000/svg">
<path d="M7.91589 7.82227H3.00586C2.59586 7.82227 2.25586 7.48227 2.25586 7.07227C2.25586 6.66227 2.59586 6.32227 3.00586 6.32227H7.91589C8.32589 6.32227 8.66589 6.66227 8.66589 7.07227C8.66589 7.48227 8.32589 7.82227 7.91589 7.82227Z" fill="#000000" />
<path d="M10.6562 17.9818C10.3462 17.9818 10.0562 17.7918 9.94618 17.4818L6.34621 7.3219C6.20621 6.9319 6.41617 6.50182 6.80617 6.36182C7.19617 6.22182 7.62619 6.4319 7.76619 6.8219L11.3662 16.9818C11.5062 17.3718 11.2962 17.8019 10.9062 17.9419C10.8262 17.9719 10.7362 17.9818 10.6562 17.9818Z" fill="#000000" />
<path d="M15.116 7.82227H10.2061C9.79605 7.82227 9.45605 7.48227 9.45605 7.07227C9.45605 6.66227 9.79605 6.32227 10.2061 6.32227H15.116C15.526 6.32227 15.866 6.66227 15.866 7.07227C15.866 7.48227 15.526 7.82227 15.116 7.82227Z" fill="#000000" />
<path d="M17.8565 17.9818C17.5465 17.9818 17.2564 17.7918 17.1464 17.4818L13.5464 7.3219C13.4064 6.9319 13.6164 6.50182 14.0064 6.36182C14.3964 6.22182 14.8264 6.4319 14.9664 6.8219L18.5664 16.9818C18.7064 17.3718 18.4965 17.8019 18.1065 17.9419C18.0265 17.9719 17.9365 17.9818 17.8565 17.9818Z" fill="#000000" />
<path d="M16.4858 20.3608C15.8458 20.3608 15.2958 19.9809 15.0658 19.3809L10.4458 7.39087C10.2958 7.00087 10.4858 6.5709 10.8758 6.4209C11.2658 6.2709 11.6958 6.46083 11.8458 6.85083L16.4658 18.8408L18.9658 11.9009C19.4258 10.6209 18.1558 8.86083 16.9858 7.47083C16.3758 6.74083 16.2458 5.77092 16.6358 4.94092C17.0158 4.13092 17.8258 3.63086 18.7458 3.63086C20.3958 3.63086 21.4758 4.78089 21.6958 6.79089C21.8258 7.97089 21.6958 9.14085 21.2858 10.2509L20.3758 12.4309L17.9258 19.3508C17.7158 19.9608 17.1558 20.3608 16.5158 20.3708H16.4958L16.4858 20.3608ZM18.7458 5.12085C18.2558 5.12085 18.0658 5.43092 17.9958 5.57092C17.8558 5.87092 17.9058 6.22085 18.1358 6.50085C18.8558 7.36085 19.5558 8.29084 20.0258 9.24084C20.2258 8.51084 20.2858 7.73092 20.2058 6.94092C20.0058 5.12092 19.0558 5.12085 18.7458 5.12085Z" fill="#000000" />
<path d="M9.2465 20.3603C8.6065 20.3603 8.05652 19.9804 7.82652 19.3804L3.20652 7.39037C3.05652 7.00037 3.24651 6.5704 3.63651 6.4204C4.02651 6.2704 4.45655 6.46033 4.60655 6.85033L9.22654 18.8403L12.0565 11.2203C12.1965 10.8303 12.6265 10.6304 13.0165 10.7704C13.4065 10.9104 13.6065 11.3403 13.4665 11.7303L10.6765 19.3403C10.4665 19.9403 9.90652 20.3403 9.26652 20.3503H9.2465V20.3603Z" fill="#000000" />
</svg>