<svg width="24px"  height="24px"  viewBox="0 0 25 24" fill="none" xmlns="http://www.w3.org/2000/svg">
<path fill-rule="evenodd" clip-rule="evenodd" d="M18.4146 4.91285C18.5772 5.29382 18.4002 5.73446 18.0192 5.89704L16.425 6.57735L18.004 11.8208C18.128 11.8088 18.2537 11.8026 18.3808 11.8026C20.5181 11.8026 22.25 13.5346 22.25 15.6718C22.25 17.8091 20.5181 19.541 18.3808 19.541C16.5011 19.541 14.9335 18.2001 14.5842 16.4218H10.4158C10.0667 18.2 8.49986 19.541 6.6192 19.541C4.48306 19.541 2.75 17.8093 2.75 15.6718C2.75 13.5344 4.48306 11.8026 6.6192 11.8026C7.17977 11.8026 7.71246 11.9218 8.19332 12.1361L9.73091 9.95398L8.46792 8.22232H7.78221C7.368 8.22232 7.03221 7.88653 7.03221 7.47232C7.03221 7.05811 7.368 6.72232 7.78221 6.72232H8.83974C8.84564 6.72225 8.85154 6.72225 8.85744 6.72232H10.4052C10.8194 6.72232 11.1552 7.05811 11.1552 7.47232C11.1552 7.88653 10.8194 8.22232 10.4052 8.22232H10.3245L11.035 9.19644H15.6472L14.7952 6.36722C14.685 6.00134 14.8676 5.61113 15.219 5.46115L17.4305 4.51741C17.8114 4.35483 18.2521 4.53187 18.4146 4.91285ZM16.0989 10.6964H11.0427L9.41894 13.0009C9.91742 13.5233 10.2711 14.185 10.4158 14.9218H14.5842C14.8118 13.7633 15.5565 12.7904 16.5676 12.253L16.0989 10.6964ZM17.0143 13.7363C16.4077 14.1653 16.0116 14.8722 16.0116 15.6718C16.0116 16.9805 17.0728 18.041 18.3808 18.041C19.6896 18.041 20.75 16.9807 20.75 15.6718C20.75 14.3863 19.7271 13.3405 18.4505 13.3036L18.946 14.9489C19.0654 15.3455 18.8407 15.7638 18.4441 15.8833C18.0475 16.0027 17.6291 15.778 17.5097 15.3814L17.0143 13.7363ZM7.30122 13.4022L6.46413 14.5902C6.22554 14.9288 6.30662 15.3967 6.64522 15.6353C6.98382 15.8739 7.45172 15.7928 7.69031 15.4542L8.5271 14.2666C8.81706 14.6597 8.98841 15.1457 8.98841 15.6718C8.98841 16.9807 7.92805 18.041 6.6192 18.041C5.31118 18.041 4.25 16.9805 4.25 15.6718C4.25 14.3632 5.31118 13.3026 6.6192 13.3026C6.85631 13.3026 7.08525 13.3374 7.30122 13.4022Z" fill="#000000" />
</svg>