<svg width="24px"  height="24px"  viewBox="0 0 25 24" fill="none" xmlns="http://www.w3.org/2000/svg">
<path fill-rule="evenodd" clip-rule="evenodd" d="M18.1483 4.98343C18.2957 5.37056 18.1013 5.80382 17.7141 5.95116L16.383 6.45774L17.971 11.7307C18.0975 11.7183 18.2257 11.7119 18.3554 11.7119C20.5063 11.7119 22.25 13.4556 22.25 15.6066C22.25 17.7575 20.5063 19.5012 18.3554 19.5012C16.2044 19.5012 14.4607 17.7575 14.4607 15.6066C14.4607 14.1133 15.3011 12.8164 16.5346 12.1628L16.0591 10.5838H13.579C12.0258 10.5838 10.5694 11.339 9.67467 12.6087C9.67466 12.6087 9.67466 12.6087 9.67465 12.6087L9.45913 12.9146C10.1282 13.6139 10.5393 14.5622 10.5393 15.6066C10.5393 17.7575 8.79558 19.5012 6.64463 19.5012C4.49367 19.5012 2.75 17.7575 2.75 15.6066C2.75 13.4556 4.49367 11.7119 6.64463 11.7119C7.21058 11.7119 7.74833 11.8326 8.23355 12.0497L8.44846 11.7447L8.44848 11.7447C8.66276 11.4406 8.90155 11.159 9.16116 10.9017L7.757 8.08866H7.14482C6.73061 8.08866 6.39482 7.75287 6.39482 7.33866C6.39482 6.92445 6.73061 6.58866 7.14482 6.58866H8.17904C8.20632 6.58717 8.23356 6.58718 8.26064 6.58866H9.78934C10.2036 6.58866 10.5393 6.92445 10.5393 7.33866C10.5393 7.75287 10.2036 8.08866 9.78934 8.08866H9.43349L10.3705 9.96579C11.3279 9.39641 12.4335 9.08378 13.579 9.08378H15.6074L14.7454 6.2215C14.6319 5.84469 14.8289 5.44425 15.1967 5.30427L17.1806 4.54925C17.5677 4.40192 18.001 4.59631 18.1483 4.98343ZM7.34202 13.3151C7.12136 13.248 6.88721 13.2119 6.64463 13.2119C5.3221 13.2119 4.25 14.284 4.25 15.6066C4.25 16.9291 5.3221 18.0012 6.64463 18.0012C7.96716 18.0012 9.03925 16.9291 9.03925 15.6066C9.03925 15.0719 8.86401 14.5781 8.56783 14.1796L7.75792 15.3291C7.51935 15.6677 7.05145 15.7488 6.71284 15.5102C6.37424 15.2716 6.29314 14.8037 6.53172 14.4651L7.34202 13.3151ZM16.9811 13.6453C16.3641 14.0784 15.9607 14.7954 15.9607 15.6066C15.9607 16.9291 17.0328 18.0012 18.3554 18.0012C19.6779 18.0012 20.75 16.9291 20.75 15.6066C20.75 14.3048 19.7112 13.2456 18.4174 13.2127L18.8592 14.6799C18.9787 15.0765 18.754 15.4949 18.3574 15.6143C17.9607 15.7338 17.5424 15.5091 17.423 15.1125L16.9811 13.6453Z" fill="#000000" />
</svg>