<svg width="24px"  height="24px"  viewBox="0 0 25 25" fill="none" xmlns="http://www.w3.org/2000/svg">
<path fill-rule="evenodd" clip-rule="evenodd" d="M3.62264 6.17869C3.62265 4.65992 4.85386 3.42871 6.37264 3.42871H18.1265C19.6453 3.42871 20.8765 4.65992 20.8765 6.1787L20.8766 21.5909C20.8766 22.0051 20.5408 22.3409 20.1266 22.3409C19.7123 22.3409 19.3766 22.0051 19.3766 21.5909L19.3765 6.17871C19.3765 5.48835 18.8168 4.92871 18.1265 4.92871H6.37264C5.68229 4.92871 5.12264 5.48835 5.12264 6.1787L5.12256 21.5909C5.12256 22.0051 4.78677 22.3409 4.37255 22.3409C3.95834 22.3409 3.62256 22.0051 3.62256 21.5909L3.62264 6.17869Z" fill="#000000" />
<path fill-rule="evenodd" clip-rule="evenodd" d="M3.63433 13.8686C3.69561 13.459 4.07738 13.1766 4.48703 13.2378C9.6999 14.0176 14.7853 14.0188 20.0129 13.2378C20.4226 13.1766 20.8043 13.4591 20.8655 13.8688C20.9267 14.2784 20.6442 14.6602 20.2345 14.7214C14.86 15.5243 9.62508 15.5231 4.26512 14.7213C3.85547 14.6601 3.57305 14.2783 3.63433 13.8686Z" fill="#000000" />
<path fill-rule="evenodd" clip-rule="evenodd" d="M3.25 8.302C3.11192 8.302 2.99999 8.41394 3 8.55202L3.00013 10.6926C3.00016 11.1068 2.66439 11.4426 2.25018 11.4427C1.83597 11.4427 1.50016 11.1069 1.50013 10.6927L1.5 8.55211C1.49994 7.58557 2.28346 6.802 3.25 6.802H21.2498C22.2163 6.802 22.9997 7.58544 22.9998 8.5519L22.9999 10.6926C23 11.1068 22.6642 11.4426 22.25 11.4427C21.8358 11.4427 21.5 11.1069 21.4999 10.6927L21.4998 8.55198C21.4998 8.41392 21.3879 8.302 21.2498 8.302H3.25Z" fill="#000000" />
<path fill-rule="evenodd" clip-rule="evenodd" d="M6.44482 17.1677C6.44482 16.6457 6.86792 16.222 7.39043 16.222C7.91234 16.222 8.33616 16.6451 8.33616 17.1677C8.33616 17.6903 7.91235 18.1134 7.39043 18.1134C6.86792 18.1134 6.44482 17.6897 6.44482 17.1677ZM16.164 17.1677C16.164 16.6457 16.5871 16.222 17.1096 16.222C17.6315 16.222 18.0553 16.6451 18.0553 17.1677C18.0553 17.6903 17.6315 18.1134 17.1096 18.1134C16.5871 18.1134 16.164 17.6897 16.164 17.1677Z" fill="#000000" />
<path fill-rule="evenodd" clip-rule="evenodd" d="M6.48828 20.7623C6.48828 19.7958 7.27178 19.0123 8.23828 19.0123H16.2514C17.2179 19.0123 18.0014 19.7958 18.0014 20.7623V21.5908C18.0014 22.005 17.6656 22.3408 17.2514 22.3408C16.8372 22.3408 16.5014 22.005 16.5014 21.5908V20.7623C16.5014 20.6243 16.3894 20.5123 16.2514 20.5123H8.23828C8.10021 20.5123 7.98828 20.6243 7.98828 20.7623V21.5908C7.98828 22.005 7.65249 22.3408 7.23828 22.3408C6.82407 22.3408 6.48828 22.005 6.48828 21.5908V20.7623Z" fill="#000000" />
<path fill-rule="evenodd" clip-rule="evenodd" d="M10.1855 17.1677C10.1855 16.7535 10.5213 16.4177 10.9355 16.4177H13.5647C13.9789 16.4177 14.3147 16.7535 14.3147 17.1677C14.3147 17.5819 13.9789 17.9177 13.5647 17.9177H10.9355C10.5213 17.9177 10.1855 17.5819 10.1855 17.1677Z" fill="#000000" />
</svg>