<svg width="24px"  height="24px"  viewBox="0 0 25 25" fill="none" xmlns="http://www.w3.org/2000/svg">
<path fill-rule="evenodd" clip-rule="evenodd" d="M3.62264 6.17869C3.62265 4.65992 4.85386 3.42871 6.37264 3.42871H18.1265C19.6453 3.42871 20.8765 4.65992 20.8765 6.1787L20.8766 21.5909C20.8766 22.0051 20.5408 22.3409 20.1266 22.3409C19.7123 22.3409 19.3766 22.0051 19.3766 21.5909L19.3765 6.17871C19.3765 5.48835 18.8168 4.92871 18.1265 4.92871H6.37264C5.68229 4.92871 5.12264 5.48835 5.12264 6.1787L5.12256 21.5909C5.12256 22.0051 4.78677 22.3409 4.37255 22.3409C3.95834 22.3409 3.62256 22.0051 3.62256 21.5909L3.62264 6.17869Z" fill="#000000" />
<path fill-rule="evenodd" clip-rule="evenodd" d="M3.63433 13.8686C3.69561 13.459 4.07738 13.1766 4.48703 13.2378C9.6999 14.0176 14.7853 14.0188 20.0129 13.2378C20.4226 13.1766 20.8043 13.4591 20.8655 13.8688C20.9267 14.2784 20.6442 14.6602 20.2345 14.7214C14.86 15.5243 9.62508 15.5231 4.26512 14.7213C3.85547 14.6601 3.57305 14.2783 3.63433 13.8686Z" fill="#000000" />
<path fill-rule="evenodd" clip-rule="evenodd" d="M3.68386 7.552C3.68386 7.13779 4.01965 6.802 4.43386 6.802H20.0408C20.455 6.802 20.7908 7.13779 20.7908 7.552C20.7908 7.96622 20.455 8.302 20.0408 8.302H4.43386C4.01965 8.302 3.68386 7.96622 3.68386 7.552ZM22.2498 7.80194C22.664 7.80191 22.9998 8.13768 22.9998 8.55189L22.9999 10.6926C23 11.1068 22.6642 11.4426 22.25 11.4427C21.8358 11.4427 21.5 11.1069 21.4999 10.6927L21.4998 8.55199C21.4998 8.13777 21.8355 7.80196 22.2498 7.80194ZM2.24995 7.80206C2.66417 7.80204 2.99997 8.1378 3 8.55202L3.00013 10.6926C3.00016 11.1068 2.66439 11.4426 2.25018 11.4427C1.83597 11.4427 1.50016 11.1069 1.50013 10.6927L1.5 8.55211C1.49997 8.1379 1.83574 7.80209 2.24995 7.80206Z" fill="#000000" />
<path fill-rule="evenodd" clip-rule="evenodd" d="M6.48828 20.7625C6.48828 19.796 7.27178 19.0125 8.23828 19.0125H16.2514C17.2179 19.0125 18.0014 19.796 18.0014 20.7625V21.5909C18.0014 22.0051 17.6656 22.3409 17.2514 22.3409C16.8372 22.3409 16.5014 22.0051 16.5014 21.5909V20.7625C16.5014 20.6244 16.3894 20.5125 16.2514 20.5125H8.23828C8.10021 20.5125 7.98828 20.6244 7.98828 20.7625V21.5909C7.98828 22.0051 7.65249 22.3409 7.23828 22.3409C6.82407 22.3409 6.48828 22.0051 6.48828 21.5909V20.7625Z" fill="#000000" />
<path fill-rule="evenodd" clip-rule="evenodd" d="M12.25 6.8772C12.6642 6.8772 13 7.21298 13 7.6272L13 14.5366C13 14.9508 12.6642 15.2866 12.25 15.2866C11.8358 15.2866 11.5 14.9508 11.5 14.5366L11.5 7.6272C11.5 7.21298 11.8358 6.8772 12.25 6.8772Z" fill="#000000" />
<path fill-rule="evenodd" clip-rule="evenodd" d="M14.9004 17.1602C14.9004 16.7459 15.2362 16.4102 15.6504 16.4102H17.368C17.7822 16.4102 18.118 16.7459 18.118 17.1602C18.118 17.5744 17.7822 17.9102 17.368 17.9102H15.6504C15.2362 17.9102 14.9004 17.5744 14.9004 17.1602Z" fill="#000000" />
<path fill-rule="evenodd" clip-rule="evenodd" d="M6.41357 17.1602C6.41357 16.7459 6.74936 16.4102 7.16357 16.4102H8.88115C9.29536 16.4102 9.63115 16.7459 9.63115 17.1602C9.63115 17.5744 9.29536 17.9102 8.88115 17.9102H7.16357C6.74936 17.9102 6.41357 17.5744 6.41357 17.1602Z" fill="#000000" />
</svg>