<svg width="24px"  height="24px"  viewBox="0 0 25 24" fill="none" xmlns="http://www.w3.org/2000/svg">
<path fill-rule="evenodd" clip-rule="evenodd" d="M11.0957 6.26367C11.0957 5.84946 11.4315 5.51367 11.8457 5.51367H15.5259C15.5342 5.51367 15.5425 5.51381 15.5507 5.51408C15.9023 5.52575 16.244 5.62874 16.5428 5.811C16.8424 5.99375 17.0895 6.25083 17.2603 6.55726L17.2658 6.56726L17.2657 6.5673L19.5863 10.8843C19.7824 11.2492 19.6456 11.7039 19.2808 11.9C18.916 12.0962 18.4612 11.9594 18.2651 11.5945L15.9478 7.28362C15.903 7.20479 15.839 7.13874 15.7616 7.09155C15.685 7.04482 15.5986 7.01822 15.5107 7.01367H11.8457C11.4315 7.01367 11.0957 6.67789 11.0957 6.26367Z" fill="#000000" />
<path fill-rule="evenodd" clip-rule="evenodd" d="M9.04688 17.3262C9.04688 16.912 9.38266 16.5762 9.79688 16.5762H15.7328C16.147 16.5762 16.4828 16.912 16.4828 17.3262C16.4828 17.7404 16.147 18.0762 15.7328 18.0762H9.79688C9.38266 18.0762 9.04688 17.7404 9.04688 17.3262Z" fill="#000000" />
<path fill-rule="evenodd" clip-rule="evenodd" d="M1.95703 11.293C1.95703 10.8788 2.29282 10.543 2.70703 10.543H20.2018C21.0105 10.543 21.7859 10.8645 22.3576 11.4361C22.9293 12.0079 23.2505 12.783 23.2505 13.5917V15.3613C23.2505 16.1695 22.9296 16.9459 22.3576 17.5179C21.7859 18.0895 21.0105 18.411 20.2018 18.411H19.9103C19.4961 18.411 19.1603 18.0752 19.1603 17.661C19.1603 17.2468 19.4961 16.911 19.9103 16.911H20.2018C20.6124 16.911 21.0063 16.7478 21.2969 16.4572C21.5871 16.167 21.7505 15.7724 21.7505 15.3613V13.5917C21.7505 13.1809 21.5874 12.7873 21.2969 12.4968C21.0063 12.2062 20.6124 12.043 20.2018 12.043H2.70703C2.29282 12.043 1.95703 11.7072 1.95703 11.293Z" fill="#000000" />
<path fill-rule="evenodd" clip-rule="evenodd" d="M4.79869 5.36328C4.38808 5.36328 3.99412 5.52652 3.70355 5.81709C3.41333 6.10732 3.25 6.50192 3.25 6.91303V15.3626C3.25 15.7738 3.41333 16.1684 3.70355 16.4586C3.99412 16.7492 4.38808 16.9124 4.79869 16.9124H5.61894C6.03315 16.9124 6.36894 17.2482 6.36894 17.6624C6.36894 18.0766 6.03315 18.4124 5.61894 18.4124H4.79869C3.98994 18.4124 3.21454 18.0909 2.64289 17.5192C2.07089 16.9472 1.75 16.1709 1.75 15.3626V6.91303C1.75 6.10477 2.07089 5.32844 2.64289 4.75643C3.21454 4.18478 3.98994 3.86328 4.79869 3.86328H11.2742L11.29 3.86345C11.6147 3.87028 11.9237 4.00259 12.1526 4.23156C12.382 4.46094 12.5137 4.76982 12.5205 5.09391L12.5207 5.1097V11.2301C12.5207 11.6443 12.1849 11.9801 11.7707 11.9801C11.3564 11.9801 11.0207 11.6443 11.0207 11.2301V5.36328H4.79869Z" fill="#000000" />
<path fill-rule="evenodd" clip-rule="evenodd" d="M11.3457 13.7969C11.3457 13.3827 11.6815 13.0469 12.0957 13.0469H13.2289C13.6431 13.0469 13.9789 13.3827 13.9789 13.7969C13.9789 14.2111 13.6431 14.5469 13.2289 14.5469H12.0957C11.6815 14.5469 11.3457 14.2111 11.3457 13.7969Z" fill="#000000" />
<path fill-rule="evenodd" clip-rule="evenodd" d="M7.73521 16.0156C7.01096 16.0156 6.42383 16.6028 6.42383 17.327C6.42383 18.0513 7.01095 18.6384 7.73521 18.6384C8.45948 18.6384 9.0466 18.0513 9.0466 17.327C9.0466 16.6028 8.45947 16.0156 7.73521 16.0156ZM4.92383 17.327C4.92383 15.7743 6.18253 14.5156 7.73521 14.5156C9.2879 14.5156 10.5466 15.7743 10.5466 17.327C10.5466 18.8797 9.2879 20.1384 7.73521 20.1384C6.18253 20.1384 4.92383 18.8797 4.92383 17.327Z" fill="#000000" />
<path fill-rule="evenodd" clip-rule="evenodd" d="M17.7958 16.0156C17.0715 16.0156 16.4844 16.6028 16.4844 17.327C16.4844 18.0513 17.0715 18.6384 17.7958 18.6384C18.52 18.6384 19.1071 18.0513 19.1071 17.327C19.1071 16.6028 18.52 16.0156 17.7958 16.0156ZM14.9844 17.327C14.9844 15.7743 16.2431 14.5156 17.7958 14.5156C19.3484 14.5156 20.6071 15.7743 20.6071 17.327C20.6071 18.8797 19.3484 20.1384 17.7958 20.1384C16.2431 20.1384 14.9844 18.8797 14.9844 17.327Z" fill="#000000" />
</svg>