<svg width="24px"  height="24px"  viewBox="0 0 25 24" fill="none" xmlns="http://www.w3.org/2000/svg">
<path fill-rule="evenodd" clip-rule="evenodd" d="M7.42723 16.2969C7.13072 16.2969 6.84029 16.4128 6.6153 16.6294C6.39663 16.8399 6.25555 17.1309 6.2253 17.4487C6.22916 17.5622 6.24578 17.6743 6.27468 17.7824L6.27485 17.783C6.34748 18.0556 6.50329 18.2912 6.71248 18.4563C6.92048 18.6205 7.17154 18.7069 7.42723 18.7069C7.6827 18.7069 7.93328 18.6206 8.14145 18.4563C8.35065 18.2912 8.50646 18.0556 8.57909 17.783L8.57926 17.7824C8.60816 17.6743 8.62478 17.5622 8.62864 17.4487C8.59839 17.1309 8.45731 16.8399 8.23864 16.6294C8.01348 16.4127 7.72353 16.2969 7.42723 16.2969ZM9.37933 17.4263L10.1274 17.3726C10.0777 16.6808 9.77721 16.0283 9.27883 15.5486C8.77977 15.0683 8.11909 14.7969 7.42723 14.7969C6.73559 14.7969 6.07433 15.0682 5.57511 15.5486C5.07673 16.0283 4.77623 16.6808 4.72654 17.3726C4.72502 17.3937 4.7244 17.4148 4.72467 17.4359C4.72784 17.683 4.76142 17.9298 4.82551 18.1695C4.97982 18.7484 5.3145 19.2639 5.7832 19.6338C6.25318 20.0047 6.83088 20.2069 7.42723 20.2069C8.0238 20.2069 8.60093 20.0046 9.07074 19.6338C9.53943 19.2639 9.87412 18.7484 10.0284 18.1695C10.0925 17.9298 10.1261 17.683 10.1293 17.4359L9.37933 17.4263Z" fill="#000000" />
<path fill-rule="evenodd" clip-rule="evenodd" d="M18.0595 16.2969C17.763 16.2969 17.4726 16.4128 17.2476 16.6294C17.0293 16.8395 16.8884 17.1304 16.8581 17.4487C16.862 17.5622 16.8786 17.6743 16.9075 17.7824L16.9077 17.783C16.9803 18.0556 17.1361 18.2912 17.3453 18.4563C17.5535 18.6206 17.804 18.7069 18.0595 18.7069C18.3152 18.7069 18.5663 18.6205 18.7743 18.4563C18.9835 18.2912 19.1393 18.0556 19.2119 17.783L19.2121 17.7824C19.241 17.6743 19.2576 17.5622 19.2615 17.4487C19.2312 17.1309 19.0901 16.8399 18.8715 16.6294C18.6465 16.4128 18.356 16.2969 18.0595 16.2969ZM16.2074 15.5486C16.7066 15.0682 17.3679 14.7969 18.0595 14.7969C18.7512 14.7969 19.4124 15.0682 19.9116 15.5486C20.41 16.0283 20.7105 16.6808 20.7602 17.3726C20.7617 17.3937 20.7624 17.4148 20.7621 17.4359C20.7589 17.683 20.7253 17.9298 20.6612 18.1695C20.5069 18.7484 20.1722 19.2639 19.7035 19.6338C19.2336 20.0047 18.6559 20.2069 18.0595 20.2069C17.4629 20.2069 16.8858 20.0046 16.416 19.6338C15.9473 19.2639 15.6126 18.7484 15.4583 18.1695C15.3942 17.9298 15.3607 17.683 15.3575 17.4359C15.3572 17.4148 15.3578 17.3937 15.3593 17.3726C15.409 16.6813 15.7086 16.0287 16.2074 15.5486Z" fill="#000000" />
<path fill-rule="evenodd" clip-rule="evenodd" d="M15.9052 6.09588C16.2599 6.08971 16.6102 6.18029 16.9178 6.35872C17.2283 6.53878 17.4825 6.80093 17.6532 7.11541L17.6571 7.12251L19.8204 11.2105C20.0142 11.5766 19.8744 12.0305 19.5083 12.2242C19.1422 12.418 18.6884 12.2782 18.4946 11.9121L16.3336 7.82857C16.2939 7.75656 16.2355 7.69704 16.1652 7.65627C16.0939 7.61491 16.0122 7.59385 15.9291 7.59569L15.9125 7.59588H13.1866C13.185 7.59588 13.184 7.596 13.1835 7.59608C13.1823 7.59666 13.1816 7.59726 13.1814 7.59743C13.1813 7.59755 13.1808 7.59815 13.1801 7.59976C13.1801 7.59967 13.1797 7.60111 13.1797 7.60311L13.1798 7.61383L13.1798 11.5613C13.1798 11.9755 12.844 12.3113 12.4298 12.3113C12.0156 12.3113 11.6798 11.9755 11.6798 11.5613V7.61827C11.6778 7.42168 11.7142 7.22494 11.7882 7.04058C11.8624 6.85595 11.9725 6.68712 12.1133 6.54432C12.254 6.40159 12.4215 6.28889 12.6051 6.21207C12.7917 6.13401 12.9895 6.09587 13.1866 6.09588C13.1866 6.09588 13.1867 6.09588 13.1866 6.09588H15.9052Z" fill="#000000" />
<path fill-rule="evenodd" clip-rule="evenodd" d="M8.62891 17.3262C8.62891 16.912 8.96469 16.5762 9.37891 16.5762H16.0962C16.5104 16.5762 16.8462 16.912 16.8462 17.3262C16.8462 17.7404 16.5104 18.0762 16.0962 18.0762H9.37891C8.96469 18.0762 8.62891 17.7404 8.62891 17.3262Z" fill="#000000" />
<path fill-rule="evenodd" clip-rule="evenodd" d="M1.75 11.6152C1.75 11.201 2.08579 10.8652 2.5 10.8652H20.3366C21.1084 10.8652 21.85 11.1706 22.3971 11.7176C22.9439 12.2645 23.25 13.0066 23.25 13.7786V15.455C23.25 16.2274 22.9436 16.9683 22.3971 17.5149C21.8507 18.0612 21.1093 18.3684 20.3366 18.3684H20.0123C19.5981 18.3684 19.2623 18.0326 19.2623 17.6184C19.2623 17.2041 19.5981 16.8684 20.0123 16.8684H20.3366C20.7115 16.8684 21.0713 16.7193 21.3364 16.4542C21.6013 16.1894 21.75 15.8301 21.75 15.455V13.7786C21.75 13.4031 21.601 13.0429 21.3364 12.7783C21.072 12.5139 20.7124 12.3652 20.3366 12.3652H2.5C2.08579 12.3652 1.75 12.0294 1.75 11.6152Z" fill="#000000" />
<path fill-rule="evenodd" clip-rule="evenodd" d="M4.66336 5.43164C4.28872 5.43164 3.92933 5.58057 3.66413 5.84577C3.39893 6.11097 3.25 6.47036 3.25 6.845V11.6154C3.25 12.0296 2.91421 12.3654 2.5 12.3654C2.08579 12.3654 1.75 12.0296 1.75 11.6154V6.845C1.75 6.07212 2.05725 5.33132 2.60347 4.78511C3.14968 4.23889 3.89048 3.93164 4.66336 3.93164H15.748C16.1945 3.93671 16.6233 4.11671 16.9394 4.43639C17.2551 4.75571 17.4307 5.18638 17.4307 5.63339C17.4307 5.63338 17.4307 5.63341 17.4307 5.63339V6.85557C17.4307 7.26978 17.0949 7.60557 16.6807 7.60557C16.2665 7.60557 15.9307 7.26978 15.9307 6.85557V5.63339C15.9307 5.57924 15.9093 5.52805 15.8727 5.49097C15.837 5.45485 15.7873 5.43295 15.7337 5.43164H4.66336Z" fill="#000000" />
<path fill-rule="evenodd" clip-rule="evenodd" d="M2.50977 10.9512C2.92398 10.9512 3.25977 11.287 3.25977 11.7012V15.4765C3.25977 15.8511 3.40869 16.2105 3.67389 16.4757C3.93909 16.7409 4.29849 16.8899 4.67313 16.8899H5.43051C5.84473 16.8899 6.18051 17.2256 6.18051 17.6399C6.18051 18.0541 5.84473 18.3899 5.43051 18.3899H4.67313C3.90025 18.3899 3.15945 18.0826 2.61323 17.5364C2.06702 16.9902 1.75977 16.2494 1.75977 15.4765V11.7012C1.75977 11.287 2.09555 10.9512 2.50977 10.9512Z" fill="#000000" />
<path fill-rule="evenodd" clip-rule="evenodd" d="M11.9062 13.6699C11.9062 13.2557 12.242 12.9199 12.6562 12.9199H13.7271C14.1413 12.9199 14.4771 13.2557 14.4771 13.6699C14.4771 14.0841 14.1413 14.4199 13.7271 14.4199H12.6562C12.242 14.4199 11.9062 14.0841 11.9062 13.6699Z" fill="#000000" />
</svg>