<svg width="24px"  height="24px"  viewBox="0 0 25 24" fill="none" xmlns="http://www.w3.org/2000/svg">
<path fill-rule="evenodd" clip-rule="evenodd" d="M11.1289 6.2832C11.1289 5.86899 11.4647 5.5332 11.8789 5.5332H15.5631C15.9191 5.53629 16.2674 5.63488 16.5718 5.81755C16.8759 6 17.1265 6.2601 17.297 6.57314L17.2989 6.5767L19.6248 10.9035C19.8209 11.2684 19.6841 11.7231 19.3193 11.9193C18.9544 12.1154 18.4997 11.9786 18.3035 11.6137L15.9789 7.28912C15.9372 7.21317 15.8759 7.14931 15.8001 7.10379C15.7249 7.05866 15.6393 7.0344 15.5526 7.0332H11.8789C11.4647 7.0332 11.1289 6.69742 11.1289 6.2832Z" fill="#000000" />
<path fill-rule="evenodd" clip-rule="evenodd" d="M8.98633 17.3066C8.98633 16.8924 9.32211 16.5566 9.73633 16.5566H15.7506C16.1648 16.5566 16.5006 16.8924 16.5006 17.3066C16.5006 17.7209 16.1648 18.0566 15.7506 18.0566H9.73633C9.32211 18.0566 8.98633 17.7209 8.98633 17.3066Z" fill="#000000" />
<path fill-rule="evenodd" clip-rule="evenodd" d="M11.0742 11.291C11.0742 10.8768 11.41 10.541 11.8242 10.541H20.2218C21.026 10.5448 21.7966 10.8664 22.3645 11.437C22.9323 12.0074 23.2508 12.7799 23.2508 13.5844V15.358C23.2508 16.1623 22.9311 16.9338 22.3625 17.5024C21.7939 18.071 21.0227 18.3908 20.2183 18.3908H19.8721C19.4579 18.3908 19.1221 18.055 19.1221 17.6408C19.1221 17.2266 19.4579 16.8908 19.8721 16.8908H20.2183C20.6245 16.8908 21.0143 16.7293 21.3018 16.4418C21.5892 16.1543 21.7508 15.7643 21.7508 15.358V13.5844C21.7508 13.1762 21.5891 12.7842 21.3014 12.4951C21.0142 12.2066 20.6242 12.0434 20.2164 12.041H11.8242C11.41 12.041 11.0742 11.7052 11.0742 11.291Z" fill="#000000" />
<path fill-rule="evenodd" clip-rule="evenodd" d="M4.79334 5.38879C4.38599 5.38879 3.9943 5.55073 3.70461 5.83905C3.41564 6.12666 3.25234 6.51628 3.25 6.92352V15.3568C3.25234 15.7644 3.4159 16.1549 3.70461 16.4423C3.99367 16.73 4.3851 16.8915 4.79335 16.8915H5.57215C5.98636 16.8915 6.32215 17.2273 6.32215 17.6415C6.32215 18.0557 5.98636 18.3915 5.57215 18.3915H4.79336C3.98894 18.3915 3.21692 18.0732 2.64647 17.5055C2.07605 16.9377 1.7538 16.1667 1.75001 15.3622L1.75 15.3587V6.91804C1.7538 6.11321 2.07631 5.34335 2.64647 4.77589C3.21629 4.20875 3.98805 3.88879 4.79335 3.88879C4.79335 3.88879 4.79335 3.88879 4.79335 3.88879H11.2836C11.6148 3.88879 11.9319 4.02047 12.1657 4.25424C12.3995 4.48802 12.5311 4.80518 12.5311 5.13634V17.3172C12.5311 17.7314 12.1954 18.0672 11.7811 18.0672C11.3669 18.0672 11.0311 17.7314 11.0311 17.3172V5.38879H4.79334Z" fill="#000000" />
<path fill-rule="evenodd" clip-rule="evenodd" d="M7.68027 16C6.95939 16 6.375 16.5844 6.375 17.3052C6.375 18.0261 6.95939 18.6105 7.68027 18.6105C8.40114 18.6105 8.98551 18.0261 8.98551 17.3052C8.98551 16.5844 8.40114 16 7.68027 16ZM4.875 17.3052C4.875 15.7559 6.13099 14.5 7.68027 14.5C9.22957 14.5 10.4855 15.756 10.4855 17.3052C10.4855 18.8545 9.22957 20.1105 7.68027 20.1105C6.13099 20.1105 4.875 18.8546 4.875 17.3052Z" fill="#000000" />
<path fill-rule="evenodd" clip-rule="evenodd" d="M17.8052 16C17.0844 16 16.5 16.5844 16.5 17.3052C16.5 18.0261 17.0844 18.6105 17.8052 18.6105C18.5261 18.6105 19.1105 18.0261 19.1105 17.3052C19.1105 16.5844 18.5261 16 17.8052 16ZM15 17.3052C15 15.756 16.2559 14.5 17.8052 14.5C19.3545 14.5 20.6105 15.756 20.6105 17.3052C20.6105 18.8545 19.3545 20.1105 17.8052 20.1105C16.2559 20.1105 15 18.8545 15 17.3052Z" fill="#000000" />
<path fill-rule="evenodd" clip-rule="evenodd" d="M4.30273 11.4865C4.30273 11.0722 4.63852 10.7365 5.05273 10.7365H9.27143C9.68564 10.7365 10.0214 11.0722 10.0214 11.4865C10.0214 11.9007 9.68564 12.2365 9.27143 12.2365H5.05273C4.63852 12.2365 4.30273 11.9007 4.30273 11.4865Z" fill="#000000" />
</svg>