<svg width="24px"  height="24px"  viewBox="0 0 25 24" fill="none" xmlns="http://www.w3.org/2000/svg">
<path fill-rule="evenodd" clip-rule="evenodd" d="M7.65207 17.1816C7.40112 17.1816 7.16032 17.2814 6.98258 17.4591C6.80484 17.6369 6.70509 17.8777 6.70509 18.1286V18.131H6.70508C6.70482 18.2136 6.71689 18.2961 6.74089 18.3754L6.74553 18.3914C6.80107 18.5908 6.92023 18.7663 7.08487 18.8914C7.24864 19.0158 7.44951 19.0833 7.6576 19.0833C7.86569 19.0833 8.06656 19.0158 8.23033 18.8914C8.39183 18.7687 8.50954 18.598 8.56644 18.4046C8.58702 18.3137 8.59798 18.22 8.59906 18.1254C8.59821 17.8756 8.49855 17.6361 8.32157 17.4591C8.14383 17.2814 7.90302 17.1816 7.65207 17.1816ZM9.34906 18.1286H10.0991C10.0991 17.4794 9.84098 16.8572 9.38223 16.3985C8.92347 15.9397 8.30126 15.6816 7.65207 15.6816C7.00289 15.6816 6.38067 15.9397 5.92192 16.3985C5.46317 16.8572 5.20509 17.4794 5.20509 18.1286H5.95509L5.20509 18.1262C5.20435 18.3551 5.23735 18.5828 5.30277 18.8019C5.44711 19.3134 5.75402 19.7642 6.17759 20.0859C6.60424 20.41 7.12427 20.5833 7.6576 20.5833C8.19092 20.5833 8.71096 20.41 9.1376 20.0859C9.56285 19.7629 9.87165 19.3093 10.0152 18.7939C10.0178 18.7848 10.0201 18.7756 10.0223 18.7664C10.0717 18.5589 10.0972 18.347 10.099 18.1353L9.34906 18.1286Z" fill="#000000" />
<path fill-rule="evenodd" clip-rule="evenodd" d="M17.5173 17.1816C17.2661 17.1816 17.0248 17.2816 16.8473 17.4591C16.67 17.6364 16.5703 17.8771 16.5703 18.1286V18.131H16.5703C16.57 18.2154 16.5821 18.2978 16.6056 18.3754L16.6093 18.3876L16.6092 18.3876C16.6652 18.5847 16.7839 18.7583 16.9486 18.8829C17.1133 19.0076 17.3139 19.0752 17.5187 19.0756L17.5235 19.0756C17.7276 19.0773 17.9261 19.0116 18.0888 18.8884C18.2518 18.7651 18.3692 18.5915 18.4229 18.395L18.4285 18.3754C18.4525 18.2961 18.4646 18.2136 18.4643 18.131L19.2143 18.1286H18.4643C18.4643 17.8777 18.3645 17.6369 18.1868 17.4591C18.0091 17.2814 17.7683 17.1816 17.5173 17.1816ZM19.9643 18.1274C19.964 17.4787 19.7059 16.8569 19.2475 16.3985C18.7887 15.9397 18.1665 15.6816 17.5173 15.6816C16.8684 15.6816 16.2455 15.9395 15.7866 16.3985C15.3274 16.8577 15.0703 17.4801 15.0703 18.1286H15.8203L15.0703 18.1262C15.0696 18.354 15.1017 18.5826 15.168 18.8038C15.3143 19.3134 15.6218 19.7599 16.0433 20.0789C16.4658 20.3987 16.9819 20.5741 17.5134 20.5756C18.0477 20.5795 18.5681 20.4069 18.9941 20.0844C19.4178 19.7637 19.7249 19.3125 19.8672 18.8C19.9321 18.582 19.9649 18.3552 19.9643 18.1274Z" fill="#000000" />
<path fill-rule="evenodd" clip-rule="evenodd" d="M8.63281 18.127C8.63281 17.7127 8.9686 17.377 9.38281 17.377H15.8313C16.2455 17.377 16.5813 17.7127 16.5813 18.127C16.5813 18.5412 16.2455 18.877 15.8313 18.877H9.38281C8.9686 18.877 8.63281 18.5412 8.63281 18.127Z" fill="#000000" />
<path fill-rule="evenodd" clip-rule="evenodd" d="M3.58984 14.6621C4.00406 14.6621 4.33984 14.9979 4.33984 15.4121V16.2949C4.33984 16.5973 4.45969 16.8868 4.67313 17.1002C4.8868 17.3139 5.17691 17.4341 5.47907 17.4341H5.7503C6.16451 17.4341 6.5003 17.7699 6.5003 18.1841C6.5003 18.5983 6.16451 18.9341 5.7503 18.9341H5.47907C4.77907 18.9341 4.10743 18.6559 3.61247 18.1609C3.11728 17.6657 2.83984 16.9945 2.83984 16.2949V15.4121C2.83984 14.9979 3.17563 14.6621 3.58984 14.6621Z" fill="#000000" />
<path fill-rule="evenodd" clip-rule="evenodd" d="M12.5371 11.7246C12.5371 11.3104 12.8729 10.9746 13.2871 10.9746H21.4047C21.8189 10.9746 22.1547 11.3104 22.1547 11.7246C22.1547 12.1388 21.8189 12.4746 21.4047 12.4746H13.2871C12.8729 12.4746 12.5371 12.1388 12.5371 11.7246Z" fill="#000000" />
<path fill-rule="evenodd" clip-rule="evenodd" d="M13.9785 7.42969V18.0946C13.9785 18.5088 13.6427 18.8446 13.2285 18.8446C12.8143 18.8446 12.4785 18.5088 12.4785 18.0946V7.20005C12.4785 6.86285 12.6126 6.53988 12.8506 6.30182C13.0887 6.06377 13.4117 5.92969 13.7489 5.92969H17.2671C17.654 5.92985 18.0364 6.02396 18.3798 6.20577C18.7223 6.3871 19.0144 6.64924 19.232 6.96821L21.8165 10.7156C22.1111 11.1238 22.2635 11.6178 22.2486 12.122V16.2959C22.2486 16.9962 21.9702 17.6672 21.4754 18.162C20.9804 18.657 20.3088 18.9352 19.6088 18.9352H19.3149C18.9007 18.9352 18.5649 18.5994 18.5649 18.1852C18.5649 17.771 18.9007 17.4352 19.3149 17.4352H19.6088C19.9109 17.4352 20.2011 17.315 20.4147 17.1013C20.6286 16.8875 20.7486 16.5979 20.7486 16.2959V12.1098C20.7486 12.1008 20.7487 12.0918 20.7491 12.0828C20.7554 11.9069 20.7024 11.7336 20.598 11.5903L20.5867 11.5745L17.9932 7.81417C17.9122 7.69512 17.804 7.59814 17.678 7.53145C17.5522 7.46486 17.4112 7.4298 17.2671 7.42969H13.9785Z" fill="#000000" />
<path fill-rule="evenodd" clip-rule="evenodd" d="M11.7132 3.41797C11.7132 3.41797 11.7132 3.41797 11.7132 3.41797H13.2295C13.6437 3.41797 13.9795 3.75376 13.9795 4.16797C13.9795 4.58218 13.6437 4.91797 13.2295 4.91797H11.7132C11.6986 4.91797 11.689 4.9207 11.6838 4.92289C11.6765 4.92593 11.6679 4.93125 11.6593 4.93995C11.6518 4.94755 11.6463 4.95617 11.6428 4.96491C11.6388 4.97473 11.6371 4.98451 11.6372 4.99404L11.6374 5.00431L11.6373 12.7656C11.6373 13.1798 11.3015 13.5156 10.8873 13.5156H3.5C3.08579 13.5156 2.75 13.1798 2.75 12.7656V6.84824C2.75 6.34907 2.94844 5.8707 3.30111 5.51802C3.65378 5.16535 4.13216 4.96691 4.63132 4.96691H10.1374C10.1407 4.77392 10.1793 4.58364 10.2512 4.40512C10.3293 4.21085 10.4453 4.03471 10.5915 3.88653C10.7366 3.73944 10.9105 3.62037 11.1051 3.539C11.3017 3.45677 11.509 3.41796 11.7132 3.41797ZM10.1373 6.46691V12.0156H4.25V6.84824C4.25 6.74731 4.29012 6.65034 4.36177 6.57868C4.43343 6.50703 4.5304 6.46691 4.63132 6.46691H10.1373Z" fill="#000000" />
</svg>