<svg width="24px"  height="24px"  viewBox="0 0 25 24" fill="none" xmlns="http://www.w3.org/2000/svg">
<path fill-rule="evenodd" clip-rule="evenodd" d="M14.8949 4.66016C15.6231 4.66016 16.2914 5.06067 16.636 5.69945L18.7361 9.5894H20.2514C21.9056 9.5894 23.25 10.9338 23.25 12.588V14.3253C23.25 15.8831 22.0626 17.1621 20.5469 17.3106C20.2246 18.481 19.1525 19.3406 17.8798 19.3406C16.6112 19.3406 15.5427 18.4879 15.2158 17.3246H11.621C11.294 18.4878 10.2254 19.3406 8.95773 19.3406C7.66225 19.3406 6.57492 18.4511 6.27347 17.2497C4.93861 16.9461 3.94383 15.7532 3.94383 14.3258V7.67393C3.94383 6.02068 5.2839 4.6757 6.94171 4.67529M7.69119 16.6185C7.71445 17.2971 8.2719 17.8406 8.95773 17.8406C9.65702 17.8406 10.2239 17.2736 10.2239 16.5743C10.2239 15.8751 9.65702 15.3081 8.95773 15.3081C8.27186 15.3081 7.71439 15.8517 7.69119 16.5303C7.69204 16.5449 7.69247 16.5596 7.69247 16.5744C7.69247 16.5892 7.69204 16.6039 7.69119 16.6185ZM6.33289 15.6957C6.70016 14.5986 7.73645 13.8081 8.95773 13.8081C10.2256 13.8081 11.2943 14.6612 11.6211 15.8246H15.2158C15.5427 14.6613 16.611 13.8081 17.8798 13.8081C19.138 13.8081 20.2 14.6482 20.5356 15.798C21.2263 15.6651 21.75 15.0567 21.75 14.3253V12.588C21.75 11.7623 21.0771 11.0894 20.2514 11.0894H5.44383V14.3258C5.44383 14.9376 5.80855 15.4626 6.33289 15.6957ZM5.44383 9.5894H10.4852V6.16855L6.94247 6.17529C6.11415 6.17529 5.44383 6.84745 5.44383 7.67393V9.5894ZM11.9852 6.1657V9.5894H17.0315L15.316 6.41186C15.2326 6.25729 15.0707 6.16036 14.8954 6.16016C14.8952 6.16016 14.8956 6.16016 14.8954 6.16016L11.9852 6.1657ZM2.5 8.52311C2.91421 8.52311 3.25 8.85889 3.25 9.27311V12.8126C3.25 13.2268 2.91421 13.5626 2.5 13.5626C2.08579 13.5626 1.75 13.2268 1.75 12.8126V9.27311C1.75 8.85889 2.08579 8.52311 2.5 8.52311ZM11.088 12.9059C11.088 12.4917 11.4238 12.1559 11.838 12.1559H12.9483C13.3625 12.1559 13.6983 12.4917 13.6983 12.9059C13.6983 13.3201 13.3625 13.6559 12.9483 13.6559H11.838C11.4238 13.6559 11.088 13.3201 11.088 12.9059ZM17.8798 15.3081C17.1795 15.3081 16.613 15.8752 16.613 16.5746C16.613 17.2738 17.1793 17.8406 17.8798 17.8406C18.5791 17.8406 19.146 17.2736 19.146 16.5743C19.146 15.875 18.5791 15.3081 17.8798 15.3081Z" fill="#000000" />
</svg>