<svg width="24px"  height="24px"  viewBox="0 0 25 24" fill="none" xmlns="http://www.w3.org/2000/svg">
<path fill-rule="evenodd" clip-rule="evenodd" d="M7.26498 16.1895C7.10495 16.1895 6.9471 16.2215 6.80147 16.2828C6.65663 16.3439 6.52768 16.4328 6.42191 16.5428C6.31654 16.6524 6.23726 16.7801 6.18728 16.9175C6.13707 17.0556 6.11705 17.2011 6.12784 17.3447C6.12918 17.3626 6.12988 17.3805 6.12994 17.3984C6.13023 17.4856 6.14429 17.5727 6.17207 17.6572C6.17488 17.6657 6.17754 17.6743 6.18004 17.683C6.24372 17.903 6.38131 18.1015 6.57747 18.2454C6.77356 18.3893 7.01703 18.4695 7.27032 18.4695C7.52342 18.4695 7.76645 18.3894 7.96269 18.2454C8.15885 18.1015 8.29644 17.903 8.36012 17.683L8.36342 17.6716L8.36351 17.6716C8.38924 17.5877 8.40153 17.5007 8.40011 17.413L9.15002 17.4009L8.40212 17.3447C8.41298 17.2001 8.39304 17.0547 8.34317 16.9175C8.29319 16.7801 8.2139 16.6524 8.10853 16.5428C8.00314 16.4332 7.87383 16.3441 7.72849 16.2828C7.58287 16.2215 7.42501 16.1895 7.26498 16.1895ZM9.90022 17.4233C9.92152 17.0777 9.87152 16.7312 9.75286 16.4049C9.63045 16.0683 9.43836 15.7618 9.18997 15.5034C8.94159 15.245 8.64196 15.04 8.31106 14.9006C7.98042 14.7612 7.62443 14.6895 7.26498 14.6895C6.90553 14.6895 6.54954 14.7612 6.2189 14.9006C5.88749 15.0403 5.58848 15.2453 5.34048 15.5034C5.09209 15.7618 4.9 16.0683 4.77758 16.4049C4.65843 16.7326 4.60771 17.0816 4.6302 17.4305C4.63366 17.6626 4.67183 17.8924 4.74293 18.1129C4.90203 18.6518 5.23609 19.1216 5.69006 19.4548C6.14771 19.7906 6.70311 19.9695 7.27032 19.9695C7.83773 19.9695 8.3926 19.7905 8.8501 19.4548C9.3061 19.1202 9.64112 18.6476 9.79935 18.1056C9.86673 17.8839 9.90054 17.6541 9.90022 17.4233Z" fill="#000000" />
<path fill-rule="evenodd" clip-rule="evenodd" d="M18.1516 16.1895C17.8494 16.1895 17.5594 16.3096 17.3455 16.5235C17.1321 16.7369 17.0119 17.0272 17.0119 17.3301V17.3418L17.0118 17.3418C17.0103 17.4386 17.0235 17.5345 17.0508 17.6265L17.0541 17.6376L17.054 17.6376C17.1211 17.8772 17.2645 18.0881 17.4627 18.2384C17.6606 18.3885 17.9024 18.4697 18.1516 18.4697C18.4007 18.4697 18.6426 18.3885 18.8404 18.2384C19.039 18.0877 19.1827 17.8767 19.2497 17.6376L19.2528 17.6265L19.2529 17.6265C19.2802 17.5345 19.2933 17.4386 19.2918 17.3418L20.0417 17.3301H19.2917C19.2917 17.0277 19.1714 16.7372 18.9577 16.5235C18.7438 16.3096 18.4538 16.1895 18.1516 16.1895ZM20.7917 17.3243C20.7902 16.6263 20.5121 15.9566 20.0183 15.4628C19.5233 14.9678 18.8519 14.6895 18.1516 14.6895C17.4513 14.6895 16.7798 14.9678 16.2848 15.4628C15.7907 15.957 15.5135 16.6267 15.5119 17.3243C15.5087 17.5687 15.5419 17.8123 15.6111 18.0476C15.7671 18.6 16.0988 19.0865 16.5563 19.4335C17.0156 19.7819 17.5759 19.9697 18.1516 19.9697C18.7273 19.9697 19.2876 19.7819 19.7469 19.4335C20.204 19.0868 20.5364 18.6005 20.6926 18.0476C20.7617 17.8123 20.7949 17.5686 20.7917 17.3243Z" fill="#000000" />
<path fill-rule="evenodd" clip-rule="evenodd" d="M12.5 11.7793C12.5 11.3651 12.8358 11.0293 13.25 11.0293H20.3937C21.153 11.0329 21.8794 11.3377 22.4144 11.8752C22.9497 12.4131 23.25 13.1406 23.25 13.8994V15.5328C23.2464 16.2894 22.9441 17.014 22.4092 17.5489C21.8745 18.0836 21.1504 18.3861 20.3937 18.3896L20.3901 18.3897L20.04 18.3896C19.6258 18.3896 19.29 18.0539 19.29 17.6396C19.29 17.2254 19.6258 16.8896 20.04 16.8896H20.3881C20.7484 16.8875 21.0934 16.7434 21.3486 16.4882C21.6036 16.2332 21.7479 15.8878 21.75 15.5274V13.8994C21.75 13.5371 21.6067 13.1901 21.3512 12.9334C21.0957 12.6767 20.7494 12.5314 20.3882 12.5293H13.25C12.8358 12.5293 12.5 12.1935 12.5 11.7793Z" fill="#000000" />
<path fill-rule="evenodd" clip-rule="evenodd" d="M12.6406 6.79096C12.9029 6.52864 13.2587 6.38086 13.6304 6.38086H16.1071C16.4441 6.38378 16.776 6.47563 17.068 6.65083C17.3588 6.82531 17.5974 7.0746 17.7593 7.3718L17.7619 7.37664L19.902 11.3767C20.0974 11.7419 19.9598 12.1964 19.5945 12.3918C19.2293 12.5872 18.7748 12.4495 18.5794 12.0843L16.4409 8.08734C16.4067 8.02519 16.3565 7.97323 16.2963 7.93707C16.2373 7.90166 16.1687 7.88191 16.0965 7.88086H13.7305V17.2109C13.7305 17.6252 13.3947 17.9609 12.9805 17.9609C12.5663 17.9609 12.2305 17.6252 12.2305 17.2109V7.78027C12.2305 7.40805 12.3787 7.05286 12.6406 6.79096Z" fill="#000000" />
<path fill-rule="evenodd" clip-rule="evenodd" d="M2.5 13.0293C2.91421 13.0293 3.25 13.3651 3.25 13.7793V15.5293C3.25 15.8899 3.39339 16.2361 3.64849 16.4912C3.90373 16.7464 4.24943 16.8896 4.60986 16.8896H5.33984C5.75406 16.8896 6.08984 17.2254 6.08984 17.6396C6.08984 18.0539 5.75406 18.3896 5.33984 18.3896H4.60986C3.85109 18.3896 3.12401 18.088 2.58783 17.5518C2.05153 17.0155 1.75 16.2879 1.75 15.5293V13.7793C1.75 13.3651 2.08579 13.0293 2.5 13.0293Z" fill="#000000" />
<path fill-rule="evenodd" clip-rule="evenodd" d="M8.43164 17.2598C8.43164 16.8456 8.76743 16.5098 9.18164 16.5098H16.2716C16.6858 16.5098 17.0216 16.8456 17.0216 17.2598C17.0216 17.674 16.6858 18.0098 16.2716 18.0098H9.18164C8.76743 18.0098 8.43164 17.674 8.43164 17.2598Z" fill="#000000" />
<path fill-rule="evenodd" clip-rule="evenodd" d="M10.4902 4.4394C10.7526 4.17708 11.1084 4.0293 11.48 4.0293H13.96C14.3742 4.0293 14.71 4.36508 14.71 4.7793C14.71 5.19351 14.3742 5.5293 13.96 5.5293H11.5801V13.1396C11.5801 13.3694 11.4749 13.5864 11.2944 13.7286C11.114 13.8709 10.8784 13.9226 10.655 13.8689L2.32496 11.8689C1.98778 11.788 1.75006 11.4864 1.75006 11.1396V7.27302C1.74827 7.053 1.78979 6.83404 1.87346 6.62889C1.95819 6.42113 2.08343 6.23487 2.23926 6.07904C2.39468 5.92362 2.58131 5.7977 2.78959 5.71276C2.99656 5.62835 3.2157 5.58806 3.43373 5.58984H10.0801V5.42969C10.0801 5.05866 10.2275 4.70214 10.4902 4.4394ZM10.0801 7.08984H3.42203C3.39662 7.08957 3.37445 7.09418 3.35603 7.10169C3.33743 7.10928 3.31775 7.12187 3.29992 7.13971C3.28249 7.15713 3.27019 7.17621 3.26239 7.19533C3.25413 7.21559 3.24975 7.23794 3.25001 7.26133L3.2501 7.26953L3.25006 10.5484L10.0801 12.1883V7.08984Z" fill="#000000" />
</svg>