<svg width="24px"  height="24px"  viewBox="0 0 25 24" fill="none" xmlns="http://www.w3.org/2000/svg">
<path fill-rule="evenodd" clip-rule="evenodd" d="M7.42718 16.1621C7.13069 16.1621 6.84028 16.2781 6.61529 16.4946C6.39665 16.7051 6.25558 16.9961 6.22531 17.3139C6.2292 17.4262 6.24599 17.5383 6.2752 17.6476L6.27538 17.6482C6.34815 17.9213 6.5037 18.1568 6.71247 18.3216C6.92046 18.4857 7.17151 18.5721 7.42718 18.5721C7.68285 18.5721 7.9339 18.4857 8.14189 18.3216C8.35066 18.1568 8.50621 17.9213 8.57899 17.6482L8.57916 17.6476C8.60837 17.5383 8.62516 17.4262 8.62906 17.3139C8.59879 16.9961 8.45772 16.7051 8.23907 16.4946C8.01409 16.2781 7.72368 16.1621 7.42718 16.1621ZM5.57508 15.4139C6.07429 14.9334 6.73555 14.6621 7.42718 14.6621C8.11882 14.6621 8.78007 14.9334 9.27928 15.4139C9.77765 15.8936 10.0781 16.546 10.1278 17.2378C10.1293 17.2589 10.13 17.28 10.1297 17.3012C10.1265 17.5498 10.092 17.7966 10.0282 18.0351L9.3037 17.8413L10.0284 18.0345C10.0284 18.0347 10.0283 18.0349 10.0282 18.0351C9.87404 18.6133 9.54021 19.1289 9.07119 19.499C8.60122 19.8699 8.02353 20.0721 7.42718 20.0721C6.83083 20.0721 6.25314 19.8699 5.78317 19.499C5.31407 19.1288 4.9802 18.6131 4.82604 18.0348C4.82607 18.0349 4.82609 18.035 4.82612 18.0351L5.55066 17.8413L4.82595 18.0345C4.82598 18.0346 4.82601 18.0347 4.82604 18.0348C4.76231 17.7964 4.72786 17.5497 4.72467 17.3012C4.7244 17.28 4.72502 17.2589 4.72654 17.2378C4.77623 16.546 5.07671 15.8936 5.57508 15.4139Z" fill="#000000" />
<path fill-rule="evenodd" clip-rule="evenodd" d="M18.0411 16.1621C17.7207 16.1621 17.4137 16.289 17.1879 16.5139C16.9621 16.7388 16.836 17.0427 16.836 17.3589V17.3637L16.836 17.3637C16.8352 17.4754 16.8487 17.5871 16.8759 17.6956C16.9466 17.9445 17.0969 18.1648 17.3048 18.3224C17.5141 18.4811 17.7704 18.5673 18.0353 18.5673C18.3004 18.5673 18.5571 18.481 18.7663 18.3224C18.9761 18.1634 19.1273 17.9404 19.1972 17.6887C19.1992 17.6813 19.2014 17.6739 19.2037 17.6665C19.2332 17.5716 19.2475 17.4718 19.2458 17.3712L19.9957 17.3589H19.2457C19.2457 17.0427 19.1196 16.7388 18.8937 16.5139C18.6678 16.2889 18.3613 16.1621 18.0411 16.1621ZM20.7457 17.353C20.7441 16.6386 20.4583 15.9551 19.9523 15.4511C19.445 14.9459 18.7578 14.6621 18.0411 14.6621C17.3246 14.6621 16.6368 14.9457 16.1294 15.4511C15.6226 15.9559 15.3366 16.6408 15.336 17.3565C15.3346 17.5989 15.3645 17.8407 15.4247 18.0755L15.4285 18.0896C15.5865 18.6591 15.9277 19.1608 16.3986 19.5177C16.8699 19.8751 17.4447 20.0673 18.0353 20.0673C18.6256 20.0673 19.201 19.8752 19.6725 19.5177C20.1403 19.1631 20.4802 18.6656 20.6395 18.1006C20.7137 17.8579 20.7492 17.6055 20.7457 17.353Z" fill="#000000" />
<path fill-rule="evenodd" clip-rule="evenodd" d="M15.9055 6.09612C16.2606 6.08995 16.6103 6.18069 16.9176 6.35896C17.2273 6.53857 17.4824 6.80037 17.6536 7.11564L17.6574 7.12274L17.6574 7.12276L19.8207 11.2106C20.0144 11.5768 19.8747 12.0306 19.5086 12.2243C19.1425 12.4181 18.6886 12.2784 18.4949 11.9123L16.3339 7.82881C16.2946 7.75757 16.2361 7.69772 16.165 7.65651C16.0935 7.615 16.0123 7.5941 15.9294 7.59594L15.9128 7.59612H13.1976C13.1937 7.59612 13.1917 7.59682 13.191 7.59713C13.1901 7.5975 13.1877 7.59879 13.185 7.60144C13.1839 7.60251 13.1825 7.60445 13.1812 7.60741C13.1799 7.61058 13.1797 7.61275 13.1797 7.61405V11.5614C13.1797 11.9757 12.8439 12.3114 12.4297 12.3114C12.0155 12.3114 11.6797 11.9757 11.6797 11.5614V7.61405C11.6797 7.41364 11.7195 7.21657 11.7954 7.03339C11.8714 6.85 11.9828 6.68234 12.1243 6.54078C12.2643 6.4008 12.4315 6.28812 12.617 6.21131C12.8026 6.13442 12.9998 6.09612 13.1976 6.09612H15.9055Z" fill="#000000" />
<path fill-rule="evenodd" clip-rule="evenodd" d="M8.62891 17.3262C8.62891 16.912 8.96469 16.5762 9.37891 16.5762H16.0959C16.5101 16.5762 16.8459 16.912 16.8459 17.3262C16.8459 17.7404 16.5101 18.0762 16.0959 18.0762H9.37891C8.96469 18.0762 8.62891 17.7404 8.62891 17.3262Z" fill="#000000" />
<path fill-rule="evenodd" clip-rule="evenodd" d="M1.75 11.6152C1.75 11.201 2.08579 10.8652 2.5 10.8652H20.3367C21.1086 10.8652 21.8497 11.1708 22.3965 11.7176C22.943 12.2641 23.25 13.0061 23.25 13.7785V15.4549C23.25 16.2277 22.9428 16.9685 22.3965 17.5147C21.8503 18.0609 21.1096 18.3682 20.3367 18.3682H19.9797C19.5655 18.3682 19.2297 18.0324 19.2297 17.6182C19.2297 17.204 19.5655 16.8682 19.9797 16.8682H20.3367C20.7113 16.8682 21.0707 16.7193 21.3359 16.4541C21.6011 16.1889 21.75 15.8295 21.75 15.4549V13.7785C21.75 13.4035 21.6008 13.0432 21.3359 12.7783C21.0714 12.5138 20.7123 12.3652 20.3367 12.3652H2.5C2.08579 12.3652 1.75 12.0294 1.75 11.6152Z" fill="#000000" />
<path fill-rule="evenodd" clip-rule="evenodd" d="M4.67307 5.43164C4.29825 5.43164 3.9384 5.5807 3.67335 5.84575C3.40849 6.11061 3.25977 6.46985 3.25977 6.84494V11.6152C3.25977 12.0294 2.92398 12.3652 2.50977 12.3652C2.09555 12.3652 1.75977 12.0294 1.75977 11.6152V6.84494C1.75977 6.07255 2.06615 5.33163 2.61269 4.78509C3.15903 4.23875 3.9004 3.93164 4.67307 3.93164H15.7467C16.1948 3.93665 16.6222 4.11719 16.9384 4.43334C17.2545 4.7495 17.435 5.17693 17.44 5.62499L16.6901 5.63337H17.4401V6.85551C17.4401 7.26972 17.1043 7.60551 16.6901 7.60551C16.2759 7.60551 15.9401 7.26972 15.9401 6.85551V5.63908C15.9388 5.58495 15.9167 5.53301 15.8777 5.494C15.8387 5.455 15.7868 5.43293 15.7326 5.43164H4.67307Z" fill="#000000" />
<path fill-rule="evenodd" clip-rule="evenodd" d="M2.52148 10.9512C2.9357 10.9512 3.27148 11.287 3.27148 11.7012V15.4764C3.27148 15.851 3.4204 16.2104 3.68559 16.4756C3.95079 16.7408 4.31016 16.8897 4.68479 16.8897H5.43107C5.84528 16.8897 6.18107 17.2255 6.18107 17.6397C6.18107 18.0539 5.84528 18.3897 5.43107 18.3897H4.68479C3.91193 18.3897 3.17114 18.0824 2.62493 17.5362C2.07873 16.99 1.77148 16.2493 1.77148 15.4764V11.7012C1.77148 11.287 2.10727 10.9512 2.52148 10.9512Z" fill="#000000" />
<path fill-rule="evenodd" clip-rule="evenodd" d="M11.9082 13.6699C11.9082 13.2557 12.244 12.9199 12.6582 12.9199H13.729C14.1432 12.9199 14.479 13.2557 14.479 13.6699C14.479 14.0841 14.1432 14.4199 13.729 14.4199H12.6582C12.244 14.4199 11.9082 14.0841 11.9082 13.6699Z" fill="#000000" />
<path fill-rule="evenodd" clip-rule="evenodd" d="M8.19727 8.50012C8.19727 8.08591 8.53305 7.75012 8.94727 7.75012H12.3653C12.7795 7.75012 13.1153 8.08591 13.1153 8.50012C13.1153 8.91434 12.7795 9.25012 12.3653 9.25012H8.94727C8.53305 9.25012 8.19727 8.91434 8.19727 8.50012Z" fill="#000000" />
</svg>