<svg width="24px"  height="24px"  viewBox="0 0 25 24" fill="none" xmlns="http://www.w3.org/2000/svg">
<path fill-rule="evenodd" clip-rule="evenodd" d="M10.4712 16.6209C10.7125 16.9575 10.6353 17.4261 10.2986 17.6674C10.0776 17.8259 10.0425 17.9717 10.0425 18.0434C10.0425 18.1151 10.0776 18.2609 10.2986 18.4194C10.8364 18.805 11.1808 19.3726 11.1808 20.0145C11.1808 20.6564 10.8364 21.224 10.2986 21.6096C9.96196 21.8509 9.49342 21.7736 9.25208 21.437C9.01075 21.1004 9.08801 20.6318 9.42465 20.3905C9.64569 20.232 9.68078 20.0862 9.68078 20.0145C9.68078 19.9428 9.64569 19.797 9.42465 19.6385C8.88683 19.2529 8.54248 18.6853 8.54248 18.0434C8.54248 17.4015 8.88683 16.8339 9.42465 16.4483C9.7613 16.207 10.2298 16.2842 10.4712 16.6209Z" fill="#000000" />
<path fill-rule="evenodd" clip-rule="evenodd" d="M15.2473 16.6209C15.4886 16.9575 15.4114 17.4261 15.0747 17.6674C14.8537 17.8259 14.8186 17.9717 14.8186 18.0434C14.8186 18.1151 14.8537 18.2609 15.0747 18.4194C15.6126 18.805 15.9569 19.3726 15.9569 20.0145C15.9569 20.6564 15.6126 21.224 15.0747 21.6096C14.7381 21.8509 14.2695 21.7736 14.0282 21.437C13.7869 21.1004 13.8641 20.6318 14.2008 20.3905C14.4218 20.232 14.4569 20.0862 14.4569 20.0145C14.4569 19.9428 14.4218 19.797 14.2008 19.6385C13.6629 19.2529 13.3186 18.6853 13.3186 18.0434C13.3186 17.4015 13.6629 16.8339 14.2008 16.4483C14.5374 16.207 15.006 16.2842 15.2473 16.6209Z" fill="#000000" />
<path fill-rule="evenodd" clip-rule="evenodd" d="M14.4351 10.6335C14.4351 10.2193 14.7708 9.88354 15.1851 9.88354H16.6765C17.0907 9.88354 17.4265 10.2193 17.4265 10.6335C17.4265 11.0478 17.0907 11.3835 16.6765 11.3835H15.1851C14.7708 11.3835 14.4351 11.0478 14.4351 10.6335Z" fill="#000000" />
<path fill-rule="evenodd" clip-rule="evenodd" d="M7.06567 10.6335C7.06567 10.2193 7.40146 9.88354 7.81567 9.88354H9.30708C9.7213 9.88354 10.0571 10.2193 10.0571 10.6335C10.0571 11.0478 9.7213 11.3835 9.30708 11.3835H7.81567C7.40146 11.3835 7.06567 11.0478 7.06567 10.6335Z" fill="#000000" />
<path fill-rule="evenodd" clip-rule="evenodd" d="M4.04219 7.05344C4.10034 6.64332 4.47994 6.358 4.89005 6.41615C9.76683 7.10763 14.7168 7.10763 19.5936 6.41615C20.0037 6.358 20.3833 6.64332 20.4414 7.05344C20.4996 7.46355 20.2142 7.84315 19.8041 7.9013C14.7877 8.61258 9.69594 8.61258 4.67947 7.9013C4.26936 7.84315 3.98404 7.46355 4.04219 7.05344Z" fill="#000000" />
<path fill-rule="evenodd" clip-rule="evenodd" d="M8.7472 2.52475C11.0707 2.15842 13.4371 2.15842 15.7606 2.52475L15.7635 2.5252C16.6842 2.67403 17.4758 3.33623 17.7854 4.21567L18.6548 6.63036C18.6547 6.63016 18.6549 6.63057 18.6548 6.63036C18.6764 6.68981 18.7059 6.7471 18.7426 6.80011L19.7073 8.09464C20.199 8.76571 20.4644 9.57611 20.465 10.408V14.7464C20.465 15.6189 19.7577 16.3262 18.8852 16.3262H17.2298C16.3573 16.3262 15.65 15.6189 15.65 14.7464V14.4063C15.65 14.3622 15.6142 14.3265 15.5702 14.3265H8.92087C8.87679 14.3265 8.84106 14.3622 8.84106 14.4063V14.7464C8.84106 15.6189 8.13376 16.3262 7.26126 16.3262H5.61716C4.74272 16.3262 4.03462 15.6159 4.03736 14.7414L4.05089 10.4257C4.05089 10.4251 4.05089 10.4244 4.05089 10.4237C4.04972 9.60292 4.30847 8.80276 4.79012 8.13804L5.77962 6.77567C5.81419 6.7293 5.84228 6.67859 5.86308 6.62478L6.73034 4.21589C7.03818 3.33967 7.82435 2.67837 8.74083 2.52578L8.7472 2.52475ZM8.98441 4.00588C8.60847 4.06958 8.27097 4.35432 8.14505 4.7145L8.14276 4.72104L7.268 7.15067C7.19814 7.33549 7.10295 7.50956 6.98532 7.66813L6.00477 9.01817C6.00468 9.01829 6.00485 9.01805 6.00477 9.01817C5.70898 9.42655 5.54991 9.91853 5.55089 10.4228L5.5509 10.4266L5.53735 14.7461C5.53722 14.7903 5.57298 14.8262 5.61716 14.8262H7.26126C7.30533 14.8262 7.34106 14.7904 7.34106 14.7464V14.4063C7.34106 13.5338 8.04836 12.8265 8.92087 12.8265H15.5702C16.4427 12.8265 17.15 13.5338 17.15 14.4063V14.7464C17.15 14.7904 17.1857 14.8262 17.2298 14.8262H18.8852C18.9292 14.8262 18.965 14.7904 18.965 14.7464V10.4091C18.9646 9.89651 18.8013 9.39716 18.499 8.9835L17.5335 7.68788L17.5229 7.67323C17.4069 7.50945 17.313 7.33066 17.2442 7.14058L17.2439 7.13953L16.371 4.71508C16.2441 4.35323 15.9036 4.06783 15.5254 4.00619C13.3584 3.66471 11.1514 3.6646 8.98441 4.00588Z" fill="#000000" />
</svg>