<svg width="24px"  height="24px"  viewBox="0 0 25 24" fill="none" xmlns="http://www.w3.org/2000/svg">
<path fill-rule="evenodd" clip-rule="evenodd" d="M13.9035 3.96484C10.819 3.96484 8.22728 6.08255 7.50653 8.94503C7.40539 9.3467 6.99778 9.59034 6.5961 9.4892C6.19443 9.38806 5.95079 8.98045 6.05193 8.57877C6.93649 5.06573 10.1152 2.46484 13.9035 2.46484C18.3751 2.46484 21.9998 6.08968 21.9998 10.5621C21.9998 13.3547 20.4214 15.9983 18.7548 17.9304C18.0138 18.7895 17.2355 19.5312 16.5274 20.11C16.2067 20.3721 15.7342 20.3246 15.472 20.0039C15.2099 19.6832 15.2574 19.2107 15.5781 18.9486C16.2204 18.4236 16.936 17.7424 17.619 16.9506C19.1963 15.1221 20.4998 12.8217 20.4998 10.5621C20.4998 6.91798 17.5465 3.96484 13.9035 3.96484Z" fill="#000000" />
<path fill-rule="evenodd" clip-rule="evenodd" d="M11.1538 8.24005C12.4031 6.9907 14.428 6.99097 15.6777 8.24072C16.9269 9.48994 16.9269 11.5148 15.6777 12.764C15.3848 13.0569 14.91 13.0569 14.6171 12.764C14.3242 12.4711 14.3242 11.9963 14.6171 11.7034C15.2805 11.0399 15.2805 9.96481 14.6171 9.30138C13.9528 8.63715 12.8777 8.63742 12.2144 9.30071C11.9215 9.5936 11.4466 9.5936 11.1538 9.30071C10.8609 9.00782 10.8609 8.53294 11.1538 8.24005Z" fill="#000000" />
<path fill-rule="evenodd" clip-rule="evenodd" d="M10.0613 17.3042C10.0613 16.89 10.3971 16.5542 10.8113 16.5542L11.389 16.5542C11.8032 16.5542 12.139 16.89 12.139 17.3042C12.139 17.7184 11.8032 18.0542 11.389 18.0542L10.8113 18.0542C10.3971 18.0542 10.0613 17.7184 10.0613 17.3042Z" fill="#000000" />
<path fill-rule="evenodd" clip-rule="evenodd" d="M4.8728 17.3042C4.8728 16.89 5.20859 16.5542 5.6228 16.5542L6.20052 16.5542C6.61473 16.5542 6.95052 16.89 6.95052 17.3042C6.95052 17.7184 6.61473 18.0542 6.20052 18.0542L5.6228 18.0542C5.20859 18.0542 4.8728 17.7184 4.8728 17.3042Z" fill="#000000" />
<path fill-rule="evenodd" clip-rule="evenodd" d="M2.50752 14.7531C2.56567 14.343 2.94527 14.0576 3.35538 14.1158C6.76796 14.5997 10.2317 14.5997 13.6443 14.1158C14.0544 14.0576 14.434 14.343 14.4922 14.7531C14.5503 15.1632 14.265 15.5428 13.8549 15.6009C10.3026 16.1046 6.69707 16.1046 3.14481 15.6009C2.73469 15.5428 2.44937 15.1632 2.50752 14.7531Z" fill="#000000" />
<path fill-rule="evenodd" clip-rule="evenodd" d="M6.0051 11.3762C7.66374 11.1147 9.35305 11.1147 11.0117 11.3762L11.0145 11.3766C11.7428 11.4943 12.3666 12.016 12.6117 12.7114L13.2234 14.4103C13.2233 14.4102 13.2234 14.4105 13.2234 14.4103C13.2316 14.4329 13.2429 14.4552 13.257 14.4761L13.9346 15.3854C14.3087 15.8959 14.5105 16.5123 14.511 17.1451V20.1995C14.511 20.9363 13.9137 21.5337 13.1768 21.5337H11.764C11.0271 21.5337 10.4298 20.9363 10.4298 20.1995V20.1259H6.57774V20.1995C6.57774 20.9363 5.9804 21.5337 5.24356 21.5337H3.83613C3.09765 21.5337 2.49965 20.9338 2.50196 20.1953L2.51148 17.1582C2.51148 17.1575 2.51148 17.1568 2.51148 17.1561C2.5107 16.5316 2.70764 15.9228 3.07413 15.417L3.77252 14.4554C3.7844 14.4395 3.79412 14.4222 3.80141 14.4038L4.41066 12.7116C4.6544 12.0188 5.27392 11.4979 5.99873 11.3772L6.0051 11.3762ZM6.24262 12.8573C6.05813 12.889 5.88717 13.0334 5.82533 13.2103L5.82304 13.2169L5.20601 14.9306C5.14971 15.0796 5.07301 15.2199 4.9783 15.3478L4.28878 16.2971C4.2887 16.2972 4.28886 16.297 4.28878 16.2971C4.10813 16.5466 4.01088 16.8472 4.01148 17.1553L4.01149 17.1591L4.00247 20.0337H5.07774V19.9601C5.07774 19.2232 5.67507 18.6259 6.41192 18.6259H10.5956C11.3324 18.6259 11.9298 19.2232 11.9298 19.9601V20.0337H13.011V17.1462C13.0108 16.8327 12.911 16.5273 12.7262 16.2742L12.0472 15.363L12.0366 15.3483C11.9435 15.2169 11.8681 15.0733 11.8128 14.9205L11.8124 14.9195L11.1973 13.2109C11.135 13.033 10.9621 12.8881 10.7763 12.8576C9.27433 12.621 7.74463 12.6209 6.24262 12.8573Z" fill="#000000" />
</svg>