<svg width="24px"  height="24px"  viewBox="0 0 25 24" fill="none" xmlns="http://www.w3.org/2000/svg">
<path fill-rule="evenodd" clip-rule="evenodd" d="M13.5708 11.3312C13.5708 10.917 13.9066 10.5812 14.3208 10.5812H15.8932C16.3074 10.5812 16.6432 10.917 16.6432 11.3312C16.6432 11.7455 16.3074 12.0812 15.8932 12.0812H14.3208C13.9066 12.0812 13.5708 11.7455 13.5708 11.3312Z" fill="#000000" />
<path fill-rule="evenodd" clip-rule="evenodd" d="M5.80127 11.3312C5.80127 10.917 6.13706 10.5812 6.55127 10.5812H8.12366C8.53787 10.5812 8.87366 10.917 8.87366 11.3312C8.87366 11.7455 8.53787 12.0812 8.12366 12.0812H6.55127C6.13706 12.0812 5.80127 11.7455 5.80127 11.3312Z" fill="#000000" />
<path fill-rule="evenodd" clip-rule="evenodd" d="M2.61348 7.56247C2.67163 7.15236 3.05123 6.86704 3.46134 6.92519C8.60671 7.65475 13.8293 7.65475 18.9747 6.92519C19.3848 6.86704 19.7644 7.15236 19.8225 7.56247C19.8807 7.97258 19.5953 8.35218 19.1852 8.41033C13.9002 9.1597 8.53582 9.1597 3.25076 8.41033C2.84065 8.35218 2.55533 7.97258 2.61348 7.56247Z" fill="#000000" />
<path fill-rule="evenodd" clip-rule="evenodd" d="M7.53959 2.82237C9.98503 2.43681 12.4757 2.43681 14.9211 2.82237L14.924 2.82282C15.88 2.97735 16.7024 3.66528 17.0239 4.57842L17.9405 7.12454C17.9404 7.12434 17.9406 7.12474 17.9405 7.12454C17.9645 7.1908 17.9974 7.2545 18.0384 7.31343L19.0556 8.67854C19.5689 9.37908 19.8459 10.2251 19.8466 11.0934C19.8469 11.5076 19.5113 11.8437 19.0971 11.844C18.6829 11.8443 18.3469 11.5088 18.3466 11.0945C18.3461 10.5455 18.1713 10.0106 17.8473 9.56748L16.8293 8.20129L16.8187 8.18665C16.6985 8.01692 16.6012 7.83168 16.53 7.63476L16.5296 7.63371L15.6094 5.07794C15.4708 4.68232 15.0994 4.37114 14.6859 4.30381C12.3969 3.9431 10.0657 3.943 7.77679 4.3035C7.3657 4.37307 6.99765 4.68355 6.85997 5.07736L6.85768 5.0839L5.93564 7.64484C5.8633 7.83624 5.76471 8.0165 5.64288 8.18071L4.60894 9.60426C4.60887 9.60435 4.60901 9.60416 4.60894 9.60426C4.292 10.0418 4.12162 10.5688 4.12267 11.1091L4.12268 11.1129L4.1084 15.667C4.10818 15.7361 4.16415 15.7922 4.23326 15.7922H5.96663C6.03559 15.7922 6.09149 15.7363 6.09149 15.6674V15.3088C6.09149 14.4115 6.81896 13.684 7.71635 13.684H12.0237C12.4379 13.684 12.7737 14.0198 12.7737 14.434C12.7737 14.8482 12.4379 15.184 12.0237 15.184H7.71635C7.64739 15.184 7.59149 15.2399 7.59149 15.3088V15.6674C7.59149 16.5648 6.86401 17.2922 5.96663 17.2922H4.23326C3.33389 17.2922 2.60559 16.5617 2.60841 15.6623L2.62267 11.112C2.62267 11.1114 2.62267 11.1107 2.62267 11.11C2.62143 10.2532 2.89153 9.41799 3.39429 8.72413L4.4372 7.28822C4.47595 7.23625 4.50741 7.17939 4.53069 7.11904L5.44526 4.57875C5.76486 3.66889 6.5816 2.98184 7.53322 2.8234L7.53959 2.82237Z" fill="#000000" />
<path d="M17.4571 18.3265C17.3271 18.3265 17.1971 18.2965 17.0871 18.2465C16.9271 18.1765 16.7771 18.0565 16.6671 17.9065C16.5571 17.7365 16.4971 17.5565 16.4971 17.3565C16.4971 17.2565 16.5271 17.0865 16.5671 16.9965C16.6271 16.8665 16.6971 16.7665 16.7771 16.6765C16.8471 16.6065 17.0071 16.4965 17.0971 16.4665C17.2071 16.4165 17.3471 16.3965 17.4671 16.3965C17.6471 16.3965 17.8271 16.4465 17.9771 16.5465C18.1571 16.6665 18.2671 16.8165 18.3371 16.9765C18.4171 17.1765 18.4371 17.3565 18.3971 17.5365C18.3571 17.7465 18.2571 17.9165 18.1171 18.0565C17.9971 18.1765 17.8271 18.2665 17.6471 18.3065C17.5771 18.3165 17.5171 18.3265 17.4471 18.3265H17.4571Z" fill="#000000" />
<path d="M16.2868 21.4754C16.0868 21.4754 15.8767 21.4354 15.6867 21.3454C15.4067 21.2254 15.1367 21.0654 14.8967 20.8854C14.5167 20.6054 14.2868 20.1554 14.2868 19.6654V19.2054L13.8767 18.9554C13.4567 18.7154 13.1667 18.2854 13.1167 17.8054C13.0867 17.5154 13.0867 17.2154 13.1167 16.9254C13.1667 16.4354 13.4467 16.0054 13.8767 15.7654L14.2767 15.5454V15.0554C14.2767 14.5654 14.5067 14.1154 14.8867 13.8354C15.1367 13.6554 15.3968 13.5054 15.6768 13.3754C16.1168 13.1854 16.6268 13.2154 17.0368 13.4554L17.4268 13.6954L17.8567 13.4554C18.2667 13.2054 18.7767 13.1754 19.2167 13.3754C19.4867 13.4954 19.7567 13.6454 20.0067 13.8254C20.3967 14.1054 20.6267 14.5654 20.6167 15.0454V15.5054L20.6267 15.5154L20.6467 15.5454L21.0368 15.7654C21.4568 15.9954 21.7467 16.4254 21.7967 16.9154C21.8267 17.2054 21.8267 17.5054 21.7967 17.7954C21.7467 18.2754 21.4668 18.7154 21.0368 18.9454L20.6367 19.1654C20.6367 19.1654 20.6267 19.1854 20.6167 19.1954V19.6654C20.6167 20.1454 20.3967 20.6054 20.0167 20.8854C19.7667 21.0654 19.5067 21.2154 19.2267 21.3454C18.7867 21.5454 18.2767 21.5054 17.8567 21.2654L17.4667 21.0254L17.0368 21.2654C16.8068 21.4054 16.5367 21.4754 16.2667 21.4754H16.2868ZM15.5867 16.2954C15.4467 16.5454 15.2467 16.7454 15.0067 16.8654L14.6067 17.0854C14.5967 17.2754 14.5967 17.4654 14.6067 17.6554L14.9967 17.8754C15.4757 18.1348 15.8077 18.6997 15.7868 19.2454V19.7054C15.9268 19.8054 16.1068 19.9054 16.2868 19.9854L16.6567 19.7454C17.1248 19.4605 17.7679 19.46 18.2367 19.7454L18.6267 19.9754C18.7867 19.8954 18.9667 19.7954 19.1267 19.6754L19.1067 19.2354C19.1067 18.6581 19.3843 18.1494 19.8867 17.8654L20.2868 17.6454C20.2968 17.4554 20.2968 17.2654 20.2868 17.0754L19.8967 16.8554C19.4488 16.6022 19.1167 16.0057 19.1167 15.4854V15.0254C18.9767 14.9254 18.7967 14.8254 18.6167 14.7454L18.2367 14.9854C17.7692 15.27 17.135 15.2704 16.6667 14.9854L16.2667 14.7454C16.1067 14.8254 15.9267 14.9254 15.7667 15.0454L15.7868 15.4854C15.7868 15.7203 15.6934 16.082 15.5867 16.2954Z" fill="#000000" />
</svg>