<svg width="24px"  height="24px"  viewBox="0 0 25 24" fill="none" xmlns="http://www.w3.org/2000/svg">
<path d="M11.7711 17.59C11.4611 17.59 11.1711 17.39 11.0611 17.08L8.49112 9.55002C8.36112 9.16002 8.57112 8.73 8.96112 8.6C9.35112 8.47 9.78113 8.68 9.91113 9.07L12.4811 16.6C12.6111 16.99 12.4011 17.42 12.0111 17.55C11.9311 17.58 11.8511 17.59 11.7711 17.59Z" fill="#000000" />
<path d="M6.81116 16.4502C6.19116 16.4502 5.60115 16.1002 5.30115 15.5102L2.65115 8.20019C2.27115 7.45019 2.59116 6.4302 3.41116 6.0202C8.79116 3.2602 15.7112 3.2602 21.1012 6.0202C21.9112 6.4402 22.2411 7.45017 21.8311 8.28017L19.2512 15.4302C18.8112 16.3302 17.8412 16.6802 17.0112 16.3002C16.5812 16.1002 15.4912 15.9202 14.7612 15.7902C14.4812 15.7402 14.2311 15.7002 14.0511 15.6602C13.6411 15.5802 13.3811 15.1802 13.4611 14.7802C13.5411 14.3802 13.9412 14.1102 14.3412 14.1902C14.5112 14.2302 14.7512 14.2602 15.0112 14.3102C15.9112 14.4602 17.0212 14.6502 17.6312 14.9302C17.7112 14.9702 17.8212 14.9302 17.8712 14.8302L20.4512 7.6802C20.5312 7.5102 20.5012 7.38017 20.4212 7.34017C15.4612 4.79017 9.06116 4.79017 4.10116 7.34017C4.02116 7.38017 3.98116 7.50018 4.03116 7.60018L6.68115 14.9102C6.68115 14.9102 6.80117 14.9702 6.89117 14.9202C7.62117 14.5902 8.95117 14.3002 10.9512 14.0602C11.3612 14.0102 11.7412 14.3002 11.7912 14.7102C11.8412 15.1202 11.5512 15.5002 11.1412 15.5502C8.87117 15.8302 7.92115 16.1102 7.52115 16.2902C7.29115 16.3902 7.06116 16.4402 6.82117 16.4402L6.81116 16.4502Z" fill="#000000" />
<path d="M12.2612 20.0498C11.1612 20.0498 10.2612 19.1498 10.2612 18.0498C10.2612 16.9498 11.1612 16.0498 12.2612 16.0498C13.3612 16.0498 14.2612 16.9498 14.2612 18.0498C14.2612 19.1498 13.3612 20.0498 12.2612 20.0498ZM12.2612 17.5498C11.9812 17.5498 11.7612 17.7698 11.7612 18.0498C11.7612 18.3298 11.9812 18.5498 12.2612 18.5498C12.5412 18.5498 12.7612 18.3298 12.7612 18.0498C12.7612 17.7698 12.5412 17.5498 12.2612 17.5498Z" fill="#000000" />
<path d="M13.5112 12.3593C13.1012 12.3593 12.7612 12.0193 12.7612 11.6093V7.98926C12.7612 7.57926 13.1012 7.23926 13.5112 7.23926H15.4512C15.8612 7.23926 16.2012 7.57926 16.2012 7.98926C16.2012 8.39926 15.8612 8.73926 15.4512 8.73926H14.2612V11.6093C14.2612 12.0193 13.9212 12.3593 13.5112 12.3593Z" fill="#000000" />
<path d="M15.4415 10.9697H13.5015C13.0915 10.9697 12.7515 10.6297 12.7515 10.2197C12.7515 9.80973 13.0915 9.46973 13.5015 9.46973H15.4415C15.8515 9.46973 16.1915 9.80973 16.1915 10.2197C16.1915 10.6297 15.8515 10.9697 15.4415 10.9697Z" fill="#000000" />
</svg>