<svg width="24px"  height="24px"  viewBox="0 0 25 24" fill="none" xmlns="http://www.w3.org/2000/svg">
<path d="M12.7412 17.59C12.6612 17.59 12.5812 17.58 12.5012 17.55C12.1112 17.42 11.9012 16.99 12.0312 16.6L14.6012 9.07C14.7312 8.68 15.1612 8.47 15.5512 8.6C15.9412 8.73 16.1512 9.16002 16.0212 9.55002L13.4512 17.08C13.3412 17.39 13.0512 17.59 12.7412 17.59Z" fill="#000000" />
<path d="M6.8114 16.4502C6.1914 16.4502 5.60141 16.1002 5.30141 15.5102L2.6514 8.20019C2.2714 7.45019 2.60141 6.4302 3.41141 6.0202C8.80141 3.2602 15.7214 3.2602 21.1014 6.0202C21.9214 6.4402 22.2414 7.45018 21.8214 8.29018L19.2414 15.4302C18.8014 16.3302 17.8314 16.6802 17.0014 16.3002C16.6014 16.1202 15.6514 15.8402 13.3814 15.5602C12.9714 15.5102 12.6814 15.1402 12.7314 14.7202C12.7814 14.3002 13.1614 14.0202 13.5714 14.0702C15.5714 14.3202 16.9014 14.6002 17.6314 14.9402C17.7214 14.9802 17.8214 14.9402 17.8714 14.8502L20.4514 7.70019C20.5314 7.52019 20.5014 7.40019 20.4214 7.36019C15.4614 4.81019 9.06141 4.81019 4.10141 7.36019C4.02141 7.40019 3.9814 7.53017 4.0314 7.62017L6.68141 14.9302C6.68141 14.9302 6.8014 14.9802 6.8914 14.9502C7.4914 14.6702 8.6114 14.4802 9.5114 14.3302C9.7714 14.2902 10.0114 14.2502 10.1814 14.2102C10.5914 14.1302 10.9814 14.3902 11.0614 14.8002C11.1414 15.2102 10.8814 15.6002 10.4714 15.6802C10.2814 15.7202 10.0414 15.7602 9.7614 15.8102C9.0414 15.9302 7.94141 16.1202 7.52141 16.3202C7.29141 16.4202 7.06141 16.4702 6.82141 16.4702L6.8114 16.4502Z" fill="#000000" />
<path d="M12.2612 20.0498C11.1612 20.0498 10.2612 19.1498 10.2612 18.0498C10.2612 16.9498 11.1612 16.0498 12.2612 16.0498C13.3612 16.0498 14.2612 16.9498 14.2612 18.0498C14.2612 19.1498 13.3612 20.0498 12.2612 20.0498ZM12.2612 17.5498C11.9812 17.5498 11.7612 17.7698 11.7612 18.0498C11.7612 18.3298 11.9812 18.5498 12.2612 18.5498C12.5412 18.5498 12.7612 18.3298 12.7612 18.0498C12.7612 17.7698 12.5412 17.5498 12.2612 17.5498Z" fill="#000000" />
<path d="M11.0113 12.6292H9.07129C8.66129 12.6292 8.32129 12.2892 8.32129 11.8792V7.98926C8.32129 7.57926 8.66129 7.23926 9.07129 7.23926H11.0113C11.4213 7.23926 11.7613 7.57926 11.7613 7.98926C11.7613 8.39926 11.4213 8.73926 11.0113 8.73926H9.82129V11.1292H11.0113C11.4213 11.1292 11.7613 11.4692 11.7613 11.8792C11.7613 12.2892 11.4213 12.6292 11.0113 12.6292Z" fill="#000000" />
<path d="M11.0113 10.6904H9.07129C8.66129 10.6904 8.32129 10.3504 8.32129 9.94043C8.32129 9.53043 8.66129 9.19043 9.07129 9.19043H11.0113C11.4213 9.19043 11.7613 9.53043 11.7613 9.94043C11.7613 10.3504 11.4213 10.6904 11.0113 10.6904Z" fill="#000000" />
</svg>