<svg width="24px"  height="24px"  viewBox="0 0 25 24" fill="none" xmlns="http://www.w3.org/2000/svg">
<path d="M12.7411 17.59C12.6611 17.59 12.5812 17.58 12.5012 17.55C12.1112 17.42 11.9012 16.99 12.0312 16.6L14.6012 9.07C14.7312 8.68 15.1611 8.47 15.5511 8.6C15.9411 8.73 16.1511 9.16002 16.0211 9.55002L13.4512 17.08C13.3412 17.39 13.0511 17.59 12.7411 17.59Z" fill="#000000" />
<path d="M6.8114 16.4502C6.1914 16.4502 5.60139 16.1002 5.30139 15.5102L2.6514 8.20019C2.2714 7.45019 2.60141 6.4302 3.41141 6.0202C8.79141 3.2602 15.7214 3.2602 21.1014 6.0202C21.9214 6.4402 22.2414 7.45017 21.8214 8.28017L19.2414 15.4302C18.8014 16.3302 17.8314 16.6802 17.0014 16.3002C16.6014 16.1202 15.6514 15.8402 13.3814 15.5602C12.9714 15.5102 12.6814 15.1402 12.7314 14.7202C12.7814 14.3102 13.1514 14.0202 13.5714 14.0702C15.5714 14.3202 16.9014 14.6002 17.6314 14.9402C17.7214 14.9802 17.8214 14.9402 17.8714 14.8402L20.4514 7.69018C20.5314 7.51018 20.5014 7.39018 20.4214 7.35018C15.4614 4.80018 9.06141 4.80018 4.10141 7.35018C4.02141 7.39018 3.9814 7.52019 4.0314 7.61019L6.68139 14.9202C6.68139 14.9202 6.80142 14.9702 6.89142 14.9402C7.49142 14.6602 8.61141 14.4702 9.51141 14.3202C9.77141 14.2802 10.0114 14.2402 10.1814 14.2002C10.5914 14.1202 10.9814 14.3802 11.0614 14.7902C11.1414 15.2002 10.8814 15.5902 10.4714 15.6702C10.2814 15.7102 10.0414 15.7502 9.76141 15.8002C9.04141 15.9202 7.94139 16.1102 7.52139 16.3102C7.29139 16.4102 7.06141 16.4602 6.82141 16.4602L6.8114 16.4502Z" fill="#000000" />
<path d="M12.2612 20.0498C11.1612 20.0498 10.2612 19.1498 10.2612 18.0498C10.2612 16.9498 11.1612 16.0498 12.2612 16.0498C13.3612 16.0498 14.2612 16.9498 14.2612 18.0498C14.2612 19.1498 13.3612 20.0498 12.2612 20.0498ZM12.2612 17.5498C11.9812 17.5498 11.7612 17.7698 11.7612 18.0498C11.7612 18.3298 11.9812 18.5498 12.2612 18.5498C12.5412 18.5498 12.7612 18.3298 12.7612 18.0498C12.7612 17.7698 12.5412 17.5498 12.2612 17.5498Z" fill="#000000" />
<path d="M8.19142 12.5008C8.09142 12.5008 7.99143 12.4808 7.89143 12.4408C7.51143 12.2708 7.34142 11.8308 7.50142 11.4508L9.32143 7.29083C9.44143 7.02083 9.71142 6.84082 10.0014 6.84082C10.2914 6.84082 10.5614 7.01082 10.6814 7.28082L12.5514 11.4408C12.7214 11.8208 12.5514 12.2608 12.1714 12.4308C11.7914 12.6008 11.3514 12.4308 11.1814 12.0508L10.0014 9.43085L8.86144 12.0408C8.74144 12.3208 8.46143 12.4908 8.17143 12.4908L8.19142 12.5008Z" fill="#000000" />
<path d="M11.4012 9.93066H8.68115V11.4307H11.4012V9.93066Z" fill="#000000" />
</svg>