<svg width="24px"  height="24px"  viewBox="0 0 25 25" fill="none" xmlns="http://www.w3.org/2000/svg">
<path fill-rule="evenodd" clip-rule="evenodd" d="M13.6405 17.7713C14.0283 17.9168 14.2248 18.3491 14.0794 18.7369L13.0794 21.404C12.934 21.7918 12.5017 21.9883 12.1138 21.8429C11.726 21.6975 11.5295 21.2652 11.6749 20.8773L12.6749 18.2103C12.8203 17.8224 13.2526 17.6259 13.6405 17.7713ZM16.3596 17.7713C16.7474 17.6259 17.1797 17.8224 17.3251 18.2103L18.3251 20.8773C18.4705 21.2652 18.274 21.6975 17.8862 21.8429C17.4983 21.9883 17.066 21.7918 16.9206 21.404L15.9206 18.7369C15.7752 18.3491 15.9717 17.9168 16.3596 17.7713Z" fill="#000000" />
<path fill-rule="evenodd" clip-rule="evenodd" d="M10.6171 9.36857C10.7593 9.18787 10.9765 9.0824 11.2064 9.0824H13.1932C13.5281 9.0824 13.8223 9.30439 13.9143 9.62638L14.1687 10.5166C14.6919 10.5672 15.3217 10.7476 15.9991 11.0562C17.0658 11.5421 18.3509 12.39 19.7218 13.7608C20.4412 14.4802 20.8779 15.1968 21.0196 15.9072C21.1664 16.6429 20.9805 17.2943 20.6058 17.809C20.2448 18.3051 19.7265 18.6537 19.2082 18.8769C18.6876 19.1012 18.116 19.2214 17.5944 19.2214C17.5783 19.2214 17.5622 19.2209 17.5461 19.2199C17.0941 19.1907 15.4542 19.1462 12.6828 19.2211C10.6785 19.2753 9.4722 18.4393 8.69636 17.4237C8.32597 16.9388 8.06156 16.4247 7.85394 16.0006C7.81745 15.926 7.78344 15.856 7.75148 15.7902C7.62683 15.5337 7.53343 15.3414 7.44573 15.1942L3.14338 12.9366C2.92629 12.8227 2.77859 12.6098 2.74781 12.3666L2.50594 10.4551C2.47618 10.2199 2.55935 9.9845 2.73024 9.82023C2.90113 9.65595 3.13962 9.58213 3.37343 9.62114L9.60066 10.6601L10.6171 9.36857ZM11.5706 10.5824L10.5047 11.9368C10.3353 12.152 10.0621 12.2578 9.79193 12.2127L4.12058 11.2665L4.18683 11.7901L8.3138 13.9558C8.41578 14.0093 8.50406 14.0856 8.57181 14.1787C8.77376 14.4563 8.95547 14.8328 9.11693 15.1673C9.14566 15.2268 9.17375 15.285 9.2012 15.3411C9.40168 15.7507 9.61288 16.1525 9.88835 16.5131C10.4042 17.1884 11.1707 17.7615 12.6423 17.7217C15.3857 17.6475 17.0675 17.6881 17.6159 17.7213C17.9169 17.7179 18.278 17.6444 18.6148 17.4993C18.962 17.3498 19.2328 17.1465 19.393 16.9263C19.5398 16.7247 19.6074 16.4954 19.5486 16.2007C19.4848 15.8807 19.2568 15.4171 18.6611 14.8214C17.4016 13.5619 16.2617 12.8241 15.3772 12.4212C14.4541 12.0007 13.8953 11.9816 13.7618 12.01C13.3762 12.092 12.9929 11.8615 12.8846 11.4824L12.6274 10.5824H11.5706Z" fill="#000000" />
<path fill-rule="evenodd" clip-rule="evenodd" d="M21.4492 18.575C21.8485 18.6851 22.0829 19.0981 21.9728 19.4974C21.5829 20.9113 20.2969 21.8907 18.8302 21.8907H9.16504C8.75083 21.8907 8.41504 21.5549 8.41504 21.1407C8.41504 20.7264 8.75083 20.3907 9.16504 20.3907H18.8302C19.622 20.3907 20.3163 19.8619 20.5268 19.0987C20.6369 18.6993 21.0498 18.4649 21.4492 18.575Z" fill="#000000" />
<path fill-rule="evenodd" clip-rule="evenodd" d="M12.5947 10.3015C12.1805 10.3015 11.8447 9.96573 11.8447 9.55151V6.67961C11.8447 6.26539 12.1805 5.92961 12.5947 5.92961C13.0089 5.92961 13.3447 6.26539 13.3447 6.67961V9.55151C13.3447 9.96573 13.0089 10.3015 12.5947 10.3015Z" fill="#000000" />
<path fill-rule="evenodd" clip-rule="evenodd" d="M13.3797 10.5318C13.7764 10.4129 14.1945 10.6381 14.3134 11.0349L15.2767 14.2499C15.4552 14.8458 16.0036 15.254 16.6257 15.254H20.2548C20.669 15.254 21.0048 15.5898 21.0048 16.004C21.0048 16.4182 20.669 16.754 20.2548 16.754H16.6257C15.341 16.754 14.2085 15.9111 13.8398 14.6805L12.8765 11.4655C12.7576 11.0687 12.9829 10.6506 13.3797 10.5318Z" fill="#000000" />
<path fill-rule="evenodd" clip-rule="evenodd" d="M6.0131 6.17546C6.32028 6.29808 6.75418 6.42182 7.30969 6.53384C8.63565 6.80121 10.5011 6.97201 12.5847 6.97201C12.9989 6.97201 13.3347 7.3078 13.3347 7.72201C13.3347 8.13623 12.9989 8.47201 12.5847 8.47201C10.4325 8.47201 8.46309 8.29661 7.01319 8.00424C6.29441 7.8593 5.66391 7.678 5.19501 7.45445C4.96237 7.34354 4.72944 7.20366 4.54444 7.02136C4.35792 6.83755 4.16504 6.55269 4.16504 6.17546C4.16504 5.79823 4.35792 5.51337 4.54444 5.32956C4.72944 5.14726 4.96237 5.00738 5.19501 4.89647C5.66391 4.67292 6.29441 4.49162 7.01319 4.34668C8.46309 4.05431 10.4325 3.87891 12.5847 3.87891C14.7369 3.87891 16.7063 4.05431 18.1562 4.34668C18.875 4.49162 19.5055 4.67292 19.9744 4.89647C20.2071 5.00738 20.44 5.14726 20.625 5.32956C20.8115 5.51337 21.0044 5.79823 21.0044 6.17546C21.0044 6.73997 20.5874 7.09086 20.3118 7.26843C19.9984 7.47034 19.5895 7.6313 19.1427 7.76367C18.2383 8.03163 16.9987 8.23367 15.5833 8.35204C15.1705 8.38655 14.8079 8.07992 14.7734 7.66715C14.7388 7.25437 15.0455 6.89177 15.4583 6.85725C16.8218 6.74323 17.949 6.55289 18.7166 6.32546C18.8892 6.27433 19.0351 6.22375 19.1563 6.17544C18.8491 6.05283 18.4152 5.92909 17.8597 5.81708C16.5338 5.54971 14.6684 5.37891 12.5847 5.37891C10.5011 5.37891 8.63565 5.54971 7.30969 5.81708C6.75418 5.9291 6.32028 6.05284 6.0131 6.17546ZM19.5796 5.94613C19.5801 5.94618 19.5772 5.94973 19.5693 5.95665C19.5752 5.94955 19.5791 5.94609 19.5796 5.94613Z" fill="#000000" />
</svg>