<svg width="24px"  height="24px"  viewBox="0 0 25 25" fill="none" xmlns="http://www.w3.org/2000/svg">
<path fill-rule="evenodd" clip-rule="evenodd" d="M13.1699 16.7764C13.5841 16.7764 13.9199 17.1122 13.9199 17.5264V20.3492C13.9199 20.7634 13.5841 21.0992 13.1699 21.0992C12.7557 21.0992 12.4199 20.7634 12.4199 20.3492V17.5264C12.4199 17.1122 12.7557 16.7764 13.1699 16.7764ZM17.9469 16.7764C18.3611 16.7764 18.6969 17.1122 18.6969 17.5264V20.3492C18.6969 20.7634 18.3611 21.0992 17.9469 21.0992C17.5327 21.0992 17.1969 20.7634 17.1969 20.3492V17.5264C17.1969 17.1122 17.5327 16.7764 17.9469 16.7764Z" fill="#000000" />
<path fill-rule="evenodd" clip-rule="evenodd" d="M11.626 9.25688C12.5117 8.79967 13.5245 8.68835 14.6299 8.68835C15.991 8.68835 17.3067 9.28352 18.3951 10.1025C19.4884 10.925 20.4163 12.0199 21.0034 13.1308C21.5734 14.2093 21.9011 15.4601 21.52 16.5155C21.0973 17.6859 19.9523 18.2742 18.3631 18.2742C18.347 18.2742 18.3309 18.2737 18.3148 18.2726C17.8938 18.2455 16.3607 18.2038 13.7673 18.2739C11.7516 18.3284 10.3023 17.4705 9.56194 16.1182C8.84392 14.8068 8.85969 13.1529 9.47464 11.6928C9.47897 11.6825 9.48353 11.6723 9.48831 11.6622C10.0359 10.5087 10.717 9.7261 11.626 9.25688ZM10.8507 12.2902C10.3851 13.4069 10.4213 14.5643 10.8776 15.3979C11.3137 16.1943 12.1987 16.8158 13.7268 16.7745C16.2944 16.7051 17.8699 16.743 18.3857 16.7741C19.611 16.769 19.9851 16.3496 20.1091 16.006C20.2755 15.5453 20.1756 14.7747 19.6772 13.8317C19.196 12.9212 18.415 11.9946 17.4933 11.3011C16.5667 10.6039 15.5613 10.1884 14.6299 10.1884C13.5971 10.1884 12.8765 10.2994 12.3141 10.5898C11.7778 10.8666 11.2983 11.353 10.8507 12.2902Z" fill="#000000" />
<path fill-rule="evenodd" clip-rule="evenodd" d="M5.82812 13.7366C5.82812 13.3224 6.16391 12.9866 6.57812 12.9866H9.76807C10.1823 12.9866 10.5181 13.3224 10.5181 13.7366C10.5181 14.1508 10.1823 14.4866 9.76807 14.4866H6.57812C6.16391 14.4866 5.82812 14.1508 5.82812 13.7366Z" fill="#000000" />
<path fill-rule="evenodd" clip-rule="evenodd" d="M21.4494 17.9482C21.8487 18.0583 22.0831 18.4713 21.973 18.8706C21.61 20.1872 20.4124 21.0992 19.0467 21.0992H10.2451C9.8309 21.0992 9.49512 20.7634 9.49512 20.3492C9.49512 19.935 9.8309 19.5992 10.2451 19.5992H19.0467C19.7375 19.5992 20.3433 19.1378 20.527 18.4718C20.6371 18.0725 21.0501 17.8381 21.4494 17.9482Z" fill="#000000" />
<path fill-rule="evenodd" clip-rule="evenodd" d="M8.26611 6.60669C8.26611 6.19248 8.6019 5.85669 9.01611 5.85669H21.2498C21.6641 5.85669 21.9998 6.19248 21.9998 6.60669C21.9998 7.0209 21.6641 7.35669 21.2498 7.35669H9.01611C8.6019 7.35669 8.26611 7.0209 8.26611 6.60669Z" fill="#000000" />
<path fill-rule="evenodd" clip-rule="evenodd" d="M15.1328 4.67029C15.547 4.67029 15.8828 5.00607 15.8828 5.42029L15.8828 6.59501C15.8828 7.00923 15.547 7.34501 15.1328 7.34501C14.7186 7.34501 14.3828 7.00923 14.3828 6.59501L14.3828 5.42029C14.3828 5.00607 14.7186 4.67029 15.1328 4.67029Z" fill="#000000" />
<path fill-rule="evenodd" clip-rule="evenodd" d="M4.91723 12.8193C4.41066 12.8193 4 13.23 4 13.7366C4 14.2431 4.41066 14.6538 4.91723 14.6538C5.42381 14.6538 5.83446 14.2431 5.83446 13.7366C5.83446 13.23 5.42381 12.8193 4.91723 12.8193ZM2.5 13.7366C2.5 12.4016 3.58223 11.3193 4.91723 11.3193C6.25223 11.3193 7.33446 12.4016 7.33446 13.7366C7.33446 15.0716 6.25223 16.1538 4.91723 16.1538C3.58223 16.1538 2.5 15.0716 2.5 13.7366Z" fill="#000000" />
<path fill-rule="evenodd" clip-rule="evenodd" d="M7.27233 11.3824C6.41897 10.529 5.21737 10.2349 4.12197 10.5032C3.71966 10.6018 3.31361 10.3556 3.21503 9.95327C3.11646 9.55096 3.36269 9.14491 3.76501 9.04634C5.34849 8.65836 7.09363 9.08237 8.33299 10.3217C8.62588 10.6146 8.62588 11.0895 8.33299 11.3824C8.04009 11.6753 7.56522 11.6753 7.27233 11.3824ZM2.84964 17.3332C2.98757 16.9427 3.416 16.7379 3.80658 16.8758C4.50642 17.1229 5.27339 17.129 5.97665 16.894C6.36951 16.7627 6.79441 16.9748 6.92569 17.3677C7.05698 17.7605 6.84493 18.1854 6.45207 18.3167C5.43235 18.6575 4.32228 18.6487 3.30711 18.2902C2.91653 18.1523 2.71172 17.7238 2.84964 17.3332Z" fill="#000000" />
<path fill-rule="evenodd" clip-rule="evenodd" d="M14.9712 8.94604C15.3854 8.94604 15.7212 9.28183 15.7212 9.69604V12.6604C15.7212 13.351 16.281 13.9108 16.9715 13.9108H20.7162C21.1304 13.9108 21.4662 14.2465 21.4662 14.6608C21.4662 15.075 21.1304 15.4108 20.7162 15.4108H16.9715C15.4525 15.4108 14.2212 14.1794 14.2212 12.6604V9.69604C14.2212 9.28183 14.557 8.94604 14.9712 8.94604Z" fill="#000000" />
</svg>