<svg width="24px"  height="24px"  viewBox="0 0 25 25" fill="none" xmlns="http://www.w3.org/2000/svg">
<path fill-rule="evenodd" clip-rule="evenodd" d="M13.4777 16.3818C13.8767 16.493 14.11 16.9066 13.9988 17.3057L13.1426 20.3781C13.0314 20.7772 12.6178 21.0105 12.2188 20.8993C11.8198 20.7881 11.5864 20.3745 11.6976 19.9755L12.5539 16.903C12.6651 16.504 13.0787 16.2707 13.4777 16.3818ZM15.8541 16.3818C16.2531 16.2707 16.6667 16.504 16.7779 16.903L17.6342 19.9755C17.7454 20.3745 17.512 20.7881 17.113 20.8993C16.714 21.0105 16.3004 20.7772 16.1892 20.3781L15.333 17.3057C15.2218 16.9066 15.4551 16.493 15.8541 16.3818Z" fill="#000000" />
<path fill-rule="evenodd" clip-rule="evenodd" d="M10.9545 9.10689C11.8309 8.66578 12.8324 8.55847 13.9261 8.55847C17.4239 8.55847 20.0158 10.7011 20.9583 12.9195C21.4272 14.0232 21.5303 15.261 20.9617 16.2663C20.3721 17.3086 19.1978 17.8671 17.6236 17.8671C17.6079 17.8671 17.5922 17.8666 17.5765 17.8656C17.159 17.8394 15.6402 17.7992 13.0715 17.8668C11.0823 17.9193 9.64336 17.0949 8.90429 15.7787C8.18644 14.5004 8.20323 12.8887 8.81629 11.4693C8.82078 11.4589 8.82551 11.4486 8.83048 11.4384C9.37566 10.3186 10.0535 9.56041 10.9545 9.10689ZM10.1867 12.0795C9.72989 13.1485 9.76697 14.2514 10.2122 15.0443C10.6383 15.8032 11.5113 16.4074 13.032 16.3674C15.5755 16.3003 17.1357 16.337 17.6456 16.3671C18.8615 16.3621 19.4189 15.947 19.6561 15.5277C19.9156 15.0689 19.9382 14.3546 19.5777 13.5061C18.8615 11.8201 16.7992 10.0585 13.9261 10.0585C12.9022 10.0585 12.1869 10.1659 11.6289 10.4467C11.0987 10.7136 10.6271 11.1807 10.1867 12.0795Z" fill="#000000" />
<path fill-rule="evenodd" clip-rule="evenodd" d="M13.6299 7.05957C13.6299 6.64536 13.9657 6.30957 14.3799 6.30957H21.25C21.6642 6.30957 22 6.64536 22 7.05957C22 7.47378 21.6642 7.80957 21.25 7.80957H14.3799C13.9657 7.80957 13.6299 7.47378 13.6299 7.05957Z" fill="#000000" />
<path fill-rule="evenodd" clip-rule="evenodd" d="M14.3799 4.84277C14.7941 4.84277 15.1299 5.17856 15.1299 5.59277L15.1299 9.26767C15.1299 9.68188 14.7941 10.0177 14.3799 10.0177C13.9657 10.0177 13.6299 9.68188 13.6299 9.26767L13.6299 5.59277C13.6299 5.17856 13.9657 4.84277 14.3799 4.84277Z" fill="#000000" />
<path fill-rule="evenodd" clip-rule="evenodd" d="M12.7173 7.05957C12.7173 6.64536 12.3815 6.30957 11.9673 6.30957H7.06005C6.64583 6.30957 6.31005 6.64536 6.31005 7.05957C6.31005 7.47378 6.64583 7.80957 7.06005 7.80957H11.9673C12.3815 7.80957 12.7173 7.47378 12.7173 7.05957Z" fill="#000000" />
<path fill-rule="evenodd" clip-rule="evenodd" d="M20.8617 17.8761C21.261 17.9862 21.4955 18.3991 21.3854 18.7984C21.0386 20.0558 19.8949 20.9268 18.5906 20.9268H10.3149C9.90073 20.9268 9.56494 20.591 9.56494 20.1768C9.56494 19.7626 9.90073 19.4268 10.3149 19.4268H18.5906C19.2201 19.4268 19.772 19.0065 19.9393 18.3997C20.0494 18.0004 20.4624 17.7659 20.8617 17.8761Z" fill="#000000" />
<path fill-rule="evenodd" clip-rule="evenodd" d="M2.96779 10.537C3.35151 10.381 3.78902 10.5656 3.945 10.9494L4.59097 12.5386C4.69543 12.7956 4.99187 13.0148 5.37848 13.0148H8.97956C9.39377 13.0148 9.72956 13.3506 9.72956 13.7648C9.72956 14.179 9.39377 14.5148 8.97956 14.5148H5.37848C4.44389 14.5148 3.55825 13.9814 3.20138 13.1034L2.5554 11.5142C2.39943 11.1305 2.58406 10.6929 2.96779 10.537Z" fill="#000000" />
<path fill-rule="evenodd" clip-rule="evenodd" d="M14.3921 8.57874C14.8063 8.57874 15.1421 8.91452 15.1421 9.32874V10.7135C15.1421 11.4328 15.7253 12.016 16.4447 12.016H19.8865C20.3007 12.016 20.6365 12.3518 20.6365 12.766C20.6365 13.1802 20.3007 13.516 19.8865 13.516H16.4447C14.8968 13.516 13.6421 12.2613 13.6421 10.7135V9.32874C13.6421 8.91452 13.9779 8.57874 14.3921 8.57874Z" fill="#000000" />
</svg>