<svg width="24px"  height="24px"  viewBox="0 0 25 25" fill="none" xmlns="http://www.w3.org/2000/svg">
<path fill-rule="evenodd" clip-rule="evenodd" d="M13.3838 16.5662C13.798 16.5662 14.1338 16.9019 14.1338 17.3162V20.0644C14.1338 20.4786 13.798 20.8144 13.3838 20.8144C12.9696 20.8144 12.6338 20.4786 12.6338 20.0644V17.3162C12.6338 16.9019 12.9696 16.5662 13.3838 16.5662ZM18.0345 16.5662C18.4487 16.5662 18.7845 16.9019 18.7845 17.3162V20.0644C18.7845 20.4786 18.4487 20.8144 18.0345 20.8144C17.6202 20.8144 17.2845 20.4786 17.2845 20.0644V17.3162C17.2845 16.9019 17.6202 16.5662 18.0345 16.5662Z" fill="#000000" />
<path fill-rule="evenodd" clip-rule="evenodd" d="M11.1496 9.5717C11.7767 9.13767 12.5212 8.90515 13.2838 8.90515H14.4739C15.7746 8.90515 17.029 9.47364 18.0642 10.2526C19.1043 11.0351 19.9872 12.0767 20.5461 13.1342C21.0878 14.1593 21.4043 15.3568 21.0376 16.3722C20.6293 17.5026 19.5246 18.0642 18.0101 18.0642C17.994 18.0642 17.9779 18.0637 17.9618 18.0626C17.5648 18.037 16.114 17.9976 13.658 18.0639C11.8509 18.1128 10.7565 17.3566 10.0539 16.437C9.72016 16.0001 9.48273 15.5379 9.29827 15.161C9.26542 15.0939 9.23496 15.0313 9.2065 14.9727C9.05884 14.6689 8.96469 14.4752 8.86691 14.3408C8.82558 14.284 8.66052 14.1358 8.31985 13.9187C8.00801 13.72 7.62776 13.5117 7.25066 13.3193C6.87581 13.128 6.51546 12.9581 6.24805 12.8357C6.11465 12.7747 6.0051 12.7258 5.92933 12.6923C5.89146 12.6756 5.86207 12.6628 5.84241 12.6542L5.82039 12.6447L5.81402 12.6419C5.814 12.6419 5.81405 12.6419 5.81402 12.6419M5.76177 11.2881C5.61409 11.3653 5.49106 11.4919 5.42026 11.657C5.257 12.0376 5.43339 12.4786 5.81402 12.6419M7.68669 11.8596C7.76731 11.8996 7.84948 11.9409 7.93245 11.9832C8.32968 12.1859 8.75708 12.4186 9.12595 12.6537C9.46599 12.8704 9.85469 13.1488 10.0799 13.4584C10.2639 13.7114 10.4291 14.0538 10.5719 14.3497C10.5972 14.402 10.6217 14.4529 10.6455 14.5016C10.8229 14.8639 11.0071 15.2137 11.2459 15.5264C11.6885 16.1058 12.3431 16.5989 13.6175 16.5645C16.0478 16.4988 17.541 16.5345 18.0326 16.5642C19.1831 16.5591 19.5171 16.1664 19.6268 15.8627C19.7787 15.442 19.6901 14.7248 19.2199 13.8351C18.7669 12.9779 18.031 12.1047 17.1624 11.4512C16.289 10.794 15.3448 10.4052 14.4739 10.4052H13.2838C12.8262 10.4052 12.3795 10.5447 12.0033 10.8051L10.6724 11.7263C10.5469 11.8131 10.398 11.8596 10.2455 11.8596H7.68669ZM5.76177 11.2881C5.74781 11.2309 5.7404 11.1711 5.7404 11.1096C5.7404 10.6954 6.07619 10.3596 6.4904 10.3596H10.0113L11.1496 9.5717" fill="#000000" />
<path fill-rule="evenodd" clip-rule="evenodd" d="M21.4494 17.7078C21.8487 17.818 22.0832 18.2309 21.9731 18.6302C21.6172 19.9206 20.4435 20.8145 19.105 20.8145H10.5361C10.1219 20.8145 9.78613 20.4787 9.78613 20.0645C9.78613 19.6502 10.1219 19.3145 10.5361 19.3145H19.105C19.7686 19.3145 20.3506 18.8713 20.527 18.2315C20.6371 17.8322 21.0501 17.5977 21.4494 17.7078Z" fill="#000000" />
<path fill-rule="evenodd" clip-rule="evenodd" d="M6.86694 6.86011C6.86694 6.44589 7.20273 6.11011 7.61694 6.11011H19.5272C19.9414 6.11011 20.2772 6.44589 20.2772 6.86011C20.2772 7.27432 19.9414 7.61011 19.5272 7.61011H7.61694C7.20273 7.61011 6.86694 7.27432 6.86694 6.86011Z" fill="#000000" />
<path fill-rule="evenodd" clip-rule="evenodd" d="M13.572 4.95508C13.9862 4.95508 14.322 5.29086 14.322 5.70508L14.322 6.86003C14.322 7.27424 13.9862 7.61003 13.572 7.61003C13.1578 7.61003 12.822 7.27424 12.822 6.86003L12.822 5.70508C12.822 5.29086 13.1578 4.95508 13.572 4.95508Z" fill="#000000" />
<path fill-rule="evenodd" clip-rule="evenodd" d="M4.87315 10.0389C4.39092 10.0389 4 10.4299 4 10.9121C4 11.3943 4.39092 11.7852 4.87315 11.7852C5.35537 11.7852 5.74629 11.3943 5.74629 10.9121C5.74629 10.4299 5.35537 10.0389 4.87315 10.0389ZM2.5 10.9121C2.5 9.60143 3.56249 8.53894 4.87315 8.53894C6.1838 8.53894 7.24629 9.60143 7.24629 10.9121C7.24629 12.2227 6.1838 13.2852 4.87315 13.2852C3.56249 13.2852 2.5 12.2227 2.5 10.9121Z" fill="#000000" />
<path fill-rule="evenodd" clip-rule="evenodd" d="M14.4634 9.03809C14.8776 9.03809 15.2134 9.37387 15.2134 9.78809V12.8905C15.2134 13.5809 15.773 14.1405 16.4634 14.1405H20.3678C20.782 14.1405 21.1178 14.4763 21.1178 14.8905C21.1178 15.3048 20.782 15.6405 20.3678 15.6405H16.4634C14.9446 15.6405 13.7134 14.4093 13.7134 12.8905V9.78809C13.7134 9.37387 14.0492 9.03809 14.4634 9.03809Z" fill="#000000" />
</svg>