<svg width="24px"  height="24px"  viewBox="0 0 25 25" fill="none" xmlns="http://www.w3.org/2000/svg">
<path fill-rule="evenodd" clip-rule="evenodd" d="M13.6074 16.5181C14.0016 16.6453 14.2181 17.0679 14.0909 17.4622L13.0909 20.562C12.9638 20.9562 12.5411 21.1727 12.1469 21.0455C11.7527 20.9183 11.5362 20.4957 11.6634 20.1015L12.6634 17.0016C12.7905 16.6074 13.2132 16.3909 13.6074 16.5181ZM16.3926 16.5181C16.7868 16.3909 17.2095 16.6074 17.3366 17.0016L18.3366 20.1015C18.4638 20.4957 18.2473 20.9183 17.8531 21.0455C17.4589 21.1727 17.0363 20.9562 16.9091 20.562L15.9091 17.4622C15.7819 17.0679 15.9984 16.6453 16.3926 16.5181Z" fill="#000000" />
<path fill-rule="evenodd" clip-rule="evenodd" d="M10.6172 8.12675C10.7594 7.94605 10.9766 7.84058 11.2066 7.84058H13.1933C13.5282 7.84058 13.8225 8.06257 13.9145 8.38456L14.1688 9.27483C14.692 9.32539 15.3218 9.5058 15.9991 9.81435C17.0659 10.3003 18.351 11.1482 19.7218 12.519C20.4412 13.2384 20.8779 13.955 21.0197 14.6654C21.1664 15.4011 20.9805 16.0524 20.6059 16.5671C20.2448 17.0633 19.7265 17.4119 19.2083 17.6351C18.6877 17.8594 18.1161 17.9796 17.5945 17.9796C17.5784 17.9796 17.5623 17.9791 17.5462 17.978C17.0941 17.9489 15.4543 17.9044 12.6829 17.9793C10.6787 18.0335 9.47235 17.1974 8.69653 16.1819C8.32614 15.697 8.06174 15.1829 7.85412 14.7588C7.81763 14.6842 7.78362 14.6142 7.75166 14.5484C7.58537 14.2061 7.4747 13.9783 7.35898 13.8193C7.359 13.8193 7.35903 13.8193 7.35898 13.8193C7.35807 13.8181 7.34432 13.8006 7.30803 13.7671C7.27146 13.7334 7.22114 13.692 7.15506 13.6432C7.02206 13.5449 6.84734 13.4332 6.63738 13.3118C6.21792 13.0692 5.70056 12.8124 5.1879 12.5748C4.67774 12.3383 4.1843 12.1264 3.81755 11.9733C3.63447 11.8968 3.48367 11.8353 3.37901 11.7931C3.3267 11.772 3.28595 11.7557 3.25852 11.7448L3.22758 11.7325L3.21828 11.7289C2.96304 11.6286 2.78248 11.3968 2.74805 11.1248L2.50618 9.21324C2.47643 8.97807 2.5596 8.74268 2.73048 8.57841C2.90137 8.41413 3.13986 8.34031 3.37367 8.37932L9.60082 9.41823L10.6172 8.12675ZM4.18098 10.5002C4.24636 10.5271 4.31818 10.5568 4.39549 10.5891C4.77354 10.7469 5.28569 10.9668 5.8187 11.2139C6.34922 11.4598 6.91262 11.7382 7.38829 12.0133C7.6259 12.1507 7.85233 12.2934 8.04619 12.4366C8.22962 12.572 8.42905 12.7404 8.572 12.9369C8.77394 13.2145 8.95565 13.591 9.11711 13.9255C9.14584 13.985 9.17393 14.0432 9.20138 14.0993C9.40186 14.5089 9.61305 14.9107 9.88852 15.2713C10.4044 15.9466 11.1708 16.5196 12.6424 16.4799C15.3858 16.4057 17.0676 16.4463 17.6159 16.4795C17.917 16.4761 18.278 16.4026 18.6148 16.2575C18.962 16.1079 19.2328 15.9046 19.3931 15.6845C19.5398 15.4829 19.6074 15.2535 19.5486 14.9588C19.4848 14.6389 19.2569 14.1753 18.6611 13.5796C17.4016 12.3201 16.2618 11.5823 15.3773 11.1794C14.4542 10.7589 13.8954 10.7398 13.7619 10.7682C13.3763 10.8502 12.993 10.6197 12.8847 10.2406L12.6276 9.34058H11.5707L10.5049 10.6949C10.3355 10.9102 10.0622 11.0159 9.79209 10.9709L4.12082 10.0247L4.18098 10.5002Z" fill="#000000" />
<path fill-rule="evenodd" clip-rule="evenodd" d="M21.4494 17.7661C21.8487 17.8762 22.0831 18.2892 21.973 18.6885C21.5831 20.1023 20.2971 21.0817 18.8305 21.0817H9.16528C8.75107 21.0817 8.41528 20.7459 8.41528 20.3317C8.41528 19.9175 8.75107 19.5817 9.16528 19.5817H18.8305C19.6222 19.5817 20.3165 19.053 20.527 18.2897C20.6371 17.8904 21.0501 17.656 21.4494 17.7661Z" fill="#000000" />
<path fill-rule="evenodd" clip-rule="evenodd" d="M5.12256 5.43787C5.12256 5.02365 5.45835 4.68787 5.87256 4.68787H9.83124C10.2455 4.68787 10.5812 5.02365 10.5812 5.43787C10.5812 5.85208 10.2455 6.18787 9.83124 6.18787H5.87256C5.45835 6.18787 5.12256 5.85208 5.12256 5.43787ZM14.598 5.43787C14.598 5.02365 14.9338 4.68787 15.348 4.68787H19.3067C19.7209 4.68787 20.0567 5.02365 20.0567 5.43787C20.0567 5.85208 19.7209 6.18787 19.3067 6.18787H15.348C14.9338 6.18787 14.598 5.85208 14.598 5.43787Z" fill="#000000" />
<path fill-rule="evenodd" clip-rule="evenodd" d="M13.345 5.43787C13.345 5.85208 13.0092 6.18787 12.595 6.18787H12.585C12.1708 6.18787 11.835 5.85208 11.835 5.43787C11.835 5.02365 12.1708 4.68787 12.585 4.68787H12.595C13.0092 4.68787 13.345 5.02365 13.345 5.43787Z" fill="#000000" />
<path fill-rule="evenodd" clip-rule="evenodd" d="M13.3794 9.28993C13.7762 9.17104 14.1942 9.39632 14.3131 9.79311L15.2764 13.0081C15.455 13.604 16.0034 14.0122 16.6254 14.0122H20.2546C20.6688 14.0122 21.0046 14.3479 21.0046 14.7622C21.0046 15.1764 20.6688 15.5122 20.2546 15.5122H16.6254C15.3408 15.5122 14.2083 14.6693 13.8396 13.4386L12.8762 10.2236C12.7573 9.82686 12.9826 9.40882 13.3794 9.28993Z" fill="#000000" />
</svg>