<svg width="24px"  height="24px"  viewBox="0 0 25 24" fill="none" xmlns="http://www.w3.org/2000/svg">
<path fill-rule="evenodd" clip-rule="evenodd" d="M9.46693 5.23244C8.61714 5.23244 7.8881 5.83444 7.72493 6.66714L7.362 8.52751C7.14655 9.6252 7.98805 10.6436 9.10403 10.6436H15.898C17.0154 10.6436 17.8539 9.62397 17.6401 8.528L17.2771 6.66714C17.1137 5.83359 16.383 5.23244 15.5341 5.23244H9.46693ZM9.19693 6.9556C9.2225 6.8251 9.33601 6.73244 9.46693 6.73244H15.5341C15.6659 6.73244 15.7797 6.82595 15.8051 6.9556L16.1679 8.81521C16.2012 8.98598 16.0707 9.1436 15.898 9.1436H9.10403C8.93012 9.1436 8.80074 8.98513 8.83394 8.8163L9.19693 6.9556Z" fill="#000000" />
<path d="M8.64092 12.1694C8.11841 12.1694 7.69531 12.5931 7.69531 13.1151C7.69531 13.6371 8.11841 14.0607 8.64092 14.0607C9.16283 14.0607 9.58664 13.6377 9.58664 13.1151C9.58664 12.5925 9.16283 12.1694 8.64092 12.1694Z" fill="#000000" />
<path d="M16.3601 12.1694C15.8376 12.1694 15.4145 12.5931 15.4145 13.1151C15.4145 13.6371 15.8376 14.0607 16.3601 14.0607C16.882 14.0607 17.3058 13.6377 17.3058 13.1151C17.3058 12.5925 16.882 12.1694 16.3601 12.1694Z" fill="#000000" />
<path fill-rule="evenodd" clip-rule="evenodd" d="M9.01231 2.25C6.83358 2.25 4.98967 3.85882 4.69469 6.01765L3.79666 12.5889C3.49835 14.7742 4.86755 16.7597 6.86499 17.3553L5.68901 19.0721C5.65758 19.1095 5.62973 19.1501 5.60601 19.1932L4.65873 20.5762C4.42465 20.9179 4.51192 21.3847 4.85365 21.6188C5.19538 21.8528 5.66216 21.7656 5.89624 21.4238L6.66333 20.304H18.3403L19.1074 21.4238C19.3415 21.7656 19.8083 21.8528 20.15 21.6188C20.4918 21.3847 20.579 20.9179 20.3449 20.5762L19.3836 19.1727C19.3666 19.144 19.3478 19.1165 19.3273 19.0905L18.1382 17.3546C20.1348 16.7581 21.502 14.7732 21.2038 12.5888L20.3058 6.01765C20.0108 3.85882 18.1669 2.25 15.9882 2.25H9.01231ZM7.69081 18.804L8.55913 17.5364H16.4445L17.3129 18.804H7.69081ZM6.18088 6.22073C6.37431 4.80504 7.58343 3.75 9.01231 3.75H15.9882C17.4171 3.75 18.6262 4.80506 18.8196 6.22075L19.7176 12.7919C19.9519 14.5083 18.6186 16.0364 16.8862 16.0364H8.1143C6.38271 16.0364 5.04866 14.5081 5.28288 12.7918L6.18088 6.22073Z" fill="#000000" />
</svg>