<svg width="24px"  height="24px"  viewBox="0 0 25 24" fill="none" xmlns="http://www.w3.org/2000/svg">
<path d="M8.64092 12.1694C8.11841 12.1694 7.69531 12.5931 7.69531 13.1151C7.69531 13.6371 8.11841 14.0607 8.64092 14.0607C9.16283 14.0607 9.58664 13.6377 9.58664 13.1151C9.58664 12.5925 9.16283 12.1694 8.64092 12.1694Z" fill="#000000" />
<path d="M16.3601 12.1694C15.8376 12.1694 15.4145 12.5931 15.4145 13.1151C15.4145 13.6371 15.8376 14.0607 16.3601 14.0607C16.882 14.0607 17.3058 13.6377 17.3058 13.1151C17.3058 12.5925 16.882 12.1694 16.3601 12.1694Z" fill="#000000" />
<path fill-rule="evenodd" clip-rule="evenodd" d="M9.01231 2.25C6.83358 2.25 4.98967 3.85882 4.69469 6.01765L3.79666 12.5889C3.49843 14.7737 4.86683 16.7587 6.86341 17.3548L5.6774 19.0863C5.65447 19.115 5.6336 19.1454 5.61502 19.1773L4.65683 20.5762C4.42275 20.9179 4.51002 21.3847 4.85175 21.6188C5.19348 21.8528 5.66026 21.7656 5.89434 21.4238L6.66143 20.304H18.3384L19.1055 21.4238C19.3396 21.7656 19.8064 21.8528 20.1481 21.6188C20.4899 21.3847 20.5771 20.9179 20.343 20.5762L19.3934 19.1898C19.3707 19.1491 19.3444 19.1107 19.3148 19.0751L18.1366 17.3551C20.134 16.7592 21.5021 14.7738 21.2038 12.5888L20.3058 6.01765C20.0108 3.85882 18.1669 2.25 15.9882 2.25H9.01231ZM7.68891 18.804L8.55723 17.5364H16.4426L17.311 18.804H7.68891ZM6.18088 6.22073C6.37431 4.80504 7.58343 3.75 9.01231 3.75H15.9882C17.4171 3.75 18.6262 4.80506 18.8196 6.22075L19.1143 8.37734H5.88615L6.18088 6.22073ZM5.68116 9.87734H19.3193L19.7176 12.7919C19.9519 14.5083 18.6186 16.0364 16.8862 16.0364H8.1143C6.38271 16.0364 5.04866 14.5081 5.28288 12.7918L5.68116 9.87734Z" fill="#000000" />
</svg>