<svg width="24px"  height="24px"  viewBox="0 0 25 24" fill="none" xmlns="http://www.w3.org/2000/svg">
<path fill-rule="evenodd" clip-rule="evenodd" d="M4.69444 6.01765C4.98943 3.85882 6.83334 2.25 9.01207 2.25H15.9879C18.1667 2.25 20.0106 3.85882 20.3056 6.01765C20.3056 6.01764 20.3056 6.01765 20.3056 6.01765L21.2036 12.5888C21.5018 14.7738 20.1338 16.7592 18.1364 17.3551L19.3146 19.0751C19.3442 19.1107 19.3705 19.1491 19.3931 19.1898L20.3428 20.5762C20.5769 20.9179 20.4896 21.3847 20.1479 21.6188C19.8061 21.8528 19.3394 21.7656 19.1053 21.4238L18.3382 20.304H6.66119L5.8941 21.4238C5.66002 21.7656 5.19323 21.8528 4.8515 21.6188C4.50977 21.3847 4.42251 20.9179 4.65659 20.5762L5.61478 19.1773C5.63336 19.1454 5.65422 19.115 5.67715 19.0863L6.86317 17.3548C4.86659 16.7587 3.49818 14.7737 3.79642 12.5889L4.69444 6.01765C4.69444 6.01764 4.69444 6.01765 4.69444 6.01765ZM8.55698 17.5364L7.68867 18.804H17.3107L16.4424 17.5364H8.55698ZM9.01207 3.75C7.58319 3.75 6.37407 4.80504 6.18063 6.22073L5.28263 12.7918C5.28263 12.7918 5.28264 12.7917 5.28263 12.7918C5.04841 14.5081 6.38247 16.0364 8.11405 16.0364H16.886C18.6184 16.0364 19.9516 14.5083 19.7174 12.7919C19.7174 12.7919 19.7174 12.7919 19.7174 12.7919L18.8194 6.22075C18.6259 4.80506 17.4168 3.75 15.9879 3.75H9.01207ZM9.46669 6.73244C9.33577 6.73244 9.22226 6.8251 9.19669 6.9556L8.83369 8.8163C8.8005 8.98513 8.92988 9.1436 9.10379 9.1436H15.8977C16.0704 9.1436 16.2009 8.98598 16.1676 8.81521L15.8048 6.9556C15.7794 6.82595 15.6656 6.73244 15.5339 6.73244H9.46669ZM7.72468 6.66714C7.88786 5.83444 8.6169 5.23244 9.46669 5.23244H15.5339C16.3828 5.23244 17.1135 5.83359 17.2768 6.66714L17.6399 8.528C17.8537 9.62397 17.0151 10.6436 15.8977 10.6436H9.10379C7.9878 10.6436 7.14631 9.6252 7.36175 8.52751C7.36171 8.52772 7.36179 8.52731 7.36175 8.52751L7.72468 6.66714Z" fill="#000000" />
<path fill-rule="evenodd" clip-rule="evenodd" d="M11.4797 13.0352C11.4797 12.4829 11.9275 12.0352 12.4797 12.0352H12.5206C13.0729 12.0352 13.5206 12.4829 13.5206 13.0352C13.5206 13.5874 13.0729 14.0352 12.5206 14.0352H12.4797C11.9275 14.0352 11.4797 13.5874 11.4797 13.0352Z" fill="#000000" />
</svg>