<svg width="24px"  height="24px"  viewBox="0 0 25 24" fill="none" xmlns="http://www.w3.org/2000/svg">
<path d="M8.7249 12.1694C8.20239 12.1694 7.7793 12.5931 7.7793 13.1151C7.7793 13.6371 8.20239 14.0607 8.7249 14.0607C9.24682 14.0607 9.67063 13.6377 9.67063 13.1151C9.67063 12.5925 9.24681 12.1694 8.7249 12.1694Z" fill="#000000" />
<path d="M16.4441 12.1694C15.9215 12.1694 15.4985 12.5931 15.4985 13.1151C15.4985 13.6371 15.9215 14.0607 16.4441 14.0607C16.966 14.0607 17.3898 13.6377 17.3898 13.1151C17.3898 12.5925 16.966 12.1694 16.4441 12.1694Z" fill="#000000" />
<path fill-rule="evenodd" clip-rule="evenodd" d="M9.01231 2.25C8.75787 2.25 8.50799 2.27194 8.26462 2.31414C8.23427 2.31782 8.20383 2.3234 8.17346 2.33095C6.3757 2.68234 4.9509 4.14254 4.69468 6.01767L3.79666 12.5889C3.49843 14.7737 4.86683 16.7587 6.86341 17.3548L5.6774 19.0863C5.65447 19.115 5.6336 19.1454 5.61502 19.1773L4.65683 20.5762C4.42275 20.9179 4.51002 21.3847 4.85175 21.6188C5.19348 21.8528 5.66026 21.7656 5.89434 21.4238L6.66143 20.304H18.3403L19.1074 21.4238C19.3415 21.7656 19.8083 21.8528 20.15 21.6188C20.4918 21.3847 20.579 20.9179 20.3449 20.5762L19.3836 19.1727C19.3666 19.144 19.3478 19.1165 19.3273 19.0905L18.1382 17.3546C20.1348 16.7581 21.502 14.7732 21.2038 12.5888L20.3058 6.01765C20.0503 4.14792 18.633 2.69076 16.8426 2.33401C16.8047 2.32394 16.7667 2.31697 16.7288 2.31293C16.4877 2.27152 16.2402 2.25 15.9882 2.25H9.01231ZM6.18088 6.22073C6.31814 5.21617 6.96682 4.3932 7.84253 3.99993L9.35484 9.3007C9.35898 9.3152 9.36355 9.32958 9.36856 9.3438C9.65819 10.1672 10.4373 10.7352 11.3282 10.7352H13.6759C14.5668 10.7352 15.3459 10.1672 15.6356 9.3438C15.6406 9.32958 15.6451 9.3152 15.6493 9.3007L17.1612 4.00137C18.0353 4.39521 18.6825 5.21741 18.8196 6.22075L19.7176 12.7919C19.9519 14.5083 18.6186 16.0364 16.8862 16.0364H8.1143C6.38271 16.0364 5.04866 14.5081 5.28288 12.7918L6.18088 6.22073ZM9.33108 3.75H15.673L14.2143 8.86301C14.1278 9.08679 13.9135 9.23517 13.6759 9.23517H11.3282C11.0907 9.23517 10.8763 9.08679 10.7898 8.86301L9.33108 3.75ZM7.68891 18.804L8.55723 17.5364H16.4445L17.3129 18.804H7.68891Z" fill="#000000" />
</svg>