<svg width="24px"  height="24px"  viewBox="0 0 25 24" fill="none" xmlns="http://www.w3.org/2000/svg">
<path fill-rule="evenodd" clip-rule="evenodd" d="M16.7721 6.61236C16.5103 5.7688 15.7097 5.19871 14.8173 5.2426L13.6566 5.30557C13.243 5.32802 12.9259 5.6815 12.9484 6.09511C12.9708 6.50871 13.3243 6.82581 13.7379 6.80337L14.8924 6.74072C15.0926 6.73153 15.277 6.85964 15.3387 7.05447L15.6588 8.12026C15.0216 7.94818 14.2132 7.85438 13.2398 7.97373L13.238 7.97395C12.2303 8.09991 11.0355 8.64636 10.1573 9.10798C9.70369 9.34639 9.30702 9.57724 9.0237 9.74845C8.98505 9.7718 8.94846 9.79408 8.91407 9.81514L8.63947 9.49935C8.25454 9.0574 7.70694 8.81104 7.13191 8.81104H4.45954C4.14003 8.81104 3.82549 8.87578 3.54777 9.0455C3.26507 9.21826 3.08182 9.46233 2.96707 9.71556C2.76034 10.1718 2.75 10.7296 2.75 11.1483V11.2918C2.75 11.9414 3.15882 12.4949 3.73341 12.7091C3.22547 13.3461 2.92188 14.1532 2.92188 15.0312C2.92188 17.0897 4.59063 18.7585 6.64914 18.7585C8.4507 18.7585 9.95374 17.4803 10.3009 15.7814H11.8868C12.9063 15.7814 13.8472 15.2818 14.4173 14.4395L14.4183 14.4381L15.3507 13.0721C14.9983 13.6413 14.7949 14.3125 14.7949 15.0312C14.7949 17.0897 16.4637 18.7585 18.5222 18.7585C20.5807 18.7585 22.2495 17.0897 22.2495 15.0312C22.2495 12.9727 20.5807 11.304 18.5222 11.304C18.4088 11.304 18.2965 11.309 18.1857 11.3189L16.7741 6.61892L16.7721 6.61236ZM15.6901 9.70953C15.7278 9.72478 15.764 9.74015 15.7986 9.75552L15.7912 9.76634L14.7415 11.304H10.2088L9.91314 10.9641C10.1658 10.8136 10.4916 10.6269 10.8552 10.4357C11.7253 9.97834 12.7092 9.55196 13.4232 9.46247C14.4573 9.33585 15.2103 9.51579 15.6901 9.70953ZM6.67582 11.304L6.64914 11.304L6.62247 11.304H4.26225C4.25499 11.304 4.25 11.2991 4.25 11.2918V11.1483C4.25 10.9357 4.25516 10.7604 4.27167 10.6131C4.28845 10.4634 4.31344 10.3786 4.33335 10.3347C4.33548 10.33 4.33735 10.3261 4.33893 10.3231C4.35665 10.3182 4.39389 10.311 4.45954 10.311H7.13191C7.27423 10.311 7.40851 10.37 7.50783 10.4839L8.22098 11.304H6.67582ZM6.66976 12.804C7.89035 12.8151 8.87641 13.808 8.87641 15.0312C8.87641 16.2613 7.87923 17.2585 6.64914 17.2585C5.41906 17.2585 4.42188 16.2613 4.42188 15.0312C4.42188 13.808 5.40793 12.8151 6.62852 12.804H6.66976ZM9.63811 12.804H13.7175L13.1775 13.5952L13.1756 13.598C12.8847 14.0282 12.4092 14.2814 11.8868 14.2814H10.301C10.1896 13.7362 9.9592 13.2343 9.63811 12.804ZM15.5387 12.7968L16.5975 11.2457L16.7495 11.7517C16.2741 12.0092 15.861 12.367 15.5387 12.7968ZM18.5222 12.804C17.2921 12.804 16.2949 13.8011 16.2949 15.0312C16.2949 16.2613 17.2921 17.2585 18.5222 17.2585C19.7523 17.2585 20.7495 16.2613 20.7495 15.0312C20.7495 13.8011 19.7523 12.804 18.5222 12.804Z" fill="#000000" />
<path d="M19.1326 7.26602C19.029 6.86497 18.62 6.6238 18.2189 6.72737C17.8178 6.83094 17.5767 7.24002 17.6803 7.64108L18.1017 9.2732C18.2053 9.67425 18.6144 9.91541 19.0154 9.81184C19.4165 9.70827 19.6577 9.29919 19.5541 8.89814L19.1326 7.26602Z" fill="#000000" />
</svg>