<svg width="24px"  height="24px"  viewBox="0 0 25 24" fill="none" xmlns="http://www.w3.org/2000/svg">
<path fill-rule="evenodd" clip-rule="evenodd" d="M17.8313 4.31626C16.6619 3.98079 15.5072 4.96492 15.7024 6.18508L17.8313 4.31626ZM15.7024 6.18508C13.7267 5.58421 12.2836 5.80271 11.3029 6.43704C10.7552 6.79123 10.391 7.2533 10.1807 7.69791C10.1673 7.72633 10.1544 7.75481 10.1421 7.78333L6.11622 6.20887C6.10639 6.20503 6.09648 6.20139 6.08649 6.19796C5.38198 5.9562 4.60333 6.09111 4.02169 6.55404L3.30552 7.12425C2.55173 7.7257 2.56723 8.87961 3.34286 9.45739C3.34269 9.45726 3.34304 9.45752 3.34286 9.45739L5.89019 11.3593C4.22689 11.8093 3.00286 13.3295 3.00286 15.1349C3.00286 17.2945 4.75424 19.0459 6.91388 19.0459C8.81695 19.0459 10.403 17.686 10.753 15.8851H14.239C14.5887 17.6851 16.1685 19.0489 18.0739 19.0489C20.2355 19.0489 21.9908 17.2936 21.9908 15.132C21.9908 13.7794 21.2986 12.5867 20.2508 11.8854L21.0575 11.2498C21.7657 10.9764 22.1441 10.3747 22.2301 9.69909C22.3154 9.02822 22.1226 8.28883 21.787 7.6135C21.1119 6.25468 19.7098 4.85503 17.8313 4.31626M18.9683 12.8957L17.85 13.7767L18.6689 14.8367C18.9221 15.1645 18.8617 15.6355 18.5339 15.8887C18.2061 16.142 17.7351 16.0815 17.4819 15.7537L16.6717 14.705L15.6912 15.4775C15.858 16.6495 16.8613 17.5489 18.0739 17.5489C19.4071 17.5489 20.4908 16.4651 20.4908 15.132C20.4908 14.1238 19.8618 13.2519 18.9683 12.8957ZM14.654 14.3851L20.228 9.99372C20.3015 9.93582 20.3852 9.89219 20.4747 9.86506C20.6299 9.81808 20.7134 9.73487 20.7421 9.50978C20.7771 9.2343 20.7021 8.80108 20.4437 8.28093C19.9309 7.24883 18.8403 6.16607 17.4178 5.75815C17.2748 5.71711 17.1633 5.8422 17.185 5.95633C17.3519 6.83246 17.5319 8.10155 17.3492 9.0198C17.2684 9.42605 16.8735 9.68985 16.4673 9.60902C16.061 9.52818 15.7972 9.13332 15.8781 8.72707C15.9258 8.48725 15.9357 8.18232 15.9195 7.84561C13.827 7.0422 12.6825 7.33116 12.1175 7.69657C11.8212 7.88819 11.6394 8.12627 11.541 8.33038L14.4503 9.46816C14.836 9.61903 15.0265 10.054 14.8756 10.4398C14.7247 10.8256 14.2897 11.016 13.9039 10.8651L5.58735 7.61267C5.3709 7.54295 5.13367 7.58617 4.95591 7.7276C4.95588 7.72762 4.95594 7.72757 4.95591 7.7276L4.26745 8.27574L9.27765 12.0165C9.28344 12.0208 9.28915 12.0252 9.29481 12.0297C9.32399 12.0528 9.35329 12.0768 9.38265 12.1016C9.78028 12.4257 10.113 12.8263 10.3583 13.2811C10.3845 13.3273 10.4097 13.3739 10.4338 13.4209C10.5508 13.6493 10.6588 13.9211 10.7158 14.2139C10.7295 14.2705 10.7419 14.3276 10.7531 14.3851H14.654ZM8.42615 13.2573C8.64122 13.4417 8.87431 13.7114 9.0408 13.9987C9.10656 14.1216 9.162 14.2507 9.20594 14.3851H7.29205C6.87784 14.3851 6.54205 14.7209 6.54205 15.1351C6.54205 15.5493 6.87784 15.8851 7.29205 15.8851H9.20584C8.89031 16.8492 7.9832 17.5459 6.91388 17.5459C5.58267 17.5459 4.50286 16.4661 4.50286 15.1349C4.50286 13.8037 5.58267 12.7239 6.91388 12.7239C7.48645 12.7239 8.01251 12.9236 8.42615 13.2573Z" fill="#000000" />
</svg>