<svg width="24px"  height="24px"  viewBox="0 0 25 24" fill="none" xmlns="http://www.w3.org/2000/svg">
<path fill-rule="evenodd" clip-rule="evenodd" d="M12.4066 4.71094C12.4066 4.29672 12.7424 3.96094 13.1566 3.96094H15.2895C15.6826 3.96094 16.0508 4.10656 16.3369 4.29895C16.623 4.49138 16.8939 4.77557 17.0433 5.1323L17.0457 5.13806L17.8426 7.08715C18.2244 6.60105 18.7814 6.21019 19.4077 6.06756C19.6566 6.01088 19.9173 6.0847 20.0995 6.26348C20.6594 6.81285 21.0461 7.44362 21.2097 8.15651C21.3733 8.86933 21.3005 9.60584 21.0365 10.345C20.9503 10.5864 20.7467 10.7671 20.4967 10.824C20.1324 10.9069 19.749 10.9113 19.3798 10.8468L19.9083 12.1395C19.9241 12.1427 19.9405 12.1462 19.9575 12.1499C20.1162 12.1843 20.3335 12.2421 20.5762 12.3372C21.0528 12.5241 21.6835 12.8776 22.1234 13.5374C22.3532 13.8821 22.26 14.3477 21.9154 14.5775C21.5707 14.8073 21.1051 14.7141 20.8753 14.3695C20.6734 14.0666 20.363 13.8693 20.0567 13.7449C20.0254 13.8306 19.9873 13.9141 19.9426 13.9947C20.8798 14.5671 21.5101 15.5988 21.5101 16.7792C21.5101 18.5918 20.0368 20.0401 18.2492 20.0401C16.6373 20.0401 15.3113 18.8814 15.0394 17.3584H10.8929C10.615 18.8863 9.27415 20.0312 7.68475 20.0312C6.07601 20.0312 4.75209 18.877 4.47655 17.3584H3.5C3.08579 17.3584 2.75 17.0226 2.75 16.6084V14.1065C2.75 11.9028 4.53337 10.1077 6.74886 10.1077H8.58478C9.681 10.1077 10.6792 10.7294 11.1652 11.7135L11.8205 13.0422L11.8213 13.0437C11.9667 13.3331 12.2582 13.5095 12.5626 13.5095H13.5256C13.7641 13.5095 13.9698 13.33 13.999 13.0801L13.9366 8.74457L13.9366 8.74229C13.9233 7.57291 14.8311 6.59816 16.0008 6.54602L15.659 5.71005C15.6454 5.67901 15.5968 5.60892 15.4998 5.54366C15.4011 5.47731 15.3194 5.46094 15.2895 5.46094H13.1566C12.7424 5.46094 12.4066 5.12515 12.4066 4.71094ZM18.0433 13.8134C18.0883 13.7598 18.1406 13.7128 18.1983 13.6738L18.58 13.33C18.6545 13.2638 18.6937 13.1373 18.6437 13.01L16.6132 8.04383H16.0995C15.7327 8.04383 15.4326 8.3429 15.4365 8.72435L15.4994 13.0968C15.4997 13.1177 15.4992 13.1386 15.4977 13.1595C15.426 14.1929 14.5753 15.0095 13.5256 15.0095H12.5626C11.6796 15.0095 10.8737 14.5026 10.4789 13.713L10.477 13.7093L9.82023 12.3777C9.58619 11.9041 9.10837 11.6077 8.58478 11.6077H6.74886C5.3645 11.6077 4.25 12.7285 4.25 14.1065V15.8584H5.1618C5.17518 15.8581 5.18863 15.8581 5.20212 15.8584H10.1674C10.1809 15.8581 10.1943 15.8581 10.2077 15.8584H15.6675C15.7287 15.8584 15.8025 15.8318 15.8573 15.7823L15.8585 15.7811L16.6174 15.0976C16.6439 15.0654 16.6735 15.035 16.7061 15.0067C16.7312 14.985 16.7573 14.9652 16.7843 14.9473L18.0433 13.8134ZM16.8636 16.8946L17.1366 16.6487L17.6835 17.2796C17.9547 17.5927 18.4284 17.6265 18.7414 17.3552C19.0544 17.0839 19.0883 16.6103 18.817 16.2972L18.2514 15.6447L18.835 15.119C19.5174 15.3622 20.0101 16.0161 20.0101 16.7792C20.0101 17.7564 19.2154 18.5401 18.2492 18.5401C17.3932 18.5401 16.6879 17.9381 16.5242 17.1362C16.6459 17.0693 16.7598 16.9885 16.8628 16.8953L16.8636 16.8946ZM7.68475 18.5312C6.91326 18.5312 6.26415 18.0421 6.02366 17.3584H9.34502C9.10204 18.0438 8.44675 18.5312 7.68475 18.5312ZM18.793 8.74462C18.8372 8.92819 18.9849 9.11566 19.2625 9.24969C19.4145 9.32309 19.5835 9.36839 19.7509 9.38449C19.8152 9.05466 19.8091 8.75953 19.7477 8.49205C19.6869 8.22701 19.5654 7.96144 19.3671 7.69557C19.2323 7.7844 19.1049 7.90202 19.001 8.04139C18.8033 8.30652 18.7523 8.56162 18.793 8.74462Z" fill="#000000" />
<path d="M5.83984 7.33569C5.42563 7.33569 5.08984 7.67148 5.08984 8.08569C5.08984 8.49991 5.42563 8.83569 5.83984 8.83569H8.64772C9.06194 8.83569 9.39772 8.49991 9.39772 8.08569C9.39772 7.67148 9.06194 7.33569 8.64772 7.33569H5.83984Z" fill="#000000" />
</svg>