<svg width="24px"  height="24px"  viewBox="0 0 25 24" fill="none" xmlns="http://www.w3.org/2000/svg">
<path fill-rule="evenodd" clip-rule="evenodd" d="M7.45532 16.4375C7.15733 16.4375 6.86469 16.5546 6.63732 16.7745C6.41659 16.988 6.2737 17.2838 6.24298 17.6074C6.24729 17.7239 6.26386 17.8401 6.29231 17.9539C6.37142 18.2247 6.52957 18.4563 6.73798 18.6184C6.94828 18.7819 7.19985 18.8675 7.45532 18.8675C7.71079 18.8675 7.96237 18.7819 8.17267 18.6184C8.38148 18.456 8.53988 18.2242 8.61886 17.9539C8.64701 17.8412 8.66339 17.725 8.66767 17.6075C8.63697 17.2838 8.49407 16.988 8.27333 16.7745C8.04595 16.5546 7.75332 16.4375 7.45532 16.4375ZM9.41846 17.5865L10.1666 17.5331C10.1169 16.8372 9.81625 16.18 9.3161 15.6963C8.81524 15.2119 8.15106 14.9375 7.45532 14.9375C6.75959 14.9375 6.09541 15.2119 5.59455 15.6963C5.09439 16.18 4.79372 16.8372 4.74409 17.5331C4.74252 17.5551 4.74192 17.5771 4.74229 17.599C4.74647 17.8486 4.78024 18.096 4.8417 18.3359L4.84687 18.355C5.0099 18.9281 5.34762 19.4373 5.81712 19.8025C6.28711 20.168 6.86178 20.3675 7.45532 20.3675C8.04886 20.3675 8.62353 20.168 9.09353 19.8025C9.56261 19.4376 9.90112 18.9286 10.0643 18.355L10.0695 18.3359C10.1313 18.0947 10.1642 17.8472 10.1684 17.599L9.41846 17.5865Z" fill="#000000" />
<path fill-rule="evenodd" clip-rule="evenodd" d="M18.0374 16.4375C17.7394 16.4375 17.4467 16.5546 17.2193 16.7745C16.9986 16.988 16.8557 17.2838 16.825 17.6075C16.8293 17.725 16.8457 17.8412 16.8738 17.9539C16.9528 18.2242 17.1112 18.456 17.32 18.6184C17.5303 18.7819 17.7819 18.8675 18.0374 18.8675C18.2928 18.8675 18.5444 18.7819 18.7547 18.6184C18.9631 18.4563 19.1213 18.2247 19.2004 17.9539C19.2288 17.8401 19.2454 17.7239 19.2497 17.6074C19.219 17.2838 19.0761 16.988 18.8554 16.7745C18.628 16.5546 18.3353 16.4375 18.0374 16.4375ZM20.0005 17.5865L20.7486 17.5331C20.699 16.8372 20.3983 16.18 19.8981 15.6963C19.3973 15.2119 18.7331 14.9375 18.0374 14.9375C17.3416 14.9375 16.6774 15.2119 16.1766 15.6963C15.6764 16.18 15.3757 16.8372 15.3261 17.5331C15.3246 17.5551 15.324 17.5771 15.3243 17.599C15.3285 17.8472 15.3614 18.0947 15.4232 18.3359L15.4284 18.355C15.5916 18.9286 15.9301 19.4376 16.3991 19.8025C16.8691 20.168 17.4438 20.3675 18.0374 20.3675C18.6309 20.3675 19.2056 20.168 19.6756 19.8025C20.1451 19.4373 20.4828 18.9281 20.6458 18.355L20.651 18.3359C20.7124 18.096 20.7462 17.8486 20.7504 17.599L20.0005 17.5865Z" fill="#000000" />
<path fill-rule="evenodd" clip-rule="evenodd" d="M12.21 11.7773C12.21 11.3631 12.5457 11.0273 12.96 11.0273H20.3372C21.1091 11.0273 21.8502 11.3329 22.397 11.8797C22.9435 12.4262 23.2505 13.1682 23.2505 13.9406V15.6276C23.2505 16.4004 22.9432 17.1412 22.397 17.6874C21.8508 18.2336 21.11 18.5409 20.3372 18.5409H20.0124C19.5981 18.5409 19.2624 18.2051 19.2624 17.7909C19.2624 17.3767 19.5981 17.0409 20.0124 17.0409H20.3372C20.7118 17.0409 21.0712 16.8919 21.3364 16.6268C21.6016 16.3616 21.7505 16.0022 21.7505 15.6276V13.9406C21.7505 13.5656 21.6013 13.2053 21.3364 12.9404C21.0718 12.6759 20.7127 12.5273 20.3372 12.5273H12.96C12.5457 12.5273 12.21 12.1916 12.21 11.7773Z" fill="#000000" />
<path fill-rule="evenodd" clip-rule="evenodd" d="M15.8461 6.24491C16.2053 6.23557 16.5572 6.32772 16.864 6.50564C17.1741 6.68549 17.4299 6.94837 17.5999 7.26832L19.8156 11.3651C20.0127 11.7294 19.877 12.1845 19.5127 12.3816C19.1484 12.5786 18.6933 12.443 18.4962 12.0786L16.2757 7.97287C16.239 7.90347 16.1827 7.84453 16.1114 7.80318C16.0396 7.76156 15.96 7.74189 15.8821 7.74449C15.8738 7.74477 15.8654 7.74491 15.8571 7.74491H13.3838V17.4227C13.3838 17.8369 13.048 18.1727 12.6338 18.1727C12.2196 18.1727 11.8838 17.8369 11.8838 17.4227V7.51461C11.8838 7.17857 12.0171 6.85511 12.2556 6.61669C12.4934 6.37883 12.8161 6.24491 13.153 6.24491H15.8461Z" fill="#000000" />
<path fill-rule="evenodd" clip-rule="evenodd" d="M2.53223 11.416C2.94644 11.416 3.28223 11.7518 3.28223 12.166V15.6708C3.28223 16.0459 3.43095 16.4052 3.69581 16.67C3.96086 16.9351 4.32071 17.0841 4.69553 17.0841H5.45237C5.86658 17.0841 6.20237 17.4199 6.20237 17.8341C6.20237 18.2483 5.86658 18.5841 5.45237 18.5841H4.69553C3.92286 18.5841 3.18149 18.277 2.63515 17.7307C2.08861 17.1841 1.78223 16.4432 1.78223 15.6708V12.166C1.78223 11.7518 2.11801 11.416 2.53223 11.416Z" fill="#000000" />
<path fill-rule="evenodd" clip-rule="evenodd" d="M8.6709 17.4434C8.6709 17.0291 9.00668 16.6934 9.4209 16.6934H16.0839C16.4981 16.6934 16.8339 17.0291 16.8339 17.4434C16.8339 17.8576 16.4981 18.1934 16.0839 18.1934H9.4209C9.00668 18.1934 8.6709 17.8576 8.6709 17.4434Z" fill="#000000" />
<path fill-rule="evenodd" clip-rule="evenodd" d="M10.1497 4.25152C10.4445 3.95666 10.8446 3.79102 11.2615 3.79102H13.6952C14.1094 3.79102 14.4452 4.1268 14.4452 4.54102C14.4452 4.95523 14.1094 5.29102 13.6952 5.29102H11.2615C11.2423 5.29102 11.2238 5.29871 11.2103 5.31218C11.1974 5.32514 11.1897 5.34292 11.1897 5.36282V12.1453C11.1897 12.5595 10.8539 12.8953 10.4397 12.8953H2.5C2.08579 12.8953 1.75 12.5595 1.75 12.1453V7.10471C1.75 7.10469 1.75 7.10472 1.75 7.10471C1.74999 6.87966 1.79456 6.65697 1.88131 6.44917C1.9677 6.24223 2.09453 6.05315 2.25524 5.89425C2.41472 5.73656 2.60462 5.61096 2.81412 5.52626C3.02376 5.44151 3.24566 5.40104 3.46647 5.40293H9.68969V5.36282C9.68969 4.94667 9.85429 4.54689 10.1497 4.25152ZM9.68969 6.90293H3.45429C3.4249 6.9026 3.39862 6.90791 3.37633 6.91692C3.35236 6.92661 3.32948 6.94152 3.30989 6.96089C3.29152 6.97905 3.27614 7.00162 3.26552 7.02707C3.25526 7.05165 3.25 7.07785 3.25 7.10461V11.3953H9.68969V6.90293Z" fill="#000000" />
</svg>