<svg width="24px"  height="24px"  viewBox="0 0 25 24" fill="none" xmlns="http://www.w3.org/2000/svg">
<path fill-rule="evenodd" clip-rule="evenodd" d="M11.0296 7.27005L11.0216 7.27849L11.0206 7.27948L11.0093 7.29141C10.9984 7.303 10.9809 7.32186 10.9571 7.34806C10.9095 7.40045 10.837 7.48215 10.7427 7.59359C10.5542 7.81646 10.2787 8.15824 9.94219 8.6223C9.40405 9.36436 8.70979 10.4191 7.96516 11.8004C9.69969 13.209 11.2782 14.7874 12.6996 16.5342C14.0807 15.7897 15.1353 15.0955 15.8773 14.5574C16.3414 14.2209 16.6831 13.9454 16.906 13.7568C17.0174 13.6626 17.0991 13.59 17.1515 13.5425C17.1777 13.5187 17.1966 13.5012 17.2082 13.4903L17.2201 13.479L17.2212 13.478L17.2219 13.4773L17.2229 13.4764L17.2243 13.475L17.2328 13.4667C17.2409 13.4587 17.2538 13.4459 17.2712 13.4283C17.3061 13.3932 17.3587 13.3393 17.4259 13.2679C17.5604 13.1249 17.753 12.9124 17.9788 12.6401C18.4317 12.0941 19.0112 11.3164 19.5236 10.3864C19.5795 10.2849 19.6344 10.182 19.6882 10.0778L16.4828 6.87244C16.1899 6.57955 16.1899 6.10467 16.4828 5.81178C16.7757 5.51889 17.2506 5.51889 17.5435 5.81178L20.323 8.59129C20.795 7.18973 20.9479 5.6427 20.4041 4.10037C18.1003 3.30604 15.8455 3.99017 14.0664 4.97774C13.1457 5.48883 12.381 6.06659 11.8459 6.51792C11.5791 6.74294 11.3713 6.93482 11.2319 7.06874C11.1623 7.13566 11.1098 7.18796 11.0757 7.22253C11.0587 7.23982 11.0463 7.25265 11.0386 7.26065L11.0306 7.26897L11.0296 7.27005ZM16.3092 16.0894C15.6098 16.5732 14.719 17.1385 13.6301 17.7357C14.1193 18.3991 14.5885 19.0862 15.0338 19.7933L16.1044 18.7228L16.3092 16.0894ZM11.3276 17.2275C11.0197 17.3685 10.7297 17.4961 10.4658 17.5999C10.296 17.6667 10.1479 17.7192 10.021 17.7585L6.76079 14.4983C6.88402 14.1292 7.06689 13.6781 7.27958 13.1783C8.74821 14.3977 10.0976 15.7474 11.3276 17.2275ZM6.06192 12.2175C6.05872 12.224 6.05553 12.2304 6.05233 12.2369C6.04666 12.2484 6.04128 12.26 6.0362 12.2718C5.69425 13.0643 5.33872 13.9105 5.18737 14.5391C5.12624 14.793 5.20156 15.0604 5.3862 15.245L9.25458 19.1134C9.42067 19.2795 9.65499 19.3582 9.88767 19.326C10.2392 19.2774 10.6348 19.1453 11.0149 18.9958C11.405 18.8423 11.829 18.6499 12.2479 18.4544L12.2627 18.4473C12.2694 18.444 12.2761 18.4407 12.2828 18.4373C12.9817 19.3708 13.6396 20.3554 14.2445 21.3792C14.3624 21.5788 14.566 21.7126 14.796 21.7417C15.026 21.7708 15.2566 21.6919 15.4205 21.528L17.361 19.5875C17.4875 19.461 17.5646 19.2936 17.5784 19.1153L17.9083 14.8736C18.0169 14.7811 18.1006 14.7068 18.1597 14.6532C18.1922 14.6237 18.2172 14.6004 18.2349 14.5839L18.2558 14.5641L18.2621 14.558L18.2639 14.5563L18.2651 14.5552L18.266 14.5543L18.2704 14.55L18.2851 14.5357C18.2973 14.5236 18.3145 14.5065 18.3363 14.4846C18.3798 14.4407 18.4415 14.3774 18.5182 14.2959C18.6715 14.1331 18.8852 13.897 19.1334 13.5977C19.6284 13.0008 20.2675 12.1446 20.8374 11.1103C21.9667 9.0607 22.8927 6.17979 21.6769 3.2303C21.5998 3.04323 21.4503 2.89526 21.2625 2.81998C18.2541 1.61401 15.3782 2.53394 13.3384 3.66626C12.311 4.23656 11.4662 4.87587 10.8788 5.37127C10.5843 5.61962 10.3525 5.83352 10.1927 5.98703C10.1128 6.06383 10.0507 6.12566 10.0077 6.16929C9.98619 6.19112 9.96942 6.2084 9.95754 6.22074L9.94341 6.23551L9.94158 6.23745L9.93553 6.24377L9.91572 6.26471C9.89915 6.28236 9.8759 6.30741 9.8464 6.33992C9.79333 6.39838 9.72001 6.48097 9.62882 6.58799L5.38236 6.91827C5.20408 6.93213 5.03663 7.00924 4.91019 7.13568L2.96968 9.07619C2.80599 9.23987 2.72706 9.46997 2.75581 9.69966C2.78456 9.92936 2.91776 10.1329 3.11674 10.2512C4.14835 10.8645 5.12617 11.516 6.06192 12.2175ZM6.76364 10.87C6.09744 10.3783 5.41176 9.91091 4.70323 9.46396L5.77492 8.39226L8.41242 8.18712C7.92803 8.8871 7.36181 9.77922 6.76364 10.87ZM12.7299 8.71858C13.5841 7.86444 14.9694 7.86444 15.8235 8.71858C16.6776 9.57271 16.6776 10.958 15.8235 11.8122C14.9694 12.6663 13.5841 12.6663 12.7299 11.8122C11.8758 10.958 11.8758 9.57271 12.7299 8.71858ZM14.7628 9.77924C14.4945 9.51089 14.0589 9.51089 13.7906 9.77924C13.5222 10.0476 13.5222 10.4831 13.7906 10.7515C14.0589 11.0198 14.4945 11.0198 14.7628 10.7515C15.0312 10.4831 15.0312 10.0476 14.7628 9.77924Z" fill="#000000" />
</svg>