<svg width="24px"  height="24px"  viewBox="0 0 25 24" fill="none" xmlns="http://www.w3.org/2000/svg">
<path fill-rule="evenodd" clip-rule="evenodd" d="M8.13364 12.4052L8.13399 12.4167L8.13394 12.4181L8.1344 12.4345C8.13489 12.4503 8.13583 12.476 8.13754 12.5112C8.14095 12.5816 8.14741 12.6903 8.1595 12.8352C8.18369 13.1251 8.2304 13.56 8.32025 14.124C8.46392 15.026 8.71789 16.2582 9.16645 17.7561C11.381 17.5265 13.6052 17.5264 15.8374 17.7557C16.2858 16.258 16.5398 15.0259 16.6834 14.124C16.7733 13.56 16.82 13.1251 16.8442 12.8352C16.8563 12.6903 16.8627 12.5816 16.8662 12.5112C16.8679 12.476 16.8688 12.4503 16.8693 12.4345L16.8698 12.4181L16.8698 12.4167L16.8698 12.4143L16.8699 12.4124L16.87 12.4006C16.8701 12.3892 16.8701 12.371 16.87 12.3464C16.8698 12.2971 16.8689 12.2221 16.866 12.1244C16.86 11.9289 16.846 11.6434 16.8132 11.2926C16.7476 10.5888 16.6079 9.63252 16.3138 8.61626C16.2817 8.50539 16.2479 8.39421 16.2123 8.28293L11.6956 8.28293C11.2829 8.28293 10.9483 7.94835 10.9483 7.53564C10.9483 7.12292 11.2829 6.78835 11.6956 6.78835H15.6122C14.9573 5.46834 13.9751 4.27062 12.5053 3.5671C10.3225 4.63064 9.21585 6.70126 8.65821 8.6505C8.36962 9.65926 8.2379 10.6051 8.17884 11.3001C8.1494 11.6466 8.13824 11.9282 8.13438 12.1208C8.13245 12.217 8.13235 12.2908 8.13268 12.3392C8.13285 12.3633 8.13313 12.3812 8.13335 12.3922L8.1336 12.4037L8.13364 12.4052ZM18.0671 14.8991C17.9153 15.7327 17.6859 16.7586 17.3394 17.9465C18.1515 18.0692 18.9662 18.2228 19.7782 18.4073V16.8987L18.0671 14.8991ZM15.3591 19.2107C15.2416 19.527 15.1271 19.8212 15.0143 20.0803C14.9418 20.2469 14.8744 20.3884 14.8126 20.5054H10.2187C10.0455 20.1586 9.85652 19.7119 9.65425 19.2099C11.5481 19.0343 13.4497 19.0345 15.3591 19.2107ZM8.11941 19.3909C8.12171 19.3977 8.12402 19.4045 8.12632 19.4113C8.13042 19.4234 8.13483 19.4354 8.13954 19.4473C8.45697 20.2465 8.80268 21.0932 9.13894 21.6427C9.27474 21.8647 9.51619 22 9.77637 22L15.2273 22C15.4614 22 15.6819 21.8904 15.8232 21.7037C16.0366 21.4218 16.2222 21.05 16.3847 20.6769C16.5514 20.2939 16.7146 19.8596 16.8719 19.4268L16.8774 19.4113C16.8798 19.4043 16.8821 19.3972 16.8845 19.3902C18.0346 19.5554 19.1918 19.7856 20.3393 20.0807C20.563 20.1383 20.8008 20.0891 20.9834 19.9476C21.1659 19.806 21.2728 19.588 21.2728 19.357V16.6226C21.2728 16.4444 21.2091 16.2721 21.0933 16.1367L18.3372 12.9159C18.3485 12.7741 18.3551 12.6628 18.359 12.5834C18.3611 12.5398 18.3624 12.5057 18.3631 12.4816L18.3639 12.4529L18.3641 12.4442L18.3642 12.4389L18.3643 12.4327L18.3645 12.4123C18.3647 12.3951 18.3647 12.371 18.3646 12.3402C18.3644 12.2787 18.3632 12.1906 18.3599 12.0792C18.3531 11.8564 18.3373 11.5395 18.3014 11.1538C18.2296 10.3845 18.0766 9.33096 17.7494 8.20066C17.101 5.96099 15.7237 3.27882 12.789 2.05737C12.6029 1.9799 12.3933 1.98093 12.208 2.0602C9.23871 3.33014 7.86064 6.00448 7.22127 8.23942C6.89925 9.36504 6.75445 10.4107 6.68963 11.1736C6.65713 11.556 6.64452 11.8701 6.6401 12.0908C6.63788 12.2012 6.63771 12.2885 6.63814 12.3496C6.63835 12.3801 6.63871 12.4041 6.63905 12.4212L6.6395 12.4415L6.63957 12.4442L6.63976 12.4529L6.64056 12.4816C6.64132 12.5057 6.64259 12.5398 6.64471 12.5834C6.64851 12.662 6.65503 12.7719 6.66618 12.9115L3.90703 16.1361C3.7912 16.2714 3.72754 16.4437 3.72754 16.6219L3.72754 19.3563C3.72754 19.587 3.83405 19.8047 4.01613 19.9463C4.19822 20.0878 4.43547 20.1374 4.65901 20.0805C5.81793 19.7858 6.9659 19.5559 8.11941 19.3909ZM7.66443 17.9471C6.84865 18.0701 6.03622 18.2238 5.22212 18.4081L5.22212 16.898L6.93585 14.8952C7.08773 15.7297 7.31735 16.7571 7.66443 17.9471ZM10.3522 12.2277C10.3522 11.0242 11.3282 10.0481 12.5318 10.0481C13.7353 10.0481 14.7114 11.0242 14.7114 12.2277C14.7114 13.4313 13.7353 14.4073 12.5318 14.4073C11.3282 14.4073 10.3522 13.4313 10.3522 12.2277ZM12.5318 11.5427C12.1537 11.5427 11.8468 11.8496 11.8468 12.2277C11.8468 12.6059 12.1537 12.9127 12.5318 12.9127C12.9099 12.9127 13.2168 12.6059 13.2168 12.2277C13.2168 11.8496 12.9099 11.5427 12.5318 11.5427Z" fill="#000000" />
</svg>