<svg width="24px"  height="24px"  viewBox="0 0 25 25" fill="none" xmlns="http://www.w3.org/2000/svg">
<path fill-rule="evenodd" clip-rule="evenodd" d="M17 15.7239C17 15.3097 17.3358 14.9739 17.75 14.9739L18.25 14.9739C18.6642 14.9739 19 15.3097 19 15.7239C19 16.1381 18.6642 16.4739 18.25 16.4739L17.75 16.4739C17.3358 16.4739 17 16.1381 17 15.7239Z" fill="#000000" />
<path fill-rule="evenodd" clip-rule="evenodd" d="M5.5 15.7239C5.5 15.3097 5.83579 14.9739 6.25 14.9739L6.75 14.9739C7.16421 14.9739 7.5 15.3097 7.5 15.7239C7.5 16.1381 7.16421 16.4739 6.75 16.4739L6.25 16.4739C5.83579 16.4739 5.5 16.1381 5.5 15.7239Z" fill="#000000" />
<path fill-rule="evenodd" clip-rule="evenodd" d="M9 15.7239C9 15.3097 9.33579 14.9739 9.75 14.9739H14.75C15.1642 14.9739 15.5 15.3097 15.5 15.7239C15.5 16.1381 15.1642 16.4739 14.75 16.4739H9.75C9.33579 16.4739 9 16.1381 9 15.7239Z" fill="#000000" />
<path fill-rule="evenodd" clip-rule="evenodd" d="M2.51143 11.7272C2.56958 11.3171 2.94918 11.0318 3.35929 11.0899C9.25064 11.9253 15.2304 11.9253 21.1217 11.0899C21.5318 11.0318 21.9114 11.3171 21.9696 11.7272C22.0277 12.1373 21.7424 12.5169 21.3323 12.5751C15.3013 13.4302 9.17975 13.4302 3.14871 12.5751C2.7386 12.5169 2.45328 12.1373 2.51143 11.7272Z" fill="#000000" />
<path fill-rule="evenodd" clip-rule="evenodd" d="M8.05281 6.16723C10.837 5.72827 13.6726 5.72827 16.4568 6.16723L16.4596 6.16769C17.5088 6.33727 18.4131 7.0905 18.7709 8.09041L19.8143 10.6821C19.8177 10.6904 19.8208 10.6987 19.8239 10.7071C19.8548 10.7925 19.8969 10.8737 19.9495 10.9493L21.1128 12.5103C21.6861 13.2927 21.9954 14.2375 21.9962 15.2073V20.4354C21.9962 21.4019 21.2127 22.1854 20.2462 22.1854H18.2512C17.2847 22.1854 16.5012 21.4019 16.5012 20.4354V20.0256C16.5012 19.8875 16.3893 19.7756 16.2512 19.7756H8.23814C8.10007 19.7756 7.98814 19.8875 7.98814 20.0256V20.4354C7.98814 21.4019 7.20464 22.1854 6.23814 22.1854H4.25684C3.2882 22.1854 2.50381 21.3986 2.50684 20.4299L2.52315 15.2283C2.52315 15.2276 2.52315 15.227 2.52315 15.2263C2.52171 14.2695 2.8233 13.3368 3.38473 12.562L4.57596 10.9219C4.62733 10.853 4.6688 10.7774 4.69914 10.6971L4.70497 10.6821L5.74829 8.09067C6.10403 7.09439 7.00212 6.34214 8.04644 6.16827L8.05281 6.16723ZM8.28994 7.64838C7.78126 7.73421 7.32834 8.11618 7.15799 8.60339C7.15417 8.61434 7.15008 8.6252 7.14575 8.63596L6.09916 11.2356C6.02022 11.4422 5.91337 11.6369 5.78161 11.8144L4.59938 13.4421C4.59931 13.4422 4.59946 13.442 4.59938 13.4421C4.22378 13.9606 4.02191 14.5851 4.02315 15.2254L4.02315 15.2292L4.00684 20.4346C4.0064 20.573 4.11846 20.6854 4.25684 20.6854H6.23814C6.37622 20.6854 6.48814 20.5735 6.48814 20.4354V20.0256C6.48814 19.0591 7.27165 18.2756 8.23814 18.2756H16.2512C17.2177 18.2756 18.0012 19.0591 18.0012 20.0256V20.4354C18.0012 20.5735 18.1132 20.6854 18.2512 20.6854H20.2462C20.3842 20.6854 20.4962 20.5735 20.4962 20.4354V15.2084C20.4957 14.5579 20.2884 13.9242 19.9045 13.3992C19.9039 13.3985 19.9034 13.3977 19.9028 13.397L18.7406 11.8373L18.73 11.8227C18.6009 11.6404 18.4959 11.4419 18.4183 11.231L17.3736 8.63596C17.3693 8.62539 17.3653 8.61472 17.3615 8.60397C17.19 8.11462 16.7331 7.73188 16.2216 7.64868C13.5939 7.23456 10.9176 7.23446 8.28994 7.64838Z" fill="#000000" />
<path fill-rule="evenodd" clip-rule="evenodd" d="M10.4271 5.08411C10.3249 5.08411 10.2329 5.14634 10.195 5.24126L9.44643 7.11265L8.05371 6.55556L8.80227 4.68417C9.06803 4.01977 9.71152 3.58411 10.4271 3.58411H14.073C14.7886 3.58411 15.4321 4.01977 15.6979 4.68417L15.0015 4.96272L15.6979 4.68417L16.4464 6.55556L15.0537 7.11265L14.3052 5.24126C14.2672 5.14634 14.1753 5.08411 14.073 5.08411H10.4271Z" fill="#000000" />
</svg>