<svg width="24px"  height="24px"  viewBox="0 0 25 25" fill="none" xmlns="http://www.w3.org/2000/svg">
<path fill-rule="evenodd" clip-rule="evenodd" d="M2.50735 11.755C2.56484 11.3448 2.94398 11.0589 3.35418 11.1164C9.25595 11.9434 15.2442 11.9434 21.146 11.1164C21.5562 11.0589 21.9353 11.3448 21.9928 11.755C22.0503 12.1652 21.7644 12.5444 21.3542 12.6018C15.3143 13.4483 9.18589 13.4483 3.146 12.6018C2.7358 12.5444 2.44986 12.1652 2.50735 11.755Z" fill="#000000" />
<path fill-rule="evenodd" clip-rule="evenodd" d="M8.05281 6.45398C10.837 6.01502 13.6726 6.01502 16.4568 6.45398L16.4596 6.45443C17.5092 6.62408 18.4138 7.37781 18.7713 8.37828L19.8152 10.9935C19.8182 11.0011 19.8211 11.0087 19.8239 11.0164C19.8548 11.1018 19.8968 11.1829 19.9495 11.2585L21.1128 12.8196C21.6861 13.6019 21.9954 14.5467 21.9962 15.5166V21.1633C21.9962 21.5775 21.6604 21.9133 21.2462 21.9133C20.8319 21.9133 20.4962 21.5775 20.4962 21.1633V15.5177C20.4957 14.8672 20.2884 14.2334 19.9045 13.7085C19.9039 13.7077 19.9034 13.707 19.9028 13.7062L18.7406 12.1466L18.73 12.1319C18.6006 11.9493 18.4956 11.7504 18.4179 11.5391L17.3727 8.92064C17.3688 8.91074 17.365 8.90077 17.3615 8.89071C17.19 8.40136 16.7331 8.01862 16.2216 7.93542C13.5939 7.5213 10.9176 7.5212 8.28994 7.93512C7.78126 8.02095 7.32833 8.40292 7.15799 8.89014C7.15441 8.90039 7.1506 8.91056 7.14657 8.92064L6.09959 11.5437C6.0206 11.7507 5.91361 11.9458 5.7816 12.1236L4.59938 13.7514C4.59931 13.7515 4.59945 13.7513 4.59938 13.7514C4.22378 14.2698 4.0219 14.8944 4.02314 15.5346L4.02315 15.5383L4.00683 21.1624C4.00563 21.5766 3.66887 21.9114 3.25466 21.9102C2.84045 21.909 2.50564 21.5722 2.50684 21.158L2.52314 15.5375C2.52314 15.5369 2.52314 15.5363 2.52314 15.5357C2.52169 14.5788 2.82328 13.6461 3.38473 12.8712L4.57595 11.2311C4.62733 11.1622 4.6688 11.0866 4.69914 11.0063L4.70402 10.9934L5.74788 8.37854C6.10335 7.3817 7.00172 6.62895 8.04644 6.45501L8.05281 6.45398Z" fill="#000000" />
<path fill-rule="evenodd" clip-rule="evenodd" d="M6.48828 20.3352C6.48828 19.3687 7.27178 18.5852 8.23828 18.5852H16.2514C17.2179 18.5852 18.0014 19.3687 18.0014 20.3352V21.1637C18.0014 21.5779 17.6656 21.9137 17.2514 21.9137C16.8372 21.9137 16.5014 21.5779 16.5014 21.1637V20.3352C16.5014 20.1971 16.3894 20.0852 16.2514 20.0852H8.23828C8.10021 20.0852 7.98828 20.1971 7.98828 20.3352V21.1637C7.98828 21.5779 7.65249 21.9137 7.23828 21.9137C6.82407 21.9137 6.48828 21.5779 6.48828 21.1637V20.3352Z" fill="#000000" />
<path fill-rule="evenodd" clip-rule="evenodd" d="M10.556 5.35583C10.4538 5.35583 10.3619 5.41807 10.3239 5.51299L9.57533 7.38438L8.18262 6.82729L8.93117 4.9559C9.19693 4.2915 9.84043 3.85583 10.556 3.85583H13.9436C14.6592 3.85583 15.3027 4.2915 15.5685 4.9559L14.8721 5.23444L15.5685 4.9559L16.317 6.82729L14.9243 7.38438L14.1758 5.51299C14.1378 5.41807 14.0459 5.35583 13.9436 5.35583H10.556Z" fill="#000000" />
<path fill-rule="evenodd" clip-rule="evenodd" d="M7.83545 14.9763C7.83545 15.3905 8.17124 15.7263 8.58545 15.7263L8.78545 15.7263C9.19966 15.7263 9.53545 15.3905 9.53545 14.9763C9.53545 14.5621 9.19966 14.2263 8.78545 14.2263L8.58545 14.2263C8.17124 14.2263 7.83545 14.5621 7.83545 14.9763Z" fill="#000000" />
<path fill-rule="evenodd" clip-rule="evenodd" d="M6.05322 16.8455C6.05322 17.2597 6.38901 17.5955 6.80322 17.5955L7.00322 17.5955C7.41744 17.5955 7.75322 17.2597 7.75322 16.8455C7.75322 16.4312 7.41744 16.0955 7.00322 16.0955L6.80322 16.0955C6.38901 16.0955 6.05322 16.4312 6.05322 16.8455Z" fill="#000000" />
<path fill-rule="evenodd" clip-rule="evenodd" d="M16.7466 16.8455C16.7466 17.2597 17.0824 17.5955 17.4966 17.5955L17.6966 17.5955C18.1108 17.5955 18.4466 17.2597 18.4466 16.8455C18.4466 16.4312 18.1108 16.0955 17.6966 16.0955L17.4966 16.0955C17.0824 16.0955 16.7466 16.4312 16.7466 16.8455Z" fill="#000000" />
<path fill-rule="evenodd" clip-rule="evenodd" d="M11.3999 14.9763C11.3999 15.3905 11.7357 15.7263 12.1499 15.7263L12.3499 15.7263C12.7641 15.7263 13.0999 15.3905 13.0999 14.9763C13.0999 14.5621 12.7641 14.2263 12.3499 14.2263L12.1499 14.2263C11.7357 14.2263 11.3999 14.5621 11.3999 14.9763Z" fill="#000000" />
<path fill-rule="evenodd" clip-rule="evenodd" d="M9.61768 16.8455C9.61768 17.2597 9.95346 17.5955 10.3677 17.5955L10.5677 17.5955C10.9819 17.5955 11.3177 17.2597 11.3177 16.8455C11.3177 16.4312 10.9819 16.0955 10.5677 16.0955L10.3677 16.0955C9.95346 16.0955 9.61768 16.4312 9.61768 16.8455Z" fill="#000000" />
<path fill-rule="evenodd" clip-rule="evenodd" d="M14.9644 14.9763C14.9644 15.3905 15.3001 15.7263 15.7144 15.7263L15.9144 15.7263C16.3286 15.7263 16.6644 15.3905 16.6644 14.9763C16.6644 14.5621 16.3286 14.2263 15.9144 14.2263L15.7144 14.2263C15.3001 14.2263 14.9644 14.5621 14.9644 14.9763Z" fill="#000000" />
<path fill-rule="evenodd" clip-rule="evenodd" d="M13.1821 16.8455C13.1821 17.2597 13.5179 17.5955 13.9321 17.5955L14.1321 17.5955C14.5463 17.5955 14.8821 17.2597 14.8821 16.8455C14.8821 16.4312 14.5463 16.0955 14.1321 16.0955L13.9321 16.0955C13.5179 16.0955 13.1821 16.4312 13.1821 16.8455Z" fill="#000000" />
</svg>