<svg width="24px"  height="24px"  viewBox="0 0 25 25" fill="none" xmlns="http://www.w3.org/2000/svg">
<path fill-rule="evenodd" clip-rule="evenodd" d="M12.25 4.26367C7.69329 4.26367 4 7.95697 4 12.5137C4 17.0704 7.69329 20.7637 12.25 20.7637C16.8067 20.7637 20.5 17.0704 20.5 12.5137C20.5 7.95697 16.8067 4.26367 12.25 4.26367ZM2.5 12.5137C2.5 7.12854 6.86487 2.76367 12.25 2.76367C17.6351 2.76367 22 7.12854 22 12.5137C22 17.8988 17.6351 22.2637 12.25 22.2637C6.86487 22.2637 2.5 17.8988 2.5 12.5137Z" fill="#000000" />
<path fill-rule="evenodd" clip-rule="evenodd" d="M8.25 8.26367C8.66421 8.26367 9 8.59946 9 9.01367V16.0136C9 16.4278 8.66421 16.7636 8.25 16.7636C7.83579 16.7636 7.5 16.4278 7.5 16.0136V9.01367C7.5 8.59946 7.83579 8.26367 8.25 8.26367Z" fill="#000000" />
<path fill-rule="evenodd" clip-rule="evenodd" d="M16.2988 15.2305C16.713 15.2305 17.0488 15.5663 17.0488 15.9805V15.9905C17.0488 16.4047 16.713 16.7405 16.2988 16.7405C15.8846 16.7405 15.5488 16.4047 15.5488 15.9905V15.9805C15.5488 15.5663 15.8846 15.2305 16.2988 15.2305Z" fill="#000000" />
<path fill-rule="evenodd" clip-rule="evenodd" d="M16.2498 8.26367C16.664 8.26367 16.9998 8.59946 16.9998 9.01367V11.5136C16.9998 12.4803 16.2165 13.2636 15.2498 13.2636H8.25C7.83579 13.2636 7.5 12.9278 7.5 12.5136C7.5 12.0994 7.83579 11.7636 8.25 11.7636H15.2498C15.3881 11.7636 15.4998 11.6519 15.4998 11.5136V9.01367C15.4998 8.59946 15.8356 8.26367 16.2498 8.26367Z" fill="#000000" />
<path fill-rule="evenodd" clip-rule="evenodd" d="M12.25 8.26367C12.6642 8.26367 13 8.59946 13 9.01367V16.0136C13 16.4278 12.6642 16.7636 12.25 16.7636C11.8358 16.7636 11.5 16.4278 11.5 16.0136V9.01367C11.5 8.59946 11.8358 8.26367 12.25 8.26367Z" fill="#000000" />
</svg>