<svg width="24px"  height="24px"  viewBox="0 0 25 25" fill="none" xmlns="http://www.w3.org/2000/svg">
<path fill-rule="evenodd" clip-rule="evenodd" d="M12.25 4.26367C7.69329 4.26367 4 7.95697 4 12.5137C4 17.0704 7.69329 20.7637 12.25 20.7637C16.8067 20.7637 20.5 17.0704 20.5 12.5137C20.5 7.95697 16.8067 4.26367 12.25 4.26367ZM2.5 12.5137C2.5 7.12854 6.86487 2.76367 12.25 2.76367C17.6351 2.76367 22 7.12854 22 12.5137C22 17.8988 17.6351 22.2637 12.25 22.2637C6.86487 22.2637 2.5 17.8988 2.5 12.5137Z" fill="#000000" />
<path fill-rule="evenodd" clip-rule="evenodd" d="M8.54651 8.28727C8.87819 8.20217 9.22539 8.35252 9.39026 8.65264L12.25 13.8585L15.1097 8.65264C15.2746 8.35252 15.6218 8.20217 15.9534 8.28727C16.2851 8.37238 16.517 8.67132 16.517 9.01374V16.0137C16.517 16.428 16.1813 16.7637 15.767 16.7637C15.3528 16.7637 15.017 16.428 15.017 16.0137V11.9368L12.9073 15.7773C12.7756 16.0171 12.5236 16.1662 12.25 16.1662C11.9763 16.1662 11.7244 16.0171 11.5926 15.7773L9.48291 11.9368V16.0137C9.48291 16.428 9.14712 16.7637 8.73291 16.7637C8.3187 16.7637 7.98291 16.428 7.98291 16.0137V9.01374C7.98291 8.67132 8.21483 8.37238 8.54651 8.28727Z" fill="#000000" />
</svg>