<svg width="24px"  height="24px"  viewBox="0 0 25 24" fill="none" xmlns="http://www.w3.org/2000/svg">
<path d="M7.2436 15.7329C6.31837 15.7096 5.42314 15.4001 4.68116 14.8469C3.93918 14.2937 3.38695 13.524 3.10059 12.6439C3.03659 12.4969 2.85159 12.0439 2.71259 11.7129L2.5716 11.3719C2.53058 11.2805 2.50829 11.1818 2.50605 11.0816C2.5038 10.9815 2.52166 10.8819 2.55854 10.7888C2.59542 10.6956 2.65063 10.6108 2.72083 10.5393C2.79103 10.4678 2.87482 10.4111 2.96729 10.3726C3.05976 10.334 3.15898 10.3144 3.25916 10.3149C3.35934 10.3153 3.45842 10.3358 3.55054 10.3752C3.64267 10.4145 3.72603 10.472 3.7956 10.544C3.86517 10.6161 3.91957 10.7014 3.95563 10.7949L4.09864 11.1399L4.24964 11.5049L6.00861 10.7589C6.62961 10.4949 7.25164 10.2309 7.78364 10.0079L5.77363 5.13989C5.73508 5.0461 5.71589 4.94548 5.71729 4.84408C5.71869 4.74268 5.74063 4.64262 5.78174 4.54992C5.82286 4.45722 5.88232 4.37381 5.95655 4.30472C6.03077 4.23563 6.11823 4.18228 6.21363 4.1479C6.39863 4.0809 6.57862 4.0119 6.75562 3.9479C7.18573 3.77162 7.62701 3.62396 8.0766 3.5059C8.52037 3.41724 8.97927 3.44057 9.41175 3.57379C9.84423 3.707 10.2366 3.94591 10.5536 4.2689C11.7326 5.3019 12.9086 6.3379 14.0626 7.3999C15.1966 6.9289 16.1716 6.5059 17.1906 6.1379C18.1733 5.73959 19.273 5.74246 20.2536 6.1459C20.5504 6.2993 20.8114 6.51377 21.0195 6.77522C21.2275 7.03668 21.3779 7.3392 21.4606 7.6629C21.9096 9.2629 20.6786 10.6009 19.3436 11.1629C16.1896 12.4929 12.7936 13.9149 9.34363 15.2989C8.67768 15.576 7.96485 15.7233 7.2436 15.7329ZM4.89863 12.8589C5.78063 14.2339 7.08459 14.5849 8.78559 13.9029C12.2256 12.5229 15.6126 11.1029 18.7616 9.7769C19.3856 9.5139 20.2346 8.8409 20.0166 8.0639C19.9892 7.93894 19.9348 7.82148 19.8572 7.71974C19.7797 7.618 19.6809 7.53443 19.5676 7.47489C18.9587 7.26277 18.2922 7.2874 17.7006 7.54389C16.7266 7.89589 15.7766 8.3089 14.7236 8.7729C14.4517 8.91408 14.1415 8.96367 13.8392 8.9143C13.5368 8.86493 13.2585 8.71923 13.0456 8.4989C11.9026 7.4459 10.7346 6.4179 9.56562 5.3929C9.00462 4.9019 8.6656 4.90489 8.4256 4.96089C8.09558 5.04762 7.77128 5.15483 7.45459 5.2819L9.45459 10.1249C9.53048 10.3084 9.53046 10.5146 9.45453 10.6981C9.37861 10.8817 9.23301 11.0276 9.04963 11.1039C8.42663 11.3619 7.50962 11.7509 6.59662 12.1399L4.89863 12.8589Z" fill="#000000" />
<path d="M13.5759 20.5459H5.16992C4.97101 20.5459 4.78024 20.4669 4.63959 20.3262C4.49894 20.1856 4.41992 19.9948 4.41992 19.7959C4.41992 19.597 4.49894 19.4062 4.63959 19.2656C4.78024 19.1249 4.97101 19.0459 5.16992 19.0459H13.5759C13.7748 19.0459 13.9656 19.1249 14.1063 19.2656C14.2469 19.4062 14.3259 19.597 14.3259 19.7959C14.3259 19.9948 14.2469 20.1856 14.1063 20.3262C13.9656 20.4669 13.7748 20.5459 13.5759 20.5459V20.5459Z" fill="#000000" />
<path d="M17.3082 17.0938C17.1586 17.0934 17.0126 17.0482 16.889 16.9641C16.7653 16.88 16.6695 16.7609 16.6141 16.622C16.5586 16.4831 16.5459 16.3308 16.5776 16.1847C16.6094 16.0385 16.6841 15.9052 16.7922 15.8018L18.7692 13.9298C18.9084 13.798 19.0929 13.7246 19.2847 13.7246C19.4764 13.7246 19.6609 13.798 19.8002 13.9298L21.7792 15.8018C21.9156 15.9406 21.9928 16.1268 21.9947 16.3213C21.9965 16.5158 21.9228 16.7035 21.789 16.8447C21.6553 16.986 21.472 17.0698 21.2776 17.0786C21.0833 17.0874 20.8931 17.0205 20.7472 16.8918L19.2842 15.5018L17.8241 16.8839C17.6857 17.0179 17.5008 17.0931 17.3082 17.0938Z" fill="#000000" />
<path d="M19.2871 20.5466C19.0882 20.5466 18.8974 20.4676 18.7568 20.327C18.6161 20.1863 18.5371 19.9956 18.5371 19.7966V14.4736C18.5371 14.2747 18.6161 14.084 18.7568 13.9433C18.8974 13.8027 19.0882 13.7236 19.2871 13.7236C19.486 13.7236 19.6768 13.8027 19.8174 13.9433C19.9581 14.084 20.0371 14.2747 20.0371 14.4736V19.7966C20.0371 19.9956 19.9581 20.1863 19.8174 20.327C19.6768 20.4676 19.486 20.5466 19.2871 20.5466Z" fill="#000000" />
</svg>