<svg width="24px"  height="24px"  viewBox="0 0 25 25" fill="none" xmlns="http://www.w3.org/2000/svg">
<path fill-rule="evenodd" clip-rule="evenodd" d="M3.24052 11.0106C9.05113 8.84023 15.4499 8.84023 21.2605 11.0106C21.7518 11.1941 22.0363 11.7077 21.9315 12.2213L20.3605 19.9259C20.2778 20.3318 19.8817 20.5937 19.4758 20.5109C19.07 20.4282 18.808 20.0321 18.8908 19.6262L20.387 12.2885C15.1248 10.4142 9.3762 10.4142 4.11401 12.2886L5.61998 19.6759C5.70272 20.0818 5.44077 20.4779 5.0349 20.5606C4.62904 20.6434 4.23295 20.3814 4.15021 19.9756L2.56946 12.2213C2.56946 12.2213 2.56945 12.2213 2.56945 12.2213C2.4647 11.7075 2.74942 11.194 3.24051 11.0106L3.24052 11.0106ZM20.4617 11.9222L20.4618 11.9216L20.4618 11.9216C20.4617 11.9218 20.4617 11.922 20.4617 11.9222Z" fill="#000000" />
<path fill-rule="evenodd" clip-rule="evenodd" d="M7.84084 7.35544L7.84105 10.63C7.84108 11.0442 7.50531 11.38 7.0911 11.3801C6.67688 11.3801 6.34108 11.0443 6.34105 10.6301L6.34082 7.05633C6.34079 6.57053 6.65912 6.14211 7.12425 6.00195L7.12426 6.00194C10.4643 4.99545 14.0269 4.99545 17.367 6.00194L17.367 6.00196C17.8318 6.14205 18.1505 6.5702 18.1505 7.05624C18.1505 7.05625 18.1505 7.05626 18.1505 7.05628L18.1507 10.63C18.1507 11.0442 17.8149 11.38 17.4007 11.3801C16.9865 11.3801 16.6507 11.0443 16.6507 10.6301L16.6505 7.35547C13.7701 6.54428 10.7213 6.54427 7.84084 7.35544Z" fill="#000000" />
<path fill-rule="evenodd" clip-rule="evenodd" d="M12.251 9.42188C12.6652 9.42188 13.001 9.75766 13.001 10.1719V19.7959C13.001 20.2101 12.6652 20.5459 12.251 20.5459C11.8368 20.5459 11.501 20.2101 11.501 19.7959V10.1719C11.501 9.75766 11.8368 9.42188 12.251 9.42188Z" fill="#000000" />
<path fill-rule="evenodd" clip-rule="evenodd" d="M10.5069 4.38437L10.5069 5.97158C10.507 6.38579 10.1712 6.7216 9.75697 6.72162C9.34276 6.72164 9.00696 6.38587 9.00694 5.97166L9.00684 4.00586C9.00684 3.56356 9.29646 3.17282 9.72074 3.04497M10.5069 4.38437C11.6487 4.10233 12.8422 4.10234 13.9841 4.38441L13.9841 5.97166C13.9842 6.38587 14.32 6.72164 14.7342 6.72162C15.1484 6.7216 15.4842 6.38579 15.4841 5.97158L15.484 4.00578C15.4836 3.56404 15.1944 3.17283 14.77 3.04497C13.1235 2.54881 11.3673 2.54881 9.72074 3.04497" fill="#000000" />
<path fill-rule="evenodd" clip-rule="evenodd" d="M4.10743 21.024C4.05433 21.0633 3.9986 21.1046 3.93918 21.1477C3.60378 21.3907 3.13485 21.3159 2.89178 20.9805C2.64872 20.6451 2.72357 20.1761 3.05897 19.9331C3.10596 19.899 3.15461 19.8625 3.20542 19.8243C3.65346 19.4879 4.26934 19.0254 5.39608 19.0254C5.93202 19.0254 6.36323 19.127 6.73574 19.2936C7.08404 19.4494 7.35842 19.6539 7.56728 19.8096C7.57331 19.8141 7.57928 19.8186 7.5852 19.823C7.80969 19.9903 7.96509 20.1029 8.15086 20.1859C8.32248 20.2627 8.54402 20.3234 8.87808 20.3234C9.21182 20.3234 9.43312 20.2627 9.60458 20.186C9.79021 20.1029 9.94551 19.9904 10.17 19.8231C10.1759 19.8187 10.1818 19.8143 10.1878 19.8098C10.3966 19.654 10.671 19.4494 11.0194 19.2936C11.3919 19.127 11.8231 19.0254 12.3591 19.0254C12.8952 19.0254 13.3265 19.1269 13.699 19.2936C14.0474 19.4494 14.3217 19.654 14.5304 19.8097L14.5484 19.8231C14.7727 19.9904 14.928 20.1029 15.1136 20.186C15.2851 20.2627 15.5067 20.3234 15.8411 20.3234C16.1758 20.3234 16.3976 20.2627 16.5693 20.1859C16.7551 20.1028 16.9105 19.9903 17.135 19.823L17.1529 19.8096C17.3617 19.6539 17.6362 19.4493 17.9846 19.2935C18.3573 19.1269 18.7887 19.0254 19.3251 19.0254C19.3981 19.0254 19.4689 19.0273 19.5376 19.0309C19.5676 19.0273 19.5981 19.0254 19.6291 19.0254C19.7112 19.0254 19.7903 19.0386 19.8642 19.063C20.6003 19.1704 21.0646 19.4891 21.4452 19.7697C21.7786 20.0156 21.8496 20.4851 21.6037 20.8185C21.3579 21.1519 20.8884 21.2228 20.555 20.977C20.1911 20.7087 19.9166 20.5254 19.3251 20.5254C18.9904 20.5254 18.7686 20.5861 18.5969 20.6629C18.411 20.746 18.2557 20.8585 18.0312 21.0258L18.0133 21.0391C17.8044 21.1949 17.53 21.3995 17.1815 21.5553C16.8088 21.7219 16.3774 21.8234 15.8411 21.8234C15.305 21.8234 14.8737 21.7219 14.5011 21.5552C14.1528 21.3994 13.8785 21.1948 13.6697 21.039L13.6518 21.0257C13.4274 20.8584 13.2722 20.7459 13.0865 20.6628C12.915 20.5861 12.6934 20.5254 12.3591 20.5254C12.025 20.5254 11.8035 20.5861 11.6319 20.6628C11.4462 20.7459 11.2908 20.8585 11.0664 21.0257C11.0604 21.0302 11.0544 21.0347 11.0483 21.0392C10.8396 21.1949 10.5654 21.3994 10.2173 21.5552C9.8449 21.7218 9.41383 21.8234 8.87808 21.8234C8.34213 21.8234 7.91092 21.7218 7.53841 21.5552C7.19011 21.3994 6.91574 21.1949 6.70688 21.0392C6.70085 21.0347 6.69488 21.0302 6.68896 21.0258C6.46446 20.8585 6.30906 20.7459 6.12329 20.6628C5.95168 20.5861 5.73014 20.5254 5.39608 20.5254C4.78084 20.5254 4.52504 20.7148 4.10743 21.024Z" fill="#000000" />
</svg>