<svg width="24px"  height="24px"  viewBox="0 0 25 25" fill="none" xmlns="http://www.w3.org/2000/svg">
<path fill-rule="evenodd" clip-rule="evenodd" d="M12.2432 7.92773C12.6574 7.92773 12.9932 8.26352 12.9932 8.67773V21.0135C12.9932 21.4277 12.6574 21.7635 12.2432 21.7635C11.829 21.7635 11.4932 21.4277 11.4932 21.0135V8.67773C11.4932 8.26352 11.829 7.92773 12.2432 7.92773Z" fill="#000000" />
<path fill-rule="evenodd" clip-rule="evenodd" d="M8.08691 6.28223C7.94884 6.28223 7.83691 6.39415 7.83691 6.53223V9.90476C7.83691 10.319 7.50113 10.6548 7.08691 10.6548C6.6727 10.6548 6.33691 10.319 6.33691 9.90476V6.53223C6.33691 5.56572 7.12043 4.78223 8.08691 4.78223H16.3966C17.3631 4.78223 18.1466 5.56573 18.1466 6.53223V9.90476C18.1466 10.319 17.8108 10.6548 17.3966 10.6548C16.9824 10.6548 16.6466 10.319 16.6466 9.90476V6.53223C16.6466 6.39415 16.5347 6.28223 16.3966 6.28223H8.08691Z" fill="#000000" />
<path fill-rule="evenodd" clip-rule="evenodd" d="M12.6912 9.4221C12.4071 9.31503 12.0937 9.31503 11.8096 9.4221L4.31537 12.2464C4.31536 12.2464 4.31536 12.2465 4.31536 12.2465C4.20044 12.2898 4.13403 12.4101 4.15857 12.5303L5.07839 17.0394C5.33555 18.3 6.31216 19.2903 7.56906 19.5649L11.5564 20.4361C12.0135 20.536 12.4868 20.536 12.9439 20.4361L16.9314 19.5649C16.9314 19.5649 16.9314 19.5649 16.9314 19.5649C18.1883 19.2903 19.1649 18.3001 19.422 17.0396L19.422 17.0396L20.3422 12.5304C20.3668 12.4101 20.3004 12.2898 20.1854 12.2465L20.4499 11.5446L20.1854 12.2465L12.6912 9.4221C12.6912 9.4221 12.6912 9.4221 12.6912 9.4221ZM11.2806 8.01847C11.9057 7.78291 12.5951 7.78291 13.2202 8.01847L13.2202 8.01847L20.7144 10.8428C21.5186 11.1459 21.9838 11.9882 21.8119 12.8303L20.8918 17.3395C20.5159 19.1818 19.0885 20.629 17.2516 21.0304L17.2516 21.0304L13.2641 21.9016L13.2641 21.9016C12.596 22.0475 11.9043 22.0475 11.2362 21.9016L11.2362 21.9016L7.24888 21.0304C5.41183 20.629 3.98451 19.1816 3.60866 17.3393L4.34352 17.1893L3.60866 17.3392L2.68884 12.8301L3.36819 12.6916L2.68884 12.8301C2.51705 11.988 2.98218 11.1459 3.78636 10.8428L3.78637 10.8428L11.2806 8.01847L11.2806 8.01847Z" fill="#000000" />
<path fill-rule="evenodd" clip-rule="evenodd" d="M9.65527 4.23535C9.65527 3.26887 10.4388 2.48535 11.4053 2.48535H13.0908C14.0573 2.48535 14.8408 3.26887 14.8408 4.23535V5.53223C14.8408 5.94645 14.505 6.28223 14.0908 6.28223C13.6766 6.28223 13.3408 5.94645 13.3408 5.53223V4.23535C13.3408 4.09728 13.2289 3.98535 13.0908 3.98535H11.4053C11.2672 3.98535 11.1553 4.09728 11.1553 4.23535V5.53223C11.1553 5.94645 10.8195 6.28223 10.4053 6.28223C9.99106 6.28223 9.65527 5.94645 9.65527 5.53223V4.23535Z" fill="#000000" />
</svg>