<svg width="24px"  height="24px"  viewBox="0 0 25 24" fill="none" xmlns="http://www.w3.org/2000/svg">
<path fill-rule="evenodd" clip-rule="evenodd" d="M15.0591 9.24311C15.352 9.536 15.352 10.0109 15.0591 10.3038L10.6036 14.7593C10.3107 15.0522 9.83581 15.0522 9.54291 14.7593C9.25002 14.4664 9.25002 13.9915 9.54291 13.6986L13.9984 9.24311C14.2913 8.95021 14.7662 8.95021 15.0591 9.24311Z" fill="#000000" />
<path fill-rule="evenodd" clip-rule="evenodd" d="M13.4902 14.1666C13.4902 13.6542 13.9056 13.2383 14.4186 13.2383C14.9309 13.2383 15.347 13.6536 15.347 14.1666C15.347 14.6797 14.9309 15.095 14.4186 15.095C13.9056 15.095 13.4902 14.6791 13.4902 14.1666Z" fill="#000000" />
<path fill-rule="evenodd" clip-rule="evenodd" d="M9.1543 9.83071C9.1543 9.31823 9.56966 8.90234 10.0826 8.90234C10.595 8.90234 11.0111 9.31763 11.0111 9.83071C11.0111 10.3438 10.595 10.7591 10.0826 10.7591C9.56966 10.7591 9.1543 10.3432 9.1543 9.83071Z" fill="#000000" />
<path fill-rule="evenodd" clip-rule="evenodd" d="M18.3277 6.21767L18.0329 6.25698C17.5205 6.32529 17.2567 6.36047 16.993 6.39206C13.8425 6.7695 10.6581 6.7695 7.50757 6.39206C7.24393 6.36047 6.98006 6.32529 6.46776 6.25698L6.1729 6.21767C6.10728 7.38921 5.21601 8.34021 4.07152 8.49827C4.51794 10.8119 4.51794 13.1896 4.07152 15.5033C5.21601 15.6613 6.10728 16.6123 6.1729 17.7839L6.46752 17.7446C6.98002 17.6763 7.24388 17.6411 7.50757 17.6095C10.6581 17.232 13.8425 17.232 16.993 17.6095C17.2567 17.6411 17.5206 17.6763 18.0331 17.7446L18.3277 17.7839C18.3933 16.6123 19.2846 15.6613 20.4291 15.5033C19.9826 13.1896 19.9826 10.8119 20.4291 8.49827C19.2846 8.34022 18.3933 7.38921 18.3277 6.21767ZM18.3993 4.69484C19.1536 4.59427 19.8238 5.18104 19.8238 5.94197V6.07888C19.8238 6.5994 20.2458 7.02136 20.7663 7.02136H20.8376C21.5781 7.02136 22.1299 7.70442 21.9741 8.42833C21.4676 10.783 21.4676 13.2185 21.9741 15.5732C22.1299 16.2971 21.5781 16.9802 20.8376 16.9802H20.7663C20.2458 16.9802 19.8238 17.4021 19.8238 17.9227V18.0596C19.8238 18.8205 19.1536 19.4073 18.3993 19.3067L17.8411 19.2323C17.3208 19.1629 17.0672 19.1291 16.8146 19.0988C13.7826 18.7356 10.718 18.7356 7.68599 19.0988C7.4334 19.1291 7.17982 19.1629 6.65945 19.2323L6.10123 19.3067C5.34698 19.4073 4.67678 18.8205 4.67678 18.0596V17.9227C4.67678 17.4021 4.25482 16.9802 3.7343 16.9802H3.66294C2.92247 16.9802 2.37072 16.2971 2.52644 15.5732C3.03297 13.2185 3.03297 10.783 2.52644 8.42833C2.37072 7.70442 2.92247 7.02136 3.66294 7.02136H3.7343C4.25482 7.02136 4.67678 6.5994 4.67678 6.07888V5.94197C4.67678 5.18104 5.34698 4.59427 6.10123 4.69484L6.65945 4.76927C7.17979 4.83865 7.43341 4.87245 7.68599 4.90271C10.718 5.26595 13.7826 5.26595 16.8146 4.90271C17.0672 4.87245 17.3208 4.83865 17.8411 4.76927L18.3993 4.69484Z" fill="#000000" />
</svg>