<svg width="24px"  height="24px"  viewBox="0 0 25 24" fill="none" xmlns="http://www.w3.org/2000/svg">
<path d="M10.9167 21.752C10.3219 21.7515 9.73699 21.6001 9.21667 21.312C8.66851 20.954 8.17163 20.523 7.73969 20.031C7.61351 19.9133 7.49717 19.7856 7.39172 19.649C7.29247 19.5235 7.22065 19.3785 7.18103 19.2234C7.14141 19.0684 7.13482 18.9067 7.16168 18.749C7.20977 18.4712 7.28103 18.1979 7.37469 17.932C7.41757 17.7869 7.42169 17.633 7.3866 17.4858C7.35151 17.3386 7.27842 17.2032 7.17468 17.093C7.06154 16.9757 6.91821 16.8919 6.76044 16.851C6.60267 16.81 6.43662 16.8135 6.2807 16.861L6.16272 16.898C5.94792 16.9766 5.72632 17.0352 5.50073 17.073C5.34454 17.1003 5.18432 17.0948 5.0304 17.0567C4.87647 17.0187 4.73217 16.9489 4.60669 16.852C4.48397 16.7624 4.36954 16.662 4.26471 16.552C3.75417 16.1061 3.30643 15.5932 2.93372 15.027C2.6454 14.5068 2.49414 13.9218 2.49414 13.327C2.49414 12.7322 2.6454 12.1472 2.93372 11.627C3.29426 11.0742 3.72898 10.5735 4.22571 10.139L10.3837 3.97998C10.8215 3.47966 11.3263 3.04221 11.8837 2.67999C12.4025 2.39283 12.9857 2.24219 13.5787 2.24219C14.1716 2.24219 14.7549 2.39283 15.2737 2.67999C15.8277 3.04005 16.3295 3.47481 16.7647 3.97198C16.8912 4.09049 17.0073 4.21965 17.1117 4.358C17.209 4.48441 17.2789 4.62977 17.3168 4.78476C17.3547 4.93975 17.3598 5.10093 17.3317 5.258C17.2867 5.49819 17.2222 5.73431 17.1387 5.96399C17.0771 6.12338 17.0623 6.29711 17.0964 6.4646C17.1304 6.63208 17.2117 6.78631 17.3307 6.909C17.443 7.02292 17.5847 7.10351 17.7401 7.14182C17.8954 7.18012 18.0583 7.17465 18.2107 7.12601C18.4647 7.03237 18.7263 6.96109 18.9927 6.91299C19.1498 6.88341 19.3114 6.88781 19.4667 6.92593C19.6219 6.96406 19.7672 7.03502 19.8927 7.134C20.0229 7.23162 20.1443 7.34034 20.2557 7.45898C20.7602 7.89979 21.2016 8.4079 21.5677 8.96899C21.855 9.48791 22.0058 10.0713 22.0058 10.6645C22.0058 11.2576 21.855 11.8411 21.5677 12.36C21.205 12.9171 20.7676 13.4218 20.2677 13.86L14.1117 20.016C13.6762 20.512 13.1757 20.9469 12.6237 21.309C12.1015 21.5991 11.5141 21.7515 10.9167 21.752ZM8.67572 18.842C8.70472 18.873 8.7377 18.905 8.7757 18.942C9.12653 19.3358 9.51919 19.6902 9.94672 19.999C10.2449 20.1638 10.58 20.2502 10.9207 20.2502C11.2614 20.2502 11.5965 20.1638 11.8947 19.999C12.3115 19.6979 12.6943 19.3526 13.0367 18.969L19.2037 12.802C19.5938 12.4548 19.9446 12.0658 20.2497 11.642C20.4143 11.3443 20.5006 11.0097 20.5006 10.6695C20.5006 10.3293 20.4143 9.9947 20.2497 9.69699C19.9466 9.27547 19.5979 8.8888 19.2097 8.54401L19.0957 8.431C19.0097 8.454 18.8957 8.48899 18.7417 8.53699C18.3183 8.6819 17.863 8.70619 17.4266 8.60712C16.9902 8.50804 16.59 8.28951 16.2707 7.97598C15.9645 7.67008 15.7482 7.28605 15.6452 6.86569C15.5422 6.44533 15.5566 6.00475 15.6867 5.59198C15.7517 5.38098 15.7947 5.24501 15.8207 5.15601C15.7977 5.13201 15.7717 5.10498 15.7397 5.07498C15.383 4.67332 14.9829 4.31246 14.5467 3.99899C14.2489 3.83423 13.9141 3.7478 13.5737 3.7478C13.2334 3.7478 12.8985 3.83423 12.6007 3.99899C12.1792 4.30164 11.7924 4.65011 11.4477 5.03799L5.29071 11.195C4.90146 11.5417 4.55136 11.93 4.2467 12.353C4.08167 12.6513 3.99512 12.9866 3.99512 13.3275C3.99512 13.6684 4.08167 14.0037 4.2467 14.302C4.55188 14.7246 4.90268 15.1122 5.29272 15.458L5.39972 15.564C5.47972 15.543 5.58372 15.511 5.72272 15.464L5.83868 15.429C6.25145 15.2998 6.69177 15.2863 7.11163 15.3902C7.5315 15.4941 7.91482 15.7112 8.21973 16.018C8.51508 16.321 8.72536 16.6964 8.82947 17.1065C8.93357 17.5166 8.92778 17.9469 8.81268 18.354C8.74668 18.584 8.70272 18.74 8.67572 18.842Z" fill="#000000" />
<path d="M12.3105 16.174C12.1116 16.174 11.9209 16.095 11.7802 15.9543C11.6396 15.8137 11.5605 15.6229 11.5605 15.424V8.5C11.5605 8.30109 11.6396 8.11032 11.7802 7.96967C11.9209 7.82901 12.1116 7.75 12.3105 7.75C12.5095 7.75 12.7002 7.82901 12.8409 7.96967C12.9815 8.11032 13.0605 8.30109 13.0605 8.5V15.426C13.06 15.6246 12.9807 15.8148 12.8401 15.955C12.6996 16.0953 12.5091 16.174 12.3105 16.174Z" fill="#000000" />
<path d="M15.6452 12.9465C15.4272 12.9456 15.2162 12.8691 15.0483 12.7301C14.8804 12.5911 14.7659 12.3981 14.7243 12.1841C14.6827 11.9701 14.7167 11.7483 14.8204 11.5565C14.9241 11.3647 15.091 11.2148 15.2929 11.1324C15.4947 11.05 15.7188 11.0401 15.9271 11.1045C16.1354 11.1689 16.3149 11.3035 16.4351 11.4854C16.5552 11.6673 16.6085 11.8853 16.5859 12.1021C16.5634 12.319 16.4662 12.5213 16.3112 12.6745C16.1333 12.8489 15.8943 12.9465 15.6452 12.9465Z" fill="#000000" />
<path d="M8.89809 12.9491C8.71112 12.9493 8.5283 12.894 8.37282 12.7902C8.21734 12.6863 8.09625 12.5387 8.0248 12.3659C7.95335 12.1931 7.93478 12.003 7.97152 11.8196C8.00825 11.6363 8.09859 11.468 8.2311 11.3361C8.40903 11.1608 8.64884 11.0625 8.89864 11.0625C9.14844 11.0625 9.38819 11.1608 9.56612 11.3361C9.69887 11.4683 9.78927 11.6369 9.82589 11.8206C9.8625 12.0043 9.84363 12.1948 9.77169 12.3677C9.69974 12.5407 9.57799 12.6883 9.42189 12.7918C9.26579 12.8954 9.08241 12.9501 8.8951 12.9491H8.89809Z" fill="#000000" />
</svg>