<svg width="24px"  height="24px"  viewBox="0 0 25 24" fill="none" xmlns="http://www.w3.org/2000/svg">
<path fill-rule="evenodd" clip-rule="evenodd" d="M7.20275 6.18359C6.67656 6.18359 6.25 6.61015 6.25 7.13634V7.17459C6.25 7.94384 5.6264 8.56744 4.85714 8.56744C4.38376 8.56744 4 8.9512 4 9.42458V14.578C4 15.0514 4.38376 15.4351 4.85714 15.4351C5.6264 15.4351 6.25 16.0587 6.25 16.828V16.8662C6.25 17.3924 6.67656 17.819 7.20275 17.819H17.2973C17.8234 17.819 18.25 17.3924 18.25 16.8662V16.828C18.25 16.0587 18.8736 15.4351 19.6429 15.4351C20.1162 15.4351 20.5 15.0514 20.5 14.578V9.42459C20.5 8.9512 20.1162 8.56744 19.6429 8.56744C18.8736 8.56744 18.25 7.94384 18.25 7.17459V7.13634C18.25 6.61015 17.8234 6.18359 17.2973 6.18359H7.20275ZM4.75089 7.0698C4.78615 5.74595 5.87039 4.68359 7.20275 4.68359H17.2973C18.6296 4.68359 19.7139 5.74594 19.7491 7.0698C21.0016 7.12536 22 8.15838 22 9.42459V14.578C22 15.8442 21.0016 16.8772 19.7491 16.9328C19.7138 18.2566 18.6296 19.319 17.2973 19.319H7.20275C5.87039 19.319 4.78615 18.2566 4.75089 16.9328C3.49839 16.8772 2.5 15.8442 2.5 14.578V9.42458C2.5 8.15838 3.49839 7.12536 4.75089 7.0698Z" fill="#000000" />
<path fill-rule="evenodd" clip-rule="evenodd" d="M15.0345 9.26654C15.3274 9.55944 15.3274 10.0343 15.0345 10.3272L10.627 14.7347C10.3341 15.0276 9.85924 15.0276 9.56635 14.7347C9.27346 14.4418 9.27346 13.967 9.56635 13.6741L13.9739 9.26654C14.2668 8.97365 14.7416 8.97365 15.0345 9.26654Z" fill="#000000" />
<path fill-rule="evenodd" clip-rule="evenodd" d="M13.4678 14.1452C13.4678 13.6338 13.8823 13.2188 14.3942 13.2188C14.9055 13.2188 15.3207 13.6332 15.3207 14.1452C15.3207 14.6572 14.9055 15.0716 14.3942 15.0716C13.8823 15.0716 13.4678 14.6566 13.4678 14.1452Z" fill="#000000" />
<path fill-rule="evenodd" clip-rule="evenodd" d="M9.17871 9.85613C9.17871 9.34471 9.59321 8.92969 10.1051 8.92969C10.6164 8.92969 11.0316 9.34411 11.0316 9.85613C11.0316 10.3682 10.6164 10.7826 10.1051 10.7826C9.59321 10.7826 9.17871 10.3676 9.17871 9.85613Z" fill="#000000" />
</svg>