<svg width="24px"  height="24px"  viewBox="0 0 25 24" fill="none" xmlns="http://www.w3.org/2000/svg">
<path d="M12.2471 16.0039C12.0482 16.0039 11.8574 15.9249 11.7167 15.7842C11.5761 15.6436 11.4971 15.4528 11.4971 15.2539V8.75391C11.4971 8.55499 11.5761 8.36422 11.7167 8.22357C11.8574 8.08292 12.0482 8.00391 12.2471 8.00391C12.446 8.00391 12.6368 8.08292 12.7774 8.22357C12.9181 8.36422 12.9971 8.55499 12.9971 8.75391V15.2539C12.9971 15.4528 12.9181 15.6436 12.7774 15.7842C12.6368 15.9249 12.446 16.0039 12.2471 16.0039Z" fill="#000000" />
<path d="M14.9014 13.6157C14.7272 13.616 14.5583 13.5552 14.4244 13.4437L12.2464 11.6437L10.0684 13.4437C9.99247 13.5064 9.90487 13.5535 9.81069 13.5824C9.71651 13.6112 9.61758 13.6212 9.51952 13.6119C9.42146 13.6025 9.32619 13.5739 9.23919 13.5277C9.15218 13.4815 9.07515 13.4186 9.01244 13.3427C8.94973 13.2667 8.9026 13.1791 8.87374 13.0849C8.84488 12.9907 8.83485 12.8918 8.84423 12.7937C8.85361 12.6957 8.8822 12.6004 8.9284 12.5134C8.97459 12.4264 9.03745 12.3494 9.11342 12.2867L11.7684 10.0967C11.9032 9.98617 12.0721 9.92578 12.2464 9.92578C12.4207 9.92578 12.5896 9.98617 12.7244 10.0967L15.3794 12.2867C15.4982 12.3852 15.5838 12.518 15.6244 12.6669C15.6651 12.8158 15.6589 12.9736 15.6066 13.1188C15.5544 13.2641 15.4587 13.3897 15.3325 13.4786C15.2063 13.5675 15.0558 13.6154 14.9014 13.6157Z" fill="#000000" />
<path d="M13.9305 16.0039H10.5635C10.3646 16.0039 10.1738 15.9249 10.0332 15.7842C9.89252 15.6436 9.81348 15.4528 9.81348 15.2539C9.81348 15.055 9.89252 14.8642 10.0332 14.7236C10.1738 14.5829 10.3646 14.5039 10.5635 14.5039H13.9305C14.1294 14.5039 14.3202 14.5829 14.4608 14.7236C14.6015 14.8642 14.6805 15.055 14.6805 15.2539C14.6805 15.4528 14.6015 15.6436 14.4608 15.7842C14.3202 15.9249 14.1294 16.0039 13.9305 16.0039Z" fill="#000000" />
<path d="M15.1373 21.7501C14.9475 21.7569 14.7574 21.7472 14.5693 21.7211C14.3978 21.7007 14.2327 21.6439 14.0851 21.5544C13.9374 21.4648 13.8106 21.3447 13.7133 21.2021C13.5598 20.9766 13.426 20.7384 13.3133 20.4901C13.2241 20.2933 13.082 20.125 12.9028 20.0043C12.7236 19.8836 12.5143 19.8151 12.2984 19.8065C12.0825 19.7979 11.8684 19.8495 11.6801 19.9556C11.4918 20.0616 11.3368 20.218 11.2323 20.4071C11.1031 20.682 10.9533 20.9468 10.7843 21.1991C10.6862 21.3425 10.5587 21.4633 10.4102 21.5535C10.2617 21.6436 10.0957 21.7011 9.92328 21.7221C9.73632 21.7464 9.5477 21.7554 9.35928 21.7491C8.5963 21.8019 7.82966 21.7488 7.08127 21.5911C6.43451 21.4055 5.84552 21.0587 5.36957 20.5831C4.89362 20.1075 4.54634 19.5187 4.36029 18.8721C4.20529 18.1234 4.15246 17.357 4.20328 16.5941V7.4001C4.15271 6.64053 4.20519 5.87761 4.35928 5.13211C4.54484 4.48366 4.89246 3.89314 5.36939 3.41622C5.84631 2.93929 6.43682 2.59167 7.08527 2.40612C7.83066 2.25125 8.59365 2.19842 9.35327 2.2491C9.54136 2.24242 9.7297 2.25146 9.91629 2.27611C10.0857 2.29359 10.2493 2.34728 10.3961 2.43355C10.543 2.51982 10.6696 2.63665 10.7673 2.77611C10.9515 3.04163 11.1146 3.32115 11.2553 3.61211C11.3511 3.78608 11.4903 3.93225 11.6595 4.03635C11.8286 4.14046 12.0218 4.19893 12.2203 4.2061C12.4354 4.2124 12.6479 4.15809 12.8336 4.04934C13.0192 3.94058 13.1706 3.78179 13.2703 3.59111C13.3991 3.3172 13.5486 3.05345 13.7173 2.80211C13.8154 2.65875 13.9429 2.53794 14.0914 2.44776C14.2398 2.35757 14.4058 2.30009 14.5783 2.27912C14.7552 2.25515 14.9338 2.24579 15.1123 2.25112C15.8824 2.19711 16.6563 2.24926 17.4123 2.40612C18.0605 2.5916 18.651 2.93894 19.128 3.41547C19.6051 3.892 19.9531 4.48205 20.1393 5.13012C20.2943 5.87751 20.3471 6.64251 20.2963 7.40412V16.5911C20.3477 17.3548 20.2942 18.122 20.1373 18.8711C19.9514 19.5171 19.6047 20.1053 19.1295 20.5807C18.6543 21.0561 18.0662 21.403 17.4203 21.5891C16.6701 21.7463 15.902 21.8005 15.1373 21.7501ZM14.8763 20.2441C14.9563 20.2511 15.0313 20.2501 15.1373 20.2501C15.7597 20.2892 16.3846 20.2556 16.9993 20.1501C17.4027 20.0338 17.7699 19.8167 18.0662 19.5193C18.3626 19.2219 18.5784 18.8539 18.6933 18.4501C18.7995 17.8358 18.8331 17.2112 18.7933 16.5891V7.4021C18.8325 6.78165 18.7989 6.15876 18.6933 5.54612C18.5773 5.14186 18.3604 4.77372 18.063 4.47634C17.7657 4.17895 17.3975 3.96207 16.9933 3.8461C16.38 3.74323 15.7571 3.7097 15.1363 3.74611C15.0163 3.74611 14.9363 3.74611 14.8863 3.74611C14.8183 3.85511 14.7343 4.01511 14.6063 4.25711C14.3849 4.69312 14.0474 5.05946 13.6309 5.31569C13.2144 5.57193 12.7353 5.70808 12.2463 5.70911C11.774 5.70308 11.3116 5.57283 10.9056 5.33147C10.4996 5.09011 10.1642 4.74613 9.93329 4.33411C9.77529 4.04311 9.67429 3.85611 9.61429 3.75611C9.53229 3.74911 9.45227 3.75011 9.34827 3.75011C8.72881 3.71179 8.107 3.74535 7.49527 3.85012C7.09079 3.96566 6.72244 4.18238 6.42499 4.47983C6.12754 4.77728 5.91083 5.14564 5.79529 5.55011C5.69038 6.1615 5.65682 6.78298 5.69528 7.4021V16.5951C5.65618 17.2172 5.68975 17.8418 5.79529 18.4561C5.91092 18.8605 6.12767 19.2289 6.42511 19.5263C6.72255 19.8237 7.09084 20.0405 7.49527 20.1561C8.10932 20.2582 8.73282 20.2918 9.35428 20.2561C9.47228 20.2561 9.55426 20.2561 9.60626 20.2561C9.67426 20.1481 9.75627 19.9891 9.88327 19.7561C10.1027 19.3214 10.4378 18.9556 10.8516 18.6989C11.2654 18.4422 11.742 18.3045 12.2289 18.301C12.7159 18.2975 13.1943 18.4283 13.6118 18.679C14.0293 18.9297 14.3696 19.2906 14.5953 19.7221C14.7463 20.0001 14.8263 20.1571 14.8763 20.2441Z" fill="#000000" />
</svg>