<svg width="24px"  height="24px"  viewBox="0 0 25 24" fill="none" xmlns="http://www.w3.org/2000/svg">
<path d="M16.845 20.0455H7.65105C6.89109 20.0963 6.12778 20.0435 5.38207 19.8885C4.73378 19.703 4.14336 19.3555 3.66646 18.8788C3.18955 18.402 2.84184 17.8118 2.65605 17.1635C2.50202 16.4177 2.44953 15.6544 2.50005 14.8945C2.49335 14.7064 2.50239 14.5181 2.52705 14.3315C2.5448 14.1624 2.59861 13.9989 2.68486 13.8523C2.77111 13.7057 2.8878 13.5792 3.02705 13.4815C3.28941 13.3001 3.56484 13.1383 3.85106 12.9975C4.03517 12.8998 4.18905 12.7537 4.29607 12.5748C4.40309 12.3959 4.45916 12.1912 4.45824 11.9828C4.45731 11.7744 4.39943 11.5702 4.29082 11.3923C4.18221 11.2144 4.02703 11.0696 3.84206 10.9735C3.5682 10.8456 3.30474 10.6965 3.05406 10.5275C2.91061 10.4295 2.78974 10.302 2.69954 10.1535C2.60934 10.0051 2.5519 9.83902 2.53105 9.66654C2.50699 9.48961 2.49764 9.31101 2.50307 9.13254C2.45055 8.36239 2.50269 7.58868 2.65807 6.83254C2.84353 6.18436 3.19086 5.59404 3.66741 5.11715C4.14395 4.64026 4.73403 4.29247 5.38207 4.10654C6.12933 3.95052 6.89439 3.89736 7.65605 3.94854H16.8431C17.6064 3.89736 18.3731 3.95052 19.1221 4.10654C19.7683 4.29274 20.3567 4.63985 20.8322 5.11538C21.3077 5.59092 21.6548 6.17932 21.841 6.82554C21.9971 7.57449 22.0502 8.34122 21.999 9.10454C22.008 9.2947 21.9983 9.48527 21.97 9.67354C21.9493 9.84452 21.8924 10.0091 21.8031 10.1564C21.7138 10.3036 21.5941 10.4302 21.452 10.5275C21.2115 10.6915 20.9576 10.835 20.693 10.9565C20.497 11.0506 20.3316 11.1984 20.216 11.3826C20.1004 11.5668 20.0394 11.7801 20.0401 11.9975C20.0382 12.2084 20.0951 12.4157 20.2042 12.5961C20.3133 12.7766 20.4705 12.9232 20.6581 13.0195C20.935 13.1473 21.2009 13.2978 21.453 13.4695C21.5958 13.5673 21.7161 13.6944 21.8057 13.8424C21.8954 13.9903 21.9525 14.1557 21.973 14.3275C21.9973 14.5145 22.0063 14.7031 22 14.8915C22.0521 15.6545 21.9989 16.421 21.8421 17.1695C21.6563 17.8161 21.3094 18.4049 20.8338 18.8807C20.3582 19.3564 19.7696 19.7036 19.1231 19.8895C18.3744 20.0449 17.6079 20.0974 16.845 20.0455ZM4.00707 14.6295C4.00007 14.7105 4.00105 14.7875 4.00105 14.8945C3.96265 15.514 3.99621 16.1358 4.10106 16.7475C4.21669 17.152 4.43345 17.5203 4.73088 17.8177C5.02832 18.1152 5.39661 18.3319 5.80104 18.4475C6.41243 18.5524 7.03394 18.586 7.65306 18.5475H16.8461C17.4678 18.5867 18.092 18.5532 18.706 18.4475C19.1105 18.3319 19.4788 18.1152 19.7762 17.8177C20.0737 17.5203 20.2904 17.152 20.4061 16.7475C20.5105 16.1334 20.544 15.5093 20.5061 14.8875C20.5061 14.7725 20.5061 14.6935 20.5061 14.6355C20.3911 14.5645 20.222 14.4775 19.966 14.3425C19.5376 14.1181 19.1787 13.7807 18.9283 13.3669C18.6779 12.9531 18.5456 12.4787 18.5456 11.995C18.5456 11.5114 18.6779 11.0369 18.9283 10.6231C19.1787 10.2093 19.5376 9.87194 19.966 9.64754C20.242 9.50354 20.408 9.41754 20.5 9.36554C20.507 9.28654 20.5061 9.21054 20.5061 9.10454C20.5452 8.48243 20.5116 7.85787 20.4061 7.24354C20.2903 6.83915 20.0736 6.47088 19.7761 6.17346C19.4787 5.87604 19.1104 5.65925 18.706 5.54354C18.0917 5.43795 17.4672 5.40439 16.845 5.44354H7.65807C7.03761 5.40509 6.41478 5.43864 5.80205 5.54354C5.39787 5.65968 5.02983 5.87661 4.73247 6.17397C4.43511 6.47133 4.21821 6.83936 4.10207 7.24354C3.99842 7.85674 3.96487 8.47975 4.00206 9.10054C4.00206 9.21954 4.00206 9.30054 4.00206 9.35054C4.11606 9.42054 4.28406 9.50854 4.54006 9.64354C4.96976 9.86808 5.32948 10.2064 5.57991 10.6216C5.83034 11.0367 5.96186 11.5127 5.96007 11.9975C5.95416 12.4697 5.82395 12.932 5.58257 13.3379C5.34118 13.7438 4.99715 14.0789 4.58507 14.3095C4.29207 14.4705 4.10607 14.5705 4.00707 14.6295Z" fill="#000000" />
<path d="M10.6595 15.5736C10.4919 15.5739 10.3263 15.5378 10.174 15.4679C10.0217 15.398 9.88644 15.2958 9.77748 15.1685C9.66852 15.0412 9.58847 14.8918 9.54289 14.7305C9.49731 14.5693 9.48728 14.4001 9.51347 14.2346L9.71349 13.0726L8.86549 12.2586C8.70898 12.1086 8.59797 11.9175 8.54527 11.7073C8.49258 11.497 8.50032 11.2762 8.56761 11.0701C8.6349 10.8641 8.75899 10.6812 8.92561 10.5426C9.09224 10.404 9.29463 10.3152 9.50948 10.2866L10.6865 10.1166L11.2135 9.06456C11.2832 8.92812 11.3791 8.80677 11.4958 8.70747C11.6125 8.60817 11.7477 8.53286 11.8935 8.48585C12.0393 8.43885 12.193 8.42108 12.3457 8.43356C12.4985 8.44603 12.6472 8.48851 12.7835 8.55856C12.9987 8.66841 13.1736 8.8434 13.2835 9.05856V9.06656L13.8095 10.1186L14.9925 10.2886C15.207 10.3182 15.4087 10.4077 15.5746 10.5468C15.7405 10.686 15.8638 10.8691 15.9303 11.0751C15.9968 11.2811 16.0039 11.5018 15.9507 11.7116C15.8975 11.9215 15.7861 12.1121 15.6295 12.2616L14.7835 13.0736L14.9835 14.2236C15.0196 14.4367 14.9953 14.6557 14.9134 14.8557C14.8314 15.0558 14.695 15.2288 14.5197 15.3553C14.3444 15.4818 14.1372 15.5567 13.9215 15.5714C13.7058 15.5861 13.4903 15.5401 13.2995 15.4386L12.2515 14.8916L11.1925 15.4406C11.0284 15.528 10.8454 15.5737 10.6595 15.5736ZM10.5015 14.1086H10.4955H10.5015ZM13.9955 14.1086H14.0005H13.9955ZM10.4205 11.6736L10.8885 12.1226C11.0248 12.2528 11.1269 12.4147 11.1857 12.5938C11.2444 12.773 11.2581 12.9639 11.2255 13.1496L11.1125 13.7956L11.7125 13.4826C11.8777 13.3978 12.0608 13.3536 12.2465 13.3536C12.4322 13.3536 12.6152 13.3978 12.7805 13.4826L13.3865 13.7966L13.2735 13.1506C13.2405 12.9653 13.2538 12.7748 13.3122 12.596C13.3707 12.4172 13.4725 12.2555 13.6085 12.1256L14.0775 11.6756L13.4205 11.5756C13.2356 11.5495 13.0598 11.479 12.9082 11.3701C12.7565 11.2613 12.6334 11.1173 12.5495 10.9506L12.2495 10.3506L11.9495 10.9506C11.8654 11.118 11.7419 11.2625 11.5897 11.3717C11.4375 11.4809 11.261 11.5515 11.0755 11.5776L10.4205 11.6736ZM14.7835 11.7736H14.7905H14.7835Z" fill="#000000" />
</svg>