<svg width="24px"  height="24px"  viewBox="0 0 25 24" fill="none" xmlns="http://www.w3.org/2000/svg">
<path fill-rule="evenodd" clip-rule="evenodd" d="M7.20275 6.18359C6.67656 6.18359 6.25 6.61015 6.25 7.13634V7.17459C6.25 7.94384 5.6264 8.56744 4.85714 8.56744C4.38376 8.56744 4 8.9512 4 9.42458V14.578C4 15.0514 4.38376 15.4351 4.85714 15.4351C5.6264 15.4351 6.25 16.0587 6.25 16.828V16.8662C6.25 17.3924 6.67656 17.819 7.20275 17.819H17.2973C17.8234 17.819 18.25 17.3924 18.25 16.8662V16.828C18.25 16.0587 18.8736 15.4351 19.6429 15.4351C20.1162 15.4351 20.5 15.0514 20.5 14.578V9.42459C20.5 8.9512 20.1162 8.56744 19.6429 8.56744C18.8736 8.56744 18.25 7.94384 18.25 7.17459V7.13634C18.25 6.61015 17.8234 6.18359 17.2973 6.18359H7.20275ZM4.75089 7.0698C4.78615 5.74595 5.87039 4.68359 7.20275 4.68359H17.2973C18.6296 4.68359 19.7139 5.74594 19.7491 7.0698C21.0016 7.12536 22 8.15838 22 9.42459V14.578C22 15.8442 21.0016 16.8772 19.7491 16.9328C19.7138 18.2566 18.6296 19.319 17.2973 19.319H7.20275C5.87039 19.319 4.78615 18.2566 4.75089 16.9328C3.49839 16.8772 2.5 15.8442 2.5 14.578V9.42458C2.5 8.15838 3.49839 7.12536 4.75089 7.0698Z" fill="#000000" />
<path fill-rule="evenodd" clip-rule="evenodd" d="M8.89844 4.68359C9.31265 4.68359 9.64844 5.01938 9.64844 5.43359V8.98965C9.64844 9.40386 9.31265 9.73965 8.89844 9.73965C8.48422 9.73965 8.14844 9.40386 8.14844 8.98965V5.43359C8.14844 5.01938 8.48422 4.68359 8.89844 4.68359Z" fill="#000000" />
<path fill-rule="evenodd" clip-rule="evenodd" d="M8.89844 14.2617C9.31265 14.2617 9.64844 14.5975 9.64844 15.0117V18.5678C9.64844 18.982 9.31265 19.3178 8.89844 19.3178C8.48422 19.3178 8.14844 18.982 8.14844 18.5678V15.0117C8.14844 14.5975 8.48422 14.2617 8.89844 14.2617Z" fill="#000000" />
<path fill-rule="evenodd" clip-rule="evenodd" d="M13.9515 10.8318L14.1117 11.152C14.2738 11.4744 14.5835 11.6954 14.9386 11.7458C14.9392 11.7459 14.9398 11.746 14.9403 11.7461L15.2763 11.7944L15.04 12.0214C14.7773 12.2726 14.6565 12.6384 14.7197 12.9978C14.7196 12.9975 14.7197 12.9981 14.7197 12.9978L14.7777 13.3304L14.4594 13.1654C14.1415 13.0011 13.7629 13.0007 13.4449 13.165L13.1255 13.3305L13.1836 12.9972C13.1836 12.9972 13.1836 12.9971 13.1836 12.9972C13.2462 12.6384 13.1254 12.2728 12.8633 12.0219C12.863 12.0216 12.8628 12.0213 12.8625 12.0211L12.6266 11.7947L12.9637 11.7461C13.3191 11.6957 13.6279 11.4747 13.7901 11.1538L13.9515 10.8318ZM14.4578 8.9632C13.9182 8.68411 13.2538 8.89438 12.9739 9.43468L12.5447 10.291L11.5946 10.4278C11.3521 10.4611 11.127 10.5749 10.9563 10.752C10.5373 11.1872 10.5507 11.8792 10.9845 12.2977L10.9858 12.299L11.6685 12.9542L11.5075 13.8767L11.5061 13.885C11.4674 14.1228 11.5084 14.3643 11.619 14.574L11.62 14.5759C11.9035 15.1098 12.5652 15.3143 13.1004 15.033L13.9517 14.5918L14.8027 15.0329C15.0123 15.1428 15.2519 15.1824 15.4861 15.1451L15.4876 15.1448C16.0856 15.0485 16.4939 14.4856 16.3973 13.886L16.2347 12.9538L16.9168 12.2984L16.9178 12.2974C17.0959 12.1256 17.2102 11.8986 17.2427 11.6543L17.2428 11.6531C17.3209 11.0579 16.9043 10.5091 16.3074 10.4275L15.3581 10.2907L14.9344 9.44407L14.9297 9.43497C14.8253 9.23322 14.6608 9.06805 14.4578 8.9632Z" fill="#000000" />
</svg>