<svg width="24px"  height="24px"  viewBox="0 0 25 24" fill="none" xmlns="http://www.w3.org/2000/svg">
<path fill-rule="evenodd" clip-rule="evenodd" d="M18.3277 6.21767L18.0329 6.25698C17.5205 6.32529 17.2567 6.36047 16.993 6.39206C13.8425 6.7695 10.6581 6.7695 7.50757 6.39206C7.24393 6.36047 6.98006 6.32529 6.46776 6.25698L6.1729 6.21767C6.10728 7.38921 5.21601 8.34021 4.07152 8.49827C4.51794 10.8119 4.51794 13.1896 4.07152 15.5033C5.21601 15.6613 6.10728 16.6123 6.1729 17.7839L6.46752 17.7446C6.98002 17.6763 7.24388 17.6411 7.50757 17.6095C10.6581 17.232 13.8425 17.232 16.993 17.6095C17.2567 17.6411 17.5206 17.6763 18.0331 17.7446L18.3277 17.7839C18.3933 16.6123 19.2846 15.6613 20.4291 15.5033C19.9826 13.1896 19.9826 10.8119 20.4291 8.49827C19.2846 8.34022 18.3933 7.38921 18.3277 6.21767ZM18.3993 4.69484C19.1536 4.59427 19.8238 5.18104 19.8238 5.94197V6.07888C19.8238 6.5994 20.2458 7.02136 20.7663 7.02136H20.8376C21.5781 7.02136 22.1299 7.70442 21.9741 8.42833C21.4676 10.783 21.4676 13.2185 21.9741 15.5732C22.1299 16.2971 21.5781 16.9802 20.8376 16.9802H20.7663C20.2458 16.9802 19.8238 17.4021 19.8238 17.9227V18.0596C19.8238 18.8205 19.1536 19.4073 18.3993 19.3067L17.8411 19.2323C17.3208 19.1629 17.0672 19.1291 16.8146 19.0988C13.7826 18.7356 10.718 18.7356 7.68599 19.0988C7.4334 19.1291 7.17982 19.1629 6.65945 19.2323L6.10123 19.3067C5.34698 19.4073 4.67678 18.8205 4.67678 18.0596V17.9227C4.67678 17.4021 4.25482 16.9802 3.7343 16.9802H3.66294C2.92247 16.9802 2.37072 16.2971 2.52644 15.5732C3.03297 13.2185 3.03297 10.783 2.52644 8.42833C2.37072 7.70442 2.92247 7.02136 3.66294 7.02136H3.7343C4.25482 7.02136 4.67678 6.5994 4.67678 6.07888V5.94197C4.67678 5.18104 5.34698 4.59427 6.10123 4.69484L6.65945 4.76927C7.17979 4.83865 7.43341 4.87245 7.68599 4.90271C10.718 5.26595 13.7826 5.26595 16.8146 4.90271C17.0672 4.87245 17.3208 4.83865 17.8411 4.76927L18.3993 4.69484Z" fill="#000000" />
<path fill-rule="evenodd" clip-rule="evenodd" d="M20.0354 6.72965C19.7437 6.43556 19.2688 6.43363 18.9748 6.72533L17.331 8.35574C17.0369 8.64744 17.035 9.12231 17.3267 9.41639C17.6184 9.71048 18.0933 9.71241 18.3873 9.42072L20.0311 7.7903C20.3252 7.4986 20.3271 7.02373 20.0354 6.72965Z" fill="#000000" />
<path fill-rule="evenodd" clip-rule="evenodd" d="M20.0354 17.2743C19.7437 17.5683 19.2688 17.5703 18.9748 17.2786L17.331 15.6482C17.0369 15.3565 17.035 14.8816 17.3267 14.5875C17.6184 14.2934 18.0933 14.2915 18.3873 14.5832L20.0311 16.2136C20.3252 16.5053 20.3271 16.9802 20.0354 17.2743Z" fill="#000000" />
<path fill-rule="evenodd" clip-rule="evenodd" d="M4.40892 6.72965C4.70062 6.43556 5.17549 6.43363 5.46957 6.72533L7.11333 8.35574C7.40741 8.64744 7.40935 9.12231 7.11765 9.41639C6.82596 9.71048 6.35109 9.71241 6.057 9.42072L4.41324 7.7903C4.11916 7.4986 4.11722 7.02373 4.40892 6.72965Z" fill="#000000" />
<path fill-rule="evenodd" clip-rule="evenodd" d="M4.40892 17.2743C4.70062 17.5683 5.17549 17.5703 5.46957 17.2786L7.11333 15.6482C7.40741 15.3565 7.40935 14.8816 7.11765 14.5875C6.82596 14.2934 6.35109 14.2915 6.057 14.5832L4.41324 16.2136C4.11916 16.5053 4.11722 16.9802 4.40892 17.2743Z" fill="#000000" />
<path fill-rule="evenodd" clip-rule="evenodd" d="M12.2504 10.0113L12.6498 10.8095L12.6505 10.8108C12.8274 11.1626 13.1655 11.4039 13.5533 11.4589C13.5539 11.459 13.5544 11.4591 13.555 11.4592L14.4282 11.5849L13.8033 12.1853C13.5167 12.4591 13.385 12.8581 13.454 13.25C13.4539 13.2497 13.454 13.2502 13.454 13.25L13.604 14.1097L12.8053 13.6957C12.4578 13.5162 12.0443 13.5157 11.6968 13.6953L10.8969 14.1099L11.047 13.2492C11.047 13.2492 11.047 13.2491 11.047 13.2492C11.1153 12.858 10.9836 12.4594 10.6977 12.1858C10.6975 12.1855 10.6972 12.1853 10.6969 12.185L10.072 11.5852L10.9464 11.4593C11.3345 11.4043 11.6718 11.163 11.8489 10.8126L12.2504 10.0113ZM12.8034 8.27929C12.214 7.97442 11.4883 8.20409 11.1826 8.7942L10.58 9.99659L9.24251 10.1892C8.97768 10.2255 8.73187 10.3497 8.54554 10.5429C8.08851 11.0176 8.10319 11.7724 8.57636 12.2288L8.57772 12.2301L9.54088 13.1546L9.31361 14.4574L9.31221 14.4657C9.26997 14.7251 9.31461 14.9887 9.43548 15.2179L9.43645 15.2197C9.746 15.8027 10.4687 16.0259 11.053 15.7185L12.2506 15.0977L13.4478 15.7183C13.6767 15.8385 13.9384 15.8817 14.1943 15.841L14.1958 15.8408C14.8487 15.7355 15.2944 15.1211 15.1888 14.4666L14.9599 13.1542L15.9223 12.2295L15.9234 12.2285C16.1176 12.0412 16.2423 11.7935 16.2777 11.5269L16.2779 11.5257C16.3631 10.8762 15.9082 10.2774 15.2569 10.1888L13.9202 9.9963L13.3234 8.80358L13.3188 8.79448C13.2047 8.57405 13.025 8.39373 12.8034 8.27929ZM14.8412 13.2682C14.8405 13.2689 14.8398 13.2696 14.8391 13.2702L14.8412 13.2682ZM14.9312 12.9896C14.9313 12.9901 14.9314 12.9907 14.9315 12.9912L14.9312 12.9896ZM10.7336 9.97447C10.7335 9.9745 10.7338 9.97445 10.7336 9.97447V9.97447Z" fill="#000000" />
</svg>