<svg width="24px"  height="24px"  viewBox="0 0 25 24" fill="none" xmlns="http://www.w3.org/2000/svg">
<path d="M16.8448 20.0474H7.65082C6.89087 20.0982 6.12756 20.0454 5.38184 19.8904C4.73355 19.7049 4.14313 19.3574 3.66623 18.8807C3.18933 18.4039 2.84161 17.8137 2.65582 17.1654C2.50179 16.4196 2.44931 15.6564 2.49982 14.8964V12.7414C2.49982 11.5414 2.50582 10.3314 2.49982 9.11344C2.44808 8.35093 2.50022 7.58491 2.65482 6.83644C2.84028 6.18827 3.18764 5.59795 3.66419 5.12106C4.14073 4.64416 4.73078 4.29638 5.37882 4.11044C6.12608 3.95442 6.89118 3.90126 7.65283 3.95244H16.8398C17.6031 3.90132 18.3699 3.95448 19.1188 4.11044C19.7651 4.29648 20.3536 4.64353 20.8292 5.11909C21.3048 5.59465 21.6518 6.18314 21.8378 6.82944C21.9938 7.5784 22.047 8.34513 21.9958 9.10844C22.0023 9.2969 21.9929 9.48556 21.9678 9.67244C21.9473 9.84402 21.8905 10.0093 21.8012 10.1572C21.7119 10.3051 21.5921 10.4324 21.4498 10.5304C21.2147 10.6912 20.9665 10.832 20.7078 10.9514C20.5085 11.0448 20.3399 11.1929 20.2217 11.3784C20.1034 11.564 20.0403 11.7794 20.0398 11.9994C20.0383 12.2103 20.0952 12.4174 20.2043 12.5978C20.3134 12.7783 20.4704 12.9249 20.6578 13.0214C20.934 13.1489 21.1992 13.2987 21.4508 13.4694C21.5935 13.5672 21.7138 13.6942 21.8038 13.8419C21.8938 13.9896 21.9514 14.1548 21.9728 14.3264C21.9972 14.5144 22.0062 14.704 21.9998 14.8934C22.0524 15.6564 21.9992 16.423 21.8418 17.1714C21.6565 17.8182 21.3096 18.4072 20.834 18.883C20.3583 19.3588 19.7695 19.7058 19.1228 19.8914C18.3741 20.0467 17.6077 20.0992 16.8448 20.0474ZM7.65784 5.44744C7.03739 5.40899 6.41455 5.44255 5.80182 5.54744C5.39765 5.66358 5.0296 5.88051 4.73224 6.17787C4.43488 6.47523 4.21798 6.84327 4.10184 7.24744C3.99819 7.86065 3.96464 8.48365 4.00183 9.10444C4.00683 10.3224 4.00183 11.5314 4.00183 12.7394V14.8914C3.96343 15.5109 3.99699 16.1327 4.10184 16.7444C4.21747 17.1489 4.43422 17.5172 4.73166 17.8146C5.0291 18.1121 5.39739 18.3288 5.80182 18.4444C6.41321 18.5493 7.03472 18.5829 7.65384 18.5444H16.8468C17.4686 18.5835 18.0928 18.55 18.7068 18.4444C19.1113 18.329 19.4798 18.1123 19.7772 17.8148C20.0747 17.5174 20.2914 17.149 20.4068 16.7444C20.5119 16.1304 20.5455 15.5062 20.5068 14.8844C20.5068 14.7694 20.5068 14.6904 20.5068 14.6324C20.3948 14.5624 20.2248 14.4744 19.9668 14.3394C19.5386 14.1149 19.18 13.7776 18.9298 13.3639C18.6796 12.9502 18.5473 12.4759 18.5473 11.9924C18.5473 11.509 18.6796 11.0347 18.9298 10.621C19.18 10.2073 19.5386 9.86994 19.9668 9.64544C20.2468 9.49744 20.4108 9.41344 20.5018 9.36244C20.5088 9.28444 20.5078 9.20844 20.5078 9.10144C20.547 8.47933 20.5134 7.85478 20.4078 7.24044C20.2921 6.83605 20.0753 6.46779 19.7779 6.17037C19.4805 5.87294 19.1122 5.65616 18.7078 5.54044C18.0935 5.4349 17.4689 5.40134 16.8468 5.44044L7.65784 5.44744Z" fill="#000000" />
<path d="M15.7695 14.8321C15.5706 14.8321 15.3798 14.753 15.2392 14.6124C15.0985 14.4717 15.0195 14.281 15.0195 14.0821V9.91406C15.0195 9.71515 15.0985 9.52439 15.2392 9.38373C15.3798 9.24308 15.5706 9.16406 15.7695 9.16406C15.9684 9.16406 16.1592 9.24308 16.2999 9.38373C16.4405 9.52439 16.5195 9.71515 16.5195 9.91406V14.0821C16.5195 14.281 16.4405 14.4717 16.2999 14.6124C16.1592 14.753 15.9684 14.8321 15.7695 14.8321Z" fill="#000000" />
<path d="M15.7695 8.05222C15.5706 8.05222 15.3798 7.9732 15.2392 7.83255C15.0985 7.6919 15.0195 7.50113 15.0195 7.30222V4.69922C15.0195 4.50031 15.0985 4.30954 15.2392 4.16889C15.3798 4.02824 15.5706 3.94922 15.7695 3.94922C15.9684 3.94922 16.1592 4.02824 16.2999 4.16889C16.4405 4.30954 16.5195 4.50031 16.5195 4.69922V7.29922C16.5199 7.39796 16.5008 7.49581 16.4633 7.58715C16.4258 7.67849 16.3706 7.76153 16.3009 7.83149C16.2313 7.90145 16.1484 7.95696 16.0572 7.99484C15.966 8.03272 15.8683 8.05222 15.7695 8.05222Z" fill="#000000" />
<path d="M15.7695 20.0453C15.5706 20.0453 15.3798 19.9663 15.2392 19.8256C15.0985 19.685 15.0195 19.4942 15.0195 19.2953V16.6953C15.0195 16.4964 15.0985 16.3056 15.2392 16.165C15.3798 16.0243 15.5706 15.9453 15.7695 15.9453C15.9684 15.9453 16.1592 16.0243 16.2999 16.165C16.4405 16.3056 16.5195 16.4964 16.5195 16.6953V19.2953C16.5195 19.4942 16.4405 19.685 16.2999 19.8256C16.1592 19.9663 15.9684 20.0453 15.7695 20.0453Z" fill="#000000" />
<path d="M8.06377 15.4059C7.89886 15.4057 7.73597 15.3696 7.58641 15.3001C7.43686 15.2306 7.3042 15.1294 7.19765 15.0036C7.0911 14.8777 7.01319 14.7302 6.96935 14.5712C6.92551 14.4122 6.91677 14.2456 6.94375 14.0829L7.12877 13.0239L6.34676 12.2729C6.19349 12.1258 6.08489 11.9383 6.0335 11.7321C5.9821 11.526 5.98998 11.3095 6.05623 11.1076C6.12248 10.9057 6.24442 10.7266 6.40798 10.591C6.57154 10.4553 6.7701 10.3687 6.98076 10.3409L8.06276 10.1859L8.54775 9.21593C8.61535 9.08172 8.70888 8.96223 8.8229 8.86435C8.93692 8.76648 9.06919 8.69215 9.21209 8.64567C9.35498 8.59918 9.50566 8.58145 9.65545 8.59351C9.80523 8.60557 9.95115 8.64718 10.0848 8.71593C10.2979 8.82555 10.47 9.00086 10.5758 9.21593L11.0628 10.1859L12.1518 10.3429C12.4465 10.3837 12.7131 10.5394 12.8935 10.776C13.0739 11.0126 13.1535 11.3109 13.1148 11.6059C13.0799 11.8608 12.9601 12.0965 12.7748 12.2749L11.9957 13.0239L12.1807 14.0809C12.2057 14.2285 12.2013 14.3796 12.1676 14.5255C12.1339 14.6714 12.0717 14.8091 11.9845 14.9308C11.8973 15.0525 11.7868 15.1558 11.6595 15.2346C11.5322 15.3133 11.3906 15.3662 11.2428 15.3899C11 15.4279 10.7515 15.3869 10.5338 15.2729L9.56276 14.7729L8.58577 15.2789C8.42468 15.3631 8.24551 15.4066 8.06377 15.4059ZM7.89577 13.9439H7.88875H7.89577ZM9.56377 13.2269C9.74498 13.2269 9.92358 13.2701 10.0848 13.3529L10.5748 13.6069L10.4838 13.0869C10.4521 12.9045 10.4659 12.717 10.524 12.5412C10.5821 12.3654 10.6827 12.2066 10.8168 12.0789L11.1888 11.7209L10.6597 11.6449C10.4786 11.6189 10.3064 11.5495 10.1579 11.4426C10.0094 11.3357 9.8889 11.1945 9.80675 11.0309L9.56276 10.5429L9.31676 11.0309C9.23434 11.1947 9.11355 11.3362 8.96468 11.4433C8.81581 11.5504 8.64327 11.6199 8.46175 11.6459L7.93575 11.7209L8.31075 12.0809C8.44309 12.2081 8.54236 12.3657 8.59987 12.54C8.65739 12.7143 8.67142 12.9 8.64077 13.0809L8.54976 13.6039L9.03777 13.3509C9.20071 13.268 9.38095 13.2249 9.56377 13.2249V13.2269ZM11.9388 11.8289H11.9478H11.9388Z" fill="#000000" />
</svg>