<svg width="24px"  height="24px"  viewBox="0 0 25 24" fill="none" xmlns="http://www.w3.org/2000/svg">
<path fill-rule="evenodd" clip-rule="evenodd" d="M7.20275 6.18359C6.67656 6.18359 6.25 6.61015 6.25 7.13634V7.17459C6.25 7.94384 5.6264 8.56744 4.85714 8.56744C4.38376 8.56744 4 8.9512 4 9.42458V14.578C4 15.0514 4.38376 15.4351 4.85714 15.4351C5.6264 15.4351 6.25 16.0587 6.25 16.828V16.8662C6.25 17.3924 6.67656 17.819 7.20275 17.819H17.2973C17.8234 17.819 18.25 17.3924 18.25 16.8662V16.828C18.25 16.0587 18.8736 15.4351 19.6429 15.4351C20.1162 15.4351 20.5 15.0514 20.5 14.578V9.42459C20.5 8.9512 20.1162 8.56744 19.6429 8.56744C18.8736 8.56744 18.25 7.94384 18.25 7.17459V7.13634C18.25 6.61015 17.8234 6.18359 17.2973 6.18359H7.20275ZM4.75089 7.0698C4.78615 5.74595 5.87039 4.68359 7.20275 4.68359H17.2973C18.6296 4.68359 19.7139 5.74594 19.7491 7.0698C21.0016 7.12536 22 8.15838 22 9.42459V14.578C22 15.8442 21.0016 16.8772 19.7491 16.9328C19.7138 18.2566 18.6296 19.319 17.2973 19.319H7.20275C5.87039 19.319 4.78615 18.2566 4.75089 16.9328C3.49839 16.8772 2.5 15.8442 2.5 14.578V9.42458C2.5 8.15838 3.49839 7.12536 4.75089 7.0698Z" fill="#000000" />
<path fill-rule="evenodd" clip-rule="evenodd" d="M12.2499 10.8274L12.4112 11.1497C12.5733 11.4722 12.8831 11.6933 13.2384 11.7437C13.2389 11.7438 13.2395 11.7439 13.2401 11.7439L13.5784 11.7927L13.3404 12.0213C13.0776 12.2725 12.9568 12.6384 13.0199 12.9978C13.02 12.9982 13.0201 12.9985 13.0201 12.9989L13.0784 13.3329L12.758 13.1668C12.4399 13.0025 12.0612 13.002 11.7431 13.1664L11.4216 13.333L11.4801 12.9974C11.4801 12.9975 11.4801 12.9974 11.4801 12.9974C11.5428 12.6385 11.4219 12.2727 11.1597 12.0217C11.1594 12.0215 11.1592 12.0212 11.1589 12.0209L10.9213 11.7929L11.2607 11.744C11.6163 11.6935 11.9252 11.4724 12.0875 11.1514L12.2499 10.8274ZM11.2719 9.43102C11.5519 8.89049 12.2166 8.68015 12.7564 8.95934C12.9595 9.06424 13.1241 9.22947 13.2285 9.4313L13.2332 9.44037L13.6576 10.2886L14.6086 10.4255C15.2058 10.5072 15.6226 11.0563 15.5444 11.6516L15.5443 11.6528C15.5118 11.8973 15.3975 12.1244 15.2193 12.2962L14.5349 12.9538L14.6978 13.8876C14.7945 14.4875 14.386 15.0506 13.7878 15.147L13.7863 15.1472C13.552 15.1845 13.3123 15.145 13.1027 15.035L12.2501 14.5931L11.3973 15.0351C10.8619 15.3165 10.1999 15.1119 9.91627 14.5778L9.91529 14.5759C9.80462 14.3661 9.76365 14.1245 9.80239 13.8867L9.80374 13.8784L9.965 12.9542L9.28114 12.2978L9.27978 12.2965C8.84585 11.8779 8.8319 11.1861 9.25109 10.7507C9.42188 10.5736 9.64758 10.4592 9.89016 10.4259L10.842 10.2888L11.2719 9.43102ZM14.4972 12.7378C14.4973 12.7383 14.4974 12.7389 14.4975 12.7394L14.4972 12.7378Z" fill="#000000" />
<path fill-rule="evenodd" clip-rule="evenodd" d="M15.8641 9.08727C16.2345 8.9019 16.685 9.05192 16.8704 9.42235L17.2211 10.1232L18.0072 10.2364C18.5812 10.315 18.9817 10.8429 18.9066 11.4151L18.9065 11.4163C18.8752 11.6513 18.7653 11.8696 18.594 12.0348L18.029 12.5777L18.1637 13.3496C18.2566 13.9262 17.864 14.4673 17.2891 14.5599L17.2876 14.5602C17.0625 14.596 16.8323 14.558 16.6309 14.4524L15.7234 13.982C15.3556 13.7914 15.212 13.3388 15.4026 12.971C15.5933 12.6033 16.0459 12.4597 16.4137 12.6503L16.5295 12.7103L16.5104 12.6008C16.5103 12.6005 16.5103 12.6002 16.5102 12.5998C16.4495 12.2542 16.5657 11.9023 16.8183 11.6608L16.8908 11.5911L16.7795 11.5751C16.4381 11.5266 16.1405 11.3141 15.9847 11.0042L15.984 11.0029L15.529 10.0936C15.3436 9.72318 15.4936 9.27263 15.8641 9.08727Z" fill="#000000" />
<path fill-rule="evenodd" clip-rule="evenodd" d="M8.63593 9.08727C8.26551 8.9019 7.81496 9.05192 7.62959 9.42235L7.27888 10.1232L6.49278 10.2364C5.91876 10.315 5.51829 10.8429 5.59338 11.4151L5.59354 11.4163C5.62476 11.6513 5.73466 11.8696 5.90597 12.0348L6.471 12.5777L6.33632 13.3496C6.24338 13.9262 6.63598 14.4673 7.21088 14.5599L7.21239 14.5602C7.43747 14.596 7.66773 14.558 7.86913 14.4524L8.77663 13.982C9.14437 13.7914 9.28797 13.3388 9.09735 12.971C8.90673 12.6033 8.45409 12.4597 8.08634 12.6503L7.97052 12.7103L7.98962 12.6008C7.98968 12.6005 7.98974 12.6002 7.9898 12.5998C8.05055 12.2542 7.93434 11.9023 7.6817 11.6608L7.60917 11.5911L7.72048 11.5751C8.06186 11.5266 8.35951 11.3141 8.51534 11.0042L8.51597 11.0029L8.97101 10.0936C9.15638 9.72318 9.00636 9.27263 8.63593 9.08727Z" fill="#000000" />
</svg>