<svg width="24px"  height="24px"  viewBox="0 0 25 24" fill="none" xmlns="http://www.w3.org/2000/svg">
<path d="M8.76172 12.3609C8.56281 12.3609 8.37204 12.2819 8.23138 12.1413C8.09073 12.0006 8.01172 11.8098 8.01172 11.6109V8.33594C8.01172 8.13703 8.09073 7.94626 8.23138 7.8056C8.37204 7.66495 8.56281 7.58594 8.76172 7.58594C8.96063 7.58594 9.1514 7.66495 9.29205 7.8056C9.43271 7.94626 9.51172 8.13703 9.51172 8.33594V11.6109C9.51172 11.8098 9.43271 12.0006 9.29205 12.1413C9.1514 12.2819 8.96063 12.3609 8.76172 12.3609Z" fill="#000000" />
<path d="M8.76172 21.1803C8.56281 21.1803 8.37204 21.1013 8.23138 20.9606C8.09073 20.8199 8.01172 20.6292 8.01172 20.4303V17.1562C8.01172 16.9573 8.09073 16.7666 8.23138 16.6259C8.37204 16.4853 8.56281 16.4062 8.76172 16.4062C8.96063 16.4062 9.1514 16.4853 9.29205 16.6259C9.43271 16.7666 9.51172 16.9573 9.51172 17.1562V20.4293C9.51185 20.5278 9.49259 20.6255 9.45496 20.7166C9.41732 20.8077 9.36208 20.8905 9.29242 20.9602C9.22276 21.03 9.14007 21.0853 9.04901 21.1231C8.95795 21.1608 8.86029 21.1803 8.76172 21.1803Z" fill="#000000" />
<path d="M17.0335 21.1796H7.46348C6.82065 21.2225 6.17495 21.1771 5.54447 21.0445C4.98562 20.8846 4.47671 20.5851 4.06559 20.1741C3.65447 19.7632 3.35468 19.2543 3.19449 18.6955C3.06288 18.0656 3.01782 17.4207 3.06052 16.7786C3.05514 16.6152 3.06315 16.4516 3.08451 16.2895C3.10256 16.134 3.15301 15.984 3.23258 15.8491C3.31215 15.7143 3.41906 15.5976 3.54648 15.5066C3.77297 15.3498 4.01102 15.2104 4.25852 15.0896C4.38412 15.0215 4.48962 14.9217 4.56455 14.8001C4.63948 14.6785 4.68123 14.5393 4.68552 14.3966C4.69042 14.2416 4.65152 14.0884 4.57334 13.9545C4.49516 13.8206 4.38087 13.7114 4.24351 13.6395C4.00352 13.5308 3.7742 13.3999 3.55851 13.2486C3.43056 13.1584 3.32279 13.0425 3.24204 12.9084C3.1613 12.7743 3.10935 12.6248 3.08951 12.4696C3.06803 12.3155 3.05933 12.16 3.06351 12.0046C3.02015 11.3525 3.06489 10.6976 3.19651 10.0575C3.35641 9.49861 3.65577 8.98952 4.0665 8.57809C4.47724 8.16665 4.98581 7.86641 5.54447 7.70556C6.1763 7.57296 6.82335 7.52753 7.4675 7.57055H17.0335C17.6787 7.52715 18.3268 7.57293 18.9595 7.70656C19.5165 7.86646 20.0238 8.16538 20.4334 8.57525C20.8431 8.98512 21.1418 9.49246 21.3015 10.0496C21.437 10.682 21.4834 11.3303 21.4395 11.9755C21.4453 12.1427 21.4366 12.3099 21.4135 12.4755C21.3926 12.6318 21.3396 12.782 21.2578 12.9167C21.1761 13.0515 21.0674 13.1679 20.9385 13.2586C20.7458 13.3926 20.5417 13.5094 20.3285 13.6076C20.1775 13.6721 20.0484 13.7789 19.9568 13.9152C19.8653 14.0515 19.8151 14.2114 19.8125 14.3756C19.8111 14.5269 19.8517 14.6757 19.93 14.8053C20.0082 14.9349 20.1209 15.0403 20.2555 15.1095C20.4964 15.2202 20.727 15.3521 20.9445 15.5036C21.0725 15.5942 21.1802 15.7104 21.261 15.8448C21.3417 15.9793 21.3936 16.129 21.4135 16.2846C21.4355 16.4476 21.4439 16.6121 21.4385 16.7765C21.4836 17.4221 21.4374 18.0708 21.3015 18.7035C21.1413 19.2604 20.8425 19.7674 20.4328 20.1772C20.0232 20.587 19.5163 20.8862 18.9595 21.0466C18.3267 21.1791 17.6785 21.2238 17.0335 21.1796ZM4.56052 16.6296C4.56052 16.6716 4.56052 16.7176 4.56052 16.7736C4.53105 17.2748 4.55614 17.7778 4.63547 18.2736C4.72634 18.5883 4.89572 18.8749 5.12766 19.1063C5.3596 19.3377 5.64653 19.5064 5.96152 19.5965C6.4572 19.677 6.96025 19.7025 7.46152 19.6726H17.0315C17.5354 19.703 18.0413 19.6771 18.5395 19.5955C18.8534 19.5051 19.1392 19.3365 19.37 19.1054C19.6009 18.8744 19.7693 18.5885 19.8595 18.2746C19.942 17.7767 19.9678 17.2712 19.9365 16.7676V16.6305C19.8645 16.5895 19.7655 16.5376 19.6365 16.4686C19.2425 16.2761 18.9099 15.9776 18.6761 15.6067C18.4422 15.2358 18.3163 14.807 18.3125 14.3686C18.3118 13.9442 18.4278 13.5278 18.6477 13.1649C18.8677 12.802 19.183 12.5064 19.5595 12.3106L19.9385 12.1106C19.9385 12.0706 19.9385 12.0265 19.9385 11.9715C19.969 11.4682 19.9431 10.9631 19.8615 10.4656C19.7714 10.1513 19.6029 9.86507 19.3719 9.63381C19.1408 9.40255 18.8547 9.23383 18.5405 9.14355C18.0423 9.06198 17.5365 9.03615 17.0325 9.06655H7.46647C6.96519 9.03686 6.46217 9.06236 5.96647 9.14257C5.65148 9.23294 5.36472 9.40198 5.13309 9.63378C4.90147 9.86558 4.73262 10.1525 4.64249 10.4676C4.56293 10.965 4.53777 11.4697 4.56748 11.9726V12.1085C4.65448 12.1555 4.77649 12.2196 4.94449 12.3086C5.32068 12.5059 5.63559 12.8025 5.85508 13.1662C6.07457 13.5299 6.19023 13.9467 6.18949 14.3715C6.18452 14.7863 6.07033 15.1924 5.85844 15.549C5.64654 15.9055 5.34444 16.1999 4.98252 16.4025C4.78652 16.5105 4.64952 16.5846 4.56052 16.6296Z" fill="#000000" />
<path d="M4.8569 9.62515C4.7096 9.62505 4.56558 9.58157 4.44283 9.50015C4.32009 9.41873 4.22403 9.30296 4.16665 9.1673C4.10927 9.03164 4.09313 8.88209 4.1202 8.7373C4.14727 8.59252 4.21635 8.45891 4.31887 8.35315L4.77688 7.89313C4.88904 7.77274 5.01113 7.66202 5.14187 7.56213C5.26384 7.46441 5.40527 7.39381 5.55667 7.35501C5.70806 7.31621 5.86593 7.31011 6.01986 7.33713C6.29153 7.38557 6.55905 7.45512 6.81991 7.54514C6.96258 7.58706 7.11394 7.58941 7.25784 7.55191C7.40173 7.51441 7.53274 7.43847 7.6368 7.33224C7.74087 7.22602 7.81412 7.09349 7.84866 6.94885C7.8832 6.80422 7.87775 6.65292 7.83291 6.51114C7.74418 6.26811 7.6753 6.01828 7.62692 5.76413C7.59873 5.60707 7.60374 5.44587 7.64163 5.29086C7.67952 5.13586 7.74943 4.99048 7.84689 4.86414C7.93157 4.74779 8.02696 4.63965 8.13186 4.54114C8.57115 4.04063 9.07566 3.60137 9.63186 3.23514C10.14 2.95284 10.7116 2.80469 11.2929 2.80469C11.8741 2.80469 12.4458 2.95284 12.9539 3.23514C13.4947 3.58637 13.984 4.0111 14.4079 4.49713L17.6859 7.77615C17.8184 7.91833 17.8905 8.10636 17.887 8.30066C17.8836 8.49496 17.8049 8.68034 17.6675 8.81775C17.5301 8.95516 17.3447 9.0339 17.1504 9.03732C16.9561 9.04075 16.7681 8.96863 16.6259 8.83615L13.3469 5.55814C13.0141 5.18145 12.6401 4.84333 12.2319 4.55014C11.9449 4.39151 11.6223 4.30829 11.2944 4.30829C10.9665 4.30829 10.6439 4.39151 10.3569 4.55014C9.94705 4.84283 9.57076 5.17987 9.23489 5.55515L9.13491 5.65515C9.16191 5.74915 9.20391 5.88214 9.25991 6.06714C9.38672 6.47218 9.39974 6.90429 9.29763 7.31625C9.19552 7.72822 8.98216 8.1042 8.68087 8.40314C8.38397 8.69215 8.01625 8.89799 7.61465 8.99997C7.21305 9.10195 6.79173 9.09648 6.39291 8.98413C6.18291 8.92213 6.03488 8.87814 5.93588 8.85114L5.8569 8.92914L5.39089 9.39713C5.32157 9.4688 5.23864 9.52591 5.14694 9.56506C5.05523 9.60422 4.95661 9.62466 4.8569 9.62515Z" fill="#000000" />
<path d="M12.1713 17.0482C12.0173 17.0486 11.8651 17.0155 11.7253 16.9512C11.5854 16.8869 11.4612 16.7929 11.3613 16.6758C11.2614 16.5587 11.1882 16.4212 11.1468 16.2729C11.1053 16.1247 11.0966 15.9692 11.1213 15.8172L11.2593 15.0172L10.6772 14.4582C10.533 14.32 10.4309 14.1437 10.3827 13.9499C10.3346 13.756 10.3423 13.5524 10.4051 13.3628C10.4679 13.1731 10.5832 13.0052 10.7375 12.8784C10.8919 12.7515 11.079 12.6711 11.2773 12.6462L12.0773 12.5302L12.4383 11.8082C12.5262 11.6323 12.6611 11.4841 12.828 11.3801C12.9949 11.2761 13.1873 11.2202 13.384 11.2188C13.5806 11.2173 13.7739 11.2703 13.9423 11.3719C14.1107 11.4734 14.2477 11.6196 14.3382 11.7942L14.3443 11.8082L14.7063 12.5302L15.5182 12.6482C15.7932 12.6877 16.0415 12.8337 16.2099 13.0546C16.3782 13.2755 16.4531 13.5537 16.4183 13.8292C16.3859 14.0707 16.2723 14.2939 16.0962 14.4622L15.5193 15.0172L15.6573 15.8032C15.6905 15.9993 15.6681 16.2007 15.5925 16.3846C15.5169 16.5686 15.3912 16.7276 15.2297 16.8435C15.0681 16.9595 14.8773 17.0278 14.6789 17.0407C14.4805 17.0535 14.2824 17.0104 14.1073 16.9162L13.3893 16.5452L12.6593 16.9232C12.5093 17.0041 12.3417 17.047 12.1713 17.0482ZM11.9703 15.5972H11.9623H11.9703ZM14.7973 15.5912L14.8093 15.5972L14.7973 15.5912ZM12.3703 14.0102L12.4703 14.1042C12.5958 14.2236 12.6899 14.3722 12.7441 14.5367C12.7984 14.7012 12.8111 14.8766 12.7812 15.0472L12.7563 15.1922L12.9023 15.1162C13.0543 15.0379 13.2228 14.997 13.3938 14.997C13.5648 14.997 13.7332 15.0379 13.8852 15.1162L14.0303 15.1922L14.0052 15.0472C13.9753 14.8768 13.9878 14.7015 14.0417 14.537C14.0956 14.3726 14.1892 14.2239 14.3143 14.1042L14.4143 14.0102L14.2682 13.9892C14.0982 13.9647 13.9367 13.8994 13.7974 13.7989C13.6581 13.6984 13.5452 13.5658 13.4683 13.4122L13.3953 13.2662L13.3213 13.4132C13.2441 13.5665 13.131 13.6989 12.9917 13.7992C12.8525 13.8994 12.6911 13.9646 12.5213 13.9892L12.3703 14.0102ZM15.0633 13.3822L15.0572 13.3882L15.0633 13.3822Z" fill="#000000" />
</svg>