<svg width="24px"  height="24px"  viewBox="0 0 25 24" fill="none" xmlns="http://www.w3.org/2000/svg">
<path d="M18.4771 20.0436C18.3091 20.0436 18.2261 20.0436 18.1451 20.0366C17.6015 20.0002 17.0812 19.802 16.6511 19.4676C16.5971 19.4266 16.5371 19.3756 16.4321 19.2816C16.3053 19.1593 16.1717 19.0441 16.0321 18.9366C15.8254 18.7968 15.5816 18.722 15.3321 18.722C15.0826 18.722 14.8387 18.7968 14.6321 18.9366C14.4988 19.0359 14.3719 19.1435 14.2521 19.2586C14.1111 19.3836 14.0521 19.4326 13.9961 19.4766C13.566 19.809 13.0465 20.0054 12.5041 20.0406C12.4271 20.0466 12.3441 20.0476 12.1771 20.0476H6.77709C6.10217 20.0904 5.42456 20.0457 4.7611 19.9146C4.13486 19.7404 3.56424 19.4074 3.10451 18.9478C2.64479 18.4883 2.31155 17.9178 2.13709 17.2916C2.0051 16.6276 1.96006 15.9493 2.00309 15.2736C1.99741 15.0911 2.0041 14.9083 2.02309 14.7266L2.04009 14.6036C2.05638 14.3443 2.16996 14.1008 2.3581 13.9216L2.4401 13.8296C2.74959 13.5319 3.07435 13.2506 3.41309 12.9866L3.55509 12.8676C3.68456 12.7589 3.78826 12.6228 3.85873 12.4691C3.92919 12.3154 3.96465 12.148 3.96255 11.9789C3.96044 11.8098 3.92083 11.6434 3.84656 11.4915C3.7723 11.3396 3.66522 11.2061 3.53309 11.1006C3.1597 10.8264 2.80213 10.5313 2.46209 10.2166L2.3991 10.1476C2.19243 9.9565 2.06561 9.69431 2.04409 9.41362L2.0281 9.31362C2.00853 9.12462 2.00151 8.93454 2.00709 8.74462C1.96221 8.06098 2.00761 7.37441 2.1421 6.70263C2.31642 6.08019 2.64785 5.51304 3.10456 5.05562C3.56127 4.59821 4.12793 4.26591 4.7501 4.09063C5.4225 3.9557 6.1097 3.90965 6.79409 3.95363H12.1801C12.3471 3.95363 12.4301 3.95362 12.5111 3.96062C13.0547 3.99714 13.5749 4.19529 14.0051 4.52962C14.0571 4.56862 14.1141 4.61764 14.2121 4.70464C14.3454 4.83233 14.486 4.95218 14.6331 5.06362C14.8394 5.20425 15.0834 5.27947 15.3331 5.27947C15.5828 5.27947 15.8267 5.20425 16.0331 5.06362C16.1642 4.96622 16.2888 4.86034 16.4061 4.74663C16.5491 4.62063 16.6061 4.56964 16.6701 4.52364C17.0992 4.19154 17.6177 3.99512 18.1591 3.95961C18.2381 3.95361 18.3211 3.95263 18.4901 3.95263C18.755 3.93587 19.0209 3.94826 19.2831 3.98961C20.0789 4.10343 20.8173 4.46961 21.3895 5.03429C21.9617 5.59897 22.3377 6.33238 22.4621 7.12664C22.5064 7.51362 22.5215 7.90338 22.5071 8.29262V8.74163C22.5127 8.93222 22.5057 9.12295 22.4861 9.31261L22.4711 9.41262C22.451 9.69534 22.3237 9.95973 22.1151 10.1516L22.0451 10.2276C21.7032 10.5387 21.3454 10.8317 20.9731 11.1056C20.8393 11.2135 20.7314 11.35 20.6572 11.505C20.5831 11.6601 20.5446 11.8298 20.5446 12.0016C20.5446 12.1735 20.5831 12.3432 20.6572 12.4982C20.7314 12.6533 20.8393 12.7898 20.9731 12.8976C21.345 13.1731 21.7024 13.4675 22.0441 13.7796L22.1131 13.8556C22.3199 14.0469 22.4465 14.3096 22.4671 14.5906L22.4821 14.6906C22.5017 14.8796 22.5087 15.0697 22.5031 15.2596V15.7086C22.5175 16.0985 22.5028 16.4889 22.4591 16.8766C22.3046 17.8022 21.8134 18.638 21.0801 19.2235C20.3467 19.809 19.4229 20.1029 18.4861 20.0486L18.4771 20.0436ZM18.4771 18.5436C18.6622 18.5567 18.8482 18.5507 19.0321 18.5256C19.5148 18.4615 19.9639 18.2434 20.3127 17.9036C20.6616 17.5638 20.8914 17.1205 20.9681 16.6396C20.9964 16.3288 21.005 16.0165 20.9941 15.7046V15.2546C20.9941 15.0746 20.9941 14.9746 20.9941 14.9096L20.9331 14.7876C20.8701 14.7306 20.5741 14.4966 20.0331 14.0636C19.7229 13.8153 19.4725 13.5005 19.3004 13.1424C19.1283 12.7842 19.0389 12.392 19.0389 11.9946C19.0389 11.5973 19.1283 11.205 19.3004 10.8469C19.4725 10.4887 19.7229 10.1739 20.0331 9.92562C20.5751 9.49462 20.8701 9.26261 20.9561 9.18361L20.9971 9.07662C21.0021 9.01862 20.9971 8.91763 20.9971 8.73763V8.28862C21.0075 7.97703 20.9985 7.6651 20.9701 7.35463C20.8978 6.8825 20.6768 6.4457 20.3393 6.10778C20.0017 5.76986 19.5652 5.54843 19.0931 5.47564C18.8903 5.44498 18.6848 5.43593 18.4801 5.44863C18.3661 5.44863 18.3101 5.44863 18.2551 5.44863C18.0067 5.46515 17.7689 5.55533 17.5721 5.70763C17.5271 5.74063 17.4921 5.77362 17.4271 5.83162C17.247 6.00201 17.056 6.16035 16.8551 6.30562C16.4026 6.61017 15.8695 6.77285 15.3241 6.77285C14.7786 6.77285 14.2456 6.61017 13.7931 6.30562C13.6024 6.16774 13.421 6.0174 13.2501 5.85561C13.1501 5.77061 13.1221 5.74062 13.0871 5.71462C12.8891 5.56013 12.6496 5.4682 12.3991 5.45061C12.3431 5.45061 12.2861 5.45061 12.1741 5.45061H6.78809C6.23907 5.41883 5.68822 5.44633 5.14509 5.53261C4.77205 5.63806 4.43234 5.83752 4.15848 6.1119C3.88463 6.38627 3.68582 6.72639 3.58109 7.09963C3.49528 7.64214 3.46845 8.19234 3.50109 8.74062C3.50109 8.92062 3.50109 9.02062 3.50109 9.08562L3.56209 9.20662C3.62909 9.26662 3.92309 9.49863 4.46209 9.92663C4.77305 10.1744 5.02391 10.4893 5.19588 10.8478C5.36785 11.2063 5.45648 11.599 5.4551 11.9966C5.45063 12.3806 5.36429 12.7593 5.20185 13.1073C5.03941 13.4553 4.8046 13.7646 4.5131 14.0146L4.3711 14.1336C3.8861 14.5406 3.61609 14.7666 3.53809 14.8426L3.49909 14.9476C3.49409 15.0026 3.49909 15.0996 3.49909 15.2716C3.46801 15.8133 3.49483 16.3567 3.57909 16.8926C3.68393 17.2682 3.88387 17.6104 4.1596 17.8861C4.43532 18.1619 4.77752 18.3618 5.1531 18.4666C5.68882 18.5499 6.23182 18.5763 6.77309 18.5456H12.1731C12.2861 18.5456 12.3421 18.5456 12.3961 18.5456C12.6445 18.5293 12.8824 18.4391 13.0791 18.2866C13.1211 18.2556 13.1541 18.2256 13.2121 18.1736C13.3957 17.9983 13.5915 17.8362 13.7981 17.6886C14.2499 17.3833 14.7828 17.2202 15.3281 17.2202C15.8734 17.2202 16.4063 17.3833 16.8581 17.6886C17.047 17.8235 17.2261 17.9715 17.3941 18.1316C17.4941 18.2166 17.5261 18.2496 17.5641 18.2776C17.7613 18.432 18.0002 18.5239 18.2501 18.5416C18.3071 18.5446 18.3631 18.5426 18.4771 18.5436Z" fill="#000000" />
<path d="M15.4834 14.0957C15.2845 14.0957 15.0937 14.0167 14.9531 13.8761C14.8124 13.7354 14.7334 13.5446 14.7334 13.3457V10.6367C14.7334 10.4378 14.8124 10.247 14.9531 10.1064C15.0937 9.96573 15.2845 9.88672 15.4834 9.88672C15.6823 9.88672 15.8731 9.96573 16.0137 10.1064C16.1544 10.247 16.2334 10.4378 16.2334 10.6367V13.3457C16.2334 13.5446 16.1544 13.7354 16.0137 13.8761C15.8731 14.0167 15.6823 14.0957 15.4834 14.0957Z" fill="#000000" />
<path d="M15.4834 8.71506C15.2845 8.71506 15.0937 8.63604 14.9531 8.49539C14.8124 8.35474 14.7334 8.16397 14.7334 7.96506V6.03906C14.7334 5.84015 14.8124 5.64938 14.9531 5.50873C15.0937 5.36808 15.2845 5.28906 15.4834 5.28906C15.6823 5.28906 15.8731 5.36808 16.0137 5.50873C16.1544 5.64938 16.2334 5.84015 16.2334 6.03906V7.96506C16.2334 8.16397 16.1544 8.35474 16.0137 8.49539C15.8731 8.63604 15.6823 8.71506 15.4834 8.71506Z" fill="#000000" />
<path d="M15.4834 18.7268C15.2845 18.7268 15.0937 18.6478 14.9531 18.5071C14.8124 18.3665 14.7334 18.1757 14.7334 17.9768V16.0508C14.7334 15.8519 14.8124 15.6611 14.9531 15.5204C15.0937 15.3798 15.2845 15.3008 15.4834 15.3008C15.6823 15.3008 15.8731 15.3798 16.0137 15.5204C16.1544 15.6611 16.2334 15.8519 16.2334 16.0508V17.9768C16.2334 18.1757 16.1544 18.3665 16.0137 18.5071C15.8731 18.6478 15.6823 18.7268 15.4834 18.7268Z" fill="#000000" />
<path d="M8.45268 15.0872C8.34386 15.0866 8.23572 15.0701 8.13168 15.0382C7.87997 14.9609 7.66479 14.7951 7.52598 14.5713C7.38717 14.3476 7.33414 14.0811 7.37669 13.8213L7.53169 12.9322L6.87768 12.3043C6.73026 12.1623 6.62608 11.9814 6.57722 11.7827C6.52836 11.584 6.53681 11.3755 6.60159 11.1813C6.66637 10.9872 6.78483 10.8154 6.94325 10.6858C7.10167 10.5562 7.29356 10.4742 7.49668 10.4492L8.39068 10.3202L8.79869 9.50824C8.8636 9.37988 8.95328 9.26565 9.06256 9.17211C9.17183 9.07858 9.29852 9.00756 9.43536 8.96322C9.57219 8.91888 9.71646 8.90208 9.85983 8.91375C10.0032 8.92542 10.1428 8.96535 10.2707 9.03125C10.4719 9.13544 10.6361 9.29923 10.7407 9.50024V9.50824L11.1467 10.3192L12.0587 10.4512C12.1978 10.4698 12.3318 10.5157 12.4532 10.5862C12.5745 10.6568 12.6807 10.7506 12.7657 10.8622C12.8529 10.9746 12.917 11.1032 12.9542 11.2405C12.9915 11.3778 13.0012 11.5212 12.9827 11.6622C12.9496 11.9061 12.8351 12.1317 12.6577 12.3022L12.0057 12.9293L12.1607 13.8112C12.2078 14.0972 12.1395 14.3903 11.9707 14.6259C11.802 14.8616 11.5466 15.0207 11.2607 15.0682C11.0273 15.1038 10.7887 15.0649 10.5787 14.9572L9.76469 14.5352L8.94668 14.9593C8.79491 15.0416 8.62532 15.0855 8.45268 15.0872ZM9.96269 14.4412H9.95768H9.96269ZM8.26269 13.6322L8.25169 13.6372L8.26269 13.6322ZM8.53369 11.8192L8.73368 12.0082C8.86213 12.1308 8.9583 12.2832 9.01361 12.4519C9.06891 12.6206 9.08165 12.8004 9.05068 12.9752L9.00169 13.2532L9.27168 13.1132C9.42706 13.0319 9.59982 12.9895 9.77519 12.9895C9.95055 12.9895 10.1233 13.0319 10.2787 13.1132L10.5457 13.2523L10.4967 12.9742C10.4655 12.798 10.4787 12.6168 10.5351 12.4469C10.5915 12.277 10.6893 12.1239 10.8197 12.0012L11.0117 11.8173L10.7277 11.7762C10.5537 11.7518 10.3882 11.6854 10.2455 11.5828C10.1028 11.4802 9.98723 11.3445 9.90869 11.1873L9.77369 10.9172L9.63868 11.1873C9.5602 11.3435 9.44527 11.4786 9.3036 11.5811C9.16192 11.6836 8.99766 11.7506 8.82469 11.7762L8.53369 11.8192ZM11.8567 13.0832L11.8497 13.0892L11.8567 13.0832ZM11.8467 11.9392H11.8597H11.8467ZM7.70669 11.9392H7.69068H7.70669Z" fill="#000000" />
</svg>