<svg width="24px"  height="24px"  viewBox="0 0 25 24" fill="none" xmlns="http://www.w3.org/2000/svg">
<path fill-rule="evenodd" clip-rule="evenodd" d="M8.03809 16.0586C8.4523 16.0586 8.78809 16.3944 8.78809 16.8086V16.8186C8.78809 17.2328 8.4523 17.5686 8.03809 17.5686C7.62387 17.5686 7.28809 17.2328 7.28809 16.8186V16.8086C7.28809 16.3944 7.62387 16.0586 8.03809 16.0586Z" fill="#000000" />
<path fill-rule="evenodd" clip-rule="evenodd" d="M8.03809 12.8516C8.4523 12.8516 8.78809 13.1873 8.78809 13.6016V13.6116C8.78809 14.0258 8.4523 14.3616 8.03809 14.3616C7.62387 14.3616 7.28809 14.0258 7.28809 13.6116V13.6016C7.28809 13.1873 7.62387 12.8516 8.03809 12.8516Z" fill="#000000" />
<path fill-rule="evenodd" clip-rule="evenodd" d="M8.03809 9.64062C8.4523 9.64062 8.78809 9.97641 8.78809 10.3906V10.4006C8.78809 10.8148 8.4523 11.1506 8.03809 11.1506C7.62387 11.1506 7.28809 10.8148 7.28809 10.4006V10.3906C7.28809 9.97641 7.62387 9.64062 8.03809 9.64062Z" fill="#000000" />
<path fill-rule="evenodd" clip-rule="evenodd" d="M8.03809 6.42969C8.4523 6.42969 8.78809 6.76547 8.78809 7.17969V7.18969C8.78809 7.6039 8.4523 7.93969 8.03809 7.93969C7.62387 7.93969 7.28809 7.6039 7.28809 7.18969V7.17969C7.28809 6.76547 7.62387 6.42969 8.03809 6.42969Z" fill="#000000" />
<path fill-rule="evenodd" clip-rule="evenodd" d="M13.6241 10.5598L13.8634 11.0379L13.864 11.0391C14.031 11.3713 14.3501 11.5991 14.7161 11.651C14.7167 11.6511 14.7172 11.6511 14.7178 11.6512L15.2322 11.7253L14.8669 12.0762C14.5963 12.3349 14.4718 12.7116 14.5369 13.0817C14.5369 13.0821 14.537 13.0825 14.537 13.0828L14.6255 13.5897L14.1477 13.342C13.8199 13.1726 13.4297 13.1722 13.1019 13.3415L12.6229 13.5898L12.7116 13.0813C12.7116 13.0814 12.7116 13.0813 12.7116 13.0813C12.7761 12.7117 12.6517 12.3352 12.3817 12.0767C12.3814 12.0765 12.3811 12.0762 12.3809 12.076L12.0158 11.7255L12.5313 11.6513C12.8976 11.5993 13.2158 11.3716 13.383 11.0409L13.6241 10.5598ZM14.1458 8.73648C13.5897 8.44888 12.905 8.6656 12.6166 9.22242L12.1298 10.1937L11.051 10.349C10.8011 10.3833 10.5691 10.5006 10.3932 10.683C9.96158 11.1314 9.97544 11.8442 10.4223 12.2752L10.4237 12.2765L11.1995 13.0212L11.0165 14.07L11.0151 14.0783C10.9752 14.3232 11.0174 14.5721 11.1314 14.7883L11.1324 14.7901C11.4245 15.3403 12.1065 15.551 12.658 15.2611L13.6243 14.7603L14.5903 15.261C14.8063 15.3743 15.0532 15.4151 15.2946 15.3767L15.2962 15.3764C15.9124 15.2771 16.3331 14.6971 16.2335 14.0792L16.0489 13.0208L16.8251 12.275C17.0086 12.098 17.1263 11.8642 17.1598 11.6124L17.1599 11.6112C17.2404 10.998 16.8111 10.4326 16.1961 10.3486L15.1181 10.1934L14.6369 9.23181L14.6323 9.2227C14.5247 9.01473 14.3551 8.84452 14.1458 8.73648ZM12.3185 10.1665C12.3185 10.1665 12.3185 10.1665 12.3185 10.1665V10.1665Z" fill="#000000" />
<path d="M16.8441 20.0455H7.65007C6.89012 20.0963 6.12679 20.0435 5.38107 19.8885C4.73278 19.703 4.14239 19.3555 3.66548 18.8788C3.18858 18.402 2.84086 17.8118 2.65508 17.1635C2.50104 16.4177 2.44856 15.6544 2.49907 14.8945C2.49238 14.7064 2.50142 14.5181 2.52608 14.3315C2.54382 14.1624 2.59763 13.9989 2.68388 13.8523C2.77014 13.7057 2.88682 13.5792 3.02608 13.4815C3.28843 13.3001 3.56385 13.1383 3.85008 12.9975C4.03419 12.8998 4.18807 12.7537 4.29509 12.5748C4.40211 12.3959 4.45819 12.1912 4.45726 11.9828C4.45633 11.7744 4.39843 11.5702 4.28983 11.3923C4.18122 11.2144 4.02605 11.0696 3.84108 10.9735C3.56722 10.8456 3.30375 10.6965 3.05307 10.5275C2.90962 10.4295 2.78876 10.302 2.69856 10.1535C2.60837 10.0051 2.55092 9.83902 2.53008 9.66654C2.50603 9.48961 2.49667 9.31101 2.50208 9.13254C2.44956 8.36239 2.5017 7.58868 2.65707 6.83254C2.84253 6.18436 3.18988 5.59404 3.66643 5.11715C4.14297 4.64026 4.73304 4.29247 5.38107 4.10654C6.12834 3.95052 6.89342 3.89736 7.65508 3.94854H16.8421C17.6054 3.89738 18.3721 3.95053 19.1211 4.10654C19.7673 4.29274 20.3557 4.63985 20.8312 5.11538C21.3068 5.59092 21.6539 6.17932 21.8401 6.82554C21.9961 7.57449 22.0493 8.34122 21.9981 9.10454C22.007 9.2947 21.9973 9.48527 21.9691 9.67354C21.9484 9.84452 21.8915 10.0091 21.8021 10.1564C21.7128 10.3036 21.5931 10.4302 21.4511 10.5275C21.2105 10.6915 20.9566 10.835 20.6921 10.9565C20.496 11.0506 20.3306 11.1984 20.215 11.3826C20.0995 11.5668 20.0385 11.7801 20.0391 11.9975C20.0373 12.2084 20.0941 12.4157 20.2032 12.5961C20.3124 12.7766 20.4695 12.9232 20.6571 13.0195C20.9341 13.1473 21.2 13.2978 21.4521 13.4695C21.5948 13.5673 21.7151 13.6944 21.8048 13.8424C21.8945 13.9903 21.9515 14.1557 21.9721 14.3275C21.9963 14.5145 22.0054 14.7031 21.9991 14.8915C22.0511 15.6545 21.9979 16.421 21.8411 17.1695C21.6554 17.8161 21.3084 18.4049 20.8328 18.8807C20.3572 19.3564 19.7686 19.7036 19.1221 19.8895C18.3734 20.0449 17.607 20.0974 16.8441 20.0455ZM4.00607 14.6295C3.99907 14.7105 4.00008 14.7875 4.00008 14.8945C3.96166 15.514 3.99523 16.1358 4.10008 16.7475C4.21571 17.152 4.43247 17.5203 4.72991 17.8177C5.02734 18.1152 5.39565 18.3319 5.80008 18.4475C6.41147 18.5524 7.03295 18.586 7.65207 18.5475H16.8451C17.4669 18.5867 18.0911 18.5532 18.7051 18.4475C19.1095 18.3319 19.4778 18.1152 19.7753 17.8177C20.0727 17.5203 20.2894 17.152 20.4051 16.7475C20.5095 16.1334 20.543 15.5093 20.5051 14.8875C20.5051 14.7725 20.5051 14.6935 20.5051 14.6355C20.3901 14.5645 20.2211 14.4775 19.9651 14.3425C19.5366 14.1181 19.1778 13.7807 18.9274 13.3669C18.677 12.9531 18.5446 12.4787 18.5446 11.995C18.5446 11.5114 18.677 11.0369 18.9274 10.6231C19.1778 10.2093 19.5366 9.87194 19.9651 9.64754C20.2411 9.50354 20.4071 9.41754 20.4991 9.36554C20.5061 9.28654 20.5051 9.21054 20.5051 9.10454C20.5442 8.48243 20.5107 7.85787 20.4051 7.24354C20.2894 6.83915 20.0726 6.47088 19.7752 6.17346C19.4777 5.87604 19.1095 5.65925 18.7051 5.54354C18.0907 5.43795 17.4662 5.40439 16.8441 5.44354H7.65707C7.03662 5.40508 6.4138 5.43864 5.80107 5.54354C5.3969 5.65968 5.02887 5.87661 4.73151 6.17397C4.43415 6.47133 4.21722 6.83936 4.10108 7.24354C3.99743 7.85674 3.96389 8.47975 4.00108 9.10054C4.00108 9.21954 4.00108 9.30054 4.00108 9.35054C4.11508 9.42054 4.28308 9.50854 4.53908 9.64354C4.96878 9.86808 5.3285 10.2064 5.57893 10.6216C5.82936 11.0367 5.96087 11.5127 5.95908 11.9975C5.95317 12.4697 5.82297 12.932 5.58159 13.3379C5.34021 13.7438 4.99616 14.0789 4.58408 14.3095C4.29108 14.4705 4.10507 14.5705 4.00607 14.6295Z" fill="#000000" />
</svg>