<svg width="24px"  height="24px"  viewBox="0 0 25 24" fill="none" xmlns="http://www.w3.org/2000/svg">
<path d="M13.0119 21.7375C12.5121 21.7359 12.0174 21.6355 11.5564 21.4421C11.0955 21.2487 10.6773 20.9661 10.3259 20.6105L10.1719 20.4565C8.15861 18.4491 6.14861 16.4388 4.14194 14.4255C3.23022 13.5321 2.66804 12.3421 2.55694 11.0705C2.49094 10.3555 2.50094 8.39448 2.51594 6.61148L2.52094 5.96646C2.52966 5.09474 2.84182 4.25331 3.40374 3.58682C3.96566 2.92032 4.74224 2.47042 5.59994 2.31448C5.81494 2.27548 6.61794 2.24747 10.3999 2.26147H10.7179C11.4663 2.25282 12.2086 2.39651 12.8997 2.68377C13.5908 2.97104 14.2162 3.39587 14.7379 3.93246C16.7826 5.97513 18.8256 8.01915 20.8669 10.0645C21.2223 10.4113 21.5051 10.8254 21.6989 11.2826C21.8927 11.7397 21.9936 12.2309 21.9959 12.7274C21.9981 13.224 21.9016 13.716 21.7119 14.1749C21.5222 14.6338 21.2431 15.0504 20.8909 15.4005C19.1543 17.1525 17.4096 18.8968 15.6569 20.6335C14.9562 21.3371 14.005 21.7341 13.0119 21.7375ZM9.49994 3.76046C8.11394 3.76046 6.11294 3.76547 5.83694 3.79547C5.33199 3.89703 4.87688 4.16802 4.54699 4.56356C4.21709 4.95911 4.0322 5.45548 4.02294 5.97045L4.01794 6.62448C4.00794 7.79548 3.98794 10.2315 4.05194 10.9335C4.12985 11.8579 4.53977 12.7228 5.20594 13.3685C7.20594 15.3838 9.21428 17.3925 11.2309 19.3945L11.3859 19.5485C11.5932 19.7666 11.8424 19.9406 12.1185 20.0601C12.3946 20.1795 12.692 20.2421 12.9929 20.2438C13.2938 20.2456 13.5919 20.1866 13.8694 20.0704C14.1469 19.9542 14.3981 19.7831 14.6079 19.5675C16.3559 17.8341 18.0969 16.0931 19.8309 14.3445C20.0463 14.1346 20.2171 13.8834 20.3332 13.606C20.4492 13.3286 20.5081 13.0306 20.5063 12.7299C20.5046 12.4292 20.4422 12.132 20.3228 11.856C20.2035 11.5799 20.0298 11.3308 19.8119 11.1235C17.7719 9.07814 15.7293 7.0348 13.6839 4.99346C13.3015 4.59571 12.8412 4.28103 12.3318 4.06906C11.8223 3.85709 11.2747 3.75239 10.7229 3.76147H9.49994V3.76046Z" fill="#000000" />
<path d="M8.55762 10.6558C8.24088 10.6665 7.92524 10.6131 7.62965 10.4988C7.33406 10.3845 7.06462 10.2116 6.83752 9.9906C6.61041 9.76955 6.43031 9.50488 6.30805 9.21249C6.18579 8.9201 6.12387 8.60603 6.12603 8.28912C6.12819 7.97221 6.19437 7.65898 6.32061 7.36828C6.44684 7.07759 6.63052 6.8154 6.86062 6.59747C7.09071 6.37954 7.36248 6.21037 7.6596 6.10009C7.95672 5.98982 8.27306 5.94073 8.58962 5.95578H8.60062C8.9041 5.95702 9.2043 6.01856 9.48379 6.13684C9.76327 6.25512 10.0164 6.42778 10.2286 6.64477C10.4494 6.86579 10.6241 7.12848 10.7425 7.41757C10.861 7.70665 10.9208 8.01639 10.9186 8.32879C10.912 8.9498 10.6601 9.54299 10.2178 9.97894C9.77544 10.4149 9.17866 10.6582 8.55762 10.6558ZM8.58462 7.45578C8.46992 7.45268 8.35577 7.47275 8.24901 7.5148C8.14225 7.55684 8.04507 7.61999 7.96328 7.70047C7.8815 7.78094 7.81679 7.87708 7.77303 7.98315C7.72928 8.08922 7.70737 8.20304 7.70862 8.31778C7.71 8.53813 7.79885 8.74892 7.95562 8.90377C8.03383 8.98381 8.12712 9.04754 8.2301 9.0913C8.33309 9.13507 8.44372 9.15802 8.55562 9.15878C8.77882 9.15809 8.99299 9.07053 9.15277 8.91467C9.31255 8.75881 9.40538 8.54691 9.41162 8.32379C9.4123 8.20826 9.39012 8.09373 9.34635 7.98681C9.30259 7.87989 9.23811 7.78267 9.15662 7.70077C9.00087 7.5549 8.79952 7.46731 8.58662 7.45279L8.58462 7.45578Z" fill="#000000" />
<path d="M11.289 14.358C11.1407 14.3576 10.9959 14.3133 10.8728 14.2308C10.7497 14.1482 10.6538 14.0311 10.5971 13.8941C10.5404 13.7571 10.5256 13.6065 10.5544 13.4611C10.5832 13.3157 10.6544 13.182 10.759 13.077L13.335 10.501C13.4757 10.3603 13.6665 10.2812 13.8655 10.2812C14.0644 10.2812 14.2553 10.3603 14.396 10.501C14.5367 10.6417 14.6157 10.8325 14.6157 11.0315C14.6157 11.2305 14.5367 11.4213 14.396 11.562L11.819 14.138C11.7495 14.2078 11.6669 14.2631 11.5759 14.3008C11.485 14.3386 11.3874 14.358 11.289 14.358Z" fill="#000000" />
<path d="M13.6345 16.7024C13.4861 16.7028 13.3409 16.659 13.2174 16.5767C13.0938 16.4943 12.9976 16.3771 12.9408 16.24C12.884 16.1028 12.8692 15.9518 12.8984 15.8063C12.9275 15.6607 12.9993 15.5271 13.1045 15.4224L15.6805 12.8464C15.7497 12.7747 15.8324 12.7176 15.9239 12.6782C16.0154 12.6389 16.1138 12.6181 16.2134 12.6172C16.313 12.6163 16.4117 12.6352 16.5039 12.6729C16.5961 12.7106 16.6799 12.7662 16.7503 12.8366C16.8208 12.907 16.8765 12.9907 16.9143 13.0829C16.952 13.175 16.971 13.2738 16.9702 13.3734C16.9694 13.4729 16.9488 13.5714 16.9095 13.6629C16.8702 13.7544 16.8131 13.8372 16.7415 13.9064L14.1645 16.4834C14.095 16.553 14.0124 16.6082 13.9214 16.6458C13.8304 16.6834 13.733 16.7026 13.6345 16.7024Z" fill="#000000" />
</svg>