<svg width="24px"  height="24px"  viewBox="0 0 25 24" fill="none" xmlns="http://www.w3.org/2000/svg">
<path d="M13.0119 21.7382C12.5119 21.7363 12.0172 21.6359 11.5561 21.4425C11.095 21.2491 10.6766 20.9666 10.3249 20.6112L10.1669 20.4532C8.15556 18.4472 6.14723 16.4382 4.1419 14.4262C3.23091 13.5325 2.66945 12.3426 2.5589 11.0712C2.4929 10.3562 2.50289 8.39521 2.51789 6.61221V5.96719C2.52662 5.09547 2.83877 4.25405 3.40069 3.58755C3.96261 2.92106 4.73919 2.47116 5.59689 2.31521C5.81189 2.27621 6.61689 2.2462 10.3969 2.2622H10.7149C11.4633 2.2535 12.2056 2.39715 12.8967 2.68441C13.5878 2.97168 14.2132 3.39656 14.7349 3.93319C16.7796 5.97586 18.8226 8.01988 20.8639 10.0652C21.2192 10.4121 21.502 10.8261 21.6958 11.2833C21.8896 11.7405 21.9906 12.2316 21.9928 12.7282C21.9951 13.2247 21.8985 13.7168 21.7088 14.1757C21.5191 14.6346 21.2401 15.0512 20.8879 15.4012C19.1512 17.1532 17.4066 18.8975 15.6539 20.6342C14.954 21.3373 14.0039 21.7342 13.0119 21.7382ZM9.49989 3.7612C8.11289 3.7612 6.1129 3.7662 5.83689 3.7962C5.33194 3.89776 4.87684 4.16875 4.54694 4.5643C4.21704 4.95985 4.03215 5.45621 4.02289 5.97119V6.62521C4.01289 7.79621 3.9929 10.2322 4.0569 10.9342C4.1348 11.8586 4.54473 12.7236 5.2109 13.3692C7.2109 15.3832 9.21756 17.3905 11.2309 19.3912L11.3899 19.5492C11.5974 19.7671 11.8467 19.9409 12.1229 20.0602C12.3991 20.1795 12.6965 20.242 12.9974 20.2437C13.2982 20.2455 13.5964 20.1866 13.8739 20.0706C14.1515 19.9545 14.4028 19.7836 14.6129 19.5682C16.3609 17.8349 18.1019 16.0939 19.8359 14.3452C20.0513 14.1353 20.2221 13.8842 20.3381 13.6067C20.4542 13.3293 20.5131 13.0314 20.5113 12.7306C20.5095 12.4299 20.4471 12.1327 20.3278 11.8567C20.2085 11.5807 20.0347 11.3315 19.8169 11.1242C17.7769 9.07887 15.7342 7.03553 13.6889 4.9942C13.3065 4.59645 12.8462 4.28176 12.3367 4.06979C11.8273 3.85782 11.2796 3.75313 10.7279 3.7622H9.49989V3.7612Z" fill="#000000" />
<path d="M8.55581 10.6558H8.54981C8.23307 10.6665 7.91742 10.6131 7.62183 10.4988C7.32625 10.3845 7.05681 10.2116 6.82971 9.9906C6.6026 9.76955 6.4225 9.50488 6.30023 9.21249C6.17797 8.9201 6.11606 8.60603 6.11822 8.28912C6.12038 7.97221 6.18656 7.65898 6.31279 7.36828C6.43902 7.07759 6.62271 6.8154 6.85281 6.59747C7.0829 6.37954 7.35467 6.21037 7.65179 6.10009C7.94891 5.98982 8.26524 5.94073 8.5818 5.95578H8.59281C8.89628 5.95702 9.19649 6.01856 9.47598 6.13684C9.75546 6.25512 10.0086 6.42778 10.2208 6.64477C10.4416 6.86579 10.6163 7.12848 10.7347 7.41757C10.8532 7.70665 10.913 8.01639 10.9108 8.32879C10.9042 8.94876 10.6531 9.54103 10.2121 9.9768C9.77106 10.4126 9.17581 10.6566 8.55581 10.6558ZM8.58281 7.45578C8.46811 7.45268 8.35396 7.47275 8.2472 7.5148C8.14044 7.55684 8.04326 7.61999 7.96147 7.70047C7.87969 7.78094 7.81498 7.87708 7.77122 7.98315C7.72746 8.08922 7.70555 8.20304 7.7068 8.31778C7.70818 8.53813 7.79703 8.74892 7.95381 8.90377C8.03201 8.98381 8.1253 9.04754 8.22829 9.0913C8.33127 9.13507 8.44191 9.15802 8.5538 9.15878C8.77701 9.15809 8.99118 9.07053 9.15096 8.91467C9.31073 8.75881 9.40357 8.54691 9.40981 8.32379C9.41048 8.20826 9.3883 8.09373 9.34454 7.98681C9.30077 7.87989 9.2363 7.78267 9.15481 7.70077C8.99868 7.55426 8.79647 7.46661 8.58281 7.45279V7.45578Z" fill="#000000" />
<path d="M9.55696 19.4973C9.40872 19.4971 9.26384 19.4531 9.14063 19.3706C9.01741 19.2882 8.92138 19.1711 8.86467 19.0341C8.80796 18.8972 8.79311 18.7465 8.82199 18.6011C8.85088 18.4557 8.9222 18.3221 9.02696 18.2173L18.46 8.78223C18.6007 8.64153 18.7915 8.5625 18.9905 8.5625C19.1894 8.5625 19.3803 8.64153 19.521 8.78223C19.6617 8.92292 19.7407 9.11377 19.7407 9.31274C19.7407 9.51172 19.6617 9.70253 19.521 9.84323L10.087 19.2782C10.0174 19.3478 9.93477 19.403 9.84381 19.4406C9.75286 19.4782 9.65538 19.4975 9.55696 19.4973Z" fill="#000000" />
</svg>