<svg width="24px"  height="24px"  viewBox="0 0 25 24" fill="none" xmlns="http://www.w3.org/2000/svg">
<path d="M11.4936 21.7381C10.4988 21.7374 9.5449 21.3418 8.84163 20.6381C7.08963 18.9048 5.34497 17.1604 3.60764 15.4051C3.2556 15.0549 2.97666 14.6382 2.78702 14.1793C2.59738 13.7204 2.50082 13.2283 2.50296 12.7318C2.5051 12.2352 2.6059 11.744 2.79949 11.2868C2.99307 10.8295 3.27559 10.4153 3.63063 10.0681C5.67197 8.02277 7.71531 5.97944 9.76064 3.9381C10.2823 3.40133 10.9077 2.97631 11.5988 2.68887C12.2899 2.40143 13.0322 2.25759 13.7806 2.26611H14.0986C17.8876 2.25011 18.6866 2.28009 18.9056 2.32009C19.7627 2.47644 20.5386 2.92641 21.0999 3.59267C21.6612 4.25894 21.973 5.09992 21.9816 5.97109L21.9866 6.62411C22.0016 8.40311 22.0126 10.3611 21.9456 11.0761C21.8348 12.3471 21.2734 13.5367 20.3626 14.4301C18.4093 16.3948 16.4513 18.3531 14.4886 20.3051L14.1786 20.6151C13.827 20.9698 13.4089 21.2516 12.9481 21.4443C12.4874 21.637 11.9931 21.7368 11.4936 21.7381ZM15.0516 3.76009H13.7816C13.2297 3.75119 12.6819 3.85606 12.1723 4.0682C11.6627 4.28033 11.2022 4.59518 10.8196 4.9931C8.77565 7.03376 6.73331 9.07676 4.69265 11.1221C4.47483 11.3294 4.30105 11.5785 4.18174 11.8546C4.06242 12.1306 4.00002 12.4279 3.99825 12.7286C3.99648 13.0293 4.05537 13.3272 4.17142 13.6046C4.28747 13.8821 4.45828 14.1332 4.67363 14.3431C6.40697 16.0931 8.1483 17.8344 9.89763 19.5671C10.1075 19.7825 10.3587 19.9533 10.6361 20.0693C10.9135 20.1854 11.2115 20.2443 11.5122 20.2425C11.8129 20.2407 12.1101 20.1783 12.3862 20.059C12.6622 19.9397 12.9113 19.7659 13.1186 19.5481L13.4296 19.2371C15.3896 17.2831 17.346 15.3264 19.2986 13.3671C19.9647 12.7219 20.3744 11.8572 20.4516 10.9331C20.5176 10.2331 20.4966 7.80011 20.4866 6.63311L20.4816 5.97109C20.4716 5.45308 20.2841 4.9542 19.9505 4.55779C19.6169 4.16138 19.1573 3.89143 18.6486 3.79308C18.3896 3.76408 16.4346 3.76009 15.0476 3.76009H15.0516Z" fill="#000000" />
<path d="M15.9478 10.6514C15.3275 10.6522 14.7319 10.4079 14.2909 9.97168C13.8498 9.53547 13.5989 8.94267 13.5928 8.32236C13.5907 8.00997 13.6505 7.70024 13.769 7.41117C13.8874 7.12209 14.0621 6.85943 14.2828 6.63837C14.4952 6.4213 14.7485 6.2486 15.0282 6.13031C15.3078 6.01203 15.6082 5.95054 15.9118 5.94937H15.9218C16.2328 5.9458 16.5413 6.00402 16.8296 6.12067C17.1178 6.23732 17.3801 6.41003 17.601 6.62885C17.822 6.84766 17.9973 7.10819 18.1167 7.3953C18.2362 7.68241 18.2974 7.9904 18.2968 8.30136C18.2986 8.60798 18.2393 8.91189 18.1223 9.19535C18.0054 9.4788 17.8332 9.73614 17.6158 9.95236C17.399 10.1734 17.1404 10.349 16.8551 10.4692C16.5698 10.5894 16.2634 10.6516 15.9538 10.6523L15.9478 10.6514ZM15.0928 8.31537C15.0991 8.53858 15.1919 8.7506 15.3516 8.90662C15.5114 9.06264 15.7255 9.15042 15.9488 9.15137C16.0607 9.15039 16.1713 9.12735 16.2742 9.08359C16.3772 9.03983 16.4705 8.97622 16.5488 8.89636C16.6263 8.81964 16.6879 8.72839 16.7301 8.62784C16.7724 8.52729 16.7943 8.41941 16.7948 8.31037C16.7961 8.19563 16.7742 8.08181 16.7304 7.97574C16.6867 7.86967 16.6219 7.77354 16.5402 7.69306C16.4584 7.61258 16.3612 7.54943 16.2544 7.50739C16.1477 7.46534 16.0335 7.44527 15.9188 7.44837C15.7053 7.46078 15.5028 7.54702 15.3458 7.69236C15.2643 7.77425 15.1999 7.87147 15.1561 7.9784C15.1123 8.08532 15.0902 8.19984 15.0908 8.31537H15.0928Z" fill="#000000" />
<path d="M10.8691 16.7041C10.7707 16.7043 10.6732 16.685 10.5823 16.6475C10.4913 16.6099 10.4087 16.5547 10.3391 16.4851L7.76312 13.9081C7.68943 13.8394 7.63033 13.7566 7.58933 13.6646C7.54834 13.5726 7.52631 13.4733 7.52453 13.3726C7.52275 13.2719 7.54127 13.1719 7.57899 13.0785C7.61671 12.9851 7.67286 12.9003 7.74407 12.829C7.81529 12.7578 7.90014 12.7017 7.99352 12.664C8.08691 12.6262 8.18694 12.6077 8.28764 12.6095C8.38834 12.6113 8.48766 12.6333 8.57966 12.6743C8.67166 12.7153 8.75445 12.7744 8.82311 12.8481L11.3991 15.4241C11.5044 15.5288 11.5761 15.6624 11.6053 15.8079C11.6344 15.9535 11.6197 16.1045 11.5629 16.2416C11.5061 16.3788 11.4098 16.496 11.2863 16.5783C11.1628 16.6607 11.0176 16.7044 10.8691 16.7041Z" fill="#000000" />
</svg>