<svg width="24px"  height="24px"  viewBox="0 0 25 24" fill="none" xmlns="http://www.w3.org/2000/svg">
<path d="M12.0946 22.9988C10.8393 22.9988 9.58465 22.9958 8.33065 22.9898C7.81836 22.9912 7.3109 22.8907 6.83779 22.6942C6.36469 22.4976 5.93536 22.209 5.57479 21.8451C5.21422 21.4812 4.92958 21.0492 4.73745 20.5743C4.54532 20.0994 4.44955 19.5911 4.45565 19.0788C4.45565 16.0788 4.45565 13.0758 4.45565 10.0698C4.44468 9.29562 4.59121 8.52725 4.88638 7.81144C5.18154 7.09562 5.61915 6.44729 6.17263 5.90583C9.10963 2.96183 9.78468 2.31481 9.97268 2.18381C10.7123 1.67186 11.6072 1.43363 12.5035 1.5101C13.3998 1.58657 14.2414 1.97296 14.8836 2.60282L15.3836 3.10282C16.6936 4.39082 18.1296 5.81281 18.6016 6.38181C19.4519 7.39143 19.913 8.67191 19.9016 9.99182C19.9096 12.6858 19.9096 15.3791 19.9016 18.0718V19.0818C19.9076 19.5941 19.8117 20.1024 19.6194 20.5773C19.4272 21.0521 19.1424 21.484 18.7818 21.8478C18.4211 22.2117 17.9917 22.5001 17.5186 22.6965C17.0454 22.8929 16.538 22.9933 16.0257 22.9918C14.715 22.9965 13.4046 22.9988 12.0946 22.9988ZM12.1616 2.99881C11.6885 2.99529 11.2258 3.13776 10.8366 3.4068C10.5546 3.6358 8.07767 6.11882 7.26467 6.93482C6.84151 7.33847 6.50663 7.82544 6.28115 8.36502C6.05568 8.90461 5.94452 9.48511 5.95467 10.0698C5.95467 13.0698 5.95467 16.0722 5.95467 19.0768C5.94671 19.3932 6.00266 19.7079 6.11916 20.0022C6.23567 20.2965 6.41033 20.5642 6.63271 20.7894C6.8551 21.0146 7.12064 21.1926 7.41342 21.3127C7.70619 21.4329 8.02017 21.4928 8.33663 21.4888C10.8953 21.5001 13.4557 21.5001 16.0177 21.4888C16.3341 21.4928 16.6481 21.4329 16.9409 21.3127C17.2337 21.1926 17.4992 21.0146 17.7216 20.7894C17.944 20.5642 18.1186 20.2965 18.2351 20.0022C18.3516 19.7079 18.4076 19.3932 18.3996 19.0768V18.0658C18.4036 15.3758 18.4036 12.6848 18.3996 9.9928C18.4095 9.02256 18.0727 8.0807 17.4497 7.33683C16.9867 6.77683 15.1946 5.01583 14.3336 4.16883L13.8227 3.66382C13.3774 3.23338 12.7809 2.99494 12.1616 2.99982V2.99881Z" fill="#000000" />
<path d="M12.1738 11.148C11.5428 11.1496 10.9369 10.9012 10.4888 10.457C10.2597 10.2316 10.0778 9.96271 9.95364 9.66621C9.82951 9.3697 9.76566 9.05146 9.76577 8.73002C9.76227 8.41842 9.82093 8.10924 9.93838 7.8206C10.0558 7.53195 10.2297 7.26965 10.4498 7.04902C10.6725 6.81943 10.9386 6.63642 11.2327 6.51066C11.5268 6.3849 11.843 6.31889 12.1628 6.31648C12.4827 6.31406 12.7998 6.37529 13.0958 6.49659C13.3918 6.61789 13.6606 6.79683 13.8867 7.02302C14.3372 7.47598 14.5906 8.08851 14.5917 8.7273C14.5928 9.3661 14.3416 9.97949 13.8928 10.434C13.6675 10.6605 13.3996 10.8402 13.1046 10.9627C12.8096 11.0853 12.4933 11.1483 12.1738 11.148ZM12.1838 7.81702C12.0584 7.81836 11.9345 7.84459 11.8193 7.8942C11.7041 7.94381 11.5999 8.01582 11.5128 8.10603C11.4326 8.18765 11.3695 8.28442 11.3271 8.39069C11.2846 8.49697 11.2638 8.61061 11.2658 8.72501C11.2657 8.84881 11.2901 8.9714 11.3377 9.0857C11.3852 9.20001 11.4549 9.30379 11.5428 9.39103C11.7167 9.55647 11.9483 9.64746 12.1883 9.64466C12.4283 9.64186 12.6578 9.54547 12.8278 9.37601C12.9127 9.29061 12.9796 9.18914 13.0248 9.07752C13.07 8.96591 13.0924 8.84641 13.0908 8.72602C13.092 8.60819 13.0696 8.49132 13.0249 8.38227C12.9803 8.27322 12.9142 8.17418 12.8308 8.09101C12.7458 8.00448 12.6446 7.93572 12.5328 7.88868C12.421 7.84164 12.301 7.81728 12.1798 7.81702H12.1838Z" fill="#000000" />
</svg>