<svg width="24px"  height="24px"  viewBox="0 0 25 24" fill="none" xmlns="http://www.w3.org/2000/svg">
<path d="M10.3639 21.5002C9.92512 21.4991 9.49083 21.4115 9.08589 21.2425C8.68095 21.0735 8.3133 20.8264 8.00391 20.5152C6.49191 19.0179 4.9859 17.5129 3.4859 16.0002C3.17289 15.6883 2.92491 15.3175 2.75635 14.909C2.58779 14.5006 2.50199 14.0627 2.50394 13.6208C2.50589 13.179 2.59556 12.7419 2.76773 12.335C2.9399 11.928 3.19114 11.5593 3.5069 11.2502C5.26823 9.48556 7.03123 7.72221 8.7959 5.96021C9.25543 5.48752 9.80634 5.11326 10.4151 4.86021C11.0238 4.60715 11.6777 4.48059 12.3369 4.48823H12.5889C15.9009 4.47423 16.5779 4.50023 16.7769 4.53623C17.5404 4.67541 18.2315 5.07619 18.7315 5.66966C19.2316 6.26313 19.5093 7.01221 19.5169 7.78822V8.39323C19.5299 9.91323 19.5379 11.5862 19.4819 12.2002C19.3822 13.3214 18.8857 14.3703 18.0819 15.1582C16.5419 16.7075 14.9976 18.2529 13.4489 19.7942L12.7489 20.4942C12.437 20.8104 12.0658 21.062 11.6566 21.2347C11.2473 21.4073 10.8081 21.4975 10.3639 21.5002ZM13.4819 5.98722H12.3379C11.8753 5.97964 11.4162 6.06755 10.9891 6.24546C10.562 6.42337 10.1763 6.68746 9.8559 7.02122C8.0919 8.78189 6.32958 10.5442 4.56891 12.3082C4.39072 12.4778 4.24855 12.6815 4.15088 12.9073C4.05321 13.133 4.00205 13.3761 4.00046 13.6221C3.99887 13.8681 4.04689 14.1118 4.14163 14.3388C4.23638 14.5658 4.37591 14.7714 4.5519 14.9432C6.04723 16.4532 7.54991 17.9552 9.05991 19.4492C9.23138 19.6256 9.43674 19.7655 9.66364 19.8606C9.89054 19.9557 10.1343 20.0039 10.3803 20.0024C10.6263 20.0009 10.8695 19.9497 11.0952 19.8519C11.3209 19.7541 11.5246 19.6117 11.6939 19.4332L12.3939 18.7332C13.9386 17.1926 15.4816 15.6489 17.0229 14.1022C17.5801 13.5607 17.9234 12.8364 17.9899 12.0622C18.0439 11.4732 18.0269 9.40223 18.0179 8.40623V7.79221C18.0095 7.36873 17.8559 6.96101 17.5828 6.63719C17.3098 6.31336 16.9339 6.09309 16.5179 6.01322C16.2959 5.99122 14.6699 5.98722 13.4819 5.98722Z" fill="#000000" />
<path d="M10.5419 16.4409C10.4434 16.4411 10.3458 16.4218 10.2548 16.384C10.1639 16.3462 10.0813 16.2908 10.0119 16.2209L7.7889 13.9979C7.65222 13.8565 7.57653 13.667 7.57815 13.4704C7.57977 13.2737 7.65855 13.0856 7.79754 12.9465C7.93653 12.8074 8.12461 12.7284 8.32125 12.7266C8.5179 12.7248 8.7074 12.8003 8.84892 12.9369L11.0719 15.1609C11.1767 15.2657 11.248 15.3993 11.2769 15.5447C11.3058 15.6901 11.2909 15.8408 11.2342 15.9778C11.1775 16.1147 11.0815 16.2318 10.9582 16.3142C10.835 16.3967 10.6902 16.4407 10.5419 16.4409Z" fill="#000000" />
<path d="M18.8497 10.0121C18.6651 10.012 18.4869 9.94379 18.3494 9.82053C18.2119 9.69727 18.1247 9.52761 18.1045 9.34406C18.0844 9.1605 18.1326 8.97594 18.24 8.82574C18.3474 8.67555 18.5065 8.57027 18.6867 8.53006C19.1201 8.43178 19.5174 8.21423 19.8337 7.90204C20.2613 7.46599 20.5002 6.8793 20.4989 6.26862C20.4976 5.65793 20.2561 5.07228 19.8267 4.63806C19.3853 4.2178 18.7992 3.9834 18.1897 3.9834C17.5803 3.9834 16.9941 4.2178 16.5527 4.63806C16.332 4.85727 16.1597 5.12024 16.0467 5.41006C15.875 5.8302 15.8314 6.29177 15.9214 6.73663C16.0115 7.1815 16.2311 7.58978 16.5527 7.91006C16.6264 7.97873 16.6855 8.0615 16.7265 8.1535C16.7675 8.2455 16.7895 8.34482 16.7913 8.44553C16.7931 8.54623 16.7746 8.64627 16.7368 8.73965C16.6991 8.83304 16.643 8.91789 16.5718 8.98911C16.5005 9.06032 16.4157 9.11645 16.3223 9.15417C16.2289 9.1919 16.1289 9.21043 16.0282 9.20865C15.9275 9.20687 15.8282 9.18482 15.7362 9.14383C15.6442 9.10284 15.5614 9.04375 15.4927 8.97006C14.9652 8.44363 14.6041 7.7737 14.4544 7.04364C14.3047 6.31358 14.373 5.55561 14.6507 4.86404C14.839 4.38324 15.1254 3.94695 15.4917 3.58304C16.2188 2.88792 17.1859 2.5 18.1917 2.5C19.1976 2.5 20.1647 2.88792 20.8917 3.58304C21.5998 4.30054 21.9967 5.26803 21.9967 6.27606C21.9967 7.28409 21.5998 8.25156 20.8917 8.96906C20.3743 9.4804 19.7241 9.83682 19.0147 9.99805C18.9604 10.0085 18.9051 10.0132 18.8497 10.0121Z" fill="#000000" />
</svg>