<svg width="24px"  height="24px"  viewBox="0 0 25 24" fill="none" xmlns="http://www.w3.org/2000/svg">
<path d="M13.0102 21.7378C12.5102 21.7358 12.0154 21.6351 11.5543 21.4416C11.0932 21.248 10.6749 20.9653 10.3232 20.6098L10.0142 20.3017C8.05421 18.3457 6.09624 16.3868 4.14024 14.4248C3.22969 13.5312 2.66828 12.3417 2.55724 11.0708C2.49024 10.3558 2.50122 8.39576 2.51622 6.61376L2.52123 5.96575C2.52995 5.09403 2.84212 4.2526 3.40404 3.58611C3.96596 2.91961 4.7425 2.46971 5.60021 2.31377C5.81521 2.27477 6.60026 2.24876 10.4003 2.26076H10.7192C11.4674 2.25207 12.2096 2.39573 12.9006 2.683C13.5915 2.97027 14.2167 3.39514 14.7382 3.93175C16.7829 5.97442 18.8259 8.01844 20.8672 10.0638C21.2224 10.4106 21.505 10.8246 21.6987 11.2816C21.8924 11.7386 21.9934 12.2296 21.9957 12.726C21.998 13.2224 21.9017 13.7143 21.7123 14.1732C21.5228 14.632 21.2441 15.0486 20.8923 15.3988C19.1543 17.1514 17.4089 18.8964 15.6562 20.6337C14.955 21.3372 14.0035 21.7342 13.0102 21.7378ZM9.49822 3.75975C8.11122 3.75975 6.11121 3.76476 5.83421 3.79476C5.32945 3.89652 4.87461 4.1676 4.54491 4.56313C4.21521 4.95866 4.03044 5.45491 4.02123 5.96975L4.01622 6.62676C4.00622 7.79676 3.98526 10.2318 4.05126 10.9328C4.12854 11.8571 4.53811 12.7222 5.20421 13.3678C7.15554 15.3311 9.11189 17.2884 11.0732 19.2398L11.3822 19.5477C11.5897 19.7657 11.8389 19.9396 12.115 20.059C12.3912 20.1784 12.6886 20.2409 12.9895 20.2428C13.2904 20.2447 13.5885 20.1859 13.8661 20.0699C14.1438 19.9539 14.3951 19.7831 14.6052 19.5678C16.3552 17.8344 18.0969 16.0931 19.8302 14.3438C20.0455 14.1338 20.2162 13.8826 20.3322 13.6052C20.4482 13.3277 20.507 13.0297 20.5051 12.729C20.5032 12.4283 20.4407 12.1311 20.3213 11.8551C20.2019 11.5791 20.0281 11.33 19.8102 11.1228C17.7702 9.07743 15.7276 7.03409 13.6822 4.99276C13.2998 4.59495 12.8395 4.28026 12.3301 4.06829C11.8206 3.85631 11.273 3.75162 10.7212 3.76076H9.49822V3.75975Z" fill="#000000" />
<path d="M8.55509 10.6494H8.54911C8.23967 10.6486 7.9335 10.5863 7.64835 10.4661C7.3632 10.3459 7.10476 10.1703 6.8881 9.94936C6.67046 9.73326 6.49805 9.47597 6.38095 9.1925C6.26386 8.90903 6.20442 8.60506 6.20609 8.29836C6.21058 7.66997 6.46446 7.06908 6.9119 6.62783C7.35934 6.18658 7.96368 5.94111 8.59208 5.94537C8.89555 5.94661 9.19577 6.00815 9.47525 6.12643C9.75474 6.24471 10.008 6.41737 10.2201 6.63436C10.4409 6.85542 10.6155 7.11811 10.734 7.40719C10.8524 7.69627 10.9123 8.00596 10.9101 8.31835C10.9046 8.93902 10.6539 9.53235 10.2127 9.96899C9.77161 10.4056 9.17577 10.6502 8.55509 10.6494ZM8.58213 7.44936C8.46739 7.44612 8.35314 7.46609 8.24631 7.50808C8.13949 7.55007 8.0423 7.61324 7.96048 7.69375C7.87867 7.77426 7.81395 7.87045 7.77024 7.97659C7.72653 8.08272 7.7047 8.19659 7.70609 8.31136C7.70655 8.42051 7.72864 8.52848 7.77103 8.62905C7.81342 8.72963 7.8753 8.82082 7.9531 8.89736C8.03131 8.97739 8.12459 9.04113 8.22757 9.08489C8.33056 9.12866 8.44118 9.1516 8.55307 9.15237C8.7761 9.15142 8.99007 9.06375 9.14963 8.90792C9.30919 8.75209 9.40189 8.54032 9.40812 8.31738C9.40882 8.2017 9.38663 8.087 9.34287 7.97991C9.29911 7.87283 9.23463 7.77544 9.15311 7.69335C9.0033 7.53979 8.7986 7.45204 8.58408 7.44936H8.58213Z" fill="#000000" />
<path d="M13.2996 17.4502C13.0583 17.4512 12.8191 17.4044 12.5959 17.3124C12.3728 17.2204 12.1701 17.085 11.9996 16.9141L10.1256 15.0412C9.95484 14.8705 9.81936 14.6678 9.72693 14.4448C9.6345 14.2217 9.58691 13.9826 9.58691 13.7411C9.58691 13.4997 9.6345 13.2606 9.72693 13.0376C9.81936 12.8145 9.95484 12.6118 10.1256 12.4411L12.7026 9.86614C12.8728 9.69468 13.0753 9.55882 13.2985 9.46645C13.5217 9.37408 13.7611 9.32706 14.0026 9.32814C14.2442 9.32747 14.4835 9.37478 14.7067 9.4673C14.9298 9.55983 15.1324 9.69573 15.3026 9.86714L17.1746 11.7381C17.5193 12.083 17.7129 12.5506 17.7129 13.0381C17.7129 13.5257 17.5193 13.9933 17.1746 14.3382L14.5986 16.9141C14.4282 17.0848 14.2256 17.22 14.0027 17.312C13.7797 17.404 13.5408 17.451 13.2996 17.4502ZM13.9996 10.8331C13.956 10.8335 13.9127 10.8425 13.8726 10.8597C13.8324 10.8768 13.7961 10.9018 13.7656 10.9332L11.1876 13.5091C11.1249 13.5723 11.0897 13.6576 11.0897 13.7466C11.0897 13.8356 11.1249 13.921 11.1876 13.9841L13.0606 15.8562C13.1232 15.9187 13.2081 15.9538 13.2966 15.9538C13.3851 15.9538 13.47 15.9187 13.5326 15.8562L16.1086 13.2791C16.1713 13.2162 16.2064 13.131 16.2064 13.0421C16.2064 12.9533 16.1713 12.8681 16.1086 12.8051L14.2366 10.9341C14.1751 10.8708 14.0909 10.8345 14.0026 10.8331H13.9996Z" fill="#000000" />
</svg>