<svg width="24px"  height="24px"  viewBox="0 0 25 24" fill="none" xmlns="http://www.w3.org/2000/svg">
<path d="M10.2901 19.0258C9.58341 19.0364 8.88195 18.9028 8.2286 18.6332C7.57524 18.3636 6.9837 17.9636 6.49012 17.4578L6.35412 17.3218C3.78512 14.7598 3.25412 14.2028 3.12912 14.0278C2.6591 13.3475 2.44056 12.5248 2.51099 11.7009C2.58143 10.8771 2.93645 10.1034 3.51512 9.51275L3.95311 9.06777C5.11711 7.88477 6.40212 6.58677 6.91712 6.15777C7.84074 5.38222 9.01112 4.96228 10.2171 4.97375C12.9451 4.96708 15.6728 4.96708 18.4001 4.97375C18.871 4.96845 19.3381 5.05678 19.7745 5.23358C20.211 5.41037 20.6079 5.67212 20.9423 6.00363C21.2767 6.33513 21.5418 6.72977 21.7224 7.16464C21.903 7.5995 21.9953 8.06591 21.9941 8.53677C22.0041 10.8448 22.0041 13.1534 21.9941 15.4628C21.9952 15.9335 21.9028 16.3998 21.7221 16.8346C21.5415 17.2693 21.2763 17.6639 20.9419 17.9953C20.6075 18.3267 20.2107 18.5883 19.7743 18.765C19.338 18.9418 18.8709 19.0301 18.4001 19.0248L10.2901 19.0258ZM4.58112 10.5708C4.25284 10.912 4.05151 11.3554 4.01074 11.8271C3.96997 12.2989 4.09224 12.7703 4.35712 13.1627C4.55712 13.4097 6.63312 15.4808 7.41512 16.2628L7.55112 16.3978C7.90588 16.7643 8.33235 17.0538 8.80394 17.2482C9.27553 17.4426 9.78212 17.5378 10.2921 17.5278H18.3991C18.674 17.5345 18.9474 17.4857 19.2029 17.3844C19.4585 17.2831 19.691 17.1313 19.8866 16.9381C20.0822 16.7448 20.2368 16.5141 20.3412 16.2598C20.4455 16.0054 20.4976 15.7327 20.4941 15.4578C20.5054 13.1544 20.5054 10.8504 20.4941 8.54577C20.4976 8.27048 20.4454 7.9973 20.3407 7.74267C20.236 7.48804 20.0809 7.25719 19.8848 7.06396C19.6887 6.87073 19.4556 6.71912 19.1994 6.61822C18.9432 6.51732 18.6693 6.46921 18.3941 6.47677C15.6668 6.47277 12.9415 6.47277 10.2181 6.47677C9.36143 6.46327 8.52893 6.76101 7.87512 7.31475C7.37512 7.73075 5.78512 9.34677 5.02112 10.1228L4.58112 10.5708Z" fill="#000000" />
</svg>