<svg width="24px"  height="24px"  viewBox="0 0 25 24" fill="none" xmlns="http://www.w3.org/2000/svg">
<path d="M14.2099 19.0258C14.9166 19.0364 15.618 18.9028 16.2714 18.6332C16.9248 18.3636 17.5163 17.9636 18.0099 17.4578L18.1459 17.3218C20.7149 14.7598 21.2459 14.2028 21.3709 14.0278C21.8409 13.3475 22.0594 12.5248 21.989 11.7009C21.9186 10.8771 21.5636 10.1034 20.9849 9.51275L20.5469 9.06777C19.3829 7.88477 18.0979 6.58677 17.5829 6.15777C16.6593 5.38222 15.4889 4.96228 14.2829 4.97375C11.5549 4.96708 8.82721 4.96708 6.09988 4.97375C5.62905 4.96845 5.16186 5.05678 4.72545 5.23358C4.28904 5.41037 3.89211 5.67212 3.55772 6.00363C3.22333 6.33513 2.95815 6.72977 2.77758 7.16464C2.59702 7.5995 2.50466 8.06591 2.50589 8.53677C2.49589 10.8448 2.49589 13.1534 2.50589 15.4628C2.5048 15.9335 2.59725 16.3998 2.77787 16.8346C2.9585 17.2693 3.2237 17.6639 3.55808 17.9953C3.89245 18.3267 4.28934 18.5883 4.72568 18.765C5.16203 18.9418 5.62913 19.0301 6.09988 19.0248L14.2099 19.0258ZM19.9189 10.5708C20.2472 10.912 20.4485 11.3554 20.4893 11.8271C20.53 12.2989 20.4078 12.7703 20.1429 13.1627C19.9429 13.4097 17.8669 15.4808 17.0849 16.2628L16.9489 16.3978C16.5941 16.7643 16.1677 17.0538 15.6961 17.2482C15.2245 17.4426 14.7179 17.5378 14.2079 17.5278H6.10088C5.82603 17.5345 5.55265 17.4857 5.29707 17.3844C5.04149 17.2831 4.80896 17.1313 4.61339 16.9381C4.41782 16.7448 4.26323 16.5141 4.15885 16.2598C4.05447 16.0054 4.00244 15.7327 4.00589 15.4578C3.99455 13.1544 3.99455 10.8504 4.00589 8.54577C4.00241 8.27048 4.05459 7.9973 4.15929 7.74267C4.26399 7.48804 4.41906 7.25719 4.61518 7.06396C4.81131 6.87073 5.04444 6.71912 5.3006 6.61822C5.55676 6.51732 5.83067 6.46921 6.10588 6.47677C8.83322 6.47277 11.5585 6.47277 14.2819 6.47677C15.1386 6.46327 15.9711 6.76101 16.6249 7.31475C17.1249 7.73075 18.7149 9.34677 19.4789 10.1228L19.9189 10.5708Z" fill="#000000" />
</svg>