<svg width="24px"  height="24px"  viewBox="0 0 25 24" fill="none" xmlns="http://www.w3.org/2000/svg">
<path fill-rule="evenodd" clip-rule="evenodd" d="M2.5 8.42188C2.5 5.79853 4.62665 3.67188 7.25 3.67188H17.25C19.8734 3.67188 22 5.79852 22 8.42188V15.582C22 18.2054 19.8734 20.332 17.25 20.332H7.25C4.62665 20.332 2.5 18.2054 2.5 15.582V8.42188ZM7.25 5.17188C5.45508 5.17188 4 6.62695 4 8.42188V15.582C4 17.3769 5.45507 18.832 7.25 18.832H17.25C19.0449 18.832 20.5 17.3769 20.5 15.582V8.42188C20.5 6.62695 19.0449 5.17188 17.25 5.17188H7.25Z" fill="#000000" />
<path fill-rule="evenodd" clip-rule="evenodd" d="M9.53418 9.70312C9.53418 9.28891 9.86997 8.95312 10.2842 8.95312H12.4358C12.85 8.95312 13.1858 9.28891 13.1858 9.70312C13.1858 10.1173 12.85 10.4531 12.4358 10.4531H10.2842C9.86997 10.4531 9.53418 10.1173 9.53418 9.70312Z" fill="#000000" />
<path fill-rule="evenodd" clip-rule="evenodd" d="M6.56348 14.25C6.56348 13.8358 6.89926 13.5 7.31348 13.5H12.4361C12.8503 13.5 13.1861 13.8358 13.1861 14.25C13.1861 14.6642 12.8503 15 12.4361 15H7.31348C6.89926 15 6.56348 14.6642 6.56348 14.25Z" fill="#000000" />
<path fill-rule="evenodd" clip-rule="evenodd" d="M16.5518 9.32422C16.966 9.32422 17.3018 9.66001 17.3018 10.0742V13.9226C17.3018 14.3368 16.966 14.6726 16.5518 14.6726C16.1375 14.6726 15.8018 14.3368 15.8018 13.9226V10.0742C15.8018 9.66001 16.1375 9.32422 16.5518 9.32422Z" fill="#000000" />
<path fill-rule="evenodd" clip-rule="evenodd" d="M16.5518 3.95312C16.966 3.95312 17.3018 4.28891 17.3018 4.70312V7.30335C17.3018 7.71757 16.966 8.05336 16.5518 8.05336C16.1375 8.05336 15.8018 7.71757 15.8018 7.30335V4.70312C15.8018 4.28891 16.1375 3.95312 16.5518 3.95312Z" fill="#000000" />
<path fill-rule="evenodd" clip-rule="evenodd" d="M16.5518 15.9453C16.966 15.9453 17.3018 16.2811 17.3018 16.6953V19.2955C17.3018 19.7098 16.966 20.0455 16.5518 20.0455C16.1375 20.0455 15.8018 19.7098 15.8018 19.2955V16.6953C15.8018 16.2811 16.1375 15.9453 16.5518 15.9453Z" fill="#000000" />
</svg>