<svg width="24px"  height="24px"  viewBox="0 0 25 24" fill="none" xmlns="http://www.w3.org/2000/svg">
<path fill-rule="evenodd" clip-rule="evenodd" d="M6.24684 6.18359C6.18503 7.42428 5.22267 8.42784 4 8.55405V15.4485C5.22267 15.5747 6.18503 16.5783 6.24684 17.819H18.2532C18.315 16.5783 19.2773 15.5747 20.5 15.4485V8.55405C19.2773 8.42784 18.315 7.42428 18.2532 6.18359H6.24684ZM4.75 5.95182C4.75 5.2514 5.31781 4.68359 6.01823 4.68359H18.4818C19.1822 4.68359 19.75 5.2514 19.75 5.95182V6.05657C19.75 6.61486 20.2026 7.06744 20.7609 7.06744C21.4452 7.06744 22 7.62222 22 8.30657V15.696C22 16.3804 21.4452 16.9351 20.7609 16.9351C20.2026 16.9351 19.75 17.3877 19.75 17.946V18.0508C19.75 18.7512 19.1822 19.319 18.4818 19.319H6.01823C5.3178 19.319 4.75 18.7512 4.75 18.0508V17.946C4.75 17.3877 4.29742 16.9351 3.73913 16.9351C3.05478 16.9351 2.5 16.3804 2.5 15.696V8.30657C2.5 7.62222 3.05478 7.06744 3.73913 7.06744C4.29742 7.06744 4.75 6.61486 4.75 6.05657V5.95182Z" fill="#000000" />
<path fill-rule="evenodd" clip-rule="evenodd" d="M8.65039 10.1797C8.65039 9.76547 8.98618 9.42969 9.40039 9.42969H15.0993C15.5135 9.42969 15.8493 9.76547 15.8493 10.1797C15.8493 10.5939 15.5135 10.9297 15.0993 10.9297H9.40039C8.98618 10.9297 8.65039 10.5939 8.65039 10.1797Z" fill="#000000" />
<path fill-rule="evenodd" clip-rule="evenodd" d="M8.65039 13.8203C8.65039 13.4061 8.98618 13.0703 9.40039 13.0703H15.0993C15.5135 13.0703 15.8493 13.4061 15.8493 13.8203C15.8493 14.2345 15.5135 14.5703 15.0993 14.5703H9.40039C8.98618 14.5703 8.65039 14.2345 8.65039 13.8203Z" fill="#000000" />
</svg>