<svg width="24px"  height="24px"  viewBox="0 0 25 24" fill="none" xmlns="http://www.w3.org/2000/svg">
<path d="M10.9218 21.758C10.327 21.7576 9.74202 21.6062 9.22176 21.318C8.67095 20.958 8.1717 20.5247 7.73775 20.03C7.61072 19.9114 7.49427 19.7819 7.38976 19.643C7.29273 19.5199 7.22273 19.3777 7.1843 19.2258C7.14588 19.0738 7.1399 18.9154 7.16676 18.761C7.21544 18.483 7.28667 18.2094 7.37975 17.943C7.42273 17.7979 7.42688 17.644 7.39178 17.4968C7.35669 17.3496 7.28358 17.2141 7.17976 17.104C7.06712 16.9859 6.92379 16.9016 6.76588 16.8604C6.60796 16.8193 6.4417 16.8229 6.28575 16.871L6.16975 16.907C5.95491 16.9857 5.73332 17.0446 5.50775 17.083C5.35062 17.1109 5.18938 17.1057 5.03439 17.0676C4.8794 17.0296 4.73409 16.9595 4.60776 16.862C4.47866 16.7668 4.3588 16.6596 4.24976 16.542C3.74429 16.101 3.30152 15.593 2.93375 15.032C2.6448 14.512 2.49316 13.9269 2.49316 13.332C2.49316 12.7371 2.6448 12.152 2.93375 11.632C3.29568 11.0743 3.73319 10.5695 4.23376 10.132L10.3848 3.98001C10.8221 3.47925 11.3269 3.04171 11.8848 2.67999C12.4035 2.39283 12.9868 2.24219 13.5798 2.24219C14.1727 2.24219 14.756 2.39283 15.2748 2.67999C15.8288 3.04005 16.3305 3.47484 16.7658 3.97202C16.8955 4.08939 17.0124 4.2201 17.1148 4.362C17.2124 4.48823 17.2822 4.63364 17.3198 4.78873C17.3574 4.94381 17.3618 5.10508 17.3328 5.26199C17.2868 5.50954 17.2198 5.75277 17.1328 5.98901C17.075 6.14613 17.0631 6.31645 17.0985 6.48007C17.1339 6.64369 17.2152 6.79384 17.3328 6.91299C17.4451 7.02692 17.5868 7.10751 17.7421 7.14581C17.8974 7.18412 18.0603 7.17865 18.2128 7.13C18.4665 7.03664 18.7278 6.96536 18.9938 6.91699C19.1509 6.88851 19.3122 6.89347 19.4673 6.93155C19.6224 6.96963 19.7677 7.03998 19.8938 7.138C20.0236 7.23527 20.1447 7.34368 20.2558 7.46201C20.7606 7.90308 21.2024 8.4115 21.5688 8.97299C21.8561 9.49191 22.0068 10.0754 22.0068 10.6685C22.0068 11.2617 21.8561 11.8451 21.5688 12.364C21.2066 12.9216 20.7692 13.4263 20.2688 13.864L14.1138 20.02C13.6786 20.5167 13.178 20.9519 12.6258 21.314C12.1044 21.6036 11.5181 21.7563 10.9218 21.758ZM8.68076 18.848L8.76476 18.933C9.11967 19.333 9.51775 19.6925 9.95175 20.005C10.2495 20.171 10.5848 20.2582 10.9258 20.2582C11.2667 20.2582 11.602 20.171 11.8998 20.005C12.3199 19.7022 12.7056 19.3541 13.0498 18.967L19.2078 12.809C19.5981 12.4622 19.9483 12.0728 20.2518 11.648C20.4163 11.3503 20.5027 11.0157 20.5027 10.6755C20.5027 10.3353 20.4163 10.0007 20.2518 9.703C19.9472 9.27903 19.5964 8.8903 19.2058 8.54401L19.0978 8.43701C19.0078 8.46101 18.8878 8.49801 18.7248 8.54901C18.3035 8.69063 17.8513 8.7125 17.4183 8.61221C16.9854 8.51193 16.5888 8.29342 16.2728 7.98102C15.9662 7.67513 15.7496 7.29096 15.6464 6.87039C15.5433 6.44983 15.5576 6.00901 15.6878 5.59601C15.7518 5.38801 15.7958 5.25101 15.8218 5.16101L15.7408 5.078C15.385 4.67776 14.9863 4.31792 14.5518 4.005C14.2542 3.83933 13.9193 3.75238 13.5788 3.75238C13.2382 3.75238 12.9033 3.83933 12.6058 4.005C12.186 4.30535 11.8012 4.65184 11.4588 5.03799L5.29775 11.205C4.90747 11.5498 4.55666 11.9368 4.25175 12.359C4.08673 12.6573 4.00015 12.9926 4.00015 13.3335C4.00015 13.6744 4.08673 14.0097 4.25175 14.308C4.55611 14.7306 4.9066 15.118 5.29675 15.463L5.40475 15.57C5.48475 15.549 5.58975 15.516 5.72975 15.47L5.84276 15.436C6.2557 15.307 6.6961 15.2937 7.11607 15.3976C7.53604 15.5014 7.91951 15.7184 8.22475 16.025C8.51985 16.3281 8.72999 16.7036 8.83408 17.1136C8.93817 17.5236 8.93254 17.9538 8.81776 18.361C8.75176 18.589 8.70876 18.746 8.68076 18.848Z" fill="#000000" />
<path d="M11.3632 7.94912C11.1773 7.94752 10.9989 7.87612 10.8632 7.74911L10.8572 7.74312C10.7304 7.62493 10.6487 7.4662 10.6264 7.2943C10.604 7.1224 10.6422 6.94807 10.7346 6.80135C10.8269 6.65463 10.9675 6.54471 11.1322 6.4905C11.2968 6.43629 11.4752 6.44117 11.6367 6.50435C11.7981 6.56754 11.9324 6.68505 12.0165 6.83663C12.1007 6.98821 12.1293 7.16436 12.0975 7.33477C12.0657 7.50518 11.9754 7.65918 11.8423 7.77022C11.7092 7.88126 11.5415 7.94239 11.3682 7.94311L11.3632 7.94912Z" fill="#000000" />
<path d="M13.2619 9.84757C13.1596 9.84781 13.0583 9.82677 12.9644 9.7858C12.8706 9.74483 12.7863 9.68482 12.7169 9.60956L12.7099 9.60355C12.5943 9.47675 12.5258 9.31406 12.5159 9.14274C12.506 8.97142 12.5553 8.80189 12.6555 8.6626C12.7558 8.52332 12.9009 8.42276 13.0665 8.37775C13.2321 8.33274 13.4081 8.34603 13.5651 8.41541C13.722 8.48479 13.8503 8.60603 13.9285 8.75879C14.0067 8.91156 14.03 9.08658 13.9944 9.25446C13.9589 9.42235 13.8667 9.57289 13.7334 9.68088C13.6 9.78887 13.4335 9.84773 13.2619 9.84757Z" fill="#000000" />
<path d="M15.1581 11.746C14.9722 11.7444 14.7938 11.673 14.6581 11.546L14.6521 11.54C14.5253 11.4218 14.4437 11.2631 14.4213 11.0912C14.3989 10.9193 14.4372 10.7449 14.5295 10.5982C14.6218 10.4515 14.7624 10.3416 14.9271 10.2874C15.0917 10.2332 15.2701 10.2381 15.4316 10.3012C15.593 10.3644 15.7273 10.4819 15.8115 10.6335C15.8956 10.7851 15.9242 10.9612 15.8924 11.1317C15.8606 11.3021 15.7704 11.456 15.6372 11.5671C15.5041 11.6781 15.3364 11.7393 15.1631 11.74L15.1581 11.746Z" fill="#000000" />
<path d="M17.051 13.6444C16.9486 13.6448 16.8473 13.6238 16.7534 13.5829C16.6596 13.5419 16.5753 13.4818 16.506 13.4064L16.499 13.4004C16.3834 13.2736 16.3149 13.1109 16.305 12.9396C16.2951 12.7683 16.3444 12.5988 16.4446 12.4595C16.5448 12.3202 16.6899 12.2196 16.8555 12.1746C17.0211 12.1296 17.1972 12.1429 17.3541 12.2123C17.5111 12.2817 17.6394 12.4029 17.7176 12.5557C17.7958 12.7084 17.819 12.8835 17.7835 13.0513C17.748 13.2192 17.6558 13.3698 17.5224 13.4778C17.3891 13.5857 17.2226 13.6446 17.051 13.6444Z" fill="#000000" />
</svg>