<svg width="24px"  height="24px"  viewBox="0 0 25 24" fill="none" xmlns="http://www.w3.org/2000/svg">
<path fill-rule="evenodd" clip-rule="evenodd" d="M13.3936 9.6442C13.1921 9.54568 12.9564 9.54568 12.7549 9.6442C12.6743 9.68362 12.5734 9.77006 12.1206 10.2228C12.1206 10.2228 12.1207 10.2228 12.1206 10.2228L10.4709 11.8729C10.0182 12.3256 9.93167 12.4266 9.89225 12.5072C9.79373 12.7087 9.79373 12.9444 9.89225 13.1459C9.93167 13.2265 10.0181 13.3274 10.4709 13.7802C10.9237 14.233 11.0246 14.3194 11.1052 14.3588C11.3067 14.4573 11.5424 14.4573 11.7439 14.3588C11.8245 14.3194 11.9254 14.233 12.3781 13.7802C12.3781 13.7802 12.3781 13.7803 12.3781 13.7802L14.0278 12.1302C14.4806 11.6774 14.5671 11.5764 14.6065 11.4958C14.705 11.2943 14.705 11.0586 14.6065 10.8572C14.5671 10.7765 14.4806 10.6756 14.0279 10.2228C13.5751 9.77007 13.4742 9.68362 13.3936 9.6442ZM12.096 8.29668C12.7132 7.99486 13.4352 7.99486 14.0525 8.29668C14.3898 8.46163 14.6805 8.7531 15.0144 9.08789C15.0388 9.11243 15.0636 9.13721 15.0885 9.16218C15.1135 9.18716 15.1383 9.21186 15.1628 9.23634C15.4976 9.57022 15.7891 9.86089 15.954 10.1982C16.2558 10.8155 16.2558 11.5375 15.954 12.1547C15.7891 12.4921 15.4976 12.7827 15.1628 13.1166C15.1383 13.1411 15.1135 13.1658 15.0886 13.1907C15.0886 13.1907 15.0886 13.1907 15.0886 13.1907L13.4389 14.8408C13.4139 14.8658 13.3891 14.8906 13.3647 14.9151C13.0308 15.2499 12.7401 15.5414 12.4028 15.7064C11.7855 16.0082 11.0635 16.0082 10.4463 15.7064C10.1089 15.5414 9.81826 15.2499 9.48438 14.9151C9.45991 14.8906 9.4352 14.8658 9.41023 14.8408C9.38525 14.8159 9.36048 14.7912 9.33594 14.7667C9.00114 14.4328 8.70968 14.1421 8.54472 13.8048C8.2429 13.1876 8.2429 12.4656 8.54472 11.8483C8.70968 11.511 9.00114 11.2203 9.33594 10.8864C9.36046 10.862 9.38521 10.8373 9.41017 10.8123C9.41019 10.8123 9.41015 10.8123 9.41017 10.8123L11.0599 9.16224C11.0848 9.13727 11.1096 9.11243 11.1341 9.08789C11.468 8.7531 11.7586 8.46163 12.096 8.29668Z" fill="#000000" />
<path fill-rule="evenodd" clip-rule="evenodd" d="M7.35643 7.10634C7.64935 6.81348 8.12423 6.81352 8.41709 7.10643L11.2774 9.96724C11.5703 10.2602 11.5702 10.735 11.2773 11.0279C10.9844 11.3208 10.5095 11.3207 10.2167 11.0278L7.35634 8.167C7.06348 7.87409 7.06352 7.39921 7.35643 7.10634Z" fill="#000000" />
<path fill-rule="evenodd" clip-rule="evenodd" d="M13.1758 13.0282C13.4687 12.7354 13.9436 12.7354 14.2364 13.0283L17.0967 15.8891C17.3896 16.182 17.3896 16.6569 17.0967 16.9498C16.8037 17.2426 16.3289 17.2426 16.036 16.9497L13.1757 14.0889C12.8828 13.796 12.8829 13.3211 13.1758 13.0282Z" fill="#000000" />
<path d="M10.9167 21.752C10.3219 21.7515 9.73699 21.6001 9.21667 21.312C8.66851 20.954 8.17163 20.523 7.73969 20.031C7.61351 19.9133 7.49717 19.7856 7.39172 19.649C7.29247 19.5235 7.22065 19.3785 7.18103 19.2234C7.14141 19.0684 7.13482 18.9067 7.16168 18.749C7.20977 18.4712 7.28103 18.1979 7.37469 17.932C7.41757 17.7869 7.42169 17.633 7.3866 17.4858C7.35151 17.3386 7.27842 17.2032 7.17468 17.093C7.06154 16.9757 6.91821 16.8919 6.76044 16.851C6.60267 16.81 6.43662 16.8135 6.2807 16.861L6.16272 16.898C5.94792 16.9766 5.72632 17.0352 5.50073 17.073C5.34454 17.1003 5.18432 17.0948 5.0304 17.0567C4.87647 17.0187 4.73217 16.9489 4.60669 16.852C4.48397 16.7624 4.36954 16.662 4.26471 16.552C3.75417 16.1061 3.30643 15.5932 2.93372 15.027C2.6454 14.5068 2.49414 13.9218 2.49414 13.327C2.49414 12.7322 2.6454 12.1472 2.93372 11.627C3.29426 11.0742 3.72898 10.5735 4.22571 10.139L10.3837 3.97998C10.8215 3.47966 11.3263 3.04221 11.8837 2.67999C12.4025 2.39283 12.9857 2.24219 13.5787 2.24219C14.1716 2.24219 14.7549 2.39283 15.2737 2.67999C15.8277 3.04005 16.3295 3.47481 16.7647 3.97198C16.8912 4.09049 17.0073 4.21965 17.1117 4.358C17.209 4.48441 17.2789 4.62977 17.3168 4.78476C17.3547 4.93975 17.3598 5.10093 17.3317 5.258C17.2867 5.49819 17.2222 5.73431 17.1387 5.96399C17.0771 6.12338 17.0623 6.29711 17.0964 6.4646C17.1304 6.63208 17.2117 6.78631 17.3307 6.909C17.443 7.02292 17.5847 7.10351 17.7401 7.14182C17.8954 7.18012 18.0583 7.17465 18.2107 7.12601C18.4647 7.03237 18.7263 6.96109 18.9927 6.91299C19.1498 6.88341 19.3114 6.88781 19.4667 6.92593C19.6219 6.96406 19.7672 7.03502 19.8927 7.134C20.0229 7.23162 20.1443 7.34034 20.2557 7.45898C20.7602 7.89979 21.2016 8.4079 21.5677 8.96899C21.855 9.48791 22.0058 10.0713 22.0058 10.6645C22.0058 11.2576 21.855 11.8411 21.5677 12.36C21.205 12.9171 20.7676 13.4218 20.2677 13.86L14.1117 20.016C13.6762 20.512 13.1757 20.9469 12.6237 21.309C12.1015 21.5991 11.5141 21.7515 10.9167 21.752ZM8.67572 18.842C8.70472 18.873 8.7377 18.905 8.7757 18.942C9.12653 19.3358 9.51919 19.6902 9.94672 19.999C10.2449 20.1638 10.58 20.2502 10.9207 20.2502C11.2614 20.2502 11.5965 20.1638 11.8947 19.999C12.3115 19.6979 12.6943 19.3526 13.0367 18.969L19.2037 12.802C19.5938 12.4548 19.9446 12.0658 20.2497 11.642C20.4143 11.3443 20.5006 11.0097 20.5006 10.6695C20.5006 10.3293 20.4143 9.9947 20.2497 9.69699C19.9466 9.27547 19.5979 8.8888 19.2097 8.54401L19.0957 8.431C19.0097 8.454 18.8957 8.48899 18.7417 8.53699C18.3183 8.6819 17.863 8.70619 17.4266 8.60712C16.9902 8.50804 16.59 8.28951 16.2707 7.97598C15.9645 7.67008 15.7482 7.28605 15.6452 6.86569C15.5422 6.44533 15.5566 6.00475 15.6867 5.59198C15.7517 5.38098 15.7947 5.24501 15.8207 5.15601C15.7977 5.13201 15.7717 5.10498 15.7397 5.07498C15.383 4.67332 14.9829 4.31246 14.5467 3.99899C14.2489 3.83423 13.9141 3.7478 13.5737 3.7478C13.2334 3.7478 12.8985 3.83423 12.6007 3.99899C12.1792 4.30164 11.7924 4.65011 11.4477 5.03799L5.29071 11.195C4.90146 11.5417 4.55136 11.93 4.2467 12.353C4.08167 12.6513 3.99512 12.9866 3.99512 13.3275C3.99512 13.6684 4.08167 14.0037 4.2467 14.302C4.55188 14.7246 4.90268 15.1122 5.29272 15.458L5.39972 15.564C5.47972 15.543 5.58372 15.511 5.72272 15.464L5.83868 15.429C6.25145 15.2998 6.69177 15.2863 7.11163 15.3902C7.5315 15.4941 7.91482 15.7112 8.21973 16.018C8.51508 16.321 8.72536 16.6964 8.82947 17.1065C8.93357 17.5166 8.92778 17.9469 8.81268 18.354C8.74668 18.584 8.70272 18.74 8.67572 18.842Z" fill="#000000" />
</svg>