<svg width="24px"  height="24px"  viewBox="0 0 25 24" fill="none" xmlns="http://www.w3.org/2000/svg">
<path d="M12.2232 20.0425H7.65424C6.89434 20.093 6.13111 20.0405 5.38526 19.8865C4.73716 19.7008 4.14696 19.3532 3.67024 18.8765C3.19352 18.3998 2.84595 17.8096 2.66026 17.1615C2.5053 16.4155 2.45247 15.6518 2.50324 14.8915C2.49654 14.7034 2.50558 14.5151 2.53025 14.3285C2.54788 14.1594 2.60164 13.9961 2.68791 13.8496C2.77417 13.7031 2.89093 13.5769 3.03025 13.4795C3.28985 13.2977 3.56374 13.1371 3.84925 12.9995C4.02547 12.9053 4.17435 12.7671 4.28141 12.5984C4.38847 12.4296 4.45006 12.2361 4.46024 12.0365V11.9945C4.46219 11.7842 4.40574 11.5775 4.29716 11.3974C4.18858 11.2174 4.03213 11.0709 3.84525 10.9745C3.56629 10.8463 3.29865 10.6948 3.04524 10.5215C2.90366 10.4238 2.7846 10.2969 2.69596 10.1495C2.60732 10.002 2.55117 9.83738 2.53126 9.6665C2.50716 9.48958 2.49778 9.31097 2.50324 9.1325C2.45062 8.36235 2.50277 7.58862 2.65824 6.8325C2.8437 6.18449 3.19093 5.5943 3.66728 5.11743C4.14362 4.64055 4.73346 4.29267 5.38126 4.1065C6.12887 3.95055 6.89427 3.89739 7.65626 3.9485H12.2182C12.367 3.94858 12.5123 3.99282 12.6359 4.0756C12.7594 4.15839 12.8556 4.27599 12.9122 4.41351L13.6622 6.2375C13.7363 6.42028 13.7363 6.62472 13.6622 6.80751L13.0292 8.3475L13.6622 9.8865C13.7363 10.0693 13.7363 10.2737 13.6622 10.4565L13.0342 11.9945L13.6672 13.5335C13.7413 13.7163 13.7413 13.9207 13.6672 14.1035L13.0342 15.6425L13.6672 17.1825C13.7413 17.3653 13.7413 17.5697 13.6672 17.7525L12.9172 19.5765C12.8608 19.7142 12.7647 19.832 12.6411 19.915C12.5175 19.998 12.3721 20.0423 12.2232 20.0425ZM4.01026 14.6265C4.00326 14.7075 4.00425 14.7845 4.00425 14.8915C3.96584 15.511 3.99941 16.1328 4.10426 16.7445C4.22006 17.1488 4.43685 17.5171 4.73426 17.8145C5.03167 18.1119 5.39989 18.3287 5.80424 18.4445C6.41604 18.5486 7.03781 18.5822 7.65727 18.5445H11.7222L12.1643 17.4705L11.5313 15.9305C11.4562 15.7479 11.4562 15.5431 11.5313 15.3605L12.1643 13.8215L11.5313 12.2825C11.4562 12.0999 11.4562 11.8951 11.5313 11.7125L12.1643 10.1725L11.5313 8.63351C11.4562 8.45091 11.4562 8.2461 11.5313 8.0635L12.1643 6.52351L11.7222 5.4495H7.66325C7.04213 5.4104 6.41857 5.44395 5.80525 5.54949C5.40103 5.66555 5.03295 5.88246 4.73557 6.17984C4.4382 6.47721 4.22132 6.84529 4.10526 7.24951C4.0017 7.86272 3.96814 8.48571 4.00526 9.1065C4.00526 9.2265 4.00526 9.3065 4.00526 9.3565C4.12126 9.4285 4.28925 9.51651 4.54325 9.65051C4.97159 9.87409 5.33043 10.2108 5.58079 10.6241C5.83114 11.0373 5.96345 11.5113 5.96327 11.9945C5.96327 12.0035 5.96327 12.0695 5.96327 12.0785C5.94641 12.5371 5.81095 12.9835 5.57014 13.3742C5.32933 13.7648 4.99138 14.0864 4.58924 14.3075C4.29424 14.4675 4.10926 14.5675 4.01026 14.6265Z" fill="#000000" />
<path d="M15.3231 20.0471C15.2 20.0469 15.0789 20.0165 14.9703 19.9584C14.8618 19.9004 14.7691 19.8166 14.7006 19.7144C14.632 19.6121 14.5897 19.4946 14.5772 19.3722C14.5647 19.2497 14.5826 19.1261 14.6291 19.0121L15.2611 17.4741L14.6281 15.9331C14.5526 15.7506 14.5526 15.5456 14.6281 15.3631L15.2601 13.8241L14.6271 12.2851C14.5521 12.1025 14.5521 11.8977 14.6271 11.7151L15.2591 10.1751L14.6261 8.63713C14.5506 8.45428 14.5506 8.24897 14.6261 8.06613L15.2581 6.52612L14.6251 4.98713C14.5786 4.87318 14.5607 4.74954 14.5732 4.62709C14.5857 4.50463 14.628 4.38711 14.6966 4.28488C14.7651 4.18264 14.8578 4.09882 14.9663 4.0408C15.0749 3.98277 15.196 3.95233 15.3191 3.95213C16.588 3.8947 17.8594 3.94755 19.1191 4.11012C19.7668 4.29585 20.3566 4.64334 20.833 5.11988C21.3093 5.59643 21.6566 6.18636 21.8421 6.83413C21.9975 7.58182 22.0499 8.34723 21.9981 9.10913C21.9931 10.3301 21.9981 11.5361 21.9981 12.7411V14.8971C22.0486 15.6567 21.9961 16.4196 21.8421 17.1651C21.6562 17.8134 21.3085 18.4037 20.8316 18.8806C20.3547 19.3575 19.7644 19.7052 19.1161 19.8911C17.8585 20.0514 16.5896 20.1036 15.3231 20.0471ZM16.1321 15.6471L16.7651 17.1881C16.8401 17.3707 16.8401 17.5755 16.7651 17.7581L16.4421 18.5431C17.1987 18.5551 17.9555 18.5217 18.7081 18.4431C19.1125 18.3273 19.4807 18.1105 19.7781 17.8131C20.0755 17.5157 20.2923 17.1475 20.4081 16.7431C20.5122 16.1317 20.5458 15.5103 20.5081 14.8911V12.7381C20.5081 11.5301 20.5021 10.3211 20.5081 9.09913C20.5458 8.47901 20.5122 7.8566 20.4081 7.24412C20.2921 6.83986 20.0753 6.47174 19.7779 6.17436C19.4805 5.87697 19.1124 5.66009 18.7081 5.54412C17.9548 5.46566 17.1974 5.43228 16.4401 5.44413L16.7631 6.22912C16.8381 6.41172 16.8381 6.61653 16.7631 6.79913L16.1311 8.33912L16.7641 9.87713C16.8391 10.0597 16.8391 10.2645 16.7641 10.4471L16.1321 11.9871L16.7651 13.5271C16.8391 13.7099 16.8391 13.9143 16.7651 14.0971L16.1321 15.6471Z" fill="#000000" />
</svg>