<svg width="24px"  height="24px"  viewBox="0 0 25 24" fill="none" xmlns="http://www.w3.org/2000/svg">
<path d="M17.227 20.0339C17.058 20.0339 16.9729 20.0339 16.9399 20.0339C16.6762 20.0439 16.4156 19.9734 16.1928 19.8318C15.9701 19.6901 15.7957 19.484 15.693 19.2409C15.681 19.2189 15.593 19.0479 15.437 18.7059C15.3426 18.507 15.1955 18.3379 15.0115 18.2171C14.8276 18.0963 14.6139 18.0284 14.394 18.0209C14.1667 18.0147 13.9424 18.0728 13.7467 18.1885C13.551 18.3042 13.392 18.4728 13.288 18.6748C12.92 19.3808 12.768 19.6748 12.469 19.8548C12.1351 20.0183 11.7611 20.0819 11.392 20.0379H10.452C6.85197 20.0379 5.05194 20.0378 3.77594 18.7638C2.49994 17.4898 2.50195 15.6848 2.50195 12.0878V11.9089C2.50195 8.30886 2.50196 6.50886 3.77496 5.23186C5.04796 3.95486 6.85597 3.95884 10.452 3.95884H11.392C11.7617 3.91492 12.1363 3.97846 12.4709 4.14186C12.7709 4.32286 12.9209 4.61685 13.2899 5.32585C13.3892 5.52327 13.5418 5.68896 13.7303 5.80418C13.9189 5.91941 14.136 5.97958 14.357 5.97786C14.5897 5.97849 14.8176 5.91143 15.0129 5.78483C15.2082 5.65824 15.3625 5.47756 15.4569 5.26484C15.5989 4.95384 15.6719 4.79886 15.6859 4.77086C15.7902 4.5256 15.9659 4.31739 16.19 4.17329C16.4142 4.02919 16.6766 3.95585 16.943 3.96284C16.974 3.96284 17.0559 3.96284 17.2209 3.96284C17.6549 3.96284 17.8709 3.96285 18.0529 3.98085C19.0622 4.0757 20.0066 4.51995 20.7232 5.23692C21.4398 5.95389 21.8836 6.89856 21.978 7.90785C21.996 8.08785 21.998 8.30785 21.998 8.73985V15.2659C21.998 15.6959 21.9979 15.9119 21.9799 16.0939C21.8857 17.1042 21.4413 18.0498 20.7237 18.7673C20.0061 19.4847 19.0603 19.9288 18.05 20.0228C17.874 20.0318 17.659 20.0339 17.227 20.0339ZM10.452 5.45686C7.26897 5.45686 5.67097 5.45685 4.83597 6.29085C4.00097 7.12485 4.00195 8.72484 4.00195 11.9068V12.0859C4.00195 15.2679 4.00197 16.8658 4.83597 17.7008C5.66997 18.5358 7.26897 18.5358 10.452 18.5358H11.659C11.736 18.4008 11.848 18.1869 11.959 17.9769C12.1866 17.5369 12.531 17.1681 12.9543 16.9107C13.3776 16.6534 13.8636 16.5175 14.3589 16.5178C14.8686 16.5215 15.3671 16.6684 15.7974 16.9415C16.2277 17.2147 16.5727 17.6032 16.7929 18.0628C16.9199 18.3348 16.993 18.4809 17.011 18.5219L17.017 18.5329H17.0429H17.226C17.584 18.5329 17.7619 18.5328 17.9139 18.5198C18.5758 18.4584 19.1954 18.1676 19.6656 17.6978C20.1357 17.228 20.427 16.6086 20.489 15.9469C20.503 15.7979 20.5009 15.6168 20.5009 15.2568V8.73085C20.5009 8.37085 20.5009 8.19185 20.4879 8.04085C20.4263 7.37934 20.1356 6.76014 19.666 6.29017C19.1964 5.82021 18.5774 5.52899 17.916 5.46684C17.764 5.45184 17.5829 5.45384 17.2239 5.45384H17.024L17.0099 5.47786L16.827 5.87785C16.6173 6.34052 16.2816 6.73485 15.8584 7.01576C15.4352 7.29667 14.9414 7.45285 14.4337 7.46641C13.9259 7.47997 13.4245 7.35038 12.9869 7.09245C12.5493 6.83453 12.193 6.45867 11.959 6.00786C11.851 5.79786 11.739 5.58286 11.659 5.44786H10.452V5.45686Z" fill="#000000" />
<path d="M8.6294 15.0557C8.02364 15.0557 7.43149 14.8761 6.9278 14.5395C6.42412 14.203 6.03152 13.7247 5.79966 13.1651C5.5678 12.6055 5.50708 11.9896 5.62519 11.3955C5.7433 10.8014 6.03493 10.2556 6.4632 9.82717C6.89147 9.39876 7.43713 9.10697 8.03123 8.98867C8.62532 8.87037 9.24117 8.93088 9.80088 9.16256C10.3606 9.39423 10.839 9.78667 11.1757 10.2902C11.5124 10.7938 11.6922 11.3859 11.6924 11.9917C11.6919 12.804 11.369 13.5829 10.7947 14.1573C10.2205 14.7318 9.44169 15.0549 8.6294 15.0557ZM8.6294 10.4297C8.32023 10.4297 8.01802 10.5214 7.76096 10.6932C7.50391 10.865 7.30355 11.1091 7.18528 11.3948C7.06701 11.6805 7.03611 11.9948 7.0965 12.298C7.15689 12.6012 7.30585 12.8797 7.52454 13.0983C7.74323 13.3168 8.02185 13.4656 8.32511 13.5258C8.62837 13.586 8.94266 13.5549 9.22825 13.4364C9.51383 13.318 9.75786 13.1175 9.92948 12.8603C10.1011 12.6031 10.1926 12.3009 10.1924 11.9917C10.1916 11.5775 10.0267 11.1805 9.73368 10.8877C9.4407 10.5949 9.0436 10.4302 8.6294 10.4297Z" fill="#000000" />
<path d="M14.4512 14.0763C14.2523 14.0763 14.0615 13.9973 13.9208 13.8566C13.7802 13.716 13.7012 13.5252 13.7012 13.3263V10.9453C13.7012 10.7464 13.7802 10.5556 13.9208 10.415C14.0615 10.2743 14.2523 10.1953 14.4512 10.1953C14.6501 10.1953 14.8408 10.2743 14.9815 10.415C15.1221 10.5556 15.2012 10.7464 15.2012 10.9453V13.3263C15.2012 13.5252 15.1221 13.716 14.9815 13.8566C14.8408 13.9973 14.6501 14.0763 14.4512 14.0763Z" fill="#000000" />
<path d="M14.4512 17.9991C14.2523 17.9991 14.0615 17.9201 13.9208 17.7794C13.7802 17.6388 13.7012 17.448 13.7012 17.2491V15.7031C13.7012 15.5042 13.7802 15.3134 13.9208 15.1728C14.0615 15.0321 14.2523 14.9531 14.4512 14.9531C14.6501 14.9531 14.8408 15.0321 14.9815 15.1728C15.1221 15.3134 15.2012 15.5042 15.2012 15.7031V17.2491C15.2012 17.448 15.1221 17.6388 14.9815 17.7794C14.8408 17.9201 14.6501 17.9991 14.4512 17.9991Z" fill="#000000" />
<path d="M14.4512 9.03537C14.2523 9.03537 14.0615 8.95636 13.9208 8.8157C13.7802 8.67505 13.7012 8.48428 13.7012 8.28537V6.73438C13.7012 6.53546 13.7802 6.34469 13.9208 6.20404C14.0615 6.06339 14.2523 5.98438 14.4512 5.98438C14.6501 5.98438 14.8408 6.06339 14.9815 6.20404C15.1221 6.34469 15.2012 6.53546 15.2012 6.73438V8.28537C15.2012 8.48428 15.1221 8.67505 14.9815 8.8157C14.8408 8.95636 14.6501 9.03537 14.4512 9.03537Z" fill="#000000" />
</svg>