<svg width="24px"  height="24px"  viewBox="0 0 25 24" fill="none" xmlns="http://www.w3.org/2000/svg">
<path d="M12.2151 20.0437H7.66111C6.89851 20.0945 6.13254 20.0417 5.38412 19.8867C4.73745 19.7005 4.14863 19.3532 3.67288 18.8773C3.19713 18.4014 2.85004 17.8124 2.66412 17.1657C2.50675 16.4172 2.45358 15.6507 2.50612 14.8877C2.49994 14.7009 2.50864 14.514 2.53212 14.3287C2.55227 14.1561 2.6091 13.9898 2.69879 13.8409C2.78847 13.6921 2.90894 13.5641 3.05212 13.4657C3.30458 13.2945 3.57044 13.144 3.84712 13.0157C4.03344 12.9184 4.18955 12.772 4.29849 12.5922C4.40743 12.4125 4.46502 12.2064 4.46502 11.9962C4.46502 11.786 4.40743 11.5798 4.29849 11.4001C4.18955 11.2204 4.03344 11.0739 3.84712 10.9767C3.56827 10.849 3.30066 10.6982 3.04712 10.5257C2.90516 10.4277 2.78572 10.3006 2.69674 10.1528C2.60777 10.005 2.5513 9.83998 2.53111 9.66868C2.50583 9.48181 2.49647 9.29312 2.50311 9.10467C2.45225 8.34173 2.50507 7.57541 2.66012 6.82667C2.84625 6.18025 3.19344 5.59168 3.66919 5.11611C4.14493 4.64054 4.73364 4.29356 5.38012 4.10767C6.12894 3.95063 6.89575 3.89714 7.65912 3.94867H12.2071C12.406 3.94867 12.5968 4.02769 12.7375 4.16834C12.8781 4.30899 12.9571 4.49976 12.9571 4.69867C12.9571 4.89759 12.8781 5.08836 12.7375 5.22901C12.5968 5.36966 12.406 5.44867 12.2071 5.44867H7.65912C7.037 5.40957 6.41246 5.44312 5.79812 5.54867C5.39382 5.66455 5.02564 5.88139 4.72824 6.17879C4.43084 6.47619 4.214 6.84437 4.09811 7.24868C3.99315 7.86275 3.9596 8.4869 3.99812 9.10868C3.99812 9.22368 3.99812 9.30868 3.99812 9.36068C4.10612 9.42768 4.26112 9.50768 4.49112 9.62768C4.92796 9.84551 5.29615 10.1798 5.55507 10.5936C5.81398 11.0074 5.95357 11.4847 5.95843 11.9728C5.96329 12.4609 5.83323 12.9409 5.58261 13.3598C5.33198 13.7787 4.97053 14.1202 4.53811 14.3467C4.27011 14.4877 4.09811 14.5777 4.00311 14.6317C3.99711 14.7077 3.99812 14.7847 3.99812 14.8917C3.95957 15.5131 3.99312 16.1369 4.09811 16.7507C4.21425 17.1549 4.43118 17.5229 4.72854 17.8202C5.0259 18.1176 5.39395 18.3345 5.79812 18.4507C6.4122 18.5556 7.03634 18.5891 7.65812 18.5507H12.2121C12.411 18.5507 12.6018 18.6297 12.7424 18.7703C12.8831 18.911 12.9621 19.1018 12.9621 19.3007C12.9621 19.4996 12.8831 19.6903 12.7424 19.831C12.6018 19.9717 12.411 20.0507 12.2121 20.0507L12.2151 20.0437Z" fill="#000000" />
<path d="M11.6087 11.3828H8.42773C8.22882 11.3828 8.03807 11.3038 7.89742 11.1631C7.75676 11.0225 7.67773 10.8317 7.67773 10.6328C7.67773 10.4339 7.75676 10.2431 7.89742 10.1025C8.03807 9.96184 8.22882 9.88281 8.42773 9.88281H11.6087C11.8076 9.88281 11.9984 9.96184 12.1391 10.1025C12.2797 10.2431 12.3587 10.4339 12.3587 10.6328C12.3587 10.8317 12.2797 11.0225 12.1391 11.1631C11.9984 11.3038 11.8076 11.3828 11.6087 11.3828Z" fill="#000000" />
<path d="M8.42687 8.65623H8.41687C8.2184 8.65491 8.02855 8.57496 7.8889 8.43391C7.74926 8.29287 7.67122 8.10223 7.67188 7.90375C7.67254 7.70527 7.75185 7.51514 7.89243 7.37503C8.03301 7.23492 8.2234 7.15625 8.42188 7.15625C8.62036 7.15625 8.81073 7.23492 8.95131 7.37503C9.09189 7.51514 9.1712 7.70527 9.17186 7.90375C9.17253 8.10223 9.0945 8.29287 8.95485 8.43391C8.81521 8.57496 8.62534 8.65491 8.42687 8.65623Z" fill="#000000" />
<path d="M11.6087 16.8359H8.42773C8.22882 16.8359 8.03807 16.7569 7.89742 16.6163C7.75676 16.4756 7.67773 16.2848 7.67773 16.0859C7.67773 15.887 7.75676 15.6963 7.89742 15.5556C8.03807 15.415 8.22882 15.3359 8.42773 15.3359H11.6087C11.8076 15.3359 11.9984 15.415 12.1391 15.5556C12.2797 15.6963 12.3587 15.887 12.3587 16.0859C12.3587 16.2848 12.2797 16.4756 12.1391 16.6163C11.9984 16.7569 11.8076 16.8359 11.6087 16.8359Z" fill="#000000" />
<path d="M11.6105 14.1094C11.4111 14.1094 11.2198 14.0305 11.0784 13.89C10.9369 13.7495 10.8568 13.5587 10.8555 13.3594C10.855 13.2612 10.8738 13.1638 10.911 13.0729C10.9482 12.982 11.003 12.8993 11.0722 12.8296C11.1414 12.76 11.2237 12.7046 11.3144 12.6668C11.405 12.629 11.5023 12.6095 11.6005 12.6094H11.6105C11.8094 12.6094 12.0002 12.6884 12.1408 12.829C12.2815 12.9697 12.3605 13.1605 12.3605 13.3594C12.3605 13.5583 12.2815 13.749 12.1408 13.8897C12.0002 14.0303 11.8094 14.1094 11.6105 14.1094Z" fill="#000000" />
<path d="M11.6098 8.65625H10.4668C10.2679 8.65625 10.0771 8.57722 9.93646 8.43657C9.79581 8.29592 9.7168 8.10516 9.7168 7.90625C9.7168 7.70734 9.79581 7.51657 9.93646 7.37592C10.0771 7.23526 10.2679 7.15625 10.4668 7.15625H11.6098C11.8087 7.15625 11.9995 7.23526 12.1401 7.37592C12.2808 7.51657 12.3598 7.70734 12.3598 7.90625C12.3598 8.10516 12.2808 8.29592 12.1401 8.43657C11.9995 8.57722 11.8087 8.65625 11.6098 8.65625Z" fill="#000000" />
<path d="M9.56198 14.1094H8.41797C8.21906 14.1094 8.0283 14.0303 7.88765 13.8897C7.747 13.749 7.66797 13.5583 7.66797 13.3594C7.66797 13.1605 7.747 12.9697 7.88765 12.829C8.0283 12.6884 8.21906 12.6094 8.41797 12.6094H9.56198C9.76089 12.6094 9.95165 12.6884 10.0923 12.829C10.233 12.9697 10.312 13.1605 10.312 13.3594C10.312 13.5583 10.233 13.749 10.0923 13.8897C9.95165 14.0303 9.76089 14.1094 9.56198 14.1094Z" fill="#000000" />
<path d="M15.3221 20.0471C15.199 20.0469 15.0779 20.0165 14.9693 19.9584C14.8608 19.9004 14.7682 19.8166 14.6996 19.7144C14.631 19.6121 14.5887 19.4946 14.5762 19.3722C14.5638 19.2497 14.5816 19.1261 14.6281 19.0121L15.2601 17.4741L14.6271 15.9331C14.5517 15.7506 14.5517 15.5456 14.6271 15.3631L15.2591 13.8241L14.6261 12.2851C14.5511 12.1025 14.5511 11.8977 14.6261 11.7151L15.2581 10.1751L14.6251 8.63713C14.5496 8.45428 14.5496 8.24897 14.6251 8.06613L15.2571 6.52612L14.6241 4.98713C14.5776 4.87318 14.5598 4.74954 14.5722 4.62709C14.5847 4.50463 14.6271 4.38711 14.6956 4.28488C14.7642 4.18264 14.8568 4.09882 14.9653 4.0408C15.0739 3.98277 15.195 3.95233 15.3181 3.95213C16.587 3.8947 17.8584 3.94755 19.1181 4.11012C19.7658 4.29585 20.3556 4.64334 20.832 5.11988C21.3084 5.59643 21.6556 6.18636 21.8411 6.83413C21.9965 7.58182 22.049 8.34723 21.9971 9.10913C21.9921 10.3301 21.9971 11.5361 21.9971 12.7411V14.8971C22.0476 15.6567 21.9951 16.4196 21.8411 17.1651C21.6552 17.8134 21.3075 18.4037 20.8306 18.8806C20.3537 19.3575 19.7634 19.7052 19.1151 19.8911C17.8576 20.0514 16.5886 20.1036 15.3221 20.0471ZM16.1311 15.6471L16.7641 17.1881C16.8391 17.3707 16.8391 17.5755 16.7641 17.7581L16.4411 18.5431C17.1978 18.5551 17.9545 18.5217 18.7071 18.4431C19.1115 18.3273 19.4797 18.1105 19.7771 17.8131C20.0745 17.5157 20.2913 17.1475 20.4071 16.7431C20.5113 16.1317 20.5448 15.5103 20.5071 14.8911V12.7381C20.5071 11.5301 20.5011 10.3211 20.5071 9.09913C20.5448 8.47901 20.5113 7.8566 20.4071 7.24412C20.2912 6.83986 20.0743 6.47174 19.7769 6.17436C19.4795 5.87697 19.1114 5.66009 18.7071 5.54412C17.9538 5.46566 17.1964 5.43227 16.4391 5.44413L16.7621 6.22912C16.8371 6.41172 16.8371 6.61653 16.7621 6.79913L16.1301 8.33912L16.7631 9.87713C16.8381 10.0597 16.8381 10.2645 16.7631 10.4471L16.1311 11.9871L16.7641 13.5271C16.8382 13.7099 16.8382 13.9143 16.7641 14.0971L16.1311 15.6471Z" fill="#000000" />
</svg>