<svg width="24px"  height="24px"  viewBox="0 0 25 24" fill="none" xmlns="http://www.w3.org/2000/svg">
<path d="M17.4859 8.55369C17.3401 8.55351 17.1974 8.51099 17.0753 8.43128C16.9532 8.35157 16.8568 8.23811 16.7979 8.10468C16.6577 7.78092 16.589 7.43072 16.5964 7.07798C16.6038 6.72524 16.6872 6.37826 16.8409 6.06068C16.9409 5.84568 17.0149 5.69969 17.0569 5.60569C17.0279 5.56069 16.9929 5.5147 16.9479 5.4557C16.6434 4.99177 16.2878 4.56342 15.8879 4.17869C15.5965 3.95798 15.2539 3.81471 14.8921 3.76224C14.5303 3.70978 14.1611 3.74987 13.8189 3.8787C13.328 4.13184 12.8671 4.43943 12.4449 4.79569L7.70492 8.3307C7.62613 8.38979 7.53648 8.43278 7.44107 8.45722C7.34566 8.48167 7.24633 8.48708 7.14883 8.47315C7.05133 8.45922 6.95752 8.42623 6.87277 8.37604C6.78802 8.32586 6.71403 8.25946 6.65494 8.18067C6.59584 8.10188 6.55279 8.01223 6.52835 7.91682C6.50391 7.82141 6.49849 7.72211 6.51242 7.62461C6.52635 7.52711 6.55935 7.43333 6.60953 7.34858C6.65971 7.26383 6.72611 7.18978 6.8049 7.13068L11.5389 3.59968C12.069 3.14825 12.6577 2.77051 13.2889 2.47669C13.8678 2.25875 14.4925 2.19121 15.1046 2.2804C15.7168 2.3696 16.2963 2.61259 16.7889 2.98667C17.3088 3.4434 17.7628 3.9701 18.1379 4.55167C18.251 4.69043 18.3513 4.83902 18.4379 4.99567C18.5199 5.13911 18.5705 5.29828 18.5866 5.46271C18.6026 5.62715 18.5836 5.79311 18.5309 5.94968C18.4401 6.21394 18.3274 6.47015 18.1939 6.71567C18.1334 6.83869 18.1002 6.97334 18.0965 7.11039C18.0929 7.24744 18.1189 7.38364 18.1729 7.50968C18.2124 7.5999 18.2338 7.69703 18.2358 7.79551C18.2378 7.89399 18.2204 7.99188 18.1845 8.08363C18.1487 8.17537 18.0951 8.25916 18.0269 8.33021C17.9587 8.40125 17.8771 8.45816 17.7869 8.49769C17.6914 8.53645 17.589 8.55549 17.4859 8.55369Z" fill="#000000" />
<path d="M8.30965 19.3985C8.16117 19.3989 8.01592 19.3553 7.89217 19.2733C7.76842 19.1913 7.67172 19.0744 7.61427 18.9375C7.55682 18.8006 7.54114 18.6497 7.56929 18.504C7.59744 18.3582 7.66813 18.224 7.77242 18.1183C7.87671 18.0127 8.00995 17.9402 8.15535 17.9101C8.30075 17.88 8.45177 17.8937 8.58943 17.9493C8.72709 18.005 8.84524 18.1001 8.92891 18.2227C9.01258 18.3454 9.05807 18.4901 9.05965 18.6385V18.6485C9.05965 18.8474 8.98063 19.0382 8.83998 19.1789C8.69933 19.3195 8.50856 19.3985 8.30965 19.3985Z" fill="#000000" />
<path d="M8.30969 16.5763C8.16094 16.5769 8.0153 16.5334 7.89124 16.4513C7.76717 16.3692 7.6702 16.2523 7.61255 16.1151C7.5549 15.978 7.53917 15.8269 7.56732 15.6808C7.59547 15.5347 7.66626 15.4003 7.77075 15.2944C7.87524 15.1885 8.00874 15.116 8.15442 15.0859C8.3001 15.0558 8.45141 15.0695 8.5893 15.1254C8.72718 15.1812 8.84549 15.2766 8.9292 15.3996C9.01291 15.5226 9.05831 15.6676 9.05969 15.8163V15.8263C9.05969 16.0252 8.98068 16.216 8.84003 16.3566C8.69938 16.4973 8.50861 16.5763 8.30969 16.5763Z" fill="#000000" />
<path d="M8.30969 13.756C8.16094 13.7566 8.0153 13.7131 7.89124 13.631C7.76717 13.549 7.6702 13.432 7.61255 13.2948C7.5549 13.1577 7.53917 13.0066 7.56732 12.8605C7.59547 12.7144 7.66626 12.58 7.77075 12.4741C7.87524 12.3682 8.00874 12.2956 8.15442 12.2656C8.3001 12.2355 8.45141 12.2492 8.5893 12.305C8.72718 12.3609 8.84549 12.4563 8.9292 12.5793C9.01291 12.7022 9.05831 12.8472 9.05969 12.996V13.006C9.05969 13.2049 8.98068 13.3957 8.84003 13.5363C8.69938 13.677 8.50861 13.756 8.30969 13.756Z" fill="#000000" />
<path d="M8.30971 10.9357C8.16091 10.9363 8.01528 10.8927 7.89119 10.8106C7.7671 10.7285 7.67007 10.6115 7.61244 10.4743C7.55482 10.3371 7.53917 10.1859 7.5674 10.0398C7.59563 9.89372 7.66648 9.75925 7.77107 9.65341C7.87566 9.54756 8.00929 9.4751 8.15504 9.44512C8.30079 9.41515 8.45217 9.42903 8.59004 9.48501C8.72791 9.54099 8.84605 9.63657 8.92964 9.75967C9.01323 9.88277 9.05852 10.0279 9.05971 10.1767V10.1857C9.05971 10.3846 8.98069 10.5753 8.84004 10.716C8.69939 10.8567 8.50862 10.9357 8.30971 10.9357Z" fill="#000000" />
<path d="M14.1021 17.4736C13.4963 17.4734 12.9042 17.2936 12.4006 16.9569C11.897 16.6203 11.5046 16.1418 11.2729 15.5821C11.0412 15.0224 10.9807 14.4066 11.099 13.8125C11.2173 13.2184 11.5091 12.6727 11.9375 12.2444C12.3659 11.8162 12.9117 11.5245 13.5059 11.4064C14.1 11.2883 14.7158 11.349 15.2755 11.5809C15.8351 11.8128 16.3134 12.2054 16.6499 12.7091C16.9864 13.2127 17.166 13.8049 17.166 14.4107C17.1652 15.2229 16.8422 16.0017 16.2677 16.576C15.6933 17.1503 14.9144 17.4731 14.1021 17.4736ZM14.1021 12.8467C13.793 12.8469 13.491 12.9387 13.2341 13.1105C12.9772 13.2823 12.777 13.5264 12.6588 13.812C12.5407 14.0975 12.5098 14.4117 12.5701 14.7148C12.6305 15.0179 12.7794 15.2963 12.9979 15.5149C13.2164 15.7334 13.4948 15.8822 13.7979 15.9426C14.101 16.0029 14.4151 15.972 14.7007 15.8539C14.9863 15.7357 15.2304 15.5355 15.4022 15.2786C15.5741 15.0218 15.6658 14.7197 15.666 14.4107C15.6658 13.9959 15.5009 13.5983 15.2077 13.305C14.9144 13.0118 14.5168 12.8469 14.1021 12.8467Z" fill="#000000" />
<path d="M17.2862 21.741H7.21417C6.51903 21.7882 5.8207 21.7387 5.13916 21.594C4.54079 21.4236 3.99585 21.1032 3.55591 20.6633C3.11597 20.2234 2.79561 19.6784 2.62518 19.08C2.48241 18.3989 2.4336 17.7014 2.48016 17.007C2.47483 16.8333 2.48284 16.6595 2.50415 16.487C2.52212 16.325 2.5743 16.1687 2.65722 16.0284C2.74015 15.888 2.85193 15.7669 2.98517 15.673C3.19286 15.5257 3.41227 15.3956 3.64117 15.284L3.75018 15.223C3.90381 15.1396 4.03179 15.016 4.12042 14.8653C4.20905 14.7146 4.25498 14.5427 4.25323 14.3679C4.25149 14.1931 4.20216 14.0221 4.11053 13.8732C4.01891 13.7244 3.88842 13.6033 3.73315 13.523C3.48026 13.4052 3.23717 13.2675 3.00616 13.111C2.87039 13.0171 2.75578 12.8958 2.66968 12.7549C2.58357 12.614 2.52786 12.4567 2.50616 12.293C2.4847 12.1296 2.476 11.9648 2.48016 11.8C2.43172 11.0938 2.47984 10.3842 2.62317 9.69101C2.79382 9.09237 3.11436 8.54716 3.55444 8.10691C3.99452 7.66665 4.53961 7.34591 5.13818 7.17502C5.82084 7.03106 6.5201 6.98193 7.21618 7.02903H17.2822C17.9799 6.98218 18.6808 7.0313 19.3652 7.17502C19.9619 7.34653 20.5053 7.66683 20.9443 8.10587C21.3834 8.54491 21.7037 9.0883 21.8752 9.68503C22.0189 10.3694 22.068 11.0703 22.0212 11.768C22.0271 11.9441 22.018 12.1204 21.9941 12.295C21.9732 12.4588 21.9178 12.6163 21.8317 12.7571C21.7455 12.8979 21.6304 13.0189 21.4941 13.112C21.2735 13.2664 21.0392 13.4003 20.7942 13.512C20.6282 13.5902 20.4879 13.714 20.3896 13.8689C20.2913 14.0238 20.2391 14.2036 20.2391 14.387C20.2376 14.5647 20.2855 14.7394 20.3775 14.8915C20.4695 15.0435 20.602 15.167 20.7602 15.248C21.0173 15.3663 21.2635 15.5069 21.4962 15.668C21.6307 15.7618 21.744 15.8828 21.8288 16.0232C21.9136 16.1636 21.9678 16.3203 21.9882 16.483C22.0106 16.6567 22.019 16.832 22.0132 17.007C22.0616 17.7051 22.0121 18.4066 21.8661 19.091C21.6953 19.6877 21.3753 20.231 20.9363 20.6698C20.4974 21.1086 19.9539 21.4284 19.3572 21.599C18.6766 21.7411 17.9798 21.7889 17.2862 21.741ZM3.98614 16.809C3.98614 16.867 3.98614 16.927 3.98614 17.009C3.95264 17.5628 3.98149 18.1187 4.07214 18.666C4.17339 19.0205 4.36337 19.3434 4.62408 19.6041C4.88479 19.8648 5.20761 20.0548 5.56213 20.156C6.10973 20.2476 6.66597 20.2768 7.22015 20.243H17.2922C17.8477 20.277 18.4052 20.2478 18.9542 20.156C19.3082 20.0551 19.6308 19.8656 19.8913 19.6054C20.1518 19.3452 20.3417 19.023 20.4432 18.669C20.5357 18.1195 20.5649 17.5612 20.5301 17.005C20.5301 16.925 20.5301 16.863 20.5301 16.816C20.4301 16.758 20.2872 16.682 20.0792 16.572C19.6798 16.3632 19.3452 16.0489 19.1118 15.6634C18.8783 15.2778 18.7549 14.8357 18.7549 14.385C18.7549 13.9343 18.8783 13.4922 19.1118 13.1067C19.3452 12.7211 19.6798 12.4069 20.0792 12.198C20.2982 12.083 20.4402 12.01 20.5272 11.962C20.5272 11.906 20.5272 11.846 20.5272 11.769C20.5611 11.2125 20.5319 10.6539 20.4402 10.104C20.3384 9.75046 20.1486 9.42851 19.8885 9.16828C19.6285 8.90804 19.3067 8.71805 18.9532 8.61603C18.4031 8.52538 17.8446 8.4965 17.2881 8.53H7.22015C6.66534 8.49637 6.10854 8.52525 5.56018 8.61603C5.2054 8.71731 4.88229 8.90736 4.6214 9.16825C4.36051 9.42914 4.17043 9.75225 4.06915 10.107C3.97863 10.6561 3.95015 11.2136 3.98419 11.769C3.98419 11.851 3.98419 11.911 3.98419 11.957C4.07019 12.007 4.19218 12.07 4.36218 12.157C4.76959 12.3542 5.11479 12.6599 5.35992 13.0404C5.60506 13.4209 5.74067 13.8616 5.75183 14.3141C5.76299 14.7666 5.64924 15.2134 5.42316 15.6055C5.19707 15.9977 4.86735 16.32 4.47015 16.537L4.36413 16.595C4.18813 16.695 4.06318 16.763 3.98218 16.809H3.98614Z" fill="#000000" />
</svg>