<svg width="24px"  height="24px"  viewBox="0 0 25 24" fill="none" xmlns="http://www.w3.org/2000/svg">
<path d="M15.8535 20.0411C15.6105 20.0553 15.3668 20.0399 15.1275 19.9951C14.8903 19.957 14.671 19.8455 14.5005 19.6761C14.2037 19.3604 13.9425 19.013 13.7215 18.6401L13.6585 18.5471C13.5525 18.391 13.4111 18.2622 13.2457 18.1713C13.0803 18.0805 12.8957 18.0301 12.7071 18.0243C12.5185 18.0186 12.3312 18.0576 12.1606 18.1382C11.9899 18.2188 11.8408 18.3388 11.7255 18.4881C11.418 18.9647 11.0481 19.3979 10.6255 19.7761C10.5201 19.8557 10.4012 19.9157 10.2745 19.9531C9.97237 20.0346 9.65861 20.0643 9.34653 20.0411C6.85353 20.0411 5.60152 20.0411 4.55652 19.4001C3.97069 19.041 3.47827 18.5482 3.11954 17.9621C2.47854 16.9171 2.47852 15.6621 2.47852 13.1721V10.8301C2.47852 8.33715 2.47854 7.08514 3.11954 6.04014C3.47887 5.4548 3.97118 4.96246 4.55652 4.60313C5.60152 3.96213 6.85653 3.96214 9.34653 3.96214C9.64871 3.93999 9.95249 3.96597 10.2465 4.03913C10.3735 4.07478 10.4933 4.13232 10.6005 4.20915C11.0359 4.59042 11.415 5.03147 11.7265 5.51915C11.8481 5.66476 12.0015 5.78041 12.175 5.8571C12.3485 5.93378 12.5373 5.96944 12.7268 5.96131C12.9163 5.95319 13.1014 5.90148 13.2676 5.81022C13.4339 5.71897 13.5769 5.59062 13.6855 5.43513L13.7555 5.32615C13.949 4.98577 14.1769 4.66609 14.4355 4.37214C14.6084 4.18719 14.8358 4.06214 15.0845 4.01515C15.3342 3.96508 15.5893 3.94726 15.8435 3.96214C17.0009 3.85375 18.1683 3.96468 19.2845 4.28913C20.3573 4.73395 21.2097 5.58634 21.6545 6.65913C21.9781 7.77518 22.0887 8.94217 21.9805 10.0991V13.9141C22.0873 15.0642 21.978 16.2242 21.6585 17.3341C21.4381 17.8694 21.1138 18.3558 20.7045 18.7651C20.2952 19.1745 19.8088 19.4987 19.2735 19.7191C18.1636 20.0388 17.0036 20.1481 15.8535 20.0411ZM15.3835 18.5141L15.3095 19.2681L15.4875 18.5561C15.4541 18.5392 15.4193 18.5252 15.3835 18.5141ZM12.6725 16.5241C13.1099 16.5286 13.5399 16.6375 13.9266 16.8419C14.3133 17.0463 14.6455 17.3402 14.8955 17.6991L14.9585 17.7901C15.2415 18.2011 15.4055 18.4461 15.4895 18.5481V18.5401C15.5405 18.5401 15.6555 18.5401 15.8515 18.5401C16.8077 18.6243 17.7712 18.553 18.7045 18.3291C19.0552 18.1849 19.3738 17.9726 19.6419 17.7045C19.91 17.4364 20.1223 17.1178 20.2665 16.7671C20.4903 15.8334 20.5616 14.8696 20.4775 13.9131V10.1011C20.5626 9.13959 20.4906 8.17058 20.2645 7.23213C20.122 6.88284 19.9111 6.56555 19.6442 6.29887C19.3773 6.03219 19.0599 5.8215 18.7105 5.67915C17.772 5.45099 16.8025 5.37836 15.8405 5.46415C15.6635 5.46415 15.5505 5.46415 15.4715 5.46415C15.3715 5.59315 15.2295 5.80915 15.0085 6.14515L14.9385 6.25413C14.6926 6.63121 14.3563 6.94082 13.9601 7.15477C13.564 7.36871 13.1207 7.48022 12.6705 7.47914C12.2585 7.48106 11.8516 7.38773 11.4816 7.20646C11.1116 7.02519 10.7885 6.76089 10.5375 6.43415C10.2125 6.01515 9.90354 5.61514 9.77454 5.47114C9.63192 5.45823 9.48861 5.45457 9.34552 5.46015C7.13352 5.46015 6.02453 5.46014 5.33853 5.88014C4.95521 6.11542 4.6328 6.43783 4.39752 6.82115C3.97752 7.50715 3.97751 8.62114 3.97751 10.8281V13.1701C3.97751 15.3821 3.97752 16.4911 4.39752 17.1771C4.6325 17.561 4.95496 17.8838 5.33853 18.1192C6.02453 18.5392 7.13852 18.5391 9.34552 18.5391C9.54552 18.5391 9.67353 18.5441 9.76553 18.5341C9.89453 18.3971 10.2075 17.9931 10.5375 17.5681C10.7891 17.2415 11.1126 16.9774 11.4829 16.7963C11.8532 16.6153 12.2603 16.5221 12.6725 16.5241Z" fill="#000000" />
<path d="M12.6738 18.0205C12.4749 18.0205 12.2841 17.9415 12.1435 17.8009C12.0028 17.6602 11.9238 17.4695 11.9238 17.2705V6.72656C11.9238 6.52765 12.0028 6.33688 12.1435 6.19623C12.2841 6.05558 12.4749 5.97656 12.6738 5.97656C12.8727 5.97656 13.0635 6.05558 13.2042 6.19623C13.3448 6.33688 13.4238 6.52765 13.4238 6.72656V17.2705C13.4238 17.4695 13.3448 17.6602 13.2042 17.8009C13.0635 17.9415 12.8727 18.0205 12.6738 18.0205Z" fill="#000000" />
<path d="M17.3984 14.8289C17.1995 14.8289 17.0088 14.7499 16.8681 14.6092C16.7275 14.4686 16.6484 14.2778 16.6484 14.0789V9.92188C16.6484 9.72296 16.7275 9.53219 16.8681 9.39154C17.0088 9.25089 17.1995 9.17188 17.3984 9.17188C17.5973 9.17188 17.7881 9.25089 17.9288 9.39154C18.0694 9.53219 18.1484 9.72296 18.1484 9.92188V14.0789C18.1484 14.2778 18.0694 14.4686 17.9288 14.6092C17.7881 14.7499 17.5973 14.8289 17.3984 14.8289Z" fill="#000000" />
</svg>