<svg width="24px"  height="24px"  viewBox="0 0 25 24" fill="none" xmlns="http://www.w3.org/2000/svg">
<path d="M17.4859 8.55369C17.34 8.55351 17.1974 8.51099 17.0753 8.43128C16.9531 8.35157 16.8568 8.23811 16.7979 8.10468C16.6576 7.78093 16.5889 7.43073 16.5963 7.07798C16.6037 6.72523 16.6871 6.37824 16.8409 6.06068C16.9409 5.84568 17.0149 5.69969 17.0569 5.60569C17.0279 5.56069 16.9929 5.5147 16.9479 5.4557C16.6433 4.99177 16.2878 4.56343 15.8879 4.17869C15.5964 3.95798 15.2538 3.81471 14.892 3.76224C14.5302 3.70978 14.161 3.74987 13.8189 3.8787C13.3279 4.13184 12.867 4.43943 12.4449 4.79569L7.70489 8.3307C7.6261 8.38979 7.53642 8.43278 7.44101 8.45722C7.3456 8.48167 7.2463 8.48708 7.1488 8.47315C7.0513 8.45922 6.95752 8.42623 6.87277 8.37604C6.78802 8.32586 6.71397 8.25946 6.65488 8.18067C6.59578 8.10188 6.55279 8.01223 6.52835 7.91682C6.50391 7.82141 6.49849 7.72211 6.51242 7.62461C6.52635 7.52711 6.55935 7.43333 6.60953 7.34858C6.65971 7.26383 6.72608 7.18978 6.80487 7.13068L11.5389 3.59968C12.069 3.14825 12.6576 2.77051 13.2889 2.47669C13.8678 2.25875 14.4925 2.19121 15.1046 2.2804C15.7168 2.3696 16.2962 2.61259 16.7889 2.98667C17.3088 3.4434 17.7628 3.9701 18.1379 4.55167C18.2509 4.69043 18.3513 4.83902 18.4379 4.99567C18.5199 5.13911 18.5705 5.29828 18.5865 5.46271C18.6026 5.62715 18.5836 5.79311 18.5309 5.94968C18.4401 6.21395 18.3273 6.47016 18.1939 6.71567C18.1334 6.83869 18.1002 6.97334 18.0965 7.11039C18.0929 7.24744 18.1189 7.38364 18.1729 7.50968C18.2124 7.5999 18.2338 7.69703 18.2358 7.79551C18.2378 7.89399 18.2204 7.99188 18.1845 8.08363C18.1487 8.17537 18.0951 8.25916 18.0269 8.33021C17.9587 8.40125 17.8771 8.45816 17.7869 8.49769C17.6914 8.53645 17.589 8.55549 17.4859 8.55369Z" fill="#000000" />
<path d="M17.2861 21.7372H7.21414C6.51905 21.784 5.82081 21.7349 5.13913 21.5912C4.54095 21.4201 3.99623 21.0994 3.55637 20.6593C3.11651 20.2193 2.79601 19.6744 2.62512 19.0762C2.48231 18.3951 2.43354 17.6976 2.48013 17.0032C2.47428 16.8291 2.48263 16.6549 2.50513 16.4822C2.52286 16.3204 2.57483 16.1642 2.65759 16.024C2.74035 15.8838 2.85202 15.7629 2.98514 15.6692C3.19284 15.5219 3.41225 15.3918 3.64114 15.2802L3.75012 15.2192C3.90375 15.1358 4.03176 15.0121 4.12039 14.8615C4.20903 14.7108 4.25495 14.5389 4.25321 14.3641C4.25146 14.1893 4.2021 14.0183 4.11047 13.8694C4.01885 13.7205 3.88839 13.5995 3.73312 13.5192C3.48024 13.4014 3.23715 13.2636 3.00613 13.1072C2.87051 13.0136 2.75597 12.8926 2.66986 12.7521C2.58375 12.6115 2.52798 12.4545 2.50613 12.2912C2.48491 12.1271 2.47621 11.9616 2.48013 11.7962C2.43174 11.09 2.47986 10.3804 2.62314 9.68718C2.79405 9.08867 3.11465 8.5436 3.55469 8.10338C3.99473 7.66317 4.53968 7.34234 5.13812 7.17119C5.82078 7.02723 6.52004 6.9781 7.21613 7.0252H17.2821C17.9806 6.97775 18.6823 7.02754 19.3671 7.17318C19.9635 7.34429 20.5066 7.66426 20.9453 8.10299C21.3841 8.54171 21.704 9.08478 21.8751 9.68117C22.0189 10.3656 22.068 11.0664 22.0211 11.7642C22.0271 11.9403 22.0181 12.1166 21.9941 12.2912C21.9737 12.4544 21.919 12.6114 21.8337 12.752C21.7484 12.8926 21.6344 13.0137 21.4991 13.1072C21.2782 13.2612 21.044 13.3951 20.7991 13.5072C20.6356 13.5842 20.4968 13.7053 20.3984 13.8569C20.3001 14.0085 20.246 14.1846 20.2424 14.3653C20.2387 14.546 20.2856 14.7242 20.3778 14.8796C20.47 15.0351 20.6038 15.1617 20.7641 15.2452C21.0206 15.3638 21.2665 15.5039 21.4991 15.6642C21.6337 15.758 21.747 15.879 21.8318 16.0194C21.9165 16.1598 21.9708 16.3164 21.9911 16.4792C22.0135 16.6529 22.0219 16.8281 22.0161 17.0032C22.0647 17.7013 22.0152 18.4028 21.8691 19.0872C21.6978 19.6837 21.3777 20.227 20.9388 20.6659C20.4999 21.1047 19.9567 21.4249 19.3601 21.5962C18.6785 21.7375 17.9807 21.785 17.2861 21.7372ZM3.98615 16.8052C3.98615 16.8632 3.98615 16.9242 3.98615 17.0052C3.95265 17.559 3.98149 18.1148 4.07214 18.6622C4.17357 19.0168 4.36369 19.3397 4.62457 19.6004C4.88545 19.8611 5.20848 20.051 5.56314 20.1522C6.1104 20.2438 6.66628 20.273 7.22012 20.2392H17.2921C17.8477 20.2731 18.4052 20.2439 18.9541 20.1522C19.3081 20.0511 19.6306 19.8615 19.8911 19.6014C20.1515 19.3412 20.3415 19.019 20.4431 18.6652C20.5357 18.1157 20.5649 17.5573 20.5301 17.0012C20.5301 16.9212 20.5301 16.8592 20.5301 16.8122C20.4391 16.7592 20.3111 16.6922 20.1301 16.5962C19.7187 16.3898 19.3726 16.0735 19.13 15.6823C18.8875 15.2912 18.7581 14.8404 18.7561 14.3802C18.7556 13.9294 18.8789 13.4872 19.1125 13.1017C19.3462 12.7162 19.6813 12.4023 20.0811 12.1942C20.2991 12.0792 20.4421 12.0062 20.5291 11.9582C20.5291 11.9022 20.5291 11.8432 20.5291 11.7652C20.563 11.2087 20.5339 10.6501 20.4421 10.1002C20.3407 9.7467 20.1509 9.42486 19.8908 9.16491C19.6307 8.90495 19.3087 8.71543 18.9551 8.61419C18.4053 8.52149 17.8467 8.49195 17.2901 8.52617H7.22012C6.66532 8.49255 6.10848 8.5214 5.56012 8.61217C5.20527 8.71362 4.88213 8.90388 4.62125 9.16494C4.36036 9.426 4.17034 9.74925 4.06912 10.1042C3.97856 10.6529 3.95005 11.2101 3.98413 11.7652C3.98413 11.8472 3.98413 11.9072 3.98413 11.9532C4.07013 12.0032 4.19212 12.0662 4.36212 12.1532C4.76953 12.3504 5.11476 12.656 5.35989 13.0365C5.60503 13.4171 5.74061 13.8578 5.75177 14.3103C5.76293 14.7628 5.64924 15.2096 5.42316 15.6017C5.19707 15.9938 4.86732 16.3161 4.47012 16.5332L4.36414 16.5912L3.98615 16.8052Z" fill="#000000" />
<path d="M15.1249 17.0938H9.37988C9.18097 17.0938 8.9902 17.0147 8.84955 16.8741C8.7089 16.7334 8.62988 16.5427 8.62988 16.3438C8.62988 16.1448 8.7089 15.9541 8.84955 15.8134C8.9902 15.6728 9.18097 15.5938 9.37988 15.5938H15.1249C15.3238 15.5938 15.5146 15.6728 15.6552 15.8134C15.7959 15.9541 15.8749 16.1448 15.8749 16.3438C15.8749 16.5427 15.7959 16.7334 15.6552 16.8741C15.5146 17.0147 15.3238 17.0938 15.1249 17.0938Z" fill="#000000" />
<path d="M11.9779 13.1719H9.37793C9.17902 13.1719 8.98825 13.0929 8.8476 12.9522C8.70694 12.8116 8.62793 12.6208 8.62793 12.4219C8.62793 12.223 8.70694 12.0322 8.8476 11.8915C8.98825 11.7509 9.17902 11.6719 9.37793 11.6719H11.9779C12.1768 11.6719 12.3676 11.7509 12.5082 11.8915C12.6489 12.0322 12.7279 12.223 12.7279 12.4219C12.7279 12.6208 12.6489 12.8116 12.5082 12.9522C12.3676 13.0929 12.1768 13.1719 11.9779 13.1719Z" fill="#000000" />
</svg>