<svg width="24px"  height="24px"  viewBox="0 0 25 24" fill="none" xmlns="http://www.w3.org/2000/svg">
<path d="M17.4872 8.53715C17.3414 8.53729 17.1987 8.4949 17.0767 8.41514C16.9547 8.33538 16.8586 8.22172 16.8002 8.08815C16.6593 7.76458 16.5901 7.41439 16.5973 7.06156C16.6046 6.70874 16.6881 6.36167 16.8422 6.04417C16.9422 5.83017 17.0162 5.68315 17.0582 5.58915C17.0292 5.54615 16.9941 5.50016 16.9491 5.43916C16.6453 4.97505 16.2897 4.54698 15.8892 4.16316C15.598 3.94177 15.2554 3.79807 14.8934 3.74559C14.5315 3.6931 14.1622 3.73358 13.8202 3.86317C13.3268 4.11702 12.8639 4.42598 12.4402 4.78416L7.70617 8.31517C7.54644 8.42255 7.35157 8.46451 7.1618 8.43238C6.97203 8.40026 6.80181 8.29647 6.68633 8.1425C6.57085 7.98852 6.5189 7.7961 6.54119 7.60493C6.56348 7.41375 6.65833 7.23843 6.80614 7.11515L11.5402 3.58515C12.0697 3.13151 12.6597 2.75359 13.2931 2.46217C13.872 2.24333 14.4969 2.17541 15.1092 2.26481C15.7216 2.35421 16.3011 2.59797 16.7931 2.97316C17.3167 3.43299 17.7738 3.96339 18.1512 4.54914C18.2571 4.68208 18.3524 4.82318 18.4361 4.97114C18.5199 5.11585 18.5721 5.27666 18.5893 5.44297C18.6066 5.60928 18.5885 5.77736 18.5362 5.93617C18.4452 6.20006 18.3325 6.45593 18.1991 6.70115C18.1384 6.8239 18.105 6.95836 18.1012 7.09526C18.0974 7.23215 18.1233 7.36823 18.1772 7.49415C18.2274 7.60821 18.2484 7.733 18.2383 7.85722C18.2281 7.98144 18.1871 8.10117 18.1189 8.20555C18.0508 8.30992 17.9578 8.39563 17.8481 8.45494C17.7385 8.51424 17.6158 8.54524 17.4911 8.54515L17.4872 8.53715Z" fill="#000000" />
<path d="M14.8506 10.8563C14.6517 10.8563 14.461 10.7773 14.3203 10.6366C14.1797 10.496 14.1006 10.3052 14.1006 10.1063V7.82031C14.1006 7.6214 14.1797 7.43063 14.3203 7.28998C14.461 7.14933 14.6517 7.07031 14.8506 7.07031C15.0495 7.07031 15.2403 7.14933 15.3809 7.28998C15.5216 7.43063 15.6006 7.6214 15.6006 7.82031V10.1063C15.6006 10.3052 15.5216 10.496 15.3809 10.6366C15.2403 10.7773 15.0495 10.8563 14.8506 10.8563Z" fill="#000000" />
<path d="M14.8506 16.9046C14.6517 16.9046 14.461 16.8256 14.3203 16.6849C14.1797 16.5443 14.1006 16.3535 14.1006 16.1546V12.7266C14.1006 12.5277 14.1797 12.3369 14.3203 12.1963C14.461 12.0556 14.6517 11.9766 14.8506 11.9766C15.0495 11.9766 15.2403 12.0556 15.3809 12.1963C15.5216 12.3369 15.6006 12.5277 15.6006 12.7266V16.1546C15.6006 16.3535 15.5216 16.5443 15.3809 16.6849C15.2403 16.8256 15.0495 16.9046 14.8506 16.9046Z" fill="#000000" />
<path d="M14.8506 21.7548C14.6517 21.7548 14.461 21.6757 14.3203 21.5351C14.1797 21.3944 14.1006 21.2037 14.1006 21.0048V18.7188C14.1006 18.5198 14.1797 18.3291 14.3203 18.1884C14.461 18.0478 14.6517 17.9688 14.8506 17.9688C15.0495 17.9688 15.2403 18.0478 15.3809 18.1884C15.5216 18.3291 15.6006 18.5198 15.6006 18.7188V21.0038C15.6007 21.1023 15.5815 21.2 15.5438 21.2911C15.5062 21.3822 15.4509 21.465 15.3813 21.5347C15.3116 21.6045 15.2289 21.6598 15.1379 21.6976C15.0468 21.7353 14.9492 21.7548 14.8506 21.7548Z" fill="#000000" />
<path d="M17.2862 21.7528H7.21417C6.51903 21.7999 5.8207 21.7504 5.13916 21.6057C4.54079 21.4353 3.99585 21.115 3.55591 20.675C3.11597 20.2351 2.79561 19.6901 2.62518 19.0917C2.48241 18.4106 2.4336 17.7131 2.48016 17.0187C2.47483 16.845 2.48284 16.6712 2.50415 16.4987C2.52212 16.3367 2.5743 16.1804 2.65722 16.0401C2.74015 15.8997 2.85193 15.7786 2.98517 15.6847C3.19286 15.5374 3.41227 15.4073 3.64117 15.2958L3.75018 15.2347C3.90381 15.1514 4.03179 15.0277 4.12042 14.877C4.20905 14.7264 4.25498 14.5544 4.25323 14.3796C4.25149 14.2048 4.20216 14.0338 4.11053 13.885C4.01891 13.7361 3.88842 13.615 3.73315 13.5347C3.48026 13.4169 3.23717 13.2792 3.00616 13.1227C2.87039 13.0288 2.75578 12.9075 2.66968 12.7666C2.58357 12.6257 2.52786 12.4684 2.50616 12.3047C2.4847 12.1413 2.476 11.9765 2.48016 11.8117C2.43172 11.1055 2.47984 10.396 2.62317 9.70273C2.79382 9.10409 3.11436 8.55888 3.55444 8.11863C3.99452 7.67837 4.53961 7.35763 5.13818 7.18674C5.82084 7.04278 6.5201 6.99365 7.21618 7.04075H17.2822C17.9799 6.9939 18.6808 7.04302 19.3652 7.18674C19.9619 7.35825 20.5053 7.67855 20.9443 8.11759C21.3834 8.55663 21.7037 9.10002 21.8752 9.69675C22.0189 10.3811 22.068 11.082 22.0212 11.7797C22.0271 11.9558 22.018 12.1322 21.9941 12.3067C21.9732 12.4705 21.9178 12.628 21.8317 12.7688C21.7455 12.9096 21.6304 13.0306 21.4941 13.1237C21.2735 13.2781 21.0392 13.412 20.7942 13.5237C20.6282 13.6019 20.4879 13.7257 20.3896 13.8806C20.2913 14.0356 20.2391 14.2153 20.2391 14.3987C20.2376 14.5765 20.2855 14.7511 20.3775 14.9032C20.4695 15.0552 20.602 15.1787 20.7602 15.2597C21.0173 15.3781 21.2635 15.5186 21.4962 15.6797C21.6307 15.7735 21.744 15.8945 21.8288 16.0349C21.9136 16.1754 21.9678 16.332 21.9882 16.4947C22.0106 16.6684 22.019 16.8437 22.0132 17.0187C22.0616 17.7169 22.0121 18.4183 21.8661 19.1027C21.6953 19.6994 21.3753 20.2428 20.9363 20.6816C20.4974 21.1203 19.9539 21.4401 19.3572 21.6107C18.6766 21.7528 17.9798 21.8006 17.2862 21.7528ZM3.98614 16.8207C3.98614 16.8787 3.98614 16.9387 3.98614 17.0207C3.95264 17.5745 3.98149 18.1304 4.07214 18.6777C4.17339 19.0323 4.36337 19.3551 4.62408 19.6158C4.88479 19.8765 5.20761 20.0665 5.56213 20.1677C6.10973 20.2593 6.66597 20.2885 7.22015 20.2547H17.2922C17.8477 20.2887 18.4052 20.2595 18.9542 20.1677C19.3082 20.0668 19.6308 19.8773 19.8913 19.6171C20.1518 19.3569 20.3417 19.0347 20.4432 18.6807C20.5357 18.1312 20.5649 17.5729 20.5301 17.0167C20.5301 16.9367 20.5301 16.8747 20.5301 16.8277C20.4301 16.7697 20.2872 16.6937 20.0792 16.5837C19.6798 16.3749 19.3452 16.0606 19.1118 15.6751C18.8783 15.2895 18.7549 14.8474 18.7549 14.3967C18.7549 13.946 18.8783 13.5039 19.1118 13.1184C19.3452 12.7328 19.6798 12.4186 20.0792 12.2098C20.2982 12.0948 20.4402 12.0217 20.5272 11.9737C20.5272 11.9177 20.5272 11.8577 20.5272 11.7807C20.5611 11.2242 20.5319 10.6657 20.4402 10.1157C20.3384 9.76218 20.1486 9.44023 19.8885 9.18C19.6285 8.91976 19.3067 8.72977 18.9532 8.62775C18.4031 8.5371 17.8446 8.50822 17.2881 8.54172H7.22015C6.66534 8.50809 6.10854 8.53697 5.56018 8.62775C5.2054 8.72903 4.88229 8.91908 4.6214 9.17997C4.36051 9.44086 4.17043 9.76397 4.06915 10.1187C3.97863 10.6678 3.95015 11.2253 3.98419 11.7807C3.98419 11.8627 3.98419 11.9227 3.98419 11.9687C4.07019 12.0187 4.19218 12.0817 4.36218 12.1687C4.76959 12.366 5.11479 12.6716 5.35992 13.0521C5.60506 13.4326 5.74067 13.8733 5.75183 14.3258C5.76299 14.7783 5.64924 15.2251 5.42316 15.6173C5.19707 16.0094 4.86735 16.3317 4.47015 16.5487L4.36413 16.6067C4.18813 16.7067 4.06318 16.7747 3.98218 16.8207H3.98614Z" fill="#000000" />
</svg>