<svg width="24px"  height="24px"  viewBox="0 0 25 24" fill="none" xmlns="http://www.w3.org/2000/svg">
<path d="M10.9208 21.758C10.326 21.7576 9.74102 21.6062 9.22075 21.318C8.66995 20.958 8.1707 20.5247 7.73675 20.03C7.60971 19.9114 7.49327 19.7819 7.38875 19.643C7.29173 19.5199 7.22172 19.3777 7.1833 19.2258C7.14488 19.0738 7.1389 18.9154 7.16575 18.761C7.21444 18.483 7.28567 18.2094 7.37875 17.943C7.42173 17.7979 7.42588 17.644 7.39078 17.4968C7.35569 17.3496 7.28258 17.2141 7.17875 17.104C7.06611 16.9859 6.92279 16.9016 6.76488 16.8604C6.60696 16.8193 6.4407 16.8229 6.28475 16.871L6.16875 16.907C5.95391 16.9857 5.73232 17.0446 5.50675 17.083C5.34962 17.1107 5.18842 17.1054 5.03346 17.0674C4.8785 17.0293 4.73317 16.9594 4.60675 16.862C4.47828 16.7664 4.35878 16.6593 4.24975 16.542C3.74429 16.101 3.30152 15.593 2.93375 15.032C2.6448 14.512 2.49316 13.9269 2.49316 13.332C2.49316 12.7371 2.6448 12.152 2.93375 11.632C3.29569 11.0744 3.73319 10.5695 4.23375 10.132L10.3848 3.98001C10.8221 3.47925 11.3269 3.04171 11.8848 2.67999C12.4035 2.39283 12.9868 2.24219 13.5798 2.24219C14.1727 2.24219 14.756 2.39283 15.2748 2.67999C15.8288 3.04005 16.3305 3.47484 16.7658 3.97202C16.8955 4.08939 17.0124 4.2201 17.1148 4.362C17.2124 4.48823 17.2822 4.63364 17.3198 4.78873C17.3574 4.94381 17.3618 5.10508 17.3328 5.26199C17.2868 5.50955 17.2199 5.75277 17.1328 5.98901C17.075 6.14613 17.0631 6.31645 17.0985 6.48007C17.1339 6.64369 17.2152 6.79384 17.3328 6.91299C17.4451 7.02692 17.5868 7.10751 17.7421 7.14581C17.8974 7.18412 18.0603 7.17865 18.2128 7.13C18.4665 7.03664 18.7278 6.96536 18.9938 6.91699C19.1509 6.88857 19.3122 6.89356 19.4673 6.93164C19.6224 6.96972 19.7677 7.04003 19.8938 7.138C20.0236 7.23527 20.1447 7.34368 20.2558 7.46201C20.7606 7.90308 21.2024 8.4115 21.5688 8.97299C21.8561 9.49191 22.0068 10.0754 22.0068 10.6685C22.0068 11.2617 21.8561 11.8451 21.5688 12.364C21.2066 12.9216 20.7692 13.4263 20.2688 13.864L14.1138 20.02C13.6786 20.5167 13.178 20.9519 12.6258 21.314C12.1041 21.6037 11.5175 21.7565 10.9208 21.758ZM8.67975 18.848L8.76375 18.933C9.11867 19.333 9.51676 19.6925 9.95075 20.005C10.2485 20.171 10.5838 20.2582 10.9248 20.2582C11.2657 20.2582 11.601 20.171 11.8988 20.005C12.3189 19.7022 12.7046 19.3541 13.0488 18.967L19.2068 12.809C19.5971 12.4622 19.9473 12.0728 20.2508 11.648C20.4153 11.3503 20.5017 11.0157 20.5017 10.6755C20.5017 10.3353 20.4153 10.0007 20.2508 9.703C19.9462 9.27903 19.5954 8.8903 19.2048 8.54401L19.0968 8.43701C19.0068 8.46101 18.8868 8.49801 18.7238 8.54901C18.3025 8.69063 17.8503 8.7125 17.4173 8.61221C16.9844 8.51193 16.5878 8.29342 16.2718 7.98102C15.9652 7.67513 15.7486 7.29096 15.6454 6.87039C15.5423 6.44983 15.5566 6.00901 15.6868 5.59601C15.7508 5.38801 15.7948 5.25101 15.8208 5.16101L15.7398 5.078C15.384 4.67776 14.9853 4.31792 14.5508 4.005C14.2532 3.83933 13.9183 3.75238 13.5778 3.75238C13.2372 3.75238 12.9023 3.83933 12.6048 4.005C12.185 4.30535 11.8002 4.65184 11.4578 5.03799L5.29675 11.205C4.90647 11.5498 4.55566 11.9368 4.25075 12.359C4.08626 12.6569 3.99998 12.9917 3.99998 13.332C3.99998 13.6723 4.08626 14.0071 4.25075 14.305C4.55511 14.7276 4.9056 15.115 5.29575 15.46L5.40375 15.567C5.48375 15.546 5.58875 15.513 5.72875 15.467L5.84175 15.433C6.2547 15.304 6.6951 15.2907 7.11507 15.3946C7.53505 15.4984 7.9185 15.7154 8.22375 16.022C8.51885 16.3251 8.72899 16.7006 8.83308 17.1106C8.93717 17.5206 8.93154 17.9508 8.81675 18.358C8.75075 18.589 8.70775 18.746 8.67975 18.848Z" fill="#000000" />
</svg>