<svg width="24px"  height="24px"  viewBox="0 0 25 24" fill="none" xmlns="http://www.w3.org/2000/svg">
<path d="M16.8369 20.0476H15.3259C15.1725 20.0475 15.0228 20.0004 14.8969 19.9126C14.7711 19.8248 14.6753 19.7005 14.6223 19.5565C14.5693 19.4125 14.5618 19.2558 14.6007 19.1074C14.6396 18.959 14.7231 18.8261 14.8399 18.7266L15.9099 17.8146C16.0189 17.7216 16.0789 17.6746 16.1199 17.6306C16.1564 17.5858 16.1763 17.5298 16.1763 17.4721C16.1763 17.4143 16.1564 17.3583 16.1199 17.3136C16.0799 17.2706 16.0199 17.2236 15.9199 17.1366C15.7765 17.0238 15.6427 16.8994 15.5199 16.7646C15.2594 16.4507 15.1168 16.0555 15.1168 15.6476C15.1168 15.2396 15.2594 14.8445 15.5199 14.5306C15.632 14.4062 15.7537 14.2908 15.8839 14.1856C16.0159 14.0736 16.0779 14.0246 16.1189 13.9796C16.155 13.9352 16.1746 13.8798 16.1746 13.8226C16.1746 13.7654 16.155 13.71 16.1189 13.6656C16.0809 13.6246 16.0189 13.5756 15.9119 13.4846C15.7738 13.3736 15.6444 13.2523 15.5249 13.1216C15.2637 12.8068 15.1208 12.4106 15.1208 12.0016C15.1208 11.5925 15.2637 11.1964 15.5249 10.8816C15.637 10.7572 15.7587 10.6418 15.8889 10.5366C16.0209 10.4246 16.0829 10.3756 16.1239 10.3316C16.1603 10.287 16.1802 10.2311 16.1802 10.1736C16.1802 10.116 16.1603 10.0602 16.1239 10.0156C16.0869 9.97558 16.0239 9.92658 15.9179 9.83558C15.7798 9.72463 15.6505 9.60328 15.5309 9.47259C15.2692 9.15805 15.1259 8.76177 15.1259 8.35257C15.1259 7.94338 15.2692 7.54712 15.5309 7.23258C15.6427 7.10854 15.764 6.99352 15.8939 6.88859C16.0279 6.77459 16.0939 6.72658 16.1289 6.68258C16.1653 6.63796 16.1852 6.58215 16.1852 6.52457C16.1852 6.467 16.1653 6.4112 16.1289 6.36658C16.0909 6.32558 16.0289 6.27657 15.9229 6.18657L14.8509 5.27358C14.734 5.17405 14.6505 5.04106 14.6116 4.89255C14.5727 4.74405 14.5804 4.58719 14.6335 4.44315C14.6866 4.29912 14.7826 4.17485 14.9086 4.08712C15.0345 3.99939 15.1844 3.95243 15.3379 3.95258H16.8499C17.6133 3.90105 18.3801 3.95454 19.1289 4.11158C19.7751 4.29733 20.3635 4.64417 20.8389 5.11959C21.3143 5.595 21.6611 6.18341 21.8469 6.82958C22.0039 7.5784 22.0574 8.34521 22.0059 9.10857V14.8916C22.0567 15.6542 22.0039 16.4202 21.8489 17.1686C21.6632 17.815 21.3164 18.4037 20.841 18.8794C20.3656 19.3551 19.7772 19.7024 19.1309 19.8886C18.3771 20.0461 17.6052 20.0996 16.8369 20.0476ZM17.3069 5.45357C17.5509 5.76858 17.6804 6.1573 17.674 6.55572C17.6677 6.95413 17.5259 7.33851 17.2719 7.64557C17.1541 7.77531 17.026 7.89537 16.8889 8.00458C16.8133 8.06479 16.7409 8.12887 16.6719 8.19658C16.6352 8.24088 16.6152 8.29658 16.6152 8.35409C16.6152 8.41159 16.6352 8.46728 16.6719 8.51157C16.7059 8.54957 16.7639 8.59457 16.8599 8.67757C17.0035 8.79228 17.1373 8.91872 17.2599 9.05558C17.5211 9.36997 17.6641 9.76584 17.6641 10.1746C17.6641 10.5833 17.5211 10.9792 17.2599 11.2936C17.1405 11.4264 17.0101 11.5489 16.8699 11.6596C16.797 11.7175 16.7273 11.7793 16.6609 11.8446C16.6245 11.8892 16.6046 11.945 16.6046 12.0026C16.6046 12.0602 16.6245 12.116 16.6609 12.1606C16.6949 12.1986 16.7529 12.2436 16.8489 12.3266C16.9927 12.441 17.1265 12.5675 17.2489 12.7046C17.5101 13.019 17.6531 13.4148 17.6531 13.8236C17.6531 14.2323 17.5101 14.6282 17.2489 14.9426C17.1293 15.0752 16.9988 15.1976 16.8589 15.3086C16.786 15.3665 16.7163 15.4283 16.6499 15.4936C16.6135 15.5378 16.5936 15.5933 16.5936 15.6506C16.5936 15.7079 16.6135 15.7634 16.6499 15.8076C16.6889 15.8506 16.7499 15.8966 16.8499 15.9826C16.9931 16.0966 17.1269 16.222 17.2499 16.3576C17.5038 16.6641 17.6456 17.0481 17.6518 17.4461C17.6579 17.8441 17.5282 18.2323 17.2839 18.5466C17.7502 18.571 18.2178 18.5374 18.6759 18.4466C19.0802 18.3306 19.4483 18.1137 19.7457 17.8164C20.0431 17.519 20.2599 17.1508 20.3759 16.7466C20.4807 16.1325 20.5142 15.5084 20.4759 14.8866V9.10358C20.5151 8.4818 20.4815 7.85758 20.3759 7.24358C20.2603 6.83915 20.0435 6.47083 19.7461 6.17339C19.4486 5.87595 19.0803 5.65921 18.6759 5.54358C18.225 5.45787 17.7652 5.42763 17.3069 5.45357Z" fill="#000000" />
<path d="M12.2053 20.0476H7.65135C6.88874 20.0984 6.12277 20.0456 5.37436 19.8906C4.72768 19.7044 4.13886 19.3571 3.66311 18.8812C3.18737 18.4053 2.84027 17.8163 2.65436 17.1696C2.49699 16.4211 2.44381 15.6546 2.49635 14.8916C2.49018 14.7048 2.49887 14.5179 2.52235 14.3326C2.54251 14.16 2.59934 13.9937 2.68902 13.8448C2.77871 13.696 2.89918 13.5681 3.04236 13.4696C3.29481 13.2984 3.56067 13.1479 3.83735 13.0196C4.02368 12.9223 4.17979 12.7759 4.28872 12.5962C4.39766 12.4164 4.45526 12.2103 4.45526 12.0001C4.45526 11.7899 4.39766 11.5838 4.28872 11.404C4.17979 11.2243 4.02368 11.0778 3.83735 10.9806C3.55851 10.853 3.29089 10.7021 3.03735 10.5296C2.89539 10.4316 2.77595 10.3045 2.68698 10.1567C2.598 10.0089 2.54153 9.84389 2.52134 9.67258C2.49607 9.48571 2.4867 9.29703 2.49334 9.10857C2.44248 8.34563 2.49531 7.57932 2.65036 6.83057C2.83648 6.18416 3.18368 5.59558 3.65942 5.12002C4.13516 4.64445 4.72387 4.29746 5.37036 4.11158C6.11917 3.95454 6.88599 3.90105 7.64935 3.95258H12.1974C12.3963 3.95258 12.587 4.03159 12.7277 4.17225C12.8683 4.3129 12.9474 4.50367 12.9474 4.70258C12.9474 4.90149 12.8683 5.09226 12.7277 5.23292C12.587 5.37357 12.3963 5.45258 12.1974 5.45258H7.64935C7.02724 5.41348 6.4027 5.44703 5.78836 5.55257C5.38405 5.66846 5.01587 5.8853 4.71847 6.1827C4.42107 6.4801 4.20423 6.84828 4.08835 7.25258C3.98338 7.86665 3.94984 8.4908 3.98835 9.11258C3.98835 9.22758 3.98835 9.31258 3.98835 9.36458C4.09635 9.43158 4.25135 9.51158 4.48135 9.63158C4.91819 9.84941 5.28638 10.1837 5.5453 10.5975C5.80422 11.0113 5.9438 11.4886 5.94867 11.9767C5.95353 12.4648 5.82347 12.9448 5.57284 13.3637C5.32222 13.7826 4.96076 14.1241 4.52835 14.3506C4.26035 14.4916 4.08834 14.5816 3.99334 14.6356C3.98734 14.7116 3.98835 14.7886 3.98835 14.8956C3.94981 15.517 3.98335 16.1409 4.08835 16.7546C4.20449 17.1588 4.42142 17.5268 4.71878 17.8241C5.01614 18.1215 5.38418 18.3384 5.78836 18.4546C6.40243 18.5595 7.02658 18.593 7.64836 18.5546H12.2023C12.4013 18.5546 12.592 18.6336 12.7327 18.7743C12.8733 18.9149 12.9523 19.1057 12.9523 19.3046C12.9523 19.5035 12.8733 19.6943 12.7327 19.8349C12.592 19.9756 12.4013 20.0546 12.2023 20.0546L12.2053 20.0476Z" fill="#000000" />
<path d="M11.599 12.7539H8.41797C8.21906 12.7539 8.0283 12.6749 7.88765 12.5342C7.747 12.3936 7.66797 12.2028 7.66797 12.0039C7.66797 11.805 7.747 11.6142 7.88765 11.4736C8.0283 11.3329 8.21906 11.2539 8.41797 11.2539H11.599C11.7979 11.2539 11.9887 11.3329 12.1293 11.4736C12.27 11.6142 12.349 11.805 12.349 12.0039C12.349 12.2028 12.27 12.3936 12.1293 12.5342C11.9887 12.6749 11.7979 12.7539 11.599 12.7539Z" fill="#000000" />
<path d="M8.4171 9.25389H8.40711C8.20863 9.25257 8.01878 9.17263 7.87914 9.03159C7.7395 8.89054 7.66145 8.69988 7.66211 8.5014C7.66278 8.30293 7.74208 8.11281 7.88266 7.9727C8.02324 7.83259 8.21363 7.75391 8.41211 7.75391C8.61059 7.75391 8.80097 7.83259 8.94155 7.9727C9.08213 8.11281 9.16144 8.30293 9.1621 8.5014C9.16276 8.69988 9.08473 8.89054 8.94509 9.03159C8.80545 9.17263 8.61558 9.25257 8.4171 9.25389Z" fill="#000000" />
<path d="M11.6007 16.2539C11.4013 16.2539 11.2101 16.1751 11.0686 16.0345C10.9272 15.894 10.847 15.7033 10.8457 15.5039C10.8452 15.4057 10.8641 15.3083 10.9013 15.2174C10.9384 15.1265 10.9932 15.0439 11.0624 14.9742C11.1317 14.9045 11.214 14.8492 11.3046 14.8114C11.3953 14.7736 11.4925 14.754 11.5907 14.7539H11.6007C11.7996 14.7539 11.9904 14.8329 12.1311 14.9736C12.2717 15.1142 12.3507 15.305 12.3507 15.5039C12.3507 15.7028 12.2717 15.8936 12.1311 16.0342C11.9904 16.1749 11.7996 16.2539 11.6007 16.2539Z" fill="#000000" />
<path d="M11.6 9.25391H10.457C10.2581 9.25391 10.0673 9.17489 9.9267 9.03424C9.78604 8.89359 9.70703 8.70282 9.70703 8.50391C9.70703 8.30499 9.78604 8.11422 9.9267 7.97357C10.0673 7.83292 10.2581 7.75391 10.457 7.75391H11.6C11.7989 7.75391 11.9897 7.83292 12.1304 7.97357C12.271 8.11422 12.35 8.30499 12.35 8.50391C12.35 8.70282 12.271 8.89359 12.1304 9.03424C11.9897 9.17489 11.7989 9.25391 11.6 9.25391Z" fill="#000000" />
<path d="M9.55222 16.2539H8.4082C8.20929 16.2539 8.01854 16.1749 7.87788 16.0342C7.73723 15.8936 7.6582 15.7028 7.6582 15.5039C7.6582 15.305 7.73723 15.1142 7.87788 14.9736C8.01854 14.8329 8.20929 14.7539 8.4082 14.7539H9.55222C9.75113 14.7539 9.94188 14.8329 10.0825 14.9736C10.2232 15.1142 10.3022 15.305 10.3022 15.5039C10.3022 15.7028 10.2232 15.8936 10.0825 16.0342C9.94188 16.1749 9.75113 16.2539 9.55222 16.2539Z" fill="#000000" />
</svg>