<svg width="24px"  height="24px"  viewBox="0 0 25 24" fill="none" xmlns="http://www.w3.org/2000/svg">
<path fill-rule="evenodd" clip-rule="evenodd" d="M7.20275 6.18359C6.67656 6.18359 6.25 6.61015 6.25 7.13634V7.17459C6.25 7.94384 5.6264 8.56744 4.85714 8.56744C4.38376 8.56744 4 8.9512 4 9.42458V14.578C4 15.0514 4.38376 15.4351 4.85714 15.4351C5.6264 15.4351 6.25 16.0587 6.25 16.828V16.8662C6.25 17.3924 6.67656 17.819 7.20275 17.819H17.2973C17.8234 17.819 18.25 17.3924 18.25 16.8662V16.828C18.25 16.0587 18.8736 15.4351 19.6429 15.4351C20.1162 15.4351 20.5 15.0514 20.5 14.578V9.42459C20.5 8.9512 20.1162 8.56744 19.6429 8.56744C18.8736 8.56744 18.25 7.94384 18.25 7.17459V7.13634C18.25 6.61015 17.8234 6.18359 17.2973 6.18359H7.20275ZM4.75089 7.0698C4.78615 5.74595 5.87039 4.68359 7.20275 4.68359H17.2973C18.6296 4.68359 19.7139 5.74594 19.7491 7.0698C21.0016 7.12536 22 8.15838 22 9.42459V14.578C22 15.8442 21.0016 16.8772 19.7491 16.9328C19.7138 18.2566 18.6296 19.319 17.2973 19.319H7.20275C5.87039 19.319 4.78615 18.2566 4.75089 16.9328C3.49839 16.8772 2.5 15.8442 2.5 14.578V9.42458C2.5 8.15838 3.49839 7.12536 4.75089 7.0698Z" fill="#000000" />
<path fill-rule="evenodd" clip-rule="evenodd" d="M6.69336 13.918C6.69336 13.5038 7.02915 13.168 7.44336 13.168L11.8179 13.168C12.2321 13.168 12.5679 13.5038 12.5679 13.918C12.5679 14.3322 12.2321 14.668 11.8179 14.668L7.44336 14.668C7.02915 14.668 6.69336 14.3322 6.69336 13.918Z" fill="#000000" />
<path fill-rule="evenodd" clip-rule="evenodd" d="M8.88086 10.082C8.88086 9.66782 9.21665 9.33203 9.63086 9.33203L11.8181 9.33203C12.2323 9.33203 12.5681 9.66782 12.5681 10.082C12.5681 10.4962 12.2323 10.832 11.8181 10.832L9.63086 10.832C9.21665 10.832 8.88086 10.4962 8.88086 10.082Z" fill="#000000" />
<path fill-rule="evenodd" clip-rule="evenodd" d="M15.3672 9.78906C15.7814 9.78906 16.1172 10.1248 16.1172 10.5391L16.1172 13.4928C16.1172 13.907 15.7814 14.2428 15.3672 14.2428C14.953 14.2428 14.6172 13.907 14.6172 13.4928L14.6172 10.5391C14.6172 10.1248 14.953 9.78906 15.3672 9.78906Z" fill="#000000" />
<path fill-rule="evenodd" clip-rule="evenodd" d="M15.3672 4.68359C15.7814 4.68359 16.1172 5.01938 16.1172 5.43359L16.1172 7.93337C16.1172 8.34758 15.7814 8.68337 15.3672 8.68337C14.953 8.68337 14.6172 8.34759 14.6172 7.93337L14.6172 5.43359C14.6172 5.01938 14.953 4.68359 15.3672 4.68359Z" fill="#000000" />
<path fill-rule="evenodd" clip-rule="evenodd" d="M15.3672 15.3203C15.7814 15.3203 16.1172 15.6561 16.1172 16.0703L16.1172 18.5701C16.1172 18.9843 15.7814 19.3201 15.3672 19.3201C14.953 19.3201 14.6172 18.9843 14.6172 18.5701L14.6172 16.0703C14.6172 15.6561 14.953 15.3203 15.3672 15.3203Z" fill="#000000" />
</svg>