<svg width="24px"  height="24px"  viewBox="0 0 25 24" fill="none" xmlns="http://www.w3.org/2000/svg">
<path d="M15.8545 20.0411C15.6115 20.0553 15.3677 20.0398 15.1285 19.9951C14.891 19.957 14.6714 19.8454 14.5005 19.6761C14.2052 19.3602 13.945 19.0132 13.7245 18.6411L13.6595 18.5471C13.5541 18.3909 13.4131 18.262 13.2481 18.1711C13.0831 18.0802 12.8988 18.0298 12.7105 18.0241C12.5218 18.0185 12.3344 18.0575 12.1636 18.138C11.9928 18.2184 11.8434 18.338 11.7275 18.4871C11.419 18.9628 11.0491 19.3959 10.6275 19.7751C10.5215 19.8546 10.4024 19.9148 10.2755 19.9531C9.973 20.0344 9.65892 20.0642 9.34651 20.0411C6.85351 20.0411 5.60252 20.0411 4.55652 19.4001C3.97063 19.0407 3.47792 18.548 3.11852 17.9621C2.47852 16.9161 2.47852 15.6621 2.47852 13.1721V10.8301C2.47852 8.33711 2.47852 7.0861 3.11852 6.0401C3.47859 5.45467 3.97158 4.96235 4.55751 4.60309C5.60251 3.96209 6.85751 3.9621 9.34651 3.9621C9.6487 3.93995 9.95249 3.96593 10.2465 4.03909C10.3732 4.07507 10.4929 4.13221 10.6005 4.2081C11.0348 4.59078 11.4138 5.03201 11.7265 5.5191C11.8488 5.66366 12.0025 5.7783 12.176 5.85428C12.3494 5.93026 12.5379 5.96557 12.7271 5.95746C12.9163 5.94935 13.1011 5.89807 13.2674 5.80753C13.4337 5.71699 13.577 5.58958 13.6865 5.43509L13.7425 5.34808C13.9396 5.00107 14.1711 4.67477 14.4335 4.37409C14.6068 4.18819 14.8348 4.06245 15.0845 4.01511C15.3342 3.96494 15.5893 3.94712 15.8435 3.9621C17.0009 3.85378 18.1683 3.96471 19.2845 4.28909C20.3573 4.73391 21.2097 5.5863 21.6545 6.65909C21.9781 7.77514 22.0887 8.94213 21.9805 10.0991V13.9141C22.0876 15.0646 21.978 16.225 21.6575 17.3351C21.4374 17.8703 21.1134 18.3566 20.7042 18.7658C20.295 19.175 19.8087 19.499 19.2735 19.7191C18.1639 20.0386 17.0043 20.1478 15.8545 20.0411ZM15.3845 18.5141L15.3105 19.2681L15.4885 18.5561C15.4551 18.5392 15.4203 18.5251 15.3845 18.5141ZM12.6725 16.5241C13.1094 16.529 13.5388 16.6382 13.9249 16.8426C14.3111 17.0469 14.6428 17.3406 14.8925 17.6991L14.9565 17.7921C15.2385 18.2021 15.4025 18.4461 15.4865 18.5491V18.5401C15.5375 18.5451 15.6535 18.5401 15.8485 18.5401C16.8047 18.6242 17.7681 18.553 18.7015 18.3291C19.0522 18.1849 19.3708 17.9726 19.6389 17.7045C19.907 17.4364 20.1193 17.1178 20.2635 16.7671C20.4873 15.8334 20.5586 14.8696 20.4745 13.9131V10.1011C20.5596 9.13955 20.4876 8.17054 20.2615 7.23209C20.1189 6.8828 19.908 6.56551 19.6412 6.29883C19.3743 6.03215 19.0569 5.82146 18.7075 5.67911C17.769 5.45107 16.7995 5.37845 15.8375 5.46411C15.6585 5.46411 15.5465 5.46411 15.4695 5.46411C15.3635 5.59511 15.2215 5.81609 14.9915 6.16409L14.9345 6.2511C14.6988 6.61155 14.3804 6.91053 14.0058 7.12317C13.6313 7.33581 13.2114 7.45596 12.7811 7.47366C12.3507 7.49137 11.9224 7.40611 11.5317 7.22495C11.1409 7.04379 10.7991 6.77197 10.5345 6.4321C10.1955 5.9941 9.89751 5.60911 9.77151 5.46811C9.62887 5.4557 9.4856 5.45201 9.34251 5.45709C7.13151 5.45709 6.02052 5.45711 5.33652 5.87711C4.95236 6.11243 4.62923 6.43518 4.39351 6.81909C3.97451 7.50309 3.97452 8.6131 3.97452 10.8251V13.1671C3.97452 15.3791 3.97451 16.4891 4.39351 17.1741C4.62916 17.5577 4.95188 17.8804 5.33551 18.1161C6.02051 18.5361 7.13551 18.5361 9.34251 18.5361C9.54251 18.5361 9.67152 18.5411 9.76352 18.5311C9.88752 18.3991 10.1885 18.0101 10.5335 17.5651C10.7856 17.2383 11.1098 16.9743 11.4809 16.7937C11.852 16.6131 12.2598 16.5209 12.6725 16.5241Z" fill="#000000" />
<path fill-rule="evenodd" clip-rule="evenodd" d="M12.666 14.4531C13.0802 14.4531 13.416 14.7889 13.416 15.2031V15.2131C13.416 15.6273 13.0802 15.9631 12.666 15.9631C12.2518 15.9631 11.916 15.6273 11.916 15.2131V15.2031C11.916 14.7889 12.2518 14.4531 12.666 14.4531Z" fill="#000000" />
<path fill-rule="evenodd" clip-rule="evenodd" d="M12.666 11.2461C13.0802 11.2461 13.416 11.5819 13.416 11.9961V12.0061C13.416 12.4203 13.0802 12.7561 12.666 12.7561C12.2518 12.7561 11.916 12.4203 11.916 12.0061V11.9961C11.916 11.5819 12.2518 11.2461 12.666 11.2461Z" fill="#000000" />
<path fill-rule="evenodd" clip-rule="evenodd" d="M12.666 8.03516C13.0802 8.03516 13.416 8.37094 13.416 8.78516V8.79516C13.416 9.20937 13.0802 9.54516 12.666 9.54516C12.2518 9.54516 11.916 9.20937 11.916 8.79516V8.78516C11.916 8.37094 12.2518 8.03516 12.666 8.03516Z" fill="#000000" />
</svg>