<svg width="24px"  height="24px"  viewBox="0 0 25 24" fill="none" xmlns="http://www.w3.org/2000/svg">
<path d="M18.4614 17.6238C18.2404 17.6238 18.0033 17.6068 17.7323 17.5798C17.5344 17.5604 17.3522 17.463 17.226 17.3092C17.0998 17.1554 17.0399 16.9578 17.0594 16.7599C17.0789 16.5619 17.1762 16.3797 17.33 16.2535C17.4838 16.1273 17.6814 16.0674 17.8794 16.0868C18.1658 16.1291 18.4565 16.1345 18.7444 16.1029C19.121 16.0413 19.4758 15.8848 19.7753 15.6483C20.0748 15.4118 20.3091 15.1029 20.4563 14.7508C20.6154 14.2032 20.7121 13.6393 20.7444 13.0698L21.3743 7.71885C21.4763 7.15325 21.5132 6.57785 21.4844 6.00386C21.4229 5.62758 21.2667 5.27312 21.0306 4.97381C20.7944 4.6745 20.486 4.44017 20.1344 4.29286C19.5887 4.13387 19.0268 4.03758 18.4594 4.00585L18.1594 3.97085L18.3534 4.65885C18.4058 4.84903 18.3818 5.05218 18.2864 5.22485L17.5454 6.55885L17.9563 8.02786C18.0092 8.21789 17.9856 8.42108 17.8904 8.59385L17.1503 9.92785L17.5614 11.3979C17.5886 11.4987 17.5945 11.6041 17.5789 11.7074C17.5632 11.8107 17.5263 11.9096 17.4704 11.9979L16.8344 12.9979C16.7832 13.0845 16.7151 13.16 16.6341 13.2199C16.5532 13.2797 16.461 13.3226 16.3631 13.346C16.2652 13.3695 16.1636 13.3729 16.0643 13.3563C15.965 13.3396 15.8701 13.3031 15.7852 13.249C15.7004 13.1949 15.6272 13.1242 15.5702 13.0412C15.5132 12.9583 15.4736 12.8647 15.4535 12.766C15.4335 12.6674 15.4335 12.5657 15.4535 12.4671C15.4736 12.3684 15.5133 12.2748 15.5704 12.1919L16.0264 11.4779L15.6264 10.0348C15.5733 9.84471 15.5974 9.64135 15.6933 9.46885L16.4344 8.13384L16.0234 6.66386C15.97 6.47419 15.9937 6.27112 16.0894 6.09886L16.8294 4.76486L16.4184 3.29585C16.3854 3.17716 16.3821 3.05218 16.4088 2.93193C16.4355 2.81167 16.4914 2.69981 16.5715 2.60624C16.6517 2.51267 16.7536 2.44027 16.8683 2.39538C16.983 2.35049 17.107 2.33452 17.2294 2.34886L18.6294 2.51286C19.3443 2.54966 20.0509 2.68424 20.7294 2.91285C21.314 3.15846 21.8269 3.54839 22.2198 4.04612C22.6128 4.54386 22.8731 5.13314 22.9764 5.75884C23.0398 6.47209 23.0061 7.19064 22.8764 7.89485L22.2474 13.2349C22.2098 13.9497 22.0752 14.6562 21.8474 15.3348C21.6022 15.9202 21.2123 16.4336 20.7143 16.827C20.2163 17.2204 19.6266 17.4808 19.0004 17.5839C18.8222 17.6125 18.6418 17.6259 18.4614 17.6238Z" fill="#000000" />
<path d="M8.68193 21.6547C8.16888 21.6547 7.6613 21.5492 7.19078 21.3446C6.72027 21.1401 6.29687 20.8409 5.94692 20.4657C5.49902 19.9106 5.12894 19.2969 4.84691 18.6417C4.76035 18.4869 4.68709 18.325 4.62792 18.1577C4.56959 18.0032 4.54479 17.8381 4.55513 17.6733C4.56548 17.5085 4.61073 17.3477 4.68792 17.2017C4.82707 16.9386 4.98727 16.6871 5.16692 16.4497C5.26875 16.3049 5.33086 16.1358 5.347 15.9595C5.36315 15.7832 5.33277 15.6057 5.25893 15.4447L5.23894 15.4047C5.15514 15.2403 5.02742 15.1022 4.86998 15.0058C4.71255 14.9094 4.5315 14.8585 4.34691 14.8587C4.06202 14.869 3.77676 14.8563 3.49392 14.8207C3.32809 14.7987 3.16884 14.7418 3.02663 14.6537C2.88442 14.5656 2.7625 14.4484 2.66893 14.3097C2.56928 14.1731 2.48383 14.0267 2.41393 13.8727C2.04163 13.2528 1.75565 12.585 1.56392 11.8877C1.44087 11.264 1.47877 10.6192 1.67403 10.0142C1.86929 9.40916 2.21547 8.86385 2.67992 8.42972C3.23676 7.98111 3.85251 7.61101 4.50994 7.32973L9.16393 4.89873C9.29648 4.82884 9.447 4.80043 9.5959 4.81719C9.74481 4.83395 9.88522 4.89511 9.99892 4.99273L11.3919 6.18573C11.5414 6.31464 11.6344 6.49702 11.6509 6.69373L11.7769 8.21473L12.9359 9.20673C13.0861 9.33526 13.1795 9.51778 13.1959 9.71473L13.3209 11.2357L14.4789 12.2287C14.5534 12.292 14.6146 12.3694 14.6591 12.4564C14.7035 12.5434 14.7303 12.6383 14.7379 12.7357L14.8639 14.2567L16.0229 15.2487C16.0974 15.3122 16.1585 15.3898 16.203 15.477C16.2474 15.5641 16.2742 15.6592 16.2819 15.7567L16.4339 17.5847C16.446 17.7318 16.4146 17.8792 16.3435 18.0085C16.2723 18.1378 16.1646 18.2433 16.0339 18.3117L11.3679 20.7497C10.7549 21.117 10.0944 21.3986 9.40493 21.5867C9.16666 21.6325 8.92456 21.6553 8.68193 21.6547ZM6.08892 17.7667C6.11392 17.8237 6.14293 17.8797 6.18093 17.9537C6.41123 18.4796 6.69968 18.9781 7.04091 19.4397C7.30182 19.7195 7.62975 19.9281 7.9937 20.0458C8.35765 20.1636 8.74561 20.1866 9.12093 20.1127C9.66558 19.9387 10.1889 19.7039 10.6809 19.4127L14.8989 17.2127L14.8139 16.1877L13.6549 15.1957C13.5054 15.0668 13.4124 14.8844 13.3959 14.6877L13.2709 13.1667L12.1119 12.1737C11.9621 12.0455 11.8689 11.8633 11.8529 11.6667L11.7269 10.1457L10.5679 9.15372C10.4181 9.02509 10.325 8.84255 10.3089 8.64573L10.1829 7.12473L9.40993 6.46273L5.19893 8.66272C4.67109 8.89306 4.17093 9.18222 3.70793 9.52472C3.4291 9.78602 3.22124 10.1139 3.10387 10.4775C2.9865 10.8412 2.96344 11.2287 3.03691 11.6037C3.21119 12.1495 3.446 12.6741 3.73693 13.1677C3.77893 13.2497 3.80792 13.3067 3.83092 13.3487C3.94792 13.3567 4.11793 13.3577 4.36693 13.3607C4.82589 13.3657 5.27473 13.4962 5.66469 13.7383C6.05466 13.9804 6.37085 14.3246 6.57894 14.7337L6.61492 14.8057C6.79808 15.2008 6.87595 15.6365 6.8409 16.0705C6.80585 16.5046 6.65911 16.9222 6.41494 17.2827C6.25494 17.5197 6.14992 17.6737 6.08892 17.7667Z" fill="#000000" />
</svg>