<svg width="24px"  height="24px"  viewBox="0 0 25 24" fill="none" xmlns="http://www.w3.org/2000/svg">
<path d="M16.845 20.0455H7.65105C6.89109 20.0963 6.12777 20.0435 5.38205 19.8885C4.73376 19.703 4.14336 19.3555 3.66646 18.8788C3.18955 18.402 2.84184 17.8118 2.65605 17.1635C2.50202 16.4177 2.44953 15.6544 2.50005 14.8945C2.49336 14.7064 2.5024 14.5181 2.52705 14.3315C2.5448 14.1624 2.59861 13.9989 2.68486 13.8523C2.77111 13.7057 2.8878 13.5792 3.02705 13.4815C3.28941 13.3001 3.56483 13.1383 3.85106 12.9975C4.03517 12.8998 4.18905 12.7537 4.29607 12.5748C4.40309 12.3959 4.45916 12.1912 4.45824 11.9828C4.45731 11.7744 4.39941 11.5702 4.2908 11.3923C4.1822 11.2144 4.02703 11.0696 3.84206 10.9735C3.5682 10.8456 3.30472 10.6965 3.05405 10.5275C2.91059 10.4295 2.78974 10.302 2.69954 10.1535C2.60934 10.0051 2.5519 9.83902 2.53105 9.66654C2.50701 9.48961 2.49764 9.31101 2.50305 9.13254C2.45053 8.36239 2.50267 7.58868 2.65805 6.83254C2.84351 6.18436 3.19086 5.59404 3.66741 5.11715C4.14395 4.64026 4.73401 4.29247 5.38205 4.10654C6.12931 3.95052 6.89439 3.89736 7.65605 3.94854H16.843C17.6064 3.89738 18.3731 3.95053 19.1221 4.10654C19.7683 4.29274 20.3567 4.63985 20.8322 5.11538C21.3077 5.59092 21.6548 6.17932 21.841 6.82554C21.9971 7.57449 22.0502 8.34122 21.9991 9.10454C22.008 9.2947 21.9983 9.48527 21.97 9.67354C21.9493 9.84452 21.8924 10.0091 21.8031 10.1564C21.7138 10.3036 21.5941 10.4302 21.4521 10.5275C21.2115 10.6915 20.9576 10.835 20.6931 10.9565C20.497 11.0506 20.3316 11.1984 20.216 11.3826C20.1004 11.5668 20.0394 11.7801 20.0401 11.9975C20.0382 12.2084 20.0951 12.4157 20.2042 12.5961C20.3133 12.7766 20.4705 12.9232 20.6581 13.0195C20.935 13.1473 21.2009 13.2978 21.453 13.4695C21.5958 13.5673 21.7161 13.6944 21.8058 13.8424C21.8954 13.9903 21.9525 14.1557 21.9731 14.3275C21.9973 14.5145 22.0063 14.7031 22 14.8915C22.0521 15.6545 21.9989 16.421 21.8421 17.1695C21.6563 17.8161 21.3094 18.4049 20.8338 18.8807C20.3582 19.3564 19.7695 19.7036 19.123 19.8895C18.3743 20.0449 17.6079 20.0974 16.845 20.0455ZM4.00705 14.6295C4.00005 14.7105 4.00105 14.7875 4.00105 14.8945C3.96264 15.514 3.9962 16.1358 4.10106 16.7475C4.21669 17.152 4.43345 17.5203 4.73088 17.8177C5.02832 18.1152 5.39662 18.3319 5.80106 18.4475C6.41244 18.5524 7.03392 18.586 7.65305 18.5475H16.8461C17.4678 18.5867 18.0921 18.5532 18.7061 18.4475C19.1105 18.3319 19.4788 18.1152 19.7762 17.8177C20.0737 17.5203 20.2904 17.152 20.4061 16.7475C20.5105 16.1334 20.544 15.5093 20.5061 14.8875C20.5061 14.7725 20.5061 14.6935 20.5061 14.6355C20.3911 14.5645 20.222 14.4775 19.966 14.3425C19.5376 14.1181 19.1787 13.7807 18.9283 13.3669C18.678 12.9531 18.5456 12.4787 18.5456 11.995C18.5456 11.5114 18.678 11.0369 18.9283 10.6231C19.1787 10.2093 19.5376 9.87194 19.966 9.64754C20.242 9.50354 20.408 9.41754 20.5 9.36554C20.507 9.28654 20.5061 9.21054 20.5061 9.10454C20.5452 8.48243 20.5116 7.85787 20.4061 7.24354C20.2903 6.83915 20.0736 6.47088 19.7761 6.17346C19.4787 5.87604 19.1104 5.65925 18.7061 5.54354C18.0917 5.43795 17.4672 5.40439 16.845 5.44354H7.65805C7.0376 5.40508 6.41478 5.43864 5.80205 5.54354C5.39787 5.65968 5.02984 5.87661 4.73248 6.17397C4.43512 6.47133 4.21819 6.83936 4.10205 7.24354C3.99841 7.85674 3.96487 8.47975 4.00206 9.10054C4.00206 9.21954 4.00206 9.30054 4.00206 9.35054C4.11606 9.42054 4.28406 9.50854 4.54006 9.64354C4.96976 9.86808 5.32948 10.2064 5.57991 10.6216C5.83034 11.0367 5.96184 11.5127 5.96005 11.9975C5.95415 12.4697 5.82395 12.932 5.58257 13.3379C5.34118 13.7438 4.99713 14.0789 4.58505 14.3095C4.29205 14.4705 4.10605 14.5705 4.00705 14.6295Z" fill="#000000" />
<path d="M13.964 10.3594H10.54C10.3411 10.3594 10.1504 10.2804 10.0097 10.1397C9.86905 9.99905 9.79004 9.80829 9.79004 9.60938C9.79004 9.41046 9.86905 9.2197 10.0097 9.07905C10.1504 8.93839 10.3411 8.85938 10.54 8.85938H13.964C14.1629 8.85938 14.3537 8.93839 14.4944 9.07905C14.635 9.2197 14.714 9.41046 14.714 9.60938C14.714 9.80829 14.635 9.99905 14.4944 10.1397C14.3537 10.2804 14.1629 10.3594 13.964 10.3594Z" fill="#000000" />
<path d="M13.964 15.1328H10.54C10.3411 15.1328 10.1504 15.0538 10.0097 14.9131C9.86905 14.7725 9.79004 14.5817 9.79004 14.3828C9.79004 14.1839 9.86905 13.9931 10.0097 13.8525C10.1504 13.7118 10.3411 13.6328 10.54 13.6328H13.964C14.1629 13.6328 14.3537 13.7118 14.4944 13.8525C14.635 13.9931 14.714 14.1839 14.714 14.3828C14.714 14.5817 14.635 14.7725 14.4944 14.9131C14.3537 15.0538 14.1629 15.1328 13.964 15.1328Z" fill="#000000" />
</svg>