<svg width="24px"  height="24px"  viewBox="0 0 25 24" fill="none" xmlns="http://www.w3.org/2000/svg">
<path d="M15.8575 20.037C15.6154 20.0522 15.3724 20.0388 15.1335 19.997C14.8949 19.9589 14.6743 19.847 14.5025 19.677C14.1823 19.3312 13.9 18.952 13.6605 18.546C13.5547 18.3901 13.4134 18.2614 13.2483 18.1705C13.0832 18.0796 12.8989 18.029 12.7105 18.023C12.5215 18.0181 12.334 18.0576 12.1631 18.1383C11.9922 18.2191 11.8427 18.3389 11.7265 18.488C11.4156 18.962 11.046 19.3948 10.6265 19.776C10.5211 19.8556 10.4022 19.9156 10.2755 19.953C9.97299 20.0343 9.65892 20.0641 9.34651 20.041C6.85351 20.041 5.60251 20.041 4.55651 19.4C3.96987 19.0407 3.47701 18.5472 3.11852 17.96C2.47852 16.917 2.47852 15.665 2.47852 13.172V10.83C2.47852 8.33703 2.47852 7.08504 3.11852 6.04104C3.47799 5.45487 3.97109 4.9621 4.55751 4.60304C5.60251 3.96204 6.85751 3.96203 9.34651 3.96203C9.6487 3.93981 9.95249 3.96581 10.2465 4.03904C10.3743 4.0743 10.4948 4.13185 10.6025 4.20904C11.0369 4.59131 11.4156 5.0326 11.7275 5.52003C11.8493 5.66523 12.0029 5.78047 12.1764 5.85684C12.3499 5.9332 12.5386 5.96866 12.728 5.96044C12.9173 5.95223 13.1023 5.90056 13.2685 5.80946C13.4347 5.71835 13.5777 5.59025 13.6865 5.43504C13.9001 5.0572 14.151 4.70175 14.4355 4.37403C14.6076 4.18819 14.8347 4.06238 15.0835 4.01504C15.3339 3.96516 15.5896 3.94734 15.8445 3.96203C17.0015 3.85394 18.1685 3.96454 19.2845 4.28803C20.3579 4.73286 21.2107 5.58568 21.6555 6.65904C21.979 7.7751 22.0896 8.94207 21.9815 10.099V13.914C22.0885 15.0642 21.979 16.2242 21.6585 17.334C21.4386 17.8693 21.1146 18.3557 20.7054 18.7649C20.2962 19.1741 19.8098 19.4981 19.2745 19.718C18.1655 20.037 17.0064 20.1452 15.8575 20.037ZM15.3895 18.511L15.3135 19.264L15.4885 18.551C15.4567 18.5349 15.4236 18.5215 15.3895 18.511ZM12.6755 16.52C13.1123 16.525 13.5415 16.6341 13.9276 16.8383C14.3138 17.0425 14.6456 17.3358 14.8955 17.694C15.2125 18.157 15.3955 18.429 15.4865 18.541V18.536C15.5415 18.536 15.6575 18.536 15.8525 18.536C16.8087 18.6201 17.7721 18.5489 18.7055 18.325C19.0561 18.1807 19.3746 17.9683 19.6427 17.7002C19.9108 17.4321 20.1231 17.1136 20.2675 16.763C20.4913 15.8293 20.5626 14.8655 20.4785 13.909V10.097C20.5639 9.1351 20.4916 8.16567 20.2645 7.22703C19.9731 6.5238 19.4145 5.96492 18.7115 5.67303C17.7727 5.44701 16.8034 5.37508 15.8415 5.46003C15.6635 5.46003 15.5525 5.46003 15.4735 5.46003C15.3585 5.60203 15.2005 5.85004 14.9395 6.25004C14.7039 6.61055 14.3855 6.90959 14.011 7.12232C13.6365 7.33505 13.2167 7.45532 12.7863 7.47312C12.356 7.49092 11.9276 7.40574 11.5368 7.22466C11.1461 7.04359 10.8041 6.77185 10.5395 6.43203C10.2145 6.01203 9.90551 5.61303 9.77651 5.46803C9.6339 5.45514 9.4906 5.45148 9.34751 5.45704C7.13651 5.45704 6.02651 5.45704 5.34151 5.87704C4.9574 6.11198 4.63427 6.43442 4.39851 6.81803C3.97951 7.50303 3.97952 8.61804 3.97952 10.825V13.167C3.97952 15.378 3.97951 16.489 4.39851 17.173C4.63383 17.5572 4.9566 17.8803 5.34052 18.116C6.02652 18.536 7.14051 18.536 9.34751 18.536C9.54751 18.536 9.67551 18.536 9.76751 18.536C9.89251 18.403 10.1905 18.019 10.5305 17.579C10.7819 17.2487 11.1064 16.9812 11.4786 16.7974C11.8507 16.6137 12.2605 16.5187 12.6755 16.52Z" fill="#000000" />
</svg>