<svg width="24px"  height="24px"  viewBox="0 0 25 24" fill="none" xmlns="http://www.w3.org/2000/svg">
<path d="M9.26219 9.2731C9.43992 9.64298 9.28074 10.0929 8.90672 10.2731C8.27049 10.5729 7.79685 11.2231 7.70115 11.913C7.64451 12.3229 7.26609 12.6129 6.85594 12.5531C6.44529 12.5031 6.15867 12.123 6.21482 11.713C6.37986 10.5128 7.17088 9.43301 8.26267 8.91299C8.6367 8.73306 9.08445 8.89298 9.26219 9.2731Z" fill="#000000" />
<path fill-rule="evenodd" clip-rule="evenodd" d="M11.4458 6.44351C11.3667 5.90225 11.1977 5.4025 10.9272 4.98306C10.5483 4.40299 9.93601 3.93301 8.93992 3.74307C8.53318 3.66299 8.26707 3.26285 8.34617 2.86295C8.42478 2.45303 8.81883 2.18301 9.22508 2.26309C10.602 2.53287 11.5732 3.23306 12.1841 4.16299C12.6377 4.86148 12.8725 5.65811 12.9595 6.45206C13.4619 6.4086 13.9643 6.319 14.4673 6.18301C15.1391 6.00308 16.7549 5.74307 18.2949 6.43301C19.9219 7.16299 21.2529 8.84293 21.4541 12.1029L21.4555 12.143C21.48 15.203 20.5049 17.5128 19.3813 19.0929C19.0459 19.5607 18.6968 19.9638 18.3554 20.3019C18.1274 20.5277 17.9033 20.7248 17.6894 20.893C17.4228 21.1029 17.165 21.2731 16.9292 21.403C16.7138 21.5102 16.4653 21.6171 16.2207 21.6505C15.2471 21.8644 14.3613 21.6982 13.6694 21.5131C13.3388 21.423 12.9721 21.2929 12.7471 21.2331C12.4746 21.153 12.3291 21.123 12.2495 21.123C12.1621 21.123 12.0122 21.153 11.7431 21.2231C11.6382 21.2519 11.4975 21.2943 11.3437 21.341C11.1777 21.3913 10.9966 21.4462 10.8291 21.4931C10.1328 21.6713 9.24558 21.8395 8.26121 21.6391C8.02244 21.6049 7.77976 21.5085 7.56639 21.393C7.33006 21.2731 7.07225 21.1029 6.80564 20.893C6.27098 20.4731 5.67283 19.873 5.11375 19.0829C3.99119 17.5128 3.01853 15.203 3.04344 12.143L3.0449 12.1029C3.24607 8.84293 4.57762 7.16299 6.20457 6.43301C7.74461 5.74307 9.35984 6.00308 10.0317 6.18301C10.5039 6.31046 10.9746 6.39737 11.4458 6.44351ZM16.0244 20.1562C16.0263 20.1557 16.0288 20.1552 16.0307 20.1547C16.0327 20.1542 16.0346 20.1537 16.0366 20.153C16.0127 20.163 16.0727 20.153 16.2295 20.0729C16.3711 19.9928 16.5532 19.883 16.7627 19.713C17.0688 19.4721 17.4179 19.1457 17.77 18.7226C17.9004 18.5661 18.0312 18.3964 18.1606 18.213C19.1113 16.8874 19.9717 14.8864 19.9555 12.1803C19.7783 9.34976 18.6846 8.25235 17.6821 7.80313C16.5918 7.3129 15.373 7.49307 14.8574 7.63297C13.1211 8.09293 11.3774 8.09293 9.64109 7.63297C9.12596 7.49307 7.90769 7.3129 6.81736 7.80313C5.8159 8.25186 4.72264 9.34732 4.54344 12.1718C4.52537 14.8822 5.38426 16.8861 6.33445 18.213C6.58494 18.5639 6.84129 18.8678 7.08885 19.1254C7.31443 19.36 7.53269 19.5558 7.7324 19.713C7.94236 19.873 8.12498 19.9928 8.26805 20.0729C8.37254 20.1261 8.43553 20.1483 8.46092 20.1571C8.4741 20.1618 8.47703 20.163 8.47117 20.163H8.53025C9.19432 20.3029 9.82908 20.203 10.4443 20.0431C10.7822 19.953 11.0141 19.873 11.3369 19.7831C11.6089 19.703 11.9355 19.623 12.2495 19.623C12.5703 19.623 12.9038 19.713 13.1758 19.7931C13.3198 19.8336 13.4482 19.8742 13.5762 19.9147C13.7319 19.964 13.8872 20.0136 14.0688 20.0631C14.6831 20.2331 15.3032 20.3329 15.9409 20.173C15.957 20.1679 15.9731 20.1654 15.9892 20.1628C16.001 20.161 16.0127 20.1591 16.0244 20.1562Z" fill="#000000" />
</svg>