<svg width="24px"  height="24px"  viewBox="0 0 25 24" fill="none" xmlns="http://www.w3.org/2000/svg">
<path fill-rule="evenodd" clip-rule="evenodd" d="M12.8252 7.32263C13.2323 7.28997 13.7464 7.20551 14.2625 7.00158C14.8603 6.7654 15.4846 6.35852 15.9251 5.66842C16.3675 4.97539 16.5761 4.07256 16.4759 2.93428C16.4419 2.54817 16.1193 2.25157 15.7317 2.25006C14.5644 2.24552 13.656 2.48925 12.9622 2.91053C12.2646 3.33411 11.8348 3.90638 11.5783 4.47093C11.5012 4.64062 11.4399 4.80929 11.3911 4.97303C10.7867 4.42218 10.0171 4.00719 9.09115 3.82765C8.68451 3.7488 8.29094 4.01453 8.2121 4.42117C8.13325 4.82781 8.39898 5.22137 8.80562 5.30022C10.2147 5.57344 11.1152 6.6572 11.4011 7.7962C11.0251 7.75263 10.6489 7.68012 10.2722 7.57867C9.65873 7.41295 8.18442 7.1818 6.77516 7.81243C5.27897 8.48196 4.06788 10.0223 3.8856 12.9744C3.88478 12.9878 3.88431 13.0012 3.8842 13.0146C3.86192 15.7882 4.74323 17.8881 5.76239 19.3159C6.26989 20.0269 6.81339 20.5739 7.30032 20.9567C7.54344 21.1478 7.77941 21.3034 7.99678 21.4185C8.19013 21.5209 8.41465 21.6161 8.63987 21.65C9.54398 21.828 10.3574 21.6775 10.9899 21.5096C11.1723 21.4612 11.3771 21.4001 11.5514 21.3482C11.6529 21.3179 11.744 21.2908 11.8143 21.271C12.0564 21.2028 12.1829 21.1815 12.2504 21.1815C12.3103 21.1815 12.432 21.2026 12.6774 21.2757C12.7465 21.2963 12.8324 21.3233 12.9277 21.3533C13.1054 21.4092 13.3155 21.4753 13.5092 21.5288C14.1442 21.7042 14.967 21.859 15.8734 21.6481C16.0943 21.6134 16.3127 21.5205 16.4991 21.4222C16.7164 21.3076 16.9524 21.1522 17.1954 20.9613C17.6821 20.579 18.226 20.0315 18.734 19.32C19.7544 17.8912 20.6384 15.7886 20.6156 13.0144C20.6155 13.0011 20.615 12.9877 20.6142 12.9744C20.4319 10.0224 19.2211 8.482 17.725 7.81244C16.3156 7.18166 14.841 7.41307 14.2275 7.57871C13.7959 7.69491 13.3651 7.77313 12.9345 7.81339C12.9068 7.64961 12.8703 7.48566 12.8252 7.32263ZM12.7384 5.82463C12.7694 5.59679 12.8307 5.34084 12.944 5.09137C13.0945 4.76021 13.337 4.4378 13.7407 4.19269C14.0322 4.01568 14.4335 3.86347 14.9883 3.79255C14.9487 4.27278 14.8182 4.61467 14.6608 4.86133C14.4314 5.22065 14.0958 5.45463 13.7113 5.60653C13.3829 5.73628 13.0369 5.79833 12.7384 5.82463ZM5.38401 13.0468C5.36885 15.4701 6.13623 17.2578 6.98327 18.4444C7.41005 19.0423 7.8553 19.485 8.2273 19.7774C8.41364 19.9239 8.57467 20.0272 8.69882 20.0929C8.81156 20.1526 8.86448 20.1657 8.86428 20.1666C8.86424 20.1668 8.86147 20.1664 8.85607 20.1657C8.87567 20.1681 8.89516 20.1713 8.9145 20.1752C9.4963 20.2933 10.0553 20.2057 10.6052 20.0598C10.7819 20.0129 10.9236 19.9703 11.0691 19.9265C11.1751 19.8947 11.2831 19.8622 11.408 19.827C11.6535 19.758 11.9564 19.6815 12.2504 19.6815C12.5514 19.6815 12.861 19.7653 13.1057 19.8382C13.2231 19.8731 13.3276 19.9062 13.43 19.9386C13.5824 19.9869 13.7302 20.0336 13.9087 20.0829C14.4568 20.2344 15.0008 20.317 15.557 20.1815C15.5852 20.1747 15.6137 20.1694 15.6424 20.1659C15.6414 20.166 15.6408 20.166 15.6408 20.1659C15.6406 20.165 15.6912 20.1525 15.7994 20.0954C15.9223 20.0306 16.0826 19.928 16.2687 19.7818C16.6402 19.49 17.0858 19.047 17.5133 18.4483C18.3619 17.26 19.1314 15.4697 19.1158 13.0468C18.9556 10.5302 17.983 9.57126 17.1123 9.18158C16.1526 8.7521 15.0752 8.90354 14.6185 9.02686L14.618 9.02698C13.0415 9.45154 11.4583 9.45154 9.8818 9.02698L9.88117 9.02681C9.42512 8.90357 8.34768 8.75208 7.38784 9.18159C6.51697 9.5713 5.54422 10.5303 5.38401 13.0468ZM9.62693 10.4019C9.80465 10.7761 9.64541 11.2234 9.27126 11.4012C8.72129 11.6624 8.31037 12.2236 8.22718 12.8266C8.17056 13.2369 7.79203 13.5237 7.38171 13.467C6.97138 13.4104 6.68464 13.0319 6.74125 12.6216C6.89351 11.518 7.62093 10.5244 8.62768 10.0462C9.00183 9.86852 9.44921 10.0278 9.62693 10.4019Z" fill="#000000" />
</svg>