<svg width="24px"  height="24px"  viewBox="0 0 25 24" fill="none" xmlns="http://www.w3.org/2000/svg">
<path fill-rule="evenodd" clip-rule="evenodd" d="M6.68568 6.51792C7.43501 4.04973 9.72325 2.25 12.4392 2.25C15.1657 2.25 17.4635 4.06384 18.2032 6.548C20.1133 6.7921 21.5899 8.42355 21.5899 10.3994C21.5899 11.5649 21.0771 12.6099 20.265 13.3216L18.9552 19.0705C18.9552 19.0705 18.9552 19.0705 18.9552 19.0705C18.5982 20.638 17.2038 21.7497 15.596 21.7497H13.8879C13.8789 21.7499 13.8698 21.7499 13.8607 21.7497H10.7064C10.6893 21.7503 10.6723 21.7503 10.6554 21.7497H8.90293C7.29513 21.7497 5.90074 20.638 5.54368 19.0705C5.54368 19.0705 5.54368 19.0705 5.54367 19.0705L4.23392 13.3214C3.42189 12.6097 2.90918 11.5648 2.90918 10.3994C2.90918 8.29104 4.59037 6.57482 6.68568 6.51792ZM5.48428 12.3926C5.4087 12.2981 5.31145 12.2236 5.20188 12.175C4.71527 11.7387 4.40918 11.1051 4.40918 10.3994C4.40918 9.08385 5.47626 8.01647 6.79311 8.01647C6.88684 8.01647 6.98347 8.03044 7.15112 8.05574C7.55161 8.11619 7.92776 7.84774 8.00077 7.44934C8.38644 5.34486 10.2259 3.75 12.4392 3.75C14.6412 3.75 16.4748 5.32847 16.8729 7.41665C16.9419 7.77851 17.2634 8.0367 17.6316 8.02587C17.6693 8.02477 17.701 8.0216 17.7231 8.01894C17.7291 8.01822 17.7351 8.01746 17.7406 8.01672C19.0415 8.03526 20.0899 9.09542 20.0899 10.3994C20.0899 11.105 19.7838 11.7386 19.2973 12.1749C19.1875 12.2235 19.0902 12.2981 19.0145 12.3927C18.6389 12.6397 18.1892 12.7834 17.7059 12.7834C17.0369 12.7834 16.4334 12.5056 15.9981 12.0561C15.7416 11.7913 15.3306 11.7522 15.0288 11.9638C14.293 12.4797 13.4031 12.7834 12.4392 12.7834C11.3856 12.7834 10.4187 12.4199 9.64868 11.8129C9.33045 11.562 8.8705 11.6093 8.60996 11.9197C8.16546 12.4492 7.5177 12.7834 6.79311 12.7834C6.3097 12.7834 5.85995 12.6396 5.48428 12.3926ZM5.97168 14.1964L7.00621 18.7373L7.00621 18.7373C7.20766 19.6217 7.99465 20.2497 8.90293 20.2497H9.78983L8.66533 13.7928C8.11377 14.1029 7.47726 14.2834 6.79311 14.2834C6.51128 14.2834 6.23647 14.2534 5.97168 14.1964ZM10.1977 13.849L11.3124 20.2497H13.2437L14.346 13.9729C13.7472 14.1739 13.1063 14.2834 12.4392 14.2834C11.6463 14.2834 10.8899 14.1285 10.1977 13.849ZM15.8936 13.8323C16.4337 14.1195 17.0502 14.2834 17.7059 14.2834C17.9877 14.2834 18.2625 14.2534 18.5272 14.1964L17.4927 18.7373L17.4927 18.7373C17.2913 19.6217 16.5043 20.2497 15.596 20.2497H14.7666L15.8936 13.8323ZM14.5222 5.51098C14.8981 5.68498 15.0618 6.13076 14.8878 6.50665L14.2203 7.94859C14.0463 8.32449 13.6006 8.48816 13.2247 8.31416C12.8488 8.14016 12.6851 7.69439 12.8591 7.31849L13.5266 5.87655C13.7006 5.50066 14.1463 5.33699 14.5222 5.51098ZM10.1736 6.01312C10.5554 5.85238 10.9951 6.03154 11.1559 6.4133L11.2026 6.52422C11.3633 6.90597 11.1842 7.34575 10.8024 7.50649C10.4207 7.66723 9.98088 7.48806 9.82014 7.10631L9.77343 6.99539C9.61269 6.61363 9.79186 6.17386 10.1736 6.01312ZM8.95373 8.93917C9.21419 9.26125 9.16423 9.73348 8.84215 9.99394L7.60648 10.9932C7.28439 11.2536 6.81216 11.2037 6.5517 10.8816C6.29125 10.5595 6.34121 10.0873 6.66329 9.82682L7.89896 8.82758C8.22104 8.56713 8.69328 8.61708 8.95373 8.93917ZM14.9418 9.30241C15.105 8.92166 15.5458 8.74523 15.9266 8.90833L17.387 9.53395C17.7678 9.69705 17.9442 10.1379 17.7811 10.5187C17.618 10.8994 17.1771 11.0759 16.7963 10.9128L15.3359 10.2871C14.9552 10.124 14.7787 9.68316 14.9418 9.30241ZM12.8222 10.0615C12.9936 10.4386 12.8269 10.8832 12.4498 11.0546L12.3642 11.0936C11.9871 11.265 11.5425 11.0982 11.3711 10.7211C11.1997 10.3441 11.3664 9.89942 11.7435 9.72801L11.8291 9.6891C12.2062 9.51769 12.6508 9.68443 12.8222 10.0615Z" fill="#000000" />
</svg>