<svg width="24px"  height="24px"  viewBox="0 0 25 24" fill="none" xmlns="http://www.w3.org/2000/svg">
<path fill-rule="evenodd" clip-rule="evenodd" d="M14.8471 4.21658C14.9102 3.8733 15.2648 3.6675 15.5938 3.78248L14.8471 4.21658ZM14.8471 4.21658L14.5513 5.83591H16.5055C17.6139 5.83591 18.5572 6.70966 18.5573 7.84372C18.5573 7.84379 18.5573 7.84366 18.5573 7.84372L18.5584 11.9969C18.5608 12.0316 18.5608 12.0664 18.5584 12.101L18.5602 18.7884C18.5602 20.4473 17.1758 21.7501 15.5228 21.7501H8.98074C7.32822 21.7501 5.94346 20.449 5.94335 18.7897C5.94335 18.7897 5.94335 18.7898 5.94335 18.7897L5.94156 12.0675C5.94129 12.056 5.94129 12.0445 5.94155 12.0331L5.94043 7.84412C5.94043 6.7113 6.88335 5.83591 7.99223 5.83591H13.0265L13.3716 3.947C13.6005 2.69693 14.8918 1.94717 16.0901 2.36697L18.0579 3.05794C18.4487 3.19517 18.6543 3.62324 18.5171 4.01406C18.3799 4.40488 17.9518 4.61046 17.561 4.47323L15.5938 3.78248C15.5937 3.78243 15.5939 3.78252 15.5938 3.78248M12.7524 7.33591H7.99223C7.66316 7.33591 7.4405 7.58722 7.44043 7.84372C7.44043 7.84377 7.44043 7.84368 7.44043 7.84372L7.44121 10.7551C8.91816 10.1621 10.6926 10.2539 12.0774 11.0306L12.7524 7.33591ZM11.784 12.6367L11.1328 16.2012C11.0584 16.6087 11.3283 16.9994 11.7358 17.0738C12.1433 17.1483 12.5339 16.8783 12.6084 16.4708L13.1679 13.408C14.4086 13.8565 15.8356 13.8354 17.0588 13.3448L17.0602 18.7886C17.0602 18.7885 17.0602 18.7886 17.0602 18.7886C17.0601 19.5717 16.3955 20.2501 15.5228 20.2501H8.98074C8.10757 20.2501 7.44335 19.5723 7.44335 18.7895L7.44165 12.4327C8.71503 11.6207 10.6083 11.6875 11.7797 12.6332C11.7811 12.6344 11.7826 12.6355 11.784 12.6367ZM17.0583 11.6676C16.0222 12.3274 14.5764 12.4059 13.4429 11.903L14.2773 7.33591H16.5055C16.835 7.33591 17.0573 7.58678 17.0573 7.84392L17.0583 11.6676ZM9.72011 13.4966C10.122 13.5971 10.3663 14.0043 10.2658 14.4061L10.2483 14.4762C10.1478 14.878 9.74064 15.1223 9.33879 15.0219C8.93695 14.9214 8.69263 14.5142 8.79309 14.1124L8.8106 14.0423C8.91106 13.6405 9.31826 13.3961 9.72011 13.4966ZM15.2594 16.3812C15.6613 16.4817 15.9056 16.8889 15.8051 17.2907L15.7876 17.3608C15.6872 17.7626 15.28 18.007 14.8781 17.9065C14.4763 17.806 14.2319 17.3988 14.3324 16.997L14.3499 16.9269C14.4504 16.5251 14.8576 16.2808 15.2594 16.3812ZM10.2446 17.5879C10.6464 17.6884 10.8908 18.0956 10.7903 18.4974L10.7728 18.5675C10.6723 18.9693 10.2651 19.2136 9.86327 19.1132C9.46142 19.0127 9.2171 18.6055 9.31756 18.2037L9.33508 18.1336C9.43554 17.7318 9.84274 17.4875 10.2446 17.5879Z" fill="#000000" />
</svg>