<svg width="24px"  height="24px"  viewBox="0 0 25 24" fill="none" xmlns="http://www.w3.org/2000/svg">
<path fill-rule="evenodd" clip-rule="evenodd" d="M6.0687 3.6132C6.18545 2.82985 6.85788 2.24976 7.65051 2.24976H16.8495C17.6421 2.24976 18.3146 2.82985 18.4313 3.6132L19.1093 8.17667C19.7755 12.165 16.9201 15.8194 12.9996 16.2371L13.0001 20.2498H14.4408C14.855 20.2498 15.1908 20.5855 15.1908 20.9998C15.1908 21.414 14.855 21.7498 14.4408 21.7498H12.2731C12.2655 21.75 12.2579 21.7501 12.2503 21.7501C12.2426 21.7501 12.2349 21.75 12.2273 21.7498H10.0598C9.64554 21.7498 9.30976 21.414 9.30976 20.9998C9.30976 20.5855 9.64554 20.2498 10.0598 20.2498H11.5001L11.4996 16.2371C7.57894 15.8195 4.72452 12.165 5.39067 8.17667L6.0687 3.6132ZM17.5448 7.85343L16.9477 3.83431C16.9404 3.78566 16.8989 3.74976 16.8495 3.74976H7.65051C7.60114 3.74976 7.55958 3.78564 7.55232 3.83428C7.55231 3.83429 7.55232 3.83427 7.55232 3.83428L6.87336 8.40398L6.87113 8.41807C6.85718 8.5011 6.84517 8.58394 6.83507 8.66656L7.14677 8.4759C8.88362 7.41564 11.0517 7.34402 12.8542 8.28835C14.2222 9.00517 15.8692 8.93184 17.1671 8.09613L17.5448 7.85343ZM6.89779 10.3866C7.3876 12.8518 9.5619 14.7768 12.2495 14.7768C15.2435 14.7768 17.601 12.388 17.7023 9.52485C15.9969 10.4929 13.908 10.534 12.158 9.61703C10.8227 8.91745 9.21637 8.97011 7.9293 9.7556C7.92917 9.75569 7.92944 9.75552 7.9293 9.7556L6.89779 10.3866Z" fill="#000000" />
</svg>