<svg width="24px"  height="24px"  viewBox="0 0 25 24" fill="none" xmlns="http://www.w3.org/2000/svg">
<path d="M10.7319 7.23062C11.0791 7.4606 11.1782 7.92056 10.9531 8.27066C10.3252 9.24063 9.85107 10.2807 9.55419 11.4005C9.44824 11.8007 9.0371 12.0307 8.6372 11.9306C8.23584 11.8207 7.99804 11.4106 8.104 11.0106C8.44482 9.73062 8.98584 8.55044 9.69482 7.45059C9.91992 7.1105 10.3852 7.0104 10.7319 7.23062Z" fill="#000000" />
<path fill-rule="evenodd" clip-rule="evenodd" d="M20.4639 13.8205C20.499 17.8305 17.1089 21.4406 12.8042 21.7306C8.5039 22.0204 4.64013 18.8905 4.10693 14.6305C3.84619 12.5605 4.32617 10.6305 5.05712 8.82046C5.84814 6.87051 6.94482 5.03067 8.69628 3.63052C9.81787 2.73062 11.0278 2.24063 12.2832 2.25064C13.5381 2.26065 14.7432 2.76065 15.855 3.68057C17.8408 5.3107 18.9902 7.4606 19.7759 9.74063C20.1929 10.9506 20.437 12.1906 20.4639 13.8107V13.8205ZM14.9038 4.84048V4.83047C13.9932 4.09048 13.1108 3.76065 12.2739 3.75064C11.437 3.74063 10.5498 4.07071 9.63183 4.80069C8.15283 5.98062 7.1831 7.57046 6.44726 9.39053C5.76709 11.0605 5.3789 12.7304 5.59521 14.4506C6.02685 17.9005 9.18017 20.4706 12.7031 20.2306C16.2583 19.9909 18.9863 17.0067 18.9639 13.8405C18.9399 12.3705 18.7231 11.2804 18.3579 10.2306C17.6211 8.09048 16.5952 6.22061 14.9038 4.84048Z" fill="#000000" />
</svg>