<svg width="24px"  height="24px"  viewBox="0 0 25 24" fill="none" xmlns="http://www.w3.org/2000/svg">
<path fill-rule="evenodd" clip-rule="evenodd" d="M7.07718 4.75C6.11059 4.75 5.32617 5.53388 5.32617 6.501V11.4748C5.32617 13.8649 7.2645 15.8027 9.65493 15.8027H11.8383C14.2286 15.8027 16.1662 13.865 16.1662 11.4748V6.501C16.1662 5.53371 15.3825 4.75 14.4152 4.75H7.07718ZM3.82617 6.501C3.82617 4.70511 5.28251 3.25 7.07718 3.25H14.4152C15.8659 3.25 17.0944 4.19974 17.5129 5.51147H18.3182C19.6191 5.51147 20.6738 6.56624 20.6738 7.86705V8.58162C20.6738 9.88297 19.6185 10.9363 18.3182 10.9363H17.6662V11.4748C17.6662 14.6935 15.057 17.3027 11.8383 17.3027H9.65493C6.43641 17.3027 3.82617 14.6936 3.82617 11.4748V6.501ZM17.6662 9.43632H18.3182C18.7912 9.43632 19.1738 9.05347 19.1738 8.58162V7.86705C19.1738 7.39467 18.7906 7.01147 18.3182 7.01147H17.6662V9.43632ZM7.69829 6.7486C8.1125 6.7486 8.44829 7.08439 8.44829 7.4986V10.2157C8.44829 10.63 8.1125 10.9657 7.69829 10.9657C7.28408 10.9657 6.94829 10.63 6.94829 10.2157V7.4986C6.94829 7.08439 7.28408 6.7486 7.69829 6.7486ZM4.48351 20C4.48351 19.5858 4.81929 19.25 5.23351 19.25H17.6221C18.0363 19.25 18.3721 19.5858 18.3721 20C18.3721 20.4142 18.0363 20.75 17.6221 20.75H5.23351C4.81929 20.75 4.48351 20.4142 4.48351 20Z" fill="#000000" />
</svg>