<svg width="24px"  height="24px"  viewBox="0 0 25 24" fill="none" xmlns="http://www.w3.org/2000/svg">
<path fill-rule="evenodd" clip-rule="evenodd" d="M8.9797 3.25C9.39392 3.25 9.7297 3.58579 9.7297 4V5.54897C9.7297 5.96319 9.39392 6.29897 8.9797 6.29897C8.56549 6.29897 8.2297 5.96319 8.2297 5.54897V4C8.2297 3.58579 8.56549 3.25 8.9797 3.25ZM12.25 3.25C12.6642 3.25 13 3.58579 13 4V5.54897C13 5.96319 12.6642 6.29897 12.25 6.29897C11.8358 6.29897 11.5 5.96319 11.5 5.54897V4C11.5 3.58579 11.8358 3.25 12.25 3.25ZM15.5202 3.25C15.9345 3.25 16.2702 3.58579 16.2702 4V5.54897C16.2702 5.96319 15.9345 6.29897 15.5202 6.29897C15.106 6.29897 14.7702 5.96319 14.7702 5.54897V4C14.7702 3.58579 15.106 3.25 15.5202 3.25ZM7.04211 9.17399C6.30432 9.17399 5.70605 9.77225 5.70605 10.51V12.7051C5.70605 16.3194 8.636 19.2493 12.2503 19.2493C15.8647 19.2493 18.7946 16.3194 18.7946 12.7051V10.51C18.7946 9.77225 18.1963 9.17399 17.4585 9.17399H7.04211ZM4.20605 10.51C4.20605 8.94383 5.4759 7.67399 7.04211 7.67399H17.4585C19.0248 7.67399 20.2946 8.94383 20.2946 10.51V12.7051C20.2946 15.403 18.9665 17.7907 16.9284 19.25H19.3648C19.779 19.25 20.1148 19.5858 20.1148 20C20.1148 20.4142 19.779 20.75 19.3648 20.75H5.13426C4.72005 20.75 4.38426 20.4142 4.38426 20C4.38426 19.5858 4.72005 19.25 5.13426 19.25H7.57226C5.53416 17.7907 4.20605 15.403 4.20605 12.7051V10.51Z" fill="#000000" />
</svg>