<svg width="24px"  height="24px"  viewBox="0 0 25 24" fill="none" xmlns="http://www.w3.org/2000/svg">
<path fill-rule="evenodd" clip-rule="evenodd" d="M10.2669 2.46967C10.5597 2.17678 11.0346 2.17678 11.3275 2.46967C12.087 3.22912 12.0879 4.46102 11.3275 5.22046C11.1531 5.39492 11.1539 5.67663 11.327 5.84938C11.6202 6.14197 11.6207 6.61684 11.3281 6.91004C11.0355 7.20324 10.5606 7.20373 10.2674 6.91114C9.50642 6.15174 9.50722 4.91944 10.2669 4.1598L10.2674 4.15925C10.4405 3.9865 10.4413 3.70479 10.2669 3.53033C9.97396 3.23744 9.97396 2.76256 10.2669 2.46967ZM7.56498 4.1601C7.85787 4.45299 7.85787 4.92786 7.56498 5.22076C7.39052 5.39522 7.39131 5.67692 7.56443 5.84967C7.85763 6.14226 7.85812 6.61714 7.56553 6.91033C7.27294 7.20353 6.79807 7.20403 6.50487 6.91144C5.74389 6.15204 5.74468 4.91973 6.50432 4.1601C6.79721 3.8672 7.27209 3.8672 7.56498 4.1601ZM14.029 4.1601C14.3219 3.8672 14.7968 3.8672 15.0897 4.1601C15.3826 4.45299 15.3826 4.92786 15.0897 5.22076C14.9152 5.39522 14.916 5.67692 15.0892 5.84967C15.3824 6.14226 15.3828 6.61714 15.0903 6.91033C14.7977 7.20353 14.3228 7.20403 14.0296 6.91144C13.2686 6.15204 13.2694 4.91973 14.029 4.1601ZM6.64931 10.068C5.568 10.068 4.69141 10.9446 4.69141 12.0259V15.5015C4.69141 18.1241 6.81735 20.25 9.43992 20.25H11.8044C14.4269 20.25 16.5529 18.1241 16.5529 15.5015V12.0259C16.5529 10.9446 15.6763 10.068 14.595 10.068H6.64931ZM3.19141 12.0259C3.19141 10.1161 4.73957 8.56796 6.64931 8.56796H14.595C16.154 8.56796 17.472 9.59969 17.9036 11.0176H17.9562C19.8075 11.0176 21.309 12.5191 21.309 14.3704C21.309 16.2218 19.8075 17.7232 17.9562 17.7232H17.6464C16.7506 20.0773 14.4728 21.75 11.8044 21.75H9.43992C5.98892 21.75 3.19141 18.9525 3.19141 15.5015V12.0259ZM18.0117 16.2224C19.009 16.193 19.809 15.3748 19.809 14.3704C19.809 13.3799 19.0309 12.5704 18.0529 12.5201V15.5015C18.0529 15.7453 18.0389 15.9859 18.0117 16.2224Z" fill="#000000" />
</svg>