<svg width="24px"  height="24px"  viewBox="0 0 25 24" fill="none" xmlns="http://www.w3.org/2000/svg">
<path fill-rule="evenodd" clip-rule="evenodd" d="M12.2352 2.46967C12.5281 2.17678 13.003 2.17678 13.2958 2.46967C14.0554 3.22919 14.0563 4.46125 13.2956 5.22068C13.1214 5.39515 13.1223 5.6767 13.2953 5.84938C13.5885 6.14197 13.589 6.61684 13.2964 6.91004C13.0038 7.20324 12.5289 7.20373 12.2357 6.91114C11.4748 6.15174 11.4756 4.91944 12.2352 4.1598C12.4083 3.98705 12.4096 3.70479 12.2352 3.53033C11.9423 3.23744 11.9423 2.76256 12.2352 2.46967ZM8.57835 4.1601C8.87124 4.45299 8.87124 4.92786 8.57835 5.22076C8.40389 5.39522 8.40469 5.67692 8.5778 5.84967C8.871 6.14226 8.87149 6.61714 8.5789 6.91033C8.28632 7.20353 7.81144 7.20403 7.51824 6.91144C6.75726 6.15204 6.75806 4.91973 7.51769 4.1601C7.81059 3.8672 8.28546 3.8672 8.57835 4.1601ZM6.70107 10.068C5.61976 10.068 4.74316 10.9446 4.74316 12.0259V14.3193C4.74316 17.5947 7.39843 20.25 10.6739 20.25C13.9494 20.25 16.6046 17.5947 16.6046 14.3193V12.0259C16.6046 10.9446 15.728 10.068 14.6467 10.068H9.76028V13.0261C9.76028 13.4403 9.4245 13.7761 9.01028 13.7761C8.59607 13.7761 8.26028 13.4403 8.26028 13.0261V10.068H6.70107ZM6.70107 8.56796C4.79133 8.56796 3.24316 10.1161 3.24316 12.0259V14.3193C3.24316 18.4232 6.57 21.75 10.6739 21.75C13.6061 21.75 16.1416 20.0516 17.3504 17.585C17.4572 17.547 17.5851 17.4989 17.7282 17.4398C18.1404 17.2697 18.6938 17.0029 19.2389 16.6182C20.3224 15.8535 21.4927 14.5228 21.2171 12.5095C21.215 12.4935 21.2123 12.4777 21.2091 12.4619C21.0675 11.7647 20.7203 11.2513 20.2561 10.9055C19.8087 10.5723 19.2972 10.427 18.8571 10.3669C18.414 10.3064 17.9989 10.3262 17.7022 10.3581C17.6941 10.359 17.6861 10.3599 17.6781 10.3608C17.0898 9.2921 15.9528 8.56796 14.6467 8.56796H6.70107ZM18.0993 11.8314C18.2718 11.8236 18.4633 11.8271 18.6542 11.8531C18.941 11.8923 19.1829 11.9765 19.3601 12.1085C19.5169 12.2253 19.6624 12.4072 19.7343 12.7376C19.8892 13.9463 19.229 14.7892 18.374 15.3926C18.2458 15.4831 18.1158 15.566 17.9873 15.6416C18.0644 15.2125 18.1046 14.7706 18.1046 14.3193V12.0259C18.1046 11.9606 18.1028 11.8958 18.0993 11.8314Z" fill="#000000" />
</svg>