<svg width="24px"  height="24px"  viewBox="0 0 25 24" fill="none" xmlns="http://www.w3.org/2000/svg">
<path d="M14.687 2.37054C15.0356 2.59051 15.1377 3.05072 14.9146 3.40057C14.8237 3.54535 14.7656 3.6933 14.73 3.8349C14.7188 3.87884 14.7095 3.9223 14.7021 3.96478L14.6938 4.02044C14.6885 4.05804 14.6846 4.09491 14.6816 4.13055C14.6782 4.17352 14.6768 4.21478 14.6763 4.25262C14.6758 4.30243 14.6772 4.34637 14.6797 4.38055L14.6841 4.4306L14.6855 4.44061C14.7598 4.84051 14.4897 5.23065 14.0825 5.31073C13.6748 5.38055 13.2847 5.11053 13.21 4.71063C13.21 4.70062 13.2075 4.70062 13.2075 4.70062L13.2065 4.6889L13.2056 4.6806C13.2036 4.67059 13.2007 4.65057 13.1987 4.63055C13.1963 4.61639 13.1938 4.59759 13.1914 4.57562L13.1836 4.49066C13.1758 4.37054 13.1709 4.20062 13.1855 4.01068C13.2158 3.63055 13.3237 3.11053 13.6509 2.60052C13.8735 2.25067 14.3369 2.14056 14.687 2.37054Z" fill="#000000" />
<path d="M11.2466 2.37054C11.5957 2.59051 11.6978 3.05072 11.4746 3.40057C11.3628 3.57928 11.3008 3.76312 11.2681 3.93377C11.2549 4.00189 11.2466 4.06781 11.2417 4.13055C11.2339 4.23065 11.2368 4.32049 11.2407 4.38055L11.2456 4.44061C11.3208 4.84051 11.0508 5.23065 10.6426 5.31073C10.2358 5.38055 9.84473 5.11053 9.771 4.71063C9.76953 4.70062 9.76855 4.70062 9.76855 4.70062L9.76562 4.6806L9.76221 4.65594L9.75879 4.63055C9.75391 4.60052 9.74854 4.55047 9.74463 4.49066L9.73926 4.39715C9.73779 4.35394 9.73682 4.30682 9.73682 4.25677C9.73682 4.18084 9.73975 4.09784 9.74658 4.01068C9.77588 3.63055 9.88477 3.11053 10.2109 2.60052C10.2773 2.49627 10.3652 2.41327 10.4648 2.35418C10.5757 2.28875 10.7012 2.25262 10.8286 2.24969C10.9717 2.24652 11.1172 2.28509 11.2466 2.37054Z" fill="#000000" />
<path d="M7.80566 2.37054C7.9585 2.46673 8.06396 2.60907 8.11523 2.768C8.18164 2.9721 8.15918 3.20379 8.03369 3.40057C7.87695 3.65057 7.81787 3.91058 7.80078 4.13055C7.79297 4.23065 7.7959 4.32049 7.7998 4.38055L7.8042 4.42914L7.80469 4.44061C7.87988 4.84051 7.60986 5.23065 7.20264 5.31073C6.95068 5.35394 6.70508 5.26751 6.53662 5.10077C6.48193 5.04657 6.43555 4.98358 6.39941 4.914C6.3667 4.85125 6.34277 4.78314 6.32959 4.71063C6.32959 4.70062 6.32764 4.70062 6.32764 4.70062L6.32471 4.6806C6.32275 4.67059 6.3208 4.65057 6.31885 4.63055C6.31396 4.60052 6.30762 4.55047 6.30371 4.49066C6.29492 4.37054 6.29053 4.20062 6.30566 4.01068C6.32178 3.81122 6.35889 3.57318 6.43799 3.3183C6.50928 3.08758 6.61475 2.84295 6.76953 2.60052C6.99268 2.25067 7.45654 2.14056 7.80566 2.37054Z" fill="#000000" />
<path d="M7.36182 10.5307C7.77588 10.5307 8.11182 10.8605 8.11182 11.2807V14.2006C8.11182 14.6105 7.77588 14.9506 7.36182 14.9506C6.94775 14.9506 6.61182 14.6105 6.61182 14.2006V11.2807C6.61182 10.8605 6.94775 10.5307 7.36182 10.5307Z" fill="#000000" />
<path fill-rule="evenodd" clip-rule="evenodd" d="M17.8613 9.20062C17.4302 7.79339 16.1226 6.77069 14.5757 6.77069H6.69482C4.79785 6.77069 3.25977 8.31048 3.25977 10.2106V15.5507C3.25977 18.9706 6.03662 21.7507 9.46289 21.7507H11.8076C15.1299 21.7507 17.8423 19.1369 18.0039 15.8605H18.7656C20.1328 15.8605 21.2407 14.7507 21.2407 13.3906V11.6706C21.2407 10.3107 20.1328 9.20062 18.7656 9.20062H17.8613ZM19.7407 11.6706C19.7407 11.1306 19.3047 10.7006 18.7656 10.7006H18.0117V14.3605H18.7656C19.3047 14.3605 19.7407 13.9206 19.7407 13.3906V11.6706ZM4.75977 15.5507C4.75977 18.1406 6.86475 20.2507 9.46289 20.2507H11.8076C14.4058 20.2507 16.5117 18.1406 16.5117 15.5507V10.2106C16.5117 9.14056 15.6445 8.27069 14.5757 8.27069H6.69482C5.62695 8.27069 4.75977 9.14056 4.75977 10.2106V15.5507Z" fill="#000000" />
</svg>