<svg width="24px"  height="24px"  viewBox="0 0 25 24" fill="none" xmlns="http://www.w3.org/2000/svg">
<path fill-rule="evenodd" clip-rule="evenodd" d="M17.3057 3.75049C16.6399 3.75049 16.0942 4.2962 16.0942 4.96196C16.0942 5.3393 16.2698 5.67163 16.5345 5.88252C16.7015 6.01563 16.8039 6.21363 16.8159 6.42688C16.8279 6.64012 16.7484 6.84837 16.5974 6.9994L15.3293 8.26755L15.9781 8.91637L17.2414 7.65308C17.3911 7.5033 17.5973 7.42385 17.8088 7.43433C18.0204 7.44482 18.2176 7.54428 18.3519 7.70813C18.5774 7.98345 18.9151 8.15632 19.2778 8.15632C19.9543 8.15632 20.5 7.61061 20.5 6.93414C20.5 6.32896 19.8274 5.79635 19.1897 6.01055C18.9211 6.10076 18.6246 6.03191 18.4233 5.83258C18.2219 5.63325 18.1501 5.33746 18.2376 5.06798C18.4492 4.41629 17.9119 3.75049 17.3057 3.75049ZM17.0387 9.97703L17.1329 10.0712C17.6218 10.56 17.7795 11.3118 17.4841 11.9631L17.4837 11.964C17.4043 12.1385 17.3125 12.3068 17.2348 12.4492L17.2224 12.4719C17.1373 12.628 17.0679 12.757 17.011 12.8848C16.902 13.1298 16.8658 13.3136 16.8971 13.504C17.1063 14.7778 16.8123 16.0456 16.3465 17.1085C15.8804 18.1721 15.2157 19.0922 14.597 19.6922L14.5967 19.6925C11.7903 22.4112 7.34225 22.4612 4.56515 19.6841L4.56504 19.684C1.78814 16.906 1.83799 12.459 4.5568 9.65257L4.55682 9.65255C5.15649 9.03359 6.0768 8.36889 7.14049 7.90278C8.20349 7.43698 9.47147 7.14297 10.7453 7.35221C10.9356 7.38346 11.1195 7.34725 11.3645 7.23824C11.4922 7.18142 11.6213 7.11197 11.7774 7.0269C11.7849 7.02281 11.7924 7.01867 11.8001 7.01449C11.9425 6.93682 12.1108 6.84499 12.2853 6.76558L12.2862 6.76518C12.9375 6.46979 13.6892 6.62753 14.1781 7.11636L14.2686 7.20689L15.0365 6.43894C14.7584 6.01729 14.5942 5.50922 14.5942 4.96196C14.5942 3.46777 15.8115 2.25049 17.3057 2.25049C18.5409 2.25049 19.6222 3.24234 19.7703 4.47475C21.002 4.61735 22 5.70066 22 6.93414C22 8.43903 20.7827 9.65632 19.2778 9.65632C18.7326 9.65632 18.2264 9.48958 17.8045 9.21128L17.0387 9.97703ZM13.1174 8.17702C13.0537 8.11327 12.9669 8.10362 12.9059 8.13116C12.7821 8.18758 12.6563 8.25613 12.499 8.34193L12.4954 8.34388C12.345 8.42586 12.1652 8.52376 11.9742 8.60874C11.5817 8.78336 11.0884 8.9286 10.5023 8.8324L10.5022 8.83238C9.60249 8.68457 8.63563 8.88531 7.74253 9.27667C6.85011 9.66772 6.09305 10.2226 5.63415 10.6963C3.46484 12.9355 3.44853 16.4454 5.62591 18.6236C7.8031 20.8007 11.3137 20.7845 13.553 18.6151C14.0269 18.1556 14.5817 17.3985 14.9726 16.5064C15.364 15.6134 15.5647 14.6468 15.4169 13.7471L15.4169 13.747C15.3207 13.1609 15.4659 12.6676 15.6405 12.2751C15.7255 12.0841 15.8234 11.9043 15.9054 11.7539L15.9074 11.7503C15.9933 11.5926 16.062 11.4667 16.1185 11.3426L16.8008 11.6532L16.1181 11.3435C16.1457 11.2826 16.1361 11.1957 16.0723 11.1319L13.1174 8.17702ZM12.4798 13.8986C12.894 13.8986 13.2298 14.2343 13.2298 14.6486V14.7147C13.2298 15.1289 12.894 15.4647 12.4798 15.4647C12.0656 15.4647 11.7298 15.1289 11.7298 14.7147V14.6486C11.7298 14.2343 12.0656 13.8986 12.4798 13.8986ZM9.33287 15.7352C9.74708 15.7352 10.0829 16.071 10.0829 16.4852V16.5514C10.0829 16.9656 9.74708 17.3014 9.33287 17.3014C8.91865 17.3014 8.58287 16.9656 8.58287 16.5514V16.4852C8.58287 16.071 8.91865 15.7352 9.33287 15.7352ZM11.8916 16.6369C12.3058 16.6369 12.6416 16.9727 12.6416 17.3869V17.453C12.6416 17.8673 12.3058 18.203 11.8916 18.203C11.4774 18.203 11.1416 17.8673 11.1416 17.453V17.3869C11.1416 16.9727 11.4774 16.6369 11.8916 16.6369Z" fill="#000000" />
</svg>