<svg width="24px"  height="24px"  viewBox="0 0 25 24" fill="none" xmlns="http://www.w3.org/2000/svg">
<path fill-rule="evenodd" clip-rule="evenodd" d="M12.2501 13.9113C13.5671 13.9113 14.6361 14.9813 14.6361 16.2913C14.6361 17.6113 13.5671 18.6813 12.2501 18.6813C10.9331 18.6813 9.86508 17.6113 9.86508 16.2913C9.86508 14.9813 10.9331 13.9113 12.2501 13.9113ZM13.1361 16.2913C13.1361 15.8013 12.7391 15.4113 12.2501 15.4113C11.7621 15.4113 11.3651 15.8013 11.3651 16.2913C11.3651 16.7813 11.7621 17.1813 12.2501 17.1813C12.7391 17.1813 13.1361 16.7813 13.1361 16.2913Z" fill="#000000" />
<path fill-rule="evenodd" clip-rule="evenodd" d="M10.2012 2.2617L8.89108 2.47119C8.30008 2.57119 7.90308 3.12118 8.00308 3.71118L8.74985 8.02282L8.02811 5.66125L8.0253 5.66211C7.85584 5.11772 7.29501 4.80194 6.7421 4.94116L5.4621 5.26123H5.46109C4.86209 5.41123 4.51208 6.03121 4.69708 6.62121L5.4012 8.86529C4.64834 9.2182 4.18458 10.0595 4.37308 10.9412L6.31708 20.0112C6.53508 21.0312 7.4301 21.7512 8.4671 21.7512H16.0331C17.0711 21.7512 17.9651 21.0312 18.1831 20.0112L20.1271 10.9412C20.3223 10.0282 19.8181 9.15851 19.0177 8.82957L19.8071 6.25122H19.8081C19.9858 5.66214 19.6352 5.04317 19.0339 4.89194L17.7449 4.58185C17.1879 4.45185 16.6261 4.77116 16.4631 5.32116L15.6804 7.9292L16.0601 4.38122C16.1251 3.79122 15.6941 3.25117 15.1001 3.20117H15.0991L13.7731 3.07116H13.7711C13.1881 3.01116 12.6681 3.44124 12.6041 4.02124H12.6031L12.2142 7.65918L11.4281 3.14123C11.3271 2.56123 10.7812 2.1717 10.2012 2.2617ZM8.89609 11.6613H8.89508L8.40632 10.1939C8.38234 10.1941 8.35848 10.1932 8.33483 10.1912H6.43976C6.39569 10.195 6.35182 10.1949 6.3086 10.1912H6.18909C5.96109 10.1912 5.79208 10.4012 5.83908 10.6212L7.78308 19.7012C7.85308 20.0212 8.1381 20.2512 8.4671 20.2512H16.0331C16.3621 20.2512 16.6471 20.0212 16.7171 19.7012L18.6611 10.6212C18.7091 10.4012 18.5391 10.1912 18.3111 10.1912H18.1112C18.0686 10.1949 18.0254 10.1949 17.9819 10.1912H16.1386C16.1233 10.1939 16.108 10.1962 16.0925 10.1981L15.6051 11.6613C15.4031 12.2613 14.8391 12.6713 14.2021 12.6713H12.23C12.2079 12.6722 12.1859 12.6722 12.1641 12.6713H10.2981C9.6621 12.6713 9.09709 12.2613 8.89609 11.6613ZM10.8164 11.1713H11.3021L10.0225 3.80782L9.55409 3.88273L10.8164 11.1713ZM13.3478 11.1713H13.8243L14.5233 4.64896L14.0501 4.60261L13.3478 11.1713ZM17.0176 8.69116H17.4914L18.2402 6.24527L17.7854 6.13625L17.0176 8.69116ZM6.91877 8.69116H7.38535L6.71383 6.49592L6.26403 6.6045L6.91877 8.69116Z" fill="#000000" />
</svg>