<svg width="24px"  height="24px"  viewBox="0 0 25 24" fill="none" xmlns="http://www.w3.org/2000/svg">
<path d="M14.1728 10.4177C13.8139 10.6179 13.3549 10.4978 13.1479 10.1377C12.9907 9.86792 12.6977 9.68774 12.3637 9.68774C12.0527 9.68774 11.7768 9.84765 11.6118 10.0876C11.479 10.2822 11.2695 10.395 11.0508 10.4128C10.8872 10.426 10.7177 10.3862 10.5708 10.2878C10.5493 10.2734 10.5293 10.2583 10.5102 10.2424C10.4922 10.2275 10.4751 10.2119 10.459 10.1958C10.4145 10.1514 10.3769 10.1023 10.3457 10.0496C10.3012 9.97412 10.2705 9.89135 10.2544 9.8059L10.2485 9.76928C10.2426 9.72607 10.2402 9.68237 10.2417 9.63867C10.2441 9.5603 10.2592 9.48193 10.2876 9.40649C10.3081 9.35156 10.3354 9.29834 10.3696 9.2478C10.8008 8.60766 11.5327 8.18774 12.3637 8.18774C13.2539 8.18774 14.0317 8.67773 14.4458 9.38769C14.6538 9.7478 14.5307 10.2078 14.1728 10.4177Z" fill="#000000" />
<path fill-rule="evenodd" clip-rule="evenodd" d="M14.604 21.5378C15.3842 21.5378 16.1748 21.3584 16.8774 20.9602L16.8818 20.9678C19.0617 19.7478 20.7439 17.7478 21.5468 15.3376C21.7568 14.7078 21.9048 14.0478 21.9868 13.3777C22.0852 12.5652 21.6101 11.8303 20.9048 11.5395C20.7966 10.863 20.4284 10.2219 19.8269 9.78784L19.7739 9.75146L19.7097 9.70922C19.6823 9.69165 19.6548 9.67456 19.6272 9.6582C19.7561 8.45532 18.9631 7.32763 17.7588 7.05786C17.4314 6.98486 17.1062 6.98584 16.7988 7.04492C16.6137 6.71679 16.3564 6.42285 16.0307 6.18774C15.9253 6.11181 15.8164 6.04467 15.7046 5.98608C15.6484 5.95654 15.5913 5.92919 15.5337 5.90405C15.415 5.85253 15.2944 5.81005 15.1723 5.77636C14.874 4.5205 13.6762 3.6499 12.3589 3.79785C11.2192 3.92602 10.3354 4.77783 10.1103 5.84106C9.33688 5.92871 8.58884 6.26464 7.99899 6.8396L7.57663 3.12768C7.52975 2.70776 7.15768 2.41772 6.74704 2.46777C6.5112 2.49072 6.31393 2.62158 6.19675 2.80786C6.10934 2.94726 6.06638 3.11792 6.08591 3.29785L6.55466 7.4187L3.83298 4.05786C3.57175 3.73779 3.10007 3.68774 2.7778 3.94775C2.45602 4.20776 2.40671 4.68774 2.66696 5.00781L5.68356 8.72485C5.43112 8.78222 5.18698 8.87353 4.96286 8.9978C3.99069 9.53198 3.49411 10.5935 3.63913 11.6301C3.04147 11.9629 2.6572 12.6309 2.7446 13.3677C3.13669 16.6377 5.09274 19.4277 7.84372 20.9578C8.55173 21.3577 9.3447 21.5378 10.1289 21.5378H14.604ZM18.9487 11.0078C19.1006 11.115 19.2185 11.2532 19.3008 11.4077H5.12253C5.06882 10.9739 5.2778 10.5298 5.68405 10.3079C6.16403 10.0478 6.77194 10.1379 7.06882 10.4277C7.29977 10.6479 7.64694 10.7078 7.93259 10.5579C7.95749 10.5449 7.98141 10.5308 8.00436 10.5154C8.18942 10.3972 8.311 10.198 8.33639 9.97851C8.34421 9.91308 8.34372 9.8457 8.33395 9.77783L8.33151 9.76098L8.32516 9.70556C8.27634 9.18798 8.4863 8.55493 8.90378 8.06762L8.90475 8.05786C9.37204 7.50781 10.0639 7.25781 10.7358 7.32763C10.9619 7.35766 11.188 7.27783 11.3476 7.11767C11.4365 7.02417 11.5 6.91528 11.5351 6.79809C11.5634 6.70239 11.5732 6.60107 11.562 6.4978C11.4936 5.8977 11.9267 5.35791 12.5258 5.28784C12.9707 5.23608 13.3828 5.46313 13.5947 5.82739L13.5381 5.84765C13.1489 5.98779 12.9487 6.41772 13.0918 6.80786C13.2339 7.19775 13.665 7.3977 14.0537 7.2478C14.1772 7.20288 14.3071 7.17968 14.4375 7.17749C14.4736 7.18115 14.5107 7.18237 14.5478 7.1809C14.7212 7.19409 14.8935 7.24511 15.0512 7.33374L15.0893 7.3562L15.1064 7.36669C15.122 7.3767 15.1377 7.38696 15.1528 7.3977C15.4023 7.58105 15.561 7.83886 15.6186 8.11889L15.6259 8.15698C15.6435 8.2622 15.6474 8.36987 15.6367 8.47778C15.5947 8.88769 15.895 9.25781 16.3076 9.29785C16.7197 9.33789 17.0879 9.03784 17.1289 8.62768C17.1328 8.58837 17.136 8.54907 17.1382 8.50952C17.1921 8.50293 17.2463 8.50146 17.3008 8.50586C17.3447 8.50927 17.3889 8.5166 17.4328 8.52783C17.6347 8.56933 17.8059 8.67773 17.9292 8.82495C18.0403 8.95752 18.1125 9.12133 18.134 9.29565C17.7978 9.36938 17.5429 9.66381 17.5378 10.0178C17.531 10.4377 17.8618 10.7778 18.2758 10.7778C18.5095 10.7878 18.7429 10.8581 18.9487 11.0078ZM4.57858 12.9089L4.54929 12.9077H4.49557C4.33493 12.9077 4.21677 13.0478 4.23386 13.1877C4.56784 15.9678 6.23093 18.3479 8.57272 19.6477C8.78024 19.7642 9.0029 19.8545 9.23483 19.9187C9.38962 19.9614 9.54831 19.9927 9.70993 20.0124C9.84763 20.0293 9.98776 20.0378 10.1289 20.0378H14.604C15.1567 20.0378 15.6928 19.9077 16.1538 19.6477C18.0078 18.6179 19.4399 16.9177 20.1237 14.8677C20.1626 14.7498 20.1989 14.6311 20.2329 14.5115C20.2959 14.2898 20.3498 14.0652 20.395 13.8384L20.4179 13.718C20.4497 13.5456 20.4763 13.3721 20.4978 13.1977C20.5154 13.051 20.4001 12.9141 20.2475 12.908C20.2173 12.9109 20.1865 12.9119 20.1552 12.9111C20.1379 12.9106 20.1203 12.9094 20.1028 12.9077H4.64304L4.62399 12.9087L4.57858 12.9089Z" fill="#000000" />
</svg>