<svg width="24px"  height="24px"  viewBox="0 0 25 24" fill="none" xmlns="http://www.w3.org/2000/svg">
<path d="M14.6876 2.78028C15.0975 2.84034 15.3775 3.22022 15.3136 3.63013L14.4857 8.9502C14.4215 9.36011 14.0386 9.64014 13.6297 9.58009C13.2196 9.51026 12.9395 9.13013 13.0035 8.72022L13.8316 3.40015C13.8956 2.99024 14.2786 2.71021 14.6876 2.78028Z" fill="#000000" />
<path d="M19.2335 3.99024C19.6016 4.18018 19.7467 4.63013 19.5567 5.00025L17.3975 9.18018C17.2972 9.3755 17.1239 9.5066 16.9283 9.55909C16.7532 9.60596 16.5604 9.58985 16.3865 9.50025C16.0186 9.31031 15.8746 8.86011 16.0645 8.49024L18.2237 4.31031C18.4136 3.94019 18.8656 3.8003 19.2335 3.99024Z" fill="#000000" />
<path fill-rule="evenodd" clip-rule="evenodd" d="M21.4786 15.1465C20.6424 17.5034 18.9713 19.4614 16.8216 20.6502C16.1085 21.0503 15.3087 21.2302 14.5177 21.2302H9.98469C9.19051 21.2302 8.3885 21.0503 7.67464 20.6502C4.88948 19.1003 2.91072 16.2803 2.51253 12.9702C2.38655 11.9102 3.22761 10.9902 4.27669 10.9902H20.2247C21.2816 10.9902 22.1146 11.9202 21.9876 12.9702C21.9437 13.3396 21.8802 13.7002 21.7982 14.054C21.7442 14.2866 21.6822 14.5161 21.6124 14.7429C21.608 14.8919 21.5592 15.0308 21.4786 15.1465ZM4.7762 15.4702C5.5533 17.1079 6.82674 18.4641 8.40364 19.3401C8.87459 19.6001 9.42049 19.7302 9.98469 19.7302H14.5177C15.0806 19.7302 15.6246 19.6001 16.0926 19.3401C17.6693 18.4685 18.9449 17.1116 19.7249 15.4702H4.7762ZM20.274 13.9702C20.3751 13.5877 20.4505 13.1987 20.4986 12.8003C20.5177 12.6404 20.3895 12.4902 20.2247 12.4902H4.27669C4.10847 12.4902 3.98469 12.6404 4.00252 12.7903C4.05086 13.1926 4.1263 13.5867 4.22761 13.9702H20.274Z" fill="#000000" />
</svg>