<svg width="24px"  height="24px"  viewBox="0 0 25 24" fill="none" xmlns="http://www.w3.org/2000/svg">
<path fill-rule="evenodd" clip-rule="evenodd" d="M7.92188 2.25089C7.95884 2.2503 7.99592 2.25 8.03313 2.25H16.4678C18.1272 2.25 19.5296 2.84086 20.5135 3.89789C21.4916 4.94883 22 6.39954 22 8.02735V15.9736C22 17.601 21.4916 19.0515 20.5133 20.1023C19.5293 21.1592 18.1266 21.75 16.4669 21.75H8.03313C7.9959 21.75 7.95879 21.7497 7.92181 21.7491C7.90959 21.7497 7.89729 21.75 7.88492 21.75C7.86013 21.75 7.83562 21.7488 7.81144 21.7464C6.24882 21.6961 4.92704 21.1118 3.98714 20.1024C3.00872 19.0516 2.5 17.6011 2.5 15.9736V8.02735C2.5 6.3985 3.01144 4.9479 3.99072 3.89744C4.93112 2.8887 6.2523 2.30416 7.81116 2.25358C7.83543 2.25121 7.86004 2.25 7.88492 2.25C7.89732 2.25 7.90964 2.2503 7.92188 2.25089ZM7.13492 3.82978C6.27928 3.98891 5.5937 4.37772 5.0879 4.92028C4.41046 5.64696 4 6.71004 4 8.02735V15.9736C4 17.2913 4.40879 18.354 5.08492 19.0802C5.59012 19.6227 6.27611 20.0118 7.13492 20.1707V3.82978ZM8.63492 20.25V3.75H11.2378V11.4999C11.2378 11.7598 11.3724 12.0013 11.5935 12.1379C11.8146 12.2746 12.0908 12.287 12.3233 12.1707L14.4667 11.0985L16.593 12.1697C16.8256 12.2868 17.1022 12.275 17.3239 12.1384C17.5455 12.0019 17.6805 11.7601 17.6805 11.4997L17.6787 3.89922C18.3927 4.08745 18.9733 4.44482 19.4155 4.91984C20.0914 5.64603 20.5 6.709 20.5 8.02735V15.9736C20.5 17.2914 20.0914 18.3541 19.4154 19.0802C18.7451 19.8002 17.7562 20.25 16.4669 20.25H8.63492ZM16.1787 3.75H12.7378V10.2862L14.1323 9.58858C14.3442 9.4826 14.5937 9.48296 14.8053 9.58954L16.1802 10.2821L16.1787 3.75Z" fill="#000000" />
</svg>