<svg width="24px"  height="24px"  viewBox="0 0 25 24" fill="none" xmlns="http://www.w3.org/2000/svg">
<path fill-rule="evenodd" clip-rule="evenodd" d="M3.99072 3.89744C4.97544 2.84116 6.37768 2.25 8.03313 2.25H16.4678C18.1272 2.25 19.5296 2.84086 20.5135 3.89789C21.4916 4.94883 22 6.39954 22 8.02735V15.9736C22 17.601 21.4916 19.0515 20.5133 20.1023C19.5293 21.1592 18.1266 21.75 16.4669 21.75H8.03313C6.37379 21.75 4.97117 21.1592 3.98714 20.1024C3.00872 19.0516 2.5 17.6011 2.5 15.9736V8.02735C2.5 6.3985 3.01144 4.9479 3.99072 3.89744ZM10.985 3.75H8.03313C6.74924 3.75 5.75991 4.19944 5.0879 4.92028C4.41046 5.64696 4 6.71004 4 8.02735V15.9736C4 17.2913 4.40879 18.354 5.08492 19.0802C5.75542 19.8003 6.74437 20.25 8.03313 20.25H16.4669C17.7562 20.25 18.7451 19.8002 19.4154 19.0802C20.0914 18.3541 20.5 17.2914 20.5 15.9736V8.02735C20.5 6.709 20.0914 5.64603 19.4155 4.91984C18.9736 4.44506 18.3933 4.08782 17.6798 3.89951L17.6807 12.8824C17.6807 13.1484 17.5399 13.3944 17.3106 13.5292C17.0813 13.6639 16.7978 13.6671 16.5655 13.5376L14.3412 12.2975L12.0981 13.5387C11.8658 13.6673 11.5828 13.6634 11.3541 13.5286C11.1254 13.3937 10.985 13.148 10.985 12.8825V3.75ZM16.1798 3.75H12.485V11.6103L13.9794 10.7833C14.2061 10.6579 14.4815 10.6583 14.7078 10.7845L16.1806 11.6056L16.1798 3.75Z" fill="#000000" />
</svg>