<svg width="24px"  height="24px"  viewBox="0 0 25 24" fill="none" xmlns="http://www.w3.org/2000/svg">
<path fill-rule="evenodd" clip-rule="evenodd" d="M12.25 3.75C7.69335 3.75 4 7.44421 4 12C4 16.5558 7.69335 20.25 12.25 20.25C16.8067 20.25 20.5 16.5558 20.5 12C20.5 7.44421 16.8067 3.75 12.25 3.75ZM2.5 12C2.5 6.61589 6.86481 2.25 12.25 2.25C17.6352 2.25 22 6.61589 22 12C22 17.3841 17.6352 21.75 12.25 21.75C6.86481 21.75 2.5 17.3841 2.5 12ZM9.32521 7.99074C9.81951 7.63682 10.4408 7.52581 11.0249 7.52581H13.4738C14.078 7.52581 14.7089 7.64557 15.2039 8.02441C15.734 8.43013 15.9907 9.04106 15.9908 9.75934L15.9927 15.3568C15.9927 15.5531 15.9409 15.7406 15.849 15.9043L15.8484 15.9053C15.5459 16.4421 14.8659 16.6324 14.3287 16.3296L12.259 15.1601L10.1641 16.3344C10.0017 16.4243 9.81481 16.4749 9.62184 16.4749C9.00539 16.4749 8.5052 15.9745 8.50697 15.3577L8.50698 15.3554L8.50697 15.3591V15.3577V9.68857C8.50697 8.96763 8.78984 8.37406 9.32521 7.99074ZM10.1984 9.21035C10.1026 9.27898 10.007 9.39179 10.007 9.68857V14.7029L11.8938 13.6453C12.1224 13.5171 12.4014 13.5176 12.6295 13.6465L14.4925 14.6993L14.4908 9.75986C14.4908 9.41771 14.385 9.28658 14.2922 9.21559C14.1643 9.11768 13.9118 9.02581 13.4738 9.02581H11.0249C10.5981 9.02581 10.3354 9.11232 10.1984 9.21035Z" fill="#000000" />
</svg>