<svg width="24px"  height="24px"  viewBox="0 0 25 24" fill="none" xmlns="http://www.w3.org/2000/svg">
<path fill-rule="evenodd" clip-rule="evenodd" d="M3.99072 3.89744C4.97544 2.84116 6.37768 2.25 8.03313 2.25H16.4678C18.1272 2.25 19.5296 2.84086 20.5135 3.89789C21.4916 4.94883 22 6.39954 22 8.02735V15.9736C22 17.601 21.4916 19.0515 20.5133 20.1023C19.5293 21.1592 18.1266 21.75 16.4669 21.75H8.03313C6.37379 21.75 4.97117 21.1592 3.98714 20.1024C3.00872 19.0516 2.5 17.6011 2.5 15.9736V8.02735C2.5 6.3985 3.01144 4.9479 3.99072 3.89744ZM8.1459 3.75H8.03313C6.74924 3.75 5.75991 4.19944 5.0879 4.92028C4.41046 5.64696 4 6.71004 4 8.02735V15.9736C4 17.2913 4.40879 18.354 5.08492 19.0802C5.75542 19.8003 6.74437 20.25 8.03313 20.25H16.4669C17.7562 20.25 18.7451 19.8002 19.4154 19.0802C20.0914 18.3541 20.5 17.2914 20.5 15.9736V8.02735C20.5 6.709 20.0914 5.64603 19.4155 4.91984C18.7452 4.19973 17.7566 3.75 16.4678 3.75H16.3537L16.3555 11.8977C16.3556 12.1581 16.2206 12.3998 15.9989 12.5364C15.7772 12.673 15.5005 12.6848 15.268 12.5676L12.2621 11.0528L9.23139 12.5686C8.9989 12.6849 8.72278 12.6725 8.50164 12.5358C8.28051 12.3992 8.1459 12.1578 8.1459 11.8978V3.75ZM14.8537 3.75H9.6459V10.6842L11.9279 9.54284C12.1398 9.43686 12.3893 9.43724 12.6009 9.54386L14.8553 10.6799L14.8537 3.75ZM7.67557 16.5732C7.67557 16.1589 8.01136 15.8232 8.42557 15.8232H16.0751C16.4893 15.8232 16.8251 16.1589 16.8251 16.5732C16.8251 16.9874 16.4893 17.3232 16.0751 17.3232H8.42557C8.01136 17.3232 7.67557 16.9874 7.67557 16.5732Z" fill="#000000" />
</svg>