<svg width="24px"  height="24px"  viewBox="0 0 25 24" fill="none" xmlns="http://www.w3.org/2000/svg">
<path fill-rule="evenodd" clip-rule="evenodd" d="M3.99072 3.89744C4.97544 2.84116 6.37768 2.25 8.03313 2.25H16.4678C18.1272 2.25 19.5296 2.84086 20.5135 3.89789C21.4916 4.94883 22 6.39954 22 8.02735V15.9736C22 17.601 21.4916 19.0515 20.5133 20.1023C19.5293 21.1592 18.1266 21.75 16.4669 21.75H8.03313C6.37379 21.75 4.97117 21.1592 3.98714 20.1024C3.00872 19.0516 2.5 17.6011 2.5 15.9736V8.02735C2.5 6.3985 3.01144 4.9479 3.99072 3.89744ZM7.41142 3.78717C6.42595 3.90858 5.64707 4.32047 5.0879 4.92028C4.41046 5.64696 4 6.71004 4 8.02735V15.9736C4 17.2913 4.40879 18.354 5.08492 19.0802C5.75542 19.8003 6.74437 20.25 8.03313 20.25H16.4669C17.7562 20.25 18.7451 19.8002 19.4154 19.0802C20.0914 18.3541 20.5 17.2914 20.5 15.9736V8.02735C20.5 6.709 20.0914 5.64603 19.4155 4.91984C18.8568 4.31962 18.0769 3.90724 17.0865 3.78657L17.0883 14.3885C17.0883 15.369 16.0302 15.9788 15.182 15.4957L15.1809 15.4951L12.2631 13.8273L9.3152 15.5C9.31507 15.5 9.31534 15.4999 9.3152 15.5C8.46599 15.9821 7.41142 15.3693 7.41142 14.3916V3.78717ZM15.5865 3.75H8.91142V14.0044L11.8943 12.3119C12.1246 12.1812 12.4068 12.1817 12.6366 12.3131L15.5882 14.0002L15.5865 3.75Z" fill="#000000" />
</svg>