<svg width="24px"  height="24px"  viewBox="0 0 25 24" fill="none" xmlns="http://www.w3.org/2000/svg">
<path d="M11.2129 20.875C11.0571 21.2578 10.6191 21.4414 10.2349 21.2852L8.10987 20.418C7.96485 20.3574 7.80957 20.332 7.65674 20.3418C7.5293 20.3516 7.40283 20.3848 7.28516 20.4414L6.53223 20.8008C5.24121 21.4199 3.74805 20.4766 3.75 19.0469L3.75879 6.89062C3.75879 5.55664 4.13184 4.37891 4.93213 3.53125C5.73682 2.67578 6.88721 2.25 8.24512 2.25H15.4849C16.8462 2.25 17.9922 2.67578 18.792 3.5332C19.584 4.38281 19.9482 5.56055 19.9482 6.89258V11.0859C19.9482 11.5 19.6118 11.8359 19.1982 11.8359C18.7832 11.8359 18.4482 11.5 18.4482 11.0859V6.89258C18.4482 5.82031 18.1572 5.05273 17.6948 4.55664C17.2388 4.06836 16.5288 3.75 15.4849 3.75H8.24512C7.59863 3.75 7.07617 3.87305 6.66211 4.08398C6.41016 4.21289 6.19824 4.375 6.02295 4.56055C5.5542 5.05664 5.25879 5.82617 5.25879 6.89258L5.25 19.0488C5.25 19.373 5.58985 19.5898 5.88526 19.4473L6.63819 19.0879C6.96582 18.9316 7.31983 18.8496 7.67578 18.8418C8.01514 18.834 8.35596 18.8965 8.67725 19.0273L10.8022 19.8965C11.186 20.0527 11.3701 20.4902 11.2129 20.875Z" fill="#000000" />
<path d="M14.6572 8.9043C14.6572 9.31836 14.3218 9.6543 13.9072 9.6543H9.05078C8.63721 9.6543 8.30078 9.31836 8.30078 8.9043C8.30078 8.49023 8.63721 8.1543 9.05078 8.1543H13.9072C14.3218 8.1543 14.6572 8.49023 14.6572 8.9043Z" fill="#000000" />
<path d="M13.0381 12.6777C13.0381 13.0918 12.7031 13.4277 12.2881 13.4277H9.05078C8.63721 13.4277 8.30078 13.0918 8.30078 12.6777C8.30078 12.4082 8.44336 12.1719 8.65723 12.0391C8.77197 11.9688 8.90674 11.9277 9.05078 11.9277H12.2881C12.7031 11.9277 13.0381 12.2637 13.0381 12.6777Z" fill="#000000" />
<path fill-rule="evenodd" clip-rule="evenodd" d="M16.7813 13.9648C17.1636 13.5508 17.687 13.3457 18.2085 13.3555C18.6572 13.3633 19.1045 13.5312 19.46 13.8594L20.2261 14.5703C20.9941 15.2812 21.041 16.4805 20.3311 17.248L17.1948 20.7109C16.7808 21.1738 16.2188 21.4824 15.603 21.5859L14.7681 21.7266C13.667 21.9102 12.6958 20.9922 12.8149 19.8828L12.9082 19.0215C12.9365 18.7637 13.0015 18.5117 13.0996 18.2734C13.2173 17.9863 13.3833 17.7207 13.5918 17.4863L13.5952 17.4824L16.7759 13.9688L16.7813 13.9648ZM14.52 20.2461L15.355 20.1074C15.5303 20.0781 15.6968 20.0117 15.8438 19.9141C15.9307 19.8555 16.0103 19.7852 16.0811 19.707L16.083 19.7031L19.2241 16.2344L19.229 16.2305C19.377 16.0703 19.3672 15.8184 19.207 15.6719L18.4399 14.9609C18.2798 14.8125 18.0298 14.8223 17.8882 14.9766L14.71 18.4863C14.5361 18.6816 14.4277 18.9258 14.3999 19.1836L14.3062 20.0449C14.293 20.168 14.3999 20.2676 14.52 20.2461Z" fill="#000000" />
</svg>