<svg width="24px"  height="24px"  viewBox="0 0 25 24" fill="none" xmlns="http://www.w3.org/2000/svg">
<path fill-rule="evenodd" clip-rule="evenodd" d="M13.8832 2.57079L16.025 3.44521C16.2964 3.55559 16.6007 3.54664 16.8622 3.42158L17.6221 3.05768C18.9188 2.43698 20.4198 3.38279 20.4182 4.8208L20.4085 17.0758C20.4084 18.4219 20.0323 19.6075 19.2277 20.4609C18.4169 21.3208 17.2599 21.7499 15.892 21.7499H8.59265C7.22156 21.7499 6.06837 21.3208 5.26343 20.458C4.46588 19.6031 4.09964 18.4182 4.09955 17.0763L4.08203 4.82397C4.08045 3.38611 5.58038 2.4374 6.87904 3.05958L7.6342 3.42108C7.89615 3.547 8.19932 3.55614 8.46916 3.44572L10.6154 2.57106C11.6629 2.14236 12.8372 2.14369 13.8832 2.57079ZM13.3162 3.95948C12.6324 3.68028 11.8662 3.67982 11.1838 3.95921L9.03722 4.834C8.37528 5.10471 7.62959 5.08293 6.98501 4.77333L6.23136 4.41255C5.93057 4.26837 5.58184 4.48716 5.58203 4.82183L5.59955 17.0758C5.59955 18.1565 5.89252 18.9334 6.36024 19.4347C6.82067 19.9283 7.53904 20.2499 8.59265 20.2499H15.892C16.942 20.2499 17.6683 19.9283 18.1363 19.4319C18.6103 18.929 18.9085 18.1522 18.9085 17.0758L18.9182 4.81938C18.9186 4.48659 18.5709 4.26659 18.27 4.41056L17.51 4.77446C16.8649 5.08321 16.12 5.10341 15.4594 4.8345L13.3162 3.95948ZM8.67144 9.80227C8.67144 9.38806 9.00723 9.05227 9.42144 9.05227H12.3103C12.7245 9.05227 13.0603 9.38806 13.0603 9.80227C13.0603 10.2165 12.7245 10.5523 12.3103 10.5523H9.42144C9.00723 10.5523 8.67144 10.2165 8.67144 9.80227ZM8.67144 14.1969C8.67144 13.7827 9.00723 13.4469 9.42144 13.4469H15.0784C15.4926 13.4469 15.8284 13.7827 15.8284 14.1969C15.8284 14.6111 15.4926 14.9469 15.0784 14.9469H9.42144C9.00723 14.9469 8.67144 14.6111 8.67144 14.1969Z" fill="#000000" />
</svg>