<svg width="24px"  height="24px"  viewBox="0 0 25 24" fill="none" xmlns="http://www.w3.org/2000/svg">
<path d="M10.2261 9.46289C10.2261 9.04883 10.562 8.71289 10.9761 8.71289H13.499C13.9131 8.71289 14.249 9.04883 14.249 9.46289C14.249 9.87695 13.9131 10.2129 13.499 10.2129H10.9761C10.562 10.2129 10.2261 9.87695 10.2261 9.46289Z" fill="#000000" />
<path d="M8.71387 13.582C8.71387 13.166 9.04883 12.832 9.46387 12.832H15.0112C15.4248 12.832 15.7612 13.166 15.7612 13.582C15.7612 13.9961 15.4248 14.332 15.0112 14.332H9.46387C9.04883 14.332 8.71387 13.9961 8.71387 13.582Z" fill="#000000" />
<path fill-rule="evenodd" clip-rule="evenodd" d="M17.2778 3.01562C18.5288 2.41797 19.9761 3.33008 19.9751 4.7168V19.2832C19.9761 20.6699 18.5288 21.584 17.2769 20.9824L16.5679 20.6426C16.3311 20.5293 16.0571 20.5215 15.814 20.6211L13.793 21.4453C12.7959 21.8516 11.6802 21.8516 10.6821 21.4453L8.66504 20.6211C8.4209 20.5215 8.14697 20.5293 7.91113 20.6426L7.19678 20.9844C5.9458 21.584 4.49805 20.6719 4.5 19.2852V4.71875C4.49805 3.33203 5.94483 2.41797 7.19678 3.01758L7.90723 3.35742C8.14307 3.4707 8.41699 3.47852 8.66016 3.37891L10.6821 2.55469C11.6792 2.14844 12.7949 2.14844 13.792 2.55469L15.8101 3.37891C16.0532 3.47852 16.3262 3.4707 16.563 3.35742L17.2778 3.01562ZM18.4751 4.71484C18.4751 4.43359 18.1802 4.24609 17.9248 4.36914L17.21 4.71094C16.5918 5.00586 15.877 5.02734 15.2432 4.76758L13.2251 3.94336C12.5908 3.68555 11.8818 3.68555 11.248 3.94336L9.22608 4.76758C8.87012 4.91406 8.48926 4.9707 8.11377 4.94141C7.82031 4.91797 7.53028 4.83984 7.25879 4.71094L6.54785 4.37109C6.29395 4.24805 5.99903 4.43359 6 4.7168V19.2871C5.99903 19.5684 6.29297 19.7539 6.54883 19.6309L7.26514 19.2891C7.65039 19.1035 8.07617 19.0273 8.4961 19.0586C8.74658 19.0762 8.99463 19.1348 9.23194 19.2324L11.249 20.0566C11.8828 20.3145 12.5918 20.3145 13.2261 20.0566L15.249 19.2305C15.8828 18.9727 16.5972 18.9941 17.2158 19.291L17.9258 19.6309C18.1802 19.752 18.4751 19.5664 18.4751 19.2832V4.71484Z" fill="#000000" />
</svg>