<svg width="24px"  height="24px"  viewBox="0 0 25 24" fill="none" xmlns="http://www.w3.org/2000/svg">
<path d="M15.4277 14.5137C15.3076 14.5957 15.1621 14.6445 15.0059 14.6445H9.50195C9.08789 14.6445 8.75195 14.3086 8.75195 13.8945C8.75195 13.6055 8.91699 13.3535 9.15771 13.2285C9.26074 13.1758 9.37793 13.1445 9.50195 13.1445H15.0059C15.4199 13.1445 15.7559 13.4805 15.7559 13.8945C15.7559 14.1523 15.626 14.3789 15.4277 14.5137Z" fill="#000000" />
<path d="M13.9209 9.61914C13.9209 10.0332 13.585 10.3691 13.1709 10.3691H9.50195C9.08789 10.3691 8.75195 10.0332 8.75195 9.61914C8.75195 9.33594 8.9082 9.0918 9.13867 8.96289C9.24609 8.90234 9.37012 8.86914 9.50195 8.86914H13.1709C13.585 8.86914 13.9209 9.20508 13.9209 9.61914Z" fill="#000000" />
<path fill-rule="evenodd" clip-rule="evenodd" d="M4.29346 3.75H3.25C2.83594 3.75 2.5 3.41406 2.5 3C2.5 2.58594 2.83594 2.25 3.25 2.25H21.25C21.6641 2.25 22 2.58594 22 3C22 3.41406 21.6641 3.75 21.25 3.75H20.2041L20.2202 18.7383C20.2222 20.1523 18.7461 21.0859 17.4702 20.4746L16.7368 20.123C16.4849 20.0039 16.1958 19.9941 15.939 20.0996L13.8501 20.9492C13.2832 21.1816 12.6787 21.2852 12.0781 21.2598C11.5942 21.2383 11.1133 21.1348 10.6562 20.9492L8.5708 20.0996C8.31396 19.9941 8.02393 20.002 7.77393 20.1211L7.03418 20.4766C5.75879 21.0859 4.28418 20.1543 4.28418 18.7422L4.29346 3.75ZM18.7041 3.75L18.7202 18.7402C18.7207 18.8887 18.6475 19.0117 18.5405 19.0859C18.4229 19.168 18.2642 19.1914 18.1182 19.1211L17.3838 18.7695C17.1362 18.6523 16.8735 18.5762 16.6064 18.5449C16.1919 18.4941 15.7671 18.5488 15.3721 18.709L13.2842 19.5605C12.9106 19.7129 12.5127 19.7793 12.1177 19.7598C11.813 19.7441 11.5103 19.6777 11.2231 19.5605L9.13818 18.709C8.49023 18.4453 7.75879 18.4668 7.12598 18.7695L6.38721 19.123C6.10791 19.2559 5.78418 19.0527 5.78418 18.7422L5.79346 3.75H18.7041Z" fill="#000000" />
</svg>