<svg width="24px"  height="24px"  viewBox="0 0 25 24" fill="none" xmlns="http://www.w3.org/2000/svg">
<path fill-rule="evenodd" clip-rule="evenodd" d="M13.9959 4.50592L12.1486 5.32729C11.544 5.5905 10.8549 5.58284 10.2557 5.26897L10.2538 5.26794L9.60598 4.92619C9.5286 4.88754 9.45233 4.8933 9.37572 4.94591C9.29352 5.00236 9.21805 5.11403 9.21805 5.27595V17.8205C9.21805 18.5059 9.0125 19.1432 8.65964 19.6742H18.0012C18.8648 19.6742 19.4526 19.3905 19.8359 18.948C20.2324 18.4902 20.4912 17.7678 20.4912 16.7522L20.5 5.27595C20.5 5.27582 20.5 5.27608 20.5 5.27595C20.4999 5.1079 20.423 4.99768 20.344 4.94374C20.2697 4.89305 20.1927 4.88587 20.1121 4.92617L19.4643 5.26794L19.4616 5.26933C18.8621 5.58259 18.1743 5.59061 17.5695 5.32727L17.5642 5.32496L15.7222 4.50594C15.1645 4.26365 14.5536 4.26365 13.9959 4.50592ZM5.86341 19.6742C6.8884 19.6742 7.71805 18.8441 7.71805 17.8205V10.2728L6.9311 10.6239C6.32696 10.8876 5.63762 10.8796 5.03864 10.5658L5.03669 10.5648L4.38888 10.223C4.30795 10.1826 4.23049 10.1898 4.1561 10.2405C4.07707 10.2944 4 10.4042 4 10.5728V17.8205C4 18.3272 4.20603 18.792 4.54898 19.1349C4.88034 19.4663 5.34403 19.6742 5.86341 19.6742ZM7.71805 8.64582C7.66973 8.65748 7.61942 8.67405 7.56836 8.69713L6.32874 9.25012C6.12249 9.33938 5.91211 9.32973 5.73548 9.23752C5.73576 9.23767 5.73521 9.23738 5.73548 9.23752L5.08375 8.89368L5.07596 8.88964C3.8041 8.23754 2.5 9.27827 2.5 10.5728V17.8205C2.5 18.744 2.87776 19.585 3.48832 20.1956C4.09296 20.8002 4.93499 21.1742 5.86341 21.1742H18.0012C19.2218 21.1742 20.254 20.7563 20.9697 19.9301C21.672 19.1192 21.9911 18.0058 21.9912 16.7527M21.9912 16.7527L22 5.27652C22 3.98431 20.698 2.94009 19.425 3.59277L18.767 3.93987C18.7666 3.94005 18.7663 3.94024 18.7659 3.94043C18.5879 4.03302 18.378 4.04255 18.1705 3.95294L16.3289 3.13409L16.3238 3.13186C15.3826 2.72167 14.3355 2.72167 13.3943 3.13186L11.5475 3.95296C11.3396 4.04272 11.129 4.03276 10.9525 3.94065C10.9528 3.94079 10.9523 3.94051 10.9525 3.94065L10.3008 3.59682L10.293 3.59277C9.01572 2.93787 7.71805 3.99767 7.71805 5.27595V8.64582M11.348 9.86434C11.348 9.45012 11.6838 9.11434 12.098 9.11434H17.497C17.9112 9.11434 18.247 9.45012 18.247 9.86434C18.247 10.2786 17.9112 10.6143 17.497 10.6143H12.098C11.6838 10.6143 11.348 10.2786 11.348 9.86434ZM11.348 14.0584C11.348 13.6442 11.6838 13.3084 12.098 13.3084H17.497C17.9112 13.3084 18.247 13.6442 18.247 14.0584C18.247 14.4726 17.9112 14.8084 17.497 14.8084H12.098C11.6838 14.8084 11.348 14.4726 11.348 14.0584Z" fill="#000000" />
</svg>