<svg width="24px"  height="24px"  viewBox="0 0 25 24" fill="none" xmlns="http://www.w3.org/2000/svg">
<path d="M15.7959 14.1973C15.7959 14.6113 15.46 14.9473 15.0459 14.9473H9.38867C8.97461 14.9473 8.63867 14.6113 8.63867 14.1973C8.63867 13.7832 8.97461 13.4473 9.38867 13.4473H15.0459C15.3272 13.4473 15.5723 13.6016 15.7007 13.8301C15.7612 13.9395 15.7959 14.0645 15.7959 14.1973Z" fill="#000000" />
<path d="M15.7959 9.80273C15.7959 10.2168 15.46 10.5527 15.0459 10.5527H9.38867C8.97461 10.5527 8.63867 10.2168 8.63867 9.80273C8.63867 9.38867 8.97461 9.05273 9.38867 9.05273H15.0459C15.2163 9.05273 15.3735 9.10938 15.4995 9.20508C15.6797 9.3418 15.7959 9.55859 15.7959 9.80273Z" fill="#000000" />
<path fill-rule="evenodd" clip-rule="evenodd" d="M16.834 20.5781C16.5718 20.4531 16.269 20.4434 15.998 20.5547L13.8521 21.4297C12.8047 21.8574 11.6318 21.8574 10.585 21.4297L8.4419 20.5547C8.17188 20.4434 7.86768 20.4531 7.60596 20.5781L6.84571 20.9434C5.54883 21.5645 4.04785 20.6172 4.04981 19.1797L4.06006 6.92578C4.06006 5.57812 4.43604 4.39258 5.23975 3.53906C6.05078 2.67969 7.20801 2.25 8.57569 2.25H15.875C17.2456 2.25 18.3999 2.67969 19.2036 3.54297C20.002 4.39844 20.3677 5.58203 20.3677 6.92383L20.3857 19.1777C20.3867 20.6152 18.8867 21.5625 17.5889 20.9414L16.835 20.5801L16.834 20.5781ZM6.19776 19.5898L6.95801 19.2266C7.60303 18.918 8.34766 18.8945 9.00977 19.166L11.1519 20.041C11.502 20.1836 11.8735 20.2539 12.2451 20.25C12.5986 20.248 12.9517 20.1777 13.2847 20.041L15.4316 19.166C16.0928 18.8945 16.8389 18.916 17.4829 19.2266L18.2368 19.5879C18.5376 19.7324 18.8857 19.5137 18.8857 19.1777L18.8677 6.92578C18.8677 5.84375 18.5747 5.06641 18.1069 4.56445C17.647 4.07227 16.9287 3.75 15.875 3.75H8.57569C7.52588 3.75 6.79981 4.07227 6.33203 4.56836C5.85791 5.07031 5.56006 5.84766 5.56006 6.92578L5.54981 19.1797C5.54981 19.5137 5.89795 19.7324 6.19776 19.5898Z" fill="#000000" />
</svg>