<svg width="24px"  height="24px"  viewBox="0 0 25 24" fill="none" xmlns="http://www.w3.org/2000/svg">
<path d="M12.4362 9.19225C12.022 9.19225 11.6862 9.52804 11.6862 9.94225C11.6862 10.3565 12.022 10.6923 12.4362 10.6923H15.1401C15.5543 10.6923 15.8901 10.3565 15.8901 9.94225C15.8901 9.52804 15.5543 9.19225 15.1401 9.19225H12.4362Z" fill="#000000" />
<path d="M12.4362 13.3065C12.022 13.3065 11.6862 13.6423 11.6862 14.0565C11.6862 14.4707 12.022 14.8065 12.4362 14.8065H17.7321C17.9235 14.8065 18.0982 14.7348 18.2307 14.6168C18.385 14.4794 18.4821 14.2793 18.4821 14.0565C18.4821 13.6423 18.1463 13.3065 17.7321 13.3065H12.4362Z" fill="#000000" />
<path fill-rule="evenodd" clip-rule="evenodd" d="M7.56836 8.69714C7.61942 8.67405 7.66973 8.65748 7.71805 8.64582V5.27595C7.71805 3.99767 9.01572 2.93787 10.293 3.59277L10.3008 3.59682L10.9525 3.94065C11.1293 4.03292 11.3398 4.04253 11.5462 3.95309L13.3943 3.13186C14.3355 2.72167 15.3826 2.72167 16.3238 3.13186L16.3289 3.13409L18.1705 3.95294C18.378 4.04255 18.5879 4.03302 18.7659 3.94043L18.767 3.93987L19.425 3.59277C20.698 2.94009 22 3.98431 22 5.27652L21.9912 16.7527C21.9911 18.0058 21.672 19.1192 20.9697 19.9301C20.254 20.7563 19.2218 21.1742 18.0012 21.1742H5.86341C4.93499 21.1742 4.09296 20.8002 3.48832 20.1956C2.87776 19.585 2.5 18.744 2.5 17.8205V10.5728C2.5 9.27827 3.8041 8.23754 5.07596 8.88964L5.08375 8.89368L5.73548 9.23752C5.91211 9.32973 6.12249 9.33938 6.32874 9.25012L7.56836 8.69714ZM12.1482 5.32702L13.9958 4.50595C14.5535 4.26365 15.1645 4.26364 15.7222 4.50594L17.5642 5.32496L17.5695 5.32727C18.1743 5.59061 18.8621 5.58259 19.4616 5.26933L19.4643 5.26794L20.1121 4.92617C20.1927 4.88587 20.2697 4.89305 20.344 4.94374C20.423 4.99768 20.4999 5.1079 20.5 5.27595L20.4912 16.7522C20.4912 17.7678 20.2324 18.4902 19.8359 18.948C19.4526 19.3905 18.8648 19.6742 18.0012 19.6742H8.65964C9.0125 19.1432 9.21805 18.5059 9.21805 17.8205V5.27595C9.21805 5.11403 9.29352 5.00236 9.37572 4.94591C9.45233 4.8933 9.5286 4.88754 9.60598 4.92619L10.2538 5.26794L10.2557 5.26897C10.8547 5.58272 11.544 5.5907 12.1482 5.32702ZM7.71805 17.8205C7.71805 18.8441 6.8884 19.6742 5.86341 19.6742C5.34403 19.6742 4.88034 19.4663 4.54898 19.1349C4.20603 18.792 4 18.3272 4 17.8205V10.5728C4 10.4042 4.07707 10.2944 4.1561 10.2405C4.23049 10.1898 4.30795 10.1826 4.38888 10.223L5.03669 10.5648L5.03864 10.5658C5.63762 10.8796 6.32696 10.8876 6.9311 10.6239L7.71805 10.2728V17.8205Z" fill="#000000" />
</svg>