<svg width="24px"  height="24px"  viewBox="0 0 25 24" fill="none" xmlns="http://www.w3.org/2000/svg">
<path fill-rule="evenodd" clip-rule="evenodd" d="M13.8832 21.4291L16.025 20.5547C16.2964 20.4443 16.6007 20.4532 16.8622 20.5783L17.6221 20.9422C18.9188 21.5629 20.4198 20.6171 20.4182 19.1791L20.4085 6.92408C20.4084 5.57797 20.0323 4.39241 19.2277 3.53902C18.4169 2.67907 17.2599 2.25 15.892 2.25H8.59265C7.22156 2.25 6.06837 2.67908 5.26343 3.54189C4.46588 4.39678 4.09964 5.5817 4.09955 6.92354L4.08203 19.1759C4.08045 20.6138 5.58038 21.5625 6.87904 20.9403L7.6342 20.5788C7.89615 20.4529 8.19932 20.4437 8.46916 20.5542L10.6154 21.4288C11.6629 21.8575 12.8372 21.8562 13.8832 21.4291ZM13.3162 20.0404C12.6324 20.3196 11.8662 20.3201 11.1838 20.0407L9.03722 19.1659C8.37528 18.8952 7.62959 18.9169 6.98501 19.2265L6.23136 19.5873C5.93057 19.7315 5.58184 19.5127 5.58203 19.178L5.59955 6.92408C5.59955 5.84339 5.89252 5.06647 6.36024 4.56513C6.82067 4.07159 7.53904 3.75 8.59265 3.75H15.892C16.942 3.75 17.6683 4.07159 18.1363 4.568C18.6103 5.07083 18.9085 5.84768 18.9085 6.92408L18.9182 19.1805C18.9186 19.5133 18.5709 19.7333 18.27 19.5893L17.51 19.2254C16.8649 18.9167 16.12 18.8965 15.4594 19.1654L13.3162 20.0404Z" fill="#000000" />
<path fill-rule="evenodd" clip-rule="evenodd" d="M8.67139 9.80261C8.67139 9.3884 9.00717 9.05261 9.42139 9.05261H13.1926C13.6068 9.05261 13.9426 9.3884 13.9426 9.80261C13.9426 10.2168 13.6068 10.5526 13.1926 10.5526H9.42139C9.00717 10.5526 8.67139 10.2168 8.67139 9.80261ZM8.67139 14.1971C8.67139 13.7829 9.00717 13.4471 9.42139 13.4471H15.0782C15.4924 13.4471 15.8282 13.7829 15.8282 14.1971C15.8282 14.6113 15.4924 14.9471 15.0782 14.9471H9.42139C9.00717 14.9471 8.67139 14.6113 8.67139 14.1971Z" fill="#000000" />
</svg>