<svg width="24px"  height="24px"  viewBox="0 0 25 24" fill="none" xmlns="http://www.w3.org/2000/svg">
<path d="M9.82275 14.9473C9.95752 14.8184 10.1401 14.7402 10.3408 14.7402H14.0908C14.5044 14.7402 14.8408 15.0762 14.8408 15.4902C14.8408 15.9043 14.5044 16.2402 14.0908 16.2402H10.3408C9.92676 16.2402 9.59082 15.9043 9.59082 15.4902C9.59082 15.2773 9.67969 15.084 9.82275 14.9473Z" fill="#000000" />
<path fill-rule="evenodd" clip-rule="evenodd" d="M5.42236 11.6289H5.26855C3.93164 11.6289 2.84961 10.5469 2.84961 9.20898V4.66992C2.84961 3.33008 3.93262 2.25 5.26855 2.25H19.1626C20.4995 2.25 21.5806 3.33008 21.5806 4.66992V9.20898C21.5806 10.5469 20.5005 11.6289 19.1626 11.6289H19.0044L19.0137 19.5137C19.0156 20.7871 17.6846 21.627 16.5347 21.0762L15.9204 20.7812C15.7417 20.6953 15.5337 20.6895 15.3506 20.7637L13.5996 21.4785C13.1216 21.6738 12.6133 21.7637 12.1069 21.748C11.6733 21.7344 11.2412 21.6445 10.8315 21.4785L9.08447 20.7656C8.89941 20.6895 8.69385 20.6953 8.51465 20.7812L7.89453 21.0781C6.74658 21.6289 5.41553 20.7891 5.41748 19.5156L5.42236 11.6289ZM5.4248 7.21094C5.42578 6.79688 5.76074 6.46094 6.1748 6.46094H18.2495C18.6636 6.46094 18.9985 6.79492 18.9995 7.20898L19.0029 10.1289H19.1626C19.6714 10.1289 20.0806 9.71875 20.0806 9.20898V4.66992C20.0806 4.16016 19.6714 3.75 19.1626 3.75H5.26855C4.75977 3.75 4.34961 4.16016 4.34961 4.66992V9.20898C4.34961 9.71875 4.76074 10.1289 5.26855 10.1289H5.42285L5.4248 7.21094ZM17.5034 10.7832L17.5005 7.96094H6.92432L6.92285 10.8008C6.92578 10.8262 6.92676 10.8516 6.92676 10.8789C6.92676 10.9062 6.92529 10.9336 6.92236 10.959L6.91748 19.5156C6.9165 19.6855 7.09473 19.7988 7.24756 19.7246L7.8667 19.4277C8.24512 19.248 8.66357 19.1797 9.07275 19.2266C9.27002 19.25 9.46533 19.3008 9.65283 19.377L11.3984 20.0898C11.9229 20.3047 12.5098 20.3027 13.0337 20.0898L14.7837 19.375C14.9824 19.2949 15.1899 19.2441 15.3999 19.2227C15.7969 19.1836 16.2017 19.252 16.5684 19.4297L17.1836 19.7227C17.3374 19.7969 17.5146 19.6836 17.5137 19.5156L17.5039 10.9766C17.5 10.9453 17.4976 10.9121 17.4976 10.8789C17.4976 10.8457 17.4995 10.8145 17.5034 10.7832Z" fill="#000000" />
</svg>