<svg width="24px"  height="24px"  viewBox="0 0 25 24" fill="none" xmlns="http://www.w3.org/2000/svg">
<path fill-rule="evenodd" clip-rule="evenodd" d="M4.64773 3.73657C5.69853 2.75842 7.14899 2.25 8.77638 2.25H16.7236C18.3519 2.25 19.8023 2.76117 20.8526 3.7402C21.9088 4.72468 22.5 6.12669 22.5 7.78216V16.2169C22.5 17.8762 21.9092 19.2788 20.8524 20.2629C19.8016 21.2413 18.3511 21.75 16.7236 21.75H8.77638C7.14889 21.75 5.69838 21.2413 4.64761 20.2627C3.5908 19.2785 3 17.8757 3 16.2159V7.78216C3 6.1228 3.59086 4.72038 4.64773 3.73657ZM5.66976 4.83451C4.94973 5.50475 4.5 6.49341 4.5 7.78216V16.2159C4.5 17.5052 4.9498 18.4944 5.66988 19.165C6.39599 19.8412 7.45868 20.25 8.77638 20.25H16.7236C18.0413 20.25 19.104 19.8412 19.8302 19.1651C20.5503 18.4946 21 17.5056 21 16.2169V7.78216C21 6.49828 20.5506 5.50921 19.8299 4.83745C19.1033 4.16024 18.0405 3.75 16.7236 3.75H8.77638C7.45857 3.75 6.39585 4.15861 5.66976 4.83451ZM7.70049 9.11759C7.70049 7.97754 8.62492 7.0531 9.76497 7.0531H15.7342C16.8742 7.0531 17.7986 7.97754 17.7986 9.11759V9.78505C17.7986 10.5136 17.4921 11.2095 16.9548 11.7013L14.5549 14.0741C14.5467 14.0821 14.5384 14.09 14.5299 14.0977C14.5294 14.0981 14.529 14.0986 14.5287 14.0994C14.5286 14.0999 14.5285 14.1005 14.5285 14.1012V15.0751C14.5285 15.6915 14.1517 16.2443 13.5811 16.4715M13.5811 16.4715L12.6601 16.8381C12.66 16.8382 12.6602 16.8381 12.6601 16.8381C11.6719 17.2319 10.5999 16.5037 10.5999 15.4419L10.5999 13.863C10.5999 13.863 10.6 13.8632 10.5999 13.863L8.49274 11.9866C8.48192 11.977 8.47138 11.967 8.46113 11.9568C7.97442 11.4701 7.70049 10.8105 7.70049 10.1217V9.11759M9.76497 8.5531C9.45335 8.5531 9.20049 8.80597 9.20049 9.11759V10.1217C9.20049 10.4055 9.3108 10.678 9.50851 10.8826L11.6278 12.7694C11.6393 12.7796 11.6504 12.7902 11.6612 12.8011C11.9402 13.082 12.0999 13.4629 12.0999 13.8628V15.4419C12.0999 15.4426 12.1 15.4431 12.1 15.4436C12.1003 15.4439 12.1008 15.4442 12.1014 15.4446C12.1019 15.445 12.1024 15.4453 12.1027 15.4455C12.1032 15.4453 12.1038 15.4451 12.1044 15.4448L13.0263 15.0779C13.0267 15.0777 13.0272 15.0775 13.0279 15.0764C13.0286 15.0755 13.0285 15.0752 13.0285 15.0751V14.1012C13.0285 13.6816 13.2032 13.2819 13.5104 12.9973L15.9113 10.6236C15.9194 10.6156 15.9277 10.6077 15.9362 10.6001C16.1668 10.392 16.2986 10.0952 16.2986 9.78505V9.11759C16.2986 8.80597 16.0458 8.5531 15.7342 8.5531H9.76497Z" fill="#000000" />
</svg>