<svg width="24px"  height="24px"  viewBox="0 0 25 24" fill="none" xmlns="http://www.w3.org/2000/svg">
<path fill-rule="evenodd" clip-rule="evenodd" d="M9.33079 5.76615C9.33079 4.25031 10.5596 3.02148 12.0755 3.02148H16.7754C18.2913 3.02148 19.5201 4.25031 19.5201 5.76615V5.77304H21.7493C22.1635 5.77304 22.4993 6.10883 22.4993 6.52304C22.4993 6.93726 22.1635 7.27304 21.7493 7.27304H19.5201C19.5142 8.78387 18.2877 10.0068 16.7754 10.0068H12.0755C10.5632 10.0068 9.33666 8.78385 9.33081 7.27301H3.75C3.33579 7.27301 3 6.93723 3 6.52301C3 6.1088 3.33579 5.77301 3.75 5.77301H9.33079V5.76615ZM12.0755 4.52148C11.388 4.52148 10.8308 5.07874 10.8308 5.76615V7.26215C10.8308 7.94956 11.388 8.50681 12.0755 8.50681H16.7754C17.4629 8.50681 18.0201 7.94956 18.0201 7.26215V5.76615C18.0201 5.07874 17.4629 4.52148 16.7754 4.52148H12.0755ZM5.97977 16.7259C5.98564 15.2151 7.21221 13.9922 8.72441 13.9922H12.0589C13.5712 13.9922 14.7977 15.2151 14.8036 16.726H21.75C22.1642 16.726 22.5 17.0618 22.5 17.476C22.5 17.8902 22.1642 18.226 21.75 18.226H14.8036V18.2328C14.8036 19.7487 13.5748 20.9775 12.0589 20.9775H8.72441C7.20858 20.9775 5.97975 19.7487 5.97975 18.2328V18.2259H3.75016C3.33595 18.2259 3.00016 17.8902 3.00016 17.4759C3.00016 17.0617 3.33595 16.7259 3.75016 16.7259H5.97977ZM8.72441 15.4922C8.037 15.4922 7.47975 16.0494 7.47975 16.7368V18.2328C7.47975 18.9203 8.037 19.4775 8.72441 19.4775H12.0589C12.7463 19.4775 13.3036 18.9203 13.3036 18.2328V16.7368C13.3036 16.0494 12.7464 15.4922 12.0589 15.4922H8.72441Z" fill="#000000" />
</svg>