<svg width="24px"  height="24px"  viewBox="0 0 25 24" fill="none" xmlns="http://www.w3.org/2000/svg">
<path fill-rule="evenodd" clip-rule="evenodd" d="M2.60547 6.26037C2.60547 4.04522 4.40069 2.25 6.61584 2.25H17.8836C20.0979 2.25 21.893 4.04536 21.893 6.26037V8.33568C21.893 8.35251 21.8929 8.36932 21.8927 8.38613C21.8933 8.39849 21.8936 8.41094 21.8936 8.42346C21.8936 8.44961 21.8923 8.47545 21.8897 8.50091C21.8439 9.62914 21.3308 10.6897 20.4687 11.4267L15.8141 15.4051C15.4039 15.7557 15.168 16.2683 15.168 16.8082V18.1372C15.168 19.4235 14.3584 20.571 13.1475 21.0035L11.4574 21.6068C9.86986 22.1729 8.19995 20.997 8.19995 19.3106V16.6642C8.19995 16.1732 8.01728 15.7009 7.68762 15.3396L3.66377 10.9177C2.98263 10.1686 2.60547 9.19256 2.60547 8.18098V6.26037ZM20.393 7.67346H14.9654C14.5511 7.67346 14.2154 8.00924 14.2154 8.42346C14.2154 8.83767 14.5511 9.17346 14.9654 9.17346H20.2525C20.105 9.60053 19.8455 9.98598 19.494 10.2865L14.8394 14.2649C14.0956 14.9008 13.668 15.8302 13.668 16.8082V18.1372C13.668 18.789 13.2574 19.3714 12.643 19.5909L10.9533 20.194C10.342 20.4119 9.69995 19.9593 9.69995 19.3106V16.6642C9.69995 15.8009 9.37868 14.9675 8.79581 14.3287L4.77339 9.90839C4.34355 9.43552 4.10547 8.81942 4.10547 8.18098V6.26037C4.10547 4.87364 5.22911 3.75 6.61584 3.75H17.8836C19.2692 3.75 20.393 4.8735 20.393 6.26037V7.67346Z" fill="#000000" />
</svg>