<svg width="24px"  height="24px"  viewBox="0 0 25 24" fill="none" xmlns="http://www.w3.org/2000/svg">
<path fill-rule="evenodd" clip-rule="evenodd" d="M6.08065 4.2168C4.9318 4.2168 4 5.14884 4 6.29745C4 7.44606 4.9318 8.3781 6.08065 8.3781C7.22823 8.3781 8.16021 7.44624 8.16021 6.29745C8.16021 5.14865 7.22823 4.2168 6.08065 4.2168ZM2.5 6.29745C2.5 4.32054 4.10324 2.7168 6.08065 2.7168C8.05716 2.7168 9.66021 4.32073 9.66021 6.29745C9.66021 8.27417 8.05716 9.8781 6.08065 9.8781C4.10324 9.8781 2.5 8.27435 2.5 6.29745ZM12.7711 6.41646C12.7711 6.00224 13.1069 5.66646 13.5211 5.66646H20.7444C21.1586 5.66646 21.4944 6.00224 21.4944 6.41646C21.4944 6.83067 21.1586 7.16646 20.7444 7.16646H13.5211C13.1069 7.16646 12.7711 6.83067 12.7711 6.41646ZM18.4193 15.6224C17.2709 15.6224 16.3398 16.554 16.3398 17.703C16.3398 18.852 17.2709 19.7837 18.4193 19.7837C19.5682 19.7837 20.5 18.8516 20.5 17.703C20.5 16.5544 19.5682 15.6224 18.4193 15.6224ZM14.8398 17.703C14.8398 15.7265 16.4416 14.1224 18.4193 14.1224C20.3968 14.1224 22 15.7261 22 17.703C22 19.6799 20.3968 21.2837 18.4193 21.2837C16.4416 21.2837 14.8398 19.6795 14.8398 17.703ZM3.00493 17.577C3.00493 17.1628 3.34071 16.827 3.75493 16.827H10.9783C11.3925 16.827 11.7283 17.1628 11.7283 17.577C11.7283 17.9912 11.3925 18.327 10.9783 18.327H3.75493C3.34071 18.327 3.00493 17.9912 3.00493 17.577Z" fill="#000000" />
</svg>