<svg width="24px"  height="24px"  viewBox="0 0 25 24" fill="none" xmlns="http://www.w3.org/2000/svg">
<path d="M13.4989 8.92525C13.4989 9.33947 13.1631 9.67525 12.7489 9.67525C12.3347 9.67525 11.9989 9.33947 11.9989 8.92525V4.81826L10.983 5.83894C10.6908 6.13252 10.2159 6.13362 9.92232 5.84141C9.62875 5.54919 9.62764 5.07432 9.91986 4.78075L12.1967 2.49327C12.2787 2.40418 12.3819 2.33497 12.4983 2.2937C12.5785 2.26506 12.6637 2.25001 12.7505 2.25C12.95 2.24998 13.1412 2.32943 13.282 2.47079L15.5821 4.78064C15.8744 5.07415 15.8734 5.54902 15.5799 5.8413C15.2864 6.13357 14.8115 6.13257 14.5192 5.83906L13.4989 4.81444V8.92525Z" fill="#000000" />
<path d="M4.87695 6.80128C4.87695 5.7601 5.72121 4.91549 6.76372 4.91549C7.17793 4.91549 7.51372 4.5797 7.51372 4.16549C7.51372 3.75127 7.17793 3.41549 6.76372 3.41549C4.89314 3.41549 3.37695 4.93131 3.37695 6.80128V8.81534C3.37695 9.99686 3.84608 11.1297 4.68186 11.9643C4.69199 11.9744 4.70239 11.9842 4.71308 11.9938L8.98201 15.7948C9.11734 15.9367 9.19243 16.1247 9.19243 16.3199V19.487C9.19243 21.0857 10.8057 22.1787 12.2903 21.5878L14.1397 20.8519C14.9995 20.5086 15.5632 19.6773 15.5632 18.7514V16.7976C15.5632 16.5827 15.6544 16.3771 15.8156 16.2317C15.8242 16.224 15.8325 16.2162 15.8406 16.2081L20.6655 11.4366C21.5936 10.5933 22.123 9.39601 22.123 8.14107V6.80128C22.123 4.93149 20.607 3.41549 18.7372 3.41549C18.323 3.41549 17.9872 3.75127 17.9872 4.16549C17.9872 4.5797 18.323 4.91549 18.7372 4.91549C19.7785 4.91549 20.623 5.75992 20.623 6.80128V8.14107C20.623 8.97781 20.2682 9.77546 19.6478 10.3346C19.6392 10.3423 19.6308 10.3503 19.6226 10.3584L14.7969 15.1307C14.3304 15.5586 14.0632 16.1626 14.0632 16.7976V18.7514C14.0632 19.0631 13.8737 19.3429 13.5834 19.4589L11.7356 20.1941C11.2353 20.3933 10.6924 20.0249 10.6924 19.487V16.3199C10.6924 15.7214 10.455 15.1462 10.0301 14.7213C10.0198 14.711 10.0093 14.7011 9.99848 14.6914L5.7275 10.8886C5.1828 10.3371 4.87695 9.59247 4.87695 8.81534V6.80128Z" fill="#000000" />
</svg>