<svg width="24px"  height="24px"  viewBox="0 0 25 24" fill="none" xmlns="http://www.w3.org/2000/svg">
<path d="M17.1318 5.16797C17.1318 4.75391 17.4678 4.41797 17.8818 4.41797C19.6646 4.41797 21.1108 5.86328 21.1108 7.64648V8.90625C21.1108 10.0957 20.6143 11.2266 19.7368 12.0273C19.73 12.0332 19.7183 12.0449 19.7114 12.0508L15.1885 16.5254L15.1636 16.5488C15.0215 16.6758 14.9404 16.8594 14.9404 17.0469V18.8848C14.9404 19.7734 14.3994 20.5723 13.5728 20.9023L11.8354 21.5938C10.4087 22.1621 8.85986 21.1113 8.85986 19.5781V16.5996C8.85986 16.4258 8.79395 16.2598 8.67529 16.1367C8.67139 16.1328 8.66748 16.1289 8.66357 16.125L4.6626 12.5625L4.63184 12.5332C3.83643 11.7402 3.39062 10.6641 3.39062 9.54102V7.64648C3.39062 5.86328 4.83643 4.41797 6.61963 4.41797C7.03467 4.41797 7.36963 4.75391 7.36963 5.16797C7.36963 5.58203 7.03467 5.91797 6.61963 5.91797C6.1377 5.91797 5.70117 6.11523 5.38721 6.43359C5.08008 6.74609 4.89062 7.17383 4.89062 7.64648V9.54102C4.89062 10.2578 5.17236 10.9453 5.67529 11.457C5.68066 11.4629 5.68604 11.4668 5.69141 11.4727L9.69238 15.0332L9.72363 15.0645C10.1304 15.4707 10.3599 16.0215 10.3599 16.5996V19.5781C10.3599 19.832 10.499 20.0449 10.6963 20.1582C10.8652 20.2559 11.0771 20.2812 11.2808 20.2012L13.0176 19.5098C13.2734 19.4062 13.4404 19.1602 13.4404 18.8848V17.0469C13.4404 16.4395 13.6865 15.8691 14.1338 15.459C14.1387 15.4551 14.1538 15.4395 14.1587 15.4355L18.6826 10.9609L18.7075 10.9375C19.2827 10.418 19.6108 9.68164 19.6108 8.90625V7.64648C19.6108 6.69141 18.8364 5.91797 17.8818 5.91797C17.4678 5.91797 17.1318 5.58203 17.1318 5.16797Z" fill="#000000" />
<path d="M12.0688 7.25977C12.0688 7.60547 11.834 7.89844 11.5151 7.98438C11.6963 8.05078 11.8921 8.08594 12.0938 8.08594C12.8618 8.08594 13.5337 7.67188 13.8926 7.05078C14.0996 6.69141 14.5586 6.56836 14.9175 6.77734C15.2754 6.98438 15.3984 7.44141 15.1914 7.80078C14.5737 8.87109 13.4155 9.58594 12.0938 9.58594C11.6377 9.58594 11.2275 9.48633 10.8677 9.33398C10.6665 9.25 10.4771 9.14648 10.3086 9.03906C10.2354 9.37695 9.93457 9.62891 9.57568 9.62891C9.16162 9.62891 8.82568 9.29492 8.82568 8.87891V7.28125C8.82568 7.27539 8.82568 7.26562 8.82568 7.25977C8.82568 6.8457 9.16162 6.50977 9.57568 6.50977H11.3188C11.7324 6.50977 12.0688 6.8457 12.0688 7.25977Z" fill="#000000" />
<path d="M14.9258 2.25C15.3394 2.25 15.6758 2.58594 15.6758 3V4.74219C15.6758 4.74805 15.6753 4.75586 15.6753 4.76172C15.6709 5.01172 15.5415 5.25586 15.3115 5.39453C15.1548 5.48828 14.9775 5.51953 14.8101 5.49219H13.1826C12.7686 5.49219 12.4326 5.15625 12.4326 4.74219C12.4326 4.4375 12.6138 4.17578 12.874 4.05859C12.6421 3.98242 12.3833 3.93359 12.0947 3.93359C11.3164 3.93359 10.6465 4.34961 10.2886 4.97461C10.0835 5.33398 9.62549 5.45898 9.26562 5.25391C8.90576 5.04883 8.78076 4.58984 8.98682 4.23047C9.60352 3.15039 10.7646 2.43359 12.0947 2.43359C12.9478 2.43359 13.6426 2.69336 14.1758 3.01758V3C14.1758 2.58594 14.5117 2.25 14.9258 2.25Z" fill="#000000" />
</svg>