<svg width="24px"  height="24px"  viewBox="0 0 25 24" fill="none" xmlns="http://www.w3.org/2000/svg">
<path fill-rule="evenodd" clip-rule="evenodd" d="M11.8104 3.79003C11.9534 3.76373 12.1009 3.75 12.2518 3.75C13.586 3.75 14.6678 4.83182 14.6678 6.16602C14.6678 6.58024 15.0036 6.91602 15.4178 6.91602C15.832 6.91602 16.1678 6.58024 16.1678 6.16602C16.1678 4.00339 14.4144 2.25 12.2518 2.25C11.2584 2.25 10.3508 2.62009 9.66047 3.22987C9.47423 3.39438 9.38156 3.64045 9.41301 3.88694C9.44447 4.13343 9.59598 4.34834 9.81757 4.4608L11.3763 5.25182C11.7456 5.43927 12.197 5.29179 12.3845 4.92242C12.5719 4.55305 12.4244 4.10166 12.0551 3.91421L11.8104 3.79003ZM6.4241 5.36432C5.42052 5.36432 4.60742 6.17779 4.60742 7.18003V9.14055C4.60742 9.88973 4.90306 10.6095 5.42922 11.1441L9.58586 14.8453C9.59634 14.8547 9.60655 14.8643 9.61649 14.8742C10.0348 15.2911 10.2681 15.8572 10.2681 16.4456V19.5279C10.2681 20.0374 10.7823 20.3859 11.2553 20.1973L13.0546 19.4811C13.0547 19.4811 13.0546 19.4811 13.0546 19.4811C13.3289 19.3718 13.5094 19.1057 13.5094 18.8108V16.9097C13.5094 16.2877 13.7698 15.6937 14.2298 15.2726L18.9257 10.6281C18.9339 10.62 18.9423 10.612 18.951 10.6042C19.551 10.0635 19.894 9.2931 19.894 8.4838V7.18003C19.894 6.17742 19.0815 5.36432 18.0783 5.36432C17.664 5.36432 17.3283 5.02853 17.3283 4.61432C17.3283 4.20011 17.664 3.86432 18.0783 3.86432C19.9103 3.86432 21.394 5.34936 21.394 7.18003V8.4838C21.394 9.71162 20.8761 10.8816 19.9687 11.7063L15.2733 16.3503C15.2649 16.3586 15.2563 16.3667 15.2475 16.3746C15.0956 16.5112 15.0094 16.7053 15.0094 16.9097V18.8108C15.0094 19.7204 14.4542 20.5383 13.6096 20.8746L11.8109 21.5906C11.8108 21.5907 11.8111 21.5905 11.8109 21.5906C10.3518 22.1721 8.76812 21.0965 8.76812 19.5279V16.4456C8.76812 16.2595 8.69657 16.0817 8.56981 15.9491L4.41433 12.2489C4.40338 12.2391 4.39273 12.2291 4.38238 12.2187C3.56718 11.4023 3.10742 10.2954 3.10742 9.14055V7.18003C3.10742 5.34899 4.59246 3.86432 6.4241 3.86432C6.83831 3.86432 7.1741 4.20011 7.1741 4.61432C7.1741 5.02853 6.83831 5.36432 6.4241 5.36432ZM9.0852 5.41593C9.49941 5.41593 9.8352 5.75172 9.8352 6.16593C9.8352 7.50013 10.917 8.58195 12.2512 8.58195C12.4021 8.58195 12.5496 8.56822 12.6926 8.54192L12.4479 8.41775C12.0785 8.23029 11.9311 7.7789 12.1185 7.40953C12.306 7.04016 12.7574 6.89269 13.1267 7.08014L14.6854 7.87116C14.907 7.98361 15.0585 8.19852 15.09 8.44501C15.1214 8.69151 15.0288 8.93758 14.8425 9.10208C14.1522 9.71186 13.2446 10.082 12.2512 10.082C10.0886 10.082 8.3352 8.32856 8.3352 6.16593C8.3352 5.75172 8.67099 5.41593 9.0852 5.41593Z" fill="#000000" />
</svg>