<svg width="24px"  height="24px"  viewBox="0 0 25 24" fill="none" xmlns="http://www.w3.org/2000/svg">
<path fill-rule="evenodd" clip-rule="evenodd" d="M12.2504 3.75C11.6773 3.75 11.1555 3.96266 10.7569 4.31443C10.4463 4.58852 9.97239 4.55895 9.6983 4.24839C9.42421 3.93783 9.45378 3.46388 9.76434 3.18979C10.4263 2.60555 11.2978 2.25 12.2504 2.25C14.3254 2.25 16.0078 3.93238 16.0078 6.00746C16.0078 6.42168 15.672 6.75746 15.2578 6.75746C14.8436 6.75746 14.5078 6.42168 14.5078 6.00746C14.5078 4.76081 13.497 3.75 12.2504 3.75ZM6.52097 5.64084C5.54188 5.64084 4.74805 6.43468 4.74805 7.41376V9.34025C4.74805 10.0742 5.03711 10.7782 5.55214 11.3008L9.638 14.9391C9.64881 14.9487 9.65934 14.9586 9.66957 14.9688C10.0812 15.3805 10.3135 15.9388 10.3135 16.5218V19.5526C10.3135 20.0438 10.8096 20.381 11.267 20.1995M11.267 20.1995L13.0358 19.4951C13.3001 19.3898 13.474 19.1338 13.474 18.8482V16.9791C13.474 16.3626 13.7334 15.7763 14.1851 15.361L18.8028 10.7938C18.8111 10.7856 18.8195 10.7776 18.8282 10.7698C19.4157 10.2406 19.7516 9.48666 19.7516 8.69517V7.41376C19.7516 6.43468 18.9578 5.64084 17.9787 5.64084C17.5645 5.64084 17.2287 5.30505 17.2287 4.89084C17.2287 4.47663 17.5645 4.14084 17.9787 4.14084C19.7862 4.14084 21.2516 5.60625 21.2516 7.41376V8.69517C21.2516 9.90577 20.7404 11.0592 19.8457 11.872L15.2291 16.4381C15.224 16.4432 15.2189 16.4482 15.2136 16.4531C15.2106 16.4558 15.2077 16.4586 15.2046 16.4613C15.0577 16.5942 14.974 16.7825 14.974 16.9791V18.8482C14.974 19.7476 14.426 20.556 13.5908 20.8886L11.8219 21.5931C10.3802 22.1662 8.81346 21.1045 8.81346 19.5526V16.5218C8.81346 16.3439 8.74484 16.1722 8.62136 16.0423L4.53745 12.4058C4.52664 12.3962 4.51611 12.3862 4.50588 12.376C3.70084 11.571 3.24805 10.4793 3.24805 9.34025V7.41376C3.24805 5.60625 4.71346 4.14084 6.52097 4.14084C6.93518 4.14084 7.27097 4.47663 7.27097 4.89084C7.27097 5.30505 6.93518 5.64084 6.52097 5.64084M9.24299 5.25824C9.6572 5.25824 9.99299 5.59403 9.99299 6.00824C9.99299 7.25489 11.0038 8.2657 12.2505 8.2657C12.8235 8.2657 13.3453 8.05304 13.7439 7.70128C14.0545 7.42719 14.5284 7.45675 14.8025 7.76731C15.0766 8.07787 15.047 8.55182 14.7365 8.82591C14.0745 9.41015 13.203 9.7657 12.2505 9.7657C10.1754 9.7657 8.49299 8.08332 8.49299 6.00824C8.49299 5.59403 8.82877 5.25824 9.24299 5.25824Z" fill="#000000" />
</svg>