<svg width="24px"  height="24px"  viewBox="0 0 25 24" fill="none" xmlns="http://www.w3.org/2000/svg">
<path fill-rule="evenodd" clip-rule="evenodd" d="M2.5 5.96641C2.5 4.03241 4.06757 2.46484 6.00157 2.46484H18.4984C20.4324 2.46484 22 4.03241 22 5.96641V7.36457C22 8.66571 21.4508 9.90563 20.4881 10.7807L15.452 15.7605C15.444 15.7684 15.4358 15.7762 15.4274 15.7837C15.2526 15.9416 15.1532 16.1657 15.1532 16.3996V18.438C15.1532 19.3904 14.5735 20.2481 13.6866 20.6003L11.758 21.3686C11.758 21.3687 11.758 21.3686 11.758 21.3686C10.2303 21.9774 8.56941 20.8519 8.56941 19.2066V15.9014C8.56941 15.688 8.48677 15.4826 8.33969 15.3288L3.88288 11.3613C3.87192 11.3515 3.86125 11.3415 3.85088 11.3311C2.98683 10.4659 2.5 9.29268 2.5 8.06803V5.96641ZM6.00157 3.96484C4.896 3.96484 4 4.86084 4 5.96641V8.06803C4 8.88747 4.32302 9.6733 4.89758 10.2564L9.35593 14.2253C9.36677 14.2349 9.37732 14.2449 9.38757 14.2551C9.82408 14.6916 10.0694 15.2842 10.0694 15.9014V19.2066C10.0694 19.7914 10.6599 20.1915 11.2027 19.9752L13.1322 19.2065C13.4459 19.082 13.6532 18.7777 13.6532 18.438V16.3996C13.6532 15.7465 13.9279 15.1239 14.4082 14.6831L19.4451 9.70251C19.4533 9.69444 19.4617 9.68656 19.4702 9.67888C20.126 9.08734 20.5 8.24664 20.5 7.36457V5.96641C20.5 4.86084 19.604 3.96484 18.4984 3.96484H6.00157Z" fill="#000000" />
</svg>