<svg width="24px"  height="24px"  viewBox="0 0 25 24" fill="none" xmlns="http://www.w3.org/2000/svg">
<path fill-rule="evenodd" clip-rule="evenodd" d="M9.23078 7.36195C8.18247 7.35552 7.32383 8.19978 7.31739 9.25058L7.31851 9.25171C7.31208 10.3 8.15634 11.1587 9.20714 11.1651H9.21862C10.2642 11.1676 11.1161 10.3232 11.1205 9.27646C11.1237 8.751 10.9132 8.27319 10.5701 7.92647C10.2286 7.58082 9.75544 7.36516 9.23078 7.36195ZM9.21862 11.164L9.21862 11.1651L9.21721 11.1651L9.21722 11.1637L9.21862 11.164ZM9.50399 8.98165C9.4319 8.90892 9.33235 8.86371 9.22271 8.86304C9.00032 8.86168 8.81982 9.04099 8.81848 9.26089C8.8178 9.37209 8.86228 9.47281 8.93443 9.5459C9.0061 9.61795 9.10478 9.66285 9.21348 9.66398H9.22071C9.44053 9.66466 9.61876 9.48701 9.61944 9.26844L9.61945 9.26615C9.62013 9.15521 9.57585 9.0547 9.50399 8.98165Z" fill="#000000" />
<path d="M13.3617 8.51351C12.9475 8.51351 12.6117 8.8493 12.6117 9.26351C12.6117 9.57217 12.7981 9.83728 13.0646 9.95235C13.1563 9.99231 13.2575 10.0145 13.3639 10.0145L16.4326 10.0145C16.8469 10.0145 17.1826 9.67868 17.1826 9.26446C17.1826 8.95581 16.9962 8.6907 16.7298 8.57562C16.6381 8.53567 16.5369 8.51351 16.4305 8.51351H13.3617Z" fill="#000000" />
<path fill-rule="evenodd" clip-rule="evenodd" d="M15.2828 12.8363L15.2828 12.8349L15.2814 12.8349H15.2929C16.3437 12.8413 17.1879 13.7 17.1815 14.7483L17.1826 14.7494C17.1762 15.8002 16.3175 16.6445 15.2692 16.6381C14.7446 16.6348 14.2714 16.4192 13.9299 16.0735C13.5868 15.7268 13.3763 15.249 13.3795 14.7235C13.3839 13.6768 14.2358 12.8324 15.2814 12.8349L15.2814 12.836L15.2828 12.8363ZM15.565 14.4535C15.4934 14.3818 15.3949 14.3371 15.2865 14.336H15.2793C15.0595 14.3353 14.8812 14.513 14.8806 14.7316L14.8806 14.7339C14.8799 14.8447 14.9241 14.9452 14.9959 15.0182C15.068 15.091 15.1676 15.1363 15.2773 15.137C15.4997 15.1383 15.6802 14.959 15.6815 14.7391C15.6822 14.6276 15.6375 14.5267 15.565 14.4535Z" fill="#000000" />
<path d="M8.06736 13.9855C7.65314 13.9855 7.31736 14.3213 7.31736 14.7355C7.31736 15.0442 7.50381 15.3093 7.77022 15.4244C7.86191 15.4643 7.96314 15.4865 8.06955 15.4865H11.1383C11.5525 15.4865 11.8883 15.1507 11.8883 14.7365C11.8883 14.4278 11.7019 14.1627 11.4354 14.0476C11.3437 14.0077 11.2425 13.9855 11.1361 13.9855H8.06736Z" fill="#000000" />
<path fill-rule="evenodd" clip-rule="evenodd" d="M2.5 8.02638C2.5 6.39888 3.00873 4.94838 3.9873 3.89761C4.81864 3.00491 5.94873 2.44473 7.28005 2.29228C7.52423 2.26425 7.77514 2.25 8.03216 2.25H16.4669C18.1262 2.25 19.5296 2.84086 20.5134 3.89773C21.3622 4.8095 21.8572 6.02217 21.9734 7.39023C21.9911 7.59884 22 7.81106 22 8.02638V15.9736C22 16.0499 21.9989 16.1258 21.9967 16.2013C21.9513 17.7362 21.4454 19.1009 20.5127 20.1024C19.6814 20.9951 18.5513 21.5553 17.22 21.7077C16.9758 21.7358 16.7249 21.75 16.4678 21.75L8.03314 21.75C6.37378 21.75 4.97038 21.1591 3.98657 20.1023C3.00842 19.0515 2.5 17.601 2.5 15.9736V8.02638ZM4.00038 7.95715C4.01451 6.67224 4.42215 5.63389 5.08745 4.92012C5.65817 4.30783 6.45793 3.89133 7.47292 3.7799C7.65051 3.76046 7.83475 3.7503 8.02559 3.75C8.02778 3.75 8.02997 3.75 8.03216 3.75H16.4669C17.7556 3.75 18.7446 4.19975 19.4151 4.91984C20.0067 5.5552 20.3936 6.44826 20.4811 7.54435C20.4936 7.70094 20.5 7.86167 20.5 8.02638V15.9736C20.5 17.2905 20.0898 18.3533 19.4125 19.0799C18.8445 19.6894 18.0494 20.1048 17.0411 20.2185C16.8565 20.2393 16.6648 20.25 16.4659 20.25L8.03314 20.25C6.74437 20.25 5.75542 19.8002 5.08492 19.0802C4.45105 18.3994 4.05214 17.4229 4.00475 16.2177C4.0016 16.1374 4 16.056 4 15.9736V8.02638C4 8.00322 4.00013 7.98015 4.00038 7.95715Z" fill="#000000" />
</svg>