<svg width="24px"  height="24px"  viewBox="0 0 25 24" fill="none" xmlns="http://www.w3.org/2000/svg">
<path fill-rule="evenodd" clip-rule="evenodd" d="M3.90039 5.90825H12.4302C12.7573 7.14653 13.8828 8.0606 15.2246 8.06646C16.5786 8.07622 17.7227 7.15825 18.0557 5.90825H20.5615C20.7666 5.90825 20.9521 5.82622 21.0874 5.69341C21.2256 5.55669 21.3115 5.36724 21.3115 5.15825C21.3115 4.97271 21.2441 4.80278 21.1323 4.67192C20.9951 4.50982 20.7905 4.40825 20.5615 4.40825H18.0552C17.7256 3.17192 16.603 2.25982 15.2632 2.25005C13.9102 2.24224 12.7661 3.15825 12.4331 4.40825H3.90039C3.7002 4.40825 3.51807 4.48638 3.3833 4.61528C3.23975 4.752 3.15039 4.94536 3.15039 5.15825C3.15039 5.27153 3.17529 5.377 3.21973 5.47271C3.25488 5.54888 3.30176 5.61724 3.35889 5.67778C3.38965 5.70903 3.42285 5.73833 3.4585 5.76372C3.58252 5.85357 3.73535 5.90825 3.90039 5.90825ZM15.2534 3.75005C16.0098 3.75591 16.623 4.35552 16.6523 5.10357L16.6504 5.15825L16.6523 5.21294C16.623 5.9688 15.9976 6.57232 15.2344 6.56646C15.0938 6.56646 14.958 6.54497 14.8301 6.50591C14.7056 6.4688 14.5884 6.41411 14.481 6.34575C14.2207 6.17974 14.0195 5.92974 13.9146 5.63482C13.8623 5.48638 13.834 5.32622 13.8345 5.16021C13.8403 4.37114 14.4756 3.74419 15.2534 3.75005Z" fill="#000000" />
<path fill-rule="evenodd" clip-rule="evenodd" d="M12.8379 19.5918C13.1655 20.8301 14.291 21.7442 15.6313 21.75C16.9849 21.7579 18.1279 20.8418 18.4614 19.5918H20.5625C20.7681 19.5918 20.9541 19.5098 21.0898 19.377C21.2275 19.2403 21.3125 19.0508 21.3125 18.8418C21.3125 18.4278 20.9775 18.0918 20.5625 18.0918H18.4619C18.1338 16.8555 17.0107 15.9415 15.6704 15.9336C14.3164 15.9239 13.1719 16.8418 12.8389 18.0918H3.90039C3.80322 18.0918 3.71045 18.1094 3.62549 18.1426C3.50928 18.1895 3.40771 18.2637 3.32812 18.3575C3.21729 18.4864 3.15039 18.6563 3.15039 18.8418C3.15039 19.2559 3.48633 19.5918 3.90039 19.5918H12.8379ZM17.0596 18.8516C17.0571 19.1934 16.9336 19.5059 16.7295 19.7481C16.4688 20.0586 16.0767 20.254 15.6382 20.25C15.3203 20.25 15.0278 20.1426 14.7935 19.9629C14.5527 19.7774 14.373 19.5176 14.291 19.2188C14.2612 19.1094 14.2441 18.9942 14.2417 18.875L14.2422 18.8418L14.2417 18.8106C14.251 18.4063 14.4297 18.045 14.709 17.795C14.9609 17.5684 15.2949 17.4317 15.6602 17.4336C16.437 17.4375 17.064 18.0723 17.0596 18.8516Z" fill="#000000" />
<path fill-rule="evenodd" clip-rule="evenodd" d="M20.5615 12.7579H11.6357C11.3086 13.9961 10.1831 14.9102 8.84131 14.9161C7.4873 14.9258 6.34277 14.0079 6.01025 12.7579H3.90039C3.48535 12.7579 3.15039 12.4219 3.15039 12.0079C3.15039 11.7657 3.26416 11.5508 3.44189 11.4141C3.56836 11.3165 3.72754 11.2579 3.90039 11.2579H6.01074C6.23047 10.4336 6.80273 9.75396 7.55713 9.38872C7.93408 9.20708 8.35645 9.10357 8.80273 9.09966C10.1558 9.09185 11.2998 10.0079 11.6328 11.2579H20.5615C20.7012 11.2579 20.832 11.2969 20.9443 11.3633C21.1641 11.4942 21.3115 11.7344 21.3115 12.0079C21.3115 12.4219 20.9756 12.7579 20.5615 12.7579ZM8.8125 10.5997C8.05615 10.6055 7.44287 11.2051 7.41357 11.9532L7.41553 12.0079L7.41357 12.0625C7.44287 12.8184 8.06836 13.4219 8.83154 13.4161C9.60742 13.4141 10.2334 12.7852 10.2314 12.0098C10.2256 11.2208 9.59033 10.5938 8.8125 10.5997Z" fill="#000000" />
</svg>