<svg width="24px"  height="24px"  viewBox="0 0 25 24" fill="none" xmlns="http://www.w3.org/2000/svg">
<path fill-rule="evenodd" clip-rule="evenodd" d="M7.15704 14.499C7.14861 15.8457 8.23269 16.9456 9.57993 16.9554C10.9272 16.9638 12.0287 15.88 12.0371 14.5317L12.0371 14.5164C12.04 13.4301 11.3309 12.507 10.3483 12.1914L10.3483 7.79448C10.3483 7.38026 10.0125 7.04448 9.59829 7.04448C9.18408 7.04448 8.84829 7.38026 8.84829 7.79448L8.84829 12.1926C7.87354 12.507 7.16492 13.4188 7.15704 14.499ZM10.5371 14.5243C10.5328 15.0412 10.1104 15.4586 9.59027 15.4554C9.07176 15.4513 8.65399 15.0278 8.65701 14.5088C8.66099 13.99 9.08474 13.572 9.60406 13.5753L9.6064 13.5753C10.1217 13.5769 10.5388 13.9964 10.5371 14.513L10.5371 14.5154L10.5371 14.5243Z" fill="#000000" />
<path fill-rule="evenodd" clip-rule="evenodd" d="M15.9201 7.04465C17.2673 7.05448 18.3514 8.15433 18.343 9.50105C18.3351 10.5812 17.6265 11.493 16.6517 11.8074L16.6517 16.2056C16.6517 16.6198 16.316 16.9556 15.9017 16.9556C15.4875 16.9556 15.1517 16.6198 15.1517 16.2056L15.1517 11.8086C14.1692 11.493 13.4601 10.5699 13.4629 9.48366L13.4629 9.46831C13.4713 8.12003 14.5728 7.03623 15.9201 7.04465ZM15.9098 8.54462C15.3896 8.54146 14.9672 8.95883 14.9629 9.47574L14.9629 9.48469L14.9629 9.48704C14.9613 10.0036 15.3783 10.4231 15.8936 10.4247L15.896 10.4248C16.4153 10.428 16.839 10.01 16.843 9.49125C16.846 8.97221 16.4283 8.54873 15.9098 8.54462Z" fill="#000000" />
<path fill-rule="evenodd" clip-rule="evenodd" d="M3 16.2178C3 17.8733 3.59117 19.2753 4.64737 20.2598C5.69771 21.2388 7.14806 21.75 8.77638 21.75L16.7236 21.75C18.351 21.75 19.8015 21.2416 20.8523 20.2634C21.9091 19.2796 22.5 17.8772 22.5 16.2178L22.5 7.78411C22.5 6.12435 21.9092 4.72148 20.8524 3.73729C19.8016 2.75873 18.3511 2.25 16.7236 2.25L8.77638 2.25C7.14889 2.25 5.69841 2.75872 4.64765 3.73714C3.59084 4.72117 3 6.12379 3 7.78314L3 16.2178ZM8.77638 20.25C7.45951 20.25 6.39667 19.8398 5.67012 19.1625C4.94943 18.4908 4.5 17.5017 4.5 16.2178L4.5 7.78314C4.5 6.49437 4.94975 5.50542 5.66984 4.83492C6.39597 4.15879 7.45868 3.75 8.77638 3.75L16.7236 3.75C18.0413 3.75 19.104 4.15879 19.8301 4.835C20.5502 5.5056 21 6.49478 21 7.78411L21 16.2178C21 17.5066 20.5503 18.4952 19.8302 19.1655C19.1041 19.8414 18.0414 20.25 16.7236 20.25L8.77638 20.25Z" fill="#000000" />
</svg>