<svg width="24px"  height="24px"  viewBox="0 0 25 24" fill="none" xmlns="http://www.w3.org/2000/svg">
<path fill-rule="evenodd" clip-rule="evenodd" d="M5.44773 2.64844C5.86194 2.64844 6.19773 2.98422 6.19773 3.39844V6.6616C6.19773 7.07581 5.86194 7.4116 5.44773 7.4116C5.03352 7.4116 4.69773 7.07581 4.69773 6.6616V3.39844C4.69773 2.98422 5.03352 2.64844 5.44773 2.64844ZM12.4995 2.64844C12.9137 2.64844 13.2495 2.98422 13.2495 3.39844V13.1879C13.2495 13.6021 12.9137 13.9379 12.4995 13.9379C12.0853 13.9379 11.7495 13.6021 11.7495 13.1879V3.39844C11.7495 2.98422 12.0853 2.64844 12.4995 2.64844ZM19.5512 2.64844C19.9654 2.64844 20.3012 2.98422 20.3012 3.39844V6.2374C20.3012 6.65162 19.9654 6.9874 19.5512 6.9874C19.137 6.9874 18.8012 6.65162 18.8012 6.2374V3.39844C18.8012 2.98422 19.137 2.64844 19.5512 2.64844ZM16.8535 10.3058C16.8535 9.89154 17.1893 9.55576 17.6035 9.55576H21.5C21.9142 9.55576 22.25 9.89154 22.25 10.3058C22.25 10.72 21.9142 11.0558 21.5 11.0558H20.3012V20.6002C20.3012 21.0144 19.9654 21.3502 19.5512 21.3502C19.137 21.3502 18.8012 21.0144 18.8012 20.6002V11.0558H17.6035C17.1893 11.0558 16.8535 10.72 16.8535 10.3058ZM2.75 10.7305C2.75 10.3162 3.08579 9.98046 3.5 9.98046H7.39653C7.81074 9.98046 8.14653 10.3162 8.14653 10.7305C8.14653 11.1447 7.81074 11.4805 7.39653 11.4805H6.19773V20.6007C6.19773 21.0149 5.86194 21.3507 5.44773 21.3507C5.03352 21.3507 4.69773 21.0149 4.69773 20.6007V11.4805H3.5C3.08579 11.4805 2.75 11.1447 2.75 10.7305ZM9.80174 17.2568C9.80174 16.8426 10.1375 16.5068 10.5517 16.5068H14.4483C14.8625 16.5068 15.1983 16.8426 15.1983 17.2568C15.1983 17.671 14.8625 18.0068 14.4483 18.0068H13.2495V20.6007C13.2495 21.0149 12.9137 21.3507 12.4995 21.3507C12.0853 21.3507 11.7495 21.0149 11.7495 20.6007V18.0068H10.5517C10.1375 18.0068 9.80174 17.671 9.80174 17.2568Z" fill="#000000" />
</svg>