<svg width="24px"  height="24px"  viewBox="0 0 25 24" fill="none" xmlns="http://www.w3.org/2000/svg">
<path fill-rule="evenodd" clip-rule="evenodd" d="M4.64773 3.73657C5.69853 2.75842 7.14899 2.25 8.77638 2.25H16.7236C18.3519 2.25 19.8023 2.76117 20.8526 3.7402C21.9088 4.72468 22.5 6.12669 22.5 7.78216V16.2169C22.5 17.8762 21.9092 19.2788 20.8524 20.2629C19.8016 21.2413 18.3511 21.75 16.7236 21.75H8.77638C7.14889 21.75 5.69838 21.2413 4.64761 20.2627C3.5908 19.2785 3 17.8757 3 16.2159V7.78216C3 6.1228 3.59086 4.72038 4.64773 3.73657ZM5.66976 4.83451C4.94973 5.50475 4.5 6.49341 4.5 7.78216V16.2159C4.5 17.5052 4.9498 18.4944 5.66988 19.165C6.39599 19.8412 7.45868 20.25 8.77638 20.25H16.7236C18.0413 20.25 19.104 19.8412 19.8302 19.1651C20.5503 18.4946 21 17.5056 21 16.2169V7.78216C21 6.49828 20.5506 5.50921 19.8299 4.83745C19.1033 4.16024 18.0405 3.75 16.7236 3.75H8.77638C7.45857 3.75 6.39585 4.15861 5.66976 4.83451ZM10.7131 8.07469C10.7131 7.12533 11.4828 6.35853 12.4302 6.35853H13.0996C13.1078 6.35853 13.1159 6.35866 13.1241 6.35893C14.0667 6.38966 14.8081 7.17195 14.7907 8.11213C14.7923 8.13876 14.7995 8.16453 14.8117 8.1876C14.8147 8.19234 14.8176 8.19711 14.8204 8.20192C14.8806 8.30368 15.0132 8.33828 15.1163 8.27711L15.1244 8.27235C15.9476 7.79775 16.9999 8.08107 17.4753 8.90264L17.4763 8.9043L17.7925 9.45403C17.8043 9.47456 17.8151 9.49559 17.8248 9.51703C18.2499 10.3298 17.9605 11.3383 17.1636 11.8023L17.157 11.8062C17.1278 11.8228 17.1016 11.848 17.0825 11.8804C17.0806 11.8838 17.0787 11.8872 17.0768 11.8905C17.017 11.9954 17.0541 12.127 17.1567 12.1853C17.1691 12.1923 17.1813 12.1997 17.1933 12.2075C17.9971 12.6906 18.2642 13.7322 17.7899 14.5439L17.7855 14.5514L17.4524 15.1064C16.9747 15.9248 15.9267 16.2019 15.1066 15.7318L15.1055 15.7312C15.0735 15.7128 15.0386 15.7026 15.003 15.7007C14.8844 15.7033 14.7898 15.7999 14.7905 15.9196L14.7905 15.9278C14.7854 16.8761 14.0147 17.6408 13.0675 17.6408H12.4322C11.4799 17.6408 10.7082 16.8691 10.7082 15.9169H11.4582L10.7083 15.9213C10.7081 15.8967 10.7016 15.8677 10.6859 15.8384C10.6827 15.8331 10.6786 15.8263 10.6741 15.8184C10.6138 15.7179 10.484 15.6848 10.3836 15.7435C10.3803 15.7454 10.377 15.7472 10.3737 15.7491C10.3694 15.7516 10.365 15.7541 10.3606 15.7565C9.53139 16.2132 8.48652 15.9156 8.02411 15.0872L7.71374 14.5511C7.71004 14.5451 7.70642 14.539 7.70289 14.5328C7.23087 13.7098 7.51652 12.6611 8.3384 12.1897L8.71154 12.8403L8.3365 12.1908C8.40544 12.151 8.44802 12.0779 8.44802 11.9967C8.44802 11.917 8.4058 11.8437 8.3365 11.8037C7.51476 11.3282 7.23142 10.2768 7.70534 9.45301L7.71429 9.43787L8.05033 8.88421C8.52791 8.06843 9.57498 7.78893 10.3961 8.26136L10.4048 8.26632C10.4307 8.28173 10.4609 8.29082 10.4934 8.2918C10.6133 8.28999 10.7099 8.19369 10.7131 8.07469ZM12.4302 7.85853C12.3093 7.85853 12.2131 7.95573 12.2131 8.07469V8.09108C12.201 9.03574 11.4305 9.79355 10.4868 9.79183L10.4793 9.79181C10.1868 9.78835 9.89951 9.70921 9.64584 9.56024C9.53977 9.50084 9.40533 9.53746 9.34416 9.64317L9.33614 9.6567L9.00273 10.206C8.94545 10.3117 8.98234 10.4443 9.08715 10.505C9.62076 10.8134 9.94802 11.382 9.94802 11.9967C9.94802 12.6122 9.62088 13.1813 9.08657 13.4898L9.08467 13.4909C8.98264 13.5494 8.94649 13.6773 9.00021 13.7795C9.00165 13.7819 9.00308 13.7844 9.0045 13.7868L9.32558 14.3414L9.33321 14.3549C9.39141 14.4604 9.52358 14.5006 9.63063 14.446C9.63426 14.4439 9.63772 14.442 9.64098 14.4402C10.4542 13.9752 11.4893 14.2508 11.9654 15.0553C11.969 15.061 11.9725 15.0667 11.9759 15.0725C12.1227 15.3229 12.2064 15.6121 12.2082 15.9124L12.2083 15.9169C12.2082 16.0407 12.3083 16.1408 12.4322 16.1408H13.0675C13.1899 16.1408 13.2887 16.0427 13.2905 15.9218C13.2886 14.977 14.0492 14.2076 14.9954 14.2007L15.0008 14.2007L15.0145 14.2007L15.0323 14.2009C15.3214 14.2078 15.6033 14.287 15.8536 14.431L15.4795 15.0811L15.8525 14.4304C15.9606 14.4923 16.0966 14.4547 16.1575 14.3493L16.1635 14.339L16.4962 13.7847C16.5548 13.6813 16.5191 13.5505 16.4176 13.4914C16.4089 13.4863 16.4004 13.4811 16.3919 13.4757C15.5919 13.0044 15.3138 11.9816 15.7613 11.1696C15.7684 11.156 15.7747 11.145 15.7795 11.1367C15.7826 11.1314 15.7855 11.1265 15.7882 11.1221C15.9371 10.8683 16.1504 10.6541 16.4106 10.505C16.5159 10.4424 16.5504 10.3076 16.4912 10.204C16.4826 10.189 16.4745 10.1737 16.467 10.1581L16.177 9.65388C16.1768 9.65365 16.1771 9.6541 16.177 9.65388C16.1155 9.54848 15.9802 9.51199 15.8758 9.57067C15.0677 10.0458 14.0275 9.78421 13.5408 8.98456C13.5397 8.98292 13.5387 8.98129 13.5377 8.97968C13.5372 8.97892 13.5367 8.97817 13.5363 8.97743C13.5327 8.97177 13.5292 8.96607 13.5258 8.96032C13.3746 8.70544 13.2941 8.41593 13.2906 8.12157C13.2904 8.11044 13.2905 8.09932 13.2909 8.0882C13.2948 7.96794 13.2026 7.86662 13.0832 7.85853H12.4302Z" fill="#000000" />
<path fill-rule="evenodd" clip-rule="evenodd" d="M12.7598 11.0039C13.3121 11.0039 13.7598 11.4516 13.7598 12.0039V12.0139C13.7598 12.5662 13.3121 13.0139 12.7598 13.0139C12.2075 13.0139 11.7598 12.5662 11.7598 12.0139V12.0039C11.7598 11.4516 12.2075 11.0039 12.7598 11.0039Z" fill="#000000" />
</svg>