<svg width="24px"  height="24px"  viewBox="0 0 25 24" fill="none" xmlns="http://www.w3.org/2000/svg">
<path fill-rule="evenodd" clip-rule="evenodd" d="M14.2651 11.6816C14.4751 13.0527 13.3052 14.2227 11.9351 14.0137C11.0669 13.8828 10.3701 13.1836 10.2358 12.3184C10.0249 10.9473 11.1958 9.77539 12.5688 9.98438C13.4341 10.1172 14.1328 10.8164 14.2651 11.6816ZM12.1602 12.5312C12.5322 12.5879 12.8389 12.2793 12.7822 11.9082C12.749 11.6914 12.5601 11.502 12.3398 11.4668C11.9702 11.4102 11.6621 11.7207 11.7188 12.0898C11.752 12.3086 11.9419 12.498 12.1602 12.5312Z" fill="#000000" />
<path fill-rule="evenodd" clip-rule="evenodd" d="M16.2261 14.3008C16.186 14.3691 16.1792 14.416 16.1802 14.4395L16.1899 15.043C16.1992 15.5918 15.9458 16.1211 15.4912 16.4531L15.4902 16.4551C15.1782 16.6816 14.8428 16.873 14.4893 17.0312C13.9761 17.2598 13.3882 17.2168 12.916 16.9316L12.397 16.6211C12.3789 16.6094 12.3359 16.5938 12.2441 16.5938C12.168 16.5918 12.125 16.6094 12.103 16.6211L11.5859 16.9316C11.3008 17.1055 10.9717 17.1875 10.6426 17.1758C10.4292 17.168 10.2158 17.1211 10.0142 17.0312C9.66016 16.875 9.3252 16.6816 9.01416 16.4551C8.7627 16.2715 8.57227 16.0293 8.45361 15.7559C8.35742 15.5332 8.30811 15.291 8.31201 15.041L8.32178 14.4375C8.32275 14.418 8.31592 14.3691 8.27393 14.2969L8.27295 14.2949C8.23193 14.2246 8.19482 14.1953 8.1748 14.1836L7.64795 13.8906C7.14697 13.6133 6.82812 13.1074 6.77197 12.5547C6.74854 12.3281 6.73926 12.0996 6.74463 11.8711C6.74805 11.7285 6.75684 11.5879 6.771 11.4453C6.82715 10.8926 7.146 10.3887 7.64697 10.1094L8.17578 9.81445C8.1875 9.80859 8.20605 9.79492 8.229 9.76758C8.23584 9.75977 8.24316 9.75195 8.25049 9.74023C8.25781 9.72852 8.2666 9.71484 8.2749 9.70117C8.27734 9.69727 8.27979 9.69141 8.28223 9.6875C8.28662 9.67969 8.29102 9.67188 8.29443 9.66406C8.30713 9.63672 8.31445 9.61523 8.31836 9.59766C8.32178 9.58203 8.32178 9.57031 8.32178 9.56055L8.31201 8.95703C8.30713 8.64453 8.38623 8.33984 8.53906 8.07227C8.65576 7.86914 8.81445 7.68945 9.01074 7.54688L9.01221 7.54492C9.32422 7.31836 9.65918 7.12695 10.0122 6.96875C10.5259 6.74023 11.1128 6.7832 11.585 7.06836L12.104 7.37891C12.123 7.39062 12.166 7.40625 12.2568 7.40625C12.334 7.4082 12.376 7.39062 12.3979 7.37891L12.917 7.06641C13.1807 6.9082 13.4839 6.82422 13.79 6.82227C14.0264 6.82227 14.2642 6.86914 14.4878 6.96875C14.6973 7.06055 14.8999 7.16602 15.0952 7.28516C15.2295 7.36719 15.3604 7.45312 15.4893 7.54492C15.9438 7.875 16.1992 8.40625 16.1899 8.95703L16.1802 9.5625C16.1792 9.58203 16.186 9.63086 16.2271 9.70117C16.27 9.77734 16.3071 9.80469 16.3271 9.81641L16.854 10.1094C17.354 10.3867 17.6738 10.8906 17.73 11.4434C17.7681 11.8125 17.7681 12.1836 17.731 12.5547C17.6748 13.1074 17.356 13.6113 16.855 13.8906L16.3262 14.1836C16.3062 14.1953 16.269 14.2246 16.2261 14.3008ZM14.9302 10.4551C15.0762 10.707 15.292 10.957 15.6001 11.1289L16.126 11.4219C16.1851 11.4531 16.229 11.5156 16.2368 11.5957C16.2651 11.8652 16.2651 12.1348 16.2378 12.4023C16.2378 12.4082 16.2368 12.4141 16.2358 12.418C16.2241 12.4902 16.1812 12.5488 16.126 12.5801L15.5991 12.8711L15.5981 12.873C15.2939 13.043 15.0781 13.2891 14.9321 13.5391C14.9287 13.5449 14.9229 13.5586 14.9194 13.5645C14.8403 13.7051 14.7778 13.8496 14.7349 14.0137C14.6978 14.1543 14.6772 14.3047 14.6802 14.4629L14.6899 15.0684C14.6899 15.0859 14.689 15.1016 14.6851 15.1191C14.6738 15.1699 14.6445 15.2148 14.6069 15.2422C14.3809 15.4062 14.1372 15.5469 13.8789 15.6621C13.8242 15.6855 13.751 15.6836 13.688 15.6465L13.1689 15.3359L13.168 15.334C12.8682 15.1543 12.5459 15.0938 12.2549 15.0938C12.1689 15.0938 12.084 15.0977 11.998 15.1094C11.7764 15.1367 11.5483 15.2051 11.334 15.334L11.333 15.3359L10.814 15.6465C10.752 15.6836 10.6792 15.6855 10.624 15.6621L10.6221 15.6602C10.3662 15.5488 10.123 15.4062 9.89502 15.2422C9.84521 15.2051 9.81006 15.1406 9.81104 15.0664L9.82178 14.4648C9.82812 14.1113 9.71875 13.8027 9.57617 13.5527C9.42578 13.293 9.20996 13.043 8.90186 12.8711L8.37598 12.5801L8.375 12.5781C8.31787 12.5469 8.27295 12.4844 8.26514 12.4043C8.23682 12.1348 8.23682 11.8652 8.26416 11.5977C8.27197 11.5176 8.31689 11.4531 8.37598 11.4199L8.90381 11.127C9.20801 10.957 9.42383 10.7109 9.56982 10.4609C9.71924 10.1992 9.82812 9.88867 9.82178 9.53711L9.81104 8.93164C9.81104 8.91406 9.81299 8.89844 9.81689 8.88086C9.82861 8.83008 9.85742 8.78516 9.89502 8.75781C10.1201 8.5957 10.3647 8.45312 10.623 8.33789C10.6772 8.31445 10.75 8.31641 10.813 8.35352L11.333 8.66406L11.334 8.66602C11.6328 8.8457 11.9561 8.90625 12.2471 8.90625C12.5459 8.9082 12.8711 8.84375 13.1709 8.66211L13.687 8.35352C13.75 8.31641 13.8228 8.31445 13.8779 8.33789L13.8799 8.33984C14.1362 8.45117 14.3789 8.59375 14.6089 8.75977C14.6318 8.77539 14.6528 8.80078 14.6675 8.83008C14.6821 8.85938 14.6909 8.89453 14.6899 8.93359L14.6802 9.53516C14.6738 9.88672 14.7822 10.1992 14.9302 10.4551Z" fill="#000000" />
<path fill-rule="evenodd" clip-rule="evenodd" d="M20.353 3.74023C21.4092 4.72461 22 6.12695 22 7.78125V16.2168C22 17.125 21.8237 17.9551 21.4907 18.6816C21.2148 19.2832 20.8315 19.8164 20.3521 20.2637C19.3018 21.2402 17.8511 21.75 16.2241 21.75H8.27588C7.3833 21.75 6.54395 21.5977 5.79443 21.2969C5.17773 21.0508 4.62207 20.7051 4.14795 20.2637C3.09082 19.2793 2.5 17.877 2.5 16.2168V7.78125C2.5 6.12305 3.09082 4.7207 4.14795 3.73633C5.19922 2.75781 6.64893 2.25 8.27588 2.25H16.2241C17.8521 2.25 19.3018 2.76172 20.353 3.74023ZM19.3301 4.83789C18.603 4.16016 17.54 3.75 16.2241 3.75H8.27588C6.95898 3.75 5.896 4.1582 5.16992 4.83594C4.75439 5.22266 4.42871 5.71484 4.22754 6.31055C4.08057 6.74609 4 7.23633 4 7.78125V16.2168C4 17.5059 4.4502 18.4941 5.16992 19.1641C5.54834 19.5176 6.01855 19.7969 6.56836 19.9844C7.07324 20.1562 7.64551 20.25 8.27588 20.25H16.2241C17.1948 20.25 18.0273 20.0293 18.689 19.6406C18.9248 19.502 19.1392 19.3418 19.3301 19.1641C20.0498 18.4941 20.5 17.5059 20.5 16.2168V7.78125C20.5 6.49805 20.0508 5.50977 19.3301 4.83789Z" fill="#000000" />
</svg>