<svg width="24px"  height="24px"  viewBox="0 0 25 24" fill="none" xmlns="http://www.w3.org/2000/svg">
<path d="M21.2258 12.4376L22.0656 13.547C22.2609 13.8204 22.3874 14.1369 22.4343 14.4689C22.4587 14.6427 22.4611 14.8165 22.4426 14.9865C22.425 15.1466 22.3893 15.3048 22.3356 15.4572L22.1418 15.9474C22.0812 16.0919 22.0168 16.2365 21.946 16.3771C21.7995 16.6915 21.5778 16.963 21.3 17.1681C21.0226 17.3751 20.6979 17.5079 20.3556 17.5568L18.9855 17.7579C18.8649 17.7755 18.7531 17.8322 18.6657 17.9181C18.6261 17.9572 18.5934 18.0021 18.5676 18.0509C18.5353 18.1134 18.5143 18.1798 18.5055 18.2482L18.3058 19.6076C18.2585 19.9513 18.1257 20.2755 17.9191 20.5529C17.7131 20.8322 17.4401 21.0529 17.1257 21.1974C16.8415 21.34 16.548 21.4552 16.2541 21.5704L16.2057 21.588C15.9772 21.6661 15.7375 21.7072 15.4958 21.7072C15.0427 21.7091 14.6012 21.5646 14.2355 21.297L13.1457 20.4669C13.0817 20.422 13.0104 20.3908 12.9352 20.3732C12.8801 20.3615 12.8229 20.3556 12.7658 20.3576C12.6305 20.3517 12.4968 20.3888 12.3859 20.4669L11.2858 21.297C11.1266 21.4161 10.9264 21.4689 10.7297 21.4396C10.5329 21.4122 10.3552 21.3068 10.2355 21.1466C10.1515 21.0353 10.1012 20.9025 10.089 20.7658C10.0837 20.7091 10.0851 20.6505 10.0934 20.5919C10.1144 20.4435 10.1789 20.3068 10.2765 20.1974C10.3093 20.1603 10.3459 20.1271 10.3859 20.0978L11.4855 19.2677C11.6208 19.172 11.7653 19.0919 11.9162 19.0294C12.1872 18.9161 12.4792 18.8556 12.7756 18.8556C13.238 18.8556 13.6886 19.0001 14.0656 19.2677L15.1559 20.0978C15.2018 20.129 15.2516 20.1544 15.3044 20.172C15.3439 20.1857 15.3849 20.1954 15.4269 20.2013C15.5246 20.213 15.6237 20.2013 15.7155 20.1681C15.9845 20.0763 16.2487 19.9689 16.5055 19.8478C16.5524 19.8263 16.5959 19.799 16.6354 19.7658C16.6716 19.7365 16.7038 19.7013 16.7321 19.6642C16.7912 19.5861 16.8302 19.4943 16.8459 19.3966L17.0358 18.0275C17.1027 17.5919 17.3058 17.1896 17.6159 16.8771C17.9352 16.5568 18.3488 16.3478 18.7956 16.2775L20.1657 16.088C20.2629 16.0724 20.3547 16.0333 20.4333 15.9728C20.5119 15.9142 20.5744 15.8361 20.6159 15.7482C20.737 15.4904 20.8439 15.2267 20.9357 14.9572C20.9699 14.8673 20.9816 14.7697 20.9694 14.674C20.9572 14.5783 20.9216 14.4865 20.8659 14.4083L20.0358 13.297C19.7702 12.9376 19.6232 12.504 19.6159 12.0568C19.6012 11.631 19.7238 11.2091 19.9655 10.8576L20.7956 9.74818C20.8517 9.6681 20.8874 9.5763 20.8996 9.4806C20.9118 9.3849 20.9001 9.28724 20.8659 9.1974C20.7736 8.92787 20.6672 8.66419 20.5456 8.40833C20.5046 8.31849 20.4416 8.24037 20.363 8.18177C20.2848 8.12123 20.193 8.08216 20.0959 8.06849L18.7355 7.87708C18.278 7.81068 17.8556 7.59193 17.5358 7.25794C17.3386 7.06654 17.1818 6.83802 17.0719 6.58802C16.9972 6.42005 16.9445 6.24232 16.9157 6.05677L16.7258 4.6974C16.7101 4.59974 16.6711 4.50794 16.612 4.42982C16.5876 4.39662 16.5597 4.36732 16.5295 4.33998C16.4865 4.30287 16.4382 4.27162 16.3859 4.24818C16.1286 4.12708 15.8649 4.01966 15.5959 3.92787C15.5055 3.89271 15.4079 3.88099 15.3122 3.89466C15.216 3.90638 15.1247 3.94154 15.0456 3.99818L13.946 4.82826C13.5744 5.09779 13.1252 5.24232 12.6657 5.23841C12.2062 5.24232 11.7575 5.09779 11.3859 4.82826L10.2858 3.99818C10.2453 3.96888 10.2013 3.94544 10.1554 3.92787C10.112 3.91224 10.0661 3.90052 10.0197 3.89466C9.92351 3.88099 9.82634 3.89271 9.73552 3.92787C9.46648 4.01966 9.20281 4.12708 8.94597 4.24818C8.85662 4.28919 8.77898 4.35169 8.71941 4.42982C8.66033 4.50794 8.62126 4.59974 8.60564 4.6974L8.4157 6.05677C8.34343 6.51185 8.13005 6.93177 7.80584 7.25794C7.63201 7.42591 7.4323 7.56263 7.2155 7.66419C7.03533 7.74818 6.84392 7.80677 6.64568 7.83802L5.28582 8.02748C5.18865 8.0431 5.09685 8.08216 5.01824 8.14076C4.93962 8.2013 4.87712 8.27748 4.83562 8.36732C4.71453 8.62513 4.60759 8.8888 4.5158 9.15833C4.48162 9.24818 4.4699 9.34583 4.48211 9.44154C4.49431 9.53724 4.52996 9.62904 4.58562 9.70716L5.4157 10.8185C5.55144 11.0021 5.65593 11.2052 5.72673 11.4201C5.79461 11.6251 5.83171 11.84 5.83562 12.0568C5.81169 12.4962 5.65056 12.9161 5.37566 13.2579L4.54558 14.3673C4.46257 14.4669 4.35613 14.5431 4.23699 14.59C4.18523 14.6095 4.13054 14.6251 4.07439 14.6329C3.88982 14.6603 3.70183 14.6193 3.54558 14.5177C3.40056 14.4005 3.30486 14.2326 3.27703 14.047C3.24919 13.8615 3.29168 13.672 3.39568 13.5177L4.22576 12.4083C4.30486 12.3087 4.34734 12.1837 4.34587 12.0568V12.0275C4.33806 11.9025 4.29656 11.7814 4.22576 11.6779L3.43572 10.5685C3.16423 10.2111 3.0197 9.77552 3.02556 9.32826C3.02556 9.08216 3.06609 8.83998 3.14568 8.60755C3.2658 8.29701 3.38591 7.98841 3.53582 7.68763C3.68035 7.37318 3.90154 7.09974 4.17986 6.89466C4.45769 6.68763 4.78289 6.55482 5.12566 6.50794L6.47576 6.30677C6.61492 6.28919 6.74285 6.22279 6.83562 6.11732C6.93767 6.02552 7.00505 5.90248 7.02556 5.76771L7.22576 4.40833C7.26482 4.07435 7.38298 3.75794 7.57097 3.4806C7.75896 3.20326 8.01091 2.97669 8.30584 2.81849C8.60564 2.6681 8.9157 2.54701 9.22576 2.42787C9.55632 2.30287 9.91326 2.2638 10.2634 2.31458C10.613 2.36537 10.944 2.50404 11.2258 2.71693L12.3757 3.54701C12.4831 3.62513 12.6135 3.66419 12.7458 3.65833C12.881 3.66224 13.0143 3.62318 13.1257 3.54701L14.2258 2.71693C14.5763 2.44935 15.0051 2.30677 15.446 2.30677C15.6906 2.30677 15.9338 2.34779 16.1657 2.42787C16.4758 2.54701 16.7858 2.67787 17.0856 2.81849C17.4001 2.96302 17.673 3.18373 17.8791 3.46107C17.9513 3.55873 18.0148 3.66224 18.0685 3.76966C18.1681 3.97083 18.235 4.18568 18.2658 4.40833L18.4655 5.76771C18.4865 5.90248 18.5539 6.02552 18.6559 6.11732C18.7497 6.21302 18.8727 6.27748 19.0055 6.29701L20.3659 6.49818C20.7082 6.54701 21.0324 6.67982 21.3102 6.88685C21.4982 7.02552 21.6608 7.19544 21.7912 7.38685C21.8532 7.47865 21.9084 7.5763 21.9557 7.67787C22.0583 7.89662 22.1554 8.12123 22.2472 8.34779L22.3459 8.59779C22.4162 8.78919 22.4587 8.98841 22.4719 9.19154C22.4816 9.33998 22.4758 9.48841 22.4543 9.6349C22.4245 9.84193 22.3639 10.0431 22.2756 10.2306C22.215 10.3595 22.1418 10.4826 22.0558 10.5978L21.2258 11.7072C21.1467 11.8068 21.1042 11.9298 21.1056 12.0568V12.088C21.1042 12.215 21.1467 12.338 21.2258 12.4376Z" fill="#000000" />
<path fill-rule="evenodd" clip-rule="evenodd" d="M17.2287 13.129C17.0505 14.047 16.6042 14.8927 15.946 15.5568C15.3556 16.1622 14.6144 16.5997 13.799 16.8244C12.9841 17.049 12.1232 17.0548 11.3058 16.8361L8.22576 19.9474C7.99382 20.1837 7.71697 20.3712 7.4113 20.4982C7.10515 20.6251 6.77703 20.6896 6.44597 20.6876C5.90056 20.6876 5.37419 20.4884 4.96599 20.1271C4.72918 19.9201 4.53679 19.6661 4.40105 19.3829C4.26482 19.0997 4.18816 18.7911 4.17498 18.4767C4.16179 18.1622 4.21306 17.8497 4.32488 17.5548C4.43669 17.2599 4.60711 16.9923 4.82586 16.7658L7.95574 13.5958C7.81804 13.1369 7.75164 12.6603 7.75652 12.1837C7.76091 11.7794 7.81707 11.3751 7.92498 10.9806C8.15984 10.1232 8.63054 9.34779 9.28386 8.74427C9.93718 8.14076 10.7468 7.73451 11.6208 7.56849C12.4943 7.40248 13.3971 7.48451 14.2258 7.80677C14.2961 7.8263 14.363 7.85755 14.424 7.89662C14.4723 7.92591 14.5173 7.96107 14.5578 8.00208C14.6491 8.09583 14.715 8.21107 14.7482 8.33802C14.7819 8.46302 14.7814 8.59583 14.7477 8.72279C14.714 8.84779 14.6476 8.96302 14.5558 9.05677L12.5558 11.0568L12.756 12.0568L13.716 12.1661L15.716 10.1661C15.8034 10.0783 15.9108 10.0119 16.0295 9.97474C16.1476 9.93568 16.2731 9.92591 16.3962 9.9474C16.5173 9.97083 16.631 10.0255 16.7267 10.1036C16.8224 10.1818 16.8976 10.2833 16.946 10.3966C17.3083 11.2599 17.4064 12.2091 17.2287 13.129ZM7.1657 18.8966L10.5558 15.4669C10.6559 15.3576 10.7863 15.2794 10.9303 15.2443C11.0749 15.2072 11.2262 15.2169 11.3659 15.2658C11.9621 15.4943 12.6125 15.5431 13.236 15.4064C13.6227 15.3224 13.9885 15.1681 14.3171 14.9552C14.5187 14.8244 14.7062 14.6701 14.8761 14.4962C15.0368 14.3302 15.1789 14.1486 15.3005 13.9533C15.4015 13.7892 15.4885 13.6173 15.5597 13.4376C15.6427 13.2286 15.7033 13.0119 15.7409 12.7892C15.7741 12.5939 15.7892 12.3966 15.7858 12.1974L14.7858 13.1974C14.7101 13.2755 14.6261 13.3458 14.5358 13.4064C14.4582 13.4572 14.3752 13.5021 14.2883 13.5392C14.1008 13.6173 13.8991 13.6583 13.696 13.6564C13.6095 13.6661 13.5221 13.6661 13.4357 13.6564L12.486 13.4767C12.1916 13.422 11.9196 13.2833 11.7043 13.0744C11.4889 12.8654 11.34 12.5997 11.2761 12.3068L11.0759 11.3673C11.0221 11.1232 11.03 10.8712 11.0978 10.6329C11.1662 10.3927 11.2927 10.174 11.466 9.99623L12.466 8.99623C11.9347 9.00404 11.4137 9.14466 10.9484 9.40052C10.4836 9.65833 10.089 10.0255 9.79949 10.4708C9.50994 10.9161 9.33464 11.4259 9.28875 11.9552C9.24285 12.4845 9.32781 13.0177 9.53582 13.506C9.59246 13.6447 9.6071 13.7951 9.57878 13.9415C9.55046 14.0861 9.47966 14.2208 9.37615 14.3263L5.92595 17.8165C5.85076 17.8908 5.79216 17.9806 5.75261 18.0783C5.7365 18.1173 5.7238 18.1583 5.71453 18.2013C5.70086 18.2619 5.69451 18.3244 5.69597 18.3869C5.69402 18.504 5.71843 18.6212 5.76677 18.7286C5.80144 18.8048 5.84832 18.8751 5.90496 18.9376L5.97576 19.006C6.15105 19.1447 6.37175 19.2091 6.59294 19.1876C6.81414 19.1681 7.01921 19.0626 7.1657 18.8966Z" fill="#000000" />
</svg>