<svg width="24px"  height="24px"  viewBox="0 0 25 24" fill="none" xmlns="http://www.w3.org/2000/svg">
<path fill-rule="evenodd" clip-rule="evenodd" d="M12.7509 10.05C13.8278 10.05 14.7009 10.923 14.7009 12C14.7009 13.077 13.8278 13.95 12.7509 13.95C11.6739 13.95 10.8009 13.077 10.8009 12C10.8009 10.923 11.6739 10.05 12.7509 10.05ZM16.2009 12C16.2009 10.0946 14.6562 8.55 12.7509 8.55C10.8455 8.55 9.30086 10.0946 9.30086 12C9.30086 13.9054 10.8455 15.45 12.7509 15.45C14.6562 15.45 16.2009 13.9054 16.2009 12Z" fill="#000000" />
<path fill-rule="evenodd" clip-rule="evenodd" d="M10.3517 2.54746C11.1198 2.35308 11.9236 2.25 12.7504 2.25C13.5772 2.25 14.381 2.35309 15.1493 2.5475C15.8077 2.71413 16.1433 3.2812 16.2505 3.74452C16.3684 4.25411 16.6881 4.71283 17.1755 4.99423C17.6236 5.25297 18.1301 5.31376 18.5975 5.20357C19.0602 5.09447 19.7159 5.14427 20.157 5.65903C20.9377 6.5702 21.5537 7.62773 21.9578 8.7854C22.2113 9.5115 21.8173 10.1596 21.4115 10.494C20.976 10.8529 20.7004 11.3939 20.7004 12C20.7004 12.6061 20.976 13.1471 21.4115 13.506C21.8173 13.8404 22.2113 14.4885 21.9578 15.2146C21.5537 16.3721 20.9379 17.4296 20.1572 18.3407C19.7161 18.8555 19.0603 18.9053 18.5976 18.7961C18.1301 18.6859 17.6236 18.7467 17.1754 19.0055C16.688 19.2869 16.3683 19.7457 16.2504 20.2554C16.1433 20.7187 15.8077 21.2859 15.1491 21.4525C14.3809 21.6469 13.5772 21.75 12.7504 21.75C11.9236 21.75 11.1199 21.6469 10.3517 21.4526C9.69318 21.2859 9.35757 20.7187 9.25039 20.2554C9.13252 19.7457 8.81286 19.2869 8.32541 19.0055C7.8772 18.7467 7.37067 18.6859 6.90324 18.7962C6.44048 18.9053 5.78465 18.8555 5.34353 18.3407C4.5629 17.4296 3.94706 16.3722 3.54295 15.2146C3.28947 14.4885 3.68341 13.8404 4.08925 13.506C4.52479 13.1472 4.8004 12.6061 4.8004 12C4.8004 11.3939 4.52479 10.8528 4.08925 10.494C3.68341 10.1596 3.28947 9.51149 3.54295 8.78539C3.9471 7.62771 4.56304 6.57017 5.34379 5.659C5.78489 5.14423 6.44063 5.09444 6.90336 5.20355C7.37076 5.31377 7.87724 5.25298 8.32541 4.99423C8.81281 4.71283 9.13245 4.2541 9.25036 3.7445C9.35757 3.28117 9.69317 2.71408 10.3517 2.54746ZM10.7475 3.99461C10.7435 4.00059 10.7384 4.0091 10.733 4.02049C10.7248 4.0377 10.7173 4.05878 10.7117 4.08264C10.504 4.98034 9.93765 5.79545 9.07541 6.29327C8.28335 6.75057 7.38362 6.85794 6.55909 6.66351C6.53532 6.65791 6.51315 6.65533 6.49416 6.65502C6.48147 6.65481 6.47153 6.65562 6.46436 6.65664C5.81862 7.41548 5.30825 8.29213 4.96986 9.24927C4.97392 9.25745 4.98031 9.26837 4.98995 9.28123C5.0037 9.29958 5.02168 9.31869 5.04308 9.33632C5.80962 9.96789 6.3004 10.9269 6.3004 12C6.3004 13.0731 5.80962 14.0321 5.04308 14.6637C5.02168 14.6813 5.00369 14.7004 4.98994 14.7188C4.98031 14.7316 4.97392 14.7425 4.96986 14.7507C5.30821 15.7078 5.81851 16.5843 6.46413 17.3431C6.47131 17.3441 6.48125 17.3449 6.49395 17.3447C6.51294 17.3444 6.53511 17.3418 6.55888 17.3362C7.38346 17.1417 8.28328 17.2491 9.07541 17.7064C9.93775 18.2043 10.5042 19.0195 10.7118 19.9174C10.7173 19.9412 10.7249 19.9623 10.733 19.9795C10.7384 19.9909 10.7435 19.9994 10.7476 20.0054C11.388 20.1651 12.0588 20.25 12.7504 20.25C13.442 20.25 14.1128 20.1651 14.7532 20.0054C14.7573 19.9994 14.7624 19.9909 14.7678 19.9795C14.776 19.9623 14.7835 19.9412 14.789 19.9173C14.9967 19.0195 15.5631 18.2043 16.4254 17.7064C17.2175 17.2491 18.1173 17.1417 18.9419 17.3362C18.9657 17.3418 18.9878 17.3444 19.0068 17.3447C19.0195 17.3449 19.0294 17.3441 19.0366 17.3431C19.6822 16.5843 20.1925 15.7077 20.5309 14.7507C20.5268 14.7425 20.5204 14.7316 20.5108 14.7188C20.4971 14.7004 20.4791 14.6813 20.4577 14.6637C19.6911 14.0321 19.2004 13.073 19.2004 12C19.2004 10.927 19.6911 9.9679 20.4577 9.33634C20.4791 9.3187 20.4971 9.2996 20.5108 9.28124C20.5204 9.26838 20.5268 9.25746 20.5309 9.24927C20.1925 8.29214 19.6821 7.41551 19.0364 6.65667C19.0292 6.65565 19.0193 6.65483 19.0066 6.65504C18.9876 6.65536 18.9655 6.65793 18.9417 6.66354C18.1172 6.85793 17.2175 6.75055 16.4255 6.29327C15.5632 5.79546 14.9969 4.98036 14.7891 4.08267C14.7836 4.05881 14.7761 4.03773 14.7679 4.02053C14.7625 4.00913 14.7574 4.00062 14.7533 3.99464C14.1129 3.83496 13.4421 3.75 12.7504 3.75C12.0587 3.75 11.388 3.83494 10.7475 3.99461Z" fill="#000000" />
</svg>