<svg width="24px"  height="24px"  viewBox="0 0 25 24" fill="none" xmlns="http://www.w3.org/2000/svg">
<path fill-rule="evenodd" clip-rule="evenodd" d="M15.7651 12.0008C15.7651 13.9442 14.1899 15.5184 12.248 15.5184C10.3052 15.5184 8.72998 13.9442 8.72998 12.0008C8.72998 10.0594 10.3052 8.48324 12.248 8.48324C14.1899 8.48324 15.7651 10.0594 15.7651 12.0008ZM13.5854 13.5106C14.0024 13.1414 14.2651 12.6024 14.2651 12.0008C14.2651 10.8875 13.3623 9.98324 12.248 9.98324C11.1333 9.98324 10.23 10.8875 10.23 12.0008C10.23 13.116 11.1333 14.0184 12.248 14.0184C12.7612 14.0184 13.2295 13.827 13.5854 13.5106Z" fill="#000000" />
<path fill-rule="evenodd" clip-rule="evenodd" d="M19.394 5.82894C20.4912 6.46175 21.166 7.63168 21.166 8.89535V15.1043C21.166 16.37 20.4912 17.5379 19.395 18.1727L14.019 21.2762C12.9233 21.909 11.5732 21.909 10.4771 21.2762L5.09912 18.1727C4.00488 17.5379 3.33008 16.37 3.33008 15.1043V8.89535C3.33008 7.63168 4.00488 6.46175 5.1001 5.82894L10.4771 2.72543C11.0493 2.39535 11.6904 2.23714 12.3286 2.25082C12.9131 2.26449 13.4951 2.42269 14.019 2.72543L19.394 5.82894ZM19.666 8.89535C19.666 8.16683 19.2769 7.493 18.645 7.12972L13.269 4.02425C12.6372 3.65902 11.8579 3.65902 11.2261 4.02425L5.8501 7.12972C5.21924 7.493 4.83008 8.16683 4.83008 8.89535V15.1043C4.83008 15.8328 5.21924 16.5086 5.8501 16.8739L11.2271 19.9774C11.8589 20.3426 12.6372 20.3426 13.269 19.9774L18.645 16.8719C19.2769 16.5086 19.666 15.8328 19.666 15.1043V8.89535Z" fill="#000000" />
</svg>