<svg width="24px"  height="24px"  viewBox="0 0 25 24" fill="none" xmlns="http://www.w3.org/2000/svg">
<path d="M21.5091 13.5847L20.9191 12.5847C20.8135 12.3992 20.7616 12.188 20.7691 11.9747C20.7616 11.7614 20.8135 11.5502 20.9191 11.3647L21.5091 10.3647C21.723 10.009 21.8482 9.60717 21.8744 9.19298C21.9005 8.77879 21.8266 8.36439 21.6591 7.98469C21.39 7.36381 21.0547 6.77373 20.6591 6.22469C20.4185 5.91031 20.108 5.65628 19.7522 5.48271C19.3964 5.30914 19.005 5.2208 18.6091 5.22469H17.3991C17.1839 5.21696 16.9741 5.15505 16.7891 5.04469C16.6031 4.94461 16.4476 4.79602 16.3391 4.61469L15.7791 3.61469C15.5749 3.25225 15.2867 2.94412 14.9386 2.71617C14.5906 2.48822 14.193 2.34711 13.7791 2.30469C13.1145 2.23177 12.4438 2.23177 11.7791 2.30469C11.3641 2.34735 10.9655 2.48965 10.6173 2.71947C10.2691 2.9493 9.98154 3.25985 9.77914 3.62469L9.24914 4.59469C9.143 4.78386 8.98284 4.93706 8.78914 5.03469C8.60368 5.14389 8.39417 5.20571 8.17914 5.21469H6.91914C6.52184 5.21079 6.12904 5.29907 5.77161 5.47258C5.41418 5.64609 5.10184 5.90011 4.85914 6.21469C4.45961 6.76832 4.11783 7.36142 3.83914 7.98469C3.69705 8.29909 3.62211 8.63968 3.61914 8.98469C3.62233 9.45299 3.75002 9.91202 3.98914 10.3147L4.57914 11.3147C4.6861 11.5033 4.73806 11.7181 4.72914 11.9347C4.73672 12.148 4.68478 12.3592 4.57914 12.5447L3.98914 13.5447C3.92962 13.6273 3.88755 13.7212 3.86549 13.8206C3.84343 13.92 3.84185 14.0229 3.86084 14.1229C3.87983 14.223 3.919 14.3181 3.97595 14.4025C4.0329 14.487 4.10645 14.5589 4.19211 14.614C4.27777 14.669 4.37375 14.7061 4.47419 14.7228C4.57464 14.7396 4.67744 14.7357 4.77634 14.7115C4.87525 14.6872 4.96817 14.6431 5.04946 14.5817C5.13074 14.5204 5.19868 14.4431 5.24914 14.3547L5.83914 13.3547C6.096 12.943 6.2376 12.4698 6.24914 11.9847C6.25581 11.4975 6.13148 11.0174 5.88914 10.5947L5.24914 9.61469C5.15909 9.46547 5.10578 9.29699 5.09361 9.12313C5.08144 8.94926 5.11075 8.775 5.17914 8.61469C5.41798 8.08672 5.70946 7.58417 6.04914 7.11469C6.151 6.97814 6.28399 6.86788 6.43705 6.79309C6.59011 6.7183 6.75882 6.68113 6.92914 6.68469H8.06914C8.55488 6.68399 9.03151 6.55274 9.44914 6.30469C9.86691 6.0681 10.2125 5.72245 10.4491 5.30469L10.9991 4.30469C11.0877 4.15271 11.2108 4.02372 11.3584 3.92816C11.5061 3.83261 11.6742 3.77318 11.8491 3.75469C12.4013 3.70467 12.9569 3.70467 13.5091 3.75469C13.6841 3.77318 13.8522 3.83261 13.9998 3.92816C14.1475 4.02372 14.2706 4.15271 14.3591 4.30469L14.9191 5.30469C15.1384 5.71534 15.4628 6.06043 15.8591 6.30469C16.281 6.55132 16.7605 6.68239 17.2491 6.68469H18.3891C18.5604 6.67487 18.7313 6.70927 18.8854 6.78458C19.0395 6.85988 19.1717 6.97356 19.2691 7.11469C19.6459 7.58369 19.9742 8.0896 20.2491 8.62469C20.32 8.78442 20.3507 8.95907 20.3385 9.13339C20.3263 9.30771 20.2716 9.47639 20.1791 9.62469L19.5891 10.6247C19.3585 11.0404 19.2412 11.5094 19.2491 11.9847C19.2425 12.4719 19.3668 12.952 19.6091 13.3747L20.1991 14.3747C20.3005 14.5442 20.3557 14.7372 20.3591 14.9347C20.3599 15.0796 20.3292 15.2229 20.2691 15.3547C20.0303 15.8827 19.7388 16.3852 19.3991 16.8547C19.3044 16.9914 19.1771 17.1023 19.0286 17.1774C18.8802 17.2525 18.7154 17.2894 18.5491 17.2847H17.4091C16.9392 17.2895 16.4782 17.4134 16.0691 17.6447C15.652 17.8821 15.3065 18.2275 15.0691 18.6447L14.5091 19.6447C14.4206 19.7967 14.2975 19.9257 14.1498 20.0212C14.0022 20.1168 13.8341 20.1762 13.6591 20.1947C13.1069 20.2447 12.5513 20.2447 11.9991 20.1947C11.8983 20.1786 11.7952 20.1834 11.6963 20.2086C11.5973 20.2338 11.5046 20.2789 11.4237 20.3412C11.3428 20.4035 11.2754 20.4817 11.2258 20.571C11.1762 20.6602 11.1453 20.7587 11.1351 20.8603C11.1249 20.9619 11.1355 21.0645 11.1663 21.1618C11.1972 21.2592 11.2476 21.3492 11.3144 21.4264C11.3813 21.5036 11.4632 21.5663 11.5551 21.6107C11.6471 21.6551 11.7471 21.6803 11.8491 21.6847C12.4727 21.7531 13.1032 21.776 13.7274 21.716C14.1424 21.6734 14.5428 21.5497 14.891 21.3199C15.2392 21.0901 15.5267 20.7795 15.7291 20.4147L16.2891 19.4147C16.4003 19.232 16.5594 19.0833 16.7491 18.9847C16.9299 18.8731 17.1368 18.811 17.3491 18.8047H18.4991C18.9109 18.8131 19.3186 18.7221 19.6877 18.5393C20.0568 18.3565 20.3763 18.0873 20.6191 17.7547C21.0117 17.2002 21.3468 16.6071 21.6191 15.9847C21.7612 15.6703 21.8362 15.3297 21.8391 14.9847C21.8608 14.4965 21.7466 14.0118 21.5091 13.5847Z" fill="#000000" />
<path fill-rule="evenodd" clip-rule="evenodd" d="M15.799 15.6647C16.4051 14.9527 16.7881 14.0779 16.9001 13.1496C17.0121 12.2212 16.8483 11.2805 16.429 10.4447C16.3734 10.3343 16.2913 10.2393 16.1902 10.1683C16.089 10.0972 15.9719 10.0523 15.8492 10.0374C15.7264 10.0226 15.6019 10.0383 15.4868 10.0832C15.3716 10.1281 15.2693 10.2007 15.189 10.2947L13.359 12.4447L12.409 12.3347L12.139 11.4047L13.949 9.24469C14.0271 9.14798 14.0806 9.03379 14.105 8.91189C14.1294 8.78999 14.1239 8.664 14.089 8.54469C14.0564 8.42554 13.9944 8.31644 13.9088 8.22736C13.8233 8.13828 13.7167 8.07204 13.599 8.03469C12.7503 7.76686 11.8435 7.74281 10.9819 7.96529C10.1202 8.18777 9.33839 8.64783 8.72549 9.29304C8.11259 9.93825 7.69327 10.7427 7.51532 11.6146C7.33736 12.4865 7.40792 13.3909 7.71897 14.2247L5.82897 16.4547C5.62393 16.6941 5.46982 16.9727 5.37605 17.2737C5.28227 17.5746 5.2508 17.8915 5.28356 18.205C5.31631 18.5184 5.4126 18.822 5.56655 19.097C5.72049 19.3721 5.92887 19.6129 6.17897 19.8047C6.56987 20.1108 7.05247 20.2764 7.54897 20.2747C7.90473 20.2717 8.25571 20.1925 8.57828 20.0424C8.90085 19.8923 9.18752 19.6749 9.41897 19.4047L11.249 17.2347C12.0785 17.3999 12.937 17.3416 13.7365 17.0657C14.536 16.7898 15.2479 16.3063 15.799 15.6647ZM10.409 15.9247L8.24897 18.4247C8.15864 18.5276 8.04812 18.611 7.92427 18.6694C7.80041 18.7279 7.66587 18.7603 7.52897 18.7647C7.36327 18.7669 7.20152 18.7141 7.06897 18.6147C6.98041 18.5464 6.90656 18.461 6.85183 18.3635C6.79711 18.2661 6.76264 18.1585 6.7505 18.0474C6.73836 17.9362 6.74879 17.8238 6.78118 17.7168C6.81357 17.6098 6.86724 17.5104 6.93897 17.4247L9.12897 14.8547C9.22408 14.7428 9.28426 14.6055 9.30204 14.4597C9.31981 14.3139 9.29441 14.1662 9.22897 14.0347C8.98991 13.5599 8.87098 13.0336 8.88261 12.5021C8.89423 11.9706 9.03607 11.4501 9.29567 10.9862C9.55527 10.5222 9.92472 10.1291 10.3716 9.84115C10.8185 9.55323 11.3292 9.37932 11.859 9.33469L10.939 10.4147C10.7793 10.6063 10.6686 10.8338 10.6164 11.0777C10.5641 11.3216 10.5719 11.5745 10.639 11.8147L10.899 12.7447C10.9859 13.0424 11.1618 13.3064 11.4032 13.5012C11.6445 13.6961 11.9396 13.8124 12.249 13.8347L13.199 13.9447H13.379C13.5976 13.9449 13.8137 13.8976 14.0122 13.8061C14.2108 13.7146 14.3871 13.581 14.529 13.4147L15.449 12.3347C15.517 13.1878 15.2436 14.033 14.689 14.6847C14.2751 15.1709 13.7274 15.5249 13.1141 15.7027C12.5008 15.8805 11.8488 15.8742 11.239 15.6847C11.0926 15.6357 10.9348 15.6324 10.7865 15.6753C10.6383 15.7181 10.5066 15.8051 10.409 15.9247Z" fill="#000000" />
</svg>