<svg width="24px"  height="24px"  viewBox="0 0 25 24" fill="none" xmlns="http://www.w3.org/2000/svg">
<path fill-rule="evenodd" clip-rule="evenodd" d="M9.63277 4.77859C9.63277 3.38292 10.7642 2.25 12.1614 2.25H13.3348C13.3542 2.25 13.3722 2.25046 13.3811 2.25068L13.3827 2.25072C13.3914 2.25094 13.3936 2.25097 13.3936 2.25097C13.4017 2.25097 13.4094 2.2511 13.4175 2.25137C14.8136 2.29671 15.9099 3.45962 15.8762 4.85334C15.8798 5.01705 15.9253 5.17741 16.0092 5.32025L16.012 5.32483L16.0137 5.32761C16.0147 5.32933 16.0157 5.33105 16.0167 5.33277C16.3057 5.82139 16.9368 5.9828 17.4248 5.69326L17.4342 5.6877C18.6483 4.99097 20.1974 5.40609 20.8989 6.61845L20.8994 6.61946L21.4823 7.63038C21.4966 7.65521 21.5094 7.68077 21.5207 7.70692C22.1593 8.90772 21.7365 10.4053 20.5539 11.0934L20.5488 11.0964C20.3928 11.1855 20.2628 11.3156 20.1737 11.4721L20.165 11.4868L20.1637 11.4889C20.1637 11.4889 20.1638 11.4889 20.1637 11.4889C19.8846 11.9785 20.052 12.601 20.5375 12.8854C20.5384 12.8859 20.5392 12.8864 20.5402 12.8868C20.5445 12.8892 20.5493 12.8918 20.5544 12.8947C20.5645 12.9004 20.5776 12.9081 20.5926 12.9177C21.7824 13.6275 22.1801 15.1644 21.4802 16.3634L21.4759 16.3708L20.8617 17.3957C20.1596 18.6025 18.6135 19.018 17.4014 18.3217C17.2486 18.235 17.0788 18.187 16.9053 18.1811H16.8949C16.3282 18.1863 15.8721 18.6496 15.876 19.2162L15.8761 19.2266C15.8664 20.6236 14.7314 21.75 13.3348 21.75H12.1653C10.7633 21.75 9.62641 20.6151 9.62402 19.2142C9.62194 19.0498 9.57762 18.888 9.4952 18.7448C9.48905 18.7352 9.48311 18.7255 9.4774 18.7157C9.19339 18.2268 8.56626 18.0611 8.07791 18.3457C8.07773 18.3458 8.07808 18.3456 8.07791 18.3457L8.07443 18.3478C8.06907 18.351 8.06209 18.3551 8.05387 18.3596C8.05118 18.3611 8.04831 18.3627 8.04525 18.3643C6.81906 19.0363 5.28169 18.5919 4.60276 17.371L4.02488 16.375C4.0232 16.3723 4.02147 16.3695 4.0197 16.3666C4.01582 16.3602 4.01158 16.353 4.0071 16.3451C3.3157 15.1344 3.73456 13.5921 4.94433 12.898C5.26653 12.7116 5.46455 12.3678 5.46455 11.9971C5.46455 11.6248 5.266 11.2809 4.94352 11.0948L4.94252 11.0942C3.73206 10.393 3.31473 8.84297 4.01364 7.62885L4.02272 7.61351L4.64449 6.59043C5.34802 5.38393 6.89314 4.97206 8.10472 5.66734L8.11341 5.67233C8.25966 5.75887 8.42441 5.80514 8.59241 5.8072C9.15905 5.80752 9.62247 5.35261 9.63277 4.78536V4.77859ZM16.0187 5.33635C16.0193 5.33739 16.0198 5.33823 16.0194 5.33759L16.0187 5.33635ZM12.1614 3.75C11.5931 3.75 11.1328 4.21081 11.1328 4.77859V4.80166C11.1134 6.19296 9.97761 7.31133 8.5854 7.30719L8.58038 7.30717C8.14804 7.30299 7.72604 7.18489 7.35472 6.96639C6.85692 6.68315 6.22486 6.85418 5.93843 7.34922L5.93017 7.36314L5.3098 8.38391C5.02943 8.87928 5.20047 9.51012 5.69437 9.7962L5.31845 10.4452L5.69337 9.79563C6.48008 10.2497 6.96455 11.0889 6.96455 11.9971C6.96455 12.9045 6.47989 13.7436 5.69337 14.1976L5.69135 14.1987C5.20337 14.4784 5.03132 15.0973 5.30225 15.5881C5.30272 15.5888 5.3032 15.5896 5.30367 15.5904C5.30709 15.596 5.31078 15.6022 5.31466 15.609L5.90393 16.6247L5.9119 16.6388C6.18798 17.1392 6.81489 17.3233 7.3176 17.0526C7.3215 17.0503 7.32606 17.0477 7.33117 17.0448C8.52773 16.3536 10.058 16.7544 10.7624 17.9418C10.7631 17.9429 10.7638 17.9439 10.7644 17.9449C10.7708 17.955 10.7764 17.9644 10.7776 17.9664L10.7801 17.9706C11.0008 18.3436 11.1198 18.7685 11.124 19.2025L11.124 19.2097C11.124 19.7838 11.5897 20.25 12.1653 20.25H13.3348C13.906 20.25 14.3699 19.7907 14.376 19.2203C14.3697 17.8271 15.4931 16.6908 16.8868 16.6812L16.892 16.6811L16.9163 16.6811L16.9356 16.6814C17.3621 16.6924 17.7764 16.8093 18.1443 17.0186L18.1476 17.0205C18.6439 17.3061 19.279 17.136 19.5665 16.6391L19.5722 16.6291L20.1867 15.604C20.4705 15.1137 20.3047 14.4863 19.8152 14.2006C19.8117 14.1986 19.8082 14.1965 19.8048 14.1944C18.5954 13.5046 18.1711 11.9673 18.8553 10.7554C18.8647 10.7381 18.8726 10.7252 18.8764 10.7189C19.0978 10.3349 19.4179 10.0157 19.8015 9.79579C20.2942 9.50766 20.4628 8.87769 20.181 8.38325C20.1697 8.36355 20.1594 8.3434 20.1501 8.32286L19.6005 7.36966C19.6005 7.36955 19.6006 7.36976 19.6005 7.36966C19.3141 6.87494 18.6822 6.7037 18.1845 6.98666C16.9853 7.694 15.4386 7.29765 14.7276 6.09969L14.7245 6.09463L14.7229 6.09188C14.7219 6.0902 14.7209 6.08851 14.7199 6.08682C14.4994 5.71423 14.3803 5.29028 14.376 4.85591C14.3759 4.84562 14.3761 4.83532 14.3764 4.82504C14.3944 4.25281 13.9478 3.77385 13.377 3.75088C13.3642 3.75073 13.3532 3.75045 13.3468 3.75029L13.3452 3.75025C13.3369 3.75004 13.3345 3.75001 13.3343 3.75H12.1614ZM7.29694 17.0651C7.29615 17.0656 7.29746 17.0648 7.29907 17.0638L7.29694 17.0651ZM12.7521 10.2805C11.8031 10.2805 11.0346 11.049 11.0346 11.998C11.0346 12.9469 11.8031 13.7154 12.7521 13.7154C13.701 13.7154 14.4695 12.9469 14.4695 11.998C14.4695 11.049 13.701 10.2805 12.7521 10.2805ZM9.53459 11.998C9.53459 10.2206 10.9747 8.78051 12.7521 8.78051C14.5294 8.78051 15.9695 10.2206 15.9695 11.998C15.9695 13.7753 14.5294 15.2154 12.7521 15.2154C10.9747 15.2154 9.53459 13.7753 9.53459 11.998Z" fill="#000000" />
</svg>