<svg width="24px"  height="24px"  viewBox="0 0 25 24" fill="none" xmlns="http://www.w3.org/2000/svg">
<path fill-rule="evenodd" clip-rule="evenodd" d="M12.2017 8.03711C14.3906 8.03711 16.1645 9.81055 16.1645 11.998C16.1645 14.1875 14.3906 15.9629 12.2017 15.9629C10.0127 15.9629 8.23975 14.1875 8.23975 11.998C8.23975 9.81055 10.0127 8.03711 12.2017 8.03711ZM14.6645 11.998C14.6645 10.6387 13.5625 9.53711 12.2017 9.53711C10.8413 9.53711 9.73975 10.6387 9.73975 11.998C9.73975 13.3594 10.8413 14.4629 12.2017 14.4629C13.5625 14.4629 14.6645 13.3594 14.6645 11.998Z" fill="#000000" />
<path fill-rule="evenodd" clip-rule="evenodd" d="M19.9824 11.6602C19.7207 11.8125 19.7217 12.1875 19.9814 12.3379C21.3403 13.123 21.8076 14.8613 21.0225 16.2207L20.2686 17.5273C19.7788 18.377 18.917 18.877 18.0078 18.9434C17.46 18.9824 16.8955 18.8633 16.3848 18.5684C16.1245 18.418 15.7983 18.6055 15.7983 18.9062C15.7983 20.4766 14.5264 21.75 12.9556 21.75H11.4478C9.87744 21.75 8.60449 20.4766 8.60449 18.9062C8.60449 18.6074 8.2793 18.418 8.01855 18.5684C7.05078 19.127 5.8916 19.0527 5.02051 18.4727C4.66748 18.2383 4.36182 17.9199 4.13574 17.5273L3.38135 16.2207C2.59668 14.8613 3.06152 13.123 4.42139 12.3379C4.68164 12.1875 4.68262 11.8125 4.42139 11.6602C3.06152 10.877 2.59668 9.13867 3.38135 7.77734L4.13574 6.47266C4.56006 5.73828 5.26269 5.26367 6.03369 5.10742C6.68896 4.97461 7.39355 5.07031 8.01855 5.43164C8.2793 5.58203 8.60449 5.39453 8.60449 5.09375C8.60449 4.41016 8.84521 3.7832 9.24609 3.29297C9.76758 2.65625 10.5601 2.25 11.4478 2.25H12.9556C14.5254 2.25 15.7983 3.52344 15.7983 5.09375C15.7983 5.39453 16.1245 5.58203 16.3848 5.43164C17.7446 4.64648 19.4834 5.11328 20.2686 6.47266L21.0225 7.77734C21.8076 9.13867 21.3403 10.877 19.9824 11.6602ZM19.7236 8.52734L18.9697 7.22266C18.7212 6.79102 18.2705 6.55078 17.8076 6.54883C17.5791 6.54883 17.3477 6.60742 17.1357 6.73047C16.5693 7.05859 15.9395 7.05469 15.417 6.82031C14.7769 6.53125 14.2983 5.89453 14.2983 5.09375C14.2983 4.67188 14.105 4.29492 13.8018 4.04883C13.5708 3.86133 13.2764 3.75 12.9556 3.75H11.4478C10.7065 3.75 10.1045 4.35156 10.1045 5.09375C10.1045 6.54883 8.5293 7.45898 7.26855 6.73047C6.80762 6.46484 6.25439 6.50195 5.8418 6.7832C5.67969 6.89258 5.53906 7.04102 5.43457 7.22266L4.68066 8.52734C4.30957 9.17188 4.5293 9.99023 5.17139 10.3613C5.98242 10.8301 6.27197 11.752 6.03857 12.543C5.90967 12.9805 5.6206 13.377 5.17139 13.6367C4.5293 14.0078 4.30957 14.8281 4.68066 15.4707L5.43457 16.7773C5.80566 17.4199 6.62549 17.6406 7.26855 17.2695C8.52832 16.543 10.1045 17.4512 10.1045 18.9062C10.1045 19.3105 10.2832 19.6738 10.5659 19.9199C10.8018 20.125 11.1104 20.25 11.4478 20.25H12.9556C13.6978 20.25 14.2983 19.6484 14.2983 18.9062C14.2983 17.4512 15.8745 16.543 17.1348 17.2695C17.7764 17.6406 18.5986 17.4199 18.9697 16.7773L19.7236 15.4707C20.0937 14.8301 19.8735 14.0078 19.2314 13.6367C17.9707 12.9082 17.9717 11.0918 19.2305 10.3613C19.6235 10.1348 19.8584 9.74023 19.8975 9.32227C19.9224 9.05469 19.8677 8.77734 19.7236 8.52734Z" fill="#000000" />
</svg>