<svg width="24px"  height="24px"  viewBox="0 0 25 24" fill="none" xmlns="http://www.w3.org/2000/svg">
<path fill-rule="evenodd" clip-rule="evenodd" d="M14.5329 4.40498C13.6779 3.5499 12.2919 3.5499 11.4368 4.40498L5.53877 10.303C4.68369 11.1581 4.68369 12.5441 5.53877 13.3991L7.75461 15.615C8.60968 16.4701 9.99567 16.4701 10.8507 15.615L16.7488 9.71696C17.6038 8.86189 17.6038 7.47589 16.7488 6.62082L14.5329 4.40498ZM10.3761 3.34432C11.817 1.90346 14.1527 1.90346 15.5936 3.34432L17.8094 5.56016C19.2503 7.00101 19.2503 9.33676 17.8094 10.7776L11.9114 16.6756C10.4705 18.1165 8.1348 18.1165 6.69395 16.6756L4.4781 14.4598C3.03725 13.0189 3.03725 10.6832 4.4781 9.24235L10.3761 3.34432Z" fill="#000000" />
<path fill-rule="evenodd" clip-rule="evenodd" d="M3.23047 20.9863C3.23047 20.5721 3.56626 20.2363 3.98047 20.2363H8.35183C8.76605 20.2363 9.10183 20.5721 9.10183 20.9863C9.10183 21.4005 8.76605 21.7363 8.35183 21.7363H3.98047C3.56626 21.7363 3.23047 21.4005 3.23047 20.9863Z" fill="#000000" />
<path fill-rule="evenodd" clip-rule="evenodd" d="M7.26899 6.76172C7.26899 6.34751 7.60478 6.01172 8.01899 6.01172H17.7881C18.2023 6.01172 18.5381 6.34751 18.5381 6.76172C18.5381 7.17593 18.2023 7.51172 17.7881 7.51172H8.01899C7.60478 7.51172 7.26899 7.17593 7.26899 6.76172ZM3.86719 10.262C3.86719 9.8478 4.20297 9.51201 4.61719 9.51201H17.2735C17.6877 9.51201 18.0235 9.8478 18.0235 10.262C18.0235 10.6762 17.6877 11.012 17.2735 11.012H4.61719C4.20297 11.012 3.86719 10.6762 3.86719 10.262ZM4.11438 13.7623C4.11438 13.3481 4.45017 13.0123 4.86438 13.0123H13.7633C14.1776 13.0123 14.5133 13.3481 14.5133 13.7623C14.5133 14.1765 14.1776 14.5123 13.7633 14.5123H4.86438C4.45017 14.5123 4.11438 14.1765 4.11438 13.7623Z" fill="#000000" />
<path fill-rule="evenodd" clip-rule="evenodd" d="M15.6318 11.0966C15.9247 10.8037 16.3996 10.8037 16.6925 11.0966L21.9508 16.3549C22.9892 17.3933 22.9892 19.0775 21.9508 20.1159L21.2487 20.8179C20.2103 21.8564 18.5262 21.8564 17.4877 20.8179L12.2294 15.5597C11.9365 15.2668 11.9365 14.7919 12.2294 14.499C12.5223 14.2061 12.9972 14.2061 13.2901 14.499L18.5484 19.7573C19.001 20.2099 19.7354 20.2099 20.1881 19.7573L20.8901 19.0553C21.3427 18.6026 21.3427 17.8682 20.8901 17.4156L15.6318 12.1573C15.3389 11.8644 15.3389 11.3895 15.6318 11.0966Z" fill="#000000" />
<path fill-rule="evenodd" clip-rule="evenodd" d="M20.8214 15.458C21.1143 15.7508 21.1143 16.2257 20.8214 16.5186L17.6514 19.6886C17.3585 19.9815 16.8837 19.9815 16.5908 19.6886C16.2979 19.3957 16.2979 18.9209 16.5908 18.628L19.7608 15.458C20.0537 15.1651 20.5285 15.1651 20.8214 15.458Z" fill="#000000" />
</svg>