<svg width="24px"  height="24px"  viewBox="0 0 25 24" fill="none" xmlns="http://www.w3.org/2000/svg">
<path fill-rule="evenodd" clip-rule="evenodd" d="M18.2182 3.64829C18.1894 3.79087 18.1196 3.92368 18.0141 4.02915L14.6152 7.42759C14.5644 7.47642 14.5249 7.53501 14.4975 7.59946C14.4956 7.60337 14.4941 7.60923 14.4921 7.61314C14.4541 7.71079 14.4438 7.81821 14.4648 7.92368L14.7856 9.53501C14.8291 9.75181 15 9.92368 15.2182 9.96665L16.8232 10.2831C17.0019 10.3182 17.1884 10.2616 17.3193 10.1307L20.7182 6.73228C20.896 6.55454 21.1503 6.47837 21.3964 6.52915C21.6425 6.57798 21.8476 6.7479 21.9428 6.97837C23.0561 9.70298 22.5 12.9549 20.2817 15.1717C18.1972 17.2557 15.2021 17.867 12.581 17.0174L8.95504 20.6444C7.68306 21.9159 5.53609 22.1483 4.12545 20.867C3.4609 20.2635 3.09175 19.4686 3.01509 18.6522C2.92281 17.6678 3.25386 16.6542 4.00338 15.9042L7.73433 12.1737C6.8774 9.54673 7.48922 6.55064 9.57515 4.4647C11.7939 2.24595 15.0371 1.69907 17.7651 2.80259C17.998 2.89634 18.1684 3.10142 18.2187 3.34947C18.2387 3.44907 18.2382 3.55064 18.2182 3.64829ZM11.8564 15.6209C12.0688 15.4081 12.3867 15.3436 12.6655 15.4549C14.8569 16.3299 17.4502 15.8827 19.2211 14.1112C20.6997 12.6327 21.2573 10.5838 20.8911 8.6815L18.3794 11.1932L17.8491 10.6639L18.3784 11.1952C17.8955 11.6756 17.2041 11.8866 16.5317 11.7557L14.9272 11.4374C14.1137 11.2752 13.477 10.6405 13.3144 9.82798L12.9941 8.21861C12.8588 7.54478 13.0708 6.84946 13.5546 6.36704L16.0639 3.85728C14.1577 3.494 12.1132 4.04868 10.6357 5.52525C8.8647 7.29673 8.41646 9.88853 9.29781 12.0877C9.40963 12.367 9.3442 12.6834 9.13179 12.8963L5.06441 16.9647C4.29146 17.7381 4.31002 19.0077 5.13424 19.7557C5.58785 20.1678 6.22847 20.3045 6.83687 20.1678C7.22066 20.0819 7.59175 19.8866 7.89449 19.5838L11.8564 15.6209Z" fill="#000000" />
</svg>