<svg width="24px"  height="24px"  viewBox="0 0 25 24" fill="none" xmlns="http://www.w3.org/2000/svg">
<path fill-rule="evenodd" clip-rule="evenodd" d="M7.91381 2.58095C8.89258 1.79386 10.3478 2.49085 10.3478 3.747V7.98589C10.3478 8.20348 10.461 8.40557 10.6471 8.5195C10.6471 8.5195 10.6471 8.5195 10.6471 8.5195L12.4234 9.60642C12.623 9.72855 12.8759 9.72914 13.0774 9.6063C13.0775 9.60622 13.0773 9.60638 13.0774 9.6063L14.8523 8.5196C15.0385 8.40567 15.1518 8.20349 15.1518 7.98589V3.747C15.1518 2.49085 16.607 1.79386 17.5858 2.58095L19.7445 4.31764C19.7445 4.31766 19.7444 4.31763 19.7445 4.31764C20.6645 5.05771 21.2008 6.17543 21.2008 7.35753V11.6046C21.2008 12.6469 20.784 13.645 20.043 14.3785L16.746 17.64C16.7458 17.6401 16.7461 17.6398 16.746 17.64C16.6851 17.7008 16.6518 17.7818 16.6518 17.8638V20.9995C16.6518 21.4137 16.316 21.7495 15.9018 21.7495C15.4876 21.7495 15.1518 21.4137 15.1518 20.9995V17.8638C15.1518 17.3785 15.3466 16.9163 15.688 16.5766L15.6895 16.5751L18.9877 13.3125C19.4444 12.8604 19.7008 12.246 19.7008 11.6046V7.35753C19.7008 6.63017 19.3708 5.9421 18.8043 5.48645L16.6518 3.75469V7.98589C16.6518 8.72603 16.2668 9.41254 15.6355 9.79887C15.6355 9.7989 15.6356 9.79884 15.6355 9.79887L13.8603 10.8858C13.1793 11.3016 12.3213 11.3025 11.6405 10.8859C11.6405 10.8859 11.6405 10.8859 11.6405 10.8859L9.86422 9.79897C9.23292 9.41265 8.84783 8.72609 8.84783 7.98589V3.75469L6.69651 5.4863C6.12934 5.94189 5.79883 6.63025 5.79883 7.35753V11.6046C5.79883 12.246 6.05517 12.8604 6.51186 13.3125L9.81162 16.5766C10.153 16.9163 10.3478 17.3785 10.3478 17.8638V20.9995C10.3478 21.4137 10.012 21.7495 9.59783 21.7495C9.18362 21.7495 8.84783 21.4137 8.84783 20.9995V17.8638C8.84783 17.7818 8.81508 17.7014 8.7542 17.6405C8.75401 17.6403 8.75438 17.6407 8.7542 17.6405L5.45681 14.3787C4.71575 13.6452 4.29883 12.6469 4.29883 11.6046V7.35753C4.29883 6.17544 4.83508 5.05766 5.75628 4.31754C5.75637 4.31747 5.7562 4.31762 5.75628 4.31754L7.91381 2.58095Z" fill="#000000" />
</svg>