<svg width="24px"  height="24px"  viewBox="0 0 25 24" fill="none" xmlns="http://www.w3.org/2000/svg">
<path d="M8.96289 16.4099C8.67285 16.71 8.19775 16.71 7.90186 16.4199C6.74707 15.29 6.021 13.7 6.021 11.9399C6.021 10.23 6.7041 8.68994 7.82812 7.56006H7.82275C8.94971 6.41016 10.542 5.67993 12.2939 5.67993C14.0381 5.67993 15.6279 6.41016 16.7617 7.56006C17.874 8.69995 18.5581 10.23 18.5581 11.9399C18.5581 13.7 17.832 15.2898 16.6729 16.4099C16.376 16.7 15.9009 16.7 15.6118 16.3999C15.3237 16.0999 15.3301 15.6301 15.6279 15.3401C16.5068 14.48 17.0581 13.28 17.0581 11.9399C17.0581 10.6399 16.541 9.48022 15.6919 8.61011C14.8257 7.73022 13.6157 7.17993 12.2939 7.17993C10.9609 7.17993 9.75293 7.73022 8.89404 8.61011C8.03711 9.48022 7.521 10.6399 7.521 11.9399C7.521 13.28 8.07178 14.49 8.95312 15.3501C9.24902 15.6401 9.25293 16.1199 8.96289 16.4099Z" fill="#000000" />
<path d="M18.0811 18.9299C17.79 18.6299 17.793 18.1602 18.0879 17.8701C19.6001 16.3701 20.542 14.29 20.542 12C20.542 9.73999 19.6377 7.69995 18.1631 6.19995C16.6689 4.68994 14.5889 3.75 12.2939 3.75C9.99902 3.75 7.91895 4.68994 6.4248 6.19995C4.94971 7.69995 4.0459 9.73999 4.0459 12C4.0459 14.29 4.979 16.3701 6.49902 17.8601C6.79395 18.1501 6.79883 18.6299 6.50879 18.9299C6.21875 19.22 5.74365 19.23 5.44775 18.9399C3.64893 17.1699 2.5459 14.71 2.5459 12C2.5459 9.33008 3.6167 6.90991 5.35791 5.1499C7.12109 3.35986 9.58105 2.25 12.2939 2.25C15.0068 2.25 17.4668 3.35986 19.23 5.1499C20.9707 6.90991 22.042 9.33008 22.042 12C22.042 14.71 20.9268 17.1699 19.1421 18.9299C18.8467 19.22 18.3721 19.22 18.0811 18.9299Z" fill="#000000" />
<path fill-rule="evenodd" clip-rule="evenodd" d="M12.29 21.75C11.876 21.75 11.54 21.4099 11.54 21V14.8225C10.2915 14.491 9.37207 13.3511 9.37207 12C9.37207 10.3899 10.6777 9.08008 12.29 9.08008C13.9009 9.08008 15.207 10.3899 15.207 12C15.207 13.3508 14.2876 14.4905 13.04 14.8223V21C13.04 21.4099 12.7041 21.75 12.29 21.75ZM13.707 12C13.707 11.22 13.0718 10.5801 12.29 10.5801C11.5068 10.5801 10.8721 11.22 10.8721 12C10.8721 12.79 11.5068 13.4199 12.29 13.4199C13.0718 13.4199 13.707 12.79 13.707 12Z" fill="#000000" />
</svg>