<svg width="24px"  height="24px"  viewBox="0 0 25 24" fill="none" xmlns="http://www.w3.org/2000/svg">
<path fill-rule="evenodd" clip-rule="evenodd" d="M2.54395 12C2.54395 6.61589 6.90876 2.25 12.2939 2.25C17.6791 2.25 22.0439 6.61589 22.0439 12C22.0439 17.3851 17.6791 21.75 12.2939 21.75C6.90881 21.75 2.54395 17.3851 2.54395 12ZM12.2939 3.75C7.73729 3.75 4.04395 7.44421 4.04395 12C4.04395 16.5567 7.73724 20.25 12.2939 20.25C16.8507 20.25 20.5439 16.5567 20.5439 12C20.5439 7.44421 16.8506 3.75 12.2939 3.75ZM9.04811 8.56922C9.37672 8.82139 9.43868 9.29221 9.18651 9.62081C8.11298 11.0198 8.0979 12.9771 9.15432 14.3906C9.40229 14.7224 9.33435 15.1923 9.00257 15.4403C8.67078 15.6883 8.2008 15.6204 7.95282 15.2886C6.49313 13.3355 6.51502 10.6382 7.99652 8.70763C8.24869 8.37902 8.7195 8.31705 9.04811 8.56922ZM15.6171 8.56906C15.9458 8.31701 16.4166 8.37915 16.6687 8.70785C18.1488 10.6381 18.1721 13.3353 16.7122 15.2886C16.4642 15.6204 15.9943 15.6883 15.6625 15.4403C15.3307 15.1923 15.2627 14.7224 15.5107 14.3906C16.567 12.9773 16.5513 11.0199 15.4784 9.6206C15.2263 9.29189 15.2884 8.8211 15.6171 8.56906ZM12.332 11.1933C12.7462 11.1933 13.082 11.5291 13.082 11.9433V12.0007C13.082 12.4149 12.7462 12.7507 12.332 12.7507C11.9177 12.7507 11.582 12.4149 11.582 12.0007V11.9433C11.582 11.5291 11.9177 11.1933 12.332 11.1933ZM12.332 13.9128C12.7462 13.9128 13.082 14.2486 13.082 14.6628V17.4426C13.082 17.8568 12.7462 18.1926 12.332 18.1926C11.9177 18.1926 11.582 17.8568 11.582 17.4426V14.6628C11.582 14.2486 11.9177 13.9128 12.332 13.9128Z" fill="#000000" />
</svg>