<svg width="24px"  height="24px"  viewBox="0 0 25 24" fill="none" xmlns="http://www.w3.org/2000/svg">
<path fill-rule="evenodd" clip-rule="evenodd" d="M5.92896 3.89819C6.34318 3.89819 6.67897 4.23398 6.67897 4.64819C6.67897 4.84711 6.59995 5.03884 6.4593 5.1795C3.23883 8.39996 3.23883 13.6208 6.4593 16.8413C6.75219 17.1342 6.75219 17.609 6.4593 17.9019C6.1664 18.1948 5.69153 18.1948 5.39863 17.9019C1.60011 14.1034 1.5924 7.95013 5.3755 4.14205C5.51263 3.99218 5.70982 3.89819 5.92896 3.89819ZM18.1286 4.11786C18.4215 3.82497 18.8964 3.82497 19.1893 4.11786C22.9955 7.92412 22.9955 14.0947 19.1893 17.901C18.8964 18.1938 18.4215 18.1938 18.1286 17.901C17.8357 17.6081 17.8357 17.1332 18.1286 16.8403C21.3491 13.6198 21.3491 8.39899 18.1286 5.17852C17.8357 4.88563 17.8357 4.41076 18.1286 4.11786ZM15.3855 7.30041C15.6784 7.00752 16.1533 7.00752 16.4462 7.30041C18.3723 9.2266 18.4792 12.2721 16.7991 14.3365C16.5377 14.6578 16.0653 14.7063 15.744 14.4448C15.4228 14.1833 15.3743 13.7109 15.6357 13.3897C16.8395 11.9106 16.7576 9.73322 15.3855 8.36107C15.0926 8.06818 15.0926 7.59331 15.3855 7.30041ZM9.2107 7.30245C9.50273 7.5962 9.50133 8.07107 9.20758 8.3631C7.82762 9.73496 7.74609 11.9099 8.95733 13.3882C9.21985 13.7086 9.17292 14.1812 8.85252 14.4437C8.53211 14.7062 8.05956 14.6593 7.79705 14.3389C6.10498 12.2737 6.2122 9.22581 8.15004 7.29933C8.44379 7.0073 8.91866 7.0087 9.2107 7.30245ZM12.2942 10.4084C11.9608 10.4084 11.6918 10.6781 11.6918 11.0098C11.6918 11.3268 11.9362 11.5863 12.2484 11.6096C12.2632 11.6087 12.278 11.6082 12.293 11.6082C12.3083 11.6082 12.3236 11.6087 12.3387 11.6096C12.6503 11.5869 12.8956 11.3275 12.8956 11.0098C12.8956 10.6778 12.6262 10.4084 12.2942 10.4084ZM13.2886 12.8616C13.9475 12.5072 14.3956 11.8114 14.3956 11.0098C14.3956 9.84934 13.4546 8.90837 12.2942 8.90837C11.1331 8.90837 10.1918 9.84898 10.1918 11.0098C10.1918 11.8109 10.6392 12.5061 11.2974 12.8608L8.91492 19.0837C8.76681 19.4705 8.96034 19.9042 9.34717 20.0523C9.734 20.2004 10.1677 20.0069 10.3158 19.62L12.2928 14.4562L14.2691 19.62C14.4171 20.0068 14.8508 20.2004 15.2376 20.0523C15.6245 19.9043 15.818 19.4706 15.67 19.0838L13.2886 12.8616Z" fill="#000000" />
</svg>