<svg width="24px"  height="24px"  viewBox="0 0 25 24" fill="none" xmlns="http://www.w3.org/2000/svg">
<path fill-rule="evenodd" clip-rule="evenodd" d="M17.3854 7.06809C14.6816 4.36342 10.2966 4.36329 7.5917 7.06818C7.2988 7.36107 6.82393 7.36107 6.53103 7.06818C6.23814 6.77529 6.23814 6.30041 6.53104 6.00752C9.82161 2.71694 15.1566 2.71682 18.4463 6.0076C18.7391 6.30054 18.739 6.77542 18.4461 7.06826C18.1532 7.36111 17.6783 7.36103 17.3854 7.06809ZM14.7797 9.67319C13.5139 8.40738 11.4619 8.40738 10.1961 9.67319C9.90321 9.96608 9.42834 9.96608 9.13545 9.67319C8.84256 9.38029 8.84256 8.90542 9.13545 8.61253C10.987 6.76093 13.9887 6.76093 15.8403 8.61253C16.1332 8.90542 16.1332 9.38029 15.8403 9.67319C15.5474 9.96608 15.0726 9.96608 14.7797 9.67319ZM12.4887 10.6292C12.9029 10.6292 13.2387 10.965 13.2387 11.3792V12.3405H18.7876C20.5865 12.3405 22.0439 13.7993 22.0439 15.5969V17.2042C22.0439 19.003 20.5863 20.4606 18.7876 20.4606H5.80032C4.00157 20.4606 2.54395 19.003 2.54395 17.2042V15.5969C2.54395 13.7993 4.00138 12.3405 5.80032 12.3405H11.7387V11.3792C11.7387 10.965 12.0745 10.6292 12.4887 10.6292ZM12.471 13.8405H5.80032C4.83019 13.8405 4.04395 14.6273 4.04395 15.5969V17.2042C4.04395 18.1745 4.83 18.9606 5.80032 18.9606H18.7876C19.7579 18.9606 20.5439 18.1745 20.5439 17.2042V15.5969C20.5439 14.6273 19.7577 13.8405 18.7876 13.8405H12.5064C12.5006 13.8406 12.4947 13.8407 12.4887 13.8407C12.4828 13.8407 12.4769 13.8406 12.471 13.8405ZM5.79184 16.4009C5.79184 15.9867 6.12762 15.6509 6.54184 15.6509H7.0507C7.46491 15.6509 7.8007 15.9867 7.8007 16.4009C7.8007 16.8151 7.46491 17.1509 7.0507 17.1509H6.54184C6.12762 17.1509 5.79184 16.8151 5.79184 16.4009ZM8.84758 16.4009C8.84758 15.9867 9.18337 15.6509 9.59758 15.6509H10.1064C10.5207 15.6509 10.8564 15.9867 10.8564 16.4009C10.8564 16.8151 10.5207 17.1509 10.1064 17.1509H9.59758C9.18337 17.1509 8.84758 16.8151 8.84758 16.4009Z" fill="#000000" />
</svg>