<svg width="24px"  height="24px"  viewBox="0 0 25 24" fill="none" xmlns="http://www.w3.org/2000/svg">
<path fill-rule="evenodd" clip-rule="evenodd" d="M7.60866 4.36743C8.02288 4.36743 8.35866 4.70322 8.35866 5.11743V11.5127H11.5439V9.0193C11.5439 8.60509 11.8797 8.2693 12.2939 8.2693C12.7082 8.2693 13.0439 8.60509 13.0439 9.0193V11.5127H16.2292V5.11743C16.2292 4.70322 16.565 4.36743 16.9792 4.36743C17.3934 4.36743 17.7292 4.70322 17.7292 5.11743V11.5127H18.7876C20.5863 11.5127 22.0439 12.9703 22.0439 14.7691V16.3764C22.0439 18.1752 20.5863 19.6328 18.7876 19.6328H5.80032C4.00157 19.6328 2.54395 18.1752 2.54395 16.3764V14.7691C2.54395 12.9703 4.00157 11.5127 5.80032 11.5127H6.85866V5.11743C6.85866 4.70322 7.19445 4.36743 7.60866 4.36743ZM7.58937 13.0127H5.80032C4.83 13.0127 4.04395 13.7988 4.04395 14.7691V16.3764C4.04395 17.3468 4.83 18.1328 5.80032 18.1328H18.7876C19.7579 18.1328 20.5439 17.3468 20.5439 16.3764V14.7691C20.5439 13.7988 19.7579 13.0127 18.7876 13.0127H16.9985C16.9921 13.0129 16.9857 13.0129 16.9792 13.0129C16.9728 13.0129 16.9663 13.0129 16.9599 13.0127H7.62795C7.62154 13.0129 7.61511 13.0129 7.60866 13.0129C7.60221 13.0129 7.59578 13.0129 7.58937 13.0127ZM5.79279 15.5726C5.79279 15.1584 6.12857 14.8226 6.54279 14.8226H7.05165C7.46586 14.8226 7.80165 15.1584 7.80165 15.5726C7.80165 15.9868 7.46586 16.3226 7.05165 16.3226H6.54279C6.12857 16.3226 5.79279 15.9868 5.79279 15.5726ZM8.84758 15.5726C8.84758 15.1584 9.18337 14.8226 9.59758 14.8226H10.1064C10.5207 14.8226 10.8564 15.1584 10.8564 15.5726C10.8564 15.9868 10.5207 16.3226 10.1064 16.3226H9.59758C9.18337 16.3226 8.84758 15.9868 8.84758 15.5726Z" fill="#000000" />
</svg>