<svg width="24px"  height="24px"  viewBox="0 0 25 24" fill="none" xmlns="http://www.w3.org/2000/svg">
<path fill-rule="evenodd" clip-rule="evenodd" d="M10.3109 3.40975C11.4475 2.5112 13.0526 2.5112 14.1892 3.40975L21.7155 9.36757C22.0403 9.62466 22.0952 10.0964 21.8381 10.4211C21.581 10.7459 21.1093 10.8008 20.7845 10.5437L20.5027 10.3206V17.4505C20.5027 19.5567 18.7951 21.2643 16.6888 21.2643H7.80949C5.70327 21.2643 3.9956 19.5567 3.9956 17.4505V10.322L3.71553 10.5437C3.39076 10.8008 2.91907 10.7459 2.66198 10.4211C2.40489 10.0964 2.45975 9.62466 2.78453 9.36757L10.3109 3.40975ZM5.4956 9.13459V17.4505C5.4956 18.7282 6.5317 19.7643 7.80949 19.7643H16.6888C17.9666 19.7643 19.0027 18.7282 19.0027 17.4505V9.13321L13.259 4.58647C13.2588 4.58637 13.2591 4.58657 13.259 4.58647C12.6676 4.11927 11.8323 4.11907 11.2411 4.58647L5.4956 9.13459ZM15.4218 12.1887C13.5719 10.7065 10.9269 10.7065 9.07698 12.1887C8.75372 12.4477 8.28171 12.3956 8.02272 12.0723C7.76373 11.749 7.81583 11.277 8.13909 11.018C10.5372 9.09673 13.9616 9.09673 16.3597 11.018C16.6829 11.277 16.735 11.749 16.476 12.0723C16.2171 12.3956 15.745 12.4477 15.4218 12.1887ZM13.6224 14.4216C12.8339 13.756 11.6657 13.7579 10.8853 14.4246C10.5704 14.6936 10.0969 14.6564 9.8279 14.3415C9.55885 14.0265 9.59606 13.5531 9.91101 13.2841C11.2536 12.1371 13.2437 12.1391 14.5899 13.2754C14.9065 13.5426 14.9464 14.0158 14.6793 14.3323C14.4121 14.6488 13.9389 14.6888 13.6224 14.4216Z" fill="#000000" />
<path fill-rule="evenodd" clip-rule="evenodd" d="M12.2038 15.1078C12.7003 15.0836 13.1224 15.4664 13.1466 15.9629L13.1486 16.0028C13.1728 16.4992 12.7899 16.9213 12.2935 16.9455C11.797 16.9697 11.3749 16.5869 11.3507 16.0905L11.3487 16.0506C11.3245 15.5541 11.7074 15.132 12.2038 15.1078Z" fill="#000000" />
</svg>