<svg width="24px"  height="24px"  viewBox="0 0 25 24" fill="none" xmlns="http://www.w3.org/2000/svg">
<path fill-rule="evenodd" clip-rule="evenodd" d="M10.0413 3.02825C11.354 1.99058 13.2082 1.99058 14.5209 3.02825L14.5238 3.03051L20.4386 7.75288C21.1536 8.29909 21.5789 9.14262 21.5933 10.0419L21.5934 10.0539L21.5934 17.9078L21.5933 17.9121C21.5813 20.043 19.8445 21.7609 17.7131 21.75H6.87122C4.73937 21.7598 3.00381 20.0392 2.99415 17.9083L2.99414 17.9049V10.0551C3.00326 9.15074 3.4302 8.30358 4.14788 7.75772L10.0413 3.02825ZM10.9735 4.20343L5.07854 8.93415C5.07266 8.93888 5.0667 8.94351 5.06068 8.94805C4.70898 9.21325 4.49963 9.626 4.49414 10.0668V17.9031C4.5009 19.2054 5.56224 20.2566 6.86554 20.25L6.86936 20.2499L17.7152 20.25L17.7195 20.25C19.023 20.2573 20.085 19.2076 20.0934 17.9054V10.0605C20.0847 9.62046 19.8752 9.20819 19.5241 8.94187L19.5095 8.93047L13.5907 4.20501C13.5903 4.20466 13.5899 4.20432 13.5894 4.20397C12.8227 3.59886 11.7404 3.59868 10.9735 4.20343ZM8.16692 10.0898C8.16692 9.67555 8.5027 9.33976 8.91692 9.33976C13.157 9.33976 16.5936 12.7775 16.5936 17.0164C16.5936 17.4306 16.2578 17.7664 15.8436 17.7664C15.4294 17.7664 15.0936 17.4306 15.0936 17.0164C15.0936 13.6058 12.3284 10.8398 8.91692 10.8398C8.5027 10.8398 8.16692 10.504 8.16692 10.0898ZM8.16692 13.5432C8.16692 13.129 8.5027 12.7932 8.91692 12.7932C11.2499 12.7932 13.1405 14.6838 13.1405 17.0167C13.1405 17.431 12.8047 17.7667 12.3905 17.7667C11.9763 17.7667 11.6405 17.431 11.6405 17.0167C11.6405 15.5122 10.4214 14.2932 8.91692 14.2932C8.5027 14.2932 8.16692 13.9574 8.16692 13.5432ZM8.91692 16.2243C9.33113 16.2243 9.66692 16.5601 9.66692 16.9743V17.0161C9.66692 17.4303 9.33113 17.7661 8.91692 17.7661C8.5027 17.7661 8.16692 17.4303 8.16692 17.0161V16.9743C8.16692 16.5601 8.5027 16.2243 8.91692 16.2243Z" fill="#000000" />
</svg>