<svg width="24px"  height="24px"  viewBox="0 0 25 24" fill="none" xmlns="http://www.w3.org/2000/svg">
<path d="M21.1049 20.9004C20.6928 20.8604 20.3898 20.4908 20.4299 20.0806C21.144 12.6507 16.331 5.8106 9.09905 3.98052C8.67595 3.87065 8.36199 3.9605 8.13005 4.13042C7.88103 4.30059 7.68401 4.60063 7.59587 4.95049C7.50701 5.30059 7.53996 5.65044 7.67497 5.91045C7.7531 6.06572 7.87444 6.21343 8.06291 6.32915C8.17815 6.39995 8.31828 6.45879 8.48894 6.50054H8.50188C13.5099 7.78057 17.215 12.0105 17.832 17.1504C17.935 18.0005 17.674 18.7405 17.1889 19.2806C16.717 19.8006 16.0639 20.1106 15.4079 20.2005C14.7519 20.2906 14.038 20.1807 13.444 19.8006C12.832 19.4007 12.401 18.7405 12.2909 17.8804L13.0219 17.7872L12.7824 17.8145L12.2909 17.8804L12.29 17.8707C11.9299 14.6106 9.34197 12.0506 6.08391 11.7305C5.67082 11.6905 5.37004 11.3206 5.41106 10.9104C5.45183 10.5005 5.81902 10.2005 6.23088 10.2405C10.195 10.6307 13.3429 13.7405 13.7809 17.7005C13.8395 18.1443 14.0356 18.3919 14.2609 18.5406C14.507 18.7007 14.8429 18.7706 15.1969 18.7205C15.3815 18.6946 15.5558 18.636 15.7096 18.5533C15.8508 18.4771 15.9748 18.3807 16.0739 18.2706C16.267 18.0606 16.394 17.7508 16.342 17.3206C15.799 12.8106 12.538 9.08061 8.12908 7.95049L8.12981 7.94756C7.27702 7.74565 6.67058 7.24761 6.33806 6.59062C6.01384 5.95073 5.97795 5.23076 6.14202 4.58061C6.22722 4.24834 6.3698 3.92143 6.56828 3.62505C6.75188 3.35063 6.98357 3.10234 7.26189 2.90044C7.85686 2.48052 8.62395 2.3106 9.46697 2.53057C17.4169 4.54058 22.707 12.0606 21.923 20.2205C21.884 20.6307 21.517 20.9405 21.1049 20.9004Z" fill="#000000" />
<path fill-rule="evenodd" clip-rule="evenodd" d="M8.75285 18.7305C8.58489 20.4605 7.05388 21.7208 5.33 21.5506C3.60686 21.3807 2.34685 19.8504 2.51506 18.1304C2.62688 16.9805 3.35588 15.9908 4.41692 15.5406C5.29289 15.1707 6.28996 15.2205 7.12688 15.6805C8.23308 16.2806 8.87395 17.4805 8.75285 18.7305ZM5.476 20.0606C6.37395 20.1507 7.17302 19.4908 7.25993 18.5906C7.32292 17.9407 6.98894 17.3106 6.40886 17.0005C5.97502 16.7605 5.45598 16.7305 4.99895 16.9305C4.44597 17.1604 4.06584 17.6807 4.00798 18.2706C3.91985 19.1707 4.57683 19.9708 5.476 20.0606Z" fill="#000000" />
</svg>