<svg width="24px"  height="24px"  viewBox="0 0 25 24" fill="none" xmlns="http://www.w3.org/2000/svg">
<path fill-rule="evenodd" clip-rule="evenodd" d="M2.97126 3.2867C3.26434 2.994 3.73922 2.99432 4.03192 3.28741L6.87115 6.13042C6.90056 6.15557 6.92816 6.18315 6.95364 6.21302L10.5496 9.81375C10.5805 9.84004 10.6094 9.86889 10.6358 9.90007L18.6708 17.9457C18.9635 18.2388 18.9631 18.7137 18.6701 19.0064C18.377 19.2991 17.9021 19.2988 17.6094 19.0057L15.3856 16.7789C15.2231 16.7734 15.0612 16.7153 14.9274 16.6022C13.4171 15.3259 11.1829 15.3278 9.68454 16.6082C9.36965 16.8773 8.89623 16.8402 8.62713 16.5253C8.35803 16.2104 8.39516 15.737 8.71005 15.4679C9.86831 14.4781 11.3412 14.0452 12.7764 14.1663L9.82964 11.2156C8.70804 11.5243 7.63012 12.073 6.66541 12.8451C6.34202 13.104 5.87004 13.0516 5.61121 12.7282C5.35239 12.4048 5.40473 11.9328 5.72813 11.674C6.62206 10.9586 7.60574 10.4037 8.63932 10.0237L6.22062 7.60175C5.36551 8.02099 4.54468 8.55221 3.76968 9.17724C3.44726 9.43727 2.97508 9.38669 2.71505 9.06426C2.45502 8.74184 2.5056 8.26966 2.82803 8.00963C3.54721 7.42963 4.30934 6.91712 5.10784 6.48749L2.97055 4.34736C2.67785 4.05427 2.67817 3.5794 2.97126 3.2867ZM20.8257 9.17536C17.8603 6.76383 14.1099 5.79056 10.5063 6.26832C10.0957 6.32277 9.71872 6.03403 9.66428 5.62341C9.60984 5.21278 9.89858 4.83578 10.3092 4.78134C14.3082 4.25114 18.4756 5.33077 21.7721 8.01161C22.0934 8.27295 22.1421 8.74532 21.8807 9.06669C21.6194 9.38805 21.147 9.4367 20.8257 9.17536ZM14.8427 10.4271C14.979 10.036 15.4067 9.82948 15.7978 9.96585C16.8961 10.3488 17.9298 10.9231 18.8697 11.674C19.1933 11.9325 19.2461 12.4044 18.9875 12.7281C18.729 13.0517 18.2571 13.1044 17.9334 12.8459C17.122 12.1977 16.2371 11.7076 15.3039 11.3822C14.9128 11.2459 14.7063 10.8182 14.8427 10.4271ZM12.3004 18.9251C12.7147 18.9251 13.0504 19.2609 13.0504 19.6751V19.717C13.0504 20.1312 12.7147 20.467 12.3004 20.467C11.8862 20.467 11.5504 20.1312 11.5504 19.717V19.6751C11.5504 19.2609 11.8862 18.9251 12.3004 18.9251Z" fill="#000000" />
</svg>