<svg width="24px"  height="24px"  viewBox="0 0 25 24" fill="none" xmlns="http://www.w3.org/2000/svg">
<path fill-rule="evenodd" clip-rule="evenodd" d="M3.8263 6.96706C6.73565 4.60644 10.2865 3.42676 13.8253 3.42676C14.2395 3.42676 14.5753 3.76254 14.5753 4.17676C14.5753 4.59097 14.2395 4.92676 13.8253 4.92676C10.6186 4.92676 7.40433 5.99554 4.77141 8.13186C4.44975 8.39285 3.97743 8.34367 3.71645 8.02201C3.45547 7.70036 3.50465 7.22804 3.8263 6.96706ZM16.0388 5.15506C16.3317 4.86216 16.8066 4.86216 17.0995 5.15506L18.434 6.48957L19.7685 5.15506C20.0614 4.86216 20.5363 4.86216 20.8292 5.15506C21.1221 5.44795 21.1221 5.92282 20.8292 6.21572L19.4947 7.55023L20.8292 8.88475C21.1221 9.17764 21.1221 9.65252 20.8292 9.94541C20.5363 10.2383 20.0614 10.2383 19.7685 9.94541L18.434 8.61089L17.0995 9.94541C16.8066 10.2383 16.3317 10.2383 16.0388 9.94541C15.7459 9.65252 15.7459 9.17764 16.0388 8.88475L17.3733 7.55023L16.0388 6.21572C15.7459 5.92282 15.7459 5.44795 16.0388 5.15506ZM13.5475 9.14159C13.5875 9.55386 13.2857 9.92051 12.8734 9.96052C11.085 10.1341 9.32811 10.8211 7.83348 12.0117C7.50949 12.2697 7.03763 12.2163 6.77956 11.8923C6.52148 11.5683 6.57491 11.0965 6.8989 10.8384C8.62313 9.46492 10.6551 8.66873 12.7285 8.46753C13.1408 8.42753 13.5075 8.72931 13.5475 9.14159ZM16.6345 15.9834C15.0199 14.6211 12.6299 14.6229 11.0273 15.9906C10.7122 16.2595 10.2388 16.222 9.96993 15.9069C9.70104 15.5919 9.73848 15.1185 10.0536 14.8496C12.2181 13.0023 15.4296 13.0042 17.6018 14.837C17.9184 15.1041 17.9585 15.5773 17.6914 15.8939C17.4243 16.2105 16.9511 16.2506 16.6345 15.9834ZM13.8258 18.5588C14.24 18.5588 14.5758 18.8946 14.5758 19.3088V19.3512C14.5758 19.7654 14.24 20.1012 13.8258 20.1012C13.4116 20.1012 13.0758 19.7654 13.0758 19.3512V19.3088C13.0758 18.8946 13.4116 18.5588 13.8258 18.5588Z" fill="#000000" />
</svg>