<svg width="24px"  height="24px"  viewBox="0 0 25 24" fill="none" xmlns="http://www.w3.org/2000/svg">
<path fill-rule="evenodd" clip-rule="evenodd" d="M19.0277 5.08653C19.3195 5.38045 19.3179 5.85532 19.024 6.14718L17.3229 7.83633C17.2851 7.88418 17.242 7.92677 17.1948 7.96351L14.2508 10.8869C14.2103 10.9393 14.1632 10.986 14.1109 11.0258L6.95991 18.1266C6.66598 18.4184 6.19111 18.4168 5.89925 18.1228C5.60739 17.8289 5.60906 17.3541 5.90299 17.0622L11.9217 11.0857C9.77228 11.1766 7.8168 12.049 6.3503 13.4275C6.04849 13.7112 5.57384 13.6965 5.29015 13.3947C5.00646 13.0929 5.02115 12.6182 5.32296 12.3345C7.14255 10.6242 9.6043 9.57789 12.2943 9.57789C12.6594 9.57789 13.0218 9.59585 13.3819 9.63579L15.3106 7.72054C14.345 7.4793 13.3352 7.35508 12.2941 7.35508C9.02024 7.35508 6.03306 8.62001 3.80518 10.6955C3.5021 10.9779 3.02753 10.9611 2.74518 10.658C2.46284 10.3549 2.47964 9.88033 2.78272 9.59798C5.2777 7.27365 8.62661 5.85508 12.2941 5.85508C13.764 5.85508 15.1869 6.07728 16.5302 6.50958L17.967 5.0828C18.261 4.79094 18.7358 4.79261 19.0277 5.08653ZM18.4719 8.12624C18.6855 7.77136 19.1464 7.65686 19.5013 7.87048C20.3352 8.37251 21.1028 8.95861 21.8034 9.60693C22.1074 9.88827 22.1257 10.3628 21.8444 10.6668C21.5631 10.9708 21.0885 10.9892 20.7845 10.7078C20.1541 10.1244 19.468 9.60126 18.7277 9.1556C18.3728 8.94197 18.2583 8.48111 18.4719 8.12624ZM15.6556 10.9502C15.8251 10.5723 16.2689 10.4033 16.6469 10.5728C17.6243 11.0113 18.5113 11.6137 19.2764 12.3356C19.5777 12.6198 19.5915 13.0945 19.3072 13.3958C19.0229 13.6971 18.5483 13.7108 18.247 13.4266C17.5993 12.8155 16.8517 12.3087 16.033 11.9415C15.6551 11.772 15.4861 11.3282 15.6556 10.9502ZM12.6153 14.0861C12.6912 13.6789 13.0829 13.4104 13.4901 13.4863C14.7156 13.7149 15.823 14.298 16.6901 15.1078C16.9928 15.3905 17.009 15.8651 16.7262 16.1678C16.4435 16.4705 15.9689 16.4867 15.6662 16.204C14.9998 15.5815 14.1496 15.1352 13.2151 14.9609C12.8079 14.885 12.5393 14.4933 12.6153 14.0861ZM12.2885 18.5999C11.9735 18.5999 11.6814 18.7233 11.461 18.9309C11.1595 19.215 10.6849 19.2008 10.4008 18.8993C10.1168 18.5979 10.1309 18.1232 10.4324 17.8392C10.9184 17.3813 11.574 17.0999 12.2885 17.0999C13.0029 17.0999 13.6585 17.3813 14.1445 17.8392C14.446 18.1232 14.4601 18.5979 14.1761 18.8993C13.892 19.2008 13.4174 19.215 13.1159 18.9309C12.8955 18.7233 12.6034 18.5999 12.2885 18.5999Z" fill="#000000" />
</svg>