<svg width="24px"  height="24px"  viewBox="0 0 25 24" fill="none" xmlns="http://www.w3.org/2000/svg">
<path fill-rule="evenodd" clip-rule="evenodd" d="M13.7342 5.92041C9.90071 5.92041 6.40665 7.39944 3.80509 9.82227C3.50197 10.1046 3.0274 10.0877 2.7451 9.78457C2.4628 9.48144 2.47969 9.00687 2.78281 8.72458C5.65193 6.05257 9.5078 4.42041 13.7342 4.42041C14.1484 4.42041 14.4842 4.7562 14.4842 5.17041C14.4842 5.58462 14.1484 5.92041 13.7342 5.92041ZM16.8151 6.00526C17.108 5.71237 17.5829 5.71237 17.8758 6.00526L19.3197 7.44918L20.7636 6.00526C21.0565 5.71237 21.5314 5.71237 21.8243 6.00526C22.1172 6.29816 22.1172 6.77303 21.8243 7.06592L20.3804 8.50984L21.8243 9.95376C22.1172 10.2467 22.1172 10.7215 21.8243 11.0144C21.5314 11.3073 21.0565 11.3073 20.7636 11.0144L19.3197 9.5705L17.8758 11.0144C17.5829 11.3073 17.108 11.3073 16.8151 11.0144C16.5222 10.7215 16.5222 10.2467 16.8151 9.95376L18.259 8.50984L16.8151 7.06592C16.5222 6.77303 16.5222 6.29816 16.8151 6.00526ZM13.7345 10.2433C11.0379 10.2433 8.56881 11.2845 6.75245 12.9941C6.45082 13.2779 5.97616 13.2636 5.69227 12.9619C5.40838 12.6603 5.42277 12.1856 5.7244 11.9018C7.81268 9.93631 10.6472 8.74332 13.7345 8.74332C14.1487 8.74332 14.4845 9.07911 14.4845 9.49332C14.4845 9.90754 14.1487 10.2433 13.7345 10.2433ZM13.7325 14.6407C12.1982 14.6407 10.7881 15.2417 9.7517 16.2161C9.44993 16.4998 8.97528 16.4852 8.69154 16.1834C8.40781 15.8817 8.42243 15.407 8.7242 15.1233C10.0285 13.8969 11.8026 13.1407 13.7325 13.1407C15.6609 13.1407 17.4468 13.8959 18.7522 15.1233C19.054 15.407 19.0686 15.8817 18.7849 16.1834C18.5012 16.4852 18.0265 16.4998 17.7247 16.2161C16.6894 15.2426 15.2681 14.6407 13.7325 14.6407ZM13.7309 18.9594C13.3324 18.9594 12.9645 19.1149 12.6891 19.3749C12.3878 19.6592 11.9132 19.6455 11.6289 19.3443C11.3445 19.0431 11.3582 18.5684 11.6595 18.2841C12.2025 17.7715 12.935 17.4594 13.7309 17.4594C14.5268 17.4594 15.2593 17.7715 15.8024 18.2841C16.1036 18.5684 16.1173 19.0431 15.833 19.3443C15.5486 19.6455 15.074 19.6592 14.7727 19.3749C14.4973 19.1149 14.1294 18.9594 13.7309 18.9594Z" fill="#000000" />
</svg>