<svg width="24px"  height="24px"  viewBox="0 0 25 24" fill="none" xmlns="http://www.w3.org/2000/svg">
<path fill-rule="evenodd" clip-rule="evenodd" d="M3.9902 3.89737C4.97468 2.84117 6.37669 2.25 8.03216 2.25H16.4669C18.1262 2.25 19.5288 2.84084 20.5129 3.89765C21.4913 4.94841 22 6.39889 22 8.02638V15.9736C22 17.6011 21.4913 19.0516 20.5127 20.1024C19.5285 21.1592 18.1256 21.75 16.4659 21.75H8.03216C6.37237 21.75 4.9699 21.1592 3.98617 20.1022C3.00811 19.0514 2.5 17.6009 2.5 15.9736V8.02638C2.5 6.39806 3.01117 4.94771 3.9902 3.89737ZM5.08745 4.92012C4.41024 5.64666 4 6.70951 4 8.02638V15.9736C4 17.2915 4.40843 18.3542 5.08418 19.0803C5.75426 19.8002 6.74287 20.25 8.03216 20.25H16.4659C17.7552 20.25 18.7444 19.8002 19.415 19.0801C20.0912 18.354 20.5 17.2913 20.5 15.9736V8.02638C20.5 6.70868 20.0912 5.64597 19.4151 4.91984C18.7446 4.19975 17.7556 3.75 16.4669 3.75H8.03216C6.74828 3.75 5.75921 4.19943 5.08745 4.92012ZM16.5513 10.4159C14.0436 8.40727 10.4567 8.40727 7.94902 10.4159C7.62573 10.6748 7.15373 10.6227 6.89478 10.2994C6.63583 9.97608 6.68799 9.50408 7.01128 9.24513C10.0671 6.79751 14.4332 6.79751 17.489 9.24513C17.8123 9.50408 17.8645 9.97608 17.6055 10.2994C17.3466 10.6227 16.8746 10.6748 16.5513 10.4159ZM14.1985 13.3463C13.0792 12.4015 11.4224 12.4032 10.3119 13.3506C9.99683 13.6194 9.52344 13.5819 9.2546 13.2668C8.98576 12.9517 9.02328 12.4783 9.33839 12.2095C11.0107 10.7828 13.489 10.7845 15.166 12.2001C15.4826 12.4673 15.5225 12.9405 15.2554 13.257C14.9882 13.5735 14.515 13.6135 14.1985 13.3463ZM12.25 14.9024C12.6642 14.9024 13 15.2382 13 15.6524V15.6943C13 16.1085 12.6642 16.4443 12.25 16.4443C11.8358 16.4443 11.5 16.1085 11.5 15.6943V15.6524C11.5 15.2382 11.8358 14.9024 12.25 14.9024Z" fill="#000000" />
</svg>