<svg width="24px"  height="24px"  viewBox="0 0 25 24" fill="none" xmlns="http://www.w3.org/2000/svg">
<path d="M21.8353 8.70847C21.5482 9.00852 21.0731 9.01853 20.7743 8.72849C16.2953 4.41843 9.34411 4.02854 4.40709 7.79856C4.14391 7.99851 4.05602 8.21848 4.04528 8.42844C4.03893 8.54514 4.057 8.66697 4.09801 8.78733C4.13805 8.90427 4.20006 9.02 4.28307 9.12839C4.45104 9.35837 4.67321 9.49851 4.88512 9.53855C5.07604 9.57859 5.31823 9.54856 5.59899 9.32859L5.60924 9.31858C9.10924 6.65842 13.8822 6.41843 17.6293 8.71848C18.2762 9.11838 18.6449 9.70847 18.7533 10.3386C18.8592 10.9585 18.7132 11.5786 18.4213 12.0786C18.1293 12.5786 17.661 13.0185 17.0643 13.2185C16.4462 13.4184 15.7528 13.3584 15.0951 12.9585H15.0839C12.8002 11.5185 9.82702 11.8886 7.95397 13.8286C7.66588 14.1186 7.19127 14.1286 6.89293 13.8386C6.59606 13.5586 6.58727 13.0786 6.87487 12.7785C9.24108 10.3286 12.996 9.87839 15.8812 11.6784L15.8783 11.6833C16.1737 11.8584 16.4066 11.8579 16.5863 11.7886C16.786 11.7285 16.9862 11.5586 17.1239 11.3186C17.2631 11.0886 17.3129 10.8186 17.2753 10.5886C17.2391 10.3886 17.1249 10.1684 16.8441 9.99851C13.6249 8.02854 9.52428 8.22849 6.51696 10.5185C6.14733 10.8064 5.74938 10.9724 5.35094 11.03C5.09459 11.0671 4.83825 11.0591 4.58825 11.0085C3.9652 10.8784 3.44323 10.5085 3.08922 10.0385C2.73522 9.57859 2.51403 8.97849 2.54723 8.34861C2.5819 7.69846 2.88805 7.07859 3.49596 6.60862C9.02086 2.38865 16.8011 2.82835 21.8143 7.64841C22.1122 7.92844 22.1219 8.40842 21.8353 8.70847Z" fill="#000000" />
<path fill-rule="evenodd" clip-rule="evenodd" d="M13.9603 15.5486C15.055 16.5986 15.0892 18.3484 14.0331 19.4385C12.9779 20.5383 11.2362 20.5686 10.139 19.5085C9.04284 18.4585 9.01207 16.7185 10.0663 15.6186C10.3202 15.3586 10.6249 15.1384 10.9632 14.9985C11.9813 14.5586 13.162 14.7785 13.9603 15.5486ZM12.953 18.3984C13.433 17.8984 13.4178 17.1084 12.9203 16.6284C12.7274 16.4431 12.4857 16.3279 12.2323 16.29C12.0072 16.2566 11.7728 16.2844 11.5541 16.3784C11.4022 16.4385 11.2631 16.5383 11.1468 16.6584C10.6659 17.1584 10.681 17.9485 11.1791 18.4284C11.6781 18.9084 12.472 18.8984 12.953 18.3984Z" fill="#000000" />
</svg>