<svg width="24px"  height="24px"  viewBox="0 0 25 24" fill="none" xmlns="http://www.w3.org/2000/svg">
<path fill-rule="evenodd" clip-rule="evenodd" d="M12.4241 13.3708C12.3728 13.3796 12.3198 13.3831 12.2656 13.3804C10.6526 13.3203 9.09082 13.9507 7.97168 15.1206C7.68481 15.4207 7.20947 15.4304 6.91162 15.1404C6.61279 14.8503 6.60352 14.3806 6.89062 14.0806C7.99902 12.9292 9.45093 12.1885 11.0085 11.9553L9.38892 10.3357C9.35327 10.3535 9.31592 10.3684 9.27661 10.3804C8.2876 10.7004 7.36182 11.1804 6.53857 11.8105C5.93262 12.2844 5.25146 12.4297 4.61182 12.3105C3.99072 12.1804 3.46582 11.8105 3.10693 11.3506C2.74854 10.8906 2.52393 10.2903 2.55859 9.6604C2.59473 9.01025 2.90576 8.38037 3.51562 7.9104C4.17822 7.39966 4.88379 6.95483 5.62451 6.57153L2.76367 3.71045C2.4707 3.42041 2.4707 2.95044 2.76367 2.65039C3.05664 2.36035 3.53076 2.36035 3.82373 2.65039L20.8738 19.7004C21.1667 20.0005 21.1667 20.4705 20.8738 20.7605C20.5808 21.0605 20.1067 21.0605 19.8137 20.7605L12.4241 13.3708ZM6.74658 7.69312C5.92578 8.07446 5.14941 8.55103 4.42969 9.10059C4.15576 9.31055 4.06787 9.54053 4.05664 9.74048C4.04395 9.96045 4.12451 10.2104 4.29395 10.4304C4.41699 10.5908 4.56885 10.709 4.72607 10.7766C4.78418 10.8018 4.84326 10.8198 4.90186 10.8306C5.00488 10.8516 5.12158 10.8533 5.24951 10.8179C5.36377 10.7861 5.4873 10.7246 5.61865 10.6206H5.62695C6.41797 10.0112 7.29004 9.52393 8.21753 9.16431L6.74658 7.69312Z" fill="#000000" />
<path d="M12.4216 9.18042C12.4668 8.7605 12.8376 8.47046 13.2488 8.5105C14.8037 8.68042 16.3027 9.20044 17.6348 10.0205H17.6306C18.7976 10.7205 19.1738 12.2405 18.4658 13.4104C18.2507 13.7703 17.7898 13.8804 17.4358 13.6604C17.0808 13.4504 16.9678 12.9902 17.1826 12.6304C17.4607 12.1804 17.3137 11.5806 16.8528 11.3005H16.8486C15.7058 10.5906 14.4197 10.1504 13.0847 10.0005C12.6729 9.96045 12.3757 9.59033 12.4216 9.18042Z" fill="#000000" />
<path d="M21.3123 10.2314C21.1189 10.2366 20.9236 10.1667 20.7727 10.0205C18.0637 7.4104 14.3247 6.15063 10.5876 6.60059C10.1768 6.65063 9.80273 6.36035 9.75366 5.94043C9.70483 5.53052 9.9978 5.16064 10.4097 5.1106C14.5938 4.6106 18.7808 6.02051 21.8137 8.94043C22.1128 9.23047 22.1206 9.70044 21.8337 10.0005C21.6909 10.1492 21.5024 10.2266 21.3123 10.2314Z" fill="#000000" />
<path fill-rule="evenodd" clip-rule="evenodd" d="M13.9697 16.8306C15.0637 17.8906 15.0977 19.6304 14.0417 20.7205C12.9888 21.8203 11.2468 21.8506 10.1528 20.8005C9.05762 19.7405 9.02466 18.0005 10.0798 16.9104C10.3337 16.6404 10.6387 16.4304 10.9758 16.2905C11.9917 15.8506 13.1726 16.0706 13.9697 16.8306ZM12.9626 19.6804C13.4417 19.1904 13.4277 18.3904 12.9297 17.9104C12.5667 17.5603 12.0288 17.4705 11.5686 17.6604C11.4126 17.7305 11.2737 17.8303 11.1597 17.9504C10.6797 18.4404 10.6948 19.2405 11.1926 19.7205C11.6907 20.2004 12.4827 20.1804 12.9626 19.6804Z" fill="#000000" />
</svg>