<svg width="24px"  height="24px"  viewBox="0 0 25 24" fill="none" xmlns="http://www.w3.org/2000/svg">
<path fill-rule="evenodd" clip-rule="evenodd" d="M5.00845 12.9212C5.0065 12.9195 5.00503 12.918 5.00308 12.9163C4.94937 12.8685 4.90396 12.8143 4.86782 12.7559L3.01382 10.5513C2.27163 9.6712 2.34585 8.37115 3.1564 7.57135C8.402 2.38116 16.0993 2.38116 21.3444 7.57135C22.1544 8.37115 22.2282 9.6712 21.4865 10.5513L19.5954 12.7999C19.5661 12.8394 19.5324 12.8768 19.4943 12.9112L16.7882 16.1375C16.7633 16.1705 16.736 16.2017 16.7052 16.2313L13.9254 19.5413C13.0509 20.5814 11.4494 20.5814 10.5749 19.5413L7.79898 16.2413C7.75259 16.1983 7.71255 16.1502 7.67984 16.0992L5.00845 12.9212ZM9.34292 15.7518L11.7228 18.5814C11.9069 18.7952 12.193 18.866 12.445 18.794C12.57 18.7581 12.6862 18.6873 12.7775 18.5814L15.1618 15.7464C13.4044 14.2838 11.0929 14.2835 9.34292 15.7518ZM16.1266 14.5992L17.9894 12.3843C14.6525 9.10822 9.84536 9.10724 6.51529 12.3895L8.37564 14.6016C10.6842 12.6644 13.8126 12.6714 16.1266 14.5992ZM18.9577 11.233L20.339 9.59137C20.57 9.31134 20.5524 8.90118 20.2897 8.64117C15.6286 4.02106 8.87271 4.02106 4.21109 8.64117C3.94839 8.90118 3.93081 9.31134 4.16177 9.59137L5.54556 11.2369C9.42935 7.48785 15.0685 7.48907 18.9577 11.233Z" fill="#000000" />
</svg>