<svg width="24px"  height="24px"  viewBox="0 0 25 24" fill="none" xmlns="http://www.w3.org/2000/svg">
<path fill-rule="evenodd" clip-rule="evenodd" d="M20.8258 8.38276C15.8659 4.3519 8.73185 4.3519 3.77186 8.38276C3.45041 8.644 2.97805 8.59518 2.71682 8.27373C2.45558 7.95228 2.5044 7.47992 2.82585 7.21869C8.33699 2.73993 16.2607 2.73993 21.7719 7.21869C22.0933 7.47992 22.1421 7.95228 21.8809 8.27373C21.6197 8.59518 21.1473 8.644 20.8258 8.38276ZM17.9326 12.0523C14.6476 9.41756 9.95107 9.41756 6.66613 12.0523C6.34301 12.3115 5.87098 12.2597 5.61181 11.9365C5.35264 11.6134 5.40449 11.1414 5.72761 10.8822C9.56093 7.8076 15.0378 7.8076 18.8711 10.8822C19.1942 11.1414 19.2461 11.6134 18.9869 11.9365C18.7277 12.2597 18.2557 12.3115 17.9326 12.0523ZM14.9268 15.8099C13.4165 14.5336 11.1822 14.5355 9.6838 15.816C9.3689 16.0851 8.89548 16.048 8.62638 15.7331C8.35728 15.4182 8.39441 14.9448 8.7093 14.6757C10.77 12.9146 13.8268 12.9165 15.895 14.6642C16.2114 14.9316 16.2511 15.4048 15.9838 15.7212C15.7164 16.0375 15.2432 16.0773 14.9268 15.8099ZM12.2985 18.1331C12.7127 18.1331 13.0485 18.4689 13.0485 18.8831V18.9249C13.0485 19.3392 12.7127 19.6749 12.2985 19.6749C11.8843 19.6749 11.5485 19.3392 11.5485 18.9249V18.8831C11.5485 18.4689 11.8843 18.1331 12.2985 18.1331Z" fill="#000000" />
</svg>