<svg width="24" height="24" viewBox="0 0 24 24" fill="none" xmlns="http://www.w3.org/2000/svg">
<path d="M10.7657 6.90889C10.7657 7.903 11.5716 8.70889 12.5657 8.70889L12.7458 8.70889L8.70889 12.7458L8.70889 12.5657C8.70889 11.5716 7.903 10.7657 6.90889 10.7657C5.91477 10.7657 5.10889 11.5716 5.10889 12.5657L5.10889 17.0912C5.10889 18.0853 5.91477 18.8912 6.90889 18.8912H11.4344C12.4285 18.8912 13.2344 18.0853 13.2344 17.0912C13.2344 16.0971 12.4285 15.2912 11.4344 15.2912H11.2546L15.2912 11.2546V11.4344C15.2912 12.4285 16.0971 13.2344 17.0912 13.2344C18.0853 13.2344 18.8912 12.4285 18.8912 11.4344L18.8912 6.90889C18.8912 6.63177 18.8286 6.36928 18.7167 6.13479C18.6596 6.01493 18.5885 5.90007 18.5034 5.79268C18.4068 5.67063 18.2948 5.5614 18.1702 5.46795C18.1028 5.41743 18.0328 5.37223 17.9606 5.33237C17.7029 5.18995 17.4065 5.10889 17.0912 5.10889L12.5657 5.10889C11.5716 5.10889 10.7657 5.91477 10.7657 6.90889Z" stroke="black" stroke-width="1.5" stroke-linecap="round" stroke-linejoin="round"/>
</svg>