<svg width="24" height="24" viewBox="0 0 24 24" fill="none" xmlns="http://www.w3.org/2000/svg">
<path d="M5.97461 3C4.87004 3 3.97461 3.89543 3.97461 5C3.97461 6.10457 4.87004 7 5.97461 7H8.95559C10.9583 7 12.5818 8.62347 12.5818 10.6262V14.1713L12.5529 14.1424C11.7718 13.3614 10.5055 13.3614 9.72446 14.1424C8.94341 14.9235 8.94341 16.1898 9.72446 16.9709L13.1675 20.4139C13.9486 21.195 15.2149 21.195 15.9959 20.4139L19.439 16.9709C20.2201 16.1898 20.2201 14.9235 19.439 14.1424C18.658 13.3614 17.3916 13.3614 16.6106 14.1424L16.5818 14.1712V10.6262C16.5818 6.41433 13.1674 3 8.95559 3H5.97461Z" stroke="black" stroke-width="1.5" stroke-linecap="round" stroke-linejoin="round"/>
</svg>