<svg width="24" height="24" viewBox="0 0 24 24" fill="none" xmlns="http://www.w3.org/2000/svg">
<path d="M5.97461 20.9997C4.87004 20.9997 3.97461 20.1043 3.97461 18.9997C3.97461 17.8951 4.87004 16.9997 5.97461 16.9997H8.95559C10.9583 16.9997 12.5818 15.3762 12.5818 13.3735V9.8284L12.5529 9.85727C11.7718 10.6383 10.5055 10.6383 9.72446 9.85727C8.94341 9.07622 8.94341 7.80989 9.72446 7.02885L13.1675 3.58579C13.9486 2.80474 15.2149 2.80474 15.9959 3.58579L19.439 7.02884C20.2201 7.80989 20.2201 9.07622 19.439 9.85727C18.658 10.6383 17.3916 10.6383 16.6106 9.85727L16.5818 9.82845V13.3735C16.5818 17.5854 13.1674 20.9997 8.95559 20.9997H5.97461Z" stroke="black" stroke-width="1.5" stroke-linecap="round" stroke-linejoin="round"/>
</svg>