<svg width="24" height="24" viewBox="0 0 24 24" fill="none" xmlns="http://www.w3.org/2000/svg">
<path d="M16.2177 3H7.78328C4.83557 3 3 5.08138 3 8.02609V15.9729C3 18.9176 4.83557 20.999 7.78428 20.999H16.2177C19.1654 20.999 21 18.9176 21 15.9729V8.02609C21 5.08138 19.1564 3 16.2177 3Z" stroke="black" stroke-width="1.5" stroke-linecap="round" stroke-linejoin="round"/>
<path fill-rule="evenodd" clip-rule="evenodd" d="M10.8812 11.8379C10.8812 14.2151 10.0588 16.0554 7.81123 17.0733C7.81123 17.0733 13.98 17.9531 13.98 11.8379C13.98 11.8379 14.8891 11.8374 15.6715 11.8368C16.1104 11.8362 16.3481 11.3219 16.0642 10.9868L12.7401 7.06281C12.5385 6.8251 12.1751 6.81665 11.9656 7.04873C11.186 7.91058 9.43411 9.8489 8.41397 10.9778C8.11429 11.3095 8.35144 11.8379 8.7987 11.8379H10.8812Z" stroke="black" stroke-width="1.5" stroke-linecap="round" stroke-linejoin="round"/>
</svg>