<svg width="24" height="24" viewBox="0 0 24 24" fill="none" xmlns="http://www.w3.org/2000/svg">
<path fill-rule="evenodd" clip-rule="evenodd" d="M14.3341 11.4593C13.3616 11.4593 12.5732 10.6709 12.5732 9.69841V4.71791C12.5732 3.7454 13.3616 2.95703 14.3341 2.95703C15.3066 2.95703 16.095 3.7454 16.095 4.71791V7.93753H19.3146C20.2871 7.93753 21.0755 8.7259 21.0755 9.69841C21.0755 10.6709 20.2871 11.4593 19.3146 11.4593L14.3341 11.4593Z" stroke="black" stroke-width="1.5" stroke-linecap="round" stroke-linejoin="round"/>
<path fill-rule="evenodd" clip-rule="evenodd" d="M9.66569 21.043C8.69319 21.043 7.90482 20.2547 7.90482 19.2821V16.0625H4.68519C3.71269 16.0625 2.92432 15.2741 2.92432 14.3016C2.92432 13.3291 3.71269 12.5408 4.68519 12.5408H9.66569C10.6382 12.5408 11.4266 13.3291 11.4266 14.3016V19.2821C11.4266 20.2547 10.6382 21.043 9.66569 21.043Z" stroke="black" stroke-width="1.5" stroke-linecap="round" stroke-linejoin="round"/>
</svg>