<svg width="24px"  height="24px"  viewBox="0 0 25 24" fill="none" xmlns="http://www.w3.org/2000/svg">
<path d="M17.0116 21.748C14.6816 21.748 11.6496 19.898 8.00165 16.248C4.33765 12.585 2.48565 9.54805 2.50165 7.21004C2.49194 6.71364 2.58753 6.22082 2.78214 5.76405C2.97674 5.30728 3.26593 4.89693 3.63065 4.56004C3.64765 4.53804 3.69963 4.48905 3.71863 4.47005C5.06363 3.12505 5.94063 2.60005 6.88263 2.59305C7.94263 2.60605 8.68862 3.39305 9.63162 4.38505C9.86262 4.62705 10.1136 4.89204 10.3916 5.17004C10.8752 5.60759 11.194 6.19778 11.2948 6.84206C11.3956 7.48633 11.2724 8.14569 10.9456 8.71004C10.5456 9.73704 10.1976 10.6251 11.9116 12.3391C13.6256 14.0531 14.5116 13.704 15.5396 13.303C16.1035 12.9752 16.7628 12.851 17.4073 12.9514C18.0517 13.0517 18.6421 13.3704 19.0796 13.854C19.3546 14.129 19.6156 14.377 19.8556 14.605C20.8556 15.555 21.6416 16.305 21.6556 17.3671C21.6676 18.267 21.1246 19.185 19.7826 20.527L19.6856 20.622C19.3487 20.9873 18.938 21.2768 18.4809 21.4716C18.0237 21.6664 17.5305 21.762 17.0336 21.752L17.0116 21.748ZM4.78262 5.52805C4.78262 5.52805 4.73765 5.57605 4.68265 5.63505C4.45968 5.83306 4.28326 6.07793 4.16605 6.35213C4.04883 6.62632 3.99371 6.92305 4.00464 7.22105C3.99664 8.54005 4.86862 10.993 9.06662 15.189C13.2436 19.366 15.6936 20.248 17.0166 20.248H17.0326C17.331 20.2588 17.628 20.2035 17.9026 20.0861C18.1771 19.9688 18.4223 19.7922 18.6206 19.569C18.6732 19.5141 18.7286 19.4621 18.7866 19.413C19.6946 18.498 20.1636 17.813 20.1576 17.388C20.1516 16.963 19.5956 16.428 18.8246 15.694C18.5766 15.458 18.3066 15.201 18.0246 14.917C17.3246 14.217 16.9376 14.3691 16.0926 14.7001C14.8996 15.1701 13.2656 15.811 10.8566 13.4C8.44763 10.992 9.08764 9.35705 9.55664 8.16305C9.88764 7.31705 10.0396 6.93105 9.33963 6.23005C9.05163 5.94205 8.79164 5.66905 8.55264 5.41705C7.82464 4.65205 7.29864 4.09805 6.87064 4.09305H6.84964C6.41964 4.09305 5.74064 4.56304 4.77264 5.53004L4.78262 5.52805ZM21.2496 10.886H19.2096C19.0107 10.886 18.8199 10.807 18.6793 10.6664C18.5386 10.5257 18.4596 10.335 18.4596 10.136C18.4596 9.93714 18.5386 9.74637 18.6793 9.60572C18.8199 9.46507 19.0107 9.38605 19.2096 9.38605H21.2496C21.4485 9.38605 21.6393 9.46507 21.78 9.60572C21.9206 9.74637 21.9996 9.93714 21.9996 10.136C21.9996 10.335 21.9206 10.5257 21.78 10.6664C21.6393 10.807 21.4485 10.886 21.2496 10.886ZM17.7606 7.23705C17.6123 7.23711 17.4673 7.1932 17.3439 7.11086C17.2206 7.02851 17.1244 6.91143 17.0675 6.77443C17.0107 6.63743 16.9958 6.48665 17.0246 6.34116C17.0535 6.19566 17.1248 6.06199 17.2296 5.95705L18.6726 4.51505C18.8148 4.38257 19.0028 4.31045 19.1971 4.31387C19.3914 4.3173 19.5769 4.39601 19.7143 4.53342C19.8517 4.67084 19.9304 4.85622 19.9338 5.05052C19.9372 5.24482 19.8651 5.43288 19.7326 5.57505L18.2906 7.01804C18.2211 7.08766 18.1384 7.14285 18.0475 7.18044C17.9565 7.21802 17.859 7.23725 17.7606 7.23705ZM14.1116 5.78805C13.9127 5.78805 13.722 5.70903 13.5813 5.56837C13.4406 5.42772 13.3616 5.23696 13.3616 5.03805V2.99805C13.3616 2.79913 13.4406 2.60837 13.5813 2.46772C13.722 2.32707 13.9127 2.24805 14.1116 2.24805C14.3105 2.24805 14.5013 2.32707 14.642 2.46772C14.7826 2.60837 14.8616 2.79913 14.8616 2.99805V5.03805C14.8616 5.23696 14.7826 5.42772 14.642 5.56837C14.5013 5.70903 14.3105 5.78805 14.1116 5.78805Z" fill="#000000" />
</svg>