<svg width="24px"  height="24px"  viewBox="0 0 25 24" fill="none" xmlns="http://www.w3.org/2000/svg">
<path fill-rule="evenodd" clip-rule="evenodd" d="M3.74805 5.47018C3.74805 4.24338 4.74307 3.25 5.96822 3.25C7.19404 3.25 8.18939 4.24305 8.18939 5.47018C8.18939 6.69731 7.19404 7.69036 5.96822 7.69036C4.74307 7.69036 3.74805 6.69698 3.74805 5.47018ZM5.96822 4.75C5.57084 4.75 5.24805 5.07246 5.24805 5.47018C5.24805 5.86789 5.57084 6.19036 5.96822 6.19036C6.36693 6.19036 6.68939 5.86757 6.68939 5.47018C6.68939 5.07279 6.36693 4.75 5.96822 4.75ZM10.0291 5.47018C10.0291 4.24371 11.0228 3.25 12.2493 3.25C13.4751 3.25 14.4704 4.24305 14.4704 5.47018C14.4704 6.69731 13.4751 7.69036 12.2493 7.69036C11.0228 7.69036 10.0291 6.69665 10.0291 5.47018ZM12.2493 4.75C11.8512 4.75 11.5291 5.07213 11.5291 5.47018C11.5291 5.86822 11.8512 6.19036 12.2493 6.19036C12.648 6.19036 12.9704 5.86757 12.9704 5.47018C12.9704 5.07279 12.648 4.75 12.2493 4.75ZM16.3096 5.47018C16.3096 4.24371 17.3033 3.25 18.5298 3.25C19.7556 3.25 20.751 4.24305 20.751 5.47018C20.751 6.69731 19.7556 7.69036 18.5298 7.69036C17.3033 7.69036 16.3096 6.69665 16.3096 5.47018ZM18.5298 4.75C18.1318 4.75 17.8096 5.07213 17.8096 5.47018C17.8096 5.86822 18.1318 6.19036 18.5298 6.19036C18.9285 6.19036 19.251 5.86757 19.251 5.47018C19.251 5.07279 18.9285 4.75 18.5298 4.75ZM3.74805 11.9995C3.74805 10.7727 4.74307 9.77934 5.96822 9.77934C7.19404 9.77934 8.18939 10.7724 8.18939 11.9995C8.18939 13.2266 7.19404 14.2197 5.96822 14.2197C4.74307 14.2197 3.74805 13.2263 3.74805 11.9995ZM5.96822 11.2793C5.57084 11.2793 5.24805 11.6018 5.24805 11.9995C5.24805 12.3972 5.57084 12.7197 5.96822 12.7197C6.36693 12.7197 6.68939 12.3969 6.68939 11.9995C6.68939 11.6021 6.36693 11.2793 5.96822 11.2793ZM10.0291 11.9995C10.0291 10.773 11.0228 9.77934 12.2493 9.77934C13.4751 9.77934 14.4704 10.7724 14.4704 11.9995C14.4704 13.2266 13.4751 14.2197 12.2493 14.2197C11.0228 14.2197 10.0291 13.226 10.0291 11.9995ZM12.2493 11.2793C11.8512 11.2793 11.5291 11.6015 11.5291 11.9995C11.5291 12.3976 11.8512 12.7197 12.2493 12.7197C12.648 12.7197 12.9704 12.3969 12.9704 11.9995C12.9704 11.6021 12.648 11.2793 12.2493 11.2793ZM16.3096 11.9995C16.3096 10.773 17.3033 9.77934 18.5298 9.77934C19.7556 9.77934 20.751 10.7724 20.751 11.9995C20.751 13.2266 19.7556 14.2197 18.5298 14.2197C17.3033 14.2197 16.3096 13.226 16.3096 11.9995ZM18.5298 11.2793C18.1318 11.2793 17.8096 11.6015 17.8096 11.9995C17.8096 12.3976 18.1318 12.7197 18.5298 12.7197C18.9285 12.7197 19.251 12.3969 19.251 11.9995C19.251 11.6021 18.9285 11.2793 18.5298 11.2793ZM3.74805 18.5298C3.74805 17.303 4.74307 16.3096 5.96822 16.3096C7.19404 16.3096 8.18939 17.3027 8.18939 18.5298C8.18939 19.757 7.19404 20.75 5.96822 20.75C4.74307 20.75 3.74805 19.7566 3.74805 18.5298ZM5.96822 17.8096C5.57084 17.8096 5.24805 18.1321 5.24805 18.5298C5.24805 18.9275 5.57084 19.25 5.96822 19.25C6.36693 19.25 6.68939 18.9272 6.68939 18.5298C6.68939 18.1324 6.36693 17.8096 5.96822 17.8096ZM10.0291 18.5298C10.0291 17.3034 11.0228 16.3096 12.2493 16.3096C13.4751 16.3096 14.4704 17.3027 14.4704 18.5298C14.4704 19.757 13.4751 20.75 12.2493 20.75C11.0228 20.75 10.0291 19.7563 10.0291 18.5298ZM12.2493 17.8096C11.8512 17.8096 11.5291 18.1318 11.5291 18.5298C11.5291 18.9279 11.8512 19.25 12.2493 19.25C12.648 19.25 12.9704 18.9272 12.9704 18.5298C12.9704 18.1324 12.648 17.8096 12.2493 17.8096ZM16.3096 18.5298C16.3096 17.3034 17.3033 16.3096 18.5298 16.3096C19.7556 16.3096 20.751 17.3027 20.751 18.5298C20.751 19.757 19.7556 20.75 18.5298 20.75C17.3033 20.75 16.3096 19.7563 16.3096 18.5298ZM18.5298 17.8096C18.1318 17.8096 17.8096 18.1318 17.8096 18.5298C17.8096 18.9279 18.1318 19.25 18.5298 19.25C18.9285 19.25 19.251 18.9272 19.251 18.5298C19.251 18.1324 18.9285 17.8096 18.5298 17.8096Z" fill="#000000" />
</svg>