<svg width="24px"  height="24px"  viewBox="0 0 25 24" fill="none" xmlns="http://www.w3.org/2000/svg">
<path fill-rule="evenodd" clip-rule="evenodd" d="M12.17 4.56055C12.5842 4.56055 12.92 4.89633 12.92 5.31055V7.25815C12.92 7.67236 12.5842 8.00815 12.17 8.00815C11.7558 8.00815 11.42 7.67236 11.42 7.25815V5.31055C11.42 4.89633 11.7558 4.56055 12.17 4.56055ZM6.33091 6.76618C6.60702 6.45741 7.08115 6.43093 7.38992 6.70704L8.92982 8.08404C9.23859 8.36014 9.26507 8.83428 8.98897 9.14305C8.71286 9.45182 8.23873 9.4783 7.92996 9.20219L6.39006 7.82519C6.08129 7.54908 6.05481 7.07495 6.33091 6.76618ZM18.0092 6.76618C18.2853 7.07495 18.2588 7.54908 17.95 7.82519L16.4101 9.20219C16.1014 9.4783 15.6272 9.45182 15.3511 9.14305C15.075 8.83428 15.1015 8.36014 15.4103 8.08404L16.9502 6.70704C17.2589 6.43093 17.7331 6.45741 18.0092 6.76618ZM4.00002 15.7412C4.00136 16.5694 4.06772 17.0836 4.17151 17.4046C4.26533 17.6947 4.36976 17.7727 4.45701 17.8166C4.59598 17.8865 4.8343 17.9334 5.30329 17.9393C5.52804 17.9421 5.77858 17.9361 6.07192 17.9287L6.09069 17.9282C6.37491 17.9211 6.69263 17.9131 7.03696 17.913C7.56762 17.9128 7.74547 17.7671 7.85202 17.6433C7.92648 17.5568 7.99792 17.4389 8.08116 17.2652C8.12246 17.179 8.16293 17.0873 8.20863 16.9827C8.21316 16.9723 8.21774 16.9618 8.22238 16.9512C8.26307 16.858 8.30811 16.7548 8.35604 16.6513C8.57336 16.1823 8.8926 15.6092 9.53905 15.1772C10.1794 14.7493 11.0468 14.5209 12.2482 14.5209C13.4494 14.5209 14.3167 14.7492 14.9572 15.1767C15.6038 15.6082 15.9235 16.1808 16.1414 16.6496C16.1894 16.7529 16.2345 16.8561 16.2753 16.9492C16.28 16.9598 16.2846 16.9703 16.2891 16.9807C16.3349 17.0852 16.3755 17.1769 16.4169 17.263C16.5003 17.4365 16.5719 17.5544 16.6464 17.6409C16.7532 17.7647 16.9314 17.9103 17.4619 17.9103C17.8115 17.9103 18.1336 17.9186 18.4212 17.926L18.4279 17.9261C18.7216 17.9337 18.9723 17.94 19.1974 17.9375C19.6671 17.9322 19.9053 17.8859 20.044 17.8164C20.1305 17.7731 20.2346 17.696 20.3284 17.4057C20.4323 17.0843 20.4987 16.5689 20.5 15.738C20.497 15.6824 20.4978 15.6299 20.4982 15.6044C20.4982 15.6013 20.4982 15.5986 20.4983 15.5963L20.4983 15.5935C20.4989 15.5462 20.4994 15.5031 20.4981 15.454C20.4956 15.3568 20.4861 15.2434 20.4562 15.1175C20.3994 14.8775 20.2585 14.5462 19.864 14.1972C19.0412 13.4692 17.0386 12.6014 12.2483 12.6018C7.45787 12.6027 5.45664 13.4712 4.63487 14.1992C4.24092 14.5483 4.10041 14.8795 4.0437 15.1196C4.01397 15.2455 4.00449 15.3591 4.00201 15.4565C4.00077 15.5052 4.00126 15.548 4.00179 15.595L4.00184 15.5993C4.00187 15.6015 4.00191 15.6042 4.00195 15.6073C4.00232 15.6327 4.00308 15.6853 4.00002 15.7412ZM3.64016 13.0765C4.88816 11.9708 7.36436 11.1027 12.2481 11.1018C17.1318 11.1014 19.609 11.9687 20.858 13.0738C21.4994 13.6413 21.7925 14.2511 21.9158 14.7717C21.9761 15.0262 21.9933 15.248 21.9976 15.4154C21.9996 15.4933 21.9988 15.5609 21.9983 15.6063L21.9982 15.6138C21.9979 15.6384 21.9979 15.6515 21.9979 15.6569C21.9993 15.6755 22 15.6941 22 15.7128C22 16.6009 21.9345 17.3138 21.7558 17.8669C21.566 18.4543 21.2351 18.8974 20.7158 19.1575C20.2489 19.3914 19.7107 19.4318 19.2142 19.4374C18.9578 19.4402 18.6798 19.4331 18.3949 19.4258L18.3894 19.4256C18.0983 19.4182 17.7922 19.4103 17.4619 19.4103C16.5772 19.4103 15.9518 19.1322 15.5105 18.6205C15.3111 18.3893 15.1724 18.1364 15.0649 17.9128C15.0109 17.8003 14.9608 17.6867 14.9152 17.5827C14.9107 17.5723 14.9061 17.562 14.9017 17.5517C14.8599 17.4565 14.8216 17.3689 14.781 17.2817C14.6051 16.9031 14.4301 16.6283 14.1245 16.4243C13.8128 16.2163 13.2704 16.0209 12.2482 16.0209C11.2257 16.0209 10.6837 16.2164 10.3724 16.4244C10.0672 16.6283 9.89259 16.903 9.71706 17.2819C9.6766 17.3692 9.63837 17.4568 9.59676 17.5521C9.59228 17.5624 9.58776 17.5727 9.5832 17.5832C9.53774 17.6872 9.48779 17.8009 9.43384 17.9135C9.32658 18.1373 9.18818 18.3903 8.98887 18.6219C8.54788 19.1342 7.92248 19.4127 7.03744 19.413C6.71186 19.4131 6.41001 19.4207 6.12258 19.4279L6.10957 19.4282C5.8226 19.4354 5.54268 19.4424 5.28443 19.4392C4.78741 19.4329 4.24953 19.3913 3.78291 19.1566C3.26457 18.8958 2.93403 18.453 2.74426 17.8661C2.56553 17.3133 2.5 16.6015 2.5 15.7155C2.5 15.6965 2.50072 15.6775 2.50217 15.6585C2.50217 15.6531 2.50221 15.6401 2.50194 15.6163L2.50184 15.6079C2.50132 15.5627 2.50054 15.4955 2.5025 15.4183C2.50675 15.2511 2.52376 15.0294 2.58385 14.7749C2.70677 14.2543 2.99922 13.6443 3.64016 13.0765Z" fill="#000000" />
</svg>