<svg width="24px"  height="24px"  viewBox="0 0 25 24" fill="none" xmlns="http://www.w3.org/2000/svg">
<path d="M5.43943 10.9024C5.06065 10.9477 4.6766 10.9159 4.31041 10.809C3.94421 10.7021 3.60339 10.5223 3.30842 10.2804C2.73542 9.72241 2.50242 8.8234 2.50242 7.1804L3.25444 7.06541L2.50444 7.07442C2.48693 6.63817 2.5621 6.20317 2.72499 5.7981C2.88788 5.39303 3.13477 5.02709 3.44941 4.72441C4.86341 3.29341 7.82443 2.56641 12.2494 2.56641C16.6744 2.56641 19.6344 3.2924 21.0494 4.7234C21.3641 5.02569 21.6111 5.39126 21.7742 5.79599C21.9372 6.20072 22.0126 6.63541 21.9954 7.07141C21.9954 7.09941 21.9954 7.14941 21.9954 7.17741C21.9954 8.82541 21.7624 9.72542 21.1894 10.2834C20.5094 10.9434 19.5704 10.9174 18.3824 10.8904C18.0994 10.8824 17.7904 10.8744 17.4574 10.8744C16.8822 10.9047 16.314 10.7366 15.8479 10.3982C15.3817 10.0598 15.0459 9.5717 14.8964 9.01541C14.5224 8.16041 14.2264 7.48541 12.2434 7.48541C10.2604 7.48541 9.96542 8.16142 9.59242 9.01642C9.44362 9.57264 9.1084 10.0609 8.6428 10.3997C8.1772 10.7384 7.60946 10.907 7.03444 10.8774C6.70444 10.8774 6.39943 10.8854 6.11943 10.8924C5.88743 10.9024 5.65843 10.9024 5.43943 10.9024ZM12.2524 4.0704C7.25742 4.0704 5.28941 5.00141 4.51841 5.78241C4.34415 5.94474 4.2079 6.14356 4.1194 6.36465C4.03089 6.58575 3.99231 6.82368 4.00642 7.06142C4.00642 7.15042 4.00641 7.22042 4.00041 7.26642C3.91789 7.93643 4.04284 8.61564 4.35841 9.21242C4.58541 9.43442 5.24943 9.42141 6.09044 9.39641C6.38244 9.38941 6.69943 9.38141 7.04243 9.38141C7.80743 9.38141 7.92142 9.11941 8.22642 8.42041C8.64942 7.45241 9.28742 5.98941 12.2524 5.98941C15.2174 5.98941 15.8524 7.4504 16.2794 8.4174C16.5864 9.1174 16.7004 9.37842 17.4664 9.37842C17.8144 9.37842 18.1344 9.38641 18.4304 9.39441C19.2664 9.41641 19.9254 9.43141 20.1514 9.21341C20.4739 8.58804 20.5971 7.8789 20.5044 7.18141V7.19041C20.5044 7.19041 20.5044 7.13142 20.5044 7.05942C20.5183 6.82177 20.4794 6.58399 20.3908 6.36307C20.3021 6.14215 20.1657 5.94354 19.9914 5.78142C19.2164 5.00242 17.2474 4.0704 12.2524 4.0704Z" fill="#000000" />
<path d="M15.6724 21.4336H8.8234C8.14143 21.4492 7.46393 21.3193 6.8361 21.0526C6.20827 20.7858 5.6445 20.3883 5.18238 19.8866C4.78582 19.427 4.49358 18.887 4.32578 18.3037C4.15798 17.7203 4.11862 17.1076 4.2104 16.5076L4.95438 12.6646C4.97052 12.5655 5.0064 12.4707 5.05985 12.3857C5.11331 12.3008 5.18325 12.2274 5.26557 12.17C5.3479 12.1126 5.44091 12.0723 5.5391 12.0515C5.63729 12.0307 5.73866 12.0297 5.8372 12.0488C5.93574 12.0679 6.02945 12.1066 6.11277 12.1625C6.19609 12.2185 6.26733 12.2906 6.32227 12.3746C6.37722 12.4586 6.41474 12.5528 6.43263 12.6515C6.45051 12.7503 6.4484 12.8516 6.4264 12.9496L5.69041 16.7496C5.63185 17.1314 5.65696 17.5215 5.76402 17.8927C5.87107 18.264 6.0575 18.6075 6.3104 18.8996C6.63197 19.2404 7.02232 19.5089 7.45557 19.6873C7.88883 19.8658 8.35509 19.95 8.8234 19.9346H15.6724C16.1714 19.9505 16.6679 19.8577 17.1275 19.6628C17.5872 19.4678 17.999 19.1753 18.3344 18.8056C18.5668 18.5225 18.7317 18.1903 18.8166 17.8341C18.9015 17.4779 18.9042 17.107 18.8244 16.7496L18.0774 12.9496C18.0584 12.8529 18.0587 12.7535 18.0781 12.6569C18.0976 12.5603 18.1358 12.4686 18.1908 12.3868C18.2457 12.305 18.3162 12.2349 18.3982 12.1804C18.4803 12.1259 18.5722 12.088 18.6689 12.0691C18.7655 12.0501 18.865 12.0503 18.9616 12.0698C19.0581 12.0892 19.1499 12.1275 19.2316 12.1824C19.3134 12.2374 19.3836 12.3079 19.4381 12.3899C19.4926 12.4719 19.5304 12.5639 19.5494 12.6606L20.2964 16.4606C20.4193 17.0354 20.4113 17.6305 20.2728 18.2018C20.1343 18.7731 19.8689 19.3058 19.4964 19.7606C19.0192 20.3009 18.4297 20.7306 17.7692 21.0195C17.1087 21.3085 16.3931 21.4498 15.6724 21.4336Z" fill="#000000" />
<path d="M12.2532 17.5592C11.5915 17.559 10.9446 17.3626 10.3945 16.9948C9.84441 16.627 9.41572 16.1044 9.16262 15.493C8.90952 14.8815 8.8434 14.2088 8.97262 13.5598C9.10184 12.9108 9.42059 12.3147 9.88857 11.8469C10.3566 11.379 10.9528 11.0604 11.6018 10.9314C12.2508 10.8024 12.9235 10.8687 13.5349 11.122C14.1462 11.3753 14.6687 11.8041 15.0364 12.3544C15.404 12.9046 15.6002 13.5515 15.6002 14.2132C15.5991 15.1005 15.2461 15.9511 14.6186 16.5783C13.9912 17.2056 13.1405 17.5584 12.2532 17.5592ZM12.2532 12.3672C11.8881 12.3674 11.5313 12.4758 11.2279 12.6788C10.9245 12.8817 10.688 13.1701 10.5484 13.5075C10.4089 13.8448 10.3724 14.2159 10.4438 14.5739C10.5151 14.932 10.691 15.2608 10.9492 15.5189C11.2074 15.7769 11.5364 15.9527 11.8944 16.0238C12.2525 16.0949 12.6236 16.0583 12.9609 15.9186C13.2981 15.7788 13.5863 15.5422 13.7891 15.2387C13.9919 14.9351 14.1002 14.5783 14.1002 14.2132C14.0997 13.7236 13.9049 13.2542 13.5586 12.9081C13.2123 12.562 12.7428 12.3675 12.2532 12.3672Z" fill="#000000" />
</svg>