<svg width="24px"  height="24px"  viewBox="0 0 25 24" fill="none" xmlns="http://www.w3.org/2000/svg">
<path d="M5.43542 11.4962C5.05735 11.5409 4.67413 11.5089 4.30868 11.4022C3.94323 11.2955 3.60303 11.1163 3.30841 10.8752C2.73541 10.3162 2.50241 9.41816 2.50241 7.77516L3.25442 7.66016L2.50442 7.66916C2.48697 7.23277 2.56215 6.79764 2.72504 6.39241C2.88792 5.98719 3.13478 5.62107 3.4494 5.31816C4.8634 3.88716 7.82442 3.16116 12.2494 3.16016C16.6744 3.16016 19.6344 3.88616 21.0494 5.31516C21.3643 5.61794 21.6114 5.98401 21.7744 6.38925C21.9375 6.79449 22.0128 7.22968 21.9954 7.66615C21.9954 7.69215 21.9954 7.74416 21.9954 7.76616C21.9954 9.41416 21.7624 10.3132 21.1894 10.8722C20.5104 11.5332 19.5654 11.5121 18.3894 11.4781C18.0812 11.4502 17.7713 11.4455 17.4624 11.4642C16.8871 11.4944 16.3188 11.3261 15.8526 10.9875C15.3865 10.649 15.0507 10.1606 14.9014 9.60416C14.5274 8.75016 14.2314 8.07416 12.2484 8.07416C10.2654 8.07416 9.97041 8.75015 9.59741 9.60515C9.44862 10.1614 9.1134 10.6497 8.6478 10.9884C8.18219 11.3271 7.61442 11.4958 7.0394 11.4662C6.7094 11.4662 6.4054 11.4741 6.1254 11.4801C5.8864 11.4881 5.65242 11.4962 5.43542 11.4962ZM12.2524 4.65616C7.25741 4.65616 5.2894 5.58815 4.5184 6.36815C4.34419 6.53052 4.20798 6.72935 4.11947 6.95044C4.03097 7.17153 3.99237 7.40943 4.00641 7.64716C4.00641 7.73816 4.0064 7.80815 4.0004 7.85315C3.91787 8.52316 4.04283 9.20237 4.3584 9.79915C4.5854 10.0211 5.24942 10.0041 6.09042 9.98215C6.38242 9.97515 6.69942 9.96715 7.04242 9.96715C7.80742 9.96715 7.92141 9.70515 8.22641 9.00615C8.64941 8.03815 9.28741 6.57615 12.2524 6.57515C15.2174 6.57515 15.8574 8.03715 16.2794 9.00415C16.5874 9.70415 16.7014 9.98115 17.4794 9.96515C17.8234 9.96515 18.1424 9.97315 18.4364 9.98015C19.2714 10.0011 19.9304 10.0181 20.1554 9.79915C20.4789 9.17411 20.6025 8.46476 20.5094 7.76715V7.77716C20.5094 7.77716 20.5094 7.71816 20.5094 7.64516C20.5235 7.40748 20.4848 7.16962 20.3961 6.94865C20.3075 6.72769 20.1709 6.52911 19.9964 6.36716C19.2164 5.58616 17.2474 4.65616 12.2524 4.65616Z" fill="#000000" />
<path d="M15.6724 20.8379H8.8234C8.14143 20.8536 7.46393 20.7237 6.8361 20.457C6.20827 20.1902 5.6445 19.7927 5.18238 19.2909C4.78582 18.8314 4.49358 18.2914 4.32578 17.708C4.15798 17.1247 4.11862 16.5119 4.2104 15.9119L4.94941 10.8989C4.97845 10.7021 5.08446 10.5249 5.24415 10.4063C5.40384 10.2877 5.60409 10.2374 5.80088 10.2664C5.99767 10.2955 6.17488 10.4015 6.2935 10.5612C6.41211 10.7209 6.46243 10.9211 6.43339 11.1179L5.69538 16.1179C5.63255 16.5046 5.65506 16.9004 5.7613 17.2775C5.86754 17.6546 6.05494 18.0039 6.3104 18.3009C6.63197 18.6417 7.02232 18.9103 7.45557 19.0887C7.88883 19.2671 8.35509 19.3514 8.8234 19.3359H15.6724C16.1714 19.3519 16.6678 19.2591 17.1273 19.0639C17.5868 18.8688 17.9984 18.576 18.3334 18.2059C18.5664 17.9235 18.7317 17.5914 18.8167 17.2352C18.9016 16.879 18.9039 16.5082 18.8234 16.1509L18.0704 11.1169C18.0415 10.9202 18.0918 10.72 18.2102 10.5602C18.3287 10.4005 18.5057 10.2943 18.7024 10.2649C18.8988 10.2378 19.098 10.2887 19.2575 10.4066C19.4169 10.5245 19.5238 10.7002 19.5554 10.8959L20.3024 15.8959C20.419 16.4659 20.4066 17.0548 20.2661 17.6194C20.1256 18.184 19.8606 18.7101 19.4904 19.1589C19.0145 19.6997 18.4263 20.1301 17.7668 20.4201C17.1074 20.7101 16.3926 20.8527 15.6724 20.8379Z" fill="#000000" />
<path d="M12.2531 16.9633C11.6666 16.9633 11.0932 16.7894 10.6055 16.4635C10.1178 16.1377 9.73763 15.6746 9.51308 15.1328C9.28853 14.5909 9.22967 13.9946 9.34395 13.4194C9.45823 12.8441 9.74051 12.3156 10.1551 11.9007C10.5697 11.4858 11.098 11.2032 11.6732 11.0885C12.2485 10.9738 12.8448 11.0323 13.3868 11.2565C13.9288 11.4806 14.3921 11.8605 14.7183 12.348C15.0444 12.8355 15.2187 13.4087 15.2191 13.9953C15.2186 14.7819 14.906 15.5362 14.3499 16.0927C13.7938 16.6491 13.0398 16.9622 12.2531 16.9633ZM12.2531 12.5303C11.9631 12.5303 11.6796 12.6163 11.4385 12.7774C11.1974 12.9385 11.0095 13.1675 10.8986 13.4355C10.7877 13.7034 10.7587 13.9982 10.8154 14.2826C10.872 14.567 11.0117 14.8282 11.2168 15.0332C11.422 15.2382 11.6833 15.3778 11.9677 15.4342C12.2521 15.4907 12.5469 15.4615 12.8148 15.3504C13.0827 15.2393 13.3116 15.0512 13.4725 14.81C13.6335 14.5688 13.7193 14.2852 13.7191 13.9953C13.718 13.6069 13.5632 13.2347 13.2885 12.9602C13.0138 12.6856 12.6415 12.531 12.2531 12.5303Z" fill="#000000" />
</svg>