<svg width="24px"  height="24px"  viewBox="0 0 25 24" fill="none" xmlns="http://www.w3.org/2000/svg">
<path fill-rule="evenodd" clip-rule="evenodd" d="M3.5 12.0007C3.5 9.8318 5.2584 8.07227 7.42848 8.07227C9.59783 8.07227 11.3561 9.83193 11.3561 12.0007C11.3561 14.1696 9.59783 15.9292 7.42848 15.9292C5.2584 15.9292 3.5 14.1697 3.5 12.0007ZM7.42848 9.57227C6.0871 9.57227 5 10.66 5 12.0007C5 13.3415 6.0871 14.4292 7.42848 14.4292C8.76887 14.4292 9.8561 13.3417 9.8561 12.0007C9.8561 10.6598 8.76887 9.57227 7.42848 9.57227Z" fill="#000000" />
<path fill-rule="evenodd" clip-rule="evenodd" d="M13.1445 12.0007C13.1445 9.8318 14.9029 8.07227 17.073 8.07227C19.2424 8.07227 21.0006 9.83193 21.0006 12.0007C21.0006 14.1696 19.2424 15.9292 17.073 15.9292C14.9029 15.9292 13.1445 14.1697 13.1445 12.0007ZM17.073 9.57227C15.7316 9.57227 14.6445 10.66 14.6445 12.0007C14.6445 13.3415 15.7316 14.4292 17.073 14.4292C18.4134 14.4292 19.5006 13.3417 19.5006 12.0007C19.5006 10.6598 18.4134 9.57227 17.073 9.57227Z" fill="#000000" />
<path fill-rule="evenodd" clip-rule="evenodd" d="M6.67773 15.1797C6.67773 14.7655 7.01352 14.4297 7.42773 14.4297H17.0716C17.4858 14.4297 17.8216 14.7655 17.8216 15.1797C17.8216 15.5939 17.4858 15.9297 17.0716 15.9297H7.42773C7.01352 15.9297 6.67773 15.5939 6.67773 15.1797Z" fill="#000000" />
</svg>