<svg width="24px"  height="24px"  viewBox="0 0 25 25" fill="none" xmlns="http://www.w3.org/2000/svg">
<path fill-rule="evenodd" clip-rule="evenodd" d="M12.5001 19.6328C14.6096 19.6328 16.3215 17.9226 16.3215 15.8114C16.3215 13.7022 14.6093 11.99 12.5001 11.99H8.67868V15.8114C8.67868 17.9229 10.3886 19.6328 12.5001 19.6328ZM7.17868 15.8114C7.17868 18.7513 9.56018 21.1328 12.5001 21.1328C15.4375 21.1328 17.8215 18.7516 17.8215 15.8114C17.8215 12.8737 15.4377 10.49 12.5001 10.49H8.67868V8.95424C8.67868 6.84478 10.3888 5.13281 12.5001 5.13281H15.7435C16.1577 5.13281 16.4935 4.79703 16.4935 4.38281C16.4935 3.9686 16.1577 3.63281 15.7435 3.63281H12.5001C9.55993 3.63281 7.17868 6.01684 7.17868 8.95424V15.8114Z" fill="#000000" />
</svg>