<svg width="24px"  height="24px"  viewBox="0 0 25 25" fill="none" xmlns="http://www.w3.org/2000/svg">
<path fill-rule="evenodd" clip-rule="evenodd" d="M12.4996 4.13281C10.0739 4.13281 8.10749 6.09921 8.10749 8.52489C8.10749 9.56416 8.46751 10.5173 9.07025 11.2693C9.3088 11.5669 9.28597 11.9962 9.01719 12.2669C8.13534 13.1548 7.5918 14.3757 7.5918 15.7251C7.5918 18.4355 9.78907 20.6328 12.4996 20.6328C15.21 20.6328 17.4073 18.4355 17.4073 15.7251C17.4073 14.3757 16.8638 13.1548 15.9819 12.2669C15.7132 11.9962 15.6903 11.567 15.9289 11.2693C16.5316 10.5173 16.8917 9.56417 16.8917 8.52489C16.8917 6.09921 14.9253 4.13281 12.4996 4.13281ZM6.60749 8.52489C6.60749 5.27079 9.24547 2.63281 12.4996 2.63281C15.7537 2.63281 18.3917 5.27079 18.3917 8.52489C18.3917 9.6869 18.0546 10.7716 17.4734 11.6849C18.3694 12.7869 18.9073 14.1937 18.9073 15.7251C18.9073 19.264 16.0385 22.1328 12.4996 22.1328C8.96065 22.1328 6.0918 19.264 6.0918 15.7251C6.0918 14.1937 6.62973 12.7869 7.52578 11.6849C6.94451 10.7716 6.60749 9.68688 6.60749 8.52489Z" fill="#000000" />
<path fill-rule="evenodd" clip-rule="evenodd" d="M10.208 8.52648C10.208 7.26058 11.2342 6.23438 12.5001 6.23438C13.766 6.23438 14.7922 7.26058 14.7922 8.52648C14.7922 9.79237 13.766 10.8186 12.5001 10.8186C11.2342 10.8186 10.208 9.79237 10.208 8.52648ZM12.5001 7.73438C12.0626 7.73438 11.708 8.08901 11.708 8.52648C11.708 8.96394 12.0626 9.31858 12.5001 9.31858C12.9376 9.31858 13.2922 8.96394 13.2922 8.52648C13.2922 8.08901 12.9376 7.73438 12.5001 7.73438Z" fill="#000000" />
<path fill-rule="evenodd" clip-rule="evenodd" d="M9.69238 15.7257C9.69238 14.1751 10.9495 12.918 12.5002 12.918C14.0509 12.918 15.3079 14.1751 15.3079 15.7257C15.3079 17.2764 14.0509 18.5335 12.5002 18.5335C10.9495 18.5335 9.69238 17.2764 9.69238 15.7257ZM12.5002 14.418C11.7779 14.418 11.1924 15.0035 11.1924 15.7257C11.1924 16.448 11.7779 17.0335 12.5002 17.0335C13.2224 17.0335 13.8079 16.448 13.8079 15.7257C13.8079 15.0035 13.2224 14.418 12.5002 14.418Z" fill="#000000" />
</svg>