<svg width="24px"  height="24px"  viewBox="0 0 25 25" fill="none" xmlns="http://www.w3.org/2000/svg">
<path fill-rule="evenodd" clip-rule="evenodd" d="M12.5 4.13281C7.94337 4.13281 4.25 7.82618 4.25 12.3828C4.25 16.9394 7.94337 20.6328 12.5 20.6328C17.0566 20.6328 20.75 16.9394 20.75 12.3828C20.75 7.82618 17.0566 4.13281 12.5 4.13281ZM2.75 12.3828C2.75 6.99776 7.11494 2.63281 12.5 2.63281C17.8851 2.63281 22.25 6.99776 22.25 12.3828C22.25 17.7679 17.8851 22.1328 12.5 22.1328C7.11494 22.1328 2.75 17.7679 2.75 12.3828Z" fill="#000000" />
<path fill-rule="evenodd" clip-rule="evenodd" d="M10.375 8.38281C10.375 7.9686 10.7108 7.63281 11.125 7.63281H12.625C12.8239 7.63281 13.0147 7.71183 13.1553 7.85248C13.296 7.99313 13.375 8.1839 13.375 8.38281V16.3828C13.375 16.797 13.0392 17.1328 12.625 17.1328C12.2108 17.1328 11.875 16.797 11.875 16.3828V9.13281H11.125C10.7108 9.13281 10.375 8.79703 10.375 8.38281Z" fill="#000000" />
<path fill-rule="evenodd" clip-rule="evenodd" d="M10.625 16.3828C10.625 15.9686 10.9608 15.6328 11.375 15.6328H13.875C14.2892 15.6328 14.625 15.9686 14.625 16.3828C14.625 16.797 14.2892 17.1328 13.875 17.1328H11.375C10.9608 17.1328 10.625 16.797 10.625 16.3828Z" fill="#000000" />
</svg>