<svg width="24px"  height="24px"  viewBox="0 0 25 25" fill="none" xmlns="http://www.w3.org/2000/svg">
<path d="M12.5 22.1246C8.95996 22.1246 6.00996 19.4647 5.65996 15.9447C5.65996 15.9447 5.65997 15.8847 5.64997 15.8347C5.32997 11.7147 7.00997 8.47465 8.47997 6.47465C9.28997 5.37465 10.11 4.53465 10.66 4.03465C11.01 3.71465 11.37 3.41465 11.74 3.12465C12.31 2.71465 12.99 2.55464 13.66 2.66464C14.33 2.77464 14.92 3.13465 15.32 3.69465C16.14 4.83465 15.88 6.42465 14.75 7.25465C14.55 7.41465 14.33 7.59465 14.13 7.78465C13.95 7.95465 13.72 8.17465 13.47 8.44465C16.81 8.91465 19.39 11.7847 19.39 15.2547C19.39 19.0447 16.3 22.1346 12.51 22.1346L12.5 22.1246ZM13.24 4.12465C13.02 4.12465 12.81 4.19464 12.63 4.32464C12.31 4.57464 11.98 4.84464 11.67 5.13464C11.17 5.59464 10.42 6.36465 9.67996 7.36465C8.35996 9.15465 6.84996 12.0646 7.13996 15.7146C7.42996 18.5546 9.72996 20.6246 12.5 20.6246C15.47 20.6246 17.88 18.2146 17.88 15.2446C17.88 12.2746 15.47 9.86465 12.5 9.86465C12.32 9.86465 12.15 9.86464 11.98 9.88464C11.69 9.91464 11.41 9.76465 11.26 9.51465C11.11 9.26465 11.13 8.94465 11.3 8.70465L11.37 8.60464C12.01 7.73464 12.66 7.07465 13.1 6.67465C13.34 6.45465 13.59 6.24465 13.84 6.04465C14.33 5.69465 14.43 5.03465 14.1 4.56465C13.94 4.33465 13.69 4.18465 13.42 4.14465C13.36 4.14465 13.31 4.13464 13.25 4.13464L13.24 4.12465Z" fill="#000000" />
<path d="M12.5007 18.5229C10.6907 18.5229 9.2207 17.0529 9.2207 15.2429C9.2207 13.4329 10.6907 11.9629 12.5007 11.9629C14.3107 11.9629 15.7807 13.4329 15.7807 15.2429C15.7807 17.0529 14.3107 18.5229 12.5007 18.5229ZM12.5007 13.4629C11.5207 13.4629 10.7207 14.2629 10.7207 15.2429C10.7207 16.2229 11.5207 17.0229 12.5007 17.0229C13.4807 17.0229 14.2807 16.2229 14.2807 15.2429C14.2807 14.2629 13.4807 13.4629 12.5007 13.4629Z" fill="#000000" />
</svg>