<svg width="24px"  height="24px"  viewBox="0 0 25 25" fill="none" xmlns="http://www.w3.org/2000/svg">
<path fill-rule="evenodd" clip-rule="evenodd" d="M12.5 4.13281C7.94337 4.13281 4.25 7.82618 4.25 12.3828C4.25 16.9394 7.94337 20.6328 12.5 20.6328C17.0566 20.6328 20.75 16.9394 20.75 12.3828C20.75 7.82618 17.0566 4.13281 12.5 4.13281ZM2.75 12.3828C2.75 6.99776 7.11494 2.63281 12.5 2.63281C17.8851 2.63281 22.25 6.99776 22.25 12.3828C22.25 17.7679 17.8851 22.1328 12.5 22.1328C7.11494 22.1328 2.75 17.7679 2.75 12.3828Z" fill="#000000" />
<path fill-rule="evenodd" clip-rule="evenodd" d="M12.5005 9.13281C11.7307 9.13281 11.1055 9.75809 11.1055 10.5279C11.1055 10.9421 10.7697 11.2779 10.3555 11.2779C9.94126 11.2779 9.60547 10.9421 9.60547 10.5279C9.60547 8.92966 10.9023 7.63281 12.5005 7.63281C14.0987 7.63281 15.3956 8.92966 15.3956 10.5279C15.3956 11.319 15.1784 11.8889 14.8685 12.4194C14.3964 13.2272 13.6297 14.0183 13.0082 14.6596C12.8577 14.815 12.7156 14.9616 12.5883 15.0975L12.0869 15.6328H14.6456C15.0598 15.6328 15.3956 15.9686 15.3956 16.3828C15.3956 16.797 15.0598 17.1328 14.6456 17.1328H10.3569C10.0581 17.1328 9.78771 16.9554 9.66883 16.6811C9.54994 16.4069 9.60523 16.0883 9.80954 15.8701L11.4935 14.0721C11.6614 13.8929 11.8323 13.7159 12.0019 13.5403C12.6109 12.9097 13.2028 12.2968 13.5734 11.6626C13.7812 11.3069 13.8956 10.996 13.8956 10.5279C13.8956 9.75809 13.2703 9.13281 12.5005 9.13281Z" fill="#000000" />
</svg>