<svg width="24px"  height="24px"  viewBox="0 0 25 25" fill="none" xmlns="http://www.w3.org/2000/svg">
<path fill-rule="evenodd" clip-rule="evenodd" d="M6.08887 9.04389C6.08887 5.5044 8.96045 2.63281 12.4999 2.63281C16.0394 2.63281 18.911 5.5044 18.911 9.04389C18.911 11.0461 18.0692 12.5487 17.0106 13.672C16.1474 14.5879 15.0589 15.3264 14.2221 15.8941L14.1954 15.9122C14.1073 15.9721 14.0216 16.0302 13.9389 16.0866C13.4256 16.437 12.9965 16.7448 12.6414 17.0328H16.361C17.7694 17.0328 18.911 18.1745 18.911 19.5828C18.911 20.9911 17.7694 22.1328 16.361 22.1328H8.64152C7.2332 22.1328 6.09152 20.9911 6.09152 19.5828C6.09152 15.2684 9.18613 13.156 11.0501 11.8836L11.2631 11.7384C12.2209 11.0855 12.8459 10.6549 13.2991 10.1741C13.6861 9.76348 13.811 9.45672 13.811 9.04389C13.811 8.32105 13.2228 7.73281 12.4999 7.73281C11.7771 7.73281 11.1889 8.32105 11.1889 9.04389C11.1889 10.4522 10.0472 11.5939 8.63887 11.5939C7.23054 11.5939 6.08887 10.4522 6.08887 9.04389ZM12.4999 4.13281C9.78888 4.13281 7.58887 6.33283 7.58887 9.04389C7.58887 9.62379 8.05897 10.0939 8.63887 10.0939C9.21877 10.0939 9.68887 9.62379 9.68887 9.04389C9.68887 7.49262 10.9487 6.23281 12.4999 6.23281C14.0512 6.23281 15.311 7.49262 15.311 9.04389C15.311 9.92134 14.9776 10.5801 14.3907 11.2029C13.8132 11.8157 13.0518 12.3346 12.1616 12.9413L11.9093 13.1133C10.0076 14.4114 7.59152 16.1214 7.59152 19.5828C7.59152 20.1627 8.06163 20.6328 8.64152 20.6328H16.361C16.9409 20.6328 17.411 20.1627 17.411 19.5828C17.411 19.0029 16.9409 18.5328 16.361 18.5328H10.9253C10.6537 18.5328 10.4033 18.386 10.2707 18.1489C10.1382 17.9118 10.1441 17.6216 10.2863 17.3902C10.8832 16.4187 11.8985 15.6633 13.0933 14.8477C13.1779 14.79 13.2647 14.731 13.3525 14.6715C14.2161 14.0855 15.1784 13.4289 15.919 12.6432C16.7813 11.7282 17.411 10.5771 17.411 9.04389C17.411 6.33283 15.211 4.13281 12.4999 4.13281Z" fill="#000000" />
</svg>