<svg width="24px"  height="24px"  viewBox="0 0 25 25" fill="none" xmlns="http://www.w3.org/2000/svg">
<path fill-rule="evenodd" clip-rule="evenodd" d="M7.71363 15.8554C7.29942 15.8554 6.96363 15.5196 6.96363 15.1054V10.5904C6.96363 6.74777 10.0787 3.6327 13.9213 3.6327H15.3799C15.7941 3.6327 16.1299 3.96848 16.1299 4.3827C16.1299 4.79691 15.7941 5.1327 15.3799 5.1327H13.9213C10.9071 5.1327 8.46363 7.5762 8.46363 10.5904V15.1054C8.46363 15.5196 8.12784 15.8554 7.71363 15.8554Z" fill="#000000" />
<path fill-rule="evenodd" clip-rule="evenodd" d="M12.5007 19.6327C14.7294 19.6327 16.5361 17.826 16.5361 15.5973C16.5361 13.3685 14.7294 11.5618 12.5007 11.5618C10.272 11.5618 8.46526 13.3685 8.46526 15.5973C8.46526 17.826 10.272 19.6327 12.5007 19.6327ZM18.0361 15.5973C18.0361 18.6544 15.5578 21.1327 12.5007 21.1327C9.44356 21.1327 6.96526 18.6544 6.96526 15.5973C6.96526 12.5401 9.44356 10.0618 12.5007 10.0618C15.5578 10.0618 18.0361 12.5401 18.0361 15.5973Z" fill="#000000" />
</svg>