<svg width="24px"  height="24px"  viewBox="0 0 25 25" fill="none" xmlns="http://www.w3.org/2000/svg">
<path fill-rule="evenodd" clip-rule="evenodd" d="M12.2919 2.63285C13.5958 2.6283 15.0242 3.00085 16.1857 3.90999C17.4156 4.87264 18.2155 6.34775 18.2155 8.15002C18.2155 9.45378 17.8055 10.5147 17.1865 11.3586C18.3786 12.3806 19.2355 13.8479 19.2355 15.8354C19.2355 17.8797 18.3403 19.5411 16.9664 20.6356C15.6569 21.6786 14.0238 22.1296 12.5054 22.1328C10.9872 22.136 9.34972 21.6918 8.03553 20.6468C6.65546 19.5494 5.76465 17.8828 5.76465 15.8354C5.76465 13.9808 6.52701 12.5841 7.5872 11.5778C6.8699 10.7043 6.38603 9.57321 6.38603 8.15002C6.38603 6.34994 7.19349 4.88274 8.41291 3.92546C9.56655 3.01981 10.9876 2.6374 12.2919 2.63285ZM15.2612 5.09119C14.4122 4.42668 13.3294 4.12924 12.2971 4.13284C11.2647 4.13645 10.1849 4.44138 9.33914 5.10533C8.46555 5.79113 7.88603 6.83092 7.88603 8.15002C7.88603 9.45573 8.42435 10.394 9.18355 11.0839C9.34934 11.2345 9.4391 11.4514 9.42827 11.6752C9.41743 11.899 9.30714 12.1062 9.12756 12.2401C9.00381 12.3324 8.88462 12.4282 8.77101 12.5278C7.88696 13.3029 7.26465 14.3615 7.26465 15.8354C7.26465 17.4156 7.93906 18.6537 8.9691 19.4727C9.97152 20.2698 11.2611 20.6354 12.5023 20.6328C13.7435 20.6302 15.0313 20.2593 16.0318 19.4623C17.0594 18.6438 17.7355 17.4091 17.7355 15.8354C17.7355 14.3032 17.0819 13.2193 16.1449 12.4423C15.9988 12.3212 15.844 12.2064 15.6825 12.0972C15.4977 11.9723 15.3781 11.7717 15.3561 11.5497C15.3341 11.3278 15.4121 11.1075 15.5688 10.9488C16.2427 10.2663 16.7155 9.36649 16.7155 8.15002C16.7155 6.82297 16.139 5.77824 15.2612 5.09119Z" fill="#000000" />
<path fill-rule="evenodd" clip-rule="evenodd" d="M12.1302 12.963C12.3198 12.8759 12.537 12.8717 12.7298 12.9515C12.7919 12.9771 12.8588 13.0042 12.9295 13.0328C13.3747 13.2129 13.9721 13.4545 14.4639 13.7934C15.0618 14.2055 15.6361 14.8508 15.6361 15.8357C15.6361 16.7546 15.202 17.4591 14.5753 17.9096C13.9724 18.343 13.2126 18.5316 12.4985 18.5331C11.7796 18.5346 11.0193 18.3471 10.4173 17.9114C9.79131 17.4583 9.36523 16.7517 9.36523 15.8357C9.36523 14.8859 9.91691 14.249 10.4825 13.8352C10.9473 13.495 11.512 13.2413 11.9328 13.0523C12.0029 13.0208 12.0691 12.991 12.1302 12.963ZM12.4587 14.4612C12.0544 14.6444 11.6789 14.8184 11.3682 15.0457C11.0057 15.311 10.8652 15.553 10.8652 15.8357C10.8652 16.2357 11.0313 16.5041 11.2968 16.6963C11.5863 16.9058 12.0169 17.0341 12.4953 17.0331C12.9707 17.0321 13.4055 16.9032 13.6998 16.6916C13.9704 16.4971 14.1361 16.2292 14.1361 15.8357C14.1361 15.5308 13.9871 15.2866 13.6127 15.0285C13.2857 14.8032 12.888 14.6365 12.4587 14.4612Z" fill="#000000" />
<path fill-rule="evenodd" clip-rule="evenodd" d="M12.9652 7.88574C12.8237 7.7968 12.5865 7.73342 12.3099 7.73439C12.0383 7.73533 11.7933 7.79923 11.643 7.89227C11.5738 7.93511 11.5385 7.97527 11.5201 8.0055C11.5042 8.03167 11.4863 8.07353 11.4863 8.15159C11.4863 8.26295 11.5308 8.38178 11.7495 8.54773C11.9139 8.67249 12.1152 8.77681 12.3446 8.8831C12.5506 8.77477 12.7293 8.66894 12.8739 8.54769C13.0707 8.38261 13.1158 8.26343 13.1158 8.15159C13.1158 8.06724 13.0968 8.02187 13.0809 7.99493C13.0631 7.96476 13.0298 7.92638 12.9652 7.88574ZM13.7634 6.61578C14.2496 6.92139 14.6158 7.43931 14.6158 8.15159C14.6158 8.86504 14.2311 9.36713 13.8377 9.69704C13.4801 9.99692 13.0451 10.2132 12.7443 10.3628C12.7287 10.3706 12.7135 10.3781 12.6986 10.3856C12.4982 10.4854 12.2636 10.4906 12.059 10.3995C12.0352 10.3889 12.0103 10.3779 11.9844 10.3664C11.6718 10.2281 11.218 10.0274 10.8427 9.74262C10.4169 9.41951 9.98633 8.9078 9.98633 8.15159C9.98633 7.43078 10.3692 6.9167 10.8534 6.61693C11.3062 6.33657 11.8467 6.23599 12.3047 6.23439C12.7688 6.23278 13.3108 6.33131 13.7634 6.61578Z" fill="#000000" />
</svg>