<svg width="24px"  height="24px"  viewBox="0 0 25 25" fill="none" xmlns="http://www.w3.org/2000/svg">
<path fill-rule="evenodd" clip-rule="evenodd" d="M11.5673 9.38854C11.39 9.52774 11.27 9.72521 11.27 10.0313C11.27 10.3576 11.392 10.5569 11.6479 10.7523C11.852 10.9081 12.1109 11.0374 12.4302 11.175C12.7207 11.035 12.9575 10.9035 13.1454 10.7497C13.3912 10.5485 13.5086 10.3464 13.5086 10.0313C13.5086 9.71591 13.3864 9.51826 13.2122 9.38187C13.0177 9.22963 12.723 9.13167 12.3919 9.13282C12.0609 9.13398 11.7641 9.23403 11.5673 9.38854ZM14.0884 11.9163C14.0908 11.9143 14.0932 11.9123 14.0956 11.9104C14.6155 11.4847 15.0086 10.8836 15.0086 10.0313C15.0086 9.24114 14.6634 8.61294 14.1367 8.20067C13.6302 7.80424 12.9902 7.63073 12.3867 7.63283C11.7831 7.63494 11.1452 7.81288 10.6411 8.20867C10.1174 8.61977 9.77002 9.24488 9.77002 10.0313C9.77002 10.9133 10.1862 11.5234 10.7375 11.9444C10.7562 11.9587 10.775 11.9727 10.7941 11.9866C10.6277 12.0918 10.4667 12.2081 10.3185 12.3381C9.79682 12.7954 9.4248 13.4271 9.4248 14.3009C9.4248 15.2308 9.82356 15.9662 10.4347 16.4521C11.0263 16.9225 11.7814 17.1343 12.5016 17.1328C13.2219 17.1313 13.9757 16.9164 14.5659 16.4462C15.1753 15.9609 15.5753 15.2275 15.5753 14.3009C15.5753 13.3937 15.1849 12.7466 14.6313 12.2876C14.4627 12.1478 14.2784 12.0252 14.0884 11.9163ZM12.4629 12.8112C11.9642 13.0376 11.5807 13.2263 11.3073 13.466C11.0633 13.6799 10.9248 13.9183 10.9248 14.3009C10.9248 14.7639 11.1074 15.0706 11.3682 15.278C11.6486 15.501 12.0561 15.6337 12.4985 15.6328C12.9409 15.6319 13.3496 15.4974 13.6314 15.273C13.894 15.0637 14.0753 14.7574 14.0753 14.3009C14.0753 13.8941 13.9276 13.6526 13.6739 13.4423C13.3877 13.205 12.9855 13.0245 12.4629 12.8112Z" fill="#000000" />
<path fill-rule="evenodd" clip-rule="evenodd" d="M12.5 4.13281C7.94337 4.13281 4.25 7.82618 4.25 12.3828C4.25 16.9394 7.94337 20.6328 12.5 20.6328C17.0566 20.6328 20.75 16.9394 20.75 12.3828C20.75 7.82618 17.0566 4.13281 12.5 4.13281ZM2.75 12.3828C2.75 6.99776 7.11494 2.63281 12.5 2.63281C17.8851 2.63281 22.25 6.99776 22.25 12.3828C22.25 17.7679 17.8851 22.1328 12.5 22.1328C7.11494 22.1328 2.75 17.7679 2.75 12.3828Z" fill="#000000" />
</svg>