<svg width="24px"  height="24px"  viewBox="0 0 25 25" fill="none" xmlns="http://www.w3.org/2000/svg">
<path fill-rule="evenodd" clip-rule="evenodd" d="M4.24079 4.43985C5.22556 3.38381 6.62779 2.79297 8.28313 2.79297H16.7178C18.3771 2.79297 19.7795 3.38351 20.7634 4.44029C21.7416 5.49102 22.25 6.94153 22.25 8.56935V16.5166C22.25 18.144 21.7416 19.5945 20.7633 20.6453C19.7793 21.7022 18.3766 22.293 16.7169 22.293H8.28313C6.62379 22.293 5.22117 21.7021 4.23714 20.6453C3.25872 19.5946 2.75 18.1441 2.75 16.5166V8.56935C2.75 6.94048 3.26145 5.49009 4.24079 4.43985ZM5.33783 5.46284C4.66045 6.18926 4.25 7.25205 4.25 8.56935V16.5166C4.25 17.8343 4.65879 18.897 5.33492 19.6231C6.00542 20.3432 6.99437 20.793 8.28313 20.793H16.7169C18.0062 20.793 18.9951 20.3432 19.6654 19.6232C20.3414 18.8971 20.75 17.8344 20.75 16.5166V8.56935C20.75 7.25101 20.3414 6.18832 19.6655 5.4624C18.9953 4.74253 18.0067 4.29297 16.7178 4.29297H8.28313C6.99913 4.29297 6.00979 4.74224 5.33783 5.46284Z" fill="#000000" />
<path fill-rule="evenodd" clip-rule="evenodd" d="M12.4996 9.29297C11.6518 9.29297 10.9639 9.98028 10.9639 10.8287C10.9639 11.6762 11.6521 12.3644 12.4996 12.3644H14.0353V10.8287C14.0353 9.98004 13.3482 9.29297 12.4996 9.29297ZM15.5353 10.8287C15.5353 9.15161 14.1767 7.79297 12.4996 7.79297C10.8239 7.79297 9.46387 9.15137 9.46387 10.8287C9.46387 12.5046 10.8237 13.8644 12.4996 13.8644H14.0353V14.2573C14.0353 15.105 13.348 15.793 12.4996 15.793H10.8779C10.4637 15.793 10.1279 16.1288 10.1279 16.543C10.1279 16.9572 10.4637 17.293 10.8779 17.293H12.4996C14.1769 17.293 15.5353 15.9329 15.5353 14.2573V10.8287Z" fill="#000000" />
</svg>