<svg width="24px"  height="24px"  viewBox="0 0 25 25" fill="none" xmlns="http://www.w3.org/2000/svg">
<path fill-rule="evenodd" clip-rule="evenodd" d="M12.5 4.13281C7.94337 4.13281 4.25 7.82618 4.25 12.3828C4.25 16.9394 7.94337 20.6328 12.5 20.6328C17.0566 20.6328 20.75 16.9394 20.75 12.3828C20.75 7.82618 17.0566 4.13281 12.5 4.13281ZM2.75 12.3828C2.75 6.99776 7.11494 2.63281 12.5 2.63281C17.8851 2.63281 22.25 6.99776 22.25 12.3828C22.25 17.7679 17.8851 22.1328 12.5 22.1328C7.11494 22.1328 2.75 17.7679 2.75 12.3828Z" fill="#000000" />
<path fill-rule="evenodd" clip-rule="evenodd" d="M12.9518 7.66049C13.2758 7.75106 13.4999 8.04635 13.4999 8.38281V16.3828C13.4999 16.797 13.1641 17.1328 12.7499 17.1328C12.3357 17.1328 11.9999 16.797 11.9999 16.3828V10.4497C11.7417 10.6549 11.4555 10.8419 11.1243 11.0327C10.7654 11.2395 10.3068 11.1161 10.1 10.7572C9.89324 10.3983 10.0166 9.93974 10.3755 9.73295C10.8282 9.4721 11.1181 9.25721 11.3587 9.01405C11.6023 8.76795 11.8228 8.46527 12.1086 7.99395C12.283 7.70625 12.6277 7.56993 12.9518 7.66049Z" fill="#000000" />
<path fill-rule="evenodd" clip-rule="evenodd" d="M10.5 16.3828C10.5 15.9686 10.8358 15.6328 11.25 15.6328H14.25C14.6642 15.6328 15 15.9686 15 16.3828C15 16.797 14.6642 17.1328 14.25 17.1328H11.25C10.8358 17.1328 10.5 16.797 10.5 16.3828Z" fill="#000000" />
</svg>