<svg width="24px"  height="24px"  viewBox="0 0 25 25" fill="none" xmlns="http://www.w3.org/2000/svg">
<path d="M11.7452 22.1228C11.6052 22.1228 11.4753 22.1128 11.3353 22.0928C10.6653 21.9828 10.0752 21.6228 9.67523 21.0628C8.85523 19.9228 9.11524 18.3328 10.2452 17.5128C10.6952 17.1628 11.1252 16.7628 11.5352 16.3228C8.19522 15.8528 5.61523 12.9828 5.61523 9.51282C5.61523 5.72282 8.70524 2.63281 12.4952 2.63281C16.0452 2.63281 18.9853 5.29282 19.3353 8.81282C19.3353 8.83282 19.3452 8.89282 19.3452 8.95282C19.6652 13.0428 17.9853 16.2928 16.5153 18.2828C15.8653 19.1628 15.1353 19.9828 14.3353 20.7228C13.9853 21.0428 13.6252 21.3428 13.2552 21.6328C12.7952 21.9628 12.2852 22.1328 11.7452 22.1328V22.1228ZM13.0753 14.8528C13.3453 14.8528 13.5952 14.9928 13.7252 15.2328C13.8752 15.4928 13.8552 15.8028 13.6852 16.0428C12.9352 17.0828 12.0853 17.9728 11.1453 18.7128C10.6553 19.0628 10.5553 19.7228 10.8853 20.1928C11.0453 20.4228 11.2952 20.5728 11.5652 20.6128C11.8352 20.6628 12.1152 20.5928 12.3452 20.4328C12.6652 20.1828 12.9952 19.9128 13.3052 19.6228C14.0252 18.9528 14.7152 18.1828 15.2952 17.3928C16.6152 15.6028 18.1253 12.6928 17.8353 9.04282C17.5453 6.20282 15.2452 4.13281 12.4752 4.13281C9.50522 4.13281 7.09521 6.54282 7.09521 9.51282C7.09521 12.4828 9.50522 14.8928 12.4752 14.8928C12.6452 14.8928 12.8252 14.8928 12.9952 14.8628C13.0152 14.8628 13.0452 14.8628 13.0652 14.8628L13.0753 14.8528Z" fill="#000000" />
<path d="M12.485 12.7827C10.675 12.7827 9.20508 11.3127 9.20508 9.50266C9.20508 7.69266 10.675 6.22266 12.485 6.22266C14.295 6.22266 15.7651 7.69266 15.7651 9.50266C15.7651 11.3127 14.295 12.7827 12.485 12.7827ZM12.485 7.72266C11.505 7.72266 10.7051 8.52266 10.7051 9.50266C10.7051 10.4827 11.505 11.2827 12.485 11.2827C13.465 11.2827 14.2651 10.4827 14.2651 9.50266C14.2651 8.52266 13.465 7.72266 12.485 7.72266Z" fill="#000000" />
</svg>