<svg width="24px"  height="24px"  viewBox="0 0 25 25" fill="none" xmlns="http://www.w3.org/2000/svg">
<path fill-rule="evenodd" clip-rule="evenodd" d="M7.79104 4.71804C8.01505 3.50955 9.06924 2.63281 10.2983 2.63281H15.9392C17.3476 2.63281 18.4892 3.77448 18.4892 5.1828C18.4892 6.59112 17.3476 7.73279 15.9392 7.73279H12.4191L12.3607 8.04778C16.192 8.11636 19.3252 11.2157 19.3252 15.0897C19.3252 19.0074 16.121 22.1328 12.2309 22.1328C9.53676 22.1328 7.18465 20.6388 5.9848 18.4311C5.3123 17.1937 5.77024 15.6455 7.00762 14.973C8.24501 14.3005 9.79327 14.7584 10.4658 15.9958C10.7986 16.6082 11.4586 17.0328 12.2309 17.0328C13.3581 17.0328 14.2252 16.1373 14.2252 15.0897C14.2252 14.0421 13.3581 13.1466 12.2309 13.1466C11.9506 13.1466 11.6174 13.2034 11.307 13.2973C10.9855 13.3946 10.7609 13.5096 10.6662 13.582C9.82825 14.2231 8.68202 14.2819 7.78284 13.73C6.88366 13.1781 6.41723 12.1294 6.60952 11.092L7.79104 4.71804ZM10.2983 4.13281C9.79223 4.13281 9.35815 4.49382 9.26591 4.99143L8.0844 11.3654C8.00522 11.7925 8.19728 12.2243 8.56753 12.4516C8.93778 12.6789 9.40975 12.6546 9.75479 12.3907C10.0506 12.1644 10.4663 11.9845 10.8726 11.8616C11.2898 11.7353 11.7716 11.6466 12.2309 11.6466C14.1736 11.6466 15.7252 13.2009 15.7252 15.0897C15.7252 16.9785 14.1736 18.5328 12.2309 18.5328C10.8945 18.5328 9.73619 17.7947 9.14783 16.7121C8.87092 16.2026 8.2334 16.014 7.72389 16.2909C7.21439 16.5678 7.02583 17.2053 7.30273 17.7148C8.24788 19.4539 10.1026 20.6328 12.2309 20.6328C15.31 20.6328 17.8252 18.1616 17.8252 15.0897C17.8252 12.0178 15.31 9.54662 12.2309 9.54662C12.0116 9.54662 11.7781 9.56023 11.5359 9.58799C11.2996 9.61508 11.0645 9.52846 10.9022 9.35455C10.7399 9.18064 10.6697 8.94006 10.7131 8.70617L11.0579 6.8461C11.1238 6.49066 11.4338 6.23279 11.7953 6.23279H15.9392C16.5191 6.23279 16.9892 5.7627 16.9892 5.1828C16.9892 4.60291 16.5191 4.13281 15.9392 4.13281H10.2983Z" fill="#000000" />
</svg>