<svg width="24px"  height="24px"  viewBox="0 0 25 25" fill="none" xmlns="http://www.w3.org/2000/svg">
<path fill-rule="evenodd" clip-rule="evenodd" d="M12.4995 4.13281C9.54094 4.13281 7.14258 6.53117 7.14258 9.4897C7.14258 12.4482 9.54094 14.8466 12.4995 14.8466C13.2259 14.8466 13.9168 14.7024 14.5465 14.4418C14.8158 14.3303 15.1252 14.3849 15.34 14.5818C15.5549 14.7786 15.6362 15.0821 15.5487 15.36C14.9698 17.1983 13.2521 18.5328 11.2207 18.5328H9.90798C9.32808 18.5328 8.85798 19.0029 8.85798 19.5828C8.85798 20.1627 9.32808 20.6328 9.90798 20.6328H11.2207C14.8861 20.6328 17.8576 17.6614 17.8576 13.9959V9.93241C17.8576 9.85947 17.8573 9.78741 17.857 9.71371L17.857 9.71269C17.8567 9.63981 17.8564 9.56529 17.8564 9.4897C17.8564 6.53117 15.458 4.13281 12.4995 4.13281ZM5.64258 9.4897C5.64258 5.70274 8.71251 2.63281 12.4995 2.63281C16.2864 2.63281 19.3564 5.70274 19.3564 9.4897C19.3564 9.56194 19.3567 9.63364 19.357 9.70736V9.7075C19.3573 9.78068 19.3576 9.85584 19.3576 9.93241V13.9959C19.3576 18.4898 15.7146 22.1328 11.2207 22.1328H9.90798C8.49965 22.1328 7.35798 20.9911 7.35798 19.5828C7.35798 18.1745 8.49965 17.0328 9.90798 17.0328H11.2207C11.969 17.0328 12.6546 16.762 13.1843 16.3128C12.959 16.3351 12.7305 16.3466 12.4995 16.3466C8.71251 16.3466 5.64258 13.2767 5.64258 9.4897Z" fill="#000000" />
<path fill-rule="evenodd" clip-rule="evenodd" d="M9.24219 9.49127C9.24219 7.69253 10.7003 6.23438 12.4991 6.23438C14.2978 6.23438 15.756 7.69253 15.756 9.49127C15.756 11.29 14.2978 12.7482 12.4991 12.7482C10.7003 12.7482 9.24219 11.29 9.24219 9.49127ZM12.4991 7.73438C11.5288 7.73438 10.7422 8.52096 10.7422 9.49127C10.7422 10.4616 11.5288 11.2482 12.4991 11.2482C13.4694 11.2482 14.256 10.4616 14.256 9.49127C14.256 8.52096 13.4694 7.73438 12.4991 7.73438Z" fill="#000000" />
</svg>