<svg width="24px"  height="24px"  viewBox="0 0 25 25" fill="none" xmlns="http://www.w3.org/2000/svg">
<path fill-rule="evenodd" clip-rule="evenodd" d="M6.08887 9.04389C6.08887 5.5044 8.96045 2.63281 12.4999 2.63281C16.0394 2.63281 18.911 5.5044 18.911 9.04389C18.911 10.7265 18.4379 11.9595 17.7983 13.054C16.9442 14.5158 15.6156 15.9312 14.5507 17.0328H16.361C17.7694 17.0328 18.911 18.1745 18.911 19.5828C18.911 20.9911 17.7694 22.1328 16.361 22.1328H8.64152C7.62532 22.1328 6.70612 21.5294 6.30192 20.5971C5.89772 19.6647 6.08569 18.5814 6.78034 17.8397L9.81154 14.6032C10.1313 14.2617 10.4515 13.93 10.7612 13.6092L10.763 13.6074C11.8701 12.4603 12.8126 11.4777 13.395 10.481C13.6872 9.98095 13.811 9.62843 13.811 9.04389C13.811 8.32105 13.2228 7.73281 12.4999 7.73281C11.7771 7.73281 11.1889 8.32105 11.1889 9.04389C11.1889 10.4522 10.0472 11.5939 8.63887 11.5939C7.23054 11.5939 6.08887 10.4522 6.08887 9.04389ZM12.4999 4.13281C9.78888 4.13281 7.58887 6.33283 7.58887 9.04389C7.58887 9.62379 8.05897 10.0939 8.63887 10.0939C9.21877 10.0939 9.68887 9.62379 9.68887 9.04389C9.68887 7.49262 10.9487 6.23281 12.4999 6.23281C14.0512 6.23281 15.311 7.49262 15.311 9.04389C15.311 9.95084 15.0848 10.5623 14.6901 11.2377C14.0073 12.4062 12.9406 13.5113 11.8843 14.6055L11.8422 14.6491C11.5308 14.9718 11.2178 15.2961 10.9063 15.6286L7.87515 18.8651C7.58912 19.1705 7.51172 19.6165 7.67816 20.0005C7.84459 20.3844 8.22309 20.6328 8.64152 20.6328H16.361C16.9409 20.6328 17.411 20.1627 17.411 19.5828C17.411 19.0029 16.9409 18.5328 16.361 18.5328H12.7935C12.4946 18.5328 12.2243 18.3554 12.1054 18.0811C11.9865 17.8069 12.0418 17.4883 12.2461 17.2701L12.4391 17.0641C12.6618 16.8263 12.913 16.5672 13.1759 16.2962L13.1789 16.293C14.3131 15.1235 15.6771 13.711 16.5032 12.2972C17.0408 11.3772 17.411 10.4032 17.411 9.04389C17.411 6.33283 15.211 4.13281 12.4999 4.13281Z" fill="#000000" />
</svg>