<svg width="24px"  height="24px"  viewBox="0 0 25 25" fill="none" xmlns="http://www.w3.org/2000/svg">
<path fill-rule="evenodd" clip-rule="evenodd" d="M15.3797 3.66454C15.6967 3.75983 15.9138 4.05174 15.9138 4.38281V15.989H18C18.4142 15.989 18.75 16.3248 18.75 16.739C18.75 17.1532 18.4142 17.489 18 17.489H15.9138V20.3828C15.9138 20.797 15.578 21.1328 15.1638 21.1328C14.7496 21.1328 14.4138 20.797 14.4138 20.3828V17.489H7C6.72396 17.489 6.47023 17.3374 6.33948 17.0942C6.20872 16.8511 6.22208 16.5559 6.37425 16.3255L14.5381 3.96937C14.7206 3.69314 15.0626 3.56926 15.3797 3.66454ZM8.39445 15.989H14.4138V6.87849L8.39445 15.989Z" fill="#000000" />
</svg>