<svg width="24px"  height="24px"  viewBox="0 0 25 25" fill="none" xmlns="http://www.w3.org/2000/svg">
<path fill-rule="evenodd" clip-rule="evenodd" d="M4.24079 4.43985C5.22556 3.38381 6.62779 2.79297 8.28313 2.79297H16.7178C18.3771 2.79297 19.7795 3.38351 20.7634 4.44029C21.7416 5.49102 22.25 6.94153 22.25 8.56935V16.5166C22.25 18.144 21.7416 19.5945 20.7633 20.6453C19.7793 21.7022 18.3766 22.293 16.7169 22.293H8.28313C6.62379 22.293 5.22117 21.7021 4.23714 20.6453C3.25872 19.5946 2.75 18.1441 2.75 16.5166V8.56935C2.75 6.94048 3.26145 5.49009 4.24079 4.43985ZM5.33783 5.46284C4.66045 6.18926 4.25 7.25205 4.25 8.56935V16.5166C4.25 17.8343 4.65879 18.897 5.33492 19.6231C6.00542 20.3432 6.99437 20.793 8.28313 20.793H16.7169C18.0062 20.793 18.9951 20.3432 19.6654 19.6232C20.3414 18.8971 20.75 17.8344 20.75 16.5166V8.56935C20.75 7.25101 20.3414 6.18832 19.6655 5.4624C18.9953 4.74253 18.0067 4.29297 16.7178 4.29297H8.28313C6.99913 4.29297 6.00979 4.74224 5.33783 5.46284Z" fill="#000000" />
<path fill-rule="evenodd" clip-rule="evenodd" d="M14.8927 10.4297C15.3069 10.4297 15.6427 10.7655 15.6427 11.1797V13.4372C15.6427 15.5656 13.9173 17.2911 11.7888 17.2911H11.0596C10.6454 17.2911 10.3096 16.9553 10.3096 16.5411C10.3096 16.1268 10.6454 15.7911 11.0596 15.7911H11.7888C13.0889 15.7911 14.1427 14.7372 14.1427 13.4372V11.1797C14.1427 10.7655 14.4785 10.4297 14.8927 10.4297Z" fill="#000000" />
<path fill-rule="evenodd" clip-rule="evenodd" d="M12.4992 9.29297C11.5919 9.29297 10.8564 10.0284 10.8564 10.9357C10.8564 11.843 11.5919 12.5784 12.4992 12.5784C13.4064 12.5784 14.1419 11.843 14.1419 10.9357C14.1419 10.0284 13.4064 9.29297 12.4992 9.29297ZM9.35645 10.9357C9.35645 9.20002 10.7635 7.79297 12.4992 7.79297C14.2349 7.79297 15.6419 9.20002 15.6419 10.9357C15.6419 12.6714 14.2349 14.0784 12.4992 14.0784C10.7635 14.0784 9.35645 12.6714 9.35645 10.9357Z" fill="#000000" />
</svg>