<svg width="24px"  height="24px"  viewBox="0 0 25 25" fill="none" xmlns="http://www.w3.org/2000/svg">
<path fill-rule="evenodd" clip-rule="evenodd" d="M13.7795 4.13281C10.114 4.13281 7.14258 7.10427 7.14258 10.7697C7.14258 11.5206 7.14289 12.2715 7.1432 13.0225C7.14351 13.7734 7.14382 14.5248 7.14382 15.2759C7.14382 18.2345 9.54218 20.6328 12.5007 20.6328C15.4592 20.6328 17.8576 18.2345 17.8576 15.2759C17.8576 12.3174 15.4592 9.91904 12.5007 9.91904C11.7742 9.91904 11.0833 10.0632 10.4536 10.3239C10.1844 10.4353 9.87498 10.3807 9.66014 10.1839C9.4453 9.987 9.36392 9.68352 9.45145 9.40559C10.0304 7.56731 11.7481 6.23281 13.7795 6.23281H15.0922C15.6721 6.23281 16.1422 5.76271 16.1422 5.18281C16.1422 4.60291 15.6721 4.13281 15.0922 4.13281H13.7795ZM5.64258 10.7697C5.64258 6.27584 9.28561 2.63281 13.7795 2.63281H15.0922C16.5005 2.63281 17.6422 3.77449 17.6422 5.18281C17.6422 6.59114 16.5005 7.73281 15.0922 7.73281H13.7795C13.0312 7.73281 12.3456 8.00361 11.8159 8.45287C12.0412 8.43049 12.2697 8.41904 12.5007 8.41904C16.2877 8.41904 19.3576 11.489 19.3576 15.2759C19.3576 19.0629 16.2877 22.1328 12.5007 22.1328C8.71375 22.1328 5.64382 19.0629 5.64382 15.2759C5.64382 14.5253 5.64351 13.7746 5.6432 13.0237C5.64289 12.2728 5.64258 11.5208 5.64258 10.7697Z" fill="#000000" />
<path fill-rule="evenodd" clip-rule="evenodd" d="M9.24414 15.2764C9.24414 13.4777 10.7023 12.0195 12.501 12.0195C14.2998 12.0195 15.7579 13.4777 15.7579 15.2764C15.7579 17.0752 14.2998 18.5333 12.501 18.5333C10.7023 18.5333 9.24414 17.0752 9.24414 15.2764ZM12.501 13.5195C11.5307 13.5195 10.7441 14.3061 10.7441 15.2764C10.7441 16.2467 11.5307 17.0333 12.501 17.0333C13.4713 17.0333 14.2579 16.2467 14.2579 15.2764C14.2579 14.3061 13.4713 13.5195 12.501 13.5195Z" fill="#000000" />
</svg>