<svg width="24px"  height="24px"  viewBox="0 0 25 25" fill="none" xmlns="http://www.w3.org/2000/svg">
<path fill-rule="evenodd" clip-rule="evenodd" d="M12.4973 3.37974C13.2266 2.65045 14.3233 2.43228 15.2762 2.82697C16.2291 3.22166 16.8504 4.15148 16.8504 5.18286V19.5828C16.8504 20.9911 15.7087 22.1328 14.3004 22.1328C12.8921 22.1328 11.7504 20.9911 11.7504 19.5828V11.1074C10.8116 11.5313 9.66875 11.3574 8.89727 10.586C7.90143 9.59013 7.90143 7.97556 8.89727 6.97973L12.4973 3.37974ZM14.7022 4.21279C14.3098 4.05027 13.8582 4.1401 13.5579 4.4404L9.95793 8.04039C9.54788 8.45044 9.54788 9.11526 9.95793 9.52531C10.368 9.93535 11.0328 9.93535 11.4428 9.52531L11.97 8.9981C12.1845 8.7836 12.5071 8.71944 12.7874 8.83552C13.0676 8.95161 13.2504 9.22508 13.2504 9.52843V19.5828C13.2504 20.1627 13.7205 20.6328 14.3004 20.6328C14.8803 20.6328 15.3504 20.1627 15.3504 19.5828V5.18286C15.3504 4.75818 15.0945 4.37531 14.7022 4.21279Z" fill="#000000" />
</svg>