<svg width="24px"  height="24px"  viewBox="0 0 25 25" fill="none" xmlns="http://www.w3.org/2000/svg">
<path fill-rule="evenodd" clip-rule="evenodd" d="M12.5004 15.6328C13.3482 15.6328 14.0361 14.9455 14.0361 14.0971C14.0361 13.2496 13.3479 12.5614 12.5004 12.5614H10.9647V14.0971C10.9647 14.9457 11.6518 15.6328 12.5004 15.6328ZM9.4647 14.0971C9.4647 15.7742 10.8233 17.1328 12.5004 17.1328C14.1761 17.1328 15.5361 15.7744 15.5361 14.0971C15.5361 12.4212 14.1763 11.0614 12.5004 11.0614H10.9647V10.6685C10.9647 9.82078 11.652 9.13281 12.5004 9.13281H14.1221C14.5363 9.13281 14.8721 8.79703 14.8721 8.38281C14.8721 7.9686 14.5363 7.63281 14.1221 7.63281H12.5004C10.8231 7.63281 9.4647 8.99284 9.4647 10.6685V14.0971Z" fill="#000000" />
<path fill-rule="evenodd" clip-rule="evenodd" d="M12.5 4.13281C7.94337 4.13281 4.25 7.82618 4.25 12.3828C4.25 16.9394 7.94337 20.6328 12.5 20.6328C17.0566 20.6328 20.75 16.9394 20.75 12.3828C20.75 7.82618 17.0566 4.13281 12.5 4.13281ZM2.75 12.3828C2.75 6.99776 7.11494 2.63281 12.5 2.63281C17.8851 2.63281 22.25 6.99776 22.25 12.3828C22.25 17.7679 17.8851 22.1328 12.5 22.1328C7.11494 22.1328 2.75 17.7679 2.75 12.3828Z" fill="#000000" />
</svg>