<svg width="24px"  height="24px"  viewBox="0 0 25 25" fill="none" xmlns="http://www.w3.org/2000/svg">
<path fill-rule="evenodd" clip-rule="evenodd" d="M12.5005 9.13281C11.7307 9.13281 11.1055 9.75809 11.1055 10.5279C11.1055 10.9421 10.7697 11.2779 10.3555 11.2779C9.94126 11.2779 9.60547 10.9421 9.60547 10.5279C9.60547 8.92966 10.9023 7.63281 12.5005 7.63281C14.0987 7.63281 15.3956 8.92966 15.3956 10.5279C15.3956 11.319 15.1784 11.8889 14.8685 12.4194C14.3964 13.2272 13.6297 14.0183 13.0082 14.6596C12.8577 14.815 12.7156 14.9616 12.5883 15.0975L12.0869 15.6328H14.6456C15.0598 15.6328 15.3956 15.9686 15.3956 16.3828C15.3956 16.797 15.0598 17.1328 14.6456 17.1328H10.3569C10.0581 17.1328 9.78771 16.9554 9.66883 16.6811C9.54994 16.4069 9.60523 16.0883 9.80954 15.8701L11.4935 14.0721C11.6614 13.8929 11.8323 13.7159 12.0019 13.5403C12.6109 12.9097 13.2028 12.2968 13.5734 11.6626C13.7812 11.3069 13.8956 10.996 13.8956 10.5279C13.8956 9.75809 13.2703 9.13281 12.5005 9.13281Z" fill="#000000" />
<path fill-rule="evenodd" clip-rule="evenodd" d="M4.24079 4.2797C5.22556 3.22365 6.62779 2.63281 8.28313 2.63281H16.7178C18.3771 2.63281 19.7795 3.22336 20.7634 4.28014C21.7416 5.33086 22.25 6.78137 22.25 8.40919V16.3564C22.25 17.9838 21.7416 19.4343 20.7633 20.4851C19.7793 21.542 18.3766 22.1328 16.7169 22.1328H8.28313C6.62379 22.1328 5.22117 21.542 4.23714 20.4852C3.25872 19.4344 2.75 17.9839 2.75 16.3564V8.40919C2.75 6.78033 3.26145 5.32993 4.24079 4.2797ZM5.33783 5.30269C4.66045 6.0291 4.25 7.09189 4.25 8.40919V16.3564C4.25 17.6741 4.65879 18.7368 5.33492 19.463C6.00542 20.1831 6.99437 20.6328 8.28313 20.6328H16.7169C18.0062 20.6328 18.9951 20.183 19.6654 19.463C20.3414 18.7369 20.75 17.6742 20.75 16.3564V8.40919C20.75 7.09085 20.3414 6.02817 19.6655 5.30224C18.9953 4.58238 18.0067 4.13281 16.7178 4.13281H8.28313C6.99913 4.13281 6.00979 4.58208 5.33783 5.30269Z" fill="#000000" />
</svg>