<svg width="24px"  height="24px"  viewBox="0 0 25 25" fill="none" xmlns="http://www.w3.org/2000/svg">
<path fill-rule="evenodd" clip-rule="evenodd" d="M6.35088 8.78152C6.35088 5.38546 9.10353 2.63281 12.4996 2.63281C15.8956 2.63281 18.6483 5.38546 18.6483 8.78152C18.6483 10.1244 18.217 11.3686 17.4859 12.3808C18.2179 13.3928 18.6496 14.6374 18.6496 15.9815C18.6496 19.3802 15.897 22.1328 12.4983 22.1328C9.10102 22.1328 6.34961 19.3789 6.34961 15.9815C6.34961 14.5732 7.49128 13.4315 8.89961 13.4315C9.54698 13.4315 10.138 13.6728 10.5877 14.0702C10.1906 13.6206 9.94958 13.0299 9.94958 12.3828C9.94958 11.7325 10.1931 11.139 10.5938 10.6885C10.1435 11.0885 9.55058 11.3315 8.90088 11.3315C7.49255 11.3315 6.35088 10.1898 6.35088 8.78152ZM10.8066 10.4758C11.2569 10.0758 11.8499 9.83282 12.4996 9.83282C13.0768 9.83282 13.5483 9.36311 13.5483 8.78152C13.5483 8.20211 13.079 7.73281 12.4996 7.73281C11.9202 7.73281 11.4509 8.20211 11.4509 8.78152C11.4509 9.43188 11.2074 10.0254 10.8066 10.4758ZM10.8115 14.2941C11.2086 14.7437 11.4496 15.3345 11.4496 15.9815C11.4496 16.5646 11.92 17.0328 12.4983 17.0328C13.0803 17.0328 13.5496 16.5635 13.5496 15.9815C13.5496 15.4021 13.0816 14.9328 12.4996 14.9328C11.8522 14.9328 11.2612 14.6916 10.8115 14.2941ZM12.4996 4.13281C9.93195 4.13281 7.85088 6.21389 7.85088 8.78152C7.85088 9.36142 8.32098 9.83152 8.90088 9.83152C9.48078 9.83152 9.95088 9.36142 9.95088 8.78152C9.95088 7.37368 11.0918 6.23281 12.4996 6.23281C13.9074 6.23281 15.0483 7.37368 15.0483 8.78152C15.0483 10.1906 13.9062 11.3328 12.4996 11.3328C11.9197 11.3328 11.4496 11.8029 11.4496 12.3828C11.4496 12.9627 11.9197 13.4328 12.4996 13.4328C13.91 13.4328 15.0496 14.5737 15.0496 15.9815C15.0496 17.3919 13.9087 18.5328 12.4983 18.5328C11.0911 18.5328 9.94961 17.3925 9.94961 15.9815C9.94961 15.4016 9.47951 14.9315 8.89961 14.9315C8.31971 14.9315 7.84961 15.4016 7.84961 15.9815C7.84961 18.5513 9.93023 20.6328 12.4983 20.6328C15.0685 20.6328 17.1496 18.5517 17.1496 15.9815C17.1496 14.7897 16.7025 13.7044 15.9656 12.8815C15.7107 12.5969 15.7105 12.1661 15.9652 11.8813C16.7016 11.0576 17.1483 9.97205 17.1483 8.78152C17.1483 6.21389 15.0672 4.13281 12.4996 4.13281Z" fill="#000000" />
</svg>