<svg width="24px"  height="24px"  viewBox="0 0 25 25" fill="none" xmlns="http://www.w3.org/2000/svg">
<path fill-rule="evenodd" clip-rule="evenodd" d="M10.0246 4.13281C9.44471 4.13281 8.97461 4.60291 8.97461 5.18281C8.97461 5.76271 9.44471 6.23281 10.0246 6.23281H10.9246C11.3388 6.23281 11.6746 6.5686 11.6746 6.98281V17.7828C11.6746 18.197 11.3388 18.5328 10.9246 18.5328H10.4746C9.89471 18.5328 9.42461 19.0029 9.42461 19.5828C9.42461 20.1627 9.89471 20.6328 10.4746 20.6328H14.9746C15.5545 20.6328 16.0246 20.1627 16.0246 19.5828C16.0246 19.0029 15.5545 18.5328 14.9746 18.5328H14.5246C14.1104 18.5328 13.7746 18.197 13.7746 17.7828V5.18281C13.7746 4.90434 13.664 4.63726 13.4671 4.44035L13.8755 4.03195L13.4671 4.44035C13.2702 4.24344 13.0031 4.13281 12.7246 4.13281H10.0246ZM7.47461 5.18281C7.47461 3.77449 8.61628 2.63281 10.0246 2.63281H12.7246C13.4009 2.63281 14.0495 2.90147 14.5277 3.37969L13.9974 3.91002L14.5277 3.37969C15.006 3.85791 15.2746 4.50651 15.2746 5.18281V17.0503C16.5416 17.1988 17.5246 18.276 17.5246 19.5828C17.5246 20.9911 16.3829 22.1328 14.9746 22.1328H10.4746C9.06628 22.1328 7.92461 20.9911 7.92461 19.5828C7.92461 18.276 8.90766 17.1987 10.1746 17.0503V7.73281H10.0246C8.61628 7.73281 7.47461 6.59114 7.47461 5.18281Z" fill="#000000" />
</svg>