<svg width="24px"  height="24px"  viewBox="0 0 25 25" fill="none" xmlns="http://www.w3.org/2000/svg">
<path fill-rule="evenodd" clip-rule="evenodd" d="M12.4996 9.13281C11.6518 9.13281 10.9639 9.82013 10.9639 10.6685C10.9639 11.516 11.6521 12.2042 12.4996 12.2042H14.0353V10.6685C14.0353 9.81988 13.3482 9.13281 12.4996 9.13281ZM15.5353 10.6685C15.5353 8.99146 14.1767 7.63281 12.4996 7.63281C10.8239 7.63281 9.46387 8.99121 9.46387 10.6685C9.46387 12.3445 10.8237 13.7042 12.4996 13.7042H14.0353V14.0971C14.0353 14.9448 13.348 15.6328 12.4996 15.6328H10.8779C10.4637 15.6328 10.1279 15.9686 10.1279 16.3828C10.1279 16.797 10.4637 17.1328 10.8779 17.1328H12.4996C14.1769 17.1328 15.5353 15.7728 15.5353 14.0971V10.6685Z" fill="#000000" />
<path fill-rule="evenodd" clip-rule="evenodd" d="M12.5 4.13281C7.94337 4.13281 4.25 7.82618 4.25 12.3828C4.25 16.9394 7.94337 20.6328 12.5 20.6328C17.0566 20.6328 20.75 16.9394 20.75 12.3828C20.75 7.82618 17.0566 4.13281 12.5 4.13281ZM2.75 12.3828C2.75 6.99776 7.11494 2.63281 12.5 2.63281C17.8851 2.63281 22.25 6.99776 22.25 12.3828C22.25 17.7679 17.8851 22.1328 12.5 22.1328C7.11494 22.1328 2.75 17.7679 2.75 12.3828Z" fill="#000000" />
</svg>