<svg width="24px"  height="24px"  viewBox="0 0 25 25" fill="none" xmlns="http://www.w3.org/2000/svg">
<path fill-rule="evenodd" clip-rule="evenodd" d="M10.375 8.38281C10.375 7.9686 10.7108 7.63281 11.125 7.63281H12.625C12.8239 7.63281 13.0147 7.71183 13.1553 7.85248C13.296 7.99313 13.375 8.1839 13.375 8.38281V16.3828C13.375 16.797 13.0392 17.1328 12.625 17.1328C12.2108 17.1328 11.875 16.797 11.875 16.3828V9.13281H11.125C10.7108 9.13281 10.375 8.79703 10.375 8.38281Z" fill="#000000" />
<path fill-rule="evenodd" clip-rule="evenodd" d="M10.625 16.3828C10.625 15.9686 10.9608 15.6328 11.375 15.6328H13.875C14.2892 15.6328 14.625 15.9686 14.625 16.3828C14.625 16.797 14.2892 17.1328 13.875 17.1328H11.375C10.9608 17.1328 10.625 16.797 10.625 16.3828Z" fill="#000000" />
<path fill-rule="evenodd" clip-rule="evenodd" d="M4.24079 4.2797C5.22556 3.22365 6.62779 2.63281 8.28313 2.63281H16.7178C18.3771 2.63281 19.7795 3.22336 20.7634 4.28014C21.7416 5.33086 22.25 6.78137 22.25 8.40919V16.3564C22.25 17.9838 21.7416 19.4343 20.7633 20.4851C19.7793 21.542 18.3766 22.1328 16.7169 22.1328H8.28313C6.62379 22.1328 5.22117 21.542 4.23714 20.4852C3.25872 19.4344 2.75 17.9839 2.75 16.3564V8.40919C2.75 6.78033 3.26145 5.32993 4.24079 4.2797ZM5.33783 5.30269C4.66045 6.0291 4.25 7.09189 4.25 8.40919V16.3564C4.25 17.6741 4.65879 18.7368 5.33492 19.463C6.00542 20.1831 6.99437 20.6328 8.28313 20.6328H16.7169C18.0062 20.6328 18.9951 20.183 19.6654 19.463C20.3414 18.7369 20.75 17.6742 20.75 16.3564V8.40919C20.75 7.09085 20.3414 6.02817 19.6655 5.30224C18.9953 4.58238 18.0067 4.13281 16.7178 4.13281H8.28313C6.99913 4.13281 6.00979 4.58208 5.33783 5.30269Z" fill="#000000" />
</svg>