<svg width="24px"  height="24px"  viewBox="0 0 25 25" fill="none" xmlns="http://www.w3.org/2000/svg">
<path fill-rule="evenodd" clip-rule="evenodd" d="M13.4518 3.6605C13.7758 3.75107 13.9999 4.04635 13.9999 4.38282V20.3828C13.9999 20.797 13.6641 21.1328 13.2499 21.1328C12.8357 21.1328 12.4999 20.797 12.4999 20.3828V6.75731C12.3602 6.9203 12.2166 7.07666 12.067 7.22787C11.3979 7.90402 10.6362 8.44968 9.62429 9.03267C9.26539 9.23946 8.80681 9.11614 8.60002 8.75723C8.39324 8.39832 8.51656 7.93974 8.87547 7.73296C9.81644 7.19082 10.4569 6.72242 11.0007 6.17282C11.5475 5.62028 12.0239 4.95824 12.6086 3.99396C12.783 3.70625 13.1277 3.56993 13.4518 3.6605Z" fill="#000000" />
<path fill-rule="evenodd" clip-rule="evenodd" d="M9.5 20.3828C9.5 19.9686 9.83579 19.6328 10.25 19.6328H16.25C16.6642 19.6328 17 19.9686 17 20.3828C17 20.797 16.6642 21.1328 16.25 21.1328H10.25C9.83579 21.1328 9.5 20.797 9.5 20.3828Z" fill="#000000" />
</svg>