<svg width="24px"  height="24px"  viewBox="0 0 25 25" fill="none" xmlns="http://www.w3.org/2000/svg">
<path fill-rule="evenodd" clip-rule="evenodd" d="M12.4999 5.13281C10.3904 5.13281 8.67847 6.84298 8.67847 8.95424C8.67847 11.0635 10.3907 12.7757 12.4999 12.7757H16.3213V8.95424C16.3213 6.84274 14.6114 5.13281 12.4999 5.13281ZM17.8213 8.95424C17.8213 6.01431 15.4398 3.63281 12.4999 3.63281C9.5625 3.63281 7.17847 6.01407 7.17847 8.95424C7.17847 11.8919 9.56225 14.2757 12.4999 14.2757H16.3213V15.8114C16.3213 17.9208 14.6112 19.6328 12.4999 19.6328H9.25647C8.84226 19.6328 8.50647 19.9686 8.50647 20.3828C8.50647 20.797 8.84226 21.1328 9.25647 21.1328H12.4999C15.4401 21.1328 17.8213 18.7488 17.8213 15.8114V8.95424Z" fill="#000000" />
</svg>