<svg width="24px"  height="24px"  viewBox="0 0 25 25" fill="none" xmlns="http://www.w3.org/2000/svg">
<path fill-rule="evenodd" clip-rule="evenodd" d="M7.06348 4.38281C7.06348 3.9686 7.39926 3.63281 7.81348 3.63281H16.8208C17.235 3.63281 17.5708 3.9686 17.5708 4.38281C17.5708 4.79703 17.235 5.13281 16.8208 5.13281H8.56348V11.4126H13.0748C15.7585 11.4126 17.9364 13.5861 17.9364 16.2712C17.9364 18.9556 15.7592 21.1328 13.0748 21.1328H7.81348C7.39926 21.1328 7.06348 20.797 7.06348 20.3828C7.06348 19.9686 7.39926 19.6328 7.81348 19.6328H13.0748C14.9308 19.6328 16.4364 18.1272 16.4364 16.2712C16.4364 14.4159 14.9315 12.9126 13.0748 12.9126H7.81348C7.39926 12.9126 7.06348 12.5768 7.06348 12.1626V4.38281Z" fill="#000000" />
</svg>