<svg width="24px"  height="24px"  viewBox="0 0 25 25" fill="none" xmlns="http://www.w3.org/2000/svg">
<path fill-rule="evenodd" clip-rule="evenodd" d="M14.0478 7.66454C14.3648 7.75983 14.5819 8.05174 14.5819 8.38281V13.8109H15.25C15.6642 13.8109 16 14.1467 16 14.5609C16 14.9751 15.6642 15.3109 15.25 15.3109H14.5819V16.3828C14.5819 16.797 14.2461 17.1328 13.8319 17.1328C13.4177 17.1328 13.0819 16.797 13.0819 16.3828V15.3109H9.75C9.47396 15.3109 9.22023 15.1593 9.08948 14.9162C8.95872 14.6731 8.97208 14.3778 9.12425 14.1475L13.2062 7.96937C13.3887 7.69314 13.7307 7.56926 14.0478 7.66454ZM11.1444 13.8109H13.0819V10.8785L11.1444 13.8109Z" fill="#000000" />
<path fill-rule="evenodd" clip-rule="evenodd" d="M12.5 4.13281C7.94337 4.13281 4.25 7.82618 4.25 12.3828C4.25 16.9394 7.94337 20.6328 12.5 20.6328C17.0566 20.6328 20.75 16.9394 20.75 12.3828C20.75 7.82618 17.0566 4.13281 12.5 4.13281ZM2.75 12.3828C2.75 6.99776 7.11494 2.63281 12.5 2.63281C17.8851 2.63281 22.25 6.99776 22.25 12.3828C22.25 17.7679 17.8851 22.1328 12.5 22.1328C7.11494 22.1328 2.75 17.7679 2.75 12.3828Z" fill="#000000" />
</svg>