<svg width="24px"  height="24px"  viewBox="0 0 25 25" fill="none" xmlns="http://www.w3.org/2000/svg">
<path fill-rule="evenodd" clip-rule="evenodd" d="M14.8927 10.2734C15.3069 10.2734 15.6427 10.6092 15.6427 11.0234V13.2809C15.6427 15.4094 13.9173 17.1348 11.7888 17.1348H11.0596C10.6454 17.1348 10.3096 16.799 10.3096 16.3848C10.3096 15.9706 10.6454 15.6348 11.0596 15.6348H11.7888C13.0889 15.6348 14.1427 14.5809 14.1427 13.2809V11.0234C14.1427 10.6092 14.4785 10.2734 14.8927 10.2734Z" fill="#000000" />
<path fill-rule="evenodd" clip-rule="evenodd" d="M12.4992 9.13281C11.5919 9.13281 10.8564 9.86829 10.8564 10.7755C10.8564 11.6828 11.5919 12.4183 12.4992 12.4183C13.4064 12.4183 14.1419 11.6828 14.1419 10.7755C14.1419 9.86829 13.4064 9.13281 12.4992 9.13281ZM9.35645 10.7755C9.35645 9.03986 10.7635 7.63281 12.4992 7.63281C14.2349 7.63281 15.6419 9.03986 15.6419 10.7755C15.6419 12.5112 14.2349 13.9183 12.4992 13.9183C10.7635 13.9183 9.35645 12.5112 9.35645 10.7755Z" fill="#000000" />
<path fill-rule="evenodd" clip-rule="evenodd" d="M12.5 4.13281C7.94337 4.13281 4.25 7.82618 4.25 12.3828C4.25 16.9394 7.94337 20.6328 12.5 20.6328C17.0566 20.6328 20.75 16.9394 20.75 12.3828C20.75 7.82618 17.0566 4.13281 12.5 4.13281ZM2.75 12.3828C2.75 6.99776 7.11494 2.63281 12.5 2.63281C17.8851 2.63281 22.25 6.99776 22.25 12.3828C22.25 17.7679 17.8851 22.1328 12.5 22.1328C7.11494 22.1328 2.75 17.7679 2.75 12.3828Z" fill="#000000" />
</svg>