<svg width="24px"  height="24px"  viewBox="0 0 25 25" fill="none" xmlns="http://www.w3.org/2000/svg">
<path fill-rule="evenodd" clip-rule="evenodd" d="M17.2864 8.91013C17.7006 8.91013 18.0364 9.24591 18.0364 9.66013V14.1751C18.0364 18.0177 14.9213 21.1328 11.0787 21.1328H9.62012C9.2059 21.1328 8.87012 20.797 8.87012 20.3828C8.87012 19.9686 9.2059 19.6328 9.62012 19.6328H11.0787C14.0929 19.6328 16.5364 17.1893 16.5364 14.1751V9.66013C16.5364 9.24591 16.8722 8.91013 17.2864 8.91013Z" fill="#000000" />
<path fill-rule="evenodd" clip-rule="evenodd" d="M12.4993 5.13281C10.2706 5.13281 8.46387 6.93954 8.46387 9.16825C8.46387 11.397 10.2706 13.2037 12.4993 13.2037C14.728 13.2037 16.5347 11.397 16.5347 9.16825C16.5347 6.93954 14.728 5.13281 12.4993 5.13281ZM6.96387 9.16825C6.96387 6.11111 9.44217 3.63281 12.4993 3.63281C15.5564 3.63281 18.0347 6.11111 18.0347 9.16825C18.0347 12.2254 15.5564 14.7037 12.4993 14.7037C9.44217 14.7037 6.96387 12.2254 6.96387 9.16825Z" fill="#000000" />
</svg>