<svg width="24px"  height="24px"  viewBox="0 0 25 25" fill="none" xmlns="http://www.w3.org/2000/svg">
<path fill-rule="evenodd" clip-rule="evenodd" d="M5.90039 9.2971C5.90039 5.65382 8.81858 2.63281 12.5004 2.63281C16.1851 2.63281 19.1004 5.65468 19.1004 9.2971V15.4685C19.1004 19.108 16.1859 22.1328 12.5004 22.1328C8.81773 22.1328 5.90039 19.1089 5.90039 15.4685V9.2971ZM12.5004 4.13281C9.6707 4.13281 7.40039 6.45835 7.40039 9.2971V15.4685C7.40039 18.3049 9.67039 20.6328 12.5004 20.6328C15.3327 20.6328 17.6004 18.3046 17.6004 15.4685V9.2971C17.6004 6.45867 15.3324 4.13281 12.5004 4.13281Z" fill="#000000" />
<path fill-rule="evenodd" clip-rule="evenodd" d="M12.5 7.73438C11.707 7.73438 11 8.39929 11 9.29866V15.4701C11 16.3682 11.7078 17.0344 12.5 17.0344C13.2935 17.0344 14 16.369 14 15.4701V9.29866C14 8.39851 13.2942 7.73438 12.5 7.73438ZM9.5 9.29866C9.5 7.5875 10.8621 6.23438 12.5 6.23438C14.1396 6.23438 15.5 7.58709 15.5 9.29866V15.4701C15.5 17.18 14.1392 18.5344 12.5 18.5344C10.8625 18.5344 9.5 17.1796 9.5 15.4701V9.29866Z" fill="#000000" />
</svg>