<svg width="24px"  height="24px"  viewBox="0 0 25 25" fill="none" xmlns="http://www.w3.org/2000/svg">
<path fill-rule="evenodd" clip-rule="evenodd" d="M13.2328 4.17172C12.7791 4.04493 12.2966 4.23577 12.0523 4.63855C11.5328 5.4954 11.1217 6.06298 10.6594 6.53018C10.2012 6.9932 9.65512 7.39545 8.82604 7.87312C8.32359 8.16261 8.15094 8.80461 8.44043 9.30706C8.72992 9.80952 9.37192 9.98217 9.87438 9.69268C10.1829 9.5149 10.4676 9.3401 10.7335 9.16242C10.9636 9.00867 11.2597 8.99412 11.5037 9.12457C11.7478 9.25502 11.9002 9.50928 11.9002 9.78602V17.7829C11.9002 18.1971 11.5644 18.5329 11.1502 18.5329H10.2501C9.67023 18.5329 9.20014 19.0029 9.20014 19.5828C9.20014 20.1627 9.67023 20.6328 10.2501 20.6328H15.6501C16.2299 20.6328 16.7 20.1627 16.7 19.5828C16.7 19.0029 16.2299 18.5329 15.6501 18.5329H14.7501C14.3359 18.5329 14.0001 18.1971 14.0001 17.7829V5.18294C14.0001 4.7119 13.6864 4.29851 13.2328 4.17172ZM10.7697 3.86083C11.3628 2.88264 12.5348 2.41915 13.6366 2.72708C14.7383 3.03501 15.5001 4.03898 15.5001 5.18294V17.0329H15.6501C17.0584 17.0329 18.2 18.1745 18.2 19.5828C18.2 20.9911 17.0584 22.1328 15.6501 22.1328H10.2501C8.8418 22.1328 7.70014 20.9911 7.70014 19.5828C7.70014 18.1745 8.8418 17.0329 10.2501 17.0329H10.4002V11.1069C9.21894 11.6423 7.80159 11.203 7.14071 10.0559C6.43766 8.83562 6.85695 7.27645 8.07722 6.5734C8.83549 6.13653 9.26027 5.81154 9.59315 5.47513C9.93587 5.12877 10.2762 4.67472 10.7697 3.86083L11.2694 4.16382L10.7697 3.86083Z" fill="#000000" />
</svg>