<svg width="24px"  height="24px"  viewBox="0 0 25 25" fill="none" xmlns="http://www.w3.org/2000/svg">
<path fill-rule="evenodd" clip-rule="evenodd" d="M7.25 4.38281C7.25 3.9686 7.58579 3.63281 8 3.63281H17C17.2918 3.63281 17.5571 3.80207 17.6801 4.06669C17.8031 4.33131 17.7615 4.64325 17.5733 4.86633L13.2938 9.94084C15.8311 10.5652 17.7357 12.7744 17.7357 15.4498C17.7357 18.6206 15.0609 21.1328 11.8293 21.1328C10.2053 21.1328 8.73067 20.5019 7.65925 19.4769C7.35994 19.1906 7.34943 18.7158 7.63577 18.4165C7.92211 18.1172 8.39686 18.1067 8.69617 18.3931C9.49353 19.1559 10.5986 19.6328 11.8293 19.6328C14.2958 19.6328 16.2357 17.7303 16.2357 15.4498C16.2357 13.1688 14.2952 11.2641 11.8293 11.2641C11.5375 11.2641 11.2722 11.0948 11.1492 10.8302C11.0262 10.5656 11.0678 10.2537 11.256 10.0306L15.3864 5.13281H8C7.58579 5.13281 7.25 4.79703 7.25 4.38281Z" fill="#000000" />
</svg>