<svg width="24px"  height="24px"  viewBox="0 0 25 25" fill="none" xmlns="http://www.w3.org/2000/svg">
<path fill-rule="evenodd" clip-rule="evenodd" d="M8.89961 4.13281C8.31971 4.13281 7.84961 4.60291 7.84961 5.18281V11.8904C7.84961 12.9501 8.69747 13.8404 9.78155 13.8404H14.2997C14.7139 13.8404 15.0497 14.1762 15.0497 14.5904V19.5828C15.0497 20.1627 15.5198 20.6328 16.0997 20.6328C16.6796 20.6328 17.1497 20.1627 17.1497 19.5828V5.18281C17.1497 4.60291 16.6796 4.13281 16.0997 4.13281C15.5198 4.13281 15.0497 4.60291 15.0497 5.18281V10.9904C15.0497 11.4046 14.7139 11.7404 14.2997 11.7404H10.6996C10.2854 11.7404 9.94961 11.4046 9.94961 10.9904V5.18281C9.94961 4.60291 9.47951 4.13281 8.89961 4.13281ZM6.34961 5.18281C6.34961 3.77449 7.49128 2.63281 8.89961 2.63281C10.3079 2.63281 11.4496 3.77449 11.4496 5.18281V10.2404H13.5497V5.18281C13.5497 3.77449 14.6914 2.63281 16.0997 2.63281C17.508 2.63281 18.6497 3.77449 18.6497 5.18281V19.5828C18.6497 20.9911 17.508 22.1328 16.0997 22.1328C14.6914 22.1328 13.5497 20.9911 13.5497 19.5828V15.3404H9.78155C7.8348 15.3404 6.34961 13.7439 6.34961 11.8904V5.18281Z" fill="#000000" />
</svg>