<svg width="24px"  height="24px"  viewBox="0 0 25 25" fill="none" xmlns="http://www.w3.org/2000/svg">
<path fill-rule="evenodd" clip-rule="evenodd" d="M10.1073 14.4922C9.69307 14.4922 9.35729 14.1564 9.35729 13.7422V11.4847C9.35729 9.35626 11.0827 7.63082 13.2112 7.63082H13.9404C14.3546 7.63082 14.6904 7.96661 14.6904 8.38082C14.6904 8.79503 14.3546 9.13082 13.9404 9.13082H13.2112C11.9111 9.13082 10.8573 10.1847 10.8573 11.4847V13.7422C10.8573 14.1564 10.5215 14.4922 10.1073 14.4922Z" fill="#000000" />
<path fill-rule="evenodd" clip-rule="evenodd" d="M12.5008 15.6328C13.4081 15.6328 14.1436 14.8973 14.1436 13.9901C14.1436 13.0828 13.4081 12.3474 12.5008 12.3474C11.5936 12.3474 10.8581 13.0828 10.8581 13.9901C10.8581 14.8973 11.5936 15.6328 12.5008 15.6328ZM15.6436 13.9901C15.6436 15.7258 14.2365 17.1328 12.5008 17.1328C10.7651 17.1328 9.35809 15.7258 9.35809 13.9901C9.35809 12.2544 10.7651 10.8474 12.5008 10.8474C14.2365 10.8474 15.6436 12.2544 15.6436 13.9901Z" fill="#000000" />
<path fill-rule="evenodd" clip-rule="evenodd" d="M12.5 4.13281C7.94337 4.13281 4.25 7.82618 4.25 12.3828C4.25 16.9394 7.94337 20.6328 12.5 20.6328C17.0566 20.6328 20.75 16.9394 20.75 12.3828C20.75 7.82618 17.0566 4.13281 12.5 4.13281ZM2.75 12.3828C2.75 6.99776 7.11494 2.63281 12.5 2.63281C17.8851 2.63281 22.25 6.99776 22.25 12.3828C22.25 17.7679 17.8851 22.1328 12.5 22.1328C7.11494 22.1328 2.75 17.7679 2.75 12.3828Z" fill="#000000" />
</svg>