<svg width="24px"  height="24px"  viewBox="0 0 25 25" fill="none" xmlns="http://www.w3.org/2000/svg">
<path fill-rule="evenodd" clip-rule="evenodd" d="M10.5392 8.24607C10.605 7.89063 10.9151 7.63277 11.2766 7.63277H14.4105C14.8247 7.63277 15.1605 7.96855 15.1605 8.38277C15.1605 8.79698 14.8247 9.13277 14.4105 9.13277H11.9003L11.6065 10.7178C11.8626 10.6666 12.1164 10.6405 12.3503 10.6405C14.1508 10.6405 15.6249 12.0858 15.6249 13.8866C15.6249 15.6874 14.1508 17.1328 12.3503 17.1328C11.1049 17.1328 10.0193 16.4428 9.46593 15.4246C9.26814 15.0607 9.40282 14.6053 9.76676 14.4075C10.1307 14.2097 10.5861 14.3444 10.7839 14.7084C11.0822 15.2574 11.6703 15.6328 12.3503 15.6328C13.3384 15.6328 14.1249 14.843 14.1249 13.8866C14.1249 12.9302 13.3384 12.1405 12.3503 12.1405C11.8967 12.1405 11.3453 12.3134 11.0759 12.5195C10.8294 12.7081 10.4923 12.7254 10.2278 12.5631C9.96338 12.4007 9.8262 12.0923 9.88275 11.7872L10.5392 8.24607Z" fill="#000000" />
<path fill-rule="evenodd" clip-rule="evenodd" d="M4.24079 4.2797C5.22556 3.22365 6.62779 2.63281 8.28313 2.63281H16.7178C18.3771 2.63281 19.7795 3.22336 20.7634 4.28014C21.7416 5.33086 22.25 6.78137 22.25 8.40919V16.3564C22.25 17.9838 21.7416 19.4343 20.7633 20.4851C19.7793 21.542 18.3766 22.1328 16.7169 22.1328H8.28313C6.62379 22.1328 5.22117 21.542 4.23714 20.4852C3.25872 19.4344 2.75 17.9839 2.75 16.3564V8.40919C2.75 6.78033 3.26145 5.32993 4.24079 4.2797ZM5.33783 5.30269C4.66045 6.0291 4.25 7.09189 4.25 8.40919V16.3564C4.25 17.6741 4.65879 18.7368 5.33492 19.463C6.00542 20.1831 6.99437 20.6328 8.28313 20.6328H16.7169C18.0062 20.6328 18.9951 20.183 19.6654 19.463C20.3414 18.7369 20.75 17.6742 20.75 16.3564V8.40919C20.75 7.09085 20.3414 6.02817 19.6655 5.30224C18.9953 4.58238 18.0067 4.13281 16.7178 4.13281H8.28313C6.99913 4.13281 6.00979 4.58208 5.33783 5.30269Z" fill="#000000" />
</svg>