<svg width="24px"  height="24px"  viewBox="0 0 25 25" fill="none" xmlns="http://www.w3.org/2000/svg">
<path fill-rule="evenodd" clip-rule="evenodd" d="M4.24079 4.2797C5.22556 3.22365 6.62779 2.63281 8.28313 2.63281H16.7178C18.3771 2.63281 19.7795 3.22336 20.7634 4.28014C21.7416 5.33086 22.25 6.78137 22.25 8.40919V16.3564C22.25 17.9838 21.7416 19.4343 20.7633 20.4851C19.7793 21.542 18.3766 22.1328 16.7169 22.1328H8.28313C6.62379 22.1328 5.22117 21.542 4.23714 20.4852C3.25872 19.4344 2.75 17.9839 2.75 16.3564V8.40919C2.75 6.78033 3.26145 5.32993 4.24079 4.2797ZM5.33783 5.30269C4.66045 6.0291 4.25 7.09189 4.25 8.40919V16.3564C4.25 17.6741 4.65879 18.7368 5.33492 19.463C6.00542 20.1831 6.99437 20.6328 8.28313 20.6328H16.7169C18.0062 20.6328 18.9951 20.183 19.6654 19.463C20.3414 18.7369 20.75 17.6742 20.75 16.3564V8.40919C20.75 7.09085 20.3414 6.02817 19.6655 5.30224C18.9953 4.58238 18.0067 4.13281 16.7178 4.13281H8.28313C6.99913 4.13281 6.00979 4.58208 5.33783 5.30269Z" fill="#000000" />
<path fill-rule="evenodd" clip-rule="evenodd" d="M10.1073 14.4922C9.69307 14.4922 9.35729 14.1564 9.35729 13.7422V11.4847C9.35729 9.35626 11.0827 7.63082 13.2112 7.63082H13.9404C14.3546 7.63082 14.6904 7.96661 14.6904 8.38082C14.6904 8.79503 14.3546 9.13082 13.9404 9.13082H13.2112C11.9111 9.13082 10.8573 10.1847 10.8573 11.4847V13.7422C10.8573 14.1564 10.5215 14.4922 10.1073 14.4922Z" fill="#000000" />
<path fill-rule="evenodd" clip-rule="evenodd" d="M12.5008 15.6328C13.4081 15.6328 14.1436 14.8973 14.1436 13.9901C14.1436 13.0828 13.4081 12.3474 12.5008 12.3474C11.5936 12.3474 10.8581 13.0828 10.8581 13.9901C10.8581 14.8973 11.5936 15.6328 12.5008 15.6328ZM15.6436 13.9901C15.6436 15.7258 14.2365 17.1328 12.5008 17.1328C10.7651 17.1328 9.35809 15.7258 9.35809 13.9901C9.35809 12.2544 10.7651 10.8474 12.5008 10.8474C14.2365 10.8474 15.6436 12.2544 15.6436 13.9901Z" fill="#000000" />
</svg>