<svg width="24px"  height="24px"  viewBox="0 0 25 25" fill="none" xmlns="http://www.w3.org/2000/svg">
<path fill-rule="evenodd" clip-rule="evenodd" d="M9.5 8.38281C9.5 7.9686 9.83579 7.63281 10.25 7.63281H14.75C15.0418 7.63281 15.3071 7.80207 15.4301 8.06669C15.5531 8.33131 15.5115 8.64325 15.3233 8.86633L13.5368 10.9848C14.6802 11.4858 15.4928 12.595 15.4928 13.9163C15.4928 15.7243 13.9717 17.1328 12.1646 17.1328C11.2543 17.1328 10.4246 16.7789 9.82039 16.2008C9.52109 15.9145 9.51058 15.4397 9.79691 15.1404C10.0833 14.8411 10.558 14.8306 10.8573 15.117C11.1875 15.4328 11.6476 15.6328 12.1646 15.6328C13.2066 15.6328 13.9928 14.834 13.9928 13.9163C13.9928 12.9981 13.2061 12.1985 12.1646 12.1985C11.8728 12.1985 11.6075 12.0292 11.4845 11.7646C11.3615 11.5 11.4032 11.188 11.5913 10.9649L13.1364 9.13281H10.25C9.83579 9.13281 9.5 8.79703 9.5 8.38281Z" fill="#000000" />
<path fill-rule="evenodd" clip-rule="evenodd" d="M12.5 4.13281C7.94337 4.13281 4.25 7.82618 4.25 12.3828C4.25 16.9394 7.94337 20.6328 12.5 20.6328C17.0566 20.6328 20.75 16.9394 20.75 12.3828C20.75 7.82618 17.0566 4.13281 12.5 4.13281ZM2.75 12.3828C2.75 6.99776 7.11494 2.63281 12.5 2.63281C17.8851 2.63281 22.25 6.99776 22.25 12.3828C22.25 17.7679 17.8851 22.1328 12.5 22.1328C7.11494 22.1328 2.75 17.7679 2.75 12.3828Z" fill="#000000" />
</svg>