<svg width="24px"  height="24px"  viewBox="0 0 25 25" fill="none" xmlns="http://www.w3.org/2000/svg">
<path fill-rule="evenodd" clip-rule="evenodd" d="M12.5001 5.13281C10.5463 5.13281 8.95996 6.71915 8.95996 8.6729C8.95996 9.08712 8.62417 9.4229 8.20996 9.4229C7.79575 9.4229 7.45996 9.08712 7.45996 8.6729C7.45996 5.89072 9.71787 3.63281 12.5001 3.63281C15.2822 3.63281 17.5401 5.89072 17.5401 8.6729C17.5401 10.0937 17.1572 11.104 16.5884 12.0775C15.6956 13.6054 14.251 15.0975 13.0104 16.3788C12.6996 16.6998 12.4016 17.0076 12.1283 17.2994L9.94291 19.6328H16.7901C17.2044 19.6328 17.5401 19.9686 17.5401 20.3828C17.5401 20.797 17.2044 21.1328 16.7901 21.1328H8.21291C7.91403 21.1328 7.64368 20.9554 7.5248 20.6811C7.40591 20.4069 7.4612 20.0883 7.66551 19.8701L11.0335 16.274C11.3472 15.939 11.6741 15.6009 12.0039 15.2596C13.2321 13.9889 14.5019 12.675 15.2933 11.3207C15.76 10.522 16.0401 9.77067 16.0401 8.6729C16.0401 6.71915 14.4538 5.13281 12.5001 5.13281Z" fill="#000000" />
</svg>