<svg width="24px"  height="24px"  viewBox="0 0 25 25" fill="none" xmlns="http://www.w3.org/2000/svg">
<path fill-rule="evenodd" clip-rule="evenodd" d="M4.24079 4.43985C5.22556 3.38381 6.62779 2.79297 8.28313 2.79297H16.7178C18.3771 2.79297 19.7795 3.38351 20.7634 4.44029C21.7416 5.49102 22.25 6.94153 22.25 8.56935V16.5166C22.25 18.144 21.7416 19.5945 20.7633 20.6453C19.7793 21.7022 18.3766 22.293 16.7169 22.293H8.28313C6.62379 22.293 5.22117 21.7021 4.23714 20.6453C3.25872 19.5946 2.75 18.1441 2.75 16.5166V8.56935C2.75 6.94048 3.26145 5.49009 4.24079 4.43985ZM5.33783 5.46284C4.66045 6.18926 4.25 7.25205 4.25 8.56935V16.5166C4.25 17.8343 4.65879 18.897 5.33492 19.6231C6.00542 20.3432 6.99437 20.793 8.28313 20.793H16.7169C18.0062 20.793 18.9951 20.3432 19.6654 19.6232C20.3414 18.8971 20.75 17.8344 20.75 16.5166V8.56935C20.75 7.25101 20.3414 6.18832 19.6655 5.4624C18.9953 4.74253 18.0067 4.29297 16.7178 4.29297H8.28313C6.99913 4.29297 6.00979 4.74224 5.33783 5.46284Z" fill="#000000" />
<path fill-rule="evenodd" clip-rule="evenodd" d="M12.5003 9.29297C11.8891 9.29297 11.3936 9.78848 11.3936 10.3997C11.3936 11.011 11.8891 11.5065 12.5003 11.5065C13.1116 11.5065 13.6071 11.011 13.6071 10.3997C13.6071 9.78848 13.1116 9.29297 12.5003 9.29297ZM9.89355 10.3997C9.89355 8.96005 11.0606 7.79297 12.5003 7.79297C13.94 7.79297 15.1071 8.96005 15.1071 10.3997C15.1071 11.8394 13.94 13.0065 12.5003 13.0065C11.0606 13.0065 9.89355 11.8394 9.89355 10.3997Z" fill="#000000" />
<path fill-rule="evenodd" clip-rule="evenodd" d="M12.4997 13.0078C11.7302 13.0078 11.1064 13.6316 11.1064 14.4011C11.1064 15.1705 11.7302 15.7943 12.4997 15.7943C13.2692 15.7943 13.8929 15.1705 13.8929 14.4011C13.8929 13.6316 13.2692 13.0078 12.4997 13.0078ZM9.60645 14.4011C9.60645 12.8032 10.9018 11.5078 12.4997 11.5078C14.0976 11.5078 15.3929 12.8032 15.3929 14.4011C15.3929 15.999 14.0976 17.2943 12.4997 17.2943C10.9018 17.2943 9.60645 15.999 9.60645 14.4011Z" fill="#000000" />
</svg>