<svg width="24px"  height="24px"  viewBox="0 0 25 25" fill="none" xmlns="http://www.w3.org/2000/svg">
<path fill-rule="evenodd" clip-rule="evenodd" d="M5.4502 5.18281C5.4502 3.77449 6.59187 2.63281 8.0002 2.63281H17.0002C17.8774 2.63281 18.6931 3.08372 19.1596 3.8266C19.6262 4.56948 19.6782 5.50001 19.2972 6.29021C16.7358 11.6032 15.6376 14.3971 15.1068 19.8307C14.9699 21.2324 13.7227 22.2577 12.321 22.1207C10.9194 21.9838 9.89408 20.7366 10.031 19.3349C10.498 14.5534 11.4042 11.4347 13.0103 7.73282H10.5502V8.68897C10.5502 10.0973 9.40852 11.239 8.0002 11.239C6.59187 11.239 5.4502 10.0973 5.4502 8.68897V5.18281ZM8.0002 4.13281C7.4203 4.13281 6.9502 4.60291 6.9502 5.18281V8.68897C6.9502 9.26887 7.4203 9.73897 8.0002 9.73897C8.5801 9.73897 9.0502 9.26887 9.0502 8.68897V6.98282C9.0502 6.5686 9.38598 6.23282 9.8002 6.23282H14.1643C14.4192 6.23282 14.6567 6.36233 14.7948 6.57666C14.9329 6.79099 14.9526 7.06078 14.8472 7.29292C13.0007 11.3591 12.0163 14.4398 11.5239 19.4807C11.4675 20.0579 11.8897 20.5715 12.4668 20.6279C13.044 20.6842 13.5576 20.2621 13.6139 19.6849C14.1688 14.0042 15.347 11.0297 17.946 5.6388C18.1029 5.31343 18.0815 4.93026 17.8894 4.62437C17.6973 4.31848 17.3614 4.13281 17.0002 4.13281H8.0002Z" fill="#000000" />
</svg>