<svg width="24px"  height="24px"  viewBox="0 0 25 25" fill="none" xmlns="http://www.w3.org/2000/svg">
<path fill-rule="evenodd" clip-rule="evenodd" d="M5.83594 9.2971C5.83594 5.61478 8.82166 2.63281 12.5002 2.63281C16.1817 2.63281 19.1645 5.61563 19.1645 9.2971V15.4685C19.1645 19.1471 16.1825 22.1328 12.5002 22.1328H9.58114C8.17281 22.1328 7.03114 20.9911 7.03114 19.5828C7.03114 18.1745 8.17281 17.0328 9.58114 17.0328H12.5002C13.192 17.0328 13.7788 16.5836 13.9852 15.9614H12.5002C8.82081 15.9614 5.83594 12.9765 5.83594 9.2971ZM12.5002 4.13281C9.64956 4.13281 7.33594 6.44374 7.33594 9.2971C7.33594 12.1481 9.64924 14.4614 12.5002 14.4614H14.8145C15.2287 14.4614 15.5645 14.7972 15.5645 15.2114V15.4685C15.5645 17.1601 14.1931 18.5328 12.5002 18.5328H9.58114C9.00124 18.5328 8.53114 19.0029 8.53114 19.5828C8.53114 20.1627 9.00124 20.6328 9.58114 20.6328H12.5002C15.3536 20.6328 17.6645 18.3192 17.6645 15.4685V9.2971C17.6645 6.44406 15.3533 4.13281 12.5002 4.13281Z" fill="#000000" />
<path fill-rule="evenodd" clip-rule="evenodd" d="M12.4998 7.73438C11.6363 7.73438 10.9355 8.43462 10.9355 9.29866C10.9355 10.1614 11.6371 10.8629 12.4998 10.8629H14.0641V9.29866C14.0641 8.43384 13.3646 7.73438 12.4998 7.73438ZM9.43555 9.29866C9.43555 7.60582 10.8082 6.23438 12.4998 6.23438C14.1931 6.23438 15.5641 7.60542 15.5641 9.29866V11.6129C15.5641 12.0272 15.2283 12.3629 14.8141 12.3629H12.4998C10.8086 12.3629 9.43555 10.9898 9.43555 9.29866Z" fill="#000000" />
</svg>