<svg width="24px"  height="24px"  viewBox="0 0 25 25" fill="none" xmlns="http://www.w3.org/2000/svg">
<path fill-rule="evenodd" clip-rule="evenodd" d="M4.24079 4.2797C5.22556 3.22365 6.62779 2.63281 8.28313 2.63281H16.7178C18.3771 2.63281 19.7795 3.22336 20.7634 4.28014C21.7416 5.33086 22.25 6.78137 22.25 8.40919V16.3564C22.25 17.9838 21.7416 19.4343 20.7633 20.4851C19.7793 21.542 18.3766 22.1328 16.7169 22.1328H8.28313C6.62379 22.1328 5.22117 21.542 4.23714 20.4852C3.25872 19.4344 2.75 17.9839 2.75 16.3564V8.40919C2.75 6.78033 3.26145 5.32993 4.24079 4.2797ZM5.33783 5.30269C4.66045 6.0291 4.25 7.09189 4.25 8.40919V16.3564C4.25 17.6741 4.65879 18.7368 5.33492 19.463C6.00542 20.1831 6.99437 20.6328 8.28313 20.6328H16.7169C18.0062 20.6328 18.9951 20.183 19.6654 19.463C20.3414 18.7369 20.75 17.6742 20.75 16.3564V8.40919C20.75 7.09085 20.3414 6.02817 19.6655 5.30224C18.9953 4.58238 18.0067 4.13281 16.7178 4.13281H8.28313C6.99913 4.13281 6.00979 4.58208 5.33783 5.30269Z" fill="#000000" />
<path fill-rule="evenodd" clip-rule="evenodd" d="M9.5 8.38281C9.5 7.9686 9.83579 7.63281 10.25 7.63281H14.75C15.0418 7.63281 15.3071 7.80207 15.4301 8.06669C15.5531 8.33131 15.5115 8.64325 15.3233 8.86633L13.5368 10.9848C14.6802 11.4858 15.4928 12.595 15.4928 13.9163C15.4928 15.7243 13.9717 17.1328 12.1646 17.1328C11.2543 17.1328 10.4246 16.7789 9.82039 16.2008C9.52109 15.9145 9.51058 15.4397 9.79691 15.1404C10.0833 14.8411 10.558 14.8306 10.8573 15.117C11.1875 15.4328 11.6476 15.6328 12.1646 15.6328C13.2066 15.6328 13.9928 14.834 13.9928 13.9163C13.9928 12.9981 13.2061 12.1985 12.1646 12.1985C11.8728 12.1985 11.6075 12.0292 11.4845 11.7646C11.3615 11.5 11.4032 11.188 11.5913 10.9649L13.1364 9.13281H10.25C9.83579 9.13281 9.5 8.79703 9.5 8.38281Z" fill="#000000" />
</svg>