<svg width="24px"  height="24px"  viewBox="0 0 25 25" fill="none" xmlns="http://www.w3.org/2000/svg">
<path fill-rule="evenodd" clip-rule="evenodd" d="M12.7698 3.77725C13.3903 2.83809 14.5532 2.41688 15.6313 2.74085C16.7093 3.06481 17.4473 4.0573 17.4473 5.18294V13.7534H17.4499C18.8582 13.7534 19.9999 14.8951 19.9999 16.3034C19.9999 17.7117 18.8582 18.8534 17.4499 18.8534H17.4473V19.5828C17.4473 20.9911 16.3057 22.1328 14.8974 22.1328C13.489 22.1328 12.3474 20.9911 12.3474 19.5828V18.8534H7.54999C6.61146 18.8534 5.74879 18.3378 5.30423 17.5113C4.85966 16.6847 4.90507 15.6808 5.42244 14.8977L12.7698 3.77725ZM15.1995 4.17738C14.7557 4.04399 14.2768 4.21742 14.0213 4.60413L6.67395 15.7246C6.46091 16.047 6.44222 16.4604 6.62527 16.8008C6.80833 17.1411 7.16354 17.3534 7.54999 17.3534H13.0974C13.5116 17.3534 13.8474 17.6892 13.8474 18.1034V19.5828C13.8474 20.1627 14.3175 20.6328 14.8974 20.6328C15.4773 20.6328 15.9473 20.1627 15.9473 19.5828V18.1034C15.9473 17.6892 16.2831 17.3534 16.6973 17.3534H17.4499C18.0298 17.3534 18.4999 16.8833 18.4999 16.3034C18.4999 15.7235 18.0298 15.2534 17.4499 15.2534H16.6973C16.2831 15.2534 15.9473 14.9176 15.9473 14.5034V5.18294C15.9473 4.71944 15.6434 4.31078 15.1995 4.17738Z" fill="#000000" />
<path fill-rule="evenodd" clip-rule="evenodd" d="M13.3131 10.4536C13.6301 10.5489 13.8472 10.8408 13.8472 11.1719V14.5028C13.8472 14.917 13.5114 15.2528 13.0972 15.2528H10.8965C10.6204 15.2528 10.3667 15.1011 10.236 14.858C10.1052 14.6149 10.1186 14.3196 10.2707 14.0893L12.4715 10.7584C12.654 10.4822 12.996 10.3583 13.3131 10.4536ZM12.2909 13.7528H12.3472V13.6676L12.2909 13.7528Z" fill="#000000" />
</svg>