<svg width="24px"  height="24px"  viewBox="0 0 25 25" fill="none" xmlns="http://www.w3.org/2000/svg">
<path fill-rule="evenodd" clip-rule="evenodd" d="M7.41409 6.04148C8.3517 4.37462 10.0485 2.63281 12.5004 2.63281C14.9523 2.63281 16.6491 4.37462 17.5867 6.04148C18.5716 7.79246 19.1004 10.0397 19.1004 12.3828C19.1004 14.726 18.5716 16.9732 17.5867 18.7241C16.6491 20.391 14.9523 22.1328 12.5004 22.1328C10.0484 22.1328 8.3517 20.391 7.41409 18.7241C6.42916 16.9732 5.90039 14.726 5.90039 12.3828C5.90039 10.0397 6.42916 7.79246 7.41409 6.04148ZM12.5004 4.13281C10.8374 4.13281 9.54194 5.31823 8.72145 6.77687C7.88482 8.26422 7.40039 10.2483 7.40039 12.3828C7.40039 14.5173 7.88482 16.5014 8.72145 17.9888C9.54194 19.4474 10.8374 20.6328 12.5004 20.6328C14.1634 20.6328 15.4588 19.4474 16.2793 17.9888C17.116 16.5014 17.6004 14.5173 17.6004 12.3828C17.6004 10.2483 17.116 8.26422 16.2793 6.77687C15.4588 5.31823 14.1634 4.13281 12.5004 4.13281Z" fill="#000000" />
<path fill-rule="evenodd" clip-rule="evenodd" d="M12.5 7.75989C12.3945 7.82249 12.1592 8.0092 11.8587 8.54337C11.3778 9.39842 11 10.7513 11 12.3844C11 14.0175 11.3778 15.3703 11.8587 16.2254C12.1592 16.7595 12.3945 16.9463 12.5 17.0089C12.6055 16.9463 12.8408 16.7595 13.1413 16.2254C13.6222 15.3703 14 14.0175 14 12.3844C14 10.7513 13.6222 9.39842 13.1413 8.54337C12.8408 8.0092 12.6055 7.82249 12.5 7.75989ZM10.5514 7.80798C11.2066 6.64312 11.94 6.23438 12.5 6.23438C13.06 6.23438 13.7934 6.64312 14.4486 7.80798C15.0777 8.92638 15.5 10.5422 15.5 12.3844C15.5 14.2265 15.0777 15.8424 14.4486 16.9608C13.7934 18.1256 13.06 18.5344 12.5 18.5344C11.94 18.5344 11.2066 18.1256 10.5514 16.9608C9.92227 15.8424 9.5 14.2265 9.5 12.3844C9.5 10.5422 9.92227 8.92638 10.5514 7.80798Z" fill="#000000" />
</svg>