<svg width="24px"  height="24px"  viewBox="0 0 25 25" fill="none" xmlns="http://www.w3.org/2000/svg">
<path fill-rule="evenodd" clip-rule="evenodd" d="M9.40625 8.38281C9.40625 7.9686 9.74204 7.63281 10.1562 7.63281H14.6599C15.0741 7.63281 15.4099 7.9686 15.4099 8.38281C15.4099 8.79703 15.0741 9.13281 14.6599 9.13281H10.9062V11.5227H12.7869C14.3355 11.5227 15.5927 12.777 15.5927 14.327C15.5927 15.8763 14.3362 17.1328 12.7869 17.1328H10.1562C9.74204 17.1328 9.40625 16.797 9.40625 16.3828C9.40625 15.9686 9.74204 15.6328 10.1562 15.6328H12.7869C13.5078 15.6328 14.0927 15.0479 14.0927 14.327C14.0927 13.6068 13.5085 13.0227 12.7869 13.0227H10.1562C9.74204 13.0227 9.40625 12.6869 9.40625 12.2727V8.38281Z" fill="#000000" />
<path fill-rule="evenodd" clip-rule="evenodd" d="M12.5 4.13281C7.94337 4.13281 4.25 7.82618 4.25 12.3828C4.25 16.9394 7.94337 20.6328 12.5 20.6328C17.0566 20.6328 20.75 16.9394 20.75 12.3828C20.75 7.82618 17.0566 4.13281 12.5 4.13281ZM2.75 12.3828C2.75 6.99776 7.11494 2.63281 12.5 2.63281C17.8851 2.63281 22.25 6.99776 22.25 12.3828C22.25 17.7679 17.8851 22.1328 12.5 22.1328C7.11494 22.1328 2.75 17.7679 2.75 12.3828Z" fill="#000000" />
</svg>