<svg width="24px"  height="24px"  viewBox="0 0 24 24" fill="none" xmlns="http://www.w3.org/2000/svg">
<path d="M10.307 14.4371C10.1587 14.4372 10.0137 14.3933 9.89029 14.3109C9.76692 14.2286 9.67076 14.1115 9.61392 13.9745C9.55709 13.8375 9.5421 13.6867 9.57095 13.5412C9.59981 13.3957 9.67115 13.2621 9.77597 13.1571L12.812 10.1211C12.9527 9.98041 13.1435 9.90137 13.3425 9.90137C13.5415 9.90137 13.7323 9.98041 13.873 10.1211C14.0137 10.2618 14.0927 10.4526 14.0927 10.6516C14.0927 10.8506 14.0137 11.0414 13.873 11.1821L10.837 14.2181C10.7674 14.2876 10.6847 14.3428 10.5938 14.3803C10.5028 14.4179 10.4054 14.4372 10.307 14.4371Z" fill="#000000" />
<path d="M20.6065 10.6938C20.4076 10.6937 20.217 10.6145 20.0764 10.4738L13.5175 3.91485C13.3808 3.77346 13.3051 3.58404 13.3067 3.38739C13.3083 3.19074 13.3871 3.0026 13.5261 2.86347C13.6651 2.72435 13.8532 2.64539 14.0498 2.64359C14.2465 2.64179 14.436 2.71729 14.5775 2.85385L21.1375 9.41285C21.2421 9.51793 21.3134 9.65165 21.3421 9.79715C21.3709 9.94265 21.356 10.0934 21.2992 10.2304C21.2424 10.3674 21.1462 10.4846 21.023 10.567C20.8997 10.6495 20.7548 10.6936 20.6065 10.6938Z" fill="#000000" />
<path d="M9.87631 21.4266C9.7778 21.4269 9.68024 21.4075 9.58926 21.3698C9.49828 21.332 9.41566 21.2765 9.34628 21.2066L2.78732 14.6476C2.71572 14.5784 2.65861 14.4956 2.61935 14.4041C2.58009 14.3126 2.55944 14.2141 2.55862 14.1146C2.5578 14.015 2.57683 13.9162 2.61459 13.8241C2.65234 13.7319 2.70808 13.6482 2.77853 13.5778C2.84898 13.5074 2.93274 13.4518 3.02493 13.4141C3.11712 13.3764 3.21587 13.3575 3.31545 13.3584C3.41504 13.3593 3.51346 13.3801 3.60494 13.4194C3.69643 13.4588 3.77914 13.516 3.84829 13.5876L10.4063 20.1466C10.511 20.2515 10.5823 20.3851 10.6112 20.5305C10.6401 20.6759 10.6253 20.8266 10.5686 20.9635C10.5119 21.1005 10.4158 21.2176 10.2926 21.3C10.1694 21.3824 10.0245 21.4265 9.87631 21.4266Z" fill="#000000" />
<path d="M7.15588 21.7438C5.80297 21.84 4.46548 21.4076 3.42486 20.5378C2.30686 19.4108 2.18385 17.5108 2.27685 16.1148C2.52834 12.5336 4.06184 9.16294 6.5963 6.62039C9.13077 4.07784 12.4965 2.53366 16.0769 2.27076C17.4869 2.17076 19.4098 2.29576 20.5528 3.43876C21.6958 4.58176 21.8179 6.50076 21.7209 7.90976C21.4612 11.4929 19.9177 14.8621 17.374 17.399C14.8302 19.9358 11.4567 21.4699 7.87286 21.7198C7.64686 21.7348 7.40488 21.7438 7.15588 21.7438ZM16.8309 3.74376C16.6229 3.74376 16.4069 3.75176 16.1849 3.76676C12.9651 4.0024 9.93809 5.3904 7.6585 7.67642C5.37891 9.96243 3.99945 12.9934 3.77288 16.2138C3.56956 17.3546 3.82706 18.5295 4.48888 19.4808C4.95971 19.8172 5.49302 20.0561 6.05749 20.1835C6.62195 20.311 7.20618 20.3243 7.77587 20.2228C10.9983 19.9982 14.0317 18.6189 16.319 16.3379C18.6064 14.057 19.9943 11.0276 20.2279 7.80576C20.3313 7.23348 20.3197 6.64633 20.1939 6.07855C20.0681 5.51078 19.8304 4.97374 19.4949 4.49876C18.7312 3.92552 17.7818 3.65644 16.8309 3.74376Z" fill="#000000" />
</svg>