<svg width="24px"  height="24px"  viewBox="0 0 25 24" fill="none" xmlns="http://www.w3.org/2000/svg">
<path d="M10.7317 21.5594C10.107 21.5878 9.48295 21.4915 8.89591 21.276C8.30887 21.0605 7.77068 20.7302 7.31275 20.3043C6.86923 19.8263 6.52575 19.2643 6.3025 18.6516C6.07925 18.0389 5.98072 17.3877 6.01274 16.7364V9.49635C6.01274 6.51635 7.82774 4.66536 10.7507 4.66536H14.0647C14.7113 4.6141 15.3613 4.70406 15.9696 4.929C16.5779 5.15394 17.13 5.50848 17.5877 5.96805C18.0453 6.42761 18.3976 6.9812 18.62 7.59045C18.8424 8.1997 18.9297 8.85002 18.8757 9.49635V10.1963C18.8757 10.3953 18.7967 10.586 18.6561 10.7267C18.5154 10.8673 18.3247 10.9463 18.1257 10.9463C17.9268 10.9463 17.7361 10.8673 17.5954 10.7267C17.4548 10.586 17.3757 10.3953 17.3757 10.1963V9.49635C17.4283 9.04797 17.379 8.5935 17.2315 8.16682C17.084 7.74014 16.8421 7.35226 16.5238 7.03207C16.2056 6.71189 15.8192 6.46765 15.3934 6.31758C14.9676 6.16751 14.5134 6.11549 14.0647 6.16536H10.7547C8.07874 6.16536 7.51673 7.97635 7.51673 9.49635V16.7364C7.48747 17.1899 7.54813 17.6448 7.6952 18.0749C7.84227 18.5049 8.07285 18.9017 8.37373 19.2424C8.69308 19.5291 9.06657 19.7491 9.47221 19.8894C9.87784 20.0298 10.3074 20.0875 10.7357 20.0594H11.8357C12.0346 20.0594 12.2254 20.1384 12.3661 20.279C12.5067 20.4197 12.5857 20.6104 12.5857 20.8094C12.5857 21.0083 12.5067 21.199 12.3661 21.3397C12.2254 21.4803 12.0346 21.5594 11.8357 21.5594H10.7357H10.7317Z" fill="#000000" />
<path d="M15.3548 6.317C15.1559 6.317 14.9651 6.23799 14.8245 6.09734C14.6838 5.95668 14.6048 5.76591 14.6048 5.567V4.77501C14.6048 4.17501 14.5048 3.75 13.2768 3.75H11.5868C10.3868 3.75 10.2998 4.17501 10.2998 4.77501V5.55901C10.2998 5.75792 10.2208 5.94869 10.0801 6.08934C9.93946 6.22999 9.74872 6.30901 9.5498 6.30901C9.35089 6.30901 9.16012 6.22999 9.01947 6.08934C8.87882 5.94869 8.7998 5.75792 8.7998 5.55901V4.77501C8.7998 3.62301 9.28279 2.25 11.5868 2.25H13.2768C15.6138 2.25 16.1048 3.62301 16.1048 4.77501V5.567C16.1048 5.76591 16.0258 5.95668 15.8851 6.09734C15.7445 6.23799 15.5537 6.317 15.3548 6.317Z" fill="#000000" />
<path d="M15.8751 19.5941C15.3661 19.5954 14.8618 19.4963 14.3911 19.3024C13.9204 19.1085 13.4926 18.8236 13.1322 18.4641C12.7717 18.1046 12.4858 17.6776 12.2907 17.2074C12.0956 16.7372 11.9951 16.2331 11.9951 15.7241V14.6471C11.9956 14.2648 12.1477 13.8983 12.4181 13.628C12.6884 13.3577 13.0549 13.2056 13.4371 13.2051H18.2931C18.6754 13.2056 19.0419 13.3577 19.3122 13.628C19.5825 13.8983 19.7346 14.2648 19.7351 14.6471V15.5901C19.7453 16.5678 19.3948 17.515 18.7506 18.2505C18.1064 18.986 17.2137 19.4583 16.2431 19.5771C16.1211 19.5881 15.9981 19.5941 15.8751 19.5941ZM18.2351 14.6471L13.4351 14.7051L13.4931 15.7241C13.4935 16.0544 13.5629 16.381 13.6967 16.683C13.8304 16.985 14.0258 17.2558 14.2701 17.4781C14.5147 17.7028 14.8042 17.8729 15.1196 17.9772C15.4349 18.0816 15.7688 18.1176 16.0991 18.0831C16.6991 18.0026 17.2484 17.7038 17.642 17.244C18.0357 16.7841 18.2461 16.1953 18.2331 15.5901L18.2351 14.6471Z" fill="#000000" />
<path d="M15.8662 21.7497C15.6673 21.7497 15.4765 21.6707 15.3359 21.5301C15.1952 21.3894 15.1162 21.1986 15.1162 20.9997V18.8447C15.1162 18.6458 15.1952 18.455 15.3359 18.3144C15.4765 18.1737 15.6673 18.0947 15.8662 18.0947C16.0651 18.0947 16.2559 18.1737 16.3965 18.3144C16.5372 18.455 16.6162 18.6458 16.6162 18.8447V20.9997C16.6162 21.1986 16.5372 21.3894 16.3965 21.5301C16.2559 21.6707 16.0651 21.7497 15.8662 21.7497Z" fill="#000000" />
<path d="M17.4348 14.6582C17.2359 14.6582 17.0452 14.5792 16.9045 14.4385C16.7639 14.2979 16.6848 14.1071 16.6848 13.9082V12.5664C16.6848 12.3675 16.7639 12.1767 16.9045 12.0361C17.0452 11.8954 17.2359 11.8164 17.4348 11.8164C17.6338 11.8164 17.8245 11.8954 17.9652 12.0361C18.1058 12.1767 18.1848 12.3675 18.1848 12.5664V13.9082C18.1848 14.1071 18.1058 14.2979 17.9652 14.4385C17.8245 14.5792 17.6338 14.6582 17.4348 14.6582ZM14.2979 14.7064C14.0989 14.7064 13.9082 14.6274 13.7675 14.4867C13.6269 14.3461 13.5479 14.1553 13.5479 13.9564V12.5664C13.5479 12.3675 13.6269 12.1767 13.7675 12.0361C13.9082 11.8954 14.0989 11.8164 14.2979 11.8164C14.4968 11.8164 14.6875 11.8954 14.8282 12.0361C14.9688 12.1767 15.0479 12.3675 15.0479 12.5664V13.9564C15.0479 14.1553 14.9688 14.3461 14.8282 14.4867C14.6875 14.6274 14.4968 14.7064 14.2979 14.7064Z" fill="#000000" />
</svg>