<svg width="24px"  height="24px"  viewBox="0 0 25 25" fill="none" xmlns="http://www.w3.org/2000/svg">
<path fill-rule="evenodd" clip-rule="evenodd" d="M3.75 5.86719C3.75 5.45297 4.08579 5.11719 4.5 5.11719H13.8794C14.2936 5.11719 14.6294 5.45297 14.6294 5.86719C14.6294 6.2814 14.2936 6.61719 13.8794 6.61719H4.5C4.08579 6.61719 3.75 6.2814 3.75 5.86719ZM3.75 12.7641C3.75 12.3499 4.08579 12.0141 4.5 12.0141H10.5687C10.9829 12.0141 11.3187 12.3499 11.3187 12.7641C11.3187 13.1783 10.9829 13.5141 10.5687 13.5141H4.5C4.08579 13.5141 3.75 13.1783 3.75 12.7641ZM3.75 19.661C3.75 19.2468 4.08579 18.911 4.5 18.911H13.8794C14.2936 18.911 14.6294 19.2468 14.6294 19.661C14.6294 20.0752 14.2936 20.411 13.8794 20.411H4.5C4.08579 20.411 3.75 20.0752 3.75 19.661Z" fill="#000000" />
<path fill-rule="evenodd" clip-rule="evenodd" d="M21.0498 8.66942C21.3316 8.97299 21.314 9.44753 21.0104 9.72935L17.74 12.7655L21.0105 15.8024C21.314 16.0842 21.3316 16.5588 21.0497 16.8623C20.7679 17.1658 20.2933 17.1834 19.9898 16.9015L16.1274 13.315C15.9745 13.1731 15.8877 12.9739 15.8877 12.7653C15.8877 12.5568 15.9746 12.3576 16.1274 12.2157L19.9899 8.63003C20.2934 8.34822 20.768 8.36585 21.0498 8.66942Z" fill="#000000" />
</svg>