<svg width="24px"  height="24px"  viewBox="0 0 25 25" fill="none" xmlns="http://www.w3.org/2000/svg">
<path fill-rule="evenodd" clip-rule="evenodd" d="M10.3711 5.86719C10.3711 5.45297 10.7069 5.11719 11.1211 5.11719H20.4999C20.9141 5.11719 21.2499 5.45297 21.2499 5.86719C21.2499 6.2814 20.9141 6.61719 20.4999 6.61719H11.1211C10.7069 6.61719 10.3711 6.2814 10.3711 5.86719ZM13.6808 12.7637C13.6808 12.3495 14.0166 12.0137 14.4308 12.0137H20.4992C20.9134 12.0137 21.2492 12.3495 21.2492 12.7637C21.2492 13.1779 20.9134 13.5137 20.4992 13.5137H14.4308C14.0166 13.5137 13.6808 13.1779 13.6808 12.7637ZM10.3711 19.6602C10.3711 19.246 10.7069 18.9102 11.1211 18.9102H20.4999C20.9141 18.9102 21.2499 19.246 21.2499 19.6602C21.2499 20.0744 20.9141 20.4102 20.4999 20.4102H11.1211C10.7069 20.4102 10.3711 20.0744 10.3711 19.6602Z" fill="#000000" />
<path fill-rule="evenodd" clip-rule="evenodd" d="M3.95035 8.66942C4.23216 8.36585 4.70671 8.34822 5.01028 8.63003L8.8725 12.2155C9.02535 12.3574 9.11222 12.5566 9.11223 12.7651C9.11224 12.9737 9.0254 13.1729 8.87257 13.3148L5.01034 16.9011C4.70681 17.183 4.23226 17.1654 3.95041 16.8619C3.66856 16.5583 3.68613 16.0838 3.98966 15.8019L7.25995 12.7652L3.98973 9.72935C3.68616 9.44753 3.66853 8.97299 3.95035 8.66942Z" fill="#000000" />
</svg>