<svg width="24px"  height="24px"  viewBox="0 0 25 25" fill="none" xmlns="http://www.w3.org/2000/svg">
<path fill-rule="evenodd" clip-rule="evenodd" d="M3.75 5.76562C3.75 5.35141 4.08579 5.01562 4.5 5.01562H20.5C20.9142 5.01562 21.25 5.35141 21.25 5.76562C21.25 6.17984 20.9142 6.51562 20.5 6.51562H4.5C4.08579 6.51562 3.75 6.17984 3.75 5.76562ZM3.75 19.7656C3.75 19.3514 4.08579 19.0156 4.5 19.0156H20.5C20.9142 19.0156 21.25 19.3514 21.25 19.7656C21.25 20.1798 20.9142 20.5156 20.5 20.5156H4.5C4.08579 20.5156 3.75 20.1798 3.75 19.7656Z" fill="#000000" />
<path fill-rule="evenodd" clip-rule="evenodd" d="M7.75 12.7656C7.75 12.3514 8.08579 12.0156 8.5 12.0156H16.5C16.9142 12.0156 17.25 12.3514 17.25 12.7656C17.25 13.1798 16.9142 13.5156 16.5 13.5156H8.5C8.08579 13.5156 7.75 13.1798 7.75 12.7656Z" fill="#000000" />
</svg>