<svg width="24px"  height="24px"  viewBox="0 0 25 25" fill="none" xmlns="http://www.w3.org/2000/svg">
<path fill-rule="evenodd" clip-rule="evenodd" d="M4.24013 4.66312C5.22462 3.60684 6.62668 3.01562 8.28232 3.01562H16.7167C18.3761 3.01562 19.7788 3.60652 20.7629 4.6634C21.7413 5.71423 22.25 7.16479 22.25 8.79236V16.7389C22.25 18.3665 21.7413 19.817 20.7627 20.8679C19.7785 21.9248 18.3756 22.5156 16.7158 22.5156H8.28232C6.62289 22.5156 5.22043 21.9247 4.2366 20.8678C3.25843 19.8169 2.75 18.3664 2.75 16.7389V8.79236C2.75 7.16398 3.2611 5.71355 4.24013 4.66312ZM5.33743 5.68584C4.66021 6.41244 4.25 7.47537 4.25 8.79236V16.7389C4.25 18.0568 4.65863 19.1196 5.33456 19.8458C6.00483 20.5659 6.99353 21.0156 8.28232 21.0156H16.7158C18.0051 21.0156 18.9943 20.5658 19.665 19.8456C20.3412 19.1195 20.75 18.0567 20.75 16.7389V8.79236C20.75 7.47456 20.3412 6.41176 19.665 5.68556C18.9945 4.96541 18.0055 4.51562 16.7167 4.51562H8.28232C6.99827 4.51562 6.00917 4.9651 5.33743 5.68584Z" fill="#000000" />
<path fill-rule="evenodd" clip-rule="evenodd" d="M9.4043 8.875C9.4043 8.46079 9.74008 8.125 10.1543 8.125H12.662C14.0216 8.125 15.2919 9.11973 15.4293 10.5582C15.5826 12.1631 14.3225 13.5168 12.7463 13.5168H10.1543C9.74008 13.5168 9.4043 13.181 9.4043 12.7668V8.875ZM10.9043 9.625V12.0168H12.7463C13.4457 12.0168 14.0045 11.4171 13.9361 10.7008L13.9361 10.7008C13.8802 10.1157 13.3355 9.625 12.662 9.625H10.9043Z" fill="#000000" />
<path fill-rule="evenodd" clip-rule="evenodd" d="M9.624 12.2353C9.76467 12.0946 9.95546 12.0156 10.1544 12.0156L13.3592 12.016C13.3592 12.016 13.3593 12.016 13.3592 12.016C14.7188 12.016 15.9892 13.0108 16.1266 14.4492C16.2799 16.0541 15.0198 17.4078 13.4436 17.4078H10.1543C9.74008 17.4078 9.4043 17.072 9.4043 16.6578V12.7656C9.4043 12.5667 9.48333 12.3759 9.624 12.2353ZM10.9043 13.5157V15.9078H13.4436C14.1429 15.9078 14.7018 15.3081 14.6334 14.5918C14.5775 14.0067 14.0327 13.516 13.3592 13.516L10.9043 13.5157Z" fill="#000000" />
</svg>