<svg width="24px"  height="24px"  viewBox="0 0 25 25" fill="none" xmlns="http://www.w3.org/2000/svg">
<path fill-rule="evenodd" clip-rule="evenodd" d="M10.9073 4.51562C10.6113 4.51562 10.3425 4.68811 10.2192 4.95715L9.40097 6.74194C9.27877 7.0085 9.01243 7.1794 8.7192 7.1794H6.07978C5.68245 7.1794 5.36035 7.5015 5.36035 7.89882V8.98702C5.36035 9.12767 5.47437 9.24168 5.61501 9.24168H19.3848C19.5254 9.24168 19.6394 9.12767 19.6394 8.98702V7.89882C19.6394 7.5015 19.3173 7.1794 18.92 7.1794H16.2806C15.9873 7.1794 15.721 7.0085 15.5988 6.74194L14.7806 4.95715C14.6572 4.68811 14.3884 4.51562 14.0925 4.51562H10.9073ZM8.85563 4.33206C9.22336 3.5299 10.0249 3.01562 10.9073 3.01562H14.0925C14.9749 3.01562 15.7764 3.5299 16.1441 4.33206L16.7618 5.6794H18.92C20.1457 5.6794 21.1394 6.67306 21.1394 7.89882V8.98702C21.1394 9.95609 20.3538 10.7417 19.3848 10.7417H5.61501C4.64594 10.7417 3.86035 9.95609 3.86035 8.98702V7.89882C3.86035 6.67307 4.85402 5.6794 6.07978 5.6794H8.23797L8.85563 4.33206Z" fill="#000000" />
<path fill-rule="evenodd" clip-rule="evenodd" d="M6.15039 9.31641C6.5646 9.31641 6.90039 9.65219 6.90039 10.0664V18.7521C6.90039 20.0113 7.90606 21.0161 9.12696 21.0161H15.8738C17.0947 21.0161 18.1004 20.0113 18.1004 18.7521V10.0664C18.1004 9.65219 18.4362 9.31641 18.8504 9.31641C19.2646 9.31641 19.6004 9.65219 19.6004 10.0664V18.7521C19.6004 20.822 17.9408 22.5161 15.8738 22.5161H9.12696C7.06003 22.5161 5.40039 20.822 5.40039 18.7521V10.0664C5.40039 9.65219 5.73618 9.31641 6.15039 9.31641Z" fill="#000000" />
<path fill-rule="evenodd" clip-rule="evenodd" d="M10.8096 12.832C11.2238 12.832 11.5596 13.1678 11.5596 13.582V18.0904C11.5596 18.5046 11.2238 18.8404 10.8096 18.8404C10.3954 18.8404 10.0596 18.5046 10.0596 18.0904V13.582C10.0596 13.1678 10.3954 12.832 10.8096 12.832ZM14.19 12.832C14.6042 12.832 14.94 13.1678 14.94 13.582V18.0904C14.94 18.5046 14.6042 18.8404 14.19 18.8404C13.7758 18.8404 13.44 18.5046 13.44 18.0904V13.582C13.44 13.1678 13.7758 12.832 14.19 12.832Z" fill="#000000" />
</svg>