<svg width="24px"  height="24px"  viewBox="0 0 25 25" fill="none" xmlns="http://www.w3.org/2000/svg">
<path fill-rule="evenodd" clip-rule="evenodd" d="M10.7786 4.45312C10.2948 4.45312 9.8545 4.73227 9.64809 5.1698L8.99673 6.55053C8.87289 6.81305 8.60869 6.98054 8.31842 6.98054H6.30664C5.61628 6.98054 5.05664 7.54018 5.05664 8.23054V8.3649C5.05664 8.50298 5.16857 8.6149 5.30664 8.6149H19.6939C19.832 8.6149 19.9439 8.50298 19.9439 8.3649V8.23054C19.9439 7.54019 19.3842 6.98054 18.6939 6.98054H16.6821C16.3918 6.98054 16.1276 6.81305 16.0038 6.55053L15.3524 5.1698C15.146 4.73227 14.7057 4.45312 14.2219 4.45312H10.7786ZM8.29147 4.52982C8.74557 3.56725 9.71431 2.95312 10.7786 2.95312H14.2219C15.2862 2.95312 16.255 3.56725 16.709 4.52982L17.1575 5.48054H18.6939C20.2127 5.48054 21.4439 6.71176 21.4439 8.23054V8.3649C21.4439 9.3314 20.6604 10.1149 19.6939 10.1149H5.30664C4.34014 10.1149 3.55664 9.3314 3.55664 8.3649V8.23054C3.55664 6.71176 4.78786 5.48054 6.30664 5.48054H7.84297L8.29147 4.52982Z" fill="#000000" />
<path fill-rule="evenodd" clip-rule="evenodd" d="M6.01855 8.72266C6.43277 8.72266 6.76855 9.05844 6.76855 9.47266V18.7013C6.76855 19.944 7.77592 20.9513 9.01856 20.9513H16.1579C17.4006 20.9513 18.4079 19.944 18.4079 18.7013V9.47266C18.4079 9.05844 18.7437 8.72266 19.1579 8.72266C19.5722 8.72266 19.9079 9.05844 19.9079 9.47266V18.7013C19.9079 20.7724 18.229 22.4513 16.1579 22.4513H9.01856C6.94749 22.4513 5.26855 20.7724 5.26855 18.7013V9.47266C5.26855 9.05844 5.60434 8.72266 6.01855 8.72266Z" fill="#000000" />
<path fill-rule="evenodd" clip-rule="evenodd" d="M15.1062 12.1672C15.5059 12.2762 15.7415 12.6884 15.6326 13.0881L14.8312 16.0275C14.7223 16.4272 14.31 16.6628 13.9103 16.5539C13.5107 16.4449 13.2751 16.0326 13.384 15.633L14.1854 12.6935C14.2943 12.2939 14.7066 12.0583 15.1062 12.1672Z" fill="#000000" />
<path fill-rule="evenodd" clip-rule="evenodd" d="M9.92416 13.5422C9.52024 13.634 9.26717 14.0358 9.35892 14.4397L10.0712 17.5756C10.1629 17.9795 10.5648 18.2326 10.9687 18.1408C11.3726 18.0491 11.6257 17.6473 11.5339 17.2433L10.8217 14.1075C10.7299 13.7036 10.3281 13.4505 9.92416 13.5422Z" fill="#000000" />
</svg>