<svg width="24px"  height="24px"  viewBox="0 0 25 25" fill="none" xmlns="http://www.w3.org/2000/svg">
<path fill-rule="evenodd" clip-rule="evenodd" d="M5.86851 8.95957C6.28134 8.92576 6.64342 9.23302 6.67723 9.64585L7.47415 19.3767C7.55702 20.3885 8.40241 21.1675 9.41765 21.1675H15.5812C16.5964 21.1675 17.4418 20.3885 17.5247 19.3767L18.3216 9.64585C18.3554 9.23302 18.7175 8.92576 19.1303 8.95957C19.5432 8.99338 19.8504 9.35546 19.8166 9.76829L19.0197 19.4991C18.8731 21.2893 17.3774 22.6675 15.5812 22.6675H9.41765C7.62145 22.6675 6.12577 21.2893 5.97916 19.4991L5.18223 9.76829C5.14842 9.35546 5.45568 8.99338 5.86851 8.95957Z" fill="#000000" />
<path fill-rule="evenodd" clip-rule="evenodd" d="M12.7881 22.4722C13.0877 22.1862 13.0987 21.7115 12.8127 21.4118L6.98491 15.3063C6.69891 15.0066 6.22417 14.9956 5.92454 15.2816C5.62491 15.5676 5.61386 16.0423 5.89986 16.342L11.7277 22.4475C12.0137 22.7472 12.4884 22.7582 12.7881 22.4722Z" fill="#000000" />
<path fill-rule="evenodd" clip-rule="evenodd" d="M17.9166 21.7548C18.2191 21.4719 18.235 20.9973 17.9521 20.6947L7.21183 9.2109C6.9289 8.90838 6.45429 8.8925 6.15177 9.17543C5.84924 9.45837 5.83336 9.93298 6.1163 10.2355L16.8565 21.7193C17.1395 22.0219 17.6141 22.0377 17.9166 21.7548Z" fill="#000000" />
<path fill-rule="evenodd" clip-rule="evenodd" d="M6.94147 21.6181C6.63895 21.3351 6.62307 20.8605 6.906 20.558L17.5177 9.21166C17.8006 8.90914 18.2752 8.89326 18.5777 9.17619C18.8803 9.45913 18.8961 9.93373 18.6132 10.2363L8.00154 21.5826C7.7186 21.8851 7.24399 21.901 6.94147 21.6181Z" fill="#000000" />
<path fill-rule="evenodd" clip-rule="evenodd" d="M5.91399 16.3642C5.6201 16.0723 5.61849 15.5974 5.91038 15.3035L11.9962 9.17621C12.2881 8.88232 12.763 8.88071 13.0568 9.17261C13.3507 9.4645 13.3523 9.93937 13.0604 10.2333L6.97464 16.3606C6.68274 16.6544 6.20787 16.6561 5.91399 16.3642Z" fill="#000000" />
<path fill-rule="evenodd" clip-rule="evenodd" d="M12.269 22.4742C11.9683 22.1893 11.9555 21.7146 12.2403 21.4139L18.0239 15.3083C18.3087 15.0076 18.7834 14.9948 19.0841 15.2796C19.3849 15.5645 19.3977 16.0392 19.1129 16.3399L13.3293 22.4455C13.0445 22.7462 12.5698 22.759 12.269 22.4742Z" fill="#000000" />
<path fill-rule="evenodd" clip-rule="evenodd" d="M19.0944 16.3662C19.3894 16.0754 19.3928 15.6005 19.102 15.3055L13.0625 9.17824C12.7717 8.88324 12.2968 8.87982 12.0018 9.17059C11.7068 9.46137 11.7034 9.93623 11.9942 10.2312L18.0337 16.3585C18.3245 16.6535 18.7994 16.6569 19.0944 16.3662Z" fill="#000000" />
<path fill-rule="evenodd" clip-rule="evenodd" d="M10.925 4.52344C10.6389 4.52344 10.3778 4.68619 10.2517 4.94302L9.46608 6.5439C9.34004 6.80073 9.07887 6.96348 8.79279 6.96348H6.20458C5.823 6.96348 5.51367 7.27281 5.51367 7.65439V8.95664H19.4865V7.65439C19.4865 7.27281 19.1772 6.96348 18.7956 6.96348H16.2081C15.922 6.96348 15.6602 6.80073 15.5341 6.5439L14.7485 4.94302C14.6225 4.68619 14.3613 4.52344 14.0752 4.52344H10.925ZM8.90514 4.28217C9.28325 3.5117 10.0668 3.02344 10.925 3.02344H14.0752C14.9335 3.02344 15.717 3.5117 16.0951 4.28217L16.6748 5.46348H18.7956C20.0056 5.46348 20.9865 6.44438 20.9865 7.65439V9.70664C20.9865 10.1209 20.6508 10.4566 20.2365 10.4566H4.76367C4.34946 10.4566 4.01367 10.1209 4.01367 9.70664V7.65439C4.01367 6.44438 4.99458 5.46348 6.20458 5.46348H8.32541L8.90514 4.28217Z" fill="#000000" />
</svg>