<svg width="24px"  height="24px"  viewBox="0 0 25 25" fill="none" xmlns="http://www.w3.org/2000/svg">
<path fill-rule="evenodd" clip-rule="evenodd" d="M5.52937 9.56453C5.94248 9.53434 6.30184 9.84477 6.33202 10.2579L6.94398 18.6335L6.94398 18.6336C7.04188 19.9755 8.15946 21.0145 9.50381 21.0145H15.4969C16.8422 21.0145 17.9588 19.9755 18.0567 18.6346L18.0567 18.6345L18.6686 10.2579C18.6988 9.84478 19.0582 9.53435 19.4713 9.56453C19.8844 9.59471 20.1948 9.95407 20.1647 10.3672L19.5527 18.7438C19.5527 18.7438 19.5527 18.7438 19.5527 18.7438C19.3976 20.8683 17.6286 22.5145 15.4969 22.5145H9.50381C7.37301 22.5145 5.60306 20.8683 5.44796 18.7428C5.44796 18.7428 5.44796 18.7428 5.44796 18.7428L4.83601 10.3672C4.80583 9.95407 5.11625 9.59471 5.52937 9.56453Z" fill="#000000" />
<path fill-rule="evenodd" clip-rule="evenodd" d="M10.0595 12.3408C10.3524 12.0479 10.8273 12.0479 11.1202 12.3408L12.5006 13.7212L13.881 12.3408C14.1739 12.0479 14.6488 12.0479 14.9417 12.3408C15.2346 12.6337 15.2346 13.1085 14.9417 13.4014L13.5613 14.7819L14.9417 16.1623C15.2346 16.4552 15.2346 16.9301 14.9417 17.223C14.6488 17.5159 14.1739 17.5159 13.881 17.223L12.5006 15.8425L11.1202 17.223C10.8273 17.5159 10.3524 17.5159 10.0595 17.223C9.76662 16.9301 9.76662 16.4552 10.0595 16.1623L11.44 14.7819L10.0595 13.4014C9.76662 13.1085 9.76662 12.6337 10.0595 12.3408Z" fill="#000000" />
<path fill-rule="evenodd" clip-rule="evenodd" d="M3.48535 7.16797C3.48535 6.75376 3.82114 6.41797 4.23535 6.41797H20.7649C21.1791 6.41797 21.5149 6.75376 21.5149 7.16797C21.5149 7.58218 21.1791 7.91797 20.7649 7.91797H4.23535C3.82114 7.91797 3.48535 7.58218 3.48535 7.16797Z" fill="#000000" />
<path fill-rule="evenodd" clip-rule="evenodd" d="M10.4441 3.01563H14.5641C15.4675 3.01563 16.2603 3.62281 16.4941 4.49713C16.498 4.51182 16.5015 4.52664 16.5045 4.54155L17.0075 7.01757C17.09 7.42349 16.8277 7.8194 16.4218 7.90186C16.0159 7.98432 15.62 7.72211 15.5375 7.31618L15.0401 4.86758C14.9765 4.65945 14.7833 4.51563 14.5641 4.51563H10.4403C10.2191 4.51487 10.0255 4.65851 9.96118 4.86738L9.46881 7.3148C9.38712 7.72087 8.9917 7.98384 8.58562 7.90214C8.17955 7.82045 7.91658 7.42503 7.99828 7.01896L8.4964 4.54294C8.49953 4.52737 8.50316 4.51191 8.50727 4.49657C8.74237 3.61999 9.53771 3.01317 10.4441 3.01563Z" fill="#000000" />
</svg>