<svg width="24px"  height="24px"  viewBox="0 0 25 25" fill="none" xmlns="http://www.w3.org/2000/svg">
<path fill-rule="evenodd" clip-rule="evenodd" d="M10.8641 4.51562C10.5839 4.51562 10.327 4.67184 10.1981 4.92067L9.40225 6.4572C9.27336 6.70603 9.01651 6.86225 8.73629 6.86225H6.06662C5.69651 6.86225 5.39648 7.16227 5.39648 7.53238V8.80503H19.6024V7.53238C19.6024 7.16228 19.3024 6.86225 18.9323 6.86225H16.2626C15.9824 6.86225 15.7255 6.70603 15.5966 6.4572L14.8008 4.92067C14.6719 4.67184 14.415 4.51562 14.1348 4.51562H10.8641ZM8.86621 4.23076C9.25287 3.48429 10.0234 3.01562 10.8641 3.01562H14.1348C14.9755 3.01562 15.746 3.48428 16.1327 4.23076L15.4667 4.57572L16.1327 4.23076L16.7188 5.36225H18.9323C20.1308 5.36225 21.1024 6.33384 21.1024 7.53238V9.55503C21.1024 9.96924 20.7666 10.305 20.3524 10.305H4.64648C4.23227 10.305 3.89648 9.96924 3.89648 9.55503V7.53238C3.89648 6.33385 4.86808 5.36225 6.06662 5.36225H8.28013L8.86621 4.23076Z" fill="#000000" />
<path fill-rule="evenodd" clip-rule="evenodd" d="M5.88801 8.80587C6.30159 8.78284 6.65552 9.09944 6.67855 9.51301L7.21643 19.1735C7.27396 20.2068 8.12857 21.0151 9.16341 21.0151H15.8407C16.876 21.0151 17.7308 20.2062 17.7878 19.1725L18.3202 9.51343C18.343 9.09984 18.6968 8.78305 19.1104 8.80585C19.524 8.82864 19.8408 9.1824 19.818 9.59599L19.2855 19.255C19.1847 21.0839 17.6723 22.5151 15.8407 22.5151H9.16341C7.33254 22.5151 5.82053 21.085 5.71875 19.2569L5.18087 9.5964C5.15784 9.18283 5.47444 8.82889 5.88801 8.80587Z" fill="#000000" />
<path fill-rule="evenodd" clip-rule="evenodd" d="M15.1101 12.1672C15.5098 12.2762 15.7454 12.6884 15.6365 13.0881L14.8351 16.0275C14.7262 16.4272 14.3139 16.6628 13.9143 16.5539C13.5146 16.4449 13.279 16.0326 13.3879 15.633L14.1893 12.6935C14.2982 12.2939 14.7105 12.0583 15.1101 12.1672Z" fill="#000000" />
<path fill-rule="evenodd" clip-rule="evenodd" d="M9.92807 13.5422C9.52414 13.634 9.27107 14.0358 9.36282 14.4397L10.0751 17.5756C10.1669 17.9795 10.5687 18.2326 10.9726 18.1408C11.3765 18.0491 11.6296 17.6473 11.5378 17.2433L10.8256 14.1075C10.7338 13.7036 10.332 13.4505 9.92807 13.5422Z" fill="#000000" />
</svg>