<svg width="24px"  height="24px"  viewBox="0 0 25 25" fill="none" xmlns="http://www.w3.org/2000/svg">
<path fill-rule="evenodd" clip-rule="evenodd" d="M10.7511 4.51562C10.2572 4.51562 9.80968 4.80637 9.60897 5.25758L9.18559 6.20938C8.90459 6.84108 8.27802 7.24812 7.58664 7.24812H5.7096C5.26053 7.24812 4.89648 7.61217 4.89648 8.06124C4.89648 8.51031 5.26053 8.87435 5.7096 8.87435H19.2893C19.7384 8.87435 20.1024 8.51031 20.1024 8.06124C20.1024 7.61217 19.7384 7.24812 19.2893 7.24812H17.4123C16.7209 7.24812 16.0943 6.84108 15.8133 6.20938L15.3899 5.25759C15.1892 4.80637 14.7417 4.51562 14.2478 4.51562H10.7511ZM8.23845 4.64794C8.68002 3.65527 9.66462 3.01562 10.7511 3.01562H14.2478C15.3343 3.01562 16.3189 3.65527 16.7604 4.64794L17.1838 5.59973C17.224 5.68997 17.3135 5.74812 17.4123 5.74812H19.2893C20.5668 5.74812 21.6024 6.78374 21.6024 8.06124C21.6024 9.33874 20.5668 10.3744 19.2893 10.3744H5.7096C4.4321 10.3744 3.39648 9.33874 3.39648 8.06124C3.39648 6.78374 4.4321 5.74812 5.7096 5.74812H7.58664C7.68541 5.74812 7.77492 5.68998 7.81506 5.59973L8.23845 4.64794Z" fill="#000000" />
<path fill-rule="evenodd" clip-rule="evenodd" d="M9.39648 13.5078C9.39648 13.0936 9.73227 12.7578 10.1465 12.7578H14.8524C15.2666 12.7578 15.6024 13.0936 15.6024 13.5078C15.6024 13.922 15.2666 14.2578 14.8524 14.2578H10.1465C9.73227 14.2578 9.39648 13.922 9.39648 13.5078Z" fill="#000000" />
<path fill-rule="evenodd" clip-rule="evenodd" d="M5.86816 8.87757C6.28098 8.84357 6.6432 9.15066 6.6772 9.56348L7.45039 18.9511C7.54651 20.1182 8.52177 21.0164 9.6928 21.0164H15.306C16.4771 21.0164 17.4523 20.1182 17.5484 18.9511L18.3216 9.56348C18.3556 9.15066 18.7179 8.84357 19.1307 8.87757C19.5435 8.91157 19.8506 9.27379 19.8166 9.6866L19.0434 19.0742C18.8832 21.0193 17.2578 22.5164 15.306 22.5164H9.6928C7.74108 22.5164 6.11566 21.0193 5.95545 19.0742L5.18226 9.6866C5.14826 9.27379 5.45535 8.91157 5.86816 8.87757Z" fill="#000000" />
</svg>