<svg width="24px"  height="24px"  viewBox="0 0 25 25" fill="none" xmlns="http://www.w3.org/2000/svg">
<path fill-rule="evenodd" clip-rule="evenodd" d="M12.5002 5.01562C12.7983 5.01562 13.0682 5.19219 13.1875 5.46537L19.3038 19.4654C19.4696 19.8449 19.2963 20.2871 18.9167 20.4529C18.5372 20.6187 18.095 20.4455 17.9292 20.0659L12.5002 7.63904L7.07125 20.0659C6.90543 20.4455 6.4633 20.6187 6.08373 20.4529C5.70415 20.2871 5.53088 19.8449 5.6967 19.4654L11.813 5.46537C11.9323 5.19219 12.2021 5.01562 12.5002 5.01562Z" fill="#000000" />
<path fill-rule="evenodd" clip-rule="evenodd" d="M7.82031 14.7578C7.82031 14.3436 8.1561 14.0078 8.57031 14.0078H16.4296C16.8438 14.0078 17.1796 14.3436 17.1796 14.7578C17.1796 15.172 16.8438 15.5078 16.4296 15.5078H8.57031C8.1561 15.5078 7.82031 15.172 7.82031 14.7578Z" fill="#000000" />
</svg>