<svg width="24px"  height="24px"  viewBox="0 0 25 25" fill="none" xmlns="http://www.w3.org/2000/svg">
<path fill-rule="evenodd" clip-rule="evenodd" d="M20.7279 10.1157C21.0082 10.2318 21.1909 10.5053 21.1909 10.8086V19.2792C21.1909 19.6934 20.8551 20.0292 20.4409 20.0292C20.0267 20.0292 19.6909 19.6934 19.6909 19.2792V12.6193L18.8536 13.4566C18.5607 13.7495 18.0858 13.7495 17.7929 13.4566C17.5 13.1637 17.5 12.6888 17.7929 12.3959L19.9106 10.2783C20.1251 10.0638 20.4476 9.99962 20.7279 10.1157Z" fill="#000000" />
<path fill-rule="evenodd" clip-rule="evenodd" d="M4.55859 5.82422C4.97281 5.82422 5.30859 6.16001 5.30859 6.57422V12.1771H12.2792V6.57422C12.2792 6.16001 12.6149 5.82422 13.0292 5.82422C13.4434 5.82422 13.7792 6.16001 13.7792 6.57422V19.2801C13.7792 19.6943 13.4434 20.0301 13.0292 20.0301C12.6149 20.0301 12.2792 19.6943 12.2792 19.2801V13.6771H5.30859V19.2801C5.30859 19.6943 4.97281 20.0301 4.55859 20.0301C4.14438 20.0301 3.80859 19.6943 3.80859 19.2801V6.57422C3.80859 6.16001 4.14438 5.82422 4.55859 5.82422Z" fill="#000000" />
<path fill-rule="evenodd" clip-rule="evenodd" d="M2.76758 6.57422C2.76758 6.16001 3.10336 5.82422 3.51758 5.82422H5.59922C6.01343 5.82422 6.34922 6.16001 6.34922 6.57422C6.34922 6.98843 6.01343 7.32422 5.59922 7.32422H3.51758C3.10336 7.32422 2.76758 6.98843 2.76758 6.57422ZM11.2382 6.57422C11.2382 6.16001 11.574 5.82422 11.9882 5.82422H14.0698C14.4841 5.82422 14.8198 6.16001 14.8198 6.57422C14.8198 6.98843 14.4841 7.32422 14.0698 7.32422H11.9882C11.574 7.32422 11.2382 6.98843 11.2382 6.57422ZM2.76758 19.2803C2.76758 18.8661 3.10336 18.5303 3.51758 18.5303H5.59922C6.01343 18.5303 6.34922 18.8661 6.34922 19.2803C6.34922 19.6945 6.01343 20.0303 5.59922 20.0303H3.51758C3.10336 20.0303 2.76758 19.6945 2.76758 19.2803ZM11.2382 19.2803C11.2382 18.8661 11.574 18.5303 11.9882 18.5303H14.0698C14.4841 18.5303 14.8198 18.8661 14.8198 19.2803C14.8198 19.6945 14.4841 20.0303 14.0698 20.0303H11.9882C11.574 20.0303 11.2382 19.6945 11.2382 19.2803Z" fill="#000000" />
</svg>