<svg width="24px"  height="24px"  viewBox="0 0 25 25" fill="none" xmlns="http://www.w3.org/2000/svg">
<path fill-rule="evenodd" clip-rule="evenodd" d="M3.5 5.82031C3.91421 5.82031 4.25 6.1561 4.25 6.57031V12.1732H11.2206V6.57031C11.2206 6.1561 11.5563 5.82031 11.9706 5.82031C12.3848 5.82031 12.7206 6.1561 12.7206 6.57031V19.2762C12.7206 19.6904 12.3848 20.0262 11.9706 20.0262C11.5563 20.0262 11.2206 19.6904 11.2206 19.2762V13.6732H4.25V19.2762C4.25 19.6904 3.91421 20.0262 3.5 20.0262C3.08579 20.0262 2.75 19.6904 2.75 19.2762V6.57031C2.75 6.1561 3.08579 5.82031 3.5 5.82031Z" fill="#000000" />
<path fill-rule="evenodd" clip-rule="evenodd" d="M19.2292 11.5586C18.3898 11.5586 17.708 12.2404 17.708 13.0798C17.708 13.494 17.3722 13.8298 16.958 13.8298C16.5438 13.8298 16.208 13.494 16.208 13.0798C16.208 11.412 17.5614 10.0586 19.2292 10.0586C20.8971 10.0586 22.2504 11.412 22.2504 13.0798C22.2504 13.908 22.0235 14.5038 21.6984 15.0603C21.2016 15.9104 20.395 16.7428 19.7371 17.4218C19.5771 17.587 19.4259 17.743 19.29 17.888L18.6896 18.5292H21.5004C21.9147 18.5292 22.2504 18.8649 22.2504 19.2792C22.2504 19.6934 21.9147 20.0292 21.5004 20.0292H16.9596C16.6607 20.0292 16.3903 19.8517 16.2715 19.5775C16.1526 19.3033 16.2079 18.9846 16.4122 18.7665L18.1952 16.8627C18.3716 16.6743 18.5517 16.4879 18.7307 16.3025C19.3762 15.6342 20.0079 14.9801 20.4033 14.3035C20.6263 13.9218 20.7504 13.585 20.7504 13.0798C20.7504 12.2404 20.0686 11.5586 19.2292 11.5586Z" fill="#000000" />
<path fill-rule="evenodd" clip-rule="evenodd" d="M1.70898 6.57422C1.70898 6.16001 2.04477 5.82422 2.45898 5.82422H4.54062C4.95484 5.82422 5.29062 6.16001 5.29062 6.57422C5.29062 6.98843 4.95484 7.32422 4.54062 7.32422H2.45898C2.04477 7.32422 1.70898 6.98843 1.70898 6.57422ZM10.1796 6.57422C10.1796 6.16001 10.5154 5.82422 10.9296 5.82422H13.0113C13.4255 5.82422 13.7613 6.16001 13.7613 6.57422C13.7613 6.98843 13.4255 7.32422 13.0113 7.32422H10.9296C10.5154 7.32422 10.1796 6.98843 10.1796 6.57422ZM1.70898 19.2803C1.70898 18.8661 2.04477 18.5303 2.45898 18.5303H4.54062C4.95484 18.5303 5.29062 18.8661 5.29062 19.2803C5.29062 19.6945 4.95484 20.0303 4.54062 20.0303H2.45898C2.04477 20.0303 1.70898 19.6945 1.70898 19.2803ZM10.1796 19.2803C10.1796 18.8661 10.5154 18.5303 10.9296 18.5303H13.0113C13.4255 18.5303 13.7613 18.8661 13.7613 19.2803C13.7613 19.6945 13.4255 20.0303 13.0113 20.0303H10.9296C10.5154 20.0303 10.1796 19.6945 10.1796 19.2803Z" fill="#000000" />
</svg>