<svg width="24px"  height="24px"  viewBox="0 0 25 25" fill="none" xmlns="http://www.w3.org/2000/svg">
<path fill-rule="evenodd" clip-rule="evenodd" d="M20.6587 10.0908C20.975 10.1866 21.1913 10.4782 21.1913 10.8087V16.4116H21.5002C21.9144 16.4116 22.2502 16.7474 22.2502 17.1616C22.2502 17.5758 21.9144 17.9116 21.5002 17.9116H21.1913V19.2792C21.1913 19.6934 20.8556 20.0292 20.4413 20.0292C20.0271 20.0292 19.6913 19.6934 19.6913 19.2792V17.9116H16.2061C15.9295 17.9116 15.6753 17.7593 15.5448 17.5155C15.4143 17.2716 15.4286 16.9757 15.582 16.7455L19.8173 10.3926C20.0006 10.1176 20.3424 9.99506 20.6587 10.0908ZM19.6913 16.4116V13.2857L17.6074 16.4116H19.6913Z" fill="#000000" />
<path fill-rule="evenodd" clip-rule="evenodd" d="M3.5 5.82422C3.91421 5.82422 4.25 6.16001 4.25 6.57422V12.1771H11.2206V6.57422C11.2206 6.16001 11.5563 5.82422 11.9706 5.82422C12.3848 5.82422 12.7206 6.16001 12.7206 6.57422V19.2801C12.7206 19.6943 12.3848 20.0301 11.9706 20.0301C11.5563 20.0301 11.2206 19.6943 11.2206 19.2801V13.6771H4.25V19.2801C4.25 19.6943 3.91421 20.0301 3.5 20.0301C3.08579 20.0301 2.75 19.6943 2.75 19.2801V6.57422C2.75 6.16001 3.08579 5.82422 3.5 5.82422Z" fill="#000000" />
<path fill-rule="evenodd" clip-rule="evenodd" d="M1.70898 6.57422C1.70898 6.16001 2.04477 5.82422 2.45898 5.82422H4.54062C4.95484 5.82422 5.29062 6.16001 5.29062 6.57422C5.29062 6.98843 4.95484 7.32422 4.54062 7.32422H2.45898C2.04477 7.32422 1.70898 6.98843 1.70898 6.57422ZM10.1796 6.57422C10.1796 6.16001 10.5154 5.82422 10.9296 5.82422H13.0113C13.4255 5.82422 13.7613 6.16001 13.7613 6.57422C13.7613 6.98843 13.4255 7.32422 13.0113 7.32422H10.9296C10.5154 7.32422 10.1796 6.98843 10.1796 6.57422ZM1.70898 19.2803C1.70898 18.8661 2.04477 18.5303 2.45898 18.5303H4.54062C4.95484 18.5303 5.29062 18.8661 5.29062 19.2803C5.29062 19.6945 4.95484 20.0303 4.54062 20.0303H2.45898C2.04477 20.0303 1.70898 19.6945 1.70898 19.2803ZM10.1796 19.2803C10.1796 18.8661 10.5154 18.5303 10.9296 18.5303H13.0113C13.4255 18.5303 13.7613 18.8661 13.7613 19.2803C13.7613 19.6945 13.4255 20.0303 13.0113 20.0303H10.9296C10.5154 20.0303 10.1796 19.6945 10.1796 19.2803Z" fill="#000000" />
</svg>