<svg width="24px"  height="24px"  viewBox="0 0 25 25" fill="none" xmlns="http://www.w3.org/2000/svg">
<path fill-rule="evenodd" clip-rule="evenodd" d="M3.5 5.82422C3.91421 5.82422 4.25 6.16001 4.25 6.57422V12.1771H11.2206V6.57422C11.2206 6.16001 11.5563 5.82422 11.9706 5.82422C12.3848 5.82422 12.7206 6.16001 12.7206 6.57422V19.2801C12.7206 19.6943 12.3848 20.0301 11.9706 20.0301C11.5563 20.0301 11.2206 19.6943 11.2206 19.2801V13.6771H4.25V19.2801C4.25 19.6943 3.91421 20.0301 3.5 20.0301C3.08579 20.0301 2.75 19.6943 2.75 19.2801V6.57422C2.75 6.16001 3.08579 5.82422 3.5 5.82422Z" fill="#000000" />
<path fill-rule="evenodd" clip-rule="evenodd" d="M16.4326 17.2344C16.0184 17.2344 15.6826 16.8986 15.6826 16.4844V14.0941C15.6826 11.8648 17.4898 10.0576 19.719 10.0576H20.4912C20.9054 10.0576 21.2412 10.3934 21.2412 10.8076C21.2412 11.2218 20.9054 11.5576 20.4912 11.5576H19.719C18.3182 11.5576 17.1826 12.6932 17.1826 14.0941V16.4844C17.1826 16.8986 16.8468 17.2344 16.4326 17.2344Z" fill="#000000" />
<path fill-rule="evenodd" clip-rule="evenodd" d="M18.9665 18.5273C19.9515 18.5273 20.75 17.7288 20.75 16.7439C20.75 15.7589 19.9515 14.9604 18.9665 14.9604C17.9815 14.9604 17.183 15.7589 17.183 16.7439C17.183 17.7288 17.9815 18.5273 18.9665 18.5273ZM22.25 16.7439C22.25 18.5573 20.7799 20.0273 18.9665 20.0273C17.1531 20.0273 15.683 18.5573 15.683 16.7439C15.683 14.9304 17.1531 13.4604 18.9665 13.4604C20.7799 13.4604 22.25 14.9304 22.25 16.7439Z" fill="#000000" />
<path fill-rule="evenodd" clip-rule="evenodd" d="M1.70898 6.57422C1.70898 6.16001 2.04477 5.82422 2.45898 5.82422H4.54062C4.95484 5.82422 5.29062 6.16001 5.29062 6.57422C5.29062 6.98843 4.95484 7.32422 4.54062 7.32422H2.45898C2.04477 7.32422 1.70898 6.98843 1.70898 6.57422ZM10.1796 6.57422C10.1796 6.16001 10.5154 5.82422 10.9296 5.82422H13.0113C13.4255 5.82422 13.7613 6.16001 13.7613 6.57422C13.7613 6.98843 13.4255 7.32422 13.0113 7.32422H10.9296C10.5154 7.32422 10.1796 6.98843 10.1796 6.57422ZM1.70898 19.2803C1.70898 18.8661 2.04477 18.5303 2.45898 18.5303H4.54062C4.95484 18.5303 5.29062 18.8661 5.29062 19.2803C5.29062 19.6945 4.95484 20.0303 4.54062 20.0303H2.45898C2.04477 20.0303 1.70898 19.6945 1.70898 19.2803ZM10.1796 19.2803C10.1796 18.8661 10.5154 18.5303 10.9296 18.5303H13.0113C13.4255 18.5303 13.7613 18.8661 13.7613 19.2803C13.7613 19.6945 13.4255 20.0303 13.0113 20.0303H10.9296C10.5154 20.0303 10.1796 19.6945 10.1796 19.2803Z" fill="#000000" />
</svg>