<svg width="24px"  height="24px"  viewBox="0 0 25 25" fill="none" xmlns="http://www.w3.org/2000/svg">
<path fill-rule="evenodd" clip-rule="evenodd" d="M4.39777 4.5018C5.44862 3.52374 6.8991 3.01562 8.52638 3.01562H16.4736C18.1019 3.01562 19.5523 3.52679 20.6026 4.50582C21.6588 5.4903 22.25 6.89232 22.25 8.54779V16.9825C22.25 18.6418 21.6592 20.0445 20.6024 21.0285C19.5516 22.0069 18.1011 22.5156 16.4736 22.5156H8.52638C6.89889 22.5156 5.44838 22.0069 4.39761 21.0283C3.3408 20.0441 2.75 18.6413 2.75 16.9815V8.54779C2.75 6.888 3.34083 5.48553 4.39777 4.5018ZM5.41972 5.5998C4.69977 6.26988 4.25 7.2585 4.25 8.54779V16.9815C4.25 18.2708 4.6998 19.26 5.41988 19.9306C6.14599 20.6068 7.20868 21.0156 8.52638 21.0156H16.4736C17.7913 21.0156 18.854 20.6068 19.5802 19.9307C20.3003 19.2602 20.75 18.2713 20.75 16.9825V8.54779C20.75 7.2639 20.3006 6.27484 19.5799 5.60308C18.8533 4.92587 17.7905 4.51562 16.4736 4.51562H8.52638C7.20847 4.51562 6.14576 4.92405 5.41972 5.5998Z" fill="#000000" />
<path fill-rule="evenodd" clip-rule="evenodd" d="M12.457 15.5937C13.015 15.5937 13.4678 16.046 13.4678 16.6045C13.4678 17.1623 13.0156 17.6153 12.457 17.6153C11.8984 17.6153 11.4462 17.1623 11.4462 16.6045C11.4462 16.046 11.899 15.5937 12.457 15.5937Z" fill="#000000" />
<path fill-rule="evenodd" clip-rule="evenodd" d="M12.457 11.6914C13.015 11.6914 13.4678 12.1436 13.4678 12.7021C13.4678 13.26 13.0156 13.713 12.457 13.713C11.8984 13.713 11.4462 13.26 11.4462 12.7021C11.4462 12.1436 11.899 11.6914 12.457 11.6914Z" fill="#000000" />
<path fill-rule="evenodd" clip-rule="evenodd" d="M12.457 7.79297C13.015 7.79297 13.4678 8.2452 13.4678 8.80367C13.4678 9.36154 13.0156 9.81453 12.457 9.81453C11.8984 9.81453 11.4462 9.36154 11.4462 8.80367C11.4462 8.2452 11.899 7.79297 12.457 7.79297Z" fill="#000000" />
</svg>