<svg width="24px"  height="24px"  viewBox="0 0 25 25" fill="none" xmlns="http://www.w3.org/2000/svg">
<path fill-rule="evenodd" clip-rule="evenodd" d="M20.75 12.7656C20.75 8.20892 17.0567 4.51562 12.5 4.51562C7.94329 4.51562 4.25 8.20892 4.25 12.7656C4.25 17.3223 7.94329 21.0156 12.5 21.0156C17.0567 21.0156 20.75 17.3223 20.75 12.7656ZM12.5 3.01562C17.8851 3.01562 22.25 7.38049 22.25 12.7656C22.25 18.1508 17.8851 22.5156 12.5 22.5156C7.11487 22.5156 2.75 18.1508 2.75 12.7656C2.75 7.38049 7.11487 3.01562 12.5 3.01562Z" fill="#000000" />
<path fill-rule="evenodd" clip-rule="evenodd" d="M12.457 15.5937C13.015 15.5937 13.4678 16.046 13.4678 16.6045C13.4678 17.1623 13.0156 17.6153 12.457 17.6153C11.8984 17.6153 11.4462 17.1623 11.4462 16.6045C11.4462 16.046 11.899 15.5937 12.457 15.5937Z" fill="#000000" />
<path fill-rule="evenodd" clip-rule="evenodd" d="M12.457 11.6914C13.015 11.6914 13.4678 12.1436 13.4678 12.7021C13.4678 13.26 13.0156 13.713 12.457 13.713C11.8984 13.713 11.4462 13.26 11.4462 12.7021C11.4462 12.1436 11.899 11.6914 12.457 11.6914Z" fill="#000000" />
<path fill-rule="evenodd" clip-rule="evenodd" d="M12.457 7.79297C13.015 7.79297 13.4678 8.2452 13.4678 8.80367C13.4678 9.36154 13.0156 9.81453 12.457 9.81453C11.8984 9.81453 11.4462 9.36154 11.4462 8.80367C11.4462 8.2452 11.899 7.79297 12.457 7.79297Z" fill="#000000" />
</svg>