<svg width="24px"  height="24px"  viewBox="0 0 25 25" fill="none" xmlns="http://www.w3.org/2000/svg">
<path fill-rule="evenodd" clip-rule="evenodd" d="M3.75 12.764C3.75 11.3863 4.86677 10.2695 6.24445 10.2695C7.62213 10.2695 8.7389 11.3863 8.7389 12.764C8.7389 14.1423 7.62237 15.2593 6.24445 15.2593C4.86652 15.2593 3.75 14.1423 3.75 12.764ZM6.24445 11.7695C5.69519 11.7695 5.25 12.2147 5.25 12.764C5.25 13.3143 5.69544 13.7593 6.24445 13.7593C6.79346 13.7593 7.2389 13.3143 7.2389 12.764C7.2389 12.2147 6.7937 11.7695 6.24445 11.7695Z" fill="#000000" />
<path fill-rule="evenodd" clip-rule="evenodd" d="M10.0059 12.764C10.0059 11.3863 11.1226 10.2695 12.5003 10.2695C13.878 10.2695 14.9948 11.3863 14.9948 12.764C14.9948 14.1423 13.8782 15.2593 12.5003 15.2593C11.1224 15.2593 10.0059 14.1423 10.0059 12.764ZM12.5003 11.7695C11.9511 11.7695 11.5059 12.2147 11.5059 12.764C11.5059 13.3143 11.9513 13.7593 12.5003 13.7593C13.0493 13.7593 13.4948 13.3143 13.4948 12.764C13.4948 12.2147 13.0496 11.7695 12.5003 11.7695Z" fill="#000000" />
<path fill-rule="evenodd" clip-rule="evenodd" d="M16.2617 12.764C16.2617 11.3863 17.3785 10.2695 18.7562 10.2695C20.1339 10.2695 21.2506 11.3863 21.2506 12.764C21.2506 14.1423 20.1341 15.2593 18.7562 15.2593C17.3782 15.2593 16.2617 14.1423 16.2617 12.764ZM18.7562 11.7695C18.2069 11.7695 17.7617 12.2147 17.7617 12.764C17.7617 13.3143 18.2072 13.7593 18.7562 13.7593C19.3052 13.7593 19.7506 13.3143 19.7506 12.764C19.7506 12.2147 19.3054 11.7695 18.7562 11.7695Z" fill="#000000" />
</svg>