<svg width="24px"  height="24px"  viewBox="0 0 25 25" fill="none" xmlns="http://www.w3.org/2000/svg">
<path fill-rule="evenodd" clip-rule="evenodd" d="M12.5 19.5156C12.3622 19.5156 12.25 19.6278 12.25 19.7656C12.25 19.9034 12.3622 20.0156 12.5 20.0156C12.6378 20.0156 12.75 19.9034 12.75 19.7656C12.75 19.6278 12.6378 19.5156 12.5 19.5156ZM10.75 19.7656C10.75 18.7994 11.5338 18.0156 12.5 18.0156C13.4662 18.0156 14.25 18.7994 14.25 19.7656C14.25 20.7318 13.4662 21.5156 12.5 21.5156C11.5338 21.5156 10.75 20.7318 10.75 19.7656Z" fill="#000000" />
<path fill-rule="evenodd" clip-rule="evenodd" d="M12.5 5.51562C12.3622 5.51562 12.25 5.62784 12.25 5.76562C12.25 5.90341 12.3622 6.01562 12.5 6.01562C12.6378 6.01562 12.75 5.90341 12.75 5.76562C12.75 5.62784 12.6378 5.51562 12.5 5.51562ZM10.75 5.76562C10.75 4.79941 11.5338 4.01562 12.5 4.01562C13.4662 4.01562 14.25 4.79941 14.25 5.76562C14.25 6.73184 13.4662 7.51562 12.5 7.51562C11.5338 7.51562 10.75 6.73184 10.75 5.76562Z" fill="#000000" />
<path fill-rule="evenodd" clip-rule="evenodd" d="M12.5 12.5156C12.3622 12.5156 12.25 12.6278 12.25 12.7656C12.25 12.9034 12.3622 13.0156 12.5 13.0156C12.6378 13.0156 12.75 12.9034 12.75 12.7656C12.75 12.6278 12.6378 12.5156 12.5 12.5156ZM10.75 12.7656C10.75 11.7994 11.5338 11.0156 12.5 11.0156C13.4662 11.0156 14.25 11.7994 14.25 12.7656C14.25 13.7318 13.4662 14.5156 12.5 14.5156C11.5338 14.5156 10.75 13.7318 10.75 12.7656Z" fill="#000000" />
</svg>