<svg width="24px"  height="24px"  viewBox="0 0 25 25" fill="none" xmlns="http://www.w3.org/2000/svg">
<path fill-rule="evenodd" clip-rule="evenodd" d="M5.5 12.5156C5.36221 12.5156 5.25 12.6278 5.25 12.7656C5.25 12.9034 5.36221 13.0156 5.5 13.0156C5.63779 13.0156 5.75 12.9034 5.75 12.7656C5.75 12.6278 5.63779 12.5156 5.5 12.5156ZM3.75 12.7656C3.75 11.7994 4.53379 11.0156 5.5 11.0156C6.46621 11.0156 7.25 11.7994 7.25 12.7656C7.25 13.7318 6.46621 14.5156 5.5 14.5156C4.53379 14.5156 3.75 13.7318 3.75 12.7656Z" fill="#000000" />
<path fill-rule="evenodd" clip-rule="evenodd" d="M12.5 12.5156C12.3622 12.5156 12.25 12.6278 12.25 12.7656C12.25 12.9034 12.3622 13.0156 12.5 13.0156C12.6378 13.0156 12.75 12.9034 12.75 12.7656C12.75 12.6278 12.6378 12.5156 12.5 12.5156ZM10.75 12.7656C10.75 11.7994 11.5338 11.0156 12.5 11.0156C13.4662 11.0156 14.25 11.7994 14.25 12.7656C14.25 13.7318 13.4662 14.5156 12.5 14.5156C11.5338 14.5156 10.75 13.7318 10.75 12.7656Z" fill="#000000" />
<path fill-rule="evenodd" clip-rule="evenodd" d="M19.5 12.5156C19.3622 12.5156 19.25 12.6278 19.25 12.7656C19.25 12.9034 19.3622 13.0156 19.5 13.0156C19.6378 13.0156 19.75 12.9034 19.75 12.7656C19.75 12.6278 19.6378 12.5156 19.5 12.5156ZM17.75 12.7656C17.75 11.7994 18.5338 11.0156 19.5 11.0156C20.4662 11.0156 21.25 11.7994 21.25 12.7656C21.25 13.7318 20.4662 14.5156 19.5 14.5156C18.5338 14.5156 17.75 13.7318 17.75 12.7656Z" fill="#000000" />
</svg>