<svg width="24px"  height="24px"  viewBox="0 0 25 25" fill="none" xmlns="http://www.w3.org/2000/svg">
<path fill-rule="evenodd" clip-rule="evenodd" d="M12.5 4.51562C7.94329 4.51562 4.25 8.20892 4.25 12.7656C4.25 17.3223 7.94329 21.0156 12.5 21.0156C17.0567 21.0156 20.75 17.3223 20.75 12.7656C20.75 8.20892 17.0567 4.51562 12.5 4.51562ZM2.75 12.7656C2.75 7.38049 7.11487 3.01562 12.5 3.01562C17.8851 3.01562 22.25 7.38049 22.25 12.7656C22.25 18.1508 17.8851 22.5156 12.5 22.5156C7.11487 22.5156 2.75 18.1508 2.75 12.7656Z" fill="#000000" />
<path fill-rule="evenodd" clip-rule="evenodd" d="M15.3262 12.8076C15.3262 12.2496 15.7784 11.7969 16.3369 11.7969C16.8947 11.7969 17.3477 12.2491 17.3477 12.8076C17.3477 13.3662 16.8947 13.8184 16.3369 13.8184C15.7784 13.8184 15.3262 13.3656 15.3262 12.8076Z" fill="#000000" />
<path fill-rule="evenodd" clip-rule="evenodd" d="M11.4258 12.8076C11.4258 12.2496 11.878 11.7969 12.4365 11.7969C12.9944 11.7969 13.4473 12.2491 13.4473 12.8076C13.4473 13.3662 12.9944 13.8184 12.4365 13.8184C11.878 13.8184 11.4258 13.3656 11.4258 12.8076Z" fill="#000000" />
<path fill-rule="evenodd" clip-rule="evenodd" d="M7.52539 12.8076C7.52539 12.2496 7.97762 11.7969 8.53609 11.7969C9.09396 11.7969 9.54695 12.2491 9.54695 12.8076C9.54695 13.3662 9.09397 13.8184 8.53609 13.8184C7.97762 13.8184 7.52539 13.3656 7.52539 12.8076Z" fill="#000000" />
</svg>