<svg width="24px"  height="24px"  viewBox="0 0 25 25" fill="none" xmlns="http://www.w3.org/2000/svg">
<path fill-rule="evenodd" clip-rule="evenodd" d="M4.24079 4.66251C5.22556 3.60646 6.62779 3.01562 8.28313 3.01562H16.7178C18.3771 3.01562 19.7795 3.60617 20.7634 4.66295C21.7416 5.71367 22.25 7.16418 22.25 8.792V16.7392C22.25 18.3666 21.7416 19.8171 20.7633 20.8679C19.7793 21.9248 18.3766 22.5156 16.7169 22.5156H8.28313C6.62379 22.5156 5.22117 21.9248 4.23714 20.868C3.25872 19.8172 2.75 18.3667 2.75 16.7392V8.792C2.75 7.16314 3.26145 5.71274 4.24079 4.66251ZM5.33783 5.6855C4.66045 6.41191 4.25 7.47471 4.25 8.792V16.7392C4.25 18.0569 4.65879 19.1197 5.33492 19.8458C6.00542 20.5659 6.99437 21.0156 8.28313 21.0156H16.7169C18.0062 21.0156 18.9951 20.5658 19.6654 19.8458C20.3414 19.1197 20.75 18.057 20.75 16.7392V8.792C20.75 7.47366 20.3414 6.41098 19.6655 5.68506C18.9953 4.96519 18.0067 4.51562 16.7178 4.51562H8.28313C6.99913 4.51562 6.00979 4.9649 5.33783 5.6855Z" fill="#000000" />
<path fill-rule="evenodd" clip-rule="evenodd" d="M11.1677 8.68359C11.1677 8.26938 11.5034 7.93359 11.9177 7.93359H15.4153C15.8296 7.93359 16.1653 8.26938 16.1653 8.68359C16.1653 9.09781 15.8296 9.43359 15.4153 9.43359H14.2331L12.3295 16.0965H13.0846C13.4988 16.0965 13.8346 16.4323 13.8346 16.8465C13.8346 17.2607 13.4988 17.5965 13.0846 17.5965H9.58594C9.17172 17.5965 8.83594 17.2607 8.83594 16.8465C8.83594 16.4323 9.17172 16.0965 9.58594 16.0965H10.7695L12.6731 9.43359H11.9177C11.5034 9.43359 11.1677 9.09781 11.1677 8.68359Z" fill="#000000" />
</svg>