<svg width="24px"  height="24px"  viewBox="0 0 25 25" fill="none" xmlns="http://www.w3.org/2000/svg">
<path d="M16.717 22.5156H8.283C4.974 22.5156 2.75 20.1946 2.75 16.7396V8.79163C2.75 5.33663 4.974 3.01562 8.283 3.01562H16.718C20.027 3.01562 22.25 5.33663 22.25 8.79163V16.7396C22.25 20.1946 20.026 22.5156 16.717 22.5156ZM8.283 4.51562C5.833 4.51562 4.25 6.19363 4.25 8.79163V16.7396C4.25 19.3396 5.833 21.0156 8.283 21.0156H16.717C19.167 21.0156 20.75 19.3376 20.75 16.7396V8.79163C20.75 6.19163 19.167 4.51562 16.718 4.51562H8.283Z" fill="#000000" />
<path d="M13.5425 15.6254C13.0095 15.6263 12.4838 15.5028 12.007 15.2646C11.5303 15.0264 11.1157 14.6801 10.7965 14.2534C10.7374 14.1746 10.6944 14.085 10.6699 13.9895C10.6455 13.8941 10.6401 13.7948 10.654 13.6973C10.6822 13.5004 10.7874 13.3228 10.9465 13.2034C11.1056 13.0841 11.3056 13.0328 11.5025 13.0609C11.6995 13.0891 11.8771 13.1943 11.9965 13.3534C12.3029 13.7616 12.7585 14.0317 13.2636 14.1046C13.7687 14.1775 14.2822 14.0473 14.6915 13.7424C14.7651 13.6868 14.8349 13.6263 14.9005 13.5614L16.1275 12.3344C16.4479 11.9955 16.6345 11.5519 16.6526 11.0858C16.6707 10.6198 16.5191 10.163 16.2259 9.8003C15.9327 9.43759 15.5179 9.19359 15.0584 9.11361C14.5989 9.03363 14.126 9.12311 13.7275 9.36541C13.558 9.46977 13.354 9.50253 13.1604 9.45649C12.9668 9.41045 12.7993 9.28939 12.695 9.11991C12.5906 8.95044 12.5579 8.74644 12.6039 8.5528C12.6499 8.35917 12.771 8.19177 12.9405 8.08741C13.6513 7.64731 14.4984 7.48227 15.3224 7.62339C16.1464 7.76451 16.8904 8.20205 17.4142 8.85359C17.938 9.50512 18.2055 10.3257 18.1663 11.1608C18.1271 11.9958 17.784 12.7878 17.2015 13.3874L15.9655 14.6234C15.8509 14.7387 15.7279 14.8454 15.5975 14.9424C15.0048 15.3871 14.2835 15.6269 13.5425 15.6254Z" fill="#000000" />
<path d="M10.2678 17.9523C9.59549 17.9508 8.93847 17.7517 8.37839 17.3798C7.81831 17.0079 7.37987 16.4796 7.11755 15.8606C6.85524 15.2416 6.78063 14.5592 6.90299 13.8981C7.02536 13.237 7.3393 12.6265 7.8058 12.1423L9.04279 10.9064C9.15792 10.7909 9.28125 10.684 9.4118 10.5863C9.77228 10.3165 10.1824 10.1203 10.6187 10.0089C11.055 9.8975 11.509 9.87316 11.9547 9.93724C12.4004 10.0013 12.8292 10.1525 13.2164 10.3823C13.6037 10.6121 13.9419 10.9159 14.2118 11.2763C14.2709 11.3551 14.3139 11.4448 14.3383 11.5402C14.3628 11.6356 14.3682 11.7349 14.3543 11.8324C14.3403 11.9299 14.3073 12.0237 14.2572 12.1085C14.207 12.1932 14.1406 12.2673 14.0618 12.3263C13.983 12.3854 13.8933 12.4284 13.7979 12.4529C13.7025 12.4773 13.6032 12.4827 13.5057 12.4688C13.4082 12.4549 13.3144 12.4219 13.2297 12.3717C13.1449 12.3215 13.0709 12.2551 13.0118 12.1763C12.7058 11.7677 12.25 11.4972 11.7446 11.4245C11.2393 11.3517 10.7257 11.4826 10.3168 11.7883C10.2427 11.8441 10.1725 11.9049 10.1068 11.9703L8.88079 13.1953C8.55653 13.5364 8.36833 13.9843 8.35173 14.4546C8.33513 14.9248 8.49127 15.3849 8.79068 15.748C9.09009 16.111 9.51205 16.3519 9.97689 16.4251C10.4417 16.4983 10.9173 16.3988 11.3138 16.1453C11.4813 16.0378 11.6846 16.0012 11.8791 16.0436C12.0736 16.086 12.2432 16.2039 12.3508 16.3713C12.4583 16.5388 12.4949 16.7422 12.4526 16.9367C12.4102 17.1311 12.2923 17.3008 12.1248 17.4084C11.5709 17.7643 10.9262 17.9532 10.2678 17.9523Z" fill="#000000" />
</svg>