<svg width="24px"  height="24px"  viewBox="0 0 25 25" fill="none" xmlns="http://www.w3.org/2000/svg">
<path fill-rule="evenodd" clip-rule="evenodd" d="M6.91508 9.94233C7.20798 10.2352 7.20798 10.7101 6.91508 11.003L5.76808 12.15C3.74397 14.1741 3.74397 17.4762 5.76808 19.5003C7.78484 21.5171 11.0949 21.5238 13.1184 19.5003L14.2654 18.3533C14.5583 18.0604 15.0332 18.0604 15.3261 18.3533C15.619 18.6462 15.619 19.1211 15.3261 19.414L14.1791 20.561C11.5685 23.1715 7.30866 23.1622 4.70742 20.561C2.09753 17.9511 2.09753 13.6992 4.70742 11.0893L5.85442 9.94233C6.14732 9.64943 6.62219 9.64943 6.91508 9.94233Z" fill="#000000" />
<path fill-rule="evenodd" clip-rule="evenodd" d="M18.0849 15.5967C17.792 15.3038 17.792 14.829 18.0849 14.5361L19.2319 13.3891C21.256 11.365 21.256 8.06283 19.2319 6.03872C17.2152 4.02196 13.9051 4.01527 11.8816 6.03872L10.7346 7.18573C10.4417 7.47862 9.96683 7.47862 9.67394 7.18573C9.38104 6.89283 9.38104 6.41796 9.67394 6.12507L10.8209 4.97806C13.4315 2.36751 17.6913 2.37683 20.2926 4.97806C22.9025 7.58796 22.9025 11.8398 20.2926 14.4497L19.1456 15.5967C18.8527 15.8896 18.3778 15.8896 18.0849 15.5967Z" fill="#000000" />
<path fill-rule="evenodd" clip-rule="evenodd" d="M15.6671 9.69233C15.9599 9.98522 15.9599 10.4601 15.667 10.753L10.4346 15.9854C10.1417 16.2782 9.66686 16.2782 9.37396 15.9853C9.08107 15.6924 9.08107 15.2176 9.37397 14.9247L14.6064 9.69232C14.8993 9.39943 15.3742 9.39943 15.6671 9.69233Z" fill="#000000" />
</svg>