<svg width="24px"  height="24px"  viewBox="0 0 25 25" fill="none" xmlns="http://www.w3.org/2000/svg">
<path d="M17.9243 15.5587C17.7759 15.5585 17.631 15.5143 17.5078 15.4319C17.3845 15.3494 17.2884 15.2323 17.2316 15.0953C17.1748 14.9582 17.1598 14.8075 17.1886 14.662C17.2174 14.5165 17.2886 14.3828 17.3932 14.2777L18.4203 13.2527C19.0553 12.6192 19.4879 11.8114 19.6634 10.9318C19.8388 10.0521 19.7492 9.14019 19.4058 8.31155C19.0625 7.4829 18.4808 6.77484 17.7346 6.27711C16.9884 5.77937 16.1113 5.51437 15.2143 5.51568C14.62 5.51344 14.0311 5.62913 13.4818 5.85606C12.9325 6.08298 12.4337 6.41664 12.0143 6.83768L10.9863 7.86468C10.8454 8.00524 10.6545 8.0841 10.4556 8.08391C10.2566 8.08373 10.0659 8.00451 9.92529 7.86368C9.78473 7.72285 9.70587 7.53194 9.70606 7.33297C9.70624 7.13399 9.78544 6.94324 9.92627 6.80268L10.9532 5.77668C11.5124 5.2155 12.1775 4.77088 12.9098 4.46859C13.6421 4.1663 14.4271 4.01236 15.2193 4.01568C16.4133 4.01423 17.5808 4.36728 18.5739 5.03008C19.567 5.69288 20.3411 6.63559 20.7979 7.73875C21.2546 8.8419 21.3736 10.0558 21.1398 11.2267C20.9059 12.3975 20.3297 13.4726 19.4843 14.3157L18.4583 15.3417C18.3879 15.4112 18.3045 15.4662 18.2129 15.5035C18.1213 15.5407 18.0232 15.5595 17.9243 15.5587Z" fill="#000000" />
<path d="M9.7738 21.5151C8.58076 21.5145 7.41464 21.1602 6.42291 20.497C5.43118 19.8338 4.65836 18.8915 4.20202 17.7892C3.74569 16.6868 3.62636 15.474 3.85913 14.3039C4.0919 13.1337 4.66629 12.0589 5.50976 11.2152L6.52881 10.1952C6.67019 10.0585 6.85956 9.98278 7.05621 9.9844C7.25286 9.98602 7.44102 10.0648 7.58014 10.2038C7.71926 10.3428 7.79825 10.5309 7.80005 10.7275C7.80185 10.9242 7.72633 11.1136 7.58978 11.2552L6.56976 12.2752C5.93447 12.9085 5.50155 13.7163 5.32587 14.596C5.15018 15.4757 5.23966 16.3878 5.58295 17.2166C5.92623 18.0454 6.50788 18.7537 7.25415 19.2515C8.00041 19.7494 8.87769 20.0145 9.77478 20.0131C10.3701 20.0157 10.9601 19.9 11.5104 19.6729C12.0607 19.4458 12.5605 19.1118 12.9808 18.6902L14.0018 17.6702C14.1426 17.5296 14.3335 17.4507 14.5325 17.4509C14.7314 17.4511 14.9222 17.5303 15.0628 17.6712C15.2034 17.812 15.2822 18.0029 15.282 18.2019C15.2819 18.4008 15.2026 18.5916 15.0618 18.7322L14.0418 19.7512C13.4825 20.3129 12.8172 20.758 12.0845 21.0608C11.3519 21.3636 10.5665 21.5181 9.7738 21.5151Z" fill="#000000" />
</svg>