<svg width="24px"  height="24px"  viewBox="0 0 25 25" fill="none" xmlns="http://www.w3.org/2000/svg">
<path fill-rule="evenodd" clip-rule="evenodd" d="M9.86984 11.0517C10.1627 11.3446 10.1627 11.8195 9.86984 12.1124L9.27706 12.7051C8.37249 13.6097 8.37249 15.0869 9.27706 15.9914C10.1781 16.8925 11.6594 16.8953 12.5633 15.9914L13.1561 15.3986C13.449 15.1057 13.9239 15.1057 14.2168 15.3986C14.5097 15.6915 14.5097 16.1664 14.2168 16.4593L13.624 17.0521C12.133 18.5431 9.70196 18.5376 8.2164 17.0521C6.72604 15.5617 6.72604 13.1348 8.2164 11.6445L8.80918 11.0517C9.10208 10.7588 9.57695 10.7588 9.86984 11.0517Z" fill="#000000" />
<path fill-rule="evenodd" clip-rule="evenodd" d="M15.1302 14.4874C14.8373 14.1945 14.8373 13.7196 15.1302 13.4267L15.7229 12.8339C16.6275 11.9293 16.6275 10.4522 15.7229 9.54765C14.8219 8.64656 13.3406 8.64374 12.4367 9.54765L11.8439 10.1404C11.551 10.4333 11.0761 10.4333 10.7832 10.1404C10.4903 9.84754 10.4903 9.37267 10.7832 9.07977L11.376 8.48698C12.867 6.99598 15.298 7.00142 16.7836 8.48698C18.274 9.97734 18.274 12.4042 16.7836 13.8946L16.1908 14.4874C15.8979 14.7803 15.423 14.7803 15.1302 14.4874Z" fill="#000000" />
<path fill-rule="evenodd" clip-rule="evenodd" d="M14.3927 10.9228C14.6856 11.2157 14.6856 11.6906 14.3927 11.9835L11.6885 14.6876C11.3956 14.9805 10.9208 14.9805 10.6279 14.6876C10.335 14.3947 10.335 13.9198 10.6279 13.6269L13.3321 10.9228C13.625 10.6299 14.0998 10.6299 14.3927 10.9228Z" fill="#000000" />
<path fill-rule="evenodd" clip-rule="evenodd" d="M4.24079 4.66251C5.22556 3.60646 6.62779 3.01562 8.28313 3.01562H16.7178C18.3771 3.01562 19.7795 3.60617 20.7634 4.66295C21.7416 5.71367 22.25 7.16418 22.25 8.792V16.7392C22.25 18.3666 21.7416 19.8171 20.7633 20.8679C19.7793 21.9248 18.3766 22.5156 16.7169 22.5156H8.28313C6.62379 22.5156 5.22117 21.9248 4.23714 20.868C3.25872 19.8172 2.75 18.3667 2.75 16.7392V8.792C2.75 7.16314 3.26145 5.71274 4.24079 4.66251ZM5.33783 5.6855C4.66045 6.41191 4.25 7.47471 4.25 8.792V16.7392C4.25 18.0569 4.65879 19.1197 5.33492 19.8458C6.00542 20.5659 6.99437 21.0156 8.28313 21.0156H16.7169C18.0062 21.0156 18.9951 20.5658 19.6654 19.8458C20.3414 19.1197 20.75 18.057 20.75 16.7392V8.792C20.75 7.47366 20.3414 6.41098 19.6655 5.68506C18.9953 4.96519 18.0067 4.51562 16.7178 4.51562H8.28313C6.99913 4.51562 6.00979 4.9649 5.33783 5.6855Z" fill="#000000" />
</svg>