<svg width="24px"  height="24px"  viewBox="0 0 25 25" fill="none" xmlns="http://www.w3.org/2000/svg">
<path fill-rule="evenodd" clip-rule="evenodd" d="M2.75 12.7647C2.75 9.48048 5.42578 6.80469 8.70999 6.80469H10.131C10.5452 6.80469 10.881 7.14047 10.881 7.55469C10.881 7.9689 10.5452 8.30469 10.131 8.30469H8.70999C6.25421 8.30469 4.25 10.3089 4.25 12.7647C4.25 15.2121 6.25486 17.2237 8.70999 17.2237H10.131C10.5452 17.2237 10.881 17.5595 10.881 17.9737C10.881 18.3879 10.5452 18.7237 10.131 18.7237H8.70999C5.42512 18.7237 2.75 16.0393 2.75 12.7647Z" fill="#000000" />
<path fill-rule="evenodd" clip-rule="evenodd" d="M22.25 12.7647C22.25 9.48048 19.5742 6.80469 16.29 6.80469H14.869C14.4548 6.80469 14.119 7.14047 14.119 7.55469C14.119 7.9689 14.4548 8.30469 14.869 8.30469H16.29C18.7458 8.30469 20.75 10.3089 20.75 12.7647C20.75 15.2121 18.7451 17.2237 16.29 17.2237H14.869C14.4548 17.2237 14.119 17.5595 14.119 17.9737C14.119 18.3879 14.4548 18.7237 14.869 18.7237H16.29C19.5749 18.7237 22.25 16.0393 22.25 12.7647Z" fill="#000000" />
<path fill-rule="evenodd" clip-rule="evenodd" d="M8.4707 12.7656C8.4707 12.3514 8.80649 12.0156 9.2207 12.0156H15.7801C16.1943 12.0156 16.5301 12.3514 16.5301 12.7656C16.5301 13.1798 16.1943 13.5156 15.7801 13.5156H9.2207C8.80649 13.5156 8.4707 13.1798 8.4707 12.7656Z" fill="#000000" />
</svg>