<svg width="24px"  height="24px"  viewBox="0 0 25 25" fill="none" xmlns="http://www.w3.org/2000/svg">
<path fill-rule="evenodd" clip-rule="evenodd" d="M12.457 17.7891C13.015 17.7891 13.4678 18.2413 13.4678 18.7998C13.4678 19.3576 13.0156 19.8106 12.457 19.8106C11.8984 19.8106 11.4462 19.3576 11.4462 18.7998C11.4462 18.2413 11.899 17.7891 12.457 17.7891Z" fill="#000000" />
<path fill-rule="evenodd" clip-rule="evenodd" d="M12.457 11.7656C13.015 11.7656 13.4678 12.2179 13.4678 12.7763C13.4678 13.3342 13.0156 13.7872 12.457 13.7872C11.8984 13.7872 11.4462 13.3342 11.4462 12.7763C11.4462 12.2179 11.899 11.7656 12.457 11.7656Z" fill="#000000" />
<path fill-rule="evenodd" clip-rule="evenodd" d="M12.457 5.74609C13.015 5.74609 13.4678 6.19833 13.4678 6.75679C13.4678 7.31467 13.0156 7.76765 12.457 7.76765C11.8984 7.76765 11.4462 7.31467 11.4462 6.75679C11.4462 6.19832 11.899 5.74609 12.457 5.74609Z" fill="#000000" />
<path fill-rule="evenodd" clip-rule="evenodd" d="M18.4951 17.7891C19.0531 17.7891 19.5059 18.2413 19.5059 18.7998C19.5059 19.3576 19.0537 19.8106 18.4951 19.8106C17.9365 19.8106 17.4843 19.3576 17.4843 18.7998C17.4843 18.2413 17.9371 17.7891 18.4951 17.7891Z" fill="#000000" />
<path fill-rule="evenodd" clip-rule="evenodd" d="M18.4951 11.7656C19.0531 11.7656 19.5059 12.2179 19.5059 12.7763C19.5059 13.3342 19.0537 13.7872 18.4951 13.7872C17.9365 13.7872 17.4843 13.3342 17.4843 12.7763C17.4843 12.2179 17.9371 11.7656 18.4951 11.7656Z" fill="#000000" />
<path fill-rule="evenodd" clip-rule="evenodd" d="M18.4951 5.74609C19.0531 5.74609 19.5059 6.19833 19.5059 6.75679C19.5059 7.31467 19.0537 7.76765 18.4951 7.76765C17.9365 7.76765 17.4843 7.31467 17.4843 6.75679C17.4843 6.19832 17.9371 5.74609 18.4951 5.74609Z" fill="#000000" />
<path fill-rule="evenodd" clip-rule="evenodd" d="M6.50388 17.7891C7.06188 17.7891 7.51465 18.2413 7.51465 18.7998C7.51465 19.3576 7.06247 19.8106 6.50388 19.8106C5.9453 19.8106 5.49312 19.3576 5.49312 18.7998C5.49312 18.2413 5.9459 17.7891 6.50388 17.7891Z" fill="#000000" />
<path fill-rule="evenodd" clip-rule="evenodd" d="M6.50388 11.7656C7.06188 11.7656 7.51465 12.2179 7.51465 12.7763C7.51465 13.3342 7.06247 13.7872 6.50388 13.7872C5.9453 13.7872 5.49312 13.3342 5.49312 12.7763C5.49312 12.2179 5.9459 11.7656 6.50388 11.7656Z" fill="#000000" />
<path fill-rule="evenodd" clip-rule="evenodd" d="M6.50388 5.74609C7.06188 5.74609 7.51465 6.19833 7.51465 6.75679C7.51465 7.31467 7.06247 7.76765 6.50388 7.76765C5.9453 7.76765 5.49312 7.31467 5.49312 6.75679C5.49312 6.19832 5.9459 5.74609 6.50388 5.74609Z" fill="#000000" />
</svg>