<svg width="24px"  height="24px"  viewBox="0 0 25 25" fill="none" xmlns="http://www.w3.org/2000/svg">
<path fill-rule="evenodd" clip-rule="evenodd" d="M7.48926 9.54002C7.48926 10.098 7.03702 10.5508 6.47856 10.5508C5.92069 10.5508 5.4677 10.0986 5.4677 9.54002C5.4677 8.98143 5.92068 8.52925 6.47856 8.52925C7.03703 8.52925 7.48926 8.98203 7.48926 9.54002Z" fill="#000000" />
<path fill-rule="evenodd" clip-rule="evenodd" d="M7.48926 16.0127C7.48926 16.5707 7.03702 17.0234 6.47856 17.0234C5.92069 17.0234 5.4677 16.5713 5.4677 16.0127C5.4677 15.4541 5.92068 15.0019 6.47856 15.0019C7.03703 15.0019 7.48926 15.4547 7.48926 16.0127Z" fill="#000000" />
<path fill-rule="evenodd" clip-rule="evenodd" d="M13.5107 9.54002C13.5107 10.098 13.0585 10.5508 12.5 10.5508C11.9422 10.5508 11.4892 10.0986 11.4892 9.54002C11.4892 8.98143 11.9422 8.52925 12.5 8.52925C13.0585 8.52925 13.5107 8.98203 13.5107 9.54002Z" fill="#000000" />
<path fill-rule="evenodd" clip-rule="evenodd" d="M13.5107 16.0127C13.5107 16.5707 13.0585 17.0234 12.5 17.0234C11.9422 17.0234 11.4892 16.5713 11.4892 16.0127C11.4892 15.4541 11.9422 15.0019 12.5 15.0019C13.0585 15.0019 13.5107 15.4547 13.5107 16.0127Z" fill="#000000" />
<path fill-rule="evenodd" clip-rule="evenodd" d="M19.5322 9.54002C19.5322 10.098 19.08 10.5508 18.5215 10.5508C17.9637 10.5508 17.5107 10.0986 17.5107 9.54002C17.5107 8.98143 17.9637 8.52925 18.5215 8.52925C19.08 8.52925 19.5322 8.98203 19.5322 9.54002Z" fill="#000000" />
<path fill-rule="evenodd" clip-rule="evenodd" d="M19.5322 16.0127C19.5322 16.5707 19.08 17.0234 18.5215 17.0234C17.9637 17.0234 17.5107 16.5713 17.5107 16.0127C17.5107 15.4541 17.9637 15.0019 18.5215 15.0019C19.08 15.0019 19.5322 15.4547 19.5322 16.0127Z" fill="#000000" />
</svg>