<svg width="24px"  height="24px"  viewBox="0 0 25 25" fill="none" xmlns="http://www.w3.org/2000/svg">
<path d="M8.28299 3.01562H16.717C20.026 3.01562 22.25 5.33663 22.25 8.79163V16.7396C22.25 20.1946 20.026 22.5156 16.717 22.5156H8.28201C4.97401 22.5156 2.75 20.1946 2.75 16.7396V8.79163C2.75 5.33663 4.97399 3.01562 8.28299 3.01562ZM16.717 21.0156C19.167 21.0156 20.75 19.3366 20.75 16.7396V8.79163C20.75 6.19163 19.167 4.51562 16.717 4.51562H8.28299C5.83299 4.51562 4.25 6.19463 4.25 8.79163V16.7396C4.25 19.3396 5.83301 21.0156 8.28201 21.0156H16.717Z" fill="#000000" />
<path d="M15.7493 8.55128C16.2277 8.55102 16.6993 8.66439 17.1252 8.88206C17.5512 9.09973 17.9193 9.41546 18.1994 9.80326C18.5105 10.299 18.7078 10.8576 18.777 11.4388C18.8461 12.02 18.7855 12.6094 18.5994 13.1643C18.1959 14.6449 17.2951 15.9415 16.0484 16.8363C15.8868 16.9521 15.6859 16.9989 15.4899 16.9666C15.2938 16.9342 15.1186 16.8253 15.0029 16.6638C14.8871 16.5023 14.8402 16.3014 14.8726 16.1053C14.9049 15.9092 15.0138 15.734 15.1753 15.6183C16.1372 14.9202 16.8338 13.9165 17.1514 12.7713C17.2727 12.4286 17.3194 12.0639 17.2882 11.7017C17.2569 11.3395 17.1486 10.9881 16.9704 10.6713C16.7897 10.432 16.543 10.2508 16.2607 10.1501C15.9783 10.0493 15.6726 10.0334 15.3813 10.1043C15.1454 10.1699 14.9304 10.2956 14.7576 10.4691C14.5848 10.6426 14.46 10.858 14.3953 11.0943C14.3178 11.3453 14.3058 11.6121 14.3606 11.8691C14.4154 12.126 14.5351 12.3647 14.7084 12.5623C14.8483 12.7176 15.0175 12.8438 15.2062 12.9338C15.3949 13.0237 15.5996 13.0755 15.8083 13.0863C16.0073 13.0954 16.1944 13.1832 16.3286 13.3303C16.4628 13.4775 16.533 13.6719 16.5239 13.8708C16.5147 14.0697 16.4269 14.2568 16.2798 14.391C16.1327 14.5252 15.9383 14.5954 15.7393 14.5863C15.3301 14.5669 14.9288 14.4661 14.5589 14.2897C14.1891 14.1134 13.8581 13.865 13.5853 13.5593C13.2422 13.1719 13.0042 12.703 12.8941 12.1973C12.784 11.6917 12.8054 11.1663 12.9563 10.6713C13.0938 10.1913 13.3518 9.75459 13.706 9.40272C14.0601 9.05085 14.4985 8.79558 14.9794 8.66127C15.2298 8.58973 15.4889 8.55274 15.7493 8.55128Z" fill="#000000" />
<path d="M9.12272 8.55128C9.60091 8.5511 10.0723 8.66451 10.4981 8.88218C10.9239 9.09985 11.2918 9.41554 11.5717 9.80326C11.8833 10.2988 12.0809 10.8575 12.1501 11.4388C12.2192 12.02 12.1583 12.6094 11.9717 13.1643C11.5683 14.6449 10.6675 15.9415 9.42072 16.8363C9.2592 16.9521 9.05832 16.9989 8.86225 16.9666C8.66618 16.9342 8.49099 16.8253 8.37522 16.6638C8.25945 16.5023 8.21259 16.3014 8.24494 16.1053C8.27729 15.9092 8.38622 15.734 8.54774 15.6183C9.50955 14.9202 10.2061 13.9165 10.5237 12.7713C10.6451 12.4286 10.6918 12.0639 10.6606 11.7017C10.6293 11.3395 10.521 10.9881 10.3427 10.6713C10.1618 10.4323 9.91512 10.2514 9.63285 10.1506C9.35057 10.0499 9.04503 10.0338 8.75373 10.1043C8.51775 10.1699 8.30284 10.2956 8.13001 10.4691C7.95718 10.6426 7.83236 10.858 7.76774 11.0943C7.69016 11.3453 7.67818 11.6121 7.73298 11.8691C7.78777 12.126 7.9075 12.3647 8.08073 12.5623C8.36347 12.8758 8.75911 13.0643 9.18073 13.0863C9.37964 13.0954 9.56678 13.1832 9.70096 13.3303C9.83515 13.4775 9.9054 13.6719 9.89625 13.8708C9.8871 14.0697 9.79929 14.2568 9.65217 14.391C9.50504 14.5252 9.31064 14.5954 9.11173 14.5863C8.70245 14.5669 8.30116 14.4661 7.93131 14.2897C7.56146 14.1134 7.23048 13.865 6.95774 13.5593C6.61462 13.1719 6.37661 12.703 6.26649 12.1973C6.15636 11.6917 6.1778 11.1663 6.32874 10.6713C6.49995 10.0632 6.865 9.52773 7.36841 9.14616C7.87183 8.76459 8.48606 8.5578 9.11774 8.55726L9.12272 8.55128Z" fill="#000000" />
</svg>