<svg width="24px"  height="24px"  viewBox="0 0 25 25" fill="none" xmlns="http://www.w3.org/2000/svg">
<path d="M12.5 3.01563C14.4284 3.01563 16.3134 3.58744 17.9168 4.65878C19.5202 5.73013 20.7699 7.25288 21.5078 9.03446C22.2458 10.816 22.4389 12.7764 22.0627 14.6678C21.6864 16.5591 20.7579 18.2964 19.3943 19.6599C18.0307 21.0235 16.2934 21.9521 14.4021 22.3283C12.5108 22.7045 10.5504 22.5114 8.76883 21.7734C6.98725 21.0355 5.4645 19.7858 4.39316 18.1824C3.32182 16.5791 2.75 14.694 2.75 12.7656C2.75291 10.1807 3.78107 7.70239 5.60892 5.87454C7.43677 4.0467 9.91504 3.01854 12.5 3.01563ZM12.5 21.0156C14.1317 21.0156 15.7268 20.5318 17.0835 19.6252C18.4402 18.7187 19.4976 17.4303 20.122 15.9228C20.7464 14.4153 20.9098 12.7565 20.5915 11.1561C20.2732 9.55579 19.4874 8.08579 18.3336 6.93201C17.1798 5.77822 15.7098 4.99246 14.1095 4.67414C12.5092 4.35581 10.8504 4.5192 9.34287 5.14362C7.83538 5.76804 6.5469 6.82546 5.64038 8.18216C4.73386 9.53887 4.25 11.1339 4.25 12.7656C4.25238 14.9529 5.12235 17.05 6.66901 18.5966C8.21567 20.1433 10.3127 21.0132 12.5 21.0156Z" fill="#000000" />
<path d="M9.21295 8.64362C9.68152 8.64381 10.1434 8.75513 10.5606 8.96842C10.9778 9.18172 11.3385 9.49093 11.613 9.87064C11.9189 10.3551 12.1134 10.9014 12.1826 11.4702C12.2518 12.0389 12.1939 12.616 12.013 13.1596C11.6191 14.6061 10.7391 15.8728 9.52097 16.7466C9.44086 16.8039 9.35025 16.8449 9.25431 16.8672C9.15836 16.8895 9.05897 16.8927 8.96179 16.8766C8.86462 16.8605 8.77154 16.8254 8.68793 16.7734C8.60432 16.7213 8.53178 16.6532 8.47446 16.5731C8.41714 16.493 8.37616 16.4024 8.35385 16.3065C8.33155 16.2105 8.32837 16.1111 8.34448 16.014C8.3606 15.9168 8.39568 15.8237 8.44776 15.7401C8.49983 15.6565 8.56785 15.5839 8.64795 15.5266C9.57993 14.8493 10.2547 13.876 10.562 12.7656C10.6798 12.4347 10.7252 12.0823 10.6952 11.7322C10.6651 11.3822 10.5604 11.0427 10.388 10.7366C10.2148 10.5065 9.97793 10.3321 9.70673 10.2351C9.43553 10.138 9.14186 10.1226 8.86197 10.1906C8.6354 10.2536 8.42909 10.3744 8.26325 10.5411C8.09741 10.7078 7.97773 10.9147 7.91596 11.1416C7.84144 11.3827 7.8299 11.6389 7.88242 11.8857C7.93493 12.1325 8.04976 12.3618 8.21598 12.5516C8.48892 12.8513 8.86916 13.031 9.27396 13.0516C9.37235 13.0561 9.46891 13.08 9.55808 13.1218C9.64724 13.1637 9.72726 13.2227 9.79358 13.2955C9.8599 13.3684 9.91123 13.4535 9.94458 13.5462C9.97794 13.6389 9.99268 13.7373 9.98798 13.8356C9.97226 14.0319 9.88251 14.2148 9.73694 14.3474C9.59137 14.48 9.40083 14.5523 9.20395 14.5496C8.80307 14.5305 8.41004 14.4316 8.04776 14.2589C7.68549 14.0862 7.36125 13.843 7.09397 13.5436C6.75812 13.1634 6.52526 12.7035 6.4176 12.2077C6.30995 11.712 6.33108 11.1969 6.47898 10.7116C6.61354 10.2409 6.86658 9.81249 7.21393 9.46742C7.56128 9.12234 7.99131 8.87211 8.46295 8.74064C8.70749 8.67491 8.95974 8.64227 9.21295 8.64362Z" fill="#000000" />
<path d="M15.6683 8.64443C16.137 8.64425 16.5991 8.7555 17.0163 8.96902C17.4336 9.18253 17.7942 9.49217 18.0683 9.87243C18.374 10.3566 18.5685 10.9026 18.6377 11.471C18.7069 12.0394 18.649 12.6161 18.4683 13.1594C18.0734 14.6057 17.1932 15.8722 15.9753 16.7465C15.8953 16.8038 15.8048 16.8448 15.709 16.8671C15.6132 16.8895 15.5139 16.8927 15.4168 16.8767C15.3197 16.8607 15.2267 16.8257 15.1432 16.7738C15.0596 16.7218 14.9871 16.6539 14.9298 16.5739C14.8724 16.494 14.8314 16.4035 14.8091 16.3077C14.7867 16.2118 14.7835 16.1125 14.7995 16.0155C14.8155 15.9184 14.8505 15.8254 14.9024 15.7418C14.9544 15.6583 15.0223 15.5858 15.1023 15.5284C16.0346 14.8504 16.7102 13.877 17.0193 12.7664C17.1366 12.4355 17.1815 12.0832 17.1512 11.7334C17.1208 11.3835 17.0158 11.0443 16.8433 10.7384C16.6704 10.5079 16.4336 10.3332 16.1623 10.2361C15.891 10.1391 15.5971 10.1239 15.3173 10.1924C15.0909 10.2552 14.8847 10.3758 14.719 10.5423C14.5533 10.7089 14.4338 10.9157 14.3723 11.1424C14.2974 11.3837 14.2856 11.64 14.3382 11.8871C14.3907 12.1341 14.5057 12.3636 14.6723 12.5534C14.9452 12.8531 15.3255 13.0328 15.7303 13.0534C15.9288 13.063 16.1155 13.1509 16.2493 13.2979C16.3831 13.4449 16.4532 13.6389 16.4443 13.8375C16.4421 13.9366 16.4198 14.0342 16.3787 14.1245C16.3376 14.2148 16.2786 14.2957 16.2053 14.3625C16.132 14.4293 16.0459 14.4805 15.9522 14.5129C15.8585 14.5454 15.7592 14.5585 15.6603 14.5514C15.2594 14.5322 14.8664 14.4333 14.5041 14.2605C14.1419 14.0878 13.8176 13.8447 13.5503 13.5454C13.214 13.1655 12.9809 12.7056 12.8732 12.2097C12.7655 11.7139 12.7869 11.1987 12.9353 10.7134C13.0695 10.2426 13.3223 9.81421 13.6695 9.46911C14.0167 9.124 14.4467 8.87381 14.9183 8.74245C15.1628 8.67639 15.415 8.6434 15.6683 8.64443Z" fill="#000000" />
</svg>