<svg width="24px"  height="24px"  viewBox="0 0 25 25" fill="none" xmlns="http://www.w3.org/2000/svg">
<path d="M16.717 22.5156H8.28299C4.97399 22.5156 2.75 20.1946 2.75 16.7396V8.79163C2.75 5.33663 4.97399 3.01562 8.28299 3.01562H16.718C20.026 3.01562 22.25 5.33663 22.25 8.79163V16.7396C22.25 20.1946 20.026 22.5156 16.717 22.5156ZM8.28299 4.51562C5.83299 4.51562 4.25 6.19463 4.25 8.79163V16.7396C4.25 19.3396 5.83299 21.0156 8.28299 21.0156H16.717C19.167 21.0156 20.75 19.3366 20.75 16.7396V8.79163C20.75 6.19163 19.167 4.51562 16.718 4.51562H8.28299Z" fill="#000000" />
<path d="M9.25065 16.98C8.77231 16.9802 8.30075 16.8669 7.8748 16.6492C7.44885 16.4315 7.08068 16.1158 6.80064 15.728C6.48948 15.2322 6.2922 14.6736 6.22303 14.0924C6.15386 13.5112 6.21453 12.9219 6.40065 12.367C6.80409 10.8863 7.70488 9.58972 8.95164 8.69497C9.11316 8.5792 9.31407 8.53234 9.51014 8.56469C9.70621 8.59704 9.88138 8.70596 9.99714 8.86748C10.1129 9.029 10.1598 9.22988 10.1274 9.42595C10.0951 9.62202 9.98617 9.79722 9.82466 9.91298C8.86284 10.6111 8.16622 11.6147 7.84864 12.76C7.72725 13.1027 7.68061 13.4674 7.71183 13.8296C7.74305 14.1918 7.8514 14.5431 8.02964 14.86C8.21027 15.0992 8.45697 15.2804 8.73933 15.3812C9.02168 15.4819 9.32737 15.4978 9.61866 15.427C9.85464 15.3614 10.0696 15.2357 10.2424 15.0622C10.4152 14.8886 10.54 14.6732 10.6047 14.437C10.6822 14.1859 10.6942 13.9192 10.6394 13.6622C10.5846 13.4052 10.4649 13.1666 10.2916 12.969C10.1517 12.8137 9.98255 12.6874 9.7938 12.5975C9.60506 12.5076 9.40045 12.4558 9.19166 12.445C8.99275 12.4358 8.80561 12.348 8.67143 12.2009C8.53725 12.0538 8.467 11.8594 8.47615 11.6605C8.4853 11.4616 8.5731 11.2744 8.72023 11.1402C8.86735 11.0061 9.06175 10.9358 9.26066 10.945C9.66994 10.9644 10.0712 11.0652 10.4411 11.2415C10.8109 11.4179 11.1419 11.6662 11.4147 11.972C11.7578 12.3594 11.9958 12.8283 12.1059 13.3339C12.216 13.8395 12.1946 14.365 12.0437 14.86C11.9062 15.3399 11.6482 15.7767 11.294 16.1285C10.9399 16.4804 10.5015 16.7357 10.0206 16.87C9.77018 16.9415 9.51113 16.9785 9.25065 16.98Z" fill="#000000" />
<path d="M15.8773 16.98C15.3991 16.9801 14.9277 16.8667 14.5019 16.6491C14.0761 16.4314 13.7082 16.1157 13.4283 15.728C13.1167 15.2324 12.9191 14.6738 12.8499 14.0925C12.7808 13.5112 12.8417 12.9218 13.0283 12.367C13.4317 10.8863 14.3325 9.58972 15.5793 8.69497C15.7408 8.5792 15.9417 8.53234 16.1378 8.56469C16.3338 8.59704 16.509 8.70596 16.6248 8.86748C16.7405 9.029 16.7874 9.22988 16.7551 9.42595C16.7227 9.62202 16.6138 9.79722 16.4523 9.91298C15.4905 10.6111 14.7939 11.6147 14.4763 12.76C14.3549 13.1027 14.3082 13.4674 14.3394 13.8296C14.3707 14.1918 14.479 14.5431 14.6573 14.86C14.8382 15.0989 15.0849 15.2799 15.3672 15.3806C15.6494 15.4813 15.955 15.4974 16.2463 15.427C16.4822 15.3614 16.6972 15.2357 16.87 15.0622C17.0428 14.8886 17.1676 14.6732 17.2323 14.437C17.3098 14.1859 17.3218 13.9192 17.267 13.6622C17.2122 13.4052 17.0925 13.1666 16.9193 12.969C16.6365 12.6555 16.2409 12.467 15.8193 12.445C15.6204 12.4358 15.4332 12.348 15.299 12.2009C15.1649 12.0538 15.0946 11.8594 15.1038 11.6605C15.1129 11.4616 15.2007 11.2744 15.3478 11.1402C15.495 11.0061 15.6894 10.9358 15.8883 10.945C16.2975 10.9644 16.6988 11.0652 17.0687 11.2415C17.4385 11.4179 17.7695 11.6662 18.0423 11.972C18.3854 12.3594 18.6234 12.8283 18.7335 13.3339C18.8436 13.8395 18.8222 14.365 18.6713 14.86C18.5001 15.468 18.135 16.0035 17.6316 16.3851C17.1282 16.7667 16.5139 16.9735 15.8823 16.974L15.8773 16.98Z" fill="#000000" />
</svg>