<svg width="24px"  height="24px"  viewBox="0 0 25 25" fill="none" xmlns="http://www.w3.org/2000/svg">
<path d="M12.5 22.5156C10.5716 22.5156 8.68657 21.9438 7.08319 20.8725C5.47981 19.8011 4.23014 18.2784 3.49219 16.4968C2.75423 14.7152 2.56114 12.7548 2.93735 10.8635C3.31355 8.97218 4.24215 7.2349 5.60571 5.87134C6.96927 4.50777 8.70655 3.57918 10.5979 3.20297C12.4892 2.82676 14.4496 3.01986 16.2312 3.75781C18.0127 4.49577 19.5355 5.74543 20.6068 7.34881C21.6782 8.95219 22.25 10.8373 22.25 12.7656C22.2471 15.3506 21.2189 17.8289 19.3911 19.6567C17.5632 21.4846 15.085 22.5127 12.5 22.5156ZM12.5 4.51562C10.8683 4.51562 9.27324 4.99948 7.91653 5.906C6.55983 6.81253 5.50241 8.101 4.87799 9.60849C4.25357 11.116 4.09018 12.7748 4.40851 14.3751C4.72683 15.9755 5.5126 17.4455 6.66638 18.5992C7.82016 19.753 9.29016 20.5388 10.8905 20.8571C12.4908 21.1754 14.1496 21.0121 15.6571 20.3876C17.1646 19.7632 18.4531 18.7058 19.3596 17.3491C20.2661 15.9924 20.75 14.3973 20.75 12.7656C20.7476 10.5783 19.8777 8.48129 18.331 6.93463C16.7843 5.38797 14.6873 4.51801 12.5 4.51562Z" fill="#000000" />
<path d="M15.787 16.8876C15.3185 16.8874 14.8566 16.7761 14.4394 16.5628C14.0222 16.3495 13.6615 16.0403 13.387 15.6606C13.0811 15.1762 12.8866 14.6299 12.8174 14.0611C12.7482 13.4923 12.8061 12.9153 12.987 12.3716C13.3809 10.9251 14.2609 9.65847 15.479 8.78463C15.5591 8.72731 15.6497 8.68633 15.7457 8.66402C15.8416 8.64172 15.941 8.63851 16.0382 8.65462C16.1354 8.67074 16.2285 8.70582 16.3121 8.7579C16.3957 8.80997 16.4682 8.87802 16.5255 8.95812C16.5829 9.03823 16.6238 9.12884 16.6461 9.22478C16.6684 9.32073 16.6716 9.42012 16.6555 9.5173C16.6394 9.61447 16.6043 9.70752 16.5522 9.79113C16.5002 9.87474 16.4322 9.94731 16.352 10.0046C15.4201 10.6819 14.7453 11.6553 14.438 12.7656C14.3202 13.0966 14.2748 13.449 14.3048 13.799C14.3349 14.149 14.4396 14.4885 14.612 14.7946C14.7852 15.0248 15.0221 15.1991 15.2933 15.2962C15.5645 15.3932 15.8581 15.4087 16.138 15.3406C16.3646 15.2777 16.5709 15.1569 16.7368 14.9902C16.9026 14.8234 17.0223 14.6165 17.084 14.3896C17.1586 14.1485 17.1701 13.8924 17.1176 13.6456C17.0651 13.3987 16.9502 13.1695 16.784 12.9796C16.5111 12.68 16.1308 12.5002 15.726 12.4796C15.6276 12.4751 15.5311 12.4513 15.4419 12.4094C15.3528 12.3676 15.2727 12.3085 15.2064 12.2357C15.1401 12.1629 15.0888 12.0777 15.0554 11.985C15.0221 11.8924 15.0073 11.794 15.012 11.6956C15.0277 11.4993 15.1175 11.3164 15.2631 11.1838C15.4086 11.0513 15.5992 10.979 15.796 10.9816C16.1969 11.0008 16.59 11.0996 16.9522 11.2723C17.3145 11.4451 17.6388 11.6882 17.906 11.9876C18.2419 12.3678 18.4747 12.8278 18.5824 13.3235C18.6901 13.8193 18.6689 14.3343 18.521 14.8196C18.3865 15.2904 18.1334 15.7188 17.7861 16.0638C17.4387 16.4089 17.0087 16.6591 16.537 16.7906C16.2925 16.8563 16.0403 16.889 15.787 16.8876Z" fill="#000000" />
<path d="M9.33174 16.8868C8.863 16.887 8.40094 16.7757 7.98365 16.5622C7.56637 16.3487 7.20582 16.0391 6.93174 15.6588C6.62598 15.1747 6.43149 14.6287 6.36231 14.0603C6.29314 13.4918 6.35103 12.9152 6.53175 12.3718C6.92663 10.9255 7.80682 9.65905 9.02473 8.7848C9.1047 8.72748 9.1952 8.68649 9.29102 8.66413C9.38685 8.64178 9.48612 8.6385 9.5832 8.65452C9.68028 8.67054 9.77326 8.70554 9.85682 8.75749C9.94038 8.80944 10.0129 8.87734 10.0702 8.95732C10.1276 9.03729 10.1686 9.12776 10.1909 9.22358C10.2133 9.3194 10.2165 9.4187 10.2005 9.51579C10.1845 9.61287 10.1495 9.70584 10.0976 9.78941C10.0456 9.87297 9.97772 9.9455 9.89774 10.0028C8.96544 10.6808 8.28982 11.6542 7.98072 12.7648C7.86344 13.0958 7.81846 13.4481 7.84882 13.7979C7.87918 14.1477 7.9842 14.487 8.15675 14.7928C8.32959 15.0234 8.56638 15.198 8.83769 15.2951C9.109 15.3922 9.40287 15.4074 9.68275 15.3388C9.90915 15.2761 10.1153 15.1555 10.281 14.9889C10.4467 14.8223 10.5662 14.6155 10.6277 14.3888C10.7026 14.1476 10.7144 13.8912 10.6618 13.6442C10.6093 13.3971 10.4943 13.1677 10.3277 12.9778C10.0548 12.6782 9.67452 12.4985 9.26972 12.4778C9.07119 12.4682 8.88455 12.3803 8.75071 12.2333C8.61687 12.0864 8.54677 11.8924 8.55573 11.6938C8.55792 11.5947 8.58024 11.497 8.62132 11.4067C8.66239 11.3165 8.72137 11.2355 8.79469 11.1687C8.868 11.102 8.9541 11.0508 9.0478 11.0183C9.14149 10.9858 9.24082 10.9727 9.33973 10.9798C9.74059 10.9991 10.1336 11.098 10.4959 11.2707C10.8581 11.4434 11.1824 11.6865 11.4497 11.9858C11.786 12.3658 12.0191 12.8257 12.1268 13.3215C12.2345 13.8174 12.2131 14.3326 12.0647 14.8178C11.9305 15.2886 11.6777 15.717 11.3305 16.0621C10.9833 16.4072 10.5533 16.6574 10.0817 16.7888C9.83724 16.8549 9.58499 16.8878 9.33174 16.8868Z" fill="#000000" />
</svg>