<svg width="24px"  height="24px"  viewBox="0 0 25 25" fill="none" xmlns="http://www.w3.org/2000/svg">
<path fill-rule="evenodd" clip-rule="evenodd" d="M7.32276 6.36719C7.73697 6.36718 8.07277 6.70296 8.07278 7.11717L8.07301 16.6022L9.61665 15.0586C9.90955 14.7657 10.3844 14.7657 10.6773 15.0586C10.9702 15.3515 10.9702 15.8263 10.6773 16.1192L7.85339 18.9431C7.71272 19.0838 7.52193 19.1628 7.323 19.1628C7.12407 19.1628 6.93329 19.0838 6.79265 18.9431L3.96959 16.1191C3.67674 15.8262 3.67681 15.3513 3.96975 15.0585C4.26269 14.7656 4.73756 14.7657 5.03041 15.0586L6.57301 16.6017L6.57278 7.11721C6.57277 6.70299 6.90854 6.3672 7.32276 6.36719Z" fill="#000000" />
<path fill-rule="evenodd" clip-rule="evenodd" d="M11.2793 7.11719C11.2793 6.70297 11.6151 6.36719 12.0293 6.36719H20.5002C20.9144 6.36719 21.2502 6.70297 21.2502 7.11719C21.2502 7.5314 20.9144 7.86719 20.5002 7.86719H12.0293C11.6151 7.86719 11.2793 7.5314 11.2793 7.11719ZM13.1611 12.7653C13.1611 12.3511 13.4969 12.0153 13.9111 12.0153H20.5C20.9142 12.0153 21.25 12.3511 21.25 12.7653C21.25 13.1795 20.9142 13.5153 20.5 13.5153H13.9111C13.4969 13.5153 13.1611 13.1795 13.1611 12.7653ZM13.1611 18.4125C13.1611 17.9983 13.4969 17.6625 13.9111 17.6625H20.5C20.9142 17.6625 21.25 17.9983 21.25 18.4125C21.25 18.8267 20.9142 19.1625 20.5 19.1625H13.9111C13.4969 19.1625 13.1611 18.8267 13.1611 18.4125Z" fill="#000000" />
</svg>