<svg width="24px"  height="24px"  viewBox="0 0 25 25" fill="none" xmlns="http://www.w3.org/2000/svg">
<path fill-rule="evenodd" clip-rule="evenodd" d="M18.2132 5.06448C18.5044 4.7806 18.9689 4.78059 19.2601 5.06445L22.0235 7.7576C22.3201 8.0467 22.3262 8.52153 22.0371 8.81817C21.748 9.11481 21.2732 9.12092 20.9766 8.83182L19.4867 7.37978V14.7425C19.4867 15.1567 19.1509 15.4925 18.7367 15.4925C18.3225 15.4925 17.9867 15.1567 17.9867 14.7425V7.37992L16.4971 8.83179C16.2005 9.1209 15.7257 9.11482 15.4366 8.8182C15.1474 8.52158 15.1535 8.04674 15.4501 7.75763L18.2132 5.06448Z" fill="#000000" />
<path fill-rule="evenodd" clip-rule="evenodd" d="M2.7519 6.17188C2.7519 5.75766 3.08769 5.42188 3.5019 5.42188H7.41902C7.83324 5.42188 8.16902 5.75766 8.16902 6.17188C8.16902 6.58609 7.83324 6.92188 7.41902 6.92188H3.5019C3.08769 6.92188 2.7519 6.58609 2.7519 6.17188ZM2.75 10.7573C2.75 10.3431 3.08579 10.0073 3.5 10.0073H11.3352C11.7494 10.0073 12.0852 10.3431 12.0852 10.7573C12.0852 11.1715 11.7494 11.5073 11.3352 11.5073H3.5C3.08579 11.5073 2.75 11.1715 2.75 10.7573ZM2.75 15.3437C2.75 14.9295 3.08579 14.5937 3.5 14.5937H15.2533C15.6675 14.5937 16.0033 14.9295 16.0033 15.3437C16.0033 15.7579 15.6675 16.0937 15.2533 16.0937H3.5C3.08579 16.0937 2.75 15.7579 2.75 15.3437ZM2.75 19.9301C2.75 19.5159 3.08579 19.1801 3.5 19.1801H19.1704C19.5847 19.1801 19.9204 19.5159 19.9204 19.9301C19.9204 20.3443 19.5847 20.6801 19.1704 20.6801H3.5C3.08579 20.6801 2.75 20.3443 2.75 19.9301Z" fill="#000000" />
</svg>