<svg width="24px"  height="24px"  viewBox="0 0 25 25" fill="none" xmlns="http://www.w3.org/2000/svg">
<path fill-rule="evenodd" clip-rule="evenodd" d="M7.74792 5.97656C7.94741 5.97656 8.13867 6.05602 8.27942 6.19738L11.3304 9.2616C11.6226 9.55513 11.6216 10.03 11.3281 10.3223C11.0345 10.6145 10.5597 10.6135 10.2674 10.32L8.49794 8.54279V14.3227C8.49794 14.7369 8.16216 15.0727 7.74794 15.0727C7.33373 15.0727 6.99794 14.7369 6.99794 14.3227V8.54291L5.22877 10.3199C4.93652 10.6135 4.46165 10.6145 4.16811 10.3223C3.87457 10.03 3.87352 9.55517 4.16576 9.26162L7.21644 6.19741C7.35718 6.05604 7.54844 5.97657 7.74792 5.97656Z" fill="#000000" />
<path fill-rule="evenodd" clip-rule="evenodd" d="M13.2931 7.24219C13.2931 6.82797 13.6289 6.49219 14.0431 6.49219H20.4993C20.9135 6.49219 21.2493 6.82797 21.2493 7.24219C21.2493 7.6564 20.9135 7.99219 20.4993 7.99219H14.0431C13.6289 7.99219 13.2931 7.6564 13.2931 7.24219ZM13.2931 13.118C13.2931 12.7038 13.6289 12.368 14.0431 12.368H20.4993C20.9135 12.368 21.2493 12.7038 21.2493 13.118C21.2493 13.5322 20.9135 13.868 20.4993 13.868H14.0431C13.6289 13.868 13.2931 13.5322 13.2931 13.118ZM3.75 18.803C3.75 18.3888 4.08579 18.053 4.5 18.053H20.5C20.9142 18.053 21.25 18.3888 21.25 18.803C21.25 19.2172 20.9142 19.553 20.5 19.553H4.5C4.08579 19.553 3.75 19.2172 3.75 18.803Z" fill="#000000" />
</svg>