<svg width="24px"  height="24px"  viewBox="0 0 25 25" fill="none" xmlns="http://www.w3.org/2000/svg">
<path fill-rule="evenodd" clip-rule="evenodd" d="M17.6766 6.36719C17.8755 6.3672 18.0663 6.44625 18.2069 6.58694L21.03 9.41092C21.3229 9.70386 21.3228 10.1787 21.0299 10.4716C20.7369 10.7644 20.2621 10.7644 19.9692 10.4714L18.4266 8.92833L18.4271 18.4122C18.4271 18.8264 18.0913 19.1622 17.6771 19.1622C17.2629 19.1623 16.9271 18.8265 16.9271 18.4123L16.9266 8.92776L15.3829 10.4715C15.09 10.7644 14.6151 10.7644 14.3222 10.4715C14.0293 10.1786 14.0293 9.70373 14.3222 9.41084L17.1462 6.58686C17.2869 6.44619 17.4776 6.36717 17.6766 6.36719Z" fill="#000000" />
<path fill-rule="evenodd" clip-rule="evenodd" d="M3.75 7.11719C3.75 6.70297 4.08579 6.36719 4.5 6.36719H11.089C11.5032 6.36719 11.839 6.70297 11.839 7.11719C11.839 7.5314 11.5032 7.86719 11.089 7.86719H4.5C4.08579 7.86719 3.75 7.5314 3.75 7.11719ZM3.75 12.7654C3.75 12.3512 4.08579 12.0154 4.5 12.0154H11.089C11.5032 12.0154 11.839 12.3512 11.839 12.7654C11.839 13.1796 11.5032 13.5154 11.089 13.5154H4.5C4.08579 13.5154 3.75 13.1796 3.75 12.7654ZM3.75 18.4127C3.75 17.9985 4.08579 17.6627 4.5 17.6627H12.9711C13.3853 17.6627 13.7211 17.9985 13.7211 18.4127C13.7211 18.8269 13.3853 19.1627 12.9711 19.1627H4.5C4.08579 19.1627 3.75 18.8269 3.75 18.4127Z" fill="#000000" />
</svg>