<svg width="24px"  height="24px"  viewBox="0 0 25 25" fill="none" xmlns="http://www.w3.org/2000/svg">
<path fill-rule="evenodd" clip-rule="evenodd" d="M7.7471 10.457C8.16131 10.457 8.4971 10.7928 8.4971 11.207V16.9886L10.2674 15.2108C10.5597 14.9173 11.0346 14.9162 11.3281 15.2085C11.6216 15.5008 11.6226 15.9757 11.3303 16.2692L8.27996 19.3325C8.13923 19.4739 7.94801 19.5533 7.74856 19.5533C7.72454 19.5533 7.70065 19.5522 7.67694 19.5499C7.48457 19.5321 7.31327 19.4416 7.19074 19.3061L4.16589 16.2692C3.87357 15.9758 3.87451 15.5009 4.16799 15.2086C4.46146 14.9163 4.93633 14.9172 5.22864 15.2107L6.9971 16.9862V11.207C6.9971 10.7928 7.33288 10.457 7.7471 10.457Z" fill="#000000" />
<path fill-rule="evenodd" clip-rule="evenodd" d="M3.75 6.72656C3.75 6.31235 4.08579 5.97656 4.5 5.97656H20.5C20.9142 5.97656 21.25 6.31235 21.25 6.72656C21.25 7.14078 20.9142 7.47656 20.5 7.47656H4.5C4.08579 7.47656 3.75 7.14078 3.75 6.72656ZM13.2931 12.4115C13.2931 11.9973 13.6289 11.6615 14.0431 11.6615H20.4993C20.9135 11.6615 21.2493 11.9973 21.2493 12.4115C21.2493 12.8257 20.9135 13.1615 20.4993 13.1615H14.0431C13.6289 13.1615 13.2931 12.8257 13.2931 12.4115ZM13.2931 18.2882C13.2931 17.874 13.6289 17.5382 14.0431 17.5382H20.4993C20.9135 17.5382 21.2493 17.874 21.2493 18.2882C21.2493 18.7024 20.9135 19.0382 20.4993 19.0382H14.0431C13.6289 19.0382 13.2931 18.7024 13.2931 18.2882Z" fill="#000000" />
</svg>