<svg width="24px"  height="24px"  viewBox="0 0 25 25" fill="none" xmlns="http://www.w3.org/2000/svg">
<path fill-rule="evenodd" clip-rule="evenodd" d="M18.2132 20.4668C18.5044 20.7506 18.9689 20.7507 19.2601 20.4668L22.0235 17.7737C22.3201 17.4846 22.3262 17.0097 22.0371 16.7131C21.748 16.4164 21.2732 16.4103 20.9766 16.6994L19.4867 18.1515V10.7888C19.4867 10.3745 19.1509 10.0388 18.7367 10.0388C18.3225 10.0388 17.9867 10.3745 17.9867 10.7888V18.1513L16.4971 16.6995C16.2005 16.4103 15.7257 16.4164 15.4366 16.7131C15.1474 17.0097 15.1535 17.4845 15.4501 17.7736L18.2132 20.4668Z" fill="#000000" />
<path fill-rule="evenodd" clip-rule="evenodd" d="M2.7519 19.3594C2.7519 19.7736 3.08769 20.1094 3.5019 20.1094H7.41902C7.83324 20.1094 8.16902 19.7736 8.16902 19.3594C8.16902 18.9452 7.83324 18.6094 7.41902 18.6094H3.5019C3.08769 18.6094 2.7519 18.9452 2.7519 19.3594ZM2.75 14.7739C2.75 15.1882 3.08579 15.5239 3.5 15.5239H11.3352C11.7494 15.5239 12.0852 15.1882 12.0852 14.7739C12.0852 14.3597 11.7494 14.0239 11.3352 14.0239H3.5C3.08579 14.0239 2.75 14.3597 2.75 14.7739ZM2.75 10.1875C2.75 10.6018 3.08579 10.9375 3.5 10.9375H15.2533C15.6675 10.9375 16.0033 10.6018 16.0033 10.1875C16.0033 9.77334 15.6675 9.43755 15.2533 9.43755H3.5C3.08579 9.43755 2.75 9.77334 2.75 10.1875ZM2.75 5.60116C2.75 6.01537 3.08579 6.35116 3.5 6.35116H19.1704C19.5847 6.35116 19.9204 6.01537 19.9204 5.60116C19.9204 5.18695 19.5847 4.85116 19.1704 4.85116H3.5C3.08579 4.85116 2.75 5.18695 2.75 5.60116Z" fill="#000000" />
</svg>