<svg width="24px"  height="24px"  viewBox="0 0 25 25" fill="none" xmlns="http://www.w3.org/2000/svg">
<path fill-rule="evenodd" clip-rule="evenodd" d="M4.24079 4.66251C5.22556 3.60646 6.62779 3.01562 8.28313 3.01562H16.7178C18.3771 3.01562 19.7795 3.60617 20.7634 4.66295C21.7416 5.71367 22.25 7.16418 22.25 8.792V16.7392C22.25 18.3666 21.7416 19.8171 20.7633 20.8679C19.7793 21.9248 18.3766 22.5156 16.7169 22.5156H8.28313C6.62379 22.5156 5.22117 21.9248 4.23714 20.868C3.25872 19.8172 2.75 18.3667 2.75 16.7392V8.792C2.75 7.16314 3.26145 5.71274 4.24079 4.66251ZM5.33783 5.6855C4.66045 6.41191 4.25 7.47471 4.25 8.792V16.7392C4.25 18.0569 4.65879 19.1197 5.33492 19.8458C6.00542 20.5659 6.99437 21.0156 8.28313 21.0156H16.7169C18.0062 21.0156 18.9951 20.5658 19.6654 19.8458C20.3414 19.1197 20.75 18.057 20.75 16.7392V8.792C20.75 7.47366 20.3414 6.41098 19.6655 5.68506C18.9953 4.96519 18.0067 4.51562 16.7178 4.51562H8.28313C6.99913 4.51562 6.00979 4.9649 5.33783 5.6855Z" fill="#000000" />
<path fill-rule="evenodd" clip-rule="evenodd" d="M11.9764 6.95892C12.2676 6.67518 12.7319 6.67515 13.0231 6.95884L15.4924 9.36402C15.7891 9.65304 15.7954 10.1279 15.5063 10.4246C15.2173 10.7213 14.7425 10.7276 14.4458 10.4385L13.2498 9.27359L13.2497 16.253L14.4457 15.0876C14.7423 14.7986 15.2172 14.8047 15.5063 15.1014C15.7953 15.3981 15.7892 15.8729 15.4925 16.162L13.0231 18.5681C12.7318 18.8519 12.2674 18.8519 11.9762 18.568L9.50774 16.1618C9.21113 15.8727 9.20506 15.3979 9.49419 15.1013C9.78332 14.8047 10.2582 14.7986 10.5548 15.0877L11.7497 16.2525L11.7498 9.274L10.5546 10.4385C10.258 10.7275 9.78313 10.7214 9.49407 10.4247C9.20501 10.128 9.21118 9.65317 9.50786 9.36411L11.9764 6.95892Z" fill="#000000" />
</svg>