<svg width="24px"  height="24px"  viewBox="0 0 25 25" fill="none" xmlns="http://www.w3.org/2000/svg">
<path fill-rule="evenodd" clip-rule="evenodd" d="M4.24079 4.66251C5.22556 3.60646 6.62779 3.01562 8.28313 3.01562H16.7178C18.3771 3.01562 19.7795 3.60617 20.7634 4.66295C21.7416 5.71367 22.25 7.16418 22.25 8.792V16.7392C22.25 18.3666 21.7416 19.8171 20.7633 20.8679C19.7793 21.9248 18.3766 22.5156 16.7169 22.5156H8.28313C6.62379 22.5156 5.22117 21.9248 4.23714 20.868C3.25872 19.8172 2.75 18.3667 2.75 16.7392V8.792C2.75 7.16314 3.26145 5.71274 4.24079 4.66251ZM5.33783 5.6855C4.66045 6.41191 4.25 7.47471 4.25 8.792V16.7392C4.25 18.0569 4.65879 19.1197 5.33492 19.8458C6.00542 20.5659 6.99437 21.0156 8.28313 21.0156H16.7169C18.0062 21.0156 18.9951 20.5658 19.6654 19.8458C20.3414 19.1197 20.75 18.057 20.75 16.7392V8.792C20.75 7.47366 20.3414 6.41098 19.6655 5.68506C18.9953 4.96519 18.0067 4.51562 16.7178 4.51562H8.28313C6.99913 4.51562 6.00979 4.9649 5.33783 5.6855Z" fill="#000000" />
<path fill-rule="evenodd" clip-rule="evenodd" d="M9.21677 14.3711C9.50585 14.0744 9.98068 14.0683 10.2773 14.3574L12.4988 16.5221L14.7211 14.3573C15.0178 14.0683 15.4926 14.0745 15.7816 14.3712C16.0707 14.6679 16.0644 15.1427 15.7677 15.4318L13.022 18.1065C12.7307 18.3902 12.2664 18.3902 11.9752 18.1064L9.23048 15.4317C8.93382 15.1426 8.92768 14.6678 9.21677 14.3711Z" fill="#000000" />
<path fill-rule="evenodd" clip-rule="evenodd" d="M11.9762 7.4238C12.2675 7.13995 12.7319 7.13999 13.0232 7.42389L15.7679 10.0996C16.0645 10.3887 16.0706 10.8635 15.7814 11.1601C15.4923 11.4567 15.0175 11.4628 14.7209 11.1737L12.4995 9.00824L10.2773 11.1738C9.98069 11.4628 9.50585 11.4567 9.21677 11.16C8.92768 10.8634 8.93382 10.3886 9.23047 10.0995L11.9762 7.4238Z" fill="#000000" />
</svg>