<svg width="24px"  height="24px"  viewBox="0 0 25 25" fill="none" xmlns="http://www.w3.org/2000/svg">
<path fill-rule="evenodd" clip-rule="evenodd" d="M6.06543 21.7656C6.06543 21.3514 6.40122 21.0156 6.81543 21.0156H18.1836C18.5979 21.0156 18.9336 21.3514 18.9336 21.7656C18.9336 22.1798 18.5979 22.5156 18.1836 22.5156H6.81543C6.40122 22.5156 6.06543 22.1798 6.06543 21.7656Z" fill="#000000" />
<path fill-rule="evenodd" clip-rule="evenodd" d="M6.06543 3.76562C6.06543 3.35141 6.40122 3.01562 6.81543 3.01562H18.1836C18.5979 3.01562 18.9336 3.35141 18.9336 3.76562C18.9336 4.17984 18.5979 4.51562 18.1836 4.51562H6.81543C6.40122 4.51562 6.06543 4.17984 6.06543 3.76562Z" fill="#000000" />
<path fill-rule="evenodd" clip-rule="evenodd" d="M9.25574 14.7384C9.54478 14.4417 10.0196 14.4355 10.3163 14.7245L12.4666 16.8192L14.616 14.7246C14.9127 14.4355 15.3875 14.4416 15.6766 14.7383C15.9657 15.0349 15.9595 15.5098 15.6629 15.7988L12.9901 18.4035C12.6989 18.6873 12.2346 18.6873 11.9434 18.4036L9.26962 15.7989C8.97292 15.5099 8.96671 15.0351 9.25574 14.7384Z" fill="#000000" />
<path fill-rule="evenodd" clip-rule="evenodd" d="M11.9423 7.13084C12.2335 6.84705 12.6978 6.84701 12.9891 7.13074L15.6628 9.73539C15.9595 10.0244 15.9657 10.4993 15.6767 10.796C15.3876 11.0927 14.9128 11.0989 14.6161 10.8098L12.4658 8.71511L10.3164 10.8097C10.0198 11.0988 9.54493 11.0927 9.25584 10.7961C8.96675 10.4994 8.97288 10.0246 9.26953 9.73549L11.9423 7.13084Z" fill="#000000" />
</svg>