<svg width="24px"  height="24px"  viewBox="0 0 25 25" fill="none" xmlns="http://www.w3.org/2000/svg">
<path fill-rule="evenodd" clip-rule="evenodd" d="M4.24023 4.66259C5.22477 3.60648 6.6268 3.01562 8.28216 3.01562H16.7169C18.3761 3.01562 19.7787 3.60615 20.7628 4.66287C21.7413 5.71356 22.25 7.16408 22.25 8.792V16.7392C22.25 18.3667 21.7413 19.8172 20.7627 20.868C19.7785 21.9248 18.3756 22.5156 16.7159 22.5156H8.28216C6.6228 22.5156 5.22038 21.9248 4.23657 20.8679C3.25842 19.8171 2.75 18.3666 2.75 16.7392V8.792C2.75 7.16324 3.26114 5.71286 4.24023 4.66259ZM5.33742 5.68542C4.66027 6.4118 4.25 7.4746 4.25 8.792V16.7392C4.25 18.0571 4.65861 19.1198 5.33451 19.8459C6.00475 20.5659 6.99341 21.0156 8.28216 21.0156H16.7159C18.0052 21.0156 18.9944 20.5658 19.665 19.8457C20.3412 19.1196 20.75 18.0569 20.75 16.7392V8.792C20.75 7.47377 20.3412 6.4111 19.6651 5.68514C18.9947 4.9652 18.0057 4.51562 16.7169 4.51562H8.28216C6.99817 4.51562 6.00912 4.96488 5.33742 5.68542Z" fill="#000000" />
<path fill-rule="evenodd" clip-rule="evenodd" d="M11.9743 13.3965C12.2656 13.1126 12.73 13.1126 13.0213 13.3964L15.4906 15.8026C15.7872 16.0917 15.7934 16.5665 15.5043 16.8632C15.2152 17.1598 14.7404 17.166 14.4437 16.8769L13.2478 15.7116V18.3363C13.2478 18.7505 12.9121 19.0863 12.4978 19.0863C12.0836 19.0863 11.7478 18.7505 11.7478 18.3363V15.712L10.5528 16.8768C10.2562 17.1659 9.78135 17.1599 9.49223 16.8633C9.2031 16.5666 9.20918 16.0918 9.5058 15.8027L11.9743 13.3965Z" fill="#000000" />
<path fill-rule="evenodd" clip-rule="evenodd" d="M12.4978 6.44141C12.9121 6.44141 13.2478 6.77719 13.2478 7.19141V9.80878L14.4438 8.64381C14.7405 8.35479 15.2154 8.36103 15.5044 8.65774C15.7934 8.95446 15.7872 9.42929 15.4905 9.71831L13.0212 12.1236C12.7299 12.4073 12.2656 12.4072 11.9744 12.1235L9.5059 9.71823C9.20923 9.42916 9.20306 8.95433 9.49213 8.65766C9.78119 8.36099 10.256 8.35482 10.5527 8.64389L11.7478 9.80839V7.19141C11.7478 6.77719 12.0836 6.44141 12.4978 6.44141Z" fill="#000000" />
</svg>