<svg width="24px"  height="24px"  viewBox="0 0 25 25" fill="none" xmlns="http://www.w3.org/2000/svg">
<path fill-rule="evenodd" clip-rule="evenodd" d="M6.06543 21.7656C6.06543 21.3514 6.40122 21.0156 6.81543 21.0156H18.1836C18.5979 21.0156 18.9336 21.3514 18.9336 21.7656C18.9336 22.1798 18.5979 22.5156 18.1836 22.5156H6.81543C6.40122 22.5156 6.06543 22.1798 6.06543 21.7656Z" fill="#000000" />
<path fill-rule="evenodd" clip-rule="evenodd" d="M6.06543 3.76562C6.06543 3.35141 6.40122 3.01562 6.81543 3.01562H18.1836C18.5979 3.01562 18.9336 3.35141 18.9336 3.76562C18.9336 4.17984 18.5979 4.51562 18.1836 4.51562H6.81543C6.40122 4.51562 6.06543 4.17984 6.06543 3.76562Z" fill="#000000" />
<path fill-rule="evenodd" clip-rule="evenodd" d="M11.9423 14.498C12.2335 14.2142 12.6978 14.2142 12.9891 14.4979L15.6628 17.1026C15.9595 17.3916 15.9657 17.8664 15.6767 18.1631C15.3876 18.4599 14.9128 18.4661 14.6161 18.177L12.4658 16.0823L10.3164 18.1769C10.0198 18.466 9.54493 18.4599 9.25584 18.1632C8.96675 17.8666 8.97288 17.3918 9.26953 17.1027L11.9423 14.498Z" fill="#000000" />
<path fill-rule="evenodd" clip-rule="evenodd" d="M9.25379 7.42587C9.54283 7.12917 10.0177 7.12296 10.3144 7.41199L12.4647 9.50673L14.6141 7.41209C14.9107 7.123 15.3855 7.12913 15.6746 7.42578C15.9637 7.72243 15.9576 8.19726 15.6609 8.48635L12.9882 11.091C12.697 11.3748 12.2327 11.3748 11.9414 11.0911L9.26767 8.48644C8.97097 8.19741 8.96476 7.72258 9.25379 7.42587Z" fill="#000000" />
</svg>