<svg width="24px"  height="24px"  viewBox="0 0 25 25" fill="none" xmlns="http://www.w3.org/2000/svg">
<path fill-rule="evenodd" clip-rule="evenodd" d="M4.24079 4.66251C5.22556 3.60646 6.62779 3.01562 8.28313 3.01562H16.7178C18.3771 3.01562 19.7795 3.60617 20.7634 4.66295C21.7416 5.71367 22.25 7.16418 22.25 8.792V16.7392C22.25 18.3666 21.7416 19.8171 20.7633 20.8679C19.7793 21.9248 18.3766 22.5156 16.7169 22.5156H8.28313C6.62379 22.5156 5.22117 21.9248 4.23714 20.868C3.25872 19.8172 2.75 18.3667 2.75 16.7392V8.792C2.75 7.16314 3.26145 5.71274 4.24079 4.66251ZM5.33783 5.6855C4.66045 6.41191 4.25 7.47471 4.25 8.792V16.7392C4.25 18.0569 4.65879 19.1197 5.33492 19.8458C6.00542 20.5659 6.99437 21.0156 8.28313 21.0156H16.7169C18.0062 21.0156 18.9951 20.5658 19.6654 19.8458C20.3414 19.1197 20.75 18.057 20.75 16.7392V8.792C20.75 7.47366 20.3414 6.41098 19.6655 5.68506C18.9953 4.96519 18.0067 4.51562 16.7178 4.51562H8.28313C6.99913 4.51562 6.00979 4.9649 5.33783 5.6855Z" fill="#000000" />
<path fill-rule="evenodd" clip-rule="evenodd" d="M11.9752 14.0293C12.2664 13.7455 12.7307 13.7454 13.022 14.0292L15.7677 16.7039C16.0644 16.9929 16.0707 17.4677 15.7816 17.7644C15.4926 18.0612 15.0178 18.0674 14.7211 17.7783L12.4988 15.6135L10.2773 17.7783C9.98068 18.0673 9.50585 18.0612 9.21677 17.7645C8.92768 17.4679 8.93382 16.9931 9.23048 16.704L11.9752 14.0293Z" fill="#000000" />
<path fill-rule="evenodd" clip-rule="evenodd" d="M9.21677 7.76563C9.50585 7.46898 9.98069 7.46284 10.2773 7.75192L12.4995 9.91743L14.7209 7.75202C15.0175 7.46288 15.4923 7.46893 15.7814 7.76553C16.0706 8.06214 16.0645 8.53697 15.7679 8.82611L13.0232 11.5018C12.7319 11.7857 12.2675 11.7857 11.9762 11.5019L9.23047 8.8262C8.93382 8.53712 8.92768 8.06228 9.21677 7.76563Z" fill="#000000" />
</svg>