<svg width="24px"  height="24px"  viewBox="0 0 25 25" fill="none" xmlns="http://www.w3.org/2000/svg">
<path fill-rule="evenodd" clip-rule="evenodd" d="M4.24079 4.66251C5.22556 3.60646 6.62779 3.01562 8.28313 3.01562H16.7178C18.3771 3.01562 19.7795 3.60617 20.7634 4.66295C21.7416 5.71367 22.25 7.16418 22.25 8.792V16.7392C22.25 18.3666 21.7416 19.8171 20.7633 20.8679C19.7793 21.9248 18.3766 22.5156 16.7169 22.5156H8.28313C6.62379 22.5156 5.22117 21.9248 4.23714 20.868C3.25872 19.8172 2.75 18.3667 2.75 16.7392V8.792C2.75 7.16314 3.26145 5.71274 4.24079 4.66251ZM5.33783 5.6855C4.66045 6.41191 4.25 7.47471 4.25 8.792V16.7392C4.25 18.0569 4.65879 19.1197 5.33492 19.8458C6.00542 20.5659 6.99437 21.0156 8.28313 21.0156H16.7169C18.0062 21.0156 18.9951 20.5658 19.6654 19.8458C20.3414 19.1197 20.75 18.057 20.75 16.7392V8.792C20.75 7.47366 20.3414 6.41098 19.6655 5.68506C18.9953 4.96519 18.0067 4.51562 16.7178 4.51562H8.28313C6.99913 4.51562 6.00979 4.9649 5.33783 5.6855Z" fill="#000000" />
<path fill-rule="evenodd" clip-rule="evenodd" d="M12.2992 12.5063C12.4425 12.1177 12.8737 11.9188 13.2624 12.0622C13.8511 12.2793 14.5201 12.5659 15.04 13.045C15.5957 13.557 15.9459 14.255 15.9459 15.1876C15.9459 17.0128 14.3275 18.3593 12.5018 18.3593C10.6772 18.3593 9.05762 17.0129 9.05762 15.1876C9.05762 14.7733 9.3934 14.4376 9.80762 14.4376C10.2218 14.4376 10.5576 14.7733 10.5576 15.1876C10.5576 16.0379 11.351 16.8593 12.5018 16.8593C13.6534 16.8593 14.4459 16.038 14.4459 15.1876C14.4459 14.6811 14.2762 14.3808 14.0235 14.1481C13.7351 13.8823 13.3076 13.6776 12.7434 13.4695C12.3547 13.3262 12.1559 12.895 12.2992 12.5063Z" fill="#000000" />
<path fill-rule="evenodd" clip-rule="evenodd" d="M7.51758 12.7656C7.51758 12.3514 7.85336 12.0156 8.26758 12.0156H16.7354C17.1496 12.0156 17.4854 12.3514 17.4854 12.7656C17.4854 13.1798 17.1496 13.5156 16.7354 13.5156H8.26758C7.85336 13.5156 7.51758 13.1798 7.51758 12.7656Z" fill="#000000" />
<path fill-rule="evenodd" clip-rule="evenodd" d="M12.5004 8.67188C11.4069 8.67188 10.7051 9.43979 10.7051 10.3436V10.348L10.7051 10.348C10.7045 10.4478 10.7169 10.5476 10.7413 10.6431C10.8435 11.0445 10.601 11.4527 10.1995 11.5549C9.79815 11.6572 9.38988 11.4146 9.28766 11.0132C9.23238 10.7961 9.20396 10.5698 9.20511 10.3414C9.20512 10.3407 9.20512 10.3399 9.20512 10.3392L9.95511 10.3436H9.20511C9.20511 10.3429 9.20511 10.3422 9.20511 10.3414C9.20627 8.57254 10.6174 7.17188 12.5004 7.17188C13.9404 7.17188 15.1155 7.99059 15.5825 9.19596C15.7322 9.58219 15.5404 10.0166 15.1542 10.1663C14.768 10.316 14.3336 10.1242 14.1839 9.73796C13.9504 9.13554 13.3489 8.67188 12.5004 8.67188Z" fill="#000000" />
</svg>