<svg width="24px"  height="24px"  viewBox="0 0 25 25" fill="none" xmlns="http://www.w3.org/2000/svg">
<path fill-rule="evenodd" clip-rule="evenodd" d="M4.9671 7.85323C4.52753 8.32548 4.25 9.02916 4.25 9.92621V15.6035C4.25 16.5011 4.52757 17.2047 4.96712 17.6767C5.40103 18.1427 6.04837 18.4438 6.91708 18.4438H18.0829C18.9511 18.4438 19.5985 18.1428 20.0326 17.6767C20.4723 17.2046 20.75 16.501 20.75 15.6035V9.92621C20.75 9.03033 20.4712 8.32653 20.0303 7.85374C19.5949 7.38676 18.947 7.08594 18.0829 7.08594H6.91611C6.04813 7.08594 5.40101 7.38708 4.9671 7.85323ZM3.86914 6.83124C4.61667 6.02815 5.6776 5.58594 6.91611 5.58594H18.0829C19.3185 5.58594 20.3792 6.02846 21.1273 6.83073C21.8701 7.62719 22.25 8.71852 22.25 9.92621V15.6035C22.25 16.8106 21.8724 17.9021 21.1302 18.699C20.3824 19.5019 19.3213 19.9438 18.0829 19.9438H6.91708C5.67833 19.9438 4.61713 19.502 3.86936 18.699C3.12724 17.902 2.75 16.8104 2.75 15.6035V9.92621C2.75 8.71969 3.12728 7.62824 3.86914 6.83124Z" fill="#000000" />
<path fill-rule="evenodd" clip-rule="evenodd" d="M12.8621 10.5616C12.7175 10.717 12.6035 10.9724 12.6035 11.344V14.1841C12.6035 14.5562 12.7176 14.8116 12.862 14.9667C13.0008 15.1158 13.2213 15.2311 13.563 15.2311H16.5783C16.92 15.2311 17.1405 15.1158 17.2793 14.9667C17.4237 14.8116 17.5378 14.5562 17.5378 14.1841V11.344C17.5378 10.9733 17.4236 10.7177 17.2784 10.5619C17.1387 10.412 16.9178 10.2969 16.5783 10.2969H13.563C13.2216 10.2969 13.0011 10.4123 12.8621 10.5616ZM11.7641 9.53967C12.2165 9.05361 12.8507 8.79688 13.563 8.79688H16.5783C17.2896 8.79688 17.9234 9.0539 18.3758 9.53933C18.8227 10.0189 19.0378 10.6619 19.0378 11.344V14.1841C19.0378 14.8656 18.824 15.5088 18.3771 15.9888C17.9246 16.4749 17.2903 16.7311 16.5783 16.7311H13.563C12.851 16.7311 12.2167 16.4749 11.7642 15.9888C11.3173 15.5088 11.1035 14.8656 11.1035 14.1841V11.344C11.1035 10.6627 11.3174 10.0196 11.7641 9.53967Z" fill="#000000" />
</svg>