<svg width="24px"  height="24px"  viewBox="0 0 25 25" fill="none" xmlns="http://www.w3.org/2000/svg">
<path fill-rule="evenodd" clip-rule="evenodd" d="M20.0329 7.85323C20.4725 8.32548 20.75 9.02916 20.75 9.92621V15.6035C20.75 16.5011 20.4724 17.2047 20.0329 17.6767C19.599 18.1427 18.9516 18.4438 18.0829 18.4438H6.91708C6.04893 18.4438 5.40153 18.1428 4.96743 17.6767C4.52772 17.2046 4.25 16.501 4.25 15.6035V9.92621C4.25 9.03033 4.52878 8.32653 4.96967 7.85374C5.40515 7.38676 6.05302 7.08594 6.91708 7.08594H18.0839C18.9519 7.08594 19.599 7.38708 20.0329 7.85323ZM21.1309 6.83124C20.3833 6.02815 19.3224 5.58594 18.0839 5.58594H6.91708C5.68147 5.58594 4.6208 6.02846 3.87265 6.83073C3.12992 7.62719 2.75 8.71852 2.75 9.92621V15.6035C2.75 16.8106 3.12757 17.9021 3.86978 18.699C4.6176 19.5019 5.67874 19.9438 6.91708 19.9438H18.0829C19.3217 19.9438 20.3829 19.502 21.1306 18.699C21.8728 17.902 22.25 16.8104 22.25 15.6035V9.92621C22.25 8.71969 21.8727 7.62824 21.1309 6.83124Z" fill="#000000" />
<path fill-rule="evenodd" clip-rule="evenodd" d="M12.1379 10.5616C12.2825 10.717 12.3965 10.9724 12.3965 11.344V14.1841C12.3965 14.5562 12.2824 14.8116 12.138 14.9667C11.9992 15.1158 11.7787 15.2311 11.437 15.2311H8.42173C8.08 15.2311 7.85954 15.1158 7.72074 14.9667C7.57631 14.8116 7.46221 14.5562 7.46221 14.1841V11.344C7.46221 10.9733 7.57644 10.7177 7.72161 10.5619C7.86132 10.412 8.08221 10.2969 8.42173 10.2969H11.437C11.7784 10.2969 11.9989 10.4123 12.1379 10.5616ZM13.2359 9.53967C12.7835 9.05361 12.1493 8.79688 11.437 8.79688H8.42173C7.71043 8.79688 7.07657 9.0539 6.62422 9.53933C6.17734 10.0189 5.96221 10.6619 5.96221 11.344V14.1841C5.96221 14.8656 6.17601 15.5088 6.62291 15.9888C7.07543 16.4749 7.70972 16.7311 8.42173 16.7311H11.437C12.149 16.7311 12.7833 16.4749 13.2358 15.9888C13.6827 15.5088 13.8965 14.8656 13.8965 14.1841V11.344C13.8965 10.6627 13.6826 10.0196 13.2359 9.53967Z" fill="#000000" />
</svg>