<svg width="24px"  height="24px"  viewBox="0 0 25 25" fill="none" xmlns="http://www.w3.org/2000/svg">
<path fill-rule="evenodd" clip-rule="evenodd" d="M2.99609 6.06641C2.99609 5.65219 3.33188 5.31641 3.74609 5.31641H21.2534C21.6676 5.31641 22.0034 5.65219 22.0034 6.06641C22.0034 6.48062 21.6676 6.81641 21.2534 6.81641H3.74609C3.33188 6.81641 2.99609 6.48062 2.99609 6.06641Z" fill="#000000" />
<path fill-rule="evenodd" clip-rule="evenodd" d="M7.37581 9.40882C7.77145 9.28619 8.1916 9.50751 8.31423 9.90315L7.59786 10.1252C8.31423 9.90315 8.31415 9.90288 8.31408 9.90265L8.314 9.90241L8.31482 9.90501L8.31967 9.92005C8.32433 9.93439 8.33188 9.95725 8.34242 9.98814C8.36352 10.0499 8.39658 10.1438 8.44251 10.2657C8.5344 10.5096 8.67755 10.8652 8.87902 11.3008C9.28246 12.173 9.91692 13.3595 10.8374 14.6092C12.6781 17.1085 15.64 19.8329 20.1739 20.845C20.5782 20.9353 20.8328 21.3362 20.7425 21.7404C20.6523 22.1447 20.2514 22.3993 19.8471 22.309C14.8592 21.1955 11.6147 18.1941 9.62959 15.4988C8.63711 14.1513 7.95376 12.8734 7.51761 11.9305C7.2993 11.4585 7.14222 11.0689 7.03882 10.7945C6.98711 10.6572 6.94877 10.5486 6.92287 10.4728C6.90992 10.4348 6.90007 10.4051 6.89321 10.384L6.88515 10.3589L6.88277 10.3514L6.88199 10.3489L6.8817 10.348C6.88159 10.3476 6.88148 10.3472 7.59786 10.1252L6.88148 10.3472C6.75885 9.9516 6.98016 9.53146 7.37581 9.40882ZM8.314 9.90241C8.31395 9.90226 8.31395 9.90224 8.31399 9.90236L8.314 9.90241Z" fill="#000000" />
<path fill-rule="evenodd" clip-rule="evenodd" d="M17.5625 5.38987C17.9362 5.21128 18.384 5.36948 18.5626 5.74322C18.6083 5.8389 18.6246 5.92464 18.63 5.95425C18.6378 5.99644 18.642 6.03531 18.6446 6.06561C18.6498 6.12692 18.6514 6.19252 18.6512 6.25651C18.6507 6.38665 18.6424 6.55093 18.6253 6.74214C18.5909 7.12649 18.5183 7.64674 18.387 8.26605C18.1243 9.50459 17.6222 11.1584 16.7026 12.9272C14.8558 16.4792 11.3327 20.4742 4.76162 22.4847C4.36554 22.6059 3.9462 22.3831 3.82501 21.987C3.70382 21.5909 3.92667 21.1715 4.32276 21.0504C10.4578 19.1732 13.6844 15.4805 15.3717 12.2352C16.2191 10.6054 16.6803 9.08329 16.9196 7.95484C17.0393 7.39065 17.1025 6.92965 17.1313 6.60828C17.1458 6.44663 17.1509 6.32694 17.1512 6.25115C17.1513 6.23772 17.1512 6.22647 17.151 6.21727C17.0831 5.88748 17.245 5.54157 17.5625 5.38987Z" fill="#000000" />
<path fill-rule="evenodd" clip-rule="evenodd" d="M12.5 3.01562C12.9142 3.01562 13.25 3.35141 13.25 3.76562V6.06423C13.25 6.47844 12.9142 6.81423 12.5 6.81423C12.0858 6.81423 11.75 6.47844 11.75 6.06423V3.76562C11.75 3.35141 12.0858 3.01562 12.5 3.01562Z" fill="#000000" />
</svg>