<svg width="24px"  height="24px"  viewBox="0 0 25 25" fill="none" xmlns="http://www.w3.org/2000/svg">
<path fill-rule="evenodd" clip-rule="evenodd" d="M4.24076 4.66291C5.22547 3.60678 6.62768 3.01562 8.28313 3.01562H16.7178C18.3772 3.01562 19.7796 3.60648 20.7634 4.66335C21.7416 5.71415 22.25 7.16462 22.25 8.792V16.7392C22.25 18.3666 21.7416 19.8171 20.7633 20.8679C19.7793 21.9248 18.3766 22.5156 16.7169 22.5156H8.28313C6.62379 22.5156 5.22117 21.9248 4.23714 20.868C3.25872 19.8172 2.75 18.3667 2.75 16.7392V8.792C2.75 7.16358 3.26147 5.71322 4.24076 4.66291ZM5.33786 5.68583C4.66042 6.41241 4.25 7.47524 4.25 8.792V16.7392C4.25 18.0569 4.65879 19.1197 5.33492 19.8458C6.00542 20.5659 6.99437 21.0156 8.28313 21.0156H16.7169C18.0062 21.0156 18.9951 20.5658 19.6654 19.8458C20.3414 19.1197 20.75 18.057 20.75 16.7392V8.792C20.75 7.4742 20.3414 6.41147 19.6655 5.68538C18.9952 4.96536 18.0066 4.51562 16.7178 4.51562H8.28313C6.99924 4.51562 6.00988 4.96507 5.33786 5.68583Z" fill="#000000" />
<path fill-rule="evenodd" clip-rule="evenodd" d="M12.4425 15.4717C12.5963 15.0871 13.0328 14.9 13.4174 15.0538C14.0279 15.298 14.3465 15.3339 15.1276 15.3339C15.2786 15.3339 15.4997 15.2971 15.7834 15.2312C15.8767 15.2096 15.9953 15.1799 16.1178 15.1492C16.291 15.1058 16.472 15.0605 16.6003 15.0332C17.0054 14.947 17.4038 15.2055 17.49 15.6107C17.5762 16.0158 17.3176 16.4141 16.9125 16.5003C16.7865 16.5271 16.6717 16.5563 16.5393 16.59C16.4212 16.6201 16.2891 16.6537 16.1225 16.6924C15.8278 16.7608 15.4631 16.8339 15.1276 16.8339C14.2352 16.8339 13.7093 16.7861 12.8603 16.4466C12.4757 16.2927 12.2887 15.8562 12.4425 15.4717Z" fill="#000000" />
<path fill-rule="evenodd" clip-rule="evenodd" d="M14.9559 11.4414C15.2377 11.4414 15.4958 11.5993 15.6239 11.8503L18.0739 16.648C18.2622 17.0169 18.1159 17.4687 17.747 17.6571C17.3781 17.8455 16.9263 17.6991 16.738 17.3302L14.9561 13.8408L13.175 17.3301C12.9867 17.699 12.5349 17.8455 12.166 17.6571C11.7971 17.4688 11.6507 17.0171 11.839 16.6482L14.288 11.8504C14.4161 11.5994 14.6741 11.4414 14.9559 11.4414Z" fill="#000000" />
<path fill-rule="evenodd" clip-rule="evenodd" d="M9.13141 10.6074C9.53387 10.5094 9.93954 10.7563 10.0375 11.1588C10.2425 12.0011 10.6354 12.7687 11.1652 13.4132C11.3464 13.631 11.547 13.8377 11.7629 14.031C12.0714 14.3074 12.0975 14.7815 11.8212 15.0901C11.5449 15.3987 11.0707 15.4248 10.7621 15.1484C10.494 14.9083 10.2415 14.6484 10.0105 14.3706L10.0081 14.3676L10.0081 14.3676C9.33785 13.5529 8.83995 12.5814 8.58004 11.5135C8.48209 11.111 8.72894 10.7053 9.13141 10.6074Z" fill="#000000" />
<path fill-rule="evenodd" clip-rule="evenodd" d="M12.5928 8.73319C12.9668 8.5551 13.4143 8.7139 13.5924 9.08788C13.6364 9.1802 13.6512 9.26086 13.6554 9.28391C13.662 9.31951 13.6652 9.35014 13.6669 9.37062C13.6704 9.41229 13.6711 9.45182 13.671 9.48369C13.6708 9.54957 13.6666 9.62528 13.6594 9.70645C13.6446 9.87071 13.6144 10.085 13.5613 10.3352C13.4551 10.8356 13.2534 11.499 12.8848 12.208C12.14 13.6403 10.7218 15.238 8.11325 16.0364C7.71717 16.1576 7.29782 15.9348 7.17659 15.5387C7.05537 15.1426 7.27818 14.7233 7.67426 14.602C9.84685 13.9371 10.9686 12.6416 11.5539 11.516C11.8503 10.9459 12.0111 10.4142 12.094 10.0239C12.1354 9.82872 12.1563 9.6737 12.1654 9.57236C12.1682 9.54041 12.1697 9.51629 12.1704 9.4998C12.133 9.18888 12.2944 8.87527 12.5928 8.73319Z" fill="#000000" />
<path fill-rule="evenodd" clip-rule="evenodd" d="M6.84375 9.41016C6.84375 8.99594 7.17954 8.66016 7.59375 8.66016H14.5427C14.9569 8.66016 15.2927 8.99594 15.2927 9.41016C15.2927 9.82437 14.9569 10.1602 14.5427 10.1602H7.59375C7.17954 10.1602 6.84375 9.82437 6.84375 9.41016Z" fill="#000000" />
<path fill-rule="evenodd" clip-rule="evenodd" d="M10.8887 7.79297C11.3029 7.79297 11.6387 8.12876 11.6387 8.54297V9.40794C11.6387 9.82216 11.3029 10.1579 10.8887 10.1579C10.4745 10.1579 10.1387 9.82216 10.1387 9.40794V8.54297C10.1387 8.12876 10.4745 7.79297 10.8887 7.79297Z" fill="#000000" />
</svg>