<svg width="24px"  height="24px"  viewBox="0 0 25 25" fill="none" xmlns="http://www.w3.org/2000/svg">
<path fill-rule="evenodd" clip-rule="evenodd" d="M7.01217 10.2312C7.41527 10.1359 7.81931 10.3854 7.91462 10.7885C8.31294 12.4732 9.66958 14.3965 11.4099 15.8834C13.1646 17.3827 15.1188 18.278 16.609 18.1763C17.0222 18.148 17.3801 18.4601 17.4083 18.8734C17.4366 19.2866 17.1244 19.6445 16.7112 19.6728C14.6404 19.8142 12.3045 18.6207 10.4355 17.0239C8.5522 15.4147 6.95164 13.2347 6.45486 11.1337C6.35955 10.7306 6.60907 10.3265 7.01217 10.2312Z" fill="#000000" />
<path fill-rule="evenodd" clip-rule="evenodd" d="M2.75 6.05469C2.75 5.64047 3.08579 5.30469 3.5 5.30469H17.0071C17.4213 5.30469 17.7571 5.64047 17.7571 6.05469C17.7571 6.4689 17.4213 6.80469 17.0071 6.80469H3.5C3.08579 6.80469 2.75 6.4689 2.75 6.05469Z" fill="#000000" />
<path fill-rule="evenodd" clip-rule="evenodd" d="M9.9043 3.625C10.3185 3.625 10.6543 3.96079 10.6543 4.375V6.05719C10.6543 6.4714 10.3185 6.80719 9.9043 6.80719C9.49008 6.80719 9.1543 6.4714 9.1543 6.05719V4.375C9.1543 3.96079 9.49008 3.625 9.9043 3.625Z" fill="#000000" />
<path fill-rule="evenodd" clip-rule="evenodd" d="M16.7382 11.082C17.02 11.082 17.2781 11.24 17.4062 11.491L22.1677 20.8175C22.356 21.1864 22.2097 21.6381 21.8408 21.8265C21.4718 22.0148 21.0201 21.8684 20.8317 21.4995L16.7382 13.4815L12.6447 21.4995C12.4564 21.8684 12.0046 22.0148 11.6357 21.8265C11.2668 21.6381 11.1204 21.1864 11.3087 20.8175L16.0702 11.491C16.1984 11.24 16.4564 11.082 16.7382 11.082Z" fill="#000000" />
<path fill-rule="evenodd" clip-rule="evenodd" d="M13.5214 5.37807C13.8952 5.19958 14.3429 5.35788 14.5214 5.73166C14.5664 5.82587 14.5821 5.90941 14.587 5.93624C14.5942 5.97562 14.598 6.01096 14.6003 6.03705C14.6048 6.08993 14.606 6.14434 14.6058 6.19452C14.6055 6.29704 14.599 6.42323 14.5861 6.5671C14.5602 6.85676 14.5059 7.24534 14.4082 7.70582C14.213 8.62671 13.8402 9.85432 13.1578 11.167C11.7854 13.8066 9.16833 16.7698 4.30263 18.2584C3.90654 18.3796 3.4872 18.1567 3.36602 17.7606C3.24484 17.3646 3.4677 16.9452 3.86379 16.824C8.29342 15.4688 10.614 12.808 11.8269 10.475C12.4371 9.30133 12.7689 8.20547 12.9409 7.39468C13.0268 6.98932 13.0718 6.66 13.0921 6.43332C13.1023 6.31903 13.1057 6.23744 13.1058 6.18927C13.1058 6.18796 13.1058 6.18669 13.1058 6.18547C13.0484 5.86174 13.2103 5.52665 13.5214 5.37807Z" fill="#000000" />
</svg>