<svg width="24px"  height="24px"  viewBox="0 0 25 25" fill="none" xmlns="http://www.w3.org/2000/svg">
<path fill-rule="evenodd" clip-rule="evenodd" d="M2.75 6.37109C2.75 5.95688 3.08579 5.62109 3.5 5.62109H16.2057C16.6199 5.62109 16.9557 5.95688 16.9557 6.37109C16.9557 6.78531 16.6199 7.12109 16.2057 7.12109H10.5414V19.1595C10.5414 19.5737 10.2056 19.9095 9.79138 19.9095C9.37717 19.9095 9.04138 19.5737 9.04138 19.1595V7.12109H3.5C3.08579 7.12109 2.75 6.78531 2.75 6.37109Z" fill="#000000" />
<path fill-rule="evenodd" clip-rule="evenodd" d="M14.3828 12.75C14.3828 12.3358 14.7186 12 15.1328 12H21.5003C21.9145 12 22.2503 12.3358 22.2503 12.75C22.2503 13.1642 21.9145 13.5 21.5003 13.5H19.0366V19.1593C19.0366 19.5735 18.7008 19.9093 18.2866 19.9093C17.8724 19.9093 17.5366 19.5735 17.5366 19.1593V13.5H15.1328C14.7186 13.5 14.3828 13.1642 14.3828 12.75Z" fill="#000000" />
</svg>