<svg width="24px"  height="24px"  viewBox="0 0 25 25" fill="none" xmlns="http://www.w3.org/2000/svg">
<path fill-rule="evenodd" clip-rule="evenodd" d="M4.79492 5.76562C4.79492 5.35141 5.13071 5.01562 5.54492 5.01562H19.4545C19.8687 5.01562 20.2045 5.35141 20.2045 5.76562V8.23358C20.2045 8.6478 19.8687 8.98358 19.4545 8.98358C19.0403 8.98358 18.7045 8.6478 18.7045 8.23358V6.51562H6.29492V8.23358C6.29492 8.6478 5.95914 8.98358 5.54492 8.98358C5.13071 8.98358 4.79492 8.6478 4.79492 8.23358V5.76562Z" fill="#000000" />
<path fill-rule="evenodd" clip-rule="evenodd" d="M12.4334 5.01562C12.8476 5.01562 13.1834 5.35141 13.1834 5.76562V19.0154H15.6021C16.0164 19.0154 16.3521 19.3512 16.3521 19.7654C16.3521 20.1797 16.0164 20.5154 15.6021 20.5154H12.4499C12.4444 20.5156 12.4389 20.5156 12.4334 20.5156C12.4279 20.5156 12.4224 20.5156 12.4169 20.5154H9.39648C8.98227 20.5154 8.64648 20.1797 8.64648 19.7654C8.64648 19.3512 8.98227 19.0154 9.39648 19.0154H11.6834V5.76562C11.6834 5.35141 12.0192 5.01562 12.4334 5.01562Z" fill="#000000" />
</svg>