<svg width="24px"  height="24px"  viewBox="0 0 25 25" fill="none" xmlns="http://www.w3.org/2000/svg">
<path d="M11.3661 21.1531C6.47609 21.1531 2.49609 17.1731 2.49609 12.2831C2.49609 7.39309 6.47609 3.41309 11.3661 3.41309C15.2861 3.41309 18.6861 5.92309 19.8461 9.66309C19.9661 10.0631 19.7461 10.4831 19.3461 10.6031C18.9461 10.7231 18.5261 10.5031 18.4061 10.1031C17.4461 6.99309 14.6161 4.90308 11.3661 4.90308C7.30609 4.90308 3.99609 8.20309 3.99609 12.2731C3.99609 16.3431 7.29609 19.6431 11.3661 19.6431C14.6661 19.6431 17.5861 17.4231 18.4661 14.2431C18.5761 13.8431 18.9861 13.6131 19.3861 13.7231C19.7861 13.8331 20.0161 14.2431 19.9061 14.6431C18.8461 18.4731 15.3361 21.1431 11.3561 21.1431L11.3661 21.1531Z" fill="#000000" />
<path d="M19.2259 15.1932H17.4859C16.6859 15.1932 15.9559 14.7232 15.6259 14.0032L14.4959 11.5532L13.4059 14.0632C13.1059 14.7532 12.4259 15.1932 11.6759 15.1932H9.59594C8.64594 15.1932 7.84594 14.4832 7.72594 13.5432C7.65594 12.9932 7.56594 12.3032 7.49594 11.7032C7.44261 11.2765 7.36928 11.0165 7.27594 10.9232C7.27594 10.9232 7.16594 10.8432 7.14594 10.8332C6.84594 10.6932 6.67594 10.3632 6.72594 10.0432C6.77594 9.71318 7.03594 9.46318 7.35594 9.41318C9.94594 9.05318 11.4159 9.05318 13.9259 9.39318C14.3159 9.44318 14.6559 9.44318 15.0659 9.39318C17.5959 9.06318 18.8259 9.06318 21.3559 9.41318C21.6359 9.45318 21.8659 9.63318 21.9559 9.90318C22.0559 10.1632 21.9959 10.4532 21.8059 10.6632C21.8059 10.6632 21.6759 10.8032 21.5859 10.8832C21.2959 11.1332 21.2359 11.6932 21.2359 11.8232L21.1059 13.4632C21.0259 14.4432 20.2059 15.2032 19.2259 15.2032V15.1932ZM15.8059 10.8132L16.9859 13.3732C17.0759 13.5632 17.2759 13.6932 17.4859 13.6932H19.2259C19.4259 13.6932 19.5959 13.5332 19.6159 13.3332L19.7459 11.7532C19.7459 11.7532 19.7459 11.2532 19.9359 10.7432C18.4559 10.5932 17.4259 10.6132 15.8059 10.8032V10.8132ZM8.85594 10.7432C8.90594 10.9532 8.93594 11.1832 8.97594 11.4632C9.05594 12.1232 9.14594 12.8132 9.20594 13.3632C9.22594 13.5532 9.39594 13.7032 9.58594 13.7032H11.6659C11.8159 13.7032 11.9559 13.6132 12.0259 13.4732L13.1859 10.8232C11.5559 10.6232 10.3959 10.6032 8.85594 10.7532V10.7432Z" fill="#000000" />
</svg>