<svg width="24px"  height="24px"  viewBox="0 0 25 25" fill="none" xmlns="http://www.w3.org/2000/svg">
<path fill-rule="evenodd" clip-rule="evenodd" d="M10.7412 4.52686C8.55932 4.52686 6.79053 6.29565 6.79053 8.47757C6.79053 10.6595 8.55932 12.4283 10.7412 12.4283C12.9232 12.4283 14.692 10.6595 14.692 8.47757C14.692 6.29565 12.9232 4.52686 10.7412 4.52686ZM5.29053 8.47757C5.29053 5.46722 7.7309 3.02686 10.7412 3.02686C13.7516 3.02686 16.192 5.46722 16.192 8.47757C16.192 11.4879 13.7516 13.9283 10.7412 13.9283C7.7309 13.9283 5.29053 11.4879 5.29053 8.47757Z" fill="#000000" />
<path fill-rule="evenodd" clip-rule="evenodd" d="M3.51081 17.577C3.51081 14.7334 5.816 12.4282 8.65959 12.4282H10.9113C11.3256 12.4282 11.6613 12.764 11.6613 13.1782C11.6613 13.5924 11.3256 13.9282 10.9113 13.9282H8.65959C6.64442 13.9282 5.01081 15.5618 5.01081 17.577C5.01081 17.752 5.00829 17.9169 5.00589 18.0741C4.99847 18.5606 4.99215 18.9746 5.06481 19.3929C5.13569 19.801 4.86232 20.1893 4.45422 20.2602C4.04611 20.3311 3.65782 20.0577 3.58694 19.6496C3.48763 19.0778 3.49779 18.4723 3.50638 17.9606C3.50865 17.8254 3.51081 17.6968 3.51081 17.577Z" fill="#000000" />
<path fill-rule="evenodd" clip-rule="evenodd" d="M17.8599 20.0396C18.2741 20.0396 18.6099 20.3753 18.6099 20.7896V20.7964C18.6099 21.2106 18.2741 21.5464 17.8599 21.5464C17.4456 21.5464 17.1099 21.2106 17.1099 20.7964V20.7896C17.1099 20.3753 17.4456 20.0396 17.8599 20.0396Z" fill="#000000" />
<path fill-rule="evenodd" clip-rule="evenodd" d="M15.1626 15.3473C15.1626 13.7305 16.463 12.4282 18.0807 12.4282C19.6889 12.4282 20.9989 13.7287 20.9989 15.3473C20.9989 16.4919 20.3422 17.2986 19.4973 17.7658C19.4441 17.7962 19.3937 17.8246 19.3459 17.8516C19.1069 17.9863 18.9311 18.0855 18.7868 18.2153C18.6491 18.3392 18.6065 18.434 18.6083 18.5656C18.6138 18.9797 18.2825 19.32 17.8683 19.3255C17.4542 19.331 17.1139 18.9997 17.1084 18.5856C17.0994 17.9088 17.4193 17.428 17.7834 17.1003C18.0638 16.848 18.4123 16.6538 18.6483 16.5222C18.6884 16.4999 18.7251 16.4794 18.7578 16.4607L18.7682 16.4548L18.7683 16.4549C19.2551 16.1868 19.4989 15.8247 19.4989 15.3473C19.4989 14.5598 18.8631 13.9282 18.0807 13.9282C17.2923 13.9282 16.6626 14.558 16.6626 15.3473C16.6626 15.7616 16.3268 16.0973 15.9126 16.0973C15.4984 16.0973 15.1626 15.7616 15.1626 15.3473Z" fill="#000000" />
</svg>