<svg width="24px"  height="24px"  viewBox="0 0 25 25" fill="none" xmlns="http://www.w3.org/2000/svg">
<path fill-rule="evenodd" clip-rule="evenodd" d="M9.70031 5.0332C7.52293 5.0332 5.75781 6.79832 5.75781 8.9757C5.75781 11.1531 7.52293 12.9182 9.70031 12.9182C11.8777 12.9182 13.6428 11.1531 13.6428 8.9757C13.6428 6.79832 11.8777 5.0332 9.70031 5.0332ZM4.25781 8.9757C4.25781 5.96989 6.6945 3.5332 9.70031 3.5332C12.7061 3.5332 15.1428 5.96989 15.1428 8.9757C15.1428 11.9815 12.7061 14.4182 9.70031 14.4182C6.6945 14.4182 4.25781 11.9815 4.25781 8.9757Z" fill="#000000" />
<path fill-rule="evenodd" clip-rule="evenodd" d="M2.47874 18.3423C2.47874 15.5029 4.78049 13.2012 7.61983 13.2012H11.8957C14.735 13.2012 17.0368 15.5029 17.0368 18.3423C17.0368 18.4248 17.0376 18.5085 17.0387 18.5945C17.0581 20.0382 15.8746 21.0331 14.5393 21.0331H4.97626C3.64089 21.0331 2.45745 20.0382 2.4768 18.5945C2.47795 18.5085 2.47874 18.4248 2.47874 18.3423ZM7.61983 14.7012C5.60891 14.7012 3.97874 16.3313 3.97874 18.3423C3.97874 18.434 3.97786 18.5252 3.97666 18.6146C3.96995 19.1156 4.36659 19.5331 4.97626 19.5331H14.5393C15.1489 19.5331 15.5456 19.1156 15.5389 18.6145C15.5377 18.5252 15.5368 18.434 15.5368 18.3423C15.5368 16.3313 13.9066 14.7012 11.8957 14.7012H7.61983Z" fill="#000000" />
<path fill-rule="evenodd" clip-rule="evenodd" d="M19.0664 12.9114C19.4806 12.9114 19.8164 13.2472 19.8164 13.6614V13.6682C19.8164 14.0824 19.4806 14.4182 19.0664 14.4182C18.6522 14.4182 18.3164 14.0824 18.3164 13.6682V13.6614C18.3164 13.2472 18.6522 12.9114 19.0664 12.9114Z" fill="#000000" />
<path fill-rule="evenodd" clip-rule="evenodd" d="M16.5176 8.63461C16.5176 7.10959 17.7443 5.8811 19.2702 5.8811C20.7871 5.8811 22.0228 7.10782 22.0228 8.63461C22.0228 9.71711 21.4006 10.4792 20.6067 10.9183C20.5567 10.9469 20.5096 10.9734 20.4652 10.9985C20.2449 11.1228 20.0888 11.2108 19.9607 11.3261C19.8421 11.4328 19.8134 11.5057 19.8147 11.6063C19.8202 12.0205 19.4889 12.3608 19.0748 12.3663C18.6606 12.3718 18.3204 12.0405 18.3148 11.6263C18.3062 10.9805 18.6123 10.5217 18.9573 10.2112C19.2216 9.97333 19.5503 9.79019 19.7677 9.66907C19.8043 9.64871 19.8377 9.6301 19.8671 9.61328L19.8775 9.60732L19.8776 9.60741C20.3135 9.36737 20.5228 9.04998 20.5228 8.63461C20.5228 7.9389 19.9613 7.3811 19.2702 7.3811C18.5736 7.3811 18.0176 7.93713 18.0176 8.63461C18.0176 9.04883 17.6818 9.38461 17.2676 9.38461C16.8534 9.38461 16.5176 9.04883 16.5176 8.63461Z" fill="#000000" />
</svg>