<svg width="24px"  height="24px"  viewBox="0 0 25 25" fill="none" xmlns="http://www.w3.org/2000/svg">
<path d="M3.25 9.51001C3.05109 9.51001 2.86032 9.431 2.71967 9.29034C2.57902 9.14969 2.5 8.95892 2.5 8.76001V7.18207C2.50159 5.95125 2.9913 4.77129 3.86172 3.90106C4.73213 3.03083 5.91218 2.54136 7.143 2.54004H8.432C8.63091 2.54004 8.82168 2.61905 8.96233 2.7597C9.10298 2.90036 9.182 3.09113 9.182 3.29004C9.182 3.48895 9.10298 3.67972 8.96233 3.82037C8.82168 3.96103 8.63091 4.04004 8.432 4.04004H7.143C6.30984 4.04083 5.51102 4.37208 4.92179 4.96112C4.33257 5.55016 4.00106 6.34891 4 7.18207V8.76001C4 8.95892 3.92098 9.14969 3.78033 9.29034C3.63968 9.431 3.44891 9.51001 3.25 9.51001Z" fill="#000000" />
<path d="M8.4 22.0403H7.143C5.91218 22.039 4.73213 21.5495 3.86172 20.6793C2.9913 19.809 2.50159 18.6291 2.5 17.3983V15.8213C2.5 15.6224 2.57902 15.4316 2.71967 15.291C2.86032 15.1503 3.05109 15.0713 3.25 15.0713C3.44891 15.0713 3.63968 15.1503 3.78033 15.291C3.92098 15.4316 4 15.6224 4 15.8213V17.3983C4.00106 18.2314 4.33257 19.0302 4.92179 19.6192C5.51102 20.2082 6.30984 20.5395 7.143 20.5403H8.4C8.59891 20.5403 8.78968 20.6193 8.93033 20.7599C9.07098 20.9006 9.15 21.0914 9.15 21.2903C9.15 21.4892 9.07098 21.68 8.93033 21.8206C8.78968 21.9613 8.59891 22.0403 8.4 22.0403Z" fill="#000000" />
<path d="M17.3574 22.0403H16.0684C15.8694 22.0403 15.6787 21.9613 15.538 21.8206C15.3974 21.68 15.3184 21.4892 15.3184 21.2903C15.3184 21.0914 15.3974 20.9006 15.538 20.7599C15.6787 20.6193 15.8694 20.5403 16.0684 20.5403H17.3574C18.1905 20.5395 18.9893 20.2082 19.5786 19.6192C20.1678 19.0302 20.4993 18.2314 20.5004 17.3983V15.8213C20.5004 15.6224 20.5794 15.4316 20.72 15.291C20.8607 15.1503 21.0514 15.0713 21.2504 15.0713C21.4493 15.0713 21.64 15.1503 21.7807 15.291C21.9213 15.4316 22.0004 15.6224 22.0004 15.8213V17.3983C21.9988 18.6291 21.5091 19.809 20.6386 20.6793C19.7682 21.5495 18.5882 22.039 17.3574 22.0403Z" fill="#000000" />
<path d="M21.2496 9.51001C21.0507 9.51001 20.8599 9.431 20.7193 9.29034C20.5786 9.14969 20.4996 8.95892 20.4996 8.76001V7.18207C20.4985 6.34891 20.167 5.55016 19.5778 4.96112C18.9886 4.37208 18.1898 4.04083 17.3566 4.04004H16.0996C15.9007 4.04004 15.7099 3.96103 15.5693 3.82037C15.4286 3.67972 15.3496 3.48895 15.3496 3.29004C15.3496 3.09113 15.4286 2.90036 15.5693 2.7597C15.7099 2.61905 15.9007 2.54004 16.0996 2.54004H17.3566C18.5874 2.54136 19.7675 3.03083 20.6379 3.90106C21.5083 4.77129 21.998 5.95125 21.9996 7.18207V8.76001C21.9996 8.95892 21.9206 9.14969 21.7799 9.29034C21.6393 9.431 21.4485 9.51001 21.2496 9.51001Z" fill="#000000" />
<path d="M8.13858 10.7778C8.00727 10.7779 7.87823 10.7436 7.76439 10.6782C7.65055 10.6127 7.55591 10.5185 7.48997 10.4049C7.42403 10.2914 7.38909 10.1625 7.38868 10.0312C7.38826 9.89989 7.42237 9.77078 7.48758 9.65681C7.96667 8.81583 8.65953 8.11644 9.49597 7.62947C10.3324 7.1425 11.2827 6.88523 12.2506 6.8838C12.9761 6.88214 13.6946 7.02601 14.3636 7.30684C14.5468 7.38375 14.6921 7.53027 14.7673 7.71425C14.8425 7.89822 14.8415 8.10453 14.7646 8.28779C14.6877 8.47106 14.5411 8.61628 14.3571 8.69148C14.1732 8.76668 13.9668 8.76571 13.7836 8.6888C13.2977 8.48764 12.7765 8.38566 12.2506 8.38881C11.5473 8.38985 10.8568 8.57676 10.249 8.93062C9.64117 9.28448 9.13771 9.79273 8.78958 10.4038C8.72343 10.5178 8.62844 10.6123 8.51417 10.678C8.3999 10.7436 8.27037 10.778 8.13858 10.7778Z" fill="#000000" />
<path d="M7.52148 16.6263C7.32257 16.6263 7.13181 16.5473 6.99115 16.4066C6.8505 16.266 6.77148 16.0752 6.77148 15.8763V12.9463C6.77148 12.7474 6.8505 12.5566 6.99115 12.416C7.13181 12.2753 7.32257 12.1963 7.52148 12.1963C7.7204 12.1963 7.91116 12.2753 8.05181 12.416C8.19247 12.5566 8.27148 12.7474 8.27148 12.9463V15.8763C8.27148 16.0752 8.19247 16.266 8.05181 16.4066C7.91116 16.5473 7.7204 16.6263 7.52148 16.6263Z" fill="#000000" />
<path d="M16.9796 16.6236C16.7807 16.6236 16.5899 16.5446 16.4493 16.4039C16.3086 16.2632 16.2296 16.0725 16.2296 15.8736V12.3616C16.2315 11.5409 15.9782 10.7399 15.5046 10.0696C15.3899 9.9073 15.3444 9.70605 15.378 9.51016C15.4117 9.31428 15.5218 9.13976 15.6841 9.02506C15.8464 8.91035 16.0476 8.86487 16.2435 8.89853C16.4394 8.93219 16.6139 9.04225 16.7286 9.20456C17.382 10.1273 17.7316 11.2309 17.7286 12.3616V15.8736C17.7286 16.0723 17.6497 16.2629 17.5093 16.4035C17.3688 16.5442 17.1783 16.6233 16.9796 16.6236Z" fill="#000000" />
<path d="M14.0732 17.6992C13.8742 17.6992 13.6835 17.6201 13.5428 17.4795C13.4022 17.3388 13.3232 17.1481 13.3232 16.9492V12.5361C13.3276 12.3872 13.3021 12.239 13.2482 12.1001C13.1943 11.9612 13.1131 11.8346 13.0094 11.7277C12.9056 11.6208 12.7815 11.5358 12.6443 11.4777C12.5071 11.4197 12.3596 11.3898 12.2107 11.3898C12.0617 11.3898 11.9142 11.4197 11.777 11.4777C11.6398 11.5358 11.5157 11.6208 11.4119 11.7277C11.3082 11.8346 11.227 11.9612 11.1731 12.1001C11.1192 12.239 11.0937 12.3872 11.0982 12.5361V13.0361C11.0982 13.235 11.0191 13.4258 10.8785 13.5665C10.7378 13.7071 10.5471 13.7861 10.3482 13.7861C10.1492 13.7861 9.95848 13.7071 9.81783 13.5665C9.67717 13.4258 9.59816 13.235 9.59816 13.0361V12.5361C9.59136 12.1888 9.65391 11.8435 9.78215 11.5206C9.91039 11.1977 10.1017 10.9036 10.345 10.6555C10.5883 10.4074 10.8786 10.2104 11.1989 10.0759C11.5193 9.94134 11.8632 9.87207 12.2107 9.87207C12.5581 9.87207 12.9021 9.94134 13.2224 10.0759C13.5427 10.2104 13.833 10.4074 14.0763 10.6555C14.3196 10.9036 14.5109 11.1977 14.6392 11.5206C14.7674 11.8435 14.83 12.1888 14.8232 12.5361V16.9492C14.8232 17.1481 14.7441 17.3388 14.6035 17.4795C14.4628 17.6201 14.2721 17.6992 14.0732 17.6992Z" fill="#000000" />
<path d="M10.3496 17.6956C10.1507 17.6956 9.95993 17.6165 9.81928 17.4758C9.67863 17.3352 9.59961 17.1445 9.59961 16.9456V15.2705C9.59961 15.0716 9.67863 14.8808 9.81928 14.7402C9.95993 14.5995 10.1507 14.5205 10.3496 14.5205C10.5485 14.5205 10.7393 14.5995 10.8799 14.7402C11.0206 14.8808 11.0996 15.0716 11.0996 15.2705V16.9456C11.0996 17.1445 11.0206 17.3352 10.8799 17.4758C10.7393 17.6165 10.5485 17.6956 10.3496 17.6956Z" fill="#000000" />
</svg>