<svg width="24px"  height="24px"  viewBox="0 0 25 25" fill="none" xmlns="http://www.w3.org/2000/svg">
<path fill-rule="evenodd" clip-rule="evenodd" d="M12.2506 8.22852C10.7877 8.22852 9.60059 9.4149 9.60059 10.8785V13.6855C9.60059 15.1506 10.7881 16.3375 12.2506 16.3375C12.7776 16.3375 13.2666 16.1837 13.6813 15.9192C14.0306 15.6964 14.4942 15.799 14.7169 16.1482C14.9397 16.4975 14.8371 16.9611 14.4879 17.1839C13.8426 17.5954 13.0756 17.8375 12.2506 17.8375C9.95912 17.8375 8.10059 15.9785 8.10059 13.6855V10.8785C8.10059 8.58618 9.95954 6.72852 12.2506 6.72852C14.5437 6.72852 16.4016 8.58619 16.4016 10.8785V13.6855C16.4016 14.0998 16.0658 14.4355 15.6516 14.4355C15.2374 14.4355 14.9016 14.0998 14.9016 13.6855V10.8785C14.9016 9.41489 13.7155 8.22852 12.2506 8.22852Z" fill="#000000" />
<path fill-rule="evenodd" clip-rule="evenodd" d="M12.249 10.3418C12.6632 10.3418 12.999 10.6776 12.999 11.0918V13.6288C12.999 14.043 12.6632 14.3788 12.249 14.3788C11.8348 14.3788 11.499 14.043 11.499 13.6288V11.0918C11.499 10.6776 11.8348 10.3418 12.249 10.3418Z" fill="#000000" />
<path fill-rule="evenodd" clip-rule="evenodd" d="M3.24902 15.0645C3.66324 15.0645 3.99902 15.4002 3.99902 15.8145V17.3915C3.99902 19.1261 5.40611 20.5334 7.14203 20.5334H8.39899C8.8132 20.5334 9.14899 20.8692 9.14899 21.2834C9.14899 21.6977 8.8132 22.0334 8.39899 22.0334H7.14203C4.57795 22.0334 2.49902 19.9548 2.49902 17.3915V15.8145C2.49902 15.4002 2.83481 15.0645 3.24902 15.0645Z" fill="#000000" />
<path fill-rule="evenodd" clip-rule="evenodd" d="M21.2494 15.0645C21.6636 15.0645 21.9994 15.4002 21.9994 15.8145V17.3915C21.9994 19.9548 19.9205 22.0334 17.3564 22.0334H16.0674C15.6532 22.0334 15.3174 21.6977 15.3174 21.2834C15.3174 20.8692 15.6532 20.5334 16.0674 20.5334H17.3564C19.0923 20.5334 20.4994 19.1261 20.4994 17.3915V15.8145C20.4994 15.4002 20.8352 15.0645 21.2494 15.0645Z" fill="#000000" />
<path fill-rule="evenodd" clip-rule="evenodd" d="M7.14203 4.0332C5.406 4.0332 3.99902 5.43969 3.99902 7.17523V8.75226C3.99902 9.16647 3.66324 9.50226 3.24902 9.50226C2.83481 9.50226 2.49902 9.16647 2.49902 8.75226V7.17523C2.49902 4.61077 4.57806 2.5332 7.14203 2.5332H8.43103C8.84524 2.5332 9.18103 2.86899 9.18103 3.2832C9.18103 3.69742 8.84524 4.0332 8.43103 4.0332H7.14203Z" fill="#000000" />
<path fill-rule="evenodd" clip-rule="evenodd" d="M15.3506 3.2832C15.3506 2.86899 15.6864 2.5332 16.1006 2.5332H17.3575C19.9215 2.5332 22.0005 4.61077 22.0005 7.17523V8.75226C22.0005 9.16647 21.6648 9.50226 21.2505 9.50226C20.8363 9.50226 20.5005 9.16647 20.5005 8.75226V7.17523C20.5005 5.43969 19.0936 4.0332 17.3575 4.0332H16.1006C15.6864 4.0332 15.3506 3.69742 15.3506 3.2832Z" fill="#000000" />
</svg>