<svg width="24px"  height="24px"  viewBox="0 0 25 25" fill="none" xmlns="http://www.w3.org/2000/svg">
<path fill-rule="evenodd" clip-rule="evenodd" d="M4.74609 8.31543C5.16031 8.31543 5.49609 8.65122 5.49609 9.06543V17.7404C5.49609 19.0179 6.53198 20.0534 7.81009 20.0534H16.6901C17.9682 20.0534 19.0041 19.0179 19.0041 17.7404V9.06543C19.0041 8.65122 19.3399 8.31543 19.7541 8.31543C20.1683 8.31543 20.5041 8.65122 20.5041 9.06543V17.7404C20.5041 19.847 18.796 21.5534 16.6901 21.5534H7.81009C5.7042 21.5534 3.99609 19.847 3.99609 17.7404V9.06543C3.99609 8.65122 4.33188 8.31543 4.74609 8.31543Z" fill="#000000" />
<path fill-rule="evenodd" clip-rule="evenodd" d="M10.869 13.3936C10.5263 13.3936 10.248 13.6718 10.248 14.0146V15.5656C10.248 15.9084 10.5263 16.1866 10.869 16.1866H13.632C13.9741 16.1866 14.252 15.9091 14.252 15.5656V14.0146C14.252 13.6711 13.9741 13.3936 13.632 13.3936H10.869ZM8.74805 14.0146C8.74805 12.8434 9.69781 11.8936 10.869 11.8936H13.632C14.804 11.8936 15.752 12.8441 15.752 14.0146V15.5656C15.752 16.736 14.804 17.6866 13.632 17.6866H10.869C9.69781 17.6866 8.74805 16.7367 8.74805 15.5656V14.0146Z" fill="#000000" />
<path fill-rule="evenodd" clip-rule="evenodd" d="M12.2224 9.30782C13.5466 9.29076 14.6345 10.3515 14.6505 11.6767L14.6506 11.6858L14.6505 12.6698C14.6505 13.084 14.3147 13.4198 13.9005 13.4198C13.4863 13.4198 13.1505 13.084 13.1505 12.6698V11.691C13.1425 11.1962 12.7355 10.8012 12.2414 10.8077L12.2399 10.8077C11.7558 10.8131 11.3638 11.2013 11.3535 11.6855V12.6698C11.3535 13.084 11.0177 13.4198 10.6035 13.4198C10.1893 13.4198 9.85352 13.084 9.85352 12.6698V11.667C9.87388 10.3678 10.9245 9.32276 12.2224 9.30782Z" fill="#000000" />
<path fill-rule="evenodd" clip-rule="evenodd" d="M10.3109 3.70025C11.4475 2.80174 13.0525 2.80174 14.1891 3.70025L21.7155 9.65751C22.0403 9.91458 22.0952 10.3863 21.8381 10.7111C21.581 11.0358 21.1093 11.0907 20.7846 10.8337L13.2589 4.87698C12.6677 4.40988 11.8327 4.40959 11.2415 4.87669L3.7155 10.8337C3.39072 11.0907 2.91903 11.0358 2.66195 10.7111C2.40488 10.3863 2.45977 9.91458 2.78456 9.65751L10.3109 3.70025Z" fill="#000000" />
</svg>