<svg width="24px"  height="24px"  viewBox="0 0 25 25" fill="none" xmlns="http://www.w3.org/2000/svg">
<path fill-rule="evenodd" clip-rule="evenodd" d="M7.21586 14.9863C5.85708 14.9863 4.75586 16.0876 4.75586 17.4464C4.75586 18.8051 5.85706 19.9063 7.21586 19.9063C8.57466 19.9063 9.67586 18.8051 9.67586 17.4464C9.67586 16.0876 8.57464 14.9863 7.21586 14.9863ZM3.25586 17.4464C3.25586 15.2591 5.02864 13.4863 7.21586 13.4863C9.40308 13.4863 11.1759 15.2591 11.1759 17.4464C11.1759 19.6336 9.40306 21.4063 7.21586 21.4063C5.02866 21.4063 3.25586 19.6336 3.25586 17.4464Z" fill="#000000" />
<path fill-rule="evenodd" clip-rule="evenodd" d="M17.2862 14.9863C15.9274 14.9863 14.8262 16.0876 14.8262 17.4464C14.8262 18.8051 15.9274 19.9063 17.2862 19.9063C18.645 19.9063 19.7462 18.8051 19.7462 17.4464C19.7462 16.0876 18.645 14.9863 17.2862 14.9863ZM13.3262 17.4464C13.3262 15.2591 15.099 13.4863 17.2862 13.4863C19.4734 13.4863 21.2462 15.2591 21.2462 17.4464C21.2462 19.6336 19.4734 21.4063 17.2862 21.4063C15.099 21.4063 13.3262 19.6336 13.3262 17.4464Z" fill="#000000" />
<path fill-rule="evenodd" clip-rule="evenodd" d="M13.8221 18.1129C12.8292 17.7557 11.7864 17.7451 10.6627 18.1189C10.2696 18.2496 9.84501 18.0369 9.7143 17.6438C9.5836 17.2508 9.79627 16.8262 10.1893 16.6955C11.6095 16.2232 12.9988 16.2226 14.3299 16.7014C14.7196 16.8417 14.9219 17.2713 14.7817 17.661C14.6415 18.0508 14.2119 18.2531 13.8221 18.1129Z" fill="#000000" />
<path fill-rule="evenodd" clip-rule="evenodd" d="M5.02374 7.32603C5.25885 4.96053 7.24847 3.1582 9.62605 3.1582H14.8771C17.2546 3.1582 19.2443 4.96053 19.4794 7.32603L19.7494 10.0513C19.7902 10.4635 19.4892 10.8307 19.077 10.8716C18.6648 10.9124 18.2975 10.6114 18.2567 10.1992L17.9867 7.47439C17.8279 5.87588 16.4835 4.6582 14.8771 4.6582H9.62605C8.01972 4.6582 6.67539 5.87576 6.5164 7.47416C6.5164 7.47423 6.51641 7.47408 6.5164 7.47416L6.2464 10.1992C6.20556 10.6114 5.8383 10.9124 5.42611 10.8716C5.01391 10.8307 4.71287 10.4635 4.75371 10.0513L5.02374 7.32603Z" fill="#000000" />
<path fill-rule="evenodd" clip-rule="evenodd" d="M21.1316 11.5316C15.1643 10.5769 9.24458 10.5637 3.37202 11.5311C2.96332 11.5984 2.57742 11.3217 2.51009 10.913C2.44276 10.5043 2.7195 10.1184 3.12821 10.051C9.16565 9.05645 15.2479 9.0712 21.3686 10.0505C21.7776 10.1159 22.0561 10.5005 21.9907 10.9095C21.9253 11.3186 21.5406 11.5971 21.1316 11.5316Z" fill="#000000" />
</svg>