<svg width="24px"  height="24px"  viewBox="0 0 25 25" fill="none" xmlns="http://www.w3.org/2000/svg">
<path fill-rule="evenodd" clip-rule="evenodd" d="M5.08747 5.20331C4.41027 5.92987 4 6.99286 4 8.31018V16.2572C4 17.5749 4.40861 18.6375 5.08451 19.3635C5.75476 20.0835 6.74344 20.5332 8.0322 20.5332H16.4659C17.7553 20.5332 18.7444 20.0834 19.415 19.3634C20.0912 18.6374 20.5 17.5748 20.5 16.2572V8.31018C20.5 6.99202 20.0912 5.92917 19.4151 5.20302C18.7446 4.48291 17.7557 4.0332 16.4669 4.0332H8.0322C6.74827 4.0332 5.75921 4.48259 5.08747 5.20331ZM3.99019 4.18058C4.97469 3.1243 6.37674 2.5332 8.0322 2.5332H16.4669C18.1262 2.5332 19.5289 3.12398 20.5129 4.18086C21.4913 5.2317 22 6.68234 22 8.31018V16.2572C22 17.8846 21.4913 19.335 20.5127 20.3857C19.5285 21.4425 18.1256 22.0332 16.4659 22.0332H8.0322C6.37287 22.0332 4.97045 21.4424 3.98662 20.3856C3.00844 19.3349 2.5 17.8845 2.5 16.2572V8.31018C2.5 6.6815 3.01113 5.231 3.99019 4.18058Z" fill="#000000" />
<path fill-rule="evenodd" clip-rule="evenodd" d="M9.16919 11.2285C8.58811 11.2285 8.11719 11.6996 8.11719 12.2805C8.11719 12.8621 8.58784 13.3325 9.16919 13.3325C9.75041 13.3325 10.2211 12.8622 10.2211 12.2805C10.2211 11.701 9.7514 11.23 9.17225 11.2285H9.16919ZM6.61719 12.2805C6.61719 10.8714 7.75947 9.72852 9.16919 9.72852H9.1746C10.5819 9.73135 11.7211 10.8742 11.7211 12.2805C11.7211 13.6909 10.5786 14.8325 9.16919 14.8325C7.75974 14.8325 6.61719 13.6909 6.61719 12.2805Z" fill="#000000" />
<path fill-rule="evenodd" clip-rule="evenodd" d="M10.2285 12.2832C10.2285 11.869 10.5643 11.5332 10.9785 11.5332H17.1257C17.5399 11.5332 17.8757 11.869 17.8757 12.2832V14.0852C17.8757 14.4994 17.5399 14.8352 17.1257 14.8352C16.7115 14.8352 16.3757 14.4994 16.3757 14.0852V13.0332H10.9785C10.5643 13.0332 10.2285 12.6974 10.2285 12.2832Z" fill="#000000" />
<path fill-rule="evenodd" clip-rule="evenodd" d="M14.375 11.5332C14.7892 11.5332 15.125 11.869 15.125 12.2832V14.0852C15.125 14.4994 14.7892 14.8352 14.375 14.8352C13.9608 14.8352 13.625 14.4994 13.625 14.0852V12.2832C13.625 11.869 13.9608 11.5332 14.375 11.5332Z" fill="#000000" />
</svg>