<svg width="24px"  height="24px"  viewBox="0 0 25 25" fill="none" xmlns="http://www.w3.org/2000/svg">
<path fill-rule="evenodd" clip-rule="evenodd" d="M7.158 9.12695C5.41372 9.12695 4 10.5397 4 12.283C4 14.0262 5.41372 15.439 7.158 15.439C8.90004 15.439 10.314 14.0265 10.314 12.283C10.314 10.5394 8.90004 9.12695 7.158 9.12695ZM2.5 12.283C2.5 9.71025 4.58629 7.62695 7.158 7.62695C9.72797 7.62695 11.814 9.7105 11.814 12.283C11.814 14.8554 9.72797 16.939 7.158 16.939C4.58629 16.939 2.5 14.8557 2.5 12.283Z" fill="#000000" />
<path fill-rule="evenodd" clip-rule="evenodd" d="M10.3145 12.2832C10.3145 11.869 10.6502 11.5332 11.0645 11.5332H21.2505C21.6647 11.5332 22.0005 11.869 22.0005 12.2832C22.0005 12.6974 21.6647 13.0332 21.2505 13.0332H11.0645C10.6502 13.0332 10.3145 12.6974 10.3145 12.2832Z" fill="#000000" />
<path fill-rule="evenodd" clip-rule="evenodd" d="M15.8086 11.5332C16.2228 11.5332 16.5586 11.869 16.5586 12.2832V15.2002H18.9036V12.2832C18.9036 11.869 19.2394 11.5332 19.6536 11.5332C20.0678 11.5332 20.4036 11.869 20.4036 12.2832V15.9502C20.4036 16.3644 20.0678 16.7002 19.6536 16.7002H15.8086C15.3944 16.7002 15.0586 16.3644 15.0586 15.9502V12.2832C15.0586 11.869 15.3944 11.5332 15.8086 11.5332Z" fill="#000000" />
</svg>