<svg width="24px"  height="24px"  viewBox="0 0 25 25" fill="none" xmlns="http://www.w3.org/2000/svg">
<path d="M18.2868 22.0339C17.952 22.0342 17.6238 21.9407 17.3394 21.764C17.055 21.5872 16.8258 21.3343 16.6779 21.0339L15.8669 19.4039C15.8455 19.3619 15.8145 19.3256 15.7765 19.2978C15.7384 19.27 15.6944 19.2516 15.6479 19.244L14.6759 19.088C14.2965 19.029 13.9462 18.8493 13.6771 18.5754C13.408 18.3016 13.2343 17.9483 13.1819 17.5679L13.0709 16.785C13.0614 16.7205 13.0312 16.6608 12.9848 16.615L12.0368 15.666C11.2234 16.2828 10.2144 16.5848 9.19579 16.5165C8.17719 16.4481 7.21761 16.0139 6.49385 15.2939L3.83286 12.631C3.04194 11.8393 2.59766 10.766 2.59766 9.64697C2.59766 8.52792 3.04194 7.45463 3.83286 6.66296L6.73285 3.76294C7.52423 2.97416 8.59601 2.53125 9.71335 2.53125C10.8307 2.53125 11.9025 2.97416 12.6938 3.76294L15.3559 6.41595C16.0281 7.08982 16.4532 7.971 16.5621 8.91663C16.671 9.86225 16.4574 10.8169 15.9559 11.626L20.6319 16.3049C21.035 16.7083 21.3546 17.1871 21.5725 17.7141C21.7904 18.241 21.9023 18.8057 21.9019 19.376V21.093C21.9018 21.2832 21.8294 21.4662 21.6995 21.6051C21.5695 21.744 21.3916 21.8283 21.2019 21.8409L18.4019 22.0229C18.3629 22.0329 18.3249 22.0339 18.2868 22.0339ZM13.1289 14.641L14.0479 15.561C14.3217 15.8369 14.5001 16.1933 14.5569 16.5779L14.6679 17.36C14.6758 17.4225 14.704 17.4807 14.748 17.5258C14.792 17.5709 14.8495 17.6005 14.9118 17.61L15.8869 17.7679C16.1684 17.8135 16.435 17.9253 16.6649 18.0941C16.8947 18.2629 17.0812 18.484 17.2088 18.739L18.0209 20.3699C18.0482 20.4212 18.0894 20.4639 18.1398 20.4929C18.1902 20.5219 18.2477 20.5361 18.3058 20.5339L20.4059 20.397V19.3829C20.4061 18.6277 20.1065 17.9034 19.5729 17.369L14.4418 12.236C14.3069 12.1009 14.2286 11.9194 14.2229 11.7286C14.2171 11.5378 14.2843 11.352 14.4109 11.209C14.8697 10.6907 15.1139 10.017 15.0939 9.32507C15.0738 8.63313 14.791 7.9748 14.3029 7.48395L11.6409 4.82996C11.1306 4.32201 10.4399 4.03687 9.71985 4.03687C8.99984 4.03687 8.30915 4.32201 7.79886 4.82996L4.89885 7.72998C4.38975 8.24027 4.10384 8.93165 4.10384 9.65247C4.10384 10.3733 4.38975 11.0647 4.89885 11.575L7.56085 14.238C8.07225 14.7469 8.76438 15.0326 9.48586 15.0326C10.2073 15.0326 10.8995 14.7469 11.4109 14.238L12.6579 12.983C12.7992 12.8486 12.9872 12.7744 13.1822 12.7762C13.3772 12.7779 13.5638 12.8555 13.7027 12.9924C13.8416 13.1293 13.9217 13.3148 13.9262 13.5098C13.9307 13.7047 13.8592 13.8938 13.7269 14.037L13.1289 14.641Z" fill="#000000" />
<path d="M7.70206 10.4412C7.55383 10.4408 7.40903 10.3965 7.28591 10.314C7.16279 10.2314 7.06685 10.1143 7.01018 9.97732C6.95351 9.84035 6.93863 9.68962 6.96744 9.54421C6.99625 9.39881 7.06745 9.2652 7.17206 9.16018L9.49906 6.83419C9.56828 6.76259 9.65107 6.70549 9.74259 6.66622C9.83411 6.62696 9.93252 6.60631 10.0321 6.60549C10.1317 6.60468 10.2305 6.62371 10.3226 6.66146C10.4148 6.69922 10.4985 6.75495 10.5689 6.8254C10.6392 6.89586 10.6949 6.97961 10.7326 7.0718C10.7702 7.16399 10.7892 7.26275 10.7882 7.36233C10.7873 7.46191 10.7666 7.56034 10.7273 7.65182C10.6879 7.7433 10.6307 7.82602 10.5591 7.89517L8.23206 10.2212C8.16255 10.2909 8.07994 10.3463 7.98899 10.3841C7.89804 10.4218 7.80054 10.4412 7.70206 10.4412Z" fill="#000000" />
</svg>