<svg width="24px"  height="24px"  viewBox="0 0 24 25" fill="none" xmlns="http://www.w3.org/2000/svg">
<path fill-rule="evenodd" clip-rule="evenodd" d="M7.88862 4.02051C6.02752 4.02051 4.51953 5.52956 4.51953 7.3895V17.1505C4.51953 19.0116 6.02764 20.5205 7.88862 20.5205H10.4807C10.8949 20.5205 11.2307 20.8563 11.2307 21.2705C11.2307 21.6847 10.8949 22.0205 10.4807 22.0205H7.88862C5.19868 22.0205 3.01953 19.8395 3.01953 17.1505V7.3895C3.01953 4.70143 5.1988 2.52051 7.88862 2.52051H14.9847C17.6742 2.52051 19.8547 4.70121 19.8547 7.3895V10.7545C19.8547 11.1687 19.5189 11.5045 19.1047 11.5045C18.6905 11.5045 18.3547 11.1687 18.3547 10.7545V7.3895C18.3547 5.52978 16.8459 4.02051 14.9847 4.02051H7.88862Z" fill="#000000" />
<path fill-rule="evenodd" clip-rule="evenodd" d="M16.0104 17.6377C15.6527 17.6377 15.3613 17.929 15.3613 18.2877V19.8707C15.3613 20.2307 15.652 20.5207 16.0104 20.5207H18.8311C19.1901 20.5207 19.4811 20.2301 19.4811 19.8707V18.2877C19.4811 17.9296 19.1894 17.6377 18.8311 17.6377H16.0104ZM13.8613 18.2877C13.8613 17.1024 14.8225 16.1377 16.0104 16.1377H18.8311C20.0184 16.1377 20.9811 17.1018 20.9811 18.2877V19.8707C20.9811 21.0593 20.0177 22.0207 18.8311 22.0207H16.0104C14.8232 22.0207 13.8613 21.0587 13.8613 19.8707V18.2877Z" fill="#000000" />
<path fill-rule="evenodd" clip-rule="evenodd" d="M17.3923 13.4582C18.7352 13.4423 19.8381 14.5176 19.855 15.8617L19.8551 15.8711L19.8551 16.9131C19.8551 17.3273 19.5193 17.6631 19.1051 17.6631C18.6909 17.6631 18.3551 17.3273 18.3551 16.9131V15.8765C18.3464 15.3627 17.9243 14.9523 17.4106 14.9581C16.9068 14.965 16.4999 15.369 16.4883 15.8705V16.9131C16.4883 17.3273 16.1525 17.6631 15.7383 17.6631C15.3241 17.6631 14.9883 17.3273 14.9883 16.9131V15.8502C15.011 14.5344 16.0759 13.4755 17.3913 13.4582L17.3923 13.4582Z" fill="#000000" />
<path fill-rule="evenodd" clip-rule="evenodd" d="M9.85189 7.98901C10.2661 7.98892 10.602 8.32464 10.6021 8.73885L10.6021 8.753C10.6021 9.16721 10.2664 9.50307 9.85222 9.50316C9.438 9.50325 9.10214 9.16753 9.10205 8.75332L9.10205 8.73917C9.10196 8.32496 9.43768 7.9891 9.85189 7.98901Z" fill="#000000" />
<path fill-rule="evenodd" clip-rule="evenodd" d="M11.5263 7.63887C12.458 8.57049 12.458 10.0809 11.5263 11.0126C11.4128 11.1261 11.2821 11.2251 11.1229 11.327C10.9075 11.4648 10.7772 11.7029 10.7772 11.9586L10.7768 15.8343L9.92309 16.688L9.22121 15.9861L9.48614 15.7212C9.77903 15.4283 9.77903 14.9534 9.48614 14.6606L9.1947 14.3691L9.47283 14.091C9.76572 13.7981 9.76572 13.3232 9.47283 13.0303L9.16199 12.7195L9.16133 12.1177C9.16102 11.8365 9.00347 11.5791 8.7532 11.451C8.53822 11.3408 8.33461 11.1945 8.15265 11.0126C7.22103 10.0809 7.22103 8.57049 8.15265 7.63887C9.08427 6.70725 10.5947 6.70725 11.5263 7.63887ZM7.89516 15.1909C7.45794 15.6329 7.45942 16.3457 7.8996 16.7858L9.12338 18.0096C9.56505 18.4513 10.2811 18.4513 10.7228 18.0096L11.9456 16.7869C12.1576 16.5748 12.2768 16.2872 12.2768 15.9873L12.2772 12.3469C12.3815 12.2651 12.4855 12.1747 12.587 12.0732C14.1044 10.5558 14.1044 8.09562 12.587 6.57821C11.0696 5.06081 8.60939 5.0608 7.09199 6.57821C5.57458 8.09562 5.57458 10.5558 7.09199 12.0732C7.26937 12.2506 7.46045 12.4079 7.6618 12.5445L7.66233 13.0313C7.66255 13.2299 7.74149 13.4202 7.88184 13.5607L7.60371 13.8388C7.31082 14.1317 7.31082 14.6066 7.60371 14.8994L7.89516 15.1909Z" fill="#000000" />
</svg>