<svg width="24px"  height="24px"  viewBox="0 0 24 25" fill="none" xmlns="http://www.w3.org/2000/svg">
<path fill-rule="evenodd" clip-rule="evenodd" d="M7.88862 4.02051C6.02752 4.02051 4.51953 5.52956 4.51953 7.3895V17.1505C4.51953 19.0116 6.02764 20.5205 7.88862 20.5205H10.4807C10.8949 20.5205 11.2307 20.8563 11.2307 21.2705C11.2307 21.6847 10.8949 22.0205 10.4807 22.0205H7.88862C5.19868 22.0205 3.01953 19.8395 3.01953 17.1505V7.3895C3.01953 4.70143 5.1988 2.52051 7.88862 2.52051H14.9847C17.6742 2.52051 19.8547 4.70121 19.8547 7.3895V10.7545C19.8547 11.1687 19.5189 11.5045 19.1047 11.5045C18.6905 11.5045 18.3547 11.1687 18.3547 10.7545V7.3895C18.3547 5.52978 16.8459 4.02051 14.9847 4.02051H7.88862Z" fill="#000000" />
<path fill-rule="evenodd" clip-rule="evenodd" d="M16.0104 17.6377C15.6527 17.6377 15.3613 17.929 15.3613 18.2877V19.8707C15.3613 20.2307 15.652 20.5207 16.0104 20.5207H18.8311C19.1901 20.5207 19.4811 20.2301 19.4811 19.8707V18.2877C19.4811 17.9296 19.1894 17.6377 18.8311 17.6377H16.0104ZM13.8613 18.2877C13.8613 17.1024 14.8225 16.1377 16.0104 16.1377H18.8311C20.0184 16.1377 20.9811 17.1018 20.9811 18.2877V19.8707C20.9811 21.0593 20.0177 22.0207 18.8311 22.0207H16.0104C14.8232 22.0207 13.8613 21.0587 13.8613 19.8707V18.2877Z" fill="#000000" />
<path fill-rule="evenodd" clip-rule="evenodd" d="M17.3923 13.4582C18.7352 13.4423 19.8381 14.5176 19.855 15.8617L19.8551 15.8711L19.8551 16.9131C19.8551 17.3273 19.5193 17.6631 19.1051 17.6631C18.6909 17.6631 18.3551 17.3273 18.3551 16.9131V15.8765C18.3464 15.3627 17.9243 14.9523 17.4106 14.9581C16.9068 14.965 16.4999 15.369 16.4883 15.8705V16.9131C16.4883 17.3273 16.1525 17.6631 15.7383 17.6631C15.3241 17.6631 14.9883 17.3273 14.9883 16.9131V15.8502C15.011 14.5344 16.0759 13.4755 17.3913 13.4582L17.3923 13.4582Z" fill="#000000" />
<path fill-rule="evenodd" clip-rule="evenodd" d="M8.58057 8.89046C8.58057 8.30939 9.05167 7.83846 9.63257 7.83846C10.2142 7.83846 10.6846 8.30912 10.6846 8.89046C10.6846 9.47168 10.2142 9.94236 9.63257 9.94236C9.0531 9.94236 8.58209 9.47268 8.58057 8.89352L8.58057 8.89046ZM9.63257 6.33846C8.22346 6.33846 7.08057 7.48074 7.08057 8.89046L7.08057 8.89587C7.0834 10.3032 8.22626 11.4424 9.63257 11.4424C11.0429 11.4424 12.1846 10.2998 12.1846 8.89046C12.1846 7.48101 11.0429 6.33846 9.63257 6.33846Z" fill="#000000" />
<path fill-rule="evenodd" clip-rule="evenodd" d="M9.63525 9.99081C9.22104 9.99081 8.88525 10.3266 8.88525 10.7408L8.88525 16.4166C8.88525 16.8308 9.22104 17.1666 9.63525 17.1666L11.4373 17.1666C11.8515 17.1666 12.1873 16.8308 12.1873 16.4166C12.1873 16.0023 11.8515 15.6666 11.4373 15.6666L10.3853 15.6666L10.3853 10.7408C10.3853 10.3266 10.0495 9.99081 9.63525 9.99081Z" fill="#000000" />
<path fill-rule="evenodd" clip-rule="evenodd" d="M8.88525 13.6646C8.88525 14.0788 9.22104 14.4146 9.63525 14.4146L11.4373 14.4146C11.8515 14.4146 12.1873 14.0788 12.1873 13.6646C12.1873 13.2504 11.8515 12.9146 11.4373 12.9146L9.63525 12.9146C9.22104 12.9146 8.88525 13.2504 8.88525 13.6646Z" fill="#000000" />
</svg>