<svg width="24px"  height="24px"  viewBox="0 0 25 25" fill="none" xmlns="http://www.w3.org/2000/svg">
<path fill-rule="evenodd" clip-rule="evenodd" d="M6.88922 8.64258C5.0582 8.64258 3.57422 10.1261 3.57422 11.9566C3.57422 13.7872 5.0582 15.2706 6.88922 15.2706C8.71912 15.2706 10.2032 13.7873 10.2032 11.9566C10.2032 10.1259 8.71912 8.64258 6.88922 8.64258ZM2.07422 11.9566C2.07422 9.29716 4.23024 7.14258 6.88922 7.14258C9.54732 7.14258 11.7032 9.29728 11.7032 11.9566C11.7032 14.6159 9.54732 16.7706 6.88922 16.7706C4.23024 16.7706 2.07422 14.6161 2.07422 11.9566Z" fill="#000000" />
<path fill-rule="evenodd" clip-rule="evenodd" d="M10.2031 11.959C10.2031 11.5448 10.5389 11.209 10.9531 11.209H20.0301C20.8823 11.209 21.5741 11.9008 21.5741 12.753V15.443C21.5741 15.8572 21.2383 16.193 20.8241 16.193C20.4099 16.193 20.0741 15.8572 20.0741 15.443V12.753C20.0741 12.7414 20.0702 12.7313 20.061 12.7221C20.0518 12.7129 20.0417 12.709 20.0301 12.709H10.9531C10.5389 12.709 10.2031 12.3732 10.2031 11.959Z" fill="#000000" />
<path fill-rule="evenodd" clip-rule="evenodd" d="M16.8242 11.209C17.2384 11.209 17.5742 11.5448 17.5742 11.959V15.443C17.5742 15.8572 17.2384 16.193 16.8242 16.193C16.41 16.193 16.0742 15.8572 16.0742 15.443V11.959C16.0742 11.5448 16.41 11.209 16.8242 11.209Z" fill="#000000" />
</svg>