<svg width="24px"  height="24px"  viewBox="0 0 25 25" fill="none" xmlns="http://www.w3.org/2000/svg">
<path fill-rule="evenodd" clip-rule="evenodd" d="M7.98318 7.77539C6.05539 7.77539 4.49219 9.33858 4.49219 11.2664C4.49219 12.6891 5.34557 13.9133 6.57042 14.4569C6.84153 14.5772 7.01627 14.846 7.0162 15.1426L7.0152 19.5644C7.01529 20.0982 7.4486 20.5314 7.98318 20.5314C8.51727 20.5314 8.9502 20.0989 8.9502 19.5644V15.1424C8.9502 14.8458 9.125 14.577 9.39615 14.4568C10.6216 13.9133 11.4742 12.6893 11.4742 11.2664C11.4742 9.33846 9.91186 7.77539 7.98318 7.77539ZM2.99219 11.2664C2.99219 8.51014 5.22698 6.27539 7.98318 6.27539C10.7405 6.27539 12.9742 8.51025 12.9742 11.2664C12.9742 13.127 11.9555 14.7453 10.4502 15.6028V19.5644C10.4502 20.9279 9.3451 22.0314 7.98318 22.0314C6.62183 22.0314 5.5152 20.9285 5.5152 19.5644L5.5161 15.6026C4.0118 14.7452 2.99219 13.1271 2.99219 11.2664Z" fill="#000000" />
<path fill-rule="evenodd" clip-rule="evenodd" d="M8.03906 16.5332C8.03906 16.119 8.37485 15.7832 8.78906 15.7832H9.69907C10.1133 15.7832 10.4491 16.119 10.4491 16.5332C10.4491 16.9474 10.1133 17.2832 9.69907 17.2832H8.78906C8.37485 17.2832 8.03906 16.9474 8.03906 16.5332ZM8.03906 18.5222C8.03906 18.108 8.37485 17.7722 8.78906 17.7722H9.69907C10.1133 17.7722 10.4491 18.108 10.4491 18.5222C10.4491 18.9364 10.1133 19.2722 9.69907 19.2722H8.78906C8.37485 19.2722 8.03906 18.9364 8.03906 18.5222Z" fill="#000000" />
<path fill-rule="evenodd" clip-rule="evenodd" d="M13.3479 7.85408C12.9766 7.94799 12.6231 8.11164 12.3044 8.35222C12.0856 8.52006 11.9016 8.70521 11.7594 8.89586C11.5117 9.22786 11.0418 9.29622 10.7098 9.04853C10.3778 8.80085 10.3094 8.33092 10.5571 7.99892C10.7905 7.6861 11.0759 7.40371 11.3942 7.15992L11.3979 7.15713C11.8884 6.78625 12.4313 6.53704 12.9923 6.39678L13.009 6.39281C13.3357 6.31905 13.6793 6.27539 14.0293 6.27539C15.3626 6.27539 16.6774 6.88283 17.5356 8.02455C17.5355 8.02447 17.5357 8.02463 17.5356 8.02455L20.6332 12.1387C22.0753 14.0699 21.698 16.8161 19.7633 18.2726L19.7612 18.2742C17.8306 19.7167 15.0845 19.3389 13.6272 17.4047L13.6262 17.4033L11.0082 13.9113C10.7597 13.5799 10.8269 13.1098 11.1583 12.8613C11.4897 12.6129 11.9598 12.6801 12.2083 13.0115L14.8253 16.5021C14.8251 16.5018 14.8254 16.5023 14.8253 16.5021C15.7819 17.7709 17.5892 18.0238 18.8623 17.0733C20.1302 16.1179 20.3827 14.3115 19.4321 13.0372C19.4318 13.0369 19.4316 13.0365 19.4313 13.0361L16.3371 8.92652C15.7733 8.1764 14.9098 7.77539 14.0293 7.77539C13.8059 7.77539 13.5765 7.80304 13.3479 7.85408Z" fill="#000000" />
<path fill-rule="evenodd" clip-rule="evenodd" d="M7.07617 5.95721C7.07617 4.0705 8.59645 2.5332 10.4911 2.5332C12.3891 2.5332 13.9232 4.06573 13.9232 5.95721V7.1272C13.9232 7.54141 13.5874 7.8772 13.1732 7.8772C12.7589 7.8772 12.4232 7.54141 12.4232 7.1272V5.95721C12.4232 4.8967 11.5632 4.0332 10.4911 4.0332C9.43185 4.0332 8.57617 4.89193 8.57617 5.95721V10.9972C8.57617 11.4114 8.24039 11.7472 7.82617 11.7472C7.41196 11.7472 7.07617 11.4114 7.07617 10.9972V5.95721Z" fill="#000000" />
</svg>