<svg width="24px"  height="24px"  viewBox="0 0 25 25" fill="none" xmlns="http://www.w3.org/2000/svg">
<path fill-rule="evenodd" clip-rule="evenodd" d="M2.5 12.9668C2.5 7.58158 6.86487 3.2168 12.25 3.2168C17.6351 3.2168 22 7.58158 22 12.9668C22 18.352 17.6351 22.7168 12.25 22.7168C6.86487 22.7168 2.5 18.352 2.5 12.9668ZM12.25 4.7168C7.69329 4.7168 4 8.41001 4 12.9668C4 17.5236 7.69329 21.2168 12.25 21.2168C16.8067 21.2168 20.5 17.5236 20.5 12.9668C20.5 8.41002 16.8067 4.7168 12.25 4.7168Z" fill="#000000" />
<path fill-rule="evenodd" clip-rule="evenodd" d="M9.41797 11.6221C9.41797 10.0556 10.688 8.78711 12.2531 8.78711C13.8193 8.78711 15.0881 10.0559 15.0881 11.6221C15.0881 12.3574 14.8065 13.021 14.352 13.5202L14.8445 15.0015C15.1948 16.0592 14.4084 17.1511 13.2941 17.1511H11.213C10.0986 17.1511 9.31196 16.06 9.66231 15.0023L10.1551 13.5203C9.70046 13.0214 9.41797 12.3579 9.41797 11.6221ZM12.2531 10.2871C11.5159 10.2871 10.918 10.8846 10.918 11.6221C10.918 12.058 11.1301 12.4446 11.465 12.6912C11.7267 12.8839 11.8345 13.2233 11.732 13.5317L11.0862 15.4739C11.0862 15.474 11.0863 15.4739 11.0862 15.4739C11.0572 15.5622 11.1228 15.6511 11.213 15.6511H13.2941C13.3842 15.6511 13.4499 15.5624 13.4209 15.4742C13.4209 15.4741 13.4209 15.4743 13.4209 15.4742L12.7751 13.5317C12.6725 13.2233 12.7803 12.8839 13.0421 12.6912C13.3763 12.445 13.5881 12.0588 13.5881 11.6221C13.5881 10.8843 12.9909 10.2871 12.2531 10.2871Z" fill="#000000" />
</svg>