<svg width="24px"  height="24px"  viewBox="0 0 25 25" fill="none" xmlns="http://www.w3.org/2000/svg">
<path d="M14.95 22.7163H9.54996C8.42534 22.8378 7.28778 22.7119 6.21698 22.3473C5.44934 21.9769 4.82994 21.3571 4.45996 20.5893C4.09435 19.5187 3.96805 18.381 4.08997 17.2563V15.1243C3.96816 13.9993 4.09446 12.8612 4.45996 11.7903C4.83027 11.0211 5.45083 10.4006 6.21997 10.0303C7.29091 9.66477 8.42894 9.53848 9.55396 9.66028H14.95C16.0747 9.53836 17.2124 9.66466 18.283 10.0303C19.051 10.4002 19.6705 11.0201 20.04 11.7883C20.4057 12.8585 20.532 13.9959 20.41 15.1203V17.2523C20.5318 18.3773 20.4055 19.5153 20.04 20.5863C19.6703 21.3538 19.0513 21.9732 18.284 22.3433C17.2131 22.7091 16.0752 22.8364 14.95 22.7163ZM9.54996 11.1643C8.64919 11.0727 7.73927 11.1483 6.86597 11.3873C6.40557 11.6089 6.034 11.9801 5.81198 12.4403C5.57409 13.3138 5.49883 14.2236 5.58997 15.1243V17.2563C5.49869 18.157 5.57396 19.0668 5.81198 19.9403C6.03422 20.4008 6.40566 20.7726 6.86597 20.9953C7.73963 21.2322 8.6493 21.3071 9.54996 21.2163H14.95C15.851 21.3074 16.7611 21.2322 17.635 20.9943C18.0952 20.7724 18.4667 20.4013 18.689 19.9413C18.9258 19.0673 19.0007 18.1573 18.91 17.2563V15.1243C19.001 14.224 18.9261 13.3146 18.689 12.4413C18.4673 11.9806 18.0956 11.609 17.635 11.3873C16.7613 11.1483 15.8511 11.0727 14.95 11.1643H9.54996Z" fill="#000000" />
<path d="M12.2494 18.5827C11.7767 18.5827 11.3146 18.4426 10.9216 18.18C10.5285 17.9173 10.2222 17.5441 10.0413 17.1073C9.86042 16.6706 9.81308 16.1901 9.9053 15.7265C9.99751 15.2629 10.2252 14.837 10.5594 14.5028C10.8937 14.1685 11.3195 13.9409 11.7831 13.8487C12.2467 13.7564 12.7273 13.8038 13.164 13.9847C13.6007 14.1656 13.974 14.4719 14.2366 14.8649C14.4992 15.258 14.6394 15.72 14.6394 16.1927C14.6386 16.8264 14.3865 17.4338 13.9385 17.8818C13.4905 18.3299 12.883 18.5819 12.2494 18.5827ZM12.2494 15.3027C12.0734 15.3027 11.9013 15.3549 11.7549 15.4527C11.6086 15.5505 11.4945 15.6895 11.4271 15.8521C11.3598 16.0148 11.3421 16.1937 11.3765 16.3664C11.4108 16.539 11.4956 16.6976 11.62 16.8221C11.7445 16.9465 11.9031 17.0313 12.0757 17.0656C12.2484 17.1 12.4273 17.0824 12.59 17.015C12.7526 16.9476 12.8916 16.8336 12.9894 16.6872C13.0872 16.5408 13.1394 16.3688 13.1394 16.1927C13.1391 15.9568 13.0453 15.7306 12.8784 15.5637C12.7116 15.3969 12.4853 15.303 12.2494 15.3027Z" fill="#000000" />
<path d="M7.81445 11.1656C7.61554 11.1656 7.42477 11.0865 7.28412 10.9459C7.14347 10.8052 7.06445 10.6145 7.06445 10.4156V8.30556C7.07426 7.08384 7.51486 5.90476 8.30862 4.97598C9.10239 4.04719 10.1984 3.42828 11.4037 3.22824C12.609 3.0282 13.8462 3.25986 14.8974 3.88242C15.9486 4.50498 16.7465 5.47851 17.1505 6.63155C17.1862 6.7253 17.2027 6.82526 17.1991 6.92552C17.1955 7.02578 17.1718 7.1243 17.1295 7.21525C17.0871 7.30619 17.027 7.38771 16.9525 7.45499C16.8781 7.52226 16.791 7.57392 16.6962 7.60691C16.6015 7.6399 16.5011 7.65354 16.401 7.64703C16.3009 7.64053 16.203 7.614 16.1134 7.56902C16.0237 7.52405 15.944 7.46154 15.8789 7.38519C15.8138 7.30885 15.7647 7.22022 15.7345 7.12456C15.4486 6.30317 14.8818 5.60918 14.134 5.16511C13.3863 4.72103 12.5056 4.55543 11.6476 4.69753C10.7896 4.83964 10.0094 5.28031 9.4447 5.94176C8.88002 6.6032 8.56721 7.44288 8.56146 8.31255V10.4176C8.56094 10.6156 8.48208 10.8054 8.34213 10.9455C8.20219 11.0857 8.0125 11.1648 7.81445 11.1656Z" fill="#000000" />
</svg>