<svg width="24px"  height="24px"  viewBox="0 0 25 25" fill="none" xmlns="http://www.w3.org/2000/svg">
<path d="M16.7008 11.157C16.5019 11.157 16.3111 11.078 16.1705 10.9374C16.0298 10.7967 15.9508 10.6059 15.9508 10.407V8.30703C15.9351 7.33616 15.5383 6.41039 14.8461 5.72943C14.1539 5.04847 13.2218 4.6669 12.2508 4.66703H12.2038C11.2394 4.67405 10.3162 5.05939 9.63306 5.74014C8.94987 6.42089 8.56124 7.34264 8.55078 8.30703V10.407C8.55078 10.6059 8.47177 10.7967 8.33112 10.9374C8.19046 11.078 7.99969 11.157 7.80078 11.157C7.60187 11.157 7.4111 11.078 7.27045 10.9374C7.12979 10.7967 7.05078 10.6059 7.05078 10.407V8.29102C7.06488 6.93479 7.61066 5.63826 8.57074 4.68023C9.53082 3.72221 10.8286 3.17922 12.1848 3.16803C13.5631 3.16161 14.8898 3.69124 15.8848 4.64502C16.3749 5.12042 16.7659 5.68835 17.0351 6.31591C17.3042 6.94348 17.4463 7.61821 17.4528 8.30102V10.407C17.4528 10.5057 17.4333 10.6034 17.3955 10.6945C17.3577 10.7856 17.3023 10.8684 17.2324 10.9381C17.1626 11.0077 17.0796 11.0629 16.9884 11.1005C16.8972 11.1381 16.7995 11.1573 16.7008 11.157Z" fill="#000000" />
<path d="M14.8391 18.6529H9.66211C9.4632 18.6529 9.27243 18.5739 9.13177 18.4333C8.99112 18.2926 8.91211 18.1018 8.91211 17.9029C8.91211 17.704 8.99112 17.5133 9.13177 17.3726C9.27243 17.232 9.4632 17.1529 9.66211 17.1529H14.8391C15.038 17.1529 15.2288 17.232 15.3694 17.3726C15.5101 17.5133 15.5891 17.704 15.5891 17.9029C15.5891 18.1018 15.5101 18.2926 15.3694 18.4333C15.2288 18.5739 15.038 18.6529 14.8391 18.6529ZM14.8391 15.3359H9.66211C9.4632 15.3359 9.27243 15.2569 9.13177 15.1163C8.99112 14.9756 8.91211 14.7848 8.91211 14.5859C8.91211 14.387 8.99112 14.1963 9.13177 14.0556C9.27243 13.915 9.4632 13.8359 9.66211 13.8359H14.8391C15.038 13.8359 15.2288 13.915 15.3694 14.0556C15.5101 14.1963 15.5891 14.387 15.5891 14.5859C15.5891 14.7848 15.5101 14.9756 15.3694 15.1163C15.2288 15.2569 15.038 15.3359 14.8391 15.3359Z" fill="#000000" />
<path d="M14.95 22.7064H9.54993C8.42531 22.8279 7.28772 22.7019 6.21692 22.3374C5.4489 21.9675 4.82941 21.3476 4.45996 20.5794C4.09435 19.5088 3.96805 18.371 4.08997 17.2464V15.1144C3.96805 13.9897 4.09435 12.8519 4.45996 11.7814C4.82908 11.0135 5.44828 10.3939 6.21594 10.0244C7.2869 9.65895 8.42491 9.53266 9.54993 9.65436H14.95C16.0746 9.53255 17.2124 9.65884 18.283 10.0244C19.0511 10.3935 19.6707 11.0132 20.0399 11.7814C20.4055 12.8519 20.5318 13.9897 20.4099 15.1144V17.2464C20.5317 18.3714 20.4054 19.5094 20.0399 20.5804C19.6703 21.3479 19.0512 21.9673 18.2839 22.3374C17.2128 22.7018 16.0749 22.8278 14.95 22.7064ZM9.54993 11.1544C8.64888 11.0632 7.73876 11.1384 6.86493 11.3764C6.40465 11.5986 6.03314 11.9701 5.81091 12.4304C5.57401 13.304 5.49916 14.2137 5.58997 15.1144V17.2464C5.49909 18.147 5.57394 19.0567 5.81091 19.9304C6.03321 20.3912 6.40515 20.7631 6.86597 20.9854C7.73963 21.2223 8.64927 21.2972 9.54993 21.2064H14.95C15.8509 21.2971 16.7609 21.2222 17.6349 20.9854C18.095 20.7628 18.4664 20.3914 18.689 19.9314C18.9258 19.0573 19.0007 18.1473 18.9099 17.2464V15.1144C19.0007 14.2137 18.9259 13.304 18.689 12.4304C18.4666 11.9698 18.0947 11.5983 17.6339 11.3764C16.7604 11.1384 15.8507 11.0631 14.95 11.1544H9.54993Z" fill="#000000" />
</svg>