<svg width="24px"  height="24px"  viewBox="0 0 25 25" fill="none" xmlns="http://www.w3.org/2000/svg">
<path d="M12.25 18.037C12.0511 18.037 11.8603 17.958 11.7197 17.8173C11.579 17.6767 11.5 17.4859 11.5 17.287V15.125C11.5 14.9261 11.579 14.7353 11.7197 14.5947C11.8603 14.454 12.0511 14.375 12.25 14.375C12.4489 14.375 12.6397 14.454 12.7803 14.5947C12.921 14.7353 13 14.9261 13 15.125V17.287C13 17.4859 12.921 17.6767 12.7803 17.8173C12.6397 17.958 12.4489 18.037 12.25 18.037Z" fill="#000000" />
<path d="M7.81445 11.1812C7.61554 11.1812 7.42477 11.1022 7.28412 10.9615C7.14347 10.8209 7.06445 10.6301 7.06445 10.4312V8.32119C7.0738 7.0993 7.51401 5.9199 8.30762 4.99077C9.10122 4.06164 10.1973 3.44238 11.4026 3.24208C12.608 3.04178 13.8455 3.27329 14.8969 3.89582C15.9484 4.51836 16.7464 5.49199 17.1505 6.64518C17.2092 6.83126 17.1931 7.03293 17.1057 7.20736C17.0182 7.3818 16.8662 7.51526 16.6819 7.57943C16.4976 7.64359 16.2956 7.6334 16.1187 7.55101C15.9418 7.46863 15.8039 7.32054 15.7344 7.13819C15.4486 6.3168 14.8817 5.62281 14.134 5.17874C13.3862 4.73466 12.5056 4.56906 11.6476 4.71116C10.7896 4.85327 10.0094 5.29394 9.4447 5.95539C8.88002 6.61683 8.56715 7.45651 8.5614 8.32618V10.4312C8.5614 10.6296 8.48284 10.8199 8.34283 10.9605C8.20283 11.101 8.01285 11.1804 7.81445 11.1812Z" fill="#000000" />
<path d="M14.95 22.7024H9.54993C8.42524 22.8242 7.28751 22.6979 6.21692 22.3324C5.44874 21.9632 4.82914 21.3435 4.45996 20.5754C4.09435 19.5048 3.96805 18.367 4.08997 17.2424V15.1104C3.96816 13.9853 4.09446 12.8473 4.45996 11.7764C4.8296 11.0089 5.44865 10.3894 6.21594 10.0194C7.28711 9.65488 8.42498 9.52895 9.54993 9.65036H14.95C16.0746 9.52884 17.2122 9.65478 18.283 10.0194C19.0511 10.3895 19.6709 11.0092 20.041 11.7774C20.4056 12.8481 20.5315 13.9857 20.4099 15.1104V17.2424C20.5318 18.367 20.4055 19.5048 20.0399 20.5754C19.6696 21.3435 19.049 21.9628 18.28 22.3314C17.2103 22.6965 16.0737 22.8232 14.95 22.7024ZM9.54993 11.1504C8.64894 11.0596 7.73895 11.1345 6.86493 11.3714C6.40468 11.5938 6.03348 11.9657 5.81195 12.4264C5.57395 13.2998 5.49871 14.2096 5.58997 15.1104V17.2424C5.49985 18.1449 5.57608 19.0563 5.81494 19.9314C6.03729 20.3919 6.40919 20.7634 6.86993 20.9854C7.74341 21.2234 8.65324 21.2986 9.55396 21.2074H14.95C15.851 21.2985 16.7611 21.2233 17.6349 20.9854C18.0937 20.7624 18.4637 20.391 18.6849 19.9314C18.9218 19.0577 18.9967 18.148 18.9059 17.2474V15.1104C18.9969 14.21 18.922 13.3007 18.6849 12.4274C18.463 11.9661 18.091 11.5938 17.6299 11.3714C16.7563 11.1344 15.8466 11.0595 14.9459 11.1504H9.54993Z" fill="#000000" />
</svg>