<svg width="24px"  height="24px"  viewBox="0 0 25 25" fill="none" xmlns="http://www.w3.org/2000/svg">
<path d="M11.6201 17.993C11.4212 17.993 11.2304 17.914 11.0898 17.7734C10.9491 17.6327 10.8701 17.4419 10.8701 17.243V15.082C10.8701 14.8831 10.9491 14.6923 11.0898 14.5517C11.2304 14.411 11.4212 14.332 11.6201 14.332C11.819 14.332 12.0098 14.411 12.1504 14.5517C12.2911 14.6923 12.3701 14.8831 12.3701 15.082V17.243C12.3701 17.4419 12.2911 17.6327 12.1504 17.7734C12.0098 17.914 11.819 17.993 11.6201 17.993Z" fill="#000000" />
<path d="M18.9571 9.74148C18.8586 9.74187 18.761 9.72286 18.6699 9.68554C18.5787 9.64821 18.4958 9.5933 18.4259 9.52393C18.356 9.45457 18.3004 9.37211 18.2623 9.28127C18.2243 9.19043 18.2045 9.09297 18.2041 8.99448C18.2037 8.89599 18.2227 8.79838 18.2601 8.70724C18.2974 8.61609 18.3523 8.5332 18.4217 8.46328C18.491 8.39336 18.5735 8.33777 18.6643 8.29972C18.7552 8.26166 18.8526 8.24187 18.9511 8.24148L20.3211 8.23047H20.3271C20.526 8.22968 20.7171 8.30794 20.8583 8.44803C20.9995 8.58812 21.0793 8.77857 21.0801 8.97748C21.0809 9.1764 21.0026 9.36747 20.8626 9.50869C20.7225 9.6499 20.532 9.72968 20.3331 9.73047L18.9621 9.74148H18.9571Z" fill="#000000" />
<path d="M18.1518 7.01796C18.0042 7.01805 17.8598 6.97456 17.7368 6.89296C17.6138 6.81137 17.5176 6.69529 17.4603 6.55927C17.4029 6.42325 17.387 6.27333 17.4145 6.1283C17.442 5.98327 17.5117 5.84957 17.6148 5.74396L18.5708 4.76197C18.7096 4.61941 18.8994 4.53785 19.0984 4.53522C19.2974 4.5326 19.4892 4.60912 19.6318 4.74796C19.7743 4.8868 19.8559 5.07659 19.8585 5.27556C19.8611 5.47454 19.7846 5.66641 19.6458 5.80896L18.6888 6.79096C18.6191 6.86286 18.5356 6.92002 18.4433 6.95902C18.3511 6.99802 18.2519 7.01806 18.1518 7.01796Z" fill="#000000" />
<path d="M7.1709 11.158C6.97199 11.158 6.78122 11.079 6.64057 10.9383C6.49992 10.7977 6.4209 10.6069 6.4209 10.408V8.29198C6.43525 6.93573 6.98108 5.63924 7.94107 4.68111C8.90107 3.72298 10.1986 3.17968 11.5549 3.16797H11.6179C12.5322 3.16849 13.4302 3.4097 14.2217 3.86732C15.0132 4.32495 15.6703 4.98289 16.1269 5.77498C16.1761 5.86034 16.208 5.95455 16.2207 6.05223C16.2335 6.14991 16.2269 6.24915 16.2013 6.34428C16.1757 6.43942 16.1317 6.52857 16.0716 6.60667C16.0116 6.68478 15.9368 6.75029 15.8514 6.79947C15.766 6.84865 15.6718 6.88054 15.5741 6.89331C15.4765 6.90608 15.3772 6.89948 15.2821 6.8739C15.187 6.84832 15.0978 6.80426 15.0197 6.74422C14.9416 6.68418 14.8761 6.60933 14.8269 6.52397C14.5019 5.96024 14.0343 5.49195 13.471 5.16617C12.9077 4.84038 12.2686 4.66856 11.6179 4.66797H11.5709C10.6078 4.67678 9.6865 5.06238 9.00427 5.74219C8.32204 6.42199 7.93315 7.34195 7.9209 8.30498V10.405C7.92129 10.5037 7.90219 10.6016 7.86467 10.6929C7.82716 10.7842 7.77198 10.8673 7.70229 10.9372C7.63261 11.0072 7.5498 11.0627 7.45861 11.1006C7.36742 11.1385 7.26964 11.158 7.1709 11.158Z" fill="#000000" />
<path d="M14.316 22.7034H8.92399C7.7993 22.8253 6.66156 22.699 5.59099 22.3334C4.82323 21.9637 4.20375 21.3442 3.83399 20.5764C3.46837 19.5058 3.34207 18.3681 3.46399 17.2434V15.1114C3.34217 13.9867 3.46847 12.849 3.83399 11.7784C4.20404 11.0116 4.82353 10.3932 5.59099 10.0244C6.66156 9.65881 7.7993 9.5325 8.92399 9.65442H14.316C15.441 9.53261 16.5791 9.65892 17.65 10.0244C18.4177 10.3942 19.0372 11.0137 19.407 11.7814C19.7716 12.8522 19.8976 13.9898 19.776 15.1144V17.2464C19.8979 18.3711 19.7716 19.5089 19.406 20.5794C19.0366 21.3474 18.417 21.967 17.649 22.3364C16.5782 22.701 15.4405 22.8263 14.316 22.7034ZM8.92399 11.1514C8.02328 11.0602 7.11348 11.1355 6.23999 11.3734C5.77983 11.5944 5.40824 11.9649 5.18599 12.4244C4.94799 13.2979 4.87274 14.2077 4.96399 15.1084V17.2404C4.87258 18.1411 4.94783 19.051 5.18599 19.9244C5.4079 20.3852 5.77945 20.7571 6.23999 20.9794C7.11348 21.2173 8.02328 21.2926 8.92399 21.2014H14.316C15.2167 21.2927 16.1265 21.2175 17 20.9794C17.4606 20.7572 17.8322 20.3853 18.054 19.9244C18.2899 19.0516 18.3634 18.1428 18.271 17.2434V15.1114C18.3618 14.2108 18.2869 13.3011 18.05 12.4274C17.8279 11.9667 17.4559 11.5951 16.995 11.3734C16.1215 11.1354 15.2117 11.0601 14.311 11.1514H8.92399Z" fill="#000000" />
</svg>