<svg width="24px"  height="24px"  viewBox="0 0 25 25" fill="none" xmlns="http://www.w3.org/2000/svg">
<path fill-rule="evenodd" clip-rule="evenodd" d="M12.9467 4.7169C11.4756 4.74092 10.2379 5.70059 9.805 7.03185C9.67692 7.42577 9.25376 7.64126 8.85984 7.51318C8.46593 7.3851 8.25043 6.96194 8.37851 6.56802C9.00539 4.64009 10.7983 3.25013 12.9261 3.21704L12.9314 3.21697C15.6039 3.19454 17.8133 5.33006 17.8477 8.01234L17.8478 8.02194H17.8477V10.6369C17.8477 11.0512 17.5119 11.3869 17.0977 11.3869C16.6835 11.3869 16.3477 11.0512 16.3477 10.6369V8.02698C16.3216 6.18226 14.7995 4.70279 12.9467 4.7169Z" fill="#000000" />
<path fill-rule="evenodd" clip-rule="evenodd" d="M9.08648 10.4312C9.37365 10.7297 9.36447 11.2045 9.06596 11.4917C7.99548 12.5215 7.33398 13.9666 7.33398 15.5652C7.33398 18.6921 9.86936 21.2192 12.989 21.2192C14.5874 21.2192 16.0337 20.5591 17.0606 19.4881C17.3473 19.1891 17.8221 19.1791 18.1211 19.4658C18.42 19.7525 18.43 20.2273 18.1434 20.5262C16.8423 21.8832 15.0086 22.7192 12.989 22.7192C9.04261 22.7192 5.83398 19.5222 5.83398 15.5652C5.83398 13.5438 6.6725 11.7128 8.02602 10.4107C8.32452 10.1235 8.7993 10.1327 9.08648 10.4312Z" fill="#000000" />
<path fill-rule="evenodd" clip-rule="evenodd" d="M4.56928 6.97553C4.86217 6.68264 5.33705 6.68264 5.62994 6.97553L19.6439 20.9895C19.9368 21.2824 19.9368 21.7573 19.6439 22.0502C19.3511 22.3431 18.8762 22.3431 18.5833 22.0502L4.56928 8.03619C4.27639 7.7433 4.27639 7.26842 4.56928 6.97553Z" fill="#000000" />
<path fill-rule="evenodd" clip-rule="evenodd" d="M10.8998 8.70726C11.5623 8.5047 12.2642 8.39648 12.9901 8.39648C16.9443 8.39648 20.1501 11.6023 20.1501 15.5565C20.1501 15.9416 20.1201 16.3203 20.0607 16.6911C19.9952 17.1001 19.6105 17.3786 19.2015 17.3131C18.7925 17.2476 18.5141 16.8629 18.5795 16.4539C18.6262 16.1627 18.6501 15.8634 18.6501 15.5565C18.6501 12.4307 16.1159 9.89648 12.9901 9.89648C12.414 9.89648 11.8599 9.98226 11.3384 10.1417C10.9423 10.2628 10.523 10.0399 10.4019 9.64377C10.2808 9.24766 10.5037 8.82837 10.8998 8.70726Z" fill="#000000" />
</svg>