<svg width="24px"  height="24px"  viewBox="0 0 25 25" fill="none" xmlns="http://www.w3.org/2000/svg">
<path fill-rule="evenodd" clip-rule="evenodd" d="M3.98928 4.5066C4.97376 3.4505 6.37571 2.85938 8.03101 2.85938H16.466C18.1253 2.85938 19.5279 3.45016 20.5119 4.50689C21.4903 5.55758 21.999 7.00797 21.999 8.63538V10.8744C21.999 11.2886 21.6632 11.6244 21.249 11.6244C20.8348 11.6244 20.499 11.2886 20.499 10.8744V8.63538C20.499 7.31778 20.0902 6.25517 19.4141 5.52911C18.7437 4.80909 17.7547 4.35938 16.466 4.35938H8.03101C6.7473 4.35938 5.75826 4.80876 5.0865 5.5294C4.40929 6.25589 3.99902 7.31864 3.99902 8.63538V12.6904C3.99902 14.0081 4.40762 15.071 5.08354 15.7973C5.7538 16.5175 6.74241 16.9674 8.03101 16.9674H11.923C12.3372 16.9674 12.673 17.3032 12.673 17.7174C12.673 18.1316 12.3372 18.4674 11.923 18.4674H8.03101C6.3716 18.4674 4.96922 17.8762 3.98549 16.8192C3.00742 15.7682 2.49902 14.3177 2.49902 12.6904V8.63538C2.49902 7.00712 3.01025 5.55687 3.98928 4.5066Z" fill="#000000" />
<path fill-rule="evenodd" clip-rule="evenodd" d="M16.9969 17.2891C16.6335 17.2891 16.3369 17.5849 16.3369 17.95V19.5461C16.3369 19.9112 16.6335 20.2071 16.9969 20.2071H19.8399C20.2047 20.2071 20.5009 19.9108 20.5009 19.5461V17.95C20.5009 17.5853 20.2047 17.2891 19.8399 17.2891H16.9969ZM14.8369 17.95C14.8369 16.7571 15.8044 15.7891 16.9969 15.7891H19.8399C21.0331 15.7891 22.0009 16.7568 22.0009 17.95V19.5461C22.0009 20.7393 21.0331 21.7071 19.8399 21.7071H16.9969C15.8044 21.7071 14.8369 20.7389 14.8369 19.5461V17.95Z" fill="#000000" />
<path fill-rule="evenodd" clip-rule="evenodd" d="M18.3864 13.094C19.7384 13.0768 20.8473 14.1582 20.8646 15.5093L20.8647 15.5189L20.8647 16.5689C20.8647 16.9831 20.5289 17.3189 20.1147 17.3189C19.7005 17.3189 19.3647 16.9831 19.3647 16.5689V15.5244C19.3558 15.0035 18.9278 14.5871 18.4053 14.5938C17.8964 14.5999 17.4828 15.0088 17.4717 15.5189V16.5689C17.4717 16.9831 17.1359 17.3189 16.7217 17.3189C16.3075 17.3189 15.9717 16.9831 15.9717 16.5689V15.4996C15.9933 14.1764 17.0633 13.1101 18.3864 13.094Z" fill="#000000" />
<path fill-rule="evenodd" clip-rule="evenodd" d="M11.2393 10.593C11.2393 10.0348 11.692 9.58203 12.2502 9.58203C12.8085 9.58203 13.2612 10.0348 13.2612 10.593C13.2612 11.1549 12.8048 11.603 12.2502 11.603C11.6957 11.603 11.2393 11.1549 11.2393 10.593Z" fill="#000000" />
<path fill-rule="evenodd" clip-rule="evenodd" d="M15.1455 10.593C15.1455 10.0346 15.5986 9.58203 16.1566 9.58203C16.7187 9.58203 17.1665 10.0387 17.1665 10.593C17.1665 11.151 16.715 11.603 16.1566 11.603C15.6022 11.603 15.1455 11.1551 15.1455 10.593Z" fill="#000000" />
<path fill-rule="evenodd" clip-rule="evenodd" d="M7.33301 10.593C7.33301 10.0348 7.78578 9.58203 8.34399 9.58203C8.90221 9.58203 9.35498 10.0348 9.35498 10.593C9.35498 11.1549 8.89854 11.603 8.34399 11.603C7.78945 11.603 7.33301 11.1549 7.33301 10.593Z" fill="#000000" />
</svg>