<svg width="24px"  height="24px"  viewBox="0 0 25 25" fill="none" xmlns="http://www.w3.org/2000/svg">
<path d="M6.46864 22.0296C6.37022 22.0298 6.27274 22.0105 6.18179 21.9729C6.09083 21.9353 6.0082 21.8802 5.93864 21.8106L5.02464 20.8956L4.10964 21.8106C3.96813 21.9471 3.77864 22.0226 3.582 22.0208C3.38535 22.019 3.19727 21.9401 3.05828 21.8009C2.91929 21.6618 2.84051 21.4737 2.83889 21.277C2.83728 21.0804 2.91296 20.891 3.04965 20.7496L3.96365 19.8346L3.04965 18.9206C2.91296 18.7792 2.83728 18.5897 2.83889 18.3931C2.84051 18.1964 2.91929 18.0083 3.05828 17.8692C3.19727 17.7301 3.38535 17.6511 3.582 17.6493C3.77864 17.6475 3.96813 17.723 4.10964 17.8596L5.02464 18.7736L5.93864 17.8596C6.00786 17.788 6.09065 17.7309 6.18217 17.6916C6.27369 17.6524 6.37212 17.6317 6.4717 17.6309C6.57129 17.6301 6.67003 17.6491 6.76219 17.6869C6.85434 17.7246 6.93806 17.7803 7.00845 17.8508C7.07883 17.9212 7.13448 18.005 7.17214 18.0972C7.20981 18.1894 7.22874 18.2881 7.22782 18.3877C7.22691 18.4873 7.20618 18.5857 7.16683 18.6772C7.12749 18.7687 7.07032 18.8514 6.99865 18.9206L6.08465 19.8346L6.99865 20.7496C7.1039 20.8543 7.17565 20.9879 7.20481 21.1334C7.23397 21.279 7.21922 21.4299 7.16242 21.5671C7.10563 21.7043 7.00936 21.8214 6.88583 21.9038C6.7623 21.9861 6.61709 22.0299 6.46864 22.0296Z" fill="#000000" />
<path d="M20.912 22.0258C20.8136 22.026 20.7161 22.0067 20.6252 21.9691C20.5342 21.9316 20.4516 21.8764 20.382 21.8068L19.467 20.8918L18.553 21.8068C18.4115 21.9433 18.222 22.0188 18.0254 22.017C17.8287 22.0152 17.6406 21.9363 17.5016 21.7972C17.3627 21.658 17.2839 21.4699 17.2823 21.2732C17.2806 21.0766 17.3563 20.8871 17.493 20.7458L18.407 19.8318L17.493 18.9178C17.3563 18.7764 17.2806 18.5869 17.2823 18.3903C17.2839 18.1936 17.3627 18.0055 17.5016 17.8664C17.6406 17.7273 17.8287 17.6483 18.0254 17.6465C18.222 17.6447 18.4115 17.7202 18.553 17.8568L19.467 18.7708L20.382 17.8568C20.5235 17.7202 20.713 17.6447 20.9097 17.6465C21.1063 17.6483 21.2944 17.7273 21.4334 17.8664C21.5724 18.0055 21.6512 18.1936 21.6528 18.3903C21.6544 18.5869 21.5787 18.7764 21.442 18.9178L20.528 19.8318L21.442 20.7458C21.5468 20.8506 21.6181 20.9842 21.647 21.1296C21.6759 21.275 21.661 21.4258 21.6043 21.5627C21.5476 21.6997 21.4516 21.8167 21.3283 21.8991C21.2051 21.9816 21.0603 22.0257 20.912 22.0258Z" fill="#000000" />
<path d="M13.6902 22.0286C13.5918 22.0288 13.4943 22.0095 13.4034 21.9719C13.3124 21.9344 13.2298 21.8792 13.1602 21.8096L12.2462 20.8946L11.3312 21.8096C11.262 21.8812 11.1792 21.9382 11.0877 21.9775C10.9962 22.0168 10.8977 22.0374 10.7982 22.0382C10.6986 22.0391 10.5998 22.02 10.5077 21.9823C10.4155 21.9445 10.3318 21.8888 10.2614 21.8184C10.191 21.7479 10.1354 21.6641 10.0977 21.5719C10.0601 21.4797 10.0411 21.381 10.042 21.2814C10.0429 21.1818 10.0637 21.0834 10.103 20.9919C10.1424 20.9004 10.1995 20.8177 10.2712 20.7486L11.1852 19.8346L10.2712 18.9206C10.1995 18.8514 10.1424 18.7687 10.103 18.6772C10.0637 18.5857 10.0429 18.4873 10.042 18.3877C10.0411 18.2881 10.0601 18.1894 10.0977 18.0972C10.1354 18.005 10.191 17.9212 10.2614 17.8508C10.3318 17.7803 10.4155 17.7246 10.5077 17.6869C10.5998 17.6491 10.6986 17.6301 10.7982 17.6309C10.8977 17.6317 10.9962 17.6524 11.0877 17.6916C11.1792 17.7309 11.262 17.788 11.3312 17.8596L12.2462 18.7736L13.1602 17.8596C13.3017 17.723 13.4912 17.6475 13.6879 17.6493C13.8845 17.6511 14.0726 17.7301 14.2116 17.8692C14.3506 18.0083 14.4294 18.1964 14.431 18.3931C14.4326 18.5897 14.3569 18.7792 14.2202 18.9206L13.3062 19.8346L14.2202 20.7486C14.325 20.8534 14.3963 20.987 14.4252 21.1324C14.4541 21.2778 14.4392 21.4286 14.3825 21.5655C14.3258 21.7025 14.2298 21.8195 14.1066 21.9019C13.9833 21.9844 13.8385 22.0285 13.6902 22.0286Z" fill="#000000" />
<path d="M14.4463 14.6573H10.0463C9.26824 14.6565 8.52227 14.347 7.97218 13.7967C7.42209 13.2464 7.11283 12.5004 7.1123 11.7223V9.25726C7.1131 8.47927 7.42244 7.73339 7.97247 7.18317C8.5225 6.63295 9.26832 6.32332 10.0463 6.32227H14.4463C15.2243 6.32332 15.9701 6.63295 16.5201 7.18317C17.0702 7.73339 17.3795 8.47927 17.3803 9.25726V11.7283C17.3782 12.5053 17.0682 13.2498 16.5183 13.7988C15.9684 14.3478 15.2233 14.6565 14.4463 14.6573ZM10.0463 7.81628C9.66598 7.81681 9.30139 7.96821 9.03255 8.23724C8.76371 8.50627 8.61257 8.87095 8.6123 9.25128V11.7223C8.6123 12.1027 8.76336 12.4675 9.03226 12.7366C9.30116 13.0057 9.6659 13.157 10.0463 13.1573H14.4463C14.8267 13.157 15.1915 13.0057 15.4604 12.7366C15.7293 12.4675 15.8803 12.1027 15.8803 11.7223V9.25726C15.88 8.87693 15.7289 8.51225 15.4601 8.24323C15.1912 7.9742 14.8266 7.8228 14.4463 7.82227L10.0463 7.81628Z" fill="#000000" />
<path d="M12.2471 11.555C12.0482 11.555 11.8574 11.476 11.7167 11.3353C11.5761 11.1947 11.4971 11.0039 11.4971 10.805V10.166C11.4971 9.9671 11.5761 9.77633 11.7167 9.63568C11.8574 9.49503 12.0482 9.41602 12.2471 9.41602C12.446 9.41602 12.6368 9.49503 12.7774 9.63568C12.9181 9.77633 12.9971 9.9671 12.9971 10.166V10.805C12.9971 11.0039 12.9181 11.1947 12.7774 11.3353C12.6368 11.476 12.446 11.555 12.2471 11.555Z" fill="#000000" />
<path d="M14.8742 7.8623C14.6752 7.8623 14.4845 7.78329 14.3438 7.64264C14.2032 7.50199 14.1242 7.31122 14.1242 7.1123V5.87433C14.1153 5.38225 13.9136 4.9133 13.5627 4.5683C13.2117 4.22329 12.7393 4.02974 12.2472 4.0293H12.2232C11.7338 4.03319 11.2654 4.22878 10.9186 4.5741C10.5718 4.91941 10.3742 5.38697 10.3682 5.87634V7.1123C10.3682 7.31122 10.2892 7.50199 10.1485 7.64264C10.0078 7.78329 9.81708 7.8623 9.61816 7.8623C9.41925 7.8623 9.22848 7.78329 9.08783 7.64264C8.94718 7.50199 8.86816 7.31122 8.86816 7.1123V5.86334C8.87677 4.98143 9.23107 4.1381 9.85489 3.51465C10.4787 2.8912 11.3222 2.53738 12.2042 2.5293H12.2472C13.1351 2.53078 13.9868 2.88133 14.6186 3.50525C15.2504 4.12917 15.6116 4.97647 15.6242 5.86432V7.1123C15.6242 7.31122 15.5451 7.50199 15.4045 7.64264C15.2638 7.78329 15.0731 7.8623 14.8742 7.8623Z" fill="#000000" />
</svg>