<svg width="24px"  height="24px"  viewBox="0 0 25 25" fill="none" xmlns="http://www.w3.org/2000/svg">
<path fill-rule="evenodd" clip-rule="evenodd" d="M4.34668 7.54398C4.34668 5.14962 6.2876 3.20898 8.68268 3.20898H14.1476C16.5416 3.20898 18.4825 5.14846 18.4827 7.54369C18.4827 7.5436 18.4827 7.54379 18.4827 7.54369L18.4836 10.1297C18.4838 10.5439 18.1481 10.8798 17.7339 10.88C17.3197 10.8801 16.9838 10.5445 16.9836 10.1303L16.9827 7.54426C16.9827 5.97762 15.7136 4.70898 14.1476 4.70898H8.68268C7.11578 4.70898 5.84672 5.97829 5.84668 7.54391C5.84668 7.54388 5.84668 7.54393 5.84668 7.54391L5.84766 18.2109C5.84766 19.777 7.11716 21.047 8.68268 21.047C9.09689 21.047 9.43268 21.3828 9.43268 21.797C9.43268 22.2112 9.09689 22.547 8.68268 22.547C6.28822 22.547 4.34769 20.605 4.34766 18.2111C4.34766 18.211 4.34766 18.2111 4.34766 18.2111L4.34668 7.54398Z" fill="#000000" />
<path fill-rule="evenodd" clip-rule="evenodd" d="M11.0342 17.9146C11.0342 16.4521 12.2193 15.2676 13.6822 15.2676H17.5062C18.9678 15.2676 20.1542 16.4518 20.1542 17.9146V20.0626C20.1542 21.5253 18.9679 22.7096 17.5062 22.7096H13.6822C12.2192 22.7096 11.0342 21.525 11.0342 20.0626V17.9146ZM13.6822 16.7676C13.0471 16.7676 12.5342 17.281 12.5342 17.9146V20.0626C12.5342 20.6961 13.0471 21.2096 13.6822 21.2096H17.5062C18.1405 21.2096 18.6542 20.6958 18.6542 20.0626V17.9146C18.6542 17.2813 18.1405 16.7676 17.5062 16.7676H13.6822Z" fill="#000000" />
<path fill-rule="evenodd" clip-rule="evenodd" d="M15.5947 17.9512C16.0089 17.9512 16.3447 18.287 16.3447 18.7012V19.3772C16.3447 19.7914 16.0089 20.1272 15.5947 20.1272C15.1805 20.1272 14.8447 19.7914 14.8447 19.3772V18.7012C14.8447 18.287 15.1805 17.9512 15.5947 17.9512Z" fill="#000000" />
<path fill-rule="evenodd" clip-rule="evenodd" d="M15.5564 11.9749C17.2312 11.9538 18.6065 13.2942 18.6265 14.9699L18.6266 14.9788L18.6265 16.0538C18.6265 16.468 18.2907 16.8038 17.8765 16.8038C17.4623 16.8038 17.1265 16.468 17.1265 16.0538V14.9837C17.1143 14.1394 16.4206 13.464 15.575 13.4747C14.7488 13.4848 14.0786 14.1489 14.0615 14.9758V16.0538C14.0615 16.468 13.7257 16.8038 13.3115 16.8038C12.8973 16.8038 12.5615 16.468 12.5615 16.0538V14.956C12.5894 13.3157 13.9167 11.995 15.5564 11.9749Z" fill="#000000" />
<path fill-rule="evenodd" clip-rule="evenodd" d="M9.28418 7.61523C9.28418 7.20102 9.61997 6.86523 10.0342 6.86523H12.7922C13.2064 6.86523 13.5422 7.20102 13.5422 7.61523C13.5422 8.02945 13.2064 8.36523 12.7922 8.36523H10.0342C9.61997 8.36523 9.28418 8.02945 9.28418 7.61523Z" fill="#000000" />
</svg>