<svg width="24px"  height="24px"  viewBox="0 0 25 25" fill="none" xmlns="http://www.w3.org/2000/svg">
<path fill-rule="evenodd" clip-rule="evenodd" d="M7.58789 21.2832C7.58789 20.869 7.92368 20.5332 8.33789 20.5332H16.1579C16.5721 20.5332 16.9079 20.869 16.9079 21.2832C16.9079 21.6974 16.5721 22.0332 16.1579 22.0332H8.33789C7.92368 22.0332 7.58789 21.6974 7.58789 21.2832Z" fill="#000000" />
<path fill-rule="evenodd" clip-rule="evenodd" d="M17.4053 6.36524C17.6913 6.36457 17.9529 6.52666 18.0795 6.78314L21.5705 13.8521C21.694 14.1023 21.6685 14.4003 21.5043 14.6258C19.2107 17.7743 14.9081 17.6711 13.2902 14.5275C13.1819 14.3171 13.1792 14.0679 13.283 13.8553L16.733 6.78628C16.8585 6.52922 17.1192 6.3659 17.4053 6.36524ZM17.411 8.81707L14.8078 14.1511C15.8898 15.7474 18.3433 16.004 20.015 14.0899L17.411 8.81707Z" fill="#000000" />
<path fill-rule="evenodd" clip-rule="evenodd" d="M7.04874 8.10352C7.33478 8.10283 7.59631 8.26491 7.72299 8.52138L11.214 15.5894C11.3375 15.8395 11.3121 16.1375 11.1479 16.363C8.85541 19.5116 4.55149 19.4085 2.9346 16.2646C2.82643 16.0542 2.82381 15.8052 2.92753 15.5926L6.3765 8.52461C6.50195 8.26754 6.7627 8.1042 7.04874 8.10352ZM7.05462 10.5554L4.45221 15.8885C5.53356 17.4846 7.98758 17.7414 9.65854 15.8273L7.05462 10.5554Z" fill="#000000" />
<path fill-rule="evenodd" clip-rule="evenodd" d="M3.32617 14.9668C3.32617 14.5526 3.66196 14.2168 4.07617 14.2168H10.0662C10.4804 14.2168 10.8162 14.5526 10.8162 14.9668C10.8162 15.381 10.4804 15.7168 10.0662 15.7168H4.07617C3.66196 15.7168 3.32617 15.381 3.32617 14.9668Z" fill="#000000" />
<path fill-rule="evenodd" clip-rule="evenodd" d="M13.6836 13.2285C13.6836 12.8143 14.0194 12.4785 14.4336 12.4785H20.4236C20.8378 12.4785 21.1736 12.8143 21.1736 13.2285C21.1736 13.6427 20.8378 13.9785 20.4236 13.9785H14.4336C14.0194 13.9785 13.6836 13.6427 13.6836 13.2285Z" fill="#000000" />
<path fill-rule="evenodd" clip-rule="evenodd" d="M12.403 2.5332C12.8172 2.5332 13.153 2.86899 13.153 3.2832V7.06979L17.287 6.37654C17.6955 6.30803 18.0822 6.58366 18.1507 6.99217C18.2192 7.40068 17.9436 7.78738 17.535 7.85588L7.17103 9.59389C6.76252 9.66239 6.37583 9.38677 6.30732 8.97826C6.23882 8.56975 6.51444 8.18305 6.92295 8.11455L11.653 7.32133V3.2832C11.653 2.86899 11.9888 2.5332 12.403 2.5332Z" fill="#000000" />
</svg>