<svg width="24px"  height="24px"  viewBox="0 0 25 25" fill="none" xmlns="http://www.w3.org/2000/svg">
<path fill-rule="evenodd" clip-rule="evenodd" d="M7.14286 4.0401C5.40668 4.0401 4 5.44703 4 7.18199V8.75917C4 9.17339 3.66421 9.50917 3.25 9.50917C2.83579 9.50917 2.5 9.17339 2.5 8.75917V7.18199C2.5 4.61836 4.5785 2.5401 7.14286 2.5401H8.43205C8.84626 2.5401 9.18205 2.87589 9.18205 3.2901C9.18205 3.70431 8.84626 4.0401 8.43205 4.0401H7.14286Z" fill="#000000" />
<path fill-rule="evenodd" clip-rule="evenodd" d="M3.25 15.0713C3.66421 15.0713 4 15.4071 4 15.8213V17.3985C4 19.1334 5.40668 20.5404 7.14286 20.5404H8.39994C8.81415 20.5404 9.14994 20.8761 9.14994 21.2904C9.14994 21.7046 8.81415 22.0404 8.39994 22.0404H7.14286C4.5785 22.0404 2.5 19.9621 2.5 17.3985V15.8213C2.5 15.4071 2.83579 15.0713 3.25 15.0713Z" fill="#000000" />
<path fill-rule="evenodd" clip-rule="evenodd" d="M21.2504 15.0713C21.6646 15.0713 22.0004 15.4071 22.0004 15.8213V17.3985C22.0004 19.9621 19.9219 22.0404 17.3575 22.0404H16.0684C15.6541 22.0404 15.3184 21.7046 15.3184 21.2904C15.3184 20.8761 15.6541 20.5404 16.0684 20.5404H17.3575C19.0937 20.5404 20.5004 19.1334 20.5004 17.3985V15.8213C20.5004 15.4071 20.8362 15.0713 21.2504 15.0713Z" fill="#000000" />
<path fill-rule="evenodd" clip-rule="evenodd" d="M17.1314 4.12109C15.2766 4.12109 13.7729 5.62473 13.7729 7.47956C13.7729 7.712 13.8055 7.94248 13.8608 8.19458C13.9156 8.44433 13.8394 8.7048 13.6586 8.88562L10 12.5449V14.456H11.766V13.7324C11.766 13.3182 12.1018 12.9824 12.516 12.9824H13.2887V12.2343C13.2887 11.8201 13.6245 11.4843 14.0387 11.4843H14.711L15.3373 10.8594C15.5364 10.6608 15.8298 10.5902 16.0973 10.6765C16.4214 10.7811 16.7697 10.838 17.1314 10.838C18.9862 10.838 20.4899 9.33439 20.4899 7.47956C20.4899 5.62473 18.9862 4.12109 17.1314 4.12109ZM14.7887 12.9843V13.7324C14.7887 14.1466 14.453 14.4824 14.0387 14.4824H13.266V14.7069C13.266 15.3968 12.7067 15.956 12.0168 15.956H9.74916C9.05927 15.956 8.5 15.3968 8.5 14.7069V12.4411C8.5 12.1098 8.63157 11.7921 8.86576 11.5579L8.86578 11.5579L12.3196 8.10337C12.2909 7.90531 12.2729 7.6977 12.2729 7.47956C12.2729 4.7963 14.4481 2.62109 17.1314 2.62109C19.8146 2.62109 21.9899 4.7963 21.9899 7.47956C21.9899 10.1628 19.8146 12.338 17.1314 12.338C16.7754 12.338 16.4268 12.2996 16.0909 12.2264L15.5509 12.7653C15.4103 12.9055 15.2198 12.9843 15.0212 12.9843H14.7887Z" fill="#000000" />
<path fill-rule="evenodd" clip-rule="evenodd" d="M17.2126 7.01885C17.4113 7.0106 17.5715 7.18536 17.5356 7.39398C17.4654 7.8022 17.7394 8.19004 18.1476 8.26024C18.5558 8.33044 18.9437 8.05642 19.0139 7.6482C19.2137 6.48602 18.2915 5.47278 17.1504 5.52014C16.7365 5.53731 16.4149 5.88673 16.4321 6.30059C16.4493 6.71445 16.7987 7.03602 17.2126 7.01885Z" fill="#000000" />
</svg>