<svg width="24px"  height="24px"  viewBox="0 0 25 25" fill="none" xmlns="http://www.w3.org/2000/svg">
<path fill-rule="evenodd" clip-rule="evenodd" d="M19.0208 2.5332C19.435 2.5332 19.7708 2.86899 19.7708 3.2832V4.76318H21.2508C21.665 4.76318 22.0008 5.09897 22.0008 5.51318C22.0008 5.9274 21.665 6.26318 21.2508 6.26318H19.3314L13.2773 12.3182H14.4938C14.908 12.3182 15.2438 12.654 15.2438 13.0682C15.2438 13.4824 14.908 13.8182 14.4938 13.8182H11.4668C11.3651 13.8182 11.2682 13.7979 11.1797 13.7613C11.0913 13.7247 11.0084 13.6704 10.9365 13.5985C10.8646 13.5266 10.8103 13.4438 10.7737 13.3553C10.7373 13.2675 10.7171 13.1713 10.7168 13.0705M12.2168 11.2573L18.2708 5.20255V3.2832C18.2708 2.86899 18.6065 2.5332 19.0208 2.5332M10.7168 13.0682C10.7168 13.0681 10.7168 13.068 10.7168 13.0679V10.0412C10.7168 9.62699 11.0526 9.2912 11.4668 9.2912C11.881 9.2912 12.2168 9.62699 12.2168 10.0412V11.2573" fill="#000000" />
<path fill-rule="evenodd" clip-rule="evenodd" d="M11.514 5.50586C7.36413 5.50586 4 8.87013 4 13.0189C4 17.1685 7.36408 20.5319 11.514 20.5319C15.6627 20.5319 19.026 17.1687 19.026 13.0189C19.026 12.1971 18.8949 11.4082 18.6525 10.6712C18.5231 10.2777 18.7372 9.8538 19.1307 9.72442C19.5242 9.59503 19.9481 9.80913 20.0775 10.2026C20.3691 11.0896 20.526 12.0366 20.526 13.0189C20.526 17.997 16.4912 22.0319 11.514 22.0319C6.53588 22.0319 2.5 17.9972 2.5 13.0189C2.5 8.04159 6.53582 4.00586 11.514 4.00586C13.9354 4.00586 16.1343 4.96227 17.7541 6.51556C18.0531 6.80225 18.063 7.27702 17.7763 7.57599C17.4896 7.87495 17.0148 7.8849 16.7159 7.59821C15.3637 6.3015 13.5325 5.50586 11.514 5.50586Z" fill="#000000" />
</svg>