<svg width="24px"  height="24px"  viewBox="0 0 25 25" fill="none" xmlns="http://www.w3.org/2000/svg">
<path fill-rule="evenodd" clip-rule="evenodd" d="M12.149 4.16016C7.64775 4.16016 4 7.81681 4 12.3091C4 16.8108 7.64709 20.4572 12.149 20.4572C16.6497 20.4572 20.296 16.811 20.296 12.3091C20.296 11.5671 20.1987 10.8542 20.0152 10.1775C19.9067 9.77772 20.1429 9.36574 20.5427 9.2573C20.9424 9.14886 21.3544 9.38503 21.4629 9.78479C21.6813 10.5901 21.796 11.4352 21.796 12.3091C21.796 17.6393 17.4783 21.9572 12.149 21.9572C6.81888 21.9572 2.5 17.6395 2.5 12.3091C2.5 6.98948 6.81822 2.66016 12.149 2.66016C12.9546 2.66016 13.7339 2.76575 14.4757 2.9413C14.8788 3.03669 15.1282 3.44078 15.0328 3.84386C14.9374 4.24694 14.5333 4.49637 14.1303 4.40098C13.4861 4.24854 12.8233 4.16016 12.149 4.16016Z" fill="#000000" />
<path fill-rule="evenodd" clip-rule="evenodd" d="M6.57812 12.309C6.57812 9.2396 9.07011 6.75 12.1491 6.75H12.1581C12.5723 6.75 12.9081 7.08579 12.9081 7.5C12.9081 7.91421 12.5723 8.25 12.1581 8.25H12.1491C9.89611 8.25 8.07812 10.0704 8.07812 12.309C8.07812 14.5595 9.89702 16.378 12.1491 16.378C14.3183 16.378 16.1021 14.6713 16.1989 12.5252C16.2176 12.1114 16.5681 11.7911 16.9819 11.8098C17.3957 11.8285 17.716 12.179 17.6974 12.5928C17.5642 15.5447 15.116 17.878 12.1491 17.878C9.0692 17.878 6.57812 15.3885 6.57812 12.309Z" fill="#000000" />
<path fill-rule="evenodd" clip-rule="evenodd" d="M19.0293 2.60938C19.4435 2.60938 19.7793 2.94516 19.7793 3.35938V4.83136H21.2503C21.6645 4.83136 22.0003 5.16715 22.0003 5.58136C22.0003 5.99557 21.6645 6.33136 21.2503 6.33136H19.0293C18.6151 6.33136 18.2793 5.99557 18.2793 5.58136V3.35938C18.2793 2.94516 18.6151 2.60938 19.0293 2.60938Z" fill="#000000" />
<path fill-rule="evenodd" clip-rule="evenodd" d="M19.5613 5.0517C19.8542 5.34459 19.8542 5.81947 19.5613 6.11236L13.9893 11.6844C13.6964 11.9773 13.2215 11.9773 12.9287 11.6844C12.6358 11.3915 12.6358 10.9166 12.9287 10.6237L18.5007 5.0517C18.7936 4.75881 19.2684 4.75881 19.5613 5.0517Z" fill="#000000" />
</svg>