<svg width="24px"  height="24px"  viewBox="0 0 24 25" fill="none" xmlns="http://www.w3.org/2000/svg">
<path fill-rule="evenodd" clip-rule="evenodd" d="M12.0478 7.22192C9.09142 7.22192 6.69476 9.61858 6.69476 12.575C6.69476 15.5314 9.09142 17.9281 12.0478 17.9281C15.0043 17.9281 17.4009 15.5314 17.4009 12.575C17.4009 9.61858 15.0043 7.22192 12.0478 7.22192ZM5.19476 12.575C5.19476 8.79015 8.26299 5.72192 12.0478 5.72192C15.8327 5.72192 18.9009 8.79015 18.9009 12.575C18.9009 16.3599 15.8327 19.4281 12.0478 19.4281C8.26299 19.4281 5.19476 16.3599 5.19476 12.575Z" fill="#000000" />
<path fill-rule="evenodd" clip-rule="evenodd" d="M12.8806 9.47252C13.2807 9.57973 13.5181 9.99098 13.4109 10.3911L12.1365 15.1471C12.0293 15.5472 11.6181 15.7846 11.218 15.6774C10.8179 15.5702 10.5804 15.1589 10.6877 14.7588L11.962 10.0028C12.0692 9.60275 12.4805 9.36531 12.8806 9.47252Z" fill="#000000" />
<path fill-rule="evenodd" clip-rule="evenodd" d="M15.1516 11.7441C15.2588 12.1442 15.0214 12.5554 14.6213 12.6626L9.86526 13.937C9.46516 14.0442 9.05391 13.8068 8.9467 13.4067C8.83949 13.0066 9.07693 12.5953 9.47703 12.4881L14.233 11.2137C14.6331 11.1065 15.0444 11.344 15.1516 11.7441Z" fill="#000000" />
<path fill-rule="evenodd" clip-rule="evenodd" d="M9.77764 10.3037C10.0705 10.0108 10.5454 10.0108 10.8383 10.3037L14.3199 13.7853C14.6128 14.0782 14.6128 14.553 14.3199 14.8459C14.027 15.1388 13.5522 15.1388 13.2593 14.8459L9.77764 11.3643C9.48474 11.0714 9.48474 10.5965 9.77764 10.3037Z" fill="#000000" />
<path fill-rule="evenodd" clip-rule="evenodd" d="M15.7327 5.6349C15.7 6.14257 15.7395 6.69151 15.8497 7.16147C15.9442 7.56476 15.6939 7.96831 15.2906 8.06284C14.8874 8.15737 14.4838 7.90707 14.3893 7.50379C14.242 6.87544 14.1946 6.17748 14.2358 5.53839C14.276 4.91519 14.4056 4.26567 14.6753 3.77805C14.8115 3.53198 15.0162 3.26752 15.3228 3.10315C15.6581 2.92339 16.0342 2.90731 16.3906 3.03793C16.7186 3.15815 17.0032 3.39081 17.2514 3.66654C17.3684 3.79648 17.4851 3.94482 17.602 4.11148C17.8408 3.99128 18.0836 3.89534 18.3235 3.83023C18.7799 3.70641 19.335 3.66666 19.8208 3.92568C20.3609 4.2136 20.6128 4.75603 20.641 5.35762C20.6605 5.77351 20.579 6.2499 20.4068 6.78399C20.6144 6.91256 20.7968 7.04239 20.9537 7.17406C21.2391 7.41357 21.4824 7.69431 21.6097 8.02632C21.7481 8.38757 21.7301 8.76466 21.5579 9.09923C21.4004 9.40519 21.1444 9.61833 20.9022 9.76512C20.421 10.0568 19.7746 10.2195 19.1523 10.2903C18.5164 10.3626 17.8212 10.3486 17.2013 10.2268C16.7949 10.1469 16.5301 9.75271 16.61 9.34627C16.6899 8.93983 17.0841 8.67509 17.4905 8.75495C17.9381 8.84291 18.4767 8.85748 18.9827 8.79991C19.5022 8.7408 19.9058 8.61503 20.1246 8.48239C20.1312 8.47839 20.1375 8.4745 20.1433 8.47074C20.1085 8.43086 20.0589 8.38134 19.9895 8.3231C19.815 8.17669 19.5438 7.99849 19.1421 7.79506C18.7923 7.61792 18.638 7.20122 18.788 6.83896C19.0799 6.1343 19.1546 5.68373 19.1426 5.42774C19.1374 5.31503 19.1163 5.2626 19.1084 5.24668C19.08 5.23719 18.9639 5.21072 18.7163 5.27789C18.4528 5.34938 18.1289 5.50556 17.7956 5.74503C17.6223 5.86952 17.4043 5.91433 17.196 5.86825C16.9876 5.82217 16.8088 5.68957 16.7042 5.50362C16.483 5.11022 16.2922 4.84303 16.1365 4.67007C16.0736 4.60013 16.0215 4.55128 15.9807 4.51748C15.8673 4.73084 15.7658 5.12225 15.7327 5.6349Z" fill="#000000" />
<path fill-rule="evenodd" clip-rule="evenodd" d="M8.50859 19.6864C8.54132 19.1787 8.50177 18.6298 8.39161 18.1598C8.29708 17.7565 8.54738 17.353 8.95066 17.2584C9.35394 17.1639 9.7575 17.4142 9.85203 17.8175C9.99931 18.4458 10.0467 19.1438 10.0055 19.7829C9.9653 20.4061 9.8357 21.0556 9.56597 21.5432C9.42985 21.7893 9.22508 22.0538 8.91851 22.2181C8.58323 22.3979 8.20712 22.414 7.85072 22.2834C7.52267 22.1631 7.23809 21.9305 6.9899 21.6547C6.87294 21.5248 6.75617 21.3765 6.63927 21.2098C6.40051 21.33 6.15774 21.4259 5.91776 21.4911C5.46138 21.6149 4.90635 21.6546 4.42046 21.3956C3.88036 21.1077 3.62847 20.5653 3.60031 19.9637C3.58085 19.5478 3.66234 19.0714 3.83448 18.5373C3.62688 18.4087 3.44452 18.2789 3.28761 18.1472C3.00219 17.9077 2.75887 17.627 2.63162 17.295C2.49317 16.9337 2.51121 16.5566 2.68343 16.2221C2.84093 15.9161 3.09694 15.703 3.3391 15.5562C3.82029 15.2645 4.46669 15.1018 5.08904 15.031C5.72493 14.9586 6.42011 14.9727 7.03999 15.0945C7.44643 15.1743 7.71118 15.5686 7.63131 15.975C7.55145 16.3815 7.15722 16.6462 6.75078 16.5663C6.30316 16.4784 5.76459 16.4638 5.25861 16.5214C4.73908 16.5805 4.33548 16.7063 4.11667 16.8389C4.11006 16.8429 4.10383 16.8468 4.09796 16.8505C4.13277 16.8904 4.18242 16.9399 4.25183 16.9982C4.42629 17.1446 4.69752 17.3228 5.09922 17.5262C5.44903 17.7034 5.60335 18.1201 5.45331 18.4823C5.16144 19.187 5.08669 19.6376 5.09867 19.8935C5.10395 20.0063 5.12502 20.0587 5.13294 20.0746C5.16132 20.0841 5.27741 20.1106 5.52498 20.0434C5.78848 19.9719 6.11244 19.8157 6.44573 19.5763C6.61898 19.4518 6.83705 19.407 7.04535 19.453C7.25365 19.4991 7.43248 19.6317 7.53706 19.8177C7.75833 20.2111 7.94908 20.4783 8.10477 20.6512C8.16772 20.7212 8.21985 20.77 8.26065 20.8038C8.37399 20.5905 8.47553 20.199 8.50859 19.6864Z" fill="#000000" />
</svg>