<svg width="24px"  height="24px"  viewBox="0 0 24 25" fill="none" xmlns="http://www.w3.org/2000/svg">
<path fill-rule="evenodd" clip-rule="evenodd" d="M5.27613 10.1965C5.60623 10.1965 5.89752 10.4124 5.99363 10.7282C6.20409 11.4197 6.74523 11.9608 7.43667 12.1713C7.75245 12.2674 7.96827 12.5587 7.96827 12.8888C7.96827 13.2189 7.75245 13.5101 7.43667 13.6063C6.74523 13.8167 6.20409 14.3579 5.99363 15.0494C5.89752 15.3652 5.60623 15.581 5.27613 15.581C4.94603 15.581 4.65474 15.3652 4.55862 15.0494C4.34816 14.3579 3.80702 13.8167 3.11559 13.6063C2.7998 13.5101 2.58398 13.2189 2.58398 12.8888C2.58398 12.5587 2.7998 12.2674 3.11559 12.1713C3.80702 11.9608 4.34816 11.4197 4.55862 10.7282C4.65474 10.4124 4.94603 10.1965 5.27613 10.1965ZM4.86373 12.8888C5.01191 13.0151 5.14982 13.153 5.27613 13.3012C5.40244 13.153 5.54035 13.0151 5.68853 12.8888C5.54035 12.7625 5.40244 12.6245 5.27613 12.4764C5.14982 12.6245 5.01191 12.7625 4.86373 12.8888Z" fill="#000000" />
<path fill-rule="evenodd" clip-rule="evenodd" d="M5.49609 3.18628C5.91031 3.18628 6.24609 3.52207 6.24609 3.93628V3.94628C6.24609 4.36049 5.91031 4.69628 5.49609 4.69628C5.08188 4.69628 4.74609 4.36049 4.74609 3.94628V3.93628C4.74609 3.52207 5.08188 3.18628 5.49609 3.18628Z" fill="#000000" />
<path fill-rule="evenodd" clip-rule="evenodd" d="M2.75 6.60474C3.16421 6.60474 3.5 6.94052 3.5 7.35474V7.36474C3.5 7.77895 3.16421 8.11474 2.75 8.11474C2.33579 8.11474 2 7.77895 2 7.36474V7.35474C2 6.94052 2.33579 6.60474 2.75 6.60474Z" fill="#000000" />
<path fill-rule="evenodd" clip-rule="evenodd" d="M7.28654 17.0556C6.90671 17.2208 6.73275 17.6627 6.89798 18.0425L8.27905 21.2172C8.44428 21.597 8.88615 21.771 9.26597 21.6058C9.6458 21.4405 9.81977 20.9987 9.65453 20.6188L8.27347 17.4442C8.10823 17.0643 7.66637 16.8904 7.28654 17.0556Z" fill="#000000" />
<path fill-rule="evenodd" clip-rule="evenodd" d="M3.08501 18.4714C2.80454 18.7762 2.82425 19.2507 3.12906 19.5311L5.23629 21.4702C5.54109 21.7507 6.01555 21.731 6.29603 21.4262C6.57651 21.1214 6.55679 20.6469 6.25199 20.3664L4.14476 18.4274C3.83996 18.1469 3.36549 18.1666 3.08501 18.4714Z" fill="#000000" />
<path fill-rule="evenodd" clip-rule="evenodd" d="M18.7234 15.5813C19.0535 15.5813 19.3448 15.3655 19.4409 15.0497C19.6514 14.3582 20.1925 13.817 20.8839 13.6066C21.1997 13.5104 21.4155 13.2192 21.4155 12.8891C21.4155 12.559 21.1997 12.2677 20.8839 12.1716C20.1925 11.9611 19.6514 11.4199 19.4409 10.7284C19.3448 10.4127 19.0535 10.1968 18.7234 10.1968C18.3933 10.1968 18.102 10.4127 18.0059 10.7284C17.7954 11.4199 17.2543 11.9611 16.5629 12.1716C16.2471 12.2677 16.0312 12.559 16.0312 12.8891C16.0312 13.2192 16.2471 13.5104 16.5629 13.6066C17.2543 13.817 17.7954 14.3582 18.0059 15.0497C18.102 15.3655 18.3933 15.5813 18.7234 15.5813ZM18.311 12.8891C18.4592 12.7628 18.5971 12.6248 18.7234 12.4767C18.8497 12.6248 18.9876 12.7628 19.1358 12.8891C18.9876 13.0154 18.8497 13.1533 18.7234 13.3015C18.5971 13.1533 18.4592 13.0154 18.311 12.8891Z" fill="#000000" />
<path fill-rule="evenodd" clip-rule="evenodd" d="M11.9987 5.46127L11.5327 6.39247C11.3517 6.75245 11.0058 6.99937 10.609 7.05561C10.6084 7.05569 10.6079 7.05577 10.6073 7.05584L9.58647 7.20286L10.3181 7.90585C10.6113 8.18587 10.746 8.59379 10.6755 8.99449C10.6755 8.99483 10.6754 8.99517 10.6754 8.99551L10.5002 9.99956L11.431 9.5171C11.7865 9.33338 12.2097 9.33292 12.5653 9.51664L13.4973 9.99972L13.3219 8.99402C13.3219 8.99408 13.3219 8.99396 13.3219 8.99402C13.2521 8.59394 13.3867 8.18627 13.6791 7.90644C13.6794 7.90618 13.6797 7.90591 13.68 7.90565L14.4118 7.2032L13.3897 7.056C12.9926 6.99973 12.6475 6.75281 12.4663 6.39434L11.9987 5.46127ZM11.4329 3.76684C12.036 3.45482 12.7785 3.68983 13.0913 4.29365L13.7416 5.59121L15.1857 5.79916C15.4566 5.83623 15.7081 5.96332 15.8987 6.16096C16.3662 6.64657 16.3512 7.41854 15.8672 7.88544L15.8658 7.88674L14.8256 8.88523L15.0711 10.2926L15.0725 10.3009C15.1157 10.5662 15.07 10.8359 14.9463 11.0704L14.9454 11.0723C14.6286 11.6688 13.8892 11.8971 13.2914 11.5825L11.9986 10.9124L10.7063 11.5823C10.472 11.7053 10.2042 11.7496 9.94231 11.7079L9.94079 11.7077C9.27281 11.6 8.81691 10.9714 8.92485 10.3018L9.17201 8.8848L8.13151 7.8851C7.93282 7.69347 7.80528 7.44014 7.76906 7.16747L7.7689 7.16629C7.68171 6.50185 8.14708 5.88931 8.81338 5.79872L10.2565 5.59089L10.901 4.30303L10.9056 4.29393C11.0224 4.06839 11.2061 3.88391 11.4329 3.76684ZM9.28053 8.98905C9.28115 8.98965 9.28177 8.99025 9.2824 8.99084L9.28053 8.98905ZM9.19826 8.73441C9.19816 8.73496 9.19806 8.7355 9.19797 8.73605L9.19826 8.73441ZM13.6025 5.57117C13.6027 5.5712 13.6022 5.57113 13.6025 5.57117V5.57117Z" fill="#000000" />
<path fill-rule="evenodd" clip-rule="evenodd" d="M18.5039 3.18628C18.0897 3.18628 17.7539 3.52207 17.7539 3.93628V3.94628C17.7539 4.36049 18.0897 4.69628 18.5039 4.69628C18.9181 4.69628 19.2539 4.36049 19.2539 3.94628V3.93628C19.2539 3.52207 18.9181 3.18628 18.5039 3.18628Z" fill="#000000" />
<path fill-rule="evenodd" clip-rule="evenodd" d="M21.25 6.60474C20.8358 6.60474 20.5 6.94052 20.5 7.35474V7.36474C20.5 7.77895 20.8358 8.11474 21.25 8.11474C21.6642 8.11474 22 7.77895 22 7.36474V7.35474C22 6.94052 21.6642 6.60474 21.25 6.60474Z" fill="#000000" />
<path fill-rule="evenodd" clip-rule="evenodd" d="M12 13.7554C11.5858 13.7554 11.25 14.0912 11.25 14.5054V20.9182C11.25 21.3324 11.5858 21.6682 12 21.6682C12.4142 21.6682 12.75 21.3324 12.75 20.9182V14.5054C12.75 14.0912 12.4142 13.7554 12 13.7554Z" fill="#000000" />
<path fill-rule="evenodd" clip-rule="evenodd" d="M16.7135 17.0556C17.0933 17.2208 17.2673 17.6627 17.102 18.0425L15.721 21.2172C15.5557 21.597 15.1139 21.771 14.734 21.6058C14.3542 21.4405 14.1802 20.9987 14.3455 20.6188L15.7265 17.4442C15.8918 17.0643 16.3336 16.8904 16.7135 17.0556Z" fill="#000000" />
<path fill-rule="evenodd" clip-rule="evenodd" d="M20.915 18.4714C21.1955 18.7762 21.1757 19.2507 20.8709 19.5311L18.7637 21.4702C18.4589 21.7507 17.9844 21.731 17.704 21.4262C17.4235 21.1214 17.4432 20.6469 17.748 20.3664L19.8552 18.4274C20.16 18.1469 20.6345 18.1666 20.915 18.4714Z" fill="#000000" />
</svg>