<svg width="24px"  height="24px"  viewBox="0 0 24 25" fill="none" xmlns="http://www.w3.org/2000/svg">
<path fill-rule="evenodd" clip-rule="evenodd" d="M10.2257 4.11475C9.00726 4.11475 8.01953 5.10247 8.01953 6.3209V8.94835C8.01953 9.36257 7.68374 9.69835 7.26953 9.69835C6.85532 9.69835 6.51953 9.36257 6.51953 8.94835V6.3209C6.51953 4.27405 8.17883 2.61475 10.2257 2.61475C12.2725 2.61475 13.9318 4.27405 13.9318 6.3209V8.94835C13.9318 9.36257 13.596 9.69835 13.1818 9.69835C12.7676 9.69835 12.4318 9.36257 12.4318 8.94835V6.3209C12.4318 5.10247 11.4441 4.11475 10.2257 4.11475Z" fill="#000000" />
<path fill-rule="evenodd" clip-rule="evenodd" d="M13.6212 4.11475C13.1495 4.11475 12.7144 4.26196 12.3564 4.51298C12.0173 4.75082 11.5496 4.6687 11.3117 4.32958C11.0739 3.99045 11.156 3.52273 11.4951 3.28489C12.0972 2.86266 12.8314 2.61475 13.6212 2.61475C15.668 2.61475 17.3274 4.27405 17.3274 6.3209V7.01644C17.3274 7.43066 16.9916 7.76644 16.5774 7.76644C16.1631 7.76644 15.8274 7.43066 15.8274 7.01644V6.3209C15.8274 5.10247 14.8396 4.11475 13.6212 4.11475Z" fill="#000000" />
<path fill-rule="evenodd" clip-rule="evenodd" d="M3.67976 8.3691C3.76792 7.19513 4.74616 6.2876 5.92344 6.2876H17.7034C18.8536 6.2876 19.8187 7.15517 19.9407 8.29894L21.2023 20.126C21.2075 20.1746 21.2132 20.2258 21.2191 20.2787C21.2439 20.499 21.272 20.7497 21.2778 20.9729C21.2847 21.2395 21.2689 21.6206 21.0739 21.9595C20.919 22.2285 20.6721 22.4185 20.3699 22.4875C20.0958 22.5501 19.8438 22.4984 19.6608 22.4328C19.3315 22.3146 19.0382 22.0855 18.8321 21.8534C18.3272 22.3356 17.6496 22.6147 16.9326 22.6147H5.03524C3.72621 22.6147 2.69353 21.5016 2.79156 20.1962L3.67976 8.3691ZM5.92344 7.7876C5.53101 7.7876 5.20493 8.09011 5.17554 8.48143L4.28734 20.3085C4.25467 20.7437 4.5989 21.1147 5.03524 21.1147H16.9326C17.3744 21.1147 17.7834 20.8815 18.0084 20.5013L18.1555 20.2527C18.2801 20.042 18.4998 19.9054 18.7439 19.8868C18.988 19.8682 19.2259 19.9699 19.3811 20.1593L19.7459 20.6044C19.7416 20.5653 19.7371 20.5246 19.7323 20.482C19.7255 20.4205 19.7182 20.3552 19.7108 20.2852L18.4491 8.45804C18.4085 8.07679 18.0868 7.7876 17.7034 7.7876H5.92344ZM20.1714 21.0222C20.1715 21.0222 20.1705 21.022 20.1685 21.0213C20.1704 21.0218 20.1713 21.0221 20.1714 21.0222Z" fill="#000000" />
<path fill-rule="evenodd" clip-rule="evenodd" d="M11.6035 7.0376C11.6035 6.62338 11.9393 6.2876 12.3535 6.2876H14.4819C15.6592 6.2876 16.6374 7.19513 16.7256 8.3691L17.6138 20.1962C17.7118 21.5016 16.6792 22.6147 15.3701 22.6147H12.3535C11.9393 22.6147 11.6035 22.2789 11.6035 21.8647C11.6035 21.4505 11.9393 21.1147 12.3535 21.1147H15.3701C15.8065 21.1147 16.1507 20.7437 16.118 20.3085L15.2298 8.48143C15.2004 8.09011 14.8744 7.7876 14.4819 7.7876H12.3535C11.9393 7.7876 11.6035 7.45181 11.6035 7.0376Z" fill="#000000" />
<path fill-rule="evenodd" clip-rule="evenodd" d="M10.2256 10.4722C10.4539 10.4722 10.6697 10.5761 10.812 10.7546L13.5571 14.1977C13.7367 14.423 13.7714 14.7312 13.6464 14.9907C13.5214 15.2503 13.2588 15.4153 12.9707 15.4153H12.6982L13.2221 16.3227C13.3561 16.5547 13.3561 16.8406 13.2221 17.0727C13.0881 17.3047 12.8405 17.4477 12.5726 17.4477H11.0449V18.5257C11.0449 18.9399 10.7091 19.2757 10.2949 19.2757C9.88071 19.2757 9.54492 18.9399 9.54492 18.5257V17.4477H7.87891C7.61096 17.4477 7.36336 17.3047 7.22939 17.0727C7.09541 16.8406 7.09541 16.5547 7.22939 16.3227L7.75328 15.4153H7.48047C7.19239 15.4153 6.92977 15.2503 6.80476 14.9907C6.67975 14.7312 6.71445 14.423 6.89404 14.1977L9.63916 10.7546C9.78146 10.5761 9.99731 10.4722 10.2256 10.4722ZM9.03762 13.9153H9.05232C9.32027 13.9153 9.56786 14.0582 9.70184 14.2903C9.83581 14.5223 9.83581 14.8082 9.70184 15.0403L9.17794 15.9477H11.2735L10.7496 15.0403C10.6157 14.8082 10.6157 14.5223 10.7496 14.2903C10.8836 14.0582 11.1312 13.9153 11.3991 13.9153H11.4136L10.2256 12.4253L9.03762 13.9153Z" fill="#000000" />
</svg>