<svg width="24px"  height="24px"  viewBox="0 0 24 25" fill="none" xmlns="http://www.w3.org/2000/svg">
<path fill-rule="evenodd" clip-rule="evenodd" d="M11.9985 10.2017C12.2796 10.2017 12.5372 10.3589 12.6656 10.6089L13.8139 12.8438L16.0488 13.9921C16.2989 14.1206 16.4561 14.3781 16.4561 14.6592C16.4561 14.9403 16.2989 15.1978 16.0488 15.3263L13.8139 16.4746L12.6656 18.7095C12.5372 18.9595 12.2796 19.1167 11.9985 19.1167C11.7174 19.1167 11.4599 18.9595 11.3314 18.7095L10.1831 16.4746L7.94826 15.3263C7.69822 15.1978 7.54102 14.9403 7.54102 14.6592C7.54102 14.3781 7.69822 14.1206 7.94826 13.9921L10.1831 12.8438L11.3314 10.6089C11.4599 10.3589 11.7174 10.2017 11.9985 10.2017ZM11.9985 12.5928L11.4073 13.7436C11.3357 13.8829 11.2222 13.9963 11.0829 14.0679L9.93213 14.6592L11.0829 15.2505C11.2222 15.322 11.3357 15.4355 11.4073 15.5748L11.9985 16.7256L12.5898 15.5748C12.6614 15.4355 12.7748 15.322 12.9142 15.2505L14.0649 14.6592L12.9142 14.0679C12.7748 13.9963 12.6614 13.8829 12.5898 13.7436L11.9985 12.5928Z" fill="#000000" />
<path fill-rule="evenodd" clip-rule="evenodd" d="M12.001 21.1152C8.4354 21.1152 5.54492 18.2248 5.54492 14.6592C5.54492 11.0936 8.4354 8.2031 12.001 8.2031C15.5666 8.2031 18.4571 11.0936 18.4571 14.6592C18.4571 18.2248 15.5666 21.1152 12.001 21.1152ZM4.04492 14.6592C4.04492 19.0532 7.60698 22.6152 12.001 22.6152C16.395 22.6152 19.9571 19.0532 19.9571 14.6592C19.9571 10.2651 16.395 6.7031 12.001 6.7031C7.60698 6.7031 4.04492 10.2651 4.04492 14.6592Z" fill="#000000" />
<path fill-rule="evenodd" clip-rule="evenodd" d="M12.002 2.61523C12.4162 2.61523 12.752 2.95102 12.752 3.36523V5.16208C12.752 5.5763 12.4162 5.91208 12.002 5.91208C11.5877 5.91208 11.252 5.5763 11.252 5.16208V3.36523C11.252 2.95102 11.5877 2.61523 12.002 2.61523Z" fill="#000000" />
<path fill-rule="evenodd" clip-rule="evenodd" d="M8.80571 6.11461C8.50005 5.28986 9.11016 4.41309 9.98973 4.41309H14.0139C14.8935 4.41309 15.5036 5.28986 15.198 6.11461L14.5377 7.89614C14.3938 8.28453 13.9622 8.4827 13.5738 8.33876C13.1854 8.19481 12.9872 7.76327 13.1312 7.37487L13.6729 5.91309H10.3307L10.8725 7.37487C11.0164 7.76326 10.8183 8.19481 10.4299 8.33876C10.0415 8.4827 9.60991 8.28453 9.46597 7.89614L8.80571 6.11461Z" fill="#000000" />
</svg>