<svg width="24px"  height="24px"  viewBox="0 0 24 25" fill="none" xmlns="http://www.w3.org/2000/svg">
<path fill-rule="evenodd" clip-rule="evenodd" d="M12 8.39844C12.4142 8.39844 12.75 8.73422 12.75 9.14844L12.75 14.6887C12.75 15.1029 12.4142 15.4387 12 15.4387C11.5858 15.4387 11.25 15.1029 11.25 14.6887L11.25 9.14844C11.25 8.73422 11.5858 8.39844 12 8.39844Z" fill="#000000" />
<path fill-rule="evenodd" clip-rule="evenodd" d="M8.46728 9.08633C8.86096 8.63929 9.42026 8.39844 10.0495 8.39844H13.9464C14.5753 8.39844 15.135 8.63905 15.5295 9.08521C15.9155 9.52176 16.0935 10.097 16.0935 10.6946V13.1422C16.0935 13.741 15.914 14.3161 15.5278 14.7521C15.1334 15.1973 14.5743 15.4383 13.9464 15.4383H10.0495C9.42026 15.4383 8.86096 15.1975 8.46728 14.7504C8.08246 14.3135 7.90625 13.7384 7.90625 13.1422V10.6946C7.90625 10.0984 8.08246 9.52331 8.46728 9.08633ZM9.593 10.0777C9.49635 10.1874 9.40625 10.3854 9.40625 10.6946V13.1422C9.40625 13.4513 9.49635 13.6493 9.593 13.7591C9.68079 13.8588 9.81812 13.9383 10.0495 13.9383H13.9464C14.1756 13.9383 14.315 13.859 14.4049 13.7575C14.503 13.6467 14.5935 13.4487 14.5935 13.1422V10.6946C14.5935 10.3868 14.5032 10.189 14.4058 10.0788C14.3169 9.97822 14.178 9.89844 13.9464 9.89844H10.0495C9.81812 9.89844 9.68079 9.97798 9.593 10.0777Z" fill="#000000" />
<path fill-rule="evenodd" clip-rule="evenodd" d="M9.65455 6.80158C9.94751 6.50875 10.4224 6.50886 10.7152 6.80182L12.5305 8.61791C12.8233 8.91087 12.8232 9.38575 12.5302 9.67857C12.2372 9.9714 11.7624 9.97129 11.4695 9.67833L9.6543 7.86224C9.36148 7.56928 9.36159 7.0944 9.65455 6.80158Z" fill="#000000" />
<path fill-rule="evenodd" clip-rule="evenodd" d="M14.3455 6.80158C14.6384 7.0944 14.6385 7.56928 14.3457 7.86224L12.5305 9.67833C12.2376 9.97129 11.7628 9.9714 11.4698 9.67857C11.1768 9.38575 11.1767 8.91087 11.4695 8.61791L13.2848 6.80182C13.5776 6.50886 14.0525 6.50875 14.3455 6.80158Z" fill="#000000" />
<path fill-rule="evenodd" clip-rule="evenodd" d="M3.41016 11.2039C3.41016 6.46111 7.2551 2.61523 11.9989 2.61523C16.7426 2.61523 20.5876 6.46111 20.5876 11.2039C20.5876 14.507 18.7231 17.3731 15.9926 18.8095C15.8849 18.8662 15.7651 18.8958 15.6434 18.8958H8.35432C8.23266 18.8958 8.11283 18.8662 8.00515 18.8095C5.27461 17.3731 3.41016 14.507 3.41016 11.2039ZM11.9989 4.11523C8.08363 4.11523 4.91016 7.28944 4.91016 11.2039C4.91016 13.8638 6.37462 16.1825 8.54452 17.3958H15.4532C17.6231 16.1825 19.0876 13.8638 19.0876 11.2039C19.0876 7.28944 15.9141 4.11523 11.9989 4.11523Z" fill="#000000" />
<path fill-rule="evenodd" clip-rule="evenodd" d="M15.2212 17.5424C15.57 17.319 16.0339 17.4205 16.2573 17.7693L17.0725 19.0414C17.3096 19.4115 17.5145 19.7313 17.6541 19.9995C17.7943 20.2689 17.9324 20.6001 17.9094 20.9731C17.8773 21.4925 17.6158 21.9706 17.1958 22.2778C16.8941 22.4985 16.5408 22.5609 16.2383 22.5882C15.9371 22.6154 15.5573 22.6153 15.1178 22.6153H8.88588C8.4464 22.6153 8.06656 22.6154 7.76535 22.5882C7.46291 22.5609 7.10957 22.4985 6.8079 22.2778C6.3879 21.9706 6.12639 21.4925 6.09434 20.9731C6.07131 20.6001 6.20938 20.2689 6.34958 19.9995C6.4892 19.7313 6.69415 19.4114 6.93127 19.0414C6.93734 19.0319 6.94344 19.0224 6.94956 19.0129L7.74296 17.7747C7.96643 17.4259 8.43032 17.3243 8.77907 17.5478C9.12783 17.7713 9.2294 18.2352 9.00593 18.5839L8.21253 19.8221C7.95189 20.2289 7.78468 20.4912 7.68016 20.692C7.61462 20.818 7.59711 20.8779 7.59277 20.8949C7.60039 20.9589 7.63243 21.0174 7.68216 21.0584C7.69881 21.0639 7.75875 21.0815 7.90013 21.0942C8.12561 21.1146 8.43669 21.1153 8.91979 21.1153H15.0839C15.567 21.1153 15.8781 21.1146 16.1036 21.0942C16.2449 21.0815 16.3049 21.0639 16.3215 21.0584C16.3713 21.0174 16.4033 20.9589 16.4109 20.8949C16.4066 20.8779 16.3891 20.818 16.3235 20.692C16.219 20.4912 16.0518 20.2289 15.7912 19.8221L14.9944 18.5785C14.7709 18.2298 14.8725 17.7659 15.2212 17.5424Z" fill="#000000" />
</svg>