<svg width="24px"  height="24px"  viewBox="0 0 24 25" fill="none" xmlns="http://www.w3.org/2000/svg">
<path fill-rule="evenodd" clip-rule="evenodd" d="M5.04083 3.83673C5.96071 3.02667 7.21857 2.61523 8.61441 2.61523L15.3856 2.61523C16.7815 2.61523 18.0393 3.02667 18.9592 3.83673C19.8891 4.65565 20.413 5.83023 20.413 7.21958V18.0001C20.413 19.3892 19.8894 20.5659 18.9603 21.3874C18.0409 22.2003 16.7828 22.6152 15.3856 22.6152H8.61441C7.21597 22.6152 5.95807 22.1972 5.0392 21.3833C4.1111 20.5612 3.58707 19.385 3.58707 18.0001L3.58707 7.21958C3.58707 5.83023 4.1109 4.65565 5.04083 3.83673ZM6.03217 4.96245C5.44959 5.47549 5.08707 6.22809 5.08707 7.21958L5.08707 18.0001C5.08707 18.9864 5.44939 19.7428 6.0338 20.2604C6.62745 20.7863 7.50822 21.1152 8.61441 21.1152H15.3856C16.493 21.1152 17.3737 20.788 17.9667 20.2636C18.5502 19.7477 18.913 18.9919 18.913 18.0001V7.21958C18.913 6.22809 18.5504 5.47549 17.9679 4.96245C17.3752 4.44055 16.4944 4.11523 15.3856 4.11523L8.61441 4.11523C7.50562 4.11523 6.62482 4.44055 6.03217 4.96245Z" fill="#000000" />
<path fill-rule="evenodd" clip-rule="evenodd" d="M9.22877 9.63623C8.98293 9.63623 8.78516 9.83464 8.78516 10.0788C8.78516 10.4641 9.02326 10.9095 9.60827 11.2939C10.0295 11.5707 10.591 11.7835 11.2395 11.8789C11.1371 10.5275 10.1833 9.63623 9.22877 9.63623ZM12.0001 9.66399C11.3729 8.75014 10.3942 8.13623 9.22877 8.13623C8.15614 8.13623 7.28516 9.00458 7.28516 10.0788C7.28516 11.132 7.93452 11.989 8.7846 12.5475C9.64099 13.1102 10.7801 13.4338 12.0006 13.4338C13.2206 13.4338 14.3595 13.1102 15.2157 12.5475C16.0656 11.989 16.715 11.1319 16.715 10.0788C16.715 9.0054 15.8458 8.13623 14.7723 8.13623C13.6065 8.13623 12.6274 8.75012 12.0001 9.66399ZM12.7606 11.879C12.863 10.5277 13.8167 9.63623 14.7723 9.63623C15.0174 9.63623 15.215 9.83383 15.215 10.0788C15.215 10.4641 14.9768 10.9096 14.3919 11.2939C13.9707 11.5708 13.409 11.7837 12.7606 11.879Z" fill="#000000" />
<path fill-rule="evenodd" clip-rule="evenodd" d="M12.0018 11.9336C12.213 11.9336 12.4144 12.0227 12.5566 12.1789L15.4986 15.4132C15.7773 15.7196 15.7549 16.1939 15.4484 16.4726C15.142 16.7514 14.6677 16.7289 14.389 16.4225L12.0016 13.7981L9.6133 16.4226C9.33452 16.729 8.86018 16.7513 8.55382 16.4726C8.24746 16.1938 8.22511 15.7194 8.50389 15.4131L11.447 12.1788C11.5892 12.0226 11.7906 11.9336 12.0018 11.9336Z" fill="#000000" />
<path fill-rule="evenodd" clip-rule="evenodd" d="M11.9406 2.62695C12.3548 2.62695 12.6906 2.96274 12.6906 3.37695L12.6906 21.8555C12.6906 22.2697 12.3548 22.6055 11.9406 22.6055C11.5263 22.6055 11.1906 22.2697 11.1906 21.8555L11.1906 3.37695C11.1906 2.96274 11.5263 2.62695 11.9406 2.62695Z" fill="#000000" />
<path fill-rule="evenodd" clip-rule="evenodd" d="M3.58701 12.6172C3.58701 12.203 3.92279 11.8672 4.33701 11.8672L19.5442 11.8672C19.9584 11.8672 20.2942 12.203 20.2942 12.6172C20.2942 13.0314 19.9584 13.3672 19.5442 13.3672L4.33701 13.3672C3.92279 13.3672 3.58701 13.0314 3.58701 12.6172Z" fill="#000000" />
</svg>