<svg width="24px"  height="24px"  viewBox="0 0 24 25" fill="none" xmlns="http://www.w3.org/2000/svg">
<path fill-rule="evenodd" clip-rule="evenodd" d="M3.41016 11.2039C3.41016 6.46111 7.2551 2.61523 11.9989 2.61523C16.7426 2.61523 20.5876 6.46111 20.5876 11.2039C20.5876 14.507 18.7231 17.3731 15.9926 18.8095C15.8849 18.8662 15.7651 18.8958 15.6434 18.8958H8.35432C8.23266 18.8958 8.11283 18.8662 8.00515 18.8095C5.27461 17.3731 3.41016 14.507 3.41016 11.2039ZM11.9989 4.11523C8.08363 4.11523 4.91016 7.28944 4.91016 11.2039C4.91016 13.8638 6.37462 16.1825 8.54452 17.3958H15.4532C17.6231 16.1825 19.0876 13.8638 19.0876 11.2039C19.0876 7.28944 15.9141 4.11523 11.9989 4.11523Z" fill="#000000" />
<path fill-rule="evenodd" clip-rule="evenodd" d="M15.2212 17.5424C15.57 17.319 16.0339 17.4205 16.2573 17.7693L17.0725 19.0414C17.3096 19.4115 17.5145 19.7313 17.6541 19.9995C17.7943 20.2689 17.9324 20.6001 17.9094 20.9731C17.8773 21.4925 17.6158 21.9706 17.1958 22.2778C16.8941 22.4985 16.5408 22.5609 16.2383 22.5882C15.9371 22.6154 15.5573 22.6153 15.1178 22.6153H8.88588C8.4464 22.6153 8.06655 22.6154 7.76535 22.5882C7.46291 22.5609 7.10957 22.4985 6.8079 22.2778C6.3879 21.9706 6.12639 21.4925 6.09433 20.9731C6.07131 20.6001 6.20938 20.2689 6.34958 19.9995C6.4892 19.7313 6.69415 19.4114 6.93127 19.0414C6.93734 19.0319 6.94344 19.0224 6.94956 19.0129L7.74296 17.7747C7.96643 17.4259 8.43031 17.3243 8.77907 17.5478C9.12783 17.7713 9.2294 18.2352 9.00592 18.5839L8.21253 19.8221C7.95189 20.2289 7.78467 20.4912 7.68015 20.692C7.61461 20.818 7.59711 20.8779 7.59277 20.8949C7.60039 20.9589 7.63242 21.0174 7.68215 21.0584C7.6988 21.0639 7.75875 21.0815 7.90013 21.0942C8.12561 21.1146 8.43669 21.1153 8.91979 21.1153H15.0839C15.567 21.1153 15.8781 21.1146 16.1036 21.0942C16.2449 21.0815 16.3049 21.0639 16.3215 21.0584C16.3713 21.0174 16.4033 20.9589 16.4109 20.8949C16.4066 20.8779 16.3891 20.818 16.3235 20.692C16.219 20.4912 16.0518 20.2289 15.7912 19.8221L14.9944 18.5785C14.7709 18.2298 14.8725 17.7659 15.2212 17.5424Z" fill="#000000" />
<path fill-rule="evenodd" clip-rule="evenodd" d="M6.42363 11.553C6.1673 11.8784 6.22327 12.3499 6.54864 12.6063L8.46015 14.1122C8.78552 14.3685 9.25708 14.3125 9.51341 13.9872C9.76975 13.6618 9.71378 13.1902 9.38841 12.9339L7.4769 11.428C7.15153 11.1717 6.67997 11.2276 6.42363 11.553Z" fill="#000000" />
<path fill-rule="evenodd" clip-rule="evenodd" d="M11.9992 11.8774C10.8993 11.8774 10.0077 10.9858 10.0077 9.886C10.0077 8.78616 10.8993 7.89456 11.9992 7.89456C13.099 7.89456 13.9906 8.78616 13.9906 9.886C13.9906 10.9858 13.099 11.8774 11.9992 11.8774ZM8.50772 9.886C8.50772 11.8143 10.0709 13.3774 11.9992 13.3774C13.9274 13.3774 15.4906 11.8143 15.4906 9.886C15.4906 7.95773 13.9274 6.39456 11.9992 6.39456C10.0709 6.39456 8.50772 7.95773 8.50772 9.886Z" fill="#000000" />
<path fill-rule="evenodd" clip-rule="evenodd" d="M10.998 11.7221C11.1974 12.0852 11.0647 12.5411 10.7017 12.7405C9.86214 13.2016 9.29583 14.0924 9.29583 15.1145C9.29583 16.1365 9.86214 17.0274 10.7017 17.4884C11.0647 17.6878 11.1974 18.1438 10.998 18.5068C10.7986 18.8699 10.3427 19.0026 9.97959 18.8032C8.67965 18.0893 7.79583 16.7056 7.79583 15.1145C7.79583 13.5233 8.67965 12.1397 9.97959 11.4258C10.3427 11.2264 10.7986 11.3591 10.998 11.7221Z" fill="#000000" />
<path fill-rule="evenodd" clip-rule="evenodd" d="M17.5764 11.5507C17.834 11.8751 17.7799 12.3468 17.4555 12.6044L15.9886 13.7694C16.1301 14.1935 16.2069 14.6482 16.2069 15.1142C16.2069 16.7054 15.3231 18.089 14.0231 18.8029C13.6601 19.0023 13.2041 18.8696 13.0047 18.5066C12.8053 18.1435 12.938 17.6876 13.3011 17.4882C14.1406 17.0271 14.7069 16.1363 14.7069 15.1142C14.7069 14.6695 14.5986 14.2419 14.4112 13.875C14.2489 13.557 14.3332 13.1686 14.6128 12.9466L16.5226 11.4298C16.847 11.1722 17.3188 11.2263 17.5764 11.5507Z" fill="#000000" />
<path fill-rule="evenodd" clip-rule="evenodd" d="M11.1622 11.8516C11.5764 11.8516 11.9122 12.1873 11.9122 12.6016V14.4451C11.9122 14.8593 11.5764 15.1951 11.1622 15.1951C10.748 15.1951 10.4122 14.8593 10.4122 14.4451V12.6016C10.4122 12.1873 10.748 11.8516 11.1622 11.8516Z" fill="#000000" />
</svg>