<svg width="24px"  height="24px"  viewBox="0 0 24 25" fill="none" xmlns="http://www.w3.org/2000/svg">
<path fill-rule="evenodd" clip-rule="evenodd" d="M11.6236 7.56386C11.8556 7.42989 12.1415 7.42989 12.3736 7.56386L16.1853 9.76454C16.4173 9.89852 16.5603 10.1461 16.5603 10.4141V14.8154C16.5603 15.0834 16.4173 15.331 16.1853 15.4649L12.3736 17.6656C12.1415 17.7996 11.8556 17.7996 11.6236 17.6656L7.81189 15.4649C7.57984 15.331 7.43689 15.0834 7.43689 14.8154V10.4141C7.43689 10.1461 7.57984 9.89852 7.81189 9.76454L11.6236 7.56386ZM11.9986 9.0794L8.93689 10.8471V14.3824L11.9986 16.1501L15.0603 14.3824V10.8471L11.9986 9.0794Z" fill="#000000" />
<path fill-rule="evenodd" clip-rule="evenodd" d="M11.9995 2.6626C12.4138 2.6626 12.7495 2.99838 12.7495 3.4126V8.21338C12.7495 8.62759 12.4138 8.96338 11.9995 8.96338C11.5853 8.96338 11.2495 8.62759 11.2495 8.21338V3.4126C11.2495 2.99838 11.5853 2.6626 11.9995 2.6626Z" fill="#000000" />
<path fill-rule="evenodd" clip-rule="evenodd" d="M15.2715 4.01381C15.5096 4.35276 15.4278 4.82054 15.0888 5.05862L12.4305 6.92581C12.1719 7.10747 11.8271 7.1075 11.5684 6.92587L8.90928 5.05868C8.57029 4.82065 8.48845 4.35288 8.72648 4.01389C8.96451 3.6749 9.43228 3.59306 9.77127 3.83109L11.9994 5.3956L14.2267 3.83115C14.5656 3.59307 15.0334 3.67485 15.2715 4.01381Z" fill="#000000" />
<path fill-rule="evenodd" clip-rule="evenodd" d="M11.9995 22.5669C12.4138 22.5669 12.7495 22.2311 12.7495 21.8169V17.0161C12.7495 16.6019 12.4138 16.2661 11.9995 16.2661C11.5853 16.2661 11.2495 16.6019 11.2495 17.0161V21.8169C11.2495 22.2311 11.5853 22.5669 11.9995 22.5669Z" fill="#000000" />
<path fill-rule="evenodd" clip-rule="evenodd" d="M15.2715 21.2157C15.5096 20.8767 15.4278 20.409 15.0888 20.1709L12.4305 18.3037C12.1719 18.122 11.8271 18.122 11.5684 18.3036L8.90928 20.1708C8.57029 20.4088 8.48845 20.8766 8.72648 21.2156C8.96451 21.5546 9.43228 21.6364 9.77127 21.3984L11.9994 19.8339L14.2267 21.3983C14.5656 21.6364 15.0334 21.5546 15.2715 21.2157Z" fill="#000000" />
<path fill-rule="evenodd" clip-rule="evenodd" d="M20.6178 7.63975C20.8249 7.99847 20.702 8.45717 20.3433 8.66427L16.1857 11.0647C15.827 11.2718 15.3683 11.1489 15.1612 10.7901C14.9541 10.4314 15.077 9.97273 15.4357 9.76562L19.5933 7.36523C19.952 7.15813 20.4107 7.28103 20.6178 7.63975Z" fill="#000000" />
<path fill-rule="evenodd" clip-rule="evenodd" d="M21.0841 11.1486C20.9096 11.5243 20.4636 11.6873 20.0879 11.5128L17.1417 10.1442C16.8551 10.0111 16.6826 9.71252 16.7106 9.3977L16.9981 6.16122C17.0347 5.74863 17.3989 5.44387 17.8115 5.48051C18.2241 5.51716 18.5288 5.88134 18.4922 6.29393L18.2513 9.00576L20.7198 10.1524C21.0955 10.3269 21.2586 10.7729 21.0841 11.1486Z" fill="#000000" />
<path fill-rule="evenodd" clip-rule="evenodd" d="M3.37933 17.5919C3.58644 17.9506 4.04513 18.0735 4.40385 17.8664L8.56145 15.466C8.92017 15.2589 9.04308 14.8002 8.83597 14.4415C8.62886 14.0828 8.17017 13.9599 7.81145 14.167L3.65385 16.5674C3.29513 16.7745 3.17223 17.2332 3.37933 17.5919Z" fill="#000000" />
<path fill-rule="evenodd" clip-rule="evenodd" d="M6.18699 19.7495C6.59958 19.7862 6.9638 19.4815 7.0005 19.069L7.28837 15.8332C7.31638 15.5184 7.14402 15.2198 6.85739 15.0866L3.91079 13.7173C3.53515 13.5427 3.08913 13.7057 2.91457 14.0814C2.74001 14.457 2.90302 14.903 3.27865 15.0776L5.7476 16.2249L5.50641 18.936C5.4697 19.3486 5.77441 19.7128 6.18699 19.7495Z" fill="#000000" />
<path fill-rule="evenodd" clip-rule="evenodd" d="M3.38129 7.63975C3.17418 7.99847 3.29709 8.45717 3.65581 8.66427L7.8134 11.0647C8.17212 11.2718 8.63082 11.1489 8.83792 10.7901C9.04503 10.4314 8.92212 9.97273 8.5634 9.76562L4.40581 7.36523C4.04709 7.15813 3.58839 7.28103 3.38129 7.63975Z" fill="#000000" />
<path fill-rule="evenodd" clip-rule="evenodd" d="M2.91506 11.1486C3.08956 11.5243 3.53556 11.6873 3.91122 11.5128L6.85742 10.1442C7.14406 10.0111 7.31647 9.71252 7.28851 9.3977L7.00105 6.16122C6.9644 5.74863 6.60022 5.44387 6.18763 5.48051C5.77505 5.51716 5.47028 5.88134 5.50693 6.29393L5.74779 9.00576L3.27929 10.1524C2.90363 10.3269 2.74056 10.7729 2.91506 11.1486Z" fill="#000000" />
<path fill-rule="evenodd" clip-rule="evenodd" d="M20.6198 17.5919C20.4127 17.9506 19.954 18.0735 19.5953 17.8664L15.4377 15.466C15.0789 15.2589 14.956 14.8002 15.1631 14.4415C15.3703 14.0828 15.8289 13.9599 16.1877 14.167L20.3453 16.5674C20.704 16.7745 20.8269 17.2332 20.6198 17.5919Z" fill="#000000" />
<path fill-rule="evenodd" clip-rule="evenodd" d="M17.8121 19.7495C17.3995 19.7862 17.0353 19.4815 16.9986 19.069L16.7107 15.8332C16.6827 15.5184 16.8551 15.2198 17.1417 15.0866L20.0883 13.7173C20.464 13.5427 20.91 13.7057 21.0845 14.0814C21.2591 14.457 21.0961 14.903 20.7205 15.0776L18.2515 16.2249L18.4927 18.936C18.5294 19.3486 18.2247 19.7128 17.8121 19.7495Z" fill="#000000" />
</svg>