<svg width="24px"  height="24px"  viewBox="0 0 24 25" fill="none" xmlns="http://www.w3.org/2000/svg">
<path fill-rule="evenodd" clip-rule="evenodd" d="M14.5845 13.7455C14.8774 13.4527 15.3523 13.4527 15.6452 13.7455L15.6552 13.7555C15.9481 14.0484 15.9481 14.5233 15.6552 14.8162C15.3623 15.1091 14.8874 15.1091 14.5945 14.8162L14.5845 14.8062C14.2916 14.5133 14.2916 14.0384 14.5845 13.7455Z" fill="#000000" />
<path fill-rule="evenodd" clip-rule="evenodd" d="M11.4399 6.13281C11.7211 6.13281 11.9786 6.29002 12.107 6.54006L13.2553 8.77495L15.4902 9.92323C15.7403 10.0517 15.8975 10.3092 15.8975 10.5903C15.8975 10.8714 15.7403 11.129 15.4902 11.2574L13.2553 12.4057L12.107 14.6406C11.9786 14.8906 11.7211 15.0479 11.4399 15.0479C11.1588 15.0479 10.9013 14.8906 10.7728 14.6406L9.62456 12.4057L7.38967 11.2574C7.13963 11.129 6.98242 10.8714 6.98242 10.5903C6.98242 10.3092 7.13963 10.0517 7.38967 9.92323L9.62456 8.77495L10.7728 6.54006C10.9013 6.29002 11.1588 6.13281 11.4399 6.13281ZM11.4399 8.52392L10.8487 9.67471C10.7771 9.81405 10.6637 9.92747 10.5243 9.99906L9.37353 10.5903L10.5243 11.1816C10.6637 11.2532 10.7771 11.3666 10.8487 11.506L11.4399 12.6567L12.0312 11.506C12.1028 11.3666 12.2162 11.2532 12.3556 11.1816L13.5063 10.5903L12.3556 9.99906C12.2162 9.92747 12.1028 9.81405 12.0312 9.67471L11.4399 8.52392Z" fill="#000000" />
<path fill-rule="evenodd" clip-rule="evenodd" d="M3.41016 11.2039C3.41016 6.46111 7.2551 2.61523 11.9989 2.61523C16.7426 2.61523 20.5876 6.46111 20.5876 11.2039C20.5876 14.507 18.7231 17.3731 15.9926 18.8095C15.8849 18.8662 15.7651 18.8958 15.6434 18.8958H8.35432C8.23266 18.8958 8.11283 18.8662 8.00515 18.8095C5.27461 17.3731 3.41016 14.507 3.41016 11.2039ZM11.9989 4.11523C8.08363 4.11523 4.91016 7.28944 4.91016 11.2039C4.91016 13.8638 6.37462 16.1825 8.54452 17.3958H15.4532C17.6231 16.1825 19.0876 13.8638 19.0876 11.2039C19.0876 7.28944 15.9141 4.11523 11.9989 4.11523Z" fill="#000000" />
<path fill-rule="evenodd" clip-rule="evenodd" d="M15.2212 17.5424C15.57 17.319 16.0339 17.4205 16.2573 17.7693L17.0725 19.0414C17.3096 19.4115 17.5145 19.7313 17.6541 19.9995C17.7943 20.2689 17.9324 20.6001 17.9094 20.9731C17.8773 21.4925 17.6158 21.9706 17.1958 22.2778C16.8941 22.4985 16.5408 22.5609 16.2383 22.5882C15.9371 22.6154 15.5573 22.6153 15.1178 22.6153H8.88588C8.4464 22.6153 8.06655 22.6154 7.76535 22.5882C7.46291 22.5609 7.10957 22.4985 6.8079 22.2778C6.3879 21.9706 6.12639 21.4925 6.09433 20.9731C6.07131 20.6001 6.20938 20.2689 6.34958 19.9995C6.4892 19.7313 6.69415 19.4114 6.93127 19.0414C6.93734 19.0319 6.94344 19.0224 6.94956 19.0129L7.74296 17.7747C7.96643 17.4259 8.43031 17.3243 8.77907 17.5478C9.12783 17.7713 9.2294 18.2352 9.00592 18.5839L8.21253 19.8221C7.95189 20.2289 7.78467 20.4912 7.68015 20.692C7.61461 20.818 7.59711 20.8779 7.59277 20.8949C7.60039 20.9589 7.63242 21.0174 7.68215 21.0584C7.6988 21.0639 7.75875 21.0815 7.90013 21.0942C8.12561 21.1146 8.43669 21.1153 8.91979 21.1153H15.0839C15.567 21.1153 15.8781 21.1146 16.1036 21.0942C16.2449 21.0815 16.3049 21.0639 16.3215 21.0584C16.3713 21.0174 16.4033 20.9589 16.4109 20.8949C16.4066 20.8779 16.3891 20.818 16.3235 20.692C16.219 20.4912 16.0518 20.2289 15.7912 19.8221L14.9944 18.5785C14.7709 18.2298 14.8725 17.7659 15.2212 17.5424Z" fill="#000000" />
</svg>