<svg width="24px"  height="24px"  viewBox="0 0 25 24" fill="none" xmlns="http://www.w3.org/2000/svg">
<path fill-rule="evenodd" clip-rule="evenodd" d="M9.68033 11.8348C9.32072 12.1887 9.04189 12.7712 9.04189 13.6856L9.04092 18.4746C9.04092 18.4746 9.04092 18.4745 9.04092 18.4746C9.04089 19.0834 8.86881 19.652 8.57064 20.1343L19.0053 20.1366C19.0054 20.1366 19.0052 20.1366 19.0053 20.1366C19.9199 20.1365 20.6624 19.3945 20.6624 18.4785V18.4687L20.7247 13.6809C20.7237 12.7692 20.4453 12.1881 20.0863 11.8348C19.7216 11.4761 19.1958 11.2754 18.5626 11.2754H11.204C10.5708 11.2754 10.045 11.4761 9.68033 11.8348ZM5.88298 20.1337C5.88304 20.1337 5.88292 20.1337 5.88298 20.1337C5.4688 20.1337 5.13286 20.4694 5.13281 20.8836C5.13277 21.2978 5.46846 21.6336 5.88265 21.6337L19.0051 21.6366C20.7469 21.6366 22.1596 20.2254 22.1624 18.4837L22.2246 13.6954L22.2247 13.6856C22.2247 12.4527 21.839 11.4551 21.1383 10.7656C20.4427 10.0812 19.5125 9.77539 18.5626 9.77539H11.204C10.2541 9.77539 9.32395 10.0812 8.62829 10.7656C7.92763 11.455 7.54193 12.4526 7.54189 13.6855C7.54189 13.6854 7.54189 13.6855 7.54189 13.6855L7.54092 18.4744C7.54092 19.3914 6.79855 20.1336 5.88298 20.1337Z" fill="#000000" />
<path fill-rule="evenodd" clip-rule="evenodd" d="M3.9118 4.03781C4.81492 2.9041 6.19956 2.36328 8.01061 2.36328H9.86522C10.7658 2.3646 11.6144 2.78851 12.1551 3.50972C12.1552 3.50979 12.1551 3.50965 12.1551 3.50972L13.0011 4.63475C13.2588 4.97773 13.6635 5.18043 14.0949 5.18198H15.6251C17.1505 5.18198 18.4575 5.50841 19.3997 6.28896C20.3646 7.08827 20.827 8.26261 20.8555 9.68925L20.8556 9.7042V10.7521C20.8556 11.1663 20.5198 11.5021 20.1056 11.5021C19.6914 11.5021 19.3556 11.1663 19.3556 10.7521V9.71192C19.3321 8.60519 18.9878 7.89553 18.4428 7.44409C17.874 6.97291 16.9661 6.68198 15.6251 6.68198H14.0936L14.0914 6.68198C13.1922 6.67935 12.3439 6.25723 11.802 5.53602L10.955 4.40959C10.698 4.06663 10.2937 3.86406 9.8635 3.86328H8.01061C6.50382 3.86328 5.62046 4.3003 5.08504 4.97243C4.52122 5.68021 4.22461 6.79267 4.22461 8.38096V18.4746C4.22461 19.3916 4.96707 20.1337 5.88272 20.1337C6.29693 20.1337 6.63272 20.4694 6.63272 20.8837C6.63272 21.2979 6.29693 21.6337 5.88272 21.6337C4.13825 21.6337 2.72461 20.2196 2.72461 18.4746V8.38096C2.72461 6.65724 3.03708 5.13587 3.9118 4.03781Z" fill="#000000" />
</svg>