<svg width="24px"  height="24px"  viewBox="0 0 25 24" fill="none" xmlns="http://www.w3.org/2000/svg">
<path fill-rule="evenodd" clip-rule="evenodd" d="M5.09665 4.88841C4.52468 5.60638 4.22461 6.73388 4.22461 8.34168V15.6546C4.22461 17.1846 4.6735 18.3078 5.41535 19.0482C6.1574 19.7888 7.28389 20.2374 8.81913 20.2374C9.23335 20.2374 9.56913 20.5732 9.56913 20.9874C9.56913 21.4017 9.23335 21.7374 8.81913 21.7374C6.99085 21.7374 5.44509 21.1971 4.35575 20.1099C3.26622 19.0225 2.72461 17.4793 2.72461 15.6546V8.34168C2.72461 6.59858 3.0405 5.06208 3.92343 3.95377C4.83479 2.80978 6.23239 2.26367 8.06229 2.26367H9.93739C10.8473 2.26367 11.7025 2.69295 12.2478 3.41896C12.2479 3.41906 12.2477 3.41886 12.2478 3.41896L13.1031 4.55672C13.1032 4.55691 13.1029 4.55653 13.1031 4.55672C13.3673 4.9067 13.7799 5.11344 14.2168 5.11421H16.8694C18.6701 5.11421 20.076 5.57459 21.0037 6.66111C21.9082 7.72041 22.2246 9.22491 22.2246 10.9999V11.0105L22.1983 12.8526C22.1924 13.2668 21.8519 13.5977 21.4377 13.5918C21.0235 13.5859 20.6926 13.2454 20.6985 12.8312L20.7246 10.9946C20.724 9.34878 20.4196 8.28702 19.863 7.63514C19.329 7.00978 18.4323 6.61421 16.8694 6.61421L14.215 6.61421C13.3057 6.6129 12.4514 6.18392 11.9054 5.45983L11.9047 5.45893L11.0488 4.32027C10.7858 3.96997 10.3739 3.76367 9.93739 3.76367H8.06229C6.53644 3.76367 5.6402 4.20612 5.09665 4.88841Z" fill="#000000" />
<path fill-rule="evenodd" clip-rule="evenodd" d="M15.7328 15.1055C14.5081 15.1055 13.5156 16.0986 13.5156 17.3226C13.5156 18.5474 14.508 19.5397 15.7328 19.5397C16.3036 19.5397 16.8239 19.3242 17.2168 18.9701C17.2181 18.9688 17.2193 18.9675 17.2206 18.9662C17.2355 18.9512 17.2509 18.9371 17.2667 18.9237C17.6878 18.5202 17.9499 17.9521 17.9499 17.3226C17.9499 16.0986 16.9574 15.1055 15.7328 15.1055ZM18.7756 19.4584C19.2004 18.8542 19.4499 18.1176 19.4499 17.3226C19.4499 15.2705 17.7861 13.6055 15.7328 13.6055C13.6794 13.6055 12.0156 15.2705 12.0156 17.3226C12.0156 19.3758 13.6795 21.0397 15.7328 21.0397C16.4482 21.0397 17.1164 20.8377 17.6833 20.4876L18.715 21.5172C19.0081 21.8098 19.483 21.8093 19.7756 21.5162C20.0682 21.223 20.0678 20.7481 19.7746 20.4555L18.7756 19.4584Z" fill="#000000" />
</svg>