<svg width="24px"  height="24px"  viewBox="0 0 25 24" fill="none" xmlns="http://www.w3.org/2000/svg">
<path fill-rule="evenodd" clip-rule="evenodd" d="M4.84665 4.88841C4.27468 5.60638 3.97461 6.73388 3.97461 8.34168V15.6546C3.97461 17.1846 4.4235 18.3078 5.16535 19.0482C5.9074 19.7888 7.03389 20.2374 8.56913 20.2374H15.8655C17.3964 20.2374 18.5198 19.7891 19.26 19.0488C20.0002 18.3084 20.4484 17.185 20.4484 15.6546V15.6481L20.4484 15.6481L20.4746 12.6176C20.4746 12.6165 20.4746 12.6155 20.4746 12.6144C20.4742 10.9679 20.1699 9.90579 19.613 9.25374C19.079 8.62847 18.1823 8.2329 16.6194 8.2329H13.9661L13.964 8.23289C13.1147 8.23044 11.9602 7.8048 11.5518 6.7135L11.5476 6.70219L11.5477 6.70215L10.7313 4.40883C10.5578 3.97942 10.1372 3.76367 9.68739 3.76367H7.81229C6.28644 3.76367 5.3902 4.20612 4.84665 4.88841ZM3.67343 3.95377C4.58479 2.80978 5.98239 2.26367 7.81229 2.26367H9.68739C10.5808 2.26367 11.6767 2.71193 12.1314 3.87041C12.1343 3.87787 12.1371 3.88537 12.1398 3.89292L12.9583 6.1921C13.0684 6.47789 13.4729 6.73114 13.9673 6.7329H16.6194C18.4201 6.7329 19.8259 7.19326 20.7537 8.27963C21.6582 9.3388 21.9746 10.8431 21.9746 12.6176V12.624L21.9746 12.624L21.9484 15.6546C21.9484 15.6557 21.9484 15.6567 21.9484 15.6578C21.9477 17.4807 21.4074 19.0226 20.3207 20.1093C19.2334 21.1968 17.6904 21.7374 15.8655 21.7374H8.56913C6.74085 21.7374 5.19509 21.1971 4.10575 20.1099C3.01622 19.0225 2.47461 17.4793 2.47461 15.6546V8.34168C2.47461 6.59858 2.7905 5.06208 3.67343 3.95377Z" fill="#000000" />
<path fill-rule="evenodd" clip-rule="evenodd" d="M21.229 13.7539C21.6432 13.7516 21.9771 13.4139 21.9748 12.9997L21.9486 8.34821C21.9486 8.34747 21.9486 8.34672 21.9486 8.34597C21.9481 6.52261 21.4078 4.98042 20.3209 3.89345C19.2336 2.806 17.6906 2.26535 15.8657 2.26535H8.56934C8.15512 2.26535 7.81934 2.60114 7.81934 3.01535C7.81934 3.42956 8.15512 3.76535 8.56934 3.76535H15.8657C17.3966 3.76535 18.52 4.21374 19.2602 4.95403C20.0004 5.69435 20.4486 6.81778 20.4486 8.34821V8.35244H20.4486L20.4748 13.0081C20.4772 13.4223 20.8148 13.7562 21.229 13.7539Z" fill="#000000" />
</svg>