<svg width="24px"  height="24px"  viewBox="0 0 25 24" fill="none" xmlns="http://www.w3.org/2000/svg">
<path fill-rule="evenodd" clip-rule="evenodd" d="M5.09665 4.88841C4.52468 5.60638 4.22461 6.73388 4.22461 8.34168V15.6546C4.22461 17.1846 4.6735 18.3078 5.41535 19.0482C6.1574 19.7888 7.28389 20.2374 8.81913 20.2374H16.1155C17.6464 20.2374 18.7698 19.7891 19.51 19.0488C20.2502 18.3084 20.6984 17.185 20.6984 15.6546L20.6984 15.6503L20.7246 10.9989C20.7246 10.9982 20.7246 10.9974 20.7246 10.9967C20.7243 9.34966 20.42 8.28723 19.863 7.63506C19.329 7.00979 18.4323 6.61421 16.8694 6.61421H14.2161L14.214 6.61421C13.3062 6.61159 12.4519 6.18456 11.9054 5.45983L11.9047 5.45893L11.0488 4.32027C10.7858 3.96997 10.3739 3.76367 9.93739 3.76367H8.06229C6.53644 3.76367 5.6402 4.20612 5.09665 4.88841ZM3.92343 3.95377C4.83479 2.80978 6.23239 2.26367 8.06229 2.26367H9.93739C10.8473 2.26367 11.7025 2.69295 12.2478 3.41896C12.2479 3.41906 12.2477 3.41886 12.2478 3.41896L13.1031 4.55672C13.1032 4.55691 13.1029 4.55653 13.1031 4.55672C13.3667 4.90593 13.7791 5.11265 14.2173 5.11421H16.8694C18.6701 5.11421 20.0759 5.57458 21.0037 6.66095C21.9082 7.72012 22.2246 9.22438 22.2246 10.9989L22.2246 11.0031L22.1984 15.6546C22.1984 15.6553 22.1984 15.6561 22.1984 15.6568C22.1979 17.4802 21.6575 19.0224 20.5707 20.1093C19.4834 21.1968 17.9404 21.7374 16.1155 21.7374H8.81913C6.99085 21.7374 5.44509 21.1971 4.35575 20.1099C3.26622 19.0225 2.72461 17.4793 2.72461 15.6546V8.34168C2.72461 6.59858 3.0405 5.06208 3.92343 3.95377Z" fill="#000000" />
<path fill-rule="evenodd" clip-rule="evenodd" d="M12.4711 10.2414C13.0959 9.93905 13.819 9.88374 14.4917 10.0976L14.4946 10.0985C16.1605 10.6357 16.6394 12.4067 16.1991 13.7843L16.1986 13.7858C15.8444 14.8865 14.9475 15.7768 14.2378 16.3533C13.87 16.6521 13.5229 16.89 13.2677 17.0535C13.1397 17.1355 13.0337 17.1994 12.9583 17.2436C12.9206 17.2657 12.8904 17.283 12.869 17.2951L12.8433 17.3094L12.8356 17.3137L12.8331 17.3151L12.8322 17.3156C12.832 17.3157 12.8315 17.316 12.4729 16.6572C12.112 17.3147 12.1118 17.3146 12.1116 17.3145L12.1103 17.3138L12.1078 17.3124L12.1001 17.3081L12.0745 17.2937C12.0529 17.2814 12.0227 17.264 11.9848 17.2416C11.9091 17.1969 11.8026 17.1323 11.674 17.0496C11.4177 16.8846 11.0693 16.6449 10.7007 16.3449C9.99166 15.768 9.092 14.8766 8.7472 13.783C8.30605 12.4034 8.79045 10.635 10.4541 10.0986L10.4597 10.0967C11.1303 9.88637 11.8493 9.94301 12.4711 10.2414ZM12.4729 16.6572L12.1116 17.3145C12.3356 17.4375 12.6078 17.4377 12.8322 17.3156L12.4729 16.6572ZM12.474 15.7806C12.6928 15.6398 12.9853 15.4382 13.292 15.1891C13.9455 14.6582 14.5543 13.9981 14.7705 13.327C15.0369 12.4924 14.6888 11.7382 14.0357 11.5266C13.6549 11.4061 13.2405 11.4763 12.9229 11.7145C12.6573 11.9137 12.2924 11.9146 12.0258 11.7167C11.7063 11.4795 11.2917 11.4088 10.9116 11.5271C10.2577 11.7398 9.90959 12.495 10.1762 13.3272L10.1775 13.3309C10.384 13.9872 10.9891 14.6458 11.6474 15.1814C11.9571 15.4334 12.253 15.6379 12.474 15.7806Z" fill="#000000" />
</svg>