<svg width="24px"  height="24px"  viewBox="0 0 24 24" fill="none" xmlns="http://www.w3.org/2000/svg">
<path fill-rule="evenodd" clip-rule="evenodd" d="M4.62204 4.88841C4.05008 5.60638 3.75 6.73388 3.75 8.34168V15.6546C3.75 17.1846 4.19889 18.3078 4.94074 19.0482C5.68279 19.7888 6.80928 20.2374 8.34452 20.2374H15.6409C17.1718 20.2374 18.2952 19.7891 19.0354 19.0488C19.7756 18.3084 20.2238 17.185 20.2238 15.6546L20.2238 15.6503L20.25 10.9989C20.25 10.9982 20.25 10.9974 20.25 10.9967C20.2497 9.34966 19.9454 8.28723 19.3884 7.63506C18.8544 7.00979 17.9577 6.61421 16.3948 6.61421H13.7415L13.7393 6.61421C12.8316 6.61159 11.9773 6.18456 11.4308 5.45983L11.4301 5.45893L10.5742 4.32027C10.3111 3.96997 9.89928 3.76367 9.46278 3.76367H7.58768C6.06183 3.76367 5.16559 4.20612 4.62204 4.88841ZM3.44883 3.95377C4.36018 2.80978 5.75778 2.26367 7.58768 2.26367H9.46278C10.3727 2.26367 11.2279 2.69295 11.7732 3.41896C11.7733 3.41906 11.7731 3.41886 11.7732 3.41896L12.6285 4.55672C12.6286 4.55691 12.6283 4.55653 12.6285 4.55672C12.8921 4.90593 13.3045 5.11265 13.7427 5.11421H16.3948C18.1955 5.11421 19.6013 5.57458 20.5291 6.66095C21.4336 7.72012 21.75 9.22438 21.75 10.9989L21.75 11.0031L21.7238 15.6546C21.7238 15.6553 21.7238 15.6561 21.7238 15.6568C21.7233 17.4802 21.1829 19.0224 20.0961 20.1093C19.0088 21.1968 17.4658 21.7374 15.6409 21.7374H8.34452C6.51624 21.7374 4.97048 21.1971 3.88114 20.1099C2.79161 19.0225 2.25 17.4793 2.25 15.6546V8.34168C2.25 6.59858 2.56589 5.06208 3.44883 3.95377Z" fill="#000000" />
<path fill-rule="evenodd" clip-rule="evenodd" d="M2.31836 13.7109C2.31836 13.2967 2.65415 12.9609 3.06836 12.9609H20.8047C21.2189 12.9609 21.5547 13.2967 21.5547 13.7109C21.5547 14.1252 21.2189 14.4609 20.8047 14.4609H3.06836C2.65415 14.4609 2.31836 14.1252 2.31836 13.7109Z" fill="#000000" />
<path fill-rule="evenodd" clip-rule="evenodd" d="M9.30165 10.0884C8.63688 10.2672 7.9901 10.7653 7.45644 11.6896L6.13988 13.9699C5.93277 14.3287 5.47408 14.4516 5.11536 14.2445C4.75664 14.0374 4.63373 13.5787 4.84084 13.2199L6.1574 10.9396C6.83758 9.76149 7.77339 8.94615 8.91198 8.63985C10.0508 8.33348 11.268 8.5699 12.4441 9.24892L17.0151 11.888C17.6766 12.2699 18.2519 12.6971 18.6943 13.1877C18.9717 13.4953 18.9472 13.9696 18.6396 14.247C18.3319 14.5244 17.8577 14.4999 17.5803 14.1923C17.2762 13.855 16.8413 13.5197 16.2651 13.1871L11.6941 10.548C10.7732 10.0163 9.96617 9.90959 9.30165 10.0884Z" fill="#000000" />
</svg>