<svg width="24px"  height="24px"  viewBox="0 0 25 24" fill="none" xmlns="http://www.w3.org/2000/svg">
<path fill-rule="evenodd" clip-rule="evenodd" d="M12.0247 3.75C11.703 3.75 11.4427 4.011 11.4427 4.33103V5.89654C11.4427 6.31075 11.1069 6.64654 10.6927 6.64654H6.02439C5.70339 6.64654 5.44336 6.90683 5.44336 7.22757V19.669C5.44336 19.9903 5.70303 20.25 6.02439 20.25H15.943V4.33103C15.943 4.01065 15.6824 3.75 15.362 3.75H12.0247ZM6.02439 21.75C4.87461 21.75 3.94336 20.8188 3.94336 19.669V7.22757C3.94336 6.07912 4.87425 5.14654 6.02439 5.14654H9.94271V4.33103C9.94271 3.18186 10.8753 2.25 12.0247 2.25H15.362C16.5108 2.25 17.443 3.18222 17.443 4.33103V8.25032H19.4164C20.5652 8.25032 21.4974 9.18254 21.4974 10.3314V19.669C21.4974 20.8191 20.5648 21.75 19.4164 21.75H6.02439ZM17.443 9.75032H19.4164C19.7368 9.75032 19.9974 10.011 19.9974 10.3314V19.669C19.9974 19.99 19.7371 20.25 19.4164 20.25H17.443V9.75032Z" fill="#000000" />
<path fill-rule="evenodd" clip-rule="evenodd" d="M8.54733 16.2718C8.95391 16.1926 9.34765 16.4581 9.42676 16.8647L9.42871 16.8747C9.50782 17.2813 9.24235 17.675 8.83576 17.7541C8.42917 17.8333 8.03543 17.5678 7.95632 17.1612L7.95438 17.1512C7.87527 16.7446 8.14074 16.3509 8.54733 16.2718Z" fill="#000000" />
<path fill-rule="evenodd" clip-rule="evenodd" d="M8.54733 12.6858C8.95391 12.6067 9.34765 12.8722 9.42676 13.2788L9.42871 13.2888C9.50782 13.6954 9.24235 14.0891 8.83576 14.1682C8.42917 14.2473 8.03543 13.9818 7.95632 13.5753L7.95438 13.5653C7.87527 13.1587 8.14074 12.7649 8.54733 12.6858Z" fill="#000000" />
<path fill-rule="evenodd" clip-rule="evenodd" d="M8.54733 9.01785C8.95391 8.93874 9.34765 9.20421 9.42676 9.6108L9.42871 9.6208C9.50782 10.0274 9.24235 10.4211 8.83576 10.5002C8.42917 10.5794 8.03543 10.3139 7.95632 9.90729L7.95438 9.89729C7.87527 9.4907 8.14074 9.09696 8.54733 9.01785Z" fill="#000000" />
<path fill-rule="evenodd" clip-rule="evenodd" d="M12.5502 16.2718C12.9568 16.1926 13.3505 16.4581 13.4297 16.8647L13.4316 16.8747C13.5108 17.2812 13.2453 17.675 12.8387 17.7541C12.4322 17.8333 12.0384 17.5678 11.9593 17.1612L11.9573 17.1512C11.8782 16.7447 12.1436 16.3509 12.5502 16.2718Z" fill="#000000" />
<path fill-rule="evenodd" clip-rule="evenodd" d="M12.5502 12.6858C12.9568 12.6067 13.3505 12.8721 13.4297 13.2787L13.4316 13.2887C13.5108 13.6953 13.2453 14.0891 12.8387 14.1682C12.4322 14.2473 12.0384 13.9819 11.9593 13.5753L11.9573 13.5653C11.8782 13.1587 12.1436 12.765 12.5502 12.6858Z" fill="#000000" />
<path fill-rule="evenodd" clip-rule="evenodd" d="M12.5502 9.01786C12.9568 8.93872 13.3505 9.20417 13.4297 9.61075L13.4316 9.62075C13.5108 10.0273 13.2453 10.4211 12.8387 10.5002C12.4322 10.5794 12.0384 10.3139 11.9593 9.90734L11.9573 9.89734C11.8782 9.49076 12.1436 9.097 12.5502 9.01786Z" fill="#000000" />
</svg>