<svg width="24px"  height="24px"  viewBox="0 0 25 24" fill="none" xmlns="http://www.w3.org/2000/svg">
<path fill-rule="evenodd" clip-rule="evenodd" d="M2.9707 19.4297C2.9707 19.0155 3.30649 18.6797 3.7207 18.6797H21.7207C22.1349 18.6797 22.4707 19.0155 22.4707 19.4297C22.4707 19.8439 22.1349 20.1797 21.7207 20.1797H3.7207C3.30649 20.1797 2.9707 19.8439 2.9707 19.4297Z" fill="#000000" />
<path fill-rule="evenodd" clip-rule="evenodd" d="M8.98828 11.3281C9.40249 11.3281 9.73828 11.6639 9.73828 12.0781V12.0881C9.73828 12.5023 9.40249 12.8381 8.98828 12.8381C8.57407 12.8381 8.23828 12.5023 8.23828 12.0881V12.0781C8.23828 11.6639 8.57407 11.3281 8.98828 11.3281Z" fill="#000000" />
<path fill-rule="evenodd" clip-rule="evenodd" d="M8.98828 8.00391C9.40249 8.00391 9.73828 8.33969 9.73828 8.75391V8.76391C9.73828 9.17812 9.40249 9.51391 8.98828 9.51391C8.57407 9.51391 8.23828 9.17812 8.23828 8.76391V8.75391C8.23828 8.33969 8.57407 8.00391 8.98828 8.00391Z" fill="#000000" />
<path fill-rule="evenodd" clip-rule="evenodd" d="M16.7686 15.3906C17.1828 15.3906 17.5186 15.7264 17.5186 16.1406V16.1506C17.5186 16.5648 17.1828 16.9006 16.7686 16.9006C16.3543 16.9006 16.0186 16.5648 16.0186 16.1506V16.1406C16.0186 15.7264 16.3543 15.3906 16.7686 15.3906Z" fill="#000000" />
<path fill-rule="evenodd" clip-rule="evenodd" d="M16.7686 12.4375C17.1828 12.4375 17.5186 12.7733 17.5186 13.1875V13.1975C17.5186 13.6117 17.1828 13.9475 16.7686 13.9475C16.3543 13.9475 16.0186 13.6117 16.0186 13.1975V13.1875C16.0186 12.7733 16.3543 12.4375 16.7686 12.4375Z" fill="#000000" />
<path fill-rule="evenodd" clip-rule="evenodd" d="M18.8052 8.27069C20.135 8.12926 21.2954 9.17055 21.2954 10.509V19.4273C21.2954 19.8415 20.9596 20.1773 20.5454 20.1773C20.1312 20.1773 19.7954 19.8415 19.7954 19.4273V10.509C19.7954 10.0632 19.409 9.71511 18.9642 9.76225C18.9641 9.76226 18.9643 9.76224 18.9642 9.76225L13.0702 10.3937C12.6583 10.4378 12.2887 10.1397 12.2446 9.72784C12.2004 9.31598 12.4985 8.94634 12.9104 8.90221L18.8052 8.27069Z" fill="#000000" />
<path fill-rule="evenodd" clip-rule="evenodd" d="M8.98828 15.4766C9.40249 15.4766 9.73828 15.8123 9.73828 16.2266V19.4286C9.73828 19.8428 9.40249 20.1786 8.98828 20.1786C8.57407 20.1786 8.23828 19.8428 8.23828 19.4286V16.2266C8.23828 15.8123 8.57407 15.4766 8.98828 15.4766Z" fill="#000000" />
<path fill-rule="evenodd" clip-rule="evenodd" d="M4.24609 6.07071C4.24609 4.73798 5.3978 3.69779 6.72372 3.83198L11.7056 4.33689C11.7058 4.3369 11.7055 4.33687 11.7056 4.33689C12.856 4.45244 13.7303 5.42059 13.7303 6.57569V8.71464C13.7372 8.75555 13.7408 8.79758 13.7408 8.84044V19.4293C13.7408 19.8375 13.4147 20.1695 13.0089 20.1791C12.9994 20.1795 12.9899 20.1796 12.9803 20.1796C12.5661 20.1796 12.2303 19.8438 12.2303 19.4296V6.57569C12.2303 6.18974 11.9388 5.86778 11.556 5.8294L6.57268 5.32436C6.57265 5.32436 6.57271 5.32436 6.57268 5.32436C6.12978 5.27959 5.74609 5.62683 5.74609 6.07071V19.4296C5.74609 19.8438 5.41031 20.1796 4.99609 20.1796C4.58188 20.1796 4.24609 19.8438 4.24609 19.4296V6.07071Z" fill="#000000" />
</svg>