<svg width="24px"  height="24px"  viewBox="0 0 25 24" fill="none" xmlns="http://www.w3.org/2000/svg">
<path fill-rule="evenodd" clip-rule="evenodd" d="M12.1381 17.3304C12.5447 17.2512 12.9384 17.5167 13.0176 17.9233L13.0195 17.9333C13.0987 18.3398 12.8332 18.7336 12.4266 18.8127C12.02 18.8919 11.6263 18.6264 11.5472 18.2198L11.5452 18.2098C11.4661 17.8033 11.7315 17.4095 12.1381 17.3304Z" fill="#000000" />
<path fill-rule="evenodd" clip-rule="evenodd" d="M12.1381 11.9515C12.5447 11.8723 12.9384 12.1378 13.0176 12.5443L13.0195 12.5543C13.0987 12.9609 12.8332 13.3547 12.4266 13.4338C12.02 13.513 11.6263 13.2475 11.5472 12.8409L11.5452 12.8309C11.4661 12.4244 11.7315 12.0306 12.1381 11.9515Z" fill="#000000" />
<path fill-rule="evenodd" clip-rule="evenodd" d="M12.1381 14.6702C12.5447 14.5911 12.9384 14.8565 13.0176 15.2631L13.0195 15.2731C13.0987 15.6797 12.8332 16.0734 12.4266 16.1526C12.02 16.2317 11.6263 15.9663 11.5472 15.5597L11.5452 15.5497C11.4661 15.1431 11.7315 14.7493 12.1381 14.6702Z" fill="#000000" />
<path fill-rule="evenodd" clip-rule="evenodd" d="M15.9154 17.3304C16.322 17.2512 16.7158 17.5167 16.7949 17.9233L16.7969 17.9333C16.876 18.3398 16.6106 18.7336 16.204 18.8127C15.7974 18.8919 15.4036 18.6264 15.3245 18.2198L15.3226 18.2098C15.2434 17.8033 15.5089 17.4095 15.9154 17.3304Z" fill="#000000" />
<path fill-rule="evenodd" clip-rule="evenodd" d="M15.9154 11.9515C16.322 11.8723 16.7158 12.1378 16.7949 12.5443L16.7969 12.5543C16.876 12.9609 16.6106 13.3547 16.204 13.4338C15.7974 13.513 15.4036 13.2475 15.3245 12.8409L15.3226 12.8309C15.2434 12.4244 15.5089 12.0306 15.9154 11.9515Z" fill="#000000" />
<path fill-rule="evenodd" clip-rule="evenodd" d="M15.9154 14.6702C16.322 14.5911 16.7158 14.8565 16.7949 15.2631L16.7969 15.2731C16.876 15.6797 16.6106 16.0734 16.204 16.1526C15.7974 16.2317 15.4036 15.9663 15.3245 15.5597L15.3226 15.5497C15.2434 15.1431 15.5089 14.7493 15.9154 14.6702Z" fill="#000000" />
<path fill-rule="evenodd" clip-rule="evenodd" d="M3.45215 21C3.45215 20.5858 3.78793 20.25 4.20215 20.25H21.2399C21.6541 20.25 21.9899 20.5858 21.9899 21C21.9899 21.4142 21.6541 21.75 21.2399 21.75H4.20215C3.78793 21.75 3.45215 21.4142 3.45215 21Z" fill="#000000" />
<path fill-rule="evenodd" clip-rule="evenodd" d="M7.77344 11.0698C7.77344 9.56201 8.9956 8.33984 10.5034 8.33984H17.8552C19.3631 8.33984 20.5852 9.56201 20.5852 11.0698V20.9981C20.5852 21.4123 20.2494 21.7481 19.8352 21.7481C19.421 21.7481 19.0852 21.4123 19.0852 20.9981V11.0698C19.0852 10.3904 18.5346 9.83984 17.8552 9.83984H10.5034C9.82403 9.83984 9.27344 10.3904 9.27344 11.0698V20.9981C9.27344 21.4123 8.93765 21.7481 8.52344 21.7481C8.10922 21.7481 7.77344 21.4123 7.77344 20.9981V11.0698Z" fill="#000000" />
<path fill-rule="evenodd" clip-rule="evenodd" d="M8.37565 5.42546C8.78791 5.38533 9.15465 5.68701 9.19477 6.09928L9.19574 6.10928C9.23586 6.52155 8.93418 6.88828 8.52192 6.9284C8.10965 6.96852 7.74292 6.66684 7.7028 6.25458L7.70182 6.24458C7.6617 5.83231 7.96338 5.46558 8.37565 5.42546ZM11.1919 5.42546C11.6042 5.38533 11.9709 5.68701 12.0111 6.09928L12.012 6.10928C12.0522 6.52155 11.7505 6.88828 11.3382 6.9284C10.926 6.96852 10.5592 6.66684 10.5191 6.25458L10.5181 6.24458C10.478 5.83231 10.7797 5.46558 11.1919 5.42546Z" fill="#000000" />
<path fill-rule="evenodd" clip-rule="evenodd" d="M7.58644 3.75C6.9046 3.75 6.35449 4.3001 6.35449 4.98097V20.9971C6.35449 21.4113 6.01871 21.7471 5.60449 21.7471C5.19028 21.7471 4.85449 21.4113 4.85449 20.9971V4.98097C4.85449 3.47071 6.07714 2.25 7.58644 2.25H12.1983C13.7076 2.25 14.9303 3.47071 14.9303 4.98097V9.08886C14.9303 9.50308 14.5945 9.83886 14.1803 9.83886C13.7661 9.83886 13.4303 9.50308 13.4303 9.08886V4.98097C13.4303 4.3001 12.8802 3.75 12.1983 3.75H7.58644Z" fill="#000000" />
</svg>