<svg width="24px"  height="24px"  viewBox="0 0 25 24" fill="none" xmlns="http://www.w3.org/2000/svg">
<path fill-rule="evenodd" clip-rule="evenodd" d="M8.90784 5.32422V8.58964C8.90784 9.30644 8.32687 9.88742 7.61006 9.88742H6.16992V21.0008C6.16992 21.415 5.83414 21.7508 5.41992 21.7508C5.00571 21.7508 4.66992 21.415 4.66992 21.0008V9.68519C4.66992 8.96839 5.25089 8.38742 5.9677 8.38742H7.40784V5.122C7.40784 4.40519 7.98881 3.82422 8.70562 3.82422H16.7355C17.4523 3.82422 18.0333 4.40519 18.0333 5.122V8.38742H19.4734C20.1902 8.38742 20.7712 8.96839 20.7712 9.68519V21.0008C20.7712 21.415 20.4354 21.7508 20.0212 21.7508C19.607 21.7508 19.2712 21.415 19.2712 21.0008V9.88742H17.831C17.1142 9.88742 16.5333 9.30644 16.5333 8.58964V5.32422H8.90784Z" fill="#000000" />
<path fill-rule="evenodd" clip-rule="evenodd" d="M12.7188 2.25C13.133 2.25 13.4688 2.58579 13.4688 3V4.57328C13.4688 4.98749 13.133 5.32328 12.7188 5.32328C12.3045 5.32328 11.9688 4.98749 11.9688 4.57328V3C11.9688 2.58579 12.3045 2.25 12.7188 2.25Z" fill="#000000" />
<path fill-rule="evenodd" clip-rule="evenodd" d="M3.44238 21C3.44238 20.5858 3.77817 20.25 4.19238 20.25H21.2494C21.6636 20.25 21.9994 20.5858 21.9994 21C21.9994 21.4142 21.6636 21.75 21.2494 21.75H4.19238C3.77817 21.75 3.44238 21.4142 3.44238 21Z" fill="#000000" />
<path fill-rule="evenodd" clip-rule="evenodd" d="M10.4542 13.5357C10.8681 13.5206 11.2159 13.844 11.231 14.2579L11.2329 14.3114C11.248 14.7254 10.9246 15.0731 10.5106 15.0882C10.0967 15.1032 9.74894 14.7799 9.7339 14.3659L9.73195 14.3124C9.7169 13.8985 10.0403 13.5507 10.4542 13.5357ZM15.1417 13.5357C15.5557 13.5507 15.879 13.8985 15.864 14.3124L15.862 14.3659C15.847 14.7799 15.4992 15.1032 15.0853 15.0882C14.6713 15.0731 14.348 14.7254 14.363 14.3114L14.365 14.2579C14.38 13.844 14.7278 13.5206 15.1417 13.5357ZM10.4542 16.7348C10.8681 16.7198 11.2159 17.0432 11.231 17.4571L11.2329 17.5106C11.248 17.9246 10.9246 18.2723 10.5106 18.2874C10.0967 18.3024 9.74894 17.9791 9.7339 17.5651L9.73195 17.5116C9.7169 17.0977 10.0403 16.7499 10.4542 16.7348ZM15.1417 16.7348C15.5557 16.7499 15.879 17.0977 15.864 17.5116L15.862 17.5651C15.847 17.9791 15.4992 18.3024 15.0853 18.2874C14.6713 18.2723 14.348 17.9245 14.363 17.5106L14.365 17.4571C14.38 17.0432 14.7278 16.7198 15.1417 16.7348Z" fill="#000000" />
<path fill-rule="evenodd" clip-rule="evenodd" d="M12.7193 7.01172C13.1335 7.01172 13.4693 7.34751 13.4693 7.76172V8.68115H14.3889C14.8031 8.68115 15.1389 9.01693 15.1389 9.43115C15.1389 9.84536 14.8031 10.1811 14.3889 10.1811H13.4693V11.1008C13.4693 11.515 13.1335 11.8508 12.7193 11.8508C12.305 11.8508 11.9693 11.515 11.9693 11.1008V10.1811H11.0508C10.6366 10.1811 10.3008 9.84536 10.3008 9.43115C10.3008 9.01693 10.6366 8.68115 11.0508 8.68115H11.9693V7.76172C11.9693 7.34751 12.305 7.01172 12.7193 7.01172Z" fill="#000000" />
</svg>