<svg width="24px"  height="24px"  viewBox="0 0 25 24" fill="none" xmlns="http://www.w3.org/2000/svg">
<path fill-rule="evenodd" clip-rule="evenodd" d="M4.16211 5.77153C4.16211 4.34056 5.32298 3.17969 6.75395 3.17969H15.2908C16.7218 3.17969 17.8827 4.34055 17.8827 5.77153V20.0694C17.8827 20.4836 17.5469 20.8194 17.1327 20.8194C16.7184 20.8194 16.3827 20.4836 16.3827 20.0694V5.77153C16.3827 5.16898 15.8934 4.67969 15.2908 4.67969H6.75395C6.1514 4.67969 5.66211 5.16898 5.66211 5.77153V20.0694C5.66211 20.4836 5.32632 20.8194 4.91211 20.8194C4.4979 20.8194 4.16211 20.4836 4.16211 20.0694V5.77153ZM8.73104 13.1426C9.14496 13.127 9.49317 13.4499 9.50879 13.8638L9.51073 13.9154C9.52635 14.3293 9.20347 14.6775 8.78955 14.6931C8.37563 14.7087 8.02742 14.3858 8.0118 13.9719L8.00985 13.9204C7.99423 13.5064 8.31712 13.1582 8.73104 13.1426ZM13.1626 13.1426C13.5765 13.127 13.9247 13.4499 13.9404 13.8638L13.9423 13.9153C13.958 14.3293 13.6351 14.6775 13.2212 14.6931C12.8072 14.7087 12.459 14.3859 12.4434 13.9719L12.4414 13.9204C12.4258 13.5065 12.7487 13.1582 13.1626 13.1426ZM8.73104 16.2734C9.14496 16.2578 9.49317 16.5807 9.50879 16.9946L9.51073 17.0462C9.52635 17.4601 9.20347 17.8083 8.78955 17.8239C8.37563 17.8395 8.02742 17.5167 8.0118 17.1027L8.00985 17.0512C7.99423 16.6372 8.31712 16.289 8.73104 16.2734ZM13.1626 16.2734C13.5765 16.2578 13.9247 16.5807 13.9404 16.9946L13.9423 17.0461C13.958 17.4601 13.6351 17.8083 13.2212 17.8239C12.8072 17.8396 12.459 17.5167 12.4434 17.1028L12.4414 17.0512C12.4258 16.6373 12.7487 16.2891 13.1626 16.2734Z" fill="#000000" />
<path fill-rule="evenodd" clip-rule="evenodd" d="M2.9707 20.0703C2.9707 19.6561 3.30649 19.3203 3.7207 19.3203H21.7207C22.1349 19.3203 22.4707 19.6561 22.4707 20.0703C22.4707 20.4845 22.1349 20.8203 21.7207 20.8203H3.7207C3.30649 20.8203 2.9707 20.4845 2.9707 20.0703Z" fill="#000000" />
<path fill-rule="evenodd" clip-rule="evenodd" d="M16.3828 7.90234C16.3828 7.48813 16.7186 7.15234 17.1328 7.15234H18.8443C20.0252 7.15234 20.9827 8.10986 20.9827 9.29078V20.0703C20.9827 20.4846 20.6469 20.8203 20.2327 20.8203C19.8185 20.8203 19.4827 20.4846 19.4827 20.0703V9.29078C19.4827 8.93829 19.1968 8.65234 18.8443 8.65234H17.1328C16.7186 8.65234 16.3828 8.31656 16.3828 7.90234Z" fill="#000000" />
<path fill-rule="evenodd" clip-rule="evenodd" d="M11.0242 6.375C11.4384 6.375 11.7742 6.71079 11.7742 7.125V7.92948H12.579C12.9932 7.92948 13.329 8.26526 13.329 8.67948C13.329 9.09369 12.9932 9.42948 12.579 9.42948H11.7742V10.2343C11.7742 10.6485 11.4384 10.9843 11.0242 10.9843C10.6099 10.9843 10.2742 10.6485 10.2742 10.2343V9.42948H9.46777C9.05356 9.42948 8.71777 9.09369 8.71777 8.67948C8.71777 8.26526 9.05356 7.92948 9.46777 7.92948H10.2742V7.125C10.2742 6.71079 10.6099 6.375 11.0242 6.375Z" fill="#000000" />
</svg>