<svg width="24px"  height="24px"  viewBox="0 0 25 24" fill="none" xmlns="http://www.w3.org/2000/svg">
<path fill-rule="evenodd" clip-rule="evenodd" d="M14.6387 15.471C15.0452 15.3918 15.439 15.6572 15.5182 16.0638L15.5201 16.0738C15.5993 16.4804 15.3339 16.8742 14.9273 16.9533C14.5208 17.0325 14.127 16.7671 14.0478 16.3605L14.0459 16.3505C13.9667 15.944 14.2321 15.5502 14.6387 15.471ZM10.5131 15.471C10.9197 15.3919 11.3135 15.6573 11.3926 16.0639L11.3945 16.0739C11.4736 16.4805 11.2082 16.8742 10.8016 16.9534C10.395 17.0325 10.0013 16.767 9.92215 16.3604L9.9202 16.3504C9.84108 15.9438 10.1065 15.5501 10.5131 15.471Z" fill="#000000" />
<path fill-rule="evenodd" clip-rule="evenodd" d="M14.6387 11.5648C15.0452 11.4856 15.439 11.751 15.5182 12.1576L15.5201 12.1676C15.5993 12.5741 15.3339 12.9679 14.9273 13.0471C14.5208 13.1263 14.127 12.8609 14.0478 12.4543L14.0459 12.4443C13.9667 12.0377 14.2321 11.6439 14.6387 11.5648ZM10.5131 11.5647C10.9197 11.4856 11.3135 11.7511 11.3926 12.1577L11.3945 12.1677C11.4736 12.5742 11.2082 12.968 10.8016 13.0471C10.395 13.1262 10.0013 12.8608 9.92215 12.4542L9.9202 12.4442C9.84108 12.0376 10.1065 11.6439 10.5131 11.5647Z" fill="#000000" />
<path fill-rule="evenodd" clip-rule="evenodd" d="M14.6387 7.56866C15.0452 7.48948 15.439 7.75489 15.5182 8.16147L15.5201 8.17147C15.5993 8.57804 15.3339 8.97182 14.9273 9.051C14.5208 9.13018 14.127 8.86477 14.0478 8.45819L14.0459 8.44819C13.9667 8.04161 14.2321 7.64783 14.6387 7.56866ZM10.5131 7.56864C10.9197 7.48952 11.3135 7.75498 11.3926 8.16157L11.3945 8.17157C11.4736 8.57815 11.2082 8.9719 10.8016 9.05102C10.395 9.13014 10.0013 8.86468 9.92215 8.45809L9.9202 8.44809C9.84108 8.0415 10.1065 7.64776 10.5131 7.56864Z" fill="#000000" />
<path fill-rule="evenodd" clip-rule="evenodd" d="M3.375 21C3.375 20.5858 3.71079 20.25 4.125 20.25H21.3155C21.7297 20.25 22.0655 20.5858 22.0655 21C22.0655 21.4142 21.7297 21.75 21.3155 21.75H4.125C3.71079 21.75 3.375 21.4142 3.375 21Z" fill="#000000" />
<path fill-rule="evenodd" clip-rule="evenodd" d="M4.77734 5.16778C4.77734 3.55659 6.08438 2.25 7.6961 2.25H17.745C19.3567 2.25 20.6637 3.55659 20.6637 5.16778V21C20.6637 21.4142 20.3279 21.75 19.9137 21.75C19.4995 21.75 19.1637 21.4142 19.1637 21V5.16778C19.1637 4.38546 18.5287 3.75 17.745 3.75H7.6961C6.91237 3.75 6.27734 4.38546 6.27734 5.16778V21C6.27734 21.4142 5.94156 21.75 5.52734 21.75C5.11313 21.75 4.77734 21.4142 4.77734 21V5.16778Z" fill="#000000" />
</svg>