<svg width="24px"  height="24px"  viewBox="0 0 25 24" fill="none" xmlns="http://www.w3.org/2000/svg">
<path fill-rule="evenodd" clip-rule="evenodd" d="M11.0521 3.75C10.7303 3.75 10.4701 4.011 10.4701 4.33103V5.89654C10.4701 6.31075 10.1343 6.64654 9.72005 6.64654H5.05173C4.73073 6.64654 4.4707 6.90683 4.4707 7.22757V19.669C4.4707 19.9903 4.73038 20.25 5.05173 20.25H14.9704V4.33103C14.9704 4.01065 14.7097 3.75 14.3894 3.75H11.0521ZM5.05173 21.75C3.90195 21.75 2.9707 20.8188 2.9707 19.669V7.22757C2.9707 6.07912 3.90159 5.14654 5.05173 5.14654H8.97005V4.33103C8.97005 3.18186 9.90263 2.25 11.0521 2.25H14.3894C15.5382 2.25 16.4704 3.18222 16.4704 4.33103V8.25032H20.3887C21.5381 8.25032 22.4707 9.18219 22.4707 10.3314V19.669C22.4707 20.8195 21.5378 21.75 20.3887 21.75H5.05173ZM16.4704 9.75032H20.3887C20.7104 9.75032 20.9707 10.0113 20.9707 10.3314V19.669C20.9707 19.9896 20.7108 20.25 20.3887 20.25H16.4704V9.75032Z" fill="#000000" />
<path fill-rule="evenodd" clip-rule="evenodd" d="M7.57467 16.2132C7.98126 16.1341 8.375 16.3995 8.45411 16.8061L8.45605 16.8161C8.53516 17.2227 8.26969 17.6164 7.8631 17.6956C7.45651 17.7747 7.06278 17.5092 6.98367 17.1026L6.98172 17.0926C6.90261 16.686 7.16808 16.2923 7.57467 16.2132Z" fill="#000000" />
<path fill-rule="evenodd" clip-rule="evenodd" d="M7.57467 8.95926C7.98126 8.88015 8.375 9.14562 8.45411 9.55221L8.45605 9.56221C8.53516 9.9688 8.26969 10.3625 7.8631 10.4416C7.45651 10.5208 7.06278 10.2553 6.98367 9.8487L6.98172 9.8387C6.90261 9.43211 7.16808 9.03837 7.57467 8.95926Z" fill="#000000" />
<path fill-rule="evenodd" clip-rule="evenodd" d="M7.57467 12.6272C7.98126 12.5481 8.375 12.8136 8.45411 13.2202L8.45605 13.2302C8.53516 13.6368 8.26969 14.0305 7.8631 14.1096C7.45651 14.1887 7.06278 13.9233 6.98367 13.5167L6.98172 13.5067C6.90261 13.1001 7.16808 12.7063 7.57467 12.6272Z" fill="#000000" />
<path fill-rule="evenodd" clip-rule="evenodd" d="M11.5765 16.2132C11.9831 16.134 12.3769 16.3995 12.456 16.806L12.458 16.816C12.5371 17.2226 12.2717 17.6164 11.8651 17.6955C11.4586 17.7747 11.0648 17.5093 10.9856 17.1027L10.9837 17.0927C10.9045 16.6861 11.17 16.2923 11.5765 16.2132Z" fill="#000000" />
<path fill-rule="evenodd" clip-rule="evenodd" d="M11.5765 8.95928C11.9831 8.88012 12.3769 9.14555 12.456 9.55212L12.458 9.56212C12.5371 9.9687 12.2717 10.3625 11.8651 10.4416C11.4586 10.5208 11.0648 10.2554 10.9856 9.84878L10.9837 9.83878C10.9045 9.4322 11.17 9.03843 11.5765 8.95928Z" fill="#000000" />
<path fill-rule="evenodd" clip-rule="evenodd" d="M11.5765 12.6272C11.9831 12.5481 12.3769 12.8135 12.456 13.2201L12.458 13.2301C12.5371 13.6367 12.2717 14.0304 11.8651 14.1096C11.4586 14.1888 11.0648 13.9233 10.9856 13.5168L10.9837 13.5068C10.9045 13.1002 11.17 12.7064 11.5765 12.6272Z" fill="#000000" />
<path fill-rule="evenodd" clip-rule="evenodd" d="M18.5717 16.2132C18.9783 16.134 19.372 16.3995 19.4512 16.8061L19.4531 16.8161C19.5323 17.2226 19.2668 17.6164 18.8602 17.6955C18.4536 17.7747 18.0599 17.5092 17.9807 17.1027L17.9788 17.0927C17.8997 16.6861 18.1651 16.2923 18.5717 16.2132Z" fill="#000000" />
<path fill-rule="evenodd" clip-rule="evenodd" d="M18.5717 12.6272C18.9783 12.5481 19.372 12.8135 19.4512 13.2201L19.4531 13.2301C19.5323 13.6367 19.2668 14.0305 18.8602 14.1096C18.4536 14.1887 18.0599 13.9233 17.9807 13.5167L17.9788 13.5067C17.8997 13.1001 18.1651 12.7064 18.5717 12.6272Z" fill="#000000" />
</svg>