<svg width="24px"  height="24px"  viewBox="0 0 25 24" fill="none" xmlns="http://www.w3.org/2000/svg">
<path fill-rule="evenodd" clip-rule="evenodd" d="M2.9707 19.5078C2.9707 19.0936 3.30649 18.7578 3.7207 18.7578H21.7207C22.1349 18.7578 22.4707 19.0936 22.4707 19.5078C22.4707 19.922 22.1349 20.2578 21.7207 20.2578H3.7207C3.30649 20.2578 2.9707 19.922 2.9707 19.5078Z" fill="#000000" />
<path fill-rule="evenodd" clip-rule="evenodd" d="M7.80664 8.92188C7.80664 8.50766 8.14243 8.17188 8.55664 8.17188H9.42064C9.83485 8.17188 10.1706 8.50766 10.1706 8.92188C10.1706 9.33609 9.83485 9.67188 9.42064 9.67188H8.55664C8.14243 9.67188 7.80664 9.33609 7.80664 8.92188ZM7.80664 12.2446C7.80664 11.8304 8.14243 11.4946 8.55664 11.4946H9.42064C9.83485 11.4946 10.1706 11.8304 10.1706 12.2446C10.1706 12.6588 9.83485 12.9946 9.42064 12.9946H8.55664C8.14243 12.9946 7.80664 12.6588 7.80664 12.2446ZM7.80664 15.5674C7.80664 15.1531 8.14243 14.8174 8.55664 14.8174H9.42064C9.83485 14.8174 10.1706 15.1531 10.1706 15.5674C10.1706 15.9816 9.83485 16.3174 9.42064 16.3174H8.55664C8.14243 16.3174 7.80664 15.9816 7.80664 15.5674Z" fill="#000000" />
<path fill-rule="evenodd" clip-rule="evenodd" d="M15.7461 13.3516C15.7461 12.9373 16.0819 12.6016 16.4961 12.6016H17.3601C17.7743 12.6016 18.1101 12.9373 18.1101 13.3516C18.1101 13.7658 17.7743 14.1016 17.3601 14.1016H16.4961C16.0819 14.1016 15.7461 13.7658 15.7461 13.3516ZM15.7461 16.6743C15.7461 16.2601 16.0819 15.9243 16.4961 15.9243H17.3601C17.7743 15.9243 18.1101 16.2601 18.1101 16.6743C18.1101 17.0885 17.7743 17.4243 17.3601 17.4243H16.4961C16.0819 17.4243 15.7461 17.0885 15.7461 16.6743Z" fill="#000000" />
<path fill-rule="evenodd" clip-rule="evenodd" d="M4.24609 6.37003C4.24609 4.91862 5.42253 3.74219 6.87393 3.74219H11.1025C12.5539 3.74219 13.7303 4.91862 13.7303 6.37003V19.511C13.7303 19.9252 13.3945 20.261 12.9803 20.261C12.5661 20.261 12.2303 19.9252 12.2303 19.511V6.37003C12.2303 5.74705 11.7254 5.24219 11.1025 5.24219H6.87393C6.25096 5.24219 5.74609 5.74705 5.74609 6.37003V19.511C5.74609 19.9252 5.41031 20.261 4.99609 20.261C4.58188 20.261 4.24609 19.9252 4.24609 19.511V6.37003Z" fill="#000000" />
<path fill-rule="evenodd" clip-rule="evenodd" d="M12.2305 10.3047C12.2305 9.89047 12.5663 9.55469 12.9805 9.55469H18.6578C20.1092 9.55469 21.2856 10.7311 21.2856 12.1825V19.509C21.2856 19.9232 20.9498 20.259 20.5356 20.259C20.1214 20.259 19.7856 19.9232 19.7856 19.509V12.1825C19.7856 11.5595 19.2807 11.0547 18.6578 11.0547H13.7305V19.509C13.7305 19.9232 13.3947 20.259 12.9805 20.259C12.5663 20.259 12.2305 19.9232 12.2305 19.509V10.3047Z" fill="#000000" />
</svg>