<svg width="24px"  height="24px"  viewBox="0 0 25 24" fill="none" xmlns="http://www.w3.org/2000/svg">
<path fill-rule="evenodd" clip-rule="evenodd" d="M4.7793 5.16773C4.7793 3.5556 6.0863 2.25 7.69702 2.25H17.7466C19.3573 2.25 20.6643 3.5556 20.6643 5.16773V20.9976C20.6643 21.4118 20.3285 21.7476 19.9143 21.7476C19.5001 21.7476 19.1643 21.4118 19.1643 20.9976V5.16773C19.1643 4.38446 18.5293 3.75 17.7466 3.75H7.69702C6.91429 3.75 6.2793 4.38446 6.2793 5.16773V20.9976C6.2793 21.4118 5.94351 21.7476 5.5293 21.7476C5.11508 21.7476 4.7793 21.4118 4.7793 20.9976V5.16773Z" fill="#000000" />
<path fill-rule="evenodd" clip-rule="evenodd" d="M9.21387 7.87109C9.21387 7.45688 9.54965 7.12109 9.96387 7.12109H11.0001C11.4143 7.12109 11.7501 7.45688 11.7501 7.87109C11.7501 8.28531 11.4143 8.62109 11.0001 8.62109H9.96387C9.54965 8.62109 9.21387 8.28531 9.21387 7.87109ZM13.6909 7.87109C13.6909 7.45688 14.0267 7.12109 14.4409 7.12109H15.4771C15.8914 7.12109 16.2271 7.45688 16.2271 7.87109C16.2271 8.28531 15.8914 8.62109 15.4771 8.62109H14.4409C14.0267 8.62109 13.6909 8.28531 13.6909 7.87109ZM9.21387 11.4455C9.21387 11.0313 9.54965 10.6955 9.96387 10.6955H11.0001C11.4143 10.6955 11.7501 11.0313 11.7501 11.4455C11.7501 11.8597 11.4143 12.1955 11.0001 12.1955H9.96387C9.54965 12.1955 9.21387 11.8597 9.21387 11.4455ZM13.6909 11.4455C13.6909 11.0313 14.0267 10.6955 14.4409 10.6955H15.4771C15.8914 10.6955 16.2271 11.0313 16.2271 11.4455C16.2271 11.8597 15.8914 12.1955 15.4771 12.1955H14.4409C14.0267 12.1955 13.6909 11.8597 13.6909 11.4455Z" fill="#000000" />
<path fill-rule="evenodd" clip-rule="evenodd" d="M11.4647 16.5391C11.2874 16.5391 11.1348 16.6839 11.1348 16.8788V20.9982C11.1348 21.4124 10.799 21.7482 10.3848 21.7482C9.97055 21.7482 9.63477 21.4124 9.63477 20.9982V16.8788C9.63477 15.873 10.4415 15.0391 11.4647 15.0391H13.9847C14.9924 15.0391 15.8146 15.8682 15.8146 16.8788V20.9982C15.8146 21.4124 15.4789 21.7482 15.0646 21.7482C14.6504 21.7482 14.3146 21.4124 14.3146 20.9982V16.8788C14.3146 16.6887 14.1561 16.5391 13.9847 16.5391H11.4647Z" fill="#000000" />
<path fill-rule="evenodd" clip-rule="evenodd" d="M3.37695 20.9961C3.37695 20.5819 3.71274 20.2461 4.12695 20.2461H21.315C21.7293 20.2461 22.065 20.5819 22.065 20.9961C22.065 21.4103 21.7293 21.7461 21.315 21.7461H4.12695C3.71274 21.7461 3.37695 21.4103 3.37695 20.9961Z" fill="#000000" />
</svg>