<svg width="24px"  height="24px"  viewBox="0 0 25 24" fill="none" xmlns="http://www.w3.org/2000/svg">
<path fill-rule="evenodd" clip-rule="evenodd" d="M4.35938 5.24013C4.35938 3.64128 5.65504 2.34375 7.25478 2.34375H18.1891C19.7888 2.34375 21.0845 3.64128 21.0845 5.24013V20.906C21.0845 21.3202 20.7487 21.656 20.3345 21.656C19.9202 21.656 19.5845 21.3202 19.5845 20.906V5.24013C19.5845 4.46882 18.9595 3.84375 18.1891 3.84375H7.25478C6.48436 3.84375 5.85938 4.46882 5.85938 5.24013V20.906C5.85938 21.3202 5.52359 21.656 5.10938 21.656C4.69516 21.656 4.35938 21.3202 4.35938 20.906V5.24013Z" fill="#000000" />
<path fill-rule="evenodd" clip-rule="evenodd" d="M2.9707 20.9062C2.9707 20.492 3.30649 20.1562 3.7207 20.1562H21.7207C22.1349 20.1562 22.4707 20.492 22.4707 20.9062C22.4707 21.3205 22.1349 21.6562 21.7207 21.6562H3.7207C3.30649 21.6562 2.9707 21.3205 2.9707 20.9062Z" fill="#000000" />
<path fill-rule="evenodd" clip-rule="evenodd" d="M11.4746 15.2383C11.2977 15.2383 11.1543 15.3816 11.1543 15.5586V20.907C11.1543 21.3212 10.8185 21.657 10.4043 21.657C9.99008 21.657 9.6543 21.3212 9.6543 20.907V15.5586C9.6543 14.5523 10.4702 13.7383 11.4746 13.7383H13.9664C14.9712 13.7383 15.7876 14.5519 15.7876 15.5586V20.907C15.7876 21.3212 15.4518 21.657 15.0376 21.657C14.6234 21.657 14.2876 21.3212 14.2876 20.907V15.5586C14.2876 15.3821 14.1446 15.2383 13.9664 15.2383H11.4746Z" fill="#000000" />
<path fill-rule="evenodd" clip-rule="evenodd" d="M9.46387 8.59268C9.46387 8.07359 9.88459 7.65234 10.4042 7.65234C10.9231 7.65234 11.3446 8.07299 11.3446 8.59268C11.3446 9.11238 10.9231 9.53303 10.4042 9.53303C9.88458 9.53303 9.46387 9.11178 9.46387 8.59268Z" fill="#000000" />
<path fill-rule="evenodd" clip-rule="evenodd" d="M14.0967 8.59268C14.0967 8.07359 14.5174 7.65234 15.037 7.65234C15.556 7.65234 15.9774 8.07299 15.9774 8.59268C15.9774 9.11238 15.556 9.53303 15.037 9.53303C14.5174 9.53303 14.0967 9.11178 14.0967 8.59268Z" fill="#000000" />
</svg>