<svg width="24px"  height="24px"  viewBox="0 0 25 24" fill="none" xmlns="http://www.w3.org/2000/svg">
<path fill-rule="evenodd" clip-rule="evenodd" d="M5.24957 10.9492C5.01636 10.9492 4.82812 11.1383 4.82812 11.3697V20.2501H20.6138V11.3697C20.6138 11.1375 20.4257 10.9492 20.1933 10.9492H18.4848C18.0706 10.9492 17.7348 10.6134 17.7348 10.1992C17.7348 9.78501 18.0706 9.44922 18.4848 9.44922H20.1933C21.2549 9.44922 22.1138 10.3098 22.1138 11.3697V21.0001C22.1138 21.4143 21.778 21.7501 21.3638 21.7501H4.07812C3.66391 21.7501 3.32812 21.4143 3.32812 21.0001V11.3697C3.32812 10.309 4.18874 9.44922 5.24957 9.44922H6.95809C7.37231 9.44922 7.70809 9.78501 7.70809 10.1992C7.70809 10.6134 7.37231 10.9492 6.95809 10.9492H5.24957Z" fill="#000000" />
<path fill-rule="evenodd" clip-rule="evenodd" d="M6.20898 7.26938C6.20898 5.95868 7.27099 4.89453 8.58286 4.89453H16.8608C18.1734 4.89453 19.2357 5.95839 19.2357 7.26938V20.9989C19.2357 21.4131 18.8999 21.7489 18.4857 21.7489C18.0715 21.7489 17.7357 21.4131 17.7357 20.9989V7.26938C17.7357 6.78623 17.3444 6.39453 16.8608 6.39453H8.58286C8.10059 6.39453 7.70898 6.78594 7.70898 7.26938V20.9989C7.70898 21.4131 7.3732 21.7489 6.95898 21.7489C6.54477 21.7489 6.20898 21.4131 6.20898 20.9989V7.26938Z" fill="#000000" />
<path fill-rule="evenodd" clip-rule="evenodd" d="M11.6734 16.3516C11.59 16.3516 11.5225 16.419 11.5225 16.5025V21.0015C11.5225 21.4157 11.1867 21.7515 10.7725 21.7515C10.3582 21.7515 10.0225 21.4157 10.0225 21.0015V16.5025C10.0225 15.5917 10.7605 14.8516 11.6734 14.8516H13.7692C14.6806 14.8516 15.4201 15.5911 15.4201 16.5025V21.0015C15.4201 21.4157 15.0844 21.7515 14.6701 21.7515C14.2559 21.7515 13.9201 21.4157 13.9201 21.0015V16.5025C13.9201 16.4196 13.8522 16.3516 13.7692 16.3516H11.6734Z" fill="#000000" />
<path fill-rule="evenodd" clip-rule="evenodd" d="M12.7205 8.35938C13.1347 8.35938 13.4705 8.69516 13.4705 9.10938V9.87868H14.2407C14.6549 9.87868 14.9907 10.2145 14.9907 10.6287C14.9907 11.0429 14.6549 11.3787 14.2407 11.3787H13.4705V12.1479C13.4705 12.5622 13.1347 12.8979 12.7205 12.8979C12.3063 12.8979 11.9705 12.5622 11.9705 12.1479V11.3787H11.2021C10.7879 11.3787 10.4521 11.0429 10.4521 10.6287C10.4521 10.2145 10.7879 9.87868 11.2021 9.87868H11.9705V9.10938C11.9705 8.69516 12.3063 8.35938 12.7205 8.35938Z" fill="#000000" />
<path fill-rule="evenodd" clip-rule="evenodd" d="M10.2373 3C10.2373 2.58579 10.5731 2.25 10.9873 2.25H14.4559C14.8701 2.25 15.2059 2.58579 15.2059 3C15.2059 3.41421 14.8701 3.75 14.4559 3.75H10.9873C10.5731 3.75 10.2373 3.41421 10.2373 3Z" fill="#000000" />
</svg>