<svg width="24px"  height="24px"  viewBox="0 0 25 24" fill="none" xmlns="http://www.w3.org/2000/svg">
<path fill-rule="evenodd" clip-rule="evenodd" d="M5.6799 3.75C4.81996 3.75 4.12207 4.44804 4.12207 5.3088V7.87932C4.12207 9.09965 5.11144 10.089 6.33177 10.089C7.55097 10.089 8.5405 9.09981 8.5405 7.87932C8.5405 7.46511 8.87629 7.12932 9.2905 7.12932C9.70471 7.12932 10.0405 7.46511 10.0405 7.87932C10.0405 9.92792 8.37972 11.589 6.33177 11.589C4.28301 11.589 2.62207 9.92808 2.62207 7.87932V5.3088C2.62207 3.62044 3.99072 2.25 5.6799 2.25H18.8195C20.5087 2.25 21.8773 3.62044 21.8773 5.3088V7.87932C21.8773 9.92808 20.2164 11.589 18.1677 11.589C16.1197 11.589 14.4589 9.92792 14.4589 7.87932V6.95405C14.4589 6.53984 14.7947 6.20405 15.2089 6.20405C15.6231 6.20405 15.9589 6.53984 15.9589 6.95405V7.87932C15.9589 9.09981 16.9484 10.089 18.1677 10.089C19.388 10.089 20.3773 9.09965 20.3773 7.87932V5.3088C20.3773 4.44804 19.6795 3.75 18.8195 3.75H5.6799Z" fill="#000000" />
<path fill-rule="evenodd" clip-rule="evenodd" d="M20.1948 9.37891C20.6091 9.37891 20.9448 9.71469 20.9448 10.1289V18.1255L20.9448 18.1297C20.9338 20.1392 19.2951 21.7585 17.2867 21.7486H7.21172C5.20274 21.7574 3.56548 20.1355 3.55568 18.1263L3.55566 18.1226L3.55567 10.1367C3.55567 9.72248 3.89146 9.38669 4.30567 9.38669C4.71989 9.38669 5.05567 9.72248 5.05567 10.1367V18.1207C5.06235 19.3013 6.0254 20.2544 7.20626 20.2487L7.20992 20.2486L17.2928 20.2486C18.474 20.2551 19.4373 19.3034 19.4448 18.1234V10.1289C19.4448 9.71469 19.7806 9.37891 20.1948 9.37891Z" fill="#000000" />
<path fill-rule="evenodd" clip-rule="evenodd" d="M12.2507 15.2031C11.1664 15.2031 10.2871 16.0817 10.2871 17.1667V21.002C10.2871 21.4162 9.95132 21.752 9.53711 21.752C9.1229 21.752 8.78711 21.4162 8.78711 21.002V17.1667C8.78711 15.253 10.3383 13.7031 12.2507 13.7031C14.1638 13.7031 15.7152 15.2528 15.7152 17.1667V21.002C15.7152 21.4162 15.3794 21.752 14.9652 21.752C14.551 21.752 14.2152 21.4162 14.2152 21.002V17.1667C14.2152 16.0819 13.3361 15.2031 12.2507 15.2031Z" fill="#000000" />
<path fill-rule="evenodd" clip-rule="evenodd" d="M9.29102 6.20312C9.70523 6.20312 10.041 6.53891 10.041 6.95312V7.8784C10.041 9.09873 11.0304 10.0881 12.2507 10.0881C13.4699 10.0881 14.4594 9.09889 14.4594 7.8784C14.4594 7.46418 14.7952 7.1284 15.2094 7.1284C15.6237 7.1284 15.9594 7.46418 15.9594 7.8784C15.9594 9.927 14.2987 11.5881 12.2507 11.5881C10.202 11.5881 8.54102 9.92716 8.54102 7.8784V6.95312C8.54102 6.53891 8.8768 6.20312 9.29102 6.20312Z" fill="#000000" />
</svg>