<svg width="24px"  height="24px"  viewBox="0 0 25 24" fill="none" xmlns="http://www.w3.org/2000/svg">
<path d="M18.6105 11.5568C17.6309 11.5439 16.695 11.149 16.0022 10.4562C15.3094 9.7634 14.9145 8.82751 14.9015 7.84785C14.9015 7.64893 14.9805 7.45817 15.1212 7.31752C15.2619 7.17687 15.4526 7.09785 15.6515 7.09785C15.8504 7.09785 16.0412 7.17687 16.1819 7.31752C16.3225 7.45817 16.4015 7.64893 16.4015 7.84785C16.4093 8.43129 16.6445 8.98866 17.0571 9.40126C17.4697 9.81385 18.0271 10.0491 18.6105 10.0568C18.9523 10.048 19.2885 9.96868 19.5982 9.82398C19.9079 9.67928 20.1844 9.47226 20.4105 9.21585C20.5675 9.04852 20.6864 8.84913 20.7589 8.63143C20.8314 8.41373 20.8558 8.1829 20.8305 7.95485C20.6085 6.41285 20.2525 4.81685 20.2495 4.80085C20.1524 4.4633 19.9403 4.17035 19.6499 3.97274C19.3595 3.77513 19.0092 3.68532 18.6595 3.71885H6.75052C6.42752 3.71885 5.36053 3.79585 5.16353 4.78385C5.15653 4.81685 4.80053 6.41285 4.57853 7.95485C4.55319 8.18314 4.57772 8.41421 4.6504 8.63209C4.72309 8.84998 4.8422 9.04949 4.99952 9.21685C5.22566 9.47312 5.50223 9.67999 5.81195 9.82452C6.12166 9.96906 6.45786 10.0481 6.79953 10.0568C7.38297 10.0491 7.94034 9.81385 8.35293 9.40126C8.76553 8.98866 9.00076 8.43129 9.00853 7.84785C9.00853 7.64893 9.08754 7.45817 9.22819 7.31752C9.36884 7.17687 9.55961 7.09785 9.75853 7.09785C9.95744 7.09785 10.1482 7.17687 10.2889 7.31752C10.4295 7.45817 10.5085 7.64893 10.5085 7.84785C10.4956 8.82751 10.1007 9.7634 9.40787 10.4562C8.71509 11.149 7.77919 11.5439 6.79953 11.5568C6.24327 11.547 5.69521 11.421 5.19048 11.1869C4.68575 10.9529 4.23548 10.616 3.86853 10.1978C3.56911 9.86881 3.34509 9.47841 3.2121 9.05388C3.07911 8.62934 3.04035 8.18091 3.09852 7.73985C3.32852 6.13985 3.68453 4.53984 3.69853 4.47384C3.85061 3.80053 4.23788 3.20356 4.79071 2.79021C5.34355 2.37687 6.02569 2.17427 6.71453 2.21885H18.6565C19.354 2.16735 20.0467 2.36858 20.608 2.78575C21.1693 3.20292 21.5617 3.80817 21.7135 4.49085C21.7255 4.54085 22.0815 6.14085 22.3135 7.74085C22.3715 8.18175 22.3327 8.62999 22.1997 9.05434C22.0667 9.47869 21.8428 9.86892 21.5435 10.1978C21.1763 10.6163 20.7257 10.9533 20.2207 11.1873C19.7156 11.4214 19.1671 11.5472 18.6105 11.5568Z" fill="#000000" />
<path d="M17.7618 21.7177H7.64677C6.68524 21.7156 5.76348 21.3336 5.08227 20.655C4.40105 19.9764 4.01557 19.0562 4.00977 18.0947V10.1057C4.00977 9.90675 4.08878 9.71598 4.22943 9.57533C4.37008 9.43467 4.56085 9.35566 4.75977 9.35566C4.95868 9.35566 5.14944 9.43467 5.29009 9.57533C5.43074 9.71598 5.50977 9.90675 5.50977 10.1057V18.0917C5.51425 18.6567 5.74173 19.1971 6.1427 19.5953C6.54367 19.9935 7.08569 20.2171 7.65076 20.2177H17.7438C18.0259 20.2225 18.306 20.1703 18.5674 20.0641C18.8288 19.9579 19.066 19.7999 19.2648 19.5997C19.4653 19.4027 19.6246 19.1679 19.7337 18.9089C19.8427 18.6498 19.8991 18.3717 19.8998 18.0907V10.0977C19.8998 9.89874 19.9788 9.70798 20.1194 9.56733C20.2601 9.42668 20.4509 9.34766 20.6498 9.34766C20.8487 9.34766 21.0394 9.42668 21.1801 9.56733C21.3207 9.70798 21.3998 9.89874 21.3998 10.0977V18.0977C21.3958 19.06 21.0108 19.9816 20.329 20.6608C19.6472 21.3399 18.7241 21.7214 17.7618 21.7217V21.7177Z" fill="#000000" />
<path d="M15.0486 18.991C14.8497 18.991 14.6589 18.912 14.5182 18.7714C14.3776 18.6307 14.2986 18.44 14.2986 18.241V17.041C14.3119 16.8231 14.2805 16.6047 14.2063 16.3993C14.1321 16.194 14.0167 16.006 13.867 15.8469C13.7174 15.6878 13.5369 15.5611 13.3364 15.4744C13.136 15.3878 12.9199 15.3431 12.7016 15.3431C12.4832 15.3431 12.2671 15.3878 12.0667 15.4744C11.8663 15.5611 11.6857 15.6878 11.5361 15.8469C11.3865 16.006 11.271 16.194 11.1968 16.3993C11.1226 16.6047 11.0912 16.8231 11.1046 17.041V18.241C11.1046 18.44 11.0255 18.6307 10.8849 18.7714C10.7442 18.912 10.5535 18.991 10.3546 18.991C10.1557 18.991 9.96488 18.912 9.82423 18.7714C9.68358 18.6307 9.60456 18.44 9.60456 18.241V17.041C9.58615 16.6229 9.65261 16.2053 9.79995 15.8135C9.94729 15.4217 10.1724 15.0638 10.4618 14.7614C10.7512 14.459 11.0989 14.2183 11.4838 14.0539C11.8687 13.8895 12.283 13.8047 12.7016 13.8047C13.1201 13.8047 13.5344 13.8895 13.9193 14.0539C14.3042 14.2183 14.6519 14.459 14.9413 14.7614C15.2307 15.0638 15.4558 15.4217 15.6032 15.8135C15.7505 16.2053 15.817 16.6229 15.7986 17.041V18.241C15.7986 18.44 15.7195 18.6307 15.5789 18.7714C15.4382 18.912 15.2475 18.991 15.0486 18.991Z" fill="#000000" />
<path d="M17.6543 14.3437C17.5561 14.3443 17.4587 14.3254 17.3678 14.2882C17.2769 14.251 17.1942 14.1962 17.1246 14.127C17.0549 14.0578 16.9996 13.9755 16.9618 13.8848C16.924 13.7942 16.9044 13.697 16.9043 13.5987V13.5888C16.9053 13.4406 16.9501 13.2961 17.0331 13.1734C17.1161 13.0508 17.2336 12.9554 17.3707 12.8994C17.5079 12.8434 17.6585 12.8293 17.8037 12.8588C17.9488 12.8883 18.082 12.9601 18.1864 13.0652C18.2908 13.1703 18.3617 13.3039 18.3902 13.4493C18.4188 13.5946 18.4036 13.7451 18.3467 13.8819C18.2898 14.0187 18.1937 14.1355 18.0704 14.2177C17.9472 14.2999 17.8024 14.3437 17.6543 14.3437Z" fill="#000000" />
<path d="M12.7031 11.5569C11.7197 11.5555 10.7769 11.1642 10.0816 10.4687C9.38627 9.77322 8.9952 8.83033 8.99414 7.84687V6.92188C8.99414 6.72296 9.07315 6.53219 9.21381 6.39154C9.35446 6.25089 9.54523 6.17188 9.74414 6.17188C9.94305 6.17188 10.1338 6.25089 10.2745 6.39154C10.4151 6.53219 10.4941 6.72296 10.4941 6.92188V7.84687C10.4941 8.43273 10.7269 8.99461 11.1411 9.40887C11.5554 9.82314 12.1173 10.0559 12.7031 10.0559C13.289 10.0559 13.8509 9.82314 14.2651 9.40887C14.6794 8.99461 14.9121 8.43273 14.9121 7.84687V6.92188C14.9121 6.72296 14.9912 6.53219 15.1318 6.39154C15.2725 6.25089 15.4632 6.17188 15.6621 6.17188C15.8611 6.17188 16.0518 6.25089 16.1925 6.39154C16.3331 6.53219 16.4121 6.72296 16.4121 6.92188V7.84687C16.4111 8.83033 16.02 9.77322 15.3247 10.4687C14.6294 11.1642 13.6866 11.5555 12.7031 11.5569Z" fill="#000000" />
</svg>