<svg width="24px"  height="24px"  viewBox="0 0 25 24" fill="none" xmlns="http://www.w3.org/2000/svg">
<path fill-rule="evenodd" clip-rule="evenodd" d="M3.49627 6.91775C3.68648 5.91944 4.55954 5.19922 5.57369 5.19922H18.941C19.9597 5.19922 20.833 5.92447 21.0199 6.92556L21.6399 10.2363C21.8736 11.2847 21.076 12.2839 19.9976 12.2839H4.50345C3.42445 12.2839 2.62668 11.2837 2.86156 10.2347L3.49627 6.91775C3.49624 6.91788 3.4963 6.91761 3.49627 6.91775ZM5.57369 6.69922C5.27838 6.69922 5.02487 6.90895 4.96974 7.19861L4.33232 10.5297C4.33038 10.5399 4.32822 10.55 4.32586 10.5601C4.29905 10.6743 4.38579 10.7839 4.50345 10.7839H19.9976C20.1153 10.7839 20.202 10.6743 20.1752 10.5601C20.1726 10.549 20.1703 10.5379 20.1682 10.5268L19.5455 7.20128C19.4912 6.9103 19.2377 6.69922 18.941 6.69922H5.57369Z" fill="#000000" />
<path fill-rule="evenodd" clip-rule="evenodd" d="M4.50488 10.7812C4.9191 10.7812 5.25488 11.117 5.25488 11.5312V19.1465C5.25488 19.7551 5.7483 20.248 6.35543 20.248H12.2438C12.2548 20.2475 12.2659 20.2473 12.2771 20.2473H16.27C16.2812 20.2473 16.2922 20.2475 16.3033 20.248H18.1446C18.7517 20.248 19.2452 19.7551 19.2452 19.1465V11.5312C19.2452 11.117 19.5809 10.7812 19.9952 10.7812C20.4094 10.7812 20.7452 11.117 20.7452 11.5312V19.1465C20.7452 20.583 19.5807 21.748 18.1446 21.748H6.35543C4.91936 21.748 3.75488 20.583 3.75488 19.1465V11.5312C3.75488 11.117 4.09067 10.7812 4.50488 10.7812Z" fill="#000000" />
<path fill-rule="evenodd" clip-rule="evenodd" d="M6.96289 15.9844C6.96289 15.5702 7.29868 15.2344 7.71289 15.2344H8.824C9.23821 15.2344 9.574 15.5702 9.574 15.9844C9.574 16.3986 9.23821 16.7344 8.824 16.7344H7.71289C7.29868 16.7344 6.96289 16.3986 6.96289 15.9844Z" fill="#000000" />
<path fill-rule="evenodd" clip-rule="evenodd" d="M11.5273 15.0508C11.5273 14.6366 11.8631 14.3008 12.2773 14.3008H16.2703C16.6845 14.3008 17.0203 14.6366 17.0203 15.0508V21.0003C17.0203 21.4146 16.6845 21.7503 16.2703 21.7503C15.8561 21.7503 15.5203 21.4146 15.5203 21.0003V15.8008H13.0273V21.0003C13.0273 21.4146 12.6916 21.7503 12.2773 21.7503C11.8631 21.7503 11.5273 21.4146 11.5273 21.0003V15.0508Z" fill="#000000" />
<path fill-rule="evenodd" clip-rule="evenodd" d="M6.75098 3C6.75098 2.58579 7.08676 2.25 7.50098 2.25H16.9999C17.4141 2.25 17.7499 2.58579 17.7499 3C17.7499 3.41421 17.4141 3.75 16.9999 3.75H7.50098C7.08676 3.75 6.75098 3.41421 6.75098 3Z" fill="#000000" />
</svg>