<svg width="24px"  height="24px"  viewBox="0 0 25 24" fill="none" xmlns="http://www.w3.org/2000/svg">
<path d="M18.6063 11.5688C17.6273 11.5561 16.6921 11.1615 15.9998 10.4693C15.3075 9.77698 14.913 8.8417 14.9003 7.86275C14.9003 7.66384 14.9793 7.47307 15.1199 7.33242C15.2606 7.19177 15.4514 7.11275 15.6503 7.11275C15.8492 7.11275 16.04 7.19177 16.1806 7.33242C16.3213 7.47307 16.4003 7.66384 16.4003 7.86275C16.4078 8.44548 16.6426 9.00224 17.0547 9.41432C17.4668 9.82641 18.0235 10.0612 18.6063 10.0688C18.9467 10.0593 19.2815 9.98 19.59 9.83567C19.8985 9.69133 20.1739 9.48508 20.3993 9.22975C20.5565 9.06251 20.6755 8.86316 20.7482 8.64546C20.8209 8.42775 20.8455 8.19688 20.8203 7.96875C20.6154 6.91519 20.3302 5.87883 19.9673 4.86875C19.8552 4.53335 19.6403 4.2418 19.3531 4.03553C19.0658 3.82926 18.7209 3.71877 18.3673 3.71975H7.02628C6.67143 3.71946 6.32557 3.83141 6.03819 4.03958C5.7508 4.24776 5.53662 4.54149 5.42628 4.87876C5.07034 5.88628 4.79088 6.9192 4.59028 7.96875C4.56479 8.19643 4.58906 8.42693 4.6614 8.6443C4.73374 8.86168 4.85243 9.06076 5.00927 9.22776C5.23525 9.48421 5.51179 9.69121 5.82154 9.83576C6.13129 9.98031 6.46756 10.0593 6.80927 10.0678C7.392 10.0602 7.94876 9.82541 8.36085 9.41332C8.77294 9.00124 9.00777 8.44448 9.01528 7.86175C9.01528 7.66284 9.0943 7.47208 9.23495 7.33142C9.3756 7.19077 9.56637 7.11175 9.76528 7.11175C9.96419 7.11175 10.1549 7.19077 10.2956 7.33142C10.4363 7.47208 10.5153 7.66284 10.5153 7.86175C10.5028 8.84172 10.1077 9.77799 9.41433 10.4706C8.72095 11.1632 7.78427 11.5573 6.80428 11.5688C6.24836 11.5591 5.7006 11.4334 5.19618 11.1995C4.69175 10.9656 4.24182 10.6288 3.87528 10.2107C3.57629 9.88208 3.35258 9.49215 3.21977 9.06815C3.08695 8.64414 3.04821 8.19627 3.10627 7.75575C3.31773 6.61814 3.61868 5.499 4.00628 4.40875C4.21496 3.77125 4.61995 3.2161 5.16329 2.82273C5.70664 2.42937 6.36049 2.21796 7.03127 2.21875H18.3743C19.0423 2.218 19.6937 2.42759 20.2359 2.8178C20.7782 3.20802 21.1838 3.75906 21.3953 4.39276C21.789 5.48729 22.0946 6.61153 22.3093 7.75476C22.3668 8.19595 22.3276 8.64438 22.1943 9.06887C22.061 9.49335 21.8368 9.8837 21.5373 10.2128C21.1702 10.6306 20.7199 10.9671 20.2151 11.2006C19.7104 11.4342 19.1624 11.5595 18.6063 11.5688Z" fill="#000000" />
<path d="M12.704 11.5675C11.7215 11.5664 10.7795 11.1756 10.0847 10.4809C9.38989 9.78609 8.99911 8.84406 8.99805 7.8615V6.9375C8.99805 6.73859 9.07706 6.54782 9.21771 6.40717C9.35836 6.26651 9.54913 6.1875 9.74805 6.1875C9.94696 6.1875 10.1377 6.26651 10.2784 6.40717C10.419 6.54782 10.498 6.73859 10.498 6.9375V7.8615C10.498 8.44643 10.7304 9.00741 11.144 9.42102C11.5576 9.83463 12.1186 10.067 12.7035 10.067C13.2885 10.067 13.8495 9.83463 14.2631 9.42102C14.6767 9.00741 14.909 8.44643 14.909 7.8615V6.9375C14.909 6.73859 14.9881 6.54782 15.1287 6.40717C15.2694 6.26651 15.4601 6.1875 15.659 6.1875C15.858 6.1875 16.0487 6.26651 16.1894 6.40717C16.33 6.54782 16.409 6.73859 16.409 6.9375V7.8615C16.4082 8.84397 16.0177 9.786 15.3231 10.4808C14.6284 11.1756 13.6865 11.5664 12.704 11.5675Z" fill="#000000" />
<path d="M17.7555 21.7164H7.65549C6.69494 21.7148 5.77394 21.3336 5.09323 20.6559C4.41252 19.9782 4.02729 19.0589 4.02148 18.0984V10.1164C4.02148 9.91747 4.1005 9.7267 4.24115 9.58604C4.3818 9.44539 4.57257 9.36638 4.77148 9.36638C4.9704 9.36638 5.16117 9.44539 5.30182 9.58604C5.44247 9.7267 5.52148 9.91747 5.52148 10.1164V18.0944C5.52597 18.6585 5.75317 19.1981 6.15361 19.5956C6.55405 19.993 7.09529 20.2161 7.65948 20.2164H17.7345C18.3013 20.2135 18.8452 19.9925 19.2535 19.5994C19.454 19.4029 19.6134 19.1684 19.7224 18.9097C19.8315 18.651 19.8879 18.3731 19.8885 18.0924V10.1094C19.8885 9.91046 19.9675 9.7197 20.1082 9.57905C20.2488 9.4384 20.4396 9.35938 20.6385 9.35938C20.8374 9.35938 21.0282 9.4384 21.1688 9.57905C21.3095 9.7197 21.3885 9.91046 21.3885 10.1094V18.0944C21.3848 19.0563 21.0001 19.9775 20.3186 20.6564C19.6371 21.3352 18.7144 21.7164 17.7525 21.7164H17.7555Z" fill="#000000" />
<path d="M17.1387 14.3516C17.0405 14.3521 16.9431 14.3332 16.8522 14.296C16.7613 14.2588 16.6786 14.2041 16.6089 14.1348C16.5392 14.0656 16.4839 13.9833 16.4461 13.8927C16.4083 13.802 16.3888 13.7048 16.3887 13.6066V13.5966C16.3897 13.4484 16.4345 13.3039 16.5175 13.1813C16.6005 13.0586 16.718 12.9632 16.8551 12.9072C16.9922 12.8512 17.1429 12.8371 17.288 12.8666C17.4332 12.8961 17.5664 12.9679 17.6707 13.073C17.7751 13.1781 17.8461 13.3117 17.8746 13.4571C17.9031 13.6024 17.888 13.753 17.8311 13.8897C17.7742 14.0265 17.6781 14.1433 17.5548 14.2255C17.4316 14.3077 17.2868 14.3516 17.1387 14.3516Z" fill="#000000" />
<path d="M15.284 21.7051C15.0851 21.7051 14.8944 21.626 14.7537 21.4854C14.6131 21.3447 14.534 21.154 14.534 20.9551V17.3071C14.534 16.8216 14.3412 16.356 13.9979 16.0127C13.6546 15.6694 13.189 15.4766 12.7035 15.4766C12.2181 15.4766 11.7525 15.6694 11.4092 16.0127C11.0659 16.356 10.873 16.8216 10.873 17.3071V20.9551C10.873 21.154 10.794 21.3447 10.6534 21.4854C10.5127 21.626 10.322 21.7051 10.123 21.7051C9.92413 21.7051 9.73336 21.626 9.59271 21.4854C9.45206 21.3447 9.37305 21.154 9.37305 20.9551V17.3071C9.37305 16.4238 9.72394 15.5766 10.3485 14.952C10.9731 14.3275 11.8202 13.9766 12.7035 13.9766C13.5868 13.9766 14.434 14.3275 15.0586 14.952C15.6832 15.5766 16.034 16.4238 16.034 17.3071V20.9551C16.034 21.154 15.955 21.3447 15.8144 21.4854C15.6737 21.626 15.483 21.7051 15.284 21.7051Z" fill="#000000" />
</svg>