<svg width="24px"  height="24px"  viewBox="0 0 25 24" fill="none" xmlns="http://www.w3.org/2000/svg">
<path d="M12.7047 13.1933C12.0746 13.1936 11.4519 13.0572 10.8797 12.7933L8.69369 11.7803C8.4401 11.6633 8.15275 11.642 7.88468 11.7203L7.61469 11.8003C6.99382 11.9982 6.33201 12.0306 5.69478 11.8941C5.05756 11.7577 4.46702 11.4571 3.98168 11.0223C3.61318 10.6954 3.32963 10.2839 3.15543 9.82311C2.98123 9.36236 2.9216 8.86616 2.98168 8.37726C3.18734 7.27685 3.48096 6.19471 3.85969 5.14126C4.06484 4.52636 4.45836 3.99164 4.98444 3.61292C5.51052 3.2342 6.14247 3.03069 6.79069 3.03126H18.6347C19.2859 3.02998 19.9208 3.23504 20.4483 3.61699C20.9758 3.99893 21.3687 4.53815 21.5707 5.15726C21.9361 6.20809 22.2238 7.28431 22.4317 8.37726C22.4914 8.86614 22.4316 9.36223 22.2575 9.82293C22.0833 10.2836 21.7999 10.6952 21.4317 11.0223C20.9461 11.4561 20.356 11.7561 19.7194 11.8926C19.0827 12.0292 18.4215 11.9977 17.8007 11.8013L17.5267 11.7203C17.2593 11.6415 16.9722 11.6632 16.7197 11.7813L14.5347 12.7903C13.9612 13.0559 13.3367 13.1934 12.7047 13.1933ZM8.21068 10.1693C8.59549 10.1692 8.97567 10.2532 9.32468 10.4153L11.5097 11.4273C11.884 11.6019 12.2921 11.6924 12.7052 11.6924C13.1183 11.6924 13.5263 11.6019 13.9007 11.4273L16.0857 10.4153C16.6683 10.1434 17.3302 10.0939 17.9467 10.2763L18.2227 10.3583C18.5915 10.4806 18.9857 10.5053 19.3669 10.4299C19.748 10.3545 20.1032 10.1817 20.3977 9.92826C20.5886 9.76438 20.7376 9.55731 20.8324 9.32425C20.9272 9.09119 20.965 8.83887 20.9427 8.58826C20.7498 7.5805 20.4824 6.58844 20.1427 5.62026C20.0384 5.30192 19.8361 5.02474 19.5647 4.82841C19.2933 4.63207 18.9667 4.52666 18.6317 4.52726H6.79369C6.46025 4.52689 6.13514 4.63149 5.86448 4.82623C5.59381 5.02098 5.3913 5.29598 5.28568 5.61226C4.93212 6.57973 4.6592 7.57479 4.46969 8.58726C4.4467 8.83803 4.48398 9.09067 4.57844 9.32411C4.67289 9.55755 4.82178 9.76503 5.01269 9.92926C5.30775 10.1828 5.6635 10.3555 6.04523 10.4305C6.42696 10.5055 6.82162 10.4803 7.19068 10.3573L7.46169 10.2773C7.70495 10.2058 7.95715 10.1695 8.21068 10.1693Z" fill="#000000" />
<path d="M16.1986 20.9127H9.2076C8.56469 20.9363 7.92406 20.8236 7.32778 20.5821C6.7315 20.3405 6.19305 19.9756 5.74778 19.5113C5.3025 19.0469 4.96047 18.4936 4.74415 17.8877C4.52782 17.2819 4.4421 16.6371 4.49259 15.9957V14.1367C4.49259 13.9378 4.57162 13.747 4.71227 13.6064C4.85292 13.4657 5.04368 13.3867 5.24259 13.3867C5.4415 13.3867 5.63227 13.4657 5.77292 13.6064C5.91358 13.747 5.99259 13.9378 5.99259 14.1367V15.9957C5.94321 16.4392 5.99079 16.8881 6.13201 17.3114C6.27323 17.7346 6.50473 18.1222 6.81049 18.4471C7.11626 18.7721 7.48899 19.0268 7.90288 19.1935C8.31678 19.3602 8.76195 19.435 9.2076 19.4127H16.1986C16.6443 19.435 17.0895 19.3602 17.5034 19.1935C17.9174 19.0268 18.2901 18.7721 18.596 18.4472C18.9018 18.1222 19.1334 17.7347 19.2748 17.3114C19.4161 16.8882 19.4638 16.4392 19.4146 15.9957V14.1367C19.4146 13.9378 19.4936 13.747 19.6343 13.6064C19.7749 13.4657 19.9657 13.3867 20.1646 13.3867C20.3635 13.3867 20.5543 13.4657 20.6949 13.6064C20.8356 13.747 20.9146 13.9378 20.9146 14.1367V15.9957C20.9649 16.6371 20.8791 17.2819 20.6626 17.8878C20.4462 18.4937 20.1041 19.047 19.6587 19.5113C19.2134 19.9756 18.6749 20.3405 18.0785 20.5821C17.4822 20.8236 16.8415 20.9363 16.1986 20.9127Z" fill="#000000" />
</svg>