<svg width="24px"  height="24px"  viewBox="0 0 25 24" fill="none" xmlns="http://www.w3.org/2000/svg">
<path fill-rule="evenodd" clip-rule="evenodd" d="M3.3873 4.12703C3.3873 3.28666 4.06849 2.60547 4.90886 2.60547H19.6297C20.4822 2.60547 21.1684 3.306 21.1511 4.15873L21.0958 6.74198L21.9547 10.3894C22.2068 11.4667 21.3899 12.4982 20.2826 12.4982H4.21708C3.1108 12.4982 2.29372 11.4666 2.54601 10.3901L3.3873 6.8082V4.12703ZM4.88869 4.11883C4.88804 4.12036 4.8873 4.12264 4.8873 4.12703V6.8951C4.8873 6.95284 4.88063 7.01038 4.86743 7.06659L4.00644 10.7323C4.00643 10.7324 4.00646 10.7323 4.00644 10.7323C3.97474 10.868 4.07802 10.9982 4.21708 10.9982H20.2826C20.4226 10.9982 20.5262 10.8681 20.4942 10.7311L19.6139 6.99307C19.5994 6.93149 19.5927 6.86833 19.5941 6.80508L19.6515 4.1284C19.6515 4.12835 19.6515 4.12845 19.6515 4.1284C19.6515 4.12372 19.6508 4.12112 19.6501 4.1195C19.6492 4.11732 19.6476 4.11462 19.645 4.11198C19.6424 4.10935 19.6398 4.10772 19.6378 4.10685C19.6363 4.10621 19.6341 4.10547 19.6297 4.10547H4.90886C4.90447 4.10547 4.90219 4.10621 4.90066 4.10686C4.89862 4.10772 4.89608 4.10928 4.8936 4.11177C4.89111 4.11425 4.88955 4.11679 4.88869 4.11883Z" fill="#000000" />
<path fill-rule="evenodd" clip-rule="evenodd" d="M4.20996 11C4.62417 11 4.95996 11.3358 4.95996 11.75V18.7271C4.95996 19.3724 5.4833 19.8958 6.12864 19.8958H18.3529C18.9983 19.8958 19.5216 19.3724 19.5216 18.7271V11.75C19.5216 11.3358 19.8574 11 20.2716 11C20.6858 11 21.0216 11.3358 21.0216 11.75V18.7271C21.0216 20.2009 19.8267 21.3958 18.3529 21.3958H16.4227C16.4119 21.3962 16.401 21.3965 16.3901 21.3965H12.2502C12.2393 21.3965 12.2284 21.3962 12.2177 21.3958H6.12864C4.65487 21.3958 3.45996 20.2009 3.45996 18.7271V11.75C3.45996 11.3358 3.79575 11 4.20996 11Z" fill="#000000" />
<path fill-rule="evenodd" clip-rule="evenodd" d="M11.5 14.4766C11.5 14.0623 11.8358 13.7266 12.25 13.7266H16.3899C16.8042 13.7266 17.1399 14.0623 17.1399 14.4766V20.6451C17.1399 21.0593 16.8042 21.3951 16.3899 21.3951C15.9757 21.3951 15.6399 21.0593 15.6399 20.6451V15.2266H13V20.6451C13 21.0593 12.6642 21.3951 12.25 21.3951C11.8358 21.3951 11.5 21.0593 11.5 20.6451V14.4766Z" fill="#000000" />
<path fill-rule="evenodd" clip-rule="evenodd" d="M6.7666 15.6797C6.7666 15.2655 7.10239 14.9297 7.5166 14.9297H8.66859C9.0828 14.9297 9.41859 15.2655 9.41859 15.6797C9.41859 16.0939 9.0828 16.4297 8.66859 16.4297H7.5166C7.10239 16.4297 6.7666 16.0939 6.7666 15.6797Z" fill="#000000" />
<path fill-rule="evenodd" clip-rule="evenodd" d="M3.38672 6.8945C3.38674 6.48029 3.72254 6.14451 4.13675 6.14453L20.3438 6.14518C20.758 6.1452 21.0938 6.481 21.0938 6.89522C21.0938 7.30943 20.758 7.6452 20.3438 7.64518L4.13669 7.64453C3.72247 7.64451 3.3867 7.30871 3.38672 6.8945Z" fill="#000000" />
</svg>