<svg width="24px"  height="24px"  viewBox="0 0 25 24" fill="none" xmlns="http://www.w3.org/2000/svg">
<path d="M12.7058 13.1885C12.0751 13.1889 11.4517 13.0525 10.8789 12.7885L8.69288 11.7685C8.43929 11.6516 8.15193 11.6302 7.88386 11.7085L7.61387 11.7885C6.99315 11.9864 6.33151 12.0188 5.69446 11.8823C5.05742 11.7458 4.46704 11.4453 3.98185 11.0105C3.61314 10.6838 3.32946 10.2723 3.15525 9.81152C2.98103 9.35072 2.92151 8.85446 2.98185 8.36554C3.18453 7.27099 3.47275 6.19402 3.84385 5.14454C4.04584 4.52569 4.43867 3.98672 4.96595 3.60496C5.49323 3.22319 6.1279 3.01825 6.77888 3.01954H18.6139C19.2621 3.01858 19.8941 3.22194 20.42 3.60073C20.946 3.97952 21.3393 4.51447 21.5439 5.12954C21.9247 6.1825 22.219 7.26475 22.4239 8.36554C22.4837 8.85443 22.4239 9.35054 22.2498 9.81125C22.0756 10.272 21.7922 10.6835 21.4239 11.0105C20.9386 11.4445 20.3487 11.7446 19.7121 11.8812C19.0756 12.0178 18.4145 11.9862 17.7939 11.7895L17.5179 11.7075C17.2506 11.6298 16.9643 11.6515 16.7119 11.7685L14.5338 12.7855C13.961 13.051 13.3372 13.1885 12.7058 13.1885ZM8.20585 10.1655C8.59066 10.1655 8.97086 10.2494 9.31986 10.4115L11.5049 11.4245C11.8794 11.5984 12.2874 11.6885 12.7004 11.6885C13.1133 11.6885 13.5213 11.5984 13.8958 11.4245L16.0819 10.4115C16.6645 10.1413 17.3255 10.0919 17.9419 10.2725L18.2179 10.3545C18.5865 10.4777 18.9808 10.5029 19.3621 10.4277C19.7434 10.3525 20.0986 10.1794 20.3929 9.92554C20.584 9.7614 20.7332 9.55399 20.828 9.32057C20.9228 9.08715 20.9605 8.83446 20.9379 8.58353C20.7418 7.57272 20.4683 6.57846 20.1198 5.60953C20.0145 5.29299 19.8122 5.01768 19.5414 4.82272C19.2707 4.62777 18.9455 4.52308 18.6119 4.52354H6.78086C6.4461 4.52277 6.11969 4.62802 5.84843 4.82419C5.57716 5.02036 5.37497 5.29738 5.27085 5.61554C4.92976 6.58329 4.66234 7.57545 4.47086 8.58353C4.44824 8.83437 4.48581 9.08698 4.58042 9.32039C4.67503 9.55379 4.82398 9.76125 5.01487 9.92554C5.30948 10.1795 5.66506 10.3525 6.04673 10.4276C6.4284 10.5026 6.82304 10.4771 7.19187 10.3535L7.46287 10.2735C7.70563 10.2033 7.95716 10.1679 8.20988 10.1685L8.20585 10.1655Z" fill="#000000" />
<path d="M8.18626 11.6583C8.12394 11.6583 8.06184 11.6509 8.00127 11.6363C7.80853 11.587 7.64317 11.4633 7.5414 11.2924C7.43963 11.1215 7.40974 10.9172 7.45827 10.7243L8.20424 7.77826C8.25532 7.58794 8.37926 7.42537 8.54924 7.32569C8.71923 7.22601 8.92162 7.19723 9.11266 7.24558C9.30369 7.29393 9.46802 7.41552 9.57011 7.58406C9.67221 7.7526 9.70386 7.95456 9.65825 8.14626L8.91225 11.0933C8.87116 11.2547 8.7775 11.3978 8.64604 11.5001C8.51459 11.6024 8.35284 11.6581 8.18626 11.6583Z" fill="#000000" />
<path d="M17.2186 11.6579C17.0521 11.6576 16.8905 11.602 16.7592 11.4996C16.628 11.3973 16.5345 11.2542 16.4936 11.0929L15.7466 8.14685C15.7185 8.05021 15.7102 7.94889 15.722 7.84894C15.7339 7.749 15.7658 7.65246 15.8158 7.5651C15.8657 7.47773 15.9328 7.40132 16.0129 7.34041C16.0931 7.2795 16.1846 7.23535 16.2822 7.21058C16.3797 7.1858 16.4813 7.18091 16.5807 7.19621C16.6802 7.2115 16.7756 7.24667 16.8612 7.2996C16.9468 7.35254 17.0209 7.42216 17.079 7.50432C17.1372 7.58649 17.1782 7.67951 17.1996 7.77785L17.9466 10.7239C17.9954 10.9167 17.9658 11.121 17.8642 11.2919C17.7626 11.4629 17.5973 11.5866 17.4046 11.6359C17.3437 11.6505 17.2812 11.6579 17.2186 11.6579Z" fill="#000000" />
<path d="M16.1995 20.9115H9.20851C8.56556 20.9351 7.92489 20.8224 7.32857 20.5809C6.73224 20.3393 6.19372 19.9744 5.74837 19.5101C5.30302 19.0458 4.9609 18.4925 4.74446 17.8866C4.52802 17.2807 4.44216 16.6359 4.49251 15.9945V11.0195C4.49251 10.8206 4.57152 10.6298 4.71217 10.4892C4.85283 10.3485 5.0436 10.2695 5.24251 10.2695C5.44142 10.2695 5.63219 10.3485 5.77284 10.4892C5.91349 10.6298 5.99251 10.8206 5.99251 11.0195V15.9945C5.94329 16.4381 5.991 16.887 6.13234 17.3102C6.27368 17.7335 6.50527 18.121 6.81111 18.446C7.11695 18.7709 7.48974 19.0256 7.90367 19.1923C8.31761 19.359 8.76282 19.4338 9.20851 19.4115H16.1995C16.6452 19.4338 17.0903 19.359 17.5042 19.1923C17.9181 19.0256 18.2908 18.7709 18.5966 18.446C18.9024 18.121 19.1339 17.7334 19.2751 17.3102C19.4163 16.8869 19.4639 16.438 19.4145 15.9945V11.0195C19.4145 10.8206 19.4935 10.6298 19.6342 10.4892C19.7748 10.3485 19.9656 10.2695 20.1645 10.2695C20.3634 10.2695 20.5542 10.3485 20.6948 10.4892C20.8355 10.6298 20.9145 10.8206 20.9145 11.0195V15.9945C20.965 16.6359 20.8793 17.2807 20.6629 17.8866C20.4466 18.4924 20.1046 19.0457 19.6593 19.5101C19.214 19.9744 18.6756 20.3393 18.0793 20.5809C17.483 20.8224 16.8424 20.9351 16.1995 20.9115Z" fill="#000000" />
<path d="M15.1046 20.9132C14.9057 20.9132 14.715 20.8342 14.5743 20.6936C14.4337 20.5529 14.3546 20.3622 14.3546 20.1632V17.2402C14.3544 16.986 14.2533 16.7422 14.0735 16.5624C13.8937 16.3826 13.6499 16.2815 13.3957 16.2812H12.0807C11.8092 16.2812 11.5489 16.389 11.3569 16.5808C11.1649 16.7726 11.0569 17.0328 11.0566 17.3042V20.1632C11.0566 20.3622 10.9776 20.5529 10.837 20.6936C10.6963 20.8342 10.5056 20.9132 10.3066 20.9132C10.1077 20.9132 9.91696 20.8342 9.77631 20.6936C9.63565 20.5529 9.55664 20.3622 9.55664 20.1632V17.3042C9.55744 16.6352 9.82365 15.9937 10.2968 15.5207C10.77 15.0477 11.4116 14.7818 12.0807 14.7812H13.3957C14.0476 14.782 14.6726 15.0414 15.1335 15.5023C15.5945 15.9633 15.8539 16.5883 15.8546 17.2402V20.1632C15.8546 20.3622 15.7756 20.5529 15.635 20.6936C15.4943 20.8342 15.3036 20.9132 15.1046 20.9132Z" fill="#000000" />
</svg>