<svg width="24px"  height="24px"  viewBox="0 0 25 24" fill="none" xmlns="http://www.w3.org/2000/svg">
<path fill-rule="evenodd" clip-rule="evenodd" d="M4.28541 4.10261C4.28541 3.26188 4.96696 2.57812 5.80989 2.57812H18.7281C19.583 2.57812 20.2696 3.28117 20.2524 4.13428L20.2003 6.56999L21.6608 8.59975C21.6608 8.59983 21.6607 8.59967 21.6608 8.59975C21.8814 8.90573 22 9.27348 22 9.6505V10.9241C22 11.6129 21.613 12.211 21.0445 12.513V18.7437C21.0445 20.2202 19.8478 21.4182 18.3699 21.4182H14.3397C14.335 21.4183 14.3303 21.4184 14.3256 21.4184H10.1729C10.1682 21.4184 10.1635 21.4183 10.1588 21.4182H6.11046C4.63376 21.4182 3.43592 20.2204 3.43592 18.7437V12.5026C2.87817 12.1973 2.5 11.6048 2.5 10.9241V9.65537C2.5 9.27336 2.6217 8.90092 2.84764 8.59295C2.84765 8.59293 2.84762 8.59297 2.84764 8.59295L4.28541 6.63292V4.10261ZM4.93592 12.722V18.7437C4.93592 19.392 5.46218 19.9182 6.11046 19.9182H18.3699C19.0189 19.9182 19.5445 19.3922 19.5445 18.7437V12.722H4.93592ZM5.78702 4.09346C5.78619 4.0954 5.78541 4.09802 5.78541 4.10261V6.8785C5.78541 7.03806 5.73452 7.19346 5.64015 7.32211L4.05712 9.48016C4.02038 9.53024 4 9.59178 4 9.65537V10.9241C4 11.0893 4.13364 11.222 4.29692 11.222H20.2021C20.3668 11.222 20.5 11.0888 20.5 10.9241V9.6505C20.5 9.58784 20.4803 9.52734 20.4442 9.47726L18.8363 7.24259C18.7413 7.11054 18.6918 6.95117 18.6953 6.78853L18.7527 4.10402C18.7527 4.104 18.7527 4.10404 18.7527 4.10402C18.7528 4.09908 18.752 4.09621 18.7512 4.09417C18.7501 4.09158 18.7482 4.08849 18.7453 4.08553C18.7424 4.08258 18.7395 4.08073 18.7371 4.07972C18.7353 4.07894 18.7328 4.07812 18.7281 4.07812H5.80989C5.80514 4.07812 5.80253 4.07894 5.80069 4.07972C5.79833 4.08072 5.79546 4.0825 5.79267 4.08529C5.78987 4.08809 5.78805 4.09102 5.78702 4.09346Z" fill="#000000" />
<path fill-rule="evenodd" clip-rule="evenodd" d="M4.28516 6.87889C4.28517 6.46467 4.62096 6.12889 5.03518 6.12891L19.4449 6.12931C19.8591 6.12932 20.1949 6.46512 20.1948 6.87933C20.1948 7.29354 19.859 7.62932 19.4448 7.62931L5.03514 7.62891C4.62092 7.62889 4.28514 7.2931 4.28516 6.87889Z" fill="#000000" />
<path fill-rule="evenodd" clip-rule="evenodd" d="M12.2492 15.9219C11.517 15.9219 10.9229 16.5155 10.9229 17.2482V20.6711C10.9229 21.0853 10.5871 21.4211 10.1729 21.4211C9.75864 21.4211 9.42285 21.0853 9.42285 20.6711V17.2482C9.42285 15.6866 10.689 14.4219 12.2492 14.4219C13.8105 14.4219 15.0755 15.6869 15.0755 17.2482V20.6711C15.0755 21.0853 14.7397 21.4211 14.3255 21.4211C13.9113 21.4211 13.5755 21.0853 13.5755 20.6711V17.2482C13.5755 16.5153 12.9821 15.9219 12.2492 15.9219Z" fill="#000000" />
</svg>