<svg width="24px"  height="24px"  viewBox="0 0 25 24" fill="none" xmlns="http://www.w3.org/2000/svg">
<path fill-rule="evenodd" clip-rule="evenodd" d="M5.25879 13.418C5.673 13.418 6.00879 13.7538 6.00879 14.168V16.0273C6.00879 17.0936 6.33907 17.9415 6.87361 18.5157C7.40251 19.0838 8.18685 19.4445 9.22364 19.4445H16.2154C17.2528 19.4445 18.0373 19.0837 18.5663 18.5156C19.1009 17.9415 19.4312 17.0936 19.4312 16.0273V14.168C19.4312 13.7538 19.767 13.418 20.1812 13.418C20.5954 13.418 20.9312 13.7538 20.9312 14.168V16.0273C20.9312 17.4032 20.5011 18.6389 19.6641 19.5378C18.8214 20.4428 17.6231 20.9445 16.2154 20.9445H9.22364C7.81633 20.9445 6.61824 20.4427 5.77574 19.5378C4.93888 18.6389 4.50879 17.4032 4.50879 16.0273V14.168C4.50879 13.7538 4.84458 13.418 5.25879 13.418Z" fill="#000000" />
<path fill-rule="evenodd" clip-rule="evenodd" d="M10.1934 15.9453C10.1934 15.5311 10.5291 15.1953 10.9434 15.1953H14.4704C14.8846 15.1953 15.2204 15.5311 15.2204 15.9453C15.2204 16.3595 14.8846 16.6953 14.4704 16.6953H10.9434C10.5291 16.6953 10.1934 16.3595 10.1934 15.9453Z" fill="#000000" />
<path fill-rule="evenodd" clip-rule="evenodd" d="M3.87907 5.16843C4.30065 3.9065 5.48067 3.05859 6.80972 3.05859H18.6449C19.9791 3.05859 21.1643 3.91405 21.5808 5.18418C21.911 6.19314 22.3149 7.524 22.4423 8.40558C22.5951 9.46563 22.1242 10.4063 21.4441 11.0502C20.4511 11.99 19.026 12.1841 17.814 11.8284L17.5399 11.7478C17.5398 11.7477 17.54 11.7478 17.5399 11.7478C17.2724 11.6695 16.9843 11.6907 16.731 11.8078C16.7309 11.8079 16.731 11.8078 16.731 11.8078L14.547 12.8205C13.3889 13.3567 12.0526 13.357 10.8951 12.8206L8.71017 11.8079C8.45713 11.6908 8.17035 11.6693 7.90159 11.7476C7.90129 11.7477 7.9019 11.7475 7.90159 11.7476L7.62803 11.8284C6.41605 12.1841 4.99012 11.9902 3.997 11.0503C3.31644 10.4059 2.84697 9.46545 2.99959 8.40609M3.87907 5.16843C3.54119 6.17919 3.12744 7.51774 2.99959 8.40609L3.87907 5.16843ZM6.80972 4.55859C6.12479 4.55859 5.51848 4.99493 5.30175 5.64381C4.95858 6.67036 4.58999 7.8852 4.4843 8.61971C4.41712 9.08585 4.61124 9.5661 5.02808 9.96082C5.56046 10.4647 6.40132 10.625 7.20519 10.3893C7.20535 10.3892 7.20502 10.3893 7.20519 10.3893L7.4778 10.3087L7.47983 10.3081C8.09621 10.128 8.75674 10.1766 9.34017 10.4466L11.5258 11.4596C11.5258 11.4597 11.5258 11.4596 11.5258 11.4596C12.2831 11.8106 13.1578 11.8107 13.9164 11.4595L16.1003 10.4469C16.6837 10.1769 17.3458 10.1279 17.9616 10.3083L18.2363 10.3891C19.0402 10.625 19.8804 10.4648 20.4129 9.96082C20.8302 9.56567 21.0247 9.08564 20.9578 8.62022C20.8517 7.88677 20.4908 6.67604 20.1555 5.65159C19.9415 4.99913 19.3325 4.55859 18.6449 4.55859H6.80972Z" fill="#000000" />
</svg>