<svg width="24px"  height="24px"  viewBox="0 0 25 24" fill="none" xmlns="http://www.w3.org/2000/svg">
<path d="M18.6493 12.6058C17.6646 12.5928 16.7239 12.1959 16.0275 11.4995C15.3312 10.8032 14.9342 9.86245 14.9213 8.87775C14.9213 8.67884 15.0003 8.48807 15.141 8.34742C15.2816 8.20677 15.4724 8.12775 15.6713 8.12775C15.8702 8.12775 16.061 8.20677 16.2016 8.34742C16.3423 8.48807 16.4213 8.67884 16.4213 8.87775C16.4291 9.46624 16.6663 10.0284 17.0825 10.4446C17.4986 10.8608 18.0608 11.098 18.6493 11.1058C19.2356 11.0911 19.7938 10.8516 20.2085 10.4369C20.6232 10.0222 20.8626 9.46402 20.8773 8.87775C20.7308 7.51897 20.446 6.17869 20.0273 4.87775C19.9142 4.53881 19.6972 4.24412 19.4071 4.03552C19.117 3.82693 18.7686 3.71504 18.4113 3.71575H6.98129C6.62283 3.71539 6.27344 3.82834 5.98303 4.03847C5.69262 4.2486 5.47604 4.54516 5.36429 4.88575C4.95276 6.18402 4.67302 7.52043 4.5293 8.87475C4.53009 9.46541 4.76508 10.0317 5.18274 10.4493C5.6004 10.867 6.16664 11.102 6.75729 11.1028C7.34578 11.095 7.908 10.8578 8.32416 10.4416C8.74032 10.0254 8.97752 9.46324 8.98529 8.87475C8.98529 8.67584 9.0643 8.48508 9.20496 8.34442C9.34561 8.20377 9.53638 8.12475 9.73529 8.12475C9.9342 8.12475 10.125 8.20377 10.2656 8.34442C10.4063 8.48508 10.4853 8.67584 10.4853 8.87475C10.4723 9.85945 10.0754 10.8002 9.37909 11.4965C8.68274 12.1929 7.74199 12.5898 6.75729 12.6028C5.76897 12.6014 4.82153 12.2082 4.12268 11.5094C3.42383 10.8105 3.03062 9.86307 3.0293 8.87475C3.17204 7.36118 3.47678 5.86729 3.93829 4.41875C4.14902 3.77819 4.55671 3.22058 5.10318 2.82549C5.64965 2.43041 6.30697 2.21806 6.98129 2.21875H18.4113C19.0833 2.218 19.7386 2.42886 20.284 2.82141C20.8295 3.21395 21.2375 3.76827 21.4503 4.40575C21.9212 5.85821 22.2321 7.35777 22.3773 8.87775C22.3643 9.86245 21.9674 10.8032 21.2711 11.4995C20.5747 12.1959 19.634 12.5928 18.6493 12.6058Z" fill="#000000" />
<path d="M12.7026 12.6043C11.7142 12.6033 10.7666 12.2101 10.0677 11.5112C9.36878 10.8123 8.97567 9.86471 8.97461 8.87631V7.94531C8.97461 7.7464 9.05362 7.55564 9.19427 7.41499C9.33493 7.27433 9.5257 7.19531 9.72461 7.19531C9.92352 7.19531 10.1143 7.27433 10.2549 7.41499C10.3956 7.55564 10.4746 7.7464 10.4746 7.94531V8.87631C10.487 9.45917 10.7272 10.014 11.1437 10.4219C11.5603 10.8297 12.1201 11.0581 12.7031 11.0581C13.2861 11.0581 13.8459 10.8297 14.2625 10.4219C14.679 10.014 14.9193 9.45917 14.9316 8.87631V7.94531C14.9316 7.7464 15.0106 7.55564 15.1513 7.41499C15.2919 7.27433 15.4827 7.19531 15.6816 7.19531C15.8805 7.19531 16.0713 7.27433 16.2119 7.41499C16.3526 7.55564 16.4316 7.7464 16.4316 7.94531V8.87631C16.4303 9.86481 16.037 10.8124 15.3379 11.5113C14.6388 12.2102 13.6911 12.6033 12.7026 12.6043Z" fill="#000000" />
<path d="M16.315 21.7182H9.08997C8.42899 21.7423 7.77042 21.6263 7.15744 21.3778C6.54446 21.1294 5.99092 20.7541 5.5332 20.2767C5.07549 19.7992 4.72392 19.2304 4.50156 18.6074C4.27919 17.9845 4.19108 17.3216 4.24298 16.6622V14.1562C4.24298 13.9573 4.32199 13.7666 4.46265 13.6259C4.6033 13.4853 4.79407 13.4062 4.99298 13.4062C5.19189 13.4062 5.38266 13.4853 5.52332 13.6259C5.66397 13.7666 5.74298 13.9573 5.74298 14.1562V16.6622C5.69736 17.1227 5.75091 17.5876 5.90006 18.0256C6.0492 18.4636 6.29047 18.8646 6.60761 19.2016C6.92474 19.5385 7.31039 19.8036 7.73859 19.979C8.16678 20.1543 8.62759 20.2359 9.08997 20.2182H16.315C16.7775 20.2361 17.2384 20.1546 17.6668 19.9793C18.0951 19.804 18.481 19.5389 18.7983 19.202C19.1156 18.8651 19.3571 18.464 19.5064 18.0259C19.6557 17.5879 19.7095 17.1228 19.664 16.6622V14.1562C19.664 13.9573 19.743 13.7666 19.8836 13.6259C20.0243 13.4853 20.2151 13.4062 20.414 13.4062C20.6129 13.4062 20.8037 13.4853 20.9443 13.6259C21.085 13.7666 21.164 13.9573 21.164 14.1562V16.6622C21.2157 17.3218 21.1274 17.9848 20.9049 18.6077C20.6824 19.2307 20.3306 19.7996 19.8727 20.2771C19.4148 20.7545 18.8611 21.1298 18.248 21.3781C17.6348 21.6265 16.9761 21.7424 16.315 21.7182Z" fill="#000000" />
<path d="M14.5258 17.3281H10.8809C10.6819 17.3281 10.4912 17.2491 10.3505 17.1085C10.2099 16.9678 10.1309 16.777 10.1309 16.5781C10.1309 16.3792 10.2099 16.1884 10.3505 16.0478C10.4912 15.9071 10.6819 15.8281 10.8809 15.8281H14.5258C14.7248 15.8281 14.9155 15.9071 15.0562 16.0478C15.1968 16.1884 15.2758 16.3792 15.2758 16.5781C15.2758 16.777 15.1968 16.9678 15.0562 17.1085C14.9155 17.2491 14.7248 17.3281 14.5258 17.3281Z" fill="#000000" />
</svg>