<svg width="24px"  height="24px"  viewBox="0 0 25 24" fill="none" xmlns="http://www.w3.org/2000/svg">
<path fill-rule="evenodd" clip-rule="evenodd" d="M5.55303 3.81641C4.69556 3.81641 4 4.51197 4 5.36943V8.71354C4 9.47176 4.61481 10.0866 5.37303 10.0866H5.62697C6.38506 10.0866 7 9.47161 7 8.71326C7 8.29905 7.33579 7.96326 7.75 7.96326C8.16421 7.96326 8.5 8.29905 8.5 8.71326C8.5 10.2998 7.21375 11.5866 5.62697 11.5866H5.37303C3.78638 11.5866 2.5 10.3002 2.5 8.71354V5.36943C2.5 3.68354 3.86714 2.31641 5.55303 2.31641H18.947C20.6329 2.31641 22 3.68354 22 5.36943V8.71354C22 10.3002 20.7136 11.5866 19.127 11.5866H18.873C17.2863 11.5866 16 10.2998 16 8.71326C16 8.29905 16.3358 7.96326 16.75 7.96326C17.1642 7.96326 17.5 8.29905 17.5 8.71326C17.5 9.47161 18.1149 10.0866 18.873 10.0866H19.127C19.8852 10.0866 20.5 9.47176 20.5 8.71354V5.36943C20.5 4.51197 19.8044 3.81641 18.947 3.81641H5.55303Z" fill="#000000" />
<path fill-rule="evenodd" clip-rule="evenodd" d="M7.75 7.96484C8.16421 7.96484 8.5 8.30063 8.5 8.71484C8.5 9.47306 9.11481 10.0879 9.87303 10.0879H10.127C10.8852 10.0879 11.5 9.47306 11.5 8.71484C11.5 8.30063 11.8358 7.96484 12.25 7.96484C12.6642 7.96484 13 8.30063 13 8.71484C13 10.3015 11.7136 11.5879 10.127 11.5879H9.87303C8.28638 11.5879 7 10.3015 7 8.71484C7 8.30063 7.33579 7.96484 7.75 7.96484Z" fill="#000000" />
<path fill-rule="evenodd" clip-rule="evenodd" d="M12.25 7.96484C12.6642 7.96484 13 8.30063 13 8.71484C13 9.47306 13.6148 10.0879 14.373 10.0879H14.627C15.3852 10.0879 16 9.47306 16 8.71484C16 8.30063 16.3358 7.96484 16.75 7.96484C17.1642 7.96484 17.5 8.30063 17.5 8.71484C17.5 10.3015 16.2136 11.5879 14.627 11.5879H14.373C12.7864 11.5879 11.5 10.3015 11.5 8.71484C11.5 8.30063 11.8358 7.96484 12.25 7.96484Z" fill="#000000" />
<path fill-rule="evenodd" clip-rule="evenodd" d="M20.1791 9.79297C20.5933 9.79297 20.9291 10.1288 20.9291 10.543V18.03L20.9291 18.0341C20.9181 20.0599 19.267 21.6924 17.2424 21.6814H7.07101C5.04562 21.6902 3.39652 20.0567 3.38674 18.0317L3.38672 18.028L3.38673 10.5508C3.38673 10.1365 3.72251 9.80075 4.13673 9.80075C4.55094 9.80075 4.88673 10.1365 4.88673 10.5508V18.0261C4.89341 19.2222 5.86803 20.1872 7.06565 20.1814L7.06927 20.1814L17.2491 20.1814C18.4454 20.1886 19.4216 19.2248 19.4291 18.0279V10.543C19.4291 10.1288 19.7649 9.79297 20.1791 9.79297Z" fill="#000000" />
<path fill-rule="evenodd" clip-rule="evenodd" d="M7.75 13.8906C8.16421 13.8906 8.5 14.2264 8.5 14.6406V15.9376C8.5 16.3518 8.16421 16.6876 7.75 16.6876C7.33579 16.6876 7 16.3518 7 15.9376V14.6406C7 14.2264 7.33579 13.8906 7.75 13.8906Z" fill="#000000" />
<path fill-rule="evenodd" clip-rule="evenodd" d="M11.4072 14.6406C11.4072 14.2264 11.743 13.8906 12.1572 13.8906H16.2028C16.6171 13.8906 16.9528 14.2264 16.9528 14.6406V20.9299C16.9528 21.3441 16.6171 21.6799 16.2028 21.6799C15.7886 21.6799 15.4528 21.3441 15.4528 20.9299V15.3906H12.9072V20.9299C12.9072 21.3441 12.5714 21.6799 12.1572 21.6799C11.743 21.6799 11.4072 21.3441 11.4072 20.9299V14.6406Z" fill="#000000" />
</svg>