<svg width="24px"  height="24px"  viewBox="0 0 25 24" fill="none" xmlns="http://www.w3.org/2000/svg">
<path fill-rule="evenodd" clip-rule="evenodd" d="M6.95 4.07031C6.204 4.07031 5.54452 4.54782 5.313 5.25455L5.31281 5.25514C5.1475 5.75836 4.93404 6.57896 4.76147 7.38625C4.58443 8.21447 4.4707 8.93715 4.4707 9.2788C4.4707 10.5554 5.52192 11.5324 6.72427 11.5324C7.91843 11.5324 8.97784 10.5138 8.97784 9.2788C8.97784 8.86458 9.31362 8.5288 9.72784 8.5288C10.1421 8.5288 10.4778 8.86458 10.4778 9.2788C10.4778 11.3616 8.7273 13.0324 6.72427 13.0324C4.72943 13.0324 2.9707 11.4193 2.9707 9.2788C2.9707 8.75742 3.12016 7.8888 3.29461 7.0727C3.47351 6.23579 3.69979 5.35918 3.88765 4.78725M3.88773 4.787C4.32191 3.46248 5.55762 2.57031 6.95 2.57031H18.4768C19.8645 2.57031 21.0949 3.4554 21.5349 4.77161L21.5349 4.77164C21.7266 5.345 21.9575 6.22434 22.14 7.06392C22.318 7.88219 22.4707 8.75444 22.4707 9.2788C22.4707 11.3108 20.7273 13.0324 18.7171 13.0324C16.7144 13.0324 14.9626 11.3619 14.9626 9.2788C14.9626 8.86458 15.2984 8.5288 15.7126 8.5288C16.1268 8.5288 16.4626 8.86458 16.4626 9.2788C16.4626 10.5135 17.5227 11.5324 18.7171 11.5324C19.9042 11.5324 20.9707 10.4771 20.9707 9.2788C20.9707 8.93722 20.8549 8.2133 20.6743 7.38263C20.4983 6.57327 20.2807 5.75091 20.1123 5.24718C19.8771 4.54349 19.22 4.07031 18.4768 4.07031H6.95" fill="#000000" />
<path fill-rule="evenodd" clip-rule="evenodd" d="M4.94434 13.8516C5.35855 13.8516 5.69434 14.1873 5.69434 14.6016V16.3325C5.69434 17.4503 6.04068 18.3423 6.60418 18.9476C7.16204 19.5469 7.98821 19.9258 9.07655 19.9258H16.3631C17.4521 19.9258 18.2785 19.5468 18.8364 18.9476C19.4 18.3423 19.7463 17.4503 19.7463 16.3325V14.6016C19.7463 14.1873 20.0821 13.8516 20.4963 13.8516C20.9106 13.8516 21.2463 14.1873 21.2463 14.6016V16.3325C21.2463 17.7599 20.8002 19.0397 19.9342 19.9697C19.0626 20.9058 17.8225 21.4258 16.3631 21.4258H9.07655C7.61765 21.4258 6.37771 20.9058 5.50628 19.9697C4.64048 19.0396 4.19434 17.7599 4.19434 16.3325V14.6016C4.19434 14.1873 4.53012 13.8516 4.94434 13.8516Z" fill="#000000" />
<path fill-rule="evenodd" clip-rule="evenodd" d="M9.7168 7.59375C10.131 7.59375 10.4668 7.92954 10.4668 8.34375V9.28267C10.4668 10.5274 11.4757 11.5362 12.7204 11.5362C13.9651 11.5362 14.9739 10.5274 14.9739 9.28267V8.34375C14.9739 7.92954 15.3097 7.59375 15.7239 7.59375C16.1381 7.59375 16.4739 7.92954 16.4739 8.34375V9.28267C16.4739 11.3558 14.7935 13.0362 12.7204 13.0362C10.6472 13.0362 8.9668 11.3558 8.9668 9.28267V8.34375C8.9668 7.92954 9.30258 7.59375 9.7168 7.59375Z" fill="#000000" />
</svg>