<svg width="24px"  height="24px"  viewBox="0 0 25 24" fill="none" xmlns="http://www.w3.org/2000/svg">
<path d="M18.6875 11.7158C17.698 11.7021 16.7528 11.3029 16.0531 10.6032C15.3533 9.90344 14.9542 8.95832 14.9405 7.96882C14.9405 7.76991 15.0195 7.57915 15.1601 7.43849C15.3008 7.29784 15.4915 7.21882 15.6905 7.21882C15.8894 7.21882 16.0801 7.29784 16.2208 7.43849C16.3614 7.57915 16.4405 7.76991 16.4405 7.96882C16.4482 8.56235 16.6875 9.12937 17.1072 9.5491C17.5269 9.96882 18.0939 10.2081 18.6875 10.2158C19.0338 10.2064 19.3746 10.1256 19.6884 9.97872C20.0022 9.83179 20.2824 9.62179 20.5114 9.36182C20.672 9.19163 20.7935 8.98851 20.8676 8.7666C20.9417 8.54469 20.9665 8.30931 20.9405 8.07682C20.7344 7.00745 20.4459 5.95563 20.0775 4.93082C19.9633 4.58896 19.7444 4.2917 19.4518 4.08117C19.1593 3.87064 18.8079 3.75752 18.4475 3.75782H6.94748C6.58567 3.75694 6.2329 3.87078 5.93985 4.08298C5.6468 4.29518 5.42851 4.59481 5.31643 4.93882C4.95523 5.96208 4.67143 7.01103 4.46743 8.07682C4.44149 8.30923 4.46635 8.54449 4.54025 8.76635C4.61415 8.98822 4.73536 9.19139 4.89547 9.36182C5.12487 9.62194 5.40541 9.83201 5.71957 9.97894C6.03373 10.1259 6.37477 10.2065 6.72146 10.2158C7.31534 10.2086 7.88286 9.96957 8.30301 9.54979C8.72316 9.13001 8.96271 8.56269 8.97049 7.96882C8.97049 7.76991 9.0495 7.57915 9.19015 7.43849C9.3308 7.29784 9.52157 7.21882 9.72049 7.21882C9.9194 7.21882 10.1102 7.29784 10.2508 7.43849C10.3915 7.57915 10.4705 7.76991 10.4705 7.96882C10.4568 8.95832 10.0576 9.90344 9.35782 10.6032C8.65807 11.3029 7.71298 11.7021 6.72348 11.7158C6.16151 11.7059 5.60783 11.5786 5.09793 11.3421C4.58802 11.1057 4.13315 10.7653 3.76248 10.3428C3.46038 10.0106 3.23432 9.61656 3.10013 9.18807C2.96593 8.75958 2.92679 8.30698 2.98544 7.86182C3.20394 6.71061 3.50746 5.57718 3.89346 4.47082C4.10344 3.82622 4.51234 3.26477 5.06143 2.86715C5.61052 2.46953 6.27155 2.2562 6.94949 2.25782H18.4495C19.125 2.25731 19.7834 2.46957 20.3314 2.86448C20.8795 3.25939 21.2892 3.81688 21.5025 4.45782C21.9013 5.56689 22.2103 6.70623 22.4265 7.86482C22.4847 8.31013 22.4452 8.76278 22.3106 9.19126C22.1761 9.61973 21.9498 10.0137 21.6475 10.3458C21.2769 10.7679 20.822 11.1078 20.3123 11.3437C19.8025 11.5797 19.2491 11.7064 18.6875 11.7158Z" fill="#000000" />
<path d="M12.705 11.7132C11.7119 11.7125 10.7597 11.3177 10.0574 10.6155C9.35512 9.91342 8.96004 8.96133 8.95898 7.96825V7.03125C8.95898 6.83234 9.038 6.64157 9.17865 6.50092C9.3193 6.36026 9.51007 6.28125 9.70898 6.28125C9.9079 6.28125 10.0987 6.36026 10.2393 6.50092C10.38 6.64157 10.459 6.83234 10.459 7.03125V7.96825C10.459 8.56392 10.6956 9.13521 11.1168 9.55641C11.538 9.97762 12.1093 10.2142 12.705 10.2142C13.3007 10.2142 13.8719 9.97762 14.2932 9.55641C14.7144 9.13521 14.951 8.56392 14.951 7.96825V7.03125C14.951 6.83234 15.03 6.64157 15.1707 6.50092C15.3113 6.36026 15.5021 6.28125 15.701 6.28125C15.8999 6.28125 16.0907 6.36026 16.2313 6.50092C16.372 6.64157 16.451 6.83234 16.451 7.03125V7.96825C16.4497 8.96125 16.0545 9.91318 15.3523 10.6152C14.65 11.3173 13.698 11.7122 12.705 11.7132Z" fill="#000000" />
<path d="M16.4486 21.6813H9.17952C8.51509 21.7054 7.85311 21.5887 7.23696 21.3388C6.62081 21.089 6.06445 20.7117 5.60439 20.2317C5.14432 19.7517 4.7909 19.1799 4.5674 18.5537C4.3439 17.9275 4.25534 17.2612 4.30751 16.5983V13.2773C4.30751 13.0784 4.38653 12.8877 4.52718 12.747C4.66783 12.6064 4.8586 12.5273 5.05751 12.5273C5.25643 12.5273 5.44719 12.6064 5.58785 12.747C5.7285 12.8877 5.80751 13.0784 5.80751 13.2773V16.5983C5.76128 17.0623 5.81507 17.5308 5.96523 17.9723C6.11538 18.4137 6.35844 18.8178 6.678 19.1574C6.99755 19.4969 7.38618 19.764 7.81771 19.9407C8.24923 20.1173 8.7136 20.1994 9.17952 20.1813H16.4486C16.9146 20.1995 17.3791 20.1175 17.8108 19.941C18.2425 19.7644 18.6313 19.4973 18.9511 19.1578C19.2708 18.8182 19.5141 18.4141 19.6644 17.9726C19.8147 17.5311 19.8686 17.0625 19.8225 16.5983V13.2773C19.8225 13.0784 19.9015 12.8877 20.0422 12.747C20.1828 12.6064 20.3736 12.5273 20.5725 12.5273C20.7714 12.5273 20.9622 12.6064 21.1029 12.747C21.2435 12.8877 21.3225 13.0784 21.3225 13.2773V16.5983C21.3747 17.2613 21.2861 17.9279 21.0625 18.5542C20.8389 19.1805 20.4853 19.7525 20.025 20.2325C19.5648 20.7125 19.0081 21.0898 18.3917 21.3395C17.7754 21.5892 17.1132 21.7057 16.4486 21.6813Z" fill="#000000" />
<path d="M15.3194 21.6797C15.1205 21.6797 14.9297 21.6007 14.7891 21.4601C14.6484 21.3194 14.5694 21.1286 14.5694 20.9297V17.8107C14.5752 17.5621 14.5312 17.3149 14.44 17.0835C14.3489 16.8521 14.2123 16.6413 14.0385 16.4634C13.8647 16.2856 13.6571 16.1442 13.4279 16.0477C13.1987 15.9513 12.9526 15.9015 12.7039 15.9015C12.4552 15.9015 12.209 15.9513 11.9798 16.0477C11.7506 16.1442 11.543 16.2856 11.3692 16.4634C11.1954 16.6413 11.0589 16.8521 10.9678 17.0835C10.8766 17.3149 10.8326 17.5621 10.8384 17.8107V20.9297C10.8384 21.1286 10.7594 21.3194 10.6187 21.4601C10.4781 21.6007 10.2873 21.6797 10.0884 21.6797C9.88948 21.6797 9.69871 21.6007 9.55806 21.4601C9.4174 21.3194 9.33839 21.1286 9.33839 20.9297V17.8107C9.33069 17.3639 9.41204 16.92 9.57771 16.5049C9.74338 16.0898 9.99008 15.7119 10.3034 15.3932C10.6166 15.0745 10.9902 14.8213 11.4024 14.6485C11.8145 14.4757 12.257 14.3867 12.7039 14.3867C13.1508 14.3867 13.5932 14.4757 14.0054 14.6485C14.4175 14.8213 14.7912 15.0745 15.1044 15.3932C15.4177 15.7119 15.6644 16.0898 15.83 16.5049C15.9957 16.92 16.0771 17.3639 16.0694 17.8107V20.9297C16.0694 21.1286 15.9904 21.3194 15.8497 21.4601C15.7091 21.6007 15.5183 21.6797 15.3194 21.6797Z" fill="#000000" />
<path d="M17.1575 14.8423C17.7158 14.8423 18.1685 14.3897 18.1685 13.8313C18.1685 13.273 17.7158 12.8203 17.1575 12.8203C16.5991 12.8203 16.1465 13.273 16.1465 13.8313C16.1465 14.3897 16.5991 14.8423 17.1575 14.8423Z" fill="#000000" />
</svg>