<svg width="24px"  height="24px"  viewBox="0 0 25 24" fill="none" xmlns="http://www.w3.org/2000/svg">
<path fill-rule="evenodd" clip-rule="evenodd" d="M4.80233 8.17384C4.80233 8.17388 4.80234 8.17381 4.80233 8.17384L4.48029 10.611C4.39254 11.274 4.8741 11.7671 5.37233 11.7671H20.0682C20.5665 11.7671 21.048 11.2742 20.9603 10.6112L20.6382 8.17384C20.6382 8.17381 20.6382 8.17388 20.6382 8.17384C20.568 7.64311 20.158 7.3125 19.7462 7.3125H5.69439C5.28254 7.3125 4.87259 7.64311 4.80233 8.17384ZM3.31529 7.97713C3.47469 6.77213 4.45998 5.8125 5.69439 5.8125H19.7462C20.9806 5.8125 21.9659 6.77213 22.1253 7.97713L22.4473 10.4144C22.4473 10.4144 22.4473 10.4143 22.4473 10.4144C22.6397 11.8686 21.5782 13.2671 20.0682 13.2671H5.37233C3.86239 13.2671 2.80084 11.8687 2.99322 10.4146C2.99322 10.4145 2.99321 10.4146 2.99322 10.4146L3.31529 7.97713Z" fill="#000000" />
<path fill-rule="evenodd" clip-rule="evenodd" d="M5.40039 11.7656C5.8146 11.7656 6.15039 12.1014 6.15039 12.5156V18.5656C6.15039 19.1178 6.59812 19.565 7.14884 19.565H18.2904C18.8418 19.565 19.2889 19.1181 19.2889 18.5656V12.5156C19.2889 12.1014 19.6247 11.7656 20.0389 11.7656C20.4531 11.7656 20.7889 12.1014 20.7889 12.5156V18.5656C20.7889 19.9455 19.6714 21.065 18.2904 21.065H7.14884C5.76916 21.065 4.65039 19.9457 4.65039 18.5656V12.5156C4.65039 12.1014 4.98618 11.7656 5.40039 11.7656Z" fill="#000000" />
<path fill-rule="evenodd" clip-rule="evenodd" d="M12.7197 16.3789C11.9605 16.3789 11.3438 16.9957 11.3438 17.7549V20.3158C11.3438 20.73 11.008 21.0658 10.5938 21.0658C10.1795 21.0658 9.84375 20.73 9.84375 20.3158V17.7549C9.84375 16.1672 11.1321 14.8789 12.7197 14.8789C14.3085 14.8789 15.5957 16.1675 15.5957 17.7549V20.3158C15.5957 20.73 15.2599 21.0658 14.8457 21.0658C14.4315 21.0658 14.0957 20.73 14.0957 20.3158V17.7549C14.0957 16.9954 13.4797 16.3789 12.7197 16.3789Z" fill="#000000" />
<path fill-rule="evenodd" clip-rule="evenodd" d="M7.14884 4.43359C6.59812 4.43359 6.15039 4.88078 6.15039 5.43301V6.55875C6.15039 6.97296 5.8146 7.30875 5.40039 7.30875C4.98618 7.30875 4.65039 6.97296 4.65039 6.55875V5.43301C4.65039 4.0529 5.76915 2.93359 7.14884 2.93359H18.2904C19.6714 2.93359 20.7889 4.05317 20.7889 5.43301V6.55875C20.7889 6.97296 20.4531 7.30875 20.0389 7.30875C19.6247 7.30875 19.2889 6.97296 19.2889 6.55875V5.43301C19.2889 4.88051 18.8418 4.43359 18.2904 4.43359H7.14884Z" fill="#000000" />
</svg>