<svg width="24px"  height="24px"  viewBox="0 0 25 24" fill="none" xmlns="http://www.w3.org/2000/svg">
<path fill-rule="evenodd" clip-rule="evenodd" d="M3.49627 6.91775C3.68648 5.91944 4.55954 5.19922 5.57369 5.19922H18.941C19.9597 5.19922 20.833 5.92447 21.0199 6.92556L21.6399 10.2363C21.8736 11.2847 21.076 12.2839 19.9976 12.2839H4.50345C3.42445 12.2839 2.62668 11.2837 2.86156 10.2347L3.49627 6.91775C3.49624 6.91788 3.4963 6.91761 3.49627 6.91775ZM5.57369 6.69922C5.27838 6.69922 5.02487 6.90895 4.96974 7.19861L4.33232 10.5297C4.33038 10.5399 4.32822 10.55 4.32586 10.5601C4.29905 10.6743 4.38579 10.7839 4.50345 10.7839H19.9976C20.1153 10.7839 20.202 10.6743 20.1752 10.5601C20.1726 10.549 20.1703 10.5379 20.1682 10.5268L19.5455 7.20128C19.4912 6.9103 19.2377 6.69922 18.941 6.69922H5.57369Z" fill="#000000" />
<path fill-rule="evenodd" clip-rule="evenodd" d="M6.75098 3C6.75098 2.58579 7.08676 2.25 7.50098 2.25H16.9999C17.4141 2.25 17.7499 2.58579 17.7499 3C17.7499 3.41421 17.4141 3.75 16.9999 3.75H7.50098C7.08676 3.75 6.75098 3.41421 6.75098 3Z" fill="#000000" />
<path fill-rule="evenodd" clip-rule="evenodd" d="M9.21582 5.19922C9.63003 5.19922 9.96582 5.53501 9.96582 5.94922V11.3316C9.96582 11.7458 9.63003 12.0816 9.21582 12.0816C8.80161 12.0816 8.46582 11.7458 8.46582 11.3316V5.94922C8.46582 5.53501 8.80161 5.19922 9.21582 5.19922ZM15.3414 5.19922C15.7556 5.19922 16.0914 5.53501 16.0914 5.94922V11.5339C16.0914 11.9481 15.7556 12.2839 15.3414 12.2839C14.9272 12.2839 14.5914 11.9481 14.5914 11.5339V5.94922C14.5914 5.53501 14.9272 5.19922 15.3414 5.19922Z" fill="#000000" />
<path fill-rule="evenodd" clip-rule="evenodd" d="M4.50488 10.7812C4.9191 10.7812 5.25488 11.117 5.25488 11.5312V19.1465C5.25488 19.7551 5.7483 20.248 6.35543 20.248H12.2438C12.2548 20.2475 12.2659 20.2473 12.2771 20.2473H16.27C16.2812 20.2473 16.2922 20.2475 16.3033 20.248H18.1446C18.7517 20.248 19.2452 19.7551 19.2452 19.1465V11.5312C19.2452 11.117 19.5809 10.7812 19.9952 10.7812C20.4094 10.7812 20.7452 11.117 20.7452 11.5312V19.1465C20.7452 20.583 19.5807 21.748 18.1446 21.748H6.35543C4.91936 21.748 3.75488 20.583 3.75488 19.1465V11.5312C3.75488 11.117 4.09067 10.7812 4.50488 10.7812Z" fill="#000000" />
<path fill-rule="evenodd" clip-rule="evenodd" d="M6.96289 15.9844C6.96289 15.5702 7.29868 15.2344 7.71289 15.2344H8.824C9.23821 15.2344 9.574 15.5702 9.574 15.9844C9.574 16.3986 9.23821 16.7344 8.824 16.7344H7.71289C7.29868 16.7344 6.96289 16.3986 6.96289 15.9844Z" fill="#000000" />
<path fill-rule="evenodd" clip-rule="evenodd" d="M14.2738 15.8008C13.5857 15.8008 13.0273 16.3591 13.0273 17.0473V21.0003C13.0273 21.4146 12.6916 21.7503 12.2773 21.7503C11.8631 21.7503 11.5273 21.4146 11.5273 21.0003V17.0473C11.5273 15.5307 12.7573 14.3008 14.2738 14.3008C15.7904 14.3008 17.0203 15.5307 17.0203 17.0473V21.0003C17.0203 21.4146 16.6845 21.7503 16.2703 21.7503C15.8561 21.7503 15.5203 21.4146 15.5203 21.0003V17.0473C15.5203 16.3591 14.962 15.8008 14.2738 15.8008Z" fill="#000000" />
</svg>