<svg width="24px"  height="24px"  viewBox="0 0 25 24" fill="none" xmlns="http://www.w3.org/2000/svg">
<path fill-rule="evenodd" clip-rule="evenodd" d="M5.55303 7.31641C4.69515 7.31641 4 8.01141 4 8.86846V10.3912C4 11.1494 4.61481 11.7642 5.37303 11.7642H5.62697C6.38548 11.7642 7 11.1497 7 10.3918C7 9.97757 7.33579 9.64179 7.75 9.64179C8.16421 9.64179 8.5 9.97757 8.5 10.3918C8.5 11.15 9.11481 11.7648 9.87303 11.7648H10.127C10.8852 11.7648 11.5 11.15 11.5 10.3918C11.5 9.97757 11.8358 9.64179 12.25 9.64179C12.6642 9.64179 13 9.97757 13 10.3918C13 11.15 13.6148 11.7648 14.373 11.7648H14.627C15.3852 11.7648 16 11.15 16 10.3918C16 9.97757 16.3358 9.64179 16.75 9.64179C17.1642 9.64179 17.5 9.97757 17.5 10.3918C17.5 11.1497 18.1145 11.7642 18.873 11.7642H19.127C19.8852 11.7642 20.5 11.1494 20.5 10.3912V8.86846C20.5 8.01141 19.8048 7.31641 18.947 7.31641H5.55303ZM16.7501 12.3273C17.2756 12.9031 18.0322 13.2642 18.873 13.2642H19.127C20.7136 13.2642 22 11.9778 22 10.3912V8.86846C22 7.18216 20.6325 5.81641 18.947 5.81641H5.55303C3.86755 5.81641 2.5 7.18216 2.5 8.86846V10.3912C2.5 11.9778 3.78638 13.2642 5.37303 13.2642H5.62697C6.46778 13.2642 7.2244 12.9031 7.74987 12.3273C8.27531 12.9034 9.03198 13.2648 9.87303 13.2648H10.127C10.968 13.2648 11.7246 12.9034 12.25 12.3275C12.7754 12.9034 13.532 13.2648 14.373 13.2648H14.627C15.468 13.2648 16.2247 12.9034 16.7501 12.3273Z" fill="#000000" />
<path fill-rule="evenodd" clip-rule="evenodd" d="M19.5613 11.7188C19.9755 11.7188 20.3113 12.0545 20.3113 12.4688V18.5566C20.3113 19.9353 19.193 21.0531 17.8138 21.0531H6.68594C5.30751 21.0531 4.18945 19.9351 4.18945 18.5566V12.4707C4.18945 12.0565 4.52524 11.7207 4.93945 11.7207C5.35367 11.7207 5.68945 12.0565 5.68945 12.4707V18.5566C5.68945 19.1066 6.13594 19.5531 6.68594 19.5531H17.8138C18.3651 19.5531 18.8113 19.1064 18.8113 18.5566V12.4688C18.8113 12.0545 19.1471 11.7188 19.5613 11.7188Z" fill="#000000" />
<path fill-rule="evenodd" clip-rule="evenodd" d="M12.25 16.375C11.4918 16.375 10.877 16.9898 10.877 17.748V20.306C10.877 20.7202 10.5412 21.056 10.127 21.056C9.71274 21.056 9.37695 20.7202 9.37695 20.306V17.748C9.37695 16.1614 10.6633 14.875 12.25 14.875C13.8366 14.875 15.123 16.1614 15.123 17.748V20.306C15.123 20.7202 14.7872 21.056 14.373 21.056C13.9588 21.056 13.623 20.7202 13.623 20.306V17.748C13.623 16.9898 13.0082 16.375 12.25 16.375Z" fill="#000000" />
<path fill-rule="evenodd" clip-rule="evenodd" d="M6.68594 4.44531C6.13594 4.44531 5.68945 4.8918 5.68945 5.4418V6.56656C5.68945 6.98077 5.35367 7.31656 4.93945 7.31656C4.52524 7.31656 4.18945 6.98077 4.18945 6.56656V5.4418C4.18945 4.06337 5.30751 2.94531 6.68594 2.94531H17.8138C19.193 2.94531 20.3113 4.0631 20.3113 5.4418V6.56656C20.3113 6.98077 19.9755 7.31656 19.5613 7.31656C19.1471 7.31656 18.8113 6.98077 18.8113 6.56656V5.4418C18.8113 4.89207 18.3651 4.44531 17.8138 4.44531H6.68594Z" fill="#000000" />
</svg>