<svg width="24px"  height="24px"  viewBox="0 0 25 24" fill="none" xmlns="http://www.w3.org/2000/svg">
<path fill-rule="evenodd" clip-rule="evenodd" d="M11.4747 2.79487C11.947 2.49025 12.553 2.49025 13.0253 2.79487L21.3466 8.16758C21.7518 8.43026 22 8.88126 22 9.36805V10.0336C22 10.8233 21.3597 11.4637 20.5699 11.4637H3.92914C3.13963 11.4637 2.5 10.8227 2.5 10.0336V9.36805C2.5 8.88342 2.74538 8.43144 3.15242 8.16758L11.4747 2.79487ZM12.25 4.07979L4 9.40582V9.96368H20.5V9.40645L12.25 4.07979Z" fill="#000000" />
<path fill-rule="evenodd" clip-rule="evenodd" d="M2.5 20.6836C2.5 20.2694 2.83579 19.9336 3.25 19.9336H21.25C21.6642 19.9336 22 20.2694 22 20.6836C22 21.0978 21.6642 21.4336 21.25 21.4336H3.25C2.83579 21.4336 2.5 21.0978 2.5 20.6836Z" fill="#000000" />
<path fill-rule="evenodd" clip-rule="evenodd" d="M9.96875 7.71484C9.96875 7.30063 10.3045 6.96484 10.7188 6.96484H13.7807C14.1949 6.96484 14.5307 7.30063 14.5307 7.71484C14.5307 8.12906 14.1949 8.46484 13.7807 8.46484H10.7188C10.3045 8.46484 9.96875 8.12906 9.96875 7.71484Z" fill="#000000" />
<path fill-rule="evenodd" clip-rule="evenodd" d="M5.42188 9.96484C5.83609 9.96484 6.17188 10.3006 6.17188 10.7148V20.683C6.17188 21.0972 5.83609 21.433 5.42188 21.433C5.00766 21.433 4.67188 21.0972 4.67188 20.683V10.7148C4.67188 10.3006 5.00766 9.96484 5.42188 9.96484ZM9.31567 9.96484C9.72988 9.96484 10.0657 10.3006 10.0657 10.7148V20.683C10.0657 21.0972 9.72988 21.433 9.31567 21.433C8.90145 21.433 8.56567 21.0972 8.56567 20.683V10.7148C8.56567 10.3006 8.90145 9.96484 9.31567 9.96484ZM15.182 9.96484C15.5962 9.96484 15.932 10.3006 15.932 10.7148V20.683C15.932 21.0972 15.5962 21.433 15.182 21.433C14.7678 21.433 14.432 21.0972 14.432 20.683V10.7148C14.432 10.3006 14.7678 9.96484 15.182 9.96484ZM19.0758 9.96484C19.49 9.96484 19.8258 10.3006 19.8258 10.7148V20.683C19.8258 21.0972 19.49 21.433 19.0758 21.433C18.6616 21.433 18.3258 21.0972 18.3258 20.683V10.7148C18.3258 10.3006 18.6616 9.96484 19.0758 9.96484Z" fill="#000000" />
</svg>