<svg width="24px"  height="24px"  viewBox="0 0 24 24" fill="none" xmlns="http://www.w3.org/2000/svg">
<path d="M5.71031 22.2304C5.71031 22.2304 5.6603 22.2304 5.6303 22.2304C5.2203 22.1904 4.92031 21.8204 4.96031 21.4104C5.10031 20.1304 5.31029 16.5004 4.69029 15.0104L4.41033 14.3404C3.39033 11.9404 2.34035 9.4704 3.62035 6.5304C4.90035 3.5704 7.79032 1.83042 11.5303 1.74042C13.8803 1.70042 15.6503 2.2204 17.0703 3.4104C19.1203 5.1404 19.3903 7.40042 19.6203 9.40042C19.6803 9.94042 19.7403 10.4704 19.8403 10.9704C19.9303 11.4104 20.1703 11.9204 20.4203 12.4504C20.6903 13.0104 20.9703 13.6004 21.1203 14.2204C21.3403 15.6104 20.2303 15.9204 19.7603 16.0504C19.6203 16.0904 19.3503 16.1704 19.3003 16.2204L19.1703 18.5804C19.0103 19.4404 18.2803 20.0704 17.4103 20.1104L14.9003 20.2304V21.4704C14.9003 21.8804 14.5603 22.2204 14.1503 22.2204C13.7403 22.2204 13.4003 21.8804 13.4003 21.4704V20.1404C13.4003 19.3904 13.9803 18.7804 14.7303 18.7404L17.3403 18.6204C17.5003 18.6204 17.6403 18.5004 17.6903 18.3404L17.8203 15.9704C18.0103 14.9804 18.8903 14.7304 19.3603 14.6004C19.4503 14.5804 19.5603 14.5404 19.6503 14.5104C19.5403 14.0504 19.3103 13.5804 19.0803 13.0904C18.7903 12.4904 18.5003 11.8804 18.3803 11.2504C18.2803 10.7104 18.2103 10.1404 18.1403 9.57041C17.9203 7.68041 17.7103 5.90042 16.1103 4.55042C14.9903 3.61042 13.5603 3.18041 11.5703 3.23041C8.4403 3.30041 6.0403 4.72041 5.0103 7.11041C3.9903 9.45041 4.83029 11.4404 5.81029 13.7304L6.10033 14.4104C6.98033 16.5204 6.53033 21.0404 6.48033 21.5504C6.44033 21.9404 6.11033 22.2204 5.73033 22.2204L5.71031 22.2304Z" fill="#000000" />
<path d="M10.0002 9.70071H8.21025C7.91025 9.70071 7.64025 9.5307 7.52025 9.2507C7.40025 8.9807 7.45025 8.6607 7.65025 8.4407L8.30028 7.7207H8.21025C7.80025 7.7207 7.46025 7.3807 7.46025 6.9707C7.46025 6.5607 7.80025 6.2207 8.21025 6.2207H10.0002C10.3002 6.2207 10.5702 6.39072 10.6902 6.67072C10.8102 6.94072 10.7602 7.26071 10.5602 7.48071L9.91026 8.20071H10.0002C10.4102 8.20071 10.7502 8.54071 10.7502 8.95071C10.7502 9.36071 10.4102 9.70071 10.0002 9.70071Z" fill="#000000" />
<path d="M14.0503 14.1914H11.5602C11.2602 14.1914 10.9903 14.0214 10.8703 13.7414C10.7503 13.4714 10.8002 13.1514 11.0002 12.9314L12.3503 11.4414H11.5503C11.1403 11.4414 10.8003 11.1014 10.8003 10.6914C10.8003 10.2814 11.1403 9.94141 11.5503 9.94141H14.0403C14.3403 9.94141 14.6103 10.1114 14.7303 10.3914C14.8503 10.6614 14.8003 10.9814 14.6003 11.2014L13.2502 12.6914H14.0503C14.4603 12.6914 14.8003 13.0314 14.8003 13.4414C14.8003 13.8514 14.4603 14.1914 14.0503 14.1914Z" fill="#000000" />
</svg>