<svg width="24px"  height="24px"  viewBox="0 0 24 24" fill="none" xmlns="http://www.w3.org/2000/svg">
<path d="M5.6212 22.2304C5.6212 22.2304 5.57118 22.2304 5.54118 22.2304C5.13118 22.1904 4.8312 21.8204 4.8712 21.4104C5.0112 20.1304 5.22118 16.5004 4.60118 15.0104L4.32121 14.3404C3.30121 11.9404 2.25124 9.4704 3.53124 6.5304C4.81124 3.5704 7.70121 1.83042 11.4412 1.74042C13.8012 1.70042 15.5612 2.2204 16.9812 3.4104C19.0312 5.1404 19.3012 7.40042 19.5312 9.40042C19.5912 9.94042 19.6512 10.4704 19.7512 10.9704C19.8412 11.4104 20.0812 11.9204 20.3312 12.4504C20.6012 13.0104 20.8812 13.6004 21.0312 14.2204C21.2512 15.6104 20.1412 15.9204 19.6712 16.0504C19.5312 16.0904 19.2612 16.1704 19.2112 16.2204L19.0812 18.5804C18.9212 19.4404 18.1912 20.0704 17.3212 20.1104L14.8112 20.2304V21.4704C14.8112 21.8804 14.4712 22.2204 14.0612 22.2204C13.6512 22.2204 13.3112 21.8804 13.3112 21.4704V20.1404C13.3112 19.3904 13.8912 18.7804 14.6412 18.7404L17.2512 18.6204C17.4112 18.6204 17.5512 18.5004 17.6012 18.3404L17.7312 15.9704C17.9212 14.9804 18.8012 14.7304 19.2712 14.6004C19.3612 14.5804 19.4712 14.5404 19.5612 14.5104C19.4512 14.0504 19.2212 13.5804 18.9912 13.0904C18.7012 12.4904 18.4112 11.8804 18.2912 11.2504C18.1912 10.7104 18.1212 10.1404 18.0512 9.57041C17.8312 7.68041 17.6212 5.90042 16.0212 4.55042C14.9012 3.61042 13.4712 3.18041 11.4812 3.23041C8.35119 3.30041 5.95119 4.72041 4.92119 7.11041C3.90119 9.45041 4.74118 11.4404 5.72118 13.7304L6.01122 14.4104C6.89122 16.5204 6.44122 21.0404 6.39122 21.5504C6.35122 21.9404 6.02122 22.2204 5.64122 22.2204L5.6212 22.2304Z" fill="#000000" />
<path d="M9.07129 12.1709C7.84129 12.1709 6.84131 11.1709 6.84131 9.94092C6.84131 8.71092 7.84129 7.71094 9.07129 7.71094C10.3013 7.71094 11.3013 8.71092 11.3013 9.94092C11.3013 11.1709 10.3013 12.1709 9.07129 12.1709ZM9.07129 9.21094C8.67129 9.21094 8.34131 9.54092 8.34131 9.94092C8.34131 10.3409 8.67129 10.6709 9.07129 10.6709C9.47129 10.6709 9.80127 10.3409 9.80127 9.94092C9.80127 9.54092 9.47129 9.21094 9.07129 9.21094Z" fill="#000000" />
<path d="M10.5513 10.691C10.1413 10.691 9.80127 10.351 9.80127 9.941V6.29101C9.80127 5.93101 10.0613 5.62102 10.4113 5.55102C10.7713 5.48102 11.1213 5.68102 11.2513 6.02102C11.2513 6.04102 11.5113 6.64102 12.1213 6.77102C12.5313 6.85102 12.7913 7.25102 12.7113 7.65102C12.6313 8.06102 12.2213 8.32102 11.8313 8.24102C11.6413 8.20102 11.4713 8.14101 11.3113 8.07101V9.941C11.3113 10.351 10.9713 10.691 10.5613 10.691H10.5513Z" fill="#000000" />
<path d="M13.1112 16.1101C12.0712 16.1101 11.2212 15.2601 11.2212 14.2201C11.2212 13.1801 12.0712 12.3301 13.1112 12.3301C14.1512 12.3301 15.0012 13.1801 15.0012 14.2201C15.0012 15.2601 14.1512 16.1101 13.1112 16.1101ZM13.1112 13.8401C12.9012 13.8401 12.7212 14.0101 12.7212 14.2301C12.7212 14.4501 12.8912 14.6201 13.1112 14.6201C13.3312 14.6201 13.5012 14.4501 13.5012 14.2301C13.5012 14.0101 13.3312 13.8401 13.1112 13.8401Z" fill="#000000" />
<path d="M14.2412 14.9802C13.8312 14.9802 13.4912 14.6402 13.4912 14.2302V10.9903C13.4912 10.6303 13.7512 10.3202 14.1012 10.2502C14.4612 10.1802 14.8112 10.3802 14.9412 10.7202C14.9412 10.7302 15.1612 11.2303 15.6512 11.3303C16.0612 11.4103 16.3212 11.8102 16.2312 12.2202C16.1512 12.6302 15.7512 12.8903 15.3512 12.8003C15.2212 12.7703 15.1012 12.7402 14.9912 12.7002V14.2403C14.9912 14.6503 14.6512 14.9903 14.2412 14.9903V14.9802Z" fill="#000000" />
</svg>