<svg width="24px"  height="24px"  viewBox="0 0 24 24" fill="none" xmlns="http://www.w3.org/2000/svg">
<path d="M13.9806 22.2296C13.9806 22.2296 13.8906 22.2296 13.8406 22.2196C13.4306 22.1396 13.1606 21.7496 13.2406 21.3496C13.2806 21.1396 13.6506 19.3096 14.9306 18.6396C15.2906 18.4496 15.7506 18.5896 15.9406 18.9496C16.1306 19.3196 15.9906 19.7696 15.6306 19.9596C15.1206 20.2296 14.8006 21.1896 14.7206 21.6196C14.6506 21.9796 14.3406 22.2296 13.9806 22.2296Z" fill="#000000" />
<path d="M5.28033 21.9906C5.18033 21.9906 5.08032 21.9706 4.98032 21.9306C4.60032 21.7606 4.43032 21.3206 4.59032 20.9406C5.60032 18.6306 5.32033 16.0306 3.74033 13.2106C2.54033 11.0606 2.39033 8.79061 3.32033 6.66061C4.62033 3.66061 7.71032 1.82062 11.5803 1.73062C13.9903 1.69062 15.7703 2.22063 17.2003 3.43063C19.5703 5.43063 20.4403 7.6706 19.8603 10.2806C19.6803 11.0806 20.1103 12.1906 21.1403 13.5706C21.4303 13.9606 21.5203 14.4506 21.3903 14.9006C21.2603 15.3506 20.9203 15.7106 20.4703 15.8906L19.5403 16.2506L19.1903 18.9006C19.1103 19.4406 18.8503 19.8706 18.4503 20.1506C18.0303 20.4406 17.5003 20.5406 16.9503 20.4206L13.1403 19.5406C12.7403 19.4506 12.4803 19.0406 12.5803 18.6406C12.6703 18.2406 13.0803 17.9806 13.4803 18.0806L17.2803 18.9506C17.4003 18.9706 17.5203 18.9606 17.6003 18.9106C17.6603 18.8706 17.6903 18.8006 17.7103 18.7006L18.0203 16.0806C18.1303 15.4906 18.5103 15.0406 19.0103 14.8506L19.9403 14.4906C18.6303 12.6906 18.1203 11.2206 18.4003 9.95059C18.8503 7.91059 18.1603 6.20064 16.2303 4.57064C15.0903 3.61064 13.6003 3.17061 11.6103 3.22061C8.34032 3.29061 5.75032 4.80063 4.69032 7.24063C3.95032 8.95063 4.07032 10.7106 5.05032 12.4606C6.84032 15.6706 7.16032 18.8106 5.97032 21.5306C5.85032 21.8106 5.57033 21.9806 5.28033 21.9806V21.9906Z" fill="#000000" />
<path d="M11.2803 17.0009C10.0003 17.0009 8.96027 15.9609 8.96027 14.6809V13.8209C7.47027 12.9909 6.53027 11.4209 6.53027 9.68092C6.53027 8.25092 7.17027 6.91094 8.27027 6.01094C9.38027 5.10094 10.8403 4.75091 12.2703 5.04091C14.0803 5.41091 15.5503 6.87092 15.9303 8.68092C16.3603 10.7509 15.3903 12.8309 13.6103 13.8309V14.6909C13.6103 15.9709 12.5703 17.0109 11.2903 17.0109L11.2803 17.0009ZM11.2803 6.43092C10.5303 6.43092 9.80027 6.6809 9.21027 7.1609C8.45027 7.7809 8.02027 8.70091 8.02027 9.67091C8.02027 10.9709 8.79027 12.1409 9.99027 12.6509C10.2703 12.7709 10.4503 13.0409 10.4503 13.3409V14.6709C10.4503 15.1209 10.8203 15.4909 11.2703 15.4909C11.7203 15.4909 12.0903 15.1209 12.0903 14.6709V13.3509C12.0903 13.0509 12.2703 12.7809 12.5503 12.6609C13.9703 12.0609 14.7603 10.5109 14.4403 8.9709C14.1803 7.7409 13.1803 6.74092 11.9503 6.49092C11.7203 6.44092 11.5003 6.42091 11.2703 6.42091L11.2803 6.43092Z" fill="#000000" />
<path d="M12.8607 14.1113H11.4307C11.0207 14.1113 10.6807 13.7713 10.6807 13.3613C10.6807 12.9513 11.0207 12.6113 11.4307 12.6113H12.8607C13.2707 12.6113 13.6107 12.9513 13.6107 13.3613C13.6107 13.7713 13.2707 14.1113 12.8607 14.1113Z" fill="#000000" />
<path d="M11.2704 11.8901C11.1504 11.8901 11.0304 11.8602 10.9104 11.8002C10.5504 11.6002 10.4104 11.1502 10.6104 10.7802L10.8504 10.3502H10.4404C10.1804 10.3502 9.9304 10.2102 9.8004 9.98017C9.6704 9.75017 9.6604 9.47018 9.7904 9.24018L10.6304 7.70014C10.8304 7.34014 11.2804 7.20015 11.6504 7.40015C12.0104 7.60015 12.1504 8.05017 11.9504 8.42017L11.7104 8.85016H12.1204C12.3804 8.85016 12.6304 8.99016 12.7704 9.22016C12.9004 9.45016 12.9104 9.73015 12.7804 9.96015L11.9404 11.5002C11.8004 11.7502 11.5504 11.8901 11.2804 11.8901H11.2704Z" fill="#000000" />
</svg>