<svg width="24px"  height="24px"  viewBox="0 0 24 24" fill="none" xmlns="http://www.w3.org/2000/svg">
<path d="M5.71059 22.2295C5.71059 22.2295 5.66059 22.2295 5.63059 22.2295C5.22059 22.1895 4.92059 21.8195 4.96059 21.4095C5.09059 20.1295 5.31059 16.4995 4.69059 15.0095L4.41059 14.3395C3.39059 11.9395 2.34059 9.45953 3.62059 6.52953C4.90059 3.56953 7.79059 1.82955 11.5306 1.73955C13.8806 1.68955 15.6506 2.21954 17.0706 3.40954C19.1206 5.13954 19.3906 7.40956 19.6206 9.39956C19.6806 9.93956 19.7406 10.4695 19.8406 10.9695C19.9306 11.4095 20.1706 11.9195 20.4206 12.4495C20.6906 13.0095 20.9706 13.5995 21.1206 14.2195C21.3406 15.6095 20.2306 15.9196 19.7606 16.0496C19.6106 16.0896 19.3506 16.1695 19.3006 16.2195L19.1706 18.5796C19.0106 19.4396 18.2806 20.0695 17.4106 20.1096L14.9006 20.2295V21.4695C14.9006 21.8795 14.5606 22.2195 14.1506 22.2195C13.7406 22.2195 13.4006 21.8795 13.4006 21.4695V20.1395C13.4006 19.3895 13.9806 18.7796 14.7306 18.7396L17.3406 18.6196C17.5006 18.6196 17.6406 18.4995 17.6906 18.3395L17.8206 15.9695C18.0106 14.9795 18.8906 14.7295 19.3606 14.5995C19.4506 14.5795 19.5606 14.5395 19.6406 14.5095C19.5306 14.0495 19.3006 13.5795 19.0706 13.0895C18.7806 12.4895 18.4906 11.8796 18.3706 11.2396C18.2706 10.6996 18.2006 10.1395 18.1306 9.55953C17.9106 7.66953 17.7006 5.88954 16.1006 4.53954C14.9806 3.58954 13.5306 3.16954 11.5706 3.21954C8.44059 3.28954 6.05058 4.70954 5.01058 7.09954C3.99058 9.43954 4.83059 11.4295 5.81059 13.7295L6.10059 14.4095C6.98059 16.5195 6.53059 21.0396 6.48059 21.5496C6.44059 21.9296 6.11059 22.2195 5.74059 22.2195L5.71059 22.2295Z" fill="#000000" />
<path d="M12.0801 14.9501H9.83008C9.42008 14.9501 9.08008 14.6101 9.08008 14.2001V11.0801C9.08008 10.6701 9.42008 10.3301 9.83008 10.3301H12.0101C13.2301 10.3301 14.2701 11.2501 14.3801 12.4201C14.4401 13.0701 14.2301 13.7201 13.7901 14.2001C13.3501 14.6801 12.7301 14.9601 12.0801 14.9601V14.9501ZM10.5801 13.4501H12.0801C12.3101 13.4501 12.5201 13.3601 12.6801 13.1801C12.8401 13.0101 12.9101 12.7801 12.8901 12.5501C12.8501 12.1401 12.4701 11.8201 12.0201 11.8201H10.5901V13.4401L10.5801 13.4501Z" fill="#000000" />
<path d="M12.0801 11.8309H9.83008C9.42008 11.8309 9.08008 11.4909 9.08008 11.0809V7.96094C9.08008 7.55094 9.42008 7.21094 9.83008 7.21094H12.0101C13.2301 7.21094 14.2701 8.13093 14.3801 9.30093C14.4401 9.95093 14.2301 10.6009 13.7901 11.0809C13.3501 11.5609 12.7301 11.8409 12.0801 11.8409V11.8309ZM10.5801 10.3309H12.0801C12.3101 10.3309 12.5201 10.2409 12.6801 10.0609C12.8401 9.89091 12.9101 9.66094 12.8901 9.43094C12.8501 9.02094 12.4701 8.70093 12.0201 8.70093H10.5901V10.3209L10.5801 10.3309Z" fill="#000000" />
<path d="M11.4502 15.8809C11.0402 15.8809 10.7002 15.5409 10.7002 15.1309V14.2109C10.7002 13.8009 11.0402 13.4609 11.4502 13.4609C11.8602 13.4609 12.2002 13.8009 12.2002 14.2109V15.1309C12.2002 15.5409 11.8602 15.8809 11.4502 15.8809Z" fill="#000000" />
<path d="M11.4502 8.71103C11.0402 8.71103 10.7002 8.37103 10.7002 7.96103V7.04102C10.7002 6.63102 11.0402 6.29102 11.4502 6.29102C11.8602 6.29102 12.2002 6.63102 12.2002 7.04102V7.96103C12.2002 8.37103 11.8602 8.71103 11.4502 8.71103Z" fill="#000000" />
</svg>