<svg width="24px"  height="24px"  viewBox="0 0 24 24" fill="none" xmlns="http://www.w3.org/2000/svg">
<path d="M5.70028 22.2302C5.70028 22.2302 5.65028 22.2302 5.62028 22.2302C5.21028 22.1902 4.91028 21.8202 4.95028 21.4102C5.08028 20.1302 5.30028 16.5002 4.68028 15.0102L4.40028 14.3402C3.38028 11.9402 2.34028 9.47019 3.61028 6.54019C4.89028 3.58019 7.78027 1.84018 11.5203 1.75018C13.8703 1.71018 15.6403 2.23019 17.0503 3.42019C19.1103 5.15019 19.3703 7.42019 19.6003 9.41019C19.6603 9.95019 19.7203 10.4802 19.8203 10.9802C19.9103 11.4202 20.1503 11.9302 20.4003 12.4602C20.6703 13.0302 20.9503 13.6102 21.1003 14.2302C21.3203 15.6202 20.2103 15.9302 19.7403 16.0602C19.6003 16.1002 19.3303 16.1802 19.2803 16.2302L19.1503 18.5902C18.9903 19.4502 18.2603 20.0802 17.3903 20.1202L14.8803 20.2402V21.4702C14.8803 21.8802 14.5403 22.2202 14.1303 22.2202C13.7203 22.2202 13.3803 21.8802 13.3803 21.4702V20.1402C13.3803 19.3902 13.9603 18.7802 14.7103 18.7402L17.3203 18.6202C17.4803 18.6202 17.6203 18.5002 17.6703 18.3402L17.8003 15.9802C17.9903 14.9802 18.8703 14.7402 19.3403 14.6102C19.4303 14.5902 19.5403 14.5502 19.6203 14.5202C19.5103 14.0602 19.2803 13.5902 19.0503 13.0902C18.7603 12.4902 18.4703 11.8802 18.3503 11.2502C18.2503 10.7102 18.1803 10.1402 18.1103 9.57018C17.8903 7.68018 17.6803 5.90019 16.0803 4.55019C14.9603 3.61019 13.5203 3.18019 11.5503 3.23019C8.42029 3.30019 6.03027 4.71019 4.99027 7.11019C3.97027 9.45018 4.81028 11.4402 5.79028 13.7302L6.08029 14.4102C6.96029 16.5202 6.51028 21.0402 6.45028 21.5502C6.41028 21.9402 6.08028 22.2202 5.71027 22.2202L5.70028 22.2302Z" fill="#000000" />
<path d="M8.3301 12.7299C8.2301 12.7299 8.13009 12.7099 8.03009 12.6699C7.65009 12.4999 7.48009 12.0599 7.64009 11.6799L9.64009 7.11992C9.76009 6.84992 10.0301 6.66992 10.3201 6.66992C10.6101 6.66992 10.8801 6.83992 11.0001 7.10992L13.0501 11.6699C13.2201 12.0499 13.0501 12.4899 12.6701 12.6599C12.2901 12.8299 11.8501 12.6599 11.6801 12.2799L10.3201 9.25992L9.00009 12.2799C8.88009 12.5599 8.60009 12.7299 8.31009 12.7299H8.3301Z" fill="#000000" />
<path d="M11.8501 10.0605H8.87012V11.5605H11.8501V10.0605Z" fill="#000000" />
<path d="M14.5903 12.7301C14.1803 12.7301 13.8403 12.3901 13.8403 11.9801V7.58008C13.8403 7.17008 14.1803 6.83008 14.5903 6.83008C15.0003 6.83008 15.3403 7.17008 15.3403 7.58008V11.9801C15.3403 12.3901 15.0003 12.7301 14.5903 12.7301Z" fill="#000000" />
</svg>