<svg width="24px"  height="24px"  viewBox="0 0 24 24" fill="none" xmlns="http://www.w3.org/2000/svg">
<path d="M10.2004 22.2301C9.85039 22.2301 9.5304 21.9801 9.4604 21.6201C9.3804 21.1901 9.05042 20.2201 8.55042 19.9601C8.18042 19.7701 8.04043 19.3101 8.24043 18.9501C8.43043 18.5901 8.89037 18.4401 9.25037 18.6401C10.5304 19.3101 10.9004 21.1501 10.9404 21.3501C11.0204 21.7601 10.7504 22.1501 10.3404 22.2201C10.2904 22.2201 10.2504 22.2301 10.2004 22.2301Z" fill="#000000" />
<path d="M5.7103 20.1504C5.3103 19.8704 5.05031 19.4404 4.97031 18.9304L4.66031 16.2604L3.69028 15.9004C3.24028 15.7304 2.9003 15.3704 2.7703 14.9104C2.6403 14.4504 2.7303 13.9704 3.0203 13.5804C4.0503 12.2004 4.48033 11.0904 4.30033 10.2904C3.72033 7.68037 4.5903 5.44036 6.9603 3.44036C8.4003 2.23036 10.1803 1.70038 12.5803 1.74038C12.9903 1.74038 13.3203 2.09037 13.3103 2.51037C13.3103 2.92037 12.9703 3.24038 12.5603 3.24038H12.5403C10.5303 3.19038 9.06032 3.62036 7.92032 4.59036C5.99032 6.22036 5.30028 7.93036 5.75028 9.97036C6.03028 11.2304 5.5203 12.7104 4.2103 14.4804L5.14029 14.8704C5.65029 15.0604 6.02033 15.5004 6.12033 16.0404L6.44028 18.7404C6.45028 18.8204 6.49033 18.8904 6.55033 18.9304C6.62033 18.9804 6.74028 18.9904 6.88028 18.9704L9.6503 18.3404C9.90364 18.287 10.077 18.0804 10.1703 17.7204L10.2403 17.4804C10.3503 17.0804 10.7603 16.8504 11.1603 16.9604C11.5603 17.0704 11.7903 17.4804 11.6803 17.8804L11.6203 18.1104C11.4303 18.8404 11.2503 19.5304 9.98032 19.8104L7.20029 20.4404C6.6936 20.5354 6.13933 20.4507 5.7103 20.1504Z" fill="#000000" />
<path d="M14.5204 12.0399H12.7104C11.6804 12.0399 10.9304 11.2699 10.9304 10.2099V8.49991C10.9304 7.43991 11.6804 6.66992 12.7104 6.66992H14.5204C15.5504 6.66992 16.3004 7.43991 16.3004 8.49991V10.2099C16.3004 11.2699 15.5504 12.0399 14.5204 12.0399ZM12.7104 8.16992C12.6104 8.16992 12.4304 8.16991 12.4304 8.49991V10.2099C12.4304 10.5399 12.6004 10.5399 12.7104 10.5399H14.5204C14.6204 10.5399 14.8004 10.5399 14.8004 10.2099V8.49991C14.8004 8.16991 14.6204 8.16992 14.5204 8.16992H12.7104Z" fill="#000000" />
<path d="M13.6104 13.5208C13.2004 13.5208 12.8604 13.1808 12.8604 12.7708V11.3008C12.8604 10.8908 13.2004 10.5508 13.6104 10.5508C14.0204 10.5508 14.3604 10.8908 14.3604 11.3008V12.7708C14.3604 13.1808 14.0204 13.5208 13.6104 13.5208Z" fill="#000000" />
<path d="M13.6104 8.17142C13.2004 8.17142 12.8604 7.83142 12.8604 7.42142V5.94141C12.8604 5.53141 13.2004 5.19141 13.6104 5.19141C14.0204 5.19141 14.3604 5.53141 14.3604 5.94141V7.42142C14.3604 7.83142 14.0204 8.17142 13.6104 8.17142Z" fill="#000000" />
<path d="M18.5903 10.1007H15.5503C15.1403 10.1007 14.8003 9.76071 14.8003 9.35071C14.8003 8.94071 15.1403 8.60071 15.5503 8.60071H18.5903C18.7303 8.60071 18.8403 8.49071 18.8403 8.35071V5.4707C18.8403 5.0607 19.1803 4.7207 19.5903 4.7207C20.0003 4.7207 20.3403 5.0607 20.3403 5.4707V8.35071C20.3403 9.31071 19.5503 10.1007 18.5903 10.1007Z" fill="#000000" />
<path d="M11.6702 10.0996H10.2002C9.7902 10.0996 9.4502 9.75961 9.4502 9.34961C9.4502 8.93961 9.7902 8.59961 10.2002 8.59961H11.6702C12.0802 8.59961 12.4202 8.93961 12.4202 9.34961C12.4202 9.75961 12.0802 10.0996 11.6702 10.0996Z" fill="#000000" />
<path d="M19.5804 6.14023C18.3704 6.14023 17.3804 5.15022 17.3804 3.94022C17.3804 2.73022 18.3704 1.74023 19.5804 1.74023C20.7904 1.74023 21.7804 2.73022 21.7804 3.94022C21.7804 5.15022 20.7904 6.14023 19.5804 6.14023ZM19.5804 3.24023C19.1904 3.24023 18.8804 3.56022 18.8804 3.94022C18.8804 4.32022 19.2004 4.64023 19.5804 4.64023C19.9604 4.64023 20.2804 4.33022 20.2804 3.94022C20.2804 3.55022 19.9604 3.24023 19.5804 3.24023Z" fill="#000000" />
<path d="M18.9004 21.9996C18.6104 21.9996 18.3404 21.8296 18.2104 21.5496C17.0204 18.8296 17.3304 15.6896 19.1304 12.4796C19.3304 12.1196 19.7904 11.9896 20.1504 12.1896C20.5104 12.3896 20.6404 12.8496 20.4404 13.2096C18.8604 16.0296 18.5804 18.6396 19.5904 20.9496C19.7604 21.3296 19.5904 21.7696 19.2004 21.9396C19.1004 21.9796 19.0004 21.9996 18.9004 21.9996Z" fill="#000000" />
</svg>