<svg width="24px"  height="24px"  viewBox="0 0 24 24" fill="none" xmlns="http://www.w3.org/2000/svg">
<path d="M5.71059 22.2304C5.71059 22.2304 5.66059 22.2304 5.63059 22.2304C5.22059 22.1904 4.92059 21.8204 4.96059 21.4104C5.09059 20.1304 5.31059 16.5004 4.69059 15.0104L4.41059 14.3404C3.39059 11.9404 2.34059 9.47042 3.62059 6.53042C4.90059 3.57042 7.79059 1.83042 11.5306 1.74042C13.8806 1.70042 15.6506 2.22042 17.0606 3.41042C19.1206 5.14042 19.3806 7.41041 19.6106 9.40041C19.6706 9.94042 19.7306 10.4704 19.8306 10.9704C19.9206 11.4104 20.1606 11.9204 20.4106 12.4504C20.6806 13.0104 20.9606 13.6004 21.1106 14.2204C21.3306 15.6104 20.2206 15.9204 19.7506 16.0504C19.6006 16.0904 19.3306 16.1704 19.2906 16.2204L19.1606 18.5804C19.0006 19.4404 18.2706 20.0704 17.4006 20.1104L14.8906 20.2304V21.4604C14.8906 21.8704 14.5506 22.2104 14.1406 22.2104C13.7306 22.2104 13.3906 21.8704 13.3906 21.4604V20.1304C13.3906 19.3804 13.9706 18.7704 14.7206 18.7304L17.3306 18.6104C17.4906 18.6104 17.6306 18.4904 17.6806 18.3304L17.8106 15.9704C18.0006 14.9704 18.8806 14.7304 19.3506 14.6004C19.4406 14.5804 19.5506 14.5404 19.6306 14.5104C19.5206 14.0504 19.2906 13.5804 19.0606 13.0904C18.7706 12.4904 18.4806 11.8804 18.3606 11.2404C18.2606 10.7004 18.1906 10.1404 18.1206 9.56042C17.9006 7.67042 17.6906 5.89041 16.0906 4.54041C14.9706 3.60041 13.5306 3.17041 11.5606 3.22041C8.43059 3.29041 6.04059 4.71042 5.00059 7.10042C3.98059 9.44042 4.82059 11.4304 5.80059 13.7204L6.09059 14.4004C6.97059 16.5104 6.52058 21.0304 6.47058 21.5404C6.43058 21.9204 6.10059 22.2104 5.73059 22.2104L5.71059 22.2304Z" fill="#000000" />
<path d="M11.4702 15.26C11.3502 15.26 11.2202 15.24 11.1002 15.2C10.6002 15.04 10.2702 14.58 10.2702 14.05V12.14H8.51017C8.05017 12.14 7.64017 11.89 7.44017 11.48C7.24017 11.07 7.27017 10.59 7.54017 10.22L10.6102 5.99004C10.9202 5.57004 11.4602 5.39003 11.9602 5.55003C12.4602 5.71003 12.7902 6.17003 12.7902 6.70003V8.61003H14.5502C15.0102 8.61003 15.4202 8.86003 15.6202 9.27003C15.8202 9.68003 15.7902 10.16 15.5202 10.53L12.4502 14.76C12.2202 15.08 11.8502 15.26 11.4802 15.26H11.4702ZM9.07018 10.65H11.0102C11.4202 10.65 11.7602 10.99 11.7602 11.4V13.15L13.9602 10.12H12.0202C11.6102 10.12 11.2702 9.78003 11.2702 9.37003V7.62003L9.07018 10.65Z" fill="#000000" />
</svg>