<svg width="24px"  height="24px"  viewBox="0 0 24 24" fill="none" xmlns="http://www.w3.org/2000/svg">
<path d="M13.8976 22.2784C13.8976 22.2784 13.8076 22.2784 13.7576 22.2684C13.3476 22.1884 13.0876 21.7984 13.1576 21.3984C13.1976 21.1884 13.5676 19.3584 14.8476 18.6884C15.2176 18.4984 15.6676 18.6384 15.8576 18.9984C16.0476 19.3684 15.9076 19.8184 15.5376 20.0084C15.0376 20.2684 14.7076 21.2384 14.6276 21.6684C14.5576 22.0284 14.2476 22.2784 13.8876 22.2784H13.8976Z" fill="#000000" />
<path d="M16.8976 20.4688L14.1076 19.8388C12.9076 19.5788 12.6976 18.5988 12.5476 17.8888C12.5176 17.7388 12.4776 17.5788 12.4376 17.4288C12.3276 17.0288 12.5576 16.6188 12.9576 16.5088C13.3676 16.3988 13.7676 16.6288 13.8776 17.0288C13.9276 17.2188 13.9676 17.3988 14.0076 17.5788C14.1576 18.2988 14.2176 18.3388 14.4276 18.3788L17.2177 19.0088C17.3477 19.0388 17.4677 19.0188 17.5377 18.9688C17.5977 18.9288 17.6276 18.8588 17.6476 18.7488L17.9576 16.1288C18.0676 15.5388 18.4376 15.0988 18.9476 14.8988L19.8776 14.5388C18.5576 12.7388 18.0576 11.2688 18.3376 9.99883C18.7876 7.95883 18.0976 6.24882 16.1676 4.61882C15.2376 3.82882 14.0677 3.39882 12.5977 3.29882C12.1877 3.26882 11.8776 2.90882 11.8976 2.49882C11.9276 2.08882 12.2876 1.76882 12.6976 1.79882C14.4976 1.92882 15.9476 2.46882 17.1276 3.46882C19.4976 5.46882 20.3677 7.70883 19.7877 10.3188C19.6077 11.1188 20.0376 12.2288 21.0676 13.6088C21.3576 13.9988 21.4476 14.4888 21.3176 14.9388C21.1876 15.3888 20.8476 15.7488 20.3976 15.9288L19.4677 16.2888L19.1176 18.9388C19.0376 19.4788 18.7776 19.9088 18.3776 20.1888C17.9545 20.485 17.4009 20.5695 16.8976 20.4688Z" fill="#000000" />
<path d="M3.37769 10.1289C2.96769 10.1289 2.62769 9.78891 2.62769 9.37891V7.62891C2.62769 7.21891 2.96769 6.87891 3.37769 6.87891H5.25769C5.66769 6.87891 6.00769 7.21891 6.00769 7.62891C6.00769 8.03891 5.66769 8.37891 5.25769 8.37891H4.12769V9.37891C4.12769 9.78891 3.78769 10.1289 3.37769 10.1289Z" fill="#000000" />
<path d="M9.15759 5.6593H7.27759C6.86759 5.6593 6.52759 5.3193 6.52759 4.9093C6.52759 4.4993 6.86759 4.1593 7.27759 4.1593H8.40759V3.0293C8.40759 2.6193 8.74759 2.2793 9.15759 2.2793C9.56759 2.2793 9.90759 2.6193 9.90759 3.0293V4.9093C9.90759 5.3193 9.56759 5.6593 9.15759 5.6593Z" fill="#000000" />
<path d="M9.15756 5.67023C8.90756 5.67023 8.65754 5.54023 8.51754 5.31023C8.48754 5.26023 7.67756 3.98023 6.09756 3.98023C5.25756 3.98023 4.50756 4.41023 4.09756 5.14023C3.88756 5.50023 3.42754 5.62023 3.07754 5.42023C2.71754 5.21023 2.59751 4.76023 2.79751 4.40023C3.46751 3.22023 4.73751 2.49023 6.10751 2.49023C8.54751 2.49023 9.75752 4.46023 9.80752 4.55023C10.0175 4.90023 9.90751 5.37023 9.54751 5.58023C9.42751 5.65023 9.29751 5.69023 9.16751 5.69023L9.15756 5.67023Z" fill="#000000" />
<path d="M6.09747 10.0795C4.01747 10.0795 2.78743 8.10949 2.73743 8.02949C2.51743 7.67949 2.62743 7.21949 2.98743 6.99949C3.33743 6.77949 3.79746 6.89949 4.01746 7.24949C4.01746 7.25949 4.86747 8.57949 6.09747 8.57949C6.91747 8.57949 7.68747 8.13949 8.09747 7.42949C8.30747 7.06949 8.76743 6.94949 9.11743 7.15949C9.47743 7.36949 9.59745 7.82949 9.38745 8.17949C8.70745 9.34949 7.44747 10.0795 6.09747 10.0795Z" fill="#000000" />
<path d="M5.19761 22.0384C5.09761 22.0384 4.99762 22.0184 4.89762 21.9784C4.51762 21.8084 4.3476 21.3684 4.5076 20.9884C5.5176 18.6784 5.22763 16.0784 3.65763 13.2584C3.45763 12.8984 3.58761 12.4384 3.94761 12.2384C4.31761 12.0384 4.76763 12.1684 4.96763 12.5284C6.75763 15.7384 7.07761 18.8784 5.88761 21.5984C5.76761 21.8784 5.48761 22.0484 5.19761 22.0484V22.0384Z" fill="#000000" />
</svg>