<svg width="24px"  height="24px"  viewBox="0 0 24 24" fill="none" xmlns="http://www.w3.org/2000/svg">
<path d="M5.70028 22.2304C5.70028 22.2304 5.65028 22.2304 5.62028 22.2304C5.21028 22.1904 4.91028 21.8204 4.95028 21.4104C5.08028 20.1304 5.30028 16.5004 4.68028 15.0104L4.40028 14.3404C3.38028 11.9404 2.34028 9.4704 3.61028 6.5304C4.89028 3.5704 7.78027 1.83042 11.5203 1.74042C13.8703 1.70042 15.6403 2.2204 17.0503 3.4104C19.1103 5.1404 19.3703 7.41042 19.6003 9.40042C19.6603 9.94042 19.7203 10.4704 19.8203 10.9704C19.9103 11.4104 20.1503 11.9204 20.4003 12.4504C20.6703 13.0204 20.9503 13.6004 21.1003 14.2204C21.3203 15.6104 20.2103 15.9204 19.7403 16.0504C19.5903 16.0904 19.3303 16.1704 19.2803 16.2204L19.1503 18.5804C18.9903 19.4404 18.2603 20.0704 17.3903 20.1104L14.8803 20.2304V21.4704C14.8803 21.8804 14.5403 22.2204 14.1303 22.2204C13.7203 22.2204 13.3803 21.8804 13.3803 21.4704V20.1404C13.3803 19.3904 13.9603 18.7804 14.7103 18.7404L17.3203 18.6204C17.4803 18.6204 17.6203 18.5004 17.6703 18.3404L17.8003 15.9704C17.9903 14.9804 18.8703 14.7304 19.3403 14.6004C19.4303 14.5804 19.5403 14.5404 19.6203 14.5104C19.5103 14.0504 19.2803 13.5804 19.0503 13.0804C18.7603 12.4804 18.4703 11.8704 18.3503 11.2404C18.2503 10.7004 18.1803 10.1304 18.1103 9.5604C17.8903 7.6704 17.6803 5.89041 16.0803 4.54041C14.9603 3.60041 13.5203 3.1704 11.5503 3.2204C8.42029 3.2904 6.03027 4.7104 4.99027 7.1004C3.97027 9.4404 4.81028 11.4304 5.79028 13.7204L6.08029 14.4004C6.96029 16.5104 6.51028 21.0304 6.45028 21.5404C6.41028 21.9304 6.08028 22.2104 5.71027 22.2104L5.70028 22.2304Z" fill="#000000" />
<path d="M9.37012 15.5411C8.96012 15.5411 8.62012 15.2011 8.62012 14.7911V13.1211C8.62012 12.7111 8.96012 12.3711 9.37012 12.3711C9.78012 12.3711 10.1201 12.7111 10.1201 13.1211V14.7911C10.1201 15.2011 9.78012 15.5411 9.37012 15.5411Z" fill="#000000" />
<path d="M9.74028 13.8698H9.01028C8.20028 13.8698 7.55029 13.2198 7.55029 12.4098V10.2198C7.55029 9.41976 8.20028 8.75977 9.01028 8.75977H9.74028C10.5503 8.75977 11.2003 9.40976 11.2003 10.2198V12.4098C11.2003 13.2098 10.5503 13.8698 9.74028 13.8698ZM9.70029 10.2198L9.01028 10.2598L9.05029 12.4098L9.70029 12.3698V10.2198Z" fill="#000000" />
<path d="M9.37012 10.2599C8.96012 10.2599 8.62012 9.91986 8.62012 9.50986V7.83984C8.62012 7.42984 8.96012 7.08984 9.37012 7.08984C9.78012 7.08984 10.1201 7.42984 10.1201 7.83984V9.50986C10.1201 9.91986 9.78012 10.2599 9.37012 10.2599Z" fill="#000000" />
<path d="M13.9204 14.5899C13.5104 14.5899 13.1704 14.2499 13.1704 13.8399V12.1699C13.1704 11.7599 13.5104 11.4199 13.9204 11.4199C14.3304 11.4199 14.6704 11.7599 14.6704 12.1699V13.8399C14.6704 14.2499 14.3304 14.5899 13.9204 14.5899Z" fill="#000000" />
<path d="M14.2803 12.9096H13.5503C12.7403 12.9096 12.0903 12.2596 12.0903 11.4496V8.5596C12.0903 7.7596 12.7403 7.09961 13.5503 7.09961H14.2803C15.0903 7.09961 15.7403 7.7496 15.7403 8.5596V11.4496C15.7403 12.2496 15.0903 12.9096 14.2803 12.9096ZM14.2403 8.5596L13.5503 8.59961L13.5903 11.4496L14.2403 11.4096V8.5596Z" fill="#000000" />
<path d="M13.9204 8.61142C13.5104 8.61142 13.1704 8.27142 13.1704 7.86142V6.19141C13.1704 5.78141 13.5104 5.44141 13.9204 5.44141C14.3304 5.44141 14.6704 5.78141 14.6704 6.19141V7.86142C14.6704 8.27142 14.3304 8.61142 13.9204 8.61142Z" fill="#000000" />
</svg>