<svg width="24px"  height="24px"  viewBox="0 0 24 24" fill="none" xmlns="http://www.w3.org/2000/svg">
<path d="M13.9804 22.2296C13.9804 22.2296 13.8904 22.2296 13.8404 22.2196C13.4304 22.1396 13.1604 21.7496 13.2404 21.3496C13.2804 21.1396 13.6504 19.3096 14.9304 18.6396C15.3004 18.4496 15.7504 18.5896 15.9404 18.9496C16.1304 19.3196 15.9904 19.7696 15.6304 19.9596C15.1204 20.2296 14.8004 21.1896 14.7204 21.6196C14.6504 21.9796 14.3404 22.2296 13.9804 22.2296Z" fill="#000000" />
<path d="M5.28032 21.9906C5.18032 21.9906 5.08034 21.9706 4.98034 21.9306C4.60034 21.7606 4.43032 21.3206 4.59032 20.9406C5.60032 18.6306 5.31032 16.0306 3.74032 13.2106C2.54032 11.0606 2.39033 8.79061 3.32033 6.66061C4.62033 3.66061 7.71031 1.82062 11.5803 1.73062C13.9803 1.69062 15.7703 2.22063 17.2003 3.43063C19.5703 5.43063 20.4403 7.6706 19.8603 10.2806C19.6803 11.0806 20.1103 12.1906 21.1403 13.5706C21.4303 13.9606 21.5203 14.4506 21.3903 14.9006C21.2603 15.3506 20.9203 15.7106 20.4703 15.8906L19.5403 16.2506L19.1903 18.9006C19.1103 19.4406 18.8503 19.8706 18.4503 20.1506C18.0303 20.4406 17.5003 20.5406 16.9503 20.4206L12.9203 19.1106C11.7903 18.8606 11.5803 17.8806 11.4303 17.1706C11.4003 17.0206 11.3703 16.8706 11.3203 16.7106L10.2803 10.8906C10.2103 10.4806 10.4803 10.0906 10.8903 10.0206C11.3003 9.95059 11.6903 10.2206 11.7603 10.6306L12.7803 16.3806C12.8203 16.5006 12.8603 16.6806 12.8903 16.8606C13.0403 17.5806 13.1003 17.6206 13.3103 17.6706L17.3303 18.9806C17.3903 18.9806 17.5103 18.9806 17.5803 18.9206C17.6403 18.8806 17.6703 18.8106 17.6903 18.7106L18.0003 16.0906C18.1103 15.4906 18.4803 15.0506 19.0003 14.8606L19.9203 14.5006C18.6103 12.7006 18.1003 11.2306 18.3803 9.9606C18.8303 7.9206 18.1403 6.21059 16.2103 4.58059C15.0703 3.62059 13.5903 3.19062 11.5903 3.23062C8.32032 3.30062 5.73031 4.81064 4.67031 7.25064C3.93031 8.96064 4.05032 10.7206 5.03032 12.4706C6.82032 15.6806 7.14031 18.8106 5.95031 21.5406C5.83031 21.8206 5.55034 21.9906 5.26034 21.9906H5.28032Z" fill="#000000" />
<path d="M10.9404 11.5605C10.1104 11.5605 9.44043 10.8905 9.44043 10.0605C9.44043 9.23055 10.1104 8.56055 10.9404 8.56055C11.7704 8.56055 12.4404 9.23055 12.4404 10.0605C12.4404 10.8905 11.7704 11.5605 10.9404 11.5605Z" fill="#000000" />
<path d="M12.0202 7.08022H9.25024C8.84024 7.08022 8.50024 6.74022 8.50024 6.33022C8.50024 5.92022 8.84024 5.58022 9.25024 5.58022H11.5403L12.9902 2.35024C13.1602 1.97024 13.6103 1.80024 13.9803 1.97024C14.3603 2.14024 14.5302 2.58023 14.3602 2.96023L12.7102 6.63027C12.5902 6.90027 12.3202 7.07028 12.0302 7.07028L12.0202 7.08022Z" fill="#000000" />
<path d="M8.50024 7.83008C7.67024 7.83008 7.00024 7.16008 7.00024 6.33008C7.00024 5.50008 7.67024 4.83008 8.50024 4.83008C9.33024 4.83008 10.0002 5.50008 10.0002 6.33008C10.0002 7.16008 9.33024 7.83008 8.50024 7.83008Z" fill="#000000" />
<path d="M7.67041 13.7305C6.84041 13.7305 6.17041 13.0605 6.17041 12.2305C6.17041 11.4005 6.84041 10.7305 7.67041 10.7305C8.50041 10.7305 9.17041 11.4005 9.17041 12.2305C9.17041 13.0605 8.50041 13.7305 7.67041 13.7305Z" fill="#000000" />
<path d="M15.3804 11.4609C14.5504 11.4609 13.8804 10.7909 13.8804 9.96094C13.8804 9.13094 14.5504 8.46094 15.3804 8.46094C16.2104 8.46094 16.8804 9.13094 16.8804 9.96094C16.8804 10.7909 16.2104 11.4609 15.3804 11.4609Z" fill="#000000" />
<path d="M7.11026 12.4408C6.87026 12.4408 6.63029 12.3208 6.48029 12.1008L5.28027 10.3008H3.54028C3.13028 10.3008 2.79028 9.96078 2.79028 9.55078C2.79028 9.14078 3.13028 8.80078 3.54028 8.80078H5.68027C5.93027 8.80078 6.17026 8.93075 6.30026 9.14075L7.72028 11.2808C7.95028 11.6308 7.85028 12.0908 7.51028 12.3208C7.38028 12.4008 7.24028 12.4408 7.10028 12.4408H7.11026Z" fill="#000000" />
<path d="M15.9205 10.121C15.7205 10.121 15.5205 10.0409 15.3805 9.89093C15.0905 9.59093 15.1105 9.11093 15.4105 8.83093L16.6305 7.67096C16.7705 7.54096 16.9505 7.46094 17.1505 7.46094H19.2205C19.6305 7.46094 19.9705 7.80094 19.9705 8.21094C19.9705 8.62094 19.6305 8.96094 19.2205 8.96094H17.4505L16.4405 9.91095C16.3005 10.0509 16.1105 10.121 15.9205 10.121Z" fill="#000000" />
</svg>