<svg width="24px"  height="24px"  viewBox="0 0 24 24" fill="none" xmlns="http://www.w3.org/2000/svg">
<path d="M5.71034 22.2304C5.71034 22.2304 5.66035 22.2304 5.63035 22.2304C5.22035 22.1904 4.92034 21.8204 4.96034 21.4104C5.10034 20.1304 5.31035 16.5004 4.69035 15.0104L4.41035 14.3404C3.39035 11.9404 2.34034 9.47043 3.62034 6.53043C4.90034 3.57043 7.79034 1.83042 11.5303 1.74042C13.8803 1.70042 15.6504 2.22042 17.0704 3.41042C19.1204 5.14042 19.3903 7.40042 19.6203 9.40042C19.6803 9.94042 19.7403 10.4704 19.8403 10.9704C19.9303 11.4104 20.1703 11.9204 20.4203 12.4504C20.6903 13.0204 20.9703 13.6004 21.1203 14.2204C21.3403 15.6104 20.2304 15.9204 19.7604 16.0504C19.6204 16.0904 19.3503 16.1704 19.3003 16.2204L19.1703 18.5804C19.0103 19.4404 18.2803 20.0704 17.4103 20.1104L14.9003 20.2304V21.4704C14.9003 21.8804 14.5603 22.2204 14.1503 22.2204C13.7403 22.2204 13.4003 21.8804 13.4003 21.4704V20.1404C13.4003 19.3904 13.9804 18.7804 14.7304 18.7404L17.3403 18.6204C17.5003 18.6204 17.6403 18.5004 17.6903 18.3404L17.8204 15.9704C18.0104 14.9804 18.8903 14.7304 19.3603 14.6004C19.4503 14.5804 19.5603 14.5404 19.6503 14.5104C19.5403 14.0504 19.3104 13.5804 19.0704 13.0804C18.7904 12.4804 18.4903 11.8704 18.3703 11.2404C18.2703 10.7004 18.2003 10.1304 18.1303 9.56043C17.9103 7.67043 17.7004 5.89042 16.1004 4.54042C14.9804 3.60042 13.5503 3.17043 11.5603 3.22043C8.43034 3.29043 6.03034 4.71042 5.00034 7.10042C3.98034 9.44042 4.82033 11.4304 5.80033 13.7204L6.09034 14.4004C6.97034 16.5104 6.52035 21.0304 6.47035 21.5404C6.43035 21.9304 6.10035 22.2104 5.72035 22.2104L5.71034 22.2304Z" fill="#000000" />
<path d="M11.5403 10.6597C11.4203 10.6597 11.2903 10.6397 11.1803 10.5897C10.9803 10.4997 10.8403 10.3797 10.7303 10.2197C10.6303 10.0697 10.5703 9.8797 10.5703 9.6897C10.5703 9.5897 10.6103 9.40969 10.6403 9.31969C10.6803 9.21969 10.7503 9.1097 10.8503 9.0097C10.9203 8.9397 11.0803 8.82969 11.1703 8.78969C11.4103 8.67969 11.8003 8.6997 12.0803 8.8897C12.2303 8.9897 12.3603 9.13969 12.4303 9.31969C12.5103 9.49969 12.5203 9.69969 12.4803 9.87969C12.4503 10.0497 12.3603 10.2297 12.2203 10.3697C12.0903 10.4997 11.9203 10.5997 11.7303 10.6297C11.6703 10.6397 11.6003 10.6497 11.5403 10.6497V10.6597Z" fill="#000000" />
<path d="M10.3602 13.8112C10.1602 13.8112 9.95024 13.7712 9.77024 13.6812C9.49024 13.5612 9.23026 13.4012 8.98026 13.2212C8.59026 12.9412 8.37025 12.4812 8.37025 12.0012V11.5412L7.96024 11.2912C7.53024 11.0512 7.25023 10.6212 7.20023 10.1312C7.17023 9.85124 7.17023 9.55124 7.20023 9.26124C7.25023 8.77124 7.53024 8.34124 7.96024 8.10124L8.36024 7.88124V7.39125C8.36024 6.90125 8.59026 6.45125 8.98026 6.17125C9.23026 5.99125 9.49024 5.84124 9.77024 5.71124C10.2102 5.51124 10.7203 5.55125 11.1303 5.80125L11.5202 6.04124L11.9502 5.80125C12.3602 5.55125 12.8703 5.52124 13.3103 5.71124C13.5903 5.83124 13.8503 5.98125 14.1003 6.17125C14.4903 6.45125 14.7202 6.91125 14.7102 7.39125V7.85124L14.0703 8.24124L14.7203 7.86125L14.7402 7.89125L15.1303 8.10124C15.5503 8.33124 15.8402 8.76125 15.8902 9.25125C15.9202 9.54125 15.9202 9.84124 15.8902 10.1312C15.8402 10.6112 15.5602 11.0512 15.1402 11.2812L14.7402 11.5012C14.7402 11.5012 14.7403 11.5212 14.7303 11.5212V11.9912C14.7303 12.4712 14.5102 12.9312 14.1202 13.2112C13.8702 13.3912 13.6002 13.5412 13.3302 13.6712C12.8902 13.8612 12.3803 13.8312 11.9703 13.5812L11.5802 13.3412L11.1502 13.5812C10.9202 13.7212 10.6503 13.7912 10.3803 13.7912L10.3602 13.8112ZM10.3602 7.09124C10.2002 7.17124 10.0202 7.27125 9.86024 7.39125L9.88026 7.83125C9.88026 8.10125 9.81024 8.37124 9.67024 8.62124C9.52024 8.88124 9.33025 9.07124 9.09025 9.20124L8.69026 9.42125C8.68026 9.61125 8.68026 9.80124 8.69026 9.99124L9.08024 10.2112C9.32024 10.3412 9.51026 10.5312 9.66026 10.7812C9.81026 11.0412 9.88026 11.3112 9.88026 11.5812V12.0412C10.0203 12.1412 10.2003 12.2412 10.3803 12.3212L10.7503 12.0812C11.2203 11.8012 11.8702 11.8112 12.3302 12.0812L12.7303 12.3212C12.8903 12.2412 13.0703 12.1412 13.2303 12.0212L13.2102 11.5812C13.2102 11.3212 13.2702 11.0612 13.4002 10.8312C13.4002 10.8212 13.4102 10.8012 13.4202 10.7912C13.5702 10.5412 13.7602 10.3512 13.9902 10.2212L14.3902 10.0012C14.4002 9.81125 14.3902 9.62125 14.3902 9.44125L14.0003 9.22125C13.7703 9.09125 13.5702 8.90124 13.4302 8.65124C13.4302 8.65124 13.4302 8.64124 13.4202 8.63124C13.2902 8.39124 13.2103 8.12125 13.2203 7.86125V7.40124C13.0803 7.30124 12.9003 7.20124 12.7203 7.12124L12.3402 7.36125C11.8902 7.63125 11.2202 7.63125 10.7702 7.36125L10.3702 7.12124L10.3602 7.09124Z" fill="#000000" />
</svg>