<svg width="24px"  height="24px"  viewBox="0 0 24 24" fill="none" xmlns="http://www.w3.org/2000/svg">
<path fill-rule="evenodd" clip-rule="evenodd" d="M9.35469 8.8418C9.7689 8.8418 10.1047 8.50601 10.1047 8.0918C10.1047 6.07922 8.483 4.43886 6.47168 4.43886C6.05747 4.43886 5.72168 4.77465 5.72168 5.18886C5.72168 5.60308 6.05747 5.93886 6.47168 5.93886C7.64485 5.93886 8.60469 6.89789 8.60469 8.0918C8.60469 8.50601 8.94048 8.8418 9.35469 8.8418Z" fill="#000000" />
<path fill-rule="evenodd" clip-rule="evenodd" d="M3.58887 16.7773C4.00308 16.7773 4.33887 16.4416 4.33887 16.0273C4.33887 14.8334 5.29871 13.8744 6.47188 13.8744C6.84643 13.8744 7.19652 13.9712 7.50117 14.1411C7.86296 14.3428 8.31976 14.213 8.52146 13.8512C8.72317 13.4894 8.5934 13.0326 8.23161 12.8309C7.70974 12.54 7.109 12.3744 6.47188 12.3744C4.46056 12.3744 2.83887 14.0148 2.83887 16.0273C2.83887 16.4416 3.17465 16.7773 3.58887 16.7773Z" fill="#000000" />
<path fill-rule="evenodd" clip-rule="evenodd" d="M8.07613 10.7932C7.77714 10.5056 7.30279 10.5146 7.01663 10.8133C6.49075 11.3621 6.0922 12.0489 5.88303 12.8349C5.77651 13.2352 6.01435 13.6472 6.41427 13.755C6.81418 13.8629 7.22472 13.6259 7.33124 13.2256C7.47383 12.6898 7.74399 12.2254 8.09936 11.8545C8.38552 11.5559 8.37511 11.0807 8.07613 10.7932Z" fill="#000000" />
<path fill-rule="evenodd" clip-rule="evenodd" d="M9.5737 20.1504C8.78937 20.1504 8.13941 19.5352 8.08751 18.7477C8.07236 18.5177 7.95235 18.3075 7.76204 18.1776C7.57174 18.0476 7.33226 18.0124 7.11259 18.082C6.91076 18.146 6.69573 18.1807 6.47193 18.1807C5.29829 18.1807 4.33848 17.2215 4.33848 16.0277C4.33848 15.486 4.5353 14.9937 4.86103 14.616C5.02469 14.4262 5.08274 14.1672 5.01573 13.9257C4.94873 13.6842 4.76552 13.4921 4.52746 13.4138C3.96953 13.2302 3.56348 12.6995 3.56348 12.0703C3.56348 11.4379 3.97463 10.9046 4.5372 10.7239C4.77768 10.6466 4.96312 10.4535 5.03058 10.2101C5.09804 9.96669 5.03844 9.70568 4.87203 9.51567C4.53978 9.1363 4.33848 8.63892 4.33848 8.09152C4.33848 6.89772 5.29829 5.93858 6.47193 5.93858C6.69448 5.93858 6.90812 5.97288 7.10841 6.03602C7.33441 6.10727 7.58078 6.06752 7.7729 5.92883C7.96503 5.79013 8.08031 5.5688 8.08383 5.33187C8.09609 4.50714 8.76308 3.85039 9.5737 3.85039C10.3916 3.85039 11.0635 4.51941 11.0635 5.35554V18.6452C11.0635 19.4814 10.3916 20.1504 9.5737 20.1504ZM6.76233 19.6691C7.17828 20.8227 8.27703 21.6504 9.5737 21.6504C11.2296 21.6504 12.5635 20.3002 12.5635 18.6452V5.35554C12.5635 3.7006 11.2296 2.35039 9.5737 2.35039C8.23431 2.35039 7.10532 3.23361 6.72275 4.4472C6.63981 4.44149 6.55617 4.43858 6.47193 4.43858C4.46029 4.43858 2.83848 6.0789 2.83848 8.09152C2.83848 8.68263 2.9785 9.242 3.22722 9.73689C2.52025 10.2684 2.06348 11.1162 2.06348 12.0703C2.06348 13.0208 2.51643 13.8661 3.2192 14.3981C2.97544 14.8891 2.83848 15.4429 2.83848 16.0277C2.83848 18.0403 4.46029 19.6807 6.47193 19.6807C6.56958 19.6807 6.66644 19.6768 6.76233 19.6691Z" fill="#000000" />
<path fill-rule="evenodd" clip-rule="evenodd" d="M9.12976 17.9238C9.53005 18.0303 9.94089 17.7922 10.0474 17.3919C10.2847 16.5 9.76055 15.5765 8.86433 15.3347C8.45858 15.2252 8.04565 15.2756 7.69535 15.4474C7.32344 15.6297 7.16979 16.0791 7.35217 16.451C7.53454 16.8229 7.98387 16.9765 8.35577 16.7941C8.39178 16.7765 8.43186 16.7717 8.4736 16.7829C8.56371 16.8072 8.62488 16.9046 8.59786 17.0062C8.49134 17.4064 8.72948 17.8173 9.12976 17.9238Z" fill="#000000" />
<path fill-rule="evenodd" clip-rule="evenodd" d="M11.0635 3.14453C11.0635 2.73032 11.3993 2.39453 11.8135 2.39453C17.1188 2.39453 21.4189 6.6947 21.4189 12C21.4189 17.3053 17.1188 21.6055 11.8135 21.6055C11.3993 21.6055 11.0635 21.2697 11.0635 20.8555C11.0635 20.4413 11.3993 20.1055 11.8135 20.1055C16.2904 20.1055 19.9189 16.4769 19.9189 12C19.9189 7.52312 16.2904 3.89453 11.8135 3.89453C11.3993 3.89453 11.0635 3.55874 11.0635 3.14453Z" fill="#000000" />
<path fill-rule="evenodd" clip-rule="evenodd" d="M19.6678 6.47367C19.9391 6.78669 19.9052 7.26036 19.5922 7.53163C18.2438 8.70018 17.0542 9.35932 15.7805 9.68778C14.5257 10.0113 13.2456 9.99747 11.7732 9.91815C11.3595 9.89587 11.0423 9.54251 11.0646 9.1289C11.0869 8.71528 11.4402 8.39804 11.8538 8.42032C13.3139 8.49897 14.3926 8.49658 15.4059 8.23529C16.4002 7.9789 17.3881 7.45687 18.6098 6.39808C18.9229 6.1268 19.3965 6.16065 19.6678 6.47367Z" fill="#000000" />
<path fill-rule="evenodd" clip-rule="evenodd" d="M19.6678 17.5146C19.9391 17.2016 19.9052 16.7279 19.5922 16.4566C18.2438 15.2881 17.0542 14.629 15.7805 14.3005C14.5257 13.9769 13.2456 13.9908 11.7732 14.0701C11.3595 14.0924 11.0423 14.4458 11.0646 14.8594C11.0869 15.273 11.4402 15.5902 11.8538 15.568C13.3139 15.4893 14.3926 15.4917 15.4059 15.753C16.4002 16.0094 17.3881 16.5314 18.6098 17.5902C18.9229 17.8615 19.3965 17.8276 19.6678 17.5146Z" fill="#000000" />
<path fill-rule="evenodd" clip-rule="evenodd" d="M11.0635 3.14453C11.0635 2.73032 11.3993 2.39453 11.8135 2.39453C13.5197 2.39453 14.8852 3.69189 15.7799 5.38823C16.6926 7.11872 17.2343 9.45756 17.2343 12C17.2343 14.5424 16.6926 16.8813 15.7799 18.6118C14.8852 20.3081 13.5197 21.6055 11.8135 21.6055C11.3993 21.6055 11.0635 21.2697 11.0635 20.8555C11.0635 20.4413 11.3993 20.1055 11.8135 20.1055C12.6875 20.1055 13.6574 19.4206 14.4531 17.912C15.2308 16.4375 15.7343 14.3487 15.7343 12C15.7343 9.65135 15.2308 7.56245 14.4531 6.08799C13.6574 4.57936 12.6875 3.89453 11.8135 3.89453C11.3993 3.89453 11.0635 3.55874 11.0635 3.14453Z" fill="#000000" />
</svg>