<svg width="24px"  height="24px"  viewBox="0 0 24 24" fill="none" xmlns="http://www.w3.org/2000/svg">
<path d="M5.71029 22.2304C5.71029 22.2304 5.6603 22.2304 5.6303 22.2304C5.2203 22.1904 4.92029 21.8204 4.96029 21.4104C5.09029 20.1304 5.3103 16.5004 4.6903 15.0104L4.4103 14.3404C3.3903 11.9404 2.35029 9.4704 3.62029 6.5304C4.90029 3.5704 7.79029 1.83042 11.5303 1.74042C13.8803 1.70042 15.6503 2.2204 17.0703 3.4104C19.1203 5.1404 19.3903 7.40042 19.6203 9.40042C19.6803 9.94042 19.7403 10.4704 19.8403 10.9704C19.9303 11.4104 20.1703 11.9204 20.4203 12.4504C20.6903 13.0204 20.9703 13.6004 21.1203 14.2204C21.3403 15.6104 20.2303 15.9204 19.7603 16.0504C19.6203 16.0904 19.3503 16.1704 19.3003 16.2204L19.1703 18.5804C19.0103 19.4404 18.2803 20.0704 17.4103 20.1104L14.9003 20.2304V21.4704C14.9003 21.8804 14.5603 22.2204 14.1503 22.2204C13.7403 22.2204 13.4003 21.8804 13.4003 21.4704V20.1404C13.4003 19.3904 13.9803 18.7804 14.7303 18.7404L17.3403 18.6204C17.5003 18.6204 17.6403 18.5004 17.6903 18.3404L17.8203 15.9704C18.0103 14.9804 18.8903 14.7304 19.3603 14.6004C19.4503 14.5804 19.5603 14.5404 19.6503 14.5104C19.5403 14.0504 19.3103 13.5804 19.0703 13.0804C18.7903 12.4804 18.4903 11.8704 18.3703 11.2404C18.2703 10.7004 18.2003 10.1304 18.1303 9.5604C17.9103 7.6704 17.7003 5.89041 16.1003 4.54041C14.9803 3.60041 13.5403 3.1704 11.5603 3.2204C8.43029 3.2904 6.04029 4.7104 5.00029 7.1004C3.98029 9.4404 4.82028 11.4304 5.80028 13.7204L6.09029 14.4004C6.97029 16.5104 6.5203 21.0304 6.4703 21.5404C6.4303 21.9304 6.10031 22.2104 5.73031 22.2104L5.71029 22.2304Z" fill="#000000" />
<path d="M11.5002 15.2414C11.0902 15.2414 10.7502 14.9014 10.7502 14.4914C10.7502 14.0814 11.0902 13.7014 11.5002 13.7014C11.9102 13.7014 12.2502 14.0014 12.2502 14.4114V14.4814C12.2502 14.8914 11.9102 15.2314 11.5002 15.2314V15.2414ZM11.5002 12.4214C11.0902 12.4214 10.7502 12.0814 10.7502 11.6714V8.19141C10.7502 7.78141 11.0902 7.44141 11.5002 7.44141C11.9102 7.44141 12.2502 7.78141 12.2502 8.19141V11.6714C12.2502 12.0814 11.9102 12.4214 11.5002 12.4214Z" fill="#000000" />
</svg>