<svg width="24px"  height="24px"  viewBox="0 0 24 24" fill="none" xmlns="http://www.w3.org/2000/svg">
<path d="M5.71053 22.2304C5.71053 22.2304 5.66054 22.2304 5.63054 22.2304C5.22054 22.1904 4.92053 21.8204 4.96053 21.4104C5.09053 20.1304 5.31054 16.5004 4.69054 15.0104L4.41054 14.3404C3.39054 11.9404 2.35053 9.47043 3.62053 6.53043C4.90053 3.57043 7.79054 1.83042 11.5305 1.74042C13.8805 1.70042 15.6505 2.22042 17.0605 3.41042C19.1205 5.14042 19.3805 7.41042 19.6105 9.40042C19.6705 9.94042 19.7305 10.4704 19.8305 10.9704C19.9205 11.4104 20.1605 11.9204 20.4105 12.4504C20.6805 13.0204 20.9605 13.6004 21.1105 14.2204C21.3305 15.6104 20.2205 15.9204 19.7505 16.0504C19.6005 16.0904 19.3405 16.1704 19.2905 16.2204L19.1605 18.5804C19.0005 19.4404 18.2705 20.0704 17.4005 20.1104L14.8905 20.2304V21.4704C14.8905 21.8804 14.5505 22.2204 14.1405 22.2204C13.7305 22.2204 13.3905 21.8804 13.3905 21.4704V20.1404C13.3905 19.3904 13.9705 18.7804 14.7205 18.7404L17.3305 18.6204C17.4905 18.6204 17.6305 18.5004 17.6805 18.3404L17.8105 15.9704C18.0005 14.9804 18.8805 14.7304 19.3505 14.6004C19.4405 14.5804 19.5505 14.5404 19.6305 14.5104C19.5205 14.0504 19.2905 13.5804 19.0605 13.0804C18.7705 12.4804 18.4805 11.8704 18.3605 11.2404C18.2605 10.7004 18.1905 10.1304 18.1205 9.56043C17.9005 7.67043 17.6905 5.89042 16.0905 4.54042C14.9705 3.60042 13.5405 3.17043 11.5605 3.22043C8.43054 3.29043 6.04054 4.71042 5.00054 7.10042C3.98054 9.44042 4.82053 11.4304 5.80053 13.7204L6.09054 14.4004C6.97054 16.5104 6.52054 21.0304 6.47054 21.5404C6.43054 21.9304 6.10055 22.2104 5.73055 22.2104L5.71053 22.2304Z" fill="#000000" />
<path d="M14.2504 13.6904C14.0604 13.6904 13.8704 13.6204 13.7204 13.4704L12.7204 12.4704C11.3804 13.3304 9.57036 13.1704 8.40036 12.0004C7.74036 11.3504 7.38037 10.4704 7.38037 9.5504C7.38037 8.6304 7.74036 7.75039 8.40036 7.10039C9.75036 5.75039 11.9504 5.75039 13.3104 7.10039C13.9704 7.76039 14.3304 8.6304 14.3304 9.5504C14.3304 10.2204 14.1404 10.8604 13.7904 11.4204L14.7904 12.4204C15.0804 12.7104 15.0804 13.1904 14.7904 13.4804C14.6404 13.6304 14.4504 13.7004 14.2604 13.7004L14.2504 13.6904ZM10.8504 7.5804C10.3504 7.5804 9.84036 7.77039 9.46036 8.16039C9.08036 8.55039 8.88037 9.0304 8.88037 9.5504C8.88037 10.0704 9.08036 10.5704 9.46036 10.9404C10.2304 11.7104 11.4804 11.7104 12.2404 10.9404C12.6104 10.5704 12.8204 10.0704 12.8204 9.5504C12.8204 9.0304 12.6204 8.53039 12.2404 8.16039C11.8604 7.79039 11.3504 7.5804 10.8504 7.5804Z" fill="#000000" />
</svg>