<svg width="24px"  height="24px"  viewBox="0 0 24 24" fill="none" xmlns="http://www.w3.org/2000/svg">
<path d="M5.71029 22.2302C5.71029 22.2302 5.6603 22.2302 5.6303 22.2302C5.2203 22.1902 4.92029 21.8202 4.96029 21.4102C5.10029 20.1302 5.3103 16.5002 4.6903 15.0102L4.4103 14.3402C3.3903 11.9402 2.35029 9.47019 3.62029 6.54019C4.90029 3.58019 7.79029 1.84018 11.5303 1.75018C13.9103 1.71018 15.6503 2.23019 17.0703 3.42019C19.1203 5.15019 19.3903 7.42019 19.6203 9.41019C19.6803 9.95019 19.7403 10.4802 19.8403 10.9802C19.9303 11.4202 20.1703 11.9302 20.4203 12.4602C20.6903 13.0302 20.9703 13.6102 21.1203 14.2302C21.3403 15.6202 20.2303 15.9302 19.7603 16.0602C19.6103 16.1002 19.3403 16.1802 19.3003 16.2302L19.1703 18.5902C19.0103 19.4502 18.2803 20.0802 17.4103 20.1202L14.9003 20.2402V21.4702C14.9003 21.8802 14.5603 22.2202 14.1503 22.2202C13.7403 22.2202 13.4003 21.8802 13.4003 21.4702V20.1402C13.4003 19.3902 13.9803 18.7802 14.7303 18.7402L17.3403 18.6202C17.5003 18.6202 17.6403 18.5002 17.6903 18.3402L17.8203 15.9702C18.0103 14.9702 18.8903 14.7302 19.3603 14.6002C19.4503 14.5802 19.5603 14.5402 19.6403 14.5102C19.5303 14.0502 19.3003 13.5802 19.0603 13.0802C18.7703 12.4802 18.4803 11.8702 18.3603 11.2402C18.2603 10.7002 18.1903 10.1302 18.1203 9.56019C17.9003 7.67019 17.6903 5.89019 16.0903 4.54019C14.9703 3.60019 13.5403 3.17019 11.5503 3.22019C8.42028 3.29019 6.03028 4.70019 4.99029 7.10019C3.97029 9.44019 4.8103 11.4302 5.7903 13.7202L6.08028 14.4002C6.96028 16.5102 6.51029 21.0302 6.46029 21.5402C6.42029 21.9302 6.09029 22.2102 5.71029 22.2102V22.2302Z" fill="#000000" />
<path d="M13.4104 10.7305H9.4104C9.0004 10.7305 8.6604 10.3905 8.6604 9.98047C8.6604 9.57047 9.0004 9.23047 9.4104 9.23047H13.4104C13.8204 9.23047 14.1604 9.57047 14.1604 9.98047C14.1604 10.3905 13.8204 10.7305 13.4104 10.7305Z" fill="#000000" />
</svg>