<svg width="24px"  height="24px"  viewBox="0 0 24 24" fill="none" xmlns="http://www.w3.org/2000/svg">
<path fill-rule="evenodd" clip-rule="evenodd" d="M5.03484 9.75977C4.57307 9.75977 4.19873 10.1341 4.19873 10.5959C4.19873 11.0576 4.57307 11.432 5.03484 11.432C5.49661 11.432 5.87094 11.0576 5.87094 10.5959C5.87094 10.1341 5.49661 9.75977 5.03484 9.75977ZM2.69873 10.5959C2.69873 9.30568 3.74464 8.25977 5.03484 8.25977C6.32503 8.25977 7.37094 9.30568 7.37094 10.5959C7.37094 11.8861 6.32503 12.932 5.03484 12.932C3.74464 12.932 2.69873 11.8861 2.69873 10.5959Z" fill="#000000" />
<path fill-rule="evenodd" clip-rule="evenodd" d="M18.3638 17.7852C17.9496 17.7852 17.6138 18.1209 17.6138 18.5352C17.6138 18.9494 17.9496 19.2852 18.3638 19.2852C18.778 19.2852 19.1138 18.9494 19.1138 18.5352C19.1138 18.1209 18.778 17.7852 18.3638 17.7852ZM16.1138 18.5352C16.1138 17.2925 17.1211 16.2852 18.3638 16.2852C19.6064 16.2852 20.6138 17.2925 20.6138 18.5352C20.6138 19.7778 19.6064 20.7852 18.3638 20.7852C17.1211 20.7852 16.1138 19.7778 16.1138 18.5352Z" fill="#000000" />
<path fill-rule="evenodd" clip-rule="evenodd" d="M19.229 9.0332C19.5448 9.0332 19.8008 9.28919 19.8008 9.60496C19.8008 9.92073 19.5448 10.1767 19.229 10.1767C18.9133 10.1767 18.6573 9.92073 18.6573 9.60496C18.6573 9.28919 18.9133 9.0332 19.229 9.0332ZM21.3008 9.60496C21.3008 8.46076 20.3732 7.5332 19.229 7.5332C18.0848 7.5332 17.1573 8.46076 17.1573 9.60496C17.1573 10.7492 18.0848 11.6767 19.229 11.6767C20.3732 11.6767 21.3008 10.7492 21.3008 9.60496Z" fill="#000000" />
<path fill-rule="evenodd" clip-rule="evenodd" d="M6.62141 18.5781C7.08318 18.5781 7.45752 18.9525 7.45752 19.4142C7.45752 19.876 7.08318 20.2503 6.62141 20.2503C6.15964 20.2503 5.78531 19.876 5.78531 19.4142C5.78531 18.9525 6.15964 18.5781 6.62141 18.5781ZM8.95752 19.4142C8.95752 18.124 7.91161 17.0781 6.62141 17.0781C5.33122 17.0781 4.28531 18.124 4.28531 19.4142C4.28531 20.7044 5.33122 21.7503 6.62141 21.7503C7.91161 21.7503 8.95752 20.7044 8.95752 19.4142Z" fill="#000000" />
<path fill-rule="evenodd" clip-rule="evenodd" d="M12.4527 3.75C12.9145 3.75 13.2888 4.12434 13.2888 4.58611C13.2888 5.04788 12.9145 5.42221 12.4527 5.42221C11.9909 5.42221 11.6166 5.04788 11.6166 4.58611C11.6166 4.12434 11.9909 3.75 12.4527 3.75ZM14.7888 4.58611C14.7888 3.29591 13.7429 2.25 12.4527 2.25C11.1625 2.25 10.1166 3.29591 10.1166 4.58611C10.1166 5.8763 11.1625 6.92221 12.4527 6.92221C13.7429 6.92221 14.7888 5.8763 14.7888 4.58611Z" fill="#000000" />
<path fill-rule="evenodd" clip-rule="evenodd" d="M9.70013 6.59259C9.97261 6.90457 9.94058 7.37836 9.6286 7.65083L6.80147 10.12C6.4895 10.3925 6.0157 10.3604 5.74323 10.0485C5.47075 9.73648 5.50278 9.26269 5.81476 8.99021L8.64189 6.52106C8.95386 6.24859 9.42766 6.28061 9.70013 6.59259Z" fill="#000000" />
<path fill-rule="evenodd" clip-rule="evenodd" d="M5.68654 11.1817C5.90229 10.8281 6.36383 10.7164 6.71742 10.9321L14.3335 15.5792C14.6871 15.795 14.7988 16.2565 14.5831 16.6101C14.3673 16.9637 13.9058 17.0754 13.5522 16.8597L5.93612 12.2126C5.58253 11.9969 5.47079 11.5353 5.68654 11.1817Z" fill="#000000" />
<path fill-rule="evenodd" clip-rule="evenodd" d="M18.7182 9.94922C18.9696 10.2784 18.9065 10.7491 18.5772 11.0005L8.2408 18.8919C7.91157 19.1433 7.44091 19.0802 7.18956 18.7509C6.9382 18.4217 7.00133 17.951 7.33056 17.6997L17.667 9.80821C17.9962 9.55685 18.4669 9.61999 18.7182 9.94922Z" fill="#000000" />
<path fill-rule="evenodd" clip-rule="evenodd" d="M13.2672 4.93747C13.5153 4.60581 13.9854 4.5381 14.317 4.78624L18.6999 8.06534C19.0315 8.31348 19.0992 8.7835 18.8511 9.11517C18.6029 9.44683 18.1329 9.51454 17.8013 9.2664L13.4184 5.98729C13.0868 5.73915 13.0191 5.26913 13.2672 4.93747Z" fill="#000000" />
<path fill-rule="evenodd" clip-rule="evenodd" d="M19.2895 10.2348C19.7003 10.2881 19.9901 10.6643 19.9369 11.075L19.5437 14.1075C19.4904 14.5183 19.1142 14.8081 18.7034 14.7549C18.2927 14.7016 18.0029 14.3254 18.0561 13.9147L18.4493 10.8822C18.5026 10.4714 18.8788 10.1816 19.2895 10.2348Z" fill="#000000" />
<path fill-rule="evenodd" clip-rule="evenodd" d="M18.6196 9.68478C18.6503 10.0979 18.3402 10.4576 17.9272 10.4882L6.73814 11.3183C6.32506 11.349 5.96535 11.039 5.93471 10.6259C5.90406 10.2128 6.21408 9.85309 6.62716 9.82244L17.8162 8.99232C18.2293 8.96168 18.589 9.2717 18.6196 9.68478Z" fill="#000000" />
</svg>