<svg width="24px"  height="24px"  viewBox="0 0 24 24" fill="none" xmlns="http://www.w3.org/2000/svg">
<path fill-rule="evenodd" clip-rule="evenodd" d="M7.62289 5.03516C6.19388 5.03516 5.03613 6.19315 5.03613 7.62108V8.97296C5.03613 9.38717 4.70035 9.72296 4.28613 9.72296C3.87192 9.72296 3.53613 9.38717 3.53613 8.97296V7.62108C3.53613 5.36448 5.3657 3.53516 7.62289 3.53516H8.72791C9.14213 3.53516 9.47791 3.87094 9.47791 4.28516C9.47791 4.69937 9.14213 5.03516 8.72791 5.03516H7.62289Z" fill="#000000" />
<path fill-rule="evenodd" clip-rule="evenodd" d="M4.28613 13.8965C4.70035 13.8965 5.03613 14.2323 5.03613 14.6465V16.379C5.03613 17.8069 6.19388 18.9649 7.62289 18.9649H8.70039C9.1146 18.9649 9.45039 19.3007 9.45039 19.7149C9.45039 20.1291 9.1146 20.4649 8.70039 20.4649H7.62289C5.3657 20.4649 3.53613 18.6356 3.53613 16.379V14.6465C3.53613 14.2323 3.87192 13.8965 4.28613 13.8965Z" fill="#000000" />
<path fill-rule="evenodd" clip-rule="evenodd" d="M19.7152 14.2773C20.1294 14.2773 20.4652 14.6131 20.4652 15.0273V16.3792C20.4652 18.6358 18.6357 20.4651 16.3785 20.4651H15.2734C14.8592 20.4651 14.5234 20.1294 14.5234 19.7151C14.5234 19.3009 14.8592 18.9651 15.2734 18.9651H16.3785C17.8075 18.9651 18.9652 17.8072 18.9652 16.3792V15.0273C18.9652 14.6131 19.301 14.2773 19.7152 14.2773Z" fill="#000000" />
<path fill-rule="evenodd" clip-rule="evenodd" d="M10.0133 3.75C9.71739 3.75 9.47754 3.98985 9.47754 4.28572C9.47754 4.58159 9.71739 4.82144 10.0133 4.82144C10.3091 4.82144 10.549 4.58159 10.549 4.28572C10.549 3.98985 10.3091 3.75 10.0133 3.75ZM7.97754 4.28572C7.97754 3.16142 8.88896 2.25 10.0133 2.25C11.1376 2.25 12.049 3.16142 12.049 4.28572C12.049 5.41002 11.1376 6.32144 10.0133 6.32144C8.88896 6.32144 7.97754 5.41002 7.97754 4.28572Z" fill="#000000" />
<path fill-rule="evenodd" clip-rule="evenodd" d="M13.9879 19.1777C13.692 19.1777 13.4521 19.4176 13.4521 19.7135C13.4521 20.0093 13.692 20.2492 13.9879 20.2492C14.2837 20.2492 14.5236 20.0093 14.5236 19.7135C14.5236 19.4176 14.2837 19.1777 13.9879 19.1777ZM11.9521 19.7135C11.9521 18.5892 12.8636 17.6777 13.9879 17.6777C15.1122 17.6777 16.0236 18.5892 16.0236 19.7135C16.0236 20.8378 15.1122 21.7492 13.9879 21.7492C12.8636 21.7492 11.9521 20.8378 11.9521 19.7135Z" fill="#000000" />
<path fill-rule="evenodd" clip-rule="evenodd" d="M16.3086 13.0625C16.7228 13.0625 17.0586 13.3983 17.0586 13.8125L17.0586 15.3747C17.0586 15.7889 16.7228 16.1247 16.3086 16.1247C15.8944 16.1247 15.5586 15.7889 15.5586 15.3747L15.5586 13.8125C15.5586 13.3983 15.8944 13.0625 16.3086 13.0625Z" fill="#000000" />
<path fill-rule="evenodd" clip-rule="evenodd" d="M9.81836 14.5918C9.81836 15.006 9.48257 15.3418 9.06836 15.3418L3.28819 15.3418C2.87398 15.3418 2.53819 15.006 2.53819 14.5918C2.53819 14.1776 2.87398 13.8418 3.28819 13.8418L9.06836 13.8418C9.48257 13.8418 9.81836 14.1776 9.81836 14.5918Z" fill="#000000" />
<path fill-rule="evenodd" clip-rule="evenodd" d="M10.9678 14.5921C10.9678 14.2748 10.7106 14.0176 10.3933 14.0176C10.076 14.0176 9.81878 14.2748 9.81878 14.5921C9.81878 14.9094 10.076 15.1666 10.3933 15.1666C10.7106 15.1666 10.9678 14.9094 10.9678 14.5921ZM10.3933 12.5176C11.539 12.5176 12.4678 13.4464 12.4678 14.5921C12.4678 15.7378 11.539 16.6666 10.3933 16.6666C9.24756 16.6666 8.31878 15.7378 8.31878 14.5921C8.31878 13.4464 9.24756 12.5176 10.3933 12.5176Z" fill="#000000" />
<path fill-rule="evenodd" clip-rule="evenodd" d="M19.7139 10.1582C19.2997 10.1582 18.9639 9.82242 18.9639 9.4082L18.9639 7.62171C18.9639 6.19379 17.8061 5.03579 16.3771 5.03579L15.2996 5.03579C14.8854 5.03579 14.5496 4.70001 14.5496 4.28579C14.5496 3.87158 14.8854 3.53579 15.2996 3.53579L16.3771 3.53579C18.6343 3.53579 20.4639 5.36511 20.4639 7.62171L20.4639 9.4082C20.4639 9.82242 20.1281 10.1582 19.7139 10.1582Z" fill="#000000" />
<path fill-rule="evenodd" clip-rule="evenodd" d="M7.69141 10.9629C7.27719 10.9629 6.94141 10.6271 6.94141 10.2129L6.94141 8.65067C6.94141 8.23646 7.27719 7.90067 7.69141 7.90067C8.10562 7.90068 8.44141 8.23646 8.44141 8.65068L8.44141 10.2129C8.44141 10.6271 8.10562 10.9629 7.69141 10.9629Z" fill="#000000" />
<path fill-rule="evenodd" clip-rule="evenodd" d="M14.1816 9.43359C14.1816 9.01938 14.5174 8.68359 14.9316 8.68359L20.7118 8.68359C21.126 8.68359 21.4618 9.01938 21.4618 9.43359C21.4618 9.84781 21.126 10.1836 20.7118 10.1836L14.9316 10.1836C14.5174 10.1836 14.1816 9.84781 14.1816 9.43359Z" fill="#000000" />
<path fill-rule="evenodd" clip-rule="evenodd" d="M13.0322 9.43331C13.0322 9.7506 13.2894 10.0078 13.6067 10.0078C13.924 10.0078 14.1812 9.7506 14.1812 9.43331C14.1812 9.11603 13.924 8.85882 13.6067 8.85882C13.2894 8.85882 13.0322 9.11603 13.0322 9.43331ZM13.6067 11.5078C12.461 11.5078 11.5322 10.579 11.5322 9.43331C11.5322 8.2876 12.461 7.35882 13.6067 7.35882C14.7524 7.35882 15.6812 8.2876 15.6812 9.43331C15.6812 10.579 14.7524 11.5078 13.6067 11.5078Z" fill="#000000" />
</svg>