<svg width="24px"  height="24px"  viewBox="0 0 24 24" fill="none" xmlns="http://www.w3.org/2000/svg">
<path d="M12.005 21.75C11.935 21.75 11.855 21.74 11.785 21.72C11.465 21.62 3.92494 19.27 3.92494 12.67C3.92494 10.84 3.90497 9.50998 3.88497 8.53998C3.84497 6.10998 3.83498 5.60002 4.46498 4.96002C5.21498 4.21002 10.915 2.25 11.995 2.25C13.145 2.25 18.765 4.19002 19.535 4.96002C20.165 5.60002 20.1549 6.10998 20.1149 8.53998C20.0949 9.50998 20.075 10.83 20.075 12.66C20.075 19.26 12.535 21.61 12.215 21.71C12.145 21.73 12.075 21.74 11.995 21.74L12.005 21.75ZM12.005 3.75C11.205 3.75 6.11498 5.55003 5.52498 6.03003C5.36498 6.19003 5.35498 6.52001 5.39498 8.51001C5.41498 9.49001 5.43495 10.82 5.43495 12.67C5.43495 17.58 10.845 19.79 12.005 20.21C13.165 19.79 18.575 17.58 18.575 12.67C18.575 10.83 18.5949 9.50002 18.6149 8.52002C18.6549 6.53002 18.645 6.20002 18.465 6.02002C17.895 5.54002 12.805 3.75 11.995 3.75H12.005Z" fill="#000000" />
<path d="M9.7146 16.4004C8.8846 16.4004 8.2146 15.7304 8.2146 14.9004C8.2146 14.0704 8.8846 13.4004 9.7146 13.4004C10.5446 13.4004 11.2146 14.0704 11.2146 14.9004C11.2146 15.7304 10.5446 16.4004 9.7146 16.4004Z" fill="#000000" />
<path d="M15.6248 11.9902C14.7948 11.9902 14.1248 11.3202 14.1248 10.4902C14.1248 9.66023 14.7948 8.99023 15.6248 8.99023C16.4548 8.99023 17.1248 9.66023 17.1248 10.4902C17.1248 11.3202 16.4548 11.9902 15.6248 11.9902Z" fill="#000000" />
<path d="M14.2947 16.4004C13.4647 16.4004 12.7947 15.7304 12.7947 14.9004C12.7947 14.0704 13.4647 13.4004 14.2947 13.4004C15.1247 13.4004 15.7947 14.0704 15.7947 14.9004C15.7947 15.7304 15.1247 16.4004 14.2947 16.4004Z" fill="#000000" />
<path d="M8.38452 11.9902C7.55452 11.9902 6.88452 11.3202 6.88452 10.4902C6.88452 9.66023 7.55452 8.99023 8.38452 8.99023C9.21452 8.99023 9.88452 9.66023 9.88452 10.4902C9.88452 11.3202 9.21452 11.9902 8.38452 11.9902Z" fill="#000000" />
<path d="M12.1345 9.5C11.3045 9.5 10.6345 8.83 10.6345 8C10.6345 7.17 11.3045 6.5 12.1345 6.5C12.9645 6.5 13.6345 7.17 13.6345 8C13.6345 8.83 12.9645 9.5 12.1345 9.5Z" fill="#000000" />
<path d="M5.71457 17.0992C5.52457 17.0992 5.33454 17.0292 5.18454 16.8792C4.89454 16.5892 4.89454 16.1092 5.18454 15.8192L6.58457 14.4192C6.72457 14.2792 6.91453 14.1992 7.11453 14.1992H8.96457C9.37457 14.1992 9.71457 14.5292 9.71457 14.9492C9.71457 15.3692 9.38457 15.6992 8.96457 15.6992H7.42453L6.24454 16.8792C6.09454 17.0292 5.90457 17.0992 5.71457 17.0992Z" fill="#000000" />
<path d="M19.3148 12.7499H17.2248C17.0248 12.7499 16.8348 12.6699 16.6948 12.5299L15.6748 11.5099C15.3848 11.2199 15.3848 10.7399 15.6748 10.4499C15.9648 10.1599 16.4448 10.1599 16.7348 10.4499L17.5348 11.2499H19.3148C19.7248 11.2499 20.0648 11.5899 20.0648 11.9999C20.0648 12.4099 19.7248 12.7499 19.3148 12.7499Z" fill="#000000" />
<path d="M12.4949 21.5105C12.0849 21.5105 11.7449 21.1705 11.7449 20.7605V16.9005C11.7449 16.7005 11.8249 16.5105 11.9649 16.3705L13.3249 15.0105C13.6149 14.7205 14.0949 14.7205 14.3849 15.0105C14.6749 15.3005 14.6749 15.7805 14.3849 16.0705L13.2449 17.2105V20.7605C13.2449 21.1705 12.9049 21.5105 12.4949 21.5105Z" fill="#000000" />
<path d="M7.63464 10.4902C7.44464 10.4902 7.25461 10.4203 7.10461 10.2703L6.07465 9.24023H4.77466C4.36466 9.24023 4.02466 8.90023 4.02466 8.49023C4.02466 8.08023 4.36466 7.74023 4.77466 7.74023H6.38464C6.58464 7.74023 6.77461 7.82027 6.91461 7.96027L8.16461 9.21027C8.45461 9.50027 8.45461 9.98026 8.16461 10.2703C8.01461 10.4203 7.82464 10.4902 7.63464 10.4902Z" fill="#000000" />
<path d="M12.6647 8.21906C12.4747 8.21906 12.2847 8.14908 12.1347 7.99908C11.8447 7.70908 11.8447 7.22909 12.1347 6.93909L13.3347 5.74908V3.53906C13.3347 3.12906 13.6747 2.78906 14.0847 2.78906C14.4947 2.78906 14.8347 3.12906 14.8347 3.53906V6.05908C14.8347 6.25908 14.7547 6.44911 14.6147 6.58911L13.1947 7.99908C13.0447 8.14908 12.8547 8.21906 12.6647 8.21906Z" fill="#000000" />
</svg>