<svg width="24px"  height="24px"  viewBox="0 0 24 24" fill="none" xmlns="http://www.w3.org/2000/svg">
<path fill-rule="evenodd" clip-rule="evenodd" d="M9.53939 2.30564C9.31112 2.21245 9.05164 2.2374 8.84532 2.37238L4.67458 5.10094C4.4628 5.23948 4.33517 5.47549 4.33517 5.72856V8.27399L2.65692 9.1367C2.40695 9.2652 2.2498 9.52267 2.2498 9.80373V14.1965C2.2498 14.4776 2.40701 14.7352 2.65706 14.8636L4.33517 15.7258V18.2679C4.33517 18.5208 4.46264 18.7567 4.6742 18.8953L8.84495 21.6274C9.05165 21.7628 9.31179 21.7877 9.54043 21.6939L12.2843 20.569C12.6676 20.4118 12.8509 19.9738 12.6937 19.5905C12.5366 19.2073 12.0985 19.0239 11.7153 19.1811L9.33667 20.1563L5.83517 17.8626V15.2679C5.83517 14.9868 5.67796 14.7293 5.42792 14.6008L3.7498 13.7387V10.2615L5.42806 9.39877C5.67803 9.27028 5.83517 9.01281 5.83517 8.73174V6.13414L9.337 3.8432L11.7163 4.81454C12.0998 4.97109 12.5376 4.78713 12.6942 4.40364C12.8507 4.02015 12.6668 3.58236 12.2833 3.4258L9.53939 2.30564Z" fill="#000000" />
<path fill-rule="evenodd" clip-rule="evenodd" d="M14.4604 21.6944C14.6887 21.7876 14.9482 21.7626 15.1545 21.6276L19.3252 18.8991C19.537 18.7605 19.6646 18.5245 19.6646 18.2714V15.726L21.3429 14.8633C21.5929 14.7348 21.75 14.4773 21.75 14.1963V9.80347C21.75 9.52235 21.5928 9.26484 21.3427 9.13637L19.6646 8.27419V5.7321C19.6646 5.47919 19.5372 5.24331 19.3256 5.10472L15.1549 2.37262C14.9481 2.23722 14.688 2.21232 14.4594 2.30606L11.7155 3.43104C11.4339 3.54649 11.25 3.82065 11.25 4.12498V19.8798C11.25 20.1846 11.4344 20.459 11.7165 20.5742L14.4604 21.6944ZM12.75 19.3759V4.62807L14.6631 3.84369L18.1646 6.13739V8.73206C18.1646 9.01318 18.3218 9.27069 18.5719 9.39916L20.25 10.2613V13.7385L18.5717 14.6012C18.3218 14.7297 18.1646 14.9872 18.1646 15.2683V17.8659L14.6628 20.1568L12.75 19.3759Z" fill="#000000" />
</svg>