<svg width="24px"  height="24px"  viewBox="0 0 24 24" fill="none" xmlns="http://www.w3.org/2000/svg">
<path fill-rule="evenodd" clip-rule="evenodd" d="M9.35469 8.8418C9.7689 8.8418 10.1047 8.50601 10.1047 8.0918C10.1047 6.07922 8.483 4.43886 6.47168 4.43886C6.05747 4.43886 5.72168 4.77465 5.72168 5.18886C5.72168 5.60308 6.05747 5.93886 6.47168 5.93886C7.64485 5.93886 8.60469 6.89789 8.60469 8.0918C8.60469 8.50601 8.94048 8.8418 9.35469 8.8418Z" fill="#000000" />
<path fill-rule="evenodd" clip-rule="evenodd" d="M3.58887 16.7773C4.00308 16.7773 4.33887 16.4416 4.33887 16.0273C4.33887 14.8334 5.29871 13.8744 6.47188 13.8744C6.84643 13.8744 7.19652 13.9712 7.50117 14.1411C7.86296 14.3428 8.31976 14.213 8.52146 13.8512C8.72317 13.4894 8.5934 13.0326 8.23161 12.8309C7.70974 12.54 7.109 12.3744 6.47188 12.3744C4.46056 12.3744 2.83887 14.0148 2.83887 16.0273C2.83887 16.4416 3.17465 16.7773 3.58887 16.7773Z" fill="#000000" />
<path fill-rule="evenodd" clip-rule="evenodd" d="M8.07613 10.7932C7.77714 10.5056 7.30279 10.5146 7.01663 10.8133C6.49075 11.3621 6.0922 12.0489 5.88303 12.8349C5.77651 13.2352 6.01435 13.6472 6.41427 13.755C6.81418 13.8629 7.22472 13.6259 7.33124 13.2256C7.47383 12.6898 7.74399 12.2254 8.09936 11.8545C8.38552 11.5559 8.37511 11.0807 8.07613 10.7932Z" fill="#000000" />
<path fill-rule="evenodd" clip-rule="evenodd" d="M9.5737 20.1504C8.78937 20.1504 8.13941 19.5352 8.08751 18.7477C8.07236 18.5177 7.95235 18.3075 7.76204 18.1776C7.57174 18.0476 7.33226 18.0124 7.11259 18.082C6.91076 18.146 6.69573 18.1807 6.47193 18.1807C5.29829 18.1807 4.33848 17.2215 4.33848 16.0277C4.33848 15.486 4.5353 14.9937 4.86103 14.616C5.02469 14.4262 5.08274 14.1672 5.01573 13.9257C4.94873 13.6842 4.76552 13.4921 4.52746 13.4138C3.96953 13.2302 3.56348 12.6995 3.56348 12.0703C3.56348 11.4379 3.97463 10.9046 4.5372 10.7239C4.77768 10.6466 4.96312 10.4535 5.03058 10.2101C5.09804 9.96669 5.03844 9.70568 4.87203 9.51567C4.53978 9.1363 4.33848 8.63892 4.33848 8.09152C4.33848 6.89772 5.29829 5.93858 6.47193 5.93858C6.69448 5.93858 6.90812 5.97288 7.10841 6.03602C7.33441 6.10727 7.58078 6.06752 7.7729 5.92883C7.96503 5.79013 8.08031 5.5688 8.08383 5.33187C8.09609 4.50714 8.76308 3.85039 9.5737 3.85039C10.3916 3.85039 11.0635 4.51941 11.0635 5.35554V18.6452C11.0635 19.4814 10.3916 20.1504 9.5737 20.1504ZM6.76233 19.6691C7.17828 20.8227 8.27703 21.6504 9.5737 21.6504C11.2296 21.6504 12.5635 20.3002 12.5635 18.6452V5.35554C12.5635 3.7006 11.2296 2.35039 9.5737 2.35039C8.23431 2.35039 7.10532 3.23361 6.72275 4.4472C6.63981 4.44149 6.55617 4.43858 6.47193 4.43858C4.46029 4.43858 2.83848 6.0789 2.83848 8.09152C2.83848 8.68263 2.9785 9.242 3.22722 9.73689C2.52025 10.2684 2.06348 11.1162 2.06348 12.0703C2.06348 13.0208 2.51643 13.8661 3.2192 14.3981C2.97544 14.8891 2.83848 15.4429 2.83848 16.0277C2.83848 18.0403 4.46029 19.6807 6.47193 19.6807C6.56958 19.6807 6.66644 19.6768 6.76233 19.6691Z" fill="#000000" />
<path fill-rule="evenodd" clip-rule="evenodd" d="M9.12952 17.9238C9.5298 18.0303 9.94065 17.7922 10.0472 17.3919C10.2845 16.5 9.76031 15.5765 8.86409 15.3347C8.45833 15.2252 8.0454 15.2756 7.6951 15.4474C7.3232 15.6297 7.16955 16.0791 7.35192 16.451C7.53429 16.8229 7.98362 16.9765 8.35553 16.7941C8.39154 16.7765 8.43162 16.7717 8.47336 16.7829C8.56347 16.8072 8.62463 16.9046 8.59761 17.0062C8.49109 17.4064 8.72924 17.8173 9.12952 17.9238Z" fill="#000000" />
<path fill-rule="evenodd" clip-rule="evenodd" d="M14.9756 5.65039C14.9756 5.23618 14.6398 4.90039 14.2256 4.90039L11.8136 4.90039C11.3994 4.90039 11.0636 5.23618 11.0636 5.65039C11.0636 6.0646 11.3994 6.40039 11.8136 6.40039L14.2256 6.40039C14.6398 6.40039 14.9756 6.0646 14.9756 5.65039Z" fill="#000000" />
<path fill-rule="evenodd" clip-rule="evenodd" d="M17.8041 6.52651C18.1044 6.81177 18.1167 7.28649 17.8314 7.58682L16.058 9.45398C16.007 9.50758 15.9266 9.58708 15.8183 9.65922C15.5317 9.85022 15.1942 9.95297 14.8478 9.95297L11.8204 9.95297C11.4062 9.95297 11.0704 9.61718 11.0704 9.20297C11.0704 8.78875 11.4062 8.45297 11.8204 8.45297L14.8478 8.45297C14.891 8.45297 14.9332 8.44179 14.9705 8.42082L16.7438 6.55381C17.0291 6.25347 17.5038 6.24125 17.8041 6.52651Z" fill="#000000" />
<path fill-rule="evenodd" clip-rule="evenodd" d="M18.4399 6.32578C18.4399 6.51908 18.2832 6.67578 18.0899 6.67578C17.8966 6.67578 17.7399 6.51908 17.7399 6.32578C17.7399 6.13248 17.8966 5.97578 18.0899 5.97578C18.2832 5.97578 18.4399 6.13248 18.4399 6.32578ZM18.0899 8.17578C19.1117 8.17578 19.9399 7.34751 19.9399 6.32578C19.9399 5.30405 19.1117 4.47578 18.0899 4.47578C17.0682 4.47578 16.2399 5.30405 16.2399 6.32578C16.2399 7.34751 17.0682 8.17578 18.0899 8.17578Z" fill="#000000" />
<path fill-rule="evenodd" clip-rule="evenodd" d="M18.7207 11.8164C18.7207 11.4022 18.3849 11.0664 17.9707 11.0664L11.8684 11.0663C11.4542 11.0663 11.1184 11.4021 11.1184 11.8163C11.1184 12.2305 11.4542 12.5663 11.8684 12.5663L17.9707 12.5664C18.3849 12.5664 18.7207 12.2306 18.7207 11.8164Z" fill="#000000" />
<path fill-rule="evenodd" clip-rule="evenodd" d="M14.9756 18.3477C14.9756 18.7619 14.6398 19.0977 14.2256 19.0977L11.8136 19.0977C11.3994 19.0977 11.0636 18.7619 11.0636 18.3477C11.0636 17.9334 11.3994 17.5977 11.8136 17.5977L14.2256 17.5977C14.6398 17.5977 14.9756 17.9334 14.9756 18.3477Z" fill="#000000" />
<path fill-rule="evenodd" clip-rule="evenodd" d="M19.54 11.816C19.54 12.0093 19.3833 12.166 19.19 12.166C18.9967 12.166 18.84 12.0093 18.84 11.816C18.84 11.6227 18.9967 11.466 19.19 11.466C19.3833 11.466 19.54 11.6227 19.54 11.816ZM19.19 13.666C20.2118 13.666 21.04 12.8377 21.04 11.816C21.04 10.7943 20.2118 9.96602 19.19 9.96602C18.1683 9.96602 17.34 10.7943 17.34 11.816C17.34 12.8377 18.1683 13.666 19.19 13.666Z" fill="#000000" />
<path fill-rule="evenodd" clip-rule="evenodd" d="M17.8041 17.4735C18.1044 17.1882 18.1167 16.7135 17.8314 16.4132L16.058 14.546C16.007 14.4924 15.9266 14.4129 15.8183 14.3408C15.5317 14.1498 15.1942 14.047 14.8478 14.047L11.8391 14.047C11.4249 14.047 11.0891 14.3828 11.0891 14.797C11.0891 15.2112 11.4249 15.547 11.8391 15.547L14.8478 15.547C14.891 15.547 14.9332 15.5582 14.9705 15.5792L16.7438 17.4462C17.0291 17.7465 17.5038 17.7587 17.8041 17.4735Z" fill="#000000" />
<path fill-rule="evenodd" clip-rule="evenodd" d="M18.4048 17.723C18.4048 17.5297 18.2481 17.373 18.0548 17.373C17.8615 17.373 17.7048 17.5297 17.7048 17.723C17.7048 17.9163 17.8615 18.073 18.0548 18.073C18.2481 18.073 18.4048 17.9163 18.4048 17.723ZM18.0548 15.873C19.0765 15.873 19.9048 16.7013 19.9048 17.723C19.9048 18.7448 19.0765 19.573 18.0548 19.573C17.0331 19.573 16.2048 18.7448 16.2048 17.723C16.2048 16.7013 17.0331 15.873 18.0548 15.873Z" fill="#000000" />
</svg>