<svg width="24px"  height="24px"  viewBox="0 0 24 24" fill="none" xmlns="http://www.w3.org/2000/svg">
<path fill-rule="evenodd" clip-rule="evenodd" d="M16.0107 15.8594C16.425 15.8594 16.7607 16.1952 16.7607 16.6094L16.7607 20.1423C16.7607 20.5565 16.425 20.8923 16.0107 20.8923C15.5965 20.8923 15.2607 20.5565 15.2607 20.1423L15.2607 16.6094C15.2607 16.1952 15.5965 15.8594 16.0107 15.8594Z" fill="#000000" />
<path fill-rule="evenodd" clip-rule="evenodd" d="M16.0107 8.13867C16.425 8.13867 16.7607 7.80289 16.7607 7.38867L16.7607 3.85572C16.7607 3.4415 16.425 3.10572 16.0107 3.10572C15.5965 3.10572 15.2607 3.4415 15.2607 3.85572L15.2607 7.38867C15.2607 7.80289 15.5965 8.13867 16.0107 8.13867Z" fill="#000000" />
<path fill-rule="evenodd" clip-rule="evenodd" d="M21.75 18.6074C21.75 19.0216 21.4142 19.3574 21 19.3574L18.7136 19.3574C18.2994 19.3574 17.9636 19.0216 17.9636 18.6074L17.9636 16.6094C17.9636 16.1952 18.2994 15.8594 18.7136 15.8594C19.1278 15.8594 19.4636 16.1952 19.4636 16.6094L19.4636 17.8574L21 17.8574C21.4142 17.8574 21.75 18.1932 21.75 18.6074Z" fill="#000000" />
<path fill-rule="evenodd" clip-rule="evenodd" d="M21.75 5.39063C21.75 4.97642 21.4142 4.64063 21 4.64063L18.7136 4.64063C18.2994 4.64063 17.9636 4.97642 17.9636 5.39063L17.9636 7.38867C17.9636 7.80289 18.2994 8.13867 18.7136 8.13867C19.1278 8.13867 19.4636 7.80289 19.4636 7.38867L19.4636 6.14063L21 6.14063C21.4142 6.14063 21.75 5.80484 21.75 5.39063Z" fill="#000000" />
<path fill-rule="evenodd" clip-rule="evenodd" d="M10.2715 18.6074C10.2715 19.0216 10.6073 19.3574 11.0215 19.3574L13.3079 19.3574C13.7221 19.3574 14.0579 19.0216 14.0579 18.6074L14.0579 16.6094C14.0579 16.1952 13.7221 15.8594 13.3079 15.8594C12.8937 15.8594 12.5579 16.1952 12.5579 16.6094L12.5579 17.8574L11.0215 17.8574C10.6073 17.8574 10.2715 18.1932 10.2715 18.6074Z" fill="#000000" />
<path fill-rule="evenodd" clip-rule="evenodd" d="M10.2715 5.39063C10.2715 4.97642 10.6073 4.64063 11.0215 4.64063L13.3079 4.64063C13.7221 4.64063 14.0579 4.97642 14.0579 5.39063L14.0579 7.38867C14.0579 7.80289 13.7221 8.13867 13.3079 8.13867C12.8937 8.13867 12.5579 7.80289 12.5579 7.38867L12.5579 6.14063L11.0215 6.14063C10.6073 6.14063 10.2715 5.80484 10.2715 5.39063Z" fill="#000000" />
<path fill-rule="evenodd" clip-rule="evenodd" d="M3.75 11.9989C3.75 9.86694 5.47827 8.13867 7.6102 8.13867C9.18995 8.13867 10.5492 9.08639 11.1469 10.4477C11.2666 10.7205 11.5364 10.8965 11.8342 10.8962L12.9534 10.8953L13.8154 11.756C14.0797 12.0199 14.498 12.0491 14.7964 11.8244L15.7312 11.1206L16.4334 11.7742C16.7053 12.0273 17.1214 12.0433 17.4119 11.8118L18.2896 11.1123L19.1765 11.9992L18.0354 13.1403L11.814 13.142C11.5193 13.1421 11.2519 13.3148 11.1307 13.5834C10.5245 14.9261 9.17497 15.8591 7.6102 15.8591C5.47827 15.8591 3.75 14.1308 3.75 11.9989ZM7.6102 6.63867C4.64984 6.63867 2.25 9.03852 2.25 11.9989C2.25 14.9592 4.64984 17.3591 7.6102 17.3591C9.61028 17.3591 11.3526 16.2623 12.2734 14.6418L18.3463 14.6402C18.5452 14.6401 18.7358 14.5611 18.8764 14.4205L20.7675 12.5295C21.0604 12.2366 21.0604 11.7618 20.7675 11.4689L18.8764 9.57785C18.6066 9.30799 18.1771 9.28381 17.8787 9.52166L16.9824 10.236L16.2932 9.59441C16.027 9.34667 15.6215 9.32552 15.3311 9.54423L14.4144 10.2344L13.7933 9.61428C13.6526 9.47371 13.4617 9.39483 13.2628 9.39501L12.2975 9.39584C11.3829 7.7516 9.62714 6.63867 7.6102 6.63867Z" fill="#000000" />
<path fill-rule="evenodd" clip-rule="evenodd" d="M6.85551 12.4451C6.60936 12.199 6.60936 11.7999 6.85551 11.5538C7.1484 11.2609 7.1484 10.786 6.85551 10.4931C6.56262 10.2002 6.08774 10.2002 5.79485 10.4931C4.96291 11.325 4.96292 12.6739 5.79485 13.5058C6.08774 13.7987 6.56262 13.7987 6.85551 13.5058C7.1484 13.2129 7.1484 12.738 6.85551 12.4451Z" fill="#000000" />
</svg>