<svg width="24px"  height="24px"  viewBox="0 0 25 24" fill="none" xmlns="http://www.w3.org/2000/svg">
<path d="M21.244 21.7486C21.0451 21.7486 20.8543 21.6696 20.7137 21.529C20.573 21.3883 20.494 21.1975 20.494 20.9986V10.4236C20.489 10.19 20.4309 9.96059 20.3242 9.75271C20.2175 9.54482 20.0649 9.36391 19.878 9.22364L13.632 4.23564C13.2335 3.92027 12.7402 3.74868 12.232 3.74868C11.7238 3.74868 11.2305 3.92027 10.832 4.23564L4.63202 9.21364C4.43976 9.35634 4.28279 9.54125 4.17322 9.75415C4.06365 9.96704 4.00439 10.2022 4 10.4416V20.9986C4 21.1975 3.92099 21.3883 3.78033 21.529C3.63968 21.6696 3.44891 21.7486 3.25 21.7486C3.05109 21.7486 2.86032 21.6696 2.71967 21.529C2.57901 21.3883 2.5 21.1975 2.5 20.9986V10.4326C2.50651 9.96693 2.61892 9.50881 2.82874 9.09299C3.03855 8.67717 3.34026 8.31456 3.711 8.03264L9.89801 3.06563C10.5621 2.53751 11.3855 2.25 12.234 2.25C13.0825 2.25 13.9059 2.53751 14.57 3.06563L20.806 8.04463C21.1722 8.32351 21.4701 8.68214 21.6769 9.09331C21.8838 9.50448 21.9943 9.95738 22 10.4176V20.9986C22 21.0976 21.9804 21.1957 21.9424 21.287C21.9043 21.3784 21.8485 21.4614 21.7783 21.5311C21.708 21.6008 21.6246 21.6559 21.5329 21.6933C21.4412 21.7306 21.343 21.7494 21.244 21.7486Z" fill="#000000" />
<path d="M14.9917 21.7495C14.7933 21.7487 14.6033 21.6693 14.4633 21.5288C14.3233 21.3882 14.2447 21.1979 14.2447 20.9995V15.0315C14.2431 14.8734 14.1792 14.7223 14.0668 14.6111C13.9545 14.4999 13.8028 14.4375 13.6447 14.4375H10.9047C10.7455 14.4375 10.5929 14.5007 10.4804 14.6132C10.3679 14.7258 10.3047 14.8784 10.3047 15.0375V20.9995C10.3047 21.1984 10.2257 21.3892 10.085 21.5298C9.94437 21.6705 9.7536 21.7495 9.55469 21.7495C9.35578 21.7495 9.16501 21.6705 9.02435 21.5298C8.8837 21.3892 8.80469 21.1984 8.80469 20.9995V15.0315C8.80785 14.4761 9.03033 13.9444 9.42365 13.5522C9.81696 13.16 10.3492 12.9391 10.9047 12.9375H13.6447C14.1999 12.9375 14.7326 13.1574 15.1261 13.549C15.5196 13.9407 15.742 14.4723 15.7447 15.0275V20.9995C15.7447 21.0982 15.7252 21.196 15.6873 21.2872C15.6494 21.3784 15.5939 21.4612 15.524 21.5309C15.454 21.6006 15.3709 21.6558 15.2796 21.6933C15.1883 21.7308 15.0904 21.7499 14.9917 21.7495Z" fill="#000000" />
</svg>