<svg width="24px"  height="24px"  viewBox="0 0 25 24" fill="none" xmlns="http://www.w3.org/2000/svg">
<path fill-rule="evenodd" clip-rule="evenodd" d="M9.90342 3.06007C11.2715 1.97998 13.202 1.97998 14.5701 3.06007L14.5733 3.06262L20.7996 8.03413C21.5422 8.6024 21.9842 9.47763 21.9996 10.413L21.9998 10.4254L21.9997 20.9995C21.9997 21.4137 21.664 21.7495 21.2497 21.7495C20.8355 21.7495 20.4997 21.4137 20.4997 20.9995V10.4322C20.4902 9.95621 20.2641 9.51135 19.8841 9.22243L19.8701 9.21149L13.6406 4.23737C13.64 4.23697 13.6395 4.23657 13.639 4.23618C12.8168 3.58812 11.6575 3.58794 10.8351 4.23564L4.63112 9.21517C4.62525 9.21988 4.61931 9.2245 4.61331 9.22903C4.23393 9.5152 4.00716 9.96199 4 10.4392V20.9995C4 21.4137 3.66421 21.7495 3.25 21.7495C2.83579 21.7495 2.5 21.4137 2.5 20.9995V10.4249C2.51156 9.4872 2.95416 8.60634 3.70038 8.03881L9.90342 3.06007Z" fill="#000000" />
<path fill-rule="evenodd" clip-rule="evenodd" d="M7.93945 14.3628C7.93945 13.1527 8.92031 12.1719 10.1304 12.1719H14.4036C15.6131 12.1719 16.5936 13.1531 16.5936 14.3628V19.5604C16.5936 20.7708 15.6124 21.7504 14.4036 21.7504H10.1304C8.92097 21.7504 7.93945 20.7711 7.93945 19.5604V14.3628ZM10.1304 13.6719C9.74874 13.6719 9.43945 13.9812 9.43945 14.3628V19.5604C9.43945 19.9414 9.74808 20.2504 10.1304 20.2504H14.4036C14.7847 20.2504 15.0936 19.9417 15.0936 19.5604V14.3628C15.0936 13.9808 14.784 13.6719 14.4036 13.6719H10.1304Z" fill="#000000" />
</svg>