<svg width="24px"  height="24px"  viewBox="0 0 25 24" fill="none" xmlns="http://www.w3.org/2000/svg">
<path fill-rule="evenodd" clip-rule="evenodd" d="M14.0346 3.89454C14.0346 3.89458 14.0345 3.89449 14.0346 3.89454L21.7258 10.2051C22.046 10.4678 22.0926 10.9404 21.8298 11.2606C21.5671 11.5809 21.0945 11.6275 20.7743 11.3647L13.0829 5.05402C12.5987 4.65647 11.9015 4.65634 11.4173 5.05388L3.72575 11.3647C3.40553 11.6275 2.93295 11.5809 2.67021 11.2606C2.40747 10.9404 2.45407 10.4678 2.77429 10.2051L10.4655 3.89454C10.4655 3.89449 10.4654 3.89458 10.4655 3.89454C11.5029 3.04297 12.9971 3.04297 14.0346 3.89454Z" fill="#000000" />
<path fill-rule="evenodd" clip-rule="evenodd" d="M4.61225 8.82297C5.02075 8.75438 5.4075 9.02993 5.47609 9.43842L6.87815 17.7885L6.87817 17.7886C7.01895 18.6279 7.74527 19.2419 8.59526 19.2419H15.9033C16.7544 19.2419 17.4806 18.6277 17.6213 17.7886L17.6213 17.7885L19.0234 9.43842C19.092 9.02993 19.4787 8.75438 19.8872 8.82297C20.2957 8.89156 20.5713 9.27832 20.5027 9.68681L19.1007 18.0367C19.1006 18.0368 19.1006 18.0368 19.1006 18.0369C18.8385 19.599 17.4865 20.7419 15.9033 20.7419H8.59526C7.01285 20.7419 5.66093 19.5988 5.39885 18.0369C5.39885 18.0368 5.39884 18.0368 5.39883 18.0367L3.9968 9.68681C3.92821 9.27832 4.20376 8.89156 4.61225 8.82297Z" fill="#000000" />
<path fill-rule="evenodd" clip-rule="evenodd" d="M9.85742 16.5059C9.85742 16.0916 10.1932 15.7559 10.6074 15.7559H13.8893C14.3035 15.7559 14.6393 16.0916 14.6393 16.5059C14.6393 16.9201 14.3035 17.2559 13.8893 17.2559H10.6074C10.1932 17.2559 9.85742 16.9201 9.85742 16.5059Z" fill="#000000" />
<path fill-rule="evenodd" clip-rule="evenodd" d="M12.2514 10.0273C11.5574 10.0273 10.9941 10.5906 10.9941 11.2846C10.9941 11.9786 11.5574 12.5418 12.2514 12.5418C12.9454 12.5418 13.5086 11.9786 13.5086 11.2846C13.5086 10.5906 12.9454 10.0273 12.2514 10.0273ZM9.49414 11.2846C9.49414 9.76216 10.729 8.52734 12.2514 8.52734C13.7738 8.52734 15.0086 9.76216 15.0086 11.2846C15.0086 12.807 13.7738 14.0418 12.2514 14.0418C10.729 14.0418 9.49414 12.807 9.49414 11.2846Z" fill="#000000" />
</svg>