<svg width="24px"  height="24px"  viewBox="0 0 25 24" fill="none" xmlns="http://www.w3.org/2000/svg">
<path fill-rule="evenodd" clip-rule="evenodd" d="M9.27471 3.31454C11.0052 1.89776 13.4949 1.89776 15.2254 3.31454L20.2773 7.44923C21.6105 8.54059 22.2403 10.2755 21.9161 11.968L20.7733 17.9322C20.7733 17.9323 20.7733 17.9322 20.7733 17.9322C20.3496 20.1454 18.4131 21.7461 16.1596 21.7461H8.33948C6.08564 21.7461 4.15061 20.1452 3.72591 17.9326L2.58395 11.968C2.58395 11.9679 2.58395 11.968 2.58395 11.968C2.2599 10.2758 2.88828 8.54086 4.22181 7.44927L9.27471 3.31454ZM14.2751 4.47517C13.0974 3.51088 11.4027 3.51088 10.225 4.47517L5.17194 8.60998C5.17191 8.61001 5.17197 8.60995 5.17194 8.60998C4.26454 9.35281 3.83657 10.5339 4.05718 11.6858L5.19902 17.6498C5.19904 17.65 5.199 17.6497 5.19902 17.6498C5.48838 19.1565 6.8059 20.2461 8.33948 20.2461H16.1596C17.6936 20.2461 19.0117 19.1564 19.3 17.6502L20.4429 11.6858C20.4429 11.6858 20.4429 11.6858 20.4429 11.6858C20.6634 10.5343 20.2349 9.35307 19.3272 8.61002C19.3272 8.61 19.3272 8.61003 19.3272 8.61002L14.2751 4.47517Z" fill="#000000" />
<path fill-rule="evenodd" clip-rule="evenodd" d="M12.2513 15.7969C11.2269 15.7969 10.3965 16.6273 10.3965 17.6517V20.9966C10.3965 21.4108 10.0607 21.7466 9.64648 21.7466C9.23227 21.7466 8.89648 21.4108 8.89648 20.9966V17.6517C8.89648 15.7989 10.3985 14.2969 12.2513 14.2969C14.104 14.2969 15.606 15.7989 15.606 17.6517V20.9966C15.606 21.4108 15.2703 21.7466 14.856 21.7466C14.4418 21.7466 14.106 21.4108 14.106 20.9966V17.6517C14.106 16.6273 13.2756 15.7969 12.2513 15.7969Z" fill="#000000" />
</svg>