<svg width="24px"  height="24px"  viewBox="0 0 25 24" fill="none" xmlns="http://www.w3.org/2000/svg">
<path fill-rule="evenodd" clip-rule="evenodd" d="M9.27393 3.31439C11.0052 1.89788 13.4948 1.89768 15.2254 3.31454L20.2773 7.44923C21.6105 8.54059 22.2403 10.2755 21.9161 11.968L20.7733 17.9322C20.7733 17.9323 20.7733 17.9322 20.7733 17.9322C20.3496 20.1454 18.4131 21.7461 16.1596 21.7461H8.33948C6.08564 21.7461 4.15061 20.1452 3.72591 17.9326L2.58395 11.968C2.58395 11.9679 2.58395 11.968 2.58395 11.968C2.2599 10.2758 2.88828 8.54086 4.22181 7.44927L9.27393 3.31439ZM10.2238 4.47532C10.2238 4.47535 10.2238 4.4753 10.2238 4.47532C11.4027 3.51083 13.0975 3.51098 14.2751 4.47517L19.3272 8.60998C19.3272 8.60997 19.3272 8.60999 19.3272 8.60998C20.2349 9.35303 20.6634 10.5342 20.4429 11.6857C20.4429 11.6857 20.4429 11.6858 20.4429 11.6857L19.3001 17.6501C19.0117 19.1563 17.6936 20.2461 16.1596 20.2461H8.33948C6.8059 20.2461 5.48845 19.1568 5.19908 17.6502C5.19911 17.6503 5.19906 17.6501 5.19908 17.6502L4.05718 11.6858C3.83657 10.5339 4.26446 9.35285 5.17189 8.61002C5.17188 8.61003 5.17191 8.61 5.17189 8.61002L10.2238 4.47532Z" fill="#000000" />
<path fill-rule="evenodd" clip-rule="evenodd" d="M8.5978 13.5401C8.92627 13.2877 9.39712 13.3494 9.64947 13.6779C10.3021 14.5274 11.2369 15.0276 12.247 15.0276C13.2581 15.0276 14.1929 14.5273 14.8455 13.6779C15.0978 13.3494 15.5687 13.2877 15.8971 13.5401C16.2256 13.7924 16.2873 14.2633 16.035 14.5917C15.1333 15.7654 13.7784 16.5276 12.247 16.5276C10.7164 16.5276 9.36163 15.7653 8.45998 14.5917C8.20763 14.2633 8.26933 13.7924 8.5978 13.5401Z" fill="#000000" />
</svg>