<svg width="24px"  height="24px"  viewBox="0 0 25 24" fill="none" xmlns="http://www.w3.org/2000/svg">
<path fill-rule="evenodd" clip-rule="evenodd" d="M13.3314 11.8411C12.5433 11.053 11.2659 11.053 10.4778 11.8411C9.6897 12.6291 9.6897 13.9066 10.4778 14.6947C11.2659 15.4827 12.5433 15.4827 13.3314 14.6947C14.1195 13.9066 14.1195 12.6291 13.3314 11.8411ZM9.41712 10.7804C10.791 9.40653 13.0182 9.40653 14.392 10.7804C15.5836 11.9719 15.7417 13.8053 14.8665 15.1672L15.8935 16.1942C16.1864 16.4871 16.1864 16.962 15.8935 17.2549C15.6006 17.5478 15.1257 17.5478 14.8329 17.2549L13.8062 16.2283C12.4441 17.1052 10.6093 16.9475 9.41712 15.7553C8.04325 14.3815 8.04325 12.1543 9.41712 10.7804Z" fill="#000000" />
<path d="M17.4659 21.7495H7.03489C5.95533 21.7481 4.92038 21.3187 4.15702 20.5553C3.39366 19.792 2.96422 18.757 2.96289 17.6775V10.4995C2.96206 9.94787 3.08455 9.40308 3.32142 8.90495C3.55828 8.40682 3.90353 7.96795 4.33188 7.62045L9.90488 3.07945C10.5688 2.54277 11.3967 2.25 12.2504 2.25C13.1041 2.25 13.932 2.54277 14.5959 3.07945L20.1689 7.62045C20.5972 7.96795 20.9425 8.40682 21.1794 8.90495C21.4162 9.40308 21.5387 9.94787 21.5379 10.4995V17.6735C21.5376 18.7537 21.1086 19.7897 20.3452 20.5539C19.5817 21.3181 18.5461 21.7481 17.4659 21.7495ZM12.2499 3.74945C11.7394 3.74912 11.2447 3.92583 10.8499 4.24945L5.27588 8.79045C5.02027 8.99731 4.81428 9.25884 4.67307 9.55581C4.53186 9.85277 4.459 10.1776 4.45987 10.5065V17.6805C4.46067 18.3623 4.73191 19.0161 5.21409 19.4983C5.69626 19.9804 6.35 20.2517 7.0319 20.2524H17.4629C18.1448 20.2517 18.7985 19.9804 19.2807 19.4983C19.7628 19.0161 20.0341 18.3623 20.0349 17.6805V10.4995C20.0358 10.1706 19.9629 9.84578 19.8217 9.54881C19.6805 9.25185 19.4745 8.99031 19.2189 8.78345L13.6499 4.24645C13.2543 3.92485 12.7597 3.74996 12.2499 3.75145V3.74945Z" fill="#000000" />
</svg>