<svg width="24px"  height="24px"  viewBox="0 0 25 24" fill="none" xmlns="http://www.w3.org/2000/svg">
<path fill-rule="evenodd" clip-rule="evenodd" d="M4.74707 8.02539C5.16128 8.02539 5.49707 8.36118 5.49707 8.77539V17.4504C5.49707 18.7282 6.53318 19.7643 7.81096 19.7643H16.6903C17.9681 19.7643 19.0042 18.7282 19.0042 17.4504V8.77539C19.0042 8.36118 19.34 8.02539 19.7542 8.02539C20.1684 8.02539 20.5042 8.36118 20.5042 8.77539V17.4504C20.5042 19.5566 18.7965 21.2643 16.6903 21.2643H7.81096C5.70475 21.2643 3.99707 19.5566 3.99707 17.4504V8.77539C3.99707 8.36118 4.33286 8.02539 4.74707 8.02539Z" fill="#000000" />
<path fill-rule="evenodd" clip-rule="evenodd" d="M12.25 15.2207C12.6642 15.2207 13 15.5565 13 15.9707V16.0174C13 16.4316 12.6642 16.7674 12.25 16.7674C11.8358 16.7674 11.5 16.4316 11.5 16.0174V15.9707C11.5 15.5565 11.8358 15.2207 12.25 15.2207Z" fill="#000000" />
<path fill-rule="evenodd" clip-rule="evenodd" d="M13.6249 14.4215C12.8363 13.7565 11.6678 13.7584 10.8872 14.4244C10.5722 14.6933 10.0988 14.6559 9.82989 14.3408C9.56102 14.0257 9.59848 13.5523 9.91356 13.2834C11.2561 12.1378 13.2458 12.1397 14.5919 13.2747C14.9085 13.5417 14.9488 14.0149 14.6818 14.3316C14.4148 14.6482 13.9416 14.6885 13.6249 14.4215Z" fill="#000000" />
<path fill-rule="evenodd" clip-rule="evenodd" d="M15.4233 12.1872C13.5733 10.7058 10.9282 10.7058 9.07819 12.1872C8.75485 12.4461 8.28286 12.3939 8.02396 12.0705C7.76506 11.7472 7.81729 11.2752 8.14062 11.0163C10.5386 9.09613 13.9629 9.09613 16.3609 11.0163C16.6842 11.2752 16.7364 11.7472 16.4775 12.0705C16.2186 12.3939 15.7467 12.4461 15.4233 12.1872Z" fill="#000000" />
<path fill-rule="evenodd" clip-rule="evenodd" d="M10.3109 3.41024C11.4475 2.51169 13.0526 2.51169 14.1892 3.41024L21.7155 9.36806C22.0403 9.62515 22.0952 10.0968 21.8381 10.4216C21.581 10.7464 21.1093 10.8013 20.7845 10.5442L13.259 4.58696C13.2588 4.58685 13.2591 4.58706 13.259 4.58696C12.6677 4.11979 11.8325 4.11955 11.2412 4.58685C11.2412 4.58688 11.2413 4.58681 11.2412 4.58685L3.71553 10.5442C3.39076 10.8013 2.91907 10.7464 2.66198 10.4216C2.40489 10.0968 2.45975 9.62515 2.78453 9.36806L10.3109 3.41024Z" fill="#000000" />
</svg>