<svg width="24px"  height="24px"  viewBox="0 0 25 24" fill="none" xmlns="http://www.w3.org/2000/svg">
<path fill-rule="evenodd" clip-rule="evenodd" d="M9.90352 3.06008C11.2716 1.97997 13.2022 1.97997 14.5702 3.06008L14.5734 3.06263L20.7998 8.03421C21.5424 8.60249 21.9845 9.47772 21.9999 10.4131L22.0001 10.4255L22 20.9998C22 21.414 21.6642 21.7498 21.25 21.7498C20.8358 21.7498 20.5 21.414 20.5 20.9998V10.4323C20.4905 9.95631 20.2644 9.51144 19.8844 9.22251L19.8703 9.21158L13.6407 4.23738C13.6402 4.23698 13.6397 4.23658 13.6392 4.23619C12.8169 3.58812 11.6577 3.58794 10.8352 4.23565L4.63114 9.21525C4.62527 9.21996 4.61933 9.22458 4.61332 9.22911C4.23393 9.51528 4.00716 9.96208 4 10.4393V20.9998C4 21.414 3.66421 21.7498 3.25 21.7498C2.83579 21.7498 2.5 21.414 2.5 20.9998V10.425C2.51156 9.48729 2.95417 8.60643 3.70039 8.03889L9.90352 3.06008Z" fill="#000000" />
<path fill-rule="evenodd" clip-rule="evenodd" d="M8.86328 16.8311C8.86328 14.9603 10.3803 13.4434 12.251 13.4434C14.1221 13.4434 15.6378 14.9607 15.6378 16.8311V21.0003C15.6378 21.4145 15.302 21.7503 14.8878 21.7503C14.4736 21.7503 14.1378 21.4145 14.1378 21.0003V16.8311C14.1378 15.7884 13.293 14.9434 12.251 14.9434C11.2087 14.9434 10.3633 15.7888 10.3633 16.8311V21.0003C10.3633 21.4145 10.0275 21.7503 9.61328 21.7503C9.19907 21.7503 8.86328 21.4145 8.86328 21.0003V16.8311Z" fill="#000000" />
</svg>