<svg width="24px"  height="24px"  viewBox="0 0 25 24" fill="none" xmlns="http://www.w3.org/2000/svg">
<path fill-rule="evenodd" clip-rule="evenodd" d="M9.90352 3.06008C11.2716 1.97997 13.2022 1.97997 14.5702 3.06008L14.5734 3.06263L20.7998 8.03421C21.5424 8.60249 21.9845 9.47772 21.9999 10.4131L22.0001 10.4255L22 20.9998C22 21.414 21.6642 21.7498 21.25 21.7498C20.8358 21.7498 20.5 21.414 20.5 20.9998V10.4323C20.4905 9.95631 20.2644 9.51144 19.8844 9.22251L19.8703 9.21158L13.6407 4.23738C13.6402 4.23698 13.6397 4.23658 13.6392 4.23619C12.8169 3.58812 11.6577 3.58794 10.8352 4.23565L4.63114 9.21525C4.62511 9.22009 4.619 9.22484 4.61283 9.22949C4.2334 9.51519 4.00717 9.96149 4 10.4393V20.9998C4 21.414 3.66421 21.7498 3.25 21.7498C2.83579 21.7498 2.5 21.414 2.5 20.9998V10.425C2.51155 9.48798 2.95268 8.60671 3.70063 8.0387L9.90352 3.06008Z" fill="#000000" />
<path fill-rule="evenodd" clip-rule="evenodd" d="M8.10178 12.7436C8.64469 12.1612 9.40917 11.8477 10.2808 11.8477H14.2184C15.0916 11.8477 15.8566 12.1609 16.3996 12.7438C16.9371 13.3207 17.2014 14.101 17.2014 14.9435V18.6534C17.2014 19.4959 16.9371 20.2764 16.3998 20.8535C15.8568 21.4366 15.0918 21.7502 14.2184 21.7502H10.2808C9.40745 21.7502 8.64258 21.4366 8.09985 20.8533C7.56279 20.2761 7.29883 19.4956 7.29883 18.6534V14.9435C7.29883 14.1004 7.56431 13.3201 8.10178 12.7436ZM9.19896 13.7664C8.9634 14.0191 8.79883 14.4118 8.79883 14.9435V18.6534C8.79883 19.186 8.96298 19.5789 9.19797 19.8315C9.4273 20.0779 9.77842 20.2502 10.2808 20.2502H14.2184C14.7209 20.2502 15.0724 20.0779 15.302 19.8313C15.5372 19.5787 15.7014 19.1858 15.7014 18.6534V14.9435C15.7014 14.4111 15.5372 14.0186 15.3021 13.7663C15.0726 13.5199 14.7211 13.3477 14.2184 13.3477H10.2808C9.7806 13.3477 9.42908 13.5196 9.19896 13.7664Z" fill="#000000" />
<path fill-rule="evenodd" clip-rule="evenodd" d="M12.25 11.8477C12.6642 11.8477 13 12.1834 13 12.5977V14.8997C13 15.3139 12.6642 15.6497 12.25 15.6497C11.8358 15.6497 11.5 15.3139 11.5 14.8997V12.5977C11.5 12.1834 11.8358 11.8477 12.25 11.8477ZM12.25 17.9477C12.6642 17.9477 13 18.2835 13 18.6977V20.9998C13 21.414 12.6642 21.7498 12.25 21.7498C11.8358 21.7498 11.5 21.414 11.5 20.9998V18.6977C11.5 18.2835 11.8358 17.9477 12.25 17.9477Z" fill="#000000" />
</svg>