<svg width="24px"  height="24px"  viewBox="0 0 25 24" fill="none" xmlns="http://www.w3.org/2000/svg">
<path fill-rule="evenodd" clip-rule="evenodd" d="M9.19531 12.0918C9.60953 12.0918 9.94531 12.4276 9.94531 12.8418V15.3167L11.2453 16.4518C11.4084 16.5942 11.502 16.8002 11.502 17.0167V21C11.502 21.4142 11.1662 21.75 10.752 21.75C10.3378 21.75 10.002 21.4142 10.002 21V17.3575L8.70203 16.2225C8.53891 16.08 8.44531 15.8741 8.44531 15.6575V12.8418C8.44531 12.4276 8.7811 12.0918 9.19531 12.0918Z" fill="#000000" />
<path fill-rule="evenodd" clip-rule="evenodd" d="M15.3067 10.1367C15.7209 10.1367 16.0567 10.4725 16.0567 10.8867V13.7024C16.0567 13.919 15.9631 14.125 15.8 14.2674L14.5 15.4025V20.9996C14.5 21.4138 14.1642 21.7496 13.75 21.7496C13.3358 21.7496 13 21.4138 13 20.9996V15.0616C13 14.8451 13.0936 14.6391 13.2567 14.4967L14.5567 13.3616V10.8867C14.5567 10.4725 14.8925 10.1367 15.3067 10.1367Z" fill="#000000" />
<path d="M17.4659 21.7495H7.03489C5.95533 21.7481 4.92038 21.3187 4.15702 20.5553C3.39366 19.792 2.96422 18.757 2.96289 17.6775V10.4995C2.96206 9.94787 3.08455 9.40308 3.32142 8.90495C3.55828 8.40682 3.90353 7.96795 4.33188 7.62045L9.90488 3.07945C10.5688 2.54277 11.3967 2.25 12.2504 2.25C13.1041 2.25 13.932 2.54277 14.5959 3.07945L20.1689 7.62045C20.5972 7.96795 20.9425 8.40682 21.1794 8.90495C21.4162 9.40308 21.5387 9.94787 21.5379 10.4995V17.6735C21.5376 18.7537 21.1086 19.7897 20.3452 20.5539C19.5817 21.3181 18.5461 21.7481 17.4659 21.7495ZM12.2499 3.74945C11.7394 3.74912 11.2447 3.92583 10.8499 4.24945L5.27588 8.79045C5.02027 8.99731 4.81428 9.25884 4.67307 9.55581C4.53186 9.85277 4.459 10.1776 4.45987 10.5065V17.6805C4.46067 18.3623 4.73191 19.0161 5.21409 19.4983C5.69626 19.9804 6.35 20.2517 7.0319 20.2524H17.4629C18.1448 20.2517 18.7985 19.9804 19.2807 19.4983C19.7628 19.0161 20.0341 18.3623 20.0349 17.6805V10.4995C20.0358 10.1706 19.9629 9.84578 19.8217 9.54881C19.6805 9.25185 19.4745 8.99031 19.2189 8.78345L13.6499 4.24645C13.2543 3.92485 12.7597 3.74996 12.2499 3.75145V3.74945Z" fill="#000000" />
</svg>