<svg width="24px"  height="24px"  viewBox="0 0 25 24" fill="none" xmlns="http://www.w3.org/2000/svg">
<path fill-rule="evenodd" clip-rule="evenodd" d="M10.3109 3.41024C11.4475 2.51169 13.0526 2.51169 14.1892 3.41024L21.7155 9.36806C22.0403 9.62515 22.0952 10.0968 21.8381 10.4216C21.581 10.7464 21.1093 10.8013 20.7845 10.5442L20.5027 10.3211V17.4509C20.5027 19.5572 18.7951 21.2648 16.6888 21.2648H7.80949C5.70327 21.2648 3.9956 19.5572 3.9956 17.4509V10.3225L3.71553 10.5442C3.39076 10.8013 2.91907 10.7464 2.66198 10.4216C2.40489 10.0968 2.45975 9.62515 2.78453 9.36806L10.3109 3.41024ZM5.4956 9.13507V17.4509C5.4956 18.7287 6.5317 19.7648 7.80949 19.7648H16.6888C17.9666 19.7648 19.0027 18.7287 19.0027 17.4509V9.1337L13.259 4.58696C13.2588 4.58685 13.2591 4.58706 13.259 4.58696C12.6677 4.11979 11.8325 4.11955 11.2412 4.58685C11.2412 4.58688 11.2413 4.58681 11.2412 4.58685L5.4956 9.13507Z" fill="#000000" />
<path fill-rule="evenodd" clip-rule="evenodd" d="M9.35938 10.709C9.35938 10.2948 9.69516 9.95898 10.1094 9.95898H14.3875C14.8018 9.95898 15.1375 10.2948 15.1375 10.709C15.1375 11.1232 14.8018 11.459 14.3875 11.459H10.1094C9.69516 11.459 9.35938 11.1232 9.35938 10.709Z" fill="#000000" />
<path fill-rule="evenodd" clip-rule="evenodd" d="M12.2487 15.2812C11.3039 15.2812 10.5371 16.0476 10.5371 16.9938V20.4732C10.5371 20.8874 10.2013 21.2232 9.78711 21.2232C9.3729 21.2232 9.03711 20.8874 9.03711 20.4732V16.9938C9.03711 15.2196 10.4751 13.7812 12.2487 13.7812C14.0232 13.7812 15.4613 15.2194 15.4613 16.9938V20.4732C15.4613 20.8874 15.1255 21.2232 14.7113 21.2232C14.2971 21.2232 13.9613 20.8874 13.9613 20.4732V16.9938C13.9613 16.0478 13.1947 15.2812 12.2487 15.2812Z" fill="#000000" />
</svg>