<svg width="24px"  height="24px"  viewBox="0 0 25 24" fill="none" xmlns="http://www.w3.org/2000/svg">
<path fill-rule="evenodd" clip-rule="evenodd" d="M9.99734 3.02825C11.3101 1.99058 13.1642 1.99058 14.477 3.02825L14.4798 3.03051L20.3947 7.75288C21.1103 8.29956 21.5337 9.14309 21.5493 10.0409L21.5495 10.0539L21.5494 17.9078L21.5494 17.9121C21.5373 20.043 19.8006 21.7609 17.6691 21.75H6.82727C4.69542 21.7598 2.95986 20.0392 2.9502 17.9083L2.9502 17.9049V10.0551C2.95932 9.15157 3.38634 8.30366 4.10366 7.75697L9.99734 3.02825ZM10.9295 4.20345L5.03453 8.93323C5.0289 8.93775 5.02319 8.9422 5.01742 8.94655C4.66512 9.21286 4.45569 9.62692 4.4502 10.0668V17.9031C4.45695 19.2054 5.51829 20.2566 6.8216 20.25L6.82542 20.2499L17.6713 20.25L17.6755 20.25C18.9791 20.2573 20.041 19.2076 20.0494 17.9054V10.0611C20.04 9.61971 19.8305 9.20762 19.4802 8.94187L19.4655 8.93047L13.5468 4.20501C13.5463 4.20466 13.5459 4.20432 13.5455 4.20397C12.7787 3.59885 11.6964 3.59868 10.9295 4.20345Z" fill="#000000" />
<path fill-rule="evenodd" clip-rule="evenodd" d="M7.78711 13.0816C7.78711 12.1698 8.52616 11.4297 9.43809 11.4297H15.06C15.9724 11.4297 16.7119 12.1693 16.7119 13.0816V20.9988C16.7119 21.413 16.3762 21.7488 15.9619 21.7488C15.5477 21.7488 15.2119 21.413 15.2119 20.9988V13.0816C15.2119 12.9977 15.1439 12.9297 15.06 12.9297H9.43809C9.35564 12.9297 9.28711 12.9972 9.28711 13.0816V20.9988C9.28711 21.413 8.95132 21.7488 8.53711 21.7488C8.1229 21.7488 7.78711 21.413 7.78711 20.9988V13.0816Z" fill="#000000" />
<path fill-rule="evenodd" clip-rule="evenodd" d="M12.248 11.9238C12.6623 11.9238 12.998 12.2596 12.998 12.6738V20.9987C12.998 21.4129 12.6623 21.7487 12.248 21.7487C11.8338 21.7487 11.498 21.4129 11.498 20.9987V12.6738C11.498 12.2596 11.8338 11.9238 12.248 11.9238Z" fill="#000000" />
</svg>