<svg width="24px"  height="24px"  viewBox="0 0 25 24" fill="none" xmlns="http://www.w3.org/2000/svg">
<path fill-rule="evenodd" clip-rule="evenodd" d="M9.99732 3.02825C11.3101 1.99058 13.1642 1.99058 14.4769 3.02825L14.4798 3.03051L20.3946 7.75286C21.1096 8.29907 21.535 9.14261 21.5493 10.0419L21.5495 10.0539L21.5494 17.9078L21.5494 17.912C21.5373 20.0429 19.8005 21.7608 17.6691 21.7499H6.82727C4.69654 21.7597 2.95986 20.0394 2.9502 17.9083L2.9502 17.9049V10.054C2.96061 9.15202 3.38573 8.30412 4.10366 7.75696L9.99732 3.02825ZM10.9295 4.20345L5.03453 8.93322C5.02889 8.93774 5.02319 8.94218 5.01742 8.94654C4.66587 9.21227 4.45648 9.62614 4.4502 10.0674V17.903C4.45695 19.2052 5.51911 20.2566 6.82159 20.2499L6.82541 20.2499L17.6712 20.2499L17.6755 20.2499C18.979 20.2573 20.041 19.2076 20.0494 17.9054V10.0604C20.0407 9.62044 19.8312 9.20817 19.4801 8.94186L19.4655 8.93045L13.5468 4.20501C13.5463 4.20464 13.5458 4.20428 13.5454 4.20392C12.7786 3.59885 11.6964 3.59869 10.9295 4.20345Z" fill="#000000" />
<path fill-rule="evenodd" clip-rule="evenodd" d="M7.03516 12.5624C7.03516 11.5498 7.85646 10.7285 8.86906 10.7285H15.6284C16.641 10.7285 17.4623 11.5498 17.4623 12.5624V20.9991C17.4623 21.4133 17.1265 21.7491 16.7123 21.7491C16.298 21.7491 15.9623 21.4133 15.9623 20.9991V12.5624C15.9623 12.3782 15.8125 12.2285 15.6284 12.2285H8.86906C8.68489 12.2285 8.53516 12.3782 8.53516 12.5624V20.9991C8.53516 21.4133 8.19937 21.7491 7.78516 21.7491C7.37094 21.7491 7.03516 21.4133 7.03516 20.9991V12.5624Z" fill="#000000" />
<path fill-rule="evenodd" clip-rule="evenodd" d="M7.03516 14.6191C7.03516 14.2049 7.37094 13.8691 7.78516 13.8691H16.7123C17.1265 13.8691 17.4623 14.2049 17.4623 14.6191C17.4623 15.0334 17.1265 15.3691 16.7123 15.3691H7.78516C7.37094 15.3691 7.03516 15.0334 7.03516 14.6191ZM7.03516 17.7585C7.03516 17.3443 7.37094 17.0085 7.78516 17.0085H16.7123C17.1265 17.0085 17.4623 17.3443 17.4623 17.7585C17.4623 18.1727 17.1265 18.5085 16.7123 18.5085H7.78516C7.37094 18.5085 7.03516 18.1727 7.03516 17.7585Z" fill="#000000" />
</svg>