<svg width="24px"  height="24px"  viewBox="0 0 25 24" fill="none" xmlns="http://www.w3.org/2000/svg">
<path fill-rule="evenodd" clip-rule="evenodd" d="M14.0346 3.89454C14.0346 3.89458 14.0345 3.89449 14.0346 3.89454L21.7258 10.2051C22.046 10.4678 22.0926 10.9404 21.8298 11.2606C21.5671 11.5809 21.0945 11.6275 20.7743 11.3647L13.0829 5.05402C12.5987 4.65647 11.9015 4.65634 11.4173 5.05388L3.72575 11.3647C3.40553 11.6275 2.93295 11.5809 2.67021 11.2606C2.40747 10.9404 2.45407 10.4678 2.77429 10.2051L10.4655 3.89454C10.4655 3.89449 10.4654 3.89458 10.4655 3.89454C11.5029 3.04297 12.9971 3.04297 14.0346 3.89454Z" fill="#000000" />
<path fill-rule="evenodd" clip-rule="evenodd" d="M4.61225 8.82297C5.02075 8.75438 5.4075 9.02993 5.47609 9.43842L6.87815 17.7885L6.87817 17.7886C7.01895 18.6279 7.74527 19.2419 8.59526 19.2419H15.9033C16.7544 19.2419 17.4806 18.6277 17.6213 17.7886L17.6213 17.7885L19.0234 9.43842C19.092 9.02993 19.4787 8.75438 19.8872 8.82297C20.2957 8.89156 20.5713 9.27832 20.5027 9.68681L19.1007 18.0367C19.1006 18.0368 19.1006 18.0368 19.1006 18.0369C18.8385 19.599 17.4865 20.7419 15.9033 20.7419H8.59526C7.01285 20.7419 5.66093 19.5988 5.39885 18.0369C5.39885 18.0368 5.39884 18.0368 5.39883 18.0367L3.9968 9.68681C3.92821 9.27832 4.20376 8.89156 4.61225 8.82297Z" fill="#000000" />
<path fill-rule="evenodd" clip-rule="evenodd" d="M12.2502 11.0371C11.2263 11.0371 10.3965 11.8669 10.3965 12.8908C10.3965 13.9146 11.2263 14.7445 12.2502 14.7445C13.274 14.7445 14.1038 13.9146 14.1038 12.8908C14.1038 11.8669 13.274 11.0371 12.2502 11.0371ZM8.89648 12.8908C8.89648 11.0385 10.3979 9.53711 12.2502 9.53711C14.1024 9.53711 15.6038 11.0385 15.6038 12.8908C15.6038 14.7431 14.1024 16.2445 12.2502 16.2445C10.3979 16.2445 8.89648 14.7431 8.89648 12.8908Z" fill="#000000" />
</svg>