<svg width="24px"  height="24px"  viewBox="0 0 25 24" fill="none" xmlns="http://www.w3.org/2000/svg">
<path fill-rule="evenodd" clip-rule="evenodd" d="M9.27393 3.31439C11.0052 1.89788 13.4948 1.89768 15.2254 3.31454L20.2773 7.44923C21.6105 8.54059 22.2403 10.2755 21.9161 11.968L20.7733 17.9322C20.7733 17.9323 20.7733 17.9322 20.7733 17.9322C20.3496 20.1454 18.4131 21.7461 16.1596 21.7461H8.33948C6.08564 21.7461 4.15061 20.1452 3.72591 17.9326L2.58395 11.968C2.58395 11.9679 2.58395 11.968 2.58395 11.968C2.2599 10.2758 2.88828 8.54086 4.22181 7.44927L9.27393 3.31439ZM10.2238 4.47532C10.2238 4.47535 10.2238 4.4753 10.2238 4.47532C11.4027 3.51083 13.0975 3.51098 14.2751 4.47517L19.3272 8.60998C19.3272 8.60997 19.3272 8.60999 19.3272 8.60998C20.2349 9.35303 20.6634 10.5342 20.4429 11.6857C20.4429 11.6857 20.4429 11.6858 20.4429 11.6857L19.3001 17.6501C19.0117 19.1563 17.6936 20.2461 16.1596 20.2461H8.33948C6.8059 20.2461 5.48845 19.1568 5.19908 17.6502C5.19911 17.6503 5.19906 17.6501 5.19908 17.6502L4.05718 11.6858C3.83657 10.5339 4.26446 9.35285 5.17189 8.61002C5.17188 8.61003 5.17191 8.61 5.17189 8.61002L10.2238 4.47532Z" fill="#000000" />
<path fill-rule="evenodd" clip-rule="evenodd" d="M12.2493 15.334C11.225 15.334 10.3945 16.1644 10.3945 17.1888C10.3945 17.603 10.0587 17.9388 9.64453 17.9388C9.23032 17.9388 8.89453 17.603 8.89453 17.1888C8.89453 15.336 10.3965 13.834 12.2493 13.834C14.1021 13.834 15.6041 15.336 15.6041 17.1888C15.6041 17.603 15.2683 17.9388 14.8541 17.9388C14.4399 17.9388 14.1041 17.603 14.1041 17.1888C14.1041 16.1644 13.2737 15.334 12.2493 15.334Z" fill="#000000" />
</svg>