<svg width="24px"  height="24px"  viewBox="0 0 25 24" fill="none" xmlns="http://www.w3.org/2000/svg">
<path fill-rule="evenodd" clip-rule="evenodd" d="M10.4687 12.1016C10.2924 12.1016 10.1504 12.2444 10.1504 12.4189V15.98C10.1504 16.1545 10.2924 16.2973 10.4687 16.2973H14.0288C14.2042 16.2973 14.3462 16.1554 14.3462 15.98V12.4189C14.3462 12.2435 14.2042 12.1016 14.0288 12.1016H10.4687ZM8.65039 12.4189C8.65039 11.4142 9.46577 10.6016 10.4687 10.6016H14.0288C15.0327 10.6016 15.8462 11.4151 15.8462 12.4189V15.98C15.8462 16.9838 15.0327 17.7973 14.0288 17.7973H10.4687C9.46577 17.7973 8.65039 16.9847 8.65039 15.98V12.4189Z" fill="#000000" />
<path d="M17.4659 21.7495H7.03489C5.95533 21.7481 4.92038 21.3187 4.15702 20.5553C3.39366 19.792 2.96422 18.757 2.96289 17.6775V10.4995C2.96206 9.94787 3.08455 9.40308 3.32142 8.90495C3.55828 8.40682 3.90353 7.96795 4.33188 7.62045L9.90488 3.07945C10.5688 2.54277 11.3967 2.25 12.2504 2.25C13.1041 2.25 13.932 2.54277 14.5959 3.07945L20.1689 7.62045C20.5972 7.96795 20.9425 8.40682 21.1794 8.90495C21.4162 9.40308 21.5387 9.94787 21.5379 10.4995V17.6735C21.5376 18.7537 21.1086 19.7897 20.3452 20.5539C19.5817 21.3181 18.5461 21.7481 17.4659 21.7495ZM12.2499 3.74945C11.7394 3.74912 11.2447 3.92583 10.8499 4.24945L5.27588 8.79045C5.02027 8.99731 4.81428 9.25884 4.67307 9.55581C4.53186 9.85277 4.459 10.1776 4.45987 10.5065V17.6805C4.46067 18.3623 4.73191 19.0161 5.21409 19.4983C5.69626 19.9804 6.35 20.2517 7.0319 20.2524H17.4629C18.1448 20.2517 18.7985 19.9804 19.2807 19.4983C19.7628 19.0161 20.0341 18.3623 20.0349 17.6805V10.4995C20.0358 10.1706 19.9629 9.84578 19.8217 9.54881C19.6805 9.25185 19.4745 8.99031 19.2189 8.78345L13.6499 4.24645C13.2543 3.92485 12.7597 3.74996 12.2499 3.75145V3.74945Z" fill="#000000" />
</svg>