<svg width="24px"  height="24px"  viewBox="0 0 25 24" fill="none" xmlns="http://www.w3.org/2000/svg">
<path fill-rule="evenodd" clip-rule="evenodd" d="M9.90352 3.06008C11.2715 1.98007 13.2022 1.97981 14.5695 3.06028L14.5724 3.0626L20.8 8.0344C21.5409 8.6022 21.9845 9.47703 21.9999 10.4131L22.0001 10.4255L22 20.9998C22 21.414 21.6642 21.7498 21.25 21.7498C20.8358 21.7498 20.5 21.414 20.5 20.9998V10.4323C20.4905 9.9569 20.2638 9.51153 19.8839 9.22213L19.8704 9.21161L13.6395 4.23718C13.639 4.23683 13.6386 4.23648 13.6382 4.23613C12.8171 3.58828 11.6578 3.5878 10.8352 4.23565L4.63114 9.21525C4.62511 9.22009 4.619 9.22484 4.61283 9.22949C4.2334 9.5152 4.00717 9.96149 4 10.4393V20.9998C4 21.414 3.66421 21.7498 3.25 21.7498C2.83579 21.7498 2.5 21.414 2.5 20.9998V10.425C2.51155 9.48798 2.95268 8.60671 3.70063 8.0387L9.90352 3.06008Z" fill="#000000" />
<path fill-rule="evenodd" clip-rule="evenodd" d="M8.10178 12.7436C8.64469 12.1612 9.40917 11.8477 10.2808 11.8477H14.2184C15.0916 11.8477 15.8566 12.1609 16.3996 12.7438C16.9371 13.3207 17.2014 14.101 17.2014 14.9435V18.6534C17.2014 19.4959 16.9371 20.2764 16.3998 20.8535C15.8568 21.4366 15.0918 21.7503 14.2184 21.7503H10.2808C9.40708 21.7503 8.64211 21.4366 8.0994 20.8532C7.56241 20.276 7.29883 19.4954 7.29883 18.6534V14.9435C7.29883 14.1004 7.56431 13.3201 8.10178 12.7436ZM9.19896 13.7664C8.9634 14.0191 8.79883 14.4118 8.79883 14.9435V18.6534C8.79883 19.1863 8.96287 19.5791 9.19769 19.8316C9.42679 20.0779 9.77782 20.2503 10.2808 20.2503H14.2184C14.7209 20.2503 15.0724 20.0779 15.302 19.8313C15.5372 19.5787 15.7014 19.1858 15.7014 18.6534V14.9435C15.7014 14.4111 15.5372 14.0186 15.3021 13.7663C15.0726 13.5199 14.7211 13.3477 14.2184 13.3477H10.2808C9.7806 13.3477 9.42908 13.5196 9.19896 13.7664Z" fill="#000000" />
</svg>