<svg width="24px"  height="24px"  viewBox="0 0 25 24" fill="none" xmlns="http://www.w3.org/2000/svg">
<path fill-rule="evenodd" clip-rule="evenodd" d="M10.8524 4.24699C11.6663 3.58434 12.8342 3.58434 13.6481 4.24699H10.8524ZM10.8524 4.24699L5.27856 8.78761C4.76245 9.20864 4.46289 9.83898 4.46289 10.5045V17.6783C4.46289 19.0983 5.61395 20.25 7.03462 20.25H17.4659C18.8865 20.25 20.0376 19.0983 20.0376 17.6783V10.5045C20.0376 9.83898 19.7383 9.20889 19.2222 8.78786L13.6481 4.24699C13.648 4.24696 13.6481 4.24703 13.6481 4.24699M9.90516 3.08394C11.2707 1.97202 13.2298 1.97202 14.5953 3.08394L20.1696 7.6249C21.0349 8.33057 21.5376 9.38774 21.5376 10.5045V17.6783C21.5376 19.9264 19.7152 21.75 17.4659 21.75H7.03462C4.78524 21.75 2.96289 19.9264 2.96289 17.6783V10.5045C2.96289 9.38774 3.46525 8.33081 4.33057 7.62515L9.90516 3.08394Z" fill="#000000" />
<path fill-rule="evenodd" clip-rule="evenodd" d="M12.2793 14.4785C12.6935 14.4785 13.0293 14.8143 13.0293 15.2285V17.2465C13.0293 17.6607 12.6935 17.9965 12.2793 17.9965C11.8651 17.9965 11.5293 17.6607 11.5293 17.2465V15.2285C11.5293 14.8143 11.8651 14.4785 12.2793 14.4785Z" fill="#000000" />
<path fill-rule="evenodd" clip-rule="evenodd" d="M8.6875 11.5645C9.10171 11.5645 9.4375 11.9002 9.4375 12.3145V17.2484C9.4375 17.6626 9.10171 17.9984 8.6875 17.9984C8.27329 17.9984 7.9375 17.6626 7.9375 17.2484V12.3145C7.9375 11.9002 8.27329 11.5645 8.6875 11.5645Z" fill="#000000" />
<path fill-rule="evenodd" clip-rule="evenodd" d="M15.8145 10.5098C16.2287 10.5098 16.5645 10.8456 16.5645 11.2598V17.2465C16.5645 17.6607 16.2287 17.9965 15.8145 17.9965C15.4002 17.9965 15.0645 17.6607 15.0645 17.2465V11.2598C15.0645 10.8456 15.4002 10.5098 15.8145 10.5098Z" fill="#000000" />
</svg>