<svg width="24px"  height="24px"  viewBox="0 0 25 24" fill="none" xmlns="http://www.w3.org/2000/svg">
<path fill-rule="evenodd" clip-rule="evenodd" d="M10.3109 3.41024C11.4475 2.51169 13.0526 2.51169 14.1892 3.41024L21.7155 9.36806C22.0403 9.62515 22.0952 10.0968 21.8381 10.4216C21.581 10.7464 21.1093 10.8013 20.7845 10.5442L20.5037 10.3218V17.4509C20.5037 19.5572 18.796 21.2648 16.6898 21.2648H7.81044C5.70422 21.2648 3.99655 19.5572 3.99655 17.4509V10.3217L3.71553 10.5442C3.39076 10.8013 2.91907 10.7464 2.66198 10.4216C2.40489 10.0968 2.45975 9.62515 2.78453 9.36806L10.3109 3.41024ZM5.49655 9.13432V17.4509C5.49655 18.7287 6.53265 19.7648 7.81044 19.7648H16.6898C17.9676 19.7648 19.0037 18.7287 19.0037 17.4509V9.13445L13.259 4.58696C13.2588 4.58685 13.2591 4.58706 13.259 4.58696C12.6677 4.11979 11.8325 4.11955 11.2412 4.58685C11.2412 4.58688 11.2413 4.58681 11.2412 4.58685L5.49655 9.13432Z" fill="#000000" />
<path fill-rule="evenodd" clip-rule="evenodd" d="M12.2492 14.5918C11.2351 14.5918 10.4121 15.4148 10.4121 16.4289C10.4121 16.8431 10.0763 17.1789 9.66211 17.1789C9.2479 17.1789 8.91211 16.8431 8.91211 16.4289C8.91211 14.5864 10.4067 13.0918 12.2492 13.0918C14.0926 13.0918 15.5874 14.5862 15.5874 16.4289C15.5874 16.8431 15.2516 17.1789 14.8374 17.1789C14.4231 17.1789 14.0874 16.8431 14.0874 16.4289C14.0874 15.415 13.2645 14.5918 12.2492 14.5918Z" fill="#000000" />
<path fill-rule="evenodd" clip-rule="evenodd" d="M12.25 9.50977C12.6642 9.50977 13 9.84555 13 10.2598V10.2698C13 10.684 12.6642 11.0198 12.25 11.0198C11.8358 11.0198 11.5 10.684 11.5 10.2698V10.2598C11.5 9.84555 11.8358 9.50977 12.25 9.50977Z" fill="#000000" />
</svg>