<svg width="24px"  height="24px"  viewBox="0 0 25 24" fill="none" xmlns="http://www.w3.org/2000/svg">
<path fill-rule="evenodd" clip-rule="evenodd" d="M9.99665 3.02804C11.3101 1.99075 13.1631 1.99048 14.476 3.02825L14.4788 3.03047L20.3949 7.75305C21.1087 8.29923 21.5337 9.14235 21.5493 10.0409L21.5496 10.0539L21.5494 18.8166C21.5494 20.4364 20.2358 21.75 18.6161 21.75H16.8297C15.3277 21.75 14.1094 20.5317 14.1094 19.0297V14.95C14.1094 14.3717 13.6405 13.9029 13.0623 13.9029H11.487C10.9093 13.9029 10.4409 14.3712 10.4409 14.95V19.0297C10.4409 20.532 9.22234 21.75 7.7196 21.75H5.8826C4.26286 21.75 2.94922 20.4364 2.94922 18.8166V10.054C2.95963 9.1509 3.38491 8.30391 4.10387 7.75682L9.99665 3.02804ZM10.9284 4.20354L5.03458 8.93321C5.02876 8.93788 5.02286 8.94246 5.0169 8.94696C4.66462 9.21276 4.4555 9.62551 4.44922 10.0674V18.8166C4.44922 19.6079 5.09128 20.25 5.8826 20.25H7.7196C8.3944 20.25 8.94087 19.703 8.94087 19.0297V14.95C8.94087 13.5438 10.0798 12.4029 11.487 12.4029H13.0623C14.4689 12.4029 15.6094 13.5433 15.6094 14.95V19.0297C15.6094 19.7033 16.1561 20.25 16.8297 20.25H18.6161C19.4074 20.25 20.0494 19.6079 20.0494 18.8166V10.0611C20.04 9.62035 19.83 9.20774 19.4797 8.94149L19.4656 8.93052L13.5458 4.20501C13.5454 4.20467 13.545 4.20433 13.5445 4.20398C12.7779 3.59899 11.6966 3.5985 10.9284 4.20354Z" fill="#000000" />
</svg>