<svg width="24px"  height="24px"  viewBox="0 0 25 24" fill="none" xmlns="http://www.w3.org/2000/svg">
<path fill-rule="evenodd" clip-rule="evenodd" d="M3.9902 3.89737C4.97468 2.84117 6.37669 2.25 8.03216 2.25H16.4669C18.1262 2.25 19.5288 2.84084 20.5129 3.89765C21.4913 4.94841 22 6.39889 22 8.02638V15.9736C22 17.6011 21.4913 19.0516 20.5127 20.1024C19.5285 21.1592 18.1256 21.75 16.4659 21.75H8.03216C6.37237 21.75 4.9699 21.1592 3.98617 20.1022C3.00811 19.0514 2.5 17.6009 2.5 15.9736V8.02638C2.5 6.39806 3.01117 4.94771 3.9902 3.89737ZM5.08745 4.92012C4.41024 5.64666 4 6.70951 4 8.02638V15.9736C4 17.2915 4.40843 18.3542 5.08418 19.0803C5.75426 19.8002 6.74287 20.25 8.03216 20.25H16.4659C17.7552 20.25 18.7444 19.8002 19.415 19.0801C20.0912 18.354 20.5 17.2913 20.5 15.9736V8.02638C20.5 6.70868 20.0912 5.64597 19.4151 4.91984C18.7446 4.19975 17.7556 3.75 16.4669 3.75H8.03216C6.74828 3.75 5.75921 4.19943 5.08745 4.92012Z" fill="#000000" />
<path fill-rule="evenodd" clip-rule="evenodd" d="M10.8847 7.40995C11.682 6.77982 12.807 6.78035 13.6045 7.40954L13.6079 7.41224L16.5887 9.79201C17.0384 10.1373 17.3041 10.6684 17.3138 11.2333L17.314 11.2461L17.3139 16.3134C17.3139 16.7276 16.9781 17.0634 16.5639 17.0634C16.1497 17.0634 15.8139 16.7276 15.8139 16.3134V11.2544C15.8106 11.1453 15.7586 11.0451 15.6736 10.9805L15.6591 10.9692L12.6741 8.58609C12.4215 8.38787 12.0675 8.3883 11.8165 8.5854L8.84366 10.9701C8.83809 10.9746 8.83246 10.979 8.82676 10.9833C8.74068 11.0484 8.68967 11.1487 8.6875 11.2555V16.3134C8.6875 16.7276 8.35171 17.0634 7.9375 17.0634C7.52329 17.0634 7.1875 16.7276 7.1875 16.3134V11.2415C7.194 10.6724 7.46214 10.1393 7.91235 9.79419L10.8847 7.40995Z" fill="#000000" />
<path fill-rule="evenodd" clip-rule="evenodd" d="M9.9707 14.3771C9.9707 13.1135 10.9944 12.0898 12.258 12.0898C13.521 12.0898 14.5463 13.1129 14.5463 14.3771V16.3134C14.5463 16.7276 14.2105 17.0634 13.7963 17.0634C13.3821 17.0634 13.0463 16.7276 13.0463 16.3134V14.3771C13.0463 13.9426 12.6938 13.5898 12.258 13.5898C11.8228 13.5898 11.4707 13.9419 11.4707 14.3771V16.3134C11.4707 16.7276 11.1349 17.0634 10.7207 17.0634C10.3065 17.0634 9.9707 16.7276 9.9707 16.3134V14.3771Z" fill="#000000" />
</svg>