<svg width="24px"  height="24px"  viewBox="0 0 25 24" fill="none" xmlns="http://www.w3.org/2000/svg">
<path fill-rule="evenodd" clip-rule="evenodd" d="M9.90342 3.06007C11.2715 1.97998 13.202 1.97998 14.5701 3.06007L14.5733 3.06262L20.7996 8.03413C21.5422 8.6024 21.9842 9.47763 21.9996 10.413L21.9998 10.4254L21.9997 20.9995C21.9997 21.4137 21.664 21.7495 21.2497 21.7495C20.8355 21.7495 20.4997 21.4137 20.4997 20.9995V10.4322C20.4902 9.95621 20.2641 9.51135 19.8841 9.22243L19.8701 9.21149L13.6406 4.23737C13.64 4.23697 13.6395 4.23657 13.639 4.23618C12.8168 3.58812 11.6575 3.58794 10.8351 4.23564L4.63112 9.21517C4.62525 9.21988 4.61931 9.2245 4.61331 9.22903C4.23393 9.5152 4.00716 9.96199 4 10.4392V20.9995C4 21.4137 3.66421 21.7495 3.25 21.7495C2.83579 21.7495 2.5 21.4137 2.5 20.9995V10.4249C2.51156 9.4872 2.95416 8.60634 3.70038 8.03881L9.90342 3.06007Z" fill="#000000" />
<path fill-rule="evenodd" clip-rule="evenodd" d="M7.93945 16.4985C7.93945 14.1093 9.87563 12.1719 12.2661 12.1719C14.6554 12.1719 16.5926 14.1092 16.5926 16.4985V21.0004C16.5926 21.4146 16.2569 21.7504 15.8426 21.7504C15.4284 21.7504 15.0926 21.4146 15.0926 21.0004V16.4985C15.0926 14.9376 13.8269 13.6719 12.2661 13.6719C10.7043 13.6719 9.43945 14.9374 9.43945 16.4985V21.0004C9.43945 21.4146 9.10367 21.7504 8.68945 21.7504C8.27524 21.7504 7.93945 21.4146 7.93945 21.0004V16.4985Z" fill="#000000" />
</svg>