<svg width="24px"  height="24px"  viewBox="0 0 25 24" fill="none" xmlns="http://www.w3.org/2000/svg">
<path fill-rule="evenodd" clip-rule="evenodd" d="M10.7533 4.28208C10.7533 4.28211 10.7534 4.28205 10.7533 4.28208L4.88666 9.06103C4.33443 9.51125 4.01367 10.1862 4.01367 10.8985V17.5031C4.01367 19.0202 5.2434 20.25 6.76054 20.25H17.7396C19.2567 20.25 20.4864 19.0202 20.4864 17.5031V10.8985C20.4864 10.1862 20.1657 9.51125 19.6134 9.06103L17.9008 7.66594C17.8861 7.6548 17.8717 7.64312 17.8578 7.63093L13.7468 4.28208C13.7467 4.28205 13.7468 4.28211 13.7468 4.28208C12.8755 3.57271 11.6247 3.57271 10.7533 4.28208ZM17.6024 5.48813L14.694 3.119C13.2711 1.9604 11.2291 1.9603 9.80622 3.1189L3.93908 7.89825C3.03769 8.63311 2.51367 9.73502 2.51367 10.8985V17.5031C2.51367 19.8487 4.41497 21.75 6.76054 21.75H17.7396C20.0851 21.75 21.9864 19.8487 21.9864 17.5031V10.8985C21.9864 9.73502 21.4626 8.6333 20.5613 7.89844L19.1024 6.71002V3.97007C19.1024 3.55586 18.7666 3.22007 18.3524 3.22007C17.9381 3.22007 17.6024 3.55586 17.6024 3.97007V5.48813Z" fill="#000000" />
<path fill-rule="evenodd" clip-rule="evenodd" d="M12.2497 14.377C11.1636 14.377 10.2832 15.2574 10.2832 16.3435V21.0001C10.2832 21.4144 9.94742 21.7501 9.5332 21.7501C9.11899 21.7501 8.7832 21.4144 8.7832 21.0001V16.3435C8.7832 14.429 10.3352 12.877 12.2497 12.877C14.1635 12.877 15.7153 14.4291 15.7153 16.3435V21.0001C15.7153 21.4144 15.3795 21.7501 14.9653 21.7501C14.5511 21.7501 14.2153 21.4144 14.2153 21.0001V16.3435C14.2153 15.2572 13.3347 14.377 12.2497 14.377Z" fill="#000000" />
</svg>