<svg width="24px"  height="24px"  viewBox="0 0 25 24" fill="none" xmlns="http://www.w3.org/2000/svg">
<path d="M16.466 21.75H8.032C4.723 21.75 2.5 19.429 2.5 15.974V8.026C2.5 4.571 4.723 2.25 8.032 2.25H16.467C19.776 2.25 22 4.571 22 8.026V15.974C22 19.429 19.776 21.75 16.466 21.75ZM8.032 3.75C5.583 3.75 4 5.429 4 8.026V15.974C4 18.574 5.583 20.25 8.032 20.25H16.466C18.917 20.25 20.5 18.571 20.5 15.974V8.026C20.5 5.426 18.917 3.75 16.467 3.75H8.032Z" fill="#000000" />
<path d="M14.7904 17.2764H9.71044C9.12852 17.2764 8.5703 17.0458 8.15798 16.6352C7.74566 16.2245 7.51282 15.6673 7.51044 15.0854V11.8004C7.3471 11.8975 7.15294 11.9291 6.96723 11.8886C6.78152 11.8481 6.61811 11.7386 6.51003 11.5823C6.40195 11.426 6.35725 11.2344 6.38498 11.0464C6.41272 10.8583 6.51082 10.6878 6.65944 10.5694L10.9444 7.17736C11.3151 6.88171 11.7753 6.7207 12.2494 6.7207C12.7236 6.7207 13.1837 6.88171 13.5544 7.17736L17.8394 10.5694C17.9887 10.6875 18.0875 10.8581 18.1157 11.0464C18.1439 11.2347 18.0994 11.4266 17.9913 11.5833C17.8832 11.7401 17.7195 11.8498 17.5334 11.8903C17.3474 11.9308 17.1529 11.899 16.9894 11.8014V15.0834C16.986 15.665 16.753 16.2217 16.3412 16.6324C15.9294 17.0431 15.372 17.2745 14.7904 17.2764ZM9.01244 10.6214V15.0824C9.01402 15.267 9.08847 15.4435 9.21958 15.5735C9.35068 15.7034 9.52782 15.7764 9.71244 15.7764H14.7834C14.8759 15.7772 14.9675 15.7596 15.0532 15.7248C15.1388 15.69 15.2167 15.6385 15.2823 15.5735C15.3479 15.5084 15.4 15.4309 15.4356 15.3456C15.4711 15.2603 15.4894 15.1688 15.4894 15.0764V10.6224L12.6234 8.35336C12.5171 8.2684 12.385 8.22213 12.2489 8.22213C12.1128 8.22213 11.9808 8.2684 11.8744 8.35336L9.01244 10.6214Z" fill="#000000" />
</svg>