<svg width="24px"  height="24px"  viewBox="0 0 25 24" fill="none" xmlns="http://www.w3.org/2000/svg">
<path fill-rule="evenodd" clip-rule="evenodd" d="M3.9902 3.89737C4.97468 2.84117 6.37669 2.25 8.03216 2.25H16.4669C18.1262 2.25 19.5288 2.84084 20.5129 3.89765C21.4913 4.94841 22 6.39889 22 8.02638V15.9736C22 17.6011 21.4913 19.0516 20.5127 20.1024C19.5285 21.1592 18.1256 21.75 16.4659 21.75H8.03216C6.37237 21.75 4.9699 21.1592 3.98617 20.1022C3.00811 19.0514 2.5 17.6009 2.5 15.9736V8.02638C2.5 6.39806 3.01117 4.94771 3.9902 3.89737ZM5.08745 4.92012C4.41024 5.64666 4 6.70951 4 8.02638V15.9736C4 17.2915 4.40843 18.3542 5.08418 19.0803C5.75426 19.8002 6.74287 20.25 8.03216 20.25H16.4659C17.7552 20.25 18.7444 19.8002 19.415 19.0801C20.0912 18.354 20.5 17.2913 20.5 15.9736V8.02638C20.5 6.70868 20.0912 5.64597 19.4151 4.91984C18.7446 4.19975 17.7556 3.75 16.4669 3.75H8.03216C6.74828 3.75 5.75921 4.19943 5.08745 4.92012Z" fill="#000000" />
<path fill-rule="evenodd" clip-rule="evenodd" d="M12.7185 8.38367C12.4457 8.16117 12.0538 8.16117 11.781 8.38367L8.97264 10.6714C8.80026 10.8115 8.69922 11.0231 8.69922 11.2468V14.8604C8.69922 15.3705 9.11262 15.7839 9.62273 15.7839H14.8768C15.3869 15.7839 15.8003 15.3705 15.8003 14.8604V11.2468C15.8003 11.0241 15.6997 10.8123 15.5269 10.6714C15.5268 10.6714 15.5269 10.6715 15.5269 10.6714L12.7185 8.38367ZM13.6663 7.22099C12.8416 6.54864 11.6575 6.54873 10.8329 7.22127L13.6663 7.22099ZM13.6663 7.22099L16.4743 9.50845C16.9961 9.93379 17.3003 10.5725 17.3003 11.2468V14.8604C17.3003 16.199 16.2153 17.2839 14.8768 17.2839H9.62273C8.2842 17.2839 7.19922 16.199 7.19922 14.8604V11.2468C7.19922 10.5736 7.50146 9.93441 8.02551 9.50825C8.02563 9.50815 8.02538 9.50835 8.02551 9.50825L10.8329 7.22127" fill="#000000" />
</svg>