<svg width="24px"  height="24px"  viewBox="0 0 25 24" fill="none" xmlns="http://www.w3.org/2000/svg">
<path fill-rule="evenodd" clip-rule="evenodd" d="M10.3109 3.41024C11.4475 2.51169 13.0526 2.51169 14.1892 3.41024L21.7155 9.36806C22.0403 9.62515 22.0952 10.0968 21.8381 10.4216C21.581 10.7464 21.1093 10.8013 20.7845 10.5442L13.259 4.58696C13.2588 4.58685 13.2591 4.58706 13.259 4.58696C12.6677 4.11979 11.8325 4.11955 11.2412 4.58685C11.2412 4.58688 11.2413 4.58681 11.2412 4.58685L3.71553 10.5442C3.39076 10.8013 2.91907 10.7464 2.66198 10.4216C2.40489 10.0968 2.45975 9.62515 2.78453 9.36806L10.3109 3.41024Z" fill="#000000" />
<path fill-rule="evenodd" clip-rule="evenodd" d="M4.74609 8.02539C5.16031 8.02539 5.49609 8.36118 5.49609 8.77539V17.4504C5.49609 18.7282 6.5322 19.7643 7.80999 19.7643H16.6893C17.9671 19.7643 19.0032 18.7282 19.0032 17.4504V8.77539C19.0032 8.36118 19.339 8.02539 19.7532 8.02539C20.1674 8.02539 20.5032 8.36118 20.5032 8.77539V17.4504C20.5032 19.5566 18.7956 21.2643 16.6893 21.2643H7.80999C5.70377 21.2643 3.99609 19.5566 3.99609 17.4504V8.77539C3.99609 8.36118 4.33188 8.02539 4.74609 8.02539Z" fill="#000000" />
<path fill-rule="evenodd" clip-rule="evenodd" d="M9.58789 12C9.58789 11.5858 9.92368 11.25 10.3379 11.25H14.1626C14.5769 11.25 14.9126 11.5858 14.9126 12C14.9126 12.4142 14.5769 12.75 14.1626 12.75H10.3379C9.92368 12.75 9.58789 12.4142 9.58789 12ZM9.58789 15.8976C9.58789 15.4834 9.92368 15.1476 10.3379 15.1476H14.1626C14.5769 15.1476 14.9126 15.4834 14.9126 15.8976C14.9126 16.3118 14.5769 16.6476 14.1626 16.6476H10.3379C9.92368 16.6476 9.58789 16.3118 9.58789 15.8976Z" fill="#000000" />
</svg>