<svg width="24px"  height="24px"  viewBox="0 0 25 24" fill="none" xmlns="http://www.w3.org/2000/svg">
<path fill-rule="evenodd" clip-rule="evenodd" d="M4.63281 9.28125C5.04703 9.28125 5.38281 9.61704 5.38281 10.0312V18.7524C5.38584 19.3635 5.56523 19.6973 5.78506 19.8906C6.02069 20.0978 6.4272 20.2532 7.0858 20.2498L7.08962 20.2498L17.413 20.2498C18.071 20.2531 18.4773 20.0978 18.713 19.8906C18.933 19.6972 19.1125 19.3632 19.116 18.7521V10.0312C19.116 9.61704 19.4518 9.28125 19.866 9.28125C20.2802 9.28125 20.616 9.61704 20.616 10.0312V18.7579C20.6113 19.6763 20.3274 20.4685 19.7035 21.0171C19.0956 21.5516 18.2781 21.7539 17.4073 21.7498H7.09149C6.2203 21.7539 5.40258 21.5516 4.79459 21.0171C4.17054 20.4684 3.88691 19.6759 3.88282 18.7575L3.88281 18.7541V10.0312C3.88281 9.61704 4.2186 9.28125 4.63281 9.28125Z" fill="#000000" />
<path fill-rule="evenodd" clip-rule="evenodd" d="M12.2511 15.6953C11.3556 15.6953 10.6309 16.4201 10.6309 17.3155V20.9993C10.6309 21.4135 10.2951 21.7493 9.88086 21.7493C9.46665 21.7493 9.13086 21.4135 9.13086 20.9993V17.3155C9.13086 15.5917 10.5272 14.1953 12.2511 14.1953C13.9742 14.1953 15.3703 15.5919 15.3703 17.3155V20.9993C15.3703 21.4135 15.0345 21.7493 14.6203 21.7493C14.2061 21.7493 13.8703 21.4135 13.8703 20.9993V17.3155C13.8703 16.4199 13.1453 15.6953 12.2511 15.6953Z" fill="#000000" />
<path fill-rule="evenodd" clip-rule="evenodd" d="M17.5753 2.26485C17.9087 2.19763 18.2457 2.36325 18.3961 2.66834L21.8639 9.70016C21.9785 9.93263 21.965 10.2078 21.8281 10.4279C21.6913 10.648 21.4504 10.7819 21.1912 10.7819H3.30859C3.04637 10.7819 2.80319 10.6449 2.66725 10.4207C2.53131 10.1965 2.52235 9.9175 2.64363 9.68501L5.04886 5.074C5.15363 4.87315 5.34357 4.73041 5.56563 4.68565L17.5753 2.26485ZM6.21315 6.0853L4.54572 9.28188H19.9851L17.306 3.84929L6.21315 6.0853Z" fill="#000000" />
</svg>