<svg width="24px"  height="24px"  viewBox="0 0 25 24" fill="none" xmlns="http://www.w3.org/2000/svg">
<path fill-rule="evenodd" clip-rule="evenodd" d="M12.2492 11.592L12.6256 12.3494L12.6264 12.351C12.774 12.6461 13.0578 12.8601 13.3978 12.9088C13.3984 12.9088 13.399 12.9089 13.3996 12.909L14.2272 13.0289L13.6313 13.6052C13.3901 13.837 13.2719 14.1801 13.3359 14.5227L13.4779 15.3313L12.736 14.9428C12.434 14.7807 12.074 14.7831 11.7757 14.9421L11.0237 15.3356L11.1676 14.5156C11.1676 14.5157 11.1676 14.5155 11.1676 14.5156C11.2259 14.1837 11.1169 13.8424 10.8732 13.606L10.2726 13.0282L11.1021 12.9076L11.1071 12.9069C11.4402 12.8562 11.7222 12.6467 11.8707 12.3532L12.2492 11.592ZM11.9256 9.55367C12.1853 9.468 12.4641 9.49057 12.7024 9.60794L12.7064 9.60993C12.8995 9.70651 13.0624 9.86287 13.1649 10.0641L13.1682 10.0705L13.8586 11.4598L15.4037 11.6836C15.6715 11.721 15.9099 11.862 16.0721 12.0701L16.0755 12.0745C16.3917 12.4863 16.3475 13.0721 15.9694 13.4308L14.8562 14.5073L15.1237 16.0317C15.125 16.0389 15.1262 16.0461 15.1272 16.0533C15.2076 16.6052 14.8311 17.1188 14.2818 17.2098L14.2654 17.2123C14.0575 17.242 13.8408 17.2099 13.6458 17.1124L13.6332 17.1061L12.2551 16.3842L10.8558 17.1164C10.3662 17.363 9.75991 17.186 9.48904 16.6948L9.48225 16.6825C9.3777 16.4842 9.34134 16.2584 9.37745 16.0381L9.37882 16.0298L9.64617 14.507L8.52442 13.4278L8.51405 13.4177C8.11511 13.0187 8.11511 12.3716 8.51405 11.9727C8.52227 11.9645 8.53068 11.9565 8.53927 11.9486C8.68835 11.8128 8.87055 11.7241 9.06481 11.6885C9.07391 11.6868 9.08304 11.6853 9.09219 11.684L10.6401 11.459L11.3302 10.0713C11.447 9.83524 11.6562 9.6419 11.9256 9.55367ZM12.0228 16.2624L12.0311 16.2668C12.0284 16.2654 12.0256 16.2639 12.0228 16.2624ZM14.8094 14.2421C14.8101 14.2457 14.8108 14.2492 14.8114 14.2528L14.8094 14.2421Z" fill="#000000" />
<path d="M17.4659 21.7495H7.03489C5.95533 21.7481 4.92038 21.3187 4.15702 20.5553C3.39366 19.792 2.96422 18.757 2.96289 17.6775V10.4995C2.96206 9.94787 3.08455 9.40308 3.32142 8.90495C3.55828 8.40682 3.90353 7.96795 4.33188 7.62045L9.90488 3.07945C10.5688 2.54277 11.3967 2.25 12.2504 2.25C13.1041 2.25 13.932 2.54277 14.5959 3.07945L20.1689 7.62045C20.5972 7.96795 20.9425 8.40682 21.1794 8.90495C21.4162 9.40308 21.5387 9.94787 21.5379 10.4995V17.6735C21.5376 18.7537 21.1086 19.7897 20.3452 20.5539C19.5817 21.3181 18.5461 21.7481 17.4659 21.7495ZM12.2499 3.74945C11.7394 3.74912 11.2447 3.92583 10.8499 4.24945L5.27588 8.79045C5.02027 8.99731 4.81428 9.25884 4.67307 9.55581C4.53186 9.85277 4.459 10.1776 4.45987 10.5065V17.6805C4.46067 18.3623 4.73191 19.0161 5.21409 19.4983C5.69626 19.9804 6.35 20.2517 7.0319 20.2524H17.4629C18.1448 20.2517 18.7985 19.9804 19.2807 19.4983C19.7628 19.0161 20.0341 18.3623 20.0349 17.6805V10.4995C20.0358 10.1706 19.9629 9.84578 19.8217 9.54881C19.6805 9.25185 19.4745 8.99031 19.2189 8.78345L13.6499 4.24645C13.2543 3.92485 12.7597 3.74996 12.2499 3.75145V3.74945Z" fill="#000000" />
</svg>