<svg width="24px"  height="24px"  viewBox="0 0 25 24" fill="none" xmlns="http://www.w3.org/2000/svg">
<path fill-rule="evenodd" clip-rule="evenodd" d="M4.74707 8.02539C5.16128 8.02539 5.49707 8.36118 5.49707 8.77539V17.4504C5.49707 18.7282 6.53318 19.7643 7.81096 19.7643H16.6903C17.9681 19.7643 19.0042 18.7282 19.0042 17.4504V8.77539C19.0042 8.36118 19.34 8.02539 19.7542 8.02539C20.1684 8.02539 20.5042 8.36118 20.5042 8.77539V17.4504C20.5042 19.5566 18.7965 21.2643 16.6903 21.2643H7.81096C5.70475 21.2643 3.99707 19.5566 3.99707 17.4504V8.77539C3.99707 8.36118 4.33286 8.02539 4.74707 8.02539Z" fill="#000000" />
<path fill-rule="evenodd" clip-rule="evenodd" d="M10.3109 3.41024C11.4475 2.51169 13.0526 2.51169 14.1892 3.41024L21.7155 9.36806C22.0403 9.62515 22.0952 10.0968 21.8381 10.4216C21.581 10.7464 21.1093 10.8013 20.7845 10.5442L13.259 4.58696C13.2588 4.58685 13.2591 4.58706 13.259 4.58696C12.6677 4.11979 11.8325 4.11955 11.2412 4.58685C11.2412 4.58688 11.2413 4.58681 11.2412 4.58685L3.71553 10.5442C3.39076 10.8013 2.91907 10.7464 2.66198 10.4216C2.40489 10.0968 2.45975 9.62515 2.78453 9.36806L10.3109 3.41024Z" fill="#000000" />
<path fill-rule="evenodd" clip-rule="evenodd" d="M10.7266 11.5647C11.093 11.4469 11.4935 11.5144 11.8001 11.7456L10.7266 11.5647ZM12.252 10.273C11.6379 9.9774 10.9272 9.9243 10.2665 10.137C8.62358 10.6669 8.15182 12.4134 8.58641 13.7683L8.59183 13.7846C8.82183 14.449 9.20048 15.0519 9.69776 15.5468L9.70407 15.553C10.3361 16.1674 11.0323 16.709 11.7812 17.1706L11.8653 17.2215C12.1079 17.3682 12.4125 17.3657 12.6525 17.2149L12.7254 17.1691C13.4732 16.7089 14.1696 16.1678 14.8001 15.555L14.8064 15.5488C15.3054 15.0521 15.6827 14.448 15.9123 13.7846L15.9178 13.7683C16.353 12.4116 15.8765 10.6665 14.2351 10.1371L14.234 10.1368C13.5744 9.92516 12.8653 9.97847 12.252 10.273ZM13.7752 11.5649C13.4096 11.4478 13.0095 11.5152 12.7023 11.7462C12.4351 11.9471 12.0671 11.9469 11.8001 11.7456M13.7752 11.5649C14.4063 11.7688 14.7466 12.4965 14.492 13.3022C14.3365 13.7472 14.0835 14.151 13.7513 14.4826C13.29 14.9306 12.7879 15.3351 12.2524 15.6912C11.717 15.3345 11.2153 14.9297 10.7529 14.4807C10.4209 14.1493 10.1673 13.7463 10.0122 13.3022C9.7569 12.4946 10.097 11.768 10.7266 11.5647" fill="#000000" />
</svg>