<svg width="24px"  height="24px"  viewBox="0 0 25 24" fill="none" xmlns="http://www.w3.org/2000/svg">
<path fill-rule="evenodd" clip-rule="evenodd" d="M10.8524 4.24699C11.6663 3.58434 12.8342 3.58434 13.6481 4.24699H10.8524ZM10.8524 4.24699L5.27856 8.78761C4.76245 9.20864 4.46289 9.83898 4.46289 10.5045V17.6783C4.46289 19.0983 5.61395 20.25 7.03462 20.25H17.4659C18.8865 20.25 20.0376 19.0983 20.0376 17.6783V10.5045C20.0376 9.83898 19.7383 9.20889 19.2222 8.78786L13.6481 4.24699C13.648 4.24696 13.6481 4.24703 13.6481 4.24699M9.90516 3.08394C11.2707 1.97202 13.2298 1.97202 14.5953 3.08394L20.1696 7.6249C21.0349 8.33057 21.5376 9.38774 21.5376 10.5045V17.6783C21.5376 19.9264 19.7152 21.75 17.4659 21.75H7.03462C4.78524 21.75 2.96289 19.9264 2.96289 17.6783V10.5045C2.96289 9.38774 3.46525 8.33081 4.33057 7.62515L9.90516 3.08394Z" fill="#000000" />
<path fill-rule="evenodd" clip-rule="evenodd" d="M7.42584 15.8648C7.4335 14.6646 8.41338 13.6997 9.61268 13.7071L9.60804 14.4571L9.61083 13.7071C10.8072 13.7115 11.7744 14.6835 11.7708 15.8808C11.7708 15.8813 11.7708 15.8818 11.7708 15.8823L11.0208 15.8795H11.7708V15.8808V15.8939C11.7634 17.0945 10.784 18.0606 9.58366 18.052C8.38448 18.0444 7.4172 17.0654 7.42584 15.8648ZM9.6034 15.207C9.23051 15.2047 8.9281 15.5044 8.92581 15.8745C8.92305 16.2458 9.22232 16.5497 9.59323 16.552C9.96425 16.5548 10.2675 16.2572 10.2708 15.8865V15.8768C10.2722 15.5083 9.97485 15.2084 9.60524 15.2071L9.6034 15.207Z" fill="#000000" />
<path fill-rule="evenodd" clip-rule="evenodd" d="M12.7344 11.6308C12.7418 10.4302 13.7212 9.46407 14.9217 9.47271C16.1207 9.48037 17.0879 10.4593 17.0793 11.6598C17.0718 12.8604 16.0905 13.8251 14.8925 13.8177L14.8971 13.0677L14.8943 13.8177C14.8937 13.8177 14.8931 13.8177 14.8925 13.8177C13.697 13.8122 12.7308 12.8406 12.7344 11.6439M14.2344 11.6382V11.648C14.233 12.0164 14.5303 12.3163 14.8999 12.3177L14.9018 12.3177C15.274 12.32 15.5771 12.02 15.5794 11.6503C15.5821 11.2789 15.2829 10.975 14.912 10.9727C14.5409 10.9699 14.2377 11.2675 14.2344 11.6382Z" fill="#000000" />
<path fill-rule="evenodd" clip-rule="evenodd" d="M9.59961 9.47266C10.0138 9.47266 10.3496 9.80844 10.3496 10.2227V14.457C10.3496 14.8712 10.0138 15.207 9.59961 15.207C9.1854 15.207 8.84961 14.8712 8.84961 14.457V10.2227C8.84961 9.80844 9.1854 9.47266 9.59961 9.47266Z" fill="#000000" />
<path fill-rule="evenodd" clip-rule="evenodd" d="M14.9082 12.3184C15.3224 12.3184 15.6582 12.6541 15.6582 13.0684V17.3027C15.6582 17.717 15.3224 18.0527 14.9082 18.0527C14.494 18.0527 14.1582 17.717 14.1582 17.3027V13.0684C14.1582 12.6541 14.494 12.3184 14.9082 12.3184Z" fill="#000000" />
</svg>