<svg width="24px"  height="24px"  viewBox="0 0 25 24" fill="none" xmlns="http://www.w3.org/2000/svg">
<path fill-rule="evenodd" clip-rule="evenodd" d="M16.0374 2.25C16.4516 2.25 16.7874 2.58579 16.7874 3V5.96177C16.7874 6.37599 16.4516 6.71177 16.0374 6.71177C15.6231 6.71177 15.2874 6.37599 15.2874 5.96177V3C15.2874 2.58579 15.6231 2.25 16.0374 2.25Z" fill="#000000" />
<path fill-rule="evenodd" clip-rule="evenodd" d="M8.7666 2.25C9.18082 2.25 9.5166 2.58579 9.5166 3V5.96177C9.5166 6.37599 9.18082 6.71177 8.7666 6.71177C8.35239 6.71177 8.0166 6.37599 8.0166 5.96177V3C8.0166 2.58579 8.35239 2.25 8.7666 2.25Z" fill="#000000" />
<path fill-rule="evenodd" clip-rule="evenodd" d="M4.93755 4.9512C5.85654 4.07734 7.13565 3.66992 8.59262 3.66992H16.2131C17.6733 3.66992 18.9532 4.07703 19.8708 4.95188C20.7941 5.83214 21.2533 7.09306 21.2491 8.60038C21.2491 8.60061 21.2491 8.60083 21.2491 8.60106L21.2491 12.5239C21.2491 12.9381 20.9133 13.2739 20.4991 13.2739C20.0848 13.2739 19.7491 12.9381 19.7491 12.5239V8.5989L19.7491 8.59674C19.7525 7.39849 19.3944 6.57016 18.8357 6.03754C18.2712 5.49937 17.4042 5.16992 16.2131 5.16992H8.59262C7.40598 5.16992 6.5382 5.49905 5.97119 6.03822C5.40994 6.5719 5.04883 7.40119 5.04883 8.5989V16.7438C5.04883 17.9665 5.41224 18.8167 5.97635 19.3634C6.54419 19.9138 7.41036 20.2486 8.59262 20.2486H12.6111C13.0253 20.2486 13.3611 20.5844 13.3611 20.9986C13.3611 21.4129 13.0253 21.7486 12.6111 21.7486H8.59262C7.13128 21.7486 5.85055 21.3304 4.93239 20.4405C4.01051 19.547 3.54883 18.2698 3.54883 16.7438V8.5989C3.54883 7.09073 4.01281 5.83053 4.93755 4.9512Z" fill="#000000" />
<path fill-rule="evenodd" clip-rule="evenodd" d="M18.159 16.3281C17.0758 16.3281 16.1982 17.2057 16.1982 18.2889C16.1982 19.3721 17.0758 20.2496 18.159 20.2496C19.2422 20.2496 20.1197 19.3721 20.1197 18.2889C20.1197 17.2057 19.2422 16.3281 18.159 16.3281ZM14.6982 18.2889C14.6982 16.3772 16.2473 14.8281 18.159 14.8281C20.0706 14.8281 21.6197 16.3772 21.6197 18.2889C21.6197 20.2005 20.0706 21.7496 18.159 21.7496C16.2473 21.7496 14.6982 20.2005 14.6982 18.2889Z" fill="#000000" />
<path fill-rule="evenodd" clip-rule="evenodd" d="M7.40088 9.90039C7.40088 9.48618 7.73667 9.15039 8.15088 9.15039H16.647C17.0612 9.15039 17.397 9.48618 17.397 9.90039C17.397 10.3146 17.0612 10.6504 16.647 10.6504H8.15088C7.73667 10.6504 7.40088 10.3146 7.40088 9.90039Z" fill="#000000" />
</svg>