<svg width="24px"  height="24px"  viewBox="0 0 25 24" fill="none" xmlns="http://www.w3.org/2000/svg">
<path fill-rule="evenodd" clip-rule="evenodd" d="M3.57422 9.66406C3.57422 9.24985 3.91001 8.91406 4.32422 8.91406H20.5276C20.9418 8.91406 21.2776 9.24985 21.2776 9.66406C21.2776 10.0783 20.9418 10.4141 20.5276 10.4141H4.32422C3.91001 10.4141 3.57422 10.0783 3.57422 9.66406Z" fill="#000000" />
<path fill-rule="evenodd" clip-rule="evenodd" d="M3.58374 15.3311C3.58374 14.9168 3.91953 14.5811 4.33374 14.5811H20.5274C20.9416 14.5811 21.2774 14.9168 21.2774 15.3311C21.2774 15.7453 20.9416 16.0811 20.5274 16.0811H4.33374C3.91953 16.0811 3.58374 15.7453 3.58374 15.3311Z" fill="#000000" />
<path fill-rule="evenodd" clip-rule="evenodd" d="M16.0659 2.25C16.4801 2.25 16.8159 2.58579 16.8159 3V5.96163C16.8159 6.37585 16.4801 6.71163 16.0659 6.71163C15.6517 6.71163 15.3159 6.37585 15.3159 5.96163V3C15.3159 2.58579 15.6517 2.25 16.0659 2.25Z" fill="#000000" />
<path fill-rule="evenodd" clip-rule="evenodd" d="M8.79565 2.25C9.20987 2.25 9.54565 2.58579 9.54565 3V5.96163C9.54565 6.37585 9.20987 6.71163 8.79565 6.71163C8.38144 6.71163 8.04565 6.37585 8.04565 5.96163V3C8.04565 2.58579 8.38144 2.25 8.79565 2.25Z" fill="#000000" />
<path fill-rule="evenodd" clip-rule="evenodd" d="M4.96494 4.95253C5.88393 4.07897 7.16298 3.67188 8.61976 3.67188H16.2398C17.6999 3.67188 18.9797 4.07865 19.8973 4.9532C20.8205 5.83308 21.2797 7.09351 21.2756 8.60047V16.8133C21.2756 18.3207 20.8143 19.5826 19.8909 20.4641C18.9729 21.3405 17.6933 21.7498 16.232 21.7498H8.61976C7.15848 21.7498 5.8778 21.3316 4.95968 20.4417C4.03783 19.5483 3.57617 18.2711 3.57617 16.7451V8.59968C3.57617 7.09157 4.04014 5.8316 4.96494 4.95253ZM5.99838 6.03972C5.43725 6.57311 5.07617 7.40205 5.07617 8.59968V16.7451C5.07617 17.9678 5.43956 18.8179 6.00364 19.3646C6.57144 19.915 7.43756 20.2498 8.61976 20.2498H16.232C17.4221 20.2498 18.2893 19.9192 18.8552 19.3791C19.4158 18.8439 19.7756 18.0125 19.7756 16.8133V8.59968L19.7756 8.59753C19.7791 7.39935 19.421 6.57137 18.8624 6.03904C18.298 5.50113 17.4311 5.17188 16.2398 5.17188H8.61976C7.43306 5.17188 6.56532 5.50081 5.99838 6.03972Z" fill="#000000" />
<path fill-rule="evenodd" clip-rule="evenodd" d="M9.72681 8.91406C10.141 8.91406 10.4768 9.24985 10.4768 9.66406V20.9998C10.4768 21.414 10.141 21.7498 9.72681 21.7498C9.31259 21.7498 8.97681 21.414 8.97681 20.9998V9.66406C8.97681 9.24985 9.31259 8.91406 9.72681 8.91406Z" fill="#000000" />
<path fill-rule="evenodd" clip-rule="evenodd" d="M15.1255 8.91406C15.5397 8.91406 15.8755 9.24985 15.8755 9.66406V20.9998C15.8755 21.414 15.5397 21.7498 15.1255 21.7498C14.7113 21.7498 14.3755 21.414 14.3755 20.9998V9.66406C14.3755 9.24985 14.7113 8.91406 15.1255 8.91406Z" fill="#000000" />
</svg>