<svg width="24px"  height="24px"  viewBox="0 0 25 24" fill="none" xmlns="http://www.w3.org/2000/svg">
<path fill-rule="evenodd" clip-rule="evenodd" d="M3.22632 9.46289C3.22632 9.04868 3.5621 8.71289 3.97632 8.71289H19.6747C20.0889 8.71289 20.4247 9.04868 20.4247 9.46289C20.4247 9.8771 20.0889 10.2129 19.6747 10.2129H3.97632C3.5621 10.2129 3.22632 9.8771 3.22632 9.46289Z" fill="#000000" />
<path fill-rule="evenodd" clip-rule="evenodd" d="M15.354 2.25C15.7682 2.25 16.104 2.58579 16.104 3V5.87229C16.104 6.2865 15.7682 6.62229 15.354 6.62229C14.9398 6.62229 14.604 6.2865 14.604 5.87229V3C14.604 2.58579 14.9398 2.25 15.354 2.25Z" fill="#000000" />
<path fill-rule="evenodd" clip-rule="evenodd" d="M8.30151 2.25C8.71573 2.25 9.05151 2.58579 9.05151 3V5.87229C9.05151 6.2865 8.71573 6.62229 8.30151 6.62229C7.8873 6.62229 7.55151 6.2865 7.55151 5.87229V3C7.55151 2.58579 7.8873 2.25 8.30151 2.25Z" fill="#000000" />
<path fill-rule="evenodd" clip-rule="evenodd" d="M4.57275 4.87658C5.46938 4.02414 6.71613 3.62793 8.13318 3.62793H15.5231C16.943 3.62793 18.1903 4.02385 19.0854 4.87732C19.9861 5.73607 20.4328 6.96516 20.4288 8.43136V11.364C20.4288 11.7783 20.093 12.114 19.6788 12.114C19.2645 12.114 18.9288 11.7783 18.9288 11.364V8.43046L18.9288 8.42824C18.9322 7.27085 18.5865 6.47415 18.0503 5.96294C17.5083 5.44619 16.6739 5.12793 15.5231 5.12793H8.13318C6.98638 5.12793 6.15092 5.4459 5.60629 5.96369C5.06744 6.47598 4.71875 7.27364 4.71875 8.43046V16.3293C4.71875 17.51 5.06972 18.3282 5.61152 18.8533C6.15703 19.3821 6.99089 19.7057 8.13318 19.7057H10.2835C10.6977 19.7057 11.0335 20.0415 11.0335 20.4557C11.0335 20.8699 10.6977 21.2057 10.2835 21.2057H8.13318C6.71162 21.2057 5.46326 20.7986 4.56753 19.9304C3.66807 19.0586 3.21875 17.8135 3.21875 16.3293V8.43046C3.21875 6.96311 3.67035 5.73451 4.57275 4.87658Z" fill="#000000" />
<path fill-rule="evenodd" clip-rule="evenodd" d="M16.6692 14.0254C14.9508 14.0254 13.5574 15.4193 13.5574 17.1382C13.5574 18.8568 14.9506 20.25 16.6692 20.25C18.3889 20.25 19.782 18.8567 19.782 17.1382C19.782 15.4195 18.3886 14.0254 16.6692 14.0254ZM12.0574 17.1382C12.0574 14.5914 14.1219 12.5254 16.6692 12.5254C19.2173 12.5254 21.282 14.5913 21.282 17.1382C21.282 19.6853 19.2171 21.75 16.6692 21.75C14.1222 21.75 12.0574 19.6852 12.0574 17.1382Z" fill="#000000" />
<path fill-rule="evenodd" clip-rule="evenodd" d="M16.6482 15.0928C17.0624 15.0928 17.3982 15.4286 17.3982 15.8428V16.9867L18.254 17.4982C18.6096 17.7107 18.7256 18.1711 18.5131 18.5267C18.3006 18.8823 17.8401 18.9982 17.4846 18.7858L16.2635 18.056C16.0369 17.9206 15.8982 17.6761 15.8982 17.4122V15.8428C15.8982 15.4286 16.234 15.0928 16.6482 15.0928Z" fill="#000000" />
<path fill-rule="evenodd" clip-rule="evenodd" d="M7.17065 12.9365C7.17065 12.5223 7.50644 12.1865 7.92065 12.1865H7.92128C8.3355 12.1865 8.67128 12.5223 8.67128 12.9365C8.67128 13.3507 8.3355 13.6865 7.92128 13.6865H7.92065C7.50644 13.6865 7.17065 13.3507 7.17065 12.9365Z" fill="#000000" />
<path fill-rule="evenodd" clip-rule="evenodd" d="M10.8484 12.9365C10.8484 12.5223 11.1842 12.1865 11.5984 12.1865H11.599C12.0132 12.1865 12.349 12.5223 12.349 12.9365C12.349 13.3507 12.0132 13.6865 11.599 13.6865H11.5984C11.1842 13.6865 10.8484 13.3507 10.8484 12.9365Z" fill="#000000" />
<path fill-rule="evenodd" clip-rule="evenodd" d="M7.17065 16.3271C7.17065 15.9129 7.50644 15.5771 7.92065 15.5771H7.92128C8.3355 15.5771 8.67128 15.9129 8.67128 16.3271C8.67128 16.7414 8.3355 17.0771 7.92128 17.0771H7.92065C7.50644 17.0771 7.17065 16.7414 7.17065 16.3271Z" fill="#000000" />
</svg>