<svg width="24px"  height="24px"  viewBox="0 0 25 24" fill="none" xmlns="http://www.w3.org/2000/svg">
<path fill-rule="evenodd" clip-rule="evenodd" d="M3.40674 9.66504C3.40674 9.25083 3.74252 8.91504 4.15674 8.91504H20.3527C20.7669 8.91504 21.1027 9.25083 21.1027 9.66504C21.1027 10.0793 20.7669 10.415 20.3527 10.415H4.15674C3.74252 10.415 3.40674 10.0793 3.40674 9.66504Z" fill="#000000" />
<path fill-rule="evenodd" clip-rule="evenodd" d="M15.8892 2.25C16.3034 2.25 16.6392 2.58579 16.6392 3V5.96205C16.6392 6.37627 16.3034 6.71205 15.8892 6.71205C15.4749 6.71205 15.1392 6.37627 15.1392 5.96205V3C15.1392 2.58579 15.4749 2.25 15.8892 2.25Z" fill="#000000" />
<path fill-rule="evenodd" clip-rule="evenodd" d="M8.61768 2.25C9.03189 2.25 9.36768 2.58579 9.36768 3V5.96205C9.36768 6.37627 9.03189 6.71205 8.61768 6.71205C8.20346 6.71205 7.86768 6.37627 7.86768 5.96205V3C7.86768 2.58579 8.20346 2.25 8.61768 2.25Z" fill="#000000" />
<path fill-rule="evenodd" clip-rule="evenodd" d="M4.78634 4.95089C5.70546 4.07707 6.98469 3.66992 8.44166 3.66992H16.0628C17.523 3.66992 18.803 4.07675 19.7208 4.95157C20.6442 5.83183 21.1034 7.0929 21.0992 8.60078C21.0992 8.601 21.0992 8.60123 21.0992 8.60145L21.0992 11.6246C21.0992 12.0388 20.7634 12.3746 20.3492 12.3746C19.935 12.3746 19.5992 12.0388 19.5992 11.6246V8.5993L19.5992 8.59714C19.6027 7.39821 19.2445 6.56984 18.6858 6.03732C18.1213 5.49923 17.2542 5.16992 16.0628 5.16992H8.44166C7.25477 5.16992 6.38691 5.49891 5.81988 6.038C5.25865 6.57158 4.89746 7.40091 4.89746 8.5993V16.7449C4.89746 17.9678 5.26091 18.8181 5.82509 19.3649C6.393 19.9153 7.25927 20.2502 8.44166 20.2502H10.6603C11.0745 20.2502 11.4103 20.586 11.4103 21.0002C11.4103 21.4144 11.0745 21.7502 10.6603 21.7502H8.44166C6.98019 21.7502 5.69936 21.332 4.78114 20.442C3.85918 19.5484 3.39746 18.2711 3.39746 16.7449V8.5993C3.39746 7.09058 3.86144 5.83022 4.78634 4.95089Z" fill="#000000" />
<path fill-rule="evenodd" clip-rule="evenodd" d="M18.2269 15.7868C17.3747 14.9346 15.9919 14.9342 15.1383 15.7868C14.2857 16.6404 14.2861 18.0231 15.1383 18.8753C15.9919 19.7279 17.3747 19.7275 18.2269 18.8753C19.0791 18.0231 19.0795 16.6404 18.2269 15.7868ZM14.0779 14.7259C15.5169 13.2881 17.8492 13.2878 19.2875 14.7261L19.2878 14.7263C20.7256 16.1653 20.7259 18.4977 19.2875 19.936C17.8492 21.3743 15.5169 21.374 14.0779 19.9362L14.0777 19.936C12.6393 18.4977 12.6397 16.1653 14.0775 14.7263L14.0779 14.7259Z" fill="#000000" />
<path fill-rule="evenodd" clip-rule="evenodd" d="M18.2265 18.873C18.5194 18.5801 18.9943 18.5801 19.2872 18.873L20.8772 20.463C21.1701 20.7559 21.1701 21.2308 20.8772 21.5237C20.5843 21.8166 20.1094 21.8166 19.8165 21.5237L18.2265 19.9337C17.9336 19.6408 17.9336 19.1659 18.2265 18.873Z" fill="#000000" />
<path fill-rule="evenodd" clip-rule="evenodd" d="M7.45605 13.2822C7.45605 12.868 7.79184 12.5322 8.20605 12.5322H8.20668C8.6209 12.5322 8.95668 12.868 8.95668 13.2822C8.95668 13.6964 8.6209 14.0322 8.20668 14.0322H8.20605C7.79184 14.0322 7.45605 13.6964 7.45605 13.2822Z" fill="#000000" />
<path fill-rule="evenodd" clip-rule="evenodd" d="M11.1333 13.2822C11.1333 12.868 11.4691 12.5322 11.8833 12.5322H11.8839C12.2981 12.5322 12.6339 12.868 12.6339 13.2822C12.6339 13.6964 12.2981 14.0322 11.8839 14.0322H11.8833C11.4691 14.0322 11.1333 13.6964 11.1333 13.2822Z" fill="#000000" />
<path fill-rule="evenodd" clip-rule="evenodd" d="M7.45605 16.6729C7.45605 16.2586 7.79184 15.9229 8.20605 15.9229H8.20668C8.6209 15.9229 8.95668 16.2586 8.95668 16.6729C8.95668 17.0871 8.6209 17.4229 8.20668 17.4229H8.20605C7.79184 17.4229 7.45605 17.0871 7.45605 16.6729Z" fill="#000000" />
</svg>