<svg width="24px"  height="24px"  viewBox="0 0 25 24" fill="none" xmlns="http://www.w3.org/2000/svg">
<path fill-rule="evenodd" clip-rule="evenodd" d="M3.81787 15.1201C3.81787 14.7059 4.15366 14.3701 4.56787 14.3701H20.6093C21.0235 14.3701 21.3593 14.7059 21.3593 15.1201C21.3593 15.5343 21.0235 15.8701 20.6093 15.8701H4.56787C4.15366 15.8701 3.81787 15.5343 3.81787 15.1201Z" fill="#000000" />
<path fill-rule="evenodd" clip-rule="evenodd" d="M16.2227 2.25C16.6369 2.25 16.9727 2.58579 16.9727 3V5.96174C16.9727 6.37595 16.6369 6.71174 16.2227 6.71174C15.8084 6.71174 15.4727 6.37595 15.4727 5.96174V3C15.4727 2.58579 15.8084 2.25 16.2227 2.25Z" fill="#000000" />
<path fill-rule="evenodd" clip-rule="evenodd" d="M8.95215 2.25C9.36636 2.25 9.70215 2.58579 9.70215 3V5.96174C9.70215 6.37595 9.36636 6.71174 8.95215 6.71174C8.53793 6.71174 8.20215 6.37595 8.20215 5.96174V3C8.20215 2.58579 8.53793 2.25 8.95215 2.25Z" fill="#000000" />
<path fill-rule="evenodd" clip-rule="evenodd" d="M5.12318 4.95257C6.0422 4.07898 7.32129 3.67188 8.77812 3.67188H16.3985C17.8586 3.67188 19.1384 4.07866 20.0561 4.95324C20.9794 5.83328 21.4386 7.094 21.4344 8.60132C21.4344 8.60154 21.4344 8.60177 21.4344 8.60199L21.4344 16.8137C21.4344 18.3212 20.9731 19.5831 20.0497 20.4646C19.1316 21.341 17.8519 21.7504 16.3907 21.7504H8.77812C7.31679 21.7504 6.03608 21.3322 5.11793 20.4423C4.19605 19.5488 3.73438 18.2716 3.73438 16.7456V8.59984C3.73438 7.09167 4.19836 5.83167 5.12318 4.95257ZM6.15663 6.03976C5.59547 6.57317 5.23438 7.40215 5.23438 8.59984V16.7456C5.23438 17.9683 5.59778 18.8185 6.16188 19.3652C6.72971 19.9156 7.59587 20.2504 8.77812 20.2504H16.3907C17.5808 20.2504 18.448 19.9198 19.0139 19.3796C19.5745 18.8445 19.9344 18.013 19.9344 16.8137V8.59984L19.9344 8.59768C19.9379 7.39945 19.5798 6.57144 19.0212 6.03908C18.4568 5.50115 17.5897 5.17188 16.3985 5.17188H8.77812C7.59137 5.17188 6.72359 5.50083 6.15663 6.03976Z" fill="#000000" />
<path fill-rule="evenodd" clip-rule="evenodd" d="M7.49316 10.7969C7.49316 10.3827 7.82895 10.0469 8.24316 10.0469H12.1156C12.5298 10.0469 12.8656 10.3827 12.8656 10.7969C12.8656 11.2111 12.5298 11.5469 12.1156 11.5469H8.24316C7.82895 11.5469 7.49316 11.2111 7.49316 10.7969Z" fill="#000000" />
</svg>