<svg width="24px"  height="24px"  viewBox="0 0 25 24" fill="none" xmlns="http://www.w3.org/2000/svg">
<path fill-rule="evenodd" clip-rule="evenodd" d="M3.41064 9.66504C3.41064 9.25083 3.74643 8.91504 4.16064 8.91504H20.3566C20.7708 8.91504 21.1066 9.25083 21.1066 9.66504C21.1066 10.0793 20.7708 10.415 20.3566 10.415H4.16064C3.74643 10.415 3.41064 10.0793 3.41064 9.66504Z" fill="#000000" />
<path fill-rule="evenodd" clip-rule="evenodd" d="M15.8931 2.25C16.3073 2.25 16.6431 2.58579 16.6431 3V5.96205C16.6431 6.37627 16.3073 6.71205 15.8931 6.71205C15.4789 6.71205 15.1431 6.37627 15.1431 5.96205V3C15.1431 2.58579 15.4789 2.25 15.8931 2.25Z" fill="#000000" />
<path fill-rule="evenodd" clip-rule="evenodd" d="M8.62158 2.25C9.0358 2.25 9.37158 2.58579 9.37158 3V5.96205C9.37158 6.37627 9.0358 6.71205 8.62158 6.71205C8.20737 6.71205 7.87158 6.37627 7.87158 5.96205V3C7.87158 2.58579 8.20737 2.25 8.62158 2.25Z" fill="#000000" />
<path fill-rule="evenodd" clip-rule="evenodd" d="M4.79025 4.95089C5.70936 4.07707 6.9886 3.66992 8.44557 3.66992H16.0667C17.5269 3.66992 18.8069 4.07675 19.7247 4.95157C20.6481 5.83183 21.1073 7.0929 21.1031 8.60078C21.1031 8.601 21.1031 8.60123 21.1031 8.60145L21.1031 11.6246C21.1031 12.0388 20.7673 12.3746 20.3531 12.3746C19.9389 12.3746 19.6031 12.0388 19.6031 11.6246V8.5993L19.6031 8.59714C19.6066 7.39821 19.2484 6.56984 18.6897 6.03732C18.1252 5.49923 17.2581 5.16992 16.0667 5.16992H8.44557C7.25868 5.16992 6.39081 5.49891 5.82379 6.038C5.26255 6.57158 4.90137 7.40091 4.90137 8.5993V16.7449C4.90137 17.9678 5.26482 18.8181 5.829 19.3649C6.39691 19.9153 7.26318 20.2502 8.44557 20.2502H10.6642C11.0784 20.2502 11.4142 20.586 11.4142 21.0002C11.4142 21.4144 11.0784 21.7502 10.6642 21.7502H8.44557C6.9841 21.7502 5.70327 21.332 4.78504 20.442C3.86309 19.5484 3.40137 18.2711 3.40137 16.7449V8.5993C3.40137 7.09058 3.86535 5.83022 4.79025 4.95089Z" fill="#000000" />
<path fill-rule="evenodd" clip-rule="evenodd" d="M7.45996 13.2822C7.45996 12.868 7.79575 12.5322 8.20996 12.5322H8.21059C8.6248 12.5322 8.96059 12.868 8.96059 13.2822C8.96059 13.6964 8.6248 14.0322 8.21059 14.0322H8.20996C7.79575 14.0322 7.45996 13.6964 7.45996 13.2822Z" fill="#000000" />
<path fill-rule="evenodd" clip-rule="evenodd" d="M11.1372 13.2822C11.1372 12.868 11.473 12.5322 11.8872 12.5322H11.8878C12.3021 12.5322 12.6378 12.868 12.6378 13.2822C12.6378 13.6964 12.3021 14.0322 11.8878 14.0322H11.8872C11.473 14.0322 11.1372 13.6964 11.1372 13.2822Z" fill="#000000" />
<path fill-rule="evenodd" clip-rule="evenodd" d="M7.45996 16.6729C7.45996 16.2586 7.79575 15.9229 8.20996 15.9229H8.21059C8.6248 15.9229 8.96059 16.2586 8.96059 16.6729C8.96059 17.0871 8.6248 17.4229 8.21059 17.4229H8.20996C7.79575 17.4229 7.45996 17.0871 7.45996 16.6729Z" fill="#000000" />
<path d="M15.204 21.6455C14.744 21.6455 14.294 21.3955 14.064 20.9655C13.934 20.7155 13.884 20.4355 13.934 20.1555L14.224 18.5055L13.014 17.3455C12.504 16.8555 12.494 16.0455 12.974 15.5355C13.174 15.3255 13.444 15.1955 13.734 15.1555L15.404 14.9155L16.154 13.4155C16.484 12.7755 17.264 12.5255 17.894 12.8555C18.134 12.9755 18.324 13.1655 18.444 13.4055C18.444 13.4055 18.444 13.4055 18.444 13.4255L19.194 14.9255L20.874 15.1655C21.564 15.2555 22.064 15.9055 21.964 16.6055C21.924 16.8955 21.794 17.1555 21.584 17.3555L20.374 18.5155L20.664 20.1455C20.774 20.8555 20.304 21.5155 19.604 21.6255C19.324 21.6655 19.044 21.6255 18.794 21.4955L17.294 20.7155L15.794 21.4955C15.604 21.5955 15.404 21.6455 15.204 21.6455ZM14.374 16.5855L15.334 17.5155C15.644 17.8155 15.784 18.2455 15.704 18.6655L15.474 19.9855L16.694 19.3555C17.064 19.1655 17.514 19.1655 17.884 19.3555L19.104 19.9855L18.874 18.6655C18.804 18.2455 18.944 17.8255 19.244 17.5255L20.214 16.5955L18.874 16.4055C18.454 16.3455 18.094 16.0855 17.904 15.7055L17.294 14.4855L16.684 15.7055C16.494 16.0855 16.134 16.3455 15.714 16.4055L14.374 16.5955V16.5855Z" fill="#000000" />
</svg>