<svg width="24px"  height="24px"  viewBox="0 0 25 24" fill="none" xmlns="http://www.w3.org/2000/svg">
<path fill-rule="evenodd" clip-rule="evenodd" d="M3.40967 9.66211C3.40967 9.2479 3.74545 8.91211 4.15967 8.91211H20.2003C20.6145 8.91211 20.9503 9.2479 20.9503 9.66211C20.9503 10.0763 20.6145 10.4121 20.2003 10.4121H4.15967C3.74545 10.4121 3.40967 10.0763 3.40967 9.66211Z" fill="#000000" />
<path fill-rule="evenodd" clip-rule="evenodd" d="M15.8159 2.25C16.2301 2.25 16.5659 2.58579 16.5659 3V5.96158C16.5659 6.37579 16.2301 6.71158 15.8159 6.71158C15.4017 6.71158 15.0659 6.37579 15.0659 5.96158V3C15.0659 2.58579 15.4017 2.25 15.8159 2.25Z" fill="#000000" />
<path fill-rule="evenodd" clip-rule="evenodd" d="M8.54346 2.25C8.95767 2.25 9.29346 2.58579 9.29346 3V5.96158C9.29346 6.37579 8.95767 6.71158 8.54346 6.71158C8.12924 6.71158 7.79346 6.37579 7.79346 5.96158V3C7.79346 2.58579 8.12924 2.25 8.54346 2.25Z" fill="#000000" />
<path fill-rule="evenodd" clip-rule="evenodd" d="M4.71482 4.95211C5.63376 4.0783 6.9128 3.6709 8.36968 3.6709H15.9896C17.4498 3.6709 18.7296 4.07798 19.6471 4.95278C20.5704 5.833 21.0295 7.09385 21.0253 8.60109C21.0253 8.60131 21.0253 8.60154 21.0253 8.60176L21.0253 16.8121C21.0253 18.3195 20.5641 19.5815 19.6408 20.4632C18.7227 21.3399 17.4431 21.7495 15.9818 21.7495H8.36968C6.9083 21.7495 5.62764 21.331 4.70957 20.4409C3.78782 19.5472 3.32617 18.2699 3.32617 16.7439V8.59961C3.32617 7.09153 3.79013 5.83139 4.71482 4.95211ZM5.74846 6.03912C5.18726 6.57276 4.82617 7.40198 4.82617 8.59961V16.7439C4.82617 17.9665 5.18957 18.817 5.75371 19.364C6.32154 19.9145 7.18764 20.2495 8.36968 20.2495H15.9818C17.1718 20.2495 18.0389 19.9188 18.6048 19.3784C19.1655 18.843 19.5253 18.0113 19.5253 16.8121V8.59961L19.5254 8.59745C19.5288 7.39928 19.1707 6.57102 18.6121 6.03844C18.0477 5.50032 17.1807 5.1709 15.9896 5.1709H8.36968C7.18313 5.1709 6.31542 5.5 5.74846 6.03912Z" fill="#000000" />
<path fill-rule="evenodd" clip-rule="evenodd" d="M11.4307 14.9727C11.4307 14.5584 11.7665 14.2227 12.1807 14.2227H12.1813C12.5956 14.2227 12.9313 14.5584 12.9313 14.9727C12.9313 15.3869 12.5956 15.7227 12.1813 15.7227H12.1807C11.7665 15.7227 11.4307 15.3869 11.4307 14.9727Z" fill="#000000" />
<path fill-rule="evenodd" clip-rule="evenodd" d="M7.41113 14.9727C7.41113 14.5584 7.74692 14.2227 8.16113 14.2227H8.16181C8.57603 14.2227 8.91181 14.5584 8.91181 14.9727C8.91181 15.3869 8.57603 15.7227 8.16181 15.7227H8.16113C7.74692 15.7227 7.41113 15.3869 7.41113 14.9727Z" fill="#000000" />
<path fill-rule="evenodd" clip-rule="evenodd" d="M15.4404 14.9727C15.4404 14.5584 15.7762 14.2227 16.1904 14.2227H16.1911C16.6053 14.2227 16.9411 14.5584 16.9411 14.9727C16.9411 15.3869 16.6053 15.7227 16.1911 15.7227H16.1904C15.7762 15.7227 15.4404 15.3869 15.4404 14.9727Z" fill="#000000" />
</svg>