<svg width="24px"  height="24px"  viewBox="0 0 25 24" fill="none" xmlns="http://www.w3.org/2000/svg">
<path fill-rule="evenodd" clip-rule="evenodd" d="M3.48389 9.66406C3.48389 9.24985 3.81967 8.91406 4.23389 8.91406H20.2753C20.6896 8.91406 21.0253 9.24985 21.0253 9.66406C21.0253 10.0783 20.6896 10.4141 20.2753 10.4141H4.23389C3.81967 10.4141 3.48389 10.0783 3.48389 9.66406Z" fill="#000000" />
<path fill-rule="evenodd" clip-rule="evenodd" d="M15.498 13.1797C15.498 12.7655 15.8338 12.4297 16.248 12.4297H16.2558C16.67 12.4297 17.0058 12.7655 17.0058 13.1797C17.0058 13.2165 17.0032 13.2527 16.998 13.2881V16.6775C16.998 17.0918 16.6623 17.4275 16.248 17.4275C15.8338 17.4275 15.498 17.0918 15.498 16.6775V13.1797Z" fill="#000000" />
<path fill-rule="evenodd" clip-rule="evenodd" d="M11.499 13.1846C11.499 12.7704 11.8348 12.4346 12.249 12.4346H12.2497C12.6639 12.4346 12.9997 12.7704 12.9997 13.1846C12.9997 13.5988 12.6639 13.9346 12.2497 13.9346H12.249C11.8348 13.9346 11.499 13.5988 11.499 13.1846Z" fill="#000000" />
<path fill-rule="evenodd" clip-rule="evenodd" d="M11.499 16.6846C11.499 16.2704 11.8348 15.9346 12.249 15.9346H12.2497C12.6639 15.9346 12.9997 16.2704 12.9997 16.6846C12.9997 17.0988 12.6639 17.4346 12.2497 17.4346H12.249C11.8348 17.4346 11.499 17.0988 11.499 16.6846Z" fill="#000000" />
<path fill-rule="evenodd" clip-rule="evenodd" d="M7.47168 16.6846C7.47168 16.2704 7.80747 15.9346 8.22168 15.9346H8.22238C8.63659 15.9346 8.97238 16.2704 8.97238 16.6846C8.97238 17.0988 8.63659 17.4346 8.22238 17.4346H8.22168C7.80747 17.4346 7.47168 17.0988 7.47168 16.6846Z" fill="#000000" />
<path fill-rule="evenodd" clip-rule="evenodd" d="M15.8906 2.25C16.3048 2.25 16.6406 2.58579 16.6406 3V5.96174C16.6406 6.37595 16.3048 6.71174 15.8906 6.71174C15.4764 6.71174 15.1406 6.37595 15.1406 5.96174V3C15.1406 2.58579 15.4764 2.25 15.8906 2.25Z" fill="#000000" />
<path fill-rule="evenodd" clip-rule="evenodd" d="M8.61816 2.25C9.03238 2.25 9.36816 2.58579 9.36816 3V5.96174C9.36816 6.37595 9.03238 6.71174 8.61816 6.71174C8.20395 6.71174 7.86816 6.37595 7.86816 5.96174V3C7.86816 2.58579 8.20395 2.25 8.61816 2.25Z" fill="#000000" />
<path fill-rule="evenodd" clip-rule="evenodd" d="M4.7892 4.95257C5.70822 4.07898 6.98731 3.67188 8.44414 3.67188H16.0645C17.5246 3.67188 18.8044 4.07866 19.7221 4.95324C20.6455 5.83328 21.1046 7.094 21.1004 8.60132C21.1004 8.60154 21.1004 8.60177 21.1004 8.60199L21.1004 16.8137C21.1004 18.3212 20.6391 19.5831 19.7157 20.4646C18.7976 21.341 17.518 21.7504 16.0567 21.7504H8.44414C6.98281 21.7504 5.70209 21.3322 4.78394 20.4423C3.86207 19.5488 3.40039 18.2716 3.40039 16.7456V8.59984C3.40039 7.09167 3.86438 5.83167 4.7892 4.95257ZM5.82265 6.03976C5.26149 6.57317 4.90039 7.40215 4.90039 8.59984V16.7456C4.90039 17.9683 5.2638 18.8185 5.8279 19.3652C6.39573 19.9156 7.26189 20.2504 8.44414 20.2504H16.0567C17.2468 20.2504 18.114 19.9198 18.68 19.3796C19.2406 18.8445 19.6004 18.013 19.6004 16.8137V8.59984L19.6004 8.59768C19.6039 7.39945 19.2458 6.57144 18.6872 6.03908C18.1228 5.50115 17.2558 5.17188 16.0645 5.17188H8.44414C7.25739 5.17188 6.3896 5.50083 5.82265 6.03976Z" fill="#000000" />
</svg>