<svg width="24px"  height="24px"  viewBox="0 0 25 24" fill="none" xmlns="http://www.w3.org/2000/svg">
<path fill-rule="evenodd" clip-rule="evenodd" d="M3.65967 9.66406C3.65967 9.24985 3.99545 8.91406 4.40967 8.91406H20.4511C20.8653 8.91406 21.2011 9.24985 21.2011 9.66406C21.2011 10.0783 20.8653 10.4141 20.4511 10.4141H4.40967C3.99545 10.4141 3.65967 10.0783 3.65967 9.66406Z" fill="#000000" />
<path fill-rule="evenodd" clip-rule="evenodd" d="M16.0664 2.25C16.4806 2.25 16.8164 2.58579 16.8164 3V5.96174C16.8164 6.37595 16.4806 6.71174 16.0664 6.71174C15.6522 6.71174 15.3164 6.37595 15.3164 5.96174V3C15.3164 2.58579 15.6522 2.25 16.0664 2.25Z" fill="#000000" />
<path fill-rule="evenodd" clip-rule="evenodd" d="M8.7959 2.25C9.21011 2.25 9.5459 2.58579 9.5459 3V5.96174C9.5459 6.37595 9.21011 6.71174 8.7959 6.71174C8.38168 6.71174 8.0459 6.37595 8.0459 5.96174V3C8.0459 2.58579 8.38168 2.25 8.7959 2.25Z" fill="#000000" />
<path fill-rule="evenodd" clip-rule="evenodd" d="M4.96498 4.95257C5.884 4.07898 7.16309 3.67188 8.61992 3.67188H16.2403C17.7004 3.67188 18.9802 4.07866 19.8979 4.95324C20.8212 5.83328 21.2804 7.094 21.2762 8.60132C21.2762 8.60154 21.2762 8.60177 21.2762 8.60199L21.2762 16.8137C21.2762 18.3212 20.8149 19.5831 19.8915 20.4646C18.9734 21.341 17.6937 21.7504 16.2325 21.7504H8.61992C7.15859 21.7504 5.87787 21.3322 4.95972 20.4423C4.03785 19.5488 3.57617 18.2716 3.57617 16.7456V8.59984C3.57617 7.09167 4.04016 5.83167 4.96498 4.95257ZM5.99843 6.03976C5.43727 6.57317 5.07617 7.40215 5.07617 8.59984V16.7456C5.07617 17.9683 5.43958 18.8185 6.00368 19.3652C6.57151 19.9156 7.43767 20.2504 8.61992 20.2504H16.2325C17.4226 20.2504 18.2898 19.9198 18.8557 19.3796C19.4163 18.8445 19.7762 18.013 19.7762 16.8137V8.59984L19.7762 8.59768C19.7797 7.39945 19.4216 6.57144 18.863 6.03908C18.2986 5.50115 17.4315 5.17188 16.2403 5.17188H8.61992C7.43317 5.17188 6.56539 5.50083 5.99843 6.03976Z" fill="#000000" />
<path fill-rule="evenodd" clip-rule="evenodd" d="M12.1924 16.3916C12.1924 15.9774 12.5282 15.6416 12.9424 15.6416H16.5774C16.9916 15.6416 17.3274 15.9774 17.3274 16.3916C17.3274 16.8058 16.9916 17.1416 16.5774 17.1416H12.9424C12.5282 17.1416 12.1924 16.8058 12.1924 16.3916Z" fill="#000000" />
</svg>