<svg width="24px"  height="24px"  viewBox="0 0 25 24" fill="none" xmlns="http://www.w3.org/2000/svg">
<path fill-rule="evenodd" clip-rule="evenodd" d="M3.9902 3.89737C4.97468 2.84117 6.37669 2.25 8.03216 2.25H16.4669C18.1262 2.25 19.5288 2.84084 20.5129 3.89765C21.4913 4.94841 22 6.39889 22 8.02638V15.9736C22 17.6011 21.4913 19.0516 20.5127 20.1024C19.5285 21.1592 18.1256 21.75 16.4659 21.75H8.03216C6.3728 21.75 4.97038 21.1591 3.98657 20.1023C3.00842 19.0515 2.5 17.601 2.5 15.9736V8.02638C2.5 6.39806 3.01117 4.94771 3.9902 3.89737ZM5.08745 4.92012C4.41024 5.64666 4 6.70951 4 8.02638V15.9736C4 17.2914 4.40861 18.3541 5.08451 19.0802C5.75475 19.8003 6.74341 20.25 8.03216 20.25H16.4659C17.7552 20.25 18.7444 19.8002 19.415 19.0801C20.0912 18.354 20.5 17.2913 20.5 15.9736V8.02638C20.5 6.70868 20.0912 5.64597 19.4151 4.91984C18.7446 4.19975 17.7556 3.75 16.4669 3.75H8.03216C6.74828 3.75 5.75921 4.19943 5.08745 4.92012Z" fill="#000000" />
<path fill-rule="evenodd" clip-rule="evenodd" d="M12.2505 6.98633C12.5468 6.98634 12.8154 7.16091 12.9358 7.43176L16.5776 15.6271C16.7458 16.0056 16.5753 16.4488 16.1968 16.6171C15.8183 16.7853 15.3751 16.6148 15.2069 16.2362L12.2503 9.58301L9.29295 16.2363C9.12471 16.6148 8.68148 16.7853 8.30298 16.617C7.92447 16.4488 7.75402 16.0056 7.92226 15.627L11.5651 7.43169C11.6855 7.16085 11.9541 6.98631 12.2505 6.98633Z" fill="#000000" />
<path fill-rule="evenodd" clip-rule="evenodd" d="M7.85742 12.2891C7.85742 11.8748 8.19321 11.5391 8.60742 11.5391H12.0157C12.43 11.5391 12.7657 11.8748 12.7657 12.2891C12.7657 12.7033 12.43 13.0391 12.0157 13.0391H8.60742C8.19321 13.0391 7.85742 12.7033 7.85742 12.2891Z" fill="#000000" />
</svg>