<svg width="24px"  height="24px"  viewBox="0 0 25 24" fill="none" xmlns="http://www.w3.org/2000/svg">
<path fill-rule="evenodd" clip-rule="evenodd" d="M3.9902 3.89737C4.97468 2.84117 6.37669 2.25 8.03216 2.25H16.4669C18.1262 2.25 19.5288 2.84084 20.5129 3.89765C21.4913 4.94841 22 6.39889 22 8.02638V15.9736C22 17.6011 21.4913 19.0516 20.5127 20.1024C19.5285 21.1592 18.1256 21.75 16.4659 21.75H8.03216C6.3728 21.75 4.97038 21.1591 3.98657 20.1023C3.00842 19.0515 2.5 17.601 2.5 15.9736V8.02638C2.5 6.39806 3.01117 4.94771 3.9902 3.89737ZM5.08745 4.92012C4.41024 5.64666 4 6.70951 4 8.02638V15.9736C4 17.2914 4.40861 18.3541 5.08451 19.0802C5.75475 19.8003 6.74341 20.25 8.03216 20.25H16.4659C17.7552 20.25 18.7444 19.8002 19.415 19.0801C20.0912 18.354 20.5 17.2913 20.5 15.9736V8.02638C20.5 6.70868 20.0912 5.64597 19.4151 4.91984C18.7446 4.19975 17.7556 3.75 16.4669 3.75H8.03216C6.74828 3.75 5.75921 4.19943 5.08745 4.92012Z" fill="#000000" />
<path fill-rule="evenodd" clip-rule="evenodd" d="M13.1402 6.77543C13.4326 6.81224 13.6763 7.01685 13.7632 7.29843L16.3591 15.7117C16.4812 16.1075 16.2593 16.5274 15.8635 16.6495C15.4677 16.7716 15.0479 16.5498 14.9257 16.154L12.819 9.32613L8.53021 16.3247C8.31378 16.6779 7.85202 16.7888 7.49885 16.5723C7.14568 16.3559 7.03483 15.8941 7.25126 15.541L12.407 7.12767C12.561 6.87642 12.8478 6.73861 13.1402 6.77543Z" fill="#000000" />
<path fill-rule="evenodd" clip-rule="evenodd" d="M15.7802 8.60281C16.1334 8.81924 16.2442 9.28099 16.0278 9.63417L11.9286 16.3234C11.7122 16.6765 11.2505 16.7874 10.8973 16.571C10.5441 16.3545 10.4333 15.8928 10.6497 15.5396L14.7488 8.85042C14.9652 8.49725 15.427 8.38639 15.7802 8.60281Z" fill="#000000" />
</svg>