<svg width="24px"  height="24px"  viewBox="0 0 25 24" fill="none" xmlns="http://www.w3.org/2000/svg">
<path fill-rule="evenodd" clip-rule="evenodd" d="M5.08756 4.92045C4.41028 5.64721 4 6.71026 4 8.02701V15.974C4 17.2917 4.40859 18.3543 5.08446 19.0803C5.75468 19.8003 6.7433 20.25 8.03201 20.25H16.466C17.7553 20.25 18.7445 19.8002 19.415 19.0802C20.0912 18.3542 20.5 17.2916 20.5 15.974V8.02701C20.5 6.7094 20.0912 5.64649 19.4151 4.92016C18.7445 4.19989 17.7556 3.75 16.467 3.75H8.03201C6.74842 3.75 5.75938 4.19955 5.08756 4.92045ZM3.9902 3.89781C4.97464 2.84145 6.37661 2.25 8.03201 2.25H16.467C18.1264 2.25 19.529 2.84112 20.513 3.8981C21.4913 4.94902 22 6.39961 22 8.02701V15.974C22 17.6014 21.4913 19.0518 20.5127 20.1025C19.5285 21.1593 18.1257 21.75 16.466 21.75H8.03201C6.37272 21.75 4.97034 21.1592 3.98655 20.1024C3.00841 19.0517 2.5 17.6013 2.5 15.974V8.02701C2.5 6.39876 3.01123 4.9483 3.9902 3.89781Z" fill="#000000" />
<path fill-rule="evenodd" clip-rule="evenodd" d="M7.625 12.3809C8.03921 12.3809 8.375 12.7166 8.375 13.1309V13.8805C8.375 14.2306 8.57475 14.5501 8.88953 14.7034L11.8312 16.136C12.0841 16.2592 12.3797 16.2592 12.6326 16.136L15.575 14.7033C15.8898 14.55 16.0896 14.2305 16.0896 13.8804V13.1309C16.0896 12.7166 16.4254 12.3809 16.8396 12.3809C17.2538 12.3809 17.5896 12.7166 17.5896 13.1309V13.8804C17.5896 14.8044 17.0624 15.6474 16.2317 16.0519L13.2893 17.4846C12.6218 17.8097 11.8419 17.8096 11.1744 17.4846L8.23276 16.0519C7.40209 15.6474 6.875 14.8044 6.875 13.8805V13.1309C6.875 12.7166 7.21079 12.3809 7.625 12.3809Z" fill="#000000" />
<path fill-rule="evenodd" clip-rule="evenodd" d="M11.1403 6.49513C11.8265 6.14749 12.6372 6.14746 13.3234 6.49504L16.2657 7.98551C17.0778 8.39686 17.5896 9.22984 17.5896 10.1401V10.8442C17.5896 11.2584 17.2538 11.5942 16.8396 11.5942C16.4254 11.5942 16.0896 11.2584 16.0896 10.8442V10.1401C16.0896 9.79517 15.8957 9.47951 15.5879 9.32362L12.6455 7.83316C12.3855 7.70144 12.0783 7.70145 11.8183 7.83319L8.87663 9.32357C8.56892 9.47946 8.375 9.79511 8.375 10.14V10.8442C8.375 11.2584 8.03921 11.5942 7.625 11.5942C7.21079 11.5942 6.875 11.2584 6.875 10.8442V10.14C6.875 9.22982 7.38673 8.39689 8.1987 7.9855L11.1403 6.49513Z" fill="#000000" />
<path fill-rule="evenodd" clip-rule="evenodd" d="M12.2311 10.4766C11.4045 10.4766 10.7344 11.1467 10.7344 11.9732C10.7344 12.7998 11.4045 13.4699 12.2311 13.4699C13.0577 13.4699 13.7277 12.7998 13.7277 11.9732C13.7277 11.1467 13.0577 10.4766 12.2311 10.4766ZM9.23438 11.9732C9.23438 10.3182 10.576 8.97656 12.2311 8.97656C13.8861 8.97656 15.2277 10.3182 15.2277 11.9732C15.2277 13.6283 13.8861 14.9699 12.2311 14.9699C10.576 14.9699 9.23438 13.6283 9.23438 11.9732Z" fill="#000000" />
<path fill-rule="evenodd" clip-rule="evenodd" d="M12.2305 13.4785C12.6447 13.4785 12.9805 13.8143 12.9805 14.2285V16.9762C12.9805 17.3904 12.6447 17.7262 12.2305 17.7262C11.8163 17.7262 11.4805 17.3904 11.4805 16.9762V14.2285C11.4805 13.8143 11.8163 13.4785 12.2305 13.4785Z" fill="#000000" />
</svg>