<svg width="24px"  height="24px"  viewBox="0 0 25 24" fill="none" xmlns="http://www.w3.org/2000/svg">
<path fill-rule="evenodd" clip-rule="evenodd" d="M3.9902 3.89737C4.97468 2.84117 6.37669 2.25 8.03216 2.25H16.4669C18.1262 2.25 19.5288 2.84084 20.5129 3.89765C21.4913 4.94841 22 6.39889 22 8.02638V15.9736C22 17.6011 21.4913 19.0516 20.5127 20.1024C19.5285 21.1592 18.1256 21.75 16.4659 21.75H8.03216C6.3728 21.75 4.97038 21.1591 3.98657 20.1023C3.00842 19.0515 2.5 17.601 2.5 15.9736V8.02638C2.5 6.39806 3.01117 4.94771 3.9902 3.89737ZM5.08745 4.92012C4.41024 5.64666 4 6.70951 4 8.02638V15.9736C4 17.2914 4.40861 18.3541 5.08451 19.0802C5.75475 19.8003 6.74341 20.25 8.03216 20.25H16.4659C17.7552 20.25 18.7444 19.8002 19.415 19.0801C20.0912 18.354 20.5 17.2913 20.5 15.9736V8.02638C20.5 6.70868 20.0912 5.64597 19.4151 4.91984C18.7446 4.19975 17.7556 3.75 16.4669 3.75H8.03216C6.74828 3.75 5.75921 4.19943 5.08745 4.92012Z" fill="#000000" />
<path fill-rule="evenodd" clip-rule="evenodd" d="M9.49754 12.1027C9.86807 12.2878 10.0184 12.7383 9.83321 13.1088L9.37202 14.0318L12.2505 15.7588L15.1287 14.032L14.667 13.1092C14.4817 12.7387 14.6317 12.2882 15.0022 12.1029C15.3726 11.9175 15.8232 12.0676 16.0085 12.438L16.781 13.9821C16.9564 14.3327 16.8323 14.7592 16.4962 14.9608L12.6364 17.2765C12.3989 17.419 12.1022 17.419 11.8647 17.2765L8.00489 14.9608C7.66888 14.7593 7.54468 14.333 7.71983 13.9825L8.4914 12.4384C8.67655 12.0678 9.12701 11.9175 9.49754 12.1027Z" fill="#000000" />
<path fill-rule="evenodd" clip-rule="evenodd" d="M12.2563 6.61523C12.5199 6.61552 12.764 6.75418 12.8993 6.98045L14.8695 10.2769C15.0821 10.6324 14.9661 11.0929 14.6106 11.3054C14.255 11.5179 13.7945 11.402 13.582 11.0464L12.2539 8.82445L10.9184 11.0478C10.7052 11.4029 10.2444 11.5179 9.88932 11.3046C9.53424 11.0913 9.41929 10.6306 9.63257 10.2755L11.6126 6.97906C11.7483 6.75308 11.9927 6.61495 12.2563 6.61523Z" fill="#000000" />
</svg>