<svg width="24px"  height="24px"  viewBox="0 0 25 24" fill="none" xmlns="http://www.w3.org/2000/svg">
<path fill-rule="evenodd" clip-rule="evenodd" d="M12.25 3.75C7.69329 3.75 4 7.44329 4 12C4 16.5567 7.69329 20.25 12.25 20.25C16.8067 20.25 20.5 16.5567 20.5 12C20.5 7.44329 16.8067 3.75 12.25 3.75ZM2.5 12C2.5 6.61487 6.86487 2.25 12.25 2.25C17.6351 2.25 22 6.61487 22 12C22 17.3851 17.6351 21.75 12.25 21.75C6.86487 21.75 2.5 17.3851 2.5 12Z" fill="#000000" />
<path fill-rule="evenodd" clip-rule="evenodd" d="M11.8554 6.33536C12.1055 6.3202 12.3467 6.43098 12.4982 6.63062L13.967 8.5662C13.9762 8.57838 13.9851 8.59083 13.9936 8.60355C14.4091 9.22676 14.5792 10.1566 14.0757 10.9231L11.6115 14.8805C11.2737 15.4401 10.6006 15.9137 9.84778 15.9137H7.1875C6.91895 15.9137 6.6709 15.7701 6.53714 15.5373C6.40339 15.3044 6.40435 15.0178 6.53967 14.7858L11.2529 6.70608C11.3792 6.48961 11.6052 6.35052 11.8554 6.33536ZM11.9825 8.43237L8.49329 14.4137H9.84778C9.99056 14.4137 10.2156 14.292 10.3282 14.1038L10.335 14.0925L10.3351 14.0925L12.8078 10.1215C12.8119 10.1149 12.8161 10.1084 12.8204 10.1019C12.9053 9.97462 12.9262 9.71852 12.7563 9.45209L11.9825 8.43237Z" fill="#000000" />
<path fill-rule="evenodd" clip-rule="evenodd" d="M15.2165 10.959C15.4812 10.959 15.7262 11.0985 15.8614 11.326L17.9587 14.858C18.0964 15.0898 18.099 15.3776 17.9656 15.6119C17.8323 15.8462 17.5834 15.9909 17.3138 15.9909H13.1191C12.8495 15.9909 12.6007 15.8462 12.4673 15.6119C12.334 15.3776 12.3366 15.0898 12.4743 14.858L14.5716 11.326C14.7068 11.0985 14.9518 10.959 15.2165 10.959ZM14.4368 14.4909H15.9962L15.2165 13.1779L14.4368 14.4909Z" fill="#000000" />
</svg>