<svg width="24px"  height="24px"  viewBox="0 0 25 24" fill="none" xmlns="http://www.w3.org/2000/svg">
<path fill-rule="evenodd" clip-rule="evenodd" d="M3.9902 3.89737C4.97468 2.84117 6.37669 2.25 8.03216 2.25H16.4669C18.1262 2.25 19.5288 2.84084 20.5129 3.89765C21.4913 4.94841 22 6.39889 22 8.02638V15.9736C22 17.6011 21.4913 19.0516 20.5127 20.1024C19.5285 21.1592 18.1256 21.75 16.4659 21.75H8.03216C6.3728 21.75 4.97038 21.1591 3.98657 20.1023C3.00842 19.0515 2.5 17.601 2.5 15.9736V8.02638C2.5 6.39806 3.01117 4.94771 3.9902 3.89737ZM5.08745 4.92012C4.41024 5.64666 4 6.70951 4 8.02638V15.9736C4 17.2914 4.40861 18.3541 5.08451 19.0802C5.75475 19.8003 6.74341 20.25 8.03216 20.25H16.4659C17.7552 20.25 18.7444 19.8002 19.415 19.0801C20.0912 18.354 20.5 17.2913 20.5 15.9736V8.02638C20.5 6.70868 20.0912 5.64597 19.4151 4.91984C18.7446 4.19975 17.7556 3.75 16.4669 3.75H8.03216C6.74828 3.75 5.75921 4.19943 5.08745 4.92012Z" fill="#000000" />
<path fill-rule="evenodd" clip-rule="evenodd" d="M11.8377 6.50138C12.0878 6.48622 12.329 6.597 12.4805 6.79663L14.0266 8.83404C14.0358 8.84621 14.0447 8.85867 14.0532 8.87138C14.4844 9.51822 14.6585 10.4796 14.1392 11.2698L11.545 15.436C11.1953 16.0153 10.4986 16.5048 9.72209 16.5048H6.92188C6.65333 16.5048 6.40527 16.3612 6.27152 16.1283C6.13776 15.8954 6.13873 15.6088 6.27404 15.3769L11.2352 6.8721C11.3615 6.65563 11.5876 6.51654 11.8377 6.50138ZM11.9648 8.59839L8.22766 15.0048H9.72209C9.8885 15.0048 10.1372 14.8673 10.2617 14.6593L10.2685 14.648L10.2686 14.6481L12.8713 10.4682C12.8754 10.4616 12.8796 10.455 12.8839 10.4486C12.9843 10.2979 13.0017 10.0104 12.816 9.72009L11.9648 8.59839Z" fill="#000000" />
<path fill-rule="evenodd" clip-rule="evenodd" d="M15.3717 11.3691C15.6364 11.3691 15.8815 11.5086 16.0166 11.7362L18.2243 15.4539C18.3619 15.6857 18.3646 15.9736 18.2312 16.2079C18.0979 16.4422 17.849 16.5869 17.5794 16.5869H13.1641C12.8945 16.5869 12.6456 16.4422 12.5123 16.2079C12.3789 15.9736 12.3815 15.6857 12.5192 15.4539L14.7269 11.7362C14.862 11.5086 15.1071 11.3691 15.3717 11.3691ZM14.4817 15.0869H16.2618L15.3717 13.588L14.4817 15.0869Z" fill="#000000" />
</svg>