<svg width="24px"  height="24px"  viewBox="0 0 25 24" fill="none" xmlns="http://www.w3.org/2000/svg">
<path fill-rule="evenodd" clip-rule="evenodd" d="M12.25 3.75C7.69329 3.75 4 7.44329 4 12C4 16.5567 7.69329 20.25 12.25 20.25C16.8067 20.25 20.5 16.5567 20.5 12C20.5 7.44329 16.8067 3.75 12.25 3.75ZM2.5 12C2.5 6.61487 6.86487 2.25 12.25 2.25C17.6351 2.25 22 6.61487 22 12C22 17.3851 17.6351 21.75 12.25 21.75C6.86487 21.75 2.5 17.3851 2.5 12Z" fill="#000000" />
<path fill-rule="evenodd" clip-rule="evenodd" d="M12.2496 7.6543C12.5143 7.65428 12.7594 7.79378 12.8945 8.02137L16.4048 13.933C16.5425 14.1648 16.5451 14.4526 16.4118 14.6869C16.2784 14.9212 16.0295 15.0659 15.76 15.0659H8.74023C8.47066 15.0659 8.22182 14.9212 8.08845 14.6869C7.95508 14.4527 7.9577 14.1648 8.09531 13.933L11.6047 8.02144C11.7398 7.79384 11.9849 7.65431 12.2496 7.6543ZM12.2497 9.87338L10.0577 13.5659H14.4423L12.2497 9.87338Z" fill="#000000" />
</svg>