<svg width="24px"  height="24px"  viewBox="0 0 24 24" fill="none" xmlns="http://www.w3.org/2000/svg">
<path fill-rule="evenodd" clip-rule="evenodd" d="M16.6031 12.582C17.0174 12.582 17.3531 12.9178 17.3531 13.332V14.6613C17.3531 14.9283 17.2112 15.1752 16.9804 15.3095L15.8246 15.9821C15.4666 16.1904 15.0075 16.0691 14.7992 15.7111C14.5908 15.3531 14.7122 14.894 15.0702 14.6856L15.8531 14.23V13.332C15.8531 12.9178 16.1889 12.582 16.6031 12.582Z" fill="#000000" />
<path fill-rule="evenodd" clip-rule="evenodd" d="M9.40139 19.5001C9.60849 19.1414 10.0672 19.0185 10.4259 19.2256L11.9995 20.1341L13.573 19.2256C13.9317 19.0185 14.3904 19.1414 14.5975 19.5001C14.8046 19.8588 14.6817 20.3175 14.323 20.5246L12.3745 21.6496C12.1424 21.7836 11.8565 21.7836 11.6245 21.6496L9.67591 20.5246C9.31719 20.3175 9.19428 19.8588 9.40139 19.5001Z" fill="#000000" />
<path fill-rule="evenodd" clip-rule="evenodd" d="M4.20508 12.375C4.61929 12.375 4.95508 12.7108 4.95508 13.125V16.067L7.50291 17.538C7.86163 17.7451 7.98454 18.2038 7.77743 18.5625C7.57033 18.9212 7.11163 19.0441 6.75291 18.837L3.83008 17.1495C3.59803 17.0155 3.45508 16.7679 3.45508 16.5V13.125C3.45508 12.7108 3.79086 12.375 4.20508 12.375Z" fill="#000000" />
<path fill-rule="evenodd" clip-rule="evenodd" d="M19.7941 12.375C20.2083 12.375 20.5441 12.7108 20.5441 13.125V16.5C20.5441 16.7679 20.4011 17.0155 20.1691 17.1495L17.2462 18.837C16.8875 19.0441 16.4288 18.9212 16.2217 18.5625C16.0146 18.2038 16.1375 17.7451 16.4962 17.538L19.0441 16.067V13.125C19.0441 12.7108 19.3798 12.375 19.7941 12.375Z" fill="#000000" />
<path fill-rule="evenodd" clip-rule="evenodd" d="M11.6241 2.35048C11.8562 2.21651 12.1421 2.21651 12.3741 2.35048L15.297 4.03798C15.6557 4.24509 15.7786 4.70378 15.5715 5.0625C15.3644 5.42122 14.9057 5.54413 14.547 5.33702L11.9991 3.86603L9.4513 5.33702C9.09258 5.54413 8.63388 5.42122 8.42678 5.0625C8.21967 4.70378 8.34258 4.24509 8.7013 4.03798L11.6241 2.35048Z" fill="#000000" />
<path fill-rule="evenodd" clip-rule="evenodd" d="M6.80315 6.00013C7.01026 6.35884 6.88735 6.81754 6.52864 7.02464L4.95508 7.93314V9.75012C4.95508 10.1643 4.61929 10.5001 4.20508 10.5001C3.79086 10.5001 3.45508 10.1643 3.45508 9.75012V7.50013C3.45508 7.23218 3.59803 6.98458 3.83008 6.85061L5.77864 5.72561C6.13735 5.5185 6.59605 5.64141 6.80315 6.00013Z" fill="#000000" />
<path fill-rule="evenodd" clip-rule="evenodd" d="M17.1963 6.00013C17.4034 5.64141 17.8621 5.5185 18.2208 5.72561L20.1694 6.85061C20.4014 6.98458 20.5444 7.23218 20.5444 7.50013V9.75012C20.5444 10.1643 20.2086 10.5001 19.7944 10.5001C19.3802 10.5001 19.0444 10.1643 19.0444 9.75012V7.93314L17.4708 7.02464C17.1121 6.81754 16.9892 6.35884 17.1963 6.00013Z" fill="#000000" />
<path fill-rule="evenodd" clip-rule="evenodd" d="M17.2529 8.96692C17.0458 8.6082 16.5871 8.4853 16.2284 8.6924L11.9988 11.1344L7.76921 8.6924C7.41049 8.4853 6.9518 8.6082 6.74469 8.96692C6.53758 9.32564 6.66049 9.78433 7.01921 9.99144L11.6238 12.6499C11.8559 12.7839 12.1417 12.7839 12.3738 12.6499L16.9784 9.99144C17.3371 9.78433 17.46 9.32564 17.2529 8.96692Z" fill="#000000" />
<path fill-rule="evenodd" clip-rule="evenodd" d="M11.998 11.25C11.5838 11.25 11.248 11.5858 11.248 12L11.248 17.3169C11.248 17.7311 11.5838 18.0669 11.998 18.0669C12.4123 18.0669 12.748 17.7311 12.748 17.3169L12.748 12C12.748 11.5858 12.4123 11.25 11.998 11.25Z" fill="#000000" />
<path fill-rule="evenodd" clip-rule="evenodd" d="M12.378 6.08486C12.1468 5.95134 11.862 5.95085 11.6303 6.08357L10.4699 6.74818C10.1105 6.95406 9.98599 7.41232 10.1919 7.77175C10.3977 8.13118 10.856 8.25567 11.2154 8.0498L12.0015 7.59954L12.7792 8.04851C13.1379 8.25562 13.5966 8.13271 13.8037 7.77399C14.0108 7.41527 13.8879 6.95658 13.5292 6.74947L12.378 6.08486Z" fill="#000000" />
<path fill-rule="evenodd" clip-rule="evenodd" d="M7.39491 12.582C6.98069 12.582 6.64491 12.9178 6.64491 13.332V14.6613C6.64491 14.9283 6.78688 15.1752 7.01768 15.3095L8.17343 15.9821C8.53143 16.1904 8.99054 16.0691 9.19888 15.7111C9.40722 15.3531 9.2859 14.894 8.92789 14.6856L8.14491 14.23V13.332C8.14491 12.9178 7.80912 12.582 7.39491 12.582Z" fill="#000000" />
</svg>