<svg width="24px"  height="24px"  viewBox="0 0 25 24" fill="none" xmlns="http://www.w3.org/2000/svg">
<path fill-rule="evenodd" clip-rule="evenodd" d="M4.21967 9.96967C4.51256 9.67678 4.98744 9.67678 5.28033 9.96967L6.78033 11.4697C7.07322 11.7626 7.07322 12.2374 6.78033 12.5303L5.28033 14.0303C4.98744 14.3232 4.51256 14.3232 4.21967 14.0303L2.71967 12.5303C2.42678 12.2374 2.42678 11.7626 2.71967 11.4697L4.21967 9.96967ZM4.31066 12L4.75 12.4393L5.18934 12L4.75 11.5607L4.31066 12Z" fill="#000000" />
<path fill-rule="evenodd" clip-rule="evenodd" d="M19.2197 9.96967C19.5126 9.67678 19.9874 9.67678 20.2803 9.96967L21.7803 11.4697C22.0732 11.7626 22.0732 12.2374 21.7803 12.5303L20.2803 14.0303C19.9874 14.3232 19.5126 14.3232 19.2197 14.0303L17.7197 12.5303C17.4268 12.2374 17.4268 11.7626 17.7197 11.4697L19.2197 9.96967ZM19.3107 12L19.75 12.4393L20.1893 12L19.75 11.5607L19.3107 12Z" fill="#000000" />
<path fill-rule="evenodd" clip-rule="evenodd" d="M12.2501 9.25C12.4491 9.25001 12.6398 9.32903 12.7805 9.46969L14.7803 11.4697C15.0732 11.7626 15.0732 12.2374 14.7803 12.5303L12.7805 14.5303C12.6398 14.671 12.4491 14.75 12.2501 14.75C12.0512 14.75 11.8605 14.671 11.7198 14.5303L9.71969 12.5303C9.57902 12.3897 9.5 12.1989 9.5 12C9.5 11.8011 9.57902 11.6103 9.71969 11.4697L11.7198 9.46965C11.8605 9.32901 12.0512 9.24999 12.2501 9.25ZM11.3107 12L12.2501 12.9393L13.1894 12L12.2501 11.0607L11.3107 12Z" fill="#000000" />
<path fill-rule="evenodd" clip-rule="evenodd" d="M7.71967 13.4697C8.01256 13.1768 8.48744 13.1768 8.78033 13.4697L12.25 16.9393L15.7197 13.4697C16.0126 13.1768 16.4874 13.1768 16.7803 13.4697L18.2803 14.9697C18.5732 15.2626 18.5732 15.7374 18.2803 16.0303L12.7803 21.5303C12.4874 21.8232 12.0126 21.8232 11.7197 21.5303L6.21967 16.0303C5.92678 15.7374 5.92678 15.2626 6.21967 14.9697L7.71967 13.4697ZM7.81066 15.5L12.25 19.9393L16.6893 15.5L16.25 15.0607L12.7803 18.5303C12.4874 18.8232 12.0126 18.8232 11.7197 18.5303L8.25 15.0607L7.81066 15.5Z" fill="#000000" />
<path fill-rule="evenodd" clip-rule="evenodd" d="M11.7197 2.46967C12.0126 2.17678 12.4874 2.17678 12.7803 2.46967L18.2803 7.96967C18.5732 8.26256 18.5732 8.73744 18.2803 9.03033L16.7803 10.5303C16.4874 10.8232 16.0126 10.8232 15.7197 10.5303L12.25 7.06066L8.78033 10.5303C8.48744 10.8232 8.01256 10.8232 7.71967 10.5303L6.21967 9.03033C5.92678 8.73744 5.92678 8.26256 6.21967 7.96967L11.7197 2.46967ZM7.81066 8.5L8.25 8.93934L11.7197 5.46967C12.0126 5.17678 12.4874 5.17678 12.7803 5.46967L16.25 8.93934L16.6893 8.5L12.25 4.06066L7.81066 8.5Z" fill="#000000" />
</svg>