<svg width="24px"  height="24px"  viewBox="0 0 25 24" fill="none" xmlns="http://www.w3.org/2000/svg">
<path d="M16.466 21.75H8.03201C4.72301 21.75 2.5 19.429 2.5 15.974V8.027C2.5 4.572 4.72301 2.25 8.03201 2.25H16.467C19.776 2.25 22 4.572 22 8.027V15.974C22 19.429 19.776 21.75 16.466 21.75ZM8.03201 3.75C5.58301 3.75 4 5.429 4 8.027V15.974C4 18.574 5.58301 20.25 8.03201 20.25H16.466C18.917 20.25 20.5 18.572 20.5 15.974V8.027C20.5 5.427 18.917 3.75 16.467 3.75H8.03201Z" fill="#000000" />
<path d="M13.1261 16.6891H10.2891C10.0902 16.6891 9.89941 16.6101 9.75876 16.4694C9.61811 16.3288 9.53906 16.138 9.53906 15.9391V12.0001C9.53906 11.8012 9.61811 11.6104 9.75876 11.4698C9.89941 11.3291 10.0902 11.2501 10.2891 11.2501H13.0411C13.7269 11.2438 14.3908 11.4909 14.9057 11.9439C15.4205 12.397 15.7501 13.0241 15.8311 13.7051C15.8684 14.0827 15.8262 14.4639 15.7072 14.8242C15.5882 15.1844 15.3951 15.5158 15.1402 15.7969C14.8854 16.078 14.5745 16.3026 14.2276 16.4563C13.8807 16.61 13.5055 16.6893 13.1261 16.6891ZM11.0391 15.1891H13.1261C13.2965 15.1892 13.4651 15.1534 13.6208 15.0843C13.7766 15.0151 13.9161 14.914 14.0303 14.7875C14.1446 14.661 14.231 14.5119 14.284 14.35C14.337 14.188 14.3554 14.0167 14.3381 13.8471C14.2953 13.5357 14.1388 13.2511 13.8989 13.048C13.6589 12.8449 13.3523 12.7378 13.0381 12.7471H11.0381L11.0391 15.1891Z" fill="#000000" />
<path d="M13.1261 12.7506H10.2891C10.0902 12.7506 9.89941 12.6716 9.75876 12.531C9.61811 12.3903 9.53906 12.1995 9.53906 12.0006V8.06262C9.53906 7.86371 9.61811 7.67295 9.75876 7.53229C9.89941 7.39164 10.0902 7.31263 10.2891 7.31263H13.0411C13.7269 7.30612 14.391 7.55311 14.9059 8.00619C15.4208 8.45927 15.7503 9.08654 15.8311 9.76762C15.8682 10.1451 15.8259 10.5262 15.7068 10.8864C15.5878 11.2465 15.3946 11.5778 15.1398 11.8588C14.885 12.1398 14.5742 12.3643 14.2274 12.5179C13.8806 12.6715 13.5054 12.7508 13.1261 12.7506ZM11.0391 11.2506H13.1261C13.2964 11.2507 13.4649 11.215 13.6206 11.1458C13.7763 11.0767 13.9157 10.9757 14.0299 10.8493C14.1442 10.7229 14.2306 10.574 14.2837 10.4122C14.3367 10.2503 14.3553 10.0791 14.3381 9.90962C14.2953 9.59819 14.1388 9.31357 13.8989 9.11051C13.6589 8.90745 13.3523 8.80028 13.0381 8.80963H11.0381L11.0391 11.2506Z" fill="#000000" />
<path d="M12.3398 17.8524C12.1409 17.8524 11.9502 17.7734 11.8095 17.6327C11.6689 17.4921 11.5898 17.3013 11.5898 17.1024V15.9414C11.5898 15.7425 11.6689 15.5517 11.8095 15.4111C11.9502 15.2704 12.1409 15.1914 12.3398 15.1914C12.5388 15.1914 12.7295 15.2704 12.8702 15.4111C13.0108 15.5517 13.0898 15.7425 13.0898 15.9414V17.1024C13.0898 17.3013 13.0108 17.4921 12.8702 17.6327C12.7295 17.7734 12.5388 17.8524 12.3398 17.8524Z" fill="#000000" />
<path d="M12.3398 8.80944C12.1409 8.80944 11.9502 8.73042 11.8095 8.58977C11.6689 8.44912 11.5898 8.25835 11.5898 8.05944V6.89844C11.5898 6.69953 11.6689 6.50876 11.8095 6.36811C11.9502 6.22746 12.1409 6.14844 12.3398 6.14844C12.5388 6.14844 12.7295 6.22746 12.8702 6.36811C13.0108 6.50876 13.0898 6.69953 13.0898 6.89844V8.05944C13.0898 8.25835 13.0108 8.44912 12.8702 8.58977C12.7295 8.73042 12.5388 8.80944 12.3398 8.80944Z" fill="#000000" />
</svg>