<svg width="24px"  height="24px"  viewBox="0 0 25 24" fill="none" xmlns="http://www.w3.org/2000/svg">
<path fill-rule="evenodd" clip-rule="evenodd" d="M3.23828 17.1481C3.23828 14.6352 5.27579 12.5977 7.7887 12.5977C10.3008 12.5977 12.3381 14.6353 12.3381 17.1481C12.3381 19.6611 10.3005 21.6975 7.7887 21.6975C5.27604 21.6975 3.23828 19.6612 3.23828 17.1481ZM7.7887 14.0977C6.10422 14.0977 4.73828 15.4636 4.73828 17.1481C4.73828 18.8323 6.10397 20.1975 7.7887 20.1975C9.47233 20.1975 10.8381 18.8324 10.8381 17.1481C10.8381 15.4635 9.47208 14.0977 7.7887 14.0977Z" fill="#000000" />
<path fill-rule="evenodd" clip-rule="evenodd" d="M17.5412 6.13478C17.9126 6.13575 18.2829 6.13673 18.651 6.13673C20.0507 6.13673 21.1825 7.27212 21.1825 8.66921C21.1825 10.0671 20.0489 11.2007 18.651 11.2007H14.5898C14.1756 11.2007 13.8398 10.8649 13.8398 10.4507C13.8398 10.0365 14.1756 9.70071 14.5898 9.70071H18.651C19.2205 9.70071 19.6825 9.23866 19.6825 8.66921C19.6825 8.09895 19.2206 7.63673 18.651 7.63673C18.2743 7.63673 17.8998 7.63574 17.5264 7.63476C16.784 7.6328 16.0461 7.63085 15.3051 7.6367C14.8909 7.63997 14.5524 7.30685 14.5492 6.89265C14.5459 6.47844 14.879 6.14002 15.2932 6.13675C16.0418 6.13084 16.7938 6.13282 17.5412 6.13478Z" fill="#000000" />
<path fill-rule="evenodd" clip-rule="evenodd" d="M13.8418 3.99023C13.8418 3.57602 14.1776 3.24023 14.5918 3.24023H18.4593C19.6746 3.24023 20.6581 4.22532 20.6581 5.43899C20.6581 6.64348 19.6909 7.62241 18.488 7.63864L18.4778 7.63878V7.63871H15.2982C14.884 7.63871 14.5482 7.30292 14.5482 6.88871C14.5482 6.4745 14.884 6.13871 15.2982 6.13871H18.4719C18.853 6.13135 19.1581 5.82099 19.1581 5.43899C19.1581 5.05309 18.8456 4.74023 18.4593 4.74023H14.5918C14.1776 4.74023 13.8418 4.40445 13.8418 3.99023Z" fill="#000000" />
<path fill-rule="evenodd" clip-rule="evenodd" d="M16 9.70117C16.4142 9.70117 16.75 10.037 16.75 10.4512V11.3852C16.75 11.7994 16.4142 12.1352 16 12.1352C15.5858 12.1352 15.25 11.7994 15.25 11.3852V10.4512C15.25 10.037 15.5858 9.70117 16 9.70117Z" fill="#000000" />
<path fill-rule="evenodd" clip-rule="evenodd" d="M18.4805 9.70117C18.8947 9.70117 19.2305 10.037 19.2305 10.4512V11.3852C19.2305 11.7994 18.8947 12.1352 18.4805 12.1352C18.0663 12.1352 17.7305 11.7994 17.7305 11.3852V10.4512C17.7305 10.037 18.0663 9.70117 18.4805 9.70117Z" fill="#000000" />
<path fill-rule="evenodd" clip-rule="evenodd" d="M16 2.30273C16.4142 2.30273 16.75 2.63852 16.75 3.05273V3.98873C16.75 4.40294 16.4142 4.73873 16 4.73873C15.5858 4.73873 15.25 4.40294 15.25 3.98873V3.05273C15.25 2.63852 15.5858 2.30273 16 2.30273Z" fill="#000000" />
<path fill-rule="evenodd" clip-rule="evenodd" d="M18.4805 2.30273C18.8947 2.30273 19.2305 2.63852 19.2305 3.05273V3.98873C19.2305 4.40294 18.8947 4.73873 18.4805 4.73873C18.0663 4.73873 17.7305 4.40294 17.7305 3.98873V3.05273C17.7305 2.63852 18.0663 2.30273 18.4805 2.30273Z" fill="#000000" />
<path fill-rule="evenodd" clip-rule="evenodd" d="M15.1367 3.23828C15.5509 3.23828 15.8867 3.57407 15.8867 3.98828V10.4498C15.8867 10.864 15.5509 11.1998 15.1367 11.1998C14.7225 11.1998 14.3867 10.864 14.3867 10.4498V3.98828C14.3867 3.57407 14.7225 3.23828 15.1367 3.23828Z" fill="#000000" />
<path fill-rule="evenodd" clip-rule="evenodd" d="M7.22649 4.56898C5.36814 5.06836 4 6.76499 4 8.78093C4 9.19514 3.66421 9.53093 3.25 9.53093C2.83579 9.53093 2.5 9.19514 2.5 8.78093C2.5 5.54413 5.12421 2.91992 8.36101 2.91992C8.60663 2.91992 8.83668 3.04019 8.97686 3.24188C9.11705 3.44357 9.14959 3.70112 9.06397 3.93134L8.45684 5.56398C8.31247 5.95222 7.8807 6.14991 7.49246 6.00553C7.10422 5.86116 6.90653 5.42939 7.05091 5.04115L7.22649 4.56898Z" fill="#000000" />
<path fill-rule="evenodd" clip-rule="evenodd" d="M21.2497 15.0859C21.6639 15.0859 21.9997 15.4217 21.9997 15.8359C21.9997 19.0727 19.3755 21.6969 16.1387 21.6969C15.8931 21.6969 15.663 21.5767 15.5228 21.375C15.3826 21.1733 15.3501 20.9157 15.4357 20.6855L16.0428 19.0529C16.1872 18.6647 16.619 18.467 17.0072 18.6113C17.3955 18.7557 17.5932 19.1875 17.4488 19.5757L17.2732 20.0479C19.1315 19.5485 20.4997 17.8519 20.4997 15.8359C20.4997 15.4217 20.8355 15.0859 21.2497 15.0859Z" fill="#000000" />
</svg>