<svg width="24px"  height="24px"  viewBox="0 0 25 24" fill="none" xmlns="http://www.w3.org/2000/svg">
<path fill-rule="evenodd" clip-rule="evenodd" d="M3.24015 13.1945C3.74257 12.6556 4.44858 12.3672 5.24838 12.3672H10.326C11.1273 12.3672 11.8337 12.6552 12.3361 13.1949C12.8328 13.7285 13.0744 14.4475 13.0744 15.2177V18.5393C13.0744 19.3095 12.8328 20.0285 12.3361 20.5621C11.8337 21.1018 11.1273 21.3898 10.326 21.3898H5.24838C4.44716 21.3898 3.7407 21.1018 3.23833 20.5621C2.7416 20.0285 2.5 19.3095 2.5 18.5393V15.2177C2.5 14.4465 2.74317 13.7276 3.24015 13.1945ZM4.33736 14.2173C4.14211 14.4268 4 14.7582 4 15.2177V18.5393C4 18.9998 4.14173 19.3311 4.33626 19.54C4.52515 19.743 4.81788 19.8898 5.24838 19.8898H10.326C10.7565 19.8898 11.0493 19.743 11.2382 19.54C11.4327 19.3311 11.5744 18.9998 11.5744 18.5393V15.2177C11.5744 14.7572 11.4327 14.4259 11.2382 14.2169C11.0493 14.014 10.7565 13.8672 10.326 13.8672H5.24838C4.82035 13.8672 4.52718 14.0137 4.33736 14.2173Z" fill="#000000" />
<path fill-rule="evenodd" clip-rule="evenodd" d="M2.5 15.7871C2.5 15.3729 2.83579 15.0371 3.25 15.0371H12.3244C12.7386 15.0371 13.0744 15.3729 13.0744 15.7871C13.0744 16.2013 12.7386 16.5371 12.3244 16.5371H3.25C2.83579 16.5371 2.5 16.2013 2.5 15.7871Z" fill="#000000" />
<path fill-rule="evenodd" clip-rule="evenodd" d="M2.71948 7.03627C3.01227 6.74327 3.48714 6.7431 3.78014 7.03589L4.60898 7.86413L5.43704 7.03608C5.72993 6.74318 6.2048 6.74318 6.4977 7.03608C6.79059 7.32897 6.79059 7.80384 6.4977 8.09674L5.1395 9.45493C4.84668 9.74775 4.37195 9.74784 4.07903 9.45512L2.71986 8.09693C2.42686 7.80414 2.42669 7.32926 2.71948 7.03627Z" fill="#000000" />
<path fill-rule="evenodd" clip-rule="evenodd" d="M19.3611 14.5849C19.6539 14.2921 20.1286 14.292 20.4215 14.5847L21.7807 15.9429C22.0737 16.2357 22.0739 16.7106 21.7811 17.0036C21.4883 17.2966 21.0134 17.2967 20.7204 17.004L19.8916 16.1757L19.0635 17.0038C18.7706 17.2967 18.2958 17.2967 18.0029 17.0038C17.71 16.7109 17.71 16.236 18.0029 15.9431L19.3611 14.5849Z" fill="#000000" />
<path fill-rule="evenodd" clip-rule="evenodd" d="M13.3008 4.29688C13.3008 3.88266 13.6366 3.54688 14.0508 3.54688H17.9181C19.1334 3.54688 20.1168 4.53193 20.1168 5.74555C20.1168 6.94918 19.1503 7.93037 17.9458 7.94515L17.9366 7.94526V7.9452H14.7571C14.3429 7.9452 14.0071 7.60942 14.0071 7.1952C14.0071 6.78099 14.3429 6.4452 14.7571 6.4452H17.9312C18.3109 6.43852 18.6168 6.12846 18.6168 5.74555C18.6168 5.3597 18.3043 5.04688 17.9181 5.04688H14.0508C13.6366 5.04688 13.3008 4.71109 13.3008 4.29688Z" fill="#000000" />
<path fill-rule="evenodd" clip-rule="evenodd" d="M17.0586 7.19336C17.0586 6.77915 17.3944 6.44336 17.8086 6.44336H18.1095C19.5088 6.44336 20.6412 7.57747 20.6412 8.97575C20.6412 10.3736 19.5076 11.5072 18.1098 11.5072H14.0488C13.6346 11.5072 13.2988 11.1714 13.2988 10.7572C13.2988 10.343 13.6346 10.0072 14.0488 10.0072H18.1098C18.6792 10.0072 19.1412 9.54516 19.1412 8.97575C19.1412 8.40483 18.6796 7.94336 18.1098 7.94336H17.8089C17.3947 7.94336 17.0586 7.60757 17.0586 7.19336Z" fill="#000000" />
<path fill-rule="evenodd" clip-rule="evenodd" d="M14.5957 3.54688C15.0099 3.54688 15.3457 3.88266 15.3457 4.29688V10.758C15.3457 11.1722 15.0099 11.508 14.5957 11.508C14.1815 11.508 13.8457 11.1722 13.8457 10.758V4.29688C13.8457 3.88266 14.1815 3.54688 14.5957 3.54688Z" fill="#000000" />
<path fill-rule="evenodd" clip-rule="evenodd" d="M15.459 10.0098C15.8732 10.0098 16.209 10.3456 16.209 10.7598V11.6938C16.209 12.108 15.8732 12.4438 15.459 12.4438C15.0448 12.4438 14.709 12.108 14.709 11.6938V10.7598C14.709 10.3456 15.0448 10.0098 15.459 10.0098ZM17.9388 10.0098C18.353 10.0098 18.6888 10.3456 18.6888 10.7598V11.6938C18.6888 12.108 18.353 12.4438 17.9388 12.4438C17.5246 12.4438 17.1888 12.108 17.1888 11.6938V10.7598C17.1888 10.3456 17.5246 10.0098 17.9388 10.0098Z" fill="#000000" />
<path fill-rule="evenodd" clip-rule="evenodd" d="M15.459 2.61133C15.8732 2.61133 16.209 2.94711 16.209 3.36133V4.29728C16.209 4.71149 15.8732 5.04728 15.459 5.04728C15.0448 5.04728 14.709 4.71149 14.709 4.29728V3.36133C14.709 2.94711 15.0448 2.61133 15.459 2.61133ZM17.9388 2.61133C18.353 2.61133 18.6888 2.94711 18.6888 3.36133V4.29728C18.6888 4.71149 18.353 5.04728 17.9388 5.04728C17.5246 5.04728 17.1888 4.71149 17.1888 4.29728V3.36133C17.1888 2.94711 17.5246 2.61133 17.9388 2.61133Z" fill="#000000" />
<path fill-rule="evenodd" clip-rule="evenodd" d="M6.82958 4.15039C6.0177 4.15039 5.35938 4.80817 5.35938 5.62059V8.8468C5.35938 9.26101 5.02359 9.5968 4.60938 9.5968C4.19516 9.5968 3.85938 9.26101 3.85938 8.8468V5.62059C3.85938 3.97931 5.1897 2.65039 6.82958 2.65039H8.00584C8.42005 2.65039 8.75584 2.98618 8.75584 3.40039C8.75584 3.8146 8.42005 4.15039 8.00584 4.15039H6.82958Z" fill="#000000" />
<path fill-rule="evenodd" clip-rule="evenodd" d="M19.8906 14.4434C20.3048 14.4434 20.6406 14.7791 20.6406 15.1934V18.4196C20.6406 20.0608 19.3103 21.3898 17.6704 21.3898H16.4941C16.0799 21.3898 15.7441 21.054 15.7441 20.6398C15.7441 20.2256 16.0799 19.8898 16.4941 19.8898H17.6704C18.4823 19.8898 19.1406 19.232 19.1406 18.4196V15.1934C19.1406 14.7791 19.4764 14.4434 19.8906 14.4434Z" fill="#000000" />
</svg>