<svg width="24px"  height="24px"  viewBox="0 0 25 24" fill="none" xmlns="http://www.w3.org/2000/svg">
<path d="M17.4659 21.7471H7.0349C5.95535 21.7458 4.92038 21.3164 4.15702 20.553C3.39366 19.7896 2.96422 18.7547 2.9629 17.6751V10.5021C2.96191 9.95037 3.08435 9.40539 3.32122 8.90707C3.55809 8.40876 3.90341 7.96973 4.3319 7.62212L9.9049 3.08112C10.5689 2.54462 11.3967 2.25195 12.2504 2.25195C13.1041 2.25195 13.9319 2.54462 14.5959 3.08112L20.1689 7.62212C20.5974 7.96973 20.9427 8.40876 21.1796 8.90707C21.4165 9.40539 21.5389 9.95037 21.5379 10.5021V17.6751C21.5366 18.7547 21.1071 19.7896 20.3438 20.553C19.5804 21.3164 18.5455 21.7458 17.4659 21.7471ZM12.2499 3.74712C11.74 3.74488 11.2451 3.91985 10.8499 4.24212L5.2759 8.78312C5.02029 8.98998 4.8143 9.25152 4.67309 9.54848C4.53187 9.84545 4.45903 10.1703 4.45991 10.4991V17.6721C4.4607 18.354 4.73193 19.0077 5.2141 19.4899C5.69627 19.9721 6.35 20.2433 7.0319 20.2441H17.4629C18.1448 20.2433 18.7985 19.9721 19.2807 19.4899C19.7629 19.0077 20.0341 18.354 20.0349 17.6721V10.5021C20.0358 10.1733 19.9629 9.84845 19.8217 9.55148C19.6805 9.25452 19.4745 8.99298 19.2189 8.78612L13.6499 4.24512C13.2547 3.92285 12.7598 3.74788 12.2499 3.75012V3.74712Z" fill="#000000" />
<path d="M12.5822 16.6538H10.4082C10.2093 16.6538 10.0185 16.5748 9.87787 16.4342C9.73722 16.2935 9.6582 16.1027 9.6582 15.9038V12.8848C9.6582 12.6859 9.73722 12.4951 9.87787 12.3545C10.0185 12.2138 10.2093 12.1348 10.4082 12.1348H12.5172C13.0863 12.1306 13.637 12.3364 14.0639 12.7127C14.4909 13.0891 14.764 13.6097 14.8312 14.1748C14.8617 14.4886 14.8263 14.8052 14.7272 15.1045C14.6281 15.4037 14.4675 15.6789 14.2557 15.9123C14.0439 16.1458 13.7855 16.3324 13.4973 16.4601C13.2091 16.5878 12.8974 16.6538 12.5822 16.6538ZM11.1582 15.1538H12.5822C12.6884 15.1541 12.7934 15.1321 12.8905 15.0891C12.9876 15.0462 13.0745 14.9833 13.1457 14.9045C13.2169 14.8258 13.2708 14.733 13.3038 14.632C13.3367 14.5311 13.3481 14.4244 13.3372 14.3188C13.3088 14.1238 13.2093 13.9462 13.058 13.82C12.9067 13.6938 12.7141 13.6278 12.5172 13.6348H11.1582V15.1538Z" fill="#000000" />
<path d="M12.5822 13.6313H10.4082C10.2093 13.6313 10.0185 13.5523 9.87787 13.4116C9.73722 13.271 9.6582 13.0802 9.6582 12.8813V9.8653C9.6582 9.66639 9.73722 9.47562 9.87787 9.33497C10.0185 9.19432 10.2093 9.1153 10.4082 9.1153H12.5172C13.0863 9.11108 13.637 9.31683 14.0639 9.6932C14.4909 10.0696 14.764 10.5901 14.8312 11.1553C14.8616 11.469 14.826 11.7856 14.7269 12.0848C14.6277 12.3839 14.4671 12.6591 14.2553 12.8925C14.0435 13.1259 13.7853 13.3125 13.4972 13.4402C13.209 13.568 12.8974 13.6341 12.5822 13.6343V13.6313ZM11.1582 12.1313H12.5822C12.6884 12.1313 12.7933 12.109 12.8904 12.0659C12.9874 12.0228 13.0742 11.9598 13.1454 11.881C13.2166 11.8022 13.2704 11.7094 13.3034 11.6085C13.3365 11.5076 13.348 11.4009 13.3372 11.2953C13.3085 11.1005 13.209 10.9231 13.0577 10.7971C12.9064 10.6711 12.714 10.6053 12.5172 10.6123H11.1582V12.1313Z" fill="#000000" />
<path d="M11.9805 17.5482C11.7816 17.5482 11.5908 17.4692 11.4501 17.3285C11.3095 17.1879 11.2305 16.9971 11.2305 16.7982V15.9082C11.2305 15.7093 11.3095 15.5185 11.4501 15.3779C11.5908 15.2372 11.7816 15.1582 11.9805 15.1582C12.1794 15.1582 12.3701 15.2372 12.5108 15.3779C12.6514 15.5185 12.7305 15.7093 12.7305 15.9082V16.7982C12.7305 16.9971 12.6514 17.1879 12.5108 17.3285C12.3701 17.4692 12.1794 17.5482 11.9805 17.5482Z" fill="#000000" />
<path d="M11.9805 10.6146C11.7816 10.6146 11.5908 10.5356 11.4501 10.3949C11.3095 10.2543 11.2305 10.0635 11.2305 9.86461V8.97461C11.2305 8.7757 11.3095 8.58493 11.4501 8.44428C11.5908 8.30363 11.7816 8.22461 11.9805 8.22461C12.1794 8.22461 12.3701 8.30363 12.5108 8.44428C12.6514 8.58493 12.7305 8.7757 12.7305 8.97461V9.86461C12.7305 10.0635 12.6514 10.2543 12.5108 10.3949C12.3701 10.5356 12.1794 10.6146 11.9805 10.6146Z" fill="#000000" />
</svg>