<svg width="24px"  height="24px"  viewBox="0 0 25 24" fill="none" xmlns="http://www.w3.org/2000/svg">
<path d="M12.2612 21.7488C8.52617 21.6908 5.83817 20.2578 4.86117 17.8168C3.85117 15.2958 5.06117 12.9388 6.26117 10.9278C6.79017 10.0468 7.35018 9.17681 7.90918 8.30981L8.20117 7.85481L6.43219 4.64581C6.34925 4.49562 6.32037 4.32151 6.3504 4.1526C6.38043 3.98368 6.46754 3.8302 6.59717 3.71781C6.59717 3.71781 6.75718 3.57781 7.15918 3.26681C7.76762 2.75942 8.50263 2.42715 9.28549 2.3056C10.0683 2.18405 10.8695 2.2778 11.6032 2.57681C12.7518 3.08011 13.9942 3.33371 15.2482 3.32081C15.5572 3.30381 16.7222 3.15381 17.1482 3.09781C17.2806 3.07912 17.4156 3.09669 17.5389 3.14863C17.6622 3.20058 17.769 3.28496 17.8482 3.39281C17.9281 3.50003 17.9778 3.62668 17.9922 3.75963C18.0067 3.89257 17.9852 4.02695 17.9302 4.14881L16.2772 7.81381L16.4952 8.15381C17.0852 9.07281 17.6782 9.99681 18.2372 10.9278C19.4462 12.9388 20.6512 15.2958 19.6372 17.8168C18.6612 20.2578 15.9722 21.6908 12.2612 21.7488ZM8.04916 4.47481L9.72918 7.52181C9.79452 7.64 9.82676 7.77362 9.82254 7.9086C9.81831 8.04358 9.77776 8.17493 9.70517 8.28881L9.16919 9.12281C8.61819 9.97681 8.06916 10.8328 7.54516 11.7008C6.47516 13.4798 5.49418 15.3758 6.24518 17.2598C7.29918 19.8888 10.7992 20.2268 12.2542 20.2488C13.6862 20.2268 17.1862 19.8888 18.2402 17.2598C18.9952 15.3758 18.0132 13.4798 16.9402 11.7008C16.3882 10.7818 15.8032 9.87081 15.2212 8.96381L14.7832 8.27981C14.7158 8.17486 14.6758 8.05476 14.6667 7.93041C14.6577 7.80606 14.6798 7.68142 14.7312 7.56781L16.0012 4.75081C15.7192 4.78381 15.4662 4.80981 15.3252 4.81881C13.8558 4.85111 12.397 4.56311 11.0502 3.97481C10.5581 3.76784 10.0179 3.70292 9.49081 3.78741C8.96373 3.87189 8.47089 4.10241 8.06817 4.45281L8.04916 4.47481Z" fill="#000000" />
<path d="M12.2493 9.00759C11.1241 9.00689 10.0026 8.87874 8.9063 8.62559C8.71242 8.58103 8.54417 8.46129 8.43859 8.29269C8.333 8.1241 8.29872 7.92046 8.34328 7.72659C8.38784 7.53272 8.5076 7.36448 8.6762 7.2589C8.84479 7.15332 9.04842 7.11903 9.2423 7.16359C11.2211 7.62208 13.2785 7.62208 15.2573 7.16359C15.4512 7.11903 15.6548 7.15332 15.8234 7.2589C15.992 7.36448 16.1117 7.53272 16.1563 7.72659C16.2009 7.92046 16.1665 8.1241 16.061 8.29269C15.9554 8.46129 15.7872 8.58103 15.5933 8.62559C14.4966 8.87877 13.3748 9.00692 12.2493 9.00759Z" fill="#000000" />
<path d="M12.5289 17.86H10.7109C10.512 17.86 10.3213 17.781 10.1806 17.6403C10.04 17.4997 9.96094 17.3089 9.96094 17.11V14.586C9.96094 14.3871 10.04 14.1963 10.1806 14.0557C10.3213 13.915 10.512 13.836 10.7109 13.836H12.4739C12.9803 13.8325 13.4702 14.016 13.8498 14.3513C14.2293 14.6865 14.4719 15.15 14.5309 15.653C14.5583 15.9321 14.5269 16.2139 14.4389 16.4803C14.3508 16.7466 14.208 16.9915 14.0197 17.1994C13.8313 17.4072 13.6016 17.5734 13.3452 17.6871C13.0888 17.8009 12.8114 17.8598 12.5309 17.86H12.5289ZM11.4609 16.36H12.5289C12.6003 16.3606 12.6709 16.3459 12.7361 16.3169C12.8013 16.2879 12.8596 16.2453 12.907 16.192C12.9561 16.1385 12.9932 16.0752 13.0158 16.0062C13.0384 15.9372 13.046 15.8641 13.0379 15.792C13.0153 15.6601 12.9457 15.5409 12.8421 15.4564C12.7384 15.3718 12.6076 15.3276 12.4739 15.332H11.4609V16.36Z" fill="#000000" />
<path d="M12.5289 15.3355H10.7109C10.512 15.3355 10.3213 15.2565 10.1806 15.1159C10.04 14.9752 9.96094 14.7845 9.96094 14.5855V12.0625C9.96094 11.8636 10.04 11.6729 10.1806 11.5322C10.3213 11.3916 10.512 11.3125 10.7109 11.3125H12.4739C12.9802 11.3091 13.47 11.4924 13.8495 11.8275C14.229 12.1625 14.4716 12.6258 14.5309 13.1285C14.5583 13.4078 14.5269 13.6896 14.4389 13.956C14.3508 14.2223 14.2081 14.4674 14.0197 14.6753C13.8314 14.8832 13.6016 15.0494 13.3452 15.1633C13.0889 15.2772 12.8115 15.3362 12.5309 15.3365L12.5289 15.3355ZM11.4609 13.8355H12.5289C12.6003 13.8361 12.6709 13.8214 12.7361 13.7925C12.8013 13.7635 12.8596 13.7209 12.907 13.6675C12.9559 13.614 12.9929 13.5506 13.0155 13.4817C13.0381 13.4127 13.0458 13.3397 13.0379 13.2675C13.0151 13.1359 12.9454 13.0169 12.8418 12.9326C12.7382 12.8482 12.6075 12.8042 12.4739 12.8085H11.4609V13.8355Z" fill="#000000" />
<path d="M12.0234 18.6034C11.8245 18.6034 11.6338 18.5244 11.4931 18.3837C11.3525 18.2431 11.2734 18.0523 11.2734 17.8534V17.1094C11.2734 16.9105 11.3525 16.7197 11.4931 16.579C11.6338 16.4384 11.8245 16.3594 12.0234 16.3594C12.2223 16.3594 12.4131 16.4384 12.5538 16.579C12.6944 16.7197 12.7734 16.9105 12.7734 17.1094V17.8534C12.7734 18.0523 12.6944 18.2431 12.5538 18.3837C12.4131 18.5244 12.2223 18.6034 12.0234 18.6034Z" fill="#000000" />
<path d="M12.0234 12.8104C11.8245 12.8104 11.6338 12.7314 11.4931 12.5907C11.3525 12.4501 11.2734 12.2593 11.2734 12.0604V11.3164C11.2734 11.1175 11.3525 10.9267 11.4931 10.7861C11.6338 10.6454 11.8245 10.5664 12.0234 10.5664C12.2223 10.5664 12.4131 10.6454 12.5538 10.7861C12.6944 10.9267 12.7734 11.1175 12.7734 11.3164V12.0604C12.7734 12.2593 12.6944 12.4501 12.5538 12.5907C12.4131 12.7314 12.2223 12.8104 12.0234 12.8104Z" fill="#000000" />
</svg>