<svg width="24px"  height="24px"  viewBox="0 0 25 24" fill="none" xmlns="http://www.w3.org/2000/svg">
<path d="M15.007 21.75H9.492C8.33421 21.7487 7.2242 21.2882 6.40552 20.4695C5.58683 19.6508 5.12632 18.5408 5.125 17.383V6.619C5.12632 5.46084 5.58692 4.35049 6.40576 3.53146C7.22461 2.71243 8.33483 2.25159 9.49298 2.25H15.008C16.166 2.25159 17.2761 2.71229 18.0949 3.53111C18.9137 4.34992 19.3744 5.46002 19.376 6.618V17.382C19.3744 18.5401 18.9135 19.6504 18.0945 20.4692C17.2755 21.2881 16.1651 21.7487 15.007 21.75ZM9.492 3.75C8.7316 3.75132 8.00272 4.05404 7.46512 4.59183C6.92752 5.12961 6.62505 5.85859 6.62399 6.619V17.383C6.62479 18.1431 6.9271 18.8719 7.4646 19.4094C8.00209 19.9469 8.73087 20.2492 9.491 20.25H15.006C15.7665 20.2492 16.4956 19.9468 17.0334 19.4092C17.5713 18.8715 17.8739 18.1425 17.875 17.382V6.618C17.8739 5.85768 17.5714 5.12881 17.0338 4.59119C16.4962 4.05356 15.7673 3.75106 15.007 3.75H9.492Z" fill="#000000" />
<path d="M12.7619 13.902H10.5859C10.387 13.902 10.1963 13.823 10.0556 13.6823C9.91495 13.5417 9.83594 13.3509 9.83594 13.152V10.129C9.83594 9.93006 9.91495 9.73929 10.0556 9.59864C10.1963 9.45799 10.387 9.37898 10.5859 9.37898H12.6979C13.2679 9.37454 13.8195 9.58053 14.247 9.95751C14.6746 10.3345 14.948 10.8559 15.015 11.422C15.0454 11.7361 15.0097 12.053 14.9103 12.3525C14.8109 12.652 14.6499 12.9274 14.4377 13.161C14.2256 13.3946 13.9668 13.5811 13.6782 13.7088C13.3896 13.8364 13.0775 13.9022 12.7619 13.902ZM11.3359 12.402H12.7619C12.8685 12.402 12.9739 12.3796 13.0714 12.3363C13.1688 12.2931 13.256 12.2299 13.3275 12.1509C13.3991 12.0718 13.4532 11.9787 13.4865 11.8774C13.5198 11.7761 13.5316 11.669 13.5209 11.563C13.4924 11.3675 13.3926 11.1894 13.2406 11.0631C13.0887 10.9368 12.8954 10.8712 12.6979 10.879H11.3359V12.402Z" fill="#000000" />
<path d="M12.7619 10.8785H10.5859C10.387 10.8785 10.1963 10.7995 10.0556 10.6589C9.91495 10.5182 9.83594 10.3275 9.83594 10.1285V7.10555C9.83594 6.90663 9.91495 6.71587 10.0556 6.57522C10.1963 6.43457 10.387 6.35555 10.5859 6.35555H12.6979C13.268 6.35089 13.8197 6.55681 14.2473 6.93382C14.6748 7.31084 14.9482 7.83241 15.015 8.39855C15.0454 8.71264 15.0097 9.02962 14.9103 9.32912C14.8109 9.62861 14.6499 9.904 14.4377 10.1376C14.2256 10.3711 13.9668 10.5577 13.6782 10.6853C13.3896 10.8129 13.0775 10.8788 12.7619 10.8785ZM11.3359 9.37855H12.7619C12.8685 9.37852 12.9739 9.35616 13.0714 9.31291C13.1688 9.26965 13.256 9.20647 13.3275 9.12742C13.3991 9.04837 13.4532 8.95522 13.4865 8.85397C13.5198 8.75271 13.5316 8.6456 13.5209 8.53954C13.4924 8.34403 13.3926 8.16597 13.2406 8.03968C13.0887 7.91339 12.8954 7.8478 12.6979 7.85555H11.3359V9.37855Z" fill="#000000" />
<path d="M12.1562 14.7933C11.9573 14.7933 11.7666 14.7143 11.6259 14.5737C11.4853 14.433 11.4062 14.2423 11.4062 14.0433V13.1523C11.4062 12.9534 11.4853 12.7627 11.6259 12.622C11.7666 12.4814 11.9573 12.4023 12.1562 12.4023C12.3552 12.4023 12.5459 12.4814 12.6866 12.622C12.8272 12.7627 12.9062 12.9534 12.9062 13.1523V14.0433C12.9062 14.2423 12.8272 14.433 12.6866 14.5737C12.5459 14.7143 12.3552 14.7933 12.1562 14.7933Z" fill="#000000" />
<path d="M12.1562 7.84903C11.9573 7.84903 11.7666 7.77001 11.6259 7.62936C11.4853 7.4887 11.4062 7.29794 11.4062 7.09903V6.20703C11.4062 6.00812 11.4853 5.81735 11.6259 5.6767C11.7666 5.53604 11.9573 5.45703 12.1562 5.45703C12.3552 5.45703 12.5459 5.53604 12.6866 5.6767C12.8272 5.81735 12.9062 6.00812 12.9062 6.20703V7.09903C12.9062 7.29794 12.8272 7.4887 12.6866 7.62936C12.5459 7.77001 12.3552 7.84903 12.1562 7.84903Z" fill="#000000" />
<path d="M18.6243 18.0508H5.90625C5.70734 18.0508 5.51657 17.9718 5.37592 17.8311C5.23526 17.6905 5.15625 17.4997 5.15625 17.3008C5.15625 17.1019 5.23526 16.9111 5.37592 16.7705C5.51657 16.6298 5.70734 16.5508 5.90625 16.5508H18.6243C18.8232 16.5508 19.0139 16.6298 19.1546 16.7705C19.2953 16.9111 19.3743 17.1019 19.3743 17.3008C19.3743 17.4997 19.2953 17.6905 19.1546 17.8311C19.0139 17.9718 18.8232 18.0508 18.6243 18.0508Z" fill="#000000" />
</svg>