<svg width="24px"  height="24px"  viewBox="0 0 25 24" fill="none" xmlns="http://www.w3.org/2000/svg">
<path d="M7.87075 12.0355C7.67184 12.0355 7.48107 11.9565 7.34042 11.8158C7.19977 11.6752 7.12075 11.4844 7.12075 11.2855C7.12075 11.0866 7.19977 10.8958 7.34042 10.7552C7.48107 10.6145 7.67184 10.5355 7.87075 10.5355H13.9487C14.5802 10.5302 15.1837 10.2743 15.6265 9.82398C16.0693 9.37371 16.3151 8.76598 16.3097 8.1345C16.3044 7.50302 16.0485 6.89951 15.5982 6.45674C15.148 6.01397 14.5402 5.7682 13.9087 5.7735H6.34375C6.14484 5.7735 5.95407 5.69449 5.81342 5.55383C5.67277 5.41318 5.59375 5.22242 5.59375 5.0235C5.59375 4.82459 5.67277 4.63383 5.81342 4.49317C5.95407 4.35252 6.14484 4.2735 6.34375 4.2735H13.9087C14.9381 4.26754 15.9276 4.6707 16.6596 5.39431C17.3917 6.11792 17.8063 7.1027 17.8123 8.132C17.8182 9.16131 17.415 10.1508 16.6914 10.8829C15.9678 11.6149 14.9831 12.0295 13.9537 12.0355H7.87075Z" fill="#000000" />
<path d="M14.3189 19.7352H6.33594C6.13703 19.7352 5.94626 19.6561 5.80561 19.5155C5.66496 19.3748 5.58594 19.1841 5.58594 18.9852C5.58594 18.7862 5.66496 18.5955 5.80561 18.4548C5.94626 18.3142 6.13703 18.2352 6.33594 18.2352H14.3189C15.1411 18.2352 15.9296 17.9085 16.511 17.3272C17.0923 16.7458 17.4189 15.9573 17.4189 15.1352C17.4189 14.313 17.0923 13.5245 16.511 12.9431C15.9296 12.3618 15.1411 12.0352 14.3189 12.0352H13.6519C13.453 12.0352 13.2623 11.9561 13.1216 11.8155C12.981 11.6748 12.9019 11.4841 12.9019 11.2852C12.9019 11.0862 12.981 10.8955 13.1216 10.7548C13.2623 10.6142 13.453 10.5352 13.6519 10.5352H14.3159C15.5359 10.5352 16.706 11.0198 17.5686 11.8825C18.4313 12.7451 18.9159 13.9152 18.9159 15.1352C18.9159 16.3552 18.4313 17.5252 17.5686 18.3878C16.706 19.2505 15.5359 19.7352 14.3159 19.7352H14.3189Z" fill="#000000" />
<path d="M7.51953 19.7335C7.32062 19.7335 7.12985 19.6545 6.9892 19.5139C6.84855 19.3732 6.76953 19.1824 6.76953 18.9835V5.01953C6.76953 4.82062 6.84855 4.62985 6.9892 4.4892C7.12985 4.34855 7.32062 4.26953 7.51953 4.26953C7.71844 4.26953 7.90921 4.34855 8.04986 4.4892C8.19051 4.62985 8.26953 4.82062 8.26953 5.01953V18.9785C8.27019 19.0774 8.25128 19.1755 8.21388 19.2671C8.17649 19.3587 8.12135 19.4419 8.05164 19.5121C7.98193 19.5823 7.89903 19.638 7.8077 19.676C7.71638 19.714 7.61844 19.7335 7.51953 19.7335Z" fill="#000000" />
<path d="M9.38672 5.773C9.18781 5.773 8.99704 5.69398 8.85639 5.55333C8.71574 5.41268 8.63672 5.22191 8.63672 5.023V3C8.63672 2.80109 8.71574 2.61032 8.85639 2.46967C8.99704 2.32902 9.18781 2.25 9.38672 2.25C9.58563 2.25 9.7764 2.32902 9.91705 2.46967C10.0577 2.61032 10.1367 2.80109 10.1367 3V5.023C10.1367 5.22191 10.0577 5.41268 9.91705 5.55333C9.7764 5.69398 9.58563 5.773 9.38672 5.773Z" fill="#000000" />
<path d="M13.9531 5.773C13.7542 5.773 13.5634 5.69398 13.4228 5.55333C13.2821 5.41268 13.2031 5.22191 13.2031 5.023V3C13.2031 2.80109 13.2821 2.61032 13.4228 2.46967C13.5634 2.32902 13.7542 2.25 13.9531 2.25C14.152 2.25 14.3428 2.32902 14.4835 2.46967C14.6241 2.61032 14.7031 2.80109 14.7031 3V5.023C14.7031 5.22191 14.6241 5.41268 14.4835 5.55333C14.3428 5.69398 14.152 5.773 13.9531 5.773Z" fill="#000000" />
<path d="M9.38672 21.7485C9.18781 21.7485 8.99704 21.6694 8.85639 21.5288C8.71574 21.3881 8.63672 21.1974 8.63672 20.9985V18.9805C8.63672 18.7816 8.71574 18.5908 8.85639 18.4501C8.99704 18.3095 9.18781 18.2305 9.38672 18.2305C9.58563 18.2305 9.7764 18.3095 9.91705 18.4501C10.0577 18.5908 10.1367 18.7816 10.1367 18.9805V20.9985C10.1367 21.1974 10.0577 21.3881 9.91705 21.5288C9.7764 21.6694 9.58563 21.7485 9.38672 21.7485Z" fill="#000000" />
<path d="M13.9531 21.7485C13.7542 21.7485 13.5634 21.6694 13.4228 21.5288C13.2821 21.3881 13.2031 21.1974 13.2031 20.9985V18.9805C13.2031 18.7816 13.2821 18.5908 13.4228 18.4501C13.5634 18.3095 13.7542 18.2305 13.9531 18.2305C14.152 18.2305 14.3428 18.3095 14.4835 18.4501C14.6241 18.5908 14.7031 18.7816 14.7031 18.9805V20.9985C14.7031 21.1974 14.6241 21.3881 14.4835 21.5288C14.3428 21.6694 14.152 21.7485 13.9531 21.7485Z" fill="#000000" />
</svg>