<svg width="24px"  height="24px"  viewBox="0 0 25 24" fill="none" xmlns="http://www.w3.org/2000/svg">
<path d="M18.4029 9.971C18.204 9.971 18.0133 9.89198 17.8726 9.75133C17.732 9.61068 17.6529 9.41991 17.6529 9.221C17.6529 7.77 17.0765 6.37843 16.0505 5.35242C15.0245 4.32641 13.6329 3.75 12.1819 3.75C10.7309 3.75 9.33937 4.32641 8.31335 5.35242C7.28734 6.37843 6.71094 7.77 6.71094 9.221C6.71094 9.41991 6.63192 9.61068 6.49127 9.75133C6.35062 9.89198 6.15985 9.971 5.96094 9.971C5.76203 9.971 5.57126 9.89198 5.4306 9.75133C5.28995 9.61068 5.21094 9.41991 5.21094 9.221C5.21094 7.37218 5.94537 5.59907 7.25269 4.29176C8.56 2.98444 10.3331 2.25 12.1819 2.25C14.0308 2.25 15.8038 2.98444 17.1111 4.29176C18.4185 5.59907 19.1529 7.37218 19.1529 9.221C19.1529 9.41991 19.0739 9.61068 18.9332 9.75133C18.7926 9.89198 18.6018 9.971 18.4029 9.971Z" fill="#000000" />
<path d="M12.9614 18.0023H11.7134C11.5145 18.0023 11.3237 17.9233 11.1831 17.7827C11.0424 17.642 10.9634 17.4513 10.9634 17.2523C10.9634 17.0534 11.0424 16.8627 11.1831 16.722C11.3237 16.5814 11.5145 16.5023 11.7134 16.5023H12.9614C13.1632 16.5183 13.3636 16.4562 13.521 16.3289C13.6785 16.2015 13.7811 16.0187 13.8077 15.8179C13.8344 15.6172 13.7831 15.4139 13.6643 15.2499C13.5456 15.0859 13.3684 14.9737 13.1694 14.9363C12.2188 14.6646 11.2351 14.5263 10.2464 14.5253C8.99164 14.6611 7.80682 15.1716 6.84638 15.9903L6.4054 16.2903C6.24004 16.4009 6.03749 16.4413 5.84236 16.4026C5.64722 16.3639 5.47547 16.2492 5.36488 16.0838C5.25428 15.9185 5.21391 15.716 5.25263 15.5208C5.29136 15.3257 5.40606 15.1539 5.57142 15.0433L6.00141 14.7523C7.1937 13.7641 8.65871 13.1624 10.2014 13.0273C11.3253 13.0322 12.4437 13.1856 13.5274 13.4833C14.0829 13.6084 14.5719 13.936 14.8988 14.4023C15.2257 14.8685 15.3671 15.4399 15.2954 16.0048C15.2237 16.5697 14.944 17.0875 14.5109 17.4573C14.0779 17.827 13.5225 18.0221 12.9534 18.0043L12.9614 18.0023Z" fill="#000000" />
<path d="M12.4882 21.5835C11.1583 21.5396 9.83602 21.3654 8.54016 21.0635C7.69951 20.9139 6.84569 20.8512 5.99219 20.8765C5.79328 20.8765 5.60251 20.7975 5.46185 20.6569C5.3212 20.5162 5.24219 20.3255 5.24219 20.1265C5.24219 19.9276 5.3212 19.7369 5.46185 19.5962C5.60251 19.4556 5.79328 19.3765 5.99219 19.3765C6.92057 19.3496 7.84926 19.4167 8.76416 19.5765C11.0702 20.0315 13.0031 20.4135 15.0641 19.6125C16.4094 18.9951 17.6038 18.0918 18.5641 16.9655L18.7372 16.7915C18.8022 16.7265 18.8537 16.6494 18.8889 16.5644C18.9241 16.4795 18.9422 16.3885 18.9422 16.2965C18.9422 16.2046 18.9241 16.1136 18.8889 16.0286C18.8537 15.9437 18.8022 15.8665 18.7372 15.8015C18.6205 15.6819 18.4641 15.609 18.2974 15.5967C18.1307 15.5843 17.9652 15.6334 17.8322 15.7345C17.6122 15.9005 17.3922 16.0815 17.1672 16.2665C16.2233 17.2328 14.9795 17.8501 13.6392 18.0175C13.3852 18.0225 13.1391 18.0175 12.8871 18.0035C12.5313 17.9777 12.1738 17.9844 11.8192 18.0235C11.6222 18.0525 11.4219 18.0019 11.2622 17.8831C11.1025 17.7643 10.9966 17.587 10.9677 17.39C10.9387 17.1931 10.9893 16.9928 11.1081 16.8331C11.2269 16.6734 11.4043 16.5675 11.6012 16.5385C12.0476 16.4862 12.4977 16.4748 12.9462 16.5045C13.1652 16.5135 13.3861 16.5225 13.6031 16.5175C14.6007 16.3333 15.515 15.8397 16.2162 15.1065C16.4572 14.9065 16.6942 14.7145 16.9302 14.5365C17.3761 14.215 17.9262 14.0721 18.4722 14.136C19.0182 14.1998 19.5206 14.4658 19.8803 14.8814C20.2401 15.2971 20.4312 15.8324 20.416 16.3819C20.4008 16.9315 20.1803 17.4554 19.7982 17.8505L19.6282 18.0225C18.5241 19.3024 17.1511 20.3227 15.6072 21.0105C14.613 21.3968 13.5547 21.5912 12.4882 21.5835Z" fill="#000000" />
<path d="M4.83203 21.7501C4.63312 21.7501 4.44235 21.6711 4.3017 21.5304C4.16104 21.3897 4.08203 21.199 4.08203 21.0001C4.08203 20.8012 4.16104 20.6104 4.3017 20.4697C4.44235 20.3291 4.63312 20.2501 4.83203 20.2501C4.94403 20.2501 5.24207 20.2501 5.24207 19.7821V15.6051C5.24207 15.1371 4.94207 15.1371 4.83307 15.1371C4.63416 15.1371 4.44339 15.0581 4.30273 14.9174C4.16208 14.7767 4.08307 14.586 4.08307 14.3871C4.08307 14.1882 4.16208 13.9974 4.30273 13.8567C4.44339 13.7161 4.63416 13.6371 4.83307 13.6371C5.09017 13.6321 5.34554 13.68 5.58331 13.778C5.82109 13.8759 6.03617 14.0216 6.21521 14.2062C6.39425 14.3908 6.53339 14.6102 6.62402 14.8509C6.71465 15.0915 6.75487 15.3482 6.74207 15.6051V19.7821C6.75488 20.039 6.71465 20.2958 6.62396 20.5365C6.53327 20.7772 6.394 20.9967 6.21484 21.1813C6.03569 21.3659 5.82048 21.5116 5.58258 21.6095C5.34468 21.7073 5.08921 21.7552 4.83203 21.7501Z" fill="#000000" />
<path d="M12.5732 11.5502H11.0312C10.8323 11.5502 10.6416 11.4712 10.5009 11.3305C10.3603 11.1899 10.2812 10.9991 10.2812 10.8002V8.66019C10.2812 8.46127 10.3603 8.27051 10.5009 8.12986C10.6416 7.9892 10.8323 7.91019 11.0312 7.91019H12.5312C12.9886 7.90755 13.4308 8.07357 13.7734 8.3765C14.116 8.67943 14.3349 9.098 14.3882 9.55219C14.4132 9.80509 14.385 10.0604 14.3054 10.3018C14.2257 10.5431 14.0965 10.7651 13.9259 10.9535C13.7553 11.1418 13.5472 11.2924 13.3149 11.3956C13.0827 11.4987 12.8314 11.552 12.5773 11.5522L12.5732 11.5502ZM11.7812 10.0502H12.5732C12.6182 10.0502 12.6627 10.0407 12.7037 10.0223C12.7448 10.004 12.7815 9.97719 12.8115 9.9437C12.8415 9.9102 12.8641 9.87076 12.8779 9.82794C12.8916 9.78512 12.8962 9.73989 12.8912 9.69519C12.875 9.61185 12.8292 9.53716 12.7624 9.48481C12.6955 9.43246 12.612 9.40597 12.5272 9.41019H11.7812V10.0502Z" fill="#000000" />
<path d="M12.5732 9.40956H11.0312C10.8323 9.40956 10.6416 9.33054 10.5009 9.18989C10.3603 9.04923 10.2812 8.85847 10.2812 8.65956V6.51956C10.2812 6.32064 10.3603 6.12988 10.5009 5.98923C10.6416 5.84857 10.8323 5.76956 11.0312 5.76956H12.5312C12.9886 5.76717 13.4309 5.93341 13.7734 6.2365C14.116 6.53959 14.3349 6.95828 14.3882 7.41256C14.4135 7.66552 14.3855 7.92098 14.306 8.16245C14.2265 8.40392 14.0973 8.62605 13.9266 8.8145C13.756 9.00294 13.5477 9.15353 13.3153 9.25654C13.0829 9.35955 12.8315 9.4127 12.5773 9.41256L12.5732 9.40956ZM11.7812 7.90956H12.5732C12.6182 7.90985 12.6627 7.90059 12.7039 7.88241C12.745 7.86423 12.7818 7.83753 12.8118 7.80407C12.8419 7.77062 12.8646 7.73117 12.8782 7.68833C12.8919 7.64549 12.8963 7.60024 12.8912 7.55556C12.875 7.47213 12.8293 7.39733 12.7625 7.34481C12.6956 7.2923 12.6121 7.26559 12.5272 7.26956H11.7812V7.90956Z" fill="#000000" />
<path d="M12.1484 12.1818C11.9495 12.1818 11.7588 12.1028 11.6181 11.9621C11.4775 11.8215 11.3984 11.6307 11.3984 11.4318V10.8008C11.3984 10.6019 11.4775 10.4111 11.6181 10.2705C11.7588 10.1298 11.9495 10.0508 12.1484 10.0508C12.3473 10.0508 12.5381 10.1298 12.6788 10.2705C12.8194 10.4111 12.8984 10.6019 12.8984 10.8008V11.4338C12.8979 11.6323 12.8187 11.8226 12.6781 11.9628C12.5375 12.103 12.347 12.1818 12.1484 12.1818Z" fill="#000000" />
<path d="M12.1484 7.26772C11.9495 7.26772 11.7588 7.1887 11.6181 7.04805C11.4775 6.9074 11.3984 6.71663 11.3984 6.51772V5.88672C11.3984 5.68781 11.4775 5.49704 11.6181 5.35639C11.7588 5.21574 11.9495 5.13672 12.1484 5.13672C12.3473 5.13672 12.5381 5.21574 12.6788 5.35639C12.8194 5.49704 12.8984 5.68781 12.8984 5.88672V6.51772C12.8984 6.71663 12.8194 6.9074 12.6788 7.04805C12.5381 7.1887 12.3473 7.26772 12.1484 7.26772Z" fill="#000000" />
</svg>