<svg width="24px"  height="24px"  viewBox="0 0 25 24" fill="none" xmlns="http://www.w3.org/2000/svg">
<path d="M16.466 21.75H8.032C4.723 21.75 2.5 19.429 2.5 15.974V8.027C2.5 4.572 4.723 2.25 8.032 2.25H16.467C19.776 2.25 22 4.572 22 8.027V15.974C22 19.429 19.776 21.75 16.466 21.75ZM8.032 3.75C5.583 3.75 4 5.429 4 8.027V15.974C4 18.574 5.583 20.25 8.032 20.25H16.466C18.917 20.25 20.5 18.572 20.5 15.974V8.027C20.5 5.427 18.917 3.75 16.467 3.75H8.032Z" fill="#000000" />
<path d="M13.5039 16.396H9.50391C9.30499 16.396 9.11422 16.317 8.97357 16.1763C8.83292 16.0357 8.75391 15.8449 8.75391 15.646C8.75391 15.4471 8.83292 15.2563 8.97357 15.1157C9.11422 14.975 9.30499 14.896 9.50391 14.896H13.5039C13.838 14.8957 14.1583 14.7629 14.3946 14.5267C14.6308 14.2904 14.7637 13.9701 14.7639 13.636C14.764 13.4705 14.7316 13.3067 14.6684 13.1537C14.6052 13.0008 14.5125 12.8618 14.3956 12.7448C14.2787 12.6277 14.1398 12.5347 13.987 12.4713C13.8342 12.4079 13.6704 12.3751 13.5049 12.375H10.1359C9.937 12.375 9.74623 12.296 9.60558 12.1553C9.46492 12.0147 9.38591 11.8239 9.38591 11.625C9.38591 11.4261 9.46492 11.2353 9.60558 11.0947C9.74623 10.954 9.937 10.875 10.1359 10.875H13.5049C14.237 10.875 14.9392 11.1658 15.4569 11.6835C15.9746 12.2012 16.2654 12.9034 16.2654 13.6355C16.2654 14.3676 15.9746 15.0698 15.4569 15.5875C14.9392 16.1052 14.237 16.396 13.5049 16.396H13.5039Z" fill="#000000" />
<path d="M13.3069 12.3755C13.108 12.3768 12.9167 12.2991 12.7751 12.1594C12.6335 12.0197 12.5532 11.8294 12.5519 11.6305C12.5506 11.4316 12.6283 11.2403 12.7681 11.0987C12.9078 10.9571 13.098 10.8768 13.2969 10.8755C13.5316 10.8741 13.7561 10.7794 13.9211 10.6124C14.086 10.4454 14.1779 10.2197 14.1764 9.98502C14.1749 9.7503 14.0803 9.52578 13.9133 9.36084C13.7463 9.1959 13.5206 9.10406 13.2859 9.10552H9.50391C9.30499 9.10552 9.11424 9.0265 8.97359 8.88585C8.83293 8.7452 8.75391 8.55443 8.75391 8.35552C8.75391 8.15661 8.83293 7.96584 8.97359 7.82519C9.11424 7.68454 9.30499 7.60552 9.50391 7.60552H13.2859C13.5991 7.60348 13.9096 7.66316 14.1998 7.78113C14.4899 7.89911 14.754 8.07308 14.9769 8.29311C15.1998 8.51314 15.3772 8.77492 15.4989 9.0635C15.6207 9.35208 15.6844 9.66182 15.6864 9.97502C15.6885 10.2882 15.6288 10.5988 15.5108 10.8889C15.3928 11.179 15.2189 11.4431 14.9988 11.666C14.7788 11.8889 14.517 12.0663 14.2284 12.188C13.9398 12.3098 13.6301 12.3735 13.3169 12.3755H13.3069Z" fill="#000000" />
<path d="M10.1211 16.3945C9.92218 16.3945 9.73141 16.3155 9.59076 16.1748C9.45011 16.0341 9.37109 15.8434 9.37109 15.6445V8.35547C9.37109 8.15656 9.45011 7.96579 9.59076 7.82514C9.73141 7.68449 9.92218 7.60547 10.1211 7.60547C10.32 7.60547 10.5108 7.68449 10.6514 7.82514C10.7921 7.96579 10.8711 8.15656 10.8711 8.35547V15.6445C10.8711 15.8434 10.7921 16.0341 10.6514 16.1748C10.5108 16.3155 10.32 16.3945 10.1211 16.3945Z" fill="#000000" />
<path d="M11.0938 9.10388C10.8948 9.10388 10.7041 9.02486 10.5634 8.8842C10.4228 8.74355 10.3438 8.55279 10.3438 8.35388V7.29688C10.3438 7.09796 10.4228 6.9072 10.5634 6.76654C10.7041 6.62589 10.8948 6.54688 11.0938 6.54688C11.2927 6.54688 11.4834 6.62589 11.6241 6.76654C11.7647 6.9072 11.8438 7.09796 11.8438 7.29688V8.35388C11.8438 8.55279 11.7647 8.74355 11.6241 8.8842C11.4834 9.02486 11.2927 9.10388 11.0938 9.10388Z" fill="#000000" />
<path d="M13.3125 9.10388C13.1136 9.10388 12.9228 9.02486 12.7822 8.8842C12.6415 8.74355 12.5625 8.55279 12.5625 8.35388V7.29688C12.5625 7.09796 12.6415 6.9072 12.7822 6.76654C12.9228 6.62589 13.1136 6.54688 13.3125 6.54688C13.5114 6.54688 13.7022 6.62589 13.8428 6.76654C13.9835 6.9072 14.0625 7.09796 14.0625 7.29688V8.35388C14.0625 8.55279 13.9835 8.74355 13.8428 8.8842C13.7022 9.02486 13.5114 9.10388 13.3125 9.10388Z" fill="#000000" />
<path d="M11.0938 17.4485C10.8948 17.4485 10.7041 17.3695 10.5634 17.2289C10.4228 17.0882 10.3438 16.8974 10.3438 16.6985V15.6445C10.3438 15.4456 10.4228 15.2549 10.5634 15.1142C10.7041 14.9735 10.8948 14.8945 11.0938 14.8945C11.2927 14.8945 11.4834 14.9735 11.6241 15.1142C11.7647 15.2549 11.8438 15.4456 11.8438 15.6445V16.6985C11.8438 16.8974 11.7647 17.0882 11.6241 17.2289C11.4834 17.3695 11.2927 17.4485 11.0938 17.4485Z" fill="#000000" />
<path d="M13.3125 17.4485C13.1136 17.4485 12.9228 17.3695 12.7822 17.2289C12.6415 17.0882 12.5625 16.8974 12.5625 16.6985V15.6445C12.5625 15.4456 12.6415 15.2549 12.7822 15.1142C12.9228 14.9735 13.1136 14.8945 13.3125 14.8945C13.5114 14.8945 13.7022 14.9735 13.8428 15.1142C13.9835 15.2549 14.0625 15.4456 14.0625 15.6445V16.6985C14.0625 16.8974 13.9835 17.0882 13.8428 17.2289C13.7022 17.3695 13.5114 17.4485 13.3125 17.4485Z" fill="#000000" />
</svg>