<svg width="24px"  height="24px"  viewBox="0 0 25 24" fill="none" xmlns="http://www.w3.org/2000/svg">
<path d="M12.25 21.75C10.3216 21.75 8.43657 21.1782 6.83319 20.1068C5.22981 19.0355 3.98014 17.5127 3.24219 15.7312C2.50423 13.9496 2.31114 11.9892 2.68735 10.0979C3.06355 8.20656 3.99215 6.46927 5.35571 5.10571C6.71927 3.74215 8.45655 2.81355 10.3479 2.43735C12.2392 2.06114 14.1996 2.25422 15.9812 2.99218C17.7627 3.73013 19.2855 4.97982 20.3568 6.58319C21.4282 8.18657 22 10.0716 22 12C21.9971 14.585 20.9689 17.0632 19.1411 18.8911C17.3132 20.7189 14.835 21.7471 12.25 21.75ZM12.25 3.75C10.6183 3.75 9.02324 4.23386 7.66653 5.14038C6.30983 6.0469 5.25241 7.33538 4.62799 8.84287C4.00357 10.3504 3.84018 12.0092 4.15851 13.6095C4.47683 15.2098 5.2626 16.6799 6.41638 17.8336C7.57016 18.9874 9.04016 19.7732 10.6405 20.0915C12.2408 20.4098 13.8996 20.2464 15.4071 19.622C16.9146 18.9976 18.2031 17.9402 19.1096 16.5835C20.0161 15.2268 20.5 13.6317 20.5 12C20.4974 9.81278 19.6273 7.7159 18.0807 6.1693C16.5341 4.62269 14.4372 3.75265 12.25 3.75Z" fill="#000000" />
<path d="M12.9969 16.4451H10.3359C10.137 16.4451 9.94626 16.3661 9.8056 16.2254C9.66495 16.0848 9.58594 15.894 9.58594 15.6951V12.0001C9.58594 11.8012 9.66495 11.6104 9.8056 11.4698C9.94626 11.3291 10.137 11.2501 10.3359 11.2501H12.9169C13.5718 11.2447 14.2057 11.4809 14.6974 11.9135C15.1891 12.3462 15.504 12.9448 15.5819 13.5951C15.6168 13.9557 15.5759 14.3196 15.4619 14.6634C15.3478 15.0073 15.1632 15.3235 14.9198 15.5919C14.6764 15.8602 14.3797 16.0747 14.0485 16.2216C13.7174 16.3686 13.3592 16.4447 12.9969 16.4451ZM11.0859 14.9451H12.9969C13.1502 14.9446 13.3016 14.912 13.4416 14.8496C13.5815 14.7871 13.7069 14.6961 13.8096 14.5824C13.9123 14.4686 13.9901 14.3347 14.0381 14.1891C14.086 14.0436 14.103 13.8896 14.088 13.7371C14.048 13.4575 13.9066 13.2023 13.6906 13.0203C13.4747 12.8383 13.1993 12.7421 12.9169 12.7501H11.0859V14.9451Z" fill="#000000" />
<path d="M12.9969 12.7527H10.3359C10.137 12.7527 9.94626 12.6737 9.8056 12.533C9.66495 12.3924 9.58594 12.2016 9.58594 12.0027V8.30869C9.58594 8.10977 9.66495 7.91901 9.8056 7.77835C9.94626 7.6377 10.137 7.55869 10.3359 7.55869H12.9169C13.5717 7.55326 14.2054 7.78933 14.6971 8.22175C15.1887 8.65417 15.5037 9.25262 15.5819 9.90268C15.6168 10.2633 15.5759 10.6272 15.4619 10.971C15.3478 11.3149 15.1632 11.6311 14.9198 11.8994C14.6764 12.1678 14.3797 12.3823 14.0485 12.5292C13.7174 12.6762 13.3592 12.7523 12.9969 12.7527ZM11.0859 11.2527H12.9969C13.1501 11.2522 13.3014 11.2197 13.4413 11.1573C13.5812 11.0949 13.7065 11.0039 13.8092 10.8903C13.9119 10.7767 13.9898 10.6429 14.0378 10.4974C14.0857 10.352 14.1029 10.1981 14.088 10.0457C14.048 9.76608 13.9066 9.51094 13.6906 9.32891C13.4747 9.14688 13.1993 9.05069 12.9169 9.05869H11.0859V11.2527Z" fill="#000000" />
<path d="M12.2578 17.5333C12.0589 17.5333 11.8681 17.4543 11.7275 17.3136C11.5868 17.173 11.5078 16.9822 11.5078 16.7833V15.6953C11.5078 15.4964 11.5868 15.3056 11.7275 15.165C11.8681 15.0243 12.0589 14.9453 12.2578 14.9453C12.4567 14.9453 12.6475 15.0243 12.7881 15.165C12.9288 15.3056 13.0078 15.4964 13.0078 15.6953V16.7843C13.0075 16.9831 12.9284 17.1736 12.7878 17.314C12.6472 17.4544 12.4566 17.5333 12.2578 17.5333Z" fill="#000000" />
<path d="M12.2578 9.05484C12.0589 9.05484 11.8681 8.97583 11.7275 8.83517C11.5868 8.69452 11.5078 8.50376 11.5078 8.30484V7.21484C11.5078 7.01593 11.5868 6.82517 11.7275 6.68451C11.8681 6.54386 12.0589 6.46484 12.2578 6.46484C12.4567 6.46484 12.6475 6.54386 12.7881 6.68451C12.9288 6.82517 13.0078 7.01593 13.0078 7.21484V8.30484C13.0078 8.50376 12.9288 8.69452 12.7881 8.83517C12.6475 8.97583 12.4567 9.05484 12.2578 9.05484Z" fill="#000000" />
</svg>