<svg width="24px"  height="24px"  viewBox="0 0 25 24" fill="none" xmlns="http://www.w3.org/2000/svg">
<path d="M12.25 21.75C10.3216 21.75 8.43657 21.1782 6.83319 20.1068C5.22981 19.0355 3.98013 17.5127 3.24217 15.7312C2.50422 13.9496 2.31114 11.9892 2.68735 10.0979C3.06356 8.20656 3.99215 6.46927 5.35572 5.10571C6.71928 3.74215 8.45656 2.81355 10.3479 2.43735C12.2392 2.06114 14.1996 2.25422 15.9812 2.99218C17.7628 3.73013 19.2855 4.97982 20.3568 6.58319C21.4282 8.18657 22 10.0716 22 12C21.9971 14.585 20.9689 17.0632 19.1411 18.8911C17.3132 20.7189 14.835 21.7471 12.25 21.75ZM12.25 3.75C10.6183 3.75 9.02326 4.23386 7.66655 5.14038C6.30985 6.0469 5.25242 7.33538 4.62799 8.84287C4.00357 10.3504 3.8402 12.0092 4.15853 13.6095C4.47685 15.2098 5.26259 16.6799 6.41637 17.8336C7.57015 18.9874 9.04016 19.7732 10.6405 20.0915C12.2408 20.4098 13.8996 20.2464 15.4071 19.622C16.9146 18.9976 18.2031 17.9402 19.1096 16.5835C20.0161 15.2268 20.5 13.6317 20.5 12C20.4974 9.81278 19.6273 7.7159 18.0807 6.1693C16.5341 4.62269 14.4372 3.75265 12.25 3.75Z" fill="#000000" />
<path d="M13.4543 16.2126H9.6543C9.45538 16.2126 9.26461 16.1336 9.12396 15.993C8.98331 15.8523 8.9043 15.6615 8.9043 15.4626C8.9043 15.2637 8.98331 15.0729 9.12396 14.9323C9.26461 14.7916 9.45538 14.7126 9.6543 14.7126H13.4543C13.7622 14.7124 14.0575 14.59 14.2753 14.3723C14.4931 14.1547 14.6158 13.8596 14.6163 13.5516C14.6166 13.3991 14.5867 13.248 14.5285 13.107C14.4702 12.966 14.3847 12.8379 14.2768 12.7301C14.169 12.6222 14.0409 12.5367 13.8999 12.4785C13.7589 12.4202 13.6078 12.3904 13.4553 12.3906H10.2553C10.0564 12.3906 9.86563 12.3116 9.72498 12.171C9.58432 12.0303 9.50529 11.8395 9.50529 11.6406C9.50529 11.4417 9.58432 11.2509 9.72498 11.1103C9.86563 10.9696 10.0564 10.8906 10.2553 10.8906H13.4553C14.161 10.8906 14.8379 11.171 15.3369 11.67C15.8359 12.169 16.1163 12.8459 16.1163 13.5516C16.1163 14.2574 15.8359 14.9342 15.3369 15.4332C14.8379 15.9323 14.161 16.2126 13.4553 16.2126H13.4543Z" fill="#000000" />
<path d="M13.2694 12.3942C13.0705 12.3955 12.8792 12.3178 12.7377 12.1781C12.5961 12.0384 12.5158 11.8481 12.5145 11.6492C12.5131 11.4503 12.5909 11.259 12.7306 11.1174C12.8703 10.9758 13.0605 10.8955 13.2594 10.8942C13.4728 10.8927 13.6769 10.8066 13.8267 10.6547C13.9765 10.5028 14.0599 10.2976 14.0584 10.0842C14.057 9.87084 13.9708 9.66679 13.8189 9.51695C13.667 9.36711 13.4618 9.28375 13.2484 9.28521H9.64844C9.44953 9.28521 9.25877 9.20619 9.11812 9.06554C8.97747 8.92489 8.89844 8.73412 8.89844 8.53521C8.89844 8.3363 8.97747 8.14553 9.11812 8.00488C9.25877 7.86423 9.44953 7.78521 9.64844 7.78521H13.2484C13.5511 7.78317 13.8511 7.84076 14.1315 7.9547C14.4119 8.06863 14.6671 8.23667 14.8825 8.44922C15.0979 8.66177 15.2694 8.91468 15.3871 9.19349C15.5048 9.47231 15.5664 9.77158 15.5685 10.0742C15.5705 10.3768 15.5129 10.6769 15.399 10.9573C15.285 11.2377 15.117 11.4928 14.9044 11.7083C14.6919 11.9237 14.439 12.0952 14.1602 12.2129C13.8813 12.3305 13.5821 12.3922 13.2794 12.3942H13.2694Z" fill="#000000" />
<path d="M10.2383 16.2152C10.0394 16.2152 9.8486 16.1361 9.70795 15.9955C9.56729 15.8548 9.48828 15.6641 9.48828 15.4652V8.53516C9.48828 8.33624 9.56729 8.14548 9.70795 8.00483C9.8486 7.86417 10.0394 7.78516 10.2383 7.78516C10.4372 7.78516 10.6279 7.86417 10.7686 8.00483C10.9093 8.14548 10.9883 8.33624 10.9883 8.53516V15.4652C10.9883 15.6641 10.9093 15.8548 10.7686 15.9955C10.6279 16.1361 10.4372 16.2152 10.2383 16.2152Z" fill="#000000" />
<path d="M11.1641 9.28234C10.9652 9.28234 10.7744 9.20333 10.6337 9.06267C10.4931 8.92202 10.4141 8.73126 10.4141 8.53234V7.52734C10.4141 7.32843 10.4931 7.13767 10.6337 6.99701C10.7744 6.85636 10.9652 6.77734 11.1641 6.77734C11.363 6.77734 11.5537 6.85636 11.6944 6.99701C11.835 7.13767 11.9141 7.32843 11.9141 7.52734V8.53334C11.9138 8.73208 11.8347 8.92259 11.694 9.06303C11.5534 9.20346 11.3628 9.28234 11.1641 9.28234Z" fill="#000000" />
<path d="M13.2734 9.28234C13.0745 9.28234 12.8838 9.20333 12.7431 9.06267C12.6025 8.92202 12.5234 8.73126 12.5234 8.53234V7.52734C12.5234 7.32843 12.6025 7.13767 12.7431 6.99701C12.8838 6.85636 13.0745 6.77734 13.2734 6.77734C13.4723 6.77734 13.6631 6.85636 13.8038 6.99701C13.9444 7.13767 14.0234 7.32843 14.0234 7.52734V8.53334C14.0232 8.73208 13.944 8.92259 13.8034 9.06303C13.6628 9.20346 13.4722 9.28234 13.2734 9.28234Z" fill="#000000" />
<path d="M11.1641 17.2188C10.9652 17.2188 10.7744 17.1397 10.6337 16.9991C10.4931 16.8584 10.4141 16.6677 10.4141 16.4688V15.4688C10.4141 15.2698 10.4931 15.0791 10.6337 14.9384C10.7744 14.7978 10.9652 14.7188 11.1641 14.7188C11.363 14.7188 11.5537 14.7978 11.6944 14.9384C11.835 15.0791 11.9141 15.2698 11.9141 15.4688V16.4688C11.9141 16.6677 11.835 16.8584 11.6944 16.9991C11.5537 17.1397 11.363 17.2188 11.1641 17.2188Z" fill="#000000" />
<path d="M13.2734 17.2188C13.0745 17.2188 12.8838 17.1397 12.7431 16.9991C12.6025 16.8584 12.5234 16.6677 12.5234 16.4688V15.4688C12.5234 15.2698 12.6025 15.0791 12.7431 14.9384C12.8838 14.7978 13.0745 14.7188 13.2734 14.7188C13.4723 14.7188 13.6631 14.7978 13.8038 14.9384C13.9444 15.0791 14.0234 15.2698 14.0234 15.4688V16.4688C14.0234 16.6677 13.9444 16.8584 13.8038 16.9991C13.6631 17.1397 13.4723 17.2188 13.2734 17.2188Z" fill="#000000" />
</svg>