<svg width="24px"  height="24px"  viewBox="0 0 25 24" fill="none" xmlns="http://www.w3.org/2000/svg">
<path fill-rule="evenodd" clip-rule="evenodd" d="M12.25 3.75C7.69329 3.75 4 7.44329 4 12C4 16.5567 7.69329 20.25 12.25 20.25C16.8067 20.25 20.5 16.5567 20.5 12C20.5 7.44329 16.8067 3.75 12.25 3.75ZM2.5 12C2.5 6.61487 6.86487 2.25 12.25 2.25C17.6351 2.25 22 6.61487 22 12C22 17.3851 17.6351 21.75 12.25 21.75C6.86487 21.75 2.5 17.3851 2.5 12Z" fill="#000000" />
<path fill-rule="evenodd" clip-rule="evenodd" d="M12.2712 8.16602C10.1548 8.16602 8.43359 9.93541 8.43359 12.0882C8.43359 14.2222 10.1372 15.9258 12.2712 15.9258C13.4547 15.9258 14.6045 15.293 15.3302 14.3495C15.5827 14.0211 16.0536 13.9597 16.3819 14.2122C16.7103 14.4648 16.7717 14.9357 16.5192 15.264C15.5461 16.5291 13.9773 17.4258 12.2712 17.4258C9.30873 17.4258 6.93359 15.0507 6.93359 12.0882C6.93359 9.14267 9.29111 6.66602 12.2712 6.66602C12.9616 6.66602 13.6494 6.79885 14.2813 7.04821C14.6666 7.20027 14.8557 7.63588 14.7036 8.02117C14.5516 8.40647 14.1159 8.59555 13.7307 8.44349C13.2728 8.26281 12.7717 8.16602 12.2712 8.16602Z" fill="#000000" />
<path fill-rule="evenodd" clip-rule="evenodd" d="M14.6992 10.1777C14.6992 9.17342 15.5142 8.35938 16.5185 8.35938C17.5229 8.35938 18.3378 9.17342 18.3378 10.1777C18.3378 11.1825 17.5233 11.997 16.5185 11.997C15.5137 11.997 14.6992 11.1825 14.6992 10.1777ZM16.5185 9.85938C16.3417 9.85938 16.1992 10.0027 16.1992 10.1777C16.1992 10.3541 16.3421 10.497 16.5185 10.497C16.6949 10.497 16.8378 10.3541 16.8378 10.1777C16.8378 10.0027 16.6953 9.85938 16.5185 9.85938Z" fill="#000000" />
</svg>