<svg width="24px"  height="24px"  viewBox="0 0 25 24" fill="none" xmlns="http://www.w3.org/2000/svg">
<path fill-rule="evenodd" clip-rule="evenodd" d="M3.9902 3.89737C4.97468 2.84117 6.37669 2.25 8.03216 2.25H16.4669C18.1262 2.25 19.5288 2.84084 20.5129 3.89765C21.4913 4.94841 22 6.39889 22 8.02638V15.9736C22 17.6011 21.4913 19.0516 20.5127 20.1024C19.5285 21.1592 18.1256 21.75 16.4659 21.75H8.03216C6.3728 21.75 4.97038 21.1591 3.98657 20.1023C3.00842 19.0515 2.5 17.601 2.5 15.9736V8.02638C2.5 6.39806 3.01117 4.94771 3.9902 3.89737ZM5.08745 4.92012C4.41024 5.64666 4 6.70951 4 8.02638V15.9736C4 17.2914 4.40861 18.3541 5.08451 19.0802C5.75475 19.8003 6.74341 20.25 8.03216 20.25H16.4659C17.7552 20.25 18.7444 19.8002 19.415 19.0801C20.0912 18.354 20.5 17.2913 20.5 15.9736V8.02638C20.5 6.70868 20.0912 5.64597 19.4151 4.91984C18.7446 4.19975 17.7556 3.75 16.4669 3.75H8.03216C6.74828 3.75 5.75921 4.19943 5.08745 4.92012Z" fill="#000000" />
<path fill-rule="evenodd" clip-rule="evenodd" d="M11.3769 7.61718C11.9183 7.30465 12.5854 7.30469 13.1268 7.61728L15.6101 9.05108C16.1515 9.3637 16.485 9.94141 16.485 10.5666V13.4342C16.485 14.0594 16.1515 14.6371 15.6101 14.9497L13.1268 16.3835C12.5854 16.6961 11.9183 16.6962 11.3769 16.3836L8.89273 14.9498C8.35119 14.6372 8.01758 14.0594 8.01758 13.4341V10.5667C8.01758 9.94142 8.35119 9.36364 8.89273 9.05106L11.3769 7.61718ZM12.3767 8.91631C12.2994 8.87165 12.2041 8.87165 12.1267 8.91629L9.6426 10.3502C9.56524 10.3948 9.51758 10.4774 9.51758 10.5667V13.4341C9.51758 13.5235 9.56524 13.606 9.6426 13.6506L12.1267 15.0845C12.2041 15.1292 12.2994 15.1292 12.3767 15.0845L14.86 13.6507C14.9374 13.6061 14.985 13.5235 14.985 13.4342V10.5666C14.985 10.4773 14.9374 10.3948 14.86 10.3501L12.3767 8.91631Z" fill="#000000" />
</svg>