<svg width="24px"  height="24px"  viewBox="0 0 25 24" fill="none" xmlns="http://www.w3.org/2000/svg">
<path d="M12.25 21.75C10.3216 21.75 8.43657 21.1782 6.83319 20.1068C5.22982 19.0355 3.98013 17.5128 3.24218 15.7312C2.50422 13.9496 2.31114 11.9892 2.68735 10.0979C3.06355 8.20656 3.99215 6.46931 5.35571 5.10575C6.71928 3.74219 8.45656 2.81356 10.3479 2.43735C12.2392 2.06115 14.1996 2.25421 15.9812 2.99216C17.7627 3.73012 19.2855 4.97985 20.3568 6.58323C21.4282 8.18661 22 10.0717 22 12C21.9971 14.585 20.9689 17.0632 19.1411 18.8911C17.3132 20.7189 14.835 21.7471 12.25 21.75ZM12.25 3.75004C10.6183 3.75004 9.02326 4.23383 7.66655 5.14036C6.30984 6.04688 5.25242 7.33538 4.628 8.84287C4.00358 10.3504 3.8402 12.0092 4.15853 13.6095C4.47685 15.2099 5.26259 16.6799 6.41637 17.8337C7.57016 18.9874 9.04017 19.7731 10.6405 20.0915C12.2409 20.4098 13.8997 20.2465 15.4071 19.622C16.9146 18.9976 18.2031 17.9402 19.1096 16.5835C20.0161 15.2268 20.5 13.6317 20.5 12C20.4974 9.81281 19.6273 7.71589 18.0807 6.16929C16.5341 4.62268 14.4372 3.75268 12.25 3.75004Z" fill="#000000" />
<path d="M8.4749 16.0009C8.15498 16.0012 7.84063 15.9172 7.56345 15.7575C7.28627 15.5977 7.05603 15.3678 6.8959 15.0909C6.77645 14.8839 6.69896 14.6553 6.66784 14.4183C6.63672 14.1814 6.65258 13.9406 6.71451 13.7097C6.77645 13.4789 6.88325 13.2625 7.02882 13.0729C7.17438 12.8833 7.35586 12.7243 7.5629 12.6049L15.1179 8.24287C15.5351 8.0122 16.0261 7.95443 16.4855 8.08198C16.9448 8.20953 17.3358 8.51219 17.5743 8.92494C17.8129 9.33769 17.8799 9.82758 17.7611 10.2893C17.6423 10.7509 17.3471 11.1476 16.9389 11.3939L9.3819 15.7559C9.10647 15.9161 8.79355 16.0006 8.4749 16.0009ZM8.1949 14.3409C8.23736 14.4142 8.3071 14.4678 8.3889 14.4899C8.42954 14.501 8.47201 14.5037 8.51375 14.4981C8.5555 14.4924 8.59568 14.4784 8.6319 14.4569L16.1879 10.0949C16.2242 10.0739 16.2561 10.0461 16.2816 10.0128C16.3072 9.97958 16.3259 9.94163 16.3368 9.90113C16.3476 9.86064 16.3504 9.81837 16.345 9.77681C16.3395 9.73524 16.3259 9.69519 16.3049 9.65889C16.2622 9.58568 16.1924 9.53223 16.1106 9.51014C16.0288 9.48805 15.9416 9.49906 15.8679 9.54084L8.3129 13.9039C8.23949 13.9464 8.18587 14.0162 8.16376 14.098C8.14165 14.1799 8.15284 14.2672 8.1949 14.3409Z" fill="#000000" />
<path d="M16.0234 16.0005C15.7053 16.0006 15.3927 15.9167 15.1174 15.7574L7.56138 11.3944C7.14413 11.1527 6.83968 10.7554 6.71467 10.2897C6.58966 9.82395 6.65428 9.32765 6.89438 8.90945C7.13594 8.4917 7.53344 8.18691 7.99957 8.06204C8.46569 7.93716 8.96232 8.00239 9.38038 8.24343L16.9364 12.6054C17.2863 12.8045 17.5603 13.114 17.7154 13.4855C17.8706 13.857 17.8981 14.2694 17.7937 14.6582C17.6893 15.047 17.4588 15.3902 17.1385 15.634C16.8181 15.8778 16.4259 16.0084 16.0234 16.0054V16.0005ZM8.19338 9.65945C8.15137 9.73295 8.1402 9.8201 8.16232 9.90182C8.18444 9.98354 8.23803 10.0531 8.31138 10.0954L15.8664 14.4584C15.9028 14.4807 15.9433 14.4956 15.9856 14.502C16.0278 14.5084 16.0709 14.5063 16.1124 14.4958C16.1538 14.4853 16.1927 14.4666 16.2267 14.4408C16.2608 14.415 16.2894 14.3827 16.3108 14.3457C16.3321 14.3087 16.3459 14.2678 16.3512 14.2254C16.3565 14.183 16.3533 14.14 16.3417 14.0988C16.3301 14.0577 16.3104 14.0193 16.2837 13.9859C16.257 13.9525 16.2239 13.9248 16.1864 13.9044L8.63038 9.5364C8.55649 9.4954 8.46954 9.48483 8.38796 9.50686C8.30638 9.52889 8.23658 9.58182 8.19338 9.65444V9.65945Z" fill="#000000" />
<path d="M12.2497 18.1834C11.7671 18.1831 11.3043 17.9913 10.963 17.65C10.6218 17.3088 10.43 16.846 10.4297 16.3634V7.63641C10.4297 7.15372 10.6214 6.6908 10.9628 6.34949C11.3041 6.00817 11.767 5.81641 12.2497 5.81641C12.7324 5.81641 13.1953 6.00817 13.5366 6.34949C13.8779 6.6908 14.0697 7.15372 14.0697 7.63641V16.3614C14.0698 16.6005 14.0228 16.8374 13.9315 17.0583C13.8401 17.2793 13.706 17.4802 13.537 17.6494C13.368 17.8185 13.1674 17.9528 12.9465 18.0444C12.7256 18.1361 12.4888 18.1833 12.2497 18.1834ZM12.2497 7.3194C12.2077 7.31927 12.1661 7.32741 12.1273 7.34338C12.0885 7.35936 12.0532 7.38284 12.0235 7.41248C11.9937 7.44211 11.9702 7.47735 11.9541 7.51611C11.938 7.55488 11.9297 7.59645 11.9297 7.63843V16.3634C11.9297 16.4483 11.9634 16.5296 12.0234 16.5897C12.0834 16.6497 12.1648 16.6834 12.2497 16.6834C12.3346 16.6834 12.416 16.6497 12.476 16.5897C12.536 16.5296 12.5697 16.4483 12.5697 16.3634V7.63641C12.5692 7.55198 12.5352 7.47116 12.4752 7.41174C12.4152 7.35232 12.3341 7.31913 12.2497 7.3194Z" fill="#000000" />
</svg>