<svg width="24px"  height="24px"  viewBox="0 0 25 24" fill="none" xmlns="http://www.w3.org/2000/svg">
<path d="M16.466 21.75H8.032C4.723 21.75 2.5 19.429 2.5 15.974V8.02698C2.5 4.57198 4.723 2.25 8.032 2.25H16.467C19.776 2.25 22 4.57198 22 8.02698V15.974C22 19.429 19.776 21.75 16.466 21.75ZM8.032 3.75C5.583 3.75 4 5.42898 4 8.02698V15.974C4 18.574 5.583 20.25 8.032 20.25H16.466C18.917 20.25 20.5 18.572 20.5 15.974V8.02698C20.5 5.42698 18.917 3.75 16.467 3.75H8.032Z" fill="#000000" />
<path d="M12.249 18.4678C11.7516 18.467 11.2747 18.2689 10.923 17.9171C10.5714 17.5652 10.3736 17.0882 10.373 16.5908V7.40778C10.373 6.9101 10.5707 6.43278 10.9227 6.08087C11.2746 5.72896 11.7519 5.53125 12.2495 5.53125C12.7472 5.53125 13.2245 5.72896 13.5764 6.08087C13.9283 6.43278 14.126 6.9101 14.126 7.40778V16.5908C14.1258 17.0885 13.9279 17.5658 13.576 17.9177C13.224 18.2697 12.7468 18.4675 12.249 18.4678ZM12.249 7.0318C12.1494 7.03206 12.0539 7.07176 11.9835 7.14221C11.913 7.21267 11.8733 7.30814 11.873 7.40778V16.5908C11.873 16.6906 11.9127 16.7864 11.9833 16.857C12.0539 16.9276 12.1497 16.9673 12.2495 16.9673C12.3494 16.9673 12.4452 16.9276 12.5158 16.857C12.5864 16.7864 12.626 16.6906 12.626 16.5908V7.40778C12.6253 7.30831 12.5852 7.21318 12.5146 7.14313C12.444 7.07307 12.3485 7.03375 12.249 7.03375V7.0318Z" fill="#000000" />
<path d="M8.27859 16.1744C7.94855 16.1739 7.62441 16.0869 7.33855 15.922C7.0527 15.757 6.81513 15.5199 6.64959 15.2344C6.52641 15.0209 6.44649 14.7853 6.41441 14.541C6.38232 14.2966 6.39869 14.0484 6.46259 13.8104C6.52648 13.5724 6.63664 13.3493 6.78677 13.1538C6.93691 12.9584 7.12408 12.7945 7.33759 12.6714L15.2906 8.07942C15.7216 7.83065 16.2337 7.76327 16.7144 7.89211C17.195 8.02094 17.6048 8.3354 17.8536 8.76637C18.1024 9.19735 18.1697 9.70955 18.0409 10.1902C17.9121 10.6709 17.5976 11.0806 17.1666 11.3294L9.21259 15.9214C8.92903 16.0867 8.60679 16.1739 8.27859 16.1744ZM16.2276 9.32942C16.1613 9.32941 16.0962 9.34663 16.0386 9.37941L8.08659 13.9714C8.00046 14.0216 7.93765 14.1038 7.9118 14.2C7.88596 14.2963 7.89917 14.3989 7.94859 14.4854C7.97315 14.5284 8.00596 14.566 8.04514 14.5962C8.08432 14.6264 8.12909 14.6486 8.17686 14.6614C8.22464 14.6742 8.27449 14.6774 8.32352 14.6709C8.37256 14.6644 8.41982 14.6483 8.46259 14.6234L16.4166 10.0314C16.4875 9.98961 16.5428 9.92568 16.5739 9.84944C16.605 9.7732 16.6103 9.68889 16.5888 9.60939C16.5673 9.5299 16.5204 9.45966 16.4551 9.40944C16.3899 9.35922 16.3099 9.33177 16.2276 9.33138V9.32942Z" fill="#000000" />
<path d="M16.2245 16.1765C15.8964 16.1764 15.5741 16.0894 15.2905 15.9245L7.33647 11.3366C6.90564 11.0877 6.59126 10.6778 6.46244 10.1972C6.33362 9.71664 6.4009 9.20455 6.64948 8.77353C6.89859 8.34321 7.30811 8.0292 7.78833 7.90024C8.26855 7.77128 8.7803 7.8379 9.21147 8.08555L17.1665 12.6786C17.5226 12.8864 17.8004 13.2055 17.957 13.5869C18.1137 13.9682 18.1405 14.3906 18.0334 14.7887C17.9262 15.1868 17.6911 15.5385 17.3641 15.7897C17.0372 16.0409 16.6367 16.1776 16.2245 16.1786V16.1765ZM8.27548 9.33658C8.20926 9.33644 8.14417 9.35369 8.08677 9.38669C8.02937 9.4197 7.98167 9.46728 7.94847 9.52457C7.9235 9.56716 7.90736 9.61434 7.901 9.6633C7.89465 9.71227 7.89821 9.76199 7.91148 9.80954C7.924 9.85741 7.94592 9.90231 7.97596 9.94162C8.00601 9.98094 8.04357 10.0139 8.08647 10.0385L16.0405 14.6305C16.083 14.6556 16.1302 14.6719 16.1791 14.6784C16.2281 14.685 16.2778 14.6816 16.3255 14.6686C16.3973 14.6492 16.4618 14.6089 16.5109 14.553C16.5599 14.497 16.5912 14.4277 16.601 14.3539C16.6107 14.2801 16.5984 14.2051 16.5655 14.1383C16.5327 14.0715 16.4808 14.0159 16.4165 13.9786L8.46247 9.38553C8.40537 9.35344 8.34098 9.33661 8.27548 9.33658Z" fill="#000000" />
</svg>