<svg width="24px"  height="24px"  viewBox="0 0 25 24" fill="none" xmlns="http://www.w3.org/2000/svg">
<path fill-rule="evenodd" clip-rule="evenodd" d="M6.94078 4.45909C7.02122 4.12124 7.32309 3.88281 7.67038 3.88281H13.8817C18.3647 3.88281 21.9999 7.51678 21.9999 12C21.9999 16.4831 18.3648 20.1182 13.8817 20.1182H4.89649C4.66482 20.1182 4.44615 20.0111 4.30408 19.8281C4.16201 19.6451 4.11247 19.4068 4.16989 19.1823L5.12338 15.4549C5.20829 15.123 5.50736 14.8908 5.84999 14.8908H13.2892C14.9094 14.8908 16.2228 13.5774 16.2228 11.9572C16.2228 10.337 14.9094 9.0236 13.2892 9.0236H6.80348C6.574 9.0236 6.35716 8.91855 6.21492 8.73847C6.07269 8.55839 6.02072 8.32311 6.07388 8.09988L6.94078 4.45909ZM8.26277 5.38281L7.75303 7.5236H13.2892C15.7378 7.5236 17.7228 9.50854 17.7228 11.9572C17.7228 14.4059 15.7378 16.3908 13.2892 16.3908H6.43228L5.8625 18.6182H13.8817C17.5364 18.6182 20.4999 15.6547 20.4999 12C20.4999 8.34547 17.5365 5.38281 13.8817 5.38281H8.26277Z" fill="#000000" />
<path fill-rule="evenodd" clip-rule="evenodd" d="M3.17128 10.5176C3.25463 10.1836 3.55469 9.94922 3.89897 9.94922H11.4841C11.7156 9.94922 11.934 10.0561 12.0761 10.2388C12.2182 10.4215 12.268 10.6595 12.211 10.8839L11.5504 13.4846C11.4659 13.8171 11.1666 14.0499 10.8235 14.0499H3.25001C3.01911 14.0499 2.80109 13.9436 2.65895 13.7616C2.51682 13.5797 2.46642 13.3424 2.52232 13.1183L3.17128 10.5176ZM4.48481 11.4492L4.21015 12.5499H10.2402L10.5198 11.4492H4.48481Z" fill="#000000" />
</svg>