<svg width="24px"  height="24px"  viewBox="0 0 25 24" fill="none" xmlns="http://www.w3.org/2000/svg">
<path d="M12.25 21.75C10.3216 21.75 8.43657 21.1782 6.83319 20.1068C5.22981 19.0355 3.98014 17.5128 3.24219 15.7312C2.50423 13.9496 2.31114 11.9892 2.68735 10.0979C3.06355 8.20656 3.99215 6.46931 5.35571 5.10575C6.71927 3.74219 8.45655 2.81356 10.3479 2.43735C12.2392 2.06115 14.1996 2.25421 15.9812 2.99216C17.7627 3.73012 19.2855 4.97985 20.3568 6.58323C21.4282 8.18661 22 10.0717 22 12C21.9971 14.585 20.9689 17.0632 19.1411 18.8911C17.3132 20.7189 14.835 21.7471 12.25 21.75ZM12.25 3.75004C10.6183 3.75004 9.02324 4.23383 7.66653 5.14036C6.30983 6.04688 5.25241 7.33538 4.62799 8.84287C4.00357 10.3504 3.84018 12.0092 4.15851 13.6095C4.47683 15.2099 5.2626 16.6799 6.41638 17.8337C7.57016 18.9874 9.04016 19.7731 10.6405 20.0915C12.2408 20.4098 13.8996 20.2465 15.4071 19.622C16.9146 18.9976 18.2031 17.9402 19.1096 16.5835C20.0161 15.2268 20.5 13.6317 20.5 12C20.4976 9.81273 19.6277 7.71564 18.081 6.16898C16.5343 4.62232 14.4373 3.75242 12.25 3.75004Z" fill="#000000" />
<path d="M12.6668 15.7254H9.4668C9.26788 15.7254 9.07715 15.6464 8.93649 15.5057C8.79584 15.3651 8.7168 15.1743 8.7168 14.9754C8.7168 14.7765 8.79584 14.5857 8.93649 14.4451C9.07715 14.3044 9.26788 14.2254 9.4668 14.2254H12.6668C13.2572 14.2254 13.8234 13.9909 14.2408 13.5734C14.6583 13.156 14.8928 12.5898 14.8928 11.9995C14.8928 11.4091 14.6583 10.8429 14.2408 10.4254C13.8234 10.008 13.2572 9.77344 12.6668 9.77344H10.4488C10.2499 9.77344 10.0591 9.69442 9.91849 9.55377C9.77784 9.41312 9.69882 9.22235 9.69882 9.02344C9.69882 8.82453 9.77784 8.63376 9.91849 8.4931C10.0591 8.35245 10.2499 8.27344 10.4488 8.27344H12.6698C13.658 8.27344 14.6057 8.66599 15.3045 9.36475C16.0033 10.0635 16.3958 11.0113 16.3958 11.9995C16.3958 12.9876 16.0033 13.9353 15.3045 14.6341C14.6057 15.3329 13.658 15.7254 12.6698 15.7254H12.6668Z" fill="#000000" />
<path d="M10.9015 12.75H8.85547C8.65656 12.75 8.46579 12.671 8.32513 12.5303C8.18448 12.3897 8.10547 12.1989 8.10547 12C8.10547 11.8011 8.18448 11.6103 8.32513 11.4697C8.46579 11.329 8.65656 11.25 8.85547 11.25H10.9015C11.1004 11.25 11.2911 11.329 11.4318 11.4697C11.5724 11.6103 11.6515 11.8011 11.6515 12C11.6515 12.1989 11.5724 12.3897 11.4318 12.5303C11.2911 12.671 11.1004 12.75 10.9015 12.75Z" fill="#000000" />
</svg>