<svg width="24px"  height="24px"  viewBox="0 0 25 24" fill="none" xmlns="http://www.w3.org/2000/svg">
<path fill-rule="evenodd" clip-rule="evenodd" d="M3.9902 3.89737C4.97468 2.84117 6.37669 2.25 8.03216 2.25H16.4669C18.1262 2.25 19.5288 2.84084 20.5129 3.89765C21.4913 4.94841 22 6.39889 22 8.02638V15.9736C22 17.6011 21.4913 19.0516 20.5127 20.1024C19.5285 21.1592 18.1256 21.75 16.4659 21.75H8.03216C6.3728 21.75 4.97038 21.1591 3.98657 20.1023C3.00842 19.0515 2.5 17.601 2.5 15.9736V8.02638C2.5 6.39806 3.01117 4.94771 3.9902 3.89737ZM5.08745 4.92012C4.41024 5.64666 4 6.70951 4 8.02638V15.9736C4 17.2914 4.40861 18.3541 5.08451 19.0802C5.75475 19.8003 6.74341 20.25 8.03216 20.25H16.4659C17.7552 20.25 18.7444 19.8002 19.415 19.0801C20.0912 18.354 20.5 17.2913 20.5 15.9736V8.02638C20.5 6.70868 20.0912 5.64597 19.4151 4.91984C18.7446 4.19975 17.7556 3.75 16.4669 3.75H8.03216C6.74828 3.75 5.75921 4.19943 5.08745 4.92012Z" fill="#000000" />
<path fill-rule="evenodd" clip-rule="evenodd" d="M8.61488 7.6736C8.91704 7.39028 9.39166 7.40554 9.67499 7.70769L12.0763 10.2686C12.2808 10.4866 12.3362 10.8054 12.2174 11.0797C12.0986 11.354 11.8282 11.5316 11.5292 11.5316H10.0289C9.06224 11.5316 8.2793 12.3149 8.2793 13.2802C8.2793 14.2466 9.06243 15.0297 10.0289 15.0297H11.5292C11.9434 15.0297 12.2792 15.3655 12.2792 15.7797C12.2792 16.1939 11.9434 16.5297 11.5292 16.5297H10.0289C8.234 16.5297 6.7793 15.075 6.7793 13.2802C6.7793 11.5613 8.1147 10.1542 9.8049 10.0392L8.58079 8.73372C8.29746 8.43156 8.31272 7.95693 8.61488 7.6736Z" fill="#000000" />
<path fill-rule="evenodd" clip-rule="evenodd" d="M12.2227 8.2207C12.2227 7.80649 12.5585 7.4707 12.9727 7.4707H14.473C16.2679 7.4707 17.7226 8.92541 17.7226 10.7203C17.7226 12.4391 16.3872 13.8462 14.697 13.9613L15.9211 15.2667C16.2044 15.5689 16.1891 16.0435 15.887 16.3268C15.5848 16.6102 15.1102 16.5949 14.8269 16.2927L12.4256 13.7319C12.2211 13.5138 12.1656 13.1951 12.2845 12.9208C12.4033 12.6464 12.6737 12.4689 12.9727 12.4689H14.473C15.4396 12.4689 16.2226 11.6855 16.2226 10.7203C16.2226 9.75384 15.4394 8.9707 14.473 8.9707H12.9727C12.5585 8.9707 12.2227 8.63492 12.2227 8.2207Z" fill="#000000" />
</svg>