<svg width="24px"  height="24px"  viewBox="0 0 25 24" fill="none" xmlns="http://www.w3.org/2000/svg">
<path fill-rule="evenodd" clip-rule="evenodd" d="M3.9902 3.89737C4.97468 2.84117 6.37669 2.25 8.03216 2.25H16.4669C18.1262 2.25 19.5288 2.84084 20.5129 3.89765C21.4913 4.94841 22 6.39889 22 8.02638V15.9736C22 17.6011 21.4913 19.0516 20.5127 20.1024C19.5285 21.1592 18.1256 21.75 16.4659 21.75H8.03216C6.3728 21.75 4.97038 21.1591 3.98657 20.1023C3.00842 19.0515 2.5 17.601 2.5 15.9736V8.02638C2.5 6.39806 3.01117 4.94771 3.9902 3.89737ZM5.08745 4.92012C4.41024 5.64666 4 6.70951 4 8.02638V15.9736C4 17.2914 4.40861 18.3541 5.08451 19.0802C5.75475 19.8003 6.74341 20.25 8.03216 20.25H16.4659C17.7552 20.25 18.7444 19.8002 19.415 19.0801C20.0912 18.354 20.5 17.2913 20.5 15.9736V8.02638C20.5 6.70868 20.0912 5.64597 19.4151 4.91984C18.7446 4.19975 17.7556 3.75 16.4669 3.75H8.03216C6.74828 3.75 5.75921 4.19943 5.08745 4.92012Z" fill="#000000" />
<path fill-rule="evenodd" clip-rule="evenodd" d="M9.23633 8.49023C9.23633 8.07602 9.57211 7.74023 9.98633 7.74023H12.6834C15.0358 7.74023 16.9429 9.64737 16.9429 11.9997C16.9429 14.3521 15.0358 16.2593 12.6834 16.2593H9.98633C9.57211 16.2593 9.23633 15.9235 9.23633 15.5093V8.49023ZM10.7363 9.24023V14.7593H12.6834C14.2074 14.7593 15.4429 13.5237 15.4429 11.9997C15.4429 10.4758 14.2074 9.24023 12.6834 9.24023H10.7363Z" fill="#000000" />
<path fill-rule="evenodd" clip-rule="evenodd" d="M7.97461 12C7.97461 11.5858 8.3104 11.25 8.72461 11.25H12.4618C12.876 11.25 13.2118 11.5858 13.2118 12C13.2118 12.4142 12.876 12.75 12.4618 12.75H8.72461C8.3104 12.75 7.97461 12.4142 7.97461 12Z" fill="#000000" />
</svg>