<svg width="24px"  height="24px"  viewBox="0 0 25 24" fill="none" xmlns="http://www.w3.org/2000/svg">
<path fill-rule="evenodd" clip-rule="evenodd" d="M12.25 3.75C7.69329 3.75 4 7.44329 4 12C4 16.5567 7.69329 20.25 12.25 20.25C16.8067 20.25 20.5 16.5567 20.5 12C20.5 7.44329 16.8067 3.75 12.25 3.75ZM2.5 12C2.5 6.61487 6.86487 2.25 12.25 2.25C17.6351 2.25 22 6.61487 22 12C22 17.3851 17.6351 21.75 12.25 21.75C6.86487 21.75 2.5 17.3851 2.5 12Z" fill="#000000" />
<path fill-rule="evenodd" clip-rule="evenodd" d="M7.44141 11.4906C7.44141 9.37656 9.16757 7.65039 11.2816 7.65039H15.3914C15.8056 7.65039 16.1414 7.98618 16.1414 8.40039C16.1414 8.8146 15.8056 9.15039 15.3914 9.15039H11.2816C9.996 9.15039 8.94141 10.205 8.94141 11.4906V12.5102C8.94141 13.7958 9.996 14.8504 11.2816 14.8504H15.3914C15.8056 14.8504 16.1414 15.1862 16.1414 15.6004C16.1414 16.0146 15.8056 16.3504 15.3914 16.3504H11.2816C9.16757 16.3504 7.44141 14.6242 7.44141 12.5102V11.4906Z" fill="#000000" />
<path fill-rule="evenodd" clip-rule="evenodd" d="M7.44141 12C7.44142 11.5858 7.77721 11.25 8.19143 11.25L15.3914 11.2502C15.8056 11.2502 16.1414 11.586 16.1414 12.0002C16.1414 12.4144 15.8056 12.7502 15.3914 12.7502L8.19139 12.75C7.77717 12.75 7.4414 12.4142 7.44141 12Z" fill="#000000" />
</svg>