<svg width="24px"  height="24px"  viewBox="0 0 25 24" fill="none" xmlns="http://www.w3.org/2000/svg">
<path fill-rule="evenodd" clip-rule="evenodd" d="M12.2497 2.25C12.4893 2.25 12.7145 2.36446 12.8557 2.55802L16.7107 7.84302C16.7611 7.91209 16.7993 7.98927 16.8236 8.07122L19.4536 16.9152C19.5514 17.244 19.4137 17.5972 19.1192 17.773L12.6342 21.644C12.3974 21.7853 12.1022 21.7853 11.8654 21.644L5.37938 17.773C5.08481 17.5972 4.94706 17.2439 5.04488 16.9151L7.67588 8.07115C7.70025 7.98922 7.73844 7.91207 7.78881 7.84302L11.6438 2.55802C11.785 2.36446 12.0102 2.25 12.2497 2.25ZM9.07678 8.62264L6.6489 16.7839L12.2497 20.1266L17.8497 16.7839L15.4227 8.62261L12.2497 4.27268L9.07678 8.62264Z" fill="#000000" />
<path fill-rule="evenodd" clip-rule="evenodd" d="M8.17908 7.56762C8.57547 7.44744 8.99424 7.67135 9.11442 8.06775L12.2517 18.4154L15.3889 8.06775C15.5091 7.67135 15.9279 7.44744 16.3243 7.56762C16.7207 7.6878 16.9446 8.10657 16.8244 8.50296L12.9694 21.218C12.8736 21.5341 12.5821 21.7504 12.2517 21.7504C11.9213 21.7504 11.6298 21.5341 11.5339 21.218L7.67895 8.50296C7.55876 8.10657 7.78268 7.6878 8.17908 7.56762Z" fill="#000000" />
</svg>