<svg width="24px"  height="24px"  viewBox="0 0 25 24" fill="none" xmlns="http://www.w3.org/2000/svg">
<path fill-rule="evenodd" clip-rule="evenodd" d="M12.6029 2.25C12.8466 2.25 13.0751 2.3684 13.2157 2.56749L19.5686 11.5675C19.7516 11.8268 19.7516 12.1732 19.5686 12.4325L13.2157 21.4325C13.0751 21.6316 12.8466 21.75 12.6029 21.75C12.3592 21.75 12.1307 21.6316 11.9902 21.4325L5.63727 12.4325C5.45424 12.1732 5.45424 11.8268 5.63727 11.5675L11.9902 2.56749C12.1307 2.3684 12.3592 2.25 12.6029 2.25ZM7.16803 12L12.6029 19.6995L18.0379 12L12.6029 4.30054L7.16803 12Z" fill="#000000" />
<path fill-rule="evenodd" clip-rule="evenodd" d="M12.2827 8.32181C12.4855 8.22606 12.7204 8.22606 12.9232 8.32181L19.2761 11.3218C19.5385 11.4457 19.7059 11.7098 19.7059 12C19.7059 12.2902 19.5385 12.5543 19.2761 12.6782L12.9232 15.6782C12.7204 15.7739 12.4855 15.7739 12.2827 15.6782L5.92975 12.6782C5.66737 12.5543 5.5 12.2902 5.5 12C5.5 11.7098 5.66737 11.4457 5.92975 11.3218L12.2827 8.32181ZM8.00641 12L12.6029 14.1706L17.1995 12L12.6029 9.82942L8.00641 12Z" fill="#000000" />
</svg>