<svg width="24px"  height="24px"  viewBox="0 0 25 24" fill="none" xmlns="http://www.w3.org/2000/svg">
<path fill-rule="evenodd" clip-rule="evenodd" d="M12.2505 2.25C12.5075 2.25 12.7466 2.3816 12.8841 2.59873L18.5838 11.5987C18.7389 11.8437 18.7389 12.1563 18.5838 12.4013L12.8841 21.4013C12.7466 21.6184 12.5075 21.75 12.2505 21.75C11.9934 21.75 11.7543 21.6184 11.6168 21.4013L5.91716 12.4013C5.76199 12.1563 5.76199 11.8437 5.91716 11.5987L11.6168 2.59873C11.7543 2.3816 11.9934 2.25 12.2505 2.25ZM7.43853 12L12.2505 19.5982L17.0624 12L12.2505 4.40179L7.43853 12Z" fill="#000000" />
<path fill-rule="evenodd" clip-rule="evenodd" d="M11.8382 7.62344C12.0884 7.45885 12.4125 7.45885 12.6627 7.62344L18.3623 11.3733C18.5732 11.512 18.7001 11.7475 18.7001 11.9998C18.7001 12.2522 18.5732 12.4877 18.3623 12.6264L12.6627 16.3762C12.4125 16.5408 12.0884 16.5408 11.8382 16.3762L6.13856 12.6264C5.92772 12.4877 5.80078 12.2522 5.80078 11.9998C5.80078 11.7475 5.92772 11.512 6.13856 11.3733L11.8382 7.62344ZM7.91536 11.9998L12.2505 14.8519L16.5856 11.9998L12.2505 9.14776L7.91536 11.9998Z" fill="#000000" />
<path fill-rule="evenodd" clip-rule="evenodd" d="M12.25 2.62891C12.6642 2.62891 13 2.96469 13 3.37891V8.24669C13 8.6609 12.6642 8.99669 12.25 8.99669C11.8358 8.99669 11.5 8.6609 11.5 8.24669V3.37891C11.5 2.96469 11.8358 2.62891 12.25 2.62891ZM12.25 15.0039C12.6642 15.0039 13 15.3397 13 15.7539V20.6217C13 21.0359 12.6642 21.3717 12.25 21.3717C11.8358 21.3717 11.5 21.0359 11.5 20.6217V15.7539C11.5 15.3397 11.8358 15.0039 12.25 15.0039Z" fill="#000000" />
</svg>