<svg width="24px"  height="24px"  viewBox="0 0 25 24" fill="none" xmlns="http://www.w3.org/2000/svg">
<path fill-rule="evenodd" clip-rule="evenodd" d="M12.2496 2.25C12.4863 2.25 12.709 2.36168 12.8506 2.55129L19.0182 10.8117C19.1418 10.9773 19.1917 11.1866 19.1559 11.3901C19.1202 11.5937 19.0021 11.7734 18.8294 11.887L12.6618 15.9443C12.4117 16.1088 12.0876 16.1088 11.8374 15.9443L5.66985 11.887C5.4972 11.7734 5.37907 11.5937 5.34333 11.3901C5.3076 11.1866 5.35743 10.9773 5.48107 10.8117L11.6487 2.55129C11.7902 2.36168 12.013 2.25 12.2496 2.25ZM7.15923 11.0713L12.2496 14.42L17.34 11.0713L12.2496 4.2536L7.15923 11.0713Z" fill="#000000" />
<path fill-rule="evenodd" clip-rule="evenodd" d="M5.68088 10.6262C6.03082 10.4046 6.49416 10.5087 6.71576 10.8586L12.2497 19.5976L17.7837 10.8586C18.0053 10.5087 18.4686 10.4046 18.8186 10.6262C19.1685 10.8478 19.2726 11.3112 19.051 11.6611L12.8834 21.4007C12.7459 21.6178 12.5067 21.7494 12.2497 21.7494C11.9927 21.7494 11.7536 21.6178 11.6161 21.4007L5.44849 11.6611C5.22688 11.3112 5.33093 10.8478 5.68088 10.6262Z" fill="#000000" />
<path fill-rule="evenodd" clip-rule="evenodd" d="M12.2501 2.25C12.6643 2.25 13.0001 2.58579 13.0001 3.00001L13 20.5941C13 21.0083 12.6642 21.3441 12.25 21.344C11.8358 21.344 11.5 21.0083 11.5 20.594L11.5001 2.99999C11.5001 2.58578 11.8359 2.25 12.2501 2.25Z" fill="#000000" />
</svg>