<svg width="24px"  height="24px"  viewBox="0 0 25 24" fill="none" xmlns="http://www.w3.org/2000/svg">
<path fill-rule="evenodd" clip-rule="evenodd" d="M12.25 3.75C7.69329 3.75 4 7.44329 4 12C4 16.5567 7.69329 20.25 12.25 20.25C16.8067 20.25 20.5 16.5567 20.5 12C20.5 7.44329 16.8067 3.75 12.25 3.75ZM2.5 12C2.5 6.61487 6.86487 2.25 12.25 2.25C17.6351 2.25 22 6.61487 22 12C22 17.3851 17.6351 21.75 12.25 21.75C6.86487 21.75 2.5 17.3851 2.5 12Z" fill="#000000" />
<path fill-rule="evenodd" clip-rule="evenodd" d="M12.2494 6.29492C12.5101 6.29492 12.752 6.43024 12.8885 6.65232L16.218 12.0718C16.3784 12.3328 16.3638 12.6652 16.1813 12.9113L12.8517 17.3986C12.7103 17.5893 12.4869 17.7017 12.2494 17.7017C12.012 17.7017 11.7886 17.5893 11.6471 17.3986L8.31761 12.9113C8.13504 12.6652 8.1205 12.3328 8.28089 12.0718L11.6104 6.65232C11.7468 6.43024 11.9888 6.29492 12.2494 6.29492ZM9.82447 12.4248L12.2494 15.6931L14.6744 12.4248L12.2494 8.47768L9.82447 12.4248Z" fill="#000000" />
<path fill-rule="evenodd" clip-rule="evenodd" d="M8.22759 12.1771C8.3866 11.7946 8.82557 11.6135 9.20804 11.7725L12.2487 13.0367L15.2904 11.7728C15.6729 11.6138 16.1118 11.795 16.2708 12.1775C16.4297 12.56 16.2485 12.999 15.866 13.1579L12.5365 14.5415C12.3522 14.6181 12.145 14.6181 11.9607 14.5414L8.63219 13.1576C8.24972 12.9986 8.06857 12.5596 8.22759 12.1771Z" fill="#000000" />
</svg>