<svg width="24px"  height="24px"  viewBox="0 0 25 24" fill="none" xmlns="http://www.w3.org/2000/svg">
<path d="M16.466 21.75H8.03201C4.72301 21.75 2.5 19.429 2.5 15.974V8.02698C2.5 4.57198 4.72301 2.25 8.03201 2.25H16.467C19.776 2.25 22 4.57198 22 8.02698V15.974C22 19.429 19.776 21.75 16.466 21.75ZM8.03201 3.75C5.58301 3.75 4 5.42898 4 8.02698V15.974C4 18.574 5.58301 20.25 8.03201 20.25H16.466C18.917 20.25 20.5 18.572 20.5 15.974V8.02698C20.5 5.42698 18.917 3.75 16.467 3.75H8.03201Z" fill="#000000" />
<path d="M9.87164 17.0413C9.45217 17.0395 9.04049 16.9277 8.67764 16.7173C8.58734 16.671 8.50735 16.6069 8.44253 16.5288C8.37772 16.4508 8.32941 16.3604 8.30054 16.2631C8.27167 16.1659 8.26283 16.0638 8.27457 15.963C8.2863 15.8622 8.31836 15.7649 8.3688 15.6768C8.41925 15.5888 8.48703 15.5119 8.56805 15.4508C8.64907 15.3898 8.74166 15.3458 8.84018 15.3215C8.93869 15.2972 9.04112 15.2932 9.14123 15.3097C9.24135 15.3261 9.33708 15.3627 9.42264 15.4173C9.59551 15.5312 9.80609 15.5731 10.0094 15.5338C10.2127 15.4946 10.3926 15.3774 10.5106 15.2072C10.7846 14.7356 10.9697 14.2177 11.0566 13.6793C11.0986 13.4993 11.1406 13.3203 11.1866 13.1503L11.8576 10.4743C11.9026 10.3073 11.9406 10.1443 11.9796 9.97427C12.1038 9.23889 12.3737 8.53577 12.7736 7.90628C13.1107 7.43972 13.6104 7.11647 14.1742 7.00039C14.7379 6.88431 15.3247 6.98382 15.8186 7.27926C15.904 7.32825 15.9789 7.39354 16.039 7.47146C16.0991 7.54938 16.1433 7.63843 16.169 7.73343C16.1947 7.82842 16.2015 7.92751 16.1889 8.02511C16.1763 8.12272 16.1446 8.21691 16.0956 8.30227C16.0467 8.38763 15.9813 8.46249 15.9034 8.52261C15.8255 8.58273 15.7365 8.62689 15.6415 8.65261C15.5465 8.67834 15.4474 8.6851 15.3498 8.67251C15.2522 8.65992 15.158 8.62823 15.0726 8.57925C14.8998 8.46585 14.6895 8.42437 14.4865 8.46359C14.2835 8.5028 14.1038 8.61964 13.9856 8.78927C13.7115 9.26084 13.5265 9.7788 13.4396 10.3173C13.3976 10.4983 13.3556 10.6763 13.3106 10.8473L12.6386 13.5233C12.5936 13.6903 12.5556 13.8533 12.5166 14.0233C12.3925 14.7582 12.1229 15.4609 11.7236 16.0903C11.5126 16.3845 11.2346 16.6241 10.9125 16.7895C10.5905 16.9549 10.2337 17.0412 9.87164 17.0413Z" fill="#000000" />
<path d="M14.2426 14.2348C14.1956 14.2348 14.1488 14.2305 14.1026 14.2218L10.1196 13.4708C9.92483 13.4332 9.75288 13.32 9.64139 13.1559C9.52989 12.9918 9.48795 12.7903 9.52472 12.5954C9.56148 12.4004 9.67396 12.228 9.83755 12.1158C10.0011 12.0036 10.2025 11.9609 10.3976 11.9968L14.3806 12.7478C14.5641 12.7824 14.7281 12.8842 14.8405 13.0334C14.9529 13.1825 15.0056 13.3682 14.9884 13.5541C14.9711 13.74 14.8851 13.9128 14.7472 14.0387C14.6093 14.1646 14.4293 14.2345 14.2426 14.2348Z" fill="#000000" />
<path d="M14.241 12.0172C14.194 12.0173 14.1472 12.0129 14.101 12.0042L10.118 11.2532C10.0209 11.2353 9.92824 11.1984 9.84542 11.1446C9.76259 11.0908 9.69122 11.0212 9.63536 10.9398C9.57951 10.8583 9.54031 10.7667 9.51998 10.67C9.49965 10.5734 9.49859 10.4737 9.51689 10.3766C9.5352 10.2796 9.5725 10.1871 9.62664 10.1045C9.68077 10.0219 9.75067 9.95081 9.83235 9.8953C9.91404 9.83979 10.0059 9.80097 10.1026 9.78104C10.1993 9.76112 10.299 9.7605 10.396 9.77921L14.379 10.5302C14.5625 10.5648 14.7265 10.6667 14.8389 10.8158C14.9513 10.9649 15.004 11.1506 14.9868 11.3365C14.9695 11.5225 14.8835 11.6953 14.7456 11.8211C14.6077 11.947 14.4278 12.0169 14.241 12.0172Z" fill="#000000" />
</svg>