<svg width="24px"  height="24px"  viewBox="0 0 25 24" fill="none" xmlns="http://www.w3.org/2000/svg">
<path fill-rule="evenodd" clip-rule="evenodd" d="M3.9902 3.89737C4.97468 2.84117 6.37669 2.25 8.03216 2.25H16.4669C18.1262 2.25 19.5288 2.84084 20.5129 3.89765C21.4913 4.94841 22 6.39889 22 8.02638V15.9736C22 17.6011 21.4913 19.0516 20.5127 20.1024C19.5285 21.1592 18.1256 21.75 16.4659 21.75H8.03216C6.3728 21.75 4.97038 21.1591 3.98657 20.1023C3.00842 19.0515 2.5 17.601 2.5 15.9736V8.02638C2.5 6.39806 3.01117 4.94771 3.9902 3.89737ZM5.08745 4.92012C4.41024 5.64666 4 6.70951 4 8.02638V15.9736C4 17.2914 4.40861 18.3541 5.08451 19.0802C5.75475 19.8003 6.74341 20.25 8.03216 20.25H16.4659C17.7552 20.25 18.7444 19.8002 19.415 19.0801C20.0912 18.354 20.5 17.2913 20.5 15.9736V8.02638C20.5 6.70868 20.0912 5.64597 19.4151 4.91984C18.7446 4.19975 17.7556 3.75 16.4669 3.75H8.03216C6.74828 3.75 5.75921 4.19943 5.08745 4.92012Z" fill="#000000" />
<path fill-rule="evenodd" clip-rule="evenodd" d="M9.41797 9.12261C9.41797 7.62062 10.6362 6.40234 12.1382 6.40234C13.6402 6.40234 14.8585 7.62062 14.8585 9.12261C14.8585 10.6246 13.6402 11.8429 12.1382 11.8429C10.6362 11.8429 9.41797 10.6246 9.41797 9.12261ZM12.1382 7.90234C11.4647 7.90234 10.918 8.44904 10.918 9.12261C10.918 9.79618 11.4647 10.3429 12.1382 10.3429C12.8118 10.3429 13.3585 9.79618 13.3585 9.12261C13.3585 8.44904 12.8118 7.90234 12.1382 7.90234Z" fill="#000000" />
<path fill-rule="evenodd" clip-rule="evenodd" d="M14.8259 6.10705C15.1389 6.37832 15.1728 6.85199 14.9015 7.16502L14.0355 8.16426C13.7643 8.47729 13.2906 8.51114 12.9776 8.23987C12.6646 7.9686 12.6307 7.49493 12.902 7.18191L13.7679 6.18266C14.0392 5.86964 14.5129 5.83579 14.8259 6.10705Z" fill="#000000" />
<path fill-rule="evenodd" clip-rule="evenodd" d="M9.41797 15.357C9.41797 13.855 10.6362 12.6367 12.1382 12.6367C13.6402 12.6367 14.8585 13.855 14.8585 15.357C14.8585 16.859 13.6402 18.0773 12.1382 18.0773C10.6362 18.0773 9.41797 16.859 9.41797 15.357ZM12.1382 14.1367C11.4647 14.1367 10.918 14.6834 10.918 15.357C10.918 16.0306 11.4647 16.5773 12.1382 16.5773C12.8118 16.5773 13.3585 16.0306 13.3585 15.357C13.3585 14.6834 12.8118 14.1367 12.1382 14.1367Z" fill="#000000" />
<path fill-rule="evenodd" clip-rule="evenodd" d="M12.1387 10.3438C12.5529 10.3438 12.8887 10.6795 12.8887 11.0938V13.3873C12.8887 13.8015 12.5529 14.1373 12.1387 14.1373C11.7245 14.1373 11.3887 13.8015 11.3887 13.3873V11.0938C11.3887 10.6795 11.7245 10.3438 12.1387 10.3438Z" fill="#000000" />
</svg>