<svg width="24px"  height="24px"  viewBox="0 0 25 24" fill="none" xmlns="http://www.w3.org/2000/svg">
<path fill-rule="evenodd" clip-rule="evenodd" d="M12.25 3.75C7.69329 3.75 4 7.44329 4 12C4 16.5567 7.69329 20.25 12.25 20.25C16.8067 20.25 20.5 16.5567 20.5 12C20.5 7.44329 16.8067 3.75 12.25 3.75ZM2.5 12C2.5 6.61487 6.86487 2.25 12.25 2.25C17.6351 2.25 22 6.61487 22 12C22 17.3851 17.6351 21.75 12.25 21.75C6.86487 21.75 2.5 17.3851 2.5 12Z" fill="#000000" />
<path fill-rule="evenodd" clip-rule="evenodd" d="M9.52148 9.26653C9.52148 7.81953 10.6945 6.64453 12.1425 6.64453C13.5912 6.64453 14.7645 7.81927 14.7645 9.26653C14.7645 10.7138 13.5912 11.8885 12.1425 11.8885C10.6945 11.8885 9.52148 10.7135 9.52148 9.26653ZM12.1425 8.14453C11.5239 8.14453 11.0215 8.64694 11.0215 9.26653C11.0215 9.88612 11.5239 10.3885 12.1425 10.3885C12.7623 10.3885 13.2645 9.88587 13.2645 9.26653C13.2645 8.64719 12.7623 8.14453 12.1425 8.14453Z" fill="#000000" />
<path fill-rule="evenodd" clip-rule="evenodd" d="M9.52148 15.1884C9.52148 13.7414 10.6945 12.5664 12.1425 12.5664C13.5912 12.5664 14.7645 13.7411 14.7645 15.1884C14.7645 16.6357 13.5912 17.8104 12.1425 17.8104C10.6945 17.8104 9.52148 16.6354 9.52148 15.1884ZM12.1425 14.0664C11.5239 14.0664 11.0215 14.5688 11.0215 15.1884C11.0215 15.808 11.5239 16.3104 12.1425 16.3104C12.7623 16.3104 13.2645 15.8077 13.2645 15.1884C13.2645 14.5691 12.7623 14.0664 12.1425 14.0664Z" fill="#000000" />
<path fill-rule="evenodd" clip-rule="evenodd" d="M14.7206 6.37274C15.0336 6.64404 15.0674 7.11771 14.7961 7.43071L13.973 8.38033C13.7017 8.69332 13.228 8.72712 12.915 8.45581C12.602 8.18451 12.5682 7.71084 12.8395 7.39784L13.6627 6.44822C13.934 6.13523 14.4076 6.10143 14.7206 6.37274Z" fill="#000000" />
<path fill-rule="evenodd" clip-rule="evenodd" d="M12.1426 10.3887C12.5568 10.3887 12.8926 10.7245 12.8926 11.1387V13.3171C12.8926 13.7313 12.5568 14.0671 12.1426 14.0671C11.7284 14.0671 11.3926 13.7313 11.3926 13.3171V11.1387C11.3926 10.7245 11.7284 10.3887 12.1426 10.3887Z" fill="#000000" />
</svg>