<svg width="24px"  height="24px"  viewBox="0 0 25 24" fill="none" xmlns="http://www.w3.org/2000/svg">
<path d="M12.25 21.75C10.3216 21.75 8.43657 21.1782 6.83319 20.1068C5.22981 19.0355 3.98013 17.5127 3.24217 15.7312C2.50422 13.9496 2.31114 11.9892 2.68735 10.0979C3.06356 8.20655 3.99215 6.46927 5.35572 5.10571C6.71928 3.74215 8.45656 2.81355 10.3479 2.43735C12.2392 2.06114 14.1996 2.25423 15.9812 2.99219C17.7628 3.73014 19.2855 4.97981 20.3568 6.58319C21.4282 8.18657 22 10.0716 22 12C21.9971 14.585 20.9689 17.0632 19.1411 18.8911C17.3132 20.7189 14.835 21.7471 12.25 21.75ZM12.25 3.75C10.6183 3.75 9.02326 4.23386 7.66655 5.14038C6.30985 6.0469 5.25242 7.33537 4.62799 8.84286C4.00357 10.3504 3.8402 12.0092 4.15853 13.6095C4.47685 15.2098 5.26259 16.6799 6.41637 17.8336C7.57015 18.9874 9.04016 19.7732 10.6405 20.0915C12.2408 20.4098 13.8996 20.2464 15.4071 19.622C16.9146 18.9976 18.2031 17.9402 19.1096 16.5835C20.0161 15.2268 20.5 13.6317 20.5 12C20.4976 9.81269 19.6277 7.71566 18.081 6.169C16.5343 4.62235 14.4373 3.75238 12.25 3.75Z" fill="#000000" />
<path d="M9.40263 17.0637C8.78293 17.0556 8.19087 16.8059 7.75264 16.3677C7.31441 15.9294 7.06467 15.3374 7.05664 14.7177C7.05664 12.7597 8.92763 11.7177 10.6776 11.3947C11.1879 11.3148 11.7025 11.2657 12.2186 11.2477C12.6276 11.2237 13.0346 11.2017 13.3846 11.1477C13.9547 11.0635 14.5068 10.8854 15.0186 10.6207C15.2872 10.5121 15.5182 10.3273 15.6829 10.089C15.8477 9.85066 15.939 9.56932 15.9456 9.27968C15.9365 9.05058 15.8385 8.83404 15.6723 8.67607C15.5061 8.51811 15.2849 8.43115 15.0556 8.43367V6.93367C15.6834 6.92861 16.2876 7.17274 16.7357 7.61253C17.1837 8.05233 17.439 8.65189 17.4456 9.27968C17.4378 9.8432 17.2707 10.393 16.9637 10.8656C16.6567 11.3382 16.2223 11.7144 15.7106 11.9507C15.0527 12.2913 14.3432 12.5213 13.6106 12.6317C13.2196 12.6897 12.7666 12.7177 12.3106 12.7437C11.8566 12.76 11.4039 12.802 10.9546 12.8697C10.5546 12.9427 8.56264 13.3777 8.56264 14.7167C8.56821 14.9393 8.65913 15.1513 8.81659 15.3087C8.97405 15.4662 9.18601 15.5571 9.40863 15.5627L9.40263 17.0637Z" fill="#000000" />
<path d="M9.53264 17.0626C8.87621 17.0618 8.24688 16.8007 7.78271 16.3365C7.31855 15.8723 7.05743 15.243 7.05664 14.5866V9.40961C7.05664 8.75293 7.31749 8.12312 7.78183 7.65878C8.24617 7.19444 8.87596 6.93359 9.53264 6.93359C10.1893 6.93359 10.8191 7.19444 11.2834 7.65878C11.7478 8.12312 12.0086 8.75293 12.0086 9.40961V14.5866C12.0078 15.243 11.7467 15.8723 11.2825 16.3365C10.8184 16.8007 10.1891 17.0618 9.53264 17.0626ZM9.53264 8.43359C9.27387 8.43386 9.02577 8.53678 8.84279 8.71976C8.65981 8.90274 8.55691 9.15084 8.55664 9.40961V14.5866C8.55664 14.8455 8.65946 15.0937 8.8425 15.2767C9.02553 15.4598 9.27379 15.5626 9.53264 15.5626C9.79149 15.5626 10.0397 15.4598 10.2228 15.2767C10.4058 15.0937 10.5086 14.8455 10.5086 14.5866V9.40961C10.5084 9.15084 10.4055 8.90274 10.2225 8.71976C10.0395 8.53678 9.79141 8.43386 9.53264 8.43359Z" fill="#000000" />
<path d="M14.9682 17.0626C14.3118 17.0618 13.6824 16.8007 13.2183 16.3365C12.7541 15.8723 12.493 15.243 12.4922 14.5866V9.40961C12.4922 8.75293 12.7531 8.12312 13.2174 7.65878C13.6817 7.19444 14.3115 6.93359 14.9682 6.93359C15.6249 6.93359 16.2546 7.19444 16.719 7.65878C17.1833 8.12312 17.4442 8.75293 17.4442 9.40961V14.5866C17.4434 15.243 17.1823 15.8723 16.7181 16.3365C16.2539 16.8007 15.6246 17.0618 14.9682 17.0626ZM14.9682 8.43359C14.7094 8.43386 14.4613 8.53678 14.2783 8.71976C14.0954 8.90274 13.9925 9.15084 13.9922 9.40961V14.5866C13.9922 14.8455 14.095 15.0937 14.278 15.2767C14.4611 15.4598 14.7093 15.5626 14.9682 15.5626C15.227 15.5626 15.4753 15.4598 15.6583 15.2767C15.8414 15.0937 15.9442 14.8455 15.9442 14.5866V9.40961C15.9439 9.15084 15.841 8.90274 15.658 8.71976C15.475 8.53678 15.227 8.43386 14.9682 8.43359Z" fill="#000000" />
</svg>