<svg width="24px"  height="24px"  viewBox="0 0 25 24" fill="none" xmlns="http://www.w3.org/2000/svg">
<path d="M16.466 21.75H8.032C4.723 21.75 2.5 19.429 2.5 15.974V8.02701C2.5 4.57201 4.723 2.25 8.032 2.25H16.467C19.776 2.25 22 4.57201 22 8.02701V15.974C22 19.429 19.776 21.75 16.466 21.75ZM8.032 3.75C5.583 3.75 4 5.42901 4 8.02701V15.974C4 18.574 5.583 20.25 8.032 20.25H16.466C18.917 20.25 20.5 18.572 20.5 15.974V8.02701C20.5 5.42701 18.917 3.75 16.467 3.75H8.032Z" fill="#000000" />
<path d="M9.125 17.4857C8.46486 17.4764 7.83436 17.21 7.36752 16.7432C6.90068 16.2763 6.63431 15.6459 6.625 14.9857C6.625 12.8797 8.648 11.7577 10.54 11.4097C11.0979 11.3224 11.6606 11.2686 12.225 11.2487C12.676 11.2227 13.125 11.1987 13.509 11.1407C14.1424 11.0459 14.7559 10.8476 15.325 10.5537C15.629 10.4241 15.8899 10.2106 16.0773 9.93831C16.2646 9.666 16.3706 9.346 16.383 9.01571C16.3724 8.74522 16.2568 8.48953 16.0607 8.30285C15.8647 8.11616 15.6037 8.01316 15.333 8.01571V6.51571C16.0023 6.51037 16.6464 6.77047 17.1244 7.23903C17.6023 7.7076 17.8751 8.34644 17.883 9.01571C17.8743 9.62124 17.6944 10.212 17.3642 10.7197C17.0341 11.2273 16.567 11.6312 16.017 11.8847C15.3004 12.2551 14.5278 12.5051 13.73 12.6247C13.304 12.6877 12.81 12.7177 12.311 12.7457C11.8087 12.7633 11.3079 12.8101 10.811 12.8857C10.181 13.0007 8.125 13.4947 8.125 14.9857C8.13207 15.2487 8.23969 15.499 8.42572 15.685C8.61175 15.871 8.86202 15.9786 9.125 15.9857V17.4857Z" fill="#000000" />
<path d="M9.26659 17.4854C8.56551 17.4846 7.89336 17.2058 7.39753 16.7101C6.90169 16.2145 6.62265 15.5424 6.62159 14.8414V9.15735C6.61476 8.80574 6.67811 8.45632 6.80793 8.12949C6.93776 7.80265 7.13146 7.50498 7.3777 7.25391C7.62394 7.00283 7.91778 6.80339 8.24203 6.66724C8.56628 6.53108 8.91442 6.46094 9.26609 6.46094C9.61777 6.46094 9.96591 6.53108 10.2902 6.66724C10.6144 6.80339 10.9082 7.00283 11.1545 7.25391C11.4007 7.50498 11.5944 7.80265 11.7243 8.12949C11.8541 8.45632 11.9174 8.80574 11.9106 9.15735V14.8414C11.9098 15.5424 11.631 16.2144 11.1353 16.7101C10.6396 17.2058 9.96758 17.4846 9.26659 17.4854ZM9.26659 8.01135C8.96291 8.01188 8.67183 8.13283 8.45719 8.34766C8.24254 8.56249 8.12186 8.85366 8.12159 9.15735V14.8414C8.13039 15.1391 8.25483 15.4216 8.46851 15.629C8.68218 15.8365 8.96828 15.9525 9.26609 15.9525C9.56391 15.9525 9.85 15.8365 10.0637 15.629C10.2774 15.4216 10.4018 15.1391 10.4106 14.8414V9.15735C10.4103 8.85384 10.2898 8.56282 10.0754 8.34802C9.86092 8.13322 9.5701 8.01215 9.26659 8.01135Z" fill="#000000" />
<path d="M15.2338 17.4837C14.5329 17.4829 13.8608 17.2041 13.3651 16.7084C12.8695 16.2128 12.5906 15.5407 12.5898 14.8397V9.1557C12.5898 8.45447 12.8684 7.78198 13.3643 7.28613C13.8601 6.79029 14.5326 6.51172 15.2338 6.51172C15.9351 6.51172 16.6076 6.79029 17.1034 7.28613C17.5993 7.78198 17.8778 8.45447 17.8778 9.1557V14.8397C17.8771 15.5407 17.5982 16.2128 17.1026 16.7084C16.6069 17.2041 15.9348 17.4829 15.2338 17.4837ZM15.2338 8.0097C14.9303 8.0105 14.6395 8.13157 14.4251 8.34637C14.2107 8.56118 14.0901 8.85219 14.0898 9.1557V14.8397C14.0898 15.1431 14.2104 15.4341 14.4249 15.6487C14.6395 15.8632 14.9304 15.9837 15.2338 15.9837C15.5373 15.9837 15.8282 15.8632 16.0428 15.6487C16.2573 15.4341 16.3778 15.1431 16.3778 14.8397V9.1557C16.3778 8.85211 16.2574 8.56093 16.0429 8.34607C15.8284 8.13121 15.5374 8.01023 15.2338 8.0097Z" fill="#000000" />
</svg>