<svg width="24px"  height="24px"  viewBox="0 0 25 24" fill="none" xmlns="http://www.w3.org/2000/svg">
<path fill-rule="evenodd" clip-rule="evenodd" d="M3.9902 3.89737C4.97468 2.84117 6.37669 2.25 8.03216 2.25H16.4669C18.1262 2.25 19.5288 2.84084 20.5129 3.89765C21.4913 4.94841 22 6.39889 22 8.02638V15.9736C22 17.6011 21.4913 19.0516 20.5127 20.1024C19.5285 21.1592 18.1256 21.75 16.4659 21.75H8.03216C6.3728 21.75 4.97038 21.1591 3.98657 20.1023C3.00842 19.0515 2.5 17.601 2.5 15.9736V8.02638C2.5 6.39806 3.01117 4.94771 3.9902 3.89737ZM5.08745 4.92012C4.41024 5.64666 4 6.70951 4 8.02638V15.9736C4 17.2914 4.40861 18.3541 5.08451 19.0802C5.75475 19.8003 6.74341 20.25 8.03216 20.25H16.4659C17.7552 20.25 18.7444 19.8002 19.415 19.0801C20.0912 18.354 20.5 17.2913 20.5 15.9736V8.02638C20.5 6.70868 20.0912 5.64597 19.4151 4.91984C18.7446 4.19975 17.7556 3.75 16.4669 3.75H8.03216C6.74828 3.75 5.75921 4.19943 5.08745 4.92012Z" fill="#000000" />
<path fill-rule="evenodd" clip-rule="evenodd" d="M8.65039 6.98633C9.0646 6.98633 9.40039 7.32211 9.40039 7.73633V16.2625C9.40039 16.6767 9.0646 17.0125 8.65039 17.0125C8.23618 17.0125 7.90039 16.6767 7.90039 16.2625V7.73633C7.90039 7.32211 8.23618 6.98633 8.65039 6.98633Z" fill="#000000" />
<path fill-rule="evenodd" clip-rule="evenodd" d="M15.8496 6.98633C16.2638 6.98633 16.5996 7.32211 16.5996 7.73633V16.2625C16.5996 16.6767 16.2638 17.0125 15.8496 17.0125C15.4354 17.0125 15.0996 16.6767 15.0996 16.2625V7.73633C15.0996 7.32211 15.4354 6.98633 15.8496 6.98633Z" fill="#000000" />
<path fill-rule="evenodd" clip-rule="evenodd" d="M7.90039 13.5273C7.90039 13.1131 8.23618 12.7773 8.65039 12.7773H15.8504C16.2646 12.7773 16.6004 13.1131 16.6004 13.5273C16.6004 13.9416 16.2646 14.2773 15.8504 14.2773H8.65039C8.23618 14.2773 7.90039 13.9416 7.90039 13.5273Z" fill="#000000" />
<path fill-rule="evenodd" clip-rule="evenodd" d="M7.90039 10.4746C7.90039 10.0604 8.23618 9.72461 8.65039 9.72461H15.8504C16.2646 9.72461 16.6004 10.0604 16.6004 10.4746C16.6004 10.8888 16.2646 11.2246 15.8504 11.2246H8.65039C8.23618 11.2246 7.90039 10.8888 7.90039 10.4746Z" fill="#000000" />
</svg>