<svg width="24px"  height="24px"  viewBox="0 0 25 24" fill="none" xmlns="http://www.w3.org/2000/svg">
<path fill-rule="evenodd" clip-rule="evenodd" d="M3.9902 3.89737C4.97468 2.84117 6.37669 2.25 8.03216 2.25H16.4669C18.1262 2.25 19.5288 2.84084 20.5129 3.89765C21.4913 4.94841 22 6.39889 22 8.02638V15.9736C22 17.6011 21.4913 19.0516 20.5127 20.1024C19.5285 21.1592 18.1256 21.75 16.4659 21.75H8.03216C6.3728 21.75 4.97038 21.1591 3.98657 20.1023C3.00842 19.0515 2.5 17.601 2.5 15.9736V8.02638C2.5 6.39806 3.01117 4.94771 3.9902 3.89737ZM5.08745 4.92012C4.41024 5.64666 4 6.70951 4 8.02638V15.9736C4 17.2914 4.40861 18.3541 5.08451 19.0802C5.75475 19.8003 6.74341 20.25 8.03216 20.25H16.4659C17.7552 20.25 18.7444 19.8002 19.415 19.0801C20.0912 18.354 20.5 17.2913 20.5 15.9736V8.02638C20.5 6.70868 20.0912 5.64597 19.4151 4.91984C18.7446 4.19975 17.7556 3.75 16.4669 3.75H8.03216C6.74828 3.75 5.75921 4.19943 5.08745 4.92012Z" fill="#000000" />
<path fill-rule="evenodd" clip-rule="evenodd" d="M7.46289 9.01953C7.46289 8.60532 7.79868 8.26953 8.21289 8.26953C10.2724 8.26953 11.9421 9.93926 11.9421 11.9988C11.9421 14.0586 10.2721 15.727 8.21289 15.727C7.79868 15.727 7.46289 15.3913 7.46289 14.977C7.46289 14.5628 7.79868 14.227 8.21289 14.227C9.44429 14.227 10.4421 13.2295 10.4421 11.9988C10.4421 10.7677 9.44397 9.76953 8.21289 9.76953C7.79868 9.76953 7.46289 9.43374 7.46289 9.01953Z" fill="#000000" />
<path fill-rule="evenodd" clip-rule="evenodd" d="M12.5586 11.9988C12.5586 9.93926 14.2283 8.26953 16.2878 8.26953C16.7021 8.26953 17.0378 8.60532 17.0378 9.01953C17.0378 9.43374 16.7021 9.76953 16.2878 9.76953C15.0568 9.76953 14.0586 10.7677 14.0586 11.9988C14.0586 13.2295 15.0564 14.227 16.2878 14.227C16.7021 14.227 17.0378 14.5628 17.0378 14.977C17.0378 15.3913 16.7021 15.727 16.2878 15.727C14.2286 15.727 12.5586 14.0586 12.5586 11.9988Z" fill="#000000" />
<path fill-rule="evenodd" clip-rule="evenodd" d="M9.12695 12C9.12695 11.5858 9.46274 11.25 9.87695 11.25H14.6221C15.0364 11.25 15.3721 11.5858 15.3721 12C15.3721 12.4142 15.0364 12.75 14.6221 12.75H9.87695C9.46274 12.75 9.12695 12.4142 9.12695 12Z" fill="#000000" />
</svg>