<svg width="24px"  height="24px"  viewBox="0 0 25 24" fill="none" xmlns="http://www.w3.org/2000/svg">
<path fill-rule="evenodd" clip-rule="evenodd" d="M3.9902 3.89737C4.97468 2.84117 6.37669 2.25 8.03216 2.25H16.4669C18.1262 2.25 19.5288 2.84084 20.5129 3.89765C21.4913 4.94841 22 6.39889 22 8.02638V15.9736C22 17.6011 21.4913 19.0516 20.5127 20.1024C19.5285 21.1592 18.1256 21.75 16.4659 21.75H8.03216C6.3728 21.75 4.97038 21.1591 3.98657 20.1023C3.00842 19.0515 2.5 17.601 2.5 15.9736V8.02638C2.5 6.39806 3.01117 4.94771 3.9902 3.89737ZM5.08745 4.92012C4.41024 5.64666 4 6.70951 4 8.02638V15.9736C4 17.2914 4.40861 18.3541 5.08451 19.0802C5.75475 19.8003 6.74341 20.25 8.03216 20.25H16.4659C17.7552 20.25 18.7444 19.8002 19.415 19.0801C20.0912 18.354 20.5 17.2913 20.5 15.9736V8.02638C20.5 6.70868 20.0912 5.64597 19.4151 4.91984C18.7446 4.19975 17.7556 3.75 16.4669 3.75H8.03216C6.74828 3.75 5.75921 4.19943 5.08745 4.92012Z" fill="#000000" />
<path fill-rule="evenodd" clip-rule="evenodd" d="M12.2388 8.7832C10.3937 8.7832 8.90039 10.2786 8.90039 12.1129C8.90039 12.6108 9.00287 13.0725 9.19057 13.4701C9.36739 13.8447 9.20708 14.2917 8.8325 14.4685C8.45793 14.6453 8.01093 14.485 7.83411 14.1104C7.54505 13.4981 7.40039 12.8156 7.40039 12.1129C7.40039 9.4481 9.56739 7.2832 12.2388 7.2832C12.9337 7.2832 13.616 7.4282 14.2276 7.71692C14.6022 7.89374 14.7625 8.34074 14.5857 8.71531C14.4089 9.08989 13.9619 9.2502 13.5873 9.07338C13.189 8.88534 12.7271 8.7832 12.2388 8.7832Z" fill="#000000" />
<path fill-rule="evenodd" clip-rule="evenodd" d="M15.5879 9.65703C15.9597 9.47446 16.4091 9.62786 16.5917 9.99967C16.909 10.6458 17.0781 11.3603 17.0781 12.1127C17.0781 14.7861 14.9123 16.9521 12.2397 16.9521C11.489 16.9521 10.7631 16.7842 10.1208 16.4619C9.75059 16.2761 9.60108 15.8254 9.78686 15.4552C9.97265 15.0849 10.4234 14.9354 10.7936 15.1212C11.2177 15.334 11.7119 15.4521 12.2397 15.4521C14.0836 15.4521 15.5781 13.9579 15.5781 12.1127C15.5781 11.5886 15.4612 11.1005 15.2453 10.6608C15.0627 10.289 15.2161 9.8396 15.5879 9.65703Z" fill="#000000" />
<path fill-rule="evenodd" clip-rule="evenodd" d="M7.49609 15.9746C7.91031 15.9746 8.24609 16.3104 8.24609 16.7246V16.7346C8.24609 17.1488 7.91031 17.4846 7.49609 17.4846C7.08188 17.4846 6.74609 17.1488 6.74609 16.7346V16.7246C6.74609 16.3104 7.08188 15.9746 7.49609 15.9746Z" fill="#000000" />
<path fill-rule="evenodd" clip-rule="evenodd" d="M17.0059 6.46484C17.4201 6.46484 17.7559 6.80063 17.7559 7.21484V7.22484C17.7559 7.63906 17.4201 7.97484 17.0059 7.97484C16.5916 7.97484 16.2559 7.63906 16.2559 7.22484V7.21484C16.2559 6.80063 16.5916 6.46484 17.0059 6.46484Z" fill="#000000" />
</svg>