<svg width="24px"  height="24px"  viewBox="0 0 25 24" fill="none" xmlns="http://www.w3.org/2000/svg">
<path fill-rule="evenodd" clip-rule="evenodd" d="M3 20C3 19.3096 3.55964 18.75 4.25 18.75C4.94036 18.75 5.5 19.3096 5.5 20C5.5 20.6904 4.94036 21.25 4.25 21.25C3.55964 21.25 3 20.6904 3 20Z" fill="#000000" />
<path fill-rule="evenodd" clip-rule="evenodd" d="M19 4C19 3.30964 19.5596 2.75 20.25 2.75C20.9404 2.75 21.5 3.30964 21.5 4C21.5 4.69036 20.9404 5.25 20.25 5.25C19.5596 5.25 19 4.69036 19 4Z" fill="#000000" />
<path fill-rule="evenodd" clip-rule="evenodd" d="M12.2287 5.24414C8.36552 5.24414 5.23828 8.37278 5.23828 12.216C5.23828 13.2497 5.45216 14.2218 5.85275 15.0716C6.02937 15.4463 5.86882 15.8932 5.49415 16.0698C5.11948 16.2464 4.67257 16.0859 4.49595 15.7112C3.99492 14.6483 3.73828 13.456 3.73828 12.216C3.73828 7.54186 7.53959 3.74414 12.2287 3.74414C13.4516 3.74414 14.6439 3.99983 15.7064 4.50071C16.0811 4.67733 16.2417 5.12424 16.065 5.49891C15.8884 5.87359 15.4415 6.03414 15.0668 5.85752C14.2167 5.45677 13.2446 5.24414 12.2287 5.24414Z" fill="#000000" />
<path fill-rule="evenodd" clip-rule="evenodd" d="M18.8629 8.16692C19.2347 7.98421 19.6841 8.13745 19.8668 8.50919C20.4232 9.64116 20.7195 10.8913 20.7195 12.2135C20.7195 16.9039 16.9195 20.7039 12.2291 20.7039C10.9086 20.7039 9.63865 20.4088 8.51993 19.8488C8.14953 19.6634 7.99956 19.2128 8.18496 18.8424C8.37036 18.472 8.82093 18.322 9.19133 18.5075C10.0925 18.9585 11.1313 19.2039 12.2291 19.2039C16.0911 19.2039 19.2195 16.0754 19.2195 12.2135C19.2195 11.1196 18.9754 10.096 18.5207 9.17083C18.3379 8.79909 18.4912 8.34962 18.8629 8.16692Z" fill="#000000" />
</svg>