<svg width="24px"  height="24px"  viewBox="0 0 25 24" fill="none" xmlns="http://www.w3.org/2000/svg">
<path d="M14.7546 21.7471C14.0475 21.7487 13.3684 21.4713 12.8646 20.9752L8.0246 16.1251V18.6091C8.0246 19.2457 7.77174 19.8561 7.32166 20.3062C6.87157 20.7563 6.26112 21.0092 5.6246 21.0092C4.98808 21.0092 4.37764 20.7563 3.92755 20.3062C3.47746 19.8561 3.22461 19.2457 3.22461 18.6091V5.39612C3.22461 4.7596 3.47746 4.14918 3.92755 3.6991C4.37764 3.24901 4.98808 2.99615 5.6246 2.99615C6.26112 2.99615 6.87157 3.24901 7.32166 3.6991C7.77174 4.14918 8.0246 4.7596 8.0246 5.39612V7.86316L12.8616 3.03314C13.3645 2.53161 14.0458 2.25 14.7561 2.25C15.4664 2.25 16.1477 2.53161 16.6506 3.03314L20.6216 7.01514C20.8284 7.21768 20.9926 7.45947 21.1048 7.72632C21.2169 7.99316 21.2746 8.27971 21.2746 8.56915C21.2764 8.8631 21.2195 9.15443 21.1071 9.42609C20.9948 9.69775 20.8294 9.94424 20.6206 10.1511C20.1986 10.5516 19.6395 10.7755 19.0577 10.777C18.476 10.7785 17.9156 10.5574 17.4916 10.1591L14.7546 7.41412L10.1766 11.9921L14.7556 16.5721L17.2556 14.0721C17.6735 13.6594 18.2373 13.428 18.8246 13.428C19.412 13.428 19.9757 13.6594 20.3936 14.0721C20.6031 14.2758 20.7692 14.5196 20.8821 14.7891C20.995 15.0585 21.0523 15.348 21.0506 15.6401C21.0519 15.9315 20.9953 16.2203 20.884 16.4897C20.7728 16.759 20.6092 17.0036 20.4026 17.2092L16.6476 20.9741C16.1429 21.4708 15.4627 21.7486 14.7546 21.7471ZM7.2746 13.5632C7.37338 13.563 7.47124 13.5824 7.56253 13.6201C7.65382 13.6579 7.73676 13.7133 7.80661 13.7831L13.9236 19.9111C14.1475 20.1283 14.4472 20.2498 14.7591 20.2498C15.071 20.2498 15.3707 20.1283 15.5946 19.9111L19.3456 16.1501C19.4125 16.0832 19.4653 16.0036 19.5012 15.9161C19.5371 15.8285 19.5552 15.7347 19.5546 15.6401C19.5555 15.547 19.5374 15.4546 19.5015 15.3687C19.4656 15.2827 19.4125 15.205 19.3456 15.1401C19.2085 15.0041 19.0232 14.9279 18.8301 14.9279C18.637 14.9279 18.4517 15.0041 18.3146 15.1401L15.2866 18.1702C15.1433 18.3055 14.9537 18.3808 14.7566 18.3808C14.5595 18.3808 14.3699 18.3055 14.2266 18.1702L8.58661 12.5291C8.51691 12.4595 8.46164 12.3768 8.42392 12.2858C8.3862 12.1947 8.36676 12.0972 8.36676 11.9987C8.36676 11.9001 8.3862 11.8026 8.42392 11.7115C8.46164 11.6205 8.51691 11.5378 8.58661 11.4681L14.2266 5.83014C14.2961 5.76034 14.3787 5.70499 14.4696 5.66724C14.5606 5.62948 14.6581 5.61009 14.7566 5.61017C14.8552 5.61011 14.9528 5.62961 15.0438 5.66754C15.1347 5.70548 15.2173 5.76105 15.2866 5.83112L18.5436 9.09717C18.6812 9.2264 18.8628 9.29834 19.0516 9.29834C19.2404 9.29834 19.422 9.2264 19.5596 9.09717C19.6276 9.03017 19.6815 8.95027 19.7183 8.86218C19.755 8.7741 19.7738 8.67961 19.7736 8.58417C19.7743 8.49095 19.756 8.39857 19.7199 8.31262C19.6838 8.22668 19.6306 8.14897 19.5636 8.08417L15.5886 4.09613C15.3673 3.87562 15.0675 3.75183 14.7551 3.75183C14.4427 3.75183 14.143 3.87562 13.9216 4.09613L7.8046 10.2051C7.69952 10.3098 7.56582 10.381 7.42032 10.4098C7.27482 10.4386 7.12404 10.4236 6.98703 10.3668C6.85002 10.31 6.73289 10.214 6.65042 10.0907C6.56795 9.96742 6.52383 9.82245 6.52362 9.67413V5.39917C6.52362 5.16048 6.42879 4.93154 6.26001 4.76276C6.09123 4.59397 5.86229 4.49915 5.6236 4.49915C5.3849 4.49915 5.156 4.59397 4.98721 4.76276C4.81843 4.93154 4.7236 5.16048 4.7236 5.39917V18.6121C4.7236 18.8508 4.81843 19.0798 4.98721 19.2485C5.156 19.4173 5.3849 19.5121 5.6236 19.5121C5.86229 19.5121 6.09123 19.4173 6.26001 19.2485C6.42879 19.0798 6.52362 18.8508 6.52362 18.6121V14.3121C6.5236 14.1638 6.56758 14.0187 6.64999 13.8954C6.73241 13.772 6.84954 13.6759 6.9866 13.6191C7.07885 13.5811 7.17784 13.5621 7.27762 13.5632H7.2746Z" fill="#000000" />
<path d="M14.7105 14.0245C14.3106 14.0243 13.9198 13.9056 13.5875 13.6833C13.2551 13.461 12.9961 13.1452 12.8432 12.7758C12.6903 12.4063 12.6503 11.9999 12.7284 11.6077C12.8064 11.2156 12.999 10.8554 13.2817 10.5727C13.5644 10.29 13.9246 10.0974 14.3167 10.0194C14.7089 9.94131 15.1154 9.98131 15.4848 10.1342C15.8542 10.2871 16.17 10.5461 16.3923 10.8785C16.6145 11.2109 16.7332 11.6016 16.7334 12.0015C16.7332 12.5379 16.52 13.0523 16.1406 13.4317C15.7613 13.811 15.2469 14.0242 14.7105 14.0245ZM14.7105 11.4795C14.6073 11.4797 14.5064 11.5105 14.4207 11.5679C14.335 11.6254 14.2683 11.707 14.2289 11.8024C14.1895 11.8978 14.1793 12.0027 14.1996 12.1039C14.2199 12.2051 14.2697 12.298 14.3427 12.3709C14.4157 12.4438 14.5087 12.4934 14.61 12.5135C14.7112 12.5336 14.8161 12.5232 14.9115 12.4837C15.0068 12.4441 15.0882 12.3772 15.1456 12.2914C15.2029 12.2056 15.2334 12.1047 15.2334 12.0015C15.2334 11.9328 15.2199 11.8649 15.1936 11.8015C15.1673 11.7381 15.1288 11.6805 15.0802 11.632C15.0316 11.5835 14.974 11.5451 14.9105 11.5189C14.8471 11.4928 14.7791 11.4794 14.7105 11.4795Z" fill="#000000" />
</svg>