<svg width="24px"  height="24px"  viewBox="0 0 25 24" fill="none" xmlns="http://www.w3.org/2000/svg">
<path fill-rule="evenodd" clip-rule="evenodd" d="M10.266 2.79753C10.3568 2.47378 10.6519 2.25 10.9882 2.25H16.2037C16.4366 2.25 16.6563 2.3582 16.7982 2.54283C16.9402 2.72747 16.9883 2.96758 16.9285 3.19267L13.6466 15.5396H19.7362C19.9581 15.5396 20.1687 15.6379 20.3112 15.8081C20.4537 15.9783 20.5135 16.2028 20.4745 16.4214L19.6341 21.1317C19.5703 21.4895 19.2592 21.75 18.8958 21.75H5.94141C5.70672 21.75 5.48556 21.6401 5.34377 21.4531C5.20198 21.2661 5.1559 21.0235 5.21926 20.7975L10.266 2.79753ZM11.5568 3.75L6.93061 20.25H18.2678L18.8405 17.0396H12.6712C12.4383 17.0396 12.2186 16.9314 12.0766 16.7468C11.9346 16.5622 11.8865 16.322 11.9463 16.097L15.2283 3.75H11.5568Z" fill="#000000" />
<path fill-rule="evenodd" clip-rule="evenodd" d="M18.4532 10.595C18.5324 11.0016 18.267 11.3954 17.8605 11.4746L4.90722 13.998C4.50065 14.0772 4.10685 13.8118 4.02765 13.4052C3.94845 12.9986 4.21383 12.6048 4.6204 12.5256L17.5737 10.0023C17.9802 9.92306 18.374 10.1884 18.4532 10.595Z" fill="#000000" />
</svg>