<svg width="24px"  height="24px"  viewBox="0 0 25 24" fill="none" xmlns="http://www.w3.org/2000/svg">
<path fill-rule="evenodd" clip-rule="evenodd" d="M3.9902 3.89737C4.97468 2.84117 6.37669 2.25 8.03216 2.25H16.4669C18.1262 2.25 19.5288 2.84084 20.5129 3.89765C21.4913 4.94841 22 6.39889 22 8.02638V15.9736C22 17.6011 21.4913 19.0516 20.5127 20.1024C19.5285 21.1592 18.1256 21.75 16.4659 21.75H8.03216C6.3728 21.75 4.97038 21.1591 3.98657 20.1023C3.00842 19.0515 2.5 17.601 2.5 15.9736V8.02638C2.5 6.39806 3.01117 4.94771 3.9902 3.89737ZM5.08745 4.92012C4.41024 5.64666 4 6.70951 4 8.02638V15.9736C4 17.2914 4.40861 18.3541 5.08451 19.0802C5.75475 19.8003 6.74341 20.25 8.03216 20.25H16.4659C17.7552 20.25 18.7444 19.8002 19.415 19.0801C20.0912 18.354 20.5 17.2913 20.5 15.9736V8.02638C20.5 6.70868 20.0912 5.64597 19.4151 4.91984C18.7446 4.19975 17.7556 3.75 16.4669 3.75H8.03216C6.74828 3.75 5.75921 4.19943 5.08745 4.92012Z" fill="#000000" />
<path fill-rule="evenodd" clip-rule="evenodd" d="M12.9912 7.66542C13.3918 7.77067 13.6313 8.18075 13.526 8.58137L11.8768 14.8593H14.766C15.1802 14.8593 15.516 15.1951 15.516 15.6093C15.516 16.0235 15.1802 16.3593 14.766 16.3593H10.9043C10.6718 16.3593 10.4524 16.2514 10.3104 16.0673C10.1684 15.8832 10.1198 15.6436 10.1789 15.4187L12.0752 8.20025C12.1805 7.79963 12.5906 7.56018 12.9912 7.66542Z" fill="#000000" />
<path fill-rule="evenodd" clip-rule="evenodd" d="M14.5182 11.5632C14.615 11.9659 14.3669 12.3709 13.9642 12.4677L9.90786 13.4426C9.50512 13.5394 9.10016 13.2914 9.00336 12.8886C8.90656 12.4859 9.15458 12.0809 9.55733 11.9841L13.6137 11.0092C14.0164 10.9124 14.4214 11.1604 14.5182 11.5632Z" fill="#000000" />
</svg>