<svg width="24px"  height="24px"  viewBox="0 0 25 24" fill="none" xmlns="http://www.w3.org/2000/svg">
<path fill-rule="evenodd" clip-rule="evenodd" d="M3.9902 3.89737C4.97468 2.84117 6.37669 2.25 8.03216 2.25H16.4669C18.1262 2.25 19.5288 2.84084 20.5129 3.89765C21.4913 4.94841 22 6.39889 22 8.02638V15.9736C22 17.6011 21.4913 19.0516 20.5127 20.1024C19.5285 21.1592 18.1256 21.75 16.4659 21.75H8.03216C6.3728 21.75 4.97038 21.1591 3.98657 20.1023C3.00842 19.0515 2.5 17.601 2.5 15.9736V8.02638C2.5 6.39806 3.01117 4.94771 3.9902 3.89737ZM5.08745 4.92012C4.41024 5.64666 4 6.70951 4 8.02638V15.9736C4 17.2914 4.40861 18.3541 5.08451 19.0802C5.75475 19.8003 6.74341 20.25 8.03216 20.25H16.4659C17.7552 20.25 18.7444 19.8002 19.415 19.0801C20.0912 18.354 20.5 17.2913 20.5 15.9736V8.02638C20.5 6.70868 20.0912 5.64597 19.4151 4.91984C18.7446 4.19975 17.7556 3.75 16.4669 3.75H8.03216C6.74828 3.75 5.75921 4.19943 5.08745 4.92012Z" fill="#000000" />
<path fill-rule="evenodd" clip-rule="evenodd" d="M6.72113 8.98081C6.95562 8.8475 7.24364 8.85038 7.47542 8.98835L11.4539 11.3566C11.6811 11.4918 11.8203 11.7366 11.8203 12.001V14.3692C11.8203 14.7835 11.4845 15.1192 11.0703 15.1192C10.6561 15.1192 10.3203 14.7835 10.3203 14.3692V12.4274L7.8418 10.9521V14.3692C7.8418 14.7835 7.50601 15.1192 7.0918 15.1192C6.67758 15.1192 6.3418 14.7835 6.3418 14.3692V9.63281C6.3418 9.36308 6.48664 9.11412 6.72113 8.98081Z" fill="#000000" />
<path fill-rule="evenodd" clip-rule="evenodd" d="M17.6939 8.98083C17.9284 9.11414 18.0732 9.36309 18.0732 9.63281V14.3692C18.0732 14.7835 17.7374 15.1192 17.3232 15.1192C16.909 15.1192 16.5732 14.7835 16.5732 14.3692V10.9519L14.0938 12.4275V14.3692C14.0938 14.7835 13.758 15.1192 13.3438 15.1192C12.9295 15.1192 12.5938 14.7835 12.5938 14.3692V12.001C12.5938 11.7366 12.733 11.4917 12.9602 11.3565L16.9397 8.98831C17.1714 8.85037 17.4594 8.84752 17.6939 8.98083Z" fill="#000000" />
</svg>