<svg width="24px"  height="24px"  viewBox="0 0 25 24" fill="none" xmlns="http://www.w3.org/2000/svg">
<path fill-rule="evenodd" clip-rule="evenodd" d="M3.9902 3.89737C4.97468 2.84117 6.37669 2.25 8.03216 2.25H16.4669C18.1262 2.25 19.5288 2.84084 20.5129 3.89765C21.4913 4.94841 22 6.39889 22 8.02638V15.9736C22 17.6011 21.4913 19.0516 20.5127 20.1024C19.5285 21.1592 18.1257 21.75 16.4659 21.75H8.03216C6.3728 21.75 4.97038 21.1591 3.98657 20.1023C3.00842 19.0515 2.5 17.601 2.5 15.9736V8.02638C2.5 6.39806 3.01117 4.94771 3.9902 3.89737ZM5.08745 4.92012C4.41024 5.64667 4 6.70951 4 8.02638V15.9736C4 17.2914 4.40861 18.3541 5.08451 19.0802C5.75475 19.8003 6.74341 20.25 8.03216 20.25H16.4659C17.7552 20.25 18.7444 19.8002 19.415 19.0801C20.0912 18.354 20.5 17.2913 20.5 15.9736V8.02638C20.5 6.70868 20.0912 5.64597 19.4151 4.91984C18.7446 4.19975 17.7556 3.75 16.4669 3.75H8.03216C6.74828 3.75 5.75921 4.19943 5.08745 4.92012Z" fill="#000000" />
<path fill-rule="evenodd" clip-rule="evenodd" d="M6.64295 7.51022C6.92322 7.39415 7.24582 7.45834 7.46031 7.67287L12.2506 12.4641L17.0502 7.67238C17.2648 7.45814 17.5873 7.3942 17.8674 7.51036C18.1475 7.62651 18.3301 7.89991 18.3301 8.20315V14.9081H21.2112C21.6254 14.9081 21.9612 15.2439 21.9612 15.6581C21.9612 16.0723 21.6254 16.4081 21.2112 16.4081H17.5801C17.1659 16.4081 16.8301 16.0723 16.8301 15.6581V10.0117L12.78 14.0551C12.4871 14.3476 12.0125 14.3474 11.7198 14.0546L7.67993 10.014V15.6581C7.67993 16.0723 7.34414 16.4081 6.92993 16.4081H3.28906C2.87485 16.4081 2.53906 16.0723 2.53906 15.6581C2.53906 15.2439 2.87485 14.9081 3.28906 14.9081H6.17993V8.20315C6.17993 7.89979 6.36267 7.6263 6.64295 7.51022Z" fill="#000000" />
</svg>