<svg width="24px"  height="24px"  viewBox="0 0 25 24" fill="none" xmlns="http://www.w3.org/2000/svg">
<path fill-rule="evenodd" clip-rule="evenodd" d="M7.75 8.25C5.67893 8.25 4 9.92893 4 12C4 14.0711 5.67893 15.75 7.75 15.75C9.82107 15.75 11.5 14.0711 11.5 12C11.5 9.92893 9.82107 8.25 7.75 8.25ZM2.5 12C2.5 9.1005 4.8505 6.75 7.75 6.75C10.6495 6.75 13 9.1005 13 12C13 14.8995 10.6495 17.25 7.75 17.25C4.8505 17.25 2.5 14.8995 2.5 12Z" fill="#000000" />
<path fill-rule="evenodd" clip-rule="evenodd" d="M16.75 8.25C14.6789 8.25 13 9.92893 13 12C13 14.0711 14.6789 15.75 16.75 15.75C18.8211 15.75 20.5 14.0711 20.5 12C20.5 9.92893 18.8211 8.25 16.75 8.25ZM11.5 12C11.5 9.1005 13.8505 6.75 16.75 6.75C19.6495 6.75 22 9.1005 22 12C22 14.8995 19.6495 17.25 16.75 17.25C13.8505 17.25 11.5 14.8995 11.5 12Z" fill="#000000" />
<path fill-rule="evenodd" clip-rule="evenodd" d="M12.25 12.75C10.1789 12.75 8.5 14.4289 8.5 16.5C8.5 18.5711 10.1789 20.25 12.25 20.25C14.3211 20.25 16 18.5711 16 16.5C16 14.4289 14.3211 12.75 12.25 12.75ZM7 16.5C7 13.6005 9.3505 11.25 12.25 11.25C15.1495 11.25 17.5 13.6005 17.5 16.5C17.5 19.3995 15.1495 21.75 12.25 21.75C9.3505 21.75 7 19.3995 7 16.5Z" fill="#000000" />
<path fill-rule="evenodd" clip-rule="evenodd" d="M12.25 3.75C10.1789 3.75 8.5 5.42893 8.5 7.5C8.5 9.57107 10.1789 11.25 12.25 11.25C14.3211 11.25 16 9.57107 16 7.5C16 5.42893 14.3211 3.75 12.25 3.75ZM7 7.5C7 4.6005 9.3505 2.25 12.25 2.25C15.1495 2.25 17.5 4.6005 17.5 7.5C17.5 10.3995 15.1495 12.75 12.25 12.75C9.3505 12.75 7 10.3995 7 7.5Z" fill="#000000" />
</svg>