<svg width="24px"  height="24px"  viewBox="0 0 25 24" fill="none" xmlns="http://www.w3.org/2000/svg">
<path fill-rule="evenodd" clip-rule="evenodd" d="M3.9902 3.89737C4.97468 2.84117 6.37669 2.25 8.03216 2.25H16.4669C18.1262 2.25 19.5288 2.84084 20.5129 3.89765C21.4913 4.94841 22 6.39889 22 8.02638V15.9736C22 17.6011 21.4913 19.0516 20.5127 20.1024C19.5285 21.1592 18.1256 21.75 16.4659 21.75H8.03216C6.3728 21.75 4.97038 21.1591 3.98657 20.1023C3.00842 19.0515 2.5 17.601 2.5 15.9736V8.02638C2.5 6.39806 3.01117 4.94771 3.9902 3.89737ZM5.08745 4.92012C4.41024 5.64666 4 6.70951 4 8.02638V15.9736C4 17.2914 4.40861 18.3541 5.08451 19.0802C5.75475 19.8003 6.74341 20.25 8.03216 20.25H16.4659C17.7552 20.25 18.7444 19.8002 19.415 19.0801C20.0912 18.354 20.5 17.2913 20.5 15.9736V8.02638C20.5 6.70868 20.0912 5.64597 19.4151 4.91984C18.7446 4.19975 17.7556 3.75 16.4669 3.75H8.03216C6.74828 3.75 5.75921 4.19943 5.08745 4.92012Z" fill="#000000" />
<path fill-rule="evenodd" clip-rule="evenodd" d="M7.21239 8.146C7.49381 8.03053 7.81711 8.09649 8.03081 8.31298L14.9827 15.3554C15.1275 15.5021 15.2056 15.702 15.1985 15.908C15.1914 16.1141 15.0998 16.3081 14.9453 16.4445C14.0487 17.2359 12.8344 17.7142 11.5558 17.6633C8.82586 17.6053 6.74609 15.2633 6.74609 12.5625L6.74707 8.83967C6.74715 8.53548 6.93096 8.26146 7.21239 8.146ZM8.24659 10.6667L8.24609 12.5625C8.24609 12.5625 8.24609 12.5624 8.24609 12.5625C8.24619 14.5252 9.75053 16.1277 11.5934 16.1637L11.6099 16.1642C12.2022 16.1889 12.7828 16.0454 13.2909 15.7767L8.24659 10.6667Z" fill="#000000" />
<path fill-rule="evenodd" clip-rule="evenodd" d="M11.2088 8.22115L16.2532 13.3312L16.2536 11.4345C16.2536 11.4344 16.2536 11.4345 16.2536 11.4345C16.2535 9.47273 14.7492 7.87 12.907 7.83318L12.8916 7.83271C12.2981 7.80858 11.7171 7.9524 11.2088 8.22115ZM12.9447 6.33364C11.6655 6.28376 10.4513 6.76179 9.55447 7.55336C9.3999 7.68979 9.30831 7.88384 9.30122 8.08989C9.29414 8.29594 9.37219 8.49582 9.51703 8.64254L16.4689 15.6849C16.6826 15.9014 17.0059 15.9674 17.2874 15.8519C17.5688 15.7364 17.7526 15.4624 17.7527 15.1582L17.7536 11.4347C17.7536 8.73459 15.6736 6.39252 12.9447 6.33364Z" fill="#000000" />
</svg>