<svg width="24px"  height="24px"  viewBox="0 0 25 24" fill="none" xmlns="http://www.w3.org/2000/svg">
<path d="M8.51947 19.4111C8.40838 19.4108 8.29875 19.3858 8.19847 19.338C8.09819 19.2902 8.00976 19.2208 7.93955 19.1347C7.86934 19.0486 7.8191 18.948 7.79246 18.8402C7.76582 18.7324 7.76343 18.6199 7.78547 18.5111C8.00647 17.4631 9.21247 15.4991 12.2025 15.4991C12.2435 15.4991 12.2855 15.4991 12.3285 15.4991C13.073 15.4953 13.8095 15.3448 14.4959 15.0562C15.1823 14.7676 15.805 14.3465 16.3285 13.8171C17.0585 13.0961 17.5842 12.1943 17.8519 11.2038C18.1196 10.2133 18.1198 9.16948 17.8524 8.17889C17.585 7.18829 17.0596 6.28639 16.3298 5.56515C15.6 4.84391 14.692 4.32916 13.6983 4.07345C12.7046 3.81774 11.6609 3.83018 10.6736 4.10955C9.68634 4.38892 8.79083 4.9252 8.07848 5.66366C7.36612 6.40212 6.86241 7.31635 6.61874 8.31304C6.37508 9.30974 6.40017 10.3532 6.69147 11.3371C6.74809 11.5278 6.72665 11.7331 6.63185 11.908C6.53705 12.0829 6.37666 12.2129 6.18597 12.2696C5.99528 12.3262 5.7899 12.3048 5.61503 12.21C5.44015 12.1152 5.31009 11.9548 5.25347 11.7641C4.82138 10.2953 4.86254 8.7278 5.37112 7.28375C5.8797 5.83969 6.82989 4.59234 8.08701 3.7185C9.34414 2.84466 10.8444 2.38867 12.3752 2.41515C13.9059 2.44164 15.3895 2.94925 16.6157 3.86605C17.8418 4.78285 18.7483 6.06234 19.2066 7.52313C19.6649 8.98391 19.6519 10.5519 19.1692 12.0048C18.6866 13.4577 17.7589 14.7219 16.5176 15.6181C15.2763 16.5143 13.7845 16.9971 12.2535 16.9981C9.71047 16.9831 9.29247 18.637 9.24847 18.827C9.20978 18.9919 9.11694 19.139 8.98478 19.2449C8.85263 19.3508 8.68879 19.4093 8.51947 19.4111Z" fill="#000000" />
<path d="M8.0277 21.5531C7.97351 21.5535 7.91947 21.5474 7.8667 21.5351C7.67245 21.4925 7.50306 21.3745 7.3958 21.207C7.28853 21.0396 7.25217 20.8364 7.2947 20.6421L9.7507 9.4281C9.79445 9.23491 9.91286 9.06687 10.0801 8.96066C10.2473 8.85446 10.4497 8.81871 10.6432 8.86124C10.8366 8.90376 11.0054 9.02109 11.1127 9.18762C11.22 9.35415 11.257 9.55636 11.2157 9.75009L8.7597 20.9641C8.72302 21.131 8.63047 21.2803 8.49736 21.3874C8.36425 21.4945 8.19855 21.553 8.0277 21.5531Z" fill="#000000" />
<path d="M12.2437 21.587C12.0331 21.5868 11.8274 21.5242 11.6524 21.4071C11.4774 21.29 11.341 21.1237 11.2606 20.9291C11.1801 20.7346 11.1591 20.5205 11.2002 20.314C11.2413 20.1075 11.3427 19.9178 11.4916 19.769C11.6405 19.6201 11.8302 19.5187 12.0367 19.4775C12.2432 19.4364 12.4572 19.4574 12.6518 19.5379C12.8463 19.6184 13.0127 19.7547 13.1298 19.9297C13.2469 20.1047 13.3095 20.3105 13.3097 20.521C13.3094 20.8037 13.197 21.0747 12.9972 21.2745C12.7973 21.4744 12.5263 21.5867 12.2437 21.587Z" fill="#000000" />
</svg>