<svg width="24px"  height="24px"  viewBox="0 0 25 24" fill="none" xmlns="http://www.w3.org/2000/svg">
<path d="M12.25 21.75C10.3216 21.75 8.43657 21.1782 6.83319 20.1068C5.22981 19.0355 3.98013 17.5127 3.24217 15.7312C2.50422 13.9496 2.31114 11.9892 2.68735 10.0979C3.06356 8.20655 3.99215 6.46927 5.35572 5.10571C6.71928 3.74215 8.45656 2.81355 10.3479 2.43735C12.2392 2.06114 14.1996 2.25423 15.9812 2.99219C17.7628 3.73014 19.2855 4.97981 20.3568 6.58319C21.4282 8.18657 22 10.0716 22 12C21.9971 14.585 20.9689 17.0632 19.1411 18.8911C17.3132 20.7189 14.835 21.7471 12.25 21.75ZM12.25 3.75C10.6183 3.75 9.02326 4.23386 7.66655 5.14038C6.30985 6.0469 5.25242 7.33537 4.62799 8.84286C4.00357 10.3504 3.8402 12.0092 4.15853 13.6095C4.47685 15.2098 5.26259 16.6799 6.41637 17.8336C7.57015 18.9874 9.04016 19.7732 10.6405 20.0915C12.2408 20.4098 13.8996 20.2464 15.4071 19.622C16.9146 18.9976 18.2031 17.9402 19.1096 16.5835C20.0161 15.2268 20.5 13.6317 20.5 12C20.4976 9.81269 19.6277 7.71566 18.081 6.169C16.5343 4.62235 14.4373 3.75238 12.25 3.75Z" fill="#000000" />
<path d="M10.417 16.0152C10.3597 16.015 10.3026 16.008 10.247 15.9942C10.0576 15.9513 9.8926 15.8358 9.7875 15.6726C9.6824 15.5093 9.64558 15.3113 9.68496 15.1212C9.84539 14.575 10.1887 14.1006 10.6573 13.7774C11.126 13.4543 11.6914 13.302 12.259 13.3462C12.7448 13.3446 13.2192 13.1991 13.6224 12.928C14.0255 12.657 14.3393 12.2726 14.5241 11.8233C14.709 11.374 14.7565 10.88 14.6608 10.4038C14.565 9.92748 14.3303 9.49024 13.9862 9.14728C13.6421 8.80433 13.2041 8.57101 12.7276 8.47681C12.251 8.38262 11.7572 8.43178 11.3085 8.61805C10.8598 8.80432 10.4764 9.11937 10.2067 9.52341C9.93692 9.92745 9.79296 10.4024 9.79296 10.8882C9.79285 11.1251 9.82653 11.3608 9.89297 11.5882C9.94192 11.7766 9.91568 11.9767 9.8198 12.1461C9.72392 12.3156 9.56591 12.4411 9.37917 12.4962C9.19243 12.5512 8.9916 12.5315 8.81913 12.4412C8.64666 12.3509 8.51607 12.197 8.45496 12.0122C8.25409 11.3402 8.23528 10.627 8.40044 9.94538C8.56561 9.26378 8.90883 8.63825 9.39501 8.13279C9.88119 7.62733 10.4929 7.26006 11.1675 7.06852C11.8422 6.87698 12.5556 6.86805 13.2349 7.04264C13.9141 7.21723 14.5348 7.5691 15.0335 8.06223C15.5322 8.55537 15.891 9.17209 16.0731 9.84934C16.2553 10.5266 16.2544 11.2401 16.0704 11.9168C15.8864 12.5936 15.526 13.2094 15.026 13.7012C14.665 14.072 14.232 14.365 13.7536 14.562C13.2751 14.7591 12.7613 14.8562 12.244 14.8472C11.369 14.8562 11.187 15.3062 11.144 15.4472C11.1014 15.6082 11.0073 15.7509 10.876 15.8535C10.7448 15.9561 10.5835 16.0128 10.417 16.0152Z" fill="#000000" />
<path d="M12.7253 17.0703H12.6953C12.4964 17.0703 12.3056 16.9913 12.165 16.8506C12.0243 16.71 11.9453 16.5192 11.9453 16.3203C11.9453 16.1214 12.0243 15.9306 12.165 15.79C12.3056 15.6493 12.4964 15.5703 12.6953 15.5703C12.8958 15.5698 13.0884 15.6481 13.2316 15.7885C13.3747 15.9288 13.4569 16.1199 13.4603 16.3203C13.4619 16.418 13.4441 16.515 13.4079 16.6057C13.3717 16.6964 13.3179 16.7791 13.2495 16.8488C13.1811 16.9186 13.0996 16.9741 13.0096 17.0121C12.9196 17.0502 12.823 17.0699 12.7253 17.0703Z" fill="#000000" />
<path d="M10.1808 17.0712C10.1267 17.0709 10.0728 17.0653 10.0198 17.0542C9.8255 17.0116 9.65604 16.8936 9.54862 16.7262C9.44119 16.5588 9.40458 16.3556 9.44681 16.1612L10.6468 10.6762C10.6892 10.4818 10.8072 10.3122 10.9746 10.2048C11.1421 10.0973 11.3454 10.0608 11.5398 10.1032C11.7342 10.1456 11.9038 10.2636 12.0112 10.431C12.1187 10.5985 12.1552 10.8018 12.1128 10.9962L10.9128 16.4812C10.8763 16.6483 10.7839 16.7978 10.6507 16.9051C10.5176 17.0124 10.3518 17.071 10.1808 17.0712Z" fill="#000000" />
</svg>