<svg width="24px"  height="24px"  viewBox="0 0 25 24" fill="none" xmlns="http://www.w3.org/2000/svg">
<path fill-rule="evenodd" clip-rule="evenodd" d="M12.25 3.75C7.69329 3.75 4 7.44329 4 12C4 16.5567 7.69329 20.25 12.25 20.25C16.8067 20.25 20.5 16.5567 20.5 12C20.5 7.44329 16.8067 3.75 12.25 3.75ZM2.5 12C2.5 6.61487 6.86487 2.25 12.25 2.25C17.6351 2.25 22 6.61487 22 12C22 17.3851 17.6351 21.75 12.25 21.75C6.86487 21.75 2.5 17.3851 2.5 12Z" fill="#000000" />
<path fill-rule="evenodd" clip-rule="evenodd" d="M9.52836 7.28217C9.76046 7.14813 10.0464 7.14813 10.2785 7.28217L12.6253 8.63752C12.8574 8.77151 13.0003 9.01908 13.0003 9.28699V10.1218C13.0003 10.536 12.6645 10.8718 12.2503 10.8718C11.836 10.8718 11.5003 10.536 11.5003 10.1218V9.71994L9.90345 8.79773L8.30664 9.71994V11.5659L9.90345 12.4887L14.2218 9.99299C14.454 9.85879 14.7402 9.85879 14.9724 9.99299L17.3192 11.3493C17.5511 11.4833 17.6939 11.7308 17.6939 11.9987V14.7103C17.6939 14.9782 17.5511 15.2257 17.3192 15.3597L14.9724 16.716C14.7402 16.8502 14.454 16.8502 14.2218 16.716L11.875 15.3597C11.6431 15.2257 11.5003 14.9782 11.5003 14.7103V13.824C11.5003 13.4098 11.836 13.074 12.2503 13.074C12.6645 13.074 13.0003 13.4098 13.0003 13.824V14.2776L14.5971 15.2004L16.1939 14.2776V12.4315L14.5971 11.5086L10.2787 14.0043C10.0465 14.1385 9.76036 14.1385 9.52816 14.0043L7.18135 12.648C6.94946 12.514 6.80664 12.2665 6.80664 11.9987V9.28699C6.80664 9.01908 6.94955 8.77151 7.18155 8.63752L9.52836 7.28217Z" fill="#000000" />
</svg>