<svg width="24px"  height="24px"  viewBox="0 0 25 24" fill="none" xmlns="http://www.w3.org/2000/svg">
<path fill-rule="evenodd" clip-rule="evenodd" d="M3.9902 3.89737C4.97468 2.84117 6.37669 2.25 8.03216 2.25H16.4669C18.1262 2.25 19.5288 2.84084 20.5129 3.89765C21.4913 4.94841 22 6.39889 22 8.02638V15.9736C22 17.6011 21.4913 19.0516 20.5127 20.1024C19.5285 21.1592 18.1256 21.75 16.4659 21.75H8.03216C6.3728 21.75 4.97038 21.1591 3.98657 20.1023C3.00842 19.0515 2.5 17.601 2.5 15.9736V8.02638C2.5 6.39806 3.01117 4.94771 3.9902 3.89737ZM5.08745 4.92012C4.41024 5.64666 4 6.70951 4 8.02638V15.9736C4 17.2914 4.40861 18.3541 5.08451 19.0802C5.75475 19.8003 6.74341 20.25 8.03216 20.25H16.4659C17.7552 20.25 18.7444 19.8002 19.415 19.0801C20.0912 18.354 20.5 17.2913 20.5 15.9736V8.02638C20.5 6.70868 20.0912 5.64597 19.4151 4.91984C18.7446 4.19975 17.7556 3.75 16.4669 3.75H8.03216C6.74828 3.75 5.75921 4.19943 5.08745 4.92012Z" fill="#000000" />
<path fill-rule="evenodd" clip-rule="evenodd" d="M9.40376 7.06935C9.63592 6.93522 9.92203 6.93522 10.1542 7.06935L12.6246 8.49671C12.8565 8.63071 12.9994 8.87824 12.9994 9.1461V10.0237C12.9994 10.4379 12.6636 10.7737 12.2494 10.7737C11.8351 10.7737 11.4994 10.4379 11.4994 10.0237V9.57895L9.77897 8.58494L8.05859 9.57895V11.567L9.77904 12.561L14.3446 9.924C14.5767 9.78996 14.8627 9.78994 15.0948 9.92395L17.5651 11.3503C17.7972 11.4843 17.9401 11.7319 17.9401 11.9998V14.8545C17.9401 15.1224 17.7973 15.3699 17.5653 15.5039L15.0949 16.9313C14.8628 17.0654 14.5767 17.0654 14.3445 16.9313L11.8741 15.5039C11.6422 15.3699 11.4994 15.1224 11.4994 14.8545V13.9215C11.4994 13.5072 11.8351 13.1715 12.2494 13.1715C12.6636 13.1715 12.9994 13.5072 12.9994 13.9215V14.4217L14.7197 15.4157L16.4401 14.4217V12.4328L14.7198 11.4395L10.1541 14.0766C9.92194 14.2107 9.63588 14.2107 9.40376 14.0766L6.93338 12.6492C6.70145 12.5152 6.55859 12.2677 6.55859 11.9998V9.1461C6.55859 8.87824 6.70145 8.63071 6.93338 8.49671L9.40376 7.06935Z" fill="#000000" />
</svg>