<svg width="24px"  height="24px"  viewBox="0 0 25 24" fill="none" xmlns="http://www.w3.org/2000/svg">
<path fill-rule="evenodd" clip-rule="evenodd" d="M7.37479 3.54982C7.60695 3.41569 7.89305 3.41569 8.12521 3.54982L12.6252 6.14982C12.8571 6.28383 13 6.53136 13 6.79922V8.39922C13 8.81343 12.6642 9.14922 12.25 9.14922C11.8358 9.14922 11.5 8.81343 11.5 8.39922V7.23207L7.75 5.0654L4 7.23207V11.5664L7.75 13.733L16.3748 8.74982C16.6069 8.61568 16.8931 8.61568 17.1252 8.74982L21.6252 11.3498C21.8571 11.4838 22 11.7314 22 11.9992V17.1992C22 17.4671 21.8571 17.7146 21.6252 17.8486L17.1252 20.4486C16.8931 20.5828 16.6069 20.5828 16.3748 20.4486L11.8748 17.8486C11.6429 17.7146 11.5 17.4671 11.5 17.1992V15.4992C11.5 15.085 11.8358 14.7492 12.25 14.7492C12.6642 14.7492 13 15.085 13 15.4992V16.7664L16.75 18.933L20.5 16.7664V12.4321L16.75 10.2654L8.12521 15.2486C7.89305 15.3828 7.60695 15.3828 7.37479 15.2486L2.87479 12.6486C2.64286 12.5146 2.5 12.2671 2.5 11.9992V6.79922C2.5 6.53136 2.64286 6.28383 2.87479 6.14982L7.37479 3.54982Z" fill="#000000" />
</svg>