<svg width="24px"  height="24px"  viewBox="0 0 25 24" fill="none" xmlns="http://www.w3.org/2000/svg">
<path d="M16.466 21.75H8.03198C4.72398 21.75 2.5 19.429 2.5 15.974V8.02698C2.5 4.57198 4.72398 2.25 8.03198 2.25H16.467C19.776 2.25 22 4.57198 22 8.02698V15.974C22 19.429 19.776 21.75 16.466 21.75ZM8.03198 3.75C5.58298 3.75 4 5.42898 4 8.02698V15.974C4 18.574 5.58298 20.25 8.03198 20.25H16.466C18.916 20.25 20.5 18.572 20.5 15.974V8.02698C20.5 5.42698 18.917 3.75 16.467 3.75H8.03198Z" fill="#000000" />
<path d="M15.2111 16.3709C15.0946 16.3711 14.9797 16.344 14.8756 16.2919C14.7714 16.2398 14.6809 16.1641 14.6111 16.0709C13.7581 14.9459 12.6221 13.9219 12.2271 13.9219C11.8321 13.9219 10.7271 14.9429 9.89211 16.0639C9.83354 16.1431 9.75997 16.2099 9.67556 16.2607C9.59114 16.3114 9.49752 16.345 9.40011 16.3596C9.3027 16.3742 9.20338 16.3694 9.10781 16.3456C9.01224 16.3218 8.92229 16.2795 8.8431 16.2209C8.76391 16.1623 8.69707 16.0887 8.64632 16.0043C8.59558 15.9199 8.5619 15.8263 8.54732 15.7289C8.53275 15.6315 8.53749 15.5322 8.5613 15.4366C8.58511 15.341 8.62755 15.2511 8.68612 15.1719C9.16312 14.5269 10.8291 12.4219 12.2271 12.4219C13.6251 12.4219 15.3201 14.5219 15.8071 15.1649C15.8907 15.2763 15.9416 15.4088 15.9541 15.5475C15.9666 15.6863 15.9402 15.8257 15.878 15.9503C15.8157 16.0749 15.7199 16.1796 15.6014 16.2529C15.4829 16.3261 15.3464 16.3649 15.2071 16.3649L15.2111 16.3709Z" fill="#000000" />
<path d="M12.2271 11.5779C10.8271 11.5779 9.16306 9.47791 8.68606 8.82791C8.62749 8.74873 8.58511 8.65878 8.5613 8.56321C8.53749 8.46763 8.53275 8.36832 8.54732 8.27091C8.5619 8.1735 8.59552 8.07993 8.64626 7.99552C8.69701 7.9111 8.76385 7.83747 8.84304 7.7789C8.92223 7.72033 9.01218 7.67796 9.10775 7.65415C9.20332 7.63034 9.3027 7.62559 9.40011 7.64017C9.49752 7.65475 9.59108 7.68836 9.6755 7.73911C9.75991 7.78985 9.83348 7.85676 9.89205 7.93595C10.7231 9.05695 11.8361 10.0779 12.2271 10.0779C12.6181 10.0779 13.758 9.05393 14.611 7.92893C14.7304 7.7698 14.9081 7.66458 15.105 7.63645C15.3019 7.60832 15.502 7.65956 15.6611 7.7789C15.8202 7.89825 15.9254 8.07595 15.9535 8.27286C15.9816 8.46977 15.9304 8.66982 15.8111 8.82895C15.3201 9.47795 13.6221 11.5779 12.2271 11.5779Z" fill="#000000" />
</svg>