<svg width="24px"  height="24px"  viewBox="0 0 25 24" fill="none" xmlns="http://www.w3.org/2000/svg">
<path fill-rule="evenodd" clip-rule="evenodd" d="M12.25 3.75C7.69329 3.75 4 7.44329 4 12C4 16.5567 7.69329 20.25 12.25 20.25C16.8067 20.25 20.5 16.5567 20.5 12C20.5 7.44329 16.8067 3.75 12.25 3.75ZM2.5 12C2.5 6.61487 6.86487 2.25 12.25 2.25C17.6351 2.25 22 6.61487 22 12C22 17.3851 17.6351 21.75 12.25 21.75C6.86487 21.75 2.5 17.3851 2.5 12Z" fill="#000000" />
<path fill-rule="evenodd" clip-rule="evenodd" d="M15.084 8.87404C14.947 8.29301 14.3652 7.93203 13.7827 8.06807C13.2055 8.20404 12.8457 8.77806 12.9732 9.35487C13.1919 10.1412 13.0082 11.0422 12.4646 11.6248C12.1778 11.9322 11.7806 12.1574 11.3007 12.1921C10.8252 12.2265 10.3523 12.068 9.91324 11.7659C9.89733 11.755 9.88185 11.7434 9.86684 11.7313C9.40202 11.3555 8.72027 11.4278 8.34419 11.893C7.96848 12.3577 8.04058 13.0385 8.50585 13.4146C8.97144 13.791 9.65273 13.7183 10.0272 13.2544C10.0458 13.2313 10.0659 13.2093 10.0871 13.1885C10.4767 12.8086 10.9234 12.5749 11.4042 12.5352C11.8854 12.4954 12.3103 12.6578 12.6383 12.9032C13.2434 13.3558 13.6154 14.16 13.5581 14.9051C13.5733 15.4895 14.0517 15.9586 14.6399 15.9586C15.2375 15.9586 15.722 15.4742 15.722 14.8765C15.722 14.2788 15.2375 13.7944 14.6399 13.7944C14.624 13.7944 14.6082 13.7939 14.5924 13.7929C13.52 13.7249 12.888 12.9271 12.8236 12.0937C12.7602 11.2715 13.2532 10.3845 14.2883 10.1731C14.8626 10.0328 15.2196 9.45398 15.084 8.87404ZM13.4406 6.60761C14.829 6.28278 16.2179 7.14351 16.5443 8.53127L16.5445 8.53211C16.8692 9.91994 16.0091 11.3107 14.6202 11.636C14.6114 11.6381 14.6025 11.64 14.5936 11.6417C14.461 11.6678 14.4023 11.7229 14.372 11.7657C14.3356 11.8172 14.3125 11.8921 14.3192 11.9783C14.3258 12.0639 14.36 12.1376 14.4088 12.1882C14.4495 12.2303 14.5241 12.2818 14.6696 12.2945C16.082 12.3105 17.222 13.4603 17.222 14.8765C17.222 16.3026 16.066 17.4586 14.6399 17.4586C13.2138 17.4586 12.0577 16.3026 12.0577 14.8765C12.0577 14.8511 12.059 14.8258 12.0616 14.8005C12.071 14.7086 12.0526 14.5746 11.9879 14.4301C11.9236 14.2867 11.8314 14.1728 11.7398 14.1043C11.6537 14.0399 11.5845 14.0254 11.5276 14.0301C11.4729 14.0346 11.3469 14.064 11.1609 14.2371C10.2581 15.3109 8.65786 15.4664 7.56284 14.5811C6.45384 13.6846 6.28075 12.0595 7.17768 10.95C8.06711 9.84974 9.67451 9.67073 10.7832 10.5435C11.0014 10.689 11.1358 10.7001 11.1927 10.696C11.2469 10.6921 11.3042 10.6697 11.3679 10.6015C11.5202 10.4382 11.6233 10.0867 11.5257 9.74862C11.5223 9.73658 11.5191 9.72444 11.5162 9.71224C11.1898 8.32272 12.0526 6.93402 13.4397 6.60781L13.4406 6.60761Z" fill="#000000" />
</svg>