<svg width="24px"  height="24px"  viewBox="0 0 25 24" fill="none" xmlns="http://www.w3.org/2000/svg">
<path d="M16.466 21.75H8.03198C4.72398 21.75 2.5 19.429 2.5 15.974V8.02701C2.5 4.57201 4.72398 2.25 8.03198 2.25H16.467C19.776 2.25 22 4.57201 22 8.02701V15.974C22 19.429 19.776 21.75 16.466 21.75ZM8.03198 3.75C5.58298 3.75 4 5.42901 4 8.02701V15.974C4 18.574 5.58298 20.25 8.03198 20.25H16.466C18.916 20.25 20.5 18.572 20.5 15.974V8.02701C20.5 5.42701 18.917 3.75 16.467 3.75H8.03198Z" fill="#000000" />
<path d="M14.8491 18.0724C14.101 18.0719 13.3837 17.7745 12.8546 17.2456C12.3255 16.7167 12.028 15.9995 12.0272 15.2514C12.0444 15.053 12.0069 14.8536 11.9188 14.675C11.8306 14.4964 11.6952 14.3454 11.5272 14.2384C11.4502 14.2024 11.2272 14.0904 10.8162 14.4874C10.4543 14.9066 9.97696 15.2099 9.44379 15.3595C8.91062 15.5091 8.34521 15.4983 7.81811 15.3286C7.29101 15.1588 6.82559 14.8376 6.47992 14.405C6.13425 13.9724 5.92368 13.4475 5.87445 12.8959C5.82521 12.3444 5.93948 11.7905 6.20306 11.3035C6.46664 10.8165 6.8678 10.4179 7.35651 10.1575C7.84521 9.89708 8.39981 9.78634 8.95105 9.83914C9.50229 9.89195 10.0257 10.1059 10.4561 10.4544C10.7201 10.6334 10.9651 10.6804 11.1431 10.5544C11.2889 10.4106 11.392 10.2294 11.4411 10.0306C11.4902 9.8319 11.4832 9.62347 11.4211 9.42841L11.4111 9.3924C11.2401 8.66413 11.3653 7.89774 11.759 7.26169C12.1528 6.62564 12.783 6.17198 13.5112 6.0004C14.2396 5.82947 15.006 5.95489 15.642 6.34909C16.2779 6.74329 16.7312 7.37397 16.9022 8.10239C17.0731 8.83081 16.9477 9.59731 16.5535 10.2332C16.1593 10.8692 15.5286 11.3225 14.8002 11.4934C14.7408 11.4968 14.6826 11.5121 14.6293 11.5384C14.5759 11.5647 14.5284 11.6015 14.4896 11.6466C14.4508 11.6917 14.4214 11.7441 14.4033 11.8008C14.3852 11.8574 14.3787 11.9171 14.3842 11.9764C14.3868 12.0399 14.4021 12.1023 14.4293 12.1599C14.4564 12.2174 14.4948 12.2689 14.5421 12.3114C14.5894 12.3539 14.6448 12.3865 14.7049 12.4073C14.765 12.428 14.8287 12.4366 14.8921 12.4324C15.6401 12.439 16.3547 12.7425 16.8788 13.276C17.403 13.8096 17.6938 14.5295 17.6871 15.2774C17.6805 16.0253 17.377 16.7399 16.8435 17.2641C16.31 17.7883 15.5901 18.079 14.8422 18.0724H14.8491ZM11.3671 12.6964C11.6495 12.6976 11.928 12.7633 12.1812 12.8884C12.6192 13.119 12.9798 13.4732 13.2184 13.907C13.4569 14.3407 13.5629 14.835 13.5231 15.3284C13.538 15.5864 13.628 15.8345 13.7821 16.0419C13.9362 16.2494 14.1477 16.4072 14.3904 16.4959C14.6332 16.5847 14.8966 16.6004 15.1482 16.5412C15.3998 16.482 15.6285 16.3505 15.8062 16.1628C15.9839 15.9752 16.1029 15.7396 16.1483 15.4852C16.1938 15.2308 16.1638 14.9687 16.062 14.7311C15.9603 14.4935 15.7912 14.2909 15.5757 14.1483C15.3602 14.0057 15.1076 13.9292 14.8491 13.9284C14.349 13.9224 13.8696 13.728 13.5067 13.3839C13.1437 13.0398 12.9239 12.5715 12.8912 12.0724C12.8538 11.593 12.9973 11.1169 13.2935 10.738C13.5896 10.3592 14.0169 10.1049 14.4911 10.0254C14.8225 9.94319 15.108 9.73327 15.2852 9.44141C15.3774 9.29392 15.4394 9.1295 15.4673 8.9578C15.4953 8.7861 15.4888 8.61056 15.4481 8.44141C15.3883 8.18709 15.2544 7.95621 15.0634 7.77799C14.8724 7.59976 14.6328 7.48219 14.3749 7.44013C14.1171 7.39806 13.8526 7.43339 13.6148 7.54166C13.377 7.64993 13.1767 7.82628 13.0391 8.0484C12.856 8.34123 12.7963 8.69468 12.8732 9.0314C13.0182 9.52035 13.0149 10.0413 12.864 10.5284C12.7131 11.0156 12.4212 11.4471 12.0251 11.7684C11.6576 12.0178 11.219 12.1412 10.7753 12.1203C10.3316 12.0994 9.90665 11.9352 9.56415 11.6524C9.42509 11.5333 9.26344 11.4435 9.08887 11.3883C8.91429 11.3332 8.73039 11.3138 8.54816 11.3314C8.33215 11.3544 8.12511 11.4302 7.94543 11.5523C7.76575 11.6744 7.61893 11.8389 7.518 12.0312C7.41708 12.2236 7.36516 12.4378 7.36682 12.6551C7.36848 12.8723 7.42368 13.0857 7.52753 13.2765C7.63138 13.4673 7.7807 13.6296 7.96222 13.7489C8.14374 13.8682 8.35184 13.9409 8.56818 13.9606C8.78451 13.9802 9.00239 13.9463 9.20245 13.8616C9.40251 13.777 9.5786 13.6443 9.71515 13.4754C9.92645 13.2428 10.1816 13.0543 10.4659 12.9206C10.7503 12.7869 11.0582 12.7107 11.3721 12.6964H11.3671Z" fill="#000000" />
</svg>