<svg width="24px"  height="24px"  viewBox="0 0 25 24" fill="none" xmlns="http://www.w3.org/2000/svg">
<path d="M19.3759 21.7482H17.6319C17.2529 21.7516 16.8783 21.6662 16.5382 21.499C16.198 21.3318 15.9017 21.0873 15.6729 20.7852L12.3649 17.4781C12.3252 17.4441 12.2741 17.4263 12.2219 17.4282C12.169 17.4261 12.1173 17.444 12.0769 17.4781L8.93293 20.7101C8.69343 21.0309 8.38265 21.2916 8.02515 21.4717C7.66766 21.6519 7.27318 21.7465 6.87287 21.7482H5.15192C4.80482 21.7538 4.4639 21.656 4.17255 21.4672C3.88121 21.2785 3.65259 21.0073 3.51588 20.6882C3.38739 20.3784 3.35533 20.0371 3.42384 19.7089C3.49234 19.3806 3.65827 19.0806 3.89991 18.8481L9.03291 13.7181C9.88339 12.8848 11.0267 12.418 12.2174 12.418C13.4081 12.418 14.5514 12.8848 15.4019 13.7181L20.5319 18.8481C20.7885 19.0648 20.9719 19.3555 21.0569 19.6804C21.1419 20.0053 21.1245 20.3486 21.0069 20.6631C20.8787 20.9891 20.6536 21.268 20.3619 21.462C20.0703 21.656 19.7261 21.7559 19.3759 21.7482ZM12.2219 15.9282C12.6707 15.9278 13.1016 16.1038 13.4219 16.4182L16.6609 19.6572C17.2059 20.2042 17.2609 20.2482 17.6269 20.2482H19.3709C19.5099 20.2482 19.5809 20.1891 19.6009 20.1351C19.6289 20.0631 19.5539 19.9831 19.5069 19.9421L14.3409 14.7781C13.7629 14.2432 13.0044 13.9461 12.2169 13.9461C11.4294 13.9461 10.6709 14.2432 10.0929 14.7781L4.96088 19.9081C4.93026 19.9314 4.90783 19.9638 4.89686 20.0007C4.88589 20.0375 4.88698 20.0769 4.89991 20.1132C4.92232 20.1591 4.95863 20.1968 5.00367 20.2211C5.04871 20.2453 5.10018 20.2548 5.15089 20.2482H6.86793C7.25693 20.2482 7.32692 20.1911 7.84492 19.6721L11.0049 16.4252C11.1651 16.2663 11.355 16.1406 11.5639 16.0554C11.7727 15.9701 11.9963 15.9268 12.2219 15.9282Z" fill="#000000" />
<path d="M12.2223 11.5804C11.6318 11.5851 11.0463 11.4726 10.4996 11.2495C9.95291 11.0263 9.45586 10.6969 9.03727 10.2805L3.90531 5.15045C3.6633 4.91842 3.49695 4.61872 3.42808 4.29059C3.35921 3.96247 3.39103 3.62122 3.51933 3.31146C3.65617 2.99218 3.88487 2.72079 4.17637 2.53186C4.46787 2.34293 4.80896 2.24502 5.15629 2.25049H6.87327C7.26755 2.25053 7.6565 2.34199 8.00944 2.51776C8.36237 2.69354 8.66973 2.94883 8.90733 3.26349L12.0843 6.52747C12.1235 6.5582 12.1725 6.57382 12.2223 6.57147C12.2743 6.57394 12.3253 6.55601 12.3643 6.52149L15.6063 3.28144C15.84 2.96328 16.145 2.70431 16.4968 2.52527C16.8486 2.34623 17.2375 2.25215 17.6323 2.25049H19.3763C19.7274 2.24209 20.0726 2.34187 20.3651 2.53632C20.6576 2.73077 20.8832 3.01045 21.0113 3.33747C21.1291 3.66045 21.1431 4.01219 21.0513 4.34351C20.9595 4.67483 20.7665 4.96919 20.4993 5.18549L15.4063 10.2805C14.988 10.6971 14.4912 11.0265 13.9446 11.2496C13.3981 11.4728 12.8126 11.5852 12.2223 11.5804ZM5.15629 3.75049C5.10549 3.74409 5.05397 3.75375 5.00895 3.77814C4.96393 3.80253 4.92769 3.84042 4.90531 3.88648C4.89324 3.922 4.8926 3.96039 4.90354 3.99628C4.91449 4.03217 4.93644 4.06375 4.96629 4.08649L10.0983 9.21649C10.6763 9.75141 11.4348 10.0485 12.2223 10.0485C13.0098 10.0485 13.7683 9.75141 14.3463 9.21649L19.4763 4.08649C19.5693 4.00149 19.6323 3.92848 19.6063 3.86048C19.5803 3.79248 19.5153 3.74646 19.3763 3.74646H17.6323C17.2673 3.74646 17.2123 3.79044 16.7383 4.26544L13.4263 7.57746C13.1064 7.89239 12.6752 8.06846 12.2263 8.06745C11.7773 8.06797 11.3461 7.8916 11.0263 7.57648L7.86729 4.33045C7.34029 3.80345 7.2673 3.74646 6.8823 3.74646L5.15629 3.75049Z" fill="#000000" />
</svg>