<svg width="24px"  height="24px"  viewBox="0 0 25 24" fill="none" xmlns="http://www.w3.org/2000/svg">
<path fill-rule="evenodd" clip-rule="evenodd" d="M2.5 12C2.5 6.61487 6.86487 2.25 12.25 2.25C17.6351 2.25 22 6.61487 22 12C22 17.3851 17.6351 21.75 12.25 21.75C6.86487 21.75 2.5 17.3851 2.5 12ZM12.25 3.75C7.69329 3.75 4 7.44329 4 12C4 16.5567 7.69329 20.25 12.25 20.25C16.8067 20.25 20.5 16.5567 20.5 12C20.5 7.44329 16.8067 3.75 12.25 3.75Z" fill="#000000" />
<path fill-rule="evenodd" clip-rule="evenodd" d="M8.30934 7.66213C8.43367 7.40084 8.69722 7.23438 8.98659 7.23438H16.7675C17.0248 7.23438 17.2642 7.36634 17.4016 7.58396C17.539 7.80158 17.5552 8.07446 17.4446 8.30683L16.3395 10.6275L17.4502 13.07C17.5418 13.2715 17.5397 13.5031 17.4446 13.7029L16.1895 16.3387C16.0651 16.5999 15.8016 16.7663 15.5123 16.7663H7.73242C7.47509 16.7663 7.23573 16.6343 7.09832 16.4168C6.9609 16.1992 6.94462 15.9264 7.05518 15.694L8.15948 13.3732L7.0496 10.9304C6.95812 10.7291 6.96016 10.4976 7.05518 10.2979L8.30934 7.66213ZM9.46029 8.73438L8.55952 10.6275L9.66941 13.0702C9.76089 13.2716 9.75885 13.503 9.66383 13.7027L8.91986 15.2663H15.0388L15.9402 13.3732L14.8296 10.9306C14.738 10.7291 14.74 10.4975 14.8352 10.2977L15.5796 8.73438H9.46029Z" fill="#000000" />
<path fill-rule="evenodd" clip-rule="evenodd" d="M8.23828 13.3652C8.23828 12.951 8.57407 12.6152 8.98828 12.6152H16.7691C17.1834 12.6152 17.5191 12.951 17.5191 13.3652C17.5191 13.7794 17.1834 14.1152 16.7691 14.1152H8.98828C8.57407 14.1152 8.23828 13.7794 8.23828 13.3652Z" fill="#000000" />
<path fill-rule="evenodd" clip-rule="evenodd" d="M6.98242 10.6328C6.98242 10.2186 7.31821 9.88281 7.73242 9.88281H15.5133C15.9275 9.88281 16.2633 10.2186 16.2633 10.6328C16.2633 11.047 15.9275 11.3828 15.5133 11.3828H7.73242C7.31821 11.3828 6.98242 11.047 6.98242 10.6328Z" fill="#000000" />
</svg>