<svg width="24px"  height="24px"  viewBox="0 0 25 24" fill="none" xmlns="http://www.w3.org/2000/svg">
<path fill-rule="evenodd" clip-rule="evenodd" d="M3.9902 3.89737C4.97468 2.84117 6.37669 2.25 8.03216 2.25H16.4669C18.1262 2.25 19.5288 2.84084 20.5129 3.89765C21.4913 4.94841 22 6.39889 22 8.02638V15.9736C22 17.6011 21.4913 19.0516 20.5127 20.1024C19.5285 21.1592 18.1256 21.75 16.4659 21.75H8.03216C6.3728 21.75 4.97038 21.1591 3.98657 20.1023C3.00842 19.0515 2.5 17.601 2.5 15.9736V8.02638C2.5 6.39806 3.01117 4.94771 3.9902 3.89737ZM5.08745 4.92012C4.41024 5.64666 4 6.70951 4 8.02638V15.9736C4 17.2914 4.40861 18.3541 5.08451 19.0802C5.75475 19.8003 6.74341 20.25 8.03216 20.25H16.4659C17.7552 20.25 18.7444 19.8002 19.415 19.0801C20.0912 18.354 20.5 17.2913 20.5 15.9736V8.02638C20.5 6.70868 20.0912 5.64597 19.4151 4.91984C18.7446 4.19975 17.7556 3.75 16.4669 3.75H8.03216C6.74828 3.75 5.75921 4.19943 5.08745 4.92012Z" fill="#000000" />
<path fill-rule="evenodd" clip-rule="evenodd" d="M8.13833 7.45091C8.26272 7.18977 8.52619 7.02344 8.81544 7.02344H17.005C17.2623 7.02344 17.5017 7.15542 17.6391 7.37306C17.7765 7.5907 17.7927 7.86359 17.6821 8.09596L16.5109 10.5548L17.6877 13.1432C17.7793 13.3447 17.7772 13.5764 17.6821 13.7762L16.3608 16.5501C16.2364 16.8113 15.9729 16.9776 15.6837 16.9776H7.49414C7.23676 16.9776 6.99735 16.8456 6.85995 16.628C6.72255 16.4103 6.70635 16.1374 6.81703 15.9051L7.98821 13.4463L6.81139 10.8578C6.71979 10.6563 6.72186 10.4247 6.81703 10.2249L8.13833 7.45091ZM9.28893 8.52344L8.32137 10.5548L9.49819 13.1432C9.58979 13.3447 9.58772 13.5764 9.49255 13.7762L8.68212 15.4776H15.2102L16.1777 13.4463L15.0009 10.8578C14.9093 10.6563 14.9114 10.4247 15.0065 10.2249L15.817 8.52344H9.28893Z" fill="#000000" />
<path fill-rule="evenodd" clip-rule="evenodd" d="M8.06445 13.4355C8.06445 13.0213 8.40024 12.6855 8.81445 12.6855H17.004C17.4182 12.6855 17.754 13.0213 17.754 13.4355C17.754 13.8498 17.4182 14.1855 17.004 14.1855H8.81445C8.40024 14.1855 8.06445 13.8498 8.06445 13.4355Z" fill="#000000" />
<path fill-rule="evenodd" clip-rule="evenodd" d="M6.74414 10.5586C6.74414 10.1444 7.07993 9.80859 7.49414 9.80859H15.6846C16.0988 9.80859 16.4346 10.1444 16.4346 10.5586C16.4346 10.9728 16.0988 11.3086 15.6846 11.3086H7.49414C7.07993 11.3086 6.74414 10.9728 6.74414 10.5586Z" fill="#000000" />
</svg>