<svg width="24px"  height="24px"  viewBox="0 0 25 24" fill="none" xmlns="http://www.w3.org/2000/svg">
<path fill-rule="evenodd" clip-rule="evenodd" d="M3.9902 3.89737C4.97468 2.84117 6.37669 2.25 8.03216 2.25H16.4669C18.1262 2.25 19.5288 2.84084 20.5129 3.89765C21.4913 4.94841 22 6.39889 22 8.02638V15.9736C22 17.6011 21.4913 19.0516 20.5127 20.1024C19.5285 21.1592 18.1256 21.75 16.4659 21.75H8.03216C6.3728 21.75 4.97038 21.1591 3.98657 20.1023C3.00842 19.0515 2.5 17.601 2.5 15.9736V8.02638C2.5 6.39806 3.01117 4.94771 3.9902 3.89737ZM5.08745 4.92012C4.41024 5.64666 4 6.70951 4 8.02638V15.9736C4 17.2914 4.40861 18.3541 5.08451 19.0802C5.75475 19.8003 6.74341 20.25 8.03216 20.25H16.4659C17.7552 20.25 18.7444 19.8002 19.415 19.0801C20.0912 18.354 20.5 17.2913 20.5 15.9736V8.02638C20.5 6.70868 20.0912 5.64597 19.4151 4.91984C18.7446 4.19975 17.7556 3.75 16.4669 3.75H8.03216C6.74828 3.75 5.75921 4.19943 5.08745 4.92012Z" fill="#000000" />
<path fill-rule="evenodd" clip-rule="evenodd" d="M8.00781 10.8555C8.00781 10.4413 8.3436 10.1055 8.75781 10.1055H15.7418C16.156 10.1055 16.4918 10.4413 16.4918 10.8555C16.4918 11.2697 16.156 11.6055 15.7418 11.6055H8.75781C8.3436 11.6055 8.00781 11.2697 8.00781 10.8555Z" fill="#000000" />
<path fill-rule="evenodd" clip-rule="evenodd" d="M8.00781 13.207C8.00781 12.7928 8.3436 12.457 8.75781 12.457H15.7418C16.156 12.457 16.4918 12.7928 16.4918 13.207C16.4918 13.6212 16.156 13.957 15.7418 13.957H8.75781C8.3436 13.957 8.00781 13.6212 8.00781 13.207Z" fill="#000000" />
<path fill-rule="evenodd" clip-rule="evenodd" d="M12.114 12.5571C12.4741 12.7618 12.6001 13.2196 12.3955 13.5797L10.576 16.7808C10.3713 17.1409 9.91346 17.2669 9.55335 17.0622C9.19324 16.8575 9.06724 16.3997 9.27192 16.0396L11.0914 12.8385C11.2961 12.4784 11.7539 12.3524 12.114 12.5571Z" fill="#000000" />
<path fill-rule="evenodd" clip-rule="evenodd" d="M12.2291 12.5571C12.5892 12.3524 13.0471 12.4784 13.2518 12.8385L15.0712 16.0396C15.2759 16.3997 15.1499 16.8575 14.7898 17.0622C14.4297 17.2669 13.9718 17.1409 13.7672 16.7808L11.9477 13.5797C11.743 13.2196 11.869 12.7618 12.2291 12.5571Z" fill="#000000" />
<path fill-rule="evenodd" clip-rule="evenodd" d="M9.55567 6.93968C9.9159 6.73521 10.3737 6.86146 10.5782 7.22169L12.4317 10.487C12.6361 10.8472 12.5099 11.305 12.1497 11.5095C11.7894 11.7139 11.3317 11.5877 11.1272 11.2275L9.27367 7.96217C9.06919 7.60194 9.19545 7.14416 9.55567 6.93968Z" fill="#000000" />
<path fill-rule="evenodd" clip-rule="evenodd" d="M14.7903 6.93968C15.1505 7.14416 15.2768 7.60194 15.0723 7.96217L13.2188 11.2275C13.0143 11.5877 12.5565 11.7139 12.1963 11.5095C11.8361 11.305 11.7098 10.8472 11.9143 10.487L13.7678 7.22169C13.9723 6.86146 14.4301 6.73521 14.7903 6.93968Z" fill="#000000" />
</svg>