<svg width="24px"  height="24px"  viewBox="0 0 25 24" fill="none" xmlns="http://www.w3.org/2000/svg">
<path fill-rule="evenodd" clip-rule="evenodd" d="M12.25 3.75C7.69329 3.75 4 7.44329 4 12C4 16.5567 7.69329 20.25 12.25 20.25C16.8067 20.25 20.5 16.5567 20.5 12C20.5 7.44329 16.8067 3.75 12.25 3.75ZM2.5 12C2.5 6.61487 6.86487 2.25 12.25 2.25C17.6351 2.25 22 6.61487 22 12C22 17.3851 17.6351 21.75 12.25 21.75C6.86487 21.75 2.5 17.3851 2.5 12Z" fill="#000000" />
<path fill-rule="evenodd" clip-rule="evenodd" d="M12.2511 8.8125C10.4967 8.8125 9.06836 10.2406 9.06836 11.9962C9.06836 12.194 9.08973 12.3896 9.12695 12.5838C9.20492 12.9906 8.93835 13.3836 8.53154 13.4616C8.12473 13.5395 7.73174 13.273 7.65377 12.8662C7.60148 12.5934 7.56836 12.3024 7.56836 11.9962C7.56836 9.41241 9.66802 7.3125 12.2511 7.3125C12.6653 7.3125 13.0011 7.64829 13.0011 8.0625C13.0011 8.47671 12.6653 8.8125 12.2511 8.8125Z" fill="#000000" />
<path fill-rule="evenodd" clip-rule="evenodd" d="M15.9803 10.5311C16.3871 10.4532 16.7801 10.7197 16.8581 11.1265C16.9103 11.3994 16.9435 11.6903 16.9435 11.9965C16.9435 14.5891 14.8438 16.689 12.252 16.689C11.8377 16.689 11.502 16.3532 11.502 15.939C11.502 15.5247 11.8377 15.189 12.252 15.189C14.0151 15.189 15.4435 13.7609 15.4435 11.9965C15.4435 11.7987 15.4221 11.6031 15.3849 11.4089C15.3069 11.0021 15.5735 10.6091 15.9803 10.5311Z" fill="#000000" />
<path fill-rule="evenodd" clip-rule="evenodd" d="M16.7467 8.28909C16.9463 8.65204 16.8139 9.10808 16.4509 9.30769L8.11158 13.8943C7.74863 14.0939 7.29259 13.9615 7.09298 13.5986C6.89336 13.2356 7.02576 12.7796 7.3887 12.58L15.7281 7.99337C16.091 7.79375 16.547 7.92615 16.7467 8.28909Z" fill="#000000" />
<path fill-rule="evenodd" clip-rule="evenodd" d="M17.4088 10.4102C17.6084 10.7731 17.476 11.2292 17.113 11.4288L8.77368 16.0154C8.41074 16.215 7.9547 16.0826 7.75509 15.7197C7.55547 15.3567 7.68787 14.9007 8.05081 14.7011L16.3902 10.1145C16.7531 9.91484 17.2091 10.0472 17.4088 10.4102Z" fill="#000000" />
</svg>