<svg width="24px"  height="24px"  viewBox="0 0 25 24" fill="none" xmlns="http://www.w3.org/2000/svg">
<path fill-rule="evenodd" clip-rule="evenodd" d="M14.9146 5.32918C15.1687 5.20214 15.4727 5.22956 15.7 5.4L21.7 9.9C21.8889 10.0416 22 10.2639 22 10.5C22 10.7361 21.8889 10.9584 21.7 11.1L15.7 15.6C15.4727 15.7705 15.1687 15.7979 14.9146 15.6708C14.6605 15.5438 14.5 15.2841 14.5 15V12.75H9.25C8.83579 12.75 8.5 12.4142 8.5 12V10.5L4.5 13.5L8.5 16.5V15C8.5 14.5858 8.83579 14.25 9.25 14.25H12.25C12.6642 14.25 13 14.5858 13 15C13 15.4142 12.6642 15.75 12.25 15.75H10V18C10 18.2841 9.8395 18.5438 9.58541 18.6708C9.33132 18.7979 9.02726 18.7705 8.8 18.6L2.8 14.1C2.61115 13.9584 2.5 13.7361 2.5 13.5C2.5 13.2639 2.61115 13.0416 2.8 12.9L8.8 8.4C9.02726 8.22956 9.33132 8.20214 9.58541 8.32918C9.8395 8.45623 10 8.71593 10 9V11.25H15.25C15.6642 11.25 16 11.5858 16 12V13.5L20 10.5L16 7.5V9C16 9.41422 15.6642 9.75 15.25 9.75H12.25C11.8358 9.75 11.5 9.41422 11.5 9C11.5 8.58579 11.8358 8.25 12.25 8.25H14.5V6C14.5 5.71593 14.6605 5.45623 14.9146 5.32918Z" fill="#000000" />
</svg>