<svg width="24px"  height="24px"  viewBox="0 0 25 24" fill="none" xmlns="http://www.w3.org/2000/svg">
<path fill-rule="evenodd" clip-rule="evenodd" d="M13.9558 6.73578C15.1237 5.56697 17.0181 5.5675 18.1865 6.73581L20.6754 9.22471C22.4404 10.9897 22.4404 13.8513 20.6754 15.6163C20.6754 15.6163 20.6754 15.6163 20.6754 15.6164L15.8659 20.4268L15.8659 20.4268C14.1009 22.1918 11.2383 22.1918 9.47325 20.4268C9.18036 20.1339 9.18036 19.659 9.47325 19.3662L15.8755 12.9639C16.1577 12.6817 16.2716 12.2944 16.2168 11.9271L11.7922 16.3518C10.0271 18.118 7.16424 18.118 5.39918 16.3518C5.10644 16.0588 5.10653 15.5841 5.39939 15.2913L13.9555 6.73611C13.9556 6.736 13.9557 6.73589 13.9558 6.73578ZM17.1258 7.79647C16.5428 7.21351 15.5984 7.21394 15.0168 7.79618L15.0164 7.7965L7.05655 15.7555C8.21522 16.443 9.73491 16.2884 10.7311 15.2915L10.7313 15.2913L15.8541 10.1685C16.1422 9.88042 16.6076 9.87501 16.9023 10.1563L16.9237 10.1768L16.9365 10.1893C17.9945 11.2486 17.995 12.9657 16.9362 14.0246L11.1306 19.8301C12.2893 20.517 13.809 20.3623 14.8052 19.3662C14.8052 19.3662 14.8052 19.3662 14.8052 19.3662L19.6146 14.5558L19.6147 14.5557C20.7939 13.3765 20.7939 11.4646 19.6147 10.2854L17.1258 7.79647Z" fill="#000000" />
<path fill-rule="evenodd" clip-rule="evenodd" d="M8.63324 3.57377C10.3983 1.80874 13.2599 1.80874 15.0249 3.57377C15.3178 3.86665 15.3178 4.3415 15.0249 4.6344L4.88445 14.7758C4.7438 14.9165 4.55303 14.9955 4.35411 14.9955C4.1552 14.9955 3.96442 14.9165 3.82377 14.7759C2.05874 13.0108 2.05874 10.1483 3.82377 8.38324L8.63324 3.57377ZM13.3676 4.1705C12.2091 3.48361 10.6901 3.63825 9.6939 4.63443L4.88443 9.4439C3.88826 10.4401 3.73361 11.9597 4.42048 13.1184L13.3676 4.1705Z" fill="#000000" />
</svg>