<svg width="24px"  height="24px"  viewBox="0 0 25 24" fill="none" xmlns="http://www.w3.org/2000/svg">
<path fill-rule="evenodd" clip-rule="evenodd" d="M3.9902 3.89737C4.97468 2.84117 6.37669 2.25 8.03216 2.25H16.4669C18.1262 2.25 19.5288 2.84084 20.5129 3.89765C21.4913 4.94841 22 6.39889 22 8.02638V15.9736C22 17.6011 21.4913 19.0516 20.5127 20.1024C19.5285 21.1592 18.1256 21.75 16.4659 21.75H8.03216C6.3728 21.75 4.97038 21.1591 3.98657 20.1023C3.00842 19.0515 2.5 17.601 2.5 15.9736V8.02638C2.5 6.39806 3.01117 4.94771 3.9902 3.89737ZM5.08745 4.92012C4.41024 5.64666 4 6.70951 4 8.02638V15.9736C4 17.2914 4.40861 18.3541 5.08451 19.0802C5.75475 19.8003 6.74341 20.25 8.03216 20.25H16.4659C17.7552 20.25 18.7444 19.8002 19.415 19.0801C20.0912 18.354 20.5 17.2913 20.5 15.9736V8.02638C20.5 6.70868 20.0912 5.64597 19.4151 4.91984C18.7446 4.19975 17.7556 3.75 16.4669 3.75H8.03216C6.74828 3.75 5.75921 4.19943 5.08745 4.92012Z" fill="#000000" />
<path fill-rule="evenodd" clip-rule="evenodd" d="M8.28711 8.19922C8.28711 7.78501 8.6229 7.44922 9.03711 7.44922H15.4646C15.8788 7.44922 16.2146 7.78501 16.2146 8.19922C16.2146 8.61343 15.8788 8.94922 15.4646 8.94922H9.03711C8.6229 8.94922 8.28711 8.61343 8.28711 8.19922Z" fill="#000000" />
<path fill-rule="evenodd" clip-rule="evenodd" d="M12.25 7.45117C12.6642 7.45117 13 7.78696 13 8.20117V16.2418C13 16.656 12.6642 16.9918 12.25 16.9918C11.8358 16.9918 11.5 16.656 11.5 16.2418V8.20117C11.5 7.78696 11.8358 7.45117 12.25 7.45117Z" fill="#000000" />
<path fill-rule="evenodd" clip-rule="evenodd" d="M10.1848 11.2619C10.3283 11.6504 10.1297 12.0817 9.74111 12.2252C9.45996 12.3291 9.28092 12.435 9.18239 12.5182C9.28709 12.6063 9.47657 12.7174 9.76982 12.8254C10.368 13.0457 11.2446 13.1973 12.2504 13.1973C13.2556 13.1973 14.1322 13.0457 14.7306 12.8254C15.0239 12.7174 15.2135 12.6062 15.3183 12.5182C15.2197 12.435 15.0407 12.3291 14.7596 12.2252C14.371 12.0817 14.1724 11.6504 14.3159 11.2619C14.4594 10.8733 14.8907 10.6746 15.2793 10.8181C15.6708 10.9627 16.0408 11.1537 16.3261 11.4068C16.6134 11.6616 16.8738 12.0369 16.8738 12.5229C16.8738 13.0168 16.5986 13.3928 16.3116 13.6423C16.0225 13.8936 15.6476 14.0862 15.249 14.233C14.4457 14.5288 13.3857 14.6973 12.2504 14.6973C11.1146 14.6973 10.0545 14.5288 9.25136 14.233C8.85275 14.0861 8.47789 13.8936 8.18886 13.6422C7.90188 13.3926 7.62695 13.0166 7.62695 12.5229C7.62695 12.0369 7.88732 11.6616 8.17458 11.4068C8.45996 11.1537 8.82992 10.9627 9.22144 10.8181C9.61 10.6746 10.0413 10.8733 10.1848 11.2619ZM15.3874 12.5901C15.3873 12.5901 15.3866 12.589 15.3854 12.5866C15.387 12.589 15.3876 12.5901 15.3874 12.5901ZM15.3878 12.448C15.3891 12.4454 15.3899 12.4441 15.3901 12.4441C15.3902 12.4441 15.3895 12.4454 15.3878 12.448ZM9.1107 12.4443C9.11082 12.4443 9.11169 12.4456 9.11298 12.4482C9.11123 12.4456 9.11058 12.4443 9.1107 12.4443ZM9.11531 12.5866C9.11416 12.589 9.11337 12.5901 9.11327 12.5901C9.11316 12.5901 9.11374 12.589 9.11531 12.5866Z" fill="#000000" />
</svg>