<svg width="24px"  height="24px"  viewBox="0 0 25 24" fill="none" xmlns="http://www.w3.org/2000/svg">
<path fill-rule="evenodd" clip-rule="evenodd" d="M6.35022 6.01322C6.35003 6.01362 6.34983 6.01401 6.34964 6.0144L4.18457 10.5298C3.82014 11.2586 4.01059 12.2151 4.63879 12.7839L10.8781 18.4481C10.8874 18.4566 10.8965 18.4653 10.9054 18.4742C11.384 18.9548 11.8375 19.1179 12.236 19.1106C12.6463 19.1031 13.1207 18.9122 13.6203 18.4519L13.6245 18.4481L19.8616 12.7868C19.862 12.7864 19.8624 12.7861 19.8628 12.7857C20.4869 12.2132 20.6805 11.2546 20.318 10.5297L20.3125 10.5186L18.1537 6.01617C17.7984 5.29983 17.2499 4.88867 16.6933 4.88867H7.83648C7.26737 4.88867 6.68846 5.31537 6.35022 6.01322ZM4.99952 5.36082C5.49031 4.34698 6.49699 3.38867 7.83648 3.38867H16.6933C18.0446 3.38867 19.0091 4.36155 19.5003 5.35526L19.5043 5.36332L21.6626 9.86488C22.3408 11.2283 21.9585 12.9004 20.8746 13.893L20.8722 13.8952L14.6368 19.555C14.6361 19.5557 14.6353 19.5563 14.6346 19.557C13.9457 20.191 13.1361 20.5943 12.2636 20.6104C11.3841 20.6265 10.5599 20.2471 9.85645 19.5466L3.63196 13.8958C3.63187 13.8957 3.63205 13.8959 3.63196 13.8958C2.53206 12.8996 2.16343 11.2247 2.83988 9.86484L4.99952 5.36082Z" fill="#000000" />
<path fill-rule="evenodd" clip-rule="evenodd" d="M10.3331 10.7375C10.4771 11.1258 10.2791 11.5574 9.89071 11.7014C9.66182 11.7863 9.50762 11.8716 9.41316 11.9414C9.51336 12.0154 9.67694 12.1053 9.91732 12.1937C10.4777 12.3998 11.302 12.5425 12.2501 12.5425C13.1981 12.5425 14.0225 12.3998 14.5828 12.1937C14.8232 12.1053 14.9868 12.0154 15.087 11.9414C14.9925 11.8716 14.8383 11.7863 14.6094 11.7014C14.2211 11.5574 14.023 11.1258 14.167 10.7375C14.3111 10.3491 14.7427 10.151 15.131 10.2951C15.5036 10.4332 15.8584 10.6162 16.1332 10.8601C16.41 11.106 16.6642 11.471 16.6642 11.9459C16.6642 12.4291 16.3952 12.7951 16.1186 13.0355C15.84 13.2777 15.4804 13.4618 15.1007 13.6015C14.3354 13.883 13.3277 14.0425 12.2501 14.0425C11.1724 14.0425 10.1647 13.883 9.39942 13.6015C9.01974 13.4618 8.66011 13.2777 8.38156 13.0355C8.10497 12.7951 7.83594 12.4291 7.83594 11.9459C7.83594 11.471 8.09011 11.106 8.36699 10.8601C8.64179 10.6162 8.99651 10.4332 9.36912 10.2951C9.75749 10.151 10.1891 10.3491 10.3331 10.7375ZM15.1828 12.0297C15.1827 12.0297 15.1821 12.0288 15.1811 12.027C15.1823 12.0288 15.1828 12.0297 15.1828 12.0297ZM15.1834 11.8541C15.1847 11.8518 15.1855 11.8506 15.1856 11.8506C15.1857 11.8506 15.1851 11.8518 15.1834 11.8541ZM9.31452 11.8506C9.31462 11.8506 9.31546 11.8518 9.31677 11.8541C9.31507 11.8518 9.31442 11.8506 9.31452 11.8506ZM9.31909 12.027C9.31809 12.0288 9.31745 12.0297 9.31738 12.0297C9.31731 12.0297 9.31782 12.0288 9.31909 12.027Z" fill="#000000" />
<path fill-rule="evenodd" clip-rule="evenodd" d="M8.46094 7.85742C8.46094 7.44321 8.79672 7.10742 9.21094 7.10742H15.2919C15.7061 7.10742 16.0419 7.44321 16.0419 7.85742C16.0419 8.27164 15.7061 8.60742 15.2919 8.60742H9.21094C8.79672 8.60742 8.46094 8.27164 8.46094 7.85742Z" fill="#000000" />
<path fill-rule="evenodd" clip-rule="evenodd" d="M12.25 7.10742C12.6642 7.10742 13 7.44321 13 7.85742V15.4649C13 15.8792 12.6642 16.2149 12.25 16.2149C11.8358 16.2149 11.5 15.8792 11.5 15.4649V7.85742C11.5 7.44321 11.8358 7.10742 12.25 7.10742Z" fill="#000000" />
</svg>