<svg width="24px"  height="24px"  viewBox="0 0 25 24" fill="none" xmlns="http://www.w3.org/2000/svg">
<path fill-rule="evenodd" clip-rule="evenodd" d="M12.25 3.75C7.69329 3.75 4 7.44329 4 12C4 16.5567 7.69329 20.25 12.25 20.25C16.8067 20.25 20.5 16.5567 20.5 12C20.5 7.44329 16.8067 3.75 12.25 3.75ZM2.5 12C2.5 6.61487 6.86487 2.25 12.25 2.25C17.6351 2.25 22 6.61487 22 12C22 17.3851 17.6351 21.75 12.25 21.75C6.86487 21.75 2.5 17.3851 2.5 12Z" fill="#000000" />
<path fill-rule="evenodd" clip-rule="evenodd" d="M10.314 7.34961C9.73745 7.34961 9.35352 7.73411 9.35352 8.30912V15.6891C9.35352 16.2398 9.80214 16.6496 10.314 16.6496H14.094C14.6688 16.6496 15.077 16.2557 15.144 15.7373V8.30912C15.144 7.75944 14.6954 7.34961 14.1845 7.34961H10.314ZM7.85352 8.30912C7.85352 6.90511 8.90958 5.84961 10.314 5.84961H14.1845C15.4716 5.84961 16.644 6.87978 16.644 8.30912V15.7796C16.644 15.8047 16.6427 15.8297 16.6402 15.8546C16.513 17.1202 15.4862 18.1496 14.094 18.1496H10.314C9.02586 18.1496 7.85352 17.1194 7.85352 15.6891V8.30912Z" fill="#000000" />
<path fill-rule="evenodd" clip-rule="evenodd" d="M12.248 12.5996C12.6623 12.5996 12.998 12.9354 12.998 13.3496V15.1496C12.998 15.5638 12.6623 15.8996 12.248 15.8996C11.8338 15.8996 11.498 15.5638 11.498 15.1496V13.3496C11.498 12.9354 11.8338 12.5996 12.248 12.5996Z" fill="#000000" />
<path fill-rule="evenodd" clip-rule="evenodd" d="M12.248 8.09961C12.6623 8.09961 12.998 8.4354 12.998 8.84961V10.6496C12.998 11.0638 12.6623 11.3996 12.248 11.3996C11.8338 11.3996 11.498 11.0638 11.498 10.6496V8.84961C11.498 8.4354 11.8338 8.09961 12.248 8.09961Z" fill="#000000" />
<path fill-rule="evenodd" clip-rule="evenodd" d="M10.1484 13.3496C10.1484 12.9354 10.4842 12.5996 10.8984 12.5996H13.5984C14.0127 12.5996 14.3484 12.9354 14.3484 13.3496C14.3484 13.7638 14.0127 14.0996 13.5984 14.0996H10.8984C10.4842 14.0996 10.1484 13.7638 10.1484 13.3496Z" fill="#000000" />
<path fill-rule="evenodd" clip-rule="evenodd" d="M10.1484 10.6484C10.1484 10.2342 10.4842 9.89844 10.8984 9.89844H13.5984C14.0127 9.89844 14.3484 10.2342 14.3484 10.6484C14.3484 11.0627 14.0127 11.3984 13.5984 11.3984H10.8984C10.4842 11.3984 10.1484 11.0627 10.1484 10.6484Z" fill="#000000" />
</svg>