<svg width="24px"  height="24px"  viewBox="0 0 25 24" fill="none" xmlns="http://www.w3.org/2000/svg">
<path d="M16.466 21.75H8.032C4.723 21.75 2.5 19.429 2.5 15.974V8.02698C2.5 4.57198 4.723 2.25 8.032 2.25H16.467C19.776 2.25 22 4.57198 22 8.02698V15.974C22 19.429 19.776 21.75 16.466 21.75ZM8.032 3.75C5.583 3.75 4 5.42898 4 8.02698V15.974C4 18.574 5.583 20.25 8.032 20.25H16.466C18.917 20.25 20.5 18.572 20.5 15.974V8.02698C20.5 5.42698 18.917 3.75 16.467 3.75H8.032Z" fill="#000000" />
<path d="M11.7402 17.5768C11.687 17.5766 11.6339 17.573 11.5812 17.5658C11.3792 17.5404 11.1875 17.4624 11.0251 17.3395C10.8628 17.2167 10.7356 17.0533 10.6562 16.8658L6.92723 8.0598C6.84434 7.86462 6.81596 7.65064 6.84511 7.4406C6.87426 7.23056 6.95984 7.03235 7.09274 6.86711C7.22565 6.70188 7.40089 6.5758 7.59979 6.50231C7.7987 6.42882 8.01382 6.41069 8.22223 6.44982L14.5512 7.26879C14.9554 7.32203 15.3304 7.50817 15.6172 7.79784L17.3172 9.5208C17.5241 9.72228 17.6489 9.99341 17.6674 10.2816C17.6858 10.5698 17.5967 10.8546 17.4172 11.0808L12.6582 17.1328C12.5493 17.272 12.4099 17.3844 12.2508 17.4614C12.0917 17.5384 11.917 17.5779 11.7402 17.5768ZM8.53123 8.00084L11.8212 15.7678L16.0572 10.3788L14.5492 8.84679C14.4982 8.79451 14.4308 8.76133 14.3582 8.7528L8.53123 8.00084ZM16.2502 10.5758L16.2732 10.5988L16.2502 10.5758ZM7.98623 7.9298H8.00624H7.98623Z" fill="#000000" />
<path d="M11.7598 17.576H11.6908C11.4927 17.5575 11.31 17.4612 11.1828 17.3082C11.0555 17.1553 10.994 16.9581 11.0118 16.76L11.4688 11.75L7.19484 7.95699C7.12116 7.89133 7.06114 7.81178 7.01821 7.72292C6.97527 7.63406 6.95026 7.53763 6.9446 7.43911C6.93316 7.24013 7.00123 7.0448 7.13384 6.89602C7.26645 6.74723 7.45273 6.65721 7.65171 6.64577C7.85068 6.63433 8.04605 6.70237 8.19484 6.83498L12.7488 10.876C12.8367 10.9541 12.9049 11.0516 12.9482 11.1608C12.9914 11.2701 13.0084 11.3879 12.9978 11.505L12.5068 16.894C12.4899 17.0804 12.4038 17.2537 12.2656 17.3799C12.1274 17.5061 11.947 17.576 11.7598 17.576Z" fill="#000000" />
<path d="M12.25 12.1854C12.1107 12.1854 11.9742 12.1467 11.8557 12.0734C11.7372 12.0002 11.6415 11.8954 11.5792 11.7708C11.5169 11.6462 11.4905 11.5068 11.503 11.3681C11.5155 11.2293 11.5664 11.0968 11.65 10.9854L14.15 7.69441C14.2096 7.61601 14.2841 7.55017 14.3692 7.50056C14.4543 7.45094 14.5483 7.41856 14.6459 7.40528C14.7435 7.392 14.8427 7.39809 14.938 7.42317C15.0332 7.44825 15.1226 7.49184 15.201 7.55146C15.2794 7.61108 15.3453 7.68556 15.3949 7.77064C15.4445 7.85572 15.4769 7.94972 15.4902 8.04731C15.5034 8.14491 15.4974 8.24418 15.4723 8.33943C15.4472 8.43467 15.4036 8.52403 15.344 8.60243L14.114 10.2185L16.733 9.58943C16.9265 9.54301 17.1305 9.57534 17.3001 9.67933C17.4697 9.78332 17.5911 9.95045 17.6375 10.1439C17.6839 10.3374 17.6516 10.5414 17.5476 10.711C17.4436 10.8806 17.2765 11.002 17.083 11.0484L12.417 12.1684C12.3621 12.1803 12.3061 12.186 12.25 12.1854Z" fill="#000000" />
</svg>