<svg width="24px"  height="24px"  viewBox="0 0 25 24" fill="none" xmlns="http://www.w3.org/2000/svg">
<path d="M12.25 21.75C10.3216 21.75 8.43657 21.1782 6.83319 20.1068C5.22981 19.0355 3.98013 17.5128 3.24217 15.7312C2.50422 13.9496 2.31114 11.9892 2.68735 10.0979C3.06356 8.20656 3.99215 6.46931 5.35572 5.10575C6.71928 3.74219 8.45656 2.81356 10.3479 2.43735C12.2392 2.06115 14.1996 2.25421 15.9812 2.99216C17.7628 3.73012 19.2855 4.97985 20.3568 6.58323C21.4282 8.18661 22 10.0717 22 12C21.9971 14.585 20.9689 17.0632 19.1411 18.8911C17.3132 20.7189 14.835 21.7471 12.25 21.75ZM12.25 3.75004C10.6183 3.75004 9.02326 4.23383 7.66655 5.14036C6.30985 6.04688 5.25242 7.33538 4.62799 8.84287C4.00357 10.3504 3.8402 12.0092 4.15853 13.6095C4.47685 15.2099 5.26259 16.6799 6.41637 17.8337C7.57015 18.9874 9.04016 19.7731 10.6405 20.0915C12.2408 20.4098 13.8996 20.2465 15.4071 19.622C16.9146 18.9976 18.2031 17.9402 19.1096 16.5835C20.0161 15.2268 20.5 13.6317 20.5 12C20.4974 9.81281 19.6273 7.71589 18.0807 6.16929C16.5341 4.62268 14.4372 3.75268 12.25 3.75004Z" fill="#000000" />
<path d="M12.1201 17.9658C12.0676 17.9655 12.0152 17.9621 11.9631 17.9558C11.7647 17.93 11.5765 17.8524 11.4175 17.731C11.2585 17.6095 11.1342 17.4485 11.0571 17.2639L7.51306 8.89686C7.432 8.70552 7.40425 8.49576 7.43276 8.28993C7.46127 8.08409 7.54496 7.88984 7.67498 7.72773C7.80499 7.56563 7.97647 7.44173 8.17121 7.36921C8.36594 7.29669 8.57668 7.27828 8.78105 7.31587L14.7971 8.09486C15.1888 8.14697 15.5522 8.32775 15.8301 8.60884L17.442 10.2448C17.6453 10.4426 17.768 10.7087 17.7865 10.9916C17.805 11.2746 17.7179 11.5544 17.5421 11.7769L13.0211 17.5258C12.9145 17.6632 12.7779 17.7743 12.6217 17.8505C12.4655 17.9268 12.2939 17.9662 12.1201 17.9658ZM9.13106 8.87684L12.207 16.1378L16.1711 11.0949L14.7621 9.66584C14.7192 9.62278 14.6633 9.59504 14.6031 9.58686L9.13106 8.87684ZM16.3761 11.3029L16.4001 11.3269L16.3761 11.3029ZM8.54906 8.80287H8.57106H8.54906Z" fill="#000000" />
<path d="M12.1405 17.9625C12.1171 17.9625 12.0941 17.9625 12.0715 17.9625C11.8735 17.9444 11.6908 17.8486 11.5635 17.696C11.4362 17.5434 11.3747 17.3465 11.3925 17.1485L11.8235 12.4065L7.77846 8.81549C7.70485 8.74983 7.64489 8.67031 7.60202 8.58148C7.55914 8.49265 7.53418 8.39627 7.52856 8.29779C7.52295 8.19931 7.53678 8.1007 7.56927 8.00757C7.60177 7.91444 7.65229 7.82861 7.71796 7.755C7.78362 7.6814 7.86313 7.62143 7.95196 7.57855C8.04079 7.53568 8.13719 7.51074 8.23567 7.50513C8.33415 7.49951 8.43276 7.51334 8.52589 7.54584C8.61902 7.57833 8.70485 7.6288 8.77846 7.69446L13.1064 11.5365C13.1943 11.6143 13.2626 11.7117 13.3059 11.8208C13.3491 11.9299 13.3661 12.0476 13.3555 12.1645L12.8905 17.2835C12.8727 17.4699 12.7859 17.6429 12.6472 17.7685C12.5084 17.8941 12.3277 17.9633 12.1405 17.9625Z" fill="#000000" />
<path d="M12.6055 12.8418C12.4662 12.8418 12.3297 12.803 12.2112 12.7298C12.0927 12.6565 11.9969 12.5518 11.9346 12.4272C11.8724 12.3026 11.846 12.1631 11.8585 12.0244C11.871 11.8857 11.9219 11.7532 12.0055 11.6418L14.3855 8.51478C14.5059 8.35645 14.6843 8.25242 14.8814 8.2256C15.0785 8.19878 15.2781 8.25137 15.4365 8.37178C15.5948 8.49219 15.6988 8.67059 15.7256 8.86769C15.7525 9.06479 15.6999 9.26447 15.5795 9.4228L14.4795 10.8758L16.8655 10.3018C17.0589 10.2554 17.2629 10.2877 17.4326 10.3917C17.6022 10.4957 17.7236 10.6628 17.77 10.8563C17.8164 11.0498 17.784 11.2537 17.68 11.4234C17.5761 11.593 17.4089 11.7144 17.2155 11.7608L12.7825 12.8258C12.7242 12.8377 12.6649 12.8431 12.6055 12.8418Z" fill="#000000" />
</svg>