<svg width="24px"  height="24px"  viewBox="0 0 25 24" fill="none" xmlns="http://www.w3.org/2000/svg">
<path fill-rule="evenodd" clip-rule="evenodd" d="M12.25 3.75C7.69329 3.75 4 7.44329 4 12C4 16.5567 7.69329 20.25 12.25 20.25C16.8067 20.25 20.5 16.5567 20.5 12C20.5 7.44329 16.8067 3.75 12.25 3.75ZM2.5 12C2.5 6.61487 6.86487 2.25 12.25 2.25C17.6351 2.25 22 6.61487 22 12C22 17.3851 17.6351 21.75 12.25 21.75C6.86487 21.75 2.5 17.3851 2.5 12Z" fill="#000000" />
<path fill-rule="evenodd" clip-rule="evenodd" d="M6.5918 8.875C6.5918 8.46079 6.92758 8.125 7.3418 8.125H10.3152C10.5197 8.125 10.7153 8.20851 10.8568 8.35619C10.9983 8.50388 11.0733 8.70292 11.0645 8.90724C10.983 10.8013 9.42358 12.2939 7.52861 12.2939H7.3418C6.92758 12.2939 6.5918 11.9581 6.5918 11.5439V8.875ZM8.0918 9.625V10.715C8.65799 10.5527 9.12475 10.1514 9.37336 9.625H8.0918Z" fill="#000000" />
<path fill-rule="evenodd" clip-rule="evenodd" d="M10.8418 11.5555C10.8418 9.66029 12.3784 8.125 14.2723 8.125H17.1582C17.5724 8.125 17.9082 8.46079 17.9082 8.875V11.575C17.9082 11.9892 17.5724 12.325 17.1582 12.325H14.9747V17.1745C14.9747 17.5887 14.6389 17.9245 14.2247 17.9245H11.5918C11.1776 17.9245 10.8418 17.5887 10.8418 17.1745V11.5555ZM14.2723 9.625C13.2065 9.625 12.3418 10.4891 12.3418 11.5555V16.4245H13.4747V11.575C13.4747 11.1608 13.8104 10.825 14.2247 10.825H16.4082V9.625H14.2723Z" fill="#000000" />
</svg>