<svg width="24px"  height="24px"  viewBox="0 0 25 24" fill="none" xmlns="http://www.w3.org/2000/svg">
<path fill-rule="evenodd" clip-rule="evenodd" d="M3.9902 3.89737C4.97468 2.84117 6.37669 2.25 8.03216 2.25H16.4669C18.1262 2.25 19.5288 2.84084 20.5129 3.89765C21.4913 4.94841 22 6.39889 22 8.02638V15.9736C22 17.6011 21.4913 19.0516 20.5127 20.1024C19.5285 21.1592 18.1256 21.75 16.4659 21.75H8.03216C6.3728 21.75 4.97038 21.1591 3.98657 20.1023C3.00842 19.0515 2.5 17.601 2.5 15.9736V8.02638C2.5 6.39806 3.01117 4.94771 3.9902 3.89737ZM5.08745 4.92012C4.41024 5.64666 4 6.70951 4 8.02638V15.9736C4 17.2914 4.40861 18.3541 5.08451 19.0802C5.75475 19.8003 6.74341 20.25 8.03216 20.25H16.4659C17.7552 20.25 18.7444 19.8002 19.415 19.0801C20.0912 18.354 20.5 17.2913 20.5 15.9736V8.02638C20.5 6.70868 20.0912 5.64597 19.4151 4.91984C18.7446 4.19975 17.7556 3.75 16.4669 3.75H8.03216C6.74828 3.75 5.75921 4.19943 5.08745 4.92012Z" fill="#000000" />
<path fill-rule="evenodd" clip-rule="evenodd" d="M10.8066 10.8724C10.8066 8.89949 12.4053 7.30078 14.3783 7.30078H17.4159C17.8301 7.30078 18.1659 7.63657 18.1659 8.05078V10.8928C18.1659 11.307 17.8301 11.6428 17.4159 11.6428H15.0786V16.7871C15.0786 17.2013 14.7429 17.5371 14.3286 17.5371H11.5566C11.1424 17.5371 10.8066 17.2013 10.8066 16.7871V10.8724ZM14.3783 8.80078C13.2338 8.80078 12.3066 9.72791 12.3066 10.8724V16.0371H13.5786V10.8928C13.5786 10.4786 13.9144 10.1428 14.3286 10.1428H16.6659V8.80078H14.3783Z" fill="#000000" />
<path fill-rule="evenodd" clip-rule="evenodd" d="M6.33203 8.05078C6.33203 7.63657 6.66782 7.30078 7.08203 7.30078H10.2121C10.4166 7.30078 10.6123 7.38433 10.7538 7.53206C10.8952 7.6798 10.9702 7.8789 10.9614 8.08326C10.8759 10.0556 9.25268 11.6107 7.27857 11.6107H7.08203C6.66782 11.6107 6.33203 11.2749 6.33203 10.8607V8.05078ZM7.83203 8.80078V10.04C8.4818 9.87033 9.01567 9.40889 9.28188 8.80078H7.83203Z" fill="#000000" />
</svg>