<svg width="24px"  height="24px"  viewBox="0 0 25 24" fill="none" xmlns="http://www.w3.org/2000/svg">
<path fill-rule="evenodd" clip-rule="evenodd" d="M3.9902 3.89737C4.97468 2.84117 6.37669 2.25 8.03216 2.25H16.4669C18.1262 2.25 19.5288 2.84084 20.5129 3.89765C21.4913 4.94841 22 6.39889 22 8.02638V15.9736C22 17.6011 21.4913 19.0516 20.5127 20.1024C19.5285 21.1592 18.1256 21.75 16.4659 21.75H8.03216C6.3728 21.75 4.97038 21.1591 3.98657 20.1023C3.00842 19.0515 2.5 17.601 2.5 15.9736V8.02638C2.5 6.39806 3.01117 4.94771 3.9902 3.89737ZM5.08745 4.92012C4.41024 5.64666 4 6.70951 4 8.02638V15.9736C4 17.2914 4.40861 18.3541 5.08451 19.0802C5.75475 19.8003 6.74341 20.25 8.03216 20.25H16.4659C17.7552 20.25 18.7444 19.8002 19.415 19.0801C20.0912 18.354 20.5 17.2913 20.5 15.9736V8.02638C20.5 6.70868 20.0912 5.64597 19.4151 4.91984C18.7446 4.19975 17.7556 3.75 16.4669 3.75H8.03216C6.74828 3.75 5.75921 4.19943 5.08745 4.92012Z" fill="#000000" />
<path fill-rule="evenodd" clip-rule="evenodd" d="M11.7743 6.42395C12.0527 6.1918 12.4574 6.19204 12.7355 6.42453C14.1238 7.58481 15.7072 7.57656 16.3446 7.57323C16.3759 7.57307 16.405 7.57292 16.4316 7.57292C16.6325 7.57292 16.8251 7.65352 16.966 7.79667C17.107 7.93981 17.1846 8.13353 17.1816 8.33441C17.1507 10.3454 17.0693 11.7914 16.9081 12.8576C16.7471 13.9229 16.4969 14.6816 16.0774 15.2639C15.6541 15.8515 15.1119 16.1807 14.5714 16.4798C14.4773 16.5318 14.382 16.5836 14.285 16.6363C13.8138 16.8923 13.3024 17.1701 12.6925 17.6088C12.4309 17.7971 12.0782 17.7971 11.8166 17.6088C11.2072 17.1705 10.6963 16.8928 10.2255 16.6369C10.1281 16.5839 10.0325 16.532 9.93802 16.4797C9.39771 16.1806 8.85585 15.8512 8.43329 15.2632C8.01461 14.6807 7.76565 13.9218 7.60609 12.8566C7.4464 11.7905 7.3667 10.3445 7.33797 8.33363C7.3351 8.13288 7.41284 7.93937 7.55379 7.79639C7.69473 7.65341 7.88712 7.57292 8.08789 7.57292C8.1138 7.57292 8.14217 7.57307 8.17286 7.57323C8.79686 7.57658 10.3816 7.58509 11.7743 6.42395ZM8.85155 9.05975C8.88804 10.6581 8.96425 11.798 9.08954 12.6344C9.2337 13.5967 9.43331 14.0844 9.65135 14.3878C9.8655 14.6858 10.1485 14.8817 10.6645 15.1673C10.7466 15.2128 10.8338 15.2601 10.9258 15.31C11.2965 15.5112 11.745 15.7546 12.2546 16.0898C12.7646 15.7543 13.2136 15.5107 13.5848 15.3094C13.6764 15.2597 13.7633 15.2126 13.8452 15.1672C14.3617 14.8815 14.6454 14.6855 14.8604 14.3871C15.0791 14.0835 15.2796 13.5956 15.425 12.6334C15.5514 11.7973 15.629 10.6578 15.6672 9.06024C14.829 9.01138 13.5163 8.80139 12.2541 7.93915C10.9937 8.79863 9.68543 9.01001 8.85155 9.05975Z" fill="#000000" />
</svg>