<svg width="24px"  height="24px"  viewBox="0 0 25 24" fill="none" xmlns="http://www.w3.org/2000/svg">
<path d="M12.25 21.75C10.3216 21.75 8.43657 21.1782 6.83319 20.1068C5.22981 19.0355 3.98013 17.5128 3.24217 15.7312C2.50422 13.9496 2.31114 11.9892 2.68735 10.0979C3.06356 8.20656 3.99215 6.46931 5.35572 5.10575C6.71928 3.74219 8.45656 2.81356 10.3479 2.43735C12.2392 2.06115 14.1996 2.25421 15.9812 2.99216C17.7628 3.73012 19.2855 4.97985 20.3568 6.58323C21.4282 8.18661 22 10.0717 22 12C21.9971 14.585 20.9689 17.0632 19.1411 18.8911C17.3132 20.7189 14.835 21.7471 12.25 21.75ZM12.25 3.75004C10.6183 3.75004 9.02326 4.23383 7.66655 5.14036C6.30985 6.04688 5.25242 7.33538 4.62799 8.84287C4.00357 10.3504 3.8402 12.0092 4.15853 13.6095C4.47685 15.2099 5.26259 16.6799 6.41637 17.8337C7.57015 18.9874 9.04016 19.7731 10.6405 20.0915C12.2408 20.4098 13.8996 20.2465 15.4071 19.622C16.9146 18.9976 18.2031 17.9402 19.1096 16.5835C20.0161 15.2268 20.5 13.6317 20.5 12C20.4976 9.81273 19.6277 7.71564 18.081 6.16898C16.5343 4.62232 14.4373 3.75242 12.25 3.75004Z" fill="#000000" />
<path d="M13.3756 17.2792C13.1576 17.2792 12.8456 17.2792 12.5186 17.2792H11.1676C11.0164 17.2809 10.8683 17.2363 10.7432 17.1514C10.6181 17.0665 10.5219 16.9454 10.4676 16.8042C7.39762 9.01921 7.38962 8.99518 7.38162 8.97218C7.34442 8.86261 7.33307 8.74592 7.34847 8.63124C7.36386 8.51656 7.4056 8.40698 7.47038 8.31111C7.53517 8.21524 7.62126 8.13569 7.72192 8.07863C7.82259 8.02156 7.93508 7.98854 8.05061 7.98219C8.08661 7.98219 10.3036 7.98219 10.3046 7.98219C10.4556 7.9816 10.6032 8.02664 10.7281 8.1114C10.853 8.19616 10.9494 8.31667 11.0046 8.45717L13.3726 14.4712C14.0676 12.6792 15.1156 9.9802 15.7126 8.4582C15.7853 8.27255 15.9287 8.12336 16.1114 8.04347C16.2941 7.96358 16.501 7.95951 16.6866 8.03218C16.8723 8.10485 17.0214 8.24832 17.1013 8.43098C17.1812 8.61364 17.1853 8.82053 17.1126 9.00618C16.4626 10.6632 15.2776 13.7182 14.5966 15.4732C14.3036 16.2272 14.1046 16.7432 14.0786 16.8072C14.0226 16.9475 13.9255 17.0676 13.8001 17.1519C13.6747 17.2361 13.5267 17.2805 13.3756 17.2792ZM9.19362 9.4792L11.6766 15.7792H12.2766L9.79662 9.4792H9.19362Z" fill="#000000" />
</svg>