<svg width="24px"  height="24px"  viewBox="0 0 25 24" fill="none" xmlns="http://www.w3.org/2000/svg">
<path d="M16.466 21.75H8.032C4.723 21.75 2.5 19.429 2.5 15.974V8.02698C2.5 4.57198 4.723 2.25 8.032 2.25H16.467C19.776 2.25 22 4.57198 22 8.02698V15.974C22 19.429 19.776 21.75 16.466 21.75ZM8.032 3.75C5.583 3.75 4 5.42898 4 8.02698V15.974C4 18.574 5.583 20.25 8.032 20.25H16.466C18.917 20.25 20.5 18.572 20.5 15.974V8.02698C20.5 5.42698 18.917 3.75 16.467 3.75H8.032Z" fill="#000000" />
<path d="M13.433 16.8542C13.213 16.8592 12.874 16.8542 12.533 16.8542H11.107C10.9561 16.8547 10.8085 16.8096 10.6837 16.7248C10.5588 16.6401 10.4623 16.5197 10.407 16.3793C7.18001 8.19625 7.16901 8.16622 7.16401 8.15422C7.1252 8.04438 7.11246 7.92705 7.12682 7.81144C7.14118 7.69584 7.18224 7.58514 7.24675 7.48814C7.31125 7.39114 7.39744 7.31049 7.4985 7.25254C7.59956 7.19459 7.71271 7.1609 7.82901 7.15422C7.86801 7.15422 10.195 7.14622 10.195 7.14622C10.3459 7.14577 10.4935 7.19087 10.6184 7.27561C10.7433 7.36036 10.8397 7.48084 10.895 7.62126L13.425 14.0483C14.156 12.1633 15.286 9.24823 15.925 7.62223C15.9977 7.43658 16.1411 7.28739 16.3238 7.2075C16.5064 7.12761 16.7134 7.1236 16.899 7.19627C17.0847 7.26894 17.2338 7.41235 17.3137 7.59501C17.3936 7.77767 17.3977 7.98462 17.325 8.17027C16.605 10.0063 15.262 13.4702 14.569 15.2582L14.132 16.3843C14.076 16.5236 13.9794 16.6429 13.8547 16.7267C13.7301 16.8105 13.5832 16.8549 13.433 16.8542ZM8.97201 8.64427C9.67201 10.4213 11.105 14.0533 11.618 15.3533H12.331C11.624 13.5593 10.2 9.94025 9.68901 8.64225L8.97201 8.64427Z" fill="#000000" />
</svg>