<svg width="24px"  height="24px"  viewBox="0 0 25 24" fill="none" xmlns="http://www.w3.org/2000/svg">
<path fill-rule="evenodd" clip-rule="evenodd" d="M3.9902 3.89737C4.97468 2.84117 6.37669 2.25 8.03216 2.25H16.4669C18.1262 2.25 19.5288 2.84084 20.5129 3.89765C21.4913 4.94841 22 6.39889 22 8.02638V15.9736C22 17.6011 21.4913 19.0516 20.5127 20.1024C19.5285 21.1592 18.1256 21.75 16.4659 21.75H8.03216C6.3728 21.75 4.97038 21.1591 3.98657 20.1023C3.00842 19.0515 2.5 17.601 2.5 15.9736V8.02638C2.5 6.39806 3.01117 4.94771 3.9902 3.89737ZM5.08745 4.92012C4.41024 5.64666 4 6.70951 4 8.02638V15.9736C4 17.2914 4.40861 18.3541 5.08451 19.0802C5.75475 19.8003 6.74341 20.25 8.03216 20.25H16.4659C17.7552 20.25 18.7444 19.8002 19.415 19.0801C20.0912 18.354 20.5 17.2913 20.5 15.9736V8.02638C20.5 6.70868 20.0912 5.64597 19.4151 4.91984C18.7446 4.19975 17.7556 3.75 16.4669 3.75H8.03216C6.74828 3.75 5.75921 4.19943 5.08745 4.92012Z" fill="#000000" />
<path fill-rule="evenodd" clip-rule="evenodd" d="M17.0803 8.68057C17.4283 8.90525 17.5283 9.36949 17.3036 9.71747L12.8814 16.5662C12.7433 16.7802 12.506 16.9094 12.2514 16.9094C11.9967 16.9094 11.7595 16.7802 11.6213 16.5663L7.19818 9.71753C6.97346 9.36957 7.07337 8.90533 7.42132 8.68061C7.76928 8.45589 8.23352 8.55579 8.45825 8.90374L12.2513 14.7769L16.0434 8.90381C16.2681 8.55583 16.7324 8.45588 17.0803 8.68057Z" fill="#000000" />
<path fill-rule="evenodd" clip-rule="evenodd" d="M9.37803 7.48748C9.50862 7.24385 9.76264 7.0918 10.0391 7.0918H14.4612C14.7376 7.0918 14.9916 7.24382 15.1222 7.48741C15.2528 7.73101 15.2389 8.02669 15.0859 8.25689L12.8753 11.5835C12.7363 11.7927 12.5018 11.9184 12.2507 11.9184C11.9996 11.9184 11.7651 11.7927 11.6261 11.5836L9.41449 8.25702C9.26146 8.02683 9.24745 7.73111 9.37803 7.48748ZM11.4383 8.5918L12.2505 9.81349L13.0623 8.5918H11.4383Z" fill="#000000" />
</svg>