<svg width="24px"  height="24px"  viewBox="0 0 25 24" fill="none" xmlns="http://www.w3.org/2000/svg">
<path fill-rule="evenodd" clip-rule="evenodd" d="M3.9902 3.89737C4.97468 2.84117 6.37669 2.25 8.03216 2.25H16.4669C18.1262 2.25 19.5288 2.84084 20.5129 3.89765C21.4913 4.94841 22 6.39889 22 8.02638V15.9736C22 17.6011 21.4913 19.0516 20.5127 20.1024C19.5285 21.1592 18.1256 21.75 16.4659 21.75H8.03216C6.3728 21.75 4.97038 21.1591 3.98657 20.1023C3.00842 19.0515 2.5 17.601 2.5 15.9736V8.02638C2.5 6.39806 3.01117 4.94771 3.9902 3.89737ZM5.08745 4.92012C4.41024 5.64666 4 6.70951 4 8.02638V15.9736C4 17.2914 4.40861 18.3541 5.08451 19.0802C5.75475 19.8003 6.74341 20.25 8.03216 20.25H16.4659C17.7552 20.25 18.7444 19.8002 19.415 19.0801C20.0912 18.354 20.5 17.2913 20.5 15.9736V8.02638C20.5 6.70868 20.0912 5.64597 19.4151 4.91984C18.7446 4.19975 17.7556 3.75 16.4669 3.75H8.03216C6.74828 3.75 5.75921 4.19943 5.08745 4.92012Z" fill="#000000" />
<path fill-rule="evenodd" clip-rule="evenodd" d="M12.2496 7.18945C12.4486 7.18944 12.6393 7.26846 12.78 7.40912L16.8392 11.4684C16.9799 11.609 17.0589 11.7998 17.0589 11.9987C17.0589 12.1976 16.9799 12.3884 16.8392 12.529L12.78 16.5883C12.6393 16.7289 12.4486 16.808 12.2496 16.8079C12.0507 16.8079 11.8599 16.7289 11.7193 16.5882L7.66101 12.529C7.3682 12.2361 7.3682 11.7613 7.66101 11.4684L11.7193 7.40919C11.8599 7.26851 12.0507 7.18947 12.2496 7.18945ZM12.2497 9.00018L9.25194 11.9987L12.2497 14.9972L15.2483 11.9987L12.2497 9.00018Z" fill="#000000" />
</svg>