<svg width="24px"  height="24px"  viewBox="0 0 25 24" fill="none" xmlns="http://www.w3.org/2000/svg">
<path fill-rule="evenodd" clip-rule="evenodd" d="M3.9902 3.89737C4.97468 2.84117 6.37669 2.25 8.03216 2.25H16.4669C18.1262 2.25 19.5288 2.84084 20.5129 3.89765C21.4913 4.94841 22 6.39889 22 8.02638V15.9736C22 17.6011 21.4913 19.0516 20.5127 20.1024C19.5285 21.1592 18.1256 21.75 16.4659 21.75H8.03216C6.3728 21.75 4.97038 21.1591 3.98657 20.1023C3.00842 19.0515 2.5 17.601 2.5 15.9736V8.02638C2.5 6.39806 3.01117 4.94771 3.9902 3.89737ZM5.08745 4.92012C4.41024 5.64666 4 6.70951 4 8.02638V15.9736C4 17.2914 4.40861 18.3541 5.08451 19.0802C5.75475 19.8003 6.74341 20.25 8.03216 20.25H16.4659C17.7552 20.25 18.7444 19.8002 19.415 19.0801C20.0912 18.354 20.5 17.2913 20.5 15.9736V8.02638C20.5 6.70868 20.0912 5.64597 19.4151 4.91984C18.7446 4.19975 17.7556 3.75 16.4669 3.75H8.03216C6.74828 3.75 5.75921 4.19943 5.08745 4.92012Z" fill="#000000" />
<path fill-rule="evenodd" clip-rule="evenodd" d="M8.91603 9.00195C8.91603 8.58774 9.25181 8.25195 9.66603 8.25195H14.8364C15.1297 8.25195 15.3961 8.42292 15.5182 8.68956C15.6404 8.9562 15.5959 9.26959 15.4044 9.49171L11.303 14.2484H14.8364C15.2506 14.2484 15.5864 14.5842 15.5864 14.9984C15.5864 15.4126 15.2506 15.7484 14.8364 15.7484H9.66603C9.37273 15.7484 9.10635 15.5774 8.98418 15.3108C8.86202 15.0441 8.90649 14.7308 9.09802 14.5086L13.1994 9.75195H9.66603C9.25181 9.75195 8.91603 9.41617 8.91603 9.00195Z" fill="#000000" />
<path fill-rule="evenodd" clip-rule="evenodd" d="M12.25 6.50391C12.6642 6.50391 13 6.83969 13 7.25391V9.00039C13 9.41461 12.6642 9.75039 12.25 9.75039C11.8358 9.75039 11.5 9.41461 11.5 9.00039V7.25391C11.5 6.83969 11.8358 6.50391 12.25 6.50391ZM12.25 14.2478C12.6642 14.2478 13 14.5836 13 14.9978V16.7443C13 17.1585 12.6642 17.4943 12.25 17.4943C11.8358 17.4943 11.5 17.1585 11.5 16.7443V14.9978C11.5 14.5836 11.8358 14.2478 12.25 14.2478Z" fill="#000000" />
</svg>