<svg width="24px"  height="24px"  viewBox="0 0 25 24" fill="none" xmlns="http://www.w3.org/2000/svg">
<path d="M5.40333 16.8691C4.98927 16.8691 4.65333 17.209 4.65333 17.6191C4.65333 17.75 4.68604 17.8721 4.74342 17.978C4.78956 18.0635 4.85157 18.1387 4.92579 18.1992C5.05567 18.3057 5.22193 18.3691 5.40333 18.3691H7.2234C7.42921 18.3691 7.61573 18.2876 7.75123 18.1538C7.82862 18.0776 7.88941 17.9844 7.92774 17.8794C7.95728 17.7983 7.9734 17.7109 7.9734 17.6191C7.9734 17.209 7.63746 16.8691 7.2234 16.8691H5.40333Z" fill="#000000" />
<path fill-rule="evenodd" clip-rule="evenodd" d="M5.73731 21.0391L11.3516 21.0195C11.3818 21.0244 11.4126 21.0278 11.4439 21.0293H11.4893L17.6453 21.019C18.8374 21.019 19.8604 20.5889 20.5803 19.8091C21.2944 19.0391 21.6553 17.9893 21.6524 16.8291L21.6384 6.83887C21.6365 5.6792 21.2712 4.62891 20.5535 3.85938C19.8303 3.08936 18.8054 2.65918 17.6143 2.65918L16.7488 2.66211C16.7266 2.66016 16.7041 2.65918 16.6814 2.65918H16.676L16.6563 2.66016L16.6387 2.66113L16.624 2.6626L12.8054 2.6792H11.8555C10.6653 2.6792 9.6443 3.10938 8.92433 3.88916C8.64991 4.18457 8.4275 4.521 8.25758 4.88916C8.16261 5.09521 8.08399 5.31104 8.02198 5.53516C7.90601 5.95459 7.84815 6.40283 7.84937 6.86914L7.85938 8.93555L6.92237 8.93945H5.7085C4.65748 8.93945 3.7483 9.31885 3.10645 10.0088C2.46925 10.6992 2.1504 11.6294 2.15235 12.6592L2.16334 17.3291C2.16627 18.3589 2.48829 19.2891 3.12745 19.9692C3.77223 20.6592 4.68433 21.0391 5.73731 21.0391ZM13.5574 4.17334L15.9356 4.16504L15.9424 6.48877L14.9915 6.1792C14.8394 6.12939 14.6763 6.12939 14.5244 6.1792L13.5608 6.50098L13.5574 4.17334ZM11.8584 4.1792L12.0574 4.17871L12.0623 7.53906C12.0623 7.7793 12.1785 8.00928 12.3733 8.14941C12.5684 8.28906 12.8193 8.3291 13.0474 8.24902L14.762 7.68555L16.4634 8.23926C16.6924 8.31885 16.9424 8.2793 17.1375 8.12891C17.3313 7.98926 17.4463 7.76904 17.4453 7.5293L17.4356 4.15967L17.6174 4.15918C18.4385 4.15918 19.0493 4.44922 19.4585 4.87891C19.8723 5.3291 20.1375 5.98926 20.1384 6.83887L20.1524 16.8291C20.1543 17.6792 19.8923 18.3491 19.4805 18.7891C19.0733 19.229 18.4644 19.519 17.6423 19.519L14.4277 19.5244C14.5149 19.3921 14.5928 19.2539 14.6616 19.1104C14.9194 18.5723 15.0476 17.959 15.0464 17.3091L15.0354 12.6289C15.0335 11.6094 14.7114 10.6689 14.0713 9.98926C13.4263 9.29883 12.5144 8.91943 11.4614 8.9292L10.3206 8.93115C10.302 8.92969 10.2832 8.9292 10.2644 8.9292C10.2449 8.9292 10.2254 8.93018 10.2063 8.93164L9.35938 8.93311L9.34937 6.86914V6.85938C9.34937 6.01367 9.61183 5.34766 10.0234 4.90918C10.4314 4.46924 11.0403 4.1792 11.8584 4.1792ZM5.71143 10.4395L6.17433 10.4385L6.17848 13.2793C6.17848 13.519 6.29444 13.7393 6.48927 13.8892C6.68434 14.0293 6.93434 14.0591 7.16334 13.9893L8.61036 13.5156L10.0435 13.979C10.2725 14.0591 10.5234 14.019 10.7173 13.8691C10.9124 13.729 11.0264 13.5093 11.0264 13.269L11.0186 10.4302L11.4644 10.4292C12.1465 10.4292 12.6453 10.6592 12.9763 11.0088C13.3132 11.3691 13.5344 11.9189 13.5354 12.6289L13.5464 17.3091C13.5476 17.7871 13.4487 18.1929 13.282 18.5166C13.2337 18.6104 13.1797 18.6973 13.1209 18.7769C13.0808 18.8311 13.0386 18.8818 12.9944 18.9292C12.6653 19.2793 12.1704 19.519 11.4863 19.519L5.73438 19.5391C5.05128 19.5391 4.55445 19.2993 4.2234 18.9492C3.88624 18.5894 3.66529 18.0391 3.66334 17.3291L3.65235 12.6494C3.6504 11.939 3.87037 11.3989 4.20631 11.0293C4.53639 10.6792 5.03248 10.4395 5.71143 10.4395ZM7.67433 10.436L9.51856 10.4326L9.52345 12.23L8.84034 12.0088C8.68824 11.959 8.52442 11.959 8.37232 12.0088L7.67701 12.2368L7.67433 10.436Z" fill="#000000" />
</svg>