<svg width="24px"  height="24px"  viewBox="0 0 24 24" fill="none" xmlns="http://www.w3.org/2000/svg">
<path fill-rule="evenodd" clip-rule="evenodd" d="M10.9268 17.6547C12.0589 17.6211 13.0075 18.5081 13.0414 19.641C13.0753 20.7753 12.1781 21.7154 11.0482 21.749L11.0472 21.749C9.91809 21.781 8.96717 20.8968 8.93451 19.7612C8.90087 18.6272 9.79698 17.6883 10.9268 17.6547L10.9268 17.6547ZM8.93451 19.7612C8.93451 19.761 8.9345 19.7609 8.93449 19.7607L9.68419 19.7393L8.93453 19.7617C8.93452 19.7616 8.93452 19.7614 8.93451 19.7612ZM10.9713 19.1541C10.6613 19.1633 10.425 19.419 10.4339 19.7169L10.4339 19.7179C10.4424 20.0161 10.6937 20.2582 11.0041 20.2496C11.314 20.2401 11.551 19.9835 11.5421 19.6858C11.5331 19.3865 11.2811 19.1449 10.9713 19.1541" fill="#000000" />
<path fill-rule="evenodd" clip-rule="evenodd" d="M3.09307 6.52866C3.20976 6.13122 3.62654 5.90363 4.02397 6.02032L6.10514 6.63134C6.32485 6.69584 6.50305 6.85718 6.58901 7.06941L11.1201 18.2565C11.2756 18.6405 11.0904 19.0777 10.7065 19.2332C10.3226 19.3887 9.8853 19.2036 9.72981 18.8196L5.33479 7.96848L3.60142 7.45957C3.20398 7.34288 2.97638 6.9261 3.09307 6.52866Z" fill="#000000" />
<path fill-rule="evenodd" clip-rule="evenodd" d="M20.8855 15.7353C21.0397 16.1198 20.8529 16.5564 20.4685 16.7105L12.4804 19.9125C12.096 20.0667 11.6593 19.8799 11.5052 19.4954C11.3511 19.111 11.5378 18.6743 11.9223 18.5202L19.9103 15.3182C20.2948 15.1641 20.7314 15.3508 20.8855 15.7353Z" fill="#000000" />
<path fill-rule="evenodd" clip-rule="evenodd" d="M13.7147 5.2131C13.5478 5.13271 13.3198 5.10579 13.0217 5.2209L10.3344 6.25808C10.3343 6.25809 10.3344 6.25807 10.3344 6.25808C10.036 6.37333 9.88721 6.54565 9.81948 6.71436C9.74917 6.8895 9.73425 7.1423 9.85797 7.46199L12.7991 14.6592C12.924 14.9801 13.1084 15.16 13.2833 15.2441C13.4514 15.3249 13.6796 15.3513 13.975 15.2371L16.6636 14.1997C16.9618 14.0846 17.1104 13.9124 17.1781 13.7436C17.2484 13.5684 17.2633 13.3154 17.1399 12.9955L14.198 5.79861C14.0725 5.47663 13.8886 5.29688 13.7147 5.2131ZM15.5933 5.24787C15.3545 4.63859 14.9367 4.13679 14.3657 3.86174C13.7859 3.58239 13.1232 3.57379 12.4815 3.82155C12.4815 3.82154 12.4814 3.82156 12.4815 3.82155L9.79415 4.85873C9.15274 5.1064 8.66742 5.55781 8.42746 6.15552C8.19043 6.74594 8.22363 7.40067 8.4627 8.0127L11.4037 15.2099C11.643 15.8203 12.0624 16.3215 12.6333 16.596C13.2129 16.8746 13.8753 16.8838 14.516 16.6361L17.2038 15.5991C17.8453 15.3514 18.3305 14.8998 18.5702 14.3021C18.807 13.7119 18.7738 13.0574 18.5355 12.4458L15.5933 5.24787Z" fill="#000000" />
<path fill-rule="evenodd" clip-rule="evenodd" d="M13.6652 6.9489C13.8143 7.33533 13.622 7.7695 13.2355 7.91865L12.0603 8.37223C11.6739 8.52138 11.2397 8.32902 11.0905 7.94259C10.9414 7.55616 11.1338 7.12199 11.5202 6.97284L12.6954 6.51926C13.0819 6.37011 13.516 6.56247 13.6652 6.9489Z" fill="#000000" />
</svg>