<svg width="24px"  height="24px"  viewBox="0 0 25 24" fill="none" xmlns="http://www.w3.org/2000/svg">
<path fill-rule="evenodd" clip-rule="evenodd" d="M8.11673 18.9622C8.23941 17.7339 9.33794 16.846 10.5625 16.9682L10.5625 16.9682C11.7895 17.0908 12.6887 18.1813 12.5664 19.4084C12.444 20.637 11.3441 21.5261 10.1194 21.4038L10.1184 21.4037C8.89476 21.2799 7.99275 20.1919 8.11673 18.9622ZM10.4135 18.4608C10.005 18.4201 9.64874 18.7156 9.60929 19.1114L9.60919 19.1125C9.56914 19.5087 9.86009 19.8697 10.2689 19.9113C10.6772 19.9518 11.0344 19.6554 11.0738 19.2597C11.1134 18.8624 10.8218 18.5016 10.4135 18.4608" fill="#000000" />
<path fill-rule="evenodd" clip-rule="evenodd" d="M3.45426 3.17817C3.6253 2.80092 4.06978 2.63375 4.44703 2.80479L6.66767 3.8116C6.87213 3.9043 7.02432 4.08371 7.08242 4.30056L10.6414 17.583C10.7486 17.9831 10.5112 18.3943 10.1111 18.5015C9.711 18.6087 9.29975 18.3713 9.19254 17.9712L5.72531 5.03132L3.82764 4.17094C3.45039 3.9999 3.28322 3.55542 3.45426 3.17817Z" fill="#000000" />
<path fill-rule="evenodd" clip-rule="evenodd" d="M11.072 19.056C10.9648 18.6559 11.2023 18.2446 11.6024 18.1374L19.969 15.8956C20.3691 15.7884 20.7803 16.0258 20.8876 16.4259C20.9948 16.826 20.7573 17.2373 20.3572 17.3445L11.9906 19.5863C11.5905 19.6935 11.1793 19.4561 11.072 19.056Z" fill="#000000" />
<path fill-rule="evenodd" clip-rule="evenodd" d="M14.7689 7.89155C14.7132 7.68387 14.4998 7.56063 14.2921 7.61627L7.71383 9.37891C7.31373 9.48612 6.90248 9.24868 6.79527 8.84858C6.68807 8.44848 6.9255 8.03723 7.3256 7.93002L13.9039 6.16738C14.9117 5.89732 15.9477 6.49544 16.2178 7.50332L18.7611 16.995C18.8683 17.3951 18.6308 17.8064 18.2307 17.9136C17.8306 18.0208 17.4194 17.7834 17.3122 17.3833L14.7689 7.89155Z" fill="#000000" />
</svg>