<svg width="24px"  height="24px"  viewBox="0 0 25 24" fill="none" xmlns="http://www.w3.org/2000/svg">
<path d="M21.4878 6.14896C21.4067 6.55912 21.0127 6.81889 20.6054 6.73881L19.6621 6.55228C22.165 10.2393 21.7939 15.2964 18.5366 18.5791C16.2495 20.8892 13.0727 21.7788 10.1025 21.2491C9.69577 21.169 9.42331 20.7793 9.49655 20.3789C9.56931 19.9693 9.95945 19.6993 10.3676 19.7691C12.8725 20.2188 15.5454 19.4688 17.4717 17.5288C20.2041 14.7749 20.5254 10.5371 18.4458 7.4307L18.2754 8.2891C18.1943 8.689 17.7998 8.95902 17.3935 8.87894C16.9878 8.79936 16.7236 8.39896 16.8037 7.99906L17.3344 5.32914C17.3725 5.12894 17.4878 4.95902 17.6538 4.84916C17.8183 4.7393 18.0205 4.69877 18.2168 4.73881L20.8984 5.26908C21.3047 5.34916 21.5683 5.74906 21.4878 6.14896Z" fill="#000000" />
<path d="M2.01657 17.5489C2.09763 17.1392 2.49265 16.8794 2.89841 16.959L3.84275 17.1455C1.33982 13.4585 1.71091 8.40189 4.9697 5.11918C7.25632 2.80912 10.4326 1.91898 13.4023 2.44926C13.643 2.49662 13.8364 2.65189 13.9394 2.85307C14.0107 2.99271 14.0385 3.15482 14.0088 3.31889C13.9355 3.72904 13.5454 3.99906 13.1377 3.92924C10.6323 3.47904 7.95945 4.22904 6.03366 6.16898C3.30124 8.92289 2.97995 13.1597 5.05905 16.2657L5.22947 15.4092C5.27927 15.1597 5.45212 14.9605 5.6738 14.8658C5.8071 14.8086 5.95798 14.7891 6.11032 14.8189C6.51755 14.899 6.78171 15.2994 6.70066 15.6993L6.17038 18.3692C6.13132 18.5689 6.01657 18.7393 5.85154 18.8492C5.68552 18.959 5.48337 18.9991 5.28855 18.959L2.60544 18.4292C2.19968 18.3492 1.93552 17.9493 2.01657 17.5489Z" fill="#000000" />
<path d="M10.2285 10.689C10.2285 10.2691 10.5634 9.939 10.9785 9.939H12.5273C12.9414 9.939 13.2773 10.2691 13.2773 10.689C13.2773 10.9908 13.0957 11.2544 12.8344 11.3726C12.7407 11.4151 12.6367 11.439 12.5273 11.439H10.9785C10.5634 11.439 10.2285 11.0992 10.2285 10.689Z" fill="#000000" />
<path fill-rule="evenodd" clip-rule="evenodd" d="M13.3764 16.0889L10.1093 16.0791C9.35447 16.0791 8.68552 15.8091 8.20945 15.2891C7.73972 14.7891 7.51169 14.1089 7.51267 13.3789L7.52048 10.2989C7.52243 9.57914 7.75144 8.89896 8.22458 8.3892C8.70261 7.87894 9.37351 7.60893 10.1294 7.60893L13.3965 7.61918C14.1523 7.61918 14.8227 7.8892 15.2983 8.40922C15.7685 8.91898 15.9946 9.59916 15.9926 10.3189L15.9853 13.399C15.9834 14.1192 15.7544 14.8091 15.2817 15.3091C15.0405 15.5664 14.75 15.7627 14.4243 15.8936C14.1045 16.0225 13.7509 16.0889 13.3764 16.0889ZM10.1137 14.5791L13.3803 14.5889C13.5747 14.5889 13.7363 14.5557 13.8696 14.5015C14.0009 14.4478 14.105 14.3736 14.1865 14.2891C14.3564 14.0992 14.4843 13.8091 14.4853 13.399L14.4926 10.3189C14.4936 9.89896 14.3667 9.60941 14.1977 9.42924C14.0346 9.24906 13.7798 9.11918 13.3935 9.11918L10.1255 9.10893C9.7407 9.10893 9.48337 9.2393 9.31931 9.41898C9.23679 9.50736 9.16355 9.62211 9.11032 9.76518C9.05466 9.91459 9.02097 10.0948 9.02048 10.3091L9.01267 13.3789C9.01267 13.7994 9.13962 14.0889 9.30954 14.2691C9.47361 14.4493 9.72947 14.5791 10.1137 14.5791Z" fill="#000000" />
</svg>