<svg width="24px"  height="24px"  viewBox="0 0 25 24" fill="none" xmlns="http://www.w3.org/2000/svg">
<path fill-rule="evenodd" clip-rule="evenodd" d="M13.4641 3.81952C13.2972 3.73914 13.0691 3.71222 12.771 3.82732L10.0837 4.8645C10.0837 4.86452 10.0837 4.86449 10.0837 4.8645C9.78531 4.97975 9.63656 5.15207 9.56882 5.32078C9.49815 5.49682 9.48344 5.75132 9.60923 6.07334L9.6113 6.07862L10.2525 7.7574C10.3775 8.0769 10.5614 8.2562 10.7359 8.34011C10.9041 8.42095 11.1323 8.44727 11.4277 8.33306L14.1163 7.29575C14.1164 7.29572 14.1163 7.29577 14.1163 7.29575C14.4142 7.18066 14.563 7.00835 14.6307 6.83937C14.7015 6.6629 14.7161 6.40812 14.5906 6.08652L14.5889 6.08198L13.9474 4.405C13.9472 4.40435 13.9469 4.40371 13.9467 4.40307C13.8212 4.0823 13.6376 3.90313 13.4641 3.81952ZM14.1151 2.46817C14.6879 2.74415 15.1066 3.24842 15.3451 3.86048L15.3468 3.86478L15.989 5.54382C16.2267 6.15463 16.2594 6.80818 16.023 7.39767C15.7833 7.99535 15.2985 8.44723 14.6566 8.69506L11.9687 9.7321C11.3282 9.97962 10.6654 9.97056 10.086 9.69197C9.51314 9.41656 9.09285 8.91296 8.85396 8.29977L8.85215 8.29512L8.21095 6.61629C7.97288 6.00508 7.94015 5.35145 8.17681 4.76195C8.41677 4.16423 8.90198 3.71286 9.5434 3.46519L12.2307 2.42802C12.2308 2.428 12.2307 2.42803 12.2307 2.42802C12.8725 2.18025 13.5352 2.18882 14.1151 2.46817ZM3.34209 6.52851C3.45878 6.13107 3.87556 5.90347 4.273 6.02016L6.35417 6.63118C6.57387 6.69568 6.75207 6.85702 6.83803 7.06925L11.1263 17.657C11.1431 17.6561 11.16 17.6554 11.1769 17.6549C11.7862 17.6368 12.3424 17.8853 12.7314 18.2954L20.1587 15.3181C20.5432 15.164 20.9798 15.3508 21.1339 15.7352C21.288 16.1197 21.1013 16.5563 20.7168 16.7104L13.2924 19.6865C13.3014 20.8005 12.4131 21.7159 11.2983 21.7491L11.2973 21.7491C10.1682 21.7812 9.21725 20.8969 9.18461 19.7613C9.16756 19.1862 9.38962 18.6613 9.76 18.2792L5.58381 7.96832L3.85044 7.45941C3.453 7.34273 3.22541 6.92594 3.34209 6.52851ZM10.9412 19.2387C10.7806 19.3394 10.678 19.5189 10.684 19.717L10.684 19.7181C10.6925 20.0164 10.944 20.2585 11.2547 20.2497C11.5643 20.24 11.8011 19.9835 11.7922 19.6859C11.7832 19.3866 11.5312 19.145 11.2214 19.1542C11.1625 19.1559 11.1062 19.1666 11.0538 19.1848C11.0227 19.203 10.9899 19.2192 10.9555 19.2331C10.9507 19.235 10.9459 19.2369 10.9412 19.2387ZM16.2613 10.7234C16.0945 10.643 15.8664 10.6161 15.5683 10.7312L12.881 11.7684C12.8809 11.7684 12.881 11.7683 12.881 11.7684C12.5826 11.8836 12.4338 12.0559 12.3661 12.2246C12.2954 12.4007 12.2807 12.6552 12.4065 12.9772L12.4086 12.9825L13.0497 14.6612C13.1747 14.9807 13.3587 15.1601 13.5332 15.244C13.7014 15.3248 13.9296 15.3511 14.2249 15.2369L16.9136 14.1996C16.9137 14.1996 16.9135 14.1996 16.9136 14.1996C17.2118 14.0844 17.3604 13.9122 17.428 13.7435C17.4987 13.5673 17.5134 13.3125 17.3878 12.9901L17.3861 12.9858L16.7447 11.3089C16.7444 11.3082 16.7442 11.3075 16.7439 11.3069C16.6185 10.9861 16.4349 10.807 16.2613 10.7234ZM16.9123 9.37202C17.4852 9.648 17.9039 10.1523 18.1424 10.7643L18.144 10.7686L18.7855 12.4456C18.7858 12.4464 18.7861 12.4472 18.7864 12.4479C19.0239 13.0589 19.0567 13.7125 18.8202 14.302C18.5804 14.8997 18.0955 15.3512 17.4539 15.5989L14.766 16.636C14.1253 16.8837 13.4628 16.8745 12.8832 16.5958C12.3104 16.3204 11.8901 15.8168 11.6512 15.2036L11.6494 15.199L11.0082 13.5202C10.7701 12.909 10.7374 12.2553 10.9741 11.6658C11.214 11.0681 11.6992 10.6167 12.3407 10.3691L15.028 9.33187C15.6698 9.08406 16.3325 9.09266 16.9123 9.37202Z" fill="#000000" />
</svg>