<svg width="24px"  height="24px"  viewBox="0 0 25 24" fill="none" xmlns="http://www.w3.org/2000/svg">
<path d="M12.2483 21.6892C11.7625 21.6895 11.2833 21.5772 10.8483 21.3612L3.70324 17.7892C3.42744 17.6515 3.1841 17.4567 2.98937 17.2177C2.79465 16.9787 2.65301 16.701 2.57385 16.4031C2.49468 16.1052 2.47982 15.7938 2.53024 15.4897C2.58065 15.1855 2.6952 14.8956 2.86627 14.6392L10.4433 3.27518C10.6417 2.97755 10.9105 2.73351 11.2259 2.56472C11.5413 2.39593 11.8935 2.30762 12.2512 2.30762C12.609 2.30762 12.9612 2.39593 13.2766 2.56472C13.592 2.73351 13.8608 2.97755 14.0593 3.27518L21.6323 14.6422C21.8035 14.8984 21.9183 15.1881 21.969 15.4921C22.0196 15.7961 22.0049 16.1074 21.926 16.4053C21.847 16.7032 21.7055 16.9808 21.5109 17.2198C21.3162 17.4587 21.073 17.6535 20.7973 17.7912L13.6482 21.3602C13.2134 21.5769 12.7341 21.6895 12.2483 21.6892ZM11.5153 20.0192C11.7426 20.1338 11.9936 20.1935 12.2483 20.1935C12.5029 20.1935 12.7539 20.1338 12.9813 20.0192L20.1262 16.4422C20.2116 16.3997 20.287 16.3396 20.3473 16.2657C20.4077 16.1918 20.4515 16.1059 20.476 16.0138C20.5005 15.9216 20.5051 15.8253 20.4895 15.7312C20.4738 15.6371 20.4383 15.5474 20.3852 15.4682L12.8083 4.10619C12.7441 4.01777 12.6599 3.94581 12.5625 3.89619C12.4652 3.84658 12.3575 3.82071 12.2483 3.82071C12.139 3.82071 12.0313 3.84658 11.934 3.89619C11.8367 3.94581 11.7524 4.01777 11.6883 4.10619L4.11126 15.4712C4.05823 15.5507 4.02273 15.6405 4.00714 15.7348C3.99154 15.8291 3.99618 15.9256 4.02078 16.0179C4.04537 16.1102 4.08935 16.1963 4.14977 16.2703C4.2102 16.3443 4.2857 16.4046 4.37124 16.4472L11.5153 20.0192Z" fill="#000000" />
<path d="M21.2094 16.9253C21.0961 16.9253 20.9843 16.8997 20.8824 16.8503L19.2704 16.0663C19.1818 16.0232 19.1026 15.963 19.0373 15.8893C18.9719 15.8155 18.9218 15.7296 18.8896 15.6365C18.8575 15.5434 18.844 15.4448 18.85 15.3465C18.856 15.2481 18.8812 15.1519 18.9244 15.0633C18.9675 14.9748 19.0277 14.8956 19.1014 14.8302C19.1752 14.7649 19.2611 14.7147 19.3542 14.6826C19.4474 14.6505 19.5459 14.637 19.6443 14.643C19.7426 14.6489 19.8388 14.6742 19.9274 14.7173L21.5384 15.5013C21.6917 15.5751 21.8153 15.6988 21.889 15.8521C21.9626 16.0054 21.9819 16.1792 21.9436 16.345C21.9053 16.5107 21.8117 16.6585 21.6783 16.7639C21.5448 16.8694 21.3795 16.9263 21.2094 16.9253Z" fill="#000000" />
<path d="M3.29204 16.942C3.1225 16.9424 2.9578 16.8854 2.82482 16.7802C2.69183 16.6751 2.5984 16.528 2.55977 16.3629C2.52114 16.1978 2.53957 16.0245 2.61208 15.8712C2.68459 15.718 2.8069 15.5938 2.95903 15.519L4.56804 14.724C4.74623 14.6373 4.95147 14.6247 5.13893 14.6889C5.3264 14.753 5.48085 14.8888 5.56856 15.0664C5.65627 15.2441 5.67013 15.4493 5.60707 15.6371C5.54402 15.825 5.40919 15.9802 5.23204 16.069L3.62303 16.864C3.52024 16.9153 3.40693 16.942 3.29204 16.942Z" fill="#000000" />
<path d="M7.4941 14.842C7.32503 14.8422 7.16085 14.7853 7.02819 14.6805C6.89553 14.5757 6.8022 14.4291 6.7633 14.2646C6.72439 14.1001 6.7422 13.9272 6.81387 13.7741C6.88553 13.621 7.00684 13.4966 7.1581 13.421L8.45812 12.772C8.54633 12.7271 8.64254 12.7001 8.74123 12.6926C8.83993 12.6851 8.93916 12.6972 9.03316 12.7281C9.12717 12.7591 9.2141 12.8084 9.28896 12.8732C9.36383 12.9379 9.42514 13.0169 9.46935 13.1054C9.51357 13.194 9.5398 13.2904 9.54656 13.3892C9.55333 13.4879 9.5405 13.587 9.50878 13.6808C9.47706 13.7745 9.42708 13.8611 9.36175 13.9355C9.29642 14.0098 9.217 14.0705 9.1281 14.114L7.82812 14.763C7.72432 14.8147 7.61002 14.8417 7.4941 14.842Z" fill="#000000" />
<path d="M17.0044 14.842C16.8885 14.8417 16.7742 14.8147 16.6704 14.763L15.3704 14.114C15.2815 14.0705 15.2021 14.0098 15.1368 13.9355C15.0714 13.8611 15.0215 13.7745 14.9897 13.6808C14.958 13.587 14.9452 13.4879 14.952 13.3892C14.9587 13.2904 14.9849 13.194 15.0292 13.1054C15.0734 13.0169 15.1347 12.9379 15.2096 12.8732C15.2844 12.8084 15.3713 12.7591 15.4653 12.7281C15.5594 12.6972 15.6586 12.6851 15.7572 12.6926C15.8559 12.7001 15.9522 12.7271 16.0404 12.772L17.3404 13.421C17.4917 13.4966 17.6129 13.621 17.6846 13.7741C17.7563 13.9272 17.7741 14.1001 17.7352 14.2646C17.6963 14.4291 17.603 14.5757 17.4703 14.6805C17.3376 14.7853 17.1735 14.8422 17.0044 14.842Z" fill="#000000" />
<path d="M11.3867 12.8982C11.2176 12.8985 11.0534 12.8415 10.9208 12.7367C10.7881 12.6319 10.6948 12.4854 10.6559 12.3208C10.617 12.1563 10.6348 11.9834 10.7065 11.8303C10.7781 11.6772 10.8994 11.5528 11.0507 11.4772L11.9147 11.0462C12.0186 10.994 12.1334 10.9668 12.2497 10.9668C12.366 10.9668 12.4808 10.994 12.5847 11.0462L13.4477 11.4772C13.5366 11.5208 13.616 11.5815 13.6813 11.6558C13.7467 11.7302 13.7966 11.8167 13.8284 11.9105C13.8601 12.0043 13.8729 12.1034 13.8662 12.2021C13.8594 12.3009 13.8331 12.3973 13.7889 12.4859C13.7447 12.5744 13.6834 12.6533 13.6086 12.7181C13.5337 12.7829 13.4467 12.8321 13.3527 12.8631C13.2587 12.8941 13.1595 12.9062 13.0608 12.8987C12.9621 12.8911 12.8659 12.8641 12.7777 12.8192L12.2497 12.5552L11.7207 12.8192C11.617 12.8712 11.5027 12.8983 11.3867 12.8982Z" fill="#000000" />
<path d="M12.249 21.6926C12.0501 21.6926 11.8593 21.6136 11.7187 21.4729C11.578 21.3323 11.499 21.1415 11.499 20.9426V3.14258C11.499 2.94367 11.578 2.7529 11.7187 2.61225C11.8593 2.4716 12.0501 2.39258 12.249 2.39258C12.4479 2.39258 12.6387 2.4716 12.7794 2.61225C12.92 2.7529 12.999 2.94367 12.999 3.14258V20.9426C12.999 21.1415 12.92 21.3323 12.7794 21.4729C12.6387 21.6136 12.4479 21.6926 12.249 21.6926Z" fill="#000000" />
</svg>