<svg width="24px"  height="24px"  viewBox="0 0 25 25" fill="none" xmlns="http://www.w3.org/2000/svg">
<path fill-rule="evenodd" clip-rule="evenodd" d="M3.5 2.36816C3.91421 2.36816 4.25 2.70395 4.25 3.11816V21.1182C4.25 21.5324 3.91421 21.8682 3.5 21.8682C3.08579 21.8682 2.75 21.5324 2.75 21.1182V3.11816C2.75 2.70395 3.08579 2.36816 3.5 2.36816ZM9.5 7.36816C9.91421 7.36816 10.25 7.70395 10.25 8.11816V21.1182C10.25 21.5324 9.91421 21.8682 9.5 21.8682C9.08579 21.8682 8.75 21.5324 8.75 21.1182V8.11816C8.75 7.70395 9.08579 7.36816 9.5 7.36816ZM15.5 12.3682C15.9142 12.3682 16.25 12.704 16.25 13.1182V21.1182C16.25 21.5324 15.9142 21.8682 15.5 21.8682C15.0858 21.8682 14.75 21.5324 14.75 21.1182V13.1182C14.75 12.704 15.0858 12.3682 15.5 12.3682ZM21.5 16.3682C21.9142 16.3682 22.25 16.704 22.25 17.1182V21.1182C22.25 21.5324 21.9142 21.8682 21.5 21.8682C21.0858 21.8682 20.75 21.5324 20.75 21.1182V17.1182C20.75 16.704 21.0858 16.3682 21.5 16.3682Z" fill="#000000" />
</svg>