<svg width="24px"  height="24px"  viewBox="0 0 25 25" fill="none" xmlns="http://www.w3.org/2000/svg">
<path fill-rule="evenodd" clip-rule="evenodd" d="M15.0931 12.4104C14.8334 12.4104 14.6228 12.621 14.6228 12.8807V17.7621C14.6228 18.0218 14.8334 18.2324 15.0931 18.2324C15.3529 18.2324 15.5635 18.0218 15.5635 17.7621V12.8807C15.5635 12.621 15.3529 12.4104 15.0931 12.4104ZM13.1228 12.8807C13.1228 11.7925 14.005 10.9104 15.0931 10.9104C16.1813 10.9104 17.0635 11.7925 17.0635 12.8807V17.7621C17.0635 18.8503 16.1813 19.7324 15.0931 19.7324C14.005 19.7324 13.1228 18.8503 13.1228 17.7621V12.8807Z" fill="#000000" />
<path fill-rule="evenodd" clip-rule="evenodd" d="M20.2797 15.3088C20.0199 15.3088 19.8093 15.5194 19.8093 15.7792V17.7622C19.8093 18.022 20.0199 18.2326 20.2797 18.2326C20.5394 18.2326 20.75 18.022 20.75 17.7622V15.7792C20.75 15.5194 20.5394 15.3088 20.2797 15.3088ZM18.3093 15.7792C18.3093 14.691 19.1915 13.8088 20.2797 13.8088C21.3678 13.8088 22.25 14.691 22.25 15.7792V17.7622C22.25 18.8504 21.3678 19.7326 20.2797 19.7326C19.1915 19.7326 18.3093 18.8504 18.3093 17.7622V15.7792Z" fill="#000000" />
<path fill-rule="evenodd" clip-rule="evenodd" d="M9.90662 8.9021C9.64686 8.9021 9.43628 9.11268 9.43628 9.37244V17.7622C9.43628 18.022 9.64686 18.2326 9.90662 18.2326C10.1664 18.2326 10.377 18.022 10.377 17.7622V9.37244C10.377 9.11268 10.1664 8.9021 9.90662 8.9021ZM7.93628 9.37244C7.93628 8.28425 8.81843 7.4021 9.90662 7.4021C10.9948 7.4021 11.877 8.28425 11.877 9.37244V17.7622C11.877 18.8504 10.9948 19.7326 9.90662 19.7326C8.81843 19.7326 7.93628 18.8504 7.93628 17.7622V9.37244Z" fill="#000000" />
<path fill-rule="evenodd" clip-rule="evenodd" d="M4.72034 6.00391C4.46058 6.00391 4.25 6.21448 4.25 6.47424V17.7623C4.25 18.0221 4.46058 18.2327 4.72034 18.2327C4.98009 18.2327 5.19067 18.0221 5.19067 17.7623V6.47424C5.19067 6.21448 4.9801 6.00391 4.72034 6.00391ZM2.75 6.47424C2.75 5.38606 3.63215 4.50391 4.72034 4.50391C5.80852 4.50391 6.69067 5.38605 6.69067 6.47424V17.7623C6.69067 18.8505 5.80852 19.7327 4.72034 19.7327C3.63215 19.7327 2.75 18.8505 2.75 17.7623V6.47424Z" fill="#000000" />
</svg>