<svg width="24px"  height="24px"  viewBox="0 0 25 25" fill="none" xmlns="http://www.w3.org/2000/svg">
<path fill-rule="evenodd" clip-rule="evenodd" d="M9.90686 12.4104C9.6471 12.4104 9.43652 12.621 9.43652 12.8807V17.7621C9.43652 18.0218 9.6471 18.2324 9.90686 18.2324C10.1666 18.2324 10.3772 18.0218 10.3772 17.7621V12.8807C10.3772 12.621 10.1666 12.4104 9.90686 12.4104ZM7.93652 12.8807C7.93652 11.7925 8.81867 10.9104 9.90686 10.9104C10.995 10.9104 11.8772 11.7925 11.8772 12.8807V17.7621C11.8772 18.8503 10.995 19.7324 9.90686 19.7324C8.81867 19.7324 7.93652 18.8503 7.93652 17.7621V12.8807Z" fill="#000000" />
<path fill-rule="evenodd" clip-rule="evenodd" d="M4.72034 8.30884C4.46058 8.30884 4.25 8.51941 4.25 8.77917V17.7622C4.25 18.022 4.46058 18.2326 4.72034 18.2326C4.98009 18.2326 5.19067 18.022 5.19067 17.7622V8.77917C5.19067 8.51941 4.98009 8.30884 4.72034 8.30884ZM2.75 8.77917C2.75 7.69099 3.63215 6.80884 4.72034 6.80884C5.80852 6.80884 6.69067 7.69099 6.69067 8.77917V17.7622C6.69067 18.8504 5.80852 19.7326 4.72034 19.7326C3.63215 19.7326 2.75 18.8504 2.75 17.7622V8.77917Z" fill="#000000" />
<path fill-rule="evenodd" clip-rule="evenodd" d="M20.2797 8.9021C20.5394 8.9021 20.75 9.11268 20.75 9.37244V17.7622C20.75 18.022 20.5394 18.2326 20.2797 18.2326C20.0199 18.2326 19.8093 18.022 19.8093 17.7622V9.37244C19.8093 9.11268 20.0199 8.9021 20.2797 8.9021ZM22.25 9.37244C22.25 8.28425 21.3679 7.4021 20.2797 7.4021C19.1915 7.4021 18.3093 8.28425 18.3093 9.37244V17.7622C18.3093 18.8504 19.1915 19.7326 20.2797 19.7326C21.3679 19.7326 22.25 18.8504 22.25 17.7622V9.37244Z" fill="#000000" />
<path fill-rule="evenodd" clip-rule="evenodd" d="M15.0934 6.00391C15.3531 6.00391 15.5637 6.21448 15.5637 6.47424V17.7623C15.5637 18.0221 15.3531 18.2327 15.0934 18.2327C14.8336 18.2327 14.623 18.0221 14.623 17.7623V6.47424C14.623 6.21448 14.8336 6.00391 15.0934 6.00391ZM17.0637 6.47424C17.0637 5.38605 16.1816 4.50391 15.0934 4.50391C14.0052 4.50391 13.123 5.38606 13.123 6.47424V17.7623C13.123 18.8505 14.0052 19.7327 15.0934 19.7327C16.1816 19.7327 17.0637 18.8505 17.0637 17.7623V6.47424Z" fill="#000000" />
</svg>