<svg width="24px"  height="24px"  viewBox="0 0 25 25" fill="none" xmlns="http://www.w3.org/2000/svg">
<path fill-rule="evenodd" clip-rule="evenodd" d="M9.90686 12.4104C9.6471 12.4104 9.43652 12.621 9.43652 12.8807V17.7621C9.43652 18.0218 9.6471 18.2324 9.90686 18.2324C10.1666 18.2324 10.3772 18.0218 10.3772 17.7621V12.8807C10.3772 12.621 10.1666 12.4104 9.90686 12.4104ZM7.93652 12.8807C7.93652 11.7925 8.81867 10.9104 9.90686 10.9104C10.995 10.9104 11.8772 11.7925 11.8772 12.8807V17.7621C11.8772 18.8503 10.995 19.7324 9.90686 19.7324C8.81867 19.7324 7.93652 18.8503 7.93652 17.7621V12.8807Z" fill="#000000" />
<path fill-rule="evenodd" clip-rule="evenodd" d="M4.72034 15.3088C4.46058 15.3088 4.25 15.5194 4.25 15.7792V17.7622C4.25 18.022 4.46058 18.2326 4.72034 18.2326C4.98009 18.2326 5.19067 18.022 5.19067 17.7622V15.7792C5.19067 15.5194 4.98009 15.3088 4.72034 15.3088ZM2.75 15.7792C2.75 14.691 3.63215 13.8088 4.72034 13.8088C5.80852 13.8088 6.69067 14.691 6.69067 15.7792V17.7622C6.69067 18.8504 5.80852 19.7326 4.72034 19.7326C3.63215 19.7326 2.75 18.8504 2.75 17.7622V15.7792Z" fill="#000000" />
<path fill-rule="evenodd" clip-rule="evenodd" d="M15.0934 8.9021C14.8336 8.9021 14.623 9.11268 14.623 9.37244V17.7622C14.623 18.022 14.8336 18.2326 15.0934 18.2326C15.3531 18.2326 15.5637 18.022 15.5637 17.7622V9.37244C15.5637 9.11268 15.3531 8.9021 15.0934 8.9021ZM13.123 9.37244C13.123 8.28425 14.0052 7.4021 15.0934 7.4021C16.1816 7.4021 17.0637 8.28425 17.0637 9.37244V17.7622C17.0637 18.8504 16.1816 19.7326 15.0934 19.7326C14.0052 19.7326 13.123 18.8504 13.123 17.7622V9.37244Z" fill="#000000" />
<path fill-rule="evenodd" clip-rule="evenodd" d="M20.2797 6.00391C20.0199 6.00391 19.8093 6.21448 19.8093 6.47424V17.7623C19.8093 18.0221 20.0199 18.2327 20.2797 18.2327C20.5394 18.2327 20.75 18.0221 20.75 17.7623V6.47424C20.75 6.21448 20.5394 6.00391 20.2797 6.00391ZM18.3093 6.47424C18.3093 5.38605 19.1915 4.50391 20.2797 4.50391C21.3678 4.50391 22.25 5.38606 22.25 6.47424V17.7623C22.25 18.8505 21.3678 19.7327 20.2797 19.7327C19.1915 19.7327 18.3093 18.8505 18.3093 17.7623V6.47424Z" fill="#000000" />
</svg>