<svg width="24px"  height="24px"  viewBox="0 0 25 25" fill="none" xmlns="http://www.w3.org/2000/svg">
<path fill-rule="evenodd" clip-rule="evenodd" d="M21.5 2.36816C21.9142 2.36816 22.25 2.70395 22.25 3.11816V21.1182C22.25 21.5324 21.9142 21.8682 21.5 21.8682C21.0858 21.8682 20.75 21.5324 20.75 21.1182V3.11816C20.75 2.70395 21.0858 2.36816 21.5 2.36816ZM15.5 7.36816C15.9142 7.36816 16.25 7.70395 16.25 8.11816V21.1182C16.25 21.5324 15.9142 21.8682 15.5 21.8682C15.0858 21.8682 14.75 21.5324 14.75 21.1182V8.11816C14.75 7.70395 15.0858 7.36816 15.5 7.36816ZM9.5 12.3682C9.91421 12.3682 10.25 12.704 10.25 13.1182V21.1182C10.25 21.5324 9.91421 21.8682 9.5 21.8682C9.08579 21.8682 8.75 21.5324 8.75 21.1182V13.1182C8.75 12.704 9.08579 12.3682 9.5 12.3682ZM3.5 16.3682C3.91421 16.3682 4.25 16.704 4.25 17.1182V21.1182C4.25 21.5324 3.91421 21.8682 3.5 21.8682C3.08579 21.8682 2.75 21.5324 2.75 21.1182V17.1182C2.75 16.704 3.08579 16.3682 3.5 16.3682Z" fill="#000000" />
</svg>