<svg width="24px"  height="24px"  viewBox="0 0 25 25" fill="none" xmlns="http://www.w3.org/2000/svg">
<path fill-rule="evenodd" clip-rule="evenodd" d="M17.646 4.67006C17.646 3.39865 18.6765 2.36816 19.9479 2.36816C21.2193 2.36816 22.2498 3.39865 22.2498 4.67006V19.5663C22.2498 20.8377 21.2193 21.8682 19.9479 21.8682C18.6765 21.8682 17.646 20.8377 17.646 19.5663V4.67006ZM19.9479 3.86816C19.505 3.86816 19.146 4.22708 19.146 4.67006V19.5663C19.146 20.0092 19.505 20.3682 19.9479 20.3682C20.3909 20.3682 20.7498 20.0092 20.7498 19.5663V4.67006C20.7498 4.22708 20.3909 3.86816 19.9479 3.86816ZM10.1977 13.3594C10.1977 12.0879 11.2282 11.0575 12.4996 11.0575C13.771 11.0575 14.8015 12.0879 14.8015 13.3594V19.5659C14.8015 20.8373 13.771 21.8678 12.4996 21.8678C11.2282 21.8678 10.1977 20.8373 10.1977 19.5659V13.3594ZM12.4996 12.5575C12.0566 12.5575 11.6977 12.9164 11.6977 13.3594V19.5659C11.6977 20.0089 12.0566 20.3678 12.4996 20.3678C12.9425 20.3678 13.3015 20.0089 13.3015 19.5659V13.3594C13.3015 12.9164 12.9425 12.5575 12.4996 12.5575ZM2.75024 17.084C2.75024 15.8126 3.78073 14.7821 5.05214 14.7821C6.32354 14.7821 7.35403 15.8126 7.35403 17.084V19.5661C7.35403 20.8375 6.32354 21.868 5.05214 21.868C3.78073 21.868 2.75024 20.8375 2.75024 19.5661V17.084ZM5.05214 16.2821C4.60916 16.2821 4.25024 16.641 4.25024 17.084V19.5661C4.25024 20.009 4.60916 20.368 5.05214 20.368C5.49511 20.368 5.85403 20.009 5.85403 19.5661V17.084C5.85403 16.641 5.49511 16.2821 5.05214 16.2821Z" fill="#000000" />
<path fill-rule="evenodd" clip-rule="evenodd" d="M7.22466 3.86816C6.81045 3.86816 6.47466 3.53238 6.47466 3.11816C6.47466 2.70395 6.81045 2.36816 7.22466 2.36816H11.5689C11.9831 2.36816 12.3189 2.70394 12.3189 3.11814L12.319 7.46344C12.319 7.87765 11.9832 8.21345 11.569 8.21346C11.1548 8.21347 10.819 7.8777 10.819 7.46348L10.8189 4.92877L4.03033 11.7174C3.73744 12.0103 3.26256 12.0103 2.96967 11.7174C2.67678 11.4245 2.67678 10.9496 2.96967 10.6567L9.7582 3.86816H7.22466Z" fill="#000000" />
</svg>