<svg width="24px"  height="24px"  viewBox="0 0 25 25" fill="none" xmlns="http://www.w3.org/2000/svg">
<path fill-rule="evenodd" clip-rule="evenodd" d="M2.75 4.67004C2.75 3.39865 3.78048 2.36816 5.05188 2.36816C6.32327 2.36816 7.35376 3.39865 7.35376 4.67004V19.5661C7.35376 20.8375 6.32327 21.868 5.05188 21.868C3.78048 21.868 2.75 20.8375 2.75 19.5661V4.67004ZM5.05188 3.86816C4.60891 3.86816 4.25 4.22707 4.25 4.67004V19.5661C4.25 20.0091 4.60891 20.368 5.05188 20.368C5.49485 20.368 5.85376 20.0091 5.85376 19.5661V4.67004C5.85376 4.22707 5.49485 3.86816 5.05188 3.86816ZM10.1974 13.3593C10.1974 12.0879 11.2278 11.0574 12.4992 11.0574C13.7706 11.0574 14.8011 12.0879 14.8011 13.3593V19.5658C14.8011 20.8372 13.7706 21.8677 12.4992 21.8677C11.2278 21.8677 10.1974 20.8372 10.1974 19.5658V13.3593ZM12.4992 12.5574C12.0563 12.5574 11.6974 12.9163 11.6974 13.3593V19.5658C11.6974 20.0088 12.0563 20.3677 12.4992 20.3677C12.9422 20.3677 13.3011 20.0088 13.3011 19.5658V13.3593C13.3011 12.9163 12.9422 12.5574 12.4992 12.5574ZM17.6457 17.0839C17.6457 15.8125 18.6762 14.782 19.9475 14.782C21.2189 14.782 22.2494 15.8125 22.2494 17.0839V19.5659C22.2494 20.8373 21.2189 21.8678 19.9475 21.8678C18.6762 21.8678 17.6457 20.8373 17.6457 19.5659V17.0839ZM19.9475 16.282C19.5046 16.282 19.1457 16.6409 19.1457 17.0839V19.5659C19.1457 20.0089 19.5046 20.3678 19.9475 20.3678C20.3905 20.3678 20.7494 20.0089 20.7494 19.5659V17.0839C20.7494 16.6409 20.3905 16.282 19.9475 16.282Z" fill="#000000" />
<path fill-rule="evenodd" clip-rule="evenodd" d="M14.1416 2.5878C14.4345 2.29492 14.9094 2.29496 15.2022 2.58787L20.7495 8.13589L20.7499 5.60081C20.75 5.1866 21.0858 4.85087 21.5 4.85093C21.9142 4.851 22.25 5.18684 22.2499 5.60106L22.2492 9.94655C22.2491 10.3607 21.9133 10.6965 21.4991 10.6964L17.1556 10.6962C16.7413 10.6962 16.4056 10.3604 16.4056 9.94615C16.4056 9.53194 16.7414 9.19617 17.1556 9.19619L19.6886 9.19633L14.1415 3.64846C13.8486 3.35554 13.8487 2.88067 14.1416 2.5878Z" fill="#000000" />
</svg>