<svg width="24px"  height="24px"  viewBox="0 0 25 25" fill="none" xmlns="http://www.w3.org/2000/svg">
<path fill-rule="evenodd" clip-rule="evenodd" d="M4.5 3.36865C4.91421 3.36865 5.25 3.70444 5.25 4.11865V18.1187C5.25 18.809 5.80964 19.3687 6.5 19.3687H20.5C20.9142 19.3687 21.25 19.7044 21.25 20.1187C21.25 20.5329 20.9142 20.8687 20.5 20.8687H6.5C4.98122 20.8687 3.75 19.6374 3.75 18.1187V4.11865C3.75 3.70444 4.08579 3.36865 4.5 3.36865Z" fill="#000000" />
<path fill-rule="evenodd" clip-rule="evenodd" d="M15.4542 5.8501C14.2915 5.8501 13.3489 6.79269 13.3489 7.95544C13.3489 9.1182 14.2915 10.0608 15.4542 10.0608C16.617 10.0608 17.5596 9.1182 17.5596 7.95544C17.5596 6.79269 16.617 5.8501 15.4542 5.8501ZM11.8489 7.95544C11.8489 5.96427 13.463 4.3501 15.4542 4.3501C17.4454 4.3501 19.0596 5.96427 19.0596 7.95544C19.0596 9.94662 17.4454 11.5608 15.4542 11.5608C13.463 11.5608 11.8489 9.94662 11.8489 7.95544Z" fill="#000000" />
<path fill-rule="evenodd" clip-rule="evenodd" d="M9.20417 12.1777C8.73625 12.1777 8.35693 12.5571 8.35693 13.025C8.35693 13.4929 8.73625 13.8722 9.20417 13.8722C9.67209 13.8722 10.0514 13.4929 10.0514 13.025C10.0514 12.5571 9.67209 12.1777 9.20417 12.1777ZM6.85693 13.025C6.85693 11.7286 7.90783 10.6777 9.20417 10.6777C10.5005 10.6777 11.5514 11.7286 11.5514 13.025C11.5514 14.3213 10.5005 15.3722 9.20417 15.3722C7.90783 15.3722 6.85693 14.3213 6.85693 13.025Z" fill="#000000" />
<path fill-rule="evenodd" clip-rule="evenodd" d="M17.4333 14.8589C17.0675 14.8589 16.771 15.1554 16.771 15.5212C16.771 15.887 17.0675 16.1835 17.4333 16.1835C17.7991 16.1835 18.0956 15.887 18.0956 15.5212C18.0956 15.1554 17.7991 14.8589 17.4333 14.8589ZM15.271 15.5212C15.271 14.327 16.2391 13.3589 17.4333 13.3589C18.6275 13.3589 19.5956 14.327 19.5956 15.5212C19.5956 16.7154 18.6275 17.6835 17.4333 17.6835C16.2391 17.6835 15.271 16.7154 15.271 15.5212Z" fill="#000000" />
</svg>