<svg width="24px"  height="24px"  viewBox="0 0 25 25" fill="none" xmlns="http://www.w3.org/2000/svg">
<path fill-rule="evenodd" clip-rule="evenodd" d="M8.69635 3.86865C10.7736 3.86865 12.4575 5.55259 12.4575 7.62983C12.4575 9.70707 10.7736 11.391 8.69635 11.391C6.61911 11.391 4.93517 9.70707 4.93517 7.62983C4.93517 5.55259 6.61911 3.86865 8.69635 3.86865ZM13.9575 7.62983C13.9575 4.72416 11.602 2.36865 8.69635 2.36865C5.79068 2.36865 3.43517 4.72416 3.43517 7.62983C3.43517 10.5355 5.79068 12.891 8.69635 12.891C11.602 12.891 13.9575 10.5355 13.9575 7.62983Z" fill="#000000" />
<path fill-rule="evenodd" clip-rule="evenodd" d="M17.801 13.8779C19.0513 13.8779 20.0649 14.8915 20.0649 16.1419C20.0649 17.3922 19.0513 18.4058 17.801 18.4058C16.5507 18.4058 15.5371 17.3922 15.5371 16.1419C15.5371 14.8915 16.5507 13.8779 17.801 13.8779ZM21.5649 16.1419C21.5649 14.0631 19.8798 12.3779 17.801 12.3779C15.7223 12.3779 14.0371 14.0631 14.0371 16.1419C14.0371 18.2206 15.7223 19.9058 17.801 19.9058C19.8798 19.9058 21.5649 18.2206 21.5649 16.1419Z" fill="#000000" />
<path fill-rule="evenodd" clip-rule="evenodd" d="M7.77179 17.5264C8.55663 17.5264 9.19287 18.1626 9.19287 18.9475C9.19287 19.7323 8.55663 20.3685 7.77179 20.3685C6.98695 20.3685 6.3507 19.7323 6.3507 18.9475C6.3507 18.1626 6.98695 17.5264 7.77179 17.5264ZM10.6929 18.9475C10.6929 17.3342 9.38506 16.0264 7.77179 16.0264C6.15852 16.0264 4.8507 17.3342 4.8507 18.9475C4.8507 20.5607 6.15852 21.8685 7.77179 21.8685C9.38506 21.8685 10.6929 20.5607 10.6929 18.9475Z" fill="#000000" />
</svg>