<svg width="24px"  height="24px"  viewBox="0 0 25 25" fill="none" xmlns="http://www.w3.org/2000/svg">
<path fill-rule="evenodd" clip-rule="evenodd" d="M19.5986 4.64502C18.9636 4.64502 18.4473 5.16067 18.4473 5.79871C18.4473 6.43674 18.9636 6.95239 19.5986 6.95239C20.2336 6.95239 20.7499 6.43674 20.7499 5.79871C20.7499 5.16067 20.2336 4.64502 19.5986 4.64502ZM16.9473 5.79871C16.9473 4.33399 18.1334 3.14502 19.5986 3.14502C21.0638 3.14502 22.2499 4.33399 22.2499 5.79871C22.2499 7.26342 21.0638 8.45239 19.5986 8.45239C18.1334 8.45239 16.9473 7.26342 16.9473 5.79871Z" fill="#000000" />
<path fill-rule="evenodd" clip-rule="evenodd" d="M19.5989 9.65234C20.0131 9.65234 20.3489 9.98813 20.3489 10.4023V10.4123C20.3489 10.8266 20.0131 11.1623 19.5989 11.1623C19.1847 11.1623 18.8489 10.8266 18.8489 10.4123V10.4023C18.8489 9.98813 19.1847 9.65234 19.5989 9.65234Z" fill="#000000" />
<path fill-rule="evenodd" clip-rule="evenodd" d="M19.5989 12.9624C20.0131 12.9624 20.3489 13.2982 20.3489 13.7124V13.7224C20.3489 14.1366 20.0131 14.4724 19.5989 14.4724C19.1847 14.4724 18.8489 14.1366 18.8489 13.7224V13.7124C18.8489 13.2982 19.1847 12.9624 19.5989 12.9624Z" fill="#000000" />
<path fill-rule="evenodd" clip-rule="evenodd" d="M19.5989 16.2725C20.0131 16.2725 20.3489 16.6082 20.3489 17.0225V17.0325C20.3489 17.4467 20.0131 17.7825 19.5989 17.7825C19.1847 17.7825 18.8489 17.4467 18.8489 17.0325V17.0225C18.8489 16.6082 19.1847 16.2725 19.5989 16.2725Z" fill="#000000" />
<path fill-rule="evenodd" clip-rule="evenodd" d="M19.5986 19.582C20.0128 19.582 20.3486 19.9178 20.3486 20.332V20.342C20.3486 20.7562 20.0128 21.092 19.5986 21.092C19.1844 21.092 18.8486 20.7562 18.8486 20.342V20.332C18.8486 19.9178 19.1844 19.582 19.5986 19.582Z" fill="#000000" />
<path fill-rule="evenodd" clip-rule="evenodd" d="M5.40134 7.95508C4.76634 7.95508 4.25 8.47073 4.25 9.10876C4.25 9.7468 4.76634 10.2625 5.40134 10.2625C6.03634 10.2625 6.55268 9.7468 6.55268 9.10876C6.55268 8.47073 6.03634 7.95508 5.40134 7.95508ZM2.75 9.10876C2.75 7.64405 3.93617 6.45508 5.40134 6.45508C6.86651 6.45508 8.05268 7.64405 8.05268 9.10876C8.05268 10.5735 6.86651 11.7625 5.40134 11.7625C3.93617 11.7625 2.75 10.5735 2.75 9.10876Z" fill="#000000" />
<path fill-rule="evenodd" clip-rule="evenodd" d="M5.40137 12.9619C5.81558 12.9619 6.15137 13.2977 6.15137 13.7119V13.7219C6.15137 14.1361 5.81558 14.4719 5.40137 14.4719C4.98715 14.4719 4.65137 14.1361 4.65137 13.7219V13.7119C4.65137 13.2977 4.98715 12.9619 5.40137 12.9619Z" fill="#000000" />
<path fill-rule="evenodd" clip-rule="evenodd" d="M5.40137 16.2725C5.81558 16.2725 6.15137 16.6082 6.15137 17.0225V17.0325C6.15137 17.4467 5.81558 17.7825 5.40137 17.7825C4.98715 17.7825 4.65137 17.4467 4.65137 17.0325V17.0225C4.65137 16.6082 4.98715 16.2725 5.40137 16.2725Z" fill="#000000" />
<path fill-rule="evenodd" clip-rule="evenodd" d="M5.40137 19.582C5.81558 19.582 6.15137 19.9178 6.15137 20.332V20.342C6.15137 20.7562 5.81558 21.092 5.40137 21.092C4.98715 21.092 4.65137 20.7562 4.65137 20.342V20.332C4.65137 19.9178 4.98715 19.582 5.40137 19.582Z" fill="#000000" />
<path fill-rule="evenodd" clip-rule="evenodd" d="M12.5 11.2646C11.865 11.2646 11.3486 11.7803 11.3486 12.4183C11.3486 13.0564 11.865 13.572 12.5 13.572C13.135 13.572 13.6513 13.0564 13.6513 12.4183C13.6513 11.7803 13.135 11.2646 12.5 11.2646ZM9.84863 12.4183C9.84863 10.9536 11.0348 9.76465 12.5 9.76465C13.9651 9.76465 15.1513 10.9536 15.1513 12.4183C15.1513 13.8831 13.9651 15.072 12.5 15.072C11.0348 15.072 9.84863 13.8831 9.84863 12.4183Z" fill="#000000" />
<path fill-rule="evenodd" clip-rule="evenodd" d="M12.5 16.2725C12.9142 16.2725 13.25 16.6082 13.25 17.0225V17.0325C13.25 17.4467 12.9142 17.7825 12.5 17.7825C12.0858 17.7825 11.75 17.4467 11.75 17.0325V17.0225C11.75 16.6082 12.0858 16.2725 12.5 16.2725Z" fill="#000000" />
<path fill-rule="evenodd" clip-rule="evenodd" d="M12.5 19.582C12.9142 19.582 13.25 19.9178 13.25 20.332V20.342C13.25 20.7562 12.9142 21.092 12.5 21.092C12.0858 21.092 11.75 20.7562 11.75 20.342V20.332C11.75 19.9178 12.0858 19.582 12.5 19.582Z" fill="#000000" />
</svg>