<svg width="24px"  height="24px"  viewBox="0 0 25 25" fill="none" xmlns="http://www.w3.org/2000/svg">
<path fill-rule="evenodd" clip-rule="evenodd" d="M7.75 21.8687C8.16421 21.8687 8.5 21.5329 8.5 21.1187V14.6187C8.5 14.2044 8.16421 13.8687 7.75 13.8687C7.33579 13.8687 7 14.2044 7 14.6187V21.1187C7 21.5329 7.33579 21.8687 7.75 21.8687Z" fill="#000000" />
<path fill-rule="evenodd" clip-rule="evenodd" d="M4.75 13.1396C4.75 14.3732 5.7527 15.3687 6.98376 15.3687H8.5152C9.74692 15.3687 10.7499 14.3736 10.7499 13.1396V7.09677C10.7499 5.86214 9.74628 4.86865 8.5152 4.86865H6.98376C5.75334 4.86865 4.75 5.86246 4.75 7.09677V13.1396ZM6.98376 13.8687C6.57637 13.8687 6.25 13.5401 6.25 13.1396V7.09677C6.25 6.69691 6.57573 6.36865 6.98376 6.36865H8.5152C8.92453 6.36865 9.24994 6.69723 9.24994 7.09677V13.1396C9.24994 13.5397 8.92389 13.8687 8.5152 13.8687H6.98376Z" fill="#000000" />
<path fill-rule="evenodd" clip-rule="evenodd" d="M7.75 6.36865C8.16421 6.36865 8.5 6.03287 8.5 5.61865V3.11865C8.5 2.70444 8.16421 2.36865 7.75 2.36865C7.33579 2.36865 7 2.70444 7 3.11865V5.61865C7 6.03287 7.33579 6.36865 7.75 6.36865Z" fill="#000000" />
<path fill-rule="evenodd" clip-rule="evenodd" d="M17.25 21.8687C17.6642 21.8687 18 21.5329 18 21.1187V18.6187C18 18.2044 17.6642 17.8687 17.25 17.8687C16.8358 17.8687 16.5 18.2044 16.5 18.6187V21.1187C16.5 21.5329 16.8358 21.8687 17.25 21.8687Z" fill="#000000" />
<path fill-rule="evenodd" clip-rule="evenodd" d="M14.25 17.1396C14.25 18.3732 15.2527 19.3687 16.4838 19.3687H18.0152C19.2469 19.3687 20.2499 18.3736 20.2499 17.1396V11.0968C20.2499 9.86214 19.2463 8.86865 18.0152 8.86865H16.4838C15.2533 8.86865 14.25 9.86246 14.25 11.0968V17.1396ZM16.4838 17.8687C16.0764 17.8687 15.75 17.5401 15.75 17.1396V11.0968C15.75 10.6969 16.0757 10.3687 16.4838 10.3687H18.0152C18.4245 10.3687 18.7499 10.6972 18.7499 11.0968V17.1396C18.7499 17.5397 18.4239 17.8687 18.0152 17.8687H16.4838Z" fill="#000000" />
<path fill-rule="evenodd" clip-rule="evenodd" d="M17.25 10.3687C17.6642 10.3687 18 10.0329 18 9.61865V3.11865C18 2.70444 17.6642 2.36865 17.25 2.36865C16.8358 2.36865 16.5 2.70444 16.5 3.11865V9.61865C16.5 10.0329 16.8358 10.3687 17.25 10.3687Z" fill="#000000" />
</svg>