<svg width="24px"  height="24px"  viewBox="0 0 25 25" fill="none" xmlns="http://www.w3.org/2000/svg">
<path fill-rule="evenodd" clip-rule="evenodd" d="M5.75 21.8687C6.16421 21.8687 6.5 21.5329 6.5 21.1187V18.6187C6.5 18.2044 6.16421 17.8687 5.75 17.8687C5.33579 17.8687 5 18.2044 5 18.6187V21.1187C5 21.5329 5.33579 21.8687 5.75 21.8687Z" fill="#000000" />
<path fill-rule="evenodd" clip-rule="evenodd" d="M2.75 17.1396C2.75 18.3732 3.7527 19.3687 4.98376 19.3687H6.5152C7.74692 19.3687 8.74994 18.3736 8.74994 17.1396V14.0968C8.74994 12.8621 7.74628 11.8687 6.5152 11.8687H4.98376C3.75334 11.8687 2.75 12.8625 2.75 14.0968V17.1396ZM4.98376 17.8687C4.57637 17.8687 4.25 17.5401 4.25 17.1396V14.0968C4.25 13.6969 4.57573 13.3687 4.98376 13.3687H6.5152C6.92453 13.3687 7.24994 13.6972 7.24994 14.0968V17.1396C7.24994 17.5397 6.92389 17.8687 6.5152 17.8687H4.98376Z" fill="#000000" />
<path fill-rule="evenodd" clip-rule="evenodd" d="M5.75 13.3687C6.16421 13.3687 6.5 13.0329 6.5 12.6187V10.1187C6.5 9.70444 6.16421 9.36865 5.75 9.36865C5.33579 9.36865 5 9.70444 5 10.1187V12.6187C5 13.0329 5.33579 13.3687 5.75 13.3687Z" fill="#000000" />
<path fill-rule="evenodd" clip-rule="evenodd" d="M12.5 14.8687C12.9142 14.8687 13.25 14.5329 13.25 14.1187V11.6187C13.25 11.2044 12.9142 10.8687 12.5 10.8687C12.0858 10.8687 11.75 11.2044 11.75 11.6187V14.1187C11.75 14.5329 12.0858 14.8687 12.5 14.8687Z" fill="#000000" />
<path fill-rule="evenodd" clip-rule="evenodd" d="M9.5 10.1396C9.5 11.3732 10.5027 12.3687 11.7338 12.3687H13.2652C14.4969 12.3687 15.4999 11.3736 15.4999 10.1396V7.09677C15.4999 5.86214 14.4963 4.86865 13.2652 4.86865H11.7338C10.5033 4.86865 9.5 5.86246 9.5 7.09677V10.1396ZM11.7338 10.8687C11.3264 10.8687 11 10.5401 11 10.1396V7.09677C11 6.69691 11.3257 6.36865 11.7338 6.36865H13.2652C13.6745 6.36865 13.9999 6.69723 13.9999 7.09677V10.1396C13.9999 10.5397 13.6739 10.8687 13.2652 10.8687H11.7338Z" fill="#000000" />
<path fill-rule="evenodd" clip-rule="evenodd" d="M12.5 6.36865C12.9142 6.36865 13.25 6.03287 13.25 5.61865V3.11865C13.25 2.70444 12.9142 2.36865 12.5 2.36865C12.0858 2.36865 11.75 2.70444 11.75 3.11865V5.61865C11.75 6.03287 12.0858 6.36865 12.5 6.36865Z" fill="#000000" />
<path fill-rule="evenodd" clip-rule="evenodd" d="M19.25 21.8687C19.6642 21.8687 20 21.5329 20 21.1187V18.6187C20 18.2044 19.6642 17.8687 19.25 17.8687C18.8358 17.8687 18.5 18.2044 18.5 18.6187V21.1187C18.5 21.5329 18.8358 21.8687 19.25 21.8687Z" fill="#000000" />
<path fill-rule="evenodd" clip-rule="evenodd" d="M16.25 17.1396C16.25 18.3732 17.2527 19.3687 18.4838 19.3687H20.0152C21.2469 19.3687 22.2499 18.3736 22.2499 17.1396V14.0968C22.2499 12.8621 21.2463 11.8687 20.0152 11.8687H18.4838C17.2533 11.8687 16.25 12.8625 16.25 14.0968V17.1396ZM18.4838 17.8687C18.0764 17.8687 17.75 17.5401 17.75 17.1396V14.0968C17.75 13.6969 18.0757 13.3687 18.4838 13.3687H20.0152C20.4245 13.3687 20.7499 13.6972 20.7499 14.0968V17.1396C20.7499 17.5397 20.4239 17.8687 20.0152 17.8687H18.4838Z" fill="#000000" />
<path fill-rule="evenodd" clip-rule="evenodd" d="M19.25 13.3687C19.6642 13.3687 20 13.0329 20 12.6187V10.1187C20 9.70444 19.6642 9.36865 19.25 9.36865C18.8358 9.36865 18.5 9.70444 18.5 10.1187V12.6187C18.5 13.0329 18.8358 13.3687 19.25 13.3687Z" fill="#000000" />
</svg>