<svg width="24px"  height="24px"  viewBox="0 0 25 25" fill="none" xmlns="http://www.w3.org/2000/svg">
<path fill-rule="evenodd" clip-rule="evenodd" d="M5.75 2.36865C6.16421 2.36865 6.5 2.70444 6.5 3.11865V5.61865C6.5 6.03287 6.16421 6.36865 5.75 6.36865C5.33579 6.36865 5 6.03287 5 5.61865V3.11865C5 2.70444 5.33579 2.36865 5.75 2.36865Z" fill="#000000" />
<path fill-rule="evenodd" clip-rule="evenodd" d="M2.75 7.09774C2.75 5.86407 3.7527 4.86865 4.98376 4.86865H6.5152C7.74692 4.86865 8.74994 5.86375 8.74994 7.09774V10.1405C8.74994 11.3752 7.74628 12.3687 6.5152 12.3687H4.98376C3.75334 12.3687 2.75 11.3748 2.75 10.1405V7.09774ZM4.98376 6.36865C4.57637 6.36865 4.25 6.69724 4.25 7.09774V10.1405C4.25 10.5404 4.57573 10.8687 4.98376 10.8687H6.5152C6.92453 10.8687 7.24994 10.5401 7.24994 10.1405V7.09774C7.24994 6.69756 6.92389 6.36865 6.5152 6.36865H4.98376Z" fill="#000000" />
<path fill-rule="evenodd" clip-rule="evenodd" d="M5.75 10.8687C6.16421 10.8687 6.5 11.2044 6.5 11.6187V14.1187C6.5 14.5329 6.16421 14.8687 5.75 14.8687C5.33579 14.8687 5 14.5329 5 14.1187V11.6187C5 11.2044 5.33579 10.8687 5.75 10.8687Z" fill="#000000" />
<path fill-rule="evenodd" clip-rule="evenodd" d="M12.5 10.3687C12.9142 10.3687 13.25 10.7044 13.25 11.1187V13.6187C13.25 14.0329 12.9142 14.3687 12.5 14.3687C12.0858 14.3687 11.75 14.0329 11.75 13.6187V11.1187C11.75 10.7044 12.0858 10.3687 12.5 10.3687Z" fill="#000000" />
<path fill-rule="evenodd" clip-rule="evenodd" d="M9.5 15.0977C9.5 13.8641 10.5027 12.8687 11.7338 12.8687H13.2652C14.4969 12.8687 15.4999 13.8637 15.4999 15.0977V17.1405C15.4999 18.3752 14.4963 19.3687 13.2652 19.3687H11.7338C10.5033 19.3687 9.5 18.3748 9.5 17.1405V15.0977ZM11.7338 14.3687C11.3264 14.3687 11 14.6972 11 15.0977V17.1405C11 17.5404 11.3257 17.8687 11.7338 17.8687H13.2652C13.6745 17.8687 13.9999 17.5401 13.9999 17.1405V15.0977C13.9999 14.6976 13.6739 14.3687 13.2652 14.3687H11.7338Z" fill="#000000" />
<path fill-rule="evenodd" clip-rule="evenodd" d="M12.5 17.8687C12.9142 17.8687 13.25 18.2044 13.25 18.6187V21.1187C13.25 21.5329 12.9142 21.8687 12.5 21.8687C12.0858 21.8687 11.75 21.5329 11.75 21.1187V18.6187C11.75 18.2044 12.0858 17.8687 12.5 17.8687Z" fill="#000000" />
<path fill-rule="evenodd" clip-rule="evenodd" d="M19.25 2.36865C19.6642 2.36865 20 2.70444 20 3.11865V5.61865C20 6.03287 19.6642 6.36865 19.25 6.36865C18.8358 6.36865 18.5 6.03287 18.5 5.61865V3.11865C18.5 2.70444 18.8358 2.36865 19.25 2.36865Z" fill="#000000" />
<path fill-rule="evenodd" clip-rule="evenodd" d="M16.25 7.09774C16.25 5.86407 17.2527 4.86865 18.4838 4.86865H20.0152C21.2469 4.86865 22.2499 5.86375 22.2499 7.09774V12.1405C22.2499 13.3752 21.2463 14.3687 20.0152 14.3687H18.4838C17.2533 14.3687 16.25 13.3748 16.25 12.1405V7.09774ZM18.4838 6.36865C18.0764 6.36865 17.75 6.69724 17.75 7.09774V12.1405C17.75 12.5404 18.0757 12.8687 18.4838 12.8687H20.0152C20.4245 12.8687 20.7499 12.5401 20.7499 12.1405V7.09774C20.7499 6.69756 20.4239 6.36865 20.0152 6.36865H18.4838Z" fill="#000000" />
<path fill-rule="evenodd" clip-rule="evenodd" d="M19.25 12.8687C19.6642 12.8687 20 13.2044 20 13.6187V16.1187C20 16.5329 19.6642 16.8687 19.25 16.8687C18.8358 16.8687 18.5 16.5329 18.5 16.1187V13.6187C18.5 13.2044 18.8358 12.8687 19.25 12.8687Z" fill="#000000" />
</svg>