<svg width="24px"  height="24px"  viewBox="0 0 25 25" fill="none" xmlns="http://www.w3.org/2000/svg">
<path fill-rule="evenodd" clip-rule="evenodd" d="M7.75 21.8687C8.16421 21.8687 8.5 21.5329 8.5 21.1187V17.6187C8.5 17.2044 8.16421 16.8687 7.75 16.8687C7.33579 16.8687 7 17.2044 7 17.6187V21.1187C7 21.5329 7.33579 21.8687 7.75 21.8687Z" fill="#000000" />
<path fill-rule="evenodd" clip-rule="evenodd" d="M4.75 16.1396C4.75 17.3732 5.7527 18.3687 6.98376 18.3687H8.5152C9.74692 18.3687 10.7499 17.3736 10.7499 16.1396V10.0968C10.7499 8.86214 9.74628 7.86865 8.5152 7.86865H6.98376C5.75334 7.86865 4.75 8.86246 4.75 10.0968V16.1396ZM6.98376 16.8687C6.57637 16.8687 6.25 16.5401 6.25 16.1396V10.0968C6.25 9.69691 6.57573 9.36865 6.98376 9.36865H8.5152C8.92453 9.36865 9.24994 9.69723 9.24994 10.0968V16.1396C9.24994 16.5397 8.92389 16.8687 8.5152 16.8687H6.98376Z" fill="#000000" />
<path fill-rule="evenodd" clip-rule="evenodd" d="M7.75 9.36865C8.16421 9.36865 8.5 9.03287 8.5 8.61865V5.11865C8.5 4.70444 8.16421 4.36865 7.75 4.36865C7.33579 4.36865 7 4.70444 7 5.11865V8.61865C7 9.03287 7.33579 9.36865 7.75 9.36865Z" fill="#000000" />
<path fill-rule="evenodd" clip-rule="evenodd" d="M17.25 19.8687C17.6642 19.8687 18 19.5329 18 19.1187V15.6187C18 15.2044 17.6642 14.8687 17.25 14.8687C16.8358 14.8687 16.5 15.2044 16.5 15.6187V19.1187C16.5 19.5329 16.8358 19.8687 17.25 19.8687Z" fill="#000000" />
<path fill-rule="evenodd" clip-rule="evenodd" d="M14.25 14.1396C14.25 15.3732 15.2527 16.3687 16.4838 16.3687H18.0152C19.2469 16.3687 20.2499 15.3736 20.2499 14.1396V8.09677C20.2499 6.86214 19.2463 5.86865 18.0152 5.86865H16.4838C15.2533 5.86865 14.25 6.86246 14.25 8.09677V14.1396ZM16.4838 14.8687C16.0764 14.8687 15.75 14.5401 15.75 14.1396V8.09677C15.75 7.69691 16.0757 7.36865 16.4838 7.36865H18.0152C18.4245 7.36865 18.7499 7.69723 18.7499 8.09677V14.1396C18.7499 14.5397 18.4239 14.8687 18.0152 14.8687H16.4838Z" fill="#000000" />
<path fill-rule="evenodd" clip-rule="evenodd" d="M17.25 7.36865C17.6642 7.36865 18 7.03287 18 6.61865V3.11865C18 2.70444 17.6642 2.36865 17.25 2.36865C16.8358 2.36865 16.5 2.70444 16.5 3.11865V6.61865C16.5 7.03287 16.8358 7.36865 17.25 7.36865Z" fill="#000000" />
<path fill-rule="evenodd" clip-rule="evenodd" d="M2.75 12.1187C2.75 11.7044 3.08579 11.3687 3.5 11.3687L21.5 11.3687C21.9142 11.3687 22.25 11.7044 22.25 12.1187C22.25 12.5329 21.9142 12.8687 21.5 12.8687L3.5 12.8687C3.08579 12.8687 2.75 12.5329 2.75 12.1187Z" fill="#000000" />
</svg>