<svg width="24px"  height="24px"  viewBox="0 0 25 25" fill="none" xmlns="http://www.w3.org/2000/svg">
<path fill-rule="evenodd" clip-rule="evenodd" d="M4.24072 4.01561C5.22544 2.95932 6.62768 2.36816 8.28313 2.36816H16.7178C18.3772 2.36816 19.7796 2.95903 20.7635 4.01605C21.7416 5.067 22.25 6.51771 22.25 8.14552V16.0918C22.25 17.7196 21.7416 19.1701 20.7632 20.2209C19.7792 21.2777 18.3765 21.8682 16.7169 21.8682H8.28313C6.6239 21.8682 5.22126 21.2776 4.23717 20.2209C3.2587 19.1702 2.75 17.7197 2.75 16.0918V8.14552C2.75 6.51666 3.26144 5.06607 4.24072 4.01561ZM5.3379 5.03845C4.66046 5.76513 4.25 6.82821 4.25 8.14552V16.0918C4.25 17.41 4.65882 18.4727 5.33488 19.1987C6.00534 19.9186 6.99426 20.3682 8.28313 20.3682H16.7169C18.0063 20.3682 18.9952 19.9186 19.6654 19.1987C20.3414 18.4728 20.75 17.4101 20.75 16.0918V8.14552C20.75 6.82716 20.3414 5.7642 19.6655 5.03801C18.9952 4.31789 18.0066 3.86816 16.7178 3.86816H8.28313C6.99924 3.86816 6.00991 4.3176 5.3379 5.03845Z" fill="#000000" />
<path fill-rule="evenodd" clip-rule="evenodd" d="M16.6651 7.34082C17.0793 7.34082 17.4151 7.67661 17.4151 8.09082V16.1431C17.4151 16.5574 17.0793 16.8931 16.6651 16.8931C16.2509 16.8931 15.9151 16.5574 15.9151 16.1431V8.09082C15.9151 7.67661 16.2509 7.34082 16.6651 7.34082ZM8.33398 8.57319C8.7482 8.57319 9.08398 8.90898 9.08398 9.32319V16.1437C9.08398 16.5579 8.7482 16.8937 8.33398 16.8937C7.91977 16.8937 7.58398 16.5579 7.58398 16.1437V9.32319C7.58398 8.90898 7.91977 8.57319 8.33398 8.57319ZM12.5347 11.9824C12.9489 11.9824 13.2847 12.3182 13.2847 12.7324V16.1436C13.2847 16.5579 12.9489 16.8936 12.5347 16.8936C12.1205 16.8936 11.7847 16.5579 11.7847 16.1436V12.7324C11.7847 12.3182 12.1205 11.9824 12.5347 11.9824Z" fill="#000000" />
</svg>