<svg width="24px"  height="24px"  viewBox="0 0 25 25" fill="none" xmlns="http://www.w3.org/2000/svg">
<path fill-rule="evenodd" clip-rule="evenodd" d="M15.1327 8.677C14.9528 8.677 14.8068 8.82294 14.8068 9.00289V15.236C14.8068 15.4159 14.9528 15.5619 15.1327 15.5619C15.3127 15.5619 15.4586 15.4159 15.4586 15.236V9.00289C15.4586 8.82295 15.3127 8.677 15.1327 8.677ZM13.3068 9.00289C13.3068 7.99452 14.1244 7.177 15.1327 7.177C16.1411 7.177 16.9586 7.99452 16.9586 9.00289V15.236C16.9586 16.2444 16.1411 17.0619 15.1327 17.0619C14.1244 17.0619 13.3068 16.2444 13.3068 15.236V9.00289ZM9.86837 11.2986C9.68842 11.2986 9.54248 11.4446 9.54248 11.6245V15.2362C9.54248 15.4161 9.68842 15.5621 9.86837 15.5621C10.0483 15.5621 10.1943 15.4161 10.1943 15.2362V11.6245C10.1943 11.4446 10.0483 11.2986 9.86837 11.2986ZM8.04248 11.6245C8.04248 10.6161 8.86 9.79862 9.86837 9.79862C10.8767 9.79862 11.6943 10.6161 11.6943 11.6245V15.2362C11.6943 16.2446 10.8767 17.0621 9.86837 17.0621C8.86 17.0621 8.04248 16.2446 8.04248 15.2362V11.6245Z" fill="#000000" />
<path fill-rule="evenodd" clip-rule="evenodd" d="M2.75 12.1182C2.75 6.73406 7.11481 2.36816 12.5 2.36816C17.8852 2.36816 22.25 6.73406 22.25 12.1182C22.25 17.5033 17.8851 21.8682 12.5 21.8682C7.11487 21.8682 2.75 17.5033 2.75 12.1182ZM12.5 3.86816C7.94335 3.86816 4.25 7.56238 4.25 12.1182C4.25 16.6749 7.9433 20.3682 12.5 20.3682C17.0567 20.3682 20.75 16.6749 20.75 12.1182C20.75 7.56238 17.0567 3.86816 12.5 3.86816Z" fill="#000000" />
</svg>