<svg width="24px"  height="24px"  viewBox="0 0 25 25" fill="none" xmlns="http://www.w3.org/2000/svg">
<path fill-rule="evenodd" clip-rule="evenodd" d="M3.34937 8.49877C3.34937 6.00729 5.36837 3.98828 7.85985 3.98828H17.1399C19.6314 3.98828 21.6504 6.00729 21.6504 8.49877V13.5922C21.6504 16.0826 19.6316 18.1027 17.1399 18.1027H7.85985C5.36825 18.1027 3.34937 16.0826 3.34937 13.5922V8.49877ZM7.85985 5.48828C6.1968 5.48828 4.84937 6.83572 4.84937 8.49877V13.5922C4.84937 15.2544 6.19693 16.6027 7.85985 16.6027H17.1399C18.8029 16.6027 20.1504 15.2544 20.1504 13.5922V8.49877C20.1504 6.83571 18.803 5.48828 17.1399 5.48828H7.85985Z" fill="#000000" />
<path fill-rule="evenodd" clip-rule="evenodd" d="M12.5 2.36914C12.9142 2.36914 13.25 2.70493 13.25 3.11914V4.74885C13.25 5.16306 12.9142 5.49885 12.5 5.49885C12.0858 5.49885 11.75 5.16306 11.75 4.74885V3.11914C11.75 2.70493 12.0858 2.36914 12.5 2.36914Z" fill="#000000" />
<path fill-rule="evenodd" clip-rule="evenodd" d="M16.9942 8.63577C17.2871 8.92871 17.287 9.40358 16.9941 9.69643L13.8543 12.8352C13.5614 13.128 13.0866 13.128 12.7937 12.8351L11.2418 11.2832L9.06734 13.4569C8.7744 13.7498 8.29952 13.7497 8.00668 13.4567C7.71384 13.1638 7.71393 12.6889 8.00687 12.3961L10.7117 9.69222C11.0046 9.39942 11.4794 9.39946 11.7723 9.69232L13.3242 11.2442L15.9336 8.6356C16.2265 8.34276 16.7014 8.34283 16.9942 8.63577Z" fill="#000000" />
<path fill-rule="evenodd" clip-rule="evenodd" d="M12.5011 16.6309C12.7024 16.6309 12.8952 16.7118 13.0362 16.8554L16.7082 20.5955C16.9984 20.8911 16.994 21.3659 16.6984 21.6561C16.4029 21.9463 15.928 21.9419 15.6378 21.6464L12.501 18.4513L9.36324 21.6464C9.07301 21.942 8.59815 21.9463 8.30262 21.656C8.00709 21.3658 8.00279 20.8909 8.29301 20.5954L11.9659 16.8554C12.107 16.7117 12.2998 16.6308 12.5011 16.6309Z" fill="#000000" />
</svg>