<svg width="24px"  height="24px"  viewBox="0 0 25 25" fill="none" xmlns="http://www.w3.org/2000/svg">
<path fill-rule="evenodd" clip-rule="evenodd" d="M4.24072 4.01561C5.22544 2.95932 6.62768 2.36816 8.28313 2.36816H16.7178C18.3772 2.36816 19.7796 2.95903 20.7635 4.01605C21.7416 5.067 22.25 6.51771 22.25 8.14552V16.0918C22.25 17.7196 21.7416 19.1701 20.7632 20.2209C19.7792 21.2777 18.3765 21.8682 16.7169 21.8682H8.28313C6.6239 21.8682 5.22126 21.2776 4.23717 20.2209C3.2587 19.1702 2.75 17.7197 2.75 16.0918V8.14552C2.75 6.51666 3.26144 5.06607 4.24072 4.01561ZM5.3379 5.03845C4.66046 5.76513 4.25 6.82821 4.25 8.14552V16.0918C4.25 17.41 4.65882 18.4727 5.33488 19.1987C6.00534 19.9186 6.99426 20.3682 8.28313 20.3682H16.7169C18.0063 20.3682 18.9952 19.9186 19.6654 19.1987C20.3414 18.4728 20.75 17.4101 20.75 16.0918V8.14552C20.75 6.82716 20.3414 5.7642 19.6655 5.03801C18.9952 4.31789 18.0066 3.86816 16.7178 3.86816H8.28313C6.99924 3.86816 6.00991 4.3176 5.3379 5.03845Z" fill="#000000" />
<path fill-rule="evenodd" clip-rule="evenodd" d="M16.6651 6.80566C17.0793 6.80566 17.4151 7.14145 17.4151 7.55566V16.6841C17.4151 17.0983 17.0793 17.4341 16.6651 17.4341C16.2509 17.4341 15.9151 17.0983 15.9151 16.6841V7.55566C15.9151 7.14145 16.2509 6.80566 16.6651 6.80566ZM12.5337 10.4059C12.9479 10.4059 13.2837 10.7416 13.2837 11.1559V16.6843C13.2837 17.0985 12.9479 17.4343 12.5337 17.4343C12.1195 17.4343 11.7837 17.0985 11.7837 16.6843V11.1559C11.7837 10.7416 12.1195 10.4059 12.5337 10.4059ZM8.33398 13.1053C8.7482 13.1053 9.08398 13.4411 9.08398 13.8553V16.6837C9.08398 17.0979 8.7482 17.4337 8.33398 17.4337C7.91977 17.4337 7.58398 17.0979 7.58398 16.6837V13.8553C7.58398 13.4411 7.91977 13.1053 8.33398 13.1053Z" fill="#000000" />
</svg>