<svg width="24px"  height="24px"  viewBox="0 0 25 25" fill="none" xmlns="http://www.w3.org/2000/svg">
<path fill-rule="evenodd" clip-rule="evenodd" d="M8.79772 7.3125C8.3835 7.3125 8.04772 7.64829 8.04772 8.0625V16.1767C8.04772 16.5909 8.3835 16.9267 8.79772 16.9267C9.21193 16.9267 9.54772 16.5909 9.54772 16.1767V8.0625C9.54772 7.64829 9.21193 7.3125 8.79772 7.3125ZM12.47 10.5127C12.0558 10.5127 11.72 10.8485 11.72 11.2627V16.1768C11.72 16.591 12.0558 16.9268 12.47 16.9268C12.8842 16.9268 13.22 16.591 13.22 16.1768V11.2627C13.22 10.8485 12.8842 10.5127 12.47 10.5127ZM16.2031 12.9122C15.7889 12.9122 15.4531 13.2479 15.4531 13.6622V16.1763C15.4531 16.5905 15.7889 16.9263 16.2031 16.9263C16.6173 16.9263 16.9531 16.5905 16.9531 16.1763V13.6622C16.9531 13.2479 16.6173 12.9122 16.2031 12.9122Z" fill="#000000" />
<path fill-rule="evenodd" clip-rule="evenodd" d="M12.5 3.86816C7.94335 3.86816 4.25 7.56238 4.25 12.1182C4.25 16.6749 7.94329 20.3682 12.5 20.3682C17.0567 20.3682 20.75 16.6749 20.75 12.1182C20.75 7.56238 17.0567 3.86816 12.5 3.86816ZM2.75 12.1182C2.75 6.73406 7.11481 2.36816 12.5 2.36816C17.8852 2.36816 22.25 6.73406 22.25 12.1182C22.25 17.5033 17.8851 21.8682 12.5 21.8682C7.11487 21.8682 2.75 17.5033 2.75 12.1182Z" fill="#000000" />
</svg>