<svg width="24px"  height="24px"  viewBox="0 0 25 25" fill="none" xmlns="http://www.w3.org/2000/svg">
<path fill-rule="evenodd" clip-rule="evenodd" d="M12.1326 3.86914C7.89783 3.86914 4.46509 7.30274 4.46509 11.5367C4.46509 15.7725 7.89783 19.2051 12.1326 19.2051C16.3674 19.2051 19.8001 15.7725 19.8001 11.5367C19.8001 7.30274 16.3674 3.86914 12.1326 3.86914ZM2.96509 11.5367C2.96509 6.47443 7.06929 2.36914 12.1326 2.36914C17.1959 2.36914 21.3001 6.47443 21.3001 11.5367C21.3001 16.6008 17.1959 20.7051 12.1326 20.7051C7.06929 20.7051 2.96509 16.6008 2.96509 11.5367Z" fill="#000000" />
<path fill-rule="evenodd" clip-rule="evenodd" d="M17.3284 17.1715C17.6209 16.8783 18.0958 16.8776 18.389 17.1702L21.814 20.5864C22.1073 20.8789 22.1079 21.3538 21.8154 21.6471C21.5229 21.9403 21.048 21.9409 20.7547 21.6484L17.3297 18.2322C17.0365 17.9397 17.0358 17.4648 17.3284 17.1715Z" fill="#000000" />
<path fill-rule="evenodd" clip-rule="evenodd" d="M16.4675 8.81538C16.7949 9.06908 16.8546 9.54018 16.6009 9.8676L14.1032 13.0912C13.9809 13.2491 13.8006 13.3516 13.6024 13.3762C13.4042 13.4007 13.2043 13.3451 13.0472 13.2217L10.7317 11.4038L8.64132 14.1206C8.38873 14.4489 7.91784 14.5102 7.58955 14.2576C7.26127 14.005 7.19991 13.5341 7.4525 13.2059L10.0047 9.88886C10.1268 9.73021 10.3072 9.62694 10.5058 9.60204C10.7045 9.57715 10.9048 9.63269 11.0623 9.7563L13.3798 11.5758L15.4152 8.94887C15.6689 8.62145 16.14 8.56168 16.4675 8.81538Z" fill="#000000" />
</svg>