<svg width="24px"  height="24px"  viewBox="0 0 25 25" fill="none" xmlns="http://www.w3.org/2000/svg">
<path fill-rule="evenodd" clip-rule="evenodd" d="M16.2023 7.78809C16.6165 7.78809 16.9523 8.12387 16.9523 8.53809V15.6957C16.9523 16.1099 16.6165 16.4457 16.2023 16.4457C15.7881 16.4457 15.4523 16.1099 15.4523 15.6957V8.53809C15.4523 8.12387 15.7881 7.78809 16.2023 7.78809ZM8.79688 8.88353C9.21109 8.88353 9.54688 9.21931 9.54688 9.63353V15.6962C9.54688 16.1104 9.21109 16.4462 8.79688 16.4462C8.38266 16.4462 8.04688 16.1104 8.04688 15.6962V9.63353C8.04688 9.21931 8.38266 8.88353 8.79688 8.88353ZM12.5308 11.9139C12.945 11.9139 13.2808 12.2497 13.2808 12.6639V15.6961C13.2808 16.1104 12.945 16.4461 12.5308 16.4461C12.1166 16.4461 11.7808 16.1104 11.7808 15.6961V12.6639C11.7808 12.2497 12.1166 11.9139 12.5308 11.9139Z" fill="#000000" />
<path fill-rule="evenodd" clip-rule="evenodd" d="M2.75 12.1182C2.75 6.73406 7.11481 2.36816 12.5 2.36816C17.8852 2.36816 22.25 6.73406 22.25 12.1182C22.25 17.5033 17.8851 21.8682 12.5 21.8682C7.11487 21.8682 2.75 17.5033 2.75 12.1182ZM12.5 3.86816C7.94335 3.86816 4.25 7.56238 4.25 12.1182C4.25 16.6749 7.9433 20.3682 12.5 20.3682C17.0567 20.3682 20.75 16.6749 20.75 12.1182C20.75 7.56238 17.0567 3.86816 12.5 3.86816Z" fill="#000000" />
</svg>