<svg width="24px"  height="24px"  viewBox="0 0 25 25" fill="none" xmlns="http://www.w3.org/2000/svg">
<path fill-rule="evenodd" clip-rule="evenodd" d="M20.7593 4.01561C19.7746 2.95932 18.3723 2.36816 16.7169 2.36816H8.28216C6.6228 2.36816 5.22035 2.95903 4.23654 4.01605C3.25838 5.067 2.75 6.51771 2.75 8.14552V16.0918C2.75 17.7196 3.25839 19.1701 4.23677 20.2209C5.22078 21.2777 6.62347 21.8682 8.28314 21.8682H16.7169C18.3761 21.8682 19.7787 21.2776 20.7628 20.2209C21.7413 19.1702 22.25 17.7197 22.25 16.0918V8.14552C22.25 6.51666 21.7386 5.06607 20.7593 4.01561ZM19.6621 5.03845C20.3395 5.76513 20.75 6.82821 20.75 8.14552V16.0918C20.75 17.41 20.3412 18.4727 19.6651 19.1987C18.9947 19.9186 18.0057 20.3682 16.7169 20.3682H8.28314C6.99372 20.3682 6.00484 19.9186 5.33456 19.1987C4.65863 18.4728 4.25 17.4101 4.25 16.0918V8.14552C4.25 6.82716 4.65865 5.7642 5.33454 5.03801C6.00478 4.31789 6.99342 3.86816 8.28216 3.86816H16.7169C18.0008 3.86816 18.9901 4.3176 19.6621 5.03845Z" fill="#000000" />
<path fill-rule="evenodd" clip-rule="evenodd" d="M8.33493 6.80566C7.92072 6.80566 7.58493 7.14145 7.58493 7.55566V16.6841C7.58493 17.0983 7.92072 17.4341 8.33493 17.4341C8.74915 17.4341 9.08493 17.0983 9.08493 16.6841V7.55566C9.08493 7.14145 8.74915 6.80566 8.33493 6.80566ZM12.4663 10.4059C12.0521 10.4059 11.7163 10.7416 11.7163 11.1559V16.6843C11.7163 17.0985 12.0521 17.4343 12.4663 17.4343C12.8805 17.4343 13.2163 17.0985 13.2163 16.6843V11.1559C13.2163 10.7416 12.8805 10.4059 12.4663 10.4059ZM16.666 13.1053C16.2518 13.1053 15.916 13.4411 15.916 13.8553V16.6837C15.916 17.0979 16.2518 17.4337 16.666 17.4337C17.0802 17.4337 17.416 17.0979 17.416 16.6837V13.8553C17.416 13.4411 17.0802 13.1053 16.666 13.1053Z" fill="#000000" />
</svg>