<svg width="24px"  height="24px"  viewBox="0 0 25 25" fill="none" xmlns="http://www.w3.org/2000/svg">
<path fill-rule="evenodd" clip-rule="evenodd" d="M4.24076 4.01594C5.22547 2.95981 6.62768 2.36865 8.28313 2.36865H16.7178C18.3772 2.36865 19.7796 2.95951 20.7634 4.01638C21.7416 5.06718 22.25 6.51765 22.25 8.14503V16.0923C22.25 17.7197 21.7416 19.1702 20.7633 20.221C19.7793 21.2778 18.3766 21.8687 16.7169 21.8687H8.28313C6.62379 21.8687 5.22117 21.2778 4.23714 20.221C3.25872 19.1702 2.75 17.7198 2.75 16.0923V8.14503C2.75 6.5166 3.26147 5.06625 4.24076 4.01594ZM5.33786 5.03885C4.66042 5.76543 4.25 6.82827 4.25 8.14503V16.0923C4.25 17.41 4.65879 18.4727 5.33492 19.1988C6.00542 19.9189 6.99437 20.3687 8.28313 20.3687H16.7169C18.0062 20.3687 18.9951 19.9189 19.6654 19.1989C20.3414 18.4728 20.75 17.4101 20.75 16.0923V8.14503C20.75 6.82723 20.3414 5.7645 19.6655 5.03841C18.9952 4.31839 18.0066 3.86865 16.7178 3.86865H8.28313C6.99924 3.86865 6.00988 4.31809 5.33786 5.03885Z" fill="#000000" />
<path fill-rule="evenodd" clip-rule="evenodd" d="M18.381 13.2229C18.6513 13.5367 18.6161 14.0103 18.3023 14.2806L14.495 17.5605C14.2114 17.8049 13.791 17.8026 13.5099 17.5553L11.4052 15.7026L8.51905 17.8428C8.18634 18.0896 7.71661 18.0199 7.46988 17.6872C7.22315 17.3544 7.29286 16.8847 7.62557 16.638L10.9989 14.1365C11.283 13.9258 11.6757 13.9422 11.9412 14.1759L14.0108 15.9978L17.3232 13.1442C17.6371 12.8738 18.1106 12.9091 18.381 13.2229Z" fill="#000000" />
<path fill-rule="evenodd" clip-rule="evenodd" d="M13.6191 8.81075C13.6191 7.47708 14.7002 6.396 16.0339 6.396C17.3683 6.396 18.4496 7.47679 18.4496 8.81075C18.4496 10.1447 17.3683 11.2255 16.0339 11.2255C14.7002 11.2255 13.6191 10.1444 13.6191 8.81075ZM16.0339 7.896C15.5287 7.896 15.1191 8.30551 15.1191 8.81075C15.1191 9.316 15.5287 9.72551 16.0339 9.72551C16.5404 9.72551 16.9496 9.31571 16.9496 8.81075C16.9496 8.30579 16.5404 7.896 16.0339 7.896Z" fill="#000000" />
<path fill-rule="evenodd" clip-rule="evenodd" d="M6.43945 7.7085C6.43945 7.29428 6.77524 6.9585 7.18945 6.9585H9.67345C10.0877 6.9585 10.4235 7.29428 10.4235 7.7085C10.4235 8.12271 10.0877 8.4585 9.67345 8.4585H7.18945C6.77524 8.4585 6.43945 8.12271 6.43945 7.7085ZM6.43945 10.7101C6.43945 10.2959 6.77524 9.96008 7.18945 9.96008H11.1349C11.5491 9.96008 11.8849 10.2959 11.8849 10.7101C11.8849 11.1243 11.5491 11.4601 11.1349 11.4601H7.18945C6.77524 11.4601 6.43945 11.1243 6.43945 10.7101Z" fill="#000000" />
</svg>