<svg width="24px"  height="24px"  viewBox="0 0 25 25" fill="none" xmlns="http://www.w3.org/2000/svg">
<path fill-rule="evenodd" clip-rule="evenodd" d="M12.5 3.86865C7.94335 3.86865 4.25 7.56287 4.25 12.1187C4.25 16.6754 7.94329 20.3687 12.5 20.3687C17.0567 20.3687 20.75 16.6754 20.75 12.1187C20.75 7.56287 17.0567 3.86865 12.5 3.86865ZM2.75 12.1187C2.75 6.73455 7.11481 2.36865 12.5 2.36865C17.8852 2.36865 22.25 6.73455 22.25 12.1187C22.25 17.5038 17.8851 21.8687 12.5 21.8687C7.11487 21.8687 2.75 17.5038 2.75 12.1187Z" fill="#000000" />
<path fill-rule="evenodd" clip-rule="evenodd" d="M12.5 2.36865C12.9142 2.36865 13.25 2.70444 13.25 3.11865V11.3687H21.499C21.9132 11.3687 22.249 11.7044 22.249 12.1187C22.249 12.5329 21.9132 12.8687 21.499 12.8687H13.9012L18.1232 19.2023C18.3529 19.547 18.2597 20.0126 17.9151 20.2424C17.5704 20.4721 17.1048 20.379 16.875 20.0343L12.1966 13.0158L4.22982 15.7508C3.83805 15.8853 3.41142 15.6768 3.27693 15.285C3.14243 14.8932 3.35099 14.4666 3.74276 14.3321L11.75 11.5832V3.11865C11.75 2.70444 12.0857 2.36865 12.5 2.36865Z" fill="#000000" />
</svg>