<svg width="24px"  height="24px"  viewBox="0 0 25 25" fill="none" xmlns="http://www.w3.org/2000/svg">
<path fill-rule="evenodd" clip-rule="evenodd" d="M12.5 3.86865C7.94335 3.86865 4.25 7.56287 4.25 12.1187C4.25 16.6754 7.94329 20.3687 12.5 20.3687C17.0567 20.3687 20.75 16.6754 20.75 12.1187C20.75 7.56287 17.0567 3.86865 12.5 3.86865ZM2.75 12.1187C2.75 6.73455 7.11481 2.36865 12.5 2.36865C17.8852 2.36865 22.25 6.73455 22.25 12.1187C22.25 17.5038 17.8851 21.8687 12.5 21.8687C7.11487 21.8687 2.75 17.5038 2.75 12.1187Z" fill="#000000" />
<path fill-rule="evenodd" clip-rule="evenodd" d="M12.5 2.36865C12.9142 2.36865 13.25 2.70444 13.25 3.11865V11.243L21.2758 9.99475C21.6851 9.93109 22.0685 10.2113 22.1321 10.6206C22.1958 11.0299 21.9156 11.4133 21.5063 11.4769L13.5981 12.7069L16.956 19.9731C17.1297 20.3491 16.9658 20.7948 16.5898 20.9685C16.2138 21.1423 15.7681 20.9784 15.5943 20.6024L11.8192 12.4333C11.7736 12.3347 11.75 12.2273 11.75 12.1187V3.11865C11.75 2.70444 12.0858 2.36865 12.5 2.36865Z" fill="#000000" />
</svg>