<svg width="24px"  height="24px"  viewBox="0 0 25 25" fill="none" xmlns="http://www.w3.org/2000/svg">
<path fill-rule="evenodd" clip-rule="evenodd" d="M10.45 7.50476C7.24142 7.87604 4.75 10.6032 4.75 13.9117C4.75 17.4739 7.63776 20.3617 11.2 20.3617C11.804 20.3617 12.3877 20.2789 12.9407 20.1243L10.54 14.2787L11.2337 13.9938L10.54 14.2787C10.4806 14.1341 10.45 13.9792 10.45 13.8228V7.50476ZM10.7037 5.97694C11.4133 5.93318 11.95 6.51133 11.95 7.16168V13.7636L14.4589 19.8726C14.7055 20.473 14.4306 21.2127 13.7559 21.4417C12.9528 21.7142 12.0928 21.8617 11.2 21.8617C6.80934 21.8617 3.25 18.3023 3.25 13.9117C3.25 9.68765 6.54389 6.23352 10.7037 5.97694Z" fill="#000000" />
<path fill-rule="evenodd" clip-rule="evenodd" d="M21.0426 12.211L16.6962 14.0626L18.5864 18.2927C20.2002 17.3512 21.2501 15.6401 21.2501 13.6717C21.2501 13.1717 21.1766 12.6782 21.0426 12.211ZM20.7738 10.695C21.363 10.4441 22.1056 10.698 22.3466 11.3696C22.6041 12.0875 22.7501 12.8697 22.7501 13.6717C22.7501 16.3516 21.2261 18.6569 18.956 19.7979C18.3249 20.115 17.6159 19.7975 17.3561 19.2161L15.2021 14.3958C14.9284 13.7832 15.2101 13.0652 15.8274 12.8023L20.7738 10.695Z" fill="#000000" />
<path fill-rule="evenodd" clip-rule="evenodd" d="M15.55 3.90882V9.14405L20.0948 7.06645C19.1518 5.34822 17.4876 4.15519 15.55 3.90882ZM14.05 3.56156C14.05 2.91274 14.5863 2.33048 15.3 2.37824C18.0731 2.56379 20.4197 4.27609 21.5977 6.70893C21.8991 7.33135 21.5936 8.03061 21.0175 8.29395L15.749 10.7024C14.9542 11.0657 14.05 10.4849 14.05 9.61106V3.56156Z" fill="#000000" />
</svg>