<svg width="24px"  height="24px"  viewBox="0 0 25 25" fill="none" xmlns="http://www.w3.org/2000/svg">
<path fill-rule="evenodd" clip-rule="evenodd" d="M12.4998 7.60693C10.0082 7.60693 7.98828 9.62682 7.98828 12.1185C7.98828 14.6101 10.0082 16.63 12.4998 16.63C14.9915 16.63 17.0114 14.6101 17.0114 12.1185C17.0114 10.8646 16.5008 9.73135 15.6744 8.91289C14.8585 8.10474 13.738 7.60693 12.4998 7.60693ZM6.48828 12.1185C6.48828 8.79839 9.17974 6.10693 12.4998 6.10693C14.1491 6.10693 15.6446 6.77213 16.73 7.84713C17.8291 8.93574 18.5114 10.4481 18.5114 12.1185C18.5114 15.4386 15.8199 18.13 12.4998 18.13C9.17974 18.13 6.48828 15.4386 6.48828 12.1185Z" fill="#000000" />
<path fill-rule="evenodd" clip-rule="evenodd" d="M12.5 3.86865C7.94365 3.86865 4.25 7.5623 4.25 12.1187C4.25 16.675 7.94365 20.3687 12.5 20.3687C17.0563 20.3687 20.75 16.675 20.75 12.1187C20.75 9.82591 19.8157 7.75277 18.3053 6.25679C16.8138 4.77964 14.764 3.86865 12.5 3.86865ZM2.75 12.1187C2.75 6.73388 7.11522 2.36865 12.5 2.36865C15.1752 2.36865 17.5999 3.44702 19.3608 5.19104C21.144 6.95716 22.25 9.40945 22.25 12.1187C22.25 17.5034 17.8848 21.8687 12.5 21.8687C7.11522 21.8687 2.75 17.5034 2.75 12.1187Z" fill="#000000" />
<path fill-rule="evenodd" clip-rule="evenodd" d="M12.5 16.6299C12.9142 16.6299 13.25 16.9657 13.25 17.3799V21.1013C13.25 21.5155 12.9142 21.8513 12.5 21.8513C12.0858 21.8513 11.75 21.5155 11.75 21.1013V17.3799C11.75 16.9657 12.0858 16.6299 12.5 16.6299Z" fill="#000000" />
<path fill-rule="evenodd" clip-rule="evenodd" d="M7.98877 12.1187C7.98877 12.5329 7.65298 12.8687 7.23877 12.8687L3.51733 12.8687C3.10312 12.8687 2.76733 12.5329 2.76733 12.1187C2.76733 11.7044 3.10312 11.3687 3.51733 11.3687L7.23877 11.3687C7.65298 11.3687 7.98877 11.7044 7.98877 12.1187Z" fill="#000000" />
<path fill-rule="evenodd" clip-rule="evenodd" d="M19.3824 5.23638C19.6753 5.52928 19.6753 6.00415 19.3824 6.29705L16.7509 8.9285C16.458 9.22139 15.9832 9.22139 15.6903 8.9285C15.3974 8.6356 15.3974 8.16073 15.6903 7.86784L18.3217 5.23638C18.6146 4.94349 19.0895 4.94349 19.3824 5.23638Z" fill="#000000" />
<path fill-rule="evenodd" clip-rule="evenodd" d="M19.3823 19.001C19.0894 19.2939 18.6145 19.2939 18.3216 19.001L15.6902 16.3696C15.3973 16.0767 15.3973 15.6018 15.6902 15.3089C15.983 15.016 16.4579 15.016 16.7508 15.3089L19.3823 17.9404C19.6752 18.2333 19.6752 18.7081 19.3823 19.001Z" fill="#000000" />
<path fill-rule="evenodd" clip-rule="evenodd" d="M9.31 8.92877C9.01711 9.22166 8.54223 9.22166 8.24934 8.92877L5.61789 6.29732C5.325 6.00442 5.325 5.52955 5.61789 5.23665C5.91078 4.94376 6.38566 4.94376 6.67855 5.23665L9.31 7.86811C9.6029 8.161 9.6029 8.63587 9.31 8.92877Z" fill="#000000" />
</svg>