<svg width="24px"  height="24px"  viewBox="0 0 25 25" fill="none" xmlns="http://www.w3.org/2000/svg">
<path fill-rule="evenodd" clip-rule="evenodd" d="M10.576 5.08214C7.02096 5.45637 4.25 8.46435 4.25 12.119C4.25 15.7736 7.02096 18.7815 10.576 19.1558V17.3917C7.9898 17.0267 6.00081 14.8056 6.00081 12.119C6.00081 9.4323 7.9898 7.21117 10.576 6.84623V5.08214ZM10.7783 3.56016C11.5166 3.51356 12.076 4.11542 12.076 4.79333V7.04332C12.076 7.75221 11.5113 8.25073 10.9074 8.31631C8.99208 8.52433 7.50081 10.148 7.50081 12.119C7.50081 14.0899 8.99208 15.7136 10.9074 15.9216C11.5113 15.9872 12.076 16.4857 12.076 17.1946V19.4446C12.076 20.1225 11.5166 20.7243 10.7783 20.6777C6.29674 20.3949 2.75 16.6714 2.75 12.119C2.75 7.5665 6.29674 3.84301 10.7783 3.56016Z" fill="#000000" />
<path fill-rule="evenodd" clip-rule="evenodd" d="M14.4387 3.90052V5.66461C15.6012 5.82865 16.6424 6.36773 17.4359 7.15364C18.2416 7.95161 18.7949 9.00698 18.9614 10.1873H20.7255C20.5461 8.48229 19.7611 6.95744 18.5874 5.83117C17.4845 4.77277 16.0413 4.06918 14.4387 3.90052ZM12.9387 3.61171C12.9387 2.93441 13.4972 2.3319 14.2361 2.37851C16.324 2.51021 18.2091 3.38912 19.626 4.7489C21.1282 6.19047 22.1079 8.17606 22.2475 10.3899C22.2941 11.1288 21.6917 11.6873 21.0143 11.6873H18.7643C18.0557 11.6873 17.557 11.1229 17.4914 10.5188C17.3942 9.62423 16.9884 8.82156 16.3804 8.2194C15.7812 7.62598 14.9889 7.23041 14.1073 7.13468C13.5031 7.06909 12.9387 6.5704 12.9387 5.8617V3.61171Z" fill="#000000" />
<path fill-rule="evenodd" clip-rule="evenodd" d="M18.9614 14.0498C18.6311 16.3912 16.7801 18.2422 14.4387 18.5725V20.3366C17.7473 19.9883 20.3772 17.3584 20.7255 14.0498H18.9614ZM17.4914 13.7184C17.5569 13.1145 18.0555 12.5498 18.7643 12.5498H21.0143C21.6923 12.5498 22.2941 13.1092 22.2475 13.8476C21.9761 18.148 18.537 21.5872 14.2365 21.8586C13.4981 21.9052 12.9387 21.3033 12.9387 20.6254V18.3754C12.9387 17.6665 13.5035 17.168 14.1074 17.1024C15.8849 16.9094 17.2983 15.496 17.4914 13.7184Z" fill="#000000" />
</svg>