<svg width="24px"  height="24px"  viewBox="0 0 25 25" fill="none" xmlns="http://www.w3.org/2000/svg">
<path fill-rule="evenodd" clip-rule="evenodd" d="M14.1749 5.66844V7.53591C15.3773 7.70096 16.4547 8.25647 17.2746 9.06852C18.2748 10.0591 18.8957 11.4356 18.8957 12.9557C18.8957 15.9771 16.4463 18.4265 13.4249 18.4265C10.6577 18.4265 8.37116 16.3726 8.00513 13.7057H6.13766C6.51293 17.3986 9.6326 20.2808 13.4249 20.2808C17.4704 20.2808 20.75 17.0012 20.75 12.9557C20.75 10.8782 19.8862 9.00379 18.496 7.66978C17.3483 6.56835 15.8445 5.83806 14.1749 5.66844ZM12.6749 5.39327C12.6749 4.70908 13.2389 4.10135 13.9843 4.14803C16.1343 4.28269 18.0756 5.18735 19.5346 6.5875C21.2073 8.19265 22.25 10.453 22.25 12.9557C22.25 17.8296 18.2989 21.7808 13.4249 21.7808C8.73888 21.7808 4.90639 18.1289 4.61727 13.5154C4.5706 12.7706 5.1777 12.2057 5.86249 12.2057H8.19135C8.90691 12.2057 9.41126 12.7759 9.47717 13.3872C9.69171 15.3769 11.3778 16.9265 13.4249 16.9265C15.6179 16.9265 17.3957 15.1487 17.3957 12.9557C17.3957 11.8521 16.9465 10.8547 16.219 10.1343C15.5964 9.51763 14.7728 9.10674 13.8563 9.00794C13.2448 8.94202 12.6749 8.43752 12.6749 7.72213V5.39327Z" fill="#000000" />
<path fill-rule="evenodd" clip-rule="evenodd" d="M15.334 16.499C15.7008 16.3067 16.1541 16.4481 16.3465 16.8149L17.8367 19.6567C18.0291 20.0236 17.8877 20.4769 17.5208 20.6692C17.154 20.8616 16.7007 20.7202 16.5083 20.3533L15.0181 17.5116C14.8257 17.1447 14.9671 16.6914 15.334 16.499Z" fill="#000000" />
<path fill-rule="evenodd" clip-rule="evenodd" d="M9.49984 3.98513C6.7764 4.32346 4.61668 6.48319 4.27835 9.20663H5.60288C5.92334 7.20745 7.50066 5.63013 9.49984 5.30966V3.98513ZM9.6811 2.46015C10.435 2.40367 10.9998 3.01962 10.9998 3.70163V5.48742C10.9998 6.20592 10.4283 6.70003 9.83429 6.77672C8.39635 6.96236 7.25557 8.10314 7.06993 9.54108C6.99324 10.1351 6.49913 10.7066 5.78063 10.7066H3.99484C3.31283 10.7066 2.69689 10.1418 2.75336 9.38789C3.03044 5.68892 5.98213 2.73722 9.6811 2.46015Z" fill="#000000" />
<path fill-rule="evenodd" clip-rule="evenodd" d="M19.5684 7.63562L17.2999 10.1084L16.1946 9.09434L18.4631 6.62158L19.5684 7.63562Z" fill="#000000" />
</svg>