<svg width="24px"  height="24px"  viewBox="0 0 25 25" fill="none" xmlns="http://www.w3.org/2000/svg">
<path fill-rule="evenodd" clip-rule="evenodd" d="M5.18823 10.6099C5.60245 10.6099 5.93823 10.9456 5.93823 11.3599V20.1159C5.93823 20.5301 5.60245 20.8659 5.18823 20.8659C4.77402 20.8659 4.43823 20.5301 4.43823 20.1159V11.3599C4.43823 10.9456 4.77402 10.6099 5.18823 10.6099ZM19.8116 12.7929C20.2258 12.7929 20.5616 13.1287 20.5616 13.5429V20.1159C20.5616 20.5301 20.2258 20.8659 19.8116 20.8659C19.3974 20.8659 19.0616 20.5301 19.0616 20.1159V13.5429C19.0616 13.1287 19.3974 12.7929 19.8116 12.7929ZM12.4999 14.9759C12.9141 14.9759 13.2499 15.3116 13.2499 15.7259V20.1159C13.2499 20.5301 12.9141 20.8659 12.4999 20.8659C12.0857 20.8659 11.7499 20.5301 11.7499 20.1159V15.7259C11.7499 15.3116 12.0857 14.9759 12.4999 14.9759Z" fill="#000000" />
<path fill-rule="evenodd" clip-rule="evenodd" d="M18.9322 8.77467C19.0819 9.16091 18.8901 9.59532 18.5038 9.74496L14.3961 11.3364C14.0099 11.486 13.5755 11.2942 13.4259 10.908C13.2762 10.5217 13.468 10.0873 13.8543 9.93766L17.9619 8.34626C18.3482 8.19662 18.7826 8.38843 18.9322 8.77467Z" fill="#000000" />
<path fill-rule="evenodd" clip-rule="evenodd" d="M5.99116 6.32167C6.24311 5.9929 6.71389 5.93062 7.04266 6.18257L11.5341 9.6245C11.8629 9.87645 11.9252 10.3472 11.6732 10.676C11.4212 11.0048 10.9505 11.0671 10.6217 10.8151L6.13027 7.37317C5.80149 7.12122 5.73921 6.65045 5.99116 6.32167Z" fill="#000000" />
<path fill-rule="evenodd" clip-rule="evenodd" d="M10.7757 9.38115C11.7279 8.42894 13.2717 8.42894 14.2239 9.38115C15.1762 10.3334 15.1762 11.8772 14.2239 12.8294C13.2717 13.7816 11.7279 13.7816 10.7757 12.8294C9.82347 11.8772 9.82347 10.3334 10.7757 9.38115ZM13.1633 10.4418C12.7969 10.0754 12.2028 10.0754 11.8363 10.4418C11.4699 10.8082 11.4699 11.4023 11.8363 11.7687C12.2028 12.1352 12.7969 12.1352 13.1633 11.7687C13.5297 11.4023 13.5297 10.8082 13.1633 10.4418Z" fill="#000000" />
<path fill-rule="evenodd" clip-rule="evenodd" d="M3.46416 4.08476C4.41637 3.13255 5.96021 3.13255 6.91242 4.08476C7.86463 5.03697 7.86463 6.58081 6.91242 7.53302C5.96021 8.48523 4.41637 8.48523 3.46416 7.53302C2.51195 6.58081 2.51195 5.03697 3.46416 4.08476ZM5.85176 5.14542C5.48533 4.779 4.89124 4.779 4.52482 5.14542C4.15839 5.51185 4.15839 6.10594 4.52482 6.47236C4.89124 6.83879 5.48533 6.83879 5.85176 6.47236C6.21818 6.10594 6.21818 5.51185 5.85176 5.14542Z" fill="#000000" />
<path fill-rule="evenodd" clip-rule="evenodd" d="M18.0877 6.74834C19.0399 5.79613 20.5837 5.79613 21.536 6.74834C22.4882 7.70055 22.4882 9.24439 21.536 10.1966C20.5837 11.1488 19.0399 11.1488 18.0877 10.1966C17.1355 9.24439 17.1355 7.70055 18.0877 6.74834ZM20.4753 7.809C20.1089 7.44257 19.5148 7.44257 19.1484 7.809C18.7819 8.17542 18.7819 8.76951 19.1484 9.13594C19.5148 9.50236 20.1089 9.50236 20.4753 9.13594C20.8417 8.76951 20.8417 8.17542 20.4753 7.809Z" fill="#000000" />
</svg>