<svg width="24px"  height="24px"  viewBox="0 0 25 25" fill="none" xmlns="http://www.w3.org/2000/svg">
<path fill-rule="evenodd" clip-rule="evenodd" d="M2.97387 6.58366C3.26907 6.29309 3.74393 6.29684 4.0345 6.59204L10.6359 13.2985L14.1917 9.67675C14.3329 9.533 14.5259 9.45207 14.7274 9.4522C14.9289 9.45233 15.1218 9.5335 15.2628 9.67743L22.0358 16.5934C22.3257 16.8893 22.3207 17.3642 22.0248 17.654C21.7288 17.9438 21.254 17.9389 20.9642 17.6429L14.7262 11.2734L11.1717 14.8937C11.0308 15.0373 10.8382 15.1182 10.637 15.1183C10.4359 15.1184 10.2431 15.0378 10.102 14.8944L2.9655 7.64429C2.67493 7.34909 2.67868 6.87424 2.97387 6.58366Z" fill="#000000" />
</svg>