<svg width="24px"  height="24px"  viewBox="0 0 25 25" fill="none" xmlns="http://www.w3.org/2000/svg">
<path fill-rule="evenodd" clip-rule="evenodd" d="M4.2367 4.0165C5.22067 2.95947 6.62336 2.36865 8.28313 2.36865H16.7169C18.3762 2.36865 19.7789 2.9595 20.7629 4.01646C21.7413 5.06737 22.25 6.51809 22.25 8.146V16.0923C22.25 17.7211 21.7386 19.1715 20.7592 20.2218C19.7744 21.2778 18.3722 21.8687 16.7169 21.8687H8.28216C6.62291 21.8687 5.22047 21.2781 4.23661 20.2213C3.25839 19.1706 2.75 17.7201 2.75 16.0923V8.146C2.75 6.51819 3.25838 5.06746 4.2367 4.0165ZM5.33463 5.03854C4.65864 5.76471 4.25 6.82765 4.25 8.146V16.0923C4.25 17.4106 4.65864 18.4733 5.33447 19.1992C6.00467 19.9191 6.99331 20.3687 8.28216 20.3687H16.7169C18.0009 20.3687 18.9902 19.9194 19.6622 19.1988C20.3396 18.4724 20.75 17.4096 20.75 16.0923V8.146C20.75 6.82776 20.3412 5.7648 19.665 5.03858C18.9945 4.3184 18.0056 3.86865 16.7169 3.86865H8.28313C6.99383 3.86865 6.00495 4.31843 5.33463 5.03854Z" fill="#000000" />
<path fill-rule="evenodd" clip-rule="evenodd" d="M17.6114 9.04386C17.9397 9.29649 18.001 9.76739 17.7484 10.0956L14.8363 13.8795C14.7142 14.0382 14.5338 14.1414 14.3352 14.1663C14.1366 14.1912 13.9363 14.1356 13.7788 14.0121L11.0508 11.8705L8.6632 14.9518C8.40949 15.2792 7.93839 15.3389 7.61097 15.0852C7.28355 14.8315 7.22379 14.3604 7.4775 14.033L10.3273 10.3552C10.4497 10.1973 10.6299 10.0947 10.8282 10.0702C11.0264 10.0457 11.2262 10.1013 11.3833 10.2246L14.1094 12.3646L16.5597 9.1808C16.8123 8.85254 17.2832 8.79123 17.6114 9.04386Z" fill="#000000" />
</svg>