<svg width="24px"  height="24px"  viewBox="0 0 25 25" fill="none" xmlns="http://www.w3.org/2000/svg">
<path fill-rule="evenodd" clip-rule="evenodd" d="M8.25781 10.1157C8.25781 10.5299 8.5936 10.8657 9.00781 10.8657L12.19 10.8657C12.6042 10.8657 12.94 10.5299 12.94 10.1157C12.94 9.70151 12.6042 9.36572 12.19 9.36572L9.00781 9.36572C8.5936 9.36572 8.25781 9.70151 8.25781 10.1157Z" fill="#000000" />
<path fill-rule="evenodd" clip-rule="evenodd" d="M8.25879 5.34326C8.25879 5.75748 8.59458 6.09326 9.00879 6.09326L18.6239 6.09326C19.0381 6.09326 19.3739 5.75747 19.3739 5.34326C19.3739 4.92905 19.0381 4.59326 18.6239 4.59326L9.00879 4.59326C8.59458 4.59326 8.25879 4.92905 8.25879 5.34326Z" fill="#000000" />
<path fill-rule="evenodd" clip-rule="evenodd" d="M8.25635 14.8862C8.25635 15.3004 8.59213 15.6362 9.00635 15.6362L13.7557 15.6362C14.1699 15.6362 14.5057 15.3004 14.5057 14.8862C14.5057 14.472 14.1699 14.1362 13.7557 14.1362L9.00635 14.1362C8.59213 14.1362 8.25635 14.472 8.25635 14.8862Z" fill="#000000" />
<path fill-rule="evenodd" clip-rule="evenodd" d="M4.5 3.36865C4.91421 3.36865 5.25 3.70444 5.25 4.11865V18.1187C5.25 18.809 5.80964 19.3687 6.5 19.3687H20.5C20.9142 19.3687 21.25 19.7044 21.25 20.1187C21.25 20.5329 20.9142 20.8687 20.5 20.8687H6.5C4.98122 20.8687 3.75 19.6374 3.75 18.1187V4.11865C3.75 3.70444 4.08579 3.36865 4.5 3.36865Z" fill="#000000" />
</svg>