<svg width="24px"  height="24px"  viewBox="0 0 25 25" fill="none" xmlns="http://www.w3.org/2000/svg">
<path fill-rule="evenodd" clip-rule="evenodd" d="M4.5 3.36914C4.91421 3.36914 5.25 3.70493 5.25 4.11914V18.1191C5.25 18.8095 5.80964 19.3691 6.5 19.3691H20.5C20.9142 19.3691 21.25 19.7049 21.25 20.1191C21.25 20.5334 20.9142 20.8691 20.5 20.8691H6.5C4.98122 20.8691 3.75 19.6379 3.75 18.1191V4.11914C3.75 3.70493 4.08579 3.36914 4.5 3.36914Z" fill="#000000" />
<path fill-rule="evenodd" clip-rule="evenodd" d="M20.4499 5.7107C20.8274 5.88124 20.9951 6.3255 20.8246 6.70297L20.1411 6.39418C20.8246 6.70297 20.8247 6.70278 20.8246 6.70297L20.8237 6.70495L20.8222 6.70824L20.8174 6.71873L20.8006 6.75468C20.7863 6.78509 20.7656 6.82813 20.739 6.882C20.6859 6.98965 20.6085 7.14111 20.5091 7.32189C20.3113 7.6817 20.0216 8.16613 19.657 8.65495C19.2952 9.14004 18.8415 9.65411 18.3099 10.0527C17.7794 10.4503 17.1222 10.7689 16.3717 10.7689C15.0502 10.7689 14.0897 9.94367 13.3981 9.34955L13.3919 9.34422C13.3699 9.32528 13.3481 9.30655 13.3266 9.28803C12.9793 8.98944 12.6964 8.74617 12.4091 8.56715C12.1172 8.38531 11.8828 8.31133 11.6596 8.31773C10.9031 8.33942 10.1789 8.90476 9.57564 9.65466C9.28943 10.0104 9.06261 10.3682 8.90697 10.6388C8.82962 10.7732 8.77101 10.8841 8.73252 10.9597C8.7133 10.9974 8.69917 11.0262 8.6903 11.0446L8.68098 11.0641L8.67972 11.0668C8.50664 11.4429 8.06132 11.608 7.68506 11.4351C7.30868 11.2621 7.14378 10.8168 7.31674 10.4404L7.99823 10.7536C7.31674 10.4404 7.31664 10.4407 7.31674 10.4404L7.31771 10.4383L7.31922 10.4351L7.32385 10.4252L7.33947 10.3925C7.35269 10.3651 7.37154 10.3267 7.39586 10.279C7.44445 10.1836 7.51516 10.05 7.60678 9.89075C7.78908 9.57388 8.05879 9.14713 8.40691 8.71441C9.0723 7.88733 10.1681 6.85988 11.6166 6.81835C12.237 6.80056 12.7638 7.02086 13.2022 7.29401C13.5924 7.53707 13.9608 7.85445 14.2836 8.13257C14.3126 8.15754 14.3412 8.1822 14.3694 8.20646C15.1179 8.84948 15.6788 9.26891 16.3717 9.26891C16.6871 9.26891 17.034 9.13441 17.4101 8.85245C17.7851 8.57135 18.1405 8.17924 18.4546 7.75814C18.7659 7.34078 19.0188 6.91902 19.1947 6.5992C19.2821 6.44015 19.3494 6.30844 19.3941 6.21786C19.4164 6.17261 19.4331 6.13778 19.4438 6.11509L19.4553 6.09043L19.4576 6.08538C19.6283 5.70811 20.0725 5.5402 20.4499 5.7107Z" fill="#000000" />
<path fill-rule="evenodd" clip-rule="evenodd" d="M18.5195 12.3984C18.9337 12.3984 19.2695 12.7342 19.2695 13.1484V15.8978C19.2695 16.312 18.9337 16.6478 18.5195 16.6478C18.1053 16.6478 17.7695 16.312 17.7695 15.8978V13.1484C17.7695 12.7342 18.1053 12.3984 18.5195 12.3984Z" fill="#000000" />
<path fill-rule="evenodd" clip-rule="evenodd" d="M11.6519 11.3906C12.0661 11.3906 12.4019 11.7264 12.4019 12.1406V15.8978C12.4019 16.312 12.0661 16.6478 11.6519 16.6478C11.2376 16.6478 10.9019 16.312 10.9019 15.8978V12.1406C10.9019 11.7264 11.2376 11.3906 11.6519 11.3906Z" fill="#000000" />
<path fill-rule="evenodd" clip-rule="evenodd" d="M15.0859 14.1318C15.5002 14.1318 15.8359 14.4676 15.8359 14.8818V15.898C15.8359 16.3122 15.5002 16.648 15.0859 16.648C14.6717 16.648 14.3359 16.3122 14.3359 15.898V14.8818C14.3359 14.4676 14.6717 14.1318 15.0859 14.1318Z" fill="#000000" />
<path fill-rule="evenodd" clip-rule="evenodd" d="M8.11816 14.1318C8.53238 14.1318 8.86816 14.4676 8.86816 14.8818V15.898C8.86816 16.3122 8.53238 16.648 8.11816 16.648C7.70395 16.648 7.36816 16.3122 7.36816 15.898V14.8818C7.36816 14.4676 7.70395 14.1318 8.11816 14.1318Z" fill="#000000" />
</svg>