<svg width="24px"  height="24px"  viewBox="0 0 25 25" fill="none" xmlns="http://www.w3.org/2000/svg">
<path fill-rule="evenodd" clip-rule="evenodd" d="M4.5 3.36914C4.91421 3.36914 5.25 3.70493 5.25 4.11914V18.1191C5.25 18.8095 5.80964 19.3691 6.5 19.3691H20.5C20.9142 19.3691 21.25 19.7049 21.25 20.1191C21.25 20.5334 20.9142 20.8691 20.5 20.8691H6.5C4.98122 20.8691 3.75 19.6379 3.75 18.1191V4.11914C3.75 3.70493 4.08579 3.36914 4.5 3.36914Z" fill="#000000" />
<path fill-rule="evenodd" clip-rule="evenodd" d="M20.4496 7.83374C20.8271 8.00429 20.9949 8.44854 20.8243 8.82602L20.1409 8.51722C20.8243 8.82602 20.8244 8.82583 20.8243 8.82602L20.8234 8.82799L20.8219 8.83129L20.8171 8.84177L20.8003 8.87773C20.786 8.90814 20.7654 8.95118 20.7388 9.00505C20.6856 9.1127 20.6083 9.26416 20.5089 9.44494C20.311 9.80475 20.0213 10.2892 19.6568 10.778C19.295 11.2631 18.8413 11.7772 18.3096 12.1757C17.7791 12.5734 17.1219 12.892 16.3715 12.892C15.0499 12.892 14.0894 12.0667 13.3979 11.4726L13.3917 11.4673C13.3696 11.4483 13.3479 11.4296 13.3263 11.4111C12.9791 11.1125 12.6962 10.8692 12.4088 10.6902C12.1169 10.5084 11.8825 10.4344 11.6593 10.4408C10.9029 10.4625 10.1787 11.0278 9.5754 11.7777C9.28918 12.1335 9.06237 12.4913 8.90673 12.7618C8.82937 12.8963 8.77077 13.0071 8.73227 13.0827C8.71305 13.1205 8.69892 13.1493 8.69005 13.1676L8.68073 13.1871L8.67947 13.1898C8.5064 13.566 8.06107 13.731 7.68481 13.5581C7.30844 13.3852 7.14354 12.9399 7.3165 12.5635L7.99798 12.8767C7.3165 12.5635 7.3164 12.5637 7.3165 12.5635L7.31747 12.5614L7.31898 12.5581L7.3236 12.5482L7.33922 12.5155C7.35244 12.4881 7.37129 12.4498 7.39561 12.402C7.4442 12.3066 7.51492 12.173 7.60654 12.0138C7.78883 11.6969 8.05854 11.2702 8.40667 10.8375C9.07205 10.0104 10.1678 8.98293 11.6164 8.9414C12.2367 8.92361 12.7635 9.1439 13.202 9.41706C13.5921 9.66012 13.9605 9.9775 14.2833 10.2556C14.3123 10.2806 14.3409 10.3052 14.3692 10.3295C15.1176 10.9725 15.6786 11.392 16.3715 11.392C16.6869 11.392 17.0338 11.2575 17.4099 10.9755C17.7849 10.6944 18.1403 10.3023 18.4544 9.88119C18.7657 9.46383 19.0186 9.04207 19.1944 8.72224C19.2819 8.5632 19.3491 8.43148 19.3938 8.3409C19.4162 8.29566 19.4328 8.26082 19.4435 8.23813L19.4551 8.21347L19.4574 8.20843C19.628 7.83116 20.0723 7.66324 20.4496 7.83374Z" fill="#000000" />
</svg>