<svg width="24px"  height="24px"  viewBox="0 0 25 25" fill="none" xmlns="http://www.w3.org/2000/svg">
<path fill-rule="evenodd" clip-rule="evenodd" d="M20.8567 8.34335C21.221 8.54037 21.3567 8.99546 21.1597 9.35982L18.0662 15.0806C17.9159 15.3586 17.6074 15.5125 17.2948 15.4655L13.4137 14.8813L10.7046 17.7691C10.5009 17.9863 10.188 18.0623 9.90727 17.9629L4.54429 16.0639C4.15383 15.9256 3.94939 15.497 4.08765 15.1065C4.22592 14.7161 4.65453 14.5116 5.04499 14.6499L9.94597 16.3854L12.5891 13.5679C12.7577 13.3882 13.004 13.3027 13.2477 13.3394L16.9973 13.9038L19.8402 8.64633C20.0372 8.28198 20.4923 8.14633 20.8567 8.34335Z" fill="#000000" />
<path fill-rule="evenodd" clip-rule="evenodd" d="M21.0024 3.5623C21.31 3.83978 21.3343 4.31402 21.0568 4.62156L16.4762 9.69844C16.2448 9.95497 15.868 10.0202 15.5638 9.85639L11.5052 7.6711L9.01124 10.5007C8.86886 10.6622 8.66392 10.7548 8.44859 10.7548H4.5C4.08579 10.7548 3.75 10.419 3.75 10.0048C3.75 9.59057 4.08579 9.25479 4.5 9.25479H8.10989L10.7737 6.23248C11.0043 5.97084 11.3848 5.90269 11.6919 6.06803L15.7568 8.25666L19.9432 3.61673C20.2206 3.30919 20.6949 3.28482 21.0024 3.5623Z" fill="#000000" />
<path fill-rule="evenodd" clip-rule="evenodd" d="M3.98755 20.1191C3.98755 19.7049 4.32334 19.3691 4.73755 19.3691H20.4999C20.9141 19.3691 21.2499 19.7049 21.2499 20.1191C21.2499 20.5334 20.9141 20.8691 20.4999 20.8691H4.73755C4.32334 20.8691 3.98755 20.5334 3.98755 20.1191Z" fill="#000000" />
</svg>