<svg width="24px"  height="24px"  viewBox="0 0 25 25" fill="none" xmlns="http://www.w3.org/2000/svg">
<path fill-rule="evenodd" clip-rule="evenodd" d="M4.5 3.36865C4.91421 3.36865 5.25 3.70444 5.25 4.11865V18.1187C5.25 18.809 5.80964 19.3687 6.5 19.3687H20.5C20.9142 19.3687 21.25 19.7044 21.25 20.1187C21.25 20.5329 20.9142 20.8687 20.5 20.8687H6.5C4.98122 20.8687 3.75 19.6374 3.75 18.1187V4.11865C3.75 3.70444 4.08579 3.36865 4.5 3.36865Z" fill="#000000" />
<path fill-rule="evenodd" clip-rule="evenodd" d="M18.5195 12.3979C18.9337 12.3979 19.2695 12.7337 19.2695 13.1479V15.8973C19.2695 16.3115 18.9337 16.6473 18.5195 16.6473C18.1053 16.6473 17.7695 16.3115 17.7695 15.8973V13.1479C17.7695 12.7337 18.1053 12.3979 18.5195 12.3979Z" fill="#000000" />
<path fill-rule="evenodd" clip-rule="evenodd" d="M11.6519 11.3901C12.0661 11.3901 12.4019 11.7259 12.4019 12.1401V15.8973C12.4019 16.3115 12.0661 16.6473 11.6519 16.6473C11.2376 16.6473 10.9019 16.3115 10.9019 15.8973V12.1401C10.9019 11.7259 11.2376 11.3901 11.6519 11.3901Z" fill="#000000" />
<path fill-rule="evenodd" clip-rule="evenodd" d="M15.0859 14.1309C15.5002 14.1309 15.8359 14.4666 15.8359 14.8809V15.897C15.8359 16.3113 15.5002 16.647 15.0859 16.647C14.6717 16.647 14.3359 16.3113 14.3359 15.897V14.8809C14.3359 14.4666 14.6717 14.1309 15.0859 14.1309Z" fill="#000000" />
<path fill-rule="evenodd" clip-rule="evenodd" d="M8.11816 14.1309C8.53238 14.1309 8.86816 14.4666 8.86816 14.8809V15.897C8.86816 16.3113 8.53238 16.647 8.11816 16.647C7.70395 16.647 7.36816 16.3113 7.36816 15.897V14.8809C7.36816 14.4666 7.70395 14.1309 8.11816 14.1309Z" fill="#000000" />
<path fill-rule="evenodd" clip-rule="evenodd" d="M20.0747 5.41579C20.3879 5.68685 20.4221 6.16049 20.151 6.4737L16.4118 10.7946C16.1599 11.0857 15.7285 11.1388 15.4135 10.9175L11.61 8.24532L8.23177 12.1741C7.96171 12.4882 7.48818 12.5239 7.17411 12.2538C6.86004 11.9838 6.82436 11.5102 7.09442 11.1962L10.9161 6.75171C11.1676 6.45914 11.6002 6.40519 11.9159 6.62701L15.7211 9.30043L19.0168 5.49214C19.2878 5.17892 19.7615 5.14474 20.0747 5.41579Z" fill="#000000" />
</svg>