<svg width="24px"  height="24px"  viewBox="0 0 25 25" fill="none" xmlns="http://www.w3.org/2000/svg">
<path fill-rule="evenodd" clip-rule="evenodd" d="M4.5 3.36865C4.91421 3.36865 5.25 3.70444 5.25 4.11865V18.1187C5.25 18.809 5.80964 19.3687 6.5 19.3687H20.5C20.9142 19.3687 21.25 19.7044 21.25 20.1187C21.25 20.5329 20.9142 20.8687 20.5 20.8687H6.5C4.98122 20.8687 3.75 19.6374 3.75 18.1187V4.11865C3.75 3.70444 4.08579 3.36865 4.5 3.36865Z" fill="#000000" />
<path fill-rule="evenodd" clip-rule="evenodd" d="M20.5617 13.5592C20.8892 13.3056 20.9491 12.8345 20.6954 12.507L17.3488 8.18613C17.2264 8.0282 17.0462 7.9256 16.8479 7.90106C16.6497 7.87653 16.4498 7.93209 16.2927 8.05543L12.9861 10.651L10.0275 6.80663C9.77488 6.47837 9.30398 6.41706 8.97572 6.66969C8.64746 6.92232 8.58615 7.39322 8.83878 7.72147L12.2592 12.1659C12.3813 12.3245 12.5617 12.4278 12.7603 12.4527C12.9589 12.4776 13.1592 12.422 13.3167 12.2984L16.6251 9.70145L19.5095 13.4255C19.7632 13.753 20.2343 13.8129 20.5617 13.5592Z" fill="#000000" />
</svg>