<svg width="24px"  height="24px"  viewBox="0 0 25 25" fill="none" xmlns="http://www.w3.org/2000/svg">
<path fill-rule="evenodd" clip-rule="evenodd" d="M13.3381 6.2363C13.3381 4.65254 14.622 3.36865 16.2058 3.36865H19.3823C20.966 3.36865 22.2499 4.65254 22.2499 6.2363C22.2499 7.82006 20.966 9.10395 19.3823 9.10395H16.2058C14.622 9.10395 13.3381 7.82006 13.3381 6.2363ZM16.2058 4.86865C15.4505 4.86865 14.8381 5.48097 14.8381 6.2363C14.8381 6.99163 15.4505 7.60395 16.2058 7.60395H19.3823C20.1376 7.60395 20.7499 6.99163 20.7499 6.2363C20.7499 5.48097 20.1376 4.86865 19.3823 4.86865H16.2058Z" fill="#000000" />
<path fill-rule="evenodd" clip-rule="evenodd" d="M13.3381 18.9424C13.3381 17.3586 14.622 16.0747 16.2058 16.0747H19.3823C20.966 16.0747 22.2499 17.3586 22.2499 18.9424C22.2499 20.5261 20.966 21.81 19.3823 21.81H16.2058C14.622 21.81 13.3381 20.5261 13.3381 18.9424ZM16.2058 17.5747C15.4505 17.5747 14.8381 18.187 14.8381 18.9424C14.8381 19.6977 15.4505 20.31 16.2058 20.31H19.3823C20.1376 20.31 20.7499 19.6977 20.7499 18.9424C20.7499 18.187 20.1376 17.5747 19.3823 17.5747H16.2058Z" fill="#000000" />
<path fill-rule="evenodd" clip-rule="evenodd" d="M2.75 12.5893C2.75 11.0056 4.03389 9.72168 5.61765 9.72168H8.79412C10.3779 9.72168 11.6618 11.0056 11.6618 12.5893C11.6618 14.1731 10.3779 15.457 8.79412 15.457H5.61765C4.03389 15.457 2.75 14.1731 2.75 12.5893ZM5.61765 11.2217C4.86232 11.2217 4.25 11.834 4.25 12.5893C4.25 13.3447 4.86232 13.957 5.61765 13.957H8.79412C9.54945 13.957 10.1618 13.3447 10.1618 12.5893C10.1618 11.834 9.54945 11.2217 8.79412 11.2217H5.61765Z" fill="#000000" />
<path fill-rule="evenodd" clip-rule="evenodd" d="M11.4411 6.98633C10.101 6.98633 9.01465 8.0727 9.01465 9.4128V10.4716C9.01465 10.8858 8.67886 11.2216 8.26465 11.2216C7.85043 11.2216 7.51465 10.8858 7.51465 10.4716V9.4128C7.51465 7.24427 9.27259 5.48633 11.4411 5.48633H14.0882C14.5024 5.48633 14.8382 5.82211 14.8382 6.23633C14.8382 6.65054 14.5024 6.98633 14.0882 6.98633H11.4411Z" fill="#000000" />
<path fill-rule="evenodd" clip-rule="evenodd" d="M8.26465 13.957C8.67886 13.957 9.01465 14.2928 9.01465 14.707V15.7659C9.01465 17.106 10.101 18.1923 11.4411 18.1923H14.0882C14.5024 18.1923 14.8382 18.5281 14.8382 18.9423C14.8382 19.3565 14.5024 19.6923 14.0882 19.6923H11.4411C9.27259 19.6923 7.51465 17.9344 7.51465 15.7659V14.707C7.51465 14.2928 7.85043 13.957 8.26465 13.957Z" fill="#000000" />
</svg>