<svg width="24px"  height="24px"  viewBox="0 0 25 25" fill="none" xmlns="http://www.w3.org/2000/svg">
<path fill-rule="evenodd" clip-rule="evenodd" d="M12.4815 9.96338C11.3852 9.96338 10.4966 10.852 10.4966 11.9483C10.4966 13.0445 11.3852 13.9331 12.4815 13.9331C13.5777 13.9331 14.4663 13.0445 14.4663 11.9483C14.4663 10.852 13.5777 9.96338 12.4815 9.96338ZM8.99658 11.9483C8.99658 10.0236 10.5568 8.46338 12.4815 8.46338C14.4061 8.46338 15.9663 10.0236 15.9663 11.9483C15.9663 13.8729 14.4061 15.4331 12.4815 15.4331C10.5568 15.4331 8.99658 13.8729 8.99658 11.9483Z" fill="#000000" />
<path fill-rule="evenodd" clip-rule="evenodd" d="M12.5001 20.3687C12.1245 20.3687 11.8201 20.0642 11.8201 19.6887C11.8201 19.3131 12.1245 19.0087 12.5001 19.0087C12.8756 19.0087 13.1801 19.3131 13.1801 19.6887C13.1801 20.0642 12.8756 20.3687 12.5001 20.3687ZM10.3201 19.6887C10.3201 20.8926 11.2961 21.8687 12.5001 21.8687C13.7041 21.8687 14.6801 20.8926 14.6801 19.6887C14.6801 18.4847 13.7041 17.5086 12.5001 17.5086C11.2961 17.5086 10.3201 18.4847 10.3201 19.6887Z" fill="#000000" />
<path fill-rule="evenodd" clip-rule="evenodd" d="M12.5029 19.0088C12.0887 19.0088 11.7529 18.673 11.7529 18.2588L11.7529 15.0239C11.7529 14.6097 12.0887 14.2739 12.5029 14.2739C12.9171 14.2739 13.2529 14.6097 13.2529 15.0239L13.2529 18.2588C13.2529 18.673 12.9171 19.0088 12.5029 19.0088Z" fill="#000000" />
<path fill-rule="evenodd" clip-rule="evenodd" d="M12.5001 3.86865C12.1245 3.86865 11.8201 4.1731 11.8201 4.54865C11.8201 4.92421 12.1245 5.22865 12.5001 5.22865C12.8756 5.22865 13.1801 4.92421 13.1801 4.54865C13.1801 4.1731 12.8756 3.86865 12.5001 3.86865ZM10.3201 4.54865C10.3201 3.34467 11.2961 2.36865 12.5001 2.36865C13.7041 2.36865 14.6801 3.34467 14.6801 4.54865C14.6801 5.75264 13.7041 6.72865 12.5001 6.72865C11.2961 6.72865 10.3201 5.75264 10.3201 4.54865Z" fill="#000000" />
<path fill-rule="evenodd" clip-rule="evenodd" d="M12.5029 5.22852C12.0887 5.22852 11.7529 5.5643 11.7529 5.97852L11.7529 9.21338C11.7529 9.6276 12.0887 9.96338 12.5029 9.96338C12.9171 9.96338 13.2529 9.6276 13.2529 9.21338L13.2529 5.97852C13.2529 5.5643 12.9171 5.22852 12.5029 5.22852Z" fill="#000000" />
<path fill-rule="evenodd" clip-rule="evenodd" d="M5.35535 16.2434C5.16757 15.9182 5.27901 15.5023 5.60425 15.3145C5.92948 15.1267 6.34537 15.2382 6.53314 15.5634C6.72092 15.8886 6.60949 16.3045 6.28425 16.4923C5.95901 16.6801 5.54312 16.5686 5.35535 16.2434ZM4.85425 14.0155C3.81157 14.6175 3.45432 15.9507 4.05631 16.9934C4.6583 18.0361 5.99157 18.3933 7.03425 17.7913C8.07692 17.1894 8.43417 15.8561 7.83218 14.8134C7.23019 13.7707 5.89692 13.4135 4.85425 14.0155Z" fill="#000000" />
<path fill-rule="evenodd" clip-rule="evenodd" d="M6.53467 15.5663C6.32756 15.2076 6.45047 14.7489 6.80919 14.5418L9.61066 12.9243C9.96938 12.7172 10.4281 12.8401 10.6352 13.1989C10.8423 13.5576 10.7194 14.0163 10.3607 14.2234L7.55919 15.8408C7.20047 16.0479 6.74177 15.925 6.53467 15.5663Z" fill="#000000" />
<path fill-rule="evenodd" clip-rule="evenodd" d="M19.6445 7.99341C19.4567 7.66817 19.0408 7.55673 18.7156 7.74451C18.3903 7.93228 18.2789 8.34817 18.4667 8.67341C18.6545 8.99865 19.0703 9.11008 19.3956 8.9223C19.7208 8.73453 19.8323 8.31864 19.6445 7.99341ZM17.9656 6.44547C19.0083 5.84348 20.3415 6.20073 20.9435 7.24341C21.5455 8.28608 21.1883 9.61935 20.1456 10.2213C19.1029 10.8233 17.7696 10.4661 17.1676 9.42341C16.5657 8.38073 16.9229 7.04746 17.9656 6.44547Z" fill="#000000" />
<path fill-rule="evenodd" clip-rule="evenodd" d="M18.4683 8.67568C18.2612 8.31696 17.8025 8.19405 17.4437 8.40116L14.6423 10.0186C14.2835 10.2257 14.1606 10.6844 14.3677 11.0431C14.5749 11.4018 15.0335 11.5247 15.3923 11.3176L18.1937 9.7002C18.5525 9.49309 18.6754 9.0344 18.4683 8.67568Z" fill="#000000" />
<path fill-rule="evenodd" clip-rule="evenodd" d="M5.35535 7.99341C5.16757 8.31865 5.27901 8.73453 5.60425 8.92231C5.92948 9.11009 6.34537 8.99865 6.53314 8.67341C6.72092 8.34817 6.60949 7.93229 6.28425 7.74451C5.95901 7.55674 5.54312 7.66817 5.35535 7.99341ZM4.85425 10.2213C3.81157 9.61936 3.45432 8.28609 4.05631 7.24341C4.6583 6.20073 5.99157 5.84348 7.03425 6.44548C8.07692 7.04747 8.43417 8.38073 7.83218 9.42341C7.23019 10.4661 5.89692 10.8233 4.85425 10.2213Z" fill="#000000" />
<path fill-rule="evenodd" clip-rule="evenodd" d="M6.53467 8.671C6.32756 9.02972 6.45047 9.48842 6.80919 9.69552L9.61066 11.313C9.96938 11.5201 10.4281 11.3972 10.6352 11.0384C10.8423 10.6797 10.7194 10.221 10.3607 10.0139L7.55919 8.39648C7.20047 8.18938 6.74177 8.31228 6.53467 8.671Z" fill="#000000" />
<path fill-rule="evenodd" clip-rule="evenodd" d="M19.6445 16.2434C19.4567 16.5687 19.0408 16.6801 18.7156 16.4923C18.3903 16.3045 18.2789 15.8886 18.4667 15.5634C18.6545 15.2382 19.0703 15.1267 19.3956 15.3145C19.7208 15.5023 19.8323 15.9182 19.6445 16.2434ZM17.9656 17.7913C19.0083 18.3933 20.3415 18.0361 20.9435 16.9934C21.5455 15.9507 21.1883 14.6175 20.1456 14.0155C19.1029 13.4135 17.7696 13.7707 17.1676 14.8134C16.5657 15.8561 16.9229 17.1894 17.9656 17.7913Z" fill="#000000" />
<path fill-rule="evenodd" clip-rule="evenodd" d="M18.4683 15.5611C18.2612 15.9199 17.8025 16.0428 17.4437 15.8357L14.6423 14.2182C14.2835 14.0111 14.1606 13.5524 14.3677 13.1937C14.5749 12.835 15.0335 12.7121 15.3923 12.9192L18.1937 14.5366C18.5525 14.7437 18.6754 15.2024 18.4683 15.5611Z" fill="#000000" />
</svg>