<svg width="24px"  height="24px"  viewBox="0 0 25 25" fill="none" xmlns="http://www.w3.org/2000/svg">
<path fill-rule="evenodd" clip-rule="evenodd" d="M12.4815 9.96338C11.3852 9.96338 10.4966 10.852 10.4966 11.9483C10.4966 13.0445 11.3852 13.9331 12.4815 13.9331C13.5777 13.9331 14.4663 13.0445 14.4663 11.9483C14.4663 10.852 13.5777 9.96338 12.4815 9.96338ZM8.99658 11.9483C8.99658 10.0236 10.5568 8.46338 12.4815 8.46338C14.4061 8.46338 15.9663 10.0236 15.9663 11.9483C15.9663 13.8729 14.4061 15.4331 12.4815 15.4331C10.5568 15.4331 8.99658 13.8729 8.99658 11.9483Z" fill="#000000" />
<path fill-rule="evenodd" clip-rule="evenodd" d="M12.5001 20.3687C12.1245 20.3687 11.8201 20.0642 11.8201 19.6887C11.8201 19.3131 12.1245 19.0087 12.5001 19.0087C12.8756 19.0087 13.1801 19.3131 13.1801 19.6887C13.1801 20.0642 12.8756 20.3687 12.5001 20.3687ZM10.3201 19.6887C10.3201 20.8926 11.2961 21.8687 12.5001 21.8687C13.7041 21.8687 14.6801 20.8926 14.6801 19.6887C14.6801 18.4847 13.7041 17.5086 12.5001 17.5086C11.2961 17.5086 10.3201 18.4847 10.3201 19.6887Z" fill="#000000" />
<path fill-rule="evenodd" clip-rule="evenodd" d="M12.5029 19.0088C12.0887 19.0088 11.7529 18.673 11.7529 18.2588L11.7529 15.0239C11.7529 14.6097 12.0887 14.2739 12.5029 14.2739C12.9171 14.2739 13.2529 14.6097 13.2529 15.0239L13.2529 18.2588C13.2529 18.673 12.9171 19.0088 12.5029 19.0088Z" fill="#000000" />
<path fill-rule="evenodd" clip-rule="evenodd" d="M12.5001 3.86865C12.1245 3.86865 11.8201 4.1731 11.8201 4.54865C11.8201 4.92421 12.1245 5.22865 12.5001 5.22865C12.8756 5.22865 13.1801 4.92421 13.1801 4.54865C13.1801 4.1731 12.8756 3.86865 12.5001 3.86865ZM10.3201 4.54865C10.3201 3.34467 11.2961 2.36865 12.5001 2.36865C13.7041 2.36865 14.6801 3.34467 14.6801 4.54865C14.6801 5.75264 13.7041 6.72865 12.5001 6.72865C11.2961 6.72865 10.3201 5.75264 10.3201 4.54865Z" fill="#000000" />
<path fill-rule="evenodd" clip-rule="evenodd" d="M12.5029 5.22852C12.0887 5.22852 11.7529 5.5643 11.7529 5.97852L11.7529 9.21338C11.7529 9.6276 12.0887 9.96338 12.5029 9.96338C12.9171 9.96338 13.2529 9.6276 13.2529 9.21338L13.2529 5.97852C13.2529 5.5643 12.9171 5.22852 12.5029 5.22852Z" fill="#000000" />
<path fill-rule="evenodd" clip-rule="evenodd" d="M4.25 12.1185C4.25 11.7429 4.55445 11.4385 4.93 11.4385C5.30556 11.4385 5.61 11.7429 5.61 12.1185C5.61 12.494 5.30556 12.7985 4.93 12.7985C4.55445 12.7985 4.25 12.494 4.25 12.1185ZM4.93 9.93848C3.72602 9.93848 2.75 10.9145 2.75 12.1185C2.75 13.3225 3.72602 14.2985 4.93 14.2985C6.13398 14.2985 7.11 13.3225 7.11 12.1185C7.11 10.9145 6.13398 9.93848 4.93 9.93848Z" fill="#000000" />
<path fill-rule="evenodd" clip-rule="evenodd" d="M5.61035 12.1216C5.61035 11.7074 5.94614 11.3716 6.36035 11.3716L9.59522 11.3716C10.0094 11.3716 10.3452 11.7074 10.3452 12.1216C10.3452 12.5358 10.0094 12.8716 9.59522 12.8716L6.36035 12.8716C5.94614 12.8716 5.61035 12.5358 5.61035 12.1216Z" fill="#000000" />
<path fill-rule="evenodd" clip-rule="evenodd" d="M20.75 12.1185C20.75 11.7429 20.4456 11.4385 20.07 11.4385C19.6944 11.4385 19.39 11.7429 19.39 12.1185C19.39 12.494 19.6944 12.7985 20.07 12.7985C20.4456 12.7985 20.75 12.494 20.75 12.1185ZM20.07 9.93848C21.274 9.93848 22.25 10.9145 22.25 12.1185C22.25 13.3225 21.274 14.2985 20.07 14.2985C18.866 14.2985 17.89 13.3225 17.89 12.1185C17.89 10.9145 18.866 9.93848 20.07 9.93848Z" fill="#000000" />
<path fill-rule="evenodd" clip-rule="evenodd" d="M19.3901 12.1216C19.3901 11.7074 19.0544 11.3716 18.6401 11.3716L15.4053 11.3716C14.9911 11.3716 14.6553 11.7074 14.6553 12.1216C14.6553 12.5358 14.9911 12.8716 15.4053 12.8716L18.6401 12.8716C19.0544 12.8716 19.3901 12.5358 19.3901 12.1216Z" fill="#000000" />
<path fill-rule="evenodd" clip-rule="evenodd" d="M6.66636 17.952C6.40081 17.6865 6.40081 17.2559 6.66636 16.9904C6.93192 16.7248 7.36247 16.7248 7.62803 16.9904C7.89359 17.2559 7.89359 17.6865 7.62803 17.952C7.36247 18.2176 6.93192 18.2176 6.66636 17.952ZM5.6057 15.9297C4.75436 16.781 4.75436 18.1613 5.6057 19.0127C6.45705 19.864 7.83735 19.864 8.68869 19.0127C9.54003 18.1613 9.54003 16.781 8.68869 15.9297C7.83735 15.0784 6.45705 15.0784 5.6057 15.9297Z" fill="#000000" />
<path fill-rule="evenodd" clip-rule="evenodd" d="M7.63056 16.9921C7.33767 16.6992 7.33767 16.2244 7.63056 15.9315L9.91795 13.6441C10.2108 13.3512 10.6857 13.3512 10.9786 13.6441C11.2715 13.937 11.2715 14.4118 10.9786 14.7047L8.69122 16.9921C8.39833 17.285 7.92345 17.285 7.63056 16.9921Z" fill="#000000" />
<path fill-rule="evenodd" clip-rule="evenodd" d="M18.3336 6.28477C18.0681 6.01921 17.6375 6.01921 17.3719 6.28477C17.1064 6.55033 17.1064 6.98088 17.372 7.24644C17.6375 7.51199 18.0681 7.51199 18.3336 7.24644C18.5992 6.98088 18.5992 6.55033 18.3336 6.28477ZM16.3113 5.22411C17.1626 4.37277 18.5429 4.37277 19.3943 5.22411C20.2456 6.07545 20.2456 7.45575 19.3943 8.3071C18.5429 9.15844 17.1626 9.15844 16.3113 8.3071C15.4599 7.45575 15.4599 6.07545 16.3113 5.22411Z" fill="#000000" />
<path fill-rule="evenodd" clip-rule="evenodd" d="M17.3742 7.24897C17.0813 6.95607 16.6064 6.95607 16.3136 7.24897L14.0262 9.53636C13.7333 9.82926 13.7333 10.3041 14.0262 10.597C14.319 10.8899 14.7939 10.8899 15.0868 10.597L17.3742 8.30963C17.6671 8.01673 17.6671 7.54186 17.3742 7.24897Z" fill="#000000" />
<path fill-rule="evenodd" clip-rule="evenodd" d="M6.66638 6.28477C6.93194 6.01921 7.36249 6.01921 7.62805 6.28477C7.89361 6.55033 7.89361 6.98088 7.62805 7.24644C7.36249 7.51199 6.93194 7.51199 6.66638 7.24644C6.40083 6.98088 6.40083 6.55033 6.66638 6.28477ZM8.68871 5.22411C7.83737 4.37277 6.45707 4.37277 5.60572 5.22411C4.75438 6.07545 4.75438 7.45575 5.60572 8.3071C6.45707 9.15844 7.83737 9.15844 8.68871 8.3071C9.54005 7.45575 9.54005 6.07545 8.68871 5.22411Z" fill="#000000" />
<path fill-rule="evenodd" clip-rule="evenodd" d="M7.62603 7.24897C7.91893 6.95607 8.3938 6.95607 8.68669 7.24897L10.9741 9.53636C11.267 9.82926 11.267 10.3041 10.9741 10.597C10.6812 10.8899 10.2063 10.8899 9.91343 10.597L7.62603 8.30963C7.33314 8.01673 7.33314 7.54186 7.62603 7.24897Z" fill="#000000" />
<path fill-rule="evenodd" clip-rule="evenodd" d="M18.3334 17.952C18.5989 17.6865 18.5989 17.2559 18.3334 16.9904C18.0678 16.7248 17.6373 16.7248 17.3717 16.9904C17.1062 17.2559 17.1062 17.6865 17.3717 17.952C17.6373 18.2176 18.0678 18.2176 18.3334 17.952ZM19.3941 15.9297C20.2454 16.781 20.2454 18.1613 19.3941 19.0127C18.5427 19.864 17.1624 19.864 16.3111 19.0127C15.4597 18.1613 15.4597 16.781 16.3111 15.9297C17.1624 15.0784 18.5427 15.0784 19.3941 15.9297Z" fill="#000000" />
<path fill-rule="evenodd" clip-rule="evenodd" d="M17.3697 16.9926C17.6626 16.6997 17.6626 16.2249 17.3697 15.932L15.0823 13.6446C14.7894 13.3517 14.3145 13.3517 14.0216 13.6446C13.7287 13.9375 13.7287 14.4123 14.0216 14.7052L16.309 16.9926C16.6019 17.2855 17.0768 17.2855 17.3697 16.9926Z" fill="#000000" />
</svg>