<svg width="24px"  height="24px"  viewBox="0 0 25 25" fill="none" xmlns="http://www.w3.org/2000/svg">
<path fill-rule="evenodd" clip-rule="evenodd" d="M13.1584 14.7354C14.7917 14.7354 16.1157 13.4113 16.1157 11.778C16.1157 10.1447 14.7917 8.82066 13.1584 8.82066C11.5251 8.82066 10.201 10.1447 10.201 11.778C10.201 13.4113 11.5251 14.7354 13.1584 14.7354ZM17.6157 11.778C17.6157 14.2397 15.6201 16.2354 13.1584 16.2354C10.6967 16.2354 8.70103 14.2397 8.70103 11.778C8.70103 9.31628 10.6967 7.32066 13.1584 7.32066C15.6201 7.32066 17.6157 9.31628 17.6157 11.778Z" fill="#000000" />
<path fill-rule="evenodd" clip-rule="evenodd" d="M18.457 7.4248C19.0093 7.4248 19.457 6.97709 19.457 6.4248C19.457 5.87252 19.0093 5.4248 18.457 5.4248C17.9047 5.4248 17.457 5.87252 17.457 6.4248C17.457 6.97709 17.9047 7.4248 18.457 7.4248ZM20.957 6.4248C20.957 7.80552 19.8377 8.9248 18.457 8.9248C17.0763 8.9248 15.957 7.80552 15.957 6.4248C15.957 5.04409 17.0763 3.9248 18.457 3.9248C19.8377 3.9248 20.957 5.04409 20.957 6.4248Z" fill="#000000" />
<path fill-rule="evenodd" clip-rule="evenodd" d="M11.5502 20.0508C11.9038 20.0508 12.1904 19.7641 12.1904 19.4105C12.1904 19.0569 11.9038 18.7703 11.5502 18.7703C11.1966 18.7703 10.9099 19.0569 10.9099 19.4105C10.9099 19.7641 11.1966 20.0508 11.5502 20.0508ZM13.6904 19.4105C13.6904 20.5926 12.7322 21.5508 11.5502 21.5508C10.3681 21.5508 9.40992 20.5926 9.40992 19.4105C9.40992 18.2285 10.3681 17.2703 11.5502 17.2703C12.7322 17.2703 13.6904 18.2285 13.6904 19.4105Z" fill="#000000" />
<path fill-rule="evenodd" clip-rule="evenodd" d="M12.5213 14.7167C12.9243 14.8124 13.1734 15.2167 13.0777 15.6197L12.4687 18.1851C12.373 18.5881 11.9687 18.8372 11.5657 18.7415C11.1627 18.6458 10.9135 18.2416 11.0092 17.8386L11.6183 15.2732C11.714 14.8702 12.1182 14.6211 12.5213 14.7167Z" fill="#000000" />
<path fill-rule="evenodd" clip-rule="evenodd" d="M5.12218 15.6475C5.60375 15.6475 5.99414 15.2571 5.99414 14.7755C5.99414 14.2939 5.60375 13.9035 5.12218 13.9035C4.6406 13.9035 4.25021 14.2939 4.25021 14.7755C4.25021 15.2571 4.6406 15.6475 5.12218 15.6475ZM7.49414 14.7755C7.49414 16.0855 6.43218 17.1475 5.12218 17.1475C3.81218 17.1475 2.75021 16.0855 2.75021 14.7755C2.75021 13.4655 3.81218 12.4035 5.12218 12.4035C6.43218 12.4035 7.49414 13.4655 7.49414 14.7755Z" fill="#000000" />
<path fill-rule="evenodd" clip-rule="evenodd" d="M7.13408 7.3208C7.99956 7.3208 8.70117 6.61919 8.70117 5.75371C8.70117 4.88823 7.99956 4.18662 7.13408 4.18662C6.2686 4.18662 5.56699 4.88823 5.56699 5.75371C5.56699 6.61919 6.2686 7.3208 7.13408 7.3208ZM10.2012 5.75371C10.2012 7.44762 8.82799 8.8208 7.13408 8.8208C5.44017 8.8208 4.06699 7.44762 4.06699 5.75371C4.06699 4.0598 5.44017 2.68662 7.13408 2.68662C8.82799 2.68662 10.2012 4.0598 10.2012 5.75371Z" fill="#000000" />
<path fill-rule="evenodd" clip-rule="evenodd" d="M19.6463 16.5889C20.2559 16.5889 20.75 16.0947 20.75 15.4852C20.75 14.8757 20.2559 14.3815 19.6463 14.3815C19.0368 14.3815 18.5427 14.8757 18.5427 15.4852C18.5427 16.0947 19.0368 16.5889 19.6463 16.5889ZM22.25 15.4852C22.25 16.9232 21.0843 18.0889 19.6463 18.0889C18.2084 18.0889 17.0427 16.9232 17.0427 15.4852C17.0427 14.0472 18.2084 12.8815 19.6463 12.8815C21.0843 12.8815 22.25 14.0472 22.25 15.4852Z" fill="#000000" />
<path fill-rule="evenodd" clip-rule="evenodd" d="M11.0128 9.63189C10.7199 9.92479 10.245 9.92479 9.95209 9.63189L8.27682 7.95662C7.98393 7.66373 7.98393 7.18885 8.27682 6.89596C8.56971 6.60307 9.04459 6.60307 9.33748 6.89596L11.0128 8.57123C11.3056 8.86413 11.3056 9.339 11.0128 9.63189Z" fill="#000000" />
<path fill-rule="evenodd" clip-rule="evenodd" d="M15.3048 9.63189C15.0119 9.339 15.0119 8.86413 15.3048 8.57123L16.707 7.16902C16.9999 6.87613 17.4747 6.87613 17.7676 7.16902C18.0605 7.46192 18.0605 7.93679 17.7676 8.22968L16.3654 9.63189C16.0725 9.92479 15.5977 9.92479 15.3048 9.63189Z" fill="#000000" />
<path fill-rule="evenodd" clip-rule="evenodd" d="M15.766 13.2277C15.9784 12.8722 16.4389 12.7561 16.7945 12.9686L18.411 13.9344C18.7666 14.1469 18.8826 14.6074 18.6701 14.963C18.4577 15.3185 17.9972 15.4346 17.6416 15.2221L16.0251 14.2562C15.6695 14.0438 15.5535 13.5833 15.766 13.2277Z" fill="#000000" />
<path fill-rule="evenodd" clip-rule="evenodd" d="M10.4058 12.9013C10.5438 13.2919 10.339 13.7203 9.94842 13.8583L6.90672 14.9326C6.51615 15.0705 6.0877 14.8657 5.94976 14.4752C5.81181 14.0846 6.0166 13.6561 6.40717 13.5182L9.44888 12.4439C9.83945 12.306 10.2679 12.5107 10.4058 12.9013Z" fill="#000000" />
</svg>