<svg width="24px"  height="24px"  viewBox="0 0 25 25" fill="none" xmlns="http://www.w3.org/2000/svg">
<path fill-rule="evenodd" clip-rule="evenodd" d="M3.50439 12.2393C3.91861 12.2393 4.25439 12.575 4.25439 12.9893V20.1461C4.25439 20.2079 4.30445 20.258 4.3662 20.258H11.5231C11.9373 20.258 12.2731 20.5937 12.2731 21.008C12.2731 21.4222 11.9373 21.758 11.5231 21.758H4.3662C3.47602 21.758 2.75439 21.0363 2.75439 20.1461V12.9893C2.75439 12.575 3.09018 12.2393 3.50439 12.2393Z" fill="#000000" />
<path fill-rule="evenodd" clip-rule="evenodd" d="M11.8342 14.1072C12.1534 14.3712 12.1981 14.844 11.9341 15.1631L9.88418 17.6412C9.74082 17.8145 9.52723 17.9144 9.30231 17.9132C9.07738 17.912 8.86487 17.8099 8.72335 17.6351L7.77165 16.4594L6.32661 18.2445C6.06599 18.5664 5.59373 18.6162 5.27178 18.3555C4.94983 18.0949 4.90012 17.6227 5.16074 17.3007L7.18872 14.7955C7.33112 14.6196 7.54533 14.5174 7.77165 14.5174C7.99797 14.5174 8.21219 14.6196 8.35459 14.7955L9.31256 15.9789L10.7783 14.207C11.0423 13.8879 11.5151 13.8432 11.8342 14.1072Z" fill="#000000" />
<path fill-rule="evenodd" clip-rule="evenodd" d="M21.4956 18.3374C21.0814 18.3374 20.7456 18.6732 20.7456 19.0874V21.0081C20.7456 21.4223 21.0814 21.7581 21.4956 21.7581C21.9098 21.7581 22.2456 21.4223 22.2456 21.0081V19.0874C22.2456 18.6732 21.9098 18.3374 21.4956 18.3374Z" fill="#000000" />
<path fill-rule="evenodd" clip-rule="evenodd" d="M18.3633 14.0225C17.9491 14.0225 17.6133 14.3582 17.6133 14.7725L17.6133 21.0084C17.6133 21.4226 17.9491 21.7584 18.3633 21.7584C18.7775 21.7584 19.1133 21.4226 19.1133 21.0084L19.1133 14.7725C19.1133 14.3582 18.7775 14.0225 18.3633 14.0225Z" fill="#000000" />
<path fill-rule="evenodd" clip-rule="evenodd" d="M15.2307 16.5913C14.8165 16.5913 14.4807 16.9271 14.4807 17.3413L14.4807 21.008C14.4807 21.4223 14.8165 21.758 15.2307 21.758C15.6449 21.758 15.9807 21.4223 15.9807 21.008L15.9807 17.3413C15.9807 16.9271 15.6449 16.5913 15.2307 16.5913Z" fill="#000000" />
<path fill-rule="evenodd" clip-rule="evenodd" d="M12.5 3.97949C10.6962 3.97949 9.23413 5.44191 9.23413 7.24539C9.23413 9.04926 10.6962 10.5113 12.5 10.5113C14.3039 10.5113 15.7659 9.04926 15.7659 7.24539C15.7659 5.44191 14.3038 3.97949 12.5 3.97949ZM7.73413 7.24539C7.73413 4.61359 9.86769 2.47949 12.5 2.47949C15.1324 2.47949 17.2659 4.61359 17.2659 7.24539C17.2659 9.87769 15.1323 12.0113 12.5 12.0113C9.86774 12.0113 7.73413 9.87769 7.73413 7.24539Z" fill="#000000" />
<path fill-rule="evenodd" clip-rule="evenodd" d="M12.3613 2.48047C12.7755 2.48047 13.1113 2.81626 13.1113 3.23047V6.63226H16.5131C16.9273 6.63226 17.2631 6.96805 17.2631 7.38226C17.2631 7.79647 16.9273 8.13226 16.5131 8.13226H12.8075C12.1469 8.13226 11.6113 7.5967 11.6113 6.93605V3.23047C11.6113 2.81626 11.9471 2.48047 12.3613 2.48047Z" fill="#000000" />
</svg>