<svg width="24px"  height="24px"  viewBox="0 0 25 25" fill="none" xmlns="http://www.w3.org/2000/svg">
<path fill-rule="evenodd" clip-rule="evenodd" d="M17.2066 3.86865C15.3982 3.86865 13.9324 5.33482 13.9324 7.14293C13.9324 8.95142 15.3982 10.4172 17.2066 10.4172C19.0151 10.4172 20.4809 8.95142 20.4809 7.14293C20.4809 5.33482 19.0151 3.86865 17.2066 3.86865ZM12.4324 7.14293C12.4324 4.5065 14.5697 2.36865 17.2066 2.36865C19.8436 2.36865 21.9809 4.5065 21.9809 7.14293C21.9809 9.77985 19.8436 11.9172 17.2066 11.9172C14.5697 11.9172 12.4324 9.77985 12.4324 7.14293Z" fill="#000000" />
<path fill-rule="evenodd" clip-rule="evenodd" d="M17.0679 2.37012C17.4821 2.37012 17.8179 2.7059 17.8179 3.12012V6.53057H21.2283C21.6425 6.53057 21.9783 6.86635 21.9783 7.28057C21.9783 7.69478 21.6425 8.03057 21.2283 8.03057H17.515C16.8538 8.03057 16.3179 7.49459 16.3179 6.83342V3.12012C16.3179 2.7059 16.6537 2.37012 17.0679 2.37012Z" fill="#000000" />
<path fill-rule="evenodd" clip-rule="evenodd" d="M15.0125 15.8369C14.5982 15.8369 14.2625 16.1727 14.2625 16.5869L14.2625 21.1186C14.2625 21.5328 14.5982 21.8686 15.0125 21.8686C15.4267 21.8686 15.7625 21.5328 15.7625 21.1186L15.7625 16.5869C15.7625 16.1727 15.4267 15.8369 15.0125 15.8369Z" fill="#000000" />
<path fill-rule="evenodd" clip-rule="evenodd" d="M11.2646 12.2876C10.8504 12.2876 10.5146 12.6234 10.5146 13.0376L10.5146 21.1183C10.5146 21.5325 10.8504 21.8683 11.2646 21.8683C11.6789 21.8683 12.0146 21.5325 12.0146 21.1183L12.0146 13.0376C12.0146 12.6234 11.6789 12.2876 11.2646 12.2876Z" fill="#000000" />
<path fill-rule="evenodd" clip-rule="evenodd" d="M7.51685 16.229C7.10263 16.229 6.76685 16.5648 6.76685 16.979L6.76685 21.1188C6.76685 21.5331 7.10263 21.8688 7.51685 21.8688C7.93106 21.8688 8.26685 21.5331 8.26685 21.1188L8.26685 16.979C8.26685 16.5648 7.93106 16.229 7.51685 16.229Z" fill="#000000" />
<path fill-rule="evenodd" clip-rule="evenodd" d="M3.76904 11.3052C3.35483 11.3052 3.01904 11.641 3.01904 12.0552L3.01904 21.1185C3.01904 21.5328 3.35483 21.8685 3.76904 21.8685C4.18326 21.8685 4.51904 21.5328 4.51904 21.1185L4.51904 12.0552C4.51904 11.641 4.18326 11.3052 3.76904 11.3052Z" fill="#000000" />
</svg>