<svg width="24px"  height="24px"  viewBox="0 0 25 25" fill="none" xmlns="http://www.w3.org/2000/svg">
<path fill-rule="evenodd" clip-rule="evenodd" d="M10.8572 4.52107C7.16628 4.90928 4.25 8.14315 4.25 12.119C4.25 14.6988 5.48081 16.9725 7.35725 18.3536C8.36715 19.0969 9.56308 19.581 10.8572 19.7169V4.52107ZM11.0595 2.99911C11.7979 2.95259 12.3572 3.55449 12.3572 4.23238V20.0056C12.3572 20.6827 11.799 21.2854 11.0599 21.2388C9.3524 21.1313 7.77651 20.5247 6.4681 19.5617C4.2137 17.9024 2.75 15.1832 2.75 12.119C2.75 7.28439 6.40088 3.29266 11.0595 2.99911Z" fill="#000000" />
<path fill-rule="evenodd" clip-rule="evenodd" d="M14.0239 14.2632C14.0239 13.5726 14.5838 13.0127 15.2744 13.0127H21.0167C21.6917 13.0127 22.3016 13.5711 22.2469 14.3177C22.028 17.3037 20.0612 19.8008 17.3678 20.7947C16.7245 21.032 16.0401 21.1835 15.3288 21.2357C14.5819 21.2904 14.0239 20.6801 14.0239 20.0055V14.2632ZM15.5239 14.5127V19.7096C15.984 19.6522 16.4275 19.5427 16.8485 19.3874C18.9119 18.6261 20.4402 16.7617 20.7208 14.5127H15.5239Z" fill="#000000" />
<path fill-rule="evenodd" clip-rule="evenodd" d="M14.0239 4.23213C14.0239 3.5565 14.5833 2.94723 15.3293 3.00196C19.0255 3.27315 21.9757 6.22338 22.2469 9.91953C22.3016 10.6655 21.6923 11.2249 21.0167 11.2249H15.2744C14.5838 11.2249 14.0239 10.6651 14.0239 9.97444V4.23213ZM15.5239 4.52806V9.72492H20.7208C20.3827 7.01499 18.2339 4.86613 15.5239 4.52806Z" fill="#000000" />
</svg>