<svg width="24px"  height="24px"  viewBox="0 0 25 25" fill="none" xmlns="http://www.w3.org/2000/svg">
<path fill-rule="evenodd" clip-rule="evenodd" d="M12.5 3.86865C7.94335 3.86865 4.25 7.56287 4.25 12.1187C4.25 16.6754 7.94329 20.3687 12.5 20.3687C17.0567 20.3687 20.75 16.6754 20.75 12.1187C20.75 7.56287 17.0567 3.86865 12.5 3.86865ZM2.75 12.1187C2.75 6.73455 7.11481 2.36865 12.5 2.36865C17.8852 2.36865 22.25 6.73455 22.25 12.1187C22.25 17.5038 17.8851 21.8687 12.5 21.8687C7.11487 21.8687 2.75 17.5038 2.75 12.1187Z" fill="#000000" />
<path fill-rule="evenodd" clip-rule="evenodd" d="M12.1895 2.37256C12.6037 2.37256 12.9395 2.70835 12.9395 3.12256V11.4271C12.9395 11.5652 13.0514 11.6771 13.1895 11.6771H21.494C21.9082 11.6771 22.244 12.0129 22.244 12.4271C22.244 12.8413 21.9082 13.1771 21.494 13.1771H13.1895C12.223 13.1771 11.4395 12.3936 11.4395 11.4271V3.12256C11.4395 2.70835 11.7752 2.37256 12.1895 2.37256Z" fill="#000000" />
</svg>