<svg width="24px"  height="24px"  viewBox="0 0 25 25" fill="none" xmlns="http://www.w3.org/2000/svg">
<path fill-rule="evenodd" clip-rule="evenodd" d="M9.25542 3.59838C9.42474 3.97641 9.25555 4.42012 8.87753 4.58944C7.65408 5.13745 6.5826 5.97534 5.75583 7.03061C4.92905 8.08587 4.37188 9.32671 4.13255 10.6458C3.89321 11.9648 3.97891 13.3223 4.38224 14.6007C4.78556 15.8792 5.49436 17.0401 6.44728 17.983C7.40021 18.9259 8.56856 19.6224 9.85121 20.0122C11.1339 20.402 12.4922 20.4733 13.8086 20.2201C15.1251 19.9668 16.3599 19.3966 17.4064 18.5587C18.4529 17.7208 19.2794 16.6405 19.8144 15.4113C19.9798 15.0315 20.4217 14.8577 20.8014 15.023C21.1812 15.1883 21.3551 15.6302 21.1898 16.01C20.5575 17.4627 19.5807 18.7394 18.3439 19.7296C17.1072 20.7198 15.6478 21.3938 14.092 21.6931C12.5362 21.9924 10.9309 21.9081 9.41507 21.4474C7.89921 20.9867 6.51843 20.1636 5.39225 19.0493C4.26606 17.9349 3.42839 16.5629 2.95173 15.052C2.47508 13.5411 2.37379 11.9368 2.65665 10.378C2.9395 8.81909 3.59797 7.35264 4.57507 6.10551C5.55217 4.85838 6.81846 3.86814 8.26435 3.2205C8.64238 3.05117 9.08609 3.22036 9.25542 3.59838Z" fill="#000000" />
<path d="M17.1497 13.0232C15.8897 13.0232 14.6397 13.0232 13.7397 13.0132C12.2297 13.0032 10.9897 11.7632 10.9897 10.2532C10.9897 8.34319 10.9897 5.50319 10.9997 3.81319C11.0297 3.03319 11.6497 2.40319 12.4197 2.37319C14.7297 2.33319 17.0497 3.36319 18.9697 5.28319C20.8397 7.15319 22.0297 9.60319 21.9997 11.5332C21.9897 12.2532 21.4597 12.8632 20.7397 12.9832C20.7097 12.9832 20.6697 12.9832 20.6397 12.9832C19.7397 13.0032 18.4397 13.0132 17.1497 13.0132V13.0232ZM12.5697 3.87319C12.5697 3.87319 12.4997 3.87319 12.4597 3.87319C12.4797 5.51319 12.4897 8.34319 12.4897 10.2532C12.4897 10.9432 13.0597 11.5132 13.7497 11.5132C15.5197 11.5232 18.7197 11.5432 20.4997 11.5032C20.5197 9.98319 19.4797 7.91319 17.9197 6.34319C16.3197 4.74319 14.4197 3.87319 12.5697 3.87319Z" fill="#000000" />
</svg>