<svg width="24px"  height="24px"  viewBox="0 0 25 25" fill="none" xmlns="http://www.w3.org/2000/svg">
<path fill-rule="evenodd" clip-rule="evenodd" d="M10.2543 4.84994C11.2049 4.73572 12.0404 5.48265 12.0404 6.43619V12.486C12.0404 12.5384 12.0817 12.5786 12.132 12.5786H18.1828C19.1363 12.5786 19.8833 13.4141 19.7691 14.3647L19.769 14.3655C19.1908 19.1361 14.6799 22.6927 9.58477 21.7025C6.24699 21.0545 3.56447 18.3718 2.91556 15.0343L2.91552 15.0341C1.92634 9.93908 5.48283 5.42823 10.2535 4.85003L10.2543 4.84994ZM4.38799 14.748C3.5696 10.5321 6.50235 6.81596 10.4334 6.3392L4.38799 14.748ZM10.4334 6.3392C10.4593 6.33615 10.4845 6.34349 10.5069 6.36342C10.5295 6.3835 10.5404 6.40868 10.5404 6.43619V12.486C10.5404 13.3657 11.2522 14.0786 12.132 14.0786H18.1828C18.2103 14.0786 18.2355 14.0895 18.2556 14.1121C18.2756 14.1346 18.2829 14.1599 18.2798 14.1858L19.0244 14.2753L18.2799 14.185C17.8034 18.1165 14.087 21.0494 9.87095 20.23L9.87077 20.23C7.13359 19.6987 4.92034 17.4856 4.38803 14.7482" fill="#000000" />
<path fill-rule="evenodd" clip-rule="evenodd" d="M13.5352 3.96663C13.5352 3.00677 14.3831 2.25711 15.339 2.38235L15.3393 2.38239C18.9266 2.85376 21.766 5.69315 22.2374 9.28048L22.2374 9.28094C22.3625 10.2375 21.6141 11.0846 20.6531 11.0846H15.1268C14.248 11.0846 13.5352 10.3728 13.5352 9.49397V3.96663ZM15.0694 3.89379C15.0459 3.91441 15.0352 3.93987 15.0352 3.96663V9.49397C15.0352 9.54329 15.0753 9.5846 15.1268 9.5846H20.6531C20.7118 9.5846 20.7573 9.53073 20.7501 9.47543C20.367 6.56181 18.0578 4.25262 15.1441 3.86964C15.1185 3.86628 15.0927 3.87329 15.0694 3.89379Z" fill="#000000" />
</svg>