<svg width="24px"  height="24px"  viewBox="0 0 25 25" fill="none" xmlns="http://www.w3.org/2000/svg">
<path fill-rule="evenodd" clip-rule="evenodd" d="M16.644 10.9556C17.0583 10.9556 17.394 11.2914 17.394 11.7056V12.455C17.394 12.8692 17.0583 13.205 16.644 13.205C16.2298 13.205 15.894 12.8692 15.894 12.455V11.7056C15.894 11.2914 16.2298 10.9556 16.644 10.9556Z" fill="#000000" />
<path fill-rule="evenodd" clip-rule="evenodd" d="M2.75732 6.99531C2.75732 4.43993 4.82811 2.36914 7.38349 2.36914H17.6164C20.1718 2.36914 22.2426 4.43992 22.2426 6.99531V12.6046C22.2426 15.1588 20.1719 17.2308 17.6164 17.2308H7.38349C4.82798 17.2308 2.75732 15.1588 2.75732 12.6046V6.99531ZM7.38349 3.86914C5.65654 3.86914 4.25732 5.26835 4.25732 6.99531V12.6046C4.25732 14.3307 5.65666 15.7308 7.38349 15.7308H17.6164C19.3432 15.7308 20.7426 14.3307 20.7426 12.6046V6.99531C20.7426 5.26835 19.3434 3.86914 17.6164 3.86914H7.38349Z" fill="#000000" />
<path fill-rule="evenodd" clip-rule="evenodd" d="M12.0198 15.9048C12.2979 15.673 12.7019 15.673 12.9801 15.9048L18.5462 20.5432C18.8644 20.8084 18.9074 21.2813 18.6422 21.5995C18.377 21.9177 17.9041 21.9607 17.5859 21.6955L13.2499 18.0822V21.1194C13.2499 21.5336 12.9142 21.8694 12.4999 21.8694C12.0857 21.8694 11.7499 21.5336 11.7499 21.1194V18.0822L7.414 21.6955C7.09579 21.9607 6.62286 21.9177 6.35769 21.5995C6.09252 21.2813 6.13551 20.8084 6.45372 20.5432L12.0198 15.9048Z" fill="#000000" />
<path fill-rule="evenodd" clip-rule="evenodd" d="M8.35596 6.39453C7.94174 6.39453 7.60596 6.73032 7.60596 7.14453V12.4552C7.60596 12.8694 7.94174 13.2052 8.35596 13.2052C8.77017 13.2052 9.10596 12.8694 9.10596 12.4552V7.14453C9.10596 6.73032 8.77017 6.39453 8.35596 6.39453Z" fill="#000000" />
<path fill-rule="evenodd" clip-rule="evenodd" d="M12.5 9.16406C12.0858 9.16406 11.75 9.49985 11.75 9.91406V12.4552C11.75 12.8694 12.0858 13.2052 12.5 13.2052C12.9142 13.2052 13.25 12.8694 13.25 12.4552V9.91406C13.25 9.49985 12.9142 9.16406 12.5 9.16406Z" fill="#000000" />
</svg>