<svg width="24px"  height="24px"  viewBox="0 0 25 25" fill="none" xmlns="http://www.w3.org/2000/svg">
<path fill-rule="evenodd" clip-rule="evenodd" d="M4.37683 16.187L20.6232 16.187C20.8919 16.187 21.1401 16.3307 21.2738 16.5638L21.5962 17.1258C21.762 17.4146 21.9026 17.6596 22.0039 17.8629C22.1057 18.0673 22.2037 18.2973 22.235 18.5495C22.3442 19.4311 21.8531 20.2771 21.0341 20.6204C20.7999 20.7186 20.5516 20.748 20.3235 20.7614C20.0967 20.7747 19.814 20.7747 19.4806 20.7747H5.51942C5.18606 20.7747 4.90339 20.7747 4.67653 20.7614C4.44846 20.748 4.20018 20.7186 3.96595 20.6204C3.14702 20.2771 2.6559 19.4311 2.76511 18.5495C2.79635 18.2973 2.89437 18.0673 2.9962 17.8629C3.0975 17.6597 3.23809 17.4146 3.40385 17.1258C3.40752 17.1194 3.4112 17.1129 3.4149 17.1065L3.72631 16.5638C3.86002 16.3307 4.10816 16.187 4.37683 16.187ZM4.71594 17.853C4.53616 18.1663 4.418 18.3729 4.33875 18.5319C4.26238 18.6852 4.25377 18.7345 4.25367 18.7345C4.25363 18.7348 4.25367 18.7345 4.25367 18.7345C4.22721 18.9481 4.34619 19.1533 4.54589 19.237C4.54561 19.2369 4.54589 19.237 4.54589 19.237C4.54592 19.2369 4.59258 19.2539 4.76426 19.2639C4.94187 19.2744 5.18008 19.2747 5.5416 19.2747H19.4585C19.82 19.2747 20.0582 19.2744 20.2358 19.2639C20.4075 19.2539 20.4546 19.2368 20.4546 19.2368C20.4546 19.2368 20.4549 19.2367 20.4546 19.2368C20.6543 19.1531 20.7728 18.9475 20.7463 18.7339C20.7463 18.7339 20.7464 18.7343 20.7463 18.7339C20.7462 18.7339 20.7377 18.6852 20.6613 18.5319C20.5821 18.3729 20.4639 18.1663 20.2841 17.853L20.1889 17.687L4.81119 17.687L4.71594 17.853C4.71594 17.853 4.71594 17.853 4.71594 17.853Z" fill="#000000" />
<path fill-rule="evenodd" clip-rule="evenodd" d="M12.1089 5.09714C11.979 5.21583 11.8609 5.40099 11.6745 5.72582C11.6709 5.73215 11.6672 5.73843 11.6633 5.74465L10.2726 8.01251H14.7056L13.3342 5.74009L13.3258 5.72581C13.1453 5.41127 13.0319 5.23144 12.9059 5.11246C12.8151 5.02678 12.7143 4.96866 12.5132 4.96327C12.3008 4.95757 12.1993 5.01452 12.1089 5.09714ZM11.0971 3.98974C11.4673 3.65155 11.9435 3.44744 12.5535 3.46381C13.1372 3.47947 13.5867 3.69237 13.9355 4.02168C14.2451 4.3139 14.4592 4.68713 14.6206 4.96838L14.6227 4.97214L16.6764 8.37498C16.8162 8.60661 16.8204 8.89558 16.6874 9.13119C16.5544 9.3668 16.3048 9.51251 16.0343 9.51251H8.93286C8.66136 9.51251 8.41105 9.36578 8.27843 9.12887C8.14581 8.89196 8.15157 8.60188 8.29351 8.37043L10.3789 4.96982C10.5459 4.67872 10.77 4.28859 11.0971 3.98974Z" fill="#000000" />
<path fill-rule="evenodd" clip-rule="evenodd" d="M6.9314 10.721C7.06592 10.491 7.31236 10.3496 7.57881 10.3496L17.4216 10.3496C17.6876 10.3496 17.9337 10.4905 18.0684 10.7199L20.0275 14.0573C20.1637 14.2892 20.1652 14.5763 20.0316 14.8097C19.898 15.043 19.6496 15.187 19.3807 15.187L5.62695 15.187C5.35825 15.187 5.11008 15.0433 4.97639 14.8102C4.84269 14.5771 4.84389 14.2903 4.97954 14.0584L6.9314 10.721ZM8.00903 11.8496L6.93444 13.687L18.0708 13.687L16.9922 11.8496L8.00903 11.8496Z" fill="#000000" />
</svg>