<svg width="24px"  height="24px"  viewBox="0 0 25 25" fill="none" xmlns="http://www.w3.org/2000/svg">
<path fill-rule="evenodd" clip-rule="evenodd" d="M4.948 17.3149C4.948 16.9007 5.28378 16.5649 5.698 16.5649L19.2924 16.5649C19.7066 16.5649 20.0424 16.9007 20.0424 17.3149C20.0424 17.7292 19.7066 18.0649 19.2924 18.0649L5.698 18.0649C5.28378 18.0649 4.948 17.7292 4.948 17.3149Z" fill="#000000" />
<path fill-rule="evenodd" clip-rule="evenodd" d="M4.64648 13.1006L20.3706 13.1006C20.7848 13.1006 21.1206 13.4364 21.1206 13.8506C21.1206 14.2648 20.7848 14.6006 20.3706 14.6006L4.64648 14.6006C4.23227 14.6006 3.89648 14.2648 3.89648 13.8506C3.89648 13.4364 4.23227 13.1006 4.64648 13.1006Z" fill="#000000" />
<path fill-rule="evenodd" clip-rule="evenodd" d="M3.67358 9.63672L21.3435 9.63672C21.7577 9.63672 22.0935 9.97251 22.0935 10.3867C22.0935 10.8009 21.7577 11.1367 21.3435 11.1367L3.67358 11.1367C3.25937 11.1367 2.92358 10.8009 2.92358 10.3867C2.92358 9.97251 3.25937 9.63672 3.67358 9.63672Z" fill="#000000" />
<path fill-rule="evenodd" clip-rule="evenodd" d="M7.30225 6.17236L17.7673 6.17236C18.1815 6.17236 18.5173 6.50815 18.5173 6.92236C18.5173 7.33658 18.1815 7.67236 17.7673 7.67236L7.30225 7.67236C6.88803 7.67236 6.55225 7.33658 6.55225 6.92236C6.55225 6.50815 6.88803 6.17236 7.30225 6.17236Z" fill="#000000" />
<path fill-rule="evenodd" clip-rule="evenodd" d="M10.849 3.24496C11.8335 2.52968 13.1666 2.52968 14.1511 3.24496L21.092 8.28782C22.0765 9.00311 22.4885 10.271 22.1124 11.4283L19.4612 19.5879C19.0852 20.7452 18.0067 21.5288 16.7898 21.5288H8.21033C6.99342 21.5288 5.91491 20.7452 5.53886 19.5879L2.88767 11.4283C2.51162 10.271 2.92358 9.00311 3.90808 8.28782L10.849 3.24496ZM13.2694 4.45848C12.8107 4.12517 12.1894 4.12517 11.7307 4.45848L4.78976 9.50135C4.33099 9.83467 4.13902 10.4255 4.31426 10.9648L6.96545 19.1243C7.14068 19.6636 7.64326 20.0288 8.21033 20.0288H16.7898C17.3568 20.0288 17.8594 19.6636 18.0347 19.1243L20.6858 10.9648C20.8611 10.4255 20.6691 9.83467 20.2103 9.50135L13.2694 4.45848Z" fill="#000000" />
</svg>