<svg width="24px"  height="24px"  viewBox="0 0 25 25" fill="none" xmlns="http://www.w3.org/2000/svg">
<path fill-rule="evenodd" clip-rule="evenodd" d="M12.5 3.86865C7.94365 3.86865 4.25 7.5623 4.25 12.1187C4.25 16.675 7.94365 20.3687 12.5 20.3687C17.0564 20.3687 20.75 16.675 20.75 12.1187C20.75 7.5623 17.0563 3.86865 12.5 3.86865ZM2.75 12.1187C2.75 6.73388 7.11522 2.36865 12.5 2.36865C17.8848 2.36865 22.25 6.73388 22.25 12.1187C22.25 17.5034 17.8848 21.8687 12.5 21.8687C7.11522 21.8687 2.75 17.5034 2.75 12.1187Z" fill="#000000" />
<path fill-rule="evenodd" clip-rule="evenodd" d="M11.75 3.11865H13.25V21.1187H11.75V3.11865Z" fill="#000000" />
<path fill-rule="evenodd" clip-rule="evenodd" d="M3.5 11.3687H21.5V12.8687H3.5V11.3687Z" fill="#000000" />
<path fill-rule="evenodd" clip-rule="evenodd" d="M12.5 8.71484C10.6201 8.71484 9.09619 10.2388 9.09619 12.1187C9.09619 13.9986 10.6201 15.5225 12.5 15.5225C14.3799 15.5225 15.9039 13.9986 15.9039 12.1187C15.9039 10.2388 14.3799 8.71484 12.5 8.71484ZM7.59619 12.1187C7.59619 9.41037 9.79172 7.21484 12.5 7.21484C15.2084 7.21484 17.4039 9.41037 17.4039 12.1187C17.4039 14.827 15.2084 17.0225 12.5 17.0225C9.79172 17.0225 7.59619 14.827 7.59619 12.1187Z" fill="#000000" />
</svg>