<svg width="24px"  height="24px"  viewBox="0 0 25 25" fill="none" xmlns="http://www.w3.org/2000/svg">
<path fill-rule="evenodd" clip-rule="evenodd" d="M10.849 3.24496C11.8335 2.52968 13.1666 2.52968 14.1511 3.24496L21.092 8.28782C22.0765 9.00311 22.4885 10.271 22.1124 11.4283L19.4612 19.5879C19.0852 20.7452 18.0067 21.5288 16.7898 21.5288H8.21033C6.99342 21.5288 5.91491 20.7452 5.53886 19.5879L2.88767 11.4283C2.51162 10.271 2.92358 9.00311 3.90808 8.28782L10.849 3.24496ZM13.2694 4.45848C12.8107 4.12517 12.1894 4.12517 11.7307 4.45848L4.78976 9.50135C4.33099 9.83467 4.13902 10.4255 4.31426 10.9648L6.96545 19.1243C7.14068 19.6636 7.64326 20.0288 8.21033 20.0288H16.7898C17.3568 20.0288 17.8594 19.6636 18.0347 19.1243L20.6858 10.9648C20.8611 10.4255 20.6691 9.83467 20.2103 9.50135L13.2694 4.45848Z" fill="#000000" />
<path fill-rule="evenodd" clip-rule="evenodd" d="M10.9244 7.67079C11.5111 6.95828 12.5504 6.824 13.299 7.36397L16.4764 9.65583C17.015 10.0443 17.2873 10.7043 17.1793 11.3595L16.4017 16.0807C16.2603 16.9395 15.5092 17.5638 14.6389 17.5459L9.53222 17.4406C8.50784 17.4195 7.72065 16.5267 7.82791 15.5078L8.26488 11.3565C8.3008 11.0152 8.43625 10.6921 8.65439 10.4272L10.9244 7.67079L11.5033 8.14757L10.9244 7.67079ZM12.4215 8.58052C12.3146 8.50338 12.1661 8.52256 12.0823 8.62435L9.81228 11.3807C9.78112 11.4186 9.76177 11.4648 9.75664 11.5135L9.31967 15.6648C9.30434 15.8104 9.4168 15.9379 9.56314 15.9409L14.6699 16.0462C14.7942 16.0488 14.9015 15.9596 14.9217 15.8369L15.6993 11.1158C15.7147 11.0222 15.6758 10.9279 15.5989 10.8724L12.4215 8.58052Z" fill="#000000" />
<path fill-rule="evenodd" clip-rule="evenodd" d="M22.1423 9.84082C22.2111 10.2493 21.9358 10.6362 21.5273 10.705L16.5278 11.5476C16.1194 11.6164 15.7325 11.3411 15.6636 10.9326C15.5948 10.5242 15.8701 10.1372 16.2786 10.0684L21.2781 9.22588C21.6865 9.15705 22.0734 9.43236 22.1423 9.84082Z" fill="#000000" />
<path fill-rule="evenodd" clip-rule="evenodd" d="M2.93762 9.84454C3.02356 9.43934 3.42171 9.18053 3.82691 9.26647L9.17359 10.4005C9.57879 10.4865 9.8376 10.8846 9.75165 11.2898C9.66571 11.695 9.26756 11.9538 8.86236 11.8679L3.51568 10.7338C3.11048 10.6479 2.85167 10.2497 2.93762 9.84454Z" fill="#000000" />
<path fill-rule="evenodd" clip-rule="evenodd" d="M12.4935 2.80286C12.9071 2.82516 13.2244 3.17853 13.2021 3.59214L12.975 7.80455C12.9527 8.21816 12.5993 8.53539 12.1857 8.51309C11.7721 8.4908 11.4549 8.13743 11.4772 7.72381L11.7042 3.51141C11.7265 3.0978 12.0799 2.78057 12.4935 2.80286Z" fill="#000000" />
<path fill-rule="evenodd" clip-rule="evenodd" d="M15.0134 15.9897C15.3562 15.7572 15.8226 15.8466 16.0551 16.1894L18.5827 19.9157C18.8152 20.2585 18.7258 20.7249 18.383 20.9574C18.0402 21.1899 17.5738 21.1006 17.3413 20.7578L14.8137 17.0314C14.5812 16.6886 14.6706 16.2223 15.0134 15.9897Z" fill="#000000" />
<path fill-rule="evenodd" clip-rule="evenodd" d="M9.11843 15.8564C9.49932 16.0192 9.67612 16.46 9.51333 16.8408L7.89297 20.6321C7.73018 21.013 7.28945 21.1898 6.90856 21.027C6.52768 20.8642 6.35088 20.4235 6.51367 20.0426L8.13403 16.2513C8.29681 15.8705 8.73755 15.6937 9.11843 15.8564Z" fill="#000000" />
</svg>