<svg width="24px"  height="24px"  viewBox="0 0 25 25" fill="none" xmlns="http://www.w3.org/2000/svg">
<path fill-rule="evenodd" clip-rule="evenodd" d="M10.849 3.24496C11.8335 2.52968 13.1666 2.52968 14.1511 3.24496L21.092 8.28782C22.0765 9.00311 22.4885 10.271 22.1124 11.4283L19.4612 19.5879C19.0852 20.7452 18.0067 21.5288 16.7898 21.5288H8.21033C6.99342 21.5288 5.91491 20.7452 5.53886 19.5879L2.88767 11.4283C2.51162 10.271 2.92358 9.00311 3.90808 8.28782L10.849 3.24496ZM13.2694 4.45848C12.8107 4.12517 12.1894 4.12517 11.7307 4.45848L4.78976 9.50135C4.33099 9.83467 4.13902 10.4255 4.31426 10.9648L6.96545 19.1243C7.14068 19.6636 7.64326 20.0288 8.21033 20.0288H16.7898C17.3568 20.0288 17.8594 19.6636 18.0347 19.1243L20.6858 10.9648C20.8611 10.4255 20.6691 9.83467 20.2103 9.50135L13.2694 4.45848Z" fill="#000000" />
<path fill-rule="evenodd" clip-rule="evenodd" d="M11.8418 7.38632C12.384 7.0883 13.0433 7.09872 13.5758 7.41372L13.1939 8.05924L13.5758 7.41372L17.4645 9.71411C18.352 10.2391 18.5955 11.4137 17.9898 12.2482L15.4974 15.6822C15.2308 16.0495 14.8321 16.2988 14.3852 16.3777L10.4399 17.0739C9.65911 17.2117 8.88325 16.8073 8.54894 16.0884L6.68619 12.0828C6.29791 11.2478 6.6231 10.2548 7.43006 9.81125L11.8418 7.38632L12.1931 8.02538L11.8418 7.38632ZM12.8121 8.70475C12.736 8.65975 12.6418 8.65826 12.5643 8.70084L8.15259 11.1258C8.03731 11.1891 7.99085 11.331 8.04632 11.4503L9.90907 15.4559C9.95683 15.5586 10.0677 15.6164 10.1792 15.5967L14.1246 14.9005C14.1884 14.8892 14.2454 14.8536 14.2834 14.8011L16.7758 11.3672C16.8624 11.2479 16.8276 11.0801 16.7008 11.0051L12.8121 8.70475Z" fill="#000000" />
</svg>