<svg width="24px"  height="24px"  viewBox="0 0 25 25" fill="none" xmlns="http://www.w3.org/2000/svg">
<path fill-rule="evenodd" clip-rule="evenodd" d="M6.20978 12.9292C6.53996 12.9292 6.80762 12.6615 6.80762 12.3314C6.80762 12.0012 6.53996 11.7335 6.20978 11.7335C5.87961 11.7335 5.61195 12.0012 5.61195 12.3314C5.61195 12.6615 5.87961 12.9292 6.20978 12.9292ZM8.30762 12.3314C8.30762 13.49 7.36838 14.4292 6.20978 14.4292C5.05118 14.4292 4.11195 13.49 4.11195 12.3314C4.11195 11.1728 5.05118 10.2335 6.20978 10.2335C7.36838 10.2335 8.30762 11.1728 8.30762 12.3314Z" fill="#000000" />
<path fill-rule="evenodd" clip-rule="evenodd" d="M12.4998 12.9292C12.83 12.9292 13.0977 12.6615 13.0977 12.3314C13.0977 12.0012 12.83 11.7335 12.4998 11.7335C12.1696 11.7335 11.902 12.0012 11.902 12.3314C11.902 12.6615 12.1696 12.9292 12.4998 12.9292ZM14.5977 12.3314C14.5977 13.49 13.6584 14.4292 12.4998 14.4292C11.3412 14.4292 10.402 13.49 10.402 12.3314C10.402 11.1728 11.3412 10.2335 12.4998 10.2335C13.6584 10.2335 14.5977 11.1728 14.5977 12.3314Z" fill="#000000" />
<path fill-rule="evenodd" clip-rule="evenodd" d="M18.7899 12.9292C19.12 12.9292 19.3877 12.6615 19.3877 12.3314C19.3877 12.0012 19.12 11.7335 18.7899 11.7335C18.4597 11.7335 18.192 12.0012 18.192 12.3314C18.192 12.6615 18.4597 12.9292 18.7899 12.9292ZM20.8877 12.3314C20.8877 13.49 19.9485 14.4292 18.7899 14.4292C17.6313 14.4292 16.692 13.49 16.692 12.3314C16.692 11.1728 17.6313 10.2335 18.7899 10.2335C19.9485 10.2335 20.8877 11.1728 20.8877 12.3314Z" fill="#000000" />
<path fill-rule="evenodd" clip-rule="evenodd" d="M13.0977 12.3315C13.0977 11.9173 13.4334 11.5815 13.8477 11.5815L17.4419 11.5815C17.8561 11.5815 18.1919 11.9173 18.1919 12.3315C18.1919 12.7458 17.8561 13.0815 17.4419 13.0815L13.8477 13.0815C13.4334 13.0815 13.0977 12.7458 13.0977 12.3315Z" fill="#000000" />
<path fill-rule="evenodd" clip-rule="evenodd" d="M6.80762 12.3315C6.80762 11.9173 7.1434 11.5815 7.55762 11.5815L11.1518 11.5815C11.5661 11.5815 11.9018 11.9173 11.9018 12.3315C11.9018 12.7458 11.5661 13.0815 11.1518 13.0815L7.55762 13.0815C7.1434 13.0815 6.80762 12.7458 6.80762 12.3315Z" fill="#000000" />
<path fill-rule="evenodd" clip-rule="evenodd" d="M2.74976 12.3315C2.74976 11.9173 3.08554 11.5815 3.49976 11.5815L4.86205 11.5815C5.27627 11.5815 5.61205 11.9173 5.61205 12.3315C5.61205 12.7458 5.27627 13.0815 4.86205 13.0815L3.49976 13.0815C3.08554 13.0815 2.74976 12.7458 2.74976 12.3315Z" fill="#000000" />
<path fill-rule="evenodd" clip-rule="evenodd" d="M19.3877 12.3315C19.3877 11.9173 19.7235 11.5815 20.1377 11.5815L21.5 11.5815C21.9142 11.5815 22.25 11.9173 22.25 12.3315C22.25 12.7458 21.9142 13.0815 21.5 13.0815L20.1377 13.0815C19.7235 13.0815 19.3877 12.7458 19.3877 12.3315Z" fill="#000000" />
<path fill-rule="evenodd" clip-rule="evenodd" d="M13.4229 17.8441C13.4229 16.9653 14.1352 16.2529 15.014 16.2529H16.2757C17.1545 16.2529 17.8669 16.9653 17.8669 17.8441V18.8535C17.8669 19.7322 17.1545 20.4446 16.2757 20.4446H15.014C14.1352 20.4446 13.4229 19.7322 13.4229 18.8535V17.8441ZM15.014 17.7529C14.9637 17.7529 14.9229 17.7937 14.9229 17.8441V18.8535C14.9229 18.9038 14.9637 18.9446 15.014 18.9446H16.2757C16.3261 18.9446 16.3669 18.9038 16.3669 18.8535V17.8441C16.3669 17.7937 16.3261 17.7529 16.2757 17.7529H15.014Z" fill="#000000" />
<path fill-rule="evenodd" clip-rule="evenodd" d="M15.6465 15.0493C16.0607 15.0493 16.3965 15.3851 16.3965 15.7993V17.0127C16.3965 17.4269 16.0607 17.7627 15.6465 17.7627C15.2323 17.7627 14.8965 17.4269 14.8965 17.0127V15.7993C14.8965 15.3851 15.2323 15.0493 15.6465 15.0493Z" fill="#000000" />
<path fill-rule="evenodd" clip-rule="evenodd" d="M7.13281 6.7858C7.13281 7.66457 7.8452 8.37695 8.72397 8.37695H9.9857C10.8645 8.37695 11.5769 7.66457 11.5769 6.7858V5.77641C11.5769 4.89764 10.8645 4.18525 9.9857 4.18525H8.72397C7.8452 4.18525 7.13281 4.89764 7.13281 5.77641V6.7858ZM8.72397 6.87695C8.67363 6.87695 8.63281 6.83614 8.63281 6.7858V5.77641C8.63281 5.72607 8.67362 5.68525 8.72397 5.68525H9.9857C10.036 5.68525 10.0769 5.72607 10.0769 5.77641V6.7858C10.0769 6.83614 10.036 6.87695 9.9857 6.87695H8.72397Z" fill="#000000" />
<path fill-rule="evenodd" clip-rule="evenodd" d="M9.35645 9.58057C9.77066 9.58057 10.1064 9.24478 10.1064 8.83057V7.61719C10.1064 7.20297 9.77066 6.86719 9.35645 6.86719C8.94223 6.86719 8.60645 7.20297 8.60645 7.61719V8.83057C8.60645 9.24478 8.94223 9.58057 9.35645 9.58057Z" fill="#000000" />
<path fill-rule="evenodd" clip-rule="evenodd" d="M13.0977 5.18945C13.0977 4.77524 13.4334 4.43945 13.8477 4.43945L15.9692 4.43945C16.3835 4.43945 16.7192 4.77524 16.7192 5.18945C16.7192 5.60367 16.3835 5.93945 15.9692 5.93945L13.8477 5.93945C13.4334 5.93945 13.0977 5.60367 13.0977 5.18945ZM13.0977 7.37304C13.0977 6.95882 13.4334 6.62304 13.8477 6.62304H17.6665C18.0807 6.62304 18.4165 6.95882 18.4165 7.37304C18.4165 7.78725 18.0807 8.12304 17.6665 8.12304L13.8477 8.12304C13.4334 8.12304 13.0977 7.78725 13.0977 7.37304Z" fill="#000000" />
<path fill-rule="evenodd" clip-rule="evenodd" d="M11.5769 17.2568C11.5769 16.8426 11.2411 16.5068 10.8269 16.5068L8.70531 16.5068C8.2911 16.5068 7.95531 16.8426 7.95531 17.2568C7.95531 17.671 8.2911 18.0068 8.70531 18.0068L10.8269 18.0068C11.2411 18.0068 11.5769 17.671 11.5769 17.2568ZM11.5769 19.4404C11.5769 19.0262 11.2411 18.6904 10.8269 18.6904H7.00804C6.59382 18.6904 6.25804 19.0262 6.25804 19.4404C6.25804 19.8546 6.59382 20.1904 7.00804 20.1904L10.8269 20.1904C11.2411 20.1904 11.5769 19.8546 11.5769 19.4404Z" fill="#000000" />
</svg>