<svg width="24px"  height="24px"  viewBox="0 0 25 25" fill="none" xmlns="http://www.w3.org/2000/svg">
<path fill-rule="evenodd" clip-rule="evenodd" d="M11.6899 5.82941C11.6899 6.15959 11.9576 6.42725 12.2878 6.42725C12.618 6.42725 12.8856 6.15959 12.8856 5.82941C12.8856 5.49924 12.618 5.23157 12.2878 5.23157C11.9576 5.23157 11.6899 5.49923 11.6899 5.82941ZM12.2878 7.92725C11.1292 7.92725 10.1899 6.98801 10.1899 5.82941C10.1899 4.67081 11.1292 3.73157 12.2878 3.73157C13.4464 3.73157 14.3856 4.67081 14.3856 5.82941C14.3856 6.98801 13.4464 7.92725 12.2878 7.92725Z" fill="#000000" />
<path fill-rule="evenodd" clip-rule="evenodd" d="M11.6899 12.119C11.6899 12.4491 11.9576 12.7168 12.2878 12.7168C12.618 12.7168 12.8856 12.4491 12.8856 12.119C12.8856 11.7888 12.618 11.5211 12.2878 11.5211C11.9576 11.5211 11.6899 11.7888 11.6899 12.119ZM12.2878 14.2168C11.1292 14.2168 10.1899 13.2776 10.1899 12.119C10.1899 10.9604 11.1292 10.0211 12.2878 10.0211C13.4464 10.0211 14.3856 10.9604 14.3856 12.119C14.3856 13.2776 13.4464 14.2168 12.2878 14.2168Z" fill="#000000" />
<path fill-rule="evenodd" clip-rule="evenodd" d="M11.6899 18.409C11.6899 18.7392 11.9576 19.0068 12.2878 19.0068C12.618 19.0068 12.8856 18.7392 12.8856 18.409C12.8856 18.0788 12.618 17.8112 12.2878 17.8112C11.9576 17.8112 11.6899 18.0788 11.6899 18.409ZM12.2878 20.5068C11.1292 20.5068 10.1899 19.5676 10.1899 18.409C10.1899 17.2504 11.1292 16.3112 12.2878 16.3112C13.4464 16.3112 14.3856 17.2504 14.3856 18.409C14.3856 19.5676 13.4464 20.5068 12.2878 20.5068Z" fill="#000000" />
<path fill-rule="evenodd" clip-rule="evenodd" d="M12.2876 12.7168C12.7018 12.7168 13.0376 13.0526 13.0376 13.4668L13.0376 17.061C13.0376 17.4752 12.7018 17.811 12.2876 17.811C11.8734 17.811 11.5376 17.4752 11.5376 17.061L11.5376 13.4668C11.5376 13.0526 11.8734 12.7168 12.2876 12.7168Z" fill="#000000" />
<path fill-rule="evenodd" clip-rule="evenodd" d="M12.2876 6.42725C12.7018 6.42725 13.0376 6.76303 13.0376 7.17725L13.0376 10.7715C13.0376 11.1857 12.7018 11.5215 12.2876 11.5215C11.8734 11.5215 11.5376 11.1857 11.5376 10.7715L11.5376 7.17725C11.5376 6.76303 11.8734 6.42725 12.2876 6.42725Z" fill="#000000" />
<path fill-rule="evenodd" clip-rule="evenodd" d="M12.2876 2.36914C12.7018 2.36914 13.0376 2.70493 13.0376 3.11914L13.0376 4.48144C13.0376 4.89565 12.7018 5.23144 12.2876 5.23144C11.8734 5.23144 11.5376 4.89565 11.5376 4.48144L11.5376 3.11914C11.5376 2.70493 11.8734 2.36914 12.2876 2.36914Z" fill="#000000" />
<path fill-rule="evenodd" clip-rule="evenodd" d="M12.2876 19.0068C12.7018 19.0068 13.0376 19.3426 13.0376 19.7568L13.0376 21.1191C13.0376 21.5333 12.7018 21.8691 12.2876 21.8691C11.8734 21.8691 11.5376 21.5333 11.5376 21.1191L11.5376 19.7568C11.5376 19.3426 11.8734 19.0068 12.2876 19.0068Z" fill="#000000" />
<path fill-rule="evenodd" clip-rule="evenodd" d="M15.7004 5.57417C15.7004 4.55646 16.5255 3.73145 17.5432 3.73145L19.1766 3.73145C20.1943 3.73145 21.0193 4.55646 21.0193 5.57417C21.0193 6.59188 20.1943 7.41689 19.1766 7.41689H17.5432C16.5255 7.41689 15.7004 6.59188 15.7004 5.57417ZM17.5432 5.23145C17.3539 5.23145 17.2004 5.38489 17.2004 5.57417C17.2004 5.76345 17.3539 5.91689 17.5432 5.91689H19.1766C19.3659 5.91689 19.5193 5.76345 19.5193 5.57417C19.5193 5.38489 19.3659 5.23145 19.1766 5.23145L17.5432 5.23145Z" fill="#000000" />
<path fill-rule="evenodd" clip-rule="evenodd" d="M15.7004 18.1538C15.7004 17.1361 16.5255 16.311 17.5432 16.311L19.1766 16.311C20.1943 16.311 21.0193 17.1361 21.0193 18.1538C21.0193 19.1715 20.1943 19.9965 19.1766 19.9965H17.5432C16.5255 19.9965 15.7004 19.1715 15.7004 18.1538ZM17.5432 17.811C17.3539 17.811 17.2004 17.9645 17.2004 18.1538C17.2004 18.343 17.3539 18.4965 17.5432 18.4965H19.1766C19.3659 18.4965 19.5193 18.343 19.5193 18.1538C19.5193 17.9645 19.3659 17.811 19.1766 17.811L17.5432 17.811Z" fill="#000000" />
<path fill-rule="evenodd" clip-rule="evenodd" d="M3.98047 11.8637C3.98047 10.846 4.80548 10.021 5.82319 10.021L7.45661 10.021C8.47432 10.021 9.29934 10.846 9.29934 11.8637C9.29934 12.8814 8.47432 13.7064 7.45661 13.7064H5.82319C4.80548 13.7064 3.98047 12.8814 3.98047 11.8637ZM5.82319 11.521C5.63391 11.521 5.48047 11.6744 5.48047 11.8637C5.48047 12.053 5.63391 12.2064 5.82319 12.2064H7.45661C7.64589 12.2064 7.79934 12.053 7.79934 11.8637C7.79934 11.6744 7.64589 11.521 7.45661 11.521L5.82319 11.521Z" fill="#000000" />
<path fill-rule="evenodd" clip-rule="evenodd" d="M9.29956 17.3174C9.29956 16.9032 8.96377 16.5674 8.54956 16.5674L6.42797 16.5674C6.01375 16.5674 5.67797 16.9032 5.67797 17.3174C5.67797 17.7316 6.01375 18.0674 6.42797 18.0674L8.54956 18.0674C8.96377 18.0674 9.29956 17.7316 9.29956 17.3174ZM9.29956 19.501C9.29956 19.0868 8.96377 18.751 8.54956 18.751H4.73069C4.31648 18.751 3.98069 19.0868 3.98069 19.501C3.98069 19.9152 4.31648 20.251 4.73069 20.251L8.54956 20.251C8.96377 20.251 9.29956 19.9152 9.29956 19.501Z" fill="#000000" />
<path fill-rule="evenodd" clip-rule="evenodd" d="M9.29956 4.73779C9.29956 4.32358 8.96377 3.98779 8.54956 3.98779L6.42797 3.98779C6.01375 3.98779 5.67797 4.32358 5.67797 4.73779C5.67797 5.15201 6.01375 5.48779 6.42797 5.48779L8.54956 5.48779C8.96377 5.48779 9.29956 5.15201 9.29956 4.73779ZM9.29956 6.92138C9.29956 6.50716 8.96377 6.17138 8.54956 6.17138H4.73069C4.31648 6.17138 3.98069 6.50716 3.98069 6.92138C3.98069 7.33559 4.31648 7.67138 4.73069 7.67138L8.54956 7.67138C8.96377 7.67138 9.29956 7.33559 9.29956 6.92138Z" fill="#000000" />
<path fill-rule="evenodd" clip-rule="evenodd" d="M15.2766 11.0273C15.2766 10.6131 15.6124 10.2773 16.0266 10.2773L18.1482 10.2773C18.5624 10.2773 18.8982 10.6131 18.8982 11.0273C18.8982 11.4416 18.5624 11.7773 18.1482 11.7773L16.0266 11.7773C15.6124 11.7773 15.2766 11.4416 15.2766 11.0273ZM15.2766 13.2109C15.2766 12.7967 15.6124 12.4609 16.0266 12.4609H19.8455C20.2597 12.4609 20.5955 12.7967 20.5955 13.2109C20.5955 13.6251 20.2597 13.9609 19.8455 13.9609L16.0266 13.9609C15.6124 13.9609 15.2766 13.6251 15.2766 13.2109Z" fill="#000000" />
</svg>