<svg width="24px"  height="24px"  viewBox="0 0 25 25" fill="none" xmlns="http://www.w3.org/2000/svg">
<path fill-rule="evenodd" clip-rule="evenodd" d="M12.5 21.8691C12.0858 21.8691 11.75 21.5334 11.75 21.1191L11.75 3.11914C11.75 2.70493 12.0858 2.36914 12.5 2.36914C12.9142 2.36914 13.25 2.70493 13.25 3.11914L13.25 21.1191C13.25 21.5334 12.9142 21.8691 12.5 21.8691Z" fill="#000000" />
<path fill-rule="evenodd" clip-rule="evenodd" d="M4.64526 12.1567C4.64526 12.8471 5.20491 13.4067 5.89526 13.4067C6.58562 13.4067 7.14526 12.8471 7.14526 12.1567C7.14526 11.4664 6.58562 10.9067 5.89526 10.9067C5.20491 10.9067 4.64526 11.4664 4.64526 12.1567ZM5.89526 14.9067C4.37648 14.9067 3.14526 13.6755 3.14526 12.1567C3.14526 10.638 4.37648 9.40674 5.89526 9.40674C7.41405 9.40674 8.64526 10.638 8.64526 12.1567C8.64526 13.6755 7.41405 14.9067 5.89526 14.9067Z" fill="#000000" />
<path fill-rule="evenodd" clip-rule="evenodd" d="M10.2776 12.1567C10.2776 11.7425 10.6134 11.4067 11.0276 11.4067L12.5 11.4067C12.9142 11.4067 13.25 11.7425 13.25 12.1567C13.25 12.5709 12.9142 12.9067 12.5 12.9067L11.0276 12.9067C10.6134 12.9067 10.2776 12.571 10.2776 12.1567Z" fill="#000000" />
<path fill-rule="evenodd" clip-rule="evenodd" d="M7.14526 12.1567C7.14526 11.7425 7.48105 11.4067 7.89526 11.4067L9.09961 11.4067C9.51382 11.4067 9.84961 11.7425 9.84961 12.1567C9.84961 12.571 9.51382 12.9067 9.09961 12.9067L7.89526 12.9067C7.48105 12.9067 7.14526 12.571 7.14526 12.1567Z" fill="#000000" />
<path fill-rule="evenodd" clip-rule="evenodd" d="M20.3547 6.98145C20.3547 7.6718 19.7951 8.23145 19.1047 8.23145C18.4144 8.23145 17.8547 7.6718 17.8547 6.98145C17.8547 6.29109 18.4144 5.73145 19.1047 5.73145C19.7951 5.73145 20.3547 6.29109 20.3547 6.98145ZM19.1047 9.73145C20.6235 9.73145 21.8547 8.50023 21.8547 6.98145C21.8547 5.46266 20.6235 4.23145 19.1047 4.23145C17.586 4.23145 16.3547 5.46266 16.3547 6.98145C16.3547 8.50023 17.586 9.73145 19.1047 9.73145Z" fill="#000000" />
<path fill-rule="evenodd" clip-rule="evenodd" d="M14.7224 6.98145C14.7224 6.56723 14.3866 6.23145 13.9724 6.23145L12.5 6.23144C12.0858 6.23144 11.75 6.56723 11.75 6.98144C11.75 7.39566 12.0858 7.73144 12.5 7.73144L13.9724 7.73145C14.3866 7.73145 14.7224 7.39566 14.7224 6.98145Z" fill="#000000" />
<path fill-rule="evenodd" clip-rule="evenodd" d="M17.8547 6.98145C17.8547 6.56723 17.519 6.23145 17.1047 6.23145L15.9004 6.23144C15.4862 6.23144 15.1504 6.56723 15.1504 6.98145C15.1504 7.39566 15.4862 7.73144 15.9004 7.73144L17.1047 7.73145C17.5189 7.73145 17.8547 7.39566 17.8547 6.98145Z" fill="#000000" />
<path fill-rule="evenodd" clip-rule="evenodd" d="M20.3547 17.2568C20.3547 17.9472 19.7951 18.5068 19.1047 18.5068C18.4144 18.5068 17.8547 17.9472 17.8547 17.2568C17.8547 16.5665 18.4144 16.0068 19.1047 16.0068C19.7951 16.0068 20.3547 16.5665 20.3547 17.2568ZM19.1047 20.0068C20.6235 20.0068 21.8547 18.7756 21.8547 17.2568C21.8547 15.7381 20.6235 14.5068 19.1047 14.5068C17.586 14.5068 16.3547 15.7381 16.3547 17.2568C16.3547 18.7756 17.586 20.0068 19.1047 20.0068Z" fill="#000000" />
<path fill-rule="evenodd" clip-rule="evenodd" d="M14.7224 17.2568C14.7224 16.8426 14.3866 16.5068 13.9724 16.5068L12.5 16.5068C12.0858 16.5068 11.75 16.8426 11.75 17.2568C11.75 17.671 12.0858 18.0068 12.5 18.0068L13.9724 18.0068C14.3866 18.0068 14.7224 17.6711 14.7224 17.2568Z" fill="#000000" />
<path fill-rule="evenodd" clip-rule="evenodd" d="M17.8547 17.2568C17.8547 16.8426 17.519 16.5068 17.1047 16.5068L15.9004 16.5068C15.4862 16.5068 15.1504 16.8426 15.1504 17.2568C15.1504 17.671 15.4862 18.0068 15.9004 18.0068L17.1047 18.0068C17.5189 18.0068 17.8547 17.6711 17.8547 17.2568Z" fill="#000000" />
</svg>