<svg width="24px"  height="24px"  viewBox="0 0 25 25" fill="none" xmlns="http://www.w3.org/2000/svg">
<path fill-rule="evenodd" clip-rule="evenodd" d="M11.4484 4.37109C7.47246 4.37109 4.25 7.59355 4.25 11.5695C4.25 15.5445 7.47252 18.7679 11.4484 18.7679C15.4243 18.7679 18.6468 15.5445 18.6468 11.5695C18.6468 10.7548 18.5119 9.97343 18.2636 9.24453C18.1301 8.85243 18.3397 8.42632 18.7318 8.29278C19.1239 8.15924 19.55 8.36884 19.6835 8.76094C19.984 9.64332 20.1468 10.588 20.1468 11.5695C20.1468 16.3728 16.2528 20.2679 11.4484 20.2679C6.64397 20.2679 2.75 16.3728 2.75 11.5695C2.75 6.76513 6.64403 2.87109 11.4484 2.87109C13.0677 2.87109 14.5861 3.31407 15.886 4.08654C16.2421 4.29814 16.3592 4.75835 16.1476 5.11443C15.936 5.47051 15.4758 5.58764 15.1197 5.37603C14.0455 4.73765 12.7909 4.37109 11.4484 4.37109Z" fill="#000000" />
<path fill-rule="evenodd" clip-rule="evenodd" d="M16.3264 16.863C16.6189 16.5697 17.0937 16.569 17.387 16.8615L20.6213 20.087C20.9146 20.3795 20.9152 20.8544 20.6227 21.1477C20.3302 21.441 19.8553 21.4416 19.562 21.1491L16.3278 17.9236C16.0345 17.6311 16.0339 17.1563 16.3264 16.863Z" fill="#000000" />
<path fill-rule="evenodd" clip-rule="evenodd" d="M22.0489 5.93292C22.3309 6.23639 22.3134 6.71095 22.0099 6.99286L16.1359 12.4494C15.9897 12.5852 15.7955 12.6572 15.5961 12.6493C15.3968 12.6415 15.2087 12.5546 15.0736 12.4078L13.0492 10.2081L9.34278 13.7045C9.04147 13.9888 8.5668 13.9749 8.28257 13.6736C7.99833 13.3723 8.01217 12.8977 8.31348 12.6134L12.5723 8.59592C12.7181 8.45833 12.913 8.38487 13.1134 8.39195C13.3138 8.39903 13.503 8.48606 13.6388 8.6336L15.6671 10.8376L20.989 5.89387C21.2925 5.61196 21.767 5.62944 22.0489 5.93292Z" fill="#000000" />
<path fill-rule="evenodd" clip-rule="evenodd" d="M8.75487 9.63086C9.16908 9.63031 9.50531 9.96565 9.50586 10.3799L9.50876 12.5739L11.7028 12.5703C12.117 12.5696 12.4534 12.9048 12.454 13.319C12.4547 13.7333 12.1195 14.0696 11.7053 14.0703L8.76099 14.0751C8.56204 14.0755 8.3711 13.9967 8.23021 13.8563C8.08932 13.7158 8.01001 13.5251 8.00975 13.3261L8.00586 10.3819C8.00531 9.96764 8.34065 9.63141 8.75487 9.63086Z" fill="#000000" />
</svg>