<svg width="24px"  height="24px"  viewBox="0 0 25 25" fill="none" xmlns="http://www.w3.org/2000/svg">
<path fill-rule="evenodd" clip-rule="evenodd" d="M11.446 4.37451C7.47121 4.37451 4.25 7.59584 4.25 11.5695C4.25 15.5433 7.47133 18.7655 11.446 18.7655C15.4196 18.7655 18.641 15.5434 18.641 11.5695C18.641 10.7549 18.506 9.9736 18.2579 9.24593C18.1242 8.85388 18.3336 8.42769 18.7257 8.29401C19.1177 8.16032 19.5439 8.36977 19.6776 8.76182C19.9782 9.64339 20.141 10.5881 20.141 11.5695C20.141 16.3715 16.2482 20.2655 11.446 20.2655C6.64278 20.2655 2.75 16.3716 2.75 11.5695C2.75 6.76729 6.6429 2.87451 11.446 2.87451C13.0643 2.87451 14.5826 3.31748 15.8824 4.08989C16.2385 4.30149 16.3556 4.7617 16.144 5.11778C15.9324 5.47386 15.4722 5.59098 15.1161 5.37938C14.0419 4.74102 12.7873 4.37451 11.446 4.37451Z" fill="#000000" />
<path fill-rule="evenodd" clip-rule="evenodd" d="M21.9457 5.93292C22.2276 6.2364 22.2101 6.71096 21.9066 6.99286L16.0349 12.4471C15.8888 12.5829 15.6945 12.6549 15.4952 12.6471C15.2958 12.6393 15.1078 12.5524 14.9727 12.4056L12.9486 10.207L9.24524 13.7021C8.944 13.9864 8.46932 13.9726 8.18502 13.6714C7.90072 13.3701 7.91446 12.8955 8.2157 12.6112L12.4713 8.59489C12.6172 8.45726 12.812 8.38376 13.0124 8.3908C13.2128 8.39784 13.4021 8.48484 13.5379 8.63237L15.566 10.8354L20.8857 5.89386C21.1892 5.61195 21.6637 5.62944 21.9457 5.93292Z" fill="#000000" />
<path fill-rule="evenodd" clip-rule="evenodd" d="M21.4949 5.53711C21.909 5.53656 22.2452 5.87175 22.2459 6.28587L22.2507 9.22803C22.2514 9.64224 21.9162 9.97858 21.502 9.97927C21.0878 9.97995 20.7514 9.64472 20.7507 9.23051L20.7471 7.0381L18.5537 7.041C18.1395 7.04155 17.8033 6.70621 17.8027 6.29199C17.8022 5.87778 18.1375 5.54155 18.5517 5.541L21.4949 5.53711Z" fill="#000000" />
<path fill-rule="evenodd" clip-rule="evenodd" d="M16.3225 16.8591C16.615 16.5658 17.0898 16.5651 17.3831 16.8576L20.6162 20.0819C20.9095 20.3744 20.9101 20.8493 20.6176 21.1426C20.3251 21.4359 19.8503 21.4365 19.557 21.144L16.3239 17.9197C16.0306 17.6272 16.03 17.1524 16.3225 16.8591Z" fill="#000000" />
</svg>