<svg width="24px"  height="24px"  viewBox="0 0 25 25" fill="none" xmlns="http://www.w3.org/2000/svg">
<path fill-rule="evenodd" clip-rule="evenodd" d="M5.75 2.36865C6.16421 2.36865 6.5 2.70444 6.5 3.11865V5.11865C6.5 5.53287 6.16421 5.86865 5.75 5.86865C5.33579 5.86865 5 5.53287 5 5.11865V3.11865C5 2.70444 5.33579 2.36865 5.75 2.36865Z" fill="#000000" />
<path fill-rule="evenodd" clip-rule="evenodd" d="M2.75 6.59774C2.75 5.36407 3.7527 4.36865 4.98376 4.36865H6.5152C7.74692 4.36865 8.74994 5.36375 8.74994 6.59774V9.64053C8.74994 10.8752 7.74628 11.8687 6.5152 11.8687H4.98376C3.75334 11.8687 2.75 10.8748 2.75 9.64053V6.59774ZM4.98376 5.86865C4.57637 5.86865 4.25 6.19724 4.25 6.59774V9.64053C4.25 10.0404 4.57573 10.3687 4.98376 10.3687H6.5152C6.92453 10.3687 7.24994 10.0401 7.24994 9.64053V6.59774C7.24994 6.19756 6.92389 5.86865 6.5152 5.86865H4.98376Z" fill="#000000" />
<path fill-rule="evenodd" clip-rule="evenodd" d="M5.75 10.3687C6.16421 10.3687 6.5 10.7044 6.5 11.1187V13.1187C6.5 13.5329 6.16421 13.8687 5.75 13.8687C5.33579 13.8687 5 13.5329 5 13.1187V11.1187C5 10.7044 5.33579 10.3687 5.75 10.3687Z" fill="#000000" />
<path fill-rule="evenodd" clip-rule="evenodd" d="M12.5 5.36865C12.9142 5.36865 13.25 5.70444 13.25 6.11865V8.61865C13.25 9.03287 12.9142 9.36865 12.5 9.36865C12.0858 9.36865 11.75 9.03287 11.75 8.61865V6.11865C11.75 5.70444 12.0858 5.36865 12.5 5.36865Z" fill="#000000" />
<path fill-rule="evenodd" clip-rule="evenodd" d="M9.5 10.0977C9.5 8.86407 10.5027 7.86865 11.7338 7.86865H13.2652C14.4969 7.86865 15.4999 8.86375 15.4999 10.0977V17.1405C15.4999 18.3752 14.4963 19.3687 13.2652 19.3687H11.7338C10.5033 19.3687 9.5 18.3748 9.5 17.1405V10.0977ZM11.7338 9.36865C11.3264 9.36865 11 9.69724 11 10.0977V17.1405C11 17.5404 11.3257 17.8687 11.7338 17.8687H13.2652C13.6745 17.8687 13.9999 17.5401 13.9999 17.1405V10.0977C13.9999 9.69756 13.6739 9.36865 13.2652 9.36865H11.7338Z" fill="#000000" />
<path fill-rule="evenodd" clip-rule="evenodd" d="M12.5 17.8687C12.9142 17.8687 13.25 18.2044 13.25 18.6187V21.1187C13.25 21.5329 12.9142 21.8687 12.5 21.8687C12.0858 21.8687 11.75 21.5329 11.75 21.1187V18.6187C11.75 18.2044 12.0858 17.8687 12.5 17.8687Z" fill="#000000" />
<path fill-rule="evenodd" clip-rule="evenodd" d="M19.25 4.36865C19.6642 4.36865 20 4.70444 20 5.11865V7.61865C20 8.03287 19.6642 8.36865 19.25 8.36865C18.8358 8.36865 18.5 8.03287 18.5 7.61865V5.11865C18.5 4.70444 18.8358 4.36865 19.25 4.36865Z" fill="#000000" />
<path fill-rule="evenodd" clip-rule="evenodd" d="M16.25 9.09774C16.25 7.86407 17.2527 6.86865 18.4838 6.86865H20.0152C21.2469 6.86865 22.2499 7.86375 22.2499 9.09774V9.14053C22.2499 10.3752 21.2463 11.3687 20.0152 11.3687H18.4838C17.2533 11.3687 16.25 10.3748 16.25 9.14053V9.09774ZM18.4838 8.36865C18.0764 8.36865 17.75 8.69724 17.75 9.09774V9.14053C17.75 9.54039 18.0757 9.86865 18.4838 9.86865H20.0152C20.4245 9.86865 20.7499 9.54007 20.7499 9.14053V9.09774C20.7499 8.69756 20.4239 8.36865 20.0152 8.36865H18.4838Z" fill="#000000" />
<path fill-rule="evenodd" clip-rule="evenodd" d="M19.25 9.86865C19.6642 9.86865 20 10.2044 20 10.6187V13.1187C20 13.5329 19.6642 13.8687 19.25 13.8687C18.8358 13.8687 18.5 13.5329 18.5 13.1187V10.6187C18.5 10.2044 18.8358 9.86865 19.25 9.86865Z" fill="#000000" />
</svg>