<svg width="24px"  height="24px"  viewBox="0 0 25 25" fill="none" xmlns="http://www.w3.org/2000/svg">
<path fill-rule="evenodd" clip-rule="evenodd" d="M19.25 21.8687C18.8358 21.8687 18.5 21.5329 18.5 21.1187V19.1187C18.5 18.7044 18.8358 18.3687 19.25 18.3687C19.6642 18.3687 20 18.7044 20 19.1187V21.1187C20 21.5329 19.6642 21.8687 19.25 21.8687Z" fill="#000000" />
<path fill-rule="evenodd" clip-rule="evenodd" d="M22.25 17.6396C22.25 18.8732 21.2473 19.8687 20.0162 19.8687H18.4848C17.2531 19.8687 16.2501 18.8736 16.2501 17.6396V12.5968C16.2501 11.3621 17.2537 10.3687 18.4848 10.3687H20.0162C21.2467 10.3687 22.25 11.3625 22.25 12.5968V17.6396ZM20.0162 18.3687C20.4236 18.3687 20.75 18.0401 20.75 17.6396V12.5968C20.75 12.1969 20.4243 11.8687 20.0162 11.8687H18.4848C18.0755 11.8687 17.7501 12.1972 17.7501 12.5968V17.6396C17.7501 18.0397 18.0761 18.3687 18.4848 18.3687H20.0162Z" fill="#000000" />
<path fill-rule="evenodd" clip-rule="evenodd" d="M19.25 11.8687C18.8358 11.8687 18.5 11.5329 18.5 11.1187V9.11865C18.5 8.70444 18.8358 8.36865 19.25 8.36865C19.6642 8.36865 20 8.70444 20 9.11865V11.1187C20 11.5329 19.6642 11.8687 19.25 11.8687Z" fill="#000000" />
<path fill-rule="evenodd" clip-rule="evenodd" d="M12.5 17.8687C12.0858 17.8687 11.75 17.5329 11.75 17.1187V11.6187C11.75 11.2044 12.0858 10.8687 12.5 10.8687C12.9142 10.8687 13.25 11.2044 13.25 11.6187V17.1187C13.25 17.5329 12.9142 17.8687 12.5 17.8687Z" fill="#000000" />
<path fill-rule="evenodd" clip-rule="evenodd" d="M15.5 10.1396C15.5 11.3732 14.4973 12.3687 13.2662 12.3687H11.7348C10.5031 12.3687 9.50006 11.3736 9.50006 10.1396V10.0968C9.50006 8.86214 10.5037 7.86865 11.7348 7.86865H13.2662C14.4967 7.86865 15.5 8.86246 15.5 10.0968V10.1396ZM13.2662 10.8687C13.6736 10.8687 14 10.5401 14 10.1396V10.0968C14 9.69691 13.6743 9.36865 13.2662 9.36865H11.7348C11.3255 9.36865 11.0001 9.69723 11.0001 10.0968V10.1396C11.0001 10.5397 11.3261 10.8687 11.7348 10.8687H13.2662Z" fill="#000000" />
<path fill-rule="evenodd" clip-rule="evenodd" d="M12.5 9.36865C12.0858 9.36865 11.75 9.03287 11.75 8.61865V6.11865C11.75 5.70444 12.0858 5.36865 12.5 5.36865C12.9142 5.36865 13.25 5.70444 13.25 6.11865V8.61865C13.25 9.03287 12.9142 9.36865 12.5 9.36865Z" fill="#000000" />
<path fill-rule="evenodd" clip-rule="evenodd" d="M5.75 15.8687C5.33579 15.8687 5 15.5329 5 15.1187V12.6187C5 12.2044 5.33579 11.8687 5.75 11.8687C6.16421 11.8687 6.5 12.2044 6.5 12.6187V15.1187C6.5 15.5329 6.16421 15.8687 5.75 15.8687Z" fill="#000000" />
<path fill-rule="evenodd" clip-rule="evenodd" d="M8.75 11.1396C8.75 12.3732 7.7473 13.3687 6.51624 13.3687H4.9848C3.75308 13.3687 2.75006 12.3736 2.75006 11.1396V7.09677C2.75006 5.86214 3.75372 4.86865 4.9848 4.86865H6.51624C7.74666 4.86865 8.75 5.86246 8.75 7.09677V11.1396ZM6.51624 11.8687C6.92363 11.8687 7.25 11.5401 7.25 11.1396V7.09677C7.25 6.69691 6.92427 6.36865 6.51624 6.36865H4.9848C4.57547 6.36865 4.25006 6.69723 4.25006 7.09677V11.1396C4.25006 11.5397 4.57611 11.8687 4.9848 11.8687H6.51624Z" fill="#000000" />
<path fill-rule="evenodd" clip-rule="evenodd" d="M5.75 6.36865C5.33579 6.36865 5 6.03287 5 5.61865V3.11865C5 2.70444 5.33579 2.36865 5.75 2.36865C6.16421 2.36865 6.5 2.70444 6.5 3.11865V5.61865C6.5 6.03287 6.16421 6.36865 5.75 6.36865Z" fill="#000000" />
</svg>