<svg width="24px"  height="24px"  viewBox="0 0 25 25" fill="none" xmlns="http://www.w3.org/2000/svg">
<path fill-rule="evenodd" clip-rule="evenodd" d="M5.41988 4.95414C4.6998 5.62474 4.25 6.61393 4.25 7.90325V16.337C4.25 17.6257 4.69973 18.6144 5.41976 19.2846C6.14585 19.9605 7.20857 20.3691 8.52638 20.3691H16.4736C17.7905 20.3691 18.8533 19.9589 19.5799 19.2817C20.3006 18.6099 20.75 17.6209 20.75 16.337V7.90228C20.75 6.61351 20.3003 5.62456 19.5802 4.95406C18.854 4.27793 17.7913 3.86914 16.4736 3.86914H8.52638C7.20868 3.86914 6.14599 4.27793 5.41988 4.95414ZM4.39761 3.85644C5.44838 2.87787 6.89889 2.36914 8.52638 2.36914H16.4736C18.1011 2.36914 19.5516 2.87787 20.6024 3.85628C21.6592 4.84031 22.25 6.24293 22.25 7.90228V16.337C22.25 17.9924 21.6588 19.3945 20.6026 20.3789C19.5523 21.358 18.1019 21.8691 16.4736 21.8691H8.52638C6.89899 21.8691 5.44853 21.3607 4.39773 20.3826C3.34086 19.3988 2.75 17.9963 2.75 16.337V7.90325C2.75 6.24349 3.3408 4.84062 4.39761 3.85644Z" fill="#000000" />
<path fill-rule="evenodd" clip-rule="evenodd" d="M7.55859 10.7734C7.55859 11.1877 7.89438 11.5234 8.30859 11.5234H11.0319C11.4461 11.5234 11.7819 11.1877 11.7819 10.7734C11.7819 10.3592 11.4461 10.0234 11.0319 10.0234H8.30859C7.89438 10.0234 7.55859 10.3592 7.55859 10.7734Z" fill="#000000" />
<path fill-rule="evenodd" clip-rule="evenodd" d="M7.55859 7.33984C7.55859 7.75406 7.89438 8.08984 8.30859 8.08984H15.6071C16.0213 8.08984 16.3571 7.75406 16.3571 7.33984C16.3571 6.92563 16.0213 6.58984 15.6071 6.58984H8.30859C7.89438 6.58984 7.55859 6.92563 7.55859 7.33984Z" fill="#000000" />
<path fill-rule="evenodd" clip-rule="evenodd" d="M17.2178 15.1484C17.632 15.1478 17.9673 14.8115 17.9666 14.3973L17.9625 11.7197C17.9622 11.5208 17.8829 11.3302 17.742 11.1897C17.6011 11.0493 17.4102 10.9706 17.2113 10.9709L14.5339 10.9753C14.1197 10.976 13.7845 11.3123 13.7852 11.7265C13.7858 12.1407 14.1222 12.476 14.5364 12.4753L16.4637 12.4721L16.4666 14.3996C16.4673 14.8138 16.8036 15.1491 17.2178 15.1484Z" fill="#000000" />
<path fill-rule="evenodd" clip-rule="evenodd" d="M7.25373 17.4296C7.5471 17.722 8.02198 17.7213 8.31439 17.4279L10.2257 15.5104L11.9288 17.2084C12.0715 17.3506 12.2654 17.4295 12.4668 17.4272C12.6682 17.4249 12.8603 17.3417 12.9997 17.1963L17.7565 12.2348C18.0431 11.9358 18.0331 11.461 17.7341 11.1744C17.4351 10.8877 16.9603 10.8977 16.6737 11.1967L12.4462 15.6061L10.7536 13.9185C10.6127 13.7781 10.4218 13.6994 10.2229 13.6997C10.0239 13.7 9.83328 13.7793 9.69284 13.9202L7.25201 16.369C6.9596 16.6623 6.96037 17.1372 7.25373 17.4296Z" fill="#000000" />
</svg>