<svg width="24px"  height="24px"  viewBox="0 0 25 25" fill="none" xmlns="http://www.w3.org/2000/svg">
<path fill-rule="evenodd" clip-rule="evenodd" d="M8.20704 11.0458C7.87961 11.2995 7.81982 11.7706 8.07351 12.098L10.4793 15.2032C10.6016 15.3611 10.7819 15.4637 10.9801 15.4882C11.1784 15.5127 11.3782 15.4571 11.5353 15.3338L13.744 13.5996L15.7406 16.1938C15.9932 16.5221 16.4641 16.5834 16.7924 16.3308C17.1206 16.0781 17.1819 15.6072 16.9293 15.279L14.4708 12.0846C14.3487 11.926 14.1683 11.8227 13.9697 11.7979C13.7711 11.773 13.5708 11.8285 13.4133 11.9521L11.2027 13.6878L9.25926 11.1794C9.00558 10.8519 8.53448 10.7921 8.20704 11.0458Z" fill="#000000" />
<path fill-rule="evenodd" clip-rule="evenodd" d="M4.99609 8.14453C5.41031 8.14453 5.74609 8.48032 5.74609 8.89453V17.5696C5.74609 18.8473 6.7822 19.8834 8.05999 19.8834H16.9393C18.2171 19.8834 19.2532 18.8473 19.2532 17.5696V8.89453C19.2532 8.48032 19.589 8.14453 20.0032 8.14453C20.4174 8.14453 20.7532 8.48032 20.7532 8.89453V17.5696C20.7532 19.6758 19.0456 21.3834 16.9393 21.3834H8.05999C5.95377 21.3834 4.24609 19.6758 4.24609 17.5696V8.89453C4.24609 8.48032 4.58188 8.14453 4.99609 8.14453Z" fill="#000000" />
<path fill-rule="evenodd" clip-rule="evenodd" d="M10.5609 3.52938C11.6975 2.63083 13.3026 2.63083 14.4392 3.52938L21.9655 9.4872C22.2903 9.74429 22.3452 10.216 22.0881 10.5408C21.831 10.8655 21.3593 10.9204 21.0345 10.6633L13.509 4.7061C13.5088 4.70599 13.5091 4.7062 13.509 4.7061C12.9177 4.23893 12.0825 4.23869 11.4912 4.70599C11.4912 4.70603 11.4913 4.70596 11.4912 4.70599L3.96553 10.6633C3.64076 10.9204 3.16907 10.8655 2.91198 10.5408C2.65489 10.216 2.70975 9.74429 3.03453 9.4872L10.5609 3.52938Z" fill="#000000" />
</svg>