<svg width="24px"  height="24px"  viewBox="0 0 25 25" fill="none" xmlns="http://www.w3.org/2000/svg">
<path fill-rule="evenodd" clip-rule="evenodd" d="M20.5 2.36865C21.4665 2.36865 22.25 3.15215 22.25 4.11865L22.25 20.1187C22.25 21.0852 21.4665 21.8687 20.5 21.8687L4.5 21.8687C3.5335 21.8687 2.75 21.0851 2.75 20.1187L2.75 4.11865C2.75 3.15215 3.5335 2.36865 4.5 2.36865L20.5 2.36865ZM20.75 4.11865C20.75 3.98058 20.6381 3.86865 20.5 3.86865L4.5 3.86865C4.36193 3.86865 4.25 3.98058 4.25 4.11865L4.25 20.1187C4.25 20.2567 4.36193 20.3687 4.5 20.3687L20.5 20.3687C20.6381 20.3687 20.75 20.2567 20.75 20.1187L20.75 4.11865Z" fill="#000000" />
<path fill-rule="evenodd" clip-rule="evenodd" d="M15.5 8.36865C15.9142 8.36865 16.25 8.70444 16.25 9.11865L16.25 21.1187C16.25 21.5329 15.9142 21.8687 15.5 21.8687C15.0858 21.8687 14.75 21.5329 14.75 21.1187L14.75 9.11865C14.75 8.70444 15.0858 8.36865 15.5 8.36865Z" fill="#000000" />
<path fill-rule="evenodd" clip-rule="evenodd" d="M18.4482 2.36865C18.8625 2.36865 19.1982 2.70444 19.1982 3.11865L19.1982 9.11865C19.1982 9.53287 18.8625 9.86865 18.4482 9.86865C18.034 9.86865 17.6982 9.53287 17.6982 9.11865L17.6982 3.11865C17.6982 2.70444 18.034 2.36865 18.4482 2.36865Z" fill="#000000" />
<path fill-rule="evenodd" clip-rule="evenodd" d="M12.5 2.36865C12.9142 2.36865 13.25 2.70444 13.25 3.11865L13.25 9.11865C13.25 9.53287 12.9142 9.86865 12.5 9.86865C12.0858 9.86865 11.75 9.53287 11.75 9.11865L11.75 3.11865C11.75 2.70444 12.0858 2.36865 12.5 2.36865Z" fill="#000000" />
<path fill-rule="evenodd" clip-rule="evenodd" d="M10.4053 14.3687C10.8195 14.3687 11.1553 14.7044 11.1553 15.1187L11.1553 21.1187C11.1553 21.5329 10.8195 21.8687 10.4053 21.8687C9.99106 21.8687 9.65527 21.5329 9.65527 21.1187L9.65527 15.1187C9.65527 14.7044 9.99106 14.3687 10.4053 14.3687Z" fill="#000000" />
<path fill-rule="evenodd" clip-rule="evenodd" d="M7.66406 8.36865C8.07828 8.36865 8.41406 8.70444 8.41406 9.11865L8.41406 15.1187C8.41406 15.5329 8.07828 15.8687 7.66406 15.8687C7.24985 15.8687 6.91406 15.5329 6.91406 15.1187L6.91406 9.11865C6.91406 8.70444 7.24985 8.36865 7.66406 8.36865Z" fill="#000000" />
<path fill-rule="evenodd" clip-rule="evenodd" d="M16.25 15.1187C16.25 15.5329 15.9142 15.8687 15.5 15.8687L3.5 15.8687C3.08579 15.8687 2.75 15.5329 2.75 15.1187C2.75 14.7044 3.08579 14.3687 3.5 14.3687L15.5 14.3687C15.9142 14.3687 16.25 14.7044 16.25 15.1187Z" fill="#000000" />
<path fill-rule="evenodd" clip-rule="evenodd" d="M22.1465 17.1187C22.1465 17.5329 21.8107 17.8687 21.3965 17.8687L15.5 17.8687C15.0858 17.8687 14.75 17.5329 14.75 17.1187C14.75 16.7044 15.0858 16.3687 15.5 16.3687L21.3965 16.3687C21.8107 16.3687 22.1465 16.7044 22.1465 17.1187Z" fill="#000000" />
<path fill-rule="evenodd" clip-rule="evenodd" d="M22.25 9.11865C22.25 9.53287 21.9142 9.86865 21.5 9.86865L3.5 9.86865C3.08579 9.86865 2.75 9.53286 2.75 9.11865C2.75 8.70444 3.08579 8.36865 3.5 8.36865L21.5 8.36865C21.9142 8.36865 22.25 8.70444 22.25 9.11865Z" fill="#000000" />
</svg>