<svg width="24px"  height="24px"  viewBox="0 0 25 25" fill="none" xmlns="http://www.w3.org/2000/svg">
<path fill-rule="evenodd" clip-rule="evenodd" d="M5.41988 4.95317C4.6998 5.62376 4.25 6.61295 4.25 7.90227V16.336C4.25 17.6248 4.69973 18.6134 5.41976 19.2837C6.14585 19.9596 7.20857 20.3682 8.52638 20.3682H16.4736C17.7905 20.3682 18.8533 19.9579 19.5799 19.2807C20.3006 18.609 20.75 17.6199 20.75 16.336V7.9013C20.75 6.61253 20.3003 5.62359 19.5802 4.95308C18.854 4.27695 17.7913 3.86816 16.4736 3.86816H8.52638C7.20868 3.86816 6.14599 4.27695 5.41988 4.95317ZM4.39761 3.85546C5.44838 2.87689 6.89889 2.36816 8.52638 2.36816H16.4736C18.1011 2.36816 19.5516 2.87689 20.6024 3.8553C21.6592 4.83933 22.25 6.24196 22.25 7.9013V16.336C22.25 17.9915 21.6588 19.3935 20.6026 20.378C19.5523 21.357 18.1019 21.8682 16.4736 21.8682H8.52638C6.89899 21.8682 5.44853 21.3597 4.39773 20.3816C3.34086 19.3978 2.75 17.9954 2.75 16.336V7.90227C2.75 6.24251 3.3408 4.83965 4.39761 3.85546Z" fill="#000000" />
<path fill-rule="evenodd" clip-rule="evenodd" d="M15.853 11.3123C16.2594 11.3928 16.5235 11.7875 16.443 12.1938L15.7351 15.7659C15.6965 15.961 15.5819 16.1328 15.4165 16.2434C15.2512 16.3541 15.0487 16.3945 14.8536 16.3558L11.2818 15.6476C10.8755 15.5671 10.6114 15.1724 10.692 14.7661C10.7725 14.3598 11.1672 14.0957 11.5735 14.1763L14.4095 14.7386L14.9716 11.9022C15.0521 11.4959 15.4467 11.2318 15.853 11.3123Z" fill="#000000" />
<path fill-rule="evenodd" clip-rule="evenodd" d="M3.25326 6.30039C3.58628 6.05407 4.05592 6.12435 4.30224 6.45736L7.07684 10.2085L10.0482 8.21984C10.2135 8.10921 10.416 8.06877 10.6111 8.10744C10.8063 8.1461 10.978 8.2607 11.0887 8.42602L15.6226 15.2012C15.853 15.5455 15.7607 16.0113 15.4164 16.2416C15.0722 16.472 14.6064 16.3797 14.376 16.0355L10.2592 9.88359L7.31651 11.853C6.98367 12.0758 6.53455 11.9977 6.29639 11.6757L3.09629 7.34937C2.84997 7.01636 2.92025 6.54671 3.25326 6.30039Z" fill="#000000" />
</svg>