<svg width="24px"  height="24px"  viewBox="0 0 25 25" fill="none" xmlns="http://www.w3.org/2000/svg">
<path fill-rule="evenodd" clip-rule="evenodd" d="M22.0261 6.58366C22.3213 6.87424 22.3251 7.34909 22.0345 7.64429L14.898 14.8944C14.7569 15.0378 14.5641 15.1184 14.363 15.1183C14.1618 15.1182 13.9692 15.0373 13.8283 14.8937L10.2738 11.2734L4.03584 17.6429C3.74602 17.9389 3.27117 17.9438 2.97523 17.654C2.6793 17.3642 2.67434 16.8893 2.96416 16.5934L9.73725 9.67743C9.87821 9.5335 10.0711 9.45233 10.2726 9.4522C10.4741 9.45207 10.6671 9.533 10.8083 9.67675L14.3641 13.2985L20.9655 6.59204C21.2561 6.29684 21.7309 6.29309 22.0261 6.58366Z" fill="#000000" />
</svg>