<svg width="24px"  height="24px"  viewBox="0 0 25 25" fill="none" xmlns="http://www.w3.org/2000/svg">
<path fill-rule="evenodd" clip-rule="evenodd" d="M9.24042 7.27588C6.48429 7.27588 4.25 9.51016 4.25 12.2663C4.25 15.0224 6.48429 17.2567 9.24042 17.2567C11.9965 17.2567 14.2308 15.0224 14.2308 12.2663C14.2308 9.51016 11.9965 7.27588 9.24042 7.27588ZM2.75 12.2663C2.75 8.68174 5.65586 5.77588 9.24042 5.77588C12.825 5.77588 15.7308 8.68174 15.7308 12.2663C15.7308 15.8509 12.825 18.7567 9.24042 18.7567C5.65586 18.7567 2.75 15.8509 2.75 12.2663Z" fill="#000000" />
<path fill-rule="evenodd" clip-rule="evenodd" d="M15.7597 7.27588C13.0036 7.27588 10.7693 9.51016 10.7693 12.2663C10.7693 15.0224 13.0036 17.2567 15.7597 17.2567C18.5158 17.2567 20.7501 15.0224 20.7501 12.2663C20.7501 9.51016 18.5158 7.27588 15.7597 7.27588ZM9.26929 12.2663C9.26929 8.68174 12.1751 5.77588 15.7597 5.77588C19.3443 5.77588 22.2501 8.68174 22.2501 12.2663C22.2501 15.8509 19.3443 18.7567 15.7597 18.7567C12.1751 18.7567 9.26929 15.8509 9.26929 12.2663Z" fill="#000000" />
</svg>