<svg width="24px"  height="24px"  viewBox="0 0 25 25" fill="none" xmlns="http://www.w3.org/2000/svg">
<path fill-rule="evenodd" clip-rule="evenodd" d="M12.5002 3.86865C10.4292 3.86865 8.75024 5.54758 8.75024 7.61864C8.75024 9.6897 10.4292 11.3686 12.5002 11.3686C14.5713 11.3686 16.2502 9.6897 16.2502 7.61864C16.2502 5.54758 14.5713 3.86865 12.5002 3.86865ZM7.25024 7.61864C7.25024 4.71915 9.60074 2.36865 12.5002 2.36865C15.3997 2.36865 17.7502 4.71915 17.7502 7.61864C17.7502 10.5181 15.3997 12.8686 12.5002 12.8686C9.60074 12.8686 7.25024 10.5181 7.25024 7.61864Z" fill="#000000" />
<path fill-rule="evenodd" clip-rule="evenodd" d="M12.5002 12.8687C10.4292 12.8687 8.75024 14.5476 8.75024 16.6186C8.75024 18.6897 10.4292 20.3686 12.5002 20.3686C14.5713 20.3686 16.2502 18.6897 16.2502 16.6186C16.2502 14.5476 14.5713 12.8687 12.5002 12.8687ZM7.25024 16.6186C7.25024 13.7192 9.60074 11.3687 12.5002 11.3687C15.3997 11.3687 17.7502 13.7192 17.7502 16.6186C17.7502 19.5181 15.3997 21.8686 12.5002 21.8686C9.60074 21.8686 7.25024 19.5181 7.25024 16.6186Z" fill="#000000" />
<path fill-rule="evenodd" clip-rule="evenodd" d="M20.75 12.1186C20.75 10.0476 19.0711 8.36865 17 8.36865C14.929 8.36865 13.25 10.0476 13.25 12.1186C13.25 14.1897 14.929 15.8686 17 15.8686C19.0711 15.8686 20.75 14.1897 20.75 12.1186ZM17 6.86865C19.8995 6.86865 22.25 9.21915 22.25 12.1186C22.25 15.0181 19.8995 17.3686 17 17.3686C14.1005 17.3686 11.75 15.0181 11.75 12.1186C11.75 9.21915 14.1005 6.86865 17 6.86865Z" fill="#000000" />
<path fill-rule="evenodd" clip-rule="evenodd" d="M11.75 12.1186C11.75 10.0476 10.0711 8.36865 8.00001 8.36865C5.92895 8.36865 4.25003 10.0476 4.25003 12.1186C4.25003 14.1897 5.92895 15.8686 8.00001 15.8686C10.0711 15.8686 11.75 14.1897 11.75 12.1186ZM8.00001 6.86865C10.8995 6.86865 13.25 9.21915 13.25 12.1186C13.25 15.0181 10.8995 17.3686 8.00001 17.3686C5.10053 17.3686 2.75003 15.0181 2.75003 12.1186C2.75003 9.21915 5.10053 6.86865 8.00001 6.86865Z" fill="#000000" />
</svg>