<svg width="24px"  height="24px"  viewBox="0 0 25 25" fill="none" xmlns="http://www.w3.org/2000/svg">
<path fill-rule="evenodd" clip-rule="evenodd" d="M8.46636 4.49448C9.57655 3.4606 11.0716 2.88818 12.6202 2.88818C14.1689 2.88818 15.6639 3.4606 16.7741 4.49449C17.8883 5.53211 18.5218 6.96644 18.5218 8.45273C18.5218 9.02382 18.2409 9.48282 17.8644 9.81753C17.4997 10.1418 17.0181 10.3784 16.5 10.5535C15.4597 10.9053 14.0795 11.073 12.6096 11.073C11.1397 11.073 9.7619 10.9053 8.72384 10.5533C8.20689 10.378 7.72645 10.1413 7.36264 9.81658C6.987 9.48135 6.70801 9.02255 6.70801 8.45273C6.70801 6.96234 7.35526 5.52922 8.46636 4.49448ZM12.6202 4.38818C11.4363 4.38818 10.3107 4.82666 9.48863 5.5922C8.66751 6.35688 8.20801 7.39836 8.20801 8.45273C8.20801 8.48979 8.21658 8.5682 8.3614 8.69744C8.51805 8.83723 8.79094 8.99218 9.20551 9.13275C10.0305 9.41248 11.2285 9.57302 12.6096 9.57302C13.9907 9.57302 15.1916 9.41249 16.0196 9.13254C16.4357 8.99184 16.7101 8.83666 16.8678 8.69649C17.0138 8.56673 17.0218 8.48852 17.0218 8.45273C17.0218 7.39427 16.5698 6.35399 15.7518 5.5922C14.9298 4.82667 13.8041 4.38818 12.6202 4.38818Z" fill="#000000" />
<path fill-rule="evenodd" clip-rule="evenodd" d="M8.41746 6.74937C8.539 7.14535 8.31652 7.56489 7.92054 7.68642C6.61293 8.08777 5.57068 8.6379 4.87027 9.25227C4.17008 9.86646 3.86426 10.4925 3.86426 11.0755C3.86426 11.9689 4.5985 12.9726 6.23531 13.7975C7.82956 14.6011 10.0841 15.1189 12.6143 15.1189C15.1444 15.1189 17.399 14.6011 18.9932 13.7975C20.63 12.9726 21.3643 11.9689 21.3643 11.0755C21.3643 10.4909 21.059 9.86652 20.361 9.25478C19.6623 8.64244 18.622 8.09452 17.3155 7.6936C16.9195 7.57208 16.697 7.15256 16.8185 6.75657C16.94 6.36059 17.3595 6.13808 17.7555 6.25959C19.1969 6.70188 20.4459 7.33471 21.3496 8.12668C22.254 8.91924 22.8643 9.9227 22.8643 11.0755C22.8643 12.8358 21.4705 14.2287 19.6683 15.137C17.8236 16.0668 15.3281 16.6189 12.6143 16.6189C9.90043 16.6189 7.40495 16.0668 5.5602 15.137C3.75802 14.2287 2.36426 12.8358 2.36426 11.0755C2.36426 9.9234 2.97599 8.91858 3.88113 8.12462C4.78606 7.33085 6.03691 6.6955 7.4804 6.25245C7.87639 6.13091 8.29592 6.35339 8.41746 6.74937Z" fill="#000000" />
<path fill-rule="evenodd" clip-rule="evenodd" d="M9.32739 14.9018C9.70762 15.0662 9.88263 15.5076 9.7183 15.8878L8.40344 18.93C8.39329 18.9535 8.3879 18.9757 8.38588 18.994C8.38568 18.9958 8.38552 18.9975 8.38539 18.9992C9.23139 19.4747 10.858 19.7638 12.6147 19.7638C14.3714 19.7638 15.998 19.4747 16.844 18.9992C16.8439 18.9975 16.8438 18.9958 16.8436 18.994C16.8415 18.9757 16.8361 18.9535 16.826 18.93L15.5111 15.8878C15.3468 15.5076 15.5218 15.0662 15.902 14.9018C16.2823 14.7375 16.7237 14.9125 16.888 15.2927L18.2029 18.3349C18.4561 18.9207 18.4141 19.8176 17.6432 20.2699C16.4528 20.9683 14.4666 21.2638 12.6147 21.2638C10.7628 21.2638 8.77667 20.9683 7.58619 20.2699C6.81531 19.8176 6.77338 18.9207 7.02654 18.3349L8.34139 15.2927C8.50573 14.9125 8.94717 14.7375 9.32739 14.9018ZM7.96571 19.623L8.34523 18.9761Z" fill="#000000" />
</svg>