<svg width="24px"  height="24px"  viewBox="0 0 25 25" fill="none" xmlns="http://www.w3.org/2000/svg">
<path fill-rule="evenodd" clip-rule="evenodd" d="M8.46636 4.70103C9.57655 3.66714 11.0716 3.09473 12.6202 3.09473C14.1689 3.09473 15.6639 3.66715 16.7741 4.70103C17.8883 5.73865 18.5218 7.17298 18.5218 8.65928C18.5218 9.23036 18.2409 9.68937 17.8644 10.0241C17.4997 10.3484 17.0181 10.5849 16.5 10.7601C15.4597 11.1118 14.0795 11.2796 12.6096 11.2796C11.1397 11.2796 9.7619 11.1118 8.72384 10.7598C8.20689 10.5846 7.72645 10.3478 7.36264 10.0231C6.987 9.6879 6.70801 9.22909 6.70801 8.65928C6.70801 7.16889 7.35526 5.73576 8.46636 4.70103ZM12.6202 4.59473C11.4363 4.59473 10.3107 5.03321 9.48863 5.79874C8.66751 6.56342 8.20801 7.60491 8.20801 8.65928C8.20801 8.69633 8.21658 8.77474 8.3614 8.90398C8.51805 9.04378 8.79094 9.19872 9.20551 9.33929C10.0305 9.61902 11.2285 9.77956 12.6096 9.77956C13.9907 9.77956 15.1916 9.61903 16.0196 9.33908C16.4357 9.19838 16.7101 9.04321 16.8678 8.90303C17.0138 8.77328 17.0218 8.69506 17.0218 8.65928C17.0218 7.60081 16.5698 6.56054 15.7518 5.79874C14.9298 5.03321 13.8041 4.59473 12.6202 4.59473Z" fill="#000000" />
<path fill-rule="evenodd" clip-rule="evenodd" d="M8.41746 6.9564C8.539 7.35238 8.31652 7.77192 7.92054 7.89346C6.61293 8.2948 5.57068 8.84493 4.87027 9.45931C4.17008 10.0735 3.86426 10.6995 3.86426 11.2825C3.86426 12.1759 4.5985 13.1796 6.23531 14.0046C7.82956 14.8081 10.0841 15.3259 12.6143 15.3259C15.1444 15.3259 17.399 14.8081 18.9932 14.0046C20.63 13.1796 21.3643 12.1759 21.3643 11.2825C21.3643 10.6979 21.059 10.0735 20.361 9.46181C19.6623 8.84947 18.622 8.30155 17.3155 7.90063C16.9195 7.77911 16.697 7.35959 16.8185 6.96361C16.94 6.56762 17.3595 6.34511 17.7555 6.46662C19.1969 6.90891 20.4459 7.54174 21.3496 8.33371C22.254 9.12627 22.8643 10.1297 22.8643 11.2825C22.8643 13.0428 21.4705 14.4358 19.6683 15.3441C17.8236 16.2738 15.3281 16.8259 12.6143 16.8259C9.90043 16.8259 7.40495 16.2738 5.5602 15.3441C3.75802 14.4358 2.36426 13.0428 2.36426 11.2825C2.36426 10.1304 2.97599 9.12561 3.88113 8.33165C4.78606 7.53788 6.03691 6.90254 7.4804 6.45948C7.87639 6.33794 8.29592 6.56042 8.41746 6.9564Z" fill="#000000" />
<path fill-rule="evenodd" clip-rule="evenodd" d="M3.11426 10.5322C3.52847 10.5322 3.86426 10.868 3.86426 11.2822C3.86426 15.838 7.74825 19.5735 12.6143 19.5735C17.4803 19.5735 21.3643 15.838 21.3643 11.2822C21.3643 10.868 21.7 10.5322 22.1143 10.5322C22.5285 10.5322 22.8643 10.868 22.8643 11.2822C22.8643 16.7371 18.2363 21.0735 12.6143 21.0735C6.99226 21.0735 2.36426 16.7371 2.36426 11.2822C2.36426 10.868 2.70004 10.5322 3.11426 10.5322Z" fill="#000000" />
<path fill-rule="evenodd" clip-rule="evenodd" d="M15.0636 13.1601C15.0977 13.5729 14.7906 13.9351 14.3778 13.9692C13.805 14.0164 13.2158 14.041 12.6146 14.041C12.0135 14.041 11.4242 14.0164 10.8515 13.9692C10.4387 13.9351 10.1316 13.5729 10.1657 13.1601C10.1997 12.7473 10.562 12.4402 10.9748 12.4743C11.5062 12.5181 12.0543 12.541 12.6146 12.541C13.175 12.541 13.7231 12.5181 14.2545 12.4743C14.6673 12.4402 15.0296 12.7473 15.0636 13.1601Z" fill="#000000" />
</svg>