<svg width="24px"  height="24px"  viewBox="0 0 25 25" fill="none" xmlns="http://www.w3.org/2000/svg">
<path fill-rule="evenodd" clip-rule="evenodd" d="M10.4515 3.01405C11.9814 2.6041 13.6097 2.77393 14.9798 3.50123C16.3547 4.2311 17.3596 5.47982 17.7528 6.94721C17.9027 7.5064 17.7484 8.03012 17.4664 8.4584C17.193 8.8736 16.7809 9.23413 16.3153 9.54445C15.3802 10.1676 14.0594 10.6996 12.604 11.0895C11.1487 11.4795 9.74116 11.6786 8.62203 11.6056C8.06465 11.5693 7.5286 11.4626 7.08512 11.2391C6.62747 11.0084 6.23385 10.6317 6.08435 10.0738C5.6901 8.60243 5.94991 7.01606 6.77343 5.70011C7.59629 4.38521 8.92152 3.424 10.4515 3.01405ZM14.2764 4.82612C13.2542 4.28344 12.0174 4.14739 10.8397 4.46294C9.66204 4.77849 8.65894 5.51473 8.04497 6.49583C7.43166 7.47588 7.25184 8.63536 7.53324 9.68554C7.54486 9.7289 7.57882 9.80816 7.76019 9.89956C7.95572 9.99811 8.27012 10.0795 8.71962 10.1088C9.61424 10.1671 10.8462 10.0076 12.2158 9.64065C13.5853 9.27368 14.7349 8.79508 15.4834 8.29624C15.8596 8.04557 16.0926 7.81725 16.2136 7.63351C16.3259 7.46286 16.3152 7.37757 16.3039 7.33543C16.0215 6.2813 15.2939 5.36622 14.2764 4.82612Z" fill="#000000" />
<path fill-rule="evenodd" clip-rule="evenodd" d="M15.6524 5.71427C15.6673 5.30033 16.0149 4.97682 16.4289 4.9917C17.9726 5.04721 19.3755 5.34227 20.478 5.88551C21.5814 6.42916 22.4474 7.25772 22.7516 8.3929C23.216 10.1263 22.2117 11.8695 20.669 13.2464C19.0906 14.6551 16.7674 15.8634 14.0806 16.5833C11.3939 17.3032 8.77775 17.4184 6.70654 16.9876C4.68199 16.5666 2.94066 15.5591 2.4762 13.8257C2.17222 12.6912 2.50903 11.5389 3.19315 10.5148C3.87712 9.49092 4.94554 8.53104 6.25666 7.70975C6.6077 7.48987 7.07052 7.59618 7.2904 7.94721C7.51029 8.29824 7.40397 8.76106 7.05294 8.98095C5.86228 9.72678 4.97329 10.5504 4.44045 11.348C3.90776 12.1454 3.76839 12.8526 3.92509 13.4374C4.16517 14.3335 5.16873 15.1357 7.01196 15.5191C8.80853 15.8927 11.1831 15.8068 13.6924 15.1344C16.2018 14.462 18.3011 13.3492 19.6702 12.1273C21.0748 10.8737 21.5428 9.67715 21.3027 8.78113C21.1456 8.1948 20.6723 7.65343 19.815 7.23105C18.957 6.80826 17.7778 6.54118 16.375 6.49074C15.961 6.47585 15.6375 6.12822 15.6524 5.71427Z" fill="#000000" />
<path fill-rule="evenodd" clip-rule="evenodd" d="M18.0686 15.9011C18.3933 15.6439 18.865 15.6987 19.1222 16.0234L20.2273 17.419C20.4844 17.7437 20.4296 18.2154 20.1049 18.4726C19.7801 18.7297 19.3084 18.6749 19.0513 18.3502L17.9462 16.9546C17.6891 16.6299 17.7439 16.1582 18.0686 15.9011Z" fill="#000000" />
<path fill-rule="evenodd" clip-rule="evenodd" d="M9.96599 17.9622C10.3758 18.0225 10.6591 18.4036 10.5988 18.8134L10.3163 20.7321C10.256 21.1419 9.87489 21.4252 9.46509 21.3649C9.05529 21.3046 8.77199 20.9235 8.83231 20.5137L9.11476 18.595C9.17508 18.1852 9.55619 17.9019 9.96599 17.9622Z" fill="#000000" />
<path fill-rule="evenodd" clip-rule="evenodd" d="M12.9699 12.4369C13.37 12.3297 13.7812 12.5671 13.8884 12.9672L13.891 12.9769C13.9982 13.377 13.7608 13.7882 13.3607 13.8954C12.9606 14.0026 12.5494 13.7652 12.4421 13.3651L12.4396 13.3554C12.3324 12.9553 12.5698 12.5441 12.9699 12.4369Z" fill="#000000" />
<path fill-rule="evenodd" clip-rule="evenodd" d="M17.6105 9.79723C18.0106 9.69002 18.4219 9.92746 18.5291 10.3276L18.5317 10.3372C18.6389 10.7373 18.4014 11.1486 18.0013 11.2558C17.6012 11.363 17.19 11.1255 17.0828 10.7254L17.0802 10.7158C16.973 10.3157 17.2104 9.90443 17.6105 9.79723Z" fill="#000000" />
<path fill-rule="evenodd" clip-rule="evenodd" d="M7.63005 12.4708C8.03015 12.3636 8.4414 12.601 8.54861 13.0011L8.55119 13.0108C8.6584 13.4109 8.42096 13.8222 8.02086 13.9294C7.62076 14.0366 7.20951 13.7991 7.1023 13.399L7.09972 13.3894C6.99251 12.9893 7.22995 12.578 7.63005 12.4708Z" fill="#000000" />
</svg>