<svg width="24px"  height="24px"  viewBox="0 0 25 25" fill="none" xmlns="http://www.w3.org/2000/svg">
<path fill-rule="evenodd" clip-rule="evenodd" d="M8.46636 4.42319C9.57655 3.38931 11.0716 2.81689 12.6202 2.81689C14.1689 2.81689 15.6639 3.38931 16.7741 4.4232C17.8883 5.46082 18.5218 6.89515 18.5218 8.38145C18.5218 8.95253 18.2409 9.41153 17.8644 9.74624C17.4997 10.0705 17.0181 10.3071 16.5 10.4822C15.4597 10.834 14.0795 11.0017 12.6096 11.0017C11.1397 11.0017 9.7619 10.834 8.72384 10.482C8.20689 10.3067 7.72645 10.07 7.36264 9.7453C6.987 9.41007 6.70801 8.95126 6.70801 8.38145C6.70801 6.89105 7.35526 5.45793 8.46636 4.42319ZM12.6202 4.31689C11.4363 4.31689 10.3107 4.75538 9.48863 5.52091C8.66751 6.28559 8.20801 7.32707 8.20801 8.38145C8.20801 8.4185 8.21658 8.49691 8.3614 8.62615C8.51805 8.76594 8.79094 8.92089 9.20551 9.06146C10.0305 9.34119 11.2285 9.50173 12.6096 9.50173C13.9907 9.50173 15.1916 9.3412 16.0196 9.06125C16.4357 8.92055 16.7101 8.76538 16.8678 8.6252C17.0138 8.49544 17.0218 8.41723 17.0218 8.38145C17.0218 7.32298 16.5698 6.2827 15.7518 5.52091C14.9298 4.75538 13.8041 4.31689 12.6202 4.31689Z" fill="#000000" />
<path fill-rule="evenodd" clip-rule="evenodd" d="M8.41746 6.67784C8.539 7.07382 8.31652 7.49335 7.92054 7.61489C6.61293 8.01624 5.57068 8.56637 4.87027 9.18074C4.17008 9.79493 3.86426 10.4209 3.86426 11.004C3.86426 11.8973 4.5985 12.9011 6.23531 13.726C7.82956 14.5295 10.0841 15.0473 12.6143 15.0473C15.1444 15.0473 17.399 14.5295 18.9932 13.726C20.63 12.9011 21.3643 11.8973 21.3643 11.004C21.3643 10.4194 21.059 9.79498 20.361 9.18324C19.6623 8.57091 18.622 8.02298 17.3155 7.62206C16.9195 7.50055 16.697 7.08103 16.8185 6.68504C16.94 6.28905 17.3595 6.06655 17.7555 6.18806C19.1969 6.63035 20.4459 7.26318 21.3496 8.05514C22.254 8.84771 22.8643 9.85116 22.8643 11.004C22.8643 12.7642 21.4705 14.1572 19.6683 15.0655C17.8236 15.9953 15.3281 16.5473 12.6143 16.5473C9.90043 16.5473 7.40495 15.9953 5.5602 15.0655C3.75802 14.1572 2.36426 12.7642 2.36426 11.004C2.36426 9.85187 2.97599 8.84705 3.88113 8.05309C4.78606 7.25931 6.03691 6.62397 7.4804 6.18092C7.87639 6.05938 8.29592 6.28186 8.41746 6.67784Z" fill="#000000" />
<path fill-rule="evenodd" clip-rule="evenodd" d="M17.6592 20.0464C17.245 20.0464 16.9092 19.7106 16.9092 19.2964V17.9912C16.9092 17.577 17.245 17.2412 17.6592 17.2412C18.0734 17.2412 18.4092 17.577 18.4092 17.9912V19.2964C18.4092 19.7106 18.0734 20.0464 17.6592 20.0464Z" fill="#000000" />
<path fill-rule="evenodd" clip-rule="evenodd" d="M7.57031 20.0464C7.98453 20.0464 8.32031 19.7106 8.32031 19.2964V17.9912C8.32031 17.577 7.98453 17.2412 7.57031 17.2412C7.1561 17.2412 6.82031 17.577 6.82031 17.9912V19.2964C6.82031 19.7106 7.1561 20.0464 7.57031 20.0464Z" fill="#000000" />
<path fill-rule="evenodd" clip-rule="evenodd" d="M12.6152 21.3516C12.201 21.3516 11.8652 21.0158 11.8652 20.6016L11.8652 17.9912C11.8652 17.577 12.201 17.2412 12.6152 17.2412C13.0294 17.2412 13.3652 17.577 13.3652 17.9912L13.3652 20.6016C13.3652 21.0158 13.0294 21.3516 12.6152 21.3516Z" fill="#000000" />
</svg>