<svg width="24px"  height="24px"  viewBox="0 0 25 25" fill="none" xmlns="http://www.w3.org/2000/svg">
<path fill-rule="evenodd" clip-rule="evenodd" d="M8.46636 5.14609C9.57655 4.11221 11.0716 3.53979 12.6202 3.53979C14.1689 3.53979 15.6639 4.11221 16.7741 5.1461C17.8883 6.18372 18.5218 7.61805 18.5218 9.10435C18.5218 9.67543 18.2409 10.1344 17.8644 10.4691C17.4997 10.7934 17.0181 11.03 16.5 11.2051C15.4597 11.5569 14.0795 11.7246 12.6096 11.7246C11.1397 11.7246 9.7619 11.5569 8.72384 11.2049C8.20689 11.0296 7.72645 10.7929 7.36264 10.4682C6.987 10.133 6.70801 9.67416 6.70801 9.10435C6.70801 7.61395 7.35526 6.18083 8.46636 5.14609ZM12.6202 5.03979C11.4363 5.03979 10.3107 5.47828 9.48863 6.24381C8.66751 7.00849 8.20801 8.04997 8.20801 9.10435C8.20801 9.1414 8.21658 9.21981 8.3614 9.34905C8.51805 9.48884 8.79094 9.64379 9.20551 9.78436C10.0305 10.0641 11.2285 10.2246 12.6096 10.2246C13.9907 10.2246 15.1916 10.0641 16.0196 9.78415C16.4357 9.64345 16.7101 9.48828 16.8678 9.3481C17.0138 9.21834 17.0218 9.14013 17.0218 9.10435C17.0218 8.04588 16.5698 7.00561 15.7518 6.24381C14.9298 5.47828 13.8041 5.03979 12.6202 5.03979Z" fill="#000000" />
<path fill-rule="evenodd" clip-rule="evenodd" d="M8.41746 7.40098C8.539 7.79696 8.31652 8.2165 7.92054 8.33804C6.61293 8.73938 5.57068 9.28951 4.87027 9.90389C4.17008 10.5181 3.86426 11.1441 3.86426 11.7271C3.86426 12.6205 4.5985 13.6242 6.23531 14.4492C7.82956 15.2527 10.0841 15.7705 12.6143 15.7705C15.1444 15.7705 17.399 15.2527 18.9932 14.4492C20.63 13.6242 21.3643 12.6205 21.3643 11.7271C21.3643 11.1425 21.059 10.5181 20.361 9.90639C19.6623 9.29405 18.622 8.74613 17.3155 8.34521C16.9195 8.22369 16.697 7.80417 16.8185 7.40819C16.94 7.0122 17.3595 6.78969 17.7555 6.9112C19.1969 7.35349 20.4459 7.98632 21.3496 8.77829C22.254 9.57085 22.8643 10.5743 22.8643 11.7271C22.8643 13.4874 21.4705 14.8803 19.6683 15.7886C17.8236 16.7184 15.3281 17.2705 12.6143 17.2705C9.90043 17.2705 7.40495 16.7184 5.5602 15.7886C3.75802 14.8803 2.36426 13.4874 2.36426 11.7271C2.36426 10.575 2.97599 9.57019 3.88113 8.77623C4.78606 7.98246 6.03691 7.34712 7.4804 6.90406C7.87639 6.78252 8.29592 7.005 8.41746 7.40098Z" fill="#000000" />
<path fill-rule="evenodd" clip-rule="evenodd" d="M16.4102 15.6777C15.9959 15.6777 15.6602 16.0135 15.6602 16.4277V19.1344C15.6602 19.5486 15.9959 19.8844 16.4102 19.8844C16.8244 19.8844 17.1602 19.5486 17.1602 19.1344V16.4277C17.1602 16.0135 16.8244 15.6777 16.4102 15.6777Z" fill="#000000" />
<path fill-rule="evenodd" clip-rule="evenodd" d="M8.81836 15.6777C9.23257 15.6777 9.56836 16.0135 9.56836 16.4277V19.1344C9.56836 19.5486 9.23257 19.8844 8.81836 19.8844C8.40415 19.8844 8.06836 19.5486 8.06836 19.1344V16.4277C8.06836 16.0135 8.40415 15.6777 8.81836 15.6777Z" fill="#000000" />
<path fill-rule="evenodd" clip-rule="evenodd" d="M12.6143 18.2927C13.0285 18.2927 13.3643 18.6285 13.3643 19.0427V20.8471C13.3643 21.2614 13.0285 21.5971 12.6143 21.5971C12.2 21.5971 11.8643 21.2614 11.8643 20.8471V19.0427C11.8643 18.6285 12.2 18.2927 12.6143 18.2927Z" fill="#000000" />
<path fill-rule="evenodd" clip-rule="evenodd" d="M20.2051 17.031C20.6193 17.031 20.9551 17.3668 20.9551 17.781L20.9551 20.8471C20.9551 21.2613 20.6193 21.5971 20.2051 21.5971C19.7909 21.5971 19.4551 21.2613 19.4551 20.8471L19.4551 17.781C19.4551 17.3668 19.7909 17.031 20.2051 17.031Z" fill="#000000" />
<path fill-rule="evenodd" clip-rule="evenodd" d="M5.02344 17.031C5.43765 17.031 5.77344 17.3668 5.77344 17.781L5.77344 20.8471C5.77344 21.2613 5.43765 21.5971 5.02344 21.5971C4.60922 21.5971 4.27344 21.2613 4.27344 20.8471L4.27344 17.781C4.27344 17.3668 4.60922 17.031 5.02344 17.031Z" fill="#000000" />
</svg>