<svg width="24px"  height="24px"  viewBox="0 0 25 25" fill="none" xmlns="http://www.w3.org/2000/svg">
<path fill-rule="evenodd" clip-rule="evenodd" d="M14.5872 3.67501C14.8227 3.05956 15.5334 2.71637 16.1808 3.00053C17.3951 3.53346 18.497 4.29574 19.4253 5.2471C20.4695 6.3173 21.2692 7.60129 21.769 9.0105C22.2689 10.4197 22.4571 11.9206 22.3207 13.4096C22.1995 14.7332 21.8242 16.0195 21.2172 17.1985C20.8935 17.8271 20.1255 18.0085 19.5548 17.679L13.3158 14.0769C12.9571 13.8698 12.8342 13.4111 13.0413 13.0524C13.2484 12.6937 13.7071 12.5708 14.0658 12.7779L20.0272 16.2197C20.462 15.293 20.7332 14.2959 20.827 13.2727C20.9436 11.9998 20.7827 10.7167 20.3553 9.51197C19.928 8.30724 19.2444 7.20956 18.3517 6.29465C17.6341 5.55926 16.7952 4.95601 15.8737 4.51037L13.4163 10.9327C13.2682 11.3196 12.8346 11.5132 12.4478 11.3652C12.0609 11.2172 11.8673 10.7835 12.0153 10.3967L14.5872 3.67501Z" fill="#000000" />
<path fill-rule="evenodd" clip-rule="evenodd" d="M12.0254 4.80518C7.79429 4.80518 4.36426 8.23521 4.36426 12.4664C4.36426 14.2924 5.00214 15.9673 6.06788 17.2836C6.31649 17.5906 6.47783 17.9847 6.4802 18.4146L6.4921 20.5765C6.49285 20.714 6.60456 20.8251 6.74209 20.8251H17.0734C17.2464 20.8251 17.3671 20.6536 17.3087 20.4907L16.8075 19.094C16.7027 18.8018 16.7887 18.4752 17.0239 18.2725C17.6516 17.7316 18.1905 17.0908 18.616 16.3751C18.8277 16.019 19.2879 15.902 19.644 16.1136C20 16.3253 20.1171 16.7855 19.9054 17.1416C19.486 17.847 18.9747 18.4912 18.3881 19.0576L18.7206 19.9841C19.1297 21.1242 18.2847 22.3251 17.0734 22.3251H6.74209C5.77935 22.3251 4.99742 21.5475 4.99212 20.5848L4.98022 18.4228C4.97992 18.3677 4.95868 18.2974 4.90211 18.2275C3.62801 16.6539 2.86426 14.6483 2.86426 12.4664C2.86426 7.40678 6.96586 3.30518 12.0254 3.30518C13.1761 3.30518 14.2789 3.51767 15.2955 3.90623C15.6824 4.05412 15.8762 4.48766 15.7283 4.87457C15.5804 5.26149 15.1469 5.45526 14.7599 5.30737C13.9116 4.98314 12.9902 4.80518 12.0254 4.80518Z" fill="#000000" />
<path fill-rule="evenodd" clip-rule="evenodd" d="M4.97852 18.0425C4.97852 17.6283 5.3143 17.2925 5.72852 17.2925H15.2816C15.6958 17.2925 16.0316 17.6283 16.0316 18.0425C16.0316 18.4567 15.6958 18.7925 15.2816 18.7925H5.72852C5.3143 18.7925 4.97852 18.4567 4.97852 18.0425Z" fill="#000000" />
<path d="M13.8734 12.4665C13.8734 13.4862 13.0468 14.3129 12.0271 14.3129C11.0073 14.3129 10.1807 13.4862 10.1807 12.4665C10.1807 11.4468 11.0073 10.6201 12.0271 10.6201C13.0468 10.6201 13.8734 11.4468 13.8734 12.4665Z" fill="#000000" />
<path fill-rule="evenodd" clip-rule="evenodd" d="M12.0271 11.3701C11.4215 11.3701 10.9307 11.861 10.9307 12.4665C10.9307 13.072 11.4215 13.5629 12.0271 13.5629C12.6326 13.5629 13.1234 13.072 13.1234 12.4665C13.1234 11.861 12.6326 11.3701 12.0271 11.3701ZM9.43066 12.4665C9.43066 11.0326 10.5931 9.87012 12.0271 9.87012C13.461 9.87012 14.6234 11.0326 14.6234 12.4665C14.6234 13.9005 13.461 15.0629 12.0271 15.0629C10.5931 15.0629 9.43066 13.9005 9.43066 12.4665Z" fill="#000000" />
</svg>