<svg width="24px"  height="24px"  viewBox="0 0 25 24" fill="none" xmlns="http://www.w3.org/2000/svg">
<path fill-rule="evenodd" clip-rule="evenodd" d="M12.6139 10.2681C11.6573 10.2681 10.8818 11.0435 10.8818 12.0001C10.8818 12.9567 11.6573 13.7322 12.6139 13.7322C13.5705 13.7322 14.346 12.9567 14.346 12.0001C14.346 11.0435 13.5705 10.2681 12.6139 10.2681ZM9.38184 12.0001C9.38184 10.2151 10.8289 8.76807 12.6139 8.76807C14.3989 8.76807 15.846 10.2151 15.846 12.0001C15.846 13.7852 14.3989 15.2322 12.6139 15.2322C10.8289 15.2322 9.38184 13.7852 9.38184 12.0001Z" fill="#000000" />
<path fill-rule="evenodd" clip-rule="evenodd" d="M17.6244 15.3861C17.9361 15.659 17.9676 16.1328 17.6947 16.4445C16.4586 17.8565 14.6403 18.7501 12.6143 18.7501C12.2 18.7501 11.8643 18.4143 11.8643 18.0001C11.8643 17.5859 12.2 17.2501 12.6143 17.2501C14.1899 17.2501 15.6027 16.5569 16.5661 15.4564C16.8389 15.1448 17.3128 15.1133 17.6244 15.3861Z" fill="#000000" />
<path fill-rule="evenodd" clip-rule="evenodd" d="M6.63693 5.22994C6.93588 5.51664 6.94581 5.99141 6.65911 6.29037C5.23701 7.77322 4.36426 9.78386 4.36426 11.9999C4.36426 12.4141 4.02847 12.7499 3.61426 12.7499C3.20004 12.7499 2.86426 12.4141 2.86426 11.9999C2.86426 9.38162 3.89732 7.00303 5.5765 5.25212C5.86321 4.95316 6.33798 4.94323 6.63693 5.22994Z" fill="#000000" />
<path fill-rule="evenodd" clip-rule="evenodd" d="M21.6145 11.25C22.0287 11.25 22.3645 11.5858 22.3645 12C22.3645 14.4579 21.454 16.705 19.953 18.4196C19.6802 18.7312 19.2063 18.7627 18.8947 18.4899C18.583 18.217 18.5515 17.7432 18.8244 17.4315C20.0951 15.9799 20.8645 14.0807 20.8645 12C20.8645 11.5858 21.2002 11.25 21.6145 11.25Z" fill="#000000" />
<path fill-rule="evenodd" clip-rule="evenodd" d="M11.8643 3C11.8643 2.58579 12.2 2.25 12.6143 2.25C15.2516 2.25 17.6456 3.29809 19.4 4.99885C19.6974 5.28716 19.7048 5.76197 19.4165 6.05938C19.1282 6.35679 18.6534 6.36416 18.356 6.07585C16.8701 4.63543 14.8463 3.75 12.6143 3.75C12.2 3.75 11.8643 3.41421 11.8643 3Z" fill="#000000" />
<path fill-rule="evenodd" clip-rule="evenodd" d="M5.59904 17.6875C5.89799 17.4008 6.37276 17.4107 6.65947 17.7096C8.16192 19.2763 10.2739 20.2501 12.6146 20.2501C13.0288 20.2501 13.3646 20.5859 13.3646 21.0001C13.3646 21.4143 13.0288 21.7501 12.6146 21.7501C9.84855 21.7501 7.35047 20.5973 5.57686 18.7479C5.29016 18.4489 5.30009 17.9742 5.59904 17.6875Z" fill="#000000" />
<path fill-rule="evenodd" clip-rule="evenodd" d="M16.2515 7.16962C16.5398 6.87221 17.0147 6.86484 17.3121 7.15315C18.5768 8.37914 19.3642 10.0983 19.3642 12.0001C19.3642 12.4143 19.0284 12.7501 18.6142 12.7501C18.2 12.7501 17.8642 12.4143 17.8642 12.0001C17.8642 10.5207 17.2533 9.18531 16.268 8.23015C15.9706 7.94184 15.9632 7.46703 16.2515 7.16962Z" fill="#000000" />
<path fill-rule="evenodd" clip-rule="evenodd" d="M12.6142 6.75C11.1246 6.75 9.78095 7.36938 8.82451 8.36668C8.5378 8.66563 8.06303 8.67556 7.76408 8.38886C7.46513 8.10215 7.4552 7.62738 7.7419 7.32843C8.9695 6.04839 10.6992 5.25 12.6142 5.25C13.0284 5.25 13.3642 5.58579 13.3642 6C13.3642 6.41421 13.0284 6.75 12.6142 6.75Z" fill="#000000" />
<path fill-rule="evenodd" clip-rule="evenodd" d="M6.61426 11.25C7.02847 11.25 7.36426 11.5858 7.36426 12C7.36426 13.4103 7.91937 14.6894 8.82459 15.6333C9.1113 15.9323 9.10137 16.407 8.80241 16.6937C8.50346 16.9805 8.02869 16.9705 7.74199 16.6716C6.57968 15.4596 5.86426 13.8126 5.86426 12C5.86426 11.5858 6.20004 11.25 6.61426 11.25Z" fill="#000000" />
</svg>