<svg width="24px"  height="24px"  viewBox="0 0 25 24" fill="none" xmlns="http://www.w3.org/2000/svg">
<path fill-rule="evenodd" clip-rule="evenodd" d="M12.3672 21.1871C12.0743 20.8942 12.0742 20.4194 12.367 20.1264L15.5633 16.9288C15.8561 16.6359 16.331 16.6358 16.624 16.9286C16.9169 17.2214 16.917 17.6963 16.6242 17.9893L13.4279 21.1868C13.1351 21.4798 12.6602 21.4799 12.3672 21.1871Z" fill="#000000" />
<path fill-rule="evenodd" clip-rule="evenodd" d="M4.42781 20.2811C4.13484 19.9883 4.13472 19.5134 4.42754 19.2204L6.99047 16.6562C7.28329 16.3632 7.75816 16.3631 8.05113 16.6559C8.3441 16.9488 8.34422 17.4236 8.0514 17.7166L5.48847 20.2808C5.19565 20.5738 4.72078 20.5739 4.42781 20.2811Z" fill="#000000" />
<path fill-rule="evenodd" clip-rule="evenodd" d="M3.33403 12.5269C3.04108 12.2341 3.04099 11.7592 3.33383 11.4662L6.71818 8.0806C7.01101 7.78765 7.48589 7.78756 7.77884 8.0804C8.07179 8.37323 8.07188 8.84811 7.77904 9.14106L4.39469 12.5267C4.10185 12.8196 3.62698 12.8197 3.33403 12.5269Z" fill="#000000" />
<path fill-rule="evenodd" clip-rule="evenodd" d="M10.2988 2.81295C10.5324 2.57934 10.8914 2.52611 11.1827 2.68186C14.2526 4.32303 17.9316 4.32899 20.9935 2.70002C21.2846 2.54511 21.6429 2.5986 21.8761 2.83182C22.1093 3.06504 22.1628 3.42324 22.0079 3.71442C20.3789 6.77624 20.3849 10.4552 22.026 13.5252C22.1818 13.8165 22.1285 14.1755 21.8949 14.4091C21.6613 14.6427 21.3024 14.6959 21.011 14.5402C17.9411 12.899 14.2621 12.8931 11.2003 14.522C10.9091 14.6769 10.5509 14.6234 10.3177 14.3902C10.0844 14.157 10.031 13.7988 10.1859 13.5076C11.8148 10.4458 11.8089 6.76681 10.1677 3.69687C10.0119 3.40552 10.0652 3.04656 10.2988 2.81295ZM12.2682 4.78239C13.1107 7.26207 13.115 9.95127 12.2794 12.4285C14.7566 11.5929 17.4458 11.5971 19.9255 12.4397C19.083 9.95998 19.0788 7.27078 19.9144 4.79352C17.4371 5.62911 14.7479 5.62491 12.2682 4.78239Z" fill="#000000" />
</svg>