<svg width="24px"  height="24px"  viewBox="0 0 25 24" fill="none" xmlns="http://www.w3.org/2000/svg">
<path fill-rule="evenodd" clip-rule="evenodd" d="M12.4527 3.59766L11.073 6.35111L11.0718 6.3535C10.8237 6.84423 10.3511 7.18226 9.80743 7.2591C9.8069 7.25917 9.80636 7.25925 9.80583 7.25932L6.71108 7.70499C6.67324 7.71001 6.63879 7.72758 6.61346 7.75372C6.55087 7.81896 6.55244 7.92268 6.6178 7.98616C6.61794 7.9863 6.61766 7.98603 6.6178 7.98616L8.85185 10.1304C8.85209 10.1307 8.85162 10.1302 8.85185 10.1304C9.25089 10.512 9.43521 11.0683 9.34003 11.6136C9.34002 11.6136 9.34004 11.6135 9.34003 11.6136L8.81235 14.6386C8.80712 14.674 8.81294 14.7117 8.83132 14.747C8.87767 14.8331 8.9845 14.8654 9.07046 14.8197L9.077 14.8163L11.8382 13.3852C12.3261 13.1331 12.9061 13.1327 13.3939 13.3847L16.1604 14.8187C16.1948 14.8369 16.2339 14.8435 16.2723 14.8376C16.3688 14.8216 16.4334 14.732 16.4197 14.637L15.8925 11.6152C15.8924 11.6149 15.8924 11.6146 15.8923 11.6142C15.7961 11.0679 15.9798 10.5119 16.38 10.1301C16.3804 10.1296 16.3808 10.1292 16.3813 10.1288L18.6118 7.98576C18.6119 7.98568 18.6117 7.98584 18.6118 7.98576C18.638 7.96035 18.6558 7.92572 18.6608 7.88893C18.6725 7.79761 18.6081 7.7159 18.5197 7.7043L18.5104 7.70308L15.4241 7.25857C15.4236 7.25849 15.4231 7.25842 15.4225 7.25834C14.8791 7.18154 14.4057 6.84351 14.1582 6.35126L12.7801 3.59734C12.7621 3.56388 12.7353 3.53803 12.7038 3.5218L12.7023 3.52107C12.6114 3.47398 12.5007 3.50873 12.4527 3.59766ZM13.3917 2.18884C12.5652 1.76116 11.5479 2.08324 11.1194 2.9104L9.73313 5.67673C9.73326 5.67649 9.73301 5.67698 9.73313 5.67673C9.70646 5.7289 9.6554 5.76573 9.59735 5.77388L6.50927 6.21858C6.13824 6.26883 5.79402 6.4426 5.53351 6.7127C4.89557 7.37539 4.9161 8.42877 5.57681 9.06613L5.57817 9.06744L7.81447 11.2139L7.81578 11.2151C7.85427 11.2519 7.87128 11.3046 7.86237 11.3556L7.33365 14.3866L7.33225 14.3949C7.27324 14.7572 7.33543 15.1261 7.50504 15.4477L7.50601 15.4495C7.9396 16.2661 8.9522 16.5782 9.77008 16.1466L12.5276 14.7174C12.5275 14.7174 12.5277 14.7173 12.5276 14.7174C12.5834 14.6886 12.6492 14.6885 12.705 14.7172C12.7049 14.7171 12.7051 14.7172 12.705 14.7172L15.4617 16.146C15.7826 16.3151 16.1498 16.3759 16.5087 16.3188L16.5102 16.3186C17.4244 16.1712 18.0478 15.3112 17.9002 14.3954L17.3699 11.3558L17.3696 11.3541C17.3606 11.3032 17.3773 11.2516 17.4155 11.2153L19.6521 9.06642L19.6531 9.06543C19.9242 8.804 20.0984 8.45808 20.1478 8.08586L20.148 8.08468C20.2671 7.17654 19.6304 6.34015 18.7203 6.21777L15.6353 5.7735L15.6326 5.77313C15.5741 5.76492 15.5242 5.72863 15.4985 5.67772C15.4985 5.67781 15.4984 5.67764 15.4985 5.67772L14.1184 2.91978L14.1137 2.91068C13.9536 2.60135 13.7018 2.3489 13.3917 2.18884Z" fill="#000000" />
<path fill-rule="evenodd" clip-rule="evenodd" d="M14.0291 14.0221C14.4277 13.9095 14.8421 14.1414 14.9547 14.54L16.6398 20.5073C16.938 21.5634 15.7488 22.4118 14.8472 21.7862L12.627 20.2456L10.4076 21.789C9.5086 22.4141 8.32027 21.5718 8.61252 20.5164L10.2666 14.5437C10.3771 14.1445 10.7904 13.9105 11.1895 14.021C11.5887 14.1316 11.8227 14.5448 11.7122 14.944L10.3022 20.0352L11.959 18.8831C12.3601 18.6042 12.8922 18.6039 13.2936 18.8824L12.8661 19.4986L13.2936 18.8824L14.9461 20.029L13.5111 14.9477C13.3986 14.549 13.6305 14.1346 14.0291 14.0221Z" fill="#000000" />
</svg>