<svg width="24px"  height="24px"  viewBox="0 0 25 24" fill="none" xmlns="http://www.w3.org/2000/svg">
<path fill-rule="evenodd" clip-rule="evenodd" d="M15.7003 5.10693C16.0301 5.10693 16.3212 5.3224 16.4175 5.63783C17.2434 8.34139 19.3673 10.4586 22.083 11.2822C22.3992 11.3781 22.6154 11.6696 22.6154 12C22.6154 12.3303 22.3992 12.6218 22.083 12.7177C19.3673 13.5413 17.2434 15.6585 16.4175 18.3621C16.3212 18.6775 16.0301 18.893 15.7003 18.893C15.3704 18.893 15.0793 18.6775 14.983 18.3621C14.1571 15.6585 12.0332 13.5413 9.31749 12.7177C9.00133 12.6218 8.78516 12.3303 8.78516 12C8.78516 11.6696 9.00133 11.3781 9.31749 11.2822C12.0332 10.4586 14.1571 8.34139 14.983 5.63783C15.0793 5.3224 15.3704 5.10693 15.7003 5.10693ZM11.5046 12C13.2941 12.9394 14.7583 14.3991 15.7003 16.1838C16.6422 14.3991 18.1064 12.9394 19.8959 12C18.1064 11.0605 16.6422 9.6008 15.7003 7.81609C14.7583 9.6008 13.2941 11.0605 11.5046 12Z" fill="#000000" />
<path fill-rule="evenodd" clip-rule="evenodd" d="M8.86006 17.7517C7.90286 17.6785 6.87353 17.8994 5.876 18.2837C5.48947 18.4326 5.05542 18.2399 4.90653 17.8534C4.75764 17.4669 4.95028 17.0328 5.33681 16.8839C6.4596 16.4514 7.72088 16.1602 8.9745 16.2561C9.38751 16.2877 9.6967 16.6481 9.66509 17.0612C9.63349 17.4742 9.27306 17.7833 8.86006 17.7517Z" fill="#000000" />
<path fill-rule="evenodd" clip-rule="evenodd" d="M6.56512 12.6268C6.63475 13.0351 6.3602 13.4226 5.95188 13.4922C5.18188 13.6235 4.40582 13.8889 3.67551 14.2211C3.29846 14.3926 2.85379 14.2259 2.6823 13.8489C2.5108 13.4719 2.67744 13.0272 3.05448 12.8557C3.86911 12.4852 4.77082 12.172 5.69971 12.0136C6.10803 11.9439 6.49549 12.2185 6.56512 12.6268Z" fill="#000000" />
<path fill-rule="evenodd" clip-rule="evenodd" d="M11.9194 6.73137C11.908 7.14542 11.563 7.47182 11.149 7.46039C9.03068 7.40193 6.98213 8.02857 5.22578 9.09155C4.87141 9.30602 4.41028 9.19262 4.19581 8.83825C3.98134 8.48388 4.09475 8.02275 4.44911 7.80828C6.41923 6.61592 8.7485 5.89357 11.1904 5.96096C11.6044 5.97239 11.9308 6.31731 11.9194 6.73137Z" fill="#000000" />
</svg>