<svg width="24px"  height="24px"  viewBox="0 0 25 25" fill="none" xmlns="http://www.w3.org/2000/svg">
<path fill-rule="evenodd" clip-rule="evenodd" d="M19.0638 12.3044C19.4772 12.3293 19.7922 12.6848 19.7672 13.0982C19.516 17.2576 16.0641 20.5527 11.842 20.5527C10.77 20.5527 9.74583 20.3399 8.81087 19.9534C8.42807 19.7952 8.24601 19.3566 8.40424 18.9738C8.56247 18.591 9.00106 18.4089 9.38386 18.5672C10.1403 18.8798 10.97 19.0527 11.842 19.0527C15.266 19.0527 18.0663 16.3801 18.2699 13.0078C18.2949 12.5943 18.6503 12.2794 19.0638 12.3044Z" fill="#000000" />
<path fill-rule="evenodd" clip-rule="evenodd" d="M11.8422 6.17285C8.28556 6.17285 5.40234 9.05607 5.40234 12.6127C5.40234 13.4126 5.54785 14.1769 5.81318 14.8816C5.95914 15.2692 5.76322 15.7018 5.37558 15.8477C4.98793 15.9937 4.55536 15.7978 4.4094 15.4101C4.08142 14.5391 3.90234 13.5959 3.90234 12.6127C3.90234 8.22764 7.45713 4.67285 11.8422 4.67285C13.125 4.67285 14.3388 4.97765 15.4131 5.51944C15.783 5.70596 15.9316 6.15698 15.7451 6.52683C15.5585 6.89667 15.1075 7.04528 14.7377 6.85876C13.8681 6.4202 12.8851 6.17285 11.8422 6.17285Z" fill="#000000" />
<path fill-rule="evenodd" clip-rule="evenodd" d="M9.26412 14.2003C8.83422 13.6322 8.13942 13.1782 7.16495 13.1782C6.1905 13.1782 5.49564 13.6322 5.06566 14.2002C4.82806 14.5141 4.66908 14.8641 4.57794 15.1965C4.20413 15.2953 3.8567 15.48 3.56982 15.7537C3.11562 16.1871 2.86408 16.7959 2.86408 17.4941C2.86408 18.4598 3.43755 19.2946 4.26492 19.6685C4.2748 19.673 4.28478 19.6772 4.29485 19.6813C4.63095 19.8159 4.96468 19.8671 5.23404 19.8671H9.09816C9.37162 19.8671 9.70532 19.8125 10.0366 19.6781C10.0456 19.6744 10.0546 19.6706 10.0634 19.6666C10.8887 19.2936 11.4658 18.462 11.4658 17.4941C11.4658 16.7958 11.2141 16.187 10.7598 15.7536C10.4729 15.4799 10.1254 15.2953 9.75162 15.1965C9.66053 14.8642 9.50164 14.5142 9.26412 14.2003ZM8.06799 15.1055C8.27056 15.3731 8.34701 15.6961 8.34701 15.8607C8.34701 16.2722 8.67869 16.6069 9.09025 16.6106C9.37264 16.6132 9.58668 16.7076 9.72443 16.839C9.85574 16.9643 9.96582 17.1681 9.96582 17.4941C9.96582 17.8462 9.7596 18.1518 9.45872 18.2937C9.31814 18.3485 9.18277 18.3671 9.09816 18.3671H5.23404C5.14578 18.3671 5.00953 18.349 4.8682 18.2949C4.57012 18.1536 4.36408 17.8478 4.36408 17.4941C4.36408 17.168 4.47415 16.9641 4.60537 16.8389C4.743 16.7076 4.95689 16.6132 5.23926 16.6106C5.65082 16.6069 5.98251 16.2722 5.98251 15.8607C5.98251 15.6962 6.05898 15.3733 6.26164 15.1056C6.44117 14.8684 6.71252 14.6782 7.16495 14.6782C7.61735 14.6782 7.88858 14.8684 8.06799 15.1055Z" fill="#000000" />
<path fill-rule="evenodd" clip-rule="evenodd" d="M19.3632 6.25393C18.8144 5.52883 17.9313 4.94922 16.6786 4.94922C15.4259 4.94922 14.5426 5.5288 13.9938 6.25384C13.6463 6.71284 13.43 7.23182 13.3232 7.70573C12.7838 7.81816 12.2847 8.06517 11.8833 8.44827C11.3149 8.99062 10.9929 9.75788 10.9929 10.6557C10.9929 11.8799 11.7196 12.9379 12.768 13.4116C12.7779 13.4161 12.7878 13.4204 12.7979 13.4244C13.2282 13.5968 13.6549 13.6617 13.9946 13.6617H19.3657C19.7095 13.6617 20.1359 13.5926 20.5602 13.4205C20.5692 13.4168 20.5781 13.413 20.587 13.409C21.6333 12.9362 22.3643 11.8821 22.3643 10.6557C22.3643 9.75775 22.042 8.99049 21.4735 8.44818C21.072 8.06514 20.5729 7.81815 20.0335 7.70573C19.9267 7.23188 19.7105 6.71294 19.3632 6.25393ZM18.167 7.15907C18.4884 7.58376 18.6141 8.0951 18.6141 8.3853C18.6141 8.79688 18.9458 9.13157 19.3574 9.13527C19.8143 9.13939 20.1862 9.2932 20.4381 9.53354C20.6836 9.76773 20.8643 10.1301 20.8643 10.6557C20.8643 11.2662 20.5042 11.7942 19.9824 12.0361C19.7487 12.1286 19.5204 12.1617 19.3657 12.1617H13.9946C13.8362 12.1617 13.6067 12.1299 13.3711 12.038C12.8521 11.7968 12.4929 11.2678 12.4929 10.6557C12.4929 10.13 12.6735 9.7676 12.9188 9.53345C13.1706 9.29318 13.5423 9.13939 13.9992 9.13527C14.4108 9.13157 14.7425 8.79688 14.7425 8.3853C14.7425 8.09522 14.8682 7.5839 15.1898 7.15916C15.4881 6.765 15.9479 6.44922 16.6786 6.44922C17.4092 6.44922 17.8688 6.76497 18.167 7.15907Z" fill="#000000" />
</svg>