<svg width="24px"  height="24px"  viewBox="0 0 25 24" fill="none" xmlns="http://www.w3.org/2000/svg">
<path fill-rule="evenodd" clip-rule="evenodd" d="M17.0238 4.52922L17.9286 6.33735L17.9292 6.33862C18.1374 6.75266 18.5354 7.0368 18.9922 7.10144C18.9927 7.10151 18.9932 7.10159 18.9937 7.10166L20.9991 7.39045L19.5568 8.7762C19.5563 8.77666 19.5558 8.77712 19.5553 8.77758C19.2184 9.09918 19.0637 9.56763 19.1447 10.0278C19.1447 10.0282 19.1448 10.0285 19.1449 10.0288L19.4887 11.9993L17.6775 11.0605C17.2679 10.8488 16.7806 10.8484 16.371 11.06L14.5585 11.9995L14.9025 10.0274C14.9025 10.0274 14.9025 10.0273 14.9025 10.0274C14.9827 9.56801 14.828 9.09986 14.4921 8.77846C14.4918 8.77818 14.4915 8.7779 14.4913 8.77762L13.0465 7.39096L15.0533 7.10198C15.5103 7.03731 15.9075 6.75317 16.1161 6.34064L17.0238 4.52922ZM17.6751 3.08514C16.9808 2.72581 16.126 2.99639 15.7658 3.69148L14.7977 5.62331L12.6437 5.93351C12.3318 5.97596 12.0424 6.12212 11.8232 6.34937C11.2861 6.90734 11.3034 7.79429 11.8596 8.33083L11.8609 8.33213L13.4153 9.82403L13.0482 11.9283L13.0468 11.9366C12.9972 12.2416 13.0496 12.5518 13.192 12.8219L13.193 12.8237C13.5575 13.5101 14.4085 13.7727 15.0963 13.4102L17.0238 12.4112L18.9506 13.4099C19.2202 13.5518 19.5287 13.6028 19.8302 13.5548L19.8317 13.5546C20.6003 13.4307 21.1246 12.7075 21.0005 11.9373L20.6317 9.82354L22.1848 8.33133L22.1859 8.33034C22.4141 8.11019 22.5607 7.81903 22.6023 7.50569L22.6025 7.50451C22.7028 6.74049 22.1673 6.03648 21.4014 5.93291L19.2483 5.62286L18.2866 3.70086L18.2819 3.69176C18.1475 3.43201 17.936 3.21977 17.6751 3.08514Z" fill="#000000" />
<path fill-rule="evenodd" clip-rule="evenodd" d="M14.4398 18.3071C14.0901 18.3071 13.8066 18.5906 13.8066 18.9403C13.8066 19.29 14.0901 19.5735 14.4398 19.5735C14.7895 19.5735 15.073 19.29 15.073 18.9403C15.073 18.5906 14.7895 18.3071 14.4398 18.3071ZM12.3066 18.9403C12.3066 17.7622 13.2617 16.8071 14.4398 16.8071C15.618 16.8071 16.573 17.7622 16.573 18.9403C16.573 20.1185 15.618 21.0735 14.4398 21.0735C13.2617 21.0735 12.3066 20.1185 12.3066 18.9403Z" fill="#000000" />
<path fill-rule="evenodd" clip-rule="evenodd" d="M4.96621 5.125C4.6165 5.125 4.33301 5.40849 4.33301 5.7582C4.33301 6.10791 4.6165 6.3914 4.96621 6.3914C5.31591 6.3914 5.59941 6.10791 5.59941 5.7582C5.59941 5.40849 5.31591 5.125 4.96621 5.125ZM2.83301 5.7582C2.83301 4.58007 3.78807 3.625 4.96621 3.625C6.14434 3.625 7.09941 4.58007 7.09941 5.7582C7.09941 6.93633 6.14434 7.8914 4.96621 7.8914C3.78807 7.8914 2.83301 6.93633 2.83301 5.7582Z" fill="#000000" />
<path fill-rule="evenodd" clip-rule="evenodd" d="M10.025 9.56064C10.187 9.94186 10.0093 10.3822 9.62804 10.5442C4.57365 12.692 3.90326 17.0237 4.15986 18.8346C4.21797 19.2447 3.93262 19.6243 3.5225 19.6824C3.11238 19.7405 2.73281 19.4552 2.6747 19.045C2.3458 16.7239 3.2227 11.6363 9.04141 9.16369C9.42263 9.00169 9.86299 9.17941 10.025 9.56064Z" fill="#000000" />
<path fill-rule="evenodd" clip-rule="evenodd" d="M11.4097 12.1639C11.5717 12.5451 11.394 12.9855 11.0128 13.1475C8.30768 14.297 7.97162 16.5935 8.10171 17.5116C8.15982 17.9217 7.87446 18.3013 7.46435 18.3594C7.05423 18.4175 6.67465 18.1321 6.61654 17.722C6.41415 16.2936 6.95674 13.2412 10.4261 11.767C10.8073 11.605 11.2477 11.7827 11.4097 12.1639Z" fill="#000000" />
</svg>