<svg width="24px"  height="24px"  viewBox="0 0 25 24" fill="none" xmlns="http://www.w3.org/2000/svg">
<path fill-rule="evenodd" clip-rule="evenodd" d="M3.13379 11.9697C3.13379 11.5555 3.46958 11.2197 3.88379 11.2197H5.18136C5.59557 11.2197 5.93136 11.5555 5.93136 11.9697C5.93136 12.3839 5.59557 12.7197 5.18136 12.7197H3.88379C3.46958 12.7197 3.13379 12.3839 3.13379 11.9697Z" fill="#000000" />
<path fill-rule="evenodd" clip-rule="evenodd" d="M3.13379 5.8418C3.13379 5.42758 3.46958 5.0918 3.88379 5.0918H8.99586C9.41008 5.0918 9.74586 5.42758 9.74586 5.8418C9.74586 6.25601 9.41008 6.5918 8.99586 6.5918H3.88379C3.46958 6.5918 3.13379 6.25601 3.13379 5.8418Z" fill="#000000" />
<path fill-rule="evenodd" clip-rule="evenodd" d="M3.13379 18.1592C3.13379 17.745 3.46958 17.4092 3.88379 17.4092H9.15346C9.56768 17.4092 9.90346 17.745 9.90346 18.1592C9.90346 18.5734 9.56768 18.9092 9.15346 18.9092H3.88379C3.46958 18.9092 3.13379 18.5734 3.13379 18.1592Z" fill="#000000" />
<path fill-rule="evenodd" clip-rule="evenodd" d="M14.8444 4.77344C15.1742 4.77344 15.4653 4.9889 15.5617 5.30434C16.4363 8.16764 18.6857 10.4099 21.5618 11.2821C21.8779 11.378 22.0941 11.6695 22.0941 11.9998C22.0941 12.3302 21.8779 12.6217 21.5618 12.7176C18.6857 13.5898 16.4363 15.8321 15.5617 18.6954C15.4653 19.0108 15.1742 19.2263 14.8444 19.2263C14.5146 19.2263 14.2235 19.0108 14.1271 18.6954C13.2525 15.8321 11.0031 13.5898 8.12706 12.7176C7.8109 12.6217 7.59473 12.3302 7.59473 11.9998C7.59473 11.6695 7.81091 11.378 8.12706 11.2821C11.0031 10.4099 13.2525 8.16764 14.1271 5.30434C14.2235 4.9889 14.5146 4.77344 14.8444 4.77344ZM10.3329 11.9998C12.2668 12.9968 13.8447 14.5699 14.8444 16.4986C15.8441 14.5699 17.422 12.9968 19.356 11.9998C17.422 11.0029 15.8441 9.42975 14.8444 7.5011C13.8447 9.42975 12.2668 11.0029 10.3329 11.9998Z" fill="#000000" />
</svg>