<svg width="24px"  height="24px"  viewBox="0 0 25 24" fill="none" xmlns="http://www.w3.org/2000/svg">
<path fill-rule="evenodd" clip-rule="evenodd" d="M18.183 5.35846C16.5018 5.9543 14.2962 7.28298 11.9903 9.23652C9.68965 11.1856 7.77574 13.3446 6.5411 15.2437C5.92284 16.1947 5.48982 17.0578 5.25697 17.7793C5.01716 18.5224 5.02418 19.0074 5.12891 19.2784C5.19589 19.4518 5.30989 19.5638 5.53853 19.6308C5.80189 19.7079 6.21484 19.7182 6.79668 19.5923C7.95533 19.3418 9.52798 18.6087 11.3012 17.4128C11.6446 17.1812 12.1108 17.2718 12.3424 17.6152C12.574 17.9586 12.4833 18.4248 12.1399 18.6564C10.2908 19.9035 8.53599 20.7509 7.1137 21.0585C6.40506 21.2117 5.71417 21.2453 5.11675 21.0703C4.48462 20.885 3.98093 20.4692 3.72972 19.8191C3.44141 19.0729 3.54965 18.1857 3.82946 17.3187C4.11623 16.43 4.62123 15.4448 5.2835 14.4261C6.60992 12.3858 8.62714 10.1198 11.0207 8.09202C13.4089 6.06872 15.7716 4.62167 17.6819 3.94463C18.6293 3.60882 19.5336 3.43772 20.301 3.53529C21.1092 3.63806 21.8103 4.05506 22.1279 4.87701C22.5701 6.02153 22.4274 7.66657 21.4183 9.42958C21.2125 9.78907 20.7543 9.91368 20.3948 9.70791C20.0353 9.50214 19.9107 9.0439 20.1164 8.68442C20.9719 7.18984 20.9629 6.02376 20.7287 5.41763C20.6533 5.22233 20.5043 5.07323 20.1117 5.02331C19.6783 4.96819 19.0312 5.05782 18.183 5.35846Z" fill="#000000" />
<path fill-rule="evenodd" clip-rule="evenodd" d="M4.88512 3.86253C5.16676 3.69992 5.5211 3.73735 5.76255 3.95521C6.28756 4.42893 7.00735 4.6217 7.70043 4.47419C8.01841 4.40651 8.34378 4.5514 8.50622 4.83301C8.66866 5.11462 8.63117 5.46882 8.41339 5.71019C7.93939 6.2355 7.74646 6.95556 7.89429 7.64749C7.98083 8.05256 7.72262 8.45109 7.31755 8.53764C6.91247 8.62418 6.51394 8.36596 6.42739 7.96089C6.28303 7.28518 6.33213 6.59332 6.55495 5.95905C6.37033 5.92437 6.18861 5.87571 6.01136 5.81347C5.88698 6.47411 5.5835 7.09753 5.12177 7.61033C4.8446 7.91815 4.37038 7.943 4.06256 7.66583C3.75474 7.38867 3.72989 6.91445 4.00705 6.60663C4.48096 6.08031 4.67437 5.36004 4.52667 4.66875C4.45873 4.35072 4.60348 4.02513 4.88512 3.86253Z" fill="#000000" />
<path fill-rule="evenodd" clip-rule="evenodd" d="M13.2095 9.97427C13.4954 9.80922 13.8556 9.85049 14.0967 10.0759C15.9326 11.7922 18.5029 12.481 20.9509 11.9127C21.2724 11.838 21.6049 11.9824 21.77 12.2682C21.935 12.5541 21.8938 12.9143 21.6684 13.1554C19.9522 14.9912 19.2635 17.5616 19.832 20.0096C19.9066 20.3312 19.7623 20.6638 19.4764 20.8288C19.1905 20.9938 18.8303 20.9526 18.5892 20.7272C16.7533 19.0108 14.183 18.3221 11.7351 18.8904C11.4135 18.9651 11.081 18.8207 10.9159 18.5348C10.7509 18.249 10.7921 17.8888 11.0176 17.6477C12.7337 15.8118 13.4224 13.2415 12.854 10.7934C12.7793 10.4719 12.9237 10.1393 13.2095 9.97427ZM14.5471 12.291C14.5868 14.0178 14.1303 15.7218 13.2326 17.1973C14.9593 17.1577 16.6632 17.6143 18.1388 18.512C18.0991 16.7853 18.5556 15.0813 19.4533 13.6058C17.7266 13.6454 16.0227 13.1888 14.5471 12.291Z" fill="#000000" />
</svg>