<svg width="24px"  height="24px"  viewBox="0 0 25 24" fill="none" xmlns="http://www.w3.org/2000/svg">
<path fill-rule="evenodd" clip-rule="evenodd" d="M12.6143 3.75C8.05791 3.75 4.36426 7.44365 4.36426 12C4.36426 16.5563 8.05791 20.25 12.6143 20.25C17.1706 20.25 20.8643 16.5563 20.8643 12C20.8643 7.44365 17.1706 3.75 12.6143 3.75ZM2.86426 12C2.86426 6.61522 7.22948 2.25 12.6143 2.25C17.999 2.25 22.3643 6.61522 22.3643 12C22.3643 17.3848 17.999 21.75 12.6143 21.75C7.22948 21.75 2.86426 17.3848 2.86426 12Z" fill="#000000" />
<path fill-rule="evenodd" clip-rule="evenodd" d="M10.2101 2.76543C10.5537 2.53407 11.0198 2.62503 11.2512 2.9686C11.3914 3.17687 11.524 3.4496 11.6401 3.70129C11.6982 3.82729 11.7574 3.96 11.8158 4.09058L11.8234 4.10759C11.8849 4.24525 11.9457 4.38124 12.0073 4.51451C12.1322 4.78479 12.25 5.02159 12.3624 5.20577C12.4652 5.37423 12.528 5.43824 12.5418 5.45231C12.5449 5.45543 12.5456 5.45609 12.5437 5.45489L12.137 6.08507L12.5327 5.44791C12.7284 5.56944 12.9472 5.76213 13.0517 6.05929C13.1632 6.37644 13.0958 6.6704 12.9896 6.88158C12.8096 7.23936 12.4533 7.49438 12.2202 7.64515C11.9506 7.81944 11.6509 7.97252 11.4243 8.08477C11.3704 8.11145 11.3236 8.13438 11.2814 8.15507C11.227 8.18177 11.1801 8.20474 11.1354 8.22726C11.0881 8.25107 11.0653 8.26367 11.0584 8.26732C10.3434 8.79349 9.54735 8.60226 9.10784 8.49668C9.09611 8.49386 9.08463 8.4911 9.07341 8.48842C8.50166 8.35175 8.34611 8.34058 8.21614 8.41611L8.21427 8.41719C7.88323 8.60829 7.78636 8.82401 7.76854 9.09526C7.74634 9.43297 7.85429 9.87239 8.06008 10.417C8.0665 10.434 8.0723 10.4512 8.07746 10.4686C8.08135 10.4817 8.0849 10.4913 8.08773 10.4981C8.13272 10.5156 8.22876 10.5348 8.45572 10.5478C8.49229 10.5499 8.53392 10.5515 8.57989 10.5533C8.99604 10.5692 9.76707 10.5987 10.3496 11.1365C10.3563 11.1427 10.3629 11.149 10.3693 11.1554C10.5884 11.3729 10.6977 11.6324 10.761 11.8171C10.7997 11.9298 10.8423 12.0875 10.872 12.1973C10.8837 12.2407 10.8934 12.2767 10.9 12.2993C10.9162 12.3546 10.9298 12.3937 10.9402 12.4206C11.0312 12.4421 11.1331 12.4721 11.2262 12.5028C11.3757 12.552 11.5649 12.6234 11.7388 12.7142C11.8255 12.7595 11.9257 12.8185 12.0202 12.8931C12.1058 12.9606 12.2404 13.0821 12.3295 13.2672C12.4356 13.4875 12.4628 13.7767 12.3193 14.0525C12.2078 14.2668 12.0332 14.3928 11.9064 14.4645C11.5885 14.6653 11.4018 14.8398 11.2633 15.0255C11.1181 15.2204 10.997 15.4661 10.855 15.8546C10.6384 16.4807 10.3337 16.8255 10.0864 17.0997L10.0782 17.1087C9.86035 17.3502 9.71184 17.5147 9.58139 17.8494C9.48576 18.0947 9.26852 18.2718 9.00901 18.3162C8.7495 18.3606 8.48573 18.2656 8.31404 18.066C7.78256 17.4482 7.59382 16.8469 7.52673 16.2519C7.49719 15.99 7.49109 15.7262 7.48563 15.4899C7.48531 15.4762 7.48499 15.4625 7.48467 15.4489C7.47872 15.1954 7.47194 14.9586 7.44495 14.7093C7.44249 14.6917 7.43993 14.6765 7.43745 14.6635C7.40726 14.656 7.36522 14.6465 7.3015 14.632C7.28893 14.6292 7.27553 14.6261 7.2612 14.6229C7.12475 14.5918 6.93288 14.5457 6.72444 14.457C6.18025 14.2366 5.82847 13.8881 5.57465 13.55C5.45182 13.3864 5.34903 13.2212 5.26517 13.085C5.25842 13.0741 5.25181 13.0633 5.24533 13.0528C5.16571 12.9235 5.10556 12.8258 5.04201 12.7373C4.91457 12.5598 4.83587 12.5099 4.75245 12.486C4.64435 12.455 4.3902 12.4318 3.84676 12.6088C3.45292 12.7371 3.02964 12.5218 2.90134 12.128C2.77305 11.7342 2.98831 11.3109 3.38216 11.1826C4.0601 10.9617 4.64864 10.8959 5.16574 11.0441C5.70752 11.1994 6.03651 11.5505 6.26045 11.8624C6.357 11.9969 6.44532 12.1406 6.51896 12.2604C6.5269 12.2733 6.53468 12.2859 6.54228 12.2983C6.6261 12.4343 6.69706 12.5467 6.77419 12.6494C6.91896 12.8422 7.06959 12.9793 7.2913 13.0682L7.30878 13.0755C7.38886 13.11 7.47336 13.1328 7.59391 13.1602C7.60589 13.1629 7.61939 13.1659 7.63419 13.1692C7.73793 13.1921 7.90513 13.2291 8.05566 13.2886C8.257 13.3682 8.47928 13.5033 8.6537 13.748C8.81856 13.9794 8.89689 14.2478 8.93294 14.5195L8.93496 14.5361C8.97064 14.8603 8.97827 15.1584 8.98426 15.4137L8.98461 15.4288C8.99031 15.6717 8.99486 15.8658 9.01357 16.0493C9.19978 15.8411 9.33 15.6767 9.43884 15.36L9.44341 15.3467L9.44354 15.3468C9.60675 14.8992 9.7877 14.4953 10.0606 14.1291C10.1452 14.0156 10.236 13.9092 10.3338 13.8084C9.72818 13.576 9.5398 12.9919 9.46041 12.7206C9.43238 12.6248 9.4148 12.5579 9.40007 12.5018C9.38135 12.4305 9.36724 12.3768 9.34217 12.3037C9.32543 12.2549 9.31282 12.2285 9.30656 12.2165C9.15009 12.09 8.9385 12.0779 8.39159 12.0466L8.36996 12.0454C8.13474 12.0319 7.77743 12.0072 7.44943 11.8559C7.07273 11.6822 6.78911 11.3718 6.64838 10.9245C6.43296 10.3509 6.22783 9.66536 6.27177 8.99689C6.32065 8.25311 6.67632 7.57302 7.46434 7.11811C8.15895 6.71557 8.9117 6.90282 9.33012 7.00691C9.36291 7.01506 9.39364 7.02271 9.42214 7.02952C9.95001 7.1557 10.0717 7.13359 10.1746 7.05523L10.1771 7.05336L10.1771 7.05337C10.2687 6.98415 10.3914 6.92241 10.4552 6.89035L10.4609 6.88748C10.5095 6.86297 10.5706 6.83299 10.6334 6.80221C10.6754 6.78159 10.7182 6.7606 10.7584 6.74066C10.9691 6.6363 11.1918 6.52108 11.3791 6.40253C11.2593 6.26431 11.1609 6.11644 11.082 5.98711C10.9232 5.72682 10.7762 5.42625 10.6456 5.14368C10.5795 5.00053 10.5149 4.85623 10.4538 4.71942L10.4477 4.70577C10.3882 4.57245 10.3322 4.4471 10.2779 4.32942C10.1605 4.07477 10.0721 3.90314 10.007 3.80645C9.77561 3.46288 9.86657 2.9968 10.2101 2.76543ZM11.7486 6.72699C11.7485 6.72699 11.7478 6.7265 11.7464 6.72547C11.7479 6.72647 11.7486 6.72698 11.7486 6.72699ZM10.9641 12.4728C10.9641 12.473 10.9629 12.4713 10.9606 12.467C10.963 12.4705 10.9642 12.4726 10.9641 12.4728ZM8.09436 10.5116C8.09435 10.5116 8.09411 10.5112 8.09368 10.5105Z" fill="#000000" />
<path fill-rule="evenodd" clip-rule="evenodd" d="M15.312 6.99918C15.4625 6.92512 15.6335 6.90365 15.7976 6.93821C16.2574 7.03501 16.7232 7.20666 17.1561 7.37826C17.2973 7.43423 17.4338 7.48966 17.5678 7.54404C17.8643 7.66444 18.1481 7.77967 18.4416 7.88408C19.3003 8.18946 19.962 8.29087 20.5096 8.0711C20.894 7.91683 21.3307 8.1034 21.485 8.48781C21.6392 8.87223 21.4527 9.30892 21.0683 9.46318C19.975 9.9019 18.85 9.62134 17.939 9.29735C17.6132 9.18146 17.2791 9.04586 16.9687 8.9199C16.8423 8.86858 16.7198 8.81885 16.6034 8.77271C16.2832 8.64581 15.996 8.5403 15.7337 8.4667C15.338 8.67271 14.9614 8.90012 14.649 9.15295C14.5137 9.55385 14.5245 9.67479 14.5402 9.73663C14.5649 9.83385 14.6504 9.98387 15.0703 10.4323C15.0795 10.4365 15.0956 10.4432 15.1207 10.4511C15.2005 10.4763 15.3196 10.4988 15.4905 10.5169C15.6522 10.534 15.8285 10.5443 16.0304 10.5561C16.0397 10.5566 16.049 10.5571 16.0584 10.5577C16.2639 10.5697 16.4939 10.5835 16.7182 10.6093C17.1261 10.6562 17.7049 10.7577 18.1233 11.1332C18.633 11.5908 18.7104 12.2462 18.5281 12.9243C18.4997 13.0309 18.455 13.1543 18.4216 13.2464C18.4173 13.2581 18.4133 13.2693 18.4095 13.2799C18.3688 13.3926 18.3355 13.4887 18.3118 13.5771C18.3032 13.6093 18.2972 13.6358 18.2931 13.657C18.3322 13.7049 18.373 13.7541 18.415 13.8048C18.8491 14.3284 19.409 15.0037 19.4885 15.9904L19.4894 16.0012L19.4893 16.0012C19.5122 16.3478 19.4929 16.7189 19.4764 17.0373C19.4725 17.1124 19.4688 17.1845 19.4658 17.2527C19.4486 17.644 19.4512 17.9521 19.5095 18.2134C19.5997 18.6177 19.345 19.0185 18.9408 19.1087C18.5365 19.1989 18.1356 18.9443 18.0455 18.54C17.9405 18.0694 17.9496 17.5886 17.9672 17.1868C17.9714 17.0914 17.976 17.0011 17.9804 16.9148C17.9959 16.6089 18.0089 16.3537 17.9929 16.1057C17.9527 15.6248 17.7275 15.346 17.3019 14.8191C17.2223 14.7206 17.1357 14.6133 17.0419 14.4945C16.8393 14.2453 16.7885 13.9631 16.7846 13.7522C16.7807 13.5412 16.8219 13.3423 16.8627 13.1898C16.9045 13.0333 16.9579 12.8835 16.9983 12.7712L17.0028 12.7589C17.0469 12.6366 17.0682 12.5773 17.0787 12.5379L17.0794 12.5354L17.0794 12.5354C17.1277 12.3561 17.1198 12.2696 17.1152 12.2445C17.0703 12.21 16.9206 12.1424 16.5468 12.0994C16.3705 12.0792 16.1807 12.0674 15.9711 12.0551C15.9581 12.0544 15.945 12.0536 15.9318 12.0529C15.7407 12.0418 15.531 12.0296 15.3325 12.0086C15.122 11.9863 14.8886 11.9508 14.6689 11.8814C14.4546 11.8137 14.1944 11.6957 13.9866 11.4696C13.5996 11.0573 13.2215 10.637 13.0865 10.1065C12.944 9.5466 13.1016 9.00608 13.3059 8.45278C13.3483 8.33795 13.4182 8.23525 13.5094 8.15364C14.0565 7.66413 14.7266 7.28721 15.312 6.99918ZM18.203 13.5448C18.2054 13.5477 18.2078 13.5507 18.2101 13.5536L18.203 13.5448Z" fill="#000000" />
</svg>