<svg width="24px"  height="24px"  viewBox="0 0 25 25" fill="none" xmlns="http://www.w3.org/2000/svg">
<path d="M10.4974 18.8456C7.37741 18.8456 4.8374 16.3056 4.8374 13.1956C4.8374 10.0856 7.37741 7.53564 10.4974 7.53564C13.6174 7.53564 16.1574 10.0756 16.1574 13.1956C16.1574 16.3156 13.6174 18.8456 10.4974 18.8456ZM10.4974 9.03564C8.20741 9.03564 6.3374 10.8956 6.3374 13.1956C6.3374 15.4956 8.19741 17.3456 10.4974 17.3456C12.7974 17.3456 14.6574 15.4856 14.6574 13.1956C14.6574 10.9056 12.7974 9.03564 10.4974 9.03564Z" fill="#000000" />
<path d="M15.0876 21.9057C14.8276 21.9057 14.5776 21.7757 14.4376 21.5257C14.2276 21.1657 14.3576 20.7057 14.7076 20.5057C15.4576 20.0757 16.1276 19.5357 16.7076 18.9057C16.9876 18.5957 17.4576 18.5857 17.7676 18.8657C18.0776 19.1457 18.0876 19.6158 17.8076 19.9258C17.1276 20.6658 16.3376 21.2957 15.4576 21.8057C15.3376 21.8757 15.2076 21.9057 15.0876 21.9057Z" fill="#000000" />
<path d="M19.5073 12.0956C19.1573 12.0956 18.8473 11.8556 18.7773 11.4956C18.5973 10.6356 18.2873 9.80559 17.8473 9.02559C17.6473 8.66559 17.7673 8.20557 18.1273 8.00557C18.4873 7.79557 18.9473 7.9256 19.1473 8.2856C19.6673 9.1956 20.0273 10.1756 20.2373 11.1956C20.3173 11.6056 20.0573 11.9956 19.6573 12.0756C19.6073 12.0856 19.5573 12.0956 19.5073 12.0956Z" fill="#000000" />
<path d="M18.8775 17.7156C18.7775 17.7156 18.6675 17.6956 18.5675 17.6456C18.1875 17.4756 18.0175 17.0356 18.1875 16.6556C18.5675 15.8156 18.8075 14.9156 18.8975 13.9956C18.9375 13.5856 19.2975 13.2756 19.7175 13.3256C20.1275 13.3656 20.4275 13.7356 20.3875 14.1456C20.2775 15.2256 19.9975 16.2756 19.5575 17.2756C19.4375 17.5556 19.1575 17.7156 18.8775 17.7156Z" fill="#000000" />
<path d="M15.3772 6.14561C15.2372 6.14561 15.1072 6.10562 14.9772 6.03562C14.1172 5.49562 13.1672 5.11563 12.1572 4.91563C11.7472 4.83563 11.4872 4.43562 11.5672 4.03562C11.6472 3.62562 12.0472 3.36559 12.4472 3.44559C13.6272 3.68559 14.7472 4.1256 15.7672 4.7656C16.1172 4.9856 16.2272 5.44563 16.0072 5.79563C15.8672 6.02563 15.6172 6.14561 15.3672 6.14561H15.3772Z" fill="#000000" />
<path d="M5.89761 5.97545C5.63761 5.97545 5.38762 5.84545 5.24762 5.59545C5.03762 5.23545 5.16764 4.77543 5.51764 4.57543C6.67764 3.90543 7.92763 3.48543 9.22763 3.32543C9.63763 3.27543 10.0176 3.56545 10.0676 3.97545C10.1176 4.38545 9.82763 4.76542 9.41763 4.81542C8.30763 4.95542 7.24764 5.31542 6.26764 5.87542C6.14764 5.94542 6.01761 5.97545 5.89761 5.97545Z" fill="#000000" />
<path d="M17.0974 9.39551C15.7174 9.39551 14.5874 8.2755 14.5874 6.8855C14.5874 5.4955 15.7074 4.37549 17.0974 4.37549C18.4874 4.37549 19.6074 5.4955 19.6074 6.8855C19.6074 8.2755 18.4874 9.39551 17.0974 9.39551ZM17.0974 5.87549C16.5374 5.87549 16.0874 6.3255 16.0874 6.8855C16.0874 7.4455 16.5374 7.89551 17.0974 7.89551C17.6574 7.89551 18.1074 7.4455 18.1074 6.8855C18.1074 6.3255 17.6574 5.87549 17.0974 5.87549Z" fill="#000000" />
<path d="M8.1273 15.0355C7.7873 15.0355 7.45729 14.9755 7.14729 14.8355C6.60729 14.6155 6.3573 14.2054 6.1873 13.9354C6.1573 13.8754 6.10731 13.8055 6.07731 13.7655C6.05731 13.7755 5.9773 13.7855 5.8173 13.8355C5.4273 13.9655 4.9973 13.7455 4.8773 13.3555C4.7473 12.9655 4.96731 12.5355 5.35731 12.4155C6.73731 11.9655 7.2273 12.7655 7.4673 13.1455C7.5973 13.3555 7.63731 13.4155 7.72731 13.4455C8.13731 13.6155 8.5973 13.4754 8.6573 13.3654C8.6273 13.2854 8.59729 13.2355 8.55729 13.1755L8.4673 13.0554C8.3773 12.9454 8.26729 12.8155 8.17729 12.6455C8.07729 12.4555 7.99732 12.2455 7.95732 12.0355C7.76732 11.2055 8.2873 10.5155 8.5273 10.1755C8.6273 10.0355 8.6873 9.94546 8.7173 9.89546C8.6873 9.74546 8.5573 9.46545 8.4673 9.25545L8.29731 8.87544C8.13731 8.49544 8.3073 8.05546 8.6873 7.89546C9.0673 7.73546 9.50731 7.90548 9.66731 8.28548L9.82731 8.63545C10.0473 9.11545 10.2573 9.57546 10.2173 10.0755C10.1973 10.3455 10.0573 10.6355 9.72731 11.0755C9.63731 11.2055 9.37731 11.5455 9.41731 11.7055C9.43731 11.7855 9.46731 11.8655 9.50731 11.9455C9.52731 11.9855 9.5773 12.0554 9.6273 12.1154C9.6773 12.1754 9.71732 12.2355 9.76732 12.2955C9.89732 12.4755 10.0073 12.6855 10.0773 12.8955C10.2673 13.4955 10.0973 14.0854 9.64729 14.5054C9.26729 14.8554 8.70731 15.0355 8.13731 15.0355H8.1273Z" fill="#000000" />
<path d="M11.6372 18.6756C11.3972 18.6756 11.1572 18.5556 11.0172 18.3456C10.2572 17.2056 10.8872 16.2656 11.3072 15.6356C11.7672 14.9456 11.8872 14.7156 11.4772 14.2156C10.8272 13.5756 10.5972 12.5855 10.9872 11.8755C11.3272 11.2555 12.0172 10.9856 12.8472 11.1756C13.3372 11.2856 13.7272 11.5255 14.0672 11.7455C14.5772 12.0755 14.7871 12.1755 15.1171 12.0655C15.5071 11.9355 15.9372 12.1556 16.0672 12.5456C16.1972 12.9356 15.9772 13.3655 15.5872 13.4955C14.5572 13.8255 13.8072 13.3556 13.2672 13.0156C12.9972 12.8456 12.7672 12.6956 12.5272 12.6456C12.3472 12.6056 12.2772 12.6356 12.2672 12.6356C12.2672 12.6756 12.3071 12.9556 12.5871 13.2256C13.7571 14.6756 12.9972 15.8056 12.5472 16.4856C12.0972 17.1556 12.0872 17.2756 12.2572 17.5156C12.4872 17.8556 12.3972 18.3255 12.0572 18.5555C11.9272 18.6455 11.7872 18.6855 11.6372 18.6855V18.6756Z" fill="#000000" />
</svg>