<svg width="24px"  height="24px"  viewBox="0 0 25 25" fill="none" xmlns="http://www.w3.org/2000/svg">
<path d="M18.4993 12.3768C18.1493 12.3768 17.8293 12.1268 17.7593 11.7668C17.6793 11.3568 17.9493 10.9668 18.3593 10.8968C19.8293 10.6268 20.8792 9.34677 20.8692 7.84677C20.8592 6.35677 19.7793 5.09677 18.2993 4.84677C16.8293 4.59677 15.3993 5.44678 14.9093 6.85678C14.7693 7.24678 14.3393 7.4468 13.9493 7.3168C13.5593 7.1768 13.3493 6.75678 13.4893 6.35678C14.2293 4.25678 16.3593 3.00678 18.5393 3.35678C20.7293 3.71678 22.3393 5.5968 22.3593 7.8168C22.3793 10.0368 20.8092 11.9468 18.6192 12.3568C18.5692 12.3568 18.5293 12.3668 18.4793 12.3668L18.4993 12.3768Z" fill="#000000" />
<path d="M11.1891 21.9271C6.59915 21.9271 2.86914 18.1971 2.86914 13.6071C2.86914 9.01712 6.59915 5.28711 11.1891 5.28711C15.7791 5.28711 19.5092 9.01712 19.5092 13.6071C19.5092 18.1971 15.7791 21.9271 11.1891 21.9271ZM11.1891 6.78711C7.42915 6.78711 4.36914 9.84712 4.36914 13.6071C4.36914 17.3671 7.42915 20.4271 11.1891 20.4271C14.9491 20.4271 18.0092 17.3671 18.0092 13.6071C18.0092 9.84712 14.9491 6.78711 11.1891 6.78711Z" fill="#000000" />
<path d="M7.53904 16.0572C7.07904 16.0572 6.60906 15.9672 6.17906 15.7872C5.46906 15.4972 5.12905 14.9572 4.88905 14.5572C4.58905 14.0772 4.55905 14.0072 3.85905 14.2372C3.46905 14.3672 3.03904 14.1472 2.90904 13.7572C2.77904 13.3672 2.99905 12.9372 3.38905 12.8072C5.20905 12.2172 5.80905 13.1872 6.16905 13.7672C6.37905 14.0972 6.49905 14.2972 6.75905 14.3972C7.42905 14.6872 8.23903 14.5372 8.58903 14.2272C8.74903 14.0872 8.77906 13.9472 8.70906 13.7472C8.66906 13.6172 8.60906 13.4872 8.51906 13.3672C8.46906 13.2972 8.41903 13.2372 8.36903 13.1772C8.23903 13.0172 8.08905 12.8372 7.97905 12.6072C7.83905 12.3372 7.72905 12.0472 7.66905 11.7672C7.41905 10.6572 8.10906 9.72722 8.48906 9.23722C8.82906 8.77722 8.88905 8.62722 8.88905 8.61722C8.88905 8.41722 8.67904 7.9272 8.43904 7.4072C8.34904 7.2172 8.25906 7.02723 8.17906 6.81723C8.01906 6.43723 8.18905 5.99719 8.57905 5.83719C8.95905 5.67719 9.39903 5.84722 9.55903 6.23722C9.63903 6.42722 9.72903 6.61721 9.80903 6.79721C10.139 7.52721 10.429 8.14722 10.379 8.80722C10.349 9.14722 10.159 9.52724 9.69905 10.1372C9.30905 10.6572 9.05903 11.0872 9.14903 11.4472C9.18903 11.6072 9.24905 11.7672 9.32905 11.9272C9.38905 12.0372 9.47903 12.1372 9.55903 12.2372C9.62903 12.3172 9.69905 12.4072 9.75905 12.4972C9.93905 12.7472 10.079 13.0272 10.169 13.3172C10.409 14.0872 10.209 14.8272 9.61903 15.3672C9.09903 15.8372 8.33904 16.0872 7.56904 16.0872L7.53904 16.0572Z" fill="#000000" />
<path d="M12.9492 21.6672C12.7092 21.6672 12.4692 21.5472 12.3292 21.3372C11.2992 19.8072 12.1492 18.5472 12.7692 17.6172C13.4992 16.5172 13.8192 15.9472 13.0092 14.9372C12.0992 14.0372 11.7892 12.7072 12.2992 11.7772C12.7292 10.9872 13.6392 10.6572 14.7292 10.8972C15.4192 11.0472 15.9792 11.4072 16.4792 11.7272C17.2692 12.2272 17.7392 12.4972 18.4392 12.2672C18.8292 12.1372 19.2592 12.3572 19.3892 12.7472C19.5192 13.1372 19.2992 13.5672 18.9092 13.6972C17.4992 14.1572 16.4892 13.5072 15.6792 12.9972C15.2492 12.7272 14.8492 12.4672 14.4192 12.3672C14.2292 12.3272 13.7692 12.2572 13.6292 12.5072C13.4692 12.7972 13.6292 13.4272 14.1392 13.9472C15.7292 15.9172 14.7092 17.4472 14.0292 18.4572C13.3692 19.4472 13.1592 19.8772 13.5892 20.5072C13.8192 20.8472 13.7292 21.3172 13.3892 21.5472C13.2592 21.6372 13.1192 21.6772 12.9692 21.6772L12.9492 21.6672Z" fill="#000000" />
</svg>