<svg width="24px"  height="24px"  viewBox="0 0 25 25" fill="none" xmlns="http://www.w3.org/2000/svg">
<path fill-rule="evenodd" clip-rule="evenodd" d="M12.6143 4.36279C8.05791 4.36279 4.36426 8.05644 4.36426 12.6128C4.36426 17.1691 8.05791 20.8628 12.6143 20.8628C17.1706 20.8628 20.8643 17.1691 20.8643 12.6128C20.8643 8.05644 17.1706 4.36279 12.6143 4.36279ZM2.86426 12.6128C2.86426 7.22802 7.22948 2.86279 12.6143 2.86279C17.999 2.86279 22.3643 7.22802 22.3643 12.6128C22.3643 17.9976 17.999 22.3628 12.6143 22.3628C7.22948 22.3628 2.86426 17.9976 2.86426 12.6128Z" fill="#000000" />
<path fill-rule="evenodd" clip-rule="evenodd" d="M9.54634 3.58339C9.92727 3.42073 10.3679 3.59767 10.5306 3.97861C10.6385 4.23136 10.7496 4.46701 10.8596 4.699C10.8663 4.71318 10.8731 4.72739 10.8798 4.74161C10.981 4.95494 11.084 5.17195 11.1727 5.38065C11.358 5.81675 11.5294 6.32138 11.488 6.86639C11.4731 7.0619 11.4052 7.23865 11.3504 7.36063C11.29 7.49485 11.2139 7.63059 11.1354 7.75828C10.9779 8.01413 10.7801 8.28626 10.5946 8.52733C10.4071 8.77094 10.2222 8.99549 10.085 9.15836C10.0482 9.20199 10.0147 9.24139 9.98524 9.27576C9.97279 9.36566 9.96226 9.49542 9.97003 9.6535C9.98623 9.98292 10.0816 10.4407 10.4177 10.933C10.8515 11.3683 11.1755 11.7589 11.3663 12.1444C11.5863 12.5891 11.6215 13.0113 11.5097 13.4347C11.425 13.7553 11.2517 14.0717 11.1063 14.3371C11.0912 14.3647 11.0764 14.3917 11.0621 14.4181C10.8938 14.7275 10.7121 15.0722 10.5467 15.5251C10.4558 15.7793 10.2662 15.9285 10.103 16.0023C9.95493 16.0693 9.81476 16.0831 9.72795 16.0862C9.55225 16.0925 9.37303 16.0598 9.23381 16.0278C8.93958 15.9602 8.58471 15.8374 8.25464 15.7118C7.70467 15.5025 7.12668 15.2473 6.84877 15.1245C6.79478 15.1007 6.75212 15.0819 6.72319 15.0693C6.17971 14.8489 5.82827 14.5006 5.57465 14.1628C5.45182 13.9992 5.34903 13.834 5.26517 13.6978C5.25842 13.6869 5.25181 13.6762 5.24534 13.6656C5.16571 13.5363 5.10556 13.4386 5.04201 13.3501C4.91457 13.1726 4.83587 13.1227 4.75245 13.0988C4.64435 13.0678 4.3902 13.0446 3.84676 13.2216C3.45292 13.3499 3.02964 13.1347 2.90134 12.7408C2.77305 12.347 2.98831 11.9237 3.38216 11.7954C4.0601 11.5745 4.64864 11.5087 5.16574 11.6569C5.70752 11.8122 6.03652 12.1633 6.26045 12.4752C6.357 12.6097 6.44533 12.7534 6.51896 12.8732C6.52691 12.8861 6.53468 12.8988 6.54228 12.9111C6.6261 13.0472 6.69706 13.1595 6.77419 13.2622C6.91896 13.455 7.06959 13.5922 7.2913 13.681L7.30878 13.6883C7.34826 13.7053 7.40431 13.73 7.47355 13.7606C7.76288 13.8882 8.28269 14.1176 8.78812 14.3099C8.99441 14.3884 9.18344 14.4549 9.3425 14.5037C9.48403 14.1846 9.62474 13.9213 9.74433 13.7015C9.93855 13.3443 10.0237 13.187 10.0594 13.0516C10.0768 12.9857 10.0841 12.9354 10.0218 12.8096C9.93736 12.6389 9.74195 12.3755 9.31242 11.949C9.28225 11.9191 9.25467 11.8866 9.23 11.852C8.67426 11.0718 8.50033 10.3066 8.47184 9.72717C8.4577 9.43967 8.47928 9.19918 8.50598 9.02506C8.51936 8.9378 8.53413 8.86652 8.54664 8.81351C8.55291 8.78698 8.55862 8.76494 8.56335 8.74768L8.56965 8.72538L8.57214 8.71695L8.57321 8.71343L8.57369 8.71185C8.57381 8.71149 8.57415 8.71038 9.29065 8.93201L8.57415 8.71038C8.60563 8.6086 8.65844 8.51469 8.72905 8.43491L8.73195 8.43162L8.74247 8.41966L8.78448 8.37143C8.82115 8.32911 8.8741 8.2675 8.93796 8.19172C9.06618 8.03958 9.23611 7.83306 9.40592 7.61242C9.5777 7.38924 9.73981 7.16394 9.8579 6.97207C9.91709 6.87589 9.95771 6.80019 9.98217 6.74576C9.9874 6.73412 9.99126 6.72484 9.99404 6.71779C9.9983 6.54962 9.94494 6.32686 9.79214 5.96726C9.71599 5.78805 9.62554 5.59735 9.51991 5.37466L9.50429 5.34173C9.39431 5.10981 9.27183 4.85035 9.15112 4.56767C8.98845 4.18674 9.1654 3.74606 9.54634 3.58339Z" fill="#000000" />
<path fill-rule="evenodd" clip-rule="evenodd" d="M15.1237 21.9179C14.7801 22.1493 14.314 22.0583 14.0826 21.7147C13.3198 20.582 13.3487 19.5437 13.5706 18.6322C13.6497 18.3074 13.7591 17.9781 13.8563 17.6856C13.8855 17.5976 13.9137 17.5129 13.9395 17.4326C14.059 17.0621 14.1458 16.7446 14.1746 16.4376C14.23 15.8489 14.4758 15.3717 14.7111 14.9977C14.8088 14.8425 14.9139 14.6913 15.0059 14.5589C15.0232 14.534 15.0401 14.5098 15.0563 14.4863C15.1648 14.3296 15.2513 14.2003 15.3199 14.0779C15.4544 13.8378 15.4752 13.7013 15.4545 13.5851C15.4311 13.4533 15.3257 13.1941 14.8792 12.782C14.8726 12.7758 14.866 12.7695 14.8595 12.7631C14.6437 12.5488 14.4633 12.3768 14.3128 12.2346C14.2803 12.2039 14.2485 12.1739 14.2176 12.1448C14.1097 12.0432 14.0126 11.9517 13.9343 11.8743C13.8389 11.7798 13.7253 11.6622 13.6383 11.5301C13.5387 11.3789 13.447 11.1685 13.4622 10.9065C13.4755 10.6788 13.5675 10.5007 13.6175 10.4096C13.6501 10.35 13.6989 10.2703 13.7407 10.2019C13.7584 10.1729 13.7749 10.1459 13.7884 10.1234C13.899 9.93871 14.0503 9.66614 14.2155 9.21379C14.3153 8.93465 14.5297 8.79503 14.665 8.73401C14.7985 8.67374 14.9269 8.6545 15.0105 8.64659C15.1821 8.63033 15.3678 8.64533 15.5274 8.6655C15.8595 8.70747 16.2688 8.79812 16.659 8.89736C17.4189 9.09064 18.2493 9.3541 18.5033 9.461C19.05 9.68213 19.3991 10.0318 19.6479 10.3736C19.7678 10.5383 19.8663 10.704 19.946 10.8398C19.955 10.8551 19.9637 10.87 19.9721 10.8844C20.0442 11.0074 20.0979 11.0992 20.1554 11.1831C20.2729 11.3548 20.3396 11.393 20.4069 11.4123C20.5043 11.4402 20.7516 11.4643 21.2997 11.2858C21.6936 11.1575 22.1168 11.3728 22.2451 11.7666C22.3734 12.1604 22.1582 12.5837 21.7643 12.712C21.091 12.9313 20.506 13.0011 19.9937 12.8543C19.4511 12.6988 19.1308 12.342 18.9175 12.0302C18.828 11.8994 18.7459 11.759 18.678 11.6429C18.6691 11.6277 18.6605 11.613 18.6521 11.5987C18.5738 11.4651 18.5075 11.3558 18.4352 11.2564C18.3007 11.0716 18.1573 10.9383 17.9375 10.8502L17.9201 10.843C17.7924 10.788 17.0454 10.5434 16.2893 10.3511C15.97 10.2699 15.6763 10.2052 15.4485 10.1693C15.3099 10.4868 15.1811 10.7173 15.0763 10.8924C15.122 10.936 15.1743 10.9853 15.2355 11.043C15.2686 11.0741 15.3042 11.1077 15.3428 11.1442C15.496 11.2889 15.6832 11.4673 15.907 11.6893C16.4689 12.2104 16.8282 12.742 16.9314 13.3227C17.038 13.9226 16.8448 14.4248 16.6287 14.8107C16.522 15.0013 16.3992 15.1819 16.2896 15.3401C16.2702 15.3682 16.2512 15.3955 16.2326 15.4223C16.1407 15.5546 16.0584 15.673 15.9806 15.7966C15.7967 16.0889 15.6913 16.3304 15.668 16.578C15.6231 17.0557 15.4931 17.5021 15.3672 17.8929C15.3323 18.0012 15.2983 18.1037 15.2656 18.2022C15.1732 18.4805 15.0913 18.7275 15.0281 18.9871C14.8731 19.6235 14.8674 20.1946 15.3268 20.8769C15.5582 21.2205 15.4672 21.6865 15.1237 21.9179ZM14.9248 11.1465C14.9246 11.1466 14.9256 11.1443 14.9281 11.1394C14.9262 11.1439 14.9249 11.1464 14.9248 11.1465Z" fill="#000000" />
</svg>