<svg width="24px"  height="24px"  viewBox="0 0 25 24" fill="none" xmlns="http://www.w3.org/2000/svg">
<path fill-rule="evenodd" clip-rule="evenodd" d="M6.56152 3.09839C6.97574 3.09839 7.31152 3.43418 7.31152 3.84839V9.59638C7.31152 10.0106 6.97574 10.3464 6.56152 10.3464C6.14731 10.3464 5.81152 10.0106 5.81152 9.59638V3.84839C5.81152 3.43418 6.14731 3.09839 6.56152 3.09839Z" fill="#000000" />
<path fill-rule="evenodd" clip-rule="evenodd" d="M12.6143 2C13.0285 2 13.3643 2.33579 13.3643 2.75V4.19242C13.3643 4.60663 13.0285 4.94242 12.6143 4.94242C12.2 4.94242 11.8643 4.60663 11.8643 4.19242V2.75C11.8643 2.33579 12.2 2 12.6143 2Z" fill="#000000" />
<path fill-rule="evenodd" clip-rule="evenodd" d="M18.667 3.09839C19.0812 3.09839 19.417 3.43418 19.417 3.84839V9.59638C19.417 10.0106 19.0812 10.3464 18.667 10.3464C18.2528 10.3464 17.917 10.0106 17.917 9.59638V3.84839C17.917 3.43418 18.2528 3.09839 18.667 3.09839Z" fill="#000000" />
<path fill-rule="evenodd" clip-rule="evenodd" d="M12.6139 7.54712C12.9438 7.54712 13.2349 7.76259 13.3312 8.07802C14.2059 10.9413 16.4553 13.1836 19.3313 14.0558C19.6475 14.1517 19.8636 14.4432 19.8636 14.7735C19.8636 15.1039 19.6475 15.3954 19.3313 15.4912C16.4553 16.3635 14.2059 18.6057 13.3312 21.469C13.2349 21.7845 12.9438 21.9999 12.6139 21.9999C12.2841 21.9999 11.993 21.7845 11.8967 21.469C11.022 18.6057 8.77263 16.3635 5.89659 15.4912C5.58044 15.3954 5.36426 15.1039 5.36426 14.7735C5.36426 14.4432 5.58044 14.1517 5.89659 14.0558C8.77263 13.1836 11.022 10.9413 11.8967 8.07802C11.993 7.76259 12.2841 7.54712 12.6139 7.54712ZM8.10239 14.7735C10.0363 15.7705 11.6143 17.3436 12.6139 19.2723C13.6136 17.3436 15.1916 15.7705 17.1255 14.7735C15.1916 13.7765 13.6136 12.2034 12.6139 10.2748C11.6143 12.2034 10.0363 13.7765 8.10239 14.7735Z" fill="#000000" />
</svg>