<svg width="24px"  height="24px"  viewBox="0 0 25 24" fill="none" xmlns="http://www.w3.org/2000/svg">
<path fill-rule="evenodd" clip-rule="evenodd" d="M17.5504 15.4724L17.5855 12.3107L17.5856 12.3087C17.5933 11.7514 17.8737 11.2324 18.3362 10.9203C18.3366 10.92 18.3371 10.9198 18.3375 10.9195L20.9942 9.11654C21.0288 9.09364 21.0561 9.05869 21.07 9.01714C21.1012 8.91832 21.047 8.81267 20.9483 8.78055C20.9482 8.78051 20.9484 8.78059 20.9483 8.78055L17.9222 7.80593C17.9218 7.80579 17.9214 7.80566 17.921 7.80553C17.388 7.63495 16.9728 7.2089 16.8176 6.66893C16.8175 6.66883 16.8176 6.66903 16.8176 6.66893L15.9465 3.64201C15.9336 3.60214 15.9077 3.56506 15.8714 3.53762C15.7802 3.47309 15.6551 3.49366 15.5895 3.58345L15.5859 3.58843L13.6799 6.15189C13.3476 6.59732 12.8193 6.85597 12.2612 6.84221L9.07087 6.76261L9.06637 6.76248C9.02102 6.76108 8.97764 6.77392 8.9404 6.79981C8.85007 6.86386 8.82833 6.98883 8.88957 7.07883L10.735 9.63113C10.7352 9.63136 10.7349 9.63089 10.735 9.63113C11.0656 10.0863 11.1452 10.6767 10.9503 11.2022C10.9501 11.2027 10.95 11.2033 10.9498 11.2038L9.8547 14.1838C9.85464 14.184 9.85476 14.1836 9.8547 14.1838C9.83955 14.2257 9.83918 14.2699 9.85236 14.3094C9.88495 14.4072 9.99196 14.4619 10.0919 14.4287L10.0992 14.4262L13.1493 13.4471C13.1496 13.447 13.149 13.4472 13.1493 13.4471M17.5504 15.4724C17.5457 15.5865 17.4507 15.6777 17.3328 15.6752C17.292 15.6741 17.2498 15.66 17.2151 15.6353M19.05 15.507C19.026 16.4536 18.2396 17.1974 17.2962 17.1748L17.2949 17.1748C16.9433 17.1657 16.6013 17.0475 16.3188 16.8381L16.3095 16.8312L13.7963 14.9068C13.7961 14.9067 13.7964 14.9069 13.7963 14.9068C13.7428 14.8663 13.6733 14.8542 13.6094 14.8748L10.5609 15.8534C9.67875 16.1442 8.72432 15.6682 8.42953 14.7843C8.30779 14.4196 8.31516 14.0272 8.44551 13.6698L8.44613 13.6681L9.54283 10.6836L9.54386 10.6809C9.56535 10.6231 9.55595 10.5602 9.52182 10.5132L9.52066 10.5116L7.66427 7.94422C7.12323 7.1748 7.31028 6.11266 8.07787 5.5726L8.07911 5.57174C8.38138 5.35997 8.74231 5.25229 9.11019 5.26312C9.11105 5.26315 9.11192 5.26317 9.11278 5.2632L12.2982 5.34267C12.3677 5.34438 12.4347 5.31215 12.4773 5.25539C12.4774 5.25525 12.4772 5.25552 12.4773 5.25539L14.3805 2.69554C14.9355 1.93939 15.9965 1.77432 16.7553 2.32571L16.7597 2.32889C17.0543 2.54619 17.2744 2.85378 17.3825 3.2082L17.3859 3.21943L18.2591 6.25412C18.2756 6.31175 18.3208 6.35859 18.3784 6.37696L18.3802 6.37755L21.4086 7.35293C22.2971 7.64022 22.7835 8.59329 22.4968 9.4799L22.496 9.48231C22.3783 9.84219 22.1428 10.1539 21.826 10.3649L19.1754 12.1636C19.1201 12.2009 19.0866 12.263 19.0854 12.3288C19.0854 12.329 19.0854 12.3286 19.0854 12.3288L19.05 15.507Z" fill="#000000" />
<path fill-rule="evenodd" clip-rule="evenodd" d="M9.67379 21.7803C9.3809 21.4874 9.38091 21.0125 9.67381 20.7197L12.7421 17.6515C13.035 17.3586 13.5099 17.3586 13.8028 17.6515C14.0957 17.9444 14.0957 18.4193 13.8028 18.7121L10.7345 21.7803C10.4416 22.0732 9.96668 22.0732 9.67379 21.7803Z" fill="#000000" />
<path fill-rule="evenodd" clip-rule="evenodd" d="M4.59704 19.9281C4.30409 19.6353 4.30402 19.1604 4.59686 18.8675L6.04283 17.421C6.33567 17.1281 6.81054 17.128 7.10349 17.4209C7.39643 17.7137 7.3965 18.1886 7.10366 18.4815L5.6577 19.9279C5.36485 20.2209 4.88998 20.221 4.59704 19.9281Z" fill="#000000" />
<path fill-rule="evenodd" clip-rule="evenodd" d="M2.86947 14.8109C2.57658 14.518 2.57657 14.0431 2.86946 13.7502L6.14056 10.479C6.43345 10.1861 6.90832 10.1861 7.20122 10.479C7.49412 10.7719 7.49413 11.2467 7.20124 11.5396L3.93014 14.8108C3.63725 15.1037 3.16237 15.1037 2.86947 14.8109Z" fill="#000000" />
</svg>