<svg width="24px"  height="24px"  viewBox="0 0 25 24" fill="none" xmlns="http://www.w3.org/2000/svg">
<path fill-rule="evenodd" clip-rule="evenodd" d="M9.7682 9.52428L8.44215 12.1706L8.44095 12.173C8.19816 12.6532 7.73568 12.984 7.20359 13.0592C7.20312 13.0592 7.20264 13.0593 7.20216 13.0594L4.22714 13.4878C4.19724 13.4918 4.17016 13.5056 4.15038 13.526C4.10141 13.5772 4.10256 13.6585 4.15386 13.7083C4.15399 13.7085 4.15373 13.7082 4.15386 13.7083L6.3012 15.7694C6.30148 15.7697 6.30176 15.7699 6.30205 15.7702C6.69249 16.1437 6.87216 16.6874 6.77901 17.221C6.779 17.2211 6.77902 17.221 6.77901 17.221L6.27186 20.1284C6.26783 20.1562 6.27234 20.186 6.28708 20.2144C6.32412 20.283 6.4092 20.3086 6.47762 20.2723L6.48416 20.2688L9.13837 18.8932C9.61567 18.6466 10.1832 18.6461 10.6605 18.8927L13.32 20.2713C13.3475 20.2858 13.3787 20.2911 13.4093 20.2864C13.4863 20.2736 13.5376 20.2023 13.527 20.1269L13.0202 17.2227C13.0202 17.2224 13.0201 17.222 13.0201 17.2217C12.9259 16.6871 13.1056 16.1429 13.4972 15.7692C13.4977 15.7687 13.4982 15.7682 13.4987 15.7678L15.6426 13.7079C15.6427 13.7079 15.6425 13.708 15.6426 13.7079C15.6631 13.6881 15.6771 13.6608 15.681 13.632C15.6902 13.5601 15.6395 13.4962 15.5705 13.4871L15.5612 13.4859L12.5946 13.0586C12.5941 13.0586 12.5936 13.0585 12.5931 13.0584C12.0613 12.9833 11.598 12.6525 11.3558 12.1708L10.0313 9.52395C10.0167 9.49711 9.99533 9.47661 9.9704 9.46376L9.96899 9.46303C9.89584 9.42513 9.80689 9.45302 9.7682 9.52428ZM10.6583 8.13081C9.84969 7.71234 8.85429 8.02749 8.43496 8.83685L7.1023 11.4962C7.10242 11.496 7.10218 11.4964 7.1023 11.4962C7.08096 11.5379 7.04006 11.5674 6.99368 11.5739L4.02531 12.0014C3.66225 12.0506 3.32542 12.2206 3.07047 12.485C2.44611 13.1335 2.46621 14.1645 3.11283 14.7883L3.11419 14.7896L5.26382 16.8528L5.26513 16.8541C5.29512 16.8827 5.30825 16.9236 5.30135 16.9631L4.79313 19.8766L4.79173 19.885C4.73397 20.2395 4.79485 20.6005 4.9608 20.9151L4.96177 20.917C5.38605 21.716 6.37688 22.0214 7.17723 21.5991L9.82775 20.2254C9.82765 20.2254 9.82785 20.2253 9.82775 20.2254C9.87298 20.2021 9.92636 20.202 9.97159 20.2252C9.97147 20.2251 9.9717 20.2253 9.97159 20.2252L12.6213 21.5986C12.9353 21.764 13.2946 21.8235 13.6458 21.7677L13.6473 21.7674C14.5418 21.6232 15.1519 20.7816 15.0074 19.8854L14.4976 16.9633L14.4973 16.9616C14.4904 16.9223 14.5032 16.8825 14.5329 16.8542L16.6839 14.7876C16.9492 14.5317 17.1197 14.1932 17.1681 13.8289L17.1682 13.8277C17.2848 12.939 16.6617 12.1205 15.7711 12.0006L12.8058 11.5736L12.8031 11.5732C12.7564 11.5666 12.7166 11.5377 12.6962 11.4974C12.6962 11.4975 12.6961 11.4973 12.6962 11.4974L11.3695 8.84623L11.3649 8.83713C11.2082 8.53448 10.9619 8.28744 10.6583 8.13081Z" fill="#000000" />
<path fill-rule="evenodd" clip-rule="evenodd" d="M18.6999 2.28618C18.8993 2.3831 19.0456 2.56325 19.0995 2.77826L19.6364 4.91919C19.7371 5.32096 19.4931 5.72834 19.0913 5.82909C18.6896 5.92984 18.2822 5.68582 18.1814 5.28405L17.8697 4.04109C16.3058 4.87471 15.0021 5.97191 13.9981 7.04C12.817 8.29659 12.0909 9.46962 11.8446 10.0592C11.685 10.4415 11.2457 10.6219 10.8635 10.4623C10.4813 10.3026 10.3008 9.86337 10.4605 9.48116C10.7955 8.67894 11.6409 7.35765 12.9051 6.01267C14.1782 4.65822 15.9163 3.2362 18.0661 2.27591C18.2685 2.1855 18.5006 2.18926 18.6999 2.28618Z" fill="#000000" />
<path fill-rule="evenodd" clip-rule="evenodd" d="M19.5839 7.73232C19.9861 7.63341 20.3923 7.8793 20.4913 8.28153L21.1046 10.7759C21.16 11.0009 21.1082 11.2388 20.9644 11.4205C20.8206 11.6022 20.6009 11.7072 20.3692 11.705C19.1905 11.6937 18.0966 11.9427 17.2164 12.2683C16.3219 12.5993 15.702 12.9889 15.4529 13.2131C15.145 13.4902 14.6708 13.4653 14.3937 13.1574C14.1166 12.8495 14.1416 12.3753 14.4495 12.0982C14.8855 11.7058 15.6922 11.2329 16.6959 10.8615C17.4765 10.5727 18.4086 10.3331 19.4289 10.243L19.0346 8.63972C18.9357 8.23748 19.1816 7.83123 19.5839 7.73232Z" fill="#000000" />
<path fill-rule="evenodd" clip-rule="evenodd" d="M21.5281 3.3689C21.718 3.48092 21.849 3.67081 21.8863 3.8881L22.6037 8.07068C22.6428 8.29857 22.5746 8.53176 22.4188 8.70266C22.2631 8.87356 22.0372 8.96306 21.8067 8.94524C19.7911 8.78939 17.8618 9.53165 16.3565 10.3979C14.859 11.2597 13.855 12.2016 13.7159 12.3367C13.4187 12.6252 12.9439 12.6183 12.6553 12.3211C12.3667 12.024 12.3737 11.5492 12.6708 11.2606C12.864 11.073 13.9674 10.0421 15.6084 9.09779C17.027 8.28144 18.9036 7.4974 20.9718 7.42918L20.5674 5.07146C19.821 5.42896 18.9126 5.95836 17.964 6.59851C16.6367 7.49425 15.2833 8.57125 14.2498 9.61818C13.9588 9.91296 13.4839 9.91603 13.1892 9.62504C12.8944 9.33405 12.8913 8.85918 13.1823 8.5644C14.3025 7.4296 15.7383 6.29091 17.125 5.35515C18.5023 4.42567 19.8841 3.66047 20.9005 3.3066C21.1087 3.23411 21.3382 3.25689 21.5281 3.3689Z" fill="#000000" />
</svg>