<svg width="24px"  height="24px"  viewBox="0 0 25 25" fill="none" xmlns="http://www.w3.org/2000/svg">
<path fill-rule="evenodd" clip-rule="evenodd" d="M14.985 3.94478C15.2779 4.23768 15.2779 4.71255 14.985 5.00544L11.9004 8.08985C11.6075 8.38273 11.1327 8.38272 10.8398 8.08982C10.5469 7.79692 10.5469 7.32205 10.8398 7.02916L13.9243 3.94476C14.2172 3.65187 14.6921 3.65188 14.985 3.94478Z" fill="#000000" />
<path fill-rule="evenodd" clip-rule="evenodd" d="M20.6633 6.70201C20.9562 6.99485 20.9563 7.46972 20.6635 7.76267L19.2099 9.21674C18.917 9.50969 18.4421 9.50976 18.1492 9.21692C17.8563 8.92407 17.8562 8.4492 18.149 8.15626L19.6026 6.70218C19.8955 6.40924 20.3703 6.40916 20.6633 6.70201Z" fill="#000000" />
<path fill-rule="evenodd" clip-rule="evenodd" d="M20.5649 2.81797C20.8578 3.11082 20.8579 3.58569 20.5651 3.87863L19.1115 5.33271C18.8186 5.62565 18.3438 5.62573 18.0508 5.33288C17.7579 5.04004 17.7578 4.56517 18.0506 4.27222L19.5042 2.81815C19.7971 2.5252 20.272 2.52513 20.5649 2.81797Z" fill="#000000" />
<path fill-rule="evenodd" clip-rule="evenodd" d="M16.674 10.9405C16.967 11.2334 16.967 11.7082 16.6742 12.0012L16.6642 12.0112C16.3714 12.3041 15.8965 12.3042 15.6035 12.0114C15.3106 11.7185 15.3105 11.2436 15.6034 10.9507L15.6134 10.9407C15.9062 10.6478 16.3811 10.6477 16.674 10.9405Z" fill="#000000" />
<path fill-rule="evenodd" clip-rule="evenodd" d="M7.44283 16.1983C7.73577 16.4912 7.73585 16.9661 7.443 17.259L7.433 17.269C7.14016 17.5619 6.66529 17.562 6.37234 17.2692C6.0794 16.9763 6.07933 16.5015 6.37217 16.2085L6.38217 16.1985C6.67501 15.9056 7.14989 15.9055 7.44283 16.1983Z" fill="#000000" />
<path fill-rule="evenodd" clip-rule="evenodd" d="M11.3869 17.3128C11.6799 17.6057 11.6799 18.0806 11.3871 18.3735L11.3771 18.3835C11.0843 18.6764 10.6094 18.6765 10.3164 18.3837C10.0235 18.0908 10.0234 17.616 10.3163 17.323L10.3263 17.313C10.6191 17.0201 11.094 17.02 11.3869 17.3128Z" fill="#000000" />
<path fill-rule="evenodd" clip-rule="evenodd" d="M21.8255 10.9509C22.1184 11.2438 22.1185 11.7186 21.8256 12.0115L18.5372 15.3C18.2443 15.5929 17.7694 15.5929 17.4765 15.3C17.1836 15.0071 17.1836 14.5323 17.4765 14.2394L20.7649 10.9509C21.0578 10.658 21.5326 10.658 21.8255 10.9509Z" fill="#000000" />
<path fill-rule="evenodd" clip-rule="evenodd" d="M6.35665 12.2312C5.67795 12.2312 5.11049 12.7472 5.04616 13.4228L4.68955 17.1682C4.64487 17.6376 4.85459 18.095 5.23939 18.3674L8.04838 20.3561C8.36837 20.5827 8.77268 20.6548 9.15127 20.5529L12.8629 19.5536C13.4581 19.3933 13.8436 18.818 13.7654 18.2066C13.7291 17.923 13.5386 17.6235 13.1893 17.1252C13.177 17.1077 13.1645 17.0899 13.1518 17.0718C12.8599 16.6565 12.4422 16.0622 12.3579 15.3677L13.062 15.2822L12.3579 15.3677C12.3376 15.201 12.332 15.0342 12.3363 14.8726C12.3565 14.1069 12.1982 13.5122 11.8285 13.1754L11.1687 12.5744C10.9263 12.3536 10.6101 12.2312 10.2822 12.2312H6.35665ZM3.55291 13.2807C3.69054 11.8352 4.90459 10.7312 6.35665 10.7312H10.2822C10.9838 10.7312 11.6601 10.9931 12.1788 11.4655L12.8386 12.0665L12.4471 12.4963L12.8386 12.0665C13.7011 12.8521 13.8596 14.0118 13.8358 14.9122C13.8331 15.013 13.837 15.1051 13.8469 15.187C13.8811 15.4684 14.069 15.767 14.4176 16.2642C14.4308 16.2831 14.4444 16.3025 14.4583 16.3222C14.7494 16.7361 15.1651 17.3272 15.2532 18.0163C15.4266 19.3716 14.5723 20.6468 13.2529 21.002L9.54123 22.0013C8.73126 22.2193 7.86625 22.065 7.18164 21.5804L4.37266 19.5917C3.5494 19.0088 3.1007 18.0302 3.19631 17.0261L3.55291 13.2807Z" fill="#000000" />
</svg>