<svg width="24px"  height="24px"  viewBox="0 0 25 24" fill="none" xmlns="http://www.w3.org/2000/svg">
<path fill-rule="evenodd" clip-rule="evenodd" d="M7.93066 3.4252C8.22073 3.25773 8.58669 3.3029 8.82733 3.53587C11.1147 5.75034 14.7466 5.75034 17.034 3.53587C17.2746 3.3029 17.6406 3.25773 17.9307 3.4252C18.2207 3.59268 18.3646 3.93218 18.2832 4.25708C17.5091 7.34525 19.325 10.4905 22.3865 11.3643C22.7086 11.4562 22.9307 11.7505 22.9307 12.0855C22.9307 12.4204 22.7086 12.7147 22.3865 12.8067C19.325 13.6804 17.5091 16.8257 18.2832 19.9138C18.3646 20.2387 18.2207 20.5782 17.9307 20.7457C17.6406 20.9132 17.2746 20.868 17.034 20.635C14.7466 18.4206 11.1147 18.4206 8.82733 20.635C8.58669 20.868 8.22073 20.9132 7.93066 20.7457C7.64059 20.5782 7.49673 20.2387 7.57817 19.9138C8.35226 16.8257 6.53632 13.6804 3.47484 12.8067C3.15276 12.7147 2.93066 12.4204 2.93066 12.0855C2.93066 11.7505 3.15276 11.4562 3.47484 11.3643C6.53632 10.4905 8.35226 7.34525 7.57817 4.25708C7.49673 3.93218 7.64059 3.59268 7.93066 3.4252ZM9.25673 5.72202C9.24753 8.33716 7.84298 10.7699 5.58279 12.0855C7.84298 13.401 9.24753 15.8338 9.25673 18.4489C11.5261 17.1493 14.3352 17.1493 16.6046 18.4489C16.6138 15.8338 18.0183 13.401 20.2785 12.0855C18.0183 10.7699 16.6138 8.33716 16.6046 5.72202C14.3352 7.02162 11.5261 7.02162 9.25673 5.72202Z" fill="#000000" />
</svg>