<svg width="24px"  height="24px"  viewBox="0 0 25 25" fill="none" xmlns="http://www.w3.org/2000/svg">
<path d="M12.4767 17.9578C9.52675 17.9578 7.12671 15.5578 7.12671 12.6078C7.12671 9.65779 9.52675 7.25781 12.4767 7.25781C15.4267 7.25781 17.8267 9.65779 17.8267 12.6078C17.8267 15.5578 15.4267 17.9578 12.4767 17.9578ZM12.4767 8.76776C10.3567 8.76776 8.62671 10.4978 8.62671 12.6178C8.62671 14.7378 10.3567 16.4678 12.4767 16.4678C14.5967 16.4678 16.3267 14.7378 16.3267 12.6178C16.3267 10.4978 14.5967 8.76776 12.4767 8.76776Z" fill="#000000" />
<path d="M10.2568 14.3979C9.93682 14.3979 9.60682 14.3379 9.31682 14.2079C8.79682 13.9979 8.55684 13.6079 8.39684 13.3479C8.36684 13.3079 8.33682 13.2579 8.31682 13.2179C8.29682 13.2279 8.22681 13.2479 8.11681 13.2779C7.72681 13.4079 7.29686 13.1879 7.17686 12.7979C7.04686 12.4079 7.26685 11.9779 7.65685 11.8579C8.97685 11.4279 9.45681 12.1979 9.68681 12.5679C9.79681 12.7479 9.83685 12.8078 9.90685 12.8278C10.2568 12.9778 10.6569 12.8578 10.7269 12.7678C10.6969 12.7378 10.6668 12.6879 10.6368 12.6479L10.5568 12.5479C10.4768 12.4479 10.3668 12.3179 10.2768 12.1479C10.1768 11.9679 10.1068 11.7679 10.0668 11.5679C9.88682 10.7679 10.3769 10.1079 10.6069 9.78787C10.6969 9.66787 10.7468 9.58787 10.7768 9.53787C10.7468 9.40787 10.6269 9.15786 10.5469 8.96786L10.3868 8.60787C10.2268 8.22787 10.3968 7.78789 10.7768 7.62789C11.1568 7.46789 11.5968 7.63785 11.7568 8.01785L11.9068 8.34786C12.1168 8.80786 12.3168 9.23786 12.2768 9.71786C12.2568 9.99786 12.1168 10.2679 11.8068 10.6879C11.5968 10.9679 11.5068 11.1479 11.5268 11.2379C11.5468 11.3179 11.5669 11.3879 11.6069 11.4579C11.6269 11.4879 11.6768 11.5479 11.7168 11.6079C11.7568 11.6579 11.8068 11.7178 11.8468 11.7678C11.9768 11.9478 12.0768 12.1479 12.1368 12.3479C12.3168 12.9279 12.1568 13.5079 11.7168 13.8979C11.3468 14.2279 10.8168 14.4079 10.2668 14.4079L10.2568 14.3979Z" fill="#000000" />
<path d="M13.5466 17.8079C13.3066 17.8079 13.0666 17.6879 12.9266 17.4779C12.1966 16.3879 12.8165 15.448 13.1965 14.888C13.6465 14.208 13.7066 14.0379 13.3566 13.6079C12.7366 12.9879 12.5266 12.0379 12.8966 11.3579C13.2266 10.7579 13.8965 10.5079 14.6965 10.6779C15.1665 10.7779 15.5366 11.0179 15.8566 11.2179C16.3266 11.5179 16.5066 11.6079 16.7966 11.5179C17.1866 11.3879 17.6165 11.6079 17.7465 11.9979C17.8765 12.3879 17.6566 12.818 17.2666 12.948C16.2866 13.268 15.5665 12.8179 15.0565 12.4879C14.8065 12.3279 14.5965 12.1879 14.3865 12.1479C14.2665 12.1179 14.1866 12.128 14.1766 12.138C14.1766 12.138 14.2466 12.3779 14.4866 12.6179C15.6066 14.0079 14.8866 15.0879 14.4566 15.7279C14.0566 16.3279 14.0465 16.4379 14.1865 16.6479C14.4165 16.9879 14.3266 17.4579 13.9866 17.6879C13.8566 17.7779 13.7165 17.818 13.5665 17.818L13.5466 17.8079Z" fill="#000000" />
<path d="M18.8868 8.71782C17.9068 8.71782 17.0368 8.13783 16.6568 7.22783C16.2868 6.31783 16.4869 5.28782 17.1769 4.59782C18.1169 3.65782 19.6468 3.65782 20.5868 4.59782C21.2768 5.28782 21.4868 6.31783 21.1068 7.22783C20.7268 8.12783 19.8568 8.71782 18.8768 8.71782H18.8868ZM18.8868 5.39781C18.6568 5.39781 18.4169 5.48783 18.2369 5.66783C17.9769 5.92783 17.8968 6.31783 18.0368 6.66783C18.1768 7.00783 18.5068 7.22783 18.8768 7.22783C19.2468 7.22783 19.5768 7.00783 19.7168 6.66783C19.8568 6.32783 19.7768 5.93784 19.5168 5.67784C19.3368 5.49784 19.1068 5.40782 18.8668 5.40782L18.8868 5.39781Z" fill="#000000" />
<path d="M12.6166 22.2379C11.6666 22.2379 10.7266 22.0979 9.81664 21.8179C9.41664 21.6979 9.19664 21.2779 9.31664 20.8779C9.43664 20.4779 9.85664 20.2579 10.2566 20.3779C11.0266 20.6079 11.8266 20.7279 12.6166 20.7279C15.0266 20.7279 17.2967 19.6679 18.8467 17.8179C20.3967 15.9679 21.0367 13.5479 20.6067 11.1779C20.5367 10.7679 20.8067 10.3779 21.2167 10.3079C21.6267 10.2379 22.0167 10.5079 22.0867 10.9179C22.5967 13.7279 21.8366 16.5979 19.9966 18.7879C18.1666 20.9779 15.4766 22.2379 12.6166 22.2379Z" fill="#000000" />
<path d="M5.86673 7.60782C5.69673 7.60782 5.51674 7.54782 5.37674 7.42782C5.06674 7.15782 5.02678 6.68783 5.29678 6.36783C5.79678 5.78783 6.35677 5.27779 6.96677 4.82779C7.30677 4.58779 7.77675 4.65783 8.01675 4.99783C8.25675 5.33783 8.18677 5.79782 7.84677 6.04782C7.32677 6.41782 6.85674 6.85781 6.43674 7.34781C6.28674 7.51781 6.07673 7.60782 5.86673 7.60782Z" fill="#000000" />
<path d="M3.73657 13.3679C3.31657 13.3679 2.98657 13.0279 2.98657 12.6179C2.98657 11.5279 3.17657 10.4478 3.54657 9.40784C3.68657 9.01784 4.11653 8.80782 4.50653 8.95782C4.89653 9.09782 5.09654 9.52785 4.95654 9.91785C4.64654 10.7878 4.48657 11.6979 4.48657 12.6279C4.48657 13.0379 4.14657 13.3779 3.73657 13.3779V13.3679Z" fill="#000000" />
<path d="M7.40693 20.5379C7.25693 20.5379 7.09693 20.4879 6.96693 20.3979C5.38693 19.2479 4.2069 17.6679 3.5569 15.8279C3.4169 15.4379 3.62692 15.0079 4.01692 14.8679C4.40692 14.7279 4.83694 14.9379 4.97694 15.3279C5.52694 16.8879 6.52694 18.2179 7.85694 19.1879C8.18694 19.4279 8.26693 19.8979 8.02693 20.2379C7.87693 20.4379 7.64694 20.5479 7.41694 20.5479L7.40693 20.5379Z" fill="#000000" />
<path d="M17.5869 6.02777C17.4469 6.02777 17.2969 5.98777 17.1669 5.89777C15.8169 4.97777 14.2469 4.4978 12.6169 4.4978C12.6169 4.4978 12.5969 4.4978 12.5769 4.4978C11.7869 4.4978 11.0069 4.61778 10.2469 4.84778C9.84688 4.96778 9.42687 4.74778 9.30687 4.34778C9.18687 3.94778 9.40687 3.52778 9.80687 3.40778C10.7169 3.12778 11.6569 2.98779 12.6069 2.98779C12.6169 2.98779 12.6369 2.98779 12.6469 2.98779C14.5669 2.98779 16.4169 3.56777 18.0069 4.64777C18.3469 4.87777 18.4369 5.34781 18.2069 5.68781C18.0669 5.89781 17.8269 6.01776 17.5869 6.01776V6.02777Z" fill="#000000" />
</svg>