<svg width="24px"  height="24px"  viewBox="0 0 25 25" fill="none" xmlns="http://www.w3.org/2000/svg">
<path fill-rule="evenodd" clip-rule="evenodd" d="M12.6143 4.36279C8.05791 4.36279 4.36426 8.05644 4.36426 12.6128C4.36426 17.1691 8.05791 20.8628 12.6143 20.8628C17.1706 20.8628 20.8643 17.1691 20.8643 12.6128C20.8643 8.05644 17.1706 4.36279 12.6143 4.36279ZM2.86426 12.6128C2.86426 7.22802 7.22948 2.86279 12.6143 2.86279C17.999 2.86279 22.3643 7.22802 22.3643 12.6128C22.3643 17.9976 17.999 22.3628 12.6143 22.3628C7.22948 22.3628 2.86426 17.9976 2.86426 12.6128Z" fill="#000000" />
<path fill-rule="evenodd" clip-rule="evenodd" d="M12.7383 10.3386C13.1525 10.3386 13.4883 10.6744 13.4883 11.0886V11.106C13.4883 11.5202 13.1525 11.856 12.7383 11.856C12.3241 11.856 11.9883 11.5202 11.9883 11.106V11.0886C11.9883 10.6744 12.3241 10.3386 12.7383 10.3386Z" fill="#000000" />
<path fill-rule="evenodd" clip-rule="evenodd" d="M9.54761 17.2017C9.96182 17.2017 10.2976 17.5374 10.2976 17.9517V17.969C10.2976 18.3832 9.96182 18.719 9.54761 18.719C9.13339 18.719 8.79761 18.3832 8.79761 17.969V17.9517C8.79761 17.5374 9.13339 17.2017 9.54761 17.2017Z" fill="#000000" />
<path fill-rule="evenodd" clip-rule="evenodd" d="M3.01392 11.0886C3.01392 10.6744 3.3497 10.3386 3.76392 10.3386H10.0139C10.4281 10.3386 10.7639 10.6744 10.7639 11.0886C10.7639 11.5028 10.4281 11.8386 10.0139 11.8386H3.76392C3.3497 11.8386 3.01392 11.5028 3.01392 11.0886Z" fill="#000000" />
<path fill-rule="evenodd" clip-rule="evenodd" d="M3.16992 14.9602C3.16992 14.546 3.50571 14.2102 3.91992 14.2102H14.4326C14.8468 14.2102 15.1826 14.546 15.1826 14.9602C15.1826 15.3744 14.8468 15.7102 14.4326 15.7102H3.91992C3.50571 15.7102 3.16992 15.3744 3.16992 14.9602Z" fill="#000000" />
<path fill-rule="evenodd" clip-rule="evenodd" d="M14.6143 12.6128C14.6143 12.1986 14.95 11.8628 15.3643 11.8628H21.6143C22.0285 11.8628 22.3643 12.1986 22.3643 12.6128C22.3643 13.027 22.0285 13.3628 21.6143 13.3628H15.3643C14.95 13.3628 14.6143 13.027 14.6143 12.6128Z" fill="#000000" />
<path fill-rule="evenodd" clip-rule="evenodd" d="M13.1057 7.7063C13.1057 7.29209 13.4415 6.9563 13.8557 6.9563H20.1057C20.5199 6.9563 20.8557 7.29209 20.8557 7.7063C20.8557 8.12051 20.5199 8.4563 20.1057 8.4563H13.8557C13.4415 8.4563 13.1057 8.12051 13.1057 7.7063Z" fill="#000000" />
<path fill-rule="evenodd" clip-rule="evenodd" d="M11.2764 17.969C11.2764 17.5548 11.6122 17.219 12.0264 17.219L19.8457 17.219C20.2599 17.219 20.5957 17.5548 20.5957 17.969C20.5957 18.3832 20.2599 18.719 19.8457 18.719L12.0264 18.719C11.6122 18.719 11.2764 18.3832 11.2764 17.969Z" fill="#000000" />
<path fill-rule="evenodd" clip-rule="evenodd" d="M4.13672 8.05225C4.13672 7.63803 4.47251 7.30225 4.88672 7.30225H7.77637C8.19058 7.30225 8.52637 7.63803 8.52637 8.05225C8.52637 8.46646 8.19058 8.80225 7.77637 8.80225H4.88672C4.47251 8.80225 4.13672 8.46646 4.13672 8.05225Z" fill="#000000" />
</svg>