<svg width="24px"  height="24px"  viewBox="0 0 25 25" fill="none" xmlns="http://www.w3.org/2000/svg">
<path d="M4.00192 18.2241C3.83192 18.2241 3.65193 18.1641 3.51193 18.0441C3.20193 17.7741 3.17192 17.2941 3.44192 16.9841C5.35192 14.7841 8.75195 13.4641 12.532 13.4541H12.602C16.392 13.4541 19.822 14.7741 21.782 16.9841C22.052 17.2941 22.032 17.7641 21.722 18.0441C21.412 18.3141 20.932 18.2941 20.662 17.9841C18.982 16.0841 15.972 14.9641 12.602 14.9641H12.532C9.17195 14.9741 6.20198 16.1041 4.56198 17.9841C4.41198 18.1541 4.20197 18.2441 3.99197 18.2441L4.00192 18.2241Z" fill="#000000" />
<path d="M11.1416 17.1643C10.7316 17.1643 10.3916 16.8243 10.3916 16.4143V4.89429C10.3916 4.48429 10.7316 4.14429 11.1416 4.14429C11.5516 4.14429 11.8916 4.48429 11.8916 4.89429V16.4143C11.8916 16.8243 11.5516 17.1643 11.1416 17.1643Z" fill="#000000" />
<path d="M12.6118 21.8242C12.2018 21.8242 11.8618 21.4842 11.8618 21.0742C11.8618 20.6642 12.2018 20.3242 12.6118 20.3242C13.0218 20.3242 13.3618 20.6542 13.3618 21.0742C13.3618 21.4942 13.0218 21.8342 12.6118 21.8342V21.8242Z" fill="#000000" />
<path d="M5.98193 10.5242C5.57193 10.5242 5.23193 10.1842 5.23193 9.77417C5.23193 9.36417 5.57193 9.02417 5.98193 9.02417C6.39193 9.02417 6.73193 9.35417 6.73193 9.77417C6.73193 10.1942 6.39193 10.5342 5.98193 10.5342V10.5242Z" fill="#000000" />
<path d="M19.1519 3.83423C18.7419 3.83423 18.4019 3.49423 18.4019 3.08423C18.4019 2.67423 18.7419 2.33423 19.1519 2.33423C19.5619 2.33423 19.9019 2.66423 19.9019 3.08423C19.9019 3.50423 19.5619 3.84424 19.1519 3.84424V3.83423Z" fill="#000000" />
<path d="M15.9916 11.5043C15.2116 11.5043 14.7016 11.2943 14.2616 11.1043C13.8816 10.9443 13.5916 10.8243 13.1116 10.8243C12.1916 10.8243 11.6816 11.2743 11.6616 11.2943C11.3616 11.5743 10.8816 11.5543 10.6016 11.2543C10.3216 10.9543 10.3316 10.4943 10.6216 10.2043C10.7116 10.1143 11.5816 9.31427 13.1116 9.31427C13.8916 9.31427 14.4016 9.52429 14.8416 9.71429C15.2216 9.87429 15.5116 9.99432 15.9916 9.99432C16.5716 9.99432 17.0116 9.81432 17.2616 9.67432V7.36432C16.9016 7.47432 16.4816 7.56427 15.9916 7.56427C15.2116 7.56427 14.7016 7.35431 14.2616 7.16431C13.8916 7.00431 13.5916 6.88428 13.1116 6.88428C12.1916 6.88428 11.6816 7.34431 11.6616 7.35431C11.3616 7.63431 10.8916 7.61428 10.6016 7.32428C10.3216 7.02428 10.3216 6.56429 10.6216 6.27429C10.7116 6.18429 11.5816 5.38428 13.1116 5.38428C13.8916 5.38428 14.4016 5.5943 14.8416 5.7843C15.2216 5.9443 15.5116 6.06427 15.9916 6.06427C16.9316 6.06427 17.5016 5.59428 17.5216 5.57428C17.7416 5.38428 18.0616 5.33429 18.3216 5.46429C18.5916 5.58429 18.7616 5.84429 18.7616 6.14429V10.0843C18.7616 10.2943 18.6716 10.5043 18.5116 10.6443C18.4116 10.7343 17.4916 11.5143 15.9916 11.5143V11.5043Z" fill="#000000" />
<path d="M16.1216 20.9141C15.0316 20.9141 14.1416 20.0241 14.1416 18.9341C14.1416 17.8441 15.0316 16.9541 16.1216 16.9541C17.2116 16.9541 18.1016 17.8441 18.1016 18.9341C18.1016 20.0241 17.2116 20.9141 16.1216 20.9141ZM16.1216 18.4541C15.8616 18.4541 15.6416 18.6741 15.6416 18.9341C15.6416 19.1941 15.8616 19.4141 16.1216 19.4141C16.3816 19.4141 16.6016 19.2041 16.6016 18.9341C16.6016 18.6641 16.3816 18.4541 16.1216 18.4541Z" fill="#000000" />
<path d="M9.33154 19.6841C8.92154 19.6841 8.58154 19.3441 8.58154 18.9341C8.58154 18.6741 8.37156 18.4541 8.10156 18.4541C7.83156 18.4541 7.62158 18.6741 7.62158 18.9341C7.62158 19.3441 7.28158 19.6841 6.87158 19.6841C6.46158 19.6841 6.12158 19.3441 6.12158 18.9341C6.12158 17.8441 7.01156 16.9541 8.10156 16.9541C9.19156 16.9541 10.0815 17.8441 10.0815 18.9341C10.0815 19.3441 9.74154 19.6841 9.33154 19.6841Z" fill="#000000" />
</svg>