<svg width="24px"  height="24px"  viewBox="0 0 25 24" fill="none" xmlns="http://www.w3.org/2000/svg">
<path fill-rule="evenodd" clip-rule="evenodd" d="M2.86426 12C2.86426 6.61522 7.22948 2.25 12.6143 2.25C17.999 2.25 22.3643 6.61522 22.3643 12C22.3643 17.3848 17.999 21.75 12.6143 21.75C7.22948 21.75 2.86426 17.3848 2.86426 12ZM12.6143 3.75C8.05791 3.75 4.36426 7.44365 4.36426 12C4.36426 16.5563 8.05791 20.25 12.6143 20.25C17.1706 20.25 20.8643 16.5563 20.8643 12C20.8643 7.44365 17.1706 3.75 12.6143 3.75Z" fill="#000000" />
<path fill-rule="evenodd" clip-rule="evenodd" d="M21.953 10.4183C22.2292 10.727 22.203 11.2011 21.8943 11.4773C19.5851 13.5439 16.608 14.8019 13.4504 14.9673C13.0368 14.989 12.6839 14.6712 12.6622 14.2576C12.6405 13.8439 12.9583 13.491 13.3719 13.4694C16.182 13.3221 18.8353 12.202 20.894 10.3596C21.2026 10.0834 21.6768 10.1096 21.953 10.4183Z" fill="#000000" />
<path fill-rule="evenodd" clip-rule="evenodd" d="M21.6513 14.8132C21.8852 15.155 21.7978 15.6218 21.456 15.8558C17.8548 18.3211 13.2361 19.2589 8.68791 18.0403C8.28781 17.9331 8.05037 17.5218 8.15758 17.1217C8.26478 16.7216 8.67604 16.4842 9.07614 16.5914C13.1836 17.692 17.3533 16.8465 20.6087 14.618C20.9505 14.384 21.4173 14.4714 21.6513 14.8132Z" fill="#000000" />
<path fill-rule="evenodd" clip-rule="evenodd" d="M5.3078 5.75416C5.61469 5.47596 6.08899 5.49921 6.36719 5.80609C7.51097 7.0678 9.01834 8.02607 10.7873 8.50007C13.9595 9.35004 17.1894 8.43084 19.4294 6.34372C19.7325 6.06135 20.207 6.07812 20.4894 6.38117C20.7718 6.68422 20.755 7.1588 20.452 7.44117C17.8496 9.86592 14.0913 10.9383 10.3991 9.94896C8.34341 9.39814 6.58743 8.2824 5.25587 6.81355C4.97767 6.50666 5.00092 6.03236 5.3078 5.75416Z" fill="#000000" />
<path fill-rule="evenodd" clip-rule="evenodd" d="M18.1321 3.94365C18.3982 4.26111 18.3565 4.73415 18.0391 5.00022C16.0413 6.67466 13.283 7.38284 10.571 6.65618C10.1709 6.54897 9.9335 6.13772 10.0407 5.73762C10.1479 5.33752 10.5592 5.10008 10.9593 5.20729C13.1789 5.80203 15.4365 5.22435 17.0755 3.85062C17.393 3.58455 17.866 3.6262 18.1321 3.94365Z" fill="#000000" />
<path fill-rule="evenodd" clip-rule="evenodd" d="M3.24947 10.1524C3.53491 9.8522 4.00963 9.84026 4.3098 10.1257C5.7403 11.486 7.52147 12.5186 9.56468 13.0661C9.96478 13.1733 10.2022 13.5846 10.095 13.9847C9.9878 14.3848 9.57655 14.6222 9.17645 14.515C6.88527 13.9011 4.88365 12.7413 3.27614 11.2127C2.97598 10.9273 2.96404 10.4525 3.24947 10.1524Z" fill="#000000" />
</svg>