<svg width="24px"  height="24px"  viewBox="0 0 25 24" fill="none" xmlns="http://www.w3.org/2000/svg">
<path d="M5.90923 21.7617C5.01923 21.7617 4.24925 21.5017 3.67925 20.9317C1.24925 18.5017 4.53926 12.5817 8.86926 8.25171C11.1793 5.94171 13.6992 4.11171 15.9792 3.09171C18.4792 1.97171 20.4592 1.96171 21.5492 3.06171C22.6392 4.15171 22.6292 6.13172 21.5192 8.63172C20.4992 10.9117 18.6693 13.4317 16.3693 15.7417C13.0593 19.0517 8.81924 21.7617 5.91924 21.7617H5.90923ZM4.73925 19.8717C6.00925 21.1417 10.7892 19.1917 15.2992 14.6817C17.4792 12.5017 19.1992 10.1317 20.1492 8.02173C20.9692 6.18173 21.0993 4.73171 20.4893 4.12171C19.8793 3.51171 18.4292 3.6417 16.5892 4.4617C14.4792 5.4017 12.1093 7.12171 9.92925 9.31171C5.41925 13.8217 3.46925 18.6017 4.73925 19.8717Z" fill="#000000" />
<path d="M19.3193 21.7421C18.3693 21.7421 17.2392 21.4621 15.9792 20.8921C13.6992 19.8721 11.1793 18.0421 8.86926 15.7321C4.53926 11.4021 1.24925 5.48214 3.67925 3.05214C4.76925 1.95214 6.74926 1.97214 9.24926 3.08214C11.5293 4.10214 14.0492 5.93214 16.3592 8.24214C20.6892 12.5721 23.9792 18.4921 21.5492 20.9221C21.0092 21.4621 20.2493 21.7321 19.3193 21.7321V21.7421ZM5.90923 3.74214C5.38923 3.74214 4.98925 3.86211 4.73925 4.12211C3.46925 5.39211 5.41925 10.1721 9.92925 14.6821C12.1093 16.8621 14.4792 18.5821 16.5892 19.5321C18.4292 20.3521 19.8793 20.4821 20.4893 19.8721C21.7593 18.6021 19.8092 13.8221 15.2992 9.31212C13.1192 7.13212 10.7492 5.41211 8.63921 4.46211C7.56921 3.98211 6.62923 3.74214 5.90923 3.74214Z" fill="#000000" />
<path d="M12.6191 13.3221C11.8891 13.3221 11.2891 12.7321 11.2891 11.9921C11.2891 11.2521 11.8791 10.6621 12.6191 10.6621C13.3591 10.6621 13.9391 11.2521 13.9391 11.9921C13.9391 12.7321 13.3491 13.3221 12.6191 13.3221Z" fill="#000000" />
</svg>