<svg width="24px"  height="24px"  viewBox="0 0 25 24" fill="none" xmlns="http://www.w3.org/2000/svg">
<path fill-rule="evenodd" clip-rule="evenodd" d="M16.1522 2.34331C16.3743 1.99367 16.8378 1.89029 17.1874 2.11239L18.78 3.12408C19.1297 3.34618 19.2331 3.80967 19.011 4.1593C18.7889 4.50894 18.3254 4.61232 17.9757 4.39022L16.3831 3.37853C16.0335 3.15643 15.9301 2.69294 16.1522 2.34331Z" fill="#000000" />
<path fill-rule="evenodd" clip-rule="evenodd" d="M19.3885 7.55669C19.6106 7.20705 20.0741 7.10367 20.4237 7.32577L22.0164 8.33746C22.366 8.55956 22.4694 9.02305 22.2473 9.37268C22.0252 9.72231 21.5617 9.8257 21.2121 9.6036L19.6194 8.5919C19.2698 8.3698 19.1664 7.90632 19.3885 7.55669Z" fill="#000000" />
<path fill-rule="evenodd" clip-rule="evenodd" d="M3.82796 19.8409C4.05006 19.4912 4.51355 19.3878 4.86318 19.6099L6.45581 20.6216C6.80545 20.8437 6.90883 21.3072 6.68673 21.6569C6.46463 22.0065 6.00115 22.1099 5.65151 21.8878L4.05888 20.8761C3.70925 20.654 3.60586 20.1905 3.82796 19.8409Z" fill="#000000" />
<path fill-rule="evenodd" clip-rule="evenodd" d="M4.91852 8.21393C4.58474 8.28064 4.46657 8.39461 4.42258 8.46364C4.3669 8.55104 4.29778 8.78677 4.49833 9.30989C4.69246 9.81625 5.09152 10.4526 5.70302 11.1787C6.92002 12.6236 8.86541 14.291 11.2563 15.8142C13.6471 17.3375 15.9804 18.3961 17.8043 18.8885C18.7207 19.1359 19.4661 19.2287 20.0071 19.1907C20.5659 19.1514 20.7504 18.9891 20.806 18.9017C20.8457 18.8395 20.8912 18.7124 20.8451 18.452C20.7979 18.186 20.6625 17.8351 20.4087 17.4053C20.1981 17.0486 20.3166 16.5887 20.6733 16.3781C21.0299 16.1676 21.4898 16.286 21.7004 16.6427C22.007 17.162 22.2327 17.686 22.3221 18.1903C22.4124 18.7002 22.3698 19.2389 22.0711 19.7077C21.6405 20.3836 20.8678 20.6339 20.1122 20.687C19.3388 20.7414 18.4124 20.6064 17.4133 20.3366C15.406 19.7947 12.9329 18.661 10.4503 17.0793C7.96764 15.4976 5.89513 13.7352 4.55574 12.145C3.88905 11.3534 3.3753 10.5708 3.09773 9.84684C2.82659 9.1396 2.72691 8.33354 3.15752 7.65766C3.4956 7.12702 4.05009 6.85783 4.62455 6.74302C5.1972 6.62857 5.86546 6.64928 6.5755 6.76022C6.98475 6.82416 7.26468 7.20775 7.20074 7.617C7.1368 8.02625 6.7532 8.30618 6.34395 8.24224C5.72966 8.14626 5.25412 8.14686 4.91852 8.21393Z" fill="#000000" />
<path fill-rule="evenodd" clip-rule="evenodd" d="M12.6134 7.87231C15.8224 7.87231 18.4238 10.4737 18.4238 13.6827C18.4238 14.8364 18.0884 15.9094 17.51 16.8123C17.2865 17.161 17.3881 17.6249 17.7369 17.8484C18.0857 18.0718 18.5496 17.9702 18.773 17.6214C19.5015 16.4842 19.9238 15.1316 19.9238 13.6827C19.9238 9.64529 16.6509 6.37231 12.6134 6.37231C9.91701 6.37231 7.5625 7.83258 6.2961 10.0018C6.08727 10.3596 6.20797 10.8188 6.56568 11.0277C6.9234 11.2365 7.38268 11.1158 7.59151 10.7581C8.60011 9.03042 10.472 7.87231 12.6134 7.87231Z" fill="#000000" />
<path fill-rule="evenodd" clip-rule="evenodd" d="M6.21006 12.0638C5.79948 12.009 5.42225 12.2975 5.3675 12.7081C5.32494 13.0272 5.30301 13.3526 5.30301 13.6827C5.30301 17.7201 8.57599 20.9931 12.6134 20.9931C14.0581 20.9931 15.407 20.5732 16.5421 19.8486C16.8913 19.6258 16.9936 19.162 16.7708 18.8129C16.5479 18.4638 16.0842 18.3614 15.735 18.5843C14.8338 19.1596 13.7637 19.4931 12.6134 19.4931C9.40441 19.4931 6.80301 16.8917 6.80301 13.6827C6.80301 13.4191 6.82052 13.16 6.85434 12.9064C6.90909 12.4958 6.62063 12.1185 6.21006 12.0638Z" fill="#000000" />
</svg>