<svg width="24px"  height="24px"  viewBox="0 0 25 24" fill="none" xmlns="http://www.w3.org/2000/svg">
<path fill-rule="evenodd" clip-rule="evenodd" d="M20.31 8.28839C20.6438 8.3551 20.762 8.46907 20.8059 8.53811C20.8616 8.6255 20.9307 8.86124 20.7302 9.38435C20.5361 9.89071 20.137 10.5271 19.5255 11.2531C18.3085 12.6981 16.3631 14.3655 13.9722 15.8887C11.5814 17.412 9.2481 18.4705 7.42425 18.963C6.50782 19.2104 5.76242 19.3032 5.22146 19.2651C4.6626 19.2258 4.47815 19.0636 4.42247 18.9762C4.38285 18.914 4.33731 18.7868 4.38345 18.5265C4.4306 18.2604 4.56606 17.9095 4.81981 17.4797C5.03039 17.1231 4.91195 16.6632 4.55526 16.4526C4.19857 16.242 3.7387 16.3605 3.52812 16.7172C3.22153 17.2365 2.99583 17.7604 2.90646 18.2647C2.8161 18.7747 2.85871 19.3133 3.15741 19.7822C3.58802 20.4581 4.3607 20.7083 5.11627 20.7614C5.88975 20.8158 6.8161 20.6809 7.81524 20.4111C9.82251 19.8692 12.2956 18.7355 14.7782 17.1538C17.2609 15.5721 19.3334 13.8097 20.6728 12.2194C21.3395 11.4279 21.8532 10.6453 22.1308 9.92131C22.4019 9.21406 22.5016 8.408 22.071 7.73212C21.7329 7.20148 21.1784 6.93229 20.604 6.81748C20.0313 6.70303 19.3631 6.72375 18.653 6.83468C18.2438 6.89862 17.9638 7.28221 18.0278 7.69146C18.0917 8.10071 18.4753 8.38064 18.8846 8.3167C19.4989 8.22073 19.9744 8.22132 20.31 8.28839Z" fill="#000000" />
<path fill-rule="evenodd" clip-rule="evenodd" d="M12.6151 7.94678C9.40609 7.94678 6.80469 10.5482 6.80469 13.7572C6.80469 16.9662 9.40609 19.5676 12.6151 19.5676C15.8241 19.5676 18.4255 16.9662 18.4255 13.7572C18.4255 10.5482 15.8241 7.94678 12.6151 7.94678ZM5.30469 13.7572C5.30469 9.71975 8.57766 6.44678 12.6151 6.44678C16.6525 6.44678 19.9255 9.71975 19.9255 13.7572C19.9255 17.7946 16.6525 21.0676 12.6151 21.0676C8.57766 21.0676 5.30469 17.7946 5.30469 13.7572Z" fill="#000000" />
<path fill-rule="evenodd" clip-rule="evenodd" d="M5.00024 4.43237C4.649 4.43237 4.36426 4.71711 4.36426 5.06836C4.36426 5.4196 4.649 5.70435 5.00024 5.70435C5.35149 5.70435 5.63623 5.4196 5.63623 5.06836C5.63623 4.71711 5.35149 4.43237 5.00024 4.43237ZM2.86426 5.06836C2.86426 3.88869 3.82057 2.93237 5.00024 2.93237C6.17992 2.93237 7.13623 3.88869 7.13623 5.06836C7.13623 6.24803 6.17992 7.20435 5.00024 7.20435C3.82057 7.20435 2.86426 6.24803 2.86426 5.06836Z" fill="#000000" />
<path fill-rule="evenodd" clip-rule="evenodd" d="M13.9943 10.0057C14.2258 10.3492 14.135 10.8153 13.7915 11.0468L13.7815 11.0536C13.438 11.2851 12.9719 11.1943 12.7404 10.8508C12.5089 10.5073 12.5997 10.0412 12.9432 9.80967L12.9532 9.80293C13.2967 9.57145 13.7628 9.66225 13.9943 10.0057Z" fill="#000000" />
<path fill-rule="evenodd" clip-rule="evenodd" d="M11.6027 14.4359C11.8342 14.7794 11.7434 15.2455 11.3999 15.477L11.3899 15.4837C11.0464 15.7152 10.5803 15.6244 10.3488 15.2809C10.1173 14.9374 10.2081 14.4713 10.5516 14.2398L10.5616 14.2331C10.9051 14.0016 11.3712 14.0924 11.6027 14.4359Z" fill="#000000" />
</svg>