<svg width="24px"  height="24px"  viewBox="0 0 25 24" fill="none" xmlns="http://www.w3.org/2000/svg">
<path fill-rule="evenodd" clip-rule="evenodd" d="M12.6143 3.75C8.05791 3.75 4.36426 7.44365 4.36426 12C4.36426 16.5563 8.05791 20.25 12.6143 20.25C17.1706 20.25 20.8643 16.5563 20.8643 12C20.8643 7.44365 17.1706 3.75 12.6143 3.75ZM2.86426 12C2.86426 6.61522 7.22948 2.25 12.6143 2.25C17.999 2.25 22.3643 6.61522 22.3643 12C22.3643 17.3848 17.999 21.75 12.6143 21.75C7.22948 21.75 2.86426 17.3848 2.86426 12Z" fill="#000000" />
<path fill-rule="evenodd" clip-rule="evenodd" d="M17.2276 3.54066C17.4591 3.88415 17.3683 4.35026 17.0248 4.58174L11.4768 8.32057C11.1333 8.55205 10.6672 8.46125 10.4357 8.11775C10.2043 7.77426 10.2951 7.30815 10.6386 7.07666L16.1865 3.33784C16.53 3.10636 16.9961 3.19716 17.2276 3.54066Z" fill="#000000" />
<path fill-rule="evenodd" clip-rule="evenodd" d="M13.236 13.9288C13.4675 14.2723 13.3767 14.7384 13.0332 14.9699L6.81765 19.1587C6.47416 19.3901 6.00805 19.2993 5.77656 18.9558C5.54508 18.6123 5.63588 18.1462 5.97938 17.9147L12.195 13.726C12.5385 13.4945 13.0046 13.5853 13.236 13.9288Z" fill="#000000" />
<path fill-rule="evenodd" clip-rule="evenodd" d="M21.1928 7.43201C21.4243 7.77551 21.3335 8.24162 20.99 8.4731L16.763 11.3217C16.4195 11.5532 15.9534 11.4624 15.7219 11.1189C15.4904 10.7754 15.5812 10.3093 15.9247 10.0778L20.1517 7.2292C20.4952 6.99772 20.9613 7.08852 21.1928 7.43201Z" fill="#000000" />
<path fill-rule="evenodd" clip-rule="evenodd" d="M18.1291 12.3588C18.3606 12.7023 18.2698 13.1684 17.9263 13.3999L16.763 14.1838C16.4195 14.4153 15.9534 14.3245 15.7219 13.981C15.4904 13.6375 15.5812 13.1714 15.9247 12.9399L17.088 12.156C17.4315 11.9245 17.8976 12.0153 18.1291 12.3588Z" fill="#000000" />
<path fill-rule="evenodd" clip-rule="evenodd" d="M13.9955 9.4599C14.221 9.80733 14.1222 10.2718 13.7747 10.4973L12.6028 11.2581C11.5647 11.9319 10.3068 12.1796 9.09082 11.9495C8.20804 11.7825 7.2953 11.9817 6.56236 12.5013L4.20335 14.1736C3.86543 14.4132 3.3973 14.3335 3.15774 13.9956C2.91819 13.6576 2.99792 13.1895 3.33584 12.95L5.69485 11.2776C6.76009 10.5224 8.08665 10.2329 9.36965 10.4757C10.2063 10.6339 11.0718 10.4636 11.7861 9.99993L12.958 9.23917C13.3055 9.01364 13.7699 9.11247 13.9955 9.4599Z" fill="#000000" />
<path fill-rule="evenodd" clip-rule="evenodd" d="M17.9162 15.2206C18.1477 15.5641 18.0569 16.0302 17.7134 16.2617L10.3821 21.2023C10.0386 21.4337 9.5725 21.3429 9.34102 20.9994C9.10953 20.656 9.20034 20.1898 9.54383 19.9584L16.8751 15.0178C17.2186 14.7863 17.6847 14.8771 17.9162 15.2206Z" fill="#000000" />
</svg>