<svg width="24px"  height="24px"  viewBox="0 0 25 24" fill="none" xmlns="http://www.w3.org/2000/svg">
<path fill-rule="evenodd" clip-rule="evenodd" d="M11.2568 3.43799C11.671 3.43799 12.0068 3.77377 12.0068 4.18799V4.1994C12.0068 4.61362 11.671 4.9494 11.2568 4.9494C10.8426 4.9494 10.5068 4.61362 10.5068 4.1994V4.18799C10.5068 3.77377 10.8426 3.43799 11.2568 3.43799Z" fill="#000000" />
<path fill-rule="evenodd" clip-rule="evenodd" d="M5.30637 14.5952L5.30635 14.5952C5.30606 14.5965 5.30505 14.6009 5.30599 14.6116C5.307 14.6231 5.3106 14.6449 5.32294 14.6784C5.3488 14.7486 5.40748 14.8548 5.52603 14.9934C5.76636 15.2744 6.18064 15.6054 6.77571 15.9535C7.9578 16.6451 9.70309 17.3178 11.7285 17.7831C13.754 18.2484 15.6179 18.4048 16.9833 18.2984C17.6706 18.2448 18.1878 18.1278 18.5267 17.9799C18.6938 17.9069 18.793 17.837 18.8469 17.7851C18.8726 17.7603 18.8854 17.7422 18.8913 17.7324C18.8968 17.7232 18.8978 17.7187 18.8981 17.7175C18.8983 17.7166 18.9 17.7099 18.8974 17.6923C18.8945 17.6729 18.8857 17.6377 18.8606 17.5853C18.8081 17.4759 18.6993 17.323 18.503 17.1351C18.1094 16.7584 17.4655 16.3364 16.5988 15.9213C16.2252 15.7424 16.0674 15.2945 16.2463 14.921C16.4253 14.5474 16.8731 14.3896 17.2467 14.5685C18.1871 15.0189 18.9871 15.522 19.5403 16.0516C20.0573 16.5465 20.5445 17.2502 20.36 18.0533C20.2071 18.7189 19.6629 19.1206 19.1268 19.3546C18.5743 19.5958 17.8725 19.7336 17.0998 19.7938C15.545 19.915 13.5242 19.7346 11.3927 19.245C9.2612 18.7554 7.36432 18.0358 6.01824 17.2482C5.34923 16.8568 4.77794 16.4265 4.3861 15.9684C4.00593 15.5239 3.69153 14.925 3.84442 14.2594C4.02785 13.4609 4.76616 13.0407 5.44218 12.8204C6.16462 12.585 7.09542 12.48 8.12847 12.4825C8.54268 12.4835 8.87766 12.8201 8.87666 13.2343C8.87565 13.6485 8.53906 13.9835 8.12485 13.9825C7.1735 13.9802 6.4189 14.0798 5.90691 14.2466C5.65167 14.3298 5.48952 14.4192 5.39611 14.494C5.35144 14.5298 5.32864 14.5573 5.3178 14.5731C5.30813 14.5873 5.30663 14.594 5.30637 14.5952Z" fill="#000000" />
<path fill-rule="evenodd" clip-rule="evenodd" d="M10.2287 10.8869C13.1389 9.85264 16.3366 11.3734 17.3708 14.2837C18.4051 17.1939 16.8843 20.3915 13.9741 21.4258C11.0638 22.46 7.86621 20.9392 6.83196 18.029C5.79771 15.1188 7.31849 11.9211 10.2287 10.8869ZM15.9574 14.786C15.2006 12.6563 12.8606 11.5435 10.731 12.3003C8.60139 13.0571 7.48852 15.3971 8.24536 17.5267C9.00219 19.6563 11.3421 20.7692 13.4718 20.0124C15.6014 19.2555 16.7143 16.9156 15.9574 14.786Z" fill="#000000" />
<path fill-rule="evenodd" clip-rule="evenodd" d="M6.09445 5.92847C5.17341 5.92847 4.42676 6.67512 4.42676 7.59616C4.42676 8.51721 5.17341 9.26386 6.09445 9.26386C7.0155 9.26386 7.76215 8.51721 7.76215 7.59616C7.76215 6.67512 7.0155 5.92847 6.09445 5.92847ZM2.92676 7.59616C2.92676 5.84669 4.34498 4.42847 6.09445 4.42847C7.84392 4.42847 9.26215 5.84669 9.26215 7.59616C9.26215 9.34563 7.84392 10.7639 6.09445 10.7639C4.34498 10.7639 2.92676 9.34563 2.92676 7.59616Z" fill="#000000" />
<path fill-rule="evenodd" clip-rule="evenodd" d="M18.7933 3.90863C17.2455 3.3822 15.564 4.21019 15.0375 5.75802C14.5111 7.30584 15.3391 8.98736 16.8869 9.5138C18.4347 10.0402 20.1163 9.21223 20.6427 7.66441C21.1691 6.11659 20.3411 4.43507 18.7933 3.90863ZM13.6174 5.27502C14.4106 2.94289 16.9442 1.69533 19.2763 2.48852C21.6084 3.28171 22.856 5.81528 22.0628 8.14741C21.2696 10.4795 18.7361 11.7271 16.4039 10.9339C14.0718 10.1407 12.8242 7.60715 13.6174 5.27502Z" fill="#000000" />
<path fill-rule="evenodd" clip-rule="evenodd" d="M14.4696 4.05534C14.603 3.66318 15.029 3.4534 15.4211 3.58678L18.2115 4.53582C18.6037 4.6692 18.8135 5.09523 18.6801 5.48738C18.5467 5.87953 18.1207 6.08931 17.7285 5.95593L14.9381 5.00689C14.546 4.87351 14.3362 4.44749 14.4696 4.05534Z" fill="#000000" />
<path fill-rule="evenodd" clip-rule="evenodd" d="M16.8409 8.2858C16.9743 7.89365 17.4003 7.68387 17.7925 7.81725L20.5829 8.76629C20.975 8.89967 21.1848 9.32569 21.0514 9.71785C20.918 10.11 20.492 10.3198 20.0999 10.1864L17.3095 9.23736C16.9173 9.10398 16.7076 8.67796 16.8409 8.2858Z" fill="#000000" />
</svg>