<svg width="24px"  height="24px"  viewBox="0 0 25 24" fill="none" xmlns="http://www.w3.org/2000/svg">
<path d="M12.9978 19.78C8.70777 19.78 5.21777 16.29 5.21777 12C5.21777 7.70997 8.70777 4.21997 12.9978 4.21997C17.2878 4.21997 20.7778 7.70997 20.7778 12C20.7778 16.29 17.2878 19.78 12.9978 19.78ZM12.9978 5.71997C9.53777 5.71997 6.71777 8.53997 6.71777 12C6.71777 15.46 9.53777 18.28 12.9978 18.28C16.4578 18.28 19.2778 15.46 19.2778 12C19.2778 8.53997 16.4578 5.71997 12.9978 5.71997Z" fill="#000000" />
<path d="M5.58727 18.3698C4.09727 18.3698 3.41728 17.8298 3.10728 17.2898C2.42728 16.1198 3.13727 14.4498 5.14727 12.4498C5.43727 12.1598 5.91727 12.1598 6.20727 12.4498C6.49727 12.7398 6.49727 13.2198 6.20727 13.5098C4.54727 15.1498 4.21728 16.2198 4.40728 16.5298C4.53728 16.7598 5.31727 17.0798 7.31727 16.6298C9.21727 16.1998 11.5373 15.2398 13.8373 13.9098C16.1373 12.5798 18.1373 11.0598 19.4573 9.62981C20.8473 8.12981 20.9573 7.2898 20.8273 7.0598C20.6473 6.7398 19.5573 6.49982 17.3073 7.10982C16.9073 7.21982 16.4973 6.97982 16.3873 6.57982C16.2773 6.17982 16.5173 5.76981 16.9173 5.65981C19.6573 4.90981 21.4573 5.1398 22.1273 6.3098C22.5573 7.0498 22.6273 8.3998 20.5673 10.6498C19.1473 12.1898 17.0273 13.8198 14.5973 15.2198C12.1673 16.6198 9.70728 17.6498 7.65728 18.1098C6.83728 18.2898 6.16727 18.3698 5.59727 18.3698H5.58727Z" fill="#000000" />
</svg>