<svg width="24px"  height="24px"  viewBox="0 0 25 24" fill="none" xmlns="http://www.w3.org/2000/svg">
<path fill-rule="evenodd" clip-rule="evenodd" d="M21.6436 2.96966C21.9365 3.26254 21.9365 3.73742 21.6436 4.03032L20.0936 5.58046C19.8007 5.87336 19.3258 5.87338 19.0329 5.58049C18.74 5.2876 18.74 4.81273 19.0329 4.51983L20.583 2.96968C20.8758 2.67678 21.3507 2.67677 21.6436 2.96966Z" fill="#000000" />
<path fill-rule="evenodd" clip-rule="evenodd" d="M6.19562 18.4196C6.48852 18.7125 6.48854 19.1874 6.19565 19.4803L4.64558 21.0304C4.35269 21.3233 3.87782 21.3233 3.58492 21.0304C3.29202 20.7376 3.29201 20.2627 3.58489 19.9698L5.13496 18.4196C5.42785 18.1267 5.90272 18.1267 6.19562 18.4196Z" fill="#000000" />
<path fill-rule="evenodd" clip-rule="evenodd" d="M3.58367 2.96966C3.29077 3.26254 3.29076 3.73742 3.58365 4.03032L5.13372 5.58046C5.42661 5.87336 5.90148 5.87338 6.19438 5.58049C6.48728 5.2876 6.48729 4.81273 6.19441 4.51983L4.64433 2.96968C4.35145 2.67678 3.87657 2.67677 3.58367 2.96966Z" fill="#000000" />
<path fill-rule="evenodd" clip-rule="evenodd" d="M19.0341 18.4196C18.7412 18.7125 18.7412 19.1874 19.0341 19.4803L20.5842 21.0304C20.877 21.3233 21.3519 21.3233 21.6448 21.0304C21.9377 20.7376 21.9377 20.2627 21.6448 19.9698L20.0948 18.4196C19.8019 18.1267 19.327 18.1267 19.0341 18.4196Z" fill="#000000" />
<path fill-rule="evenodd" clip-rule="evenodd" d="M12.6143 3.9043C12.9281 3.9043 13.2087 4.09969 13.3176 4.39402L15.182 9.43228L20.2202 11.2966C20.5146 11.4055 20.71 11.6862 20.71 12C20.71 12.3138 20.5146 12.5945 20.2202 12.7034L15.182 14.5677L13.3176 19.606C13.2087 19.9003 12.9281 20.0957 12.6143 20.0957C12.3004 20.0957 12.0198 19.9003 11.9109 19.606L10.0465 14.5677L5.00828 12.7034C4.71395 12.5945 4.51855 12.3138 4.51855 12C4.51855 11.6862 4.71395 11.4055 5.00828 11.2966L10.0465 9.43228L11.9109 4.39402C12.0198 4.09969 12.3004 3.9043 12.6143 3.9043ZM12.6143 6.81545L11.3336 10.2763C11.2577 10.4816 11.0958 10.6434 10.8905 10.7194L7.42971 12L10.8905 13.2806C11.0958 13.3566 11.2577 13.5184 11.3336 13.7237L12.6143 17.1845L13.8949 13.7237C13.9708 13.5184 14.1327 13.3566 14.338 13.2806L17.7988 12L14.338 10.7194C14.1327 10.6434 13.9708 10.4816 13.8949 10.2763L12.6143 6.81545Z" fill="#000000" />
</svg>