<svg width="24px"  height="24px"  viewBox="0 0 25 24" fill="none" xmlns="http://www.w3.org/2000/svg">
<path fill-rule="evenodd" clip-rule="evenodd" d="M14.9055 17.146C14.5917 17.146 14.311 16.9506 14.2021 16.6563L14.1544 16.5273C13.1124 13.7113 10.8922 11.4911 8.07621 10.4491L7.94726 10.4014C7.65293 10.2925 7.45754 10.0118 7.45754 9.69801C7.45754 9.38418 7.65293 9.10353 7.94726 8.99462L8.07621 8.9469C10.8922 7.9049 13.1124 5.68467 14.1544 2.86869L14.2021 2.73974C14.311 2.44541 14.5917 2.25002 14.9055 2.25002C15.2194 2.25002 15.5 2.44541 15.6089 2.73974L15.6566 2.86869C16.6986 5.68467 18.9189 7.9049 21.7348 8.9469L21.5302 9.49991L21.7348 8.9469L21.8638 8.99462C22.1581 9.10353 22.3535 9.38418 22.3535 9.69801C22.3535 10.0118 22.1581 10.2925 21.8638 10.4014L21.7348 10.4491L21.5302 9.89611L21.7348 10.4491C18.9189 11.4911 16.6986 13.7113 15.6566 16.5273L15.6089 16.6563C15.5 16.9506 15.2194 17.146 14.9055 17.146ZM19.755 9.69801C17.6941 8.59824 16.0053 6.90943 14.9055 4.84856C13.8058 6.90943 12.1169 8.59824 10.0561 9.69801C12.1169 10.7978 13.8058 12.4866 14.9055 14.5475C16.0053 12.4866 17.6941 10.7978 19.755 9.69801Z" fill="#000000" />
<path fill-rule="evenodd" clip-rule="evenodd" d="M6.72918 21.75C6.41535 21.75 6.13471 21.5546 6.02579 21.2603L6.00368 21.2005C5.56154 20.0057 4.61946 19.0636 3.4246 18.6214L3.36484 18.5993C3.07051 18.4904 2.87512 18.2098 2.87512 17.8959C2.87512 17.5821 3.07051 17.3015 3.36484 17.1925L3.4246 17.1704L3.65909 17.8041L3.4246 17.1704C4.61946 16.7283 5.56154 15.7862 6.00368 14.5913L6.02579 14.5316C6.1347 14.2373 6.41535 14.0419 6.72918 14.0419C7.04302 14.0419 7.32366 14.2373 7.43257 14.5316L7.45469 14.5913C7.89683 15.7862 8.8389 16.7283 10.0338 17.1704L9.79928 17.8041L10.0338 17.1704L10.0935 17.1925C10.3879 17.3015 10.5833 17.5821 10.5833 17.8959C10.5833 18.2098 10.3879 18.4904 10.0935 18.5993L10.0338 18.6214L10.0338 18.6214C8.8389 19.0636 7.89683 20.0057 7.45469 21.2005L7.43257 21.2603C7.32366 21.5546 7.04302 21.75 6.72918 21.75ZM9.51321 17.2147L9.76531 17.8959L9.51321 17.2147M8.20586 17.8959C7.62937 18.2958 7.12907 18.7961 6.72918 19.3726C6.3293 18.7961 5.829 18.2958 5.25251 17.8959C5.829 17.496 6.3293 16.9957 6.72918 16.4193C7.12907 16.9957 7.62937 17.496 8.20586 17.8959Z" fill="#000000" />
<path fill-rule="evenodd" clip-rule="evenodd" d="M3.9248 3.63027C3.9248 4.15231 4.3479 4.57593 4.87041 4.57593C5.39232 4.57593 5.81614 4.1529 5.81614 3.63027C5.81614 3.10765 5.39233 2.68462 4.87041 2.68462C4.3479 2.68462 3.9248 3.10825 3.9248 3.63027Z" fill="#000000" />
</svg>