<svg width="24px"  height="24px"  viewBox="0 0 25 24" fill="none" xmlns="http://www.w3.org/2000/svg">
<path fill-rule="evenodd" clip-rule="evenodd" d="M11.4866 3.37793C11.7894 3.37793 12.0625 3.56002 12.1789 3.83955C12.6384 4.94274 14.0177 5.31231 14.9672 4.58667C15.2963 4.33516 15.767 4.39808 16.0185 4.72719C16.27 5.0563 16.2071 5.52699 15.878 5.7785C14.4963 6.83438 12.6156 6.6184 11.4866 5.46568C10.6432 6.32676 9.38035 6.66513 8.21941 6.34111C7.91955 7.50852 6.9951 8.43298 5.82768 8.73284C6.15171 9.89377 5.81333 11.1566 4.95225 12C5.81333 12.8434 6.15171 14.1062 5.82768 15.2672C6.9951 15.567 7.91955 16.4915 8.21941 17.6589C9.38035 17.3349 10.6432 17.6732 11.4866 18.5343C12.6156 17.3816 14.4963 17.1656 15.878 18.2215C16.2071 18.473 16.27 18.9437 16.0185 19.2728C15.767 19.6019 15.2963 19.6648 14.9672 19.4133C14.0177 18.6877 12.6384 19.0572 12.1789 20.1604C12.0625 20.44 11.7894 20.6221 11.4866 20.6221C11.1838 20.6221 10.9107 20.44 10.7942 20.1604C10.3347 19.0572 8.95547 18.6877 8.00593 19.4133C7.76533 19.5972 7.43777 19.6183 7.17553 19.4669C6.91329 19.3155 6.76783 19.0213 6.80676 18.721C6.96041 17.5358 5.95073 16.5262 4.76559 16.6798C4.46529 16.7187 4.17104 16.5733 4.01964 16.311C3.86824 16.0488 3.88938 15.7212 4.07324 15.4806C4.79888 14.5311 4.42931 13.1518 3.32612 12.6923C3.04659 12.5759 2.8645 12.3028 2.8645 12C2.8645 11.6972 3.04659 11.4241 3.32612 11.3077C4.42931 10.8481 4.79888 9.4689 4.07324 8.51936C3.88938 8.27876 3.86824 7.9512 4.01964 7.68896C4.17104 7.42672 4.46529 7.28125 4.76559 7.32019C5.95073 7.47384 6.96041 6.46416 6.80676 5.27901C6.76783 4.97872 6.91329 4.68447 7.17553 4.53307C7.43777 4.38166 7.76533 4.40281 8.00593 4.58667C8.95547 5.31231 10.3347 4.94274 10.7942 3.83955C10.9107 3.56002 11.1838 3.37793 11.4866 3.37793Z" fill="#000000" />
<path fill-rule="evenodd" clip-rule="evenodd" d="M14.025 11.2872C14.5222 9.43154 16.4296 8.3303 18.2853 8.82753C20.141 9.32475 21.2422 11.2322 20.745 13.0878C20.2478 14.9435 18.3404 16.0447 16.4847 15.5475C14.629 15.0503 13.5278 13.1429 14.025 11.2872ZM18.6735 7.37864C16.0176 6.667 13.2877 8.24311 12.5761 10.899C11.8645 13.5549 13.4406 16.2848 16.0964 16.9964C18.7523 17.7081 21.4822 16.1319 22.1939 13.4761C22.9055 10.8202 21.3294 8.09028 18.6735 7.37864Z" fill="#000000" />
<path fill-rule="evenodd" clip-rule="evenodd" d="M7.09314 12.1562C7.11041 9.90601 8.94853 8.09589 11.1987 8.11316C11.6129 8.11634 11.9461 8.45469 11.9429 8.86889C11.9397 9.28309 11.6014 9.61629 11.1872 9.61312C9.76542 9.6022 8.60401 10.7459 8.5931 12.1677C8.58218 13.5894 9.7259 14.7509 11.1477 14.7618C11.5619 14.7649 11.8951 15.1033 11.8919 15.5175C11.8887 15.9317 11.5504 16.2649 11.1362 16.2617C8.88599 16.2445 7.07587 14.4063 7.09314 12.1562Z" fill="#000000" />
<path fill-rule="evenodd" clip-rule="evenodd" d="M20.7026 8.68195C20.6026 8.27999 20.1957 8.03517 19.7937 8.13514C18.9637 8.34158 18.2649 8.98174 18.0269 9.86966C17.6787 11.1694 18.45 12.5055 19.7498 12.8537C20.6296 13.0895 21.5251 12.8116 22.119 12.2077C22.4094 11.9123 22.4054 11.4374 22.1101 11.147C21.8147 10.8566 21.3399 10.8606 21.0495 11.156C20.819 11.3903 20.4749 11.4951 20.138 11.4048C19.6384 11.271 19.342 10.7575 19.4758 10.2579C19.5669 9.91794 19.8338 9.67088 20.1558 9.5908C20.5577 9.49083 20.8026 9.08392 20.7026 8.68195Z" fill="#000000" />
<path fill-rule="evenodd" clip-rule="evenodd" d="M16.4335 16.9911C16.7818 17.2153 17.2458 17.1148 17.4701 16.7665C17.6247 16.5262 17.7448 16.2588 17.8222 15.9701C18.2249 14.4674 17.3331 12.9228 15.8304 12.5201C14.742 12.2285 13.6332 12.6162 12.9517 13.4198C12.6838 13.7357 12.7227 14.209 13.0386 14.4769C13.3545 14.7448 13.8278 14.7059 14.0957 14.39C14.4161 14.0122 14.9349 13.8331 15.4421 13.969C16.1446 14.1572 16.5615 14.8793 16.3733 15.5819C16.3367 15.7186 16.2804 15.8433 16.2088 15.9545C15.9846 16.3028 16.0852 16.7669 16.4335 16.9911Z" fill="#000000" />
<path fill-rule="evenodd" clip-rule="evenodd" d="M16.8821 10.8127C16.8821 10.3985 16.5463 10.0627 16.1321 10.0627H16.1262C15.712 10.0627 15.3762 10.3985 15.3762 10.8127C15.3762 11.227 15.712 11.5627 16.1262 11.5627H16.1321C16.5463 11.5627 16.8821 11.227 16.8821 10.8127Z" fill="#000000" />
</svg>