<svg width="24px"  height="24px"  viewBox="0 0 25 24" fill="none" xmlns="http://www.w3.org/2000/svg">
<path fill-rule="evenodd" clip-rule="evenodd" d="M10.7676 3.93115C11.1818 3.93115 11.5176 4.26694 11.5176 4.68115V5.37457C11.5176 5.78879 11.1818 6.12457 10.7676 6.12457C10.3534 6.12457 10.0176 5.78879 10.0176 5.37457V4.68115C10.0176 4.26694 10.3534 3.93115 10.7676 3.93115Z" fill="#000000" />
<path fill-rule="evenodd" clip-rule="evenodd" d="M10.7676 17.8752C11.1818 17.8752 11.5176 18.211 11.5176 18.6252V19.3187C11.5176 19.7329 11.1818 20.0687 10.7676 20.0687C10.3534 20.0687 10.0176 19.7329 10.0176 19.3187V18.6252C10.0176 18.211 10.3534 17.8752 10.7676 17.8752Z" fill="#000000" />
<path fill-rule="evenodd" clip-rule="evenodd" d="M4.89258 11.9998C4.89258 12.414 4.55679 12.7498 4.14258 12.7498L3.44916 12.7498C3.03494 12.7498 2.69916 12.414 2.69916 11.9998C2.69916 11.5855 3.03494 11.2498 3.44916 11.2498L4.14258 11.2498C4.55679 11.2498 4.89258 11.5855 4.89258 11.9998Z" fill="#000000" />
<path fill-rule="evenodd" clip-rule="evenodd" d="M6.61322 7.84503C6.32033 8.13792 5.84546 8.13792 5.55256 7.84503L5.06224 7.3547C4.76935 7.06181 4.76935 6.58694 5.06224 6.29404C5.35514 6.00115 5.83001 6.00115 6.1229 6.29404L6.61322 6.78437C6.90612 7.07726 6.90612 7.55213 6.61322 7.84503Z" fill="#000000" />
<path fill-rule="evenodd" clip-rule="evenodd" d="M6.61322 16.1545C6.32033 15.8616 5.84546 15.8616 5.55256 16.1545L5.06224 16.6448C4.76935 16.9377 4.76935 17.4126 5.06224 17.7055C5.35514 17.9984 5.83001 17.9984 6.1229 17.7055L6.61322 17.2151C6.90612 16.9223 6.90612 16.4474 6.61322 16.1545Z" fill="#000000" />
<path fill-rule="evenodd" clip-rule="evenodd" d="M10.7678 8.27686C8.6955 8.27686 7.01636 9.95681 7.01636 12.0283C7.01636 14.101 8.69561 15.7809 10.7678 15.7809C11.5605 15.7809 12.2936 15.5359 12.8984 15.1177C13.2391 14.8821 13.7063 14.9672 13.9419 15.3079C14.1775 15.6486 14.0923 16.1158 13.7516 16.3514C12.904 16.9375 11.875 17.2809 10.7678 17.2809C7.86673 17.2809 5.51636 14.929 5.51636 12.0283C5.51636 9.12861 7.86684 6.77686 10.7678 6.77686C11.8586 6.77686 12.8737 7.11017 13.714 7.68055C14.0567 7.91318 14.146 8.37959 13.9134 8.72231C13.6807 9.06503 13.2143 9.15428 12.8716 8.92166C12.272 8.51466 11.5489 8.27686 10.7678 8.27686Z" fill="#000000" />
<path fill-rule="evenodd" clip-rule="evenodd" d="M12.61 10.8915C13.2221 8.60718 15.5701 7.25157 17.8544 7.86365C20.1387 8.47572 21.4943 10.8237 20.8822 13.108C20.2701 15.3923 17.9222 16.7479 15.6379 16.1358C13.3536 15.5237 11.998 13.1758 12.61 10.8915ZM18.2426 6.41476C15.1581 5.58827 11.9876 7.41875 11.1612 10.5032C10.3347 13.5877 12.1651 16.7582 15.2496 17.5847C18.3341 18.4112 21.5046 16.5807 22.3311 13.4962C23.1576 10.4117 21.3271 7.24125 18.2426 6.41476Z" fill="#000000" />
<path fill-rule="evenodd" clip-rule="evenodd" d="M20.5564 7.86262C20.4565 7.46065 20.0496 7.21583 19.6476 7.31581C18.7081 7.54946 17.9175 8.27391 17.6483 9.27849C17.2543 10.7492 18.1271 12.2609 19.5978 12.655C20.5932 12.9218 21.6065 12.6075 22.2787 11.9239C22.5691 11.6286 22.5651 11.1537 22.2697 10.8633C21.9744 10.5729 21.4995 10.5769 21.2091 10.8722C20.9004 11.1862 20.4385 11.3274 19.986 11.2061C19.3155 11.0265 18.9176 10.3372 19.0972 9.66672C19.2196 9.21012 19.5782 8.87877 20.0096 8.77146C20.4116 8.67149 20.6564 8.26459 20.5564 7.86262Z" fill="#000000" />
<path fill-rule="evenodd" clip-rule="evenodd" d="M15.6921 17.5961C16.0404 17.8203 16.5045 17.7197 16.7287 17.3714C16.9049 17.0977 17.0418 16.7931 17.13 16.464C17.5888 14.7518 16.5726 12.9918 14.8604 12.533C13.6205 12.2008 12.357 12.6424 11.5804 13.5582C11.3125 13.8741 11.3514 14.3474 11.6673 14.6153C11.9832 14.8832 12.4564 14.8443 12.7243 14.5284C13.1399 14.0384 13.8134 13.8054 14.4722 13.9819C15.3842 14.2263 15.9255 15.1638 15.6811 16.0758C15.6336 16.253 15.5606 16.4149 15.4675 16.5595C15.2433 16.9078 15.3439 17.3719 15.6921 17.5961Z" fill="#000000" />
<path fill-rule="evenodd" clip-rule="evenodd" d="M16.0059 10.3638C16.0059 9.94956 15.6701 9.61377 15.2559 9.61377H15.2501C14.8359 9.61377 14.5001 9.94956 14.5001 10.3638C14.5001 10.778 14.8359 11.1138 15.2501 11.1138H15.2559C15.6701 11.1138 16.0059 10.778 16.0059 10.3638Z" fill="#000000" />
</svg>