<svg width="24px"  height="24px"  viewBox="0 0 25 24" fill="none" xmlns="http://www.w3.org/2000/svg">
<path fill-rule="evenodd" clip-rule="evenodd" d="M9.21122 2.60498C8.79701 2.60498 8.46122 2.94077 8.46122 3.35498V4.2839C8.46122 4.69811 8.79701 5.0339 9.21122 5.0339C9.62543 5.0339 9.96122 4.69811 9.96122 4.2839V3.35498C9.96122 2.94077 9.62543 2.60498 9.21122 2.60498ZM13.0529 3.3582C12.6934 3.15254 12.2352 3.27729 12.0295 3.63684L11.548 4.47873C11.3423 4.83828 11.4671 5.29647 11.8266 5.50213C12.1862 5.70779 12.6444 5.58304 12.85 5.22349L13.3316 4.3816C13.5372 4.02205 13.4125 3.56386 13.0529 3.3582ZM5.36875 3.3582C5.0092 3.56386 4.88444 4.02205 5.0901 4.3816L5.57165 5.22349C5.77731 5.58304 6.2355 5.70779 6.59505 5.50213C6.95461 5.29647 7.07936 4.83828 6.8737 4.47873L6.39215 3.63684C6.18649 3.27729 5.7283 3.15254 5.36875 3.3582Z" fill="#000000" />
<path fill-rule="evenodd" clip-rule="evenodd" d="M9.21122 21.3948C8.79701 21.3948 8.46122 21.059 8.46122 20.6448V19.7159C8.46122 19.3016 8.79701 18.9659 9.21122 18.9659C9.62543 18.9659 9.96122 19.3016 9.96122 19.7159V20.6448C9.96122 21.059 9.62543 21.3948 9.21122 21.3948ZM13.0529 20.6416C12.6934 20.8472 12.2352 20.7225 12.0295 20.3629L11.548 19.521C11.3423 19.1615 11.4671 18.7033 11.8266 18.4976C12.1862 18.292 12.6444 18.4167 12.85 18.7763L13.3316 19.6182C13.5372 19.9777 13.4125 20.4359 13.0529 20.6416ZM5.36875 20.6416C5.0092 20.4359 4.88444 19.9777 5.0901 19.6182L5.57165 18.7763C5.77731 18.4167 6.2355 18.292 6.59505 18.4976C6.95461 18.7033 7.07936 19.1615 6.8737 19.521L6.39215 20.3629C6.18649 20.7225 5.7283 20.8472 5.36875 20.6416Z" fill="#000000" />
<path fill-rule="evenodd" clip-rule="evenodd" d="M9.29941 7.08423C10.3412 7.08423 11.3054 7.40617 12.1009 7.95589C12.4417 8.19138 12.9088 8.10603 13.1443 7.76527C13.3798 7.4245 13.2944 6.95736 12.9537 6.72188C11.9156 6.00451 10.6555 5.58423 9.29941 5.58423C5.74488 5.58423 2.86488 8.46577 2.86488 12.0188C2.86488 15.5729 5.74477 18.4546 9.29941 18.4546C10.6501 18.4546 11.9054 18.0377 12.9411 17.3255C13.2825 17.0908 13.3689 16.6239 13.1342 16.2826C12.8995 15.9413 12.4325 15.8548 12.0912 16.0895C11.2976 16.6352 10.337 16.9546 9.29941 16.9546C6.57365 16.9546 4.36488 14.745 4.36488 12.0188C4.36488 9.29397 6.57354 7.08423 9.29941 7.08423Z" fill="#000000" />
<path fill-rule="evenodd" clip-rule="evenodd" d="M20.8602 11.8273C20.7541 9.07373 18.4359 6.92749 15.6823 7.03358C12.9287 7.13966 10.7825 9.45789 10.8886 12.2115C10.9946 14.9651 13.3129 17.1113 16.0665 17.0052C18.8201 16.8991 20.9663 14.5809 20.8602 11.8273ZM15.6246 5.53469C19.206 5.39671 22.2211 8.18817 22.3591 11.7696C22.4971 15.351 19.7056 18.3661 16.1242 18.5041C12.5428 18.6421 9.52764 15.8506 9.38967 12.2692C9.25169 8.68782 12.0432 5.67266 15.6246 5.53469Z" fill="#000000" />
<path fill-rule="evenodd" clip-rule="evenodd" d="M14.2784 14.9489C14.2345 13.8085 13.2743 12.9196 12.1339 12.9635C11.6011 12.984 11.1248 13.2034 10.7709 13.5488C10.4744 13.8381 9.99955 13.8322 9.71027 13.5358C9.42099 13.2393 9.42682 12.7645 9.72329 12.4752C10.3327 11.8805 11.1579 11.5 12.0761 11.4646C14.0444 11.3888 15.7015 12.9229 15.7773 14.8912C15.8258 16.1512 15.2141 17.283 14.2545 17.9536C13.915 18.1909 13.4474 18.108 13.2101 17.7685C12.9728 17.429 13.0557 16.9614 13.3952 16.7241C13.9542 16.3335 14.3065 15.6777 14.2784 14.9489Z" fill="#000000" />
<path fill-rule="evenodd" clip-rule="evenodd" d="M19.9732 7.07904C20.1645 7.44643 20.0218 7.89935 19.6544 8.09066C18.9696 8.44728 18.5169 9.17475 18.5484 9.99434C18.5921 11.1287 19.5472 12.0129 20.6815 11.9692C20.9017 11.9607 21.111 11.9182 21.3055 11.8475C21.6948 11.706 22.1251 11.9068 22.2666 12.2961C22.4081 12.6854 22.2073 13.1157 21.818 13.2572C21.4792 13.3804 21.1165 13.4535 20.7393 13.468C18.7771 13.5436 17.1252 12.0143 17.0496 10.0521C16.9948 8.6313 17.7817 7.37469 18.9616 6.76024C19.329 6.56892 19.7819 6.71166 19.9732 7.07904Z" fill="#000000" />
<path fill-rule="evenodd" clip-rule="evenodd" d="M17.969 13.9028C18.3729 13.9945 18.626 14.3963 18.5343 14.8003L18.5328 14.8066C18.4411 15.2106 18.0393 15.4637 17.6354 15.3719C17.2314 15.2802 16.9783 14.8784 17.0701 14.4745L17.0715 14.4681C17.1632 14.0642 17.565 13.8111 17.969 13.9028Z" fill="#000000" />
</svg>