<svg width="24px"  height="24px"  viewBox="0 0 25 24" fill="none" xmlns="http://www.w3.org/2000/svg">
<path fill-rule="evenodd" clip-rule="evenodd" d="M13.1116 11.3979C12.7835 11.3979 12.5176 11.6639 12.5176 11.9919C12.5176 12.32 12.7835 12.5859 13.1116 12.5859C13.4396 12.5859 13.7056 12.32 13.7056 11.9919C13.7056 11.6639 13.4396 11.3979 13.1116 11.3979ZM11.0176 11.9919C11.0176 10.8355 11.9551 9.89795 13.1116 9.89795C14.2681 9.89795 15.2056 10.8355 15.2056 11.9919C15.2056 13.1484 14.2681 14.0859 13.1116 14.0859C11.9551 14.0859 11.0176 13.1484 11.0176 11.9919Z" fill="#000000" />
<path fill-rule="evenodd" clip-rule="evenodd" d="M16.5908 7.91772C16.2628 7.91772 15.9968 8.18367 15.9968 8.51172C15.9968 8.83977 16.2628 9.10571 16.5908 9.10571C16.9189 9.10571 17.1848 8.83977 17.1848 8.51172C17.1848 8.18367 16.9189 7.91772 16.5908 7.91772ZM14.4968 8.51172C14.4968 7.35524 15.4343 6.41772 16.5908 6.41772C17.7473 6.41772 18.6848 7.35524 18.6848 8.51172C18.6848 9.6682 17.7473 10.6057 16.5908 10.6057C15.4343 10.6057 14.4968 9.6682 14.4968 8.51172Z" fill="#000000" />
<path fill-rule="evenodd" clip-rule="evenodd" d="M4.95825 13.5889C4.6302 13.5889 4.36426 13.8548 4.36426 14.1829C4.36426 14.5109 4.6302 14.7769 4.95825 14.7769C5.28631 14.7769 5.55225 14.5109 5.55225 14.1829C5.55225 13.8548 5.28631 13.5889 4.95825 13.5889ZM2.86426 14.1829C2.86426 13.0264 3.80177 12.0889 4.95825 12.0889C6.11473 12.0889 7.05225 13.0264 7.05225 14.1829C7.05225 15.3393 6.11473 16.2769 4.95825 16.2769C3.80177 16.2769 2.86426 15.3393 2.86426 14.1829Z" fill="#000000" />
<path fill-rule="evenodd" clip-rule="evenodd" d="M13.1018 4.23853C8.815 4.23853 5.33984 7.71368 5.33984 12.0005C5.33984 12.2423 5.35088 12.4813 5.37243 12.717C5.41014 13.1295 5.10632 13.4945 4.69382 13.5322C4.28133 13.5699 3.91637 13.2661 3.87866 12.8536C3.85296 12.5725 3.83984 12.2879 3.83984 12.0005C3.83984 6.88525 7.98657 2.73853 13.1018 2.73853C18.2171 2.73853 22.3638 6.88525 22.3638 12.0005C22.3638 17.1157 18.2171 21.2625 13.1018 21.2625C9.37701 21.2625 6.1673 19.0637 4.69691 15.8966C4.52248 15.5209 4.68565 15.0749 5.06135 14.9005C5.43704 14.7261 5.88301 14.8892 6.05743 15.2649C7.29114 17.9223 9.98235 19.7625 13.1018 19.7625C17.3886 19.7625 20.8638 16.2873 20.8638 12.0005C20.8638 7.71368 17.3886 4.23853 13.1018 4.23853Z" fill="#000000" />
<path fill-rule="evenodd" clip-rule="evenodd" d="M13.1019 7.54492C10.6412 7.54492 8.64648 9.53968 8.64648 12.0003C8.64648 14.461 10.6412 16.4558 13.1019 16.4558C15.5626 16.4558 17.5573 14.461 17.5573 12.0003C17.5573 11.2093 17.3518 10.4685 16.9919 9.82608C16.7894 9.46473 16.9182 9.00765 17.2795 8.80517C17.6409 8.60269 18.0979 8.73148 18.3004 9.09283C18.7827 9.95345 19.0573 10.9459 19.0573 12.0003C19.0573 15.2894 16.391 17.9558 13.1019 17.9558C9.81282 17.9558 7.14648 15.2894 7.14648 12.0003C7.14648 8.71125 9.81282 6.04492 13.1019 6.04492C14.1193 6.04492 15.0792 6.30065 15.9185 6.75194C16.2834 6.94809 16.4201 7.40285 16.224 7.76768C16.0278 8.1325 15.573 8.26925 15.2082 8.0731C14.5818 7.7363 13.8653 7.54492 13.1019 7.54492Z" fill="#000000" />
</svg>