<svg width="24px"  height="24px"  viewBox="0 0 25 24" fill="none" xmlns="http://www.w3.org/2000/svg">
<path fill-rule="evenodd" clip-rule="evenodd" d="M12.9181 1.94629C13.3323 1.94629 13.6681 2.28208 13.6681 2.69629V4.1145C13.6681 4.52871 13.3323 4.8645 12.9181 4.8645C12.5039 4.8645 12.1681 4.52871 12.1681 4.1145V2.69629C12.1681 2.28208 12.5039 1.94629 12.9181 1.94629ZM20.027 4.89075C20.3199 5.18365 20.3199 5.65852 20.027 5.95141L19.0242 6.95422C18.7313 7.24711 18.2565 7.24711 17.9636 6.95422C17.6707 6.66133 17.6707 6.18645 17.9636 5.89356L18.9664 4.89075C19.2593 4.59786 19.7341 4.59786 20.027 4.89075ZM5.80921 4.89124C6.10211 4.59835 6.57698 4.59835 6.86987 4.89124L7.87268 5.89405C8.16557 6.18694 8.16557 6.66182 7.87268 6.95471C7.57979 7.2476 7.10491 7.2476 6.81202 6.95471L5.80921 5.9519C5.51632 5.65901 5.51632 5.18414 5.80921 4.89124ZM2.86426 12.0002C2.86426 11.5859 3.20004 11.2502 3.61426 11.2502H5.03247C5.44668 11.2502 5.78247 11.5859 5.78247 12.0002C5.78247 12.4144 5.44668 12.7502 5.03247 12.7502H3.61426C3.20004 12.7502 2.86426 12.4144 2.86426 12.0002ZM7.87268 17.0456C8.16557 17.3385 8.16557 17.8134 7.87268 18.1063L6.86987 19.1091C6.57698 19.402 6.10211 19.402 5.80921 19.1091C5.51632 18.8162 5.51632 18.3413 5.80921 18.0484L6.81202 17.0456C7.10491 16.7527 7.57979 16.7527 7.87268 17.0456ZM17.9636 17.0456C18.2565 16.7527 18.7313 16.7527 19.0242 17.0456L20.027 18.0484C20.3199 18.3413 20.3199 18.8162 20.027 19.1091C19.7341 19.402 19.2593 19.402 18.9664 19.1091L17.9636 18.1063C17.6707 17.8134 17.6707 17.3385 17.9636 17.0456ZM12.9181 19.1357C13.3323 19.1357 13.6681 19.4714 13.6681 19.8857V21.3039C13.6681 21.7181 13.3323 22.0539 12.9181 22.0539C12.5039 22.0539 12.1681 21.7181 12.1681 21.3039V19.8857C12.1681 19.4714 12.5039 19.1357 12.9181 19.1357Z" fill="#000000" />
<path fill-rule="evenodd" clip-rule="evenodd" d="M12.9193 7.79956C10.5989 7.79956 8.71875 9.6806 8.71875 12.0001C8.71875 14.3208 10.599 16.2017 12.9193 16.2017C14.144 16.2017 15.2451 15.6787 16.0138 14.8417C16.2939 14.5366 16.7684 14.5164 17.0735 14.7965C17.3785 15.0767 17.3988 15.5511 17.1186 15.8562C16.0777 16.9897 14.5813 17.7017 12.9193 17.7017C9.7701 17.7017 7.21875 15.1488 7.21875 12.0001C7.21875 8.8524 9.77022 6.29956 12.9193 6.29956C14.6457 6.29956 16.1932 7.06783 17.2373 8.27834C17.5079 8.592 17.4729 9.06558 17.1593 9.33612C16.8456 9.60667 16.372 9.57171 16.1015 9.25806C15.3302 8.36381 14.1912 7.79956 12.9193 7.79956Z" fill="#000000" />
<path fill-rule="evenodd" clip-rule="evenodd" d="M18.0272 9.24556C16.5364 9.3754 15.2407 10.6698 15.4157 12.535L15.4157 12.5352C15.4736 13.1536 15.7699 13.7377 16.2349 14.151L16.235 14.151C17.6496 15.4086 19.4828 15.1074 20.4604 13.9566C19.505 13.5517 18.7058 12.7759 18.2853 11.9538M18.0272 9.24556C17.8003 10.1342 17.8579 11.1184 18.2852 11.9536ZM13.9223 12.675C13.6135 9.38468 16.4874 7.19656 19.272 7.85052C19.5039 7.90498 19.6962 8.06635 19.79 8.28529C19.8838 8.50424 19.868 8.75473 19.7475 8.96017C19.3354 9.66251 19.2776 10.6002 19.6206 11.2705L19.6207 11.2707C19.9974 12.0073 20.8593 12.6661 21.6824 12.741C21.9198 12.7627 22.1328 12.8958 22.2562 13.0998C22.3796 13.3038 22.3986 13.5543 22.3075 13.7746C21.2104 16.4276 17.7232 17.481 15.2384 15.2721L15.7364 14.7118L15.2384 15.2721C14.4903 14.6072 14.0157 13.6728 13.9223 12.6752" fill="#000000" />
</svg>