<svg width="24px"  height="24px"  viewBox="0 0 25 24" fill="none" xmlns="http://www.w3.org/2000/svg">
<path fill-rule="evenodd" clip-rule="evenodd" d="M11.5081 3.35596C11.9223 3.35596 12.2581 3.69174 12.2581 4.10596V5.30927C12.2581 5.72349 11.9223 6.05927 11.5081 6.05927C11.0939 6.05927 10.7581 5.72349 10.7581 5.30927V4.10596C10.7581 3.69174 11.0939 3.35596 11.5081 3.35596ZM5.39602 5.88796C5.68891 5.59507 6.16379 5.59507 6.45668 5.88796L7.30753 6.73882C7.60043 7.03171 7.60043 7.50658 7.30753 7.79948C7.01464 8.09237 6.53977 8.09237 6.24687 7.79948L5.39602 6.94862C5.10313 6.65573 5.10313 6.18085 5.39602 5.88796ZM2.86401 12C2.86401 11.5858 3.1998 11.25 3.61401 11.25H4.81733C5.23154 11.25 5.56733 11.5858 5.56733 12C5.56733 12.4143 5.23154 12.75 4.81733 12.75H3.61401C3.1998 12.75 2.86401 12.4143 2.86401 12ZM7.30753 16.2006C7.60043 16.4935 7.60043 16.9684 7.30753 17.2613L6.45668 18.1121C6.16379 18.405 5.68891 18.405 5.39602 18.1121C5.10313 17.8192 5.10313 17.3444 5.39602 17.0515L6.24687 16.2006C6.53977 15.9077 7.01464 15.9077 7.30753 16.2006ZM15.7087 16.2006C16.0016 15.9077 16.4764 15.9077 16.7693 16.2006L17.6202 17.0515C17.9131 17.3444 17.9131 17.8192 17.6202 18.1121C17.3273 18.405 16.8524 18.405 16.5595 18.1121L15.7087 17.2613C15.4158 16.9684 15.4158 16.4935 15.7087 16.2006ZM11.5081 17.9407C11.9223 17.9407 12.2581 18.2765 12.2581 18.6907V19.894C12.2581 20.3082 11.9223 20.644 11.5081 20.644C11.0939 20.644 10.7581 20.3082 10.7581 19.894V18.6907C10.7581 18.2765 11.0939 17.9407 11.5081 17.9407Z" fill="#000000" />
<path fill-rule="evenodd" clip-rule="evenodd" d="M11.5085 8.63403C9.64899 8.63403 8.14233 10.1414 8.14233 12.0002C8.14233 13.86 9.6491 15.3672 11.5085 15.3672C12.2838 15.3672 12.9958 15.1061 13.5645 14.6666C13.8923 14.4133 14.3633 14.4736 14.6166 14.8013C14.8699 15.1291 14.8096 15.6001 14.4818 15.8534C13.6597 16.4888 12.6273 16.8672 11.5085 16.8672C8.82022 16.8672 6.64233 14.6879 6.64233 12.0002C6.64233 9.31322 8.82034 7.13403 11.5085 7.13403C11.9227 7.13403 12.2585 7.46982 12.2585 7.88403C12.2585 8.29825 11.9227 8.63403 11.5085 8.63403Z" fill="#000000" />
<path fill-rule="evenodd" clip-rule="evenodd" d="M20.7469 8.89799C20.2595 7.0789 18.3897 5.99937 16.5706 6.48679C14.7515 6.97422 13.672 8.84402 14.1594 10.6631C14.6468 12.4822 16.5166 13.5617 18.3357 13.0743C20.1548 12.5869 21.2343 10.7171 20.7469 8.89799ZM16.1824 5.03791C18.8017 4.33607 21.494 5.89047 22.1958 8.50977C22.8976 11.1291 21.3432 13.8214 18.724 14.5232C16.1047 15.225 13.4124 13.6706 12.7105 11.0513C12.0087 8.43205 13.5631 5.73974 16.1824 5.03791Z" fill="#000000" />
<path fill-rule="evenodd" clip-rule="evenodd" d="M14.1768 6.32893C14.2768 5.92696 14.6837 5.68214 15.0857 5.78211C15.9064 5.98622 16.5974 6.61919 16.8326 7.49716C17.177 8.78235 16.4143 10.1034 15.1291 10.4477C14.2592 10.6808 13.3737 10.4061 12.7865 9.80891C12.4961 9.51357 12.5001 9.03871 12.7954 8.74829C13.0908 8.45788 13.5657 8.46187 13.8561 8.75722C14.0798 8.98478 14.4139 9.08647 14.7409 8.99885C15.2259 8.8689 15.5137 8.37038 15.3838 7.88539C15.2953 7.5554 15.0363 7.31553 14.7236 7.23777C14.3217 7.1378 14.0769 6.73089 14.1768 6.32893Z" fill="#000000" />
<path fill-rule="evenodd" clip-rule="evenodd" d="M18.395 14.5165C18.0467 14.7407 17.5826 14.6401 17.3584 14.2919C17.2055 14.0544 17.0868 13.7902 17.0104 13.505C16.6126 12.0201 17.4937 10.4939 18.9786 10.096C20.0539 9.80789 21.1496 10.191 21.8229 10.985C22.0909 11.3009 22.052 11.7742 21.7361 12.0421C21.4202 12.31 20.9469 12.2711 20.679 11.9552C20.3667 11.587 19.861 11.4125 19.3668 11.5449C18.6822 11.7284 18.2759 12.4321 18.4593 13.1167C18.495 13.2501 18.5499 13.3716 18.6196 13.4799C18.8438 13.8282 18.7433 14.2923 18.395 14.5165Z" fill="#000000" />
<path fill-rule="evenodd" clip-rule="evenodd" d="M17.9355 8.42798C17.9355 8.01376 18.2713 7.67798 18.6855 7.67798H18.6915C19.1057 7.67798 19.4415 8.01376 19.4415 8.42798C19.4415 8.84219 19.1057 9.17798 18.6915 9.17798H18.6855C18.2713 9.17798 17.9355 8.84219 17.9355 8.42798Z" fill="#000000" />
</svg>