<svg width="24px"  height="24px"  viewBox="0 0 25 24" fill="none" xmlns="http://www.w3.org/2000/svg">
<path d="M13.9541 15.8453C13.7641 15.8453 13.5741 15.7753 13.4341 15.6353C12.9741 15.1853 12.2441 15.1853 11.7841 15.6353C11.5441 15.8653 11.1741 15.9153 10.8841 15.7453C10.5941 15.5753 10.4541 15.2353 10.5341 14.9153C10.6941 14.2953 10.3241 13.6653 9.70406 13.4853C9.38406 13.3953 9.16406 13.0953 9.16406 12.7653C9.16406 12.4353 9.38406 12.1353 9.70406 12.0453C10.3241 11.8653 10.6841 11.2353 10.5341 10.6153C10.4541 10.2853 10.5941 9.94529 10.8841 9.78529C11.1741 9.61529 11.5341 9.66528 11.7841 9.89528C12.2441 10.3453 12.9741 10.3453 13.4341 9.89528C13.6741 9.66528 14.0441 9.61529 14.3341 9.78529C14.6241 9.95529 14.7641 10.2953 14.6841 10.6153C14.5241 11.2353 14.8941 11.8653 15.5141 12.0453C15.8341 12.1353 16.0541 12.4353 16.0541 12.7653C16.0541 13.0953 15.8341 13.3953 15.5141 13.4853C14.8941 13.6653 14.5341 14.2953 14.6841 14.9153C14.7641 15.2453 14.6241 15.5753 14.3341 15.7453C14.2141 15.8153 14.0841 15.8453 13.9541 15.8453ZM11.3241 12.7653C11.6241 13.0753 11.8441 13.4653 11.9641 13.8753C12.3841 13.7653 12.8241 13.7753 13.2441 13.8753C13.3641 13.4553 13.5841 13.0753 13.8841 12.7653C13.5841 12.4553 13.3641 12.0653 13.2441 11.6553C12.8241 11.7653 12.3841 11.7653 11.9641 11.6553C11.8441 12.0753 11.6241 12.4553 11.3241 12.7653Z" fill="#000000" />
<path d="M12.604 21.7551C11.494 21.7551 10.414 21.5551 9.39403 21.1651C9.00403 21.0151 8.81403 20.5851 8.96403 20.1951C9.11403 19.8051 9.54403 19.6151 9.93403 19.7651C10.784 20.0951 11.694 20.2551 12.614 20.2551C16.744 20.2551 20.104 16.8951 20.104 12.7651C20.104 9.70507 18.274 6.97507 15.434 5.82507C15.054 5.66507 14.864 5.23509 15.024 4.84509C15.184 4.46509 15.614 4.27511 16.004 4.43511C19.404 5.82511 21.604 9.09507 21.604 12.7651C21.604 17.7251 17.574 21.7551 12.614 21.7551H12.604ZM5.20403 17.1351C4.92403 17.1351 4.66403 16.9851 4.53403 16.7151C3.92403 15.4751 3.62402 14.1451 3.62402 12.7651C3.62402 9.14507 5.78402 5.88509 9.12402 4.47509C9.50402 4.31509 9.94403 4.49512 10.104 4.87512C10.264 5.25512 10.084 5.6951 9.70403 5.8551C6.92403 7.0251 5.12402 9.74507 5.12402 12.7651C5.12402 13.9251 5.38403 15.0251 5.88403 16.0551C6.06403 16.4251 5.91402 16.8751 5.54402 17.0551C5.43402 17.1051 5.32403 17.1351 5.21403 17.1351H5.20403Z" fill="#000000" />
<path d="M12.6045 18.9053C12.5345 18.9053 12.4744 18.9053 12.4044 18.9053C9.01445 18.7953 6.34445 15.9453 6.45445 12.5653C6.50445 10.9253 7.19445 9.40526 8.39445 8.27526C9.59445 7.14526 11.1644 6.56529 12.7944 6.61529C15.8144 6.71529 18.2945 8.94529 18.6845 11.9353C18.7445 12.3453 18.4544 12.7253 18.0444 12.7753C17.6344 12.8353 17.2545 12.5453 17.2045 12.1353C16.9045 9.87531 15.0245 8.18529 12.7445 8.11529C11.4945 8.06529 10.3245 8.52529 9.41445 9.36529C8.50445 10.2153 7.98445 11.3653 7.94445 12.6053C7.86445 15.1653 9.87445 17.3153 12.4445 17.3953C13.1145 17.4253 13.7844 17.2953 14.4044 17.0353C14.7844 16.8753 15.2245 17.0553 15.3845 17.4353C15.5445 17.8153 15.3645 18.2553 14.9845 18.4153C14.2245 18.7353 13.4145 18.9053 12.5945 18.9053H12.6045Z" fill="#000000" />
<path d="M12.6043 6.22534C11.5043 6.22534 10.6143 5.33535 10.6143 4.23535C10.6143 3.13535 11.5043 2.24536 12.6043 2.24536C13.7043 2.24536 14.5943 3.13535 14.5943 4.23535C14.5943 5.33535 13.7043 6.22534 12.6043 6.22534ZM12.6043 3.74536C12.3343 3.74536 12.1143 3.96535 12.1143 4.23535C12.1143 4.50535 12.3343 4.72534 12.6043 4.72534C12.8743 4.72534 13.0943 4.50535 13.0943 4.23535C13.0943 3.96535 12.8743 3.74536 12.6043 3.74536Z" fill="#000000" />
<path d="M6.80414 21.0851C5.67414 21.0851 4.74414 20.1651 4.74414 19.0251C4.74414 17.8851 5.66414 16.9651 6.80414 16.9651C7.94414 16.9651 8.86414 17.8851 8.86414 19.0251C8.86414 20.1651 7.94414 21.0851 6.80414 21.0851ZM6.80414 18.4751C6.49414 18.4751 6.24414 18.7251 6.24414 19.0351C6.24414 19.3451 6.49414 19.5951 6.80414 19.5951C7.11414 19.5951 7.36414 19.3451 7.36414 19.0351C7.36414 18.7251 7.11414 18.4751 6.80414 18.4751Z" fill="#000000" />
<path d="M17.2942 16.2852C16.7542 16.2852 16.3242 15.8452 16.3242 15.3152C16.3242 15.0652 16.4242 14.8152 16.6042 14.6252C16.7842 14.4352 17.0342 14.3352 17.2942 14.3352C17.8342 14.3352 18.2642 14.7752 18.2642 15.3052C18.2642 15.8352 17.8242 16.2752 17.2942 16.2752V16.2852Z" fill="#000000" />
</svg>