<svg width="24px"  height="24px"  viewBox="0 0 25 25" fill="none" xmlns="http://www.w3.org/2000/svg">
<path fill-rule="evenodd" clip-rule="evenodd" d="M11.6894 2.65944C12.221 2.22583 12.9828 2.22583 13.5143 2.65944C16.0332 4.71429 17.2061 7.75198 17.5824 10.6522C17.958 13.5468 17.5564 16.4174 16.8033 18.2609C16.6881 18.543 16.4137 18.7273 16.109 18.7273H9.09476C8.79008 18.7273 8.51567 18.543 8.40045 18.2609C7.64738 16.4174 7.24575 13.5468 7.62134 10.6522C7.99766 7.75198 9.17056 4.71429 11.6894 2.65944ZM12.6019 3.85105C10.502 5.58371 9.45307 8.19252 9.10887 10.8452C8.79439 13.2688 9.08169 15.6356 9.61637 17.2273H15.5874C16.1221 15.6356 16.4094 13.2688 16.0949 10.8452C15.7507 8.19252 14.7017 5.58371 12.6019 3.85105Z" fill="#000000" />
<path fill-rule="evenodd" clip-rule="evenodd" d="M8.86449 10.9998C9.10937 11.3338 9.03707 11.8032 8.70299 12.0481C7.45903 12.9599 5.33744 15.6132 6.1157 19.2358L8.69049 17.2999C9.02156 17.0509 9.49174 17.1175 9.74067 17.4486C9.9896 17.7797 9.92301 18.2498 9.59194 18.4988L6.98294 20.4605L6.53221 19.861L6.98294 20.4605C6.18813 21.0581 4.91974 20.7511 4.6704 19.6473C3.66918 15.215 6.2565 11.9815 7.8162 10.8383C8.15028 10.5934 8.61961 10.6657 8.86449 10.9998Z" fill="#000000" />
<path fill-rule="evenodd" clip-rule="evenodd" d="M16.3637 10.9998C16.6086 10.6657 17.0779 10.5934 17.412 10.8383C18.9717 11.9815 21.559 15.215 20.5578 19.6473C20.3084 20.7511 19.04 21.0581 18.2452 20.4605L15.6362 18.4988C15.3052 18.2498 15.2386 17.7797 15.4875 17.4486C15.7364 17.1175 16.2066 17.0509 16.5377 17.2999L19.1125 19.2358C19.8907 15.6132 17.7691 12.9599 16.5252 12.0481C16.1911 11.8032 16.1188 11.3338 16.3637 10.9998Z" fill="#000000" />
<path fill-rule="evenodd" clip-rule="evenodd" d="M10.5414 17.2699C10.9321 17.4075 11.1372 17.8358 10.9995 18.2265L10.2652 20.3105C10.2638 20.3143 10.2636 20.3164 10.2636 20.3168L10.2636 20.3183C10.2638 20.3195 10.2647 20.3228 10.2675 20.3267C10.2703 20.3306 10.273 20.3325 10.2741 20.3331L10.2755 20.3336C10.276 20.3338 10.2779 20.3342 10.282 20.3342H14.6273C14.6315 20.3342 14.6334 20.3338 14.6339 20.3336L14.6353 20.3331C14.6364 20.3325 14.6391 20.3306 14.6419 20.3267C14.6447 20.3228 14.6456 20.3195 14.6458 20.3183L14.6458 20.3168C14.6457 20.3164 14.6455 20.3143 14.6442 20.3105L13.9099 18.2265C13.7722 17.8358 13.9773 17.4075 14.368 17.2699C14.7587 17.1322 15.187 17.3373 15.3246 17.728L16.0589 19.812C16.4068 20.7994 15.6743 21.8342 14.6273 21.8342H10.282C9.23513 21.8342 8.50255 20.7994 8.85047 19.812L9.58477 17.728C9.72243 17.3373 10.1507 17.1322 10.5414 17.2699Z" fill="#000000" />
<path fill-rule="evenodd" clip-rule="evenodd" d="M9.96753 10.9684C9.96753 9.50152 11.1586 8.31396 12.6237 8.31396C14.0888 8.31396 15.2799 9.50152 15.2799 10.9684C15.2799 12.4353 14.0888 13.6229 12.6237 13.6229C11.1586 13.6229 9.96753 12.4353 9.96753 10.9684ZM12.6237 9.81396C11.9852 9.81396 11.4675 10.3317 11.4675 10.9684C11.4675 11.6051 11.9852 12.1229 12.6237 12.1229C13.2622 12.1229 13.7799 11.6051 13.7799 10.9684C13.7799 10.3317 13.2622 9.81396 12.6237 9.81396Z" fill="#000000" />
</svg>