<svg width="24px"  height="24px"  viewBox="0 0 25 25" fill="none" xmlns="http://www.w3.org/2000/svg">
<path d="M15.1979 11.9334C14.5879 11.9334 13.9879 11.7034 13.5279 11.2434C12.6079 10.3234 12.6079 8.82338 13.5279 7.90338C14.4479 6.98338 15.9479 6.98338 16.8679 7.90338C17.7879 8.82338 17.7879 10.3234 16.8679 11.2434C16.4079 11.7034 15.7979 11.9334 15.1979 11.9334ZM15.1979 8.70337C14.9679 8.70337 14.7479 8.79337 14.5879 8.95337C14.2479 9.29337 14.2479 9.8334 14.5879 10.1734C14.9279 10.5134 15.4779 10.5134 15.8079 10.1734C16.1379 9.8334 16.1479 9.29337 15.8079 8.95337C15.6479 8.79337 15.4279 8.70337 15.1979 8.70337Z" fill="#000000" />
<path d="M10.7181 18.1237C9.99814 18.1237 9.36815 17.8637 8.90815 17.4037L7.53815 16.0337C7.05815 15.5537 6.78818 14.8737 6.81818 14.1737C7.56818 8.25368 14.4981 2.71368 20.5381 3.11368C21.2381 3.16368 21.7781 3.70366 21.8281 4.40366C22.2381 10.4437 16.6881 17.3737 10.8381 18.1137C10.7981 18.1137 10.7582 18.1137 10.7282 18.1137L10.7181 18.1237ZM19.8981 4.60367C14.7781 4.60367 8.93818 9.41368 8.31818 14.3037C8.31818 14.5237 8.41816 14.7837 8.60816 14.9837L9.97815 16.3537C10.1682 16.5437 10.4282 16.6537 10.7282 16.6337C15.6882 15.9937 20.6381 9.84368 20.3481 4.61368C20.2081 4.61368 20.0581 4.60367 19.9081 4.60367H19.8981Z" fill="#000000" />
<path d="M13.2483 21.5938C13.0183 21.5938 12.7883 21.5537 12.5683 21.4637C12.0983 21.2637 11.7283 20.8737 11.5683 20.3937L10.4383 17.6338C10.2783 17.2538 10.4683 16.8137 10.8483 16.6537C11.2283 16.4937 11.6682 16.6838 11.8282 17.0638L12.9783 19.8638C13.0183 19.9838 13.0782 20.0437 13.1482 20.0737C13.2182 20.1037 13.2983 20.0937 13.3683 20.0737L15.8183 18.8438C15.9083 18.8038 15.9683 18.7038 15.9683 18.6038L16.2883 14.1238C16.3183 13.7138 16.6783 13.4038 17.0883 13.4238C17.4983 13.4538 17.8083 13.8138 17.7883 14.2238L17.4783 18.6537C17.4783 19.2737 17.1082 19.8738 16.5082 20.1838L14.0583 21.4138C13.8083 21.5338 13.5382 21.6038 13.2682 21.6038L13.2483 21.5938Z" fill="#000000" />
<path d="M7.61786 14.5938C7.51786 14.5938 7.42782 14.5738 7.32782 14.5338L4.52783 13.3638C4.08783 13.2138 3.70781 12.8538 3.50781 12.3738C3.31781 11.9038 3.33787 11.3638 3.56787 10.9138L4.81787 8.46381C5.11787 7.86381 5.71781 7.49384 6.38781 7.49384H6.39782L10.7778 7.21381C11.1778 7.19381 11.5478 7.50382 11.5778 7.91382C11.6078 8.32382 11.2879 8.68381 10.8779 8.71381L6.44781 8.99384C6.29781 8.99384 6.20783 9.0538 6.15783 9.1438L4.90783 11.5838C4.87783 11.6538 4.86783 11.7338 4.90783 11.8038C4.94783 11.8738 4.99787 11.9338 5.06787 11.9538L7.90783 13.1339C8.28783 13.2939 8.46786 13.7338 8.30786 14.1138C8.18786 14.4038 7.90786 14.5738 7.61786 14.5738V14.5938Z" fill="#000000" />
<path d="M4.22816 21.2737C4.02816 21.2737 3.83813 21.1937 3.69813 21.0537C3.52813 20.8837 3.44817 20.6437 3.48817 20.4137C3.52817 20.1537 3.54819 19.8638 3.56819 19.5638C3.64819 18.2838 3.77818 16.3437 5.80818 16.0437C6.21818 15.9837 6.59816 16.2637 6.65816 16.6737C6.71816 17.0837 6.43815 17.4637 6.02815 17.5237C5.31815 17.6337 5.15819 18.1537 5.06819 19.6537C5.06819 19.6637 5.06819 19.6738 5.06819 19.6938C5.08819 19.6938 5.09818 19.6938 5.11818 19.6938C6.62818 19.6038 7.13818 19.4537 7.24818 18.7437C7.30818 18.3337 7.68816 18.0537 8.09816 18.1137C8.50816 18.1737 8.78816 18.5537 8.72816 18.9637C8.42816 20.9937 6.48814 21.1138 5.20814 21.1838C4.90814 21.2038 4.61816 21.2237 4.34816 21.2637C4.30816 21.2637 4.27817 21.2637 4.23817 21.2637L4.22816 21.2737Z" fill="#000000" />
</svg>