<svg width="24px"  height="24px"  viewBox="0 0 25 25" fill="none" xmlns="http://www.w3.org/2000/svg">
<path d="M20.6194 20.0424H16.1494C15.7394 20.0424 15.3994 19.7024 15.3994 19.2924C15.3994 18.8824 15.7394 18.5424 16.1494 18.5424H20.6194C20.7494 18.5424 20.8594 18.4324 20.8594 18.3024V17.0723C20.8594 16.4823 20.5694 15.9324 20.0894 15.6024L19.6894 15.3223C18.6894 14.6223 17.7894 13.7924 17.0094 12.8524L15.6694 11.2324C15.4094 10.9124 15.4494 10.4424 15.7694 10.1724C16.0894 9.90238 16.5594 9.95236 16.8294 10.2724L18.1694 11.8924C18.8594 12.7324 19.6594 13.4724 20.5494 14.0924L20.9494 14.3724C21.8294 14.9924 22.3594 16.0024 22.3594 17.0824V18.3123C22.3594 19.2723 21.5794 20.0524 20.6194 20.0524V20.0424Z" fill="#000000" />
<path d="M9.07915 20.0424H4.60915C3.64915 20.0424 2.86914 19.2624 2.86914 18.3024V17.0723C2.86914 15.9923 3.39914 14.9824 4.27914 14.3624L4.66914 14.0824C5.55914 13.4624 6.35914 12.7223 7.04914 11.8823L8.38914 10.2623C8.64914 9.94235 9.12914 9.90237 9.44914 10.1624C9.76914 10.4224 9.80914 10.9024 9.54914 11.2224L8.20914 12.8424C7.42914 13.7824 6.52914 14.6123 5.52914 15.3123L5.13914 15.5924C4.65914 15.9324 4.36914 16.4823 4.36914 17.0723V18.3024C4.36914 18.4324 4.47915 18.5424 4.60915 18.5424H9.07915C9.48915 18.5424 9.82915 18.8824 9.82915 19.2924C9.82915 19.7024 9.48915 20.0424 9.07915 20.0424Z" fill="#000000" />
<path d="M12.6592 22.042C12.2492 22.042 11.9092 21.702 11.9092 21.292V15.542C11.9092 15.132 12.2492 14.792 12.6592 14.792C13.0692 14.792 13.4092 15.132 13.4092 15.542V21.292C13.4092 21.702 13.0692 22.042 12.6592 22.042Z" fill="#000000" />
<path d="M13.6691 22.0323H11.6491C10.9491 22.0323 10.2791 21.7623 9.7891 21.2623L9.0991 20.5723C8.5991 20.0723 8.3291 19.4123 8.3291 18.7123V8.96228C8.3291 6.89228 9.1391 4.94229 10.5991 3.47229C11.6891 2.38229 13.6191 2.38229 14.7191 3.47229C16.1891 4.93229 16.9891 6.88228 16.9891 8.96228V18.7123C16.9891 19.4123 16.7191 20.0823 16.2191 20.5723L15.5291 21.2623C15.0291 21.7623 14.3691 22.0323 13.6691 22.0323ZM12.6591 4.12231C12.2891 4.12231 11.9291 4.27228 11.6591 4.53228C10.4791 5.71228 9.8291 7.28228 9.8291 8.96228V18.7123C9.8291 19.0123 9.9491 19.3023 10.1591 19.5123L10.8491 20.2023C11.0591 20.4123 11.3491 20.5323 11.6491 20.5323H13.6691C13.9691 20.5323 14.2591 20.4123 14.4691 20.2023L15.1591 19.5123C15.3691 19.3023 15.4891 19.0123 15.4891 18.7123V8.96228C15.4891 7.29228 14.8391 5.72228 13.6591 4.53228C13.3991 4.27228 13.0291 4.12231 12.6591 4.12231Z" fill="#000000" />
<path d="M18.7495 22.042C18.3395 22.042 17.9995 21.702 17.9995 21.292V19.292C17.9995 18.882 18.3395 18.542 18.7495 18.542C19.1595 18.542 19.4995 18.882 19.4995 19.292V21.292C19.4995 21.702 19.1595 22.042 18.7495 22.042Z" fill="#000000" />
<path d="M6.33936 22.042C5.92936 22.042 5.58936 21.702 5.58936 21.292V19.292C5.58936 18.882 5.92936 18.542 6.33936 18.542C6.74936 18.542 7.08936 18.882 7.08936 19.292V21.292C7.08936 21.702 6.74936 22.042 6.33936 22.042Z" fill="#000000" />
<path d="M13.7694 10.0424C13.4794 10.0424 13.1994 9.87241 13.0794 9.58241C13.0094 9.41241 12.7894 9.35243 12.6294 9.35243C12.4394 9.35243 12.2194 9.41243 12.1294 9.60243C11.9594 9.98243 11.5194 10.1524 11.1394 9.98244C10.7594 9.81244 10.5994 9.36245 10.7694 8.99245C11.0894 8.29245 11.7894 7.82243 12.6594 7.85243C13.4794 7.86243 14.1794 8.3124 14.4694 9.0124C14.6294 9.3924 14.4494 9.83245 14.0694 9.99245C13.9794 10.0324 13.8794 10.0524 13.7794 10.0524L13.7694 10.0424Z" fill="#000000" />
</svg>