<svg width="24px"  height="24px"  viewBox="0 0 25 25" fill="none" xmlns="http://www.w3.org/2000/svg">
<path fill-rule="evenodd" clip-rule="evenodd" d="M12.5932 8.47391C12.4353 8.40811 12.2576 8.40811 12.0997 8.47391C11.7173 8.63322 11.2782 8.45241 11.1189 8.07006C10.9596 7.68771 11.1404 7.24861 11.5228 7.08929C12.0499 6.86965 12.643 6.86965 13.1701 7.08929C13.5525 7.24861 13.7333 7.68771 13.574 8.07006C13.4146 8.45241 12.9755 8.63322 12.5932 8.47391Z" fill="#000000" />
<path fill-rule="evenodd" clip-rule="evenodd" d="M14.7858 8.64494C15.1052 8.38114 15.5779 8.42616 15.8417 8.74551L16.9067 10.0347C17.4488 10.691 18.0775 11.2706 18.7756 11.7578L19.0907 11.9777C19.8361 12.498 20.2803 13.3496 20.2803 14.2586V15.2412C20.2803 16.0933 19.5895 16.7841 18.7374 16.7841H15.1738C14.7596 16.7841 14.4238 16.4483 14.4238 16.0341C14.4238 15.6199 14.7596 15.2841 15.1738 15.2841H18.7374C18.7611 15.2841 18.7803 15.2649 18.7803 15.2412V14.2586C18.7803 13.8398 18.5757 13.4475 18.2323 13.2078L17.9171 12.9879C17.1078 12.423 16.3788 11.7509 15.7502 10.99L14.6853 9.70082C14.4215 9.38147 14.4665 8.90874 14.7858 8.64494Z" fill="#000000" />
<path fill-rule="evenodd" clip-rule="evenodd" d="M9.92808 8.64494C10.2474 8.90874 10.2924 9.38147 10.0286 9.70082L8.96369 10.99C8.33511 11.7509 7.60616 12.423 6.79679 12.9879L6.48165 13.2078C6.13823 13.4475 5.93359 13.8398 5.93359 14.2586V15.2412C5.93359 15.2649 5.9528 15.2841 5.9765 15.2841H9.5401C9.95431 15.2841 10.2901 15.6199 10.2901 16.0341C10.2901 16.4483 9.95431 16.7841 9.5401 16.7841H5.9765C5.12438 16.7841 4.43359 16.0933 4.43359 15.2412V14.2586C4.43359 13.3496 4.87778 12.498 5.62321 11.9777L5.93835 11.7578C6.6364 11.2706 7.26511 10.691 7.80724 10.0347L8.87219 8.74551C9.136 8.42616 9.60873 8.38114 9.92808 8.64494Z" fill="#000000" />
<path fill-rule="evenodd" clip-rule="evenodd" d="M12.3945 12.2966C12.8087 12.2966 13.1445 12.6324 13.1445 13.0466V14.8221C13.1445 15.2363 12.8087 15.5721 12.3945 15.5721C11.9803 15.5721 11.6445 15.2363 11.6445 14.8221V13.0466C11.6445 12.6324 11.9803 12.2966 12.3945 12.2966Z" fill="#000000" />
<path fill-rule="evenodd" clip-rule="evenodd" d="M12.3945 4.09839C12.1365 4.09839 11.889 4.20088 11.7066 4.38332C10.7996 5.29033 10.29 6.5205 10.29 7.80321V15.5711C10.29 15.7707 10.3693 15.962 10.5104 16.1031L9.98007 16.6335L10.5104 16.1031L11.0576 16.6503L10.5272 17.1806L11.0576 16.6503C11.1987 16.7914 11.39 16.8706 11.5896 16.8706H13.1994C13.399 16.8706 13.5903 16.7914 13.7314 16.6503L14.221 17.1398L13.7314 16.6503L14.2786 16.1031L14.7681 16.5927L14.2786 16.1031C14.4197 15.962 14.4989 15.7707 14.4989 15.5711V7.80322C14.4989 6.52051 13.9894 5.29033 13.0824 4.38332C12.8999 4.20088 12.6525 4.09839 12.3945 4.09839ZM12.3945 2.59839C13.0503 2.59839 13.6793 2.85892 14.143 3.32266C15.3314 4.51098 15.9989 6.12268 15.9989 7.80322V15.5711C15.9989 16.1685 15.7616 16.7414 15.3392 17.1638L14.7921 17.7109C14.3697 18.1333 13.7968 18.3706 13.1994 18.3706H11.5896C10.9922 18.3706 10.4193 18.1333 9.99691 17.7109L9.44974 17.1638C9.02734 16.7414 8.79004 16.1685 8.79004 15.5711V7.80321C8.79004 6.1228 9.45754 4.5112 10.6457 3.32291C10.6458 3.32283 10.6459 3.32274 10.6459 3.32266C11.1097 2.85892 11.7387 2.59839 12.3945 2.59839Z" fill="#000000" />
<path fill-rule="evenodd" clip-rule="evenodd" d="M13.8358 16.7954C13.4218 16.7803 13.074 17.1037 13.0589 17.5176C13.0434 17.9447 13.0857 18.6968 13.2935 19.4987C13.4997 20.294 13.8898 21.2198 14.63 21.9005C14.9349 22.1808 15.4094 22.161 15.6897 21.8561C15.9701 21.5512 15.9503 21.0767 15.6454 20.7964C15.2025 20.3891 14.9148 19.7756 14.7455 19.1223C14.5779 18.4756 14.5471 17.87 14.5579 17.5723C14.573 17.1583 14.2497 16.8105 13.8358 16.7954Z" fill="#000000" />
<path fill-rule="evenodd" clip-rule="evenodd" d="M10.9533 16.7954C11.3672 16.7803 11.715 17.1037 11.7301 17.5176C11.7457 17.9447 11.7034 18.6968 11.4956 19.4987C11.2894 20.294 10.8992 21.2198 10.1591 21.9005C9.85416 22.1808 9.37971 22.161 9.09932 21.8561C8.81894 21.5512 8.8388 21.0767 9.14369 20.7964C9.58655 20.3891 9.87421 19.7756 10.0435 19.1223C10.2112 18.4756 10.242 17.87 10.2311 17.5723C10.216 17.1583 10.5393 16.8105 10.9533 16.7954Z" fill="#000000" />
<path fill-rule="evenodd" clip-rule="evenodd" d="M15.9585 19.1774C16.2246 19.1398 16.4956 19.1598 16.7533 19.236C17.011 19.3122 17.2493 19.4428 17.4521 19.619C17.655 19.7952 17.8176 20.0129 17.9291 20.2574C18.0406 20.5019 18.0982 20.7675 18.0982 21.0362C18.0982 21.4504 17.7625 21.7862 17.3482 21.7862C16.934 21.7862 16.5982 21.4504 16.5982 21.0362C16.5982 20.9822 16.5866 20.9288 16.5642 20.8797C16.5418 20.8306 16.5092 20.7868 16.4684 20.7514C16.4276 20.716 16.3797 20.6897 16.328 20.6744C16.2762 20.6591 16.2217 20.6551 16.1683 20.6626C16.1148 20.6702 16.0636 20.6891 16.018 20.7182C15.9725 20.7472 15.9338 20.7857 15.9044 20.831C15.875 20.8763 15.8558 20.9274 15.8478 20.9808C15.8399 21.0343 15.8435 21.0887 15.8585 21.1406C15.9732 21.5387 15.7435 21.9543 15.3455 22.069C14.9475 22.1837 14.5318 21.954 14.4171 21.5559C14.3427 21.2977 14.3246 21.0266 14.3641 20.7608C14.4035 20.495 14.4995 20.2408 14.6456 20.0153C14.7917 19.7898 14.9846 19.5983 15.2111 19.4537C15.4376 19.3092 15.6925 19.2149 15.9585 19.1774Z" fill="#000000" />
<path fill-rule="evenodd" clip-rule="evenodd" d="M8.61944 20.6626C8.56597 20.6551 8.51151 20.6591 8.45973 20.6744C8.40795 20.6897 8.36006 20.716 8.31929 20.7514C8.27853 20.7868 8.24585 20.8306 8.22344 20.8797C8.20104 20.9288 8.18945 20.9822 8.18945 21.0362C8.18945 21.4504 7.85367 21.7862 7.43945 21.7862C7.02524 21.7862 6.68945 21.4504 6.68945 21.0362C6.68945 20.7675 6.74714 20.5019 6.8586 20.2574C6.97007 20.0129 7.13272 19.7952 7.33557 19.619C7.53842 19.4428 7.77673 19.3122 8.0344 19.236C8.29207 19.1598 8.5631 19.1398 8.82916 19.1774C9.09522 19.2149 9.35011 19.3092 9.57662 19.4537C9.80312 19.5983 9.99595 19.7898 10.1421 20.0153C10.2882 20.2408 10.3842 20.495 10.4236 20.7608C10.4631 21.0266 10.445 21.2977 10.3706 21.5559C10.2559 21.954 9.84024 22.1837 9.44222 22.069C9.0442 21.9543 8.81451 21.5387 8.9292 21.1406C8.94415 21.0887 8.94778 21.0343 8.93986 20.9808C8.93194 20.9274 8.91265 20.8763 8.88328 20.831C8.85392 20.7857 8.81517 20.7472 8.76965 20.7182C8.72413 20.6891 8.67291 20.6702 8.61944 20.6626Z" fill="#000000" />
<path fill-rule="evenodd" clip-rule="evenodd" d="M17.5489 18.4833C18.0623 18.2256 18.6454 18.1412 19.2108 18.2428C19.7763 18.3443 20.2936 18.6263 20.6853 19.0465C21.077 19.4667 21.322 20.0025 21.3837 20.5737C21.4281 20.9855 21.1303 21.3554 20.7185 21.3998C20.3067 21.4443 19.9368 21.1465 19.8923 20.7346C19.8655 20.4858 19.7587 20.2524 19.5881 20.0693C19.4174 19.8862 19.1921 19.7634 18.9457 19.7192C18.6994 19.6749 18.4454 19.7117 18.2217 19.8239C17.998 19.9362 17.8167 20.1179 17.7049 20.3418C17.52 20.7125 17.0696 20.863 16.699 20.678C16.3283 20.4931 16.1778 20.0427 16.3628 19.6721C16.6193 19.1581 17.0354 18.741 17.5489 18.4833Z" fill="#000000" />
<path fill-rule="evenodd" clip-rule="evenodd" d="M7.23695 19.1281C7.23714 19.5423 6.90151 19.8782 6.48729 19.8784C6.20179 19.8785 5.9264 19.9842 5.714 20.1749C5.50161 20.3657 5.36719 20.6283 5.33655 20.9121C5.29211 21.324 4.92223 21.6218 4.51041 21.5773C4.09859 21.5329 3.80077 21.163 3.84521 20.7512C3.91553 20.0996 4.22408 19.497 4.7116 19.0591C5.19913 18.6211 5.83126 18.3787 6.4866 18.3784C6.90081 18.3782 7.23676 18.7139 7.23695 19.1281Z" fill="#000000" />
</svg>