<svg width="24px"  height="24px"  viewBox="0 0 25 25" fill="none" xmlns="http://www.w3.org/2000/svg">
<path fill-rule="evenodd" clip-rule="evenodd" d="M9.6401 11.0594C9.97744 11.2998 10.056 11.7681 9.81567 12.1055C8.6597 13.7277 7.09695 14.818 5.56039 15.89C5.5287 15.9121 5.49703 15.9342 5.46536 15.9563C5.01588 16.27 4.74805 16.7835 4.74805 17.3316V18.5057C4.74805 18.6147 4.83642 18.703 4.94542 18.703H9.20324C9.61745 18.703 9.95324 19.0388 9.95324 19.453C9.95324 19.8672 9.61745 20.203 9.20324 20.203H4.94542C4.00798 20.203 3.24805 19.4431 3.24805 18.5057V17.3316C3.24805 16.2933 3.75543 15.3205 4.60692 14.7262L5.02254 15.3218L4.60692 14.7262C6.21451 13.6043 7.5905 12.6434 8.59407 11.235C8.83444 10.8977 9.30277 10.8191 9.6401 11.0594Z" fill="#000000" />
<path fill-rule="evenodd" clip-rule="evenodd" d="M15.5884 11.0594C15.2511 11.2998 15.1725 11.7681 15.4128 12.1055C16.5688 13.7277 18.1316 14.818 19.6681 15.89C19.6998 15.9121 19.7315 15.9342 19.7632 15.9563C20.2126 16.27 20.4805 16.7835 20.4805 17.3316V18.5057C20.4805 18.6147 20.3921 18.703 20.2831 18.703H16.0253C15.6111 18.703 15.2753 19.0388 15.2753 19.453C15.2753 19.8672 15.6111 20.203 16.0253 20.203H20.2831C21.2205 20.203 21.9805 19.4431 21.9805 18.5057V17.3316C21.9805 16.2933 21.4731 15.3205 20.6216 14.7262L20.206 15.3218L20.6216 14.7262C19.014 13.6043 17.638 12.6434 16.6344 11.235C16.3941 10.8977 15.9257 10.8191 15.5884 11.0594Z" fill="#000000" />
<path fill-rule="evenodd" clip-rule="evenodd" d="M12.6143 14.186C13.0285 14.186 13.3643 14.5218 13.3643 14.936V17.0574C13.3643 17.4716 13.0285 17.8074 12.6143 17.8074C12.2 17.8074 11.8643 17.4716 11.8643 17.0574V14.936C11.8643 14.5218 12.2 14.186 12.6143 14.186Z" fill="#000000" />
<path fill-rule="evenodd" clip-rule="evenodd" d="M12.6146 4.09839C12.2676 4.09839 11.9348 4.23624 11.6894 4.48162C10.5783 5.59273 9.9541 7.09971 9.9541 8.67105V19.4537C9.9541 20.0859 10.4666 20.5984 11.0988 20.5984H14.1304C14.7626 20.5984 15.2752 20.0859 15.2752 19.4537V8.67106C15.2752 7.09972 14.6509 5.59273 13.5398 4.48162C13.2945 4.23624 12.9616 4.09839 12.6146 4.09839ZM10.6288 3.42096C11.1554 2.89428 11.8698 2.59839 12.6146 2.59839C13.3595 2.59839 14.0738 2.89428 14.6005 3.42096C15.9929 4.81337 16.7752 6.70189 16.7752 8.67106V19.4537C16.7752 20.9143 15.5911 22.0984 14.1304 22.0984H11.0988C9.63819 22.0984 8.4541 20.9143 8.4541 19.4537V8.67105C8.4541 6.70188 9.23635 4.81337 10.6288 3.42096Z" fill="#000000" />
<path fill-rule="evenodd" clip-rule="evenodd" d="M6.19325 8.34558C6.49738 7.94007 6.97469 7.70142 7.48158 7.70142C7.98848 7.70142 8.46579 7.94007 8.76992 8.34558C9.5375 9.36902 9.95243 10.6138 9.95243 11.8931V13.6139C9.95243 14.0282 9.61664 14.3639 9.20243 14.3639C8.78821 14.3639 8.45243 14.0282 8.45243 13.6139V11.8931C8.45243 10.9384 8.14277 10.0094 7.56992 9.24558C7.54907 9.21778 7.51634 9.20142 7.48158 9.20142C7.44683 9.20142 7.4141 9.21778 7.39325 9.24558C6.8204 10.0094 6.51074 10.9384 6.51074 11.8931V14.7612C6.51074 15.1754 6.17496 15.5112 5.76074 15.5112C5.34653 15.5112 5.01074 15.1754 5.01074 14.7612V11.8931C5.01074 10.6138 5.42567 9.36902 6.19325 8.34558Z" fill="#000000" />
<path fill-rule="evenodd" clip-rule="evenodd" d="M19.0343 8.34558C18.7302 7.94007 18.2528 7.70142 17.746 7.70142C17.2391 7.70142 16.7618 7.94007 16.4576 8.34558C15.69 9.36902 15.2751 10.6138 15.2751 11.8931V13.6139C15.2751 14.0282 15.6109 14.3639 16.0251 14.3639C16.4393 14.3639 16.7751 14.0282 16.7751 13.6139V11.8931C16.7751 10.9384 17.0848 10.0094 17.6576 9.24558C17.6785 9.21778 17.7112 9.20142 17.746 9.20142C17.7807 9.20142 17.8134 9.21778 17.8343 9.24558C18.4071 10.0094 18.7168 10.9384 18.7168 11.8931V14.7612C18.7168 15.1754 19.0526 15.5112 19.4668 15.5112C19.881 15.5112 20.2168 15.1754 20.2168 14.7612V11.8931C20.2168 10.6138 19.8019 9.36902 19.0343 8.34558Z" fill="#000000" />
<path fill-rule="evenodd" clip-rule="evenodd" d="M12.6262 9.4397C12.316 9.43843 12.1591 9.57035 12.121 9.64425C11.9314 10.0125 11.4791 10.1573 11.1109 9.9676C10.7426 9.77795 10.5978 9.32568 10.7875 8.95744C11.1732 8.2086 11.9845 7.93705 12.6324 7.93972C13.2746 7.94236 14.0902 8.21839 14.4513 8.97937C14.6288 9.3536 14.4694 9.8009 14.0951 9.97845C13.7209 10.156 13.2736 9.99655 13.096 9.62232C13.0742 9.57634 12.942 9.441 12.6262 9.4397Z" fill="#000000" />
</svg>