<svg width="24px"  height="24px"  viewBox="0 0 25 24" fill="none" xmlns="http://www.w3.org/2000/svg">
<path fill-rule="evenodd" clip-rule="evenodd" d="M10.4314 2.53833C10.7615 2.53833 11.0528 2.75416 11.1489 3.06996C12.1068 6.21729 14.5699 8.68041 17.717 9.63834C18.0328 9.73446 18.2486 10.0258 18.2486 10.3558C18.2486 10.6859 18.0328 10.9772 17.717 11.0733C14.5699 12.0313 12.1068 14.4944 11.1489 17.6417C11.0528 17.9575 10.7615 18.1734 10.4314 18.1734C10.1013 18.1734 9.81004 17.9575 9.71393 17.6417C8.75603 14.4944 6.29302 12.0313 3.14586 11.0733C2.83008 10.9772 2.61426 10.6859 2.61426 10.3558C2.61426 10.0258 2.83008 9.73446 3.14586 9.63834C6.29302 8.68041 8.75603 6.21729 9.71393 3.06996C9.81004 2.75416 10.1013 2.53833 10.4314 2.53833ZM5.37664 10.3558C7.5603 11.4529 9.33438 13.2271 10.4314 15.4108C11.5285 13.2271 13.3026 11.4529 15.4862 10.3558C13.3026 9.25875 11.5285 7.4846 10.4314 5.30086C9.33438 7.4846 7.5603 9.25875 5.37664 10.3558Z" fill="#000000" />
<path fill-rule="evenodd" clip-rule="evenodd" d="M18.5714 13.3755C18.9015 13.3755 19.1928 13.5913 19.2889 13.9071C19.6964 15.2459 20.744 16.2936 22.0827 16.701C22.3985 16.7971 22.6143 17.0884 22.6143 17.4185C22.6143 17.7486 22.3985 18.0399 22.0827 18.136C20.744 18.5435 19.6964 19.5912 19.2889 20.9299C19.1928 21.2457 18.9015 21.4615 18.5714 21.4615C18.2413 21.4615 17.95 21.2457 17.8539 20.9299C17.4465 19.5912 16.3988 18.5435 15.0602 18.136C14.7444 18.0399 14.5286 17.7486 14.5286 17.4185C14.5286 17.0884 14.7444 16.7971 15.0602 16.701C16.3988 16.2936 17.4465 15.2459 17.8539 13.9071C17.95 13.5913 18.2413 13.3755 18.5714 13.3755ZM17.0097 17.4185C17.627 17.8322 18.1577 18.363 18.5714 18.9803C18.9851 18.363 19.5159 17.8322 20.1332 17.4185C19.5159 17.0048 18.9851 16.474 18.5714 15.8567C18.1577 16.474 17.627 17.0048 17.0097 17.4185Z" fill="#000000" />
</svg>