<svg width="24px"  height="24px"  viewBox="0 0 25 24" fill="none" xmlns="http://www.w3.org/2000/svg">
<path fill-rule="evenodd" clip-rule="evenodd" d="M15.2611 2.25C15.575 2.25 15.8556 2.4454 15.9645 2.73972L17.5607 7.05336L21.8744 8.64955C22.1687 8.75846 22.3641 9.03911 22.3641 9.35294C22.3641 9.66677 22.1687 9.94742 21.8744 10.0563L17.5607 11.6525L15.9645 15.9662C15.8556 16.2605 15.575 16.4559 15.2611 16.4559C14.9473 16.4559 14.6667 16.2605 14.5578 15.9662L12.9616 11.6525L8.64793 10.0563C8.3536 9.94742 8.1582 9.66677 8.1582 9.35294C8.1582 9.03911 8.3536 8.75846 8.64793 8.64955L12.9616 7.05336L14.5578 2.73972C14.6667 2.4454 14.9473 2.25 15.2611 2.25ZM15.2611 5.16116L14.2487 7.89735C14.1727 8.10264 14.0108 8.2645 13.8056 8.34046L11.0694 9.35294L13.8056 10.3654C14.0108 10.4414 14.1727 10.6032 14.2487 10.8085L15.2611 13.5447L16.2736 10.8085C16.3496 10.6032 16.5114 10.4414 16.7167 10.3654L19.4529 9.35294L16.7167 8.34046C16.5114 8.2645 16.3496 8.10264 16.2736 7.89735L15.2611 5.16116Z" fill="#000000" />
<path fill-rule="evenodd" clip-rule="evenodd" d="M7.32014 12.8384C7.56862 12.8384 7.80097 12.9614 7.94058 13.167L9.35896 15.2554L11.4474 16.6738C11.653 16.8134 11.776 17.0458 11.776 17.2943C11.776 17.5427 11.653 17.7751 11.4474 17.9147L9.35896 19.3331L7.94058 21.4215C7.80097 21.6271 7.56862 21.7501 7.32014 21.7501C7.07166 21.7501 6.83931 21.6271 6.6997 21.4215L5.28132 19.3331L3.19288 17.9147C2.98733 17.7751 2.86426 17.5427 2.86426 17.2943C2.86426 17.0458 2.98733 16.8134 3.19288 16.6738L5.28132 15.2554L6.6997 13.167C6.83931 12.9614 7.07166 12.8384 7.32014 12.8384ZM7.32014 14.9233L6.44168 16.2167C6.38848 16.2951 6.32094 16.3626 6.24262 16.4158L4.94917 17.2943L6.24262 18.1727C6.32094 18.2259 6.38848 18.2935 6.44168 18.3718L7.32014 19.6652L8.1986 18.3718C8.2518 18.2935 8.31934 18.2259 8.39766 18.1727L9.69111 17.2943L8.39766 16.4158C8.31934 16.3626 8.2518 16.2951 8.1986 16.2167L7.32014 14.9233Z" fill="#000000" />
</svg>