<svg width="24px"  height="24px"  viewBox="0 0 25 24" fill="none" xmlns="http://www.w3.org/2000/svg">
<path fill-rule="evenodd" clip-rule="evenodd" d="M7.66602 16.9921C7.95894 17.2849 7.95899 17.7598 7.66612 18.0527L6.66612 19.0529C6.37326 19.3459 5.89839 19.3459 5.60546 19.053C5.31254 18.7602 5.3125 18.2853 5.60536 17.9924L6.60536 16.9922C6.89822 16.6993 7.3731 16.6992 7.66602 16.9921Z" fill="#000000" />
<path fill-rule="evenodd" clip-rule="evenodd" d="M17.6032 16.9699C17.896 16.6769 18.3709 16.6767 18.6639 16.9695L19.6649 17.9697C19.9579 18.2624 19.9581 18.7373 19.6653 19.0303C19.3726 19.3233 18.8977 19.3235 18.6047 19.0307L17.6037 18.0305C17.3107 17.7378 17.3105 17.2629 17.6032 16.9699Z" fill="#000000" />
<path fill-rule="evenodd" clip-rule="evenodd" d="M5.58176 4.99234C5.87454 4.69933 6.34941 4.69914 6.64242 4.99192L7.64242 5.99112C7.93543 6.28389 7.93562 6.75877 7.64285 7.05178C7.35007 7.34479 6.8752 7.34498 6.58219 7.0522L5.58219 6.053C5.28918 5.76023 5.28899 5.28535 5.58176 4.99234Z" fill="#000000" />
<path fill-rule="evenodd" clip-rule="evenodd" d="M19.6439 4.96988C19.9366 5.2629 19.9364 5.73777 19.6434 6.03054L18.6424 7.03074C18.3494 7.32352 17.8745 7.32333 17.5818 7.03031C17.289 6.7373 17.2892 6.26243 17.5822 5.96965L18.5832 4.96946C18.8762 4.67668 19.3511 4.67687 19.6439 4.96988Z" fill="#000000" />
<path fill-rule="evenodd" clip-rule="evenodd" d="M12.6143 19.25C13.0285 19.25 13.3643 19.5858 13.3643 20V21.0002C13.3643 21.4144 13.0285 21.7502 12.6143 21.7502C12.2 21.7502 11.8643 21.4144 11.8643 21.0002V20C11.8643 19.5858 12.2 19.25 12.6143 19.25Z" fill="#000000" />
<path fill-rule="evenodd" clip-rule="evenodd" d="M12.6143 2.25C13.0285 2.25 13.3643 2.58579 13.3643 3V4.0002C13.3643 4.41441 13.0285 4.7502 12.6143 4.7502C12.2 4.7502 11.8643 4.41441 11.8643 4.0002V3C11.8643 2.58579 12.2 2.25 12.6143 2.25Z" fill="#000000" />
<path fill-rule="evenodd" clip-rule="evenodd" d="M2.86426 12C2.86426 11.5858 3.20004 11.25 3.61426 11.25H4.65927C5.07348 11.25 5.40927 11.5858 5.40927 12C5.40927 12.4142 5.07348 12.75 4.65927 12.75H3.61426C3.20004 12.75 2.86426 12.4142 2.86426 12Z" fill="#000000" />
<path fill-rule="evenodd" clip-rule="evenodd" d="M19.8193 12C19.8193 11.5858 20.1551 11.25 20.5693 11.25H21.6143C22.0286 11.25 22.3643 11.5858 22.3643 12C22.3643 12.4142 22.0286 12.75 21.6143 12.75H20.5693C20.1551 12.75 19.8193 12.4142 19.8193 12Z" fill="#000000" />
<path fill-rule="evenodd" clip-rule="evenodd" d="M12.6146 7.13232C12.9447 7.13232 13.236 7.34815 13.3321 7.66395C13.8598 9.39786 15.2167 10.7548 16.9505 11.2826C17.2663 11.3787 17.4821 11.67 17.4821 12.0001C17.4821 12.3301 17.2663 12.6214 16.9505 12.7176C15.2167 13.2453 13.8598 14.6022 13.3321 16.3362C13.236 16.652 12.9447 16.8678 12.6146 16.8678C12.2845 16.8678 11.9932 16.652 11.8971 16.3362C11.3694 14.6022 10.0125 13.2453 8.27868 12.7176C7.96289 12.6214 7.74707 12.3301 7.74707 12.0001C7.74707 11.67 7.96289 11.3787 8.27868 11.2826C10.0125 10.7548 11.3694 9.39786 11.8971 7.66395C11.9932 7.34815 12.2845 7.13232 12.6146 7.13232ZM10.3135 12.0001C11.2518 12.5737 12.041 13.3629 12.6146 14.3012C13.1882 13.3629 13.9774 12.5737 14.9157 12.0001C13.9774 11.4264 13.1882 10.6372 12.6146 9.69888C12.041 10.6372 11.2518 11.4264 10.3135 12.0001Z" fill="#000000" />
</svg>