<svg width="24px"  height="24px"  viewBox="0 0 25 24" fill="none" xmlns="http://www.w3.org/2000/svg">
<path fill-rule="evenodd" clip-rule="evenodd" d="M10.5016 2.73804C10.8154 2.73804 11.0961 2.93343 11.205 3.22776L12.9455 7.93146L17.6492 9.67199C17.9435 9.7809 18.1389 10.0615 18.1389 10.3754C18.1389 10.6892 17.9435 10.9699 17.6492 11.0788L12.9455 12.8193L11.205 17.523C11.0961 17.8173 10.8154 18.0127 10.5016 18.0127C10.1878 18.0127 9.90712 17.8173 9.79821 17.523L8.05768 12.8193L3.35398 11.0788C3.05965 10.9699 2.86426 10.6892 2.86426 10.3754C2.86426 10.0615 3.05965 9.7809 3.35398 9.67199L8.05768 7.93146L9.79821 3.22776C9.90712 2.93343 10.1878 2.73804 10.5016 2.73804ZM10.5016 5.64919L9.34478 8.77545C9.26882 8.98074 9.10696 9.1426 8.90167 9.21856L5.77541 10.3754L8.90167 11.5322C9.10696 11.6082 9.26882 11.77 9.34478 11.9753L10.5016 15.1016L11.6584 11.9753C11.7344 11.77 11.8962 11.6082 12.1015 11.5322L15.2278 10.3754L12.1015 9.21856C11.8962 9.1426 11.7344 8.98074 11.6584 8.77545L10.5016 5.64919Z" fill="#000000" />
<path fill-rule="evenodd" clip-rule="evenodd" d="M18.4332 13.3994C18.747 13.3994 19.0277 13.5948 19.1366 13.8891L19.8761 15.8877L21.8747 16.6272C22.169 16.7362 22.3644 17.0168 22.3644 17.3306C22.3644 17.6445 22.169 17.9251 21.8747 18.034L19.8761 18.7736L19.1366 20.7721C19.0277 21.0665 18.747 21.2619 18.4332 21.2619C18.1193 21.2619 17.8387 21.0665 17.7298 20.7721L16.9902 18.7736L14.9917 18.034C14.6973 17.9251 14.502 17.6445 14.502 17.3306C14.502 17.0168 14.6973 16.7362 14.9917 16.6272L16.9902 15.8877L17.7298 13.8891C17.8387 13.5948 18.1193 13.3994 18.4332 13.3994ZM18.4332 16.3106L18.2773 16.7317C18.2014 16.937 18.0395 17.0988 17.8342 17.1748L17.4131 17.3306L17.8342 17.4865C18.0395 17.5624 18.2014 17.7243 18.2773 17.9296L18.4332 18.3507L18.589 17.9296C18.665 17.7243 18.8268 17.5624 19.0321 17.4865L19.4532 17.3306L19.0321 17.1748C18.8268 17.0988 18.665 16.937 18.589 16.7317L18.4332 16.3106Z" fill="#000000" />
</svg>