<svg width="24px"  height="24px"  viewBox="0 0 25 24" fill="none" xmlns="http://www.w3.org/2000/svg">
<path fill-rule="evenodd" clip-rule="evenodd" d="M12.4732 2.25C12.8033 2.25 13.0946 2.46583 13.1907 2.78163C14.4304 6.85493 17.6181 10.0427 21.6912 11.2825C22.007 11.3786 22.2228 11.6699 22.2228 12C22.2228 12.3301 22.007 12.6214 21.6912 12.7175C17.6181 13.9573 14.4304 17.1451 13.1907 21.2184C13.0946 21.5342 12.8033 21.75 12.4732 21.75C12.1431 21.75 11.8518 21.5342 11.7557 21.2184C10.516 17.1451 7.32832 13.9573 3.25524 12.7175C2.93945 12.6214 2.72363 12.3301 2.72363 12C2.72363 11.6699 2.93945 11.3786 3.25524 11.2825C7.32832 10.0427 10.516 6.85493 11.7557 2.78163C11.8518 2.46583 12.1431 2.25 12.4732 2.25ZM5.56564 12C8.60771 13.4176 11.0557 15.8657 12.4732 18.9078C13.8907 15.8657 16.3387 13.4176 19.3808 12C16.3387 10.5824 13.8907 8.13435 12.4732 5.09216C11.0557 8.13435 8.60771 10.5824 5.56564 12Z" fill="#000000" />
</svg>