<svg width="24px"  height="24px"  viewBox="0 0 25 24" fill="none" xmlns="http://www.w3.org/2000/svg">
<path fill-rule="evenodd" clip-rule="evenodd" d="M2.94331 8.23725C3.21203 7.96853 3.63928 7.94327 3.93779 8.17846L5.72602 9.58735C8.06584 11.4308 11.3641 11.4308 13.7039 9.58735L15.4922 8.17846C15.7907 7.94327 16.2179 7.96853 16.4866 8.23725C16.7554 8.50598 16.7806 8.93322 16.5454 9.23173L15.1365 11.02C13.2931 13.3598 13.2931 16.658 15.1365 18.9979L16.5454 20.7861C16.7806 21.0846 16.7554 21.5119 16.4866 21.7806C16.2179 22.0493 15.7907 22.0746 15.4922 21.8394L13.7039 20.4305C11.3641 18.587 8.06584 18.587 5.72602 20.4305L3.93779 21.8394C3.63928 22.0746 3.21203 22.0493 2.94331 21.7806C2.67459 21.5119 2.64933 21.0846 2.88452 20.7861L4.2934 18.9979C6.13688 16.658 6.13687 13.3598 4.2934 11.02L2.88452 9.23173C2.64933 8.93322 2.67459 8.50598 2.94331 8.23725ZM6.49532 11.7893C7.4029 13.8363 7.4029 16.1815 6.49532 18.2286C8.54235 17.321 10.8876 17.321 12.9346 18.2286C12.027 16.1815 12.027 13.8363 12.9346 11.7893C10.8876 12.6968 8.54235 12.6968 6.49532 11.7893Z" fill="#000000" />
<path fill-rule="evenodd" clip-rule="evenodd" d="M6.85127 2.21968C7.11999 1.95095 7.54723 1.9257 7.84575 2.16088L8.37834 2.58049C8.88403 2.97892 9.59687 2.97892 10.1026 2.58049L10.6352 2.16088C10.9337 1.9257 11.3609 1.95095 11.6296 2.21968C11.8984 2.4884 11.9236 2.91564 11.6884 3.21416L11.2688 3.74674C10.8704 4.25244 10.8704 4.96528 11.2688 5.47098L11.6884 6.00357C11.9236 6.30208 11.8984 6.72932 11.6296 6.99805C11.3609 7.26677 10.9337 7.29203 10.6352 7.05684L10.1026 6.63723C9.59687 6.23881 8.88403 6.23881 8.37834 6.63723L7.84575 7.05684C7.54723 7.29203 7.11999 7.26677 6.85127 6.99805C6.58254 6.72932 6.55729 6.30208 6.79248 6.00357L7.21208 5.47098C7.61051 4.96528 7.61051 4.25244 7.21208 3.74674L6.79248 3.21416C6.55729 2.91564 6.58254 2.4884 6.85127 2.21968ZM9.00101 4.36941C9.0142 4.52876 9.0142 4.68897 9.00101 4.84831C9.16035 4.83512 9.32056 4.83512 9.4799 4.84831C9.46671 4.68897 9.46671 4.52876 9.4799 4.36941C9.32056 4.38261 9.16035 4.38261 9.00101 4.36941Z" fill="#000000" />
<path fill-rule="evenodd" clip-rule="evenodd" d="M17.5058 12.2517C17.7745 11.9829 18.2018 11.9577 18.5003 12.1929L19.0329 12.6125C19.5386 13.0109 20.2514 13.0109 20.7571 12.6125L21.2897 12.1929C21.5882 11.9577 22.0155 11.9829 22.2842 12.2517C22.5529 12.5204 22.5782 12.9476 22.343 13.2461L21.9234 13.7787C21.5249 14.2844 21.5249 14.9973 21.9234 15.503L22.343 16.0355C22.5782 16.3341 22.5529 16.7613 22.2842 17.03C22.0155 17.2988 21.5882 17.324 21.2897 17.0888L20.7571 16.6692C20.2514 16.2708 19.5386 16.2708 19.0329 16.6692L18.5003 17.0888C18.2018 17.324 17.7745 17.2988 17.5058 17.03C17.2371 16.7613 17.2118 16.3341 17.447 16.0355L17.8666 15.503C18.265 14.9973 18.265 14.2844 17.8666 13.7787L17.447 13.2461C17.2118 12.9476 17.2371 12.5204 17.5058 12.2517ZM19.6555 14.4014C19.6687 14.5607 19.6687 14.7209 19.6555 14.8803C19.8149 14.8671 19.9751 14.8671 20.1344 14.8803C20.1212 14.7209 20.1212 14.5607 20.1344 14.4014C19.9751 14.4146 19.8149 14.4146 19.6555 14.4014Z" fill="#000000" />
</svg>