<svg width="24px"  height="24px"  viewBox="0 0 25 24" fill="none" xmlns="http://www.w3.org/2000/svg">
<path d="M16.3375 8.28C16.1875 8.28 16.0275 8.22998 15.8975 8.13998C15.6375 7.94998 15.5276 7.60999 15.6276 7.29999L15.9575 6.28L15.0875 5.64999C14.8275 5.45999 14.7176 5.12 14.8176 4.81C14.9176 4.5 15.2075 4.28998 15.5275 4.28998H16.5975L16.9276 3.26999C17.0276 2.95999 17.3175 2.75 17.6375 2.75C17.9575 2.75 18.2475 2.95999 18.3475 3.26999L18.6776 4.28998H19.7476C20.0776 4.28998 20.3575 4.5 20.4575 4.81C20.5575 5.12 20.4576 5.45999 20.1876 5.64999L19.3176 6.28L19.6475 7.29999C19.7475 7.60999 19.6476 7.94998 19.3776 8.13998C19.1176 8.32998 18.7576 8.32998 18.4976 8.13998L17.6276 7.50998L16.7575 8.13998C16.6275 8.23998 16.4676 8.28 16.3176 8.28H16.3375ZM17.6475 5.82999C17.6475 5.82999 17.6976 5.82999 17.7276 5.82999C17.7376 5.77999 17.7575 5.72997 17.7775 5.68997C17.7375 5.65997 17.6975 5.63998 17.6575 5.59998C17.6175 5.62998 17.5776 5.65997 17.5376 5.68997C17.5576 5.73997 17.5775 5.77999 17.5875 5.82999C17.6075 5.82999 17.6375 5.82999 17.6575 5.82999H17.6475Z" fill="#000000" />
<path d="M19.0772 21.0398C18.9272 21.0398 18.7672 20.9898 18.6372 20.8998C18.3772 20.7098 18.2673 20.3698 18.3673 20.0598L18.6072 19.3198L17.9772 18.8698C17.7172 18.6798 17.6072 18.3398 17.7072 18.0298C17.8072 17.7198 18.0972 17.5098 18.4172 17.5098H19.1873L19.4273 16.7798C19.5273 16.4698 19.8172 16.2598 20.1372 16.2598C20.4572 16.2598 20.7472 16.4698 20.8472 16.7798L21.0872 17.5098H21.8572C22.1872 17.5098 22.4673 17.7198 22.5673 18.0298C22.6673 18.3398 22.5672 18.6798 22.2972 18.8698L21.6672 19.3298L21.9072 20.0698C22.0072 20.3798 21.9072 20.7198 21.6372 20.9098C21.3772 21.0998 21.0172 21.0998 20.7572 20.9098L20.1273 20.4598L19.4973 20.9098C19.3673 21.0098 19.2073 21.0498 19.0573 21.0498L19.0772 21.0398Z" fill="#000000" />
<path d="M6.46738 21.2499C6.30738 21.2499 6.1474 21.2299 5.9874 21.1799C5.5574 21.0499 5.1974 20.7399 4.9874 20.3299C4.8274 19.9999 4.76736 19.6399 4.82736 19.2799L5.34738 16.1399C5.35738 16.0699 5.34739 15.9899 5.29739 15.9499L3.1174 13.7299C2.4774 13.0799 2.45741 12.0399 3.06741 11.3599C3.32741 11.0699 3.67739 10.8899 4.04739 10.8399L7.04739 10.3799C7.04739 10.3799 7.13739 10.3399 7.16739 10.2799L8.51737 7.42991C8.72737 6.99991 9.08737 6.6899 9.51737 6.5499C9.93737 6.4199 10.3874 6.4599 10.7874 6.6699C11.0874 6.8399 11.3374 7.08989 11.4874 7.40989C11.4874 7.40989 11.4874 7.4099 11.4874 7.4199L12.8374 10.2699C12.8674 10.3199 12.9074 10.3599 12.9574 10.3699L15.9674 10.8299C16.8474 10.9499 17.4874 11.8099 17.3674 12.7299C17.3174 13.1099 17.1574 13.4599 16.8974 13.7199L14.7174 15.9399C14.7174 15.9399 14.6474 16.0599 14.6574 16.1299L15.1774 19.2599C15.3174 20.1899 14.7074 21.0699 13.8174 21.2199C13.4474 21.2799 13.0774 21.2199 12.7574 21.0299L10.0774 19.5599C10.0774 19.5599 9.99736 19.5399 9.94736 19.5599L7.25736 21.0399C7.01736 21.1799 6.74739 21.2499 6.47739 21.2499H6.46738ZM10.0474 7.99991C9.93739 7.99991 9.89739 8.01991 9.85739 8.08991L8.51737 10.9299C8.27737 11.4399 7.80737 11.7899 7.26737 11.8699L4.25736 12.3299C4.09736 12.4499 4.0974 12.5999 4.1774 12.6799L6.35739 14.8899C6.73739 15.2799 6.91741 15.8399 6.81741 16.3799L6.3074 19.5099C6.3074 19.5099 6.30737 19.6099 6.33737 19.6599C6.36737 19.7199 6.4074 19.7399 6.4274 19.7399L9.21738 18.2499C9.70738 17.9799 10.2974 17.9799 10.7874 18.2499L13.4774 19.7299C13.6274 19.7299 13.7074 19.6299 13.6874 19.4999L13.1674 16.3799C13.0774 15.8399 13.2574 15.2799 13.6374 14.8899L15.8174 12.6699C15.8174 12.6699 15.8674 12.5899 15.8674 12.5499C15.8774 12.4299 15.8074 12.3399 15.7374 12.3199L12.7174 11.8599C12.1774 11.7699 11.7074 11.4199 11.4674 10.9199L10.1274 8.0799C10.1274 8.0799 10.0774 8.0099 10.0474 7.9899H10.0374L10.0474 7.99991Z" fill="#000000" />
</svg>