<svg width="24px"  height="24px"  viewBox="0 0 25 24" fill="none" xmlns="http://www.w3.org/2000/svg">
<path fill-rule="evenodd" clip-rule="evenodd" d="M2.46387 12.2656C2.46387 11.9178 2.70306 11.6156 3.04162 11.5357L8.49419 10.249L7.00406 7.83844C6.82115 7.54255 6.86571 7.15973 7.11168 6.91376C7.35765 6.66778 7.74048 6.62323 8.03637 6.80613L10.4472 8.2964L11.7339 2.84338C11.8138 2.50482 12.116 2.26562 12.4639 2.26562C12.8117 2.26562 13.1139 2.50482 13.1938 2.84338L14.4806 8.29635L16.8913 6.80613C17.1872 6.62323 17.57 6.66778 17.816 6.91376C18.0619 7.15973 18.1065 7.54255 17.9236 7.83844L16.4335 10.249L21.8861 11.5357C22.2247 11.6156 22.4639 11.9178 22.4639 12.2656C22.4639 12.6135 22.2247 12.9157 21.8861 12.9956L16.4332 14.2823L17.9236 16.6933C18.1065 16.9892 18.0619 17.3721 17.816 17.618C17.57 17.864 17.1872 17.9086 16.8913 17.7257L14.4804 16.2354L13.1938 21.6879C13.1139 22.0264 12.8117 22.2656 12.4639 22.2656C12.116 22.2656 11.8138 22.0264 11.7339 21.6879L10.4473 16.2353L8.03637 17.7257C7.74048 17.9086 7.35765 17.864 7.11168 17.618C6.86571 17.3721 6.82115 16.9892 7.00406 16.6933L8.49448 14.2823L3.04162 12.9956C2.70306 12.9157 2.46387 12.6135 2.46387 12.2656ZM6.47953 12.2656L9.85193 13.0614C10.0866 13.1168 10.2803 13.2816 10.3726 13.5044C10.4649 13.7271 10.4444 13.9806 10.3176 14.1857L9.95118 14.7785L10.5438 14.4122C10.7489 14.2854 11.0025 14.2649 11.2252 14.3572C11.448 14.4495 11.6128 14.6432 11.6682 14.8779L12.4639 18.25L13.2596 14.8779C13.3149 14.6433 13.4798 14.4495 13.7025 14.3573C13.9253 14.265 14.1788 14.2854 14.3839 14.4122L14.9765 14.7785L14.61 14.1857C14.4832 13.9807 14.4628 13.7271 14.5551 13.5044C14.6473 13.2816 14.8411 13.1168 15.0757 13.0614L18.4482 12.2656L15.076 11.4699C14.8413 11.4145 14.6476 11.2497 14.5553 11.0269C14.4631 10.8042 14.4835 10.5507 14.6103 10.3456L14.9765 9.75326L14.384 10.1195C14.1789 10.2463 13.9254 10.2667 13.7026 10.1745C13.4799 10.0822 13.3151 9.88846 13.2597 9.65379L12.4639 6.28129L11.668 9.65385C11.6127 9.88851 11.4479 10.0822 11.2251 10.1745C11.0023 10.2668 10.7488 10.2463 10.5437 10.1195L9.95118 9.75326L10.3173 10.3456C10.4441 10.5507 10.4646 10.8042 10.3723 11.027C10.28 11.2497 10.0863 11.4145 9.85164 11.4699L6.47953 12.2656Z" fill="#000000" />
</svg>