<svg width="24px"  height="24px"  viewBox="0 0 25 24" fill="none" xmlns="http://www.w3.org/2000/svg">
<path fill-rule="evenodd" clip-rule="evenodd" d="M12.6133 3.75049C8.05693 3.75049 4.36328 7.44414 4.36328 12.0005C4.36328 16.5568 8.05693 20.2505 12.6133 20.2505C17.1696 20.2505 20.8633 16.5568 20.8633 12.0005C20.8633 11.5863 21.1991 11.2505 21.6133 11.2505C22.0275 11.2505 22.3633 11.5863 22.3633 12.0005C22.3633 17.3853 17.9981 21.7505 12.6133 21.7505C7.22851 21.7505 2.86328 17.3853 2.86328 12.0005C2.86328 6.61571 7.22851 2.25049 12.6133 2.25049C13.0275 2.25049 13.3633 2.58627 13.3633 3.00049C13.3633 3.4147 13.0275 3.75049 12.6133 3.75049Z" fill="#000000" />
<path fill-rule="evenodd" clip-rule="evenodd" d="M21.1445 3.46991C21.4374 3.7628 21.4374 4.23768 21.1445 4.53057L18.8282 6.84692C18.5353 7.13982 18.0604 7.13982 17.7675 6.84693C17.4746 6.55404 17.4746 6.07916 17.7675 5.78627L20.0838 3.46992C20.3767 3.17702 20.8516 3.17702 21.1445 3.46991Z" fill="#000000" />
<path fill-rule="evenodd" clip-rule="evenodd" d="M17.1458 2.47027C17.4387 2.76323 17.4385 3.2381 17.1456 3.53093L15.7434 4.93257C15.4504 5.2254 14.9755 5.2253 14.6827 4.93234C14.3899 4.63939 14.39 4.16451 14.6829 3.87168L16.0852 2.47004C16.3781 2.17721 16.853 2.17732 17.1458 2.47027Z" fill="#000000" />
<path fill-rule="evenodd" clip-rule="evenodd" d="M22.1459 7.47002C22.4387 7.76297 22.4386 8.23784 22.1457 8.53068L20.112 10.5636C19.8191 10.8564 19.3442 10.8563 19.0514 10.5634C18.7585 10.2704 18.7586 9.79553 19.0516 9.50269L21.0852 7.46981C21.3782 7.17698 21.853 7.17707 22.1459 7.47002Z" fill="#000000" />
<path fill-rule="evenodd" clip-rule="evenodd" d="M14.063 8.93548L12.5976 10.0574L12.5961 10.0586C12.2368 10.3323 11.7673 10.4124 11.3382 10.2744L9.57743 9.70915L10.2061 11.4199C10.2063 11.4204 10.2065 11.4209 10.2067 11.4215C10.3644 11.8473 10.3005 12.3254 10.0324 12.6948C10.0322 12.6951 10.032 12.6955 10.0317 12.6958L8.96286 14.174L10.8241 14.1276C11.2751 14.1165 11.7021 14.3255 11.9705 14.6853L13.0826 16.181L13.5873 14.427C13.7133 13.989 14.05 13.6432 14.4823 13.5049C14.4827 13.5048 14.483 13.5046 14.4834 13.5045L16.2197 12.9453L14.6919 11.9085C14.6915 11.9082 14.691 11.9079 14.6906 11.9076C14.3166 11.6551 14.0898 11.2354 14.0835 10.7845L14.0835 10.7824L14.063 8.93548ZM15.56 8.66678C15.5406 7.90137 14.9047 7.30027 14.1424 7.31852L14.1411 7.31855C13.8567 7.32586 13.5804 7.42139 13.3522 7.59063L13.3428 7.59755L11.7372 8.82707L9.78918 8.20173C9.07463 7.96677 8.30162 8.35249 8.06285 9.06879C7.96422 9.36448 7.97032 9.6824 8.0758 9.97157L8.07642 9.97327L8.77487 11.874L7.59201 13.5099C7.15406 14.1327 7.30555 14.9921 7.92663 15.4291L7.92787 15.43C8.1721 15.6011 8.46389 15.6882 8.76111 15.6795C8.76198 15.6795 8.76285 15.6795 8.76371 15.6794L10.8027 15.6286L12.0214 17.2678C12.4706 17.8791 13.3288 18.0124 13.9425 17.5665L13.9469 17.5633C14.1846 17.3879 14.3626 17.1394 14.4501 16.8526L14.4535 16.8414L15.0088 14.9112L16.937 14.2901C17.6571 14.0573 18.0514 13.2849 17.8191 12.5664L17.8183 12.5639C17.7231 12.2729 17.5328 12.0207 17.2764 11.8496L15.5827 10.7003L15.56 8.66678Z" fill="#000000" />
</svg>