<svg width="24px"  height="24px"  viewBox="0 0 25 24" fill="none" xmlns="http://www.w3.org/2000/svg">
<path fill-rule="evenodd" clip-rule="evenodd" d="M16.0904 7.21313C16.4205 7.21313 16.7118 7.42896 16.8079 7.74476C17.5242 10.0983 19.366 11.9402 21.7195 12.6566C22.0352 12.7527 22.2511 13.044 22.2511 13.3741C22.2511 13.7042 22.0352 13.9955 21.7195 14.0916C19.366 14.8079 17.5242 16.6498 16.8079 19.0034C16.7118 19.3192 16.4205 19.535 16.0904 19.535C15.7603 19.535 15.469 19.3192 15.3729 19.0034C14.6566 16.6498 12.8147 14.8079 10.4613 14.0916C10.1455 13.9955 9.92969 13.7042 9.92969 13.3741C9.92969 13.044 10.1455 12.7527 10.4613 12.6566C12.8147 11.9402 14.6566 10.0983 15.3729 7.74476C15.469 7.42896 15.7603 7.21313 16.0904 7.21313ZM12.5977 13.3741C14.0682 14.1843 15.2802 15.3963 16.0904 16.8669C16.9006 15.3963 18.1126 14.1843 19.5831 13.3741C18.1126 12.5639 16.9006 11.3518 16.0904 9.88127C15.2802 11.3518 14.0682 12.5639 12.5977 13.3741Z" fill="#000000" />
<path fill-rule="evenodd" clip-rule="evenodd" d="M7.47542 8.51807C7.80552 8.51807 8.09681 8.73389 8.19293 9.04969C8.62733 10.477 9.57319 11.6719 10.8216 12.4253C11.102 12.5945 11.232 12.9181 11.1684 13.2214C11.3525 13.1489 11.5403 13.0834 11.7315 13.0252C12.1277 12.9046 12.5467 13.1281 12.6674 13.5243C12.788 13.9206 12.5645 14.3396 12.1683 14.4602C10.2634 15.04 8.7727 16.5308 8.19293 18.4358C8.09681 18.7516 7.80552 18.9674 7.47542 18.9674C7.14532 18.9674 6.85403 18.7516 6.75792 18.4358C6.17814 16.5308 4.6874 15.04 2.78258 14.4602C2.46679 14.3641 2.25098 14.0728 2.25098 13.7427C2.25098 13.4126 2.46679 13.1213 2.78258 13.0252C4.6874 12.4454 6.17814 10.9546 6.75792 9.04969C6.85403 8.73389 7.14532 8.51807 7.47542 8.51807ZM10.1046 13.7412C10.085 13.7316 10.0657 13.7211 10.0467 13.7096C8.98901 13.0714 8.10483 12.1797 7.47542 11.1159C6.83507 12.1982 5.93099 13.1024 4.84874 13.7427C5.93099 14.3831 6.83507 15.2872 7.47542 16.3695C8.11627 15.2864 9.02126 14.3817 10.1046 13.7412Z" fill="#000000" />
<path fill-rule="evenodd" clip-rule="evenodd" d="M11.0681 2.91675C11.3982 2.91675 11.6895 3.13258 11.7856 3.44837C12.0637 4.36213 12.7788 5.07723 13.6925 5.35534C14.0083 5.45146 14.2241 5.74275 14.2241 6.07284C14.2241 6.40294 14.0083 6.69422 13.6925 6.79034C12.7788 7.06845 12.0637 7.78355 11.7856 8.69731C11.6895 9.01311 11.3982 9.22894 11.0681 9.22894C10.738 9.22894 10.4467 9.01311 10.3506 8.69731C10.0725 7.78355 9.3574 7.06845 8.44372 6.79034C8.12793 6.69422 7.91211 6.40294 7.91211 6.07284C7.91211 5.74275 8.12793 5.45146 8.44372 5.35534C9.3574 5.07723 10.0725 4.36213 10.3506 3.44837C10.4467 3.13258 10.738 2.91675 11.0681 2.91675ZM10.2728 6.07284C10.571 6.30254 10.8384 6.56992 11.0681 6.86814C11.2978 6.56992 11.5651 6.30254 11.8634 6.07284C11.5651 5.84315 11.2978 5.57577 11.0681 5.27754C10.8384 5.57577 10.571 5.84315 10.2728 6.07284Z" fill="#000000" />
</svg>