<svg width="24px"  height="24px"  viewBox="0 0 25 24" fill="none" xmlns="http://www.w3.org/2000/svg">
<path fill-rule="evenodd" clip-rule="evenodd" d="M6.84647 2.29517C7.17657 2.29517 7.46786 2.51099 7.56397 2.82679C7.96258 4.13647 8.98749 5.16142 10.2971 5.56003C10.6129 5.65615 10.8287 5.94744 10.8287 6.27753C10.8287 6.60762 10.6129 6.89891 10.2971 6.99503C8.98749 7.39364 7.96258 8.41859 7.56397 9.72827C7.46786 10.0441 7.17657 10.2599 6.84647 10.2599C6.51637 10.2599 6.22508 10.0441 6.12896 9.72827C5.73036 8.41859 4.70545 7.39364 3.39586 6.99503C3.08008 6.89891 2.86426 6.60762 2.86426 6.27753C2.86426 5.94744 3.08008 5.65615 3.39586 5.56003C4.70545 5.16142 5.73036 4.13647 6.12896 2.82679C6.22508 2.51099 6.51637 2.29517 6.84647 2.29517ZM5.33824 6.27753C5.93268 6.6791 6.44492 7.19135 6.84647 7.78581C7.24802 7.19135 7.76026 6.6791 8.3547 6.27753C7.76026 5.87596 7.24802 5.36371 6.84647 4.76925C6.44491 5.36371 5.93268 5.87597 5.33824 6.27753Z" fill="#000000" />
<path fill-rule="evenodd" clip-rule="evenodd" d="M15.0492 7.07471C15.3858 7.07471 15.6811 7.29892 15.7716 7.6231C16.2551 9.35572 16.9061 10.6053 17.8327 11.5435C18.7585 12.4809 20.0169 13.1653 21.8159 13.6674C22.14 13.7578 22.3642 14.0532 22.3642 14.3898C22.3642 14.7263 22.14 15.0217 21.8159 15.1122C20.0832 15.5957 18.8337 16.2466 17.8955 17.1733C16.9581 18.0991 16.2737 19.3574 15.7716 21.1564C15.6811 21.4806 15.3858 21.7048 15.0492 21.7048C14.7126 21.7048 14.4173 21.4806 14.3268 21.1564C13.8432 19.4238 13.1923 18.1743 12.2657 17.2361C11.3398 16.2987 10.0815 15.6142 8.28252 15.1122C7.95834 15.0217 7.73413 14.7263 7.73413 14.3898C7.73413 14.0532 7.95834 13.7578 8.28252 13.6674C10.0151 13.1838 11.2647 12.5329 12.2029 11.6063C13.1403 10.6804 13.8247 9.42209 14.3268 7.6231C14.4173 7.29892 14.7126 7.07471 15.0492 7.07471ZM15.0484 10.0471C14.5795 11.0768 13.9945 11.945 13.2569 12.6735C12.5349 13.3866 11.6885 13.9443 10.7065 14.3906C11.7362 14.8594 12.6044 15.4444 13.3329 16.182C14.046 16.904 14.6038 17.7505 15.05 18.7325C15.5189 17.7027 16.1038 16.8346 16.8414 16.106C17.5634 15.393 18.4099 14.8352 19.3919 14.389C18.3621 13.9201 17.494 13.3351 16.7655 12.5975C16.0524 11.8755 15.4946 11.0291 15.0484 10.0471Z" fill="#000000" />
<path fill-rule="evenodd" clip-rule="evenodd" d="M4.55957 19.1158C4.55957 18.5938 4.98267 18.1702 5.50518 18.1702C6.02709 18.1702 6.4509 18.5932 6.4509 19.1158C6.4509 19.6384 6.02709 20.0615 5.50518 20.0615C4.98266 20.0615 4.55957 19.6378 4.55957 19.1158Z" fill="#000000" />
<path fill-rule="evenodd" clip-rule="evenodd" d="M17.8401 4.69663C17.8401 4.1746 18.2632 3.75098 18.7857 3.75098C19.3076 3.75098 19.7314 4.174 19.7314 4.69663C19.7314 5.21925 19.3076 5.64228 18.7857 5.64228C18.2632 5.64228 17.8401 5.21866 17.8401 4.69663Z" fill="#000000" />
</svg>