<svg width="24px"  height="24px"  viewBox="0 0 25 24" fill="none" xmlns="http://www.w3.org/2000/svg">
<path fill-rule="evenodd" clip-rule="evenodd" d="M7.52246 3.4252C7.81253 3.25773 8.17849 3.3029 8.41913 3.53587L12.5225 7.50838L16.6258 3.53587C16.8664 3.3029 17.2324 3.25773 17.5225 3.4252C17.8125 3.59267 17.9564 3.93218 17.875 4.25708L16.4863 9.79692L21.9783 11.3643C22.3004 11.4562 22.5225 11.7505 22.5225 12.0855C22.5225 12.4204 22.3004 12.7147 21.9783 12.8067L16.4863 14.374L17.875 19.9138C17.9564 20.2387 17.8125 20.5782 17.5225 20.7457C17.2324 20.9132 16.8664 20.868 16.6258 20.635L12.5225 16.6625L8.41913 20.635C8.17849 20.868 7.81253 20.9132 7.52246 20.7457C7.23239 20.5782 7.08853 20.2387 7.16997 19.9138L8.5586 14.374L3.06664 12.8067C2.74455 12.7147 2.52246 12.4204 2.52246 12.0855C2.52246 11.7505 2.74455 11.4562 3.06664 11.3643L8.5586 9.79692L7.16997 4.25708C7.08853 3.93218 7.23239 3.59267 7.52246 3.4252ZM15.781 6.44152L13.0441 9.09112C12.7533 9.37265 12.2916 9.37265 12.0008 9.09112L9.26393 6.44152L10.1901 10.1365C10.2885 10.5291 10.0577 10.929 9.66846 11.0401L6.0054 12.0855L9.66846 13.1308C10.0577 13.2419 10.2885 13.6418 10.1901 14.0344L9.26393 17.7294L12.0008 15.0798C12.2916 14.7983 12.7533 14.7983 13.0441 15.0798L15.781 17.7294L14.8548 14.0344C14.7564 13.6418 14.9873 13.2419 15.3765 13.1308L19.0395 12.0855L15.3765 11.0401C14.9873 10.929 14.7564 10.5291 14.8548 10.1365L15.781 6.44152Z" fill="#000000" />
</svg>