<svg width="24px"  height="24px"  viewBox="0 0 25 24" fill="none" xmlns="http://www.w3.org/2000/svg">
<path fill-rule="evenodd" clip-rule="evenodd" d="M4.35445 3.89737C5.33894 2.84117 6.74095 2.25 8.39642 2.25H16.8311C18.4905 2.25 19.8931 2.84084 20.8771 3.89765C21.8555 4.94841 22.3643 6.39889 22.3643 8.02638V15.9736C22.3643 17.6011 21.8555 19.0516 20.877 20.1024C19.8928 21.1592 18.4899 21.75 16.8301 21.75H8.39642C6.73706 21.75 5.33464 21.1591 4.35083 20.1023C3.37268 19.0515 2.86426 17.601 2.86426 15.9736V8.02638C2.86426 6.39806 3.37542 4.94771 4.35445 3.89737ZM5.45171 4.92012C4.7745 5.64666 4.36426 6.70951 4.36426 8.02638V15.9736C4.36426 17.2914 4.77287 18.3541 5.44876 19.0802C6.11901 19.8003 7.10767 20.25 8.39642 20.25H16.8301C18.1195 20.25 19.1087 19.8002 19.7793 19.0801C20.4555 18.354 20.8643 17.2913 20.8643 15.9736V8.02638C20.8643 6.70868 20.4555 5.64597 19.7793 4.91984C19.1088 4.19975 18.1199 3.75 16.8311 3.75H8.39642C7.11254 3.75 6.12347 4.19943 5.45171 4.92012Z" fill="#000000" />
<path fill-rule="evenodd" clip-rule="evenodd" d="M12.6143 6.45313C12.9394 6.45319 13.2274 6.66267 13.3276 6.97191C13.9909 9.01873 15.5969 10.6241 17.6443 11.2884C17.9535 11.3888 18.1629 11.6769 18.1628 12.002C18.1628 12.3271 17.9533 12.6151 17.6441 12.7153C15.5969 13.3787 13.991 14.9839 13.3276 17.0317C13.2274 17.3409 12.9394 17.5505 12.6143 17.5505C12.2892 17.5506 12.001 17.3412 11.9007 17.0319C11.2364 14.9837 9.63115 13.3786 7.58422 12.7153C7.27497 12.6151 7.06549 12.3271 7.06543 12.002C7.06537 11.6769 7.27473 11.3888 7.58394 11.2884C9.63117 10.6241 11.2364 9.01887 11.9008 6.97163C12.0011 6.66243 12.2892 6.45306 12.6143 6.45313ZM9.64354 12.0016C10.8739 12.7172 11.8981 13.7415 12.6139 14.972C13.3297 13.7414 14.3542 12.7172 15.5846 12.0016C14.3542 11.2857 13.3297 10.2615 12.6139 9.03114C11.8981 10.2614 10.8738 11.2857 9.64354 12.0016Z" fill="#000000" />
</svg>