<svg width="24px"  height="24px"  viewBox="0 0 25 24" fill="none" xmlns="http://www.w3.org/2000/svg">
<path fill-rule="evenodd" clip-rule="evenodd" d="M5.45171 4.92012C4.7745 5.64666 4.36426 6.7095 4.36426 8.02637V15.9736C4.36426 17.2914 4.77287 18.3541 5.44876 19.0802C6.11901 19.8002 7.10767 20.25 8.39642 20.25H16.8302C18.1195 20.25 19.1087 19.8002 19.7793 19.0801C20.4555 18.354 20.8643 17.2913 20.8643 15.9736V8.02637C20.8643 6.70867 20.4555 5.64596 19.7794 4.91983C19.1089 4.19975 18.1199 3.75 16.8312 3.75H8.39642C7.11253 3.75 6.12347 4.19943 5.45171 4.92012ZM4.35445 3.89736C5.33894 2.84117 6.74095 2.25 8.39642 2.25H16.8312C18.4905 2.25 19.8931 2.84084 20.8771 3.89765C21.8555 4.94841 22.3643 6.39888 22.3643 8.02637V15.9736C22.3643 17.6011 21.8555 19.0516 20.877 20.1024C19.8928 21.1592 18.4899 21.75 16.8302 21.75H8.39642C6.73706 21.75 5.33463 21.1591 4.35083 20.1022C3.37267 19.0514 2.86426 17.601 2.86426 15.9736V8.02637C2.86426 6.39805 3.37542 4.94771 4.35445 3.89736Z" fill="#000000" />
<path fill-rule="evenodd" clip-rule="evenodd" d="M12.6143 2.34814C13.0285 2.34814 13.3643 2.68393 13.3643 3.09814V5.31533C13.3643 5.72954 13.0285 6.06533 12.6143 6.06533C12.2 6.06533 11.8643 5.72954 11.8643 5.31533V3.09814C11.8643 2.68393 12.2 2.34814 12.6143 2.34814Z" fill="#000000" />
<path fill-rule="evenodd" clip-rule="evenodd" d="M12.6143 21.6218C13.0285 21.6218 13.3643 21.286 13.3643 20.8718V18.6546C13.3643 18.2404 13.0285 17.9046 12.6143 17.9046C12.2 17.9046 11.8643 18.2404 11.8643 18.6546V20.8718C11.8643 21.286 12.2 21.6218 12.6143 21.6218Z" fill="#000000" />
<path fill-rule="evenodd" clip-rule="evenodd" d="M15.5459 2.34814C15.9601 2.34814 16.2959 2.68393 16.2959 3.09814V7.42353C16.2959 7.83774 15.9601 8.17353 15.5459 8.17353C15.1317 8.17353 14.7959 7.83774 14.7959 7.42353V3.09814C14.7959 2.68393 15.1317 2.34814 15.5459 2.34814Z" fill="#000000" />
<path fill-rule="evenodd" clip-rule="evenodd" d="M15.5459 21.6218C15.9601 21.6218 16.2959 21.286 16.2959 20.8718V16.5464C16.2959 16.1322 15.9601 15.7964 15.5459 15.7964C15.1317 15.7964 14.7959 16.1322 14.7959 16.5464V20.8718C14.7959 21.286 15.1317 21.6218 15.5459 21.6218Z" fill="#000000" />
<path fill-rule="evenodd" clip-rule="evenodd" d="M18.6143 2.62549C19.0285 2.62549 19.3643 2.96127 19.3643 3.37549V9.50033C19.3643 9.91454 19.0285 10.2503 18.6143 10.2503C18.2 10.2503 17.8643 9.91454 17.8643 9.50033V3.37549C17.8643 2.96127 18.2 2.62549 18.6143 2.62549Z" fill="#000000" />
<path fill-rule="evenodd" clip-rule="evenodd" d="M18.6143 21.3445C19.0285 21.3445 19.3643 21.0087 19.3643 20.5945V14.4696C19.3643 14.0554 19.0285 13.7196 18.6143 13.7196C18.2 13.7196 17.8643 14.0554 17.8643 14.4696V20.5945C17.8643 21.0087 18.2 21.3445 18.6143 21.3445Z" fill="#000000" />
<path fill-rule="evenodd" clip-rule="evenodd" d="M12.6143 6.99976C12.9444 6.99976 13.2356 7.21558 13.3318 7.53138C13.8788 9.32877 15.2854 10.7354 17.0827 11.2825C17.3984 11.3786 17.6143 11.6699 17.6143 12C17.6143 12.3301 17.3984 12.6213 17.0827 12.7175C15.2854 13.2645 13.8788 14.6711 13.3318 16.4685C13.2356 16.7843 12.9444 17.0002 12.6143 17.0002C12.2842 17.0002 11.9929 16.7843 11.8968 16.4685C11.3497 14.6711 9.94313 13.2645 8.14586 12.7175C7.83008 12.6213 7.61426 12.33 7.61426 12C7.61426 11.6699 7.83008 11.3786 8.14586 11.2825C9.94313 10.7354 11.3497 9.32877 11.8968 7.53138C11.9929 7.21558 12.2842 6.99976 12.6143 6.99976ZM10.1927 12C11.1841 12.5985 12.0157 13.4302 12.6143 14.4216C13.2128 13.4302 14.0444 12.5985 15.0359 12C14.0444 11.4014 13.2128 10.5697 12.6143 9.57828C12.0157 10.5697 11.1841 11.4014 10.1927 12Z" fill="#000000" />
<path fill-rule="evenodd" clip-rule="evenodd" d="M9.68262 2.34814C9.2684 2.34814 8.93262 2.68393 8.93262 3.09814V7.42353C8.93262 7.83774 9.2684 8.17353 9.68262 8.17353C10.0968 8.17353 10.4326 7.83774 10.4326 7.42353V3.09814C10.4326 2.68393 10.0968 2.34814 9.68262 2.34814Z" fill="#000000" />
<path fill-rule="evenodd" clip-rule="evenodd" d="M9.68262 21.6218C9.2684 21.6218 8.93262 21.286 8.93262 20.8718V16.5464C8.93262 16.1322 9.2684 15.7964 9.68262 15.7964C10.0968 15.7964 10.4326 16.1322 10.4326 16.5464V20.8718C10.4326 21.286 10.0968 21.6218 9.68262 21.6218Z" fill="#000000" />
<path fill-rule="evenodd" clip-rule="evenodd" d="M6.61426 2.62549C6.20004 2.62549 5.86426 2.96127 5.86426 3.37549V9.50033C5.86426 9.91454 6.20004 10.2503 6.61426 10.2503C7.02847 10.2503 7.36426 9.91454 7.36426 9.50033V3.37549C7.36426 2.96127 7.02847 2.62549 6.61426 2.62549Z" fill="#000000" />
<path fill-rule="evenodd" clip-rule="evenodd" d="M6.61426 21.3445C6.20004 21.3445 5.86426 21.0087 5.86426 20.5945V14.4696C5.86426 14.0554 6.20004 13.7196 6.61426 13.7196C7.02847 13.7196 7.36426 14.0554 7.36426 14.4696V20.5945C7.36426 21.0087 7.02847 21.3445 6.61426 21.3445Z" fill="#000000" />
</svg>