<svg width="24px"  height="24px"  viewBox="0 0 25 24" fill="none" xmlns="http://www.w3.org/2000/svg">
<path fill-rule="evenodd" clip-rule="evenodd" d="M7.32014 12.8384C7.68984 12.8384 8.0044 13.1078 8.06123 13.4731L8.11081 13.7918C8.32825 15.1896 9.42483 16.2861 10.8226 16.5036L11.1413 16.5532C11.5066 16.61 11.776 16.9246 11.776 17.2943C11.776 17.664 11.5066 17.9785 11.1413 18.0353L10.8226 18.0849C9.42483 18.3024 8.32825 19.399 8.11081 20.7967L8.06123 21.1154C8.0044 21.4807 7.68984 21.7501 7.32014 21.7501C6.95044 21.7501 6.63588 21.4807 6.57905 21.1154L6.52947 20.7967C6.31203 19.399 5.21545 18.3024 3.81768 18.0849L3.49897 18.0353C3.13366 17.9785 2.86426 17.664 2.86426 17.2943C2.86426 16.9246 3.13366 16.61 3.49897 16.5532L3.81769 16.5036C5.21545 16.2861 6.31203 15.1896 6.52947 13.7918L6.57905 13.4731C6.63588 13.1078 6.95044 12.8384 7.32014 12.8384ZM7.32014 15.8512C6.94938 16.4306 6.45651 16.9235 5.87706 17.2943C6.45651 17.665 6.94938 18.1579 7.32014 18.7373C7.6909 18.1579 8.18377 17.665 8.76322 17.2943C8.18377 16.9235 7.6909 16.4306 7.32014 15.8512Z" fill="#000000" />
<path fill-rule="evenodd" clip-rule="evenodd" d="M15.2612 2.25C15.6309 2.25 15.9454 2.5194 16.0023 2.88471L16.0873 3.43108C16.4959 6.05766 18.5565 8.11828 21.1831 8.52688L21.7294 8.61188C22.0947 8.66871 22.3641 8.98327 22.3641 9.35297C22.3641 9.72267 22.0947 10.0372 21.7294 10.0941L21.1831 10.1791C18.5565 10.5877 16.4959 12.6483 16.0873 15.2749L16.0023 15.8212C15.9454 16.1865 15.6309 16.4559 15.2612 16.4559C14.8915 16.4559 14.5769 16.1865 14.5201 15.8212L14.4351 15.2749C14.0265 12.6483 11.9659 10.5877 9.33929 10.1791L8.79291 10.0941C8.42761 10.0372 8.1582 9.72267 8.1582 9.35297C8.1582 8.98327 8.42761 8.66871 8.79291 8.61188L9.33929 8.52688C11.9659 8.11828 14.0265 6.05766 14.4351 3.43108L14.5201 2.88471C14.5769 2.5194 14.8915 2.25 15.2612 2.25ZM15.2612 5.77995C14.5127 7.34152 13.2497 8.60453 11.6882 9.35297C13.2497 10.1014 14.5127 11.3644 15.2612 12.926C16.0096 11.3644 17.2726 10.1014 18.8342 9.35297C17.2726 8.60453 16.0096 7.34152 15.2612 5.77995Z" fill="#000000" />
<path fill-rule="evenodd" clip-rule="evenodd" d="M18.6514 18.4947C18.6514 17.9727 19.0745 17.5491 19.597 17.5491C20.1189 17.5491 20.5427 17.9721 20.5427 18.4947C20.5427 19.0174 20.1189 19.4404 19.597 19.4404C19.0745 19.4404 18.6514 19.0168 18.6514 18.4947Z" fill="#000000" />
</svg>