<svg width="24px"  height="24px"  viewBox="0 0 25 24" fill="none" xmlns="http://www.w3.org/2000/svg">
<path d="M18.754 9.7449C18.424 9.7449 18.144 9.5349 18.044 9.2249C17.674 8.0949 16.784 7.2049 15.664 6.8449C15.354 6.7449 15.144 6.4549 15.144 6.1349C15.144 5.8149 15.354 5.5249 15.664 5.4249C16.794 5.0549 17.684 4.1649 18.044 3.0449C18.144 2.7349 18.434 2.5249 18.754 2.5249C19.074 2.5249 19.364 2.7349 19.464 3.0449C19.834 4.1749 20.724 5.0649 21.844 5.4249C22.154 5.5249 22.364 5.8149 22.364 6.1349C22.364 6.4549 22.154 6.7449 21.844 6.8449C20.714 7.2149 19.824 8.1049 19.464 9.2249C19.364 9.5349 19.074 9.7449 18.754 9.7449ZM17.534 6.1349C18.004 6.4749 18.414 6.8849 18.754 7.3549C19.094 6.8849 19.504 6.4749 19.974 6.1349C19.504 5.7949 19.094 5.3849 18.754 4.9149C18.414 5.3849 18.004 5.7949 17.534 6.1349Z" fill="#000000" />
<path d="M10.9943 21.4748C10.4643 21.4748 9.99425 21.1348 9.82425 20.6248L8.32425 16.0148L3.71425 14.5148C3.20425 14.3448 2.86426 13.8848 2.86426 13.3448C2.86426 12.8048 3.20425 12.3448 3.71425 12.1748L8.32425 10.6748L9.82425 6.06484C9.99425 5.55484 10.4543 5.21484 10.9943 5.21484C11.5343 5.21484 11.9943 5.55484 12.1643 6.06484L13.6643 10.6748L18.2743 12.1748C18.7843 12.3448 19.1243 12.8048 19.1243 13.3448C19.1243 13.8848 18.7843 14.3448 18.2743 14.5148L13.6643 16.0148L12.1643 20.6248C11.9943 21.1348 11.5343 21.4748 10.9943 21.4748ZM4.97426 13.3448L8.92426 14.6248C9.30426 14.7448 9.59425 15.0448 9.71425 15.4248L10.9943 19.3648L12.2743 15.4148C12.3943 15.0448 12.6843 14.7448 13.0643 14.6248L17.0143 13.3448L13.0643 12.0648C12.6943 11.9448 12.3943 11.6448 12.2743 11.2748L10.9943 7.33484L9.71425 11.2848C9.59425 11.6548 9.30426 11.9548 8.92426 12.0748L4.97426 13.3548V13.3448Z" fill="#000000" />
</svg>