<svg width="24px"  height="24px"  viewBox="0 0 25 24" fill="none" xmlns="http://www.w3.org/2000/svg">
<path fill-rule="evenodd" clip-rule="evenodd" d="M13.1503 3.0376C13.4531 3.0376 13.7262 3.21969 13.8427 3.49922C14.2866 4.56492 15.6189 4.92193 16.5362 4.22095C16.7768 4.03709 17.1044 4.01594 17.3666 4.16735C17.6288 4.31875 17.7743 4.613 17.7354 4.91329C17.5869 6.05816 18.5623 7.03352 19.7072 6.8851C20.0075 6.84616 20.3017 6.99163 20.4531 7.25387C20.6045 7.51611 20.5834 7.84367 20.3995 8.08427C19.6985 9.00154 20.0555 10.3339 21.1212 10.7778C21.4008 10.8942 21.5829 11.1673 21.5829 11.4701C21.5829 11.773 21.4008 12.0461 21.1212 12.1625C20.0555 12.6064 19.6985 13.9388 20.3995 14.856C20.5834 15.0966 20.6045 15.4242 20.4531 15.6864C20.3017 15.9487 20.0075 16.0941 19.7072 16.0552C18.5623 15.9068 17.5869 16.8821 17.7354 18.027C17.7743 18.3273 17.6288 18.6215 17.3666 18.7729C17.1044 18.9243 16.7768 18.9032 16.5362 18.7193C15.6189 18.0184 14.2866 18.3754 13.8427 19.4411C13.7262 19.7206 13.4531 19.9027 13.1503 19.9027C12.8475 19.9027 12.5744 19.7206 12.458 19.4411C12.0141 18.3754 10.6817 18.0184 9.76444 18.7193C9.52385 18.9032 9.19629 18.9243 8.93405 18.7729C8.67181 18.6215 8.52634 18.3273 8.56527 18.027C8.7137 16.8821 7.73833 15.9068 6.59347 16.0552C6.29317 16.0941 5.99893 15.9487 5.84752 15.6864C5.69612 15.4242 5.71726 15.0966 5.90113 14.856C6.6021 13.9388 6.24509 12.6064 5.1794 12.1625C4.89987 12.0461 4.71777 11.773 4.71777 11.4701C4.71777 11.1673 4.89987 10.8942 5.1794 10.7778C6.24509 10.3339 6.6021 9.00154 5.90113 8.08427C5.71726 7.84367 5.69612 7.51611 5.84752 7.25387C5.99893 6.99163 6.29317 6.84616 6.59347 6.8851C7.73833 7.03352 8.7137 6.05816 8.56527 4.91329C8.52634 4.613 8.67181 4.31875 8.93405 4.16735C9.19629 4.01594 9.52385 4.03709 9.76444 4.22095C10.6817 4.92193 12.0141 4.56492 12.458 3.49922C12.5744 3.21969 12.8475 3.0376 13.1503 3.0376ZM9.97469 5.96979C9.6772 7.10111 8.78129 7.99702 7.64997 8.29452C7.95799 9.42302 7.63007 10.6468 6.79906 11.4701C7.63007 12.2934 7.95799 13.5173 7.64997 14.6458C8.78129 14.9433 9.6772 15.8392 9.97469 16.9705C11.1032 16.6625 12.327 16.9904 13.1503 17.8214C13.9736 16.9904 15.1975 16.6625 16.326 16.9705C16.6234 15.8392 17.5194 14.9433 18.6507 14.6458C18.3427 13.5173 18.6706 12.2934 19.5016 11.4701C18.6706 10.6468 18.3427 9.42302 18.6507 8.29452C17.5194 7.99702 16.6234 7.10111 16.326 5.96979C15.1975 6.27782 13.9736 5.94989 13.1503 5.11889C12.327 5.94989 11.1032 6.27782 9.97469 5.96979Z" fill="#000000" />
<path fill-rule="evenodd" clip-rule="evenodd" d="M13.1519 8.53003C11.5282 8.53003 10.2119 9.84632 10.2119 11.47C10.2119 13.0938 11.5282 14.41 13.1519 14.41C14.7756 14.41 16.0919 13.0938 16.0919 11.47C16.0919 9.84632 14.7756 8.53003 13.1519 8.53003ZM8.71191 11.47C8.71191 9.01789 10.6998 7.03003 13.1519 7.03003C15.6041 7.03003 17.5919 9.01789 17.5919 11.47C17.5919 13.9222 15.6041 15.91 13.1519 15.91C10.6998 15.91 8.71191 13.9222 8.71191 11.47Z" fill="#000000" />
<path fill-rule="evenodd" clip-rule="evenodd" d="M12.4033 10.2341C12.4033 9.81992 12.7391 9.48413 13.1533 9.48413C14.2502 9.48413 15.1394 10.3733 15.1394 11.4702C15.1394 11.8844 14.8036 12.2202 14.3894 12.2202C13.9752 12.2202 13.6394 11.8844 13.6394 11.4702C13.6394 11.2018 13.4218 10.9841 13.1533 10.9841C12.7391 10.9841 12.4033 10.6483 12.4033 10.2341Z" fill="#000000" />
<path fill-rule="evenodd" clip-rule="evenodd" d="M18.5025 2.67218C18.8471 2.90195 18.9402 3.3676 18.7105 3.71225L17.5733 5.41795C17.3436 5.76259 16.8779 5.85573 16.5333 5.62596C16.1886 5.3962 16.0955 4.93054 16.3253 4.5859L17.4624 2.8802C17.6922 2.53555 18.1578 2.44242 18.5025 2.67218Z" fill="#000000" />
<path fill-rule="evenodd" clip-rule="evenodd" d="M16.5962 17.3917C16.9425 17.1644 17.4075 17.2607 17.6348 17.607L18.5173 18.9509C18.7446 19.2972 18.6482 19.7622 18.302 19.9895C17.9558 20.2169 17.4908 20.1205 17.2634 19.7742L16.381 18.4303C16.1536 18.084 16.25 17.6191 16.5962 17.3917Z" fill="#000000" />
<path fill-rule="evenodd" clip-rule="evenodd" d="M7.29604 14.8341C7.53359 15.1734 7.45108 15.6411 7.11175 15.8786L5.82862 16.7769C5.4893 17.0145 5.02165 16.9319 4.7841 16.5926C4.54655 16.2533 4.62905 15.7856 4.96838 15.5481L6.25151 14.6498C6.59083 14.4123 7.05849 14.4948 7.29604 14.8341Z" fill="#000000" />
<path fill-rule="evenodd" clip-rule="evenodd" d="M5.28797 6.62215C5.54911 6.30063 6.02146 6.25168 6.34298 6.51283L7.02753 7.06882C7.34906 7.32996 7.39801 7.80231 7.13686 8.12383C6.87572 8.44535 6.40338 8.4943 6.08185 8.23316L5.3973 7.67716C5.07578 7.41602 5.02683 6.94368 5.28797 6.62215Z" fill="#000000" />
<path fill-rule="evenodd" clip-rule="evenodd" d="M19.9609 11.5864C19.9609 11.1722 20.2967 10.8364 20.7109 10.8364H21.8643C22.2785 10.8364 22.6143 11.1722 22.6143 11.5864C22.6143 12.0006 22.2785 12.3364 21.8643 12.3364H20.7109C20.2967 12.3364 19.9609 12.0006 19.9609 11.5864Z" fill="#000000" />
<path fill-rule="evenodd" clip-rule="evenodd" d="M8.08482 2.27141C8.45535 2.08625 8.90582 2.23652 9.09098 2.60704L9.95789 4.34181C10.143 4.71233 9.99278 5.1628 9.62225 5.34796C9.25173 5.53312 8.80126 5.38286 8.6161 5.01233L7.74919 3.27757C7.56403 2.90704 7.7143 2.45657 8.08482 2.27141Z" fill="#000000" />
<path fill-rule="evenodd" clip-rule="evenodd" d="M13.1672 20.2996C13.5814 20.2996 13.9172 20.6353 13.9172 21.0496V21.0578C13.9172 21.472 13.5814 21.8078 13.1672 21.8078C12.753 21.8078 12.4172 21.472 12.4172 21.0578V21.0496C12.4172 20.6353 12.753 20.2996 13.1672 20.2996Z" fill="#000000" />
<path fill-rule="evenodd" clip-rule="evenodd" d="M21.5361 5.95801C21.9503 5.95801 22.2861 6.29379 22.2861 6.70801V6.71622C22.2861 7.13044 21.9503 7.46622 21.5361 7.46622C21.1219 7.46622 20.7861 7.13044 20.7861 6.71622V6.70801C20.7861 6.29379 21.1219 5.95801 21.5361 5.95801Z" fill="#000000" />
<path fill-rule="evenodd" clip-rule="evenodd" d="M20.996 15.8781C21.2889 15.5852 21.7638 15.5852 22.0567 15.8781L22.0667 15.8881C22.3596 16.181 22.3596 16.6559 22.0667 16.9488C21.7738 17.2417 21.2989 17.2417 21.006 16.9488L20.996 16.9388C20.7031 16.6459 20.7031 16.171 20.996 15.8781Z" fill="#000000" />
<path fill-rule="evenodd" clip-rule="evenodd" d="M2.61426 11.4592C2.61426 11.045 2.95004 10.7092 3.36426 10.7092L3.37426 10.7092C3.78847 10.7092 4.12426 11.045 4.12426 11.4592C4.12426 11.8734 3.78847 12.2092 3.37426 12.2092L3.36426 12.2092C2.95004 12.2092 2.61426 11.8734 2.61426 11.4592Z" fill="#000000" />
</svg>