<svg width="24px"  height="24px"  viewBox="0 0 25 24" fill="none" xmlns="http://www.w3.org/2000/svg">
<path fill-rule="evenodd" clip-rule="evenodd" d="M12.6143 3.75C8.05791 3.75 4.36426 7.44365 4.36426 12C4.36426 16.5563 8.05791 20.25 12.6143 20.25C17.1706 20.25 20.8643 16.5563 20.8643 12C20.8643 7.44365 17.1706 3.75 12.6143 3.75ZM2.86426 12C2.86426 6.61522 7.22948 2.25 12.6143 2.25C17.999 2.25 22.3643 6.61522 22.3643 12C22.3643 17.3848 17.999 21.75 12.6143 21.75C7.22948 21.75 2.86426 17.3848 2.86426 12Z" fill="#000000" />
<path fill-rule="evenodd" clip-rule="evenodd" d="M14.0475 6.09925C16.2521 7.05422 18.2978 7.94037 20.6541 7.59449C21.064 7.53433 21.445 7.8178 21.5051 8.22762C21.5653 8.63744 21.2818 9.01843 20.872 9.07859C18.074 9.48929 15.646 8.43199 13.5099 7.5018C13.3335 7.42499 13.1591 7.34904 12.9866 7.27486C10.654 6.27153 8.65954 5.57047 6.4312 6.48409C6.04794 6.64122 5.60988 6.45792 5.45274 6.07467C5.29561 5.69141 5.47891 5.25335 5.86217 5.09621C8.72661 3.92179 11.2647 4.90135 13.5793 5.89693C13.7363 5.96444 13.8923 6.03201 14.0475 6.09925Z" fill="#000000" />
<path fill-rule="evenodd" clip-rule="evenodd" d="M7.9682 12.6551C8.94085 11.9315 10.388 12.144 11.5898 13.4426C12.6242 14.5605 14.3022 14.9969 16.1175 14.9978C17.9162 14.9986 19.6829 14.5691 20.6959 14.147C21.0782 13.9877 21.5174 14.1685 21.6767 14.5509C21.836 14.9332 21.6552 15.3723 21.2728 15.5316C20.0804 16.0285 18.1177 16.4987 16.1168 16.4978C14.1324 16.4968 11.9405 16.0302 10.4888 14.4614C9.62296 13.5258 9.02527 13.7382 8.86348 13.8586C8.75125 13.9421 8.71203 14.0443 8.71191 14.1205C8.71183 14.1771 8.73311 14.3075 8.93348 14.4632C11.0294 15.6456 11.8069 16.9718 12.4027 18.0459C12.4127 18.0638 12.4225 18.0816 12.4323 18.0992C12.7159 18.6108 12.921 18.9807 13.2011 19.2878C13.4665 19.5786 13.8156 19.8265 14.4066 19.9986C14.8043 20.1144 15.0329 20.5306 14.9171 20.9283C14.8013 21.326 14.385 21.5546 13.9873 21.4388C13.1412 21.1924 12.5507 20.8004 12.093 20.2987C11.6898 19.8568 11.4047 19.3408 11.1481 18.8766C11.1289 18.8419 11.1099 18.8075 11.091 18.7735C10.5492 17.7967 9.93399 16.7396 8.15815 15.7482C8.13235 15.7338 8.10743 15.7179 8.08351 15.7005C7.52513 15.2957 7.21098 14.7289 7.21192 14.1182C7.21282 13.5242 7.51321 12.9935 7.9682 12.6551Z" fill="#000000" />
<path fill-rule="evenodd" clip-rule="evenodd" d="M9.46335 10.5706C8.00272 9.6061 6.7309 8.76627 4.52185 9.27454C4.11819 9.36742 3.71566 9.11548 3.62278 8.71181C3.5299 8.30814 3.78184 7.90561 4.18551 7.81274C7.02363 7.15973 8.77001 8.31416 10.2354 9.28283C10.2673 9.30395 10.2991 9.32498 10.3308 9.3459C11.0821 9.84194 11.7243 10.2505 12.4485 10.4608C13.1407 10.6617 13.9486 10.6904 15.0206 10.3193C15.412 10.1839 15.8392 10.3913 15.9747 10.7828C16.1102 11.1742 15.9027 11.6013 15.5113 11.7368C14.1621 12.2038 13.0366 12.1934 12.0303 11.9013C11.0561 11.6184 10.2346 11.0798 9.50437 10.5977C9.49068 10.5887 9.47701 10.5796 9.46335 10.5706Z" fill="#000000" />
<path fill-rule="evenodd" clip-rule="evenodd" d="M18.3906 10.7441C17.9764 10.7441 17.6406 11.0799 17.6406 11.4941V11.5056C17.6406 11.9198 17.9764 12.2556 18.3906 12.2556C18.8048 12.2556 19.1406 11.9198 19.1406 11.5056V11.4941C19.1406 11.0799 18.8048 10.7441 18.3906 10.7441Z" fill="#000000" />
<path fill-rule="evenodd" clip-rule="evenodd" d="M5.91895 10.75C5.50473 10.75 5.16895 11.0858 5.16895 11.5V11.5114C5.16895 11.9256 5.50473 12.2614 5.91895 12.2614C6.33316 12.2614 6.66895 11.9256 6.66895 11.5114V11.5C6.66895 11.0858 6.33316 10.75 5.91895 10.75Z" fill="#000000" />
</svg>