<svg width="24px"  height="24px"  viewBox="0 0 24 24" fill="none" xmlns="http://www.w3.org/2000/svg">
<path fill-rule="evenodd" clip-rule="evenodd" d="M15.3083 5.1548C13.8208 3.66737 11.4089 3.66737 9.92149 5.1548L5.5361 9.54019C3.15225 11.924 3.15225 15.789 5.5361 18.1729C7.91995 20.5567 11.7849 20.5567 14.1688 18.1729L20.4665 11.8752C20.7525 11.5891 21.2163 11.5891 21.5024 11.8752C21.7884 12.1612 21.7884 12.625 21.5024 12.9111L15.2047 19.2088C12.2487 22.1647 7.45615 22.1647 4.50018 19.2088C1.54421 16.2528 1.54421 11.4602 4.50018 8.50427L8.88557 4.11888C10.9451 2.05933 14.2846 2.05933 16.3442 4.11888C18.4037 6.17844 18.4037 9.51795 16.3442 11.5775L12.0665 15.8552C10.8857 17.036 8.96957 17.0372 7.78819 15.8558C6.60626 14.6739 6.60724 12.7578 7.78819 11.5768L11.8248 7.54018C12.1109 7.25412 12.5747 7.25412 12.8607 7.54018C13.1468 7.82624 13.1468 8.29004 12.8607 8.5761L8.82411 12.6127C8.21499 13.2218 8.21459 14.2104 8.82411 14.8199C9.43279 15.4286 10.4214 15.4285 11.0306 14.8192L15.3083 10.5416C16.7957 9.05415 16.7957 6.64224 15.3083 5.1548Z" fill="#000000" />
</svg>