<svg width="24px"  height="24px"  viewBox="0 0 25 24" fill="none" xmlns="http://www.w3.org/2000/svg">
<path d="M8.86195 21.749C7.69002 21.7422 6.5665 21.2808 5.72816 20.4618C4.88982 19.6429 4.40218 18.5304 4.36799 17.359V6.83398C4.34547 5.64317 4.79591 4.49201 5.62068 3.63275C6.44544 2.7735 7.57722 2.27625 8.76796 2.25C8.77496 2.25 8.80299 2.25 17.277 2.25C18.4652 2.28732 19.5916 2.78819 20.4152 3.64545C21.2388 4.5027 21.6942 5.64826 21.684 6.83701V17.164C21.7049 18.3545 21.2539 19.5048 20.4295 20.3639C19.6051 21.223 18.4743 21.7209 17.2839 21.749H8.86195ZM17.251 3.74899C17.281 3.74899 8.951 3.74899 8.795 3.74899C8.00033 3.76813 7.24571 4.10186 6.69691 4.67691C6.14811 5.25196 5.85001 6.02129 5.86799 6.81598V17.341C5.89465 18.1196 6.2221 18.8575 6.78157 19.3996C7.34104 19.9418 8.08895 20.2459 8.86799 20.248H17.268C18.0616 20.227 18.8145 19.8924 19.3618 19.3173C19.9092 18.7422 20.2062 17.9737 20.1879 17.18V6.82898C20.1966 6.03409 19.8945 5.26725 19.3461 4.69177C18.7977 4.11629 18.0463 3.77765 17.252 3.74799L17.251 3.74899Z" fill="#000000" />
<path d="M6.8924 17.4469H3.56641C3.36749 17.4469 3.17672 17.3679 3.03607 17.2272C2.89542 17.0866 2.81641 16.8958 2.81641 16.6969C2.81641 16.498 2.89542 16.3072 3.03607 16.1665C3.17672 16.0259 3.36749 15.9469 3.56641 15.9469H6.8924C7.09131 15.9469 7.28208 16.0259 7.42273 16.1665C7.56338 16.3072 7.6424 16.498 7.6424 16.6969C7.6424 16.8958 7.56338 17.0866 7.42273 17.2272C7.28208 17.3679 7.09131 17.4469 6.8924 17.4469ZM6.8924 12.7469H3.56641C3.36749 12.7469 3.17672 12.6679 3.03607 12.5272C2.89542 12.3866 2.81641 12.1958 2.81641 11.9969C2.81641 11.798 2.89542 11.6072 3.03607 11.4666C3.17672 11.3259 3.36749 11.2469 3.56641 11.2469H6.8924C7.09131 11.2469 7.28208 11.3259 7.42273 11.4666C7.56338 11.6072 7.6424 11.798 7.6424 11.9969C7.6424 12.1958 7.56338 12.3866 7.42273 12.5272C7.28208 12.6679 7.09131 12.7469 6.8924 12.7469ZM6.8924 8.04688H3.56641C3.36749 8.04688 3.17672 7.96786 3.03607 7.82721C2.89542 7.68656 2.81641 7.49579 2.81641 7.29688C2.81641 7.09796 2.89542 6.90719 3.03607 6.76654C3.17672 6.62589 3.36749 6.54688 3.56641 6.54688H6.8924C7.09131 6.54688 7.28208 6.62589 7.42273 6.76654C7.56338 6.90719 7.6424 7.09796 7.6424 7.29688C7.6424 7.49579 7.56338 7.68656 7.42273 7.82721C7.28208 7.96786 7.09131 8.04688 6.8924 8.04688Z" fill="#000000" />
</svg>