<svg width="24px"  height="24px"  viewBox="0 0 25 24" fill="none" xmlns="http://www.w3.org/2000/svg">
<path fill-rule="evenodd" clip-rule="evenodd" d="M19.9251 6.5288C20.1056 6.90162 19.9497 7.35017 19.5769 7.53068C14.3433 10.0646 11.1195 14.7037 9.63286 17.4968C9.50567 17.7358 9.25955 17.8877 8.98891 17.8942C8.71827 17.9007 8.46511 17.7609 8.32652 17.5284C7.39327 15.9623 6.20928 14.5683 4.76613 13.3496C4.44966 13.0824 4.40975 12.6092 4.67699 12.2927C4.94424 11.9762 5.41743 11.9363 5.7339 12.2036C6.96852 13.2461 8.03306 14.4112 8.92808 15.6956C10.6915 12.7425 13.9394 8.59362 18.9232 6.1806C19.296 6.00009 19.7445 6.15599 19.9251 6.5288Z" fill="#000000" />
</svg>