<svg width="24px"  height="24px"  viewBox="0 0 24 24" fill="none" xmlns="http://www.w3.org/2000/svg">
<path fill-rule="evenodd" clip-rule="evenodd" d="M3.16602 10.1533C3.16602 8.8638 4.21168 7.82031 5.49996 7.82031H18.4994C19.7877 7.82031 20.8334 8.8638 20.8334 10.1533V17.8473C20.8334 18.4783 20.578 19.0819 20.1254 19.5216L18.5081 21.0913C18.0726 21.5138 17.4903 21.7506 16.8824 21.7506H7.11699C6.51029 21.7506 5.927 21.514 5.49137 21.0913L3.87431 19.5219C3.42163 19.0821 3.16602 18.4783 3.16602 17.8473V10.1533ZM5.49996 9.32031C5.0389 9.32031 4.66602 9.69343 4.66602 10.1533V17.8473C4.66602 18.0725 4.75702 18.2881 4.91921 18.4457C4.91923 18.4457 4.91919 18.4457 4.91921 18.4457L6.53598 20.0148C6.53599 20.0148 6.53597 20.0148 6.53598 20.0148C6.69189 20.1661 6.9006 20.2506 7.11699 20.2506H16.8824C17.0995 20.2506 17.3073 20.1663 17.4634 20.0148C17.4634 20.0148 17.4634 20.0149 17.4634 20.0148L19.0801 18.4458C19.2423 18.2882 19.3334 18.0725 19.3334 17.8473V10.1533C19.3334 9.69343 18.9605 9.32031 18.4994 9.32031H5.49996Z" fill="#000000" />
<path fill-rule="evenodd" clip-rule="evenodd" d="M8.94345 2.77379C9.25608 2.44938 9.68345 2.25 10.1481 2.25H13.8512C14.3172 2.25 14.7432 2.44986 15.0557 2.77295L15.0565 2.77379L16.2071 3.967C16.2072 3.96714 16.2069 3.96685 16.2071 3.967C16.565 4.33728 16.75 4.84262 16.75 5.34801V10.5C16.75 10.9142 16.4142 11.25 16 11.25C15.5858 11.25 15.25 10.9142 15.25 10.5V5.34801C15.25 5.19671 15.1932 5.07638 15.129 5.00994L13.9776 3.8158C13.9775 3.81571 13.9776 3.81589 13.9776 3.8158C13.9235 3.76003 13.877 3.75 13.8512 3.75H10.1481C10.1224 3.75 10.076 3.76016 10.0235 3.81469L8.87102 5.00994C8.80675 5.07638 8.75 5.19671 8.75 5.34801V10.5C8.75 10.9142 8.41421 11.25 8 11.25C7.58579 11.25 7.25 10.9142 7.25 10.5V5.34801C7.25 4.84264 7.43453 4.33776 7.79247 3.96748L8.94345 2.77379Z" fill="#000000" />
</svg>