<svg width="24px"  height="24px"  viewBox="0 0 25 24" fill="none" xmlns="http://www.w3.org/2000/svg">
<path fill-rule="evenodd" clip-rule="evenodd" d="M15.3496 3C15.3496 2.58579 15.6854 2.25 16.0996 2.25H17.3567C19.921 2.25 21.9995 4.32826 21.9995 6.89189V8.46907C21.9995 8.88329 21.6638 9.21907 21.2495 9.21907C20.8353 9.21907 20.4995 8.88329 20.4995 8.46907V6.89189C20.4995 5.15693 19.0929 3.75 17.3567 3.75H16.0996C15.6854 3.75 15.3496 3.41421 15.3496 3Z" fill="#000000" />
<path fill-rule="evenodd" clip-rule="evenodd" d="M7.14286 3.75C5.40668 3.75 4 5.15693 4 6.89189V8.46907C4 8.88329 3.66421 9.21907 3.25 9.21907C2.83579 9.21907 2.5 8.88329 2.5 8.46907V6.89189C2.5 4.32826 4.5785 2.25 7.14286 2.25H8.43205C8.84626 2.25 9.18205 2.58579 9.18205 3C9.18205 3.41421 8.84626 3.75 8.43205 3.75H7.14286Z" fill="#000000" />
<path fill-rule="evenodd" clip-rule="evenodd" d="M3.25 14.7812C3.66421 14.7812 4 15.117 4 15.5312V17.1084C4 18.8434 5.40668 20.2503 7.14286 20.2503H8.39994C8.81415 20.2503 9.14994 20.5861 9.14994 21.0003C9.14994 21.4145 8.81415 21.7503 8.39994 21.7503H7.14286C4.5785 21.7503 2.5 19.6721 2.5 17.1084V15.5312C2.5 15.117 2.83579 14.7812 3.25 14.7812Z" fill="#000000" />
<path fill-rule="evenodd" clip-rule="evenodd" d="M21.2485 14.7812C21.6627 14.7812 21.9985 15.117 21.9985 15.5312V17.1084C21.9985 19.6721 19.92 21.7503 17.3556 21.7503H16.0664C15.6522 21.7503 15.3164 21.4145 15.3164 21.0003C15.3164 20.5861 15.6522 20.2503 16.0664 20.2503H17.3556C19.0918 20.2503 20.4985 18.8434 20.4985 17.1084V15.5312C20.4985 15.117 20.8342 14.7812 21.2485 14.7812Z" fill="#000000" />
<path fill-rule="evenodd" clip-rule="evenodd" d="M7 16.7109C7 16.2967 7.33579 15.9609 7.75 15.9609H16.75C17.1642 15.9609 17.5 16.2967 17.5 16.7109C17.5 17.1252 17.1642 17.4609 16.75 17.4609H7.75C7.33579 17.4609 7 17.1252 7 16.7109Z" fill="#000000" />
<path fill-rule="evenodd" clip-rule="evenodd" d="M7 8.98982C7 7.63599 8.09637 6.53906 9.44978 6.53906H15.0492C16.4021 6.53906 17.5 7.63543 17.5 8.98982V11.3687C17.5 12.7224 16.4018 13.8185 15.0492 13.8185H9.44978C8.09665 13.8185 7 12.7219 7 11.3687V8.98982ZM9.44978 8.03906C8.92536 8.03906 8.5 8.46386 8.5 8.98982V11.3687C8.5 11.8934 8.92508 12.3185 9.44978 12.3185H15.0492C15.5745 12.3185 16 11.8929 16 11.3687V8.98982C16 8.46442 15.5742 8.03906 15.0492 8.03906H9.44978Z" fill="#000000" />
</svg>