<svg width="24px"  height="24px"  viewBox="0 0 25 24" fill="none" xmlns="http://www.w3.org/2000/svg">
<path fill-rule="evenodd" clip-rule="evenodd" d="M15.3496 3C15.3496 2.58579 15.6854 2.25 16.0996 2.25H17.3567C19.921 2.25 21.9995 4.32826 21.9995 6.89189V8.46907C21.9995 8.88329 21.6638 9.21907 21.2495 9.21907C20.8353 9.21907 20.4995 8.88329 20.4995 8.46907V6.89189C20.4995 5.15693 19.0929 3.75 17.3567 3.75H16.0996C15.6854 3.75 15.3496 3.41421 15.3496 3Z" fill="#000000" />
<path fill-rule="evenodd" clip-rule="evenodd" d="M7.14286 3.75C5.40668 3.75 4 5.15693 4 6.89189V8.46907C4 8.88329 3.66421 9.21907 3.25 9.21907C2.83579 9.21907 2.5 8.88329 2.5 8.46907V6.89189C2.5 4.32826 4.5785 2.25 7.14286 2.25H8.43205C8.84626 2.25 9.18205 2.58579 9.18205 3C9.18205 3.41421 8.84626 3.75 8.43205 3.75H7.14286Z" fill="#000000" />
<path fill-rule="evenodd" clip-rule="evenodd" d="M3.25 14.7812C3.66421 14.7812 4 15.117 4 15.5312V17.1084C4 18.8434 5.40668 20.2503 7.14286 20.2503H8.39994C8.81415 20.2503 9.14994 20.5861 9.14994 21.0003C9.14994 21.4145 8.81415 21.7503 8.39994 21.7503H7.14286C4.5785 21.7503 2.5 19.6721 2.5 17.1084V15.5312C2.5 15.117 2.83579 14.7812 3.25 14.7812Z" fill="#000000" />
<path fill-rule="evenodd" clip-rule="evenodd" d="M21.2504 14.7812C21.6646 14.7812 22.0004 15.117 22.0004 15.5312V17.1084C22.0004 19.6721 19.9219 21.7503 17.3575 21.7503H16.0684C15.6541 21.7503 15.3184 21.4145 15.3184 21.0003C15.3184 20.5861 15.6541 20.2503 16.0684 20.2503H17.3575C19.0937 20.2503 20.5004 18.8434 20.5004 17.1084V15.5312C20.5004 15.117 20.8362 14.7812 21.2504 14.7812Z" fill="#000000" />
<path fill-rule="evenodd" clip-rule="evenodd" d="M10.6523 7.51562C11.0666 7.51562 11.4023 7.85141 11.4023 8.26562V15.7361C11.4023 16.1503 11.0666 16.4861 10.6523 16.4861C10.2381 16.4861 9.90234 16.1503 9.90234 15.7361V8.26562C9.90234 7.85141 10.2381 7.51562 10.6523 7.51562Z" fill="#000000" />
<path fill-rule="evenodd" clip-rule="evenodd" d="M17.0488 7.51562C17.463 7.51562 17.7988 7.85141 17.7988 8.26562V15.7361C17.7988 16.1503 17.463 16.4861 17.0488 16.4861C16.6346 16.4861 16.2988 16.1503 16.2988 15.7361V8.26562C16.2988 7.85141 16.6346 7.51562 17.0488 7.51562Z" fill="#000000" />
<path fill-rule="evenodd" clip-rule="evenodd" d="M7.45312 7.51562C7.86734 7.51562 8.20312 7.85141 8.20312 8.26562V14.5082C8.20312 14.9224 7.86734 15.2582 7.45312 15.2582C7.03891 15.2582 6.70312 14.9224 6.70312 14.5082V8.26562C6.70312 7.85141 7.03891 7.51562 7.45312 7.51562Z" fill="#000000" />
<path fill-rule="evenodd" clip-rule="evenodd" d="M13.8496 7.51562C14.2638 7.51562 14.5996 7.85141 14.5996 8.26562V12.4903C14.5996 12.9045 14.2638 13.2403 13.8496 13.2403C13.4354 13.2403 13.0996 12.9045 13.0996 12.4903V8.26562C13.0996 7.85141 13.4354 7.51562 13.8496 7.51562Z" fill="#000000" />
</svg>