<svg width="24px"  height="24px"  viewBox="0 0 25 24" fill="none" xmlns="http://www.w3.org/2000/svg">
<path fill-rule="evenodd" clip-rule="evenodd" d="M8.10352 7.64844C8.51773 7.64844 8.85352 7.98422 8.85352 8.39844V15.6062C8.85352 16.0204 8.51773 16.3562 8.10352 16.3562C7.6893 16.3562 7.35352 16.0204 7.35352 15.6062V8.39844C7.35352 7.98422 7.6893 7.64844 8.10352 7.64844Z" fill="#000000" />
<path fill-rule="evenodd" clip-rule="evenodd" d="M13.6289 7.64844C14.0431 7.64844 14.3789 7.98422 14.3789 8.39844V15.6062C14.3789 16.0204 14.0431 16.3562 13.6289 16.3562C13.2147 16.3562 12.8789 16.0204 12.8789 15.6062V8.39844C12.8789 7.98422 13.2147 7.64844 13.6289 7.64844Z" fill="#000000" />
<path fill-rule="evenodd" clip-rule="evenodd" d="M16.3926 7.64844C16.8068 7.64844 17.1426 7.98422 17.1426 8.39844V11.8389C17.1426 12.2531 16.8068 12.5889 16.3926 12.5889C15.9784 12.5889 15.6426 12.2531 15.6426 11.8389V8.39844C15.6426 7.98422 15.9784 7.64844 16.3926 7.64844Z" fill="#000000" />
<path fill-rule="evenodd" clip-rule="evenodd" d="M16.3926 13.8594C16.8068 13.8594 17.1426 14.1952 17.1426 14.6094V15.5162C17.1426 15.9304 16.8068 16.2662 16.3926 16.2662C15.9784 16.2662 15.6426 15.9304 15.6426 15.5162V14.6094C15.6426 14.1952 15.9784 13.8594 16.3926 13.8594Z" fill="#000000" />
<path fill-rule="evenodd" clip-rule="evenodd" d="M10.8672 11.3281C11.2814 11.3281 11.6172 11.6639 11.6172 12.0781V15.5186C11.6172 15.9328 11.2814 16.2686 10.8672 16.2686C10.453 16.2686 10.1172 15.9328 10.1172 15.5186V12.0781C10.1172 11.6639 10.453 11.3281 10.8672 11.3281Z" fill="#000000" />
<path fill-rule="evenodd" clip-rule="evenodd" d="M10.8672 7.64844C11.2814 7.64844 11.6172 7.98422 11.6172 8.39844V9.30525C11.6172 9.71946 11.2814 10.0552 10.8672 10.0552C10.453 10.0552 10.1172 9.71946 10.1172 9.30525V8.39844C10.1172 7.98422 10.453 7.64844 10.8672 7.64844Z" fill="#000000" />
<path fill-rule="evenodd" clip-rule="evenodd" d="M12.25 3.75C7.69329 3.75 4 7.44329 4 12C4 16.5567 7.69329 20.25 12.25 20.25C16.8067 20.25 20.5 16.5567 20.5 12C20.5 7.44329 16.8067 3.75 12.25 3.75ZM2.5 12C2.5 6.61487 6.86487 2.25 12.25 2.25C17.6351 2.25 22 6.61487 22 12C22 17.3851 17.6351 21.75 12.25 21.75C6.86487 21.75 2.5 17.3851 2.5 12Z" fill="#000000" />
</svg>