<svg width="24px"  height="24px"  viewBox="0 0 25 24" fill="none" xmlns="http://www.w3.org/2000/svg">
<path fill-rule="evenodd" clip-rule="evenodd" d="M7.28711 7.48438C7.70132 7.48438 8.03711 7.82016 8.03711 8.23438V15.7647C8.03711 16.1789 7.70132 16.5147 7.28711 16.5147C6.8729 16.5147 6.53711 16.1789 6.53711 15.7647V8.23438C6.53711 7.82016 6.8729 7.48438 7.28711 7.48438Z" fill="#000000" />
<path fill-rule="evenodd" clip-rule="evenodd" d="M13.8906 7.48438C14.3048 7.48438 14.6406 7.82016 14.6406 8.23438V15.7647C14.6406 16.1789 14.3048 16.5147 13.8906 16.5147C13.4764 16.5147 13.1406 16.1789 13.1406 15.7647V8.23438C13.1406 7.82016 13.4764 7.48438 13.8906 7.48438Z" fill="#000000" />
<path fill-rule="evenodd" clip-rule="evenodd" d="M17.1934 7.48438C17.6076 7.48438 17.9434 7.82016 17.9434 8.23438V11.8283C17.9434 12.2425 17.6076 12.5783 17.1934 12.5783C16.7791 12.5783 16.4434 12.2425 16.4434 11.8283V8.23438C16.4434 7.82016 16.7791 7.48438 17.1934 7.48438Z" fill="#000000" />
<path fill-rule="evenodd" clip-rule="evenodd" d="M17.1934 13.9766C17.6076 13.9766 17.9434 14.3123 17.9434 14.7266V15.6742C17.9434 16.0884 17.6076 16.4242 17.1934 16.4242C16.7791 16.4242 16.4434 16.0884 16.4434 15.6742V14.7266C16.4434 14.3123 16.7791 13.9766 17.1934 13.9766Z" fill="#000000" />
<path fill-rule="evenodd" clip-rule="evenodd" d="M10.5879 11.3281C11.0021 11.3281 11.3379 11.6639 11.3379 12.0781V15.6721C11.3379 16.0863 11.0021 16.4221 10.5879 16.4221C10.1737 16.4221 9.83789 16.0863 9.83789 15.6721V12.0781C9.83789 11.6639 10.1737 11.3281 10.5879 11.3281Z" fill="#000000" />
<path fill-rule="evenodd" clip-rule="evenodd" d="M10.5879 7.48438C11.0021 7.48438 11.3379 7.82016 11.3379 8.23438V9.18199C11.3379 9.5962 11.0021 9.93199 10.5879 9.93199C10.1737 9.93199 9.83789 9.5962 9.83789 9.18199V8.23438C9.83789 7.82016 10.1737 7.48438 10.5879 7.48438Z" fill="#000000" />
<path fill-rule="evenodd" clip-rule="evenodd" d="M15.9492 4.25C15.9492 3.83579 16.285 3.5 16.6992 3.5H17.8093C20.1236 3.5 21.9995 5.3759 21.9995 7.69021V9.08341C21.9995 9.49762 21.6637 9.83341 21.2495 9.83341C20.8353 9.83341 20.4995 9.49762 20.4995 9.08341V7.69021C20.4995 6.20433 19.2952 5 17.8093 5H16.6992C16.285 5 15.9492 4.66421 15.9492 4.25Z" fill="#000000" />
<path fill-rule="evenodd" clip-rule="evenodd" d="M21.2494 14.168C21.6636 14.168 21.9994 14.5038 21.9994 14.918V16.3112C21.9994 18.6255 20.1235 20.5014 17.8092 20.5014H16.6699C16.2557 20.5014 15.9199 20.1656 15.9199 19.7514C15.9199 19.3372 16.2557 19.0014 16.6699 19.0014H17.8092C19.2951 19.0014 20.4994 17.7971 20.4994 16.3112V14.918C20.4994 14.5038 20.8352 14.168 21.2494 14.168Z" fill="#000000" />
<path fill-rule="evenodd" clip-rule="evenodd" d="M6.69021 5C5.20433 5 4 6.20433 4 7.69021V9.08341C4 9.49762 3.66421 9.83341 3.25 9.83341C2.83579 9.83341 2.5 9.49762 2.5 9.08341V7.69021C2.5 5.3759 4.3759 3.5 6.69021 3.5H7.80029C8.21451 3.5 8.55029 3.83579 8.55029 4.25C8.55029 4.66421 8.21451 5 7.80029 5H6.69021Z" fill="#000000" />
<path fill-rule="evenodd" clip-rule="evenodd" d="M3.25 14.168C3.66421 14.168 4 14.5038 4 14.918V16.3112C4 17.7971 5.20433 19.0014 6.69021 19.0014H7.82948C8.2437 19.0014 8.57948 19.3372 8.57948 19.7514C8.57948 20.1656 8.2437 20.5014 7.82948 20.5014H6.69021C4.3759 20.5014 2.5 18.6255 2.5 16.3112V14.918C2.5 14.5038 2.83579 14.168 3.25 14.168Z" fill="#000000" />
</svg>