<svg width="24px"  height="24px"  viewBox="0 0 25 24" fill="none" xmlns="http://www.w3.org/2000/svg">
<path fill-rule="evenodd" clip-rule="evenodd" d="M12.25 3.75C7.69329 3.75 4 7.44329 4 12C4 16.5567 7.69329 20.25 12.25 20.25C16.8067 20.25 20.5 16.5567 20.5 12C20.5 7.44329 16.8067 3.75 12.25 3.75ZM2.5 12C2.5 6.61487 6.86487 2.25 12.25 2.25C17.6351 2.25 22 6.61487 22 12C22 17.3851 17.6351 21.75 12.25 21.75C6.86487 21.75 2.5 17.3851 2.5 12Z" fill="#000000" />
<path fill-rule="evenodd" clip-rule="evenodd" d="M15.0266 9.21967C15.3195 9.51256 15.3195 9.98744 15.0266 10.2803L10.4795 14.8274C10.1867 15.1203 9.71178 15.1203 9.41889 14.8274C9.126 14.5345 9.126 14.0596 9.41889 13.7667L13.966 9.21967C14.2588 8.92678 14.7337 8.92678 15.0266 9.21967Z" fill="#000000" />
<path fill-rule="evenodd" clip-rule="evenodd" d="M13.4512 14.2367C13.4512 13.7222 13.8682 13.3047 14.3832 13.3047C14.8975 13.3047 15.3153 13.7216 15.3153 14.2367C15.3153 14.7518 14.8976 15.1688 14.3832 15.1688C13.8682 15.1688 13.4512 14.7512 13.4512 14.2367Z" fill="#000000" />
<path fill-rule="evenodd" clip-rule="evenodd" d="M9.02734 9.81484C9.02734 9.30034 9.44435 8.88281 9.95933 8.88281C10.4737 8.88281 10.8914 9.29974 10.8914 9.81484C10.8914 10.3299 10.4737 10.7469 9.95933 10.7469C9.44434 10.7469 9.02734 10.3294 9.02734 9.81484Z" fill="#000000" />
</svg>