<svg width="24px"  height="24px"  viewBox="0 0 25 24" fill="none" xmlns="http://www.w3.org/2000/svg">
<path fill-rule="evenodd" clip-rule="evenodd" d="M18.7785 5.46967C19.0714 5.76256 19.0714 6.23744 18.7785 6.53033L6.78033 18.5285C6.48744 18.8214 6.01256 18.8214 5.71967 18.5285C5.42678 18.2356 5.42678 17.7607 5.71967 17.4678L17.7178 5.46967C18.0107 5.17678 18.4856 5.17678 18.7785 5.46967Z" fill="#000000" />
<path fill-rule="evenodd" clip-rule="evenodd" d="M16.8229 15.8945C16.4486 15.8945 16.1445 16.1986 16.1445 16.5729C16.1445 16.9471 16.4486 17.2512 16.8229 17.2512C17.1971 17.2512 17.5012 16.9471 17.5012 16.5729C17.5012 16.1986 17.1971 15.8945 16.8229 15.8945ZM14.6445 16.5729C14.6445 15.3702 15.6202 14.3945 16.8229 14.3945C18.0255 14.3945 19.0012 15.3702 19.0012 16.5729C19.0012 17.7755 18.0255 18.7512 16.8229 18.7512C15.6202 18.7512 14.6445 17.7755 14.6445 16.5729Z" fill="#000000" />
<path fill-rule="evenodd" clip-rule="evenodd" d="M7.67835 6.75C7.30411 6.75 7 7.05411 7 7.42835C7 7.80258 7.30411 8.1067 7.67835 8.1067C8.05258 8.1067 8.3567 7.80258 8.3567 7.42835C8.3567 7.05411 8.05258 6.75 7.67835 6.75ZM5.5 7.42835C5.5 6.22569 6.47569 5.25 7.67835 5.25C8.88101 5.25 9.8567 6.22569 9.8567 7.42835C9.8567 8.63101 8.88101 9.6067 7.67835 9.6067C6.47569 9.6067 5.5 8.63101 5.5 7.42835Z" fill="#000000" />
</svg>