<svg width="24px"  height="24px"  viewBox="0 0 25 24" fill="none" xmlns="http://www.w3.org/2000/svg">
<path d="M12.253 21.752C11.6938 21.7514 11.14 21.6428 10.622 21.432L8.47404 20.555C8.34086 20.5006 8.19778 20.4747 8.05399 20.4788C7.91021 20.483 7.76886 20.5171 7.63902 20.579L6.88203 20.94C6.58401 21.0837 6.25436 21.1494 5.92402 21.1307C5.59368 21.1121 5.27349 21.0098 4.99354 20.8334C4.71359 20.657 4.48306 20.4124 4.32362 20.1225C4.16417 19.8325 4.08105 19.5069 4.08204 19.176L4.10001 6.923C4.10001 4.041 5.82203 2.25 8.59303 2.25H15.893C18.679 2.25 20.41 4.04101 20.41 6.92401L20.419 19.179C20.4198 19.5098 20.3366 19.8353 20.1771 20.1251C20.0176 20.4149 19.787 20.6594 19.5071 20.8357C19.2272 21.0119 18.9071 21.1141 18.5768 21.1327C18.2465 21.1513 17.917 21.0857 17.619 20.942L16.859 20.579C16.7292 20.5166 16.5876 20.4822 16.4436 20.4781C16.2996 20.4739 16.1563 20.5001 16.023 20.555L13.881 21.43C13.3642 21.6414 12.8114 21.7508 12.253 21.752ZM8.08302 18.979C8.41146 18.9786 8.73686 19.0421 9.04102 19.166L11.187 20.042C11.8708 20.3221 12.6373 20.3221 13.321 20.042L15.462 19.167C15.7894 19.0327 16.1413 18.9687 16.495 18.9792C16.8487 18.9897 17.1962 19.0745 17.515 19.228L18.274 19.59C18.343 19.6232 18.4192 19.6383 18.4956 19.634C18.572 19.6296 18.6461 19.606 18.7109 19.5652C18.7756 19.5244 18.829 19.4679 18.8659 19.4008C18.9028 19.3338 18.9222 19.2585 18.922 19.182L18.913 6.92599C18.913 4.87799 17.842 3.75101 15.896 3.75101H8.59602C6.12202 3.75101 5.60304 5.47699 5.60304 6.92499L5.58503 19.179C5.58476 19.2557 5.60399 19.3313 5.64091 19.3985C5.67782 19.4658 5.73122 19.5226 5.79609 19.5636C5.86096 19.6045 5.93519 19.6284 6.01179 19.6328C6.08839 19.6373 6.16484 19.6222 6.23402 19.589L6.98902 19.228C7.33005 19.064 7.70364 18.9789 8.08204 18.979H8.08302Z" fill="#000000" />
<path d="M9.82745 15.1769C9.67921 15.1768 9.53435 15.1327 9.41113 15.0503C9.28791 14.9679 9.1919 14.8508 9.13519 14.7139C9.07848 14.5769 9.06361 14.4262 9.0925 14.2808C9.12138 14.1354 9.1927 14.0018 9.29745 13.8969L14.1455 9.04894C14.2877 8.91646 14.4757 8.84434 14.67 8.84777C14.8643 8.8512 15.0497 8.9299 15.1871 9.06732C15.3245 9.20473 15.4032 9.39011 15.4066 9.58441C15.4101 9.77871 15.338 9.96677 15.2055 10.1089L10.3574 14.9569C10.2881 15.0269 10.2055 15.0823 10.1145 15.1201C10.0235 15.1578 9.92596 15.1772 9.82745 15.1769Z" fill="#000000" />
<path d="M14.5287 15.1747C14.3438 15.1747 14.1631 15.1199 14.0093 15.0171C13.8555 14.9144 13.7357 14.7683 13.6649 14.5975C13.5941 14.4266 13.5756 14.2386 13.6117 14.0573C13.6478 13.8759 13.7368 13.7093 13.8676 13.5785C13.9984 13.4478 14.165 13.3587 14.3463 13.3227C14.5277 13.2866 14.7157 13.3051 14.8866 13.3758C15.0574 13.4466 15.2034 13.5665 15.3062 13.7202C15.4089 13.874 15.4637 14.0548 15.4637 14.2397C15.4637 14.4877 15.3653 14.7255 15.1899 14.9008C15.0146 15.0762 14.7767 15.1747 14.5287 15.1747Z" fill="#000000" />
<path d="M10.0287 10.6708C9.84382 10.6708 9.66306 10.6159 9.5093 10.5132C9.35554 10.4105 9.23568 10.2644 9.16491 10.0936C9.09414 9.92274 9.07564 9.73477 9.11172 9.55339C9.1478 9.37202 9.23685 9.2054 9.36761 9.07463C9.49837 8.94387 9.66497 8.85482 9.84634 8.81874C10.0277 8.78267 10.2157 8.8012 10.3866 8.87197C10.5574 8.94273 10.7034 9.06257 10.8062 9.21633C10.9089 9.37009 10.9637 9.55087 10.9637 9.7358C10.9635 9.98369 10.8649 10.2214 10.6896 10.3967C10.5143 10.5719 10.2766 10.6705 10.0287 10.6708Z" fill="#000000" />
</svg>