<svg width="24px"  height="24px"  viewBox="0 0 24 24" fill="none" xmlns="http://www.w3.org/2000/svg">
<path d="M17.7443 21.1764H5.60835C4.71757 21.1775 3.86282 20.8248 3.23201 20.1958C2.60119 19.5669 2.24593 18.7132 2.24434 17.8224V10.5744C2.23966 10.2511 2.31872 9.93213 2.4738 9.64844C2.62888 9.36474 2.8547 9.12601 3.12935 8.95541C3.38179 8.7999 3.67016 8.71229 3.96644 8.70108C4.26273 8.68987 4.55688 8.75543 4.82036 8.89142L5.48234 9.24142C5.57387 9.28814 5.67483 9.3134 5.77757 9.31531C5.88031 9.31721 5.98213 9.2957 6.07533 9.25241L7.31535 8.69843C7.3625 8.67624 7.41175 8.65882 7.46235 8.64642V5.27841C7.45827 4.95492 7.53798 4.63589 7.69377 4.35236C7.84956 4.06882 8.07609 3.83042 8.35133 3.6604C8.6027 3.50464 8.89016 3.41669 9.18565 3.40512C9.48114 3.39355 9.77456 3.45879 10.0373 3.59442L10.6994 3.9444C10.7918 3.99229 10.8941 4.01813 10.9982 4.01987C11.1023 4.0216 11.2053 3.99919 11.2993 3.95441L13.1383 3.13641C13.6009 2.93311 14.1006 2.82812 14.6058 2.82812C15.1111 2.82812 15.6108 2.93311 16.0733 3.13641L17.9223 3.9584C18.0168 4.00184 18.12 4.02315 18.224 4.02072C18.3279 4.0183 18.43 3.99219 18.5224 3.9444L19.1703 3.60141C19.4345 3.46303 19.7301 3.39569 20.0282 3.40604C20.3262 3.41638 20.6164 3.50404 20.8703 3.6604C21.145 3.83123 21.3708 4.07018 21.5259 4.35403C21.681 4.63789 21.76 4.95701 21.7554 5.28043L21.7474 16.7574C21.7344 19.4814 20.2083 21.1764 17.7443 21.1764ZM8.40034 19.6764H17.7443C19.8023 19.6764 20.2344 18.0874 20.2344 16.7544L20.2424 5.2774C20.2457 5.21114 20.2319 5.14513 20.2023 5.08575C20.1727 5.02637 20.1283 4.97563 20.0733 4.93842C20.0408 4.91687 20.003 4.90473 19.964 4.90332C19.925 4.90191 19.8863 4.91129 19.8523 4.93042L19.2073 5.27142C18.9151 5.42253 18.5927 5.50617 18.2639 5.5162C17.9351 5.52624 17.6082 5.46241 17.3074 5.32941L15.4584 4.50742C15.1861 4.38821 14.8921 4.32666 14.5948 4.32666C14.2976 4.32666 14.0036 4.38821 13.7313 4.50742L11.8934 5.32541C11.593 5.45981 11.2661 5.52476 10.9372 5.51541C10.6082 5.50606 10.2856 5.42266 9.99333 5.27142L9.33534 4.9234C9.30228 4.90593 9.265 4.89807 9.2277 4.90073C9.19041 4.90338 9.15459 4.91644 9.12434 4.93842C9.06884 4.97495 9.02385 5.02536 8.99385 5.08466C8.96385 5.14395 8.9499 5.21004 8.95335 5.2764V17.8224C8.95644 18.4815 8.76399 19.1267 8.40034 19.6764ZM4.03135 10.1984C3.98849 10.1992 3.94665 10.2116 3.91035 10.2344C3.85573 10.2721 3.81164 10.3231 3.78224 10.3826C3.75284 10.4421 3.73911 10.5081 3.74235 10.5744V17.8224C3.74235 18.3155 3.93822 18.7883 4.28685 19.1369C4.63548 19.4856 5.10829 19.6814 5.60133 19.6814C6.09437 19.6814 6.56722 19.4856 6.91585 19.1369C7.26448 18.7883 7.46034 18.3155 7.46034 17.8224V10.2754L6.67933 10.6244C6.37889 10.7589 6.05196 10.8237 5.72294 10.814C5.39393 10.8043 5.07135 10.7203 4.77934 10.5684L4.12333 10.2224C4.09478 10.2083 4.0632 10.2014 4.03135 10.2024V10.1984Z" fill="#000000" />
<path d="M12.4794 15.3924C12.3312 15.392 12.1864 15.3477 12.0632 15.2651C11.9401 15.1826 11.8442 15.0654 11.7875 14.9285C11.7308 14.7915 11.716 14.6408 11.7448 14.4954C11.7736 14.35 11.8448 14.2164 11.9494 14.1114L16.5744 9.48535C16.6441 9.41569 16.7268 9.36043 16.8178 9.32272C16.9088 9.28502 17.0064 9.26563 17.1049 9.26563C17.2034 9.26562 17.301 9.28502 17.392 9.32272C17.483 9.36043 17.5657 9.41569 17.6354 9.48535C17.7051 9.55502 17.7603 9.63774 17.798 9.72876C17.8357 9.81978 17.8551 9.91732 17.8551 10.0158C17.8551 10.1144 17.8357 10.2119 17.798 10.3029C17.7603 10.394 17.7051 10.4767 17.6354 10.5464L13.0084 15.1724C12.868 15.3126 12.6779 15.3917 12.4794 15.3924Z" fill="#000000" />
<path d="M16.9897 15.5145C16.8048 15.5145 16.624 15.4597 16.4702 15.357C16.3165 15.2542 16.1966 15.1082 16.1258 14.9373C16.0551 14.7665 16.0366 14.5785 16.0727 14.3971C16.1087 14.2157 16.1978 14.0491 16.3285 13.9184C16.4593 13.7876 16.6259 13.6986 16.8073 13.6625C16.9886 13.6264 17.1766 13.6449 17.3475 13.7157C17.5183 13.7865 17.6644 13.9063 17.7671 14.0601C17.8699 14.2138 17.9247 14.3946 17.9247 14.5795C17.9244 14.8274 17.8258 15.0651 17.6505 15.2404C17.4752 15.4157 17.2376 15.5143 16.9897 15.5145Z" fill="#000000" />
<path d="M12.4897 11.0145C12.3048 11.0145 12.124 10.9597 11.9702 10.857C11.8165 10.7542 11.6966 10.6082 11.6258 10.4373C11.5551 10.2665 11.5366 10.0785 11.5727 9.89711C11.6087 9.71574 11.6978 9.54915 11.8285 9.41838C11.9593 9.28762 12.1259 9.19857 12.3073 9.16249C12.4886 9.12642 12.6766 9.14495 12.8475 9.21572C13.0183 9.28648 13.1644 9.40632 13.2671 9.56008C13.3699 9.71384 13.4247 9.89459 13.4247 10.0795C13.4244 10.3274 13.3258 10.5651 13.1505 10.7404C12.9752 10.9157 12.7376 11.0143 12.4897 11.0145Z" fill="#000000" />
</svg>