<svg width="24px"  height="24px"  viewBox="0 0 25 24" fill="none" xmlns="http://www.w3.org/2000/svg">
<path fill-rule="evenodd" clip-rule="evenodd" d="M15.3496 3C15.3496 2.58579 15.6854 2.25 16.0996 2.25H17.3567C19.921 2.25 21.9995 4.32826 21.9995 6.89189V8.46907C21.9995 8.88329 21.6638 9.21907 21.2495 9.21907C20.8353 9.21907 20.4995 8.88329 20.4995 8.46907V6.89189C20.4995 5.15693 19.0929 3.75 17.3567 3.75H16.0996C15.6854 3.75 15.3496 3.41421 15.3496 3Z" fill="#000000" />
<path fill-rule="evenodd" clip-rule="evenodd" d="M7.14286 3.75C5.40668 3.75 4 5.15693 4 6.89189V8.46907C4 8.88329 3.66421 9.21907 3.25 9.21907C2.83579 9.21907 2.5 8.88329 2.5 8.46907V6.89189C2.5 4.32826 4.5785 2.25 7.14286 2.25H8.43205C8.84626 2.25 9.18205 2.58579 9.18205 3C9.18205 3.41421 8.84626 3.75 8.43205 3.75H7.14286Z" fill="#000000" />
<path fill-rule="evenodd" clip-rule="evenodd" d="M3.25 14.7812C3.66421 14.7812 4 15.117 4 15.5312V17.1084C4 18.8434 5.40668 20.2503 7.14286 20.2503H8.39994C8.81415 20.2503 9.14994 20.5861 9.14994 21.0003C9.14994 21.4145 8.81415 21.7503 8.39994 21.7503H7.14286C4.5785 21.7503 2.5 19.6721 2.5 17.1084V15.5312C2.5 15.117 2.83579 14.7812 3.25 14.7812Z" fill="#000000" />
<path fill-rule="evenodd" clip-rule="evenodd" d="M21.2504 14.7812C21.6646 14.7812 22.0004 15.117 22.0004 15.5312V17.1084C22.0004 19.6721 19.9219 21.7503 17.3575 21.7503H16.0684C15.6541 21.7503 15.3184 21.4145 15.3184 21.0003C15.3184 20.5861 15.6541 20.2503 16.0684 20.2503H17.3575C19.0937 20.2503 20.5004 18.8434 20.5004 17.1084V15.5312C20.5004 15.117 20.8362 14.7812 21.2504 14.7812Z" fill="#000000" />
<path fill-rule="evenodd" clip-rule="evenodd" d="M7.89113 7.46875C7.79653 7.46875 7.71875 7.54545 7.71875 7.6421V9.35453C7.71875 9.45015 7.7955 9.52691 7.89113 9.52691H9.60356C9.69918 9.52691 9.77593 9.45015 9.77593 9.35453V7.6421C9.77593 7.54545 9.69815 7.46875 9.60356 7.46875H7.89113ZM6.21875 7.6421C6.21875 6.71908 6.96605 5.96875 7.89113 5.96875H9.60356C10.5286 5.96875 11.2759 6.71908 11.2759 7.6421V9.35453C11.2759 10.2786 10.5276 11.0269 9.60356 11.0269H7.89113C6.96708 11.0269 6.21875 10.2786 6.21875 9.35453V7.6421Z" fill="#000000" />
<path fill-rule="evenodd" clip-rule="evenodd" d="M7.89113 14.4023C7.79653 14.4023 7.71875 14.479 7.71875 14.5757V16.3592C7.71875 16.4543 7.79602 16.5315 7.89113 16.5315H9.67458C9.76969 16.5315 9.84696 16.4543 9.84696 16.3592V14.5757C9.84696 14.479 9.76918 14.4023 9.67458 14.4023H7.89113ZM6.21875 14.5757C6.21875 13.6527 6.96605 12.9023 7.89113 12.9023H9.67458C10.5997 12.9023 11.347 13.6527 11.347 14.5757V16.3592C11.347 17.2817 10.5991 18.0315 9.67458 18.0315H7.89113C6.96656 18.0315 6.21875 17.2817 6.21875 16.3592V14.5757Z" fill="#000000" />
<path fill-rule="evenodd" clip-rule="evenodd" d="M14.8247 7.46875C14.7291 7.46875 14.6523 7.5455 14.6523 7.64113V9.42458C14.6523 9.52021 14.7291 9.59696 14.8247 9.59696H16.6082C16.7038 9.59696 16.7806 9.52021 16.7806 9.42458V7.64113C16.7806 7.5455 16.7038 7.46875 16.6082 7.46875H14.8247ZM13.1523 7.64113C13.1523 6.71708 13.9007 5.96875 14.8247 5.96875H16.6082C17.5322 5.96875 18.2806 6.71708 18.2806 7.64113V9.42458C18.2806 10.3486 17.5322 11.097 16.6082 11.097H14.8247C13.9007 11.097 13.1523 10.3486 13.1523 9.42458V7.64113Z" fill="#000000" />
<path fill-rule="evenodd" clip-rule="evenodd" d="M13.6797 17.2812C13.6797 16.867 14.0155 16.5312 14.4297 16.5312H14.49C14.9042 16.5312 15.24 16.867 15.24 17.2812C15.24 17.6955 14.9042 18.0312 14.49 18.0312H14.4297C14.0155 18.0312 13.6797 17.6955 13.6797 17.2812Z" fill="#000000" />
<path fill-rule="evenodd" clip-rule="evenodd" d="M16.7812 17.2812C16.7812 16.867 17.117 16.5312 17.5312 16.5312H17.5916C18.0058 16.5312 18.3416 16.867 18.3416 17.2812C18.3416 17.6955 18.0058 18.0312 17.5916 18.0312H17.5312C17.117 18.0312 16.7812 17.6955 16.7812 17.2812Z" fill="#000000" />
<path fill-rule="evenodd" clip-rule="evenodd" d="M16.7812 14.1797C16.7812 13.7655 17.117 13.4297 17.5312 13.4297H17.5916C18.0058 13.4297 18.3416 13.7655 18.3416 14.1797C18.3416 14.5939 18.0058 14.9297 17.5916 14.9297H17.5312C17.117 14.9297 16.7812 14.5939 16.7812 14.1797Z" fill="#000000" />
<path fill-rule="evenodd" clip-rule="evenodd" d="M15.2305 15.7305C15.2305 15.3163 15.5663 14.9805 15.9805 14.9805H16.0408C16.455 14.9805 16.7908 15.3163 16.7908 15.7305C16.7908 16.1447 16.455 16.4805 16.0408 16.4805H15.9805C15.5663 16.4805 15.2305 16.1447 15.2305 15.7305Z" fill="#000000" />
<path fill-rule="evenodd" clip-rule="evenodd" d="M13.6797 14.1797C13.6797 13.7655 14.0155 13.4297 14.4297 13.4297H14.49C14.9042 13.4297 15.24 13.7655 15.24 14.1797C15.24 14.5939 14.9042 14.9297 14.49 14.9297H14.4297C14.0155 14.9297 13.6797 14.5939 13.6797 14.1797Z" fill="#000000" />
</svg>