<svg width="24px"  height="24px"  viewBox="0 0 25 24" fill="none" xmlns="http://www.w3.org/2000/svg">
<path fill-rule="evenodd" clip-rule="evenodd" d="M6.24744 6.33318C6.2474 6.33342 6.24747 6.33295 6.24744 6.33318L5.74662 9.46838C5.74376 9.48632 5.74024 9.50416 5.73608 9.52185L5.73219 9.53839C5.63732 9.94159 5.23355 10.1915 4.83034 10.0967C4.43086 10.0027 4.18182 9.60547 4.26952 9.206L4.76675 6.09326C4.98972 4.71715 6.1735 3.70312 7.57076 3.70312H8.38708C8.80129 3.70312 9.13708 4.03891 9.13708 4.45312C9.13708 4.86734 8.80129 5.20312 8.38708 5.20312H7.57076C6.91334 5.20312 6.35361 5.68004 6.24744 6.33318Z" fill="#000000" />
<path fill-rule="evenodd" clip-rule="evenodd" d="M15.3613 4.45312C15.3613 4.03891 15.6971 3.70312 16.1113 3.70312H16.9286C18.322 3.70312 19.5145 4.71472 19.7321 6.09584C19.7321 6.09614 19.732 6.09555 19.7321 6.09584L20.2289 9.206C20.3166 9.60546 20.0675 10.0027 19.6681 10.0967C19.2649 10.1915 18.8611 9.9416 18.7662 9.5384L18.7623 9.52186C18.7582 9.50416 18.7546 9.48633 18.7518 9.46838L18.2504 6.32972C18.1485 5.68169 17.5879 5.20312 16.9286 5.20312H16.1113C15.6971 5.20312 15.3613 4.86734 15.3613 4.45312Z" fill="#000000" />
<path fill-rule="evenodd" clip-rule="evenodd" d="M9.54647 4.03906C9.31658 4.03906 9.13086 4.22479 9.13086 4.45468C9.13086 4.68319 9.31618 4.86932 9.54647 4.86932H14.9542C15.1831 4.86932 15.3689 4.6836 15.3689 4.45468V4.4537C15.3689 4.22479 15.1831 4.03906 14.9542 4.03906H9.54647ZM7.63086 4.45468C7.63086 3.39636 8.48816 2.53906 9.54647 2.53906H14.9542C16.0116 2.53906 16.8689 3.39636 16.8689 4.4537V4.45468C16.8689 5.51202 16.0116 6.36932 14.9542 6.36932H9.54647C8.48856 6.36932 7.63086 5.51243 7.63086 4.45468Z" fill="#000000" />
<path fill-rule="evenodd" clip-rule="evenodd" d="M4.34976 10.6309C4.03121 11.0497 3.85384 11.8024 4.15233 13.0877L4.15598 13.1043L5.12603 17.7571L5.12952 17.7749C5.43041 19.416 6.57591 19.9555 7.37104 19.9555H17.128C17.9231 19.9555 19.0686 19.416 19.3695 17.7749L19.373 17.7571L20.343 13.1043L20.3467 13.0875C20.6456 11.8023 20.4682 11.0497 20.1497 10.631C19.8364 10.2192 19.2323 9.92969 18.2011 9.92969H6.29786C5.26677 9.92969 4.66296 10.2191 4.34976 10.6309ZM3.15588 9.72281C3.86527 8.79018 5.02205 8.42969 6.29786 8.42969H18.2011C19.4769 8.42969 20.6339 8.79016 21.3434 9.72274C22.0464 10.6466 22.1545 11.9297 21.8097 13.4187L20.8432 18.0546C20.3997 20.4505 18.5941 21.4555 17.128 21.4555H7.37104C5.90494 21.4555 4.09926 20.4505 3.65582 18.0546L2.68925 13.4186C2.34502 11.9297 2.45317 10.6467 3.15588 9.72281Z" fill="#000000" />
<path fill-rule="evenodd" clip-rule="evenodd" d="M21.6565 10.4423C21.9494 10.7352 21.9494 11.2101 21.6565 11.503L12.8359 20.3323L11.9165 21.243C11.6222 21.5345 11.1473 21.5322 10.8558 21.2379C10.5643 20.9436 10.5666 20.4687 10.8609 20.1773L11.7773 19.2696L11.7803 19.2666L20.5958 10.4423C20.8887 10.1494 21.3636 10.1494 21.6565 10.4423Z" fill="#000000" />
<path fill-rule="evenodd" clip-rule="evenodd" d="M13.0978 8.62417C13.4046 8.90246 13.4277 9.37677 13.1495 9.68358L12.8741 9.98714L7.96516 15.3979L7.69825 15.6952L6.97552 16.493L5.00331 18.6549C4.72415 18.961 4.24978 18.9827 3.94376 18.7036C3.63775 18.4244 3.61598 17.95 3.89514 17.644L5.86558 15.484L5.86734 15.4821L6.58542 14.6894L6.85158 14.3929L11.7631 8.97938L12.0384 8.67581C12.3167 8.369 12.791 8.34589 13.0978 8.62417Z" fill="#000000" />
<path fill-rule="evenodd" clip-rule="evenodd" d="M2.86615 10.3564C3.15905 10.0635 3.63392 10.0635 3.92681 10.3564L13.7499 20.1795C14.0428 20.4724 14.0428 20.9472 13.7499 21.2401C13.457 21.533 12.9821 21.533 12.6892 21.2401L2.86615 11.417C2.57326 11.1242 2.57326 10.6493 2.86615 10.3564Z" fill="#000000" />
<path fill-rule="evenodd" clip-rule="evenodd" d="M11.541 8.62417C11.8478 8.34589 12.3222 8.369 12.6004 8.67581L12.8758 8.97938L17.7641 14.38L18.0437 14.6784L20.6312 17.5317C20.9096 17.8384 20.8865 18.3127 20.5798 18.5911C20.273 18.8694 19.7987 18.8464 19.5204 18.5396L16.9361 15.6901L16.6562 15.3915L11.4894 9.68358C11.2111 9.37677 11.2342 8.90246 11.541 8.62417Z" fill="#000000" />
</svg>