<svg width="24px"  height="24px"  viewBox="0 0 25 24" fill="none" xmlns="http://www.w3.org/2000/svg">
<path d="M13.6629 6.78809C13.464 6.78809 13.2732 6.70907 13.1326 6.56842C12.9919 6.42777 12.9129 6.237 12.9129 6.03809V5.5631C12.9138 5.32524 12.8678 5.08954 12.7775 4.86951C12.6871 4.64947 12.5543 4.44943 12.3865 4.28082C12.2188 4.11222 12.0194 3.97838 11.7998 3.88696C11.5802 3.79555 11.3447 3.74835 11.1069 3.74809C10.6286 3.74835 10.17 3.93775 9.83087 4.27498C9.49177 4.6122 9.29978 5.06987 9.29688 5.5481V6.0331C9.29688 6.23201 9.21786 6.42276 9.07721 6.56342C8.93656 6.70407 8.74579 6.7831 8.54688 6.7831C8.34796 6.7831 8.15725 6.70407 8.0166 6.56342C7.87595 6.42276 7.79688 6.23201 7.79688 6.0331V5.5461C7.80031 4.67038 8.15038 3.83164 8.77045 3.21326C9.39052 2.59487 10.2302 2.24714 11.1059 2.24609H11.1139C11.5483 2.24714 11.9783 2.33375 12.3792 2.50096C12.7802 2.66817 13.1442 2.91272 13.4507 3.22064C13.7571 3.52856 13.9999 3.89382 14.1652 4.29556C14.3304 4.69731 14.4149 5.12767 14.4139 5.56209V6.03609C14.4141 6.13483 14.3949 6.23265 14.3573 6.32394C14.3197 6.41523 14.2644 6.4982 14.1946 6.56807C14.1248 6.63794 14.0419 6.69334 13.9507 6.73109C13.8594 6.76885 13.7616 6.78822 13.6629 6.78809Z" fill="#000000" />
<path d="M7.40839 21.1361C6.44556 21.1361 5.5221 20.7536 4.84119 20.0729C4.16027 19.3922 3.77761 18.4689 3.77734 17.5061V8.91907C3.77867 7.95639 4.16181 7.03354 4.84271 6.35301C5.52362 5.67248 6.44669 5.28986 7.40936 5.28906H14.8024C15.765 5.28906 16.6883 5.67134 17.3691 6.35185C18.05 7.03236 18.4328 7.95541 18.4333 8.91806C18.4335 9.01664 18.4142 9.11427 18.3766 9.20538C18.339 9.29649 18.2837 9.37929 18.2141 9.44904C18.1444 9.51879 18.0616 9.57412 17.9706 9.61188C17.8795 9.64963 17.7819 9.66907 17.6833 9.66907C17.4844 9.66907 17.2937 9.59004 17.153 9.44939C17.0124 9.30873 16.9333 9.11798 16.9333 8.91907C16.9333 8.63927 16.8782 8.3622 16.7711 8.10371C16.664 7.84523 16.507 7.61037 16.3091 7.41257C16.1112 7.21477 15.8763 7.0579 15.6178 6.95091C15.3593 6.84393 15.0822 6.78893 14.8024 6.78906H7.40936C6.84435 6.78933 6.30254 7.01376 5.90283 7.4131C5.50312 7.81244 5.27814 8.35405 5.27734 8.91907V17.5061C5.27734 17.7859 5.33247 18.0629 5.43958 18.3214C5.54668 18.5799 5.70372 18.8148 5.90161 19.0126C6.09951 19.2104 6.33442 19.3672 6.59296 19.4742C6.8515 19.5812 7.12859 19.6362 7.40839 19.6361C7.6073 19.6361 7.79807 19.7151 7.93872 19.8557C8.07937 19.9964 8.15839 20.1872 8.15839 20.3861C8.15839 20.585 8.07937 20.7757 7.93872 20.9164C7.79807 21.057 7.6073 21.1361 7.40839 21.1361Z" fill="#000000" />
<path d="M17.2958 14.5668C17.0969 14.5668 16.9061 14.4878 16.7654 14.3472C16.6248 14.2065 16.5458 14.0157 16.5458 13.8168V13.0738C16.546 12.7589 16.4215 12.4567 16.1994 12.2335C15.9773 12.0102 15.6757 11.8841 15.3608 11.8828C15.0469 11.8831 14.746 12.0077 14.5239 12.2295C14.3017 12.4512 14.1766 12.752 14.1758 13.0658V13.8168C14.1758 14.0157 14.0968 14.2065 13.9561 14.3472C13.8155 14.4878 13.6247 14.5668 13.4258 14.5668C13.2269 14.5668 13.0361 14.4878 12.8954 14.3472C12.7548 14.2065 12.6758 14.0157 12.6758 13.8168V13.0648C12.6779 12.3535 12.9617 11.6719 13.4651 11.1693C13.9685 10.6667 14.6505 10.3839 15.3618 10.3828H15.3668C16.0792 10.3855 16.7615 10.6704 17.2642 11.1752C17.7669 11.6799 18.049 12.3634 18.0488 13.0758V13.8168C18.0488 13.9156 18.0293 14.0133 17.9914 14.1045C17.9535 14.1957 17.898 14.2785 17.8281 14.3482C17.7581 14.4179 17.6751 14.4731 17.5837 14.5106C17.4924 14.5481 17.3945 14.5672 17.2958 14.5668Z" fill="#000000" />
<path d="M12.9329 21.7513C12.156 21.7513 11.411 21.4427 10.8618 20.8934C10.3125 20.3441 10.0039 19.5991 10.0039 18.8223V16.0003C10.0047 15.2235 10.3136 14.4787 10.8629 13.9294C11.4122 13.3801 12.1571 13.0711 12.9339 13.0703H17.7919C18.5687 13.0708 19.3136 13.3795 19.8631 13.9286C20.4126 14.4778 20.7218 15.2225 20.7229 15.9993V18.8253C20.7218 19.6022 20.4126 20.347 19.8632 20.8963C19.3137 21.4456 18.5688 21.7545 17.7919 21.7553H12.9329V21.7513ZM12.9329 14.5663C12.5536 14.5666 12.1899 14.7173 11.9216 14.9854C11.6534 15.2535 11.5024 15.617 11.5019 15.9963V18.8213C11.5018 19.009 11.5386 19.195 11.6104 19.3685C11.6821 19.542 11.7873 19.6996 11.92 19.8324C12.0528 19.9652 12.2103 20.0706 12.3838 20.1424C12.5572 20.2143 12.7432 20.2513 12.9309 20.2513H17.7899C18.169 20.2508 18.5326 20.1 18.8008 19.8319C19.069 19.5639 19.2201 19.2005 19.2209 18.8213V16.0003C19.2201 15.6211 19.069 15.2577 18.8008 14.9897C18.5326 14.7216 18.169 14.5708 17.7899 14.5703L12.9329 14.5663Z" fill="#000000" />
</svg>