<svg width="24px"  height="24px"  viewBox="0 0 25 24" fill="none" xmlns="http://www.w3.org/2000/svg">
<path fill-rule="evenodd" clip-rule="evenodd" d="M3.23581 8.46047C3.91532 7.53602 4.97359 7.02734 6.18136 7.02734H18.2473C19.4551 7.02734 20.5133 7.53603 21.193 8.46041C21.8658 9.37555 22.1106 10.6175 21.8798 12.0009L21.879 12.0056L20.9018 17.6444C20.4594 20.0574 18.6434 21.0701 17.1693 21.0701H7.2604C5.78542 21.0701 3.96931 20.0575 3.52688 17.6444L3.52554 17.6371L2.54992 12.0012C2.31852 10.6177 2.56308 9.37571 3.23581 8.46047ZM4.02904 11.7517C4.02916 11.7524 4.02927 11.7531 4.02938 11.7538L5.00294 17.3774C5.3068 19.0266 6.45917 19.5701 7.2604 19.5701H17.1693C17.9694 19.5701 19.1219 19.0268 19.4258 17.3774L20.4002 11.7541C20.4004 11.7533 20.4005 11.7526 20.4006 11.7519C20.5797 10.6758 20.3663 9.86834 19.9844 9.34893C19.6091 8.8384 19.0157 8.52734 18.2473 8.52734H6.18136C5.41301 8.52734 4.81964 8.83841 4.44444 9.34886C4.0627 9.8682 3.84949 10.6756 4.02904 11.7517Z" fill="#000000" />
<path fill-rule="evenodd" clip-rule="evenodd" d="M8.24805 11.7266C8.24805 11.3123 8.58383 10.9766 8.99805 10.9766H15.4324C15.8466 10.9766 16.1824 11.3123 16.1824 11.7266C16.1824 12.1408 15.8466 12.4766 15.4324 12.4766H8.99805C8.58383 12.4766 8.24805 12.1408 8.24805 11.7266Z" fill="#000000" />
<path fill-rule="evenodd" clip-rule="evenodd" d="M9.8346 3.01504C10.2018 3.20679 10.344 3.65987 10.1522 4.02703L8.01652 8.11648C7.82477 8.48364 7.37169 8.62584 7.00453 8.43409C6.63737 8.24234 6.49517 7.78926 6.68692 7.4221L8.82261 3.33265C9.01436 2.96549 9.46744 2.82329 9.8346 3.01504Z" fill="#000000" />
<path fill-rule="evenodd" clip-rule="evenodd" d="M14.5924 3.01504C14.9596 2.82329 15.4127 2.96549 15.6044 3.33265L17.7401 7.4221C17.9319 7.78926 17.7897 8.24234 17.4225 8.43409C17.0553 8.62584 16.6023 8.48364 16.4105 8.11648L14.2748 4.02703C14.0831 3.65987 14.2253 3.20679 14.5924 3.01504Z" fill="#000000" />
</svg>