<svg width="24px"  height="24px"  viewBox="0 0 25 24" fill="none" xmlns="http://www.w3.org/2000/svg">
<path fill-rule="evenodd" clip-rule="evenodd" d="M5.35947 10.246L4.63338 15.8822L4.63124 15.8975C4.33677 17.8622 4.73829 18.8672 5.31662 19.4103C5.93362 19.9896 6.95606 20.2473 8.33867 20.2473H16.1551C17.4768 20.2473 18.502 19.8989 19.138 19.2539C19.7538 18.6292 20.1382 17.589 19.8949 15.8929L19.8934 15.8822L19.8934 15.8822L19.1691 10.2597C18.7776 8.52951 17.7824 8 17.0287 8H7.49807C7.08594 8 6.63937 8.14035 6.25725 8.47385C5.88083 8.80237 5.52618 9.35478 5.35947 10.246ZM5.27094 7.34372C5.942 6.75805 6.74466 6.5 7.49807 6.5H17.0287C18.6347 6.5 20.1363 7.67642 20.641 9.96855C20.6458 9.99019 20.6496 10.012 20.6524 10.034L21.3805 15.6853C21.6668 17.6894 21.2455 19.2528 20.2061 20.307C19.1859 21.3417 17.7044 21.7473 16.1551 21.7473H8.33867C6.85118 21.7473 5.33626 21.4864 4.28982 20.5037C3.20598 19.486 2.81762 17.8881 3.14665 15.683L3.87439 10.034C3.87608 10.0209 3.87812 10.0078 3.88051 9.99476C4.09668 8.81409 4.59682 7.93206 5.27094 7.34372Z" fill="#000000" />
<path fill-rule="evenodd" clip-rule="evenodd" d="M7.42384 7.02464C7.43537 4.37612 9.59115 2.23939 12.2384 2.25004C14.8856 2.25092 17.0321 4.39794 17.0321 7.04542C17.0321 7.45963 16.6963 7.79542 16.2821 7.79542C15.8679 7.79542 15.5321 7.45963 15.5321 7.04542C15.5321 5.22582 14.0563 3.75004 12.2367 3.75004H12.2335C10.4143 3.74212 8.93259 5.20983 8.92383 7.02963V7.04542C8.92383 7.45963 8.58804 7.79542 8.17383 7.79542C7.75961 7.79542 7.42383 7.45963 7.42383 7.04542L7.42384 7.02464Z" fill="#000000" />
<path fill-rule="evenodd" clip-rule="evenodd" d="M8.98242 11.7578C8.98242 11.3436 9.31821 11.0078 9.73242 11.0078H14.7964C15.2107 11.0078 15.5464 11.3436 15.5464 11.7578C15.5464 12.172 15.2107 12.5078 14.7964 12.5078H9.73242C9.31821 12.5078 8.98242 12.172 8.98242 11.7578Z" fill="#000000" />
</svg>