<svg width="24px"  height="24px"  viewBox="0 0 25 24" fill="none" xmlns="http://www.w3.org/2000/svg">
<path fill-rule="evenodd" clip-rule="evenodd" d="M3.94811 4.14433C4.90555 3.11714 6.26852 2.54297 7.87599 2.54297H16.0352C17.6464 2.54297 19.01 3.11682 19.967 4.14461C20.9184 5.16636 21.4122 6.5758 21.4122 8.1552V12.0781C21.4122 12.4923 21.0764 12.8281 20.6622 12.8281C20.248 12.8281 19.9122 12.4923 19.9122 12.0781V8.1552C19.9122 6.88559 19.5184 5.86392 18.8692 5.1668C18.2258 4.47573 17.2759 4.04297 16.0352 4.04297H7.87599C6.6401 4.04297 5.69008 4.4754 5.04536 5.16708C4.39519 5.86461 4 6.88642 4 8.1552V15.8429C4 17.1127 4.39346 18.1344 5.04221 18.8314C5.68528 19.5224 6.63485 19.9551 7.87599 19.9551H12.2695C12.6837 19.9551 13.0195 20.2909 13.0195 20.7051C13.0195 21.1193 12.6837 21.4551 12.2695 21.4551H7.87599C6.26435 21.4551 4.90093 20.8813 3.9442 19.8534C2.99315 18.8315 2.5 17.4221 2.5 15.8429V8.1552C2.5 6.57497 2.99612 5.16566 3.94811 4.14433Z" fill="#000000" />
<path fill-rule="evenodd" clip-rule="evenodd" d="M8.49219 8.17188C8.9064 8.17188 9.24219 8.50766 9.24219 8.92188C9.24219 10.4202 10.4566 11.6345 11.9549 11.6345C13.4532 11.6345 14.6675 10.4202 14.6675 8.92188C14.6675 8.50766 15.0033 8.17188 15.4175 8.17188C15.8317 8.17188 16.1675 8.50766 16.1675 8.92188C16.1675 11.2486 14.2816 13.1345 11.9549 13.1345C9.62813 13.1345 7.74219 11.2486 7.74219 8.92188C7.74219 8.50766 8.07797 8.17188 8.49219 8.17188Z" fill="#000000" />
<path fill-rule="evenodd" clip-rule="evenodd" d="M21.7797 16.3056C22.0726 16.5985 22.0726 17.0734 21.7797 17.3663L17.9227 21.2233C17.6298 21.5161 17.1551 21.5162 16.8621 21.2234L14.9327 19.2949C14.6397 19.0021 14.6396 18.5272 14.9324 18.2343C15.2253 17.9413 15.7001 17.9412 15.9931 18.234L17.3922 19.6324L20.719 16.3056C21.0119 16.0127 21.4868 16.0127 21.7797 16.3056Z" fill="#000000" />
</svg>