<svg width="24px"  height="24px"  viewBox="0 0 25 24" fill="none" xmlns="http://www.w3.org/2000/svg">
<path fill-rule="evenodd" clip-rule="evenodd" d="M14.4883 11.9219C14.9025 11.9219 15.2383 12.2577 15.2383 12.6719V16.339C15.2383 16.7532 14.9025 17.089 14.4883 17.089C14.0741 17.089 13.7383 16.7532 13.7383 16.339V12.6719C13.7383 12.2577 14.0741 11.9219 14.4883 11.9219Z" fill="#000000" />
<path fill-rule="evenodd" clip-rule="evenodd" d="M9.93945 11.9219C10.3537 11.9219 10.6895 12.2577 10.6895 12.6719V16.339C10.6895 16.7532 10.3537 17.089 9.93945 17.089C9.52524 17.089 9.18945 16.7532 9.18945 16.339V12.6719C9.18945 12.2577 9.52524 11.9219 9.93945 11.9219Z" fill="#000000" />
<path fill-rule="evenodd" clip-rule="evenodd" d="M4.31484 10.1974C3.99617 10.6162 3.81864 11.369 4.11709 12.6542L4.12075 12.6707L5.0908 17.3235L5.09429 17.3413C5.39519 18.9824 6.54069 19.5219 7.33583 19.5219H17.0928C17.8879 19.5219 19.0334 18.9824 19.3343 17.3413L19.3378 17.3235L20.3079 12.6707L20.3116 12.6539C20.6105 11.3687 20.4331 10.6161 20.1145 10.1974C19.8012 9.78557 19.1971 9.49609 18.166 9.49609H6.26264C5.23212 9.49609 4.62821 9.7855 4.31484 10.1974ZM3.12106 9.28915C3.83053 8.35663 4.98721 7.99609 6.26264 7.99609H18.166C19.4418 7.99609 20.5988 8.35657 21.3083 9.28915C22.0112 10.2131 22.1193 11.4962 21.7746 12.9852L20.808 17.6211C20.3646 20.017 18.5589 21.0219 17.0928 21.0219H7.33583C5.86972 21.0219 4.06404 20.017 3.62059 17.6211L2.65402 12.985C2.30975 11.496 2.41823 10.213 3.12106 9.28915Z" fill="#000000" />
<path fill-rule="evenodd" clip-rule="evenodd" d="M11.1586 3.12946C11.4884 3.38008 11.5526 3.8506 11.302 4.18039L7.52296 9.15325C7.27234 9.48304 6.80183 9.54722 6.47204 9.29661C6.14224 9.04599 6.07806 8.57547 6.32868 8.24568L10.1077 3.27282C10.3583 2.94302 10.8288 2.87884 11.1586 3.12946Z" fill="#000000" />
<path fill-rule="evenodd" clip-rule="evenodd" d="M13.2689 3.12946C13.5987 2.87884 14.0692 2.94302 14.3198 3.27282L18.0989 8.24568C18.3495 8.57547 18.2853 9.04599 17.9555 9.29661C17.6257 9.54722 17.1552 9.48304 16.9046 9.15325L13.1256 4.18039C12.8749 3.8506 12.9391 3.38008 13.2689 3.12946Z" fill="#000000" />
</svg>