<svg width="24px"  height="24px"  viewBox="0 0 25 24" fill="none" xmlns="http://www.w3.org/2000/svg">
<path fill-rule="evenodd" clip-rule="evenodd" d="M3.9902 3.89737C4.97468 2.84117 6.37669 2.25 8.03216 2.25H16.4669C18.1262 2.25 19.5288 2.84084 20.5129 3.89765C21.4913 4.94841 22 6.39889 22 8.02638V12.0817C22 12.4959 21.6642 12.8317 21.25 12.8317C20.8358 12.8317 20.5 12.4959 20.5 12.0817V8.02638C20.5 6.70868 20.0912 5.64597 19.4151 4.91984C18.7446 4.19975 17.7556 3.75 16.4669 3.75H8.03216C6.74828 3.75 5.75921 4.19943 5.08745 4.92012C4.41024 5.64667 4 6.70951 4 8.02638V15.9736C4 17.2915 4.40843 18.3542 5.08418 19.0803C5.75426 19.8002 6.74287 20.25 8.03216 20.25H12.574C12.9882 20.25 13.324 20.5858 13.324 21C13.324 21.4142 12.9882 21.75 12.574 21.75H8.03216C6.37237 21.75 4.9699 21.1592 3.98617 20.1022C3.00811 19.0514 2.5 17.6009 2.5 15.9736V8.02638C2.5 6.39806 3.01117 4.94771 3.9902 3.89737Z" fill="#000000" />
<path fill-rule="evenodd" clip-rule="evenodd" d="M8.66992 8.07031C9.08414 8.07031 9.41992 8.4061 9.41992 8.82031C9.41992 10.3832 10.6866 11.6499 12.2495 11.6499C13.8124 11.6499 15.0791 10.3832 15.0791 8.82031C15.0791 8.4061 15.4148 8.07031 15.8291 8.07031C16.2433 8.07031 16.5791 8.4061 16.5791 8.82031C16.5791 11.2116 14.6408 13.1499 12.2495 13.1499C9.85819 13.1499 7.91992 11.2116 7.91992 8.82031C7.91992 8.4061 8.25571 8.07031 8.66992 8.07031Z" fill="#000000" />
<path fill-rule="evenodd" clip-rule="evenodd" d="M15.1445 18.3203C15.1445 17.9061 15.4803 17.5703 15.8945 17.5703H21.2488C21.663 17.5703 21.9988 17.9061 21.9988 18.3203C21.9988 18.7345 21.663 19.0703 21.2488 19.0703H15.8945C15.4803 19.0703 15.1445 18.7345 15.1445 18.3203Z" fill="#000000" />
<path fill-rule="evenodd" clip-rule="evenodd" d="M18.5723 14.8945C18.9865 14.8945 19.3223 15.2303 19.3223 15.6445V20.9988C19.3223 21.413 18.9865 21.7488 18.5723 21.7488C18.1581 21.7488 17.8223 21.413 17.8223 20.9988V15.6445C17.8223 15.2303 18.1581 14.8945 18.5723 14.8945Z" fill="#000000" />
</svg>