<svg width="24px"  height="24px"  viewBox="0 0 25 24" fill="none" xmlns="http://www.w3.org/2000/svg">
<path fill-rule="evenodd" clip-rule="evenodd" d="M2.88259 10.4385C3.03877 8.58336 4.59034 7.15625 6.45299 7.15625H18.0403C19.9015 7.15625 21.4532 8.58079 21.6106 10.436L22.1447 16.7112C22.1447 16.7112 22.1447 16.7111 22.1447 16.7112C22.3757 19.4212 20.2381 21.7464 17.5193 21.7464H6.98005C4.26321 21.7464 2.12701 19.4235 2.35452 16.7161L2.88259 10.4385ZM4.37731 10.5643C4.46811 9.48599 5.37013 8.65625 6.45299 8.65625H18.0403C19.1226 8.65625 20.0245 9.48452 20.116 10.5628L20.6501 16.8385C20.8065 18.6723 19.3602 20.2464 17.5193 20.2464H6.98005C5.1411 20.2464 3.6953 18.6742 3.84924 16.8418C3.84924 16.8418 3.84925 16.8418 3.84924 16.8418L4.37731 10.5643Z" fill="#000000" />
<path fill-rule="evenodd" clip-rule="evenodd" d="M8.93164 11.2969C9.34585 11.2969 9.68164 11.6327 9.68164 12.0469C9.68164 13.4648 10.8307 14.6138 12.2486 14.6138C13.6666 14.6138 14.8156 13.4648 14.8156 12.0469C14.8156 11.6327 15.1514 11.2969 15.5656 11.2969C15.9798 11.2969 16.3156 11.6327 16.3156 12.0469C16.3156 14.2933 14.495 16.1138 12.2486 16.1138C10.0022 16.1138 8.18164 14.2933 8.18164 12.0469C8.18164 11.6327 8.51743 11.2969 8.93164 11.2969Z" fill="#000000" />
<path fill-rule="evenodd" clip-rule="evenodd" d="M12.2499 3.75C10.5286 3.75 9.13477 5.1431 9.13477 6.86511V7.90819C9.13477 8.3224 8.79898 8.65819 8.38477 8.65819C7.97055 8.65819 7.63477 8.3224 7.63477 7.90819V6.86511C7.63477 4.31442 9.70044 2.25 12.2499 2.25C14.7993 2.25 16.865 4.31442 16.865 6.86511V7.90819C16.865 8.3224 16.5292 8.65819 16.115 8.65819C15.7008 8.65819 15.365 8.3224 15.365 7.90819V6.86511C15.365 5.1431 13.9711 3.75 12.2499 3.75Z" fill="#000000" />
</svg>