<svg width="24px"  height="24px"  viewBox="0 0 25 24" fill="none" xmlns="http://www.w3.org/2000/svg">
<path d="M10.0761 16.8524C9.4034 16.8508 8.7508 16.6232 8.22305 16.2061C7.69531 15.7889 7.32306 15.2066 7.16611 14.5524L4.64609 3.89844H3.24609C3.04718 3.89844 2.85641 3.81942 2.71576 3.67877C2.57511 3.53812 2.49609 3.34735 2.49609 3.14844C2.49609 2.94953 2.57511 2.75876 2.71576 2.61811C2.85641 2.47746 3.04718 2.39844 3.24609 2.39844H5.24609C5.41505 2.39862 5.57902 2.45577 5.71149 2.56065C5.84395 2.66553 5.93718 2.81202 5.9761 2.97644L6.6011 5.62344L20.1221 5.51344C20.4142 5.51049 20.7028 5.57633 20.9647 5.70563C21.2266 5.83494 21.4544 6.02407 21.6297 6.25774C21.805 6.49141 21.9227 6.76305 21.9735 7.05069C22.0243 7.33832 22.0067 7.63387 21.9221 7.91344L20.0891 13.9134C19.904 14.5284 19.5391 15.0739 19.0413 15.4797C18.5436 15.8855 17.9357 16.133 17.2961 16.1904L10.3581 16.8334C10.2591 16.8484 10.1671 16.8524 10.0761 16.8524ZM6.95209 7.11844L8.6261 14.2064C8.71076 14.5545 8.91723 14.8609 9.20813 15.07C9.49903 15.279 9.85516 15.3771 10.2121 15.3464L17.1461 14.6984C17.4894 14.6683 17.8158 14.536 18.0832 14.3185C18.3506 14.101 18.5467 13.8084 18.6461 13.4784L20.4801 7.47244C20.497 7.41828 20.5007 7.36085 20.4908 7.30499C20.4808 7.24912 20.4576 7.19646 20.4231 7.15144C20.3894 7.10613 20.3454 7.06941 20.2949 7.04422C20.2443 7.01903 20.1886 7.00608 20.1321 7.00644L6.95209 7.11844Z" fill="#000000" />
<path d="M15.2543 11.6875H12.1133C11.9144 11.6875 11.7236 11.6085 11.5829 11.4678C11.4423 11.3272 11.3633 11.1364 11.3633 10.9375C11.3633 10.7386 11.4423 10.5478 11.5829 10.4072C11.7236 10.2665 11.9144 10.1875 12.1133 10.1875H15.2543C15.4532 10.1875 15.644 10.2665 15.7846 10.4072C15.9253 10.5478 16.0043 10.7386 16.0043 10.9375C16.0043 11.1364 15.9253 11.3272 15.7846 11.4678C15.644 11.6085 15.4532 11.6875 15.2543 11.6875Z" fill="#000000" />
<path d="M9.07765 21.5987C8.83427 21.5985 8.59641 21.5262 8.39412 21.3908C8.19184 21.2555 8.03423 21.0632 7.94118 20.8383C7.84813 20.6134 7.82383 20.366 7.87136 20.1273C7.91889 19.8886 8.03611 19.6694 8.20821 19.4973C8.38031 19.3252 8.59958 19.208 8.83827 19.1604C9.07697 19.1129 9.32438 19.1372 9.54927 19.2302C9.77417 19.3233 9.96645 19.4809 10.1018 19.6832C10.2371 19.8855 10.3095 20.1233 10.3096 20.3667C10.3094 20.6934 10.1795 21.0066 9.94853 21.2376C9.71755 21.4686 9.40432 21.5985 9.07765 21.5987Z" fill="#000000" />
<path d="M18.2886 21.5987C18.0452 21.5985 17.8073 21.5262 17.6051 21.3908C17.4028 21.2555 17.2452 21.0632 17.1521 20.8383C17.0591 20.6134 17.0348 20.366 17.0823 20.1273C17.1298 19.8886 17.247 19.6694 17.4191 19.4973C17.5912 19.3252 17.8105 19.208 18.0492 19.1604C18.2879 19.1129 18.5353 19.1372 18.7602 19.2302C18.9851 19.3233 19.1774 19.4809 19.3127 19.6832C19.4481 19.8855 19.5204 20.1233 19.5206 20.3667C19.5203 20.6934 19.3905 21.0066 19.1595 21.2376C18.9285 21.4686 18.6153 21.5985 18.2886 21.5987Z" fill="#000000" />
</svg>