<svg width="24px"  height="24px"  viewBox="0 0 25 24" fill="none" xmlns="http://www.w3.org/2000/svg">
<path fill-rule="evenodd" clip-rule="evenodd" d="M3.50661 6.65915C3.76468 4.19688 5.84112 2.32812 8.31664 2.32812H16.1773C18.6521 2.32812 20.7271 4.19599 20.9873 6.65668L21.971 15.9652C22.2932 19.0137 19.9037 21.6697 16.838 21.6697H7.66183C4.59824 21.6697 2.20889 19.016 2.52876 15.9687L3.50661 6.65915C3.5066 6.65922 3.50662 6.65909 3.50661 6.65915ZM8.31664 3.82812C6.60842 3.82812 5.17633 5.11756 4.99842 6.81565L4.02056 16.1253C4.02056 16.1253 4.02056 16.1253 4.02056 16.1253C3.79365 18.2873 5.48885 20.1697 7.66183 20.1697H16.838C19.0127 20.1697 20.7079 18.2857 20.4793 16.1229L19.4956 6.81443C19.4956 6.81441 19.4956 6.81445 19.4956 6.81443C19.3161 5.11664 17.8845 3.82812 16.1773 3.82812H8.31664Z" fill="#000000" />
<path fill-rule="evenodd" clip-rule="evenodd" d="M9.15234 6.95312C9.56656 6.95312 9.90234 7.28891 9.90234 7.70312C9.90234 8.99972 10.9534 10.0511 12.2493 10.0511C13.5464 10.0511 14.5973 8.99956 14.5973 7.70312C14.5973 7.28891 14.9331 6.95312 15.3473 6.95312C15.7615 6.95312 16.0973 7.28891 16.0973 7.70312C16.0973 9.82768 14.3752 11.5511 12.2493 11.5511C10.1243 11.5511 8.40234 9.82753 8.40234 7.70312C8.40234 7.28891 8.73813 6.95312 9.15234 6.95312Z" fill="#000000" />
</svg>