<svg width="24px"  height="24px"  viewBox="0 0 25 24" fill="none" xmlns="http://www.w3.org/2000/svg">
<path fill-rule="evenodd" clip-rule="evenodd" d="M4.3146 10.5684C3.99606 10.9872 3.81869 11.7399 4.11717 13.0252L4.12082 13.0418L5.09087 17.6946L5.09436 17.7124C5.39526 19.3535 6.54075 19.893 7.33589 19.893H17.0928C17.8879 19.893 19.0334 19.3535 19.3343 17.7124L19.3378 17.6946L20.3079 13.0418L20.3116 13.025C20.6105 11.7398 20.4331 10.9872 20.1145 10.5685C19.8012 10.1567 19.1971 9.86719 18.166 9.86719H6.2627C5.23161 9.86719 4.62781 10.1566 4.3146 10.5684ZM3.12072 9.66031C3.83011 8.72768 4.98689 8.36719 6.2627 8.36719H18.166C19.4418 8.36719 20.5988 8.72766 21.3083 9.66024C22.0112 10.5841 22.1193 11.8672 21.7746 13.3562L20.808 17.9921C20.3646 20.388 18.5589 21.393 17.0928 21.393H7.33589C5.86979 21.393 4.06411 20.388 3.62066 17.9921L2.65409 13.3561C2.30986 11.8672 2.41801 10.5842 3.12072 9.66031Z" fill="#000000" />
<path fill-rule="evenodd" clip-rule="evenodd" d="M10.1097 3.64963C11.1677 2.25742 13.262 2.25742 14.3201 3.64963L14.3201 3.64965L18.0991 8.62249C18.3498 8.95228 18.2856 9.4228 17.9558 9.67342C17.626 9.92404 17.1555 9.85985 16.9048 9.53006L13.1259 4.55725C13.1259 4.55724 13.1258 4.55723 13.1258 4.55722C12.668 3.95488 11.7617 3.95488 11.3039 4.55722C11.3039 4.55723 11.3039 4.55724 11.3039 4.55725L7.52492 9.53006C7.2743 9.85985 6.80378 9.92404 6.47399 9.67342C6.1442 9.4228 6.08001 8.95228 6.33063 8.62249L10.1096 3.64965L10.1097 3.64963Z" fill="#000000" />
<path fill-rule="evenodd" clip-rule="evenodd" d="M12.2137 14.0078C11.7264 14.0078 11.332 14.4023 11.332 14.8885C11.332 15.3747 11.7264 15.7692 12.2137 15.7692C12.6998 15.7692 13.0944 15.375 13.0944 14.8885C13.0944 14.402 12.6998 14.0078 12.2137 14.0078ZM9.83203 14.8885C9.83203 13.5727 10.8991 12.5078 12.2137 12.5078C13.5276 12.5078 14.5944 13.573 14.5944 14.8885C14.5944 16.204 13.5276 17.2692 12.2137 17.2692C10.8991 17.2692 9.83203 16.2043 9.83203 14.8885Z" fill="#000000" />
</svg>