<svg width="24px"  height="24px"  viewBox="0 0 25 24" fill="none" xmlns="http://www.w3.org/2000/svg">
<path d="M16.1109 21.7314H8.29392C6.27192 21.7314 4.86093 21.2314 3.98093 20.2124C3.10093 19.1934 2.80394 17.6564 3.10294 15.6594L3.82993 10.0184C4.30893 7.39938 6.0799 6.48438 7.4539 6.48438H16.9839C18.3609 6.48438 20.0339 7.39538 20.5969 9.95338L21.3369 15.6744C21.5469 16.4368 21.5659 17.2392 21.3922 18.0107C21.2184 18.7822 20.8573 19.4991 20.3407 20.0978C19.8241 20.6966 19.1679 21.1589 18.4302 21.4438C17.6924 21.7287 16.8959 21.8275 16.1109 21.7314ZM7.45792 7.98238C7.05292 7.98238 5.69992 8.14538 5.31492 10.2474L4.59293 15.8644C4.4388 16.4313 4.40625 17.0245 4.49741 17.6049C4.58858 18.1854 4.8014 18.74 5.12193 19.2324C5.69993 19.9034 6.73889 20.2324 8.29789 20.2324H16.1109C16.6769 20.2731 17.245 20.1949 17.7789 20.0029C18.3128 19.8109 18.8006 19.5092 19.2109 19.1174C19.5466 18.6562 19.7783 18.1277 19.8898 17.5683C20.0013 17.0089 19.9901 16.432 19.8569 15.8774L19.1259 10.2104C18.8259 8.84037 18.0199 7.98438 16.9899 7.98438L7.45792 7.98238Z" fill="#000000" />
<path d="M16.2654 7.77937C16.0665 7.77937 15.8757 7.70036 15.735 7.55971C15.5944 7.41906 15.5154 7.22829 15.5154 7.02937C15.5141 6.15503 15.1658 5.31695 14.5471 4.69916C13.9283 4.08137 13.0897 3.73437 12.2154 3.73438H12.2004C11.3284 3.73436 10.4919 4.07943 9.8736 4.6942C9.25527 5.30897 8.90541 6.14346 8.90039 7.01537C8.89988 7.21468 8.82085 7.40577 8.68048 7.54726C8.54011 7.68876 8.34969 7.76927 8.15039 7.77138C8.05248 7.77204 7.9554 7.75334 7.86475 7.71635C7.77409 7.67937 7.69164 7.62484 7.62213 7.55589C7.55262 7.48693 7.49737 7.40492 7.45966 7.31456C7.42195 7.2242 7.40247 7.12728 7.40234 7.02937C7.40367 5.75824 7.90919 4.53953 8.80792 3.64061C9.70666 2.74169 10.9252 2.23596 12.1964 2.23438H12.2184C13.4893 2.23623 14.7077 2.74208 15.6062 3.64097C16.5047 4.53986 17.01 5.75841 17.0114 7.02937C17.0114 7.22759 16.9329 7.41776 16.7931 7.5583C16.6533 7.69883 16.4636 7.77832 16.2654 7.77937Z" fill="#000000" />
<path d="M8.74219 11.6797C8.74414 12.2051 8.86523 12.7168 9.08984 13.1797C9.25781 13.5234 9.48438 13.8398 9.75977 14.1152C10.4082 14.7617 11.2852 15.125 12.2148 15.127C12.2715 15.127 12.3301 15.127 12.3867 15.123C13.2344 15.0801 14.041 14.7266 14.6465 14.127C14.6523 14.1211 14.6562 14.1172 14.6621 14.1113C15.3125 13.4629 15.6777 12.582 15.6777 11.6641C15.6777 11.4648 15.5996 11.2734 15.459 11.1328C15.3184 10.9922 15.127 10.9141 14.9277 10.9141C14.8184 10.9141 14.7109 10.9375 14.6133 10.9824C14.5332 11.0195 14.4609 11.0703 14.3984 11.1328C14.2578 11.2734 14.1777 11.4648 14.1777 11.6641C14.1777 11.8926 14.1387 12.1152 14.0625 12.3262C13.9648 12.5957 13.8066 12.8457 13.5996 13.0527C13.416 13.2363 13.2031 13.3789 12.9668 13.4766C12.7305 13.5742 12.4707 13.627 12.2109 13.627C12.1934 13.627 12.1777 13.627 12.1621 13.627C11.9141 13.6211 11.6758 13.5703 11.4531 13.4766C11.2168 13.3789 11.002 13.2344 10.8164 13.0508C10.7012 12.9355 10.6016 12.8047 10.5176 12.666C10.3477 12.3789 10.25 12.0508 10.2422 11.7129C10.2422 11.6973 10.2422 11.6797 10.2422 11.6641C10.2422 11.4648 10.1621 11.2734 10.0215 11.1328C9.88086 10.9922 9.69141 10.9141 9.49219 10.9141C9.42578 10.9141 9.35938 10.9219 9.29688 10.9395C9.16992 10.9727 9.05469 11.0391 8.96094 11.1328C8.82031 11.2734 8.74219 11.4648 8.74219 11.6797Z" fill="#000000" />
</svg>