<svg width="24px"  height="24px"  viewBox="0 0 25 24" fill="none" xmlns="http://www.w3.org/2000/svg">
<path d="M7.95009 17.1211C7.32295 17.1174 6.71986 16.8794 6.25917 16.4539C5.79849 16.0283 5.51348 15.446 5.4601 14.8211L4.57106 4.2361L3.11806 3.9851C3.02101 3.96829 2.92828 3.93253 2.84505 3.87986C2.76182 3.82719 2.68975 3.75865 2.63302 3.67814C2.57628 3.59763 2.53597 3.50674 2.51436 3.41064C2.49275 3.31455 2.49029 3.21514 2.5071 3.1181C2.52391 3.02105 2.55966 2.92826 2.61232 2.84504C2.66499 2.76181 2.73354 2.68977 2.81405 2.63304C2.89455 2.5763 2.98547 2.53598 3.08156 2.51437C3.17765 2.49276 3.27706 2.49029 3.3741 2.5071L5.39809 2.8571C5.56164 2.88553 5.71112 2.96741 5.82314 3.08993C5.93516 3.21244 6.0034 3.36866 6.01711 3.5341L6.25008 6.2441C20.1261 6.2441 20.1691 6.2551 20.2391 6.2651C20.7786 6.34305 21.2651 6.63208 21.5916 7.06863C21.9181 7.50519 22.0578 8.05353 21.9801 8.5931L21.0561 14.9741C20.969 15.569 20.6712 16.1129 20.217 16.5069C19.7628 16.9009 19.1823 17.1188 18.5811 17.1211H7.95009ZM6.37105 7.7451L6.95406 14.7001C6.97577 14.9507 7.09044 15.1841 7.27547 15.3546C7.4605 15.525 7.70251 15.62 7.95406 15.6211H18.5761C18.8175 15.6215 19.051 15.5346 19.2333 15.3763C19.4156 15.2181 19.5345 14.9992 19.5681 14.7601L20.4921 8.3781C20.5036 8.30638 20.5007 8.23309 20.4835 8.16252C20.4663 8.09195 20.4353 8.02551 20.3921 7.9671C20.3484 7.90863 20.2935 7.85937 20.2307 7.82213C20.1679 7.78489 20.0984 7.76041 20.0261 7.7501L6.37105 7.7451Z" fill="#000000" />
<path d="M7.53569 21.5011C8.21555 21.5011 8.76669 20.9499 8.76669 20.2701C8.76669 19.5902 8.21555 19.0391 7.53569 19.0391C6.85582 19.0391 6.30469 19.5902 6.30469 20.2701C6.30469 20.9499 6.85582 21.5011 7.53569 21.5011Z" fill="#000000" />
<path d="M18.5591 21.5011C19.239 21.5011 19.7901 20.9499 19.7901 20.2701C19.7901 19.5902 19.239 19.0391 18.5591 19.0391C17.8793 19.0391 17.3281 19.5902 17.3281 20.2701C17.3281 20.9499 17.8793 21.5011 18.5591 21.5011Z" fill="#000000" />
</svg>