<svg width="24px"  height="24px"  viewBox="0 0 25 24" fill="none" xmlns="http://www.w3.org/2000/svg">
<path fill-rule="evenodd" clip-rule="evenodd" d="M3.92165 3.79889C4.86216 2.78996 6.20072 2.22656 7.77831 2.22656H15.7646C17.3456 2.22656 18.6848 2.78966 19.6249 3.79914C20.5595 4.80261 21.0439 6.18624 21.0439 7.73547V10.6544C21.0439 11.0687 20.7081 11.4044 20.2939 11.4044C19.8797 11.4044 19.5439 11.0687 19.5439 10.6544V7.73547C19.5439 6.4961 19.1595 5.50028 18.5272 4.82144C17.9006 4.14862 16.9751 3.72656 15.7646 3.72656H7.77831C6.57216 3.72656 5.64657 4.14832 5.01886 4.82169C4.3857 5.50092 4 6.49687 4 7.73547V15.2606C4 16.5002 4.38411 17.4963 5.01601 18.1753C5.64223 18.8482 6.56738 19.2705 7.77831 19.2705H11.1575C11.5717 19.2705 11.9075 19.6063 11.9075 20.0205C11.9075 20.4347 11.5717 20.7705 11.1575 20.7705H7.77831C6.19674 20.7705 4.85774 20.2071 3.91794 19.1972C2.9838 18.1934 2.5 16.8096 2.5 15.2606V7.73547C2.5 6.18547 2.98659 4.80197 3.92165 3.79889Z" fill="#000000" />
<path fill-rule="evenodd" clip-rule="evenodd" d="M8.38281 7.73438C8.79703 7.73438 9.13281 8.07016 9.13281 8.48438C9.13281 9.94192 10.3146 11.1233 11.7727 11.1233C13.2297 11.1233 14.4117 9.94206 14.4117 8.48438C14.4117 8.07016 14.7474 7.73438 15.1617 7.73438C15.5759 7.73438 15.9117 8.07016 15.9117 8.48438C15.9117 10.7708 14.0579 12.6233 11.7727 12.6233C9.48675 12.6233 7.63281 10.7709 7.63281 8.48438C7.63281 8.07016 7.9686 7.73438 8.38281 7.73438Z" fill="#000000" />
<path fill-rule="evenodd" clip-rule="evenodd" d="M17.5479 14.3711C15.9168 14.3711 14.5957 15.6924 14.5957 17.3224C14.5957 18.9523 15.9168 20.2736 17.5479 20.2736C19.178 20.2736 20.4992 18.9524 20.4992 17.3224C20.4992 15.6923 19.178 14.3711 17.5479 14.3711ZM13.0957 17.3224C13.0957 14.8638 15.0886 12.8711 17.5479 12.8711C20.0064 12.8711 21.9992 14.8639 21.9992 17.3224C21.9992 19.7808 20.0064 21.7736 17.5479 21.7736C15.0886 21.7736 13.0957 19.781 13.0957 17.3224Z" fill="#000000" />
<path fill-rule="evenodd" clip-rule="evenodd" d="M21.2228 14.8447C21.5157 15.1376 21.5157 15.6124 21.2228 15.9053L18.3281 18.8C18.0353 19.0928 17.5606 19.0929 17.2677 18.8002L15.923 17.4565C15.63 17.1637 15.6298 16.6888 15.9226 16.3958C16.2154 16.1028 16.6903 16.1026 16.9833 16.3954L17.7976 17.2092L20.1621 14.8447C20.455 14.5518 20.9299 14.5518 21.2228 14.8447Z" fill="#000000" />
</svg>