<svg width="24px"  height="24px"  viewBox="0 0 25 24" fill="none" xmlns="http://www.w3.org/2000/svg">
<path fill-rule="evenodd" clip-rule="evenodd" d="M4.34823 7.70304C5.29421 6.68815 6.64067 6.12109 8.22793 6.12109H16.2699C17.8606 6.12109 19.2076 6.68785 20.1532 7.7033C21.0932 8.71272 21.5808 10.1047 21.5808 11.6636V16.206C21.5808 17.7653 21.0933 19.1574 20.153 20.1668C19.2072 21.1821 17.8599 21.7485 16.2689 21.7485H8.22793C6.63691 21.7485 5.29001 21.1821 4.34463 20.1666C3.4049 19.1571 2.91797 17.7651 2.91797 16.206V11.6636C2.91797 10.1039 3.4077 8.71208 4.34823 7.70304ZM5.44549 8.7258C4.80676 9.41106 4.41797 10.4154 4.41797 11.6636V16.206C4.41797 17.4557 4.80518 18.4599 5.44252 19.1445C6.07421 19.8231 7.00728 20.2485 8.22793 20.2485H16.2689C17.4896 20.2485 18.4233 19.823 19.0555 19.1443C19.6933 18.4597 20.0808 17.4555 20.0808 16.206V11.6636C20.0808 10.4147 19.6933 9.41042 19.0555 8.72554C18.4233 8.04669 17.4899 7.62109 16.2699 7.62109H8.22793C7.01228 7.62109 6.07876 8.04639 5.44549 8.7258Z" fill="#000000" />
<path fill-rule="evenodd" clip-rule="evenodd" d="M15.4529 10.3993C15.8645 10.4455 16.1607 10.8167 16.1144 11.2283C15.8962 13.1706 14.2523 14.6781 12.252 14.6781C11.1807 14.6781 10.2072 14.2393 9.49969 13.5449L9.4889 13.5341C8.90017 12.9323 8.48151 12.1293 8.38871 11.2208C8.34661 10.8087 8.64654 10.4406 9.05861 10.3985C9.47068 10.3564 9.83885 10.6563 9.88094 11.0684C9.93576 11.605 10.1843 12.0977 10.5558 12.4797C10.9997 12.9127 11.6 13.1781 12.252 13.1781C13.4797 13.1781 14.4899 12.2532 14.6238 11.0609C14.6701 10.6492 15.0413 10.353 15.4529 10.3993Z" fill="#000000" />
<path fill-rule="evenodd" clip-rule="evenodd" d="M7.62891 6.87115C7.62891 4.31973 9.69717 2.25 12.2491 2.25C14.8018 2.25 16.8702 4.31961 16.8702 6.87115C16.8702 7.28537 16.5345 7.62115 16.1202 7.62115C15.706 7.62115 15.3702 7.28537 15.3702 6.87115C15.3702 5.14779 13.9732 3.75 12.2491 3.75C10.5261 3.75 9.12891 5.14767 9.12891 6.87115C9.12891 7.28537 8.79312 7.62115 8.37891 7.62115C7.96469 7.62115 7.62891 7.28537 7.62891 6.87115Z" fill="#000000" />
</svg>