<svg width="24px"  height="24px"  viewBox="0 0 25 24" fill="none" xmlns="http://www.w3.org/2000/svg">
<path d="M10.0761 16.8524C9.40357 16.8506 8.75121 16.6229 8.22366 16.2058C7.69612 15.7886 7.324 15.2064 7.16708 14.5524L4.64609 3.89844H3.24609C3.04718 3.89844 2.85641 3.81942 2.71576 3.67877C2.57511 3.53812 2.49609 3.34735 2.49609 3.14844C2.49609 2.94953 2.57511 2.75876 2.71576 2.61811C2.85641 2.47746 3.04718 2.39844 3.24609 2.39844H5.24609C5.41505 2.39862 5.57902 2.45577 5.71149 2.56065C5.84395 2.66553 5.93718 2.81202 5.9761 2.97644L8.62909 14.2084C8.71375 14.5565 8.92022 14.8629 9.21112 15.072C9.50202 15.281 9.85815 15.3791 10.2151 15.3484L17.1461 14.6984C17.4894 14.6682 17.8157 14.5358 18.0831 14.3183C18.3505 14.1009 18.5465 13.8084 18.6461 13.4784L20.4791 7.47244C20.4957 7.41867 20.4994 7.36177 20.49 7.3063C20.4806 7.25084 20.4583 7.19834 20.425 7.15303C20.3916 7.10772 20.3481 7.07086 20.298 7.0454C20.2478 7.01995 20.1924 7.0066 20.1361 7.00644L17.3141 7.11944C17.2154 7.12468 17.1167 7.11011 17.0238 7.07659C16.9308 7.04307 16.8455 6.99127 16.7729 6.92426C16.7003 6.85725 16.6419 6.77637 16.601 6.68641C16.5602 6.59644 16.5378 6.49921 16.5351 6.40044C16.5272 6.20172 16.5985 6.008 16.7333 5.86177C16.8681 5.71555 17.0554 5.62876 17.2541 5.62044L20.0991 5.50744C20.3939 5.50832 20.6846 5.57589 20.9496 5.70508C21.2145 5.83427 21.4469 6.02174 21.6291 6.25344C21.8053 6.48687 21.9235 6.75886 21.9739 7.04696C22.0244 7.33507 22.0056 7.63103 21.9191 7.91044L20.0861 13.9104C19.9001 14.5262 19.534 15.0721 19.0349 15.4779C18.5359 15.8837 17.9268 16.1309 17.2861 16.1874L10.3491 16.8304C10.2591 16.8484 10.1671 16.8524 10.0761 16.8524Z" fill="#000000" />
<path d="M15.6992 12.3432H14.3992C13.5511 12.3414 12.7382 12.0036 12.1385 11.4039C11.5388 10.8042 11.2011 9.99134 11.1992 9.14322V5.57422C11.1992 5.37531 11.2782 5.18454 11.4189 5.04389C11.5595 4.90324 11.7503 4.82422 11.9492 4.82422C12.1481 4.82422 12.3389 4.90324 12.4796 5.04389C12.6202 5.18454 12.6992 5.37531 12.6992 5.57422V9.13922C12.7005 9.58968 12.8801 10.0213 13.1986 10.3398C13.5171 10.6584 13.9488 10.8379 14.3992 10.8392H15.6992C15.8981 10.8392 16.0889 10.9182 16.2296 11.0589C16.3702 11.1995 16.4492 11.3903 16.4492 11.5892C16.4492 11.7881 16.3702 11.9789 16.2296 12.1195C16.0889 12.2602 15.8981 12.3392 15.6992 12.3392V12.3432Z" fill="#000000" />
<path d="M10.0472 8.13328C9.89887 8.13335 9.75388 8.08943 9.63051 8.00709C9.50714 7.92475 9.41095 7.80767 9.35411 7.67067C9.29728 7.53366 9.28235 7.38288 9.3112 7.23739C9.34006 7.0919 9.41141 6.95823 9.51622 6.85328L11.4162 4.95828C11.4858 4.88857 11.5684 4.83326 11.6593 4.79551C11.7503 4.75776 11.8477 4.73831 11.9462 4.73828C12.0447 4.7382 12.1422 4.7576 12.2332 4.79536C12.3241 4.83311 12.4067 4.88848 12.4762 4.95828L14.3702 6.85328C14.5067 6.9948 14.5823 7.18428 14.5805 7.38093C14.5787 7.57758 14.4997 7.76565 14.3606 7.90464C14.2215 8.04364 14.0333 8.12242 13.8367 8.12404C13.64 8.12565 13.4506 8.04997 13.3092 7.91328L11.9472 6.54928L10.5832 7.91328C10.5131 7.98385 10.4295 8.03966 10.3374 8.07744C10.2454 8.11523 10.1467 8.13421 10.0472 8.13328Z" fill="#000000" />
<path d="M9.10991 21.5987C9.78977 21.5987 10.3409 21.0476 10.3409 20.3677C10.3409 19.6879 9.78977 19.1367 9.10991 19.1367C8.43004 19.1367 7.87891 19.6879 7.87891 20.3677C7.87891 21.0476 8.43004 21.5987 9.10991 21.5987Z" fill="#000000" />
<path d="M18.3208 21.5987C19.0007 21.5987 19.5518 21.0476 19.5518 20.3677C19.5518 19.6879 19.0007 19.1367 18.3208 19.1367C17.641 19.1367 17.0898 19.6879 17.0898 20.3677C17.0898 21.0476 17.641 21.5987 18.3208 21.5987Z" fill="#000000" />
</svg>