<svg width="24px"  height="24px"  viewBox="0 0 25 24" fill="none" xmlns="http://www.w3.org/2000/svg">
<path fill-rule="evenodd" clip-rule="evenodd" d="M5.35945 10.2462L4.63338 15.8822L4.63124 15.8975C4.33677 17.8622 4.73829 18.8672 5.31662 19.4103C5.93362 19.9896 6.95606 20.2473 8.33867 20.2473H16.1551C17.4768 20.2473 18.502 19.8989 19.138 19.2539C19.7538 18.6292 20.1382 17.589 19.8949 15.8929L19.8933 15.8821L19.8934 15.8821L19.1701 10.2598C18.7777 8.52936 17.7833 8 17.0287 8H7.49807C7.08599 8 6.63969 8.14032 6.25768 8.47379C5.88133 8.80232 5.52663 9.35481 5.35945 10.2462ZM5.27124 7.34378C5.94217 6.75809 6.7446 6.5 7.49807 6.5H17.0287C18.6358 6.5 20.1362 7.67653 20.6419 9.96821C20.6467 9.99 20.6506 10.012 20.6534 10.0341L21.3805 15.6853C21.6668 17.6895 21.2455 19.2528 20.2061 20.307C19.1859 21.3417 17.7044 21.7473 16.1551 21.7473H8.33867C6.85118 21.7473 5.33626 21.4864 4.28982 20.5037C3.20598 19.486 2.81762 17.8881 3.14665 15.683L3.87439 10.034C3.8761 10.0208 3.87816 10.0076 3.88057 9.99442C4.09725 8.81399 4.59732 7.93208 5.27124 7.34378Z" fill="#000000" />
<path fill-rule="evenodd" clip-rule="evenodd" d="M7.44532 7.02464C7.45685 4.37612 9.61263 2.23939 12.2598 2.25004C14.9082 2.25092 17.0536 4.39806 17.0536 7.04542C17.0536 7.45963 16.7178 7.79542 16.3036 7.79542C15.8894 7.79542 15.5536 7.45963 15.5536 7.04542C15.5536 5.2257 14.0787 3.75004 12.2582 3.75004H12.2549C10.4358 3.74212 8.95407 5.20983 8.94531 7.02963V7.04542C8.94531 7.45963 8.60953 7.79542 8.19531 7.79542C7.7811 7.79542 7.44531 7.45963 7.44531 7.04542L7.44532 7.02464Z" fill="#000000" />
<path fill-rule="evenodd" clip-rule="evenodd" d="M10.1881 11.1139C10.5998 11.1589 10.8971 11.5291 10.8521 11.9409L10.3511 16.5263C10.3061 16.938 9.93583 17.2353 9.52406 17.1904C9.1123 17.1454 8.81498 16.7751 8.85997 16.3633L9.36102 11.778C9.40602 11.3662 9.77629 11.0689 10.1881 11.1139Z" fill="#000000" />
<path fill-rule="evenodd" clip-rule="evenodd" d="M14.3112 11.1139C14.7229 11.0689 15.0932 11.3662 15.1382 11.778L15.6393 16.3633C15.6843 16.7751 15.3869 17.1454 14.9752 17.1904C14.5634 17.2353 14.1931 16.938 14.1481 16.5263L13.6471 11.9409C13.6021 11.5291 13.8994 11.1589 14.3112 11.1139Z" fill="#000000" />
</svg>