<svg width="24px"  height="24px"  viewBox="0 0 25 24" fill="none" xmlns="http://www.w3.org/2000/svg">
<path d="M7.95 17.1181C7.32276 17.1144 6.71953 16.8765 6.25868 16.4509C5.79783 16.0254 5.51261 15.4431 5.459 14.8181L4.575 4.2361L3.122 3.9851C3.02496 3.96829 2.93217 3.93252 2.84894 3.87986C2.76572 3.82719 2.69368 3.75864 2.63694 3.67814C2.58021 3.59763 2.53988 3.50673 2.51827 3.41064C2.49666 3.31455 2.49419 3.21514 2.511 3.11809C2.52781 3.02105 2.56357 2.92826 2.61624 2.84504C2.66891 2.76181 2.73745 2.68977 2.81796 2.63304C2.89847 2.5763 2.98936 2.53597 3.08546 2.51436C3.18155 2.49275 3.28096 2.49029 3.378 2.5071L5.402 2.8571C5.56556 2.88553 5.71506 2.96741 5.82707 3.08992C5.93909 3.21244 6.0073 3.36865 6.021 3.53409L6.25 6.24109C20.125 6.24609 20.168 6.2521 20.238 6.2621C20.5053 6.30045 20.7624 6.39111 20.9946 6.52889C21.2269 6.66667 21.4297 6.84886 21.5915 7.06507C21.7533 7.28127 21.8708 7.52724 21.9375 7.78891C22.0042 8.05059 22.0186 8.32283 21.98 8.59009L21.056 14.9711C20.9685 15.5658 20.6706 16.1095 20.2165 16.5034C19.7624 16.8973 19.1821 17.1154 18.581 17.1181H7.95ZM6.375 7.74209L6.958 14.7001C6.9756 14.9523 7.08899 15.1881 7.27492 15.3594C7.46085 15.5306 7.70525 15.6243 7.958 15.6211H18.578C18.8189 15.62 19.0514 15.5325 19.2333 15.3745C19.4152 15.2165 19.5343 14.9985 19.569 14.7601L20.493 8.37809C20.5035 8.30606 20.4996 8.23267 20.4817 8.16211C20.4638 8.09156 20.4322 8.02523 20.3886 7.96691C20.3451 7.90859 20.2905 7.85942 20.2279 7.82222C20.1653 7.78502 20.096 7.76051 20.024 7.7501C19.821 7.7481 11.407 7.74409 6.375 7.74209Z" fill="#000000" />
<path d="M13.3047 13.8705C13.1058 13.8705 12.915 13.7915 12.7744 13.6508C12.6337 13.5102 12.5547 13.3194 12.5547 13.1205V9.98047C12.5547 9.78156 12.6337 9.59079 12.7744 9.45014C12.915 9.30949 13.1058 9.23047 13.3047 9.23047C13.5036 9.23047 13.6944 9.30949 13.835 9.45014C13.9757 9.59079 14.0547 9.78156 14.0547 9.98047V13.1205C14.0547 13.3194 13.9757 13.5102 13.835 13.6508C13.6944 13.7915 13.5036 13.8705 13.3047 13.8705Z" fill="#000000" />
<path d="M14.8754 12.3008H11.7344C11.5355 12.3008 11.3447 12.2218 11.204 12.0811C11.0634 11.9405 10.9844 11.7497 10.9844 11.5508C10.9844 11.3519 11.0634 11.1611 11.204 11.0204C11.3447 10.8798 11.5355 10.8008 11.7344 10.8008H14.8754C15.0743 10.8008 15.2651 10.8798 15.4057 11.0204C15.5464 11.1611 15.6254 11.3519 15.6254 11.5508C15.6254 11.7497 15.5464 11.9405 15.4057 12.0811C15.2651 12.2218 15.0743 12.3008 14.8754 12.3008Z" fill="#000000" />
<path d="M7.53569 21.5011C8.21555 21.5011 8.76669 20.9499 8.76669 20.2701C8.76669 19.5902 8.21555 19.0391 7.53569 19.0391C6.85582 19.0391 6.30469 19.5902 6.30469 20.2701C6.30469 20.9499 6.85582 21.5011 7.53569 21.5011Z" fill="#000000" />
<path d="M18.5591 21.5011C19.239 21.5011 19.7901 20.9499 19.7901 20.2701C19.7901 19.5902 19.239 19.0391 18.5591 19.0391C17.8793 19.0391 17.3281 19.5902 17.3281 20.2701C17.3281 20.9499 17.8793 21.5011 18.5591 21.5011Z" fill="#000000" />
</svg>