<svg width="24px"  height="24px"  viewBox="0 0 25 24" fill="none" xmlns="http://www.w3.org/2000/svg">
<path fill-rule="evenodd" clip-rule="evenodd" d="M2.53906 11.875C2.53906 11.4608 2.87485 11.125 3.28906 11.125H21.1394C21.5536 11.125 21.8894 11.4608 21.8894 11.875C21.8894 12.2892 21.5536 12.625 21.1394 12.625H3.28906C2.87485 12.625 2.53906 12.2892 2.53906 11.875Z" fill="#000000" />
<path fill-rule="evenodd" clip-rule="evenodd" d="M9.5 15.4609C9.5 15.0467 9.83579 14.7109 10.25 14.7109H14.1779C14.5921 14.7109 14.9279 15.0467 14.9279 15.4609C14.9279 15.8752 14.5921 16.2109 14.1779 16.2109H10.25C9.83579 16.2109 9.5 15.8752 9.5 15.4609Z" fill="#000000" />
<path fill-rule="evenodd" clip-rule="evenodd" d="M3.23581 8.46047C3.91532 7.53602 4.97359 7.02734 6.18136 7.02734H18.2473C19.4551 7.02734 20.5133 7.53603 21.193 8.46041C21.8658 9.37555 22.1106 10.6175 21.8798 12.0009L21.879 12.0056L20.9018 17.6444C20.4594 20.0574 18.6434 21.0701 17.1693 21.0701H7.2604C5.78542 21.0701 3.96931 20.0575 3.52688 17.6444L3.52554 17.6371L2.54992 12.0012C2.31852 10.6177 2.56308 9.37571 3.23581 8.46047ZM4.02904 11.7517C4.02916 11.7524 4.02927 11.7531 4.02938 11.7538L5.00294 17.3774C5.3068 19.0266 6.45917 19.5701 7.2604 19.5701H17.1693C17.9694 19.5701 19.1219 19.0268 19.4258 17.3774L20.4002 11.7541C20.4004 11.7533 20.4005 11.7526 20.4006 11.7519C20.5797 10.6758 20.3663 9.86834 19.9844 9.34893C19.6091 8.8384 19.0157 8.52734 18.2473 8.52734H6.18136C5.41301 8.52734 4.81964 8.83841 4.44444 9.34886C4.0627 9.8682 3.84949 10.6756 4.02904 11.7517Z" fill="#000000" />
<path fill-rule="evenodd" clip-rule="evenodd" d="M9.83851 3.01504C10.2057 3.20679 10.3479 3.65987 10.1561 4.02703L8.02042 8.11648C7.82868 8.48364 7.37559 8.62584 7.00843 8.43409C6.64127 8.24234 6.49907 7.78926 6.69082 7.4221L8.82652 3.33265C9.01827 2.96549 9.47135 2.82329 9.83851 3.01504Z" fill="#000000" />
<path fill-rule="evenodd" clip-rule="evenodd" d="M14.5866 3.01504C14.9537 2.82329 15.4068 2.96549 15.5985 3.33265L17.7342 7.4221C17.926 7.78926 17.7838 8.24234 17.4166 8.43409C17.0495 8.62584 16.5964 8.48364 16.4046 8.11648L14.2689 4.02703C14.0772 3.65987 14.2194 3.20679 14.5866 3.01504Z" fill="#000000" />
</svg>