<svg width="24px"  height="24px"  viewBox="0 0 25 24" fill="none" xmlns="http://www.w3.org/2000/svg">
<path fill-rule="evenodd" clip-rule="evenodd" d="M17.2644 11.9459C17.6655 12.0495 17.9065 12.4587 17.8029 12.8597L16.8552 16.5268C16.7516 16.9279 16.3425 17.169 15.9414 17.0653C15.5404 16.9617 15.2993 16.5526 15.4029 16.1515L16.3506 12.4844C16.4543 12.0834 16.8634 11.8423 17.2644 11.9459Z" fill="#000000" />
<path fill-rule="evenodd" clip-rule="evenodd" d="M12.2676 11.9219C12.6818 11.9219 13.0176 12.2577 13.0176 12.6719V16.339C13.0176 16.7532 12.6818 17.089 12.2676 17.089C11.8534 17.089 11.5176 16.7532 11.5176 16.339V12.6719C11.5176 12.2577 11.8534 11.9219 12.2676 11.9219Z" fill="#000000" />
<path fill-rule="evenodd" clip-rule="evenodd" d="M7.27151 11.9459C7.67255 11.8423 8.08167 12.0834 8.18531 12.4844L9.13298 16.1515C9.23662 16.5526 8.99553 16.9617 8.59449 17.0653C8.19345 17.169 7.78433 16.9279 7.68069 16.5268L6.73302 12.8597C6.62938 12.4587 6.87047 12.0495 7.27151 11.9459Z" fill="#000000" />
<path fill-rule="evenodd" clip-rule="evenodd" d="M4.3146 10.1973C3.99606 10.6161 3.81869 11.3688 4.11717 12.6541L4.12082 12.6707L5.09087 17.3235L5.09436 17.3413C5.39526 18.9824 6.54075 19.5219 7.33589 19.5219H17.0928C17.8879 19.5219 19.0334 18.9824 19.3343 17.3413L19.3378 17.3235L20.3079 12.6707L20.3116 12.6539C20.6105 11.3687 20.4331 10.6161 20.1145 10.1974C19.8012 9.78557 19.1971 9.49609 18.166 9.49609H6.2627C5.23161 9.49609 4.62781 9.78555 4.3146 10.1973ZM3.12072 9.28921C3.83011 8.35658 4.98689 7.99609 6.2627 7.99609H18.166C19.4418 7.99609 20.5988 8.35656 21.3083 9.28914C22.0112 10.213 22.1193 11.4961 21.7746 12.9851L20.808 17.621C20.3646 20.0169 18.5589 21.0219 17.0928 21.0219H7.33589C5.86979 21.0219 4.06411 20.0169 3.62066 17.621L2.65409 12.985C2.30986 11.4961 2.41801 10.2131 3.12072 9.28921Z" fill="#000000" />
<path fill-rule="evenodd" clip-rule="evenodd" d="M11.1606 3.12946C11.4904 3.38008 11.5545 3.8506 11.3039 4.18039L7.52492 9.15323C7.2743 9.48302 6.80378 9.5472 6.47399 9.29658C6.1442 9.04596 6.08001 8.57545 6.33063 8.24566L10.1096 3.27282C10.3603 2.94302 10.8308 2.87884 11.1606 3.12946Z" fill="#000000" />
<path fill-rule="evenodd" clip-rule="evenodd" d="M13.2689 3.12946C13.5987 2.87884 14.0692 2.94302 14.3198 3.27282L18.0988 8.24566C18.3495 8.57545 18.2853 9.04596 17.9555 9.29658C17.6257 9.5472 17.1552 9.48302 16.9046 9.15323L13.1256 4.18039C12.8749 3.8506 12.9391 3.38008 13.2689 3.12946Z" fill="#000000" />
</svg>