<svg width="24px"  height="24px"  viewBox="0 0 25 24" fill="none" xmlns="http://www.w3.org/2000/svg">
<path fill-rule="evenodd" clip-rule="evenodd" d="M16.1523 12.3008C16.5666 12.3008 16.9023 12.6366 16.9023 13.0508V16.7179C16.9023 17.1321 16.5666 17.4679 16.1523 17.4679C15.7381 17.4679 15.4023 17.1321 15.4023 16.7179V13.0508C15.4023 12.6366 15.7381 12.3008 16.1523 12.3008Z" fill="#000000" />
<path fill-rule="evenodd" clip-rule="evenodd" d="M12.293 12.3008C12.7072 12.3008 13.043 12.6366 13.043 13.0508V16.7179C13.043 17.1321 12.7072 17.4679 12.293 17.4679C11.8788 17.4679 11.543 17.1321 11.543 16.7179V13.0508C11.543 12.6366 11.8788 12.3008 12.293 12.3008Z" fill="#000000" />
<path fill-rule="evenodd" clip-rule="evenodd" d="M8.43164 12.3008C8.84585 12.3008 9.18164 12.6366 9.18164 13.0508V16.7179C9.18164 17.1321 8.84585 17.4679 8.43164 17.4679C8.01743 17.4679 7.68164 17.1321 7.68164 16.7179V13.0508C7.68164 12.6366 8.01743 12.3008 8.43164 12.3008Z" fill="#000000" />
<path fill-rule="evenodd" clip-rule="evenodd" d="M4.31484 10.5685C3.99617 10.9873 3.81864 11.7401 4.11709 13.0253L4.12075 13.0418L5.0908 17.6946L5.09429 17.7124C5.39519 19.3535 6.54069 19.893 7.33583 19.893H17.0928C17.8879 19.893 19.0334 19.3535 19.3343 17.7124L19.3378 17.6946L20.3079 13.0418L20.3116 13.025C20.6105 11.7398 20.4331 10.9872 20.1145 10.5685C19.8012 10.1567 19.1971 9.86719 18.166 9.86719H6.26264C5.23212 9.86719 4.62821 10.1566 4.31484 10.5685ZM3.12106 9.66024C3.83053 8.72773 4.98721 8.36719 6.26264 8.36719H18.166C19.4418 8.36719 20.5988 8.72766 21.3083 9.66024C22.0112 10.5842 22.1193 11.8673 21.7746 13.3563L20.808 17.9922C20.3646 20.3881 18.5589 21.393 17.0928 21.393H7.33583C5.86972 21.393 4.06404 20.3881 3.62059 17.9922L2.65402 13.3561C2.30975 11.8671 2.41823 10.584 3.12106 9.66024Z" fill="#000000" />
<path fill-rule="evenodd" clip-rule="evenodd" d="M5.50374 2.68134C5.87398 2.49562 6.32468 2.64521 6.5104 3.01546L9.40207 8.78032C9.58779 9.15056 9.4382 9.60126 9.06795 9.78698C8.6977 9.97269 8.24701 9.8231 8.06129 9.45286L5.16962 3.688C4.9839 3.31775 5.13349 2.86705 5.50374 2.68134Z" fill="#000000" />
<path fill-rule="evenodd" clip-rule="evenodd" d="M18.9254 2.68134C19.2956 2.86705 19.4452 3.31775 19.2595 3.688L16.3678 9.45286C16.1821 9.8231 15.7314 9.97269 15.3612 9.78698C14.9909 9.60126 14.8413 9.15056 15.027 8.78032L17.9187 3.01546C18.1044 2.64521 18.5551 2.49562 18.9254 2.68134Z" fill="#000000" />
</svg>