<svg width="24px"  height="24px"  viewBox="0 0 25 24" fill="none" xmlns="http://www.w3.org/2000/svg">
<path d="M10.078 16.8524C9.40537 16.8508 8.75275 16.6232 8.225 16.2061C7.69725 15.7889 7.325 15.2066 7.16805 14.5524L4.64805 3.89844H3.24805C3.04913 3.89844 2.85837 3.81942 2.71772 3.67877C2.57707 3.53812 2.49805 3.34735 2.49805 3.14844C2.49805 2.94953 2.57707 2.75876 2.71772 2.61811C2.85837 2.47746 3.04913 2.39844 3.24805 2.39844H5.24805C5.41691 2.39897 5.5807 2.45625 5.7131 2.56108C5.84549 2.66591 5.93881 2.81219 5.97805 2.97644L6.60305 5.62344L20.125 5.51344C20.4176 5.50787 20.7072 5.57284 20.9693 5.70287C21.2315 5.83289 21.4585 6.02414 21.6311 6.26044C21.8069 6.49424 21.9248 6.76647 21.9748 7.05473C22.0249 7.34299 22.0058 7.63902 21.919 7.91844L20.086 13.9184C19.9011 14.5343 19.536 15.0807 19.0376 15.4871C18.5392 15.8935 17.9306 16.1413 17.29 16.1984L10.352 16.8414C10.26 16.8484 10.168 16.8524 10.078 16.8524ZM6.95405 7.11844L8.62804 14.2064C8.71269 14.5544 8.919 14.8605 9.20969 15.0696C9.50038 15.2787 9.85627 15.3769 10.213 15.3464L17.148 14.6984C17.4915 14.6681 17.8179 14.5356 18.0853 14.3179C18.3526 14.1003 18.5487 13.8075 18.648 13.4774L20.481 7.47244C20.4982 7.41844 20.5022 7.3611 20.4927 7.30524C20.4831 7.24938 20.4602 7.19663 20.426 7.15144C20.3493 7.0696 20.2456 7.01812 20.134 7.00644L6.95405 7.11844Z" fill="#000000" />
<path d="M11.856 12.9795C11.6816 12.9793 11.5128 12.9185 11.3785 12.8073C11.2442 12.6962 11.1528 12.5417 11.12 12.3705L10.613 9.71949C10.5945 9.62271 10.5952 9.52322 10.6151 9.42672C10.635 9.33022 10.6738 9.23859 10.7291 9.15706C10.7845 9.07553 10.8553 9.0057 10.9377 8.95155C11.02 8.89741 11.1122 8.86001 11.209 8.84149C11.3058 8.82297 11.4052 8.8237 11.5017 8.84363C11.5982 8.86357 11.6899 8.90231 11.7714 8.95765C11.8529 9.013 11.9228 9.08386 11.9769 9.16619C12.0311 9.24852 12.0685 9.34071 12.087 9.43749L12.594 12.0875C12.6124 12.1846 12.6114 12.2843 12.5912 12.381C12.571 12.4777 12.5319 12.5694 12.4761 12.651C12.4204 12.7325 12.3491 12.8023 12.2664 12.8563C12.1837 12.9102 12.0911 12.9474 11.994 12.9655C11.9485 12.9743 11.9023 12.979 11.856 12.9795Z" fill="#000000" />
<path d="M15.425 12.7715C15.3774 12.7716 15.3299 12.7672 15.283 12.7585C15.1859 12.7403 15.0934 12.7032 15.0106 12.6492C14.9279 12.5953 14.8566 12.5255 14.8009 12.4439C14.7451 12.3624 14.706 12.2706 14.6858 12.1739C14.6656 12.0773 14.6647 11.9775 14.683 11.8805L15.19 9.23046C15.2086 9.13368 15.246 9.04149 15.3001 8.95916C15.3542 8.87682 15.4241 8.80596 15.5056 8.75062C15.5871 8.69528 15.6788 8.65653 15.7753 8.6366C15.8718 8.61667 15.9713 8.61594 16.068 8.63446C16.1648 8.65298 16.257 8.69038 16.3393 8.74452C16.4217 8.79866 16.4925 8.8685 16.5479 8.95003C16.6032 9.03156 16.642 9.12319 16.6619 9.21969C16.6818 9.31619 16.6826 9.41568 16.664 9.51246L16.157 12.1635C16.124 12.3337 16.0331 12.4874 15.8996 12.5982C15.7662 12.709 15.5985 12.7702 15.425 12.7715Z" fill="#000000" />
<path d="M9.12944 21.5987C9.8093 21.5987 10.3604 21.0476 10.3604 20.3677C10.3604 19.6879 9.8093 19.1367 9.12944 19.1367C8.44957 19.1367 7.89844 19.6879 7.89844 20.3677C7.89844 21.0476 8.44957 21.5987 9.12944 21.5987Z" fill="#000000" />
<path d="M18.3404 21.5987C19.0202 21.5987 19.5714 21.0476 19.5714 20.3677C19.5714 19.6879 19.0202 19.1367 18.3404 19.1367C17.6605 19.1367 17.1094 19.6879 17.1094 20.3677C17.1094 21.0476 17.6605 21.5987 18.3404 21.5987Z" fill="#000000" />
</svg>