<svg width="24px"  height="24px"  viewBox="0 0 25 24" fill="none" xmlns="http://www.w3.org/2000/svg">
<path fill-rule="evenodd" clip-rule="evenodd" d="M4.44527 3.87393C5.42976 2.81773 6.83177 2.22656 8.48724 2.22656H16.9219C18.5813 2.22656 19.9839 2.81741 20.9679 3.87421C21.9464 4.92497 22.4551 6.37545 22.4551 8.00294V12.0583C22.4551 12.4725 22.1193 12.8083 21.7051 12.8083C21.2909 12.8083 20.9551 12.4725 20.9551 12.0583V8.00294C20.9551 6.68524 20.5463 5.62253 19.8702 4.8964C19.1997 4.17631 18.2107 3.72656 16.9219 3.72656H8.48724C7.20336 3.72656 6.21429 4.17599 5.54253 4.89668C4.86532 5.62323 4.45508 6.68607 4.45508 8.00294V15.9502C4.45508 17.2681 4.86351 18.3308 5.53926 19.0568C6.20934 19.7768 7.19795 20.2266 8.48724 20.2266H13.0291C13.4433 20.2266 13.7791 20.5623 13.7791 20.9766C13.7791 21.3908 13.4433 21.7266 13.0291 21.7266H8.48724C6.82745 21.7266 5.42498 21.1357 4.44125 20.0788C3.46319 19.0279 2.95508 17.5775 2.95508 15.9502V8.00294C2.95508 6.37462 3.46624 4.92428 4.44527 3.87393Z" fill="#000000" />
<path fill-rule="evenodd" clip-rule="evenodd" d="M9.125 8.04688C9.53921 8.04688 9.875 8.38266 9.875 8.79688C9.875 10.3597 11.1417 11.6264 12.7046 11.6264C14.2674 11.6264 15.5341 10.3597 15.5341 8.79688C15.5341 8.38266 15.8699 8.04688 16.2841 8.04688C16.6983 8.04688 17.0341 8.38266 17.0341 8.79688C17.0341 11.1882 15.0959 13.1264 12.7046 13.1264C10.3133 13.1264 8.375 11.1882 8.375 8.79688C8.375 8.38266 8.71079 8.04688 9.125 8.04688Z" fill="#000000" />
<path fill-rule="evenodd" clip-rule="evenodd" d="M16.5723 18.2969C16.5723 17.8827 16.9081 17.5469 17.3223 17.5469H21.7036C22.1178 17.5469 22.4536 17.8827 22.4536 18.2969C22.4536 18.7111 22.1178 19.0469 21.7036 19.0469H17.3223C16.9081 19.0469 16.5723 18.7111 16.5723 18.2969Z" fill="#000000" />
</svg>