<svg width="24px"  height="24px"  viewBox="0 0 25 24" fill="none" xmlns="http://www.w3.org/2000/svg">
<path d="M7.95205 17.1211C7.3248 17.1174 6.72158 16.8795 6.26073 16.4539C5.79988 16.0284 5.51466 15.4461 5.46105 14.8211L4.57305 4.2361L3.12005 3.9851C3.023 3.96829 2.93022 3.93253 2.84699 3.87986C2.76376 3.82719 2.69172 3.75865 2.63498 3.67814C2.57825 3.59763 2.53792 3.50674 2.51632 3.41065C2.49471 3.31455 2.49224 3.21514 2.50905 3.1181C2.52586 3.02105 2.56162 2.92827 2.61429 2.84504C2.66696 2.76181 2.73551 2.68977 2.81601 2.63303C2.89652 2.5763 2.98741 2.53598 3.0835 2.51437C3.17959 2.49276 3.279 2.49029 3.37604 2.5071L5.40004 2.8571C5.5636 2.88552 5.71311 2.96741 5.82512 3.08993C5.93714 3.21244 6.00534 3.36866 6.01905 3.5341L6.25205 6.2441C20.127 6.2491 20.1701 6.2551 20.2401 6.2651C20.5074 6.30344 20.7646 6.39414 20.9968 6.532C21.2291 6.66986 21.4319 6.85217 21.5936 7.0685C21.7553 7.28483 21.8728 7.53093 21.9393 7.79271C22.0057 8.05449 22.0199 8.32682 21.9811 8.5941L21.058 14.9741C20.9703 15.5688 20.6724 16.1123 20.2183 16.5062C19.7643 16.9001 19.1841 17.1182 18.583 17.1211H7.95205ZM6.37305 7.7451L6.95604 14.7001C6.97775 14.9507 7.09238 15.1841 7.27741 15.3546C7.46244 15.525 7.7045 15.62 7.95604 15.6211H18.5781C18.8191 15.6201 19.0517 15.5326 19.2338 15.3746C19.4158 15.2166 19.5351 14.9986 19.57 14.7601L20.493 8.3781C20.5036 8.30597 20.4999 8.23246 20.482 8.1618C20.4641 8.09113 20.4323 8.02471 20.3887 7.96635C20.345 7.90798 20.2902 7.85883 20.2275 7.82172C20.1647 7.78461 20.0952 7.76027 20.023 7.7501C19.82 7.7531 11.408 7.7461 6.37705 7.7451H6.37305Z" fill="#000000" />
<path d="M12.4574 13.4094C12.3089 13.4095 12.1638 13.3655 12.0404 13.283C11.9169 13.2005 11.8208 13.0833 11.764 12.9461C11.7072 12.809 11.6925 12.658 11.7216 12.5125C11.7506 12.3669 11.8223 12.2332 11.9274 12.1284L14.1474 9.9084C14.2166 9.8368 14.2994 9.77971 14.3909 9.74044C14.4824 9.70118 14.5808 9.68053 14.6804 9.67971C14.78 9.67889 14.8788 9.69792 14.9709 9.73567C15.0631 9.77343 15.1468 9.82915 15.2172 9.89961C15.2876 9.97006 15.3432 10.0538 15.3809 10.146C15.4185 10.2382 15.4375 10.337 15.4366 10.4366C15.4357 10.5361 15.4149 10.6345 15.3756 10.726C15.3362 10.8175 15.279 10.9002 15.2074 10.9694L12.9874 13.1894C12.9179 13.2592 12.8353 13.3145 12.7443 13.3522C12.6534 13.39 12.5559 13.4094 12.4574 13.4094Z" fill="#000000" />
<path d="M14.6765 13.4133C14.578 13.4133 14.4805 13.3939 14.3895 13.3562C14.2986 13.3184 14.216 13.2631 14.1465 13.1933L11.9265 10.9733C11.8548 10.9042 11.7976 10.8214 11.7583 10.7299C11.7189 10.6385 11.6982 10.54 11.6973 10.4405C11.6964 10.3409 11.7153 10.2421 11.753 10.1499C11.7906 10.0577 11.8463 9.97397 11.9167 9.90352C11.9871 9.83307 12.0708 9.77733 12.1629 9.73958C12.2551 9.70183 12.3538 9.6828 12.4534 9.68362C12.553 9.68444 12.6514 9.70509 12.743 9.74435C12.8345 9.78361 12.9173 9.8407 12.9865 9.9123L15.2065 12.1323C15.3111 12.2373 15.3823 12.371 15.4111 12.5164C15.4399 12.6618 15.425 12.8124 15.3684 12.9494C15.3117 13.0864 15.2158 13.2035 15.0926 13.2861C14.9695 13.3686 14.8247 13.4129 14.6765 13.4133Z" fill="#000000" />
<path d="M7.48781 21.5011C7.24439 21.5009 7.00648 21.4285 6.80417 21.2931C6.60187 21.1577 6.44425 20.9654 6.35123 20.7404C6.25821 20.5155 6.23398 20.268 6.28159 20.0293C6.3292 19.7906 6.44652 19.5713 6.61872 19.3993C6.79091 19.2272 7.01026 19.1101 7.24903 19.0626C7.48779 19.0152 7.73525 19.0397 7.96013 19.1329C8.18501 19.2261 8.3772 19.3838 8.51242 19.5863C8.64764 19.7887 8.71981 20.0266 8.71981 20.2701C8.71954 20.5966 8.58963 20.9097 8.35862 21.1406C8.1276 21.3714 7.81438 21.5011 7.48781 21.5011Z" fill="#000000" />
<path d="M18.5103 21.5011C18.2668 21.5011 18.0288 21.4289 17.8264 21.2936C17.624 21.1583 17.4662 20.9661 17.373 20.7411C17.2798 20.5162 17.2555 20.2687 17.303 20.0299C17.3504 19.7911 17.4677 19.5718 17.6398 19.3996C17.812 19.2275 18.0314 19.1102 18.2701 19.0627C18.5089 19.0152 18.7565 19.0396 18.9814 19.1328C19.2063 19.2259 19.3986 19.3837 19.5338 19.5862C19.6691 19.7886 19.7413 20.0266 19.7413 20.2701C19.7408 20.5964 19.6109 20.9092 19.3802 21.1399C19.1494 21.3707 18.8366 21.5005 18.5103 21.5011Z" fill="#000000" />
</svg>