<svg width="24px"  height="24px"  viewBox="0 0 25 24" fill="none" xmlns="http://www.w3.org/2000/svg">
<path fill-rule="evenodd" clip-rule="evenodd" d="M7.81641 6.66563C7.82226 4.22206 9.8071 2.24533 12.2508 2.25001C14.6951 2.25586 16.6722 4.24136 16.6668 6.68492C16.6668 6.6852 16.6668 6.68464 16.6668 6.68492V9.63111C16.6668 10.0453 16.331 10.3811 15.9168 10.3811C15.5026 10.3811 15.1668 10.0453 15.1668 9.63111V6.68395L15.1668 6.68216C15.1707 5.06707 13.8643 3.75407 12.2479 3.75001C10.633 3.74711 9.32073 5.05331 9.31641 6.66838V9.63111C9.31641 10.0453 8.98062 10.3811 8.56641 10.3811C8.15219 10.3811 7.81641 10.0453 7.81641 9.63111L7.81641 6.66563Z" fill="#000000" />
<path fill-rule="evenodd" clip-rule="evenodd" d="M20.2483 11.5021C20.2473 9.63236 18.7297 8.11639 16.8597 8.11719L7.6408 8.11719C5.76986 8.11719 4.25292 9.63305 4.25195 11.5031C4.25195 11.5032 4.25195 11.503 4.25195 11.5031V16.8648C4.25195 16.8649 4.25195 16.8647 4.25195 16.8648C4.25292 18.7355 5.7695 20.2515 7.64048 20.2507H16.8607C18.7304 20.2515 20.2473 18.7359 20.2483 16.8648C20.2483 16.8647 20.2483 16.8649 20.2483 16.8648V11.5021C20.2483 11.5023 20.2483 11.502 20.2483 11.5021ZM16.8594 6.61719C19.5576 6.6162 21.7471 8.80339 21.7483 11.5018V16.8648C21.7471 19.5638 19.559 21.7517 16.8604 21.7507C16.8603 21.7507 16.8605 21.7507 16.8604 21.7507H7.64112C7.64102 21.7507 7.64123 21.7507 7.64112 21.7507C4.94193 21.7517 2.7531 19.5655 2.75195 16.8661L2.75195 11.5031C2.7531 8.80486 4.94046 6.61719 7.63983 6.61719H16.8594Z" fill="#000000" />
</svg>