<svg width="24px"  height="24px"  viewBox="0 0 25 24" fill="none" xmlns="http://www.w3.org/2000/svg">
<path fill-rule="evenodd" clip-rule="evenodd" d="M6.24744 6.33318C6.2474 6.33342 6.24747 6.33295 6.24744 6.33318L5.74662 9.46838C5.74376 9.48632 5.74024 9.50416 5.73608 9.52185L5.73219 9.53839C5.63732 9.94159 5.23355 10.1915 4.83034 10.0967C4.43086 10.0027 4.18182 9.60547 4.26952 9.206L4.76675 6.09326C4.98972 4.71715 6.1735 3.70312 7.57076 3.70312H8.38708C8.80129 3.70312 9.13708 4.03891 9.13708 4.45312C9.13708 4.86734 8.80129 5.20312 8.38708 5.20312H7.57076C6.91334 5.20312 6.35361 5.68004 6.24744 6.33318Z" fill="#000000" />
<path fill-rule="evenodd" clip-rule="evenodd" d="M15.3633 4.45312C15.3633 4.03891 15.6991 3.70312 16.1133 3.70312H16.9306C18.3246 3.70312 19.5154 4.71533 19.734 6.09549C19.734 6.09567 19.7339 6.09531 19.734 6.09549L20.2308 9.206C20.3185 9.60546 20.0695 10.0027 19.67 10.0967C19.2668 10.1915 18.863 9.9416 18.7682 9.5384L18.7643 9.52186C18.7601 9.50416 18.7566 9.48633 18.7537 9.46838L18.2525 6.33041C18.1498 5.68124 17.5893 5.20312 16.9306 5.20312H16.1133C15.6991 5.20312 15.3633 4.86734 15.3633 4.45312Z" fill="#000000" />
<path fill-rule="evenodd" clip-rule="evenodd" d="M9.54647 4.04297C9.31618 4.04297 9.13086 4.2291 9.13086 4.45761C9.13086 4.6875 9.31658 4.87323 9.54647 4.87323H14.9542C15.1827 4.87323 15.3689 4.68791 15.3689 4.45761C15.3689 4.22869 15.1831 4.04297 14.9542 4.04297H9.54647ZM7.63086 4.45761C7.63086 3.39986 8.48856 2.54297 9.54647 2.54297H14.9542C16.0116 2.54297 16.8689 3.40027 16.8689 4.45761C16.8689 5.51552 16.012 6.37323 14.9542 6.37323H9.54647C8.48816 6.37323 7.63086 5.51593 7.63086 4.45761Z" fill="#000000" />
<path fill-rule="evenodd" clip-rule="evenodd" d="M16.1875 12.3594C16.6017 12.3594 16.9375 12.6952 16.9375 13.1094V16.7765C16.9375 17.1907 16.6017 17.5265 16.1875 17.5265C15.7733 17.5265 15.4375 17.1907 15.4375 16.7765V13.1094C15.4375 12.6952 15.7733 12.3594 16.1875 12.3594Z" fill="#000000" />
<path fill-rule="evenodd" clip-rule="evenodd" d="M12.3262 12.3594C12.7404 12.3594 13.0762 12.6952 13.0762 13.1094V16.7765C13.0762 17.1907 12.7404 17.5265 12.3262 17.5265C11.912 17.5265 11.5762 17.1907 11.5762 16.7765V13.1094C11.5762 12.6952 11.912 12.3594 12.3262 12.3594Z" fill="#000000" />
<path fill-rule="evenodd" clip-rule="evenodd" d="M8.4668 12.3594C8.88101 12.3594 9.2168 12.6952 9.2168 13.1094V16.7765C9.2168 17.1907 8.88101 17.5265 8.4668 17.5265C8.05258 17.5265 7.7168 17.1907 7.7168 16.7765V13.1094C7.7168 12.6952 8.05258 12.3594 8.4668 12.3594Z" fill="#000000" />
<path fill-rule="evenodd" clip-rule="evenodd" d="M4.34976 10.6348C4.03121 11.0536 3.85384 11.8063 4.15233 13.0916L4.15598 13.1082L5.12603 17.761L5.12952 17.7788C5.43041 19.4199 6.57591 19.9594 7.37104 19.9594H17.128C17.9231 19.9594 19.0686 19.4199 19.3695 17.7788L19.373 17.761L20.343 13.1082L20.3467 13.0914C20.6456 11.8062 20.4682 11.0536 20.1497 10.6349C19.8364 10.2231 19.2323 9.93359 18.2011 9.93359H6.29786C5.26677 9.93359 4.66296 10.223 4.34976 10.6348ZM3.15588 9.72671C3.86527 8.79408 5.02205 8.43359 6.29786 8.43359H18.2011C19.4769 8.43359 20.6339 8.79406 21.3434 9.72664C22.0464 10.6505 22.1545 11.9336 21.8097 13.4226L20.8432 18.0585C20.3997 20.4544 18.5941 21.4594 17.128 21.4594H7.37104C5.90494 21.4594 4.09926 20.4544 3.65582 18.0585L2.68925 13.4225C2.34502 11.9336 2.45317 10.6506 3.15588 9.72671Z" fill="#000000" />
</svg>