<svg width="24px"  height="24px"  viewBox="0 0 25 24" fill="none" xmlns="http://www.w3.org/2000/svg">
<path fill-rule="evenodd" clip-rule="evenodd" d="M3.9902 3.89737C4.97468 2.84117 6.37669 2.25 8.03216 2.25H16.4669C18.1262 2.25 19.5288 2.84084 20.5129 3.89765C21.4913 4.94841 22 6.39889 22 8.02638V15.9736C22 17.6011 21.4913 19.0516 20.5127 20.1024C19.5285 21.1592 18.1257 21.75 16.4659 21.75H8.03216C6.37237 21.75 4.9699 21.1592 3.98617 20.1022C3.00811 19.0514 2.5 17.6009 2.5 15.9736V8.02638C2.5 6.39806 3.01117 4.94771 3.9902 3.89737ZM5.08745 4.92012C4.41024 5.64667 4 6.70951 4 8.02638V15.9736C4 17.2915 4.40843 18.3542 5.08418 19.0803C5.75426 19.8002 6.74287 20.25 8.03216 20.25H16.4659C17.7552 20.25 18.7444 19.8002 19.415 19.0801C20.0912 18.354 20.5 17.2913 20.5 15.9736V8.02638C20.5 6.70868 20.0912 5.64597 19.4151 4.91984C18.7446 4.19975 17.7556 3.75 16.4669 3.75H8.03216C6.74828 3.75 5.75921 4.19943 5.08745 4.92012Z" fill="#000000" />
<path fill-rule="evenodd" clip-rule="evenodd" d="M8.66992 8.07031C9.08414 8.07031 9.41992 8.4061 9.41992 8.82031C9.41992 10.3832 10.6866 11.6499 12.2495 11.6499C13.8124 11.6499 15.0791 10.3832 15.0791 8.82031C15.0791 8.4061 15.4148 8.07031 15.8291 8.07031C16.2433 8.07031 16.5791 8.4061 16.5791 8.82031C16.5791 11.2116 14.6408 13.1499 12.2495 13.1499C9.85819 13.1499 7.91992 11.2116 7.91992 8.82031C7.91992 8.4061 8.25571 8.07031 8.66992 8.07031Z" fill="#000000" />
</svg>