<svg width="24px"  height="24px"  viewBox="0 0 25 24" fill="none" xmlns="http://www.w3.org/2000/svg">
<path d="M7.95009 17.1211C7.32295 17.1174 6.71986 16.8794 6.25917 16.4539C5.79849 16.0283 5.51348 15.446 5.4601 14.8211L4.57106 4.2361L3.11806 3.9851C3.02101 3.96829 2.92828 3.93253 2.84505 3.87986C2.76182 3.82719 2.68975 3.75865 2.63302 3.67814C2.57628 3.59763 2.53597 3.50674 2.51436 3.41064C2.49275 3.31455 2.49029 3.21514 2.5071 3.1181C2.52391 3.02105 2.55966 2.92826 2.61232 2.84504C2.66499 2.76181 2.73354 2.68977 2.81405 2.63304C2.89455 2.5763 2.98547 2.53598 3.08156 2.51437C3.17765 2.49276 3.27706 2.49029 3.3741 2.5071L5.39809 2.8571C5.56164 2.88553 5.71112 2.96741 5.82314 3.08993C5.93516 3.21244 6.0034 3.36866 6.01711 3.5341L6.25008 6.2441C20.1261 6.2441 20.1691 6.2551 20.2391 6.2651C20.7786 6.34305 21.2651 6.63208 21.5916 7.06863C21.9181 7.50519 22.0578 8.05353 21.9801 8.5931L21.0561 14.9741C20.969 15.569 20.6712 16.1129 20.217 16.5069C19.7628 16.9009 19.1823 17.1188 18.5811 17.1211H7.95009ZM6.37105 7.7451L6.95406 14.7001C6.97577 14.9507 7.09044 15.1841 7.27547 15.3546C7.4605 15.525 7.70251 15.62 7.95406 15.6211H18.5761C18.8175 15.6215 19.051 15.5346 19.2333 15.3763C19.4156 15.2181 19.5345 14.9992 19.5681 14.7601L20.4921 8.3781C20.5036 8.30638 20.5007 8.23309 20.4835 8.16252C20.4663 8.09195 20.4353 8.02551 20.3921 7.9671C20.3484 7.90863 20.2935 7.85937 20.2307 7.82213C20.1679 7.78489 20.0984 7.76041 20.0261 7.7501L6.37105 7.7451Z" fill="#000000" />
<path d="M17.0164 11.3359H14.3164C14.1175 11.3359 13.9267 11.2569 13.7861 11.1163C13.6454 10.9756 13.5664 10.7848 13.5664 10.5859C13.5664 10.387 13.6454 10.1963 13.7861 10.0556C13.9267 9.91495 14.1175 9.83594 14.3164 9.83594H17.0164C17.2153 9.83594 17.4061 9.91495 17.5468 10.0556C17.6874 10.1963 17.7664 10.387 17.7664 10.5859C17.7664 10.7848 17.6874 10.9756 17.5468 11.1163C17.4061 11.2569 17.2153 11.3359 17.0164 11.3359Z" fill="#000000" />
<path d="M7.53959 21.5011C8.21946 21.5011 8.77059 20.9499 8.77059 20.2701C8.77059 19.5902 8.21946 19.0391 7.53959 19.0391C6.85973 19.0391 6.30859 19.5902 6.30859 20.2701C6.30859 20.9499 6.85973 21.5011 7.53959 21.5011Z" fill="#000000" />
<path d="M18.564 21.5031C18.3203 21.5031 18.0821 21.4308 17.8795 21.2954C17.6768 21.1599 17.5189 20.9675 17.4257 20.7423C17.3325 20.5171 17.3082 20.2694 17.3558 20.0303C17.4034 19.7913 17.5208 19.5718 17.6932 19.3996C17.8656 19.2273 18.0853 19.11 18.3243 19.0626C18.5634 19.0152 18.8111 19.0397 19.0362 19.1331C19.2613 19.2265 19.4537 19.3846 19.5889 19.5873C19.7242 19.7901 19.7963 20.0284 19.7961 20.2721C19.7958 20.5986 19.6659 20.9117 19.4349 21.1426C19.2039 21.3734 18.8906 21.5031 18.564 21.5031Z" fill="#000000" />
</svg>