<svg width="24px"  height="24px"  viewBox="0 0 25 24" fill="none" xmlns="http://www.w3.org/2000/svg">
<path fill-rule="evenodd" clip-rule="evenodd" d="M9.10547 15.5703C9.10547 15.1561 9.44126 14.8203 9.85547 14.8203H14.5753C14.9895 14.8203 15.3253 15.1561 15.3253 15.5703C15.3253 15.9845 14.9895 16.3203 14.5753 16.3203H9.85547C9.44126 16.3203 9.10547 15.9845 9.10547 15.5703Z" fill="#000000" />
<path fill-rule="evenodd" clip-rule="evenodd" d="M8.26367 12.2734C8.26367 11.8592 8.59946 11.5234 9.01367 11.5234H15.4129C15.8271 11.5234 16.1629 11.8592 16.1629 12.2734C16.1629 12.6877 15.8271 13.0234 15.4129 13.0234H9.01367C8.59946 13.0234 8.26367 12.6877 8.26367 12.2734Z" fill="#000000" />
<path fill-rule="evenodd" clip-rule="evenodd" d="M4.3146 9.65044C3.99606 10.0692 3.81869 10.8219 4.11717 12.1073L4.12082 12.1239L5.09087 16.7766L5.09436 16.7944C5.39526 18.4355 6.54075 18.975 7.33589 18.975H17.0928C17.8879 18.975 19.0334 18.4355 19.3343 16.7944L19.3378 16.7766L20.3079 12.1239L20.3116 12.107C20.6105 10.8218 20.4331 10.0692 20.1145 9.65051C19.8012 9.23869 19.1971 8.94922 18.166 8.94922H6.2627C5.23161 8.94922 4.62781 9.23867 4.3146 9.65044ZM3.12072 8.74234C3.83011 7.80971 4.98689 7.44922 6.2627 7.44922H18.166C19.4418 7.44922 20.5988 7.80969 21.3083 8.74227C22.0112 9.66616 22.1193 10.9492 21.7746 12.4382L20.808 17.0742C20.3646 19.4701 18.5589 20.475 17.0928 20.475H7.33589C5.86979 20.475 4.06411 19.4701 3.62066 17.0742L2.65409 12.4381C2.30986 10.9492 2.41801 9.66619 3.12072 8.74234Z" fill="#000000" />
<path fill-rule="evenodd" clip-rule="evenodd" d="M9.85615 3.60867C10.2234 3.8003 10.3657 4.25333 10.1741 4.62056L8.12601 8.54551C7.93439 8.91273 7.48135 9.05508 7.11413 8.86346C6.7469 8.67184 6.60455 8.2188 6.79617 7.85158L8.84427 3.92663C9.03589 3.5594 9.48893 3.41705 9.85615 3.60867Z" fill="#000000" />
<path fill-rule="evenodd" clip-rule="evenodd" d="M14.5731 3.60867C14.9403 3.41705 15.3934 3.5594 15.585 3.92663L17.6331 7.85158C17.8247 8.2188 17.6824 8.67184 17.3151 8.86346C16.9479 9.05508 16.4949 8.91273 16.3033 8.54551L14.2552 4.62056C14.0635 4.25333 14.2059 3.8003 14.5731 3.60867Z" fill="#000000" />
</svg>