<svg width="24px"  height="24px"  viewBox="0 0 25 24" fill="none" xmlns="http://www.w3.org/2000/svg">
<path fill-rule="evenodd" clip-rule="evenodd" d="M5.67165 3.35656C5.81232 3.2158 6.00315 3.13672 6.20215 3.13672H18.3106C18.7248 3.13672 19.0606 3.47251 19.0606 3.88672H18.3106C19.0606 3.88672 19.0606 3.88643 19.0606 3.88672L19.0606 3.89034L19.0606 3.89786L19.0604 3.92437C19.0602 3.94706 19.0598 3.97967 19.059 4.02155C19.0574 4.10529 19.0543 4.22616 19.0482 4.37889C19.0359 4.68416 19.0115 5.11767 18.9628 5.63692C18.8657 6.67187 18.6707 8.06412 18.2762 9.4664C17.8842 10.8597 17.2798 12.3194 16.331 13.4434C15.8081 14.063 15.1784 14.5814 14.4306 14.927C14.4428 15.0825 14.4645 15.2648 14.5018 15.456C14.5953 15.9346 14.7616 16.3398 15.0039 16.5885H16.3082C16.7224 16.5885 17.0582 16.9243 17.0582 17.3385V19.3632H17.9261C18.3403 19.3632 18.6761 19.699 18.6761 20.1132C18.6761 20.5274 18.3403 20.8632 17.9261 20.8632H16.3251C16.3195 20.8633 16.3138 20.8634 16.3082 20.8634C16.3025 20.8634 16.2969 20.8633 16.2913 20.8632H8.20868C8.20306 20.8633 8.19742 20.8634 8.19177 20.8634C8.18612 20.8634 8.18048 20.8633 8.17486 20.8632H6.57366C6.15944 20.8632 5.82366 20.5274 5.82366 20.1132C5.82366 19.699 6.15944 19.3632 6.57366 19.3632H7.44177V17.3385C7.44177 16.9243 7.77755 16.5885 8.19177 16.5885H9.4961C9.7384 16.3398 9.90476 15.9346 9.99823 15.456C10.0363 15.2612 10.058 15.0757 10.0701 14.9184C9.33032 14.5728 8.70654 14.0579 8.18763 13.4436C7.23827 12.3197 6.63295 10.8601 6.24006 9.46683C5.84464 8.06457 5.64879 6.67234 5.55108 5.63739C5.50205 5.11814 5.47735 4.68464 5.46488 4.37936C5.45865 4.22664 5.45547 4.10576 5.45384 4.02202C5.45303 3.98014 5.45261 3.94753 5.45239 3.92485L5.45219 3.89834L5.45216 3.89081L5.45215 3.88851C5.45215 3.88822 5.45215 3.88719 6.20215 3.88672L5.45215 3.88719C5.45202 3.6882 5.53098 3.49731 5.67165 3.35656ZM6.97923 4.63672C6.99292 4.87797 7.0135 5.1687 7.04444 5.49639C7.13708 6.47765 7.32112 7.7737 7.68376 9.05972C8.04892 10.3547 8.57982 11.5834 9.33354 12.4757C10.0684 13.3457 11.005 13.8898 12.2598 13.8898C13.5145 13.8898 14.4506 13.3457 15.1848 12.4759C15.9378 11.5837 16.4679 10.3551 16.8323 9.06015C17.1941 7.77415 17.3773 6.47812 17.4693 5.49686C17.5001 5.16895 17.5205 4.87806 17.534 4.63672H6.97923ZM11.5344 15.3431C11.5185 15.4694 11.4977 15.604 11.4704 15.7435C11.4212 15.9955 11.346 16.2895 11.2275 16.5885H13.2725C13.154 16.2895 13.0788 15.9955 13.0296 15.7435C13.0026 15.6049 12.9818 15.4712 12.966 15.3456C12.7387 15.3747 12.5034 15.3898 12.2598 15.3898C12.0093 15.3898 11.7675 15.3738 11.5344 15.3431ZM14.725 18.0885H9.77506C9.76769 18.0886 9.76031 18.0886 9.75294 18.0885H8.94177V19.3632H15.5582V18.0885H14.7471C14.7397 18.0886 14.7323 18.0886 14.725 18.0885Z" fill="#000000" />
<path fill-rule="evenodd" clip-rule="evenodd" d="M2.51247 5.59169C2.54406 5.20228 2.86932 4.90234 3.26001 4.90234H6.29369C6.7079 4.90234 7.04369 5.23813 7.04369 5.65234C7.04369 6.06656 6.7079 6.40234 6.29369 6.40234H4.01288C4.03294 6.73407 4.08101 7.15598 4.18731 7.61464C4.43679 8.69117 4.98749 9.89589 6.17092 10.6749C6.1796 10.6806 6.18815 10.6865 6.19658 10.6925C6.19666 10.6926 6.19674 10.6926 6.19681 10.6927C6.19699 10.6928 6.19717 10.6929 6.19735 10.6931L6.20374 10.6976C6.21035 10.7022 6.2214 10.7099 6.23659 10.7202C6.26701 10.7409 6.31382 10.7721 6.37469 10.8106C6.49686 10.8879 6.67323 10.9933 6.88527 11.1025C7.32115 11.3268 7.85587 11.5399 8.35846 11.5937C8.77031 11.6379 9.0684 12.0076 9.02425 12.4194C8.9801 12.8313 8.61043 13.1293 8.19858 13.0852C7.43049 13.0029 6.70523 12.6968 6.1988 12.4362C5.93968 12.3028 5.72432 12.1742 5.57254 12.0781C5.49644 12.03 5.43573 11.9896 5.39285 11.9604C5.3714 11.9459 5.35437 11.934 5.34206 11.9254L5.33496 11.9204C3.71943 10.8516 3.02339 9.23638 2.72603 7.95329C2.57606 7.30617 2.52255 6.72467 2.50624 6.30424C2.49806 6.09331 2.49917 5.92095 2.50252 5.79872C2.5042 5.73755 2.50645 5.68878 2.50839 5.65383C2.50936 5.63636 2.51026 5.62232 2.51098 5.61191L2.5119 5.59902L2.51223 5.59465L2.51236 5.593L2.51242 5.5923C2.51244 5.59199 2.51247 5.59169 3.26001 5.65234L2.51247 5.59169Z" fill="#000000" />
<path fill-rule="evenodd" clip-rule="evenodd" d="M17.4556 5.65234C17.4556 5.23813 17.7914 4.90234 18.2056 4.90234H21.2393C21.63 4.90234 21.9552 5.20228 21.9868 5.59169L21.2393 5.65234C21.9868 5.59169 21.9868 5.59199 21.9869 5.5923L21.9869 5.593L21.9871 5.59466L21.9874 5.59902L21.9883 5.61191C21.989 5.62232 21.9899 5.63636 21.9909 5.65383C21.9928 5.68878 21.9951 5.73755 21.9968 5.79872C22.0001 5.92095 22.0012 6.09331 21.993 6.30424C21.9767 6.72467 21.9232 7.30617 21.7733 7.95329C21.4759 9.23638 20.7799 10.8516 19.1643 11.9204L19.1572 11.9254C19.1449 11.934 19.1279 11.9459 19.1064 11.9604C19.0636 11.9896 19.0028 12.03 18.9267 12.0781C18.775 12.1742 18.5596 12.3028 18.3005 12.4362C17.7941 12.6968 17.0688 13.0029 16.3007 13.0852C15.8889 13.1293 15.5192 12.8313 15.475 12.4194C15.4309 12.0076 15.729 11.6379 16.1408 11.5937C16.6434 11.5399 17.1781 11.3268 17.614 11.1025C17.8261 10.9933 18.0024 10.8879 18.1246 10.8106C18.1855 10.7721 18.2323 10.7409 18.2627 10.7202C18.2779 10.7099 18.2889 10.7022 18.2955 10.6976L18.3017 10.6932L18.3019 10.6931C18.3106 10.6868 18.3194 10.6807 18.3284 10.6749C19.5118 9.89589 20.0625 8.69117 20.312 7.61464C20.4183 7.15598 20.4663 6.73407 20.4864 6.40234H18.2056C17.7914 6.40234 17.4556 6.06656 17.4556 5.65234Z" fill="#000000" />
<path fill-rule="evenodd" clip-rule="evenodd" d="M9.93097 3.15554C10.3343 3.24722 10.5871 3.64805 10.4965 4.05137L10.4958 4.05438L10.4915 4.07523C10.4874 4.09554 10.481 4.12849 10.4733 4.1733C10.4577 4.26297 10.4364 4.39987 10.4162 4.57776C10.3759 4.93389 10.3401 5.452 10.3622 6.08259C10.4065 7.34514 10.682 9.04345 11.6031 10.7974C11.7957 11.1641 11.6545 11.6175 11.2878 11.8101C10.9211 12.0027 10.4677 11.8615 10.2751 11.4948C9.22494 9.4951 8.91326 7.5638 8.86316 6.13516C8.83809 5.42014 8.87835 4.82726 8.92579 4.4088C8.94953 4.19939 8.97513 4.03309 8.99542 3.91638C9.00557 3.85801 9.0144 3.81198 9.02102 3.77911L9.02918 3.73973L9.03182 3.72761L9.03274 3.72348L9.0331 3.7219L9.03325 3.72123C9.03332 3.72093 9.03338 3.72064 9.7605 3.88592L9.03338 3.72064C9.12519 3.31673 9.52706 3.06373 9.93097 3.15554Z" fill="#000000" />
</svg>