<svg width="24px"  height="24px"  viewBox="0 0 25 24" fill="none" xmlns="http://www.w3.org/2000/svg">
<path d="M8.26422 20.8566H6.6492C6.45029 20.8566 6.25952 20.7776 6.11887 20.637C5.97821 20.4963 5.8992 20.3055 5.8992 20.1066C5.8992 19.9077 5.97821 19.7169 6.11887 19.5763C6.25952 19.4356 6.45029 19.3566 6.6492 19.3566H7.7182L8.43921 17.1046C8.48771 16.9534 8.58299 16.8214 8.7113 16.7278C8.83962 16.6341 8.99435 16.5837 9.1532 16.5836H11.4972V15.3376C5.52819 14.5376 5.4502 4.33763 5.4502 3.89063C5.45006 3.7921 5.46938 3.69451 5.50702 3.60346C5.54466 3.5124 5.59992 3.42967 5.66959 3.36C5.73926 3.29033 5.82197 3.23509 5.91303 3.19745C6.00408 3.1598 6.10167 3.14049 6.2002 3.14063H18.3002C18.4991 3.14063 18.6899 3.21964 18.8305 3.3603C18.9712 3.50095 19.0502 3.69171 19.0502 3.89063C19.0502 4.34163 18.9792 14.5566 12.9962 15.3386V16.5836H15.4892C15.6481 16.5838 15.803 16.6343 15.9314 16.7279C16.0599 16.8215 16.1554 16.9534 16.2042 17.1046L16.9242 19.3566H17.9932C18.1921 19.3566 18.3829 19.4356 18.5235 19.5763C18.6642 19.7169 18.7432 19.9077 18.7432 20.1066C18.7432 20.3055 18.6642 20.4963 18.5235 20.637C18.3829 20.7776 18.1921 20.8566 17.9932 20.8566H8.2652H8.26422ZM9.2912 19.3566H15.3492L14.9412 18.0836H9.69922L9.2912 19.3566ZM6.9772 4.64063C7.1112 6.96563 7.87722 13.8866 12.2512 13.8866C16.6252 13.8866 17.3912 6.96463 17.5212 4.64063H6.9772Z" fill="#000000" />
<path d="M5.65085 12.0523C5.50463 12.0523 5.36168 12.0091 5.23987 11.9282C2.08587 9.85325 2.50886 5.74625 2.52786 5.57325C2.54827 5.38991 2.63554 5.22052 2.77298 5.09748C2.91042 4.97443 3.08838 4.90635 3.27286 4.90625H6.30386C6.50277 4.90625 6.69354 4.98527 6.8342 5.12592C6.97485 5.26657 7.05386 5.45734 7.05386 5.65625C7.05386 5.85516 6.97485 6.04593 6.8342 6.18658C6.69354 6.32723 6.50277 6.40625 6.30386 6.40625H4.00384C3.98642 7.22972 4.16388 8.04566 4.5217 8.78754C4.87951 9.52941 5.40758 10.1762 6.06286 10.6752C6.19792 10.7639 6.30073 10.8938 6.35602 11.0456C6.4113 11.1974 6.4161 11.363 6.36969 11.5177C6.32328 11.6725 6.22815 11.8081 6.09845 11.9044C5.96874 12.0007 5.81139 12.0526 5.64984 12.0523H5.65085Z" fill="#000000" />
<path d="M18.8493 12.0464C18.6878 12.0468 18.5304 11.9949 18.4007 11.8986C18.271 11.8023 18.1759 11.6666 18.1295 11.5119C18.083 11.3572 18.0878 11.1916 18.1431 11.0398C18.1984 10.888 18.3013 10.7581 18.4363 10.6694C19.0937 10.1718 19.6233 9.52502 19.9815 8.78241C20.3397 8.03981 20.5161 7.22267 20.4963 6.39844H18.1963C17.9974 6.39844 17.8066 6.31942 17.666 6.17877C17.5253 6.03812 17.4463 5.84735 17.4463 5.64844C17.4463 5.44953 17.5253 5.25876 17.666 5.11811C17.8066 4.97746 17.9974 4.89844 18.1963 4.89844H21.2273C21.4118 4.89853 21.5897 4.96661 21.7272 5.08966C21.8646 5.21271 21.9519 5.3821 21.9723 5.56544C21.9913 5.73844 22.4143 9.84544 19.2603 11.9204C19.1387 12.002 18.9957 12.0459 18.8493 12.0464Z" fill="#000000" />
<path d="M11.1593 11.4633C10.9713 11.4635 10.7868 11.4124 10.6257 11.3155C10.4646 11.2186 10.3331 11.0795 10.2453 10.9133C10.1406 10.7155 10.1037 10.489 10.1403 10.2683L10.2573 9.59625L9.76629 9.12425C9.66869 9.03087 9.59053 8.9191 9.53631 8.79538C9.48209 8.67166 9.45288 8.53843 9.45037 8.40337C9.44786 8.26832 9.4721 8.1341 9.52169 8.00845C9.57128 7.8828 9.64521 7.7682 9.73928 7.67125C9.90255 7.5053 10.1172 7.39956 10.3483 7.37125L11.0223 7.27125L11.3283 6.66025C11.4138 6.49139 11.544 6.34926 11.7047 6.24936C11.8655 6.14947 12.0506 6.09566 12.2398 6.0938C12.4291 6.09194 12.6152 6.14211 12.7779 6.23883C12.9405 6.33555 13.0735 6.4751 13.1623 6.64225L13.1703 6.65925L13.4783 7.27125L14.1663 7.37125C14.3556 7.39823 14.5337 7.47759 14.6804 7.6004C14.827 7.7232 14.9364 7.88455 14.9962 8.06624C15.056 8.24792 15.0638 8.4427 15.0188 8.62859C14.9737 8.81449 14.8776 8.98409 14.7413 9.11825L14.2413 9.59725L14.3573 10.2613C14.3899 10.4513 14.3687 10.6466 14.2959 10.8252C14.2231 11.0037 14.1016 11.1582 13.9454 11.2712C13.7892 11.3842 13.6044 11.4512 13.4121 11.4644C13.2198 11.4777 13.0275 11.4367 12.8573 11.3463L12.2493 11.0253L11.6323 11.3463C11.4863 11.4228 11.3241 11.4629 11.1593 11.4633ZM10.9423 10.0143H10.9363H10.9423ZM10.4373 9.77125L10.4473 9.78125L10.4373 9.77125ZM11.5053 8.71925C11.6154 8.83171 11.6977 8.96821 11.746 9.11799C11.7942 9.26776 11.807 9.4267 11.7833 9.58225C11.9282 9.50951 12.0881 9.47163 12.2503 9.47163C12.4125 9.47163 12.5724 9.50951 12.7173 9.58225C12.6938 9.42687 12.7066 9.26817 12.7544 9.1185C12.8023 8.96882 12.884 8.8322 12.9933 8.71925C12.8349 8.69225 12.685 8.62841 12.5558 8.53288C12.4266 8.43735 12.3216 8.31279 12.2493 8.16925C12.1757 8.31138 12.0702 8.43459 11.9412 8.5293C11.8121 8.624 11.663 8.68764 11.5053 8.71525V8.71925ZM13.9493 8.85725H13.9633H13.9493ZM10.5623 8.85725H10.5483H10.5623Z" fill="#000000" />
</svg>