<svg width="24px"  height="24px"  viewBox="0 0 25 24" fill="none" xmlns="http://www.w3.org/2000/svg">
<path d="M16.466 21.75H8.032C4.723 21.75 2.5 19.429 2.5 15.974V8.026C2.5 4.571 4.723 2.25 8.032 2.25H16.467C19.776 2.25 22 4.571 22 8.026V15.974C22 19.429 19.776 21.75 16.466 21.75ZM8.032 3.75C5.583 3.75 4 5.429 4 8.026V15.974C4 18.574 5.583 20.25 8.032 20.25H16.466C18.917 20.25 20.5 18.571 20.5 15.974V8.026C20.5 5.426 18.917 3.75 16.467 3.75H8.032Z" fill="#000000" />
<path d="M12.2486 16.588C12.0387 16.5876 11.8311 16.5435 11.6391 16.4585C11.4472 16.3734 11.275 16.2493 11.1336 16.0941L7.66163 12.2811C7.40614 12.0018 7.25281 11.6443 7.22666 11.2667C7.20051 10.8891 7.30308 10.5138 7.51763 10.2021L8.91764 8.14804C9.07154 7.92172 9.27848 7.73653 9.52042 7.60858C9.76236 7.48064 10.032 7.41386 10.3056 7.41406H14.1956C14.4702 7.41373 14.7407 7.48084 14.9832 7.60953C15.2258 7.73821 15.433 7.92453 15.5866 8.15207L16.9866 10.2031C17.2002 10.5149 17.3021 10.8899 17.2756 11.267C17.2491 11.6441 17.0958 12.0011 16.8406 12.2801L13.3696 16.096C13.2271 16.2512 13.0538 16.3751 12.8608 16.4598C12.6678 16.5445 12.4594 16.5882 12.2486 16.588ZM8.76963 11.2721L12.2416 15.0851L15.7286 11.2701C15.7561 11.2401 15.7725 11.2017 15.7752 11.1612C15.7779 11.1207 15.7668 11.0804 15.7436 11.0471L14.3436 8.99304C14.3272 8.96832 14.3049 8.94808 14.2787 8.93411C14.2526 8.92015 14.2233 8.91291 14.1936 8.91306H10.3036C10.2742 8.91325 10.2452 8.92063 10.2192 8.93457C10.1932 8.94851 10.1711 8.96859 10.1546 8.99304L8.75463 11.0471C8.73161 11.0809 8.72067 11.1215 8.72358 11.1623C8.72648 11.2031 8.74306 11.2418 8.77063 11.2721H8.76963Z" fill="#000000" />
</svg>