<svg width="24px"  height="24px"  viewBox="0 0 25 24" fill="none" xmlns="http://www.w3.org/2000/svg">
<path d="M12.25 21.75C10.3216 21.75 8.43657 21.1782 6.83319 20.1068C5.22981 19.0355 3.98013 17.5127 3.24217 15.7312C2.50422 13.9496 2.31114 11.9892 2.68735 10.0979C3.06356 8.20655 3.99215 6.46927 5.35572 5.10571C6.71928 3.74215 8.45656 2.81355 10.3479 2.43735C12.2392 2.06114 14.1996 2.25423 15.9812 2.99219C17.7628 3.73014 19.2855 4.97981 20.3568 6.58319C21.4282 8.18657 22 10.0716 22 12C21.9971 14.585 20.9689 17.0632 19.1411 18.8911C17.3132 20.7189 14.835 21.7471 12.25 21.75ZM12.25 3.75C10.6183 3.75 9.02326 4.23386 7.66655 5.14038C6.30985 6.0469 5.25242 7.33537 4.62799 8.84286C4.00357 10.3504 3.8402 12.0092 4.15853 13.6095C4.47685 15.2098 5.26259 16.6798 6.41637 17.8336C7.57015 18.9874 9.04016 19.7732 10.6405 20.0915C12.2408 20.4098 13.8996 20.2464 15.4071 19.622C16.9146 18.9976 18.2031 17.9402 19.1096 16.5835C20.0161 15.2268 20.5 13.6317 20.5 12C20.4976 9.81269 19.6277 7.71566 18.081 6.169C16.5343 4.62235 14.4373 3.75238 12.25 3.75Z" fill="#000000" />
<path d="M12.2486 16.588C12.0387 16.5876 11.8311 16.5435 11.6391 16.4585C11.4472 16.3734 11.275 16.2493 11.1336 16.0941L7.66163 12.2811C7.40614 12.0018 7.25281 11.6443 7.22666 11.2667C7.20051 10.8891 7.30308 10.5138 7.51763 10.2021L8.91764 8.14804C9.07154 7.92172 9.27848 7.73653 9.52042 7.60858C9.76236 7.48064 10.032 7.41386 10.3056 7.41406H14.1956C14.4702 7.41373 14.7407 7.48084 14.9832 7.60953C15.2258 7.73821 15.433 7.92453 15.5866 8.15207L16.9866 10.2031C17.2002 10.5149 17.3021 10.8899 17.2756 11.267C17.2491 11.6441 17.0958 12.0011 16.8406 12.2801L13.3696 16.096C13.2271 16.2512 13.0538 16.3751 12.8608 16.4598C12.6678 16.5445 12.4594 16.5882 12.2486 16.588ZM8.76963 11.2721L12.2416 15.0851L15.7286 11.2701C15.7561 11.2401 15.7725 11.2017 15.7752 11.1612C15.7779 11.1207 15.7668 11.0804 15.7436 11.0471L14.3436 8.99304C14.3272 8.96832 14.3049 8.94808 14.2787 8.93411C14.2526 8.92015 14.2233 8.91291 14.1936 8.91306H10.3036C10.2742 8.91325 10.2452 8.92063 10.2192 8.93457C10.1932 8.94851 10.1711 8.96859 10.1546 8.99304L8.75463 11.0471C8.73161 11.0809 8.72067 11.1215 8.72358 11.1623C8.72648 11.2031 8.74306 11.2418 8.77063 11.2721H8.76963Z" fill="#000000" />
</svg>