<svg width="24px"  height="24px"  viewBox="0 0 25 24" fill="none" xmlns="http://www.w3.org/2000/svg">
<path fill-rule="evenodd" clip-rule="evenodd" d="M6.39258 10.2461C6.39258 9.83188 6.72836 9.49609 7.14258 9.49609H17.359C17.7732 9.49609 18.109 9.83188 18.109 10.2461C18.109 10.6603 17.7732 10.9961 17.359 10.9961H7.14258C6.72836 10.9961 6.39258 10.6603 6.39258 10.2461Z" fill="#000000" />
<path d="M12.2471 20.8346C11.9197 20.8343 11.596 20.7658 11.2966 20.6334C10.9971 20.501 10.7286 20.3076 10.5081 20.0656L3.20813 12.0396C2.79634 11.5896 2.54905 11.0134 2.50656 10.4049C2.46407 9.79641 2.62888 9.19146 2.97413 8.6886L5.92413 4.3656C6.17286 4.00113 6.50684 3.70295 6.89705 3.49695C7.28726 3.29095 7.72189 3.18337 8.16313 3.18359H16.3471C16.7885 3.18331 17.2232 3.29094 17.6135 3.49713C18.0037 3.70332 18.3377 4.00183 18.5861 4.36661L21.5291 8.68961C21.8737 9.19271 22.0379 9.79766 21.9949 10.4059C21.9518 11.0142 21.7041 11.59 21.2921 12.0396L13.9861 20.0666C13.7656 20.3085 13.4971 20.5018 13.1976 20.634C12.8982 20.7663 12.5745 20.8346 12.2471 20.8346ZM8.15813 4.68359C7.96101 4.68325 7.7668 4.7312 7.59247 4.82324C7.41815 4.91528 7.26903 5.04863 7.15813 5.21161L4.20713 9.5336C4.05045 9.75762 3.97495 10.0284 3.99313 10.3012C4.01132 10.574 4.1221 10.8324 4.30713 11.0336L11.6131 19.0606C11.6943 19.1454 11.7917 19.2129 11.8997 19.2591C12.0076 19.3052 12.1238 19.3289 12.2411 19.3289C12.3585 19.3289 12.4747 19.3052 12.5826 19.2591C12.6905 19.2129 12.788 19.1454 12.8691 19.0606L20.1771 11.0316C20.3621 10.8305 20.4732 10.5725 20.4923 10.3C20.5114 10.0274 20.4373 9.75648 20.2821 9.53159L17.3471 5.20761C17.2362 5.04463 17.0871 4.91129 16.9128 4.81924C16.7385 4.7272 16.5443 4.67925 16.3471 4.6796L8.15813 4.68359Z" fill="#000000" />
</svg>