<svg width="24px"  height="24px"  viewBox="0 0 25 24" fill="none" xmlns="http://www.w3.org/2000/svg">
<path fill-rule="evenodd" clip-rule="evenodd" d="M8.1603 4.67188C7.76002 4.67188 7.38592 4.86962 7.1609 5.19964L4.21061 9.52291C3.89499 9.98494 3.93769 10.6045 4.31422 11.0192C4.31431 11.0193 4.31412 11.0191 4.31422 11.0192L11.6203 19.0463C11.9571 19.4167 12.5403 19.4169 12.8771 19.0465L20.1845 11.0181C20.5611 10.6049 20.6053 9.98605 20.2895 9.52228L17.3474 5.20061C17.1222 4.87029 16.747 4.67188 16.3471 4.67188H8.1603ZM5.92156 4.35464C6.42629 3.61437 7.26455 3.17188 8.1603 3.17188H16.3471C17.2432 3.17188 18.0823 3.61564 18.5868 4.35561L21.5294 8.67803C22.2351 9.71447 22.139 11.1002 21.2938 12.0278M21.2938 12.0278L13.9869 20.0557C13.0549 21.0805 11.4427 21.0805 10.5108 20.0557L3.20479 12.0287C2.36153 11.1007 2.26395 9.71363 2.97162 8.6774C2.97168 8.6773 2.97155 8.6775 2.97162 8.6774L5.92156 4.35464" fill="#000000" />
</svg>