<svg width="24px"  height="24px"  viewBox="0 0 25 24" fill="none" xmlns="http://www.w3.org/2000/svg">
<path fill-rule="evenodd" clip-rule="evenodd" d="M4.52351 8.78116C5.25831 7.94762 6.31048 7.48047 7.54707 7.48047H16.9545C18.1907 7.48047 19.2426 7.94769 19.9772 8.78122C20.7032 9.60484 21.0689 10.7272 21.0689 11.9656V17.2653C21.0689 18.5047 20.7009 19.6269 19.9743 20.4501C19.2393 21.2828 18.1878 21.7504 16.9545 21.7504H7.54609C6.30989 21.7504 5.25797 21.2832 4.52334 20.4497C3.79743 19.626 3.43164 18.5037 3.43164 17.2653V11.9656C3.43164 10.7272 3.79744 9.6048 4.52351 8.78116ZM5.64872 9.77308C5.21091 10.2697 4.93164 11.0149 4.93164 11.9656V17.2653C4.93164 18.2159 5.21091 18.9612 5.64865 19.4579C6.07767 19.9446 6.70797 20.2504 7.54609 20.2504H16.9545C17.7887 20.2504 18.4194 19.945 18.8497 19.4574C19.2885 18.9603 19.5689 18.2149 19.5689 17.2653V11.9656C19.5689 11.0149 19.2897 10.2697 18.8519 9.77302C18.4229 9.28625 17.7926 8.98047 16.9545 8.98047H7.54707C6.70835 8.98047 6.07781 9.28633 5.64872 9.77308Z" fill="#000000" />
<path fill-rule="evenodd" clip-rule="evenodd" d="M9.56567 2.57673C9.80623 2.61704 10.0122 2.7718 10.1178 2.99166L12.4721 7.89256L14.7343 12.3106C14.9231 12.6792 14.7773 13.1312 14.4086 13.32C14.0399 13.5087 13.588 13.3629 13.3992 12.9942L11.1326 8.56774L11.1241 8.55067L9.22655 4.60054L8.04544 5.79475L10.5542 7.61936C10.8892 7.863 10.9632 8.33206 10.7196 8.66705C10.476 9.00203 10.0069 9.07609 9.67192 8.83245L6.4573 6.49446C6.2805 6.36587 6.1686 6.16654 6.1509 5.94864C6.1332 5.73074 6.21146 5.51596 6.36519 5.36052L8.90848 2.78902C9.07999 2.6156 9.32512 2.53642 9.56567 2.57673Z" fill="#000000" />
<path fill-rule="evenodd" clip-rule="evenodd" d="M14.1024 2.26847C14.3276 2.21757 14.5636 2.27319 14.7424 2.41927L18.0747 5.14255C18.263 5.29638 18.365 5.53192 18.3484 5.77446C18.3318 6.01701 18.1987 6.23646 17.9913 6.36324L13.8903 8.86955C13.5368 9.08555 13.0752 8.97414 12.8592 8.62071C12.6432 8.26727 12.7546 7.80565 13.1081 7.58965L16.3067 5.63482L14.5364 4.18809L12.4787 8.54778C12.472 8.56179 12.465 8.57559 12.4575 8.58916L10.1241 12.8308C9.92441 13.1937 9.46835 13.3261 9.10543 13.1264C8.74251 12.9267 8.61016 12.4707 8.80981 12.1078L11.1321 7.88651L13.5896 2.67988C13.6881 2.47112 13.8773 2.31937 14.1024 2.26847Z" fill="#000000" />
</svg>