<svg width="24px"  height="24px"  viewBox="0 0 25 24" fill="none" xmlns="http://www.w3.org/2000/svg">
<path fill-rule="evenodd" clip-rule="evenodd" d="M8.6469 3.75C7.97988 3.75 7.39551 4.31698 7.39551 5.07145C7.39551 5.82472 7.97966 6.39193 8.6469 6.39193H11.2577C11.1531 6.09496 11.0145 5.75712 10.8369 5.42301C10.3244 4.45882 9.61781 3.75 8.6469 3.75ZM12.2498 7.14193C12.9862 6.99957 12.9861 6.99932 12.9861 6.99905L12.9857 6.99692L12.9848 6.99276L12.9823 6.97996L12.9732 6.93715C12.9655 6.90121 12.9542 6.85074 12.9389 6.78779C12.9086 6.66204 12.8625 6.48562 12.7981 6.27524C12.6701 5.85721 12.4659 5.29163 12.1614 4.71892C11.5731 3.61215 10.4782 2.25 8.6469 2.25C7.10334 2.25 5.89551 3.5375 5.89551 5.07145C5.89551 6.60466 7.10357 7.89193 8.6469 7.89193H12.2498C12.4737 7.89193 12.6858 7.79194 12.8283 7.61928C12.9708 7.44662 13.0286 7.21883 12.9861 6.99905L12.2498 7.14193Z" fill="#000000" />
<path fill-rule="evenodd" clip-rule="evenodd" d="M12.3383 4.71895C12.9266 3.61217 14.0214 2.25 15.8527 2.25C17.3962 2.25 18.6041 3.5375 18.6041 5.07145C18.6041 6.60466 17.396 7.89193 15.8527 7.89193H12.25C12.0262 7.89193 11.814 7.79194 11.6715 7.6193C11.5291 7.44665 11.4712 7.21938 11.5136 6.99961L12.25 7.14193C11.5136 6.99961 11.5136 6.99987 11.5136 6.99961L11.5141 6.99696L11.515 6.9928L11.5176 6.98L11.5266 6.93719C11.5343 6.90125 11.5456 6.85077 11.5609 6.78782C11.5912 6.66208 11.6373 6.48566 11.7017 6.27528C11.8296 5.85724 12.0339 5.29166 12.3383 4.71895ZM13.2421 6.39193H15.8527C16.5199 6.39193 17.1041 5.82472 17.1041 5.07145C17.1041 4.31698 16.5197 3.75 15.8527 3.75C14.8818 3.75 14.1753 4.4588 13.6628 5.42298C13.4852 5.75711 13.3467 6.09495 13.2421 6.39193Z" fill="#000000" />
<path fill-rule="evenodd" clip-rule="evenodd" d="M4.26724 7.72886C5.02311 6.8716 6.10569 6.39062 7.3797 6.39062H17.125C18.3986 6.39062 19.4809 6.87168 20.2366 7.72891C20.9836 8.57627 21.3611 9.7322 21.3611 11.0101V17.1281C21.3611 18.4074 20.9814 19.5635 20.2338 20.4106C19.4776 21.2672 18.3957 21.7486 17.125 21.7486H7.37873C6.10509 21.7486 5.02274 21.2676 4.26702 20.4102C3.52003 19.5627 3.14258 18.4065 3.14258 17.1281V11.0101C3.14258 9.7322 3.52008 8.57623 4.26724 7.72886ZM5.39234 8.7209C4.93351 9.24127 4.64258 10.0201 4.64258 11.0101V17.1281C4.64258 18.1188 4.93355 18.8978 5.39231 19.4183C5.84235 19.9289 6.50307 20.2486 7.37873 20.2486H17.125C17.9967 20.2486 18.6578 19.9293 19.1092 19.4179C19.569 18.897 19.8611 18.1178 19.8611 17.1281V11.0101C19.8611 10.0201 19.5702 9.24124 19.1114 8.72084C18.6614 8.21033 18.0006 7.89062 17.125 7.89062H7.3797C6.50345 7.89062 5.84246 8.2104 5.39234 8.7209Z" fill="#000000" />
<path fill-rule="evenodd" clip-rule="evenodd" d="M8.97493 6.49068C9.33395 6.69726 9.45753 7.15577 9.25096 7.51479L4.53887 15.7043C4.33229 16.0633 3.87378 16.1869 3.51476 15.9803C3.15573 15.7737 3.03215 15.3152 3.23873 14.9562L7.95081 6.76671C8.15739 6.40769 8.6159 6.2841 8.97493 6.49068ZM13.9125 6.49078C14.2715 6.69745 14.395 7.156 14.1883 7.51497L6.41914 21.0091C6.21247 21.368 5.75393 21.4915 5.39496 21.2848C5.03599 21.0782 4.91253 20.6196 5.1192 20.2606L12.8884 6.76653C13.095 6.40757 13.5536 6.28411 13.9125 6.49078ZM18.7337 6.70263C19.0927 6.90926 19.2162 7.36779 19.0095 7.72678L11.1567 21.3698C10.9501 21.7287 10.4915 21.8523 10.1326 21.6456C9.77356 21.439 9.65005 20.9805 9.85668 20.6215L17.7095 6.97849C17.9161 6.6195 18.3747 6.49599 18.7337 6.70263ZM20.9807 11.3622C21.3397 11.5689 21.4632 12.0274 21.2565 12.3864L16.0852 21.3698C15.8785 21.7288 15.42 21.8523 15.061 21.6457C14.702 21.439 14.5786 20.9805 14.7852 20.6215L19.9565 11.6381C20.1632 11.2791 20.6217 11.1556 20.9807 11.3622Z" fill="#000000" />
</svg>