<svg width="24px"  height="24px"  viewBox="0 0 25 24" fill="none" xmlns="http://www.w3.org/2000/svg">
<path fill-rule="evenodd" clip-rule="evenodd" d="M8.64301 3.75C7.97598 3.75 7.3916 4.31698 7.3916 5.07146C7.3916 5.82473 7.97576 6.39195 8.64301 6.39195H11.2538C11.1492 6.09498 11.0107 5.75714 10.833 5.42302C10.3205 4.45882 9.61392 3.75 8.64301 3.75ZM12.2459 7.14195C12.9823 6.99959 12.9822 6.99934 12.9822 6.99907L12.9821 6.99846L12.9818 6.99695L12.981 6.99278L12.9784 6.97999L12.9694 6.93717C12.9616 6.90123 12.9503 6.85076 12.9351 6.78781C12.9047 6.66206 12.8586 6.48564 12.7942 6.27526C12.6662 5.85722 12.462 5.29165 12.1575 4.71893C11.5692 3.61215 10.4743 2.25 8.64301 2.25C7.09944 2.25 5.8916 3.53751 5.8916 5.07146C5.8916 6.60468 7.09966 7.89195 8.64301 7.89195H12.2459C12.4698 7.89195 12.6819 7.79196 12.8244 7.6193C12.9669 7.44664 13.0248 7.21937 12.9823 6.99959L12.2459 7.14195Z" fill="#000000" />
<path fill-rule="evenodd" clip-rule="evenodd" d="M12.3344 4.71896C12.9227 3.61217 14.0175 2.25 15.8488 2.25C17.3924 2.25 18.6002 3.53751 18.6002 5.07146C18.6002 6.60468 17.3921 7.89195 15.8488 7.89195H12.2461C12.0223 7.89195 11.8101 7.79196 11.6676 7.61932C11.5252 7.44667 11.4673 7.21941 11.5097 6.99963L12.2461 7.14195C11.5097 6.99963 11.5097 6.99989 11.5097 6.99963L11.5102 6.99698L11.5111 6.99282L11.5136 6.98002L11.5227 6.93721C11.5304 6.90127 11.5417 6.85079 11.5569 6.78784C11.5873 6.6621 11.6334 6.48568 11.6978 6.2753C11.8257 5.85726 12.03 5.29168 12.3344 4.71896ZM13.2382 6.39195H15.8488C16.516 6.39195 17.1002 5.82473 17.1002 5.07146C17.1002 4.31698 16.5158 3.75 15.8488 3.75C14.8779 3.75 14.1714 4.4588 13.6589 5.42299C13.4813 5.75712 13.3428 6.09497 13.2382 6.39195Z" fill="#000000" />
<path fill-rule="evenodd" clip-rule="evenodd" d="M4.26084 7.73312C5.01581 6.87581 6.09785 6.39453 7.37289 6.39453H17.1182C18.393 6.39453 19.4769 6.87556 20.2341 7.73199C20.9829 8.57882 21.3621 9.73417 21.3621 11.0111V17.1321C21.3621 18.4103 20.98 19.5655 20.2304 20.4117C19.4726 21.2672 18.3893 21.7487 17.1182 21.7487H7.37289C6.09785 21.7487 5.01581 21.2674 4.26084 20.4101C3.51473 19.5629 3.13867 18.4077 3.13867 17.1321V11.0111C3.13867 9.73555 3.51473 8.58037 4.26084 7.73312ZM5.38656 8.72446C4.92862 9.24448 4.63867 10.0226 4.63867 11.0111V17.1321C4.63867 18.1206 4.92862 18.8988 5.38656 19.4188C5.83564 19.9287 6.49571 20.2487 7.37289 20.2487H17.1182C17.9906 20.2487 18.6542 19.9289 19.1075 19.4171C19.5691 18.8961 19.8621 18.118 19.8621 17.1321V11.0111C19.8621 10.024 19.5706 9.24603 19.1104 8.72558C18.6587 8.21474 17.9956 7.89453 17.1182 7.89453H7.37289C6.49571 7.89453 5.83564 8.2145 5.38656 8.72446Z" fill="#000000" />
<path fill-rule="evenodd" clip-rule="evenodd" d="M14.304 6.39453C14.7183 6.39393 15.0545 6.72923 15.0551 7.14344L15.0649 13.8521C15.0652 14.0925 14.9503 14.3184 14.7559 14.4598C14.5616 14.6011 14.3112 14.6407 14.0826 14.5663L12.2528 13.9705L10.4228 14.5751C10.1942 14.6506 9.94324 14.6118 9.74815 14.4708C9.55305 14.3297 9.4375 14.1036 9.4375 13.8629V7.16399C9.4375 6.74978 9.77329 6.41399 10.1875 6.41399C10.6017 6.41399 10.9375 6.74978 10.9375 7.16399V12.8253L12.0111 12.4707C12.087 12.4456 12.1664 12.4328 12.2463 12.4328H12.256C12.3349 12.4328 12.4133 12.4452 12.4883 12.4697L13.5634 12.8197L13.5551 7.14562C13.5545 6.73141 13.8898 6.39513 14.304 6.39453Z" fill="#000000" />
</svg>