<svg width="24px"  height="24px"  viewBox="0 0 25 24" fill="none" xmlns="http://www.w3.org/2000/svg">
<path fill-rule="evenodd" clip-rule="evenodd" d="M8.64593 3.75C7.97891 3.75 7.39453 4.31698 7.39453 5.07145C7.39453 5.82472 7.97868 6.39193 8.64593 6.39193C9.06014 6.39193 9.39593 6.72771 9.39593 7.14193C9.39593 7.55614 9.06014 7.89193 8.64593 7.89193C7.10259 7.89193 5.89453 6.60466 5.89453 5.07145C5.89453 3.5375 7.10236 2.25 8.64593 2.25C10.4772 2.25 11.572 3.61217 12.1603 4.71896C12.4647 5.29168 12.6689 5.85726 12.7968 6.27529C12.8612 6.48567 12.9073 6.66209 12.9377 6.78784C12.9529 6.85079 12.9642 6.90127 12.972 6.9372L12.981 6.98002L12.9836 6.99281L12.9844 6.99698L12.9847 6.99849C12.9847 6.99875 12.9849 6.99961 12.2751 7.1368L12.9849 6.99962C13.0635 7.40631 12.7975 7.79971 12.3908 7.8783C11.9845 7.95683 11.5914 7.6914 11.5124 7.28533C11.5123 7.28518 11.5124 7.28549 11.5124 7.28533L11.5121 7.28424L11.5113 7.28008L11.5057 7.25362C11.5004 7.22889 11.4918 7.19038 11.4796 7.14007C11.4553 7.03931 11.4169 6.89214 11.3625 6.71421C11.2528 6.35564 11.0817 5.88573 10.8358 5.42297C10.3233 4.45879 9.61681 3.75 8.64593 3.75Z" fill="#000000" />
<path fill-rule="evenodd" clip-rule="evenodd" d="M12.3366 4.71892C12.9249 3.61215 14.0198 2.25 15.8511 2.25C17.3947 2.25 18.6025 3.5375 18.6025 5.07145C18.6025 6.60466 17.3944 7.89193 15.8511 7.89193C15.4369 7.89193 15.1011 7.55614 15.1011 7.14193C15.1011 6.72771 15.4369 6.39193 15.8511 6.39193C16.5183 6.39193 17.1025 5.82472 17.1025 5.07145C17.1025 4.31698 16.5181 3.75 15.8511 3.75C14.8802 3.75 14.1736 4.45882 13.6611 5.42301C13.4151 5.88578 13.244 6.35568 13.1342 6.71426C13.0798 6.89219 13.0414 7.03936 13.0171 7.14012C13.0049 7.19043 12.9963 7.22894 12.991 7.25368L12.9854 7.28013L12.9846 7.28429C12.9057 7.69073 12.5124 7.95689 12.1058 7.87829C11.6991 7.79967 11.4332 7.40625 11.5118 6.99957L12.2482 7.14193C11.5118 6.99957 11.5118 6.99983 11.5118 6.99957L11.5123 6.99692L11.5132 6.99276L11.5157 6.97996L11.5248 6.93715C11.5325 6.90121 11.5438 6.85074 11.5591 6.78779C11.5894 6.66204 11.6355 6.48562 11.6999 6.27524C11.8279 5.85721 12.0321 5.29163 12.3366 4.71892Z" fill="#000000" />
<path fill-rule="evenodd" clip-rule="evenodd" d="M4.26529 7.72886C5.02116 6.8716 6.10374 6.39062 7.37775 6.39062H17.123C18.3966 6.39062 19.479 6.87168 20.2347 7.72891C20.9816 8.57627 21.3591 9.7322 21.3591 11.0101V17.1281C21.3591 18.4074 20.9795 19.5635 20.2318 20.4106C19.4757 21.2672 18.3937 21.7486 17.123 21.7486H7.37677C6.10314 21.7486 5.02078 21.2676 4.26507 20.4102C3.51808 19.5627 3.14062 18.4065 3.14062 17.1281V11.0101C3.14062 9.7322 3.51813 8.57623 4.26529 7.72886ZM5.39039 8.7209C4.93155 9.24127 4.64062 10.0201 4.64062 11.0101V17.1281C4.64062 18.1188 4.9316 18.8978 5.39036 19.4183C5.8404 19.9289 6.50111 20.2486 7.37677 20.2486H17.123C17.9947 20.2486 18.6559 19.9293 19.1072 19.4179C19.567 18.897 19.8591 18.1178 19.8591 17.1281V11.0101C19.8591 10.0201 19.5682 9.24124 19.1095 8.72084C18.6594 8.21033 17.9987 7.89062 17.123 7.89062H7.37775C6.50149 7.89062 5.84051 8.2104 5.39039 8.7209Z" fill="#000000" />
<path fill-rule="evenodd" clip-rule="evenodd" d="M12.6348 6.4983C12.9896 6.71205 13.1039 7.17295 12.8902 7.52775L10.664 11.2231C10.4503 11.5779 9.98939 11.6922 9.63458 11.4785C9.27978 11.2648 9.16542 10.8039 9.37916 10.4491L11.6053 6.75372C11.8191 6.39892 12.28 6.28456 12.6348 6.4983Z" fill="#000000" />
<path fill-rule="evenodd" clip-rule="evenodd" d="M11.8611 6.49833C12.2159 6.28456 12.6768 6.39889 12.8906 6.75368L15.117 10.449C15.3308 10.8038 15.2165 11.2647 14.8617 11.4785C14.5069 11.6922 14.046 11.5779 13.8322 11.2231L11.6058 7.52779C11.392 7.173 11.5063 6.71209 11.8611 6.49833Z" fill="#000000" />
<path fill-rule="evenodd" clip-rule="evenodd" d="M3.14062 16.2422C3.14062 15.828 3.47641 15.4922 3.89062 15.4922H20.6082C21.0224 15.4922 21.3582 15.828 21.3582 16.2422C21.3582 16.6564 21.0224 16.9922 20.6082 16.9922H3.89062C3.47641 16.9922 3.14062 16.6564 3.14062 16.2422Z" fill="#000000" />
</svg>