<svg width="24px"  height="24px"  viewBox="0 0 25 24" fill="none" xmlns="http://www.w3.org/2000/svg">
<path fill-rule="evenodd" clip-rule="evenodd" d="M8.20067 3.75C7.37143 3.75 6.7002 4.42221 6.7002 5.2495C6.7002 6.07874 7.37143 6.74998 8.20067 6.74998H11.2538C11.1326 6.40732 10.967 6.00723 10.7493 5.6114C10.1745 4.56618 9.35829 3.75 8.20067 3.75ZM12.2502 7.49998C12.9856 7.35289 12.9855 7.35263 12.9855 7.35235L12.985 7.35012L12.9841 7.34571L12.9813 7.33202C12.9789 7.32078 12.9756 7.30534 12.9713 7.28597C12.9626 7.24724 12.95 7.19275 12.9329 7.12472C12.899 6.98883 12.8474 6.79803 12.7753 6.57045C12.6321 6.11799 12.4036 5.50677 12.0637 4.88858C11.4011 3.68381 10.1925 2.25 8.20067 2.25C6.543 2.25 5.2002 3.59378 5.2002 5.2495C5.2002 6.90717 6.543 8.24998 8.20067 8.24998H12.2502C12.4749 8.24998 12.6877 8.14923 12.8302 7.97547C12.9726 7.8017 13.0296 7.57268 12.9855 7.35235L12.2502 7.49998Z" fill="#000000" />
<path fill-rule="evenodd" clip-rule="evenodd" d="M12.4383 4.88862C13.1007 3.68383 14.3092 2.25 16.3011 2.25C17.9587 2.25 19.3015 3.59378 19.3015 5.2495C19.3015 6.90717 17.9587 8.24998 16.3011 8.24998H12.252C12.0273 8.24998 11.8144 8.14924 11.672 7.97549C11.5295 7.80174 11.4725 7.57327 11.5165 7.35295L12.252 7.49998C11.5165 7.35295 11.5165 7.35322 11.5165 7.35295L11.5171 7.35018L11.518 7.34577L11.5208 7.33208C11.5232 7.32084 11.5265 7.3054 11.5309 7.28603C11.5395 7.2473 11.5521 7.19281 11.5691 7.12478C11.6031 6.98888 11.6547 6.79808 11.7267 6.5705C11.8699 6.11804 12.0983 5.50681 12.4383 4.88862ZM13.2483 6.74998H16.3011C17.1303 6.74998 17.8015 6.07874 17.8015 5.2495C17.8015 4.42221 17.1303 3.75 16.3011 3.75C15.1435 3.75 14.3274 4.56615 13.7527 5.61136C13.535 6.00721 13.3694 6.40731 13.2483 6.74998Z" fill="#000000" />
<path fill-rule="evenodd" clip-rule="evenodd" d="M2.73242 9.29815C2.73242 7.90583 3.86145 6.77734 5.2542 6.77734H19.1384C20.5898 6.77734 21.7663 7.95377 21.7663 9.40517V10.2215C21.7663 11.6148 20.6363 12.7433 19.2445 12.7433H5.36025C3.90911 12.7433 2.73242 11.5671 2.73242 10.1164V9.29815ZM5.2542 8.27734C4.68934 8.27734 4.23242 8.73479 4.23242 9.29815V10.1164C4.23242 10.7382 4.73703 11.2433 5.36025 11.2433H19.2445C19.8084 11.2433 20.2663 10.7858 20.2663 10.2215V9.40517C20.2663 8.7822 19.7614 8.27734 19.1384 8.27734H5.2542Z" fill="#000000" />
<path fill-rule="evenodd" clip-rule="evenodd" d="M5.02734 11.2695C5.44156 11.2695 5.77734 11.6053 5.77734 12.0195V18.5277C5.77734 19.4776 6.54782 20.2481 7.49771 20.2481H17.0036C17.9531 20.2481 18.723 19.478 18.723 18.5277V12.0195C18.723 11.6053 19.0588 11.2695 19.473 11.2695C19.8872 11.2695 20.223 11.6053 20.223 12.0195V18.5277C20.223 20.3056 18.7823 21.7481 17.0036 21.7481H7.49771C5.71939 21.7481 4.27734 20.306 4.27734 18.5277V12.0195C4.27734 11.6053 4.61313 11.2695 5.02734 11.2695Z" fill="#000000" />
<path fill-rule="evenodd" clip-rule="evenodd" d="M12.25 11.3477C12.6642 11.3477 13 11.6834 13 12.0977V21.0003C13 21.4145 12.6642 21.7503 12.25 21.7503C11.8358 21.7503 11.5 21.4145 11.5 21.0003V12.0977C11.5 11.6834 11.8358 11.3477 12.25 11.3477Z" fill="#000000" />
</svg>