<svg width="24px"  height="24px"  viewBox="0 0 25 24" fill="none" xmlns="http://www.w3.org/2000/svg">
<path d="M17.1236 21.7486H7.3776C4.8436 21.7486 3.1416 19.8916 3.1416 17.1276V11.0096C3.1416 8.24661 4.8416 6.39062 7.3786 6.39062H17.1236C19.6566 6.39062 21.3586 8.24661 21.3586 11.0096V17.1276C21.3586 19.8486 19.6176 21.7486 17.1236 21.7486ZM7.3786 7.89062C5.6896 7.89062 4.6416 9.08561 4.6416 11.0096V17.1276C4.6416 19.0526 5.6896 20.2486 7.3776 20.2486H17.1236C18.7856 20.2486 19.8586 19.0226 19.8586 17.1276V11.0096C19.8586 9.08561 18.8106 7.89062 17.1236 7.89062H7.3786Z" fill="#000000" />
<path d="M12.251 21.7469C12.0521 21.7469 11.8613 21.6679 11.7206 21.5272C11.58 21.3866 11.501 21.1958 11.501 20.9969V17.2969C11.501 17.098 11.58 16.9072 11.7206 16.7665C11.8613 16.6259 12.0521 16.5469 12.251 16.5469C12.4499 16.5469 12.6407 16.6259 12.7813 16.7665C12.922 16.9072 13.001 17.098 13.001 17.2969V20.9999C13.0002 21.1983 12.9208 21.3883 12.7802 21.5283C12.6397 21.6683 12.4494 21.7469 12.251 21.7469Z" fill="#000000" />
<path d="M12.2502 7.892H8.6502C7.91503 7.87242 7.21654 7.56662 6.70348 7.03972C6.19042 6.51281 5.90332 5.80643 5.90332 5.071C5.90332 4.33557 6.19042 3.62918 6.70348 3.10228C7.21654 2.57537 7.91503 2.26958 8.6502 2.25C12.0322 2.25 12.9502 6.80599 12.9892 6.99899C13.0105 7.10758 13.0074 7.21953 12.9803 7.3268C12.9531 7.43406 12.9025 7.53398 12.8322 7.61937C12.7618 7.70476 12.6734 7.77349 12.5733 7.82063C12.4732 7.86777 12.3639 7.89214 12.2532 7.892H12.2502ZM8.6502 3.75C8.31242 3.76859 7.99459 3.91588 7.76205 4.16158C7.52951 4.40727 7.39992 4.73271 7.39992 5.071C7.39992 5.40929 7.52951 5.73473 7.76205 5.98042C7.99459 6.22612 8.31242 6.3734 8.6502 6.392H11.2612C10.8912 5.344 10.0952 3.75 8.6502 3.75Z" fill="#000000" />
<path d="M15.8509 7.892H12.2509C12.1403 7.89214 12.031 7.86777 11.9309 7.82063C11.8308 7.77349 11.7424 7.70476 11.672 7.61937C11.6016 7.53398 11.551 7.43406 11.5239 7.3268C11.4967 7.21953 11.4937 7.10758 11.5149 6.99899C11.5519 6.80599 12.4719 2.25 15.8539 2.25C16.5891 2.26958 17.2876 2.57537 17.8007 3.10228C18.3137 3.62918 18.6008 4.33557 18.6008 5.071C18.6008 5.80643 18.3137 6.51281 17.8007 7.03972C17.2876 7.56662 16.5891 7.87242 15.8539 7.892H15.8509ZM13.2449 6.392H15.8509C16.1887 6.3734 16.5066 6.22612 16.7391 5.98042C16.9716 5.73473 17.1012 5.40929 17.1012 5.071C17.1012 4.73271 16.9716 4.40727 16.7391 4.16158C16.5066 3.91588 16.1887 3.76859 15.8509 3.75C14.4179 3.75 13.6169 5.345 13.2459 6.392H13.2449Z" fill="#000000" />
<path d="M14.7217 14.8196C14.6043 14.82 14.4883 14.7927 14.3834 14.74C14.2784 14.6873 14.1873 14.6107 14.1174 14.5162C14.0475 14.4218 14.0008 14.3123 13.981 14.1965C13.9613 14.0807 13.9691 13.9619 14.0037 13.8496C14.1879 13.4707 14.2756 13.0522 14.259 12.6312C14.2425 12.2102 14.1221 11.7999 13.9087 11.4366C13.7191 11.2182 13.5054 11.022 13.2717 10.8516C12.8949 10.5762 12.5616 10.2459 12.2827 9.87161C11.7559 9.05944 11.4833 8.10858 11.4997 7.14062C11.4997 6.94171 11.5787 6.75094 11.7194 6.61029C11.8601 6.46964 12.0508 6.39062 12.2497 6.39062C12.4486 6.39062 12.6394 6.46964 12.7801 6.61029C12.9207 6.75094 12.9997 6.94171 12.9997 7.14062C12.9853 7.80531 13.1661 8.45961 13.5197 9.02261C13.7169 9.27303 13.9485 9.49423 14.2077 9.67961C14.5309 9.91907 14.825 10.1956 15.0837 10.5036C15.4422 11.0602 15.6615 11.6948 15.7231 12.3539C15.7847 13.013 15.6869 13.6773 15.4377 14.2906C15.3905 14.4437 15.2955 14.5776 15.1667 14.6728C15.0379 14.768 14.8819 14.8195 14.7217 14.8196Z" fill="#000000" />
<path d="M8.78232 15.9347C8.63156 15.9347 8.4843 15.8893 8.35973 15.8043C8.23517 15.7194 8.13909 15.5989 8.08403 15.4586C8.02897 15.3182 8.01749 15.1646 8.05108 15.0176C8.08467 14.8706 8.16177 14.7372 8.27232 14.6347C8.81022 14.1211 9.23227 13.4985 9.51026 12.8087C9.78826 12.1189 9.91579 11.3777 9.88433 10.6347C9.92305 9.61284 10.169 8.60955 10.6073 7.68568C10.8579 7.1866 11.1377 6.70275 11.4453 6.23667C11.6553 5.90467 11.8663 5.57367 12.0513 5.22767C12.1495 5.05964 12.309 4.93627 12.4963 4.88355C12.6837 4.83083 12.8841 4.85289 13.0555 4.94506C13.2269 5.03723 13.3558 5.19233 13.4151 5.37768C13.4744 5.56303 13.4594 5.76414 13.3733 5.93867C13.1733 6.31467 12.9413 6.67767 12.7123 7.03867C12.4361 7.45466 12.185 7.88677 11.9603 8.33268C11.61 9.07457 11.4137 9.87978 11.3833 10.6997C11.3984 11.6371 11.2205 12.5676 10.8608 13.4335C10.5011 14.2993 9.96724 15.0819 9.29233 15.7327C9.15409 15.8622 8.97179 15.9345 8.78232 15.9347Z" fill="#000000" />
</svg>