<svg width="24px"  height="24px"  viewBox="0 0 25 24" fill="none" xmlns="http://www.w3.org/2000/svg">
<path fill-rule="evenodd" clip-rule="evenodd" d="M3.9902 3.89737C4.97468 2.84117 6.37669 2.25 8.03216 2.25H16.4669C18.1262 2.25 19.5288 2.84084 20.5129 3.89765C21.4913 4.94841 22 6.39889 22 8.02638V15.9736C22 17.6011 21.4913 19.0516 20.5127 20.1024C19.5285 21.1592 18.1256 21.75 16.4659 21.75H8.03216C6.3728 21.75 4.97038 21.1591 3.98657 20.1023C3.00842 19.0515 2.5 17.601 2.5 15.9736V8.02638C2.5 6.39806 3.01117 4.94771 3.9902 3.89737ZM5.08745 4.92012C4.41024 5.64666 4 6.70951 4 8.02638V15.9736C4 17.2914 4.40861 18.3541 5.08451 19.0802C5.75475 19.8003 6.74341 20.25 8.03216 20.25H16.4659C17.7552 20.25 18.7444 19.8002 19.415 19.0801C20.0912 18.354 20.5 17.2913 20.5 15.9736V8.02638C20.5 6.70868 20.0912 5.64597 19.4151 4.91984C18.7446 4.19975 17.7556 3.75 16.4669 3.75H8.03216C6.74828 3.75 5.75921 4.19943 5.08745 4.92012Z" fill="#000000" />
<path fill-rule="evenodd" clip-rule="evenodd" d="M11.0494 11.6445C10.8207 11.6445 10.6367 11.8291 10.6367 12.0563C10.6367 12.4229 10.8633 12.8515 11.4298 13.2236C11.8322 13.4881 12.3678 13.6927 12.9868 13.7869C12.8782 12.4918 11.9609 11.6445 11.0494 11.6445ZM13.7494 14.795C13.7497 14.795 13.7501 14.795 13.7504 14.795C14.1646 14.795 14.5004 14.4592 14.5004 14.045C14.5004 13.9572 14.504 13.8711 14.5111 13.787C15.13 13.6928 15.6657 13.4882 16.0682 13.2236C16.6345 12.8515 16.8612 12.4229 16.8612 12.0563C16.8612 11.8283 16.6774 11.6445 16.4494 11.6445C15.5369 11.6445 14.6196 12.492 14.5111 13.787C14.5041 13.7881 14.497 13.7891 14.49 13.7902C14.4432 12.9926 14.1784 12.2344 13.749 11.6181C14.3637 10.7359 15.3159 10.1445 16.4494 10.1445C17.5058 10.1445 18.3612 10.9999 18.3612 12.0563C18.3612 13.0907 17.7233 13.9309 16.892 14.4772C16.0543 15.0277 14.9411 15.3438 13.7494 15.3438C12.5573 15.3438 11.4439 15.0277 10.6061 14.4772C9.77459 13.9309 9.13672 13.0907 9.13672 12.0563C9.13672 10.9991 9.99386 10.1445 11.0494 10.1445C12.1824 10.1445 13.1343 10.736 13.749 11.6181" fill="#000000" />
<path fill-rule="evenodd" clip-rule="evenodd" d="M13.7479 13.8438C13.9591 13.8438 14.1605 13.9328 14.3026 14.0891L17.1684 17.2396C17.4471 17.546 17.4247 18.0203 17.1183 18.299C16.8119 18.5778 16.3375 18.5553 16.0588 18.2489L13.7477 15.7082L11.4356 18.249C11.1568 18.5554 10.6824 18.5777 10.3761 18.2989C10.0697 18.0202 10.0474 17.5458 10.3262 17.2395L13.1931 14.089C13.3352 13.9328 13.5367 13.8437 13.7479 13.8438Z" fill="#000000" />
<path fill-rule="evenodd" clip-rule="evenodd" d="M2.5 14.6719C2.5 14.2577 2.83579 13.9219 3.25 13.9219H21.25C21.6642 13.9219 22 14.2577 22 14.6719C22 15.0861 21.6642 15.4219 21.25 15.4219H3.25C2.83579 15.4219 2.5 15.0861 2.5 14.6719Z" fill="#000000" />
<path fill-rule="evenodd" clip-rule="evenodd" d="M13.748 2.25C14.1623 2.25 14.498 2.58579 14.498 3V21C14.498 21.4142 14.1623 21.75 13.748 21.75C13.3338 21.75 12.998 21.4142 12.998 21V3C12.998 2.58579 13.3338 2.25 13.748 2.25Z" fill="#000000" />
</svg>