<svg width="24px"  height="24px"  viewBox="0 0 25 24" fill="none" xmlns="http://www.w3.org/2000/svg">
<path fill-rule="evenodd" clip-rule="evenodd" d="M3.9902 3.89737C4.97468 2.84117 6.37669 2.25 8.03216 2.25H16.4669C18.1262 2.25 19.5288 2.84084 20.5129 3.89765C21.4913 4.94841 22 6.39889 22 8.02638V15.9736C22 17.6011 21.4913 19.0516 20.5127 20.1024C19.5285 21.1592 18.1256 21.75 16.4659 21.75H8.03216C6.3728 21.75 4.97038 21.1591 3.98657 20.1023C3.00842 19.0515 2.5 17.601 2.5 15.9736V8.02638C2.5 6.39806 3.01117 4.94771 3.9902 3.89737ZM5.08745 4.92012C4.41024 5.64666 4 6.70951 4 8.02638V15.9736C4 17.2914 4.40861 18.3541 5.08451 19.0802C5.75475 19.8003 6.74341 20.25 8.03216 20.25H16.4659C17.7552 20.25 18.7444 19.8002 19.415 19.0801C20.0912 18.354 20.5 17.2913 20.5 15.9736V8.02638C20.5 6.70868 20.0912 5.64597 19.4151 4.91984C18.7446 4.19975 17.7556 3.75 16.4669 3.75H8.03216C6.74828 3.75 5.75921 4.19943 5.08745 4.92012Z" fill="#000000" />
<path fill-rule="evenodd" clip-rule="evenodd" d="M8.80606 8.03125C8.40168 8.03125 8.07422 8.35838 8.07422 8.76309C8.07422 9.32222 8.4199 9.9255 9.17889 10.4242C9.77431 10.8155 10.5769 11.104 11.4974 11.2075C11.4567 9.33809 10.1666 8.03125 8.80606 8.03125ZM13.0023 11.2074C13.9229 11.1039 14.7255 10.8154 15.3208 10.4242C16.0799 9.92548 16.4256 9.3222 16.4256 8.76309C16.4256 8.3587 16.0984 8.03125 15.6928 8.03125C14.3333 8.03125 13.0431 9.33791 13.0023 11.2074ZM12.2499 8.5807C12.9895 7.36236 14.2215 6.53125 15.6928 6.53125C16.9256 6.53125 17.9256 7.52899 17.9256 8.76309C17.9256 9.99035 17.1684 11.0051 16.1445 11.6778C15.1142 12.3548 13.7349 12.7492 12.2494 12.7492C10.7643 12.7492 9.38528 12.3547 8.35514 11.6778C7.3314 11.0051 6.57422 9.99034 6.57422 8.76309C6.57422 7.52931 7.57389 6.53125 8.80606 6.53125C10.2778 6.53125 11.5102 7.36233 12.2499 8.5807Z" fill="#000000" />
<path fill-rule="evenodd" clip-rule="evenodd" d="M11.8572 11.3609C12.1112 11.2049 12.4334 11.2141 12.6781 11.3844C14.3427 12.5426 15.7519 13.9276 16.5837 15.6982C16.7598 16.0731 16.5987 16.5198 16.2238 16.6959C15.8488 16.872 15.4022 16.7108 15.226 16.3359C14.6063 15.0168 13.5685 13.9031 12.2241 12.9049C10.632 13.954 9.64981 15.0519 9.31507 16.2231C9.20124 16.6214 8.78611 16.852 8.38784 16.7382C7.98958 16.6243 7.75899 16.2092 7.87282 15.8109C8.39121 13.9971 9.90935 12.557 11.8572 11.3609Z" fill="#000000" />
<path fill-rule="evenodd" clip-rule="evenodd" d="M12.25 2.25C12.6642 2.25 13 2.58579 13 3V21C13 21.4142 12.6642 21.75 12.25 21.75C11.8358 21.75 11.5 21.4142 11.5 21V3C11.5 2.58579 11.8358 2.25 12.25 2.25Z" fill="#000000" />
<path fill-rule="evenodd" clip-rule="evenodd" d="M2.5 12C2.5 11.5858 2.83579 11.25 3.25 11.25H21.25C21.6642 11.25 22 11.5858 22 12C22 12.4142 21.6642 12.75 21.25 12.75H3.25C2.83579 12.75 2.5 12.4142 2.5 12Z" fill="#000000" />
</svg>