<svg width="24px"  height="24px"  viewBox="0 0 25 24" fill="none" xmlns="http://www.w3.org/2000/svg">
<path fill-rule="evenodd" clip-rule="evenodd" d="M8.64495 3.75C7.97793 3.75 7.39355 4.31698 7.39355 5.07145C7.39355 5.82472 7.97771 6.39193 8.64495 6.39193H11.2557C11.1511 6.09496 11.0126 5.75712 10.835 5.42301C10.3224 4.45882 9.61586 3.75 8.64495 3.75ZM12.2479 7.14193C12.9842 6.99957 12.9842 6.99932 12.9841 6.99905L12.984 6.99844L12.9837 6.99692L12.9829 6.99276L12.9803 6.97996L12.9713 6.93715C12.9635 6.90121 12.9522 6.85074 12.937 6.78779C12.9066 6.66204 12.8605 6.48562 12.7961 6.27524C12.6682 5.85721 12.4639 5.29163 12.1595 4.71892C11.5711 3.61215 10.4762 2.25 8.64495 2.25C7.10139 2.25 5.89355 3.5375 5.89355 5.07145C5.89355 6.60466 7.10161 7.89193 8.64495 7.89193H12.2479C12.4717 7.89193 12.6839 7.79194 12.8263 7.61928C12.9688 7.44662 13.0267 7.21935 12.9842 6.99957L12.2479 7.14193Z" fill="#000000" />
<path fill-rule="evenodd" clip-rule="evenodd" d="M12.3349 4.71883C12.9234 3.61209 14.0185 2.25 15.8497 2.25C17.3933 2.25 18.6011 3.5375 18.6011 5.07145C18.6011 6.60466 17.3931 7.89193 15.8497 7.89193H12.2461C12.0222 7.89193 11.8101 7.79192 11.6676 7.61923C11.5251 7.44655 11.4672 7.21924 11.5098 6.99944L12.2461 7.14193C11.5098 6.99944 11.5098 6.99919 11.5099 6.99893L11.51 6.99831L11.5103 6.9968L11.5111 6.99264L11.5137 6.97984L11.5227 6.93703C11.5305 6.90109 11.5418 6.85062 11.557 6.78767C11.5874 6.66192 11.6336 6.48551 11.698 6.27513C11.826 5.8571 12.0304 5.29153 12.3349 4.71883ZM13.2384 6.39193H15.8497C16.517 6.39193 17.1011 5.82472 17.1011 5.07145C17.1011 4.31698 16.5167 3.75 15.8497 3.75C14.8788 3.75 14.172 4.45888 13.6593 5.4231C13.4816 5.75718 13.343 6.09498 13.2384 6.39193Z" fill="#000000" />
<path fill-rule="evenodd" clip-rule="evenodd" d="M4.26529 7.72886C5.02116 6.8716 6.10374 6.39062 7.37775 6.39062H17.123C18.3966 6.39062 19.479 6.87168 20.2347 7.72891C20.9816 8.57627 21.3591 9.7322 21.3591 11.0101V17.1281C21.3591 18.4074 20.9795 19.5635 20.2318 20.4106C19.4757 21.2672 18.3937 21.7486 17.123 21.7486H7.37677C6.10314 21.7486 5.02078 21.2676 4.26507 20.4102C3.51808 19.5627 3.14062 18.4065 3.14062 17.1281V11.0101C3.14062 9.7322 3.51813 8.57623 4.26529 7.72886ZM5.39039 8.7209C4.93155 9.24127 4.64062 10.0201 4.64062 11.0101V17.1281C4.64062 18.1188 4.9316 18.8978 5.39036 19.4183C5.8404 19.9289 6.50111 20.2486 7.37677 20.2486H17.123C17.9947 20.2486 18.6559 19.9293 19.1072 19.4179C19.567 18.897 19.8591 18.1178 19.8591 17.1281V11.0101C19.8591 10.0201 19.5682 9.24124 19.1095 8.72084C18.6594 8.21033 17.9987 7.89062 17.123 7.89062H7.37775C6.50149 7.89062 5.84051 8.2104 5.39039 8.7209Z" fill="#000000" />
<path fill-rule="evenodd" clip-rule="evenodd" d="M12.25 10.6602C12.6642 10.6602 13 10.9959 13 11.4102V16.5435C13 16.9578 12.6642 17.2935 12.25 17.2935C11.8358 17.2935 11.5 16.9578 11.5 16.5435V11.4102C11.5 10.9959 11.8358 10.6602 12.25 10.6602Z" fill="#000000" />
<path fill-rule="evenodd" clip-rule="evenodd" d="M8.93359 13.9766C8.93359 13.5623 9.26938 13.2266 9.68359 13.2266H14.817C15.2312 13.2266 15.567 13.5623 15.567 13.9766C15.567 14.3908 15.2312 14.7266 14.817 14.7266H9.68359C9.26938 14.7266 8.93359 14.3908 8.93359 13.9766Z" fill="#000000" />
</svg>