<svg width="24px"  height="24px"  viewBox="0 0 25 24" fill="none" xmlns="http://www.w3.org/2000/svg">
<path fill-rule="evenodd" clip-rule="evenodd" d="M8.64301 3.75C7.97598 3.75 7.3916 4.31698 7.3916 5.07146C7.3916 5.82473 7.97576 6.39195 8.64301 6.39195H11.2538C11.1492 6.09498 11.0107 5.75714 10.833 5.42302C10.3205 4.45882 9.61392 3.75 8.64301 3.75ZM12.2459 7.14195C12.9823 6.99959 12.9822 6.99934 12.9822 6.99907L12.9821 6.99846L12.9818 6.99695L12.981 6.99278L12.9784 6.97999L12.9694 6.93717C12.9616 6.90123 12.9503 6.85076 12.9351 6.78781C12.9047 6.66206 12.8586 6.48564 12.7942 6.27526C12.6662 5.85722 12.462 5.29165 12.1575 4.71893C11.5692 3.61215 10.4743 2.25 8.64301 2.25C7.09944 2.25 5.8916 3.53751 5.8916 5.07146C5.8916 6.60468 7.09966 7.89195 8.64301 7.89195H12.2459C12.4698 7.89195 12.6819 7.79196 12.8244 7.6193C12.9669 7.44664 13.0248 7.21937 12.9823 6.99959L12.2459 7.14195Z" fill="#000000" />
<path fill-rule="evenodd" clip-rule="evenodd" d="M12.3344 4.71896C12.9227 3.61217 14.0175 2.25 15.8488 2.25C17.3924 2.25 18.6002 3.53751 18.6002 5.07146C18.6002 6.60468 17.3921 7.89195 15.8488 7.89195H12.2461C12.0223 7.89195 11.8101 7.79196 11.6676 7.61932C11.5252 7.44667 11.4673 7.21941 11.5097 6.99963L12.2461 7.14195C11.5097 6.99963 11.5097 6.99989 11.5097 6.99963L11.5102 6.99698L11.5111 6.99282L11.5136 6.98002L11.5227 6.93721C11.5304 6.90127 11.5417 6.85079 11.5569 6.78784C11.5873 6.6621 11.6334 6.48568 11.6978 6.2753C11.8257 5.85726 12.03 5.29168 12.3344 4.71896ZM13.2382 6.39195H15.8488C16.516 6.39195 17.1002 5.82473 17.1002 5.07146C17.1002 4.31698 16.5158 3.75 15.8488 3.75C14.8779 3.75 14.1714 4.4588 13.6589 5.42299C13.4813 5.75712 13.3428 6.09497 13.2382 6.39195Z" fill="#000000" />
<path fill-rule="evenodd" clip-rule="evenodd" d="M4.26084 7.73312C5.01581 6.87581 6.09785 6.39453 7.37289 6.39453H17.1182C18.393 6.39453 19.4769 6.87556 20.2341 7.73199C20.9829 8.57882 21.3621 9.73417 21.3621 11.0111V17.1321C21.3621 18.4103 20.98 19.5655 20.2304 20.4117C19.4726 21.2672 18.3893 21.7487 17.1182 21.7487H7.37289C6.09785 21.7487 5.01581 21.2674 4.26084 20.4101C3.51473 19.5629 3.13867 18.4077 3.13867 17.1321V11.0111C3.13867 9.73555 3.51473 8.58037 4.26084 7.73312ZM5.38656 8.72446C4.92862 9.24448 4.63867 10.0226 4.63867 11.0111V17.1321C4.63867 18.1206 4.92862 18.8988 5.38656 19.4188C5.83564 19.9287 6.49571 20.2487 7.37289 20.2487H17.1182C17.9906 20.2487 18.6542 19.9289 19.1075 19.4171C19.5691 18.8961 19.8621 18.118 19.8621 17.1321V11.0111C19.8621 10.024 19.5706 9.24603 19.1104 8.72558C18.6587 8.21474 17.9956 7.89453 17.1182 7.89453H7.37289C6.49571 7.89453 5.83564 8.2145 5.38656 8.72446Z" fill="#000000" />
<path fill-rule="evenodd" clip-rule="evenodd" d="M12.2461 12.4336C12.6603 12.4336 12.9961 12.7694 12.9961 13.1836V21.0005C12.9961 21.4147 12.6603 21.7505 12.2461 21.7505C11.8319 21.7505 11.4961 21.4147 11.4961 21.0005V13.1836C11.4961 12.7694 11.8319 12.4336 12.2461 12.4336Z" fill="#000000" />
<path fill-rule="evenodd" clip-rule="evenodd" d="M3.13867 11.9141C3.13867 11.4998 3.47446 11.1641 3.88867 11.1641H10.1867C10.6009 11.1641 10.9367 11.4998 10.9367 11.9141C10.9367 12.3283 10.6009 12.6641 10.1867 12.6641H3.88867C3.47446 12.6641 3.13867 12.3283 3.13867 11.9141ZM13.5639 11.9141C13.5639 11.4998 13.8997 11.1641 14.3139 11.1641H20.612C21.0262 11.1641 21.362 11.4998 21.362 11.9141C21.362 12.3283 21.0262 12.6641 20.612 12.6641H14.3139C13.8997 12.6641 13.5639 12.3283 13.5639 11.9141Z" fill="#000000" />
<path fill-rule="evenodd" clip-rule="evenodd" d="M14.3016 6.39453C14.7158 6.39367 15.0523 6.72876 15.0532 7.14297L15.0631 11.9154L15.0629 13.8533C15.0629 14.0934 14.9479 14.319 14.7535 14.4601C14.5592 14.6012 14.309 14.6407 14.0807 14.5663L12.2507 13.9705L10.4208 14.5751C10.1922 14.6506 9.94127 14.6118 9.74616 14.4707C9.55105 14.3297 9.43551 14.1035 9.43555 13.8628V7.16404C9.43552 6.74983 9.77128 6.41402 10.1855 6.41399C10.5997 6.41396 10.9355 6.74972 10.9355 7.16394L10.9357 12.8252L12.0093 12.4705C12.0939 12.4425 12.1799 12.4305 12.2641 12.4327C12.3378 12.4337 12.4125 12.4456 12.4863 12.4697L13.563 12.8202L13.5631 11.9161L13.5532 7.14609C13.5523 6.73188 13.8874 6.39539 14.3016 6.39453Z" fill="#000000" />
</svg>