<svg width="24px"  height="24px"  viewBox="0 0 25 24" fill="none" xmlns="http://www.w3.org/2000/svg">
<path fill-rule="evenodd" clip-rule="evenodd" d="M8.64398 3.75C7.97695 3.75 7.39258 4.31698 7.39258 5.07145C7.39258 5.82472 7.97673 6.39193 8.64398 6.39193H11.2548C11.1502 6.09496 11.0116 5.75712 10.834 5.42301C10.3214 4.45882 9.61488 3.75 8.64398 3.75ZM12.2469 7.14193C12.9832 6.99957 12.9832 6.99932 12.9831 6.99905L12.9827 6.99692L12.9819 6.99276L12.9793 6.97996L12.9703 6.93715C12.9626 6.90121 12.9512 6.85074 12.936 6.78779C12.9056 6.66204 12.8595 6.48562 12.7951 6.27524C12.6672 5.85721 12.4629 5.29163 12.1585 4.71892C11.5701 3.61215 10.4752 2.25 8.64398 2.25C7.10041 2.25 5.89258 3.5375 5.89258 5.07145C5.89258 6.60466 7.10064 7.89193 8.64398 7.89193H12.2469C12.4707 7.89193 12.6829 7.79194 12.8254 7.61928C12.9678 7.44662 13.0256 7.21883 12.9831 6.99905L12.2469 7.14193Z" fill="#000000" />
<path fill-rule="evenodd" clip-rule="evenodd" d="M12.3344 4.71895C12.9227 3.61217 14.0175 2.25 15.8488 2.25C17.3923 2.25 18.6002 3.5375 18.6002 5.07145C18.6002 6.60466 17.3921 7.89193 15.8488 7.89193H12.2461C12.0223 7.89193 11.8101 7.79194 11.6676 7.6193C11.5252 7.44665 11.4673 7.21938 11.5097 6.99961L12.2461 7.14193C11.5097 6.99961 11.5097 6.99987 11.5097 6.99961L11.5102 6.99696L11.5111 6.9928L11.5136 6.98L11.5227 6.93719C11.5304 6.90125 11.5417 6.85077 11.5569 6.78782C11.5873 6.66208 11.6334 6.48566 11.6978 6.27528C11.8257 5.85724 12.03 5.29166 12.3344 4.71895ZM13.2382 6.39193H15.8488C16.516 6.39193 17.1002 5.82472 17.1002 5.07145C17.1002 4.31698 16.5158 3.75 15.8488 3.75C14.8779 3.75 14.1714 4.4588 13.6589 5.42298C13.4813 5.75711 13.3428 6.09495 13.2382 6.39193Z" fill="#000000" />
<path fill-rule="evenodd" clip-rule="evenodd" d="M4.26333 7.72886C5.0192 6.8716 6.10178 6.39062 7.37579 6.39062H17.121C18.3947 6.39062 19.477 6.87168 20.2327 7.72891C20.9797 8.57627 21.3572 9.7322 21.3572 11.0101V17.1281C21.3572 18.4074 20.9775 19.5635 20.2298 20.4106C19.4737 21.2672 18.3918 21.7486 17.121 21.7486H7.37482C6.10119 21.7486 5.01883 21.2676 4.26312 20.4102C3.51613 19.5627 3.13867 18.4065 3.13867 17.1281V11.0101C3.13867 9.7322 3.51617 8.57623 4.26333 7.72886ZM5.38843 8.7209C4.9296 9.24127 4.63867 10.0201 4.63867 11.0101V17.1281C4.63867 18.1188 4.92965 18.8978 5.38841 19.4183C5.83844 19.9289 6.49916 20.2486 7.37482 20.2486H17.121C17.9928 20.2486 18.6539 19.9293 19.1053 19.4179C19.5651 18.897 19.8572 18.1178 19.8572 17.1281V11.0101C19.8572 10.0201 19.5663 9.24124 19.1075 8.72084C18.6575 8.21033 17.9967 7.89062 17.121 7.89062H7.37579C6.49954 7.89062 5.83856 8.2104 5.38843 8.7209Z" fill="#000000" />
<path fill-rule="evenodd" clip-rule="evenodd" d="M3.13867 13.7773C3.13868 13.3631 3.47447 13.0273 3.88868 13.0273H20.6101C21.0243 13.0273 21.3601 13.3631 21.3601 13.7773C21.3601 14.1915 21.0243 14.5273 20.6101 14.5273H3.88866C3.47445 14.5273 3.13867 14.1915 3.13867 13.7773Z" fill="#000000" />
<path fill-rule="evenodd" clip-rule="evenodd" d="M12.2461 6.39453C12.6603 6.39453 12.9961 6.73032 12.9961 7.14453V20.9967C12.9961 21.4109 12.6603 21.7467 12.2461 21.7467C11.8319 21.7467 11.4961 21.4109 11.4961 20.9967V7.14453C11.4961 6.73032 11.8319 6.39453 12.2461 6.39453Z" fill="#000000" />
</svg>