<svg width="24px"  height="24px"  viewBox="0 0 25 24" fill="none" xmlns="http://www.w3.org/2000/svg">
<path d="M17.3123 20.2101H7.19529C6.14943 20.2081 5.14331 19.8092 4.38022 19.094C3.61713 18.3788 3.15393 17.4006 3.08426 16.3571L2.50626 7.38007C2.49052 7.11878 2.55401 6.85882 2.68845 6.63422C2.82289 6.40962 3.02201 6.23083 3.25974 6.12126C3.49747 6.01169 3.76275 5.97644 4.02085 6.02012C4.27894 6.0638 4.51784 6.18438 4.70627 6.36607L6.80124 8.40207C7.73024 7.47807 9.6753 5.54007 10.8303 4.38407C11.018 4.19482 11.2413 4.04475 11.4875 3.94261C11.7337 3.84046 11.9977 3.78827 12.2643 3.78907C12.5313 3.78868 12.7958 3.84154 13.0422 3.94456C13.2886 4.04759 13.5119 4.1987 13.6993 4.38907C14.8423 5.54107 16.7743 7.47707 17.6993 8.40307L19.7932 6.35107C19.9818 6.16921 20.2209 6.04856 20.4792 6.00493C20.7375 5.96129 21.003 5.99671 21.2408 6.10654C21.4786 6.21638 21.6777 6.3955 21.812 6.62043C21.9463 6.84536 22.0094 7.10561 21.9933 7.36707L21.4153 16.3531C21.3469 17.396 20.8854 18.3742 20.1238 19.0901C19.3623 19.806 18.3575 20.2062 17.3123 20.2101ZM4.5803 16.2591C4.62486 16.9228 4.91954 17.5449 5.40488 17.9998C5.89022 18.4547 6.53008 18.7085 7.19529 18.7101H17.3123C17.9774 18.7085 18.6171 18.4546 19.1023 17.9997C19.5875 17.5448 19.8819 16.9227 19.9262 16.2591L20.4702 7.79507L18.2253 9.99507C18.084 10.1334 17.894 10.2105 17.6963 10.2095C17.4986 10.2086 17.3092 10.1297 17.1693 9.99007C17.1693 9.99007 14.1823 7.00207 12.6383 5.44707C12.5394 5.34783 12.4054 5.29174 12.2653 5.29107C12.1961 5.29086 12.1275 5.30445 12.0636 5.33107C11.9998 5.35768 11.9419 5.39678 11.8933 5.44607C10.3333 7.00607 7.33725 9.98807 7.33725 9.98807C7.19746 10.1267 7.00887 10.205 6.81199 10.2061C6.6151 10.2073 6.42564 10.1311 6.28428 9.99407L4.03629 7.80207L4.5803 16.2591Z" fill="#000000" />
<path d="M20.7663 15.5977H3.73633C3.53742 15.5977 3.34665 15.5186 3.20599 15.378C3.06534 15.2373 2.98633 15.0466 2.98633 14.8477C2.98633 14.6487 3.06534 14.458 3.20599 14.3173C3.34665 14.1767 3.53742 14.0977 3.73633 14.0977H20.7663C20.9652 14.0977 21.156 14.1767 21.2966 14.3173C21.4373 14.458 21.5163 14.6487 21.5163 14.8477C21.5163 15.0466 21.4373 15.2373 21.2966 15.378C21.156 15.5186 20.9652 15.5977 20.7663 15.5977Z" fill="#000000" />
<path d="M12.2525 11.1534C12.7716 11.1534 13.1925 10.7326 13.1925 10.2134C13.1925 9.69429 12.7716 9.27344 12.2525 9.27344C11.7334 9.27344 11.3125 9.69429 11.3125 10.2134C11.3125 10.7326 11.7334 11.1534 12.2525 11.1534Z" fill="#000000" />
</svg>