<svg width="24px"  height="24px"  viewBox="0 0 25 24" fill="none" xmlns="http://www.w3.org/2000/svg">
<path fill-rule="evenodd" clip-rule="evenodd" d="M11.3473 5.39519C11.8297 4.85261 12.6709 4.85265 13.1533 5.39531L13.1535 5.39556C13.8841 6.21815 15.6 8.14741 16.4441 9.09548C17.2519 8.44142 18.7706 7.21125 20.0173 6.20087C20.8804 5.50064 22.1795 6.23179 21.9811 7.35317C21.7241 8.8163 21.0982 13.4236 20.7268 16.2029C20.5115 17.8164 19.1361 19.0091 17.5143 19.0091H6.98934C5.36757 19.0091 3.9925 17.8166 3.77585 16.2047L3.77577 16.2041C3.40432 13.4245 2.77731 8.8174 2.51932 7.35406C2.32101 6.23228 3.62012 5.50239 4.48275 6.20058L4.48338 6.20109C5.72994 7.21225 7.24744 8.44138 8.05565 9.09511C8.89982 8.14695 10.6154 6.21818 11.3472 5.39531M16.2293 9.26936C16.2295 9.26924 16.2296 9.26912 16.2298 9.269L16.2293 9.26936ZM12.2501 6.63719C11.3666 7.63066 9.68064 9.52599 8.9926 10.2985L8.43254 9.79964L8.99483 10.296C8.56213 10.7862 7.83066 10.8431 7.32671 10.4347C6.70016 9.92825 5.35418 8.83829 4.11838 7.83634C4.4228 9.78353 4.94192 13.6061 5.26248 16.0049C5.37839 16.8673 6.11374 17.5091 6.98934 17.5091H17.5143C18.3898 17.5091 19.1248 16.8675 19.24 16.0045L19.24 16.0044C19.5605 13.6059 20.0788 9.78258 20.3824 7.83575C19.146 8.83756 17.7988 9.92874 17.1736 10.4349C16.6688 10.8437 15.939 10.7848 15.5063 10.2979C15.5062 10.2978 15.5062 10.2978 15.5061 10.2977L16.0668 9.79968L15.5068 10.2985C15.5066 10.2983 15.5065 10.2981 15.5063 10.2979C14.818 9.52513 13.1329 7.63076 12.2501 6.63719ZM16.0668 9.79968L16.0669 9.79964L16.0668 9.79968C20.9623 7.36584 20.962 7.36604 20.9618 7.36624ZM20.5038 7.09299C20.5039 7.0926 20.504 7.09222 20.5041 7.09183L20.5038 7.09299ZM3.99641 7.09288C3.99645 7.09312 3.9965 7.09337 3.99654 7.09362L3.99641 7.09288ZM7.79872 9.85201L7.79879 9.85193L7.79872 9.85201C12.468 6.39213 12.4681 6.39205 12.4682 6.39198L12.4683 6.39186C12.4682 6.39197 12.4681 6.39209 12.468 6.3922M10.455 14.1024C10.455 13.6882 10.7908 13.3524 11.205 13.3524H13.3109C13.7251 13.3524 14.0609 13.6882 14.0609 14.1024C14.0609 14.5166 13.7251 14.8524 13.3109 14.8524H11.205C10.7908 14.8524 10.455 14.5166 10.455 14.1024Z" fill="#000000" />
</svg>