<svg width="24px"  height="24px"  viewBox="0 0 25 24" fill="none" xmlns="http://www.w3.org/2000/svg">
<path d="M18.8959 21.2675H5.60394C5.29118 21.268 4.98265 21.1951 4.70318 21.0547C4.42371 20.9143 4.18107 20.7103 3.99474 20.4591C3.80841 20.2079 3.68359 19.9165 3.6303 19.6083C3.57702 19.3001 3.59675 18.9837 3.68792 18.6845L4.19695 16.9975C3.97695 15.9195 2.86593 10.4665 2.52093 8.49754C2.47404 8.22884 2.51025 7.95223 2.62475 7.70467C2.73925 7.45711 2.92662 7.25038 3.16174 7.11212C3.39685 6.97385 3.66854 6.91063 3.94055 6.9309C4.21255 6.95116 4.47192 7.05395 4.68395 7.22554C5.88395 8.20054 7.27294 9.32554 8.03094 9.93754L11.2499 6.32654C11.379 6.19125 11.5342 6.08355 11.706 6.00996C11.8779 5.93638 12.063 5.89844 12.2499 5.89844C12.4369 5.89844 12.6219 5.93638 12.7938 6.00996C12.9657 6.08355 13.1209 6.19125 13.2499 6.32654L16.4679 9.94354C17.226 9.33054 18.6119 8.20654 19.8149 7.23154C20.027 7.05984 20.2865 6.95698 20.5586 6.93672C20.8307 6.91647 21.1026 6.97978 21.3378 7.11819C21.5729 7.25659 21.7602 7.46351 21.8746 7.71125C21.989 7.95899 22.0251 8.23576 21.978 8.50454C21.633 10.4695 20.5239 15.9365 20.3049 17.0165L20.8109 18.6835C20.9023 18.9828 20.9221 19.2993 20.869 19.6076C20.8158 19.9159 20.691 20.2074 20.5046 20.4588C20.3183 20.7101 20.0756 20.9142 19.796 21.0547C19.5164 21.1951 19.2078 21.268 18.895 21.2675H18.8959ZM4.07494 8.66754C4.52794 11.1355 5.69191 16.8225 5.70391 16.8835C5.72936 17.0053 5.72354 17.1316 5.68694 17.2505L5.12396 19.1175C5.10071 19.1926 5.09546 19.272 5.10864 19.3494C5.12181 19.4268 5.15302 19.5001 5.19976 19.5632C5.24651 19.6263 5.30746 19.6775 5.37768 19.7126C5.4479 19.7478 5.52541 19.7659 5.60394 19.7655H18.8959C18.9737 19.7663 19.0505 19.7485 19.1201 19.7137C19.1896 19.679 19.2499 19.6282 19.296 19.5655C19.3428 19.5026 19.3742 19.4295 19.3876 19.3522C19.4009 19.2749 19.3959 19.1956 19.3729 19.1205L18.8119 17.2715C18.7759 17.1522 18.77 17.0257 18.7949 16.9035C18.8079 16.8425 19.9699 11.1395 20.4219 8.67054L16.8499 11.5615C16.6999 11.6815 16.5097 11.7394 16.3183 11.7234C16.1269 11.7074 15.9489 11.6187 15.8209 11.4755L12.2499 7.45754L8.67596 11.4755C8.54783 11.6185 8.36984 11.7071 8.17852 11.7231C7.9872 11.7391 7.79699 11.6813 7.64691 11.5615L4.07494 8.66754Z" fill="#000000" />
<path d="M12.2505 7.36038C11.7931 7.36018 11.3459 7.22436 10.9657 6.97008C10.5855 6.7158 10.2892 6.35449 10.1143 5.93183C9.93935 5.50917 9.89368 5.04413 9.98304 4.59552C10.0724 4.14691 10.2928 3.73486 10.6163 3.41148C10.9399 3.08811 11.352 2.86791 11.8006 2.77875C12.2493 2.68958 12.7143 2.73544 13.1368 2.91054C13.5594 3.08563 13.9206 3.3821 14.1748 3.76245C14.4289 4.1428 14.5645 4.58995 14.5645 5.04738C14.5637 5.66075 14.3196 6.24876 13.8858 6.68239C13.452 7.11602 12.8639 7.35985 12.2505 7.36038ZM12.2505 4.23338C12.0895 4.23338 11.9321 4.28112 11.7983 4.37056C11.6644 4.46 11.5601 4.58713 11.4985 4.73587C11.4369 4.88461 11.4207 5.04828 11.4522 5.20618C11.4836 5.36408 11.5611 5.50912 11.6749 5.62296C11.7888 5.7368 11.9338 5.81433 12.0917 5.84573C12.2496 5.87714 12.4133 5.86102 12.562 5.79941C12.7108 5.7378 12.8379 5.63347 12.9273 5.49961C13.0168 5.36575 13.0645 5.20837 13.0645 5.04738C13.0643 4.83157 12.9784 4.62468 12.8258 4.47208C12.6732 4.31949 12.4663 4.23364 12.2505 4.23338Z" fill="#000000" />
<path d="M19.5774 17.6953H9.14941C8.9505 17.6953 8.75973 17.6163 8.61908 17.4756C8.47843 17.335 8.39941 17.1442 8.39941 16.9453C8.39941 16.7464 8.47843 16.5556 8.61908 16.415C8.75973 16.2743 8.9505 16.1953 9.14941 16.1953H19.5774C19.7763 16.1953 19.9671 16.2743 20.1077 16.415C20.2484 16.5556 20.3274 16.7464 20.3274 16.9453C20.3274 17.1442 20.2484 17.335 20.1077 17.4756C19.9671 17.6163 19.7763 17.6953 19.5774 17.6953Z" fill="#000000" />
</svg>