<svg width="24px"  height="24px"  viewBox="0 0 25 24" fill="none" xmlns="http://www.w3.org/2000/svg">
<path fill-rule="evenodd" clip-rule="evenodd" d="M15.4523 2.32984C15.8225 2.51563 15.972 2.96636 15.7862 3.33657L13.3309 8.22899L13.3594 8.28002C13.952 8.3695 14.5197 8.53587 15.0518 8.76866L18.1086 2.67435C18.2944 2.3041 18.7451 2.15451 19.1153 2.34022C19.4855 2.52594 19.6351 2.97663 19.4494 3.34688L16.353 9.52017C18.0272 10.7531 19.1148 12.7377 19.1148 14.9765C19.1148 18.7176 16.0777 21.7502 12.3412 21.7502C8.60459 21.7502 5.56754 18.7176 5.56754 14.9765C5.56754 12.6721 6.7198 10.6371 8.478 9.41377L5.06793 3.38111C4.8641 3.02052 4.99118 2.56296 5.35177 2.35913C5.71236 2.1553 6.16991 2.28238 6.37374 2.64297L9.79678 8.69857C10.3718 8.46515 10.986 8.30846 11.6266 8.24118L8.92293 3.37638C8.72171 3.01432 8.8521 2.5577 9.21416 2.35648C9.57621 2.15526 10.0328 2.28565 10.2341 2.6477L12.4514 6.63742L14.4456 2.66376C14.6314 2.29355 15.0821 2.14405 15.4523 2.32984ZM12.7109 9.71666C12.5887 9.70819 12.4654 9.70388 12.3412 9.70388C9.43223 9.70388 7.06754 12.0647 7.06754 14.9765C7.06754 17.8886 9.43239 20.2502 12.3412 20.2502C15.2499 20.2502 17.6148 17.8886 17.6148 14.9765C17.6148 12.2698 15.5715 10.0392 12.9472 9.73839C12.8673 9.74377 12.7875 9.73623 12.7109 9.71666Z" fill="#000000" />
<path fill-rule="evenodd" clip-rule="evenodd" d="M10.5059 12.8164C10.5059 12.4022 10.8416 12.0664 11.2559 12.0664H13.7145C14.0034 12.0664 14.2666 12.2323 14.3912 12.4929C14.5158 12.7535 14.4796 13.0625 14.2983 13.2873L13.5499 14.215C14.1008 14.6061 14.4607 15.2491 14.4607 15.9766C14.4607 17.1689 13.4927 18.1345 12.3018 18.1345C11.7063 18.1345 11.1639 17.8925 10.7732 17.5003C10.4808 17.2068 10.4817 16.732 10.7752 16.4396C11.0686 16.1473 11.5435 16.1482 11.8358 16.4417C11.955 16.5613 12.1189 16.6345 12.3018 16.6345C12.6657 16.6345 12.9607 16.3391 12.9607 15.9766C12.9607 15.6128 12.6653 15.3177 12.3018 15.3177C12.0129 15.3177 11.7498 15.1519 11.6252 14.8913C11.5006 14.6307 11.5367 14.3217 11.718 14.0969L12.1459 13.5664H11.2559C10.8416 13.5664 10.5059 13.2306 10.5059 12.8164Z" fill="#000000" />
</svg>