<svg width="24px"  height="24px"  viewBox="0 0 25 24" fill="none" xmlns="http://www.w3.org/2000/svg">
<path d="M12.2512 16.184C10.8732 16.1842 9.52612 15.7758 8.38027 15.0103C7.23442 14.2449 6.3413 13.1569 5.81383 11.8839C5.28636 10.6108 5.14824 9.20996 5.41695 7.85842C5.68566 6.50689 6.34913 5.2654 7.32344 4.29094C8.29776 3.31649 9.53915 2.65285 10.8906 2.38395C12.2421 2.11504 13.643 2.25295 14.9161 2.78024C16.1892 3.30753 17.2774 4.2005 18.043 5.34624C18.8086 6.49198 19.2172 7.83902 19.2172 9.21701C19.2151 11.0639 18.4805 12.8346 17.1746 14.1407C15.8688 15.4468 14.0982 16.1816 12.2512 16.184ZM12.2512 3.75C11.1699 3.74981 10.1128 4.07027 9.21364 4.67087C8.31447 5.27147 7.61357 6.12523 7.19964 7.12418C6.7857 8.12313 6.67731 9.22239 6.88814 10.2829C7.09897 11.3435 7.61958 12.3177 8.38411 13.0824C9.14865 13.8471 10.1228 14.3679 11.1833 14.5789C12.2438 14.7899 13.3431 14.6817 14.3421 14.2679C15.3411 13.8542 16.195 13.1535 16.7958 12.2544C17.3966 11.3553 17.7172 10.2983 17.7172 9.21701C17.7154 7.76781 17.1389 6.37848 16.1143 5.35365C15.0896 4.32882 13.7004 3.75212 12.2512 3.75Z" fill="#000000" />
<path d="M8.64383 21.7513C8.37129 21.7506 8.10357 21.6793 7.86682 21.5443C7.623 21.4085 7.42012 21.2097 7.27939 20.9687C7.13866 20.7277 7.06526 20.4533 7.06684 20.1743L7.04883 13.5423C7.04857 13.4438 7.06769 13.3462 7.10514 13.2551C7.14258 13.164 7.19763 13.0812 7.26709 13.0113C7.33655 12.9415 7.41906 12.886 7.50995 12.8481C7.60085 12.8102 7.69833 12.7905 7.79682 12.7903C7.9953 12.7905 8.18564 12.8693 8.32617 13.0095C8.46671 13.1497 8.54602 13.3398 8.54682 13.5383L8.56482 20.1712L8.68384 20.2373L11.4478 18.5793C11.6929 18.4315 11.9737 18.3535 12.2598 18.3535C12.546 18.3535 12.8268 18.4315 13.0718 18.5793L15.8308 20.2353L15.9498 20.1683V13.5312C15.9498 13.3323 16.0288 13.1416 16.1695 13.0009C16.3102 12.8603 16.5009 12.7812 16.6998 12.7812C16.8987 12.7812 17.0895 12.8603 17.2302 13.0009C17.3708 13.1416 17.4498 13.3323 17.4498 13.5312V20.1683C17.4499 20.4474 17.3759 20.7217 17.2354 20.9629C17.0948 21.2041 16.8928 21.4038 16.6499 21.5414C16.407 21.6791 16.132 21.7499 15.8528 21.7465C15.5736 21.7431 15.3003 21.6657 15.0608 21.5223L12.2998 19.8652L9.45581 21.5233C9.21091 21.6717 8.93019 21.7505 8.64383 21.7513Z" fill="#000000" />
</svg>