<svg width="24px"  height="24px"  viewBox="0 0 25 24" fill="none" xmlns="http://www.w3.org/2000/svg">
<path fill-rule="evenodd" clip-rule="evenodd" d="M15.4533 2.32984C15.8235 2.51563 15.973 2.96636 15.7872 3.33657L13.3319 8.22899L13.3604 8.28018C13.9527 8.3697 14.52 8.53601 15.0518 8.76866L18.1086 2.67435C18.2944 2.3041 18.7451 2.15451 19.1153 2.34022C19.4855 2.52594 19.6351 2.97663 19.4494 3.34688L16.353 9.52017C18.0272 10.7531 19.1148 12.7377 19.1148 14.9765C19.1148 18.7176 16.0777 21.7502 12.3412 21.7502C8.60459 21.7502 5.56754 18.7176 5.56754 14.9765C5.56754 12.6721 6.7198 10.6371 8.478 9.41377L5.06793 3.38111C4.8641 3.02052 4.99118 2.56296 5.35177 2.35913C5.71236 2.1553 6.16991 2.28238 6.37374 2.64297L9.79678 8.69857C10.3721 8.46504 10.9866 8.30831 11.6275 8.24109L8.92388 3.37638C8.72266 3.01432 8.85305 2.5577 9.21511 2.35648C9.57716 2.15526 10.0338 2.28565 10.235 2.6477L12.4523 6.63742L14.4465 2.66376C14.6323 2.29355 15.0831 2.14405 15.4533 2.32984ZM12.7122 9.71675C12.5896 9.70822 12.4659 9.70388 12.3412 9.70388C9.43223 9.70388 7.06754 12.0647 7.06754 14.9765C7.06754 17.8886 9.43239 20.2502 12.3412 20.2502C15.2499 20.2502 17.6148 17.8886 17.6148 14.9765C17.6148 12.2699 15.5717 10.0394 12.9475 9.73843C12.868 9.74372 12.7885 9.73621 12.7122 9.71675Z" fill="#000000" />
<path fill-rule="evenodd" clip-rule="evenodd" d="M12.9083 12.1883C13.1386 12.3227 13.2801 12.5693 13.2801 12.8359V17.4877C13.2801 17.9019 12.9444 18.2377 12.5301 18.2377C12.1159 18.2377 11.7801 17.9019 11.7801 17.4877V14.1203L11.5054 14.2753C11.1447 14.4788 10.6872 14.3514 10.4837 13.9907C10.2801 13.6299 10.4075 13.1725 10.7683 12.9689L12.1616 12.1827C12.3938 12.0517 12.6781 12.0538 12.9083 12.1883Z" fill="#000000" />
</svg>