<svg width="24px"  height="24px"  viewBox="0 0 25 24" fill="none" xmlns="http://www.w3.org/2000/svg">
<path fill-rule="evenodd" clip-rule="evenodd" d="M5.54102 14.977C5.54102 11.2358 8.57817 8.20312 12.3149 8.20312C16.0516 8.20312 19.0887 11.2358 19.0887 14.977C19.0887 18.7182 16.0516 21.7508 12.3149 21.7508C8.57817 21.7508 5.54102 18.7182 5.54102 14.977ZM12.3149 9.70312C9.40597 9.70312 7.04102 12.0648 7.04102 14.977C7.04102 17.8892 9.40597 20.2508 12.3149 20.2508C15.2238 20.2508 17.5887 17.8892 17.5887 14.977C17.5887 12.0648 15.2238 9.70312 12.3149 9.70312Z" fill="#000000" />
<path fill-rule="evenodd" clip-rule="evenodd" d="M6.97884 3.76172L10.1086 9.29899C10.3125 9.65958 10.1854 10.1171 9.82477 10.321C9.46417 10.5248 9.00662 10.3977 8.8028 10.0371L5.51064 4.21255C5.51054 4.21238 5.51045 4.21222 5.51035 4.21205C5.01677 3.34057 5.64792 2.26172 6.64764 2.26172H9.22318C9.69808 2.26172 10.1359 2.51949 10.3664 2.93482C10.3664 2.93482 10.3664 2.93482 10.3664 2.93483L13.5248 8.62591C13.7258 8.98809 13.5951 9.44463 13.233 9.64563C12.8708 9.84663 12.4142 9.71596 12.2132 9.35379L9.10983 3.76172H6.97884ZM9.05499 3.66292L9.05487 3.66269L9.05486 3.66268C9.05491 3.66276 9.05495 3.66284 9.05499 3.66292Z" fill="#000000" />
<path fill-rule="evenodd" clip-rule="evenodd" d="M15.5513 3.75038L13.1295 8.57604C12.9437 8.94624 12.4929 9.09573 12.1227 8.90994C11.7525 8.72414 11.603 8.27341 11.7888 7.90321L14.265 2.9693C14.4883 2.52729 14.9412 2.25 15.4346 2.25H15.437L17.8543 2.25779C18.8241 2.26052 19.4548 3.28159 19.0192 4.15052L16.0524 10.0655C15.8667 10.4358 15.4161 10.5854 15.0458 10.3997C14.6755 10.214 14.5259 9.76329 14.7116 9.39304L17.5386 3.75678L15.5513 3.75038ZM17.8507 3.75778C17.851 3.75778 17.8505 3.75778 17.8507 3.75778V3.75778Z" fill="#000000" />
</svg>