<svg width="24px"  height="24px"  viewBox="0 0 25 24" fill="none" xmlns="http://www.w3.org/2000/svg">
<path fill-rule="evenodd" clip-rule="evenodd" d="M12.4569 7.48828C12.8711 7.48828 13.2069 7.82407 13.2069 8.23828V8.24898C13.2069 8.25324 13.2069 8.25748 13.2068 8.26171C16.5231 8.69872 19.0887 11.5387 19.0887 14.9773C19.0887 18.7185 16.0516 21.7511 12.3149 21.7511C8.57817 21.7511 5.54102 18.7185 5.54102 14.9773C5.54102 11.4411 8.25427 8.53806 11.707 8.23036C11.7112 7.8198 12.0454 7.48828 12.4569 7.48828ZM12.3149 9.7034C9.40597 9.7034 7.04102 12.0651 7.04102 14.9773C7.04102 17.8894 9.40597 20.2511 12.3149 20.2511C15.2238 20.2511 17.5887 17.8894 17.5887 14.9773C17.5887 12.0651 15.2238 9.7034 12.3149 9.7034Z" fill="#000000" />
<path fill-rule="evenodd" clip-rule="evenodd" d="M6.9808 3.76172L10.1106 9.29899C10.3144 9.65958 10.1873 10.1171 9.82672 10.321C9.46612 10.5248 9.00857 10.3977 8.80476 10.0371L5.51259 4.21255C5.5125 4.21239 5.5124 4.21222 5.51231 4.21205C5.01872 3.34058 5.64987 2.26172 6.64959 2.26172H9.22513C9.69988 2.26172 10.1376 2.51932 10.3682 2.93442C10.3682 2.93456 10.3683 2.93469 10.3684 2.93483L13.113 7.87339C13.1274 7.89933 13.1401 7.92577 13.1512 7.95256L13.526 8.62452C13.7277 8.98627 13.598 9.44309 13.2363 9.64486C12.8745 9.84662 12.4177 9.71693 12.216 9.35518L11.8024 8.61375C11.7876 8.58717 11.7746 8.56008 11.7633 8.53262L9.11186 3.76172H6.9808Z" fill="#000000" />
<path fill-rule="evenodd" clip-rule="evenodd" d="M15.5533 3.75038L13.1314 8.57604C12.9456 8.94624 12.4949 9.09573 12.1247 8.90994C11.7545 8.72414 11.605 8.27341 11.7908 7.90321L14.267 2.9693C14.4903 2.52729 14.9432 2.25 15.4365 2.25H15.439L17.8562 2.25779C18.8261 2.26052 19.4568 3.28159 19.0212 4.15052L16.0544 10.0655C15.8687 10.4358 15.418 10.5854 15.0478 10.3997C14.6775 10.214 14.5279 9.76329 14.7136 9.39304L17.5405 3.75678L15.5533 3.75038ZM17.8527 3.75778C17.8529 3.75778 17.8525 3.75778 17.8527 3.75778V3.75778Z" fill="#000000" />
<path fill-rule="evenodd" clip-rule="evenodd" d="M12.883 12.1844C13.1132 12.3188 13.2548 12.5654 13.2548 12.832V17.484C13.2548 17.8982 12.919 18.234 12.5048 18.234C12.0906 18.234 11.7548 17.8982 11.7548 17.484V14.1164L11.48 14.2714C11.1193 14.475 10.6618 14.3475 10.4583 13.9868C10.2547 13.626 10.3821 13.1686 10.7429 12.965L12.1362 12.1788C12.3684 12.0478 12.6528 12.0499 12.883 12.1844Z" fill="#000000" />
</svg>