<svg width="24px"  height="24px"  viewBox="0 0 25 24" fill="none" xmlns="http://www.w3.org/2000/svg">
<path fill-rule="evenodd" clip-rule="evenodd" d="M5.54102 14.977C5.54102 11.2358 8.57817 8.20312 12.3149 8.20312C16.0516 8.20312 19.0887 11.2358 19.0887 14.977C19.0887 18.7182 16.0516 21.7508 12.3149 21.7508C8.57817 21.7508 5.54102 18.7182 5.54102 14.977ZM12.3149 9.70312C9.40597 9.70312 7.04102 12.0648 7.04102 14.977C7.04102 17.8892 9.40597 20.2508 12.3149 20.2508C15.2238 20.2508 17.5887 17.8892 17.5887 14.977C17.5887 12.0648 15.2238 9.70312 12.3149 9.70312Z" fill="#000000" />
<path fill-rule="evenodd" clip-rule="evenodd" d="M10.1172 13.9063C10.1172 12.7327 11.1024 11.8438 12.2547 11.8438C13.4002 11.8438 14.3815 12.7364 14.3815 13.9063C14.3815 14.4787 14.1777 15.0001 13.7026 15.5562C13.6916 15.5691 13.6801 15.5816 13.6683 15.5937L13.013 16.2631H13.614C14.0282 16.2631 14.364 16.5989 14.364 17.0131C14.364 17.4273 14.0282 17.7631 13.614 17.7631H11.2291C10.9272 17.7631 10.6548 17.5821 10.5378 17.3038C10.4208 17.0255 10.482 16.7042 10.6932 16.4885L12.5776 14.5636C12.8528 14.2361 12.8815 14.0532 12.8815 13.9063C12.8815 13.6284 12.6368 13.3438 12.2547 13.3438C11.858 13.3438 11.6172 13.6321 11.6172 13.9063C11.6172 14.3205 11.2814 14.6563 10.8672 14.6563C10.453 14.6563 10.1172 14.3205 10.1172 13.9063Z" fill="#000000" />
<path fill-rule="evenodd" clip-rule="evenodd" d="M15.552 3.75038L13.1469 8.54267C13.0323 8.81033 12.7666 8.99787 12.457 8.99787C12.0428 8.99787 11.707 8.66208 11.707 8.24787V8.23716C11.707 8.08962 11.7496 7.95203 11.8232 7.83602L14.2657 2.9693C14.489 2.52729 14.9419 2.25 15.4353 2.25H15.4377L17.8549 2.25779C18.8248 2.26052 19.4555 3.28159 19.0199 4.15052L16.0531 10.0655C15.8674 10.4358 15.4167 10.5854 15.0465 10.3997C14.6762 10.214 14.5266 9.76329 14.7123 9.39304L17.5392 3.75678L15.552 3.75038ZM17.8514 3.75778C17.8516 3.75778 17.8512 3.75778 17.8514 3.75778V3.75778Z" fill="#000000" />
<path fill-rule="evenodd" clip-rule="evenodd" d="M6.9808 3.76172L10.1106 9.29899C10.3144 9.65958 10.1873 10.1171 9.82672 10.321C9.46612 10.5248 9.00857 10.3977 8.80476 10.0371L5.51259 4.21255C5.5125 4.21239 5.5124 4.21222 5.51231 4.21205C5.01872 3.34058 5.64987 2.26172 6.64959 2.26172H9.22513C9.69988 2.26172 10.1376 2.51932 10.3682 2.93442C10.3682 2.93456 10.3683 2.93469 10.3684 2.93483L13.113 7.87339C13.1274 7.89933 13.1401 7.92577 13.1512 7.95256L13.526 8.62452C13.7277 8.98627 13.598 9.44309 13.2363 9.64486C12.8745 9.84662 12.4177 9.71693 12.216 9.35518L11.8024 8.61375C11.7876 8.58717 11.7746 8.56008 11.7633 8.53262L9.11186 3.76172H6.9808Z" fill="#000000" />
</svg>