<svg width="24px"  height="24px"  viewBox="0 0 25 24" fill="none" xmlns="http://www.w3.org/2000/svg">
<path fill-rule="evenodd" clip-rule="evenodd" d="M5.54102 14.977C5.54102 11.2358 8.57817 8.20312 12.3149 8.20312C16.0516 8.20312 19.0887 11.2358 19.0887 14.977C19.0887 18.7182 16.0516 21.7508 12.3149 21.7508C8.57817 21.7508 5.54102 18.7182 5.54102 14.977ZM12.3149 9.70312C9.40597 9.70312 7.04102 12.0648 7.04102 14.977C7.04102 17.8892 9.40597 20.2508 12.3149 20.2508C15.2238 20.2508 17.5887 17.8892 17.5887 14.977C17.5887 12.0648 15.2238 9.70312 12.3149 9.70312Z" fill="#000000" />
<path fill-rule="evenodd" clip-rule="evenodd" d="M6.9808 3.76172L10.1106 9.29899C10.3144 9.65958 10.1873 10.1171 9.82672 10.321C9.46612 10.5248 9.00857 10.3977 8.80476 10.0371L5.51259 4.21255C5.5125 4.21239 5.5124 4.21222 5.51231 4.21205C5.01872 3.34058 5.64987 2.26172 6.64959 2.26172H9.22513C9.70003 2.26172 10.1379 2.51949 10.3684 2.93482C10.3684 2.93482 10.3684 2.93482 10.3684 2.93483L13.5268 8.62591C13.7277 8.98809 13.5971 9.44463 13.2349 9.64563C12.8727 9.84663 12.4162 9.71596 12.2152 9.35379L9.11178 3.76172H6.9808ZM9.05695 3.66292L9.05682 3.66269L9.05682 3.66268C9.05686 3.66276 9.0569 3.66284 9.05695 3.66292Z" fill="#000000" />
<path fill-rule="evenodd" clip-rule="evenodd" d="M15.5533 3.75038L13.1314 8.57604C12.9456 8.94624 12.4949 9.09573 12.1247 8.90994C11.7545 8.72414 11.605 8.27341 11.7908 7.90321L14.267 2.9693C14.4903 2.52729 14.9432 2.25 15.4365 2.25H15.439L17.8562 2.25779C18.8261 2.26052 19.4568 3.28159 19.0212 4.15052L16.0544 10.0655C15.8687 10.4358 15.418 10.5854 15.0478 10.3997C14.6775 10.214 14.5279 9.76329 14.7136 9.39304L17.5405 3.75678L15.5533 3.75038ZM17.8527 3.75778C17.8529 3.75778 17.8525 3.75778 17.8527 3.75778V3.75778Z" fill="#000000" />
<path fill-rule="evenodd" clip-rule="evenodd" d="M10.4805 12.8164C10.4805 12.4022 10.8163 12.0664 11.2305 12.0664H13.6883C13.9771 12.0664 14.2403 12.2323 14.3649 12.4929C14.4895 12.7534 14.4534 13.0624 14.2721 13.2873L13.5244 14.2143C14.0756 14.6057 14.4354 15.2494 14.4354 15.9767C14.4354 17.169 13.4674 18.1347 12.2764 18.1347C11.6797 18.1347 11.1383 17.8924 10.7478 17.5004C10.4554 17.207 10.4563 16.7321 10.7498 16.4398C11.0433 16.1475 11.5181 16.1484 11.8105 16.4418C11.9298 16.5616 12.0929 16.6347 12.2764 16.6347C12.6403 16.6347 12.9354 16.3393 12.9354 15.9767C12.9354 15.6122 12.6393 15.3168 12.2764 15.3168C11.9876 15.3168 11.7244 15.151 11.5998 14.8904C11.4752 14.6298 11.5113 14.3208 11.6927 14.096L12.1198 13.5664H11.2305C10.8163 13.5664 10.4805 13.2306 10.4805 12.8164Z" fill="#000000" />
</svg>