<svg width="24px"  height="24px"  viewBox="0 0 25 24" fill="none" xmlns="http://www.w3.org/2000/svg">
<path fill-rule="evenodd" clip-rule="evenodd" d="M11.6107 3.91232C8.7819 3.1983 5.91078 4.91172 5.19682 7.74029L5.19676 7.74055C4.48201 10.568 6.19605 13.4402 9.0248 14.1542L9.02485 14.1542C11.8527 14.8682 14.7247 13.1547 15.4387 10.3262L15.4387 10.3261C16.1527 7.49832 14.4393 4.62627 11.6107 3.91232ZM3.7425 7.37293C4.65937 3.74105 8.34608 1.54125 11.9778 2.45793C15.6099 3.37469 17.8098 7.06247 16.8931 10.6933C15.9763 14.3253 12.2885 16.5253 8.6577 15.6086C5.02592 14.6919 2.82469 11.0043 3.74244 7.37319" fill="#000000" />
<path fill-rule="evenodd" clip-rule="evenodd" d="M5.28434 11.3155C5.68622 11.4158 5.93067 11.8229 5.83034 12.2248L4.2717 18.4681C4.26774 18.484 4.26958 18.4916 4.2709 18.4959C4.27292 18.5024 4.27778 18.5115 4.28697 18.5203C4.29616 18.529 4.3055 18.5334 4.31203 18.5351C4.31624 18.5362 4.32373 18.5376 4.33909 18.533C4.33911 18.533 4.33906 18.533 4.33909 18.533L7.33296 17.6291C7.88185 17.4637 8.47824 17.6138 8.88297 18.0203C8.88299 18.0204 8.88295 18.0203 8.88297 18.0203L11.0868 20.2339C11.0985 20.2456 11.106 20.2479 11.1102 20.249C11.1168 20.2506 11.1271 20.2512 11.1392 20.2478C11.1513 20.2445 11.1598 20.2388 11.1645 20.2342C11.1675 20.2312 11.1727 20.2255 11.1766 20.2097L12.7529 13.9661C12.8543 13.5645 13.262 13.3211 13.6637 13.4225C14.0653 13.5239 14.3086 13.9316 14.2073 14.3332L12.631 20.5768C12.631 20.5769 12.631 20.5768 12.631 20.5768C12.3354 21.7478 10.8754 22.1476 10.0238 21.2922L7.81997 19.0787C7.80634 19.065 7.78551 19.0594 7.76623 19.0652C7.7662 19.0652 7.76626 19.0652 7.76623 19.0652L4.77263 19.969C3.61882 20.3172 2.52475 19.275 2.81621 18.1054L4.37501 11.8615C4.47534 11.4596 4.88246 11.2152 5.28434 11.3155Z" fill="#000000" />
<path fill-rule="evenodd" clip-rule="evenodd" d="M19.4929 13.0146C19.8948 12.9144 20.3018 13.159 20.4021 13.5609L21.686 18.7107C21.9639 19.786 20.9512 20.7261 19.9097 20.4062L17.4915 19.6775L15.7147 21.4725C15.4233 21.7669 14.9484 21.7693 14.654 21.4779C14.3596 21.1865 14.3572 20.7116 14.6486 20.4173L16.4613 18.5861L16.4625 18.5849C16.8274 18.2179 17.3646 18.0834 17.8571 18.2212L17.8714 18.2254L20.1936 18.9251L18.9466 13.9238C18.8464 13.5219 19.091 13.1148 19.4929 13.0146Z" fill="#000000" />
<path fill-rule="evenodd" clip-rule="evenodd" d="M14.9429 6.25745C14.969 5.84406 15.3253 5.5301 15.7387 5.5562C18.1483 5.70835 20.301 7.38977 20.9216 9.85942C21.3013 11.356 21.0519 12.8771 20.3246 14.1188C19.5846 15.4227 18.3324 16.4216 16.7703 16.8118C16.3684 16.9122 15.9613 16.6678 15.8609 16.266C15.7605 15.8641 16.0049 15.4569 16.4067 15.3565C17.5611 15.0682 18.4794 14.3334 19.0222 13.3746L19.028 13.3643L19.0281 13.3644C19.5631 12.4532 19.7485 11.3341 19.4675 10.2275L19.467 10.2256L19.467 10.2256C19.0112 8.41067 17.4259 7.16572 15.6442 7.05322C15.2308 7.02712 14.9168 6.67084 14.9429 6.25745Z" fill="#000000" />
</svg>