<svg width="24px"  height="24px"  viewBox="0 0 25 24" fill="none" xmlns="http://www.w3.org/2000/svg">
<path fill-rule="evenodd" clip-rule="evenodd" d="M15.4533 2.32984C15.8235 2.51563 15.973 2.96636 15.7872 3.33657L13.3319 8.22899L13.3603 8.28002C13.9527 8.36946 14.5201 8.53571 15.052 8.76832L18.1087 2.67435C18.2944 2.3041 18.7451 2.15451 19.1153 2.34022C19.4856 2.52594 19.6352 2.97663 19.4495 3.34688L16.3532 9.51966C18.0279 10.7526 19.1158 12.7374 19.1158 14.9765C19.1158 18.7176 16.0787 21.7502 12.3421 21.7502C8.60452 21.7502 5.56851 18.7176 5.56851 14.9765C5.56851 12.672 6.72053 10.6368 8.47885 9.41356L5.0689 3.38111C4.86507 3.02052 4.99215 2.56296 5.35274 2.35913C5.71333 2.1553 6.17089 2.28238 6.37472 2.64297L9.79768 8.69844C10.3727 8.46507 10.9869 8.30842 11.6276 8.24117L8.92391 3.37638C8.72269 3.01432 8.85308 2.5577 9.21513 2.35648C9.57719 2.15526 10.0338 2.28565 10.235 2.6477L12.4524 6.63742L14.4466 2.66376C14.6324 2.29355 15.0831 2.14405 15.4533 2.32984ZM12.7119 9.71666C12.5897 9.70819 12.4664 9.70388 12.3421 9.70388C9.43231 9.70388 7.06851 12.0646 7.06851 14.9765C7.06851 17.8887 9.43247 20.2502 12.3421 20.2502C15.2509 20.2502 17.6158 17.8886 17.6158 14.9765C17.6158 12.2698 15.5725 10.0392 12.9482 9.73839C12.8683 9.74377 12.7885 9.73623 12.7119 9.71666Z" fill="#000000" />
<path fill-rule="evenodd" clip-rule="evenodd" d="M12.2498 13.2658L12.4912 13.7477L12.4921 13.7496C12.6565 14.0755 12.9715 14.3094 13.3456 14.3609L13.863 14.4356L13.4955 14.7887C13.4957 14.7885 13.4953 14.7889 13.4955 14.7887C13.2243 15.0486 13.1011 15.4262 13.1653 15.7942C13.1653 15.7942 13.1653 15.7943 13.1653 15.7942L13.2548 16.3066L12.7733 16.057L12.7705 16.0556C12.4437 15.8879 12.0565 15.8879 11.7297 16.0556L11.2455 16.3063L11.3349 15.7943C11.3349 15.7943 11.3349 15.7942 11.3349 15.7943C11.3988 15.4282 11.2779 15.0499 11.0042 14.7893L10.6367 14.4361L11.1539 14.3618C11.1544 14.3617 11.1549 14.3617 11.1553 14.3616C11.5234 14.3094 11.8414 14.0806 12.0079 13.7479C12.0078 13.7481 12.0081 13.7477 12.0079 13.7479L12.2498 13.2658ZM12.7735 11.4448C12.2125 11.1527 11.5294 11.3778 11.2424 11.9291L10.7532 12.904L9.67166 13.0594C9.4297 13.0934 9.1946 13.2058 9.01395 13.3945C8.5816 13.8436 8.59729 14.5566 9.04502 14.9869L9.8227 15.7342L9.63927 16.7856L9.63831 16.7912C9.59649 17.0422 9.64275 17.2912 9.75424 17.5031M10.6666 13.0765C10.6668 13.0762 10.6669 13.0758 10.6671 13.0755L10.6666 13.0765ZM12.7735 11.4448C12.981 11.5528 13.1498 11.7216 13.2578 11.9291L13.2633 11.9395L13.7458 12.9031L14.8263 13.0593C15.4394 13.1433 15.8713 13.7067 15.7899 14.3225L15.0464 14.2243L15.7905 14.3184C15.7577 14.5776 15.6361 14.8108 15.4562 14.9849L15.4542 14.9869L14.6774 15.7333L14.8629 16.7959C14.9605 17.4106 14.5428 17.9921 13.9252 18.0917C13.6849 18.1311 13.4358 18.0919 13.2175 17.9769L12.25 17.4753L11.2817 17.9768C10.7297 18.268 10.0452 18.0561 9.75424 17.5031M10.9428 12.8767C10.9427 12.8767 10.9428 12.8767 10.9428 12.8767V12.8767Z" fill="#000000" />
</svg>