<svg width="24px"  height="24px"  viewBox="0 0 25 24" fill="none" xmlns="http://www.w3.org/2000/svg">
<path fill-rule="evenodd" clip-rule="evenodd" d="M15.4523 2.32984C15.8225 2.51563 15.972 2.96636 15.7862 3.33657L13.3309 8.22899L13.3594 8.28002C13.952 8.3695 14.5197 8.53587 15.0518 8.76866L18.1086 2.67435C18.2944 2.3041 18.7451 2.15451 19.1153 2.34022C19.4855 2.52594 19.6351 2.97663 19.4494 3.34688L16.353 9.52017C18.0272 10.7531 19.1148 12.7377 19.1148 14.9765C19.1148 18.7176 16.0777 21.7502 12.3412 21.7502C8.60459 21.7502 5.56754 18.7176 5.56754 14.9765C5.56754 12.6721 6.7198 10.6371 8.478 9.41377L5.06793 3.38111C4.8641 3.02052 4.99118 2.56296 5.35177 2.35913C5.71236 2.1553 6.16991 2.28238 6.37374 2.64297L9.79678 8.69857C10.3718 8.46515 10.986 8.30846 11.6266 8.24118L8.92293 3.37638C8.72171 3.01432 8.8521 2.5577 9.21416 2.35648C9.57621 2.15526 10.0328 2.28565 10.2341 2.6477L12.4514 6.63742L14.4456 2.66376C14.6314 2.29355 15.0821 2.14405 15.4523 2.32984ZM12.7109 9.71666C12.5887 9.70819 12.4654 9.70388 12.3412 9.70388C9.43223 9.70388 7.06754 12.0647 7.06754 14.9765C7.06754 17.8886 9.43239 20.2502 12.3412 20.2502C15.2499 20.2502 17.6148 17.8886 17.6148 14.9765C17.6148 12.2698 15.5715 10.0392 12.9472 9.73839C12.8673 9.74377 12.7875 9.73623 12.7109 9.71666Z" fill="#000000" />
<path fill-rule="evenodd" clip-rule="evenodd" d="M10.1172 13.9063C10.1172 12.7327 11.1024 11.8438 12.2546 11.8438C13.4001 11.8438 14.3814 12.7364 14.3814 13.9063C14.3814 14.4787 14.1776 15 13.7025 15.5561C13.6915 15.569 13.68 15.5815 13.6682 15.5936L13.0129 16.263H13.6139C14.0281 16.263 14.3639 16.5987 14.3639 17.013C14.3639 17.4272 14.0281 17.763 13.6139 17.763H11.2291C10.9272 17.763 10.6548 17.5819 10.5378 17.3036C10.4207 17.0253 10.482 16.704 10.6932 16.4883L12.5775 14.5635C12.8527 14.236 12.8814 14.0531 12.8814 13.9063C12.8814 13.6284 12.6367 13.3438 12.2546 13.3438C11.858 13.3438 11.6172 13.6321 11.6172 13.9063C11.6172 14.3205 11.2814 14.6563 10.8672 14.6563C10.453 14.6563 10.1172 14.3205 10.1172 13.9063Z" fill="#000000" />
</svg>