<svg width="24px"  height="24px"  viewBox="0 0 24 24" fill="none" xmlns="http://www.w3.org/2000/svg">
<path fill-rule="evenodd" clip-rule="evenodd" d="M2.84683 6.40916C3.10682 6.0867 3.57898 6.03606 3.90144 6.29605L10.4235 11.5546C11.3675 12.3032 12.7043 12.3035 13.6486 11.5555L20.1142 6.29801C20.4356 6.03668 20.908 6.08536 21.1693 6.40674C21.4306 6.72812 21.382 7.20049 21.0606 7.46181L14.5848 12.7275C13.0934 13.9126 10.9799 13.9125 9.48839 12.7275L9.4842 12.7241L2.95994 7.46377C2.63748 7.20378 2.58684 6.73162 2.84683 6.40916Z" fill="#000000" />
<path d="M16.431 20.8504H7.56701C6.89159 20.8598 6.22114 20.7335 5.59539 20.4791C4.96963 20.2248 4.40129 19.8474 3.92401 19.3694C3.37586 18.8023 2.94565 18.1321 2.65831 17.3976C2.37096 16.6631 2.23218 15.8789 2.25001 15.0904V8.91339C2.20606 8.18124 2.31067 7.44776 2.55756 6.75709C2.80445 6.06642 3.1885 5.43283 3.68662 4.89445C4.18474 4.35607 4.78662 3.92402 5.45606 3.62429C6.1255 3.32457 6.84865 3.16337 7.58201 3.15039H16.418C17.1514 3.16337 17.8745 3.32457 18.544 3.62429C19.2134 3.92402 19.8153 4.35607 20.3134 4.89445C20.8115 5.43283 21.1956 6.06642 21.4424 6.75709C21.6893 7.44776 21.794 8.18124 21.75 8.91339V15.0904C21.7673 15.8782 21.6283 16.6617 21.3409 17.3955C21.0536 18.1292 20.6237 18.7988 20.076 19.3654C19.5988 19.8443 19.0303 20.2225 18.4041 20.4776C17.778 20.7327 17.107 20.8595 16.431 20.8504V20.8504ZM7.58001 19.3504H16.429C16.9081 19.3587 17.384 19.2707 17.8284 19.0915C18.2728 18.9124 18.6767 18.6457 19.016 18.3074C19.4241 17.8793 19.7432 17.3746 19.955 16.8224C20.1668 16.2702 20.2671 15.6816 20.25 15.0904V8.91339C20.25 6.44339 18.639 4.65039 16.418 4.65039H7.58201C5.36101 4.65039 3.75001 6.44339 3.75001 8.91339V15.0904C3.73345 15.6809 3.83396 16.2688 4.04575 16.8203C4.25755 17.3717 4.57643 17.8758 4.98401 18.3034C5.32308 18.6415 5.72661 18.908 6.17066 19.0872C6.61471 19.2664 7.09024 19.3545 7.56901 19.3464L7.58001 19.3504Z" fill="#000000" />
</svg>