<svg width="24px"  height="24px"  viewBox="0 0 25 25" fill="none" xmlns="http://www.w3.org/2000/svg">
<path d="M12.2419 22.6609C10.2027 22.6592 8.21539 22.0179 6.55989 20.8272C4.90439 19.6365 3.66412 17.9565 3.01376 16.0238C2.36341 14.0911 2.33575 12.003 2.93467 10.0538C3.53359 8.10449 4.72893 6.39221 6.3523 5.1581C7.97568 3.92399 9.9453 3.23022 11.9837 3.17453C14.0222 3.11884 16.0268 3.70403 17.7151 4.84767C19.4034 5.99131 20.6905 7.63577 21.3949 9.54944C22.0994 11.4631 22.1858 13.5495 21.6419 15.5149C21.618 15.6124 21.5748 15.7041 21.5148 15.7845C21.4548 15.865 21.3793 15.9326 21.2927 15.9834C21.2062 16.0341 21.1103 16.067 21.0107 16.08C20.9112 16.093 20.8101 16.0859 20.7134 16.0591C20.6167 16.0324 20.5263 15.9864 20.4476 15.9241C20.369 15.8618 20.3036 15.7843 20.2555 15.6962C20.2073 15.6082 20.1773 15.5114 20.1673 15.4115C20.1572 15.3116 20.1673 15.2108 20.1969 15.1149C20.6731 13.3925 20.5768 11.562 19.9225 9.89916C19.2681 8.23627 18.0912 6.83103 16.5689 5.89509C15.0466 4.95914 13.2614 4.54317 11.4822 4.70984C9.70296 4.8765 8.02607 5.61678 6.70409 6.81916C5.3821 8.02154 4.48659 9.62091 4.15245 11.3764C3.81831 13.1319 4.06362 14.9484 4.85144 16.5524C5.63926 18.1563 6.92692 19.4609 8.52048 20.2695C10.1141 21.0782 11.9272 21.3471 13.6869 21.0359C13.8796 21.0088 14.0752 21.0575 14.2326 21.1718C14.3901 21.2861 14.497 21.4569 14.531 21.6485C14.5649 21.84 14.5232 22.0373 14.4147 22.1987C14.3061 22.3601 14.1391 22.4731 13.9489 22.5139C13.3852 22.6123 12.8141 22.6614 12.2419 22.6609Z" fill="#000000" />
<path d="M18.1963 21.8823C17.9974 21.8823 17.8066 21.8033 17.666 21.6626C17.5253 21.522 17.4463 21.3312 17.4463 21.1323V17.4873C17.4463 17.2884 17.5253 17.0976 17.666 16.957C17.8066 16.8163 17.9974 16.7373 18.1963 16.7373C18.3952 16.7373 18.586 16.8163 18.7266 16.957C18.8673 17.0976 18.9463 17.2884 18.9463 17.4873V21.1323C18.9463 21.3312 18.8673 21.522 18.7266 21.6626C18.586 21.8033 18.3952 21.8823 18.1963 21.8823Z" fill="#000000" />
<path d="M20.0201 20.0615H16.3721C16.1732 20.0615 15.9824 19.9825 15.8417 19.8419C15.7011 19.7012 15.6221 19.5104 15.6221 19.3115C15.6221 19.1126 15.7011 18.9218 15.8417 18.7812C15.9824 18.6405 16.1732 18.5615 16.3721 18.5615H20.0201C20.219 18.5615 20.4098 18.6405 20.5504 18.7812C20.6911 18.9218 20.7701 19.1126 20.7701 19.3115C20.7701 19.5104 20.6911 19.7012 20.5504 19.8419C20.4098 19.9825 20.219 20.0615 20.0201 20.0615Z" fill="#000000" />
<path d="M10.0902 17.2366C9.96172 17.2365 9.834 17.2173 9.71118 17.1796C9.41628 17.089 9.16404 16.8949 9.00088 16.6331C8.83772 16.3712 8.77461 16.0593 8.82318 15.7546L9.10617 14.1346L7.91818 12.9946C7.74603 12.8288 7.62404 12.6179 7.56618 12.386C7.50832 12.154 7.51692 11.9105 7.59101 11.6833C7.66509 11.456 7.80166 11.2542 7.98508 11.1009C8.1685 10.9477 8.39137 10.8491 8.62818 10.8166L10.2752 10.5806L11.0132 9.10863C11.1202 8.89822 11.2831 8.72135 11.4841 8.59745C11.685 8.47355 11.9162 8.4074 12.1523 8.40626C12.3884 8.40513 12.6202 8.46905 12.8224 8.59101C13.0245 8.71297 13.1891 8.88826 13.2982 9.09763L13.3042 9.10963L14.0392 10.5786L15.6912 10.8176C16.024 10.8641 16.325 11.0403 16.5285 11.3078C16.7319 11.5753 16.8213 11.9125 16.7772 12.2456C16.7385 12.53 16.6054 12.7931 16.3992 12.9926L15.2102 14.1346L15.4912 15.7416C15.531 15.9773 15.5041 16.2194 15.4134 16.4405C15.3227 16.6616 15.172 16.8529 14.9782 16.9928C14.7844 17.1327 14.5554 17.2155 14.3169 17.2319C14.0785 17.2483 13.8403 17.1976 13.6292 17.0856L12.1592 16.3236L10.6802 17.0896C10.4985 17.1861 10.2959 17.2366 10.0902 17.2366ZM9.99018 15.7596H9.98517H9.99018ZM9.29717 12.2396L10.2362 13.1396C10.3864 13.2837 10.4989 13.4624 10.5638 13.6602C10.6287 13.8579 10.6439 14.0686 10.6082 14.2736L10.3832 15.5586L11.5692 14.9436C11.7524 14.8499 11.9553 14.801 12.1612 14.801C12.367 14.801 12.5699 14.8499 12.7532 14.9436L13.9382 15.5576L13.7142 14.2726C13.6779 14.0673 13.693 13.8561 13.7583 13.6581C13.8236 13.46 13.9369 13.2812 14.0882 13.1376L15.0242 12.2376L13.7172 12.0486C13.5129 12.02 13.3185 11.9422 13.1508 11.8221C12.9831 11.7019 12.847 11.5429 12.7542 11.3586L12.1612 10.1726L11.5672 11.3576C11.4742 11.5418 11.3382 11.7008 11.1708 11.8213C11.0033 11.9417 10.8093 12.02 10.6052 12.0496L9.29717 12.2396Z" fill="#000000" />
</svg>