<svg width="24px"  height="24px"  viewBox="0 0 25 25" fill="none" xmlns="http://www.w3.org/2000/svg">
<path fill-rule="evenodd" clip-rule="evenodd" d="M12.7479 11.7008L12.6122 14.1848C12.5844 14.664 12.3331 15.1118 11.9203 15.3751C11.9198 15.3753 11.9194 15.3756 11.9189 15.3759L9.84421 16.7063C9.84323 16.7094 9.84299 16.7119 9.84308 16.7143C9.84314 16.7158 9.84335 16.7173 9.84365 16.7187L12.0926 17.596C12.093 17.5961 12.0933 17.5963 12.0936 17.5964C12.5563 17.7759 12.8874 18.1767 12.9955 18.6493C12.9955 18.6493 12.9955 18.6492 12.9955 18.6493L13.5401 21.0273L15.0336 19.118C15.334 18.735 15.8043 18.5163 16.2993 18.5522L16.3003 18.5523L18.6961 18.7295C18.6971 18.7212 18.6953 18.7151 18.6933 18.7112L17.3827 16.6226C17.3825 16.6223 17.3823 16.622 17.3821 16.6217C17.1223 16.2089 17.0799 15.6953 17.2621 15.2467C17.2624 15.2461 17.2626 15.2455 17.2628 15.2449L18.1937 12.9314L15.8974 13.5811C15.8969 13.5812 15.8964 13.5814 15.8958 13.5815C15.4188 13.7178 14.9106 13.5998 14.5399 13.2754L12.7479 11.7008ZM12.8355 10.174C11.9885 10.1119 11.3069 10.7739 11.2524 11.5786L11.1147 14.0983C11.1142 14.1049 11.1124 14.1095 11.1109 14.112C11.111 14.1119 11.1109 14.1121 11.1109 14.112L9.03913 15.4406C8.75635 15.6187 8.54487 15.8871 8.4331 16.1975C8.16493 16.9443 8.51555 17.8084 9.28152 18.1095L9.28334 18.1102L11.5343 18.9883L12.0919 21.4231L12.0937 21.431C12.169 21.7444 12.3417 22.0264 12.5889 22.2344L12.5905 22.2358C13.2339 22.774 14.1755 22.659 14.6814 22.0028L16.2093 20.0496L18.6062 20.227C18.9319 20.2532 19.2545 20.1683 19.5252 19.9889L19.5265 19.9881C20.2086 19.5341 20.3918 18.6152 19.9732 17.929L18.6524 15.824L18.6516 15.8227C18.6515 15.8225 18.651 15.8213 18.6508 15.819C18.6505 15.8158 18.6511 15.813 18.6519 15.8111L18.6531 15.808L19.5904 13.4786C19.7134 13.1713 19.7324 12.8313 19.6463 12.5132L19.646 12.5121C19.4358 11.7397 18.6411 11.2379 17.8331 11.4746L15.5107 12.1316L13.6867 10.5288L13.6789 10.5221C13.4432 10.3207 13.1492 10.1966 12.8355 10.174Z" fill="#000000" />
<path fill-rule="evenodd" clip-rule="evenodd" d="M17.8177 5.80255C16.1366 6.39839 13.9309 7.72707 11.625 9.68061C9.32441 11.6297 7.4105 13.7887 6.17587 15.6878C5.5576 16.6388 5.12459 17.5019 4.89174 18.2234C4.65193 18.9665 4.65894 19.4515 4.76368 19.7225C4.83065 19.8959 4.94466 20.0079 5.1733 20.0749C5.43665 20.152 5.8496 20.1622 6.43144 20.0364C7.59009 19.7859 9.16275 19.0528 10.936 17.8569C11.2794 17.6253 11.7455 17.7159 11.9771 18.0593C12.2087 18.4027 12.1181 18.8689 11.7747 19.1005C9.92555 20.3476 8.17075 21.195 6.74846 21.5026C6.03983 21.6558 5.34894 21.6894 4.75152 21.5144C4.11939 21.3291 3.61569 20.9133 3.36449 20.2632C3.07617 19.517 3.18441 18.6298 3.46423 17.7628C3.751 16.8741 4.256 15.8889 4.91826 14.8702C6.24469 12.8299 8.2619 10.5639 10.6554 8.53612C13.0437 6.51281 15.4064 5.06576 17.3166 4.38872C18.2641 4.05291 19.1684 3.88181 19.9357 3.97938C20.7439 4.08215 21.4451 4.49915 21.7627 5.3211C22.2049 6.46562 22.0622 8.11067 21.053 9.87367C20.8472 10.2332 20.389 10.3578 20.0295 10.152C19.67 9.94623 19.5454 9.48799 19.7512 9.12851C20.6067 7.63393 20.5977 6.46785 20.3635 5.86172C20.288 5.66642 20.1391 5.51732 19.7465 5.4674C19.3131 5.41228 18.6659 5.50192 17.8177 5.80255Z" fill="#000000" />
<path fill-rule="evenodd" clip-rule="evenodd" d="M4.52135 4.30637C4.80299 4.14377 5.15734 4.1812 5.39878 4.39906C5.9238 4.87278 6.64358 5.06554 7.33666 4.91804C7.65464 4.85036 7.98001 4.99525 8.14245 5.27686C8.30489 5.55847 8.2674 5.91267 8.04962 6.15404C7.57563 6.67935 7.38269 7.39941 7.53052 8.09133C7.61706 8.49641 7.35885 8.89494 6.95378 8.98148C6.5487 9.06803 6.15017 8.80981 6.06363 8.40474C5.91926 7.72903 5.96836 7.03717 6.19118 6.40289C6.00656 6.36822 5.82484 6.31955 5.64759 6.25732C5.52321 6.91796 5.21973 7.54138 4.758 8.05418C4.48083 8.362 4.00661 8.38685 3.69879 8.10968C3.39097 7.83252 3.36612 7.35829 3.64328 7.05047C4.11719 6.52415 4.3106 5.80389 4.16291 5.1126C4.09496 4.79457 4.23971 4.46898 4.52135 4.30637Z" fill="#000000" />
</svg>