<svg width="24px"  height="24px"  viewBox="0 0 25 24" fill="none" xmlns="http://www.w3.org/2000/svg">
<path fill-rule="evenodd" clip-rule="evenodd" d="M14.5338 6.66984L13.1981 9.33538L13.1969 9.33776C12.9532 9.81985 12.489 10.1519 11.9549 10.2274C11.9543 10.2275 11.9538 10.2276 11.9533 10.2276L8.95679 10.6592C8.92546 10.6633 8.89705 10.6778 8.87628 10.6993C8.82487 10.753 8.8261 10.8383 8.87992 10.8906C8.88005 10.8907 8.87979 10.8904 8.87992 10.8906L11.0428 12.9665C11.0431 12.9668 11.0434 12.9671 11.0437 12.9673C11.4357 13.3423 11.616 13.8883 11.5224 14.424L11.0116 17.3523C11.0074 17.3815 11.0121 17.4127 11.0275 17.4423C11.0663 17.5141 11.1552 17.5408 11.2268 17.5028L11.2333 17.4994L13.9067 16.1138C14.3859 15.8662 14.9556 15.8658 15.4348 16.1134L18.1135 17.5018C18.1423 17.5171 18.1749 17.5226 18.2069 17.5177C18.2874 17.5043 18.3411 17.4297 18.3299 17.3508L17.8195 14.4255C17.8194 14.4252 17.8194 14.4248 17.8193 14.4245C17.7248 13.8877 17.9053 13.3413 18.2985 12.9662C18.2989 12.9658 18.2994 12.9653 18.2998 12.9649L20.4592 10.8902C20.4594 10.89 20.4591 10.8903 20.4592 10.8902C20.4807 10.8693 20.4954 10.8407 20.4996 10.8105C20.5092 10.7351 20.456 10.668 20.3836 10.6585L20.3743 10.6573L17.3862 10.2269C17.3857 10.2268 17.3852 10.2268 17.3846 10.2267C16.8508 10.1512 16.3857 9.81915 16.1425 9.33555L14.8084 6.66954C14.7933 6.6415 14.7709 6.62004 14.7448 6.60658L14.7434 6.60586C14.667 6.56631 14.5742 6.59542 14.5338 6.66984ZM15.4327 5.27363C14.6209 4.85351 13.6215 5.1699 13.2006 5.98245L11.8583 8.661C11.8584 8.66077 11.8582 8.66123 11.8583 8.661C11.836 8.70454 11.7933 8.73539 11.7448 8.7422L8.75496 9.17275C8.39047 9.22214 8.05231 9.39285 7.79637 9.65822C7.16958 10.3093 7.18975 11.3443 7.8389 11.9705L7.84026 11.9718L10.0054 14.05L10.0067 14.0512C10.0383 14.0813 10.0521 14.1244 10.0448 14.1659L9.53292 17.1005L9.53152 17.1088C9.47354 17.4648 9.53465 17.8272 9.70125 18.143L9.70223 18.1449C10.1282 18.9471 11.1229 19.2537 11.9264 18.8297L14.5961 17.446C14.596 17.446 14.5962 17.446 14.5961 17.446C14.6433 17.4217 14.6989 17.4216 14.746 17.4458C14.7459 17.4458 14.7461 17.4459 14.746 17.4458L17.4148 18.8292C17.7301 18.9953 18.0908 19.055 18.4434 18.9989L18.4449 18.9987C19.3429 18.8539 19.9554 18.009 19.8104 17.1093L19.2969 14.166L19.2966 14.1644C19.2893 14.123 19.3028 14.0811 19.334 14.0514L21.5005 11.9698C21.7669 11.713 21.938 11.3731 21.9866 11.0074L21.9868 11.0062C22.1038 10.114 21.4783 9.29226 20.5841 9.17196L17.5974 8.74184L17.5947 8.74146C17.5459 8.73461 17.5043 8.70435 17.4829 8.66217C17.483 8.66231 17.4828 8.66203 17.4829 8.66217L16.1466 5.99184L16.142 5.98273C15.9847 5.67889 15.7374 5.43087 15.4327 5.27363Z" fill="#000000" />
<path fill-rule="evenodd" clip-rule="evenodd" d="M8.1188 16.3705C7.28593 16.3068 6.38541 16.4989 5.5071 16.8372C5.12057 16.9861 4.68653 16.7935 4.53764 16.407C4.38874 16.0204 4.58139 15.5864 4.96791 15.4375C5.97147 15.0509 7.10394 14.7885 8.23325 14.8749C8.64625 14.9065 8.95544 15.2669 8.92384 15.6799C8.89224 16.0929 8.53181 16.4021 8.1188 16.3705Z" fill="#000000" />
<path fill-rule="evenodd" clip-rule="evenodd" d="M6.17378 11.724C6.24341 12.1323 5.96886 12.5197 5.56054 12.5894C4.88607 12.7044 4.20436 12.9372 3.56092 13.2299C3.18388 13.4014 2.7392 13.2348 2.56771 12.8577C2.39622 12.4807 2.56285 12.036 2.9399 11.8645C3.66765 11.5335 4.47501 11.2528 5.30837 11.1107C5.71669 11.0411 6.10415 11.3156 6.17378 11.724Z" fill="#000000" />
<path fill-rule="evenodd" clip-rule="evenodd" d="M10.9292 6.50815C10.9178 6.9222 10.5728 7.2486 10.1588 7.23717C8.2969 7.18579 6.49453 7.73657 4.94772 8.67273C4.59336 8.8872 4.13222 8.77379 3.91775 8.41943C3.70328 8.06506 3.81669 7.60393 4.17106 7.38946C5.93163 6.32392 8.01472 5.67743 10.2002 5.73774C10.6142 5.74917 10.9406 6.09409 10.9292 6.50815Z" fill="#000000" />
</svg>