<svg width="24px"  height="24px"  viewBox="0 0 25 24" fill="none" xmlns="http://www.w3.org/2000/svg">
<path d="M8.73872 21.6748C8.39917 21.675 8.06844 21.5667 7.79472 21.3658C7.51271 21.158 7.30458 20.8654 7.20072 20.5308L6.40971 17.7788L3.60972 16.8358C3.32419 16.7427 3.07061 16.5711 2.87803 16.3406C2.68546 16.1101 2.56166 15.8301 2.52076 15.5325C2.47987 15.235 2.52355 14.932 2.6468 14.6581C2.77005 14.3842 2.9679 14.1505 3.21772 13.9838L5.6067 12.3628C5.62233 12.353 5.63528 12.3395 5.64436 12.3234C5.65344 12.3073 5.65836 12.2893 5.6587 12.2708L5.68971 9.41081C5.69337 9.1967 5.73944 8.98543 5.82527 8.78924C5.91109 8.59305 6.03496 8.41582 6.18971 8.2678C6.46609 8.00483 6.82656 7.84805 7.20738 7.82518C7.58819 7.8023 7.96482 7.9148 8.2707 8.1428L8.2797 8.14882L10.5507 9.88681C10.565 9.89707 10.5814 9.904 10.5987 9.90712C10.616 9.91023 10.6337 9.90945 10.6507 9.90481L13.4067 9.01881C13.6917 8.92599 13.997 8.91506 14.2878 8.98727C14.5787 9.05949 14.8434 9.21195 15.0519 9.42727C15.2603 9.6426 15.4041 9.91213 15.4668 10.2052C15.5296 10.4982 15.5087 10.803 15.4067 11.0848L14.4157 13.7848L16.0987 16.1848C16.3457 16.5344 16.4438 16.9678 16.3714 17.3897C16.299 17.8116 16.0621 18.1875 15.7127 18.4348C15.4264 18.633 15.0849 18.7359 14.7367 18.7288L11.8557 18.6568C11.8186 18.6634 11.784 18.68 11.7557 18.7048L10.0327 21.0198C9.90891 21.1898 9.75262 21.3337 9.57292 21.443C9.39321 21.5524 9.19363 21.625 8.9857 21.6568C8.90388 21.6685 8.82137 21.6745 8.73872 21.6748ZM7.31471 9.32281C7.284 9.32507 7.25502 9.33783 7.23261 9.35896C7.21021 9.38009 7.19577 9.40828 7.19172 9.43881L7.16072 12.2888C7.15729 12.5498 7.09062 12.806 6.96644 13.0356C6.84226 13.2651 6.66426 13.4611 6.4477 13.6068L4.0547 15.2298C3.9917 15.3368 4.0197 15.3918 4.0717 15.4078L6.80671 16.2888C7.05515 16.3691 7.28016 16.5089 7.46214 16.6961C7.64411 16.8833 7.77753 17.1122 7.85072 17.3628L8.63871 20.1058C8.71771 20.1828 8.79872 20.1718 8.82972 20.1298L10.5567 17.8098C10.7119 17.6013 10.9149 17.4331 11.1486 17.3193C11.3823 17.2056 11.6399 17.1495 11.8997 17.1558L14.7787 17.2278C14.8967 17.1768 14.9097 17.0968 14.8787 17.0548L13.2127 14.7548C13.0595 14.543 12.9611 14.2965 12.9262 14.0374C12.8913 13.7783 12.921 13.5146 13.0127 13.2698L14.0027 10.5758C13.9867 10.4608 13.9307 10.4298 13.8787 10.4498L11.1157 11.3368C10.8686 11.4161 10.6061 11.4346 10.3503 11.3908C10.0946 11.3469 9.85321 11.2419 9.64671 11.0848L7.3787 9.3498C7.36128 9.33345 7.33858 9.32388 7.31471 9.32281Z" fill="#000000" />
<path d="M10.9828 7.73588C10.8341 7.73635 10.6886 7.69257 10.5648 7.61013C10.441 7.52769 10.3445 7.4103 10.2876 7.27288C10.2306 7.13547 10.2159 6.98424 10.2451 6.8384C10.2744 6.69257 10.3463 6.55872 10.4518 6.45388L11.0308 5.87588C11.1723 5.73792 11.3625 5.6613 11.5602 5.66265C11.7578 5.66401 11.9469 5.74321 12.0866 5.8831C12.2262 6.02298 12.305 6.21228 12.306 6.40992C12.307 6.60756 12.2301 6.79762 12.0918 6.93888L11.5128 7.51689C11.3718 7.65675 11.1814 7.73543 10.9828 7.73588ZM13.4588 5.25888C13.3106 5.25874 13.1657 5.21469 13.0425 5.13227C12.9193 5.04985 12.8232 4.93276 12.7665 4.7958C12.7098 4.65884 12.695 4.50814 12.7238 4.36274C12.7527 4.21734 12.824 4.08376 12.9288 3.97888L14.3428 2.56487C14.4115 2.49119 14.4943 2.4321 14.5863 2.39111C14.6783 2.35012 14.7776 2.32807 14.8783 2.32629C14.979 2.32451 15.079 2.34304 15.1724 2.38076C15.2658 2.41848 15.3506 2.47463 15.4218 2.54585C15.4931 2.61707 15.5492 2.70189 15.5869 2.79528C15.6247 2.88867 15.6432 2.98871 15.6414 3.08941C15.6396 3.19011 15.6176 3.28942 15.5766 3.38142C15.5356 3.47342 15.4765 3.55623 15.4028 3.62489L13.9888 5.03889C13.9188 5.10942 13.8354 5.16523 13.7436 5.20301C13.6517 5.2408 13.5532 5.25978 13.4538 5.25888H13.4588Z" fill="#000000" />
<path d="M17.0321 7.94276C16.8839 7.94235 16.7391 7.89808 16.616 7.81553C16.4929 7.73298 16.3969 7.61585 16.3403 7.47888C16.2836 7.3419 16.2687 7.19122 16.2975 7.04582C16.3263 6.90041 16.3975 6.76677 16.5021 6.66175L17.8081 5.36175C17.8768 5.28806 17.9596 5.22896 18.0516 5.18797C18.1436 5.14698 18.2429 5.12494 18.3436 5.12316C18.4443 5.12139 18.5443 5.13992 18.6377 5.17764C18.7311 5.21536 18.816 5.2715 18.8872 5.34272C18.9584 5.41394 19.0146 5.49877 19.0523 5.59216C19.09 5.68555 19.1085 5.78557 19.1067 5.88627C19.1049 5.98697 19.0829 6.08629 19.0419 6.17829C19.0009 6.27029 18.9418 6.35309 18.8681 6.42175L17.5681 7.72775C17.4974 7.79718 17.4136 7.85193 17.3216 7.88883C17.2296 7.92573 17.1312 7.94407 17.0321 7.94276Z" fill="#000000" />
<path d="M16.9447 14.2143C16.7964 14.2142 16.6515 14.1701 16.5283 14.0877C16.4051 14.0053 16.3091 13.8882 16.2524 13.7512C16.1957 13.6143 16.1808 13.4636 16.2097 13.3182C16.2386 13.1728 16.3099 13.0392 16.4147 12.9343L18.2537 11.0983C18.395 10.9616 18.5845 10.8859 18.7811 10.8875C18.9778 10.8892 19.1659 10.968 19.305 11.1069C19.4441 11.2459 19.5231 11.434 19.5249 11.6307C19.5267 11.8273 19.4512 12.0168 19.3147 12.1583L17.4777 13.9943C17.4078 14.0644 17.3247 14.12 17.2332 14.1577C17.1417 14.1955 17.0436 14.2147 16.9447 14.2143ZM20.5007 10.6593C20.3522 10.6597 20.207 10.6159 20.0835 10.5335C19.9599 10.4512 19.8637 10.334 19.8069 10.1969C19.7501 10.0597 19.7353 9.90875 19.7645 9.76318C19.7937 9.61762 19.8654 9.484 19.9707 9.3793L20.7227 8.62631C20.8642 8.48976 21.0537 8.41425 21.2503 8.41605C21.447 8.41785 21.635 8.49682 21.774 8.63594C21.913 8.77506 21.9918 8.9632 21.9934 9.15985C21.995 9.3565 21.9193 9.54592 21.7827 9.6873L21.0307 10.4403C20.9611 10.5099 20.8785 10.5651 20.7875 10.6027C20.6965 10.6403 20.5991 10.6595 20.5007 10.6593Z" fill="#000000" />
</svg>