<svg width="24px"  height="24px"  viewBox="0 0 25 24" fill="none" xmlns="http://www.w3.org/2000/svg">
<path fill-rule="evenodd" clip-rule="evenodd" d="M14.3904 3.75076C14.3902 3.75083 14.3905 3.7507 14.3904 3.75076C14.3906 3.75062 14.3912 3.75033 14.3914 3.75026C14.3911 3.75015 14.3916 3.75031 14.3914 3.75026L14.3924 3.75057L15.8518 5.7408C16.1429 6.13617 16.6092 6.36217 17.0978 6.34837C17.0984 6.34835 17.0989 6.34834 17.0994 6.34832L19.5774 6.28462L18.121 8.25438C18.1205 8.25497 18.1201 8.25555 18.1197 8.25614C17.8252 8.65179 17.747 9.16827 17.9135 9.6342C17.9134 9.63395 17.9136 9.63445 17.9135 9.6342L18.7331 11.9404L16.36 11.1816C15.8943 11.0334 15.3852 11.1197 14.9948 11.4137L13.0055 12.9163L13.0152 10.4679C13.0152 10.4679 13.0152 10.4678 13.0152 10.4679C13.0173 9.97416 12.7726 9.51298 12.3647 9.23723C12.3644 9.23703 12.3641 9.23682 12.3638 9.23662L10.3346 7.85972L12.6938 7.09941C12.6943 7.09925 12.6949 7.09909 12.6954 7.09892C13.1613 6.95007 13.5256 6.58258 13.67 6.11457L13.6708 6.11202L14.3904 3.75076ZM10.3077 7.84153L10.3062 7.84046L10.2974 7.85342L9.88507 8.46108M14.8481 2.32146C14.0587 2.06963 13.2138 2.50446 12.9613 3.29471L12.2372 5.67059L9.85503 6.43828C9.53679 6.53804 9.2605 6.74218 9.07204 7.01849C8.61052 7.69651 8.78629 8.61939 9.46241 9.08064L9.46397 9.0817L11.5152 10.4735L11.5054 12.9316L11.5055 12.94C11.5078 13.2672 11.6177 13.5819 11.8146 13.8388L11.8159 13.8404C12.3188 14.4926 13.2546 14.6153 13.9083 14.1142L15.8973 12.6118C15.8973 12.6119 15.8974 12.6118 15.8973 12.6118C15.8994 12.6103 15.9016 12.6099 15.9041 12.6106C15.904 12.6106 15.9041 12.6107 15.9041 12.6106L18.2775 13.3696C18.5845 13.4698 18.9158 13.4683 19.2222 13.3645L19.2237 13.364C20.0044 13.0978 20.4234 12.2492 20.1567 11.4669L19.3304 9.14169L20.8036 7.14915L20.8045 7.14799C21.0036 6.87758 21.1049 6.5475 21.0926 6.21296L21.0926 6.21176C21.0614 5.39608 20.3769 4.75629 19.5588 4.7846L17.0582 4.84889L15.5961 2.85541L15.59 2.84721C15.4033 2.59971 15.1445 2.41566 14.8481 2.32146Z" fill="#000000" />
<path fill-rule="evenodd" clip-rule="evenodd" d="M4.48518 14.3077C4.407 12.272 5.11681 10.1866 6.3676 8.50509C8.0372 6.2605 10.5782 4.8527 13.2933 5.19134C13.7043 5.24261 14.0791 4.95096 14.1303 4.53993C14.1816 4.12891 13.89 3.75414 13.4789 3.70288C10.0977 3.28114 7.06943 5.04828 5.16405 7.60984C3.26076 10.1686 2.38534 13.6372 3.41518 16.794C3.51399 17.0969 3.79338 17.3043 4.11191 17.3112C4.43044 17.3182 4.71857 17.1231 4.83044 16.8248C5.45406 15.1618 6.75504 13.7157 8.18813 12.821C9.65671 11.9042 11.0568 11.6826 11.9365 12.0858C12.3131 12.2584 12.7582 12.0931 12.9308 11.7166C13.1034 11.34 12.9381 10.8949 12.5616 10.7223C11.0022 10.0074 9.03118 10.5264 7.39375 11.5487C6.30908 12.2258 5.28033 13.1751 4.48518 14.3077Z" fill="#000000" />
<path fill-rule="evenodd" clip-rule="evenodd" d="M18.4091 15.1456C18.7309 15.0986 19.0463 15.2644 19.1901 15.5561C19.5221 16.2296 20.1565 16.7023 20.8981 16.8288C21.2185 16.8835 21.4673 17.1385 21.5141 17.4602C21.5609 17.7819 21.3951 18.0971 21.1035 18.2409C20.4297 18.573 19.9567 19.2076 19.8309 19.9483C19.7764 20.2689 19.5216 20.5179 19.1998 20.5648C18.878 20.6118 18.5626 20.446 18.4188 20.1543C18.0867 19.4807 17.4514 19.0076 16.7112 18.8816C16.3908 18.8271 16.1419 18.5724 16.0948 18.2508C16.0478 17.9292 16.2133 17.6139 16.5046 17.4699C17.1787 17.1367 17.6523 16.5021 17.778 15.7621C17.8324 15.4415 18.0873 15.1925 18.4091 15.1456ZM18.7365 17.3904C18.6197 17.579 18.4868 17.7572 18.3394 17.9229C18.5281 18.0396 18.7063 18.1724 18.8721 18.3198C18.9888 18.1312 19.1216 17.953 19.2691 17.7872C19.0804 17.6706 18.9022 17.5378 18.7365 17.3904Z" fill="#000000" />
<path fill-rule="evenodd" clip-rule="evenodd" d="M9.68797 13.9677C10.0107 13.9275 10.3225 14.0998 10.4602 14.3944C11.0273 15.6081 12.1414 16.4746 13.4585 16.7278C13.7778 16.7892 14.0211 17.0492 14.0612 17.3719C14.1013 17.6945 13.929 18.0062 13.6344 18.1438C12.4204 18.7111 11.5531 19.8254 11.3012 21.1415C11.2401 21.4609 10.98 21.7046 10.6573 21.7448C10.3346 21.785 10.0228 21.6127 9.88508 21.318C9.31791 20.1042 8.20241 19.2368 6.88718 18.9848C6.56796 18.9236 6.32447 18.6637 6.28414 18.3412C6.24382 18.0187 6.41582 17.7069 6.71015 17.569C7.92392 17.0003 8.79232 15.8865 9.0441 14.571C9.10523 14.2515 9.36525 14.0079 9.68797 13.9677ZM9.98898 16.3837C9.66578 17.0109 9.22819 17.5726 8.69945 18.0396C9.32671 18.3625 9.88879 18.7997 10.356 19.3286C10.679 18.7013 11.1163 18.1394 11.6452 17.6724C11.0179 17.3495 10.4561 16.9124 9.98898 16.3837Z" fill="#000000" />
</svg>