<svg width="24px"  height="24px"  viewBox="0 0 25 24" fill="none" xmlns="http://www.w3.org/2000/svg">
<path fill-rule="evenodd" clip-rule="evenodd" d="M14.909 6.84391L13.6268 9.4028L13.6256 9.40519C13.3871 9.87684 12.9329 10.2017 12.4104 10.2755C12.4099 10.2756 12.4094 10.2757 12.4089 10.2757L9.5316 10.6901C9.50819 10.6932 9.48713 10.704 9.47189 10.7197C9.43398 10.7594 9.43479 10.8224 9.47463 10.8612C9.47475 10.8613 9.47451 10.8611 9.47463 10.8612L11.5512 12.8543C11.5515 12.8546 11.551 12.8541 11.5512 12.8543C11.9349 13.2212 12.1121 13.7561 12.0206 14.2803C12.0206 14.2804 12.0206 14.2803 12.0206 14.2803L11.5302 17.0917C11.5271 17.1133 11.5306 17.1367 11.5423 17.1595C11.5718 17.2138 11.6391 17.2339 11.6932 17.2052L11.6998 17.2017L14.2667 15.8713C14.7354 15.6291 15.2927 15.6287 15.7614 15.8709L18.3337 17.2042C18.3556 17.2158 18.3803 17.22 18.4046 17.2163C18.4656 17.206 18.5061 17.1496 18.4979 17.0902L18.0079 14.282C18.0079 14.2817 18.0078 14.2813 18.0077 14.281C17.9153 13.7557 18.0918 13.2211 18.4766 12.854C18.477 12.8536 18.4775 12.8532 18.4779 12.8527L20.5512 10.8608C20.5513 10.8607 20.5511 10.8608 20.5512 10.8608C20.567 10.8455 20.5779 10.8242 20.581 10.8018C20.5881 10.7458 20.5485 10.6964 20.4954 10.6895L20.4861 10.6882L17.6172 10.275C17.6167 10.275 17.6162 10.2749 17.6157 10.2748C17.0934 10.201 16.6384 9.87616 16.4005 9.403L15.1197 6.84359C15.108 6.82212 15.091 6.80597 15.0714 6.79588L15.07 6.79516C15.0113 6.76475 14.9401 6.78704 14.909 6.84391ZM15.7594 5.46296C14.9653 5.05197 13.9877 5.36145 13.5759 6.15631L12.2869 8.72843C12.287 8.72822 12.2868 8.72863 12.2869 8.72843C12.2699 8.76153 12.2373 8.78511 12.2005 8.79028L9.32975 9.20368C8.97319 9.25202 8.64238 9.41903 8.39198 9.67866C7.7787 10.3157 7.79843 11.3284 8.43357 11.9411L8.43493 11.9424L10.5139 13.9378L10.5152 13.939C10.5382 13.9611 10.5482 13.9924 10.5429 14.0224L10.0514 16.8401L10.05 16.8484C9.9933 17.1967 10.0531 17.5512 10.2161 17.8602L10.217 17.862C10.6337 18.6468 11.6068 18.9467 12.3928 18.532L14.9561 17.2035C14.956 17.2035 14.9561 17.2035 14.9561 17.2035C14.9927 17.1847 15.0359 17.1845 15.0725 17.2033C15.0724 17.2033 15.0726 17.2034 15.0725 17.2033L17.635 18.5315C17.9434 18.694 18.2962 18.7524 18.641 18.6975L18.6426 18.6973C19.5211 18.5557 20.1203 17.7291 19.9784 16.8489L19.4853 14.0225L19.485 14.0209C19.4797 13.991 19.4894 13.9608 19.5121 13.9392L21.5925 11.9404C21.8531 11.6891 22.0205 11.3566 22.0681 10.9988L22.0682 10.9976C22.1828 10.1247 21.5708 9.32069 20.696 9.20292L17.8283 8.78995L17.8257 8.78958C17.7884 8.78436 17.7569 8.76131 17.7408 8.72959C17.7409 8.72972 17.7408 8.72946 17.7408 8.72959L16.4578 6.1657L16.4532 6.15659C16.2994 5.85941 16.0575 5.6168 15.7594 5.46296Z" fill="#000000" />
<path fill-rule="evenodd" clip-rule="evenodd" d="M3.9193 15.4386C3.89639 13.6821 4.67733 11.6889 6.10553 10.1725C7.82542 8.34645 10.4184 7.28448 13.5168 8.2186C13.9134 8.33816 14.3318 8.11359 14.4514 7.71701C14.5709 7.32043 14.3464 6.90201 13.9498 6.78245C10.2367 5.66304 7.07054 6.96016 5.0136 9.14408C2.9892 11.2934 1.97259 14.3757 2.60434 16.9477C2.66518 17.1954 2.84773 17.3952 3.08893 17.4781C3.33013 17.561 3.59693 17.5156 3.79718 17.3576C4.54045 16.7714 5.75653 16.0007 7.06405 15.5861C8.37817 15.1694 9.64776 15.1505 10.6598 15.8408C11.002 16.0742 11.4687 15.9859 11.702 15.6437C11.9354 15.3015 11.8472 14.8349 11.505 14.6015C9.95015 13.5411 8.13474 13.673 6.61066 14.1563C5.61188 14.473 4.67924 14.9571 3.9193 15.4386Z" fill="#000000" />
</svg>