<svg width="24px"  height="24px"  viewBox="0 0 25 25" fill="none" xmlns="http://www.w3.org/2000/svg">
<path fill-rule="evenodd" clip-rule="evenodd" d="M11.902 3.16602C12.3162 3.16602 12.652 3.5018 12.652 3.91602V5.95136C12.652 6.36557 12.3162 6.70136 11.902 6.70136C11.4878 6.70136 11.152 6.36557 11.152 5.95136V3.91602C11.152 3.5018 11.4878 3.16602 11.902 3.16602ZM18.5515 5.91993C18.8443 6.2129 18.8442 6.68777 18.5512 6.98059L17.1112 8.41983C16.8182 8.71264 16.3433 8.71252 16.0505 8.41955C15.7577 8.12657 15.7578 7.6517 16.0508 7.35888L17.4908 5.91965C17.7838 5.62683 18.2587 5.62696 18.5515 5.91993ZM5.25371 5.92027C5.54663 5.6274 6.0215 5.62744 6.31437 5.92036L7.75337 7.3596C8.04624 7.65252 8.0462 8.12739 7.75328 8.42026C7.46036 8.71313 6.98549 8.71309 6.69262 8.42017L5.25362 6.98093C4.96075 6.68801 4.96079 6.21314 5.25371 5.92027ZM2.5 12.5683C2.5 12.1541 2.83579 11.8183 3.25 11.8183H5.285C5.69922 11.8183 6.035 12.1541 6.035 12.5683C6.035 12.9825 5.69922 13.3183 5.285 13.3183H3.25C2.83579 13.3183 2.5 12.9825 2.5 12.5683ZM17.769 12.5683C17.769 12.1541 18.1048 11.8183 18.519 11.8183H20.554C20.9682 11.8183 21.304 12.1541 21.304 12.5683C21.304 12.9825 20.9682 13.3183 20.554 13.3183H18.519C18.1048 13.3183 17.769 12.9825 17.769 12.5683ZM7.75327 16.7164C8.04619 17.0093 8.04624 17.4841 7.75338 17.7771L6.31438 19.2164C6.02152 19.5093 5.54665 19.5093 5.25372 19.2165C4.9608 18.9236 4.96075 18.4487 5.25361 18.1558L6.69261 16.7165C6.98547 16.4236 7.46034 16.4235 7.75327 16.7164ZM11.902 18.4352C12.3162 18.4352 12.652 18.771 12.652 19.1852V21.2205C12.652 21.6347 12.3162 21.9705 11.902 21.9705C11.4878 21.9705 11.152 21.6347 11.152 21.2205V19.1852C11.152 18.771 11.4878 18.4352 11.902 18.4352Z" fill="#000000" />
<path fill-rule="evenodd" clip-rule="evenodd" d="M16.0497 16.7167C16.3426 16.4238 16.8175 16.4238 17.1104 16.7167L21.7794 21.3856C22.0723 21.6785 22.0723 22.1534 21.7794 22.4463C21.4865 22.7392 21.0117 22.7392 20.7188 22.4463L16.0498 17.7774C15.7569 17.4845 15.7569 17.0096 16.0497 16.7167Z" fill="#000000" />
</svg>