<svg width="24px"  height="24px"  viewBox="0 0 25 25" fill="none" xmlns="http://www.w3.org/2000/svg">
<path d="M5.77082 20.1882C5.62258 20.1881 5.47771 20.144 5.3545 20.0616C5.23128 19.9792 5.13524 19.8621 5.07853 19.7251C5.02182 19.5882 5.00698 19.4375 5.03586 19.2921C5.06475 19.1467 5.13606 19.0131 5.24082 18.9082L6.24082 17.9082C6.38152 17.7675 6.57236 17.6885 6.77134 17.6885C6.97031 17.6885 7.16113 17.7675 7.30182 17.9082C7.44252 18.0489 7.52155 18.2397 7.52155 18.4387C7.52155 18.6377 7.44252 18.8285 7.30182 18.9692L6.30182 19.9692C6.23205 20.0388 6.14922 20.094 6.05811 20.1316C5.967 20.1691 5.86938 20.1884 5.77082 20.1882Z" fill="#000000" />
<path d="M18.7719 20.1659C18.5732 20.1659 18.3826 20.0871 18.2419 19.9469L17.2419 18.9469C17.1683 18.8781 17.1094 18.7952 17.0685 18.7032C17.0276 18.6112 17.0057 18.5118 17.004 18.4112C17.0023 18.3105 17.0209 18.2105 17.0586 18.1171C17.0963 18.0237 17.1524 17.9389 17.2236 17.8677C17.2948 17.7964 17.3796 17.7402 17.4729 17.7024C17.5662 17.6646 17.6662 17.6459 17.7669 17.6476C17.8676 17.6492 17.9669 17.671 18.059 17.7118C18.1511 17.7526 18.234 17.8114 18.3029 17.8849L19.3029 18.8849C19.408 18.9898 19.4797 19.1236 19.5087 19.2692C19.5378 19.4149 19.5229 19.5659 19.466 19.7031C19.4092 19.8403 19.3128 19.9576 19.1893 20.0399C19.0657 20.1223 18.9204 20.1662 18.7719 20.1659Z" fill="#000000" />
<path d="M6.74945 8.18843C6.55061 8.18825 6.35997 8.10912 6.21945 7.96842L5.21945 6.96842C5.14779 6.89927 5.09062 6.81654 5.05127 6.72505C5.01192 6.63357 4.99118 6.53516 4.99027 6.43558C4.98935 6.336 5.00829 6.23723 5.04596 6.14504C5.08363 6.05285 5.13927 5.96908 5.20966 5.89863C5.28004 5.82818 5.36375 5.77245 5.4559 5.7347C5.54806 5.69694 5.64682 5.67792 5.7464 5.67874C5.84598 5.67955 5.9444 5.7002 6.03592 5.73947C6.12744 5.77873 6.21023 5.83582 6.27945 5.90742L7.27945 6.90742C7.38406 7.01244 7.45526 7.14607 7.48407 7.29148C7.51288 7.43688 7.49802 7.58756 7.44135 7.72454C7.38468 7.86151 7.28871 7.97865 7.16559 8.0612C7.04247 8.14375 6.89768 8.18802 6.74945 8.18843Z" fill="#000000" />
<path d="M17.7509 8.16626C17.6027 8.16585 17.4579 8.12158 17.3348 8.03903C17.2116 7.95648 17.1157 7.83935 17.059 7.70238C17.0023 7.56541 16.9875 7.41473 17.0163 7.26932C17.0451 7.12391 17.1163 6.99028 17.2209 6.88526L18.2209 5.88526C18.2906 5.81566 18.3734 5.76047 18.4645 5.72285C18.5555 5.68524 18.6531 5.66592 18.7516 5.66602C18.8501 5.66611 18.9477 5.68561 19.0386 5.7234C19.1296 5.76119 19.2123 5.81653 19.2819 5.88626C19.3515 5.95599 19.4067 6.03875 19.4443 6.12981C19.4819 6.22087 19.5012 6.31845 19.5011 6.41697C19.501 6.51549 19.4816 6.61303 19.4438 6.70402C19.406 6.79501 19.3506 6.87766 19.2809 6.94726L18.2809 7.94726C18.2113 8.01679 18.1286 8.07191 18.0377 8.10949C17.9468 8.14707 17.8493 8.16636 17.7509 8.16626Z" fill="#000000" />
<path d="M12.25 22.666C12.0511 22.666 11.8603 22.587 11.7197 22.4463C11.579 22.3057 11.5 22.1149 11.5 21.916V20.916C11.5 20.7171 11.579 20.5263 11.7197 20.3857C11.8603 20.245 12.0511 20.166 12.25 20.166C12.4489 20.166 12.6397 20.245 12.7803 20.3857C12.921 20.5263 13 20.7171 13 20.916V21.916C13 22.1149 12.921 22.3057 12.7803 22.4463C12.6397 22.587 12.4489 22.666 12.25 22.666Z" fill="#000000" />
<path d="M12.25 5.66602C12.0511 5.66602 11.8603 5.58699 11.7197 5.44634C11.579 5.30569 11.5 5.11493 11.5 4.91602V3.91602C11.5 3.7171 11.579 3.52634 11.7197 3.38569C11.8603 3.24504 12.0511 3.16602 12.25 3.16602C12.4489 3.16602 12.6397 3.24504 12.7803 3.38569C12.921 3.52634 13 3.7171 13 3.91602V4.91602C13 5.11493 12.921 5.30569 12.7803 5.44634C12.6397 5.58699 12.4489 5.66602 12.25 5.66602Z" fill="#000000" />
<path d="M4.29501 13.666H3.25C3.05109 13.666 2.86032 13.587 2.71967 13.4463C2.57901 13.3057 2.5 13.1149 2.5 12.916C2.5 12.7171 2.57901 12.5263 2.71967 12.3857C2.86032 12.245 3.05109 12.166 3.25 12.166H4.29501C4.49393 12.166 4.68467 12.245 4.82532 12.3857C4.96597 12.5263 5.04501 12.7171 5.04501 12.916C5.04501 13.1149 4.96597 13.3057 4.82532 13.4463C4.68467 13.587 4.49393 13.666 4.29501 13.666Z" fill="#000000" />
<path d="M21.2501 13.666H20.2051C20.0062 13.666 19.8154 13.587 19.6748 13.4463C19.5341 13.3057 19.4551 13.1149 19.4551 12.916C19.4551 12.7171 19.5341 12.5263 19.6748 12.3857C19.8154 12.245 20.0062 12.166 20.2051 12.166H21.2501C21.449 12.166 21.6398 12.245 21.7804 12.3857C21.9211 12.5263 22.0001 12.7171 22.0001 12.916C22.0001 13.1149 21.9211 13.3057 21.7804 13.4463C21.6398 13.587 21.449 13.666 21.2501 13.666Z" fill="#000000" />
<path d="M10.2381 17.2101C10.111 17.2097 9.98472 17.1909 9.86309 17.1541C9.70421 17.1055 9.55649 17.026 9.42846 16.9201C9.30043 16.8142 9.19462 16.6841 9.11709 16.5371C8.98949 16.294 8.9432 16.0164 8.98507 15.7451L9.25909 14.1781L8.11007 13.0781C7.93936 12.9137 7.81857 12.7043 7.76156 12.4742C7.70455 12.2441 7.71366 12.0026 7.78784 11.7775C7.86201 11.5523 7.99826 11.3527 8.18087 11.2016C8.36349 11.0504 8.58505 10.9539 8.82009 10.9231L10.4061 10.6951L11.1181 9.27312C11.2241 9.06526 11.3853 8.89056 11.5839 8.76816C11.7826 8.64576 12.0111 8.58036 12.2444 8.57912C12.4778 8.57788 12.707 8.64085 12.9069 8.76113C13.1069 8.88142 13.2698 9.0544 13.3781 9.26112L13.3841 9.27412L14.0941 10.6951L15.6941 10.9251C16.0229 10.9709 16.3203 11.1445 16.5218 11.4084C16.7233 11.6722 16.8125 12.0049 16.7701 12.3341C16.7316 12.6164 16.5996 12.8777 16.3951 13.0761L15.2461 14.1761L15.5181 15.7301C15.5572 15.9629 15.5304 16.202 15.4408 16.4205C15.3511 16.6389 15.2022 16.8278 15.0108 16.9661C14.8194 17.1043 14.5932 17.1863 14.3577 17.2027C14.1222 17.2191 13.8868 17.1694 13.6781 17.0591L12.2501 16.3241L10.8201 17.0651C10.641 17.1606 10.4411 17.2104 10.2381 17.2101ZM9.50808 12.3421L10.3921 13.1901C10.5417 13.3329 10.6535 13.5107 10.7172 13.7074C10.7809 13.9042 10.7946 14.1137 10.7571 14.3171L10.5481 15.5171L11.6651 14.9371C11.8463 14.8442 12.047 14.7957 12.2506 14.7957C12.4542 14.7957 12.6549 14.8442 12.8361 14.9371L13.9531 15.5171L13.7411 14.3071C13.706 14.1047 13.7211 13.8967 13.7851 13.7014C13.849 13.5061 13.96 13.3295 14.1081 13.1871L14.9921 12.3381L13.7621 12.1611C13.5602 12.1321 13.3683 12.0548 13.2026 11.936C13.0369 11.8171 12.9023 11.66 12.8101 11.4781L12.2501 10.3611L11.6911 11.4771C11.599 11.6602 11.4637 11.8183 11.297 11.9376C11.1303 12.0569 10.9372 12.134 10.7341 12.1621L9.50808 12.3421Z" fill="#000000" />
</svg>