<svg width="24px"  height="24px"  viewBox="0 0 25 25" fill="none" xmlns="http://www.w3.org/2000/svg">
<path fill-rule="evenodd" clip-rule="evenodd" d="M12.6809 5.42605L14.5091 9.07451L14.5103 9.0769C14.803 9.6558 15.3606 10.0545 16.002 10.145C16.0025 10.1451 16.0029 10.1452 16.0034 10.1452L20.0992 10.7351C20.2036 10.7489 20.2998 10.7976 20.3716 10.8719C20.5477 11.0551 20.5424 11.3462 20.3595 11.5232C20.3593 11.5234 20.3597 11.5231 20.3595 11.5232L17.4006 14.3632C17.4004 14.3634 17.4001 14.3637 17.3998 14.364C16.9299 14.8134 16.7137 15.4675 16.8258 16.1094C16.8258 16.1095 16.8258 16.1094 16.8258 16.1094L17.5249 20.1173C17.5405 20.2171 17.5237 20.3206 17.4747 20.4138C17.3505 20.6464 17.0619 20.7345 16.8293 20.611L16.8228 20.6075L13.1668 18.7127C12.5908 18.4151 11.9063 18.4146 11.3304 18.7122L7.66961 20.6097C7.57744 20.6586 7.47236 20.6762 7.36945 20.66C7.10911 20.6177 6.93285 20.3743 6.97252 20.1156L7.67122 16.1111C7.67127 16.1108 7.67116 16.1114 7.67122 16.1111C7.78458 15.4679 7.56854 14.8122 7.09714 14.3626C7.09668 14.3622 7.09622 14.3617 7.09576 14.3613L4.14131 11.5227C4.1412 11.5226 4.14141 11.5228 4.14131 11.5227C4.06691 11.4508 4.01804 11.3545 4.00421 11.2514C3.97124 10.9978 4.14964 10.767 4.40027 10.7341L4.40957 10.7329L8.4969 10.1442C8.49738 10.1442 8.49785 10.1441 8.49833 10.144C9.13951 10.0536 9.69792 9.65483 9.98973 9.07441L11.8156 5.42576C11.8625 5.33677 11.9345 5.26593 12.0213 5.22118L12.0227 5.22046C12.2621 5.09639 12.5556 5.18884 12.6809 5.42605ZM11.3334 3.88823C12.3086 3.38345 13.509 3.76354 14.0146 4.7395L15.849 8.40013C15.8491 8.40044 15.8493 8.40075 15.8495 8.40106C15.9207 8.54123 16.0563 8.63795 16.2119 8.65979L20.3008 9.24863C20.7385 9.30767 21.1444 9.51253 21.4515 9.83088C22.203 10.6115 22.1788 11.8524 21.4004 12.6033L21.399 12.6046L18.438 15.4466L18.4367 15.4479C18.3272 15.5524 18.2777 15.7038 18.3035 15.8515L19.0035 19.8647L19.0049 19.873C19.0744 20.2999 19.0012 20.7348 18.801 21.1144L18.8001 21.1163C18.2886 22.0795 17.0941 22.4473 16.1296 21.9378L12.4774 20.0449C12.4775 20.0449 12.4773 20.0448 12.4774 20.0449C12.3334 19.9706 12.1628 19.9705 12.0189 20.0449L8.37171 21.9353C8.37064 21.9359 8.36958 21.9364 8.36852 21.937C7.98972 22.1367 7.55642 22.2086 7.13282 22.1412L7.1313 22.141C6.05319 21.9672 5.31816 20.9529 5.49221 19.8732L6.19383 15.8516L6.19412 15.85C6.22025 15.7021 6.17096 15.5519 6.06156 15.4478L3.1 12.6024C2.78073 12.2944 2.57544 11.8868 2.51719 11.4483L2.51703 11.4471C2.37656 10.3767 3.12745 9.39119 4.19988 9.24757L8.28576 8.65917L8.28842 8.65879C8.44452 8.63688 8.57941 8.53992 8.64942 8.40094C8.64937 8.40104 8.64948 8.40083 8.64942 8.40094L10.477 4.74888L10.4816 4.73978C10.6706 4.37466 10.9676 4.07692 11.3334 3.88823Z" fill="#000000" />
<path fill-rule="evenodd" clip-rule="evenodd" d="M12.25 3.66504C11.8358 3.66504 11.5 4.00083 11.5 4.41504V19.2142C11.5 19.6284 11.8358 19.9642 12.25 19.9642C12.6642 19.9642 13 19.6284 13 19.2142V4.41504C13 4.00083 12.6642 3.66504 12.25 3.66504Z" fill="#000000" />
<path fill-rule="evenodd" clip-rule="evenodd" d="M18.3185 15.5985C18.4436 15.2036 18.225 14.7821 17.8301 14.6569L3.54515 10.1296C3.15029 10.0044 2.72875 10.2231 2.60361 10.6179C2.47847 11.0128 2.69711 11.4343 3.09197 11.5595L17.3769 16.0868C17.7718 16.212 18.1933 15.9933 18.3185 15.5985Z" fill="#000000" />
<path fill-rule="evenodd" clip-rule="evenodd" d="M6.15808 15.5985C6.03294 15.2036 6.25159 14.7821 6.64645 14.6569L20.9314 10.1296C21.3263 10.0044 21.7478 10.2231 21.873 10.6179C21.9981 11.0128 21.7794 11.4343 21.3846 11.5595L7.09963 16.0868C6.70477 16.212 6.28323 15.9933 6.15808 15.5985Z" fill="#000000" />
<path fill-rule="evenodd" clip-rule="evenodd" d="M15.9974 8.58309C16.3312 8.8283 16.4031 9.29771 16.1579 9.63154L7.33888 21.6379C7.09367 21.9717 6.62427 22.0435 6.29043 21.7983C5.9566 21.5531 5.88476 21.0837 6.12997 20.7499L14.9489 8.74356C15.1941 8.40972 15.6636 8.33788 15.9974 8.58309Z" fill="#000000" />
<path fill-rule="evenodd" clip-rule="evenodd" d="M8.53313 8.58152C8.19842 8.82554 8.12491 9.29469 8.36893 9.62939L17.1224 21.6358C17.3665 21.9705 17.8356 22.044 18.1703 21.8C18.505 21.5559 18.5785 21.0868 18.3345 20.7521L9.581 8.74571C9.33698 8.41101 8.86783 8.3375 8.53313 8.58152Z" fill="#000000" />
</svg>