<svg width="24px"  height="24px"  viewBox="0 0 25 25" fill="none" xmlns="http://www.w3.org/2000/svg">
<path fill-rule="evenodd" clip-rule="evenodd" d="M5.08745 5.83613C4.41024 6.56267 4 7.62552 4 8.94239V16.8896C4 18.2074 4.40861 19.2701 5.08451 19.9962C5.75475 20.7163 6.74341 21.166 8.03216 21.166H16.4659C17.7552 21.166 18.7444 20.7162 19.415 19.9961C20.0912 19.27 20.5 18.2073 20.5 16.8896V8.94239C20.5 7.62468 20.0912 6.56197 19.4151 5.83585C18.7446 5.11576 17.7557 4.66602 16.4669 4.66602H8.03216C6.74828 4.66602 5.75921 5.11544 5.08745 5.83613ZM3.9902 4.81338C4.97468 3.75718 6.37669 3.16602 8.03216 3.16602H16.4669C18.1262 3.16602 19.5289 3.75686 20.5129 4.81366C21.4913 5.86442 22 7.3149 22 8.94239V16.8896C22 18.5171 21.4913 19.9676 20.5127 21.0184C19.5285 22.0752 18.1257 22.666 16.4659 22.666H8.03216C6.3728 22.666 4.97038 22.0751 3.98657 21.0183C3.00842 19.9675 2.5 18.517 2.5 16.8896V8.94239C2.5 7.31406 3.01117 5.86372 3.9902 4.81338Z" fill="#000000" />
<path fill-rule="evenodd" clip-rule="evenodd" d="M12.2507 9.74088L12.9967 11.2316C13.195 11.6261 13.5741 11.8967 14.0092 11.9583C14.0097 11.9584 14.0102 11.9584 14.0107 11.9585L15.6588 12.1958L14.475 13.3333C14.4744 13.3338 14.4739 13.3343 14.4733 13.3349C14.1524 13.6414 14.005 14.0878 14.0822 14.5263C14.0822 14.5267 14.0823 14.527 14.0823 14.5274L14.365 16.1471L12.8732 15.3739C12.4832 15.1724 12.0193 15.1719 11.6292 15.3735L10.1362 16.1473L10.419 14.5259C10.419 14.5259 10.419 14.5258 10.419 14.5259C10.4955 14.088 10.348 13.6417 10.0278 13.3354C10.0276 13.3351 10.0273 13.3349 10.0271 13.3347L8.84103 12.1963L10.4906 11.9587C10.9259 11.8971 11.3041 11.6265 11.5027 11.2336L12.2507 9.74088ZM12.871 8.20594C12.2098 7.8638 11.3957 8.12148 11.0528 8.78344L10.2 10.4851L8.30357 10.7582C8.00654 10.7987 7.73089 10.938 7.52207 11.1545C7.01021 11.6862 7.02667 12.5314 7.55667 13.0427L7.55803 13.044L8.92586 14.3568L8.60291 16.2083L8.6015 16.2166C8.55418 16.5071 8.60414 16.8026 8.73978 17.0598L8.74075 17.0616C9.0879 17.7154 9.89848 17.9656 10.5536 17.6205L12.2508 16.7408L13.9473 17.6202C14.2042 17.7552 14.4979 17.8038 14.785 17.7581L14.7865 17.7579C15.5186 17.6399 16.0181 16.951 15.8998 16.2173L15.5752 14.3564L16.9429 13.0422C17.1605 12.8324 17.3002 12.555 17.3398 12.2564L17.34 12.2552C17.4355 11.5274 16.9255 10.8565 16.1957 10.7577L14.3003 10.4847L13.4536 8.79283L13.449 8.78372C13.321 8.53638 13.1195 8.33421 12.871 8.20594Z" fill="#000000" />
</svg>