<svg width="24px"  height="24px"  viewBox="0 0 25 25" fill="none" xmlns="http://www.w3.org/2000/svg">
<path fill-rule="evenodd" clip-rule="evenodd" d="M7.05447 5.51526C7.32166 5.83179 7.28166 6.30497 6.96513 6.57215C6.46574 6.99371 6.01934 7.4701 5.63375 7.99491C5.38849 8.32871 4.91908 8.40049 4.58528 8.15524C4.25147 7.90998 4.17969 7.44057 4.42495 7.10676C4.88135 6.48557 5.40898 5.92277 5.99758 5.42593C6.3141 5.15874 6.78729 5.19874 7.05447 5.51526Z" fill="#000000" />
<path fill-rule="evenodd" clip-rule="evenodd" d="M18.4026 19.5404C18.6581 19.8664 18.6008 20.3378 18.2748 20.5933C16.8059 21.7442 14.9903 22.4898 12.9898 22.6384C12.004 22.7121 11.0421 22.6341 10.1253 22.4287C9.72111 22.3382 9.46683 21.9371 9.55736 21.5329C9.64788 21.1287 10.0489 20.8745 10.4531 20.965C11.2302 21.139 12.0442 21.205 12.8782 21.1426L12.8787 21.1425C14.5721 21.0167 16.1065 20.3867 17.3496 19.4126C17.6757 19.1571 18.1471 19.2143 18.4026 19.5404Z" fill="#000000" />
<path fill-rule="evenodd" clip-rule="evenodd" d="M3.67816 15.809C4.05719 15.6419 4.49988 15.8138 4.66695 16.1928C5.28901 17.6041 6.28405 18.8011 7.52629 19.6603C7.86695 19.8959 7.9521 20.3631 7.71647 20.7037C7.48085 21.0444 7.01367 21.1296 6.673 20.8939C5.20324 19.8773 4.0283 18.4629 3.29437 16.7978C3.1273 16.4188 3.29913 15.9761 3.67816 15.809Z" fill="#000000" />
<path fill-rule="evenodd" clip-rule="evenodd" d="M3.77266 9.73664C4.17224 9.84574 4.40772 10.2581 4.29862 10.6577C4.05666 11.5439 3.95274 12.4769 4.02404 13.4382C4.05467 13.8513 3.74464 14.211 3.33156 14.2416C2.91849 14.2722 2.55878 13.9622 2.52815 13.5491C2.44344 12.407 2.56755 11.3028 2.85159 10.2626C2.9607 9.86301 3.37307 9.62753 3.77266 9.73664Z" fill="#000000" />
<path fill-rule="evenodd" clip-rule="evenodd" d="M11.8638 3.17332C17.2497 2.96675 21.7831 7.16448 21.99 12.551L21.99 12.5511C22.0671 14.5636 21.5175 16.4468 20.5331 18.0351C20.3149 18.3872 19.8526 18.4957 19.5005 18.2775C19.1484 18.0592 19.0399 17.5969 19.2581 17.2449C20.0936 15.8968 20.5561 14.3068 20.4911 12.6086C20.316 8.04988 16.4795 4.4974 11.9213 4.67222C11.5074 4.6881 11.159 4.36543 11.1431 3.95152C11.1273 3.53761 11.4499 3.1892 11.8638 3.17332Z" fill="#000000" />
<path fill-rule="evenodd" clip-rule="evenodd" d="M12.2502 10.3854L12.8082 11.5001L12.8091 11.5019C12.9961 11.8729 13.3533 12.1273 13.7621 12.1852C13.7626 12.1853 13.7632 12.1853 13.7638 12.1854L14.9918 12.3623L14.1103 13.2095C14.1105 13.2093 14.1101 13.2097 14.1103 13.2095C13.8123 13.4951 13.6683 13.915 13.741 14.3309C13.741 14.3308 13.7411 14.3311 13.741 14.3309L13.9523 15.5403L12.8369 14.9623L12.8354 14.9615C12.4688 14.7726 12.0329 14.7726 11.6663 14.9615L11.6646 14.9624L10.5481 15.5413L10.7584 14.3332C10.8326 13.9167 10.6908 13.4985 10.3937 13.2118L10.3919 13.21L9.50802 12.3625L10.7397 12.1859C11.1482 12.1265 11.5038 11.8726 11.6906 11.5019L11.6913 11.5004L12.2502 10.3854ZM11.1239 9.28513C11.4464 8.66704 12.2097 8.41901 12.8352 8.74354L12.837 8.74443C13.0672 8.86463 13.258 9.05395 13.379 9.28941L13.3825 9.29634L14.0939 10.7175L15.6876 10.947C16.3727 11.0408 16.853 11.6696 16.7638 12.3551C16.7273 12.6444 16.591 12.9035 16.3926 13.0964L16.3896 13.0993L15.2414 14.2029L15.5145 15.7664C15.6245 16.454 15.1583 17.1044 14.4674 17.2158C14.1915 17.2612 13.9147 17.2121 13.6763 17.0867L12.2509 16.348L10.8247 17.0875C10.2093 17.4116 9.44331 17.1781 9.11656 16.559L9.11558 16.5572C8.98954 16.3167 8.94208 16.0398 8.98654 15.7658L8.98792 15.7573L9.25879 14.2016L8.10817 13.0984C7.61219 12.6182 7.59329 11.8245 8.0744 11.3226L8.07678 11.3201C8.27354 11.1167 8.5327 10.9859 8.81123 10.9471L10.4054 10.7185L11.1239 9.28513ZM9.28124 14.0728C9.2814 14.0718 9.28157 14.0708 9.28175 14.0698L9.28124 14.0728ZM15.2186 14.0723C15.2185 14.0722 15.2186 14.0725 15.2186 14.0723V14.0723Z" fill="#000000" />
</svg>