<svg width="24px"  height="24px"  viewBox="0 0 25 24" fill="none" xmlns="http://www.w3.org/2000/svg">
<path fill-rule="evenodd" clip-rule="evenodd" d="M11.0557 8.54889L9.67917 11.296L9.67797 11.2984C9.43019 11.7885 8.95823 12.1261 8.41522 12.2029C8.41469 12.2029 8.41416 12.203 8.41362 12.2031L5.32596 12.6477C5.28856 12.6527 5.25454 12.6701 5.22953 12.6959C5.16779 12.7603 5.16934 12.8626 5.23386 12.9253C5.234 12.9254 5.23372 12.9252 5.23386 12.9253L7.46278 15.0647C7.463 15.0649 7.46257 15.0645 7.46278 15.0647C7.8614 15.4458 8.04545 16.0014 7.95031 16.5461L7.42388 19.564C7.41872 19.599 7.42446 19.6362 7.44263 19.6711C7.48844 19.7562 7.59398 19.788 7.67889 19.7429L7.68543 19.7395L10.4403 18.3116C10.9275 18.0599 11.5068 18.0595 11.994 18.3112L14.7542 19.7419C14.7882 19.7599 14.8268 19.7664 14.8647 19.7606C14.9601 19.7448 15.0239 19.6562 15.0104 19.5624L14.4844 16.5476C14.4844 16.5474 14.4844 16.5478 14.4844 16.5476C14.3881 16.0019 14.5714 15.4459 14.9711 15.0644C14.9716 15.064 14.9721 15.0635 14.9726 15.063L17.198 12.9249C17.1981 12.9248 17.1978 12.925 17.198 12.9249C17.2238 12.8998 17.2414 12.8655 17.2463 12.8292C17.2578 12.7391 17.1943 12.6585 17.1071 12.647L17.0978 12.6458L14.0186 12.2023C14.018 12.2022 14.0175 12.2022 14.0169 12.2021C13.4742 12.1254 13.0014 11.7878 12.7542 11.2962L11.3793 8.54858C11.3615 8.51551 11.335 8.48998 11.3039 8.47395L11.3025 8.47322C11.2126 8.42667 11.1032 8.46101 11.0557 8.54889ZM11.9918 7.14099C11.1664 6.71385 10.1504 7.03553 9.72241 7.86163L8.33932 10.6216C8.33944 10.6214 8.33919 10.6219 8.33932 10.6216C8.31296 10.6732 8.26249 10.7096 8.20514 10.7176L5.12414 11.1613C4.75358 11.2115 4.4098 11.3851 4.14962 11.6548C3.51249 12.3167 3.53299 13.3687 4.19286 14.0053L4.19422 14.0066L6.42671 16.1494C6.46469 16.1856 6.48148 16.2376 6.47269 16.288L5.94518 19.312L5.94378 19.3204C5.88484 19.6822 5.94696 20.0506 6.11635 20.3718L6.11732 20.3736C6.55034 21.1891 7.56157 21.5008 8.3784 21.0698L11.1297 19.6438C11.1296 19.6439 11.1298 19.6438 11.1297 19.6438C11.1849 19.6154 11.25 19.6153 11.3052 19.6437C11.3051 19.6436 11.3053 19.6437 11.3052 19.6437L14.0554 21.0692C14.376 21.2381 14.7427 21.2988 15.1012 21.2418L15.1027 21.2416C16.0156 21.0944 16.6383 20.2354 16.4909 19.3208L15.9618 16.2881L15.9615 16.2865C15.9526 16.2362 15.9691 16.1854 16.0068 16.1495L18.2393 14.0046C18.51 13.7435 18.684 13.398 18.7333 13.0262L18.7335 13.0251C18.8525 12.1181 18.2166 11.2828 17.3077 11.1605L14.2297 10.7173L14.227 10.7169C14.1693 10.7088 14.12 10.673 14.0946 10.6228C14.0947 10.623 14.0945 10.6227 14.0946 10.6228L12.7176 7.87102L12.7129 7.86191C12.553 7.55298 12.3016 7.30085 11.9918 7.14099Z" fill="#000000" />
<path fill-rule="evenodd" clip-rule="evenodd" d="M18.7978 2.73633C19.1228 2.73633 19.4108 2.94568 19.5111 3.25484C19.8144 4.18941 20.5467 4.92173 21.4813 5.225C21.7904 5.32532 21.9998 5.61335 21.9998 5.93838C21.9998 6.2634 21.7904 6.55144 21.4813 6.65176C20.5467 6.95503 19.8144 7.68735 19.5111 8.62192C19.4108 8.93107 19.1228 9.14043 18.7978 9.14043C18.4727 9.14043 18.1847 8.93107 18.0844 8.62192C17.7811 7.68735 17.0488 6.95503 16.1142 6.65176C15.8051 6.55144 15.5957 6.2634 15.5957 5.93838C15.5957 5.61335 15.8051 5.32532 16.1142 5.225C17.0488 4.92173 17.7811 4.18941 18.0844 3.25484C18.1847 2.94568 18.4727 2.73633 18.7978 2.73633ZM17.9382 5.93838C18.2617 6.1853 18.5508 6.47444 18.7978 6.79794C19.0447 6.47444 19.3338 6.1853 19.6573 5.93838C19.3338 5.69146 19.0447 5.40232 18.7978 5.07882C18.5508 5.40232 18.2617 5.69146 17.9382 5.93838Z" fill="#000000" />
<path fill-rule="evenodd" clip-rule="evenodd" d="M4.45735 5.18848C4.87157 5.18848 5.20735 5.52426 5.20735 5.93848V6.3974H5.66807C6.08229 6.3974 6.41807 6.73319 6.41807 7.1474C6.41807 7.56161 6.08229 7.8974 5.66807 7.8974H5.20735V8.35655C5.20735 8.77076 4.87157 9.10655 4.45735 9.10655C4.04314 9.10655 3.70735 8.77076 3.70735 8.35655V7.8974H3.25C2.83579 7.8974 2.5 7.56161 2.5 7.1474C2.5 6.73319 2.83579 6.3974 3.25 6.3974H3.70735V5.93848C3.70735 5.52426 4.04314 5.18848 4.45735 5.18848Z" fill="#000000" />
</svg>