<svg width="24px"  height="24px"  viewBox="0 0 25 25" fill="none" xmlns="http://www.w3.org/2000/svg">
<path fill-rule="evenodd" clip-rule="evenodd" d="M12.6809 5.42605L14.5091 9.07451L14.5103 9.0769C14.803 9.6558 15.3606 10.0545 16.002 10.145C16.0025 10.1451 16.0029 10.1452 16.0034 10.1452L20.0992 10.7351C20.2036 10.7489 20.2998 10.7976 20.3716 10.8719C20.5477 11.0551 20.5424 11.3462 20.3595 11.5232C20.3593 11.5234 20.3597 11.5231 20.3595 11.5232L17.4006 14.3632C17.4004 14.3634 17.4001 14.3637 17.3998 14.364C16.9299 14.8134 16.7137 15.4675 16.8258 16.1094C16.8258 16.1095 16.8258 16.1094 16.8258 16.1094L17.5249 20.1173C17.5405 20.2171 17.5237 20.3206 17.4747 20.4138C17.3505 20.6464 17.0619 20.7345 16.8293 20.611L16.8228 20.6075L13.1668 18.7127C12.5908 18.4151 11.9063 18.4146 11.3304 18.7122L7.66961 20.6097C7.57744 20.6586 7.47236 20.6762 7.36945 20.66C7.10911 20.6177 6.93285 20.3743 6.97252 20.1156L7.67122 16.1111C7.67127 16.1108 7.67116 16.1114 7.67122 16.1111C7.78458 15.4679 7.56854 14.8122 7.09714 14.3626C7.09668 14.3622 7.09622 14.3617 7.09576 14.3613L4.14131 11.5227C4.1412 11.5226 4.14141 11.5228 4.14131 11.5227C4.06691 11.4508 4.01804 11.3545 4.00421 11.2514C3.97124 10.9978 4.14964 10.767 4.40027 10.7341L4.40957 10.7329L8.4969 10.1442C8.49738 10.1442 8.49785 10.1441 8.49833 10.144C9.13951 10.0536 9.69792 9.65483 9.98973 9.07441L11.8156 5.42576C11.8625 5.33677 11.9345 5.26593 12.0213 5.22118L12.0227 5.22046C12.2621 5.09639 12.5556 5.18884 12.6809 5.42605ZM11.3334 3.88823C12.3086 3.38345 13.509 3.76354 14.0146 4.7395L15.849 8.40013C15.8491 8.40044 15.8493 8.40075 15.8495 8.40106C15.9207 8.54123 16.0563 8.63795 16.2119 8.65979L20.3008 9.24863C20.7385 9.30767 21.1444 9.51253 21.4515 9.83088C22.203 10.6115 22.1788 11.8524 21.4004 12.6033L21.399 12.6046L18.438 15.4466L18.4367 15.4479C18.3272 15.5524 18.2777 15.7038 18.3035 15.8515L19.0035 19.8647L19.0049 19.873C19.0744 20.2999 19.0012 20.7348 18.801 21.1144L18.8001 21.1163C18.2886 22.0795 17.0941 22.4473 16.1296 21.9378L12.4774 20.0449C12.4775 20.0449 12.4773 20.0448 12.4774 20.0449C12.3334 19.9706 12.1628 19.9705 12.0189 20.0449L8.37171 21.9353C8.37064 21.9359 8.36958 21.9364 8.36852 21.937C7.98972 22.1367 7.55642 22.2086 7.13282 22.1412L7.1313 22.141C6.05319 21.9672 5.31816 20.9529 5.49221 19.8732L6.19383 15.8516L6.19412 15.85C6.22025 15.7021 6.17096 15.5519 6.06156 15.4478L3.1 12.6024C2.78073 12.2944 2.57544 11.8868 2.51719 11.4483L2.51703 11.4471C2.37656 10.3767 3.12745 9.39119 4.19988 9.24757L8.28576 8.65917L8.28842 8.65879C8.44452 8.63688 8.57941 8.53992 8.64942 8.40094C8.64937 8.40104 8.64948 8.40083 8.64942 8.40094L10.477 4.74888L10.4816 4.73978C10.6706 4.37466 10.9676 4.07692 11.3334 3.88823Z" fill="#000000" />
<path fill-rule="evenodd" clip-rule="evenodd" d="M12.25 3.66504C11.8358 3.66504 11.5 4.00083 11.5 4.41504V13.6885C11.5 14.1027 11.8358 14.4385 12.25 14.4385C12.6642 14.4385 13 14.1027 13 13.6885V4.41504C13 4.00083 12.6642 3.66504 12.25 3.66504Z" fill="#000000" />
<path fill-rule="evenodd" clip-rule="evenodd" d="M12.9662 13.8759C13.0903 13.4808 12.8706 13.0598 12.4754 12.9356L3.54334 10.1296C3.14817 10.0055 2.72718 10.2252 2.60304 10.6204C2.47889 11.0156 2.69861 11.4366 3.09378 11.5607L12.0259 14.3667C12.4211 14.4908 12.842 14.2711 12.9662 13.8759Z" fill="#000000" />
<path fill-rule="evenodd" clip-rule="evenodd" d="M11.5624 13.8761C11.4376 13.4812 11.6566 13.0598 12.0516 12.935L20.9321 10.1293C21.327 10.0045 21.7484 10.2235 21.8732 10.6185C21.9979 11.0135 21.7789 11.4348 21.384 11.5596L12.5035 14.3653C12.1085 14.4901 11.6871 14.2711 11.5624 13.8761Z" fill="#000000" />
<path fill-rule="evenodd" clip-rule="evenodd" d="M12.6887 13.091C13.0225 13.3363 13.0943 13.8057 12.849 14.1395L7.3388 21.6384C7.09354 21.9722 6.62411 22.0439 6.29032 21.7987C5.95654 21.5534 5.88478 21.084 6.13004 20.7502L11.6403 13.2513C11.8855 12.9175 12.355 12.8457 12.6887 13.091Z" fill="#000000" />
<path fill-rule="evenodd" clip-rule="evenodd" d="M11.812 13.0786C11.4773 13.3226 11.4038 13.7918 11.6478 14.1265L17.1224 21.6354C17.3665 21.9701 17.8356 22.0436 18.1703 21.7996C18.505 21.5556 18.5785 21.0864 18.3345 20.7517L12.8599 13.2428C12.6159 12.9081 12.1467 12.8346 11.812 13.0786Z" fill="#000000" />
</svg>