<svg width="24px"  height="24px"  viewBox="0 0 25 25" fill="none" xmlns="http://www.w3.org/2000/svg">
<path fill-rule="evenodd" clip-rule="evenodd" d="M12.5275 11.9561C12.8058 11.9561 13.0613 12.1102 13.191 12.3564L17.109 19.7919C17.302 20.1584 17.1615 20.612 16.7951 20.8051C16.4286 20.9981 15.975 20.8576 15.7819 20.4912L12.5275 14.3149L9.27305 20.4912C9.07995 20.8576 8.62635 20.9981 8.2599 20.8051C7.89344 20.612 7.75291 20.1584 7.94601 19.7919L11.864 12.3564C11.9937 12.1102 12.2492 11.9561 12.5275 11.9561Z" fill="#000000" />
<path fill-rule="evenodd" clip-rule="evenodd" d="M12.5273 11.9561C12.9416 11.9561 13.2773 12.2918 13.2773 12.7061V20.1121C13.2773 20.5263 12.9416 20.8621 12.5273 20.8621C12.1131 20.8621 11.7773 20.5263 11.7773 20.1121V12.7061C11.7773 12.2918 12.1131 11.9561 12.5273 11.9561Z" fill="#000000" />
<path fill-rule="evenodd" clip-rule="evenodd" d="M20.519 4.94264C20.4608 4.78261 20.2838 4.7001 20.1238 4.75835L13.7194 7.08936C13.0101 7.34752 12.6444 8.13179 12.9025 8.84108L13.6398 10.8667C13.898 11.576 14.6822 11.9417 15.3915 11.6835L21.7959 9.35253C21.956 9.29429 22.0385 9.11734 21.9802 8.95731L20.519 4.94264ZM19.6108 3.34881C20.5493 3.00722 21.587 3.49112 21.9285 4.42961L23.3898 8.44428C23.7313 9.38278 23.2475 10.4205 22.309 10.7621L15.9046 13.0931C14.4168 13.6346 12.7718 12.8675 12.2303 11.3797L11.493 9.35411C10.9515 7.86636 11.7186 6.22132 13.2063 5.67982L19.6108 3.34881Z" fill="#000000" />
<path fill-rule="evenodd" clip-rule="evenodd" d="M12.451 7.60013C12.5927 7.98937 12.392 8.41975 12.0028 8.56142L7.93227 10.043C7.22298 10.3011 6.85727 11.0854 7.11543 11.7947L7.3083 12.3246C7.56646 13.0339 8.35073 13.3996 9.06002 13.1414L13.1305 11.6599C13.5198 11.5182 13.9501 11.7189 14.0918 12.1081C14.2335 12.4974 14.0328 12.9278 13.6436 13.0694L9.57305 14.551C8.0853 15.0925 6.44026 14.3254 5.89876 12.8376L5.70589 12.3077C5.16439 10.82 5.93148 9.17492 7.41924 8.63342L11.4897 7.15188C11.879 7.01021 12.3094 7.2109 12.451 7.60013Z" fill="#000000" />
<path fill-rule="evenodd" clip-rule="evenodd" d="M6.85185 11.0689C6.99352 11.4581 6.79282 11.8885 6.40359 12.0302L3.70006 13.0142C3.54265 13.0715 3.46149 13.2455 3.51878 13.4029C3.57607 13.5603 3.75012 13.6415 3.90753 13.5842L6.61106 12.6002C7.00029 12.4585 7.43068 12.6592 7.57235 13.0484C7.71402 13.4377 7.51332 13.8681 7.12409 14.0097L4.42056 14.9937C3.48468 15.3344 2.44987 14.8518 2.10924 13.9159C1.76861 12.9801 2.25115 11.9453 3.18703 11.6046L5.89056 10.6206C6.27979 10.479 6.71018 10.6797 6.85185 11.0689Z" fill="#000000" />
</svg>