<svg width="24px"  height="24px"  viewBox="0 0 25 25" fill="none" xmlns="http://www.w3.org/2000/svg">
<path fill-rule="evenodd" clip-rule="evenodd" d="M2.5 12.916C2.5 7.5319 6.86484 3.16602 12.25 3.16602C17.6352 3.16602 22 7.5319 22 12.916C22 18.3011 17.6351 22.666 12.25 22.666C6.86489 22.666 2.5 18.3011 2.5 12.916ZM12.25 4.66602C7.69336 4.66602 4 8.36023 4 12.916C4 17.4727 7.69331 21.166 12.25 21.166C16.8067 21.166 20.5 17.4727 20.5 12.916C20.5 8.36023 16.8066 4.66602 12.25 4.66602Z" fill="#000000" />
<path fill-rule="evenodd" clip-rule="evenodd" d="M12.25 10.386L12.8077 11.5006C12.9944 11.8719 13.3512 12.1265 13.7605 12.1845C13.7611 12.1846 13.7616 12.1847 13.7622 12.1848L14.9886 12.3614L14.1083 13.2072C13.806 13.4959 13.667 13.9165 13.7397 14.3296C13.7398 14.33 13.7399 14.3303 13.7399 14.3306L13.9503 15.5364L12.8357 14.9587C12.4688 14.7692 12.0323 14.7687 11.6654 14.9583L10.5496 15.5366L10.7602 14.3291C10.7602 14.3292 10.7602 14.3291 10.7602 14.3291C10.8322 13.9167 10.6933 13.4964 10.3918 13.2079C10.3915 13.2076 10.3913 13.2073 10.391 13.2071L9.5103 12.3618L10.7381 12.1849C11.1477 12.1269 11.5036 11.8722 11.6905 11.5025L12.25 10.386ZM12.8337 8.74389C12.2116 8.42196 11.4456 8.66439 11.1228 9.28728L10.4062 10.7173L8.81394 10.9466C8.53443 10.9848 8.27501 11.1158 8.07842 11.3197C7.5964 11.8204 7.61189 12.6164 8.11096 13.0978L8.11232 13.0991L9.25995 14.2006L8.98907 15.7535L8.98767 15.7618C8.94311 16.0354 8.99018 16.3136 9.11778 16.5555L9.11875 16.5573C9.44544 17.1726 10.2082 17.4081 10.8248 17.0835L12.2501 16.3447L13.6749 17.0832C13.9165 17.2102 14.1929 17.2559 14.463 17.2129L14.4645 17.2127C15.1535 17.1016 15.6237 16.4532 15.5124 15.7626L15.2398 14.2002L16.3876 13.0974C16.5924 12.8998 16.7239 12.6386 16.7613 12.3575L16.7614 12.3563C16.8514 11.671 16.3714 11.0394 15.6843 10.9461L14.0929 10.7169L13.3822 9.29667L13.3775 9.28756C13.2571 9.05489 13.0676 8.86463 12.8337 8.74389ZM15.217 14.0695C15.2171 14.0701 15.2172 14.0706 15.2173 14.0712L15.217 14.0695Z" fill="#000000" />
</svg>