<svg width="24px"  height="24px"  viewBox="0 0 25 25" fill="none" xmlns="http://www.w3.org/2000/svg">
<path fill-rule="evenodd" clip-rule="evenodd" d="M11.8646 5.07791L10.1128 8.57379L10.1116 8.57617C9.82652 9.14006 9.28342 9.52846 8.65863 9.61661C8.65817 9.61667 8.65771 9.61674 8.65724 9.6168L4.73216 10.182C4.63906 10.1944 4.55344 10.2378 4.48954 10.3039C4.33283 10.467 4.33742 10.7261 4.50032 10.8838C4.50049 10.8839 4.50015 10.8836 4.50032 10.8838L7.3356 13.6051C7.33588 13.6054 7.33615 13.6056 7.33642 13.6059C7.79425 14.0437 8.00483 14.6811 7.89564 15.3065C7.89563 15.3065 7.89565 15.3064 7.89564 15.3065L7.22575 19.1468C7.21197 19.2356 7.22691 19.3278 7.27059 19.4111C7.38149 19.6189 7.63917 19.6974 7.84675 19.5872L7.85329 19.5837L11.3568 17.7679C11.9177 17.4781 12.5844 17.4777 13.1453 17.7675L16.6536 19.586C16.736 19.6296 16.8298 19.6453 16.9218 19.6309C17.1541 19.593 17.3112 19.3758 17.276 19.1452L16.6066 15.3082C16.6065 15.3078 16.6066 15.3085 16.6066 15.3082C16.4961 14.6815 16.7066 14.0426 17.1659 13.6046C17.1663 13.6041 17.1668 13.6037 17.1673 13.6033L19.9983 10.8833C19.9984 10.8832 19.9982 10.8834 19.9983 10.8833C20.0645 10.8193 20.108 10.7335 20.1203 10.6417C20.1497 10.4158 19.9907 10.2104 19.7678 10.1812L19.7585 10.1799L15.8418 9.61584C15.8413 9.61577 15.8407 9.61569 15.8402 9.61562C15.2158 9.52744 14.6719 9.13907 14.3877 8.57373L14.387 8.57246L12.6381 5.07759C12.5961 4.99809 12.5319 4.93493 12.4545 4.89506L12.4531 4.89433C12.239 4.78339 11.9767 4.866 11.8646 5.07791ZM10.5309 4.39125C11.0234 3.44066 12.1926 3.07047 13.1424 3.5621C13.4987 3.74591 13.788 4.03593 13.9721 4.39153L13.9768 4.40061L15.7278 7.89993C15.7279 7.90012 15.7277 7.89975 15.7278 7.89993C15.7903 8.02377 15.9109 8.11084 16.0503 8.1304L16.053 8.13078L19.9682 8.6946C21.0129 8.8346 21.7444 9.79466 21.6075 10.8374L21.6074 10.8386C21.5506 11.2659 21.3506 11.6629 21.0396 11.9629L18.2015 14.6897C18.1042 14.7823 18.0605 14.9157 18.0837 15.0471L18.084 15.0487L18.7564 18.9028C18.926 19.9546 18.2099 20.9426 17.1598 21.1119L17.1582 21.1121C16.7457 21.1777 16.3238 21.1078 15.9549 20.9134L12.4567 19.1001C12.3278 19.0335 12.1753 19.0335 12.0463 19.1C12.0463 19.1001 12.0464 19.1 12.0463 19.1L8.54646 20.914C7.60696 21.4103 6.44347 21.0519 5.9453 20.1137L5.94433 20.1119C5.74935 19.7422 5.67801 19.3185 5.74575 18.9026L5.74711 18.8943L6.41796 15.0487C6.44088 14.9175 6.39689 14.7828 6.29953 14.6898L6.29822 14.6886L3.46079 11.9652L3.45943 11.9638C2.70107 11.2323 2.677 10.0239 3.40915 9.26336C3.70824 8.95324 4.10414 8.75318 4.53042 8.69563L8.4461 8.13174L8.44876 8.13136C8.58777 8.11185 8.70887 8.02546 8.77251 7.90027C8.77265 7.89998 8.77236 7.90055 8.77251 7.90027L10.5309 4.39125Z" fill="#000000" />
<path fill-rule="evenodd" clip-rule="evenodd" d="M2.5 12.916C2.5 7.5319 6.86484 3.16602 12.25 3.16602C17.6352 3.16602 22 7.5319 22 12.916C22 18.3011 17.6351 22.666 12.25 22.666C6.86489 22.666 2.5 18.3011 2.5 12.916ZM12.25 4.66602C7.69336 4.66602 4 8.36023 4 12.916C4 17.4727 7.69331 21.166 12.25 21.166C16.8067 21.166 20.5 17.4727 20.5 12.916C20.5 8.36023 16.8066 4.66602 12.25 4.66602Z" fill="#000000" />
</svg>