<svg width="24px"  height="24px"  viewBox="0 0 25 24" fill="none" xmlns="http://www.w3.org/2000/svg">
<path fill-rule="evenodd" clip-rule="evenodd" d="M5.08745 4.89668C4.41024 5.62322 4 6.68607 4 8.00293V15.9501C4 17.268 4.40861 18.3307 5.08451 19.0568C5.75475 19.7768 6.74341 20.2265 8.03216 20.2265H16.4659C17.7552 20.2265 18.7444 19.7767 19.415 19.0567C20.0912 18.3305 20.5 17.2678 20.5 15.9501V8.00293C20.5 6.68523 20.0912 5.62252 19.4151 4.8964C18.7446 4.17631 17.7557 3.72656 16.4669 3.72656H8.03216C6.74828 3.72656 5.75921 4.17599 5.08745 4.89668ZM3.9902 3.87392C4.97468 2.81773 6.37669 2.22656 8.03216 2.22656H16.4669C18.1262 2.22656 19.5289 2.81741 20.5129 3.87421C21.4913 4.92497 22 6.37545 22 8.00293V15.9501C22 17.5776 21.4913 19.0281 20.5127 20.0789C19.5285 21.1357 18.1257 21.7265 16.4659 21.7265H8.03216C6.3728 21.7265 4.97038 21.1357 3.98657 20.0788C3.00842 19.028 2.5 17.5775 2.5 15.9501V8.00293C2.5 6.37461 3.01117 4.92427 3.9902 3.87392Z" fill="#000000" />
<path fill-rule="evenodd" clip-rule="evenodd" d="M12.2507 8.80143L12.9967 10.2922C13.195 10.6866 13.5741 10.9573 14.0092 11.0188C14.0097 11.0189 14.0102 11.019 14.0107 11.019L15.6588 11.2564L14.475 12.3939C14.4744 12.3944 14.4739 12.3949 14.4733 12.3954C14.1524 12.7019 14.005 13.1483 14.0822 13.5869C14.0822 13.5872 14.0823 13.5876 14.0823 13.5879L14.365 15.2077L12.8732 14.4345C12.4832 14.2329 12.0193 14.2325 11.6292 14.434L10.1362 15.2078L10.419 13.5864C10.419 13.5865 10.419 13.5864 10.419 13.5864C10.4955 13.1485 10.348 12.7022 10.0278 12.3959C10.0276 12.3957 10.0273 12.3955 10.0271 12.3952L8.84103 11.2568L10.4906 11.0193C10.9259 10.9576 11.3041 10.687 11.5027 10.2941L12.2507 8.80143ZM12.871 7.26649C12.2098 6.92435 11.3957 7.18202 11.0528 7.84399L10.2 9.54567L8.30357 9.81876C8.00654 9.85926 7.73089 9.9985 7.52207 10.215C7.01021 10.7467 7.02667 11.592 7.55667 12.1032L7.55803 12.1045L8.92586 13.4174L8.60291 15.2688L8.6015 15.2771C8.55418 15.5677 8.60414 15.8632 8.73978 16.1204L8.74075 16.1222C9.0879 16.776 9.89848 17.0261 10.5536 16.681L12.2508 15.8014L13.9473 16.6807C14.2042 16.8158 14.4979 16.8643 14.785 16.8187L14.7865 16.8184C15.5186 16.7004 16.0181 16.0116 15.8998 15.2778L15.5752 13.4169L16.9429 12.1028C17.1605 11.893 17.3002 11.6156 17.3398 11.317L17.34 11.3158C17.4355 10.5879 16.9255 9.91708 16.1957 9.81823L14.3003 9.54527L13.4536 7.85337L13.449 7.84427C13.321 7.59692 13.1195 7.39475 12.871 7.26649Z" fill="#000000" />
<path fill-rule="evenodd" clip-rule="evenodd" d="M12.25 2.22656C12.6642 2.22656 13 2.56235 13 2.97656V5.58531C13 5.99952 12.6642 6.33531 12.25 6.33531C11.8358 6.33531 11.5 5.99952 11.5 5.58531V2.97656C11.5 2.56235 11.8358 2.22656 12.25 2.22656Z" fill="#000000" />
<path fill-rule="evenodd" clip-rule="evenodd" d="M12.25 16.8203C12.6642 16.8203 13 17.1561 13 17.5703V20.9632C13 21.3774 12.6642 21.7132 12.25 21.7132C11.8358 21.7132 11.5 21.3774 11.5 20.9632V17.5703C11.5 17.1561 11.8358 16.8203 12.25 16.8203Z" fill="#000000" />
<path fill-rule="evenodd" clip-rule="evenodd" d="M15.1816 2.22656C15.5959 2.22656 15.9316 2.56235 15.9316 2.97656V7.93602C15.9316 8.35024 15.5959 8.68602 15.1816 8.68602C14.7674 8.68602 14.4316 8.35024 14.4316 7.93602V2.97656C14.4316 2.56235 14.7674 2.22656 15.1816 2.22656ZM15.1816 17.3595C15.5959 17.3595 15.9316 17.6953 15.9316 18.1095V20.9765C15.9316 21.3908 15.5959 21.7265 15.1816 21.7265C14.7674 21.7265 14.4316 21.3908 14.4316 20.9765V18.1095C14.4316 17.6953 14.7674 17.3595 15.1816 17.3595Z" fill="#000000" />
<path fill-rule="evenodd" clip-rule="evenodd" d="M18.25 2.51465C18.6642 2.51465 19 2.85043 19 3.26465V8.58914C19 9.00335 18.6642 9.33914 18.25 9.33914C17.8358 9.33914 17.5 9.00335 17.5 8.58914V3.26465C17.5 2.85043 17.8358 2.51465 18.25 2.51465ZM18.25 12.7375C18.6642 12.7375 19 13.0733 19 13.4875V20.6738C19 21.088 18.6642 21.4238 18.25 21.4238C17.8358 21.4238 17.5 21.088 17.5 20.6738V13.4875C17.5 13.0733 17.8358 12.7375 18.25 12.7375Z" fill="#000000" />
</svg>