<svg width="24px"  height="24px"  viewBox="0 0 25 25" fill="none" xmlns="http://www.w3.org/2000/svg">
<path fill-rule="evenodd" clip-rule="evenodd" d="M11.8191 5.42605L9.99087 9.07451L9.98967 9.0769C9.697 9.6558 9.13943 10.0545 8.49799 10.145C8.49752 10.1451 8.49706 10.1452 8.49659 10.1452L4.40083 10.7351C4.29638 10.7489 4.20025 10.7976 4.12841 10.8719C3.95235 11.0551 3.95756 11.3462 4.14052 11.5232C4.1407 11.5234 4.14035 11.5231 4.14052 11.5232L7.09938 14.3632C7.09965 14.3634 7.09992 14.3637 7.10019 14.364C7.57012 14.8134 7.78625 15.4675 7.67419 16.1094C7.67418 16.1095 7.6742 16.1094 7.67419 16.1094L6.97507 20.1173C6.95952 20.2171 6.97635 20.3206 7.02526 20.4138C7.14946 20.6464 7.43811 20.7345 7.67066 20.611L7.6772 20.6075L11.3332 18.7127C11.9092 18.4151 12.5937 18.4146 13.1696 18.7122L16.8304 20.6097C16.9226 20.6586 17.0276 20.6762 17.1305 20.66C17.3909 20.6177 17.5672 20.3743 17.5275 20.1156L16.8288 16.1111C16.8287 16.1108 16.8288 16.1114 16.8288 16.1111C16.7154 15.4679 16.9315 14.8122 17.4029 14.3626C17.4033 14.3622 17.4038 14.3617 17.4042 14.3613L20.3587 11.5227C20.3588 11.5226 20.3586 11.5228 20.3587 11.5227C20.4331 11.4508 20.482 11.3545 20.4958 11.2514C20.5288 10.9978 20.3504 10.767 20.0997 10.7341L20.0904 10.7329L16.0031 10.1442C16.0026 10.1442 16.0021 10.1441 16.0017 10.144C15.3605 10.0536 14.8021 9.65483 14.5103 9.07441L12.6844 5.42576C12.6375 5.33677 12.5655 5.26593 12.4787 5.22118L12.4773 5.22046C12.2379 5.09639 11.9444 5.18884 11.8191 5.42605ZM13.1666 3.88823C12.1914 3.38345 10.991 3.76354 10.4854 4.7395L8.65101 8.40013C8.65086 8.40044 8.6507 8.40075 8.65054 8.40106C8.5793 8.54123 8.44374 8.63795 8.2881 8.65979L4.19916 9.24863C3.7615 9.30767 3.35555 9.51253 3.04851 9.83088C2.29701 10.6115 2.32121 11.8524 3.09964 12.6033L3.101 12.6046L6.062 15.4466L6.06331 15.4479C6.17277 15.5524 6.22233 15.7038 6.19653 15.8515L5.49649 19.8647L5.49509 19.873C5.42555 20.2999 5.49876 20.7348 5.69896 21.1144L5.69993 21.1163C6.21137 22.0795 7.40588 22.4473 8.37038 21.9378L12.0226 20.0449C12.0225 20.0449 12.0227 20.0448 12.0226 20.0449C12.1666 19.9706 12.3372 19.9705 12.4811 20.0449L16.1283 21.9353C16.1294 21.9359 16.1304 21.9364 16.1315 21.937C16.5103 22.1367 16.9436 22.2086 17.3672 22.1412L17.3687 22.141C18.4468 21.9672 19.1818 20.9529 19.0078 19.8732L18.3062 15.8516L18.3059 15.85C18.2797 15.7021 18.329 15.5519 18.4384 15.4478L21.4 12.6024C21.7193 12.2944 21.9246 11.8868 21.9828 11.4483L21.983 11.4471C22.1234 10.3767 21.3726 9.39119 20.3001 9.24757L16.2142 8.65917L16.2116 8.65879C16.0555 8.63688 15.9206 8.53992 15.8506 8.40094C15.8506 8.40104 15.8505 8.40083 15.8506 8.40094L14.023 4.74888L14.0184 4.73978C13.8294 4.37466 13.5324 4.07692 13.1666 3.88823Z" fill="#000000" />
</svg>