<svg width="24px"  height="24px"  viewBox="0 0 25 24" fill="none" xmlns="http://www.w3.org/2000/svg">
<path fill-rule="evenodd" clip-rule="evenodd" d="M16.0214 4.79436L14.0708 6.99018L14.0691 6.99217C13.7118 7.39151 13.1817 7.59049 12.6506 7.52568L9.68745 7.17207C9.65906 7.16835 9.63085 7.17442 9.60778 7.18822C9.55044 7.22302 9.53154 7.29768 9.56627 7.35593C9.56636 7.35608 9.56618 7.35579 9.56627 7.35593L11.0951 9.88288C11.0953 9.88317 11.0955 9.88346 11.0956 9.88375C11.375 10.3437 11.4077 10.9131 11.1806 11.4024C11.1805 11.4025 11.1806 11.4024 11.1806 11.4024L9.94781 14.0588C9.93733 14.0832 9.93412 14.1117 9.94067 14.1415C9.95785 14.2136 10.0297 14.258 10.1015 14.2415L10.1087 14.2398L13.0061 13.603C13.5287 13.4888 14.0747 13.6346 14.4702 13.9948L16.6653 15.9992C16.6871 16.0194 16.7144 16.032 16.7438 16.0352C16.8176 16.0423 16.8823 15.9895 16.8911 15.9177L17.1513 13.004C17.1513 13.0036 17.1513 13.0032 17.1514 13.0028C17.1986 12.4643 17.5118 11.9872 17.9848 11.7287C17.9854 11.7284 17.9859 11.7281 17.9865 11.7278L20.5704 10.3041C20.5705 10.304 20.5703 10.3041 20.5704 10.3041C20.5939 10.2909 20.6135 10.2694 20.6242 10.244C20.6502 10.1804 20.6194 10.1095 20.5586 10.0843L20.5499 10.0807L17.8163 8.9093C17.8158 8.90909 17.8153 8.90889 17.8148 8.90868C17.3227 8.69933 16.9623 8.26177 16.8535 7.73598L16.2638 4.85897C16.257 4.83065 16.2423 4.80656 16.2226 4.78865L16.2214 4.78758C16.1634 4.73461 16.0746 4.73833 16.0214 4.79436ZM17.2322 3.67922C16.5622 3.06825 15.5235 3.11481 14.9115 3.78525L12.9512 5.992C12.9513 5.99181 12.951 5.99219 12.9512 5.992C12.9213 6.02503 12.8764 6.04215 12.8321 6.0367L12.8294 6.03638L9.8772 5.68407C9.5153 5.63782 9.14748 5.71457 8.83412 5.90313C8.06637 6.36608 7.81997 7.36295 8.2812 8.12963L8.28217 8.13124L9.81267 10.6609L9.81361 10.6625C9.834 10.696 9.83595 10.7365 9.82002 10.7708L8.58462 13.4329L8.58112 13.4405C8.43418 13.7667 8.3997 14.1296 8.47823 14.475L8.47869 14.4771C8.68086 15.3551 9.55527 15.9042 10.434 15.7042L13.3272 15.0682C13.327 15.0682 13.3273 15.0682 13.3272 15.0682C13.3746 15.058 13.424 15.071 13.46 15.1037C13.4599 15.1036 13.4601 15.1037 13.46 15.1037L15.6469 17.1005C15.9063 17.3406 16.2365 17.4904 16.5887 17.5272L16.5903 17.5273C17.4878 17.6192 18.2916 16.9669 18.3836 16.0676L18.6455 13.1357L18.6456 13.1341C18.6489 13.0965 18.6703 13.0634 18.7043 13.0449L21.2968 11.6164C21.6179 11.4387 21.8692 11.157 22.0096 10.8191L22.0101 10.818C22.3513 9.99318 21.9629 9.04523 21.1371 8.70036L18.4046 7.52948L18.4021 7.52843C18.3607 7.51087 18.3313 7.47442 18.3225 7.43239C18.3225 7.43252 18.3224 7.43226 18.3225 7.43239L17.7318 4.55064L17.7296 4.54065C17.657 4.2092 17.4837 3.90811 17.2322 3.67922Z" fill="#000000" />
<path fill-rule="evenodd" clip-rule="evenodd" d="M6.06136 9.68442C6.59869 9.06425 7.53726 8.99585 8.1585 9.53355L8.16616 9.54018L9.97338 11.1476C10.3728 11.0551 10.7734 11.3008 10.8711 11.7001C10.9695 12.1025 10.7231 12.5084 10.3208 12.6068C9.84966 12.7221 9.35133 12.5995 8.9873 12.2781L8.9853 12.2763L7.19611 10.6849L6.99371 13.0706C6.95168 13.555 6.67413 13.9867 6.25395 14.2272C6.25348 14.2274 6.253 14.2277 6.25253 14.228L4.17115 15.4262L6.37152 16.3206C6.82473 16.5031 7.1574 16.8995 7.25715 17.3793C7.25721 17.3796 7.25709 17.379 7.25715 17.3793L7.74362 19.7004L9.32344 17.8744C9.64062 17.5088 10.1155 17.319 10.5973 17.3661L13.0016 17.6046L11.7574 15.5846C11.5006 15.1678 11.4697 14.6513 11.6727 14.2074C11.845 13.8307 12.29 13.665 12.6667 13.8373C13.0376 14.0069 13.204 14.441 13.0445 14.8139L14.3093 16.8676C14.4762 17.1454 14.5456 17.4682 14.5117 17.7869L14.5115 17.789C14.4229 18.5998 13.6953 19.1864 12.8841 19.1003L10.4548 18.8594L8.85829 20.7046C8.6505 20.9478 8.36958 21.1175 8.05693 21.1879L8.05543 21.1883C7.25809 21.3662 6.46598 20.865 6.28772 20.066L6.28561 20.0565L5.79271 17.7045L3.54689 16.7917C3.23899 16.6658 2.983 16.4391 2.82072 16.1499L2.82014 16.1488C2.42558 15.4432 2.674 14.5491 3.38024 14.1507L5.50022 12.9303L5.70541 10.5117C5.73554 10.2061 5.8594 9.917 6.06136 9.68442Z" fill="#000000" />
</svg>