<svg width="24px"  height="24px"  viewBox="0 0 24 25" fill="none" xmlns="http://www.w3.org/2000/svg">
<path fill-rule="evenodd" clip-rule="evenodd" d="M9.66843 4.65768C10.7272 2.8223 13.3783 2.82897 14.4277 4.66982L21.3877 16.885C22.429 18.7136 21.1086 20.9865 19.0041 20.9865H4.99588C2.88468 20.9865 1.56537 18.7015 2.62006 16.8729L9.66843 4.65768C9.66845 4.65766 9.66841 4.65771 9.66843 4.65768ZM13.1245 5.41256C12.6488 4.57842 11.4476 4.5754 10.9677 5.40727L3.91943 17.6223C3.91941 17.6223 3.91946 17.6222 3.91943 17.6223C3.44143 18.4513 4.03953 19.4865 4.99588 19.4865H19.0041C19.9574 19.4865 20.5563 18.4566 20.0844 17.6276M20.0844 17.6276L13.1245 5.41256C13.1245 5.41251 13.1245 5.41261 13.1245 5.41256" fill="#000000" />
<path fill-rule="evenodd" clip-rule="evenodd" d="M12.4182 9.65523C12.7661 9.87996 12.866 10.3442 12.6413 10.6922L11.1272 13.0362H14.25C14.5247 13.0362 14.7775 13.1865 14.9088 13.4278C15.0401 13.6691 15.0289 13.9629 14.8797 14.1936L12.6161 17.6926C12.3911 18.0404 11.9268 18.14 11.579 17.915C11.2312 17.69 11.1317 17.2256 11.3567 16.8779L12.8715 14.5362H9.75C9.47536 14.5362 9.22268 14.3861 9.09133 14.1449C8.95998 13.9037 8.97098 13.61 9.11999 13.3793L11.3812 9.87833C11.606 9.53038 12.0702 9.4305 12.4182 9.65523Z" fill="#000000" />
</svg>