<svg width="24px"  height="24px"  viewBox="0 0 24 25" fill="none" xmlns="http://www.w3.org/2000/svg">
<path fill-rule="evenodd" clip-rule="evenodd" d="M11.4404 20.3867L12.5104 20.3867C13.3185 20.3867 13.9736 19.7316 13.9736 18.9235C13.9736 18.1154 13.3185 17.4603 12.5104 17.4603L11.4404 17.4603L11.4404 20.3867ZM12.5104 21.8867L11.1291 21.8867C10.4726 21.8867 9.9404 21.3545 9.9404 20.698L9.9404 17.1489C9.9404 16.4924 10.4726 15.9603 11.1291 15.9603L12.5104 15.9603C14.1469 15.9603 15.4736 17.2869 15.4736 18.9235C15.4736 20.56 14.1469 21.8867 12.5104 21.8867Z" fill="#000000" />
<path fill-rule="evenodd" clip-rule="evenodd" d="M11.4404 20.0781C11.4404 20.4923 11.1046 20.8281 10.6904 20.8281L9.2793 20.8281C8.86508 20.8281 8.5293 20.4923 8.5293 20.0781C8.5293 19.6639 8.86508 19.3281 9.2793 19.3281L10.6904 19.3281C11.1046 19.3281 11.4404 19.6639 11.4404 20.0781ZM11.4404 17.7693C11.4404 18.1835 11.1046 18.5193 10.6904 18.5193L9.2793 18.5193C8.86508 18.5193 8.5293 18.1835 8.5293 17.7693C8.5293 17.3551 8.86508 17.0193 9.2793 17.0193L10.6904 17.0193C11.1046 17.0193 11.4404 17.3551 11.4404 17.7693Z" fill="#000000" />
<path fill-rule="evenodd" clip-rule="evenodd" d="M17.1721 6.19654C14.3163 3.34074 9.68613 3.34074 6.83033 6.19654C3.97453 9.05234 3.97453 13.6825 6.83033 16.5383C7.12322 16.8312 7.12322 17.3061 6.83033 17.599C6.53744 17.8919 6.06256 17.8919 5.76967 17.599C2.32808 14.1574 2.32808 8.57747 5.76967 5.13588C9.21126 1.69429 14.7912 1.69429 18.2328 5.13588C21.6744 8.57747 21.6744 14.1574 18.2328 17.599C17.2944 18.5373 16.1954 19.2208 15.0234 19.6478C14.6343 19.7896 14.2038 19.589 14.062 19.1998C13.9202 18.8106 14.1208 18.3802 14.51 18.2384C15.4806 17.8848 16.3917 17.3187 17.1721 16.5383C20.0279 13.6825 20.0279 9.05234 17.1721 6.19654Z" fill="#000000" />
<path fill-rule="evenodd" clip-rule="evenodd" d="M12.4174 6.52632C12.7653 6.75106 12.8652 7.21531 12.6405 7.56326L11.4495 9.40719H13.9294C14.2042 9.40719 14.4569 9.55742 14.5882 9.79875C14.7195 10.0401 14.7084 10.3339 14.5591 10.5646L12.6189 13.5637C12.3939 13.9115 11.9296 14.011 11.5818 13.7861C11.234 13.5611 11.1345 13.0967 11.3595 12.749L12.551 10.9072H10.0723C9.79762 10.9072 9.54495 10.7571 9.4136 10.5159C9.28225 10.2747 9.29324 9.98098 9.44225 9.75028L11.3805 6.74942C11.6052 6.40148 12.0694 6.30159 12.4174 6.52632Z" fill="#000000" />
</svg>