<svg width="24px"  height="24px"  viewBox="0 0 24 25" fill="none" xmlns="http://www.w3.org/2000/svg">
<path fill-rule="evenodd" clip-rule="evenodd" d="M17.8336 6.30309C14.6118 3.08126 9.38819 3.08126 6.16637 6.30309C2.94454 9.52491 2.94454 14.7485 6.16637 17.9704C9.38819 21.1922 14.6118 21.1922 17.8336 17.9704C21.0555 14.7485 21.0555 9.52491 17.8336 6.30309ZM5.10571 5.24243C8.91332 1.43482 15.0867 1.43482 18.8943 5.24243C22.7019 9.05004 22.7019 15.2234 18.8943 19.031C15.0867 22.8386 8.91332 22.8386 5.10571 19.031C1.2981 15.2234 1.2981 9.05004 5.10571 5.24243Z" fill="#000000" />
<path fill-rule="evenodd" clip-rule="evenodd" d="M11.0463 7.40382C11.7568 6.42497 13.3032 6.92882 13.3032 8.13682V10.2814H15.2921C16.3115 10.2814 16.8998 11.4378 16.3013 12.2621C16.3013 12.2621 16.3012 12.2621 16.3012 12.2622L12.9542 16.8719C12.9541 16.872 12.954 16.8721 12.9539 16.8723C12.9539 16.8723 12.9538 16.8724 12.9538 16.8725C12.2432 17.852 10.6964 17.3471 10.6964 16.1399V13.9949H8.70803C7.68932 13.9949 7.09987 12.8395 7.69879 12.0147M7.69888 12.0146L11.0462 7.40394C11.0462 7.4039 11.0462 7.40386 11.0463 7.40382M11.8032 8.91445L9.2038 12.4949H11.4464C11.8606 12.4949 12.1964 12.8307 12.1964 13.2449V15.3625L14.7966 11.7814H12.5532C12.139 11.7814 11.8032 11.4456 11.8032 11.0314V8.91445ZM15.0876 11.3807L15.0875 11.3808L15.0876 11.3807ZM11.7396 15.9917C11.7398 15.9915 11.7399 15.9913 11.74 15.9911L11.7396 15.9917ZM12.2599 8.28529L12.2601 8.28506L12.2602 8.28494C12.2601 8.28506 12.26 8.28517 12.2599 8.28529Z" fill="#000000" />
</svg>