<svg width="24px"  height="24px"  viewBox="0 0 24 25" fill="none" xmlns="http://www.w3.org/2000/svg">
<path d="M2.99902 14.8663C2.58902 14.8663 2.24902 14.5263 2.24902 14.1163V10.1562C2.24902 9.74625 2.58902 9.40625 2.99902 9.40625C3.40902 9.40625 3.74902 9.74625 3.74902 10.1562V14.1163C3.74902 14.5263 3.40902 14.8663 2.99902 14.8663Z" fill="#000000" />
<path d="M20.999 14.8663C20.589 14.8663 20.249 14.5263 20.249 14.1163V10.1562C20.249 9.74625 20.589 9.40625 20.999 9.40625C21.409 9.40625 21.749 9.74625 21.749 10.1562V14.1163C21.749 14.5263 21.409 14.8663 20.999 14.8663Z" fill="#000000" />
<path d="M13.979 3.88672H10.019C9.60904 3.88672 9.26904 3.54672 9.26904 3.13672C9.26904 2.72672 9.60904 2.38672 10.019 2.38672H13.979C14.389 2.38672 14.729 2.72672 14.729 3.13672C14.729 3.54672 14.389 3.88672 13.979 3.88672Z" fill="#000000" />
<path d="M13.979 21.8867H10.019C9.60904 21.8867 9.26904 21.5467 9.26904 21.1367C9.26904 20.7267 9.60904 20.3867 10.019 20.3867H13.979C14.389 20.3867 14.729 20.7267 14.729 21.1367C14.729 21.5467 14.389 21.8867 13.979 21.8867Z" fill="#000000" />
<path d="M7.06884 21.8666C7.06884 21.8666 7.00881 21.8666 6.97881 21.8666C4.43881 21.5666 2.63886 19.7666 2.27886 17.1566C2.21886 16.7466 2.50882 16.3666 2.91882 16.3066C3.32882 16.2566 3.70885 16.5366 3.76885 16.9466C4.03885 18.8766 5.30881 20.1566 7.15881 20.3666C7.56881 20.4166 7.86884 20.7866 7.81884 21.1966C7.77884 21.5766 7.44885 21.8566 7.07885 21.8566L7.06884 21.8666Z" fill="#000000" />
<path d="M16.889 21.8665C16.509 21.8665 16.189 21.5865 16.149 21.2065C16.099 20.7965 16.399 20.4265 16.809 20.3765C18.689 20.1565 19.919 18.9065 20.189 16.9565C20.249 16.5465 20.629 16.2565 21.039 16.3165C21.449 16.3765 21.739 16.7565 21.679 17.1665C21.309 19.7765 19.519 21.5765 16.989 21.8765C16.959 21.8765 16.929 21.8765 16.899 21.8765L16.889 21.8665Z" fill="#000000" />
<path d="M3.02917 7.9856C3.02917 7.9856 2.95913 7.9856 2.92913 7.9856C2.51913 7.9256 2.22912 7.54561 2.28912 7.13561C2.65912 4.52561 4.45913 2.7156 6.98913 2.4156C7.38913 2.3656 7.76914 2.66561 7.81914 3.07561C7.86914 3.48561 7.56911 3.8556 7.15911 3.9056C5.30911 4.1256 4.03916 5.4056 3.76916 7.3356C3.71916 7.7156 3.39917 7.9856 3.02917 7.9856Z" fill="#000000" />
<path d="M20.929 7.9856C20.559 7.9856 20.239 7.7156 20.189 7.3356C19.919 5.3756 18.679 4.1156 16.809 3.9056C16.399 3.8556 16.099 3.48561 16.149 3.07561C16.199 2.66561 16.579 2.3656 16.979 2.4156C19.509 2.7156 21.309 4.51561 21.669 7.13561C21.729 7.54561 21.439 7.9256 21.029 7.9856C20.989 7.9856 20.959 7.9856 20.929 7.9856Z" fill="#000000" />
<path d="M11.939 17.6359C11.809 17.6359 11.6789 17.6159 11.5389 17.5759C11.0089 17.4059 10.6589 16.9159 10.6589 16.3659V14.0559H8.51899C8.03899 14.0559 7.59897 13.7859 7.37897 13.3559C7.15897 12.9259 7.19895 12.4159 7.47895 12.0259L11.019 7.15594C11.349 6.70594 11.919 6.52594 12.439 6.69594C12.959 6.86594 13.319 7.35594 13.319 7.90594V10.2159H15.459C15.939 10.2159 16.3789 10.4859 16.5989 10.9159C16.8189 11.3459 16.779 11.8559 16.489 12.2459L12.959 17.1159C12.719 17.4559 12.329 17.6459 11.929 17.6459L11.939 17.6359ZM8.95899 12.5559H11.4089C11.8189 12.5559 12.1589 12.8959 12.1589 13.3059V15.6659L15.029 11.7159H12.579C12.169 11.7159 11.829 11.3759 11.829 10.9659V8.60594L8.95899 12.5559Z" fill="#000000" />
</svg>