<svg width="24px"  height="24px"  viewBox="0 0 25 25" fill="none" xmlns="http://www.w3.org/2000/svg">
<path fill-rule="evenodd" clip-rule="evenodd" d="M4.31246 4.03408C5.29695 2.97789 6.69896 2.38672 8.35443 2.38672H16.7891C18.4485 2.38672 19.8511 2.97756 20.8351 4.03437C21.8135 5.08513 22.3223 6.53561 22.3223 8.1631V16.1103C22.3223 17.7378 21.8135 19.1883 20.835 20.2391C19.8508 21.2959 18.4479 21.8867 16.7882 21.8867H8.35443C6.69507 21.8867 5.29265 21.2959 4.30884 20.239C3.33068 19.1882 2.82227 17.7377 2.82227 16.1103V8.1631C2.82227 6.53477 3.33343 5.08443 4.31246 4.03408ZM5.40972 5.05684C4.73251 5.78338 4.32227 6.84623 4.32227 8.1631V16.1103C4.32227 17.4281 4.73088 18.4909 5.40677 19.217C6.07702 19.937 7.06568 20.3867 8.35443 20.3867H16.7882C18.0775 20.3867 19.0667 19.9369 19.7373 19.2168C20.4135 18.4907 20.8223 17.428 20.8223 16.1103V8.1631C20.8223 6.8454 20.4135 5.78269 19.7373 5.05656C19.0668 4.33647 18.0779 3.88672 16.7891 3.88672H8.35443C7.07054 3.88672 6.08148 4.33615 5.40972 5.05684Z" fill="#000000" />
<path fill-rule="evenodd" clip-rule="evenodd" d="M11.7044 8.66016L10.2792 12.1377H11.5C12.1775 12.1377 12.6709 12.7799 12.4963 13.4345L12.1845 14.6037L14.5292 11.9275H13.2728C12.5611 11.9275 12.0634 11.2237 12.3006 10.5528C12.3058 10.5379 12.3116 10.5232 12.3177 10.5087L13.1054 8.66016H11.7044ZM10.428 7.819C10.5815 7.42251 10.9632 7.16016 11.3896 7.16016H13.8154C14.527 7.16016 15.0247 7.86395 14.7876 8.53491C14.7823 8.54977 14.7766 8.56446 14.7704 8.57896L13.9828 10.4275H15.5633C16.4495 10.4275 16.9229 11.4716 16.3389 12.1381L11.9898 17.1023C11.271 17.9227 9.93685 17.211 10.2179 16.1571L10.8897 13.6377H9.58013C8.86333 13.6377 8.36521 12.9244 8.61208 12.2514C8.6153 12.2426 8.61868 12.2339 8.62222 12.2253L10.428 7.819Z" fill="#000000" />
</svg>