<svg width="24px"  height="24px"  viewBox="0 0 24 25" fill="none" xmlns="http://www.w3.org/2000/svg">
<path fill-rule="evenodd" clip-rule="evenodd" d="M11.8026 3.88672L9.98715 8.3164C9.83007 8.69967 9.39203 8.88304 9.00875 8.72597C8.62548 8.56889 8.44211 8.13085 8.59919 7.74757L10.4466 3.23983C10.6422 2.7267 11.1346 2.38672 11.685 2.38672H16.6495C17.5642 2.38672 18.2039 3.29134 17.8991 4.15374C17.8938 4.1686 17.8881 4.18329 17.8819 4.19779L15.8044 9.07363H20.2267C21.3658 9.07363 21.9742 10.4156 21.2236 11.2724L12.3228 21.4318C11.3989 22.4863 9.6841 21.5716 10.0453 20.217L10.8925 17.0401L11.3972 15.097C11.5014 14.6961 11.9108 14.4555 12.3117 14.5597C12.7126 14.6638 12.9532 15.0733 12.8491 15.4742L12.3431 17.4219L11.6874 19.8809L19.8415 10.5736H15.539C14.6243 10.5736 13.9845 9.66901 14.2894 8.80661C14.2946 8.79175 14.3003 8.77705 14.3065 8.76255L16.384 3.88672H11.8026ZM11.1946 20.4433C11.1945 20.4434 11.1946 20.4433 11.1946 20.4433V20.4433Z" fill="#000000" />
<path fill-rule="evenodd" clip-rule="evenodd" d="M6.08836 8.63281L4.14127 13.3838H5.96039C6.68513 13.3838 7.21294 14.0708 7.02621 14.7711L6.42294 17.0334L10.1878 12.7361H8.18673C7.42546 12.7361 6.89304 11.9832 7.14673 11.2655C7.15198 11.2506 7.1577 11.2359 7.16388 11.2214L8.26684 8.63281H6.08836ZM4.7925 7.83927C4.95622 7.4142 5.36505 7.13281 5.82179 7.13281H8.8682C9.62947 7.13281 10.1619 7.8857 9.90821 8.60346C9.90295 8.61832 9.89723 8.63301 9.89106 8.64751L8.7881 11.2361H11.0633C12.0113 11.2361 12.5177 12.353 11.893 13.0661L6.43116 19.3003C5.66224 20.1779 4.23503 19.4166 4.53567 18.2892L5.44373 14.8838H3.54934C2.78253 14.8838 2.24967 14.1207 2.51376 13.4009C2.51698 13.3921 2.52036 13.3834 2.5239 13.3747L4.7925 7.83927Z" fill="#000000" />
</svg>