<svg width="24px"  height="24px"  viewBox="0 0 24 25" fill="none" xmlns="http://www.w3.org/2000/svg">
<path fill-rule="evenodd" clip-rule="evenodd" d="M17.8346 6.30309C14.6128 3.08126 9.38917 3.08126 6.16735 6.30309C2.94552 9.52491 2.94552 14.7485 6.16735 17.9704C9.38917 21.1922 14.6128 21.1922 17.8346 17.9704C21.0564 14.7485 21.0564 9.52491 17.8346 6.30309ZM5.10669 5.24243C8.9143 1.43482 15.0877 1.43482 18.8953 5.24243C22.7029 9.05004 22.7029 15.2234 18.8953 19.031C15.0877 22.8386 8.9143 22.8386 5.10669 19.031C1.29907 15.2234 1.29907 9.05004 5.10669 5.24243Z" fill="#000000" />
<path fill-rule="evenodd" clip-rule="evenodd" d="M11.0472 7.40382C11.7577 6.42497 13.3041 6.92882 13.3041 8.13682V10.2814H15.293C16.3124 10.2814 16.9008 11.4378 16.3023 12.2621C16.3022 12.2621 16.3022 12.2621 16.3022 12.2622L12.9552 16.8719C12.9551 16.872 12.955 16.8721 12.9549 16.8723C12.9549 16.8723 12.9548 16.8724 12.9548 16.8725C12.2442 17.852 10.6974 17.3471 10.6974 16.1399V13.9949H8.709C7.69029 13.9949 7.10084 12.8395 7.69976 12.0147M7.69986 12.0146L11.0471 7.40394C11.0472 7.4039 11.0472 7.40386 11.0472 7.40382M11.8041 8.91445L9.20477 12.4949H11.4474C11.8616 12.4949 12.1974 12.8307 12.1974 13.2449V15.3625L14.7976 11.7814H12.5541C12.1399 11.7814 11.8041 11.4456 11.8041 11.0314V8.91445ZM15.0885 11.3807L15.0885 11.3808L15.0885 11.3807ZM11.7406 15.9917C11.7407 15.9915 11.7409 15.9913 11.741 15.9911L11.7406 15.9917ZM12.2609 8.28529L12.2611 8.28506L12.2612 8.28494C12.2611 8.28506 12.261 8.28517 12.2609 8.28529Z" fill="#000000" />
<path fill-rule="evenodd" clip-rule="evenodd" d="M5.1474 5.28217C5.4403 4.98928 5.91517 4.98928 6.20806 5.28217L10.5064 9.58051C10.7993 9.8734 10.7993 10.3483 10.5064 10.6412C10.2135 10.9341 9.73864 10.9341 9.44574 10.6412L5.1474 6.34283C4.85451 6.04994 4.85451 5.57506 5.1474 5.28217Z" fill="#000000" />
<path fill-rule="evenodd" clip-rule="evenodd" d="M13.5546 13.6884C13.8475 13.3955 14.3224 13.3955 14.6153 13.6884L18.8096 17.8828C19.1025 18.1756 19.1025 18.6505 18.8096 18.9434C18.5167 19.2363 18.0419 19.2363 17.749 18.9434L13.5546 14.7491C13.2617 14.4562 13.2617 13.9813 13.5546 13.6884Z" fill="#000000" />
</svg>