<svg width="24px"  height="24px"  viewBox="0 0 24 25" fill="none" xmlns="http://www.w3.org/2000/svg">
<path fill-rule="evenodd" clip-rule="evenodd" d="M11.9623 3.88672L8.40221 12.5736H12.0706C12.9414 12.5736 13.5756 13.399 13.3512 14.2404L11.8471 19.8809L20.0013 10.5736H15.6987C14.784 10.5736 14.1443 9.66901 14.4491 8.80661C14.4544 8.79175 14.4601 8.77705 14.4663 8.76255L16.5438 3.88672H11.9623ZM11.3543 20.4434C11.3544 20.4433 11.3544 20.4432 11.3545 20.4432L11.3543 20.4434ZM10.6064 3.23983C10.802 2.7267 11.2944 2.38672 11.8447 2.38672H16.8093C17.724 2.38672 18.3637 3.29134 18.0589 4.15374C18.0536 4.1686 18.0479 4.18329 18.0417 4.19779L15.9642 9.07363H20.3865C21.5256 9.07363 22.134 10.4156 21.3834 11.2724L12.4826 21.4318C11.5587 22.4863 9.84387 21.5716 10.2051 20.217L11.8433 14.0736H8.14146C7.22012 14.0736 6.57988 13.1567 6.89719 12.2918C6.9004 12.283 6.90378 12.2743 6.90732 12.2656L10.6064 3.23983Z" fill="#000000" />
<path fill-rule="evenodd" clip-rule="evenodd" d="M4.68223 14.1314C5.06283 14.2948 5.23885 14.7359 5.07539 15.1165L4.17548 17.2118H6.38721C6.63612 17.2118 6.86882 17.3353 7.00833 17.5414C7.14785 17.7476 7.17599 18.0095 7.08347 18.2406L5.81885 21.3989C5.66488 21.7835 5.22834 21.9704 4.8438 21.8164C4.45927 21.6625 4.27236 21.2259 4.42633 20.8414L5.27902 18.7118H3.03711C2.7849 18.7118 2.54958 18.585 2.41082 18.3744C2.27206 18.1638 2.24845 17.8975 2.34798 17.6658L3.69713 14.5245C3.86059 14.1439 4.30164 13.9679 4.68223 14.1314Z" fill="#000000" />
</svg>