<svg width="24px"  height="24px"  viewBox="0 0 24 25" fill="none" xmlns="http://www.w3.org/2000/svg">
<path fill-rule="evenodd" clip-rule="evenodd" d="M19.9991 4.977C20.2794 5.28205 20.2592 5.75649 19.9542 6.03671L18.8062 7.09125C18.5012 7.37147 18.0267 7.35134 17.7465 7.0463C17.4663 6.74126 17.4864 6.26681 17.7915 5.98659L18.9394 4.93205C19.2445 4.65183 19.7189 4.67196 19.9991 4.977Z" fill="#000000" />
<path fill-rule="evenodd" clip-rule="evenodd" d="M18.0714 16.4436C18.3442 16.1319 18.818 16.1003 19.1297 16.3731L20.3027 17.3997C20.6144 17.6725 20.646 18.1463 20.3732 18.458C20.1004 18.7697 19.6266 18.8013 19.3149 18.5285L18.1418 17.5019C17.8301 17.2291 17.7986 16.7553 18.0714 16.4436Z" fill="#000000" />
<path fill-rule="evenodd" clip-rule="evenodd" d="M3.63029 4.99237C3.90633 4.68355 4.38046 4.65697 4.68928 4.93302L5.85149 5.97186C6.16031 6.24791 6.18688 6.72204 5.91084 7.03086C5.6348 7.33969 5.16067 7.36626 4.85184 7.09021L3.68964 6.05137C3.38081 5.77533 3.35424 5.3012 3.63029 4.99237Z" fill="#000000" />
<path fill-rule="evenodd" clip-rule="evenodd" d="M6.71403 16.9539C6.98762 17.2649 6.95727 17.7388 6.64627 18.0124L5.47584 19.0419C5.16483 19.3155 4.69093 19.2852 4.41735 18.9742C4.14377 18.6632 4.17411 18.1893 4.48512 17.9157L5.65554 16.8861C5.96655 16.6125 6.44045 16.6429 6.71403 16.9539Z" fill="#000000" />
<path fill-rule="evenodd" clip-rule="evenodd" d="M10.5471 3.88672L6.98693 12.5736H10.6553C11.5261 12.5736 12.1603 13.399 11.9359 14.2404L10.4319 19.8809L18.586 10.5736H14.2834C13.3688 10.5736 12.729 9.66901 13.0338 8.80661C13.0391 8.79175 13.0448 8.77705 13.051 8.76255L15.1285 3.88672H10.5471ZM9.93906 20.4434C9.93911 20.4433 9.93917 20.4432 9.93922 20.4432L9.93906 20.4434ZM9.19108 3.23983C9.38671 2.7267 9.87913 2.38672 10.4294 2.38672H15.394C16.3087 2.38672 16.9484 3.29134 16.6436 4.15374C16.6383 4.1686 16.6326 4.18329 16.6264 4.19779L14.5489 9.07363H18.9712C20.1103 9.07363 20.7187 10.4156 19.9681 11.2724L11.0673 21.4318C10.1434 22.4863 8.42859 21.5716 8.78982 20.217L10.428 14.0736H6.72617C5.80484 14.0736 5.16459 13.1567 5.4819 12.2918C5.48512 12.283 5.4885 12.2743 5.49204 12.2656L9.19108 3.23983Z" fill="#000000" />
</svg>