<svg width="24px"  height="24px"  viewBox="0 0 25 25" fill="none" xmlns="http://www.w3.org/2000/svg">
<path fill-rule="evenodd" clip-rule="evenodd" d="M16.8625 3.16336C17.1261 3.48287 17.0807 3.95557 16.7612 4.21917L16.6837 4.28312C16.3642 4.54672 15.8915 4.50139 15.6279 4.18188C15.3643 3.86237 15.4096 3.38966 15.7291 3.12606L15.8066 3.06212C16.1262 2.79852 16.5989 2.84384 16.8625 3.16336ZM20.7766 4.67811C21.0402 4.99762 20.9948 5.47033 20.6753 5.73392L20.5978 5.79787C20.2783 6.06146 19.8056 6.01613 19.542 5.69662C19.2784 5.37711 19.3237 4.9044 19.6433 4.6408L19.7208 4.57686C20.0403 4.31326 20.513 4.35859 20.7766 4.67811ZM12.2793 4.81992C12.5424 4.77818 12.8011 4.81294 12.9983 4.85824C13.413 4.95347 13.871 5.16277 14.3329 5.43118C15.2666 5.97368 16.3716 6.84931 17.4448 7.92297C18.5184 8.99616 19.3946 10.1016 19.9372 11.0354C20.2056 11.4974 20.415 11.9555 20.5102 12.3702C20.5554 12.5673 20.5902 12.826 20.5483 13.0892C20.5541 13.2883 20.481 13.4893 20.329 13.6413L17.6027 16.3676C17.2273 16.743 16.766 17.0166 16.2623 17.1669C16.1158 17.2114 15.9658 17.2457 15.8138 17.2692L15.8037 17.2708L14.2121 17.495L14.2111 17.4951C14.1148 17.5093 14.0151 17.5325 13.9057 17.564C13.8943 17.5694 13.8828 17.5746 13.8711 17.5794C13.832 17.5956 13.792 17.6083 13.7517 17.6176C13.5039 17.7167 13.2773 17.8655 13.0866 18.0566L9.95955 21.1827C8.36551 22.7767 5.78052 22.7767 4.18649 21.1827C2.59166 19.5879 2.59131 17.0029 4.18649 15.4087L7.31133 12.2838C7.50727 12.0874 7.65882 11.854 7.7582 11.599C7.76896 11.5575 7.78327 11.5169 7.80099 11.4778C7.83381 11.3742 7.85829 11.2677 7.87393 11.1591L8.10144 9.56654C8.1979 8.88566 8.51358 8.25241 9.00104 7.76611L11.5998 5.1664C11.6046 5.16149 11.6094 5.1566 11.6142 5.15173L11.6152 5.1508C11.6199 5.14604 11.6247 5.14134 11.6295 5.13669L11.7268 5.03936C11.8789 4.88725 12.08 4.8141 12.2793 4.81992ZM8.52884 13.1768C8.47891 13.2338 8.42702 13.2894 8.37321 13.3433L5.24715 16.4693C4.2383 17.4774 4.23782 19.1127 5.24715 20.1221C6.2554 21.1303 7.89064 21.1303 8.89889 20.1221L12.0247 16.9972C12.0778 16.944 12.1329 16.8922 12.1891 16.8428C11.5574 16.3654 10.8914 15.7845 10.2393 15.1323C9.58174 14.4742 9.00341 13.807 8.52884 13.1768ZM20.2163 13.7538L20.2172 13.7529L20.2163 13.7538ZM18.9983 12.5349C18.9317 12.3417 18.816 12.0914 18.6402 11.7891C18.1797 10.9965 17.3936 9.99263 16.3844 8.98388C15.3756 7.97466 14.3718 7.18859 13.5793 6.72815C13.277 6.5525 13.0268 6.43678 12.8336 6.37016C12.9002 6.56334 13.0159 6.81361 13.1916 7.11592C13.652 7.90838 14.4378 8.91196 15.4471 9.9207C16.4558 10.9299 17.4599 11.7162 18.2525 12.1768C18.5549 12.3525 18.8051 12.4683 18.9983 12.5349ZM11.5929 7.29499L10.0606 8.82788C9.80423 9.08356 9.6375 9.41737 9.58664 9.77673L9.35883 11.3714C9.34418 11.4733 9.325 11.5748 9.30161 11.6743C9.77702 12.3919 10.4596 13.2305 11.3002 14.0719C12.1345 14.9063 12.9719 15.5939 13.688 16.0688C13.7901 16.0447 13.8936 16.0252 13.9981 16.0103L13.9992 16.0102L15.5911 15.7827C15.673 15.771 15.7536 15.7533 15.8323 15.7299C16.1015 15.6472 16.346 15.5015 16.5396 15.3079L18.0724 13.775C17.8838 13.6876 17.6917 13.5858 17.4988 13.4737C16.5651 12.9311 15.4598 12.0553 14.3866 10.9816C13.313 9.90841 12.4371 8.80318 11.8946 7.86949C11.7824 7.67634 11.6805 7.48388 11.5929 7.29499ZM22.3188 8.62062C22.5824 8.94014 22.537 9.41284 22.2175 9.67643L22.14 9.74038C21.8205 10.004 21.3478 9.95864 21.0842 9.63912C20.8206 9.3196 20.8659 8.8469 21.1854 8.5833L21.263 8.51936C21.5825 8.25577 22.0552 8.3011 22.3188 8.62062ZM9.27851 16.091C9.5714 16.3839 9.5714 16.8587 9.27851 17.1516L8.26511 18.165C7.97221 18.4579 7.49734 18.4579 7.20445 18.165C6.91155 17.8721 6.91155 17.3973 7.20445 17.1044L8.21784 16.091C8.51074 15.7981 8.98561 15.7981 9.27851 16.091Z" fill="#000000" />
</svg>