<svg width="24px"  height="24px"  viewBox="0 0 25 25" fill="none" xmlns="http://www.w3.org/2000/svg">
<path d="M17.8076 22.0159H7.37762C5.12762 22.0159 3.30762 20.1859 3.30762 17.9459V10.776C3.30762 9.65595 3.80761 8.60595 4.67761 7.89595L10.2476 3.35594C11.6076 2.24594 13.5776 2.24594 14.9376 3.35594L20.5176 7.89595C21.3876 8.60595 21.8876 9.65595 21.8876 10.776V17.9459C21.8876 20.1959 20.0576 22.0159 17.8176 22.0159H17.8076ZM12.5876 4.01594C12.0876 4.01594 11.5976 4.18594 11.1876 4.51594L5.61761 9.05595C5.09761 9.47595 4.79761 10.106 4.79761 10.776V17.9459C4.79761 19.3659 5.94761 20.5159 7.36761 20.5159H17.7976C19.2176 20.5159 20.3676 19.3659 20.3676 17.9459V10.776C20.3676 10.106 20.0676 9.48595 19.5476 9.05595L13.9776 4.51594C13.5776 4.18594 13.0776 4.02595 12.5776 4.02595L12.5876 4.01594Z" fill="#000000" />
<path d="M12.5377 17.8761C12.4177 17.8761 12.2877 17.8561 12.1677 17.8161C11.6777 17.6561 11.3377 17.1961 11.3377 16.6861V14.8661H9.65766C9.20766 14.8661 8.79766 14.6161 8.59766 14.2161C8.39766 13.8161 8.4377 13.3361 8.6977 12.9761L11.6677 8.87609C11.9677 8.45609 12.5077 8.28609 12.9977 8.44609C13.4877 8.60609 13.8177 9.0661 13.8177 9.5761V11.3961H15.5077C15.9577 11.3961 16.3677 11.6461 16.5677 12.0461C16.7777 12.4461 16.7377 12.9261 16.4677 13.2861L13.4977 17.3861C13.2677 17.7061 12.9077 17.8761 12.5377 17.8761ZM10.2677 13.3661H12.0977C12.5077 13.3661 12.8477 13.7061 12.8477 14.1161V15.7461L14.9077 12.9061H13.0777C12.6677 12.9061 12.3277 12.5661 12.3277 12.1561V10.5361L10.2677 13.3761V13.3661Z" fill="#000000" />
</svg>