<svg width="24px"  height="24px"  viewBox="0 0 25 25" fill="none" xmlns="http://www.w3.org/2000/svg">
<path fill-rule="evenodd" clip-rule="evenodd" d="M15.4795 16.4399C18.4229 14.9799 20.2808 11.6662 19.5225 8.09028C18.9058 5.19028 16.5278 2.89036 13.5947 2.30036C8.6709 1.32035 4.28516 4.98038 4.28516 9.70039C4.28516 12.6514 6.00879 15.1934 8.50879 16.4299V18.2103C8.50879 20.1103 10.0898 21.6403 11.9946 21.6403C13.8989 21.6403 15.4795 20.1103 15.4795 18.2103V16.4399ZM9.44971 15.2103H11.2383V11.4104L9.5835 9.75031C9.29053 9.4603 9.29053 8.99039 9.5835 8.69038C9.87646 8.40037 10.3511 8.40037 10.644 8.69038L11.9878 10.0383L13.3311 8.69038C13.624 8.40037 14.0986 8.40037 14.3916 8.69038C14.6846 8.99039 14.6846 9.4603 14.3916 9.75031L12.7383 11.4093V15.2103H14.5601C17.0742 14.1056 18.6841 11.3645 18.0552 8.40034C17.5664 6.11033 15.6616 4.24033 13.3013 3.77033C9.28223 2.97034 5.78516 5.95039 5.78516 9.70039C5.78516 12.1545 7.2832 14.2784 9.44971 15.2103ZM13.9795 16.7103V18.2103C13.9795 19.2603 13.0986 20.1403 11.9946 20.1403C10.8892 20.1403 10.0088 19.2603 10.0088 18.2103V16.7103H11.8662C11.9058 16.7169 11.9468 16.7203 11.9883 16.7203C12.0298 16.7203 12.0708 16.7169 12.1104 16.7103H13.9795Z" fill="#000000" />
</svg>