<svg width="24px"  height="24px"  viewBox="0 0 25 25" fill="none" xmlns="http://www.w3.org/2000/svg">
<path fill-rule="evenodd" clip-rule="evenodd" d="M15.3257 15.9583C18.1143 14.5395 19.8594 11.3463 19.144 7.90085C18.561 5.10086 16.3101 2.87088 13.5171 2.29086C8.82275 1.34088 4.67383 4.91089 4.67383 9.4509C4.67383 12.2906 6.29443 14.75 8.66016 15.9481L8.65771 16.7608C8.65479 18.0108 9.66309 19.0208 10.9087 19.0208H13.0737C14.3149 19.0208 15.3208 18.0108 15.3237 16.7708L15.3257 15.9583ZM9.70264 14.7809C9.98193 14.9008 10.1626 15.1708 10.1616 15.4708L10.1577 16.7608C10.1577 16.7629 10.1577 16.7651 10.1577 16.7672C10.1602 17.1843 10.4956 17.5208 10.9087 17.5208H13.0737C13.4868 17.5208 13.8228 17.1808 13.8237 16.7708L13.8252 16.2308H12.1289C11.7148 16.2308 11.3789 15.9008 11.3789 15.4808C11.3789 15.0708 11.7148 14.7308 12.1289 14.7308H14.4219C16.7593 13.6695 18.2666 11.0555 17.6758 8.2009C17.2148 6.00092 15.4229 4.22082 13.2178 3.76083C9.4668 3.00082 6.17383 5.84091 6.17383 9.4509C6.17383 11.8509 7.62793 13.9109 9.70264 14.7809Z" fill="#000000" />
<path d="M9.95068 20.8908C9.95068 20.4808 10.2866 20.1408 10.7007 20.1408H13.2759C13.6899 20.1408 14.0259 20.4808 14.0259 20.8908C14.0259 21.3008 13.6899 21.6408 13.2759 21.6408H10.7007C10.2866 21.6408 9.95068 21.3008 9.95068 20.8908Z" fill="#000000" />
</svg>