<svg width="24px"  height="24px"  viewBox="0 0 24 25" fill="none" xmlns="http://www.w3.org/2000/svg">
<path fill-rule="evenodd" clip-rule="evenodd" d="M9.22461 15.3672C9.63882 15.3672 9.97461 15.703 9.97461 16.1172V18.4153C9.97461 19.4824 10.8732 20.385 12.0006 20.385C13.1268 20.385 14.0255 19.4826 14.0255 18.4153V16.129C14.0255 15.7148 14.3613 15.379 14.7755 15.379C15.1898 15.379 15.5255 15.7148 15.5255 16.129V18.4153C15.5255 20.3393 13.9267 21.885 12.0006 21.885C10.0736 21.885 8.47461 20.3394 8.47461 18.4153V16.1172C8.47461 15.703 8.8104 15.3672 9.22461 15.3672Z" fill="#000000" />
<path fill-rule="evenodd" clip-rule="evenodd" d="M8.53711 16.1367C8.53711 15.7225 8.8729 15.3867 9.28711 15.3867H14.7038C15.118 15.3867 15.4538 15.7225 15.4538 16.1367C15.4538 16.5509 15.118 16.8867 14.7038 16.8867H9.28711C8.8729 16.8867 8.53711 16.5509 8.53711 16.1367Z" fill="#000000" />
<path fill-rule="evenodd" clip-rule="evenodd" d="M11.3371 2.67201C11.5938 2.99711 11.5383 3.46873 11.2132 3.7254L8.38958 5.95464C8.06447 6.21131 7.59285 6.15584 7.33618 5.83073C7.07951 5.50563 7.13499 5.034 7.46009 4.77733L10.2837 2.5481C10.6088 2.29142 11.0804 2.3469 11.3371 2.67201Z" fill="#000000" />
<path fill-rule="evenodd" clip-rule="evenodd" d="M14.9596 2.80091C15.2162 3.12602 15.1608 3.59764 14.8357 3.85431L8.38958 8.94351C8.06447 9.20018 7.59285 9.1447 7.33618 8.8196C7.07951 8.49449 7.13499 8.02287 7.46009 7.7662L13.9062 2.677C14.2313 2.42033 14.7029 2.47581 14.9596 2.80091Z" fill="#000000" />
<path fill-rule="evenodd" clip-rule="evenodd" d="M16.6614 4.52357C16.918 4.84867 16.8626 5.32029 16.5375 5.57697L8.38958 12.0097C8.06447 12.2664 7.59285 12.2109 7.33618 11.8858C7.07951 11.5607 7.13499 11.0891 7.46009 10.8324L15.608 4.39966C15.9331 4.14299 16.4047 4.19846 16.6614 4.52357Z" fill="#000000" />
<path fill-rule="evenodd" clip-rule="evenodd" d="M16.6608 7.55482C16.9174 7.87992 16.862 8.35154 16.5368 8.60822L9.80071 13.9264C9.47561 14.1831 9.00399 14.1276 8.74731 13.8025C8.49064 13.4774 8.54612 13.0058 8.87122 12.7491L15.6074 7.43091C15.9325 7.17424 16.4041 7.22971 16.6608 7.55482Z" fill="#000000" />
<path fill-rule="evenodd" clip-rule="evenodd" d="M16.6603 10.6056C16.917 10.9307 16.8615 11.4023 16.5364 11.659L12.666 14.7147V15.8086C12.666 16.2228 12.3302 16.5586 11.916 16.5586C11.5018 16.5586 11.166 16.2228 11.166 15.8086V14.3513C11.166 14.1217 11.2711 13.9048 11.4513 13.7626L15.607 10.4817C15.9321 10.225 16.4037 10.2805 16.6603 10.6056Z" fill="#000000" />
<path fill-rule="evenodd" clip-rule="evenodd" d="M18.833 9.47266C18.833 9.05844 19.1688 8.72266 19.583 8.72266H20.9994C21.4136 8.72266 21.7494 9.05844 21.7494 9.47266C21.7494 9.88687 21.4136 10.2227 20.9994 10.2227H19.583C19.1688 10.2227 18.833 9.88687 18.833 9.47266Z" fill="#000000" />
<path fill-rule="evenodd" clip-rule="evenodd" d="M5.16504 9.47266C5.16504 9.05844 4.82925 8.72266 4.41504 8.72266H2.99867C2.58446 8.72266 2.24867 9.05844 2.24867 9.47266C2.24867 9.88687 2.58446 10.2227 2.99867 10.2227H4.41504C4.82925 10.2227 5.16504 9.88687 5.16504 9.47266Z" fill="#000000" />
<path fill-rule="evenodd" clip-rule="evenodd" d="M18.3193 6.11046C18.1122 5.75174 18.2351 5.29304 18.5939 5.08594L19.8205 4.37776C20.1792 4.17065 20.6379 4.29355 20.845 4.65227C21.0521 5.01099 20.9292 5.46969 20.5705 5.67679L19.3439 6.38498C18.9851 6.59208 18.5264 6.46918 18.3193 6.11046Z" fill="#000000" />
<path fill-rule="evenodd" clip-rule="evenodd" d="M5.67871 6.11046C5.88582 5.75174 5.76291 5.29304 5.40419 5.08594L4.17758 4.37776C3.81886 4.17065 3.36017 4.29355 3.15307 4.65227C2.94596 5.01099 3.06886 5.46969 3.42758 5.67679L4.65419 6.38498C5.01291 6.59208 5.4716 6.46918 5.67871 6.11046Z" fill="#000000" />
<path fill-rule="evenodd" clip-rule="evenodd" d="M18.3193 12.8349C18.1122 13.1936 18.2351 13.6523 18.5939 13.8594L19.8205 14.5676C20.1792 14.7747 20.6379 14.6518 20.845 14.293C21.0521 13.9343 20.9292 13.4756 20.5705 13.2685L19.3439 12.5603C18.9851 12.3532 18.5264 12.4761 18.3193 12.8349Z" fill="#000000" />
<path fill-rule="evenodd" clip-rule="evenodd" d="M5.67871 12.8349C5.88582 13.1936 5.76291 13.6523 5.40419 13.8594L4.17758 14.5676C3.81886 14.7747 3.36017 14.6518 3.15307 14.293C2.94596 13.9343 3.06886 13.4756 3.42758 13.2685L4.65419 12.5603C5.01291 12.3532 5.4716 12.4761 5.67871 12.8349Z" fill="#000000" />
</svg>