<svg width="24px"  height="24px"  viewBox="0 0 25 25" fill="none" xmlns="http://www.w3.org/2000/svg">
<path d="M9.14258 9.72965C8.729 9.72965 8.39258 9.39963 8.39258 8.97965C8.39258 7.26965 9.95361 5.9397 11.7119 6.2897C12.1177 6.36969 12.3799 6.76972 12.2979 7.17972C12.2148 7.57971 11.8198 7.83966 11.4136 7.75968C10.5986 7.59967 9.89258 8.20966 9.89258 8.97965C9.89258 9.39963 9.55664 9.72965 9.14258 9.72965Z" fill="#000000" />
<path fill-rule="evenodd" clip-rule="evenodd" d="M15.4258 16.4362C18.3154 14.9669 20.126 11.6548 19.3867 8.08963C18.7827 5.19962 16.4556 2.88971 13.5698 2.29971C8.7168 1.3197 4.42773 4.99973 4.42773 9.69974C4.42773 12.6399 6.11084 15.1893 8.56592 16.4274V18.2096C8.56592 20.0996 10.1079 21.6397 11.9956 21.6397C13.8838 21.6397 15.4258 20.0996 15.4258 18.2096V16.4362ZM9.60693 15.2497C9.88477 15.3697 10.0659 15.6397 10.0659 15.9397V18.2096C10.0659 19.2696 10.9365 20.1397 11.9956 20.1397C13.0547 20.1397 13.9258 19.2696 13.9258 18.2096V16.7096H12.2427C11.8286 16.7096 11.4927 16.3796 11.4927 15.9596C11.4927 15.5496 11.8286 15.2096 12.2427 15.2096H14.52C16.96 14.0985 18.5347 11.3648 17.918 8.39969C17.4365 6.0997 15.5698 4.23969 13.271 3.76969C9.36182 2.97968 5.92773 5.92975 5.92773 9.69974C5.92773 12.1997 7.44385 14.3397 9.60693 15.2497Z" fill="#000000" />
</svg>