<svg width="24px"  height="24px"  viewBox="0 0 25 25" fill="none" xmlns="http://www.w3.org/2000/svg">
<path fill-rule="evenodd" clip-rule="evenodd" d="M15.4258 16.4362C18.3154 14.9669 20.126 11.6548 19.3867 8.08963C18.7827 5.19962 16.4556 2.88971 13.5698 2.29971C8.7168 1.3197 4.42773 4.99973 4.42773 9.69974C4.42773 12.6399 6.11084 15.1893 8.56592 16.4274V18.2096C8.56592 20.0996 10.1079 21.6397 11.9946 21.6397C13.8838 21.6397 15.4258 20.0996 15.4258 18.2096V16.4362ZM9.51416 15.2096H10.0151L8.98584 8.7897C8.95068 8.5697 9.0127 8.34973 9.15576 8.18973C9.29785 8.01972 9.50684 7.91971 9.72559 7.91971H14.2065C14.4258 7.91971 14.6348 8.01972 14.7778 8.18973C14.9199 8.34973 14.9819 8.5697 14.9468 8.7897L13.9175 15.2096H14.52C16.96 14.0985 18.5347 11.3648 17.9175 8.39969C17.4365 6.0997 15.5698 4.23969 13.271 3.76969C9.36182 2.97968 5.92773 5.92975 5.92773 9.69974C5.92773 12.1638 7.40088 14.278 9.51416 15.2096ZM13.9258 16.7096H10.0659V18.2096C10.0659 19.2696 10.9365 20.1397 11.9946 20.1397C13.0547 20.1397 13.9258 19.2696 13.9258 18.2096V16.7096ZM12.3994 15.2096L13.3267 9.41971H10.606L11.5332 15.2096H12.3994Z" fill="#000000" />
</svg>