<svg width="24px"  height="24px"  viewBox="0 0 25 25" fill="none" xmlns="http://www.w3.org/2000/svg">
<path d="M11.6226 12.8396C11.2588 12.6396 11.1245 12.1897 11.3228 11.8197L12.147 10.3097H10.5688C10.3047 10.3097 10.0596 10.1697 9.92383 9.93973C9.78857 9.70972 9.78369 9.42975 9.90967 9.19974L11.3379 6.56973C11.5356 6.20972 11.9917 6.06967 12.356 6.26969C12.7197 6.4697 12.8535 6.91971 12.6558 7.2897L11.8271 8.80972H13.4116C13.6768 8.80972 13.9219 8.9397 14.0566 9.16971C14.1919 9.39972 14.1968 9.67969 14.0708 9.9097L12.6396 12.5397C12.4419 12.8997 11.9868 13.0396 11.6226 12.8396Z" fill="#000000" />
<path fill-rule="evenodd" clip-rule="evenodd" d="M15.4258 16.4362C18.3154 14.9669 20.126 11.6548 19.3867 8.08963C18.7827 5.19962 16.4556 2.88971 13.5698 2.29971C8.7168 1.3197 4.42773 4.99973 4.42773 9.69974C4.42773 12.6399 6.11084 15.1893 8.56592 16.4274V18.2096C8.56592 20.0996 10.1079 21.6397 11.9946 21.6397C13.8838 21.6397 15.4258 20.0996 15.4258 18.2096V16.4362ZM9.60693 15.2497C9.88477 15.3697 10.0659 15.6397 10.0659 15.9397V18.2096C10.0659 19.2696 10.9365 20.1397 11.9946 20.1397C13.0547 20.1397 13.9258 19.2696 13.9258 18.2096V16.7096H12.2437C11.8296 16.7096 11.4937 16.3796 11.4937 15.9596C11.4937 15.5496 11.8296 15.2096 12.2437 15.2096H14.52C16.96 14.0985 18.5347 11.3648 17.9175 8.39969C17.4365 6.0997 15.5698 4.23969 13.2705 3.76969C9.36182 2.97968 5.92773 5.92975 5.92773 9.69974C5.92773 12.1997 7.44385 14.3397 9.60693 15.2497Z" fill="#000000" />
</svg>