<svg width="24px"  height="24px"  viewBox="0 0 25 25" fill="none" xmlns="http://www.w3.org/2000/svg">
<path fill-rule="evenodd" clip-rule="evenodd" d="M8.19931 20.8906C8.19931 20.4806 8.53524 20.1406 8.94931 20.1406H11.255V11.3022L8.7662 11.2906C7.52108 11.2806 6.62509 10.0906 6.95907 8.90063L8.36825 3.87061V3.8606C8.65536 2.85059 9.58407 2.14062 10.6432 2.14062H13.336C14.3941 2.14062 15.3224 2.84061 15.61 3.8606L17.0411 8.92065C17.3482 10.011 16.6397 11.0934 15.5792 11.2893V13.7406C15.5792 14.1606 15.2433 14.4906 14.8292 14.4906C14.4151 14.4906 14.0792 14.1606 14.0792 13.7406V11.3154L12.755 11.3092V20.1406H15.0611C15.4762 20.1406 15.8111 20.4806 15.8111 20.8906C15.8111 21.3006 15.4762 21.6406 15.0611 21.6406H8.94931C8.53524 21.6406 8.19931 21.3006 8.19931 20.8906ZM14.1671 4.27063C14.0611 3.90063 13.7223 3.64062 13.336 3.64062H10.6432C10.2574 3.64062 9.91708 3.90063 9.8121 4.27063L8.40438 9.30066C8.33505 9.55066 8.51913 9.79065 8.77304 9.79065L15.2262 9.82068C15.482 9.82068 15.6671 9.58057 15.5982 9.33057L14.1671 4.27063Z" fill="#000000" />
</svg>