<svg width="24px"  height="24px"  viewBox="0 0 25 25" fill="none" xmlns="http://www.w3.org/2000/svg">
<path fill-rule="evenodd" clip-rule="evenodd" d="M17.5752 14.1907C17.5752 14.6007 17.2388 14.9407 16.8252 14.9407H14.7988C14.519 16.2274 13.3726 17.1907 12 17.1907C10.6274 17.1907 9.48145 16.2274 9.20166 14.9407H7.1748C6.76123 14.9407 6.4248 14.6007 6.4248 14.1907C6.4248 11.3651 8.52539 9.02756 11.25 8.66068V7.34058C11.25 6.93057 11.5859 6.59058 12 6.59058C12.4141 6.59058 12.75 6.93057 12.75 7.34058V8.66068C15.4746 9.02756 17.5752 11.3651 17.5752 14.1907ZM10.7812 14.9407C11.0059 15.3851 11.4673 15.6907 12 15.6907C12.5327 15.6907 12.9946 15.3851 13.2192 14.9407H10.7812ZM16.0063 13.4407C15.6543 11.5477 13.9946 10.1106 12 10.1106C10.0054 10.1106 8.3457 11.5477 7.99365 13.4407H16.0063Z" fill="#000000" />
<path fill-rule="evenodd" clip-rule="evenodd" d="M3.74023 3.79065C4.72412 2.73065 6.12598 2.14062 7.78223 2.14062H16.2168C17.876 2.14062 19.2788 2.73065 20.2632 3.79065C21.2412 4.84064 21.75 6.29065 21.75 7.92065V15.8606C21.75 17.4906 21.2412 18.9406 20.2622 19.9906C19.2778 21.0506 17.875 21.6406 16.2158 21.6406H7.78223C6.12305 21.6406 4.72021 21.0506 3.73584 19.9906C2.75781 18.9406 2.25 17.4906 2.25 15.8606V7.92065C2.25 6.29065 2.76123 4.84064 3.74023 3.79065ZM4.83691 4.81067C4.16016 5.54068 3.75 6.60065 3.75 7.92065V15.8606C3.75 17.1806 4.1582 18.2406 4.83398 18.9706C5.50391 19.6906 6.49316 20.1406 7.78223 20.1406H16.2158C17.5049 20.1406 18.4941 19.6906 19.165 18.9706C19.8408 18.2406 20.25 17.1806 20.25 15.8606V7.92065C20.25 6.60065 19.8408 5.54068 19.165 4.81067C18.4941 4.09067 17.5049 3.64062 16.2168 3.64062H7.78223C6.49805 3.64062 5.50879 4.09067 4.83691 4.81067Z" fill="#000000" />
</svg>