<svg width="24px"  height="24px"  viewBox="0 0 25 25" fill="none" xmlns="http://www.w3.org/2000/svg">
<path fill-rule="evenodd" clip-rule="evenodd" d="M20.8657 14.4106C20.8657 14.8206 20.5308 15.1606 20.1157 15.1606H16.1421C15.8174 17.1571 14.0874 18.6807 12.0015 18.6807C9.91602 18.6807 8.18604 17.1571 7.86133 15.1606H3.88672C3.47266 15.1606 3.13672 14.8206 3.13672 14.4106C3.13672 9.76346 6.70654 5.95279 11.2505 5.57193L11.2515 2.89062C11.2515 2.48062 11.5879 2.14062 12.0015 2.14062C12.4155 2.14062 12.7515 2.48062 12.7515 2.89062L12.7505 5.57196C17.2959 5.95288 20.8657 9.76352 20.8657 14.4106ZM9.39307 15.1606C9.69385 16.322 10.7476 17.1807 12.0015 17.1807C13.2559 17.1807 14.3096 16.322 14.6104 15.1606H9.39307ZM19.3281 13.6606C18.9526 9.94284 15.8159 7.04065 12.0005 7.04065C8.18652 7.04065 5.0498 9.94284 4.67432 13.6606H19.3281Z" fill="#000000" />
<path d="M12.0015 19.5707C12.4155 19.5707 12.7515 19.9107 12.7515 20.3207V20.8906C12.7515 21.3006 12.4155 21.6406 12.0015 21.6406C11.5879 21.6406 11.2515 21.3006 11.2515 20.8906V20.3207C11.2515 19.9107 11.5879 19.5707 12.0015 19.5707Z" fill="#000000" />
<path d="M15.7729 18.4606C16.0659 18.1706 16.5405 18.1706 16.8335 18.4606L17.2358 18.8606C17.5288 19.1506 17.5288 19.6306 17.2358 19.9207C16.9429 20.2107 16.4688 20.2107 16.1758 19.9207L15.7729 19.5206C15.4795 19.2306 15.4795 18.7506 15.7729 18.4606Z" fill="#000000" />
<path d="M8.25391 18.4606C8.54688 18.7506 8.54688 19.2306 8.25391 19.5206L7.85156 19.9207C7.55859 20.2107 7.0835 20.2107 6.79053 19.9207C6.49756 19.6306 6.49756 19.1506 6.79053 18.8606L7.19287 18.4606C7.48584 18.1706 7.96094 18.1706 8.25391 18.4606Z" fill="#000000" />
</svg>