<svg width="24px"  height="24px"  viewBox="0 0 25 25" fill="none" xmlns="http://www.w3.org/2000/svg">
<path fill-rule="evenodd" clip-rule="evenodd" d="M6.29553 20.8892C6.29553 20.4792 6.63049 20.1392 7.04553 20.1392H14.6149C16.653 18.7375 17.6989 16.4681 17.8239 14.0192C17.9401 11.7442 17.2487 9.3632 15.8683 7.52375C15.8649 7.52723 15.8615 7.53071 15.858 7.53419C15.7804 7.61375 15.6984 7.69764 15.6168 7.77924C15.4972 7.89878 15.3781 8.01832 15.2736 8.12394C15.9596 10.3139 15.4352 12.7989 13.7008 14.5292C13.6105 14.6191 13.4991 14.6842 13.379 14.7194C13.3116 14.739 13.2413 14.7492 13.1705 14.7492C12.9718 14.7492 12.7809 14.6693 12.6398 14.5292L4.69788 6.58918C4.4054 6.2992 4.4054 5.81925 4.69788 5.52924C6.43372 3.79111 8.92151 3.26627 11.1115 3.95472L12.0704 2.99921C13.2164 1.84922 15.0885 1.84922 16.2345 2.99921C16.8136 3.57923 17.0895 4.3393 17.0997 5.06928C17.1007 5.07929 17.1007 5.0792 17.0997 5.08918C17.0934 5.50675 17.004 5.92789 16.8229 6.31651C18.5909 8.49021 19.4606 11.362 19.3214 14.0992C19.2091 16.3117 18.4332 18.4834 16.8986 20.1392H18.7506C19.1647 20.1392 19.5006 20.4792 19.5006 20.8892C19.5006 21.2992 19.1647 21.6392 18.7506 21.6392H7.04553C6.63049 21.6392 6.29553 21.2992 6.29553 20.8892ZM10.9552 5.49067C9.43762 4.90479 7.68469 5.1077 6.32922 6.09977L13.1295 12.8983C14.13 11.5323 14.3282 9.76286 13.7242 8.23698C13.7164 8.21964 13.7096 8.20206 13.7032 8.1843C13.4655 7.60383 13.1115 7.06046 12.6398 6.58918C12.1818 6.13099 11.6549 5.7833 11.0924 5.54609C11.0455 5.5323 10.9991 5.5138 10.9552 5.49067ZM14.6051 6.66752C14.7565 6.51514 14.9049 6.36604 15.0197 6.24921C15.0846 6.17924 15.1368 6.12919 15.1769 6.08918L15.1588 6.12107C15.1681 6.10639 15.1774 6.09245 15.1876 6.07896L15.1847 6.0814L15.1769 6.08918C15.1915 6.06919 15.2037 6.05927 15.2096 6.04926C15.2159 6.04169 15.2218 6.03675 15.2286 6.02924C15.4669 5.77164 15.5929 5.43537 15.6007 5.07899C15.5924 4.70261 15.4523 4.33677 15.1735 4.05927C14.6139 3.49928 13.6915 3.49928 13.1315 4.05927L12.5675 4.62556C12.9703 4.87742 13.3507 5.17866 13.7008 5.52924C14.0519 5.88087 14.3531 6.26319 14.6051 6.66752Z" fill="#000000" />
<path d="M8.9425 18.8692C8.9425 18.4492 9.27747 18.1192 9.6925 18.1192H10.5616C10.9757 18.1192 11.3116 18.4492 11.3116 18.8692C11.3116 19.2792 10.9757 19.6192 10.5616 19.6192H9.6925C9.27747 19.6192 8.9425 19.2792 8.9425 18.8692Z" fill="#000000" />
<path d="M5.92542 9.40925C6.33459 9.33927 6.71985 9.61927 6.78479 10.0292C6.91565 10.8493 7.17542 11.4193 7.52844 11.7893C7.8678 12.1493 8.35754 12.3793 9.10559 12.4193C9.51965 12.4393 9.83752 12.7992 9.81555 13.2092C9.79456 13.6192 9.44153 13.9393 9.02747 13.9193C7.96985 13.8693 7.09387 13.5092 6.44446 12.8292C5.81067 12.1692 5.46252 11.2692 5.30286 10.2692C5.23743 9.85926 5.51672 9.46925 5.92542 9.40925Z" fill="#000000" />
</svg>