<svg width="24px"  height="24px"  viewBox="0 0 25 25" fill="none" xmlns="http://www.w3.org/2000/svg">
<path d="M10.4048 13.1606C9.99023 13.1606 9.65479 12.8206 9.65479 12.4106V11.3706C9.65479 10.9606 9.99023 10.6206 10.4048 10.6206C10.8188 10.6206 11.1548 10.9606 11.1548 11.3706V12.4106C11.1548 12.8206 10.8188 13.1606 10.4048 13.1606Z" fill="#000000" />
<path d="M13.5942 13.1606C13.1802 13.1606 12.8442 12.8206 12.8442 12.4106V11.3706C12.8442 10.9606 13.1802 10.6206 13.5942 10.6206C14.0088 10.6206 14.3442 10.9606 14.3442 11.3706V12.4106C14.3442 12.8206 14.0088 13.1606 13.5942 13.1606Z" fill="#000000" />
<path fill-rule="evenodd" clip-rule="evenodd" d="M12 5.92065C15.2969 5.92065 17.9697 8.59064 17.9697 11.8906C17.9697 15.1906 15.2969 17.8606 12 17.8606C8.70264 17.8606 6.02979 15.1906 6.02979 11.8906C6.02979 8.59064 8.70264 5.92065 12 5.92065ZM16.4697 11.8906C16.4697 9.42062 14.4683 7.42065 12 7.42065C9.53125 7.42065 7.52979 9.42062 7.52979 11.8906C7.52979 14.3606 9.53125 16.3606 12 16.3606C14.4683 16.3606 16.4697 14.3606 16.4697 11.8906Z" fill="#000000" />
<path fill-rule="evenodd" clip-rule="evenodd" d="M3.74023 3.79065C4.72461 2.73065 6.12646 2.14062 7.78223 2.14062H16.2168C17.876 2.14062 19.2788 2.73065 20.2627 3.79065C21.2412 4.84064 21.75 6.29065 21.75 7.92065V15.8606C21.75 17.4906 21.2412 18.9406 20.2627 19.9906C19.2783 21.0506 17.8755 21.6406 16.2158 21.6406H7.78223C6.12305 21.6406 4.72021 21.0506 3.73682 19.9906C2.7583 18.9406 2.25 17.4906 2.25 15.8606V7.92065C2.25 6.29065 2.76123 4.84064 3.74023 3.79065ZM4.8374 4.81067C4.16016 5.54068 3.75 6.60065 3.75 7.92065V15.8606C3.75 17.1806 4.15869 18.2406 4.83447 18.9706C5.50488 19.6906 6.49365 20.1406 7.78223 20.1406H16.2158C17.5054 20.1406 18.4941 19.6906 19.165 18.9706C19.8413 18.2406 20.25 17.1806 20.25 15.8606V7.92065C20.25 6.60065 19.8413 5.54068 19.165 4.81067C18.4946 4.09067 17.5059 3.64062 16.2168 3.64062H7.78223C6.49805 3.64062 5.50928 4.09067 4.8374 4.81067Z" fill="#000000" />
</svg>