<svg width="24px"  height="24px"  viewBox="0 0 24 25" fill="none" xmlns="http://www.w3.org/2000/svg">
<path fill-rule="evenodd" clip-rule="evenodd" d="M9.52148 11.6136L9.52148 13.5181C9.52148 14.8866 10.6309 15.9961 11.9995 15.9961C13.3681 15.9961 14.4775 14.8866 14.4775 13.5181L14.4775 11.6136L9.52148 11.6136ZM8.02148 13.5181L8.02148 11.5034C8.02148 10.7358 8.64373 10.1136 9.41131 10.1136L14.5877 10.1136C15.3553 10.1136 15.9775 10.7358 15.9775 11.5034L15.9775 13.5181C15.9775 15.7151 14.1965 17.4961 11.9995 17.4961C9.80251 17.4961 8.02148 15.7151 8.02148 13.5181Z" fill="#000000" />
<path fill-rule="evenodd" clip-rule="evenodd" d="M10.3164 11.6133C9.90219 11.6133 9.56641 11.2775 9.56641 10.8633L9.56641 8.86328C9.56641 8.44907 9.90219 8.11328 10.3164 8.11328C10.7306 8.11328 11.0664 8.44907 11.0664 8.86328L11.0664 10.8633C11.0664 11.2775 10.7306 11.6133 10.3164 11.6133ZM13.6839 11.6133C13.2697 11.6133 12.9339 11.2775 12.9339 10.8633L12.9339 8.86328C12.9339 8.44907 13.2697 8.11328 13.6839 8.11328C14.0981 8.11328 14.4339 8.44907 14.4339 8.86328L14.4339 10.8633C14.4339 11.2775 14.0981 11.6133 13.6839 11.6133Z" fill="#000000" />
<path fill-rule="evenodd" clip-rule="evenodd" d="M3.7402 4.39737C4.72468 3.34117 6.12669 2.75 7.78216 2.75H16.2169C17.8762 2.75 19.2788 3.34084 20.2629 4.39765C21.2413 5.44841 21.75 6.89889 21.75 8.52638V16.4736C21.75 18.1011 21.2413 19.5516 20.2627 20.6024C19.2785 21.6592 17.8756 22.25 16.2159 22.25H13.5C12.2574 22.25 11.25 21.2426 11.25 20V16.7516C11.25 16.3374 11.5858 16.0016 12 16.0016C12.4142 16.0016 12.75 16.3374 12.75 16.7516V20C12.75 20.4142 13.0858 20.75 13.5 20.75H16.2159C17.5052 20.75 18.4944 20.3002 19.165 19.5801C19.8412 18.854 20.25 17.7913 20.25 16.4736V8.52638C20.25 7.20868 19.8412 6.14597 19.1651 5.41984C18.4946 4.69975 17.5056 4.25 16.2169 4.25H7.78216C6.49828 4.25 5.50921 4.69943 4.83745 5.42012C4.16024 6.14666 3.75 7.20951 3.75 8.52638V16.4736C3.75 17.7914 4.15861 18.8541 4.83451 19.5802C5.50475 20.3003 6.49341 20.75 7.78216 20.75C8.19638 20.75 8.53216 21.0858 8.53216 21.5C8.53216 21.9142 8.19638 22.25 7.78216 22.25C6.1228 22.25 4.72038 21.6591 3.73657 20.6023C2.75842 19.5515 2.25 18.101 2.25 16.4736V8.52638C2.25 6.89806 2.76117 5.44771 3.7402 4.39737Z" fill="#000000" />
</svg>