<svg width="24px"  height="24px"  viewBox="0 0 24 25" fill="none" xmlns="http://www.w3.org/2000/svg">
<path fill-rule="evenodd" clip-rule="evenodd" d="M9.52148 11.6136L9.52148 13.5181C9.52148 14.8866 10.6309 15.9961 11.9995 15.9961C13.3681 15.9961 14.4775 14.8866 14.4775 13.5181L14.4775 11.6136L9.52148 11.6136ZM8.02148 13.5181L8.02148 11.5034C8.02148 10.7358 8.64373 10.1136 9.41131 10.1136L14.5877 10.1136C15.3553 10.1136 15.9775 10.7358 15.9775 11.5034L15.9775 13.5181C15.9775 15.7151 14.1965 17.4961 11.9995 17.4961C9.80251 17.4961 8.02148 15.7151 8.02148 13.5181Z" fill="#000000" />
<path fill-rule="evenodd" clip-rule="evenodd" d="M12 4.25C7.44365 4.25 3.75 7.94365 3.75 12.5C3.75 15.3079 5.15207 17.7884 7.2977 19.2797C7.63783 19.5161 7.72193 19.9834 7.48553 20.3236C7.24914 20.6637 6.78177 20.7478 6.44164 20.5114C3.9099 18.7518 2.25 15.8198 2.25 12.5C2.25 7.11522 6.61522 2.75 12 2.75C17.3848 2.75 21.75 7.11522 21.75 12.5C21.75 17.3342 18.2325 21.3454 13.6173 22.1164C12.2581 22.3434 11.25 21.2017 11.25 20V16.7516C11.25 16.3374 11.5858 16.0016 12 16.0016C12.4142 16.0016 12.75 16.3374 12.75 16.7516V20C12.75 20.4551 13.0951 20.6828 13.3702 20.6369C17.2743 19.9847 20.25 16.5891 20.25 12.5C20.25 7.94365 16.5563 4.25 12 4.25Z" fill="#000000" />
<path fill-rule="evenodd" clip-rule="evenodd" d="M10.3164 11.6133C9.90219 11.6133 9.56641 11.2775 9.56641 10.8633L9.56641 8.78027C9.56641 8.36606 9.90219 8.03027 10.3164 8.03027C10.7306 8.03027 11.0664 8.36606 11.0664 8.78027L11.0664 10.8633C11.0664 11.2775 10.7306 11.6133 10.3164 11.6133ZM13.6839 11.6133C13.2697 11.6133 12.9339 11.2775 12.9339 10.8633L12.9339 8.78027C12.9339 8.36606 13.2697 8.03027 13.6839 8.03027C14.0981 8.03027 14.4339 8.36606 14.4339 8.78027L14.4339 10.8633C14.4339 11.2775 14.0981 11.6133 13.6839 11.6133Z" fill="#000000" />
</svg>