<svg width="24px"  height="24px"  viewBox="0 0 24 25" fill="none" xmlns="http://www.w3.org/2000/svg">
<path fill-rule="evenodd" clip-rule="evenodd" d="M12.0069 2.39844C12.4211 2.39844 12.7569 2.73422 12.7569 3.14844V3.18038C12.7569 3.59459 12.4211 3.93038 12.0069 3.93038C11.5927 3.93038 11.2569 3.59459 11.2569 3.18038V3.14844C11.2569 2.73422 11.5927 2.39844 12.0069 2.39844ZM18.9076 5.2298C19.2005 5.52269 19.2005 5.99757 18.9076 6.29046L18.8621 6.33596C18.5693 6.62885 18.0944 6.62885 17.8015 6.33596C17.5086 6.04307 17.5086 5.56819 17.8015 5.2753L17.847 5.2298C18.1399 4.93691 18.6147 4.93691 18.9076 5.2298ZM5.13245 5.2561C5.42535 4.96321 5.90022 4.96321 6.19311 5.25611L6.21247 5.27547C6.50536 5.56836 6.50536 6.04324 6.21247 6.33613C5.91957 6.62902 5.4447 6.62902 5.15181 6.33612L5.13245 6.31676C4.83956 6.02387 4.83956 5.54899 5.13245 5.2561ZM2.25 12.1433C2.25 11.7291 2.58579 11.3933 3 11.3933H3.04937C3.46358 11.3933 3.79937 11.7291 3.79937 12.1433C3.79937 12.5575 3.46358 12.8933 3.04937 12.8933H3C2.58579 12.8933 2.25 12.5575 2.25 12.1433ZM20.2074 12.1433C20.2074 11.7291 20.5432 11.3933 20.9574 11.3933H21C21.4142 11.3933 21.75 11.7291 21.75 12.1433C21.75 12.5575 21.4142 12.8933 21 12.8933H20.9574C20.5432 12.8933 20.2074 12.5575 20.2074 12.1433ZM6.21247 17.9382C6.50536 18.2311 6.50536 18.706 6.21247 18.9989L6.19311 19.0182C5.90022 19.3111 5.42534 19.3111 5.13245 19.0182C4.83956 18.7253 4.83956 18.2505 5.13245 17.9576L5.15181 17.9382C5.4447 17.6453 5.91958 17.6453 6.21247 17.9382ZM17.8015 17.9384C18.0944 17.6455 18.5693 17.6455 18.8621 17.9384L18.9076 17.9839C19.2005 18.2768 19.2005 18.7516 18.9076 19.0445C18.6147 19.3374 18.1399 19.3374 17.847 19.0445L17.8015 18.999C17.5086 18.7061 17.5086 18.2313 17.8015 17.9384ZM12.0069 20.344C12.4211 20.344 12.7569 20.6797 12.7569 21.094V21.1259C12.7569 21.5401 12.4211 21.8759 12.0069 21.8759C11.5927 21.8759 11.2569 21.5401 11.2569 21.1259V21.094C11.2569 20.6797 11.5927 20.344 12.0069 20.344Z" fill="#000000" />
<path fill-rule="evenodd" clip-rule="evenodd" d="M12.0006 6.88672C9.1007 6.88672 6.75 9.23761 6.75 12.1361C6.75 15.0359 9.1008 17.3867 12.0006 17.3867C14.9002 17.3867 17.25 15.0361 17.25 12.1361C17.25 9.23742 14.9003 6.88672 12.0006 6.88672ZM5.25 12.1361C5.25 8.40899 8.27247 5.38672 12.0006 5.38672C15.7289 5.38672 18.75 8.40919 18.75 12.1361C18.75 15.8642 15.729 18.8867 12.0006 18.8867C8.27237 18.8867 5.25 15.8643 5.25 12.1361Z" fill="#000000" />
<path fill-rule="evenodd" clip-rule="evenodd" d="M12.4164 8.50667C12.7644 8.73141 12.8642 9.19566 12.6395 9.5436L11.4485 11.3875H13.9284C14.2032 11.3875 14.4559 11.5378 14.5872 11.7791C14.7185 12.0204 14.7074 12.3142 14.5581 12.5449L12.6179 15.5441C12.3929 15.8918 11.9286 15.9914 11.5808 15.7664C11.233 15.5414 11.1335 15.0771 11.3585 14.7293L12.55 12.8875H10.0713C9.79665 12.8875 9.54397 12.7374 9.41262 12.4962C9.28127 12.255 9.29227 11.9613 9.44127 11.7306L11.3795 8.72977C11.6042 8.38182 12.0685 8.28194 12.4164 8.50667Z" fill="#000000" />
</svg>