<svg width="24px"  height="24px"  viewBox="0 0 25 25" fill="none" xmlns="http://www.w3.org/2000/svg">
<path fill-rule="evenodd" clip-rule="evenodd" d="M10.8191 15.8587L10.8191 16.9242C10.8191 18.0275 11.7135 18.9219 12.8168 18.9219C13.9201 18.9219 14.8145 18.0275 14.8145 16.9242L14.8145 15.8587L10.8191 15.8587ZM9.31909 16.9242L9.31909 15.6533C9.31909 14.9383 9.89872 14.3587 10.6137 14.3587L15.0199 14.3587C15.7349 14.3587 16.3145 14.9383 16.3145 15.6533L16.3145 16.9242C16.3145 18.8559 14.7485 20.4219 12.8168 20.4219C10.8851 20.4219 9.31909 18.8559 9.31909 16.9242Z" fill="#000000" />
<path fill-rule="evenodd" clip-rule="evenodd" d="M12.8164 18.9219C13.2306 18.9219 13.5664 19.2577 13.5664 19.6719V21.4984C13.5664 21.9126 13.2306 22.2484 12.8164 22.2484C12.4022 22.2484 12.0664 21.9126 12.0664 21.4984V19.6719C12.0664 19.2577 12.4022 18.9219 12.8164 18.9219Z" fill="#000000" />
<path fill-rule="evenodd" clip-rule="evenodd" d="M12.8164 2.74976C13.2306 2.74976 13.5664 3.08554 13.5664 3.49976V5.32631C13.5664 5.74053 13.2306 6.07631 12.8164 6.07631C12.4022 6.07631 12.0664 5.74053 12.0664 5.32631V3.49976C12.0664 3.08554 12.4022 2.74976 12.8164 2.74976Z" fill="#000000" />
<path fill-rule="evenodd" clip-rule="evenodd" d="M11.3835 15.8594C10.9693 15.8594 10.6335 15.5236 10.6335 15.1094L10.6335 12.9814C10.6335 12.5672 10.9693 12.2314 11.3835 12.2314C11.7978 12.2314 12.1335 12.5672 12.1335 12.9814L12.1335 15.1094C12.1335 15.5236 11.7978 15.8594 11.3835 15.8594ZM14.25 15.8594C13.8357 15.8594 13.5 15.5236 13.5 15.1094L13.5 12.9814C13.5 12.5672 13.8357 12.2314 14.25 12.2314C14.6642 12.2314 15 12.5672 15 12.9814L15 15.1094C15 15.5236 14.6642 15.8594 14.25 15.8594Z" fill="#000000" />
<path fill-rule="evenodd" clip-rule="evenodd" d="M7.31935 5.02712C10.3555 1.99096 15.2781 1.99096 18.3143 5.02712C21.3504 8.06327 21.3504 12.9859 18.3143 16.022C18.0214 16.3149 17.5465 16.3149 17.2536 16.022C16.9607 15.7291 16.9607 15.2543 17.2536 14.9614C19.704 12.511 19.704 8.53814 17.2536 6.08778C14.8032 3.63741 10.8304 3.63741 8.38001 6.08778C5.92964 8.53814 5.92964 12.511 8.38001 14.9614C8.67291 15.2543 8.67291 15.7291 8.38001 16.022C8.08712 16.3149 7.61225 16.3149 7.31935 16.022C4.2832 12.9859 4.2832 8.06327 7.31935 5.02712Z" fill="#000000" />
<path fill-rule="evenodd" clip-rule="evenodd" d="M11.3359 10.5312C11.7502 10.5312 12.0859 10.1955 12.0859 9.78125V9.77587C12.0859 9.36165 11.7502 9.02587 11.3359 9.02587C10.9217 9.02587 10.5859 9.36165 10.5859 9.77587V9.78125C10.5859 10.1955 10.9217 10.5312 11.3359 10.5312ZM14.2961 10.5312C14.7103 10.5312 15.0461 10.1955 15.0461 9.78125V9.77587C15.0461 9.36165 14.7103 9.02587 14.2961 9.02587C13.8818 9.02587 13.5461 9.36165 13.5461 9.77587V9.78125C13.5461 10.1955 13.8818 10.5312 14.2961 10.5312Z" fill="#000000" />
</svg>