<svg width="24px"  height="24px"  viewBox="0 0 24 25" fill="none" xmlns="http://www.w3.org/2000/svg">
<path fill-rule="evenodd" clip-rule="evenodd" d="M17.8336 6.30309C14.6118 3.08126 9.38819 3.08126 6.16637 6.30309C2.94454 9.52491 2.94454 14.7485 6.16637 17.9704C9.38819 21.1922 14.6118 21.1922 17.8336 17.9704C21.0555 14.7485 21.0555 9.52491 17.8336 6.30309ZM5.10571 5.24243C8.91332 1.43482 15.0867 1.43482 18.8943 5.24243C22.7019 9.05004 22.7019 15.2234 18.8943 19.031C15.0867 22.8386 8.91332 22.8386 5.10571 19.031C1.2981 15.2234 1.2981 9.05004 5.10571 5.24243Z" fill="#000000" />
<path fill-rule="evenodd" clip-rule="evenodd" d="M9.52148 11.2503L9.52148 13.1548C9.52148 14.5234 10.6309 15.6328 11.9995 15.6328C13.3681 15.6328 14.4775 14.5234 14.4775 13.1548L14.4775 11.2503L9.52148 11.2503ZM8.02148 13.1548L8.02148 11.1401C8.02148 10.3725 8.64373 9.75028 9.41131 9.75028L14.5877 9.75028C15.3553 9.75028 15.9775 10.3725 15.9775 11.1401L15.9775 13.1548C15.9775 15.3518 14.1965 17.1328 11.9995 17.1328C9.80251 17.1328 8.02148 15.3518 8.02148 13.1548Z" fill="#000000" />
<path fill-rule="evenodd" clip-rule="evenodd" d="M12 21.8867C11.5858 21.8867 11.25 21.5509 11.25 21.1367L11.25 16.3883C11.25 15.9741 11.5858 15.6383 12 15.6383C12.4142 15.6383 12.75 15.9741 12.75 16.3883L12.75 21.1367C12.75 21.5509 12.4142 21.8867 12 21.8867Z" fill="#000000" />
<path fill-rule="evenodd" clip-rule="evenodd" d="M10.3164 11.25C9.90219 11.25 9.56641 10.9142 9.56641 10.5L9.56641 8.65881C9.56641 8.2446 9.90219 7.90881 10.3164 7.90881C10.7306 7.90881 11.0664 8.2446 11.0664 8.65881L11.0664 10.5C11.0664 10.9142 10.7306 11.25 10.3164 11.25ZM13.6839 11.25C13.2697 11.25 12.9339 10.9142 12.9339 10.5L12.9339 8.65881C12.9339 8.2446 13.2697 7.90881 13.6839 7.90881C14.0981 7.90881 14.4339 8.2446 14.4339 8.65881L14.4339 10.5C14.4339 10.9142 14.0981 11.25 13.6839 11.25Z" fill="#000000" />
</svg>