<svg width="24px"  height="24px"  viewBox="0 0 25 25" fill="none" xmlns="http://www.w3.org/2000/svg">
<path d="M9.75391 11.8906C9.75391 11.4806 10.0898 11.1406 10.5039 11.1406H10.5771C10.9912 11.1406 11.3271 11.4806 11.3271 11.8906C11.3271 12.3006 10.9912 12.6406 10.5771 12.6406H10.5039C10.0898 12.6406 9.75391 12.3006 9.75391 11.8906Z" fill="#000000" />
<path d="M12.6001 11.8906C12.6001 11.4806 12.9355 11.1406 13.3501 11.1406H13.4229C13.8369 11.1406 14.1729 11.4806 14.1729 11.8906C14.1729 12.3006 13.8369 12.6406 13.4229 12.6406H13.3501C12.9355 12.6406 12.6001 12.3006 12.6001 11.8906Z" fill="#000000" />
<path fill-rule="evenodd" clip-rule="evenodd" d="M11.9995 5.97058C15.2695 5.97058 17.9199 8.62064 17.9199 11.8906C17.9199 15.1606 15.2695 17.8107 11.9995 17.8107C8.72998 17.8107 6.07812 15.1606 6.07812 11.8906C6.07812 8.62064 8.72998 5.97058 11.9995 5.97058ZM16.4199 11.8906C16.4199 9.45062 14.4409 7.47058 11.9995 7.47058C9.55811 7.47058 7.57812 9.45062 7.57812 11.8906C7.57812 14.3306 9.55811 16.3107 11.9995 16.3107C14.4409 16.3107 16.4199 14.3306 16.4199 11.8906Z" fill="#000000" />
<path fill-rule="evenodd" clip-rule="evenodd" d="M3.74023 3.79065C4.72461 2.73065 6.12646 2.14062 7.78223 2.14062H16.2168C17.876 2.14062 19.2788 2.73065 20.2627 3.79065C21.2412 4.84064 21.75 6.29065 21.75 7.92065V15.8606C21.75 17.4906 21.2412 18.9406 20.2627 19.9906C19.2788 21.0506 17.8755 21.6406 16.2158 21.6406H7.78223C6.12305 21.6406 4.72021 21.0506 3.73682 19.9906C2.7583 18.9406 2.25 17.4906 2.25 15.8606V7.92065C2.25 6.29065 2.76123 4.84064 3.74023 3.79065ZM4.8374 4.81067C4.16016 5.54068 3.75 6.60065 3.75 7.92065V15.8606C3.75 17.1806 4.15869 18.2406 4.83447 18.9706C5.50488 19.6906 6.49365 20.1406 7.78223 20.1406H16.2158C17.5054 20.1406 18.4946 19.6906 19.165 18.9706C19.8413 18.2406 20.25 17.1806 20.25 15.8606V7.92065C20.25 6.60065 19.8413 5.54068 19.165 4.81067C18.4946 4.09067 17.5059 3.64062 16.2168 3.64062H7.78223C6.49854 3.64062 5.50928 4.09067 4.8374 4.81067Z" fill="#000000" />
</svg>