<svg width="24px"  height="24px"  viewBox="0 0 24 25" fill="none" xmlns="http://www.w3.org/2000/svg">
<path d="M11.749 19.6761C10.089 19.6761 8.43897 19.1361 7.11897 18.0461C5.46897 16.6761 4.499 14.7561 4.399 12.6261C4.299 10.5261 5.09899 8.4661 6.57899 6.9861L9.15895 4.4061C9.57895 3.9861 10.149 3.74609 10.739 3.74609C11.339 3.74609 11.899 3.9761 12.319 4.4061L19.7189 11.8061C20.5889 12.6761 20.5889 14.1061 19.7189 14.9761L17.339 17.3561C15.799 18.8961 13.759 19.6861 11.739 19.6861L11.749 19.6761ZM10.739 5.24609C10.539 5.24609 10.3589 5.32609 10.2189 5.46609L7.63899 8.0461C6.44899 9.2361 5.819 10.8761 5.899 12.5561C5.979 14.2561 6.74899 15.7961 8.07899 16.8861C10.419 18.8161 14.0189 18.5561 16.2889 16.2861L18.669 13.9061C18.959 13.6161 18.959 13.1461 18.669 12.8561L11.269 5.4561C11.129 5.3161 10.939 5.2361 10.749 5.2361L10.739 5.24609Z" fill="#000000" />
<path d="M2.99899 21.8872C2.80899 21.8872 2.61896 21.8172 2.46896 21.6672C2.17896 21.3772 2.17896 20.8972 2.46896 20.6072L6.42899 16.6472C6.71899 16.3572 7.19898 16.3572 7.48898 16.6472C7.77898 16.9372 7.77898 17.4172 7.48898 17.7072L3.52902 21.6672C3.37902 21.8172 3.18899 21.8872 2.99899 21.8872Z" fill="#000000" />
<path d="M17.8888 11.7742C17.6988 11.7742 17.5088 11.7042 17.3588 11.5542C17.0688 11.2642 17.0688 10.7842 17.3588 10.4942L20.4688 7.38422C20.7588 7.09422 21.2388 7.09422 21.5288 7.38422C21.8188 7.67422 21.8188 8.15422 21.5288 8.44422L18.4188 11.5542C18.2688 11.7042 18.0788 11.7742 17.8888 11.7742ZM13.1088 6.99422C12.9188 6.99422 12.7288 6.92422 12.5788 6.77422C12.2888 6.48422 12.2888 6.00422 12.5788 5.71422L15.6888 2.60422C15.9788 2.31422 16.4588 2.31422 16.7488 2.60422C17.0388 2.89422 17.0388 3.37422 16.7488 3.66422L13.6388 6.77422C13.4888 6.92422 13.2988 6.99422 13.1088 6.99422Z" fill="#000000" />
<path d="M9.34886 15.4847C8.99886 15.4847 8.68888 15.2447 8.61888 14.8947C8.52888 14.4847 8.7889 14.0947 9.1989 14.0047L11.5289 13.5047L9.6389 11.6147C9.4489 11.4247 9.3689 11.1347 9.4489 10.8747C9.5289 10.6147 9.7389 10.4147 10.0089 10.3547L13.6789 9.56468C14.0889 9.47468 14.4789 9.73468 14.5689 10.1447C14.6589 10.5547 14.3989 10.9447 13.9889 11.0347L11.6589 11.5347L13.5589 13.4347C13.7489 13.6247 13.8289 13.9147 13.7489 14.1747C13.6689 14.4347 13.4589 14.6347 13.1889 14.6947L9.51891 15.4847C9.46891 15.4947 9.40887 15.5047 9.35887 15.5047L9.34886 15.4847Z" fill="#000000" />
</svg>