<svg width="24px"  height="24px"  viewBox="0 0 24 25" fill="none" xmlns="http://www.w3.org/2000/svg">
<path d="M12.0111 21.8867C11.9411 21.8867 11.8611 21.8767 11.7911 21.8567C11.4711 21.7567 3.93105 19.4067 3.93105 12.8067C3.93105 10.9767 3.91107 9.64672 3.89107 8.67672C3.85107 6.24672 3.84109 5.73672 4.47109 5.09672C5.22109 4.34672 10.9211 2.38672 12.0011 2.38672C13.1411 2.38672 18.7611 4.32672 19.5311 5.09672C20.1611 5.73672 20.151 6.24672 20.111 8.67672C20.091 9.64672 20.0711 10.9667 20.0711 12.8067C20.0711 19.3967 12.5311 21.7567 12.2111 21.8567C12.1411 21.8767 12.071 21.8867 11.991 21.8867H12.0111ZM12.0111 3.88672C11.2111 3.88672 6.12107 5.68672 5.52107 6.16672C5.36107 6.32672 5.35107 6.65672 5.39107 8.64672C5.41107 9.62672 5.43105 10.9567 5.43105 12.8067C5.43105 17.7167 10.8411 19.9267 12.0011 20.3467C13.1611 19.9267 18.5711 17.7167 18.5711 12.8067C18.5711 10.9667 18.591 9.63672 18.611 8.65672C18.651 6.66672 18.6411 6.33672 18.4611 6.15672C17.8911 5.68672 12.801 3.88672 11.991 3.88672H12.0111Z" fill="#000000" />
<path d="M11.9612 16.8878C11.8412 16.8878 11.7112 16.8678 11.5912 16.8278C11.1012 16.6678 10.7612 16.2078 10.7612 15.6978V13.8778H9.08123C8.63123 13.8778 8.22124 13.6278 8.02124 13.2278C7.82124 12.8278 7.85121 12.3478 8.12121 11.9878L11.1013 7.88781C11.4013 7.46781 11.9412 7.29781 12.4312 7.45781C12.9212 7.61781 13.2612 8.07781 13.2612 8.58781V10.4078H14.9412C15.3912 10.4078 15.8012 10.6578 16.0012 11.0578C16.2012 11.4578 16.1712 11.9378 15.9012 12.2978L12.9212 16.3978C12.6912 16.7078 12.3312 16.8878 11.9612 16.8878ZM9.69122 12.3778H11.5212C11.9312 12.3778 12.2712 12.7178 12.2712 13.1278V14.7478L14.3312 11.9078H12.5012C12.0912 11.9078 11.7512 11.5678 11.7512 11.1578V9.52781L9.69122 12.3678V12.3778Z" fill="#000000" />
</svg>