<svg width="24px"  height="24px"  viewBox="0 0 25 25" fill="none" xmlns="http://www.w3.org/2000/svg">
<path d="M12.8265 21.8867C12.7565 21.8867 12.6765 21.8767 12.6065 21.8567C12.2865 21.7567 4.74648 19.4067 4.74648 12.8067C4.74648 10.9667 4.7265 9.64672 4.7065 8.66672C4.6665 6.23672 4.65649 5.72672 5.28649 5.09672C6.03649 4.34672 11.7365 2.38672 12.8165 2.38672C13.9565 2.38672 19.5765 4.32672 20.3465 5.09672C20.9765 5.73672 20.9665 6.24672 20.9265 8.67672C20.9065 9.64672 20.8865 10.9767 20.8865 12.8067C20.8865 19.3967 13.3465 21.7567 13.0265 21.8567C12.9565 21.8767 12.8865 21.8867 12.8065 21.8867H12.8265ZM12.8265 3.88672C12.0265 3.88672 6.93648 5.68672 6.33648 6.16672C6.17648 6.32672 6.1665 6.65672 6.2065 8.63672C6.2265 9.61672 6.24648 10.9467 6.24648 12.7967C6.24648 17.7067 11.6565 19.9167 12.8165 20.3367C13.9765 19.9167 19.3865 17.7067 19.3865 12.7967C19.3865 10.9467 19.4065 9.61672 19.4265 8.63672C19.4665 6.65672 19.4565 6.31672 19.2765 6.14672C18.7065 5.67672 13.6065 3.87672 12.8065 3.87672L12.8265 3.88672Z" fill="#000000" />
<path d="M11.4662 17.2883C11.2962 17.2883 11.1362 17.2483 10.9762 17.1683C10.5462 16.9383 10.3462 16.4583 10.4662 15.9883L11.1362 13.4683H9.8262C9.4862 13.4683 9.1762 13.3083 8.9862 13.0283C8.7962 12.7483 8.74618 12.3983 8.86618 12.0883C8.86618 12.0883 8.86619 12.0683 8.87619 12.0583L10.6862 7.63828C10.8262 7.25828 11.2162 6.98828 11.6462 6.98828H14.0762C14.4062 6.98828 14.7262 7.14828 14.9162 7.41828C15.1062 7.68828 15.1562 8.03828 15.0462 8.35828L14.2362 10.2583H15.8162C16.2162 10.2583 16.5862 10.4983 16.7562 10.8583C16.9262 11.2283 16.8562 11.6583 16.5962 11.9683L12.2462 16.9283C12.0462 17.1583 11.7662 17.2783 11.4762 17.2783L11.4662 17.2883ZM10.5262 11.9783H11.7462C12.0662 11.9783 12.3662 12.1283 12.5662 12.3783C12.7662 12.6383 12.8262 12.9583 12.7462 13.2683L12.4362 14.4383L14.7762 11.7583H13.5162C13.1862 11.7583 12.8662 11.5983 12.6762 11.3183C12.4862 11.0483 12.4362 10.6983 12.5462 10.3783L13.3562 8.48828H11.9562L10.5262 11.9683V11.9783ZM12.0762 8.19828V8.22828C12.0762 8.22828 12.0762 8.20828 12.0762 8.19828Z" fill="#000000" />
</svg>