<svg width="24px"  height="24px"  viewBox="0 0 25 24" fill="none" xmlns="http://www.w3.org/2000/svg">
<path d="M11.1983 15.8101C11.1983 15.3901 11.5342 15.0601 11.9483 15.0601H11.9991C12.4132 15.0601 12.7491 15.3901 12.7491 15.8101C12.7491 16.2201 12.4132 16.5601 11.9991 16.5601H11.9483C11.5342 16.5601 11.1983 16.2201 11.1983 15.8101Z" fill="#000000" />
<path d="M9.5362 18.02C9.5362 17.6 9.87116 17.27 10.2862 17.27H10.336C10.7501 17.27 11.086 17.6 11.086 18.02C11.086 18.43 10.7501 18.77 10.336 18.77H10.2862C9.87116 18.77 9.5362 18.43 9.5362 18.02Z" fill="#000000" />
<path d="M14.5103 15.8101C14.5103 15.3901 14.8463 15.0601 15.2603 15.0601H15.3101C15.7252 15.0601 16.0601 15.3901 16.0601 15.8101C16.0601 16.2201 15.7252 16.5601 15.3101 16.5601H15.2603C14.8463 16.5601 14.5103 16.2201 14.5103 15.8101Z" fill="#000000" />
<path d="M11.1983 11.38C11.1983 10.97 11.5342 10.63 11.9483 10.63H11.9991C12.4132 10.63 12.7491 10.97 12.7491 11.38C12.7491 11.8 12.4132 12.13 11.9991 12.13H11.9483C11.5342 12.13 11.1983 11.8 11.1983 11.38Z" fill="#000000" />
<path d="M9.5362 13.59C9.5362 13.18 9.87116 12.84 10.2862 12.84H10.336C10.7501 12.84 11.086 13.18 11.086 13.59C11.086 14.01 10.7501 14.34 10.336 14.34H10.2862C9.87116 14.34 9.5362 14.01 9.5362 13.59Z" fill="#000000" />
<path d="M14.5103 11.38C14.5103 10.97 14.8463 10.63 15.2603 10.63H15.3101C15.7252 10.63 16.0601 10.97 16.0601 11.38C16.0601 11.8 15.7252 12.13 15.3101 12.13H15.2603C14.8463 12.13 14.5103 11.8 14.5103 11.38Z" fill="#000000" />
<path d="M9.5362 9.17004C9.5362 8.76004 9.87116 8.42004 10.2862 8.42004H10.336C10.7501 8.42004 11.086 8.76004 11.086 9.17004C11.086 9.58005 10.7501 9.92004 10.336 9.92004H10.2862C9.87116 9.92004 9.5362 9.58005 9.5362 9.17004Z" fill="#000000" />
<path d="M7.88825 15.8101C7.88825 15.3901 8.22419 15.0601 8.63825 15.0601H8.68903C9.1031 15.0601 9.43903 15.3901 9.43903 15.8101C9.43903 16.2201 9.1031 16.5601 8.68903 16.5601H8.63825C8.22419 16.5601 7.88825 16.2201 7.88825 15.8101Z" fill="#000000" />
<path d="M7.88825 11.38C7.88825 10.97 8.22419 10.63 8.63825 10.63H8.68903C9.1031 10.63 9.43903 10.97 9.43903 11.38C9.43903 11.8 9.1031 12.13 8.68903 12.13H8.63825C8.22419 12.13 7.88825 11.8 7.88825 11.38Z" fill="#000000" />
<path d="M12.856 18.02C12.856 17.6 13.1925 17.27 13.606 17.27H13.6734C14.0875 17.27 14.4234 17.6 14.4234 18.02C14.4234 18.43 14.0875 18.77 13.6734 18.77H13.606C13.1925 18.77 12.856 18.43 12.856 18.02Z" fill="#000000" />
<path d="M12.856 13.59C12.856 13.18 13.1925 12.84 13.606 12.84H13.6734C14.0875 12.84 14.4234 13.18 14.4234 13.59C14.4234 14.01 14.0875 14.34 13.6734 14.34H13.606C13.1925 14.34 12.856 14.01 12.856 13.59Z" fill="#000000" />
<path d="M12.856 9.17004C12.856 8.76004 13.1925 8.42004 13.606 8.42004H13.6734C14.0875 8.42004 14.4234 8.76004 14.4234 9.17004C14.4234 9.58005 14.0875 9.92004 13.6734 9.92004H13.606C13.1925 9.92004 12.856 9.58005 12.856 9.17004Z" fill="#000000" />
<path fill-rule="evenodd" clip-rule="evenodd" d="M7.81208 5.72311L7.9864 4.31995C8.15241 2.82994 9.42829 2 10.7633 2H13.2374C14.5714 2 15.8472 2.82994 16.0152 4.31995L16.1885 5.72311C17.543 5.92366 18.6241 7.01239 18.7794 8.41003L19.856 18.1C20.0582 19.91 18.6383 21.5 16.8131 21.5H7.18708C5.36237 21.5 3.94245 19.91 4.14411 18.1L5.22028 8.41003C5.37605 7.01239 6.4571 5.92365 7.81208 5.72311ZM9.47517 4.48999L9.47419 4.5L9.32673 5.68994H14.6729L14.5255 4.5L14.524 4.48999C14.46 3.91998 13.9874 3.5 13.2374 3.5H10.7633C10.0133 3.5 9.53913 3.91998 9.47517 4.48999ZM8.26423 7.18994C7.46735 7.18994 6.79939 7.78996 6.71101 8.57996L5.63532 18.27C5.5323 19.19 6.25642 20 7.18708 20H16.8131C17.7442 20 18.4683 19.19 18.3653 18.27L17.2882 8.57996C17.2012 7.78996 16.5333 7.18994 15.7364 7.18994H8.26423Z" fill="#000000" />
</svg>