<svg width="24px"  height="24px"  viewBox="0 0 25 24" fill="none" xmlns="http://www.w3.org/2000/svg">
<path fill-rule="evenodd" clip-rule="evenodd" d="M19.04 2.02271C19.4551 2.02271 19.791 2.36271 19.791 2.77271C19.792 3.42231 19.793 4.51173 19.793 5.8382C19.793 5.90705 19.793 5.97657 19.793 6.04667C19.7949 10.863 19.7949 18.5604 19.791 19.9426C19.791 20.3526 19.665 20.7927 19.3472 21.1127C19 21.4527 18.5103 21.5628 18.0352 21.4127C17.877 21.3627 17.7119 21.2527 17.5898 21.1627C17.4399 21.0628 17.2612 20.9127 17.064 20.7127C16.6689 20.3127 16.2002 19.7227 15.7622 18.8827C14.8823 17.2027 14.1411 14.5427 14.3369 10.4827L14.3379 10.4627C14.4199 9.40266 14.9028 8.65269 15.688 8.11268C15.7222 8.08506 15.9316 7.95069 16.2104 7.77186C16.436 7.62693 16.7075 7.45283 16.9702 7.28272C17.1504 7.16285 17.3301 7.04655 17.4941 6.94032L17.7979 6.74268L17.9297 6.65238C17.9854 6.61445 18.0337 6.58192 18.0723 6.55274C18.0967 6.53837 18.1152 6.52393 18.1289 6.51325L18.1333 6.51002C18.2251 6.39701 18.2822 6.25425 18.293 6.0315C18.293 5.97422 18.293 5.91737 18.293 5.86094C18.2915 5.82649 18.2896 5.79041 18.2861 5.75269C18.2808 5.69038 18.2832 5.62919 18.293 5.57014C18.293 4.36628 18.292 3.37937 18.291 2.77271C18.291 2.36271 18.626 2.02271 19.04 2.02271ZM18.2939 8.20799C18.1333 8.31327 17.96 8.42802 17.7871 8.54273C17.4849 8.73274 17.1821 8.93266 16.9482 9.08265C16.8462 9.14353 16.7578 9.20448 16.6885 9.25224L16.6592 9.27271C16.6221 9.29273 16.5923 9.31266 16.5713 9.32264C16.5449 9.34266 16.54 9.34266 16.54 9.34266C16.106 9.64268 15.8789 9.99265 15.834 10.5827C15.6528 14.4052 16.3579 16.7863 17.0908 18.1926C17.46 18.8926 17.8389 19.3627 18.126 19.6527C18.1855 19.7106 18.2412 19.7617 18.2915 19.8059C18.2944 18.3571 18.2949 12.7318 18.2939 8.20799Z" fill="#000000" />
<path d="M5.18896 2.00269C5.60303 2.02271 5.92529 2.37272 5.90918 2.78272L5.70508 7.97266C5.70508 7.98151 5.70508 7.99387 5.70508 8.00269C5.71924 9.37037 6.83301 10.4627 8.20312 10.4627C9.57422 10.4627 10.687 9.37037 10.7012 8.00269C10.7012 7.99387 10.7012 7.98151 10.7012 7.97266L10.498 2.78272C10.4819 2.37272 10.8042 2.02271 11.2183 2.00269C11.6318 1.9827 11.981 2.31266 11.9971 2.72266L12.2002 7.94264L12.2012 7.97266C12.2012 9.92606 10.8027 11.5435 8.95312 11.8928L8.9541 20.7527C8.9541 21.1627 8.61816 21.5027 8.2041 21.5027C7.79004 21.5027 7.4541 21.1627 7.4541 20.7527L7.45312 11.8927C5.604 11.5434 4.20508 9.92603 4.20508 7.97266C4.20508 7.96269 4.20508 7.95264 4.20605 7.94264L4.41016 2.72266C4.42627 2.31266 4.7749 1.9827 5.18896 2.00269Z" fill="#000000" />
<path d="M8.2041 8.29273C7.78906 8.29273 7.4541 7.95274 7.4541 7.54273V2.75269C7.4541 2.34269 7.78906 2.00269 8.2041 2.00269C8.61816 2.00269 8.9541 2.34269 8.9541 2.75269V7.54273C8.9541 7.95274 8.61816 8.29273 8.2041 8.29273Z" fill="#000000" />
</svg>