<svg width="24px"  height="24px"  viewBox="0 0 25 24" fill="none" xmlns="http://www.w3.org/2000/svg">
<path fill-rule="evenodd" clip-rule="evenodd" d="M2.79959 10.35C2.40059 10.24 2.16659 9.83005 2.27759 9.43005L3.46959 5.14001C3.62808 4.57043 4.08368 4.14392 4.64062 4.0124C4.6838 3.99774 4.72889 3.9868 4.77559 3.97998C4.81223 3.97551 4.84861 3.97376 4.88454 3.97457C4.92456 3.97152 4.96494 3.96997 5.0056 3.96997H18.9956C19.0281 3.96997 19.0605 3.97096 19.0927 3.97292C19.1393 3.97073 19.1868 3.97296 19.2346 3.97998C19.278 3.9874 19.3201 3.99831 19.3604 4.01236C19.9174 4.14384 20.3731 4.57038 20.5316 5.14001L21.7236 9.43005C21.8346 9.83005 21.6006 10.24 21.2016 10.35C20.8026 10.46 20.3886 10.23 20.2776 9.82996L19.5235 7.11599L17.9236 17.76C17.8476 18.26 17.6046 18.68 17.2636 19C17.2606 19 17.2566 19 17.2526 19.01C16.8806 19.33 16.3976 19.53 15.8686 19.53H7.9386C7.42222 19.53 6.94148 19.332 6.5801 19.0149L6.57559 19.02C6.21159 18.7 5.9576 18.25 5.8826 17.74L5.88159 17.73L4.45407 7.20103L3.7236 9.82996C3.6126 10.23 3.19859 10.46 2.79959 10.35ZM6.05609 7.8513L7.30518 17.0694L11.3422 12.5898L9.8531 10.64H9.01959C8.32759 10.64 7.67459 10.3 7.29159 9.71997L7.29298 9.71905L6.05609 7.8513ZM8.54359 8.89001H8.5446C8.6456 9.05001 8.82359 9.14001 9.01959 9.14001H14.9796C15.1746 9.14001 15.3536 9.05001 15.4546 8.89001H15.4556L17.7205 5.46997H6.27872L8.54359 8.89001ZM17.8824 7.94299L16.7059 9.71951C16.3229 10.2995 15.6716 10.64 14.9796 10.64H11.7401L16.5342 16.9171L17.8824 7.94299ZM15.4971 18.03L12.2667 13.8002L8.45548 18.03H15.4971Z" fill="#000000" />
</svg>