<svg width="24px"  height="24px"  viewBox="0 0 25 24" fill="none" xmlns="http://www.w3.org/2000/svg">
<path d="M10.5321 2.00272C10.9452 1.98273 11.2963 2.30271 11.3139 2.72269C11.3803 4.2027 11.453 5.69278 11.5131 7.18277C11.559 8.35279 11.1493 9.40268 10.247 10.2027C9.49794 10.8627 9.28408 11.6728 9.40126 12.7827C9.46083 13.3507 9.5165 13.8644 9.56923 14.3507C9.73378 15.868 9.86904 17.118 9.99697 18.9128C10.098 20.3427 8.85097 21.4427 7.60195 21.4427C6.35292 21.4427 5.10732 20.3427 5.2079 18.9128C5.33486 17.1184 5.47109 15.8687 5.63613 14.3519C5.68886 13.8653 5.74452 13.3511 5.8041 12.7827C5.92031 11.6728 5.7079 10.8627 4.95693 10.2027C4.05702 9.40268 3.64492 8.35279 3.69326 7.18277C3.73329 6.14752 3.78066 5.11222 3.82802 4.08029L3.89003 2.72269C3.90908 2.30271 4.25917 1.98273 4.67324 2.00272C5.0873 2.02271 5.40712 2.37274 5.38906 2.78275L5.32949 4.0864C5.28115 5.13822 5.23281 6.18796 5.1913 7.24271C5.16103 7.99271 5.40908 8.60266 5.95107 9.08267C7.17324 10.1627 7.44521 11.5127 7.29531 12.9427C7.04824 15.3027 6.87001 16.6727 6.704 19.0227C6.67128 19.4827 7.1249 19.9427 7.60195 19.9427C8.079 19.9427 8.5331 19.4827 8.4999 19.0227C8.37294 17.2289 8.24013 16.006 8.07411 14.478C8.02236 14.0042 7.96767 13.5012 7.90908 12.9427C7.75917 11.5027 8.03212 10.1627 9.25429 9.08267C9.79628 8.60266 10.0443 7.99271 10.0141 7.24271C9.98085 6.40586 9.94326 5.57218 9.90517 4.7381C9.87538 4.08713 9.84511 3.43589 9.8163 2.78275C9.79726 2.37274 10.1181 2.02271 10.5321 2.00272Z" fill="#000000" />
<path d="M7.59511 7.10269C7.18105 7.10269 6.84609 6.77271 6.84706 6.35269L6.85732 2.83267C6.85829 2.41269 7.19521 2.08267 7.60927 2.08267C8.02333 2.08267 8.35829 2.42267 8.35732 2.83267L8.34706 6.3627C8.34609 6.77271 8.00917 7.1127 7.59511 7.10269Z" fill="#000000" />
<path fill-rule="evenodd" clip-rule="evenodd" d="M14.1342 12.4527C14.4472 12.1127 14.6151 11.6827 14.601 11.2627C14.5614 10.1163 14.4413 8.80585 14.3143 7.4187C14.2284 6.4827 14.1391 5.51178 14.0692 4.53275C13.9682 3.10276 15.2143 2.00272 16.4643 2.00272C17.7133 2.00272 18.9589 3.10276 18.8583 4.53275C18.789 5.49848 18.7006 6.45941 18.6151 7.38764C18.4867 8.7854 18.3651 10.1089 18.3261 11.2627C18.3119 11.6827 18.4799 12.1127 18.7929 12.4627L19.4579 13.1927C20.0043 13.8027 20.3202 14.5928 20.3109 15.4228C20.3021 16.2528 20.1459 17.6927 19.64 18.9427C19.1449 20.1727 18.1879 21.5027 16.4643 21.5027C14.7401 21.5027 13.7821 20.1727 13.287 18.9427C12.7811 17.6927 12.6239 16.2528 12.6161 15.4228C12.6083 14.5928 12.9242 13.8027 13.4682 13.1927L14.1342 12.4527ZM16.1 11.2127C16.1293 12.0727 15.7851 12.8627 15.2479 13.4627L14.5829 14.2027C14.2792 14.5427 14.1122 14.9728 14.1161 15.4128C14.1229 16.1227 14.2641 17.3527 14.6781 18.3827C15.1029 19.4327 15.6859 20.0027 16.4643 20.0027C17.2411 20.0027 17.8251 19.4327 18.2489 18.3827C18.663 17.3527 18.8041 16.1227 18.8109 15.4128C18.8163 14.9728 18.6493 14.5427 18.3441 14.2027L17.6781 13.4627C17.143 12.8627 16.7982 12.0727 16.8261 11.2127C16.8666 10.0355 16.995 8.63385 17.1264 7.19968C17.2113 6.27027 17.2977 5.32718 17.3622 4.42276C17.3881 3.95624 16.9379 3.50272 16.4643 3.50272C15.9896 3.50272 15.5399 3.95624 15.5663 4.42276C15.6308 5.33683 15.7177 6.29038 15.8036 7.2294C15.9335 8.6532 16.0604 10.0437 16.1 11.2127Z" fill="#000000" />
</svg>