<svg width="24" height="24" viewBox="0 0 24 24" fill="none" xmlns="http://www.w3.org/2000/svg">
<path d="M21 12C21 7.02908 16.9709 3 12 3C7.02908 3 3 7.02908 3 12C3 16.6039 6.4574 20.4012 10.9181 20.9356" stroke="black" stroke-width="1.5" stroke-linecap="round" stroke-linejoin="round"/>
<path d="M9.1543 14.5843L12.3291 12.6861V8.58789" stroke="black" stroke-width="1.5" stroke-linecap="round" stroke-linejoin="round"/>
<path fill-rule="evenodd" clip-rule="evenodd" d="M18.7796 14.7417C18.7796 15.7772 17.9401 16.6163 16.9051 16.6163C15.8696 16.6163 15.03 15.7772 15.03 14.7417C15.03 13.7062 15.8696 12.8672 16.9051 12.8672C17.9401 12.8672 18.7796 13.7062 18.7796 14.7417Z" stroke="black" stroke-width="1.5" stroke-linecap="round" stroke-linejoin="round"/>
<path d="M16.9045 18.5657C15.1027 18.5657 14.274 19.5014 14.046 20.4425C14.0023 20.6227 14.0762 20.8092 14.2148 20.9087L19.6036 20.9258C19.7431 20.8274 19.8184 20.6414 19.7762 20.4604C19.5538 19.5082 18.7279 18.5657 16.9045 18.5657Z" stroke="black" stroke-width="1.5" stroke-linecap="round" stroke-linejoin="round"/>
</svg>
