<svg width="24" height="24" viewBox="0 0 24 24" fill="none" xmlns="http://www.w3.org/2000/svg">
<path d="M6.22021 20.2117L6.22021 18.2089" stroke="black" stroke-width="1.5" stroke-linecap="round" stroke-linejoin="round"/>
<path d="M17.8306 20.2117L17.8306 18.2089" stroke="black" stroke-width="1.5" stroke-linecap="round" stroke-linejoin="round"/>
<path fill-rule="evenodd" clip-rule="evenodd" d="M17.5366 5.96777H6.46965C4.33345 5.96777 3 7.15735 3 9.34386V14.7706C3 16.9917 4.33345 18.2088 6.46965 18.2088H17.5303C19.6728 18.2088 21 17.013 21 14.8257V9.34386C21.0063 7.15735 19.6791 5.96777 17.5366 5.96777Z" stroke="black" stroke-width="1.5" stroke-linecap="round" stroke-linejoin="round"/>
<path d="M13.2099 13.1059L8.83765 10.5815" stroke="black" stroke-width="1.5" stroke-linecap="round" stroke-linejoin="round"/>
<path d="M11.2747 13.6281L14.144 8.41345" stroke="black" stroke-width="1.5" stroke-linecap="round" stroke-linejoin="round"/>
<path d="M6.57861 5.90509L7.0005 4.46185C7.12514 4.03548 7.51611 3.74243 7.96033 3.74243H9.45275C9.89698 3.74243 10.2879 4.03548 10.4126 4.46185L10.8345 5.90509" stroke="black" stroke-width="1.5" stroke-linecap="round" stroke-linejoin="round"/>
</svg>
