<svg width="24" height="24" viewBox="0 0 24 24" fill="none" xmlns="http://www.w3.org/2000/svg">
<path d="M5.48833 6.09424C5.13226 6.51791 4.81808 6.96252 4.54674 7.4357" stroke="black" stroke-width="1.5" stroke-linecap="round" stroke-linejoin="round"/>
<path d="M4.67689 16.3944C4.36652 15.886 4.09518 15.3329 3.89334 14.7483" stroke="black" stroke-width="1.5" stroke-linecap="round" stroke-linejoin="round"/>
<path d="M10.4214 20.4351L10.4309 20.4342C11.0688 20.5713 11.7295 20.6284 12.395 20.6103" stroke="black" stroke-width="1.5" stroke-linecap="round" stroke-linejoin="round"/>
<path d="M9.25498 3.50821C8.67898 3.70814 8.12393 3.97091 7.60791 4.29176" stroke="black" stroke-width="1.5" stroke-linecap="round" stroke-linejoin="round"/>
<path d="M16.7784 19.3252C16.2605 19.6375 15.7073 19.9088 15.1313 20.1088" stroke="black" stroke-width="1.5" stroke-linecap="round" stroke-linejoin="round"/>
<path d="M11.9907 3.00352C12.6562 2.98448 13.317 3.04256 13.9548 3.18061C14.8745 3.36055 15.7561 3.69758 16.5578 4.16314C17.0405 4.43257 17.4946 4.74485 17.9088 5.10283C18.6114 5.69882 19.2226 6.40716 19.7101 7.2126C20.0309 7.72862 20.2927 8.28368 20.4946 8.8692C20.6498 9.30239 20.7697 9.75081 20.8554 10.2164C20.9401 10.681 20.9877 11.1437 20.9963 11.6035C21.0173 12.2785 20.9563 12.9212 20.8183 13.5591L20.8202 13.5686C20.6402 14.4873 20.3013 15.3604 19.8357 16.162C19.5749 16.6438 19.254 17.0979 18.8961 17.513" stroke="black" stroke-width="1.5" stroke-linecap="round" stroke-linejoin="round"/>
<path d="M7.82589 19.4429C7.35366 19.1811 6.90048 18.8679 6.48633 18.5109" stroke="black" stroke-width="1.5" stroke-linecap="round" stroke-linejoin="round"/>
<path d="M3.56554 10.0364C3.42844 10.6743 3.37037 11.335 3.39036 12.01" stroke="black" stroke-width="1.5" stroke-linecap="round" stroke-linejoin="round"/>
<path d="M15.3116 13.9805L12 12.0015V7.72681" stroke="black" stroke-width="1.5" stroke-linecap="round" stroke-linejoin="round"/>
</svg>
