<svg width="24" height="24" viewBox="0 0 24 24" fill="none" xmlns="http://www.w3.org/2000/svg">
<path d="M14.8154 17.6851L18.0255 14.4751" stroke="black" stroke-width="1.5" stroke-linecap="round" stroke-linejoin="round"/>
<path d="M17.9464 17.6344V17.666M18.0742 17.6412C18.0742 17.7122 18.0166 17.7697 17.9456 17.7697C17.8746 17.7697 17.8171 17.7122 17.8171 17.6412C17.8171 17.5702 17.8746 17.5127 17.9456 17.5127C18.0166 17.5127 18.0742 17.5702 18.0742 17.6412Z" stroke="black" stroke-width="1.5" stroke-linecap="round" stroke-linejoin="round"/>
<path d="M14.8231 14.5114V14.5429M14.9509 14.5182C14.9509 14.5891 14.8933 14.6467 14.8223 14.6467C14.7514 14.6467 14.6938 14.5891 14.6938 14.5182C14.6938 14.4472 14.7514 14.3896 14.8223 14.3896C14.8933 14.3896 14.9509 14.4472 14.9509 14.5182Z" stroke="black" stroke-width="1.5" stroke-linecap="round" stroke-linejoin="round"/>
<circle cx="16.3839" cy="16.0797" r="4.65387" stroke="black" stroke-width="1.5" stroke-linecap="round" stroke-linejoin="round"/>
<path d="M17.4903 8.54494C16.7768 5.24519 13.8413 2.77319 10.3279 2.77319C6.28053 2.77319 3 6.05372 3 10.1011C3 13.6678 5.54855 16.6399 8.92445 17.2948" stroke="black" stroke-width="1.5" stroke-linecap="round" stroke-linejoin="round"/>
<path d="M8.01074 12.2054L10.5957 10.6598V7.323" stroke="black" stroke-width="1.5" stroke-linecap="round" stroke-linejoin="round"/>
</svg>
