<svg width="24" height="24" viewBox="0 0 24 24" fill="none" xmlns="http://www.w3.org/2000/svg">
<path d="M11.9571 20.9221C7.74418 20.9221 4.32812 17.5061 4.32812 13.2931C4.32812 9.08024 7.74418 5.66418 11.9571 5.66418C16.17 5.66418 19.5861 9.08024 19.5861 13.2931" stroke="black" stroke-width="1.5" stroke-linecap="round" stroke-linejoin="round"/>
<path d="M9.86328 3H14.0528" stroke="black" stroke-width="1.5" stroke-linecap="round" stroke-linejoin="round"/>
<path d="M11.9473 13.2665L14.8759 10.3379" stroke="black" stroke-width="1.5" stroke-linecap="round" stroke-linejoin="round"/>
<path fill-rule="evenodd" clip-rule="evenodd" d="M19.2451 19.4739C18.6244 20.0411 17.8479 20.5519 16.9937 20.9002C16.2669 21.1892 15.6588 20.8282 15.5693 20.1053C15.4603 19.0389 15.4623 18.0193 15.5693 17.0668C15.6666 16.3156 16.3369 15.9965 16.9937 16.2757C17.8343 16.6231 18.5893 17.095 19.2451 17.7021C19.8055 18.2139 19.8192 18.9416 19.2451 19.4739Z" stroke="black" stroke-width="1.5" stroke-linecap="round" stroke-linejoin="round"/>
</svg>
