<svg width="24" height="24" viewBox="0 0 24 24" fill="none" xmlns="http://www.w3.org/2000/svg">
<path d="M12 21C16.2322 21 19.6621 17.5691 19.6621 13.3379C19.6621 9.1057 16.2322 5.67578 12 5.67578C7.76878 5.67578 4.33887 9.1057 4.33887 13.3379C4.33887 17.5691 7.76878 21 12 21Z" stroke="black" stroke-width="1.5" stroke-linecap="round" stroke-linejoin="round"/>
<path d="M17.4951 7.97388L19.2007 6.26831" stroke="black" stroke-width="1.5" stroke-linecap="round" stroke-linejoin="round"/>
<path d="M14.2388 11.4795C14.7203 12.0135 15.0134 12.7208 15.0134 13.4966C15.0134 15.1606 13.6645 16.5099 12.0002 16.5099C10.3362 16.5099 8.9873 15.1606 8.9873 13.4966C8.9873 12.7208 9.28038 12.0135 9.76184 11.4795" stroke="black" stroke-width="1.5" stroke-linecap="round" stroke-linejoin="round"/>
<path d="M12.002 12.9176L12.002 10.1659" stroke="black" stroke-width="1.5" stroke-linecap="round" stroke-linejoin="round"/>
<path d="M9.89844 3H14.1062" stroke="black" stroke-width="1.5" stroke-linecap="round" stroke-linejoin="round"/>
</svg>
