<svg width="24" height="24" viewBox="0 0 24 24" fill="none" xmlns="http://www.w3.org/2000/svg">
<path d="M11.9858 3C10.5842 4.03102 10.5568 5.2863 10.7183 5.78506C10.5012 5.42046 9.57038 4.74392 7.58429 4.95457C7.58466 6.1896 8.60597 8.39636 11.9858 8.39636C15.2623 8.39636 16.3871 6.1896 16.3874 4.95457C14.4013 4.74392 13.4705 5.42046 13.2534 5.78506C13.4149 5.2863 13.3875 4.03102 11.9858 3Z" stroke="black" stroke-width="1.5" stroke-linecap="round" stroke-linejoin="round"/>
<path d="M13.1414 18.8959C15.9344 18.4282 18.0453 16.2767 18.0453 13.6932C18.0453 10.7678 15.3387 8.39624 12 8.39624C8.66129 8.39624 5.95473 10.7678 5.95473 13.6932C5.95473 16.2767 8.06559 18.4282 10.8586 18.8959C10.7193 19.1094 10.6384 19.3645 10.6384 19.6385C10.6384 20.3904 11.248 21 12 21C12.752 21 13.3616 20.3904 13.3616 19.6385C13.3616 19.3645 13.2807 19.1094 13.1414 18.8959Z" stroke="black" stroke-width="1.5" stroke-linecap="round" stroke-linejoin="round"/>
</svg>
