<svg width="24" height="24" viewBox="0 0 24 24" fill="none" xmlns="http://www.w3.org/2000/svg">
<path d="M15.0965 14.6482L13.6499 13.2017" stroke="black" stroke-width="1.5" stroke-linecap="round" stroke-linejoin="round"/>
<path d="M7.86354 10.3085L9.31013 11.7551" stroke="black" stroke-width="1.5" stroke-linecap="round" stroke-linejoin="round"/>
<path d="M9.79232 18.0237L8.82793 17.0593" stroke="black" stroke-width="1.5" stroke-linecap="round" stroke-linejoin="round"/>
<path d="M18.8666 5.09192L15.7647 8.19381" stroke="black" stroke-width="1.5" stroke-linecap="round" stroke-linejoin="round"/>
<path d="M15.5787 3C15.9771 3.3985 16.2361 6.60245 15.5787 7.73812" stroke="black" stroke-width="1.5" stroke-linecap="round" stroke-linejoin="round"/>
<path d="M20.9584 8.3797C20.56 7.9812 17.3152 7.72218 16.1795 8.3797" stroke="black" stroke-width="1.5" stroke-linecap="round" stroke-linejoin="round"/>
<path d="M9.12991 8.30878C7.0665 10.3722 1.70161 19.0386 3.35234 20.6893C5.00308 22.34 13.6694 16.9751 15.7329 14.9117C17.7963 12.8483 17.5562 10.1321 15.7329 8.30878C13.9095 6.48543 11.1933 6.24536 9.12991 8.30878Z" stroke="black" stroke-width="1.5"/>
</svg>
