<svg width="24" height="24" viewBox="0 0 24 24" fill="none" xmlns="http://www.w3.org/2000/svg">
<path d="M12.0518 16.6554C12.0518 19.0371 10.0255 20.9677 7.5259 20.9677C5.02631 20.9677 3 19.0371 3 16.6554C3 14.2738 5.02631 12.3431 7.5259 12.3431C10.0255 12.3431 12.0518 14.2738 12.0518 16.6554Z" stroke="black" stroke-width="1.5" stroke-linecap="round" stroke-linejoin="round"/>
<path d="M5.71769 12.6413C4.93762 11.0478 5.17095 9.11721 6.44176 7.84639C8.06088 6.22728 10.751 6.29229 12.4503 7.99161C13.5364 9.07768 13.9549 10.5685 13.6928 11.9257" stroke="black" stroke-width="1.5" stroke-linecap="round" stroke-linejoin="round"/>
<path d="M11.6754 18.9497C13.3084 20.5826 15.8935 20.6451 17.4494 19.0892C19.0053 17.5333 18.9428 14.9482 17.3098 13.3153C15.6769 11.6823 13.0918 11.6198 11.5359 13.1757C11.3455 13.3661 11.1793 13.5719 11.0373 13.7895" stroke="black" stroke-width="1.5" stroke-linecap="round" stroke-linejoin="round"/>
<path d="M13.768 11.3655C14.0397 9.72302 14.9105 4.66914 21 7.14006C20.3909 9.16669 19.6418 12.8604 13.768 11.3655Z" stroke="black" stroke-width="1.5" stroke-linecap="round" stroke-linejoin="round"/>
<path d="M8.97174 9.18933C9.25164 9.11144 9.91114 9.03574 10.31 9.35608" stroke="black" stroke-width="1.5" stroke-linecap="round" stroke-linejoin="round"/>
<path d="M14.5578 14.5065C14.8481 14.5185 15.4989 14.6493 15.7799 15.0769" stroke="black" stroke-width="1.5" stroke-linecap="round" stroke-linejoin="round"/>
<path d="M7.19034 15.1416C6.90005 15.1536 6.24925 15.2845 5.96829 15.712" stroke="black" stroke-width="1.5" stroke-linecap="round" stroke-linejoin="round"/>
<path d="M15.1194 7.58362C15.2091 6.09688 14.4413 4.4484 11.6256 3.03223C11.3374 3.74592 10.3351 4.83057 10.2566 6.36168" stroke="black" stroke-width="1.5" stroke-linecap="round" stroke-linejoin="round"/>
</svg>
