<svg width="24" height="24" viewBox="0 0 24 24" fill="none" xmlns="http://www.w3.org/2000/svg">
<path d="M8.65402 6.66187L9.67558 5.16614L11.9999 5.42144L14.3243 5.16614L15.3458 6.66187L17.4254 7.3186V9.43465L19.0672 11.0399L18.4105 12.9736L19.0672 15.1991L17.8633 16.4031L17.4254 18.738L15.7107 19.1758L14.8351 21L11.9449 20.3013L9.16477 21L8.28916 19.1758L6.57445 18.738L6.13662 16.4031L4.93265 15.1991L5.58936 12.9736L4.93265 11.0399L6.57445 9.43465V7.3186L8.65402 6.66187Z" stroke="black" stroke-width="1.5" stroke-linecap="round" stroke-linejoin="round"/>
<path d="M11.521 3C11.8298 3.33171 12.2004 4.07742 12.0357 5.36754" stroke="black" stroke-width="1.5" stroke-linecap="round" stroke-linejoin="round"/>
<path d="M13.782 16.4231L14.8388 15.6933L14.2981 14.2053L15.2074 13.2788L14.2981 12.0717L14.8388 10.9207L13.782 10.0505" stroke="black" stroke-width="1.5" stroke-linecap="round" stroke-linejoin="round"/>
<path d="M10.2179 16.4231L9.1611 15.6933L9.70181 14.2053L8.79243 13.2788L9.70181 12.0717L9.1611 10.9207L10.2179 10.0505" stroke="black" stroke-width="1.5" stroke-linecap="round" stroke-linejoin="round"/>
</svg>
