<svg width="24" height="24" viewBox="0 0 24 24" fill="none" xmlns="http://www.w3.org/2000/svg">
<path d="M7.49347 11.5459C7.55509 11.2202 7.81037 10.4473 8.33851 9.96143" stroke="black" stroke-width="1.5" stroke-linecap="round" stroke-linejoin="round"/>
<path d="M13.3365 16.3478C17.5202 16.3478 17.7361 12.9165 16.4501 10.7681C15.3604 8.94738 13.1151 8.0902 11.8487 6.14009C11.2198 5.1717 11.5109 3.44237 11.5109 3.44237L9.56863 3.00007C9.56863 3.00007 8.97417 5.22021 8.23741 6.26034C6.90967 8.13479 4.18597 9.99174 3.36067 12.1444C2.82941 13.5301 3.21138 15.3541 4.48277 16.2142C5.12799 16.6508 6.05697 16.8933 7.356 16.6812" stroke="black" stroke-width="1.5" stroke-linecap="round" stroke-linejoin="round"/>
<path d="M12.8488 10.7809C13.4575 11.5177 13.8302 12.5082 13.8302 13.5974C13.8302 15.8735 12.2027 17.7187 10.195 17.7187C8.5525 17.7187 7.16445 16.4838 6.71378 14.7883" stroke="black" stroke-width="1.5" stroke-linecap="round" stroke-linejoin="round"/>
<path d="M17.5268 21C19.3741 21 20.8717 19.5024 20.8717 17.6551C20.8717 17.2435 20.7974 16.8493 20.6614 16.4851C20.4735 15.9818 19.8528 15.8831 19.4076 16.1838L15.4607 18.8496C15.0149 19.1507 14.8754 19.764 15.2728 20.1266C15.8674 20.6691 16.6584 21 17.5268 21Z" stroke="black" stroke-width="1.5" stroke-linecap="round" stroke-linejoin="round"/>
</svg>
