<svg width="24" height="24" viewBox="0 0 24 24" fill="none" xmlns="http://www.w3.org/2000/svg">
<path d="M8.4449 18.4626C10.3034 20.3212 13.0122 20.6257 14.4951 19.1428C15.978 17.6599 15.6734 14.9512 13.8149 13.0926C11.9564 11.2341 9.24761 10.9296 7.76472 12.4125C6.28184 13.8954 6.58636 16.6041 8.4449 18.4626Z" stroke="black" stroke-width="1.5" stroke-linecap="round" stroke-linejoin="round"/>
<path d="M15.1717 10.3046C17.3275 10.8822 19.4487 9.95608 19.9096 8.23601C20.3705 6.51594 18.9965 4.65328 16.8407 4.07563C14.6849 3.49799 12.5636 4.4241 12.1027 6.14417C11.6418 7.86424 13.0158 9.7269 15.1717 10.3046Z" stroke="black" stroke-width="1.5" stroke-linecap="round" stroke-linejoin="round"/>
<path d="M10.1589 16.6368C12.0174 18.4953 13.8005 19.8373 14.4951 19.1426C15.1898 18.448 14.0163 16.6965 12.1578 14.8379C10.2992 12.9794 8.45947 11.7176 7.76479 12.4123C7.0701 13.107 8.30035 14.7783 10.1589 16.6368Z" stroke="black" stroke-width="1.5" stroke-linecap="round" stroke-linejoin="round"/>
<path d="M7.73526 12.4306C7.56457 12.2064 6.21402 10.9056 3 11.7089" stroke="black" stroke-width="1.5" stroke-linecap="round" stroke-linejoin="round"/>
<path d="M11.9582 6.29578C11.2151 6.29592 6.43323 6.84519 4.59971 11.1723" stroke="black" stroke-width="1.5" stroke-linecap="round" stroke-linejoin="round"/>
<path d="M14.7659 18.9661L15.4485 19.3158" stroke="black" stroke-width="1.5" stroke-linecap="round" stroke-linejoin="round"/>
<path d="M14.3183 19.4135L14.6681 20.0961" stroke="black" stroke-width="1.5" stroke-linecap="round" stroke-linejoin="round"/>
<path d="M20.0702 8.36133L20.7144 8.77763" stroke="black" stroke-width="1.5" stroke-linecap="round" stroke-linejoin="round"/>
<path d="M20.2339 7.74997L21 7.71155" stroke="black" stroke-width="1.5" stroke-linecap="round" stroke-linejoin="round"/>
</svg>
