<svg width="24" height="24" viewBox="0 0 24 24" fill="none" xmlns="http://www.w3.org/2000/svg">
<path d="M6.76225 16.223C6.76225 12.7527 6.75419 8.01123 11.2816 8.01123H12.7184C17.2458 8.01123 17.2377 12.7527 17.2377 16.223C17.2377 22.4835 6.76225 22.7002 6.76225 16.223Z" stroke="black" stroke-width="1.5" stroke-linecap="round" stroke-linejoin="round"/>
<path d="M14.1884 8.2235C14.8311 7.01622 15.9275 6.36967 16.9154 6.05345C16.5565 5.80983 15.5578 5.37419 14.4343 5.58054C14.4499 4.96433 14.7245 3.59433 15.6982 3.04405C14.8868 2.8578 13.0112 3.24796 12.0001 4.48605C10.9889 3.24796 9.11326 2.8578 8.30185 3.04405C9.27555 3.59433 9.55018 4.96433 9.56578 5.58054C8.44228 5.37419 7.44362 5.80983 7.08472 6.05345C8.07256 6.36967 9.16897 7.01622 9.81172 8.2235" stroke="black" stroke-width="1.5" stroke-linecap="round" stroke-linejoin="round"/>
<path d="M6.76225 14.6014L8.4752 15.8962L10.188 14.6014L11.9009 15.8962L13.6137 14.6014L15.3266 15.8962L17.0394 14.6014" stroke="black" stroke-width="1.5" stroke-linecap="round" stroke-linejoin="round"/>
<path d="M7.29045 11.0248L8.78432 12.3004L10.2782 11.0248L11.7721 12.3004L13.2659 11.0248" stroke="black" stroke-width="1.5" stroke-linecap="round" stroke-linejoin="round"/>
<path d="M11.0251 18.017L12.519 19.0549L14.0129 18.017L15.5067 19.0549" stroke="black" stroke-width="1.5" stroke-linecap="round" stroke-linejoin="round"/>
</svg>
