<svg width="24" height="24" viewBox="0 0 24 24" fill="none" xmlns="http://www.w3.org/2000/svg">
<path d="M6.27222 7.54535L9.68778 5.98401L8.96944 3L12.0406 3.75177L15.0306 3L14.3122 5.98401L17.7278 7.54535C19.1818 8.21001 20.1144 9.66181 20.1144 11.2605V15.1314C20.1144 16.748 19.1611 18.2124 17.6829 18.8668L13.6535 20.6504C12.6004 21.1165 11.3996 21.1165 10.3465 20.6504L6.31708 18.8668C4.83887 18.2124 3.88557 16.748 3.88557 15.1314V11.2605C3.88557 9.66181 4.81821 8.21001 6.27222 7.54535Z" stroke="black" stroke-width="1.5" stroke-linecap="round" stroke-linejoin="round"/>
<path d="M13.983 10.3152H13.993" stroke="black" stroke-width="1.5" stroke-linecap="round" stroke-linejoin="round"/>
<path d="M13.983 16.3252H13.993" stroke="black" stroke-width="1.5" stroke-linecap="round" stroke-linejoin="round"/>
<path d="M13.9882 13.3152L13.9882 13.3252" stroke="black" stroke-width="1.5" stroke-linecap="round" stroke-linejoin="round"/>
<path d="M16.4583 14.8203H16.4683" stroke="black" stroke-width="1.5" stroke-linecap="round" stroke-linejoin="round"/>
<path d="M16.4634 11.8101L16.4634 11.8201" stroke="black" stroke-width="1.5" stroke-linecap="round" stroke-linejoin="round"/>
<path d="M9.98697 10.3152H9.97697" stroke="black" stroke-width="1.5" stroke-linecap="round" stroke-linejoin="round"/>
<path d="M9.98697 16.3252H9.97697" stroke="black" stroke-width="1.5" stroke-linecap="round" stroke-linejoin="round"/>
<path d="M9.98184 13.3152L9.98184 13.3252" stroke="black" stroke-width="1.5" stroke-linecap="round" stroke-linejoin="round"/>
<path d="M7.51175 14.8203H7.50175" stroke="black" stroke-width="1.5" stroke-linecap="round" stroke-linejoin="round"/>
<path d="M7.50662 11.8101L7.50662 11.8201" stroke="black" stroke-width="1.5" stroke-linecap="round" stroke-linejoin="round"/>
</svg>
