<svg width="24" height="24" viewBox="0 0 24 24" fill="none" xmlns="http://www.w3.org/2000/svg">
<path d="M15.9784 9.46167C14.3386 9.35917 13.0261 8.06217 12.9041 6.42373C12.6783 3.39115 8.50739 2.09462 6.22776 3.68042C2.89325 6.00004 3.20971 12.1096 4.84676 15.1498C7.10513 19.3439 11.8363 22.1837 16.337 20.5141C18.1703 19.834 19.367 18.3775 20.04 16.5933C21.1189 13.7328 19.2771 9.66787 15.9784 9.46167Z" stroke="black" stroke-width="1.5" stroke-linecap="round" stroke-linejoin="round"/>
<path d="M14.5782 12.3454C14.2381 13.2293 13.9083 13.6331 12.8713 14.0522" stroke="black" stroke-width="1.5" stroke-linecap="round" stroke-linejoin="round"/>
<path d="M12.0178 20.5952C12.3579 19.7113 12.6877 19.3075 13.7247 18.8884" stroke="black" stroke-width="1.5" stroke-linecap="round" stroke-linejoin="round"/>
<path d="M6.55612 17.4661C6.89618 16.5822 7.226 16.1784 8.26302 15.7593" stroke="black" stroke-width="1.5" stroke-linecap="round" stroke-linejoin="round"/>
<path d="M9.48364 9.49265C9.14358 10.3766 8.81377 10.7803 7.77674 11.1995" stroke="black" stroke-width="1.5" stroke-linecap="round" stroke-linejoin="round"/>
<path d="M8.26303 5.11159C8.60309 4.22768 8.93291 3.8239 9.96993 3.40479" stroke="black" stroke-width="1.5" stroke-linecap="round" stroke-linejoin="round"/>
<path d="M18.1055 14.9058C18.4456 14.0219 18.7754 13.6181 19.8124 13.199" stroke="black" stroke-width="1.5" stroke-linecap="round" stroke-linejoin="round"/>
</svg>
