<svg width="24px"  height="24px"  viewBox="0 0 25 24" fill="none" xmlns="http://www.w3.org/2000/svg">
<path fill-rule="evenodd" clip-rule="evenodd" d="M6.95508 5.23828C5.32288 5.23828 4 6.5607 4 8.19239C4 9.82434 5.32313 11.1475 6.95508 11.1475H17.5449C19.1769 11.1475 20.5 9.82434 20.5 8.19239C20.5 6.5607 19.1771 5.23828 17.5449 5.23828H6.95508ZM2.5 8.19239C2.5 5.73176 4.49496 3.73828 6.95508 3.73828H17.5449C20.005 3.73828 22 5.73176 22 8.19239C22 10.6528 20.0053 12.6475 17.5449 12.6475H6.95508C4.49471 12.6475 2.5 10.6528 2.5 8.19239Z" fill="#000000" />
<path fill-rule="evenodd" clip-rule="evenodd" d="M6.87695 8.19336C6.87695 7.77915 7.21274 7.44336 7.62695 7.44336H8.15138C8.5656 7.44336 8.90138 7.77915 8.90138 8.19336C8.90138 8.60757 8.5656 8.94336 8.15138 8.94336H7.62695C7.21274 8.94336 6.87695 8.60757 6.87695 8.19336ZM12.6055 8.19336C12.6055 7.77915 12.9413 7.44336 13.3555 7.44336H16.9273C17.3415 7.44336 17.6773 7.77915 17.6773 8.19336C17.6773 8.60757 17.3415 8.94336 16.9273 8.94336H13.3555C12.9413 8.94336 12.6055 8.60757 12.6055 8.19336Z" fill="#000000" />
<path fill-rule="evenodd" clip-rule="evenodd" d="M12.2509 17.0488C11.7778 17.0488 11.3945 17.4321 11.3945 17.9052C11.3945 18.3783 11.7778 18.7616 12.2509 18.7616C12.724 18.7616 13.1073 18.3783 13.1073 17.9052C13.1073 17.4321 12.724 17.0488 12.2509 17.0488ZM9.89453 17.9052C9.89453 16.6036 10.9493 15.5488 12.2509 15.5488C13.5525 15.5488 14.6073 16.6036 14.6073 17.9052C14.6073 19.2068 13.5525 20.2616 12.2509 20.2616C10.9493 20.2616 9.89453 19.2068 9.89453 17.9052Z" fill="#000000" />
<path fill-rule="evenodd" clip-rule="evenodd" d="M5.25977 17.9043C5.25977 17.4901 5.59555 17.1543 6.00977 17.1543H10.6577C11.0719 17.1543 11.4077 17.4901 11.4077 17.9043C11.4077 18.3185 11.0719 18.6543 10.6577 18.6543H6.00977C5.59555 18.6543 5.25977 18.3185 5.25977 17.9043ZM13.0825 17.9043C13.0825 17.4901 13.4183 17.1543 13.8325 17.1543H18.4901C18.9043 17.1543 19.2401 17.4901 19.2401 17.9043C19.2401 18.3185 18.9043 18.6543 18.4901 18.6543H13.8325C13.4183 18.6543 13.0825 18.3185 13.0825 17.9043Z" fill="#000000" />
<path fill-rule="evenodd" clip-rule="evenodd" d="M12.25 11.2666C12.6642 11.2666 13 11.6024 13 12.0166V16.2938C13 16.708 12.6642 17.0438 12.25 17.0438C11.8358 17.0438 11.5 16.708 11.5 16.2938V12.0166C11.5 11.6024 11.8358 11.2666 12.25 11.2666Z" fill="#000000" />
</svg>