<svg width="24" height="24" viewBox="0 0 24 24" fill="none" xmlns="http://www.w3.org/2000/svg">
<path d="M3.98389 9.66447H20.0253" stroke="black" stroke-width="1.5" stroke-linecap="round" stroke-linejoin="round"/>
<path d="M15.6408 3V5.96174" stroke="black" stroke-width="1.5" stroke-linecap="round" stroke-linejoin="round"/>
<path d="M8.36979 3V5.96174" stroke="black" stroke-width="1.5" stroke-linecap="round" stroke-linejoin="round"/>
<path fill-rule="evenodd" clip-rule="evenodd" d="M15.8145 4.42151H8.19413C5.55056 4.42151 3.90039 5.89362 3.90039 8.59947V16.7452C3.90039 19.4939 5.55056 21.0001 8.19413 21.0001H15.8067C18.4581 21.0001 20.1004 19.5202 20.1004 16.8133V8.59947C20.1082 5.89362 18.4658 4.42151 15.8145 4.42151Z" stroke="black" stroke-width="1.5" stroke-linecap="round" stroke-linejoin="round"/>
<path d="M7.39897 16.6401L6.80664 17.2316" stroke="black" stroke-width="1.5" stroke-linecap="round" stroke-linejoin="round"/>
<path d="M7.10303 12.7207L7.11303 12.7307" stroke="black" stroke-width="1.5" stroke-linecap="round" stroke-linejoin="round"/>
<path d="M16.8389 12.7307L16.2614 13.3075" stroke="black" stroke-width="1.5" stroke-linecap="round" stroke-linejoin="round"/>
<path d="M17.449 17.2366L17.459 17.2466" stroke="black" stroke-width="1.5" stroke-linecap="round" stroke-linejoin="round"/>
<path d="M12.0015 13.2288V17.6533M13.9162 14.3349L10.0845 16.5472M13.9162 16.5472L10.0845 14.3349" stroke="black" stroke-width="1.5" stroke-linecap="round" stroke-linejoin="round"/>
</svg>
