<svg width="24" height="24" viewBox="0 0 24 24" fill="none" xmlns="http://www.w3.org/2000/svg">
<path d="M19.8201 9.77583L19.4289 7.23194C19.2656 6.16993 18.3879 5.38892 17.3578 5.38892H7.23775C5.94657 5.38892 4.96194 6.59534 5.16667 7.92652L6.73161 18.1021C6.89494 19.1641 7.77259 19.9451 8.80269 19.9451H11.3327" stroke="black" stroke-width="1.5" stroke-linecap="round" stroke-linejoin="round"/>
<path d="M10.2216 5.38892H6.68404C5.65394 5.38892 4.77628 6.16993 4.61295 7.23194L3.04802 17.4075C2.84329 18.7387 3.82792 19.9451 5.1191 19.9451H8.38327" stroke="black" stroke-width="1.5" stroke-linecap="round" stroke-linejoin="round"/>
<path d="M9.22021 12.2046H9.23021" stroke="black" stroke-width="1.5" stroke-linecap="round" stroke-linejoin="round"/>
<path d="M12.6284 12.2046H12.6384" stroke="black" stroke-width="1.5" stroke-linecap="round" stroke-linejoin="round"/>
<path d="M10.1494 15.6604H10.1594" stroke="black" stroke-width="1.5" stroke-linecap="round" stroke-linejoin="round"/>
<path d="M9.0457 7.14624C9.23646 7.37637 9.36207 7.34079 9.61194 7.34079C10.2636 7.34079 10.7919 6.42338 10.7919 5.2917C10.7919 4.16001 10.2636 3.2426 9.61194 3.2426C9.26419 3.2426 9.06067 3.2833 8.84473 3.69895" stroke="black" stroke-width="1.5" stroke-linecap="round" stroke-linejoin="round"/>
<path d="M14.9544 7.14624C15.1452 7.37637 15.2708 7.34079 15.5206 7.34079C16.1723 7.34079 16.7005 6.42338 16.7005 5.2917C16.7005 4.16001 16.1723 3.2426 15.5206 3.2426C15.1729 3.2426 14.9694 3.2833 14.7534 3.69895" stroke="black" stroke-width="1.5" stroke-linecap="round" stroke-linejoin="round"/>
<path d="M20.7346 18.0174L15.816 19.3504C15.5908 19.4115 15.3532 19.3085 15.2437 19.1024L14.4485 17.6054C14.3343 17.3905 14.3914 17.1246 14.5838 16.9756L18.6699 13.8103" stroke="black" stroke-width="1.5" stroke-linecap="round" stroke-linejoin="round"/>
<path d="M18.395 13.2222L20.9792 18.5173" stroke="black" stroke-width="1.5" stroke-linecap="round" stroke-linejoin="round"/>
<path d="M16.894 19.125L18.1479 20.7572" stroke="black" stroke-width="1.5" stroke-linecap="round" stroke-linejoin="round"/>
</svg>
