<svg width="24" height="24" viewBox="0 0 24 24" fill="none" xmlns="http://www.w3.org/2000/svg">
<path d="M3.98389 9.66447H20.0253" stroke="black" stroke-width="1.5" stroke-linecap="round" stroke-linejoin="round"/>
<path d="M15.6408 3V5.96174" stroke="black" stroke-width="1.5" stroke-linecap="round" stroke-linejoin="round"/>
<path d="M8.36979 3V5.96174" stroke="black" stroke-width="1.5" stroke-linecap="round" stroke-linejoin="round"/>
<path d="M10.3749 21.0001H8.19414C5.55056 21.0001 3.90039 19.4939 3.90039 16.7452V8.59947C3.90039 5.89362 5.55056 4.42151 8.19414 4.42151H15.8145C18.4658 4.42151 20.1082 5.89362 20.1004 8.59947V9.62189" stroke="black" stroke-width="1.5" stroke-linecap="round" stroke-linejoin="round"/>
<path d="M7.66602 12.9414H7.67602" stroke="black" stroke-width="1.5" stroke-linecap="round" stroke-linejoin="round"/>
<path d="M7.66602 16.418H7.67602" stroke="black" stroke-width="1.5" stroke-linecap="round" stroke-linejoin="round"/>
<path d="M11.334 12.9414H11.344" stroke="black" stroke-width="1.5" stroke-linecap="round" stroke-linejoin="round"/>
<path fill-rule="evenodd" clip-rule="evenodd" d="M18.5516 12.7107C19.2213 12.7107 19.7638 13.2533 19.7638 13.9229C19.7638 14.5926 19.2213 15.1352 18.5516 15.1352C17.8819 15.1352 17.3394 14.5926 17.3394 13.9229C17.3394 13.2533 17.8819 12.7107 18.5516 12.7107Z" stroke="black" stroke-width="1.5" stroke-linecap="round" stroke-linejoin="round"/>
<path fill-rule="evenodd" clip-rule="evenodd" d="M13.7025 15.5391C14.3722 15.5391 14.9147 16.0816 14.9147 16.7513C14.9147 17.421 14.3722 17.9636 13.7025 17.9636C13.0328 17.9636 12.4902 17.421 12.4902 16.7513C12.4902 16.0816 13.0328 15.5391 13.7025 15.5391Z" stroke="black" stroke-width="1.5" stroke-linecap="round" stroke-linejoin="round"/>
<path fill-rule="evenodd" clip-rule="evenodd" d="M18.5516 18.3679C19.2213 18.3679 19.7638 18.9105 19.7638 19.5801C19.7638 20.2494 19.2213 20.7924 18.5516 20.7924C17.8819 20.7924 17.3394 20.2494 17.3394 19.5801C17.3394 18.9105 17.8819 18.3679 18.5516 18.3679Z" stroke="black" stroke-width="1.5" stroke-linecap="round" stroke-linejoin="round"/>
<path d="M14.749 17.3613L17.5089 18.9698M17.5046 14.533L14.7485 16.141" stroke="black" stroke-width="1.5" stroke-linecap="round" stroke-linejoin="round"/>
</svg>
