<svg width="24" height="24" viewBox="0 0 24 24" fill="none" xmlns="http://www.w3.org/2000/svg">
<path d="M3.98389 9.66447H20.0253" stroke="black" stroke-width="1.5" stroke-linecap="round" stroke-linejoin="round"/>
<path d="M15.6408 3V5.96174" stroke="black" stroke-width="1.5" stroke-linecap="round" stroke-linejoin="round"/>
<path d="M8.36979 3V5.96174" stroke="black" stroke-width="1.5" stroke-linecap="round" stroke-linejoin="round"/>
<path d="M10.3749 21.0001H8.19414C5.55056 21.0001 3.90039 19.4939 3.90039 16.7452V8.59947C3.90039 5.89362 5.55056 4.42151 8.19414 4.42151H15.8145C18.4658 4.42151 20.1082 5.89362 20.1004 8.59947V11.8315" stroke="black" stroke-width="1.5" stroke-linecap="round" stroke-linejoin="round"/>
<path d="M7.66602 12.9414H7.67602" stroke="black" stroke-width="1.5" stroke-linecap="round" stroke-linejoin="round"/>
<path d="M7.66602 16.418H7.67602" stroke="black" stroke-width="1.5" stroke-linecap="round" stroke-linejoin="round"/>
<path d="M11.334 12.9414H11.344" stroke="black" stroke-width="1.5" stroke-linecap="round" stroke-linejoin="round"/>
<path d="M15.9019 21.0671L15.9078 21.1022" stroke="black" stroke-width="1.5" stroke-linecap="round" stroke-linejoin="round"/>
<path d="M15.9024 18.8273C15.8917 18.0091 16.636 17.6627 17.1896 17.3465C17.8639 16.9748 18.3212 16.3822 18.3212 15.561C18.3212 14.3438 17.3366 13.3669 16.1271 13.3669C14.9099 13.3669 13.9331 14.3438 13.9331 15.561" stroke="black" stroke-width="1.5" stroke-linecap="round" stroke-linejoin="round"/>
</svg>
