<svg width="24" height="24" viewBox="0 0 24 24" fill="none" xmlns="http://www.w3.org/2000/svg">
<path d="M15.6408 3V5.96174" stroke="black" stroke-width="1.5" stroke-linecap="round" stroke-linejoin="round"/>
<path d="M8.36832 3V5.96174" stroke="black" stroke-width="1.5" stroke-linecap="round" stroke-linejoin="round"/>
<path fill-rule="evenodd" clip-rule="evenodd" d="M15.8145 4.42139H8.19413C5.55056 4.42139 3.90039 5.8935 3.90039 8.59935V16.7451C3.90039 19.4938 5.55056 20.9999 8.19413 20.9999H15.8067C18.4581 20.9999 20.1004 19.52 20.1004 16.8132V8.59935C20.1082 5.8935 18.4658 4.42139 15.8145 4.42139Z" stroke="black" stroke-width="1.5" stroke-linecap="round" stroke-linejoin="round"/>
<path d="M14.9549 14.9628C14.3847 15.9027 13.3524 16.5312 12.1731 16.5312C10.378 16.5312 8.92236 15.0756 8.92236 13.2805C8.92236 11.4844 10.378 10.0298 12.1731 10.0298C13.4429 10.0298 14.5433 10.7576 15.0784 11.8201" stroke="black" stroke-width="1.5" stroke-linecap="round" stroke-linejoin="round"/>
<path d="M13.2778 11.8191H15.0768V10.0298" stroke="black" stroke-width="1.5" stroke-linecap="round" stroke-linejoin="round"/>
</svg>
