<svg width="24" height="24" viewBox="0 0 24 24" fill="none" xmlns="http://www.w3.org/2000/svg">
<path d="M17.3368 5.74707H7.21675C5.92558 5.74707 4.94095 6.9535 5.14567 8.28468L6.71061 18.4603C6.87394 19.5223 7.7516 20.3033 8.78169 20.3033H16.1511C16.7717 20.3033 17.3571 20.0152 17.7357 19.5236L20.137 16.4054C20.4706 15.9722 20.6123 15.4214 20.5292 14.8811L19.4079 7.59009C19.2446 6.52808 18.3669 5.74707 17.3368 5.74707Z" stroke="black" stroke-width="1.5" stroke-linecap="round" stroke-linejoin="round"/>
<path d="M10.2006 5.74707H6.66304C5.63295 5.74707 4.75529 6.52808 4.59196 7.59009L3.02702 17.7657C2.82229 19.0969 3.80693 20.3033 5.0981 20.3033H8.36228" stroke="black" stroke-width="1.5" stroke-linecap="round" stroke-linejoin="round"/>
<path d="M9.02471 7.5044C9.21547 7.73453 9.34107 7.69894 9.59094 7.69894C10.2426 7.69894 10.7709 6.78153 10.7709 5.64985C10.7709 4.51817 10.2426 3.60076 9.59094 3.60076C9.2432 3.60076 9.03968 3.64146 8.82373 4.0571" stroke="black" stroke-width="1.5" stroke-linecap="round" stroke-linejoin="round"/>
<path d="M14.9334 7.5044C15.1242 7.73453 15.2498 7.69894 15.4996 7.69894C16.1513 7.69894 16.6795 6.78153 16.6795 5.64985C16.6795 4.51817 16.1513 3.60076 15.4996 3.60076C15.1519 3.60076 14.9484 3.64146 14.7324 4.0571" stroke="black" stroke-width="1.5" stroke-linecap="round" stroke-linejoin="round"/>
<path d="M19.9898 14.8564L17.54 15.2759C16.2111 15.5034 15.5086 16.3874 15.7421 17.7512L16.179 20.3033" stroke="black" stroke-width="1.5" stroke-linecap="round" stroke-linejoin="round"/>
<path d="M10.3696 15.2944H12.4307" stroke="black" stroke-width="1.5" stroke-linecap="round" stroke-linejoin="round"/>
<path d="M9.49023 12H16.2876" stroke="black" stroke-width="1.5" stroke-linecap="round" stroke-linejoin="round"/>
</svg>
