<svg width="24" height="24" viewBox="0 0 24 24" fill="none" xmlns="http://www.w3.org/2000/svg">
<path d="M3.82541 10.0037C3.56445 8.80123 4.4805 7.66504 5.71092 7.66504H18.2894C19.5198 7.66504 20.4359 8.80123 20.1749 10.0037L19.3242 13.9233C19.2972 14.0481 19.2826 14.1748 19.2806 14.3018C19.2782 14.4492 19.2928 14.5968 19.3242 14.7417L20.1749 18.6613C20.4359 19.8638 19.5198 21 18.2894 21H5.71092C4.4805 21 3.56445 19.8638 3.82541 18.6613L4.67609 14.7417C4.73462 14.472 4.73462 14.193 4.67609 13.9233L3.82541 10.0037Z" stroke="black" stroke-width="1.5" stroke-linecap="round" stroke-linejoin="round"/>
<path d="M15.0986 5.41175L15.0986 3" stroke="black" stroke-width="1.5" stroke-linecap="round" stroke-linejoin="round"/>
<path d="M8.90088 5.41175L8.90088 3" stroke="black" stroke-width="1.5" stroke-linecap="round" stroke-linejoin="round"/>
<path d="M18.9672 7.74242L18.9672 5.65286C18.9672 4.85368 18.3193 4.20581 17.5201 4.20581H6.47928C5.68009 4.20581 5.03223 4.85368 5.03223 5.65286V7.74242" stroke="black" stroke-width="1.5" stroke-linecap="round" stroke-linejoin="round"/>
<path d="M8.23486 12.5645L9.72395 11.7607V16.9025" stroke="black" stroke-width="1.5" stroke-linecap="round" stroke-linejoin="round"/>
<path d="M13.8755 16.9025L15.7652 11.7607H12.5224" stroke="black" stroke-width="1.5" stroke-linecap="round" stroke-linejoin="round"/>
</svg>
