<svg width="24px"  height="24px"  viewBox="0 0 25 24" fill="none" xmlns="http://www.w3.org/2000/svg">
<path fill-rule="evenodd" clip-rule="evenodd" d="M3.08984 18.2789C3.08984 16.7788 4.30617 15.5625 5.80622 15.5625C7.30626 15.5625 8.52259 16.7788 8.52259 18.2789C8.52259 19.7789 7.30626 20.9952 5.80622 20.9952C4.30617 20.9952 3.08984 19.7789 3.08984 18.2789ZM5.80622 17.0625C5.13459 17.0625 4.58984 17.6073 4.58984 18.2789C4.58984 18.9505 5.1346 19.4952 5.80622 19.4952C6.47784 19.4952 7.02259 18.9505 7.02259 18.2789C7.02259 17.6073 6.47784 17.0625 5.80622 17.0625Z" fill="#000000" />
<path fill-rule="evenodd" clip-rule="evenodd" d="M15.7305 5.63825C15.7305 4.1382 16.9468 2.92188 18.4468 2.92188C19.9469 2.92188 21.1632 4.1382 21.1632 5.63825C21.1632 7.13829 19.9469 8.35462 18.4468 8.35462C16.9468 8.35462 15.7305 7.13829 15.7305 5.63825ZM18.4468 4.42188C17.7752 4.42188 17.2305 4.96663 17.2305 5.63825C17.2305 6.30987 17.7752 6.85462 18.4468 6.85462C19.1185 6.85462 19.6632 6.30987 19.6632 5.63825C19.6632 4.96663 19.1185 4.42188 18.4468 4.42188Z" fill="#000000" />
<path fill-rule="evenodd" clip-rule="evenodd" d="M12.0888 3.75C7.52949 3.75 3.84201 7.42967 3.83398 11.9886C3.83325 12.4029 3.49688 12.7381 3.08266 12.7373C2.66845 12.7366 2.33326 12.4002 2.33399 11.986C2.34347 6.59927 6.70246 2.25 12.0888 2.25C14.0138 2.25 15.8114 2.81088 17.3181 3.77523C17.667 3.99852 17.7688 4.46236 17.5455 4.81123C17.3222 5.1601 16.8583 5.2619 16.5095 5.0386C15.2373 4.22436 13.7191 3.75 12.0888 3.75Z" fill="#000000" />
<path fill-rule="evenodd" clip-rule="evenodd" d="M21.0828 11.2461C21.4971 11.2461 21.8328 11.5819 21.8328 11.9961C21.8328 17.3823 17.4747 21.75 12.0877 21.75C10.1619 21.75 8.36419 21.1891 6.8575 20.2247C6.50862 20.0014 6.40683 19.5376 6.63012 19.1887C6.85342 18.8399 7.31726 18.7381 7.66613 18.9614C8.93824 19.7756 10.4565 20.25 12.0877 20.25C16.6445 20.25 20.3328 16.5556 20.3328 11.9961C20.3328 11.5819 20.6686 11.2461 21.0828 11.2461Z" fill="#000000" />
<path fill-rule="evenodd" clip-rule="evenodd" d="M11.0191 10.2454C10.8963 11.332 10.8928 12.503 11.0198 13.734C11.0502 13.9667 11.1481 14.0633 11.2183 14.1028C11.293 14.1448 11.4567 14.1889 11.7322 14.0812C12.6834 13.6972 13.5524 13.1316 14.2455 12.5041C14.4627 12.3037 14.5198 12.1175 14.519 11.9836C14.5183 11.848 14.4577 11.6653 14.2478 11.4751L14.2443 11.472L14.2444 11.472C13.5155 10.8035 12.6738 10.2804 11.7254 9.89221L11.7192 9.88969L11.7192 9.88966C11.497 9.7964 11.33 9.8242 11.2354 9.8739C11.1526 9.91739 11.0506 10.0152 11.0191 10.2454ZM12.2964 8.50516C11.7197 8.26412 11.08 8.2612 10.5379 8.5459C9.98364 8.83701 9.61906 9.38358 9.53101 10.0562L9.5309 10.0562L9.52944 10.069C9.39249 11.276 9.39023 12.5613 9.52866 13.897L9.53035 13.9119C9.60894 14.5463 9.93459 15.1016 10.4828 15.4101C11.0269 15.7162 11.6757 15.7153 12.284 15.476L12.284 15.476L12.2899 15.4737C13.4167 15.0194 14.4371 14.3546 15.2549 13.6137L15.2549 13.6137L15.2589 13.61C15.7388 13.1688 16.0224 12.5954 16.019 11.9753C16.0156 11.3574 15.7277 10.7926 15.2567 10.3651C14.389 9.56971 13.3952 8.95528 12.2964 8.50516Z" fill="#000000" />
</svg>