<svg width="24px"  height="24px"  viewBox="0 0 25 24" fill="none" xmlns="http://www.w3.org/2000/svg">
<path fill-rule="evenodd" clip-rule="evenodd" d="M4.42643 3.82917C5.31593 2.87504 6.58072 2.34375 8.06731 2.34375H15.5328C17.0232 2.34375 18.2886 2.87467 19.1777 3.82948C20.0612 4.77825 20.5171 6.0845 20.5171 7.54307V9.22142C20.5171 9.63563 20.1813 9.97142 19.7671 9.97142C19.3529 9.97142 19.0171 9.63563 19.0171 9.22142V7.54307C19.0171 6.39412 18.661 5.47571 18.08 4.8517C17.5045 4.23373 16.6528 3.84375 15.5328 3.84375H8.06731C6.95222 3.84375 6.10035 4.23336 5.5236 4.85202C4.94142 5.4765 4.58398 6.39506 4.58398 7.54307V14.5775C4.58398 15.7265 4.94003 16.6449 5.52102 17.269C6.09638 17.8869 6.94783 18.2769 8.06731 18.2769H10.0356C10.4498 18.2769 10.7856 18.6126 10.7856 19.0269C10.7856 19.4411 10.4498 19.7769 10.0356 19.7769H8.06731C6.57732 19.7769 5.31212 19.2459 4.42317 18.2911C3.53987 17.3423 3.08398 16.0361 3.08398 14.5775V7.54307C3.08398 6.08356 3.54237 4.77746 4.42643 3.82917Z" fill="#000000" />
<path fill-rule="evenodd" clip-rule="evenodd" d="M13.593 12.7546C14.1304 12.1777 14.8871 11.8672 15.7497 11.8672H19.6317C20.4957 11.8672 21.253 12.1774 21.7905 12.7547C22.3224 13.326 22.5835 14.0983 22.5835 14.9309V18.5892C22.5835 19.4218 22.3224 20.1939 21.7904 20.765C21.2528 21.3421 20.4955 21.6519 19.6317 21.6519H15.7497C14.8859 21.6519 14.1287 21.3421 13.5913 20.7648C13.0596 20.1936 12.7988 19.4215 12.7988 18.5892V14.9309C12.7988 14.0976 13.0611 13.3255 13.593 12.7546ZM14.6905 13.777C14.4603 14.0241 14.2988 14.4088 14.2988 14.9309V18.5892C14.2988 19.1122 14.4599 19.4964 14.6892 19.7427C14.9129 19.983 15.2562 20.1519 15.7497 20.1519H19.6317C20.1253 20.1519 20.4689 19.983 20.6928 19.7426C20.9224 19.4961 21.0835 19.1119 21.0835 18.5892V14.9309C21.0835 14.4081 20.9224 14.0235 20.6927 13.7768C20.4686 13.5362 20.125 13.3672 19.6317 13.3672H15.7497C15.2588 13.3672 14.9151 13.5359 14.6905 13.777Z" fill="#000000" />
<path fill-rule="evenodd" clip-rule="evenodd" d="M12.2315 11.5772C12.0905 11.7182 11.8991 11.7973 11.6997 11.7969L8.30324 11.7901C7.88903 11.7892 7.55392 11.4528 7.55475 11.0386C7.55558 10.6243 7.89204 10.2892 8.30625 10.2901L9.88687 10.2932L7.395 7.80137C7.10211 7.50847 7.10211 7.0336 7.395 6.74071C7.6879 6.44781 8.16277 6.44781 8.45567 6.74071L10.9475 9.23256L10.9443 7.65198C10.9435 7.23777 11.2786 6.9013 11.6928 6.90047C12.107 6.89964 12.4435 7.23475 12.4443 7.64896L12.4512 11.0454C12.4516 11.2448 12.3725 11.4362 12.2315 11.5772Z" fill="#000000" />
</svg>