<svg width="24px"  height="24px"  viewBox="0 0 25 24" fill="none" xmlns="http://www.w3.org/2000/svg">
<path fill-rule="evenodd" clip-rule="evenodd" d="M12.429 4.29361L19.9569 11.8216C20.8425 12.7072 20.8419 14.1426 19.9573 15.0286L18.4951 16.49C18.495 16.4901 18.4951 16.4899 18.4951 16.49C15.7261 19.2597 11.1878 19.7466 8.10269 17.1991C4.59778 14.3045 4.41283 9.1015 7.55162 5.96272L9.22072 4.29361C10.1061 3.40734 11.5436 3.40734 12.429 4.29361ZM11.3675 5.35345C11.068 5.05351 10.5817 5.05351 10.2822 5.35345L8.61228 7.02338C6.09336 9.54229 6.24126 13.7164 9.05782 16.0425C11.4822 18.0444 15.1508 17.7138 17.4342 15.4295L18.8959 13.9688C18.896 13.9686 18.8957 13.9689 18.8959 13.9688C19.1958 13.6679 19.1955 13.1814 18.8963 12.8822L11.3675 5.35345Z" fill="#000000" />
<path fill-rule="evenodd" clip-rule="evenodd" d="M15.9139 3.46967C16.2068 3.76256 16.2068 4.23744 15.9139 4.53033L13.7598 6.68442C13.4669 6.97732 12.9921 6.97732 12.6992 6.68443C12.4063 6.39153 12.4063 5.91666 12.6992 5.62376L14.8533 3.46967C15.1461 3.17678 15.621 3.17678 15.9139 3.46967Z" fill="#000000" />
<path fill-rule="evenodd" clip-rule="evenodd" d="M20.7801 8.3349C21.073 8.6278 21.073 9.10267 20.7801 9.39556L18.626 11.5497C18.3331 11.8426 17.8583 11.8426 17.5654 11.5497C17.2725 11.2568 17.2725 10.7819 17.5654 10.489L19.7195 8.3349C20.0124 8.04201 20.4872 8.04201 20.7801 8.3349Z" fill="#000000" />
<path fill-rule="evenodd" clip-rule="evenodd" d="M10.6122 9.55756C10.9051 9.26467 11.38 9.26467 11.6729 9.55756L14.6919 12.5766C14.9848 12.8695 14.9848 13.3444 14.6919 13.6372C14.399 13.9301 13.9242 13.9301 13.6313 13.6372L10.6122 10.6182C10.3194 10.3253 10.3194 9.85045 10.6122 9.55756Z" fill="#000000" />
<path fill-rule="evenodd" clip-rule="evenodd" d="M8.61308 15.6376C8.90598 15.9305 8.90598 16.4054 8.61308 16.6983L4.78033 20.5311C4.48744 20.8239 4.01256 20.8239 3.71967 20.5311C3.42678 20.2382 3.42678 19.7633 3.71967 19.4704L7.55242 15.6376C7.84532 15.3447 8.32019 15.3447 8.61308 15.6376Z" fill="#000000" />
</svg>