<svg width="24px"  height="24px"  viewBox="0 0 25 24" fill="none" xmlns="http://www.w3.org/2000/svg">
<path fill-rule="evenodd" clip-rule="evenodd" d="M7.43457 7.43043C7.43457 6.39686 8.27199 5.55859 9.30543 5.55859H17.17C18.2048 5.55859 19.0408 6.39728 19.0408 7.43043V8.95702C19.0408 11.9398 16.8593 14.6592 13.8055 14.9499C10.3467 15.2802 7.43457 12.567 7.43457 9.17399V7.43043ZM9.30543 7.05859C9.10126 7.05859 8.93457 7.22444 8.93457 7.43043V9.17399C8.93457 11.6907 11.0934 13.7022 13.6631 13.4567L13.6633 13.4567C15.8636 13.2472 17.5408 11.2535 17.5408 8.95702V7.43043C17.5408 7.22401 17.3747 7.05859 17.17 7.05859H9.30543Z" fill="#000000" />
<path fill-rule="evenodd" clip-rule="evenodd" d="M13.2363 13.6406C13.6506 13.6406 13.9863 13.9764 13.9863 14.3906V17.5847C13.9909 18.3005 14.5866 18.9053 15.3542 18.9093H16.4092C17.564 18.9093 18.5272 19.8311 18.5272 21C18.5272 21.4142 18.1914 21.75 17.7772 21.75C17.363 21.75 17.0272 21.4142 17.0272 21C17.0272 20.6881 16.7645 20.4093 16.4092 20.4093H15.3494C13.7852 20.4027 12.4944 19.1582 12.4863 17.5907L12.4863 17.5868L12.4863 14.3906C12.4863 13.9764 12.8221 13.6406 13.2363 13.6406Z" fill="#000000" />
<path fill-rule="evenodd" clip-rule="evenodd" d="M8.0901 14.8836C8.45218 15.0848 8.58262 15.5414 8.38145 15.9035L7.48366 17.5194H9.84887C10.1146 17.5194 10.3605 17.66 10.4953 17.889C10.63 18.1181 10.6335 18.4013 10.5045 18.6336L8.98761 21.3638C8.78644 21.7258 8.32984 21.8563 7.96776 21.6551C7.60567 21.4539 7.47523 20.9973 7.6764 20.6353L8.57419 19.0194H6.20898C5.94324 19.0194 5.69734 18.8787 5.56258 18.6497C5.42781 18.4207 5.42431 18.1374 5.55338 17.9051L7.07024 15.1749C7.27141 14.8129 7.72802 14.6824 8.0901 14.8836Z" fill="#000000" />
<path fill-rule="evenodd" clip-rule="evenodd" d="M10.6953 2.25C11.1095 2.25 11.4453 2.58579 11.4453 3V6.30908C11.4453 6.72329 11.1095 7.05908 10.6953 7.05908C10.2811 7.05908 9.94531 6.72329 9.94531 6.30908V3C9.94531 2.58579 10.2811 2.25 10.6953 2.25ZM15.7787 2.25C16.1929 2.25 16.5287 2.58579 16.5287 3V6.30908C16.5287 6.72329 16.1929 7.05908 15.7787 7.05908C15.3645 7.05908 15.0287 6.72329 15.0287 6.30908V3C15.0287 2.58579 15.3645 2.25 15.7787 2.25Z" fill="#000000" />
</svg>