<svg width="24px"  height="24px"  viewBox="0 0 25 24" fill="none" xmlns="http://www.w3.org/2000/svg">
<path fill-rule="evenodd" clip-rule="evenodd" d="M5.68046 3.58855C6.4835 2.72706 7.62355 2.25 8.95693 2.25H15.543C16.8793 2.25 18.0199 2.72674 18.8227 3.58881C19.6199 4.44486 20.0282 5.62001 20.0282 6.92497V17.075C20.0282 18.38 19.6199 19.5552 18.8226 20.4112C18.0196 21.2733 16.8787 21.75 15.542 21.75H8.95693C7.62063 21.75 6.48018 21.2732 5.67757 20.4111C4.88061 19.555 4.47266 18.3799 4.47266 17.075V6.92497C4.47266 5.61921 4.88287 4.4442 5.68046 3.58855ZM6.77769 4.61134C6.28196 5.14315 5.97266 5.93063 5.97266 6.92497V17.075C5.97266 18.0703 6.28081 18.8577 6.77547 19.389C7.26449 19.9143 7.99117 20.25 8.95693 20.25H15.542C16.5084 20.25 17.2356 19.9142 17.7249 19.3889C18.2199 18.8575 18.5282 18.0702 18.5282 17.075V6.92497C18.5282 5.92983 18.2199 5.14249 17.725 4.61108C17.2357 4.0857 16.5088 3.75 15.543 3.75H8.95693C7.99506 3.75 7.26797 4.08537 6.77769 4.61134Z" fill="#000000" />
<path fill-rule="evenodd" clip-rule="evenodd" d="M12.2511 15.4355C11.8065 15.4355 11.4463 15.796 11.4463 16.2394C11.4463 16.6827 11.8065 17.0432 12.2511 17.0432C12.695 17.0432 13.0549 16.6833 13.0549 16.2394C13.0549 15.7954 12.695 15.4355 12.2511 15.4355ZM9.94629 16.2394C9.94629 14.9664 10.9793 13.9355 12.2511 13.9355C13.5235 13.9355 14.5549 14.967 14.5549 16.2394C14.5549 17.5118 13.5235 18.5432 12.2511 18.5432C10.9793 18.5432 9.94629 17.5124 9.94629 16.2394Z" fill="#000000" />
<path fill-rule="evenodd" clip-rule="evenodd" d="M8.40629 6.26336C8.86138 5.83965 9.46927 5.63867 10.1091 5.63867H14.3931C15.0345 5.63867 15.6425 5.84127 16.0972 6.26517C16.5577 6.69448 16.8001 7.29492 16.8001 7.96489V9.78629C16.8001 10.4575 16.5581 11.0585 16.0967 11.4879C15.6414 11.9116 15.0333 12.1125 14.3931 12.1125H10.1091C9.46927 12.1125 8.86139 11.9115 8.40629 11.4878C7.94513 11.0585 7.70312 10.4575 7.70312 9.78629V7.96489C7.70312 7.29365 7.94513 6.69272 8.40629 6.26336ZM9.42842 7.3612C9.30409 7.47695 9.20312 7.66413 9.20312 7.96489V9.78629C9.20312 10.0871 9.30409 10.2742 9.42842 10.39C9.55881 10.5114 9.77892 10.6125 10.1091 10.6125H14.3931C14.724 10.6125 14.9444 10.5113 15.0748 10.3899C15.1991 10.2742 15.3001 10.087 15.3001 9.78629V7.96489C15.3001 7.66674 15.1996 7.47908 15.0743 7.36231C14.9433 7.24013 14.7227 7.13867 14.3931 7.13867H10.1091C9.77892 7.13867 9.55881 7.2398 9.42842 7.3612Z" fill="#000000" />
</svg>