<svg width="24px"  height="24px"  viewBox="0 0 25 24" fill="none" xmlns="http://www.w3.org/2000/svg">
<path fill-rule="evenodd" clip-rule="evenodd" d="M20.4995 4.85392C20.4995 3.87318 19.3139 3.38224 18.6206 4.07559L17.7999 4.89633V20.2495H19.3989C20.0073 20.2495 20.4995 19.7573 20.4995 19.1489V4.85392ZM16.2999 20.2495V6.39633L13.3815 9.31464V20.2495H16.2999ZM11.8815 20.2495V10.8146L8.96133 13.7348V20.2495H11.8815ZM7.46133 20.2495V15.2348L4.32559 18.3706C3.63224 19.0639 4.12318 20.2495 5.10392 20.2495H7.46133ZM16.5069 4.06796L3.26493 17.3099C1.62703 18.9478 2.78626 21.7495 5.10392 21.7495H19.3989C20.8357 21.7495 21.9995 20.5857 21.9995 19.1489V4.85392C21.9995 2.53626 19.1978 1.37703 17.5599 3.01493L16.5325 4.04241C16.5237 4.05072 16.5152 4.05924 16.5069 4.06796Z" fill="#000000" />
</svg>