<svg width="24px"  height="24px"  viewBox="0 0 25 24" fill="none" xmlns="http://www.w3.org/2000/svg">
<path fill-rule="evenodd" clip-rule="evenodd" d="M11.7203 2.32404C11.9802 2.19915 12.2886 2.23424 12.5137 2.41433L18.1346 6.91043C18.3124 7.05269 18.416 7.26805 18.4161 7.4958C18.4162 7.72354 18.3128 7.93899 18.1351 8.0814L13.2453 11.9995L18.1346 15.9104C18.3124 16.0527 18.416 16.2681 18.4161 16.4958C18.4162 16.7235 18.3128 16.939 18.1351 17.0814L12.5142 21.5853C12.2891 21.7656 11.9806 21.8009 11.7206 21.6761C11.4606 21.5513 11.2952 21.2884 11.2952 21V13.5591L7.82557 16.331C7.50195 16.5895 7.03001 16.5367 6.77148 16.2131C6.51294 15.8895 6.56571 15.4175 6.88933 15.159L10.8445 11.9993L6.88866 8.83172C6.56533 8.57281 6.51311 8.10082 6.77201 7.77749C7.03092 7.45416 7.50291 7.40194 7.82624 7.66084L11.2952 10.4386V3.00001C11.2952 2.71171 11.4605 2.44893 11.7203 2.32404ZM12.7952 13.5603L16.4661 16.4966L12.7952 19.438V13.5603ZM12.7952 10.438V4.56035L16.4661 7.49662L12.7952 10.438Z" fill="#000000" />
<path fill-rule="evenodd" clip-rule="evenodd" d="M5.85254 10.998C6.40482 10.998 6.85254 11.4458 6.85254 11.998V12.0924C6.85254 12.6447 6.40482 13.0924 5.85254 13.0924C5.30025 13.0924 4.85254 12.6447 4.85254 12.0924V11.998C4.85254 11.4458 5.30025 10.998 5.85254 10.998ZM18.6475 10.998C19.1998 10.998 19.6475 11.4458 19.6475 11.998V12.0924C19.6475 12.6447 19.1998 13.0924 18.6475 13.0924C18.0952 13.0924 17.6475 12.6447 17.6475 12.0924V11.998C17.6475 11.4458 18.0952 10.998 18.6475 10.998Z" fill="#000000" />
</svg>