<svg width="24px"  height="24px"  viewBox="0 0 25 24" fill="none" xmlns="http://www.w3.org/2000/svg">
<path fill-rule="evenodd" clip-rule="evenodd" d="M8.77435 2.32389C9.03437 2.19906 9.34292 2.23439 9.56798 2.41477L15.1888 6.91964C15.3666 7.06206 15.4699 7.27752 15.4698 7.50527C15.4697 7.73301 15.3661 7.94836 15.1882 8.0906L10.2942 12.0044L15.1883 15.9192C15.3662 16.0615 15.4698 16.277 15.4698 16.5049C15.4698 16.7328 15.3662 16.9483 15.1882 17.0906L9.56737 21.5857C9.34223 21.7658 9.03381 21.8009 8.774 21.676C8.51418 21.5511 8.34894 21.2883 8.34894 21V13.5679L4.87928 16.3397C4.55566 16.5982 4.08372 16.5455 3.82519 16.2219C3.56665 15.8982 3.61942 15.4263 3.94304 15.1678L7.89819 12.0081L3.94237 8.84047C3.61904 8.58157 3.56682 8.10957 3.82572 7.78625C4.08463 7.46292 4.55662 7.41069 4.87995 7.6696L8.34894 10.4474V3.00001C8.34894 2.71158 8.51434 2.44871 8.77435 2.32389ZM9.84894 13.5691L13.519 16.5048L9.84894 19.4399V13.5691ZM9.84894 10.4399V4.56225L13.5198 7.50424L9.84894 10.4399ZM18.0804 7.21966C18.3974 6.95302 18.8705 6.99384 19.1372 7.31083C21.4134 10.0169 21.4023 13.9963 19.1272 16.6987C18.8604 17.0156 18.3873 17.0562 18.0704 16.7894C17.7536 16.5226 17.713 16.0495 17.9797 15.7326C19.7872 13.5857 19.7937 10.4215 17.9893 8.27639C17.7226 7.95941 17.7634 7.48629 18.0804 7.21966ZM15.6408 9.98931C15.9337 9.69642 16.4085 9.69642 16.7014 9.98931C17.8136 11.1014 17.8136 12.9044 16.7014 14.0166C16.4085 14.3095 15.9337 14.3095 15.6408 14.0166C15.3479 13.7237 15.3479 13.2488 15.6408 12.9559C16.1671 12.4296 16.1671 11.5763 15.6408 11.05C15.3479 10.7571 15.3479 10.2822 15.6408 9.98931Z" fill="#000000" />
</svg>