<svg width="24px"  height="24px"  viewBox="0 0 25 24" fill="none" xmlns="http://www.w3.org/2000/svg">
<path fill-rule="evenodd" clip-rule="evenodd" d="M3.9902 3.89737C4.97468 2.84117 6.37669 2.25 8.03216 2.25H16.4669C18.1262 2.25 19.5288 2.84084 20.5129 3.89765C21.4913 4.94841 22 6.39889 22 8.02638V15.9736C22 17.6011 21.4913 19.0516 20.5127 20.1024C19.5285 21.1592 18.1257 21.75 16.4659 21.75H8.03216C6.37237 21.75 4.9699 21.1592 3.98617 20.1022C3.00811 19.0514 2.5 17.6009 2.5 15.9736V8.02638C2.5 6.39806 3.01117 4.94771 3.9902 3.89737ZM5.08745 4.92012C4.41024 5.64667 4 6.70951 4 8.02638V15.9736C4 17.2915 4.40843 18.3542 5.08418 19.0803C5.75426 19.8002 6.74287 20.25 8.03216 20.25H16.4659C17.7552 20.25 18.7444 19.8002 19.415 19.0801C20.0912 18.354 20.5 17.2913 20.5 15.9736V8.02638C20.5 6.70868 20.0912 5.64597 19.4151 4.91984C18.7446 4.19975 17.7556 3.75 16.4669 3.75H8.03216C6.74828 3.75 5.75921 4.19943 5.08745 4.92012ZM12.25 5.69626C12.449 5.69627 12.6398 5.77533 12.7805 5.91606L13.9129 7.04907C14.2058 7.34204 14.2056 7.81691 13.9127 8.10973C13.6651 8.35716 13.2877 8.39544 13 8.22463V11.1359L14.9743 10.4498C15.1657 10.3833 15.2946 10.2026 15.2946 9.99939V9.06825C15.2946 8.65404 15.6304 8.31825 16.0446 8.31825C16.4588 8.31825 16.7946 8.65404 16.7946 9.06825V9.99939C16.7946 10.841 16.2617 11.5905 15.4667 11.8666C15.4666 11.8667 15.4668 11.8666 15.4667 11.8666L13 12.7239V13.7968C13.0004 13.8114 13.0004 13.8261 13 13.8408V14.8418C13.6266 15.1273 14.0607 15.7597 14.0607 16.4921C14.0607 17.4916 13.2506 18.3036 12.2492 18.3036C11.2479 18.3036 10.4377 17.4916 10.4377 16.4921C10.4377 15.7588 10.8733 15.127 11.5 14.8417V14.4103L9.17303 13.8502C8.2745 13.6349 7.64231 12.8306 7.64231 11.9085V11.0085C7.64231 10.5943 7.9781 10.2585 8.39231 10.2585C8.80653 10.2585 9.14231 10.5943 9.14231 11.0085V11.9085C9.14231 12.1384 9.30018 12.3382 9.52252 12.3915L11.5 12.8674V12.2079C11.4997 12.1963 11.4997 12.1847 11.5 12.1731V8.22456C11.2122 8.39546 10.8347 8.35719 10.5872 8.10971C10.2942 7.81687 10.2941 7.34199 10.587 7.04905L11.7196 5.91603C11.8602 5.77531 12.0511 5.69626 12.25 5.69626ZM12.25 16.1797C12.0776 16.1797 11.9377 16.3195 11.9377 16.4921C11.9377 16.6641 12.0772 16.8036 12.2492 16.8036C12.4213 16.8036 12.5607 16.6641 12.5607 16.4921C12.5607 16.3181 12.421 16.1797 12.25 16.1797Z" fill="#000000" />
</svg>