<svg width="24px"  height="24px"  viewBox="0 0 25 24" fill="none" xmlns="http://www.w3.org/2000/svg">
<path fill-rule="evenodd" clip-rule="evenodd" d="M4.18457 6.72065C4.18457 4.25152 6.18609 2.25 8.65522 2.25H13.7234C14.4861 2.25 15.2158 2.5609 15.7437 3.11139L19.535 7.06036C20.0345 7.58104 20.3152 8.27603 20.3152 8.99935V17.2794C20.3152 19.7485 18.3136 21.75 15.8445 21.75H8.65425C6.1846 21.75 4.18457 19.747 4.18457 17.2784V6.72065ZM8.65522 3.75C7.01451 3.75 5.68457 5.07994 5.68457 6.72065V17.2784C5.68457 18.9196 7.01405 20.25 8.65425 20.25H15.8445C17.4852 20.25 18.8152 18.9201 18.8152 17.2794V8.99935C18.8152 8.66408 18.685 8.34108 18.4528 8.09895L14.6613 4.14991C14.4167 3.89477 14.0778 3.75 13.7234 3.75H8.65522ZM10.2714 9.80606C10.2714 9.39185 10.6071 9.05606 11.0214 9.05606H12.4108C13.7581 9.05606 14.8508 10.1488 14.8508 11.4961C14.8508 12.8441 13.7583 13.9371 12.4108 13.9371H11.7714V15.4405C11.7714 15.8548 11.4356 16.1905 11.0214 16.1905C10.6071 16.1905 10.2714 15.8548 10.2714 15.4405V9.80606ZM11.7714 12.4371H12.4108C12.9293 12.4371 13.3508 12.0162 13.3508 11.4961C13.3508 10.9772 12.9296 10.5561 12.4108 10.5561H11.7714V12.4371Z" fill="#000000" />
</svg>