<svg width="24px"  height="24px"  viewBox="0 0 25 24" fill="none" xmlns="http://www.w3.org/2000/svg">
<path fill-rule="evenodd" clip-rule="evenodd" d="M4.18457 6.72065C4.18457 4.25152 6.18609 2.25 8.65522 2.25H13.7234C14.4861 2.25 15.2158 2.5609 15.7437 3.11139L19.535 7.06036C20.0345 7.58104 20.3152 8.27603 20.3152 8.99935V17.2794C20.3152 19.7485 18.3136 21.75 15.8445 21.75H8.65425C6.1846 21.75 4.18457 19.747 4.18457 17.2784V6.72065ZM8.65522 3.75C7.01451 3.75 5.68457 5.07994 5.68457 6.72065V17.2784C5.68457 18.9196 7.01405 20.25 8.65425 20.25H15.8445C17.4852 20.25 18.8152 18.9201 18.8152 17.2794V8.99935C18.8152 8.66408 18.685 8.34108 18.4528 8.09895L14.6613 4.14991C14.4167 3.89477 14.0778 3.75 13.7234 3.75H8.65522ZM12.6064 9.6104C12.8492 9.74123 13.0007 9.99483 13.0007 10.2707V15.2727C13.0007 15.687 12.6649 16.0227 12.2507 16.0227C11.8365 16.0227 11.5007 15.687 11.5007 15.2727V11.663L11.2116 11.8534C10.8658 12.0813 10.4006 11.9856 10.1727 11.6398C9.94484 11.2939 10.0405 10.8287 10.3864 10.6008L11.8381 9.6444C12.0684 9.49263 12.3635 9.47957 12.6064 9.6104Z" fill="#000000" />
</svg>