<svg width="24px"  height="24px"  viewBox="0 0 25 24" fill="none" xmlns="http://www.w3.org/2000/svg">
<path fill-rule="evenodd" clip-rule="evenodd" d="M7.59146 2.47556C7.8811 2.17945 8.35594 2.1742 8.65205 2.46384L10.166 3.94472C10.3082 4.08384 10.3894 4.27377 10.3915 4.47271C10.3937 4.67166 10.3167 4.86331 10.1776 5.00549L8.69571 6.51945C8.40597 6.81546 7.93112 6.82055 7.63511 6.53082C7.33909 6.24108 7.334 5.76623 7.62374 5.47022L7.87101 5.21758C6.33381 5.34301 5.12442 6.63121 5.12442 8.20062C5.12442 8.61484 4.78863 8.95062 4.37442 8.95062C3.96021 8.95062 3.62442 8.61484 3.62442 8.20062C3.62442 5.82979 5.46218 3.88691 7.79041 3.7193L7.60317 3.53616C7.30706 3.24652 7.30182 2.77167 7.59146 2.47556ZM12.5314 4.8175C12.5314 3.39989 13.6808 2.25095 15.0989 2.25095H17.5742C18.0504 2.25095 18.5066 2.44487 18.837 2.7889L20.6887 4.71742C21.0008 5.04313 21.1769 5.47738 21.1769 5.93059V9.9743C21.1769 11.3919 20.0275 12.5408 18.6094 12.5408H15.0989C13.6808 12.5408 12.5314 11.3919 12.5314 9.9743V4.8175ZM15.0989 3.75095C14.5087 3.75095 14.0314 4.22884 14.0314 4.8175V9.9743C14.0314 10.563 14.5087 11.0408 15.0989 11.0408H18.6094C19.1996 11.0408 19.6769 10.563 19.6769 9.9743V5.93059C19.6769 5.86618 19.6521 5.8037 19.6062 5.75579L17.7552 3.82792C17.7081 3.77887 17.6427 3.75095 17.5742 3.75095H15.0989ZM3.32227 14.0266C3.32227 12.609 4.47172 11.4601 5.88979 11.4601H8.36505C8.84133 11.4601 9.29753 11.654 9.62794 11.998L11.4796 13.9265C11.7917 14.2522 11.9678 14.6865 11.9678 15.1397V19.1834C11.9678 20.601 10.8184 21.7499 9.4003 21.7499H5.88979C4.47172 21.7499 3.32227 20.601 3.32227 19.1834V14.0266ZM5.88979 12.9601C5.29963 12.9601 4.82227 13.4379 4.82227 14.0266V19.1834C4.82227 19.7721 5.29963 20.2499 5.88979 20.2499H9.4003C9.99046 20.2499 10.4678 19.7721 10.4678 19.1834V15.1397C10.4678 15.0753 10.443 15.0129 10.3972 14.965C10.3971 14.9649 10.3972 14.965 10.3972 14.965L8.54607 13.037C8.54605 13.037 8.54609 13.037 8.54607 13.037C8.49896 12.988 8.43361 12.9601 8.36505 12.9601H5.88979ZM19.9585 15.0498C20.3727 15.0498 20.7085 15.3856 20.7085 15.7998C20.7085 18.1704 18.8711 20.1132 16.5431 20.2811L16.73 20.464C17.026 20.7538 17.0311 21.2286 16.7414 21.5246C16.4516 21.8206 15.9768 21.8257 15.6808 21.536L14.1668 20.0541C14.0246 19.915 13.9436 19.725 13.9415 19.5261C13.9394 19.3271 14.0164 19.1355 14.1556 18.9934L15.6375 17.4804C15.9273 17.1845 16.4021 17.1795 16.6981 17.4694C16.994 17.7592 16.9989 18.234 16.7091 18.53L16.4614 18.7829C17.9988 18.6577 19.2085 17.3694 19.2085 15.7998C19.2085 15.3856 19.5443 15.0498 19.9585 15.0498Z" fill="#000000" />
</svg>