<svg width="24px"  height="24px"  viewBox="0 0 25 24" fill="none" xmlns="http://www.w3.org/2000/svg">
<path fill-rule="evenodd" clip-rule="evenodd" d="M4.18457 6.72065C4.18457 4.25152 6.18609 2.25 8.65522 2.25H13.7234C14.4861 2.25 15.2158 2.5609 15.7437 3.11139L19.535 7.06036C20.0345 7.58104 20.3152 8.27603 20.3152 8.99935V17.2794C20.3152 19.7485 18.3136 21.75 15.8445 21.75H8.65425C6.1846 21.75 4.18457 19.747 4.18457 17.2784V6.72065ZM8.65522 3.75C7.01451 3.75 5.68457 5.07994 5.68457 6.72065V17.2784C5.68457 18.9196 7.01405 20.25 8.65425 20.25H15.8445C17.4852 20.25 18.8152 18.9201 18.8152 17.2794V8.99935C18.8152 8.66408 18.685 8.34108 18.4528 8.09895L14.6613 4.14991C14.4167 3.89477 14.0778 3.75 13.7234 3.75H8.65522ZM12.2499 8.37479C12.6641 8.37479 12.9999 8.71058 12.9999 9.12479V12.5983C12.9999 13.0125 12.6641 13.3483 12.2499 13.3483C11.8357 13.3483 11.4999 13.0125 11.4999 12.5983V9.12479C11.4999 8.71058 11.8357 8.37479 12.2499 8.37479ZM12.2452 14.8195C12.6594 14.8195 12.9952 15.1553 12.9952 15.5695V15.6347C12.9952 16.0489 12.6594 16.3847 12.2452 16.3847C11.831 16.3847 11.4952 16.0489 11.4952 15.6347V15.5695C11.4952 15.1553 11.831 14.8195 12.2452 14.8195Z" fill="#000000" />
</svg>