<svg width="24px"  height="24px"  viewBox="0 0 25 24" fill="none" xmlns="http://www.w3.org/2000/svg">
<path fill-rule="evenodd" clip-rule="evenodd" d="M4.18457 6.72065C4.18457 4.25152 6.18609 2.25 8.65522 2.25H13.7234C14.4861 2.25 15.2158 2.5609 15.7437 3.11139L19.535 7.06036C20.0345 7.58104 20.3152 8.27603 20.3152 8.99935V17.2794C20.3152 19.7485 18.3136 21.75 15.8445 21.75H8.65425C6.1846 21.75 4.18457 19.747 4.18457 17.2784V6.72065ZM8.65522 3.75C7.01451 3.75 5.68457 5.07994 5.68457 6.72065V17.2784C5.68457 18.9196 7.01405 20.25 8.65425 20.25H15.8445C17.4852 20.25 18.8152 18.9201 18.8152 17.2794V8.99935C18.8152 8.66408 18.685 8.34108 18.4528 8.09895L14.6613 4.14991C14.4167 3.89477 14.0778 3.75 13.7234 3.75H8.65522ZM9.78679 11.6854C9.65245 11.8297 9.54416 12.0693 9.54416 12.4221V13.1812H11.499V11.4383H10.4443C10.1213 11.4383 9.91553 11.5472 9.78679 11.6854ZM10.4443 9.93829C9.75059 9.93829 9.13127 10.1884 8.68912 10.6631C8.25257 11.1319 8.04416 11.7592 8.04416 12.4221V15.4403C8.04416 16.1032 8.25257 16.7306 8.68912 17.1993C9.13127 17.674 9.75059 17.9241 10.4443 17.9241H14.0531C14.7471 17.9241 15.3666 17.6741 15.8087 17.1992C16.2452 16.7303 16.4532 16.1029 16.4532 15.4403V12.4221C16.4532 11.7583 16.2436 11.1311 15.8069 10.6628C15.3647 10.1887 14.7458 9.93829 14.0531 9.93829H10.4443ZM12.999 11.4383V13.1812H14.9532V12.4221C14.9532 12.0702 14.8448 11.8305 14.7098 11.6858C14.5803 11.5469 14.3742 11.4383 14.0531 11.4383H12.999ZM14.9532 14.6812H12.999V16.4241H14.0531C14.3767 16.4241 14.5824 16.3151 14.7109 16.1771C14.845 16.033 14.9532 15.7934 14.9532 15.4403V14.6812ZM11.499 16.4241V14.6812H9.54416V15.4403C9.54416 15.7931 9.65245 16.0327 9.78679 16.177C9.91553 16.3152 10.1213 16.4241 10.4443 16.4241H11.499Z" fill="#000000" />
</svg>