<svg width="24px"  height="24px"  viewBox="0 0 25 24" fill="none" xmlns="http://www.w3.org/2000/svg">
<path fill-rule="evenodd" clip-rule="evenodd" d="M4.18457 6.72065C4.18457 4.25152 6.18609 2.25 8.65522 2.25H13.7234C14.4861 2.25 15.2158 2.5609 15.7437 3.11139L19.535 7.06036C20.0345 7.58104 20.3152 8.27603 20.3152 8.99935V17.2794C20.3152 19.7485 18.3136 21.75 15.8445 21.75H8.65425C6.1846 21.75 4.18457 19.747 4.18457 17.2784V6.72065ZM8.65522 3.75C7.01451 3.75 5.68457 5.07994 5.68457 6.72065V17.2784C5.68457 18.9196 7.01405 20.25 8.65425 20.25H15.8445C17.4852 20.25 18.8152 18.9201 18.8152 17.2794V8.99935C18.8152 8.66408 18.685 8.34108 18.4528 8.09895L14.6613 4.14991C14.4167 3.89477 14.0778 3.75 13.7234 3.75H8.65522ZM12.2504 11.4853L12.5338 12.0512C12.5341 12.0518 12.5344 12.0524 12.5347 12.0529C12.7044 12.3937 13.0301 12.6245 13.4012 12.6774C13.4009 12.6774 13.4015 12.6774 13.4012 12.6774L14.0183 12.7661L13.5799 13.1877C13.58 13.1876 13.5797 13.1879 13.5799 13.1877C13.308 13.4487 13.1785 13.8306 13.2442 14.2081L13.3506 14.8169L12.7857 14.5245C12.7849 14.5241 12.7841 14.5237 12.7833 14.5232C12.4481 14.3483 12.0509 14.3499 11.7179 14.5229C11.7182 14.5227 11.7177 14.523 11.7179 14.5229L11.1494 14.8176L11.2545 14.2135C11.2547 14.2126 11.2548 14.2116 11.255 14.2107C11.3225 13.8309 11.1929 13.4487 10.9207 13.1877L10.4813 12.7665L11.0975 12.6775C11.0979 12.6775 11.0983 12.6774 11.0987 12.6773M9.75695 12.871C9.75406 12.8714 9.75117 12.8718 9.74826 12.8722L9.75695 12.871ZM11.2257 10.1812C11.5197 9.61538 12.216 9.39564 12.7807 9.68769L12.7854 9.69015C12.989 9.79733 13.1647 9.96675 13.2766 10.1846L13.2799 10.1912L13.7944 11.2185L14.9445 11.3837C15.5681 11.4685 16.0081 12.0425 15.9243 12.6694M11.2257 10.1812L10.7066 11.2184L11.2257 10.1812Z" fill="#000000" />
</svg>