<svg width="24px"  height="24px"  viewBox="0 0 25 24" fill="none" xmlns="http://www.w3.org/2000/svg">
<path fill-rule="evenodd" clip-rule="evenodd" d="M4.18457 6.72065C4.18457 4.25152 6.18609 2.25 8.65522 2.25H13.7234C14.4861 2.25 15.2158 2.5609 15.7437 3.11139L19.535 7.06036C20.0345 7.58104 20.3152 8.27603 20.3152 8.99935V17.2794C20.3152 19.7485 18.3136 21.75 15.8445 21.75H8.65425C6.1846 21.75 4.18457 19.747 4.18457 17.2784V6.72065ZM8.65522 3.75C7.01451 3.75 5.68457 5.07994 5.68457 6.72065V17.2784C5.68457 18.9196 7.01405 20.25 8.65425 20.25H15.8445C17.4852 20.25 18.8152 18.9201 18.8152 17.2794V8.99935C18.8152 8.66408 18.685 8.34108 18.4528 8.09895L14.6613 4.14991C14.4167 3.89477 14.0778 3.75 13.7234 3.75H8.65522ZM9.78774 12.6332C9.6534 12.7775 9.54511 13.0171 9.54511 13.3699V15.4404C9.54511 15.7939 9.65348 16.0334 9.78764 16.1773C9.91622 16.3154 10.1219 16.4242 10.4453 16.4242H14.054C14.378 16.4242 14.5836 16.3153 14.7119 16.1775C14.8459 16.0336 14.9542 15.7942 14.9542 15.4404V13.3699C14.9542 13.018 14.8457 12.7783 14.7108 12.6336C14.5813 12.4947 14.3751 12.3861 14.054 12.3861H10.4453C10.1222 12.3861 9.91648 12.495 9.78774 12.6332ZM8.69007 11.6109C9.13222 11.1362 9.75154 10.8861 10.4453 10.8861H14.054C14.7468 10.8861 15.3657 11.1365 15.8078 11.6106C16.2445 12.0789 16.4542 12.7061 16.4542 13.3699V15.4404C16.4542 16.1034 16.2463 16.7309 15.8096 17.1998C15.3673 17.6747 14.7478 17.9242 14.054 17.9242H10.4453C9.75184 17.9242 9.13248 17.6746 8.69017 17.1999C8.25344 16.7311 8.04511 16.1037 8.04511 15.4404V13.3699C8.04511 12.707 8.25352 12.0797 8.69007 11.6109Z" fill="#000000" />
</svg>