<svg width="24px"  height="24px"  viewBox="0 0 25 24" fill="none" xmlns="http://www.w3.org/2000/svg">
<path fill-rule="evenodd" clip-rule="evenodd" d="M4.18457 6.72065C4.18457 4.25152 6.18609 2.25 8.65522 2.25H13.7234C14.4861 2.25 15.2158 2.5609 15.7437 3.11139L19.535 7.06036C20.0345 7.58104 20.3152 8.27603 20.3152 8.99935V17.2794C20.3152 19.7485 18.3136 21.75 15.8445 21.75H8.65425C6.1846 21.75 4.18457 19.747 4.18457 17.2784V6.72065ZM8.65522 3.75C7.01451 3.75 5.68457 5.07994 5.68457 6.72065V17.2784C5.68457 18.9196 7.01405 20.25 8.65425 20.25H15.8445C17.4852 20.25 18.8152 18.9201 18.8152 17.2794V8.99935C18.8152 8.66408 18.685 8.34108 18.4528 8.09895L14.6613 4.14991C14.4167 3.89477 14.0778 3.75 13.7234 3.75H8.65522ZM9.35191 10.8718C9.76612 10.8718 10.1019 11.2076 10.1019 11.6218V13.7818C10.1019 14.196 9.76612 14.5318 9.35191 14.5318C8.93769 14.5318 8.60191 14.196 8.60191 13.7818V11.6218C8.60191 11.2076 8.93769 10.8718 9.35191 10.8718ZM15.147 10.8718C15.5612 10.8718 15.897 11.2076 15.897 11.6218V13.7818C15.897 14.196 15.5612 14.5318 15.147 14.5318C14.7328 14.5318 14.397 14.196 14.397 13.7818V11.6218C14.397 11.2076 14.7328 10.8718 15.147 10.8718ZM12.2661 10.8719C12.6803 10.8719 13.0161 11.2077 13.0161 11.6219V12.1025C13.0161 12.5168 12.6803 12.8525 12.2661 12.8525C11.8519 12.8525 11.5161 12.5168 11.5161 12.1025V11.6219C11.5161 11.2077 11.8519 10.8719 12.2661 10.8719ZM12.2661 14.2905C12.6803 14.2905 13.0161 14.6263 13.0161 15.0405V17.2005C13.0161 17.6148 12.6803 17.9505 12.2661 17.9505C11.8519 17.9505 11.5161 17.6148 11.5161 17.2005V15.0405C11.5161 14.6263 11.8519 14.2905 12.2661 14.2905ZM9.35191 15.9705C9.76612 15.9705 10.1019 16.3063 10.1019 16.7205V17.2012C10.1019 17.6154 9.76612 17.9512 9.35191 17.9512C8.93769 17.9512 8.60191 17.6154 8.60191 17.2012V16.7205C8.60191 16.3063 8.93769 15.9705 9.35191 15.9705ZM15.147 15.9705C15.5612 15.9705 15.897 16.3063 15.897 16.7205V17.2012C15.897 17.6154 15.5612 17.9512 15.147 17.9512C14.7328 17.9512 14.397 17.6154 14.397 17.2012V16.7205C14.397 16.3063 14.7328 15.9705 15.147 15.9705Z" fill="#000000" />
</svg>