<svg width="24px"  height="24px"  viewBox="0 0 25 24" fill="none" xmlns="http://www.w3.org/2000/svg">
<path fill-rule="evenodd" clip-rule="evenodd" d="M4.18457 6.72065C4.18457 4.25152 6.18609 2.25 8.65522 2.25H13.7234C14.4861 2.25 15.2158 2.5609 15.7437 3.11139L19.535 7.06036C20.0345 7.58104 20.3152 8.27603 20.3152 8.99935V17.2794C20.3152 19.7485 18.3136 21.75 15.8445 21.75H8.65425C6.1857 21.75 4.18457 19.7471 4.18457 17.2784V6.72065ZM8.65522 3.75C7.01451 3.75 5.68457 5.07994 5.68457 6.72065V17.2784C5.68457 18.9195 7.0149 20.25 8.65425 20.25H15.8445C17.4852 20.25 18.8152 18.9201 18.8152 17.2794V8.99935C18.8152 8.66408 18.685 8.34108 18.4528 8.09895L14.6613 4.14991C14.4167 3.89477 14.0778 3.75 13.7234 3.75H8.65522ZM12.2492 10.7133C11.8529 10.7133 11.531 11.0353 11.531 11.4315C11.531 11.8457 11.1952 12.1815 10.781 12.1815C10.3667 12.1815 10.031 11.8457 10.031 11.4315C10.031 10.2068 11.0245 9.21331 12.2492 9.21331C13.4739 9.21331 14.4674 10.2068 14.4674 11.4315C14.4674 12.1242 14.1782 12.6442 13.8043 13.0408C13.4923 13.3717 13.0937 13.6421 12.7706 13.8613C12.7368 13.8842 12.7039 13.9066 12.672 13.9283C12.2635 14.2072 11.9627 14.4354 11.7728 14.6902H13.7174C14.1316 14.6902 14.4674 15.026 14.4674 15.4402C14.4674 15.8544 14.1316 16.1902 13.7174 16.1902H10.781C10.3667 16.1902 10.031 15.8544 10.031 15.4402C10.031 13.9215 11.112 13.177 11.8264 12.6894C11.8513 12.6724 11.8757 12.6557 11.8998 12.6394C12.2583 12.395 12.5197 12.2167 12.7128 12.0119C12.8895 11.8245 12.9674 11.6563 12.9674 11.4315C12.9674 11.0353 12.6454 10.7133 12.2492 10.7133Z" fill="#000000" />
</svg>