<svg width="24px"  height="24px"  viewBox="0 0 25 24" fill="none" xmlns="http://www.w3.org/2000/svg">
<path fill-rule="evenodd" clip-rule="evenodd" d="M4.18457 6.72065C4.18457 4.25152 6.18609 2.25 8.65522 2.25H13.7234C14.4861 2.25 15.2158 2.5609 15.7437 3.11139L19.535 7.06036C20.0345 7.58104 20.3152 8.27603 20.3152 8.99935V17.2794C20.3152 19.7485 18.3136 21.75 15.8445 21.75H8.65425C6.1846 21.75 4.18457 19.747 4.18457 17.2784V6.72065ZM8.65522 3.75C7.01451 3.75 5.68457 5.07994 5.68457 6.72065V17.2784C5.68457 18.9196 7.01405 20.25 8.65425 20.25H15.8445C17.4852 20.25 18.8152 18.9201 18.8152 17.2794V8.99935C18.8152 8.66408 18.685 8.34108 18.4528 8.09895L14.6613 4.14991C14.4167 3.89477 14.0778 3.75 13.7234 3.75H8.65522ZM9.6367 12.9905H11.147C11.5613 12.9905 11.897 12.6547 11.897 12.2405C11.897 11.9333 11.7124 11.6693 11.4481 11.5533C11.6532 11.4845 11.8726 11.4473 12.1005 11.4473C13.2343 11.4473 14.1537 12.3667 14.1537 13.5005C14.1537 14.6342 13.2343 15.5536 12.1005 15.5536C11.357 15.5536 10.7047 15.1582 10.3435 14.5623C10.1288 14.2081 9.66755 14.0951 9.31334 14.3098C8.95914 14.5245 8.84607 14.9858 9.06081 15.34C9.68227 16.3651 10.8105 17.0536 12.1005 17.0536C14.0627 17.0536 15.6537 15.4627 15.6537 13.5005C15.6537 11.5382 14.0627 9.94732 12.1005 9.94732C11.4428 9.94732 10.827 10.1263 10.299 10.4378C10.1934 10.1515 9.91814 9.94732 9.59515 9.94732C9.18094 9.94732 8.84515 10.2831 8.84515 10.6973V12.2405C8.84515 12.4156 8.90519 12.5767 9.00581 12.7044C9.07176 12.7886 9.15685 12.8599 9.2587 12.9112C9.38005 12.9724 9.51012 12.9974 9.6367 12.9905Z" fill="#000000" />
</svg>