<svg width="24px"  height="24px"  viewBox="0 0 25 24" fill="none" xmlns="http://www.w3.org/2000/svg">
<path fill-rule="evenodd" clip-rule="evenodd" d="M4.18457 6.72065C4.18457 4.25152 6.18609 2.25 8.65522 2.25H13.7234C14.4861 2.25 15.2158 2.5609 15.7437 3.11139L19.535 7.06036C20.0345 7.58104 20.3152 8.27603 20.3152 8.99935V17.2794C20.3152 19.7485 18.3136 21.75 15.8445 21.75H8.65425C6.1846 21.75 4.18457 19.747 4.18457 17.2784V6.72065ZM8.65522 3.75C7.01451 3.75 5.68457 5.07994 5.68457 6.72065V17.2784C5.68457 18.9196 7.01405 20.25 8.65425 20.25H15.8445C17.4852 20.25 18.8152 18.9201 18.8152 17.2794V8.99935C18.8152 8.66408 18.685 8.34108 18.4528 8.09895L14.6613 4.14991C14.4167 3.89477 14.0778 3.75 13.7234 3.75H8.65522ZM14.3444 10.7599C14.6373 11.0528 14.6373 11.5277 14.3444 11.8206L13.3095 12.8555L14.3435 13.8895C14.6363 14.1823 14.6363 14.6572 14.3435 14.9501C14.0506 15.243 13.5757 15.243 13.2828 14.9501L12.2488 13.9161L11.2153 14.9496C10.9224 15.2425 10.4476 15.2425 10.1547 14.9496C9.86177 14.6567 9.86177 14.1819 10.1547 13.889L11.1882 12.8555L10.1537 11.821C9.86082 11.5281 9.86082 11.0533 10.1537 10.7604C10.4466 10.4675 10.9215 10.4675 11.2144 10.7604L12.2488 11.7948L13.2837 10.7599C13.5766 10.467 14.0515 10.467 14.3444 10.7599Z" fill="#000000" />
</svg>