<svg width="24px"  height="24px"  viewBox="0 0 25 24" fill="none" xmlns="http://www.w3.org/2000/svg">
<path d="M20.2429 4.74007C20.1106 4.87093 19.9294 4.95296 19.7282 4.95687L18.9524 4.97249C22.1872 8.01546 23.0022 12.9959 20.6452 16.9764C18.9572 19.828 16.0373 21.4979 12.9685 21.7147C12.5544 21.742 12.1965 21.4315 12.1672 21.0174C12.1384 20.6053 12.4504 20.2459 12.8635 20.2186C15.4621 20.035 17.9284 18.6209 19.3542 16.2108C21.3791 12.7948 20.6364 8.5057 17.7946 5.94515L17.8142 6.93538C17.8225 7.34945 17.4934 7.69124 17.0793 7.69906C16.6652 7.70687 16.3225 7.37874 16.3142 6.96468L16.2614 4.27718C16.257 4.07796 16.3322 3.88656 16.4704 3.74202C16.6081 3.59945 16.7971 3.51546 16.9963 3.51156L19.6994 3.45882C20.1135 3.45101 20.4553 3.77913 20.4631 4.1932C20.468 4.40609 20.383 4.59945 20.2429 4.74007Z" fill="#000000" />
<path d="M4.28048 20.0272C4.25949 19.6131 4.57834 19.2616 4.99142 19.2401L5.76339 19.201C2.43917 16.2577 1.47384 11.3065 3.71017 7.2557C5.31027 4.35531 8.17843 2.59749 11.2404 2.2889C11.6521 2.24788 12.0202 2.54867 12.0612 2.95882C12.1032 3.37093 11.8025 3.74007 11.3903 3.78109C8.79855 4.04085 6.37619 5.52913 5.02316 7.98031C3.10324 11.4608 3.9758 15.7264 6.89523 18.1991L6.84543 17.2069C6.82541 16.7928 7.14328 16.4412 7.55734 16.4217C7.9714 16.4002 8.32345 16.7186 8.34445 17.1326L8.47824 19.8162C8.49923 20.2303 8.18039 20.5819 7.76632 20.6034L5.06613 20.7381C4.65353 20.7596 4.3005 20.4412 4.28048 20.0272Z" fill="#000000" />
<path fill-rule="evenodd" clip-rule="evenodd" d="M13.8386 7.86507C13.9221 7.92367 14.0007 7.99007 14.0725 8.06429L15.6194 9.67562C15.9055 9.97249 16.0612 10.369 16.0612 10.7752V14.1561C16.0612 14.9569 15.6462 15.66 15.0197 16.0643C14.6657 16.2928 14.2444 16.4256 13.7922 16.4256H10.8581C9.60519 16.4256 8.58908 15.408 8.58908 14.1561V9.84554C8.58908 9.2596 8.81125 8.72445 9.17599 8.3221C9.59103 7.86312 10.1911 7.57601 10.8581 7.57601H12.9275C13.2551 7.57601 13.573 7.67757 13.8386 7.86507ZM12.9895 9.10335C12.9743 9.08577 12.9524 9.07601 12.9275 9.07601H10.8581C10.4333 9.07601 10.0891 9.41976 10.0891 9.84554V14.1561C10.0891 14.5799 10.4333 14.9256 10.8581 14.9256H13.7922C14.2175 14.9256 14.5612 14.5799 14.5612 14.1561V10.7752C14.5612 10.7498 14.5515 10.7303 14.5383 10.7166L14.5373 10.7147L12.9895 9.10335Z" fill="#000000" />
</svg>