<svg width="24px"  height="24px"  viewBox="0 0 25 24" fill="none" xmlns="http://www.w3.org/2000/svg">
<path fill-rule="evenodd" clip-rule="evenodd" d="M3.8418 6.61659C3.8418 4.20471 5.79774 2.25 8.20839 2.25H13.1317C13.8799 2.25 14.5905 2.55487 15.1087 3.09633C15.1092 3.09679 15.1096 3.09726 15.1101 3.09773L16.3774 4.41168C16.665 4.70982 16.6564 5.18462 16.3583 5.47217C16.0601 5.75973 15.5853 5.75115 15.2978 5.45302L14.0256 4.13408C13.7889 3.88634 13.4688 3.75 13.1317 3.75H8.20839C6.6259 3.75 5.3418 5.0334 5.3418 6.61659V16.1781C5.3418 16.5924 5.00601 16.9281 4.5918 16.9281C4.17758 16.9281 3.8418 16.5924 3.8418 16.1781V6.61659ZM20.4379 5.96731C20.7308 6.26021 20.7308 6.73509 20.4379 7.02797L19.4329 8.03284C19.5132 8.2962 19.5506 8.56743 19.5506 8.83369V16.8774C19.5506 19.288 17.6047 21.2352 15.1928 21.2352H8.20866C7.62403 21.2352 7.06493 21.121 6.55545 20.9095L5.93452 21.5303C5.64161 21.8232 5.16674 21.8232 4.87386 21.5303C4.58097 21.2374 4.58099 20.7625 4.87389 20.4697L5.83647 19.5071C5.86116 19.4784 5.88773 19.4519 5.91589 19.4277L17.9691 7.37534C17.996 7.34335 18.0259 7.31335 18.0586 7.28578L19.3772 5.96728C19.6701 5.67439 20.145 5.67441 20.4379 5.96731ZM18.0506 9.41507L7.76375 19.7012C7.90789 19.7236 8.05645 19.7352 8.20866 19.7352H15.1928C16.776 19.7352 18.0506 18.4599 18.0506 16.8774V9.41507Z" fill="#000000" />
</svg>