<svg width="24px"  height="24px"  viewBox="0 0 25 24" fill="none" xmlns="http://www.w3.org/2000/svg">
<path fill-rule="evenodd" clip-rule="evenodd" d="M4.18457 6.72065C4.18457 4.25152 6.18609 2.25 8.65522 2.25H13.7234C14.4861 2.25 15.2158 2.5609 15.7437 3.11139L19.535 7.06036C20.0345 7.58104 20.3152 8.27603 20.3152 8.99935V17.2794C20.3152 19.7485 18.3136 21.75 15.8445 21.75H8.65425C6.1846 21.75 4.18457 19.747 4.18457 17.2784V6.72065ZM8.65522 3.75C7.01451 3.75 5.68457 5.07994 5.68457 6.72065V17.2784C5.68457 18.9196 7.01405 20.25 8.65425 20.25H15.8445C17.4852 20.25 18.8152 18.9201 18.8152 17.2794V8.99935C18.8152 8.66408 18.685 8.34108 18.4528 8.09895L14.6613 4.14991C14.4167 3.89477 14.0778 3.75 13.7234 3.75H8.65522ZM13.1556 11.1759C12.4862 10.5065 11.4004 10.5065 10.731 11.1759C10.061 11.8452 10.0608 12.9309 10.7308 13.6002C11.4001 14.2696 12.4862 14.2698 13.1556 13.6004C13.8249 12.9311 13.8249 11.8453 13.1556 11.1759ZM9.67038 10.1153C10.9255 8.86009 12.9611 8.86009 14.2162 10.1153C15.2888 11.1879 15.4448 12.8303 14.6842 14.0687L15.552 14.9369C15.8448 15.2299 15.8447 15.7048 15.5517 15.9976C15.2587 16.2904 14.7839 16.2903 14.491 15.9973L13.6235 15.1293C12.3852 15.8897 10.7429 15.7336 9.67038 14.6611C8.41424 13.4059 8.41424 11.3704 9.67038 10.1153Z" fill="#000000" />
</svg>