<svg width="24px"  height="24px"  viewBox="0 0 25 24" fill="none" xmlns="http://www.w3.org/2000/svg">
<path fill-rule="evenodd" clip-rule="evenodd" d="M2.79762 4.86039C3.6583 3.93712 4.88151 3.42383 6.31703 3.42383H18.183C19.6218 3.42383 20.8454 3.93681 21.7056 4.86076C22.5601 5.77865 23 7.04118 23 8.44842V15.5511C23 16.9579 22.56 18.2204 21.7054 19.1384C20.8452 20.0624 19.6213 20.5757 18.1819 20.5757H6.31703C4.87809 20.5757 3.65448 20.0624 2.79439 19.1383C1.93995 18.2204 1.5 16.9579 1.5 15.5511V8.44842C1.5 7.04023 1.94238 5.77782 2.79762 4.86039ZM3.89481 5.88321C3.34141 6.47686 3 7.35176 3 8.44842V15.5511C3 16.6481 3.34005 17.523 3.89236 18.1163C4.43903 18.7037 5.24894 19.0757 6.31703 19.0757H18.1819C19.2506 19.0757 20.0608 18.7036 20.6075 18.1163C21.16 17.5229 21.5 16.6481 21.5 15.5511V8.44842C21.5 7.3508 21.1599 6.47603 20.6077 5.88284C20.0611 5.29571 19.2512 4.92383 18.183 4.92383H6.31703C5.25308 4.92383 4.44278 5.2954 3.89481 5.88321ZM10.2141 9.82205C10.2141 9.40784 10.5499 9.07205 10.9641 9.07205H12.3392C13.5945 9.07205 14.6125 10.09 14.6125 11.3453C14.6125 12.5999 13.5942 13.6175 12.3392 13.6175H11.7141V14.6945C11.7141 15.1087 11.3783 15.4445 10.9641 15.4445C10.5499 15.4445 10.2141 15.1087 10.2141 14.6945V9.82205ZM11.7141 12.1175H12.3392C12.7665 12.1175 13.1125 11.7707 13.1125 11.3453C13.1125 10.9184 12.7661 10.5721 12.3392 10.5721H11.7141V12.1175ZM19.2745 9.13118C19.6887 9.13118 20.0245 9.46696 20.0245 9.88118V14.5017C20.0245 14.8238 19.8188 15.1099 19.5135 15.2126C19.2083 15.3153 18.8715 15.2115 18.6769 14.9549L16.6191 12.2412V14.6358C16.6191 15.05 16.2833 15.3858 15.8691 15.3858C15.4549 15.3858 15.1191 15.05 15.1191 14.6358V10.0109C15.1191 9.68881 15.3247 9.40269 15.63 9.30002C15.9353 9.19736 16.2721 9.30109 16.4667 9.55774L18.5245 12.2714V9.88118C18.5245 9.46696 18.8603 9.13118 19.2745 9.13118ZM4.63278 9.22467C5.01519 9.06548 5.45423 9.24642 5.61343 9.62883L6.87022 12.6478L8.12701 9.62883C8.2862 9.24642 8.72525 9.06548 9.10765 9.22467C9.49006 9.38387 9.671 9.82292 9.51181 10.2053L7.56262 14.8875C7.44622 15.1671 7.17308 15.3492 6.87022 15.3492C6.56736 15.3492 6.29422 15.1671 6.17782 14.8875L4.22863 10.2053C4.06944 9.82292 4.25038 9.38387 4.63278 9.22467Z" fill="#000000" />
</svg>