<svg width="24px"  height="24px"  viewBox="0 0 25 24" fill="none" xmlns="http://www.w3.org/2000/svg">
<path fill-rule="evenodd" clip-rule="evenodd" d="M2.5002 3.54297C2.5002 3.12876 2.83599 2.79297 3.2502 2.79297H21.2502C21.6644 2.79297 22.0002 3.12876 22.0002 3.54297C22.0002 3.95718 21.6644 4.29297 21.2502 4.29297H3.2502C2.83599 4.29297 2.5002 3.95718 2.5002 3.54297ZM2.97322 8.50234C3.35816 8.34937 3.79421 8.53742 3.94718 8.92235L5.47539 12.7679L7.0036 8.92235C7.15657 8.53742 7.59262 8.34937 7.97755 8.50234C8.36249 8.65531 8.55053 9.09137 8.39756 9.4763L6.17237 15.0758C6.05889 15.3613 5.78268 15.5488 5.47539 15.5488C5.1681 15.5488 4.89189 15.3613 4.77841 15.0758L2.55322 9.4763C2.40025 9.09137 2.58829 8.65531 2.97322 8.50234ZM9.98753 9.19932C9.98753 8.78511 10.3233 8.44932 10.7375 8.44932H12.3079C13.6817 8.44932 14.7956 9.56474 14.7956 10.9371C14.7956 12.3113 13.6817 13.4258 12.3079 13.4258H11.4875V14.7618C11.4875 15.176 11.1517 15.5118 10.7375 15.5118C10.3233 15.5118 9.98753 15.176 9.98753 14.7618V9.19932ZM11.4875 11.9258H12.3079C12.8528 11.9258 13.2956 11.4834 13.2956 10.9371C13.2956 10.3926 12.8528 9.94932 12.3079 9.94932H11.4875V11.9258ZM21.2491 8.51584C21.6633 8.51584 21.9991 8.85162 21.9991 9.26584V14.5423C21.9991 14.8644 21.7935 15.1505 21.4881 15.2532C21.1828 15.3558 20.846 15.252 20.6515 14.9953L18.1121 11.6456V14.695C18.1121 15.1092 17.7763 15.445 17.3621 15.445C16.9479 15.445 16.6121 15.1092 16.6121 14.695V9.4147C16.6121 9.09259 16.8178 8.80645 17.1231 8.7038C17.4284 8.60115 17.7652 8.70493 17.9598 8.96162L20.4991 12.3114V9.26584C20.4991 8.85162 20.8349 8.51584 21.2491 8.51584ZM2.5002 20.456C2.5002 20.0418 2.83599 19.706 3.2502 19.706H21.2502C21.6644 19.706 22.0002 20.0418 22.0002 20.456C22.0002 20.8702 21.6644 21.206 21.2502 21.206H3.2502C2.83599 21.206 2.5002 20.8702 2.5002 20.456Z" fill="#000000" />
</svg>