<svg width="24px"  height="24px"  viewBox="0 0 25 24" fill="none" xmlns="http://www.w3.org/2000/svg">
<path fill-rule="evenodd" clip-rule="evenodd" d="M2.5 5.198C2.5 3.56979 3.81979 2.25 5.448 2.25H8.052C9.68021 2.25 11 3.56979 11 5.198V18.802C11 20.4302 9.68021 21.75 8.052 21.75H5.448C3.81979 21.75 2.5 20.4302 2.5 18.802V5.198ZM5.448 3.75C4.64821 3.75 4 4.39821 4 5.198V18.802C4 19.6018 4.64821 20.25 5.448 20.25H8.052C8.85179 20.25 9.5 19.6018 9.5 18.802V5.198C9.5 4.39821 8.85179 3.75 8.052 3.75H5.448Z" fill="#000000" />
<path fill-rule="evenodd" clip-rule="evenodd" d="M13.5 8.698C13.5 7.06979 14.8198 5.75 16.448 5.75H19.052C20.6802 5.75 22 7.06979 22 8.698V15.302C22 16.9302 20.6802 18.25 19.052 18.25H16.448C14.8198 18.25 13.5 16.9302 13.5 15.302V8.698ZM16.448 7.25C15.6482 7.25 15 7.89821 15 8.698V15.302C15 16.1018 15.6482 16.75 16.448 16.75H19.052C19.8518 16.75 20.5 16.1018 20.5 15.302V8.698C20.5 7.89821 19.8518 7.25 19.052 7.25H16.448Z" fill="#000000" />
</svg>