<svg width="24px"  height="24px"  viewBox="0 0 25 24" fill="none" xmlns="http://www.w3.org/2000/svg">
<path fill-rule="evenodd" clip-rule="evenodd" d="M12.2471 2.25C12.6613 2.25 12.9971 2.58579 12.9971 3V21C12.9971 21.4142 12.6613 21.75 12.2471 21.75C11.8329 21.75 11.4971 21.4142 11.4971 21V3C11.4971 2.58579 11.8329 2.25 12.2471 2.25Z" fill="#000000" />
<path fill-rule="evenodd" clip-rule="evenodd" d="M6.3901 14.5234C5.61103 14.5234 4.98828 15.1462 4.98828 15.9253V17.8521C4.98828 18.6236 5.61325 19.2539 6.3901 19.2539H9.65696C10.0712 19.2539 10.407 19.5897 10.407 20.0039C10.407 20.4182 10.0712 20.7539 9.65696 20.7539H6.3901C4.78039 20.7539 3.48828 19.4476 3.48828 17.8521V15.9253C3.48828 14.3178 4.78261 13.0234 6.3901 13.0234H9.65696C10.0712 13.0234 10.407 13.3592 10.407 13.7734C10.407 14.1877 10.0712 14.5234 9.65696 14.5234H6.3901Z" fill="#000000" />
<path fill-rule="evenodd" clip-rule="evenodd" d="M11.498 13.7734C11.498 13.3592 11.8338 13.0234 12.248 13.0234H18.1069C19.7024 13.0234 21.0087 14.3155 21.0087 15.9253V17.8521C21.0087 19.4498 19.7046 20.7539 18.1069 20.7539H12.248C11.8338 20.7539 11.498 20.4182 11.498 20.0039C11.498 19.5897 11.8338 19.2539 12.248 19.2539H18.1069C18.8762 19.2539 19.5087 18.6214 19.5087 17.8521V15.9253C19.5087 15.1484 18.8784 14.5234 18.1069 14.5234H12.248C11.8338 14.5234 11.498 14.1877 11.498 13.7734Z" fill="#000000" />
<path fill-rule="evenodd" clip-rule="evenodd" d="M11.498 3.99414C11.498 3.57993 11.8338 3.24414 12.248 3.24414H15.8768C17.4865 3.24414 18.7786 4.55047 18.7786 6.14596V8.07282C18.7786 9.68032 17.4843 10.9746 15.8768 10.9746H12.248C11.8338 10.9746 11.498 10.6389 11.498 10.2246C11.498 9.81043 11.8338 9.47465 12.248 9.47465H15.8768C16.6559 9.47465 17.2786 8.85189 17.2786 8.07282V6.14596C17.2786 5.37445 16.6537 4.74414 15.8768 4.74414H12.248C11.8338 4.74414 11.498 4.40835 11.498 3.99414Z" fill="#000000" />
<path fill-rule="evenodd" clip-rule="evenodd" d="M8.61081 4.74414C7.84152 4.74414 7.20898 5.37667 7.20898 6.14596V8.07282C7.20898 8.84968 7.8393 9.47465 8.61081 9.47465H9.65738C10.0716 9.47465 10.4074 9.81043 10.4074 10.2246C10.4074 10.6389 10.0716 10.9746 9.65738 10.9746H8.61081C7.01531 10.9746 5.70898 9.68254 5.70898 8.07282V6.14596C5.70898 4.54825 7.01309 3.24414 8.61081 3.24414H9.65738C10.0716 3.24414 10.4074 3.57993 10.4074 3.99414C10.4074 4.40835 10.0716 4.74414 9.65738 4.74414H8.61081Z" fill="#000000" />
</svg>