<svg width="24px"  height="24px"  viewBox="0 0 25 24" fill="none" xmlns="http://www.w3.org/2000/svg">
<path fill-rule="evenodd" clip-rule="evenodd" d="M2.5 16.198C2.5 14.5698 3.81979 13.25 5.448 13.25H19.052C20.6802 13.25 22 14.5698 22 16.198V18.802C22 20.4302 20.6802 21.75 19.052 21.75H5.448C3.81979 21.75 2.5 20.4302 2.5 18.802V16.198ZM5.448 14.75C4.64821 14.75 4 15.3982 4 16.198V18.802C4 19.6018 4.64821 20.25 5.448 20.25H19.052C19.8518 20.25 20.5 19.6018 20.5 18.802V16.198C20.5 15.3982 19.8518 14.75 19.052 14.75H5.448Z" fill="#000000" />
<path fill-rule="evenodd" clip-rule="evenodd" d="M9.5 5.198C9.5 3.56979 10.8198 2.25 12.448 2.25H19.052C20.6802 2.25 22 3.56979 22 5.198V7.802C22 9.43021 20.6802 10.75 19.052 10.75H12.448C10.8198 10.75 9.5 9.43021 9.5 7.802V5.198ZM12.448 3.75C11.6482 3.75 11 4.39821 11 5.198V7.802C11 8.60179 11.6482 9.25 12.448 9.25H19.052C19.8518 9.25 20.5 8.60179 20.5 7.802V5.198C20.5 4.39821 19.8518 3.75 19.052 3.75H12.448Z" fill="#000000" />
</svg>