<svg width="24px"  height="24px"  viewBox="0 0 25 24" fill="none" xmlns="http://www.w3.org/2000/svg">
<path fill-rule="evenodd" clip-rule="evenodd" d="M2.59082 21C2.59082 20.5858 2.92661 20.25 3.34082 20.25H21.1601C21.5743 20.25 21.9101 20.5858 21.9101 21C21.9101 21.4142 21.5743 21.75 21.1601 21.75H3.34082C2.92661 21.75 2.59082 21.4142 2.59082 21Z" fill="#000000" />
<path fill-rule="evenodd" clip-rule="evenodd" d="M13.4199 10.1072C13.4199 8.41262 14.7935 7.03906 16.488 7.03906H18.5541C20.2486 7.03906 21.6222 8.41262 21.6222 10.1072V15.0461C21.6222 16.7406 20.2486 18.1142 18.5541 18.1142H16.488C14.7935 18.1142 13.4199 16.7406 13.4199 15.0461V10.1072ZM16.488 8.53906C15.6219 8.53906 14.9199 9.24104 14.9199 10.1072V15.0461C14.9199 15.9122 15.6219 16.6142 16.488 16.6142H18.5541C19.4202 16.6142 20.1222 15.9122 20.1222 15.0461V10.1072C20.1222 9.24104 19.4202 8.53906 18.5541 8.53906H16.488Z" fill="#000000" />
<path fill-rule="evenodd" clip-rule="evenodd" d="M2.87695 5.31811C2.87695 3.62356 4.25051 2.25 5.94506 2.25H8.01111C9.70566 2.25 11.0792 3.62356 11.0792 5.31811V15.0451C11.0792 16.7396 9.70566 18.1132 8.01111 18.1132H5.94506C4.25051 18.1132 2.87695 16.7396 2.87695 15.0451V5.31811ZM5.94506 3.75C5.07894 3.75 4.37695 4.45198 4.37695 5.31811V15.0451C4.37695 15.9112 5.07894 16.6132 5.94506 16.6132H8.01111C8.87723 16.6132 9.57921 15.9112 9.57921 15.0451V5.31811C9.57921 4.45198 8.87723 3.75 8.01111 3.75H5.94506Z" fill="#000000" />
</svg>