<svg width="24px"  height="24px"  viewBox="0 0 25 24" fill="none" xmlns="http://www.w3.org/2000/svg">
<path fill-rule="evenodd" clip-rule="evenodd" d="M5.94495 7.38672C5.07888 7.38672 4.37695 8.08865 4.37695 8.95471V18.6812C4.37695 19.5473 5.07888 20.2492 5.94495 20.2492H8.01089C8.87695 20.2492 9.57888 19.5473 9.57888 18.6812V8.95471C9.57888 8.08865 8.87695 7.38672 8.01089 7.38672H5.94495ZM2.87695 8.95471C2.87695 7.26022 4.25046 5.88672 5.94495 5.88672H8.01089C9.70538 5.88672 11.0789 7.26022 11.0789 8.95471V18.6812C11.0789 20.3757 9.70538 21.7492 8.01089 21.7492H5.94495C4.25046 21.7492 2.87695 20.3757 2.87695 18.6812V8.95471Z" fill="#000000" />
<path fill-rule="evenodd" clip-rule="evenodd" d="M16.4879 7.38672C15.6219 7.38672 14.9199 8.08865 14.9199 8.95471V13.8934C14.9199 14.7594 15.6219 15.4614 16.4879 15.4614H18.5539C19.4199 15.4614 20.1219 14.7594 20.1219 13.8934V8.95471C20.1219 8.08865 19.4199 7.38672 18.5539 7.38672H16.4879ZM13.4199 8.95471C13.4199 7.26022 14.7934 5.88672 16.4879 5.88672H18.5539C20.2483 5.88672 21.6219 7.26022 21.6219 8.95471V13.8934C21.6219 15.5879 20.2483 16.9614 18.5539 16.9614H16.4879C14.7934 16.9614 13.4199 15.5879 13.4199 13.8934V8.95471Z" fill="#000000" />
<path fill-rule="evenodd" clip-rule="evenodd" d="M2.58984 3C2.58984 2.58579 2.92563 2.25 3.33984 2.25H21.1582C21.5724 2.25 21.9082 2.58579 21.9082 3C21.9082 3.41421 21.5724 3.75 21.1582 3.75H3.33984C2.92563 3.75 2.58984 3.41421 2.58984 3Z" fill="#000000" />
</svg>