<svg width="24px"  height="24px"  viewBox="0 0 25 24" fill="none" xmlns="http://www.w3.org/2000/svg">
<path fill-rule="evenodd" clip-rule="evenodd" d="M5.448 14.75C4.64821 14.75 4 15.3982 4 16.198V18.802C4 19.6018 4.64821 20.25 5.448 20.25H19.052C19.8518 20.25 20.5 19.6018 20.5 18.802V16.198C20.5 15.3982 19.8518 14.75 19.052 14.75H5.448ZM2.5 16.198C2.5 14.5698 3.81979 13.25 5.448 13.25H19.052C20.6802 13.25 22 14.5698 22 16.198V18.802C22 20.4302 20.6802 21.75 19.052 21.75H5.448C3.81979 21.75 2.5 20.4302 2.5 18.802V16.198Z" fill="#000000" />
<path fill-rule="evenodd" clip-rule="evenodd" d="M5.448 3.75C4.64821 3.75 4 4.39821 4 5.198V7.802C4 8.60179 4.64821 9.25 5.448 9.25H12.052C12.8518 9.25 13.5 8.60179 13.5 7.802V5.198C13.5 4.39821 12.8518 3.75 12.052 3.75H5.448ZM2.5 5.198C2.5 3.56979 3.81979 2.25 5.448 2.25H12.052C13.6802 2.25 15 3.56979 15 5.198V7.802C15 9.43021 13.6802 10.75 12.052 10.75H5.448C3.81979 10.75 2.5 9.43021 2.5 7.802V5.198Z" fill="#000000" />
</svg>