<svg width="24px"  height="24px"  viewBox="0 0 25 24" fill="none" xmlns="http://www.w3.org/2000/svg">
<path fill-rule="evenodd" clip-rule="evenodd" d="M6.75 14.75C5.23121 14.75 4 15.9812 4 17.5C4 19.0188 5.23121 20.25 6.75 20.25C8.26879 20.25 9.5 19.0188 9.5 17.5C9.5 15.9812 8.26879 14.75 6.75 14.75ZM2.5 17.5C2.5 15.1528 4.40279 13.25 6.75 13.25C9.09721 13.25 11 15.1528 11 17.5C11 19.8472 9.09721 21.75 6.75 21.75C4.40279 21.75 2.5 19.8472 2.5 17.5Z" fill="#000000" />
<path fill-rule="evenodd" clip-rule="evenodd" d="M8 6.5C8 4.15279 9.90279 2.25 12.25 2.25C14.5972 2.25 16.5 4.15279 16.5 6.5C16.5 8.84721 14.5972 10.75 12.25 10.75C9.90279 10.75 8 8.84721 8 6.5ZM12.25 3.75C10.7312 3.75 9.5 4.98121 9.5 6.5C9.5 8.01879 10.7312 9.25 12.25 9.25C13.7688 9.25 15 8.01879 15 6.5C15 4.98121 13.7688 3.75 12.25 3.75Z" fill="#000000" />
<path fill-rule="evenodd" clip-rule="evenodd" d="M13.5 17.5C13.5 15.1528 15.4028 13.25 17.75 13.25C20.0972 13.25 22 15.1528 22 17.5C22 19.8472 20.0972 21.75 17.75 21.75C15.4028 21.75 13.5 19.8472 13.5 17.5ZM17.75 14.75C16.2312 14.75 15 15.9812 15 17.5C15 19.0188 16.2312 20.25 17.75 20.25C19.2688 20.25 20.5 19.0188 20.5 17.5C20.5 15.9812 19.2688 14.75 17.75 14.75Z" fill="#000000" />
</svg>