<svg width="24px"  height="24px"  viewBox="0 0 25 24" fill="none" xmlns="http://www.w3.org/2000/svg">
<path fill-rule="evenodd" clip-rule="evenodd" d="M6.75 14.75C5.23121 14.75 4 15.9812 4 17.5C4 19.0188 5.23121 20.25 6.75 20.25C8.26879 20.25 9.5 19.0188 9.5 17.5C9.5 15.9812 8.26879 14.75 6.75 14.75ZM2.5 17.5C2.5 15.1528 4.40279 13.25 6.75 13.25C9.09721 13.25 11 15.1528 11 17.5C11 19.8472 9.09721 21.75 6.75 21.75C4.40279 21.75 2.5 19.8472 2.5 17.5Z" fill="#000000" />
<path fill-rule="evenodd" clip-rule="evenodd" d="M2.5 6.5C2.5 4.15279 4.40279 2.25 6.75 2.25C9.09721 2.25 11 4.15279 11 6.5C11 8.84721 9.09721 10.75 6.75 10.75C4.40279 10.75 2.5 8.84721 2.5 6.5ZM6.75 3.75C5.23121 3.75 4 4.98121 4 6.5C4 8.01879 5.23121 9.25 6.75 9.25C8.26879 9.25 9.5 8.01879 9.5 6.5C9.5 4.98121 8.26879 3.75 6.75 3.75Z" fill="#000000" />
<path fill-rule="evenodd" clip-rule="evenodd" d="M17.75 3.75C16.2312 3.75 15 4.98121 15 6.5C15 8.01879 16.2312 9.25 17.75 9.25C19.2688 9.25 20.5 8.01879 20.5 6.5C20.5 4.98121 19.2688 3.75 17.75 3.75ZM13.5 6.5C13.5 4.15279 15.4028 2.25 17.75 2.25C20.0972 2.25 22 4.15279 22 6.5C22 8.84721 20.0972 10.75 17.75 10.75C15.4028 10.75 13.5 8.84721 13.5 6.5Z" fill="#000000" />
<path fill-rule="evenodd" clip-rule="evenodd" d="M17.751 13.4883C18.1652 13.4883 18.501 13.8241 18.501 14.2383V16.752H21.0184C21.4326 16.752 21.7684 17.0877 21.7684 17.502C21.7684 17.9162 21.4326 18.252 21.0184 18.252H18.501V20.7683C18.501 21.1825 18.1652 21.5183 17.751 21.5183C17.3368 21.5183 17.001 21.1825 17.001 20.7683V18.252H14.4824C14.0682 18.252 13.7324 17.9162 13.7324 17.502C13.7324 17.0877 14.0682 16.752 14.4824 16.752H17.001V14.2383C17.001 13.8241 17.3368 13.4883 17.751 13.4883Z" fill="#000000" />
</svg>