<svg width="24px"  height="24px"  viewBox="0 0 25 24" fill="none" xmlns="http://www.w3.org/2000/svg">
<path fill-rule="evenodd" clip-rule="evenodd" d="M6.36602 11.0397C5.83373 10.5074 4.97255 10.5079 4.44164 11.0394L4.44133 11.0397C3.91018 11.5709 3.91018 12.4323 4.44133 12.9634C4.97221 13.4943 5.83363 13.4949 6.36602 12.9634C6.89717 12.4323 6.89717 11.5709 6.36602 11.0397ZM3.38067 9.97905C4.49788 8.86087 6.30905 8.86142 7.42668 9.97905C8.54362 11.096 8.54362 12.9072 7.42668 14.0241L7.42637 14.0244C6.30871 15.1408 4.49778 15.1412 3.38067 14.0241C2.26384 12.9073 2.26373 11.0963 3.38036 9.97937" fill="#000000" />
<path fill-rule="evenodd" clip-rule="evenodd" d="M20.0594 11.0397C19.5271 10.5074 18.6659 10.5079 18.135 11.0394L18.1347 11.0397C17.6035 11.5709 17.6035 12.4323 18.1347 12.9634C18.6656 13.4943 19.527 13.4949 20.0594 12.9634C20.5905 12.4323 20.5905 11.5709 20.0594 11.0397ZM17.074 9.97905C18.1912 8.86087 20.0024 8.86142 21.12 9.97905C22.237 11.096 22.237 12.9072 21.12 14.0241L21.1197 14.0244C20.0021 15.1408 18.1911 15.1412 17.074 14.0241C15.9572 12.9073 15.9571 11.0963 17.0737 9.97937" fill="#000000" />
<path fill-rule="evenodd" clip-rule="evenodd" d="M9.55285 15.2384C11.0426 13.7487 13.458 13.7487 14.9477 15.2384C16.4375 16.7281 16.4375 19.1435 14.9477 20.6333C13.458 22.123 11.0426 22.123 9.55285 20.6333C8.06311 19.1435 8.06311 16.7281 9.55285 15.2384ZM13.8871 16.2991C12.9831 15.3951 11.5175 15.3951 10.6135 16.2991C9.70956 17.203 9.70956 18.6687 10.6135 19.5726C11.5175 20.4766 12.9831 20.4766 13.8871 19.5726C14.791 18.6687 14.791 17.203 13.8871 16.2991Z" fill="#000000" />
<path fill-rule="evenodd" clip-rule="evenodd" d="M9.55285 3.36731C11.0426 1.87756 13.458 1.87756 14.9477 3.36731C16.4375 4.85705 16.4375 7.27245 14.9477 8.76219C13.458 10.2519 11.0426 10.2519 9.55285 8.76219C8.06311 7.27245 8.06311 4.85705 9.55285 3.36731ZM13.8871 4.42797C12.9831 3.52401 11.5175 3.52401 10.6135 4.42797C9.70956 5.33193 9.70956 6.79758 10.6135 7.70153C11.5175 8.60549 12.9831 8.60549 13.8871 7.70153C14.791 6.79758 14.791 5.33193 13.8871 4.42797Z" fill="#000000" />
</svg>