<svg width="24px"  height="24px"  viewBox="0 0 25 24" fill="none" xmlns="http://www.w3.org/2000/svg">
<path fill-rule="evenodd" clip-rule="evenodd" d="M2.73047 14.6554C2.73047 12.6437 4.36114 11.0117 6.37414 11.0117C8.38714 11.0117 10.0178 12.6437 10.0178 14.6554C10.0178 16.6682 8.38698 18.2991 6.37414 18.2991C4.3613 18.2991 2.73047 16.6682 2.73047 14.6554ZM6.37414 12.5117C5.1899 12.5117 4.23047 13.4718 4.23047 14.6554C4.23047 15.8398 5.18973 16.7991 6.37414 16.7991C7.55855 16.7991 8.51781 15.8398 8.51781 14.6554C8.51781 13.4718 7.55838 12.5117 6.37414 12.5117Z" fill="#000000" />
<path fill-rule="evenodd" clip-rule="evenodd" d="M13.0684 18.9799C13.0684 17.4496 14.309 16.209 15.8393 16.209C17.3695 16.209 18.6102 17.4497 18.6102 18.9799C18.6102 20.5106 17.369 21.7498 15.8393 21.7498C14.3095 21.7498 13.0684 20.5106 13.0684 18.9799ZM15.8393 17.709C15.1375 17.709 14.5684 18.2781 14.5684 18.9799C14.5684 19.6812 15.137 20.2498 15.8393 20.2498C16.5415 20.2498 17.1102 19.6812 17.1102 18.9799C17.1102 18.2781 16.5411 17.709 15.8393 17.709Z" fill="#000000" />
<path fill-rule="evenodd" clip-rule="evenodd" d="M10.6289 7.82019C10.6289 4.74388 13.1228 2.25 16.1991 2.25C19.2754 2.25 21.7693 4.74388 21.7693 7.82019C21.7693 10.8965 19.2754 13.3904 16.1991 13.3904C13.1228 13.3904 10.6289 10.8965 10.6289 7.82019ZM16.1991 3.75C13.9512 3.75 12.1289 5.5723 12.1289 7.82019C12.1289 10.0681 13.9512 11.8904 16.1991 11.8904C18.447 11.8904 20.2693 10.0681 20.2693 7.82019C20.2693 5.5723 18.447 3.75 16.1991 3.75Z" fill="#000000" />
</svg>