<svg width="24px"  height="24px"  viewBox="0 0 25 24" fill="none" xmlns="http://www.w3.org/2000/svg">
<path fill-rule="evenodd" clip-rule="evenodd" d="M2.5 6.5C2.5 4.15279 4.40279 2.25 6.75 2.25C9.09721 2.25 11 4.15279 11 6.5C11 8.84721 9.09721 10.75 6.75 10.75C4.40279 10.75 2.5 8.84721 2.5 6.5ZM6.75 3.75C5.23121 3.75 4 4.98121 4 6.5C4 8.01879 5.23121 9.25 6.75 9.25C8.26879 9.25 9.5 8.01879 9.5 6.5C9.5 4.98121 8.26879 3.75 6.75 3.75Z" fill="#000000" />
<path fill-rule="evenodd" clip-rule="evenodd" d="M13.5 17.5C13.5 15.1528 15.4028 13.25 17.75 13.25C20.0972 13.25 22 15.1528 22 17.5C22 19.8472 20.0972 21.75 17.75 21.75C15.4028 21.75 13.5 19.8472 13.5 17.5ZM17.75 14.75C16.2312 14.75 15 15.9812 15 17.5C15 19.0188 16.2312 20.25 17.75 20.25C19.2688 20.25 20.5 19.0188 20.5 17.5C20.5 15.9812 19.2688 14.75 17.75 14.75Z" fill="#000000" />
<path fill-rule="evenodd" clip-rule="evenodd" d="M5.66 16.9297C4.74321 16.9297 4 17.6729 4 18.5897C4 19.5077 4.74342 20.2507 5.66 20.2507C6.57658 20.2507 7.32 19.5077 7.32 18.5897C7.32 17.6729 6.57679 16.9297 5.66 16.9297ZM2.5 18.5897C2.5 16.8445 3.91479 15.4297 5.66 15.4297C7.40521 15.4297 8.82 16.8445 8.82 18.5897C8.82 20.3357 7.40542 21.7507 5.66 21.7507C3.91458 21.7507 2.5 20.3357 2.5 18.5897Z" fill="#000000" />
<path fill-rule="evenodd" clip-rule="evenodd" d="M18.8397 3.75C17.9231 3.75 17.1797 4.49301 17.1797 5.411C17.1797 6.32779 17.9229 7.071 18.8397 7.071C19.7565 7.071 20.4997 6.32779 20.4997 5.411C20.4997 4.49301 19.7563 3.75 18.8397 3.75ZM15.6797 5.411C15.6797 3.66499 17.0943 2.25 18.8397 2.25C20.5851 2.25 21.9997 3.66499 21.9997 5.411C21.9997 7.15621 20.5849 8.571 18.8397 8.571C17.0945 8.571 15.6797 7.15621 15.6797 5.411Z" fill="#000000" />
</svg>