<svg width="24px"  height="24px"  viewBox="0 0 25 24" fill="none" xmlns="http://www.w3.org/2000/svg">
<path fill-rule="evenodd" clip-rule="evenodd" d="M4.14773 3.73657C5.19853 2.75842 6.64899 2.25 8.27638 2.25H16.2236C17.8519 2.25 19.3023 2.76117 20.3526 3.7402C21.4088 4.72468 22 6.12669 22 7.78216V16.2169C22 17.8762 21.4092 19.2788 20.3524 20.2629C19.3016 21.2413 17.8511 21.75 16.2236 21.75H8.27638C6.64889 21.75 5.19838 21.2413 4.14761 20.2627C3.0908 19.2785 2.5 17.8756 2.5 16.2159V7.78216C2.5 6.1228 3.09086 4.72038 4.14773 3.73657ZM5.16976 4.83451C4.44973 5.50475 4 6.49341 4 7.78216V16.2159C4 17.5052 4.4498 18.4944 5.16988 19.165C5.89599 19.8412 6.95868 20.25 8.27638 20.25H16.2236C17.5413 20.25 18.604 19.8412 19.3302 19.1651C20.0503 18.4946 20.5 17.5056 20.5 16.2169V7.78216C20.5 6.49828 20.0506 5.50921 19.3299 4.83745C18.6033 4.16024 17.5405 3.75 16.2236 3.75H8.27638C6.95857 3.75 5.89585 4.15861 5.16976 4.83451Z" fill="#000000" />
<path fill-rule="evenodd" clip-rule="evenodd" d="M10.5332 9.40234C10.9474 9.40234 11.2832 9.73813 11.2832 10.1523V21C11.2832 21.4142 10.9474 21.75 10.5332 21.75C10.119 21.75 9.7832 21.4142 9.7832 21V10.1523C9.7832 9.73813 10.119 9.40234 10.5332 9.40234Z" fill="#000000" />
<path fill-rule="evenodd" clip-rule="evenodd" d="M2.5 10.1504C2.5 9.73618 2.83579 9.40039 3.25 9.40039H21.25C21.6642 9.40039 22 9.73618 22 10.1504C22 10.5646 21.6642 10.9004 21.25 10.9004H3.25C2.83579 10.9004 2.5 10.5646 2.5 10.1504Z" fill="#000000" />
</svg>