<svg width="24px"  height="24px"  viewBox="0 0 25 24" fill="none" xmlns="http://www.w3.org/2000/svg">
<path fill-rule="evenodd" clip-rule="evenodd" d="M4.00198 3.89491C4.98532 2.84012 6.38567 2.25 8.03909 2.25H16.4603C18.1172 2.25 19.5179 2.83985 20.5006 3.89523C21.4777 4.94457 21.9857 6.39314 21.9857 8.01866V15.9534C21.9857 17.5785 21.4777 19.027 20.5005 20.0764C19.5177 21.1319 18.1167 21.722 16.4593 21.722H8.03909C6.38167 21.722 4.98094 21.1319 3.99833 20.0764C3.02137 19.0269 2.51367 17.5783 2.51367 15.9534V8.01866C2.51367 6.39231 3.02409 4.94385 4.00198 3.89491ZM5.09915 4.91776C4.42321 5.64281 4.01367 6.70368 4.01367 8.01866V15.9534C4.01367 17.2688 4.42155 18.3295 5.09624 19.0543C5.76528 19.773 6.75225 20.222 8.03909 20.222H16.4593C17.7462 20.222 18.7334 19.773 19.4027 19.0542C20.0776 18.3294 20.4857 17.2686 20.4857 15.9534V8.01866C20.4857 6.70285 20.0776 5.64208 19.4028 4.91743C18.7337 4.19882 17.7467 3.75 16.4603 3.75H8.03909C6.75701 3.75 5.76965 4.19854 5.09915 4.91776Z" fill="#000000" />
<path fill-rule="evenodd" clip-rule="evenodd" d="M9.24414 2.25977C9.65835 2.25977 9.99414 2.59555 9.99414 3.00977V20.9993C9.99414 21.4135 9.65835 21.7493 9.24414 21.7493C8.82993 21.7493 8.49414 21.4135 8.49414 20.9993V3.00977C8.49414 2.59555 8.82993 2.25977 9.24414 2.25977ZM15.2773 2.25977C15.6915 2.25977 16.0273 2.59555 16.0273 3.00977V20.9993C16.0273 21.4135 15.6915 21.7493 15.2773 21.7493C14.8631 21.7493 14.5273 21.4135 14.5273 20.9993V3.00977C14.5273 2.59555 14.8631 2.25977 15.2773 2.25977Z" fill="#000000" />
</svg>