<svg width="24px"  height="24px"  viewBox="0 0 25 24" fill="none" xmlns="http://www.w3.org/2000/svg">
<path fill-rule="evenodd" clip-rule="evenodd" d="M5.448 3.75C4.64821 3.75 4 4.39821 4 5.198V7.802C4 8.60179 4.64821 9.25 5.448 9.25H8.052C8.85179 9.25 9.5 8.60179 9.5 7.802V5.198C9.5 4.39821 8.85179 3.75 8.052 3.75H5.448ZM2.5 5.198C2.5 3.56979 3.81979 2.25 5.448 2.25H8.052C9.68021 2.25 11 3.56979 11 5.198V7.802C11 9.43021 9.68021 10.75 8.052 10.75H5.448C3.81979 10.75 2.5 9.43021 2.5 7.802V5.198Z" fill="#000000" />
<path fill-rule="evenodd" clip-rule="evenodd" d="M16.448 14.75C15.6482 14.75 15 15.3982 15 16.198V18.802C15 19.6018 15.6482 20.25 16.448 20.25H19.052C19.8518 20.25 20.5 19.6018 20.5 18.802V16.198C20.5 15.3982 19.8518 14.75 19.052 14.75H16.448ZM13.5 16.198C13.5 14.5698 14.8198 13.25 16.448 13.25H19.052C20.6802 13.25 22 14.5698 22 16.198V18.802C22 20.4302 20.6802 21.75 19.052 21.75H16.448C14.8198 21.75 13.5 20.4302 13.5 18.802V16.198Z" fill="#000000" />
<path fill-rule="evenodd" clip-rule="evenodd" d="M5.448 14.75C4.64821 14.75 4 15.3982 4 16.198V18.802C4 19.6018 4.64821 20.25 5.448 20.25H8.052C8.85179 20.25 9.5 19.6018 9.5 18.802V16.198C9.5 15.3982 8.85179 14.75 8.052 14.75H5.448ZM2.5 16.198C2.5 14.5698 3.81979 13.25 5.448 13.25H8.052C9.68021 13.25 11 14.5698 11 16.198V18.802C11 20.4302 9.68021 21.75 8.052 21.75H5.448C3.81979 21.75 2.5 20.4302 2.5 18.802V16.198Z" fill="#000000" />
<path fill-rule="evenodd" clip-rule="evenodd" d="M17.1051 2.58637C17.828 2.17225 18.7475 2.42364 19.1611 3.14356L19.1618 3.14479L19.1618 3.14479L21.8003 7.75689C21.8004 7.75705 21.8005 7.75722 21.8006 7.75738C21.9329 7.9882 21.9998 8.24711 21.9998 8.50821C21.9998 9.34171 21.3237 10.0142 20.4928 10.0142H15.2108C14.9479 10.0142 14.6889 9.94494 14.4623 9.81574L14.4596 9.81418C13.7386 9.39906 13.4892 8.47966 13.9031 7.75736M13.9031 7.75733L16.546 3.14451C16.546 3.14446 16.546 3.14441 16.5461 3.14436C16.6807 2.90931 16.8747 2.71838 17.1049 2.58647M17.8527 3.88696C17.8527 3.88698 17.852 3.88719 17.8507 3.88795L17.8505 3.88805C17.8487 3.88906 17.8479 3.88982 17.8475 3.89018L15.2046 8.50306L15.2046 8.50309C15.2027 8.50635 15.2029 8.51031 15.2065 8.51317L15.2082 8.51374C15.2097 8.51414 15.2107 8.5142 15.2108 8.51421C15.2108 8.51421 15.2108 8.51421 15.2108 8.51421H20.4928C20.4944 8.51421 20.4952 8.51406 20.4953 8.51403L20.4958 8.51388C20.4962 8.51372 20.4971 8.51322 20.4982 8.51215C20.4993 8.51108 20.4997 8.51027 20.4997 8.51021M17.8604 3.89068C17.8597 3.88951 17.8593 3.88902 17.8592 3.88891L17.8588 3.88857C17.8585 3.8883 17.8575 3.88768 17.8559 3.88725C17.8543 3.88681 17.8532 3.88687 17.853 3.8869L17.8527 3.88696M17.8477 3.88991C17.8476 3.88997 17.8476 3.89002 17.8476 3.89006L17.8477 3.88991Z" fill="#000000" />
</svg>