<svg width="24px"  height="24px"  viewBox="0 0 25 24" fill="none" xmlns="http://www.w3.org/2000/svg">
<path fill-rule="evenodd" clip-rule="evenodd" d="M3.8533 5.66325C4.74973 4.70171 6.0245 4.16602 7.52331 4.16602H11.2917C11.7059 4.16602 12.0417 4.5018 12.0417 4.91602C12.0417 5.33023 11.7059 5.66602 11.2917 5.66602H7.52331C6.39606 5.66602 5.53418 6.06 4.95046 6.68611C4.36131 7.31806 4 8.24711 4 9.40728V16.5081C4 17.6693 4.35975 18.5982 4.94756 19.2296C5.52971 19.855 6.39113 20.2493 7.52331 20.2493H15.059C16.1918 20.2493 17.0534 19.8549 17.6357 19.2296C18.2236 18.5982 18.5833 17.6693 18.5833 16.5081V12.9577C18.5833 12.5435 18.9191 12.2077 19.3333 12.2077C19.7475 12.2077 20.0833 12.5435 20.0833 12.9577V16.5081C20.0833 17.9787 19.6238 19.2955 18.7335 20.2517C17.8375 21.214 16.5621 21.7493 15.059 21.7493H7.52331C6.02067 21.7493 4.74544 21.214 3.84964 20.2517C2.9595 19.2955 2.5 17.9787 2.5 16.5081V9.40728C2.5 7.93554 2.96231 6.61896 3.8533 5.66325Z" fill="#000000" />
<path fill-rule="evenodd" clip-rule="evenodd" d="M2.5 12.957C2.50001 12.5428 2.8358 12.207 3.25002 12.207L19.3333 12.2074C19.7475 12.2074 20.0833 12.5432 20.0833 12.9574C20.0833 13.3716 19.7475 13.7074 19.3333 13.7074L3.24998 13.707C2.83577 13.707 2.49999 13.3712 2.5 12.957Z" fill="#000000" />
<path fill-rule="evenodd" clip-rule="evenodd" d="M11.291 4.16602C11.7052 4.16601 12.041 4.5018 12.041 4.91601L12.0411 20.9993C12.0412 21.4135 11.7054 21.7493 11.2912 21.7493C10.8769 21.7493 10.5412 21.4135 10.5411 20.9993L10.541 4.91602C10.541 4.50181 10.8768 4.16602 11.291 4.16602Z" fill="#000000" />
<path fill-rule="evenodd" clip-rule="evenodd" d="M13.4277 3C13.4277 2.58579 13.7635 2.25 14.1777 2.25H17.4917C18.8352 2.25 19.9815 2.72914 20.7882 3.59559C21.5892 4.45597 21.9993 5.63722 21.9993 6.94931V10.0716C21.9993 10.4858 21.6635 10.8216 21.2493 10.8216H14.1777C13.7635 10.8216 13.4277 10.4858 13.4277 10.0716V3ZM14.9277 3.75V9.32159H20.4993V6.94931C20.4993 5.9467 20.189 5.15328 19.6903 4.61769C19.1973 4.08816 18.4648 3.75 17.4917 3.75H14.9277Z" fill="#000000" />
</svg>