<svg width="24px"  height="24px"  viewBox="0 0 25 24" fill="none" xmlns="http://www.w3.org/2000/svg">
<path fill-rule="evenodd" clip-rule="evenodd" d="M8.51339 13.0908C9.87173 13.1318 10.9892 14.1757 11.1233 15.5289C11.2743 16.7609 11.2742 18.0074 11.1231 19.2394C10.9844 20.5895 9.87014 21.63 8.51555 21.6769C7.41968 21.7743 6.31683 21.7743 5.22096 21.6769C3.86513 21.63 2.75204 20.5892 2.61337 19.2394C2.46209 18.0049 2.46221 16.7579 2.61373 15.5235C2.7617 14.1799 3.87065 13.1492 5.21806 13.0952C6.31442 12.9956 7.41656 12.9945 8.51339 13.0908ZM8.40424 14.587C7.38194 14.4959 6.35518 14.4969 5.33441 14.5908C5.3194 14.5921 5.30436 14.5931 5.28929 14.5935C4.67558 14.6128 4.17021 15.0809 4.10442 15.6904L4.10322 15.7016L4.10313 15.7015C3.96562 16.8187 3.96562 17.9471 4.10313 19.0643L4.10508 19.0818C4.16575 19.6929 4.67132 20.1627 5.28465 20.1782C5.3008 20.1786 5.31693 20.1795 5.33302 20.1809C6.35426 20.2729 7.38224 20.2729 8.40348 20.1809C8.41956 20.1795 8.43569 20.1786 8.45184 20.1782C9.06443 20.1627 9.57077 19.6926 9.63142 19.0818L9.63338 19.0642C9.77087 17.9481 9.77087 16.8187 9.63338 15.7026L9.63111 15.6819C9.5731 15.0715 9.06718 14.6021 8.45565 14.5898C8.43848 14.5894 8.42134 14.5885 8.40424 14.587Z" fill="#000000" />
<path fill-rule="evenodd" clip-rule="evenodd" d="M17.6323 13.4785C18.0465 13.4785 18.3823 13.8143 18.3823 14.2285V16.6338H20.7886C21.2028 16.6338 21.5386 16.9696 21.5386 17.3838C21.5386 17.798 21.2028 18.1338 20.7886 18.1338H18.3823V20.5405C18.3823 20.9547 18.0465 21.2905 17.6323 21.2905C17.2181 21.2905 16.8823 20.9547 16.8823 20.5405V18.1338H14.4766C14.0623 18.1338 13.7266 17.798 13.7266 17.3838C13.7266 16.9696 14.0623 16.6338 14.4766 16.6338H16.8823V14.2285C16.8823 13.8143 17.2181 13.4785 17.6323 13.4785Z" fill="#000000" />
<path fill-rule="evenodd" clip-rule="evenodd" d="M8.51379 2.32286C9.87146 2.36402 10.9892 3.40648 11.1233 4.76C11.2743 5.99324 11.2742 7.239 11.123 8.47223C10.982 9.8199 9.869 10.8569 8.51595 10.903C7.41981 11.0023 6.31669 11.0023 5.22055 10.903C3.8675 10.8569 2.75449 9.8199 2.61346 8.47223C2.46211 7.23765 2.46218 5.99052 2.61368 4.75596C2.76039 3.41203 3.86881 2.377 5.21882 2.3232C6.31481 2.22571 7.41779 2.2256 8.51379 2.32286ZM8.40348 3.81898C7.38224 3.72701 6.35426 3.72701 5.33302 3.81898C5.31847 3.82029 5.30388 3.82117 5.28927 3.82163C4.676 3.84087 4.16979 4.31046 4.10451 4.92166L4.10323 4.93364L4.10313 4.93363C3.96562 6.05077 3.96562 7.17923 4.10313 8.29637L4.10491 8.31225C4.16677 8.92148 4.672 9.38939 5.28393 9.40422C5.30078 9.40463 5.31762 9.40561 5.33441 9.40715C6.35473 9.50095 7.38177 9.50095 8.40209 9.40715C8.41888 9.40561 8.43572 9.40463 8.45257 9.40422C9.0645 9.38939 9.56973 8.92148 9.63159 8.31225L9.63337 8.29637C9.77088 7.17923 9.77088 6.05077 9.63337 4.93363L9.63111 4.91296C9.57315 4.30313 9.06771 3.83418 8.45565 3.82185C8.43823 3.8215 8.42083 3.82054 8.40348 3.81898Z" fill="#000000" />
<path fill-rule="evenodd" clip-rule="evenodd" d="M19.2775 2.32286C20.6338 2.36404 21.7528 3.40716 21.886 4.75998C22.038 5.99323 22.0379 7.23899 21.8857 8.47222C21.7457 9.82027 20.6323 10.8569 19.2796 10.903C18.1835 11.0023 17.0804 11.0023 15.9842 10.903C14.6312 10.8569 13.5182 9.8199 13.3771 8.47223C13.2258 7.23765 13.2259 5.99052 13.3774 4.75596C13.5241 3.41203 14.6325 2.377 15.9825 2.3232C17.0785 2.22571 18.1815 2.2256 19.2775 2.32286ZM19.1672 3.81898C18.1459 3.72701 17.1179 3.72701 16.0967 3.81898C16.0821 3.82029 16.0675 3.82117 16.0529 3.82163C15.4397 3.84087 14.9335 4.31046 14.8682 4.92166L14.8669 4.93364L14.8668 4.93363C14.7293 6.05077 14.7293 7.17923 14.8668 8.29637L14.8686 8.31225C14.9304 8.92148 15.4357 9.38939 16.0476 9.40422C16.0645 9.40463 16.0813 9.40561 16.0981 9.40715C17.1184 9.50095 18.1454 9.50095 19.1658 9.40715C19.1826 9.40561 19.1994 9.40463 19.2162 9.40422C19.8283 9.38938 20.333 8.92148 20.3942 8.313L20.3961 8.29575C20.5345 7.17902 20.5345 6.05098 20.3961 4.93425C20.3952 4.92694 20.3944 4.91962 20.3937 4.91229C20.3365 4.3041 19.8305 3.83417 19.2193 3.82185C19.2019 3.8215 19.1845 3.82054 19.1672 3.81898Z" fill="#000000" />
</svg>