<svg width="24px"  height="24px"  viewBox="0 0 25 24" fill="none" xmlns="http://www.w3.org/2000/svg">
<path fill-rule="evenodd" clip-rule="evenodd" d="M5.38405 4.27344C4.61958 4.27344 4 4.89302 4 5.65748V8.18572C4 8.95018 4.61958 9.56976 5.38405 9.56976H7.91228C8.67674 9.56976 9.29633 8.95018 9.29633 8.18572V5.65748C9.29633 4.89302 8.67674 4.27344 7.91228 4.27344H5.38405ZM2.5 5.65748C2.5 4.06459 3.79116 2.77344 5.38405 2.77344H7.91228C9.50517 2.77344 10.7963 4.06459 10.7963 5.65748V8.18572C10.7963 9.77861 9.50517 11.0698 7.91228 11.0698H5.38405C3.79116 11.0698 2.5 9.77861 2.5 8.18572V5.65748Z" fill="#000000" />
<path fill-rule="evenodd" clip-rule="evenodd" d="M18.3067 4.15511C17.7653 3.61469 16.8887 3.61524 16.3488 4.15511L14.5617 5.94223C14.5616 5.94226 14.5617 5.9422 14.5617 5.94223C14.021 6.48359 14.0214 7.36048 14.5614 7.90042L16.3488 9.68786C16.8887 10.2284 17.7654 10.2291 18.3067 9.68785L20.0941 7.90042C20.634 7.36055 20.6345 6.48392 20.0941 5.94254M20.0941 5.94254L18.3067 4.15511L20.0941 5.94254ZM15.2881 3.09445C16.4142 1.96835 18.2404 1.96879 19.367 3.09414L21.1548 4.88188C22.2801 6.00854 22.2809 7.83498 21.1548 8.96108L19.3673 10.7485C18.2406 11.8752 16.414 11.8757 15.2878 10.7482L13.5007 8.96108C12.3746 7.83498 12.375 6.00885 13.5004 4.88219L15.2881 3.09445Z" fill="#000000" />
<path fill-rule="evenodd" clip-rule="evenodd" d="M16.0637 14.9531C15.2993 14.9531 14.6797 15.5727 14.6797 16.3372V18.8654C14.6797 19.6299 15.2993 20.2495 16.0637 20.2495H18.592C19.3564 20.2495 19.976 19.6299 19.976 18.8654V16.3372C19.976 15.5727 19.3564 14.9531 18.592 14.9531H16.0637ZM13.1797 16.3372C13.1797 14.7443 14.4708 13.4531 16.0637 13.4531H18.592C20.1849 13.4531 21.476 14.7443 21.476 16.3372V18.8654C21.476 20.4583 20.1849 21.7495 18.592 21.7495H16.0637C14.4708 21.7495 13.1797 20.4583 13.1797 18.8654V16.3372Z" fill="#000000" />
<path fill-rule="evenodd" clip-rule="evenodd" d="M5.38405 14.9531C4.61958 14.9531 4 15.5727 4 16.3372V18.8654C4 19.6299 4.61958 20.2495 5.38405 20.2495H7.91228C8.67674 20.2495 9.29633 19.6299 9.29633 18.8654V16.3372C9.29633 15.5727 8.67674 14.9531 7.91228 14.9531H5.38405ZM2.5 16.3372C2.5 14.7443 3.79116 13.4531 5.38405 13.4531H7.91228C9.50517 13.4531 10.7963 14.7443 10.7963 16.3372V18.8654C10.7963 20.4583 9.50517 21.7495 7.91228 21.7495H5.38405C3.79116 21.7495 2.5 20.4583 2.5 18.8654V16.3372Z" fill="#000000" />
</svg>