<svg width="24px"  height="24px"  viewBox="0 0 25 24" fill="none" xmlns="http://www.w3.org/2000/svg">
<path fill-rule="evenodd" clip-rule="evenodd" d="M5.448 3.75C4.64821 3.75 4 4.39821 4 5.198V7.802C4 8.60179 4.64821 9.25 5.448 9.25H8.052C8.85179 9.25 9.5 8.60179 9.5 7.802V5.198C9.5 4.39821 8.85179 3.75 8.052 3.75H5.448ZM2.5 5.198C2.5 3.56979 3.81979 2.25 5.448 2.25H8.052C9.68021 2.25 11 3.56979 11 5.198V7.802C11 9.43021 9.68021 10.75 8.052 10.75H5.448C3.81979 10.75 2.5 9.43021 2.5 7.802V5.198Z" fill="#000000" />
<path fill-rule="evenodd" clip-rule="evenodd" d="M17.75 3.75C16.2312 3.75 15 4.98121 15 6.5C15 8.01879 16.2312 9.25 17.75 9.25C19.2688 9.25 20.5 8.01879 20.5 6.5C20.5 4.98121 19.2688 3.75 17.75 3.75ZM13.5 6.5C13.5 4.15279 15.4028 2.25 17.75 2.25C20.0972 2.25 22 4.15279 22 6.5C22 8.84721 20.0972 10.75 17.75 10.75C15.4028 10.75 13.5 8.84721 13.5 6.5Z" fill="#000000" />
<path fill-rule="evenodd" clip-rule="evenodd" d="M16.448 14.75C15.6482 14.75 15 15.3982 15 16.198V18.802C15 19.6018 15.6482 20.25 16.448 20.25H19.052C19.8518 20.25 20.5 19.6018 20.5 18.802V16.198C20.5 15.3982 19.8518 14.75 19.052 14.75H16.448ZM13.5 16.198C13.5 14.5698 14.8198 13.25 16.448 13.25H19.052C20.6802 13.25 22 14.5698 22 16.198V18.802C22 20.4302 20.6802 21.75 19.052 21.75H16.448C14.8198 21.75 13.5 20.4302 13.5 18.802V16.198Z" fill="#000000" />
<path fill-rule="evenodd" clip-rule="evenodd" d="M5.448 14.75C4.64821 14.75 4 15.3982 4 16.198V18.802C4 19.6018 4.64821 20.25 5.448 20.25H8.052C8.85179 20.25 9.5 19.6018 9.5 18.802V16.198C9.5 15.3982 8.85179 14.75 8.052 14.75H5.448ZM2.5 16.198C2.5 14.5698 3.81979 13.25 5.448 13.25H8.052C9.68021 13.25 11 14.5698 11 16.198V18.802C11 20.4302 9.68021 21.75 8.052 21.75H5.448C3.81979 21.75 2.5 20.4302 2.5 18.802V16.198Z" fill="#000000" />
</svg>