<svg width="24px"  height="24px"  viewBox="0 0 25 24" fill="none" xmlns="http://www.w3.org/2000/svg">
<path fill-rule="evenodd" clip-rule="evenodd" d="M3.99072 3.89725C4.97541 2.84114 6.3776 2.25 8.03301 2.25H16.4675C18.1268 2.25 19.5292 2.84085 20.513 3.89769C21.4911 4.94847 21.9995 6.3989 21.9995 8.02625V15.9733C21.9995 17.6006 21.4911 19.0511 20.5128 20.1019C19.5289 21.1587 18.1263 21.7495 16.4665 21.7495H8.03301C6.37371 21.7495 4.97111 21.1587 3.9871 20.1019C3.00871 19.0512 2.5 17.6007 2.5 15.9733V8.02625C2.5 6.39786 3.01146 4.94754 3.99072 3.89725ZM5.08783 4.92016C4.41041 5.64672 4 6.70952 4 8.02625V15.9733C4 17.2909 4.40878 18.3536 5.08488 19.0797C5.75537 19.7998 6.74428 20.2495 8.03301 20.2495H16.4665C17.7558 20.2495 18.7447 19.7998 19.415 19.0798C20.0909 18.3537 20.4995 17.291 20.4995 15.9733V8.02625C20.4995 6.70848 20.0909 5.64579 19.4151 4.91972C18.7448 4.19972 17.7562 3.75 16.4675 3.75H8.03301C6.74915 3.75 5.75983 4.19943 5.08783 4.92016Z" fill="#000000" />
<path fill-rule="evenodd" clip-rule="evenodd" d="M11.2773 2.25C11.6916 2.25 12.0273 2.58579 12.0273 3V20.9995C12.0273 21.4137 11.6916 21.7495 11.2773 21.7495C10.8631 21.7495 10.5273 21.4137 10.5273 20.9995V3C10.5273 2.58579 10.8631 2.25 11.2773 2.25Z" fill="#000000" />
<path fill-rule="evenodd" clip-rule="evenodd" d="M10.5273 12C10.5273 11.5858 10.8631 11.25 11.2773 11.25H21.2501C21.6643 11.25 22.0001 11.5858 22.0001 12C22.0001 12.4142 21.6643 12.75 21.2501 12.75H11.2773C10.8631 12.75 10.5273 12.4142 10.5273 12Z" fill="#000000" />
</svg>