<svg width="24px"  height="24px"  viewBox="0 0 25 24" fill="none" xmlns="http://www.w3.org/2000/svg">
<path fill-rule="evenodd" clip-rule="evenodd" d="M5.448 16.75C4.64821 16.75 4 17.3982 4 18.198V18.802C4 19.6018 4.64821 20.25 5.448 20.25H8.052C8.85179 20.25 9.5 19.6018 9.5 18.802V18.198C9.5 17.3982 8.85179 16.75 8.052 16.75H5.448ZM2.5 18.198C2.5 16.5698 3.81979 15.25 5.448 15.25H8.052C9.68021 15.25 11 16.5698 11 18.198V18.802C11 20.4302 9.68021 21.75 8.052 21.75H5.448C3.81979 21.75 2.5 20.4302 2.5 18.802V18.198Z" fill="#000000" />
<path fill-rule="evenodd" clip-rule="evenodd" d="M5.448 3.75C4.64821 3.75 4 4.39821 4 5.198V9.802C4 10.6018 4.64821 11.25 5.448 11.25H8.052C8.85179 11.25 9.5 10.6018 9.5 9.802V5.198C9.5 4.39821 8.85179 3.75 8.052 3.75H5.448ZM2.5 5.198C2.5 3.56979 3.81979 2.25 5.448 2.25H8.052C9.68021 2.25 11 3.56979 11 5.198V9.802C11 11.4302 9.68021 12.75 8.052 12.75H5.448C3.81979 12.75 2.5 11.4302 2.5 9.802V5.198Z" fill="#000000" />
<path fill-rule="evenodd" clip-rule="evenodd" d="M16.448 3.75C15.6482 3.75 15 4.39821 15 5.198V18.802C15 19.6018 15.6482 20.25 16.448 20.25H19.052C19.8518 20.25 20.5 19.6018 20.5 18.802V5.198C20.5 4.39821 19.8518 3.75 19.052 3.75H16.448ZM13.5 5.198C13.5 3.56979 14.8198 2.25 16.448 2.25H19.052C20.6802 2.25 22 3.56979 22 5.198V18.802C22 20.4302 20.6802 21.75 19.052 21.75H16.448C14.8198 21.75 13.5 20.4302 13.5 18.802V5.198Z" fill="#000000" />
</svg>