<svg width="24px"  height="24px"  viewBox="0 0 25 24" fill="none" xmlns="http://www.w3.org/2000/svg">
<path fill-rule="evenodd" clip-rule="evenodd" d="M4.14859 3.73647C5.19932 2.75838 6.64969 2.25 8.27696 2.25H16.2236C17.8518 2.25 19.302 2.76113 20.3523 3.74009C21.4084 4.72451 21.9996 6.12643 21.9996 7.78178V16.2158C21.9996 17.875 21.4087 19.2776 20.352 20.2615C19.3013 21.2399 17.8509 21.7486 16.2236 21.7486H8.27696C6.64958 21.7486 5.19918 21.2399 4.14847 20.2614C3.09173 19.2773 2.50098 17.8745 2.50098 16.2148V7.78178C2.50098 6.12254 3.09179 4.72021 4.14859 3.73647ZM5.17062 4.8344C4.45067 5.50459 4.00098 6.49315 4.00098 7.78178V16.2148C4.00098 17.5041 4.45073 18.4931 5.17074 19.1637C5.89679 19.8398 6.95938 20.2486 8.27696 20.2486H16.2236C17.5412 20.2486 18.6038 19.8398 19.3298 19.1638C20.0498 18.4933 20.4996 17.5045 20.4996 16.2158V7.78178C20.4996 6.49802 20.0502 5.50904 19.3295 4.83735C18.6031 4.1602 17.5403 3.75 16.2236 3.75H8.27696C6.95927 3.75 5.89664 4.15857 5.17062 4.8344Z" fill="#000000" />
<path fill-rule="evenodd" clip-rule="evenodd" d="M2.5 8.98828C2.5 8.57407 2.83579 8.23828 3.25 8.23828H21.2398C21.654 8.23828 21.9898 8.57407 21.9898 8.98828C21.9898 9.40249 21.654 9.73828 21.2398 9.73828H3.25C2.83579 9.73828 2.5 9.40249 2.5 8.98828ZM2.5 15.0309C2.5 14.6167 2.83579 14.2809 3.25 14.2809H21.2398C21.654 14.2809 21.9898 14.6167 21.9898 15.0309C21.9898 15.4451 21.654 15.7809 21.2398 15.7809H3.25C2.83579 15.7809 2.5 15.4451 2.5 15.0309Z" fill="#000000" />
</svg>