<svg width="24px"  height="24px"  viewBox="0 0 25 24" fill="none" xmlns="http://www.w3.org/2000/svg">
<path fill-rule="evenodd" clip-rule="evenodd" d="M2.5 15.8139C2.5 14.2403 3.7755 12.9648 5.34909 12.9648H7.8359C9.40948 12.9648 10.685 14.2403 10.685 15.8139V18.3007C10.685 19.8743 9.40948 21.1498 7.8359 21.1498H5.34909C3.7755 21.1498 2.5 19.8743 2.5 18.3007V15.8139ZM5.34909 14.4648C4.60393 14.4648 4 15.0688 4 15.8139V18.3007C4 19.0459 4.60393 19.6498 5.34909 19.6498H7.8359C8.58105 19.6498 9.18498 19.0459 9.18498 18.3007V15.8139C9.18498 15.0688 8.58105 14.4648 7.8359 14.4648H5.34909Z" fill="#000000" />
<path fill-rule="evenodd" clip-rule="evenodd" d="M17.3604 14.1953C15.9594 14.1953 14.8242 15.3309 14.8242 16.7324C14.8242 18.1328 15.9593 19.2686 17.3604 19.2686C18.0202 19.2686 18.621 19.0167 19.072 18.604C19.0815 18.5946 19.0913 18.5856 19.1012 18.5768C19.5909 18.1144 19.8965 17.459 19.8965 16.7324C19.8965 15.3309 18.7613 14.1953 17.3604 14.1953ZM20.625 19.1063C21.1102 18.44 21.3965 17.6196 21.3965 16.7324C21.3965 14.503 19.5903 12.6953 17.3604 12.6953C15.1304 12.6953 13.3242 14.503 13.3242 16.7324C13.3242 18.961 15.1306 20.7686 17.3604 20.7686C18.1601 20.7686 18.9053 20.5361 19.5323 20.135L20.721 21.321C21.0143 21.6136 21.4891 21.613 21.7817 21.3198C22.0743 21.0266 22.0737 20.5517 21.7805 20.2592L20.625 19.1063Z" fill="#000000" />
<path fill-rule="evenodd" clip-rule="evenodd" d="M2.5 5.30807C2.5 3.73449 3.7755 2.45898 5.34909 2.45898H7.8359C9.40948 2.45898 10.685 3.73449 10.685 5.30807V7.79488C10.685 9.36846 9.40948 10.644 7.8359 10.644H5.34909C3.7755 10.644 2.5 9.36847 2.5 7.79488V5.30807ZM5.34909 3.95898C4.60393 3.95898 4 4.56292 4 5.30807V7.79488C4 8.54004 4.60393 9.14397 5.34909 9.14397H7.8359C8.58105 9.14397 9.18498 8.54004 9.18498 7.79488V5.30807C9.18498 4.56292 8.58105 3.95898 7.8359 3.95898H5.34909Z" fill="#000000" />
<path fill-rule="evenodd" clip-rule="evenodd" d="M13.0059 5.30807C13.0059 3.73449 14.2814 2.45898 15.8549 2.45898H18.3418C19.9153 2.45898 21.1908 3.73449 21.1908 5.30807V7.79488C21.1908 9.36847 19.9153 10.644 18.3418 10.644H15.8549C14.2814 10.644 13.0059 9.36846 13.0059 7.79488V5.30807ZM15.8549 3.95898C15.1098 3.95898 14.5059 4.56292 14.5059 5.30807V7.79488C14.5059 8.54004 15.1098 9.14397 15.8549 9.14397H18.3418C19.0869 9.14397 19.6908 8.54004 19.6908 7.79488V5.30807C19.6908 4.56292 19.0869 3.95898 18.3418 3.95898H15.8549Z" fill="#000000" />
</svg>