<svg width="24px"  height="24px"  viewBox="0 0 25 24" fill="none" xmlns="http://www.w3.org/2000/svg">
<path fill-rule="evenodd" clip-rule="evenodd" d="M6.85023 15.1897C6.8502 15.1897 6.85027 15.1896 6.85023 15.1897L4.21194 19.8015C4.21176 19.802 4.21094 19.8042 4.21094 19.807L4.211 19.8086C4.211 19.8086 4.211 19.8086 4.211 19.8086C4.21103 19.8087 4.21146 19.8099 4.21253 19.811C4.21361 19.812 4.21455 19.8125 4.21492 19.8127C4.2151 19.8127 4.21635 19.813 4.21794 19.813H9.49994C9.49983 19.813 9.50086 19.813 9.50257 19.8126L9.50461 19.8119C9.50518 19.8117 9.50462 19.8119 9.50461 19.8119L9.5058 19.8111C9.50593 19.811 9.50664 19.81 9.50709 19.8083C9.50754 19.8066 9.50751 19.8054 9.50745 19.8049C9.50745 19.8049 9.50748 19.8042 9.5062 19.8019L6.86325 15.189C6.86326 15.189 6.86341 15.1892 6.86325 15.189C6.86289 15.1886 6.862 15.1879 6.86023 15.1869C6.85892 15.1861 6.85809 15.1858 6.85801 15.1858C6.85776 15.1858 6.85647 15.1856 6.85487 15.1861C6.85326 15.1865 6.85227 15.1871 6.85191 15.1874C6.85182 15.1875 6.85092 15.1885 6.85023 15.1897ZM7.60564 13.8852C6.88271 13.4711 5.9633 13.7225 5.54964 14.4424L2.91045 19.0557C2.91052 19.0556 2.91038 19.0558 2.91045 19.0557C2.77805 19.2866 2.71094 19.5459 2.71094 19.807C2.71094 20.6405 3.38702 21.313 4.21794 21.313H9.49994C9.76288 21.313 10.0218 21.2438 10.2484 21.1146L10.2498 21.1138C10.9732 20.6993 11.221 19.7775 10.8077 19.0562C10.8077 19.0562 10.8077 19.0562 10.8077 19.0562L8.16478 14.4433C8.03014 14.2082 7.83597 14.0171 7.60564 13.8852Z" fill="#000000" />
<path fill-rule="evenodd" clip-rule="evenodd" d="M16.3386 14.75C15.5388 14.75 14.8906 15.3982 14.8906 16.198V18.802C14.8906 19.6018 15.5388 20.25 16.3386 20.25H18.9426C19.7424 20.25 20.3906 19.6018 20.3906 18.802V16.198C20.3906 15.3982 19.7424 14.75 18.9426 14.75H16.3386ZM13.3906 16.198C13.3906 14.5698 14.7104 13.25 16.3386 13.25H18.9426C20.5708 13.25 21.8906 14.5698 21.8906 16.198V18.802C21.8906 20.4302 20.5708 21.75 18.9426 21.75H16.3386C14.7104 21.75 13.3906 20.4302 13.3906 18.802V16.198Z" fill="#000000" />
<path fill-rule="evenodd" clip-rule="evenodd" d="M13.5938 3.89272C13.5938 3.05921 14.2698 2.38672 15.1007 2.38672H20.3827C20.6472 2.38672 20.9039 2.4567 21.1288 2.5838L21.134 2.58673C21.855 3.00186 22.1044 3.92129 21.6905 4.64359L19.0476 9.25642C19.0476 9.25647 19.0476 9.25637 19.0476 9.25642C18.9149 9.48815 18.7218 9.68243 18.4864 9.81571C17.7638 10.2282 16.8457 9.97662 16.4325 9.25737L13.7933 4.64404C13.7932 4.64387 13.7934 4.64421 13.7933 4.64404C13.6609 4.41323 13.5938 4.15382 13.5938 3.89272ZM15.0938 3.89117L15.0938 3.89272C15.0938 3.89551 15.0941 3.89697 15.0943 3.89749L17.733 8.51007C17.7331 8.51013 17.733 8.51001 17.733 8.51007C17.7337 8.51124 17.7343 8.51191 17.7344 8.51202C17.7346 8.51221 17.7356 8.51292 17.7365 8.51328C17.7368 8.51342 17.7372 8.51356 17.7377 8.51368C17.7393 8.51412 17.7403 8.51406 17.7406 8.51403C17.7407 8.514 17.7416 8.51374 17.7429 8.51298L17.7457 8.51136C17.7458 8.51126 17.7456 8.51149 17.7457 8.51136L20.389 3.89787C20.3908 3.89471 20.3906 3.89087 20.3874 3.88804C20.3843 3.88673 20.3824 3.88672 20.3827 3.88672H15.1007C15.0992 3.88672 15.0984 3.88687 15.0982 3.8869C15.0978 3.88706 15.0964 3.88771 15.0953 3.88878C15.0943 3.88985 15.0938 3.89111 15.0938 3.89117Z" fill="#000000" />
<path fill-rule="evenodd" clip-rule="evenodd" d="M5.55737 3.75C4.75759 3.75 4.10938 4.39821 4.10938 5.198V7.802C4.10938 8.60179 4.75759 9.25 5.55737 9.25H8.16138C8.96116 9.25 9.60938 8.60179 9.60938 7.802V5.198C9.60938 4.39821 8.96116 3.75 8.16138 3.75H5.55737ZM2.60938 5.198C2.60938 3.56979 3.92916 2.25 5.55737 2.25H8.16138C9.78959 2.25 11.1094 3.56979 11.1094 5.198V7.802C11.1094 9.43021 9.78959 10.75 8.16138 10.75H5.55737C3.92916 10.75 2.60938 9.43021 2.60938 7.802V5.198Z" fill="#000000" />
</svg>