<svg width="24px"  height="24px"  viewBox="0 0 25 24" fill="none" xmlns="http://www.w3.org/2000/svg">
<path fill-rule="evenodd" clip-rule="evenodd" d="M3.25 3.64648C3.66421 3.64648 4 3.98227 4 4.39648V19.6041C4 20.0183 3.66421 20.3541 3.25 20.3541C2.83579 20.3541 2.5 20.0183 2.5 19.6041V4.39648C2.5 3.98227 2.83579 3.64648 3.25 3.64648Z" fill="#000000" />
<path fill-rule="evenodd" clip-rule="evenodd" d="M21.25 3.64648C21.6642 3.64648 22 3.98227 22 4.39648V19.6041C22 20.0183 21.6642 20.3541 21.25 20.3541C20.8358 20.3541 20.5 20.0183 20.5 19.6041V4.39648C20.5 3.98227 20.8358 3.64648 21.25 3.64648Z" fill="#000000" />
<path fill-rule="evenodd" clip-rule="evenodd" d="M9.72576 4.21875C8.41198 4.21875 7.34766 5.28307 7.34766 6.59686V17.4046C7.34766 18.7184 8.41198 19.7827 9.72576 19.7827H14.7998C16.1139 19.7827 17.1789 18.7181 17.1789 17.4046V6.59686C17.1789 5.28338 16.1139 4.21875 14.7998 4.21875H9.72576ZM5.84766 6.59686C5.84766 4.45464 7.58355 2.71875 9.72576 2.71875H14.7998C16.9417 2.71875 18.6789 4.45434 18.6789 6.59686V17.4046C18.6789 19.5472 16.9417 21.2827 14.7998 21.2827H9.72576C7.58355 21.2827 5.84766 19.5469 5.84766 17.4046V6.59686Z" fill="#000000" />
</svg>