<svg width="24px"  height="24px"  viewBox="0 0 25 24" fill="none" xmlns="http://www.w3.org/2000/svg">
<path fill-rule="evenodd" clip-rule="evenodd" d="M6.84588 7.07031C5.5324 7.07031 4.46777 8.1353 4.46777 9.44939V14.5235C4.46777 15.8372 5.5321 16.9016 6.84588 16.9016H17.6537C18.9678 16.9016 20.0328 15.8369 20.0328 14.5235V9.44939C20.0328 8.13561 18.9675 7.07031 17.6537 7.07031H6.84588ZM2.96777 9.44939C2.96777 7.30748 4.70336 5.57031 6.84588 5.57031H17.6537C19.7959 5.57031 21.5328 7.30718 21.5328 9.44939V14.5235C21.5328 16.666 19.7956 18.4016 17.6537 18.4016H6.84588C4.70367 18.4016 2.96777 16.6657 2.96777 14.5235V9.44939Z" fill="#000000" />
<path fill-rule="evenodd" clip-rule="evenodd" d="M6.70801 16.9414C7.12222 16.9414 7.45801 17.2772 7.45801 17.6914V19.0536C7.45801 19.5076 7.62869 19.78 7.88139 19.9637C8.16499 20.17 8.6164 20.306 9.20368 20.306H15.2984C15.8915 20.306 16.342 20.1696 16.6236 19.9643C16.8739 19.7817 17.0441 19.51 17.0441 19.0536V17.6914C17.0441 17.2772 17.3799 16.9414 17.7941 16.9414C18.2083 16.9414 18.5441 17.2772 18.5441 17.6914V19.0536C18.5441 19.972 18.1586 20.7014 17.5073 21.1763C16.8871 21.6285 16.0899 21.806 15.2984 21.806H9.20368C8.41615 21.806 7.61973 21.6281 6.99919 21.1769C6.34776 20.7032 5.95801 19.9743 5.95801 19.0536V17.6914C5.95801 17.2772 6.29379 16.9414 6.70801 16.9414Z" fill="#000000" />
<path fill-rule="evenodd" clip-rule="evenodd" d="M7.88139 4.01799C7.62869 4.20176 7.45801 4.47411 7.45801 4.92816V6.29032C7.45801 6.70454 7.12222 7.04032 6.70801 7.04032C6.29379 7.04032 5.95801 6.70454 5.95801 6.29032V4.92816C5.95801 4.0074 6.34776 3.27856 6.99919 2.80484C7.61973 2.35359 8.41616 2.17578 9.20368 2.17578H15.2984C16.0899 2.17578 16.8871 2.3532 17.5073 2.80541C18.1586 3.28034 18.5441 4.00975 18.5441 4.92816V6.29032C18.5441 6.70454 18.2083 7.04032 17.7941 7.04032C17.3799 7.04032 17.0441 6.70454 17.0441 6.29032V4.92816C17.0441 4.47176 16.8739 4.19998 16.6236 4.01742C16.342 3.81214 15.8915 3.67578 15.2984 3.67578H9.20368C8.6164 3.67578 8.16499 3.81176 7.88139 4.01799Z" fill="#000000" />
</svg>