<svg width="24px"  height="24px"  viewBox="0 0 25 25" fill="none" xmlns="http://www.w3.org/2000/svg">
<path d="M18.4577 14.0148H6.22772C5.56609 14.0017 4.93601 13.7296 4.47275 13.257C4.00949 12.7845 3.75 12.1491 3.75 11.4873C3.75 10.8255 4.00949 10.1902 4.47275 9.71759C4.93601 9.24503 5.56609 8.97294 6.22772 8.95978H9.48071C9.32171 7.63078 9.05072 5.40179 9.05072 5.40179C9.04674 5.37162 9.04473 5.34122 9.04471 5.31079C9.05975 4.44777 9.41314 3.6252 10.0288 3.0202C10.6444 2.4152 11.4731 2.07617 12.3362 2.07617C13.1994 2.07617 14.028 2.4152 14.6436 3.0202C15.2593 3.6252 15.6127 4.44777 15.6277 5.31079L15.1977 8.96881L18.4527 8.96283C19.1227 8.96283 19.7651 9.22892 20.2389 9.70264C20.7126 10.1764 20.9787 10.8189 20.9787 11.4888C20.9787 12.1588 20.7126 12.8012 20.2389 13.275C19.7651 13.7487 19.1227 14.0148 18.4527 14.0148H18.4577ZM6.22971 10.4598C6.02644 10.4597 5.82772 10.5199 5.65869 10.6328C5.48966 10.7457 5.35792 10.9062 5.28018 11.0941C5.20244 11.2819 5.18219 11.4885 5.22198 11.6879C5.26178 11.8872 5.35983 12.0702 5.50372 12.2138C5.59887 12.3094 5.71202 12.3851 5.83664 12.4366C5.96126 12.4881 6.09486 12.5143 6.22971 12.5138H18.4577C18.7298 12.5135 18.9907 12.4054 19.1833 12.2131C19.3758 12.0207 19.4842 11.7599 19.4847 11.4878C19.4847 11.2159 19.3768 10.9551 19.1846 10.7627C18.9924 10.5703 18.7317 10.4621 18.4597 10.4618L14.3597 10.4688C14.2537 10.4689 14.1488 10.4464 14.0521 10.403C13.9554 10.3595 13.869 10.2961 13.7986 10.2168C13.7282 10.1375 13.6754 10.0442 13.6437 9.94299C13.612 9.84181 13.6021 9.7351 13.6147 9.62982L14.1387 5.22083C14.0963 4.77051 13.8859 4.35263 13.5493 4.05042C13.2128 3.7482 12.7748 3.58379 12.3226 3.58984C11.8703 3.59589 11.4369 3.77196 11.1086 4.08307C10.7803 4.39418 10.5811 4.81751 10.5507 5.2688C10.6037 5.7048 10.9967 8.9328 11.0757 9.6228C11.0878 9.72785 11.0776 9.8343 11.0457 9.93512C11.0138 10.0359 10.9609 10.1288 10.8906 10.2078C10.8202 10.2867 10.734 10.3499 10.6375 10.3932C10.541 10.4365 10.4365 10.4588 10.3307 10.4588L6.22971 10.4598Z" fill="#000000" />
<path d="M10.9516 21.5258C7.80463 21.5258 5.01263 21.5258 4.94663 21.5098C4.70156 21.4619 4.4719 21.3549 4.27759 21.1981C4.08328 21.0412 3.9302 20.8393 3.83164 20.6099C3.74021 20.3865 3.70347 20.1446 3.72452 19.9042C3.74557 19.6638 3.82379 19.4319 3.95264 19.2278C4.59516 18.2253 4.91164 17.0484 4.85864 15.8588V13.4238C4.85864 13.2249 4.93766 13.0341 5.07831 12.8935C5.21896 12.7528 5.40973 12.6738 5.60864 12.6738C5.80756 12.6738 5.9983 12.7528 6.13895 12.8935C6.2796 13.0341 6.35864 13.2249 6.35864 13.4238V15.8289C6.41874 17.3005 6.02873 18.7555 5.24063 19.9998V20.0168C6.72563 20.0168 18.0186 20.0168 19.4576 20.0168C18.6532 18.7614 18.2584 17.2873 18.3276 15.7979V13.4238C18.3276 13.2249 18.4067 13.0341 18.5473 12.8935C18.688 12.7528 18.8787 12.6738 19.0776 12.6738C19.2766 12.6738 19.4673 12.7528 19.608 12.8935C19.7486 13.0341 19.8276 13.2249 19.8276 13.4238V15.8289C19.7714 17.0079 20.0755 18.176 20.6996 19.1779C20.8398 19.386 20.9271 19.6252 20.954 19.8748C20.9808 20.1243 20.9464 20.3766 20.8536 20.6099C20.7597 20.8318 20.614 21.0281 20.4287 21.1822C20.2435 21.3363 20.024 21.4439 19.7886 21.4958C19.6966 21.5168 15.0276 21.5258 10.9516 21.5258Z" fill="#000000" />
<path d="M8.42518 21.5205C8.27275 21.5209 8.12394 21.4741 7.99919 21.3865C7.91816 21.3305 7.84896 21.2592 7.79554 21.1765C7.74213 21.0937 7.70556 21.0013 7.68791 20.9044C7.67026 20.8075 7.67189 20.7081 7.6927 20.6119C7.71351 20.5156 7.75309 20.4244 7.80918 20.3435C8.30771 19.6238 8.62724 18.7955 8.74119 17.9275C8.75578 17.7286 8.84877 17.5436 8.99974 17.4133C9.1507 17.2829 9.34727 17.2179 9.54618 17.2325C9.7451 17.2471 9.93007 17.3401 10.0604 17.4911C10.1907 17.6421 10.2558 17.8386 10.2412 18.0375C10.1079 19.1737 9.69565 20.2593 9.04118 21.1975C8.9724 21.2973 8.8804 21.3788 8.77308 21.4351C8.66577 21.4913 8.54636 21.5207 8.42518 21.5205Z" fill="#000000" />
<path d="M14.6301 21.5213C14.4698 21.5215 14.3137 21.4703 14.1847 21.3753C14.0557 21.2803 13.9605 21.1464 13.9131 20.9933C13.7132 20.3468 13.6475 19.6662 13.7201 18.9933C13.7456 18.8005 13.845 18.6252 13.9974 18.5043C14.1497 18.3834 14.3431 18.3264 14.5366 18.3454C14.7302 18.3643 14.9088 18.4577 15.0348 18.6058C15.1608 18.7539 15.2244 18.9452 15.2121 19.1393C15.1596 19.6126 15.2056 20.0916 15.3471 20.5463C15.3759 20.6408 15.3859 20.7401 15.3764 20.8384C15.3669 20.9367 15.3381 21.0322 15.2916 21.1194C15.2452 21.2066 15.182 21.2838 15.1057 21.3466C15.0295 21.4094 14.9416 21.4565 14.8471 21.4853C14.7768 21.5076 14.7037 21.5197 14.6301 21.5213Z" fill="#000000" />
</svg>