<svg width="24px"  height="24px"  viewBox="0 0 25 24" fill="none" xmlns="http://www.w3.org/2000/svg">
<path fill-rule="evenodd" clip-rule="evenodd" d="M3.25 12.4629C3.66421 12.4629 4 12.7987 4 13.2129C4 16.9525 7.03086 19.9832 10.7693 19.9832C11.1836 19.9832 11.5193 20.319 11.5193 20.7332C11.5193 21.1474 11.1836 21.4832 10.7693 21.4832C6.2023 21.4832 2.5 17.7808 2.5 13.2129C2.5 12.7987 2.83579 12.4629 3.25 12.4629Z" fill="#000000" />
<path fill-rule="evenodd" clip-rule="evenodd" d="M12.9805 3.14062C12.9805 2.72641 13.3163 2.39062 13.7305 2.39062C18.2975 2.39062 21.9998 6.09305 21.9998 10.6609C21.9998 11.0752 21.664 11.4109 21.2498 11.4109C20.8356 11.4109 20.4998 11.0752 20.4998 10.6609C20.4998 6.92136 17.469 3.89062 13.7305 3.89062C13.3163 3.89062 12.9805 3.55484 12.9805 3.14062Z" fill="#000000" />
<path fill-rule="evenodd" clip-rule="evenodd" d="M13.6367 16.5897C13.6367 14.8332 15.0599 13.4082 16.8173 13.4082H18.6572C20.4142 13.4082 21.8387 14.8328 21.8387 16.5897V18.4287C21.8387 20.1868 20.414 21.6102 18.6572 21.6102H16.8173C15.0601 21.6102 13.6367 20.1864 13.6367 18.4287V16.5897ZM16.8173 14.9082C15.8891 14.9082 15.1367 15.6608 15.1367 16.5897V18.4287C15.1367 19.3584 15.8889 20.1102 16.8173 20.1102H18.6572C19.5859 20.1102 20.3387 19.358 20.3387 18.4287V16.5897C20.3387 15.6612 19.5857 14.9082 18.6572 14.9082H16.8173Z" fill="#000000" />
<path fill-rule="evenodd" clip-rule="evenodd" d="M2.61914 5.57215C2.61914 3.81559 4.04235 2.39062 5.79969 2.39062H7.63964C9.39659 2.39062 10.8212 3.8152 10.8212 5.57215V7.41209C10.8212 9.16944 9.3962 10.5926 7.63964 10.5926H5.79969C4.04274 10.5926 2.61914 9.16905 2.61914 7.41209V5.57215ZM5.79969 3.89062C4.87156 3.89062 4.11914 4.64323 4.11914 5.57215V7.41209C4.11914 8.34062 4.87117 9.09265 5.79969 9.09265H7.63964C8.56855 9.09265 9.32116 8.34023 9.32116 7.41209V5.57215C9.32116 4.64363 8.56816 3.89062 7.63964 3.89062H5.79969Z" fill="#000000" />
</svg>