<svg width="24px"  height="24px"  viewBox="0 0 25 25" fill="none" xmlns="http://www.w3.org/2000/svg">
<path fill-rule="evenodd" clip-rule="evenodd" d="M9.14503 3.85845C9.14505 3.85849 9.14501 3.85841 9.14503 3.85845L11.0394 7.18214C11.8724 8.64569 10.817 10.4656 9.13166 10.4656H5.31939C3.62901 10.4656 2.57243 8.63616 3.4175 7.17189C3.41752 7.17186 3.41748 7.17193 3.4175 7.17189L5.33531 3.84807C6.18329 2.37964 8.3054 2.38488 9.14503 3.85845ZM6.63442 4.59795C6.63438 4.59803 6.63447 4.59788 6.63442 4.59795L4.71674 7.92154C4.44879 8.38578 4.78355 8.96557 5.31939 8.96557H9.13166C9.66481 8.96557 10.0006 8.38947 9.736 7.9245L7.84177 4.60109C7.57605 4.13468 6.90354 4.13231 6.63442 4.59795Z" fill="#000000" />
<path fill-rule="evenodd" clip-rule="evenodd" d="M13.7344 18.0489C13.7344 15.7296 15.6143 13.8496 17.9337 13.8496C20.2539 13.8496 22.134 15.7294 22.134 18.0489C22.134 20.3682 20.2542 22.2493 17.9337 22.2493C15.6141 22.2493 13.7344 20.368 13.7344 18.0489ZM17.9337 15.3496C16.4428 15.3496 15.2344 16.558 15.2344 18.0489C15.2344 19.5402 16.443 20.7493 17.9337 20.7493C19.4255 20.7493 20.634 19.54 20.634 18.0489C20.634 16.5581 19.4258 15.3496 17.9337 15.3496Z" fill="#000000" />
<path fill-rule="evenodd" clip-rule="evenodd" d="M3.48828 13.0723C3.90249 13.0723 4.23828 13.4081 4.23828 13.8223C4.23828 17.5366 7.24967 20.5479 10.964 20.5479C11.3782 20.5479 11.714 20.8837 11.714 21.2979C11.714 21.7122 11.3782 22.0479 10.964 22.0479C6.42124 22.0479 2.73828 18.365 2.73828 13.8223C2.73828 13.4081 3.07407 13.0723 3.48828 13.0723Z" fill="#000000" />
<path fill-rule="evenodd" clip-rule="evenodd" d="M13.1582 3.80664C13.1582 3.39243 13.494 3.05664 13.9082 3.05664C18.4509 3.05664 22.1339 6.7396 22.1339 11.2823C22.1339 11.6965 21.7981 12.0323 21.3839 12.0323C20.9697 12.0323 20.6339 11.6965 20.6339 11.2823C20.6339 7.56803 17.6225 4.55664 13.9082 4.55664C13.494 4.55664 13.1582 4.22085 13.1582 3.80664Z" fill="#000000" />
</svg>