<svg width="24px"  height="24px"  viewBox="0 0 25 25" fill="none" xmlns="http://www.w3.org/2000/svg">
<path fill-rule="evenodd" clip-rule="evenodd" d="M7.75949 17.3509C7.75986 17.7651 7.42436 18.1012 7.01015 18.1016L5.53972 18.1029L5.54101 19.5859C5.54137 20.0001 5.20588 20.3362 4.79166 20.3366C4.37745 20.3369 4.04137 20.0015 4.04101 19.5872L4.03906 17.3542C4.0387 16.9399 4.37419 16.6039 4.78841 16.6035L7.00884 16.6016C7.42305 16.6012 7.75913 16.9367 7.75949 17.3509Z" fill="#000000" />
<path fill-rule="evenodd" clip-rule="evenodd" d="M20.0772 4.66211C20.4914 4.66175 20.8275 4.99724 20.8279 5.41146L20.8298 7.64454C20.8302 8.05875 20.4947 8.39483 20.0805 8.39519L17.86 8.39714C17.4458 8.3975 17.1097 8.06201 17.1094 7.64779C17.109 7.23358 17.4445 6.8975 17.8587 6.89714L19.3292 6.89585L19.3279 5.41276C19.3275 4.99855 19.663 4.66247 20.0772 4.66211Z" fill="#000000" />
<path fill-rule="evenodd" clip-rule="evenodd" d="M8.80273 12.5569C8.80273 10.5518 10.4287 8.92578 12.4338 8.92578C14.4389 8.92578 16.065 10.5518 16.065 12.5569C16.065 14.562 14.4389 16.188 12.4338 16.188C10.4287 16.188 8.80273 14.562 8.80273 12.5569ZM12.4338 10.4258C11.2572 10.4258 10.3027 11.3802 10.3027 12.5569C10.3027 13.7336 11.2572 14.688 12.4338 14.688C13.6105 14.688 14.565 13.7336 14.565 12.5569C14.565 11.3802 13.6105 10.4258 12.4338 10.4258Z" fill="#000000" />
<path fill-rule="evenodd" clip-rule="evenodd" d="M21.4724 12.2275C21.8861 12.2479 22.205 12.5997 22.1846 13.0135C22.0339 16.0757 20.43 19.019 17.6245 20.7588L17.2292 20.1215L17.6245 20.7588C13.1455 23.5374 7.28165 22.2124 4.42389 17.8134C4.19823 17.466 4.29689 17.0015 4.64424 16.7759C4.99159 16.5502 5.4561 16.6489 5.68176 16.9962C8.09582 20.7122 13.0499 21.8315 16.8338 19.4841L16.8339 19.4841C19.2029 18.0149 20.5589 15.5307 20.6865 12.9397C20.7068 12.526 21.0587 12.2071 21.4724 12.2275Z" fill="#000000" />
<path fill-rule="evenodd" clip-rule="evenodd" d="M7.24665 4.24083C11.7256 1.46236 17.5895 2.78734 20.4472 7.1863C20.6729 7.53365 20.5742 7.99816 20.2269 8.22382C19.8795 8.44947 19.415 8.35082 19.1894 8.00346C16.7753 4.28747 11.8212 3.16821 8.03729 5.51554L8.03721 5.51559C5.66819 6.98476 4.3122 9.46895 4.18466 12.06C4.16429 12.4737 3.8124 12.7926 3.39869 12.7722C2.98498 12.7518 2.66611 12.3999 2.68647 11.9862C2.83721 8.92402 4.44111 5.98075 7.24656 4.24088" fill="#000000" />
</svg>