<svg width="24px"  height="24px"  viewBox="0 0 25 24" fill="none" xmlns="http://www.w3.org/2000/svg">
<path fill-rule="evenodd" clip-rule="evenodd" d="M8.74449 3.49641C9.49329 2.69303 10.555 2.25 11.7921 2.25H17.8276C19.0675 2.25 20.1299 2.69268 20.8785 3.49669C21.6215 4.29465 21.9996 5.3876 21.9996 6.59617V12.2833C21.9996 13.4919 21.6215 14.5848 20.8783 15.3828C20.1295 16.1868 19.0669 16.6295 17.8266 16.6295H11.7921C10.5522 16.6295 9.48997 16.1868 8.74156 15.3827C7.99883 14.5846 7.62109 13.4917 7.62109 12.2833V6.59617C7.62109 5.38673 8.00114 4.29393 8.74449 3.49641ZM9.84176 4.51914C9.40025 4.99283 9.12109 5.69811 9.12109 6.59617V12.2833C9.12109 13.1824 9.39916 13.8875 9.83957 14.3607C10.2743 14.8278 10.9227 15.1295 11.7921 15.1295H17.8266C18.6967 15.1295 19.3456 14.8277 19.7806 14.3605C20.2214 13.8873 20.4996 13.1822 20.4996 12.2833V6.59617C20.4996 5.69724 20.2214 4.99211 19.7807 4.51886C19.3457 4.05166 18.6971 3.75 17.8276 3.75H11.7921C10.9266 3.75 10.2778 4.05131 9.84176 4.51914Z" fill="#000000" />
<path fill-rule="evenodd" clip-rule="evenodd" d="M3.62398 8.61739C4.37301 7.8141 5.43493 7.37109 6.672 7.37109H12.7075C13.9474 7.37109 15.0098 7.81377 15.7584 8.61778C16.5014 9.41574 16.8795 10.5087 16.8795 11.7173V17.4044C16.8795 18.613 16.5014 19.7059 15.7582 20.5039C15.0094 21.3079 13.9468 21.7505 12.7065 21.7505H6.672C5.43206 21.7505 4.36969 21.3079 3.62106 20.5039C2.87807 19.7059 2.5 18.613 2.5 17.4044V11.7173C2.5 10.5077 2.88038 9.41486 3.62398 8.61739ZM4.72105 9.64035C4.27931 10.1141 4 10.8194 4 11.7173V17.4044C4 18.3033 4.27821 19.0084 4.71886 19.4817C5.15388 19.9489 5.80251 20.2505 6.672 20.2505H12.7065C13.5766 20.2505 14.2254 19.9488 14.6605 19.4816C15.1012 19.0084 15.3795 18.3033 15.3795 17.4044V11.7173C15.3795 10.8183 15.1012 10.1132 14.6606 9.63995C14.2256 9.17275 13.5769 8.87109 12.7075 8.87109H6.672C5.80644 8.87109 5.15737 9.17242 4.72105 9.64035Z" fill="#000000" />
</svg>