<svg width="24px"  height="24px"  viewBox="0 0 25 25" fill="none" xmlns="http://www.w3.org/2000/svg">
<path fill-rule="evenodd" clip-rule="evenodd" d="M9.7041 3.94336C9.7041 3.52915 10.0399 3.19336 10.4541 3.19336H14.417C14.8312 3.19336 15.167 3.52915 15.167 3.94336C15.167 4.35757 14.8312 4.69336 14.417 4.69336H10.4541C10.0399 4.69336 9.7041 4.35757 9.7041 3.94336Z" fill="#000000" />
<path fill-rule="evenodd" clip-rule="evenodd" d="M3.43555 10.2129C3.84976 10.2129 4.18555 10.5487 4.18555 10.9629V14.9248C4.18555 15.3391 3.84976 15.6748 3.43555 15.6748C3.02133 15.6748 2.68555 15.3391 2.68555 14.9248V10.9629C2.68555 10.5487 3.02133 10.2129 3.43555 10.2129Z" fill="#000000" />
<path fill-rule="evenodd" clip-rule="evenodd" d="M21.4355 10.2129C21.8498 10.2129 22.1855 10.5487 22.1855 10.9629V14.9248C22.1855 15.3391 21.8498 15.6748 21.4355 15.6748C21.0213 15.6748 20.6855 15.3391 20.6855 14.9248V10.9629C20.6855 10.5487 21.0213 10.2129 21.4355 10.2129Z" fill="#000000" />
<path fill-rule="evenodd" clip-rule="evenodd" d="M3.35909 17.1167C3.76931 17.0593 4.14838 17.3454 4.20575 17.7556C4.47454 19.6773 5.70919 20.9605 7.59646 21.1806C8.00789 21.2286 8.30251 21.601 8.25453 22.0124C8.20654 22.4238 7.83412 22.7185 7.42269 22.6705C4.8051 22.3652 3.07607 20.5076 2.72021 17.9634C2.66284 17.5531 2.94887 17.1741 3.35909 17.1167Z" fill="#000000" />
<path fill-rule="evenodd" clip-rule="evenodd" d="M21.469 17.1167C21.8792 17.1741 22.1652 17.5531 22.1078 17.9634C21.7522 20.5056 20.0346 22.3638 17.4154 22.6704C17.004 22.7186 16.6314 22.4241 16.5833 22.0127C16.5351 21.6013 16.8296 21.2288 17.241 21.1806C19.1266 20.9599 20.3532 19.6793 20.6223 17.7556C20.6797 17.3454 21.0587 17.0593 21.469 17.1167Z" fill="#000000" />
<path fill-rule="evenodd" clip-rule="evenodd" d="M9.70508 21.9434C9.70508 21.5291 10.0409 21.1934 10.4551 21.1934H14.418C14.8322 21.1934 15.168 21.5291 15.168 21.9434C15.168 22.3576 14.8322 22.6934 14.418 22.6934H10.4551C10.0409 22.6934 9.70508 22.3576 9.70508 21.9434Z" fill="#000000" />
<path fill-rule="evenodd" clip-rule="evenodd" d="M9.34961 7.80859C9.76382 7.80859 10.0996 8.14438 10.0996 8.55859V14.2388C10.0996 14.8144 10.5658 15.2801 11.1399 15.2801H16.8201C17.2343 15.2801 17.5701 15.6158 17.5701 16.0301C17.5701 16.4443 17.2343 16.7801 16.8201 16.7801H11.1399C9.73686 16.7801 8.59961 15.6423 8.59961 14.2388V8.55859C8.59961 8.14438 8.9354 7.80859 9.34961 7.80859Z" fill="#000000" />
<path fill-rule="evenodd" clip-rule="evenodd" d="M8.25449 3.87576C8.30265 4.28717 8.00818 4.65972 7.59678 4.70788C5.7111 4.92862 4.47481 6.21899 4.20575 8.14264C4.14838 8.55286 3.76931 8.83889 3.35909 8.78152C2.94887 8.72414 2.66284 8.34508 2.72021 7.93486C3.0758 5.39256 4.80319 3.52466 7.42238 3.21805C7.83378 3.16989 8.20633 3.46436 8.25449 3.87576Z" fill="#000000" />
<path fill-rule="evenodd" clip-rule="evenodd" d="M16.5833 3.87576C16.6314 3.46436 17.004 3.16989 17.4154 3.21805C20.0367 3.52491 21.7526 5.39483 22.1078 7.93486C22.1652 8.34508 21.8792 8.72414 21.469 8.78152C21.0587 8.83889 20.6797 8.55286 20.6223 8.14264C20.3529 6.21672 19.1245 4.92837 17.241 4.70788C16.8296 4.65972 16.5351 4.28717 16.5833 3.87576Z" fill="#000000" />
<path fill-rule="evenodd" clip-rule="evenodd" d="M7.30078 9.86133C7.30078 9.44711 7.63657 9.11133 8.05078 9.11133H9.34873C9.76294 9.11133 10.0987 9.44711 10.0987 9.86133C10.0987 10.2755 9.76294 10.6113 9.34873 10.6113H8.05078C7.63657 10.6113 7.30078 10.2755 7.30078 9.86133ZM15.5182 15.2817C15.9324 15.2817 16.2682 15.6175 16.2682 16.0317V17.3287C16.2682 17.7429 15.9324 18.0787 15.5182 18.0787C15.1039 18.0787 14.7682 17.7429 14.7682 17.3287V16.0317C14.7682 15.6175 15.1039 15.2817 15.5182 15.2817Z" fill="#000000" />
<path fill-rule="evenodd" clip-rule="evenodd" d="M11.0918 9.86133C11.0918 9.44711 11.4276 9.11133 11.8418 9.11133H13.7264C15.1299 9.11133 16.2667 10.2476 16.2667 11.6506V13.5674C16.2667 13.9816 15.9309 14.3174 15.5167 14.3174C15.1025 14.3174 14.7667 13.9816 14.7667 13.5674V11.6506C14.7667 11.0766 14.302 10.6113 13.7264 10.6113H11.8418C11.4276 10.6113 11.0918 10.2755 11.0918 9.86133Z" fill="#000000" />
</svg>