<svg width="24px"  height="24px"  viewBox="0 0 25 25" fill="none" xmlns="http://www.w3.org/2000/svg">
<path fill-rule="evenodd" clip-rule="evenodd" d="M12.2203 4.90039C9.39661 4.90039 7.10742 7.18958 7.10742 10.0133C7.10742 12.837 9.39661 15.1262 12.2203 15.1262C15.044 15.1262 17.3332 12.837 17.3332 10.0133C17.3332 7.18958 15.044 4.90039 12.2203 4.90039ZM5.60742 10.0133C5.60742 6.36115 8.56818 3.40039 12.2203 3.40039C15.8724 3.40039 18.8332 6.36115 18.8332 10.0133C18.8332 13.6654 15.8724 16.6262 12.2203 16.6262C8.56818 16.6262 5.60742 13.6654 5.60742 10.0133Z" fill="#000000" />
<path fill-rule="evenodd" clip-rule="evenodd" d="M7.06888 10.4127C7.27143 10.774 7.14273 11.2311 6.78141 11.4336C5.22768 12.3047 4.18555 13.967 4.18555 15.8727C4.18555 18.6984 6.47765 20.9905 9.3033 20.9905C10.3092 20.9905 11.2486 20.7003 12.0381 20.1923L12.0416 20.19L12.0416 20.1901C13.4629 19.2867 14.4113 17.6935 14.4113 15.8727C14.4113 15.6463 14.3962 15.4297 14.3654 15.2141C14.3068 14.804 14.5917 14.4241 15.0018 14.3655C15.4118 14.307 15.7917 14.5919 15.8503 15.0019C15.8915 15.2902 15.9113 15.5777 15.9113 15.8727C15.9113 18.2271 14.6831 20.2876 12.848 21.4549C11.8205 22.1156 10.6006 22.4905 9.3033 22.4905C5.64922 22.4905 2.68555 19.5268 2.68555 15.8727C2.68555 13.4062 4.03683 11.2526 6.04792 10.1252C6.40923 9.92267 6.86633 10.0514 7.06888 10.4127Z" fill="#000000" />
<path fill-rule="evenodd" clip-rule="evenodd" d="M17.3797 10.2567C17.5541 9.88095 18 9.71776 18.3757 9.89217C20.6305 10.9388 22.1851 13.233 22.1851 15.873C22.1851 19.5256 19.2316 22.4907 15.5761 22.4907C14.2786 22.4907 13.0561 22.1156 12.0348 21.4521C11.6875 21.2264 11.5889 20.7619 11.8145 20.4145C12.0402 20.0672 12.5047 19.9686 12.8521 20.1942C13.6308 20.7002 14.5696 20.9907 15.5761 20.9907C18.4003 20.9907 20.6851 18.7001 20.6851 15.873C20.6851 13.8332 19.4843 12.0605 17.7442 11.2527C17.3685 11.0783 17.2053 10.6324 17.3797 10.2567Z" fill="#000000" />
</svg>