<svg width="24px"  height="24px"  viewBox="0 0 25 25" fill="none" xmlns="http://www.w3.org/2000/svg">
<path fill-rule="evenodd" clip-rule="evenodd" d="M12.2147 4.12305C9.39087 4.12305 7.10156 6.41235 7.10156 9.23621C7.10156 12.0601 9.39087 14.3494 12.2147 14.3494C12.6289 14.3494 12.9647 14.6852 12.9647 15.0994C12.9647 15.5136 12.6289 15.8494 12.2147 15.8494C8.56244 15.8494 5.60156 12.8885 5.60156 9.23621C5.60156 5.58393 8.56244 2.62305 12.2147 2.62305C14.9955 2.62305 17.374 4.33839 18.3514 6.767C18.506 7.15127 18.3199 7.58814 17.9356 7.74278C17.5514 7.89742 17.1145 7.71128 16.9598 7.32701C16.2034 5.44729 14.363 4.12305 12.2147 4.12305Z" fill="#000000" />
<path fill-rule="evenodd" clip-rule="evenodd" d="M15.5686 9.98633C14.1377 9.98633 12.8456 10.5726 11.9164 11.5205C11.6265 11.8163 11.1516 11.821 10.8558 11.5311C10.56 11.2411 10.5553 10.7662 10.8453 10.4704C12.045 9.24661 13.7185 8.48633 15.5686 8.48633C19.2208 8.48633 22.1817 11.4472 22.1817 15.0995C22.1817 18.7518 19.2208 21.7126 15.5686 21.7126C15.1543 21.7126 14.8186 21.3769 14.8186 20.9626C14.8186 20.5484 15.1543 20.2126 15.5686 20.2126C18.3924 20.2126 20.6817 17.9233 20.6817 15.0995C20.6817 12.2756 18.3924 9.98633 15.5686 9.98633Z" fill="#000000" />
<path fill-rule="evenodd" clip-rule="evenodd" d="M4.61121 11.4954C4.96871 11.7046 5.08892 12.164 4.87971 12.5215C4.43733 13.2775 4.18359 14.1581 4.18359 15.0996C4.18359 17.9234 6.4729 20.2127 9.29675 20.2127C12.1206 20.2127 14.4099 17.9234 14.4099 15.0996C14.4099 14.4358 14.2834 13.8023 14.0537 13.221C13.9015 12.8357 14.0905 12.4 14.4757 12.2479C14.8609 12.0957 15.2966 12.2846 15.4488 12.6698C15.7465 13.4234 15.9099 14.2436 15.9099 15.0996C15.9099 18.7519 12.949 21.7127 9.29675 21.7127C5.64447 21.7127 2.68359 18.7519 2.68359 15.0996C2.68359 13.885 3.0117 12.7437 3.5851 11.7639C3.79431 11.4064 4.25372 11.2862 4.61121 11.4954Z" fill="#000000" />
</svg>