<svg width="24px"  height="24px"  viewBox="0 0 25 24" fill="none" xmlns="http://www.w3.org/2000/svg">
<path fill-rule="evenodd" clip-rule="evenodd" d="M3.9902 3.89737C4.97468 2.84117 6.37669 2.25 8.03216 2.25H16.4669C18.1262 2.25 19.5288 2.84084 20.5129 3.89765C21.4913 4.94841 22 6.39889 22 8.02638V15.9736C22 17.6011 21.4913 19.0516 20.5127 20.1024C19.5285 21.1592 18.1256 21.75 16.4659 21.75H8.03216C6.3728 21.75 4.97038 21.1591 3.98657 20.1023C3.00842 19.0515 2.5 17.601 2.5 15.9736V8.02638C2.5 6.39806 3.01117 4.94771 3.9902 3.89737ZM5.08745 4.92012C4.41024 5.64666 4 6.70951 4 8.02638V15.9736C4 17.2914 4.40861 18.3541 5.08451 19.0802C5.75475 19.8003 6.74341 20.25 8.03216 20.25H16.4659C17.7552 20.25 18.7444 19.8002 19.415 19.0801C20.0912 18.354 20.5 17.2913 20.5 15.9736V8.02638C20.5 6.70868 20.0912 5.64597 19.4151 4.91984C18.7446 4.19975 17.7556 3.75 16.4669 3.75H8.03216C6.74828 3.75 5.75921 4.19943 5.08745 4.92012Z" fill="#000000" />
<path fill-rule="evenodd" clip-rule="evenodd" d="M15.0599 7.47449C15.0601 7.47465 15.0598 7.47434 15.0599 7.47449L16.8301 9.24365C17.5987 10.0138 17.6002 11.2625 16.8302 12.0325L12.4372 16.4254C12.1443 16.7183 11.6695 16.7183 11.3766 16.4254C11.0837 16.1325 11.0837 15.6577 11.3766 15.3648L15.7696 10.9718C15.953 10.7883 15.9539 10.4895 15.7693 10.3042C15.7692 10.3041 15.7694 10.3043 15.7693 10.3042L13.9989 8.53476C13.8151 8.35064 13.5176 8.34996 13.3339 8.53407L8.82848 13.0395C8.60762 13.2599 8.60639 13.619 8.82848 13.8411L10.4193 15.4319C10.7122 15.7248 10.7122 16.1997 10.4193 16.4926C10.1264 16.7855 9.65153 16.7855 9.35863 16.4926L7.76782 14.9017C6.96066 14.0946 6.95975 12.7859 7.76782 11.9788C7.76798 11.9787 7.76766 11.979 7.76782 11.9788L12.2721 7.47449C13.0418 6.70384 14.2903 6.70379 15.0599 7.47449Z" fill="#000000" />
<path fill-rule="evenodd" clip-rule="evenodd" d="M9.9853 9.76069C10.2782 9.46779 10.7531 9.46779 11.046 9.76069L14.5438 13.2585C14.8367 13.5514 14.8367 14.0263 14.5438 14.3192C14.2509 14.6121 13.776 14.6121 13.4831 14.3192L9.98529 10.8213C9.6924 10.5285 9.6924 10.0536 9.9853 9.76069Z" fill="#000000" />
<path fill-rule="evenodd" clip-rule="evenodd" d="M6.71289 15.9512C6.71289 15.537 7.04868 15.2012 7.46289 15.2012H17.0389C17.4531 15.2012 17.7889 15.537 17.7889 15.9512C17.7889 16.3654 17.4531 16.7012 17.0389 16.7012H7.46289C7.04868 16.7012 6.71289 16.3654 6.71289 15.9512Z" fill="#000000" />
</svg>