<svg width="24px"  height="24px"  viewBox="0 0 25 24" fill="none" xmlns="http://www.w3.org/2000/svg">
<path fill-rule="evenodd" clip-rule="evenodd" d="M14.8447 2.25199C15.7835 2.21908 16.689 2.59425 17.428 3.33329L20.9155 6.8208C21.6558 7.56111 22.0314 8.46661 21.998 9.40573C21.9648 10.3366 21.5332 11.2181 20.8149 11.9364C20.8149 11.9364 20.815 11.9364 20.8149 11.9364L12.1883 20.5641C11.4699 21.2825 10.588 21.7141 9.65686 21.7471C8.71758 21.7804 7.8119 21.4046 7.07162 20.6638C7.07151 20.6637 7.07172 20.6639 7.07162 20.6638L3.58411 17.1773C2.84368 16.4369 2.46828 15.5312 2.5021 14.592C2.53562 13.6612 2.96746 12.7798 3.68564 12.0616C3.68565 12.0616 3.68563 12.0616 3.68564 12.0616L12.3123 3.4339C13.0312 2.71501 13.9138 2.28463 14.8447 2.25199ZM13.373 4.49453C13.373 4.49454 13.373 4.49452 13.373 4.49453L4.74636 13.1222C4.247 13.6216 4.01869 14.1584 4.00113 14.646C3.98387 15.1253 4.16649 15.6383 4.64461 16.1165C4.64464 16.1165 4.64458 16.1165 4.64461 16.1165L8.13212 19.603C8.61039 20.0816 9.12415 20.265 9.60373 20.248C10.0915 20.2307 10.6284 20.0027 11.1276 19.5035C11.1276 19.5035 11.1275 19.5036 11.1276 19.5035L19.7542 10.8758C20.2535 10.3766 20.4815 9.83988 20.4989 9.35231C20.516 8.87298 20.3331 8.35975 19.8548 7.88146L16.3673 4.39395C15.8909 3.91754 15.3776 3.73423 14.8972 3.75107C14.4089 3.7682 13.8716 3.99588 13.373 4.49453Z" fill="#000000" />
<path fill-rule="evenodd" clip-rule="evenodd" d="M7.82127 7.9169C8.11418 7.62403 8.58906 7.62406 8.88193 7.91697L16.3281 15.3642C16.621 15.6571 16.6209 16.132 16.328 16.4248C16.0351 16.7177 15.5602 16.7177 15.2674 16.4248L7.82119 8.97756C7.52832 8.68464 7.52836 8.20977 7.82127 7.9169Z" fill="#000000" />
</svg>