<svg width="24px"  height="24px"  viewBox="0 0 25 24" fill="none" xmlns="http://www.w3.org/2000/svg">
<path fill-rule="evenodd" clip-rule="evenodd" d="M12.7854 3.65893C14.0598 2.38452 16.1254 2.38452 17.3998 3.65893L21.0442 7.30337C22.3186 8.57777 22.3186 10.6443 21.0442 11.9188L13.1811 19.7819L21.2434 19.7975C21.6576 19.7983 21.9927 20.1347 21.9919 20.5489C21.9911 20.9632 21.6547 21.2983 21.2405 21.2975L20.4279 21.2959C20.4121 21.2969 20.3962 21.2974 20.3802 21.2974H16.1975C16.1559 21.2974 16.115 21.294 16.0752 21.2875L8.31837 21.2725C7.42965 21.2711 6.57802 20.9161 5.95219 20.2849C5.95219 20.2849 5.95218 20.2849 5.95218 20.2849L3.5137 17.8256C3.51329 17.8252 3.51288 17.8248 3.51247 17.8244C2.1621 16.4727 2.16251 14.2818 3.5137 12.9306L12.7854 3.65893ZM11.0639 19.7778L19.9835 10.8581C20.6722 10.1695 20.6722 9.05265 19.9835 8.36403L16.3391 4.71959C15.6505 4.03097 14.5347 4.03097 13.8461 4.71959L4.57436 13.9913C3.80855 14.7571 3.80855 15.9991 4.57436 16.7649L4.57661 16.7672L7.01736 19.2288L7.01737 19.2288C7.36158 19.576 7.83046 19.7717 8.32064 19.7725L8.32096 19.7725L11.0639 19.7778Z" fill="#000000" />
<path fill-rule="evenodd" clip-rule="evenodd" d="M8.07904 8.3642C8.37194 8.07131 8.84681 8.07131 9.13971 8.3642L16.3389 15.5634C16.6318 15.8563 16.6318 16.3311 16.3389 16.624C16.046 16.9169 15.5711 16.9169 15.2782 16.624L8.07904 9.42486C7.78615 9.13197 7.78615 8.65709 8.07904 8.3642Z" fill="#000000" />
</svg>