<svg width="24px"  height="24px"  viewBox="0 0 25 24" fill="none" xmlns="http://www.w3.org/2000/svg">
<path fill-rule="evenodd" clip-rule="evenodd" d="M3.9902 3.89737C4.97468 2.84117 6.37669 2.25 8.03216 2.25H16.4669C18.1262 2.25 19.5288 2.84084 20.5129 3.89765C21.4913 4.94841 22 6.39889 22 8.02638V15.9736C22 17.6011 21.4913 19.0516 20.5127 20.1024C19.5285 21.1592 18.1256 21.75 16.4659 21.75H8.03216C6.3728 21.75 4.97038 21.1591 3.98657 20.1023C3.00842 19.0515 2.5 17.601 2.5 15.9736V8.02638C2.5 6.39806 3.01117 4.94771 3.9902 3.89737ZM5.08745 4.92012C4.41024 5.64666 4 6.70951 4 8.02638V15.9736C4 17.2914 4.40861 18.3541 5.08451 19.0802C5.75475 19.8003 6.74341 20.25 8.03216 20.25H16.4659C17.7552 20.25 18.7444 19.8002 19.415 19.0801C20.0912 18.354 20.5 17.2913 20.5 15.9736V8.02638C20.5 6.70868 20.0912 5.64597 19.4151 4.91984C18.7446 4.19975 17.7556 3.75 16.4669 3.75H8.03216C6.74828 3.75 5.75921 4.19943 5.08745 4.92012Z" fill="#000000" />
<path fill-rule="evenodd" clip-rule="evenodd" d="M13.5245 6.78835C14.1056 6.76787 14.6535 7.00211 15.0861 7.43469L16.816 9.16463C17.2492 9.59783 17.4839 10.1457 17.4632 10.7272C17.4428 11.3004 17.1778 11.8244 16.7669 12.236L12.4873 16.5156C12.0759 16.9263 11.5516 17.1921 10.9782 17.2127C10.3964 17.2336 9.84818 16.9988 9.41452 16.5652L7.68555 14.8362C7.2527 14.4027 7.01767 13.8543 7.03837 13.2728C7.05878 12.6995 7.32382 12.1755 7.73475 11.7639L12.0143 7.48528C12.4265 7.07307 12.9514 6.80855 13.5245 6.78835ZM13.5774 8.28742C13.4465 8.29203 13.267 8.35394 13.075 8.54594L8.79626 12.8237C8.79619 12.8238 8.79634 12.8236 8.79626 12.8237C8.60412 13.0162 8.54206 13.1958 8.53742 13.3261C8.53307 13.4483 8.57524 13.6042 8.74645 13.7758C8.74651 13.7759 8.74638 13.7757 8.74645 13.7758L10.4752 15.5045C10.6467 15.6761 10.8025 15.7181 10.9243 15.7137C11.0546 15.709 11.2341 15.6471 11.4268 15.4547C11.4269 15.4546 11.4267 15.4548 11.4268 15.4547L15.7053 11.1762C15.7054 11.1761 15.7053 11.1763 15.7053 11.1762C15.8975 10.9836 15.9595 10.804 15.9642 10.6738C15.9685 10.5519 15.9264 10.3963 15.7554 10.2253L14.0254 8.49535C13.8558 8.32566 13.7002 8.28309 13.5774 8.28742Z" fill="#000000" />
<path fill-rule="evenodd" clip-rule="evenodd" d="M9.87201 9.62201C10.1649 9.32912 10.6398 9.32912 10.9327 9.62201L14.6261 13.3154C14.919 13.6083 14.919 14.0832 14.6261 14.3761C14.3332 14.669 13.8583 14.669 13.5654 14.3761L9.87201 10.6827C9.57912 10.3898 9.57912 9.91491 9.87201 9.62201Z" fill="#000000" />
</svg>