<svg width="24px"  height="24px"  viewBox="0 0 25 24" fill="none" xmlns="http://www.w3.org/2000/svg">
<path d="M3.25059 21.4046H3.21959C3.0208 21.396 2.83351 21.309 2.69875 21.1626C2.56399 21.0162 2.49273 20.8224 2.50059 20.6236C2.58033 19.6395 2.7514 18.665 3.01159 17.7126C3.01466 17.5921 3.04655 17.4742 3.10459 17.3686C4.01383 14.0758 5.71631 11.0561 8.063 8.57381C10.4097 6.09148 13.3291 4.22219 16.5656 3.12956C18.6606 2.56756 21.0836 2.12957 21.8206 3.52957C22.4386 4.70557 21.4806 6.52256 18.7206 9.42256C16.9026 11.3296 14.9916 12.9656 14.9106 13.0336C14.7944 13.1335 14.6501 13.195 14.4976 13.2096L10.7426 13.5786L11.8856 14.4786C11.977 14.5509 12.0503 14.6436 12.0995 14.7492C12.1488 14.8549 12.1728 14.9706 12.1695 15.0871C12.1662 15.2036 12.1357 15.3178 12.0805 15.4204C12.0253 15.5231 11.9469 15.6115 11.8516 15.6786C9.67522 17.3084 7.0742 18.2745 4.36159 18.4606C4.1807 19.1879 4.06128 19.9292 4.00459 20.6766C3.99859 20.8722 3.91642 21.0579 3.77558 21.1938C3.63474 21.3298 3.44636 21.4054 3.25059 21.4046ZM19.7506 4.09256C18.8241 4.13352 17.9063 4.29006 17.0186 4.55857C14.1544 5.52276 11.5559 7.14465 9.43151 9.29421C7.30714 11.4438 5.71597 14.0612 4.78559 16.9366C6.69479 16.7215 8.52777 16.0652 10.1396 15.0196L8.35059 13.5986C8.23355 13.5058 8.14689 13.3801 8.10172 13.2377C8.05654 13.0954 8.0549 12.9428 8.09701 12.7995C8.13912 12.6561 8.22307 12.5287 8.33808 12.4334C8.4531 12.3381 8.59395 12.2793 8.74259 12.2646L14.1116 11.7376C18.1526 8.25557 20.8116 4.91657 20.4926 4.22357C20.4916 4.22757 20.3506 4.09256 19.7506 4.09256Z" fill="#000000" />
<path d="M17.3788 21.4062H10.9688C10.7698 21.4062 10.5791 21.3272 10.4384 21.1866C10.2978 21.0459 10.2188 20.8552 10.2188 20.6562C10.2188 20.4573 10.2978 20.2666 10.4384 20.1259C10.5791 19.9853 10.7698 19.9062 10.9688 19.9062H17.3788C17.5777 19.9062 17.7684 19.9853 17.9091 20.1259C18.0497 20.2666 18.1288 20.4573 18.1288 20.6562C18.1288 20.8552 18.0497 21.0459 17.9091 21.1866C17.7684 21.3272 17.5777 21.4062 17.3788 21.4062Z" fill="#000000" />
</svg>