<svg width="24px"  height="24px"  viewBox="0 0 25 24" fill="none" xmlns="http://www.w3.org/2000/svg">
<path fill-rule="evenodd" clip-rule="evenodd" d="M3.99057 3.89904C4.97517 2.84303 6.37721 2.25195 8.03246 2.25195H16.466C18.1251 2.25195 19.5274 2.84274 20.5111 3.89948C21.4891 4.95016 21.9975 6.40044 21.9975 8.02762V15.9737C21.9975 17.6009 21.4891 19.0512 20.5109 20.1019C19.5271 21.1587 18.1246 21.7494 16.465 21.7494H8.03246C6.37332 21.7494 4.97087 21.1586 3.98695 20.102C3.00866 19.0513 2.5 17.601 2.5 15.9737V8.02762C2.5 6.3994 3.01141 4.94922 3.99057 3.89904ZM5.08768 4.92195C4.41035 5.64841 4 6.71107 4 8.02762V15.9737C4 17.2912 4.40872 18.3538 5.08474 19.0798C5.75513 19.7997 6.7439 20.2494 8.03246 20.2494H16.465C17.7541 20.2494 18.7428 19.7997 19.413 19.0798C20.0889 18.3539 20.4975 17.2913 20.4975 15.9737V8.02762C20.4975 6.71002 20.0889 5.64748 19.4131 4.92151C18.743 4.20161 17.7545 3.75195 16.466 3.75195H8.03246C6.74877 3.75195 5.75958 4.20132 5.08768 4.92195Z" fill="#000000" />
<path fill-rule="evenodd" clip-rule="evenodd" d="M14.8379 16.0859C14.8379 15.6717 15.1737 15.3359 15.5879 15.3359H21.2498C21.664 15.3359 21.9998 15.6717 21.9998 16.0859C21.9998 16.5002 21.664 16.8359 21.2498 16.8359H15.5879C15.1737 16.8359 14.8379 16.5002 14.8379 16.0859Z" fill="#000000" />
<path fill-rule="evenodd" clip-rule="evenodd" d="M21.375 5.34594C21.6866 5.61883 21.718 6.09267 21.4451 6.40428C20.711 7.24252 19.9669 8.0137 19.4078 8.57407C19.1278 8.85469 18.8931 9.08344 18.7281 9.24247C18.6455 9.32201 18.5803 9.38416 18.5354 9.42671L18.4837 9.47555L18.47 9.48844L18.4653 9.49288C18.4652 9.49292 18.4648 9.49335 17.9527 8.94541L18.4653 9.49288C18.3447 9.60561 18.1897 9.67587 18.0254 9.69188L15.1295 9.97404L15.5309 11.364C15.6199 11.672 15.5032 12.0026 15.2405 12.1865C12.87 13.8458 11.0332 14.3079 8.64582 14.2872C8.23162 14.2836 7.89877 13.9449 7.90237 13.5307C7.90597 13.1165 8.24467 12.7836 8.65887 12.7872C10.5977 12.8041 12.0548 12.4823 13.9385 11.2562L13.438 9.52318C13.3762 9.309 13.4128 9.07839 13.538 8.89393C13.6632 8.70946 13.864 8.59025 14.0859 8.56863L17.6231 8.22397C17.6431 8.20485 17.6645 8.18425 17.6874 8.16224C17.8464 8.00905 18.0738 7.78726 18.3459 7.51458C18.891 6.96835 19.6109 6.22191 20.3167 5.41605C20.5896 5.10444 21.0634 5.07305 21.375 5.34594Z" fill="#000000" />
<path fill-rule="evenodd" clip-rule="evenodd" d="M16.2142 2.58597C16.443 2.93132 16.3484 3.39668 16.003 3.62539C8.99396 8.26717 8.96484 16.0069 8.96484 16.0847C8.96484 16.4989 8.62906 16.8347 8.21484 16.8347C7.80063 16.8347 7.46484 16.4989 7.46484 16.0847C7.46484 15.9096 7.49409 7.46135 15.1748 2.37477C15.5202 2.14607 15.9855 2.24062 16.2142 2.58597Z" fill="#000000" />
</svg>