<svg width="24px"  height="24px"  viewBox="0 0 25 25" fill="none" xmlns="http://www.w3.org/2000/svg">
<path fill-rule="evenodd" clip-rule="evenodd" d="M21.4355 10.5322C21.8498 10.5322 22.1855 10.8679 22.1855 11.2822L22.1855 16.7169C22.1855 18.3762 21.5947 19.7788 20.5379 20.7629C19.4871 21.7413 18.0367 22.25 16.4092 22.25L8.46192 22.25C6.83443 22.25 5.38393 21.7413 4.33315 20.7627C3.27634 19.7785 2.68555 18.3756 2.68555 16.7159L2.68555 8.28216C2.68555 6.6228 3.27641 5.22038 4.33327 4.23657C5.38408 3.25842 6.83454 2.75 8.46193 2.75L13.4092 2.75C13.8234 2.75 14.1592 3.08579 14.1592 3.5C14.1592 3.91421 13.8234 4.25 13.4092 4.25L8.46193 4.25C7.14412 4.25 6.0814 4.65861 5.3553 5.33451C4.63528 6.00475 4.18555 6.99341 4.18555 8.28216L4.18555 16.7159C4.18555 18.0052 4.63534 18.9944 5.35543 19.665C6.08154 20.3412 7.14423 20.75 8.46192 20.75L16.4092 20.75C17.7269 20.75 18.7896 20.3412 19.5157 19.6651C20.2358 18.9946 20.6855 18.0056 20.6855 16.7169L20.6855 11.2822C20.6855 10.8679 21.0213 10.5322 21.4355 10.5322Z" fill="#000000" />
<path fill-rule="evenodd" clip-rule="evenodd" d="M9.71929 9.32147C9.39307 9.11455 8.9807 9.40525 9.06516 9.78144L9.06861 9.79764L10.3664 16.2413C10.4549 16.6123 10.9466 16.6956 11.152 16.3742L12.3166 14.5545C12.4618 14.3263 12.6922 14.1641 12.9574 14.1052C12.9578 14.1051 12.9582 14.105 12.9586 14.1049L15.3737 13.5637C15.7469 13.4801 15.8352 12.9887 15.5174 12.7798L9.73684 9.33226L9.71929 9.32147ZM10.5131 8.04869C9.06257 7.13952 7.23152 8.42792 7.5996 10.1011L8.89799 16.5474L8.90143 16.5636C9.27748 18.2391 11.4899 18.63 12.4157 17.1824L13.4755 15.5263L15.7016 15.0275C17.3819 14.6511 17.7678 12.4304 16.314 11.5087L16.2966 11.498L10.5131 8.04869Z" fill="#000000" />
<path fill-rule="evenodd" clip-rule="evenodd" d="M18.9359 2.75C19.3502 2.75 19.6859 3.08579 19.6859 3.5V5.24955H21.4364C21.8506 5.24955 22.1864 5.58534 22.1864 5.99955C22.1864 6.41377 21.8506 6.74955 21.4364 6.74955H19.6859V8.5C19.6859 8.91421 19.3502 9.25 18.9359 9.25C18.5217 9.25 18.1859 8.91421 18.1859 8.5V6.74955H16.4355C16.0213 6.74955 15.6855 6.41377 15.6855 5.99955C15.6855 5.58534 16.0213 5.24955 16.4355 5.24955H18.1859V3.5C18.1859 3.08579 18.5217 2.75 18.9359 2.75Z" fill="#000000" />
</svg>