<svg width="24px"  height="24px"  viewBox="0 0 25 24" fill="none" xmlns="http://www.w3.org/2000/svg">
<path fill-rule="evenodd" clip-rule="evenodd" d="M13.3724 16.0128C13.3724 16.0128 13.3723 16.0128 13.3724 16.0128L16.0962 19.4086C16.8498 20.349 16.1822 21.7462 14.9743 21.7462H9.52742C8.32156 21.7462 7.65112 20.3501 8.40532 19.4089L11.1294 16.0128C11.1294 16.0128 11.1294 16.0128 11.1294 16.0128C11.7048 15.2952 12.7969 15.2952 13.3724 16.0128ZM9.6566 20.2462H14.8452L12.2509 17.0119L9.6566 20.2462Z" fill="#000000" />
<path fill-rule="evenodd" clip-rule="evenodd" d="M8.4054 4.59126C7.65184 3.65082 8.31965 2.25391 9.5275 2.25391H14.9744C16.1803 2.25391 16.8507 3.65003 16.0965 4.59126L13.3725 7.98734C13.3724 7.98739 13.3725 7.98729 13.3725 7.98734C12.797 8.70498 11.7049 8.70508 11.1295 7.98734L8.4054 4.59126ZM9.65667 3.75391L12.251 6.9882L14.8453 3.75391H9.65667Z" fill="#000000" />
<path fill-rule="evenodd" clip-rule="evenodd" d="M2.5 11.998C2.5 11.5838 2.83579 11.248 3.25 11.248H5.25042C5.66463 11.248 6.00042 11.5838 6.00042 11.998C6.00042 12.4123 5.66463 12.748 5.25042 12.748H3.25C2.83579 12.748 2.5 12.4123 2.5 11.998ZM7.83351 11.998C7.83351 11.5838 8.1693 11.248 8.58351 11.248H10.5839C10.9981 11.248 11.3339 11.5838 11.3339 11.998C11.3339 12.4123 10.9981 12.748 10.5839 12.748H8.58351C8.1693 12.748 7.83351 12.4123 7.83351 11.998ZM13.167 11.998C13.167 11.5838 13.5028 11.248 13.917 11.248H15.9174C16.3317 11.248 16.6674 11.5838 16.6674 11.998C16.6674 12.4123 16.3317 12.748 15.9174 12.748H13.917C13.5028 12.748 13.167 12.4123 13.167 11.998ZM18.4996 11.998C18.4996 11.5838 18.8354 11.248 19.2496 11.248H21.25C21.6642 11.248 22 11.5838 22 11.998C22 12.4123 21.6642 12.748 21.25 12.748H19.2496C18.8354 12.748 18.4996 12.4123 18.4996 11.998Z" fill="#000000" />
</svg>