<svg width="24px"  height="24px"  viewBox="0 0 25 24" fill="none" xmlns="http://www.w3.org/2000/svg">
<path fill-rule="evenodd" clip-rule="evenodd" d="M2.87891 12.002C2.87891 11.5877 3.21469 11.252 3.62891 11.252H20.8724C21.2867 11.252 21.6224 11.5877 21.6224 12.002C21.6224 12.4162 21.2867 12.752 20.8724 12.752H3.62891C3.21469 12.752 2.87891 12.4162 2.87891 12.002Z" fill="#000000" />
<path fill-rule="evenodd" clip-rule="evenodd" d="M13.3723 16.0149C13.3723 16.0149 13.3722 16.0148 13.3723 16.0149L16.0974 19.4123C16.8511 20.3529 16.1834 21.7504 14.9753 21.7504H9.52579C8.31966 21.7504 7.64907 20.354 8.40344 19.4125L11.1288 16.0149C11.1288 16.0148 11.1287 16.0149 11.1288 16.0149C11.7044 15.2971 12.7967 15.2971 13.3723 16.0149ZM9.65429 20.2504H14.8468L12.2505 17.0137L9.65429 20.2504Z" fill="#000000" />
<path fill-rule="evenodd" clip-rule="evenodd" d="M8.40352 4.58787C7.64979 3.64723 8.31775 2.25 9.52587 2.25H14.9753C16.1815 2.25 16.8521 3.64643 16.0977 4.58787L13.3724 7.98555C13.3723 7.9856 13.3724 7.9855 13.3724 7.98555C12.7967 8.70334 11.7044 8.70344 11.1289 7.98555L8.40352 4.58787ZM9.65437 3.75L12.2506 6.98672L14.8468 3.75H9.65437Z" fill="#000000" />
</svg>