<svg width="24px"  height="24px"  viewBox="0 0 25 24" fill="none" xmlns="http://www.w3.org/2000/svg">
<path fill-rule="evenodd" clip-rule="evenodd" d="M7.43427 17.2583C7.62327 17.1755 7.83802 17.1743 8.02798 17.2548L11.0111 18.5197C11.3813 18.6766 11.5618 19.0977 11.4203 19.4742L10.747 21.2644C10.637 21.5568 10.3574 21.7504 10.045 21.7504H6.64063C6.3966 21.7504 6.16782 21.6317 6.02735 21.4321C5.88688 21.2326 5.85227 20.9772 5.93458 20.7474L7.02915 17.6923C7.09874 17.4981 7.24528 17.3411 7.43427 17.2583ZM8.17345 18.9458L7.70602 20.2504H9.52578L9.76296 19.6197L8.17345 18.9458Z" fill="#000000" />
<path d="M10.7215 19.9576C10.593 19.9574 10.4667 19.9243 10.3548 19.8613C10.2428 19.7983 10.1488 19.7076 10.082 19.5979C10.0151 19.4882 9.97756 19.3631 9.97292 19.2347C9.96828 19.1063 9.99674 18.9789 10.0555 18.8646C11.5415 15.9766 13.5605 15.5326 14.6555 15.5326H14.6915L17.2675 5.97962C17.3121 5.80913 17.2936 5.62825 17.2153 5.47037C17.137 5.31249 17.0042 5.18826 16.8414 5.12061L13.7415 3.80661C13.5788 3.7382 13.3971 3.73023 13.2291 3.78415C13.0611 3.83807 12.9179 3.95032 12.8255 4.10061L7.45949 12.4476C8.43549 13.3956 9.41646 15.3276 8.44746 18.1836C8.41759 18.279 8.36891 18.3675 8.30434 18.4439C8.23976 18.5202 8.16058 18.5829 8.07143 18.6282C7.98228 18.6735 7.88497 18.7005 7.78523 18.7076C7.68549 18.7147 7.58537 18.7019 7.49068 18.6697C7.39599 18.6376 7.30869 18.5868 7.2339 18.5205C7.15912 18.4541 7.09835 18.3734 7.05519 18.2832C7.01203 18.193 6.98732 18.0951 6.98256 17.9952C6.9778 17.8953 6.9931 17.7955 7.02748 17.7016C8.09948 14.5426 6.15848 13.3086 6.07448 13.2576C5.989 13.2052 5.91476 13.1363 5.85609 13.0549C5.79743 12.9736 5.75553 12.8814 5.73274 12.7838C5.70996 12.6861 5.70673 12.5849 5.72334 12.486C5.73995 12.3871 5.77604 12.2925 5.82948 12.2076L11.5555 3.30761C11.838 2.85589 12.272 2.51948 12.7799 2.35861C13.2878 2.19773 13.8364 2.2229 14.3275 2.42961L17.4274 3.74362C17.9199 3.95581 18.3204 4.33681 18.5569 4.81805C18.7934 5.29928 18.8503 5.84913 18.7175 6.36862L15.9785 16.5376C15.953 16.6329 15.9089 16.7221 15.8488 16.8003C15.7887 16.8785 15.7138 16.944 15.6283 16.9932C15.5428 17.0423 15.4485 17.0741 15.3507 17.0867C15.2529 17.0993 15.1536 17.0925 15.0585 17.0666C14.9795 17.0496 12.9155 16.5846 11.3895 19.5506C11.3264 19.6733 11.2306 19.7763 11.1127 19.8481C10.9949 19.9199 10.8595 19.9578 10.7215 19.9576Z" fill="#000000" />
<path d="M15.2556 17.0966C15.1548 17.0966 15.0551 17.0762 14.9625 17.0366L6.35555 13.3806C6.26467 13.3422 6.18228 13.2864 6.11299 13.2162C6.04371 13.146 5.98894 13.0628 5.9518 12.9714C5.91466 12.8801 5.89585 12.7823 5.8965 12.6836C5.89715 12.585 5.91724 12.4875 5.95558 12.3966C5.99393 12.3057 6.04981 12.2233 6.12001 12.154C6.19021 12.0847 6.27333 12.0299 6.3647 11.9928C6.45607 11.9556 6.55391 11.9369 6.65254 11.9375C6.75117 11.9382 6.84872 11.9582 6.93959 11.9966L15.5466 15.6476C15.7113 15.7115 15.8482 15.8315 15.9331 15.9864C16.018 16.1413 16.0455 16.3213 16.0107 16.4945C15.9759 16.6677 15.8811 16.8231 15.7429 16.9333C15.6048 17.0434 15.4322 17.1013 15.2556 17.0966Z" fill="#000000" />
</svg>