<svg width="24px"  height="24px"  viewBox="0 0 25 24" fill="none" xmlns="http://www.w3.org/2000/svg">
<path fill-rule="evenodd" clip-rule="evenodd" d="M8.58067 13.2597C8.744 12.8812 9.18227 12.7054 9.5619 12.8663L12.4791 14.1022C12.6645 14.1808 12.8105 14.3305 12.8843 14.5178C12.9581 14.7051 12.9535 14.9142 12.8716 15.0981L12.0631 16.9127C11.9425 17.1832 11.6741 17.3574 11.378 17.3574H7.95313C7.7007 17.3574 7.4652 17.2304 7.3265 17.0195C7.18779 16.8086 7.16449 16.5421 7.26449 16.3103L8.58067 13.2597ZM9.66278 14.5381L9.09355 15.8574H10.8911L11.1905 15.1854L9.66278 14.5381Z" fill="#000000" />
<path d="M16.466 21.7637H8.03198C4.72398 21.7637 2.5 19.4427 2.5 15.9877V8.03967C2.5 4.58467 4.72398 2.26367 8.03198 2.26367H16.467C19.776 2.26367 22 4.58467 22 8.03967V15.9877C22 19.4427 19.776 21.7637 16.466 21.7637ZM8.03198 3.76367C5.58298 3.76367 4 5.44267 4 8.03967V15.9877C4 18.5877 5.58298 20.2637 8.03198 20.2637H16.466C18.916 20.2637 20.5 18.5847 20.5 15.9877V8.03967C20.5 5.43967 18.917 3.76367 16.467 3.76367H8.03198Z" fill="#000000" />
<path d="M12.1866 15.5555C12.0581 15.5551 11.9318 15.5218 11.8199 15.4587C11.7079 15.3956 11.6141 15.3048 11.5472 15.195C11.4804 15.0852 11.4429 14.9601 11.4382 14.8317C11.4336 14.7033 11.4619 14.5758 11.5206 14.4615C11.9818 13.4669 12.6691 12.5939 13.5277 11.9123C14.3863 11.2306 15.3924 10.7591 16.4656 10.5355L18.3116 3.49448C18.3622 3.30207 18.487 3.1376 18.6588 3.03727C18.8306 2.93693 19.0353 2.90895 19.2277 2.95948C19.4201 3.01 19.5845 3.13489 19.6848 3.30667C19.7852 3.47846 19.8132 3.68306 19.7626 3.87548L17.7877 11.4065C17.746 11.5635 17.6546 11.7029 17.5272 11.8036C17.3997 11.9044 17.243 11.9612 17.0806 11.9655C16.1607 12.0844 15.2875 12.4403 14.5465 12.9983C13.8054 13.5563 13.2221 14.2972 12.8536 15.1485C12.7908 15.2712 12.6952 15.3742 12.5775 15.446C12.4598 15.5178 12.3245 15.5557 12.1866 15.5555ZM9.26966 14.3195C9.18702 14.3194 9.1049 14.3059 9.02661 14.2795C8.83848 14.2151 8.68365 14.0787 8.59607 13.9002C8.5085 13.7216 8.49538 13.5157 8.55963 13.3275C8.91769 12.472 9.0457 11.5377 8.93097 10.6174C8.81624 9.69714 8.46278 8.82288 7.90564 8.08148C7.7967 7.96049 7.72961 7.80763 7.7143 7.64553C7.69899 7.48344 7.73625 7.32073 7.82062 7.18148L10.6126 2.61848C10.6622 2.53058 10.729 2.45357 10.809 2.39205C10.8889 2.33053 10.9805 2.28576 11.0782 2.26041C11.1759 2.23506 11.2776 2.22966 11.3774 2.24452C11.4773 2.25938 11.573 2.2942 11.6591 2.3469C11.7451 2.39961 11.8196 2.46912 11.8782 2.55127C11.9368 2.63343 11.9783 2.72655 12.0001 2.82508C12.0219 2.9236 12.0236 3.02551 12.0051 3.12471C11.9867 3.22392 11.9484 3.31839 11.8926 3.40248L9.36567 7.53147C9.95266 8.45649 10.3139 9.50654 10.4204 10.5969C10.5269 11.6873 10.3756 12.7874 9.97864 13.8085C9.92882 13.9571 9.83356 14.0864 9.70636 14.1781C9.57916 14.2698 9.42645 14.3192 9.26966 14.3195Z" fill="#000000" />
<path d="M17.0571 11.9662C16.9568 11.9663 16.8575 11.9463 16.7652 11.9072L8.16511 8.26821C7.98749 8.18713 7.8485 8.03997 7.77766 7.85802C7.70683 7.67606 7.70973 7.47366 7.78578 7.29382C7.86183 7.11399 8.005 6.97089 8.18489 6.89497C8.36478 6.81904 8.56719 6.81626 8.7491 6.88721L17.3491 10.5252C17.5086 10.5925 17.6399 10.7129 17.7208 10.866C17.8016 11.0191 17.827 11.1955 17.7926 11.3652C17.7582 11.5348 17.6662 11.6874 17.5321 11.797C17.3981 11.9065 17.2303 11.9663 17.0571 11.9662Z" fill="#000000" />
<path d="M21.1569 17.3711H14.5449C14.346 17.3711 14.1552 17.2921 14.0146 17.1514C13.8739 17.0108 13.7949 16.82 13.7949 16.6211C13.7949 16.4222 13.8739 16.2314 14.0146 16.0908C14.1552 15.9501 14.346 15.8711 14.5449 15.8711H21.1569C21.3558 15.8711 21.5466 15.9501 21.6873 16.0908C21.8279 16.2314 21.9069 16.4222 21.9069 16.6211C21.9069 16.82 21.8279 17.0108 21.6873 17.1514C21.5466 17.2921 21.3558 17.3711 21.1569 17.3711Z" fill="#000000" />
</svg>