<svg width="24px"  height="24px"  viewBox="0 0 25 24" fill="none" xmlns="http://www.w3.org/2000/svg">
<path fill-rule="evenodd" clip-rule="evenodd" d="M6.94994 17.2583C7.13895 17.1755 7.35372 17.1743 7.54369 17.2549L10.526 18.5198C10.8962 18.6768 11.0767 19.0977 10.9353 19.4741L10.2627 21.2642C10.1528 21.5567 9.87309 21.7504 9.56062 21.7504H6.15625C5.91222 21.7504 5.68345 21.6317 5.54298 21.4321C5.4025 21.2326 5.36789 20.9772 5.4502 20.7474L6.54478 17.6923C6.61437 17.4981 6.76093 17.3411 6.94994 17.2583ZM7.68904 18.9459L7.22165 20.2504H9.04122L9.27811 19.6199L7.68904 18.9459Z" fill="#000000" />
<path d="M18.5241 21.7461H12.7021C12.5032 21.7461 12.3125 21.6671 12.1718 21.5264C12.0312 21.3858 11.9521 21.195 11.9521 20.9961C11.9521 20.7972 12.0312 20.6064 12.1718 20.4658C12.3125 20.3251 12.5032 20.2461 12.7021 20.2461H18.5241C18.723 20.2461 18.9138 20.3251 19.0544 20.4658C19.1951 20.6064 19.2741 20.7972 19.2741 20.9961C19.2741 21.195 19.1951 21.3858 19.0544 21.5264C18.9138 21.6671 18.723 21.7461 18.5241 21.7461Z" fill="#000000" />
<path d="M10.2308 19.9574C10.1024 19.957 9.97636 19.9237 9.86455 19.8606C9.75273 19.7975 9.65895 19.7069 9.59215 19.5972C9.52535 19.4876 9.48773 19.3627 9.48295 19.2344C9.47818 19.1061 9.5064 18.9787 9.56486 18.8644C11.0649 15.9444 13.0909 15.4924 14.2029 15.5324L16.7789 5.97945C16.8218 5.80911 16.8027 5.62903 16.7248 5.47157C16.6469 5.31412 16.5154 5.18961 16.3539 5.12045L13.2538 3.80644C13.0912 3.73803 12.9094 3.73006 12.7414 3.78398C12.5734 3.8379 12.4303 3.95015 12.3379 4.10044L6.97185 12.4474C7.94685 13.3954 8.92882 15.3274 7.95982 18.1834C7.92994 18.2789 7.88133 18.3674 7.81676 18.4437C7.75218 18.5201 7.67299 18.5827 7.58384 18.628C7.4947 18.6733 7.39739 18.7003 7.29765 18.7074C7.19791 18.7146 7.09772 18.7017 7.00303 18.6696C6.90835 18.6374 6.82105 18.5867 6.74626 18.5203C6.67147 18.4539 6.61071 18.3733 6.56755 18.2831C6.52439 18.1928 6.49974 18.0949 6.49498 17.995C6.49022 17.8952 6.50545 17.7953 6.53984 17.7014C7.61084 14.5424 5.67084 13.3084 5.58684 13.2574C5.50126 13.2048 5.42697 13.1357 5.36827 13.0542C5.30957 12.9727 5.26764 12.8803 5.24486 12.7824C5.22231 12.6848 5.2195 12.5836 5.23668 12.4848C5.25385 12.3861 5.29063 12.2918 5.34483 12.2074L11.0699 3.30744C11.3527 2.8558 11.7869 2.51948 12.2949 2.35863C12.8029 2.19777 13.3516 2.22288 13.8428 2.42944L16.9429 3.74345C17.4357 3.95535 17.8365 4.33651 18.0729 4.8181C18.3093 5.29969 18.3657 5.84993 18.2319 6.36945L15.4858 16.5374C15.4604 16.6328 15.4165 16.7221 15.3564 16.8003C15.2964 16.8786 15.2214 16.9442 15.1359 16.9934C15.0504 17.0425 14.956 17.0743 14.8582 17.0868C14.7604 17.0994 14.661 17.0924 14.5658 17.0664C14.4888 17.0494 12.4248 16.5864 10.8988 19.5504C10.8359 19.6733 10.7402 19.7764 10.6223 19.8482C10.5044 19.9201 10.3689 19.9579 10.2308 19.9574Z" fill="#000000" />
<path d="M14.7618 17.097C14.6611 17.0971 14.5614 17.0767 14.4688 17.037L5.86182 13.386C5.67763 13.3081 5.53193 13.1603 5.45673 12.975C5.38153 12.7897 5.38298 12.5822 5.46082 12.398C5.53866 12.2138 5.68649 12.0681 5.87177 11.9929C6.05706 11.9176 6.26467 11.9191 6.44886 11.997L15.0559 15.648C15.2154 15.7153 15.3468 15.8358 15.4276 15.989C15.5084 16.1422 15.5337 16.3187 15.4992 16.4884C15.4647 16.6582 15.3725 16.8107 15.2383 16.9202C15.1041 17.0297 14.936 17.0893 14.7628 17.089L14.7618 17.097Z" fill="#000000" />
</svg>