<svg width="24px"  height="24px"  viewBox="0 0 25 24" fill="none" xmlns="http://www.w3.org/2000/svg">
<path fill-rule="evenodd" clip-rule="evenodd" d="M11.3999 3.79613C8.57196 4.09742 5.97926 5.88158 4.75992 8.70319C2.95328 12.8839 4.85188 17.7443 8.98759 19.5617L8.98771 19.5618C13.12 21.3787 17.9355 19.4753 19.7407 15.2979C21.5474 11.1171 19.6496 6.25583 15.5131 4.43839L15.5131 4.43837C14.189 3.8565 12.7948 3.65647 11.452 3.79075C11.4347 3.79315 11.4174 3.79495 11.3999 3.79613ZM11.1662 2.3123C7.84529 2.69312 4.81234 4.80057 3.38299 8.10816C1.25238 13.0385 3.48584 18.7823 8.38398 20.9349C13.2856 23.0901 18.9856 20.8266 21.1176 15.8929C23.2482 10.9626 21.0159 5.21773 16.1165 3.06512C14.5737 2.38712 12.9518 2.14677 11.387 2.28957C11.3118 2.28604 11.2374 2.294 11.1662 2.3123Z" fill="#000000" />
<path fill-rule="evenodd" clip-rule="evenodd" d="M11.7422 2.40828C12.095 2.62541 12.2049 3.08739 11.9878 3.44013L10.1 6.50701C10.3613 6.75307 10.6699 7.10321 10.9399 7.57046C11.5589 8.64137 11.9253 10.2421 11.2202 12.4331C11.0933 12.8274 10.6708 13.0442 10.2765 12.9173C9.88219 12.7904 9.66542 12.3679 9.79231 11.9736C10.372 10.1723 10.0409 9.0126 9.64124 8.32107C9.4342 7.96286 9.19518 7.70745 9.01137 7.54387C8.91977 7.46236 8.84323 7.40486 8.79349 7.37C8.76868 7.35261 8.75076 7.341 8.74123 7.335L8.73388 7.33045C8.56034 7.22938 8.43449 7.06287 8.3847 6.86811C8.33436 6.6712 8.36609 6.46229 8.47263 6.2892L10.7104 2.65383C10.9275 2.30109 11.3895 2.19115 11.7422 2.40828ZM19.4144 5.67097C19.8163 5.771 20.0611 6.17794 19.9611 6.5799L18.9599 10.603C18.9116 10.7971 18.7878 10.9638 18.616 11.0662C18.4466 11.1672 18.2442 11.1973 18.0528 11.1502C18.0519 11.1499 18.0502 11.1496 18.0478 11.1491C18.0391 11.1473 18.0212 11.1438 17.995 11.1398C17.9425 11.1317 17.8575 11.1216 17.7468 11.1185C17.5248 11.1121 17.2047 11.1334 16.8351 11.2498C16.1214 11.4744 15.1181 12.0864 14.2788 13.8015C14.0967 14.1735 13.6475 14.3275 13.2755 14.1454C12.9034 13.9634 12.7494 13.5142 12.9315 13.1421C13.9354 11.0906 15.2456 10.1776 16.3846 9.819C16.8764 9.66417 17.3168 9.61885 17.6594 9.61748L18.5055 6.21765C18.6055 5.8157 19.0124 5.57094 19.4144 5.67097Z" fill="#000000" />
<path fill-rule="evenodd" clip-rule="evenodd" d="M10.196 11.5207C10.3844 11.4348 10.5999 11.4306 10.7915 11.5092L13.8858 12.7775C14.2563 12.9294 14.4421 13.3456 14.3079 13.7228L13.6424 15.594C13.5375 15.889 13.2604 16.0878 12.9473 16.0926L9.43733 16.1466C9.19361 16.1504 8.96328 16.0355 8.81971 15.8385C8.67613 15.6415 8.63723 15.3871 8.7154 15.1562L9.79665 11.9626C9.86305 11.7665 10.0076 11.6065 10.196 11.5207ZM10.9614 13.1999L10.477 14.6305L12.4036 14.6008L12.655 13.8941L10.9614 13.1999Z" fill="#000000" />
<path fill-rule="evenodd" clip-rule="evenodd" d="M8.60312 6.47549C8.76023 6.09223 9.19829 5.9089 9.58155 6.06601L18.5132 9.72742C18.8965 9.88453 19.0798 10.3226 18.9227 10.7059C18.7656 11.0891 18.3275 11.2724 17.9443 11.1153L9.0126 7.45392C8.62934 7.29681 8.44601 6.85875 8.60312 6.47549Z" fill="#000000" />
</svg>