<svg width="24px"  height="24px"  viewBox="0 0 25 25" fill="none" xmlns="http://www.w3.org/2000/svg">
<path fill-rule="evenodd" clip-rule="evenodd" d="M12.4346 4.69531C7.8789 4.69531 4.18555 8.38856 4.18555 12.9453C4.18555 17.5011 7.87885 21.1944 12.4346 21.1944C16.9903 21.1944 20.6836 17.5011 20.6836 12.9453C20.6836 8.38856 16.9903 4.69531 12.4346 4.69531ZM2.68555 12.9453C2.68555 7.56024 7.05037 3.19531 12.4346 3.19531C17.8188 3.19531 22.1836 7.56024 22.1836 12.9453C22.1836 18.3295 17.8188 22.6944 12.4346 22.6944C7.05042 22.6944 2.68555 18.3295 2.68555 12.9453Z" fill="#000000" />
<path fill-rule="evenodd" clip-rule="evenodd" d="M21.9139 11.4653C22.2048 11.7601 22.2017 12.235 21.907 12.526L12.9077 21.4087C12.6129 21.6997 12.1381 21.6966 11.8471 21.4018C11.5561 21.107 11.5592 20.6321 11.854 20.3412L20.8532 11.4584C21.148 11.1674 21.6229 11.1705 21.9139 11.4653Z" fill="#000000" />
<path fill-rule="evenodd" clip-rule="evenodd" d="M18.1783 5.08206C18.4695 5.3766 18.4668 5.85147 18.1723 6.1427L12.9863 11.2703C12.6918 11.5615 12.2169 11.5588 11.9257 11.2643C11.6344 10.9697 11.6371 10.4949 11.9317 10.2036L17.1176 5.07605C17.4122 4.78482 17.887 4.78751 18.1783 5.08206Z" fill="#000000" />
<path fill-rule="evenodd" clip-rule="evenodd" d="M20.6292 7.68914C20.9206 7.98351 20.9182 8.45838 20.6238 8.74979L12.9378 16.3588C12.6434 16.6502 12.1686 16.6478 11.8772 16.3534C11.5857 16.0591 11.5881 15.5842 11.8825 15.2928L19.5685 7.6838C19.8629 7.39239 20.3377 7.39478 20.6292 7.68914Z" fill="#000000" />
<path fill-rule="evenodd" clip-rule="evenodd" d="M12.3711 3.19531C12.7853 3.19531 13.1211 3.5311 13.1211 3.94531V21.9444C13.1211 22.3586 12.7853 22.6944 12.3711 22.6944C11.9569 22.6944 11.6211 22.3586 11.6211 21.9444V3.94531C11.6211 3.5311 11.9569 3.19531 12.3711 3.19531Z" fill="#000000" />
</svg>