<svg width="24px"  height="24px"  viewBox="0 0 25 24" fill="none" xmlns="http://www.w3.org/2000/svg">
<path d="M12.4251 22.7298C12.0214 22.73 11.6216 22.6506 11.2485 22.4962C10.8755 22.3418 10.5366 22.1153 10.2511 21.8298C9.93207 21.5133 9.68734 21.1298 9.53463 20.7072C9.38191 20.2845 9.32504 19.8332 9.36813 19.3858V19.3808C9.36813 19.3638 9.36813 19.3478 9.37313 19.3318C9.38613 19.2258 9.40413 19.1218 9.42713 19.0188C9.55347 18.4535 9.83946 17.9363 10.2511 17.5288C10.8363 16.969 11.6148 16.6565 12.4246 16.6565C13.2344 16.6565 14.013 16.969 14.5981 17.5288C15.086 18.0122 15.3955 18.6468 15.4761 19.3288C15.4785 19.3621 15.4785 19.3955 15.4761 19.4288C15.5195 19.8759 15.4628 20.3271 15.3103 20.7496C15.1577 21.1722 14.9131 21.5555 14.5941 21.8718C14.0121 22.4319 13.2328 22.7402 12.4251 22.7298ZM10.8741 19.3918C10.8734 19.4209 10.871 19.4499 10.8671 19.4788C10.8367 19.7139 10.861 19.9529 10.938 20.1772C11.015 20.4014 11.1427 20.6049 11.3111 20.7718C11.6076 21.0657 12.0082 21.2306 12.4256 21.2306C12.8431 21.2306 13.2437 21.0657 13.5401 20.7718C13.7084 20.6051 13.836 20.4017 13.9128 20.1776C13.9896 19.9535 14.0137 19.7147 13.9831 19.4798C13.9791 19.4513 13.9771 19.4226 13.9771 19.3938C13.9244 19.0725 13.7714 18.776 13.5401 18.5468C13.2408 18.2591 12.8418 18.0985 12.4266 18.0985C12.0115 18.0985 11.6125 18.2591 11.3131 18.5468C11.1044 18.753 10.959 19.0146 10.8941 19.3008C10.8851 19.3308 10.8791 19.3618 10.8741 19.3918ZM20.1011 15.0588C19.9778 15.0588 19.8546 15.0517 19.7321 15.0378H19.7251C19.0434 14.9574 18.409 14.6487 17.9251 14.1618C17.6391 13.8766 17.4122 13.5378 17.2573 13.1647C17.1025 12.7916 17.0228 12.3917 17.0228 11.9878C17.0228 11.5839 17.1025 11.1839 17.2573 10.8109C17.4122 10.4378 17.6391 10.099 17.9251 9.81378C18.411 9.32572 19.048 9.01692 19.7321 8.93781C19.7641 8.93781 19.7951 8.9378 19.8321 8.9328C20.246 8.89462 20.6633 8.9408 21.0588 9.06857C21.4543 9.19635 21.8197 9.40304 22.133 9.67615C22.4463 9.94926 22.7009 10.2831 22.8814 10.6575C23.062 11.0318 23.1646 11.439 23.1833 11.8542C23.2019 12.2694 23.1361 12.684 22.9898 13.073C22.8435 13.4621 22.6198 13.8174 22.3322 14.1174C22.0446 14.4175 21.6992 14.6561 21.3167 14.8187C20.9342 14.9814 20.5227 15.0648 20.1071 15.0638L20.1011 15.0588ZM19.9081 13.5468C20.2333 13.5863 20.5628 13.5234 20.8505 13.3667C21.1382 13.21 21.3698 12.9674 21.513 12.6727C21.6561 12.378 21.7037 12.046 21.649 11.7229C21.5944 11.3999 21.4403 11.102 21.2081 10.8708C21.0417 10.7023 20.8386 10.5746 20.6146 10.4976C20.3907 10.4206 20.152 10.3963 19.9171 10.4268C19.8891 10.4268 19.8621 10.4318 19.8341 10.4328C19.511 10.4853 19.2125 10.6382 18.9811 10.8698C18.8343 11.0157 18.7178 11.1892 18.6383 11.3803C18.5589 11.5714 18.5179 11.7763 18.5179 11.9833C18.5179 12.1903 18.5589 12.3952 18.6383 12.5863C18.7178 12.7774 18.8343 12.9509 18.9811 13.0968C19.2296 13.3484 19.5568 13.5072 19.9081 13.5468ZM4.74713 15.0578C4.33326 15.0567 3.92389 14.9719 3.54361 14.8085C3.16334 14.6452 2.82 14.4067 2.53422 14.1073C2.24844 13.808 2.02612 13.4539 1.88062 13.0665C1.73511 12.679 1.66943 12.2662 1.6875 11.8527C1.70557 11.4392 1.80704 11.0337 1.98579 10.6604C2.16455 10.2871 2.41692 9.95383 2.72772 9.68054C3.03853 9.40726 3.40138 9.19959 3.79446 9.07007C4.18753 8.94054 4.60274 8.89181 5.01513 8.92679C5.04813 8.92679 5.08413 8.92679 5.12013 8.93179C5.38674 8.96428 5.64796 9.03153 5.89713 9.13181C6.28352 9.28533 6.63414 9.5168 6.92713 9.8118C7.3349 10.2196 7.61976 10.7339 7.74917 11.296C7.87858 11.858 7.84733 12.4451 7.65899 12.9902C7.47065 13.5353 7.13281 14.0164 6.68405 14.3787C6.23529 14.7409 5.6937 14.9697 5.12113 15.0388C4.99691 15.0521 4.87205 15.0584 4.74713 15.0578ZM4.73113 10.4138C4.5276 10.4143 4.32617 10.455 4.13843 10.5336C3.95069 10.6122 3.78032 10.7272 3.63713 10.8718C3.49085 11.0179 3.3748 11.1914 3.29562 11.3824C3.21644 11.5733 3.17569 11.7781 3.17569 11.9848C3.17569 12.1915 3.21644 12.3962 3.29562 12.5872C3.3748 12.7782 3.49085 12.9517 3.63713 13.0978C3.8011 13.2642 4.00064 13.3914 4.22077 13.4696C4.44089 13.5479 4.67589 13.5753 4.90813 13.5498H4.94113C5.28879 13.5063 5.61205 13.3483 5.85984 13.1006C6.10763 12.8529 6.26581 12.5296 6.3094 12.182C6.35298 11.8344 6.27948 11.4821 6.10051 11.1809C5.92154 10.8797 5.6473 10.6467 5.32113 10.5188C5.22144 10.4813 5.11826 10.4538 5.01313 10.4368C4.98513 10.4368 4.95713 10.4348 4.92913 10.4308C4.86353 10.4211 4.79741 10.4155 4.73113 10.4138ZM12.4241 7.38379C11.6733 7.38483 10.9482 7.11062 10.386 6.61307C9.82375 6.11551 9.4634 5.42914 9.37313 4.68381C9.31653 4.22138 9.36619 3.75213 9.51834 3.3118C9.67049 2.87146 9.92112 2.47163 10.2511 2.14279C10.8364 1.58237 11.6153 1.26953 12.4256 1.26953C13.2359 1.26953 14.0149 1.58237 14.6001 2.14279C14.9306 2.47149 15.1814 2.87146 15.3335 3.31207C15.4855 3.75269 15.5346 4.22224 15.4771 4.68478C15.3976 5.36653 15.0891 6.00114 14.6021 6.4848C14.3163 6.77088 13.9767 6.9976 13.6029 7.15189C13.2291 7.30618 12.8285 7.38498 12.4241 7.38379ZM11.3101 5.4238C11.6059 5.71832 12.0062 5.88367 12.4236 5.88367C12.841 5.88367 13.2414 5.71832 13.5371 5.4238C13.7872 5.17641 13.9456 4.85122 13.9861 4.5018C14.0154 4.26522 13.9901 4.02507 13.9123 3.79974C13.8345 3.57442 13.7061 3.36988 13.5371 3.20178C13.2376 2.91406 12.8384 2.75339 12.4231 2.75339C12.0078 2.75339 11.6086 2.91406 11.3091 3.20178C11.1407 3.37024 11.0128 3.57487 10.9351 3.80011C10.8575 4.02535 10.8322 4.26532 10.8611 4.5018C10.9027 4.85093 11.0609 5.1758 11.3101 5.4238Z" fill="#000000" />
<path d="M14.7324 20.1266C14.5528 20.1263 14.3793 20.0616 14.2434 19.9443C14.1075 19.827 14.0181 19.6649 13.9916 19.4873C13.9651 19.3097 14.0032 19.1285 14.0989 18.9766C14.1947 18.8247 14.3417 18.7122 14.5134 18.6596C15.5955 18.3298 16.5788 17.7367 17.3754 16.9335C18.1757 16.1351 18.7683 15.1528 19.1014 14.0725C19.1593 13.8823 19.2905 13.7228 19.466 13.6292C19.6416 13.5356 19.8471 13.5156 20.0374 13.5736C20.2277 13.6315 20.3871 13.7627 20.4807 13.9382C20.5743 14.1137 20.5943 14.3193 20.5364 14.5096C20.1311 15.8251 19.4101 17.0215 18.4364 17.9945C17.4664 18.9722 16.2689 19.6938 14.9514 20.0945C14.8804 20.1163 14.8066 20.1271 14.7324 20.1266Z" fill="#000000" />
<path d="M10.118 20.1269C10.0438 20.1267 9.97 20.1155 9.899 20.0939C8.58125 19.6929 7.3835 18.9713 6.413 17.9939C5.43906 17.0202 4.7181 15.8231 4.313 14.5069C4.28035 14.4117 4.26721 14.3109 4.27435 14.2104C4.2815 14.11 4.30878 14.0121 4.35459 13.9224C4.40039 13.8328 4.46377 13.7533 4.54095 13.6887C4.61813 13.624 4.70754 13.5756 4.80383 13.5462C4.90013 13.5169 5.00135 13.5072 5.10145 13.5178C5.20156 13.5284 5.29851 13.5591 5.38652 13.608C5.47454 13.6568 5.55181 13.7229 5.61374 13.8023C5.67567 13.8816 5.72099 13.9727 5.747 14.0699C6.07989 15.1509 6.67249 16.1339 7.473 16.9329C8.26955 17.7364 9.2534 18.3292 10.336 18.6579C10.5084 18.7099 10.6564 18.8223 10.7528 18.9745C10.8492 19.1266 10.8876 19.3084 10.8611 19.4866C10.8345 19.6647 10.7447 19.8274 10.6081 19.9448C10.4714 20.0621 10.2971 20.1265 10.117 20.1259L10.118 20.1269Z" fill="#000000" />
<path d="M5.03273 10.4247C4.95814 10.425 4.88394 10.4139 4.81273 10.3917C4.71841 10.3631 4.63066 10.3162 4.55447 10.2537C4.47829 10.1912 4.41518 10.1143 4.36874 10.0273C4.32231 9.94041 4.29346 9.84518 4.28385 9.74709C4.27424 9.64901 4.28405 9.55 4.31273 9.45571C4.71455 8.13861 5.43598 6.94139 6.41273 5.97073C7.38611 4.99745 8.58242 4.27656 9.89773 3.87072C10.088 3.8125 10.2936 3.83226 10.4694 3.92565C10.6451 4.01904 10.7765 4.17841 10.8347 4.3687C10.8929 4.559 10.8732 4.76464 10.7798 4.94036C10.6864 5.11608 10.527 5.2475 10.3367 5.30572C9.25569 5.63846 8.27269 6.23109 7.47373 7.03173C6.67071 7.82882 6.07771 8.81244 5.74773 9.89471C5.70075 10.0478 5.606 10.1819 5.47734 10.2772C5.34869 10.3726 5.19288 10.4243 5.03273 10.4247Z" fill="#000000" />
<path d="M19.8197 10.4255C19.659 10.4256 19.5026 10.374 19.3735 10.2784C19.2444 10.1828 19.1494 10.0482 19.1027 9.8945C18.7734 8.81191 18.1803 7.82812 17.3767 7.03152C16.5781 6.23083 15.5954 5.63818 14.5147 5.30551C14.3275 5.24508 14.1716 5.11357 14.0805 4.9393C13.9894 4.76503 13.9703 4.56194 14.0275 4.37378C14.0847 4.18562 14.2135 4.02742 14.3861 3.93329C14.5588 3.83916 14.7615 3.81662 14.9507 3.87051C16.2668 4.27502 17.4638 4.99607 18.4367 5.97052C19.4156 6.94021 20.1374 8.13869 20.5367 9.45752C20.5653 9.55181 20.5751 9.65082 20.5655 9.7489C20.5559 9.84698 20.5271 9.94222 20.4806 10.0291C20.4342 10.1161 20.3711 10.193 20.2949 10.2555C20.2187 10.318 20.131 10.3649 20.0367 10.3935C19.9662 10.4146 19.8932 10.4254 19.8197 10.4255Z" fill="#000000" />
</svg>