<svg width="24px"  height="24px"  viewBox="0 0 25 24" fill="none" xmlns="http://www.w3.org/2000/svg">
<path fill-rule="evenodd" clip-rule="evenodd" d="M3.27634 2.77225C3.66074 2.41439 4.16869 2.25 4.69159 2.25H6.67636C7.19898 2.25 7.70676 2.4145 8.0911 2.77211C8.48154 3.13539 8.68241 3.64094 8.68241 4.19475V6.30211C8.68241 6.85592 8.48154 7.36147 8.0911 7.72475C7.70676 8.08236 7.19898 8.24686 6.67636 8.24686H4.69159C4.16744 8.24686 3.65965 8.081 3.27586 7.72307C2.88629 7.35976 2.68555 6.85469 2.68555 6.30211V4.19475C2.68555 3.64136 2.88588 3.13574 3.27634 2.77225ZM4.29842 3.87013C4.24498 3.91988 4.18555 4.01164 4.18555 4.19475V6.30211C4.18555 6.48311 4.24457 6.57542 4.29891 6.62609C4.35901 6.68214 4.47924 6.74686 4.69159 6.74686H6.67636C6.88928 6.74686 7.00952 6.68223 7.06932 6.62659C7.12302 6.57663 7.18241 6.4848 7.18241 6.30211V4.19475C7.18241 4.01206 7.12302 3.92023 7.06932 3.87027C7.00952 3.81463 6.88928 3.75 6.67636 3.75H4.69159C4.47799 3.75 4.35792 3.81474 4.29842 3.87013ZM16.7795 4.7181C17.1639 4.36024 17.6718 4.19585 18.1947 4.19585H20.1795C20.7021 4.19585 21.2099 4.36035 21.5942 4.71796C21.9847 5.08124 22.1855 5.58679 22.1855 6.1406V8.24796C22.1855 8.80177 21.9847 9.30732 21.5942 9.67061C21.2099 10.0282 20.7021 10.1927 20.1795 10.1927H18.1947C17.6706 10.1927 17.1628 10.0269 16.779 9.66892C16.3894 9.30561 16.1887 8.80054 16.1887 8.24796V6.1406C16.1887 5.58721 16.389 5.0816 16.7795 4.7181ZM17.8016 5.81598C17.7481 5.86573 17.6887 5.95749 17.6887 6.1406V8.24796C17.6887 8.42896 17.7477 8.52127 17.802 8.57194C17.8621 8.62799 17.9824 8.69271 18.1947 8.69271H20.1795C20.3924 8.69271 20.5127 8.62808 20.5725 8.57244C20.6262 8.52248 20.6855 8.43065 20.6855 8.24796V6.1406C20.6855 5.95791 20.6262 5.86608 20.5725 5.81612C20.5127 5.76048 20.3924 5.69585 20.1795 5.69585H18.1947C17.9811 5.69585 17.8611 5.76059 17.8016 5.81598ZM17.802 15.4271C17.7477 15.4778 17.6887 15.5701 17.6887 15.7511V17.8584C17.6887 18.0416 17.7481 18.1333 17.8016 18.1831C17.8611 18.2385 17.9811 18.3032 18.1947 18.3032H20.1795C20.3924 18.3032 20.5127 18.2386 20.5725 18.1829C20.6262 18.133 20.6855 18.0411 20.6855 17.8584V15.7511C20.6855 15.5691 20.6263 15.4771 20.5723 15.4268C20.5123 15.371 20.392 15.3063 20.1795 15.3063H18.1947C17.9824 15.3063 17.8621 15.3711 17.802 15.4271ZM16.779 14.3301C17.1628 13.9722 17.6706 13.8063 18.1947 13.8063H20.1795C20.7025 13.8063 21.2103 13.9713 21.5944 14.329C21.9845 14.6922 22.1855 15.1975 22.1855 15.7511V17.8584C22.1855 18.4123 21.9847 18.9178 21.5942 19.2811C21.2099 19.6387 20.7021 19.8032 20.1795 19.8032H18.1947C17.6718 19.8032 17.1639 19.6388 16.7795 19.281C16.389 18.9175 16.1887 18.4118 16.1887 17.8584V15.7511C16.1887 15.1985 16.3894 14.6934 16.779 14.3301ZM4.29891 17.373C4.24457 17.4236 4.18555 17.5159 4.18555 17.6969V19.8043C4.18555 19.9874 4.24498 20.0792 4.29842 20.1289C4.35792 20.1843 4.47799 20.2491 4.69159 20.2491H6.67636C6.88928 20.2491 7.00952 20.1844 7.06932 20.1288C7.12302 20.0788 7.18241 19.987 7.18241 19.8043V17.6969C7.18241 17.515 7.12315 17.4229 7.06916 17.3727C7.00916 17.3168 6.88886 17.2522 6.67636 17.2522H4.69159C4.47924 17.2522 4.35901 17.3169 4.29891 17.373ZM3.27586 16.276C3.65965 15.9181 4.16744 15.7522 4.69159 15.7522H6.67636C7.19939 15.7522 7.70712 15.9172 8.09126 16.2748C8.4814 16.638 8.68241 17.1434 8.68241 17.6969V19.8043C8.68241 20.3581 8.48154 20.8637 8.0911 21.2269C7.70676 21.5846 7.19898 21.7491 6.67636 21.7491H4.69159C4.16869 21.7491 3.66074 21.5847 3.27634 21.2268C2.88588 20.8633 2.68555 20.3577 2.68555 19.8043V17.6969C2.68555 17.1444 2.88629 16.6393 3.27586 16.276Z" fill="#000000" />
<path fill-rule="evenodd" clip-rule="evenodd" d="M7.20972 5.55047C7.26711 5.14026 7.64618 4.85423 8.0564 4.91162L17.0414 6.16864C17.4516 6.22603 17.7376 6.60511 17.6802 7.01532C17.6228 7.42554 17.2438 7.71157 16.8335 7.65418L7.84857 6.39716C7.43835 6.33977 7.15233 5.96069 7.20972 5.55047ZM5.71875 6.74668C6.13296 6.74668 6.46875 7.08246 6.46875 7.49668V16.503C6.46875 16.9173 6.13296 17.253 5.71875 17.253C5.30454 17.253 4.96875 16.9173 4.96875 16.503V7.49668C4.96875 7.08246 5.30454 6.74668 5.71875 6.74668ZM19.1858 8.69253C19.6 8.69253 19.9358 9.02831 19.9358 9.44253V14.5572C19.9358 14.9714 19.6 15.3072 19.1858 15.3072C18.7716 15.3072 18.4358 14.9714 18.4358 14.5572V9.44253C18.4358 9.02831 18.7716 8.69253 19.1858 8.69253ZM17.6802 16.9842C17.7376 17.3945 17.4516 17.7735 17.0414 17.8309L8.0564 19.0879C7.64618 19.1453 7.26711 18.8593 7.20972 18.4491C7.15233 18.0389 7.43835 17.6598 7.84857 17.6024L16.8335 16.3454C17.2438 16.288 17.6228 16.574 17.6802 16.9842Z" fill="#000000" />
</svg>