<svg width="24px"  height="24px"  viewBox="0 0 25 24" fill="none" xmlns="http://www.w3.org/2000/svg">
<path fill-rule="evenodd" clip-rule="evenodd" d="M3.2744 2.77226C3.65882 2.41439 4.16678 2.25 4.68971 2.25H6.67458C7.19721 2.25 7.70501 2.4145 8.08937 2.77212C8.47982 3.13542 8.68069 3.64098 8.68069 4.19482V6.30228C8.68069 6.85611 8.47982 7.36168 8.08937 7.72498C7.70501 8.0826 7.19721 8.2471 6.67458 8.2471H4.68971C4.16553 8.2471 3.65773 8.08123 3.27392 7.72329C2.88435 7.35997 2.68359 6.85488 2.68359 6.30228V4.19482C2.68359 3.64141 2.88394 3.13577 3.2744 2.77226ZM4.29649 3.87015C4.24304 3.91991 4.18359 4.01168 4.18359 4.19482V6.30228C4.18359 6.4833 4.24262 6.57562 4.29697 6.62631C4.35708 6.68237 4.47734 6.7471 4.68971 6.7471H6.67458C6.88751 6.7471 7.00777 6.68247 7.06758 6.62681C7.12129 6.57684 7.18069 6.48499 7.18069 6.30228V4.19482C7.18069 4.0121 7.12129 3.92026 7.06758 3.87028C7.00777 3.81463 6.88751 3.75 6.67458 3.75H4.68971C4.47609 3.75 4.356 3.81474 4.29649 3.87015ZM16.7773 2.77226C17.1617 2.41439 17.6697 2.25 18.1926 2.25H20.1775C20.7001 2.25 21.2079 2.4145 21.5923 2.77212C21.9827 3.13542 22.1836 3.64098 22.1836 4.19482V6.30228C22.1836 6.85611 21.9827 7.36168 21.5923 7.72498C21.2079 8.0826 20.7001 8.2471 20.1775 8.2471H18.1926C17.6684 8.2471 17.1606 8.08123 16.7768 7.72329C16.3872 7.35997 16.1865 6.85489 16.1865 6.30228V4.19482C16.1865 3.64141 16.3868 3.13577 16.7773 2.77226ZM17.7994 3.87015C17.7459 3.91991 17.6865 4.01168 17.6865 4.19482V6.30228C17.6865 6.4833 17.7455 6.57562 17.7999 6.62631C17.86 6.68237 17.9802 6.7471 18.1926 6.7471H20.1775C20.3904 6.7471 20.5107 6.68247 20.5705 6.62681C20.6242 6.57684 20.6836 6.48499 20.6836 6.30228V4.19482C20.6836 4.0121 20.6242 3.92026 20.5705 3.87028C20.5107 3.81463 20.3904 3.75 20.1775 3.75H18.1926C17.979 3.75 17.8589 3.81474 17.7994 3.87015ZM3.27441 16.2752C3.65882 15.9173 4.16678 15.7529 4.68971 15.7529H6.67458C7.19721 15.7529 7.70501 15.9174 8.08937 16.275C8.47982 16.6383 8.68069 17.1439 8.68069 17.6977V19.8052C8.68069 20.359 8.47982 20.8646 8.08937 21.2279C7.70501 21.5855 7.19721 21.75 6.67458 21.75H4.68971C4.16553 21.75 3.65773 21.5841 3.27392 21.2262C2.88435 20.8629 2.68359 20.3578 2.68359 19.8052V17.6977C2.68359 17.1443 2.88394 16.6387 3.27441 16.2752ZM4.29649 17.373C4.24304 17.4228 4.18359 17.5146 4.18359 17.6977V19.8052C4.18359 19.9862 4.24262 20.0785 4.29697 20.1292C4.35708 20.1853 4.47734 20.25 4.68971 20.25H6.67458C6.88751 20.25 7.00777 20.1854 7.06758 20.1297C7.12129 20.0797 7.18069 19.9879 7.18069 19.8052V17.6977C7.18069 17.515 7.12129 17.4232 7.06758 17.3732C7.00777 17.3175 6.88751 17.2529 6.67458 17.2529H4.68971C4.47609 17.2529 4.356 17.3176 4.29649 17.373ZM16.7773 16.2752C17.1617 15.9173 17.6697 15.7529 18.1926 15.7529H20.1775C20.7001 15.7529 21.2079 15.9174 21.5923 16.275C21.9827 16.6383 22.1836 17.1439 22.1836 17.6977V19.8052C22.1836 20.359 21.9827 20.8646 21.5923 21.2279C21.2079 21.5855 20.7001 21.75 20.1775 21.75H18.1926C17.6684 21.75 17.1606 21.5841 16.7768 21.2262C16.3872 20.8629 16.1865 20.3578 16.1865 19.8052V17.6977C16.1865 17.1443 16.3868 16.6387 16.7773 16.2752ZM17.7994 17.373C17.7459 17.4228 17.6865 17.5146 17.6865 17.6977V19.8052C17.6865 19.9862 17.7455 20.0785 17.7999 20.1292C17.86 20.1853 17.9802 20.25 18.1926 20.25H20.1775C20.3904 20.25 20.5107 20.1854 20.5705 20.1297C20.6242 20.0797 20.6836 19.9879 20.6836 19.8052V17.6977C20.6836 17.515 20.6242 17.4232 20.5705 17.3732C20.5107 17.3175 20.3904 17.2529 20.1775 17.2529H18.1926C17.979 17.2529 17.8589 17.3176 17.7994 17.373Z" fill="#000000" />
<path fill-rule="evenodd" clip-rule="evenodd" d="M7.20261 5.23047C7.20261 4.81626 7.53839 4.48047 7.95261 4.48047H16.9458C17.36 4.48047 17.6958 4.81626 17.6958 5.23047C17.6958 5.64468 17.36 5.98047 16.9458 5.98047H7.95261C7.53839 5.98047 7.20261 5.64468 7.20261 5.23047ZM5.71875 6.74663C6.13296 6.74663 6.46875 7.08242 6.46875 7.49663V16.5035C6.46875 16.9177 6.13296 17.2535 5.71875 17.2535C5.30454 17.2535 4.96875 16.9177 4.96875 16.5035V7.49663C4.96875 7.08242 5.30454 6.74663 5.71875 6.74663ZM19.1855 6.74663C19.5998 6.74663 19.9355 7.08242 19.9355 7.49663V16.5035C19.9355 16.9177 19.5998 17.2535 19.1855 17.2535C18.7713 17.2535 18.4355 16.9177 18.4355 16.5035V7.49663C18.4355 7.08242 18.7713 6.74663 19.1855 6.74663ZM7.20261 18.7514C7.20261 18.3372 7.53839 18.0014 7.95261 18.0014H16.9458C17.36 18.0014 17.6958 18.3372 17.6958 18.7514C17.6958 19.1656 17.36 19.5014 16.9458 19.5014H7.95261C7.53839 19.5014 7.20261 19.1656 7.20261 18.7514Z" fill="#000000" />
</svg>