<svg width="24px"  height="24px"  viewBox="0 0 25 24" fill="none" xmlns="http://www.w3.org/2000/svg">
<path fill-rule="evenodd" clip-rule="evenodd" d="M12.436 4.49805C11.5497 4.49805 10.8178 5.22631 10.8178 6.14061C10.8178 7.05608 11.5499 7.78414 12.436 7.78414C13.3221 7.78414 14.0543 7.05608 14.0543 6.14061C14.0543 5.22631 13.3223 4.49805 12.436 4.49805ZM9.31778 6.14061C9.31778 4.41229 10.707 2.99805 12.436 2.99805C14.1651 2.99805 15.5543 4.41229 15.5543 6.14061C15.5543 7.8697 14.1653 9.28414 12.436 9.28414C10.7068 9.28414 9.31778 7.8697 9.31778 6.14061ZM5.80378 16.2156C4.91748 16.2156 4.18555 16.9439 4.18555 17.8582C4.18555 18.7725 4.91748 19.5008 5.80378 19.5008C6.69009 19.5008 7.42202 18.7725 7.42202 17.8582C7.42202 16.9439 6.69009 16.2156 5.80378 16.2156ZM2.68555 17.8582C2.68555 16.1299 4.07472 14.7156 5.80378 14.7156C7.53285 14.7156 8.92202 16.1299 8.92202 17.8582C8.92202 19.5865 7.53285 21.0008 5.80378 21.0008C4.07471 21.0008 2.68555 19.5865 2.68555 17.8582ZM19.0673 16.2156C18.181 16.2156 17.4491 16.9439 17.4491 17.8582C17.4491 18.7725 18.181 19.5008 19.0673 19.5008C19.9536 19.5008 20.6855 18.7725 20.6855 17.8582C20.6855 16.9439 19.9536 16.2156 19.0673 16.2156ZM15.9491 17.8582C15.9491 16.1299 17.3382 14.7156 19.0673 14.7156C20.7964 14.7156 22.1855 16.1299 22.1855 17.8582C22.1855 19.5865 20.7964 21.0008 19.0673 21.0008C17.3382 21.0008 15.9491 19.5865 15.9491 17.8582Z" fill="#000000" />
<path fill-rule="evenodd" clip-rule="evenodd" d="M9.36958 10.358C9.72313 10.5738 9.8348 11.0354 9.61899 11.3889L8.61293 13.0371C8.39713 13.3907 7.93557 13.5024 7.58201 13.2866C7.22846 13.0707 7.11679 12.6092 7.3326 12.2556L8.33866 10.6074C8.55447 10.2538 9.01602 10.1422 9.36958 10.358ZM15.6576 10.358C16.0111 10.1422 16.4727 10.2538 16.6885 10.6074L17.6946 12.2556C17.9104 12.6092 17.7987 13.0707 17.4451 13.2866C17.0916 13.5024 16.63 13.3907 16.4142 13.0371L15.4082 11.3889C15.1923 11.0354 15.304 10.5738 15.6576 10.358ZM10.7384 18.7098C10.7384 18.2956 11.0742 17.9598 11.4884 17.9598H13.3828C13.797 17.9598 14.1328 18.2956 14.1328 18.7098C14.1328 19.124 13.797 19.4598 13.3828 19.4598H11.4884C11.0742 19.4598 10.7384 19.124 10.7384 18.7098Z" fill="#000000" />
</svg>