<svg width="24px"  height="24px"  viewBox="0 0 25 24" fill="none" xmlns="http://www.w3.org/2000/svg">
<path fill-rule="evenodd" clip-rule="evenodd" d="M3.27636 2.77226C3.66077 2.41439 4.16874 2.25 4.69166 2.25H6.67653C7.19917 2.25 7.70697 2.4145 8.09132 2.77212C8.48177 3.13542 8.68265 3.64098 8.68265 4.19482V6.30228C8.68265 6.85611 8.48177 7.36168 8.09132 7.72498C7.70697 8.0826 7.19917 8.2471 6.67653 8.2471H4.69166C4.16749 8.2471 3.65968 8.08123 3.27588 7.72329C2.8863 7.35997 2.68555 6.85488 2.68555 6.30228V4.19482C2.68555 3.64141 2.88589 3.13577 3.27636 2.77226ZM4.29844 3.87015C4.24499 3.91991 4.18555 4.01168 4.18555 4.19482V6.30228C4.18555 6.4833 4.24458 6.57562 4.29892 6.62631C4.35904 6.68237 4.47929 6.7471 4.69166 6.7471H6.67653C6.88947 6.7471 7.00972 6.68247 7.06954 6.62681C7.12325 6.57684 7.18265 6.48499 7.18265 6.30228V4.19482C7.18265 4.0121 7.12325 3.92026 7.06954 3.87028C7.00972 3.81463 6.88947 3.75 6.67653 3.75H4.69166C4.47804 3.75 4.35795 3.81474 4.29844 3.87015ZM16.7793 2.77226C17.1637 2.41439 17.6716 2.25 18.1946 2.25H20.1794C20.7021 2.25 21.2099 2.4145 21.5942 2.77212C21.9847 3.13542 22.1855 3.64098 22.1855 4.19482V6.30228C22.1855 6.85611 21.9847 7.36168 21.5942 7.72498C21.2099 8.0826 20.7021 8.2471 20.1794 8.2471H18.1946C17.6704 8.2471 17.1626 8.08123 16.7788 7.72329C16.3892 7.35997 16.1884 6.85489 16.1884 6.30228V4.19482C16.1884 3.64141 16.3888 3.13577 16.7793 2.77226ZM17.8013 3.87015C17.7479 3.91991 17.6884 4.01168 17.6884 4.19482V6.30228C17.6884 6.4833 17.7475 6.57562 17.8018 6.62631C17.8619 6.68237 17.9822 6.7471 18.1946 6.7471H20.1794C20.3924 6.7471 20.5126 6.68247 20.5724 6.62681C20.6262 6.57684 20.6855 6.48499 20.6855 6.30228V4.19482C20.6855 4.0121 20.6262 3.92026 20.5724 3.87028C20.5126 3.81463 20.3924 3.75 20.1794 3.75H18.1946C17.9809 3.75 17.8609 3.81474 17.8013 3.87015ZM3.27636 16.2752C3.66077 15.9173 4.16874 15.7529 4.69166 15.7529H6.67653C7.19917 15.7529 7.70697 15.9174 8.09132 16.275C8.48177 16.6383 8.68265 17.1439 8.68265 17.6977V19.8052C8.68265 20.359 8.48177 20.8646 8.09132 21.2279C7.70697 21.5855 7.19917 21.75 6.67653 21.75H4.69166C4.16749 21.75 3.65968 21.5841 3.27588 21.2262C2.8863 20.8629 2.68555 20.3578 2.68555 19.8052V17.6977C2.68555 17.1443 2.88589 16.6387 3.27636 16.2752ZM4.29844 17.373C4.24499 17.4228 4.18555 17.5146 4.18555 17.6977V19.8052C4.18555 19.9862 4.24458 20.0785 4.29892 20.1292C4.35904 20.1853 4.47929 20.25 4.69166 20.25H6.67653C6.88947 20.25 7.00972 20.1854 7.06954 20.1297C7.12325 20.0797 7.18265 19.9879 7.18265 19.8052V17.6977C7.18265 17.515 7.12325 17.4232 7.06954 17.3732C7.00972 17.3175 6.88947 17.2529 6.67653 17.2529H4.69166C4.47804 17.2529 4.35795 17.3176 4.29844 17.373ZM16.7793 16.2752C17.1637 15.9173 17.6716 15.7529 18.1946 15.7529H20.1794C20.7021 15.7529 21.2099 15.9174 21.5942 16.275C21.9847 16.6383 22.1855 17.1439 22.1855 17.6977V19.8052C22.1855 20.359 21.9847 20.8646 21.5942 21.2279C21.2099 21.5855 20.7021 21.75 20.1794 21.75H18.1946C17.6704 21.75 17.1626 21.5841 16.7788 21.2262C16.3892 20.8629 16.1884 20.3578 16.1884 19.8052V17.6977C16.1884 17.1443 16.3888 16.6387 16.7793 16.2752ZM17.8013 17.373C17.7479 17.4228 17.6884 17.5146 17.6884 17.6977V19.8052C17.6884 19.9862 17.7475 20.0785 17.8018 20.1292C17.8619 20.1853 17.9822 20.25 18.1946 20.25H20.1794C20.3924 20.25 20.5126 20.1854 20.5724 20.1297C20.6262 20.0797 20.6855 19.9879 20.6855 19.8052V17.6977C20.6855 17.515 20.6262 17.4232 20.5724 17.3732C20.5126 17.3175 20.3924 17.2529 20.1794 17.2529H18.1946C17.9809 17.2529 17.8609 17.3176 17.8013 17.373Z" fill="#000000" />
<path fill-rule="evenodd" clip-rule="evenodd" d="M10.6679 5.24805C10.6679 4.83383 11.0037 4.49805 11.4179 4.49805H13.4904C13.9046 4.49805 14.2404 4.83383 14.2404 5.24805C14.2404 5.66226 13.9046 5.99805 13.4904 5.99805H11.4179C11.0037 5.99805 10.6679 5.66226 10.6679 5.24805ZM5.7207 10.2114C6.13492 10.2114 6.4707 10.5472 6.4707 10.9614V13.0387C6.4707 13.453 6.13492 13.7887 5.7207 13.7887C5.30649 13.7887 4.9707 13.453 4.9707 13.0387V10.9614C4.9707 10.5472 5.30649 10.2114 5.7207 10.2114ZM19.1884 10.2114C19.6027 10.2114 19.9384 10.5472 19.9384 10.9614V13.0387C19.9384 13.453 19.6027 13.7887 19.1884 13.7887C18.7742 13.7887 18.4384 13.453 18.4384 13.0387V10.9614C18.4384 10.5472 18.7742 10.2114 19.1884 10.2114ZM10.6679 18.7509C10.6679 18.3367 11.0037 18.0009 11.4179 18.0009H13.4904C13.9046 18.0009 14.2404 18.3367 14.2404 18.7509C14.2404 19.1652 13.9046 19.5009 13.4904 19.5009H11.4179C11.0037 19.5009 10.6679 19.1652 10.6679 18.7509Z" fill="#000000" />
</svg>