<svg width="24px"  height="24px"  viewBox="0 0 25 25" fill="none" xmlns="http://www.w3.org/2000/svg">
<path fill-rule="evenodd" clip-rule="evenodd" d="M3.27634 3.71756C3.66074 3.3597 4.16869 3.19531 4.69159 3.19531H6.67636C7.19898 3.19531 7.70676 3.35981 8.0911 3.71742C8.48154 4.0807 8.68241 4.58625 8.68241 5.14006V7.24742C8.68241 7.80123 8.48154 8.30678 8.0911 8.67007C7.70676 9.02768 7.19898 9.19217 6.67636 9.19217H4.69159C4.16744 9.19217 3.65965 9.02631 3.27586 8.66838C2.88629 8.30508 2.68555 7.8 2.68555 7.24742V5.14006C2.68555 4.58667 2.88588 4.08106 3.27634 3.71756ZM4.29842 4.81544C4.24498 4.86519 4.18555 4.95695 4.18555 5.14006V7.24742C4.18555 7.42842 4.24457 7.52073 4.29891 7.5714C4.35901 7.62745 4.47924 7.69217 4.69159 7.69217H6.67636C6.88928 7.69217 7.00952 7.62755 7.06932 7.57191C7.12302 7.52194 7.18241 7.43011 7.18241 7.24742V5.14006C7.18241 4.95737 7.12302 4.86555 7.06932 4.81558C7.00952 4.75994 6.88928 4.69531 6.67636 4.69531H4.69159C4.47799 4.69531 4.35792 4.76005 4.29842 4.81544ZM16.7795 3.71756C17.1639 3.3597 17.6718 3.19531 18.1947 3.19531H20.1795C20.7021 3.19531 21.2099 3.35981 21.5942 3.71742C21.9847 4.0807 22.1855 4.58625 22.1855 5.14006V7.24742C22.1855 7.80123 21.9847 8.30678 21.5942 8.67007C21.2099 9.02768 20.7021 9.19217 20.1795 9.19217H18.1947C17.6706 9.19217 17.1628 9.02631 16.779 8.66838C16.3894 8.30508 16.1887 7.8 16.1887 7.24742V5.14006C16.1887 4.58667 16.389 4.08106 16.7795 3.71756ZM17.8016 4.81544C17.7481 4.86519 17.6887 4.95695 17.6887 5.14006V7.24742C17.6887 7.42842 17.7477 7.52073 17.802 7.5714C17.8621 7.62745 17.9824 7.69217 18.1947 7.69217H20.1795C20.3924 7.69217 20.5127 7.62755 20.5725 7.57191C20.6262 7.52194 20.6855 7.43011 20.6855 7.24742V5.14006C20.6855 4.95737 20.6262 4.86555 20.5725 4.81558C20.5127 4.75994 20.3924 4.69531 20.1795 4.69531H18.1947C17.9811 4.69531 17.8611 4.76005 17.8016 4.81544ZM3.27634 17.2197C3.66074 16.8619 4.16869 16.6975 4.69159 16.6975H6.67636C7.19898 16.6975 7.70676 16.862 8.0911 17.2196C8.48154 17.5829 8.68241 18.0884 8.68241 18.6423V20.7496C8.68241 21.3034 8.48154 21.809 8.0911 22.1723C7.70676 22.5299 7.19898 22.6944 6.67636 22.6944H4.69159C4.16744 22.6944 3.65965 22.5285 3.27586 22.1706C2.88629 21.8073 2.68555 21.3022 2.68555 20.7496V18.6423C2.68555 18.0889 2.88588 17.5832 3.27634 17.2197ZM4.29842 18.3176C4.24498 18.3674 4.18555 18.4591 4.18555 18.6423V20.7496C4.18555 20.9306 4.24457 21.0229 4.2989 21.0736C4.35901 21.1296 4.47924 21.1944 4.69159 21.1944H6.67636C6.88928 21.1944 7.00952 21.1297 7.06932 21.0741C7.12302 21.0241 7.18241 20.9323 7.18241 20.7496V18.6423C7.18241 18.4596 7.12302 18.3677 7.06932 18.3178C7.00952 18.2621 6.88928 18.1975 6.67636 18.1975H4.69159C4.47799 18.1975 4.35792 18.2622 4.29842 18.3176ZM16.7795 17.2197C17.1639 16.8619 17.6718 16.6975 18.1947 16.6975H20.1795C20.7021 16.6975 21.2099 16.862 21.5942 17.2196C21.9847 17.5829 22.1855 18.0884 22.1855 18.6423V20.7496C22.1855 21.3034 21.9847 21.809 21.5942 22.1723C21.2099 22.5299 20.7021 22.6944 20.1795 22.6944H18.1947C17.6706 22.6944 17.1628 22.5285 16.779 22.1706C16.3894 21.8073 16.1887 21.3022 16.1887 20.7496V18.6423C16.1887 18.0889 16.389 17.5832 16.7795 17.2197ZM17.8016 18.3176C17.7481 18.3674 17.6887 18.4591 17.6887 18.6423V20.7496C17.6887 20.9306 17.7477 21.0229 17.802 21.0736C17.8621 21.1296 17.9824 21.1944 18.1947 21.1944H20.1795C20.3924 21.1944 20.5127 21.1297 20.5725 21.0741C20.6262 21.0241 20.6855 20.9323 20.6855 20.7496V18.6423C20.6855 18.4596 20.6262 18.3677 20.5725 18.3178C20.5127 18.2621 20.3924 18.1975 20.1795 18.1975H18.1947C17.9811 18.1975 17.8611 18.2622 17.8016 18.3176Z" fill="#000000" />
<path fill-rule="evenodd" clip-rule="evenodd" d="M7.20344 6.17578C7.20344 5.76157 7.53922 5.42578 7.95344 5.42578H16.9462C17.3604 5.42578 17.6962 5.76157 17.6962 6.17578C17.6962 6.58999 17.3604 6.92578 16.9462 6.92578H7.95344C7.53922 6.92578 7.20344 6.58999 7.20344 6.17578ZM5.71875 7.69182C6.13296 7.69182 6.46875 8.02761 6.46875 8.44182V17.4482C6.46875 17.8624 6.13296 18.1982 5.71875 18.1982C5.30454 18.1982 4.96875 17.8624 4.96875 17.4482V8.44182C4.96875 8.02761 5.30454 7.69182 5.71875 7.69182ZM19.1858 7.69182C19.6 7.69182 19.9358 8.02761 19.9358 8.44182V17.4482C19.9358 17.8624 19.6 18.1982 19.1858 18.1982C18.7716 18.1982 18.4358 17.8624 18.4358 17.4482V8.44182C18.4358 8.02761 18.7716 7.69182 19.1858 7.69182ZM7.20344 19.696C7.20344 19.2818 7.53922 18.946 7.95344 18.946H16.9462C17.3604 18.946 17.6962 19.2818 17.6962 19.696C17.6962 20.1102 17.3604 20.446 16.9462 20.446H7.95344C7.53922 20.446 7.20344 20.1102 7.20344 19.696Z" fill="#000000" />
<path fill-rule="evenodd" clip-rule="evenodd" d="M9.87271 12.6211C10.2869 12.6209 10.6229 12.9565 10.623 13.3708L10.6237 14.7565L12.0087 14.7567C12.4229 14.7567 12.7587 15.0925 12.7586 15.5068C12.7586 15.921 12.4227 16.2567 12.0085 16.2567L9.87391 16.2564C9.45986 16.2564 9.12418 15.9208 9.124 15.5067L9.12305 13.3714C9.12286 12.9572 9.4585 12.6213 9.87271 12.6211Z" fill="#000000" />
<path fill-rule="evenodd" clip-rule="evenodd" d="M12.1133 10.3828C12.1133 9.9686 12.4491 9.63281 12.8633 9.63281H14.9986C15.4128 9.63281 15.7485 9.96854 15.7486 10.3827L15.7489 12.5173C15.7489 12.9315 15.4132 13.2674 14.9989 13.2674C14.5847 13.2675 14.2489 12.9317 14.2489 12.5175L14.2487 11.1328H12.8633C12.4491 11.1328 12.1133 10.797 12.1133 10.3828Z" fill="#000000" />
</svg>