<svg width="24px"  height="24px"  viewBox="0 0 25 24" fill="none" xmlns="http://www.w3.org/2000/svg">
<path fill-rule="evenodd" clip-rule="evenodd" d="M17.498 15.3848C17.3206 15.3848 17.1777 15.5277 17.1777 15.705V16.9154C17.1777 17.0922 17.3211 17.2356 17.498 17.2356H18.7083C18.8847 17.2356 19.0286 17.0918 19.0286 16.9154V15.705C19.0286 15.5281 18.8852 15.3848 18.7083 15.3848H17.498ZM15.6777 15.705C15.6777 14.6992 16.4922 13.8848 17.498 13.8848H18.7083C19.7127 13.8848 20.5286 14.6988 20.5286 15.705V16.9154C20.5286 17.9202 19.7131 18.7356 18.7083 18.7356H17.498C16.4918 18.7356 15.6777 17.9197 15.6777 16.9154V15.705Z" fill="#000000" />
<path fill-rule="evenodd" clip-rule="evenodd" d="M5.78314 15.3848C5.6058 15.3848 5.46289 15.5277 5.46289 15.705V16.9154C5.46289 17.0922 5.60624 17.2356 5.78314 17.2356H6.9935C7.16988 17.2356 7.31376 17.0918 7.31376 16.9154V15.705C7.31376 15.5281 7.17032 15.3848 6.9935 15.3848H5.78314ZM3.96289 15.705C3.96289 14.6992 4.77737 13.8848 5.78314 13.8848H6.9935C7.99786 13.8848 8.81376 14.6988 8.81376 15.705V16.9154C8.81376 17.9202 7.9983 18.7356 6.9935 18.7356H5.78314C4.77693 18.7356 3.96289 17.9197 3.96289 16.9154V15.705Z" fill="#000000" />
<path fill-rule="evenodd" clip-rule="evenodd" d="M4.71528 6.97461C4.31999 6.97461 4 7.2946 4 7.68988C4 8.08517 4.31999 8.40516 4.71528 8.40516C5.10991 8.40516 5.43055 8.08485 5.43055 7.68988C5.43055 7.29492 5.10991 6.97461 4.71528 6.97461ZM2.5 7.68988C2.5 6.46617 3.49156 5.47461 4.71528 5.47461C5.93769 5.47461 6.93055 6.46584 6.93055 7.68988C6.93055 8.91392 5.93769 9.90516 4.71528 9.90516C3.49156 9.90516 2.5 8.9136 2.5 7.68988Z" fill="#000000" />
<path fill-rule="evenodd" clip-rule="evenodd" d="M19.7856 6.97461C19.3909 6.97461 19.0703 7.29492 19.0703 7.68988C19.0703 8.08485 19.3909 8.40516 19.7856 8.40516C20.1809 8.40516 20.5009 8.08517 20.5009 7.68988C20.5009 7.2946 20.1809 6.97461 19.7856 6.97461ZM17.5703 7.68988C17.5703 6.46584 18.5632 5.47461 19.7856 5.47461C21.0093 5.47461 22.0009 6.46617 22.0009 7.68988C22.0009 8.9136 21.0093 9.90516 19.7856 9.90516C18.5632 9.90516 17.5703 8.91392 17.5703 7.68988Z" fill="#000000" />
<path fill-rule="evenodd" clip-rule="evenodd" d="M11.6445 6.76367C11.4671 6.76367 11.3242 6.90658 11.3242 7.08393V8.29429C11.3242 8.4711 11.4676 8.61454 11.6445 8.61454H12.8548C13.0312 8.61454 13.1751 8.47066 13.1751 8.29429V7.08393C13.1751 6.90703 13.0316 6.76367 12.8548 6.76367H11.6445ZM9.82422 7.08393C9.82422 6.07815 10.6387 5.26367 11.6445 5.26367H12.8548C13.8592 5.26367 14.6751 6.07771 14.6751 7.08393V8.29429C14.6751 9.29909 13.8596 10.1145 12.8548 10.1145H11.6445C10.6383 10.1145 9.82422 9.29864 9.82422 8.29429V7.08393Z" fill="#000000" />
<path fill-rule="evenodd" clip-rule="evenodd" d="M6.17966 6.93959L10.5752 6.93945C10.9894 6.93944 11.3252 7.27522 11.3252 7.68943C11.3252 8.10364 10.9895 8.43944 10.5752 8.43945L6.17971 8.43959C5.7655 8.4396 5.4297 8.10383 5.42969 7.68961C5.42967 7.2754 5.76545 6.9396 6.17966 6.93959ZM13.1732 7.68943C13.1732 7.27522 13.509 6.93944 13.9232 6.93945L18.3186 6.93959C18.7328 6.9396 19.0686 7.2754 19.0686 7.68961C19.0686 8.10383 18.7328 8.4396 18.3186 8.43959L13.9231 8.43945C13.5089 8.43944 13.1732 8.10364 13.1732 7.68943Z" fill="#000000" />
<path fill-rule="evenodd" clip-rule="evenodd" d="M11.2949 7.72082C11.4136 8.11766 11.1881 8.53559 10.7912 8.65429C8.68256 9.28502 7.14648 11.2385 7.14648 13.5487V14.6336C7.14648 15.0478 6.8107 15.3836 6.39648 15.3836C5.98227 15.3836 5.64648 15.0478 5.64648 14.6336V13.5487C5.64648 10.5563 7.63641 8.03228 10.3614 7.2172C10.7582 7.0985 11.1762 7.32398 11.2949 7.72082Z" fill="#000000" />
<path fill-rule="evenodd" clip-rule="evenodd" d="M13.2055 7.72082C13.3242 7.32398 13.7421 7.0985 14.139 7.2172C16.8639 8.03228 18.8539 10.5563 18.8539 13.5487V14.6336C18.8539 15.0478 18.5181 15.3836 18.1039 15.3836C17.6896 15.3836 17.3539 15.0478 17.3539 14.6336V13.5487C17.3539 11.2385 15.8178 9.28502 13.7091 8.65429C13.3123 8.53559 13.0868 8.11766 13.2055 7.72082Z" fill="#000000" />
</svg>