<svg width="24px"  height="24px"  viewBox="0 0 25 24" fill="none" xmlns="http://www.w3.org/2000/svg">
<path fill-rule="evenodd" clip-rule="evenodd" d="M18.9323 3.75C17.9659 3.75 17.1829 4.53305 17.1829 5.49939C17.1829 6.46689 17.9661 7.24976 18.9323 7.24976C19.8984 7.24976 20.6817 6.46689 20.6817 5.49939C20.6817 4.53305 19.8986 3.75 18.9323 3.75ZM15.6829 5.49939C15.6829 3.70463 17.1375 2.25 18.9323 2.25C20.727 2.25 22.1817 3.70463 22.1817 5.49939C22.1817 7.29494 20.7272 8.74976 18.9323 8.74976C17.1373 8.74976 15.6829 7.29494 15.6829 5.49939ZM5.93396 3.75095C4.96646 3.75095 4.18359 4.53419 4.18359 5.50034C4.18359 6.46687 4.96684 7.25071 5.93396 7.25071C6.89992 7.25071 7.68335 6.46706 7.68335 5.50034C7.68335 4.534 6.9003 3.75095 5.93396 3.75095ZM2.68359 5.50034C2.68359 3.70539 4.13841 2.25095 5.93396 2.25095C7.72872 2.25095 9.18335 3.70558 9.18335 5.50034C9.18335 7.29473 7.7291 8.75071 5.93396 8.75071C4.13803 8.75071 2.68359 7.29492 2.68359 5.50034ZM5.93394 16.7502C4.9676 16.7502 4.18454 17.5333 4.18454 18.4996C4.18454 19.4664 4.96798 20.25 5.93394 20.25C6.89989 20.25 7.68333 19.4664 7.68333 18.4996C7.68333 17.5333 6.90027 16.7502 5.93394 16.7502ZM2.68454 18.4996C2.68454 16.7049 4.13917 15.2502 5.93394 15.2502C7.7287 15.2502 9.18333 16.7049 9.18333 18.4996C9.18333 20.294 7.72908 21.75 5.93394 21.75C4.13879 21.75 2.68454 20.294 2.68454 18.4996ZM18.9333 16.7502C17.9658 16.7502 17.1829 17.5335 17.1829 18.4996C17.1829 19.4658 17.9658 20.249 18.9333 20.249C19.8996 20.249 20.6826 19.466 20.6826 18.4996C20.6826 17.5333 19.8996 16.7502 18.9333 16.7502ZM15.6829 18.4996C15.6829 16.7047 17.1377 15.2502 18.9333 15.2502C20.728 15.2502 22.1826 16.7049 22.1826 18.4996C22.1826 20.2944 20.728 21.749 18.9333 21.749C17.1377 21.749 15.6829 20.2946 15.6829 18.4996Z" fill="#000000" />
<path fill-rule="evenodd" clip-rule="evenodd" d="M10.6818 5.5C10.6818 5.08579 11.0176 4.75 11.4318 4.75H13.4321C13.8463 4.75 14.1821 5.08579 14.1821 5.5C14.1821 5.91421 13.8463 6.25 13.4321 6.25H11.4318C11.0176 6.25 10.6818 5.91421 10.6818 5.5ZM5.93359 10.2492C6.34781 10.2492 6.68359 10.585 6.68359 10.9992V12.9995C6.68359 13.4137 6.34781 13.7495 5.93359 13.7495C5.51938 13.7495 5.18359 13.4137 5.18359 12.9995V10.9992C5.18359 10.585 5.51938 10.2492 5.93359 10.2492ZM18.9319 10.2492C19.3462 10.2492 19.6819 10.585 19.6819 10.9992V12.9995C19.6819 13.4137 19.3462 13.7495 18.9319 13.7495C18.5177 13.7495 18.1819 13.4137 18.1819 12.9995V10.9992C18.1819 10.585 18.5177 10.2492 18.9319 10.2492ZM10.6818 18.4983C10.6818 18.0841 11.0176 17.7483 11.4318 17.7483H13.4321C13.8463 17.7483 14.1821 18.0841 14.1821 18.4983C14.1821 18.9126 13.8463 19.2483 13.4321 19.2483H11.4318C11.0176 19.2483 10.6818 18.9126 10.6818 18.4983Z" fill="#000000" />
</svg>