<svg width="24px"  height="24px"  viewBox="0 0 25 24" fill="none" xmlns="http://www.w3.org/2000/svg">
<path fill-rule="evenodd" clip-rule="evenodd" d="M18.9323 3.75C17.9659 3.75 17.1829 4.53305 17.1829 5.49939C17.1829 6.46689 17.9661 7.24976 18.9323 7.24976C19.8984 7.24976 20.6817 6.46689 20.6817 5.49939C20.6817 4.53305 19.8986 3.75 18.9323 3.75ZM15.6829 5.49939C15.6829 3.70463 17.1375 2.25 18.9323 2.25C20.727 2.25 22.1817 3.70463 22.1817 5.49939C22.1817 7.29494 20.7272 8.74976 18.9323 8.74976C17.1373 8.74976 15.6829 7.29494 15.6829 5.49939ZM5.93396 3.75095C4.96646 3.75095 4.18359 4.53419 4.18359 5.50034C4.18359 6.46687 4.96684 7.25071 5.93396 7.25071C6.89992 7.25071 7.68335 6.46706 7.68335 5.50034C7.68335 4.534 6.9003 3.75095 5.93396 3.75095ZM2.68359 5.50034C2.68359 3.70539 4.13841 2.25095 5.93396 2.25095C7.72872 2.25095 9.18335 3.70558 9.18335 5.50034C9.18335 7.29473 7.7291 8.75071 5.93396 8.75071C4.13803 8.75071 2.68359 7.29492 2.68359 5.50034ZM5.93394 16.7502C4.9676 16.7502 4.18454 17.5333 4.18454 18.4996C4.18454 19.4664 4.96798 20.25 5.93394 20.25C6.89989 20.25 7.68333 19.4664 7.68333 18.4996C7.68333 17.5333 6.90027 16.7502 5.93394 16.7502ZM2.68454 18.4996C2.68454 16.7049 4.13917 15.2502 5.93394 15.2502C7.7287 15.2502 9.18333 16.7049 9.18333 18.4996C9.18333 20.294 7.72908 21.75 5.93394 21.75C4.13879 21.75 2.68454 20.294 2.68454 18.4996ZM18.9333 16.7502C17.9658 16.7502 17.1829 17.5335 17.1829 18.4996C17.1829 19.4658 17.9658 20.249 18.9333 20.249C19.8996 20.249 20.6826 19.466 20.6826 18.4996C20.6826 17.5333 19.8996 16.7502 18.9333 16.7502ZM15.6829 18.4996C15.6829 16.7047 17.1377 15.2502 18.9333 15.2502C20.728 15.2502 22.1826 16.7049 22.1826 18.4996C22.1826 20.2944 20.728 21.749 18.9333 21.749C17.1377 21.749 15.6829 20.2946 15.6829 18.4996Z" fill="#000000" />
<path fill-rule="evenodd" clip-rule="evenodd" d="M7.68301 5.49997C7.68302 5.08576 8.01882 4.74998 8.43304 4.75L16.4319 4.75033C16.8462 4.75034 17.1819 5.08614 17.1819 5.50036C17.1819 5.91457 16.8461 6.25034 16.4319 6.25033L8.43298 6.25C8.01876 6.24998 7.68299 5.91418 7.68301 5.49997ZM18.9318 7.24941C19.3461 7.24936 19.6819 7.58511 19.6819 7.99932L19.6829 15.9998C19.683 16.414 19.3472 16.7499 18.933 16.7499C18.5188 16.75 18.183 16.4142 18.1829 16L18.1819 7.99951C18.1819 7.58529 18.5176 7.24946 18.9318 7.24941ZM5.93362 7.25036C6.34783 7.25037 6.68362 7.58615 6.68362 8.00037L6.68359 15.9999C6.68359 16.4141 6.34781 16.7499 5.93359 16.7499C5.51938 16.7499 5.18359 16.4141 5.18359 15.9999L5.18362 8.00036C5.18362 7.58615 5.51941 7.25036 5.93362 7.25036ZM7.68299 18.4993C7.68299 18.0851 8.01877 17.7493 8.43299 17.7493H16.4325C16.8468 17.7493 17.1825 18.0851 17.1825 18.4993C17.1825 18.9135 16.8468 19.2493 16.4325 19.2493H8.43299C8.01877 19.2493 7.68299 18.9135 7.68299 18.4993Z" fill="#000000" />
</svg>