<svg width="24px"  height="24px"  viewBox="0 0 25 24" fill="none" xmlns="http://www.w3.org/2000/svg">
<path d="M7.29097 19.6515C6.81154 19.6493 6.34618 19.4894 5.96666 19.1964C5.58714 18.9035 5.31455 18.4938 5.19097 18.0305C4.94096 17.0876 4.90615 16.1004 5.08911 15.1422C5.27207 14.1839 5.66812 13.2791 6.24797 12.4945L12.099 4.69453C12.3944 4.29335 12.766 3.95428 13.1926 3.69671C13.6191 3.43913 14.0921 3.26808 14.5847 3.19333C15.0774 3.11858 15.5799 3.14159 16.0636 3.26104C16.5473 3.3805 17.0028 3.59406 17.404 3.88953C17.8052 4.18501 18.1442 4.55661 18.4018 4.98312C18.6594 5.40963 18.8304 5.8827 18.9052 6.37531C18.9799 6.86793 18.9569 7.37044 18.8375 7.85417C18.718 8.33789 18.5044 8.79335 18.209 9.19453L12.358 16.9945C11.7826 17.7807 11.0378 18.4275 10.1788 18.8871C9.3197 19.3467 8.36832 19.6072 7.39497 19.6495C7.35798 19.6515 7.32497 19.6515 7.29097 19.6515ZM15.154 4.65153C15.0365 4.65177 14.9192 4.66046 14.803 4.67753C14.5052 4.72265 14.2194 4.82629 13.9619 4.98248C13.7045 5.13867 13.4805 5.34431 13.303 5.58753L7.45097 13.3875C7.00598 13.9918 6.70227 14.6883 6.56226 15.4256C6.42224 16.1629 6.44948 16.9222 6.64197 17.6475C6.68136 17.7963 6.77054 17.927 6.89464 18.018C7.01874 18.109 7.17027 18.1547 7.32398 18.1475C8.07371 18.1147 8.8065 17.914 9.46834 17.5603C10.1302 17.2065 10.7042 16.7087 11.148 16.1035L17 8.30353C17.2496 7.96181 17.3997 7.5577 17.4339 7.13592C17.4681 6.71414 17.385 6.29111 17.1937 5.91364C17.0025 5.53617 16.7105 5.21896 16.3502 4.99709C15.9898 4.77523 15.5751 4.65737 15.152 4.65653L15.154 4.65153Z" fill="#000000" />
<path d="M5.43458 20.6546C5.2953 20.6546 5.15876 20.6158 5.04028 20.5426C4.9218 20.4693 4.82605 20.3646 4.76376 20.24C4.70147 20.1154 4.67509 19.9759 4.6876 19.8372C4.70011 19.6985 4.751 19.566 4.83457 19.4546L5.80657 18.1396C5.92691 17.9857 6.10255 17.8848 6.29612 17.8584C6.48969 17.8321 6.68593 17.8823 6.84306 17.9983C7.00019 18.1144 7.10582 18.2872 7.13748 18.48C7.16914 18.6728 7.12433 18.8703 7.01258 19.0306L6.04058 20.3466C5.97108 20.4421 5.87992 20.5198 5.77459 20.5734C5.66926 20.6269 5.55274 20.6547 5.43458 20.6546Z" fill="#000000" />
<path d="M15.9196 15.8151C15.7793 15.816 15.6416 15.7774 15.5221 15.7039C15.4025 15.6304 15.306 15.5248 15.2435 15.3992C15.181 15.2736 15.155 15.1329 15.1685 14.9933C15.1819 14.8536 15.2343 14.7205 15.3196 14.6091L18.1196 10.9501C18.276 10.7317 18.3403 10.4605 18.2986 10.1951C18.28 10.0627 18.235 9.93531 18.1663 9.82057C18.0976 9.70584 18.0065 9.60604 17.8986 9.5271L17.3496 9.0841C17.2705 9.02306 17.2043 8.94682 17.1551 8.85985C17.1058 8.77289 17.0744 8.67695 17.0628 8.57769C17.0511 8.47842 17.0594 8.37783 17.0872 8.28182C17.115 8.18581 17.1617 8.09632 17.2245 8.01861C17.2874 7.9409 17.3651 7.87653 17.4532 7.82929C17.5413 7.78205 17.6379 7.7529 17.7374 7.74353C17.8369 7.73417 17.9373 7.74479 18.0326 7.77477C18.128 7.80475 18.2164 7.85348 18.2926 7.9181L18.8116 8.3381C19.0741 8.53237 19.2954 8.77686 19.4626 9.05736C19.6298 9.33787 19.7396 9.6488 19.7856 9.9721C19.8359 10.2997 19.8212 10.634 19.7422 10.9559C19.6633 11.2778 19.5217 11.5809 19.3256 11.8481L16.5156 15.5211C16.4455 15.6126 16.3553 15.6867 16.2519 15.7377C16.1486 15.7887 16.0349 15.8152 15.9196 15.8151Z" fill="#000000" />
<path d="M15.048 12.9158C14.8848 12.9156 14.7262 12.8623 14.596 12.7638L9.76204 9.09878C9.67845 9.04139 9.60735 8.96765 9.55307 8.88201C9.49878 8.79637 9.46243 8.70061 9.4462 8.60052C9.42997 8.50043 9.43419 8.39809 9.45863 8.29969C9.48307 8.20128 9.52722 8.10885 9.58839 8.02799C9.64957 7.94713 9.7265 7.87951 9.81454 7.82922C9.90259 7.77893 9.99992 7.74701 10.1006 7.7354C10.2014 7.72379 10.3034 7.73273 10.4006 7.76167C10.4978 7.79061 10.5881 7.83895 10.666 7.90378L15.5 11.5688C15.625 11.6638 15.717 11.7956 15.763 11.9457C15.8091 12.0958 15.8069 12.2566 15.7568 12.4053C15.7066 12.5541 15.6111 12.6834 15.4836 12.7749C15.3561 12.8665 15.203 12.9158 15.046 12.9158H15.048Z" fill="#000000" />
</svg>