<svg width="24px"  height="24px"  viewBox="0 0 25 24" fill="none" xmlns="http://www.w3.org/2000/svg">
<path d="M12.8753 15.8298C12.0876 15.8305 11.3181 15.5933 10.6675 15.1492C10.017 14.7051 9.51571 14.0749 9.22939 13.3411C8.94307 12.6073 8.88504 11.8042 9.06292 11.0368C9.2408 10.2695 9.6463 9.57382 10.2263 9.04085L16.2663 3.78784C16.8571 3.2522 17.6286 2.95969 18.4261 2.96896C19.2235 2.97824 19.988 3.28861 20.5663 3.83785C21.1453 4.39096 21.4932 5.14302 21.5398 5.94244C21.5864 6.74187 21.3282 7.52922 20.8173 8.14584L15.8953 14.4059C15.5514 14.8205 15.1261 15.1601 14.6457 15.4039C14.1653 15.6476 13.64 15.7902 13.1023 15.8228C13.0243 15.8278 12.9513 15.8298 12.8753 15.8298ZM18.3883 4.47084C17.9729 4.46982 17.5724 4.62512 17.2663 4.90585L11.2263 10.1588C10.9833 10.3832 10.789 10.6551 10.6556 10.9576C10.5222 11.2602 10.4524 11.587 10.4507 11.9177C10.4489 12.2484 10.5152 12.5759 10.6455 12.8799C10.7757 13.1839 10.9671 13.4578 11.2077 13.6846C11.4483 13.9115 11.733 14.0864 12.0441 14.1986C12.3552 14.3107 12.686 14.3576 13.016 14.3365C13.3461 14.3153 13.6682 14.2265 13.9624 14.0755C14.2566 13.9245 14.5166 13.7146 14.7263 13.4588L19.6483 7.19885C19.9217 6.87542 20.0617 6.45997 20.0398 6.037C20.0179 5.61403 19.8357 5.21528 19.5303 4.92184C19.2215 4.63064 18.8127 4.46918 18.3883 4.47084Z" fill="#000000" />
<path d="M3.75026 21.5468C3.55124 21.5468 3.35511 21.4992 3.17824 21.408C3.00137 21.3167 2.84891 21.1845 2.7336 21.0223C2.61828 20.8601 2.54346 20.6726 2.5154 20.4756C2.48733 20.2786 2.50682 20.0777 2.57225 19.8898L4.20027 15.2008C4.43 14.5352 4.82333 13.9381 5.34416 13.4643C5.86499 12.9905 6.49659 12.6552 7.18086 12.4893C7.86513 12.3234 8.58013 12.3322 9.26012 12.5149C9.9401 12.6976 10.5632 13.0483 11.0722 13.5348C11.8055 14.1742 12.3271 15.0213 12.568 15.9638C12.8089 16.9064 12.7578 17.8999 12.4212 18.8128C12.0644 19.5658 11.4757 20.1847 10.7415 20.5788C10.0072 20.9729 9.16607 21.1215 8.34126 21.0028C5.06926 20.8028 4.26525 21.3538 4.25825 21.3588C4.19911 21.4248 4.12536 21.476 4.04289 21.5085C3.96042 21.541 3.87152 21.5537 3.78325 21.5458L3.75026 21.5468ZM8.17827 13.8748C7.61529 13.8736 7.06596 14.0481 6.60689 14.374C6.14781 14.6999 5.80187 15.1609 5.61726 15.6928L4.20225 19.7688C5.58709 19.4485 7.01532 19.3593 8.42924 19.5048C8.94626 19.6012 9.48061 19.5277 9.95235 19.2951C10.4241 19.0626 10.8079 18.6836 11.0462 18.2148C11.2542 17.5832 11.2692 16.9041 11.0895 16.264C10.9098 15.6239 10.5435 15.0518 10.0372 14.6208C9.53603 14.1412 8.8689 13.874 8.17525 13.8748H8.17827Z" fill="#000000" />
<path d="M16.191 13.5589C15.9983 13.5593 15.813 13.4851 15.674 13.3519L13.3019 11.0939C13.1579 10.9566 13.0743 10.7678 13.0696 10.5689C13.0648 10.37 13.1392 10.1774 13.2765 10.0334C13.4137 9.88936 13.6025 9.80578 13.8014 9.801C14.0003 9.79622 14.1929 9.87063 14.3369 10.0079L16.709 12.2659C16.8175 12.3693 16.8926 12.5029 16.9244 12.6494C16.9563 12.7959 16.9436 12.9486 16.8878 13.0878C16.8321 13.227 16.7359 13.3463 16.6116 13.4302C16.4874 13.5142 16.3409 13.559 16.191 13.5589Z" fill="#000000" />
<path d="M16.3925 21.5544C15.381 21.5567 14.4099 21.1575 13.6925 20.4444C13.6206 20.3755 13.5633 20.2929 13.5237 20.2015C13.4841 20.1102 13.4631 20.0118 13.462 19.9123C13.4608 19.8127 13.4794 19.7139 13.5168 19.6216C13.5542 19.5294 13.6097 19.4455 13.6798 19.3748C13.75 19.3042 13.8335 19.2482 13.9256 19.2102C14.0176 19.1722 14.1162 19.1529 14.2158 19.1534C14.3154 19.1539 14.4139 19.1743 14.5055 19.2133C14.5971 19.2522 14.68 19.3091 14.7495 19.3804C15.1847 19.8118 15.7727 20.0538 16.3855 20.0538C16.9983 20.0538 17.5862 19.8118 18.0215 19.3804L19.8145 17.5884C20.0305 17.3746 20.202 17.12 20.319 16.8394C20.4361 16.5589 20.4963 16.2579 20.4963 15.9539C20.4963 15.6499 20.4361 15.349 20.319 15.0684C20.202 14.7879 20.0305 14.5333 19.8145 14.3194L18.8365 13.3394C18.704 13.1973 18.6319 13.0092 18.6353 12.8149C18.6387 12.6206 18.7174 12.4352 18.8548 12.2978C18.9923 12.1604 19.1777 12.0817 19.372 12.0782C19.5663 12.0748 19.7543 12.1469 19.8965 12.2794L20.8735 13.2564C21.2293 13.6096 21.5118 14.0298 21.7045 14.4927C21.8973 14.9556 21.9965 15.452 21.9965 15.9534C21.9965 16.4548 21.8973 16.9513 21.7045 17.4142C21.5118 17.877 21.2293 18.2972 20.8735 18.6504L19.0825 20.4404C18.7296 20.7941 18.3103 21.0746 17.8486 21.2658C17.387 21.457 16.8921 21.5551 16.3925 21.5544Z" fill="#000000" />
<path d="M5.31235 11.7533C5.21386 11.7534 5.11632 11.734 5.02536 11.6963C4.9344 11.6585 4.85183 11.6031 4.78235 11.5333L4.00134 10.7523C3.28816 10.0365 2.8877 9.06729 2.8877 8.05684C2.8877 7.0464 3.28816 6.07713 4.00134 5.36133L5.79535 3.56833C6.14693 3.21138 6.5662 2.92819 7.02863 2.73536C7.49105 2.54252 7.98732 2.44392 8.48834 2.44533C8.99061 2.44375 9.48812 2.54245 9.95175 2.73563C10.4154 2.92881 10.8358 3.21258 11.1883 3.57033L12.1783 4.55733C12.3116 4.69954 12.3844 4.888 12.3813 5.08287C12.3781 5.27775 12.2994 5.46379 12.1617 5.60167C12.0239 5.73955 11.8379 5.81848 11.6431 5.82178C11.4482 5.82508 11.2597 5.75249 11.1173 5.61934L10.1263 4.62934C9.91288 4.4122 9.65821 4.23986 9.37729 4.12241C9.09636 4.00496 8.79482 3.94475 8.49033 3.94533C8.18682 3.94457 7.88624 4.00443 7.60617 4.12137C7.3261 4.23831 7.0722 4.40998 6.85934 4.62633L5.05933 6.42633C4.62607 6.86036 4.38275 7.44857 4.38275 8.06183C4.38275 8.6751 4.62607 9.26332 5.05933 9.69735L5.84033 10.4783C5.94515 10.5833 6.0165 10.717 6.04535 10.8624C6.0742 11.0079 6.05928 11.1587 6.00244 11.2957C5.94561 11.4327 5.84941 11.5498 5.72604 11.6321C5.60267 11.7145 5.45765 11.7584 5.30933 11.7583L5.31235 11.7533Z" fill="#000000" />
</svg>