<svg width="24px"  height="24px"  viewBox="0 0 25 24" fill="none" xmlns="http://www.w3.org/2000/svg">
<path fill-rule="evenodd" clip-rule="evenodd" d="M3.99328 3.89752C4.97722 2.84132 6.3785 2.25 8.03303 2.25H12.5651C12.9793 2.25 13.3151 2.58579 13.3151 3C13.3151 3.41421 12.9793 3.75 12.5651 3.75H8.03303C6.75045 3.75 5.76217 4.19932 5.09082 4.91997C4.414 5.6465 4.00391 6.70936 4.00391 8.02615V15.9729C4.00391 17.291 4.41258 18.354 5.08824 19.0803C5.75823 19.8004 6.74613 20.25 8.03303 20.25H16.467C17.7561 20.25 18.7438 19.8003 19.4131 19.0804C20.0882 18.3544 20.4961 17.2915 20.4961 15.9729V11.4359C20.4961 11.0217 20.8319 10.6859 21.2461 10.6859C21.6603 10.6859 21.9961 11.0217 21.9961 11.4359V15.9729C21.9961 17.6002 21.4889 19.0508 20.5116 20.1018C19.5286 21.1591 18.1267 21.75 16.467 21.75H8.03303C6.37504 21.75 4.97337 21.159 3.99003 20.102C3.01235 19.0511 2.50391 17.6006 2.50391 15.9729V8.02615C2.50391 6.39805 3.01482 4.94783 3.99328 3.89752Z" fill="#000000" />
<path fill-rule="evenodd" clip-rule="evenodd" d="M21.0675 3.15464C21.3726 3.43481 21.3928 3.90926 21.1126 4.21434L12.2614 13.8523C11.9812 14.1574 11.5068 14.1776 11.2017 13.8974C10.8966 13.6173 10.8764 13.1428 11.1566 12.8377L20.0078 3.19973C20.288 2.89465 20.7624 2.87446 21.0675 3.15464Z" fill="#000000" />
</svg>