<svg width="24px"  height="24px"  viewBox="0 0 25 24" fill="none" xmlns="http://www.w3.org/2000/svg">
<path fill-rule="evenodd" clip-rule="evenodd" d="M7.59996 6.9235C7.93672 7.16467 8.01421 7.63318 7.77304 7.96994L4.02576 13.2025C4.00332 13.2356 3.9981 13.2667 4.00036 13.2909C4.00259 13.3148 4.01248 13.3391 4.03666 13.3619L4.0376 13.3628C5.16665 14.4334 7.83755 17.104 9.30142 19.7C9.31534 19.7238 9.32878 19.734 9.34013 19.7402C9.35407 19.7478 9.37706 19.7555 9.40981 19.7555C9.43574 19.7555 9.45638 19.7492 9.47061 19.7413C9.48237 19.7349 9.49643 19.724 9.51058 19.6997C10.9794 17.1102 13.6326 14.4459 14.778 13.3675C14.8147 13.3295 14.8282 13.2652 14.7855 13.2018L11.0388 7.96994C10.7976 7.63318 10.8751 7.16467 11.2119 6.9235C11.5486 6.68233 12.0171 6.75982 12.2583 7.09658L16.0148 12.3419C16.4692 12.9944 16.4003 13.8809 15.8226 14.4441L15.8131 14.4533C14.6822 15.5174 12.1661 18.0575 10.8143 20.4415L10.8126 20.4446C10.4997 20.9903 9.94678 21.2555 9.40981 21.2555C8.86881 21.2555 8.31386 20.9933 7.99929 20.4446L7.99652 20.4398C6.65417 18.0577 4.13186 15.5194 3.00591 14.4517C2.40984 13.8879 2.34047 12.9951 2.79792 12.3409L2.80277 12.3339L6.55351 7.09658C6.79468 6.75982 7.26319 6.68233 7.59996 6.9235Z" fill="#000000" />
<path fill-rule="evenodd" clip-rule="evenodd" d="M9.40818 13.6602C9.8224 13.6601 10.1582 13.9959 10.1582 14.4101L10.1584 20.5118C10.1584 20.926 9.82259 21.2618 9.40837 21.2618C8.99416 21.2618 8.65837 20.926 8.65836 20.5118L8.6582 14.4102C8.65819 13.996 8.99397 13.6602 9.40818 13.6602Z" fill="#000000" />
<path fill-rule="evenodd" clip-rule="evenodd" d="M7.28516 13.0398C7.28516 11.8673 8.23619 10.918 9.40701 10.918C10.5791 10.918 11.5289 11.8677 11.5289 13.0398C11.5289 14.212 10.5791 15.1617 9.40701 15.1617C8.23619 15.1617 7.28516 14.2123 7.28516 13.0398ZM9.40701 12.418C9.06392 12.418 8.78516 12.6965 8.78516 13.0398C8.78516 13.3832 9.06392 13.6617 9.40701 13.6617C9.75072 13.6617 10.0289 13.3835 10.0289 13.0398C10.0289 12.6961 9.75072 12.418 9.40701 12.418Z" fill="#000000" />
<path fill-rule="evenodd" clip-rule="evenodd" d="M4.25853 5.40224C3.8742 4.06789 4.8771 2.73828 6.26454 2.73828H12.5517C13.9402 2.73828 14.9405 4.0687 14.5579 5.40174L14.2095 6.61232C14.2095 6.61241 14.2095 6.61223 14.2095 6.61232C13.9243 7.6043 13.017 8.28671 11.9855 8.28671H6.83079C5.79921 8.28671 4.89204 7.60458 4.60684 6.61259L4.25853 5.40224C4.25855 5.40233 4.2585 5.40216 4.25853 5.40224ZM6.26454 4.23828C5.87351 4.23828 5.59217 4.6131 5.69995 4.98716L6.04834 6.19775C6.14851 6.54634 6.46726 6.78671 6.83079 6.78671H11.9855C12.349 6.78671 12.6677 6.54661 12.7678 6.19802L13.1161 4.98792C13.2238 4.61246 12.9418 4.23828 12.5517 4.23828H6.26454Z" fill="#000000" />
<path fill-rule="evenodd" clip-rule="evenodd" d="M14.9502 20.8257C14.3652 21.0365 13.7265 21.2637 12.5117 21.2637C12.0975 21.2637 11.7617 20.9279 11.7617 20.5137C11.7617 20.0995 12.0975 19.7637 12.5117 19.7637C13.4731 19.7637 13.927 19.6 14.4288 19.4192L14.4415 19.4146C15.0264 19.2037 15.6649 18.9766 16.8793 18.9766C18.0945 18.9766 18.7334 19.2037 19.3187 19.4145L19.3316 19.4192C19.8337 19.6001 20.2879 19.7637 21.2497 19.7637C21.664 19.7637 21.9997 20.0995 21.9997 20.5137C21.9997 20.9279 21.664 21.2637 21.2497 21.2637C20.0345 21.2637 19.3956 21.0366 18.8103 20.8257L18.7974 20.8211C18.2953 20.6402 17.8411 20.4766 16.8793 20.4766C15.9186 20.4766 15.465 20.6401 14.9632 20.821L14.9502 20.8257Z" fill="#000000" />
</svg>