<svg width="24px"  height="24px"  viewBox="0 0 25 24" fill="none" xmlns="http://www.w3.org/2000/svg">
<path fill-rule="evenodd" clip-rule="evenodd" d="M16.8144 5.25096C15.5607 4.37312 13.8326 4.67927 12.9568 5.93436L7.10204 14.3245C6.69668 14.9233 6.48847 15.6337 6.50589 16.3582C6.51822 16.8551 6.57032 17.5632 6.69063 18.1852C6.75103 18.4975 6.8239 18.7627 6.90538 18.9601C6.97393 19.1262 7.02571 19.188 7.03604 19.2009C7.05548 19.2083 7.13676 19.2375 7.32224 19.247C7.53424 19.2579 7.80332 19.2396 8.1092 19.1959C8.71901 19.1088 9.38058 18.935 9.8369 18.7944C10.5908 18.5617 11.2428 18.08 11.6852 17.4289L11.6905 17.4212L11.6905 17.4212L17.4965 9.10257C18.3705 7.85034 18.0653 6.12685 16.8144 5.25096ZM11.7266 5.07598C13.0771 3.14074 15.7417 2.66868 17.6747 4.02223C19.6035 5.37278 20.0742 8.03024 18.7266 9.96107L12.9231 18.276C12.2888 19.2074 11.3561 19.8954 10.2789 20.2278L10.2786 20.2279C9.78079 20.3813 9.03726 20.5786 8.32128 20.6808C7.96426 20.7318 7.59028 20.7627 7.24532 20.745C6.92092 20.7284 6.51884 20.6648 6.18884 20.4403C5.84591 20.2071 5.64435 19.8365 5.51884 19.5324C5.38444 19.2068 5.28833 18.834 5.21793 18.4701C5.07667 17.7398 5.01993 16.9429 5.00635 16.3951L5.00634 16.3946C4.9813 15.3567 5.28033 14.3373 5.8636 13.4782L5.869 13.4702L5.86905 13.4702L11.7266 5.07598Z" fill="#000000" />
</svg>