<svg width="24px"  height="24px"  viewBox="0 0 25 24" fill="none" xmlns="http://www.w3.org/2000/svg">
<path d="M7.58349 20.7511C6.88054 20.7482 6.20703 20.4684 5.70893 19.9724C5.21083 19.4764 4.92827 18.804 4.92249 18.1011L4.90649 16.3251C4.89635 15.3107 5.20485 14.3188 5.78849 13.4891L12.2535 4.52309C12.7382 3.85887 13.4666 3.41398 14.2788 3.28594C15.0911 3.15791 15.9209 3.35719 16.5865 3.84009L18.3205 5.10409C18.9848 5.58839 19.4296 6.31676 19.5569 7.12897C19.6843 7.94118 19.4838 8.77071 18.9995 9.43509L12.6135 18.3011C11.9789 19.199 11.0589 19.8557 10.0035 20.1641L8.33649 20.6491C8.09153 20.7183 7.83804 20.7526 7.58349 20.7511ZM14.7635 4.75109C14.5103 4.74992 14.2604 4.80886 14.0344 4.92308C13.8084 5.03729 13.6127 5.20352 13.4635 5.40809L7.00749 14.3631C6.60808 14.9357 6.39824 15.619 6.40749 16.3171L6.42349 18.0921C6.42506 18.273 6.46862 18.4511 6.55073 18.6124C6.63284 18.7736 6.75126 18.9136 6.89667 19.0213C7.04208 19.129 7.21051 19.2015 7.38869 19.233C7.56688 19.2646 7.74995 19.2543 7.92349 19.2031L9.58949 18.7191C10.319 18.504 10.9543 18.0487 11.3925 17.4271L17.7865 8.56009C17.9109 8.39027 18.0006 8.19757 18.0503 7.99304C18.1001 7.78851 18.1091 7.57616 18.0767 7.36816C18.0442 7.16017 17.9711 6.96061 17.8614 6.78094C17.7517 6.60126 17.6077 6.44499 17.4375 6.32109L15.7035 5.05709C15.4303 4.85842 15.1013 4.75131 14.7635 4.75109Z" fill="#000000" />
</svg>