<svg width="24px"  height="24px"  viewBox="0 0 25 24" fill="none" xmlns="http://www.w3.org/2000/svg">
<path d="M13.5336 10.467C13.3964 10.4672 13.2616 10.4298 13.1442 10.3586C13.0268 10.2875 12.9312 10.1855 12.8678 10.0637C12.8044 9.94193 12.7757 9.80506 12.7849 9.66808C12.794 9.5311 12.8406 9.39926 12.9196 9.28698L14.4606 7.08698C14.5775 6.93128 14.7503 6.8271 14.9425 6.79646C15.1347 6.76582 15.3313 6.81112 15.4908 6.92278C15.6502 7.03445 15.76 7.20373 15.7969 7.39485C15.8338 7.58597 15.795 7.78396 15.6886 7.94698L14.1476 10.147C14.0787 10.2459 13.9868 10.3266 13.8799 10.3823C13.773 10.438 13.6542 10.4671 13.5336 10.467Z" fill="#000000" />
<path d="M7.48157 20.6513C7.02971 20.6775 6.58009 20.5704 6.18857 20.3433C5.23157 19.6923 5.03657 17.5293 5.00557 16.2993C4.97864 15.2609 5.2784 14.2402 5.86257 13.3813L11.7266 4.9813C12.0471 4.52106 12.4551 4.12851 12.9274 3.82608C13.3998 3.52364 13.927 3.31726 14.4791 3.21873C15.0313 3.1202 15.5974 3.13145 16.1451 3.25183C16.6929 3.37222 17.2116 3.59939 17.6715 3.92034C18.1314 4.2413 18.5236 4.64975 18.8255 5.12236C19.1275 5.59496 19.3334 6.12244 19.4313 6.67465C19.5293 7.22686 19.5175 7.79297 19.3966 8.34061C19.2757 8.88826 19.048 9.4067 18.7266 9.8663L12.9206 18.1833C12.2847 19.1119 11.3537 19.7984 10.2786 20.1313C9.37496 20.4339 8.43355 20.6089 7.48157 20.6513ZM15.2316 4.6533C15.068 4.65326 14.9047 4.66765 14.7436 4.6963C14.385 4.75861 14.0423 4.89157 13.7356 5.08745C13.4288 5.28332 13.164 5.53821 12.9566 5.8373L7.09858 14.2373C6.6931 14.8347 6.48566 15.5445 6.50557 16.2663C6.45146 17.2458 6.63608 18.2239 7.04357 19.1163C7.9941 19.1974 8.95045 19.0557 9.83657 18.7023C10.5894 18.4692 11.2411 17.9881 11.6856 17.3373L17.4966 9.0033C17.7858 8.5886 17.956 8.10262 17.9886 7.59808C18.0213 7.09353 17.9151 6.58968 17.6818 6.14117C17.4484 5.69265 17.0966 5.31659 16.6647 5.05378C16.2328 4.79097 15.7372 4.65143 15.2316 4.6503V4.6533Z" fill="#000000" />
</svg>