<svg width="24px"  height="24px"  viewBox="0 0 25 24" fill="none" xmlns="http://www.w3.org/2000/svg">
<path d="M12.9719 15.3755C12.2226 15.3766 11.4891 15.1595 10.861 14.7508C10.233 14.342 9.73745 13.7593 9.43495 13.0737C9.13245 12.3881 9.03603 11.6293 9.15748 10.8899C9.27894 10.1504 9.61306 9.46229 10.119 8.90949L15.596 3.24549C16.1332 2.66866 16.8689 2.31657 17.6552 2.26C18.4414 2.20343 19.2199 2.44657 19.8342 2.94055C20.4485 3.43452 20.8531 4.14272 20.9666 4.92278C21.0801 5.70285 20.894 6.49697 20.4459 7.1455L16.1459 13.7005C15.8438 14.1383 15.4549 14.5093 15.0033 14.7904C14.5517 15.0715 14.0471 15.2567 13.5209 15.3345C13.3391 15.361 13.1557 15.3747 12.9719 15.3755ZM17.8859 3.7485C17.6604 3.74796 17.4373 3.79436 17.2307 3.88474C17.0241 3.97513 16.8386 4.10751 16.6859 4.27349L11.211 9.9365C10.9946 10.1761 10.8297 10.4575 10.7265 10.7634C10.6232 11.0692 10.5838 11.393 10.6105 11.7147C10.6373 12.0363 10.7298 12.3491 10.8823 12.6337C11.0347 12.9182 11.2439 13.1685 11.4969 13.369C11.7499 13.5695 12.0413 13.716 12.3531 13.7994C12.6649 13.8829 12.9906 13.9015 13.3099 13.8541C13.6292 13.8067 13.9354 13.6944 14.2096 13.524C14.4838 13.3536 14.7201 13.1288 14.9039 12.8635L19.2039 6.3085C19.4427 5.97045 19.5438 5.55421 19.4868 5.1443C19.4298 4.73439 19.2189 4.36155 18.8969 4.10149C18.61 3.87206 18.2533 3.74752 17.8859 3.7485Z" fill="#000000" />
<path d="M16.299 12.8575C16.1286 12.8575 15.9633 12.7997 15.83 12.6935L13.312 10.6805C13.1641 10.5537 13.0713 10.3745 13.0531 10.1805C13.0349 9.98659 13.0928 9.79318 13.2145 9.64111C13.3362 9.48903 13.5122 9.3902 13.7054 9.36546C13.8986 9.34072 14.0939 9.39201 14.25 9.50851L16.768 11.5215C16.8895 11.6186 16.9779 11.751 17.0208 11.9005C17.0637 12.05 17.0591 12.2092 17.0076 12.3559C16.956 12.5027 16.8602 12.6298 16.7332 12.7197C16.6063 12.8095 16.4545 12.8577 16.299 12.8575Z" fill="#000000" />
<path d="M4.73804 21.7473C4.54978 21.7467 4.36413 21.7032 4.19513 21.6203C4.02613 21.5373 3.8782 21.417 3.76257 21.2684C3.64695 21.1199 3.56668 20.9469 3.52777 20.7627C3.48887 20.5785 3.49236 20.3879 3.53803 20.2053L4.73804 15.4673C4.90861 14.7939 5.24535 14.174 5.71747 13.6644C6.18959 13.1549 6.78199 12.7719 7.44043 12.5505C8.09888 12.3291 8.80232 12.2765 9.48639 12.3973C10.1705 12.5182 10.8133 12.8087 11.356 13.2423C12.1317 13.808 12.7169 14.5965 13.0338 15.5028C13.3507 16.4091 13.3843 17.3904 13.1301 18.3163C12.8454 19.0886 12.3196 19.7488 11.6306 20.1991C10.9415 20.6493 10.1257 20.8657 9.30402 20.8163C6.08502 20.9053 5.34705 21.5053 5.33905 21.5113C5.28602 21.5824 5.21701 21.64 5.13764 21.6796C5.05826 21.7192 4.97072 21.7397 4.88202 21.7393C4.83421 21.7446 4.78615 21.7473 4.73804 21.7473ZM8.76001 13.8323C8.17011 13.8328 7.59721 14.0297 7.13153 14.3918C6.66585 14.7539 6.33392 15.2607 6.18805 15.8323L5.15003 19.9323C6.47625 19.5046 7.86374 19.2979 9.25702 19.3203C9.7695 19.37 10.2844 19.2529 10.7249 18.9864C11.1655 18.7199 11.5082 18.3183 11.702 17.8413C11.8517 17.2068 11.8089 16.5421 11.5792 15.9321C11.3494 15.3221 10.9431 14.7943 10.412 14.4163C9.94397 14.0391 9.36112 13.8331 8.76001 13.8323Z" fill="#000000" />
</svg>