<svg width="24px"  height="24px"  viewBox="0 0 25 24" fill="none" xmlns="http://www.w3.org/2000/svg">
<path d="M6.32397 20.7024C5.81413 20.7007 5.31903 20.5311 4.91522 20.2199C4.51141 19.9086 4.22138 19.473 4.08997 18.9804C3.81926 17.9585 3.78142 16.8889 3.97925 15.8504C4.17707 14.8119 4.60552 13.8311 5.23297 12.9804L11.148 4.93036C11.4641 4.4937 11.8634 4.12391 12.323 3.84227C12.7827 3.56063 13.2935 3.37273 13.826 3.28938C14.3586 3.20603 14.9024 3.22888 15.4261 3.35661C15.9498 3.48435 16.443 3.71445 16.8774 4.03365C17.3118 4.35285 17.6787 4.75485 17.957 5.21648C18.2354 5.67812 18.4196 6.19026 18.4991 6.72341C18.5786 7.25656 18.5519 7.80018 18.4204 8.32294C18.2889 8.8457 18.0553 9.33728 17.733 9.76936L11.818 17.8114C11.193 18.6648 10.3845 19.3671 9.452 19.8664C8.51947 20.3658 7.48671 20.6494 6.42996 20.6964C6.39396 20.7024 6.35897 20.7024 6.32397 20.7024ZM14.445 4.76236C14.039 4.76097 13.6385 4.85522 13.2757 5.03747C12.9129 5.21971 12.5982 5.48483 12.357 5.81136L6.44199 13.8604C5.94698 14.5316 5.60911 15.3056 5.45334 16.125C5.29756 16.9443 5.32783 17.7883 5.54196 18.5944C5.59556 18.7691 5.70413 18.9219 5.8515 19.03C5.99888 19.1381 6.17722 19.1957 6.35999 19.1944C7.19352 19.1575 8.00815 18.934 8.74374 18.5403C9.47933 18.1465 10.1171 17.5926 10.61 16.9194L16.525 8.86936C16.8087 8.4848 16.9802 8.02904 17.0202 7.55282C17.0603 7.07659 16.9674 6.59859 16.7519 6.17203C16.5364 5.74547 16.2067 5.38709 15.7996 5.1368C15.3925 4.8865 14.9239 4.75411 14.446 4.75436L14.445 4.76236Z" fill="#000000" />
<path d="M19.8959 20.7598H13.71C13.511 20.7598 13.3203 20.6807 13.1796 20.5401C13.039 20.3994 12.96 20.2087 12.96 20.0098C12.96 19.8109 13.039 19.6201 13.1796 19.4794C13.3203 19.3388 13.511 19.2598 13.71 19.2598H19.8959C20.0948 19.2598 20.2856 19.3388 20.4263 19.4794C20.5669 19.6201 20.6459 19.8109 20.6459 20.0098C20.6459 20.2087 20.5669 20.3994 20.4263 20.5401C20.2856 20.6807 20.0948 20.7598 19.8959 20.7598Z" fill="#000000" />
</svg>