<svg width="24px"  height="24px"  viewBox="0 0 25 24" fill="none" xmlns="http://www.w3.org/2000/svg">
<path d="M19.7344 20.459H13.6924C13.4935 20.459 13.3027 20.38 13.162 20.2393C13.0214 20.0987 12.9424 19.9079 12.9424 19.709C12.9424 19.5101 13.0214 19.3193 13.162 19.1787C13.3027 19.038 13.4935 18.959 13.6924 18.959H19.7344C19.9333 18.959 20.1241 19.038 20.2647 19.1787C20.4054 19.3193 20.4844 19.5101 20.4844 19.709C20.4844 19.9079 20.4054 20.0987 20.2647 20.2393C20.1241 20.38 19.9333 20.459 19.7344 20.459Z" fill="#000000" />
<path d="M6.69388 20.6527C5.99162 20.6504 5.31857 20.3715 4.8205 19.8764C4.32243 19.3813 4.03947 18.71 4.0329 18.0077L4.01688 16.2317C4.006 15.2173 4.31458 14.2251 4.8989 13.3957L11.3629 4.42974C11.8475 3.7653 12.5758 3.32023 13.3882 3.19218C14.2005 3.06413 15.0304 3.26357 15.6959 3.74674L17.4309 5.01074C18.0952 5.49504 18.54 6.22341 18.6673 7.03562C18.7947 7.84783 18.5942 8.67736 18.1099 9.34174L11.7239 18.2027C11.0884 19.1003 10.1683 19.7568 9.11289 20.0657L7.4459 20.5507C7.20128 20.62 6.9481 20.6543 6.69388 20.6527ZM13.8739 4.65274C13.6207 4.65205 13.371 4.7112 13.1451 4.82538C12.9192 4.93956 12.7235 5.10552 12.5739 5.30974L6.11789 14.2647C5.71861 14.8374 5.50877 15.5207 5.51789 16.2187L5.53388 17.9937C5.53547 18.1742 5.57885 18.3518 5.66062 18.5127C5.74238 18.6736 5.86032 18.8133 6.00516 18.9209C6.15 19.0286 6.31781 19.1012 6.49543 19.1331C6.67304 19.165 6.85566 19.1553 7.0289 19.1047L8.69489 18.6207C9.4262 18.4061 10.0634 17.9504 10.5029 17.3277L16.8969 8.46174C17.0214 8.2921 17.1113 8.09955 17.1613 7.89513C17.2113 7.69071 17.2206 7.47843 17.1884 7.27045C17.1563 7.06247 17.0834 6.86287 16.974 6.68308C16.8646 6.5033 16.7208 6.34686 16.5509 6.22274L14.8169 4.95874C14.5429 4.75947 14.2127 4.65232 13.8739 4.65274Z" fill="#000000" />
<path d="M16.1234 11.591C15.964 11.5913 15.8087 11.5405 15.6804 11.446L10.1584 7.38804C9.99807 7.27015 9.89113 7.0934 9.86112 6.89668C9.83111 6.69995 9.8805 6.49936 9.99839 6.33904C10.1163 6.17872 10.293 6.07179 10.4898 6.04178C10.6865 6.01178 10.887 6.06115 11.0474 6.17904L16.5684 10.237C16.6963 10.3304 16.7913 10.4618 16.8398 10.6126C16.8883 10.7633 16.8878 10.9255 16.8384 11.0759C16.7889 11.2263 16.6931 11.3572 16.5647 11.4498C16.4362 11.5423 16.2817 11.5918 16.1234 11.591Z" fill="#000000" />
</svg>