<svg width="24px"  height="24px"  viewBox="0 0 25 24" fill="none" xmlns="http://www.w3.org/2000/svg">
<path fill-rule="evenodd" clip-rule="evenodd" d="M12.25 3.75C7.69329 3.75 4 7.44329 4 12C4 16.5558 7.69335 20.25 12.25 20.25C16.8067 20.25 20.5 16.5558 20.5 12C20.5 7.44329 16.8067 3.75 12.25 3.75ZM2.5 12C2.5 6.61487 6.86487 2.25 12.25 2.25C17.6351 2.25 22 6.61487 22 12C22 17.3841 17.6352 21.75 12.25 21.75C6.86481 21.75 2.5 17.3841 2.5 12Z" fill="#000000" />
<path fill-rule="evenodd" clip-rule="evenodd" d="M13.6793 8.58314L9.3694 13.2867C9.14422 13.5404 9.00436 13.8559 8.96787 14.1916C8.96786 14.1917 8.96788 14.1915 8.96787 14.1916L8.85783 15.2141C8.83207 15.45 9.03944 15.6457 9.27329 15.6064L10.2636 15.441C10.2638 15.441 10.2635 15.441 10.2636 15.441C10.628 15.3796 10.9606 15.1964 11.2072 14.9212L11.2128 14.915L15.4802 10.2574L15.4829 10.2545C15.7113 10.0078 15.6965 9.62233 15.4499 9.39392L14.5392 8.55132C14.2936 8.32349 13.9085 8.33687 13.6793 8.58314ZM15.5584 7.4507C14.703 6.65751 13.3682 6.71127 12.5776 7.56524L12.575 7.56806L8.25984 12.2773L8.25322 12.2846C7.8186 12.7716 7.54701 13.3809 7.47658 14.0302L7.36669 15.0513C7.36672 15.0511 7.36667 15.0515 7.36669 15.0513C7.23336 16.2765 8.30812 17.2895 9.52182 17.0856L10.5116 16.9203C11.2101 16.8029 11.8483 16.452 12.3214 15.9255L16.5836 11.2736C16.5841 11.273 16.5846 11.2725 16.5851 11.272C17.3747 10.4173 17.323 9.08383 16.4688 8.29304L15.5584 7.4507C15.5583 7.45063 15.5585 7.45078 15.5584 7.4507Z" fill="#000000" />
</svg>