<svg width="24px"  height="24px"  viewBox="0 0 25 24" fill="none" xmlns="http://www.w3.org/2000/svg">
<path d="M16.467 21.998H8.03302C4.72402 21.998 2.5 19.677 2.5 16.222V8.27405C2.5 4.81905 4.72402 2.49805 8.03302 2.49805H11.604C11.8029 2.49805 11.9937 2.57706 12.1343 2.71771C12.275 2.85836 12.354 3.04913 12.354 3.24805C12.354 3.44696 12.275 3.63773 12.1343 3.77838C11.9937 3.91903 11.8029 3.99805 11.604 3.99805H8.03302C5.58302 3.99805 4 5.67605 4 8.27405V16.222C4 18.822 5.58302 20.498 8.03302 20.498H16.467C18.917 20.498 20.5 18.82 20.5 16.222V13.1391C20.5 12.9401 20.579 12.7494 20.7197 12.6087C20.8603 12.4681 21.0511 12.3891 21.25 12.3891C21.4489 12.3891 21.6397 12.4681 21.7803 12.6087C21.921 12.7494 22 12.9401 22 13.1391V16.222C22 19.677 19.776 21.998 16.467 21.998Z" fill="#000000" />
<path d="M9.10323 17.3707C8.93357 17.3707 8.76616 17.332 8.61373 17.2575C8.4613 17.183 8.32784 17.0747 8.22359 16.9408C8.11934 16.807 8.047 16.6511 8.01211 16.485C7.97721 16.319 7.9807 16.1472 8.02224 15.9827L8.91122 12.4647C9.04592 11.9333 9.31173 11.4442 9.68435 11.0421C10.057 10.64 10.5245 10.3378 11.0441 10.1631C11.5637 9.98839 12.1189 9.9468 12.6587 10.0421C13.1986 10.1374 13.7059 10.3666 14.1342 10.7087C14.7413 11.1534 15.1986 11.7724 15.4453 12.4834C15.692 13.1943 15.7163 13.9635 15.5152 14.6887C15.2877 15.298 14.8725 15.8193 14.3296 16.1773C13.7866 16.5353 13.1439 16.7116 12.4942 16.6807C11.5311 16.6138 10.5657 16.7734 9.67525 17.1467C9.55475 17.2689 9.39583 17.3459 9.22524 17.3647C9.18424 17.3687 9.14923 17.3707 9.10323 17.3707ZM12.0992 11.4887C11.9024 11.4906 11.7072 11.5244 11.5212 11.5887C11.2383 11.681 10.9837 11.8442 10.7815 12.0626C10.5794 12.281 10.4364 12.5475 10.3662 12.8367L9.68423 15.5367C10.5888 15.3035 11.5191 15.1856 12.4532 15.1857C12.7943 15.2213 13.1379 15.1463 13.4331 14.9719C13.7284 14.7974 13.9598 14.5327 14.0932 14.2167C14.1914 13.7826 14.1583 13.329 13.998 12.9138C13.8377 12.4985 13.5576 12.1403 13.1932 11.8847C12.8843 11.6319 12.4983 11.4922 12.0992 11.4887Z" fill="#000000" />
<path d="M15.2266 12.6384C14.6323 12.6395 14.0506 12.4675 13.5524 12.1435C13.0542 11.8196 12.6611 11.3576 12.421 10.8139C12.181 10.2703 12.1043 9.66857 12.2005 9.08213C12.2967 8.4957 12.5614 7.94993 12.9625 7.51144L17.0355 3.29844C17.4671 2.83701 18.0566 2.55505 18.6866 2.50872C19.3167 2.46239 19.9412 2.6551 20.4355 3.04844C20.9328 3.44609 21.2606 4.01774 21.3525 4.64781C21.4444 5.27787 21.2935 5.91932 20.9305 6.44244L17.7416 11.3084C17.4613 11.718 17.0854 12.0532 16.6465 12.2849C16.2076 12.5166 15.7188 12.638 15.2225 12.6384H15.2266ZM18.8735 3.99945C18.7334 3.99907 18.5948 4.02796 18.4665 4.08427C18.3382 4.14058 18.2231 4.22306 18.1285 4.32644L14.0555 8.53944C13.9141 8.69841 13.8066 8.88461 13.7398 9.08662C13.673 9.28863 13.6482 9.50217 13.6669 9.71412C13.6856 9.92608 13.7473 10.132 13.8485 10.3192C13.9497 10.5064 14.0881 10.6709 14.2551 10.8027C14.4222 10.9344 14.6144 11.0307 14.82 11.0854C15.0256 11.1402 15.2403 11.1523 15.4507 11.1211C15.6612 11.0899 15.8631 11.016 16.044 10.9039C16.2249 10.7919 16.3809 10.644 16.5026 10.4694L19.6915 5.60244C19.8428 5.39196 19.9076 5.13155 19.8729 4.87472C19.8381 4.61789 19.7063 4.38413 19.5046 4.22145C19.3257 4.07764 19.103 3.9993 18.8735 3.99945Z" fill="#000000" />
<path d="M17.694 10.7684C17.5239 10.7685 17.3588 10.7106 17.226 10.6044L15.354 9.10435C15.2061 8.97757 15.1133 8.7983 15.0951 8.60437C15.0769 8.41043 15.1348 8.21701 15.2565 8.06494C15.3782 7.91286 15.5542 7.81403 15.7474 7.78929C15.9406 7.76455 16.1359 7.81585 16.292 7.93235L18.163 9.43235C18.2845 9.52943 18.3729 9.66188 18.4158 9.81138C18.4587 9.96088 18.4541 10.12 18.4026 10.2668C18.3511 10.4135 18.2552 10.5406 18.1282 10.6305C18.0013 10.7204 17.8496 10.7685 17.694 10.7684Z" fill="#000000" />
</svg>