<svg width="24px"  height="24px"  viewBox="0 0 25 24" fill="none" xmlns="http://www.w3.org/2000/svg">
<path fill-rule="evenodd" clip-rule="evenodd" d="M14.9432 3.99903C14.3722 3.57986 13.5709 3.70274 13.1526 4.27179L5.93344 14.0968C5.81374 14.2594 5.77323 14.4689 5.82458 14.6647C5.82461 14.6648 5.82456 14.6646 5.82458 14.6647L6.35401 16.6765C6.43461 16.9834 6.7173 17.1916 7.03442 17.177L9.11213 17.0807C9.31543 17.0712 9.50187 16.9711 9.62162 16.808L16.842 6.98384C17.2609 6.41332 17.1389 5.61302 16.5694 5.19331C16.5692 5.19316 16.5696 5.19345 16.5694 5.19331L14.9432 3.99903C14.9432 3.99905 14.9431 3.99901 14.9432 3.99903ZM11.944 3.3834C12.8535 2.14608 14.5934 1.8814 15.831 2.78997L17.4574 3.98441C18.6939 4.89474 18.9599 6.63375 18.0511 7.87156L10.8309 17.6955C10.8308 17.6956 10.831 17.6954 10.8309 17.6955C10.4424 18.2246 9.83663 18.5484 9.18242 18.5791L7.10348 18.6754C6.08021 18.7223 5.16388 18.0494 4.9034 17.0583C4.90337 17.0581 4.90343 17.0584 4.9034 17.0583L4.37397 15.0464C4.20731 14.4121 4.33658 13.7358 4.72507 13.2081L11.944 3.3834Z" fill="#000000" />
<path fill-rule="evenodd" clip-rule="evenodd" d="M3.56641 21C3.56641 20.5858 3.90219 20.25 4.31641 20.25H20.1823C20.5965 20.25 20.9323 20.5858 20.9323 21C20.9323 21.4142 20.5965 21.75 20.1823 21.75H4.31641C3.90219 21.75 3.56641 21.4142 3.56641 21Z" fill="#000000" />
</svg>