<svg width="24px"  height="24px"  viewBox="0 0 25 24" fill="none" xmlns="http://www.w3.org/2000/svg">
<path d="M14.8724 8.27609H9.42243C8.90139 8.27406 8.39492 8.10378 7.97849 7.7906C7.56207 7.47743 7.25795 7.03812 7.11143 6.5381L6.74442 5.25809C6.6518 4.93595 6.63527 4.59671 6.69614 4.26709C6.75702 3.93747 6.89364 3.62649 7.09522 3.35869C7.2968 3.09088 7.55782 2.87357 7.85773 2.72388C8.15764 2.57418 8.48824 2.49621 8.82343 2.49609H15.4714C15.8067 2.49611 16.1374 2.57408 16.4374 2.72383C16.7374 2.87359 16.9985 3.09103 17.2 3.35899C17.4015 3.62696 17.538 3.93811 17.5986 4.26787C17.6593 4.59763 17.6424 4.93696 17.5494 5.25909L17.1834 6.53709C17.0372 7.03738 16.7332 7.47701 16.3167 7.79041C15.9003 8.1038 15.3936 8.27416 14.8724 8.27609ZM8.82343 3.99609C8.72053 3.99604 8.61902 4.01994 8.52695 4.0659C8.43489 4.11186 8.35478 4.17862 8.29298 4.26089C8.23117 4.34317 8.18937 4.43869 8.17088 4.53992C8.15238 4.64114 8.1577 4.74529 8.18641 4.8441L8.55341 6.12309C8.60857 6.31103 8.72297 6.47613 8.87955 6.5938C9.03614 6.71146 9.22656 6.7754 9.42243 6.77609H14.8724C15.0687 6.77533 15.2594 6.71114 15.4162 6.59309C15.573 6.47505 15.6874 6.30949 15.7424 6.12109L16.1084 4.84509C16.1369 4.74624 16.142 4.64212 16.1235 4.54094C16.1049 4.43976 16.0631 4.34428 16.0013 4.26199C15.9396 4.17971 15.8596 4.11286 15.7676 4.06673C15.6757 4.02059 15.5743 3.99641 15.4714 3.99609H8.82343Z" fill="#000000" />
<path d="M12.149 21.989C11.8543 21.9918 11.5643 21.916 11.3087 21.7694C11.0531 21.6228 10.8413 21.4108 10.6949 21.155C9.2194 18.8158 7.44136 16.6817 5.40695 14.808C5.11491 14.5321 4.93235 14.16 4.89285 13.7602C4.85334 13.3604 4.95955 12.9597 5.19195 12.632L9.16393 7.08702C9.2797 6.92524 9.45501 6.81608 9.65127 6.78354C9.84753 6.751 10.0487 6.79776 10.2104 6.91353C10.3722 7.0293 10.4814 7.20459 10.5139 7.40085C10.5465 7.59711 10.4997 7.79824 10.3839 7.96002L6.41793 13.497C6.39341 13.5298 6.38189 13.5706 6.38558 13.6114C6.38928 13.6522 6.40794 13.6901 6.43795 13.718C8.57957 15.6955 10.4492 17.9485 11.9979 20.418C12.0132 20.4439 12.0355 20.4648 12.0623 20.4783C12.089 20.4917 12.1191 20.4972 12.149 20.494C12.1782 20.496 12.2074 20.4893 12.233 20.475C12.2586 20.4606 12.2794 20.4391 12.2929 20.413C13.848 17.948 15.7207 15.6983 17.8629 13.722C17.8892 13.6896 17.9035 13.6492 17.9035 13.6075C17.9035 13.5658 17.8892 13.5254 17.8629 13.493L13.904 7.96503C13.8466 7.88505 13.8056 7.79457 13.7833 7.69875C13.7609 7.60292 13.7577 7.50364 13.7737 7.40656C13.7897 7.30947 13.8247 7.21649 13.8766 7.13292C13.9286 7.04936 13.9965 6.97685 14.0764 6.91953C14.1564 6.86221 14.2469 6.8212 14.3427 6.79885C14.4386 6.77649 14.5378 6.77323 14.6349 6.78925C14.732 6.80527 14.825 6.84025 14.9085 6.8922C14.9921 6.94415 15.0646 7.01205 15.1219 7.09203L19.0879 12.629C19.32 12.955 19.4283 13.3529 19.3935 13.7515C19.3587 14.1501 19.183 14.5233 18.8979 14.804C16.8617 16.681 15.0799 18.8165 13.598 21.156C13.4523 21.4112 13.2413 21.6229 12.9866 21.7693C12.7319 21.9157 12.4427 21.9916 12.149 21.989Z" fill="#000000" />
<path d="M12.1453 15.5465C11.7102 15.5465 11.2848 15.4175 10.923 15.1757C10.5613 14.934 10.2793 14.5904 10.1128 14.1884C9.94626 13.7864 9.9027 13.344 9.98759 12.9173C10.0725 12.4905 10.282 12.0985 10.5897 11.7909C10.8973 11.4832 11.2893 11.2736 11.7161 11.1888C12.1429 11.1039 12.5852 11.1474 12.9872 11.3139C13.3892 11.4805 13.7328 11.7624 13.9745 12.1242C14.2163 12.486 14.3453 12.9114 14.3453 13.3465C14.3453 13.93 14.1135 14.4895 13.7009 14.9021C13.2884 15.3147 12.7288 15.5465 12.1453 15.5465ZM12.1453 12.6465C12.0069 12.6465 11.8715 12.6875 11.7564 12.7645C11.6413 12.8414 11.5516 12.9507 11.4986 13.0786C11.4456 13.2065 11.4317 13.3473 11.4587 13.483C11.4858 13.6188 11.5524 13.7436 11.6503 13.8415C11.7482 13.9394 11.873 14.006 12.0087 14.033C12.1445 14.06 12.2853 14.0462 12.4132 13.9932C12.5411 13.9402 12.6504 13.8505 12.7273 13.7354C12.8043 13.6203 12.8453 13.4849 12.8453 13.3465C12.8453 13.1608 12.7715 12.9828 12.6403 12.8515C12.509 12.7202 12.331 12.6465 12.1453 12.6465Z" fill="#000000" />
<path d="M12.1445 21.9949C11.9456 21.9949 11.7548 21.9159 11.6142 21.7753C11.4735 21.6346 11.3945 21.4438 11.3945 21.2449V14.7949C11.3945 14.596 11.4735 14.4053 11.6142 14.2646C11.7548 14.124 11.9456 14.0449 12.1445 14.0449C12.3434 14.0449 12.5342 14.124 12.6749 14.2646C12.8155 14.4053 12.8945 14.596 12.8945 14.7949V21.2459C12.8943 21.4447 12.8151 21.6352 12.6745 21.7756C12.5339 21.916 12.3433 21.9949 12.1445 21.9949Z" fill="#000000" />
</svg>