<svg width="24px"  height="24px"  viewBox="0 0 25 24" fill="none" xmlns="http://www.w3.org/2000/svg">
<path d="M19.7344 20.459H13.6924C13.4935 20.459 13.3027 20.38 13.162 20.2393C13.0214 20.0987 12.9424 19.9079 12.9424 19.709C12.9424 19.5101 13.0214 19.3193 13.162 19.1787C13.3027 19.038 13.4935 18.959 13.6924 18.959H19.7344C19.9333 18.959 20.1241 19.038 20.2647 19.1787C20.4054 19.3193 20.4844 19.5101 20.4844 19.709C20.4844 19.9079 20.4054 20.0987 20.2647 20.2393C20.1241 20.38 19.9333 20.459 19.7344 20.459Z" fill="#000000" />
<path d="M6.69389 20.6523C5.99179 20.6494 5.31905 20.3703 4.82109 19.8754C4.32313 19.3804 4.04 18.7093 4.03291 18.0073L4.01689 16.2313C4.0058 15.2168 4.31441 14.2245 4.89891 13.3953L11.3639 4.42928C11.6034 4.09988 11.9055 3.8209 12.2529 3.60829C12.6002 3.39568 12.9861 3.2536 13.3884 3.19017C13.7907 3.12674 14.2015 3.14321 14.5975 3.23863C14.9934 3.33405 15.3667 3.50655 15.6959 3.74628L17.4309 5.01028C18.0952 5.49458 18.54 6.22295 18.6673 7.03516C18.7947 7.84737 18.5942 8.6769 18.1099 9.34128L11.7239 18.2023C11.0888 19.1002 10.1686 19.7568 9.1129 20.0653L7.44591 20.5503C7.20129 20.6195 6.94811 20.6538 6.69389 20.6523ZM13.8729 4.65228C13.6197 4.6511 13.3698 4.71005 13.1438 4.82426C12.9178 4.93848 12.7221 5.10471 12.5729 5.30928L6.1169 14.2643C5.71578 14.8363 5.50416 15.5197 5.51189 16.2183L5.52791 17.9933C5.52954 18.1736 5.57291 18.3511 5.65462 18.5119C5.73633 18.6727 5.85417 18.8123 5.99888 18.92C6.1436 19.0276 6.31126 19.1002 6.48875 19.1322C6.66624 19.1642 6.84872 19.1546 7.0219 19.1043L8.68791 18.6203C9.41965 18.406 10.0573 17.9502 10.4969 17.3273L16.8909 8.46128C17.0158 8.292 17.106 8.09977 17.1565 7.89558C17.207 7.69138 17.2167 7.47924 17.1852 7.27128C17.1536 7.06331 17.0813 6.86362 16.9725 6.68362C16.8637 6.50362 16.7204 6.34685 16.5509 6.22228L14.8169 4.95828C14.5426 4.75881 14.2121 4.65165 13.8729 4.65228Z" fill="#000000" />
</svg>