<svg width="24px"  height="24px"  viewBox="0 0 25 24" fill="none" xmlns="http://www.w3.org/2000/svg">
<path fill-rule="evenodd" clip-rule="evenodd" d="M3.99312 3.89756C4.97691 2.84137 6.37794 2.25 8.03206 2.25H11.6091C12.0233 2.25 12.3591 2.58579 12.3591 3C12.3591 3.41421 12.0233 3.75 11.6091 3.75H8.03206C6.75004 3.75 5.76199 4.19927 5.09074 4.91993C4.414 5.64648 4.00391 6.70936 4.00391 8.02615V15.9729C4.00391 17.2912 4.4124 18.3542 5.08783 19.0804C5.75756 19.8004 6.74517 20.25 8.03206 20.25H16.467C17.7555 20.25 18.7433 19.8003 19.4128 19.0804C20.088 18.3543 20.4961 17.2914 20.4961 15.9729V12.3919C20.4961 11.9777 20.8319 11.6419 21.2461 11.6419C21.6603 11.6419 21.9961 11.9777 21.9961 12.3919V15.9729C21.9961 17.6003 21.4886 19.0509 20.5112 20.1019C19.5281 21.1591 18.1263 21.75 16.467 21.75H8.03206C6.37405 21.75 4.97259 21.1589 3.98947 20.1019C3.01204 19.051 2.50391 17.6005 2.50391 15.9729V8.02615C2.50391 6.39805 3.01482 4.94786 3.99312 3.89756Z" fill="#000000" />
<path fill-rule="evenodd" clip-rule="evenodd" d="M17.4779 4.41671L11.947 10.4538C11.6292 10.8109 11.4306 11.2584 11.3786 11.735C11.3786 11.735 11.3786 11.7349 11.3786 11.735L11.2367 13.0443C11.1888 13.488 11.5777 13.8547 12.0174 13.7813C12.0175 13.7812 12.0173 13.7813 12.0174 13.7813L13.2872 13.5683C13.8024 13.4817 14.2724 13.2227 14.6197 12.8344L14.6257 12.8277L20.1012 6.85236L20.1038 6.84956C20.4768 6.44663 20.4526 5.81826 20.0494 5.44499L18.8817 4.36388C18.8817 4.36384 18.8818 4.36392 18.8817 4.36388C18.4788 3.99159 17.8501 4.01594 17.4779 4.41671ZM16.376 3.39898C17.311 2.38879 18.8891 2.32805 19.8999 3.26238L21.0684 4.34423C21.0684 4.34425 21.0683 4.34422 21.0684 4.34423C22.0786 5.27952 22.1405 6.85572 21.206 7.86693C21.2055 7.86747 21.205 7.86801 21.2045 7.86855L15.7346 13.8379C15.1602 14.4786 14.3846 14.9049 13.5359 15.0476L12.2655 15.2606C10.8457 15.4982 9.59091 14.3148 9.74532 12.8834L9.88736 11.573C9.97332 10.7849 10.3028 10.0428 10.8313 9.45121L10.8376 9.44423L16.3734 3.4018L16.376 3.39898Z" fill="#000000" />
</svg>