<svg width="24px"  height="24px"  viewBox="0 0 25 24" fill="none" xmlns="http://www.w3.org/2000/svg">
<path d="M5.86133 18.2105C5.61972 18.2099 5.3815 18.1538 5.16504 18.0465C4.94858 17.9391 4.7597 17.7835 4.61298 17.5915C4.46626 17.3996 4.3656 17.1764 4.31885 16.9394C4.2721 16.7024 4.28047 16.4578 4.34332 16.2245C4.88318 13.8181 5.1064 11.3516 5.00733 8.88746C4.99989 8.5095 5.12851 8.14143 5.36969 7.85032C5.61087 7.55922 5.94859 7.36444 6.32135 7.30147L12.3903 6.29646C12.5861 6.26526 12.7862 6.31283 12.947 6.42875C13.1078 6.54468 13.2162 6.71953 13.2484 6.91511C13.2807 7.11069 13.2341 7.31108 13.1191 7.47249C13.004 7.63389 12.8297 7.74318 12.6343 7.77647L6.56537 8.77647C6.61744 11.4129 6.35695 14.0463 5.78937 16.6215L5.87238 16.7035C8.42119 16.119 11.0366 15.8775 13.6494 15.9855L14.7233 9.86047C14.7616 9.66953 14.8727 9.50093 15.0329 9.39026C15.1931 9.27958 15.3901 9.23549 15.5822 9.26727C15.7744 9.29906 15.9467 9.40424 16.0627 9.56062C16.1788 9.717 16.2296 9.91236 16.2043 10.1055L15.1973 16.1735C15.1401 16.5491 14.9466 16.8905 14.6537 17.1325C14.3608 17.3745 13.989 17.5001 13.6094 17.4855C11.1459 17.3871 8.68011 17.6103 6.27435 18.1495C6.14 18.188 6.00109 18.2085 5.86133 18.2105Z" fill="#000000" />
<path d="M14.4539 21.9974C13.5773 22.0152 12.7058 21.8592 11.8898 21.5384C10.5639 21.0431 9.10375 21.0431 7.77783 21.5384C6.96245 21.8602 6.09123 22.0165 5.21484 21.9984C5.01593 21.9984 4.82516 21.9194 4.68451 21.7787C4.54386 21.6381 4.46484 21.4473 4.46484 21.2484C4.46484 21.0495 4.54386 20.8587 4.68451 20.7181C4.82516 20.5774 5.01593 20.4984 5.21484 20.4984C5.91802 20.5168 6.61747 20.3905 7.26984 20.1274C8.92416 19.5141 10.7435 19.5141 12.3978 20.1274C13.7239 20.6221 15.1838 20.6221 16.5098 20.1274C17.3259 19.8057 18.1978 19.6493 19.0748 19.6674C19.2737 19.6674 19.4645 19.7464 19.6052 19.8871C19.7458 20.0277 19.8248 20.2185 19.8248 20.4174C19.8248 20.6163 19.7458 20.8071 19.6052 20.9477C19.4645 21.0884 19.2737 21.1674 19.0748 21.1674C18.371 21.149 17.6709 21.2753 17.0178 21.5384C16.202 21.8598 15.3305 22.0158 14.4539 21.9974Z" fill="#000000" />
<path d="M17.0019 11.4267C16.2613 11.4277 15.5505 11.1346 15.0259 10.6117L11.8869 7.47174C11.4804 7.0638 11.2096 6.54044 11.1114 5.97299C11.0131 5.40553 11.0922 4.82158 11.3379 4.30073L11.9909 2.92674C12.0313 2.83493 12.0896 2.75215 12.1625 2.68328C12.2354 2.61442 12.3214 2.56089 12.4153 2.52583C12.5093 2.49077 12.6093 2.47492 12.7095 2.4792C12.8097 2.48348 12.908 2.50779 12.9986 2.55073C13.0893 2.59367 13.1704 2.65436 13.2372 2.72918C13.3039 2.80401 13.355 2.89146 13.3874 2.98637C13.4197 3.08128 13.4328 3.18172 13.4256 3.28175C13.4185 3.38178 13.3914 3.47937 13.3459 3.56874L12.6939 4.94374C12.5797 5.1845 12.5426 5.45471 12.5879 5.71734C12.6332 5.97997 12.7586 6.22216 12.9469 6.41073L16.0849 9.55073C16.2742 9.73826 16.5165 9.8631 16.7791 9.90835C17.0417 9.9536 17.3118 9.91709 17.5529 9.80374L18.9279 9.15074C19.1077 9.06547 19.3141 9.05513 19.5015 9.12199C19.6889 9.18885 19.8421 9.32743 19.9274 9.50724C20.0127 9.68706 20.023 9.89338 19.9561 10.0808C19.8893 10.2683 19.7507 10.4215 19.5709 10.5067L18.1969 11.1587C17.8233 11.3353 17.4152 11.4269 17.0019 11.4267Z" fill="#000000" />
<path d="M5.2777 17.9708C5.12937 17.9708 4.98432 17.9269 4.86095 17.8446C4.73758 17.7622 4.64142 17.6451 4.58458 17.5081C4.52775 17.3711 4.51282 17.2204 4.54167 17.0749C4.57053 16.9294 4.64187 16.7957 4.74669 16.6908L8.82567 12.6118C8.89433 12.5381 8.97714 12.479 9.06914 12.438C9.16114 12.397 9.26049 12.3749 9.36119 12.3732C9.46189 12.3714 9.56187 12.3899 9.65526 12.4276C9.74865 12.4654 9.83349 12.5215 9.90471 12.5927C9.97593 12.6639 10.0321 12.7488 10.0698 12.8422C10.1075 12.9355 10.126 13.0356 10.1243 13.1363C10.1225 13.237 10.1005 13.3363 10.0595 13.4283C10.0185 13.5203 9.95935 13.6031 9.88567 13.6718L5.80766 17.7508C5.73829 17.8207 5.65573 17.8762 5.56474 17.9139C5.47376 17.9517 5.3762 17.971 5.2777 17.9708Z" fill="#000000" />
<path d="M10.2745 14.2698C9.93778 14.2699 9.6062 14.187 9.30921 14.0284C9.01221 13.8698 8.75897 13.6404 8.57184 13.3605C8.38471 13.0806 8.26951 12.7588 8.23645 12.4237C8.2034 12.0887 8.2535 11.7506 8.38233 11.4395C8.51115 11.1285 8.7147 10.854 8.97498 10.6404C9.23525 10.4268 9.54422 10.2807 9.87445 10.2151C10.2047 10.1494 10.546 10.1663 10.8682 10.2641C11.1903 10.3619 11.4834 10.5376 11.7214 10.7758C12.0071 11.0623 12.2016 11.427 12.2802 11.8239C12.3588 12.2208 12.318 12.6321 12.1631 13.0059C12.0082 13.3796 11.746 13.6991 11.4097 13.9241C11.0734 14.149 10.678 14.2693 10.2734 14.2698H10.2745ZM10.2745 11.6768C10.1662 11.6764 10.0603 11.7082 9.97016 11.7682C9.88003 11.8282 9.80973 11.9136 9.76825 12.0136C9.72677 12.1136 9.71596 12.2237 9.73718 12.3298C9.75841 12.436 9.81072 12.5334 9.88745 12.6098C9.99173 12.7089 10.1301 12.7642 10.2739 12.7642C10.4178 12.7642 10.5562 12.7089 10.6605 12.6098C10.7371 12.5335 10.7894 12.4361 10.8107 12.3301C10.8319 12.224 10.8211 12.114 10.7798 12.0141C10.7384 11.9141 10.6683 11.8287 10.5784 11.7686C10.4884 11.7086 10.3826 11.6766 10.2745 11.6768Z" fill="#000000" />
</svg>