<svg width="24px"  height="24px"  viewBox="0 0 25 24" fill="none" xmlns="http://www.w3.org/2000/svg">
<path fill-rule="evenodd" clip-rule="evenodd" d="M3.99076 3.89729C4.97547 2.84115 6.37768 2.25 8.03313 2.25H16.4678C18.1272 2.25 19.5296 2.84086 20.5134 3.89773C21.4916 4.94853 22 6.39899 22 8.02638V15.9736C22 17.601 21.4916 19.0515 20.5133 20.1023C19.5293 21.1592 18.1266 21.75 16.4669 21.75H8.03313C6.37379 21.75 4.97117 21.1592 3.98714 20.1024C3.00872 19.0516 2.5 17.6011 2.5 15.9736V8.02638C2.5 6.39795 3.01147 4.9476 3.99076 3.89729ZM5.08786 4.9202C4.41042 5.64678 4 6.70962 4 8.02638V15.9736C4 17.2913 4.40879 18.354 5.08492 19.0802C5.75542 19.8003 6.74437 20.25 8.03313 20.25H16.4669C17.7562 20.25 18.7451 19.8002 19.4154 19.0802C20.0914 18.3541 20.5 17.2914 20.5 15.9736V8.02638C20.5 6.70857 20.0914 5.64585 19.4155 4.91976C18.7452 4.19973 17.7566 3.75 16.4678 3.75H8.03313C6.74924 3.75 5.75988 4.19944 5.08786 4.9202Z" fill="#000000" />
<path fill-rule="evenodd" clip-rule="evenodd" d="M14.3123 6.57681C14.6864 6.75474 14.8454 7.20221 14.6674 7.57626L14.3059 8.33621C14.3059 8.33633 14.306 8.33609 14.3059 8.33621C14.2376 8.48081 14.2673 8.65322 14.3806 8.76623L14.3815 8.76714L16.1171 10.5038C16.231 10.6176 16.4036 10.6473 16.5482 10.5785L17.3095 10.2173C17.6838 10.0398 18.1311 10.1992 18.3086 10.5735C18.4862 10.9477 18.3267 11.395 17.9525 11.5726L17.1921 11.9333C16.4728 12.2749 15.6178 12.1257 15.0565 11.5644L13.3215 9.82842C13.3213 9.82826 13.3216 9.82858 13.3215 9.82842C12.7581 9.26627 12.6105 8.41086 12.9505 7.69368L12.9509 7.69277L13.3129 6.9319C13.4908 6.55785 13.9383 6.39887 14.3123 6.57681Z" fill="#000000" />
<path fill-rule="evenodd" clip-rule="evenodd" d="M14.4187 9.0024C14.4865 9.41103 14.2101 9.79724 13.8015 9.86501L9.69042 10.5468C9.69188 10.5764 9.69333 10.6068 9.69476 10.6379C9.71673 11.1177 9.73341 11.7821 9.71187 12.5199C9.68523 13.4325 9.59947 14.5199 9.36478 15.5199C10.365 15.2855 11.4526 15.2 12.3652 15.1736C13.1031 15.1522 13.7676 15.1691 14.2474 15.1912C14.2784 15.1926 14.3087 15.194 14.3383 15.1955L15.0201 11.0836C15.0879 10.675 15.474 10.3986 15.8827 10.4664C16.2913 10.5342 16.5676 10.9204 16.4999 11.329L15.7069 16.1112C15.6426 16.4991 15.2896 16.7714 14.8981 16.7353C14.8981 16.7353 14.8981 16.7353 14.8981 16.7353L14.8979 16.7353L14.8979 16.7353L14.8963 16.7351L14.8882 16.7344L14.853 16.7314C14.8213 16.7288 14.7734 16.725 14.7112 16.7205C14.5866 16.7116 14.4045 16.7 14.1784 16.6896C13.7254 16.6687 13.0998 16.653 12.4086 16.673C10.9841 16.7142 9.43486 16.9055 8.49091 17.4076C8.19968 17.5625 7.84142 17.5089 7.60822 17.2756C7.37503 17.0423 7.32166 16.684 7.47673 16.3929C7.97919 15.4495 8.17092 13.9006 8.21251 12.4762C8.23269 11.7851 8.21708 11.1595 8.19633 10.7065C8.18597 10.4804 8.17439 10.2983 8.16548 10.1738C8.16102 10.1115 8.15725 10.0637 8.15463 10.032L8.15165 9.99676L8.15093 9.98864L8.15079 9.98706L8.15078 9.98702L8.15077 9.98689C8.11471 9.59542 8.38705 9.24252 8.7749 9.1782L13.5561 8.38522C13.9647 8.31745 14.3509 8.59377 14.4187 9.0024Z" fill="#000000" />
<path fill-rule="evenodd" clip-rule="evenodd" d="M12.4812 12.4053C12.774 12.6982 12.774 13.1731 12.481 13.4659L8.66893 17.277C8.376 17.5699 7.90113 17.5698 7.60827 17.2769C7.31542 16.984 7.31548 16.5091 7.60841 16.2162L11.4205 12.4051C11.7134 12.1123 12.1883 12.1124 12.4812 12.4053Z" fill="#000000" />
</svg>