<svg width="24px"  height="24px"  viewBox="0 0 25 24" fill="none" xmlns="http://www.w3.org/2000/svg">
<path fill-rule="evenodd" clip-rule="evenodd" d="M3.9902 3.89737C4.97468 2.84117 6.37669 2.25 8.03216 2.25H16.4669C18.1262 2.25 19.5288 2.84084 20.5129 3.89765C21.4913 4.94841 22 6.39889 22 8.02638V15.9736C22 17.6011 21.4913 19.0516 20.5127 20.1024C19.5285 21.1592 18.1256 21.75 16.4659 21.75H8.03216C6.3728 21.75 4.97038 21.1591 3.98657 20.1023C3.00842 19.0515 2.5 17.601 2.5 15.9736V8.02638C2.5 6.39806 3.01117 4.94771 3.9902 3.89737ZM5.08745 4.92012C4.41024 5.64666 4 6.70951 4 8.02638V15.9736C4 17.2914 4.40861 18.3541 5.08451 19.0802C5.75475 19.8003 6.74341 20.25 8.03216 20.25H16.4659C17.7552 20.25 18.7444 19.8002 19.415 19.0801C20.0912 18.354 20.5 17.2913 20.5 15.9736V8.02638C20.5 6.70868 20.0912 5.64597 19.4151 4.91984C18.7446 4.19975 17.7556 3.75 16.4669 3.75H8.03216C6.74828 3.75 5.75921 4.19943 5.08745 4.92012Z" fill="#000000" />
<path fill-rule="evenodd" clip-rule="evenodd" d="M13.7123 8.46745C13.712 8.46778 13.7117 8.46811 13.7114 8.46843L9.285 13.3001C9.05144 13.5623 8.90583 13.8901 8.8683 14.2393L8.75445 15.2892C8.75444 15.2893 8.75445 15.2892 8.75445 15.2892C8.72706 15.5449 8.95126 15.7572 9.20618 15.7147C9.20621 15.7147 9.20615 15.7147 9.20618 15.7147L10.2229 15.5444C10.6021 15.481 10.9473 15.2909 11.2018 15.0056L11.2085 14.998L15.5918 10.2149L15.5945 10.212C15.836 9.95114 15.8212 9.5421 15.5592 9.29865C15.5591 9.29851 15.5594 9.29878 15.5592 9.29865L14.6238 8.43426C14.3623 8.19204 13.9539 8.2072 13.7123 8.46745ZM15.6421 7.33287C14.7734 6.52876 13.4153 6.57898 12.6099 7.45023L12.6076 7.4527L8.17574 12.2903L8.16986 12.2968C7.72592 12.7929 7.4483 13.4154 7.37693 14.0786C7.37694 14.0785 7.37692 14.0787 7.37693 14.0786L7.26313 15.1281C7.12915 16.3726 8.22021 17.4005 9.45382 17.1941L10.4705 17.0238C11.1832 16.9046 11.8349 16.5474 12.3176 16.008L16.6951 11.2312C16.6955 11.2307 16.696 11.2302 16.6965 11.2296C17.5002 10.36 17.4467 9.00357 16.5789 8.19858L15.6421 7.33287C15.642 7.33278 15.6422 7.33296 15.6421 7.33287Z" fill="#000000" />
<path fill-rule="evenodd" clip-rule="evenodd" d="M11.6723 8.48662C11.9536 8.18265 12.4282 8.16433 12.7321 8.4457L15.7162 11.208C16.0202 11.4894 16.0385 11.9639 15.7572 12.2678C15.4758 12.5718 15.0013 12.5901 14.6973 12.3088L11.7132 9.54649C11.4092 9.26511 11.3909 8.79059 11.6723 8.48662Z" fill="#000000" />
</svg>