<svg width="24px"  height="24px"  viewBox="0 0 25 24" fill="none" xmlns="http://www.w3.org/2000/svg">
<path d="M12.25 21.75C10.3216 21.75 8.43657 21.1782 6.83319 20.1068C5.22981 19.0355 3.98014 17.5128 3.24219 15.7312C2.50423 13.9496 2.31114 11.9892 2.68735 10.0979C3.06355 8.20656 3.99215 6.46927 5.35571 5.10571C6.71927 3.74215 8.45655 2.81355 10.3479 2.43735C12.2392 2.06114 14.1996 2.25423 15.9812 2.99218C17.7627 3.73013 19.2855 4.97982 20.3568 6.5832C21.4282 8.18658 22 10.0716 22 12C21.9971 14.585 20.9689 17.0632 19.1411 18.8911C17.3132 20.7189 14.835 21.7471 12.25 21.75ZM12.25 3.75001C10.6183 3.75001 9.02324 4.23386 7.66653 5.14038C6.30983 6.0469 5.25241 7.33538 4.62799 8.84287C4.00357 10.3504 3.84018 12.0092 4.15851 13.6095C4.47683 15.2098 5.2626 16.6799 6.41638 17.8336C7.57016 18.9874 9.04016 19.7732 10.6405 20.0915C12.2408 20.4098 13.8996 20.2464 15.4071 19.622C16.9146 18.9976 18.2031 17.9402 19.1096 16.5835C20.0161 15.2268 20.5 13.6317 20.5 12C20.4976 9.8127 19.6277 7.71567 18.081 6.16901C16.5343 4.62235 14.4373 3.75239 12.25 3.75001Z" fill="#000000" />
<path d="M9.20849 16.8865C8.94782 16.8856 8.69024 16.83 8.45248 16.7231C8.21472 16.6163 8.00206 16.4606 7.82836 16.2663C7.65466 16.0719 7.52378 15.8432 7.44421 15.595C7.36463 15.3468 7.33815 15.0846 7.36648 14.8255L7.47549 13.8065C7.54476 13.1579 7.81542 12.5473 8.24947 12.0605L12.5715 7.34246C12.7597 7.13877 12.9862 6.97416 13.238 6.85804C13.4899 6.74191 13.7621 6.67655 14.0392 6.66568C14.3164 6.65482 14.5929 6.69866 14.8531 6.79471C15.1132 6.89076 15.3519 7.03713 15.5555 7.22545L16.4655 8.06745C16.8749 8.44814 17.1169 8.97553 17.1385 9.53421C17.16 10.0929 16.9594 10.6373 16.5805 11.0484L12.3175 15.7015C11.8448 16.2265 11.2082 16.5758 10.5115 16.6925L9.52148 16.8585C9.41806 16.8762 9.3134 16.8855 9.20849 16.8865ZM14.1245 8.16346C14.0407 8.1633 13.9578 8.18055 13.881 8.21412C13.8042 8.24769 13.7352 8.29684 13.6785 8.35846L9.36446 13.0665C9.14113 13.3178 9.00136 13.6323 8.96447 13.9664L8.85546 14.9845C8.84891 15.0396 8.85548 15.0955 8.8746 15.1476C8.89371 15.1997 8.92484 15.2466 8.96548 15.2845C9.00479 15.3241 9.05333 15.3533 9.10674 15.3696C9.16015 15.3858 9.21676 15.3885 9.27148 15.3775L10.2615 15.2125C10.6254 15.1511 10.9579 14.9681 11.2045 14.6935L15.4775 10.0295C15.5323 9.97077 15.5751 9.90183 15.6032 9.82659C15.6313 9.75135 15.6444 9.67129 15.6415 9.59101C15.6386 9.51074 15.6199 9.43181 15.5864 9.35878C15.553 9.28575 15.5054 9.22005 15.4465 9.16545L14.5365 8.32245C14.4238 8.21986 14.2768 8.16314 14.1245 8.16346Z" fill="#000000" />
<path d="M15.1188 12.3004C14.9296 12.3007 14.7473 12.2292 14.6088 12.1004L11.7088 9.4114C11.5629 9.27614 11.4768 9.08847 11.4693 8.88968C11.4618 8.69089 11.5336 8.49726 11.6688 8.35139C11.8041 8.20553 11.9917 8.11936 12.1905 8.11186C12.3893 8.10436 12.583 8.17613 12.7288 8.31139L15.6288 11.0014C15.7394 11.1039 15.8165 11.2373 15.8501 11.3843C15.8837 11.5313 15.8722 11.685 15.8171 11.8253C15.7621 11.9656 15.666 12.0861 15.5414 12.1711C15.4169 12.256 15.2696 12.3014 15.1188 12.3014V12.3004Z" fill="#000000" />
</svg>