<svg width="24px"  height="24px"  viewBox="0 0 25 24" fill="none" xmlns="http://www.w3.org/2000/svg">
<path d="M11.1433 20.9772C10.6857 20.9754 10.2413 20.8231 9.87869 20.544C9.51604 20.2648 9.2552 19.8742 9.13635 19.4322L8.64334 17.5552C8.5639 17.2561 8.55278 16.943 8.61077 16.639C8.66876 16.3351 8.79436 16.048 8.97833 15.7992L15.7053 6.6452C16.1205 6.08106 16.7426 5.70471 17.435 5.59878C18.1274 5.49285 18.8335 5.66599 19.3983 6.0802L20.9143 7.1932C21.4782 7.60886 21.8542 8.23124 21.9597 8.92378C22.0653 9.61631 21.8918 10.3224 21.4774 10.8872L14.7513 20.0412C14.5685 20.2904 14.3323 20.4955 14.06 20.6415C13.7876 20.7875 13.486 20.8708 13.1773 20.8852L11.2373 20.9742C11.2083 20.9762 11.1773 20.9772 11.1433 20.9772ZM17.8363 7.0682C17.6569 7.06768 17.4799 7.10952 17.3197 7.19032C17.1595 7.27112 17.0206 7.3886 16.9143 7.5332L10.1863 16.6882C10.1355 16.7571 10.1009 16.8366 10.0852 16.9208C10.0694 17.0049 10.0729 17.0916 10.0953 17.1742L10.5873 19.0502C10.6239 19.1754 10.7007 19.285 10.806 19.3621C10.9112 19.4391 11.0389 19.4792 11.1693 19.4762L13.1063 19.3872C13.1921 19.383 13.2758 19.3597 13.3514 19.3191C13.427 19.2784 13.4926 19.2214 13.5433 19.1522L20.2703 9.9992C20.3595 9.87821 20.4239 9.74083 20.46 9.59492C20.496 9.44901 20.5029 9.29745 20.4803 9.14886C20.4578 9.00027 20.4062 8.85758 20.3284 8.72895C20.2507 8.60033 20.1484 8.48827 20.0273 8.3992L18.5124 7.28621C18.318 7.14475 18.0838 7.06844 17.8433 7.0682H17.8363Z" fill="#000000" />
<path d="M19.4751 13.0996C19.3158 13.0998 19.1606 13.049 19.0321 12.9546L14.4681 9.60063C14.3888 9.54233 14.3216 9.46895 14.2706 9.38471C14.2196 9.30046 14.1857 9.20698 14.1707 9.10962C14.1558 9.01226 14.1603 8.91292 14.1837 8.81726C14.2072 8.72161 14.2493 8.63152 14.3076 8.55214C14.366 8.47276 14.4393 8.40563 14.5236 8.3546C14.6078 8.30357 14.7013 8.26964 14.7986 8.25473C14.896 8.23983 14.9954 8.24424 15.091 8.26773C15.1867 8.29122 15.2768 8.33333 15.3561 8.39163L19.9211 11.7456C20.0485 11.8394 20.1429 11.9709 20.191 12.1215C20.2391 12.2722 20.2383 12.4341 20.1889 12.5843C20.1394 12.7344 20.0438 12.8651 19.9156 12.9577C19.7874 13.0502 19.6332 13.0999 19.4751 13.0996Z" fill="#000000" />
<path d="M7.03707 20.1917C7.01376 20.1932 6.99037 20.1932 6.96706 20.1917C6.06901 20.0914 5.21478 19.7502 4.49468 19.2043C3.77458 18.6584 3.2154 17.9281 2.87627 17.0905C2.53714 16.2529 2.43066 15.3392 2.5681 14.4461C2.70555 13.553 3.08179 12.7136 3.65706 12.0167C4.46129 11.1795 5.42851 10.5158 6.49907 10.0667C7.04055 9.81415 7.56322 9.52307 8.06307 9.19573C8.68607 8.76473 10.0821 7.59574 9.57808 6.03074C9.41523 5.58798 9.12015 5.206 8.73287 4.93661C8.34559 4.66721 7.88484 4.52342 7.41308 4.52473C7.31458 4.51895 7.2182 4.49383 7.12941 4.4508C7.04063 4.40777 6.96118 4.34768 6.89562 4.27395C6.83006 4.20022 6.77969 4.1143 6.74733 4.0211C6.71498 3.92789 6.7013 3.82923 6.70708 3.73074C6.71286 3.63224 6.73797 3.53586 6.781 3.44708C6.82402 3.35829 6.88412 3.27885 6.95784 3.2133C7.03157 3.14774 7.11751 3.09733 7.21071 3.06498C7.30392 3.03263 7.40257 3.01895 7.50106 3.02473C8.27561 3.03725 9.02753 3.28795 9.65462 3.74274C10.2817 4.19754 10.7536 4.83439 11.0061 5.56673C11.5691 7.31373 10.7891 9.12973 8.91707 10.4267C8.35798 10.7949 7.77314 11.1224 7.16707 11.4067C6.2782 11.7728 5.47117 12.3123 4.79308 12.9937C4.38435 13.472 4.11797 14.0553 4.02428 14.6774C3.93059 15.2994 4.01334 15.9353 4.26308 16.5127C4.48931 17.1034 4.8745 17.6199 5.37609 18.0052C5.87767 18.3905 6.47607 18.6295 7.10506 18.6957C7.30397 18.7047 7.49117 18.7924 7.62545 18.9394C7.75972 19.0865 7.83008 19.2808 7.82106 19.4797C7.81205 19.6786 7.72438 19.8658 7.57735 20.0001C7.43032 20.1344 7.23598 20.2048 7.03707 20.1957V20.1917Z" fill="#000000" />
</svg>