<svg width="24px"  height="24px"  viewBox="0 0 25 24" fill="none" xmlns="http://www.w3.org/2000/svg">
<path fill-rule="evenodd" clip-rule="evenodd" d="M4.22461 21C4.22461 20.5858 4.5604 20.25 4.97461 20.25H20.0628C20.477 20.25 20.8128 20.5858 20.8128 21C20.8128 21.4142 20.477 21.75 20.0628 21.75H4.97461C4.5604 21.75 4.22461 21.4142 4.22461 21Z" fill="#000000" />
<path fill-rule="evenodd" clip-rule="evenodd" d="M10.6638 6.17245C10.9073 5.83736 11.3764 5.76311 11.7114 6.00661L16.4602 9.45734C16.7953 9.70083 16.8695 10.1699 16.626 10.505C16.3825 10.84 15.9135 10.9143 15.5784 10.6708L10.8297 7.22006C10.4946 6.97657 10.4203 6.50753 10.6638 6.17245Z" fill="#000000" />
<path fill-rule="evenodd" clip-rule="evenodd" d="M12.1136 4.22361C13.0632 2.9675 14.8513 2.71902 16.1074 3.66862L17.5347 4.74765C18.7908 5.69725 19.0393 7.48533 18.0897 8.74144L12.2657 16.4454C11.5971 17.3297 10.6298 17.941 9.54407 18.1651L8.20865 18.4409C6.86065 18.7192 5.57562 17.7477 5.47585 16.3749L5.37702 15.0149C5.29667 13.9092 5.62099 12.8119 6.28956 11.9275L12.1136 4.22361ZM15.2028 4.86518C14.6075 4.41516 13.7602 4.53291 13.3102 5.12818L7.48612 12.8321C7.03697 13.4262 6.8191 14.1634 6.87308 14.9062L6.97191 16.2662C7.00598 16.7351 7.44491 17.0669 7.90533 16.9719L9.24075 16.6961C9.97016 16.5455 10.62 16.1349 11.0691 15.5408L16.8931 7.83686C17.3432 7.24159 17.2254 6.39422 16.6301 5.9442L15.2028 4.86518Z" fill="#000000" />
</svg>