<svg width="24px"  height="24px"  viewBox="0 0 25 25" fill="none" xmlns="http://www.w3.org/2000/svg">
<path d="M5.81642 21.9861C5.63342 21.9861 5.44746 21.9781 5.26247 21.9611C4.8027 21.9166 4.37184 21.7167 4.04097 21.3944C3.7101 21.0721 3.49899 20.6465 3.44246 20.1881C3.3359 19.3114 3.42779 18.422 3.71132 17.5856C3.99484 16.7492 4.46276 15.9873 5.08046 15.3561L15.9354 4.46312C16.5799 3.81347 17.455 3.44486 18.3701 3.43761C19.2851 3.43036 20.1659 3.78507 20.8206 4.42443C21.4752 5.06379 21.8507 5.93597 21.8651 6.85094C21.8795 7.7659 21.5316 8.64949 20.8974 9.30913L10.0424 20.2021C9.49337 20.7673 8.83637 21.2164 8.11043 21.5229C7.38449 21.8293 6.60439 21.9869 5.81642 21.9861ZM18.4165 4.92015H18.3905C18.1314 4.9235 17.8755 4.97823 17.6378 5.08122C17.4 5.18422 17.1851 5.33341 17.0054 5.52013L6.15047 16.4091C5.69123 16.8798 5.34361 17.4477 5.13331 18.0708C4.92302 18.694 4.85538 19.3564 4.93544 20.0091C4.94973 20.1269 5.00382 20.2361 5.08876 20.3189C5.1737 20.4017 5.28436 20.4529 5.40242 20.4641C6.05891 20.5284 6.72146 20.4434 7.34041 20.2153C7.95935 19.9872 8.51867 19.6221 8.97645 19.1471L19.8314 8.2531C20.0996 7.97512 20.2801 7.62445 20.3504 7.24468C20.4207 6.8649 20.3778 6.4728 20.227 6.11724C20.0762 5.76167 19.8241 5.45831 19.5021 5.24492C19.1802 5.03153 18.8027 4.91752 18.4165 4.9171V4.92015Z" fill="#000000" />
<path d="M15.7332 14.1682C15.6345 14.1684 15.5367 14.149 15.4456 14.111C15.3544 14.0731 15.2717 14.0174 15.2023 13.9472L11.3793 10.1102C11.3058 10.0414 11.2468 9.95855 11.206 9.86648C11.1652 9.7744 11.1433 9.675 11.1417 9.5743C11.1401 9.4736 11.1589 9.37361 11.1967 9.28029C11.2346 9.18698 11.2909 9.10229 11.3623 9.03121C11.4336 8.96013 11.5186 8.90414 11.612 8.8666C11.7055 8.82905 11.8056 8.81068 11.9063 8.81264C12.007 8.81461 12.1062 8.83685 12.1982 8.87801C12.2901 8.91917 12.3727 8.97846 12.4413 9.05227L16.2653 12.8892C16.3698 12.9943 16.4409 13.128 16.4695 13.2734C16.4981 13.4188 16.483 13.5694 16.4261 13.7063C16.3692 13.8431 16.273 13.96 16.1497 14.0423C16.0264 14.1245 15.8815 14.1683 15.7332 14.1682Z" fill="#000000" />
<path d="M5.43457 12.4376C5.23542 12.4375 5.04451 12.3584 4.90363 12.2176L3.85162 11.1656C3.1018 10.414 2.68066 9.39576 2.68066 8.33412C2.68066 7.27248 3.1018 6.2542 3.85162 5.50264L5.03357 4.31862C5.40383 3.94417 5.84496 3.64715 6.33118 3.4449C6.81739 3.24265 7.339 3.13925 7.8656 3.14064C8.39252 3.13932 8.91441 3.24297 9.40082 3.44557C9.88723 3.64817 10.3284 3.94565 10.6986 4.32063L11.7496 5.3716C11.8903 5.51229 11.9694 5.70314 11.9694 5.90211C11.9694 6.10109 11.8903 6.29193 11.7496 6.43263C11.6089 6.57333 11.4181 6.65236 11.2191 6.65236C11.0201 6.65236 10.8293 6.57333 10.6886 6.43263L9.6366 5.37959C9.40546 5.14472 9.12974 4.9584 8.82562 4.8315C8.52151 4.7046 8.19513 4.63972 7.8656 4.64064C7.53652 4.6395 7.21051 4.70408 6.90674 4.83064C6.60296 4.9572 6.32755 5.14318 6.09662 5.37764L4.91162 6.56361C4.44349 7.03414 4.18066 7.67087 4.18066 8.33461C4.18066 8.99834 4.44349 9.63508 4.91162 10.1056L5.9646 11.1566C6.06921 11.2617 6.14038 11.3953 6.16919 11.5407C6.198 11.6861 6.18314 11.8367 6.12646 11.9737C6.06979 12.1107 5.97389 12.2278 5.85077 12.3104C5.72765 12.3929 5.5828 12.4372 5.43457 12.4376Z" fill="#000000" />
<path d="M16.9941 22.6331C15.9324 22.6345 14.9134 22.2153 14.1602 21.4671L13.1191 20.4251C12.9784 20.2844 12.8994 20.0936 12.8994 19.8946C12.8994 19.6956 12.9784 19.5048 13.1191 19.3641C13.2598 19.2234 13.4507 19.1444 13.6497 19.1444C13.8486 19.1444 14.0395 19.2234 14.1802 19.3641L15.2192 20.4041C15.6903 20.8716 16.327 21.1339 16.9907 21.1339C17.6543 21.1339 18.2911 20.8716 18.7621 20.4041L19.9442 19.2221C20.1783 18.9905 20.3642 18.7149 20.4911 18.4109C20.618 18.107 20.6833 17.7809 20.6833 17.4516C20.6833 17.1223 20.618 16.7962 20.4911 16.4923C20.3642 16.1884 20.1783 15.9127 19.9442 15.6812L18.9031 14.6401C18.7624 14.4994 18.6834 14.3086 18.6834 14.1096C18.6834 13.9106 18.7624 13.7198 18.9031 13.5791C19.0438 13.4384 19.2347 13.3594 19.4337 13.3594C19.6326 13.3594 19.8235 13.4384 19.9642 13.5791L21.0032 14.6181C21.3771 14.9891 21.6738 15.4305 21.8763 15.9167C22.0788 16.4029 22.1831 16.9244 22.1831 17.4511C22.1831 17.9778 22.0788 18.4994 21.8763 18.9856C21.6738 19.4718 21.3771 19.9131 21.0032 20.2841L19.8221 21.4651C19.451 21.8366 19.01 22.1309 18.5247 22.3314C18.0394 22.5318 17.5192 22.6343 16.9941 22.6331Z" fill="#000000" />
</svg>