<svg width="24px"  height="24px"  viewBox="0 0 25 25" fill="none" xmlns="http://www.w3.org/2000/svg">
<path fill-rule="evenodd" clip-rule="evenodd" d="M8.61615 20.418C9.36194 20.418 9.9668 19.8127 9.9668 19.0683V15.9869C9.9668 15.2411 9.36149 14.6362 8.61712 14.6362H5.53474C4.78963 14.6362 4.18507 15.2409 4.18507 15.9869V19.0683C4.18507 19.8139 4.78917 20.418 5.53474 20.418H8.61615ZM11.4668 19.0683C11.4668 20.6415 10.1899 21.918 8.61615 21.918H5.53474C3.96075 21.918 2.68507 20.6423 2.68507 19.0683V15.9869C2.68507 14.4133 3.96029 13.1362 5.53474 13.1362H8.61712C10.1904 13.1362 11.4668 14.4131 11.4668 15.9869V19.0683Z" fill="#000000" />
<path fill-rule="evenodd" clip-rule="evenodd" d="M3.43555 11.459C3.02133 11.459 2.68555 11.1232 2.68555 10.709V8.45169C2.68555 8.03747 3.02133 7.70169 3.43555 7.70169C3.84976 7.70169 4.18555 8.03747 4.18555 8.45169V10.709C4.18555 11.1232 3.84976 11.459 3.43555 11.459Z" fill="#000000" />
<path fill-rule="evenodd" clip-rule="evenodd" d="M21.4355 11.459C21.0213 11.459 20.6855 11.1232 20.6855 10.709V8.64628C20.6855 8.23207 21.0213 7.89628 21.4355 7.89628C21.8498 7.89628 22.1855 8.23207 22.1855 8.64628V10.709C22.1855 11.1232 21.8498 11.459 21.4355 11.459Z" fill="#000000" />
<path fill-rule="evenodd" clip-rule="evenodd" d="M21.4355 16.625C21.0213 16.625 20.6855 16.2892 20.6855 15.875V13.6274C20.6855 13.2132 21.0213 12.8774 21.4355 12.8774C21.8498 12.8774 22.1855 13.2132 22.1855 13.6274V15.875C22.1855 16.2892 21.8498 16.625 21.4355 16.625Z" fill="#000000" />
<path fill-rule="evenodd" clip-rule="evenodd" d="M16.9023 3.16797C16.9023 3.58218 16.5666 3.91797 16.1523 3.91797H13.895C13.4808 3.91797 13.145 3.58218 13.145 3.16797C13.145 2.75376 13.4808 2.41797 13.895 2.41797H16.1523C16.5666 2.41797 16.9023 2.75376 16.9023 3.16797Z" fill="#000000" />
<path fill-rule="evenodd" clip-rule="evenodd" d="M16.7188 21.168C16.7188 21.5822 16.383 21.918 15.9688 21.918H13.8963C13.4821 21.918 13.1463 21.5822 13.1463 21.168C13.1463 20.7538 13.4821 20.418 13.8963 20.418H15.9688C16.383 20.418 16.7188 20.7538 16.7188 21.168Z" fill="#000000" />
<path fill-rule="evenodd" clip-rule="evenodd" d="M11.7266 3.16797C11.7266 3.58218 11.3908 3.91797 10.9766 3.91797H8.91386C8.49965 3.91797 8.16386 3.58218 8.16386 3.16797C8.16386 2.75376 8.49965 2.41797 8.91386 2.41797H10.9766C11.3908 2.41797 11.7266 2.75376 11.7266 3.16797Z" fill="#000000" />
<path fill-rule="evenodd" clip-rule="evenodd" d="M21.1765 6.28508C20.8032 6.46463 20.3551 6.30758 20.1755 5.93431C19.87 5.29915 19.4022 4.79545 18.8054 4.46563C18.4428 4.26528 18.3114 3.80897 18.5117 3.44644C18.7121 3.0839 19.1684 2.95242 19.5309 3.15277C20.413 3.64025 21.0933 4.38196 21.5273 5.2841C21.7068 5.65737 21.5498 6.10553 21.1765 6.28508Z" fill="#000000" />
<path fill-rule="evenodd" clip-rule="evenodd" d="M3.74678 6.10359C3.38314 5.90525 3.24915 5.44967 3.44749 5.08603C3.92457 4.2114 4.62449 3.50852 5.51152 3.04772C5.8791 2.85678 6.33187 2.99996 6.52282 3.36754C6.71377 3.73511 6.57058 4.18788 6.20301 4.37883C5.59167 4.69641 5.10456 5.18057 4.76434 5.80431C4.56599 6.16795 4.11041 6.30194 3.74678 6.10359Z" fill="#000000" />
<path fill-rule="evenodd" clip-rule="evenodd" d="M18.3599 20.9754C18.1653 20.6098 18.3038 20.1556 18.6694 19.9609C19.2866 19.6323 19.7749 19.1454 20.1149 18.5221C20.3132 18.1585 20.7688 18.0245 21.1324 18.2229C21.4961 18.4212 21.6301 18.8768 21.4317 19.2404C20.9544 20.1156 20.2557 20.8156 19.3744 21.2849C19.0088 21.4796 18.5546 21.341 18.3599 20.9754Z" fill="#000000" />
</svg>