<svg width="24px"  height="24px"  viewBox="0 0 25 25" fill="none" xmlns="http://www.w3.org/2000/svg">
<path fill-rule="evenodd" clip-rule="evenodd" d="M8.61615 3.91797C9.36194 3.91797 9.9668 4.52327 9.9668 5.26764V8.34905C9.9668 9.09485 9.36149 9.6997 8.61712 9.6997H5.53474C4.78963 9.6997 4.18507 9.09507 4.18507 8.34905V5.26764C4.18507 4.52207 4.78917 3.91797 5.53474 3.91797H8.61615ZM11.4668 5.26764C11.4668 3.69439 10.1899 2.41797 8.61615 2.41797H5.53474C3.96075 2.41797 2.68507 3.69365 2.68507 5.26764V8.34905C2.68507 9.92259 3.96029 11.1997 5.53474 11.1997H8.61712C10.1904 11.1997 11.4668 9.92282 11.4668 8.34905V5.26764Z" fill="#000000" />
<path fill-rule="evenodd" clip-rule="evenodd" d="M3.43555 12.877C3.02133 12.877 2.68555 13.2127 2.68555 13.627V15.8843C2.68555 16.2985 3.02133 16.6343 3.43555 16.6343C3.84976 16.6343 4.18555 16.2985 4.18555 15.8843V13.627C4.18555 13.2127 3.84976 12.877 3.43555 12.877Z" fill="#000000" />
<path fill-rule="evenodd" clip-rule="evenodd" d="M21.4355 12.877C21.0213 12.877 20.6855 13.2127 20.6855 13.627V15.6897C20.6855 16.1039 21.0213 16.4397 21.4355 16.4397C21.8498 16.4397 22.1855 16.1039 22.1855 15.6897V13.627C22.1855 13.2127 21.8498 12.877 21.4355 12.877Z" fill="#000000" />
<path fill-rule="evenodd" clip-rule="evenodd" d="M21.4355 7.71094C21.0213 7.71094 20.6855 8.04672 20.6855 8.46094V10.7085C20.6855 11.1227 21.0213 11.4585 21.4355 11.4585C21.8498 11.4585 22.1855 11.1227 22.1855 10.7085V8.46094C22.1855 8.04672 21.8498 7.71094 21.4355 7.71094Z" fill="#000000" />
<path fill-rule="evenodd" clip-rule="evenodd" d="M16.9023 21.168C16.9023 20.7538 16.5666 20.418 16.1523 20.418H13.895C13.4808 20.418 13.145 20.7538 13.145 21.168C13.145 21.5822 13.4808 21.918 13.895 21.918H16.1523C16.5666 21.918 16.9023 21.5822 16.9023 21.168Z" fill="#000000" />
<path fill-rule="evenodd" clip-rule="evenodd" d="M16.7188 3.16797C16.7188 2.75376 16.383 2.41797 15.9688 2.41797H13.8963C13.4821 2.41797 13.1463 2.75376 13.1463 3.16797C13.1463 3.58218 13.4821 3.91797 13.8963 3.91797H15.9688C16.383 3.91797 16.7188 3.58218 16.7188 3.16797Z" fill="#000000" />
<path fill-rule="evenodd" clip-rule="evenodd" d="M11.7266 21.168C11.7266 20.7538 11.3908 20.418 10.9766 20.418H8.91386C8.49965 20.418 8.16386 20.7538 8.16386 21.168C8.16386 21.5822 8.49965 21.918 8.91386 21.918H10.9766C11.3908 21.918 11.7266 21.5822 11.7266 21.168Z" fill="#000000" />
<path fill-rule="evenodd" clip-rule="evenodd" d="M21.1765 18.0509C20.8032 17.8713 20.3551 18.0284 20.1755 18.4016C19.87 19.0368 19.4022 19.5405 18.8054 19.8703C18.4428 20.0707 18.3114 20.527 18.5117 20.8895C18.7121 21.252 19.1684 21.3835 19.5309 21.1832C20.413 20.6957 21.0933 19.954 21.5273 19.0518C21.7068 18.6786 21.5498 18.2304 21.1765 18.0509Z" fill="#000000" />
<path fill-rule="evenodd" clip-rule="evenodd" d="M3.74678 18.2323C3.38314 18.4307 3.24915 18.8863 3.44749 19.2499C3.92457 20.1245 4.62449 20.8274 5.51152 21.2882C5.8791 21.4792 6.33187 21.336 6.52282 20.9684C6.71377 20.6008 6.57058 20.1481 6.20301 19.9571C5.59167 19.6395 5.10456 19.1554 4.76434 18.5316C4.56599 18.168 4.11041 18.034 3.74678 18.2323Z" fill="#000000" />
<path fill-rule="evenodd" clip-rule="evenodd" d="M18.3599 3.36054C18.1653 3.72616 18.3038 4.18036 18.6694 4.37504C19.2866 4.70363 19.7749 5.19057 20.1149 5.8138C20.3132 6.17744 20.7688 6.31143 21.1324 6.11308C21.4961 5.91474 21.6301 5.45916 21.4317 5.09552C20.9544 4.22037 20.2557 3.52029 19.3744 3.05104C19.0088 2.85636 18.5546 2.99493 18.3599 3.36054Z" fill="#000000" />
</svg>