<svg width="24px"  height="24px"  viewBox="0 0 25 25" fill="none" xmlns="http://www.w3.org/2000/svg">
<path fill-rule="evenodd" clip-rule="evenodd" d="M16.2549 20.418C15.5091 20.418 14.9043 19.8127 14.9043 19.0683V15.9869C14.9043 15.2411 15.5096 14.6362 16.254 14.6362H19.3364C20.0815 14.6362 20.686 15.2409 20.686 15.9869V19.0683C20.686 19.8139 20.0819 20.418 19.3364 20.418H16.2549ZM13.4043 19.0683C13.4043 20.6415 14.6812 21.918 16.2549 21.918H19.3364C20.9103 21.918 22.186 20.6423 22.186 19.0683V15.9869C22.186 14.4133 20.9108 13.1362 19.3364 13.1362H16.254C14.6807 13.1362 13.4043 14.4131 13.4043 15.9869V19.0683Z" fill="#000000" />
<path fill-rule="evenodd" clip-rule="evenodd" d="M21.4355 11.459C21.8498 11.459 22.1855 11.1232 22.1855 10.709V8.45169C22.1855 8.03747 21.8498 7.70169 21.4355 7.70169C21.0213 7.70169 20.6855 8.03747 20.6855 8.45169V10.709C20.6855 11.1232 21.0213 11.459 21.4355 11.459Z" fill="#000000" />
<path fill-rule="evenodd" clip-rule="evenodd" d="M3.43555 11.459C3.84976 11.459 4.18555 11.1232 4.18555 10.709V8.64628C4.18555 8.23207 3.84976 7.89628 3.43555 7.89628C3.02133 7.89628 2.68555 8.23207 2.68555 8.64628V10.709C2.68555 11.1232 3.02133 11.459 3.43555 11.459Z" fill="#000000" />
<path fill-rule="evenodd" clip-rule="evenodd" d="M3.43555 16.625C3.84976 16.625 4.18555 16.2892 4.18555 15.875V13.6274C4.18555 13.2132 3.84976 12.8774 3.43555 12.8774C3.02133 12.8774 2.68555 13.2132 2.68555 13.6274V15.875C2.68555 16.2892 3.02133 16.625 3.43555 16.625Z" fill="#000000" />
<path fill-rule="evenodd" clip-rule="evenodd" d="M7.96875 3.16797C7.96875 3.58218 8.30454 3.91797 8.71875 3.91797H10.976C11.3903 3.91797 11.726 3.58218 11.726 3.16797C11.726 2.75376 11.3903 2.41797 10.976 2.41797H8.71875C8.30454 2.41797 7.96875 2.75376 7.96875 3.16797Z" fill="#000000" />
<path fill-rule="evenodd" clip-rule="evenodd" d="M8.15234 21.168C8.15234 21.5822 8.48813 21.918 8.90234 21.918H10.9748C11.389 21.918 11.7248 21.5822 11.7248 21.168C11.7248 20.7538 11.389 20.418 10.9748 20.418H8.90234C8.48813 20.418 8.15234 20.7538 8.15234 21.168Z" fill="#000000" />
<path fill-rule="evenodd" clip-rule="evenodd" d="M13.1445 3.16797C13.1445 3.58218 13.4803 3.91797 13.8945 3.91797H15.9572C16.3714 3.91797 16.7072 3.58218 16.7072 3.16797C16.7072 2.75376 16.3714 2.41797 15.9572 2.41797H13.8945C13.4803 2.41797 13.1445 2.75376 13.1445 3.16797Z" fill="#000000" />
<path fill-rule="evenodd" clip-rule="evenodd" d="M3.6946 6.28508C4.06788 6.46463 4.51603 6.30758 4.69558 5.93431C5.0011 5.29915 5.46889 4.79545 6.06571 4.46563C6.42825 4.26528 6.55973 3.80897 6.35938 3.44644C6.15903 3.0839 5.70272 2.95242 5.34018 3.15277C4.45808 3.64025 3.77777 4.38196 3.34383 5.2841C3.16428 5.65737 3.32132 6.10553 3.6946 6.28508Z" fill="#000000" />
<path fill-rule="evenodd" clip-rule="evenodd" d="M21.1243 6.10359C21.488 5.90525 21.6219 5.44967 21.4236 5.08603C20.9465 4.2114 20.2466 3.50852 19.3596 3.04772C18.992 2.85678 18.5392 2.99996 18.3483 3.36754C18.1573 3.73511 18.3005 4.18788 18.6681 4.37883C19.2794 4.69641 19.7665 5.18057 20.1068 5.80431C20.3051 6.16795 20.7607 6.30194 21.1243 6.10359Z" fill="#000000" />
<path fill-rule="evenodd" clip-rule="evenodd" d="M6.51115 20.9754C6.70583 20.6098 6.56726 20.1556 6.20164 19.9609C5.58454 19.6323 5.09616 19.1454 4.75622 18.5221C4.55787 18.1585 4.1023 18.0245 3.73866 18.2229C3.37502 18.4212 3.24103 18.8768 3.43938 19.2404C3.91673 20.1156 4.61538 20.8156 5.49665 21.2849C5.86227 21.4796 6.31647 21.341 6.51115 20.9754Z" fill="#000000" />
</svg>