<svg width="24px"  height="24px"  viewBox="0 0 25 24" fill="none" xmlns="http://www.w3.org/2000/svg">
<path fill-rule="evenodd" clip-rule="evenodd" d="M3.25 12.7969C3.66421 12.7969 4 13.1327 4 13.5469V15.6339C4 16.0481 3.66421 16.3839 3.25 16.3839C2.83579 16.3839 2.5 16.0481 2.5 15.6339V13.5469C2.5 13.1327 2.83579 12.7969 3.25 12.7969Z" fill="#000000" />
<path fill-rule="evenodd" clip-rule="evenodd" d="M7.89648 21C7.89648 20.5858 8.23227 20.25 8.64648 20.25H10.7325C11.1468 20.25 11.4825 20.5858 11.4825 21C11.4825 21.4142 11.1468 21.75 10.7325 21.75H8.64648C8.23227 21.75 7.89648 21.4142 7.89648 21Z" fill="#000000" />
<path fill-rule="evenodd" clip-rule="evenodd" d="M3.16222 17.5892C3.57359 17.5407 3.94639 17.8348 3.99491 18.2462C4.06871 18.872 4.31377 19.3562 4.66164 19.6859C5.00675 20.013 5.49719 20.2304 6.14334 20.2494C6.55737 20.2615 6.88315 20.607 6.87099 21.0211C6.85883 21.4351 6.51333 21.7609 6.09929 21.7487C5.12252 21.72 4.2688 21.3803 3.62975 20.7746C2.99346 20.1715 2.61435 19.3471 2.50524 18.4219C2.45672 18.0105 2.75086 17.6377 3.16222 17.5892Z" fill="#000000" />
<path fill-rule="evenodd" clip-rule="evenodd" d="M6.87099 8.08541C6.88315 8.49944 6.55737 8.84494 6.14334 8.8571C5.49719 8.87609 5.00675 9.09342 4.66164 9.42053C4.31377 9.75026 4.06871 10.2345 3.99491 10.8602C3.94639 11.2716 3.57359 11.5658 3.16222 11.5172C2.75086 11.4687 2.45672 11.0959 2.50524 10.6846C2.61435 9.7594 2.99346 8.93497 3.62975 8.33187C4.2688 7.72614 5.12252 7.38645 6.09929 7.35775C6.51333 7.34559 6.85883 7.67137 6.87099 8.08541Z" fill="#000000" />
<path fill-rule="evenodd" clip-rule="evenodd" d="M16.2169 17.5912C16.6283 17.6397 16.9224 18.0125 16.8739 18.4239C16.7648 19.349 16.3857 20.1734 15.7494 20.7765C15.1103 21.3823 14.2566 21.722 13.2798 21.7507C12.8658 21.7628 12.5203 21.437 12.5081 21.023C12.496 20.609 12.8218 20.2635 13.2358 20.2513C13.8819 20.2323 14.3724 20.015 14.7175 19.6879C15.0654 19.3581 15.3104 18.8739 15.3842 18.2482C15.4327 17.8368 15.8055 17.5427 16.2169 17.5912Z" fill="#000000" />
<path fill-rule="evenodd" clip-rule="evenodd" d="M8.74232 3.49661C9.4911 2.6926 10.5537 2.25 11.794 2.25H17.8284C19.0683 2.25 20.1305 2.69269 20.8789 3.49678C21.6216 4.29479 21.9994 5.3877 21.9994 6.59611V12.2831C21.9994 13.4926 21.6193 14.5853 20.876 15.3829C20.1272 16.1862 19.0655 16.6292 17.8284 16.6292H11.793C10.5531 16.6292 9.49076 16.1866 8.74214 15.3826C7.99915 14.5846 7.62109 13.4917 7.62109 12.2831V6.59611C7.62109 5.38755 7.99916 4.29459 8.74232 3.49661ZM9.84001 4.5189C9.3993 4.99212 9.12109 5.6972 9.12109 6.59611V12.2831C9.12109 13.182 9.3993 13.8872 9.83994 14.3604C10.2749 14.8276 10.9236 15.1292 11.793 15.1292H17.8284C18.6939 15.1292 19.3427 14.8279 19.7787 14.3601C20.2202 13.8864 20.4994 13.1812 20.4994 12.2831V6.59611C20.4994 5.69705 20.2213 4.99192 19.7809 4.51873C19.3462 4.05163 18.6978 3.75 17.8284 3.75H11.794C10.924 3.75 10.2751 4.05172 9.84001 4.5189Z" fill="#000000" />
<path fill-rule="evenodd" clip-rule="evenodd" d="M7.62109 8.12109C7.62109 7.70688 7.95688 7.37109 8.37109 7.37109H12.7076C13.9476 7.37109 15.0099 7.81376 15.7585 8.61776C16.5015 9.41572 16.8796 10.5086 16.8796 11.7172V15.8815C16.8796 16.2957 16.5438 16.6315 16.1296 16.6315C15.7154 16.6315 15.3796 16.2957 15.3796 15.8815V11.7172C15.3796 10.8183 15.1014 10.1132 14.6607 9.63994C14.2257 9.17275 13.5771 8.87109 12.7076 8.87109H8.37109C7.95688 8.87109 7.62109 8.53531 7.62109 8.12109Z" fill="#000000" />
</svg>