<svg width="24px"  height="24px"  viewBox="0 0 25 24" fill="none" xmlns="http://www.w3.org/2000/svg">
<path fill-rule="evenodd" clip-rule="evenodd" d="M7.89648 21C7.89648 20.5858 8.23227 20.25 8.64648 20.25H10.7325C11.1467 20.25 11.4825 20.5858 11.4825 21C11.4825 21.4142 11.1467 21.75 10.7325 21.75H8.64648C8.23227 21.75 7.89648 21.4142 7.89648 21Z" fill="#000000" />
<path fill-rule="evenodd" clip-rule="evenodd" d="M3.25 12.7969C3.66421 12.7969 4 13.1327 4 13.5469V15.6338C4 16.048 3.66421 16.3838 3.25 16.3838C2.83579 16.3838 2.5 16.048 2.5 15.6338V13.5469C2.5 13.1327 2.83579 12.7969 3.25 12.7969Z" fill="#000000" />
<path fill-rule="evenodd" clip-rule="evenodd" d="M6.87089 8.08541C6.88305 8.49944 6.55727 8.84494 6.14323 8.8571C5.49712 8.87609 5.0067 9.09341 4.66161 9.4205C4.31375 9.75022 4.06871 10.2344 3.99491 10.8602C3.94639 11.2715 3.57359 11.5657 3.16222 11.5171C2.75086 11.4686 2.45672 11.0958 2.50524 10.6845C2.61435 9.75933 2.99344 8.93493 3.62971 8.33184C4.26875 7.72613 5.12245 7.38644 6.09919 7.35775C6.51322 7.34559 6.85873 7.67137 6.87089 8.08541Z" fill="#000000" />
<path fill-rule="evenodd" clip-rule="evenodd" d="M3.16222 17.5892C3.57359 17.5407 3.94639 17.8348 3.99491 18.2462C4.06871 18.8719 4.31375 19.3561 4.66161 19.6859C5.0067 20.013 5.49712 20.2303 6.14323 20.2493C6.55727 20.2614 6.88305 20.6069 6.87089 21.021C6.85873 21.435 6.51322 21.7608 6.09919 21.7486C5.12245 21.7199 4.26875 21.3802 3.62971 20.7745C2.99344 20.1714 2.61435 19.347 2.50524 18.4219C2.45672 18.0105 2.75086 17.6377 3.16222 17.5892Z" fill="#000000" />
<path fill-rule="evenodd" clip-rule="evenodd" d="M16.2168 17.5892C16.6282 17.6377 16.9223 18.0105 16.8738 18.4219C16.7647 19.347 16.3856 20.1714 15.7493 20.7745C15.1103 21.3802 14.2566 21.7199 13.2798 21.7486C12.8658 21.7608 12.5203 21.435 12.5081 21.021C12.496 20.6069 12.8218 20.2614 13.2358 20.2493C13.8819 20.2303 14.3723 20.013 14.7174 19.6859C15.0653 19.3561 15.3103 18.8719 15.3841 18.2462C15.4326 17.8348 15.8054 17.5407 16.2168 17.5892Z" fill="#000000" />
<path fill-rule="evenodd" clip-rule="evenodd" d="M8.74228 3.49658C9.49104 2.69259 10.5536 2.25 11.7939 2.25H17.828C19.0679 2.25 20.1303 2.69266 20.8789 3.49663C21.6218 4.29456 21.9999 5.38746 21.9999 6.59598V12.2828C21.9999 13.4923 21.6195 14.5851 20.8759 15.3825C20.1269 16.1858 19.0651 16.6288 17.828 16.6288H11.7929C10.553 16.6288 9.4907 16.1861 8.74211 15.3821C7.99914 14.5842 7.62109 13.4913 7.62109 12.2828V6.59598C7.62109 5.38746 7.99915 4.29453 8.74228 3.49658ZM9.83997 4.51886C9.39929 4.99206 9.12109 5.69711 9.12109 6.59598V12.2828C9.12109 13.1817 9.39929 13.8868 9.83991 14.36C10.2749 14.8271 10.9235 15.1288 11.7929 15.1288H17.828C18.6936 15.1288 19.3426 14.8275 19.7789 14.3596C20.2206 13.8859 20.4999 13.1806 20.4999 12.2828V6.59598C20.4999 5.69711 20.2217 4.99202 19.7811 4.51881C19.3461 4.05164 18.6975 3.75 17.828 3.75H11.7939C10.9239 3.75 10.275 4.05171 9.83997 4.51886Z" fill="#000000" />
</svg>