<svg width="24px"  height="24px"  viewBox="0 0 25 24" fill="none" xmlns="http://www.w3.org/2000/svg">
<path fill-rule="evenodd" clip-rule="evenodd" d="M2.50391 9.27594C2.50391 8.06871 3.90024 7.4008 4.84087 8.15453L8.23681 10.8781C8.95478 11.4537 8.95478 12.5461 8.23681 13.1216L4.84113 15.845C3.89969 16.5994 2.50391 15.929 2.50391 14.7238V9.27594ZM4.00391 9.40609L7.23802 11.9999L4.00391 14.5936V9.40609ZM7.29845 12.0483C7.29846 12.0483 7.29844 12.0483 7.29845 12.0483V12.0483ZM7.29841 11.9514C7.2984 11.9514 7.29842 11.9514 7.29841 11.9514V11.9514Z" fill="#000000" />
<path fill-rule="evenodd" clip-rule="evenodd" d="M12.252 2.25C12.6662 2.25 13.002 2.58579 13.002 3V5.0005C13.002 5.41472 12.6662 5.7505 12.252 5.7505C11.8377 5.7505 11.502 5.41472 11.502 5.0005V3C11.502 2.58579 11.8377 2.25 12.252 2.25ZM12.252 7.58253C12.6662 7.58253 13.002 7.91832 13.002 8.33253V10.333C13.002 10.7472 12.6662 11.083 12.252 11.083C11.8377 11.083 11.502 10.7472 11.502 10.333V8.33253C11.502 7.91832 11.8377 7.58253 12.252 7.58253ZM12.252 12.917C12.6662 12.917 13.002 13.2528 13.002 13.667V15.6675C13.002 16.0817 12.6662 16.4175 12.252 16.4175C11.8377 16.4175 11.502 16.0817 11.502 15.6675V13.667C11.502 13.2528 11.8377 12.917 12.252 12.917ZM12.252 18.2495C12.6662 18.2495 13.002 18.5853 13.002 18.9995V21C13.002 21.4142 12.6662 21.75 12.252 21.75C11.8377 21.75 11.502 21.4142 11.502 21V18.9995C11.502 18.5853 11.8377 18.2495 12.252 18.2495Z" fill="#000000" />
<path fill-rule="evenodd" clip-rule="evenodd" d="M19.659 8.15453C20.5997 7.4008 21.996 8.06871 21.996 9.27594V14.7238C21.996 15.931 20.5997 16.5989 19.659 15.8452L16.2631 13.1216C15.5452 12.5461 15.5451 11.4538 16.263 10.8782C16.263 10.8781 16.2629 10.8782 16.263 10.8782L19.659 8.15453ZM20.496 9.40609L17.2619 11.9999L20.496 14.5936V9.40609Z" fill="#000000" />
</svg>