<svg width="24px"  height="24px"  viewBox="0 0 25 24" fill="none" xmlns="http://www.w3.org/2000/svg">
<path d="M12.3125 21.2782C12.1136 21.2782 11.9228 21.1992 11.7822 21.0585C11.6415 20.9179 11.5625 20.7271 11.5625 20.5282V3.28516C11.5625 3.08624 11.6415 2.89547 11.7822 2.75482C11.9228 2.61417 12.1136 2.53516 12.3125 2.53516C12.5114 2.53516 12.7022 2.61417 12.8428 2.75482C12.9835 2.89547 13.0625 3.08624 13.0625 3.28516V20.5282C13.0625 20.7271 12.9835 20.9179 12.8428 21.0585C12.7022 21.1992 12.5114 21.2782 12.3125 21.2782Z" fill="#000000" />
<path d="M4.00354 16.0714C3.78706 16.0707 3.5735 16.0215 3.37854 15.9274C3.13287 15.8109 2.92558 15.6267 2.78102 15.3964C2.63647 15.1661 2.56067 14.8993 2.56253 14.6274V9.1774C2.56288 8.90638 2.63975 8.64097 2.7843 8.41172C2.92885 8.18246 3.13521 7.9987 3.37961 7.88157C3.62401 7.76443 3.89652 7.71871 4.16577 7.74964C4.43502 7.78057 4.69006 7.8869 4.90153 8.0564L8.30153 10.7804C8.46909 10.9153 8.60428 11.086 8.69717 11.28C8.79006 11.474 8.83827 11.6863 8.83827 11.9014C8.83827 12.1165 8.79006 12.3288 8.69717 12.5228C8.60428 12.7168 8.46909 12.8875 8.30153 13.0224L4.90153 15.7484C4.64801 15.9557 4.33102 16.0698 4.00354 16.0714ZM4.06253 9.3104V14.5064L7.29953 11.9064L4.06253 9.3104Z" fill="#000000" />
<path d="M20.6218 16.0708C20.2941 16.0709 19.9763 15.9583 19.7218 15.7518L16.3218 13.0288C16.1537 12.8941 16.018 12.7233 15.9248 12.5291C15.8316 12.3349 15.7832 12.1222 15.7832 11.9068C15.7832 11.6914 15.8316 11.4787 15.9248 11.2845C16.018 11.0903 16.1537 10.9195 16.3218 10.7848L19.7218 8.05982C19.9332 7.89045 20.1882 7.78424 20.4574 7.75345C20.7265 7.72267 20.9989 7.76855 21.2432 7.88581C21.4874 8.00306 21.6935 8.18692 21.8378 8.4162C21.9821 8.64549 22.0587 8.91088 22.0588 9.1818V14.6318C22.061 14.9038 21.9854 15.1707 21.8408 15.4011C21.6962 15.6314 21.4887 15.8156 21.2428 15.9318C21.0487 16.0238 20.8365 16.0713 20.6218 16.0708ZM17.3258 11.9068L20.5618 14.5068V9.3068L17.3258 11.9068Z" fill="#000000" />
</svg>