<svg width="24px"  height="24px"  viewBox="0 0 25 24" fill="none" xmlns="http://www.w3.org/2000/svg">
<path fill-rule="evenodd" clip-rule="evenodd" d="M12.5642 3.90234C12.0686 3.90234 11.6668 4.30409 11.6668 4.79967V14.5148C11.6668 15.5781 10.5157 16.2425 9.59495 15.7107L8.3873 15.0132C7.70154 14.6171 6.82847 15.0009 6.65668 15.774C6.5609 16.205 6.71526 16.6311 7.04098 16.8795L6.58624 17.4759L7.04098 16.8795C8.02979 17.6334 9.6491 18.7855 11.1691 19.5112C12.2663 20.0352 13.7453 20.245 15.1836 20.0916C16.6292 19.9374 17.9138 19.4301 18.6934 18.6505C19.3958 17.9481 19.9817 16.8347 20.2762 15.5791C20.5701 14.3264 20.5556 13.0109 20.1493 11.9141C19.8066 10.9893 19.0246 10.4955 17.8963 10.2112C17.0444 9.99648 16.1276 9.92995 15.2126 9.86355C14.8755 9.83909 14.5387 9.81465 14.2055 9.78282C13.825 9.74649 13.5327 9.42988 13.5268 9.04774L13.4614 4.78589C13.4539 4.29574 13.0544 3.90234 12.5642 3.90234ZM10.1668 4.79967C10.1668 3.47566 11.2402 2.40234 12.5642 2.40234C13.8738 2.40234 14.9411 3.45336 14.9612 4.76286L15.0162 8.3439C15.0788 8.34848 15.1423 8.35306 15.2065 8.3577C16.1541 8.42614 17.2717 8.50685 18.2629 8.75665C19.6132 9.09693 20.9663 9.80177 21.5558 11.393L21.5559 11.3931C22.0877 12.8288 22.0807 14.4548 21.7366 15.9217C21.3932 17.3856 20.6955 18.7697 19.754 19.7112C18.6496 20.8156 16.9918 21.4072 15.3427 21.5831C13.6863 21.7598 11.9184 21.5313 10.5228 20.8649C8.85856 20.0702 7.13956 18.8409 6.1315 18.0723C5.31554 17.4502 4.97674 16.4191 5.1924 15.4486C5.58402 13.6863 7.57427 12.8114 9.13753 13.7143L10.1668 14.3088V4.79967Z" fill="#000000" />
<path fill-rule="evenodd" clip-rule="evenodd" d="M3.25 7.31641C3.66421 7.31641 4 7.65219 4 8.06641V9.29723H5.19192C5.60614 9.29723 5.94192 9.63301 5.94192 10.0472C5.94192 10.4614 5.60614 10.7972 5.19192 10.7972H3.25C2.83579 10.7972 2.5 10.4614 2.5 10.0472V8.06641C2.5 7.65219 2.83579 7.31641 3.25 7.31641Z" fill="#000000" />
<path fill-rule="evenodd" clip-rule="evenodd" d="M8.14453 7.92969C7.73032 7.92969 7.39453 7.5939 7.39453 7.17969V5.94887H6.20261C5.78839 5.94887 5.45261 5.61308 5.45261 5.19887C5.45261 4.78465 5.78839 4.44887 6.20261 4.44887H8.14453C8.55874 4.44887 8.89453 4.78465 8.89453 5.19887V7.17969C8.89453 7.5939 8.55874 7.92969 8.14453 7.92969Z" fill="#000000" />
<path fill-rule="evenodd" clip-rule="evenodd" d="M8.69261 4.67883C8.98432 4.97289 8.98242 5.44776 8.68836 5.73948L3.79383 10.595C3.49976 10.8867 3.02489 10.8848 2.73317 10.5907C2.44146 10.2966 2.44336 9.82177 2.73742 9.53005L7.63196 4.67458C7.92602 4.38286 8.40089 4.38477 8.69261 4.67883Z" fill="#000000" />
</svg>