<svg width="24px"  height="24px"  viewBox="0 0 25 24" fill="none" xmlns="http://www.w3.org/2000/svg">
<path fill-rule="evenodd" clip-rule="evenodd" d="M12.8106 4.10938C12.3386 4.10938 11.956 4.49199 11.956 4.96396V14.427C11.956 15.4776 10.8185 16.1342 9.90871 15.6087L8.73239 14.9293C8.07581 14.5501 7.2399 14.9175 7.07541 15.6577C6.98367 16.0705 7.13164 16.4778 7.44254 16.7148C8.40545 17.449 9.98144 18.5702 11.4601 19.2762C12.525 19.7847 13.9619 19.9889 15.36 19.8397C16.7654 19.6898 18.0118 19.1968 18.767 18.4416C19.4481 17.7605 20.0173 16.6796 20.3036 15.4592C20.5892 14.2418 20.5748 12.9644 20.1806 11.9006C19.8501 11.0083 19.0957 10.5301 17.9997 10.2539C17.1716 10.0452 16.2811 9.98061 15.3904 9.91597C15.0618 9.89212 14.7331 9.86827 14.4075 9.83717C14.027 9.80084 13.7347 9.48423 13.7288 9.10209L13.6651 4.95083C13.6579 4.48403 13.2775 4.10938 12.8106 4.10938ZM10.456 4.96396C10.456 3.66356 11.5102 2.60938 12.8106 2.60938C14.0969 2.60938 15.1452 3.64165 15.1649 4.9278L15.2182 8.39809C15.2729 8.40208 15.3283 8.40608 15.3843 8.41012C16.3076 8.4768 17.3989 8.5556 18.3662 8.79938C19.6843 9.13156 21.0098 9.82084 21.5872 11.3795L21.5872 11.3795C22.1069 12.7823 22.0998 14.3703 21.764 15.8018C21.4288 17.2305 20.7478 18.5821 19.8277 19.5023C18.7477 20.5823 17.128 21.1596 15.5191 21.3312C13.9029 21.5037 12.1771 21.2808 10.8138 20.6298C9.19091 19.8549 7.51522 18.6565 6.53306 17.9077C5.73191 17.2968 5.39951 16.2846 5.61113 15.3323C5.99544 13.6029 7.94854 12.7443 9.48263 13.6304L10.456 14.1926V4.96396Z" fill="#000000" />
<path fill-rule="evenodd" clip-rule="evenodd" d="M6.66406 4.64062C7.07828 4.64062 7.41406 4.97641 7.41406 5.39062V6.59202H8.61546C9.02967 6.59202 9.36546 6.92781 9.36546 7.34202C9.36546 7.75623 9.02967 8.09202 8.61546 8.09202H6.66406C6.24985 8.09202 5.91406 7.75623 5.91406 7.34202V5.39062C5.91406 4.97641 6.24985 4.64062 6.66406 4.64062Z" fill="#000000" />
<path fill-rule="evenodd" clip-rule="evenodd" d="M2.5 8.80859C2.5 8.39438 2.83579 8.05859 3.25 8.05859H5.2014C5.61561 8.05859 5.9514 8.39438 5.9514 8.80859V10.76C5.9514 11.1742 5.61561 11.51 5.2014 11.51C4.78718 11.51 4.4514 11.1742 4.4514 10.76V9.55859H3.25C2.83579 9.55859 2.5 9.22281 2.5 8.80859Z" fill="#000000" />
<path fill-rule="evenodd" clip-rule="evenodd" d="M5.73173 8.27826C6.02462 8.57116 6.02462 9.04603 5.73173 9.33892L3.78033 11.2903C3.48744 11.5832 3.01256 11.5832 2.71967 11.2903C2.42678 10.9974 2.42678 10.5226 2.71967 10.2297L4.67107 8.27826C4.96396 7.98537 5.43883 7.98537 5.73173 8.27826Z" fill="#000000" />
<path fill-rule="evenodd" clip-rule="evenodd" d="M9.14579 4.8603C9.43868 5.15319 9.43868 5.62806 9.14579 5.92096L7.19439 7.87235C6.9015 8.16524 6.42663 8.16524 6.13373 7.87235C5.84084 7.57946 5.84084 7.10458 6.13373 6.81169L8.08513 4.86029C8.37802 4.5674 8.8529 4.5674 9.14579 4.8603Z" fill="#000000" />
<path fill-rule="evenodd" clip-rule="evenodd" d="M12.8322 4.15625C12.3648 4.15625 11.986 4.5351 11.986 5.00243V14.4159C11.986 15.4641 10.8512 16.1191 9.9435 15.5949L8.77334 14.919C8.1225 14.5431 7.29389 14.9073 7.13084 15.641C7.0399 16.0503 7.1866 16.4538 7.4946 16.6886C8.45241 17.4189 10.0199 18.534 11.4904 19.2362C12.549 19.7416 13.9775 19.9447 15.3678 19.7964C16.7653 19.6473 18.0042 19.1571 18.7546 18.4068C19.4315 17.7298 19.9975 16.6553 20.2821 15.4418C20.5661 14.2314 20.5516 12.9615 20.1599 11.9041C19.8317 11.0183 19.0828 10.5431 17.9931 10.2685C17.1697 10.061 16.2844 9.99674 15.3985 9.93245C15.0715 9.90872 14.7444 9.88498 14.4203 9.85403C14.0398 9.8177 13.7475 9.50109 13.7417 9.11895L13.6782 4.98944C13.6711 4.52722 13.2944 4.15625 12.8322 4.15625ZM10.486 5.00243C10.486 3.70667 11.5364 2.65625 12.8322 2.65625C14.1139 2.65625 15.1584 3.68484 15.1781 4.9664L15.231 8.41492C15.2842 8.41879 15.338 8.42268 15.3924 8.42661C16.3109 8.49293 17.397 8.57136 18.3596 8.81396C19.6714 9.14454 20.9914 9.83077 21.5665 11.383L21.5665 11.383C22.0838 12.7794 22.0767 14.3598 21.7425 15.7844C21.4089 17.2061 20.7312 18.5514 19.8153 19.4674C18.7401 20.5426 17.1279 21.1171 15.5269 21.2879C13.9186 21.4595 12.2011 21.2377 10.8441 20.5898C9.22935 19.8188 7.56218 18.6264 6.58511 17.8815C5.78688 17.2728 5.45574 16.2643 5.66656 15.3156C6.04944 13.5927 7.99523 12.7373 9.52358 13.6201L10.486 14.176V5.00243Z" fill="#000000" />
<path fill-rule="evenodd" clip-rule="evenodd" d="M6.69238 4.62891C7.1066 4.62891 7.44238 4.96469 7.44238 5.37891V6.60973H8.63431C9.04852 6.60973 9.38431 6.94551 9.38431 7.35973C9.38431 7.77394 9.04852 8.10973 8.63431 8.10973H6.69238C6.27817 8.10973 5.94238 7.77394 5.94238 7.35973V5.37891C5.94238 4.96469 6.27817 4.62891 6.69238 4.62891Z" fill="#000000" />
<path fill-rule="evenodd" clip-rule="evenodd" d="M5.21387 11.5156C4.79965 11.5156 4.46387 11.1798 4.46387 10.7656L4.46387 9.53481L3.27194 9.53481C2.85773 9.53481 2.52194 9.19902 2.52194 8.78481C2.52194 8.37059 2.85773 8.03481 3.27194 8.03481L5.21387 8.03481C5.62808 8.03481 5.96387 8.37059 5.96387 8.78481L5.96387 10.7656C5.96387 11.1798 5.62808 11.5156 5.21387 11.5156Z" fill="#000000" />
<path fill-rule="evenodd" clip-rule="evenodd" d="M9.15935 4.84334C9.45514 5.13332 9.45984 5.60817 9.16987 5.90395L7.22795 7.88477C6.93797 8.18055 6.46312 8.18526 6.16734 7.89529C5.87155 7.60531 5.86685 7.13046 6.15682 6.83468L8.09874 4.85386C8.38872 4.55808 8.86357 4.55337 9.15935 4.84334Z" fill="#000000" />
<path fill-rule="evenodd" clip-rule="evenodd" d="M2.7469 11.3012C2.45111 11.0112 2.44641 10.5364 2.73638 10.2406L4.67831 8.25976C4.96828 7.96398 5.44313 7.95927 5.73891 8.24924C6.0347 8.53922 6.0394 9.01407 5.74943 9.30985L3.80751 11.2907C3.51753 11.5865 3.04268 11.5912 2.7469 11.3012Z" fill="#000000" />
</svg>