<svg width="24px"  height="24px"  viewBox="0 0 25 24" fill="none" xmlns="http://www.w3.org/2000/svg">
<path fill-rule="evenodd" clip-rule="evenodd" d="M10.9147 4.93686C9.33225 3.35438 6.7685 3.35438 5.18602 4.93686C3.60466 6.51822 3.60466 9.0831 5.18602 10.6645L13.5851 19.0635C13.5852 19.0636 13.5851 19.0635 13.5851 19.0635C15.1676 20.6449 17.7315 20.6451 19.314 19.0637C20.8952 17.4825 20.8955 14.9176 19.314 13.335C19.314 13.335 19.3141 13.3351 19.314 13.335L10.9147 4.93686ZM11.9754 3.87617C9.80709 1.70793 6.29361 1.70794 4.12536 3.8762C1.95821 6.04334 1.95821 9.55797 4.12536 11.7251L12.5246 20.1244C14.6928 22.2913 18.2063 22.2915 20.3745 20.1245C22.5417 17.9573 22.5416 14.4426 20.3748 12.2745L11.9754 3.87617C11.9753 3.87615 11.9754 3.87618 11.9754 3.87617Z" fill="#000000" />
<path fill-rule="evenodd" clip-rule="evenodd" d="M13.8942 5.86811C14.1871 6.161 14.1871 6.63587 13.8942 6.92877L7.18463 13.6384C6.89173 13.9313 6.41686 13.9313 6.12397 13.6384C5.83107 13.3455 5.83107 12.8706 6.12397 12.5777L12.8336 5.86811C13.1265 5.57521 13.6013 5.57521 13.8942 5.86811Z" fill="#000000" />
<path fill-rule="evenodd" clip-rule="evenodd" d="M18.447 10.4189C18.7399 10.7118 18.7399 11.1867 18.447 11.4795L11.7374 18.1892C11.4445 18.4821 10.9696 18.4821 10.6767 18.1892C10.3838 17.8963 10.3838 17.4214 10.6767 17.1285L17.3863 10.4189C17.6792 10.126 18.1541 10.126 18.447 10.4189Z" fill="#000000" />
<path fill-rule="evenodd" clip-rule="evenodd" d="M11.251 11.999C11.251 11.4798 11.6717 11.0586 12.1913 11.0586C12.7103 11.0586 13.1317 11.4792 13.1317 11.999C13.1317 12.5186 12.7103 12.9393 12.1913 12.9393C11.6717 12.9393 11.251 12.5181 11.251 11.999Z" fill="#000000" />
</svg>