<svg width="24px"  height="24px"  viewBox="0 0 25 24" fill="none" xmlns="http://www.w3.org/2000/svg">
<path d="M16.9785 21.7525C16.3197 21.7535 15.6672 21.6243 15.0585 21.3724C14.4498 21.1205 13.8969 20.7508 13.4315 20.2845L3.96851 10.8204C3.02699 9.87893 2.49805 8.60197 2.49805 7.27046C2.49805 5.93895 3.02699 4.66198 3.96851 3.72046C4.91002 2.77894 6.18699 2.25 7.51849 2.25C8.85 2.25 10.127 2.77894 11.0685 3.72046L20.5325 13.1844C21.2345 13.886 21.7126 14.7801 21.9063 15.7535C22.1 16.7269 22.0006 17.7359 21.6207 18.6528C21.2407 19.5697 20.5973 20.3532 19.7718 20.9043C18.9464 21.4553 17.976 21.7491 16.9835 21.7485L16.9785 21.7525ZM14.4915 19.2245C15.1614 19.865 16.0526 20.2226 16.9795 20.2226C17.9064 20.2226 18.7976 19.865 19.4675 19.2245C20.127 18.5644 20.4975 17.6695 20.4975 16.7365C20.4975 15.8034 20.127 14.9085 19.4675 14.2485L10.0035 4.78445C9.33364 4.14416 8.44265 3.78683 7.51599 3.78683C6.58933 3.78683 5.69837 4.14416 5.0285 4.78445C4.36997 5.44502 4.00018 6.33972 4.00018 7.27246C4.00018 8.2052 4.36997 9.09989 5.0285 9.76045L14.4915 19.2245Z" fill="#000000" />
<path d="M7.51637 21.7524C6.52396 21.7528 5.5537 21.4589 4.7284 20.9077C3.9031 20.3566 3.25985 19.5731 2.88001 18.6562C2.50017 17.7394 2.40082 16.7305 2.59455 15.7572C2.78829 14.7838 3.2664 13.8899 3.96836 13.1884L13.4324 3.72437C14.3739 2.78285 15.6509 2.25391 16.9824 2.25391C18.3139 2.25391 19.5908 2.78285 20.5324 3.72437C21.4739 4.66588 22.0028 5.94286 22.0028 7.27437C22.0028 8.60588 21.4739 9.88285 20.5324 10.8244L11.0694 20.2884C10.603 20.7547 10.0489 21.1241 9.43913 21.3753C8.82934 21.6266 8.17588 21.7547 7.51637 21.7524ZM16.9793 3.75237C16.5173 3.75141 16.0597 3.84193 15.6329 4.01871C15.206 4.19549 14.8184 4.45503 14.4923 4.78236L5.02836 14.2464C4.36885 14.9064 3.99839 15.8013 3.99839 16.7344C3.99839 17.6674 4.36885 18.5623 5.02836 19.2224C5.69827 19.863 6.58947 20.2205 7.51637 20.2205C8.44327 20.2205 9.33446 19.863 10.0044 19.2224L19.4674 9.75836C19.9595 9.26636 20.2947 8.63944 20.4305 7.95691C20.5663 7.27438 20.4967 6.56691 20.2303 5.92398C19.964 5.28105 19.513 4.73155 18.9343 4.345C18.3556 3.95845 17.6753 3.75221 16.9793 3.75237Z" fill="#000000" />
<path d="M12.2486 12.9425C12.7677 12.9425 13.1886 12.5216 13.1886 12.0025C13.1886 11.4834 12.7677 11.0625 12.2486 11.0625C11.7294 11.0625 11.3086 11.4834 11.3086 12.0025C11.3086 12.5216 11.7294 12.9425 12.2486 12.9425Z" fill="#000000" />
</svg>