<svg width="24px"  height="24px"  viewBox="0 0 25 24" fill="none" xmlns="http://www.w3.org/2000/svg">
<path d="M6.77576 11H5.59375C5.39484 11 5.20407 10.921 5.06342 10.7803C4.92276 10.6397 4.84375 10.4489 4.84375 10.25C4.84375 10.0511 4.92276 9.86032 5.06342 9.71967C5.20407 9.57901 5.39484 9.5 5.59375 9.5H6.77576C6.97467 9.5 7.16544 9.57901 7.30609 9.71967C7.44674 9.86032 7.52576 10.0511 7.52576 10.25C7.52576 10.4489 7.44674 10.6397 7.30609 10.7803C7.16544 10.921 6.97467 11 6.77576 11Z" fill="#000000" />
<path d="M7.94027 8.55551C7.84176 8.55575 7.74417 8.53642 7.65319 8.49865C7.56221 8.46089 7.47965 8.40544 7.41027 8.33551L6.28527 7.21051C6.15279 7.06833 6.08067 6.88027 6.0841 6.68597C6.08753 6.49167 6.16623 6.30629 6.30364 6.16888C6.44106 6.03147 6.62643 5.95276 6.82073 5.94934C7.01504 5.94591 7.2031 6.01803 7.34527 6.15051L8.47027 7.27551C8.57503 7.38039 8.64634 7.51396 8.67523 7.65936C8.70411 7.80476 8.68927 7.95547 8.63256 8.09243C8.57585 8.2294 8.47981 8.34647 8.35659 8.42889C8.23338 8.51131 8.08851 8.55538 7.94027 8.55551Z" fill="#000000" />
<path d="M10.4102 7.36951C10.2112 7.36951 10.0205 7.29049 9.87982 7.14984C9.73917 7.00919 9.66016 6.81842 9.66016 6.61951V5.4375C9.66016 5.23859 9.73917 5.04782 9.87982 4.90717C10.0205 4.76651 10.2112 4.6875 10.4102 4.6875C10.6091 4.6875 10.7998 4.76651 10.9405 4.90717C11.0811 5.04782 11.1602 5.23859 11.1602 5.4375V6.61951C11.1602 6.81842 11.0811 7.00919 10.9405 7.14984C10.7998 7.29049 10.6091 7.36951 10.4102 7.36951Z" fill="#000000" />
<path d="M14.0234 19.4281C13.8245 19.4281 13.6338 19.3491 13.4931 19.2084C13.3525 19.0678 13.2734 18.877 13.2734 18.6781V17.4961C13.2734 17.2972 13.3525 17.1064 13.4931 16.9658C13.6338 16.8251 13.8245 16.7461 14.0234 16.7461C14.2223 16.7461 14.4131 16.8251 14.5538 16.9658C14.6944 17.1064 14.7734 17.2972 14.7734 17.4961V18.6821C14.7724 18.8803 14.6929 19.0701 14.5523 19.2098C14.4118 19.3496 14.2217 19.4281 14.0234 19.4281Z" fill="#000000" />
<path d="M17.5812 18.2023C17.4827 18.2026 17.3851 18.1832 17.2941 18.1455C17.2031 18.1077 17.1206 18.0523 17.0512 17.9823L15.9262 16.8573C15.8525 16.7887 15.7934 16.7059 15.7524 16.6139C15.7114 16.5219 15.6894 16.4225 15.6876 16.3218C15.6858 16.2211 15.7044 16.1211 15.7421 16.0277C15.7798 15.9343 15.8359 15.8495 15.9072 15.7783C15.9784 15.7071 16.0632 15.6509 16.1566 15.6132C16.25 15.5755 16.35 15.5569 16.4507 15.5587C16.5514 15.5605 16.6507 15.5825 16.7427 15.6235C16.8347 15.6645 16.9175 15.7236 16.9862 15.7973L18.1112 16.9223C18.216 17.0272 18.2873 17.1608 18.3162 17.3062C18.345 17.4516 18.3302 17.6023 18.2735 17.7393C18.2168 17.8762 18.1207 17.9933 17.9975 18.0757C17.8743 18.1581 17.7294 18.2022 17.5812 18.2023Z" fill="#000000" />
<path d="M18.8383 14.6133H17.6562C17.4573 14.6133 17.2666 14.5342 17.1259 14.3936C16.9853 14.2529 16.9062 14.0622 16.9062 13.8633C16.9062 13.6644 16.9853 13.4736 17.1259 13.3329C17.2666 13.1923 17.4573 13.1133 17.6562 13.1133H18.8383C19.0372 13.1133 19.2279 13.1923 19.3686 13.3329C19.5092 13.4736 19.5883 13.6644 19.5883 13.8633C19.5883 14.0622 19.5092 14.2529 19.3686 14.3936C19.2279 14.5342 19.0372 14.6133 18.8383 14.6133Z" fill="#000000" />
<path d="M15.3037 12.749C15.2434 12.7491 15.1833 12.7417 15.1247 12.727C14.9993 12.696 14.8839 12.6332 14.7898 12.5445C14.6957 12.4559 14.6262 12.3444 14.5878 12.221L14.1877 10.937L11.8437 9.565C11.7447 9.50705 11.6604 9.42719 11.5971 9.33151C11.5338 9.23584 11.4933 9.1269 11.4787 9.01312C11.4642 8.89934 11.4759 8.78375 11.513 8.6752C11.5501 8.56666 11.6116 8.46807 11.6927 8.38702L13.0278 7.052C12.6589 6.44521 12.5044 5.73211 12.5893 5.02707C12.6742 4.32203 12.9934 3.66592 13.4957 3.164C14.0991 2.58739 14.9016 2.26562 15.7363 2.26562C16.5709 2.26562 17.3733 2.58739 17.9767 3.164C18.5532 3.74197 18.8833 4.52082 18.8978 5.33701C19.7293 5.35768 20.5194 5.70484 21.0971 6.30338C21.6748 6.90191 21.9937 7.70375 21.9848 8.53555C21.976 9.36735 21.6402 10.1623 21.05 10.7484C20.4598 11.3346 19.6626 11.665 18.8307 11.668C18.243 11.6696 17.6665 11.5064 17.1667 11.197L15.8347 12.529C15.7652 12.599 15.6825 12.6545 15.5913 12.6923C15.5002 12.7301 15.4024 12.7493 15.3037 12.749ZM13.4397 8.76102L15.1967 9.79001C15.3581 9.88428 15.4783 10.0356 15.5337 10.214L15.6507 10.59L16.5777 9.664C16.6511 9.58799 16.7403 9.52902 16.8389 9.49118C16.9376 9.45334 17.0433 9.43757 17.1487 9.44501C17.254 9.45095 17.3568 9.47895 17.4505 9.52719C17.5442 9.57543 17.6267 9.64282 17.6927 9.72501C18.001 10.0136 18.4085 10.1723 18.8307 10.168C19.0744 10.1683 19.3152 10.1152 19.5362 10.0124C19.7571 9.90958 19.9528 9.7596 20.1095 9.57297C20.2662 9.38634 20.3801 9.16762 20.4432 8.93222C20.5062 8.69682 20.5169 8.45047 20.4744 8.21051C20.4319 7.97055 20.3374 7.7428 20.1974 7.54333C20.0574 7.34387 19.8753 7.17754 19.6641 7.05603C19.4528 6.93452 19.2176 6.86079 18.9747 6.84006C18.7319 6.81932 18.4875 6.85207 18.2587 6.936C18.1248 6.98604 17.9792 6.99627 17.8395 6.96539C17.6999 6.93452 17.5721 6.86388 17.4717 6.76202C17.3704 6.6611 17.3 6.53326 17.269 6.39362C17.238 6.25397 17.2476 6.10838 17.2967 5.97403C17.4065 5.67657 17.4291 5.35396 17.3617 5.04413C17.2944 4.7343 17.14 4.4501 16.9167 4.22501C16.5992 3.92087 16.1765 3.7511 15.7367 3.7511C15.297 3.7511 14.8743 3.92087 14.5567 4.22501C14.4015 4.37993 14.2784 4.56395 14.1944 4.76651C14.1104 4.96907 14.0672 5.18622 14.0672 5.40552C14.0672 5.62481 14.1104 5.84196 14.1944 6.04453C14.2784 6.24709 14.4015 6.4311 14.5567 6.58603C14.6264 6.65559 14.6817 6.73819 14.7194 6.82913C14.7571 6.92007 14.7765 7.01758 14.7765 7.11603C14.7765 7.21448 14.7571 7.31195 14.7194 7.40289C14.6817 7.49384 14.6264 7.57646 14.5567 7.64603L13.4397 8.76102Z" fill="#000000" />
<path d="M8.76219 21.7349C7.93449 21.735 7.13982 21.4103 6.54906 20.8306C5.9583 20.2509 5.61865 19.4624 5.60319 18.6349C4.77173 18.6143 3.98176 18.2673 3.40404 17.669C2.82632 17.0707 2.50725 16.269 2.51579 15.4373C2.52433 14.6057 2.85978 13.8107 3.44966 13.2244C4.03954 12.6381 4.83648 12.3074 5.6682 12.3039C6.24986 12.3025 6.82056 12.462 7.31718 12.7649L9.1172 10.9649C9.22704 10.8556 9.36791 10.783 9.52058 10.7569C9.67326 10.7307 9.83029 10.7524 9.9702 10.8189L12.5872 12.0679C12.686 12.1157 12.773 12.1846 12.8421 12.2698C12.9112 12.355 12.9608 12.4544 12.9872 12.5609L13.4502 14.3929C13.4817 14.519 13.4798 14.6512 13.4447 14.7763C13.4097 14.9015 13.3426 15.0154 13.2502 15.1069L11.4502 16.9069C11.7462 17.3865 11.9089 17.9365 11.9213 18.5C11.9338 19.0635 11.7956 19.6201 11.521 20.1123C11.2464 20.6045 10.8453 21.0146 10.3593 21.3C9.87326 21.5854 9.31982 21.7359 8.75618 21.7359L8.76219 21.7349ZM6.4962 16.9839C6.61634 16.9848 6.73449 17.0146 6.84074 17.0707C6.947 17.1268 7.03825 17.2075 7.10683 17.3062C7.1754 17.4048 7.21933 17.5185 7.23488 17.6376C7.25043 17.7568 7.23714 17.8779 7.19618 17.9909C7.10291 18.2423 7.07187 18.5126 7.10573 18.7787C7.13958 19.0447 7.23734 19.2986 7.39061 19.5187C7.54388 19.7388 7.74812 19.9185 7.98592 20.0425C8.22371 20.1665 8.48799 20.2312 8.75618 20.2309C9.08307 20.2301 9.40257 20.1334 9.67497 19.9527C9.94738 19.772 10.1607 19.5153 10.2885 19.2144C10.4163 18.9135 10.453 18.5817 10.3939 18.2602C10.3348 17.9387 10.1826 17.6416 9.95619 17.4059L9.91719 17.3699C9.84749 17.3002 9.79222 17.2175 9.7545 17.1265C9.71678 17.0354 9.69734 16.9379 9.69734 16.8394C9.69734 16.7408 9.71678 16.6433 9.7545 16.5523C9.79222 16.4612 9.84749 16.3785 9.91719 16.3089L11.8812 14.3449L11.6082 13.2679L9.78718 12.3989L7.89818 14.2879C7.7575 14.4282 7.56688 14.507 7.36818 14.5069C7.16948 14.507 6.97886 14.4282 6.83818 14.2879C6.68337 14.132 6.49921 14.0085 6.29631 13.9244C6.09341 13.8403 5.87584 13.7973 5.6562 13.7979C5.32612 13.7981 5.00352 13.8962 4.7292 14.0798C4.45489 14.2634 4.24115 14.5243 4.11507 14.8293C3.98898 15.1344 3.95619 15.47 4.02083 15.7937C4.08546 16.1174 4.24462 16.4146 4.47819 16.6479C4.70391 16.8708 4.9883 17.0251 5.29829 17.0928C5.60828 17.1604 5.93112 17.1386 6.2292 17.0299C6.31463 16.9983 6.40513 16.9827 6.4962 16.9839Z" fill="#000000" />
</svg>