<svg width="24px"  height="24px"  viewBox="0 0 25 24" fill="none" xmlns="http://www.w3.org/2000/svg">
<path fill-rule="evenodd" clip-rule="evenodd" d="M13.9712 3.75012C13.9884 3.75131 14.007 3.75206 14.027 3.75206C14.0453 3.75206 14.0634 3.75141 14.0814 3.75012H16.4669C17.7556 3.75012 18.7445 4.19986 19.415 4.92004C20.0912 5.64627 20.5 6.70922 20.5 8.02747V15.9737C20.5 17.2914 20.0912 18.3541 19.415 19.0802C18.7444 19.8003 17.7552 20.2501 16.4659 20.2501H14.0732C14.0579 20.2492 14.0425 20.2487 14.027 20.2487C14.0094 20.2487 13.9932 20.2493 13.9798 20.2501H8.03216C6.74341 20.2501 5.75475 19.8004 5.08451 19.0804C4.40861 18.3543 4 17.2915 4 15.9737V8.02747C4 6.71005 4.41028 5.64696 5.08749 4.92032C5.75924 4.19954 6.74828 3.75012 8.03216 3.75012H13.9712ZM13.9973 2.25012H8.03216C6.37669 2.25012 4.97465 2.84129 3.99016 3.89764C3.01113 4.94814 2.5 6.39872 2.5 8.02747V15.9737C2.5 17.6011 3.00842 19.0516 3.98657 20.1024C4.97038 21.1593 6.3728 21.7501 8.03216 21.7501H16.4659C18.1256 21.7501 19.5285 21.1593 20.5127 20.1025C21.4913 19.0517 22 17.6012 22 15.9737V8.02747C22 6.39955 21.4913 4.94883 20.5129 3.89792C19.5289 2.84097 18.1262 2.25012 16.4669 2.25012H14.0237C14.0149 2.24996 14.0061 2.24996 13.9973 2.25012Z" fill="#000000" />
<path fill-rule="evenodd" clip-rule="evenodd" d="M10.4713 14.625C9.79964 14.625 9.25586 15.1688 9.25586 15.8404C9.25586 16.5108 9.7994 17.0548 10.4713 17.0548C10.8855 17.0548 11.2213 17.3906 11.2213 17.8048V21.0011C11.2213 21.4153 10.8855 21.7511 10.4713 21.7511C10.0571 21.7511 9.72126 21.4153 9.72126 21.0011V18.45C8.58629 18.1247 7.75586 17.0796 7.75586 15.8404C7.75586 14.3404 8.97121 13.125 10.4713 13.125C11.155 13.125 11.7748 13.3784 12.2487 13.7926C12.7228 13.3782 13.3432 13.125 14.0265 13.125C15.5253 13.125 16.7419 14.3401 16.7419 15.8404C16.7419 17.0853 15.9032 18.1341 14.7609 18.4543V21.002C14.7609 21.4162 14.4252 21.752 14.0109 21.752C13.5967 21.752 13.2609 21.4162 13.2609 21.002V17.8039C13.2609 17.3897 13.5967 17.0539 14.0109 17.0539C14.0237 17.0539 14.0358 17.0542 14.0466 17.0547C14.7085 17.044 15.2419 16.5039 15.2419 15.8404C15.2419 15.169 14.6974 14.625 14.0265 14.625C13.5434 14.625 13.1241 14.9108 12.9287 15.3301C12.8057 15.5943 12.5407 15.7632 12.2493 15.7634C11.9579 15.7636 11.6928 15.5949 11.5694 15.3309C11.3728 14.9103 10.9538 14.625 10.4713 14.625ZM13.9441 18.5506C13.9433 18.5505 13.9443 18.5507 13.9469 18.5509C13.9457 18.5508 13.9449 18.5507 13.9444 18.5507L13.9441 18.5506Z" fill="#000000" />
<path fill-rule="evenodd" clip-rule="evenodd" d="M14.0109 2.25C14.4252 2.25 14.7609 2.58579 14.7609 3V5.54863C15.9031 5.86865 16.7419 6.91668 16.7419 8.16259C16.7419 9.66289 15.5253 10.878 14.0265 10.878C13.3432 10.878 12.7228 10.6248 12.2487 10.2104C11.7748 10.6246 11.155 10.878 10.4713 10.878C8.97121 10.878 7.75586 9.66265 7.75586 8.16259C7.75586 6.92239 8.58642 5.87799 9.72126 5.55293V3.00195C9.72126 2.58773 10.0571 2.25195 10.4713 2.25195C10.8855 2.25195 11.2213 2.58773 11.2213 3.00195V6.19816C11.2213 6.61238 10.8855 6.94816 10.4713 6.94816C9.79916 6.94816 9.25586 7.49145 9.25586 8.16259C9.25586 8.83422 9.79964 9.378 10.4713 9.378C10.9538 9.378 11.3728 9.09272 11.5694 8.67208C11.6928 8.40808 11.9579 8.23945 12.2493 8.23962C12.5407 8.2398 12.8057 8.40875 12.9287 8.67289C13.1241 9.09225 13.5434 9.378 14.0265 9.378C14.6974 9.378 15.2419 8.83398 15.2419 8.16259C15.2419 7.49839 14.7087 6.95903 14.0466 6.94832C14.0358 6.9488 14.0237 6.94914 14.0109 6.94914C13.5967 6.94914 13.2609 6.61335 13.2609 6.19914V3C13.2609 2.58579 13.5967 2.25 14.0109 2.25ZM13.9444 5.45234C13.9448 5.45229 13.9457 5.4522 13.9469 5.45208C13.9443 5.45233 13.9432 5.45246 13.9441 5.45237L13.9444 5.45234ZM14.0931 6.94496C14.0926 6.945 14.0918 6.94509 14.0906 6.94522C14.0932 6.94497 14.0942 6.94484 14.0934 6.94492L14.0931 6.94496Z" fill="#000000" />
</svg>