<svg width="24px"  height="24px"  viewBox="0 0 25 24" fill="none" xmlns="http://www.w3.org/2000/svg">
<path fill-rule="evenodd" clip-rule="evenodd" d="M3.25 16.3594C3.66421 16.3594 4 16.6952 4 17.1094C4 18.8443 5.40668 20.2513 7.14286 20.2513C7.55707 20.2513 7.89286 20.587 7.89286 21.0013C7.89286 21.4155 7.55707 21.7513 7.14286 21.7513C4.5785 21.7513 2.5 19.673 2.5 17.1094C2.5 16.6952 2.83579 16.3594 3.25 16.3594Z" fill="#000000" />
<path fill-rule="evenodd" clip-rule="evenodd" d="M21.2503 16.3594C21.6645 16.3594 22.0003 16.6952 22.0003 17.1094C22.0003 19.673 19.9218 21.7513 17.3574 21.7513C16.9432 21.7513 16.6074 21.4155 16.6074 21.0013C16.6074 20.587 16.9432 20.2513 17.3574 20.2513C19.0936 20.2513 20.5003 18.8443 20.5003 17.1094C20.5003 16.6952 20.8361 16.3594 21.2503 16.3594Z" fill="#000000" />
<path fill-rule="evenodd" clip-rule="evenodd" d="M7.14286 3.75C5.40668 3.75 4 5.15693 4 6.89189C4 7.3061 3.66421 7.64189 3.25 7.64189C2.83579 7.64189 2.5 7.3061 2.5 6.89189C2.5 4.32826 4.5785 2.25 7.14286 2.25C7.55707 2.25 7.89286 2.58579 7.89286 3C7.89286 3.41421 7.55707 3.75 7.14286 3.75Z" fill="#000000" />
<path fill-rule="evenodd" clip-rule="evenodd" d="M16.6074 3C16.6074 2.58579 16.9432 2.25 17.3574 2.25C19.9218 2.25 22.0003 4.32826 22.0003 6.89189C22.0003 7.3061 21.6645 7.64189 21.2503 7.64189C20.8361 7.64189 20.5003 7.3061 20.5003 6.89189C20.5003 5.15693 19.0936 3.75 17.3574 3.75C16.9432 3.75 16.6074 3.41421 16.6074 3Z" fill="#000000" />
<path fill-rule="evenodd" clip-rule="evenodd" d="M10.4732 14.6211C9.80232 14.6211 9.25781 15.1651 9.25781 15.8365C9.25781 16.5067 9.80208 17.0509 10.4732 17.0509C10.8874 17.0509 11.2232 17.3867 11.2232 17.8009V20.9971C11.2232 21.4114 10.8874 21.7471 10.4732 21.7471C10.059 21.7471 9.72322 21.4114 9.72322 20.9971V18.446C8.58887 18.1206 7.75781 17.0758 7.75781 15.8365C7.75781 14.3362 8.97438 13.1211 10.4732 13.1211C11.1569 13.1211 11.7767 13.3745 12.2506 13.7887C12.7248 13.3743 13.3451 13.1211 14.0285 13.1211C15.5273 13.1211 16.7439 14.3362 16.7439 15.8365C16.7439 17.0814 15.9052 18.1301 14.7629 18.4504V20.8444C14.7731 20.8937 14.7785 20.9448 14.7785 20.9971C14.7785 21.3956 14.4676 21.7216 14.0752 21.7457C14.0601 21.7469 14.0378 21.7481 14.0129 21.7481C13.5987 21.7481 13.2629 21.4123 13.2629 20.9981V17.8C13.2629 17.3857 13.5987 17.05 14.0129 17.05C14.0256 17.05 14.0377 17.0503 14.0485 17.0508C14.7104 17.04 15.2439 16.5 15.2439 15.8365C15.2439 15.1651 14.6993 14.6211 14.0285 14.6211C13.5453 14.6211 13.126 14.9068 12.9307 15.3262C12.8076 15.5903 12.5427 15.7593 12.2513 15.7595C11.9599 15.7596 11.6948 15.591 11.5714 15.327C11.3748 14.9064 10.9558 14.6211 10.4732 14.6211ZM14.0953 17.0542C14.0961 17.0542 14.0951 17.0541 14.0925 17.0539C14.0937 17.054 14.0945 17.0541 14.095 17.0541L14.0953 17.0542ZM13.9461 18.5467C13.9452 18.5466 13.9463 18.5468 13.9488 18.547C13.9476 18.5469 13.9468 18.5468 13.9464 18.5468L13.9461 18.5467ZM14.0951 21.7439C14.0947 21.744 14.0939 21.7441 14.0927 21.7442C14.0952 21.7439 14.0963 21.7438 14.0954 21.7439L14.0951 21.7439Z" fill="#000000" />
<path fill-rule="evenodd" clip-rule="evenodd" d="M14.1106 2.25639C14.4862 2.2973 14.7785 2.61549 14.7785 3.00195C14.7785 3.05429 14.7731 3.10539 14.7629 3.1547V5.54863C15.9051 5.86865 16.7439 6.91668 16.7439 8.16259C16.7439 9.66289 15.5273 10.878 14.0285 10.878C13.3451 10.878 12.7248 10.6248 12.2506 10.2104C11.7767 10.6246 11.1569 10.878 10.4732 10.878C8.97438 10.878 7.75781 9.66289 7.75781 8.16259C7.75781 6.92235 8.58899 5.87819 9.72322 5.55304V3.00195C9.72322 2.58774 10.059 2.25195 10.4732 2.25195C10.8874 2.25195 11.2232 2.58774 11.2232 3.00195V6.19816C11.2232 6.61238 10.8874 6.94816 10.4732 6.94816C9.80184 6.94816 9.25781 7.4917 9.25781 8.16259C9.25781 8.83398 9.80232 9.378 10.4732 9.378C10.9558 9.378 11.3748 9.09271 11.5714 8.67208C11.6948 8.40808 11.9599 8.23945 12.2513 8.23962C12.5427 8.23979 12.8076 8.40874 12.9307 8.67289C13.126 9.09224 13.5453 9.378 14.0285 9.378C14.6993 9.378 15.2439 8.83398 15.2439 8.16259C15.2439 7.49839 14.7106 6.95903 14.0485 6.94833C14.0377 6.9488 14.0256 6.94914 14.0129 6.94914C13.5987 6.94914 13.2629 6.61335 13.2629 6.19914V3.00001C13.2629 2.77954 13.3599 2.57024 13.5281 2.42774C13.6897 2.29083 13.9014 2.2289 14.1106 2.25639ZM13.9463 5.45234C13.9468 5.4523 13.9476 5.45221 13.9488 5.45209C13.9462 5.45233 13.9452 5.45246 13.946 5.45238L13.9463 5.45234ZM14.095 6.94496C14.0946 6.945 14.0938 6.94509 14.0926 6.94521C14.0951 6.94497 14.0962 6.94484 14.0953 6.94493L14.095 6.94496Z" fill="#000000" />
</svg>