<svg width="24px"  height="24px"  viewBox="0 0 25 24" fill="none" xmlns="http://www.w3.org/2000/svg">
<path fill-rule="evenodd" clip-rule="evenodd" d="M17.9482 14.3369C18.2411 14.044 18.716 14.044 19.0088 14.3369L19.9419 15.2699C20.2348 15.5628 20.2348 16.0377 19.9419 16.3306C19.649 16.6235 19.1742 16.6235 18.8813 16.3306L17.9482 15.3975C17.6553 15.1046 17.6553 14.6298 17.9482 14.3369Z" fill="#000000" />
<path fill-rule="evenodd" clip-rule="evenodd" d="M18.7227 12.0195C18.7227 11.6053 19.0584 11.2695 19.4727 11.2695H21.2493C21.6635 11.2695 21.9993 11.6053 21.9993 12.0195C21.9993 12.4337 21.6635 12.7695 21.2493 12.7695H19.4727C19.0584 12.7695 18.7227 12.4337 18.7227 12.0195Z" fill="#000000" />
<path fill-rule="evenodd" clip-rule="evenodd" d="M4.55951 7.66498C4.85241 7.37209 5.32728 7.37209 5.62017 7.66498L6.55424 8.59905C6.84713 8.89194 6.84713 9.36681 6.55424 9.65971C6.26134 9.9526 5.78647 9.9526 5.49358 9.65971L4.55951 8.72564C4.26662 8.43275 4.26662 7.95788 4.55951 7.66498Z" fill="#000000" />
<path fill-rule="evenodd" clip-rule="evenodd" d="M2.5 12.0195C2.5 11.6053 2.83579 11.2695 3.25 11.2695H5.02667C5.44088 11.2695 5.77667 11.6053 5.77667 12.0195C5.77667 12.4337 5.44088 12.7695 5.02667 12.7695H3.25C2.83579 12.7695 2.5 12.4337 2.5 12.0195Z" fill="#000000" />
<path fill-rule="evenodd" clip-rule="evenodd" d="M19.9417 7.66471C20.2347 7.95745 20.235 8.43232 19.9422 8.72537L19.0091 9.65943C18.7164 9.95247 18.2415 9.95272 17.9485 9.65998C17.6554 9.36724 17.6552 8.89237 17.9479 8.59932L18.881 7.66526C19.1737 7.37221 19.6486 7.37197 19.9417 7.66471Z" fill="#000000" />
<path fill-rule="evenodd" clip-rule="evenodd" d="M6.55451 14.3371C6.84725 14.6302 6.84701 15.1051 6.55396 15.3978L5.6199 16.3309C5.32685 16.6236 4.85198 16.6234 4.55924 16.3303C4.2665 16.0373 4.26674 15.5624 4.55979 15.2697L5.49385 14.3366C5.7869 14.0438 6.26177 14.0441 6.55451 14.3371Z" fill="#000000" />
<path fill-rule="evenodd" clip-rule="evenodd" d="M14.1686 2.70952C14.5441 2.75042 14.8364 3.06862 14.8364 3.45508C14.8364 3.50742 14.8311 3.55851 14.8209 3.60783V6.10534C16.0003 6.4273 16.867 7.50584 16.867 8.78702C16.867 10.3226 15.623 11.5686 14.0864 11.5686C13.3785 11.5686 12.7373 11.3033 12.25 10.8702C11.7626 11.3032 11.1215 11.5686 10.4134 11.5686C8.8769 11.5686 7.63281 10.3226 7.63281 8.78702C7.63281 7.51148 8.49198 6.4368 9.66343 6.10964V3.45508C9.66343 3.04086 9.99921 2.70508 10.4134 2.70508C10.8276 2.70508 11.1634 3.04086 11.1634 3.45508V6.75738C11.1634 7.17159 10.8276 7.50738 10.4134 7.50738C9.70556 7.50738 9.13281 8.08059 9.13281 8.78702C9.13281 9.49512 9.70626 10.0686 10.4134 10.0686C10.9221 10.0686 11.3635 9.76798 11.5709 9.32392C11.6942 9.05984 11.9594 8.89113 12.2508 8.8913C12.5423 8.89146 12.8073 9.06048 12.9303 9.32471C13.1367 9.76791 13.5777 10.0686 14.0864 10.0686C14.7936 10.0686 15.367 9.49512 15.367 8.78702C15.367 8.09145 14.8118 7.52503 14.119 7.50778C13.9262 7.52018 13.7349 7.45769 13.5861 7.33159C13.4179 7.18909 13.3209 6.97979 13.3209 6.75932V3.45313C13.3209 3.23267 13.4179 3.02337 13.5861 2.88087C13.7477 2.74395 13.9593 2.68202 14.1686 2.70952Z" fill="#000000" />
<path fill-rule="evenodd" clip-rule="evenodd" d="M10.4134 13.9297C9.70603 13.9297 9.13281 14.5034 9.13281 15.2103C9.13281 15.9179 9.70579 16.4909 10.4134 16.4909C10.8276 16.4909 11.1634 16.8267 11.1634 17.2409V20.5432C11.1634 20.9574 10.8276 21.2932 10.4134 21.2932C9.99921 21.2932 9.66343 20.9574 9.66343 20.5432V17.8887C8.49186 17.5614 7.63281 16.4865 7.63281 15.2103C7.63281 13.6754 8.87713 12.4297 10.4134 12.4297C11.1215 12.4297 11.7626 12.6951 12.25 13.1281C12.7373 12.695 13.3785 12.4297 14.0864 12.4297C15.6227 12.4297 16.867 13.6754 16.867 15.2103C16.867 16.4921 16.0004 17.571 14.8209 17.893V20.3905C14.8311 20.4398 14.8364 20.4909 14.8364 20.5432C14.8364 20.9424 14.5245 21.2688 14.1311 21.2919L14.1255 21.2923C14.1119 21.2933 14.0931 21.2942 14.0709 21.2942C13.6567 21.2942 13.3209 20.9584 13.3209 20.5442V17.239C13.3209 16.8248 13.6567 16.489 14.0709 16.489C14.0884 16.489 14.1047 16.4896 14.1196 16.4905C14.8119 16.4729 15.367 15.9069 15.367 15.2103C15.367 14.5034 14.7938 13.9297 14.0864 13.9297C13.5777 13.9297 13.1367 14.2304 12.9303 14.6736C12.8073 14.9378 12.5423 15.1068 12.2508 15.107C11.9594 15.1072 11.6942 14.9385 11.5709 14.6744C11.3635 14.2303 10.9221 13.9297 10.4134 13.9297ZM14.2117 16.5018L14.2188 16.5031L14.2155 16.5025C14.2145 16.5023 14.2132 16.5021 14.2117 16.5018Z" fill="#000000" />
</svg>