<svg width="24px"  height="24px"  viewBox="0 0 25 24" fill="none" xmlns="http://www.w3.org/2000/svg">
<path fill-rule="evenodd" clip-rule="evenodd" d="M5.08818 4.91955C4.41246 5.64555 4.00391 6.70825 4.00391 8.02629V15.9709C4.00391 17.2884 4.41242 18.3508 5.08823 19.0767C5.75839 19.7965 6.74704 20.2462 8.03603 20.2462H16.468C17.7564 20.2462 18.7451 19.7966 19.4155 19.0767C20.0914 18.3507 20.5001 17.2883 20.5001 15.9709V8.02629C20.5001 6.70929 20.0897 5.64648 19.4125 4.91999C18.7406 4.19933 17.7516 3.75 16.468 3.75H8.03506C6.74662 3.75 5.75824 4.19962 5.08818 4.91955ZM3.99017 3.89759C4.97382 2.84075 6.37601 2.25 8.03506 2.25H16.468C18.1231 2.25 19.5251 2.84105 20.5097 3.89715C21.4888 4.94742 22.0001 6.39775 22.0001 8.02629V15.9709C22.0001 17.5981 21.4915 19.0483 20.5132 20.0989C19.5294 21.1555 18.127 21.7462 16.468 21.7462H8.03603C6.37657 21.7462 4.97415 21.1555 3.99037 20.0988C3.01223 19.0482 2.50391 17.598 2.50391 15.9709V8.02629C2.50391 6.39879 3.01219 4.94835 3.99017 3.89759Z" fill="#000000" />
<path fill-rule="evenodd" clip-rule="evenodd" d="M15.0473 12.9026C16.497 12.2832 18.1724 12.9544 18.7933 14.3946L18.7943 14.3968C19.3105 15.6049 18.9374 16.976 17.9512 17.7571L19.0664 20.3592C19.2295 20.7399 19.0532 21.1808 18.6724 21.344C18.2917 21.5071 17.8508 21.3308 17.6876 20.95L16.316 17.7496C16.2376 17.5667 16.2352 17.36 16.3092 17.1753C16.3832 16.9905 16.5277 16.8427 16.7107 16.7645C17.3942 16.4725 17.7113 15.6815 17.4155 14.9874C17.1218 14.308 16.3274 13.9874 15.6376 14.2816C15.1529 14.4906 14.846 14.9702 14.8269 15.4878C14.8161 15.7787 14.6379 16.0372 14.3698 16.1507C14.1017 16.2642 13.7921 16.2123 13.5757 16.0175C13.2013 15.6806 12.6448 15.5682 12.1449 15.7798C11.4657 16.0739 11.1455 16.8686 11.4402 17.5583C11.7243 18.2232 12.4803 18.5413 13.1602 18.286C13.2249 18.2502 13.2958 18.2236 13.3713 18.208C13.7197 18.1361 14.0707 18.3188 14.2116 18.6455L15.0968 20.6981C15.2608 21.0784 15.0855 21.5197 14.7051 21.6837C14.3248 21.8478 13.8835 21.6724 13.7194 21.2921L13.0947 19.8435C11.8475 20.027 10.5825 19.3688 10.0608 18.1477C9.44141 16.698 10.1126 15.0226 11.5528 14.4017L11.5564 14.4001L11.5564 14.4001C12.2305 14.1136 12.9527 14.107 13.5931 14.3252C13.8758 13.7119 14.374 13.1924 15.0455 12.9034L15.0473 12.9026ZM13.5013 18.2023H13.5013H13.5013ZM13.5122 18.2023C13.5123 18.2023 13.5125 18.2023 13.5126 18.2023C13.5126 18.2023 13.5126 18.2023 13.5126 18.2023L13.5122 18.2023Z" fill="#000000" />
<path fill-rule="evenodd" clip-rule="evenodd" d="M9.02753 7.37447C8.29912 7.19864 7.56819 7.64498 7.39365 8.36809C7.34698 8.56145 7.2254 8.72835 7.05568 8.83207C6.88595 8.93579 6.68197 8.96784 6.48861 8.92117L3.10338 8.10404C2.70073 8.00685 2.4531 7.60165 2.55029 7.199C2.64749 6.79635 3.05269 6.54873 3.45534 6.64592L6.20858 7.3105C6.81407 6.20991 8.1027 5.60815 9.37949 5.91634C10.9129 6.28647 11.8478 7.83124 11.4795 9.35933C11.309 10.074 10.8795 10.6531 10.3197 11.0331C10.6415 11.6269 10.7538 12.3354 10.5849 13.0448L10.5843 13.0471C10.2141 14.5808 8.66877 15.5158 7.14036 15.1469C5.85531 14.8367 4.99057 13.7015 4.96096 12.4426L3.07355 11.9852C2.67099 11.8877 2.42372 11.4823 2.52127 11.0797C2.61881 10.6771 3.02423 10.4299 3.42679 10.5274L5.95599 11.1403C6.21953 11.2041 6.42808 11.4053 6.50142 11.6663C6.54494 11.8213 6.53682 11.983 6.48296 12.1289C6.35345 12.8322 6.79371 13.5201 7.49232 13.6888C8.22035 13.8645 8.95088 13.4187 9.12592 12.6963C9.2498 12.1741 9.05309 11.6497 8.64856 11.3273C8.42035 11.1454 8.31834 10.8477 8.38705 10.5641C8.45577 10.2805 8.68274 10.0625 8.96887 10.0053C9.47983 9.90313 9.89848 9.52355 10.0206 9.01061L10.0211 9.00835C10.197 8.27994 9.75064 7.54901 9.02753 7.37447Z" fill="#000000" />
<path d="M14.8061 10.5325C14.6312 10.5327 14.4581 10.4964 14.298 10.4259C14.1379 10.3554 13.9943 10.2523 13.8763 10.1232C13.7583 9.99411 13.6685 9.84181 13.6127 9.67605C13.5568 9.51028 13.5362 9.33471 13.5521 9.16051L13.758 6.8825C13.7778 6.66461 13.8541 6.45567 13.9794 6.27627C14.1046 6.09686 14.2744 5.95322 14.4721 5.85952C14.6698 5.76582 14.8885 5.72527 15.1067 5.74193C15.3248 5.75859 15.5349 5.83188 15.7161 5.95452L17.6041 7.23751C17.7869 7.36203 17.9337 7.53259 18.0296 7.73195C18.1255 7.93132 18.1672 8.15244 18.1503 8.37304C18.1335 8.59363 18.0588 8.80589 17.9337 8.98839C17.8087 9.17089 17.6377 9.31716 17.438 9.4125L15.347 10.4125C15.1779 10.4922 14.9931 10.5332 14.8061 10.5325ZM15.2151 7.4265L15.084 8.87349L16.4111 8.2405L15.2151 7.4265Z" fill="#000000" />
</svg>