<svg width="24px"  height="24px"  viewBox="0 0 25 24" fill="none" xmlns="http://www.w3.org/2000/svg">
<path d="M8.93971 21.731C8.08665 21.7329 7.26739 21.3976 6.66035 20.7983C6.05332 20.1989 5.70768 19.384 5.69871 18.531C5.19912 18.5235 4.70797 18.4009 4.26358 18.1725C3.81919 17.9441 3.43355 17.6161 3.1367 17.2142C2.83986 16.8123 2.63984 16.3472 2.55223 15.8553C2.46462 15.3634 2.49178 14.8579 2.63161 14.3782C2.77143 13.8985 3.02014 13.4576 3.35835 13.0898C3.69656 12.7221 4.11512 12.4373 4.58143 12.2579C5.04775 12.0784 5.54921 12.009 6.04672 12.0552C6.54424 12.1014 7.02437 12.2618 7.44971 12.524L12.7897 7.18497C12.4067 6.56264 12.2446 5.82935 12.3297 5.10355C12.4148 4.37774 12.7421 3.70181 13.2587 3.18497C13.8777 2.59484 14.7 2.26563 15.5552 2.26562C16.4104 2.26563 17.2328 2.59484 17.8517 3.18497C18.4473 3.78385 18.786 4.59138 18.7957 5.43597C19.4338 5.44378 20.0555 5.63974 20.5827 5.9993C21.1099 6.35886 21.5193 6.86602 21.7596 7.45724C21.9998 8.04847 22.0602 8.69744 21.9332 9.32285C21.8063 9.94825 21.4975 10.5223 21.0457 10.973C20.5201 11.4811 19.8415 11.8015 19.1151 11.8845C18.3888 11.9675 17.6554 11.8084 17.0287 11.432L11.6877 16.771C11.9959 17.2614 12.167 17.8255 12.183 18.4045C12.199 18.9836 12.0594 19.5563 11.7787 20.063C11.498 20.5697 11.0866 20.9918 10.5872 21.2853C10.0879 21.5789 9.51895 21.7331 8.93971 21.732V21.731ZM6.59971 16.881C6.72036 16.8809 6.83924 16.91 6.94627 16.9656C7.0533 17.0213 7.14531 17.102 7.21451 17.2008C7.2837 17.2997 7.32803 17.4137 7.34373 17.5334C7.35944 17.653 7.34606 17.7746 7.30472 17.888C7.19761 18.1819 7.17151 18.4993 7.22916 18.8069C7.2868 19.1144 7.42606 19.4007 7.63237 19.636C7.83868 19.8712 8.10444 20.0466 8.40182 20.1439C8.6992 20.2412 9.01726 20.2567 9.32269 20.1888C9.62813 20.121 9.90971 19.9722 10.1379 19.7582C10.3662 19.5442 10.5327 19.2727 10.62 18.9723C10.7073 18.6718 10.7122 18.3534 10.6342 18.0504C10.5562 17.7474 10.3982 17.4709 10.1767 17.25C10.0338 17.1085 9.95215 16.9166 9.94934 16.7155C9.94653 16.5145 10.0228 16.3203 10.1617 16.175L16.4407 9.89798C16.5103 9.82832 16.5929 9.77303 16.6838 9.73532C16.7748 9.69761 16.8723 9.67822 16.9707 9.67822C17.0692 9.67822 17.1666 9.69761 17.2576 9.73532C17.3485 9.77303 17.4312 9.82832 17.5007 9.89798C17.8313 10.2239 18.2761 10.4078 18.7404 10.4104C19.2046 10.413 19.6515 10.2341 19.9857 9.91196C20.2676 9.63118 20.445 9.26246 20.4885 8.86697C20.532 8.47148 20.439 8.07301 20.2249 7.73767C20.0107 7.40234 19.6884 7.15032 19.3113 7.02341C18.9342 6.8965 18.525 6.90235 18.1517 7.03998C18.0176 7.08869 17.8724 7.09813 17.7331 7.0672C17.5938 7.03627 17.4662 6.96625 17.3653 6.86536C17.2644 6.76446 17.1944 6.63688 17.1635 6.49759C17.1325 6.3583 17.142 6.21309 17.1907 6.07898C17.3047 5.76681 17.3277 5.42863 17.2569 5.10391C17.186 4.7792 17.0244 4.4813 16.7907 4.24496C16.4574 3.92725 16.0147 3.75003 15.5542 3.75003C15.0938 3.75003 14.651 3.92725 14.3177 4.24496C14.1554 4.4072 14.0267 4.59981 13.9389 4.8118C13.851 5.02379 13.8058 5.25101 13.8058 5.48047C13.8058 5.70993 13.851 5.93715 13.9389 6.14914C14.0267 6.36113 14.1554 6.55374 14.3177 6.71597C14.3874 6.78562 14.4427 6.86833 14.4804 6.95935C14.5181 7.05038 14.5376 7.14793 14.5376 7.24646C14.5376 7.34499 14.5181 7.44257 14.4804 7.5336C14.4427 7.62463 14.3874 7.70733 14.3177 7.77698L8.04071 14.054C7.97114 14.1236 7.88853 14.1789 7.79759 14.2166C7.70665 14.2543 7.60916 14.2737 7.51071 14.2737C7.41226 14.2737 7.31477 14.2543 7.22383 14.2166C7.13289 14.1789 7.05028 14.1236 6.98071 14.054C6.75967 13.8312 6.48274 13.6721 6.17898 13.5932C5.87523 13.5144 5.55585 13.5188 5.25438 13.606C4.95291 13.6932 4.68047 13.8599 4.46565 14.0886C4.25083 14.3174 4.10156 14.5998 4.03351 14.9061C3.96545 15.2125 3.98113 15.5315 4.07889 15.8297C4.17664 16.1279 4.35287 16.3943 4.58908 16.6009C4.82529 16.8075 5.11275 16.9467 5.42131 17.0039C5.72987 17.0611 6.04814 17.0342 6.34271 16.926C6.42524 16.8968 6.5122 16.8823 6.59971 16.883V16.881Z" fill="#000000" />
</svg>