<svg width="24px"  height="24px"  viewBox="0 0 24 24" fill="none" xmlns="http://www.w3.org/2000/svg">
<path fill-rule="evenodd" clip-rule="evenodd" d="M17.2955 6.04143C17.4129 5.64422 17.8301 5.41743 18.2273 5.53489C19.8544 6.016 20.6038 7.37874 20.942 8.25813C21.3627 8.70394 21.9564 9.46248 22.1701 10.4365C22.3813 11.3993 22.1996 12.4689 21.3531 13.5271C21.521 13.7512 21.6532 14.0045 21.747 14.2643C21.9548 14.8396 22.009 15.5338 21.7969 16.2207C21.3898 17.5395 20.1178 18.5613 17.8377 18.8565V19.8967C17.8377 20.3209 17.5013 20.7278 17.0105 20.7278H15.3228C14.9748 20.7278 14.6847 20.5133 14.5613 20.2215C14.5613 20.2215 14.5613 20.2215 14.5613 20.2215L13.5873 17.9168C13.3068 17.9247 12.9952 17.8964 12.6792 17.8088C12.2696 17.6954 11.8514 17.4808 11.4962 17.1239C10.731 17.5321 9.81736 17.6133 9.0194 17.3906C7.91909 17.0835 6.97924 16.1765 6.91481 14.7257C6.89644 14.3119 7.217 13.9615 7.63081 13.9431C8.04461 13.9248 8.39496 14.2453 8.41334 14.6591C8.44547 15.3828 8.86703 15.7907 9.42262 15.9458C10.0223 16.1131 10.7137 15.9602 11.1392 15.5474C11.3095 15.3821 11.5481 15.3072 11.7824 15.3455C12.0167 15.3838 12.2191 15.5308 12.3279 15.7418C12.5202 16.1143 12.7968 16.2849 13.0797 16.3633C13.3873 16.4485 13.697 16.4196 13.8593 16.3755C14.2215 16.2771 14.6007 16.4615 14.7468 16.8073L15.7698 19.2278H16.3377V18.1736C16.3377 17.7767 16.647 17.4485 17.0433 17.4249C19.4348 17.2828 20.1737 16.3935 20.3636 15.7783C20.4702 15.4331 20.4447 15.0741 20.3362 14.7739C20.2219 14.4574 20.0489 14.2894 19.9518 14.2398C19.7354 14.1291 19.586 13.9203 19.5511 13.6797C19.5162 13.439 19.6001 13.1964 19.7762 13.0288C20.7469 12.1048 20.831 11.3324 20.7049 10.7579C20.5627 10.1099 20.1148 9.5506 19.7614 9.19512C19.6833 9.11655 19.6236 9.02164 19.5865 8.91722C19.3247 8.1794 18.8164 7.27327 17.802 6.97332C17.4048 6.85586 17.178 6.43864 17.2955 6.04143Z" fill="#000000" />
<path fill-rule="evenodd" clip-rule="evenodd" d="M3.62007 8.89681C3.96403 9.1276 4.05578 9.59353 3.82499 9.93749C2.78781 11.4833 3.23029 13.2708 4.51846 14.0532C4.93689 14.3074 5.46919 14.4293 5.99499 14.4193C6.52934 14.4091 6.97273 14.265 7.22809 14.0832C7.88975 13.6123 8.2217 12.8131 8.17157 12.2868C8.13229 11.8745 8.43472 11.5083 8.84706 11.4691C9.25941 11.4298 9.62553 11.7322 9.66481 12.1446C9.77201 13.2699 9.13967 14.5638 8.09788 15.3053C7.53234 15.7078 6.77024 15.9047 6.02361 15.919C5.26843 15.9334 4.44425 15.7632 3.73976 15.3353C1.64916 14.0654 1.11389 11.2859 2.57939 9.10173C2.81018 8.75777 3.27611 8.66602 3.62007 8.89681Z" fill="#000000" />
<path fill-rule="evenodd" clip-rule="evenodd" d="M7.42242 6.15713C7.40376 6.16813 7.38532 6.179 7.36712 6.18973C7.01023 6.39996 6.55048 6.28108 6.34024 5.92419C6.13 5.56729 6.24888 5.10754 6.60577 4.8973C6.63758 4.87857 6.67055 4.85907 6.70468 4.83889C7.91891 4.12096 10.5944 2.53908 13.9806 3.65813C14.3739 3.7881 14.5873 4.21229 14.4573 4.60558C14.3274 4.99888 13.9032 5.21234 13.5099 5.08237C10.777 4.17924 8.62366 5.44887 7.42242 6.15713Z" fill="#000000" />
<path fill-rule="evenodd" clip-rule="evenodd" d="M18.5681 5.70272C18.8221 6.53001 18.6942 7.44979 18.0711 8.26952C17.8205 8.59929 17.35 8.66343 17.0202 8.41277C16.6904 8.16212 16.6263 7.6916 16.8769 7.36183C17.2095 6.92426 17.2456 6.50576 17.1342 6.14304C17.0152 5.7555 16.7077 5.37747 16.2678 5.126C15.8331 4.87746 15.3083 4.77593 14.791 4.89138C14.2842 5.00446 13.7206 5.34014 13.2237 6.08159C12.9931 6.42568 12.5272 6.51769 12.1831 6.28709C11.839 6.05649 11.747 5.59062 11.9776 5.24653C12.662 4.22531 13.5371 3.63429 14.4643 3.42739C15.3808 3.22286 16.2851 3.40807 17.0123 3.82377C17.7343 4.23655 18.3217 4.90025 18.5681 5.70272Z" fill="#000000" />
<path fill-rule="evenodd" clip-rule="evenodd" d="M4.22845 9.57545C4.37515 10.0523 4.73428 10.4717 5.46211 10.657C5.86351 10.7592 6.10605 11.1675 6.00384 11.5689C5.90162 11.9703 5.49336 12.2128 5.09196 12.1106C3.8694 11.7993 3.09886 11.0049 2.79477 10.0165C2.5019 9.0646 2.66064 8.00467 3.11453 7.11336C3.57152 6.21596 4.35943 5.42533 5.41218 5.04779C6.48113 4.66445 7.74425 4.73531 9.07883 5.42714C9.44657 5.61778 9.59015 6.07043 9.39952 6.43817C9.20888 6.80591 8.75623 6.94948 8.38849 6.75885C7.37682 6.23441 6.54713 6.23432 5.91854 6.45974C5.27375 6.69098 4.75939 7.18884 4.4512 7.79405C4.13989 8.40535 4.07053 9.06214 4.22845 9.57545Z" fill="#000000" />
<path fill-rule="evenodd" clip-rule="evenodd" d="M10.8682 6.90625C11.2824 6.90625 11.6182 7.24204 11.6182 7.65625C11.6182 8.39181 11.4132 9.00439 11.0351 9.46929C10.6607 9.92963 10.1634 10.1875 9.67581 10.302C9.19337 10.4153 8.69515 10.3955 8.26678 10.2781C7.86232 10.1674 7.39922 9.93387 7.13834 9.50666C6.92246 9.15314 7.03404 8.69156 7.38755 8.47569C7.74107 8.25982 8.20265 8.37139 8.41852 8.72491C8.4156 8.72012 8.4141 8.71781 8.4144 8.71754C8.41613 8.71602 8.47584 8.78017 8.66296 8.83141C8.85916 8.88514 9.10321 8.89569 9.33285 8.84175C9.55732 8.78903 9.74194 8.68202 9.87143 8.52282C9.9972 8.36817 10.1182 8.10656 10.1182 7.65625C10.1182 7.24204 10.4539 6.90625 10.8682 6.90625Z" fill="#000000" />
<path fill-rule="evenodd" clip-rule="evenodd" d="M9.92799 8.61128C10.3067 8.44358 10.7497 8.61467 10.9174 8.99342C10.9799 9.13453 11.1325 9.36361 11.349 9.52106C11.5433 9.66227 11.7732 9.73948 12.0788 9.66374C12.4809 9.56409 12.8876 9.80923 12.9872 10.2113C13.0869 10.6133 12.8417 11.02 12.4397 11.1197C11.633 11.3196 10.9554 11.0894 10.467 10.7343C10.0009 10.3954 9.69579 9.93935 9.54585 9.60071C9.37815 9.22196 9.54924 8.77897 9.92799 8.61128Z" fill="#000000" />
<path fill-rule="evenodd" clip-rule="evenodd" d="M19.8469 10.8785C19.9356 11.2831 19.6796 11.6831 19.275 11.7718L17.9812 12.0556C17.5766 12.1443 17.1766 11.8883 17.0879 11.4837C16.9991 11.0791 17.2552 10.6792 17.6598 10.5904L18.9536 10.3066C19.3582 10.2179 19.7581 10.4739 19.8469 10.8785Z" fill="#000000" />
<path fill-rule="evenodd" clip-rule="evenodd" d="M14.2806 9.20615C14.5529 8.89404 15.0267 8.86178 15.3388 9.1341C15.6787 9.43066 16.0881 9.94697 16.2784 10.6725C16.4733 11.4153 16.4223 12.3173 15.9248 13.3333C15.7427 13.7053 15.2934 13.8592 14.9214 13.677C14.5494 13.4949 14.3955 13.0456 14.5777 12.6736C14.9299 11.9543 14.9239 11.4205 14.8275 11.0531C14.7266 10.6684 14.5084 10.4003 14.3526 10.2644C14.0405 9.99204 14.0083 9.51826 14.2806 9.20615Z" fill="#000000" />
<path fill-rule="evenodd" clip-rule="evenodd" d="M13.5969 13.7334C13.2201 13.8448 12.9915 14.0236 12.8917 14.1797C12.6685 14.5287 12.2047 14.6306 11.8557 14.4074C11.5068 14.1842 11.4049 13.7204 11.628 13.3715C11.982 12.8182 12.5717 12.4724 13.1713 12.295C13.7805 12.1148 14.475 12.0837 15.1401 12.2264C15.8079 12.3697 16.4754 12.6955 16.9899 13.2581C17.5112 13.828 17.8349 14.5974 17.8755 15.5477C17.8932 15.9616 17.572 16.3114 17.1582 16.3291C16.7444 16.3468 16.3946 16.0256 16.3769 15.6118C16.3499 14.9809 16.145 14.5569 15.883 14.2704C15.6142 13.9765 15.2437 13.7828 14.8253 13.693C14.4041 13.6026 13.9641 13.6247 13.5969 13.7334Z" fill="#000000" />
</svg>