<svg width="24px"  height="24px"  viewBox="0 0 25 24" fill="none" xmlns="http://www.w3.org/2000/svg">
<path fill-rule="evenodd" clip-rule="evenodd" d="M3.9902 3.89737C4.97468 2.84117 6.37669 2.25 8.03216 2.25H16.4669C18.1262 2.25 19.5288 2.84084 20.5129 3.89765C21.4913 4.94841 22 6.39889 22 8.02638V15.9736C22 17.6011 21.4913 19.0516 20.5127 20.1024C19.5285 21.1592 18.1256 21.75 16.4659 21.75H8.03216C6.3728 21.75 4.97038 21.1591 3.98657 20.1023C3.00842 19.0515 2.5 17.601 2.5 15.9736V8.02638C2.5 6.39806 3.01117 4.94771 3.9902 3.89737ZM5.08745 4.92012C4.41024 5.64666 4 6.70951 4 8.02638V15.9736C4 17.2914 4.40861 18.3541 5.08451 19.0802C5.75475 19.8003 6.74341 20.25 8.03216 20.25H16.4659C17.7552 20.25 18.7444 19.8002 19.415 19.0801C20.0912 18.354 20.5 17.2913 20.5 15.9736V8.02638C20.5 6.70868 20.0912 5.64597 19.4151 4.91984C18.7446 4.19975 17.7556 3.75 16.4669 3.75H8.03216C6.74828 3.75 5.75921 4.19943 5.08745 4.92012Z" fill="#000000" />
<path fill-rule="evenodd" clip-rule="evenodd" d="M10.8788 7.14063C11.2016 7.14061 11.4883 7.3472 11.5904 7.65348L13.6198 13.7426L14.2791 11.7652C14.3812 11.459 14.6678 11.2524 14.9906 11.2524H16.8179C17.2321 11.2524 17.5679 11.5882 17.5679 12.0024C17.5679 12.4166 17.2321 12.7524 16.8179 12.7524H15.5311L14.3312 16.3514C14.2291 16.6577 13.9425 16.8642 13.6197 16.8642C13.2968 16.8642 13.0102 16.6576 12.9082 16.3513L10.879 10.263L10.2204 12.2395C10.1184 12.5458 9.83175 12.7524 9.50888 12.7524H7.68164C7.26743 12.7524 6.93164 12.4166 6.93164 12.0024C6.93164 11.5882 7.26743 11.2524 7.68164 11.2524H8.96823L10.1673 7.65356C10.2693 7.34726 10.5559 7.14064 10.8788 7.14063Z" fill="#000000" />
</svg>