<svg width="24px"  height="24px"  viewBox="0 0 25 24" fill="none" xmlns="http://www.w3.org/2000/svg">
<path fill-rule="evenodd" clip-rule="evenodd" d="M17.1619 4.70769C16.4181 4.47133 15.6167 4.41327 14.8543 4.54732L14.853 4.54756C14.1641 4.66736 13.4592 5.15747 12.7012 5.72348C12.435 5.9222 12.0699 5.9222 11.8037 5.72348C11.0413 5.15419 10.3517 4.66984 9.66946 4.55861L9.66164 4.55733C8.89095 4.4233 8.09759 4.48015 7.33957 4.70882C5.21016 5.41138 4.06063 7.32589 3.99971 9.48431C3.98802 9.89836 3.64289 10.2245 3.22885 10.2128C2.8148 10.2012 2.48862 9.85603 2.5003 9.44199C2.57556 6.77586 4.0315 4.21559 6.87992 3.28094L6.89602 3.27586C7.86672 2.98138 8.89877 2.90274 9.91487 3.07882C10.8017 3.22453 11.6088 3.72895 12.2529 4.19124C12.9012 3.72752 13.7117 3.22372 14.5952 3.06987C15.6033 2.89273 16.6502 2.97075 17.6185 3.27887L17.622 3.27999C21.4675 4.52443 22.7172 8.69323 21.6089 12.145L21.6075 12.1492C20.6968 14.9289 18.3814 17.135 16.3935 18.6136C15.387 19.3622 14.4362 19.9449 13.7368 20.3407C13.3867 20.5389 13.0983 20.691 12.8959 20.7942C12.7947 20.8459 12.7149 20.8854 12.6595 20.9123C12.6318 20.9258 12.6102 20.9362 12.5951 20.9434L12.5773 20.9518L12.5721 20.9542L12.5705 20.955C12.5703 20.9551 12.5695 20.9555 12.2524 20.2758C11.9347 20.9552 11.9346 20.9551 11.9343 20.955L11.9322 20.954L11.9271 20.9516L11.9095 20.9432C11.8945 20.9361 11.8732 20.9258 11.8457 20.9124C11.7909 20.8857 11.7118 20.8466 11.6115 20.7954C11.411 20.6932 11.1251 20.5426 10.7779 20.3467C10.0845 19.9555 9.14137 19.3806 8.14228 18.6449C6.17044 17.193 3.86643 15.0325 2.94866 12.3322C2.81536 11.9401 3.02523 11.5141 3.41741 11.3808C3.80959 11.2475 4.23557 11.4573 4.36887 11.8495C5.1348 14.1031 7.12763 16.035 9.03169 17.4371C9.97055 18.1284 10.8602 18.6709 11.515 19.0403C11.8187 19.2117 12.0708 19.3452 12.2526 19.4385C12.4358 19.3444 12.6907 19.2093 12.998 19.0354C13.6575 18.662 14.5534 18.1128 15.4983 17.41C17.4124 15.9864 19.4175 14.0133 20.1813 11.6844C21.1154 8.77238 19.991 5.62436 17.1619 4.70769ZM12.2524 20.2758L11.9343 20.955C12.1355 21.049 12.3683 21.0493 12.5695 20.9555L12.2524 20.2758Z" fill="#000000" />
<path fill-rule="evenodd" clip-rule="evenodd" d="M9.69152 8.50781C9.97055 8.50754 10.2267 8.66219 10.3563 8.90925L12.6676 13.3127L13.4844 11.7436C13.6136 11.4955 13.87 11.3399 14.1497 11.3399H17.1764C17.5907 11.3399 17.9264 11.6757 17.9264 12.0899C17.9264 12.5041 17.5907 12.8399 17.1764 12.8399H14.6048L13.3356 15.2781C13.2067 15.5258 12.9509 15.6813 12.6716 15.6818C12.3924 15.6822 12.136 15.5276 12.0063 15.2803L9.69387 10.8747L8.87772 12.4372C8.74841 12.6847 8.49225 12.8399 8.21295 12.8399H3.6582C3.24399 12.8399 2.9082 12.5041 2.9082 12.0899C2.9082 11.6757 3.24399 11.3399 3.6582 11.3399H7.75855L9.02749 8.91058C9.15668 8.66325 9.41249 8.50809 9.69152 8.50781Z" fill="#000000" />
</svg>