<svg width="24px"  height="24px"  viewBox="0 0 25 24" fill="none" xmlns="http://www.w3.org/2000/svg">
<path fill-rule="evenodd" clip-rule="evenodd" d="M12.25 3.75C7.69329 3.75 4 7.44329 4 12C4 16.5558 7.69335 20.25 12.25 20.25C16.8067 20.25 20.5 16.5558 20.5 12C20.5 7.44329 16.8067 3.75 12.25 3.75ZM2.5 12C2.5 6.61487 6.86487 2.25 12.25 2.25C17.6351 2.25 22 6.61487 22 12C22 17.3841 17.6352 21.75 12.25 21.75C6.86481 21.75 2.5 17.3841 2.5 12Z" fill="#000000" />
<path fill-rule="evenodd" clip-rule="evenodd" d="M10.9832 7.44531C11.3061 7.44531 11.5927 7.65189 11.6947 7.95814L13.5188 13.4303L14.0751 11.7615C14.1772 11.4552 14.4638 11.2487 14.7866 11.2487H16.4766C16.8908 11.2487 17.2266 11.5845 17.2266 11.9987C17.2266 12.4129 16.8908 12.7487 16.4766 12.7487H15.3271L14.2303 16.0392C14.1282 16.3454 13.8416 16.552 13.5188 16.552C13.196 16.552 12.9094 16.3454 12.8073 16.0392L10.9832 10.567L10.427 12.2358C10.3249 12.5421 10.0383 12.7487 9.71544 12.7487H8.02539C7.61118 12.7487 7.27539 12.4129 7.27539 11.9987C7.27539 11.5845 7.61118 11.2487 8.02539 11.2487H9.17488L10.2717 7.95814C10.3738 7.65189 10.6604 7.44531 10.9832 7.44531Z" fill="#000000" />
</svg>