<svg width="24px"  height="24px"  viewBox="0 0 25 24" fill="none" xmlns="http://www.w3.org/2000/svg">
<path fill-rule="evenodd" clip-rule="evenodd" d="M2.5 7.31424C2.5 4.67495 4.63956 2.53516 7.27811 2.53516H17.2209C19.8603 2.53516 22 4.67483 22 7.31424V12.7707C22 15.4101 19.8603 17.5498 17.2209 17.5498H7.27811C4.63956 17.5498 2.5 15.41 2.5 12.7707V7.31424ZM7.27811 4.03516C5.46822 4.03516 4 5.50314 4 7.31424V12.7707C4 14.5818 5.46822 16.0498 7.27811 16.0498H17.2209C19.0319 16.0498 20.5 14.5816 20.5 12.7707V7.31424C20.5 5.50326 19.0319 4.03516 17.2209 4.03516H7.27811Z" fill="#000000" />
<path fill-rule="evenodd" clip-rule="evenodd" d="M6.55469 20.7188C6.55469 20.3045 6.89047 19.9688 7.30469 19.9688H17.193C17.6072 19.9688 17.943 20.3045 17.943 20.7188C17.943 21.133 17.6072 21.4688 17.193 21.4688H7.30469C6.89047 21.4688 6.55469 21.133 6.55469 20.7188Z" fill="#000000" />
<path fill-rule="evenodd" clip-rule="evenodd" d="M10.2539 16.0567C10.6628 16.1232 10.9403 16.5086 10.8738 16.9174L10.2365 20.8346C10.17 21.2435 9.78461 21.521 9.37577 21.4544C8.96693 21.3879 8.68943 21.0026 8.75594 20.5937L9.39324 16.6766C9.45975 16.2677 9.8451 15.9902 10.2539 16.0567Z" fill="#000000" />
<path fill-rule="evenodd" clip-rule="evenodd" d="M14.2449 16.0567C14.6538 15.9902 15.0391 16.2677 15.1056 16.6766L15.7429 20.5937C15.8094 21.0026 15.5319 21.3879 15.1231 21.4544C14.7142 21.521 14.3289 21.2435 14.2624 20.8346L13.6251 16.9174C13.5586 16.5086 13.8361 16.1232 14.2449 16.0567Z" fill="#000000" />
<path fill-rule="evenodd" clip-rule="evenodd" d="M10.7527 6.54688C11.0754 6.54689 11.3618 6.75323 11.4641 7.05924L12.8025 11.0658L13.8275 8.79074C13.9424 8.53572 14.1896 8.36583 14.4689 8.35002C14.7481 8.33421 15.013 8.4751 15.1559 8.71551L15.7727 9.75282H17.5139C17.9281 9.75282 18.2639 10.0886 18.2639 10.5028C18.2639 10.917 17.9281 11.2528 17.5139 11.2528H15.3461C15.0816 11.2528 14.8366 11.1135 14.7014 10.8861L14.6031 10.7208L13.3824 13.4301C13.2556 13.7117 12.9692 13.8867 12.6608 13.8711C12.3524 13.8555 12.0851 13.6526 11.9873 13.3597L10.7526 9.66369L10.3928 10.7405C10.2905 11.0465 10.0041 11.2528 9.68145 11.2528H6.98242C6.56821 11.2528 6.23242 10.917 6.23242 10.5028C6.23242 10.0886 6.56821 9.75282 6.98242 9.75282H9.14129L10.0414 7.05919C10.1436 6.75318 10.4301 6.54686 10.7527 6.54688Z" fill="#000000" />
</svg>