<svg width="24px"  height="24px"  viewBox="0 0 25 24" fill="none" xmlns="http://www.w3.org/2000/svg">
<path fill-rule="evenodd" clip-rule="evenodd" d="M14.5851 3.05855C15.5976 2.88759 16.6363 2.96155 17.615 3.27347L17.6173 3.27419C21.4675 4.51457 22.718 8.68434 21.6089 12.1428L21.6075 12.1471C20.6959 14.9316 18.3778 17.1396 16.3874 18.6188C15.3797 19.3677 14.4277 19.9504 13.7275 20.3462C13.3769 20.5444 13.0882 20.6964 12.8856 20.7996C12.7842 20.8512 12.7043 20.8906 12.6489 20.9176C12.6211 20.9311 12.5995 20.9414 12.5843 20.9486L12.5665 20.9571L12.5614 20.9595L12.5597 20.9603C12.5595 20.9604 12.5587 20.9607 12.2422 20.2808C11.9249 20.9604 11.9248 20.9603 11.9246 20.9602L11.923 20.9595L11.9193 20.9578L11.9068 20.9519L11.862 20.9304C11.8235 20.9118 11.7681 20.8847 11.6973 20.8492C11.5559 20.7783 11.3532 20.6741 11.1029 20.5381C10.6026 20.2664 9.90956 19.8667 9.13328 19.3521C7.59102 18.3296 5.67427 16.8234 4.3042 14.9304C4.06134 14.5949 4.13647 14.126 4.47202 13.8831C4.80756 13.6403 5.27646 13.7154 5.51932 14.051C6.73789 15.7346 8.48635 17.1234 9.96214 18.1019C10.6949 18.5877 11.3491 18.9649 11.8188 19.22C11.9849 19.3102 12.1277 19.385 12.2423 19.4438C12.4258 19.3497 12.6813 19.2145 12.9894 19.0404C13.6497 18.6671 14.5467 18.1179 15.4927 17.4149C17.409 15.9907 19.4166 14.0158 20.1813 11.6824C21.1166 8.76234 19.9901 5.61525 17.1584 4.70228C16.4073 4.46312 15.611 4.40663 14.8353 4.53754C14.1511 4.65395 13.4487 5.14541 12.6924 5.71315C12.427 5.91237 12.0623 5.91351 11.7957 5.71594C11.0335 5.15118 10.334 4.66211 9.64851 4.54638C8.87246 4.4152 8.07654 4.46828 7.32589 4.70262C5.63409 5.25347 4.57533 6.56055 4.16574 8.14408C4.06201 8.5451 3.65284 8.7861 3.25182 8.68237C2.85081 8.57865 2.60981 8.16947 2.71353 7.76846C3.23503 5.75227 4.62432 4.00284 6.86637 3.27473L6.87394 3.27228C7.85244 2.96594 8.88882 2.89671 9.89824 3.06731M12.2422 20.2808L11.9246 20.9602C12.1254 21.054 12.3578 21.0543 12.5587 20.9607L12.2422 20.2808ZM14.5851 3.05855C13.6997 3.20902 12.8864 3.71713 12.2398 4.18234L14.5851 3.05855ZM12.2398 4.18234C11.5936 3.7217 10.7823 3.21661 9.89824 3.06731L12.2398 4.18234Z" fill="#000000" />
<path fill-rule="evenodd" clip-rule="evenodd" d="M9.01969 7.60938C9.29853 7.60939 9.55434 7.76411 9.68385 8.01106L12.0546 12.5319L12.9082 10.9046C13.0378 10.6576 13.2936 10.503 13.5724 10.503H16.6735C17.0877 10.503 17.4235 10.8387 17.4235 11.253C17.4235 11.6672 17.0877 12.003 16.6735 12.003H14.0259L12.7187 14.495C12.5891 14.7419 12.3333 14.8966 12.0544 14.8965C11.7756 14.8965 11.5198 14.7418 11.3903 14.4949L9.01953 9.97407L8.16588 11.6014C8.03636 11.8483 7.78055 12.003 7.50172 12.003H3.25C2.83579 12.003 2.5 11.6672 2.5 11.253C2.5 10.8387 2.83579 10.503 3.25 10.503H7.04822L8.35547 8.01097C8.48501 7.76404 8.74084 7.60936 9.01969 7.60938Z" fill="#000000" />
</svg>