<svg width="24px"  height="24px"  viewBox="0 0 25 24" fill="none" xmlns="http://www.w3.org/2000/svg">
<path fill-rule="evenodd" clip-rule="evenodd" d="M3.99292 3.89714C4.97727 2.84109 6.3791 2.25 8.03433 2.25H16.4677C18.1268 2.25 19.5292 2.84076 20.5131 3.89742C21.4914 4.94805 22.0001 6.39833 22.0001 8.02558V15.9716C22.0001 17.5988 21.4914 19.0491 20.513 20.0998C19.5289 21.1564 18.1263 21.7472 16.4667 21.7472H8.03433C6.37521 21.7472 4.97298 21.1564 3.9893 20.0996C3.01127 19.049 2.50293 17.5987 2.50293 15.9716V8.02558C2.50293 6.39749 3.01402 4.94735 3.99292 3.89714ZM5.09018 4.9199C4.4131 5.6463 4.00293 6.70895 4.00293 8.02558V15.9716C4.00293 17.2891 4.41147 18.3517 5.08723 19.0776C5.75735 19.7975 6.74582 20.2472 8.03433 20.2472H16.4667C17.7558 20.2472 18.7448 19.7974 19.4153 19.0775C20.0914 18.3515 20.5001 17.289 20.5001 15.9716V8.02558C20.5001 6.70812 20.0914 5.6456 19.4154 4.91962C18.745 4.19967 17.7562 3.75 16.4677 3.75H8.03433C6.75068 3.75 5.76181 4.19934 5.09018 4.9199Z" fill="#000000" />
<path fill-rule="evenodd" clip-rule="evenodd" d="M9.68985 6.35938C10.0126 6.35928 10.2992 6.56567 10.4014 6.8718L13.2085 15.2769L15.6019 9.96303C15.7168 9.70803 15.964 9.53811 16.2432 9.52224C16.5224 9.50638 16.7873 9.64719 16.9303 9.88754L17.8699 11.4667H21.2472C21.6614 11.4667 21.9972 11.8025 21.9972 12.2167C21.9972 12.6309 21.6614 12.9667 21.2472 12.9667H17.4434C17.179 12.9667 16.9341 12.8274 16.7989 12.6002L16.3779 11.8927L13.7885 17.6417C13.6617 17.9233 13.3752 18.0983 13.0668 18.0827C12.7584 18.0672 12.4911 17.8642 12.3933 17.5713L9.69074 9.47905L8.69914 12.4538C8.59705 12.7601 8.31045 12.9667 7.98763 12.9667H3.25C2.83579 12.9667 2.5 12.6309 2.5 12.2167C2.5 11.8025 2.83579 11.4667 3.25 11.4667H7.44706L8.97855 6.8722C9.08061 6.56602 9.3671 6.35947 9.68985 6.35938Z" fill="#000000" />
</svg>