<svg width="24px"  height="24px"  viewBox="0 0 25 24" fill="none" xmlns="http://www.w3.org/2000/svg">
<path fill-rule="evenodd" clip-rule="evenodd" d="M8.41158 4.94162C8.77625 3.8476 10.3237 3.84757 10.6884 4.94162L14.95 17.7264L16.7334 12.3763C16.9579 11.7025 17.5885 11.2481 18.2987 11.2481H21.25C21.6642 11.2481 22 11.5839 22 11.9981C22 12.4123 21.6642 12.7481 21.25 12.7481H18.2987C18.2341 12.7481 18.1768 12.7894 18.1564 12.8506L16.0884 19.0545C15.7237 20.1486 14.1763 20.1485 13.8116 19.0545L9.55 6.26978L7.76664 11.6198C7.54206 12.2936 6.91153 12.7481 6.20132 12.7481H3.25C2.83579 12.7481 2.5 12.4123 2.5 11.9981C2.5 11.5839 2.83579 11.2481 3.25 11.2481H6.20132C6.26588 11.2481 6.3232 11.2068 6.34362 11.1455L8.41158 4.94162Z" fill="#000000" />
</svg>