<svg width="24px"  height="24px"  viewBox="0 0 25 24" fill="none" xmlns="http://www.w3.org/2000/svg">
<path fill-rule="evenodd" clip-rule="evenodd" d="M3.9902 3.89737C4.97468 2.84117 6.37669 2.25 8.03216 2.25H16.4669C18.1262 2.25 19.5288 2.84084 20.5129 3.89765C21.4913 4.94841 22 6.39889 22 8.02638V15.9736C22 17.6011 21.4913 19.0516 20.5127 20.1024C19.5285 21.1592 18.1256 21.75 16.4659 21.75H8.03216C6.3728 21.75 4.97038 21.1591 3.98657 20.1023C3.00842 19.0515 2.5 17.601 2.5 15.9736V8.02638C2.5 6.39806 3.01117 4.94771 3.9902 3.89737ZM5.08745 4.92012C4.41024 5.64666 4 6.70951 4 8.02638V15.9736C4 17.2914 4.40861 18.3541 5.08451 19.0802C5.75475 19.8003 6.74341 20.25 8.03216 20.25H16.4659C17.7552 20.25 18.7444 19.8002 19.415 19.0801C20.0912 18.354 20.5 17.2913 20.5 15.9736V8.02638C20.5 6.70868 20.0912 5.64597 19.4151 4.91984C18.7446 4.19975 17.7556 3.75 16.4669 3.75H8.03216C6.74828 3.75 5.75921 4.19943 5.08745 4.92012Z" fill="#000000" />
<path fill-rule="evenodd" clip-rule="evenodd" d="M11.0947 8.17969V10.0956C11.0947 10.5098 10.7589 10.8456 10.3447 10.8456H8.42969V13.1529H10.3447C10.7589 13.1529 11.0947 13.4887 11.0947 13.9029V15.8179H13.4019V13.9029C13.4019 13.4887 13.7377 13.1529 14.1519 13.1529H16.0669V10.8456H14.1519C13.7377 10.8456 13.4019 10.5098 13.4019 10.0956V8.17969H11.0947ZM9.59466 7.93855C9.59466 7.24506 10.1572 6.67969 10.8535 6.67969H13.643C14.3394 6.67969 14.9019 7.24505 14.9019 7.93855V9.34563H16.308C17.0034 9.34563 17.5669 9.9091 17.5669 10.6045V13.394C17.5669 14.0875 17.0043 14.6529 16.308 14.6529H14.9019V16.059C14.9019 16.7544 14.3384 17.3179 13.643 17.3179H10.8535C10.1581 17.3179 9.59466 16.7544 9.59466 16.059V14.6529H8.18855C7.49222 14.6529 6.92969 14.0875 6.92969 13.394V10.6045C6.92969 9.9091 7.49315 9.34563 8.18855 9.34563H9.59466V7.93855Z" fill="#000000" />
</svg>