<svg width="24px"  height="24px"  viewBox="0 0 25 24" fill="none" xmlns="http://www.w3.org/2000/svg">
<path fill-rule="evenodd" clip-rule="evenodd" d="M3.98661 3.89733C4.97047 2.84054 6.37291 2.25 8.03216 2.25H16.4659C18.126 2.25 19.5289 2.84045 20.5131 3.89724C21.4916 4.948 22 6.39855 22 8.02638V13.9187C22 14.7366 21.684 15.5232 21.1168 16.1135C21.1167 16.1137 21.1166 16.1138 21.1165 16.1139L16.6423 20.7748C16.0444 21.3982 15.2184 21.75 14.3555 21.75H8.03216C6.37669 21.75 4.97465 21.1588 3.99016 20.1025C3.01113 19.052 2.5 17.6014 2.5 15.9726V8.02638C2.5 6.39856 3.00839 4.94805 3.98661 3.89733ZM5.08447 4.91943C4.40864 5.64536 4 6.70804 4 8.02638V15.9726C4 17.2901 4.41028 18.3532 5.08749 19.0798C5.75924 19.8006 6.74828 20.25 8.03216 20.25H14.3555C14.8101 20.25 15.245 20.0647 15.5597 19.7365L15.56 19.7363L20.0347 15.0748L20.035 15.0744C20.3335 14.7639 20.5 14.3499 20.5 13.9187V8.02638C20.5 6.70804 20.0914 5.64541 19.4154 4.91951C18.745 4.19966 17.7559 3.75 16.4659 3.75H8.03216C6.74331 3.75 5.75467 4.19956 5.08447 4.91943Z" fill="#000000" />
<path fill-rule="evenodd" clip-rule="evenodd" d="M17.9383 13.7422L17.9401 13.7422L21.1732 13.7422C21.5875 13.7422 21.9232 14.078 21.9232 14.4922C21.9232 14.9064 21.5875 15.2422 21.1732 15.2422H17.941C16.688 15.2456 15.6751 16.2614 15.6758 17.5138L15.6758 20.9284C15.6758 21.3426 15.34 21.6784 14.9258 21.6784C14.5116 21.6784 14.1758 21.3426 14.1758 20.9284V17.5145C14.1758 17.5144 14.1758 17.5145 14.1758 17.5145C14.1748 15.4339 15.8584 13.747 17.9383 13.7422Z" fill="#000000" />
<path fill-rule="evenodd" clip-rule="evenodd" d="M10.8002 8.60156V9.85686C10.8002 10.2711 10.4644 10.6069 10.0502 10.6069H8.79297V11.98H10.0502C10.4644 11.98 10.8002 12.3158 10.8002 12.73V13.9844H12.1676V12.73C12.1676 12.3158 12.5034 11.98 12.9176 11.98H14.1748V10.6069H12.9176C12.5034 10.6069 12.1676 10.2711 12.1676 9.85686V8.60156H10.8002ZM9.30021 8.37308C9.30021 7.67269 9.86672 7.10156 10.5708 7.10156H12.397C13.1011 7.10156 13.6676 7.67269 13.6676 8.37308V9.10686H14.4043C15.1074 9.10686 15.6748 9.67707 15.6748 10.3774V12.2085C15.6748 12.9089 15.1083 13.48 14.4043 13.48H13.6676V14.2129C13.6676 14.9132 13.1011 15.4844 12.397 15.4844H10.5708C9.86672 15.4844 9.30021 14.9132 9.30021 14.2129V13.48H8.56351C7.85947 13.48 7.29297 12.9089 7.29297 12.2085V10.3774C7.29297 9.67707 7.86038 9.10686 8.56351 9.10686H9.30021V8.37308Z" fill="#000000" />
</svg>