<svg width="24px"  height="24px"  viewBox="0 0 25 24" fill="none" xmlns="http://www.w3.org/2000/svg">
<path fill-rule="evenodd" clip-rule="evenodd" d="M2.5 12C2.5 6.61487 6.86487 2.25 12.25 2.25C17.6351 2.25 22 6.61487 22 12C22 17.3841 17.6352 21.75 12.25 21.75C6.86481 21.75 2.5 17.3841 2.5 12ZM12.25 3.75C7.69329 3.75 4 7.44329 4 12C4 16.5558 7.69335 20.25 12.25 20.25C16.8067 20.25 20.5 16.5558 20.5 12C20.5 7.44329 16.8067 3.75 12.25 3.75Z" fill="#000000" />
<path fill-rule="evenodd" clip-rule="evenodd" d="M9.41211 7.52344C9.82632 7.52344 10.1621 7.85922 10.1621 8.27344V15.7215C10.1621 16.1358 9.82632 16.4715 9.41211 16.4715C8.9979 16.4715 8.66211 16.1358 8.66211 15.7215V8.27344C8.66211 7.85922 8.9979 7.52344 9.41211 7.52344Z" fill="#000000" />
<path fill-rule="evenodd" clip-rule="evenodd" d="M15.0898 7.52344C15.5041 7.52344 15.8398 7.85922 15.8398 8.27344V15.7215C15.8398 16.1358 15.5041 16.4715 15.0898 16.4715C14.6756 16.4715 14.3398 16.1358 14.3398 15.7215V8.27344C14.3398 7.85922 14.6756 7.52344 15.0898 7.52344Z" fill="#000000" />
<path fill-rule="evenodd" clip-rule="evenodd" d="M8.66211 12C8.66211 11.5858 8.9979 11.25 9.41211 11.25H15.0894C15.5036 11.25 15.8394 11.5858 15.8394 12C15.8394 12.4142 15.5036 12.75 15.0894 12.75H9.41211C8.9979 12.75 8.66211 12.4142 8.66211 12Z" fill="#000000" />
</svg>