<svg width="24px"  height="24px"  viewBox="0 0 25 24" fill="none" xmlns="http://www.w3.org/2000/svg">
<path fill-rule="evenodd" clip-rule="evenodd" d="M12.25 3.75C7.69329 3.75 4 7.44329 4 12C4 16.5558 7.69335 20.25 12.25 20.25C16.8067 20.25 20.5 16.5558 20.5 12C20.5 7.44329 16.8067 3.75 12.25 3.75ZM2.5 12C2.5 6.61487 6.86487 2.25 12.25 2.25C17.6351 2.25 22 6.61487 22 12C22 17.3841 17.6352 21.75 12.25 21.75C6.86481 21.75 2.5 17.3841 2.5 12Z" fill="#000000" />
<path fill-rule="evenodd" clip-rule="evenodd" d="M11.2193 8.47656V10.2193C11.2193 10.6335 10.8835 10.9693 10.4693 10.9693H8.72656V13.0304H10.4693C10.8835 13.0304 11.2193 13.3662 11.2193 13.7804V15.5241H13.2804V13.7804C13.2804 13.3662 13.6162 13.0304 14.0304 13.0304H15.7732V10.9693H14.0304C13.6162 10.9693 13.2804 10.6335 13.2804 10.2193V8.47656H11.2193ZM9.71932 8.23543C9.71932 7.54002 10.2828 6.97656 10.9782 6.97656H13.5215C14.2169 6.97656 14.7804 7.54002 14.7804 8.23543V9.46932H16.0143C16.7097 9.46932 17.2732 10.0328 17.2732 10.7282V13.2725C17.2732 13.9679 16.7088 14.5304 16.0143 14.5304H14.7804V15.7653C14.7804 16.4607 14.2169 17.0241 13.5215 17.0241H10.9782C10.2828 17.0241 9.71932 16.4607 9.71932 15.7653V14.5304H8.48543C7.79096 14.5304 7.22656 13.9679 7.22656 13.2725V10.7282C7.22656 10.0328 7.79002 9.46932 8.48543 9.46932H9.71932V8.23543Z" fill="#000000" />
</svg>