<svg width="24px"  height="24px"  viewBox="0 0 25 24" fill="none" xmlns="http://www.w3.org/2000/svg">
<path d="M17.4592 21.5598C17.2955 21.5599 17.1362 21.5065 17.0057 21.4076C16.8752 21.3087 16.7806 21.1699 16.7364 21.0122C16.6922 20.8546 16.7008 20.6868 16.7609 20.5345C16.821 20.3822 16.9292 20.2538 17.0692 20.1688C18.4957 19.2836 19.5595 17.9184 20.0692 16.3188C20.495 14.5895 20.6275 12.8009 20.4612 11.0278C20.4492 10.6558 20.4372 10.2908 20.4302 9.93477C20.4295 9.76689 20.3622 9.60615 20.243 9.48791C20.1238 9.36966 19.9626 9.3036 19.7947 9.30427C19.6268 9.30493 19.4661 9.37226 19.3478 9.49144C19.2296 9.61062 19.1635 9.77189 19.1642 9.93977C19.2128 11.5105 19.1312 13.0825 18.9202 14.6398C18.7019 15.5622 18.1796 16.3844 17.4372 16.9738C17.2757 17.0899 17.0746 17.1372 16.8783 17.1051C16.6819 17.073 16.5063 16.9643 16.3902 16.8028C16.274 16.6413 16.2268 16.4402 16.2588 16.2439C16.2909 16.0475 16.3997 15.8719 16.5612 15.7558C17.0352 15.3549 17.3612 14.8067 17.4872 14.1988C17.6296 12.7784 17.6887 11.351 17.6642 9.92377C17.6617 9.35806 17.884 8.81452 18.2822 8.41273C18.6804 8.01093 19.222 7.78379 19.7877 7.78127C20.3534 7.77875 20.8969 8.00106 21.2987 8.39929C21.7005 8.79752 21.9277 9.33906 21.9302 9.90477C21.9372 10.2538 21.9492 10.6118 21.9602 10.9768C22.1354 12.9251 21.9781 14.8891 21.4952 16.7848C20.8736 18.7243 19.5809 20.3787 17.8492 21.4508C17.7317 21.5224 17.5967 21.5601 17.4592 21.5598Z" fill="#000000" />
<path d="M13.8484 21.6543C13.6506 21.654 13.4609 21.5757 13.3205 21.4364C13.1801 21.2971 13.1003 21.108 13.0984 20.9103C13.0711 19.1742 13.1428 17.4381 13.3135 15.7103C13.4372 15.0618 13.6886 14.4445 14.0528 13.8939C14.4171 13.3434 14.8871 12.8707 15.4354 12.5033C15.8973 12.2171 16.4152 12.0334 16.9541 11.9644C17.493 11.8954 18.0404 11.9427 18.5594 12.1033C18.7447 12.1629 18.8995 12.2922 18.9913 12.4638C19.0831 12.6354 19.1047 12.836 19.0516 13.0232C18.9984 13.2104 18.8747 13.3697 18.7064 13.4675C18.5381 13.5652 18.3384 13.5938 18.1494 13.5473C17.8318 13.4438 17.4953 13.4107 17.1636 13.4504C16.8318 13.4902 16.5127 13.6017 16.2285 13.7773C15.4782 14.2931 14.961 15.0833 14.7884 15.9773C14.6337 17.6114 14.5703 19.253 14.5984 20.8943C14.5994 20.9928 14.5808 21.0905 14.5439 21.1819C14.507 21.2732 14.4524 21.3564 14.3833 21.4266C14.3142 21.4969 14.2319 21.5528 14.1412 21.5911C14.0504 21.6295 13.953 21.6496 13.8545 21.6503L13.8484 21.6543Z" fill="#000000" />
<path d="M7.03779 21.5602C6.90025 21.5603 6.76533 21.5226 6.64779 21.4512C4.91717 20.3789 3.62525 18.725 3.00378 16.7862C2.52136 14.8911 2.36413 12.9279 2.53879 10.9802C2.55079 10.6142 2.56278 10.2552 2.56978 9.90723C2.58388 9.34956 2.81589 8.81961 3.21607 8.43096C3.61625 8.04232 4.15277 7.82592 4.71061 7.82814C5.26845 7.83037 5.80322 8.05104 6.20029 8.44286C6.59736 8.83468 6.82513 9.36646 6.83478 9.92423C6.81148 11.3532 6.87125 12.7822 7.01378 14.2042C7.13923 14.8107 7.4646 15.3576 7.93779 15.7572C8.0993 15.8734 8.20806 16.049 8.24013 16.2453C8.27219 16.4417 8.22495 16.6427 8.10879 16.8042C7.99262 16.9657 7.81705 17.0745 7.6207 17.1066C7.42435 17.1386 7.2233 17.0914 7.06179 16.9752C6.31876 16.3861 5.79653 15.5633 5.57979 14.6402C5.3694 13.0829 5.28745 11.511 5.33478 9.94023C5.32828 9.77684 5.2588 9.62229 5.1409 9.50898C5.02299 9.39567 4.86581 9.33238 4.70228 9.33238C4.53876 9.33238 4.38158 9.39567 4.26367 9.50898C4.14576 9.62229 4.07628 9.77684 4.06978 9.94023C4.06278 10.2962 4.05079 10.6622 4.03879 11.0402C3.8721 12.8127 4.00427 14.6006 4.42978 16.3292C4.93995 17.9286 6.00363 19.2936 7.42978 20.1792C7.56979 20.2643 7.6781 20.3928 7.73816 20.5452C7.79823 20.6976 7.80675 20.8655 7.76243 21.0232C7.7181 21.1809 7.62336 21.3197 7.49269 21.4185C7.36202 21.5173 7.20259 21.5706 7.03879 21.5702L7.03779 21.5602Z" fill="#000000" />
<path d="M10.6545 21.6566H10.6485C10.55 21.656 10.4526 21.6359 10.3618 21.5975C10.2711 21.5591 10.1888 21.5032 10.1197 21.433C10.0506 21.3628 9.99598 21.2796 9.95906 21.1882C9.92215 21.0969 9.90362 20.9991 9.90454 20.9006C9.93272 19.2597 9.86929 17.6185 9.71455 15.9846C9.54204 15.0907 9.02479 14.3004 8.27455 13.7846C7.99027 13.609 7.67115 13.4975 7.3394 13.4578C7.00765 13.4181 6.67124 13.4511 6.35355 13.5546C6.16458 13.6012 5.96491 13.5726 5.79662 13.4748C5.62833 13.3771 5.50457 13.2178 5.45141 13.0306C5.39825 12.8433 5.41985 12.6428 5.51165 12.4712C5.60346 12.2996 5.7583 12.1703 5.94354 12.1106C6.46264 11.9504 7.01002 11.9032 7.54888 11.9722C8.08773 12.0412 8.60556 12.2248 9.06755 12.5106C9.61608 12.8782 10.0861 13.351 10.4504 13.9017C10.8147 14.4524 11.0659 15.07 11.1895 15.7186C11.3602 17.4464 11.432 19.1826 11.4045 20.9186C11.4011 21.1154 11.3206 21.3029 11.1804 21.4409C11.0401 21.5789 10.8513 21.6564 10.6545 21.6566Z" fill="#000000" />
<path d="M13.0967 10.2357H11.3967C11.0701 10.2342 10.7574 10.1034 10.527 9.87197C10.2965 9.64056 10.167 9.32734 10.1667 9.00075V8.37275H9.53671C9.20969 8.37222 8.89622 8.24201 8.66508 8.01067C8.43393 7.77934 8.30398 7.46577 8.30371 7.13875V5.43875C8.30371 5.11165 8.43358 4.79792 8.66479 4.56653C8.89599 4.33514 9.20961 4.20502 9.53671 4.20475H10.1667V3.57775C10.167 3.25056 10.2971 2.93683 10.5284 2.70547C10.7598 2.4741 11.0735 2.34401 11.4007 2.34375H13.1007C13.4279 2.34401 13.7416 2.4741 13.973 2.70547C14.2043 2.93683 14.3344 3.25056 14.3347 3.57775V4.20475H14.9647C15.2919 4.20501 15.6056 4.3351 15.837 4.56647C16.0684 4.79783 16.1984 5.11156 16.1987 5.43875V7.13875C16.1982 7.46586 16.068 7.77943 15.8367 8.01073C15.6054 8.24204 15.2918 8.37222 14.9647 8.37275H14.3347V9.00075C14.3346 9.16315 14.3024 9.32393 14.2402 9.4739C14.1779 9.62387 14.0866 9.7601 13.9716 9.87479C13.8567 9.98949 13.7202 10.0804 13.5701 10.1423C13.42 10.2043 13.2591 10.236 13.0967 10.2357ZM11.6667 8.73575H12.8307V7.62375C12.8307 7.42484 12.9097 7.23407 13.0504 7.09341C13.191 6.95276 13.3818 6.87375 13.5807 6.87375H14.6947V5.70575H13.5807C13.3818 5.70575 13.191 5.62673 13.0504 5.48608C12.9097 5.34542 12.8307 5.15466 12.8307 4.95575V3.84475H11.6667V4.95575C11.6667 5.15466 11.5877 5.34542 11.447 5.48608C11.3064 5.62673 11.1156 5.70575 10.9167 5.70575H9.80371V6.87375H10.9167C11.1156 6.87375 11.3064 6.95276 11.447 7.09341C11.5877 7.23407 11.6667 7.42484 11.6667 7.62375V8.73575Z" fill="#000000" />
</svg>