<svg width="24px"  height="24px"  viewBox="0 0 25 24" fill="none" xmlns="http://www.w3.org/2000/svg">
<path fill-rule="evenodd" clip-rule="evenodd" d="M8.5351 8.38801C8.04103 8.69462 7.47747 8.96393 6.8497 9.04654C6.84909 9.04663 6.8482 9.04664 6.84707 9.04666C6.82928 9.04695 6.75006 9.04823 6.66616 9.32707C6.57268 9.63776 6.54823 10.1003 6.5845 10.6455C6.65489 11.7037 6.93068 12.7894 6.97611 12.9683L6.97732 12.973C7.04971 13.2557 7.52716 14.5117 8.44847 15.6818C9.36633 16.8475 10.6227 17.805 12.2475 17.7994H12.2527C13.8775 17.805 15.1339 16.8475 16.0518 15.6818C16.9723 14.5126 17.4497 13.2578 17.5227 12.9738C17.5228 12.9735 17.5227 12.974 17.5227 12.9738L17.5241 12.9683C17.5696 12.7894 17.8454 11.7037 17.9158 10.6455C17.952 10.1003 17.9276 9.63776 17.8341 9.32707C17.7502 9.04823 17.671 9.04695 17.6532 9.04666C17.6521 9.04664 17.6512 9.04663 17.6505 9.04654C17.0228 8.96393 16.4592 8.69462 15.9651 8.38801C15.5304 8.11819 15.1052 7.79021 14.7156 7.48959C14.666 7.45129 14.6169 7.41344 14.5684 7.3762C13.6383 6.6612 12.9446 6.19922 12.2501 6.19922C11.5556 6.19922 10.8619 6.6612 9.9318 7.3762C9.88337 7.41344 9.8343 7.45129 9.78466 7.48959C9.39501 7.79021 8.9699 8.11819 8.5351 8.38801ZM9.01762 6.18697C9.86171 5.53811 10.9598 4.69922 12.2501 4.69922C13.5405 4.69922 14.6385 5.53811 15.4826 6.18697C15.5326 6.2254 15.582 6.26343 15.6308 6.30103C16.0294 6.60832 16.3907 6.88672 16.7561 7.11348C17.1623 7.36558 17.5166 7.51598 17.8463 7.55937C18.6824 7.66941 19.0944 8.30978 19.2705 8.89489C19.4423 9.4659 19.4524 10.1438 19.4124 10.745C19.3328 11.9427 19.0292 13.1363 18.9791 13.3331L18.9761 13.3451C18.9177 13.5732 18.7589 14.0182 18.4959 14.5657C18.4724 14.6343 18.4417 14.6916 18.4117 14.7371C18.1254 15.3082 17.7329 15.9713 17.2303 16.6097C16.1742 17.9511 14.5295 19.3063 12.2501 19.2994C9.97076 19.3063 8.32609 17.9511 7.26994 16.6097C6.7674 15.9715 6.37499 15.3085 6.08865 14.7374C6.0586 14.6918 6.02772 14.6343 6.00419 14.5654C5.74126 14.018 5.58259 13.5732 5.5242 13.3451L5.52381 13.3436C5.52303 13.3405 5.52214 13.337 5.52115 13.3331C5.47109 13.1363 5.16747 11.9428 5.0878 10.745C5.04781 10.1438 5.05796 9.4659 5.22977 8.89489C5.40582 8.30978 5.81785 7.66941 6.65398 7.55937C6.98362 7.51598 7.33794 7.36558 7.74417 7.11348C8.10958 6.88672 8.4708 6.60832 8.86949 6.30104C8.91828 6.26343 8.96763 6.2254 9.01762 6.18697ZM17.2526 13.7972C17.2408 13.809 17.2295 13.8211 17.2186 13.8335C17.2337 13.8161 17.2458 13.804 17.2526 13.7972Z" fill="#000000" />
<path fill-rule="evenodd" clip-rule="evenodd" d="M13.415 14.1466C12.7494 14.055 12.078 14.0555 11.399 14.1469C10.9885 14.2022 10.6109 13.9142 10.5556 13.5037C10.5004 13.0932 10.7883 12.7156 11.1988 12.6604C12.0085 12.5513 12.8161 12.55 13.6196 12.6607C14.03 12.7172 14.3168 13.0957 14.2603 13.506C14.2038 13.9163 13.8253 14.2032 13.415 14.1466Z" fill="#000000" />
<path fill-rule="evenodd" clip-rule="evenodd" d="M14.4877 11.3053C13.1119 11.0689 11.7266 11.0712 10.3273 11.3058C9.91874 11.3742 9.53205 11.0986 9.46357 10.6901C9.39508 10.2816 9.67072 9.8949 10.0792 9.82641C11.6397 9.56479 13.1948 9.56119 14.7417 9.82691C15.1499 9.89703 15.424 10.2848 15.3539 10.6931C15.2838 11.1013 14.896 11.3754 14.4877 11.3053Z" fill="#000000" />
<path fill-rule="evenodd" clip-rule="evenodd" d="M5.35713 6.78405C5.93741 7.00468 6.45383 7.47048 6.87678 8.13095C7.10016 8.47977 6.99846 8.94363 6.64964 9.16701C6.30082 9.39038 5.83696 9.28869 5.61359 8.93987C5.30973 8.46536 5.02137 8.26115 4.82404 8.18612C4.64108 8.11656 4.50394 8.14198 4.39675 8.20482C4.1681 8.33887 3.82793 8.85385 4.09681 9.77499L4.09822 9.77984L4.09821 9.77984C4.65036 11.7199 5.93908 13.0728 7.06216 13.6548C7.42992 13.8454 7.57356 14.298 7.38297 14.6658C7.19239 15.0336 6.73976 15.1772 6.372 14.9866C4.87827 14.2125 3.32062 12.5249 2.65617 10.1928C2.26363 8.84483 2.63098 7.50126 3.63812 6.91081C4.14914 6.61121 4.76246 6.55795 5.35713 6.78405Z" fill="#000000" />
<path fill-rule="evenodd" clip-rule="evenodd" d="M19.6764 8.18612C19.4791 8.26115 19.1907 8.46536 18.8868 8.93987C18.6635 9.28869 18.1996 9.39038 17.8508 9.16701C17.502 8.94363 17.4003 8.47977 17.6237 8.13095C18.0466 7.47048 18.563 7.00468 19.1433 6.78405C19.738 6.55795 20.3513 6.61121 20.8623 6.91081C21.8695 7.50127 22.2368 8.84487 21.8442 10.1929C21.1798 12.5249 19.6221 14.2126 18.1284 14.9866C17.7607 15.1772 17.308 15.0336 17.1175 14.6658C16.9269 14.298 17.0705 13.8454 17.4383 13.6548C18.5614 13.0728 19.8501 11.7199 20.4022 9.77984L20.4036 9.77499C20.6725 8.85385 20.3323 8.33887 20.1037 8.20482C19.9965 8.14198 19.8594 8.11656 19.6764 8.18612Z" fill="#000000" />
</svg>