<svg width="24px"  height="24px"  viewBox="0 0 25 24" fill="none" xmlns="http://www.w3.org/2000/svg">
<path d="M12.2353 19.6652C8.68231 19.6652 6.18232 17.4752 5.19532 13.4982L5.90032 13.2232L5.19532 13.4792C4.80532 11.9562 4.31532 9.34118 5.16532 8.08717C5.29533 7.88799 5.46715 7.71951 5.66886 7.59344C5.87056 7.46738 6.0973 7.38675 6.33332 7.35717C7.21526 7.10728 8.02406 6.64868 8.69132 6.02017C9.12036 5.49389 9.66114 5.06971 10.2745 4.77839C10.8878 4.48708 11.5583 4.33594 12.2373 4.33594C12.9163 4.33594 13.5868 4.48708 14.2001 4.77839C14.8135 5.06971 15.3543 5.49389 15.7833 6.02017C16.4506 6.64868 17.2594 7.10728 18.1413 7.35717C18.3778 7.38703 18.6049 7.46797 18.8069 7.59437C19.0089 7.72077 19.1811 7.88961 19.3113 8.08917C20.1963 9.39917 19.5983 12.2462 19.3003 13.4092C18.2883 17.4752 15.7883 19.6652 12.2353 19.6652ZM6.62632 13.0382L6.65131 13.1382C7.46731 16.4282 9.39831 18.1672 12.2353 18.1672C15.0723 18.1672 17.0033 16.4282 17.8193 13.1382L17.8443 13.0382C18.3233 11.1682 18.4153 9.43817 18.0663 8.92417C18.0183 8.85317 17.9883 8.84517 17.9433 8.83917C16.7917 8.57057 15.7306 8.00516 14.8653 7.19917C14.1479 6.48597 13.2307 6.00752 12.2353 5.82717C11.2401 6.00735 10.3233 6.48584 9.60631 7.19917C8.74012 8.00356 7.6787 8.56753 6.52732 8.83518C6.48232 8.84118 6.45232 8.84917 6.40432 8.92017C6.05832 9.43217 6.15032 11.1582 6.62432 13.0202L5.90032 13.2142L6.62632 13.0382Z" fill="#000000" />
<path d="M18.2265 15.1558C18.0456 15.155 17.871 15.089 17.735 14.9697C17.599 14.8504 17.5107 14.686 17.4863 14.5067C17.462 14.3275 17.5032 14.1455 17.6025 13.9942C17.7018 13.843 17.8523 13.7327 18.0265 13.6838C18.5617 13.5712 19.0679 13.3491 19.5132 13.0316C19.9586 12.7141 20.3335 12.308 20.6145 11.8388C20.7206 11.6704 20.8892 11.551 21.0833 11.5069C21.2774 11.4628 21.4811 11.4977 21.6495 11.6038C21.8179 11.7099 21.9373 11.8785 21.9813 12.0726C22.0254 12.2667 21.9906 12.4704 21.8845 12.6388C21.5058 13.2652 21.0045 13.8086 20.4106 14.2365C19.8168 14.6644 19.1426 14.9679 18.4285 15.1288C18.3626 15.1466 18.2947 15.1557 18.2265 15.1558Z" fill="#000000" />
<path d="M6.24246 15.1468C6.17488 15.1468 6.10762 15.1377 6.04246 15.1198C5.33383 14.9581 4.66513 14.655 4.07643 14.2287C3.48773 13.8024 2.99116 13.2616 2.61647 12.6388C2.51038 12.4704 2.47553 12.2667 2.51961 12.0726C2.56368 11.8785 2.68306 11.7099 2.85147 11.6038C3.01988 11.4977 3.22353 11.4628 3.41763 11.5069C3.61173 11.551 3.78039 11.6704 3.88647 11.8388C4.16389 12.3047 4.53471 12.7081 4.97563 13.0238C5.41654 13.3394 5.91801 13.5604 6.44847 13.6728C6.62262 13.7217 6.7732 13.832 6.87247 13.9832C6.97173 14.1345 7.013 14.3165 6.98865 14.4957C6.96429 14.675 6.87596 14.8394 6.73994 14.9587C6.60392 15.078 6.42938 15.144 6.24847 15.1448L6.24246 15.1468Z" fill="#000000" />
<path d="M5.92073 9.09096C5.80792 9.09083 5.69654 9.06555 5.59473 9.01696C4.41114 8.47347 3.46268 7.52217 2.92273 6.33696C2.87759 6.24719 2.85094 6.14926 2.84438 6.049C2.83781 5.94873 2.85145 5.84816 2.88451 5.75327C2.91756 5.65838 2.96936 5.5711 3.03681 5.49662C3.10425 5.42213 3.18597 5.36195 3.27712 5.31966C3.36827 5.27737 3.46697 5.25383 3.5674 5.25043C3.66782 5.24703 3.76791 5.26385 3.86171 5.29988C3.95551 5.33591 4.04111 5.39043 4.11343 5.46018C4.18576 5.52994 4.24334 5.61352 4.28273 5.70596C4.67771 6.57643 5.37626 7.2732 6.24773 7.66596C6.40052 7.73996 6.52369 7.86361 6.59709 8.0167C6.67049 8.16978 6.68978 8.34324 6.65181 8.50871C6.61384 8.67418 6.52085 8.82187 6.38805 8.92763C6.25525 9.0334 6.0905 9.09098 5.92073 9.09096Z" fill="#000000" />
<path d="M18.5713 9.09096C18.4017 9.09053 18.2373 9.03263 18.1048 8.9267C17.9724 8.82078 17.8797 8.67309 17.842 8.50773C17.8043 8.34238 17.8238 8.16913 17.8972 8.01625C17.9706 7.86337 18.0937 7.73989 18.2463 7.66596C19.1178 7.2732 19.8163 6.57643 20.2113 5.70596C20.2507 5.61352 20.3083 5.52994 20.3806 5.46018C20.4529 5.39043 20.5385 5.33591 20.6323 5.29988C20.7261 5.26385 20.8262 5.24703 20.9267 5.25043C21.0271 5.25383 21.1258 5.27737 21.2169 5.31966C21.3081 5.36195 21.3898 5.42213 21.4573 5.49662C21.5247 5.5711 21.5765 5.65838 21.6096 5.75327C21.6426 5.84816 21.6562 5.94873 21.6497 6.049C21.6431 6.14926 21.6165 6.24719 21.5713 6.33696C21.0314 7.52217 20.0829 8.47347 18.8993 9.01696C18.7969 9.06571 18.6848 9.09099 18.5713 9.09096Z" fill="#000000" />
<path d="M13.4066 14.2286C13.3731 14.2286 13.3397 14.2262 13.3066 14.2216C12.5959 14.1246 11.8753 14.1246 11.1646 14.2216C10.9702 14.242 10.7755 14.1859 10.6219 14.0651C10.4682 13.9444 10.3677 13.7684 10.3417 13.5747C10.3156 13.381 10.3661 13.1848 10.4824 13.0278C10.5988 12.8707 10.7717 12.7652 10.9646 12.7336C11.8091 12.6201 12.6651 12.6201 13.5096 12.7336C13.6977 12.7594 13.8689 12.8557 13.9889 13.0029C14.1088 13.1501 14.1684 13.3373 14.1557 13.5267C14.143 13.7161 14.059 13.8937 13.9205 14.0236C13.782 14.1535 13.5994 14.226 13.4096 14.2266L13.4066 14.2286Z" fill="#000000" />
<path d="M14.5647 11.2358C14.5215 11.2359 14.4784 11.2326 14.4357 11.2258C12.9776 10.9768 11.4878 10.9768 10.0297 11.2258C9.93188 11.2439 9.83142 11.2423 9.73421 11.2212C9.63699 11.2 9.54496 11.1598 9.46345 11.1027C9.38195 11.0456 9.31262 10.973 9.25949 10.8888C9.20636 10.8047 9.17048 10.7109 9.15396 10.6128C9.13744 10.5147 9.14062 10.4143 9.16328 10.3174C9.18595 10.2205 9.22765 10.1291 9.28598 10.0486C9.34431 9.96796 9.41809 9.89978 9.50302 9.84798C9.58795 9.79617 9.68235 9.76179 9.7807 9.74682C11.4056 9.46981 13.0658 9.46981 14.6907 9.74682C14.8756 9.77883 15.0417 9.87897 15.1564 10.0275C15.2711 10.176 15.3259 10.3621 15.3101 10.5491C15.2943 10.736 15.2089 10.9103 15.0709 11.0374C14.933 11.1645 14.7523 11.2353 14.5647 11.2358Z" fill="#000000" />
</svg>