<svg width="24px"  height="24px"  viewBox="0 0 25 24" fill="none" xmlns="http://www.w3.org/2000/svg">
<path fill-rule="evenodd" clip-rule="evenodd" d="M11.0802 7.19917C9.40656 7.9487 7.98329 8.4303 6.81955 8.75898L7.52039 15.7436C7.56175 16.1558 7.26116 16.5234 6.84902 16.5648C6.43688 16.6061 6.06924 16.3055 6.02789 15.8934L5.26355 8.27592C5.2266 7.90768 5.46378 7.56753 5.8221 7.47491C7.01807 7.16575 8.57036 6.67975 10.4688 5.82942L10.4722 5.82794L10.4722 5.82795C11.6733 5.29693 13.0504 5.29693 14.2515 5.82795L14.253 5.82859C16.0632 6.63345 17.5443 7.16079 18.7092 7.47728C19.0641 7.57371 19.2967 7.91326 19.2584 8.27904L18.4618 15.8968C18.4187 16.3087 18.0498 16.6078 17.6379 16.5647C17.2259 16.5216 16.9269 16.1527 16.97 15.7407L17.7013 8.74765C16.5637 8.40189 15.2131 7.89701 13.6443 7.19955C12.8302 6.83986 11.8945 6.83973 11.0802 7.19917Z" fill="#000000" />
<path fill-rule="evenodd" clip-rule="evenodd" d="M9.85938 14.0078C9.85938 13.5936 10.1952 13.2578 10.6094 13.2578H13.8873C14.3015 13.2578 14.6373 13.5936 14.6373 14.0078C14.6373 14.422 14.3015 14.7578 13.8873 14.7578H10.6094C10.1952 14.7578 9.85938 14.422 9.85938 14.0078Z" fill="#000000" />
<path fill-rule="evenodd" clip-rule="evenodd" d="M9.33008 10.6797C9.33008 10.2655 9.66586 9.92969 10.0801 9.92969H14.4186C14.8328 9.92969 15.1686 10.2655 15.1686 10.6797C15.1686 11.0939 14.8328 11.4297 14.4186 11.4297H10.0801C9.66586 11.4297 9.33008 11.0939 9.33008 10.6797Z" fill="#000000" />
<path fill-rule="evenodd" clip-rule="evenodd" d="M3.48614 6.63157C3.70478 6.27976 4.16722 6.1718 4.51903 6.39044L6.40702 7.56376C6.75883 7.7824 6.86678 8.24484 6.64814 8.59665C6.4295 8.94846 5.96706 9.05642 5.61525 8.83778L3.72727 7.66445C3.37546 7.44581 3.2675 6.98337 3.48614 6.63157ZM21.0094 6.64084C21.229 6.99208 21.1222 7.45479 20.771 7.67435L18.9114 8.83675C18.5601 9.0563 18.0974 8.94955 17.8779 8.59831C17.6583 8.24707 17.7651 7.78435 18.1163 7.5648L19.9759 6.4024C20.3271 6.18284 20.7899 6.2896 21.0094 6.64084Z" fill="#000000" />
<path fill-rule="evenodd" clip-rule="evenodd" d="M2.95913 10.4535C3.34088 10.2928 3.78066 10.4719 3.94141 10.8537C5.52139 14.6058 8.68559 17.0703 12.2502 17.0703C15.8046 17.0703 18.9792 14.6053 20.559 10.8537C20.7197 10.4719 21.1595 10.2928 21.5413 10.4535C21.923 10.6143 22.1022 11.054 21.9414 11.4358C20.1878 15.6003 16.5497 18.5703 12.2502 18.5703C7.93956 18.5703 4.3124 15.5998 2.55898 11.4358C2.39823 11.054 2.57738 10.6143 2.95913 10.4535Z" fill="#000000" />
</svg>