<svg width="24px"  height="24px"  viewBox="0 0 25 24" fill="none" xmlns="http://www.w3.org/2000/svg">
<path fill-rule="evenodd" clip-rule="evenodd" d="M2.61426 9.90303C2.61426 7.25781 4.75879 5.11328 7.40401 5.11328H17.0957C19.7409 5.11328 21.8855 7.25781 21.8855 9.90303V16.9619C21.8855 19.6071 19.7409 21.7516 17.0957 21.7516H7.40401C4.75879 21.7516 2.61426 19.6071 2.61426 16.9619V9.90303ZM7.40401 6.61328C5.58721 6.61328 4.11426 8.08624 4.11426 9.90303V16.9619C4.11426 18.7787 5.58721 20.2516 7.40401 20.2516H17.0957C18.9125 20.2516 20.3855 18.7787 20.3855 16.9619V9.90303C20.3855 8.08624 18.9125 6.61328 17.0957 6.61328H7.40401Z" fill="#000000" />
<path fill-rule="evenodd" clip-rule="evenodd" d="M7.16016 13.4293C7.16016 10.6185 9.43906 8.33984 12.2506 8.33984C15.0612 8.33984 17.34 10.6186 17.34 13.4293C17.34 16.2399 15.0612 18.5187 12.2506 18.5187C9.43906 18.5187 7.16016 16.24 7.16016 13.4293ZM12.2506 9.83984C10.2673 9.83984 8.66016 11.4472 8.66016 13.4293C8.66016 15.4114 10.2673 17.0187 12.2506 17.0187C14.2327 17.0187 15.84 15.4115 15.84 13.4293C15.84 11.4471 14.2327 9.83984 12.2506 9.83984Z" fill="#000000" />
<path fill-rule="evenodd" clip-rule="evenodd" d="M12.252 11.0977C12.6662 11.0977 13.002 11.4334 13.002 11.8477V15.0127C13.002 15.4269 12.6662 15.7627 12.252 15.7627C11.8377 15.7627 11.502 15.4269 11.502 15.0127V11.8477C11.502 11.4334 11.8377 11.0977 12.252 11.0977Z" fill="#000000" />
<path fill-rule="evenodd" clip-rule="evenodd" d="M9.91992 13.4297C9.91992 13.0155 10.2557 12.6797 10.6699 12.6797H13.835C14.2492 12.6797 14.585 13.0155 14.585 13.4297C14.585 13.8439 14.2492 14.1797 13.835 14.1797H10.6699C10.2557 14.1797 9.91992 13.8439 9.91992 13.4297Z" fill="#000000" />
<path fill-rule="evenodd" clip-rule="evenodd" d="M8.11914 4.93717C8.11914 3.4527 9.32184 2.25 10.8063 2.25H13.696C15.1805 2.25 16.3832 3.4527 16.3832 4.93717V5.86149C16.3832 6.2757 16.0474 6.61149 15.6332 6.61149C15.219 6.61149 14.8832 6.2757 14.8832 5.86149V4.93717C14.8832 4.28113 14.3521 3.75 13.696 3.75H10.8063C10.1503 3.75 9.61914 4.28113 9.61914 4.93717V5.86149C9.61914 6.2757 9.28335 6.61149 8.86914 6.61149C8.45493 6.61149 8.11914 6.2757 8.11914 5.86149V4.93717Z" fill="#000000" />
</svg>