<svg width="24px"  height="24px"  viewBox="0 0 25 24" fill="none" xmlns="http://www.w3.org/2000/svg">
<path fill-rule="evenodd" clip-rule="evenodd" d="M6.672 4.11309C6.672 3.0831 7.50778 2.25 8.53607 2.25H13.3796C14.4087 2.25 15.2427 3.08395 15.2427 4.11309V5.96799L16.6062 7.28815C16.6062 7.28815 16.6062 7.28815 16.6062 7.28815C17.2418 7.90353 17.6002 8.75094 17.6002 9.63576C17.6002 10.05 17.2644 10.3858 16.8502 10.3858C16.436 10.3858 16.1002 10.05 16.1002 9.63576C16.1002 9.15645 15.906 8.69812 15.5628 8.36581L13.971 6.82459C13.8251 6.68331 13.7427 6.48888 13.7427 6.28577V4.11309C13.7427 3.91238 13.5803 3.75 13.3796 3.75H8.53607C8.3345 3.75 8.172 3.91324 8.172 4.11309V6.28577C8.172 6.4888 8.08968 6.68316 7.94386 6.82444L6.35303 8.36564C6.00981 8.69795 5.81543 9.15645 5.81543 9.63576V18.3605C5.81543 19.3367 6.60733 20.1286 7.58351 20.1286H10.6562C11.0704 20.1286 11.4062 20.4644 11.4062 20.8786C11.4062 21.2928 11.0704 21.6286 10.6562 21.6286H7.58351C5.77891 21.6286 4.31543 20.1651 4.31543 18.3605V9.63576C4.31543 8.75102 4.67382 7.90368 5.30931 7.28831C5.30936 7.28826 5.30925 7.28837 5.30931 7.28831L6.672 5.96813V4.11309Z" fill="#000000" />
<path fill-rule="evenodd" clip-rule="evenodd" d="M10.9561 9.89844C11.3703 9.89844 11.7061 10.2342 11.7061 10.6484V14.0957C11.7061 14.5099 11.3703 14.8457 10.9561 14.8457C10.5418 14.8457 10.2061 14.5099 10.2061 14.0957V10.6484C10.2061 10.2342 10.5418 9.89844 10.9561 9.89844Z" fill="#000000" />
<path fill-rule="evenodd" clip-rule="evenodd" d="M8.48242 12.375C8.48242 11.9608 8.81821 11.625 9.23242 11.625H12.6807C13.0949 11.625 13.4307 11.9608 13.4307 12.375C13.4307 12.7892 13.0949 13.125 12.6807 13.125H9.23242C8.81821 13.125 8.48242 12.7892 8.48242 12.375Z" fill="#000000" />
<path fill-rule="evenodd" clip-rule="evenodd" d="M4.37305 17.9102C4.37305 17.4959 4.70883 17.1602 5.12305 17.1602H11.2782C11.6924 17.1602 12.0282 17.4959 12.0282 17.9102C12.0282 18.3244 11.6924 18.6602 11.2782 18.6602H5.12305C4.70883 18.6602 4.37305 18.3244 4.37305 17.9102Z" fill="#000000" />
<path fill-rule="evenodd" clip-rule="evenodd" d="M6.67188 6.28516C6.67188 5.87094 7.00766 5.53516 7.42188 5.53516H14.4926C14.9068 5.53516 15.2426 5.87094 15.2426 6.28516C15.2426 6.69937 14.9068 7.03516 14.4926 7.03516H7.42188C7.00766 7.03516 6.67188 6.69937 6.67188 6.28516Z" fill="#000000" />
<path fill-rule="evenodd" clip-rule="evenodd" d="M17.7814 13.4375C17.0534 13.1533 16.233 13.513 15.9486 14.2415L14.359 18.3178C14.0755 19.046 14.4353 19.8666 15.1635 20.151C15.8917 20.4344 16.7119 20.0745 16.9963 19.3464M16.9963 19.3464L18.5861 15.2698C18.5861 15.2697 18.5861 15.2699 18.5861 15.2698C18.8697 14.5414 18.509 13.7209 17.7814 13.4375M18.3263 12.04C16.8263 11.4548 15.1367 12.1965 14.5513 13.696L12.9614 17.773C12.3772 19.2729 13.1185 20.9628 14.6182 21.5483C16.118 22.1325 17.8083 21.3913 18.3937 19.8916L19.9837 15.8145C20.5678 14.3151 19.8264 12.6247 18.3263 12.04Z" fill="#000000" />
<path fill-rule="evenodd" clip-rule="evenodd" d="M13.7565 15.7355C13.907 15.3496 14.3419 15.1588 14.7278 15.3093L18.7618 16.8826C19.1477 17.0331 19.3385 17.4679 19.188 17.8538C19.0375 18.2398 18.6027 18.4306 18.2168 18.2801L14.1828 16.7068C13.7969 16.5562 13.606 16.1214 13.7565 15.7355Z" fill="#000000" />
</svg>