<svg width="24px"  height="24px"  viewBox="0 0 25 24" fill="none" xmlns="http://www.w3.org/2000/svg">
<path fill-rule="evenodd" clip-rule="evenodd" d="M7.94046 4.12086C7.94046 3.08742 8.77873 2.25 9.8123 2.25H14.6879C15.7214 2.25 16.5597 3.08742 16.5597 4.12086V5.99051L17.933 7.32124C17.933 7.32129 17.9329 7.32119 17.933 7.32124C18.5721 7.94023 18.9328 8.79148 18.9328 9.68141V18.4644C18.9328 20.2788 17.4615 21.75 15.6472 21.75H8.85295C7.03863 21.75 5.56738 20.2788 5.56738 18.4644V9.68141C5.56738 8.79148 5.92795 7.94039 6.56703 7.32139C6.56708 7.32134 6.56698 7.32144 6.56703 7.32139L7.94046 5.99051V4.12086ZM9.8123 3.75C9.60631 3.75 9.44046 3.91669 9.44046 4.12086V6.30811C9.44046 6.51111 9.35817 6.70545 9.21238 6.84672L7.61087 8.39861C7.26346 8.73506 7.06738 9.19757 7.06738 9.68141V18.4644C7.06738 19.4503 7.86706 20.25 8.85295 20.25H15.6472C16.6331 20.25 17.4328 19.4503 17.4328 18.4644V9.68141C17.4328 9.19757 17.2369 8.73521 16.8895 8.39876L15.2878 6.84672C15.142 6.70545 15.0597 6.51111 15.0597 6.30811V4.12086C15.0597 3.91669 14.8939 3.75 14.6879 3.75H9.8123Z" fill="#000000" />
<path fill-rule="evenodd" clip-rule="evenodd" d="M5.625 18.0117C5.625 17.5975 5.96079 17.2617 6.375 17.2617H18.1227C18.5369 17.2617 18.8727 17.5975 18.8727 18.0117C18.8727 18.4259 18.5369 18.7617 18.1227 18.7617H6.375C5.96079 18.7617 5.625 18.4259 5.625 18.0117Z" fill="#000000" />
<path fill-rule="evenodd" clip-rule="evenodd" d="M12.25 9.94922C12.6642 9.94922 13 10.285 13 10.6992V14.1708C13 14.585 12.6642 14.9208 12.25 14.9208C11.8358 14.9208 11.5 14.585 11.5 14.1708V10.6992C11.5 10.285 11.8358 9.94922 12.25 9.94922Z" fill="#000000" />
<path fill-rule="evenodd" clip-rule="evenodd" d="M9.76367 12.4375C9.76367 12.0233 10.0995 11.6875 10.5137 11.6875H13.9852C14.3995 11.6875 14.7352 12.0233 14.7352 12.4375C14.7352 12.8517 14.3995 13.1875 13.9852 13.1875H10.5137C10.0995 13.1875 9.76367 12.8517 9.76367 12.4375Z" fill="#000000" />
<path fill-rule="evenodd" clip-rule="evenodd" d="M7.93945 6.30859C7.93945 5.89438 8.27524 5.55859 8.68945 5.55859H15.8087C16.2229 5.55859 16.5587 5.89438 16.5587 6.30859C16.5587 6.72281 16.2229 7.05859 15.8087 7.05859H8.68945C8.27524 7.05859 7.93945 6.72281 7.93945 6.30859Z" fill="#000000" />
</svg>