<svg width="24px"  height="24px"  viewBox="0 0 25 24" fill="none" xmlns="http://www.w3.org/2000/svg">
<path d="M15.6534 21.75H8.85339C7.98222 21.7489 7.14702 21.4024 6.53101 20.7864C5.91499 20.1704 5.56844 19.3352 5.56738 18.464V9.681C5.56837 9.24098 5.65737 8.8056 5.8291 8.40048C6.00084 7.99536 6.25184 7.62867 6.56738 7.32199L7.94038 5.98999V4.121C7.94118 3.62485 8.1387 3.14926 8.48962 2.79852C8.84055 2.44779 9.31624 2.25053 9.81239 2.25H14.6884C15.1845 2.25053 15.6602 2.44779 16.0112 2.79852C16.3621 3.14926 16.5596 3.62485 16.5604 4.121V5.98999L17.9334 7.32199C18.2489 7.62867 18.4999 7.99536 18.6717 8.40048C18.8434 8.8056 18.9324 9.24098 18.9334 9.681V18.464C18.9323 19.3341 18.5866 20.1684 17.9719 20.7843C17.3572 21.4001 16.5235 21.7474 15.6534 21.75ZM9.81839 3.75C9.7199 3.75 9.62543 3.78906 9.55569 3.85861C9.48596 3.92816 9.44665 4.02252 9.44638 4.121V6.30801C9.44648 6.40841 9.42635 6.50778 9.38718 6.60022C9.348 6.69266 9.29059 6.77626 9.21838 6.84601L7.61839 8.39801C7.44699 8.56497 7.3106 8.76442 7.21719 8.98471C7.12379 9.20501 7.07523 9.44172 7.07439 9.681V18.464C7.07492 18.9375 7.26326 19.3915 7.59808 19.7263C7.93291 20.0611 8.38687 20.2495 8.86038 20.25H15.6534C16.1269 20.2495 16.5809 20.0611 16.9157 19.7263C17.2505 19.3915 17.4389 18.9375 17.4394 18.464V9.681C17.4389 9.4419 17.3906 9.2053 17.2974 8.98514C17.2041 8.76497 17.0678 8.56568 16.8964 8.39899L15.2964 6.84601C15.2242 6.77626 15.1668 6.69266 15.1276 6.60022C15.0884 6.50778 15.0683 6.40841 15.0684 6.30801V4.121C15.0681 4.02252 15.0288 3.92816 14.9591 3.85861C14.8893 3.78906 14.7949 3.75 14.6964 3.75H9.81839Z" fill="#000000" />
<path d="M18.1259 18.7617H6.37793C6.17902 18.7617 5.98825 18.6827 5.8476 18.5421C5.70694 18.4014 5.62793 18.2106 5.62793 18.0117C5.62793 17.8128 5.70694 17.622 5.8476 17.4814C5.98825 17.3407 6.17902 17.2617 6.37793 17.2617H18.1259C18.3248 17.2617 18.5156 17.3407 18.6563 17.4814C18.7969 17.622 18.8759 17.8128 18.8759 18.0117C18.8759 18.2106 18.7969 18.4014 18.6563 18.5421C18.5156 18.6827 18.3248 18.7617 18.1259 18.7617Z" fill="#000000" />
<path d="M15.8124 7.05859H8.69238C8.49347 7.05859 8.30272 6.97958 8.16206 6.83893C8.02141 6.69828 7.94238 6.50751 7.94238 6.30859C7.94238 6.10968 8.02141 5.91891 8.16206 5.77826C8.30272 5.63761 8.49347 5.55859 8.69238 5.55859H15.8124C16.0113 5.55859 16.2021 5.63761 16.3427 5.77826C16.4834 5.91891 16.5624 6.10968 16.5624 6.30859C16.5624 6.50751 16.4834 6.69828 16.3427 6.83893C16.2021 6.97958 16.0113 7.05859 15.8124 7.05859Z" fill="#000000" />
<path d="M12.2527 14.9213C11.7714 14.9213 11.3008 14.7795 10.8996 14.5136C10.4984 14.2477 10.1845 13.8694 9.99709 13.4261C9.80964 12.9829 9.75696 12.4942 9.84564 12.0211C9.93431 11.5481 10.1604 11.1116 10.4957 10.7663L10.5207 10.7393L11.7207 9.53934C11.8616 9.39907 12.0524 9.32031 12.2512 9.32031C12.45 9.32031 12.6408 9.39907 12.7817 9.53934L13.9817 10.7393C14.4399 11.1993 14.6972 11.8221 14.6972 12.4713C14.6972 13.1206 14.4399 13.7434 13.9817 14.2033C13.755 14.4316 13.4853 14.6126 13.1882 14.7359C12.891 14.8592 12.5724 14.9222 12.2507 14.9213H12.2527ZM11.6027 11.7784C11.5957 11.7874 11.5877 11.7943 11.5807 11.8023C11.4478 11.935 11.3573 12.1041 11.3206 12.2883C11.2839 12.4724 11.3028 12.6633 11.3748 12.8368C11.4468 13.0102 11.5686 13.1583 11.7249 13.2624C11.8812 13.3665 12.0649 13.4218 12.2527 13.4213C12.3772 13.4216 12.5005 13.3971 12.6155 13.3494C12.7305 13.3017 12.8349 13.2317 12.9227 13.1433C13.1005 12.9649 13.2004 12.7233 13.2004 12.4713C13.2004 12.2194 13.1005 11.9778 12.9227 11.7993L12.2517 11.1293L11.6027 11.7784Z" fill="#000000" />
</svg>