<svg width="24px"  height="24px"  viewBox="0 0 25 24" fill="none" xmlns="http://www.w3.org/2000/svg">
<path d="M16.6525 21.2937C15.5678 21.2963 14.5077 20.9708 13.6113 20.3602C12.7149 19.7495 12.0241 18.882 11.6295 17.8717L10.9995 18.5017C10.5438 18.9785 9.99728 19.3594 9.39228 19.622C8.78728 19.8846 8.13595 20.0238 7.47645 20.0312C6.81694 20.0386 6.16258 19.9141 5.55183 19.6652C4.94108 19.4162 4.38624 19.0477 3.91987 18.5813C3.4535 18.115 3.08503 17.5601 2.83607 16.9494C2.5871 16.3386 2.46262 15.6843 2.47004 15.0248C2.47746 14.3653 2.61658 13.7139 2.87922 13.1089C3.14186 12.5039 3.52278 11.9575 3.99952 11.5017L11.3505 4.14973C12.2561 3.24605 13.4764 2.72794 14.7556 2.70399C16.0347 2.68005 17.2736 3.15213 18.2124 4.02128C19.1513 4.89044 19.7172 6.08925 19.7918 7.36647C19.8664 8.64369 19.4438 9.9002 18.6125 10.8727C19.7799 11.3334 20.7505 12.1864 21.3572 13.285C21.964 14.3836 22.1692 15.6593 21.9375 16.8927C21.7058 18.1262 21.0517 19.2405 20.0875 20.044C19.1234 20.8475 17.9095 21.2901 16.6545 21.2957L16.6525 21.2937ZM12.8355 16.6657C12.974 17.3566 13.2972 17.9971 13.771 18.5187C14.2448 19.0403 14.8512 19.4236 15.5256 19.6277C16.2001 19.8318 16.9173 19.8491 17.6008 19.6777C18.2843 19.5063 18.9084 19.1526 19.4067 18.6544C19.9051 18.1562 20.2589 17.5321 20.4304 16.8487C20.602 16.1652 20.5849 15.448 20.3809 14.7735C20.177 14.0991 19.7937 13.4925 19.2722 13.0187C18.7507 12.5448 18.1104 12.2213 17.4195 12.0827L12.8355 16.6657ZM8.2035 9.41472L5.05848 12.5597C4.41259 13.2077 4.04993 14.0853 4.04993 15.0002C4.04993 15.9151 4.41259 16.7927 5.05848 17.4407C5.71628 18.0678 6.59018 18.4176 7.49897 18.4176C8.40776 18.4176 9.28173 18.0678 9.93952 17.4407L13.0845 14.2967L8.2035 9.41472ZM9.26447 8.35371L14.1455 13.2357L17.2905 10.0907C17.9379 9.44332 18.3016 8.56529 18.3016 7.64973C18.3016 6.73418 17.9379 5.85612 17.2905 5.20872C16.6431 4.56133 15.765 4.19765 14.8495 4.19765C13.9339 4.19765 13.0559 4.56133 12.4085 5.20872L9.26447 8.35371ZM14.2135 10.5297C14.0635 10.5297 13.917 10.4846 13.7929 10.4005C13.6687 10.3163 13.5727 10.1969 13.5172 10.0575C13.4616 9.91823 13.4491 9.76543 13.4812 9.61894C13.5134 9.47245 13.5887 9.33898 13.6975 9.23573L15.1845 7.82674C15.3288 7.69002 15.5215 7.61619 15.7202 7.62153C15.9189 7.62688 16.1072 7.71096 16.244 7.85524C16.3807 7.99952 16.4545 8.19219 16.4492 8.39088C16.4438 8.58958 16.3598 8.778 16.2155 8.91472L14.7295 10.3237C14.5907 10.4568 14.4058 10.531 14.2135 10.5307V10.5297Z" fill="#000000" />
</svg>