<svg width="24px"  height="24px"  viewBox="0 0 25 24" fill="none" xmlns="http://www.w3.org/2000/svg">
<path fill-rule="evenodd" clip-rule="evenodd" d="M19.2262 3.68575C16.6297 1.50716 12.76 1.84639 10.5814 4.44161L19.2262 3.68575ZM11.7303 5.40603L5.66633 12.6334C4.02008 14.5953 4.27554 17.5191 6.23728 19.1652C8.19902 20.8113 11.1228 20.5552 12.769 18.5932L18.8332 11.3667C18.8332 11.3667 18.8331 11.3667 18.8332 11.3667C20.4795 9.40469 20.2238 6.48008 18.2623 4.83506C16.3006 3.18894 13.3765 3.44495 11.7303 5.40603ZM19.2262 3.68575C21.8229 5.86364 22.1607 9.73467 19.9822 12.3309L13.9181 19.5574C11.7395 22.1538 7.86964 22.493 5.2731 20.3143C2.67656 18.1355 2.33866 14.2656 4.51722 11.6693C4.51723 11.6692 4.51722 11.6693 4.51722 11.6693L10.5814 4.44161" fill="#000000" />
<path fill-rule="evenodd" clip-rule="evenodd" d="M7.78291 8.2484C8.04916 7.93109 8.52222 7.8897 8.83953 8.15595L16.6264 14.6899C16.9437 14.9561 16.9851 15.4292 16.7188 15.7465C16.4526 16.0638 15.9795 16.1052 15.6622 15.839L7.87535 9.30502C7.55804 9.03877 7.51665 8.5657 7.78291 8.2484Z" fill="#000000" />
</svg>