<svg width="24px"  height="24px"  viewBox="0 0 25 24" fill="none" xmlns="http://www.w3.org/2000/svg">
<path fill-rule="evenodd" clip-rule="evenodd" d="M9.93402 5.99363C9.93401 5.99364 9.934 5.99366 9.93399 5.99367L4.60335 12.5414L4.60332 12.5415C3.67251 13.6846 3.83761 15.3733 4.96828 16.3103L4.96847 16.3105C6.09433 17.2442 7.75766 17.0815 8.68515 15.9424C8.68517 15.9424 8.68518 15.9424 8.68519 15.9424L14.0158 9.39462L14.0159 9.39457C14.9467 8.25142 14.7816 6.56275 13.6509 5.62571C12.5239 4.69173 10.8614 4.85468 9.93402 5.99363ZM8.77081 5.04656C10.2232 3.26287 12.8377 3.00359 14.608 4.47078C16.3747 5.93493 16.628 8.56216 15.179 10.3417L9.84841 16.8894L9.84837 16.8895C8.39608 18.6731 5.7805 18.9326 4.01094 17.4651C2.24442 16.0009 1.99122 13.3739 3.4401 11.5944C3.44012 11.5944 3.44013 11.5944 3.44014 11.5944L8.77077 5.0466L8.77081 5.04656Z" fill="#000000" />
<path fill-rule="evenodd" clip-rule="evenodd" d="M13.0449 15.9723C13.0449 13.4873 15.0428 11.4609 17.5222 11.4609C20.0016 11.4609 21.9995 13.4873 21.9995 15.9723C21.9995 18.4575 20.0013 20.4826 17.5222 20.4826C15.0431 20.4826 13.0449 18.4575 13.0449 15.9723ZM17.5222 12.9609C15.8842 12.9609 14.5449 14.3028 14.5449 15.9723C14.5449 17.6415 15.8839 18.9826 17.5222 18.9826C19.1605 18.9826 20.4995 17.6415 20.4995 15.9723C20.4995 14.3028 19.1602 12.9609 17.5222 12.9609Z" fill="#000000" />
<path fill-rule="evenodd" clip-rule="evenodd" d="M20.7143 12.8266C21.0085 13.1182 21.0107 13.593 20.7192 13.8873L15.4605 19.1946C15.169 19.4888 14.6941 19.491 14.3999 19.1995C14.1056 18.9079 14.1034 18.433 14.395 18.1388L19.6536 12.8315C19.9452 12.5373 20.4201 12.5351 20.7143 12.8266Z" fill="#000000" />
<path fill-rule="evenodd" clip-rule="evenodd" d="M6.11012 8.31043C6.37447 7.99154 6.84728 7.94733 7.16617 8.21168L12.4112 12.5597C12.7301 12.824 12.7743 13.2969 12.51 13.6157C12.2456 13.9346 11.7728 13.9788 11.4539 13.7145L6.20887 9.36648C5.88998 9.10213 5.84577 8.62932 6.11012 8.31043Z" fill="#000000" />
</svg>