<svg width="24px"  height="24px"  viewBox="0 0 25 24" fill="none" xmlns="http://www.w3.org/2000/svg">
<path d="M12.2465 21.7473C12.0476 21.7473 11.8568 21.6682 11.7161 21.5276C11.5755 21.3869 11.4965 21.1962 11.4965 20.9973V19.8242C10.157 19.7174 8.84783 19.3702 7.63147 18.7993C7.13793 18.5713 6.72008 18.2067 6.42746 17.7485C6.13484 17.2903 5.97972 16.7579 5.98047 16.2143V7.26926C5.98127 6.51019 6.28314 5.78244 6.81989 5.2457C7.35663 4.70895 8.08438 4.40704 8.84345 4.40625H15.6465C16.4054 4.40731 17.1328 4.70932 17.6694 5.24603C18.2059 5.78275 18.5077 6.51036 18.5085 7.26926V16.2143C18.5089 16.7581 18.3536 17.2907 18.0609 17.749C17.7681 18.2073 17.3501 18.5721 16.8564 18.8003C15.6404 19.3699 14.332 19.7168 12.9935 19.8242V20.9983C12.9932 21.1965 12.9145 21.3865 12.7745 21.5269C12.6345 21.6672 12.4447 21.7465 12.2465 21.7473ZM8.84647 5.90625C8.48514 5.90678 8.13877 6.05056 7.88327 6.30606C7.62778 6.56156 7.48399 6.90793 7.48346 7.26926V16.2143C7.4822 16.4706 7.55458 16.7219 7.69196 16.9384C7.82934 17.1548 8.02595 17.3273 8.25846 17.4353C9.48273 18.0185 10.8176 18.3332 12.1735 18.3582C12.224 18.3523 12.275 18.3523 12.3255 18.3582C13.6806 18.3331 15.0147 18.0187 16.2385 17.4362C16.4711 17.328 16.6678 17.1555 16.8054 16.9389C16.9429 16.7223 17.0155 16.4708 17.0145 16.2143V7.26926C17.0142 6.90802 16.8706 6.56165 16.6153 6.30612C16.36 6.0506 16.0137 5.90678 15.6525 5.90625H8.84647Z" fill="#000000" />
<path d="M13.6273 5.909C13.4283 5.909 13.2376 5.82998 13.0969 5.68933C12.9563 5.54868 12.8773 5.35791 12.8773 5.159V4.38101C12.8773 4.21366 12.8108 4.05315 12.6924 3.93481C12.5741 3.81648 12.4136 3.75 12.2462 3.75C12.0789 3.75 11.9184 3.81648 11.8 3.93481C11.6817 4.05315 11.6152 4.21366 11.6152 4.38101V5.159C11.6152 5.35791 11.5362 5.54868 11.3956 5.68933C11.2549 5.82998 11.0641 5.909 10.8652 5.909C10.6663 5.909 10.4756 5.82998 10.3349 5.68933C10.1943 5.54868 10.1152 5.35791 10.1152 5.159V4.38101C10.1152 3.81584 10.3398 3.27379 10.7394 2.87415C11.1391 2.47451 11.6811 2.25 12.2462 2.25C12.8114 2.25 13.3534 2.47451 13.7531 2.87415C14.1527 3.27379 14.3773 3.81584 14.3773 4.38101V5.159C14.3773 5.35791 14.2982 5.54868 14.1576 5.68933C14.0169 5.82998 13.8262 5.909 13.6273 5.909Z" fill="#000000" />
<path d="M17.2599 14.9727C17.0919 14.9727 16.9839 14.9727 16.8729 14.9647C16.6929 14.9647 16.4989 14.9527 15.9729 14.9647H15.9559C15.7569 14.9669 15.5653 14.8901 15.4231 14.751C15.2808 14.6119 15.1996 14.4221 15.1974 14.2232C15.1951 14.0243 15.272 13.8326 15.411 13.6903C15.5501 13.5481 15.7399 13.4669 15.9389 13.4647C16.5179 13.4517 16.7269 13.4587 16.9259 13.4647C17.1019 13.4717 17.2689 13.4777 17.7409 13.4647H17.7609C17.9598 13.4621 18.1515 13.5387 18.294 13.6776C18.4364 13.8165 18.5179 14.0063 18.5204 14.2052C18.5229 14.4041 18.4463 14.5958 18.3074 14.7383C18.1686 14.8807 17.9788 14.9621 17.7799 14.9647C17.5519 14.9707 17.3879 14.9727 17.2599 14.9727ZM17.2599 12.0917C17.0909 12.0917 16.9819 12.0917 16.8709 12.0837C16.6899 12.0787 16.4999 12.0717 15.9709 12.0837H15.9539C15.755 12.0859 15.5633 12.0091 15.421 11.87C15.2788 11.731 15.1976 11.5411 15.1954 11.3422C15.1931 11.1432 15.27 10.9516 15.409 10.8094C15.5481 10.6671 15.7379 10.5859 15.9368 10.5837C16.5198 10.5717 16.7269 10.5787 16.9259 10.5837C17.1009 10.5837 17.2689 10.5957 17.7399 10.5837C17.839 10.5784 17.9383 10.5933 18.0315 10.6277C18.1246 10.6621 18.2098 10.7151 18.2818 10.7835C18.3538 10.852 18.4111 10.9344 18.4501 11.0257C18.4891 11.117 18.5091 11.2153 18.5089 11.3147C18.5137 11.5137 18.4393 11.7065 18.3021 11.8507C18.1648 11.9949 17.9759 12.0787 17.7769 12.0837C17.5539 12.0897 17.3918 12.0917 17.2648 12.0917H17.2599ZM17.2599 9.21066C17.0909 9.21066 16.9819 9.21066 16.8709 9.20266C16.6899 9.19766 16.4999 9.18966 15.9709 9.20266H15.9539C15.755 9.20492 15.5633 9.12807 15.421 8.98901C15.2788 8.84995 15.1976 8.66009 15.1954 8.46118C15.1931 8.26227 15.27 8.07059 15.409 7.92834C15.5481 7.7861 15.7379 7.70492 15.9368 7.70266C16.5198 7.68966 16.7269 7.69666 16.9259 7.70266C17.1009 7.70766 17.2689 7.71466 17.7399 7.70266H17.7589C17.8574 7.70148 17.9551 7.71972 18.0466 7.75631C18.138 7.79291 18.2213 7.84717 18.2918 7.91598C18.3623 7.98479 18.4185 8.0668 18.4573 8.15735C18.4961 8.24789 18.5167 8.34517 18.5179 8.44366C18.5191 8.54215 18.5008 8.63994 18.4642 8.73138C18.4276 8.82283 18.3734 8.90614 18.3046 8.97662C18.2357 9.0471 18.1537 9.10337 18.0632 9.14215C17.9726 9.18093 17.8754 9.20148 17.7769 9.20266C17.5539 9.20867 17.3918 9.21066 17.2648 9.21066H17.2599Z" fill="#000000" />
<path d="M11.7285 13.9066C11.4362 13.9067 11.147 13.8473 10.8784 13.7319C10.6099 13.6165 10.3677 13.4477 10.1665 13.2356C9.76343 12.8061 9.53906 12.2392 9.53906 11.6501C9.53906 11.0611 9.76343 10.4941 10.1665 10.0646L11.1865 8.99762C11.2564 8.92429 11.3406 8.86593 11.4337 8.82605C11.5269 8.78617 11.6271 8.76562 11.7285 8.76563C11.8297 8.76555 11.93 8.78598 12.0231 8.82568C12.1163 8.86538 12.2004 8.92352 12.2705 8.99661L13.2925 10.0636C13.6957 10.4929 13.9202 11.0597 13.9202 11.6486C13.9202 12.2376 13.6957 12.8044 13.2925 13.2336C13.0914 13.4464 12.8489 13.6159 12.58 13.7316C12.311 13.8474 12.0213 13.9069 11.7285 13.9066ZM11.7285 10.6006L11.2505 11.1006C11.1123 11.2504 11.0355 11.4468 11.0355 11.6506C11.0355 11.8545 11.1123 12.0508 11.2505 12.2006C11.3119 12.2662 11.3861 12.3186 11.4684 12.3546C11.5508 12.3905 11.6396 12.4092 11.7295 12.4096C11.8198 12.4089 11.909 12.3898 11.9917 12.3535C12.0744 12.3173 12.1488 12.2645 12.2105 12.1986C12.3473 12.0493 12.4231 11.8541 12.4231 11.6516C12.4231 11.4491 12.3473 11.254 12.2105 11.1046L11.7285 10.6006Z" fill="#000000" />
</svg>