<svg width="24px"  height="24px"  viewBox="0 0 25 24" fill="none" xmlns="http://www.w3.org/2000/svg">
<path fill-rule="evenodd" clip-rule="evenodd" d="M18.9389 11.6953C18.0906 11.6953 17.4033 12.3824 17.4033 13.2299C17.4033 14.0777 18.091 14.7654 18.9389 14.7654C19.7867 14.7654 20.4744 14.0777 20.4744 13.2299C20.4744 12.3824 19.7871 11.6953 18.9389 11.6953ZM15.9033 13.2299C15.9033 11.5532 17.263 10.1953 18.9389 10.1953C20.6147 10.1953 21.9744 11.5532 21.9744 13.2299C21.9744 14.9062 20.6152 16.2654 18.9389 16.2654C17.2626 16.2654 15.9033 14.9062 15.9033 13.2299Z" fill="#000000" />
<path fill-rule="evenodd" clip-rule="evenodd" d="M8.42383 13.8516C8.83804 13.8516 9.17383 14.1873 9.17383 14.6016V15.7434C9.17383 18.2326 11.1915 20.2503 13.6807 20.2503C16.1689 20.2503 18.1867 18.2327 18.1867 15.7434V15.5154C18.1867 15.1012 18.5225 14.7654 18.9367 14.7654C19.3509 14.7654 19.6867 15.1012 19.6867 15.5154V15.7434C19.6867 19.061 16.9976 21.7503 13.6807 21.7503C10.3631 21.7503 7.67383 19.061 7.67383 15.7434V14.6016C7.67383 14.1873 8.00961 13.8516 8.42383 13.8516Z" fill="#000000" />
<path fill-rule="evenodd" clip-rule="evenodd" d="M9.72712 2.84945C9.81035 2.44368 10.2068 2.18222 10.6125 2.26544C11.5679 2.4614 12.4942 2.80786 13.1903 3.43373C13.9145 4.08478 14.3287 4.98429 14.3287 6.13451V9.39207C14.3287 12.6469 11.6917 15.2971 8.43239 15.2971C6.80043 15.2971 5.32239 14.6378 4.25453 13.5699L4.25178 13.5672L4.25179 13.5672C3.18838 12.4927 2.52637 11.0265 2.52637 9.39207V6.13451C2.52637 4.98714 2.93423 4.08901 3.65668 3.43848C4.35059 2.81364 5.27603 2.46968 6.23454 2.27403C6.64039 2.19119 7.03654 2.45304 7.11938 2.85889C7.20222 3.26473 6.94037 3.66089 6.53453 3.74373C5.70128 3.91381 5.07264 4.18197 4.66041 4.55317C4.27671 4.89867 4.02637 5.3805 4.02637 6.13451V9.39207C4.02637 10.609 4.51625 11.7013 5.31653 12.5106C6.11307 13.3065 7.21298 13.7971 8.43239 13.7971C10.8598 13.7971 12.8287 11.822 12.8287 9.39207V6.13451C12.8287 5.38335 12.576 4.89854 12.1875 4.54918C11.7709 4.17466 11.1388 3.90462 10.3111 3.73485C9.90536 3.65162 9.64389 3.25522 9.72712 2.84945Z" fill="#000000" />
</svg>