<svg width="24px"  height="24px"  viewBox="0 0 25 24" fill="none" xmlns="http://www.w3.org/2000/svg">
<path fill-rule="evenodd" clip-rule="evenodd" d="M5.20501 3.18051C5.57355 3.36959 5.71903 3.82163 5.52995 4.19017C5.47617 4.295 5.425 4.39141 5.37579 4.48414C5.24883 4.72334 5.13485 4.93809 5.02249 5.2098C4.91614 5.47677 4.79256 5.75512 4.67683 6.01575C4.61595 6.15288 4.55724 6.28511 4.50436 6.40819C4.34052 6.78958 4.2056 7.14133 4.12026 7.49348L4.11984 7.49521C3.45086 10.2272 5.69275 13.0014 8.42796 13.059C8.45605 13.0547 8.48438 13.052 8.51281 13.051C11.2272 12.9493 13.4138 10.2028 12.7534 7.49797C12.6203 6.97325 12.4087 6.50497 12.1667 5.96928C12.061 5.73522 11.9494 5.4883 11.836 5.21818L11.8336 5.21231L11.8336 5.2123C11.7004 4.88725 11.5613 4.62397 11.4044 4.32672C11.3881 4.296 11.3717 4.26492 11.3551 4.23337C11.162 3.8669 11.3026 3.41331 11.6691 3.22026C12.0356 3.0272 12.4892 3.16779 12.6822 3.53426C12.6987 3.56549 12.7154 3.59706 12.7323 3.62903C12.8866 3.92092 13.0584 4.24584 13.2203 4.64047C13.2983 4.82615 13.3876 5.0238 13.4809 5.23053C13.7444 5.81408 14.0406 6.46993 14.2083 7.13292L14.2097 7.13843L14.2097 7.13844C15.1037 10.7892 12.2194 14.3805 8.61972 14.5478C8.53351 14.5599 8.46345 14.5594 8.43788 14.5592C8.43549 14.5592 8.43349 14.5592 8.4319 14.5592H8.41915L8.41915 14.5591C4.75157 14.4967 1.75536 10.8471 2.66267 7.13932C2.77778 6.66468 2.95171 6.22221 3.12615 5.81613C3.19503 5.6558 3.26112 5.50722 3.32499 5.36361C3.43215 5.12268 3.5331 4.89574 3.63058 4.6507L3.6341 4.64186L3.63415 4.64188C3.77721 4.29514 3.93994 3.98875 4.07621 3.73217C4.11901 3.65159 4.1592 3.57592 4.19535 3.50546C4.38443 3.13692 4.83647 2.99143 5.20501 3.18051Z" fill="#000000" />
<path fill-rule="evenodd" clip-rule="evenodd" d="M18.9801 10.9141C18.1401 10.9141 17.46 11.5942 17.46 12.4342C17.46 13.2743 18.1401 13.9544 18.9801 13.9544C19.8202 13.9544 20.5003 13.2743 20.5003 12.4342C20.5003 11.5942 19.8202 10.9141 18.9801 10.9141ZM15.96 12.4342C15.96 10.7657 17.3116 9.41406 18.9801 9.41406C20.6487 9.41406 22.0003 10.7657 22.0003 12.4342C22.0003 14.1028 20.6487 15.4544 18.9801 15.4544C17.3116 15.4544 15.96 14.1028 15.96 12.4342Z" fill="#000000" />
<path fill-rule="evenodd" clip-rule="evenodd" d="M8.53711 13.0469C8.95132 13.0469 9.28711 13.3827 9.28711 13.7969V14.9315C9.28711 17.4015 11.2887 19.403 13.7586 19.403C16.2286 19.403 18.2302 17.4015 18.2302 14.9315V14.7048C18.2302 14.2905 18.566 13.9548 18.9802 13.9548C19.3944 13.9548 19.7302 14.2905 19.7302 14.7048V14.9315C19.7302 18.2299 17.057 20.903 13.7586 20.903C10.4602 20.903 7.78711 18.2299 7.78711 14.9315V13.7969C7.78711 13.3827 8.1229 13.0469 8.53711 13.0469Z" fill="#000000" />
</svg>