<svg width="24px"  height="24px"  viewBox="0 0 25 24" fill="none" xmlns="http://www.w3.org/2000/svg">
<path fill-rule="evenodd" clip-rule="evenodd" d="M5.27596 4.18484C5.64426 4.37438 5.78919 4.8266 5.59965 5.19491C5.54693 5.29736 5.49672 5.39181 5.4484 5.48273C5.32196 5.7206 5.2084 5.93424 5.09635 6.20342C4.99083 6.46889 4.86819 6.74544 4.75343 7.0042C4.69368 7.13893 4.63607 7.26883 4.58413 7.38985C4.42195 7.76767 4.28849 8.11576 4.20412 8.46402L4.20365 8.46592C3.5417 11.1672 5.75756 13.9097 8.46195 13.9668C8.49006 13.9626 8.51842 13.9599 8.54687 13.9588C11.2308 13.859 13.393 11.1428 12.7392 8.46822C12.6079 7.94795 12.398 7.48342 12.1575 6.95109C12.0534 6.72063 11.9435 6.47747 11.8318 6.21157L11.8296 6.20637L11.8296 6.20636C11.6938 5.87629 11.5531 5.6103 11.3933 5.30841C11.381 5.28523 11.3686 5.26183 11.3561 5.23818C11.1626 4.87197 11.3025 4.41819 11.6687 4.22464C12.035 4.03109 12.4887 4.17105 12.6823 4.53726C12.6957 4.5626 12.7092 4.58813 12.7229 4.61389C12.8793 4.90916 13.0516 5.23438 13.2157 5.63296C13.2924 5.81549 13.3802 6.00981 13.472 6.21312C13.7337 6.79249 14.0283 7.44474 14.1943 8.1043L14.1955 8.1089L14.1955 8.1089C15.0827 11.7291 12.2233 15.2899 8.65409 15.4556C8.56742 15.4678 8.49696 15.4673 8.47249 15.4671C8.47014 15.4671 8.46822 15.4671 8.46675 15.4671H8.4541L8.45411 15.467C4.81685 15.4057 1.84604 11.7873 2.74652 8.10986C2.86064 7.6392 3.03308 7.20045 3.20574 6.79819C3.27346 6.64044 3.33844 6.49416 3.40123 6.35282C3.5077 6.11315 3.60787 5.88766 3.70439 5.64444L3.70873 5.63349L3.70882 5.63352C3.85143 5.28996 4.01282 4.98656 4.14836 4.73175C4.19048 4.65257 4.23011 4.57808 4.2659 4.50853C4.45543 4.14023 4.90766 3.99531 5.27596 4.18484Z" fill="#000000" />
<path fill-rule="evenodd" clip-rule="evenodd" d="M18.9156 11.8555C18.0887 11.8555 17.418 12.5263 17.418 13.3541C17.418 14.1819 18.0887 14.8527 18.9156 14.8527C19.743 14.8527 20.4142 14.1814 20.4142 13.3541C20.4142 12.5267 19.743 11.8555 18.9156 11.8555ZM15.918 13.3541C15.918 11.6987 17.2594 10.3555 18.9156 10.3555C20.5714 10.3555 21.9142 11.6983 21.9142 13.3541C21.9142 15.0099 20.5714 16.3527 18.9156 16.3527C17.2594 16.3527 15.918 15.0094 15.918 13.3541Z" fill="#000000" />
<path fill-rule="evenodd" clip-rule="evenodd" d="M8.57227 13.9531C8.98648 13.9531 9.32227 14.2889 9.32227 14.7031V15.827C9.32227 18.2696 11.3014 20.2485 13.7428 20.2485C16.1854 20.2485 18.1644 18.2695 18.1644 15.827V15.6022C18.1644 15.188 18.5002 14.8522 18.9144 14.8522C19.3286 14.8522 19.6644 15.188 19.6644 15.6022V15.827C19.6644 19.0979 17.0138 21.7485 13.7428 21.7485C10.4728 21.7485 7.82227 19.0978 7.82227 15.827V14.7031C7.82227 14.2889 8.15805 13.9531 8.57227 13.9531Z" fill="#000000" />
<path fill-rule="evenodd" clip-rule="evenodd" d="M11.6302 3.75C11.502 3.75 11.3975 3.8545 11.3975 3.98274C11.3975 4.11098 11.502 4.21548 11.6302 4.21548C11.7589 4.21548 11.8629 4.11147 11.8629 3.98274C11.8629 3.85401 11.7589 3.75 11.6302 3.75ZM9.89746 3.98274C9.89746 3.0251 10.6745 2.25 11.6302 2.25C12.5874 2.25 13.3629 3.02559 13.3629 3.98274C13.3629 4.93989 12.5874 5.71548 11.6302 5.71548C10.6745 5.71548 9.89746 4.94038 9.89746 3.98274Z" fill="#000000" />
<path fill-rule="evenodd" clip-rule="evenodd" d="M5.37532 3.75C5.24805 3.75 5.14355 3.85353 5.14355 3.98274C5.14355 4.11195 5.24805 4.21548 5.37532 4.21548C5.50405 4.21548 5.60806 4.11147 5.60806 3.98274C5.60806 3.85401 5.50405 3.75 5.37532 3.75ZM3.64355 3.98274C3.64355 3.02607 4.41866 2.25 5.37532 2.25C6.33247 2.25 7.10806 3.02559 7.10806 3.98274C7.10806 4.93989 6.33247 5.71548 5.37532 5.71548C4.41866 5.71548 3.64355 4.93941 3.64355 3.98274Z" fill="#000000" />
</svg>