<svg width="24px"  height="24px"  viewBox="0 0 25 24" fill="none" xmlns="http://www.w3.org/2000/svg">
<path fill-rule="evenodd" clip-rule="evenodd" d="M10.2257 3.75C8.98293 3.75 7.97602 4.75692 7.97602 5.99968V12.0224C7.97602 12.2575 7.86579 12.4789 7.67825 12.6207C6.64502 13.4017 5.97559 14.6205 5.97559 15.9999C5.97559 18.347 7.87861 20.25 10.2257 20.25C12.5737 20.25 14.4758 18.3471 14.4758 15.9999C14.4758 14.6202 13.8071 13.4015 12.7741 12.6207C12.5866 12.4789 12.4763 12.2575 12.4763 12.0224V5.99968C12.4763 4.75723 11.4688 3.75 10.2257 3.75ZM6.47602 5.99968C6.47602 3.92849 8.15451 2.25 10.2257 2.25C12.2966 2.25 13.9763 3.92817 13.9763 5.99968V11.6647C15.1905 12.713 15.9758 14.2569 15.9758 15.9999C15.9758 19.1753 13.4023 21.75 10.2257 21.75C7.05018 21.75 4.47559 19.1754 4.47559 15.9999C4.47559 14.2566 5.26197 12.7128 6.47602 11.6647V5.99968Z" fill="#000000" />
<path fill-rule="evenodd" clip-rule="evenodd" d="M17.9922 3.67969C18.4064 3.67969 18.7422 4.01547 18.7422 4.42969V6.9925C18.7422 7.40671 18.4064 7.7425 17.9922 7.7425C17.578 7.7425 17.2422 7.40671 17.2422 6.9925V4.42969C17.2422 4.01547 17.578 3.67969 17.9922 3.67969Z" fill="#000000" />
<path fill-rule="evenodd" clip-rule="evenodd" d="M15.9629 5.71094C15.9629 5.29672 16.2987 4.96094 16.7129 4.96094H19.2757C19.6899 4.96094 20.0257 5.29672 20.0257 5.71094C20.0257 6.12515 19.6899 6.46094 19.2757 6.46094H16.7129C16.2987 6.46094 15.9629 6.12515 15.9629 5.71094Z" fill="#000000" />
<path fill-rule="evenodd" clip-rule="evenodd" d="M15.9629 10.2109C15.9629 9.79672 16.2987 9.46094 16.7129 9.46094H19.2757C19.6899 9.46094 20.0257 9.79672 20.0257 10.2109C20.0257 10.6252 19.6899 10.9609 19.2757 10.9609H16.7129C16.2987 10.9609 15.9629 10.6252 15.9629 10.2109Z" fill="#000000" />
<path fill-rule="evenodd" clip-rule="evenodd" d="M10.2257 15.2734C9.82576 15.2734 9.50195 15.5976 9.50195 15.9971C9.50195 16.3959 9.82552 16.7201 10.226 16.7201C10.6252 16.7201 10.9491 16.3962 10.9491 15.9971C10.9491 15.5977 10.6247 15.2734 10.2257 15.2734ZM8.00195 15.9971C8.00195 14.7697 8.99681 13.7734 10.2257 13.7734C11.4534 13.7734 12.4491 14.7696 12.4491 15.9971C12.4491 17.2247 11.4536 18.2201 10.226 18.2201C8.99774 18.2201 8.00195 17.225 8.00195 15.9971Z" fill="#000000" />
<path fill-rule="evenodd" clip-rule="evenodd" d="M10.2266 6.97656C10.6408 6.97656 10.9766 7.31235 10.9766 7.72656V14.5257C10.9766 14.9399 10.6408 15.2757 10.2266 15.2757C9.81235 15.2757 9.47656 14.9399 9.47656 14.5257V7.72656C9.47656 7.31235 9.81235 6.97656 10.2266 6.97656Z" fill="#000000" />
</svg>