<svg width="24px"  height="24px"  viewBox="0 0 25 24" fill="none" xmlns="http://www.w3.org/2000/svg">
<path fill-rule="evenodd" clip-rule="evenodd" d="M13.6185 3.68858C15.5355 1.77038 18.6445 1.77062 20.5623 3.68842C22.4789 5.60619 22.4793 8.7151 20.5623 10.6321L12.9873 18.2071C12.5357 18.6588 11.944 18.9467 11.3079 19.0216C11.3078 19.0216 11.3081 19.0216 11.3079 19.0216L9.41552 19.2465C9.11624 19.2817 8.83591 19.4175 8.62133 19.6321L7.33166 20.9208C6.22651 22.0273 4.43438 22.0268 3.32867 20.9211C2.22378 19.8162 2.22378 18.0243 3.32867 16.9194L4.61867 15.6294C4.83325 15.4148 4.96895 15.1355 5.00413 14.8362L5.22915 12.942C5.22916 12.9419 5.22913 12.9421 5.22915 12.942C5.3039 12.308 5.59031 11.7157 6.04394 11.2631C6.04412 11.263 6.04377 11.2633 6.04394 11.2631L13.6185 3.68858ZM19.5015 4.74892C18.1693 3.41688 16.0104 3.41717 14.6795 4.74892L7.10353 12.3249C6.88955 12.5382 6.75414 12.8178 6.71885 13.1175L6.49387 15.0113C6.49385 15.0115 6.49389 15.0111 6.49387 15.0113C6.41895 15.6478 6.13062 16.2388 5.67933 16.6901L4.38933 17.9801C3.87022 18.4992 3.87022 19.3413 4.38933 19.8604C4.90962 20.3807 5.75149 20.3802 6.27034 19.8607L7.56067 18.5714C7.56074 18.5714 7.5606 18.5715 7.56067 18.5714C8.01197 18.1202 8.60261 17.8318 9.2391 17.7569C9.23922 17.7569 9.23898 17.7569 9.2391 17.7569L11.1315 17.532C11.4312 17.4968 11.7124 17.3607 11.9267 17.1464L19.5017 9.57142C20.8326 8.24046 20.8328 6.08116 19.5015 4.74892C19.5016 4.74897 19.5015 4.74886 19.5015 4.74892Z" fill="#000000" />
<path fill-rule="evenodd" clip-rule="evenodd" d="M11.583 13.6572C11.8758 13.3643 12.3507 13.3643 12.6436 13.6572L14.5606 15.5742C14.8535 15.8671 14.8535 16.3419 14.5606 16.6348C14.2677 16.9277 13.7928 16.9277 13.5 16.6348L11.583 14.7178C11.2901 14.4249 11.2901 13.9501 11.583 13.6572Z" fill="#000000" />
<path fill-rule="evenodd" clip-rule="evenodd" d="M14.0322 11.204C14.3251 10.9112 14.7999 10.9112 15.0928 11.204L17.0098 13.121C17.3027 13.4139 17.3027 13.8888 17.0098 14.1817C16.7169 14.4746 16.2421 14.4746 15.9492 14.1817L14.0322 12.2647C13.7393 11.9718 13.7393 11.4969 14.0322 11.204Z" fill="#000000" />
<path fill-rule="evenodd" clip-rule="evenodd" d="M16.5125 8.79012C16.8053 8.49715 17.2802 8.49703 17.5732 8.78984L19.4602 10.6758C19.7531 10.9687 19.7533 11.4435 19.4604 11.7365C19.1676 12.0295 18.6927 12.0296 18.3998 11.7368L16.5128 9.85078C16.2198 9.55797 16.2197 9.08309 16.5125 8.79012Z" fill="#000000" />
</svg>