<svg width="24px"  height="24px"  viewBox="0 0 25 24" fill="none" xmlns="http://www.w3.org/2000/svg">
<path fill-rule="evenodd" clip-rule="evenodd" d="M9.94149 7.99809C10.0786 8.38896 9.87283 8.81695 9.48196 8.95404C7.22048 9.74715 5.59375 11.9044 5.59375 14.4373C5.59375 17.65 8.19289 20.2483 11.4047 20.2483C13.2981 20.2483 14.9759 19.3506 16.032 17.9573C16.2822 17.6272 16.7527 17.5624 17.0828 17.8126C17.4129 18.0628 17.4777 18.5332 17.2275 18.8633C15.8976 20.618 13.7834 21.7483 11.4047 21.7483C7.36461 21.7483 4.09375 18.4786 4.09375 14.4373C4.09375 11.2462 6.14302 8.53545 8.98554 7.53856C9.37642 7.40148 9.80441 7.60722 9.94149 7.99809Z" fill="#000000" />
<path fill-rule="evenodd" clip-rule="evenodd" d="M11.6215 10.1918C11.554 9.25749 12.294 8.46484 13.2295 8.46484H17.1645C17.5787 8.46484 17.9145 8.80063 17.9145 9.21484C17.9145 9.62906 17.5787 9.96484 17.1645 9.96484H13.2295C13.1631 9.96484 13.1131 10.0201 13.1176 10.0837M13.1176 10.0837L13.4375 14.505C13.4375 14.5051 13.4375 14.5049 13.4375 14.505C13.4419 14.5637 13.4912 14.6088 13.5485 14.6088H17.5745C18.2193 14.6088 18.8152 14.943 19.1542 15.4874L19.155 15.4887L20.293 17.3247C20.5112 17.6768 20.4027 18.1391 20.0506 18.3573C19.6986 18.5755 19.2363 18.467 19.018 18.115L17.8809 16.2803C17.8808 16.2801 17.881 16.2805 17.8809 16.2803C17.8138 16.173 17.6975 16.1088 17.5745 16.1088H13.5485C12.7039 16.1088 12.0032 15.4559 11.9415 14.6147L11.6215 10.1918" fill="#000000" />
<path fill-rule="evenodd" clip-rule="evenodd" d="M15.0241 8.46683C15.4372 8.43697 15.7964 8.74768 15.8262 9.16082L16.2702 15.3048C16.3001 15.718 15.9894 16.0771 15.5762 16.1069C15.1631 16.1368 14.804 15.8261 14.7741 15.4129L14.3301 9.26893C14.3003 8.8558 14.611 8.49668 15.0241 8.46683Z" fill="#000000" />
<path fill-rule="evenodd" clip-rule="evenodd" d="M13.0445 3.75C12.5291 3.75 12.1055 4.17379 12.1055 4.688C12.1055 5.20279 12.5297 5.627 13.0445 5.627C13.5593 5.627 13.9835 5.20279 13.9835 4.688C13.9835 4.17379 13.5598 3.75 13.0445 3.75ZM10.6055 4.688C10.6055 3.34421 11.7018 2.25 13.0445 2.25C14.3871 2.25 15.4835 3.34421 15.4835 4.688C15.4835 6.03121 14.3877 7.127 13.0445 7.127C11.7013 7.127 10.6055 6.03121 10.6055 4.688Z" fill="#000000" />
</svg>