<svg width="24px"  height="24px"  viewBox="0 0 25 24" fill="none" xmlns="http://www.w3.org/2000/svg">
<path d="M11.1966 21.7492C9.43869 21.7489 7.73762 21.1266 6.39445 19.9926C5.05129 18.8586 4.15265 17.2859 3.8576 15.553C3.56255 13.8201 3.89012 12.0386 4.78233 10.524C5.67454 9.00938 7.07384 7.85926 8.73256 7.27722C8.82553 7.24439 8.92407 7.23019 9.02253 7.23544C9.121 7.24069 9.21746 7.26528 9.30642 7.30781C9.39538 7.35034 9.47509 7.40997 9.541 7.4833C9.60691 7.55664 9.65773 7.64223 9.69056 7.73521C9.72339 7.82819 9.73759 7.92673 9.73234 8.02519C9.72709 8.12365 9.7025 8.22012 9.65997 8.30908C9.61744 8.39804 9.55781 8.47774 9.48448 8.54365C9.41114 8.60956 9.32553 8.66039 9.23256 8.69322C7.9072 9.15727 6.7889 10.0755 6.07579 11.2852C5.36268 12.4949 5.10079 13.918 5.33654 15.3023C5.57229 16.6866 6.29047 17.9428 7.3638 18.8482C8.43712 19.7537 9.79631 20.25 11.2006 20.2492C12.1178 20.2544 13.0236 20.045 13.8455 19.6379C14.6675 19.2307 15.3829 18.637 15.9346 17.9042C16.0547 17.7451 16.2331 17.6402 16.4306 17.6126C16.6281 17.5851 16.8284 17.6371 16.9876 17.7572C17.1467 17.8774 17.2516 18.0558 17.2791 18.2533C17.3067 18.4508 17.2547 18.6511 17.1346 18.8102C16.4426 19.7292 15.5452 20.4736 14.5141 20.984C13.4831 21.4943 12.347 21.7563 11.1966 21.7492Z" fill="#000000" />
<path d="M12.6118 6.786C12.1632 6.786 11.7247 6.65299 11.3517 6.40378C10.9787 6.15457 10.6881 5.80035 10.5164 5.38593C10.3447 4.9715 10.2998 4.51548 10.3873 4.07553C10.4748 3.63558 10.6909 3.23146 11.008 2.91428C11.3252 2.59709 11.7293 2.38109 12.1693 2.29358C12.6092 2.20607 13.0653 2.25098 13.4797 2.42264C13.8941 2.5943 14.2483 2.885 14.4975 3.25797C14.7467 3.63094 14.8798 4.06944 14.8798 4.51801C14.8792 5.11936 14.6401 5.69592 14.2149 6.12114C13.7897 6.54636 13.2131 6.78547 12.6118 6.786ZM12.6118 3.75C12.4599 3.75 12.3114 3.79504 12.1851 3.87943C12.0588 3.96382 11.9603 4.08377 11.9022 4.22411C11.8441 4.36444 11.8289 4.51886 11.8585 4.66783C11.8881 4.81681 11.9613 4.95365 12.0687 5.06105C12.1761 5.16846 12.3129 5.24161 12.4619 5.27124C12.6109 5.30088 12.7653 5.28567 12.9057 5.22754C13.046 5.16941 13.1659 5.07097 13.2503 4.94467C13.3347 4.81838 13.3798 4.6699 13.3798 4.51801C13.3795 4.3144 13.2985 4.11921 13.1545 3.97524C13.0106 3.83127 12.8154 3.75027 12.6118 3.75Z" fill="#000000" />
<path d="M20.0018 17.9505C19.8857 17.9514 19.771 17.9252 19.6669 17.874C19.5627 17.8228 19.4719 17.748 19.4018 17.6555L17.7598 15.5045C17.63 15.3363 17.4633 15.2 17.2726 15.1062C17.0819 15.0125 16.8723 14.9636 16.6598 14.9635H14.6678C13.9643 14.9632 13.2853 14.7052 12.7591 14.2383C12.2328 13.7714 11.8958 13.128 11.8118 12.4295L11.6038 10.6965C11.5646 10.3708 11.5981 10.0405 11.7019 9.72924C11.8056 9.41801 11.977 9.13364 12.2038 8.89654C12.4277 8.65706 12.7025 8.47099 13.008 8.35208C13.3135 8.23316 13.6419 8.18444 13.9688 8.20954L16.3868 8.37355C16.4853 8.3799 16.5817 8.40565 16.6702 8.44934C16.7588 8.49302 16.8379 8.55377 16.903 8.62811C16.968 8.70244 17.0177 8.7889 17.0493 8.8825C17.0808 8.9761 17.0935 9.07501 17.0868 9.17355C17.0721 9.37194 16.98 9.55659 16.8303 9.68759C16.6806 9.81858 16.4853 9.88538 16.2867 9.87355L13.8688 9.70954C13.7622 9.70349 13.6556 9.72045 13.5562 9.75927C13.4568 9.7981 13.367 9.85788 13.2928 9.93455C13.219 10.0115 13.1633 10.1039 13.1299 10.2052C13.0965 10.3064 13.0862 10.4138 13.0998 10.5195L13.3078 12.2525C13.3474 12.5869 13.5084 12.8951 13.7602 13.1187C14.012 13.3423 14.337 13.4657 14.6738 13.4655H16.6657C17.108 13.4666 17.544 13.5691 17.9405 13.765C18.3369 13.9608 18.6832 14.245 18.9528 14.5955L20.5947 16.7475C20.6798 16.8589 20.7319 16.9919 20.7452 17.1314C20.7585 17.271 20.7324 17.4114 20.6699 17.5368C20.6075 17.6623 20.5111 17.7677 20.3918 17.8412C20.2724 17.9147 20.1349 17.9532 19.9948 17.9525L20.0018 17.9505Z" fill="#000000" />
</svg>