<svg width="24px"  height="24px"  viewBox="0 0 25 24" fill="none" xmlns="http://www.w3.org/2000/svg">
<path fill-rule="evenodd" clip-rule="evenodd" d="M8.78109 11.8008C7.3332 11.8008 6.07108 12.6033 5.41692 13.7916C5.21716 14.1544 4.76107 14.2866 4.39821 14.0869C4.03535 13.8871 3.90313 13.431 4.10289 13.0682C5.00987 11.4206 6.76416 10.3008 8.78109 10.3008C11.7289 10.3008 14.119 12.6906 14.119 15.6377C14.119 18.5858 11.7288 20.9746 8.78109 20.9746C8.36687 20.9746 8.03109 20.6388 8.03109 20.2246C8.03109 19.8103 8.36687 19.4746 8.78109 19.4746C10.9008 19.4746 12.619 17.757 12.619 15.6377C12.619 13.5193 10.9007 11.8008 8.78109 11.8008Z" fill="#000000" />
<path fill-rule="evenodd" clip-rule="evenodd" d="M3.24023 20.2266C3.24023 19.8123 3.57602 19.4766 3.99023 19.4766H6.07349C6.4877 19.4766 6.82349 19.8123 6.82349 20.2266C6.82349 20.6408 6.4877 20.9766 6.07349 20.9766H3.99023C3.57602 20.9766 3.24023 20.6408 3.24023 20.2266Z" fill="#000000" />
<path fill-rule="evenodd" clip-rule="evenodd" d="M2.5 16.9609C2.5 16.5467 2.83579 16.2109 3.25 16.2109H6.07438C6.48859 16.2109 6.82438 16.5467 6.82438 16.9609C6.82438 17.3752 6.48859 17.7109 6.07438 17.7109H3.25C2.83579 17.7109 2.5 17.3752 2.5 16.9609Z" fill="#000000" />
<path fill-rule="evenodd" clip-rule="evenodd" d="M3.98633 3.77344C3.98633 3.35922 4.32211 3.02344 4.73633 3.02344H6.72927C7.10324 3.02344 7.42006 3.29892 7.472 3.66926L8.49235 10.9435C8.54989 11.3537 8.264 11.7329 7.8538 11.7904C7.4436 11.848 7.06443 11.5621 7.00689 11.1519L6.07713 4.52344H4.73633C4.32211 4.52344 3.98633 4.18765 3.98633 3.77344Z" fill="#000000" />
<path fill-rule="evenodd" clip-rule="evenodd" d="M18.8629 16.2031C17.9589 16.2031 17.2266 16.9354 17.2266 17.8395C17.2266 18.7435 17.9589 19.4758 18.8629 19.4758C19.7669 19.4758 20.4993 18.7435 20.4993 17.8395C20.4993 16.9354 19.7669 16.2031 18.8629 16.2031ZM15.7266 17.8395C15.7266 16.107 17.1304 14.7031 18.8629 14.7031C20.5954 14.7031 21.9993 16.107 21.9993 17.8395C21.9993 19.5719 20.5954 20.9758 18.8629 20.9758C17.1304 20.9758 15.7266 19.5719 15.7266 17.8395Z" fill="#000000" />
<path fill-rule="evenodd" clip-rule="evenodd" d="M11.5352 12.6797C11.5352 12.2655 11.8709 11.9297 12.2852 11.9297H18.5079C18.9221 11.9297 19.2579 12.2655 19.2579 12.6797C19.2579 13.0939 18.9221 13.4297 18.5079 13.4297H12.2852C11.8709 13.4297 11.5352 13.0939 11.5352 12.6797Z" fill="#000000" />
<path fill-rule="evenodd" clip-rule="evenodd" d="M6.62695 7.94823C6.6275 7.53402 6.96372 7.19868 7.37794 7.19922L16.8652 7.21168C17.9268 7.21328 18.8251 8.00298 18.9587 9.05915L18.9607 9.07648L19.609 15.3735C19.6514 15.7856 19.3518 16.154 18.9398 16.1964C18.5277 16.2388 18.1593 15.9392 18.1169 15.5272L17.4696 9.24047C17.4279 8.93832 17.1694 8.71221 16.8632 8.71167C16.8632 8.71167 16.8633 8.71167 16.8632 8.71167L7.37597 8.69922C6.96176 8.69867 6.62641 8.36245 6.62695 7.94823Z" fill="#000000" />
</svg>