<svg width="24px"  height="24px"  viewBox="0 0 25 24" fill="none" xmlns="http://www.w3.org/2000/svg">
<path fill-rule="evenodd" clip-rule="evenodd" d="M3.9902 3.89737C4.97468 2.84117 6.37669 2.25 8.03216 2.25H16.4669C18.1262 2.25 19.5288 2.84084 20.5129 3.89765C21.4913 4.94841 22 6.39889 22 8.02638V15.9736C22 17.6011 21.4913 19.0516 20.5127 20.1024C19.5285 21.1592 18.1256 21.75 16.4659 21.75H8.03216C6.3728 21.75 4.97038 21.1591 3.98657 20.1023C3.00842 19.0515 2.5 17.601 2.5 15.9736V8.02638C2.5 6.39806 3.01117 4.94771 3.9902 3.89737ZM5.08745 4.92012C4.41024 5.64666 4 6.70951 4 8.02638V15.9736C4 17.2914 4.40861 18.3541 5.08451 19.0802C5.75475 19.8003 6.74341 20.25 8.03216 20.25H16.4659C17.7552 20.25 18.7444 19.8002 19.415 19.0801C20.0912 18.354 20.5 17.2913 20.5 15.9736V8.02638C20.5 6.70868 20.0912 5.64597 19.4151 4.91984C18.7446 4.19975 17.7556 3.75 16.4669 3.75H8.03216C6.74828 3.75 5.75921 4.19943 5.08745 4.92012Z" fill="#000000" />
<path fill-rule="evenodd" clip-rule="evenodd" d="M11.1694 9.15452C11.3064 9.54542 11.1005 9.97336 10.7096 10.1103C9.40683 10.5669 8.4707 11.8096 8.4707 13.2691C8.4707 15.1202 9.96726 16.6173 11.8179 16.6173C12.9087 16.6173 13.875 16.0996 14.4837 15.297C14.734 14.967 15.2044 14.9023 15.5345 15.1526C15.8645 15.4029 15.9291 15.8734 15.6788 16.2034C14.7969 17.3662 13.395 18.1173 11.8179 18.1173C9.13837 18.1173 6.9707 15.9482 6.9707 13.2691C6.9707 11.152 8.32885 9.35519 10.2135 8.69475C10.6044 8.55776 11.0324 8.76361 11.1694 9.15452Z" fill="#000000" />
<path fill-rule="evenodd" clip-rule="evenodd" d="M12.9375 8.83984C13.3517 8.83984 13.6875 9.17563 13.6875 9.58984V12.1985H15.4371C15.9456 12.1985 16.4161 12.462 16.6828 12.8932C16.6829 12.8935 16.6831 12.8938 16.6833 12.8941L17.418 14.0777C17.6364 14.4296 17.5282 14.892 17.1763 15.1104C16.8243 15.3289 16.362 15.2207 16.1435 14.8687L15.4172 13.6985H13.6536C12.8434 13.6985 12.1875 13.0427 12.1875 12.2324V9.58984C12.1875 9.17563 12.5233 8.83984 12.9375 8.83984ZM15.407 13.6822L15.4071 13.6823L15.407 13.6822Z" fill="#000000" />
<path fill-rule="evenodd" clip-rule="evenodd" d="M12.1875 10.6445C12.1875 10.2303 12.5233 9.89453 12.9375 9.89453H15.2279C15.6421 9.89453 15.9779 10.2303 15.9779 10.6445C15.9779 11.0587 15.6421 11.3945 15.2279 11.3945H12.9375C12.5233 11.3945 12.1875 11.0587 12.1875 10.6445Z" fill="#000000" />
<path fill-rule="evenodd" clip-rule="evenodd" d="M11.75 7.06756C11.75 6.39167 12.2979 5.84375 12.9738 5.84375C13.6497 5.84375 14.1976 6.39167 14.1976 7.06756C14.1976 7.74345 13.6497 8.29136 12.9738 8.29136C12.2979 8.29136 11.75 7.74345 11.75 7.06756Z" fill="#000000" />
</svg>