<svg width="24px"  height="24px"  viewBox="0 0 25 24" fill="none" xmlns="http://www.w3.org/2000/svg">
<path d="M7.99402 21.6501C6.90752 21.6503 5.84536 21.3282 4.94189 20.7247C4.03842 20.1212 3.33421 19.2634 2.91833 18.2596C2.50246 17.2559 2.39358 16.1513 2.6055 15.0857C2.81741 14.02 3.34058 13.0412 4.10885 12.2729C4.87712 11.5047 5.856 10.9815 6.92163 10.7696C7.98726 10.5576 9.09179 10.6665 10.0955 11.0824C11.0993 11.4983 11.9572 12.2025 12.5607 13.1059C13.1642 14.0094 13.4862 15.0716 13.486 16.1581C13.4839 17.614 12.9046 19.0097 11.8751 20.0392C10.8456 21.0687 9.44994 21.648 7.99402 21.6501ZM7.99402 12.1651C7.20423 12.1649 6.4321 12.3989 5.77533 12.8375C5.11855 13.2762 4.6066 13.8997 4.30423 14.6293C4.00185 15.3589 3.92264 16.1618 4.0766 16.9364C4.23055 17.7111 4.6108 18.4227 5.16919 18.9812C5.72758 19.5397 6.43906 19.9201 7.21365 20.0743C7.98824 20.2284 8.79116 20.1494 9.52084 19.8472C10.2505 19.545 10.8742 19.0332 11.313 18.3766C11.7518 17.7199 11.986 16.9478 11.986 16.1581C11.9841 15.0998 11.563 14.0854 10.8148 13.337C10.0666 12.5886 9.05228 12.1672 7.99402 12.1651Z" fill="#000000" />
<path d="M18.7824 21.6527C18.1462 21.6525 17.5243 21.4637 16.9954 21.1101C16.4665 20.7565 16.0543 20.254 15.811 19.6661C15.5677 19.0783 15.5041 18.4315 15.6283 17.8075C15.7526 17.1836 16.059 16.6104 16.509 16.1606C16.9589 15.7108 17.5322 15.4045 18.1562 15.2805C18.7802 15.1564 19.427 15.2202 20.0147 15.4637C20.6025 15.7072 21.1049 16.1196 21.4583 16.6486C21.8117 17.1776 22.0004 17.7995 22.0004 18.4358C21.9994 19.2888 21.66 20.1066 21.0567 20.7097C20.4534 21.3128 19.6354 21.652 18.7824 21.6527ZM18.7824 16.7187C18.4429 16.7189 18.111 16.8198 17.8288 17.0086C17.5465 17.1974 17.3266 17.4656 17.1968 17.7794C17.067 18.0931 17.0332 18.4383 17.0995 18.7713C17.1659 19.1043 17.3295 19.4102 17.5697 19.6502C17.8098 19.8902 18.1158 20.0537 18.4488 20.1198C18.7818 20.186 19.127 20.1519 19.4407 20.0219C19.7544 19.892 20.0225 19.6719 20.2111 19.3896C20.3997 19.1072 20.5004 18.7753 20.5004 18.4358C20.4999 17.9804 20.3187 17.5438 19.9966 17.2219C19.6745 16.9 19.2378 16.719 18.7824 16.7187Z" fill="#000000" />
<path d="M18.7833 16.7169C18.5978 16.7167 18.4189 16.6476 18.2813 16.5231C18.1437 16.3986 18.0571 16.2275 18.0383 16.0429L17.3673 9.53194C17.3434 9.3764 17.2644 9.23462 17.1447 9.1324C17.0251 9.03018 16.8727 8.97431 16.7153 8.97495L6.94531 8.96094C6.7464 8.96094 6.55563 8.88192 6.41498 8.74127C6.27433 8.60062 6.19531 8.40985 6.19531 8.21094C6.19531 8.01203 6.27433 7.82126 6.41498 7.6806C6.55563 7.53995 6.7464 7.46094 6.94531 7.46094L16.7143 7.47495C17.2391 7.47593 17.7457 7.66768 18.1396 8.01448C18.5335 8.36128 18.7879 8.83948 18.8553 9.35994L19.5283 15.8899C19.5485 16.0877 19.4893 16.2855 19.3639 16.4397C19.2385 16.594 19.0571 16.6923 18.8593 16.7129C18.8353 16.7149 18.8093 16.7169 18.7833 16.7169Z" fill="#000000" />
<path d="M18.4153 13.8516H11.6152C11.4163 13.8516 11.2256 13.7725 11.0849 13.6319C10.9442 13.4912 10.8652 13.3005 10.8652 13.1016C10.8652 12.9027 10.9442 12.7119 11.0849 12.5712C11.2256 12.4306 11.4163 12.3516 11.6152 12.3516H18.4153C18.6142 12.3516 18.8049 12.4306 18.9456 12.5712C19.0862 12.7119 19.1653 12.9027 19.1653 13.1016C19.1653 13.3005 19.0862 13.4912 18.9456 13.6319C18.8049 13.7725 18.6142 13.8516 18.4153 13.8516Z" fill="#000000" />
<path d="M6.92538 12.1676C6.82689 12.1672 6.72945 12.1474 6.63861 12.1093C6.54777 12.0713 6.4653 12.0157 6.39594 11.9458C6.32657 11.8758 6.27167 11.7929 6.23434 11.7018C6.19702 11.6107 6.17801 11.513 6.17841 11.4146L6.2124 3.85156H4.90039C4.70148 3.85156 4.51071 3.77253 4.37006 3.63188C4.2294 3.49123 4.15039 3.30047 4.15039 3.10156C4.15039 2.90265 4.2294 2.71188 4.37006 2.57123C4.51071 2.43058 4.70148 2.35156 4.90039 2.35156H6.9624C7.06119 2.35169 7.15899 2.37131 7.25018 2.4093C7.34138 2.44729 7.42417 2.5029 7.49384 2.57294C7.56351 2.64298 7.61869 2.72608 7.65619 2.81747C7.69369 2.90887 7.7128 3.00677 7.7124 3.10556L7.67538 11.4206C7.67459 11.619 7.59525 11.8089 7.45468 11.9489C7.31412 12.0889 7.12378 12.1676 6.92538 12.1676Z" fill="#000000" />
</svg>