<svg width="24px"  height="24px"  viewBox="0 0 25 24" fill="none" xmlns="http://www.w3.org/2000/svg">
<path fill-rule="evenodd" clip-rule="evenodd" d="M10.6289 13.6484L10.6289 13.6485C12.7698 13.6689 14.6574 13.9022 16.0322 14.5181C16.7296 14.8305 17.33 15.2566 17.7546 15.8364C18.1856 16.4248 18.4005 17.1245 18.3959 17.9149L18.3958 17.9327L18.3948 17.9505C18.3526 18.7429 18.0634 19.4769 17.5131 20.0158C16.959 20.5585 16.1991 20.8456 15.3279 20.8456H5.91561C5.04392 20.8456 4.2821 20.559 3.72711 20.0163C3.17537 19.4768 2.88613 18.7411 2.8485 17.946L2.84766 17.9283V17.9106C2.84766 17.1191 3.06502 16.419 3.49662 15.8304C3.92209 15.2501 4.52224 14.8233 5.21966 14.5106C6.59428 13.8944 8.47873 13.6638 10.6164 13.6485L10.6289 13.6484ZM4.34771 17.8926C4.37347 18.3606 4.53841 18.7116 4.77582 18.9438C5.01292 19.1756 5.37997 19.3456 5.91561 19.3456H15.3279C15.8616 19.3456 16.2268 19.1761 16.4636 18.9442C16.7012 18.7115 16.8673 18.3589 16.896 17.8882C16.8957 17.3981 16.7655 17.0245 16.5444 16.7226C16.3143 16.4084 15.9508 16.1252 15.4189 15.887C14.3364 15.402 12.7065 15.1688 10.6209 15.1485C8.53958 15.1638 6.91413 15.3948 5.83327 15.8794C5.30242 16.1174 4.93816 16.4011 4.7063 16.7173C4.48325 17.0215 4.35084 17.3985 4.34771 17.8926Z" fill="#000000" />
<path fill-rule="evenodd" clip-rule="evenodd" d="M10.6278 5.09375C9.08159 5.09375 7.82812 6.34721 7.82812 7.89344C7.82812 9.43966 9.08159 10.6931 10.6278 10.6931C12.174 10.6931 13.4275 9.43967 13.4275 7.89344C13.4275 6.34721 12.174 5.09375 10.6278 5.09375ZM6.32812 7.89344C6.32812 5.51879 8.25316 3.59375 10.6278 3.59375C13.0025 3.59375 14.9275 5.51879 14.9275 7.89344C14.9275 10.2681 13.0025 12.1931 10.6278 12.1931C8.25316 12.1931 6.32812 10.2681 6.32812 7.89344Z" fill="#000000" />
<path fill-rule="evenodd" clip-rule="evenodd" d="M17.6645 13.12C17.7493 12.7145 18.1468 12.4546 18.5522 12.5395C19.5538 12.7491 20.4485 13.0954 21.1019 13.6657C21.7852 14.262 22.1567 15.063 22.151 16.0397L22.1509 16.0575L22.15 16.0752C22.0913 17.1773 21.4905 18.1386 20.4039 18.5153C20.0125 18.6509 19.5853 18.4436 19.4496 18.0523C19.3139 17.6609 19.5212 17.2337 19.9126 17.098C20.3314 16.9528 20.6149 16.5937 20.6511 16.013C20.65 15.4756 20.4615 15.0976 20.1157 14.7958C19.7361 14.4646 19.1251 14.1919 18.245 14.0077C17.8395 13.9228 17.5796 13.5254 17.6645 13.12Z" fill="#000000" />
<path fill-rule="evenodd" clip-rule="evenodd" d="M15.587 5.55665C15.6874 5.15479 16.0946 4.91042 16.4964 5.01083C17.976 5.3805 19.0727 6.71762 19.0727 8.31276C19.0727 9.81079 18.1053 11.0809 16.7633 11.5362C16.371 11.6693 15.9452 11.4592 15.8121 11.067C15.679 10.6747 15.8891 10.2489 16.2814 10.1158C17.0333 9.86066 17.5727 9.14873 17.5727 8.31276C17.5727 7.42225 16.9604 6.67286 16.1328 6.46609C15.731 6.36568 15.4866 5.95851 15.587 5.55665Z" fill="#000000" />
</svg>