<svg width="24px"  height="24px"  viewBox="0 0 25 25" fill="none" xmlns="http://www.w3.org/2000/svg">
<path fill-rule="evenodd" clip-rule="evenodd" d="M10.4298 5.46875C8.21197 5.46875 6.41406 7.26665 6.41406 9.48448C6.41406 11.7023 8.21197 13.5002 10.4298 13.5002C12.6476 13.5002 14.4455 11.7023 14.4455 9.48448C14.4455 7.26665 12.6476 5.46875 10.4298 5.46875ZM4.91406 9.48448C4.91406 6.43823 7.38354 3.96875 10.4298 3.96875C13.476 3.96875 15.9455 6.43823 15.9455 9.48448C15.9455 12.5307 13.476 15.0002 10.4298 15.0002C7.38354 15.0002 4.91406 12.5307 4.91406 9.48448Z" fill="#000000" />
<path fill-rule="evenodd" clip-rule="evenodd" d="M3.10768 18.9987C3.10768 16.1215 5.44011 13.7891 8.3173 13.7891H12.6599C15.5371 13.7891 17.8695 16.1215 17.8695 18.9987C17.8695 19.0825 17.8703 19.1677 17.8715 19.255C17.891 20.7139 16.6953 21.7198 15.3447 21.7198H5.63247C4.28192 21.7198 3.08616 20.7139 3.10571 19.255C3.10687 19.1677 3.10768 19.0825 3.10768 18.9987ZM8.3173 15.2891C6.26854 15.2891 4.60768 16.9499 4.60768 18.9987C4.60768 19.0918 4.60679 19.1843 4.60557 19.2751C4.59865 19.7913 5.00762 20.2198 5.63247 20.2198H15.3447C15.9696 20.2198 16.3785 19.7913 16.3716 19.2751C16.3704 19.1843 16.3695 19.0918 16.3695 18.9987C16.3695 16.9499 14.7087 15.2891 12.6599 15.2891H8.3173Z" fill="#000000" />
<path fill-rule="evenodd" clip-rule="evenodd" d="M15.6445 13.9883C15.6445 13.5741 15.9803 13.2383 16.3945 13.2383C19.2717 13.2383 21.6042 15.5707 21.6042 18.4479C21.6042 18.5318 21.605 18.6169 21.6061 18.7042L20.8562 18.7142L21.6061 18.7042C21.6061 18.7042 21.6061 18.7042 21.6061 18.7042C21.6257 20.1631 20.4299 21.169 19.0794 21.169C18.6652 21.169 18.3294 20.8332 18.3294 20.419C18.3294 20.0048 18.6652 19.669 19.0794 19.669C19.7042 19.669 20.1132 19.2405 20.1063 18.7243L20.1063 18.7243C20.105 18.6335 20.1042 18.541 20.1042 18.4479C20.1042 16.3991 18.4433 14.7383 16.3945 14.7383C15.9803 14.7383 15.6445 14.4025 15.6445 13.9883Z" fill="#000000" />
<path fill-rule="evenodd" clip-rule="evenodd" d="M14.6329 4.84452C14.6994 4.43568 15.0848 4.15817 15.4936 4.22469C18.0922 4.64748 20.0757 6.90094 20.0757 9.61911C20.0757 11.9097 18.6668 13.8695 16.6712 14.6825C16.2876 14.8388 15.8499 14.6545 15.6937 14.2709C15.5374 13.8873 15.7217 13.4496 16.1053 13.2934C17.5556 12.7025 18.5757 11.279 18.5757 9.61911C18.5757 7.64818 17.1371 6.01181 15.2527 5.70522C14.8439 5.63871 14.5664 5.25335 14.6329 4.84452Z" fill="#000000" />
</svg>