<svg width="24px"  height="24px"  viewBox="0 0 25 24" fill="none" xmlns="http://www.w3.org/2000/svg">
<path fill-rule="evenodd" clip-rule="evenodd" d="M8.81205 5.45312C6.86204 5.45312 5.28125 7.03392 5.28125 8.98392C5.28125 10.9339 6.86204 12.5147 8.81205 12.5147C10.7621 12.5147 12.3428 10.9339 12.3428 8.98392C12.3428 7.03392 10.7621 5.45312 8.81205 5.45312ZM3.78125 8.98392C3.78125 6.20549 6.03361 3.95312 8.81205 3.95312C11.5905 3.95312 13.8428 6.20549 13.8428 8.98392C13.8428 11.7624 11.5905 14.0147 8.81205 14.0147C6.03361 14.0147 3.78125 11.7624 3.78125 8.98392Z" fill="#000000" />
<path fill-rule="evenodd" clip-rule="evenodd" d="M2.15914 17.5293C2.15914 14.9027 4.2884 12.7734 6.91498 12.7734H10.8157C13.4423 12.7734 15.5715 14.9027 15.5715 17.5293C15.5715 17.6362 15.5735 17.7518 15.5755 17.8739C15.5834 18.3402 15.5929 18.9005 15.5012 19.4282C15.4303 19.8363 15.042 20.1096 14.6339 20.0388C14.2258 19.9679 13.9525 19.5796 14.0233 19.1715C14.0883 18.7972 14.0827 18.4285 14.076 17.9875C14.0738 17.8434 14.0715 17.6915 14.0715 17.5293C14.0715 15.7311 12.6138 14.2734 10.8157 14.2734H6.91498C5.11683 14.2734 3.65914 15.7311 3.65914 17.5293C3.65914 17.6915 3.65683 17.8434 3.65464 17.9875C3.64794 18.4285 3.64233 18.7972 3.70733 19.1715C3.77822 19.5796 3.50484 19.9679 3.09674 20.0388C2.68864 20.1096 2.30034 19.8363 2.22946 19.4282C2.13781 18.9005 2.14726 18.3402 2.15513 17.8739C2.15719 17.7518 2.15914 17.6362 2.15914 17.5293Z" fill="#000000" />
<path fill-rule="evenodd" clip-rule="evenodd" d="M17.6729 9.39062C16.4696 9.39062 15.4941 10.3661 15.4941 11.5694C15.4941 12.7727 16.4696 13.7482 17.6729 13.7482C18.8762 13.7482 19.8517 12.7727 19.8517 11.5694C19.8517 10.3661 18.8762 9.39062 17.6729 9.39062ZM13.9941 11.5694C13.9941 9.53767 15.6412 7.89062 17.6729 7.89062C19.7047 7.89062 21.3517 9.53767 21.3517 11.5694C21.3517 13.6011 19.7047 15.2482 17.6729 15.2482C15.6412 15.2482 13.9941 13.6011 13.9941 11.5694Z" fill="#000000" />
<path fill-rule="evenodd" clip-rule="evenodd" d="M13.7771 15.0173C14.4242 14.3476 15.3341 13.9297 16.3403 13.9297H19.0805C21.0489 13.9297 22.6446 15.5254 22.6446 17.4938C22.6446 17.562 22.6459 17.6382 22.6474 17.7204C22.653 18.0484 22.6604 18.4718 22.5919 18.866C22.521 19.2741 22.1327 19.5474 21.7246 19.4765C21.3165 19.4057 21.0432 19.0174 21.1141 18.6093C21.1559 18.3685 21.1524 18.1367 21.1479 17.8345C21.1463 17.7304 21.1446 17.6179 21.1446 17.4938C21.1446 16.3538 20.2205 15.4297 19.0805 15.4297H16.3403C15.7574 15.4297 15.232 15.6703 14.8557 16.0597C14.5679 16.3575 14.0931 16.3656 13.7952 16.0778C13.4974 15.79 13.4892 15.3152 13.7771 15.0173Z" fill="#000000" />
</svg>