<svg width="24px"  height="24px"  viewBox="0 0 25 24" fill="none" xmlns="http://www.w3.org/2000/svg">
<path fill-rule="evenodd" clip-rule="evenodd" d="M5.69902 14.6744C6.96153 14.2509 8.62702 14.125 10.331 14.125C12.0443 14.125 13.7105 14.2556 14.9719 14.6843C15.6065 14.9001 16.1934 15.2091 16.6281 15.6646C17.0801 16.1383 17.3358 16.7388 17.3358 17.4458C17.3358 18.1543 17.0777 18.7545 16.6231 19.2264C16.1863 19.6799 15.5974 19.986 14.9623 20.199C13.6996 20.6225 12.0341 20.7487 10.331 20.7487C8.61819 20.7487 6.95194 20.6183 5.69047 20.1897C5.05579 19.9741 4.4688 19.6651 4.03398 19.2095C3.58185 18.7357 3.32617 18.1351 3.32617 17.4278C3.32617 16.7194 3.58393 16.1191 4.03843 15.647C4.47515 15.1935 5.06394 14.8873 5.69902 14.6744ZM5.11898 16.6874C4.92824 16.8855 4.82617 17.115 4.82617 17.4278C4.82617 17.7424 4.92841 17.974 5.11913 18.1739C5.32716 18.3918 5.66796 18.5979 6.17304 18.7695C7.1911 19.1154 8.65224 19.2487 10.331 19.2487C12.0022 19.2487 13.4642 19.1193 14.4853 18.7769C14.992 18.6069 15.3342 18.4024 15.5428 18.1857C15.7338 17.9876 15.8358 17.7582 15.8358 17.4458C15.8358 17.1316 15.7336 16.9 15.5429 16.7002C15.3349 16.4822 14.9942 16.2762 14.4891 16.1045C13.4712 15.7585 12.0101 15.625 10.331 15.625C8.65871 15.625 7.1968 15.7542 6.17597 16.0965C5.66937 16.2664 5.3275 16.4708 5.11898 16.6874Z" fill="#000000" />
<path fill-rule="evenodd" clip-rule="evenodd" d="M17.5688 14.3624C17.6298 13.9527 18.0114 13.67 18.4211 13.7309C19.1722 13.8427 19.9018 14.0409 20.4617 14.4084C21.0592 14.8005 21.474 15.3996 21.474 16.2095C21.474 16.7457 21.2898 17.2135 20.9574 17.589C20.6389 17.949 20.2137 18.1921 19.7681 18.3612C19.3809 18.5082 18.9478 18.3134 18.8008 17.9261C18.6539 17.5388 18.8487 17.1057 19.2359 16.9588C19.5445 16.8417 19.7303 16.7123 19.8342 16.5949C19.9243 16.4931 19.974 16.3787 19.974 16.2095C19.974 15.9926 19.8926 15.8291 19.6386 15.6624C19.347 15.471 18.87 15.3143 18.2002 15.2146C17.7905 15.1536 17.5078 14.7721 17.5688 14.3624Z" fill="#000000" />
<path fill-rule="evenodd" clip-rule="evenodd" d="M10.3312 4.75C8.53814 4.75 7.08594 6.2022 7.08594 7.9953C7.08594 9.7876 8.53825 11.2406 10.3312 11.2406C12.1234 11.2406 13.5765 9.78749 13.5765 7.9953C13.5765 6.20231 12.1235 4.75 10.3312 4.75ZM5.58594 7.9953C5.58594 5.37377 7.70971 3.25 10.3312 3.25C12.9517 3.25 15.0765 5.37366 15.0765 7.9953C15.0765 10.6159 12.9519 12.7406 10.3312 12.7406C7.7096 12.7406 5.58594 10.6158 5.58594 7.9953Z" fill="#000000" />
<path fill-rule="evenodd" clip-rule="evenodd" d="M15.7035 4.85449C15.771 4.44581 16.157 4.16922 16.5657 4.2367C18.3886 4.5377 19.7238 6.11355 19.7238 7.95965L19.7238 7.96055C19.7216 9.8378 18.3387 11.4267 16.4805 11.6906C16.0704 11.7488 15.6908 11.4636 15.6325 11.0535C15.5743 10.6434 15.8596 10.2637 16.2697 10.2055C17.3898 10.0464 18.2222 9.08905 18.2238 7.95924C18.2236 6.84684 17.4192 5.89794 16.3213 5.71666C15.9126 5.64917 15.636 5.26317 15.7035 4.85449Z" fill="#000000" />
</svg>