<svg width="24px"  height="24px"  viewBox="0 0 25 24" fill="none" xmlns="http://www.w3.org/2000/svg">
<path fill-rule="evenodd" clip-rule="evenodd" d="M9.8331 4.80859C7.67515 4.80859 5.92578 6.55796 5.92578 8.71591C5.92578 10.8739 7.67515 12.6232 9.8331 12.6232C11.9911 12.6232 13.7404 10.8739 13.7404 8.71591C13.7404 6.55796 11.9911 4.80859 9.8331 4.80859ZM4.42578 8.71591C4.42578 5.72953 6.84672 3.30859 9.8331 3.30859C12.8195 3.30859 15.2404 5.72953 15.2404 8.71591C15.2404 11.7023 12.8195 14.1232 9.8331 14.1232C6.84672 14.1232 4.42578 11.7023 4.42578 8.71591Z" fill="#000000" />
<path fill-rule="evenodd" clip-rule="evenodd" d="M15.1544 4.25467C15.2209 3.84583 15.6062 3.56833 16.0151 3.63485C18.6396 4.06186 20.6429 6.33783 20.6429 9.08314C20.6429 11.3966 19.22 13.3759 17.2044 14.1971C16.8208 14.3534 16.3832 14.1691 16.2269 13.7855C16.0706 13.4019 16.2549 12.9642 16.6385 12.808C18.1088 12.209 19.1429 10.7659 19.1429 9.08314C19.1429 7.08507 17.6845 5.42619 15.7742 5.11538C15.3654 5.04886 15.0879 4.66351 15.1544 4.25467Z" fill="#000000" />
<path fill-rule="evenodd" clip-rule="evenodd" d="M2.65989 18.0144C2.65989 15.1933 4.9469 12.9062 7.76807 12.9062H12.0119C14.833 12.9062 17.12 15.1933 17.12 18.0144C17.12 18.1328 17.1222 18.2602 17.1244 18.394C17.1329 18.901 17.143 19.5019 17.0445 20.0691C16.9736 20.4772 16.5853 20.7505 16.1772 20.6796C15.7691 20.6088 15.4958 20.2205 15.5666 19.8124C15.6385 19.3986 15.6323 18.9893 15.6249 18.5075C15.6225 18.3516 15.62 18.1881 15.62 18.0144C15.62 16.0217 14.0046 14.4062 12.0119 14.4062H7.76807C5.77533 14.4062 4.15989 16.0217 4.15989 18.0144C4.15989 18.1881 4.1574 18.3516 4.15502 18.5075C4.14767 18.9893 4.14142 19.3986 4.21329 19.8124C4.28418 20.2205 4.0108 20.6088 3.6027 20.6796C3.1946 20.7505 2.8063 20.4772 2.73542 20.0691C2.63691 19.5019 2.647 18.901 2.65551 18.394C2.65776 18.2602 2.65989 18.1328 2.65989 18.0144Z" fill="#000000" />
<path fill-rule="evenodd" clip-rule="evenodd" d="M16.1777 13.5039C16.1777 13.0897 16.5135 12.7539 16.9277 12.7539C19.8072 12.7539 22.1415 15.0882 22.1415 17.9677C22.1415 18.0895 22.1437 18.2204 22.146 18.3577C22.1547 18.8769 22.165 19.4899 22.0644 20.069C21.9935 20.4771 21.6052 20.7504 21.1971 20.6796C20.789 20.6087 20.5157 20.2204 20.5865 19.8123C20.6605 19.3866 20.654 18.9652 20.6465 18.4712C20.644 18.3118 20.6415 18.1448 20.6415 17.9677C20.6415 15.9166 18.9788 14.2539 16.9277 14.2539C16.5135 14.2539 16.1777 13.9181 16.1777 13.5039Z" fill="#000000" />
</svg>