<svg width="24px"  height="24px"  viewBox="0 0 25 24" fill="none" xmlns="http://www.w3.org/2000/svg">
<path fill-rule="evenodd" clip-rule="evenodd" d="M11.031 13.0547L11.031 13.0548C13.0873 13.0764 14.9123 13.3246 16.2452 13.986C16.9234 14.3226 17.4989 14.7782 17.9014 15.387C18.3069 16.0003 18.5055 16.7221 18.5012 17.5352L18.5012 17.5513L18.5004 17.5673C18.4614 18.3788 18.1949 19.1385 17.6729 19.7049C17.1412 20.2816 16.3966 20.5997 15.531 20.5997H6.51521C5.64912 20.5997 4.90273 20.2822 4.37011 19.7053C3.84668 19.1383 3.58039 18.3771 3.54561 17.5633L3.54492 17.5473V17.5313C3.54492 16.7167 3.74593 15.9943 4.15209 15.3807C4.55547 14.7712 5.13068 14.3149 5.80888 13.9782C7.14169 13.3163 8.96381 13.071 11.0172 13.0548L11.031 13.0547ZM5.04496 17.5151C5.07049 18.0428 5.23929 18.4355 5.47225 18.6878C5.69835 18.9327 6.03327 19.0997 6.51521 19.0997H15.531C16.0109 19.0997 16.3441 18.9333 16.5699 18.6882C16.8031 18.4353 16.9729 18.0411 17.0013 17.5111C17.0016 16.9641 16.8696 16.5462 16.6501 16.2142C16.4255 15.8745 16.0777 15.5774 15.5784 15.3297C14.5577 14.8232 13.0137 14.5763 11.0221 14.5548C9.03469 14.571 7.49511 14.8156 6.47604 15.3216C5.97772 15.5691 5.62916 15.8667 5.4029 16.2086C5.18159 16.5429 5.04753 16.9641 5.04496 17.5151Z" fill="#000000" />
<path fill-rule="evenodd" clip-rule="evenodd" d="M18.0879 14.2327C18.2162 13.8388 18.6395 13.6236 19.0334 13.752C19.9053 14.0361 20.6692 14.4624 21.2157 15.0973C21.7743 15.7463 22.0561 16.5561 22.0511 17.5012L22.0511 17.5172L22.0503 17.5333C22.0129 18.3107 21.7575 19.0412 21.2546 19.5867C20.742 20.1428 20.0247 20.4486 19.193 20.4486C18.7788 20.4486 18.443 20.1128 18.443 19.6986C18.443 19.2844 18.7788 18.9486 19.193 18.9486C19.639 18.9486 19.9449 18.7944 20.1516 18.5701C20.3657 18.3378 20.5244 17.9729 20.5512 17.4771C20.5514 16.8631 20.3744 16.4192 20.0788 16.0758C19.7685 15.7153 19.2782 15.4094 18.5686 15.1781C18.1748 15.0498 17.9596 14.6265 18.0879 14.2327Z" fill="#000000" />
<path fill-rule="evenodd" clip-rule="evenodd" d="M10.7831 4.90234C9.25684 4.90234 8.01953 6.13965 8.01953 7.66594C8.01953 9.19223 9.25684 10.4295 10.7831 10.4295C12.3094 10.4295 13.5467 9.19223 13.5467 7.66594C13.5467 6.13965 12.3094 4.90234 10.7831 4.90234ZM6.51953 7.66594C6.51953 5.31122 8.42841 3.40234 10.7831 3.40234C13.1378 3.40234 15.0467 5.31122 15.0467 7.66594C15.0467 10.0207 13.1378 11.9295 10.7831 11.9295C8.42841 11.9295 6.51953 10.0207 6.51953 7.66594Z" fill="#000000" />
<path fill-rule="evenodd" clip-rule="evenodd" d="M15.8032 4.75791C15.9478 4.36976 16.3797 4.17232 16.7679 4.31692C18.2081 4.85346 19.236 6.24121 19.236 7.87091C19.236 9.50062 18.2081 10.8884 16.7679 11.4249C16.3797 11.5695 15.9478 11.3721 15.8032 10.9839C15.6586 10.5958 15.8561 10.1639 16.2442 10.0193C17.1166 9.6943 17.736 8.854 17.736 7.87091C17.736 6.88783 17.1166 6.04752 16.2442 5.72255C15.8561 5.57795 15.6586 5.14607 15.8032 4.75791Z" fill="#000000" />
</svg>