<svg width="24px"  height="24px"  viewBox="0 0 25 24" fill="none" xmlns="http://www.w3.org/2000/svg">
<path fill-rule="evenodd" clip-rule="evenodd" d="M9.23548 13.2891L9.23547 13.2892C11.1111 13.3089 12.7857 13.535 14.0136 14.1443C14.6393 14.4548 15.1736 14.8768 15.5481 15.4433C15.9257 16.0143 16.1095 16.685 16.1056 17.4372L16.1055 17.4532L16.1047 17.4692C16.0686 18.2206 15.8216 18.9286 15.3334 19.4583C14.8355 19.9984 14.139 20.2948 13.3333 20.2948H5.12184C4.31587 20.2948 3.61771 19.999 3.11894 19.4587C2.62934 18.9284 2.3825 18.2189 2.35029 17.4652L2.34961 17.4492V17.4332C2.34961 16.6799 2.53565 16.0087 2.91373 15.4375C3.28902 14.8705 3.82303 14.4479 4.44876 14.1371C5.67662 13.5274 7.34869 13.304 9.22167 13.2892L9.23548 13.2891ZM3.84965 17.417C3.8726 17.8844 4.02187 18.2254 4.22107 18.4412C4.41333 18.6494 4.70003 18.7948 5.12184 18.7948H13.3333C13.7533 18.7948 14.0384 18.65 14.2304 18.4416C14.4299 18.2252 14.5801 17.8827 14.6056 17.4131C14.6056 16.9272 14.4884 16.5603 14.2969 16.2706C14.1002 15.9731 13.7936 15.7096 13.3468 15.488C12.4311 15.0336 11.0375 14.8087 9.22661 14.7892C7.4196 14.804 6.03006 15.0267 5.11592 15.4806C4.67008 15.702 4.36272 15.966 4.16454 16.2655C3.97127 16.5574 3.85222 16.9274 3.84965 17.417Z" fill="#000000" />
<path fill-rule="evenodd" clip-rule="evenodd" d="M16.5024 14.3385C16.5356 13.9256 16.8971 13.6178 17.31 13.6509C18.5333 13.749 19.6457 13.9999 20.4697 14.5333C21.3469 15.1012 21.8549 15.9656 21.8489 17.1069L21.8488 17.123L21.8481 17.139C21.8175 17.7742 21.6082 18.3824 21.1851 18.8414C20.7525 19.3108 20.1487 19.5655 19.4589 19.5655H17.8929C17.4787 19.5655 17.1429 19.2297 17.1429 18.8155C17.1429 18.4013 17.4787 18.0655 17.8929 18.0655H19.4589C19.763 18.0655 19.9553 17.9624 20.0822 17.8248C20.2167 17.6788 20.3291 17.4358 20.349 17.0828C20.348 16.4767 20.1106 16.0877 19.6545 15.7925C19.1411 15.4601 18.3245 15.2371 17.1901 15.1461C16.7772 15.113 16.4693 14.7514 16.5024 14.3385Z" fill="#000000" />
<path fill-rule="evenodd" clip-rule="evenodd" d="M9.20838 5.20703C7.8431 5.20703 6.73633 6.31381 6.73633 7.67908C6.73633 9.04436 7.8431 10.1511 9.20838 10.1511C10.5737 10.1511 11.6804 9.04436 11.6804 7.67908C11.6804 6.31381 10.5737 5.20703 9.20838 5.20703ZM5.23633 7.67908C5.23633 5.48538 7.01468 3.70703 9.20838 3.70703C11.4021 3.70703 13.1804 5.48538 13.1804 7.67908C13.1804 9.87278 11.4021 11.6511 9.20838 11.6511C7.01468 11.6511 5.23633 9.87278 5.23633 7.67908Z" fill="#000000" />
<path fill-rule="evenodd" clip-rule="evenodd" d="M17.2354 7.3125C16.4905 7.3125 15.8867 7.9163 15.8867 8.66113C15.8867 9.40596 16.4905 10.0098 17.2354 10.0098C17.9802 10.0098 18.584 9.40596 18.584 8.66113C18.584 7.9163 17.9802 7.3125 17.2354 7.3125ZM14.3867 8.66113C14.3867 7.08788 15.6621 5.8125 17.2354 5.8125C18.8086 5.8125 20.084 7.08788 20.084 8.66113C20.084 10.2344 18.8086 11.5098 17.2354 11.5098C15.6621 11.5098 14.3867 10.2344 14.3867 8.66113Z" fill="#000000" />
</svg>