<svg width="24px"  height="24px"  viewBox="0 0 25 24" fill="none" xmlns="http://www.w3.org/2000/svg">
<path fill-rule="evenodd" clip-rule="evenodd" d="M10.7456 4.50781C8.56372 4.50781 6.79492 6.27661 6.79492 8.45853C6.79492 10.6404 8.56372 12.4092 10.7456 12.4092C12.9276 12.4092 14.6964 10.6404 14.6964 8.45853C14.6964 6.27661 12.9276 4.50781 10.7456 4.50781ZM5.29492 8.45853C5.29492 5.44818 7.73529 3.00781 10.7456 3.00781C13.756 3.00781 16.1964 5.44818 16.1964 8.45853C16.1964 11.4689 13.756 13.9092 10.7456 13.9092C7.73529 13.9092 5.29492 11.4689 5.29492 8.45853Z" fill="#000000" />
<path fill-rule="evenodd" clip-rule="evenodd" d="M3.51545 17.8402C3.51545 14.9966 5.82064 12.6914 8.66423 12.6914H12.9476C13.9437 12.6914 14.876 12.9751 15.6652 13.4663C16.0169 13.6852 16.1245 14.1477 15.9056 14.4994C15.6867 14.8511 15.2242 14.9587 14.8725 14.7398C14.3143 14.3923 13.6555 14.1914 12.9476 14.1914H8.66423C6.64906 14.1914 5.01545 15.825 5.01545 17.8402C5.01545 18.0152 5.01293 18.18 5.01053 18.3373C5.00311 18.8238 4.99679 19.2377 5.06945 19.6561C5.14033 20.0642 4.86696 20.4525 4.45886 20.5234C4.05075 20.5942 3.66246 20.3209 3.59157 19.9128C3.49227 19.341 3.50243 18.7355 3.51102 18.2238C3.51329 18.0886 3.51545 17.9599 3.51545 17.8402Z" fill="#000000" />
<path fill-rule="evenodd" clip-rule="evenodd" d="M17.9961 14.3927C18.4103 14.3927 18.7461 14.7285 18.7461 15.1427L18.7461 16.9405L20.4954 16.9405C20.9096 16.9405 21.2454 17.2763 21.2454 17.6905C21.2454 18.1047 20.9096 18.4405 20.4954 18.4405L18.7461 18.4405L18.7461 20.2406C18.7461 20.6548 18.4103 20.9906 17.9961 20.9906C17.5819 20.9906 17.2461 20.6548 17.2461 20.2406L17.2461 18.4405L15.4981 18.4405C15.0839 18.4405 14.7481 18.1047 14.7481 17.6905C14.7481 17.2763 15.0839 16.9405 15.4981 16.9405L17.2461 16.9405L17.2461 15.1427C17.2461 14.7285 17.5819 14.3927 17.9961 14.3927Z" fill="#000000" />
</svg>