<svg width="24px"  height="24px"  viewBox="0 0 25 25" fill="none" xmlns="http://www.w3.org/2000/svg">
<path fill-rule="evenodd" clip-rule="evenodd" d="M5.14621 4.55225C6.10938 3.54162 7.49308 3.03424 9.15979 3.0391H17.2217C18.8884 3.0391 20.2735 3.54902 21.2384 4.55993C22.1982 5.56552 22.6513 6.97162 22.6513 8.58891V17.0967C22.6513 18.7138 22.1888 20.121 21.2142 21.1267C20.2359 22.1362 18.8335 22.6465 17.1457 22.6465H9.15868C7.49098 22.6465 6.10786 22.1339 5.14553 21.1215C4.18872 20.1149 3.73828 18.7093 3.73828 17.0967V8.57967C3.73828 6.96361 4.18841 5.55725 5.14621 4.55225ZM6.23206 5.58711C5.61089 6.23889 5.23828 7.23243 5.23828 8.57967V17.0967C5.23828 18.4392 5.61058 19.4335 6.23274 20.088C6.84938 20.7368 7.80146 21.1465 9.15868 21.1465H17.1457C18.5301 21.1465 19.5055 20.7345 20.137 20.0828C20.7721 19.4274 21.1513 18.4347 21.1513 17.0967V8.58891C21.1513 7.24291 20.7771 6.24911 20.1533 5.59561C19.5347 4.94744 18.58 4.5391 17.2217 4.5391H9.15868L9.15638 4.53909C7.79871 4.53494 6.84762 4.94121 6.23206 5.58711Z" fill="#000000" />
<path fill-rule="evenodd" clip-rule="evenodd" d="M2.15039 8.77734C2.15039 8.36313 2.48618 8.02734 2.90039 8.02734H6.21086C6.62507 8.02734 6.96086 8.36313 6.96086 8.77734C6.96086 9.19156 6.62507 9.52734 6.21086 9.52734H2.90039C2.48618 9.52734 2.15039 9.19156 2.15039 8.77734ZM2.15039 16.9047C2.15039 16.4905 2.48618 16.1547 2.90039 16.1547H6.21086C6.62507 16.1547 6.96086 16.4905 6.96086 16.9047C6.96086 17.3189 6.62507 17.6547 6.21086 17.6547H2.90039C2.48618 17.6547 2.15039 17.3189 2.15039 16.9047Z" fill="#000000" />
<path fill-rule="evenodd" clip-rule="evenodd" d="M13.9296 8.92969C12.8326 8.92969 11.9434 9.81897 11.9434 10.916C11.9434 12.0129 12.8326 12.9022 13.9296 12.9022C15.0266 12.9022 15.9159 12.0129 15.9159 10.916C15.9159 9.81897 15.0266 8.92969 13.9296 8.92969ZM10.4434 10.916C10.4434 8.99054 12.0042 7.42969 13.9296 7.42969C15.855 7.42969 17.4159 8.99054 17.4159 10.916C17.4159 12.8414 15.855 14.4022 13.9296 14.4022C12.0042 14.4022 10.4434 12.8414 10.4434 10.916Z" fill="#000000" />
<path fill-rule="evenodd" clip-rule="evenodd" d="M9.40608 16.3769C9.40608 14.5486 10.8882 13.0664 12.7166 13.0664H15.2099C17.0383 13.0664 18.5204 14.5486 18.5204 16.3769C18.5204 16.437 18.5216 16.5048 18.5229 16.5785C18.5281 16.8768 18.535 17.2712 18.4715 17.637C18.4006 18.0451 18.0123 18.3185 17.6042 18.2476C17.1961 18.1767 16.9227 17.7884 16.9936 17.3803C17.0305 17.168 17.0275 16.9651 17.0234 16.6928C17.022 16.5972 17.0204 16.4931 17.0204 16.3769C17.0204 15.377 16.2098 14.5664 15.2099 14.5664H12.7166C11.7167 14.5664 10.9061 15.377 10.9061 16.3769C10.9061 16.4931 10.9045 16.5972 10.9031 16.6928C10.899 16.9651 10.896 17.168 10.9329 17.3803C11.0038 17.7884 10.7304 18.1767 10.3223 18.2476C9.91419 18.3185 9.5259 18.0451 9.45501 17.637C9.39147 17.2712 9.39838 16.8768 9.4036 16.5785C9.40489 16.5048 9.40608 16.437 9.40608 16.3769Z" fill="#000000" />
</svg>