<svg width="24px"  height="24px"  viewBox="0 0 25 25" fill="none" xmlns="http://www.w3.org/2000/svg">
<path fill-rule="evenodd" clip-rule="evenodd" d="M5.09933 4.55225C6.06251 3.54162 7.4462 3.03424 9.11292 3.0391H17.1748C18.8415 3.0391 20.2266 3.54902 21.1915 4.55993C22.1514 5.56552 22.6045 6.97162 22.6045 8.58891V17.0967C22.6045 18.7138 22.1419 20.121 21.1673 21.1267C20.189 22.1362 18.7866 22.6465 17.0988 22.6465H9.1118C7.4441 22.6465 6.06098 22.1339 5.09865 21.1215C4.14184 20.1149 3.69141 18.7093 3.69141 17.0967V8.57967C3.69141 6.96361 4.14154 5.55725 5.09933 4.55225ZM6.18518 5.58711C5.56401 6.23889 5.19141 7.23243 5.19141 8.57967V17.0967C5.19141 18.4392 5.56371 19.4335 6.18586 20.088C6.8025 20.7368 7.75458 21.1465 9.1118 21.1465H17.0988C18.4832 21.1465 19.4586 20.7345 20.0901 20.0828C20.7253 19.4274 21.1045 18.4347 21.1045 17.0967V8.58891C21.1045 7.24291 20.7302 6.24911 20.1065 5.59561C19.4878 4.94744 18.5331 4.5391 17.1748 4.5391H9.1118L9.10951 4.53909C7.75183 4.53494 6.80075 4.94121 6.18518 5.58711Z" fill="#000000" />
<path fill-rule="evenodd" clip-rule="evenodd" d="M11.2932 16.4461C10.8812 16.8196 10.7207 17.289 10.7207 17.6968C10.7207 18.1111 10.3849 18.4468 9.9707 18.4468C9.55649 18.4468 9.2207 18.1111 9.2207 17.6968C9.2207 16.8988 9.53633 16.014 10.2859 15.3346C11.0375 14.6535 12.1574 14.2383 13.6653 14.2383C15.1722 14.2383 16.2921 14.6498 17.0441 15.3278C17.795 16.0046 18.111 16.8876 18.111 17.6866C18.111 18.1008 17.7752 18.4366 17.361 18.4366C16.9467 18.4366 16.611 18.1008 16.611 17.6866C16.611 17.2787 16.4509 16.8125 16.0398 16.4419C15.6299 16.0724 14.9019 15.7383 13.6653 15.7383C12.4308 15.7383 11.7034 16.0744 11.2932 16.4461Z" fill="#000000" />
<path fill-rule="evenodd" clip-rule="evenodd" d="M13.6651 8.73828C12.7758 8.73828 12.0547 9.45942 12.0547 10.3486C12.0547 11.2387 12.7756 11.959 13.6651 11.959C14.5545 11.959 15.2754 11.2387 15.2754 10.3486C15.2754 9.45942 14.5543 8.73828 13.6651 8.73828ZM10.5547 10.3486C10.5547 8.63099 11.9474 7.23828 13.6651 7.23828C15.3827 7.23828 16.7754 8.63099 16.7754 10.3486C16.7754 12.0675 15.3825 13.459 13.6651 13.459C11.9476 13.459 10.5547 12.0675 10.5547 10.3486Z" fill="#000000" />
<path fill-rule="evenodd" clip-rule="evenodd" d="M2.10352 8.77734C2.10352 8.36313 2.4393 8.02734 2.85352 8.02734H6.16398C6.57819 8.02734 6.91398 8.36313 6.91398 8.77734C6.91398 9.19156 6.57819 9.52734 6.16398 9.52734H2.85352C2.4393 9.52734 2.10352 9.19156 2.10352 8.77734ZM2.10352 16.9047C2.10352 16.4905 2.4393 16.1547 2.85352 16.1547H6.16398C6.57819 16.1547 6.91398 16.4905 6.91398 16.9047C6.91398 17.3189 6.57819 17.6547 6.16398 17.6547H2.85352C2.4393 17.6547 2.10352 17.3189 2.10352 16.9047Z" fill="#000000" />
</svg>