<svg width="24px"  height="24px"  viewBox="0 0 25 24" fill="none" xmlns="http://www.w3.org/2000/svg">
<path d="M15.561 18.0828C15.3235 18.0824 15.0888 18.0319 14.872 17.9348C14.6553 17.8378 14.4613 17.6961 14.3029 17.5192C14.1444 17.3423 14.025 17.134 13.9523 16.9079C13.8796 16.6818 13.8553 16.4429 13.881 16.2068L13.981 15.3368C14.0425 14.7612 14.2835 14.2197 14.67 13.7888L17.99 10.1308C18.3336 9.75833 18.8111 9.53762 19.3174 9.51718C19.8238 9.49674 20.3175 9.67824 20.69 10.0218L21.465 10.7378C21.8362 11.0826 22.0553 11.5607 22.074 12.067C22.0928 12.5734 21.9097 13.0664 21.565 13.4378L18.292 17.0378C17.8721 17.505 17.3058 17.8158 16.686 17.9188L15.846 18.0608C15.7517 18.0755 15.6564 18.0829 15.561 18.0828ZM19.39 11.0138C19.3338 11.0138 19.2781 11.0253 19.2265 11.0476C19.1749 11.07 19.1285 11.1027 19.09 11.1438L15.78 14.7918C15.6044 14.9886 15.4949 15.2355 15.467 15.4978L15.367 16.3687C15.3635 16.3982 15.3671 16.428 15.3773 16.4558C15.3876 16.4836 15.4043 16.5086 15.426 16.5288C15.4482 16.5494 15.4747 16.5646 15.5037 16.5735C15.5326 16.5823 15.5631 16.5844 15.593 16.5797L16.434 16.4378C16.7172 16.3922 16.9762 16.251 17.168 16.0378L20.45 12.4248C20.488 12.3849 20.5175 12.3378 20.537 12.2862C20.5564 12.2347 20.5652 12.1798 20.563 12.1248C20.5588 12.0173 20.512 11.9158 20.433 11.8427L19.658 11.1258C19.5859 11.0562 19.4902 11.0162 19.39 11.0138Z" fill="#000000" />
<path d="M15.0005 20.6258H5.58847C5.19437 20.6462 4.80023 20.5864 4.4299 20.4501C4.05957 20.3137 3.72077 20.1037 3.43402 19.8325C3.14727 19.5614 2.91854 19.2349 2.76169 18.8727C2.60483 18.5106 2.52312 18.1204 2.52148 17.7258C2.52148 13.4828 8.36748 13.4408 10.2885 13.4258C10.7885 13.4258 11.2505 13.4458 11.6945 13.4728C11.8925 13.4856 12.0772 13.5764 12.2084 13.7252C12.3396 13.874 12.4065 14.0688 12.3945 14.2668C12.3784 14.4637 12.2865 14.6467 12.1382 14.7772C11.99 14.9078 11.7968 14.9757 11.5995 14.9668C11.1805 14.9398 10.7425 14.9258 10.2855 14.9218C4.01746 14.9668 4.01749 17.0128 4.01749 17.6838C4.01378 17.8848 4.05287 18.0843 4.1322 18.269C4.21153 18.4537 4.32926 18.6195 4.47757 18.7552C4.62588 18.8909 4.80138 18.9935 4.9924 19.0562C5.18342 19.1189 5.38559 19.1402 5.58548 19.1188H14.9975C15.1964 19.1188 15.3871 19.1978 15.5278 19.3384C15.6685 19.4791 15.7475 19.6699 15.7475 19.8688C15.7475 20.0677 15.6685 20.2585 15.5278 20.3991C15.3871 20.5398 15.1964 20.6188 14.9975 20.6188L15.0005 20.6258Z" fill="#000000" />
<path d="M10.3 11.9711C9.44954 11.9711 8.61819 11.7189 7.91106 11.2464C7.20393 10.774 6.65277 10.1024 6.32732 9.31664C6.00186 8.53091 5.91671 7.66632 6.08263 6.8322C6.24854 5.99808 6.65808 5.2319 7.25945 4.63054C7.86081 4.02917 8.62699 3.61964 9.46111 3.45372C10.2952 3.2878 11.1598 3.37295 11.9455 3.69841C12.7313 4.02387 13.4028 4.57502 13.8753 5.28215C14.3478 5.98928 14.6 6.82067 14.6 7.67113C14.6 8.81156 14.147 9.90525 13.3406 10.7117C12.5342 11.5181 11.4404 11.9711 10.3 11.9711ZM10.3 4.87114C9.74622 4.87114 9.20486 5.03533 8.7444 5.343C8.28394 5.65067 7.92508 6.08796 7.71315 6.59959C7.50122 7.11123 7.44575 7.67425 7.55379 8.21739C7.66183 8.76054 7.92853 9.2594 8.32011 9.65099C8.7117 10.0426 9.21059 10.3093 9.75374 10.4173C10.2969 10.5254 10.8599 10.4699 11.3715 10.258C11.8831 10.0461 12.3205 9.68719 12.6281 9.22673C12.9358 8.76627 13.1 8.22492 13.1 7.67113C13.0997 6.92869 12.8046 6.21676 12.2796 5.69188C11.7545 5.16699 11.0424 4.87212 10.3 4.87212V4.87114Z" fill="#000000" />
</svg>