<svg width="24px"  height="24px"  viewBox="0 0 25 24" fill="none" xmlns="http://www.w3.org/2000/svg">
<path fill-rule="evenodd" clip-rule="evenodd" d="M12.1167 4.125C9.93481 4.125 8.16602 5.8938 8.16602 8.07571C8.16602 10.2576 9.93481 12.0264 12.1167 12.0264C14.2986 12.0264 16.0674 10.2576 16.0674 8.07571C16.0674 5.8938 14.2986 4.125 12.1167 4.125ZM6.66602 8.07571C6.66602 5.06537 9.10638 2.625 12.1167 2.625C15.1271 2.625 17.5674 5.06537 17.5674 8.07571C17.5674 11.0861 15.1271 13.5264 12.1167 13.5264C9.10638 13.5264 6.66602 11.0861 6.66602 8.07571Z" fill="#000000" />
<path fill-rule="evenodd" clip-rule="evenodd" d="M4.88654 17.4535C4.88654 14.6099 7.19173 12.3047 10.0353 12.3047H14.3187C15.7022 12.3047 16.9597 12.8514 17.8841 13.739C18.1829 14.0259 18.1926 14.5006 17.9057 14.7994C17.6189 15.0982 17.1441 15.1079 16.8453 14.821C16.1889 14.1908 15.2997 13.8047 14.3187 13.8047H10.0353C8.02016 13.8047 6.38654 15.4383 6.38654 17.4535C6.38654 17.6285 6.38403 17.7933 6.38162 17.9506C6.3742 18.437 6.36788 18.851 6.44054 19.2694C6.51143 19.6775 6.23805 20.0658 5.82995 20.1366C5.42185 20.2075 5.03355 19.9341 4.96267 19.526C4.86336 18.9543 4.87353 18.3488 4.88211 17.8371C4.88438 17.7019 4.88654 17.5732 4.88654 17.4535Z" fill="#000000" />
<path fill-rule="evenodd" clip-rule="evenodd" d="M16.7478 16.1191C17.0402 16.4125 17.0393 16.8874 16.7458 17.1798L16.0342 17.8888H19.1733C19.5875 17.8888 19.9233 18.2246 19.9233 18.6388C19.9233 19.053 19.5875 19.3888 19.1733 19.3888H16.0349L16.7457 20.0965C17.0392 20.3888 17.0402 20.8637 16.748 21.1572C16.4557 21.4507 15.9808 21.4517 15.6873 21.1595L13.6896 19.1703C13.5482 19.0295 13.4688 18.8383 13.4688 18.6389C13.4687 18.4395 13.5481 18.2482 13.6894 18.1075L15.6872 16.1171C15.9806 15.8248 16.4555 15.8257 16.7478 16.1191Z" fill="#000000" />
</svg>