<svg width="24px"  height="24px"  viewBox="0 0 25 24" fill="none" xmlns="http://www.w3.org/2000/svg">
<path fill-rule="evenodd" clip-rule="evenodd" d="M19.2615 7.63095C19.5537 7.92446 19.5527 8.39934 19.2592 8.69161L18.6638 9.28456H21.5139C21.9281 9.28456 22.2639 9.62034 22.2639 10.0346C22.2639 10.4488 21.9281 10.7846 21.5139 10.7846H18.6644L19.2591 11.3764C19.5527 11.6686 19.5538 12.1435 19.2616 12.437C18.9694 12.7306 18.4945 12.7318 18.201 12.4396L16.3186 10.5661C16.1772 10.4254 16.0977 10.2342 16.0977 10.0347C16.0976 9.83516 16.1771 9.64387 16.3185 9.50311L18.2008 7.6287C18.4943 7.33643 18.9692 7.33744 19.2615 7.63095Z" fill="#000000" />
<path fill-rule="evenodd" clip-rule="evenodd" d="M10.5176 13.4297L10.5176 13.4298C12.6585 13.4501 14.546 13.6834 15.9208 14.2993C16.6182 14.6117 17.2187 15.0379 17.6433 15.6176C18.0742 16.2061 18.2892 16.9058 18.2846 17.6962L18.2845 17.714L18.2835 17.7317C18.2413 18.5241 17.9521 19.2582 17.4018 19.7971C16.8477 20.3397 16.0878 20.6268 15.2166 20.6268H5.80429C4.9326 20.6268 4.17077 20.3402 3.61578 19.7975C3.06404 19.258 2.7748 18.5224 2.73717 17.7273L2.73633 17.7096V17.6918C2.73633 16.9003 2.9537 16.2003 3.38529 15.6116C3.81076 15.0313 4.41091 14.6045 5.10833 14.2919C6.48296 13.6756 8.3674 13.445 10.5051 13.4298L10.5176 13.4297ZM4.23638 17.6739C4.26215 18.1419 4.42708 18.4929 4.66449 18.725C4.90159 18.9569 5.26864 19.1268 5.80429 19.1268H15.2166C15.7503 19.1268 16.1155 18.9573 16.3522 18.7254C16.5898 18.4927 16.756 18.1401 16.7846 17.6695C16.7843 17.1793 16.6542 16.8057 16.4331 16.5039C16.2029 16.1896 15.8394 15.9065 15.3076 15.6682C14.2251 15.1833 12.5952 14.95 10.5096 14.9298C8.42825 14.9451 6.8028 15.1761 5.72195 15.6606C5.19109 15.8986 4.82683 16.1824 4.59497 16.4986C4.37192 16.8028 4.23951 17.1798 4.23638 17.6739Z" fill="#000000" />
<path fill-rule="evenodd" clip-rule="evenodd" d="M10.5165 4.875C8.97026 4.875 7.7168 6.12846 7.7168 7.67469C7.7168 9.22091 8.97026 10.4744 10.5165 10.4744C12.0627 10.4744 13.3162 9.22092 13.3162 7.67469C13.3162 6.12846 12.0627 4.875 10.5165 4.875ZM6.2168 7.67469C6.2168 5.30004 8.14183 3.375 10.5165 3.375C12.8911 3.375 14.8162 5.30004 14.8162 7.67469C14.8162 10.0493 12.8911 11.9744 10.5165 11.9744C8.14183 11.9744 6.2168 10.0493 6.2168 7.67469Z" fill="#000000" />
</svg>