<svg width="24px"  height="24px"  viewBox="0 0 25 24" fill="none" xmlns="http://www.w3.org/2000/svg">
<path fill-rule="evenodd" clip-rule="evenodd" d="M12.1167 4.125C9.93481 4.125 8.16602 5.8938 8.16602 8.07571C8.16602 10.2576 9.93481 12.0264 12.1167 12.0264C14.2986 12.0264 16.0674 10.2576 16.0674 8.07571C16.0674 5.8938 14.2986 4.125 12.1167 4.125ZM6.66602 8.07571C6.66602 5.06537 9.10638 2.625 12.1167 2.625C15.1271 2.625 17.5674 5.06537 17.5674 8.07571C17.5674 11.0861 15.1271 13.5264 12.1167 13.5264C9.10638 13.5264 6.66602 11.0861 6.66602 8.07571Z" fill="#000000" />
<path fill-rule="evenodd" clip-rule="evenodd" d="M4.88654 17.4535C4.88654 14.6099 7.19173 12.3047 10.0353 12.3047H14.3187C15.7022 12.3047 16.9597 12.8514 17.8841 13.739C18.1829 14.0259 18.1926 14.5006 17.9057 14.7994C17.6189 15.0982 17.1441 15.1079 16.8453 14.821C16.1889 14.1908 15.2997 13.8047 14.3187 13.8047H10.0353C8.02016 13.8047 6.38654 15.4383 6.38654 17.4535C6.38654 17.6285 6.38403 17.7933 6.38162 17.9506C6.3742 18.437 6.36788 18.851 6.44054 19.2694C6.51143 19.6775 6.23805 20.0658 5.82995 20.1366C5.42185 20.2075 5.03355 19.9341 4.96267 19.526C4.86336 18.9543 4.87353 18.3488 4.88211 17.8371C4.88438 17.7019 4.88654 17.5732 4.88654 17.4535Z" fill="#000000" />
<path fill-rule="evenodd" clip-rule="evenodd" d="M16.6448 16.1191C16.3524 16.4125 16.3533 16.8874 16.6467 17.1798L17.3584 17.8888H14.2193C13.8051 17.8888 13.4693 18.2246 13.4693 18.6388C13.4693 19.053 13.8051 19.3888 14.2193 19.3888H17.3577L16.6469 20.0965C16.3534 20.3888 16.3523 20.8637 16.6446 21.1572C16.9369 21.4507 17.4117 21.4517 17.7053 21.1595L19.703 19.1703C19.8443 19.0295 19.9238 18.8383 19.9238 18.6389C19.9239 18.4395 19.8445 18.2482 19.7032 18.1075L17.7054 16.1171C17.412 15.8248 16.9371 15.8257 16.6448 16.1191Z" fill="#000000" />
</svg>