<svg width="24px"  height="24px"  viewBox="0 0 25 24" fill="none" xmlns="http://www.w3.org/2000/svg">
<path fill-rule="evenodd" clip-rule="evenodd" d="M5.29484 14.6744C6.55736 14.251 8.22276 14.125 9.92635 14.125C11.6398 14.125 13.306 14.2556 14.5673 14.6845C15.2019 14.9002 15.7887 15.2093 16.2233 15.6649C16.6753 16.1387 16.9308 16.7392 16.9308 17.4461C16.9308 18.1546 16.6727 18.7547 16.2181 19.2265C15.7813 19.6798 15.1924 19.986 14.5573 20.1991C13.2946 20.6227 11.6293 20.7491 9.92635 20.7491C8.21329 20.7491 6.5471 20.6185 5.28575 20.1897C4.65113 19.9739 4.06426 19.6649 3.62954 19.2093C3.17752 18.7355 2.92188 18.135 2.92188 17.428C2.92188 16.7195 3.17967 16.1192 3.6342 15.6471C4.07094 15.1935 4.65976 14.8874 5.29484 14.6744ZM4.71473 16.6875C4.52396 16.8856 4.42188 17.1151 4.42188 17.428C4.42188 17.7423 4.52405 17.9739 4.71477 18.1738C4.92278 18.3918 5.26355 18.5978 5.76857 18.7695C6.78648 19.1156 8.24753 19.2491 9.92635 19.2491C11.5971 19.2491 13.059 19.1196 14.0802 18.777C14.587 18.6069 14.9291 18.4024 15.1379 18.1857C15.3289 17.9875 15.4308 17.7582 15.4308 17.4461C15.4308 17.1318 15.3286 16.9002 15.138 16.7003C14.9301 16.4824 14.5894 16.2763 14.0844 16.1046C13.0666 15.7586 11.6056 15.625 9.92635 15.625C8.25449 15.625 6.79265 15.7542 5.7718 16.0965C5.2652 16.2664 4.92329 16.4709 4.71473 16.6875Z" fill="#000000" />
<path fill-rule="evenodd" clip-rule="evenodd" d="M18.7721 9.39266C19.0644 9.09915 19.5393 9.09815 19.8328 9.39043L21.6584 11.2084C21.7998 11.3491 21.8792 11.5404 21.8792 11.7399C21.8792 11.9394 21.7997 12.1307 21.6583 12.2714L19.8327 14.0884C19.5391 14.3806 19.0642 14.3794 18.772 14.0858C18.4798 13.7923 18.4809 13.3174 18.7745 13.0252L19.3124 12.4898H16.6035C16.1893 12.4898 15.8535 12.154 15.8535 11.7398C15.8535 11.3256 16.1893 10.9898 16.6035 10.9898H19.3131L18.7744 10.4533C18.4809 10.161 18.4799 9.68617 18.7721 9.39266Z" fill="#000000" />
<path fill-rule="evenodd" clip-rule="evenodd" d="M9.9263 4.75C8.13454 4.75 6.68164 6.20334 6.68164 7.99553C6.68164 9.78771 8.13454 11.2411 9.9263 11.2411C11.719 11.2411 13.1718 9.78761 13.1718 7.99553C13.1718 6.20345 11.719 4.75 9.9263 4.75ZM5.18164 7.99553C5.18164 5.37534 7.30569 3.25 9.9263 3.25C12.5477 3.25 14.6718 5.37523 14.6718 7.99553C14.6718 10.6158 12.5477 12.7411 9.9263 12.7411C7.30569 12.7411 5.18164 10.6157 5.18164 7.99553Z" fill="#000000" />
</svg>