<svg width="24px"  height="24px"  viewBox="0 0 25 24" fill="none" xmlns="http://www.w3.org/2000/svg">
<path fill-rule="evenodd" clip-rule="evenodd" d="M12.402 3.75C10.1282 3.75 8.05946 4.67688 6.56939 6.16695C6.2765 6.45985 5.80163 6.45985 5.50873 6.16695C5.21584 5.87406 5.21584 5.39919 5.50873 5.10629C7.26823 3.3468 9.71387 2.25 12.402 2.25C17.7878 2.25 22.1515 6.61369 22.1515 11.9995C22.1515 14.6877 21.0547 17.1333 19.2952 18.8928C19.0023 19.1857 18.5275 19.1857 18.2346 18.8928C17.9417 18.5999 17.9417 18.125 18.2346 17.8321C19.7246 16.3421 20.6515 14.2733 20.6515 11.9995C20.6515 7.44212 16.9594 3.75 12.402 3.75Z" fill="#000000" />
<path fill-rule="evenodd" clip-rule="evenodd" d="M4.28575 7.33984C4.69996 7.33984 5.03575 7.67563 5.03575 8.08984V8.09957C5.03575 8.21179 5.01057 8.32257 4.96207 8.42376C4.44492 9.50263 4.15039 10.725 4.15039 12.001C4.15039 14.801 5.54007 17.27 7.68154 18.7601L7.68327 18.7613C9.02199 19.6984 10.6436 20.2505 12.3999 20.2505C13.6759 20.2505 14.8983 19.956 15.9772 19.4389C16.3507 19.2598 16.7986 19.4175 16.9777 19.791C17.1567 20.1645 16.9991 20.6125 16.6255 20.7915C15.3499 21.4029 13.9065 21.7505 12.3999 21.7505C10.3233 21.7505 8.40382 21.0965 6.82393 19.9908C4.29586 18.2313 2.65039 15.3106 2.65039 12.001C2.65039 10.5211 2.9858 9.10206 3.57724 7.84322C3.67924 7.55016 3.95794 7.33984 4.28575 7.33984Z" fill="#000000" />
<path fill-rule="evenodd" clip-rule="evenodd" d="M3.63764 3.2392C3.93053 2.94631 4.40541 2.94631 4.6983 3.2392L21.1602 19.7011C21.4531 19.994 21.4531 20.4688 21.1602 20.7617C20.8673 21.0546 20.3924 21.0546 20.0995 20.7617L3.63764 4.29986C3.34475 4.00697 3.34475 3.53209 3.63764 3.2392Z" fill="#000000" />
<path fill-rule="evenodd" clip-rule="evenodd" d="M8.69103 8.6659C9.32255 7.25987 10.7312 6.27734 12.3718 6.27734C14.6054 6.27734 16.42 8.09197 16.42 10.3256C16.42 11.9661 15.4381 13.3713 14.0482 14.0129C13.6721 14.1864 13.2265 14.0223 13.0529 13.6462C12.8793 13.2701 13.0435 12.8245 13.4196 12.6509C14.3063 12.2417 14.92 11.3508 14.92 10.3256C14.92 8.9204 13.7769 7.77734 12.3718 7.77734C11.3465 7.77734 10.4591 8.39042 10.0593 9.28048C9.88963 9.65833 9.44574 9.82706 9.06789 9.65735C8.69004 9.48764 8.52132 9.04375 8.69103 8.6659Z" fill="#000000" />
<path fill-rule="evenodd" clip-rule="evenodd" d="M9.03811 17.6968C8.38594 18.207 8.07623 18.8616 7.99784 19.47C7.94491 19.8809 7.56897 20.171 7.15816 20.1181C6.74734 20.0651 6.45721 19.6892 6.51014 19.2784C6.63606 18.3009 7.13388 17.2821 8.11379 16.5154C9.09193 15.7501 10.4956 15.2773 12.3716 15.2773C12.7858 15.2773 13.1216 15.6131 13.1216 16.0273C13.1216 16.4416 12.7858 16.7773 12.3716 16.7773C10.745 16.7773 9.69205 17.1851 9.03811 17.6968Z" fill="#000000" />
</svg>