<svg width="24px"  height="24px"  viewBox="0 0 25 24" fill="none" xmlns="http://www.w3.org/2000/svg">
<path fill-rule="evenodd" clip-rule="evenodd" d="M16.6113 12.3164C16.6113 11.9022 16.9471 11.5664 17.3613 11.5664H21.4002C21.8144 11.5664 22.1502 11.9022 22.1502 12.3164C22.1502 12.7306 21.8144 13.0664 21.4002 13.0664H17.3613C16.9471 13.0664 16.6113 12.7306 16.6113 12.3164Z" fill="#000000" />
<path fill-rule="evenodd" clip-rule="evenodd" d="M5.33518 17.3977C4.48878 18.1646 4.15039 19.1403 4.15039 19.9996C4.15039 20.4139 3.8146 20.7496 3.40039 20.7496C2.98618 20.7496 2.65039 20.4139 2.65039 19.9996C2.65039 18.7503 3.14382 17.359 4.32802 16.2861C5.51408 15.2114 7.32507 14.5156 9.85917 14.5156C12.3914 14.5156 14.2018 15.2059 15.3881 16.2754C16.5732 17.3438 17.067 18.7312 17.067 19.9815C17.067 20.3957 16.7312 20.7315 16.317 20.7315C15.9028 20.7315 15.567 20.3957 15.567 19.9815C15.567 19.1221 15.229 18.1516 14.3837 17.3895C13.5396 16.6285 12.1211 16.0156 9.85917 16.0156C7.59813 16.0156 6.17973 16.6325 5.33518 17.3977Z" fill="#000000" />
<path fill-rule="evenodd" clip-rule="evenodd" d="M9.85909 4.75C7.9957 4.75 6.48438 6.2611 6.48438 8.12567C6.48438 9.99024 7.9957 11.5013 9.85909 11.5013C11.7235 11.5013 13.2348 9.99013 13.2348 8.12567C13.2348 6.26122 11.7235 4.75 9.85909 4.75ZM4.98438 8.12567C4.98438 5.4329 7.16705 3.25 9.85909 3.25C12.552 3.25 14.7348 5.43279 14.7348 8.12567C14.7348 10.8186 12.552 13.0013 9.85909 13.0013C7.16705 13.0013 4.98438 10.8184 4.98438 8.12567Z" fill="#000000" />
</svg>