<svg width="24px"  height="24px"  viewBox="0 0 25 24" fill="none" xmlns="http://www.w3.org/2000/svg">
<path fill-rule="evenodd" clip-rule="evenodd" d="M10.7456 4.21875C8.56372 4.21875 6.79492 5.98755 6.79492 8.16946C6.79492 10.3514 8.56372 12.1202 10.7456 12.1202C12.9276 12.1202 14.6964 10.3514 14.6964 8.16946C14.6964 5.98755 12.9276 4.21875 10.7456 4.21875ZM5.29492 8.16946C5.29492 5.15912 7.73529 2.71875 10.7456 2.71875C13.756 2.71875 16.1964 5.15912 16.1964 8.16946C16.1964 11.1798 13.756 13.6202 10.7456 13.6202C7.73529 13.6202 5.29492 11.1798 5.29492 8.16946Z" fill="#000000" />
<path fill-rule="evenodd" clip-rule="evenodd" d="M3.51545 17.5472C3.51545 14.7036 5.82064 12.3984 8.66423 12.3984H12.9476C14.3311 12.3984 15.5886 12.9451 16.513 13.8327C16.8118 14.1196 16.8215 14.5944 16.5346 14.8932C16.2478 15.192 15.773 15.2016 15.4742 14.9148C14.8178 14.2846 13.9286 13.8984 12.9476 13.8984H8.66423C6.64906 13.8984 5.01545 15.5321 5.01545 17.5472C5.01545 17.7222 5.01293 17.8871 5.01053 18.0444C5.00311 18.5308 4.99679 18.9448 5.06945 19.3631C5.14033 19.7712 4.86696 20.1595 4.45886 20.2304C4.05075 20.3013 3.66246 20.0279 3.59157 19.6198C3.49227 19.0481 3.50243 18.4425 3.51102 17.9308C3.51329 17.7956 3.51545 17.667 3.51545 17.5472Z" fill="#000000" />
<path fill-rule="evenodd" clip-rule="evenodd" d="M21.2955 18.0359C21.2955 18.4501 20.9597 18.7859 20.5455 18.7859L15.5482 18.7859C15.134 18.7859 14.7982 18.4501 14.7982 18.0359C14.7982 17.6217 15.134 17.2859 15.5482 17.2859L20.5455 17.2859C20.9597 17.2859 21.2955 17.6217 21.2955 18.0359Z" fill="#000000" />
</svg>