<svg width="24px"  height="24px"  viewBox="0 0 25 24" fill="none" xmlns="http://www.w3.org/2000/svg">
<path fill-rule="evenodd" clip-rule="evenodd" d="M7.20304 14.6744C8.46556 14.251 10.131 14.125 11.8345 14.125C12.2488 14.125 12.5845 14.4608 12.5845 14.875C12.5845 15.2892 12.2488 15.625 11.8345 15.625C10.1627 15.625 8.70086 15.7542 7.68001 16.0965C7.1734 16.2664 6.83149 16.4709 6.62294 16.6875C6.43216 16.8856 6.33008 17.1151 6.33008 17.428C6.33008 17.7423 6.43225 17.9739 6.62297 18.1738C6.83098 18.3918 7.17175 18.5978 7.67677 18.7695C8.69468 19.1156 10.1557 19.2491 11.8345 19.2491C12.2488 19.2491 12.5845 19.5849 12.5845 19.9991C12.5845 20.4133 12.2488 20.7491 11.8345 20.7491C10.1215 20.7491 8.45531 20.6185 7.19395 20.1897C6.55934 19.9739 5.97247 19.6649 5.53774 19.2093C5.08573 18.7355 4.83008 18.135 4.83008 17.428C4.83008 16.7195 5.08788 16.1192 5.5424 15.6471C5.97914 15.1935 6.56796 14.8874 7.20304 14.6744Z" fill="#000000" />
<path fill-rule="evenodd" clip-rule="evenodd" d="M11.8365 4.75C10.0447 4.75 8.5918 6.20334 8.5918 7.99553C8.5918 9.78771 10.0447 11.2411 11.8365 11.2411C13.6292 11.2411 15.082 9.78761 15.082 7.99553C15.082 6.20345 13.6292 4.75 11.8365 4.75ZM7.0918 7.99553C7.0918 5.37534 9.21585 3.25 11.8365 3.25C14.4578 3.25 16.582 5.37523 16.582 7.99553C16.582 10.6158 14.4578 12.7411 11.8365 12.7411C9.21585 12.7411 7.0918 10.6157 7.0918 7.99553Z" fill="#000000" />
<path fill-rule="evenodd" clip-rule="evenodd" d="M14.5176 17.0664C14.5176 16.6522 14.8534 16.3164 15.2676 16.3164H19.2216C19.6358 16.3164 19.9716 16.6522 19.9716 17.0664C19.9716 17.4806 19.6358 17.8164 19.2216 17.8164H15.2676C14.8534 17.8164 14.5176 17.4806 14.5176 17.0664Z" fill="#000000" />
</svg>