<svg width="24px"  height="24px"  viewBox="0 0 25 24" fill="none" xmlns="http://www.w3.org/2000/svg">
<path fill-rule="evenodd" clip-rule="evenodd" d="M12.3321 3.81641C7.81319 3.81641 4.15039 7.48006 4.15039 11.9982C4.15039 16.5172 7.81314 20.1799 12.3321 20.1799C16.8512 20.1799 20.5139 16.5172 20.5139 11.9982C20.5139 11.7468 20.5024 11.4969 20.4802 11.2504C20.4431 10.8378 20.7475 10.4733 21.16 10.4362C21.5726 10.3991 21.9371 10.7035 21.9742 11.116C22.0003 11.4064 22.0139 11.7011 22.0139 11.9982C22.0139 17.3456 17.6796 21.6799 12.3321 21.6799C6.98471 21.6799 2.65039 17.3456 2.65039 11.9982C2.65039 6.65174 6.98465 2.31641 12.3321 2.31641C12.7408 2.31641 13.1435 2.3426 13.538 2.39166C13.9491 2.44277 14.2409 2.81742 14.1897 3.22847C14.1386 3.63952 13.764 3.93131 13.3529 3.8802C13.0175 3.83849 12.6767 3.81641 12.3321 3.81641Z" fill="#000000" />
<path fill-rule="evenodd" clip-rule="evenodd" d="M9.536 18.4287C9.00079 18.8474 8.74899 19.382 8.68536 19.8766C8.63251 20.2874 8.25662 20.5776 7.8458 20.5248C7.43497 20.4719 7.14477 20.0961 7.19762 19.6852C7.30876 18.8213 7.74881 17.9224 8.61178 17.2473C9.47296 16.5736 10.7006 16.1641 12.3253 16.1641C13.9653 16.1641 15.2004 16.5753 16.064 17.2551C16.9301 17.9369 17.3642 18.8445 17.47 19.7156C17.52 20.1268 17.2272 20.5006 16.816 20.5505C16.4048 20.6005 16.0309 20.3077 15.981 19.8965C15.9198 19.3925 15.6702 18.8541 15.1362 18.4337C14.5997 18.0113 13.7182 17.6641 12.3253 17.6641C10.9499 17.6641 10.073 18.0087 9.536 18.4287Z" fill="#000000" />
<path fill-rule="evenodd" clip-rule="evenodd" d="M12.3315 10.1719C11.3413 10.1719 10.5391 10.9739 10.5391 11.9633C10.5391 12.9531 11.3417 13.7557 12.3315 13.7557C13.3212 13.7557 14.1239 12.9531 14.1239 11.9633C14.1239 10.9739 13.3216 10.1719 12.3315 10.1719ZM9.03906 11.9633C9.03906 10.1448 10.5137 8.67188 12.3315 8.67188C14.1493 8.67188 15.6239 10.1448 15.6239 11.9633C15.6239 13.7815 14.1497 15.2557 12.3315 15.2557C10.5133 15.2557 9.03906 13.7815 9.03906 11.9633Z" fill="#000000" />
<path fill-rule="evenodd" clip-rule="evenodd" d="M22.1509 6.25861C22.1548 6.6728 21.8222 7.01172 21.408 7.01559L17.0734 7.05615C16.6592 7.06002 16.3203 6.72739 16.3164 6.3132C16.3126 5.899 16.6452 5.56009 17.0594 5.55621L21.3939 5.51566C21.8081 5.51178 22.1471 5.84441 22.1509 6.25861Z" fill="#000000" />
</svg>