<svg width="24px"  height="24px"  viewBox="0 0 25 24" fill="none" xmlns="http://www.w3.org/2000/svg">
<path fill-rule="evenodd" clip-rule="evenodd" d="M9.86771 4.75C8.07595 4.75 6.62305 6.20334 6.62305 7.99553C6.62305 9.78771 8.07595 11.2411 9.86771 11.2411C11.6604 11.2411 13.1132 9.78761 13.1132 7.99553C13.1132 6.20345 11.6604 4.75 9.86771 4.75ZM5.12305 7.99553C5.12305 5.37534 7.2471 3.25 9.86771 3.25C12.4891 3.25 14.6132 5.37523 14.6132 7.99553C14.6132 10.6158 12.4891 12.7411 9.86771 12.7411C7.2471 12.7411 5.12305 10.6157 5.12305 7.99553Z" fill="#000000" />
<path fill-rule="evenodd" clip-rule="evenodd" d="M16.4785 11.8125C16.4785 11.3983 16.8143 11.0625 17.2285 11.0625H21.1877C21.6019 11.0625 21.9377 11.3983 21.9377 11.8125C21.9377 12.2267 21.6019 12.5625 21.1877 12.5625H17.2285C16.8143 12.5625 16.4785 12.2267 16.4785 11.8125Z" fill="#000000" />
<path fill-rule="evenodd" clip-rule="evenodd" d="M5.23624 14.6744C6.49877 14.251 8.16417 14.125 9.86775 14.125C11.5812 14.125 13.2474 14.2556 14.5087 14.6845C15.1433 14.9002 15.7301 15.2093 16.1647 15.6649C16.6167 16.1387 16.8722 16.7392 16.8722 17.4461C16.8722 18.1546 16.6141 18.7547 16.1595 19.2265C15.7227 19.6798 15.1338 19.986 14.4987 20.1991C13.236 20.6227 11.5707 20.7491 9.86775 20.7491C8.1547 20.7491 6.48851 20.6185 5.22715 20.1897C4.59254 19.9739 4.00567 19.6649 3.57094 19.2093C3.11893 18.7355 2.86328 18.135 2.86328 17.428C2.86328 16.7195 3.12108 16.1192 3.5756 15.6471C4.01235 15.1935 4.60116 14.8874 5.23624 14.6744ZM4.65614 16.6875C4.46536 16.8856 4.36328 17.1151 4.36328 17.428C4.36328 17.7423 4.46546 17.9739 4.65618 18.1738C4.86418 18.3918 5.20496 18.5978 5.70997 18.7695C6.72789 19.1156 8.18894 19.2491 9.86775 19.2491C11.5385 19.2491 13.0004 19.1196 14.0216 18.777C14.5284 18.6069 14.8705 18.4024 15.0793 18.1857C15.2703 17.9875 15.3722 17.7582 15.3722 17.4461C15.3722 17.1318 15.2701 16.9002 15.0794 16.7003C14.8715 16.4824 14.5308 16.2763 14.0258 16.1046C13.0081 15.7586 11.547 15.625 9.86775 15.625C8.1959 15.625 6.73406 15.7542 5.71321 16.0965C5.2066 16.2664 4.8647 16.4709 4.65614 16.6875Z" fill="#000000" />
</svg>