<svg width="24px"  height="24px"  viewBox="0 0 25 24" fill="none" xmlns="http://www.w3.org/2000/svg">
<path fill-rule="evenodd" clip-rule="evenodd" d="M17.8755 15.8954C17.2439 15.264 16.2192 15.264 15.5877 15.8956C14.955 16.5283 14.9554 17.5529 15.5874 18.1844L15.5877 18.1846C16.2193 18.8163 17.2441 18.8163 17.8758 18.1846C18.5072 17.5532 18.5077 16.5283 17.8758 15.8956C17.8757 15.8955 17.8756 15.8954 17.8755 15.8954ZM14.527 14.835C15.7445 13.6175 17.719 13.6175 18.9365 14.835L18.9367 14.8352C19.971 15.8704 20.1265 17.4519 19.4025 18.6508L20.2194 19.468C20.5123 19.7609 20.5122 20.2358 20.2193 20.5287C19.9263 20.8215 19.4514 20.8214 19.1586 20.5285L18.3418 19.7114C17.1431 20.4352 15.5619 20.2799 14.5273 19.2455M14.527 14.835C13.3089 16.053 13.3085 18.0276 14.527 19.2453V14.835Z" fill="#000000" />
<path fill-rule="evenodd" clip-rule="evenodd" d="M11.3443 4.75C9.55999 4.75 8.11328 6.19671 8.11328 7.981C8.11328 9.76529 9.55999 11.212 11.3443 11.212C13.1286 11.212 14.5753 9.76529 14.5753 7.981C14.5753 6.19671 13.1286 4.75 11.3443 4.75ZM6.61328 7.981C6.61328 5.36829 8.73157 3.25 11.3443 3.25C13.957 3.25 16.0753 5.36829 16.0753 7.981C16.0753 10.5937 13.957 12.712 11.3443 12.712C8.73157 12.712 6.61328 10.5937 6.61328 7.981Z" fill="#000000" />
<path fill-rule="evenodd" clip-rule="evenodd" d="M6.72929 14.6335C7.98766 14.2115 9.64751 14.0859 11.3455 14.0859C11.7598 14.0859 12.0955 14.4217 12.0955 14.8359C12.0955 15.2502 11.7598 15.5859 11.3455 15.5859C9.67923 15.5859 8.22295 15.7147 7.20627 16.0557C6.70175 16.2249 6.36158 16.4284 6.15424 16.6437C5.96468 16.8406 5.86328 17.0686 5.86328 17.3795C5.86328 17.6922 5.96485 17.9223 6.15439 18.1209C6.36122 18.3377 6.70031 18.5428 7.20329 18.7138C8.21714 19.0583 9.67263 19.1913 11.3455 19.1913C11.7598 19.1913 12.0955 19.5271 12.0955 19.9413C12.0955 20.3555 11.7598 20.6913 11.3455 20.6913C9.63853 20.6913 7.9779 20.5613 6.7206 20.134C6.088 19.919 5.50276 19.6109 5.06915 19.1564C4.61826 18.6839 4.36328 18.0848 4.36328 17.3795C4.36328 16.6729 4.62037 16.0742 5.07368 15.6034C5.50921 15.151 6.09629 14.8458 6.72929 14.6335Z" fill="#000000" />
</svg>