<svg width="24px"  height="24px"  viewBox="0 0 25 24" fill="none" xmlns="http://www.w3.org/2000/svg">
<path fill-rule="evenodd" clip-rule="evenodd" d="M21.3986 14.7812C21.8128 14.7812 22.1486 15.117 22.1486 15.5312V17.1084C22.1486 19.6719 20.0702 21.7501 17.5059 21.7501H16.2168C15.8026 21.7501 15.4668 21.4143 15.4668 21.0001C15.4668 20.5859 15.8026 20.2501 16.2168 20.2501H17.5059C19.242 20.2501 20.6486 18.8432 20.6486 17.1084V15.5312C20.6486 15.117 20.9844 14.7812 21.3986 14.7812Z" fill="#000000" />
<path fill-rule="evenodd" clip-rule="evenodd" d="M3.40039 14.7812C3.8146 14.7812 4.15039 15.117 4.15039 15.5312V17.1084C4.15039 18.8432 5.55699 20.2501 7.29307 20.2501H8.55009C8.9643 20.2501 9.30009 20.5859 9.30009 21.0001C9.30009 21.4143 8.9643 21.7501 8.55009 21.7501H7.29307C4.72881 21.7501 2.65039 19.6719 2.65039 17.1084V15.5312C2.65039 15.117 2.98618 14.7812 3.40039 14.7812Z" fill="#000000" />
<path fill-rule="evenodd" clip-rule="evenodd" d="M7.29307 3.75C5.55712 3.75 4.15039 5.15672 4.15039 6.89268V8.46979C4.15039 8.88401 3.8146 9.21979 3.40039 9.21979C2.98618 9.21979 2.65039 8.88401 2.65039 8.46979V6.89268C2.65039 4.3283 4.72869 2.25 7.29307 2.25H8.5822C8.99641 2.25 9.3322 2.58579 9.3322 3C9.3322 3.41421 8.99641 3.75 8.5822 3.75H7.29307Z" fill="#000000" />
<path fill-rule="evenodd" clip-rule="evenodd" d="M12.3993 7.57031C11.4962 7.57031 10.7637 8.3028 10.7637 9.20593C10.7637 10.1091 11.4962 10.8415 12.3993 10.8415C13.3024 10.8415 14.0349 10.1091 14.0349 9.20593C14.0349 8.3028 13.3024 7.57031 12.3993 7.57031ZM9.26367 9.20593C9.26367 7.47437 10.6677 6.07031 12.3993 6.07031C14.1308 6.07031 15.5349 7.47437 15.5349 9.20593C15.5349 10.9375 14.1308 12.3415 12.3993 12.3415C10.6677 12.3415 9.26367 10.9375 9.26367 9.20593Z" fill="#000000" />
<path fill-rule="evenodd" clip-rule="evenodd" d="M9.53717 13.5312C10.3398 13.262 11.3753 13.1875 12.3991 13.1875C13.4292 13.1875 14.4655 13.2651 15.2677 13.5379C15.6728 13.6757 16.0728 13.881 16.378 14.2008C16.7005 14.5387 16.8842 14.9715 16.8842 15.4728C16.8842 15.9757 16.6988 16.4089 16.3741 16.746C16.0673 17.0646 15.6658 17.2678 15.2607 17.4037C14.458 17.6728 13.4225 17.7474 12.3991 17.7474C11.3692 17.7474 10.3329 17.67 9.53063 17.3973C9.12554 17.2597 8.72549 17.0544 8.4202 16.7344C8.09762 16.3964 7.91406 15.9634 7.91406 15.4621C7.91406 14.9593 8.09934 14.5261 8.42389 14.189C8.73066 13.8703 9.13203 13.6671 9.53717 13.5312ZM9.50447 15.2293C9.44368 15.2925 9.41406 15.3549 9.41406 15.4621C9.41406 15.5708 9.44419 15.6347 9.50542 15.6989C9.58395 15.7812 9.73786 15.8835 10.0133 15.9771C10.5722 16.1671 11.4034 16.2474 12.3991 16.2474C13.3907 16.2474 14.2227 16.1696 14.7838 15.9815C15.0606 15.8887 15.2151 15.7871 15.2937 15.7054C15.3546 15.6422 15.3842 15.5799 15.3842 15.4728C15.3842 15.3645 15.3542 15.3006 15.2929 15.2364C15.2143 15.1541 15.0603 15.0517 14.7848 14.9581C14.2259 14.768 13.3947 14.6875 12.3991 14.6875C11.407 14.6875 10.575 14.7652 10.0141 14.9533C9.73745 15.0461 9.58303 15.1477 9.50447 15.2293Z" fill="#000000" />
<path fill-rule="evenodd" clip-rule="evenodd" d="M15.5 3C15.5 2.58579 15.8358 2.25 16.25 2.25H17.507C20.0714 2.25 22.1497 4.3283 22.1497 6.89268V8.46979C22.1497 8.88401 21.8139 9.21979 21.3997 9.21979C20.9855 9.21979 20.6497 8.88401 20.6497 8.46979V6.89268C20.6497 5.15673 19.243 3.75 17.507 3.75H16.25C15.8358 3.75 15.5 3.41421 15.5 3Z" fill="#000000" />
</svg>