<svg width="24px"  height="24px"  viewBox="0 0 25 24" fill="none" xmlns="http://www.w3.org/2000/svg">
<path fill-rule="evenodd" clip-rule="evenodd" d="M18.5016 9.16816C19.8761 9.15138 21.0048 10.2525 21.0216 11.6271L21.0217 11.6363L21.0216 12.1915C21.7142 12.5612 22.1858 13.291 22.1858 14.1305V15.7666C22.1858 16.9806 21.2016 17.963 19.9894 17.963H17.0753C15.8617 17.963 14.8789 16.9802 14.8789 15.7666V14.1305C14.8789 13.2912 15.3499 12.5612 16.0426 12.1915V11.6161C16.0655 10.2688 17.1551 9.18646 18.5006 9.16817L18.5016 9.16816ZM16.9121 13.4533C16.9304 13.4504 16.9484 13.4468 16.9662 13.4426C17.0018 13.437 17.0382 13.4341 17.0753 13.4341H19.9894C20.0262 13.4341 20.0623 13.437 20.0976 13.4425C20.1156 13.4468 20.134 13.4504 20.1525 13.4534C20.4581 13.527 20.6858 13.8026 20.6858 14.1305V15.7666C20.6858 16.1514 20.3739 16.463 19.9894 16.463H17.0753C16.6901 16.463 16.3789 16.1518 16.3789 15.7666V14.1305C16.3789 13.8022 16.6061 13.5268 16.9121 13.4533ZM19.5216 11.9341H17.5426V11.6361C17.5546 11.1038 17.9857 10.6756 18.5205 10.668C19.0652 10.6617 19.5128 11.0974 19.5216 11.6415V11.9341Z" fill="#000000" />
<path fill-rule="evenodd" clip-rule="evenodd" d="M10.4961 13.4297L10.4961 13.4298C10.9768 13.4344 11.4419 13.4497 11.889 13.4772C12.3025 13.5026 12.617 13.8584 12.5916 14.2718C12.5661 14.6853 12.2104 14.9998 11.7969 14.9744C11.3809 14.9488 10.9441 14.9342 10.4881 14.9298C8.40677 14.9451 6.78132 15.1761 5.70046 15.6606C5.1696 15.8986 4.80534 16.1824 4.57348 16.4986C4.35044 16.8028 4.21803 17.1798 4.2149 17.6739C4.24066 18.1419 4.4056 18.4929 4.643 18.725C4.88011 18.9569 5.24716 19.1268 5.7828 19.1268H15.1951C15.6093 19.1268 15.9451 19.4626 15.9451 19.8768C15.9451 20.291 15.6093 20.6268 15.1951 20.6268H5.7828C4.91111 20.6268 4.14929 20.3402 3.5943 19.7975C3.04256 19.258 2.75332 18.5224 2.71568 17.7273L2.71484 17.7096V17.6918C2.71484 16.9003 2.93221 16.2003 3.36381 15.6116C3.78928 15.0313 4.38943 14.6045 5.08685 14.2919C6.46147 13.6756 8.34592 13.445 10.4836 13.4298L10.4961 13.4297Z" fill="#000000" />
<path fill-rule="evenodd" clip-rule="evenodd" d="M10.495 4.875C8.94878 4.875 7.69531 6.12846 7.69531 7.67469C7.69531 9.22091 8.94878 10.4744 10.495 10.4744C12.0412 10.4744 13.2947 9.22092 13.2947 7.67469C13.2947 6.12846 12.0412 4.875 10.495 4.875ZM6.19531 7.67469C6.19531 5.30004 8.12035 3.375 10.495 3.375C12.8697 3.375 14.7947 5.30004 14.7947 7.67469C14.7947 10.0493 12.8697 11.9744 10.495 11.9744C8.12035 11.9744 6.19531 10.0493 6.19531 7.67469Z" fill="#000000" />
</svg>