<svg width="24px"  height="24px"  viewBox="0 0 25 24" fill="none" xmlns="http://www.w3.org/2000/svg">
<path fill-rule="evenodd" clip-rule="evenodd" d="M15.8801 11.723C16.0128 11.4864 16.263 11.3398 16.5343 11.3398H20.6947C20.966 11.3398 21.2162 11.4864 21.3489 11.723L22.389 13.5778C22.5462 13.8581 22.5073 14.2074 22.2923 14.4463L19.172 17.9137C19.0297 18.0717 18.8271 18.162 18.6145 18.162C18.4019 18.162 18.1992 18.0717 18.057 17.9137L14.9367 14.4463C14.7217 14.2074 14.6828 13.8581 14.84 13.5778L15.8801 11.723ZM16.9736 12.8398L16.4113 13.8425L18.6145 16.2908L20.8177 13.8425L20.2554 12.8398H16.9736Z" fill="#000000" />
<path fill-rule="evenodd" clip-rule="evenodd" d="M10.7148 13.4297L10.7148 13.4298C11.1955 13.4344 11.6606 13.4497 12.1078 13.4772C12.5212 13.5026 12.8357 13.8584 12.8103 14.2718C12.7849 14.6853 12.4291 14.9998 12.0157 14.9744C11.5996 14.9488 11.1628 14.9342 10.7068 14.9298C8.62552 14.9451 7.00007 15.1761 5.91921 15.6606C5.38835 15.8986 5.02409 16.1824 4.79223 16.4986C4.56919 16.8028 4.43678 17.1798 4.43365 17.6739C4.45941 18.1419 4.62435 18.4929 4.86175 18.725C5.09886 18.9569 5.46591 19.1268 6.00155 19.1268H15.4139C15.8281 19.1268 16.1639 19.4626 16.1639 19.8768C16.1639 20.291 15.8281 20.6268 15.4139 20.6268H6.00155C5.12986 20.6268 4.36804 20.3402 3.81305 19.7975C3.26131 19.258 2.97207 18.5224 2.93443 17.7273L2.93359 17.7096V17.6918C2.93359 16.9003 3.15096 16.2003 3.58256 15.6116C4.00803 15.0313 4.60818 14.6045 5.3056 14.2919C6.68022 13.6756 8.56467 13.445 10.7024 13.4298L10.7148 13.4297Z" fill="#000000" />
<path fill-rule="evenodd" clip-rule="evenodd" d="M10.7138 4.875C9.16753 4.875 7.91406 6.12846 7.91406 7.67469C7.91406 9.22091 9.16753 10.4744 10.7138 10.4744C12.26 10.4744 13.5134 9.22092 13.5134 7.67469C13.5134 6.12846 12.26 4.875 10.7138 4.875ZM6.41406 7.67469C6.41406 5.30004 8.3391 3.375 10.7138 3.375C13.0884 3.375 15.0134 5.30004 15.0134 7.67469C15.0134 10.0493 13.0884 11.9744 10.7138 11.9744C8.3391 11.9744 6.41406 10.0493 6.41406 7.67469Z" fill="#000000" />
</svg>