<svg width="24px"  height="24px"  viewBox="0 0 25 24" fill="none" xmlns="http://www.w3.org/2000/svg">
<path fill-rule="evenodd" clip-rule="evenodd" d="M10.3189 4.75C8.52712 4.75 7.07422 6.20334 7.07422 7.99553C7.07422 9.78771 8.52712 11.2411 10.3189 11.2411C12.1116 11.2411 13.5644 9.78761 13.5644 7.99553C13.5644 6.20345 12.1116 4.75 10.3189 4.75ZM5.57422 7.99553C5.57422 5.37534 7.69827 3.25 10.3189 3.25C12.9403 3.25 15.0644 5.37523 15.0644 7.99553C15.0644 10.6158 12.9403 12.7411 10.3189 12.7411C7.69827 12.7411 5.57422 10.6157 5.57422 7.99553Z" fill="#000000" />
<path fill-rule="evenodd" clip-rule="evenodd" d="M5.68546 14.6744C6.94799 14.251 8.61339 14.125 10.317 14.125C12.0304 14.125 13.6966 14.2556 14.9579 14.6845C15.5925 14.9002 16.1793 15.2093 16.614 15.6649C17.0659 16.1387 17.3214 16.7392 17.3214 17.4461C17.3214 18.1546 17.0633 18.7547 16.6087 19.2265C16.1719 19.6798 15.583 19.986 14.9479 20.1991C13.6852 20.6227 12.0199 20.7491 10.317 20.7491C8.60391 20.7491 6.93773 20.6185 5.67637 20.1897C5.04176 19.9739 4.45489 19.6649 4.02016 19.2093C3.56815 18.7355 3.3125 18.135 3.3125 17.428C3.3125 16.7195 3.5703 16.1192 4.02482 15.6471C4.46157 15.1935 5.05038 14.8874 5.68546 14.6744ZM5.10536 16.6875C4.91458 16.8856 4.8125 17.1151 4.8125 17.428C4.8125 17.7423 4.91468 17.9739 5.10539 18.1738C5.3134 18.3918 5.65417 18.5978 6.15919 18.7695C7.1771 19.1156 8.63815 19.2491 10.317 19.2491C11.9878 19.2491 13.4497 19.1196 14.4708 18.777C14.9776 18.6069 15.3198 18.4024 15.5285 18.1857C15.7195 17.9875 15.8214 17.7582 15.8214 17.4461C15.8214 17.1318 15.7193 16.9002 15.5286 16.7003C15.3207 16.4824 14.98 16.2763 14.4751 16.1046C13.4573 15.7586 11.9962 15.625 10.317 15.625C8.64511 15.625 7.18328 15.7542 6.16243 16.0965C5.65582 16.2664 5.31391 16.4709 5.10536 16.6875Z" fill="#000000" />
<path fill-rule="evenodd" clip-rule="evenodd" d="M17.0205 8.65319C17.3135 8.36034 17.7883 8.3604 18.0812 8.65334L19.1436 9.71601L20.1755 8.68409C20.4684 8.3912 20.9433 8.3912 21.2362 8.68409C21.529 8.97698 21.529 9.45186 21.2362 9.74475L20.2041 10.7768L21.2681 11.8411C21.5609 12.134 21.5609 12.6089 21.2679 12.9018C20.975 13.1946 20.5001 13.1946 20.2073 12.9016L19.1434 11.8375L18.1115 12.8694C17.8186 13.1623 17.3437 13.1623 17.0509 12.8694C16.758 12.5765 16.758 12.1016 17.0509 11.8087L18.0829 10.7767L17.0204 9.71385C16.7275 9.42092 16.7276 8.94605 17.0205 8.65319Z" fill="#000000" />
</svg>