<svg width="24px"  height="24px"  viewBox="0 0 25 24" fill="none" xmlns="http://www.w3.org/2000/svg">
<path fill-rule="evenodd" clip-rule="evenodd" d="M12.0519 4.09766C7.6883 4.09766 4.15039 7.63471 4.15039 11.9991C4.15039 16.3627 7.68836 19.9006 12.0519 19.9006C16.1518 19.9006 19.5241 16.776 19.9151 12.7785C19.9554 12.3663 20.3223 12.0648 20.7345 12.1051C21.1468 12.1454 21.4483 12.5123 21.408 12.9245C20.9426 17.6827 16.9313 21.4006 12.0519 21.4006C6.85993 21.4006 2.65039 17.1911 2.65039 11.9991C2.65039 6.80617 6.85999 2.59766 12.0519 2.59766C12.4474 2.59766 12.8383 2.62192 13.2223 2.66952C13.6334 2.72048 13.9253 3.09503 13.8743 3.50609C13.8234 3.91716 13.4488 4.20909 13.0378 4.15813C12.7153 4.11816 12.3861 4.09766 12.0519 4.09766Z" fill="#000000" />
<path fill-rule="evenodd" clip-rule="evenodd" d="M9.35583 18.2437C8.84264 18.6453 8.60173 19.1574 8.54082 19.6307C8.48795 20.0415 8.11205 20.3317 7.70122 20.2788C7.2904 20.2259 7.00022 19.85 7.05309 19.4392C7.1615 18.5969 7.59054 17.7204 8.43137 17.0624C9.27046 16.4057 10.4649 16.0078 12.0424 16.0078C13.6353 16.0078 14.8373 16.4071 15.6788 17.0697C16.5229 17.7344 16.946 18.6195 17.049 19.469C17.0988 19.8802 16.8059 20.2539 16.3947 20.3038C15.9835 20.3537 15.6097 20.0607 15.5599 19.6495C15.5014 19.1669 15.2627 18.6513 14.7509 18.2482C14.2365 17.8432 13.3882 17.5078 12.0424 17.5078C10.7144 17.5078 9.87075 17.8407 9.35583 18.2437Z" fill="#000000" />
<path fill-rule="evenodd" clip-rule="evenodd" d="M12.0497 10.2539C11.1046 10.2539 10.3379 11.0206 10.3379 11.9657C10.3379 12.9113 11.105 13.6786 12.0497 13.6786C12.9957 13.6786 13.7626 12.9111 13.7626 11.9657C13.7626 11.0208 12.9961 10.2539 12.0497 10.2539ZM8.83789 11.9657C8.83789 10.1922 10.2762 8.75391 12.0497 8.75391C13.8241 8.75391 15.2626 10.192 15.2626 11.9657C15.2626 13.7391 13.8245 15.1786 12.0497 15.1786C10.2758 15.1786 8.83789 13.7389 8.83789 11.9657Z" fill="#000000" />
<path fill-rule="evenodd" clip-rule="evenodd" d="M19.6425 5.36993C19.0509 4.77773 18.091 4.77773 17.4994 5.36993L17.4988 5.37052C16.9068 5.96191 16.9064 6.9211 17.4991 7.51385C18.0908 8.10547 19.0511 8.10547 19.6428 7.51385C20.2346 6.92101 20.2341 5.96159 19.6428 5.37023L19.6425 5.36993ZM20.7037 4.30986C19.5263 3.13119 17.616 3.13109 16.4385 4.30957C15.2598 5.48722 15.2604 7.39639 16.4385 8.57452C17.4328 9.56882 18.9496 9.72345 20.1065 9.0384L20.8698 9.80202C21.1626 10.095 21.6375 10.0951 21.9305 9.80223C22.2234 9.50939 22.2235 9.03452 21.9307 8.74157L21.167 7.97766C21.8522 6.82067 21.6981 5.30448 20.7037 4.30986Z" fill="#000000" />
</svg>