<svg width="24px"  height="24px"  viewBox="0 0 25 24" fill="none" xmlns="http://www.w3.org/2000/svg">
<path fill-rule="evenodd" clip-rule="evenodd" d="M12.4004 3.75C7.84374 3.75 4.15039 7.44421 4.15039 12C4.15039 16.5567 7.84369 20.25 12.4004 20.25C16.9571 20.25 20.6504 16.5567 20.6504 12C20.6504 11.7465 20.6388 11.4946 20.6164 11.246C20.5793 10.8334 20.8837 10.4689 21.2962 10.4318C21.7088 10.3947 22.0733 10.6991 22.1104 11.1116C22.1367 11.404 22.1504 11.7008 22.1504 12C22.1504 17.3851 17.7855 21.75 12.4004 21.75C7.01526 21.75 2.65039 17.3851 2.65039 12C2.65039 6.61589 7.01521 2.25 12.4004 2.25C12.8119 2.25 13.2174 2.27638 13.6148 2.32579C14.0258 2.37689 14.3176 2.75155 14.2665 3.1626C14.2154 3.57364 13.8407 3.86543 13.4297 3.81432C13.0915 3.77227 12.7478 3.75 12.4004 3.75Z" fill="#000000" />
<path fill-rule="evenodd" clip-rule="evenodd" d="M12.4017 10.1523C11.4008 10.1523 10.5898 10.9631 10.5898 11.9632C10.5898 12.9637 11.4012 13.775 12.4017 13.775C13.4022 13.775 14.2135 12.9637 14.2135 11.9632C14.2135 10.9631 13.4025 10.1523 12.4017 10.1523ZM9.08984 11.9632C9.08984 10.1339 10.5731 8.65234 12.4017 8.65234C14.2302 8.65234 15.7135 10.1339 15.7135 11.9632C15.7135 13.7921 14.2306 15.275 12.4017 15.275C10.5728 15.275 9.08984 13.7921 9.08984 11.9632Z" fill="#000000" />
<path fill-rule="evenodd" clip-rule="evenodd" d="M9.57786 18.471C9.0373 18.8938 8.78286 19.4338 8.71856 19.9337C8.66571 20.3445 8.28983 20.6347 7.879 20.5818C7.46817 20.529 7.17797 20.1531 7.23082 19.7423C7.34263 18.8731 7.78532 17.9688 8.65363 17.2895C9.52016 16.6116 10.7558 16.1992 12.392 16.1992C14.0436 16.1992 15.2868 16.6133 16.1557 17.2974C17.0272 17.9834 17.4639 18.8965 17.5704 19.7728C17.6203 20.184 17.3275 20.5578 16.9163 20.6078C16.5051 20.6578 16.1313 20.3649 16.0813 19.9537C16.0194 19.4445 15.7673 18.9006 15.2279 18.476C14.686 18.0494 13.7965 17.6992 12.392 17.6992C11.0052 17.6992 10.1202 18.0467 9.57786 18.471Z" fill="#000000" />
<path fill-rule="evenodd" clip-rule="evenodd" d="M16.8642 3.68061C17.1571 3.38771 17.632 3.38771 17.9249 3.68061L19.0373 4.79301L20.1179 3.71204C20.4107 3.41911 20.8856 3.41903 21.1786 3.71188C21.4715 4.00473 21.4716 4.47961 21.1787 4.77254L20.0979 5.85367L21.2096 6.96536C21.5025 7.25826 21.5025 7.73313 21.2096 8.02602C20.9167 8.31892 20.4419 8.31892 20.149 8.02602L19.0374 6.91449L17.9591 7.99308C17.6663 8.28602 17.1914 8.28609 16.8985 7.99324C16.6056 7.70039 16.6055 7.22552 16.8983 6.93258L17.9768 5.85383L16.8642 4.74127C16.5713 4.44837 16.5713 3.9735 16.8642 3.68061Z" fill="#000000" />
</svg>