<svg width="24px"  height="24px"  viewBox="0 0 25 24" fill="none" xmlns="http://www.w3.org/2000/svg">
<path fill-rule="evenodd" clip-rule="evenodd" d="M6.72787 15.0741C7.13143 15.1675 7.3829 15.5703 7.28955 15.9739L6.69895 18.527C6.60561 18.9305 6.20286 19.182 5.79934 19.0887L3.23165 18.4952C2.82808 18.4019 2.57654 17.9991 2.66982 17.5955C2.76311 17.192 3.16589 16.9404 3.56946 17.0337L5.40654 17.4583L5.82814 15.6358C5.92149 15.2323 6.32432 14.9808 6.72787 15.0741Z" fill="#000000" />
<path fill-rule="evenodd" clip-rule="evenodd" d="M18.1022 5.47567C18.1956 5.07216 18.5983 4.82069 19.0019 4.91396L21.5695 5.50748C21.9731 5.60077 22.2247 6.00355 22.1314 6.40712C22.0381 6.81069 21.6353 7.06223 21.2317 6.96895L19.3947 6.54431L18.9731 8.36682C18.8797 8.77038 18.4769 9.02185 18.0733 8.9285C17.6698 8.83514 17.4183 8.43232 17.5116 8.02876L18.1022 5.47567Z" fill="#000000" />
<path fill-rule="evenodd" clip-rule="evenodd" d="M10.5094 14.7468C10.12 15.1 9.96875 15.5431 9.96875 15.926C9.96875 16.3402 9.63296 16.676 9.21875 16.676C8.80454 16.676 8.46875 16.3402 8.46875 15.926C8.46875 15.1519 8.77581 14.2941 9.50163 13.6358C10.2296 12.9754 11.3119 12.5742 12.7633 12.5742C14.2157 12.5742 15.2992 12.9707 16.0287 13.6269C16.7569 14.282 17.0647 15.1375 17.0647 15.9123C17.0647 16.3266 16.7289 16.6623 16.3147 16.6623C15.9005 16.6623 15.5647 16.3266 15.5647 15.9123C15.5647 15.5303 15.4142 15.0917 15.0254 14.742C14.6379 14.3934 13.9457 14.0742 12.7633 14.0742C11.5867 14.0742 10.8967 14.3955 10.5094 14.7468Z" fill="#000000" />
<path fill-rule="evenodd" clip-rule="evenodd" d="M13.8038 4.00617C11.2679 3.55247 8.56341 4.31114 6.61438 6.27532L6.61436 6.27533C3.50091 9.41283 3.4804 14.4545 6.53664 17.6167C6.8245 17.9145 6.81641 18.3893 6.51857 18.6772C6.22073 18.9651 5.74592 18.957 5.45806 18.6591C1.83578 14.9113 1.86003 8.93685 5.54963 5.21875L6.082 5.74704L5.54963 5.21875C7.86029 2.89015 11.0676 1.99283 14.068 2.52962C14.4757 2.60256 14.7471 2.99224 14.6742 3.39998C14.6012 3.80772 14.2115 4.07912 13.8038 4.00617Z" fill="#000000" />
<path fill-rule="evenodd" clip-rule="evenodd" d="M18.2846 5.32009C18.5825 5.03223 19.0573 5.04032 19.3451 5.33816C22.9674 9.08603 22.9432 15.0604 19.2536 18.7785C16.9429 21.1071 13.7356 22.0045 10.7352 21.4677C10.3275 21.3947 10.0561 21.0051 10.129 20.5973C10.202 20.1896 10.5917 19.9182 10.9994 19.9911C13.5353 20.4448 16.2398 19.6861 18.1888 17.722L18.1888 17.722C21.3023 14.5845 21.3228 9.54281 18.2666 6.38059C17.9787 6.08275 17.9868 5.60795 18.2846 5.32009Z" fill="#000000" />
<path fill-rule="evenodd" clip-rule="evenodd" d="M12.7651 7.61328C11.9281 7.61328 11.25 8.29134 11.25 9.12837C11.25 9.96541 11.9281 10.6435 12.7651 10.6435C13.6021 10.6435 14.2802 9.96541 14.2802 9.12837C14.2802 8.29134 13.6021 7.61328 12.7651 7.61328ZM9.75 9.12837C9.75 7.46291 11.0996 6.11328 12.7651 6.11328C14.4306 6.11328 15.7802 7.46291 15.7802 9.12837C15.7802 10.7938 14.4306 12.1435 12.7651 12.1435C11.0996 12.1435 9.75 10.7938 9.75 9.12837Z" fill="#000000" />
</svg>