<svg width="24px"  height="24px"  viewBox="0 0 25 25" fill="none" xmlns="http://www.w3.org/2000/svg">
<path d="M10.9383 14.4254C9.86019 14.4256 8.80619 14.1061 7.90965 13.5073C7.01311 12.9084 6.31426 12.0572 5.90153 11.0612C5.48881 10.0651 5.38074 8.96909 5.59095 7.91163C5.80117 6.85417 6.32024 5.88281 7.08253 5.12037C7.84483 4.35793 8.8161 3.83865 9.87352 3.62824C10.9309 3.41783 12.027 3.52576 13.0231 3.9383C14.0192 4.35085 14.8706 5.0495 15.4696 5.94593C16.0686 6.84237 16.3883 7.89629 16.3883 8.97444C16.3865 10.4194 15.8117 11.8047 14.7901 12.8265C13.7684 13.8483 12.3833 14.4233 10.9383 14.4254ZM10.9383 5.02546C10.1569 5.02526 9.39286 5.25678 8.74299 5.6908C8.09312 6.12483 7.58656 6.74182 7.28737 7.46375C6.98817 8.18569 6.90978 8.98017 7.06212 9.74665C7.21445 10.5131 7.59068 11.2172 8.1432 11.7698C8.69572 12.3225 9.3997 12.6989 10.1661 12.8514C10.9326 13.004 11.7271 12.9258 12.4491 12.6268C13.1711 12.3278 13.7882 11.8213 14.2224 11.1716C14.6566 10.5218 14.8883 9.75793 14.8883 8.97645C14.8875 7.92881 14.4712 6.92425 13.7307 6.18318C12.9902 5.4421 11.986 5.02503 10.9383 5.02345V5.02546Z" fill="#000000" />
<path d="M4.52682 21.054C4.35047 21.0536 4.17988 20.9911 4.04494 20.8776C3.91001 20.764 3.81933 20.6066 3.78881 20.4329C3.70961 19.8881 3.68284 19.3369 3.70882 18.7869V18.3599C3.71041 16.9948 4.2534 15.6861 5.21868 14.7208C6.18396 13.7555 7.4927 13.2125 8.85781 13.2109H13.1408C13.5151 13.2113 13.8882 13.2518 14.2538 13.3319C14.4481 13.3747 14.6174 13.493 14.7245 13.6607C14.8316 13.8284 14.8677 14.0317 14.8248 14.226C14.782 14.4202 14.6637 14.5895 14.4961 14.6966C14.3284 14.8037 14.1251 14.8398 13.9308 14.7969C13.6713 14.7399 13.4065 14.711 13.1408 14.7109H8.85781C7.89036 14.712 6.96286 15.0968 6.27877 15.7809C5.59468 16.465 5.20988 17.3925 5.20882 18.3599L5.20382 18.8109C5.1812 19.2664 5.20095 19.7231 5.26281 20.1749C5.27976 20.272 5.27742 20.3716 5.25588 20.4678C5.23434 20.564 5.19404 20.655 5.13729 20.7356C5.08054 20.8162 5.00846 20.8849 4.92516 20.9376C4.84186 20.9904 4.74896 21.0262 4.65182 21.043C4.6105 21.0499 4.5687 21.0535 4.52682 21.054Z" fill="#000000" />
<path d="M17.3938 22.1639C17.2686 22.1643 17.1454 22.1326 17.0358 22.0719C16.7748 21.9309 14.4698 20.6309 13.8618 18.7429C13.7357 18.406 13.6777 18.0473 13.6914 17.6878C13.7051 17.3282 13.7901 16.9749 13.9414 16.6485C14.0928 16.3221 14.3076 16.0291 14.5732 15.7864C14.8389 15.5437 15.1501 15.3563 15.4888 15.2349C16.1175 15.0317 16.8001 15.0764 17.3968 15.3599C17.9919 15.081 18.6701 15.036 19.2969 15.2339C19.6361 15.3548 19.9478 15.5421 20.214 15.7846C20.4802 16.0272 20.6955 16.3203 20.8474 16.6468C20.9992 16.9733 21.0847 17.3268 21.0986 17.6867C21.1126 18.0465 21.0549 18.4056 20.9288 18.7429C20.3418 20.6119 18.0199 21.9299 17.7579 22.0729C17.6462 22.1336 17.5209 22.1649 17.3938 22.1639ZM15.2938 18.2819C15.7532 19.2265 16.4845 20.0122 17.3938 20.5379C18.3032 20.0149 19.0347 19.2311 19.4938 18.2879C19.5587 18.138 19.5931 17.9768 19.5951 17.8135C19.597 17.6502 19.5665 17.4881 19.5053 17.3367C19.4441 17.1853 19.3533 17.0476 19.2384 16.9316C19.1235 16.8156 18.9866 16.7236 18.8358 16.6609C18.6685 16.6084 18.4912 16.5965 18.3183 16.626C18.1455 16.6556 17.9822 16.7258 17.8418 16.8309C17.7118 16.9278 17.554 16.9802 17.3919 16.9802C17.2297 16.9802 17.0719 16.9278 16.9418 16.8309C16.8009 16.7247 16.6364 16.6541 16.4623 16.6248C16.2883 16.5956 16.1098 16.6086 15.9418 16.6629C15.7918 16.7256 15.6556 16.8174 15.5412 16.933C15.4268 17.0486 15.3365 17.1857 15.2754 17.3364C15.2143 17.4872 15.1837 17.6485 15.1853 17.8111C15.1869 17.9737 15.2207 18.1344 15.2848 18.2839L15.2938 18.2819Z" fill="#000000" />
</svg>