<svg width="24px"  height="24px"  viewBox="0 0 25 24" fill="none" xmlns="http://www.w3.org/2000/svg">
<path fill-rule="evenodd" clip-rule="evenodd" d="M7.15408 14.5435C8.40341 14.1245 10.0508 14 11.735 14C12.1492 14 12.485 14.3358 12.485 14.75C12.485 15.1642 12.1492 15.5 11.735 15.5C10.0825 15.5 8.6387 15.6277 7.63108 15.9656C7.1311 16.1333 6.79461 16.3348 6.5898 16.5476C6.40277 16.7419 6.30273 16.9667 6.30273 17.2738C6.30273 17.582 6.4028 17.8085 6.58977 18.0044C6.79406 18.2184 7.1295 18.4214 7.628 18.5907C8.63286 18.9321 10.0759 19.064 11.735 19.064C12.1492 19.064 12.485 19.3997 12.485 19.814C12.485 20.2282 12.1492 20.564 11.735 20.564C10.0418 20.564 8.39368 20.4351 7.14549 20.011C6.51746 19.7976 5.93589 19.4917 5.50481 19.0402C5.05641 18.5705 4.80273 17.9749 4.80273 17.2738C4.80273 16.5711 5.05839 15.9755 5.50916 15.5073C5.94216 15.0575 6.52559 14.7543 7.15408 14.5435Z" fill="#000000" />
<path fill-rule="evenodd" clip-rule="evenodd" d="M16.6509 13.7655C16.7283 13.7485 16.8561 13.7227 16.9813 13.7227C17.1064 13.7227 17.2341 13.7485 17.3115 13.7655C17.4066 13.7863 17.5131 13.8143 17.6222 13.8454C17.8414 13.9081 18.0987 13.9916 18.3481 14.0795C18.597 14.1672 18.8489 14.2632 19.0557 14.3519C19.1583 14.3959 19.259 14.442 19.3464 14.4878C19.4063 14.5192 19.5488 14.5942 19.6622 14.7082C19.7837 14.8302 19.8916 14.9868 19.9484 15.2067C19.9917 15.3741 19.9966 15.5513 19.9977 15.6985C19.9986 15.8255 19.9956 15.9883 19.9919 16.1869C19.991 16.237 19.99 16.2893 19.9891 16.3438C19.9843 16.6216 19.9792 16.9778 19.9792 17.441C19.9792 18.7201 19.2034 19.5569 18.5436 20.0321C18.2092 20.273 17.8795 20.441 17.6357 20.5488C17.5128 20.6031 17.4089 20.6433 17.3335 20.6707C17.2957 20.6844 17.2648 20.6949 17.242 20.7025L17.2139 20.7115L17.2047 20.7145L17.2013 20.7155L17.1999 20.7159C17.1996 20.716 17.1987 20.7163 16.9813 19.9985C16.764 20.7163 16.7637 20.7162 16.7634 20.7161L16.7614 20.7155L16.758 20.7145L16.7487 20.7115L16.7206 20.7025C16.6978 20.6949 16.667 20.6844 16.6292 20.6707C16.5537 20.6433 16.4499 20.6031 16.3269 20.5488C16.0832 20.441 15.7535 20.273 15.4191 20.0321C14.7593 19.5569 13.9835 18.7201 13.9835 17.441C13.9835 16.9776 13.9784 16.6212 13.9736 16.3433C13.9726 16.2887 13.9717 16.2364 13.9707 16.1864C13.9671 15.9877 13.9641 15.8248 13.965 15.6978C13.966 15.5508 13.971 15.3734 14.0143 15.206C14.0714 14.9856 14.1797 14.8289 14.3017 14.7069C14.4149 14.5937 14.557 14.5191 14.6168 14.4878C14.704 14.4422 14.8046 14.3962 14.9071 14.3522C15.1138 14.2636 15.3655 14.1677 15.6144 14.0799C15.8638 13.9919 16.1211 13.9083 16.3402 13.8456C16.4493 13.8144 16.5558 13.7864 16.6509 13.7655ZM16.9813 19.9985L16.7634 20.7161C16.9051 20.759 17.057 20.7592 17.1987 20.7163L16.9813 19.9985ZM16.9813 19.1976C16.9967 19.1911 17.0128 19.1841 17.0294 19.1768C17.2071 19.0983 17.4394 18.9788 17.6669 18.815C18.1311 18.4806 18.4792 18.0387 18.4792 17.441C18.4792 16.9662 18.4844 16.6007 18.4893 16.3177C18.4904 16.2563 18.4914 16.1996 18.4924 16.1472C18.4956 15.9735 18.4979 15.8458 18.4978 15.7449C18.4871 15.7402 18.4759 15.7354 18.4643 15.7304C18.2973 15.6587 18.0784 15.5749 17.8494 15.4942C17.621 15.4136 17.3933 15.3401 17.2101 15.2877C17.118 15.2614 17.044 15.2424 16.9904 15.2307C16.9872 15.23 16.9842 15.2293 16.9814 15.2287C16.9786 15.2293 16.9756 15.23 16.9725 15.2307C16.9189 15.2424 16.8449 15.2614 16.7528 15.2878C16.5696 15.3402 16.3419 15.4138 16.1134 15.4944C15.8844 15.5752 15.6654 15.6591 15.4982 15.7308C15.4867 15.7358 15.4756 15.7406 15.4648 15.7453C15.4648 15.846 15.4671 15.9734 15.4703 16.1466C15.4712 16.1991 15.4723 16.2558 15.4733 16.3172C15.4783 16.6003 15.4835 16.966 15.4835 17.441C15.4835 18.0387 15.8316 18.4806 16.2957 18.815C16.5233 18.9788 16.7556 19.0983 16.9333 19.1768C16.9499 19.1841 16.9659 19.1911 16.9813 19.1976Z" fill="#000000" />
<path fill-rule="evenodd" clip-rule="evenodd" d="M11.7354 4.75C9.96917 4.75 8.53711 6.18206 8.53711 7.94825C8.53711 9.71541 9.96928 11.1474 11.7354 11.1474C13.5024 11.1474 14.9345 9.7153 14.9345 7.94825C14.9345 6.18217 13.5025 4.75 11.7354 4.75ZM7.03711 7.94825C7.03711 5.35363 9.14074 3.25 11.7354 3.25C14.3307 3.25 16.4345 5.35353 16.4345 7.94825C16.4345 10.5437 14.3308 12.6474 11.7354 12.6474C9.14064 12.6474 7.03711 10.5436 7.03711 7.94825Z" fill="#000000" />
</svg>