<svg width="24px"  height="24px"  viewBox="0 0 25 24" fill="none" xmlns="http://www.w3.org/2000/svg">
<path fill-rule="evenodd" clip-rule="evenodd" d="M6.11797 6.35935C5.57013 6.87906 5.2168 7.68631 5.2168 8.8522V16.8298C5.2168 18.0263 5.57289 18.8548 6.12306 19.3866C6.67727 19.9224 7.52371 20.2491 8.68085 20.2491H16.1292C17.2947 20.2491 18.1396 19.9266 18.6893 19.402C19.2336 18.8824 19.5844 18.0732 19.5844 16.8999V8.8522L19.5845 8.84972C19.5883 7.68203 19.2398 6.87585 18.697 6.35779C18.1484 5.83428 17.3037 5.51172 16.1379 5.51172H14.1637C13.7495 5.51172 13.4137 5.17593 13.4137 4.76172C13.4137 4.34751 13.7495 4.01172 14.1637 4.01172H16.1379C17.573 4.01172 18.8309 4.41209 19.7326 5.27267C20.6398 6.13847 21.0891 7.3771 21.0844 8.8535V16.8999C21.0844 18.38 20.633 19.6203 19.7249 20.487C18.8222 21.3486 17.5644 21.7491 16.1292 21.7491H8.68085C7.24593 21.7491 5.98534 21.3398 5.08054 20.4651C4.1717 19.5866 3.7168 18.3305 3.7168 16.8298V8.8522C3.7168 7.37348 4.17446 6.13549 5.08562 5.27112C5.99082 4.4124 7.24949 4.01172 8.68085 4.01172H10.6376C11.0518 4.01172 11.3876 4.34751 11.3876 4.76172C11.3876 5.17593 11.0518 5.51172 10.6376 5.51172H8.68085C7.52015 5.51172 6.67179 5.83397 6.11797 6.35935Z" fill="#000000" />
<path fill-rule="evenodd" clip-rule="evenodd" d="M11.5406 3.75C11.4577 3.75 11.3906 3.81704 11.3906 3.90002V5.81975C11.3906 5.90274 11.4577 5.96977 11.5406 5.96977H13.2667C13.3497 5.96977 13.4168 5.90274 13.4168 5.81975V3.90002C13.4168 3.81704 13.3497 3.75 13.2667 3.75H11.5406ZM9.89062 3.90002C9.89062 2.98861 10.6292 2.25 11.5406 2.25H13.2667C14.1782 2.25 14.9168 2.98861 14.9168 3.90002V5.81975C14.9168 6.73116 14.1782 7.46977 13.2667 7.46977H11.5406C10.6292 7.46977 9.89062 6.73116 9.89062 5.81975V3.90002Z" fill="#000000" />
<path fill-rule="evenodd" clip-rule="evenodd" d="M10.3569 16.7033C10.0105 17.017 9.87695 17.4099 9.87695 17.75C9.87695 18.1642 9.54117 18.5 9.12695 18.5C8.71274 18.5 8.37695 18.1642 8.37695 17.75C8.37695 17.0198 8.66564 16.2115 9.34972 15.5917C10.0357 14.9702 11.0512 14.5977 12.404 14.5977C13.7555 14.5977 14.7706 14.9673 15.4566 15.5862C16.1414 16.204 16.4301 17.0108 16.4301 17.7412C16.4301 18.1554 16.0943 18.4912 15.6801 18.4912C15.2659 18.4912 14.9301 18.1554 14.9301 17.7412C14.9301 17.4014 14.797 17.0113 14.4518 16.6999C14.108 16.3897 13.485 16.0977 12.404 16.0977C11.3243 16.0977 10.7013 16.3912 10.3569 16.7033Z" fill="#000000" />
<path fill-rule="evenodd" clip-rule="evenodd" d="M12.4035 9.71875C11.6618 9.71875 11.0605 10.32 11.0605 11.0617C11.0605 11.8034 11.6618 12.4046 12.4035 12.4046C13.1452 12.4046 13.7464 11.8034 13.7464 11.0617C13.7464 10.32 13.1452 9.71875 12.4035 9.71875ZM9.56055 11.0617C9.56055 9.49153 10.8333 8.21875 12.4035 8.21875C13.9736 8.21875 15.2464 9.49153 15.2464 11.0617C15.2464 12.6318 13.9736 13.9046 12.4035 13.9046C10.8333 13.9046 9.56055 12.6318 9.56055 11.0617Z" fill="#000000" />
</svg>