<svg width="24px"  height="24px"  viewBox="0 0 25 24" fill="none" xmlns="http://www.w3.org/2000/svg">
<path fill-rule="evenodd" clip-rule="evenodd" d="M21.4006 14.7812C21.8148 14.7812 22.1506 15.117 22.1506 15.5312V17.1084C22.1506 19.6719 20.0721 21.7501 17.5079 21.7501H16.2188C15.8045 21.7501 15.4688 21.4143 15.4688 21.0001C15.4688 20.5859 15.8045 20.2501 16.2188 20.2501H17.5079C19.244 20.2501 20.6506 18.8432 20.6506 17.1084V15.5312C20.6506 15.117 20.9863 14.7812 21.4006 14.7812Z" fill="#000000" />
<path fill-rule="evenodd" clip-rule="evenodd" d="M3.40039 14.7812C3.8146 14.7812 4.15039 15.117 4.15039 15.5312V17.1084C4.15039 18.8432 5.55699 20.2501 7.29307 20.2501H8.55009C8.9643 20.2501 9.30009 20.5859 9.30009 21.0001C9.30009 21.4143 8.9643 21.7501 8.55009 21.7501H7.29307C4.72881 21.7501 2.65039 19.6719 2.65039 17.1084V15.5312C2.65039 15.117 2.98618 14.7812 3.40039 14.7812Z" fill="#000000" />
<path fill-rule="evenodd" clip-rule="evenodd" d="M15.5 3C15.5 2.58579 15.8358 2.25 16.25 2.25H17.507C20.0714 2.25 22.1497 4.3283 22.1497 6.89268V8.46979C22.1497 8.88401 21.8139 9.21979 21.3997 9.21979C20.9855 9.21979 20.6497 8.88401 20.6497 8.46979V6.89268C20.6497 5.15673 19.243 3.75 17.507 3.75H16.25C15.8358 3.75 15.5 3.41421 15.5 3Z" fill="#000000" />
<path fill-rule="evenodd" clip-rule="evenodd" d="M7.29307 3.75C5.55712 3.75 4.15039 5.15672 4.15039 6.89268V8.46979C4.15039 8.88401 3.8146 9.21979 3.40039 9.21979C2.98618 9.21979 2.65039 8.88401 2.65039 8.46979V6.89268C2.65039 4.3283 4.72869 2.25 7.29307 2.25H8.5822C8.99641 2.25 9.3322 2.58579 9.3322 3C9.3322 3.41421 8.99641 3.75 8.5822 3.75H7.29307Z" fill="#000000" />
<path fill-rule="evenodd" clip-rule="evenodd" d="M12.4008 8.10938C11.5802 8.10938 10.9141 8.77494 10.9141 9.59613C10.9141 10.4173 11.5802 11.0829 12.4008 11.0829C13.2222 11.0829 13.8876 10.4175 13.8876 9.59613C13.8876 8.77473 13.2222 8.10938 12.4008 8.10938ZM9.41406 9.59613C9.41406 7.94609 10.7522 6.60938 12.4008 6.60938C14.0506 6.60938 15.3876 7.9463 15.3876 9.59613C15.3876 11.246 14.0507 12.5829 12.4008 12.5829C10.7522 12.5829 9.41406 11.2462 9.41406 9.59613Z" fill="#000000" />
<path fill-rule="evenodd" clip-rule="evenodd" d="M10.1285 15.8153C9.75661 16.0964 9.65039 16.4143 9.65039 16.6443C9.65039 17.0586 9.3146 17.3943 8.90039 17.3943C8.48618 17.3943 8.15039 17.0586 8.15039 16.6443C8.15039 15.9219 8.49513 15.1696 9.22406 14.6186C9.94375 14.0746 10.9957 13.7539 12.402 13.7539C13.8066 13.7539 14.8579 14.0719 15.5776 14.6133C16.3073 15.1622 16.6525 15.9131 16.6525 16.6366C16.6525 17.0508 16.3168 17.3866 15.9025 17.3866C15.4883 17.3866 15.1525 17.0508 15.1525 16.6366C15.1525 16.4066 15.0469 16.0911 14.6759 15.812C14.2949 15.5255 13.596 15.2539 12.402 15.2539C11.2085 15.2539 10.5097 15.5271 10.1285 15.8153Z" fill="#000000" />
</svg>