<svg width="24px"  height="24px"  viewBox="0 0 25 24" fill="none" xmlns="http://www.w3.org/2000/svg">
<path fill-rule="evenodd" clip-rule="evenodd" d="M5.42196 7.12809C4.85382 7.73707 4.50391 8.63354 4.50391 9.7554V16.648C4.50391 17.7665 4.85194 18.6608 5.41874 19.2685C5.98004 19.8703 6.81091 20.2511 7.90364 20.2511H16.8969C17.9945 20.2511 18.8252 19.87 19.3852 19.2689C19.9509 18.6616 20.2976 17.7674 20.2976 16.648V9.7554C20.2976 8.63148 19.9506 7.73505 19.3856 7.12693C18.8265 6.52506 17.9982 6.14453 16.9056 6.14453H14.2114C13.7972 6.14453 13.4614 5.80874 13.4614 5.39453C13.4614 4.98032 13.7972 4.64453 14.2114 4.64453H16.9056C18.3691 4.64453 19.6117 5.16644 20.4846 6.106C21.3516 7.03932 21.7976 8.32332 21.7976 9.7554V16.648C21.7976 18.0767 21.3512 19.3591 20.4828 20.2913C19.6086 21.2297 18.3639 21.7511 16.8969 21.7511H7.90364C6.44037 21.7511 5.19637 21.2293 4.32181 20.2916C3.45274 19.3599 3.00391 18.0777 3.00391 16.648V9.7554C3.00391 8.32127 3.45524 7.0373 4.32516 6.10484C5.20042 5.16666 6.44415 4.64453 7.90364 4.64453H10.5871C11.0013 4.64453 11.3371 4.98032 11.3371 5.39453C11.3371 5.80874 11.0013 6.14453 10.5871 6.14453H7.90364C6.81589 6.14453 5.98475 6.52484 5.42196 7.12809Z" fill="#000000" />
<path fill-rule="evenodd" clip-rule="evenodd" d="M14.3965 10.6445C14.3965 10.2303 14.7323 9.89453 15.1465 9.89453H17.8027C18.2169 9.89453 18.5527 10.2303 18.5527 10.6445C18.5527 11.0587 18.2169 11.3945 17.8027 11.3945H15.1465C14.7323 11.3945 14.3965 11.0587 14.3965 10.6445ZM14.3966 13.8787C14.4033 13.4645 14.7444 13.1342 15.1586 13.1409L17.8148 13.1837C18.229 13.1903 18.5593 13.5315 18.5526 13.9457C18.5459 14.3598 18.2048 14.6902 17.7906 14.6835L15.1344 14.6407C14.7202 14.634 14.3899 14.2928 14.3966 13.8787ZM15.3923 17.2245C15.3923 16.8103 15.7281 16.4745 16.1423 16.4745H17.8022C18.2164 16.4745 18.5522 16.8103 18.5522 17.2245C18.5522 17.6387 18.2164 17.9745 17.8022 17.9745H16.1423C15.7281 17.9745 15.3923 17.6387 15.3923 17.2245Z" fill="#000000" />
<path fill-rule="evenodd" clip-rule="evenodd" d="M8.22002 16.6505C7.9555 16.8903 7.85547 17.1878 7.85547 17.4427C7.85547 17.857 7.51968 18.1927 7.10547 18.1927C6.69126 18.1927 6.35547 17.857 6.35547 17.4427C6.35547 16.7977 6.61057 16.0848 7.21273 15.5391C7.81679 14.9916 8.7022 14.6719 9.86191 14.6719C11.0207 14.6719 11.906 14.9889 12.5105 15.5339C13.1138 16.0777 13.3693 16.7894 13.3693 17.435C13.3693 17.8492 13.0335 18.185 12.6193 18.185C12.2051 18.185 11.8693 17.8492 11.8693 17.435C11.8693 17.1805 11.7697 16.8856 11.5061 16.648C11.2437 16.4114 10.7503 16.1719 9.86191 16.1719C8.97545 16.1719 8.48264 16.4125 8.22002 16.6505Z" fill="#000000" />
<path fill-rule="evenodd" clip-rule="evenodd" d="M9.86265 10.7031C9.30389 10.7031 8.85156 11.1554 8.85156 11.7142C8.85156 12.273 9.30389 12.7253 9.86265 12.7253C10.4214 12.7253 10.8737 12.273 10.8737 11.7142C10.8737 11.1554 10.4214 10.7031 9.86265 10.7031ZM7.35156 11.7142C7.35156 10.327 8.47546 9.20312 9.86265 9.20312C11.2498 9.20312 12.3737 10.327 12.3737 11.7142C12.3737 13.1014 11.2498 14.2253 9.86265 14.2253C8.47546 14.2253 7.35156 13.1014 7.35156 11.7142Z" fill="#000000" />
<path fill-rule="evenodd" clip-rule="evenodd" d="M11.6067 3.75C11.4658 3.75 11.3535 3.86323 11.3535 4.00216V6.91146L12.4031 7.43625L13.4467 6.912V4.00216C13.4467 3.8637 13.3339 3.75 13.1936 3.75H11.6067ZM12.2261 7.5252C12.2265 7.52497 12.2269 7.52475 12.2274 7.52452L12.2261 7.5252ZM9.85352 4.00216C9.85352 3.03385 10.6383 2.25 11.6067 2.25H13.1936C14.1605 2.25 14.9467 3.03338 14.9467 4.00216V6.93763C14.9467 7.49178 14.6333 7.99373 14.1432 8.24076L12.9021 8.86423C12.9017 8.8644 12.9014 8.86456 12.9011 8.86473C12.5877 9.02254 12.223 9.02027 11.9147 8.86908L11.9095 8.86653L10.6591 8.24131C10.1664 7.99396 9.85352 7.49007 9.85352 6.93666V4.00216Z" fill="#000000" />
</svg>