<svg width="24px"  height="24px"  viewBox="0 0 25 24" fill="none" xmlns="http://www.w3.org/2000/svg">
<path fill-rule="evenodd" clip-rule="evenodd" d="M12.4004 3.75C7.84369 3.75 4.15039 7.44329 4.15039 12C4.15039 16.5558 7.84374 20.25 12.4004 20.25C16.957 20.25 20.6504 16.5558 20.6504 12C20.6504 7.44329 16.9571 3.75 12.4004 3.75ZM2.65039 12C2.65039 6.61487 7.01526 2.25 12.4004 2.25C17.7855 2.25 22.1504 6.61487 22.1504 12C22.1504 17.3841 17.7856 21.75 12.4004 21.75C7.01521 21.75 2.65039 17.3841 2.65039 12Z" fill="#000000" />
<path fill-rule="evenodd" clip-rule="evenodd" d="M9.03622 17.6968C8.38402 18.2071 8.07428 18.8617 7.99589 19.4702C7.94296 19.881 7.56702 20.1712 7.1562 20.1182C6.74538 20.0653 6.45526 19.6894 6.50818 19.2785C6.63411 18.3011 7.13195 17.2822 8.1119 16.5154C9.09009 15.7501 10.4938 15.2773 12.3699 15.2773C14.2642 15.2773 15.6767 15.752 16.6576 16.5241C17.641 17.2982 18.1322 18.327 18.2517 19.3133C18.3016 19.7245 18.0086 20.0983 17.5974 20.1481C17.1862 20.198 16.8125 19.905 16.7626 19.4938C16.6876 18.8747 16.381 18.2154 15.7297 17.7027C15.076 17.1881 14.0172 16.7773 12.3699 16.7773C10.7432 16.7773 9.6902 17.1851 9.03622 17.6968Z" fill="#000000" />
<path fill-rule="evenodd" clip-rule="evenodd" d="M12.3726 7.78125C10.9661 7.78125 9.82617 8.92078 9.82617 10.3267C9.82617 11.7326 10.9661 12.8722 12.3726 12.8722C13.7788 12.8722 14.9181 11.7329 14.9181 10.3267C14.9181 8.92049 13.7788 7.78125 12.3726 7.78125ZM8.32617 10.3267C8.32617 8.09178 10.1382 6.28125 12.3726 6.28125C14.6073 6.28125 16.4181 8.09206 16.4181 10.3267C16.4181 12.5614 14.6073 14.3722 12.3726 14.3722C10.1382 14.3722 8.32617 12.5616 8.32617 10.3267Z" fill="#000000" />
</svg>