<svg width="24px"  height="24px"  viewBox="0 0 25 24" fill="none" xmlns="http://www.w3.org/2000/svg">
<path fill-rule="evenodd" clip-rule="evenodd" d="M9.42982 15.5319C8.54721 15.3141 8.01918 15.2372 7.62151 15.3791C6.29537 15.8523 5.57544 16.909 5.56841 18.1221C5.59658 18.6407 5.77964 19.035 6.04841 19.2978C6.31694 19.5604 6.72879 19.7484 7.32028 19.7484H17.4796C18.069 19.7484 18.4789 19.5608 18.747 19.2982C19.0159 19.0348 19.2003 18.6389 19.2316 18.1177C19.2315 16.913 18.5136 15.8579 17.1764 15.3833C16.7779 15.2419 16.2494 15.3193 15.367 15.5366C15.2852 15.5567 15.201 15.5778 15.1146 15.5995C14.3491 15.7914 13.4086 16.0273 12.3991 16.0187C11.3912 16.0249 10.452 15.7886 9.68728 15.5963C9.59909 15.5741 9.51321 15.5525 9.42982 15.5319ZM10.0463 14.1395C10.8322 14.3359 11.5868 14.5245 12.3946 14.5187L12.4071 14.5186L12.4071 14.5187C13.2155 14.5264 13.9711 14.3382 14.7585 14.1421C14.8414 14.1214 14.9247 14.1007 15.0084 14.0801C15.8126 13.8821 16.7881 13.6538 17.678 13.9697C19.5828 14.6456 20.7426 16.252 20.7315 18.1444L20.7314 18.1622L20.7305 18.1799C20.6856 19.0228 20.3782 19.8002 19.7966 20.3699C19.2111 20.9432 18.4065 21.2484 17.4796 21.2484H7.32028C6.39274 21.2484 5.58613 20.9437 4.9997 20.3703C4.41653 19.8 4.10922 19.021 4.0692 18.1755L4.06836 18.1578V18.14C4.06836 16.2517 5.21983 14.6435 7.11737 13.9663C8.00793 13.6485 8.98415 13.8769 9.78924 14.0756C9.87535 14.0968 9.96099 14.1182 10.0463 14.1395Z" fill="#000000" />
<path fill-rule="evenodd" clip-rule="evenodd" d="M12.4079 4.25C10.5776 4.25 9.09375 5.73381 9.09375 7.56417C9.09375 9.39454 10.5776 10.8783 12.4079 10.8783C14.2383 10.8783 15.7221 9.39454 15.7221 7.56417C15.7221 5.73381 14.2383 4.25 12.4079 4.25ZM7.59375 7.56417C7.59375 4.90538 9.74913 2.75 12.4079 2.75C15.0667 2.75 17.2221 4.90538 17.2221 7.56417C17.2221 10.223 15.0667 12.3783 12.4079 12.3783C9.74913 12.3783 7.59375 10.223 7.59375 7.56417Z" fill="#000000" />
</svg>