<svg width="24px"  height="24px"  viewBox="0 0 25 24" fill="none" xmlns="http://www.w3.org/2000/svg">
<path fill-rule="evenodd" clip-rule="evenodd" d="M4.14059 3.89737C5.12507 2.84117 6.52708 2.25 8.18255 2.25H16.6173C18.2766 2.25 19.6792 2.84084 20.6633 3.89765C21.6417 4.94841 22.1504 6.39889 22.1504 8.02638V15.9736C22.1504 17.6011 21.6417 19.0516 20.6631 20.1024C19.6789 21.1592 18.276 21.75 16.6163 21.75H8.18255C6.52319 21.75 5.12077 21.1591 4.13697 20.1023C3.15881 19.0515 2.65039 17.601 2.65039 15.9736V8.02638C2.65039 6.39806 3.16156 4.94771 4.14059 3.89737ZM5.23784 4.92012C4.56063 5.64666 4.15039 6.70951 4.15039 8.02638V15.9736C4.15039 17.2914 4.559 18.3541 5.2349 19.0802C5.90514 19.8003 6.8938 20.25 8.18255 20.25H16.6163C17.9056 20.25 18.8948 19.8002 19.5654 19.0801C20.2416 18.354 20.6504 17.2913 20.6504 15.9736V8.02638C20.6504 6.70868 20.2416 5.64597 19.5655 4.91984C18.895 4.19975 17.906 3.75 16.6173 3.75H8.18255C6.89867 3.75 5.9096 4.19943 5.23784 4.92012Z" fill="#000000" />
<path fill-rule="evenodd" clip-rule="evenodd" d="M8.88662 18.0472C8.24365 18.6304 7.98828 19.3693 7.98828 20.0153V20.9202C7.98828 21.3344 7.65249 21.6702 7.23828 21.6702C6.82407 21.6702 6.48828 21.3344 6.48828 20.9202V20.0153C6.48828 18.9782 6.8994 17.8246 7.87886 16.9362C8.86049 16.0458 10.3459 15.4805 12.395 15.4805C14.4468 15.4805 15.9341 16.0396 16.9175 16.9244C17.8997 17.8081 18.3115 18.9579 18.3115 19.9959V20.9202C18.3115 21.3344 17.9757 21.6702 17.5615 21.6702C17.1473 21.6702 16.8115 21.3344 16.8115 20.9202V19.9959C16.8115 19.3506 16.5568 18.6177 15.9142 18.0395C15.2728 17.4624 14.1768 16.9805 12.395 16.9805C10.6204 16.9805 9.52742 17.466 8.88662 18.0472Z" fill="#000000" />
<path fill-rule="evenodd" clip-rule="evenodd" d="M12.3999 7.98047C10.9934 7.98047 9.85352 9.12 9.85352 10.5259C9.85352 11.9319 10.9934 13.0714 12.3999 13.0714C13.8062 13.0714 14.9454 11.9321 14.9454 10.5259C14.9454 9.11971 13.8062 7.98047 12.3999 7.98047ZM8.35352 10.5259C8.35352 8.29099 10.1656 6.48047 12.3999 6.48047C14.6346 6.48047 16.4454 8.29128 16.4454 10.5259C16.4454 12.7606 14.6346 14.5714 12.3999 14.5714C10.1656 14.5714 8.35352 12.7609 8.35352 10.5259Z" fill="#000000" />
</svg>