<svg width="24px"  height="24px"  viewBox="0 0 25 24" fill="none" xmlns="http://www.w3.org/2000/svg">
<path fill-rule="evenodd" clip-rule="evenodd" d="M12.2303 3.92188C7.76758 3.92188 4.15039 7.53992 4.15039 12.0018C4.15039 16.4645 7.76753 20.0817 12.2303 20.0817C16.693 20.0817 20.3102 16.4645 20.3102 12.0018C20.3102 11.7535 20.2988 11.5067 20.2769 11.2633C20.2398 10.8507 20.5442 10.4862 20.9567 10.4491C21.3693 10.412 21.7338 10.7164 21.7709 11.1289C21.7967 11.4162 21.8102 11.7078 21.8102 12.0018C21.8102 17.2929 17.5215 21.5817 12.2303 21.5817C6.9391 21.5817 2.65039 17.2929 2.65039 12.0018C2.65039 6.7116 6.93905 2.42188 12.2303 2.42188C12.6346 2.42188 13.0331 2.4478 13.4235 2.49634C13.8345 2.54745 14.1263 2.9221 14.0752 3.33315C14.0241 3.74419 13.6494 4.03598 13.2384 3.98487C12.9071 3.94368 12.5705 3.92188 12.2303 3.92188Z" fill="#000000" />
<path fill-rule="evenodd" clip-rule="evenodd" d="M21.9303 3.74297C22.2232 4.03579 22.2234 4.51066 21.9305 4.80363L18.2096 8.5265C18.0689 8.66729 17.878 8.74636 17.6789 8.74631C17.4799 8.74626 17.289 8.66708 17.1484 8.52622L15.3423 6.71729C15.0496 6.42416 15.05 5.94929 15.3431 5.65663C15.6363 5.36397 16.1111 5.36434 16.4038 5.65747L17.6794 6.93509L20.8696 3.74324C21.1624 3.45028 21.6373 3.45015 21.9303 3.74297Z" fill="#000000" />
<path fill-rule="evenodd" clip-rule="evenodd" d="M9.47231 18.3596C8.94507 18.7721 8.69721 19.2984 8.63458 19.7853C8.58173 20.1961 8.20584 20.4863 7.79501 20.4335C7.38419 20.3806 7.09399 20.0048 7.14684 19.5939C7.25698 18.7377 7.69309 17.847 8.54808 17.1782C9.40129 16.5107 10.6169 16.1055 12.2245 16.1055C13.8473 16.1055 15.0703 16.5123 15.9259 17.1859C16.784 17.8614 17.2142 18.7608 17.3191 19.624C17.369 20.0352 17.0762 20.409 16.665 20.459C16.2538 20.5089 15.88 20.2161 15.83 19.8049C15.7697 19.3088 15.5241 18.7786 14.9981 18.3645C14.4695 17.9484 13.6001 17.6055 12.2245 17.6055C10.8663 17.6055 10.0013 17.9458 9.47231 18.3596Z" fill="#000000" />
<path fill-rule="evenodd" clip-rule="evenodd" d="M12.2302 10.2031C11.2561 10.2031 10.4668 10.9922 10.4668 11.9656C10.4668 12.9393 11.2565 13.729 12.2302 13.729C13.204 13.729 13.9936 12.9393 13.9936 11.9656C13.9936 10.9922 13.2043 10.2031 12.2302 10.2031ZM8.9668 11.9656C8.9668 10.163 10.4284 8.70312 12.2302 8.70312C14.032 8.70312 15.4936 10.163 15.4936 11.9656C15.4936 13.7678 14.0324 15.229 12.2302 15.229C10.428 15.229 8.9668 13.7678 8.9668 11.9656Z" fill="#000000" />
</svg>