<svg width="24px"  height="24px"  viewBox="0 0 25 24" fill="none" xmlns="http://www.w3.org/2000/svg">
<path fill-rule="evenodd" clip-rule="evenodd" d="M11.8609 4.20312C9.67895 4.20312 7.91016 5.97192 7.91016 8.15384C7.91016 10.3358 9.67895 12.1046 11.8609 12.1046C14.0428 12.1046 15.8116 10.3358 15.8116 8.15384C15.8116 5.97192 14.0428 4.20312 11.8609 4.20312ZM6.41016 8.15384C6.41016 5.14349 8.85052 2.70312 11.8609 2.70312C14.8712 2.70312 17.3116 5.14349 17.3116 8.15384C17.3116 11.1642 14.8712 13.6046 11.8609 13.6046C8.85052 13.6046 6.41016 11.1642 6.41016 8.15384Z" fill="#000000" />
<path fill-rule="evenodd" clip-rule="evenodd" d="M4.63068 17.5316C4.63068 14.688 6.93587 12.3828 9.77946 12.3828H14.0628C15.4464 12.3828 16.7038 12.9295 17.6283 13.8171C17.9271 14.104 17.9367 14.5788 17.6499 14.8775C17.363 15.1763 16.8882 15.186 16.5894 14.8991C15.9331 14.269 15.0438 13.8828 14.0628 13.8828H9.77946C7.7643 13.8828 6.13068 15.5164 6.13068 17.5316C6.13068 17.7066 6.12817 17.8715 6.12577 18.0287C6.11834 18.5152 6.11202 18.9291 6.18468 19.3475C6.25557 19.7556 5.98219 20.1439 5.57409 20.2148C5.16599 20.2856 4.77769 20.0123 4.70681 19.6042C4.60751 19.0324 4.61767 18.4269 4.62625 17.9152C4.62852 17.78 4.63068 17.6513 4.63068 17.5316Z" fill="#000000" />
<path fill-rule="evenodd" clip-rule="evenodd" d="M15.2939 16.415C15.5868 16.1221 16.0617 16.1221 16.3545 16.415L17.6258 17.6862L18.8627 16.4493C19.1556 16.1564 19.6305 16.1564 19.9234 16.4493C20.2163 16.7422 20.2163 17.2171 19.9234 17.5099L18.6864 18.7469L19.9593 20.0198C20.2522 20.3127 20.2522 20.7875 19.9593 21.0804C19.6664 21.3733 19.1916 21.3733 18.8987 21.0804L17.6258 19.8075L16.3897 21.0436C16.0968 21.3365 15.622 21.3365 15.3291 21.0436C15.0362 20.7507 15.0362 20.2758 15.3291 19.9829L16.5651 18.7469L15.2939 17.4756C15.001 17.1827 15.001 16.7079 15.2939 16.415Z" fill="#000000" />
</svg>