<svg width="24px"  height="24px"  viewBox="0 0 25 24" fill="none" xmlns="http://www.w3.org/2000/svg">
<path fill-rule="evenodd" clip-rule="evenodd" d="M5.22103 5.74483C6.02477 3.83498 7.78737 2.64453 10.0952 2.64453H17.8016C19.4042 2.64453 20.7609 3.21538 21.7131 4.23813C22.6597 5.25484 23.1507 6.65716 23.1507 8.22829V14.807C23.1507 16.3782 22.6597 17.7805 21.7129 18.7972C20.7605 19.82 19.4036 20.3908 17.8005 20.3908H14.3473C13.9331 20.3908 13.5973 20.055 13.5973 19.6408C13.5973 19.2266 13.9331 18.8908 14.3473 18.8908H17.8005C19.0332 18.8908 19.9764 18.461 20.6152 17.775C21.2596 17.083 21.6507 16.0685 21.6507 14.807V8.22829C21.6507 6.96685 21.2596 5.95229 20.6152 5.26026C19.9766 4.57427 19.0336 4.14453 17.8016 4.14453H10.0952C8.36179 4.14453 7.16207 4.99959 6.60358 6.32667C6.44291 6.70845 6.00317 6.8877 5.62139 6.72703C5.2396 6.56636 5.06036 6.12661 5.22103 5.74483Z" fill="#000000" />
<path fill-rule="evenodd" clip-rule="evenodd" d="M15.2148 16.3203C15.2148 15.9061 15.5506 15.5703 15.9648 15.5703H18.2687C18.683 15.5703 19.0187 15.9061 19.0187 16.3203C19.0187 16.7345 18.683 17.0703 18.2687 17.0703H15.9648C15.5506 17.0703 15.2148 16.7345 15.2148 16.3203Z" fill="#000000" />
<path fill-rule="evenodd" clip-rule="evenodd" d="M3.48164 16.6232C4.41184 16.3113 5.62207 16.2227 6.83413 16.2227C8.05356 16.2227 9.26455 16.315 10.1941 16.6311C10.6629 16.7905 11.1147 17.0246 11.4558 17.3822C11.8143 17.7578 12.0179 18.2371 12.0179 18.7955C12.0179 19.3553 11.8121 19.8347 11.4514 20.2089C11.1085 20.5646 10.6551 20.7962 10.1862 20.9534C9.25596 21.2652 8.04586 21.3542 6.83413 21.3542C5.615 21.3542 4.40401 21.2624 3.47443 20.9468C3.00569 20.7876 2.55375 20.5537 2.21249 20.1961C1.85391 19.8204 1.65039 19.341 1.65039 18.7825C1.65039 18.2225 1.85578 17.7429 2.21643 17.3683C2.5593 17.0122 3.0127 16.7804 3.48164 16.6232ZM3.29699 18.4087C3.20015 18.5093 3.15039 18.6181 3.15039 18.7825C3.15039 18.9484 3.20054 19.0588 3.29759 19.1605C3.41196 19.2803 3.61762 19.4113 3.95675 19.5264C4.64294 19.7595 5.64882 19.8542 6.83413 19.8542C8.01388 19.8542 9.02065 19.7621 9.70942 19.5312C10.05 19.417 10.2567 19.2869 10.3714 19.1678C10.4684 19.0673 10.5179 18.9589 10.5179 18.7955C10.5179 18.63 10.4678 18.5195 10.3706 18.4177C10.2561 18.2977 10.0503 18.1666 9.71119 18.0513C9.02503 17.8179 8.01916 17.7227 6.83413 17.7227C5.65364 17.7227 4.647 17.8145 3.95847 18.0454C3.61804 18.1595 3.41161 18.2897 3.29699 18.4087Z" fill="#000000" />
<path fill-rule="evenodd" clip-rule="evenodd" d="M6.94126 9.78906C5.88405 9.78906 5.02734 10.6458 5.02734 11.703C5.02734 12.7602 5.88405 13.6169 6.94126 13.6169C7.99848 13.6169 8.85519 12.7602 8.85519 11.703C8.85519 10.6458 7.99848 9.78906 6.94126 9.78906ZM3.52734 11.703C3.52734 9.81734 5.05562 8.28906 6.94126 8.28906C8.82691 8.28906 10.3552 9.81734 10.3552 11.703C10.3552 13.5886 8.82691 15.1169 6.94126 15.1169C5.05562 15.1169 3.52734 13.5886 3.52734 11.703Z" fill="#000000" />
</svg>