<svg width="24px"  height="24px"  viewBox="0 0 25 24" fill="none" xmlns="http://www.w3.org/2000/svg">
<path fill-rule="evenodd" clip-rule="evenodd" d="M7.07999 14.6744C8.34252 14.251 10.0079 14.125 11.7115 14.125C12.1257 14.125 12.4615 14.4608 12.4615 14.875C12.4615 15.2892 12.1257 15.625 11.7115 15.625C10.0396 15.625 8.57781 15.7542 7.55696 16.0965C7.05035 16.2664 6.70845 16.4709 6.49989 16.6875C6.30911 16.8856 6.20703 17.1151 6.20703 17.428C6.20703 17.7423 6.30921 17.9739 6.49993 18.1738C6.70793 18.3918 7.04871 18.5978 7.55372 18.7695C8.57164 19.1156 10.0327 19.2491 11.7115 19.2491C12.1257 19.2491 12.4615 19.5849 12.4615 19.9991C12.4615 20.4133 12.1257 20.7491 11.7115 20.7491C9.99845 20.7491 8.33226 20.6185 7.0709 20.1897C6.43629 19.9739 5.84942 19.6649 5.41469 19.2093C4.96268 18.7355 4.70703 18.135 4.70703 17.428C4.70703 16.7195 4.96483 16.1192 5.41935 15.6471C5.8561 15.1935 6.44491 14.8874 7.07999 14.6744Z" fill="#000000" />
<path fill-rule="evenodd" clip-rule="evenodd" d="M11.7095 4.75C9.91774 4.75 8.46484 6.20334 8.46484 7.99553C8.46484 9.78771 9.91774 11.2411 11.7095 11.2411C13.5022 11.2411 14.955 9.78761 14.955 7.99553C14.955 6.20345 13.5022 4.75 11.7095 4.75ZM6.96484 7.99553C6.96484 5.37534 9.08889 3.25 11.7095 3.25C14.3309 3.25 16.455 5.37523 16.455 7.99553C16.455 10.6158 14.3309 12.7411 11.7095 12.7411C9.08889 12.7411 6.96484 10.6157 6.96484 7.99553Z" fill="#000000" />
<path fill-rule="evenodd" clip-rule="evenodd" d="M19.8738 14.7586C20.1668 15.0514 20.1669 15.5263 19.8741 15.8193L16.4735 19.2215C16.3328 19.3623 16.1419 19.4414 15.9428 19.4413C15.7437 19.4412 15.5528 19.362 15.4122 19.2211L13.7621 17.5675C13.4695 17.2743 13.47 16.7995 13.7632 16.5069C14.0564 16.2143 14.5313 16.2148 14.8239 16.508L15.9435 17.63L18.8131 14.7589C19.1059 14.4659 19.5808 14.4658 19.8738 14.7586Z" fill="#000000" />
</svg>