<svg width="24px"  height="24px"  viewBox="0 0 25 24" fill="none" xmlns="http://www.w3.org/2000/svg">
<path fill-rule="evenodd" clip-rule="evenodd" d="M21.9423 7.67263C22.2353 7.96544 22.2355 8.44031 21.9426 8.73329L18.9538 11.7239C18.8131 11.8647 18.6222 11.9438 18.4231 11.9438C18.224 11.9437 18.0331 11.8645 17.8925 11.7236L16.4418 10.2702C16.1492 9.97706 16.1497 9.50219 16.4428 9.20957C16.736 8.91695 17.2109 8.91739 17.5035 9.21056L18.4237 10.1325L20.8817 7.67296C21.1745 7.37997 21.6493 7.37983 21.9423 7.67263Z" fill="#000000" />
<path fill-rule="evenodd" clip-rule="evenodd" d="M10.4219 13.4297L10.4219 13.4298C12.5628 13.4501 14.4503 13.6834 15.8251 14.2993C16.5225 14.6117 17.123 15.0379 17.5476 15.6176C17.9785 16.2061 18.1935 16.9058 18.1889 17.6962L18.1888 17.714L18.1878 17.7317C18.1456 18.5241 17.8564 19.2582 17.3061 19.7971C16.752 20.3397 15.9921 20.6268 15.1209 20.6268H5.70858C4.83689 20.6268 4.07507 20.3402 3.52008 19.7975C2.96834 19.258 2.6791 18.5224 2.64146 17.7273L2.64062 17.7096V17.6918C2.64062 16.9003 2.85799 16.2003 3.28959 15.6116C3.71506 15.0313 4.31521 14.6045 5.01263 14.2919C6.38725 13.6756 8.2717 13.445 10.4094 13.4298L10.4219 13.4297ZM4.14068 17.6739C4.16644 18.1419 4.33138 18.4929 4.56879 18.725C4.80589 18.9569 5.17294 19.1268 5.70858 19.1268H15.1209C15.6546 19.1268 16.0198 18.9573 16.2565 18.7254C16.4941 18.4927 16.6603 18.1401 16.6889 17.6695C16.6886 17.1793 16.5585 16.8057 16.3374 16.5039C16.1072 16.1896 15.7437 15.9065 15.2119 15.6682C14.1294 15.1833 12.4995 14.95 10.4139 14.9298C8.33255 14.9451 6.7071 15.1761 5.62624 15.6606C5.09538 15.8986 4.73112 16.1824 4.49926 16.4986C4.27622 16.8028 4.14381 17.1798 4.14068 17.6739Z" fill="#000000" />
<path fill-rule="evenodd" clip-rule="evenodd" d="M10.4208 4.875C8.87456 4.875 7.62109 6.12846 7.62109 7.67469C7.62109 9.22091 8.87456 10.4744 10.4208 10.4744C11.967 10.4744 13.2205 9.22092 13.2205 7.67469C13.2205 6.12846 11.967 4.875 10.4208 4.875ZM6.12109 7.67469C6.12109 5.30004 8.04613 3.375 10.4208 3.375C12.7954 3.375 14.7205 5.30004 14.7205 7.67469C14.7205 10.0493 12.7954 11.9744 10.4208 11.9744C8.04613 11.9744 6.12109 10.0493 6.12109 7.67469Z" fill="#000000" />
</svg>