<svg width="24px"  height="24px"  viewBox="0 0 25 24" fill="none" xmlns="http://www.w3.org/2000/svg">
<path fill-rule="evenodd" clip-rule="evenodd" d="M12.3429 4.75C10.1655 4.75 8.40039 6.51512 8.40039 8.6925C8.40039 10.8699 10.1655 12.635 12.3429 12.635C14.5203 12.635 16.2854 10.8699 16.2854 8.6925C16.2854 6.51512 14.5203 4.75 12.3429 4.75ZM6.90039 8.6925C6.90039 5.68669 9.33708 3.25 12.3429 3.25C15.3487 3.25 17.7854 5.68669 17.7854 8.6925C17.7854 11.6983 15.3487 14.135 12.3429 14.135C9.33708 14.135 6.90039 11.6983 6.90039 8.6925Z" fill="#000000" />
<path fill-rule="evenodd" clip-rule="evenodd" d="M5.12132 18.0591C5.12132 15.2197 7.42307 12.918 10.2624 12.918H14.5383C17.3776 12.918 19.6794 15.2197 19.6794 18.0591C19.6794 18.1416 19.6802 18.2253 19.6813 18.3113C19.7007 19.755 18.5172 20.7499 17.1819 20.7499H7.61883C6.28346 20.7499 5.10003 19.755 5.11937 18.3113C5.12053 18.2253 5.12132 18.1416 5.12132 18.0591ZM10.2624 14.418C8.25149 14.418 6.62132 16.0481 6.62132 18.0591C6.62132 18.1508 6.62044 18.242 6.61924 18.3314C6.61253 18.8324 7.00917 19.2499 7.61883 19.2499H17.1819C17.7915 19.2499 18.1882 18.8324 18.1814 18.3313C18.1803 18.242 18.1794 18.1508 18.1794 18.0591C18.1794 16.0481 16.5492 14.418 14.5383 14.418H10.2624Z" fill="#000000" />
</svg>