<svg width="24px"  height="24px"  viewBox="0 0 25 24" fill="none" xmlns="http://www.w3.org/2000/svg">
<path d="M10.866 13.5973C9.78794 13.5973 8.73405 13.2776 7.83764 12.6786C6.94122 12.0797 6.24255 11.2284 5.82998 10.2324C5.4174 9.23631 5.30945 8.14027 5.51978 7.08288C5.73011 6.02549 6.24927 5.0542 7.0116 4.29186C7.77394 3.52953 8.74521 3.01037 9.8026 2.80004C10.86 2.58971 11.956 2.69771 12.952 3.11028C13.9481 3.52286 14.7994 4.2215 15.3984 5.11791C15.9973 6.01433 16.317 7.06825 16.317 8.14636C16.3154 9.59156 15.7406 10.9771 14.7187 11.999C13.6968 13.0209 12.3113 13.5958 10.866 13.5973ZM10.866 4.19732C10.0846 4.19732 9.32072 4.42907 8.67098 4.86321C8.02124 5.29735 7.51484 5.91439 7.21579 6.63635C6.91675 7.3583 6.83851 8.1527 6.99096 8.91912C7.14341 9.68554 7.51971 10.3896 8.07227 10.9421C8.62483 11.4947 9.32882 11.871 10.0952 12.0234C10.8617 12.1759 11.6561 12.0976 12.378 11.7986C13.1 11.4995 13.717 10.9931 14.1512 10.3434C14.5853 9.69364 14.817 8.92974 14.817 8.14831C14.8162 7.1005 14.3998 6.09583 13.6591 5.35473C12.9183 4.61363 11.9139 4.19663 10.866 4.19531V4.19732Z" fill="#000000" />
<path d="M4.45183 20.2258C4.27529 20.2256 4.10448 20.1631 3.96949 20.0493C3.83449 19.9355 3.74397 19.7778 3.71384 19.6038C3.6353 19.0579 3.60818 18.5058 3.63283 17.9548L3.63784 17.5318C3.63943 16.1667 4.18242 14.858 5.1477 13.8927C6.11298 12.9274 7.42173 12.3844 8.78684 12.3828H13.0698C13.4438 12.3831 13.8166 12.4236 14.1818 12.5038C14.2786 12.5244 14.3702 12.564 14.4516 12.6202C14.533 12.6764 14.6025 12.7481 14.656 12.8312C14.7096 12.9144 14.7461 13.0073 14.7636 13.1046C14.7812 13.2019 14.7792 13.3017 14.758 13.3983C14.7368 13.4949 14.6967 13.5863 14.64 13.6674C14.5833 13.7484 14.5111 13.8174 14.4276 13.8704C14.3441 13.9234 14.251 13.9594 14.1535 13.9763C14.0561 13.9932 13.9563 13.9907 13.8598 13.9688C13.6004 13.9117 13.3355 13.8829 13.0698 13.8828H8.78684C7.81939 13.8839 6.89186 14.2687 6.20777 14.9528C5.52368 15.6368 5.1389 16.5643 5.13784 17.5318L5.13283 17.9788C5.11124 18.436 5.13099 18.8942 5.19184 19.3478C5.20865 19.4449 5.20617 19.5443 5.18456 19.6404C5.16295 19.7365 5.12263 19.8273 5.06589 19.9078C5.00916 19.9883 4.93713 20.0569 4.8539 20.1096C4.77068 20.1622 4.67788 20.198 4.58083 20.2148C4.5382 20.2219 4.49506 20.2257 4.45183 20.2258Z" fill="#000000" />
<path d="M19.1261 21.3074H16.5051C15.9613 21.3068 15.4399 21.0906 15.0554 20.7061C14.6709 20.3215 14.4546 19.8002 14.4541 19.2564V17.7854C14.4546 17.2416 14.6709 16.7202 15.0554 16.3357C15.4399 15.9512 15.9613 15.7349 16.5051 15.7344H19.1261C19.6697 15.7352 20.1908 15.9516 20.5751 16.3361C20.9595 16.7206 21.1756 17.2418 21.1761 17.7854V19.2564C21.1756 19.8 20.9595 20.3213 20.5751 20.7057C20.1908 21.0902 19.6697 21.3066 19.1261 21.3074ZM16.5051 17.2344C16.359 17.2346 16.219 17.2928 16.1158 17.3961C16.0125 17.4993 15.9544 17.6393 15.9541 17.7854V19.2564C15.9541 19.4025 16.0121 19.5427 16.1155 19.646C16.2188 19.7493 16.359 19.8074 16.5051 19.8074H19.1261C19.2721 19.8071 19.412 19.7489 19.5151 19.6456C19.6182 19.5423 19.6761 19.4024 19.6761 19.2564V17.7854C19.6758 17.6395 19.6178 17.4997 19.5148 17.3964C19.4117 17.2932 19.272 17.2349 19.1261 17.2344H16.5051Z" fill="#000000" />
<path d="M19.3789 17.2621C19.18 17.2621 18.9893 17.1831 18.8486 17.0425C18.708 16.9018 18.6289 16.7111 18.6289 16.5121V15.5442C18.629 15.4369 18.6075 15.3307 18.5656 15.2319C18.5238 15.1331 18.4626 15.0437 18.3855 14.9691C18.3084 14.8944 18.2171 14.8361 18.1171 14.7974C18.017 14.7588 17.9102 14.7407 17.8029 14.7441C17.5916 14.7467 17.3896 14.8319 17.2401 14.9813C17.0906 15.1308 17.0055 15.3328 17.0029 15.5442V16.5062C17.0029 16.7051 16.9239 16.8958 16.7833 17.0365C16.6426 17.1772 16.4518 17.2562 16.2529 17.2562C16.054 17.2562 15.8632 17.1772 15.7226 17.0365C15.5819 16.8958 15.5029 16.7051 15.5029 16.5062V15.5312C15.5074 14.9263 15.7493 14.3474 16.1765 13.9193C16.6037 13.4911 17.1821 13.2479 17.7869 13.2422H17.8139C18.4232 13.2424 19.0079 13.4825 19.4415 13.9105C19.8751 14.3385 20.1228 14.92 20.1309 15.5292V16.5062C20.1317 16.6053 20.1128 16.7037 20.0754 16.7955C20.0379 16.8873 19.9826 16.9708 19.9127 17.0411C19.8428 17.1114 19.7596 17.1671 19.668 17.2051C19.5763 17.243 19.4781 17.2624 19.3789 17.2621Z" fill="#000000" />
</svg>