<svg width="24px"  height="24px"  viewBox="0 0 25 24" fill="none" xmlns="http://www.w3.org/2000/svg">
<path fill-rule="evenodd" clip-rule="evenodd" d="M10.9781 4.22656C8.79614 4.22656 7.02734 5.99536 7.02734 8.17728C7.02734 10.3592 8.79614 12.128 10.9781 12.128C13.16 12.128 14.9288 10.3592 14.9288 8.17728C14.9288 5.99536 13.16 4.22656 10.9781 4.22656ZM5.52734 8.17728C5.52734 5.16693 7.96771 2.72656 10.9781 2.72656C13.9884 2.72656 16.4288 5.16693 16.4288 8.17728C16.4288 11.1876 13.9884 13.628 10.9781 13.628C7.96771 13.628 5.52734 11.1876 5.52734 8.17728Z" fill="#000000" />
<path fill-rule="evenodd" clip-rule="evenodd" d="M3.74592 17.5589C3.74592 14.7153 6.05111 12.4102 8.8947 12.4102H13.178C13.5591 12.4102 13.9314 12.4517 14.2903 12.5308C14.6948 12.6199 14.9505 13.0201 14.8613 13.4246C14.7722 13.8291 14.372 14.0848 13.9675 13.9956C13.714 13.9398 13.4499 13.9102 13.178 13.9102H8.8947C6.87953 13.9102 5.24592 15.5438 5.24592 17.5589C5.24592 17.734 5.2434 17.8988 5.241 18.0561C5.23358 18.5425 5.22726 18.9565 5.29992 19.3748C5.3708 19.7829 5.09743 20.1712 4.68933 20.2421C4.28122 20.313 3.89293 20.0396 3.82204 19.6315C3.72274 19.0598 3.7329 18.4542 3.74149 17.9426C3.74376 17.8073 3.74592 17.6787 3.74592 17.5589Z" fill="#000000" />
<path fill-rule="evenodd" clip-rule="evenodd" d="M17.4766 13.7446C17.5613 13.726 17.6949 13.6992 17.8238 13.6992C17.9525 13.6992 18.086 13.726 18.1708 13.7445C18.2732 13.767 18.3887 13.7973 18.5078 13.8313C18.7469 13.8996 19.0283 13.9909 19.3014 14.0872C19.5741 14.1833 19.8493 14.2882 20.0747 14.3849C20.1866 14.4329 20.2954 14.4829 20.3892 14.532C20.4556 14.5667 20.6025 14.6446 20.7181 14.7608L20.7181 14.7608C20.8441 14.8874 20.9547 15.0481 21.0132 15.2748C21.0581 15.4488 21.0637 15.6352 21.0648 15.7968C21.0658 15.9353 21.0626 16.113 21.0586 16.3312C21.0576 16.3863 21.0565 16.4441 21.0555 16.5044C21.0502 16.8101 21.0446 17.2023 21.0446 17.7124C21.0446 19.0843 20.213 19.9845 19.4976 20.4998C19.1353 20.7608 18.7778 20.9432 18.5131 21.0602C18.3797 21.1191 18.2672 21.1627 18.1856 21.1923C18.1448 21.2071 18.1115 21.2185 18.0871 21.2266L18.0572 21.2363L18.0474 21.2393L18.0439 21.2404L18.0425 21.2409L18.0418 21.241C18.0416 21.2411 18.0413 21.2412 17.8238 20.5234C17.6063 21.2412 17.6061 21.2412 17.6058 21.2411L17.6052 21.2409L17.6037 21.2404L17.6002 21.2394L17.5905 21.2363L17.5605 21.2266C17.5361 21.2185 17.5028 21.2072 17.462 21.1923C17.3804 21.1628 17.2678 21.1192 17.1344 21.0602C16.8696 20.9432 16.512 20.7609 16.1496 20.4999C15.434 19.9846 14.602 19.0844 14.602 17.7124C14.602 17.2023 14.5965 16.8099 14.5913 16.5041C14.5903 16.446 14.5893 16.3904 14.5883 16.3371C14.5844 16.1158 14.5812 15.9359 14.5822 15.7959C14.5835 15.6341 14.5893 15.4475 14.6344 15.2735C14.6932 15.0467 14.8043 14.8859 14.9307 14.7596C15.0462 14.644 15.1925 14.5666 15.2583 14.5321C15.3519 14.4831 15.4607 14.4333 15.5725 14.3853C15.7978 14.2887 16.073 14.1838 16.3457 14.0876C16.6188 13.9913 16.9003 13.8999 17.1395 13.8315C17.2586 13.7974 17.3741 13.7671 17.4766 13.7446ZM17.8238 20.5234L17.6063 21.2412C17.7481 21.2842 17.8995 21.2842 18.0413 21.2412L17.8238 20.5234ZM17.8237 19.7238C17.7978 19.7131 17.7701 19.7012 17.7407 19.6882C17.542 19.6004 17.2817 19.4667 17.0262 19.2827C16.5059 18.908 16.102 18.4027 16.102 17.7124C16.102 17.1908 16.0964 16.7893 16.0911 16.4785C16.09 16.4142 16.0889 16.3546 16.0879 16.2991C16.084 16.0806 16.0813 15.9265 16.0822 15.8075C16.0822 15.8048 16.0822 15.8022 16.0823 15.7996C16.1071 15.7884 16.1343 15.7765 16.1638 15.7638C16.3495 15.6842 16.5918 15.5913 16.8445 15.5022C17.0968 15.4133 17.3487 15.3318 17.5519 15.2737C17.654 15.2445 17.737 15.2231 17.798 15.2098C17.8079 15.2076 17.8165 15.2058 17.8238 15.2043C17.8312 15.2058 17.8397 15.2076 17.8496 15.2097C17.9106 15.2231 17.9936 15.2444 18.0957 15.2736C18.2988 15.3316 18.5506 15.413 18.8027 15.5019C19.0554 15.591 19.2976 15.6838 19.4832 15.7634C19.5128 15.7761 19.54 15.788 19.5648 15.7992C19.5648 15.8019 19.5649 15.8045 19.5649 15.8073C19.5657 15.925 19.5629 16.0769 19.559 16.2915C19.558 16.3491 19.5568 16.4112 19.5557 16.4784C19.5503 16.7893 19.5446 17.1908 19.5446 17.7124C19.5446 18.4028 19.1408 18.9081 18.6208 19.2827C18.3654 19.4667 18.1052 19.6005 17.9066 19.6883C17.8773 19.7012 17.8496 19.7131 17.8237 19.7238ZM19.7308 15.8819C19.7307 15.8819 19.7289 15.8808 19.7257 15.8787C19.7293 15.8808 19.7309 15.8819 19.7308 15.8819ZM15.9162 15.8823C15.9161 15.8823 15.9177 15.8812 15.9214 15.879C15.9181 15.8812 15.9163 15.8823 15.9162 15.8823Z" fill="#000000" />
</svg>