<svg width="24px"  height="24px"  viewBox="0 0 25 24" fill="none" xmlns="http://www.w3.org/2000/svg">
<path d="M11.5186 20.746C9.78655 20.746 4.51855 20.746 4.51855 17.425C4.51855 14.125 9.60755 14.125 11.5186 14.125C11.7175 14.125 11.9082 14.204 12.0489 14.3447C12.1895 14.4853 12.2686 14.6761 12.2686 14.875C12.2686 15.0739 12.1895 15.2647 12.0489 15.4053C11.9082 15.546 11.7175 15.625 11.5186 15.625C9.00756 15.625 6.01855 15.938 6.01855 17.425C6.01855 18.912 9.01155 19.246 11.5186 19.246C11.7175 19.246 11.9082 19.325 12.0489 19.4657C12.1895 19.6063 12.2686 19.7971 12.2686 19.996C12.2686 20.1949 12.1895 20.3857 12.0489 20.5263C11.9082 20.667 11.7175 20.746 11.5186 20.746Z" fill="#000000" />
<path d="M16.7837 20.7028C16.6785 20.7026 16.5744 20.6803 16.4783 20.6375C16.3822 20.5946 16.2961 20.532 16.2257 20.4538L13.4727 17.3948C13.3674 17.2787 13.3012 17.1326 13.2832 16.9769C13.2653 16.8212 13.2966 16.6638 13.3727 16.5268L14.2907 14.8908C14.3559 14.7746 14.4508 14.6779 14.5658 14.6106C14.6807 14.5433 14.8115 14.5078 14.9447 14.5078H18.6157C18.7489 14.5078 18.8797 14.5433 18.9946 14.6106C19.1096 14.6779 19.2045 14.7746 19.2697 14.8908L20.1867 16.5268C20.2631 16.6637 20.2946 16.8212 20.2766 16.9769C20.2587 17.1327 20.1922 17.2789 20.0867 17.3948L17.3417 20.4488C17.2718 20.5281 17.186 20.5917 17.0898 20.6354C16.9937 20.6792 16.8894 20.7022 16.7837 20.7028ZM14.9477 16.7918L16.7837 18.8318L18.6187 16.7918L18.1787 16.0078H15.3877L14.9477 16.7918Z" fill="#000000" />
<path d="M11.5204 12.74C10.5818 12.7398 9.66431 12.4612 8.88404 11.9396C8.10378 11.4179 7.49575 10.6765 7.13689 9.80921C6.77802 8.94193 6.68444 7.98769 6.86796 7.06721C7.05148 6.14673 7.50388 5.30135 8.16792 4.63801C8.83196 3.97467 9.67781 3.52317 10.5985 3.34062C11.5192 3.15806 12.4733 3.25266 13.3402 3.61244C14.2071 3.97222 14.9478 4.58101 15.4687 5.36183C15.9896 6.14264 16.2672 7.0604 16.2664 7.999C16.2642 9.25661 15.7634 10.462 14.8737 11.3508C13.9839 12.2396 12.778 12.7392 11.5204 12.74ZM11.5204 4.749C10.8788 4.7492 10.2517 4.93957 9.71833 5.29603C9.18493 5.6525 8.76917 6.15908 8.52357 6.75175C8.27797 7.34442 8.21356 7.99657 8.33848 8.62583C8.4634 9.2551 8.77204 9.83323 9.2254 10.2871C9.67876 10.7411 10.2565 11.0504 10.8856 11.1761C11.5147 11.3018 12.167 11.2382 12.7599 10.9933C13.3529 10.7485 13.86 10.3333 14.2171 9.80036C14.5742 9.26741 14.7654 8.64055 14.7664 7.999C14.7666 7.57247 14.6829 7.15007 14.5199 6.7559C14.3569 6.36173 14.1179 6.00352 13.8165 5.70173C13.515 5.39994 13.1571 5.16049 12.7632 4.99702C12.3692 4.83355 11.9469 4.74927 11.5204 4.749Z" fill="#000000" />
</svg>