<svg width="24px"  height="24px"  viewBox="0 0 25 24" fill="none" xmlns="http://www.w3.org/2000/svg">
<path fill-rule="evenodd" clip-rule="evenodd" d="M17.0439 7.75483C17.3368 7.46193 17.8117 7.46193 18.1045 7.75483L19.3785 9.02878L20.6173 7.78999C20.9102 7.4971 21.385 7.4971 21.6779 7.78999C21.9708 8.08288 21.9708 8.55776 21.6779 8.85065L20.4392 10.0894L21.7138 11.3641C22.0067 11.657 22.0067 12.1319 21.7138 12.4248C21.421 12.7177 20.9461 12.7177 20.6532 12.4248L19.3785 11.1501L18.1393 12.3893C17.8464 12.6822 17.3715 12.6822 17.0786 12.3893C16.7857 12.0964 16.7857 11.6215 17.0786 11.3287L18.3178 10.0894L17.0439 8.81549C16.751 8.52259 16.751 8.04772 17.0439 7.75483Z" fill="#000000" />
<path fill-rule="evenodd" clip-rule="evenodd" d="M10.6484 13.4297L10.6484 13.4298C12.7893 13.4501 14.6769 13.6834 16.0517 14.2993C16.7491 14.6117 17.3495 15.0379 17.7741 15.6176C18.2051 16.2061 18.42 16.9058 18.4154 17.6962L18.4153 17.714L18.4144 17.7317C18.3722 18.5241 18.0829 19.2582 17.5326 19.7971C16.9786 20.3397 16.2186 20.6268 15.3475 20.6268H5.93514C5.06345 20.6268 4.30163 20.3402 3.74664 19.7975C3.1949 19.258 2.90566 18.5224 2.86803 17.7273L2.86719 17.7096V17.6918C2.86719 16.9003 3.08456 16.2003 3.51615 15.6116C3.94162 15.0313 4.54177 14.6045 5.23919 14.2919C6.61382 13.6756 8.49826 13.445 10.636 13.4298L10.6484 13.4297ZM4.36724 17.6739C4.39301 18.1419 4.55794 18.4929 4.79535 18.725C5.03245 18.9569 5.3995 19.1268 5.93514 19.1268H15.3475C15.8811 19.1268 16.2463 18.9573 16.4831 18.7254C16.7207 18.4927 16.8869 18.1401 16.9155 17.6695C16.9152 17.1793 16.785 16.8057 16.564 16.5039C16.3338 16.1896 15.9703 15.9065 15.4385 15.6682C14.3559 15.1833 12.726 14.95 10.6404 14.9298C8.55911 14.9451 6.93366 15.1761 5.85281 15.6606C5.32195 15.8986 4.95769 16.1824 4.72583 16.4986C4.50278 16.8028 4.37037 17.1798 4.36724 17.6739Z" fill="#000000" />
<path fill-rule="evenodd" clip-rule="evenodd" d="M10.6473 4.875C9.10112 4.875 7.84766 6.12846 7.84766 7.67469C7.84766 9.22091 9.10112 10.4744 10.6473 10.4744C12.1936 10.4744 13.447 9.22092 13.447 7.67469C13.447 6.12846 12.1936 4.875 10.6473 4.875ZM6.34766 7.67469C6.34766 5.30004 8.27269 3.375 10.6473 3.375C13.022 3.375 14.947 5.30004 14.947 7.67469C14.947 10.0493 13.022 11.9744 10.6473 11.9744C8.27269 11.9744 6.34766 10.0493 6.34766 7.67469Z" fill="#000000" />
</svg>