<svg width="24px"  height="24px"  viewBox="0 0 25 24" fill="none" xmlns="http://www.w3.org/2000/svg">
<path fill-rule="evenodd" clip-rule="evenodd" d="M11.2046 4.23438C9.0227 4.23438 7.25391 6.00317 7.25391 8.18509C7.25391 10.367 9.0227 12.1358 11.2046 12.1358C13.3865 12.1358 15.1553 10.367 15.1553 8.18509C15.1553 6.00317 13.3865 4.23438 11.2046 4.23438ZM5.75391 8.18509C5.75391 5.17474 8.19427 2.73438 11.2046 2.73438C14.215 2.73438 16.6553 5.17474 16.6553 8.18509C16.6553 11.1954 14.215 13.6358 11.2046 13.6358C8.19427 13.6358 5.75391 11.1954 5.75391 8.18509Z" fill="#000000" />
<path fill-rule="evenodd" clip-rule="evenodd" d="M3.97248 17.5707C3.97248 14.7271 6.27767 12.4219 9.12126 12.4219H13.4046C14.7882 12.4219 16.0456 12.9686 16.9701 13.8562C17.2689 14.143 17.2785 14.6178 16.9917 14.9166C16.7048 15.2154 16.23 15.2251 15.9312 14.9382C15.2749 14.308 14.3856 13.9219 13.4046 13.9219H9.12126C7.10609 13.9219 5.47248 15.5555 5.47248 17.5707C5.47248 17.7457 5.46996 17.9105 5.46756 18.0678C5.46014 18.5542 5.45382 18.9682 5.52648 19.3865C5.59736 19.7946 5.32399 20.1829 4.91589 20.2538C4.50778 20.3247 4.11949 20.0513 4.04861 19.6432C3.9493 19.0715 3.95946 18.466 3.96805 17.9543C3.97032 17.8191 3.97248 17.6904 3.97248 17.5707Z" fill="#000000" />
<path fill-rule="evenodd" clip-rule="evenodd" d="M20.6175 16.2586C20.9104 16.5514 20.9106 17.0263 20.6178 17.3193L16.8957 21.0432C16.755 21.184 16.5641 21.2631 16.365 21.2631C16.166 21.263 15.9751 21.1838 15.8345 21.043L14.0278 19.2335C13.7352 18.9404 13.7356 18.4655 14.0287 18.1728C14.3218 17.8802 14.7967 17.8805 15.0893 18.1737L16.3655 19.4518L19.5568 16.2589C19.8496 15.9659 20.3245 15.9658 20.6175 16.2586Z" fill="#000000" />
</svg>