<svg width="24px"  height="24px"  viewBox="0 0 25 24" fill="none" xmlns="http://www.w3.org/2000/svg">
<path fill-rule="evenodd" clip-rule="evenodd" d="M5.113 7.07454C4.55525 7.67193 4.21094 8.55107 4.21094 9.65023V16.7199C4.21094 17.8146 4.55329 18.6911 5.1097 19.2871C5.66073 19.8772 6.4757 20.251 7.54552 20.251H17.2617C18.3369 20.251 19.1486 19.877 19.6956 19.2884C20.2484 18.6934 20.5875 17.8169 20.5875 16.7199V9.65023C20.5875 8.54762 20.2479 7.6684 19.6959 7.07236C19.1498 6.48284 18.3404 6.10938 17.2705 6.10938H14.1871C13.7729 6.10938 13.4371 5.77359 13.4371 5.35938C13.4371 4.94516 13.7729 4.60938 14.1871 4.60938H17.2705C18.7127 4.60938 19.9369 5.12522 20.7963 6.05306C21.6497 6.97439 22.0875 8.24059 22.0875 9.65023V16.7199C22.0875 18.1254 21.6493 19.3895 20.7944 20.3094C19.9337 21.2358 18.7076 21.751 17.2617 21.751H7.54552C6.10406 21.751 4.87674 21.2355 4.01331 20.3108C3.15524 19.3918 2.71094 18.1277 2.71094 16.7199V9.65023C2.71094 8.23714 3.15766 6.97086 4.01658 6.05088C4.88073 5.12531 6.10783 4.60938 7.54552 4.60938H10.6114C11.0256 4.60938 11.3614 4.94516 11.3614 5.35938C11.3614 5.77359 11.0256 6.10938 10.6114 6.10938H7.54552C6.4807 6.10938 5.66551 6.48275 5.113 7.07454Z" fill="#000000" />
<path fill-rule="evenodd" clip-rule="evenodd" d="M7.8111 16.5702C7.51523 16.8383 7.40234 17.1723 7.40234 17.4598C7.40234 17.874 7.06656 18.2098 6.65234 18.2098C6.23813 18.2098 5.90234 17.874 5.90234 17.4598C5.90234 16.7821 6.17038 16.0327 6.80395 15.4586C7.43939 14.8829 8.37464 14.543 9.60826 14.543C10.8406 14.543 11.7756 14.8802 12.4113 15.4536C13.0457 16.0258 13.3142 16.7738 13.3142 17.452C13.3142 17.8662 12.9784 18.202 12.5642 18.202C12.15 18.202 11.8142 17.8662 11.8142 17.452C11.8142 17.165 11.7017 16.8335 11.4067 16.5675C11.113 16.3026 10.57 16.043 9.60826 16.043C8.64781 16.043 8.1051 16.3039 7.8111 16.5702Z" fill="#000000" />
<path fill-rule="evenodd" clip-rule="evenodd" d="M9.60829 10.2266C8.98044 10.2266 8.4707 10.7363 8.4707 11.3641C8.4707 11.9932 8.98069 12.5027 9.60829 12.5027C10.2371 12.5027 10.7468 11.993 10.7468 11.3641C10.7468 10.7365 10.2374 10.2266 9.60829 10.2266ZM6.9707 11.3641C6.9707 9.90787 8.15201 8.72656 9.60829 8.72656C11.0653 8.72656 12.2468 9.90762 12.2468 11.3641C12.2468 12.8214 11.0655 14.0027 9.60829 14.0027C8.15176 14.0027 6.9707 12.8211 6.9707 11.3641Z" fill="#000000" />
<path fill-rule="evenodd" clip-rule="evenodd" d="M13.7598 11.8178C13.7656 11.4036 14.106 11.0725 14.5201 11.0782L17.9684 11.1259C18.3826 11.1316 18.7137 11.472 18.7079 11.8862C18.7022 12.3003 18.3618 12.6315 17.9476 12.6257L14.4994 12.5781C14.0852 12.5723 13.7541 12.2319 13.7598 11.8178ZM15.052 15.5044C15.052 15.0902 15.3878 14.7544 15.802 14.7544H17.9581C18.3724 14.7544 18.7081 15.0902 18.7081 15.5044C18.7081 15.9187 18.3724 16.2544 17.9581 16.2544H15.802C15.3878 16.2544 15.052 15.9187 15.052 15.5044Z" fill="#000000" />
<path fill-rule="evenodd" clip-rule="evenodd" d="M11.5152 3.75C11.4323 3.75 11.3652 3.81703 11.3652 3.90001V6.5689C11.3652 6.65188 11.4323 6.71891 11.5152 6.71891H13.2909C13.3739 6.71891 13.4409 6.65188 13.4409 6.5689V3.90001C13.4409 3.81703 13.3739 3.75 13.2909 3.75H11.5152ZM9.86523 3.90001C9.86523 2.9886 10.6038 2.25 11.5152 2.25H13.2909C14.2023 2.25 14.9409 2.9886 14.9409 3.90001V6.5689C14.9409 7.48031 14.2023 8.21891 13.2909 8.21891H11.5152C10.6038 8.21891 9.86523 7.48031 9.86523 6.5689V3.90001Z" fill="#000000" />
</svg>