<svg width="24px"  height="24px"  viewBox="0 0 25 24" fill="none" xmlns="http://www.w3.org/2000/svg">
<path fill-rule="evenodd" clip-rule="evenodd" d="M15.9881 17.0742C15.754 17.0742 15.5645 17.2639 15.5645 17.4978V18.8254C15.5645 19.0598 15.7536 19.249 15.9881 19.249H18.3526C18.5866 19.249 18.7762 19.0595 18.7762 18.8254V17.4978C18.7762 17.2643 18.5862 17.0742 18.3526 17.0742H15.9881ZM14.0645 17.4978C14.0645 16.4362 14.9249 15.5742 15.9881 15.5742H18.3526C19.4146 15.5742 20.2762 16.4358 20.2762 17.4978V18.8254C20.2762 19.8886 19.4143 20.749 18.3526 20.749H15.9881C14.9252 20.749 14.0645 19.8883 14.0645 18.8254V17.4978Z" fill="#000000" />
<path fill-rule="evenodd" clip-rule="evenodd" d="M17.1428 13.3322C18.3362 13.3176 19.3161 14.2736 19.3307 15.4671L19.3308 15.4763L19.3307 16.3498C19.3307 16.764 18.9949 17.0998 18.5807 17.0998C18.1665 17.0998 17.8307 16.764 17.8307 16.3498V15.4817C17.8243 15.1187 17.5253 14.8279 17.1617 14.8321C16.8043 14.8372 16.5166 15.1229 16.5078 15.4778V16.3498C16.5078 16.764 16.172 17.0998 15.7578 17.0998C15.3436 17.0998 15.0078 16.764 15.0078 16.3498V15.4575C15.0277 14.2877 15.9738 13.3481 17.1418 13.3322L17.1428 13.3322Z" fill="#000000" />
<path fill-rule="evenodd" clip-rule="evenodd" d="M6.86722 14.4865C8.11077 14.0693 9.75029 13.9453 11.4263 13.9453C11.8405 13.9453 12.1763 14.2811 12.1763 14.6953C12.1763 15.1095 11.8405 15.4453 11.4263 15.4453C9.78213 15.4453 8.34618 15.5725 7.34432 15.9086C6.8472 16.0754 6.51304 16.2757 6.30985 16.4867C6.12444 16.6793 6.02539 16.9018 6.02539 17.206C6.02539 17.5122 6.12468 17.7371 6.31006 17.9314C6.51272 18.1439 6.84576 18.3456 7.34131 18.5141C8.34033 18.8537 9.77546 18.9849 11.4263 18.9849C11.8405 18.9849 12.1763 19.3207 12.1763 19.7349C12.1763 20.1491 11.8405 20.4849 11.4263 20.4849C9.74138 20.4849 8.10106 20.3566 6.85855 19.9343C6.23335 19.7218 5.65412 19.4169 5.2247 18.9668C4.77799 18.4985 4.52539 17.9048 4.52539 17.206C4.52539 16.5061 4.78018 15.9128 5.22928 15.4463C5.66061 14.9983 6.24164 14.6964 6.86722 14.4865Z" fill="#000000" />
<path fill-rule="evenodd" clip-rule="evenodd" d="M11.4271 4.75C9.6714 4.75 8.24805 6.17335 8.24805 7.92909C8.24805 9.68482 9.6714 11.1082 11.4271 11.1082C13.1829 11.1082 14.6062 9.68482 14.6062 7.92909C14.6062 6.17335 13.1829 4.75 11.4271 4.75ZM6.74805 7.92909C6.74805 5.34492 8.84297 3.25 11.4271 3.25C14.0113 3.25 16.1062 5.34492 16.1062 7.92909C16.1062 10.5132 14.0113 12.6082 11.4271 12.6082C8.84297 12.6082 6.74805 10.5132 6.74805 7.92909Z" fill="#000000" />
</svg>