<svg width="24px"  height="24px"  viewBox="0 0 25 24" fill="none" xmlns="http://www.w3.org/2000/svg">
<path fill-rule="evenodd" clip-rule="evenodd" d="M17.3152 12.4729C16.6559 12.6856 16.3058 13.4457 16.5742 14.2861C16.7917 14.9616 17.404 15.6257 18.0608 16.1595C18.37 16.4108 18.6648 16.6139 18.885 16.7556C19.1075 16.612 19.406 16.406 19.7184 16.1518C20.3804 15.6133 20.9895 14.9508 21.1974 14.2899L21.1985 14.2866C21.4663 13.4492 21.1156 12.6875 20.4561 12.4734C20.0729 12.3538 19.6556 12.4247 19.3328 12.6642C19.066 12.8621 18.7009 12.861 18.4353 12.6614C18.1158 12.4213 17.6981 12.3507 17.3152 12.4729ZM18.8859 17.6322C18.5272 18.2908 18.527 18.2907 18.5269 18.2906L18.5255 18.2899L18.523 18.2885L18.5153 18.2843L18.4896 18.2699C18.468 18.2577 18.4377 18.2404 18.3999 18.2182C18.3241 18.1737 18.2176 18.1095 18.089 18.0271C17.8327 17.8628 17.4841 17.6237 17.1147 17.3235C16.4019 16.7441 15.5014 15.8498 15.1461 14.7446L15.1457 14.7435C14.7035 13.3608 15.1836 11.5833 16.8563 11.0448L16.8578 11.0443C17.5334 10.8284 18.2605 10.8839 18.888 11.1884C19.5125 10.8883 20.2344 10.8312 20.9087 11.0433L20.9137 11.0449C22.5824 11.5826 23.0698 13.357 22.6278 14.7418C22.2815 15.8401 21.3777 16.7356 20.665 17.3154C20.2946 17.6168 19.9444 17.8576 19.6868 18.0234C19.5576 18.1065 19.4505 18.1714 19.3745 18.2163C19.3364 18.2388 19.306 18.2563 19.2844 18.2686L19.2586 18.2831L19.2509 18.2874L19.2484 18.2888L19.2474 18.2893C19.2473 18.2894 19.2468 18.2897 18.8859 17.6322ZM18.8859 17.6322L19.2474 18.2893C19.0234 18.4122 18.7513 18.4129 18.5269 18.2906L18.8859 17.6322Z" fill="#000000" />
<path fill-rule="evenodd" clip-rule="evenodd" d="M11.0371 13.4297L11.0371 13.4298C11.5178 13.4344 11.9829 13.4497 12.43 13.4772C12.8435 13.5026 13.158 13.8584 13.1326 14.2718C13.1071 14.6853 12.7514 14.9998 12.3379 14.9744C11.9219 14.9488 11.4851 14.9342 11.0291 14.9298C8.94778 14.9451 7.32234 15.1761 6.24148 15.6606C5.71062 15.8986 5.34636 16.1824 5.1145 16.4986C4.89145 16.8028 4.75905 17.1798 4.75592 17.6739C4.78168 18.1419 4.94661 18.4929 5.18402 18.725C5.42112 18.9569 5.78817 19.1268 6.32382 19.1268H15.7361C16.1504 19.1268 16.4861 19.4626 16.4861 19.8768C16.4861 20.291 16.1504 20.6268 15.7361 20.6268H6.32382C5.45213 20.6268 4.6903 20.3402 4.13531 19.7975C3.58357 19.258 3.29433 18.5224 3.2567 17.7273L3.25586 17.7096V17.6918C3.25586 16.9003 3.47323 16.2003 3.90482 15.6116C4.3303 15.0313 4.93044 14.6045 5.62786 14.2919C7.00249 13.6756 8.88694 13.445 11.0246 13.4298L11.0371 13.4297Z" fill="#000000" />
<path fill-rule="evenodd" clip-rule="evenodd" d="M11.036 4.875C9.48979 4.875 8.23633 6.12846 8.23633 7.67469C8.23633 9.22091 9.48979 10.4744 11.036 10.4744C12.5822 10.4744 13.8357 9.22092 13.8357 7.67469C13.8357 6.12846 12.5822 4.875 11.036 4.875ZM6.73633 7.67469C6.73633 5.30004 8.66137 3.375 11.036 3.375C13.4107 3.375 15.3357 5.30004 15.3357 7.67469C15.3357 10.0493 13.4107 11.9744 11.036 11.9744C8.66137 11.9744 6.73633 10.0493 6.73633 7.67469Z" fill="#000000" />
</svg>