<svg width="24px"  height="24px"  viewBox="0 0 25 25" fill="none" xmlns="http://www.w3.org/2000/svg">
<path fill-rule="evenodd" clip-rule="evenodd" d="M12.2944 5.09375C9.95503 5.09375 8.05859 6.99019 8.05859 9.32956C8.05859 11.6689 9.95503 13.5654 12.2944 13.5654C14.6338 13.5654 16.5302 11.6689 16.5302 9.32956C16.5302 6.99019 14.6338 5.09375 12.2944 5.09375ZM6.55859 9.32956C6.55859 6.16176 9.1266 3.59375 12.2944 3.59375C15.4622 3.59375 18.0302 6.16176 18.0302 9.32956C18.0302 12.4974 15.4622 15.0654 12.2944 15.0654C9.1266 15.0654 6.55859 12.4974 6.55859 9.32956Z" fill="#000000" />
<path fill-rule="evenodd" clip-rule="evenodd" d="M4.66833 19.2828C4.66833 16.2918 7.09296 13.8672 10.0839 13.8672H14.627C17.618 13.8672 20.0426 16.2918 20.0426 19.2828C20.0426 19.3707 20.0434 19.4599 20.0447 19.5513C20.0648 21.0559 18.832 22.0949 17.4358 22.0949H7.27508C5.87892 22.0949 4.6461 21.0559 4.66626 19.5513C4.66748 19.4599 4.66833 19.3707 4.66833 19.2828ZM10.0839 15.3672C7.92139 15.3672 6.16833 17.1202 6.16833 19.2828C6.16833 19.38 6.1674 19.4766 6.16612 19.5714C6.1586 20.1333 6.60462 20.5949 7.27508 20.5949H17.4358C18.1063 20.5949 18.5523 20.1333 18.5448 19.5714C18.5435 19.4766 18.5426 19.38 18.5426 19.2828C18.5426 17.1202 16.7895 15.3672 14.627 15.3672H10.0839Z" fill="#000000" />
<path fill-rule="evenodd" clip-rule="evenodd" d="M16.2812 18.1172C16.6955 18.1172 17.0312 18.453 17.0312 18.8672V21.2796C17.0312 21.6938 16.6955 22.0296 16.2812 22.0296C15.867 22.0296 15.5312 21.6938 15.5312 21.2796V18.8672C15.5312 18.453 15.867 18.1172 16.2812 18.1172Z" fill="#000000" />
<path fill-rule="evenodd" clip-rule="evenodd" d="M8.42969 18.1172C8.8439 18.1172 9.17969 18.453 9.17969 18.8672V21.2796C9.17969 21.6938 8.8439 22.0296 8.42969 22.0296C8.01547 22.0296 7.67969 21.6938 7.67969 21.2796V18.8672C7.67969 18.453 8.01547 18.1172 8.42969 18.1172Z" fill="#000000" />
</svg>