<svg width="24px"  height="24px"  viewBox="0 0 25 24" fill="none" xmlns="http://www.w3.org/2000/svg">
<path fill-rule="evenodd" clip-rule="evenodd" d="M5.05674 6.00181C4.49617 6.60264 4.15039 7.48766 4.15039 8.59639V15.415C4.15039 16.5198 4.49424 17.4025 5.05348 18.0019C5.60724 18.5955 6.42719 18.9714 7.50634 18.9714H17.2935C18.3776 18.9714 19.1973 18.5951 19.7498 18.0022C20.3079 17.4033 20.6504 16.5208 20.6504 15.415V8.59639C20.6504 7.48558 20.3075 6.6006 19.7501 6.00064C19.1986 5.40693 18.3812 5.03125 17.3022 5.03125H7.50634C6.43218 5.03125 5.61198 5.40671 5.05674 6.00181ZM3.95998 4.97852C4.82772 4.04849 6.06049 3.53125 7.50634 3.53125H17.3022C18.752 3.53125 19.9837 4.04827 20.8491 4.9797C21.7086 5.90487 22.1504 7.17746 22.1504 8.59639V15.415C22.1504 16.8302 21.7082 18.1008 20.8472 19.0248C19.9806 19.9549 18.7469 20.4714 17.2935 20.4714H7.50634C6.05672 20.4714 4.8237 19.9545 3.95667 19.0252C3.09513 18.1017 2.65039 16.8311 2.65039 15.415V8.59639C2.65039 7.17538 3.09759 5.90284 3.95998 4.97852Z" fill="#000000" />
<path fill-rule="evenodd" clip-rule="evenodd" d="M7.77246 15.118C7.47354 15.3888 7.35938 15.7263 7.35938 16.0173C7.35938 16.4316 7.02359 16.7673 6.60938 16.7673C6.19516 16.7673 5.85938 16.4316 5.85938 16.0173C5.85938 15.3363 6.12856 14.5832 6.7654 14.0063C7.40405 13.4277 8.34442 13.0859 9.5857 13.0859C10.8256 13.0859 11.7656 13.4248 12.4046 14.0006C13.0424 14.5754 13.312 15.327 13.312 16.0086C13.312 16.4228 12.9762 16.7586 12.562 16.7586C12.1478 16.7586 11.812 16.4228 11.812 16.0086C11.812 15.7181 11.6983 15.3834 11.4004 15.1149C11.1036 14.8474 10.5555 14.5859 9.5857 14.5859C8.61735 14.5859 8.06956 14.8488 7.77246 15.118Z" fill="#000000" />
<path fill-rule="evenodd" clip-rule="evenodd" d="M9.58478 8.73047C8.94916 8.73047 8.43359 9.24603 8.43359 9.88166C8.43359 10.5173 8.94916 11.0328 9.58478 11.0328C10.2204 11.0328 10.736 10.5173 10.736 9.88166C10.736 9.24603 10.2204 8.73047 9.58478 8.73047ZM6.93359 9.88166C6.93359 8.41761 8.12073 7.23047 9.58478 7.23047C11.0488 7.23047 12.236 8.41761 12.236 9.88166C12.236 11.3457 11.0488 12.5328 9.58478 12.5328C8.12073 12.5328 6.93359 11.3457 6.93359 9.88166Z" fill="#000000" />
<path fill-rule="evenodd" clip-rule="evenodd" d="M13.7716 10.3374C13.7772 9.92319 14.1176 9.59204 14.5318 9.59773L18.0043 9.6454C18.4185 9.65109 18.7496 9.99145 18.744 10.4056C18.7383 10.8198 18.3979 11.1509 17.9837 11.1453L14.5112 11.0976C14.097 11.0919 13.7659 10.7515 13.7716 10.3374ZM15.0732 14.0496C15.0732 13.6354 15.409 13.2996 15.8232 13.2996H17.9939C18.4081 13.2996 18.7439 13.6354 18.7439 14.0496C18.7439 14.4638 18.4081 14.7996 17.9939 14.7996H15.8232C15.409 14.7996 15.0732 14.4638 15.0732 14.0496Z" fill="#000000" />
</svg>