<svg width="24px"  height="24px"  viewBox="0 0 25 24" fill="none" xmlns="http://www.w3.org/2000/svg">
<path fill-rule="evenodd" clip-rule="evenodd" d="M16.8887 16.0449L16.6605 16.5038L16.6597 16.5053C16.5156 16.7937 16.2411 16.9912 15.9273 17.0405L15.9183 17.0419L15.4216 17.1139L15.779 17.4578L15.7808 17.4596C16.0151 17.6866 16.1214 18.0154 16.064 18.3369L15.9779 18.8276L16.4335 18.5891C16.7198 18.4373 17.0656 18.4349 17.3558 18.5898L17.8022 18.8237L17.7176 18.3414C17.6581 18.0184 17.7648 17.6866 18.002 17.4587L18.3579 17.1147L17.8585 17.0426C17.5372 16.9957 17.2604 16.7938 17.1168 16.5039C17.1166 16.5036 17.1164 16.5032 17.1162 16.5029L16.8887 16.0449ZM19.1281 16.3704L19.1205 16.3776C19.123 16.3752 19.1255 16.3728 19.1281 16.3704ZM17.3292 14.0106C17.0912 13.8912 16.8192 13.8756 16.5751 13.957L16.572 13.958C16.3293 14.0401 16.1224 14.2157 16.0045 14.454L15.4367 15.596L14.1637 15.7805C14.1529 15.7821 14.1422 15.7839 14.1315 15.7859C13.9539 15.8196 13.779 15.9009 13.6334 16.033C13.6243 16.0412 13.6155 16.0496 13.6069 16.0582L13.606 16.059C13.2219 16.4432 13.2219 17.0679 13.6094 17.4517L14.5394 18.3467L14.3196 19.5992L14.3169 19.6158C14.2851 19.8244 14.3209 20.0347 14.4143 20.2181C14.4185 20.2264 14.4229 20.2346 14.4274 20.2427C14.6864 20.7075 15.2663 20.8855 15.7419 20.6442L16.8939 20.0412L18.0279 20.6354L18.0455 20.6443C18.2254 20.7326 18.4348 20.7693 18.6482 20.7349C19.1865 20.6487 19.5404 20.1464 19.4651 19.6229C19.464 19.6153 19.4628 19.6076 19.4615 19.6L19.2415 18.3469L20.1565 17.4624C20.5199 17.1178 20.5633 16.5533 20.2584 16.1566L20.2574 16.1553C20.1005 15.952 19.8696 15.8166 19.613 15.7803L18.341 15.5967L17.7728 14.4533L17.7694 14.4465C17.6726 14.2564 17.5171 14.1041 17.3292 14.0106Z" fill="#000000" />
<path fill-rule="evenodd" clip-rule="evenodd" d="M6.71175 14.6704C7.9737 14.2471 9.63832 14.1211 11.3411 14.1211C11.7554 14.1211 12.0911 14.4569 12.0911 14.8711C12.0911 15.2853 11.7554 15.6211 11.3411 15.6211C9.67009 15.6211 8.20907 15.7503 7.18884 16.0925C6.68254 16.2624 6.34088 16.4668 6.13248 16.6832C5.94186 16.8813 5.83984 17.1106 5.83984 17.4233C5.83984 17.7375 5.94194 17.9689 6.13246 18.1685C6.34027 18.3863 6.68077 18.5922 7.18548 18.7637C8.2028 19.1095 9.66305 19.2429 11.3411 19.2429C11.7554 19.2429 12.0911 19.5787 12.0911 19.9929C12.0911 20.4071 11.7554 20.7429 11.3411 20.7429C9.62893 20.7429 7.96353 20.6124 6.70278 20.1839C6.06845 19.9683 5.48181 19.6595 5.04724 19.204C4.59537 18.7305 4.33984 18.1302 4.33984 17.4233C4.33984 16.715 4.59751 16.1149 5.05183 15.6429C5.48839 15.1895 6.07695 14.8834 6.71175 14.6704Z" fill="#000000" />
<path fill-rule="evenodd" clip-rule="evenodd" d="M11.3416 4.75C9.55021 4.75 8.09766 6.20212 8.09766 7.99311C8.09766 9.78411 9.55021 11.2362 11.3416 11.2362C13.1328 11.2362 14.5847 9.78432 14.5847 7.99311C14.5847 6.2019 13.1328 4.75 11.3416 4.75ZM6.59766 7.99311C6.59766 5.37327 8.72221 3.25 11.3416 3.25C13.9613 3.25 16.0847 5.37348 16.0847 7.99311C16.0847 10.6128 13.9613 12.7362 11.3416 12.7362C8.72221 12.7362 6.59766 10.613 6.59766 7.99311Z" fill="#000000" />
</svg>