<svg width="24px"  height="24px"  viewBox="0 0 25 25" fill="none" xmlns="http://www.w3.org/2000/svg">
<path fill-rule="evenodd" clip-rule="evenodd" d="M12.3897 4.59375C10.4582 4.59375 8.89258 6.15869 8.89258 8.08964C8.89258 10.0206 10.4582 11.5855 12.3897 11.5855C14.3199 11.5855 15.8856 10.0207 15.8856 8.08964C15.8856 6.15854 14.3199 4.59375 12.3897 4.59375ZM7.39258 8.08964C7.39258 5.32968 9.63034 3.09375 12.3897 3.09375C15.148 3.09375 17.3856 5.32983 17.3856 8.08964C17.3856 10.8495 15.148 13.0855 12.3897 13.0855C9.63034 13.0855 7.39258 10.8496 7.39258 8.08964Z" fill="#000000" />
<path fill-rule="evenodd" clip-rule="evenodd" d="M12.3885 16.1875C8.56401 16.1875 7.04344 17.8897 6.6367 19.3594C6.63526 19.3647 6.63391 19.3727 6.64057 19.3884C6.64819 19.4063 6.66546 19.4301 6.69546 19.4489C8.3495 20.4885 10.3184 21.0933 12.4261 21.0933C14.5097 21.0933 16.4563 20.4996 18.108 19.4797C18.1384 19.4609 18.1562 19.437 18.1641 19.4187C18.1711 19.4026 18.1699 19.394 18.1684 19.3883C17.9617 18.6134 17.4734 17.8292 16.5824 17.2306C15.687 16.6291 14.342 16.1875 12.3885 16.1875ZM5.19103 18.9594C5.81722 16.6966 8.05061 14.6875 12.3885 14.6875C14.565 14.6875 16.2204 15.1804 17.4188 15.9855C18.6217 16.7936 19.3206 17.8881 19.6177 19.0016C19.8087 19.7176 19.4593 20.4082 18.896 20.756C17.0166 21.9165 14.7986 22.5933 12.4261 22.5933C10.0284 22.5933 7.78392 21.9047 5.89727 20.7189C5.33721 20.3669 4.99339 19.6736 5.19103 18.9594Z" fill="#000000" />
</svg>