<svg width="24px"  height="24px"  viewBox="0 0 25 24" fill="none" xmlns="http://www.w3.org/2000/svg">
<path fill-rule="evenodd" clip-rule="evenodd" d="M12.3429 4.75C10.1655 4.75 8.40039 6.51512 8.40039 8.6925C8.40039 10.8699 10.1655 12.635 12.3429 12.635C14.5203 12.635 16.2854 10.8699 16.2854 8.6925C16.2854 6.51512 14.5203 4.75 12.3429 4.75ZM6.90039 8.6925C6.90039 5.68669 9.33708 3.25 12.3429 3.25C15.3487 3.25 17.7854 5.68669 17.7854 8.6925C17.7854 11.6983 15.3487 14.135 12.3429 14.135C9.33708 14.135 6.90039 11.6983 6.90039 8.6925Z" fill="#000000" />
<path fill-rule="evenodd" clip-rule="evenodd" d="M5.1209 18.0591C5.1209 15.2197 7.42265 12.918 10.262 12.918H14.5379C17.3772 12.918 19.6789 15.2197 19.6789 18.0591C19.6789 18.1786 19.6811 18.307 19.6834 18.4419C19.6919 18.9527 19.7021 19.5574 19.6029 20.1282C19.5321 20.5363 19.1438 20.8097 18.7357 20.7388C18.3275 20.6679 18.0542 20.2797 18.1251 19.8716C18.1976 19.4541 18.1913 19.041 18.1839 18.5554C18.1815 18.3984 18.1789 18.2338 18.1789 18.0591C18.1789 16.0481 16.5488 14.418 14.5379 14.418H10.262C8.25107 14.418 6.6209 16.0481 6.6209 18.0591C6.6209 18.2338 6.61839 18.3984 6.61599 18.5554C6.60858 19.041 6.60228 19.4541 6.67479 19.8716C6.74567 20.2797 6.4723 20.6679 6.0642 20.7388C5.65609 20.8097 5.2678 20.5363 5.19691 20.1282C5.09776 19.5574 5.10791 18.9527 5.11648 18.4419C5.11875 18.307 5.1209 18.1786 5.1209 18.0591Z" fill="#000000" />
</svg>