<svg width="24px"  height="24px"  viewBox="0 0 25 24" fill="none" xmlns="http://www.w3.org/2000/svg">
<path fill-rule="evenodd" clip-rule="evenodd" d="M11.605 4.75C9.83717 4.75 8.4043 6.18287 8.4043 7.95073C8.4043 9.71783 9.83728 11.1515 11.605 11.1515C13.3728 11.1515 14.8058 9.71783 14.8058 7.95073C14.8058 6.18287 13.3729 4.75 11.605 4.75ZM6.9043 7.95073C6.9043 5.35445 9.00874 3.25 11.605 3.25C14.2013 3.25 16.3058 5.35445 16.3058 7.95073C16.3058 10.546 14.2014 12.6515 11.605 12.6515C9.00864 12.6515 6.9043 10.546 6.9043 7.95073Z" fill="#000000" />
<path fill-rule="evenodd" clip-rule="evenodd" d="M17.0007 13.7656C17.4149 13.7656 17.7507 14.1014 17.7507 14.5156V14.7905C18.1186 14.9018 18.4664 15.0969 18.7641 15.3759L19.0019 15.238C19.3602 15.0302 19.8191 15.1521 20.0269 15.5104C20.2348 15.8687 20.1128 16.3277 19.7545 16.5355L19.5134 16.6754C19.6018 17.0585 19.6017 17.4579 19.5132 17.841L19.7545 17.981C20.1128 18.1888 20.2348 18.6478 20.0269 19.0061C19.8191 19.3644 19.3602 19.4863 19.0019 19.2785L18.7635 19.1403C18.466 19.4192 18.1183 19.6144 17.7507 19.7256V20.0008C17.7507 20.415 17.4149 20.7508 17.0007 20.7508C16.5865 20.7508 16.2507 20.415 16.2507 20.0008V19.7253C15.8832 19.6139 15.5358 19.4187 15.2384 19.1397L14.9995 19.2783C14.6412 19.4861 14.1822 19.3642 13.9744 19.0059C13.7666 18.6476 13.8886 18.1886 14.2469 17.9808L14.4892 17.8402C14.4009 17.4576 14.4009 17.0587 14.4891 16.676L14.2469 16.5355C13.8886 16.3277 13.7666 15.8687 13.9744 15.5104C14.1822 15.1521 14.6412 15.0302 14.9995 15.238L15.238 15.3764C15.5355 15.0974 15.8831 14.9023 16.2507 14.7909V14.5156C16.2507 14.1014 16.5865 13.7656 17.0007 13.7656ZM16.2388 16.495C15.8176 16.9166 15.8177 17.5995 16.2391 18.0209C16.6597 18.4415 17.3429 18.4415 17.7635 18.0209C18.185 17.5994 18.185 16.9163 17.7636 16.4948C17.7636 16.4948 17.7635 16.4948 17.7635 16.4947L17.8426 16.4156M16.2388 16.495C16.2388 16.495 16.2388 16.495 16.2389 16.4949L16.2388 16.495ZM16.2389 16.4949C16.6595 16.075 17.3428 16.0749 17.7635 16.4947L16.2389 16.4949Z" fill="#000000" />
<path fill-rule="evenodd" clip-rule="evenodd" d="M7.02384 14.5475C8.27357 14.1284 9.92155 14.0039 11.6066 14.0039C12.0208 14.0039 12.3566 14.3397 12.3566 14.7539C12.3566 15.1681 12.0208 15.5039 11.6066 15.5039C9.95318 15.5039 8.50881 15.6316 7.5008 15.9696C7.00062 16.1374 6.66399 16.339 6.4591 16.5518C6.27197 16.7462 6.17188 16.9711 6.17188 17.2785C6.17188 17.5872 6.27208 17.8141 6.45916 18.0102C6.66355 18.2243 6.99911 18.4275 7.49778 18.5969C8.503 18.9385 9.94661 19.0703 11.6066 19.0703C12.0208 19.0703 12.3566 19.4061 12.3566 19.8203C12.3566 20.2345 12.0208 20.5703 11.6066 20.5703C9.91256 20.5703 8.26382 20.4414 7.01519 20.0171C6.38692 19.8037 5.80518 19.4976 5.374 19.0457C4.92551 18.5758 4.67188 17.9799 4.67188 17.2785C4.67188 16.5756 4.92756 15.9799 5.37844 15.5115C5.81155 15.0616 6.39515 14.7583 7.02384 14.5475Z" fill="#000000" />
</svg>