<svg width="24px"  height="24px"  viewBox="0 0 25 24" fill="none" xmlns="http://www.w3.org/2000/svg">
<path fill-rule="evenodd" clip-rule="evenodd" d="M10.7925 4.17969C8.61059 4.17969 6.8418 5.94848 6.8418 8.1304C6.8418 10.3123 8.61059 12.0811 10.7925 12.0811C12.9744 12.0811 14.7432 10.3123 14.7432 8.1304C14.7432 5.94848 12.9744 4.17969 10.7925 4.17969ZM5.3418 8.1304C5.3418 5.12006 7.78216 2.67969 10.7925 2.67969C13.8029 2.67969 16.2432 5.12006 16.2432 8.1304C16.2432 11.1407 13.8029 13.5811 10.7925 13.5811C7.78216 13.5811 5.3418 11.1407 5.3418 8.1304Z" fill="#000000" />
<path fill-rule="evenodd" clip-rule="evenodd" d="M3.56232 17.516C3.56232 14.6724 5.86751 12.3672 8.7111 12.3672H12.9944C13.3756 12.3672 13.7478 12.4087 14.1067 12.4878C14.5112 12.5769 14.7669 12.9771 14.6777 13.3816C14.5886 13.7861 14.1884 14.0418 13.7839 13.9527C13.5304 13.8968 13.2663 13.8672 12.9944 13.8672H8.7111C6.69594 13.8672 5.06232 15.5008 5.06232 17.516C5.06232 17.691 5.05981 17.8558 5.05741 18.0131C5.04998 18.4995 5.04366 18.9135 5.11632 19.3319C5.18721 19.74 4.91384 20.1283 4.50573 20.1991C4.09763 20.27 3.70933 19.9966 3.63845 19.5885C3.53915 19.0168 3.54931 18.4113 3.55789 17.8996C3.56016 17.7644 3.56232 17.6357 3.56232 17.516Z" fill="#000000" />
<path fill-rule="evenodd" clip-rule="evenodd" d="M17.2433 15.7456L16.8775 16.4814L16.8767 16.483C16.7295 16.7773 16.4467 16.9897 16.1103 17.0394L16.1087 17.0396L15.3009 17.1571L15.8892 17.723C16.126 17.9561 16.2369 18.2923 16.1796 18.6244L16.1792 18.6268L16.0389 19.4248L16.7709 19.0422C17.0701 18.8824 17.429 18.8825 17.7282 19.0424L18.4508 19.4209L18.3123 18.6325C18.2499 18.2966 18.3619 17.9521 18.6089 17.7169L19.187 17.1577L18.3814 17.041C18.046 16.9938 17.7574 16.7826 17.6093 16.4816L17.2433 15.7456ZM20.17 17.3001C20.1668 17.2997 20.1636 17.2993 20.1605 17.2988L20.17 17.3001ZM19.8971 16.471C19.8995 16.4687 19.9019 16.4664 19.9044 16.4641L19.8971 16.471ZM16.9197 13.7046C17.1762 13.6193 17.4551 13.6394 17.6958 13.7579L17.705 13.7624C17.8937 13.8586 18.0546 14.0129 18.1565 14.213L18.1598 14.2195L18.8421 15.5921L20.3657 15.8129C20.641 15.85 20.8787 15.9961 21.0378 16.2022L21.0394 16.2043C21.3528 16.6133 21.3115 17.1973 20.9326 17.5562L19.833 18.6197L20.0976 20.1252C20.0989 20.1326 20.1001 20.14 20.1011 20.1475C20.1808 20.6977 19.8055 21.2094 19.2589 21.3005L19.2469 21.3025C19.0415 21.3333 18.8223 21.3039 18.6232 21.2044L18.6106 21.1979L17.2491 20.4848L15.8705 21.2054C15.3753 21.4586 14.7716 21.2718 14.5038 20.7883L14.4943 20.7706C14.3936 20.5766 14.3574 20.3555 14.3903 20.1399L14.3931 20.1231L14.6575 18.6195L13.5487 17.553L13.5384 17.5428C13.1409 17.1453 13.1409 16.4995 13.5384 16.102C13.547 16.0934 13.5558 16.085 13.5648 16.0768C13.7094 15.9456 13.8924 15.8525 14.094 15.8172C14.1012 15.8159 14.1084 15.8147 14.1156 15.8137L15.6449 15.5913L16.3268 14.2196L16.3276 14.218C16.4441 13.985 16.6518 13.7928 16.9197 13.7046ZM19.7862 18.3541C19.7868 18.3572 19.7874 18.3603 19.7879 18.3634L19.7862 18.3541Z" fill="#000000" />
</svg>