<svg width="24px"  height="24px"  viewBox="0 0 25 24" fill="none" xmlns="http://www.w3.org/2000/svg">
<path fill-rule="evenodd" clip-rule="evenodd" d="M7.54874 14.6744C8.81127 14.251 10.4767 14.125 12.1803 14.125C12.5945 14.125 12.9303 14.4608 12.9303 14.875C12.9303 15.2892 12.5945 15.625 12.1803 15.625C10.5084 15.625 9.04656 15.7542 8.02571 16.0965C7.5191 16.2664 7.1772 16.4709 6.96864 16.6875C6.77786 16.8856 6.67578 17.1151 6.67578 17.428C6.67578 17.7423 6.77796 17.9739 6.96868 18.1738C7.17668 18.3918 7.51746 18.5978 8.02247 18.7695C9.04039 19.1156 10.5014 19.2491 12.1803 19.2491C12.5945 19.2491 12.9303 19.5849 12.9303 19.9991C12.9303 20.4133 12.5945 20.7491 12.1803 20.7491C10.4672 20.7491 8.80101 20.6185 7.53965 20.1897C6.90504 19.9739 6.31817 19.6649 5.88344 19.2093C5.43143 18.7355 5.17578 18.135 5.17578 17.428C5.17578 16.7195 5.43358 16.1192 5.8881 15.6471C6.32485 15.1935 6.91366 14.8874 7.54874 14.6744Z" fill="#000000" />
<path fill-rule="evenodd" clip-rule="evenodd" d="M14.8525 14.79C15.1454 14.4971 15.6202 14.4971 15.9131 14.79L17.127 16.0039L18.3076 14.8233C18.6005 14.5304 19.0753 14.5304 19.3682 14.8233C19.6611 15.1162 19.6611 15.5911 19.3682 15.884L18.1877 17.0645L19.4036 18.2804C19.6965 18.5733 19.6965 19.0482 19.4036 19.3411C19.1107 19.634 18.6358 19.634 18.3429 19.3411L17.127 18.1252L15.9461 19.3061C15.6532 19.599 15.1783 19.599 14.8854 19.3061C14.5925 19.0133 14.5925 18.5384 14.8854 18.2455L16.0664 17.0645L14.8525 15.8506C14.5596 15.5577 14.5596 15.0829 14.8525 14.79Z" fill="#000000" />
<path fill-rule="evenodd" clip-rule="evenodd" d="M12.1783 4.75C10.3865 4.75 8.93359 6.20334 8.93359 7.99553C8.93359 9.78771 10.3865 11.2411 12.1783 11.2411C13.971 11.2411 15.4238 9.78761 15.4238 7.99553C15.4238 6.20345 13.971 4.75 12.1783 4.75ZM7.43359 7.99553C7.43359 5.37534 9.55764 3.25 12.1783 3.25C14.7996 3.25 16.9238 5.37523 16.9238 7.99553C16.9238 10.6158 14.7996 12.7411 12.1783 12.7411C9.55764 12.7411 7.43359 10.6157 7.43359 7.99553Z" fill="#000000" />
</svg>