<svg width="24px"  height="24px"  viewBox="0 0 25 24" fill="none" xmlns="http://www.w3.org/2000/svg">
<path d="M8.80759 19.7273C8.78559 19.7273 8.76358 19.7273 8.74158 19.7273C5.57958 19.4503 3.97559 18.3843 3.97559 16.5583C3.97559 13.6023 8.18658 13.4143 9.57558 13.3523C9.77449 13.3435 9.96873 13.4142 10.1156 13.5486C10.2624 13.6831 10.3498 13.8704 10.3586 14.0693C10.3673 14.2682 10.2967 14.4625 10.1622 14.6093C10.0278 14.7561 9.8405 14.8435 9.64159 14.8523C6.88059 14.9763 5.48058 15.5523 5.48058 16.5603C5.48058 17.4743 6.62358 18.0373 8.88058 18.2353C9.0795 18.2439 9.26684 18.3312 9.4014 18.478C9.53595 18.6247 9.6067 18.8189 9.59808 19.0178C9.58946 19.2167 9.50217 19.404 9.35542 19.5386C9.20868 19.6732 9.01449 19.7439 8.81558 19.7353L8.80759 19.7273Z" fill="#000000" />
<path d="M16.0965 21.2527C15.6523 21.2536 15.2251 21.0822 14.9045 20.7747C14.8875 20.7597 14.8705 20.7427 14.8545 20.7257L14.5675 20.4387C14.5473 20.4186 14.5232 20.4026 14.4968 20.3918C14.4704 20.381 14.4421 20.3755 14.4135 20.3757H13.9725C13.7463 20.3759 13.5222 20.3316 13.313 20.2453C13.1039 20.1589 12.9138 20.0323 12.7536 19.8724C12.5934 19.7126 12.4663 19.5228 12.3795 19.3139C12.2926 19.1049 12.2478 18.8809 12.2475 18.6547V18.2107C12.2476 18.1814 12.2418 18.1525 12.2304 18.1255C12.2191 18.0985 12.2025 18.0741 12.1815 18.0537L11.8755 17.7467C11.5535 17.4249 11.3718 16.9888 11.3701 16.5335C11.3684 16.0783 11.5469 15.6409 11.8665 15.3167L11.8925 15.2907L12.1845 14.9997C12.2239 14.958 12.2461 14.903 12.2465 14.8457V14.4007C12.2473 13.9447 12.429 13.5076 12.7516 13.1853C13.0742 12.8631 13.5115 12.6819 13.9675 12.6817H14.4095C14.4684 12.6815 14.5248 12.6581 14.5665 12.6167L14.8665 12.3107C15.1887 11.9881 15.6255 11.8062 16.0814 11.8047C16.5373 11.8032 16.9753 11.9822 17.2995 12.3027L17.6145 12.6187C17.635 12.6387 17.6593 12.6545 17.6859 12.6651C17.7125 12.6757 17.7409 12.681 17.7695 12.6807H18.2115C18.4386 12.6792 18.6637 12.7226 18.8739 12.8083C19.0841 12.8941 19.2754 13.0205 19.4366 13.1802C19.5979 13.34 19.7261 13.5301 19.8137 13.7395C19.9014 13.949 19.9469 14.1736 19.9475 14.4007V14.8417C19.9473 14.8704 19.9527 14.8989 19.9635 14.9255C19.9743 14.9521 19.9903 14.9763 20.0105 14.9967L20.3195 15.3077C20.6426 15.6294 20.8246 16.0662 20.8255 16.5221C20.8264 16.978 20.6462 17.4157 20.3245 17.7387L20.0085 18.0537C19.9695 18.0955 19.9477 18.1505 19.9475 18.2077V18.6507C19.947 19.1066 19.7656 19.5437 19.4431 19.866C19.1206 20.1883 18.6835 20.3694 18.2275 20.3697H17.7825C17.7537 20.3696 17.7251 20.3753 17.6985 20.3865C17.6718 20.3976 17.6477 20.414 17.6275 20.4347L17.3185 20.7427C17.1589 20.9045 16.9686 21.0329 16.7588 21.1205C16.549 21.208 16.3239 21.253 16.0965 21.2527ZM15.9455 19.6947C15.9877 19.733 16.043 19.7537 16.0999 19.7524C16.1569 19.7511 16.2112 19.7279 16.2515 19.6877L16.5635 19.3757C16.7231 19.2164 16.9126 19.0902 17.1211 19.0044C17.3296 18.9186 17.5531 18.8749 17.7785 18.8757H18.2225C18.2515 18.8759 18.2802 18.8703 18.3069 18.8593C18.3337 18.8483 18.3581 18.8321 18.3785 18.8117C18.3993 18.7916 18.4157 18.7675 18.4269 18.7408C18.4381 18.7142 18.4437 18.6856 18.4435 18.6567V18.2137C18.4431 17.9887 18.487 17.7659 18.5728 17.5579C18.6586 17.3499 18.7846 17.1609 18.9435 17.0017L19.2575 16.6887C19.2783 16.6678 19.2948 16.643 19.306 16.6157C19.3171 16.5884 19.3228 16.5592 19.3225 16.5297C19.3227 16.5009 19.317 16.4725 19.3059 16.446C19.2947 16.4195 19.2782 16.3956 19.2575 16.3757L18.9455 16.0617C18.7862 15.9023 18.66 15.713 18.5742 15.5046C18.4884 15.2963 18.4447 15.073 18.4455 14.8477V14.4007C18.4453 14.3419 18.4218 14.2856 18.3802 14.244C18.3387 14.2024 18.2823 14.179 18.2235 14.1787H17.7815C17.5561 14.1795 17.3327 14.1357 17.1242 14.0499C16.9157 13.9641 16.7262 13.8379 16.5665 13.6787L16.2545 13.3667C16.234 13.3461 16.2096 13.3298 16.1828 13.3186C16.1559 13.3075 16.1271 13.3017 16.098 13.3017C16.069 13.3017 16.0402 13.3075 16.0133 13.3186C15.9865 13.3298 15.9621 13.3461 15.9415 13.3667L15.6315 13.6767C15.3094 13.9968 14.8737 14.1766 14.4195 14.1767H13.9745C13.9159 14.1767 13.8597 14.2 13.8183 14.2414C13.7768 14.2828 13.7535 14.3391 13.7535 14.3977V14.8407C13.7511 15.2935 13.5717 15.7274 13.2535 16.0497L12.9405 16.3627L12.9295 16.3737C12.8938 16.416 12.875 16.4702 12.8769 16.5256C12.8787 16.581 12.901 16.6338 12.9395 16.6737L13.2505 16.9847C13.4098 17.1443 13.5359 17.3338 13.6217 17.5423C13.7075 17.7508 13.7513 17.9742 13.7505 18.1997V18.6437C13.7505 18.7023 13.7738 18.7585 13.8153 18.7999C13.8567 18.8414 13.9129 18.8647 13.9715 18.8647H14.4125C14.6373 18.8643 14.86 18.9083 15.0678 18.9941C15.2756 19.0799 15.4645 19.2058 15.6235 19.3647L15.9355 19.6757L15.9455 19.6947Z" fill="#000000" />
<path d="M15.6476 18.2071C15.4485 18.2071 15.2575 18.128 15.1167 17.9871L14.2437 17.1132C14.1741 17.0434 14.1189 16.9607 14.0813 16.8696C14.0436 16.7785 14.0243 16.681 14.0244 16.5825C14.0245 16.4839 14.044 16.3864 14.0818 16.2954C14.1196 16.2044 14.1749 16.1217 14.2446 16.0521C14.3144 15.9825 14.3971 15.9274 14.4882 15.8898C14.5793 15.8521 14.6768 15.8328 14.7754 15.8329C14.8739 15.833 14.9714 15.8525 15.0624 15.8903C15.1534 15.9281 15.236 15.9834 15.3056 16.0532L15.6476 16.3961L16.9167 15.1272C16.9859 15.0556 17.0687 14.9985 17.1602 14.9592C17.2517 14.9199 17.3501 14.8993 17.4497 14.8985C17.5493 14.8976 17.648 14.9167 17.7402 14.9544C17.8323 14.9922 17.9161 15.0479 17.9865 15.1184C18.0568 15.1888 18.1125 15.2726 18.1501 15.3648C18.1878 15.457 18.2068 15.5557 18.2058 15.6553C18.2049 15.7549 18.1842 15.8533 18.1448 15.9448C18.1055 16.0363 18.0483 16.119 17.9767 16.1882L16.1767 17.9882C16.1072 18.0577 16.0247 18.1128 15.934 18.1504C15.8432 18.1879 15.7459 18.2072 15.6476 18.2071Z" fill="#000000" />
<path d="M10.8069 12.02C9.89018 12.0202 8.99399 11.7485 8.23166 11.2394C7.46933 10.7303 6.8751 10.0065 6.52411 9.15966C6.17311 8.3128 6.08112 7.38088 6.25976 6.48174C6.43841 5.5826 6.87968 4.75663 7.52775 4.10827C8.17583 3.45991 9.00162 3.01829 9.90068 2.83926C10.7997 2.66022 11.7317 2.75181 12.5787 3.10244C13.4257 3.45307 14.1497 4.04699 14.6592 4.80911C15.1687 5.57122 15.4407 6.46728 15.4409 7.384C15.4396 8.61279 14.951 9.79089 14.0823 10.66C13.2136 11.529 12.0357 12.0181 10.8069 12.02ZM10.8069 4.24999C10.1868 4.24979 9.58052 4.43351 9.06482 4.77792C8.54912 5.12232 8.14713 5.61192 7.90973 6.18481C7.67232 6.75769 7.61016 7.38814 7.73109 7.99636C7.85203 8.60458 8.15063 9.16327 8.58912 9.60177C9.02762 10.0403 9.58631 10.3389 10.1945 10.4598C10.8028 10.5807 11.4332 10.5186 12.0061 10.2812C12.579 10.0437 13.0686 9.64179 13.413 9.12609C13.7574 8.61039 13.9411 8.00413 13.9409 7.384C13.9398 6.55313 13.6093 5.7566 13.0218 5.16909C12.4343 4.58158 11.6378 4.25105 10.8069 4.24999Z" fill="#000000" />
</svg>