<svg width="24px"  height="24px"  viewBox="0 0 25 24" fill="none" xmlns="http://www.w3.org/2000/svg">
<path fill-rule="evenodd" clip-rule="evenodd" d="M2.5 6.61977C2.5 4.5455 4.18254 2.86328 6.25746 2.86328H18.2435C20.3188 2.86328 22 4.54582 22 6.61977V14.1204C22 16.1952 20.3189 17.8779 18.2435 17.8779H6.25746C4.18238 17.8779 2.5 16.1955 2.5 14.1204V6.61977ZM6.25746 4.36328C5.01065 4.36328 4 5.37425 4 6.61977V14.1204C4 15.3671 5.01081 16.3779 6.25746 16.3779H18.2435C19.4898 16.3779 20.5 15.3674 20.5 14.1204V6.61977C20.5 5.37393 19.49 4.36328 18.2435 4.36328H6.25746Z" fill="#000000" />
<path fill-rule="evenodd" clip-rule="evenodd" d="M11.8578 17.2675C12.0988 17.1192 12.4029 17.1192 12.644 17.2675L16.6721 19.7467C17.0248 19.9638 17.1348 20.4257 16.9177 20.7785C16.7006 21.1312 16.2386 21.2412 15.8859 21.0241L12.2509 18.7869L8.61587 21.0241C8.26311 21.2412 7.80115 21.1312 7.58404 20.7785C7.36693 20.4257 7.4769 19.9638 7.82965 19.7467L11.8578 17.2675Z" fill="#000000" />
</svg>