<svg width="24px"  height="24px"  viewBox="0 0 25 24" fill="none" xmlns="http://www.w3.org/2000/svg">
<path fill-rule="evenodd" clip-rule="evenodd" d="M3.9902 3.89737C4.97468 2.84117 6.37669 2.25 8.03216 2.25H16.4669C18.1262 2.25 19.5288 2.84084 20.5129 3.89765C21.4913 4.94841 22 6.39889 22 8.02638V15.9736C22 17.6011 21.4913 19.0516 20.5127 20.1024C19.5285 21.1592 18.1256 21.75 16.4659 21.75H8.03216C6.3728 21.75 4.97038 21.1591 3.98657 20.1023C3.00842 19.0515 2.5 17.601 2.5 15.9736V8.02638C2.5 6.39806 3.01117 4.94771 3.9902 3.89737ZM5.08745 4.92012C4.41024 5.64666 4 6.70951 4 8.02638V15.9736C4 17.2914 4.40861 18.3541 5.08451 19.0802C5.75475 19.8003 6.74341 20.25 8.03216 20.25H16.4659C17.7552 20.25 18.7444 19.8002 19.415 19.0801C20.0912 18.354 20.5 17.2913 20.5 15.9736V8.02638C20.5 6.70868 20.0912 5.64597 19.4151 4.91984C18.7446 4.19975 17.7556 3.75 16.4669 3.75H8.03216C6.74828 3.75 5.75921 4.19943 5.08745 4.92012Z" fill="#000000" />
<path fill-rule="evenodd" clip-rule="evenodd" d="M6.45898 11.999C6.45898 8.80012 9.05207 6.20703 12.2509 6.20703C15.4498 6.20703 18.0429 8.80012 18.0429 11.999C18.0429 15.1978 15.4498 17.7909 12.2509 17.7909C9.05207 17.7909 6.45898 15.1978 6.45898 11.999ZM12.2509 7.70703C9.8805 7.70703 7.95898 9.62854 7.95898 11.999C7.95898 14.3694 9.8805 16.2909 12.2509 16.2909C14.6214 16.2909 16.5429 14.3694 16.5429 11.999C16.5429 9.62854 14.6214 7.70703 12.2509 7.70703Z" fill="#000000" />
<path fill-rule="evenodd" clip-rule="evenodd" d="M10.1699 12C10.1699 10.8512 11.1012 9.91992 12.25 9.91992C13.3988 9.91992 14.33 10.8512 14.33 12C14.33 13.1488 13.3988 14.08 12.25 14.08C11.1012 14.08 10.1699 13.1488 10.1699 12ZM12.25 11.4199C11.9296 11.4199 11.6699 11.6796 11.6699 12C11.6699 12.3204 11.9296 12.58 12.25 12.58C12.5704 12.58 12.83 12.3204 12.83 12C12.83 11.6796 12.5704 11.4199 12.25 11.4199Z" fill="#000000" />
</svg>