<svg width="24px"  height="24px"  viewBox="0 0 25 24" fill="none" xmlns="http://www.w3.org/2000/svg">
<path d="M6.71083 20.9232C6.67883 20.9232 6.64783 20.9232 6.61083 20.9232C6.38171 20.913 6.15371 20.8853 5.92883 20.8402C5.14485 20.6849 4.42056 20.3117 3.83913 19.7633C3.25771 19.215 2.84272 18.5138 2.64183 17.7402C2.39625 16.8243 2.4603 15.853 2.824 14.9773C3.1877 14.1016 3.83066 13.3706 4.65283 12.8982V12.8982C4.94454 12.7268 5.2728 12.627 5.6106 12.6072C5.9484 12.5874 6.28607 12.648 6.59583 12.7842C6.91094 12.9176 7.19016 13.1233 7.41082 13.3848C7.63149 13.6463 7.78738 13.9562 7.86583 14.2892L8.80783 18.2242C8.88832 18.5556 8.89008 18.9012 8.81298 19.2334C8.73588 19.5656 8.58206 19.8752 8.36383 20.1372C8.1639 20.3827 7.91184 20.5806 7.62593 20.7165C7.34001 20.8525 7.02742 20.9231 6.71083 20.9232V20.9232ZM5.73883 14.1062C5.62259 14.1062 5.5084 14.1369 5.40783 14.1952V14.1952C4.8706 14.5062 4.45119 14.9861 4.21482 15.5601C3.97846 16.1341 3.93838 16.7701 4.10083 17.3692C4.2349 17.8666 4.50448 18.317 4.87952 18.6701C5.25455 19.0233 5.7203 19.2653 6.22483 19.3692C6.37648 19.3998 6.53028 19.4185 6.68483 19.4252C6.78918 19.4262 6.89238 19.4033 6.98647 19.3582C7.08057 19.3131 7.16306 19.247 7.22759 19.165C7.29212 19.0829 7.33696 18.9872 7.35868 18.8852C7.38039 18.7831 7.37839 18.6774 7.35283 18.5762L6.41083 14.6402C6.37365 14.4898 6.2876 14.3559 6.16617 14.2597C6.04474 14.1634 5.89479 14.1101 5.73983 14.1082L5.73883 14.1062Z" fill="#000000" />
<path d="M17.7953 20.9233C17.478 20.9239 17.1646 20.8536 16.878 20.7176C16.5913 20.5816 16.3386 20.3834 16.1383 20.1373C15.9199 19.8754 15.7659 19.5659 15.6886 19.2337C15.6114 18.9015 15.613 18.5558 15.6933 18.2243L16.6363 14.2893C16.7144 13.9563 16.87 13.6463 17.0905 13.3848C17.311 13.1233 17.5902 12.9175 17.9053 12.7843C18.215 12.6481 18.5527 12.5874 18.8905 12.6072C19.2284 12.627 19.5566 12.7268 19.8483 12.8984C20.6709 13.3711 21.3141 14.1025 21.6776 14.9789C22.0412 15.8552 22.1047 16.8271 21.8583 17.7433C21.6569 18.5168 21.2416 19.2179 20.6601 19.7661C20.0786 20.3144 19.3543 20.6878 18.5703 20.8433C18.3463 20.8874 18.1194 20.9148 17.8913 20.9253C17.8593 20.9233 17.8273 20.9233 17.7953 20.9233ZM18.7653 14.1063C18.6103 14.1076 18.4601 14.1606 18.3387 14.257C18.2173 14.3534 18.1317 14.4876 18.0953 14.6383L17.1523 18.5743C17.1273 18.68 17.1272 18.79 17.152 18.8957C17.1768 19.0014 17.2259 19.0999 17.2953 19.1833C17.3603 19.2597 17.4413 19.3208 17.5325 19.3622C17.6238 19.4037 17.7231 19.4246 17.8233 19.4233C17.9769 19.4165 18.1297 19.3978 18.2803 19.3673C18.785 19.2635 19.2509 19.0214 19.6261 18.6683C20.0013 18.3152 20.2711 17.8648 20.4053 17.3673C20.5675 16.7681 20.5272 16.1321 20.2907 15.5581C20.0541 14.9841 19.6346 14.5043 19.0973 14.1933V14.1933C18.9962 14.1356 18.8817 14.1055 18.7653 14.1063V14.1063Z" fill="#000000" />
<path d="M17.7539 9.16397H17.7339C17.4589 9.16163 17.1872 9.10394 16.935 8.99432C16.6827 8.88471 16.4552 8.72543 16.2659 8.52597L16.1849 8.44296C15.6709 7.9237 15.0589 7.51168 14.3845 7.23083C13.71 6.94999 12.9865 6.80593 12.2559 6.80698H12.2539C11.5213 6.80543 10.7956 6.94922 10.119 7.23004C9.44232 7.51086 8.8281 7.92313 8.31187 8.44296L8.23987 8.51697C8.05068 8.71757 7.82301 8.878 7.57044 8.98865C7.31787 9.0993 7.04559 9.15788 6.76987 9.16095C6.502 9.16778 6.23563 9.11899 5.9876 9.01761C5.73956 8.91623 5.51526 8.76447 5.32887 8.57196V8.57196C4.95805 8.20145 4.74484 7.70191 4.73385 7.17783C4.72285 6.65374 4.91491 6.14572 5.26987 5.75998L5.45387 5.57196C7.25752 3.76882 9.70348 2.75586 12.2539 2.75586C14.8043 2.75586 17.2502 3.76882 19.0539 5.57196L19.2319 5.75497C19.5877 6.14134 19.7805 6.65026 19.7698 7.17542C19.7592 7.70057 19.546 8.20131 19.1749 8.57297C18.989 8.76075 18.7677 8.90971 18.5237 9.01117C18.2798 9.11263 18.0181 9.16457 17.7539 9.16397V9.16397ZM12.2539 5.30698H12.2609C13.1885 5.30517 14.1073 5.48776 14.9638 5.84415C15.8202 6.20054 16.5973 6.72361 17.2499 7.38297L17.3499 7.48895C17.398 7.54767 17.4593 7.59415 17.5288 7.62457C17.5984 7.65499 17.6741 7.6685 17.7499 7.66397C17.817 7.6645 17.8836 7.65147 17.9456 7.6257C18.0077 7.59993 18.0639 7.56194 18.1109 7.51398C18.2082 7.4204 18.2656 7.29287 18.2712 7.15799C18.2768 7.02311 18.2301 6.89129 18.1409 6.78998L17.9929 6.63596C17.2387 5.88138 16.3433 5.28279 15.3577 4.87439C14.3721 4.46599 13.3157 4.2558 12.2489 4.2558C11.182 4.2558 10.1256 4.46599 9.14006 4.87439C8.15448 5.28279 7.25903 5.88138 6.50487 6.63596L6.35387 6.78897C6.26586 6.88974 6.21999 7.02051 6.22576 7.15417C6.23153 7.28784 6.2885 7.41415 6.38487 7.50696V7.50696C6.43247 7.55554 6.48948 7.5939 6.55241 7.61969C6.61534 7.64548 6.68287 7.65816 6.75087 7.65695C6.82601 7.65639 6.90025 7.64049 6.96903 7.61023C7.03781 7.57997 7.09969 7.53597 7.15087 7.48096L7.25087 7.38095C7.90617 6.72154 8.68579 6.19869 9.54457 5.84268C10.4033 5.48667 11.3242 5.3046 12.2539 5.30698Z" fill="#000000" />
<path d="M19.8768 14.5635C19.6779 14.5635 19.4872 14.4845 19.3465 14.3438C19.2059 14.2032 19.1268 14.0124 19.1268 13.8135V11.8965C19.1282 10.6307 18.7775 9.3894 18.1138 8.31149C18.0095 8.14215 17.9767 7.93828 18.0226 7.74475C18.0686 7.55121 18.1895 7.38384 18.3588 7.27947C18.5282 7.17511 18.732 7.14231 18.9256 7.18826C19.1191 7.2342 19.2865 7.35513 19.3908 7.52447C20.2006 8.83887 20.6285 10.3527 20.6268 11.8965V13.8135C20.6268 14.0124 20.5478 14.2032 20.4072 14.3438C20.2665 14.4845 20.0758 14.5635 19.8768 14.5635V14.5635ZM4.63184 14.5635C4.43293 14.5635 4.24216 14.4845 4.10151 14.3438C3.96086 14.2032 3.88184 14.0124 3.88184 13.8135V11.8965C3.88023 10.3526 4.30856 8.83868 5.11884 7.52447C5.22642 7.36228 5.39284 7.24829 5.58293 7.20654C5.77302 7.16478 5.9719 7.19855 6.13755 7.30071C6.3032 7.40288 6.42265 7.56544 6.47066 7.75405C6.51867 7.94266 6.49148 8.14255 6.39484 8.31149C5.73096 9.3893 5.38021 10.6306 5.38184 11.8965V13.8135C5.38184 14.0124 5.30282 14.2032 5.16217 14.3438C5.02152 14.4845 4.83075 14.5635 4.63184 14.5635V14.5635Z" fill="#000000" />
</svg>