<svg width="24px"  height="24px"  viewBox="0 0 25 24" fill="none" xmlns="http://www.w3.org/2000/svg">
<path d="M7.30449 19.1214C6.86068 19.1227 6.42419 19.0081 6.03832 18.7888C5.65244 18.5696 5.33056 18.2534 5.10448 17.8714C4.35062 16.7698 3.75609 15.5673 3.33849 14.2995C3.20518 13.8468 3.22818 13.3625 3.40379 12.9245C3.57941 12.4866 3.89736 12.1206 4.30644 11.8855L4.51946 11.7634C5.10401 11.4281 5.79765 11.3382 6.44841 11.5132C7.09917 11.6883 7.654 12.1141 7.99144 12.6974L9.49748 15.3074C9.72078 15.6938 9.83842 16.1321 9.83861 16.5784C9.8388 17.0246 9.72149 17.463 9.49852 17.8496C9.27555 18.2361 8.95478 18.5571 8.56841 18.7804C8.18203 19.0037 7.74371 19.1213 7.29747 19.1214H7.30449ZM5.79045 12.9215C5.60826 12.9215 5.42929 12.9694 5.27147 13.0604L5.06047 13.1814C4.94471 13.2455 4.85371 13.3465 4.80205 13.4683C4.75039 13.5901 4.74102 13.7257 4.77544 13.8534C5.15486 14.9904 5.69359 16.0678 6.37547 17.0535C6.38347 17.0665 6.39246 17.0795 6.39946 17.0935C6.46794 17.2121 6.55916 17.3161 6.66783 17.3995C6.77651 17.4829 6.9005 17.5441 7.03282 17.5796C7.16515 17.615 7.30319 17.6241 7.43901 17.6062C7.57484 17.5884 7.7058 17.5439 7.82445 17.4754C7.9431 17.407 8.04713 17.3158 8.13054 17.2071C8.21395 17.0984 8.27512 16.9744 8.31059 16.8421C8.34607 16.7097 8.35513 16.5717 8.33727 16.4359C8.3194 16.3001 8.27495 16.1691 8.20647 16.0505L6.70049 13.4404C6.60783 13.2818 6.47482 13.1505 6.31499 13.0598C6.15516 12.9692 5.97418 12.9225 5.79045 12.9245V12.9215Z" fill="#000000" />
<path d="M17.1996 19.1226C16.7535 19.1222 16.3153 19.0043 15.9291 18.781C15.5429 18.5577 15.2222 18.2367 14.9993 17.8502C14.7764 17.4638 14.6591 17.0255 14.6592 16.5794C14.6592 16.1333 14.7766 15.695 14.9996 15.3086L16.5076 12.6966C16.845 12.1138 17.3995 11.6884 18.0498 11.5133C18.7001 11.3383 19.3932 11.4279 19.9776 11.7626L20.1916 11.8856C20.6007 12.1207 20.9186 12.4868 21.0942 12.9247C21.2699 13.3626 21.2929 13.847 21.1595 14.2996C20.7428 15.5678 20.1482 16.7704 19.3936 17.8716C19.1677 18.2538 18.8459 18.5704 18.46 18.7898C18.0741 19.0093 17.6375 19.124 17.1935 19.1226H17.1996ZM18.7146 12.9226C18.531 12.9223 18.3506 12.9704 18.1915 13.062C18.0325 13.1536 17.9004 13.2856 17.8086 13.4446L16.3016 16.0556C16.1645 16.2957 16.1277 16.5802 16.1993 16.8472C16.2708 17.1142 16.4449 17.3422 16.6836 17.4816C16.9236 17.6193 17.2083 17.6561 17.4755 17.5842C17.7426 17.5122 17.9703 17.3372 18.1086 17.0976C18.1166 17.0836 18.1256 17.0706 18.1346 17.0566C18.8145 16.0706 19.3511 14.9932 19.7286 13.8566C19.7631 13.7288 19.7536 13.593 19.7018 13.4711C19.6499 13.3493 19.5586 13.2484 19.4426 13.1846L19.2306 13.0626C19.0739 12.9717 18.8958 12.9241 18.7146 12.9246V12.9226Z" fill="#000000" />
<path d="M13.1213 21.7506C12.8823 21.7506 12.6413 21.7506 12.3973 21.7396C12.1533 21.7286 11.8843 21.7256 11.6123 21.7256C11.4134 21.7256 11.2226 21.6466 11.082 21.506C10.9413 21.3653 10.8623 21.1745 10.8623 20.9756C10.8623 20.7767 10.9413 20.5859 11.082 20.4453C11.2226 20.3046 11.4134 20.2256 11.6123 20.2256C11.8963 20.2256 12.1713 20.2326 12.4363 20.2396C14.2773 20.2896 15.2923 20.3116 16.5203 18.0176C16.6141 17.8422 16.7737 17.7112 16.9641 17.6534C17.1544 17.5957 17.3599 17.6159 17.5353 17.7096C17.7108 17.8034 17.8418 17.963 17.8995 18.1533C17.9573 18.3437 17.9371 18.5492 17.8433 18.7246C16.3873 21.4506 14.7983 21.7506 13.1213 21.7506Z" fill="#000000" />
<path d="M20.0816 15.7879C19.9567 15.7878 19.8336 15.7565 19.7238 15.6969C19.614 15.6372 19.5208 15.5511 19.4527 15.4463C19.3846 15.3416 19.3437 15.2215 19.3338 15.0969C19.3238 14.9723 19.345 14.8472 19.3956 14.7329C19.8405 13.7361 20.0695 12.6565 20.0676 11.5649C20.0676 9.49161 19.244 7.5032 17.7779 6.03714C16.3118 4.57107 14.3235 3.74743 12.2501 3.74743C10.1768 3.74743 8.18837 4.57107 6.72231 6.03714C5.25624 7.5032 4.43263 9.49161 4.43263 11.5649C4.43034 12.514 4.60286 13.4554 4.94161 14.3419C4.97999 14.4345 4.99948 14.5338 4.99886 14.634C4.99823 14.7342 4.97748 14.8332 4.93794 14.9253C4.89841 15.0173 4.84086 15.1005 4.76863 15.17C4.6964 15.2394 4.61096 15.2937 4.51741 15.3296C4.42387 15.3654 4.32409 15.3822 4.22395 15.3789C4.12382 15.3755 4.02537 15.3522 3.9344 15.3102C3.84344 15.2682 3.76182 15.2084 3.69435 15.1343C3.62689 15.0603 3.57499 14.9734 3.54164 14.8789C3.13693 13.821 2.93048 12.6976 2.93263 11.5649C2.93294 10.1778 3.243 8.80817 3.84017 7.55612C4.43733 6.30406 5.30655 5.20114 6.38436 4.32788C7.46216 3.45461 8.72134 2.83305 10.07 2.50854C11.4187 2.18403 12.8228 2.16475 14.1799 2.45214C15.537 2.73954 16.8128 3.32634 17.9141 4.1697C19.0155 5.01307 19.9146 6.09173 20.5459 7.32693C21.1772 8.56213 21.5247 9.92274 21.5631 11.3094C21.6014 12.696 21.3296 14.0737 20.7676 15.3419C20.7085 15.4746 20.6123 15.5873 20.4906 15.6664C20.3688 15.7456 20.2268 15.7877 20.0816 15.7879Z" fill="#000000" />
</svg>