<svg width="24px"  height="24px"  viewBox="0 0 25 24" fill="none" xmlns="http://www.w3.org/2000/svg">
<path d="M12.2387 14.8289C12.1089 14.8283 11.9813 14.7941 11.8687 14.7296C11.756 14.6651 11.662 14.5724 11.5958 14.4607C11.5296 14.349 11.4935 14.222 11.491 14.0921C11.4886 13.9623 11.5198 13.834 11.5817 13.7199L12.4437 12.1349H10.7897C10.6596 12.1352 10.5317 12.1016 10.4185 12.0374C10.3054 11.9732 10.2109 11.8806 10.1444 11.7688C10.0778 11.6569 10.0416 11.5297 10.0392 11.3996C10.0368 11.2695 10.0684 11.1411 10.1307 11.0269L11.5967 8.32689C11.6928 8.15417 11.8531 8.02636 12.0429 7.97121C12.2327 7.91606 12.4365 7.93802 12.6102 8.03236C12.7838 8.1267 12.9133 8.28577 12.9703 8.47499C13.0273 8.66421 13.0074 8.86831 12.9147 9.04289L12.0507 10.6319H13.7067C13.8369 10.6317 13.9648 10.6654 14.078 10.7297C14.1912 10.794 14.2856 10.8868 14.3521 10.9987C14.4185 11.1106 14.4546 11.238 14.4568 11.3681C14.459 11.4983 14.4273 11.6267 14.3647 11.7409L12.8977 14.4339C12.8339 14.5532 12.7389 14.6529 12.6228 14.7225C12.5068 14.792 12.374 14.8288 12.2387 14.8289Z" fill="#000000" />
<path d="M7.04959 20.8275C6.81723 20.827 6.58594 20.7961 6.3616 20.7355C5.69532 20.5585 5.12599 20.1254 4.77762 19.5305C3.98638 18.3766 3.36343 17.116 2.92758 15.7865C2.79049 15.3193 2.81461 14.8196 2.996 14.3677C3.17739 13.9159 3.5055 13.5382 3.92758 13.2955L4.15659 13.1645C4.76137 12.8183 5.47866 12.7259 6.15146 12.9073C6.82426 13.0887 7.39782 13.5292 7.74661 14.1325L9.32962 16.8765C9.55967 17.2767 9.6806 17.7304 9.68033 18.1921C9.68006 18.6537 9.55856 19.1072 9.32804 19.5072C9.09752 19.9072 8.76605 20.2397 8.36673 20.4714C7.96742 20.7031 7.51425 20.8258 7.05258 20.8275H7.04959ZM5.46158 14.3155C5.26393 14.3157 5.06981 14.3677 4.89859 14.4665L4.67063 14.5965C4.54294 14.6683 4.44293 14.7807 4.38657 14.9159C4.33021 15.0511 4.3207 15.2013 4.35959 15.3425C4.75588 16.5419 5.32126 17.6787 6.03861 18.7185C6.04797 18.7317 6.05665 18.7454 6.06461 18.7595C6.21485 19.0198 6.46235 19.2098 6.75266 19.2876C7.04296 19.3654 7.35227 19.3247 7.61258 19.1745C7.87289 19.0242 8.06289 18.7767 8.14072 18.4864C8.21855 18.1961 8.17787 17.8868 8.02762 17.6265L6.44461 14.8825C6.37077 14.7534 6.27202 14.6402 6.15409 14.5495C6.03615 14.4589 5.90137 14.3926 5.7576 14.3545C5.66231 14.3292 5.5642 14.316 5.46561 14.3155H5.46158Z" fill="#000000" />
<path d="M17.4498 20.8281C16.9877 20.8273 16.5339 20.705 16.1341 20.4734C15.7342 20.2418 15.4024 19.9091 15.1718 19.5086C14.9411 19.1082 14.82 18.6542 14.8203 18.1921C14.8207 17.73 14.9426 17.2762 15.1738 16.8761L16.7557 14.1331C17.106 13.5287 17.6816 13.0877 18.3563 12.9066C19.031 12.7256 19.75 12.8193 20.3558 13.1671L20.5768 13.2941C21.0025 13.5339 21.3336 13.9118 21.5154 14.3652C21.6972 14.8187 21.7189 15.3207 21.5768 15.7881C21.1401 17.1169 20.5172 18.3771 19.7267 19.5311C19.3777 20.1263 18.8077 20.5594 18.1407 20.7361C17.9155 20.797 17.6831 20.8279 17.4498 20.8281V20.8281ZM19.0388 14.3171C18.8395 14.3167 18.6436 14.3687 18.4708 14.4681C18.2981 14.5675 18.1546 14.7106 18.0547 14.8831L16.4728 17.6271C16.3985 17.756 16.3502 17.8983 16.3309 18.0458C16.3115 18.1933 16.3214 18.3432 16.36 18.4869C16.3986 18.6306 16.4651 18.7653 16.5557 18.8833C16.6464 19.0013 16.7594 19.1003 16.8882 19.1746C17.0171 19.2489 17.1594 19.2971 17.3069 19.3165C17.4545 19.3358 17.6043 19.3259 17.748 19.2873C17.8917 19.2488 18.0265 19.1822 18.1445 19.0916C18.2625 19.001 18.3614 18.888 18.4357 18.7591C18.4437 18.7461 18.4518 18.7321 18.4608 18.7191C19.1773 17.6792 19.7426 16.5429 20.1398 15.3441C20.1787 15.2015 20.1686 15.05 20.1111 14.9138C20.0536 14.7776 19.9521 14.6647 19.8228 14.5931L19.6038 14.4681C19.4324 14.3696 19.2384 14.3176 19.0408 14.3171H19.0388Z" fill="#000000" />
<path d="M20.477 17.3225C20.352 17.3223 20.2291 17.291 20.1193 17.2314C20.0095 17.1717 19.9163 17.0856 19.8482 16.9809C19.78 16.8761 19.7391 16.756 19.7291 16.6314C19.7192 16.5068 19.7404 16.3817 19.791 16.2674C20.2604 15.2156 20.502 14.0763 20.5 12.9245C20.5 10.7364 19.6308 8.63801 18.0836 7.09084C16.5365 5.54366 14.4381 4.67446 12.25 4.67446C10.062 4.67446 7.96358 5.54366 6.4164 7.09084C4.86923 8.63801 4.00002 10.7364 4.00002 12.9245C3.9975 13.9266 4.17992 14.9205 4.53805 15.8565C4.57643 15.949 4.59586 16.0483 4.59524 16.1485C4.59461 16.2487 4.57392 16.3477 4.53438 16.4398C4.49484 16.5318 4.43724 16.6151 4.36501 16.6845C4.29278 16.7539 4.2074 16.8082 4.11385 16.8441C4.02031 16.88 3.92053 16.8967 3.82039 16.8934C3.72026 16.8901 3.6218 16.8667 3.53084 16.8247C3.43988 16.7827 3.35826 16.7229 3.29079 16.6489C3.22333 16.5748 3.17137 16.4879 3.13802 16.3935C2.71386 15.2862 2.49758 14.1102 2.50002 12.9245C2.49964 11.4724 2.82359 10.0386 3.4482 8.7278C4.07281 7.41697 4.98233 6.2622 6.11031 5.34783C7.23829 4.43346 8.55621 3.78257 9.96792 3.44271C11.3796 3.10284 12.8494 3.08259 14.27 3.38341C15.6905 3.68423 17.0259 4.29854 18.1787 5.18148C19.3314 6.06441 20.2724 7.19366 20.9329 8.48677C21.5934 9.77989 21.9567 11.2042 21.9964 12.6557C22.036 14.1072 21.751 15.5492 21.162 16.8765C21.1032 17.0091 21.0072 17.1218 20.8856 17.201C20.7641 17.2801 20.6221 17.3223 20.477 17.3225V17.3225Z" fill="#000000" />
</svg>