<svg width="24px"  height="24px"  viewBox="0 0 25 24" fill="none" xmlns="http://www.w3.org/2000/svg">
<path d="M17.5949 18.924C17.2846 18.9244 16.978 18.8555 16.6976 18.7225C16.4172 18.5895 16.17 18.3956 15.9739 18.155C15.7615 17.8992 15.6119 17.5971 15.5371 17.2731C15.4623 16.9491 15.4643 16.6121 15.5429 16.289L16.4499 12.489C16.5267 12.1633 16.6792 11.8603 16.895 11.6046C17.1107 11.3488 17.3838 11.1475 17.6919 11.017C17.9951 10.8848 18.3252 10.826 18.6553 10.8454C18.9855 10.8649 19.3064 10.9621 19.5919 11.129V11.129C20.3896 11.5879 21.0133 12.2975 21.3659 13.1475C21.7186 13.9975 21.7805 14.9403 21.5419 15.829C21.346 16.5789 20.9429 17.2585 20.3787 17.79C19.8146 18.3214 19.1122 18.6832 18.3519 18.834C18.134 18.8775 17.913 18.904 17.6909 18.913C17.6559 18.924 17.6249 18.924 17.5949 18.924ZM18.5329 12.348C18.4469 12.3491 18.362 12.3672 18.2829 12.401C18.1902 12.4401 18.1081 12.5005 18.0431 12.5773C17.9781 12.6541 17.9321 12.7451 17.9089 12.843L17.0019 16.643C16.9782 16.7407 16.9777 16.8425 17.0002 16.9404C17.0228 17.0383 17.0679 17.1296 17.1319 17.207C17.1907 17.2796 17.2656 17.3375 17.3506 17.376C17.4357 17.4146 17.5286 17.4327 17.6219 17.429C17.768 17.4227 17.9135 17.4053 18.0569 17.377C18.5384 17.2778 18.9829 17.047 19.341 16.7101C19.6991 16.3732 19.9566 15.9436 20.0849 15.469C20.2396 14.8965 20.201 14.2889 19.9752 13.7405C19.7494 13.1922 19.3489 12.7336 18.8359 12.436V12.436C18.7444 12.3806 18.6399 12.3502 18.5329 12.348V12.348Z" fill="#000000" />
<path d="M13.2879 21.5897C13.0459 21.5897 12.8019 21.5837 12.5559 21.5777C12.3099 21.5717 12.0339 21.5637 11.7559 21.5637C11.5569 21.5637 11.3662 21.4847 11.2256 21.344C11.0849 21.2034 11.0059 21.0126 11.0059 20.8137C11.0059 20.6148 11.0849 20.424 11.2256 20.2833C11.3662 20.1427 11.5569 20.0637 11.7559 20.0637C12.0439 20.0637 12.3219 20.0707 12.5909 20.0777C14.4589 20.1277 15.4909 20.1527 16.7359 17.8227C16.7803 17.7325 16.8425 17.6521 16.9187 17.5864C16.9948 17.5207 17.0834 17.471 17.1792 17.4402C17.2749 17.4095 17.3759 17.3983 17.4761 17.4073C17.5762 17.4164 17.6736 17.4455 17.7623 17.4929C17.851 17.5403 17.9292 17.6051 17.9924 17.6834C18.0555 17.7617 18.1023 17.8519 18.1299 17.9487C18.1574 18.0454 18.1653 18.1467 18.1529 18.2465C18.1405 18.3463 18.1082 18.4426 18.0579 18.5297C16.5889 21.2827 14.9829 21.5897 13.2879 21.5897Z" fill="#000000" />
<path d="M6.90141 18.9257C6.87041 18.9257 6.83943 18.9257 6.80943 18.9257C5.90604 18.8871 5.03961 18.5561 4.34056 17.9826C3.64151 17.4091 3.14768 16.624 2.93336 15.7455C2.71905 14.8671 2.79585 13.9428 3.15224 13.1118C3.50862 12.2807 4.12528 11.5879 4.90941 11.1377V11.1377C5.19507 10.971 5.51607 10.8742 5.84624 10.8551C6.17641 10.836 6.50644 10.8951 6.80943 11.0277C7.11714 11.158 7.38979 11.359 7.60524 11.6144C7.82069 11.8698 7.97287 12.1724 8.04942 12.4977L8.95842 16.2977C9.03673 16.6209 9.03836 16.958 8.96318 17.282C8.888 17.606 8.7381 17.9079 8.52543 18.1637C8.32861 18.4036 8.08064 18.5966 7.79967 18.7285C7.51869 18.8603 7.21178 18.9277 6.90141 18.9257V18.9257ZM5.65941 12.4327C5.1464 12.7303 4.74595 13.1888 4.52013 13.7372C4.2943 14.2856 4.25573 14.8931 4.41041 15.4657C4.53863 15.94 4.79603 16.3695 5.15391 16.7062C5.5118 17.0429 5.95614 17.2736 6.43742 17.3727C6.58116 17.4016 6.72694 17.4193 6.87343 17.4257C6.96646 17.4273 7.05869 17.4083 7.14345 17.3699C7.2282 17.3315 7.30333 17.2747 7.36342 17.2037C7.42754 17.1265 7.47279 17.0354 7.49553 16.9377C7.51827 16.8399 7.51789 16.7383 7.49443 16.6407L6.58543 12.8407C6.56258 12.743 6.51696 12.6522 6.45232 12.5756C6.38767 12.4989 6.3058 12.4387 6.21342 12.3997C6.12497 12.3613 6.02873 12.3443 5.93248 12.35C5.83623 12.3557 5.74267 12.3841 5.65941 12.4327V12.4327Z" fill="#000000" />
<path d="M19.5986 12.7939C19.5 12.7941 19.4025 12.7748 19.3114 12.7371C19.2203 12.6995 19.1376 12.6442 19.068 12.5746C18.9983 12.5049 18.943 12.4222 18.9054 12.3311C18.8678 12.2401 18.8484 12.1425 18.8486 12.0439V10.1889C18.8486 8.43771 18.1529 6.7582 16.9146 5.5199C15.6763 4.28159 13.9968 3.58594 12.2456 3.58594C10.4944 3.58594 8.81487 4.28159 7.57657 5.5199C6.33827 6.7582 5.64258 8.43771 5.64258 10.1889V12.0409C5.64258 12.2398 5.56356 12.4306 5.42291 12.5713C5.28226 12.7119 5.09149 12.7909 4.89258 12.7909C4.69367 12.7909 4.5029 12.7119 4.36224 12.5713C4.22159 12.4306 4.14258 12.2398 4.14258 12.0409V10.1889C4.14258 8.03989 4.99629 5.97887 6.5159 4.45926C8.03551 2.93965 10.0965 2.08594 12.2456 2.08594C14.3946 2.08594 16.4557 2.93965 17.9753 4.45926C19.4949 5.97887 20.3486 8.03989 20.3486 10.1889V12.0409C20.349 12.1397 20.3299 12.2375 20.2924 12.3289C20.2548 12.4202 20.1997 12.5032 20.13 12.5732C20.0603 12.6432 19.9775 12.6987 19.8863 12.7366C19.7951 12.7745 19.6973 12.7939 19.5986 12.7939V12.7939Z" fill="#000000" />
</svg>