<svg width="24px"  height="24px"  viewBox="0 0 25 24" fill="none" xmlns="http://www.w3.org/2000/svg">
<path d="M6.71103 20.5415C6.67903 20.5415 6.64803 20.5415 6.61103 20.5415C6.38226 20.5324 6.15455 20.5053 5.93003 20.4604C5.14634 20.3045 4.42239 19.931 3.84108 19.3828C3.25976 18.8345 2.84457 18.1337 2.64303 17.3605C2.3963 16.4442 2.45955 15.4721 2.82293 14.5956C3.18631 13.7191 3.82942 12.9873 4.65203 12.5144V12.5144C4.94712 12.346 5.27738 12.2485 5.61665 12.2299C5.95592 12.2112 6.29487 12.2718 6.60666 12.4069C6.91844 12.542 7.19448 12.7478 7.4129 13.0081C7.63132 13.2684 7.78612 13.5759 7.86503 13.9064L8.80803 17.8424C8.88822 18.1739 8.88975 18.5196 8.81248 18.8517C8.73521 19.1839 8.58129 19.4934 8.36303 19.7554C8.16321 20.0008 7.9113 20.1986 7.62558 20.3345C7.33985 20.4705 7.02745 20.5412 6.71103 20.5415V20.5415ZM5.41104 13.8134C4.87384 14.1247 4.4545 14.6048 4.21815 15.1789C3.98181 15.753 3.94169 16.3892 4.10403 16.9884C4.23862 17.4856 4.50837 17.9356 4.88331 18.2887C5.25826 18.6417 5.72374 18.884 6.22804 18.9884C6.37687 19.0173 6.52759 19.0354 6.67903 19.0424C6.78101 19.0483 6.8829 19.0294 6.97604 18.9874C7.06918 18.9455 7.15082 18.8817 7.21403 18.8014C7.28308 18.7174 7.3316 18.6184 7.35572 18.5124C7.37985 18.4063 7.37893 18.2961 7.35304 18.1904L6.41003 14.2544C6.38504 14.1495 6.33586 14.0519 6.2664 13.9695C6.19694 13.887 6.10915 13.8219 6.01004 13.7794C5.91444 13.7375 5.81032 13.7187 5.7061 13.7244C5.60187 13.7302 5.50046 13.7603 5.41003 13.8124L5.41104 13.8134Z" fill="#000000" />
<path d="M17.79 20.5427C17.4735 20.5424 17.161 20.4716 16.8753 20.3354C16.5896 20.1993 16.3377 20.0013 16.138 19.7557C15.9199 19.4938 15.766 19.1845 15.6887 18.8525C15.6115 18.5205 15.6129 18.175 15.693 17.8437L16.635 13.9067C16.7139 13.5746 16.8698 13.2657 17.0903 13.0051C17.3108 12.7445 17.5895 12.5395 17.904 12.4067C18.214 12.2712 18.5517 12.2107 18.8894 12.2301C19.2272 12.2496 19.5556 12.3485 19.848 12.5187C20.6708 12.9917 21.3141 13.7235 21.6775 14.6003C22.0409 15.477 22.104 16.4493 21.857 17.3657C21.6554 18.1389 21.2402 18.8397 20.6589 19.3879C20.0776 19.9361 19.3537 20.3096 18.57 20.4657C18.3434 20.5101 18.1138 20.5369 17.883 20.5457C17.8524 20.5437 17.8214 20.5427 17.79 20.5427ZM18.766 13.7237C18.6109 13.7254 18.4607 13.7785 18.3391 13.8748C18.2175 13.9711 18.1312 14.1051 18.094 14.2557L17.152 18.1907C17.127 18.2921 17.1255 18.3978 17.1477 18.4999C17.1698 18.6019 17.2149 18.6976 17.2797 18.7795C17.3444 18.8614 17.427 18.9274 17.5212 18.9725C17.6154 19.0176 17.7186 19.0406 17.823 19.0397C17.9762 19.0331 18.1286 19.0151 18.279 18.9857C18.7836 18.8816 19.2494 18.6395 19.6246 18.2864C19.9997 17.9333 20.2696 17.4831 20.404 16.9857C20.5664 16.3864 20.5263 15.7503 20.2899 15.1762C20.0536 14.602 19.6342 14.122 19.097 13.8107C18.9963 13.753 18.8821 13.7229 18.766 13.7237V13.7237Z" fill="#000000" />
<path d="M19.8779 14.1827C19.679 14.1827 19.4882 14.1036 19.3476 13.963C19.2069 13.8223 19.1279 13.6316 19.1279 13.4327V11.5137C19.1279 9.69031 18.4036 7.94163 17.1143 6.65231C15.825 5.363 14.0763 4.63867 12.2529 4.63867C10.4296 4.63867 8.68088 5.363 7.39157 6.65231C6.10226 7.94163 5.37793 9.69031 5.37793 11.5137V13.4327C5.37793 13.6316 5.29892 13.8223 5.15826 13.963C5.01761 14.1036 4.82684 14.1827 4.62793 14.1827C4.42902 14.1827 4.23825 14.1036 4.0976 13.963C3.95694 13.8223 3.87793 13.6316 3.87793 13.4327V11.5137C3.87793 9.29248 4.7603 7.16226 6.33092 5.59164C7.90153 4.02103 10.0317 3.13867 12.2529 3.13867C14.4741 3.13867 16.6043 4.02103 18.1749 5.59164C19.7456 7.16226 20.6279 9.29248 20.6279 11.5137V13.4327C20.6279 13.6316 20.5489 13.8223 20.4083 13.963C20.2676 14.1036 20.0768 14.1827 19.8779 14.1827V14.1827Z" fill="#000000" />
<path d="M12.2524 14.6898C12.0535 14.6898 11.8627 14.6108 11.7221 14.4702C11.5814 14.3295 11.5024 14.1388 11.5024 13.9398V10.5898C11.5024 10.3909 11.5814 10.2002 11.7221 10.0595C11.8627 9.91886 12.0535 9.83984 12.2524 9.83984C12.4513 9.83984 12.6421 9.91886 12.7827 10.0595C12.9234 10.2002 13.0024 10.3909 13.0024 10.5898V13.9419C13.0019 14.1404 12.9226 14.3307 12.782 14.4709C12.6414 14.6111 12.451 14.6899 12.2524 14.6898V14.6898ZM14.6464 13.3429C14.4475 13.3429 14.2567 13.2638 14.1161 13.1232C13.9754 12.9825 13.8964 12.7918 13.8964 12.5929V11.9338C13.8964 11.7349 13.9754 11.5442 14.1161 11.4035C14.2567 11.2629 14.4475 11.1838 14.6464 11.1838C14.8453 11.1838 15.0361 11.2629 15.1767 11.4035C15.3174 11.5442 15.3964 11.7349 15.3964 11.9338V12.5929C15.3964 12.6914 15.377 12.789 15.3392 12.8801C15.3014 12.9712 15.2461 13.0539 15.1764 13.1235C15.1066 13.1932 15.0238 13.2484 14.9327 13.286C14.8416 13.3237 14.744 13.343 14.6454 13.3429H14.6464ZM9.8584 13.3429C9.65949 13.3429 9.46872 13.2638 9.32806 13.1232C9.18741 12.9825 9.1084 12.7918 9.1084 12.5929V11.9338C9.1084 11.7349 9.18741 11.5442 9.32806 11.4035C9.46872 11.2629 9.65949 11.1838 9.8584 11.1838C10.0573 11.1838 10.2481 11.2629 10.3887 11.4035C10.5294 11.5442 10.6084 11.7349 10.6084 11.9338V12.5929C10.6084 12.6919 10.5888 12.7899 10.5507 12.8813C10.5127 12.9726 10.4569 13.0556 10.3866 13.1253C10.3163 13.195 10.2329 13.2502 10.1413 13.2875C10.0496 13.3248 9.9514 13.3437 9.8524 13.3429H9.8584Z" fill="#000000" />
</svg>