<svg width="24px"  height="24px"  viewBox="0 0 25 24" fill="none" xmlns="http://www.w3.org/2000/svg">
<path d="M7.04957 20.8276C6.81721 20.8271 6.58592 20.7962 6.36159 20.7356C5.6953 20.5586 5.12597 20.1255 4.7776 19.5306C3.98635 18.3767 3.36343 17.1161 2.9276 15.7866C2.7905 15.3194 2.8146 14.8197 2.99599 14.3678C3.17738 13.916 3.50551 13.5383 3.9276 13.2956L4.15459 13.1656C4.75943 12.8187 5.47711 12.7258 6.15037 12.907C6.82364 13.0883 7.39762 13.529 7.7466 14.1326L9.32957 16.8766C9.55962 17.2768 9.68055 17.7305 9.68028 18.1922C9.68001 18.6538 9.55857 19.1073 9.32805 19.5073C9.09753 19.9073 8.76603 20.2398 8.36671 20.4715C7.9674 20.7031 7.51426 20.8259 7.0526 20.8276H7.04957ZM5.46159 14.3156C5.26361 14.3156 5.06912 14.3677 4.8976 14.4666L4.67158 14.5956C4.54364 14.6674 4.4434 14.7799 4.38686 14.9153C4.33031 15.0507 4.32071 15.2011 4.35957 15.3426C4.75584 16.542 5.32122 17.6788 6.03859 18.7186C6.04797 18.7318 6.05665 18.7455 6.06459 18.7596C6.13898 18.8885 6.23804 19.0014 6.35609 19.0921C6.47415 19.1827 6.60889 19.2491 6.75264 19.2877C6.89638 19.3262 7.04631 19.336 7.19386 19.3166C7.34141 19.2972 7.4837 19.249 7.61259 19.1746C7.74149 19.1002 7.85447 19.0011 7.94508 18.8831C8.03569 18.765 8.10216 18.6303 8.1407 18.4865C8.17924 18.3428 8.18907 18.1929 8.16966 18.0453C8.15026 17.8978 8.102 17.7555 8.0276 17.6266L6.44459 14.8826C6.37076 14.7535 6.272 14.6403 6.15407 14.5496C6.03613 14.459 5.90135 14.3927 5.75758 14.3546C5.6623 14.3292 5.56418 14.3161 5.46559 14.3156H5.46159Z" fill="#000000" />
<path d="M17.4498 20.8281C16.9877 20.8273 16.534 20.705 16.1341 20.4734C15.7343 20.2418 15.4024 19.9091 15.1718 19.5086C14.9412 19.1082 14.82 18.6542 14.8203 18.1921C14.8207 17.73 14.9426 17.2762 15.1738 16.8761L16.7558 14.1331C17.1061 13.5287 17.6816 13.0877 18.3563 12.9066C19.031 12.7256 19.75 12.8193 20.3558 13.1671L20.5768 13.2941C21.0025 13.5339 21.3336 13.9118 21.5154 14.3652C21.6973 14.8187 21.7189 15.3207 21.5768 15.7881C21.1401 17.1169 20.5172 18.3771 19.7268 19.5311C19.3778 20.1263 18.8077 20.5594 18.1408 20.7361C17.9155 20.797 17.6832 20.8279 17.4498 20.8281V20.8281ZM19.0388 14.3171C18.8395 14.3167 18.6436 14.3687 18.4709 14.4681C18.2981 14.5675 18.1546 14.7106 18.0548 14.8831L16.4728 17.6271C16.3985 17.756 16.3502 17.8983 16.3309 18.0458C16.3116 18.1933 16.3215 18.3432 16.36 18.4869C16.438 18.7771 16.628 19.0245 16.8883 19.1746C17.1486 19.3247 17.4579 19.3653 17.7481 19.2873C18.0383 19.2094 18.2857 19.0194 18.4358 18.7591C18.4438 18.7461 18.4518 18.7321 18.4608 18.7191C19.1774 17.6792 19.7427 16.5429 20.1398 15.3441C20.1787 15.2015 20.1686 15.05 20.1111 14.9138C20.0536 14.7776 19.9521 14.6647 19.8228 14.5931L19.6038 14.4681C19.4325 14.3696 19.2384 14.3176 19.0408 14.3171H19.0388Z" fill="#000000" />
<path d="M20.477 17.3225C20.352 17.3223 20.2291 17.291 20.1193 17.2314C20.0095 17.1717 19.9163 17.0856 19.8481 16.9809C19.78 16.8761 19.7391 16.756 19.7291 16.6314C19.7192 16.5068 19.7404 16.3817 19.791 16.2674C20.2604 15.2156 20.502 14.0763 20.5 12.9245C20.5 10.7364 19.6308 8.63801 18.0836 7.09084C16.5365 5.54366 14.4381 4.67446 12.25 4.67446C10.062 4.67446 7.96358 5.54366 6.4164 7.09084C4.86923 8.63801 4.00002 10.7364 4.00002 12.9245C3.9975 13.9266 4.17989 14.9205 4.53801 15.8565C4.5764 15.949 4.59586 16.0483 4.59524 16.1485C4.59461 16.2487 4.57392 16.3477 4.53438 16.4398C4.49484 16.5318 4.43727 16.6151 4.36504 16.6845C4.29281 16.7539 4.2074 16.8082 4.11385 16.8441C4.02031 16.88 3.92053 16.8967 3.82039 16.8934C3.72026 16.8901 3.6218 16.8667 3.53084 16.8247C3.43988 16.7827 3.35826 16.7229 3.29079 16.6489C3.22333 16.5748 3.17137 16.4879 3.13802 16.3935C2.71386 15.2862 2.49758 14.1102 2.50002 12.9245C2.49964 11.4724 2.82359 10.0386 3.4482 8.7278C4.07281 7.41697 4.9823 6.2622 6.11028 5.34783C7.23826 4.43346 8.55621 3.78257 9.96792 3.44271C11.3796 3.10284 12.8494 3.08259 14.2699 3.38341C15.6905 3.68423 17.0259 4.29854 18.1786 5.18148C19.3314 6.06441 20.2724 7.19366 20.9329 8.48677C21.5934 9.77989 21.9567 11.2042 21.9964 12.6557C22.036 14.1072 21.751 15.5492 21.162 16.8765C21.1032 17.0091 21.0072 17.1218 20.8856 17.201C20.764 17.2801 20.6221 17.3223 20.477 17.3225Z" fill="#000000" />
</svg>