<svg width="24px"  height="24px"  viewBox="0 0 25 24" fill="none" xmlns="http://www.w3.org/2000/svg">
<path d="M6.71129 20.5405C6.68029 20.5405 6.64829 20.5405 6.61129 20.5405C6.38218 20.5315 6.15413 20.5044 5.92929 20.4595C5.14564 20.3034 4.42175 19.9299 3.84045 19.3817C3.25916 18.8334 2.84393 18.1327 2.64229 17.3595C2.39532 16.4431 2.45845 15.4708 2.82184 14.594C3.18523 13.7173 3.82847 12.9854 4.65129 12.5125V12.5125C4.94637 12.344 5.27663 12.2466 5.61591 12.2279C5.95518 12.2092 6.29414 12.2698 6.60592 12.4049C6.9177 12.54 7.19373 12.7458 7.41216 13.0061C7.63058 13.2664 7.78538 13.574 7.86429 13.9045L8.80629 17.8405C8.88678 18.1719 8.88853 18.5175 8.81143 18.8497C8.73433 19.1819 8.58051 19.4914 8.36229 19.7535C8.16267 19.9989 7.91097 20.1968 7.62542 20.3329C7.33987 20.469 7.02762 20.5399 6.71129 20.5405V20.5405ZM5.41129 13.8124C4.87409 14.1238 4.45475 14.6038 4.21841 15.1779C3.98206 15.7521 3.94194 16.3882 4.10429 16.9875C4.23887 17.4846 4.50862 17.9346 4.88357 18.2877C5.25851 18.6408 5.72399 18.883 6.22829 18.9875C6.37744 19.0164 6.52851 19.0345 6.68029 19.0415C6.7816 19.0434 6.88208 19.0228 6.97444 18.9811C7.0668 18.9394 7.14873 18.8777 7.21429 18.8005C7.28333 18.7164 7.33184 18.6175 7.35597 18.5114C7.3801 18.4053 7.37918 18.2951 7.35329 18.1895L6.41129 14.2535C6.3863 14.1486 6.33711 14.051 6.26765 13.9685C6.1982 13.886 6.1104 13.8209 6.01129 13.7785C5.91567 13.7366 5.81157 13.7178 5.70736 13.7236C5.60315 13.7293 5.50174 13.7594 5.41129 13.8115V13.8124Z" fill="#000000" />
<path d="M17.7892 20.5425C17.4727 20.5422 17.1602 20.4714 16.8745 20.3353C16.5887 20.1992 16.3369 20.0011 16.1372 19.7555C15.9189 19.4936 15.765 19.1843 15.6877 18.8523C15.6104 18.5203 15.612 18.1748 15.6922 17.8435L16.6352 13.9065C16.714 13.576 16.8687 13.2684 17.087 13.0081C17.3053 12.7478 17.5813 12.542 17.893 12.4069C18.2047 12.2718 18.5436 12.2112 18.8828 12.2299C19.222 12.2485 19.5522 12.346 19.8472 12.5145V12.5145C20.6702 12.9873 21.3137 13.7191 21.6773 14.5958C22.0408 15.4726 22.1041 16.445 21.8572 17.3615C21.6554 18.1347 21.24 18.8355 20.6585 19.3838C20.0771 19.932 19.353 20.3055 18.5692 20.4615C18.3428 20.5067 18.113 20.5338 17.8822 20.5425C17.8509 20.5425 17.8199 20.5425 17.7892 20.5425ZM18.7652 13.7235C18.6103 13.7254 18.4603 13.7786 18.3389 13.8749C18.2175 13.9712 18.1314 14.105 18.0942 14.2555L17.1512 18.1905C17.1262 18.2959 17.1261 18.4057 17.1507 18.5112C17.1753 18.6167 17.2241 18.715 17.2932 18.7985C17.3595 18.8736 17.4408 18.934 17.532 18.9755C17.6231 19.017 17.7221 19.0388 17.8222 19.0395C17.9758 19.033 18.1285 19.0146 18.2792 18.9845C18.7837 18.8802 19.2494 18.638 19.6245 18.285C19.9997 17.9319 20.2696 17.4817 20.4042 16.9845C20.5663 16.3851 20.526 15.749 20.2894 15.1748C20.0529 14.6007 19.6335 14.1207 19.0962 13.8095V13.8095C18.9954 13.7521 18.8812 13.7224 18.7652 13.7235V13.7235Z" fill="#000000" />
<path d="M19.877 14.1827C19.678 14.1827 19.4873 14.1036 19.3466 13.963C19.206 13.8223 19.127 13.6316 19.127 13.4327V11.5137C19.127 9.69031 18.4026 7.94163 17.1133 6.65231C15.824 5.363 14.0753 4.63867 12.252 4.63867C10.4286 4.63867 8.67991 5.363 7.39059 6.65231C6.10128 7.94163 5.37695 9.69031 5.37695 11.5137V13.4327C5.37695 13.6316 5.29793 13.8223 5.15728 13.963C5.01663 14.1036 4.82587 14.1827 4.62695 14.1827C4.42804 14.1827 4.23728 14.1036 4.09663 13.963C3.95597 13.8223 3.87695 13.6316 3.87695 13.4327V11.5137C3.87695 9.29248 4.75932 7.16226 6.32993 5.59164C7.90055 4.02103 10.0308 3.13867 12.252 3.13867C14.4731 3.13867 16.6034 4.02103 18.174 5.59164C19.7446 7.16226 20.627 9.29248 20.627 11.5137V13.4327C20.627 13.6316 20.5479 13.8223 20.4073 13.963C20.2666 14.1036 20.0759 14.1827 19.877 14.1827V14.1827Z" fill="#000000" />
<path d="M12.252 13.0315C12.053 13.0315 11.8623 12.9525 11.7216 12.8118C11.581 12.6711 11.502 12.4804 11.502 12.2815V9.18945C11.502 8.99054 11.581 8.79977 11.7216 8.65912C11.8623 8.51847 12.053 8.43945 12.252 8.43945C12.4509 8.43945 12.6416 8.51847 12.7823 8.65912C12.9229 8.79977 13.002 8.99054 13.002 9.18945V12.2815C13.002 12.4804 12.9229 12.6711 12.7823 12.8118C12.6416 12.9525 12.4509 13.0315 12.252 13.0315V13.0315Z" fill="#000000" />
<path d="M12.252 15.4355C12.1537 15.4361 12.0564 15.4172 11.9655 15.38C11.8746 15.3428 11.7919 15.288 11.7222 15.2188C11.6525 15.1496 11.5972 15.0673 11.5594 14.9766C11.5216 14.886 11.5021 14.7888 11.502 14.6905V14.6805C11.5029 14.5324 11.5478 14.3879 11.6308 14.2652C11.7138 14.1426 11.8313 14.0472 11.9684 13.9912C12.1055 13.9352 12.2562 13.9211 12.4013 13.9506C12.5465 13.9801 12.6796 14.0519 12.784 14.157C12.8884 14.2621 12.9593 14.3957 12.9879 14.5411C13.0164 14.6864 13.0013 14.8369 12.9444 14.9737C12.8875 15.1104 12.7913 15.2273 12.6681 15.3095C12.5449 15.3917 12.4001 15.4355 12.252 15.4355V15.4355Z" fill="#000000" />
</svg>