<svg width="24px"  height="24px"  viewBox="0 0 25 24" fill="none" xmlns="http://www.w3.org/2000/svg">
<path d="M7.04964 20.8278C6.81834 20.8272 6.58809 20.7966 6.36464 20.7368C5.69712 20.5602 5.12659 20.1266 4.77764 19.5308C3.98612 18.377 3.36287 17.1163 2.92664 15.7868C2.78465 15.3197 2.80638 14.818 2.98821 14.3649C3.17005 13.9117 3.50111 13.5342 3.92664 13.2948L4.15164 13.1668C4.45131 12.994 4.78209 12.8818 5.1251 12.8368C5.4681 12.7918 5.81662 12.8148 6.15073 12.9045C6.48485 12.9942 6.79802 13.1489 7.07236 13.3596C7.3467 13.5704 7.57684 13.8331 7.74964 14.1328L9.33264 16.8768C9.56262 17.2776 9.6833 17.7317 9.68261 18.1937C9.68192 18.6558 9.55988 19.1096 9.32871 19.5096C9.09754 19.9097 8.76535 20.242 8.36538 20.4734C7.96541 20.7047 7.51169 20.8269 7.04964 20.8278ZM5.46164 14.3158C5.26366 14.3159 5.06918 14.368 4.89764 14.4668L4.67364 14.5948C4.54529 14.6668 4.44468 14.7796 4.38779 14.9153C4.3309 15.051 4.32099 15.2018 4.35964 15.3438C4.75614 16.5429 5.32149 17.6793 6.03864 18.7188C6.04764 18.7318 6.05564 18.7458 6.06364 18.7588C6.13797 18.8878 6.23697 19.0008 6.35499 19.0915C6.47301 19.1822 6.60774 19.2488 6.75148 19.2874C6.89523 19.3261 7.04517 19.336 7.19276 19.3167C7.34034 19.2973 7.48268 19.2492 7.61164 19.1748C7.7406 19.1005 7.85365 19.0015 7.94435 18.8835C8.03505 18.7655 8.10161 18.6307 8.14024 18.487C8.17887 18.3432 8.18881 18.1933 8.16949 18.0457C8.15017 17.8981 8.10197 17.7558 8.02764 17.6268L6.44964 14.8828C6.34995 14.7102 6.20649 14.5668 6.03373 14.4673C5.86097 14.3677 5.66502 14.3155 5.46564 14.3158H5.46164Z" fill="#000000" />
<path d="M17.4495 20.8261C16.9876 20.8251 16.5341 20.7027 16.1344 20.4711C15.7347 20.2396 15.4029 19.907 15.1723 19.5068C14.9417 19.1066 14.8203 18.6528 14.8203 18.191C14.8203 17.7291 14.9418 17.2753 15.1725 16.8751L16.7545 14.1311C17.1046 13.5265 17.6801 13.0854 18.355 12.9045C19.0298 12.7236 19.7489 12.8176 20.3545 13.1661L20.5755 13.2921C21.0014 13.5316 21.3328 13.9095 21.5146 14.363C21.6965 14.8166 21.718 15.3187 21.5755 15.7861C21.139 17.115 20.5161 18.3752 19.7255 19.5291C19.3761 20.125 18.8053 20.5585 18.1375 20.7351C17.9131 20.7953 17.6818 20.8259 17.4495 20.8261V20.8261ZM19.0385 14.3151C18.8392 14.3147 18.6433 14.3668 18.4706 14.4661C18.2978 14.5655 18.1543 14.7086 18.0545 14.8811L16.4725 17.6251C16.3981 17.754 16.3499 17.8963 16.3306 18.0438C16.3112 18.1914 16.3211 18.3412 16.3597 18.4849C16.3983 18.6286 16.4648 18.7633 16.5555 18.8813C16.6461 18.9993 16.7591 19.0983 16.888 19.1726C17.0169 19.2469 17.1591 19.2952 17.3067 19.3145C17.4542 19.3339 17.6041 19.324 17.7478 19.2854C17.8915 19.2468 18.0262 19.1803 18.1442 19.0896C18.2622 18.999 18.3611 18.886 18.4355 18.7571L18.4605 18.7171C19.1775 17.6779 19.7428 16.5418 20.1395 15.3431C20.1784 15.2005 20.1682 15.049 20.1108 14.9128C20.0533 14.7767 19.9518 14.6637 19.8225 14.5921L19.6035 14.4661C19.4322 14.3676 19.2381 14.3156 19.0405 14.3151H19.0385Z" fill="#000000" />
<path d="M20.476 17.3202C20.351 17.3202 20.228 17.2889 20.1182 17.2293C20.0084 17.1696 19.9152 17.0835 19.8472 16.9786C19.7791 16.8738 19.7383 16.7537 19.7285 16.6291C19.7187 16.5045 19.7402 16.3794 19.791 16.2652C20.2881 15.1424 20.5282 13.9228 20.4938 12.6953C20.4594 11.4679 20.1515 10.2635 19.5924 9.17028C19.0333 8.07702 18.2372 7.12239 17.2621 6.376C16.2871 5.62962 15.1577 5.11032 13.9564 4.85601C12.7551 4.60171 11.5122 4.61881 10.3183 4.90606C9.12445 5.19332 8.00978 5.74349 7.05564 6.51642C6.10149 7.28934 5.33194 8.26552 4.80314 9.37375C4.27433 10.482 3.99961 11.6943 3.99902 12.9222C3.99687 13.9243 4.17924 14.9182 4.53702 15.8542C4.60207 16.0385 4.59262 16.2409 4.5107 16.4183C4.42877 16.5957 4.28084 16.7341 4.09839 16.8041C3.91593 16.8741 3.71337 16.8701 3.53381 16.793C3.35426 16.7159 3.21189 16.5717 3.13702 16.3912C2.71353 15.2838 2.4976 14.1078 2.50002 12.9222C2.49997 11.4704 2.82415 10.0369 3.4489 8.72632C4.07365 7.41577 4.98319 6.26129 6.11111 5.34716C7.23904 4.43304 8.55687 3.78234 9.9684 3.44259C11.3799 3.10285 12.8495 3.08262 14.2699 3.38339C15.6902 3.68415 17.0254 4.29833 18.1781 5.18106C19.3308 6.06379 20.2717 7.19277 20.9323 8.48562C21.5929 9.77847 21.9564 11.2025 21.9963 12.6538C22.0362 14.1051 21.7515 15.547 21.163 16.8742C21.104 17.0071 21.0076 17.12 20.8857 17.1991C20.7637 17.2783 20.6214 17.3204 20.476 17.3202V17.3202Z" fill="#000000" />
<path d="M9.84961 12.9207C9.6507 12.9207 9.45993 12.8417 9.31928 12.701C9.17863 12.5604 9.09961 12.3697 9.09961 12.1707V11.5117C9.09961 11.3128 9.17863 11.1221 9.31928 10.9814C9.45993 10.8408 9.6507 10.7617 9.84961 10.7617C10.0485 10.7617 10.2393 10.8408 10.3799 10.9814C10.5206 11.1221 10.5996 11.3128 10.5996 11.5117V12.1707C10.5996 12.3697 10.5206 12.5604 10.3799 12.701C10.2393 12.8417 10.0485 12.9207 9.84961 12.9207V12.9207Z" fill="#000000" />
<path d="M14.6426 12.9207C14.4437 12.9207 14.2529 12.8417 14.1122 12.701C13.9716 12.5604 13.8926 12.3697 13.8926 12.1707V11.5117C13.8926 11.3128 13.9716 11.1221 14.1122 10.9814C14.2529 10.8408 14.4437 10.7617 14.6426 10.7617C14.8415 10.7617 15.0323 10.8408 15.1729 10.9814C15.3136 11.1221 15.3926 11.3128 15.3926 11.5117V12.1707C15.3926 12.3697 15.3136 12.5604 15.1729 12.701C15.0323 12.8417 14.8415 12.9207 14.6426 12.9207Z" fill="#000000" />
<path d="M12.25 14.268C12.0511 14.268 11.8603 14.189 11.7197 14.0483C11.579 13.9077 11.5 13.7169 11.5 13.518V10.166C11.5 9.9671 11.579 9.77633 11.7197 9.63568C11.8603 9.49503 12.0511 9.41602 12.25 9.41602C12.4489 9.41602 12.6397 9.49503 12.7803 9.63568C12.921 9.77633 13 9.9671 13 10.166V13.518C13 13.7169 12.921 13.9077 12.7803 14.0483C12.6397 14.189 12.4489 14.268 12.25 14.268V14.268Z" fill="#000000" />
</svg>