<svg width="24px"  height="24px"  viewBox="0 0 25 24" fill="none" xmlns="http://www.w3.org/2000/svg">
<path d="M6.71103 20.5413C6.67903 20.5413 6.64802 20.5413 6.61102 20.5413C6.38224 20.5323 6.15453 20.5052 5.93002 20.4603C5.14632 20.3044 4.42238 19.9309 3.84106 19.3826C3.25974 18.8344 2.84457 18.1336 2.64303 17.3603C2.3963 16.4441 2.45955 15.472 2.82293 14.5955C3.18631 13.719 3.82939 12.9872 4.652 12.5143V12.5143C4.94708 12.3459 5.27736 12.2485 5.61663 12.2298C5.95591 12.2112 6.29483 12.2719 6.60656 12.4071C6.91829 12.5423 7.19424 12.7483 7.4125 13.0087C7.63077 13.2691 7.78536 13.5768 7.86401 13.9073L8.80801 17.8423C8.8882 18.1738 8.88973 18.5194 8.81247 18.8516C8.7352 19.1838 8.58126 19.4933 8.363 19.7553C8.16318 20.0007 7.9113 20.1985 7.62558 20.3344C7.33985 20.4704 7.02745 20.5411 6.71103 20.5413V20.5413ZM5.41101 13.8133C4.87381 14.1246 4.45448 14.6047 4.21814 15.1788C3.98179 15.7529 3.94169 16.389 4.10403 16.9883C4.23862 17.4854 4.50835 17.9355 4.8833 18.2886C5.25824 18.6416 5.72372 18.8839 6.22802 18.9883C6.37685 19.0172 6.52757 19.0353 6.67901 19.0423C6.78093 19.0476 6.88265 19.0286 6.9757 18.9867C7.06876 18.9447 7.15047 18.8812 7.21402 18.8013C7.28306 18.7173 7.33158 18.6183 7.35571 18.5123C7.37984 18.4062 7.37892 18.296 7.35302 18.1903L6.40902 14.2543C6.38433 14.1493 6.33524 14.0516 6.26574 13.969C6.19625 13.8865 6.10832 13.8215 6.00903 13.7793C5.91335 13.7377 5.80927 13.7191 5.7051 13.7248C5.60094 13.7305 5.49956 13.7605 5.40902 13.8123L5.41101 13.8133Z" fill="#000000" />
<path d="M17.79 20.5424C17.4735 20.5421 17.161 20.4713 16.8753 20.3352C16.5895 20.1991 16.3377 20.001 16.138 19.7554C15.9198 19.4935 15.766 19.1842 15.6887 18.8522C15.6114 18.5202 15.6129 18.1748 15.693 17.8435L16.635 13.9064C16.7139 13.5759 16.8688 13.2684 17.0872 13.0081C17.3056 12.7478 17.5816 12.542 17.8934 12.4069C18.2052 12.2718 18.5441 12.2112 18.8834 12.2299C19.2227 12.2485 19.553 12.346 19.848 12.5144V12.5144C20.6709 12.9874 21.3141 13.7193 21.6775 14.596C22.0409 15.4728 22.104 16.4451 21.857 17.3614C21.6554 18.1346 21.2402 18.8354 20.6589 19.3836C20.0776 19.9319 19.3537 20.3054 18.57 20.4614C18.3434 20.5059 18.1138 20.5326 17.883 20.5415C17.8524 20.5421 17.8214 20.5424 17.79 20.5424ZM18.766 13.7234C18.6109 13.7251 18.4607 13.7783 18.3391 13.8746C18.2175 13.9708 18.1313 14.1048 18.094 14.2554L17.152 18.1904C17.127 18.2918 17.1255 18.3976 17.1477 18.4996C17.1698 18.6017 17.2149 18.6973 17.2797 18.7792C17.3444 18.8611 17.4271 18.9272 17.5212 18.9723C17.6154 19.0174 17.7186 19.0403 17.823 19.0394C17.9762 19.0328 18.1286 19.0148 18.279 18.9855C18.7836 18.8812 19.2493 18.6391 19.6244 18.286C19.9996 17.933 20.2695 17.4827 20.404 16.9855C20.5664 16.3862 20.5262 15.75 20.2899 15.1759C20.0536 14.6018 19.6342 14.1217 19.097 13.8104C18.9963 13.7527 18.8821 13.7227 18.766 13.7234V13.7234Z" fill="#000000" />
<path d="M19.8779 14.1827C19.679 14.1827 19.4882 14.1036 19.3476 13.963C19.2069 13.8223 19.1279 13.6316 19.1279 13.4327V11.5137C19.1279 9.69031 18.4036 7.94163 17.1143 6.65231C15.825 5.363 14.0763 4.63867 12.2529 4.63867C10.4296 4.63867 8.68088 5.363 7.39157 6.65231C6.10226 7.94163 5.37793 9.69031 5.37793 11.5137V13.4327C5.37793 13.6316 5.29892 13.8223 5.15826 13.963C5.01761 14.1036 4.82684 14.1827 4.62793 14.1827C4.42902 14.1827 4.23825 14.1036 4.0976 13.963C3.95694 13.8223 3.87793 13.6316 3.87793 13.4327V11.5137C3.87793 9.29248 4.76028 7.16226 6.3309 5.59164C7.90152 4.02103 10.0317 3.13867 12.2529 3.13867C14.4741 3.13867 16.6043 4.02103 18.175 5.59164C19.7456 7.16226 20.6279 9.29248 20.6279 11.5137V13.4327C20.6279 13.6316 20.5489 13.8223 20.4083 13.963C20.2676 14.1036 20.0768 14.1827 19.8779 14.1827V14.1827Z" fill="#000000" />
<path d="M12.9354 14.2818H12.8744C12.7386 14.2708 12.6084 14.223 12.4977 14.1436C12.3871 14.0641 12.3002 13.956 12.2464 13.8308L11.4354 11.9398L11.1784 12.3398C11.1107 12.4461 11.0173 12.5336 10.9068 12.5942C10.7964 12.6548 10.6724 12.6867 10.5464 12.6868H9.4834C9.28449 12.6868 9.09372 12.6078 8.95306 12.4671C8.81241 12.3265 8.7334 12.1357 8.7334 11.9368C8.7334 11.7379 8.81241 11.5471 8.95306 11.4065C9.09372 11.2658 9.28449 11.1868 9.4834 11.1868H10.1354L10.9354 9.9378C11.0088 9.82299 11.1121 9.73034 11.2342 9.66982C11.3563 9.6093 11.4926 9.58319 11.6284 9.59429C11.7642 9.60539 11.8945 9.65329 12.0051 9.73284C12.1157 9.81239 12.2026 9.92059 12.2564 10.0458L13.0674 11.9358L13.3254 11.5358C13.3931 11.4295 13.4865 11.342 13.597 11.2814C13.7074 11.2207 13.8314 11.1889 13.9574 11.1888H15.0194C15.2183 11.1888 15.4091 11.2678 15.5497 11.4085C15.6904 11.5491 15.7694 11.7399 15.7694 11.9388C15.7694 12.1377 15.6904 12.3285 15.5497 12.4691C15.4091 12.6098 15.2183 12.6888 15.0194 12.6888H14.3684L13.5684 13.9388C13.5001 14.0445 13.4064 14.1313 13.2957 14.1912C13.1851 14.2512 13.0612 14.2823 12.9354 14.2818V14.2818Z" fill="#000000" />
</svg>