<svg width="24px"  height="24px"  viewBox="0 0 25 24" fill="none" xmlns="http://www.w3.org/2000/svg">
<path d="M7.05858 21.4446C6.59934 21.4438 6.14823 21.3235 5.74953 21.0956C5.35084 20.8677 5.0183 20.5399 4.7846 20.1446C3.994 18.9905 3.37144 17.7299 2.9356 16.4006C2.79832 15.9334 2.82231 15.4336 3.00371 14.9817C3.18512 14.5298 3.51339 14.1522 3.9356 13.9096L4.1596 13.7806C4.45938 13.6076 4.79031 13.4953 5.1335 13.4502C5.47669 13.4051 5.82541 13.4281 6.15972 13.5178C6.49403 13.6075 6.80739 13.7622 7.0819 13.973C7.35641 14.1839 7.58671 14.4467 7.7596 14.7466L9.3416 17.4896C9.57221 17.8896 9.69363 18.3432 9.69375 18.8049C9.69386 19.2667 9.57268 19.7203 9.34228 20.1205C9.11188 20.5206 8.78036 20.8532 8.38097 21.0849C7.98158 21.3166 7.52831 21.4392 7.06658 21.4406L7.05858 21.4446ZM5.46859 14.9336C5.27061 14.9337 5.07614 14.9858 4.90459 15.0846L4.6816 15.2126C4.55309 15.2842 4.45228 15.3967 4.39535 15.5323C4.33842 15.668 4.32866 15.8188 4.36761 15.9606C4.76411 17.16 5.32944 18.2967 6.04659 19.3366C6.05559 19.3496 6.06261 19.3636 6.07061 19.3766C6.14506 19.5057 6.24423 19.6189 6.36248 19.7096C6.48073 19.8003 6.61571 19.8667 6.75969 19.9052C6.90368 19.9436 7.05383 19.9533 7.20156 19.9337C7.34929 19.914 7.49169 19.8654 7.6206 19.7906C7.74946 19.7165 7.86241 19.6176 7.95299 19.4997C8.04358 19.3818 8.11 19.2471 8.14846 19.1035C8.18692 18.9599 8.19665 18.8101 8.17711 18.6627C8.15757 18.5153 8.10915 18.3732 8.0346 18.2446L6.4526 15.5006C6.35288 15.3279 6.20943 15.1845 6.0367 15.0847C5.86397 14.985 5.66803 14.9326 5.46859 14.9326V14.9336Z" fill="#000000" />
<path d="M17.4488 21.445C16.9868 21.444 16.5332 21.3216 16.1335 21.0899C15.7337 20.8582 15.402 20.5255 15.1715 20.1251C14.9411 19.7247 14.8199 19.2707 14.8203 18.8087C14.8207 18.3467 14.9426 17.893 15.1738 17.493L16.7558 14.751C17.1057 14.1462 17.6812 13.7049 18.3561 13.5238C19.0309 13.3427 19.7501 13.4366 20.3558 13.785L20.5768 13.912C21.0025 14.1518 21.3336 14.5296 21.5154 14.9831C21.6972 15.4366 21.7189 15.9386 21.5768 16.406C21.1395 17.7348 20.5163 18.9949 19.7258 20.149C19.3756 20.7421 18.8058 21.1733 18.1398 21.349C17.9146 21.4109 17.6823 21.4432 17.4488 21.445ZM19.0388 14.935C18.8395 14.9346 18.6436 14.9866 18.4709 15.086C18.2981 15.1854 18.1546 15.3285 18.0548 15.501L16.4728 18.244C16.3982 18.3727 16.3498 18.5149 16.3302 18.6624C16.3106 18.8098 16.3204 18.9597 16.3588 19.1034C16.3973 19.2471 16.4637 19.3818 16.5543 19.4998C16.6449 19.6178 16.7579 19.7168 16.8868 19.791C17.1474 19.9415 17.4568 19.9828 17.7478 19.906C17.8913 19.8677 18.0258 19.8013 18.1436 19.7106C18.2613 19.62 18.36 19.5069 18.4338 19.378C18.4428 19.364 18.4508 19.35 18.4598 19.337C19.1768 18.2973 19.7425 17.1609 20.1398 15.962C20.1785 15.8194 20.1683 15.668 20.1108 15.5318C20.0534 15.3957 19.952 15.2827 19.8228 15.211L19.6038 15.086C19.4349 14.9885 19.2438 14.9361 19.0488 14.934L19.0388 14.935Z" fill="#000000" />
<path d="M17.7573 8.95566H17.7353C17.4608 8.95307 17.1895 8.89534 16.9377 8.78592C16.6859 8.67649 16.4586 8.51761 16.2693 8.31866L16.1883 8.23566C15.6744 7.71626 15.0625 7.30408 14.388 7.02307C13.7135 6.74206 12.99 6.59781 12.2593 6.59866H12.2513C11.5187 6.59718 10.793 6.74122 10.1165 7.0224C9.44 7.30358 8.82605 7.71632 8.31031 8.23666L8.22931 8.31766C8.04055 8.51633 7.81374 8.67501 7.56241 8.78427C7.31108 8.89353 7.04037 8.95115 6.76633 8.95367H6.75132C6.48788 8.95388 6.22699 8.90202 5.98365 8.80112C5.7403 8.70021 5.5193 8.55223 5.33332 8.36566C4.96257 7.99485 4.74952 7.49508 4.73871 6.97083C4.7279 6.44657 4.92015 5.93845 5.2753 5.55267L5.45133 5.36966C7.2575 3.56707 9.70503 2.55469 12.2568 2.55469C14.8086 2.55469 17.2561 3.56707 19.0623 5.36966L19.2363 5.54868C19.5933 5.93496 19.7872 6.44424 19.7775 6.97012C19.7678 7.49601 19.5553 7.9978 19.1843 8.37067C18.997 8.55777 18.7744 8.70582 18.5295 8.80624C18.2845 8.90667 18.0221 8.95745 17.7573 8.95566ZM12.2573 5.09866H12.2633C13.1912 5.09726 14.1102 5.28024 14.9668 5.63696C15.8235 5.99369 16.6007 6.51706 17.2533 7.17667L17.3593 7.28568C17.4098 7.34119 17.4717 7.38511 17.5407 7.41446C17.6098 7.4438 17.6843 7.45785 17.7593 7.45566C17.8265 7.45618 17.8931 7.44319 17.9551 7.41742C18.0171 7.39165 18.0733 7.35363 18.1203 7.30566C18.2174 7.21149 18.2745 7.08359 18.2799 6.94846C18.2853 6.81332 18.2386 6.68127 18.1493 6.57965L17.9903 6.41666C16.4657 4.89958 14.4018 4.0487 12.251 4.05038C10.1001 4.05207 8.03762 4.90619 6.51532 6.42566L6.3573 6.58768C6.27033 6.68899 6.22549 6.81976 6.232 6.95312C6.23851 7.08649 6.29588 7.2123 6.39231 7.30466C6.49486 7.39087 6.62176 7.44298 6.75532 7.45367C6.83039 7.4527 6.90452 7.43661 6.97324 7.40637C7.04197 7.37613 7.10387 7.33238 7.15531 7.27768L7.26532 7.16666C7.91871 6.50983 8.69571 5.98891 9.55149 5.63397C10.4073 5.27903 11.3249 5.09709 12.2513 5.09866H12.2573Z" fill="#000000" />
<path d="M20.9077 16.7311C20.8369 16.731 20.7665 16.7206 20.6988 16.7001C20.6042 16.6728 20.5159 16.6272 20.439 16.5658C20.3621 16.5043 20.2981 16.4283 20.2507 16.3421C20.2032 16.2559 20.1732 16.1612 20.1624 16.0634C20.1516 15.9656 20.1602 15.8666 20.1877 15.7721C20.397 15.0473 20.5024 14.2965 20.5008 13.5421C20.5023 11.4841 19.7311 9.50052 18.3397 7.98409C18.271 7.91192 18.2173 7.82677 18.1819 7.73363C18.1464 7.64048 18.1299 7.54118 18.1332 7.44158C18.1366 7.34197 18.1597 7.24404 18.2014 7.15349C18.243 7.06294 18.3023 6.98159 18.3757 6.9142C18.4492 6.84682 18.5353 6.79472 18.6291 6.761C18.7229 6.72728 18.8224 6.71262 18.922 6.71782C19.0215 6.72302 19.119 6.74799 19.2088 6.79131C19.2985 6.83462 19.3788 6.8954 19.4448 6.97008C21.0905 8.76284 22.0028 11.1084 22.0008 13.5421C22.0025 14.438 21.8769 15.3295 21.6277 16.1901C21.5825 16.3461 21.4878 16.4831 21.358 16.5807C21.2282 16.6782 21.0701 16.731 20.9077 16.7311V16.7311Z" fill="#000000" />
<path d="M3.63712 16.866C3.47836 16.8662 3.32365 16.8159 3.19532 16.7224C3.06698 16.629 2.97167 16.4972 2.92313 16.346C2.63783 15.4402 2.49512 14.4956 2.50013 13.546C2.49808 11.1123 3.41034 8.76674 5.05613 6.97398C5.12213 6.89931 5.20236 6.83853 5.29212 6.79521C5.38188 6.7519 5.47939 6.72693 5.57892 6.72173C5.67845 6.71652 5.77801 6.73119 5.8718 6.76491C5.96559 6.79863 6.05172 6.85072 6.12516 6.91811C6.19859 6.98549 6.25784 7.06684 6.29947 7.1574C6.34111 7.24795 6.3643 7.34587 6.36765 7.44548C6.371 7.54509 6.35446 7.64439 6.31901 7.73753C6.28355 7.83068 6.22988 7.91583 6.16114 7.98799C4.76981 9.50443 3.99857 11.488 4.00013 13.546C3.99449 14.3411 4.11293 15.1323 4.35114 15.891C4.38133 15.9847 4.3927 16.0835 4.38465 16.1817C4.3766 16.2799 4.34929 16.3755 4.30424 16.4631C4.25918 16.5507 4.19731 16.6285 4.12214 16.6922C4.04696 16.7558 3.95995 16.804 3.86612 16.834C3.79198 16.8567 3.71467 16.8676 3.63712 16.866V16.866Z" fill="#000000" />
</svg>