<svg width="24px"  height="24px"  viewBox="0 0 25 24" fill="none" xmlns="http://www.w3.org/2000/svg">
<path fill-rule="evenodd" clip-rule="evenodd" d="M8.53452 11.3065C8.855 11.5689 8.90205 12.0414 8.63963 12.3619L4.3813 17.5622L4.38126 17.5622C3.18607 19.0215 5.13833 20.9404 6.5735 19.7234L6.57355 19.7234L11.6659 15.4062C11.9818 15.1383 12.4551 15.1773 12.723 15.4933C12.9908 15.8092 12.9518 16.2825 12.6359 16.5504L7.5436 20.8675C7.54358 20.8675 7.54356 20.8675 7.54355 20.8676C4.72041 23.2613 0.864152 19.4893 3.22075 16.6118C3.22076 16.6118 3.22078 16.6118 3.22079 16.6118L7.47908 11.4116C7.74151 11.0911 8.21405 11.044 8.53452 11.3065Z" fill="#000000" />
<path fill-rule="evenodd" clip-rule="evenodd" d="M5.02045 3.93451C5.31334 3.64162 5.78822 3.64162 6.08111 3.93451L21.78 19.6334C22.0729 19.9263 22.0729 20.4012 21.78 20.6941C21.4871 20.987 21.0123 20.987 20.7194 20.6941L5.02045 4.99517C4.72756 4.70228 4.72756 4.22741 5.02045 3.93451Z" fill="#000000" />
<path fill-rule="evenodd" clip-rule="evenodd" d="M18.8124 5.22495C17.0242 3.43684 14.114 3.42882 12.3179 5.22495C11.2634 6.27946 10.8255 7.72942 11.0191 9.09282C11.0773 9.50292 10.7921 9.88258 10.382 9.9408C9.97188 9.99903 9.59223 9.71377 9.534 9.30367C9.27623 7.48804 9.8588 5.56273 11.2572 4.16429C13.641 1.78058 17.5009 1.79219 19.873 4.16429C22.2558 6.5471 22.2558 10.4071 19.873 12.7899C18.4861 14.1768 16.5715 14.7711 14.7441 14.5132C14.3339 14.4553 14.0483 14.0759 14.1062 13.6658C14.1641 13.2556 14.5435 12.97 14.9537 13.0279C16.3249 13.2214 17.766 12.7756 18.8124 11.7292C20.6094 9.93218 20.6094 7.02198 18.8124 5.22495Z" fill="#000000" />
<path fill-rule="evenodd" clip-rule="evenodd" d="M9.4577 17.7207C9.80184 17.4902 10.2677 17.5823 10.4982 17.9264L11.1943 18.9657C11.6434 19.6321 12.5689 19.8237 13.2864 19.3481C13.2866 19.3479 13.2862 19.3482 13.2864 19.3481L14.2349 18.7158C14.5299 18.5239 14.862 18.4094 15.1801 18.366C15.5905 18.3101 15.9685 18.5974 16.0245 19.0078C16.0805 19.4182 15.7931 19.7963 15.3827 19.8523C15.2703 19.8676 15.1522 19.9093 15.0554 19.9715L14.1177 20.5966L14.1164 20.5975C12.7345 21.5145 10.8742 21.1765 9.94953 19.8027L9.94858 19.8013L9.25195 18.7612C9.02143 18.4171 9.11355 17.9512 9.4577 17.7207Z" fill="#000000" />
</svg>