<svg width="24px"  height="24px"  viewBox="0 0 25 24" fill="none" xmlns="http://www.w3.org/2000/svg">
<path d="M12.253 18.741C11.2055 18.7389 10.1688 18.5305 9.20196 18.1276C8.23511 17.7247 7.3571 17.1354 6.6181 16.3931C5.87909 15.6508 5.29356 14.7703 4.89495 13.8017C4.49634 12.8331 4.29245 11.7954 4.29494 10.748C4.29547 10.5494 4.37475 10.3592 4.51534 10.219C4.65594 10.0787 4.84638 10 5.04494 10V10C5.14344 10.0003 5.24092 10.0199 5.33181 10.0579C5.4227 10.0958 5.50524 10.1512 5.5747 10.2211C5.64416 10.2909 5.69918 10.3737 5.73663 10.4648C5.77407 10.5559 5.79322 10.6535 5.79296 10.752C5.79296 12.4645 6.47324 14.1069 7.68417 15.3178C8.89509 16.5287 10.5375 17.209 12.25 17.209C13.9625 17.209 15.6048 16.5287 16.8157 15.3178C18.0266 14.1069 18.707 12.4645 18.707 10.752C18.7067 10.6535 18.7258 10.5559 18.7633 10.4648C18.8007 10.3737 18.8557 10.2909 18.9252 10.2211C18.9947 10.1512 19.0772 10.0958 19.1681 10.0579C19.259 10.0199 19.3565 10.0003 19.4549 10V10C19.6535 10 19.844 10.0787 19.9846 10.219C20.1252 10.3592 20.2044 10.5494 20.2049 10.748C20.2074 11.7952 20.0036 12.8327 19.6052 13.8012C19.2067 14.7697 18.6213 15.6502 17.8825 16.3924C17.1437 17.1346 16.266 17.7241 15.2993 18.127C14.3327 18.53 13.2962 18.7386 12.249 18.741H12.253Z" fill="#000000" />
<path d="M12.252 21.5902C12.053 21.5902 11.8623 21.5112 11.7216 21.3706C11.581 21.2299 11.502 21.0392 11.502 20.8402V17.9902C11.502 17.7913 11.581 17.6006 11.7216 17.4599C11.8623 17.3193 12.053 17.2402 12.252 17.2402C12.4509 17.2402 12.6416 17.3193 12.7823 17.4599C12.9229 17.6006 13.002 17.7913 13.002 17.9902V20.8383C13.0022 20.9369 12.983 21.0347 12.9454 21.1259C12.9079 21.2171 12.8527 21.3 12.783 21.3699C12.7133 21.4397 12.6306 21.4951 12.5394 21.533C12.4483 21.5708 12.3506 21.5902 12.252 21.5902Z" fill="#000000" />
<path d="M12.2528 15.1469C11.0814 15.1439 9.95901 14.6764 9.13202 13.8467C8.30503 13.0171 7.841 11.8933 7.8418 10.7219V6.49884C7.8418 5.3295 8.30633 4.20807 9.13318 3.38123C9.96003 2.55438 11.0815 2.08984 12.2508 2.08984C13.4201 2.08984 14.5416 2.55438 15.3684 3.38123C16.1953 4.20807 16.6598 5.3295 16.6598 6.49884V10.7219C16.6617 11.8929 16.1985 13.0168 15.3722 13.8465C14.5458 14.6762 13.4238 15.1439 12.2528 15.1469V15.1469ZM12.2528 3.58984C11.4815 3.59064 10.7421 3.89738 10.1967 4.44275C9.65135 4.98812 9.34461 5.72757 9.34381 6.49884V10.7249C9.34381 11.1069 9.41906 11.4851 9.56525 11.8381C9.71144 12.191 9.92571 12.5117 10.1958 12.7818C10.466 13.052 10.7867 13.2662 11.1396 13.4124C11.4925 13.5586 11.8708 13.6339 12.2528 13.6339C12.6348 13.6339 13.0131 13.5586 13.366 13.4124C13.719 13.2662 14.0397 13.052 14.3098 12.7818C14.5799 12.5117 14.7942 12.191 14.9404 11.8381C15.0866 11.4851 15.1618 11.1069 15.1618 10.7249V6.49985C15.1613 5.7284 14.8547 4.9887 14.3093 4.44312C13.7639 3.89753 13.0243 3.59064 12.2528 3.58984Z" fill="#000000" />
<path d="M15.9098 10.8625H13.2168C13.0179 10.8625 12.8271 10.7835 12.6865 10.6428C12.5458 10.5022 12.4668 10.3114 12.4668 10.1125C12.4668 9.91358 12.5458 9.72281 12.6865 9.58215C12.8271 9.4415 13.0179 9.36249 13.2168 9.36249H15.9098C16.1087 9.36249 16.2995 9.4415 16.4401 9.58215C16.5808 9.72281 16.6598 9.91358 16.6598 10.1125C16.6598 10.3114 16.5808 10.5022 16.4401 10.6428C16.2995 10.7835 16.1087 10.8625 15.9098 10.8625ZM15.9098 7.85547H14.1168C13.9179 7.85547 13.7271 7.77646 13.5865 7.6358C13.4458 7.49515 13.3668 7.30438 13.3668 7.10547C13.3668 6.90656 13.4458 6.71582 13.5865 6.57516C13.7271 6.43451 13.9179 6.35547 14.1168 6.35547H15.9098C16.1087 6.35547 16.2995 6.43451 16.4401 6.57516C16.5808 6.71582 16.6598 6.90656 16.6598 7.10547C16.6598 7.30438 16.5808 7.49515 16.4401 7.6358C16.2995 7.77646 16.1087 7.85547 15.9098 7.85547V7.85547Z" fill="#000000" />
</svg>