<svg width="24px"  height="24px"  viewBox="0 0 25 24" fill="none" xmlns="http://www.w3.org/2000/svg">
<path fill-rule="evenodd" clip-rule="evenodd" d="M9.59106 17.8102C9.9354 17.58 10.4012 17.6725 10.6314 18.0168L11.3391 19.0754C11.7992 19.7543 12.7491 19.9475 13.4758 19.4654C13.4762 19.4652 13.4765 19.465 13.4768 19.4648L14.4325 18.825C15.45 18.1446 16.8399 18.3906 17.527 19.4174C17.7574 19.7617 17.665 20.2275 17.3208 20.4579C16.9765 20.6882 16.5107 20.5959 16.2804 20.2516C16.0694 19.9364 15.6193 19.8361 15.2669 20.0715L14.307 20.7141C12.9156 21.6386 11.0314 21.2987 10.0954 19.9141L10.0933 19.9109L9.38439 18.8505C9.15418 18.5062 9.24671 18.0404 9.59106 17.8102Z" fill="#000000" />
<path fill-rule="evenodd" clip-rule="evenodd" d="M11.4211 4.0561C13.8335 1.64379 17.7432 1.65219 20.1481 4.05597L20.1484 4.05622C22.5585 6.46748 22.5681 10.3772 20.1552 12.7902L20.155 12.7904C18.7185 14.2257 16.7502 14.8101 14.8826 14.5266C14.4731 14.4645 14.1915 14.0821 14.2536 13.6726C14.3158 13.2631 14.6982 12.9815 15.1077 13.0436C16.5197 13.258 18.0063 12.8169 19.0948 11.7293C20.919 9.90476 20.9147 6.94474 19.0874 5.11663C17.2669 3.29723 14.3071 3.29171 12.482 5.11655C12.4819 5.11662 12.4819 5.11669 12.4818 5.11676M12.4818 5.11676C11.3959 6.2037 10.9584 7.69722 11.168 9.10578C11.2289 9.51549 10.9462 9.89703 10.5365 9.95799C10.1268 10.0189 9.74528 9.73623 9.68432 9.32652C9.40803 7.46947 9.98409 5.49429 11.4209 4.05631L11.4211 4.0561" fill="#000000" />
<path fill-rule="evenodd" clip-rule="evenodd" d="M10.3326 8.45209C10.5441 8.44162 10.7502 8.52108 10.9 8.67084L15.4959 13.2667C15.6441 13.4149 15.7235 13.6184 15.7149 13.8279C15.7063 14.0373 15.6104 14.2336 15.4505 14.3691L7.64175 20.9891C7.64174 20.9891 7.64174 20.9891 7.64173 20.9891C4.77882 23.4163 0.888724 19.587 3.26614 16.6859L3.26615 16.6859L9.78958 8.72578C9.92382 8.56197 10.1211 8.46256 10.3326 8.45209ZM10.4249 10.317L4.42633 17.6367C3.20551 19.1264 5.20361 21.0897 6.67173 19.845L6.67175 19.845L13.8594 13.7516L10.4249 10.317Z" fill="#000000" />
</svg>