<svg width="24px"  height="24px"  viewBox="0 0 25 24" fill="none" xmlns="http://www.w3.org/2000/svg">
<path fill-rule="evenodd" clip-rule="evenodd" d="M6.52539 4.75C6.38732 4.75 6.27539 4.86193 6.27539 5V19C6.27539 19.1381 6.38732 19.25 6.52539 19.25H8.83939C8.97746 19.25 9.08939 19.1381 9.08939 19V5C9.08939 4.86193 8.97746 4.75 8.83939 4.75H6.52539ZM4.77539 5C4.77539 4.0335 5.55889 3.25 6.52539 3.25H8.83939C9.80589 3.25 10.5894 4.0335 10.5894 5V19C10.5894 19.9665 9.80589 20.75 8.83939 20.75H6.52539C5.55889 20.75 4.77539 19.9665 4.77539 19V5Z" fill="#000000" />
<path fill-rule="evenodd" clip-rule="evenodd" d="M15.6602 4.75C15.5221 4.75 15.4102 4.86193 15.4102 5V19C15.4102 19.1381 15.5221 19.25 15.6602 19.25H17.9742C18.1122 19.25 18.2242 19.1381 18.2242 19V5C18.2242 4.86193 18.1122 4.75 17.9742 4.75H15.6602ZM13.9102 5C13.9102 4.0335 14.6937 3.25 15.6602 3.25H17.9742C18.9407 3.25 19.7242 4.0335 19.7242 5V19C19.7242 19.9665 18.9407 20.75 17.9742 20.75H15.6602C14.6937 20.75 13.9102 19.9665 13.9102 19V5Z" fill="#000000" />
</svg>