<svg width="24px"  height="24px"  viewBox="0 0 25 24" fill="none" xmlns="http://www.w3.org/2000/svg">
<path fill-rule="evenodd" clip-rule="evenodd" d="M12.25 3.75C7.69335 3.75 4 7.44421 4 12C4 16.5567 7.69329 20.25 12.25 20.25C16.8067 20.25 20.5 16.5567 20.5 12C20.5 7.44421 16.8067 3.75 12.25 3.75ZM2.5 12C2.5 6.61589 6.86481 2.25 12.25 2.25C17.6352 2.25 22 6.61589 22 12C22 17.3851 17.6351 21.75 12.25 21.75C6.86487 21.75 2.5 17.3851 2.5 12Z" fill="#000000" />
<path fill-rule="evenodd" clip-rule="evenodd" d="M12.249 10.6133C11.4832 10.6133 10.8633 11.2337 10.8633 11.999C10.8633 12.7654 11.4834 13.3856 12.249 13.3856C13.015 13.3856 13.6356 12.765 13.6356 11.999C13.6356 11.2341 13.0152 10.6133 12.249 10.6133ZM9.36328 11.999C9.36328 10.4057 10.6543 9.11328 12.249 9.11328C13.8432 9.11328 15.1356 10.4053 15.1356 11.999C15.1356 13.5934 13.8434 14.8856 12.249 14.8856C10.6541 14.8856 9.36328 13.5929 9.36328 11.999Z" fill="#000000" />
<path fill-rule="evenodd" clip-rule="evenodd" d="M11.916 6.26515C11.9454 5.85198 12.3042 5.54088 12.7173 5.57028C14.2167 5.67699 15.6744 6.29878 16.8187 7.44309C17.9503 8.57466 18.5713 10.0318 18.6779 11.5309C18.7073 11.9441 18.3962 12.3029 17.983 12.3322C17.5699 12.3616 17.2111 12.0505 17.1817 11.6373C17.0996 10.4821 16.6231 9.36872 15.7581 8.50375C14.8786 7.62427 13.7638 7.14855 12.6109 7.0665C12.1977 7.0371 11.8866 6.67832 11.916 6.26515Z" fill="#000000" />
</svg>