<svg width="24px"  height="24px"  viewBox="0 0 25 24" fill="none" xmlns="http://www.w3.org/2000/svg">
<path fill-rule="evenodd" clip-rule="evenodd" d="M3.90537 7.25596C4.83543 6.25807 6.15893 5.70117 7.71796 5.70117H16.7811C18.3435 5.70117 19.6675 6.25776 20.5973 7.25622C21.5214 8.24864 22 9.61666 22 11.1477V15.7534C22 17.284 21.5213 18.652 20.5971 19.6445C19.6673 20.643 18.343 21.1999 16.7801 21.1999H7.71796C6.15545 21.1999 4.83159 20.643 3.90215 19.6444C2.97836 18.6518 2.5 17.2839 2.5 15.7534V11.1477C2.5 9.61589 2.98076 8.248 3.90537 7.25596ZM5.00267 8.27867C4.37993 8.94682 4 9.92719 4 11.1477V15.7534C4 16.9742 4.37851 17.9545 5.00015 18.6224C5.61613 19.2842 6.52625 19.6999 7.71796 19.6999H16.7801C17.9724 19.6999 18.883 19.2842 19.4994 18.6223C20.1213 17.9544 20.5 16.9741 20.5 15.7534V11.1477C20.5 9.92642 20.1213 8.94618 19.4995 8.27842C18.8833 7.61669 17.9729 7.20117 16.7811 7.20117H7.71796C6.53042 7.20117 5.61994 7.61638 5.00267 8.27867Z" fill="#000000" />
<path fill-rule="evenodd" clip-rule="evenodd" d="M8.2197 3.62518C8.7217 3.08672 9.42715 2.79883 10.2263 2.79883H14.2745C15.0747 2.79883 15.7805 3.08648 16.2824 3.62547C16.7788 4.15844 17.0203 4.87663 17.0203 5.64605V6.39677C17.0203 6.81099 16.6845 7.14677 16.2703 7.14677C15.8561 7.14677 15.5203 6.81099 15.5203 6.39677V5.64605C15.5203 5.1866 15.3788 4.85617 15.1847 4.64776C14.9962 4.44535 14.7041 4.29883 14.2745 4.29883H10.2263C9.79853 4.29883 9.50605 4.44511 9.31686 4.64804C9.12223 4.85681 8.98047 5.18734 8.98047 5.64605V6.39677C8.98047 6.81099 8.64468 7.14677 8.23047 7.14677C7.81626 7.14677 7.48047 6.81099 7.48047 6.39677V5.64605C7.48047 4.87589 7.72315 4.1578 8.2197 3.62518Z" fill="#000000" />
<path fill-rule="evenodd" clip-rule="evenodd" d="M13.043 14.9178C13.043 13.4285 14.2502 12.2227 15.7381 12.2227C17.2261 12.2227 18.4333 13.4285 18.4333 14.9178C18.4333 16.406 17.2263 17.613 15.7381 17.613C14.25 17.613 13.043 16.406 13.043 14.9178ZM15.7381 13.7227C15.0782 13.7227 14.543 14.2574 14.543 14.9178C14.543 15.5776 15.0784 16.113 15.7381 16.113C16.3979 16.113 16.9333 15.5776 16.9333 14.9178C16.9333 14.2574 16.3981 13.7227 15.7381 13.7227Z" fill="#000000" />
<path fill-rule="evenodd" clip-rule="evenodd" d="M6.30859 10.248C6.30859 9.83383 6.64438 9.49805 7.05859 9.49805H17.4443C17.8585 9.49805 18.1943 9.83383 18.1943 10.248C18.1943 10.6623 17.8585 10.998 17.4443 10.998H7.05859C6.64438 10.998 6.30859 10.6623 6.30859 10.248Z" fill="#000000" />
<path fill-rule="evenodd" clip-rule="evenodd" d="M6.06836 14.9178C6.06836 13.4297 7.27536 12.2227 8.76353 12.2227C10.2517 12.2227 11.4587 13.4297 11.4587 14.9178C11.4587 16.406 10.2517 17.613 8.76353 17.613C7.27536 17.613 6.06836 16.406 6.06836 14.9178ZM8.76353 13.7227C8.10379 13.7227 7.56836 14.2581 7.56836 14.9178C7.56836 15.5776 8.10379 16.113 8.76353 16.113C9.42327 16.113 9.9587 15.5776 9.9587 14.9178C9.9587 14.2581 9.42327 13.7227 8.76353 13.7227Z" fill="#000000" />
</svg>