<svg width="24px"  height="24px"  viewBox="0 0 25 24" fill="none" xmlns="http://www.w3.org/2000/svg">
<path fill-rule="evenodd" clip-rule="evenodd" d="M3.90537 8.46885C4.83543 7.47096 6.15893 6.91406 7.71796 6.91406H16.7811C18.3435 6.91406 19.6675 7.47065 20.5973 8.46911C21.5214 9.46153 22 10.8295 22 12.3606V16.1496C22 17.6802 21.5213 19.048 20.5971 20.0403C19.6672 21.0386 18.3429 21.5951 16.7801 21.5951H7.71796C6.15557 21.5951 4.83171 21.0385 3.90222 20.0402C2.97837 19.0478 2.5 17.6801 2.5 16.1496V12.3606C2.5 10.8288 2.98076 9.46089 3.90537 8.46885ZM5.00267 9.49156C4.37993 10.1597 4 11.1401 4 12.3606V16.1496C4 17.3704 4.3785 18.3504 5.00007 19.018C5.61601 19.6796 6.52614 20.0951 7.71796 20.0951H16.7801C17.9725 20.0951 18.8832 19.6796 19.4994 19.0179C20.1213 18.3503 20.5 17.3703 20.5 16.1496V12.3606C20.5 11.1393 20.1213 10.1591 19.4995 9.49131C18.8833 8.82958 17.9729 8.41406 16.7811 8.41406H7.71796C6.53042 8.41406 5.61994 8.82928 5.00267 9.49156Z" fill="#000000" />
<path fill-rule="evenodd" clip-rule="evenodd" d="M12.8104 2.68099C13.0718 3.00229 13.0232 3.47468 12.7019 3.73609L6.98117 8.39054C6.65987 8.65195 6.18748 8.6034 5.92607 8.2821C5.66465 7.9608 5.7132 7.48841 6.0345 7.227L11.7553 2.57255C12.0766 2.31114 12.5489 2.35969 12.8104 2.68099Z" fill="#000000" />
<path fill-rule="evenodd" clip-rule="evenodd" d="M17.1914 13.7246C17.6056 13.7246 17.9414 14.0604 17.9414 14.4746V16.9486C17.9414 17.3628 17.6056 17.6986 17.1914 17.6986C16.7772 17.6986 16.4414 17.3628 16.4414 16.9486V14.4746C16.4414 14.0604 16.7772 13.7246 17.1914 13.7246Z" fill="#000000" />
<path fill-rule="evenodd" clip-rule="evenodd" d="M14.2852 13.7246C14.6994 13.7246 15.0352 14.0604 15.0352 14.4746V16.9486C15.0352 17.3628 14.6994 17.6986 14.2852 17.6986C13.8709 17.6986 13.5352 17.3628 13.5352 16.9486V14.4746C13.5352 14.0604 13.8709 13.7246 14.2852 13.7246Z" fill="#000000" />
<path fill-rule="evenodd" clip-rule="evenodd" d="M6.55859 15.7114C6.55859 14.4942 7.54532 13.5059 8.76412 13.5059C9.98293 13.5059 10.9697 14.4942 10.9697 15.7114C10.9697 16.9299 9.98261 17.9169 8.76412 17.9169C7.54564 17.9169 6.55859 16.9299 6.55859 15.7114ZM8.76412 15.0059C8.37439 15.0059 8.05859 15.322 8.05859 15.7114C8.05859 16.1014 8.37407 16.4169 8.76412 16.4169C9.15418 16.4169 9.46965 16.1014 9.46965 15.7114C9.46965 15.322 9.15386 15.0059 8.76412 15.0059Z" fill="#000000" />
<path fill-rule="evenodd" clip-rule="evenodd" d="M6.12695 11.4375C6.12695 11.0233 6.46274 10.6875 6.87695 10.6875H17.6232C18.0374 10.6875 18.3732 11.0233 18.3732 11.4375C18.3732 11.8517 18.0374 12.1875 17.6232 12.1875H6.87695C6.46274 12.1875 6.12695 11.8517 6.12695 11.4375Z" fill="#000000" />
</svg>