<svg width="24px"  height="24px"  viewBox="0 0 25 24" fill="none" xmlns="http://www.w3.org/2000/svg">
<path fill-rule="evenodd" clip-rule="evenodd" d="M3.67212 5.75764C4.45368 4.91838 5.5637 4.45508 6.8626 4.45508H17.6392C18.9374 4.45508 20.0469 4.9185 20.8282 5.75774C21.6038 6.59092 22 7.73361 22 9.00038V15.0016C22 16.2689 21.6017 17.4114 20.8256 18.2442C20.044 19.0828 18.9348 19.5469 17.6392 19.5469H6.8617C5.56303 19.5469 4.45326 19.0832 3.67192 18.2439C2.89623 17.4106 2.5 16.268 2.5 15.0016V9.00038C2.5 7.7336 2.8962 6.59085 3.67212 5.75764ZM4.76985 6.77989C4.29635 7.28836 4 8.04325 4 9.00038V15.0016C4 15.9582 4.29632 16.7132 4.76983 17.2218C5.23769 17.7244 5.93377 18.0469 6.8617 18.0469H17.6392C18.563 18.0469 19.2592 17.7248 19.7282 17.2215C20.2026 16.7124 20.5 15.9573 20.5 15.0016V9.00038C20.5 8.04325 20.2036 7.28829 19.7303 6.77979C19.2626 6.27735 18.5667 5.95508 17.6392 5.95508H6.8626C5.934 5.95508 5.23772 6.27747 4.76985 6.77989Z" fill="#000000" />
<path fill-rule="evenodd" clip-rule="evenodd" d="M5.88867 12.9296C5.88867 11.2034 7.28807 9.80273 9.01557 9.80273C10.7424 9.80273 12.1416 11.2036 12.1416 12.9296C12.1416 14.6557 10.7424 16.0565 9.01557 16.0565C7.28807 16.0565 5.88867 14.6559 5.88867 12.9296ZM9.01557 11.3027C8.11687 11.3027 7.38867 12.0315 7.38867 12.9296C7.38867 13.8278 8.11687 14.5565 9.01557 14.5565C9.91319 14.5565 10.6416 13.828 10.6416 12.9296C10.6416 12.0313 9.91319 11.3027 9.01557 11.3027Z" fill="#000000" />
<path fill-rule="evenodd" clip-rule="evenodd" d="M14.1445 12.9294C14.1445 11.6953 15.1445 10.6953 16.3786 10.6953C17.6127 10.6953 18.6127 11.6953 18.6127 12.9294C18.6127 14.1635 17.6127 15.1635 16.3786 15.1635C15.1445 15.1635 14.1445 14.1635 14.1445 12.9294ZM16.3786 12.1953C15.9729 12.1953 15.6445 12.5237 15.6445 12.9294C15.6445 13.3351 15.9729 13.6635 16.3786 13.6635C16.7843 13.6635 17.1127 13.3351 17.1127 12.9294C17.1127 12.5237 16.7843 12.1953 16.3786 12.1953Z" fill="#000000" />
<path fill-rule="evenodd" clip-rule="evenodd" d="M8.60521 10.4874C8.65537 10.0762 9.02935 9.78356 9.44051 9.83372L16.5964 10.7067C17.0076 10.7569 17.3002 11.1309 17.2501 11.542C17.1999 11.9532 16.8259 12.2458 16.4148 12.1957L9.25886 11.3227C8.8477 11.2725 8.55504 10.8985 8.60521 10.4874Z" fill="#000000" />
<path fill-rule="evenodd" clip-rule="evenodd" d="M17.2501 14.3155C17.3002 14.7267 17.0076 15.1006 16.5964 15.1508L9.44051 16.0238C9.02934 16.074 8.65537 15.7813 8.60521 15.3701C8.55504 14.959 8.8477 14.585 9.25886 14.5348L16.4148 13.6618C16.8259 13.6117 17.1999 13.9043 17.2501 14.3155Z" fill="#000000" />
<path fill-rule="evenodd" clip-rule="evenodd" d="M8.39338 4.4981C8.78287 4.35713 9.21289 4.55858 9.35387 4.94807L10.0949 6.99541C10.1857 7.25014 10.4252 7.41973 10.7033 7.41973H13.7975C14.0763 7.41973 14.3151 7.2504 14.406 6.99541L14.4073 6.99169L15.148 4.94779C15.2891 4.55836 15.7192 4.35708 16.1087 4.4982C16.4981 4.63933 16.6994 5.06943 16.5583 5.45886L15.8182 7.50113C15.5107 8.36095 14.7007 8.91973 13.7975 8.91973H10.7033C9.80133 8.91973 8.99018 8.36114 8.68266 7.50095L7.94342 5.45859C7.80244 5.0691 8.0039 4.63908 8.39338 4.4981Z" fill="#000000" />
</svg>