<svg width="24px"  height="24px"  viewBox="0 0 25 24" fill="none" xmlns="http://www.w3.org/2000/svg">
<path d="M16.78 21.5922H7.718C4.597 21.5922 2.5 19.4032 2.5 16.1452V12.3562C2.5 9.09917 4.6 6.91016 7.718 6.91016H16.781C19.903 6.91016 22 9.09917 22 12.3562V16.1452C22 19.4032 19.902 21.5922 16.78 21.5922ZM7.718 8.41016C7.20484 8.39091 6.6935 8.48168 6.21832 8.67636C5.74313 8.87104 5.31509 9.16513 4.96294 9.53888C4.61078 9.91263 4.34266 10.3574 4.17657 10.8433C4.01049 11.3292 3.95028 11.8451 4 12.3562V16.1452C3.95013 16.6564 4.01022 17.1723 4.17624 17.6583C4.34226 18.1444 4.61035 18.5893 4.96252 18.9631C5.3147 19.337 5.74279 19.6312 6.21806 19.8259C6.69332 20.0206 7.20475 20.1114 7.718 20.0922H16.78C17.2934 20.1117 17.8051 20.0211 18.2806 19.8265C18.7561 19.6319 19.1844 19.3378 19.5368 18.9639C19.8892 18.59 20.1575 18.145 20.3236 17.6588C20.4898 17.1727 20.5499 16.6565 20.5 16.1452V12.3562C20.5497 11.845 20.4895 11.329 20.3234 10.843C20.1572 10.3571 19.889 9.91225 19.5367 9.53848C19.1845 9.16472 18.7563 8.87067 18.281 8.67606C17.8057 8.48144 17.2942 8.39077 16.781 8.41016H7.718Z" fill="#000000" />
<path d="M8.65005 12.8512H8.63905L7.13905 12.8281C6.94014 12.8267 6.74995 12.7463 6.61033 12.6046C6.47071 12.4629 6.39309 12.2716 6.39455 12.0727C6.39601 11.8737 6.47642 11.6836 6.61811 11.5439C6.75979 11.4043 6.95114 11.3267 7.15005 11.3281H7.16005L8.66005 11.3501C8.85897 11.3516 9.04915 11.432 9.18877 11.5737C9.32839 11.7154 9.40601 11.9067 9.40455 12.1056C9.40309 12.3046 9.32267 12.4948 9.18099 12.6344C9.03931 12.774 8.84797 12.8516 8.64905 12.8501L8.65005 12.8512Z" fill="#000000" />
<path d="M14.3766 18.1515C13.6052 18.1515 12.8512 17.9228 12.2098 17.4943C11.5685 17.0657 11.0686 16.4566 10.7734 15.744C10.4783 15.0314 10.401 14.2472 10.5515 13.4907C10.702 12.7342 11.0734 12.0393 11.6188 11.4938C12.1643 10.9484 12.8592 10.577 13.6157 10.4265C14.3722 10.276 15.1564 10.3532 15.869 10.6484C16.5817 10.9436 17.1908 11.4435 17.6193 12.0848C18.0478 12.7262 18.2766 13.4802 18.2766 14.2515C18.2744 15.2852 17.8629 16.276 17.1319 17.0069C16.401 17.7379 15.4103 18.1494 14.3766 18.1515V18.1515ZM14.3766 11.8436C13.9019 11.8436 13.4379 11.9843 13.0432 12.248C12.6485 12.5118 12.3409 12.8866 12.1593 13.3251C11.9776 13.7637 11.9301 14.2462 12.0227 14.7118C12.1153 15.1773 12.3439 15.605 12.6795 15.9406C13.0152 16.2762 13.4428 16.5048 13.9083 16.5974C14.3739 16.69 14.8565 16.6425 15.295 16.4609C15.7335 16.2792 16.1084 15.9716 16.3721 15.5769C16.6358 15.1822 16.7766 14.7182 16.7766 14.2436C16.7729 13.6089 16.5186 13.0014 16.0691 12.5534C15.6195 12.1054 15.0112 11.8531 14.3766 11.8516V11.8436Z" fill="#000000" />
<path d="M7.43284 17.5243C7.2984 17.5245 7.16523 17.4983 7.04084 17.4473C6.84853 17.3681 6.6842 17.2334 6.56884 17.0603C6.43558 16.8604 6.37579 16.6204 6.39968 16.3813C6.42357 16.1423 6.52965 15.9189 6.69984 15.7493C6.79638 15.6535 6.91046 15.5771 7.03585 15.5243C7.16766 15.4771 7.30594 15.4505 7.44584 15.4453C7.64665 15.447 7.84263 15.5071 8.00984 15.6183C8.18225 15.7329 8.31658 15.8963 8.39566 16.0876C8.47475 16.2789 8.49501 16.4894 8.45385 16.6923C8.41363 16.891 8.31591 17.0736 8.17284 17.2173C8.02819 17.3617 7.84479 17.461 7.64484 17.5033C7.57501 17.5171 7.50402 17.5241 7.43284 17.5243Z" fill="#000000" />
<path d="M7.71909 8.42548C7.57077 8.42554 7.42575 8.3816 7.30238 8.29926C7.17901 8.21691 7.08283 8.09987 7.02599 7.96286C6.96916 7.82586 6.95423 7.67506 6.98308 7.52957C7.01193 7.38408 7.08328 7.25039 7.18809 7.14545L11.6991 2.63547C11.7682 2.5638 11.851 2.50664 11.9425 2.46729C12.0339 2.42794 12.1323 2.40719 12.2319 2.40628C12.3315 2.40537 12.4303 2.42431 12.5225 2.46198C12.6147 2.49964 12.6984 2.55529 12.7689 2.62567C12.8393 2.69606 12.8951 2.77976 12.9328 2.87192C12.9706 2.96407 12.9896 3.06283 12.9888 3.16242C12.988 3.262 12.9673 3.36041 12.928 3.45194C12.8888 3.54346 12.8317 3.62625 12.7601 3.69547L8.24909 8.20548C8.17971 8.27541 8.09714 8.33086 8.00616 8.36862C7.91518 8.40639 7.8176 8.42572 7.71909 8.42548V8.42548Z" fill="#000000" />
</svg>