<svg width="24px"  height="24px"  viewBox="0 0 25 24" fill="none" xmlns="http://www.w3.org/2000/svg">
<path fill-rule="evenodd" clip-rule="evenodd" d="M6.97298 8.41602C5.33122 8.41602 4 9.74698 4 11.39V17.1241C4 18.766 5.33109 20.0971 6.97298 20.0971H17.5261C19.168 20.0971 20.499 18.766 20.499 17.1241V11.39C20.499 9.74698 19.1678 8.41602 17.5261 8.41602H6.97298ZM2.5 11.39C2.5 8.91881 4.50254 6.91602 6.97298 6.91602H17.5261C19.9965 6.91602 21.999 8.91881 21.999 11.39V17.1241C21.999 19.5944 19.9964 21.5971 17.5261 21.5971H6.97298C4.50267 21.5971 2.5 19.5944 2.5 17.1241V11.39Z" fill="#000000" />
<path fill-rule="evenodd" clip-rule="evenodd" d="M13.8789 9.28906C14.2931 9.28906 14.6289 9.62485 14.6289 10.0391V10.0486C14.6289 10.4628 14.2931 10.7986 13.8789 10.7986C13.4647 10.7986 13.1289 10.4628 13.1289 10.0486V10.0391C13.1289 9.62485 13.4647 9.28906 13.8789 9.28906ZM16.6975 9.28906C17.1117 9.28906 17.4475 9.62485 17.4475 10.0391V10.0486C17.4475 10.4628 17.1117 10.7986 16.6975 10.7986C16.2832 10.7986 15.9475 10.4628 15.9475 10.0486V10.0391C15.9475 9.62485 16.2832 9.28906 16.6975 9.28906Z" fill="#000000" />
<path fill-rule="evenodd" clip-rule="evenodd" d="M6.55859 16.2998C6.55859 15.1205 7.51504 14.1641 8.69431 14.1641C9.87359 14.1641 10.83 15.1205 10.83 16.2998C10.83 17.4791 9.87359 18.4355 8.69431 18.4355C7.51504 18.4355 6.55859 17.4791 6.55859 16.2998ZM8.69431 15.6641C8.34346 15.6641 8.05859 15.9489 8.05859 16.2998C8.05859 16.6506 8.34346 16.9355 8.69431 16.9355C9.04516 16.9355 9.33003 16.6506 9.33003 16.2998C9.33003 15.9489 9.04516 15.6641 8.69431 15.6641Z" fill="#000000" />
<path fill-rule="evenodd" clip-rule="evenodd" d="M14.8647 14.4562C15.2579 14.5864 15.4711 15.0108 15.3408 15.404L14.5911 17.6676C14.4608 18.0608 14.0365 18.274 13.6433 18.1438C13.2501 18.0135 13.0369 17.5892 13.1671 17.196L13.9169 14.9324C14.0471 14.5391 14.4715 14.326 14.8647 14.4562ZM17.6837 14.4562C18.0769 14.5864 18.2901 15.0108 18.1599 15.404L17.4101 17.6676C17.2799 18.0608 16.8555 18.274 16.4623 18.1438C16.0691 18.0135 15.8559 17.5892 15.9862 17.196L16.7359 14.9324C16.8662 14.5391 17.2905 14.326 17.6837 14.4562Z" fill="#000000" />
<path fill-rule="evenodd" clip-rule="evenodd" d="M2.5 12.2148C2.5 11.8006 2.83579 11.4648 3.25 11.4648H21.25C21.6642 11.4648 22 11.8006 22 12.2148C22 12.6291 21.6642 12.9648 21.25 12.9648H3.25C2.83579 12.9648 2.5 12.6291 2.5 12.2148Z" fill="#000000" />
<path fill-rule="evenodd" clip-rule="evenodd" d="M12.8283 2.70437C13.0768 3.03576 13.0096 3.50585 12.6782 3.75436L6.6629 8.26536C6.33152 8.51387 5.86142 8.44669 5.61291 8.11531C5.3644 7.78393 5.43158 7.31383 5.76297 7.06532L11.7783 2.55432C12.1097 2.30581 12.5797 2.37299 12.8283 2.70437Z" fill="#000000" />
</svg>