<svg width="24px"  height="24px"  viewBox="0 0 25 24" fill="none" xmlns="http://www.w3.org/2000/svg">
<path fill-rule="evenodd" clip-rule="evenodd" d="M5.00051 9.49131C4.37871 10.1591 4 11.1393 4 12.3606V16.1496C4 17.3703 4.37867 18.3503 5.00055 19.0179C5.61683 19.6796 6.52748 20.0951 7.71988 20.0951H16.782C17.9739 20.0951 18.884 19.6796 19.4999 19.018C20.1215 18.3504 20.5 17.3704 20.5 16.1496V12.3606C20.5 11.1401 20.1201 10.1597 19.4973 9.49156C18.8801 8.82928 17.9696 8.41406 16.782 8.41406H7.71892C6.52708 8.41406 5.61669 8.82958 5.00051 9.49131ZM3.90274 8.46911C4.83246 7.47065 6.15653 6.91406 7.71892 6.91406H16.782C18.3411 6.91406 19.6646 7.47096 20.5946 8.46885C21.5192 9.46089 22 10.8288 22 12.3606V16.1496C22 17.6801 21.5216 19.0478 20.5978 20.0402C19.6683 21.0385 18.3444 21.5951 16.782 21.5951H7.71988C6.15709 21.5951 4.8328 21.0386 3.90294 20.0403C2.97868 19.048 2.5 17.6802 2.5 16.1496V12.3606C2.5 10.8295 2.97864 9.46153 3.90274 8.46911Z" fill="#000000" />
<path fill-rule="evenodd" clip-rule="evenodd" d="M16.2051 11.4023C16.6193 11.4023 16.9551 11.7381 16.9551 12.1523V15.8782C16.9551 16.2924 16.6193 16.6282 16.2051 16.6282C15.7909 16.6282 15.4551 16.2924 15.4551 15.8782V12.1523C15.4551 11.7381 15.7909 11.4023 16.2051 11.4023Z" fill="#000000" />
<path fill-rule="evenodd" clip-rule="evenodd" d="M6.48438 14.2544C6.48438 12.6297 7.80114 11.3125 9.42532 11.3125C11.0502 11.3125 12.3672 12.6295 12.3672 14.2544C12.3672 15.8793 11.0502 17.1963 9.42532 17.1963C7.80114 17.1963 6.48438 15.8791 6.48438 14.2544ZM9.42532 12.8125C8.62999 12.8125 7.98438 13.4577 7.98438 14.2544C7.98438 15.0511 8.62999 15.6963 9.42532 15.6963C10.2218 15.6963 10.8672 15.0509 10.8672 14.2544C10.8672 13.4579 10.2218 12.8125 9.42532 12.8125Z" fill="#000000" />
<path fill-rule="evenodd" clip-rule="evenodd" d="M11.6827 2.68983C11.9392 2.36462 12.4108 2.30894 12.736 2.56548L18.7226 7.28782C19.0478 7.54436 19.1035 8.01596 18.847 8.34117C18.5904 8.66638 18.1188 8.72206 17.7936 8.46552L11.807 3.74318C11.4818 3.48664 11.4261 3.01505 11.6827 2.68983Z" fill="#000000" />
</svg>