<svg width="24px"  height="24px"  viewBox="0 0 25 24" fill="none" xmlns="http://www.w3.org/2000/svg">
<path fill-rule="evenodd" clip-rule="evenodd" d="M3.67251 5.75759C4.45412 4.91843 5.56408 4.45508 6.8626 4.45508H17.6392C18.9374 4.45508 20.0469 4.9185 20.8282 5.75774C21.6038 6.59092 22 7.73361 22 9.00038V15.0016C22 16.2689 21.6017 17.4114 20.8256 18.2442C20.044 19.0828 18.9348 19.5469 17.6392 19.5469H6.8617C5.56342 19.5469 4.4537 19.0832 3.67231 18.2439C2.89654 17.4107 2.5 16.2681 2.5 15.0016V9.00038C2.5 7.73348 2.8965 6.59074 3.67251 5.75759ZM4.77014 6.77994C4.2965 7.28847 4 8.04338 4 9.00038V15.0016C4 15.9581 4.29647 16.7131 4.77012 17.2218C5.23815 17.7244 5.93428 18.0469 6.8617 18.0469H17.6392C18.563 18.0469 19.2592 17.7248 19.7282 17.2215C20.2026 16.7124 20.5 15.9573 20.5 15.0016V9.00038C20.5 8.04325 20.2036 7.28829 19.7303 6.77979C19.2626 6.27735 18.5667 5.95508 17.6392 5.95508H6.8626C5.93452 5.95508 5.23818 6.27743 4.77014 6.77994Z" fill="#000000" />
<path fill-rule="evenodd" clip-rule="evenodd" d="M7.20374 4.49817C7.59319 4.35709 8.02327 4.55844 8.16435 4.94788L9.15028 7.66956C9.30682 8.10883 9.71825 8.39803 10.1925 8.39803H14.3064C14.7806 8.39803 15.1921 8.10883 15.3486 7.66957L15.3499 7.66588L16.3345 4.94788C16.4756 4.55844 16.9057 4.35709 17.2951 4.49817C17.6846 4.63925 17.8859 5.06933 17.7448 5.45877L16.7616 8.17309C16.7613 8.17375 16.7611 8.1744 16.7609 8.17506C16.3877 9.21967 15.4047 9.89803 14.3064 9.89803H10.1925C9.09422 9.89803 8.11122 9.21969 7.73802 8.17509L6.75403 5.45877C6.61295 5.06933 6.8143 4.63925 7.20374 4.49817Z" fill="#000000" />
<path fill-rule="evenodd" clip-rule="evenodd" d="M5.54297 13.4362C5.54297 12.0122 6.69775 10.8574 8.12177 10.8574C9.54578 10.8574 10.7006 12.0122 10.7006 13.4362C10.7006 14.8602 9.54578 16.015 8.12177 16.015C6.69775 16.015 5.54297 14.8602 5.54297 13.4362ZM8.12177 12.3574C7.52618 12.3574 7.04297 12.8406 7.04297 13.4362C7.04297 14.0318 7.52618 14.515 8.12177 14.515C8.71736 14.515 9.20057 14.0318 9.20057 13.4362C9.20057 12.8406 8.71736 12.3574 8.12177 12.3574Z" fill="#000000" />
<path fill-rule="evenodd" clip-rule="evenodd" d="M13.7988 13.4362C13.7988 12.0122 14.9536 10.8574 16.3776 10.8574C17.8016 10.8574 18.9564 12.0122 18.9564 13.4362C18.9564 14.8602 17.8016 16.015 16.3776 16.015C14.9536 16.015 13.7988 14.8602 13.7988 13.4362ZM16.3776 12.3574C15.782 12.3574 15.2988 12.8406 15.2988 13.4362C15.2988 14.0318 15.782 14.515 16.3776 14.515C16.9732 14.515 17.4564 14.0318 17.4564 13.4362C17.4564 12.8406 16.9732 12.3574 16.3776 12.3574Z" fill="#000000" />
</svg>