<svg width="24px"  height="24px"  viewBox="0 0 25 24" fill="none" xmlns="http://www.w3.org/2000/svg">
<path d="M16.78 21.6888H7.718C4.597 21.6888 2.5 19.5008 2.5 16.2438V12.4548C2.5 9.1968 4.6 7.00781 7.718 7.00781H16.781C19.903 7.00781 22 9.1968 22 12.4548V16.2418C22 19.5008 19.902 21.6888 16.78 21.6888ZM7.718 8.50781C5.459 8.50781 4 10.0568 4 12.4548V16.2418C3.95044 16.7528 4.01076 17.2685 4.17691 17.7543C4.34306 18.2401 4.61121 18.6848 4.96335 19.0584C5.31549 19.432 5.74347 19.7261 6.21858 19.9207C6.69369 20.1153 7.20494 20.206 7.718 20.1868H16.78C17.2932 20.2063 17.8047 20.1158 18.28 19.9213C18.7554 19.7268 19.1836 19.4329 19.536 19.0592C19.8884 18.6855 20.1567 18.2408 20.323 17.7549C20.4892 17.2689 20.5496 16.753 20.5 16.2418V12.4528C20.5499 11.9415 20.4898 11.4255 20.3237 10.9394C20.1576 10.4533 19.8894 10.0083 19.5372 9.63446C19.1849 9.26058 18.7567 8.9664 18.2813 8.77173C17.8059 8.57706 17.2943 8.48639 16.781 8.5058L7.718 8.50781Z" fill="#000000" />
<path d="M6.26114 8.71357C6.10546 8.71345 5.95367 8.6649 5.82683 8.57462C5.69999 8.48435 5.60439 8.35684 5.55329 8.20979C5.50218 8.06273 5.49809 7.90339 5.54161 7.75391C5.58513 7.60444 5.67409 7.47223 5.79614 7.37559L11.7652 2.65958C11.9212 2.53626 12.1199 2.47999 12.3175 2.50315C12.515 2.52631 12.6953 2.62701 12.8187 2.78309C12.942 2.93917 12.9982 3.13783 12.9751 3.3354C12.9519 3.53297 12.8512 3.71326 12.6951 3.83659L6.72615 8.55158C6.59388 8.65652 6.42998 8.7136 6.26114 8.71357V8.71357Z" fill="#000000" />
<path d="M17.1083 17.9414H14.8613C14.6624 17.9414 14.4717 17.8624 14.331 17.7217C14.1904 17.5811 14.1113 17.3903 14.1113 17.1914C14.1113 16.9925 14.1904 16.8017 14.331 16.6611C14.4717 16.5204 14.6624 16.4414 14.8613 16.4414H17.1083C17.3072 16.4414 17.498 16.5204 17.6387 16.6611C17.7793 16.8017 17.8583 16.9925 17.8583 17.1914C17.8583 17.3903 17.7793 17.5811 17.6387 17.7217C17.498 17.8624 17.3072 17.9414 17.1083 17.9414Z" fill="#000000" />
<path d="M16.6511 14.8409H7.85114C7.23172 14.8409 6.63767 14.5949 6.19968 14.1569C5.76169 13.7189 5.51562 13.1248 5.51562 12.5054C5.51562 11.886 5.76169 11.292 6.19968 10.854C6.63767 10.416 7.23172 10.1699 7.85114 10.1699H16.6511C17.2705 10.1699 17.8646 10.416 18.3026 10.854C18.7406 11.292 18.9866 11.886 18.9866 12.5054C18.9866 13.1248 18.7406 13.7189 18.3026 14.1569C17.8646 14.5949 17.2705 14.8409 16.6511 14.8409V14.8409ZM7.84213 11.6699C7.62054 11.6699 7.40803 11.758 7.25134 11.9146C7.09466 12.0713 7.00662 12.2838 7.00662 12.5054C7.00662 12.727 7.09466 12.9395 7.25134 13.0962C7.40803 13.2529 7.62054 13.3409 7.84213 13.3409H16.6511C16.8727 13.3409 17.0852 13.2529 17.2419 13.0962C17.3986 12.9395 17.4866 12.727 17.4866 12.5054C17.4866 12.2838 17.3986 12.0713 17.2419 11.9146C17.0852 11.758 16.8727 11.6699 16.6511 11.6699H7.84213Z" fill="#000000" />
<path d="M14.4883 14.8415C14.2894 14.8415 14.0986 14.7624 13.9579 14.6218C13.8173 14.4811 13.7383 14.2904 13.7383 14.0915V13.2305C13.7383 13.0316 13.8173 12.8408 13.9579 12.7001C14.0986 12.5595 14.2894 12.4805 14.4883 12.4805C14.6872 12.4805 14.8779 12.5595 15.0186 12.7001C15.1593 12.8408 15.2383 13.0316 15.2383 13.2305V14.0915C15.2383 14.2904 15.1593 14.4811 15.0186 14.6218C14.8779 14.7624 14.6872 14.8415 14.4883 14.8415Z" fill="#000000" />
<path d="M7.8027 18.1708C7.63254 18.1706 7.46502 18.1288 7.31475 18.049C7.16449 17.9691 7.03606 17.8537 6.9407 17.7128C6.82613 17.5406 6.7646 17.3386 6.76371 17.1318C6.76252 16.9978 6.78801 16.8649 6.83871 16.7408C6.89165 16.6092 6.97132 16.49 7.0727 16.3908C7.16924 16.296 7.28338 16.2209 7.4087 16.1698C7.53898 16.1198 7.67715 16.0933 7.81671 16.0918C8.02023 16.0948 8.21841 16.1574 8.38673 16.2719C8.55504 16.3863 8.68611 16.5476 8.76371 16.7358C8.82238 16.878 8.84874 17.0314 8.84092 17.185C8.8331 17.3386 8.79127 17.4885 8.71847 17.624C8.64566 17.7595 8.54369 17.8771 8.41992 17.9684C8.29614 18.0596 8.15364 18.1223 8.00271 18.1518C7.93682 18.1646 7.86982 18.171 7.8027 18.1708V18.1708Z" fill="#000000" />
</svg>