<svg width="24px"  height="24px"  viewBox="0 0 25 24" fill="none" xmlns="http://www.w3.org/2000/svg">
<path d="M16.782 21.5883H7.71997C4.59797 21.5883 2.5 19.3993 2.5 16.1413V12.3523C2.5 9.09526 4.59999 6.90625 7.71899 6.90625H16.782C19.903 6.90625 22 9.09526 22 12.3523V16.1413C22 19.3993 19.903 21.5883 16.782 21.5883ZM7.71899 8.40625C7.20575 8.38686 6.6943 8.47754 6.21899 8.67215C5.74369 8.86676 5.31552 9.16081 4.96326 9.53458C4.61099 9.90834 4.34278 10.3531 4.17664 10.8391C4.01049 11.3251 3.95027 11.8411 4 12.3523V16.1413C3.9501 16.6526 4.01026 17.1688 4.17639 17.6549C4.34252 18.1411 4.6108 18.5861 4.9632 18.96C5.31559 19.3339 5.74391 19.628 6.21942 19.8226C6.69493 20.0172 7.20655 20.1078 7.71997 20.0883H16.782C19.041 20.0883 20.5 18.5393 20.5 16.1413V12.3523C20.5497 11.8412 20.4895 11.3253 20.3234 10.8394C20.1573 10.3535 19.8892 9.90872 19.537 9.53497C19.1849 9.16122 18.7569 8.86713 18.2817 8.67245C17.8065 8.47778 17.2951 8.38701 16.782 8.40625H7.71899Z" fill="#000000" />
<path d="M18.0232 8.55787C17.8516 8.55801 17.6853 8.49901 17.5522 8.39085L11.8002 3.74385C11.6454 3.6188 11.5467 3.4374 11.5257 3.23955C11.5047 3.04169 11.5631 2.84361 11.6882 2.68886C11.8132 2.5341 11.9946 2.43535 12.1925 2.41435C12.3903 2.39335 12.5884 2.45181 12.7431 2.57686L18.4952 7.22386C18.6155 7.32159 18.7027 7.45417 18.7447 7.60341C18.7867 7.75264 18.7815 7.9112 18.7298 8.05736C18.6781 8.20351 18.5824 8.33008 18.4559 8.41969C18.3293 8.5093 18.1782 8.55759 18.0232 8.55787V8.55787Z" fill="#000000" />
<path d="M10.1207 18.1476C9.34931 18.1476 8.59532 17.9189 7.95397 17.4904C7.31262 17.0618 6.81275 16.4527 6.51757 15.7401C6.22239 15.0275 6.14516 14.2433 6.29564 13.4868C6.44613 12.7303 6.81754 12.0353 7.36297 11.4899C7.90839 10.9445 8.60333 10.5731 9.35985 10.4226C10.1164 10.2721 10.9005 10.3493 11.6131 10.6445C12.3258 10.9397 12.9349 11.4396 13.3634 12.0809C13.7919 12.7223 14.0207 13.4763 14.0207 14.2476C14.0186 15.2813 13.607 16.2721 12.8761 17.003C12.1452 17.734 11.1544 18.1455 10.1207 18.1476V18.1476ZM10.1207 11.8397C9.64598 11.8397 9.18202 11.9804 8.78734 12.2441C8.39267 12.5078 8.08502 12.8827 7.90337 13.3212C7.72172 13.7598 7.67417 14.2423 7.76677 14.7079C7.85938 15.1734 8.08799 15.6011 8.42364 15.9367C8.75928 16.2723 9.1869 16.5009 9.65246 16.5935C10.118 16.6861 10.6006 16.6386 11.0391 16.457C11.4777 16.2753 11.8525 15.9677 12.1162 15.573C12.3799 15.1783 12.5207 14.7143 12.5207 14.2396C12.517 13.605 12.2627 12.9975 11.8132 12.5495C11.3636 12.1015 10.7553 11.8492 10.1207 11.8476V11.8397Z" fill="#000000" />
<path d="M16.6025 13.1311C16.4309 13.1303 16.2621 13.0874 16.1109 13.0061C15.9597 12.9249 15.8308 12.8078 15.7355 12.6651C15.6224 12.4951 15.5622 12.2953 15.5625 12.0911C15.5628 11.9618 15.5869 11.8337 15.6335 11.7131C15.6868 11.5767 15.7682 11.453 15.8725 11.3501C15.9688 11.2535 16.0838 11.1776 16.2105 11.1271C16.3685 11.0632 16.5398 11.0388 16.7094 11.0563C16.879 11.0737 17.0418 11.1323 17.1835 11.2271C17.3118 11.3134 17.4192 11.4272 17.4979 11.5603C17.5766 11.6935 17.6245 11.8425 17.6382 11.9965C17.652 12.1505 17.631 12.3057 17.5771 12.4506C17.5232 12.5955 17.4375 12.7265 17.3265 12.8341C17.133 13.024 16.8735 13.1315 16.6025 13.1341V13.1311Z" fill="#000000" />
<path d="M16.6025 17.493C16.4315 17.4928 16.2632 17.4505 16.1124 17.3699C15.9615 17.2894 15.8328 17.173 15.7375 17.0311C15.6234 16.8603 15.5625 16.6594 15.5625 16.454C15.5624 16.3217 15.5878 16.1907 15.6375 16.0681C15.6896 15.9343 15.7697 15.8133 15.8725 15.713C15.9708 15.6142 16.0891 15.5375 16.2195 15.4881C16.3482 15.4428 16.4831 15.4178 16.6194 15.4141C16.7723 15.4168 16.9227 15.4532 17.0598 15.5206C17.197 15.588 17.3175 15.6849 17.413 15.8042C17.5085 15.9235 17.5765 16.0625 17.6122 16.2111C17.6479 16.3597 17.6503 16.5144 17.6194 16.6641C17.5778 16.8636 17.4787 17.0466 17.3342 17.1903C17.1897 17.3341 17.0062 17.4324 16.8065 17.4731C16.7392 17.4859 16.6709 17.4926 16.6025 17.493Z" fill="#000000" />
</svg>