<svg width="24px"  height="24px"  viewBox="0 0 25 24" fill="none" xmlns="http://www.w3.org/2000/svg">
<path fill-rule="evenodd" clip-rule="evenodd" d="M3.90537 8.46299C4.83543 7.4651 6.15893 6.9082 7.71796 6.9082H16.7811C18.3435 6.9082 19.6675 7.46479 20.5973 8.46325C21.5214 9.45567 22 10.8237 22 12.3547V16.1437C22 17.6743 21.5213 19.0423 20.5971 20.0348C19.6673 21.0334 18.343 21.5902 16.7801 21.5902H7.71796C6.15545 21.5902 4.83159 21.0333 3.90215 20.0347C2.97836 19.0422 2.5 17.6742 2.5 16.1437V12.3547C2.5 10.8229 2.98076 9.45503 3.90537 8.46299ZM5.00267 9.4857C4.37993 10.1539 4 11.1342 4 12.3547V16.1437C4 17.3646 4.37851 18.3448 5.00015 19.0127C5.61613 19.6746 6.52625 20.0902 7.71796 20.0902H16.7801C17.9724 20.0902 18.883 19.6745 19.4994 19.0126C20.1213 18.3447 20.5 17.3644 20.5 16.1437V12.3547C20.5 11.1335 20.1213 10.1532 19.4995 9.48545C18.8833 8.82372 17.9729 8.4082 16.7811 8.4082H7.71796C6.53042 8.4082 5.61994 8.82342 5.00267 9.4857Z" fill="#000000" />
<path fill-rule="evenodd" clip-rule="evenodd" d="M6.58203 11.5703C6.58203 11.1561 6.91782 10.8203 7.33203 10.8203H9.50289C9.91711 10.8203 10.2529 11.1561 10.2529 11.5703C10.2529 11.9845 9.91711 12.3203 9.50289 12.3203H7.33203C6.91782 12.3203 6.58203 11.9845 6.58203 11.5703Z" fill="#000000" />
<path fill-rule="evenodd" clip-rule="evenodd" d="M14.8904 12.8672C13.8456 12.8672 12.998 13.715 12.998 14.7605C12.998 15.8056 13.8452 16.6528 14.8904 16.6528C15.9367 16.6528 16.7837 15.8054 16.7837 14.7605C16.7837 13.7152 15.9363 12.8672 14.8904 12.8672ZM11.498 14.7605C11.498 12.8873 13.0165 11.3672 14.8904 11.3672C16.7651 11.3672 18.2837 12.8871 18.2837 14.7605C18.2837 16.6342 16.7647 18.1528 14.8904 18.1528C13.0168 18.1528 11.498 16.634 11.498 14.7605Z" fill="#000000" />
<path fill-rule="evenodd" clip-rule="evenodd" d="M12.8122 2.68858C13.0726 3.01066 13.0227 3.4829 12.7006 3.74335L6.9521 8.39206C6.63002 8.65252 6.15778 8.60257 5.89732 8.28049C5.63686 7.95842 5.68681 7.48618 6.00889 7.22572L11.7574 2.57701C12.0795 2.31655 12.5517 2.3665 12.8122 2.68858Z" fill="#000000" />
</svg>