<svg width="24px"  height="24px"  viewBox="0 0 25 24" fill="none" xmlns="http://www.w3.org/2000/svg">
<path fill-rule="evenodd" clip-rule="evenodd" d="M6.65012 14.0527C5.18636 14.0527 4 15.2394 4 16.7018C4 18.1654 5.1865 19.352 6.65012 19.352C8.11257 19.352 9.29922 18.1656 9.29922 16.7018C9.29922 15.2392 8.11271 14.0527 6.65012 14.0527ZM2.5 16.7018C2.5 14.4107 4.35822 12.5527 6.65012 12.5527C8.94114 12.5527 10.7992 14.4108 10.7992 16.7018C10.7992 18.9937 8.94129 20.852 6.65012 20.852C4.35807 20.852 2.5 18.9939 2.5 16.7018Z" fill="#000000" />
<path fill-rule="evenodd" clip-rule="evenodd" d="M15.8155 3.30769C15.9972 3.44984 16.1034 3.66772 16.1034 3.89844V9.16924C16.1034 9.50114 15.8853 9.79356 15.5672 9.88814C13.9875 10.3578 12.3962 10.5022 10.7969 10.2329V16.699C10.7969 17.1132 10.4611 17.449 10.0469 17.449C9.63266 17.449 9.29688 17.1132 9.29688 16.699V4.03024C9.29688 3.80687 9.39644 3.59512 9.56846 3.45264C9.74049 3.31016 9.96707 3.25176 10.1865 3.29336C11.8241 3.60371 13.4738 3.59216 15.1728 3.17052C15.3967 3.11495 15.6338 3.16554 15.8155 3.30769ZM10.7969 8.70783C12.0532 8.95925 13.3169 8.90806 14.6034 8.59533V4.82211C13.313 5.04488 12.0462 5.06195 10.7969 4.90681V8.70783Z" fill="#000000" />
<path fill-rule="evenodd" clip-rule="evenodd" d="M18.9602 11.0527C19.3744 11.0527 19.7102 11.3885 19.7102 11.8027V13.3415H21.25C21.6642 13.3415 22 13.6773 22 14.0915C22 14.5057 21.6642 14.8415 21.25 14.8415H19.7102V16.3808C19.7102 16.7951 19.3744 17.1308 18.9602 17.1308C18.5459 17.1308 18.2102 16.7951 18.2102 16.3808V14.8415H16.6719C16.2577 14.8415 15.9219 14.5057 15.9219 14.0915C15.9219 13.6773 16.2577 13.3415 16.6719 13.3415H18.2102V11.8027C18.2102 11.3885 18.5459 11.0527 18.9602 11.0527Z" fill="#000000" />
</svg>