<svg width="24px"  height="24px"  viewBox="0 0 25 24" fill="none" xmlns="http://www.w3.org/2000/svg">
<path fill-rule="evenodd" clip-rule="evenodd" d="M4.14765 3.73714C5.19841 2.75872 6.64889 2.25 8.27638 2.25H16.2236C17.8511 2.25 19.3016 2.75872 20.3524 3.73714C21.4092 4.72117 22 6.12379 22 7.78313V16.2178C22 17.8772 21.4091 19.2796 20.3523 20.2634C19.3015 21.2416 17.851 21.75 16.2236 21.75H8.27638C6.64795 21.75 5.19762 21.2385 4.14733 20.2594C3.0912 19.2748 2.5 17.8729 2.5 16.2178V7.78313C2.5 6.12379 3.09084 4.72117 4.14765 3.73714ZM5.16984 4.83492C4.44975 5.50542 4 6.49437 4 7.78313V16.2178C4 17.5012 4.44939 18.4903 5.17016 19.1622C5.89676 19.8396 6.95962 20.25 8.27638 20.25H16.2236C17.5414 20.25 18.6041 19.8414 19.3302 19.1655C20.0503 18.4952 20.5 17.5066 20.5 16.2178V7.78313C20.5 6.49437 20.0503 5.50542 19.3302 4.83492C18.604 4.15879 17.5413 3.75 16.2236 3.75H8.27638C6.95868 3.75 5.89597 4.15879 5.16984 4.83492Z" fill="#000000" />
<path fill-rule="evenodd" clip-rule="evenodd" d="M8.47852 9.70703C8.89273 9.70703 9.22852 10.0428 9.22852 10.457V13.5433C9.22852 13.9575 8.89273 14.2933 8.47852 14.2933C8.0643 14.2933 7.72852 13.9575 7.72852 13.5433V10.457C7.72852 10.0428 8.0643 9.70703 8.47852 9.70703Z" fill="#000000" />
<path fill-rule="evenodd" clip-rule="evenodd" d="M12.25 6.84766C12.6642 6.84766 13 7.18344 13 7.59766V16.4021C13 16.8163 12.6642 17.1521 12.25 17.1521C11.8358 17.1521 11.5 16.8163 11.5 16.4021V7.59766C11.5 7.18344 11.8358 6.84766 12.25 6.84766Z" fill="#000000" />
<path fill-rule="evenodd" clip-rule="evenodd" d="M16.0215 9.70703C16.4357 9.70703 16.7715 10.0428 16.7715 10.457V13.5433C16.7715 13.9575 16.4357 14.2933 16.0215 14.2933C15.6073 14.2933 15.2715 13.9575 15.2715 13.5433V10.457C15.2715 10.0428 15.6073 9.70703 16.0215 9.70703Z" fill="#000000" />
</svg>