<svg width="24px"  height="24px"  viewBox="0 0 25 24" fill="none" xmlns="http://www.w3.org/2000/svg">
<path fill-rule="evenodd" clip-rule="evenodd" d="M9.30426 14.1973C7.6324 14.1973 6.27734 15.5526 6.27734 17.223C6.27734 18.8948 7.63254 20.25 9.30426 20.25C10.9747 20.25 12.33 18.8949 12.33 17.223C12.33 15.5525 10.9748 14.1973 9.30426 14.1973ZM4.77734 17.223C4.77734 14.7239 6.80426 12.6973 9.30426 12.6973C11.8033 12.6973 13.83 14.724 13.83 17.223C13.83 19.723 11.8034 21.75 9.30426 21.75C6.80412 21.75 4.77734 19.7232 4.77734 17.223Z" fill="#000000" />
<path fill-rule="evenodd" clip-rule="evenodd" d="M19.4348 2.40925C19.6165 2.5514 19.7227 2.76928 19.7227 3.00001V8.8549C19.7227 9.1868 19.5046 9.47923 19.1865 9.57381C17.4105 10.1018 15.6234 10.257 13.8281 9.93773V17.219C13.8281 17.6333 13.4923 17.969 13.0781 17.969C12.6639 17.969 12.3281 17.6333 12.3281 17.219V3.14641C12.3281 2.92304 12.4277 2.71129 12.5997 2.56881C12.7717 2.42632 12.9983 2.36793 13.2178 2.40952C15.0477 2.75634 16.8924 2.74354 18.7921 2.27209C19.016 2.21651 19.2531 2.2671 19.4348 2.40925ZM13.8281 8.41024C15.2795 8.71182 16.7385 8.652 18.2227 8.28254V3.92699C16.7319 4.19495 15.2698 4.21384 13.8281 4.02575V8.41024Z" fill="#000000" />
</svg>