<svg width="24px"  height="24px"  viewBox="0 0 25 24" fill="none" xmlns="http://www.w3.org/2000/svg">
<path fill-rule="evenodd" clip-rule="evenodd" d="M2.5 4.40039C2.5 3.98618 2.83579 3.65039 3.25 3.65039H21.25C21.6642 3.65039 22 3.98618 22 4.40039C22 4.8146 21.6642 5.15039 21.25 5.15039H3.25C2.83579 5.15039 2.5 4.8146 2.5 4.40039Z" fill="#000000" />
<path fill-rule="evenodd" clip-rule="evenodd" d="M2.5 9.16602C2.5 8.7518 2.83579 8.41602 3.25 8.41602H12.393C12.8072 8.41602 13.143 8.7518 13.143 9.16602C13.143 9.58023 12.8072 9.91602 12.393 9.91602H3.25C2.83579 9.91602 2.5 9.58023 2.5 9.16602Z" fill="#000000" />
<path fill-rule="evenodd" clip-rule="evenodd" d="M2.5 13.9316C2.5 13.5174 2.83579 13.1816 3.25 13.1816H9.51911C9.93332 13.1816 10.2691 13.5174 10.2691 13.9316C10.2691 14.3459 9.93332 14.6816 9.51911 14.6816H3.25C2.83579 14.6816 2.5 14.3459 2.5 13.9316Z" fill="#000000" />
<path fill-rule="evenodd" clip-rule="evenodd" d="M2.5 18.6973C2.5 18.2831 2.83579 17.9473 3.25 17.9473H6.89418C7.30839 17.9473 7.64418 18.2831 7.64418 18.6973C7.64418 19.1115 7.30839 19.4473 6.89418 19.4473H3.25C2.83579 19.4473 2.5 19.1115 2.5 18.6973Z" fill="#000000" />
<path fill-rule="evenodd" clip-rule="evenodd" d="M15.2836 14.0368C15.1365 15.3434 15.1325 16.7492 15.2843 18.228C15.3258 18.5445 15.4647 18.7036 15.594 18.7764C15.7277 18.8517 15.9689 18.9 16.3291 18.7587C17.4793 18.294 18.5285 17.6109 19.3673 16.8519C19.6514 16.5896 19.7411 16.3304 19.74 16.1244C19.7389 15.9167 19.645 15.6624 19.3695 15.4127L19.3668 15.4103L19.3668 15.4103C18.4844 14.6027 17.4665 13.9702 16.3224 13.5012L16.3164 13.4988L16.3164 13.4988C16.0174 13.3732 15.7729 13.4032 15.6171 13.485C15.4734 13.5604 15.3266 13.7196 15.2836 14.0368ZM16.8941 12.1145C16.2408 11.8411 15.5236 11.8401 14.9201 12.1567C14.3044 12.4798 13.8948 13.0883 13.7955 13.8482L13.7954 13.8482L13.7939 13.8611C13.6327 15.288 13.63 16.8077 13.7931 18.3908L13.795 18.4071C13.8848 19.1241 14.251 19.7418 14.8582 20.0836C15.4617 20.4233 16.1885 20.4265 16.8819 20.1531L16.8819 20.1531L16.8876 20.1509C18.2131 19.6158 19.4135 18.8337 20.3766 17.9616L20.3766 17.9616L20.3811 17.9575C20.9274 17.4546 21.2437 16.8086 21.24 16.1164C21.2363 15.426 20.9148 14.7894 20.3782 14.3025C19.3577 13.3689 18.1883 12.6453 16.8941 12.1145Z" fill="#000000" />
</svg>