<svg width="24px"  height="24px"  viewBox="0 0 25 24" fill="none" xmlns="http://www.w3.org/2000/svg">
<path fill-rule="evenodd" clip-rule="evenodd" d="M3.82838 3.83373C4.70897 2.88903 5.96104 2.36328 7.43227 2.36328H14.8082C16.2823 2.36328 17.5348 2.88876 18.4149 3.83405C19.2894 4.7733 19.7404 6.06607 19.7404 7.50885C19.7404 7.92306 19.4047 8.25885 18.9904 8.25885C18.5762 8.25885 18.2404 7.92306 18.2404 7.50885C18.2404 6.37577 17.8893 5.47076 17.3171 4.85619C16.7505 4.24766 15.9118 3.86328 14.8082 3.86328H7.43227C6.33246 3.86328 5.49339 4.24739 4.92561 4.85651C4.35238 5.47148 4 6.3766 4 7.50885V14.4582C4 15.5914 4.35101 16.4963 4.92307 17.1109C5.48947 17.7193 6.32813 18.1037 7.43227 18.1037H10.9161C11.3303 18.1037 11.6661 18.4395 11.6661 18.8537C11.6661 19.2679 11.3303 19.6037 10.9161 19.6037H7.43227C5.95768 19.6037 4.70521 19.0783 3.82516 18.1329C2.95076 17.1936 2.5 15.9008 2.5 14.4582V7.50885C2.5 6.06525 2.95324 4.77258 3.82838 3.83373Z" fill="#000000" />
<path fill-rule="evenodd" clip-rule="evenodd" d="M16.6351 16.9258C15.7484 16.9258 15.0293 17.6449 15.0293 18.5316C15.0293 19.4183 15.7484 20.1374 16.6351 20.1374C17.5218 20.1374 18.241 19.4183 18.241 18.5316C18.241 17.6449 17.5218 16.9258 16.6351 16.9258ZM13.5293 18.5316C13.5293 16.8165 14.92 15.4258 16.6351 15.4258C18.3502 15.4258 19.741 16.8165 19.741 18.5316C19.741 20.2467 18.3502 21.6374 16.6351 21.6374C14.92 21.6374 13.5293 20.2467 13.5293 18.5316Z" fill="#000000" />
<path fill-rule="evenodd" clip-rule="evenodd" d="M21.7217 10.0485C21.8973 10.1909 21.9992 10.4048 21.9992 10.6309V13.7342C21.9992 14.0845 21.7567 14.3882 21.415 14.4656L19.7405 14.8453L19.7406 18.5313C19.7406 18.9455 19.4048 19.2813 18.9906 19.2814C18.5764 19.2814 18.2406 18.9456 18.2406 18.5314L18.2405 14.2646C18.2402 14.2519 18.2402 14.2392 18.2405 14.2267L18.2404 11.1065C18.2404 10.7518 18.4888 10.4456 18.8359 10.3725L21.0947 9.89696C21.3158 9.85039 21.5462 9.90605 21.7217 10.0485ZM19.7405 13.3072L20.4992 13.1352V11.5552L19.7404 11.715L19.7405 13.3072Z" fill="#000000" />
<path fill-rule="evenodd" clip-rule="evenodd" d="M8.05273 10.9834C8.05273 9.28965 9.425 7.91602 11.1201 7.91602C12.8141 7.91602 14.1875 9.28944 14.1875 10.9834C14.1875 12.6781 12.8143 14.0518 11.1201 14.0518C9.4248 14.0518 8.05273 12.6779 8.05273 10.9834ZM11.1201 9.41602C10.2538 9.41602 9.55273 10.1177 9.55273 10.9834C9.55273 11.8503 10.254 12.5518 11.1201 12.5518C11.9855 12.5518 12.6875 11.8501 12.6875 10.9834C12.6875 10.1179 11.9857 9.41602 11.1201 9.41602Z" fill="#000000" />
</svg>