<svg width="24px"  height="24px"  viewBox="0 0 25 24" fill="none" xmlns="http://www.w3.org/2000/svg">
<path fill-rule="evenodd" clip-rule="evenodd" d="M8.98934 3.75C7.36893 3.75 6.05469 5.06353 6.05469 6.68465V17.3163C6.05469 18.9363 7.3688 20.25 8.98934 20.25H15.5112C17.1314 20.25 18.4448 18.9366 18.4448 17.3163V6.68465C18.4448 5.06327 17.1313 3.75 15.5112 3.75H8.98934ZM4.55469 6.68465C4.55469 4.23485 6.54076 2.25 8.98934 2.25H15.5112C17.96 2.25 19.9448 4.2351 19.9448 6.68465V17.3163C19.9448 19.765 17.9599 21.75 15.5112 21.75H8.98934C6.54089 21.75 4.55469 19.7653 4.55469 17.3163V6.68465Z" fill="#000000" />
<path fill-rule="evenodd" clip-rule="evenodd" d="M12.2495 11.1445C10.7325 11.1445 9.50195 12.3744 9.50195 13.8921C9.50195 15.4087 10.7324 16.6387 12.2495 16.6387C13.7667 16.6387 14.9971 15.4087 14.9971 13.8921C14.9971 12.3744 13.7666 11.1445 12.2495 11.1445ZM8.00195 13.8921C8.00195 11.5457 9.90435 9.64453 12.2495 9.64453C14.5947 9.64453 16.4971 11.5457 16.4971 13.8921C16.4971 16.2377 14.5946 18.1387 12.2495 18.1387C9.90448 18.1387 8.00195 16.2377 8.00195 13.8921Z" fill="#000000" />
<path fill-rule="evenodd" clip-rule="evenodd" d="M10.0957 6.61133C10.0957 6.19711 10.4315 5.86133 10.8457 5.86133H13.6527C14.0669 5.86133 14.4027 6.19711 14.4027 6.61133C14.4027 7.02554 14.0669 7.36133 13.6527 7.36133H10.8457C10.4315 7.36133 10.0957 7.02554 10.0957 6.61133Z" fill="#000000" />
</svg>