<svg width="24px"  height="24px"  viewBox="0 0 25 24" fill="none" xmlns="http://www.w3.org/2000/svg">
<path fill-rule="evenodd" clip-rule="evenodd" d="M11.931 5.25977C11.9309 5.25979 11.931 5.25975 11.931 5.25977L8.80411 7.21419C8.80394 7.2143 8.80429 7.21408 8.80411 7.21419C8.30989 7.52383 7.67864 7.67161 7.14307 7.67683C6.77542 7.70353 6.46238 7.71475 6.19969 7.72416C6.17358 7.7251 6.14797 7.72602 6.12285 7.72693C5.83056 7.73756 5.62406 7.74725 5.44597 7.77119C5.14713 7.81135 4.92845 7.88851 4.59754 8.16363C4.36802 8.35587 4.17407 8.80939 4.07723 9.60277C3.99701 10.2599 3.99895 10.9865 4.00083 11.6869C4.00111 11.7919 4.00139 11.8964 4.00139 12C4.00139 12.1008 4.00113 12.2025 4.00087 12.3048C3.9991 13.0079 3.99726 13.7381 4.07801 14.3979C4.17495 15.1901 4.36834 15.6439 4.59684 15.8368C4.93116 16.112 5.15014 16.1886 5.44814 16.2286C5.62626 16.2525 5.83268 16.2622 6.12559 16.2731C6.14919 16.2739 6.17322 16.2748 6.19769 16.2757C6.46194 16.2854 6.77732 16.2969 7.14889 16.3242C7.68699 16.3295 8.31088 16.4778 8.80375 16.7866C8.80387 16.7867 8.80363 16.7866 8.80375 16.7866L11.931 18.7413C11.931 18.7413 11.9309 18.7413 11.931 18.7413C13.2482 19.5642 14.9965 18.6193 15.0862 16.9164L15.0872 16.9013C15.3254 13.6341 15.3254 10.367 15.0872 7.09977L15.0865 7.09093C14.9816 5.37234 13.243 4.44005 11.931 5.25977ZM16.5835 6.99468C16.4183 4.3437 13.5764 2.46287 11.1361 3.98769L8.00824 5.94274C7.78474 6.08284 7.42659 6.17698 7.11364 6.17698C7.09515 6.17698 7.07666 6.17766 7.05822 6.17903C6.70908 6.2049 6.41428 6.21549 6.14443 6.22518C6.11885 6.22609 6.09349 6.22701 6.06834 6.22792C5.78631 6.23818 5.508 6.24936 5.24616 6.28456C4.66536 6.36262 4.18385 6.5566 3.63749 7.01111L3.63621 7.01217C2.92861 7.60348 2.6899 8.58846 2.58828 9.42102C2.49576 10.179 2.49847 11.0098 2.50073 11.7012C2.50106 11.8041 2.50139 11.904 2.50139 12C2.50139 12.094 2.50108 12.1917 2.50077 12.2923C2.49862 12.9857 2.49604 13.8195 2.58912 14.5801C2.691 15.4126 2.92969 16.3971 3.63556 16.9883L3.64001 16.992C4.18844 17.4442 4.66832 17.6374 5.2486 17.7153C5.51 17.7504 5.78805 17.7616 6.07018 17.772C6.09362 17.7729 6.11723 17.7738 6.14105 17.7746C6.41252 17.7846 6.70982 17.7955 7.0629 17.822C7.08159 17.8234 7.10032 17.8241 7.11907 17.8241C7.43125 17.8241 7.78258 17.9169 8.00741 18.0578L11.136 20.0133C13.5702 21.5343 16.4382 19.6617 16.5837 17.0032C16.8266 13.6671 16.8265 10.3308 16.5835 6.99468Z" fill="#000000" />
<path fill-rule="evenodd" clip-rule="evenodd" d="M19.857 7.52362C20.2162 7.3173 20.6746 7.4412 20.8809 7.80038C22.3743 10.4 22.3743 13.5986 20.8809 16.1983C20.6746 16.5574 20.2162 16.6814 19.857 16.475C19.4978 16.2687 19.3739 15.8103 19.5803 15.4511C20.8078 13.3141 20.8078 10.6845 19.5803 8.54753C19.3739 8.18836 19.4978 7.72994 19.857 7.52362Z" fill="#000000" />
</svg>