<svg width="24px"  height="24px"  viewBox="0 0 25 24" fill="none" xmlns="http://www.w3.org/2000/svg">
<path fill-rule="evenodd" clip-rule="evenodd" d="M12.2511 3.56836C12.6653 3.56836 13.0011 3.90415 13.0011 4.31836V4.32741C13.0011 4.74162 12.6653 5.07741 12.2511 5.07741C11.8369 5.07741 11.5011 4.74162 11.5011 4.32741V4.31836C11.5011 3.90415 11.8369 3.56836 12.2511 3.56836ZM5.90791 6.24041C6.32212 6.24041 6.65791 6.5762 6.65791 6.99041V6.99946C6.65791 7.41367 6.32212 7.74946 5.90791 7.74946C5.4937 7.74946 5.15791 7.41367 5.15791 6.99946V6.99041C5.15791 6.5762 5.4937 6.24041 5.90791 6.24041ZM18.6142 6.24041C19.0284 6.24041 19.3642 6.5762 19.3642 6.99041V6.99946C19.3642 7.41367 19.0284 7.74946 18.6142 7.74946C18.2 7.74946 17.8642 7.41367 17.8642 6.99946V6.99041C17.8642 6.5762 18.2 6.24041 18.6142 6.24041ZM3.25 12.6229C3.66421 12.6229 4 12.9587 4 13.3729V13.382C4 13.7962 3.66421 14.132 3.25 14.132C2.83579 14.132 2.5 13.7962 2.5 13.382V13.3729C2.5 12.9587 2.83579 12.6229 3.25 12.6229ZM21.25 12.6229C21.6642 12.6229 22 12.9587 22 13.3729V13.382C22 13.7962 21.6642 14.132 21.25 14.132C20.8358 14.132 20.5 13.7962 20.5 13.382V13.3729C20.5 12.9587 20.8358 12.6229 21.25 12.6229ZM5.90791 18.9237C6.32212 18.9237 6.65791 19.2595 6.65791 19.6737V19.6828C6.65791 20.097 6.32212 20.4328 5.90791 20.4328C5.4937 20.4328 5.15791 20.097 5.15791 19.6828V19.6737C5.15791 19.2595 5.4937 18.9237 5.90791 18.9237ZM18.6142 18.9237C19.0284 18.9237 19.3642 19.2595 19.3642 19.6737V19.6828C19.3642 20.097 19.0284 20.4328 18.6142 20.4328C18.2 20.4328 17.8642 20.097 17.8642 19.6828V19.6737C17.8642 19.2595 18.2 18.9237 18.6142 18.9237Z" fill="#000000" />
<path fill-rule="evenodd" clip-rule="evenodd" d="M6.61133 13.3233C6.61133 10.2093 9.13651 7.68555 12.2509 7.68555C15.3661 7.68555 17.8914 10.2092 17.8914 13.3233C17.8914 16.4374 15.3661 18.961 12.2509 18.961C9.13651 18.961 6.61133 16.4373 6.61133 13.3233ZM12.2509 9.18555C9.9644 9.18555 8.11133 11.0383 8.11133 13.3233C8.11133 15.6083 9.9644 17.461 12.2509 17.461C14.5384 17.461 16.3914 15.6082 16.3914 13.3233C16.3914 11.0383 14.5384 9.18555 12.2509 9.18555Z" fill="#000000" />
<path fill-rule="evenodd" clip-rule="evenodd" d="M16.1071 9.39241C16.4157 9.66871 16.4419 10.1429 16.1656 10.4515L13.9982 12.8723C13.7219 13.1809 13.2478 13.207 12.9392 12.9307C12.6306 12.6544 12.6044 12.1803 12.8807 11.8717L15.0481 9.4509C15.3244 9.1423 15.7985 9.11612 16.1071 9.39241Z" fill="#000000" />
</svg>