<svg width="24px"  height="24px"  viewBox="0 0 25 24" fill="none" xmlns="http://www.w3.org/2000/svg">
<path fill-rule="evenodd" clip-rule="evenodd" d="M15.5815 6.68994C15.4697 4.8844 13.6415 3.90027 12.2528 4.7675L12.2527 4.76755L9.00929 6.79244C9.00881 6.79274 9.00833 6.79304 9.00785 6.79335C8.50231 7.11129 7.85611 7.26875 7.30146 7.27399C6.91938 7.30096 6.59377 7.31202 6.31993 7.32132C6.29238 7.32225 6.26535 7.32317 6.23884 7.32408C5.93457 7.33458 5.71763 7.34433 5.53022 7.3691C5.21241 7.41111 4.98086 7.49316 4.63705 7.77959C4.38519 7.99037 4.18182 8.47497 4.0807 9.29904C3.9968 9.98282 3.99888 10.7372 4.00087 11.4606C4.00118 11.5701 4.00148 11.6788 4.00148 11.7864C4.00148 11.8817 4.00128 11.9778 4.00108 12.0744C3.99954 12.8123 3.99794 13.5847 4.08439 14.2817C4.18651 15.1052 4.38895 15.5915 4.63746 15.8037C4.98638 16.0905 5.21909 16.1722 5.5343 16.2139C5.72097 16.2387 5.93689 16.2484 6.24033 16.2589C6.26693 16.2598 6.29405 16.2608 6.32171 16.2617C6.59423 16.271 6.9184 16.282 7.29923 16.3089C7.3859 16.3089 7.53547 16.3107 7.70404 16.348C8.1085 16.4373 8.36394 16.8376 8.27458 17.2421C8.18522 17.6466 7.78491 17.902 7.38045 17.8126L7.38034 17.8126C7.37367 17.8111 7.36346 17.8089 7.27287 17.8089C7.25491 17.8089 7.23695 17.8082 7.21904 17.8069C6.85583 17.7808 6.54925 17.7703 6.26924 17.7608C6.24208 17.7599 6.21517 17.759 6.18849 17.758C5.89514 17.7479 5.60754 17.7368 5.33719 17.7009C4.73953 17.6217 4.24472 17.4238 3.67954 16.958L3.67262 16.9523L3.67266 16.9523C2.95209 16.3439 2.70319 15.3323 2.59579 14.4664C2.4968 13.6682 2.49908 12.7938 2.50098 12.0675C2.50123 11.971 2.50148 11.8772 2.50148 11.7864C2.50148 11.6866 2.50113 11.5827 2.50077 11.4756C2.49839 10.7609 2.49552 9.90152 2.59187 9.11634C2.69808 8.25078 2.94708 7.23701 3.6756 6.62824L3.67638 6.62759C4.23851 6.15914 4.735 5.96117 5.33365 5.88203C5.60454 5.84623 5.89302 5.83512 6.18713 5.82498C6.21371 5.82406 6.2405 5.82315 6.26755 5.82223C6.54839 5.81267 6.85564 5.80221 7.21904 5.77606C7.23695 5.77477 7.25491 5.77413 7.27287 5.77413C7.59504 5.77413 7.9692 5.67481 8.20987 5.52322L8.2124 5.52163L8.2124 5.52163L11.4583 3.49521C11.4583 3.49519 11.4583 3.49517 11.4584 3.49516C13.9714 1.92585 16.9082 3.85146 17.0786 6.59672C17.0786 6.5969 17.0786 6.59707 17.0786 6.59725L16.33 6.6436L17.0785 6.59631C17.0785 6.59644 17.0786 6.59658 17.0786 6.59672C17.1113 7.11488 17.1433 7.64899 17.165 8.1759C17.1821 8.58976 16.8605 8.93912 16.4466 8.95621C16.0328 8.9733 15.6834 8.65166 15.6663 8.2378C15.6453 7.72794 15.6141 7.20725 15.5815 6.69089L15.5815 6.68994Z" fill="#000000" />
<path fill-rule="evenodd" clip-rule="evenodd" d="M16.5145 12.2208C16.9287 12.2275 17.259 12.5687 17.2523 12.9828C17.2306 14.3242 17.1646 15.651 17.0787 16.9831C16.9319 19.7271 13.9663 21.6525 11.4595 20.0883C11.4591 20.0881 11.4586 20.0878 11.4582 20.0875L10.3281 19.3881C9.97585 19.1701 9.86703 18.7078 10.085 18.3556C10.303 18.0034 10.7652 17.8946 11.1175 18.1126L12.2502 18.8136L12.2527 18.8152C13.6462 19.6854 15.4879 18.6815 15.581 16.9L15.5814 16.8908L15.5815 16.8908C15.6667 15.5712 15.7313 14.2689 15.7525 12.9586C15.7592 12.5444 16.1003 12.2141 16.5145 12.2208Z" fill="#000000" />
<path fill-rule="evenodd" clip-rule="evenodd" d="M21.7805 2.84272C22.0734 3.13561 22.0734 3.61048 21.7805 3.90338L4.52838 21.1555C4.23548 21.4484 3.76061 21.4484 3.46772 21.1555C3.17482 20.8626 3.17482 20.3877 3.46772 20.0948L20.7198 2.84272C21.0127 2.54982 21.4876 2.54982 21.7805 2.84272Z" fill="#000000" />
</svg>