<svg width="24px"  height="24px"  viewBox="0 0 25 24" fill="none" xmlns="http://www.w3.org/2000/svg">
<path fill-rule="evenodd" clip-rule="evenodd" d="M2.79766 4.86118C3.65833 3.93809 4.88152 3.4248 6.31703 3.4248H18.183C19.6218 3.4248 20.8454 3.93778 21.7055 4.86155C22.56 5.77928 23 7.04154 23 8.44832V15.5521C23 16.9589 22.56 18.2212 21.7053 19.1389C20.845 20.0627 19.6211 20.5756 18.1819 20.5756H6.31703C4.87823 20.5756 3.65463 20.0626 2.79448 19.1389C1.93997 18.2211 1.5 16.9589 1.5 15.5521V8.44832C1.5 7.04058 1.94243 5.77845 2.79766 4.86118ZM3.89477 5.8841C3.34136 6.47765 3 7.35227 3 8.44832V15.5521C3 16.6491 3.34003 17.5236 3.89227 18.1167C4.43888 18.7037 5.2488 19.0756 6.31703 19.0756H18.1819C19.2508 19.0756 20.0609 18.7037 20.6076 18.1166C21.16 17.5236 21.5 16.6491 21.5 15.5521V8.44832C21.5 7.35132 21.16 6.47682 20.6077 5.88373C20.0611 5.29669 19.2512 4.9248 18.183 4.9248H6.31703C5.25308 4.9248 4.44275 5.29638 3.89477 5.8841Z" fill="#000000" />
<path fill-rule="evenodd" clip-rule="evenodd" d="M14.4186 9.92206C15.5667 8.77403 17.4264 8.77403 18.5744 9.92206C18.8673 10.2149 18.8673 10.6898 18.5744 10.9827C18.2815 11.2756 17.8067 11.2756 17.5138 10.9827C16.9515 10.4205 16.0415 10.4205 15.4793 10.9827C14.9169 11.5451 14.9174 12.456 15.479 13.0169L15.4793 13.0172C16.0415 13.5794 16.9515 13.5794 17.5138 13.0172C17.8067 12.7243 18.2815 12.7243 18.5744 13.0172C18.8673 13.3101 18.8673 13.785 18.5744 14.0779C17.4264 15.2259 15.5667 15.2259 14.4187 14.0779C14.4187 14.0779 14.4187 14.0779 14.4186 14.0779C13.2703 12.9306 13.2709 11.0698 14.4186 9.92206ZM14.4186 14.0779C14.4187 14.0779 14.4187 14.0779 14.4187 14.0779L14.4186 14.0779Z" fill="#000000" />
<path fill-rule="evenodd" clip-rule="evenodd" d="M6.21973 9.21507C6.61263 9.0839 7.03747 9.29607 7.16864 9.68897L7.88704 11.8408L8.7138 9.66055C8.82429 9.36917 9.10345 9.17647 9.41507 9.17647C9.7267 9.17647 10.0059 9.36917 10.1163 9.66055L10.9431 11.8408L11.6615 9.68897C11.7927 9.29607 12.2175 9.0839 12.6104 9.21507C13.0033 9.34624 13.2155 9.77108 13.0843 10.164L11.6994 14.3121C11.599 14.6129 11.3202 14.818 11.0031 14.8244C10.686 14.8308 10.3992 14.6371 10.2868 14.3405L9.41507 12.0417L8.54337 14.3405C8.43092 14.6371 8.1441 14.8308 7.82701 14.8244C7.50993 14.818 7.23113 14.6129 7.1307 14.3121L5.74583 10.164C5.61466 9.77108 5.82683 9.34624 6.21973 9.21507Z" fill="#000000" />
</svg>