<svg width="24px"  height="24px"  viewBox="0 0 24 25" fill="none" xmlns="http://www.w3.org/2000/svg">
<path d="M12.0629 22.0556C8.32293 22.0556 5.29297 19.0156 5.29297 15.2856C5.29297 11.5556 8.33293 8.51562 12.0629 8.51562C15.7929 8.51562 18.8329 11.5556 18.8329 15.2856C18.8329 19.0156 15.7929 22.0556 12.0629 22.0556ZM12.0629 10.0056C9.15293 10.0056 6.79297 12.3756 6.79297 15.2756C6.79297 18.1756 9.16293 20.5456 12.0629 20.5456C14.9629 20.5456 17.3329 18.1756 17.3329 15.2756C17.3329 12.3756 14.9629 10.0056 12.0629 10.0056Z" fill="#000000" />
<path d="M9.20308 10.7254C8.94308 10.7254 8.68312 10.5854 8.55312 10.3454L5.26308 4.51543C5.03308 4.10543 5.03308 3.61543 5.26308 3.21543C5.49308 2.81543 5.92308 2.56543 6.39308 2.56543H8.9731C9.4531 2.56543 9.89311 2.82543 10.1131 3.24543L13.2731 8.93543C13.4731 9.29543 13.3431 9.75543 12.9831 9.95543C12.6231 10.1554 12.1631 10.0254 11.9631 9.66543L8.86311 4.07543H6.73311L9.86311 9.61543C10.0631 9.97543 9.94308 10.4354 9.58308 10.6354C9.46308 10.7054 9.34309 10.7354 9.21309 10.7354L9.20308 10.7254Z" fill="#000000" />
<path d="M15.1231 10.7859C15.0131 10.7859 14.8932 10.7559 14.7932 10.7059C14.4232 10.5159 14.2732 10.0659 14.4632 9.6959L17.2932 4.0559H15.3032L12.8831 8.8759C12.7031 9.2459 12.2531 9.3959 11.8731 9.2059C11.5031 9.0159 11.3532 8.5659 11.5432 8.1959L14.0131 3.2659C14.2431 2.8159 14.6931 2.5459 15.1831 2.5459H17.6032C18.0632 2.5459 18.4732 2.7859 18.7132 3.1759C18.9532 3.5659 18.9731 4.0359 18.7731 4.4459L15.8032 10.3659C15.6732 10.6259 15.4031 10.7759 15.1331 10.7759L15.1231 10.7859Z" fill="#000000" />
<path d="M12.0531 13.256C11.5431 13.256 11.1331 12.846 11.1331 12.336C11.1331 12.096 11.2231 11.866 11.4031 11.686C11.5731 11.506 11.813 11.416 12.063 11.416C12.573 11.416 12.9931 11.826 12.9931 12.336C12.9931 12.846 12.5731 13.256 12.0731 13.256H12.0531Z" fill="#000000" />
<path d="M14.5831 14.5353C14.0731 14.5353 13.6631 14.1253 13.6631 13.6153C13.6631 13.3753 13.753 13.1453 13.933 12.9653C14.103 12.7853 14.3431 12.6953 14.5931 12.6953C15.1031 12.6953 15.5131 13.1053 15.5131 13.6153C15.5131 14.1253 15.1031 14.5353 14.5931 14.5353H14.5831Z" fill="#000000" />
<path d="M9.54309 14.5353C9.03309 14.5353 8.62305 14.1253 8.62305 13.6153C8.62305 13.3753 8.71307 13.1453 8.89307 12.9653C9.06307 12.7853 9.3031 12.6953 9.5531 12.6953C10.0631 12.6953 10.4731 13.1053 10.4731 13.6153C10.4731 14.1253 10.0631 14.5353 9.5531 14.5353H9.54309Z" fill="#000000" />
<path d="M10.3631 18.6354C10.0931 18.6354 9.83308 18.5754 9.58308 18.4154C9.24308 18.1954 9.02307 17.8254 8.95307 17.3154C8.85307 16.6754 9.0631 16.0054 9.5431 15.4454C10.1531 14.7254 11.1231 14.2754 12.0631 14.2754C13.7231 14.2754 15.1831 15.5854 15.1931 17.0654C15.1931 17.6354 15.0331 18.0554 14.6931 18.3254C14.1531 18.7554 13.4731 18.5954 12.8631 18.4454C12.5831 18.3754 12.2931 18.3054 12.0631 18.3054C11.8731 18.3054 11.6131 18.3754 11.3631 18.4454C11.0431 18.5254 10.7031 18.6254 10.3731 18.6254L10.3631 18.6354ZM12.0631 15.7754C11.5631 15.7754 11.0131 16.0354 10.6831 16.4154C10.5731 16.5454 10.3931 16.8054 10.4331 17.0854C10.4331 17.1054 10.4331 17.1154 10.4331 17.1354C10.5731 17.1154 10.8031 17.0554 10.9631 17.0154C11.2931 16.9254 11.6731 16.8254 12.0531 16.8254C12.4531 16.8254 12.8531 16.9154 13.2031 17.0054C13.3431 17.0354 13.5331 17.0854 13.6831 17.1054C13.6831 16.4954 12.9531 15.7854 12.0531 15.7854L12.0631 15.7754Z" fill="#000000" />
</svg>