<svg width="24px"  height="24px"  viewBox="0 0 24 25" fill="none" xmlns="http://www.w3.org/2000/svg">
<path d="M17.2873 9.0809C17.1473 9.0809 17.0073 9.04091 16.8773 8.96091C16.5373 8.72091 16.4373 8.26089 16.6673 7.91089C16.8973 7.56089 17.3573 7.4709 17.7073 7.7009C18.0473 7.9309 18.1473 8.40091 17.9173 8.74091C17.7673 8.96091 17.5373 9.0809 17.2973 9.0809H17.2873Z" fill="#000000" />
<path d="M9.79714 21.6814C7.37714 21.6814 4.91714 20.8414 2.79714 19.2114C2.56714 19.0414 2.45715 18.7414 2.51715 18.4614C2.57715 18.1814 2.78713 17.9514 3.06713 17.8814C6.40713 17.0514 8.42712 16.5514 9.77712 15.3414C10.0871 15.0614 10.5571 15.0914 10.8371 15.4014C11.1171 15.7114 11.0871 16.1814 10.7771 16.4614C9.41712 17.6814 7.68712 18.2514 5.08712 18.9314C7.57712 20.3014 10.3971 20.5714 12.8871 19.6114C15.6771 18.5314 17.6071 16.1214 18.1771 12.9914C18.2371 12.6514 18.2871 12.3414 18.3371 12.0614C18.5971 10.5614 18.7671 9.56137 19.5771 8.09137C19.3871 8.05137 19.2471 8.02136 19.1771 8.01136C18.8971 7.99136 18.6571 7.81137 18.5471 7.56137C18.2571 6.89137 17.7971 6.67135 17.4571 6.60135C16.9871 6.51135 16.4771 6.67137 16.1371 7.02137C15.8471 7.31137 15.3671 7.31137 15.0771 7.02137C14.7871 6.73137 14.7871 6.25137 15.0771 5.96137C15.7771 5.26137 16.7771 4.94135 17.7471 5.13135C18.5771 5.29135 19.2871 5.81136 19.7371 6.58136C20.1771 6.67136 20.7371 6.81137 20.9371 6.87137C21.1671 6.93137 21.3571 7.10135 21.4471 7.32135C21.5371 7.54135 21.5071 7.79138 21.3771 8.00138C20.2571 9.74138 20.1271 10.5414 19.8171 12.3114C19.7671 12.6014 19.7171 12.9214 19.6472 13.2614C18.9771 16.9114 16.7071 19.7414 13.4171 21.0114C12.2471 21.4614 11.0171 21.6814 9.77712 21.6814H9.79714Z" fill="#000000" />
<path d="M12.4272 17.4812C12.0472 17.4812 11.7172 17.1912 11.6772 16.8012C11.2572 12.1612 12.1972 5.62115 14.4772 3.16115C14.6872 2.93115 15.0172 2.86117 15.3072 2.97117C15.5972 3.08117 15.7872 3.36116 15.7872 3.67116C15.7872 7.01116 16.3572 10.3211 16.9072 12.1311C17.0272 12.5311 16.8072 12.9512 16.4172 13.0712C16.0172 13.2012 15.5972 12.9712 15.4772 12.5812C15.0272 11.1512 14.5872 8.83117 14.3872 6.28117C13.3072 9.07117 12.8772 13.3712 13.1772 16.6712C13.2172 17.0812 12.9072 17.4512 12.4972 17.4912C12.4772 17.4912 12.4472 17.4912 12.4272 17.4912V17.4812Z" fill="#000000" />
<path d="M8.44729 17.531C8.34729 17.531 8.2373 17.511 8.1473 17.471C5.2373 16.181 3.8373 12.001 3.9573 8.55101C3.9673 8.24101 4.16728 7.96101 4.46728 7.86101C4.75728 7.76101 5.08729 7.861 5.28729 8.101C6.64729 9.761 8.92728 11.741 12.1273 11.741C12.5373 11.741 12.8773 12.081 12.8773 12.491C12.8773 12.901 12.5373 13.241 12.1273 13.241C9.32728 13.241 7.1473 11.991 5.5773 10.571C5.9273 12.961 7.04729 15.331 8.75729 16.091C9.13729 16.261 9.30729 16.701 9.13729 17.081C9.01729 17.361 8.73729 17.531 8.44729 17.531Z" fill="#000000" />
</svg>