<svg width="24px"  height="24px"  viewBox="0 0 24 25" fill="none" xmlns="http://www.w3.org/2000/svg">
<path d="M8.81717 11.6984L9.50718 11.4184L8.80716 11.6784C8.48716 10.8884 8.12717 10.0084 8.13717 8.64845C8.15717 7.02845 9.12718 6.00844 9.97718 5.10844C10.5672 4.48844 11.1172 3.90846 11.3272 3.18846C11.4072 2.91846 11.6272 2.70846 11.9072 2.65846C12.1872 2.59846 12.4672 2.71846 12.6472 2.93846C12.7372 3.04846 14.7772 5.78844 13.9172 9.19844C13.8172 9.59844 13.4072 9.84845 13.0072 9.73845C12.6072 9.63845 12.3672 9.22844 12.4672 8.82844C12.8572 7.29844 12.4772 5.90844 12.0772 4.97844C11.7672 5.40844 11.4072 5.78845 11.0672 6.14845C10.3072 6.94845 9.64717 7.63844 9.63717 8.66844C9.62717 9.71844 9.88718 10.3685 10.1972 11.1185L8.81717 11.7084V11.6984Z" fill="#000000" />
<path d="M6.57703 12.6687C6.50703 12.6687 6.43704 12.6687 6.36704 12.6387C5.96704 12.5287 5.73704 12.1087 5.84704 11.7087C5.95704 11.3087 6.36704 11.0687 6.76704 11.1887H6.77703C7.17703 11.3087 7.40704 11.7187 7.29704 12.1187C7.20704 12.4487 6.90703 12.6587 6.57703 12.6587V12.6687Z" fill="#000000" />
<path d="M12.3071 21.9587C12.1671 21.9587 12.0271 21.9587 11.8871 21.9587C8.21707 21.8187 5.65707 19.8387 4.85707 16.5287C4.84707 16.4887 4.80708 16.3287 4.75708 16.1087C4.56708 15.1987 4.11707 13.0587 2.85707 12.3187C2.61707 12.1787 2.47707 11.9087 2.48707 11.6287C2.49707 11.3487 2.67708 11.0987 2.92708 10.9887C2.92708 10.9887 3.39707 10.7787 3.77707 10.6087C4.00707 9.87868 4.51708 9.30869 5.22708 8.99869C6.06708 8.61869 7.07707 8.66869 7.77707 9.11869C8.67707 9.68869 9.11708 10.5087 9.42708 11.3187C10.6671 9.57867 11.9671 8.96869 12.5871 8.67869L12.7771 8.58869C13.2371 8.35869 13.6671 8.1387 14.0971 7.9387C16.3871 6.8287 18.0471 6.0187 19.3471 3.6587C19.4871 3.3987 19.7671 3.24869 20.0671 3.27869C20.3671 3.30869 20.6171 3.50867 20.7071 3.78867C21.8671 7.24867 21.7771 10.3087 20.4271 12.6487C19.4371 14.3687 17.8171 15.6587 15.6771 16.4487C17.4271 16.9587 19.1171 16.5787 19.7071 16.4187C19.9771 16.3387 20.2571 16.4187 20.4471 16.6187C20.6371 16.8187 20.7071 17.1087 20.6171 17.3687C19.7671 19.9487 16.0871 21.9587 12.2871 21.9587H12.3071ZM4.61708 11.8787C5.66708 13.1287 6.04708 14.9187 6.22708 15.7987C6.25708 15.9487 6.27707 16.0587 6.29707 16.1187C7.17707 19.7387 10.2171 20.3887 11.9471 20.4587C14.4471 20.5687 17.0671 19.5687 18.4171 18.1687C17.0071 18.2887 15.0571 18.1587 13.2971 16.9687C13.1071 16.8887 12.9471 16.7387 12.8771 16.5287C12.7471 16.1787 12.8971 15.7887 13.2271 15.6087C13.3071 15.5687 13.3971 15.5387 13.4771 15.5287C16.1371 14.9787 18.0971 13.7187 19.1471 11.8987C20.0971 10.2487 20.2871 8.20868 19.7371 5.79868C18.3471 7.54868 16.6571 8.36867 14.7571 9.28867C14.3471 9.48867 13.9171 9.69869 13.4671 9.92869L13.2371 10.0387C12.5571 10.3587 11.1571 11.0187 9.93707 13.3987C9.80707 13.6587 9.52707 13.8287 9.23707 13.8087C8.94707 13.7987 8.68707 13.6087 8.57707 13.3387C8.47707 13.0787 8.37708 12.8087 8.28708 12.5387C7.99708 11.6687 7.71707 10.8487 6.98707 10.3887C6.74707 10.2387 6.27707 10.1787 5.84707 10.3687C5.46707 10.5387 5.23707 10.8487 5.16707 11.2787C5.12707 11.5387 4.94708 11.7587 4.70708 11.8487C4.68708 11.8487 4.65708 11.8687 4.61708 11.8887V11.8787Z" fill="#000000" />
</svg>