<svg width="24px"  height="24px"  viewBox="0 0 24 25" fill="none" xmlns="http://www.w3.org/2000/svg">
<path d="M10.1202 11.6787C10.0502 11.6787 9.98015 11.6787 9.91015 11.6487C9.51015 11.5287 9.29015 11.1087 9.41015 10.7087C9.53015 10.3087 9.94014 10.0887 10.3401 10.2087C10.7401 10.3287 10.9701 10.7487 10.8501 11.1487C10.7501 11.4787 10.4601 11.6887 10.1401 11.6887L10.1202 11.6787Z" fill="#000000" />
<path d="M15.2302 19.949C15.1102 19.949 14.9802 19.949 14.8502 19.949C11.5502 19.819 9.23021 18.029 8.51021 15.049C8.50021 15.019 8.47018 14.869 8.42018 14.669C8.25018 13.869 7.85016 11.989 6.77016 11.349C6.53016 11.209 6.39016 10.939 6.40016 10.659C6.41016 10.379 6.59016 10.129 6.84016 10.019C6.84016 10.019 7.2402 9.839 7.5702 9.699C7.7902 9.049 8.26015 8.52901 8.89015 8.24901C9.67015 7.89901 10.5902 7.949 11.2402 8.359C12.0202 8.859 12.4302 9.57901 12.7102 10.279C13.6002 9.20901 14.6602 8.589 15.6902 7.989C16.9502 7.259 18.1402 6.55899 18.9802 5.03899C19.1302 4.76899 19.4402 4.61899 19.7402 4.65899C20.0502 4.70899 20.3002 4.939 20.3602 5.239C20.9902 8.149 21.5002 11.179 20.1102 13.309C19.6702 13.979 19.0702 14.519 18.3202 14.909C19.8302 15.329 21.2802 14.999 21.7902 14.859C22.0602 14.789 22.3402 14.859 22.5302 15.059C22.7202 15.259 22.7901 15.549 22.7001 15.809C21.9401 18.139 18.6201 19.949 15.2001 19.949H15.2302ZM8.52016 10.919C9.41016 12.039 9.74016 13.589 9.90016 14.349C9.93016 14.479 9.95016 14.569 9.96016 14.629C10.7302 17.809 13.4002 18.379 14.9202 18.439C17.0202 18.519 19.2502 17.729 20.4602 16.579C19.2102 16.659 17.5702 16.489 16.0802 15.489C15.8902 15.419 15.7402 15.269 15.6602 15.069C15.5302 14.729 15.6602 14.339 15.9702 14.149C16.0602 14.089 16.1602 14.059 16.2702 14.039C17.5102 13.779 18.3602 13.259 18.8802 12.459C19.7202 11.169 19.6202 9.229 19.2602 7.199C18.3802 8.139 17.3802 8.72899 16.4702 9.25899C15.2002 9.99899 14.0001 10.699 13.2001 12.259C13.0701 12.519 12.7802 12.679 12.5002 12.669C12.2102 12.659 11.9502 12.469 11.8402 12.199C11.7502 11.969 11.6602 11.729 11.5802 11.479C11.3202 10.719 11.0802 9.999 10.4602 9.609C10.2702 9.489 9.88016 9.439 9.52016 9.609C9.21016 9.749 9.02016 9.999 8.96016 10.359C8.92016 10.609 8.75016 10.819 8.52016 10.919Z" fill="#000000" />
<path d="M8.38014 19.289C6.07014 19.289 3.42014 17.9291 1.38014 14.7391C1.21014 14.4691 1.22011 14.1191 1.42011 13.8691C1.62011 13.6191 1.95013 13.5191 2.25013 13.6191C3.93013 14.1891 4.89011 13.899 6.35011 13.449C6.62011 13.369 6.90008 13.279 7.20008 13.199L7.30012 13.169C7.59012 13.079 8.14009 12.8991 8.96009 12.9391C9.37009 12.9591 9.70012 13.3091 9.68012 13.7191C9.66012 14.1391 9.27009 14.4791 8.90009 14.4391C8.35009 14.4191 8.01014 14.519 7.76014 14.599L7.60011 14.6491C7.31011 14.7291 7.0401 14.809 6.7801 14.889C5.7801 15.189 4.88009 15.4591 3.77009 15.4291C6.27009 18.1991 9.04009 18.099 10.4601 17.199C10.8101 16.979 11.2701 17.0891 11.4901 17.4391C11.7101 17.7891 11.6101 18.2491 11.2501 18.4691C10.4101 18.9991 9.42012 19.2791 8.36012 19.2791L8.38014 19.289Z" fill="#000000" />
</svg>