<svg width="24px"  height="24px"  viewBox="0 0 24 25" fill="none" xmlns="http://www.w3.org/2000/svg">
<path d="M11.4418 7.73595C11.2618 7.73595 11.0918 7.67595 10.9518 7.54595C10.6418 7.27595 10.6018 6.79596 10.8818 6.48595C11.1518 6.17595 11.6218 6.13595 11.9318 6.41595C12.2418 6.69595 12.2718 7.16596 12.0018 7.48595C11.8518 7.65595 11.6418 7.74596 11.4418 7.74596V7.73595Z" fill="#000000" />
<path d="M16.5617 20.9859C16.3317 20.9859 16.1017 20.9859 15.8717 20.9559C13.5917 20.7759 11.7017 19.6859 10.5317 17.9059C10.3017 17.5559 10.4017 17.0959 10.7517 16.8659C11.1017 16.636 11.5618 16.736 11.7918 17.086C12.7018 18.476 14.1917 19.316 15.9917 19.466C17.6317 19.596 19.3517 19.136 20.5917 18.276C14.6717 15.756 12.6117 13.3159 12.8017 9.23595C12.8117 8.94595 12.8417 8.64595 12.8717 8.33595C12.9717 7.35595 13.0617 6.42595 12.5617 5.64595C12.3917 5.38595 11.9417 5.10594 11.4317 5.10594C11.1217 5.10594 10.6717 5.20595 10.3317 5.70595C10.1817 5.92595 9.94176 6.06593 9.67176 6.03593C9.63176 6.03593 9.57176 6.03593 9.51176 6.03593C10.0018 7.71593 9.56176 9.64594 9.35176 10.5759C9.31176 10.7359 9.29175 10.8559 9.28175 10.9259C9.23175 11.3359 8.85175 11.6359 8.44175 11.5759C8.03175 11.5259 7.74176 11.156 7.79176 10.746C7.80176 10.646 7.84176 10.476 7.89176 10.246C8.11176 9.27596 8.62175 6.99594 7.72175 5.69594C7.56175 5.46594 7.54176 5.16594 7.67176 4.91594C7.80176 4.66594 8.06174 4.51594 8.33174 4.51594C8.33174 4.51594 8.90175 4.51595 9.34175 4.52595C9.88175 3.91595 10.6217 3.59594 11.4317 3.60594C12.4017 3.60594 13.3317 4.09595 13.8117 4.83595C14.6017 6.06595 14.4718 7.35596 14.3618 8.49595C14.3318 8.77596 14.3018 9.04593 14.2918 9.31593C14.1518 12.4959 15.3417 14.6059 22.2717 17.3559C22.5017 17.4459 22.6718 17.6459 22.7218 17.8859C22.7818 18.1259 22.7118 18.376 22.5418 18.556C21.1518 20.076 18.8617 20.996 16.5517 20.996L16.5617 20.9859Z" fill="#000000" />
<path d="M10.012 18.2061C7.94195 18.2061 6.20195 17.6961 4.82195 16.6761C2.86195 15.2361 1.66194 12.8061 1.26194 9.46607C1.23194 9.19607 1.34194 8.93607 1.56194 8.77607C1.78194 8.61607 2.06194 8.58605 2.31194 8.69605C6.61194 10.5861 8.36195 10.8461 10.102 9.86606C10.462 9.66606 10.9219 9.79604 11.1219 10.156C11.3219 10.516 11.1919 10.9761 10.8319 11.1761C8.62193 12.4161 6.43194 12.0361 2.96194 10.6061C3.42194 12.8461 4.35194 14.476 5.71194 15.476C7.33194 16.666 9.63195 16.9961 12.542 16.4661C12.942 16.3861 13.3419 16.656 13.4119 17.066C13.4919 17.476 13.2219 17.8661 12.8119 17.9361C11.8219 18.1161 10.882 18.2161 10.012 18.2161V18.2061Z" fill="#000000" />
<path d="M16.9917 15.9264C16.6717 15.9264 16.3717 15.7164 16.2717 15.3864C16.1517 14.9864 16.3817 14.5764 16.7817 14.4564C18.5317 13.9464 19.9217 11.7964 20.5717 9.52645C18.7017 10.7364 16.5617 11.2764 14.0117 11.2364C13.6017 11.2364 13.2717 10.8864 13.2717 10.4764C13.2717 10.0664 13.6217 9.72644 14.0317 9.73644C16.9717 9.80644 19.2318 8.96644 21.1718 7.14644C21.4018 6.93644 21.7317 6.88645 22.0217 7.02645C22.3017 7.16645 22.4617 7.46645 22.4317 7.77645C22.0917 11.1564 20.1817 15.0264 17.1917 15.9064C17.1217 15.9264 17.0518 15.9365 16.9818 15.9365L16.9917 15.9264Z" fill="#000000" />
</svg>