<svg width="24px"  height="24px"  viewBox="0 0 24 25" fill="none" xmlns="http://www.w3.org/2000/svg">
<path d="M7.17559 9.00297C6.81559 9.00297 6.5056 8.74297 6.4356 8.38297C6.3656 7.97297 6.63558 7.58298 7.04558 7.51298C7.45558 7.45298 7.84558 7.71296 7.91558 8.12296C7.98558 8.53296 7.71557 8.92299 7.31557 8.99299H7.30559C7.30559 8.99299 7.21559 9.00297 7.17559 9.00297Z" fill="#000000" />
<path d="M15.3956 16.3031C15.0656 16.3031 14.7656 16.093 14.6756 15.763C14.5656 15.363 14.7956 14.9531 15.1956 14.8331C18.0256 14.0331 19.8656 11.3131 20.3656 7.27305C16.9656 9.76305 13.4756 10.113 9.96564 8.32304C9.92564 8.30304 9.89563 8.28303 9.86563 8.25303C9.64563 8.08303 9.42562 7.90306 9.19562 7.71306C8.49562 7.12306 7.82563 6.57303 6.92563 6.56303C6.60563 6.56303 6.09562 6.79305 5.79562 7.23305C5.54562 7.58305 5.49563 7.96305 5.64563 8.36305C5.73563 8.61305 5.68564 8.88303 5.52564 9.09303C5.49564 9.13303 5.44563 9.19304 5.39563 9.26304C8.23563 10.223 9.54563 12.543 10.1456 13.603C10.2356 13.763 10.3056 13.8931 10.3556 13.9631C10.6656 14.2331 10.6756 14.6831 10.4056 14.9931C10.1356 15.3031 9.63562 15.313 9.32562 15.043C9.15562 14.893 9.04564 14.703 8.84564 14.343C8.23564 13.253 6.95564 10.983 3.99564 10.453C3.73564 10.413 3.52563 10.2331 3.42563 9.99306C3.32563 9.75306 3.36563 9.47305 3.51563 9.27305C3.51563 9.27305 3.85563 8.82304 4.11563 8.47304C3.96563 7.74304 4.11561 7.01304 4.56561 6.38304C5.11561 5.60304 6.06563 5.07304 6.92563 5.07304H6.94562C8.38562 5.08304 9.37562 5.91304 10.1656 6.57304C10.3456 6.72304 10.5256 6.88304 10.7156 7.01304C14.1156 8.72304 17.3956 8.07305 20.7556 5.02305C20.9756 4.82305 21.3056 4.77305 21.5756 4.89305C21.8456 5.02305 22.0256 5.29303 22.0156 5.59303C21.7656 13.663 17.4656 15.743 15.6256 16.263C15.5556 16.283 15.4856 16.293 15.4156 16.293L15.3956 16.3031Z" fill="#000000" />
<path d="M8.53551 19.763C7.62551 19.763 6.64554 19.633 5.59554 19.343C5.31554 19.263 5.10553 19.033 5.05553 18.743C5.00553 18.453 5.13554 18.163 5.37554 18.003C8.44554 15.943 10.0055 13.843 10.0055 11.793C10.0055 11.383 10.3455 11.043 10.7555 11.043C11.1655 11.043 11.5055 11.383 11.5055 11.793C11.5055 14.013 10.2055 16.163 7.62554 18.223C12.1655 18.713 14.4055 15.473 14.9155 14.033C15.0555 13.643 15.4855 13.443 15.8755 13.573C16.2655 13.713 16.4655 14.143 16.3355 14.533C15.5055 16.883 12.8455 19.773 8.54552 19.773L8.53551 19.763Z" fill="#000000" />
<path d="M6.22556 16.3928C4.21556 16.3928 2.62558 15.9428 2.52558 15.9128C2.21558 15.8228 2.00557 15.5528 1.98557 15.2328C1.96557 14.9128 2.15556 14.6228 2.44556 14.5028C5.48556 13.2328 6.86559 11.2928 6.87559 11.2728C7.11559 10.9328 7.58556 10.8528 7.91556 11.0828C8.25556 11.3228 8.34557 11.7828 8.10557 12.1228C8.05557 12.1928 7.10558 13.5528 5.05558 14.8328C6.21558 14.9428 7.70558 14.9328 9.08558 14.4728C9.47558 14.3428 9.90556 14.5628 10.0356 14.9528C10.1656 15.3428 9.94558 15.7728 9.55558 15.9028C8.43558 16.2728 7.27556 16.3928 6.22556 16.3928Z" fill="#000000" />
</svg>