<svg width="24px"  height="24px"  viewBox="0 0 24 25" fill="none" xmlns="http://www.w3.org/2000/svg">
<path d="M9.28 12.9831C9.09 12.9831 8.9 12.9131 8.75 12.7631L6.24 10.2531C5.18 10.8631 3.72 10.6831 2.83 9.79311C2.29 9.25311 2 8.54311 2 7.79311C2 7.04311 2.29 6.32311 2.83 5.79311C3.33 5.29311 3.99 5.0131 4.67 4.9731C4.71 4.2931 4.99 3.6231 5.49 3.1231C6.6 2.0231 8.39 2.0231 9.5 3.1231C10.04 3.6631 10.33 4.3731 10.33 5.1231C10.33 5.6231 10.2 6.10312 9.96 6.52312L12.48 9.04311C12.77 9.33311 12.77 9.81311 12.48 10.1031C12.19 10.3931 11.71 10.3931 11.42 10.1031L8.44 7.1231C8.3 6.9831 8.22 6.7931 8.22 6.5931C8.22 6.3931 8.3 6.2031 8.44 6.0631C8.69 5.8131 8.83 5.4731 8.83 5.1231C8.83 4.7731 8.69 4.43312 8.44 4.18312C7.92 3.66312 7.07 3.66312 6.55 4.18312C6.19 4.54312 6.07 5.09312 6.25 5.58312C6.35 5.85312 6.28 6.1631 6.08 6.3731C5.87 6.5831 5.57 6.64311 5.29 6.54311C4.8 6.36311 4.25 6.4831 3.89 6.8431C3.64 7.0931 3.5 7.4331 3.5 7.7831C3.5 8.1331 3.64 8.4731 3.89 8.7231C4.39 9.2231 5.27 9.2231 5.78 8.7231C6.06 8.4431 6.56 8.4431 6.84 8.7231L9.81 11.6931C10.1 11.9831 10.1 12.4631 9.81 12.7531C9.66 12.9031 9.47 12.9731 9.28 12.9731V12.9831Z" fill="#000000" />
<path d="M7.50014 22.2931C6.77014 22.2931 6.05014 22.0131 5.50014 21.4631C5.00014 20.9631 4.72014 20.3031 4.68014 19.6131C4.00014 19.5731 3.33014 19.2931 2.84014 18.7931C1.74014 17.6831 1.74014 15.8931 2.84014 14.7831C3.76014 13.8631 5.16014 13.7131 6.24014 14.3231L14.0401 6.52312C13.8001 6.10312 13.6701 5.6231 13.6701 5.1231C13.6701 4.3631 13.9601 3.6531 14.5001 3.1231C15.6001 2.0231 17.4001 2.0231 18.5101 3.1231C19.0101 3.6231 19.2901 4.2831 19.3301 4.9731C20.0101 5.0131 20.6801 5.29311 21.1701 5.79311C21.7001 6.33311 22.0001 7.04311 22.0001 7.79311C22.0001 8.54311 21.7101 9.26311 21.1701 9.79311C20.2801 10.6831 18.8301 10.8631 17.7601 10.2531L9.96014 18.0531C10.5701 19.1331 10.4201 20.5431 9.50014 21.4631C8.95014 22.0131 8.22014 22.2931 7.50014 22.2931ZM5.55014 18.0031C5.75014 18.0031 5.94014 18.0831 6.08014 18.2231C6.29014 18.4331 6.35014 18.7331 6.25014 19.0131C6.07014 19.5031 6.19014 20.0531 6.55014 20.4131C7.07014 20.9331 7.92014 20.9331 8.44014 20.4131C8.96014 19.8931 8.96014 19.0431 8.44014 18.5231C8.15014 18.2331 8.15014 17.7531 8.44014 17.4631L17.1601 8.74312C17.3001 8.60312 17.4901 8.52312 17.6901 8.52312C17.8901 8.52312 18.0801 8.60312 18.2201 8.74312C18.7201 9.24312 19.6001 9.24312 20.1101 8.74312C20.3601 8.49312 20.5001 8.15312 20.5001 7.80312C20.5001 7.45312 20.3601 7.11312 20.1101 6.86312C19.7501 6.50312 19.2001 6.3831 18.7101 6.5631C18.4401 6.6631 18.1301 6.59311 17.9201 6.39312C17.7101 6.18312 17.6501 5.88311 17.7501 5.60311C17.9301 5.11311 17.8101 4.56311 17.4501 4.20311C16.9301 3.68311 16.0801 3.68311 15.5601 4.20311C15.3101 4.45311 15.1701 4.79312 15.1701 5.14312C15.1701 5.49312 15.3101 5.83312 15.5601 6.08312C15.7001 6.22312 15.7801 6.41312 15.7801 6.61312C15.7801 6.81312 15.7001 7.00312 15.5601 7.14312L6.84014 15.8631C6.55014 16.1531 6.07014 16.1531 5.78014 15.8631C5.26014 15.3431 4.41014 15.3431 3.89014 15.8631C3.37014 16.3831 3.37014 17.2331 3.89014 17.7531C4.25014 18.1131 4.80014 18.2331 5.29014 18.0531C5.37014 18.0231 5.46014 18.0131 5.55014 18.0131V18.0031Z" fill="#000000" />
<path d="M16.5 22.2935C15.77 22.2935 15.05 22.0135 14.5 21.4635C13.58 20.5435 13.43 19.1435 14.04 18.0535L11.55 15.5634C11.26 15.2734 11.26 14.7934 11.55 14.5034C11.84 14.2134 12.32 14.2134 12.61 14.5034L15.56 17.4535C15.85 17.7435 15.85 18.2235 15.56 18.5135C15.04 19.0335 15.04 19.8834 15.56 20.4034C16.08 20.9234 16.93 20.9234 17.45 20.4034C17.81 20.0434 17.93 19.4935 17.75 19.0034C17.65 18.7334 17.72 18.4235 17.92 18.2135C18.13 18.0035 18.43 17.9435 18.71 18.0435C19.2 18.2235 19.75 18.1035 20.11 17.7435C20.63 17.2235 20.63 16.3735 20.11 15.8535C19.59 15.3335 18.74 15.3335 18.22 15.8535C17.93 16.1435 17.45 16.1435 17.16 15.8535L14.18 12.8734C13.89 12.5834 13.89 12.1034 14.18 11.8134C14.47 11.5234 14.95 11.5234 15.24 11.8134L17.76 14.3335C18.84 13.7235 20.24 13.8735 21.16 14.7935C22.26 15.9035 22.26 17.6935 21.16 18.8035C20.66 19.3035 20 19.5834 19.31 19.6234C19.27 20.3034 18.99 20.9735 18.49 21.4735C17.94 22.0235 17.21 22.3035 16.49 22.3035L16.5 22.2935Z" fill="#000000" />
</svg>