<svg width="24px"  height="24px"  viewBox="0 0 24 25" fill="none" xmlns="http://www.w3.org/2000/svg">
<path d="M11.1974 10.4509H4.1274C3.9174 10.4509 3.7174 10.3609 3.5774 10.2109C3.4374 10.0609 3.3674 9.8509 3.3774 9.6409C3.5074 7.9009 4.78739 4.5509 7.78739 2.4309C8.04739 2.2509 8.3974 2.2509 8.6574 2.4309C9.1774 2.8009 9.6674 3.22091 10.1174 3.68091C10.4074 3.98091 10.3974 4.4509 10.1074 4.7409C9.8174 5.0309 9.3374 5.02089 9.0474 4.73089C8.7874 4.46089 8.5174 4.2209 8.2274 3.9909C6.2474 5.5809 5.3574 7.6909 5.0274 8.9509H11.2074C11.6174 8.9509 11.9574 9.2909 11.9574 9.7009C11.9574 10.1109 11.6174 10.4509 11.2074 10.4509H11.1974Z" fill="#000000" />
<path d="M4.70727 22.3012C4.31727 22.3012 3.98727 21.9912 3.95727 21.6012C3.92727 21.1912 4.24728 20.8312 4.65728 20.8112C5.46728 20.7612 7.46728 19.7112 7.46728 17.9912C7.46728 17.5812 7.80728 17.2412 8.21728 17.2412C8.62728 17.2412 8.96728 17.5812 8.96728 17.9912C8.96728 19.1412 9.83729 19.8912 10.3473 20.2412C10.6873 20.4712 10.7873 20.9412 10.5573 21.2812C10.3273 21.6212 9.85728 21.7212 9.51728 21.4912C8.98728 21.1412 8.55728 20.7212 8.21728 20.2512C7.29728 21.5212 5.73728 22.2512 4.74728 22.3112C4.72728 22.3112 4.71728 22.3112 4.69728 22.3112L4.70727 22.3012Z" fill="#000000" />
<path d="M8.21729 18.8012C7.80729 18.8012 7.46729 18.4612 7.46729 18.0512V9.70117C7.46729 9.29117 7.80729 8.95117 8.21729 8.95117C8.62729 8.95117 8.96729 9.29117 8.96729 9.70117V18.0512C8.96729 18.4612 8.62729 18.8012 8.21729 18.8012Z" fill="#000000" />
<path d="M17.9673 22.3008C17.2773 22.3008 16.6273 22.0408 16.1273 21.6008C15.6273 22.0408 14.9773 22.3008 14.2873 22.3008C12.7573 22.3008 11.5073 21.0508 11.5073 19.5208C11.5073 18.2508 12.3673 17.1708 13.5373 16.8408V7.76079C13.0773 7.63079 12.6673 7.39078 12.3173 7.05078C11.7873 6.52078 11.5073 5.83078 11.5073 5.08078C11.5073 3.55078 12.7573 2.30078 14.2873 2.30078C14.9773 2.30078 15.6273 2.56078 16.1273 3.00078C16.6273 2.56078 17.2773 2.30078 17.9573 2.30078C18.6973 2.30078 19.3973 2.59078 19.9173 3.11078C20.4373 3.63078 20.7273 4.33078 20.7273 5.08078C20.7273 5.82078 20.4373 6.52078 19.9173 7.05078C19.5773 7.39078 19.1573 7.64079 18.6973 7.76079V16.8408C19.8673 17.1708 20.7273 18.2408 20.7273 19.5208C20.7273 21.0508 19.4773 22.3008 17.9473 22.3008H17.9673ZM16.1273 19.6208C16.4173 19.6208 16.6873 19.7908 16.8073 20.0508C17.0173 20.5108 17.4673 20.7908 17.9673 20.7908C18.6773 20.7908 19.2473 20.2108 19.2473 19.5108C19.2473 18.8008 18.6773 18.2308 17.9673 18.2308C17.5573 18.2308 17.2173 17.8908 17.2173 17.4808V7.10078C17.2173 6.90078 17.2973 6.71079 17.4373 6.57079C17.5773 6.43079 17.7673 6.35078 17.9673 6.35078C18.3073 6.35078 18.6273 6.22077 18.8673 5.98077C19.1073 5.74077 19.2473 5.42079 19.2373 5.07079C19.2373 4.73079 19.1073 4.41078 18.8673 4.16078C18.6273 3.92078 18.3073 3.79079 17.9673 3.79079C17.4773 3.79079 17.0173 4.08078 16.8073 4.53078C16.6873 4.79078 16.4173 4.96078 16.1273 4.96078C15.8373 4.96078 15.5673 4.79078 15.4473 4.53078C15.2373 4.08078 14.7873 3.79079 14.2873 3.79079C13.5773 3.79079 13.0073 4.36079 13.0073 5.07079C13.0073 5.41079 13.1373 5.73077 13.3873 5.98077C13.6373 6.23077 13.9473 6.35078 14.2873 6.35078C14.4873 6.35078 14.6773 6.43079 14.8173 6.57079C14.9573 6.71079 15.0373 6.90078 15.0373 7.10078V17.4808C15.0373 17.8908 14.6973 18.2308 14.2873 18.2308C13.5773 18.2308 13.0073 18.8108 13.0073 19.5108C13.0073 20.2208 13.5873 20.7908 14.2873 20.7908C14.7773 20.7908 15.2373 20.5008 15.4473 20.0508C15.5673 19.7908 15.8373 19.6208 16.1273 19.6208Z" fill="#000000" />
<path d="M4.9974 14.3511C4.6774 14.3511 4.3874 14.1511 4.2774 13.8311C4.1574 13.4311 4.3774 13.0111 4.7674 12.8911C7.4174 12.0611 8.9574 12.0611 11.6374 12.8911C12.0374 13.0111 12.2574 13.4311 12.1274 13.8311C12.0074 14.2311 11.5874 14.4511 11.1874 14.3211C8.7974 13.5811 7.56739 13.5811 5.20739 14.3211C5.12739 14.3411 5.05739 14.3511 4.97739 14.3511H4.9974Z" fill="#000000" />
<path d="M6.50741 17.0908C6.18741 17.0908 5.89741 16.8908 5.78741 16.5708C5.66741 16.1708 5.88741 15.7508 6.27741 15.6308C7.76741 15.1608 8.63741 15.1608 10.1474 15.6308C10.5474 15.7508 10.7674 16.1708 10.6374 16.5708C10.5174 16.9708 10.0974 17.1908 9.69741 17.0608C8.48741 16.6908 7.90741 16.6808 6.71741 17.0608C6.64741 17.0808 6.56742 17.0908 6.48742 17.0908H6.50741Z" fill="#000000" />
<path d="M8.21729 7.54102C7.80729 7.54102 7.46729 7.21101 7.46729 6.80101C7.46729 6.38101 7.80729 6.04102 8.21729 6.04102C8.62729 6.04102 8.96729 6.38102 8.96729 6.79102C8.96729 7.20102 8.62729 7.54102 8.21729 7.54102Z" fill="#000000" />
</svg>