<svg width="24px"  height="24px"  viewBox="0 0 24 25" fill="none" xmlns="http://www.w3.org/2000/svg">
<path d="M6.91307 22.3002H4.95307C4.54307 22.3002 4.20307 21.9602 4.20307 21.5502C4.20307 21.1402 4.54307 20.8002 4.95307 20.8002H6.26308C6.43308 19.2902 6.22308 18.2801 6.00308 17.2301C5.70308 15.8001 5.39308 14.3102 6.15308 11.7702C6.23308 11.5002 6.19308 11.2702 6.04308 11.0602C5.85308 10.8002 5.50308 10.6301 5.15308 10.6301C4.40308 10.6301 3.72307 10.2901 3.23307 9.66014C2.69307 8.97014 2.43308 7.97017 2.61308 7.25017C2.69308 6.92017 2.99307 6.68016 3.34307 6.68016C3.62307 6.68016 3.92308 6.60016 4.15308 6.03016C4.77308 4.52016 6.01307 4.13015 6.89307 4.02015V3.05015C6.89307 2.80015 7.01308 2.57016 7.22308 2.43016C7.43308 2.29016 7.69307 2.26015 7.92307 2.36015C11.1031 3.67015 12.8531 6.05015 12.8531 9.05015C12.8531 9.93015 12.9931 10.0701 13.7031 10.3902C16.2831 11.5401 18.7131 15.0802 17.7631 21.5502C17.7031 21.9602 17.3231 22.2402 16.9131 22.1802C16.5031 22.1202 16.2231 21.7402 16.2831 21.3302C17.1031 15.6902 15.1731 12.6901 13.0931 11.7601C11.8031 11.1901 11.3531 10.4802 11.3531 9.05015C11.3531 6.97015 10.3531 5.36017 8.39307 4.25017V4.74016C8.39307 5.15016 8.05307 5.49016 7.64307 5.49016C6.46308 5.49016 5.87308 5.80015 5.54308 6.61015C5.23308 7.35015 4.73307 7.85014 4.09307 8.07014C4.14307 8.29014 4.24307 8.53016 4.41307 8.74016C4.61307 9.00016 4.86308 9.13014 5.15308 9.13014C5.96308 9.13014 6.76307 9.53014 7.24307 10.1601C7.68307 10.7501 7.80307 11.4701 7.59307 12.2001C6.94307 14.3801 7.19308 15.5601 7.47308 16.9201C7.72308 18.1401 8.01308 19.5201 7.65308 21.6701C7.59308 22.0301 7.28307 22.3002 6.91307 22.3002Z" fill="#000000" />
<path d="M13.2031 22.2799C13.1531 22.2799 13.1031 22.2799 13.0531 22.2599C11.8631 22.0199 10.7431 20.8599 10.3831 19.5099C10.1431 18.6099 10.0331 16.8399 12.0131 15.0899C12.3231 14.8199 12.7931 14.8499 13.0731 15.1599C13.3431 15.4699 13.3231 15.9399 13.0031 16.2199C11.9731 17.1299 11.5631 18.1399 11.8231 19.1299C12.0631 20.0199 12.8031 20.6899 13.3531 20.7999C13.7631 20.8799 14.0231 21.2799 13.9331 21.6799C13.8631 22.0399 13.5431 22.2799 13.2031 22.2799Z" fill="#000000" />
<path d="M9.96289 22.3002C9.55289 22.3002 9.21289 21.9602 9.21289 21.5502C9.21289 21.1402 9.55289 20.8002 9.96289 20.8002H18.0329C18.4729 20.7902 19.1429 20.5802 19.4629 20.0402C19.8629 19.3802 19.7229 18.3202 19.0629 16.9702C17.0529 12.8402 18.9329 9.76021 20.2129 8.71021C20.5329 8.45021 21.0029 8.49022 21.2729 8.81022C21.5329 9.13022 21.4929 9.60022 21.1729 9.87022C20.2129 10.6602 18.8229 13.0302 20.4229 16.3102C21.3229 18.1702 21.4429 19.6802 20.7529 20.8102C20.1229 21.8602 18.9429 22.2702 18.0629 22.3002H9.97289H9.96289Z" fill="#000000" />
<path d="M7.98291 8.39014C7.57291 8.39014 7.23291 8.05014 7.23291 7.64014C7.23291 7.23014 7.57291 6.89014 7.98291 6.89014C8.39291 6.89014 8.73291 7.22014 8.73291 7.64014C8.73291 8.06014 8.39291 8.40015 7.98291 8.40015V8.39014Z" fill="#000000" />
</svg>