<svg width="24px"  height="24px"  viewBox="0 0 24 25" fill="none" xmlns="http://www.w3.org/2000/svg">
<path d="M7.1628 22.1951C6.9628 22.1951 6.76279 22.1151 6.6228 21.9651C6.4828 21.8151 6.4028 21.6151 6.4128 21.4051C6.4928 19.8651 6.7028 18.1351 7.0528 16.1151C7.1828 15.3851 6.9328 14.9051 6.7028 14.6251C6.3828 14.2351 5.8928 14.0151 5.3628 14.0151C4.4028 14.0151 3.5228 13.5651 2.8928 12.7651C2.1828 11.8551 1.84281 10.5651 2.07281 9.62514C2.15281 9.29514 2.4528 9.05513 2.8028 9.05513C3.2628 9.05513 3.84281 8.92515 4.24281 7.94515C5.12281 5.80515 6.97281 5.36512 8.1328 5.26512V3.15514C8.1328 2.90514 8.25281 2.67513 8.46281 2.53513C8.67281 2.39513 8.9328 2.36514 9.1628 2.46514C13.4028 4.22514 15.9428 7.81512 15.9428 12.0751V13.3651C15.9428 14.0051 16.5028 14.5151 17.0628 14.7351C18.9028 15.4751 20.7728 16.5151 21.9328 19.1551C22.1028 19.5351 21.9328 19.9751 21.5528 20.1451C21.1728 20.3151 20.7328 20.1451 20.5628 19.7651C19.6728 17.7351 18.3528 16.8751 16.5128 16.1351C15.2528 15.6351 14.4428 14.5451 14.4428 13.3751V12.0851C14.4428 8.80513 12.6628 5.98514 9.6328 4.34514V5.99514C9.6328 6.40514 9.2928 6.74514 8.8828 6.74514C7.0828 6.74514 6.1428 7.25512 5.6228 8.51512C5.1028 9.78512 4.27279 10.2951 3.51279 10.4751C3.56279 10.8951 3.75281 11.4251 4.07281 11.8351C4.42281 12.2851 4.8628 12.5151 5.3628 12.5151C6.3328 12.5151 7.24281 12.9351 7.85281 13.6551C8.47281 14.3851 8.7128 15.3551 8.5328 16.3651C8.2528 17.9651 8.06281 19.3651 7.96281 20.6351C9.78281 20.4451 12.7328 19.7151 14.6828 17.8551C14.9828 17.5651 15.4528 17.5851 15.7428 17.8851C16.0328 18.1851 16.0128 18.6651 15.7128 18.9451C13.0928 21.4451 8.9728 22.1651 7.1728 22.1951H7.1628Z" fill="#000000" />
<path d="M8.28271 10.0754C7.87271 10.0754 7.53271 9.73541 7.53271 9.32541C7.53271 8.91541 7.87271 8.56543 8.28271 8.56543C8.69271 8.56543 9.03271 8.89542 9.03271 9.30542C9.03271 9.73542 8.69271 10.0654 8.28271 10.0654V10.0754Z" fill="#000000" />
</svg>