<svg width="24px"  height="24px"  viewBox="0 0 24 25" fill="none" xmlns="http://www.w3.org/2000/svg">
<path d="M12 12.3905C7.03 12.3905 2 11.0405 2 8.47054C2 5.90054 7.03 4.55054 12 4.55054C16.97 4.55054 22 5.90054 22 8.47054C22 11.0405 16.97 12.3905 12 12.3905ZM12 6.05054C6.89 6.05054 3.5 7.51054 3.5 8.47054C3.5 9.43054 6.89 10.8905 12 10.8905C17.11 10.8905 20.5 9.43054 20.5 8.47054C20.5 7.51054 17.11 6.05054 12 6.05054Z" fill="#000000" />
<path d="M12 20.0508C6.31002 20.0508 3.22001 18.7108 2.84001 16.0708L2.01001 8.76081L3.50002 8.59081L4.33002 15.8808C4.67002 18.2008 9.28001 18.5508 12 18.5508C14.72 18.5508 19.34 18.2008 19.68 15.8508L20.51 8.58081L22 8.75081L21.17 16.0408C20.78 18.7108 17.7 20.0408 12 20.0408V20.0508Z" fill="#000000" />
</svg>