<svg width="24px"  height="24px"  viewBox="0 0 24 25" fill="none" xmlns="http://www.w3.org/2000/svg">
<path d="M20.97 14.5957H3.02002C2.61002 14.5957 2.27002 14.2557 2.27002 13.8457C2.27002 13.4357 2.61002 13.0957 3.02002 13.0957H20.97C21.38 13.0957 21.72 13.4357 21.72 13.8457C21.72 14.2557 21.38 14.5957 20.97 14.5957Z" fill="#000000" />
<path d="M15.0799 7.93546C14.6699 7.93546 14.3299 7.59546 14.3299 7.18546V5.64546C14.3299 5.21546 13.9799 4.85547 13.5399 4.85547H10.4699C10.0399 4.85547 9.67993 5.20546 9.67993 5.64546V7.18546C9.67993 7.59546 9.33993 7.93546 8.92993 7.93546C8.51993 7.93546 8.17993 7.59546 8.17993 7.18546V5.64546C8.17993 4.38546 9.20994 3.35547 10.4699 3.35547H13.5399C14.7999 3.35547 15.8299 4.38546 15.8299 5.64546V7.18546C15.8299 7.59546 15.4899 7.93546 15.0799 7.93546Z" fill="#000000" />
<path d="M12 14.5956C11.59 14.5956 11.25 14.2556 11.25 13.8456V7.18555C11.25 6.77555 11.59 6.43555 12 6.43555C12.41 6.43555 12.75 6.77555 12.75 7.18555V13.8456C12.75 14.2556 12.41 14.5956 12 14.5956Z" fill="#000000" />
<path d="M16.71 14.5956C16.35 14.5956 16.03 14.3256 15.97 13.9556L14.95 7.29559C14.89 6.88559 15.17 6.50559 15.58 6.44559C15.98 6.38559 16.37 6.66559 16.43 7.07559L17.45 13.7356C17.51 14.1456 17.23 14.5256 16.82 14.5856C16.78 14.5856 16.74 14.5856 16.71 14.5856V14.5956Z" fill="#000000" />
<path d="M7.30008 14.5954C7.30008 14.5954 7.2201 14.5954 7.1901 14.5954C6.7801 14.5354 6.50009 14.1454 6.56009 13.7454L7.58008 7.08535C7.64008 6.67535 8.03009 6.39536 8.43009 6.45536C8.84009 6.51536 9.12009 6.90536 9.06009 7.30536L8.0401 13.9654C7.9801 14.3354 7.66008 14.6054 7.30008 14.6054V14.5954Z" fill="#000000" />
<path d="M17.58 21.246H6.42006C5.18006 21.246 4.11005 20.456 3.75005 19.266L2.42006 14.956C2.19006 14.216 2.19006 13.446 2.42006 12.706L3.75005 8.39601C4.11005 7.21601 5.19006 6.41602 6.42006 6.41602H17.58C18.82 6.41602 19.89 7.20601 20.25 8.39601L21.58 12.706C21.81 13.446 21.81 14.216 21.58 14.956L20.25 19.266C19.89 20.446 18.81 21.246 17.58 21.246ZM6.42006 7.92602C5.85006 7.92602 5.35004 8.29602 5.18004 8.84602L3.85005 13.156C3.71005 13.606 3.71005 14.076 3.85005 14.526L5.18004 18.836C5.35004 19.386 5.85006 19.756 6.42006 19.756H17.58C18.15 19.756 18.6501 19.386 18.8201 18.836L20.15 14.526C20.29 14.076 20.29 13.606 20.15 13.156L18.8201 8.84602C18.6501 8.29602 18.15 7.92602 17.58 7.92602H6.42006Z" fill="#000000" />
</svg>