<svg width="24px"  height="24px"  viewBox="0 0 24 25" fill="none" xmlns="http://www.w3.org/2000/svg">
<path d="M14.2894 22.1104H9.18945C8.77945 22.1104 8.43945 21.7704 8.43945 21.3604C8.43945 20.9504 8.77945 20.6104 9.18945 20.6104H14.2894C14.6994 20.6104 15.0394 20.9504 15.0394 21.3604C15.0394 21.7704 14.6994 22.1104 14.2894 22.1104Z" fill="#000000" />
<path d="M6.99936 22.29C6.99936 22.29 6.90936 22.29 6.86936 22.28C5.28936 22 4.10931 21.02 3.63931 19.59C3.10931 17.98 3.57933 16.08 4.83933 14.74C5.11933 14.44 5.59932 14.42 5.89932 14.71C6.19932 14.99 6.21935 15.47 5.92935 15.77C5.03935 16.72 4.69936 18.03 5.05936 19.12C5.24936 19.71 5.63934 20.17 6.16934 20.47C6.08934 18.32 6.35931 14.85 8.56931 12.58C8.93931 12.2 9.29936 11.87 9.61936 11.56C10.4194 10.81 10.9993 10.27 11.1293 9.65004C11.2093 9.24004 11.6193 8.99004 12.0193 9.07004C12.4293 9.16004 12.6793 9.55004 12.5993 9.96004C12.3693 11.04 11.5693 11.79 10.6493 12.66C10.3393 12.95 9.99932 13.27 9.64932 13.63C7.41932 15.92 7.57936 19.88 7.74936 21.47C7.76936 21.7 7.68931 21.94 7.50931 22.1C7.36931 22.23 7.18936 22.3 6.99936 22.3V22.29Z" fill="#000000" />
<path d="M12.3892 21.92C12.2192 21.92 12.0392 21.8599 11.8992 21.7399C11.5892 21.4699 11.5492 20.9999 11.8192 20.6799C12.8492 19.4799 12.7392 18.01 12.3192 17.11C11.9892 16.38 11.4492 15.9399 10.8892 15.9399C10.4792 15.9399 10.1392 15.5999 10.1392 15.1899C10.1392 14.7799 10.4792 14.4399 10.8892 14.4399C12.0592 14.4399 13.0992 15.1999 13.6792 16.4799C14.4692 18.1999 14.1792 20.2299 12.9492 21.6599C12.7992 21.8299 12.5892 21.92 12.3792 21.92H12.3892Z" fill="#000000" />
<path d="M19.0094 22.1699H17.0495C16.6595 22.1699 16.3295 21.8699 16.2995 21.4799C16.2695 21.1099 16.1994 20.7799 16.1294 20.4299C15.9094 19.2999 15.6395 17.8999 16.3095 15.1199C16.8195 12.9899 16.5895 11.7399 16.1895 9.66987L16.0994 9.16987C16.0594 8.94987 16.1194 8.71986 16.2594 8.54986C16.3994 8.37986 16.6094 8.27987 16.8394 8.27987H18.5094C19.3894 8.27987 19.7395 7.34986 19.8695 6.73986L17.8994 5.75987C17.7194 5.66987 17.5794 5.50987 17.5194 5.30987L17.4594 5.10987C17.2994 4.49987 17.1294 4.08986 16.3294 3.98986L15.2294 3.81987C13.9394 3.62987 13.0694 4.22987 12.5894 5.66987C11.8094 7.97987 12.1594 8.84987 12.2894 9.06987C12.3694 9.20987 12.4494 9.24987 12.4794 9.24987C12.9694 9.33987 13.1594 9.20987 13.2694 9.10987C13.7894 8.61987 13.8694 7.12987 13.7194 5.95987C13.6694 5.54987 13.9595 5.16987 14.3695 5.11987C14.7695 5.06987 15.1594 5.35986 15.2094 5.76986C15.3294 6.72986 15.4895 9.07987 14.2995 10.1999C13.9295 10.5499 13.2795 10.9199 12.2495 10.7299C11.7895 10.6699 11.3294 10.3599 11.0294 9.87986C10.4094 8.88986 10.4594 7.30987 11.1694 5.19987C11.8794 3.08987 13.4394 2.05986 15.4494 2.34986L16.5294 2.51986C18.2194 2.72986 18.6794 3.95987 18.8594 4.58987L21.0194 5.65986C21.2894 5.79986 21.4595 6.08987 21.4295 6.38987C21.2895 8.07987 20.3295 9.78987 18.4995 9.78987H17.7294C18.0994 11.7699 18.3094 13.1899 17.7594 15.4799C17.1594 17.9399 17.3794 19.0599 17.5894 20.1499C17.6194 20.3199 17.6595 20.4999 17.6895 20.6799H18.9895C19.3995 20.6799 19.7395 21.0199 19.7395 21.4299C19.7395 21.8399 19.3995 22.1799 18.9895 22.1799L19.0094 22.1699Z" fill="#000000" />
<path d="M15.8193 13.5001C13.4693 13.5001 11.1993 12.4001 10.0993 11.6101C9.75934 11.3701 9.67935 10.9 9.91935 10.56C10.1594 10.22 10.6293 10.14 10.9693 10.38C11.9993 11.11 15.2194 12.75 17.8094 11.6C18.1894 11.43 18.6294 11.6 18.7994 11.98C18.9694 12.36 18.7994 12.8 18.4194 12.97C17.5794 13.34 16.6993 13.49 15.8293 13.49L15.8193 13.5001Z" fill="#000000" />
<path d="M3.31939 9.98008C3.31939 9.98008 3.27939 9.98008 3.25939 9.98008C2.84939 9.95008 2.53939 9.58008 2.56939 9.17008C2.68939 7.70008 3.32939 6.32007 4.37939 5.27007C5.42939 4.22007 6.80941 3.58007 8.27941 3.46007C8.67941 3.43007 9.05941 3.73008 9.08941 4.15008C9.12941 4.56008 8.81942 4.93007 8.40942 4.96007C7.28942 5.05007 6.23939 5.54007 5.44939 6.33007C4.65939 7.12007 4.1694 8.17008 4.0794 9.29008C4.0494 9.68008 3.7194 9.98008 3.3294 9.98008H3.31939Z" fill="#000000" />
<path d="M5.81915 10.2698C5.81915 10.2698 5.77915 10.2698 5.75915 10.2698C5.34915 10.2398 5.03916 9.86984 5.07916 9.45984C5.15916 8.55984 5.5492 7.71984 6.1792 7.07984C6.8192 6.43984 7.6692 6.04984 8.5592 5.96984C8.9892 5.93984 9.3392 6.23984 9.3692 6.65984C9.3992 7.07984 9.09921 7.43984 8.68921 7.46984C8.14921 7.50984 7.62919 7.74985 7.23919 8.13985C6.84919 8.52985 6.61915 9.03985 6.56915 9.58985C6.53915 9.97985 6.20915 10.2799 5.81915 10.2799V10.2698Z" fill="#000000" />
<path d="M8.20929 10.75C8.20929 10.75 8.16929 10.75 8.14929 10.75C7.73929 10.71 7.4293 10.35 7.4693 9.93996C7.4993 9.52996 7.6793 9.13998 7.9693 8.85998C8.2593 8.56998 8.63931 8.38998 9.04931 8.35998C9.47931 8.32998 9.82931 8.62996 9.85931 9.04996C9.88931 9.45996 9.58931 9.81998 9.16931 9.85998C9.11931 9.85998 9.05929 9.88997 9.02929 9.92997C8.98929 9.96997 8.95929 10.02 8.95929 10.08C8.92929 10.47 8.59929 10.77 8.20929 10.77V10.75Z" fill="#000000" />
</svg>