<svg width="24px"  height="24px"  viewBox="0 0 24 25" fill="none" xmlns="http://www.w3.org/2000/svg">
<path d="M10.3667 8.46825C9.9567 8.46825 9.6167 8.12825 9.6167 7.71825C9.6167 7.30825 9.9567 6.95825 10.3667 6.95825C10.7767 6.95825 11.1167 7.28825 11.1167 7.70825C11.1167 8.12825 10.7767 8.46825 10.3667 8.46825Z" fill="#000000" />
<path d="M21.2467 20.288C21.1267 20.288 21.0066 20.258 20.8966 20.198C18.9866 19.178 17.8266 17.248 17.4466 16.278C17.2966 15.888 17.4867 15.458 17.8667 15.308C18.2467 15.158 18.6866 15.348 18.8366 15.728C19.0666 16.318 20.0167 18.028 21.5967 18.878C21.9667 19.078 22.0967 19.528 21.9067 19.898C21.7667 20.148 21.5167 20.298 21.2467 20.298V20.288Z" fill="#000000" />
<path d="M11.6566 21.7384C10.6166 21.7384 9.67661 21.5884 8.96661 21.3684C8.74661 21.2984 8.56663 21.1384 8.48663 20.9184C8.40663 20.6984 8.42663 20.4584 8.54663 20.2584C9.75663 18.2784 10.0766 15.8584 9.81659 14.2384C9.20659 14.3684 8.20663 14.5184 6.54663 14.7084C5.50663 14.8284 4.56659 14.5484 3.81659 13.8984C2.15659 12.4584 2.01659 9.77843 2.00659 9.25843C2.00659 8.94843 2.17661 8.66843 2.46661 8.54843L6.58661 6.79843C6.59661 6.07843 6.81662 5.18842 7.40662 4.44842C7.86662 3.86842 8.7466 3.15842 10.3266 3.05842L12.4566 2.88842C15.7066 2.60842 18.2666 4.65842 19.2766 8.35842C21.1466 15.2184 17.6766 17.3384 17.5266 17.4284C17.4366 17.4784 17.3366 17.5084 17.2366 17.5284C15.6066 17.7284 14.6266 17.0984 14.0866 16.5284C12.1966 14.5184 12.8366 10.1984 13.0666 8.91842C13.1466 8.50842 13.5366 8.23843 13.9466 8.31843C14.3566 8.39843 14.6166 8.78842 14.5466 9.19842C14.1366 11.3584 14.0566 14.3084 15.1766 15.4984C15.5766 15.9284 16.1366 16.1084 16.8666 16.0484C17.3566 15.6584 19.1966 13.7984 17.8166 8.74842C16.6966 4.64842 14.0466 4.24843 12.5666 4.37843L10.4266 4.54843C9.58664 4.60843 8.96659 4.88843 8.56659 5.37843C8.06659 5.99843 8.03662 6.81843 8.09662 7.15843C8.14662 7.49843 7.96661 7.82842 7.64661 7.96842L3.53662 9.71842C3.64662 10.8484 4.05664 12.1184 4.80664 12.7584C5.23664 13.1284 5.74659 13.2784 6.37659 13.2084C9.15659 12.8884 9.8966 12.6784 10.0166 12.6384C10.1966 12.5484 10.4066 12.5284 10.5966 12.5884C10.8266 12.6584 11.0066 12.8384 11.0866 13.0684C11.6366 14.7684 11.5166 17.6084 10.3266 20.1184C11.5266 20.2984 13.2666 20.2984 14.8766 19.5784C15.2566 19.4084 15.6966 19.5784 15.8666 19.9584C16.0366 20.3384 15.8666 20.7784 15.4866 20.9484C14.2266 21.5184 12.8766 21.7284 11.6666 21.7284L11.6566 21.7384Z" fill="#000000" />
</svg>