<svg width="24px"  height="24px"  viewBox="0 0 24 25" fill="none" xmlns="http://www.w3.org/2000/svg">
<path d="M10.3677 8.46947C9.95768 8.46947 9.61768 8.12947 9.61768 7.71947C9.61768 7.30947 9.95768 6.95947 10.3677 6.95947C10.7777 6.95947 11.1177 7.28947 11.1177 7.70947C11.1177 8.12947 10.7777 8.46947 10.3677 8.46947Z" fill="#000000" />
<path d="M21.2476 20.2892C21.1276 20.2892 21.0076 20.2592 20.8976 20.1992C18.9876 19.1792 17.8276 17.2492 17.4476 16.2792C17.2976 15.8892 17.4876 15.4592 17.8676 15.3092C18.2476 15.1592 18.6876 15.3492 18.8376 15.7292C19.0676 16.3192 20.0176 18.0292 21.5976 18.8792C21.9576 19.0792 22.0976 19.5292 21.9076 19.8992C21.7676 20.1492 21.5176 20.2992 21.2476 20.2992V20.2892Z" fill="#000000" />
<path d="M11.6576 21.7393C10.6176 21.7393 9.67758 21.5893 8.96758 21.3693C8.74758 21.2993 8.56758 21.1393 8.48758 20.9193C8.40758 20.6993 8.42758 20.4593 8.54758 20.2593C9.75758 18.2793 10.0776 15.8593 9.81758 14.2393C9.20758 14.3693 8.20758 14.5193 6.54758 14.7093C5.50758 14.8293 4.56758 14.5493 3.81758 13.8993C2.15758 12.4593 2.01757 9.77932 2.00757 9.25932C2.00757 8.94932 2.17758 8.66932 2.46758 8.54932L6.58757 6.79932C6.59757 6.07932 6.81758 5.18931 7.40758 4.44931C7.86758 3.86931 8.74758 3.15931 10.3276 3.05931L12.4576 2.88931C15.7076 2.59931 18.2676 4.65932 19.2776 8.35932C21.1476 15.2193 17.6776 17.3393 17.5276 17.4293C17.4376 17.4793 17.3376 17.5093 17.2376 17.5293C15.5976 17.7393 14.6276 17.0993 14.0876 16.5293C12.1976 14.5193 12.8376 10.1993 13.0776 8.91931C13.1576 8.50931 13.5476 8.23932 13.9576 8.31932C14.3676 8.39932 14.6276 8.78931 14.5576 9.19931C14.1476 11.3593 14.0676 14.3093 15.1876 15.4993C15.5876 15.9293 16.1476 16.1093 16.8776 16.0493C17.3676 15.6593 19.2076 13.7993 17.8276 8.74931C16.7076 4.64931 14.0576 4.24932 12.5776 4.37932L10.4376 4.54932C9.59758 4.60932 8.97758 4.88932 8.57758 5.37932C8.07758 5.99932 8.04757 6.81932 8.10757 7.15932C8.15757 7.49932 7.97758 7.82932 7.65758 7.96932L3.54758 9.71932C3.65758 10.8493 4.06758 12.1193 4.81758 12.7593C5.24758 13.1293 5.75757 13.2793 6.38757 13.2093C9.15757 12.8893 9.90757 12.6793 10.0276 12.6393C10.2076 12.5493 10.4176 12.5193 10.6076 12.5893C10.8376 12.6593 11.0176 12.8393 11.0976 13.0693C11.6476 14.7693 11.5276 17.6093 10.3376 20.1193C11.5376 20.2993 13.2776 20.2993 14.8876 19.5793C15.2676 19.4093 15.7076 19.5793 15.8776 19.9593C16.0476 20.3393 15.8776 20.7793 15.4976 20.9493C14.2376 21.5093 12.8876 21.7193 11.6776 21.7193L11.6576 21.7393Z" fill="#000000" />
<path d="M3.24756 12.2097C2.85756 12.2097 2.52756 11.8997 2.49756 11.5097C2.46756 11.0997 2.78755 10.7397 3.19755 10.7097C3.94755 10.6597 4.49756 10.1097 4.74756 9.64974C4.96756 9.22974 5.01756 8.80974 4.85756 8.53974C4.64756 8.17974 4.77755 7.71974 5.13755 7.51974C5.49755 7.30974 5.95756 7.43973 6.15756 7.79973C6.57756 8.52973 6.53756 9.48974 6.06756 10.3697C5.49756 11.4397 4.42756 12.1397 3.29756 12.2097C3.27756 12.2097 3.26755 12.2097 3.24756 12.2097Z" fill="#000000" />
</svg>