<svg width="24px"  height="24px"  viewBox="0 0 24 25" fill="none" xmlns="http://www.w3.org/2000/svg">
<path d="M15.4341 17.6256C14.6541 17.6256 13.9841 17.1556 13.6941 16.4756H10.3241C10.2341 16.6956 10.0941 16.8956 9.92408 17.0656C9.56408 17.4256 9.09408 17.6256 8.58408 17.6256C7.53408 17.6256 6.68408 16.7756 6.68408 15.7256C6.68408 15.3556 6.79408 14.9956 6.99408 14.6856C6.79408 14.3856 6.68408 14.0256 6.68408 13.6456C6.68408 12.5956 7.53408 11.7456 8.58408 11.7456C9.09408 11.7456 9.56408 11.9456 9.92408 12.3056C10.0941 12.4756 10.2341 12.6756 10.3241 12.8956H13.6941C13.9841 12.2256 14.6541 11.7456 15.4341 11.7456C16.4841 11.7456 17.3341 12.5956 17.3341 13.6456C17.3341 14.0156 17.2241 14.3756 17.0241 14.6856C17.2241 14.9856 17.3341 15.3456 17.3341 15.7256C17.3341 16.7756 16.4841 17.6256 15.4341 17.6256ZM14.2841 14.9756C14.4841 14.9756 14.6741 15.0556 14.8141 15.1956C14.9541 15.3356 15.0341 15.5256 15.0341 15.7256C15.0341 15.9456 15.2141 16.1256 15.4341 16.1256C15.6541 16.1256 15.8341 15.9456 15.8341 15.7256C15.8341 15.5456 15.7141 15.4156 15.6041 15.3656C15.3441 15.2456 15.1741 14.9756 15.1741 14.6856C15.1741 14.3956 15.3441 14.1256 15.6041 14.0056C15.7141 13.9556 15.8341 13.8356 15.8341 13.6456C15.8341 13.4256 15.6541 13.2456 15.4341 13.2456C15.2141 13.2456 15.0341 13.4256 15.0341 13.6456C15.0341 14.0556 14.6941 14.3956 14.2841 14.3956H9.72408C9.52408 14.3956 9.33408 14.3156 9.19408 14.1756C9.05408 14.0356 8.97408 13.8456 8.97408 13.6456C8.97408 13.5356 8.93408 13.4356 8.85408 13.3656C8.62408 13.1356 8.17408 13.3156 8.17408 13.6456C8.17408 13.8256 8.29408 13.9456 8.40408 14.0056C8.66408 14.1256 8.83408 14.3956 8.83408 14.6856C8.83408 14.9756 8.66408 15.2456 8.40408 15.3656C8.29408 15.4156 8.17408 15.5356 8.17408 15.7256C8.17408 16.0456 8.62408 16.2356 8.85408 16.0056C8.92408 15.9356 8.97408 15.8356 8.97408 15.7256C8.97408 15.5256 9.05408 15.3356 9.19408 15.1956C9.33408 15.0556 9.52408 14.9756 9.72408 14.9756H14.2841Z" fill="#000000" />
<path d="M12.0041 11.1958C7.40414 11.1958 2.74414 9.98577 2.74414 7.67577C2.74414 5.36577 7.40414 4.15576 12.0041 4.15576C16.6041 4.15576 21.2641 5.36577 21.2641 7.67577C21.2641 9.98577 16.6041 11.1958 12.0041 11.1958ZM12.0041 5.66576C6.88414 5.66576 4.24414 7.07576 4.24414 7.68576C4.24414 8.29576 6.88414 9.70576 12.0041 9.70576C17.1241 9.70576 19.7641 8.29576 19.7641 7.68576C19.7641 7.07576 17.1241 5.66576 12.0041 5.66576Z" fill="#000000" />
<path d="M12.0041 20.446C8.80413 20.446 4.56413 19.606 2.82413 17.766C2.25413 17.166 1.97413 16.466 2.00413 15.746L2.74413 7.67602L4.23414 7.81602L3.49413 15.856C3.48413 16.136 3.61413 16.426 3.90413 16.736C5.09413 17.996 8.57413 18.946 11.9941 18.946C15.4141 18.946 18.8941 17.996 20.0841 16.736C20.3741 16.426 20.5041 16.136 20.4941 15.826L19.7641 7.80602L21.2541 7.66602L21.9941 15.706C22.0341 16.446 21.7541 17.146 21.1841 17.756C19.4441 19.596 15.2041 20.436 12.0041 20.436V20.446Z" fill="#000000" />
</svg>