<svg width="24px"  height="24px"  viewBox="0 0 24 25" fill="none" xmlns="http://www.w3.org/2000/svg">
<path d="M6.80842 22.0307C6.57842 22.0307 6.34842 21.9206 6.19842 21.7206C4.15842 18.9406 6.49842 15.9507 8.56842 13.3107C9.55842 12.0407 10.5884 10.7307 11.0784 9.53066C11.2384 9.15066 11.6684 8.96066 12.0584 9.12066C12.4384 9.28066 12.6284 9.71065 12.4684 10.1007C11.9084 11.4907 10.8084 12.8807 9.75842 14.2407C7.51842 17.1007 6.14842 19.1007 7.41842 20.8407C7.65842 21.1707 7.58842 21.6406 7.25842 21.8906C7.12842 21.9906 6.96842 22.0407 6.81842 22.0407L6.80842 22.0307Z" fill="#000000" />
<path d="M12.4083 22.1904H7.2983C6.3683 22.1904 5.6083 22.0104 4.9883 21.6304C3.4883 20.7304 2.7583 19.3404 2.7583 17.3904C2.7583 16.9804 3.0983 16.6404 3.5083 16.6404C3.9183 16.6404 4.2583 16.9804 4.2583 17.3904C4.2583 19.2004 5.0183 19.9004 5.7583 20.3504C6.1483 20.5804 6.6483 20.7004 7.2983 20.7004H12.4083C12.8183 20.7004 13.1583 21.0404 13.1583 21.4504C13.1583 21.8604 12.8183 22.2004 12.4083 22.2004V22.1904Z" fill="#000000" />
<path d="M17.1883 21.9807H15.5883C15.3683 21.9807 15.1583 21.8807 15.0183 21.7107C14.8783 21.5407 14.8183 21.3207 14.8483 21.1007C15.3283 18.1907 15.1183 16.2007 14.9383 14.4407C14.7383 12.5507 14.5483 10.7607 15.2983 8.38072C15.3783 8.14072 15.5683 7.96071 15.8083 7.89071C15.9983 7.83071 16.2083 7.86073 16.3783 7.95073C16.4683 7.98073 16.9283 8.12072 18.3483 8.37072C18.6083 8.42072 18.8183 8.37073 18.9983 8.23073C19.3183 7.98073 19.5383 7.47073 19.6583 6.98073L17.5983 5.96072C17.3483 5.83072 17.1783 5.57072 17.1783 5.29072C17.1783 5.04072 17.0883 4.22072 15.9183 4.07072L15.0183 3.95073C13.6583 3.75073 12.7483 4.38072 12.2483 5.88072L11.3883 8.76072C11.8283 8.85072 12.3683 8.88071 12.7583 8.64071C13.1783 8.39071 13.4183 7.82072 13.4783 6.96072C13.5083 6.55072 13.8783 6.24072 14.2783 6.26072C14.6883 6.29072 15.0083 6.64073 14.9783 7.06073C14.8883 8.44073 14.3983 9.41072 13.5383 9.93072C12.1283 10.7807 10.3583 10.0307 10.1583 9.93072C9.81831 9.78072 9.63831 9.39073 9.74831 9.03073L10.8283 5.41072C11.5683 3.22072 13.1683 2.15073 15.2383 2.45073L16.1283 2.57072C17.6583 2.76072 18.4583 3.76072 18.6483 4.79072L20.8283 5.87072C21.0983 6.01072 21.2683 6.30072 21.2383 6.60072C21.1583 7.53072 20.7783 8.75072 19.9283 9.40072C19.4083 9.80072 18.7783 9.95072 18.0983 9.83072C17.3983 9.71072 16.9083 9.61073 16.5483 9.53073C16.1283 11.2507 16.2683 12.6007 16.4483 14.2707C16.6283 15.9407 16.8283 17.8207 16.4783 20.4607H17.2083C17.6183 20.4607 17.9583 20.8007 17.9583 21.2107C17.9583 21.6207 17.6183 21.9607 17.2083 21.9607L17.1883 21.9807Z" fill="#000000" />
<path d="M14.2382 13.7807C12.3982 13.7807 10.6382 12.9307 9.69823 12.2607C9.35823 12.0207 9.27823 11.5507 9.51823 11.2107C9.75823 10.8707 10.2282 10.7907 10.5682 11.0307C11.3482 11.5807 13.7882 12.8307 15.7382 11.9707C16.1182 11.8007 16.5582 11.9707 16.7282 12.3507C16.8982 12.7307 16.7282 13.1707 16.3482 13.3407C15.6582 13.6507 14.9382 13.7707 14.2382 13.7707V13.7807Z" fill="#000000" />
<path d="M10.7284 22.1508C10.5484 22.1508 10.3684 22.0908 10.2284 21.9608C9.9184 21.6808 9.8984 21.2108 10.1784 20.9008C10.6184 20.4108 10.7884 19.7708 10.6484 19.1308C10.5384 18.6408 10.2584 18.2408 9.9184 18.1008C9.5384 17.9408 9.3584 17.5008 9.5184 17.1208C9.6784 16.7408 10.1184 16.5608 10.4984 16.7208C11.2884 17.0508 11.8884 17.8308 12.1084 18.8108C12.3584 19.9308 12.0584 21.0608 11.2884 21.9108C11.1384 22.0708 10.9384 22.1608 10.7284 22.1608V22.1508Z" fill="#000000" />
<path d="M15.7083 6.41089C15.2983 6.41089 14.9583 6.07089 14.9583 5.66089C14.9583 5.25089 15.2983 4.91089 15.7083 4.91089C16.1183 4.91089 16.4583 5.24089 16.4583 5.66089C16.4583 6.08089 16.1183 6.4209 15.7083 6.4209V6.41089Z" fill="#000000" />
</svg>