<svg width="24px"  height="24px"  viewBox="0 0 24 25" fill="none" xmlns="http://www.w3.org/2000/svg">
<path d="M20.0001 20.7205C19.6401 20.7205 19.3301 20.4605 19.2601 20.1005L18.5101 15.8205C18.4201 15.1805 17.89 14.7205 17.27 14.7205H6.74004C6.12004 14.7205 5.59005 15.1805 5.50005 15.7905L4.74004 20.1005C4.67004 20.5105 4.28005 20.7805 3.87005 20.7105C3.46005 20.6405 3.19006 20.2505 3.26006 19.8405L4.01006 15.5605C4.20006 14.2405 5.37006 13.2205 6.73006 13.2205H17.2601C18.6201 13.2205 19.7901 14.2405 19.9801 15.5805L20.7301 19.8405C20.8001 20.2505 20.53 20.6405 20.12 20.7105C20.08 20.7105 20.03 20.7205 19.99 20.7205H20.0001Z" fill="#000000" />
<path d="M21 20.7205H3C2.59 20.7205 2.25 20.3805 2.25 19.9705C2.25 19.5605 2.59 19.2205 3 19.2205H21C21.41 19.2205 21.75 19.5605 21.75 19.9705C21.75 20.3805 21.41 20.7205 21 20.7205Z" fill="#000000" />
<path d="M16.7299 11.4001C15.7099 11.4001 14.8299 10.7401 14.5199 9.82013H9.47995C9.36995 10.1501 9.17995 10.4601 8.91995 10.7201C8.47995 11.1601 7.88993 11.4001 7.26993 11.4001C6.64993 11.4001 6.05993 11.1601 5.61993 10.7201C5.17993 10.2801 4.93994 9.69013 4.93994 9.07013C4.93994 8.54013 5.11994 8.04013 5.43994 7.64013C5.11994 7.24013 4.93994 6.73013 4.93994 6.21013C4.93994 4.92013 5.98993 3.88013 7.26993 3.88013C7.88993 3.88013 8.47995 4.12013 8.91995 4.56013C9.17995 4.82013 9.36995 5.12013 9.47995 5.46013H14.5199C14.8299 4.54013 15.7099 3.88013 16.7299 3.88013C18.0199 3.88013 19.0599 4.93013 19.0599 6.21013C19.0599 6.74013 18.8799 7.24013 18.5599 7.64013C18.8699 8.04013 19.0599 8.54013 19.0599 9.07013C19.0599 10.3601 18.0099 11.4001 16.7299 11.4001ZM8.84995 8.32013H15.14C15.55 8.32013 15.89 8.66013 15.89 9.07013C15.89 9.53013 16.2599 9.90013 16.7199 9.90013C17.1799 9.90013 17.5499 9.53013 17.5499 9.07013C17.5499 8.75013 17.3599 8.46013 17.0699 8.32013C16.8099 8.20013 16.64 7.93013 16.64 7.64013C16.64 7.35013 16.8099 7.08013 17.0699 6.96013C17.3599 6.82013 17.5499 6.53013 17.5499 6.21013C17.5499 5.75013 17.1799 5.38013 16.7199 5.38013C16.2599 5.38013 15.89 5.75013 15.89 6.21013C15.89 6.62013 15.55 6.96013 15.14 6.96013H8.84995C8.64995 6.96013 8.45995 6.88013 8.31995 6.74013C8.17995 6.60013 8.09995 6.41013 8.09995 6.21013C8.09995 5.99013 8.00995 5.78013 7.85995 5.62013C7.70995 5.46013 7.48993 5.38013 7.26993 5.38013C6.80993 5.38013 6.43994 5.75013 6.43994 6.21013C6.43994 6.53013 6.62995 6.82013 6.91995 6.96013C7.17995 7.08013 7.34995 7.35013 7.34995 7.64013C7.34995 7.93013 7.17995 8.20013 6.91995 8.32013C6.62995 8.46013 6.43994 8.75013 6.43994 9.07013C6.43994 9.29013 6.52993 9.50013 6.67993 9.66013C6.82993 9.82013 7.04993 9.90013 7.26993 9.90013C7.48993 9.90013 7.69995 9.81013 7.85995 9.66013C8.01995 9.51013 8.09995 9.29013 8.09995 9.07013C8.09995 8.87013 8.17995 8.68013 8.31995 8.54013C8.45995 8.40013 8.64995 8.32013 8.84995 8.32013Z" fill="#000000" />
</svg>