<svg width="24px"  height="24px"  viewBox="0 0 24 25" fill="none" xmlns="http://www.w3.org/2000/svg">
<path d="M20.0001 20.0295C19.6401 20.0295 19.3301 19.7695 19.2601 19.4095L18.5101 15.1295C18.4201 14.4895 17.8901 14.0295 17.2701 14.0295H6.74007C6.12007 14.0295 5.59007 14.4895 5.50007 15.0995L4.74007 19.4095C4.67007 19.8195 4.28006 20.0895 3.87006 20.0195C3.46006 19.9495 3.19006 19.5595 3.26006 19.1495L4.01006 14.8695C4.20006 13.5495 5.37006 12.5295 6.73006 12.5295H17.2601C18.6201 12.5295 19.7901 13.5495 19.9801 14.8895L20.7301 19.1495C20.8001 19.5595 20.5301 19.9495 20.1201 20.0195C20.0801 20.0195 20.0301 20.0295 19.9901 20.0295H20.0001Z" fill="#000000" />
<path d="M21 20.0295H3C2.59 20.0295 2.25 19.6895 2.25 19.2795C2.25 18.8695 2.59 18.5295 3 18.5295H21C21.41 18.5295 21.75 18.8695 21.75 19.2795C21.75 19.6895 21.41 20.0295 21 20.0295Z" fill="#000000" />
<path d="M17.72 14.029C17.55 14.029 17.38 13.969 17.24 13.849C16.92 13.579 16.88 13.109 17.15 12.789C17.77 12.059 17.7 10.999 17.32 10.319C17.14 10.009 16.74 9.499 16.01 9.619C14.48 9.959 13.76 9.399 13.19 8.949C12.75 8.599 12.43 8.349 11.58 8.399C10.98 8.429 10.61 8.689 10.19 8.989C9.66001 9.359 9.01001 9.819 7.99001 9.609C7.41001 9.429 7.00001 9.629 6.70001 10.179C6.28001 10.939 6.25001 12.159 6.89001 12.699C7.20001 12.969 7.24001 13.439 6.97001 13.759C6.70001 14.069 6.23001 14.109 5.91001 13.839C4.65001 12.769 4.66001 10.759 5.39001 9.449C6.04001 8.279 7.19 7.779 8.37 8.159C8.66 8.219 8.87001 8.089 9.33001 7.759C9.81001 7.419 10.47 6.959 11.5 6.899C12.91 6.829 13.61 7.369 14.12 7.769C14.59 8.139 14.85 8.339 15.73 8.149C16.94 7.949 18.01 8.499 18.63 9.589C19.38 10.919 19.25 12.639 18.3 13.759C18.15 13.939 17.94 14.029 17.73 14.029H17.72Z" fill="#000000" />
<path d="M8.11007 6.31939C7.96007 6.31939 7.81007 6.27939 7.68007 6.17939L7.33007 5.92939C6.99007 5.68939 6.91006 5.21939 7.15006 4.88939C7.39006 4.54939 7.86007 4.46939 8.19007 4.70939L8.54007 4.95939C8.88007 5.19939 8.96007 5.66939 8.72007 5.99939C8.57007 6.20939 8.34007 6.31939 8.11007 6.31939Z" fill="#000000" />
<path d="M15.44 6.43935C15.17 6.43935 14.9 6.28935 14.77 6.02935C14.58 5.65935 14.73 5.20935 15.1 5.01935L15.35 4.88935C15.72 4.69935 16.17 4.84935 16.36 5.21935C16.55 5.58935 16.4 6.03935 16.03 6.22935L15.78 6.35935C15.67 6.41935 15.55 6.43935 15.44 6.43935Z" fill="#000000" />
</svg>