<svg width="24px"  height="24px"  viewBox="0 0 24 25" fill="none" xmlns="http://www.w3.org/2000/svg">
<path d="M19.5085 21.5579C19.0985 21.5579 18.7585 21.2179 18.7585 20.8079V9.06787C18.7585 8.65787 19.0985 8.31787 19.5085 8.31787C19.9185 8.31787 20.2585 8.65787 20.2585 9.06787V20.8079C20.2585 21.2179 19.9185 21.5579 19.5085 21.5579ZM4.49854 21.5579C4.08854 21.5579 3.74854 21.2179 3.74854 20.8079V9.06787C3.74854 8.65787 4.08854 8.31787 4.49854 8.31787C4.90854 8.31787 5.24854 8.65787 5.24854 9.06787V20.8079C5.24854 21.2179 4.90854 21.5579 4.49854 21.5579Z" fill="#000000" />
<path d="M20.9983 11.0084C20.8383 11.0084 20.6683 10.9584 20.5383 10.8484L13.0083 4.88844C12.4183 4.41844 11.5883 4.41844 10.9883 4.88844L3.45832 10.8484C3.13832 11.1084 2.65832 11.0484 2.40832 10.7284C2.14832 10.3984 2.20831 9.92845 2.52831 9.67845L10.0583 3.71846C11.1983 2.81846 12.7983 2.81846 13.9383 3.71846L21.4683 9.67845C21.7983 9.93845 21.8483 10.4084 21.5883 10.7284C21.4383 10.9184 21.2183 11.0084 20.9983 11.0084Z" fill="#000000" />
<path d="M20.9985 21.5581H2.99854C2.58854 21.5581 2.24854 21.2181 2.24854 20.8081C2.24854 20.3981 2.58854 20.0581 2.99854 20.0581H20.9985C21.4085 20.0581 21.7485 20.3981 21.7485 20.8081C21.7485 21.2181 21.4085 21.5581 20.9985 21.5581Z" fill="#000000" />
<path d="M14.9985 21.5581C14.5885 21.5581 14.2485 21.2181 14.2485 20.8081V15.8081C14.2485 14.5681 13.2385 13.5581 11.9985 13.5581C10.7585 13.5581 9.74854 14.5681 9.74854 15.8081V20.8081C9.74854 21.2181 9.40854 21.5581 8.99854 21.5581C8.58854 21.5581 8.24854 21.2181 8.24854 20.8081V15.8081C8.24854 13.7381 9.92854 12.0581 11.9985 12.0581C14.0685 12.0581 15.7485 13.7381 15.7485 15.8081V20.8081C15.7485 21.2181 15.4085 21.5581 14.9985 21.5581Z" fill="#000000" />
</svg>