<svg width="24px"  height="24px"  viewBox="0 0 24 25" fill="none" xmlns="http://www.w3.org/2000/svg">
<path d="M21.0129 11.8395C20.8429 11.8395 20.6728 11.7795 20.5328 11.6695L12.8428 5.35952C12.3628 4.95952 11.6629 4.95952 11.1729 5.35952L3.48286 11.6695C3.16286 11.9295 2.69286 11.8895 2.42286 11.5695C2.16286 11.2495 2.20286 10.7795 2.52286 10.5095L10.2129 4.19951C11.2429 3.34951 12.7528 3.34951 13.7828 4.19951L21.4728 10.5095C21.7928 10.7695 21.8429 11.2495 21.5729 11.5695C21.4229 11.7495 21.2129 11.8395 20.9929 11.8395H21.0129Z" fill="#000000" />
<path d="M15.6729 21.0396H8.36293C6.77293 21.0396 5.43292 19.8996 5.16292 18.3296L3.76293 9.9796C3.69293 9.5696 3.97292 9.18962 4.38292 9.11962C4.79292 9.04962 5.17294 9.32961 5.24294 9.73961L6.64293 18.0896C6.78293 18.9296 7.50293 19.5396 8.36293 19.5396H15.6729C16.5229 19.5396 17.2529 18.9296 17.3929 18.0896L18.7929 9.73961C18.8629 9.32961 19.2429 9.04962 19.6529 9.11962C20.0629 9.18962 20.3329 9.5796 20.2729 9.9796L18.8729 18.3296C18.6129 19.8996 17.2629 21.0396 15.6729 21.0396Z" fill="#000000" />
<path d="M14.9429 15.8287C14.4329 15.8287 13.9529 15.6287 13.6029 15.2687C13.4329 15.0987 13.2929 14.8987 13.2029 14.6787H10.8329C10.5429 15.3487 9.87286 15.8287 9.09286 15.8287C8.04287 15.8287 7.19287 14.9787 7.19287 13.9287C7.19287 13.5487 7.30287 13.1887 7.50287 12.8887C7.30287 12.5887 7.19287 12.2287 7.19287 11.8487C7.19287 10.7987 8.04287 9.94873 9.09286 9.94873C9.87286 9.94873 10.5429 10.4187 10.8329 11.0987H13.2029C13.2929 10.8787 13.4329 10.6787 13.6029 10.5087C14.3229 9.78873 15.5729 9.78873 16.2929 10.5087C16.6529 10.8687 16.8529 11.3487 16.8429 11.8487C16.8429 12.2187 16.7329 12.5787 16.5329 12.8887C16.7329 13.1887 16.8429 13.5487 16.8429 13.9287C16.8429 14.9787 15.9929 15.8287 14.9429 15.8287ZM10.2329 13.1787H13.7929C13.9929 13.1787 14.1829 13.2587 14.3229 13.3987C14.4629 13.5387 14.5429 13.7287 14.5429 13.9287C14.5429 14.0387 14.5829 14.1387 14.6629 14.2087C14.8929 14.4387 15.3429 14.2487 15.3429 13.9287C15.3429 13.7787 15.2529 13.6387 15.1129 13.5687C14.8529 13.4487 14.6829 13.1787 14.6829 12.8887C14.6829 12.5987 14.8529 12.3287 15.1129 12.2087C15.2529 12.1387 15.3429 11.9987 15.3429 11.8487C15.3429 11.7387 15.3029 11.6387 15.2229 11.5687C15.0729 11.4187 14.8129 11.4187 14.6629 11.5687C14.5829 11.6487 14.5429 11.7387 14.5429 11.8487C14.5429 12.0487 14.4629 12.2387 14.3229 12.3787C14.1829 12.5187 13.9929 12.5987 13.7929 12.5987H10.2329C9.82288 12.5987 9.48288 12.2587 9.48288 11.8487C9.48288 11.6287 9.30289 11.4487 9.08289 11.4487C8.86289 11.4487 8.68289 11.6287 8.68289 11.8487C8.68289 12.0287 8.80287 12.1587 8.91287 12.2087C9.17287 12.3287 9.34286 12.5987 9.34286 12.8887C9.34286 13.1787 9.17287 13.4487 8.91287 13.5687C8.77287 13.6387 8.68289 13.7787 8.68289 13.9287C8.68289 14.1487 8.86289 14.3287 9.08289 14.3287C9.30289 14.3287 9.48288 14.1487 9.48288 13.9287C9.48288 13.5187 9.82288 13.1787 10.2329 13.1787Z" fill="#000000" />
</svg>