<svg width="24px"  height="24px"  viewBox="0 0 24 25" fill="none" xmlns="http://www.w3.org/2000/svg">
<path d="M18.4165 10.567C18.0065 10.567 17.6665 10.227 17.6665 9.81696V7.87695C17.6665 7.46695 18.0065 7.12695 18.4165 7.12695C18.8265 7.12695 19.1665 7.46695 19.1665 7.87695V9.81696C19.1665 10.227 18.8265 10.567 18.4165 10.567Z" fill="#000000" />
<path d="M7.92627 19.8872H5.59631C5.29631 19.8872 5.00632 19.7672 4.78632 19.5572C4.56632 19.3472 4.4563 19.0572 4.4563 18.7472V7.86719C4.4563 7.45719 4.7963 7.11719 5.2063 7.11719C5.6163 7.11719 5.9563 7.45719 5.9563 7.86719V18.3872H7.56628V13.4672C7.54628 12.3572 7.95631 11.2872 8.71631 10.4572C9.47631 9.63718 10.5063 9.13719 11.6263 9.05719C11.8663 9.05719 12.0763 9.05718 12.2863 9.07718C12.6963 9.12718 12.9963 9.49717 12.9463 9.90717C12.9063 10.3172 12.5363 10.6072 12.1163 10.5672C11.9763 10.5472 11.8363 10.5472 11.6963 10.5472C10.9863 10.5972 10.3063 10.9172 9.81628 11.4572C9.31628 11.9972 9.04628 12.6972 9.06628 13.4372V18.7272C9.06628 19.0272 8.94633 19.3172 8.73633 19.5272C8.51633 19.7472 8.23627 19.8672 7.92627 19.8672V19.8872Z" fill="#000000" />
<path d="M16.9062 14.9062C16.4963 14.9062 16.1562 14.5662 16.1562 14.1562C16.1562 13.7463 16.4963 13.4062 16.9062 13.4062C17.3162 13.4062 17.6562 13.7363 17.6562 14.1562C17.6562 14.5762 17.3162 14.9163 16.9062 14.9163V14.9062Z" fill="#000000" />
<path d="M10.7364 21.6172C10.4664 21.6172 10.2064 21.4772 10.0764 21.2172C9.87636 20.8472 10.0164 20.3972 10.3864 20.2072C11.1964 19.7772 11.6863 18.8872 11.8063 18.5872C11.9563 18.1972 12.3864 18.0071 12.7764 18.1671C13.1564 18.3171 13.3464 18.7571 13.1964 19.1371C12.9664 19.7371 12.2564 20.9072 11.0864 21.5272C10.9764 21.5872 10.8564 21.6172 10.7364 21.6172Z" fill="#000000" />
<path d="M17.5864 22.2569C17.3364 22.2569 17.0864 22.1269 16.9464 21.8969C15.9564 20.2769 15.8264 18.2669 16.2064 17.1069C16.2864 16.8769 16.4664 16.6969 16.6964 16.6269C16.8764 16.5669 17.0763 16.5869 17.2463 16.6669C17.3363 16.6969 17.7964 16.8069 19.2264 16.9669C19.4964 16.9969 19.6963 16.9369 19.8663 16.7869C20.1663 16.5169 20.3664 15.9969 20.4464 15.5069L18.3364 14.6069C18.0164 14.4769 17.8364 14.1369 17.8864 13.7969C17.9164 13.6269 17.8863 13.2869 17.6863 13.0369C17.5163 12.8269 17.2463 12.7169 16.8663 12.6869L15.6464 12.5869C14.3764 12.4769 13.4263 13.2769 12.9963 14.8369C12.3263 17.2869 13.0564 18.2869 13.3564 18.5769C13.7364 18.5769 13.8564 18.4569 13.9464 18.3569C14.4664 17.8069 14.4564 16.3069 14.2264 15.0569C14.1464 14.6469 14.4164 14.2569 14.8264 14.1769C15.2364 14.0969 15.6264 14.3669 15.7064 14.7769C15.8864 15.7569 16.1964 18.1569 15.0464 19.3769C14.6964 19.7569 14.0464 20.1769 12.9864 20.0469C12.8864 20.0369 12.7864 19.9969 12.6964 19.9469C12.6064 19.8969 10.4263 18.5669 11.5563 14.4269C12.1763 12.1569 13.7264 10.9069 15.7764 11.0769L16.9864 11.1769C17.9964 11.2469 18.5663 11.7069 18.8663 12.0869C19.1963 12.4969 19.3464 12.9769 19.3964 13.4069L21.5464 14.3169C21.8264 14.4369 22.0064 14.7169 22.0064 15.0269C21.9864 15.9569 21.6763 17.1969 20.8663 17.8969C20.3763 18.3269 19.7463 18.5169 19.0663 18.4369C18.3863 18.3569 17.8864 18.2869 17.5264 18.2269C17.4764 19.0669 17.6963 20.1969 18.2463 21.0969C18.4663 21.4469 18.3463 21.9169 17.9963 22.1269C17.8763 22.1969 17.7364 22.2369 17.6064 22.2369L17.5864 22.2569Z" fill="#000000" />
<path d="M20.8863 10.3672C20.7263 10.3672 20.5563 10.3172 20.4263 10.2072L12.8364 4.19721C12.2364 3.71721 11.3964 3.72721 10.7964 4.19721L3.20635 10.2072C2.87635 10.4672 2.40636 10.4072 2.15636 10.0872C1.89636 9.76722 1.95636 9.28721 2.27636 9.03721L9.86632 3.02723C11.0163 2.11723 12.6163 2.11723 13.7663 3.02723L21.3564 9.03721C21.6764 9.29721 21.7364 9.76722 21.4764 10.0872C21.3264 10.2772 21.1063 10.3672 20.8863 10.3672Z" fill="#000000" />
</svg>