<svg width="24px"  height="24px"  viewBox="0 0 24 25" fill="none" xmlns="http://www.w3.org/2000/svg">
<path d="M16.4385 21.5584H7.55854C5.45854 21.5584 3.74854 19.8484 3.74854 17.7484V9.07837C3.74854 8.66837 4.08854 8.32837 4.49854 8.32837C4.90854 8.32837 5.24854 8.66837 5.24854 9.07837V17.7484C5.24854 19.0284 6.28854 20.0584 7.55854 20.0584H16.4385C17.7185 20.0584 18.7485 19.0184 18.7485 17.7484V9.07837C18.7485 8.66837 19.0885 8.32837 19.4985 8.32837C19.9085 8.32837 20.2485 8.66837 20.2485 9.07837V17.7484C20.2485 19.8484 18.5385 21.5584 16.4385 21.5584Z" fill="#000000" />
<path d="M20.9983 11.0082C20.8383 11.0082 20.6683 10.9582 20.5383 10.8482L13.0083 4.8882C12.4183 4.4182 11.5883 4.4182 10.9883 4.8882L3.45831 10.8482C3.13831 11.1082 2.65831 11.0482 2.40831 10.7282C2.14831 10.3982 2.20831 9.9282 2.52831 9.6782L10.0583 3.71821C11.1983 2.81821 12.7983 2.81821 13.9383 3.71821L21.4683 9.6782C21.7983 9.9382 21.8483 10.4082 21.5883 10.7282C21.4383 10.9182 21.2183 11.0082 20.9983 11.0082Z" fill="#000000" />
<path d="M11.9986 10.5381C11.4586 10.5381 11.0186 10.0981 11.0186 9.56812C11.0186 9.30812 11.1186 9.06811 11.2986 8.87811C11.4786 8.68811 11.7286 8.58813 11.9886 8.58813C12.5286 8.58813 12.9686 9.02812 12.9686 9.56812C12.9686 10.1081 12.5286 10.5381 11.9886 10.5381H11.9986Z" fill="#000000" />
<path d="M15.2583 12.1983C14.7183 12.1983 14.2783 11.7583 14.2783 11.2283C14.2783 10.9683 14.3783 10.7283 14.5583 10.5383C14.7383 10.3483 14.9883 10.2483 15.2483 10.2483C15.7883 10.2483 16.2283 10.6883 16.2283 11.2283C16.2283 11.7683 15.7883 12.1983 15.2483 12.1983H15.2583Z" fill="#000000" />
<path d="M8.74855 12.1983C8.20855 12.1983 7.76855 11.7583 7.76855 11.2283C7.76855 10.9683 7.86855 10.7283 8.04855 10.5383C8.22855 10.3483 8.47855 10.2483 8.73855 10.2483C9.27855 10.2483 9.71855 10.6883 9.71855 11.2283C9.71855 11.7683 9.27855 12.1983 8.73855 12.1983H8.74855Z" fill="#000000" />
<path d="M9.83858 17.4981C9.52858 17.4981 9.22858 17.4381 8.94858 17.2481C8.55858 16.9981 8.31858 16.5681 8.22858 15.9781C8.10858 15.2081 8.35858 14.4081 8.93858 13.7281C9.68858 12.8481 10.8786 12.2981 12.0386 12.2981C14.0686 12.2981 15.8486 13.8881 15.8686 15.6981C15.8686 16.3581 15.6886 16.8581 15.3086 17.1581C14.6986 17.6481 13.8986 17.4581 13.1286 17.2781C12.7486 17.1881 12.3586 17.0981 12.0386 17.0981C11.7686 17.0981 11.4186 17.1881 11.0686 17.2881C10.6786 17.3881 10.2486 17.5081 9.83858 17.5081V17.4981ZM12.0286 13.7981C11.3086 13.7981 10.5486 14.1581 10.0786 14.7081C9.90858 14.9081 9.63858 15.3081 9.70858 15.7481C9.73858 15.9481 9.78858 16.0081 9.78858 16.0081C9.89858 16.0481 10.3886 15.9081 10.6786 15.8281C11.0986 15.7181 11.5686 15.5881 12.0386 15.5881C12.5386 15.5881 13.0386 15.7081 13.4786 15.8181C13.7586 15.8881 14.1586 15.9781 14.3486 15.9781C14.3486 15.9281 14.3686 15.8481 14.3686 15.7181C14.3686 14.8381 13.3386 13.8081 12.0386 13.8081L12.0286 13.7981Z" fill="#000000" />
</svg>