<svg width="24px"  height="24px"  viewBox="0 0 24 25" fill="none" xmlns="http://www.w3.org/2000/svg">
<path d="M16.8899 20.7729H7.12989C5.58989 20.7729 3.83989 19.7229 3.40989 17.3629L2.43989 12.7229C2.06989 11.1329 2.2399 9.87291 2.9499 8.98291C3.3999 8.41291 4.30991 7.73291 6.04991 7.73291H17.9499C19.6999 7.73291 20.5999 8.41291 21.0599 8.98291C21.7599 9.87291 21.9299 11.1329 21.5599 12.7329L20.5899 17.3729C20.1599 19.7129 18.4099 20.7629 16.8799 20.7629L16.8899 20.7729ZM6.05989 9.24292C5.13989 9.24292 4.48989 9.47291 4.12989 9.92291C3.61989 10.5629 3.72989 11.6229 3.90989 12.4029L4.87989 17.0729C5.19989 18.8129 6.43989 19.2729 7.12989 19.2729H16.8899C17.5699 19.2729 18.8199 18.8129 19.1299 17.0929L20.0999 12.4229C20.2799 11.6229 20.3899 10.5629 19.8899 9.92291C19.5299 9.47291 18.8799 9.24292 17.9599 9.24292H6.05989Z" fill="#000000" />
<path d="M7.25974 9.24323C7.13974 9.24323 7.01974 9.21321 6.90974 9.16321C6.53974 8.97321 6.39973 8.5232 6.58973 8.1532L8.63975 4.23322C8.82975 3.86322 9.27976 3.72321 9.64976 3.91321C10.0198 4.10321 10.1597 4.55322 9.96973 4.92322L7.91974 8.84321C7.78974 9.10321 7.51973 9.24323 7.24973 9.24323H7.25974Z" fill="#000000" />
<path d="M16.7697 9.24323C16.4997 9.24323 16.2397 9.09321 16.0997 8.84321L14.0497 4.92322C13.8597 4.55322 13.9997 4.10321 14.3697 3.91321C14.7397 3.72321 15.1897 3.86322 15.3797 4.23322L17.4297 8.1532C17.6197 8.5232 17.4797 8.97321 17.1097 9.16321C16.9997 9.22321 16.8797 9.24323 16.7597 9.24323H16.7697Z" fill="#000000" />
<path d="M12.0098 12.3434C11.4898 12.3434 11.0698 11.9234 11.0698 11.4034C11.0698 11.1534 11.1598 10.9234 11.3398 10.7434C11.5198 10.5634 11.7598 10.4634 12.0098 10.4634C12.5298 10.4634 12.9498 10.8834 12.9498 11.4034C12.9498 11.9234 12.5298 12.3434 12.0098 12.3434Z" fill="#000000" />
<path d="M14.7899 13.7535C15.309 13.7535 15.7299 13.3327 15.7299 12.8135C15.7299 12.2944 15.309 11.8735 14.7899 11.8735C14.2707 11.8735 13.8499 12.2944 13.8499 12.8135C13.8499 13.3327 14.2707 13.7535 14.7899 13.7535Z" fill="#000000" />
<path d="M9.2298 13.7633C8.7098 13.7633 8.28979 13.3433 8.28979 12.8233C8.28979 12.5733 8.37978 12.3433 8.55978 12.1633C8.73978 11.9833 8.9798 11.8833 9.2298 11.8833C9.7498 11.8833 10.1698 12.3033 10.1698 12.8233C10.1698 13.3433 9.7498 13.7633 9.2298 13.7633Z" fill="#000000" />
<path d="M10.1697 18.1632C9.88973 18.1632 9.60972 18.1032 9.34972 17.9332C8.98972 17.6932 8.76974 17.3132 8.67974 16.7732C8.56974 16.0932 8.78972 15.3732 9.30972 14.7732C9.96972 13.9932 11.0197 13.5132 12.0397 13.5132C13.8297 13.5132 15.3997 14.9232 15.4197 16.5232C15.4197 17.1232 15.2497 17.5732 14.8997 17.8532C14.3297 18.3032 13.5997 18.1332 12.9497 17.9732C12.6297 17.8932 12.3097 17.8232 12.0497 17.8232C11.8397 17.8232 11.5397 17.9032 11.2497 17.9832C10.9097 18.0732 10.5397 18.1732 10.1697 18.1732V18.1632ZM12.0397 15.0032C11.4597 15.0032 10.8297 15.2932 10.4497 15.7432C10.3197 15.8932 10.1097 16.2032 10.1597 16.5432C10.1597 16.5932 10.1797 16.6332 10.1897 16.6632C10.3497 16.6632 10.6597 16.5732 10.8597 16.5232C11.2197 16.4232 11.6297 16.3132 12.0397 16.3132C12.4797 16.3132 12.9097 16.4132 13.2897 16.5132C13.4797 16.5532 13.7497 16.6232 13.9097 16.6332C13.9097 16.6032 13.9097 16.5732 13.9097 16.5232C13.9097 15.8132 13.0797 15.0032 12.0297 14.9932L12.0397 15.0032Z" fill="#000000" />
</svg>