<svg width="24px"  height="24px"  viewBox="0 0 24 25" fill="none" xmlns="http://www.w3.org/2000/svg">
<path d="M17.9001 12.151C15.8901 12.151 14.1901 10.451 14.1901 8.44104C14.1901 8.03104 14.5301 7.69104 14.9401 7.69104C15.3501 7.69104 15.6901 8.03104 15.6901 8.44104C15.6901 9.64104 16.7001 10.651 17.9001 10.651C18.5501 10.651 19.2501 10.321 19.6901 9.81104C19.9301 9.54104 20.1901 9.10103 20.1101 8.55103C20.0201 7.91103 19.7201 6.84102 19.2601 5.45102C19.0301 4.76102 18.3901 4.30103 17.6601 4.30103H6.32008C5.59008 4.30103 4.95007 4.77103 4.72007 5.46103C4.26007 6.85103 3.98008 7.92103 3.88008 8.55103C3.80008 9.10103 4.06006 9.54104 4.30006 9.81104C4.74006 10.321 5.45007 10.651 6.09007 10.651C7.29007 10.651 8.30006 9.64104 8.30006 8.44104C8.30006 8.03104 8.64006 7.69104 9.05006 7.69104C9.46006 7.69104 9.80006 8.03104 9.80006 8.44104C9.80006 10.451 8.10007 12.151 6.09007 12.151C5.01007 12.151 3.89008 11.631 3.16008 10.791C2.54008 10.071 2.26009 9.20102 2.39009 8.33102C2.50009 7.60102 2.80007 6.48102 3.28007 4.98102C3.71007 3.67102 4.93007 2.79102 6.31007 2.79102H17.6501C19.0201 2.79102 20.2301 3.66103 20.6701 4.96103C21.1701 6.46103 21.4801 7.59101 21.5801 8.32101C21.7001 9.19101 21.4301 10.061 20.8101 10.781C20.0801 11.621 18.9601 12.141 17.8801 12.141L17.9001 12.151Z" fill="#000000" />
<path d="M12 12.1505C9.96003 12.1505 8.29004 10.4905 8.29004 8.44052V7.52051C8.29004 7.11051 8.63004 6.77051 9.04004 6.77051C9.45004 6.77051 9.79004 7.11051 9.79004 7.52051V8.44052C9.79004 9.66052 10.78 10.6505 12 10.6505C13.22 10.6505 14.21 9.66052 14.21 8.44052V7.52051C14.21 7.11051 14.55 6.77051 14.96 6.77051C15.37 6.77051 15.71 7.11051 15.71 7.52051V8.44052C15.71 10.4805 14.05 12.1505 12 12.1505Z" fill="#000000" />
<path d="M19.9398 21.8104C19.5298 21.8104 19.1898 21.4704 19.1898 21.0604V10.6904C19.1898 10.2804 19.5298 9.94043 19.9398 9.94043C20.3498 9.94043 20.6898 10.2804 20.6898 10.6904V21.0604C20.6898 21.4704 20.3498 21.8104 19.9398 21.8104ZM4.06982 21.8104C3.65982 21.8104 3.31982 21.4704 3.31982 21.0604V10.7004C3.31982 10.2904 3.65982 9.95041 4.06982 9.95041C4.47982 9.95041 4.81982 10.2904 4.81982 10.7004V21.0604C4.81982 21.4704 4.47982 21.8104 4.06982 21.8104Z" fill="#000000" />
<path d="M21 21.8105H18.5C18.09 21.8105 17.75 21.4705 17.75 21.0605C17.75 20.6505 18.09 20.3105 18.5 20.3105H21C21.41 20.3105 21.75 20.6505 21.75 21.0605C21.75 21.4705 21.41 21.8105 21 21.8105ZM5.5 21.8105H3C2.59 21.8105 2.25 21.4705 2.25 21.0605C2.25 20.6505 2.59 20.3105 3 20.3105H5.5C5.91 20.3105 6.25 20.6505 6.25 21.0605C6.25 21.4705 5.91 21.8105 5.5 21.8105Z" fill="#000000" />
<path d="M12 15.2105C11.46 15.2105 11.03 14.7805 11.03 14.2405C11.03 13.9905 11.13 13.7405 11.31 13.5605C11.49 13.3805 11.74 13.2705 12 13.2705C12.54 13.2705 12.97 13.7005 12.97 14.2405C12.97 14.7805 12.54 15.2105 12 15.2105Z" fill="#000000" />
<path d="M15.19 16.8306C14.65 16.8306 14.22 16.4006 14.22 15.8606C14.22 15.6106 14.32 15.3606 14.5 15.1806C14.68 14.9906 14.93 14.8906 15.19 14.8906C15.73 14.8906 16.16 15.3206 16.16 15.8606C16.16 16.4006 15.72 16.8306 15.19 16.8306Z" fill="#000000" />
<path d="M8.8201 16.8306C8.2801 16.8306 7.8501 16.4006 7.8501 15.8606C7.8501 15.6106 7.9501 15.3606 8.1301 15.1806C8.3101 14.9906 8.5601 14.8906 8.8201 14.8906C9.3601 14.8906 9.7901 15.3206 9.7901 15.8606C9.7901 16.4006 9.3601 16.8306 8.8201 16.8306Z" fill="#000000" />
<path d="M9.88994 21.8102C9.57994 21.8102 9.27993 21.7502 9.00993 21.5702C8.61993 21.3202 8.37991 20.9002 8.29991 20.3202C8.17991 19.5702 8.42993 18.7802 8.99993 18.1102C9.73993 17.2402 10.9099 16.7002 12.0399 16.7002C14.0299 16.7002 15.7899 18.2602 15.7999 20.0402C15.7999 20.6902 15.6199 21.1802 15.2499 21.4802C14.6399 21.9702 13.8599 21.7802 13.1099 21.6002C12.7399 21.5102 12.3599 21.4202 12.0499 21.4202C11.7899 21.4202 11.4399 21.5102 11.1099 21.6002C10.7299 21.7002 10.3099 21.8102 9.90993 21.8102H9.88994ZM12.0299 18.1902C11.3299 18.1902 10.5899 18.5402 10.1299 19.0702C9.96993 19.2602 9.70991 19.6502 9.76991 20.0702C9.79991 20.2602 9.83992 20.3202 9.83992 20.3202C9.93992 20.3502 10.4099 20.2202 10.6999 20.1402C11.1099 20.0302 11.5699 19.9102 12.0299 19.9102C12.5199 19.9102 13.0099 20.0302 13.4399 20.1302C13.6999 20.1902 14.1299 20.2902 14.2699 20.2802C14.2699 20.2302 14.2899 20.1602 14.2899 20.0402C14.2899 19.1802 13.2999 18.1902 12.0299 18.1902Z" fill="#000000" />
</svg>