<svg width="24px"  height="24px"  viewBox="0 0 24 25" fill="none" xmlns="http://www.w3.org/2000/svg">
<path d="M17.2151 22.0469H6.78509C4.53509 22.0469 2.71509 20.2169 2.71509 17.9769V10.807C2.71509 9.68696 3.21509 8.63695 4.08509 7.92695L9.65509 3.38694C11.0151 2.27694 12.9851 2.27694 14.3451 3.38694L19.9151 7.92695C20.7851 8.63695 21.2851 9.68696 21.2851 10.807V17.9769C21.2851 20.2269 19.4551 22.0469 17.2151 22.0469ZM11.9951 4.04695C11.4951 4.04695 11.0051 4.21695 10.5951 4.54695L5.02509 9.08696C4.50509 9.50696 4.20509 10.137 4.20509 10.807V17.9769C4.20509 19.3969 5.35509 20.5469 6.77509 20.5469H17.2051C18.6251 20.5469 19.7751 19.3969 19.7751 17.9769V10.807C19.7751 10.137 19.4751 9.51696 18.9551 9.08696L13.3851 4.54695C12.9851 4.21695 12.4851 4.05696 11.9851 4.05696L11.9951 4.04695Z" fill="#000000" />
<path d="M11.9951 10.7564C11.4551 10.7564 11.0151 10.3164 11.0151 9.78638C11.0151 9.53638 11.1151 9.28637 11.2951 9.09637C11.4751 8.90637 11.7251 8.8064 11.9851 8.8064C12.5251 8.8064 12.9651 9.2464 12.9651 9.7764C12.9651 10.3064 12.5251 10.7464 11.9851 10.7464L11.9951 10.7564Z" fill="#000000" />
<path d="M15.2549 12.4068C14.7149 12.4068 14.2749 11.9668 14.2749 11.4368C14.2749 11.1768 14.3749 10.9368 14.5549 10.7468C14.7349 10.5568 14.9849 10.4568 15.2449 10.4568C15.7849 10.4568 16.2249 10.8968 16.2249 11.4368C16.2249 11.9768 15.7849 12.4068 15.2449 12.4068H15.2549Z" fill="#000000" />
<path d="M8.74513 12.4068C8.20513 12.4068 7.76514 11.9668 7.76514 11.4368C7.76514 11.1768 7.86514 10.9368 8.04514 10.7468C8.22514 10.5568 8.47513 10.4568 8.73513 10.4568C9.27513 10.4568 9.71513 10.8968 9.71513 11.4368C9.71513 11.9768 9.27513 12.4068 8.73513 12.4068H8.74513Z" fill="#000000" />
<path d="M9.83492 17.7066C9.52492 17.7066 9.22492 17.6466 8.94492 17.4566C8.55492 17.2066 8.31492 16.7766 8.22492 16.1866C8.10492 15.4166 8.35492 14.6166 8.93492 13.9366C9.68492 13.0566 10.8749 12.5066 12.0349 12.5066C14.0649 12.5066 15.8449 14.0966 15.8649 15.9066C15.8649 16.5666 15.6849 17.0666 15.3049 17.3666C14.6949 17.8566 13.8949 17.6666 13.1249 17.4866C12.7449 17.3966 12.3549 17.3066 12.0349 17.3066C11.7649 17.3066 11.4149 17.3966 11.0649 17.4966C10.6749 17.5966 10.2549 17.7166 9.83492 17.7166V17.7066ZM12.0249 14.0066C11.3049 14.0066 10.5349 14.3666 10.0649 14.9166C9.89492 15.1166 9.62492 15.5166 9.69492 15.9566C9.72492 16.1566 9.77491 16.2166 9.77491 16.2166C9.89491 16.2466 10.3749 16.1166 10.6649 16.0366C11.0849 15.9266 11.5549 15.7966 12.0149 15.7966C12.5149 15.7966 13.0149 15.9166 13.4549 16.0166C13.7349 16.0866 14.1349 16.1666 14.3249 16.1766C14.3249 16.1266 14.3449 16.0466 14.3449 15.9166C14.3449 15.0266 13.3249 14.0066 12.0149 14.0066H12.0249Z" fill="#000000" />
</svg>