<svg width="24px"  height="24px"  viewBox="0 0 24 25" fill="none" xmlns="http://www.w3.org/2000/svg">
<path d="M19.5085 21.5579C19.0985 21.5579 18.7585 21.2179 18.7585 20.8079V9.06787C18.7585 8.65787 19.0985 8.31787 19.5085 8.31787C19.9185 8.31787 20.2585 8.65787 20.2585 9.06787V20.8079C20.2585 21.2179 19.9185 21.5579 19.5085 21.5579ZM4.49854 21.5579C4.08854 21.5579 3.74854 21.2179 3.74854 20.8079V9.06787C3.74854 8.65787 4.08854 8.31787 4.49854 8.31787C4.90854 8.31787 5.24854 8.65787 5.24854 9.06787V20.8079C5.24854 21.2179 4.90854 21.5579 4.49854 21.5579Z" fill="#000000" />
<path d="M20.9983 11.0084C20.8383 11.0084 20.6683 10.9584 20.5383 10.8484L13.0083 4.88844C12.4183 4.41844 11.5883 4.41844 10.9883 4.88844L3.4583 10.8484C3.1383 11.1084 2.65832 11.0484 2.40832 10.7284C2.14832 10.3984 2.20831 9.92845 2.52831 9.67845L10.0583 3.71846C11.1983 2.81846 12.7983 2.81846 13.9383 3.71846L21.4683 9.67845C21.7983 9.93845 21.8483 10.4084 21.5883 10.7284C21.4383 10.9184 21.2183 11.0084 20.9983 11.0084Z" fill="#000000" />
<path d="M20.9985 21.5581H2.99854C2.58854 21.5581 2.24854 21.2181 2.24854 20.8081C2.24854 20.3981 2.58854 20.0581 2.99854 20.0581H20.9985C21.4085 20.0581 21.7485 20.3981 21.7485 20.8081C21.7485 21.2181 21.4085 21.5581 20.9985 21.5581Z" fill="#000000" />
<path d="M11.9985 10.7881C11.4485 10.7881 11.0085 10.3381 11.0085 9.7981C11.0085 9.5381 11.1085 9.28808 11.2985 9.09808C11.4885 8.90808 11.7385 8.80811 12.0085 8.80811C12.5585 8.80811 12.9985 9.2581 12.9985 9.7981C12.9985 10.3381 12.5485 10.7881 12.0085 10.7881H11.9985Z" fill="#000000" />
<path d="M15.5286 12.5782C14.9786 12.5782 14.5386 12.1282 14.5386 11.5882C14.5386 11.3282 14.6386 11.0782 14.8286 10.8882C15.0186 10.6982 15.2686 10.5981 15.5386 10.5981C16.0886 10.5981 16.5386 11.0482 16.5386 11.5882C16.5386 12.1282 16.0886 12.5782 15.5486 12.5782H15.5286Z" fill="#000000" />
<path d="M8.46851 12.5782C7.91851 12.5782 7.47852 12.1282 7.47852 11.5882C7.47852 11.3282 7.57849 11.0782 7.76849 10.8882C7.95849 10.6982 8.20851 10.5981 8.46851 10.5981C9.01851 10.5981 9.46851 11.0482 9.46851 11.5882C9.46851 12.1282 9.01852 12.5782 8.47852 12.5782H8.46851Z" fill="#000000" />
<path d="M9.65848 18.1677C9.32848 18.1677 9.01848 18.0977 8.72848 17.9077C8.31848 17.6377 8.06848 17.1977 7.97848 16.5777C7.84848 15.7677 8.11848 14.9177 8.72848 14.1877C9.53848 13.2377 10.7985 12.6577 12.0385 12.6577C14.1985 12.6577 16.1085 14.3477 16.1285 16.2777C16.1285 16.9877 15.9485 17.4877 15.5485 17.8177C14.9085 18.3277 14.0585 18.1277 13.2385 17.9277C12.8285 17.8277 12.3985 17.7277 12.0385 17.7277C11.7385 17.7277 11.3485 17.8277 10.9785 17.9277C10.5585 18.0377 10.1085 18.1577 9.66849 18.1577L9.65848 18.1677ZM12.0285 14.1577C11.2385 14.1577 10.3785 14.5477 9.85849 15.1577C9.66849 15.3777 9.35848 15.8277 9.44848 16.3377C9.48848 16.5877 9.54846 16.6477 9.54846 16.6477C9.68846 16.7177 10.2685 16.5577 10.5785 16.4777C11.0285 16.3577 11.5285 16.2277 12.0285 16.2277C12.5585 16.2277 13.0985 16.3577 13.5685 16.4677C13.8885 16.5477 14.4185 16.6777 14.5985 16.6277C14.5985 16.6077 14.6185 16.5077 14.6185 16.2877C14.6185 15.1877 13.3485 14.1477 12.0285 14.1477V14.1577Z" fill="#000000" />
</svg>