<svg width="24px"  height="24px"  viewBox="0 0 24 25" fill="none" xmlns="http://www.w3.org/2000/svg">
<path d="M11.9765 12.1512C11.4465 12.1512 11.0165 11.7212 11.0165 11.1912C11.0165 10.9412 11.1165 10.7012 11.2965 10.5212C11.4765 10.3412 11.7165 10.2412 11.9765 10.2412C12.5065 10.2412 12.9365 10.6712 12.9365 11.2012C12.9365 11.7312 12.5065 12.1612 11.9765 12.1612V12.1512Z" fill="#000000" />
<path d="M14.0365 12.7312C14.0365 13.2612 14.4665 13.6912 14.9965 13.6912V13.7013C15.5265 13.7013 15.9565 13.2712 15.9565 12.7413C15.9565 12.2113 15.5265 11.7812 14.9965 11.7812C14.7365 11.7812 14.4965 11.8813 14.3165 12.0613C14.1365 12.2413 14.0365 12.4812 14.0365 12.7312Z" fill="#000000" />
<path d="M8.96658 13.691C8.43658 13.691 8.00659 13.261 8.00659 12.731C8.00659 12.481 8.10659 12.241 8.28659 12.051C8.46659 11.861 8.70658 11.771 8.96658 11.771C9.49658 11.771 9.92657 12.201 9.92657 12.731C9.92657 13.261 9.49658 13.691 8.96658 13.691Z" fill="#000000" />
<path fill-rule="evenodd" clip-rule="evenodd" d="M9.11648 18.3609C9.38648 18.5409 9.67649 18.6009 9.97649 18.6009V18.5909C10.3665 18.5909 10.7565 18.4909 11.1265 18.3909C11.1474 18.3855 11.1683 18.3801 11.1894 18.3746C11.4805 18.2992 11.7827 18.2209 12.0065 18.2209C12.2691 18.2209 12.5892 18.2947 12.9073 18.3681C12.9404 18.3757 12.9735 18.3834 13.0065 18.3909L13.0367 18.3979C13.7192 18.5563 14.4851 18.734 15.0665 18.2709C15.4365 17.9709 15.6065 17.5009 15.6065 16.8709C15.5965 15.1709 13.9065 13.6709 12.0065 13.6709C10.9165 13.6709 9.80649 14.1909 9.09649 15.0209C8.54649 15.6709 8.30647 16.4209 8.42647 17.1509C8.50647 17.7109 8.73648 18.1209 9.11648 18.3609ZM10.2365 16.0009C10.6654 15.5021 11.353 15.1825 12.0016 15.1809C13.1692 15.1836 14.0965 16.1121 14.0965 16.9009V17.0809C13.9165 17.0809 13.5765 17.0009 13.3465 16.9409C12.9365 16.8409 12.4765 16.7309 12.0065 16.7309C11.5912 16.7309 11.1758 16.8378 10.8025 16.9339C10.7804 16.9396 10.7583 16.9453 10.7365 16.9509C10.6452 16.972 10.5331 17.0004 10.4225 17.0284C10.2178 17.0803 10.0184 17.1309 9.96648 17.1309C9.96648 17.1309 9.93649 17.0809 9.90649 16.9209C9.84649 16.5309 10.0865 16.1809 10.2365 16.0009Z" fill="#000000" />
<path fill-rule="evenodd" clip-rule="evenodd" d="M7.21736 6.80092C7.34022 5.71421 7.82639 4.72093 8.60654 3.94078C9.50654 3.04078 10.7065 2.55078 11.9865 2.55078H12.0065C14.4612 2.55078 16.4923 4.40958 16.7653 6.80078H16.7765C18.1565 6.80078 19.8265 7.71078 20.3865 10.2708L21.1265 15.9908C21.3965 17.8508 21.0565 19.3408 20.1265 20.4208C19.2065 21.4908 17.7365 22.0508 15.8965 22.0508L15.9065 22.0408H8.08651C6.06651 22.0408 4.65651 21.5408 3.77651 20.5208C2.89651 19.5008 2.59651 17.9608 2.89651 15.9708L3.62652 10.3308C4.10312 7.72933 5.85152 6.81375 7.21736 6.80092ZM15.2424 6.80078C14.9841 5.23686 13.6237 4.04078 11.9965 4.04078H11.9865C11.1065 4.04078 10.2865 4.38078 9.66653 5.00078C9.17278 5.49453 8.85026 6.12147 8.73433 6.80078H15.2424ZM5.10653 10.5608C5.48653 8.45078 6.83651 8.29078 7.24651 8.29078L7.25652 8.30078H16.7865C17.8165 8.30078 18.6265 9.16078 18.9265 10.5308L19.6565 16.2008C19.8565 17.6208 19.6365 18.7108 19.0065 19.4408C18.2165 20.3608 16.8865 20.5508 15.9165 20.5508H8.09652C6.53652 20.5508 5.49652 20.2208 4.91652 19.5508C4.32652 18.8708 4.15653 17.7408 4.38653 16.1808L5.10653 10.5608Z" fill="#000000" />
</svg>