<svg width="24px"  height="24px"  viewBox="0 0 25 24" fill="none" xmlns="http://www.w3.org/2000/svg">
<path d="M11.3989 13.3173C11.6479 13.6483 11.5801 14.1182 11.249 14.3672C9.94482 15.3442 8.07715 15.2483 6.89209 14.0643C5.58887 12.7603 5.58496 10.6492 6.89502 9.35223C8.08057 8.15894 9.94873 8.0636 11.2529 9.05426C11.582 9.30426 11.647 9.77521 11.396 10.1052C11.146 10.4352 10.6748 10.4992 10.3447 10.2482C9.62695 9.70221 8.6001 9.76123 7.95605 10.4122L7.95117 10.4172C7.23584 11.1252 7.23291 12.2822 7.95312 13.0032C8.59814 13.6472 9.62891 13.7072 10.3491 13.1672C10.6802 12.9182 11.1499 12.9853 11.3989 13.3173Z" fill="#000000" />
<path d="M17.8672 10.4133C17.5742 10.7063 17.1001 10.7063 16.8071 10.4133C16.0928 9.69928 14.9341 9.69928 14.2178 10.4133C13.5049 11.1273 13.5039 12.2862 14.2188 13.0012C14.9341 13.7152 16.0928 13.7152 16.8071 13.0012C17.1001 12.7082 17.5742 12.7082 17.8672 13.0012C18.1602 13.2943 18.1602 13.7692 17.8672 14.0623C16.5669 15.3622 14.459 15.3613 13.1582 14.0623C11.8579 12.7612 11.8579 10.6533 13.1582 9.35223C14.459 8.05322 16.5669 8.05225 17.8672 9.35223C18.1602 9.64526 18.1602 10.1202 17.8672 10.4133Z" fill="#000000" />
<path fill-rule="evenodd" clip-rule="evenodd" d="M12 21.5002C6.61816 21.5002 2.25 17.1323 2.25 11.7502C2.25 6.36823 6.61816 2.00024 12 2.00024C17.3818 2.00024 21.75 6.36823 21.75 11.7502C21.75 17.1323 17.3818 21.5002 12 21.5002ZM3.75 11.7502C3.75 16.3043 7.4458 20.0002 12 20.0002C16.5542 20.0002 20.25 16.3043 20.25 11.7502C20.25 7.19623 16.5542 3.50024 12 3.50024C7.4458 3.50024 3.75 7.19623 3.75 11.7502Z" fill="#000000" />
</svg>