<svg width="24px"  height="24px"  viewBox="0 0 25 24" fill="none" xmlns="http://www.w3.org/2000/svg">
<path fill-rule="evenodd" clip-rule="evenodd" d="M18.8939 4.85603C15.0868 1.04799 8.91296 1.04799 5.10583 4.85603C1.29773 8.66304 1.29773 14.837 5.10583 18.644C8.91296 22.452 15.0868 22.452 18.8939 18.644C22.702 14.837 22.702 8.66304 18.8939 4.85603ZM18.3402 6.46986C21.0453 9.71126 20.8763 14.5407 17.8339 17.584C14.7904 20.6264 9.9613 20.7951 6.7196 18.0902L18.3402 6.46986ZM5.65955 17.0302C2.95447 13.7887 3.12341 8.9593 6.16589 5.91603C9.20935 2.87367 14.0385 2.70491 17.2802 5.40987L5.65955 17.0302Z" fill="#000000" />
</svg>