<svg width="24px"  height="24px"  viewBox="0 0 25 24" fill="none" xmlns="http://www.w3.org/2000/svg">
<path fill-rule="evenodd" clip-rule="evenodd" d="M17.0732 19.3682C16.6592 19.3682 16.3232 19.0322 16.3232 18.6182V17.2023H15.1104C14.6963 17.2023 14.3604 16.8672 14.3604 16.4523C14.3604 16.0383 14.6963 15.7023 15.1104 15.7023H16.3232V13.2891C14.0981 12.9296 12.3994 11.0004 12.3994 8.67426C12.3994 6.09229 14.4922 4.00024 17.0752 4.00024C19.6572 4.00024 21.75 6.09326 21.75 8.67426C21.75 11.0016 20.0498 12.9317 17.8232 13.2897V15.7023H19.0361C19.4507 15.7023 19.7861 16.0383 19.7861 16.4523C19.7861 16.8672 19.4507 17.2023 19.0361 17.2023H17.8232V18.6182C17.8232 19.0322 17.4878 19.3682 17.0732 19.3682ZM17.0732 11.8492C18.8286 11.8492 20.25 10.4283 20.25 8.67426C20.25 6.92126 18.8286 5.50024 17.0752 5.50024C15.3208 5.50024 13.8994 6.92126 13.8994 8.67426C13.8994 10.4283 15.3208 11.8492 17.0732 11.8492Z" fill="#000000" />
<path fill-rule="evenodd" clip-rule="evenodd" d="M7.67578 6.45752L8.85986 7.64624C9.15234 7.93927 9.62695 7.94025 9.92041 7.64825C10.2139 7.35626 10.2148 6.88123 9.92285 6.58722L7.48389 4.13934C7.4751 4.12933 7.46582 4.12079 7.45605 4.11127C7.32812 3.98352 7.15479 3.90033 6.96191 3.89111C6.94971 3.89056 6.93799 3.89026 6.92578 3.89026C6.71875 3.89026 6.5293 3.97552 6.39355 4.11127L3.92627 6.58722C3.63379 6.88025 3.63477 7.35522 3.92822 7.64825C4.02881 7.74811 4.15039 7.81372 4.27832 7.84509C4.5249 7.90546 4.79639 7.83905 4.98877 7.64624L6.17578 6.45502V10.3201C3.94971 10.6788 2.25 12.6085 2.25 14.9352C2.25 17.5172 4.34277 19.6102 6.92578 19.6102C9.50781 19.6102 11.6006 17.5172 11.6006 14.9352C11.6006 12.6086 9.90137 10.6789 7.67578 10.3201V6.45752ZM3.75 14.9352C3.75 16.6882 5.17139 18.1102 6.92578 18.1102C8.6792 18.1102 10.1006 16.6882 10.1006 14.9352C10.1006 13.1812 8.6792 11.7603 6.92578 11.7603C5.17139 11.7603 3.75 13.1812 3.75 14.9352Z" fill="#000000" />
</svg>