<svg width="24px"  height="24px"  viewBox="0 0 25 24" fill="none" xmlns="http://www.w3.org/2000/svg">
<path d="M11.3672 12.5013V13.1293H12.7349C13.1489 13.1293 13.4849 13.4644 13.4849 13.8793C13.4849 14.2933 13.1489 14.6293 12.7349 14.6293H10.6172C10.2031 14.6293 9.86719 14.2933 9.86719 13.8793V9.62128C9.86719 9.20728 10.2031 8.87128 10.6172 8.87128H12.7349C13.1489 8.87128 13.4849 9.20728 13.4849 9.62128C13.4849 10.0363 13.1489 10.3713 12.7349 10.3713H11.3672V11.0013H12.3091C12.7231 11.0013 13.0591 11.3373 13.0591 11.7513C13.0591 12.1653 12.7231 12.5013 12.3091 12.5013H11.3672Z" fill="#000000" />
<path d="M5.14795 14.7943C4.73389 14.7943 4.39795 14.4583 4.39795 14.0443V9.70532C4.39795 9.38232 4.604 9.09631 4.90918 8.99432C5.21484 8.8913 5.55078 8.9953 5.74609 9.25128L7.59277 11.6879V9.58228C7.59277 9.16827 7.9292 8.83228 8.34277 8.83228C8.75684 8.83228 9.09277 9.16827 9.09277 9.58228V13.9193C9.09277 14.2413 8.88721 14.5273 8.58203 14.6293C8.27686 14.7324 7.93994 14.6283 7.74512 14.3723L5.89795 11.9355V14.0443C5.89795 14.4583 5.56201 14.7943 5.14795 14.7943Z" fill="#000000" />
<path d="M14.6519 8.92133C15.0601 8.84833 15.4502 9.11932 15.5229 9.52631L15.8682 11.4383L16.314 10.4973C16.4023 10.3104 16.5625 10.1718 16.7515 10.1077C16.8276 10.082 16.9082 10.0683 16.9912 10.0683C17.2808 10.0683 17.5449 10.2353 17.6689 10.4973L18.1157 11.4394L18.4609 9.52631C18.5352 9.11932 18.9248 8.84833 19.332 8.92133C19.7402 8.9953 20.0112 9.38531 19.937 9.79333L19.1768 14.0043C19.1191 14.3253 18.8608 14.5723 18.5381 14.6153C18.2148 14.6583 17.9009 14.4873 17.7607 14.1933L16.9912 12.5699L16.2231 14.1923C16.125 14.399 15.9414 14.5449 15.729 14.5989C15.6382 14.6219 15.5425 14.6282 15.4458 14.6153C15.123 14.5723 14.8652 14.3253 14.8071 14.0043L14.0469 9.79333C13.9731 9.38531 14.2441 8.9953 14.6519 8.92133Z" fill="#000000" />
<path fill-rule="evenodd" clip-rule="evenodd" d="M2.54785 4.61133C3.4082 3.68835 4.63184 3.17529 6.06689 3.17529H17.9331C19.3721 3.17529 20.5952 3.68835 21.4561 4.61133C22.3101 5.52936 22.75 6.79132 22.75 8.1983V15.3023C22.75 16.7093 22.3101 17.9713 21.4551 18.8893C20.5952 19.8133 19.3711 20.3253 17.9321 20.3253H6.06689C4.62793 20.3253 3.40479 19.8123 2.54395 18.8893C1.68994 17.9713 1.25 16.7093 1.25 15.3023V8.1983C1.25 6.79028 1.69189 5.52832 2.54785 4.61133ZM3.64502 5.63428C3.09082 6.22729 2.75 7.10229 2.75 8.1983V15.3023C2.75 16.3993 3.08984 17.2733 3.64209 17.8673C4.18896 18.4543 4.99902 18.8253 6.06689 18.8253H17.9321C19.001 18.8253 19.811 18.4533 20.3579 17.8663C20.9102 17.2733 21.25 16.3993 21.25 15.3023V8.1983C21.25 7.10132 20.9102 6.22729 20.3579 5.63428C19.811 5.0473 19.001 4.67529 17.9331 4.67529H6.06689C5.00293 4.67529 4.19287 5.04626 3.64502 5.63428Z" fill="#000000" />
</svg>