<svg width="24px"  height="24px"  viewBox="0 0 25 24" fill="none" xmlns="http://www.w3.org/2000/svg">
<path fill-rule="evenodd" clip-rule="evenodd" d="M9.82617 16.459C9.41211 16.459 9.07617 16.123 9.07617 15.709V7.79199C9.07617 7.37701 9.41211 7.04199 9.82617 7.04199H13.168C14.792 7.04199 16.1069 8.35699 16.1069 9.98102C16.1069 11.604 14.792 12.919 13.168 12.919H10.5762V15.709C10.5762 16.123 10.2402 16.459 9.82617 16.459ZM10.5762 11.419H13.168C13.9639 11.419 14.6069 10.775 14.6069 9.98102C14.6069 9.18604 13.9629 8.54199 13.168 8.54199H10.5762V11.419Z" fill="#000000" />
<path fill-rule="evenodd" clip-rule="evenodd" d="M12 2C17.3848 2 21.75 6.36499 21.75 11.75C21.75 17.135 17.3848 21.5 12 21.5C6.61523 21.5 2.25 17.135 2.25 11.75C2.25 6.36499 6.61523 2 12 2ZM20.25 11.75C20.25 7.19397 16.5562 3.5 12 3.5C7.44385 3.5 3.75 7.19397 3.75 11.75C3.75 16.306 7.44385 20 12 20C16.5562 20 20.25 16.306 20.25 11.75Z" fill="#000000" />
</svg>