<svg width="24px"  height="24px"  viewBox="0 0 25 24" fill="none" xmlns="http://www.w3.org/2000/svg">
<path fill-rule="evenodd" clip-rule="evenodd" d="M10.6426 13.39V15.308C10.6426 15.722 10.3066 16.058 9.89258 16.058C9.47852 16.058 9.14258 15.722 9.14258 15.308V8.19397C9.14258 7.77899 9.47852 7.44397 9.89258 7.44397H12.7559C14.3979 7.44397 15.73 8.77496 15.73 10.417C15.73 11.5967 15.0415 12.6168 14.0444 13.097L14.8486 15.018C15.0083 15.4 14.8281 15.84 14.4463 16C14.064 16.159 13.6245 15.979 13.4648 15.597L12.541 13.39H10.6426ZM12.8921 11.8838C12.9238 11.8778 12.9556 11.8738 12.9873 11.8719C13.6914 11.7608 14.23 11.1505 14.23 10.417C14.23 9.604 13.5698 8.94397 12.7559 8.94397H10.6426V11.89H12.7559C12.8018 11.89 12.8472 11.8879 12.8921 11.8838Z" fill="#000000" />
<path fill-rule="evenodd" clip-rule="evenodd" d="M12 2C17.3853 2 21.75 6.36499 21.75 11.75C21.75 17.134 17.3853 21.5 12 21.5C6.61475 21.5 2.25 17.134 2.25 11.75C2.25 6.36499 6.61475 2 12 2ZM20.25 11.75C20.25 7.19299 16.5566 3.5 12 3.5C7.44336 3.5 3.75 7.19299 3.75 11.75C3.75 16.306 7.44336 20 12 20C16.5566 20 20.25 16.306 20.25 11.75Z" fill="#000000" />
</svg>