<svg width="24px"  height="24px"  viewBox="0 0 25 24" fill="none" xmlns="http://www.w3.org/2000/svg">
<path fill-rule="evenodd" clip-rule="evenodd" d="M8.76221 6.97699V4.16699C8.76221 3.52197 8.24023 3 7.59521 3H4.41699C3.77197 3 3.25 3.52197 3.25 4.16699V19.177C3.25 19.822 3.77197 20.344 4.41699 20.344H19.583C20.228 20.344 20.75 19.822 20.75 19.177V16.166C20.75 15.522 20.228 14.999 19.583 14.999H16.7871V12.255C16.7871 11.61 16.2651 11.088 15.6201 11.088H12.7749V8.14398C12.7749 7.5 12.252 6.97699 11.6079 6.97699H8.76221ZM7.26221 7.31C7.26221 7.95502 7.78516 8.47699 8.4292 8.47699H11.2749V11.421C11.2749 12.065 11.7969 12.588 12.4419 12.588H15.2871V15.332C15.2871 15.977 15.8101 16.499 16.4541 16.499H19.25V18.844H4.75V4.5H7.26221V7.31Z" fill="#000000" />
</svg>