<svg width="24px"  height="24px"  viewBox="0 0 25 24" fill="none" xmlns="http://www.w3.org/2000/svg">
<path d="M21.75 4.922C21.75 5.336 21.4141 5.672 21 5.672H17.2363V8.92798C17.2363 9.60095 16.6904 10.147 16.0171 10.147H12.7222V13.552C12.7222 14.226 12.1763 14.771 11.5029 14.771H8.20801V17.953C8.20801 18.626 7.6626 19.172 6.98926 19.172H3C2.58594 19.172 2.25 18.836 2.25 18.422C2.25 18.007 2.58594 17.672 3 17.672H6.70801V14.49C6.70801 13.817 7.25391 13.271 7.92725 13.271H11.2222V9.86597C11.2222 9.19299 11.7681 8.64697 12.4414 8.64697H15.7363V5.39099C15.7363 4.71802 16.2817 4.172 16.9551 4.172H21C21.4141 4.172 21.75 4.508 21.75 4.922Z" fill="#000000" />
<path d="M8.45068 4.39197C8.5918 4.53296 8.6709 4.724 8.6709 4.92297L8.66602 8.03998C8.66504 8.45398 8.3291 8.78998 7.91455 8.789C7.50049 8.78802 7.16504 8.45203 7.16602 8.03802L7.16797 6.73529L3.53027 10.372C3.2373 10.665 2.7627 10.665 2.46973 10.372C2.17676 10.079 2.17676 9.604 2.46973 9.31097L6.10596 5.67609L4.80713 5.67902C4.39307 5.67999 4.05664 5.34497 4.05566 4.92999C4.05469 4.51599 4.38965 4.17999 4.8042 4.17902L7.91895 4.172C8.11865 4.172 8.31006 4.25098 8.45068 4.39197Z" fill="#000000" />
</svg>