<svg width="24px"  height="24px"  viewBox="0 0 25 24" fill="none" xmlns="http://www.w3.org/2000/svg">
<path d="M8.05908 15.065C7.64502 15.065 7.30908 14.729 7.30908 14.315V10.213H6.21094C5.7959 10.213 5.46094 9.87799 5.46094 9.46301C5.46094 9.04901 5.7959 8.71301 6.21094 8.71301H10.103C10.5171 8.71301 10.853 9.04901 10.853 9.46301C10.853 9.87799 10.5171 10.213 10.103 10.213H8.80908V14.315C8.80908 14.729 8.47314 15.065 8.05908 15.065Z" fill="#000000" />
<path d="M12.73 15.065C12.3149 15.065 11.98 14.729 11.98 14.315V9.46301C11.98 9.16003 12.1621 8.88702 12.4429 8.771C12.7231 8.65399 13.0449 8.71899 13.2598 8.93298L15.0645 10.7377L16.8691 8.93298C17.084 8.71899 17.4072 8.65399 17.687 8.771C17.9668 8.88702 18.1499 9.16003 18.1499 9.46301V14.315C18.1499 14.729 17.814 15.065 17.3999 15.065C16.9858 15.065 16.6499 14.729 16.6499 14.315V11.274L15.5947 12.329C15.3018 12.622 14.8271 12.622 14.5342 12.329L13.48 11.2748V14.315C13.48 14.729 13.144 15.065 12.73 15.065Z" fill="#000000" />
<path fill-rule="evenodd" clip-rule="evenodd" d="M3.74023 3.64697C4.7251 2.59094 6.12695 2 7.78223 2H16.2168C17.876 2 19.2788 2.591 20.2632 3.64801C21.2412 4.698 21.75 6.14899 21.75 7.776V15.724C21.75 17.351 21.2412 18.802 20.2632 19.852C19.2788 20.909 17.876 21.5 16.2158 21.5H7.78223C6.12207 21.5 4.72021 20.909 3.73584 19.852C2.75781 18.801 2.25 17.351 2.25 15.724V7.776C2.25 6.14801 2.76123 4.698 3.74023 3.64697ZM4.83691 4.66998C4.16016 5.39697 3.75 6.46002 3.75 7.776V15.724C3.75 17.042 4.1582 18.104 4.83398 18.83C5.50391 19.55 6.49316 20 7.78223 20H16.2158C17.5049 20 18.4941 19.55 19.165 18.83C19.8408 18.104 20.25 17.041 20.25 15.724V7.776C20.25 6.45898 19.8408 5.396 19.165 4.66998C18.4951 3.95001 17.5059 3.5 16.2168 3.5H7.78223C6.49805 3.5 5.50879 3.94897 4.83691 4.66998Z" fill="#000000" />
</svg>