<svg width="24px"  height="24px"  viewBox="0 0 25 24" fill="none" xmlns="http://www.w3.org/2000/svg">
<path d="M8.30615 14.786C7.89209 14.786 7.55615 14.451 7.55615 14.036V10.311H6.6001C6.18604 10.311 5.8501 9.97498 5.8501 9.56097C5.8501 9.14697 6.18604 8.81097 6.6001 8.81097H10.1909C10.605 8.81097 10.9409 9.14697 10.9409 9.56097C10.9409 9.97498 10.605 10.311 10.1909 10.311H9.05615V14.036C9.05615 14.451 8.72021 14.786 8.30615 14.786Z" fill="#000000" />
<path d="M12.6152 14.786C12.2002 14.786 11.8652 14.451 11.8652 14.036V9.56097C11.8652 9.25696 12.0469 8.98401 12.3281 8.86798C12.6079 8.75195 12.9302 8.81604 13.145 9.03003L14.769 10.6549L16.3931 9.03003C16.6079 8.81604 16.9302 8.75195 17.21 8.86798C17.3271 8.91626 17.4268 8.99164 17.5034 9.08514C17.6108 9.21643 17.6729 9.38336 17.6729 9.56097V14.036C17.6729 14.451 17.3379 14.786 16.9229 14.786C16.5088 14.786 16.1729 14.451 16.1729 14.036V11.3721L15.2988 12.246C15.0059 12.538 14.5322 12.538 14.2393 12.246L13.3652 11.3721V14.036C13.3652 14.451 13.0288 14.786 12.6152 14.786Z" fill="#000000" />
<path fill-rule="evenodd" clip-rule="evenodd" d="M12 2C17.3848 2 21.75 6.36499 21.75 11.75C21.75 17.135 17.3848 21.5 12 21.5C6.61523 21.5 2.25 17.135 2.25 11.75C2.25 6.36499 6.61523 2 12 2ZM20.25 11.75C20.25 7.19397 16.5562 3.5 12 3.5C7.44385 3.5 3.75 7.19397 3.75 11.75C3.75 16.306 7.44385 20 12 20C16.5562 20 20.25 16.306 20.25 11.75Z" fill="#000000" />
</svg>