<svg width="24px"  height="24px"  viewBox="0 0 25 24" fill="none" xmlns="http://www.w3.org/2000/svg">
<path d="M6.88916 8.40002C7.30322 8.40002 7.63916 8.73602 7.63916 9.15002V12.7C7.63916 13.528 8.31104 14.2 9.13916 14.2C9.9668 14.2 10.6392 13.528 10.6392 12.7V9.15002C10.6392 8.73602 10.9751 8.40002 11.3892 8.40002C11.8032 8.40002 12.1392 8.73602 12.1392 9.15002V12.7C12.1392 14.357 10.7959 15.7 9.13916 15.7C7.48193 15.7 6.13916 14.357 6.13916 12.7V9.15002C6.13916 8.73602 6.4751 8.40002 6.88916 8.40002Z" fill="#000000" />
<path d="M13.4531 8.53998C13.79 8.29895 14.2593 8.37701 14.499 8.71399L15.8892 10.6602L17.2793 8.71399C17.3965 8.54901 17.5693 8.44611 17.7539 8.41229C17.9468 8.37708 18.1533 8.41693 18.3252 8.53998C18.6621 8.77997 18.7402 9.24902 18.499 9.586L16.8105 11.95L18.499 14.314C18.7402 14.651 18.6621 15.119 18.3252 15.36C17.9883 15.601 17.519 15.5229 17.2793 15.186L15.8892 13.2398L14.499 15.186C14.2593 15.5229 13.79 15.601 13.4531 15.36C13.1162 15.119 13.0381 14.651 13.2793 14.314L14.9678 11.95L13.2793 9.586C13.0381 9.24902 13.1162 8.77997 13.4531 8.53998Z" fill="#000000" />
<path fill-rule="evenodd" clip-rule="evenodd" d="M12.2891 2C17.6738 2 22.0391 6.36499 22.0391 11.75C22.0391 17.135 17.6738 21.5 12.2891 21.5C6.9043 21.5 2.53906 17.135 2.53906 11.75C2.53906 6.36499 6.9043 2 12.2891 2ZM20.5391 11.75C20.5391 7.19397 16.8452 3.5 12.2891 3.5C7.73291 3.5 4.03906 7.19397 4.03906 11.75C4.03906 16.306 7.73291 20 12.2891 20C16.8452 20 20.5391 16.306 20.5391 11.75Z" fill="#000000" />
</svg>