<svg width="24" height="24" viewBox="0 0 24 24" fill="none" xmlns="http://www.w3.org/2000/svg">
<path d="M11.9983 12.3074C13.1819 13.8218 20.393 14.1357 17.6934 7.26587C14.5645 8.46499 13.4657 9.69732 11.9983 12.3074Z" stroke="black" stroke-width="1.5" stroke-linecap="round" stroke-linejoin="round"/>
<path d="M11.9983 12.3074C10.8147 13.8218 3.60359 14.1357 6.30318 7.26587C9.43212 8.46499 10.5309 9.69732 11.9983 12.3074Z" stroke="black" stroke-width="1.5" stroke-linecap="round" stroke-linejoin="round"/>
<path d="M17.6971 7.26604C17.8576 6.55191 17.8346 4.69892 16.4587 3" stroke="black" stroke-width="1.5" stroke-linecap="round" stroke-linejoin="round"/>
<path d="M6.3005 7.26604C6.14001 6.55191 6.163 4.69892 7.53889 3" stroke="black" stroke-width="1.5" stroke-linecap="round" stroke-linejoin="round"/>
<path d="M18.5999 15.5184C13.7048 16.7833 10.4374 16.7848 5.3999 15.5047" stroke="black" stroke-width="1.5" stroke-linecap="round" stroke-linejoin="round"/>
<path d="M17.9931 15.6768C17.7451 15.7899 17.4192 15.9442 17.0905 16.1165C15.23 17.0915 13.1689 20.4142 13.1689 20.4142C12.5286 21.2177 11.3493 21.1906 10.7427 20.3584C10.7427 20.3584 8.76289 17.0544 6.99385 16.1165C6.62399 15.9204 6.27151 15.7666 6.0054 15.6598" stroke="black" stroke-width="1.5" stroke-linecap="round" stroke-linejoin="round"/>
</svg>
