<svg width="24" height="24" viewBox="0 0 24 24" fill="none" xmlns="http://www.w3.org/2000/svg">
<path d="M16.9926 11.3809C19.4087 12.1805 21 13.544 21 15.0917C21 17.5544 16.9706 19.5509 12 19.5509C7.02944 19.5509 3 17.5544 3 15.0917C3 13.544 4.59126 12.1805 7.00736 11.3809" stroke="black" stroke-width="1.5" stroke-linecap="round" stroke-linejoin="round"/>
<path d="M16.8378 6.00528C16.8378 6.86467 14.647 7.56135 11.9444 7.56135C9.24183 7.56135 7.05096 6.86467 7.05096 6.00528C7.05096 5.14589 9.24183 4.44922 11.9444 4.44922C14.647 4.44922 16.8378 5.14589 16.8378 6.00528Z" stroke="black" stroke-width="1.5" stroke-linecap="round" stroke-linejoin="round"/>
<path d="M16.8378 6.10248C16.3972 9.42826 16.4016 11.2555 16.8378 14.451C16.8378 15.3104 14.647 16.007 11.9444 16.007C9.36428 16.007 7.25055 15.3721 7.0643 14.5667C7.04678 14.491 7.05791 14.4114 7.07104 14.3348C7.61374 11.1668 7.53152 9.36018 7.05096 6.10248" stroke="black" stroke-width="1.5" stroke-linecap="round" stroke-linejoin="round"/>
</svg>
