<svg width="24px"  height="24px"  viewBox="0 0 25 24" fill="none" xmlns="http://www.w3.org/2000/svg">
<path fill-rule="evenodd" clip-rule="evenodd" d="M11.2767 2.3125L13.7889 2.3125C15.2984 2.31374 16.5384 3.46629 16.6772 4.93972H18.5637C20.6182 4.94094 22.2832 6.60677 22.2832 8.66118V12.0179C22.2832 12.2909 22.1348 12.5424 21.8959 12.6744C19.2508 14.1357 16.2956 14.9363 13.2827 15.0126V16.7353C13.2827 17.1496 12.9469 17.4853 12.5327 17.4853C12.1185 17.4853 11.7827 17.1496 11.7827 16.7353V15.0128C8.76891 14.9378 5.81414 14.137 3.17013 12.6742C2.93138 12.5421 2.7832 12.2908 2.7832 12.0179V8.65923C2.7832 6.60482 4.44882 4.93874 6.50369 4.93972H8.38835C8.52714 3.46629 9.76714 2.31374 11.2767 2.3125ZM9.90249 4.93972C10.0304 4.29717 10.5969 3.81318 11.277 3.8125H13.7885C14.4687 3.81318 15.0351 4.29717 15.1631 4.93972H9.90249ZM12.574 13.5171C12.5603 13.5163 12.5466 13.5159 12.5327 13.5159C12.52 13.5159 12.5073 13.5163 12.4947 13.5169C9.63603 13.5575 6.81495 12.8871 4.2832 11.5694V8.65923C4.2832 7.43293 5.27746 6.43899 6.50324 6.43972H18.5632C19.7896 6.44044 20.7832 7.43472 20.7832 8.66118V11.5691C18.2511 12.8851 15.4306 13.5556 12.574 13.5171ZM3.50017 14.8255C3.91321 14.7944 4.27326 15.104 4.30437 15.5171L4.48826 17.9592C4.58247 19.2151 5.62836 20.1857 6.88741 20.1864H18.1789C19.4379 20.1857 20.4838 19.2153 20.578 17.9594L20.7609 15.5174C20.7918 15.1043 21.1518 14.7945 21.5648 14.8255C21.9779 14.8564 22.2877 15.2163 22.2567 15.6294L22.0738 18.0716C21.9209 20.1102 20.223 21.6852 18.1797 21.6864H6.88697C4.84382 21.6852 3.14552 20.1104 2.99249 18.0719C2.99249 18.0718 2.9925 18.0719 2.99249 18.0719L2.8086 15.6297C2.7775 15.2166 3.08712 14.8566 3.50017 14.8255Z" fill="#000000" />
</svg>