<svg width="24px"  height="24px"  viewBox="0 0 25 24" fill="none" xmlns="http://www.w3.org/2000/svg">
<path fill-rule="evenodd" clip-rule="evenodd" d="M8.47908 5.11185C8.82406 3.4773 10.2744 2.25 12.0126 2.25H13.0537C14.791 2.25 16.2421 3.47719 16.5872 5.11185H17.3787C18.698 5.11185 19.883 5.6456 20.7379 6.4177C21.5829 7.18092 22.1684 8.23852 22.1684 9.33528V16.394C22.1684 19.5388 20.0876 21.75 17.3787 21.75H7.68716C4.97824 21.75 2.89746 19.5388 2.89746 16.394V9.33528C2.89746 8.23852 3.48296 7.18092 4.32799 6.4177C5.18286 5.6456 6.36787 5.11185 7.68716 5.11185H8.47908ZM10.0381 5.11185H15.0281C14.7257 4.31588 13.9556 3.75 13.0537 3.75H12.0126C11.1101 3.75 10.3403 4.31581 10.0381 5.11185ZM5.33339 7.53088C4.71632 8.08821 4.39746 8.76733 4.39746 9.33528V11.9191C5.68056 12.1593 6.96349 12.3427 8.24632 12.4692V12.2981C8.24632 11.8839 8.58211 11.5481 8.99632 11.5481C9.41053 11.5481 9.74632 11.8839 9.74632 12.2981V12.5914C11.6042 12.7105 13.4619 12.7105 15.3197 12.5914V12.2981C15.3197 11.8839 15.6555 11.5481 16.0697 11.5481C16.4839 11.5481 16.8197 11.8839 16.8197 12.2981V12.4693C18.1025 12.3427 19.3854 12.1594 20.6684 11.9192V9.33528C20.6684 8.76733 20.3496 8.08821 19.7325 7.53088C19.1253 6.98244 18.2904 6.61185 17.3787 6.61185H7.68716C6.77546 6.61185 5.94063 6.98244 5.33339 7.53088ZM20.6684 13.4444C19.3856 13.6766 18.1027 13.854 16.8197 13.9763V14.3229C16.8197 14.7371 16.4839 15.0729 16.0697 15.0729C15.6555 15.0729 15.3197 14.7371 15.3197 14.3229V14.0944C13.4619 14.2096 11.6041 14.2095 9.74632 14.0943V14.3229C9.74632 14.7371 9.41053 15.0729 8.99632 15.0729C8.58211 15.0729 8.24632 14.7371 8.24632 14.3229V13.9763C6.96331 13.8539 5.68035 13.6765 4.39746 13.4443V16.394C4.39746 18.8438 5.93412 20.25 7.68716 20.25H17.3787C19.1318 20.25 20.6684 18.8438 20.6684 16.394V13.4444Z" fill="#000000" />
</svg>