<svg width="24px"  height="24px"  viewBox="0 0 25 24" fill="none" xmlns="http://www.w3.org/2000/svg">
<path d="M12.25 8.88555C12.6641 8.88555 13 9.22149 13 9.63555V16.3875C13 16.8016 12.6641 17.1375 12.25 17.1375C12.0312 17.1375 11.8345 17.0438 11.6973 16.8934C11.5747 16.7605 11.5 16.5828 11.5 16.3875V9.63555C11.5 9.22149 11.8359 8.88555 12.25 8.88555Z" fill="#000000" />
<path fill-rule="evenodd" clip-rule="evenodd" d="M10.7124 20.8582C9.54102 20.1785 7.58643 19.2664 5.37061 19.1082C3.78711 18.993 2.5 17.7156 2.5 16.0809V5.73906C2.5 3.90899 4.09814 2.52227 5.89551 2.71758C8.25098 2.97735 10.2656 3.93438 11.4648 4.62969C11.9526 4.91289 12.5474 4.91289 13.0361 4.62969C14.2344 3.93438 16.249 2.97735 18.605 2.71758C20.4009 2.52227 22 3.90899 22 5.73906V16.0809C22 17.7156 20.7129 18.993 19.1294 19.1082C16.9136 19.2664 14.959 20.1785 13.7876 20.8582C12.834 21.4109 11.666 21.4109 10.7124 20.8582ZM5.47852 17.6121C8.01465 17.7938 10.1973 18.825 11.4644 19.5594C11.9526 19.8426 12.5474 19.8426 13.0356 19.5594C13.7627 19.1375 14.791 18.618 16.0146 18.2176C16.9238 17.9207 17.9404 17.6902 19.0215 17.6121C19.499 17.577 19.9082 17.3484 20.1743 17.0145C20.3799 16.7547 20.5 16.4305 20.5 16.0809V5.73906C20.5 4.825 19.6978 4.10821 18.7681 4.20977C16.7007 4.43633 14.8931 5.28594 13.7876 5.92852C12.834 6.4793 11.666 6.4793 10.7119 5.92656C9.60693 5.28594 7.79932 4.43633 5.73242 4.20977C4.80127 4.10821 4 4.825 4 5.73906V16.0809C4 16.8816 4.63135 17.5496 5.47852 17.6121Z" fill="#000000" />
</svg>