<svg width="24px"  height="24px"  viewBox="0 0 25 24" fill="none" xmlns="http://www.w3.org/2000/svg">
<path fill-rule="evenodd" clip-rule="evenodd" d="M7.60422 3.75C6.22315 3.75 5.10449 4.86895 5.10449 6.24876V14.4166C5.82168 13.822 6.74268 13.4645 7.74725 13.4645H16.5011C16.76 13.4645 16.9683 13.2556 16.9683 12.9983V4.21622C16.9683 3.95889 16.76 3.75 16.5011 3.75H7.60422ZM3.60449 17.6072V6.24876C3.60449 4.04023 5.39502 2.25 7.60422 2.25H16.5011C17.5868 2.25 18.4683 3.1289 18.4683 4.21622V12.9983C18.4683 14.0856 17.5868 14.9645 16.5011 14.9645H7.74725C6.28752 14.9645 5.10449 16.1475 5.10449 17.6072C5.10449 19.067 6.28752 20.25 7.74725 20.25H19.4949C19.753 20.25 19.9621 20.0409 19.9621 19.7828V7.1147C19.9621 6.70049 20.2979 6.3647 20.7121 6.3647C21.1263 6.3647 21.4621 6.70049 21.4621 7.1147V19.7828C21.4621 20.8694 20.5815 21.75 19.4949 21.75H7.74725C5.45909 21.75 3.60449 19.8954 3.60449 17.6072ZM7.32488 17.6212C7.32488 17.207 7.66067 16.8712 8.07488 16.8712H17.5293C17.9435 16.8712 18.2793 17.207 18.2793 17.6212C18.2793 18.0354 17.9435 18.3712 17.5293 18.3712H8.07488C7.66067 18.3712 7.32488 18.0354 7.32488 17.6212Z" fill="#000000" />
</svg>