<svg width="24px"  height="24px"  viewBox="0 0 25 24" fill="none" xmlns="http://www.w3.org/2000/svg">
<path d="M18.0112 3.36101C18.4253 3.36101 18.7612 3.69695 18.7612 4.11101V9.32305C18.7612 9.59844 18.6094 9.85235 18.3657 9.98321C18.1221 10.1141 17.8267 10.1004 17.5962 9.94805L17.0498 9.58477C16.7876 9.41094 16.4463 9.41094 16.1836 9.58477L15.6372 9.94805C15.4072 10.1004 15.1113 10.1141 14.8682 9.98321C14.6245 9.85235 14.4727 9.59844 14.4727 9.32305V4.89226C14.4727 4.61492 14.624 4.37078 14.8491 4.24187C14.9595 4.17742 15.0869 4.14226 15.2227 4.14226C15.6367 4.14226 15.9727 4.4782 15.9727 4.89226V8.04766C16.3931 7.92461 16.8408 7.92461 17.2612 8.04766V4.11101C17.2612 3.87859 17.3672 3.66961 17.5332 3.53289C17.6631 3.42546 17.8296 3.36101 18.0112 3.36101Z" fill="#000000" />
<path fill-rule="evenodd" clip-rule="evenodd" d="M10.7124 20.8582C9.54102 20.1785 7.58643 19.2664 5.37061 19.1082C4.40771 19.0379 3.5542 18.5379 3.0332 17.7898C2.69775 17.3074 2.5 16.7215 2.5 16.0809V5.73906C2.5 3.90899 4.09814 2.52227 5.89551 2.71758C8.25098 2.97735 10.2656 3.93438 11.4648 4.62969C11.7021 4.76836 11.9653 4.83867 12.229 4.84063C12.5068 4.84453 12.7856 4.77422 13.0361 4.62969C13.8604 4.15117 15.0718 3.54961 16.5142 3.1336C17.168 2.9461 17.8696 2.79766 18.605 2.71758C20.4009 2.52227 22 3.90899 22 5.73906V16.0809C22 17.7156 20.7129 18.993 19.1294 19.1082C16.9136 19.2664 14.959 20.1785 13.7876 20.8582C12.834 21.4109 11.666 21.4109 10.7124 20.8582ZM13 6.24883C13.272 6.18047 13.5371 6.07305 13.7876 5.92852C14.8931 5.28594 16.7007 4.43633 18.7681 4.20977C19.6978 4.10821 20.5 4.825 20.5 5.73906V16.0809C20.5 16.8816 19.8687 17.5496 19.0215 17.6121C16.4854 17.7938 14.3027 18.825 13.0356 19.5594C13.0234 19.5672 13.0122 19.573 13 19.5789V6.24883ZM11.5 6.24883C11.228 6.18047 10.9624 6.0711 10.7119 5.92656C9.60693 5.28594 7.79932 4.43633 5.73242 4.20977C5.07422 4.1375 4.48096 4.47344 4.18994 5.00078C4.06885 5.21953 4 5.47149 4 5.73906V16.0809C4 16.8816 4.63135 17.5496 5.47852 17.6121C8.01465 17.7938 10.1973 18.825 11.4644 19.5594C11.4766 19.5672 11.4878 19.573 11.5 19.5789V6.24883Z" fill="#000000" />
</svg>