<svg width="24px"  height="24px"  viewBox="0 0 25 24" fill="none" xmlns="http://www.w3.org/2000/svg">
<path fill-rule="evenodd" clip-rule="evenodd" d="M7.68087 3.75C6.66384 3.75 5.83984 4.574 5.83984 5.59103V15.7813C6.34179 15.4614 6.93774 15.2762 7.57676 15.2762H19.2205V4.1987C19.2205 3.9509 19.0198 3.75 18.7718 3.75H7.68087ZM19.2218 16.7762H7.57676C6.61792 16.7762 5.83984 17.5536 5.83984 18.5131C5.83984 19.4725 6.61792 20.25 7.57676 20.25H18.7786C19.0257 20.25 19.2259 20.0507 19.2273 19.8043L19.2218 16.7762ZM4.33984 18.5131V5.59103C4.33984 3.74557 5.83541 2.25 7.68087 2.25H18.7718C19.849 2.25 20.7205 3.12326 20.7205 4.1987V16.0262L20.7273 19.8038L20.7273 19.8074C20.7241 20.8817 19.8523 21.75 18.7786 21.75H7.57676C5.78988 21.75 4.33984 20.3013 4.33984 18.5131ZM8.45462 6.27906C8.79617 5.91284 9.26988 5.72572 9.78404 5.72572H15.4175C15.9324 5.72572 16.4068 5.91238 16.7486 6.2796C17.0847 6.64072 17.2368 7.11562 17.2368 7.5995V9.37712C17.2368 9.86074 17.0846 10.3355 16.7487 10.6965C16.4071 11.0637 15.9329 11.2509 15.4175 11.2509H9.78404C9.26892 11.2509 8.79488 11.0635 8.4534 10.6967C8.11754 10.3359 7.96474 9.86121 7.96474 9.37712V7.5995C7.96474 7.11422 8.11846 6.6395 8.45462 6.27906ZM9.55158 7.30213C9.51729 7.33891 9.46474 7.42608 9.46474 7.5995V9.37712C9.46474 9.55077 9.51723 9.63801 9.55135 9.67466C9.57984 9.70526 9.64045 9.75091 9.78404 9.75091H15.4175C15.5619 9.75091 15.6223 9.70511 15.6504 9.67484C15.6843 9.63841 15.7368 9.55123 15.7368 9.37712V7.5995C15.7368 7.42468 15.6842 7.33769 15.6506 7.30159C15.6227 7.27159 15.5623 7.22572 15.4175 7.22572H9.78404C9.64143 7.22572 9.58049 7.27113 9.55158 7.30213Z" fill="#000000" />
</svg>