<svg width="24px"  height="24px"  viewBox="0 0 25 24" fill="none" xmlns="http://www.w3.org/2000/svg">
<path fill-rule="evenodd" clip-rule="evenodd" d="M11.313 16.625C10.771 16.3105 9.88477 15.9023 8.89502 15.8301C7.93994 15.7598 7.14795 14.9863 7.14795 13.9805V8.97852C7.14795 7.85742 8.12793 7.01367 9.22021 7.13281C10.4341 7.26562 11.4609 7.75781 12.064 8.10742C12.1802 8.17383 12.3198 8.17578 12.438 8.10742C13.0391 7.75781 14.0669 7.26562 15.2812 7.13281C16.374 7.01367 17.3521 7.85938 17.3521 8.97852V13.9805C17.3521 14.9863 16.5601 15.7598 15.604 15.8301C14.6152 15.9023 13.73 16.3105 13.188 16.625C12.6069 16.9629 11.8931 16.9629 11.313 16.625ZM11.5 9.5C11.4365 9.47266 11.373 9.44141 11.312 9.40625C10.8008 9.10938 9.98096 8.72656 9.05713 8.625C8.83008 8.59961 8.64795 8.77344 8.64795 8.97852V13.9805C8.64795 14.0547 8.67334 14.1289 8.72021 14.1895C8.78174 14.2676 8.87939 14.3242 9.00293 14.334C9.98486 14.4043 10.8564 14.7207 11.5 15.0293V9.5ZM13 15.0293C13.6436 14.7207 14.5146 14.4043 15.4961 14.334C15.7158 14.3184 15.8521 14.1523 15.8521 13.9805V8.97852C15.8521 8.86719 15.7988 8.76562 15.7144 8.70117C15.6426 8.64453 15.5479 8.61328 15.4438 8.625C14.519 8.72656 13.6978 9.10938 13.187 9.40625C13.126 9.44141 13.0635 9.47461 13 9.50195V15.0293Z" fill="#000000" />
<path fill-rule="evenodd" clip-rule="evenodd" d="M3.99023 3.89648C4.9751 2.8418 6.37695 2.25 8.03223 2.25H16.4668C18.126 2.25 19.5288 2.8418 20.5132 3.89844C21.4912 4.94922 22 6.39844 22 8.02734V15.9727C22 17.6016 21.4912 19.0508 20.5132 20.1016C19.5288 21.1602 18.126 21.75 16.4658 21.75H8.03223C6.37305 21.75 4.97021 21.1582 3.98682 20.1016C3.00781 19.0508 2.5 17.6016 2.5 15.9727V8.02734C2.5 6.39844 3.01123 4.94727 3.99023 3.89648ZM5.08691 4.91992C4.41016 5.64648 4 6.70898 4 8.02734V15.9727C4 17.291 4.40918 18.3535 5.08496 19.0801C5.75488 19.8008 6.74316 20.25 8.03223 20.25H16.4658C17.1055 20.25 17.6714 20.1387 18.1616 19.9395C18.6587 19.7383 19.0771 19.4434 19.415 19.0801C20.0908 18.3535 20.5 17.291 20.5 15.9727V8.02734C20.5 6.70898 20.0908 5.64648 19.415 4.91992C18.7451 4.19922 17.7559 3.75 16.4668 3.75H8.03223C7.10645 3.75 6.3335 3.98438 5.72266 4.38477C5.48633 4.53906 5.27441 4.71875 5.08691 4.91992Z" fill="#000000" />
</svg>