<svg width="24px"  height="24px"  viewBox="0 0 25 24" fill="none" xmlns="http://www.w3.org/2000/svg">
<path d="M14.937 10.0574C14.7842 9.67266 14.9722 9.23711 15.3569 9.08477L17.543 8.21758C17.9282 8.06524 18.3638 8.25274 18.5161 8.6375C18.6689 9.02227 18.481 9.45781 18.0962 9.61211L15.9111 10.4773C15.5259 10.6316 15.0898 10.4422 14.937 10.0574Z" fill="#000000" />
<path d="M14.937 14.5535C14.7842 14.1688 14.9722 13.7332 15.3569 13.5809L17.543 12.7137C17.9282 12.5613 18.3638 12.7488 18.5161 13.1336C18.6689 13.5184 18.481 13.9539 18.0962 14.1082L15.9111 14.9754C15.5259 15.1277 15.0898 14.9383 14.937 14.5535Z" fill="#000000" />
<path d="M9.375 10.0535C9.22217 10.4383 8.78613 10.6277 8.40088 10.4754L6.21582 9.60821C5.83105 9.45391 5.64307 9.01836 5.79492 8.6336C5.89209 8.38946 6.10303 8.22539 6.34277 8.17656C6.48096 8.14922 6.62842 8.15899 6.76904 8.21367L8.9541 9.08086C9.33887 9.23321 9.52783 9.66875 9.375 10.0535Z" fill="#000000" />
<path d="M9.375 14.5516C9.22217 14.9363 8.78613 15.1238 8.40088 14.9715L6.21582 14.1043C6.08984 14.0535 5.98535 13.9734 5.90674 13.8758C5.74463 13.6727 5.69287 13.3914 5.79492 13.1316C5.94824 12.7469 6.38379 12.5574 6.76904 12.7098L8.9541 13.577C9.33887 13.7293 9.52783 14.1668 9.375 14.5516Z" fill="#000000" />
<path fill-rule="evenodd" clip-rule="evenodd" d="M10.7119 20.8582C9.54102 20.1785 7.58594 19.2664 5.37109 19.1082C3.78711 18.993 2.5 17.7156 2.5 16.0809V5.73906C2.5 3.90899 4.09814 2.52227 5.89502 2.71758C8.25098 2.97735 10.2651 3.93438 11.4648 4.62969C11.9531 4.91289 12.5469 4.91289 13.0361 4.62969C14.2349 3.93438 16.249 2.97735 18.605 2.71758C20.4009 2.52227 22 3.90899 22 5.73906V16.0809C22 17.7156 20.7129 18.993 19.1289 19.1082C16.9141 19.2664 14.959 20.1785 13.7881 20.8582C12.834 21.4109 11.666 21.4109 10.7119 20.8582ZM13 6.24883V19.5789C13.0122 19.573 13.0239 19.5672 13.0361 19.5594C14.3032 18.825 16.4849 17.7938 19.022 17.6121C19.8691 17.5496 20.5 16.8816 20.5 16.0809V5.73906C20.5 4.825 19.6982 4.10821 18.7681 4.20977C17.6431 4.33281 16.5957 4.64141 15.6963 4.99883C14.9419 5.29961 14.292 5.6336 13.7881 5.92852C13.5376 6.07305 13.2725 6.18047 13 6.24883ZM11.5 6.24883C11.2275 6.18047 10.9624 6.0711 10.7119 5.92656C9.60693 5.28594 7.7998 4.43633 5.73193 4.20977C4.80078 4.10821 4 4.825 4 5.73906V16.0809C4 16.8816 4.63086 17.5496 5.479 17.6121C7.15967 17.7332 8.68457 18.2254 9.89062 18.7586C10.5049 19.0301 11.0361 19.3113 11.4639 19.5594C11.4761 19.5672 11.4878 19.573 11.5 19.5789V6.24883Z" fill="#000000" />
</svg>