<svg width="24px"  height="24px"  viewBox="0 0 25 24" fill="none" xmlns="http://www.w3.org/2000/svg">
<path d="M9.375 10.0535C9.22217 10.4383 8.78613 10.6277 8.40088 10.4754L6.21582 9.60821C5.83105 9.45391 5.64307 9.01836 5.79492 8.6336C5.94824 8.24883 6.38379 8.06133 6.76904 8.21367L8.9541 9.08086C9.33887 9.23321 9.52783 9.66875 9.375 10.0535Z" fill="#000000" />
<path d="M9.375 14.5516C9.22217 14.9363 8.78613 15.1238 8.40088 14.9715L6.21582 14.1043C6.03418 14.032 5.89648 13.8973 5.81787 13.7352C5.72949 13.5516 5.71484 13.3348 5.79492 13.1316C5.84668 13.0027 5.93066 12.8953 6.03369 12.8152C6.23633 12.657 6.51367 12.6082 6.76904 12.7098L8.9541 13.577C9.33887 13.7293 9.52783 14.1668 9.375 14.5516Z" fill="#000000" />
<path fill-rule="evenodd" clip-rule="evenodd" d="M10.7119 20.8582C9.54102 20.1785 7.58594 19.2664 5.37109 19.1082C3.78711 18.993 2.5 17.7156 2.5 16.0809V5.73906C2.5 3.90899 4.09814 2.52227 5.89502 2.71758C8.25098 2.97735 10.2651 3.93438 11.4648 4.62969C11.9531 4.91289 12.5469 4.91289 13.0361 4.62969C14.2349 3.93438 16.249 2.97735 18.605 2.71758C20.4009 2.52227 22 3.90899 22 5.73906V16.0809C22 17.7156 20.7129 18.993 19.1289 19.1082C16.9141 19.2664 14.959 20.1785 13.7881 20.8582C12.834 21.4109 11.666 21.4109 10.7119 20.8582ZM11.5 6.24883C11.2275 6.18047 10.9624 6.0711 10.7119 5.92656C9.60693 5.28594 7.7998 4.43633 5.73193 4.20977C4.80078 4.10821 4 4.825 4 5.73906V16.0809C4 16.8816 4.63086 17.5496 5.479 17.6121C6.81445 17.7078 8.05176 18.0398 9.10889 18.4383C10.0591 18.7977 10.8638 19.2117 11.4639 19.5594C11.4761 19.5672 11.4878 19.573 11.5 19.5789V6.24883ZM13 19.5789C13.0122 19.573 13.0239 19.5672 13.0361 19.5594C14.3032 18.825 16.4849 17.7938 19.022 17.6121C19.8691 17.5496 20.5 16.8816 20.5 16.0809V5.73906C20.5 4.825 19.6982 4.10821 18.7681 4.20977C16.7002 4.43633 14.8931 5.28594 13.7881 5.92852C13.5376 6.07305 13.2725 6.18047 13 6.24883V19.5789Z" fill="#000000" />
</svg>