<svg width="24px"  height="24px"  viewBox="0 0 25 24" fill="none" xmlns="http://www.w3.org/2000/svg">
<path d="M14.936 14.5535C14.7842 14.1688 14.9722 13.7332 15.3569 13.5809L17.542 12.7137C17.9268 12.5613 18.3628 12.7488 18.5161 13.1336C18.5986 13.3406 18.5815 13.5633 18.4878 13.7488C18.4077 13.907 18.2725 14.0379 18.0952 14.1082L15.9102 14.9754C15.5249 15.1277 15.0889 14.9383 14.936 14.5535Z" fill="#000000" />
<path d="M18.0122 3.36078C18.4258 3.36078 18.7622 3.69672 18.7622 4.11078V9.32305C18.7622 9.43438 18.7373 9.5418 18.6914 9.63946C18.624 9.78399 18.5112 9.90508 18.3662 9.98321C18.123 10.1141 17.8271 10.1004 17.5972 9.94805L17.0498 9.58477C16.7881 9.41094 16.4468 9.41094 16.1841 9.58477L15.6382 9.94805C15.4082 10.1004 15.1118 10.1141 14.8691 9.98321C14.625 9.85235 14.4731 9.59844 14.4731 9.32305V4.89203C14.4731 4.47797 14.8091 4.14203 15.2231 4.14203C15.6372 4.14203 15.9731 4.47797 15.9731 4.89203V8.04766C16.3936 7.92461 16.8413 7.92461 17.2622 8.04766V4.11078C17.2622 3.69672 17.5972 3.36078 18.0122 3.36078Z" fill="#000000" />
<path d="M9.375 10.0535C9.22217 10.4383 8.78613 10.6277 8.40088 10.4754L6.21582 9.60821C5.83105 9.45391 5.64307 9.01836 5.79492 8.6336C5.94824 8.24883 6.38379 8.06133 6.76904 8.21367L8.9541 9.08086C9.14062 9.15508 9.28125 9.29571 9.35938 9.46367C9.44189 9.64336 9.45361 9.85625 9.375 10.0535Z" fill="#000000" />
<path d="M9.375 14.5516C9.22217 14.9363 8.78613 15.1238 8.40088 14.9715L6.21582 14.1043C5.83105 13.952 5.64307 13.5164 5.79492 13.1316C5.94824 12.7469 6.38379 12.5574 6.76904 12.7098L8.9541 13.577C9.33887 13.7293 9.52783 14.1668 9.375 14.5516Z" fill="#000000" />
<path fill-rule="evenodd" clip-rule="evenodd" d="M7.48535 19.4832C6.82275 19.2977 6.11133 19.1609 5.37109 19.1082C3.78711 18.993 2.5 17.7156 2.5 16.0809V5.73906C2.5 3.90899 4.09814 2.52227 5.89502 2.71758C8.25098 2.97735 10.2651 3.93438 11.4648 4.62969C11.9531 4.91289 12.5469 4.91289 13.0361 4.62969C14.2349 3.93438 16.249 2.97735 18.605 2.71758C20.4009 2.52227 22 3.90899 22 5.73906V16.0809C22 17.7156 20.7129 18.993 19.1289 19.1082C16.9141 19.2664 14.959 20.1785 13.7881 20.8582C12.834 21.4109 11.666 21.4109 10.7119 20.8582C9.93213 20.4051 8.80518 19.8504 7.48535 19.4832ZM13 6.24883C13.2725 6.18047 13.5376 6.07305 13.7881 5.92852C14.8931 5.28594 16.7002 4.43633 18.7681 4.20977C19.6982 4.10821 20.5 4.825 20.5 5.73906V16.0809C20.5 16.8816 19.8691 17.5496 19.022 17.6121C16.4849 17.7938 14.3032 18.825 13.0361 19.5594C13.0239 19.5672 13.0122 19.573 13 19.5789V6.24883ZM11.5 6.24883C11.2275 6.18047 10.9624 6.0711 10.7119 5.92656C9.60693 5.28594 7.7998 4.43633 5.73193 4.20977C4.80078 4.10821 4 4.825 4 5.73906V16.0809C4 16.8816 4.63086 17.5496 5.479 17.6121C8.01514 17.7938 10.1968 18.825 11.4639 19.5594C11.4761 19.5672 11.4878 19.573 11.5 19.5789V6.24883Z" fill="#000000" />
</svg>