<svg width="24px"  height="24px"  viewBox="0 0 25 24" fill="none" xmlns="http://www.w3.org/2000/svg">
<path fill-rule="evenodd" clip-rule="evenodd" d="M7.55078 19.5008C6.86963 19.3074 6.13574 19.1629 5.37109 19.1082C3.78711 18.993 2.5 17.7156 2.5 16.0809V5.73906C2.5 3.90899 4.09814 2.52227 5.89502 2.71758C8.25098 2.97735 10.2651 3.93438 11.4648 4.62969C11.7285 4.78203 12.0239 4.85235 12.3164 4.84063C12.5649 4.83086 12.8115 4.76055 13.0361 4.62969C14.2349 3.93438 16.249 2.97735 18.605 2.71758C20.4009 2.52227 22 3.90899 22 5.73906V16.0809C22 17.7156 20.7129 18.993 19.1289 19.1082C17.5757 19.2195 16.1504 19.7 15.0337 20.2117C14.5576 20.4305 14.1377 20.6551 13.7881 20.8582C12.834 21.4109 11.666 21.4109 10.7119 20.8582C9.94531 20.4129 8.84229 19.868 7.55078 19.5008ZM11.5 6.24883C11.2275 6.18047 10.9624 6.0711 10.7119 5.92656C10.127 5.58672 9.34521 5.19024 8.43213 4.85821C7.62061 4.56133 6.70508 4.31719 5.73193 4.20977C4.80078 4.10821 4 4.825 4 5.73906V16.0809C4 16.5125 4.18311 16.9051 4.48486 17.1844C4.74268 17.4246 5.0874 17.5828 5.479 17.6121C8.01514 17.7938 10.1968 18.825 11.4639 19.5594C11.4761 19.5672 11.4878 19.573 11.5 19.5789V6.24883ZM13 19.5789C13.0122 19.573 13.0239 19.5672 13.0361 19.5594C13.8442 19.0906 15.0239 18.5008 16.4307 18.0906C17.23 17.8563 18.1021 17.6785 19.022 17.6121C19.8691 17.5496 20.5 16.8816 20.5 16.0809V5.73906C20.5 4.825 19.6982 4.10821 18.7681 4.20977C16.7002 4.43633 14.8931 5.28594 13.7881 5.92852C13.5376 6.07305 13.2725 6.18047 13 6.24883V19.5789Z" fill="#000000" />
</svg>