<svg width="24px"  height="24px"  viewBox="0 0 25 24" fill="none" xmlns="http://www.w3.org/2000/svg">
<path fill-rule="evenodd" clip-rule="evenodd" d="M7.68087 3.75C6.66384 3.75 5.83984 4.574 5.83984 5.59103V15.781C6.34167 15.4613 6.93754 15.2762 7.57676 15.2762H8.14194V3.75H7.68087ZM9.64194 3.75V15.2762H19.2205V4.1987C19.2205 3.95129 19.0192 3.75 18.7718 3.75H9.64194ZM19.2218 16.7762H8.92372C8.91318 16.7766 8.90259 16.7768 8.89194 16.7768C8.8813 16.7768 8.87071 16.7766 8.86017 16.7762H7.57676C6.61714 16.7762 5.83984 17.5535 5.83984 18.5131C5.83984 19.4727 6.61714 20.25 7.57676 20.25H18.7786C19.0257 20.25 19.2259 20.0507 19.2273 19.8043L19.2218 16.7762ZM4.33984 18.5131V5.59103C4.33984 3.74557 5.83541 2.25 7.68087 2.25H18.7718C19.8476 2.25 20.7205 3.12287 20.7205 4.1987V16.0262L20.7273 19.8038L20.7273 19.8074C20.7241 20.8817 19.8523 21.75 18.7786 21.75H7.57676C5.78871 21.75 4.33984 20.3011 4.33984 18.5131ZM11.763 7.13133C11.763 6.71712 12.0988 6.38133 12.513 6.38133H13.9861C14.4003 6.38133 14.7361 6.71712 14.7361 7.13133C14.7361 7.54555 14.4003 7.88133 13.9861 7.88133H12.513C12.0988 7.88133 11.763 7.54555 11.763 7.13133ZM11.763 10.0227C11.763 9.60849 12.0988 9.2727 12.513 9.2727H15.8416C16.2558 9.2727 16.5916 9.60849 16.5916 10.0227C16.5916 10.4369 16.2558 10.7727 15.8416 10.7727H12.513C12.0988 10.7727 11.763 10.4369 11.763 10.0227Z" fill="#000000" />
</svg>