<svg width="24px"  height="24px"  viewBox="0 0 25 24" fill="none" xmlns="http://www.w3.org/2000/svg">
<path fill-rule="evenodd" clip-rule="evenodd" d="M7.68087 3.75C6.66384 3.75 5.83984 4.574 5.83984 5.59103V15.781C6.34167 15.4613 6.93754 15.2762 7.57676 15.2762H19.2205V4.1987C19.2205 3.95129 19.0192 3.75 18.7718 3.75H7.68087ZM19.2218 16.7762H7.57676C6.61714 16.7762 5.83984 17.5535 5.83984 18.5131C5.83984 19.4727 6.61714 20.25 7.57676 20.25H18.7786C19.0257 20.25 19.2259 20.0507 19.2273 19.8043L19.2218 16.7762ZM4.33984 18.5131V5.59103C4.33984 3.74557 5.83541 2.25 7.68087 2.25H18.7718C19.8476 2.25 20.7205 3.12287 20.7205 4.1987V16.0262L20.7273 19.8038L20.7273 19.8074C20.7241 20.8817 19.8523 21.75 18.7786 21.75H7.57676C5.78871 21.75 4.33984 20.3011 4.33984 18.5131ZM8.88973 7.13133C8.88973 6.71712 9.22551 6.38133 9.63973 6.38133H12.3845C12.7987 6.38133 13.1345 6.71712 13.1345 7.13133C13.1345 7.54555 12.7987 7.88133 12.3845 7.88133H9.63973C9.22551 7.88133 8.88973 7.54555 8.88973 7.13133ZM8.88973 11.1173C8.88973 10.7031 9.22551 10.3673 9.63973 10.3673H15.0835C15.4977 10.3673 15.8335 10.7031 15.8335 11.1173C15.8335 11.5315 15.4977 11.8673 15.0835 11.8673H9.63973C9.22551 11.8673 8.88973 11.5315 8.88973 11.1173Z" fill="#000000" />
</svg>