<svg width="24px"  height="24px"  viewBox="0 0 25 24" fill="none" xmlns="http://www.w3.org/2000/svg">
<path fill-rule="evenodd" clip-rule="evenodd" d="M8.42441 12.7109C8.92147 12.7109 9.32441 13.1139 9.32441 13.6109V13.6927C9.32441 14.1897 8.92147 14.5927 8.42441 14.5927C7.92736 14.5927 7.52441 14.1897 7.52441 13.6927V13.6109C7.52441 13.1139 7.92736 12.7109 8.42441 12.7109ZM12.5063 12.7109C13.0034 12.7109 13.4063 13.1139 13.4063 13.6109V13.6927C13.4063 14.1897 13.0034 14.5927 12.5063 14.5927C12.0093 14.5927 11.6063 14.1897 11.6063 13.6927V13.6109C11.6063 13.1139 12.0093 12.7109 12.5063 12.7109ZM16.6415 12.7109C17.1385 12.7109 17.5415 13.1139 17.5415 13.6109V13.6927C17.5415 14.1897 17.1385 14.5927 16.6415 14.5927C16.1444 14.5927 15.7415 14.1897 15.7415 13.6927V13.6109C15.7415 13.1139 16.1444 12.7109 16.6415 12.7109ZM8.42441 16.3035C8.92147 16.3035 9.32441 16.7065 9.32441 17.2035V17.2853C9.32441 17.7823 8.92147 18.1853 8.42441 18.1853C7.92736 18.1853 7.52441 17.7823 7.52441 17.2853V17.2035C7.52441 16.7065 7.92736 16.3035 8.42441 16.3035ZM12.5063 16.3035C13.0034 16.3035 13.4063 16.7065 13.4063 17.2035V17.2853C13.4063 17.7823 13.0034 18.1853 12.5063 18.1853C12.0093 18.1853 11.6063 17.7823 11.6063 17.2853V17.2035C11.6063 16.7065 12.0093 16.3035 12.5063 16.3035ZM16.6415 16.3035C17.1385 16.3035 17.5415 16.7065 17.5415 17.2035V17.2853C17.5415 17.7823 17.1385 18.1853 16.6415 18.1853C16.1444 18.1853 15.7415 17.7823 15.7415 17.2853V17.2035C15.7415 16.7065 16.1444 16.3035 16.6415 16.3035Z" fill="#000000" />
<path fill-rule="evenodd" clip-rule="evenodd" d="M4.98472 3.82498C5.92677 2.81439 7.26749 2.25 8.84752 2.25H16.2188C17.8027 2.25 19.1438 2.81406 20.0852 3.82536C21.0209 4.83058 21.5057 6.21661 21.5057 7.76854V16.2315C21.5057 17.7834 21.0209 19.1694 20.085 20.1747C19.1435 21.186 17.8021 21.75 16.2178 21.75H8.84752C7.26405 21.75 5.92296 21.1859 4.98149 20.1747C4.04565 19.1695 3.56055 17.7835 3.56055 16.2315V7.76854C3.56055 6.21562 4.04812 4.82972 4.98472 3.82498ZM6.08194 4.84778C5.44719 5.52871 5.06055 6.52708 5.06055 7.76854V16.2315C5.06055 17.4738 5.44577 18.4721 6.07934 19.1526C6.70727 19.827 7.63466 20.25 8.84752 20.25H16.2178C17.4318 20.25 18.3593 19.8269 18.9872 19.1526C19.6207 18.4721 20.0057 17.4739 20.0057 16.2315V7.76854C20.0057 6.52609 19.6207 5.52785 18.9873 4.8474C18.3595 4.17302 17.4322 3.75 16.2188 3.75H8.84752C7.63901 3.75 6.71124 4.17269 6.08194 4.84778ZM7.60691 6.26854C8.06511 5.83087 8.67917 5.65065 9.3177 5.65065H15.752C16.3913 5.65065 17.0061 5.83056 17.4642 6.26921C17.9272 6.71265 18.1323 7.32678 18.1307 7.99601C18.1307 7.9965 18.1307 7.99699 18.1307 7.99748L17.3808 7.99536H18.1307V7.99601V8.31157C18.1307 8.98116 17.9248 9.59555 17.4619 10.0393C17.0039 10.4784 16.3892 10.6592 15.749 10.6592H9.3177C8.67476 10.6592 8.05909 10.4732 7.60173 10.0279C7.14114 9.57943 6.93602 8.96033 6.93602 8.2853V7.99536C6.93602 7.32502 7.14343 6.71126 7.60691 6.26854ZM8.64299 7.35323C8.54191 7.44978 8.43602 7.63337 8.43602 7.99536V8.2853C8.43602 8.65914 8.54421 8.85199 8.64818 8.95323C8.75539 9.05763 8.95555 9.15919 9.3177 9.15919H15.749C16.1169 9.15919 16.3181 9.05787 16.4239 8.95645C16.5248 8.85971 16.6307 8.67528 16.6307 8.31157V7.99536L16.6307 7.99324C16.6318 7.63071 16.5264 7.44807 16.4267 7.35256C16.3216 7.25194 16.1206 7.15065 15.752 7.15065H9.3177C8.95114 7.15065 8.74936 7.25163 8.64299 7.35323Z" fill="#000000" />
</svg>