<svg width="24px"  height="24px"  viewBox="0 0 25 24" fill="none" xmlns="http://www.w3.org/2000/svg">
<path fill-rule="evenodd" clip-rule="evenodd" d="M13.5525 4.98815C12.9033 4.67051 12.1443 4.67051 11.4951 4.98815L4.95931 8.18257C4.95926 8.18259 4.95936 8.18254 4.95931 8.18257C4.05789 8.62352 4.05752 9.90934 4.9601 10.3504L11.669 13.6295C12.2787 13.8668 12.9626 13.8405 13.5557 13.5506L20.0963 10.3543C20.9987 9.9133 20.9987 8.62664 20.0963 8.18559C20.0963 8.18559 20.0963 8.1856 20.0963 8.18559L13.5525 4.98815ZM11.0598 15.0013L11.1436 15.0423C11.2136 15.0765 11.2863 15.0988 11.3594 15.11C12.296 15.4066 13.3186 15.3361 14.2143 14.8983L17.1331 13.4719V17.1766C17.1331 17.738 16.8003 18.2438 16.3051 18.4512C13.7411 19.5252 11.1851 19.5139 8.59 18.4429C8.0904 18.2363 7.75493 17.7292 7.75493 17.1649V13.3952L10.8303 14.8983C10.9059 14.9353 10.9825 14.9696 11.0598 15.0013ZM6.25493 12.6529V17.1649C6.25493 18.3129 6.93511 19.382 8.01743 19.8293C10.9723 21.0488 13.9433 21.0668 16.8846 19.8348C17.9598 19.3844 18.6331 18.3179 18.6331 17.1766V12.7389L20.7549 11.702C20.7593 11.6998 20.7638 11.6976 20.7682 11.6954L20.7501 14.6685C20.7475 15.0827 21.0813 15.4205 21.4955 15.423C21.9097 15.4256 22.2475 15.0919 22.25 14.6776L22.2831 9.26385C22.2834 9.21171 22.2784 9.16079 22.2686 9.11158C22.2164 8.19702 21.7118 7.30557 20.7549 6.83789L14.2117 3.64074C14.2118 3.6408 14.2116 3.64069 14.2117 3.64074C13.1467 3.11985 11.9012 3.1197 10.8362 3.64062L4.30049 6.83499C2.27722 7.82442 2.27734 10.7089 4.30146 11.6981C4.30145 11.6981 4.30147 11.6981 4.30146 11.6981L6.25493 12.6529Z" fill="#000000" />
</svg>