<svg width="24px"  height="24px"  viewBox="0 0 25 24" fill="none" xmlns="http://www.w3.org/2000/svg">
<path fill-rule="evenodd" clip-rule="evenodd" d="M14.8823 2.32727C16.4027 1.93552 17.8842 3.08266 17.8842 4.65315V6.64649C19.1004 6.98965 19.9907 8.10762 19.9907 9.43345V18.8559C19.9907 20.454 18.6957 21.7504 17.0962 21.7504H7.40326C5.80492 21.7504 4.50879 20.4543 4.50879 18.8559V6.69643C4.50879 5.70026 5.18318 4.83063 6.14748 4.58177C6.14749 4.58177 6.14747 4.58177 6.14748 4.58177L14.8823 2.32727ZM6.00879 8.03801V18.8559C6.00879 19.6258 6.63334 20.2504 7.40326 20.2504H17.0962C17.8669 20.2504 18.4907 19.626 18.4907 18.8559V9.43345C18.4907 8.66212 17.8667 8.03801 17.0962 8.03801H6.00879ZM6.02736 6.53801C6.08507 6.29583 6.2725 6.09865 6.52233 6.03418L15.2566 3.77982C15.8281 3.63276 16.3842 4.06369 16.3842 4.65315V6.53801H6.02736ZM9.02598 12.0728C9.02598 11.6586 9.36177 11.3228 9.77598 11.3228H12.5607C12.9749 11.3228 13.3107 11.6586 13.3107 12.0728C13.3107 12.487 12.9749 12.8228 12.5607 12.8228H9.77598C9.36177 12.8228 9.02598 12.487 9.02598 12.0728ZM9.02598 15.8783C9.02598 15.4641 9.36177 15.1283 9.77598 15.1283H14.7236C15.1379 15.1283 15.4736 15.4641 15.4736 15.8783C15.4736 16.2925 15.1379 16.6283 14.7236 16.6283H9.77598C9.36177 16.6283 9.02598 16.2925 9.02598 15.8783Z" fill="#000000" />
</svg>