<svg width="24px"  height="24px"  viewBox="0 0 25 24" fill="none" xmlns="http://www.w3.org/2000/svg">
<path fill-rule="evenodd" clip-rule="evenodd" d="M10.2913 3.75C8.97552 3.75 7.90849 4.81636 7.90849 6.13285V7.60198C7.90849 8.01619 7.5727 8.35198 7.15849 8.35198C6.74428 8.35198 6.40849 8.01619 6.40849 7.60198V6.13285C6.40849 3.98763 8.1474 2.25 10.2913 2.25H14.7756C16.9198 2.25 18.6575 3.98794 18.6575 6.13285V7.60198C18.6575 8.01619 18.3217 8.35198 17.9075 8.35198C17.4933 8.35198 17.1575 8.01619 17.1575 7.60198V6.13285C17.1575 4.81606 16.0911 3.75 14.7756 3.75H10.2913ZM4.45632 8.70424C4.87053 8.70424 5.20632 9.04003 5.20632 9.45424V10.2957H19.868V9.45424C19.868 9.04003 20.2038 8.70424 20.618 8.70424C21.0323 8.70424 21.368 9.04003 21.368 9.45424V11.0222C21.3683 11.03 21.3684 11.0378 21.3684 11.0457C21.3684 11.0536 21.3683 11.0614 21.368 11.0692V12.6377C21.368 13.0519 21.0323 13.3877 20.618 13.3877C20.2038 13.3877 19.868 13.0519 19.868 12.6377V11.7957H5.20632V12.6377C5.20632 13.0519 4.87053 13.3877 4.45632 13.3877C4.0421 13.3877 3.70632 13.0519 3.70632 12.6377V11.1562C3.701 11.1201 3.69824 11.0832 3.69824 11.0457C3.69824 11.0082 3.701 10.9713 3.70632 10.9353V9.45424C3.70632 9.04003 4.0421 8.70424 4.45632 8.70424ZM7.15897 13.4492C7.57318 13.4492 7.90897 13.785 7.90897 14.1992V17.8574C7.90897 19.1723 8.987 20.25 10.3006 20.25H14.7751C16.0917 20.25 17.1579 19.1838 17.1579 17.8672V14.1992C17.1579 13.785 17.4937 13.4492 17.9079 13.4492C18.3222 13.4492 18.6579 13.785 18.6579 14.1992V17.8672C18.6579 20.0122 16.9202 21.75 14.7751 21.75H10.3006C8.15827 21.75 6.40897 20.0004 6.40897 17.8574V14.1992C6.40897 13.785 6.74475 13.4492 7.15897 13.4492Z" fill="#000000" />
</svg>