<svg width="24px"  height="24px"  viewBox="0 0 25 24" fill="none" xmlns="http://www.w3.org/2000/svg">
<path fill-rule="evenodd" clip-rule="evenodd" d="M7.84725 5.49744C8.74466 4.31153 10.1807 3.36328 12.25 3.36328C14.3193 3.36328 15.7553 4.31153 16.6528 5.49744C17.3318 6.39475 17.7066 7.43042 17.8401 8.30449C18.8802 8.43535 19.8332 8.8619 20.5697 9.56741C21.4724 10.4323 22 11.6692 22 13.1522C22 15.1369 20.8173 16.8439 19.1225 17.6098C18.7451 17.7804 18.3008 17.6127 18.1302 17.2352C17.9596 16.8578 18.1274 16.4135 18.5048 16.2429C19.6822 15.7108 20.5 14.5262 20.5 13.1522C20.5 12.0393 20.1125 11.2067 19.532 10.6506C18.9459 10.0891 18.1132 9.76205 17.1463 9.76123C16.7324 9.76087 16.397 9.42519 16.397 9.01123C16.397 8.35238 16.1267 7.28808 15.4566 6.40258C14.8097 5.54768 13.7972 4.86328 12.25 4.86328C10.7028 4.86328 9.69031 5.54768 9.04337 6.40258C8.37329 7.28808 8.10303 8.35238 8.10303 9.01123C8.10303 9.42281 7.77134 9.75749 7.35978 9.7612C6.39009 9.76993 5.55506 10.0983 4.96811 10.6585C4.38755 11.2126 4 12.0403 4 13.1522C4 14.5264 4.81699 15.7108 5.995 16.2428C6.37251 16.4133 6.54034 16.8575 6.36986 17.235C6.19938 17.6125 5.75515 17.7804 5.37765 17.6099C3.6815 16.8439 2.5 15.1367 2.5 13.1522C2.5 11.6682 3.02899 10.4357 3.93246 9.57337C4.66938 8.87003 5.62184 8.4447 6.65922 8.30877C6.79219 7.4338 7.16711 6.39622 7.84725 5.49744Z" fill="#000000" />
<path fill-rule="evenodd" clip-rule="evenodd" d="M9.28516 16.1758C9.69937 16.1758 10.0352 16.5116 10.0352 16.9258C10.0352 18.1478 11.0272 19.1395 12.2498 19.1395C12.3371 19.1395 12.4231 19.1345 12.5076 19.1247L12.4125 19.0765C12.0431 18.8891 11.8956 18.4377 12.083 18.0683C12.2704 17.6989 12.7218 17.5514 13.0912 17.7388L14.5506 18.4792C14.7722 18.5916 14.9237 18.8064 14.9552 19.0528C14.9868 19.2992 14.8943 19.5452 14.7082 19.7098C14.0533 20.2892 13.1911 20.6395 12.2498 20.6395C10.1994 20.6395 8.53516 18.9769 8.53516 16.9258C8.53516 16.5116 8.87094 16.1758 9.28516 16.1758Z" fill="#000000" />
<path fill-rule="evenodd" clip-rule="evenodd" d="M11.9909 14.7257C12.0754 14.7159 12.1614 14.7109 12.2486 14.7109C13.4713 14.7109 14.4633 15.7026 14.4633 16.9246C14.4633 17.3388 14.7991 17.6746 15.2133 17.6746C15.6275 17.6746 15.9633 17.3388 15.9633 16.9246C15.9633 14.8735 14.2991 13.2109 12.2486 13.2109C11.3074 13.2109 10.4455 13.5612 9.7908 14.1391C9.60451 14.3035 9.51175 14.5495 9.54312 14.796C9.57448 15.0425 9.7259 15.2575 9.94744 15.37L11.4069 16.1114C11.7762 16.299 12.2276 16.1518 12.4152 15.7825C12.6028 15.4132 12.4556 14.9617 12.0863 14.7741L11.9909 14.7257Z" fill="#000000" />
</svg>