<svg width="24px"  height="24px"  viewBox="0 0 25 24" fill="none" xmlns="http://www.w3.org/2000/svg">
<path fill-rule="evenodd" clip-rule="evenodd" d="M7.84725 5.6615C8.74466 4.4756 10.1807 3.52734 12.25 3.52734C14.3193 3.52734 15.7553 4.4756 16.6528 5.6615C17.3318 6.55881 17.7066 7.59447 17.8401 8.46853C18.8801 8.59932 19.8331 9.02564 20.5696 9.73106C21.4725 10.5959 22 11.8328 22 13.3163C22 15.3001 20.8172 17.0071 19.1225 17.7729C18.7451 17.9435 18.3008 17.7758 18.1302 17.3983C17.9596 17.0208 18.1274 16.5766 18.5048 16.406C19.6823 15.8739 20.5 14.6892 20.5 13.3163C20.5 12.2028 20.1124 11.3703 19.532 10.8143C18.946 10.253 18.1133 9.92612 17.1463 9.92529C16.7324 9.92493 16.397 9.58925 16.397 9.17529C16.397 8.51644 16.1267 7.45214 15.4566 6.56665C14.8097 5.71174 13.7972 5.02734 12.25 5.02734C10.7028 5.02734 9.69031 5.71174 9.04337 6.56665C8.37329 7.45214 8.10303 8.51644 8.10303 9.17529C8.10303 9.58699 7.77115 9.92173 7.35946 9.92526C6.38987 9.93357 5.55498 10.2617 4.96811 10.8218C4.38761 11.3758 4 12.2038 4 13.3163C4 14.6894 4.81689 15.8739 5.995 16.4059C6.37251 16.5764 6.54034 17.0206 6.36986 17.3981C6.19938 17.7756 5.75515 17.9435 5.37765 17.773C3.6816 17.0071 2.5 15.2999 2.5 13.3163C2.5 11.8319 3.02893 10.5991 3.93246 9.7367C4.66939 9.03335 5.62187 8.60819 6.65926 8.47259C6.79226 7.59767 7.16718 6.5602 7.84725 5.6615Z" fill="#000000" />
<path fill-rule="evenodd" clip-rule="evenodd" d="M12.2486 14.5391C11.6874 14.5391 11.1753 14.7477 10.7844 15.0928C10.4739 15.3669 9.99992 15.3373 9.72581 15.0268C9.4517 14.7162 9.48123 14.2423 9.79177 13.9682C10.4459 13.3908 11.3076 13.0391 12.2486 13.0391C14.3005 13.0391 15.9633 14.7031 15.9633 16.7537C15.9633 17.1679 15.6275 17.5037 15.2133 17.5037C14.7991 17.5037 14.4633 17.1679 14.4633 16.7537C14.4633 15.5312 13.4718 14.5391 12.2486 14.5391Z" fill="#000000" />
<path fill-rule="evenodd" clip-rule="evenodd" d="M9.28516 16.0039C9.69937 16.0039 10.0352 16.3397 10.0352 16.7539C10.0352 17.9766 11.0268 18.9686 12.2488 18.9686C12.8112 18.9686 13.3233 18.7598 13.714 18.4149C14.0246 18.1408 14.4985 18.1703 14.7726 18.4808C15.0467 18.7914 15.0172 19.2653 14.7067 19.5394C14.0525 20.1169 13.1907 20.4686 12.2488 20.4686C10.1978 20.4686 8.53516 18.8043 8.53516 16.7539C8.53516 16.3397 8.87094 16.0039 9.28516 16.0039Z" fill="#000000" />
</svg>