<svg width="24px"  height="24px"  viewBox="0 0 25 24" fill="none" xmlns="http://www.w3.org/2000/svg">
<path fill-rule="evenodd" clip-rule="evenodd" d="M7.8472 5.87299C8.74457 4.68686 10.1806 3.73828 12.25 3.73828C14.3194 3.73828 15.7554 4.68686 16.6528 5.87299C17.3317 6.7704 17.7065 7.80614 17.8401 8.68022C18.8802 8.81074 19.8332 9.2371 20.5696 9.94249C21.4724 10.8073 22 12.0442 22 13.5272C22 15.5119 20.8173 17.2189 19.1225 17.9848C18.7451 18.1554 18.3008 17.9877 18.1302 17.6102C17.9596 17.2328 18.1274 16.7885 18.5048 16.6179C19.6822 16.0858 20.5 14.9012 20.5 13.5272C20.5 12.4143 20.1125 11.5817 19.532 11.0257C18.946 10.4644 18.1134 10.1376 17.1467 10.1372C16.7326 10.137 16.397 9.80129 16.397 9.3872C16.397 8.72833 16.1267 7.66376 15.4566 6.778C14.8096 5.92284 13.7971 5.23828 12.25 5.23828C10.7029 5.23828 9.6904 5.92284 9.04342 6.778C8.3733 7.66376 8.10303 8.72833 8.10303 9.3872C8.10303 9.7989 7.77115 10.1336 7.35946 10.1372C6.38987 10.1455 5.55495 10.4736 4.96806 11.0336C4.38756 11.5876 4 12.4153 4 13.5272C4 14.9014 4.81699 16.0858 5.995 16.6178C6.37251 16.7883 6.54034 17.2325 6.36986 17.61C6.19938 17.9875 5.75515 18.1554 5.37765 17.9849C3.6815 17.2189 2.5 15.5117 2.5 13.5272C2.5 12.0432 3.02898 10.8107 3.93251 9.94845C4.66942 9.24523 5.62188 8.8201 6.65925 8.6845C6.79225 7.80952 7.16715 6.77187 7.8472 5.87299Z" fill="#000000" />
<path fill-rule="evenodd" clip-rule="evenodd" d="M11.0026 13.1485C11.2536 13.2766 11.4115 13.5346 11.4115 13.8164V19.5112C11.4115 19.9254 11.0757 20.2612 10.6615 20.2612C10.2473 20.2612 9.91152 19.9254 9.91152 19.5112V15.285L9.07259 15.8922C8.73704 16.135 8.26815 16.0599 8.0253 15.7243C7.78244 15.3888 7.85759 14.9199 8.19314 14.6771L10.2218 13.2088C10.4501 13.0436 10.7517 13.0203 11.0026 13.1485Z" fill="#000000" />
<path fill-rule="evenodd" clip-rule="evenodd" d="M13.8359 13.0625C14.2502 13.0625 14.5859 13.3983 14.5859 13.8125V18.0387L15.4249 17.4315C15.7604 17.1887 16.2293 17.2638 16.4722 17.5994C16.715 17.9349 16.6399 18.4038 16.3043 18.6467L14.2757 20.1149C14.0474 20.2801 13.7458 20.3034 13.4948 20.1753C13.2439 20.0471 13.0859 19.7891 13.0859 19.5073V13.8125C13.0859 13.3983 13.4217 13.0625 13.8359 13.0625Z" fill="#000000" />
</svg>