<svg width="24px"  height="24px"  viewBox="0 0 25 24" fill="none" xmlns="http://www.w3.org/2000/svg">
<path fill-rule="evenodd" clip-rule="evenodd" d="M7.8472 5.67768C8.74457 4.49155 10.1806 3.54297 12.25 3.54297C14.3194 3.54297 15.7554 4.49155 16.6528 5.67768C17.3317 6.57509 17.7065 7.61083 17.8401 8.4849C18.8802 8.61543 19.8332 9.04179 20.5696 9.74717C21.4724 10.612 22 11.8489 22 13.3319C22 15.3166 20.8173 17.0236 19.1225 17.7895C18.7451 17.9601 18.3008 17.7924 18.1302 17.4149C17.9596 17.0374 18.1274 16.5932 18.5048 16.4226C19.6822 15.8905 20.5 14.7059 20.5 13.3319C20.5 12.219 20.1125 11.3864 19.532 10.8304C18.946 10.2691 18.1134 9.9423 17.1467 9.94189C16.7326 9.94171 16.397 9.60598 16.397 9.19189C16.397 8.53302 16.1267 7.46845 15.4566 6.58269C14.8096 5.72753 13.7971 5.04297 12.25 5.04297C10.7029 5.04297 9.6904 5.72753 9.04342 6.58269C8.3733 7.46845 8.10303 8.53302 8.10303 9.19189C8.10303 9.60359 7.77115 9.93833 7.35946 9.94186C6.38987 9.95017 5.55495 10.2783 4.96806 10.8383C4.38756 11.3923 4 12.2199 4 13.3319C4 14.7061 4.81699 15.8905 5.995 16.4225C6.37251 16.593 6.54034 17.0372 6.36986 17.4147C6.19938 17.7922 5.75515 17.9601 5.37765 17.7896C3.6815 17.0236 2.5 15.3164 2.5 13.3319C2.5 11.8479 3.02898 10.6153 3.93251 9.75313C4.66942 9.04991 5.62188 8.62478 6.65925 8.48918C6.79225 7.61421 7.16715 6.57656 7.8472 5.67768Z" fill="#000000" />
<path fill-rule="evenodd" clip-rule="evenodd" d="M9.47852 13.1016C9.89273 13.1016 10.2285 13.4373 10.2285 13.8516V14.7128H11.0985C11.5127 14.7128 11.8485 15.0486 11.8485 15.4628C11.8485 15.877 11.5127 16.2128 11.0985 16.2128H9.47852C9.0643 16.2128 8.72852 15.877 8.72852 15.4628V13.8516C8.72852 13.4373 9.0643 13.1016 9.47852 13.1016Z" fill="#000000" />
<path fill-rule="evenodd" clip-rule="evenodd" d="M8.80881 15.1265C9.41297 13.9267 10.6568 13.1016 12.095 13.1016C14.1252 13.1016 15.7717 14.7468 15.7717 16.7783C15.7717 18.8086 14.1253 20.455 12.095 20.455C10.7598 20.455 9.59131 19.7436 8.94811 18.6818C8.7335 18.3275 8.84673 17.8663 9.20102 17.6517C9.5553 17.4371 10.0165 17.5503 10.2311 17.9046C10.6134 18.5357 11.3052 18.955 12.095 18.955C13.2969 18.955 14.2717 17.9802 14.2717 16.7783C14.2717 15.5756 13.2971 14.6016 12.095 14.6016C11.2448 14.6016 10.5076 15.088 10.1485 15.8011C9.96225 16.1711 9.51132 16.3199 9.14136 16.1336C8.77141 15.9473 8.62252 15.4964 8.80881 15.1265Z" fill="#000000" />
</svg>