<svg width="24px"  height="24px"  viewBox="0 0 25 24" fill="none" xmlns="http://www.w3.org/2000/svg">
<path d="M13.9921 16.2709C13.7932 16.2709 13.6024 16.1919 13.4618 16.0513C13.3211 15.9106 13.2421 15.7199 13.2421 15.5209V14.4379C13.2361 14.1767 13.1281 13.9282 12.9412 13.7457C12.7543 13.5631 12.5034 13.4609 12.2421 13.4609H12.2291C11.969 13.463 11.7202 13.5671 11.536 13.7507C11.3518 13.9343 11.247 14.1829 11.2441 14.4429V15.5209C11.2441 15.7199 11.1651 15.9106 11.0245 16.0513C10.8838 16.1919 10.6931 16.2709 10.4941 16.2709C10.2952 16.2709 10.1045 16.1919 9.96381 16.0513C9.82315 15.9106 9.74414 15.7199 9.74414 15.5209V14.4309C9.74884 13.7778 10.0102 13.1527 10.4717 12.6906C10.9333 12.2285 11.558 11.9664 12.2111 11.9609H12.2441C12.9017 11.9609 13.5327 12.2199 14.0007 12.6818C14.4686 13.1438 14.7357 13.7715 14.7441 14.4289V15.5209C14.7441 15.6196 14.7247 15.7173 14.6869 15.8084C14.6491 15.8995 14.5936 15.9823 14.5237 16.052C14.4539 16.1216 14.371 16.1769 14.2798 16.2144C14.1886 16.252 14.0908 16.2712 13.9921 16.2709Z" fill="#000000" />
<path d="M13.7081 20.799H10.7781C10.1951 20.7974 9.63648 20.5651 9.22424 20.1529C8.81201 19.7406 8.57971 19.182 8.57812 18.599V16.95C8.57971 16.367 8.81201 15.8083 9.22424 15.3961C9.63648 14.9839 10.1951 14.7516 10.7781 14.75H13.7081C14.2919 14.7505 14.8517 14.9823 15.265 15.3946C15.6782 15.807 15.9113 16.3662 15.9131 16.95V18.595C15.9124 19.1795 15.6797 19.7398 15.2664 20.1529C14.853 20.5661 14.2926 20.7985 13.7081 20.799ZM10.7781 16.246C10.5929 16.2473 10.4156 16.3215 10.2846 16.4525C10.1536 16.5835 10.0794 16.7608 10.0781 16.946V18.591C10.0794 18.7762 10.1536 18.9535 10.2846 19.0845C10.4156 19.2155 10.5929 19.2897 10.7781 19.291H13.7081C13.8942 19.291 14.0728 19.2174 14.2049 19.0863C14.337 18.9551 14.4118 18.7771 14.4131 18.591V16.95C14.4118 16.7639 14.337 16.5859 14.2049 16.4547C14.0728 16.3236 13.8942 16.25 13.7081 16.25L10.7781 16.246Z" fill="#000000" />
<path d="M18.8092 17.5183C18.638 17.5179 18.4721 17.4589 18.339 17.3511C18.2059 17.2433 18.1137 17.0933 18.0778 16.9259C18.0418 16.7585 18.0642 16.5838 18.1412 16.4309C18.2182 16.278 18.3452 16.156 18.5012 16.0853C19.095 15.8156 19.5987 15.3808 19.9523 14.8327C20.3058 14.2847 20.4943 13.6465 20.4952 12.9943C20.5227 12.5453 20.4552 12.0955 20.2972 11.6743C20.1391 11.2531 19.8941 10.87 19.578 10.5499C19.2618 10.2298 18.8818 9.97997 18.4626 9.8167C18.0434 9.65342 17.5945 9.58036 17.1452 9.60229C16.9463 9.60229 16.7555 9.52327 16.6149 9.38262C16.4742 9.24197 16.3952 9.0512 16.3952 8.85229C16.3952 7.7527 15.9584 6.69815 15.1809 5.92062C14.4033 5.1431 13.3488 4.70629 12.2492 4.70629C11.1496 4.70629 10.095 5.1431 9.31751 5.92062C8.53999 6.69815 8.10316 7.7527 8.10316 8.85229C8.1029 9.05008 8.02462 9.23979 7.88532 9.38022C7.74602 9.52064 7.55699 9.60044 7.3592 9.60229C6.90989 9.58192 6.46132 9.65594 6.04237 9.81956C5.62342 9.98319 5.2434 10.2328 4.92683 10.5523C4.61026 10.8718 4.36413 11.2541 4.20435 11.6745C4.04458 12.0949 3.97472 12.5442 3.99922 12.9933C4.00011 13.6455 4.18857 14.2837 4.54212 14.8317C4.89567 15.3798 5.39935 15.8146 5.99317 16.0843C6.08457 16.1237 6.16723 16.181 6.23628 16.2527C6.30533 16.3244 6.35942 16.4091 6.39539 16.5019C6.43137 16.5947 6.44845 16.6938 6.44575 16.7933C6.44305 16.8928 6.4206 16.9907 6.37965 17.0815C6.3387 17.1722 6.28012 17.2539 6.20728 17.3217C6.13445 17.3896 6.04879 17.4422 5.95539 17.4766C5.86199 17.5111 5.76272 17.5266 5.66328 17.5222C5.56383 17.5178 5.4662 17.4937 5.37617 17.4513C4.51924 17.0628 3.79229 16.4359 3.28211 15.6454C2.77194 14.8548 2.50016 13.9341 2.49922 12.9933C2.44385 11.8081 2.84319 10.6466 3.61567 9.74601C4.38815 8.84547 5.47537 8.27396 6.65516 8.14829C6.82372 6.78354 7.48541 5.5275 8.51563 4.61668C9.54586 3.70587 10.8735 3.20312 12.2487 3.20312C13.6238 3.20312 14.9515 3.70587 15.9817 4.61668C17.0119 5.5275 17.6736 6.78354 17.8422 8.14829C19.0249 8.26884 20.116 8.83943 20.8898 9.742C21.6635 10.6446 22.0608 11.81 21.9992 12.9973C21.9983 13.9382 21.7264 14.8588 21.2163 15.6494C20.7061 16.4399 19.9791 17.0669 19.1222 17.4553C19.0236 17.4985 18.9169 17.52 18.8092 17.5183Z" fill="#000000" />
</svg>