<svg width="24px"  height="24px"  viewBox="0 0 25 24" fill="none" xmlns="http://www.w3.org/2000/svg">
<path fill-rule="evenodd" clip-rule="evenodd" d="M7.85852 4.37916C8.75387 3.19607 10.1866 2.25 12.2507 2.25C14.3149 2.25 15.7475 3.19607 16.6429 4.37916C17.3211 5.27528 17.6952 6.30973 17.8281 7.18239C18.862 7.31831 19.8114 7.74256 20.5461 8.44392C21.4474 9.30427 21.975 10.534 21.975 12.0144C21.975 13.9925 20.8007 15.6996 19.1089 16.4653C19.0985 16.47 19.0881 16.4745 19.0776 16.4787C18.3728 16.7599 17.6762 16.8653 17.1302 16.8653H7.36396C6.81568 16.8653 6.11878 16.7545 5.42266 16.4718C5.41378 16.4682 5.40496 16.4644 5.39623 16.4605C3.70454 15.6966 2.52539 13.9943 2.52539 12.0144C2.52539 10.5338 3.05337 9.30413 3.95486 8.44383C4.68974 7.74253 5.63933 7.3183 6.67335 7.18238C6.80624 6.30973 7.18035 5.27528 7.85852 4.37916ZM9.05461 5.28435C8.38654 6.16712 8.11705 7.22811 8.11705 7.88469C8.11705 8.29624 7.7854 8.63091 7.37387 8.63465C6.40772 8.64344 5.57548 8.97068 4.99044 9.529C4.41181 10.0812 4.02539 10.9061 4.02539 12.0144C4.02539 13.3785 4.8336 14.5546 6.00051 15.0875C6.50531 15.2902 7.00412 15.3653 7.36396 15.3653H17.1302C17.4939 15.3653 17.9941 15.2933 18.5058 15.0918C19.6692 14.5581 20.475 13.3794 20.475 12.0144C20.475 10.9059 20.0887 10.081 19.5104 9.52891C18.9256 8.97067 18.0937 8.64344 17.1275 8.63465C16.716 8.63091 16.3844 8.29624 16.3844 7.88469C16.3844 7.22811 16.1149 6.16712 15.4468 5.28435C14.8019 4.43216 13.7927 3.75 12.2507 3.75C10.7087 3.75 9.69954 4.43216 9.05461 5.28435Z" fill="#000000" />
<path fill-rule="evenodd" clip-rule="evenodd" d="M12.25 15.6211C12.6642 15.6211 13 15.9569 13 16.3711V20.7244C13 21.1387 12.6642 21.4744 12.25 21.4744C11.8358 21.4744 11.5 21.1387 11.5 20.7244V16.3711C11.5 15.9569 11.8358 15.6211 12.25 15.6211Z" fill="#000000" />
<path fill-rule="evenodd" clip-rule="evenodd" d="M8.10898 15.6211C8.5232 15.6211 8.85898 15.9569 8.85898 16.3711V18.9425C8.85898 20.4929 7.60218 21.7497 6.05184 21.7497H4.74805C4.33383 21.7497 3.99805 21.4139 3.99805 20.9997C3.99805 20.5855 4.33383 20.2497 4.74805 20.2497H6.05184C6.77376 20.2497 7.35898 19.6644 7.35898 18.9425V16.3711C7.35898 15.9569 7.69477 15.6211 8.10898 15.6211Z" fill="#000000" />
<path fill-rule="evenodd" clip-rule="evenodd" d="M16.3633 15.6211C16.7775 15.6211 17.1133 15.9569 17.1133 16.3711V18.9425C17.1133 19.6644 17.6985 20.2497 18.4204 20.2497H19.7242C20.1384 20.2497 20.4742 20.5855 20.4742 20.9997C20.4742 21.4139 20.1384 21.7497 19.7242 21.7497H18.4204C16.8701 21.7497 15.6133 20.4929 15.6133 18.9425V16.3711C15.6133 15.9569 15.9491 15.6211 16.3633 15.6211Z" fill="#000000" />
</svg>