<svg width="24px"  height="24px"  viewBox="0 0 25 24" fill="none" xmlns="http://www.w3.org/2000/svg">
<path fill-rule="evenodd" clip-rule="evenodd" d="M7.84725 5.49744C8.74466 4.31153 10.1807 3.36328 12.25 3.36328C14.3193 3.36328 15.7553 4.31153 16.6528 5.49744C17.3318 6.39475 17.7066 7.43042 17.8401 8.30449C18.8802 8.43535 19.8332 8.8619 20.5697 9.56741C21.4724 10.4323 22 11.6692 22 13.1522C22 15.1369 20.8173 16.8439 19.1225 17.6098C18.7451 17.7804 18.3008 17.6127 18.1302 17.2352C17.9596 16.8578 18.1274 16.4135 18.5048 16.2429C19.6822 15.7108 20.5 14.5262 20.5 13.1522C20.5 12.0393 20.1125 11.2067 19.532 10.6506C18.9459 10.0891 18.1132 9.76205 17.1463 9.76123C16.7324 9.76087 16.397 9.42519 16.397 9.01123C16.397 8.35238 16.1267 7.28808 15.4566 6.40258C14.8097 5.54768 13.7972 4.86328 12.25 4.86328C10.7028 4.86328 9.69031 5.54768 9.04337 6.40258C8.37329 7.28808 8.10303 8.35238 8.10303 9.01123C8.10303 9.42281 7.77134 9.75749 7.35978 9.7612C6.39009 9.76993 5.55506 10.0983 4.96811 10.6585C4.38755 11.2126 4 12.0403 4 13.1522C4 14.5264 4.81699 15.7108 5.995 16.2428C6.37251 16.4133 6.54034 16.8575 6.36986 17.235C6.19938 17.6125 5.75515 17.7804 5.37765 17.6099C3.6815 16.8439 2.5 15.1367 2.5 13.1522C2.5 11.6682 3.02899 10.4357 3.93246 9.57337C4.66938 8.87003 5.62184 8.4447 6.65922 8.30877C6.79219 7.4338 7.16711 6.39622 7.84725 5.49744Z" fill="#000000" />
<path fill-rule="evenodd" clip-rule="evenodd" d="M15.2152 16.1758C15.6294 16.1758 15.9652 16.5116 15.9652 16.9258C15.9652 18.9769 14.301 20.6395 12.2506 20.6395C11.3093 20.6395 10.4471 20.2892 9.79216 19.7098C9.6061 19.5452 9.51359 19.2992 9.54515 19.0528C9.5767 18.8064 9.72821 18.5916 9.94974 18.4792L11.4092 17.7388C11.7786 17.5514 12.23 17.6989 12.4174 18.0683C12.6048 18.4377 12.4573 18.8891 12.0879 19.0765L11.9928 19.1247C12.0773 19.1345 12.1633 19.1395 12.2506 19.1395C13.4732 19.1395 14.4652 18.1478 14.4652 16.9258C14.4652 16.5116 14.801 16.1758 15.2152 16.1758Z" fill="#000000" />
<path fill-rule="evenodd" clip-rule="evenodd" d="M8.53516 16.9246C8.53516 14.8735 10.1994 13.2109 12.2498 13.2109C13.191 13.2109 14.0529 13.5612 14.7076 14.1391C14.8939 14.3035 14.9867 14.5495 14.9553 14.796C14.924 15.0425 14.7725 15.2575 14.551 15.37L13.0915 16.1114C12.7222 16.299 12.2708 16.1518 12.0832 15.7825C11.8956 15.4132 12.0429 14.9617 12.4122 14.7741L12.5075 14.7257C12.423 14.7159 12.337 14.7109 12.2498 14.7109C11.0272 14.7109 10.0352 15.7026 10.0352 16.9246C10.0352 17.3388 9.69937 17.6746 9.28516 17.6746C8.87094 17.6746 8.53516 17.3388 8.53516 16.9246Z" fill="#000000" />
</svg>