<svg width="24px"  height="24px"  viewBox="0 0 25 24" fill="none" xmlns="http://www.w3.org/2000/svg">
<path fill-rule="evenodd" clip-rule="evenodd" d="M18.4014 18.6232C18.657 18.9492 18.5999 19.4206 18.274 19.6762C16.805 20.828 14.9895 21.5721 12.9896 21.7217C12.0035 21.7954 11.0414 21.7174 10.1252 21.5121C9.72101 21.4215 9.46679 21.0204 9.55738 20.6162C9.64798 20.212 10.0491 19.9578 10.4533 20.0484C11.2294 20.2223 12.0432 20.2883 12.8777 20.2258L12.8778 20.2258C14.5717 20.0992 16.1058 19.47 17.3484 18.4958C17.6744 18.2402 18.1458 18.2972 18.4014 18.6232Z" fill="#000000" />
<path fill-rule="evenodd" clip-rule="evenodd" d="M3.68022 14.892C4.05928 14.725 4.50195 14.8969 4.66895 15.2759C5.2909 16.6876 6.28632 17.885 7.52827 18.7438C7.86896 18.9794 7.95415 19.4466 7.71856 19.7873C7.48296 20.128 7.01579 20.2132 6.6751 19.9776C5.20549 18.9613 4.0301 17.5463 3.29627 15.8807C3.12927 15.5016 3.30117 15.059 3.68022 14.892Z" fill="#000000" />
<path fill-rule="evenodd" clip-rule="evenodd" d="M3.77409 8.82344C4.17374 8.93232 4.40945 9.34457 4.30056 9.74422C4.05878 10.6316 3.95431 11.5643 4.02626 12.5255C4.05719 12.9386 3.7474 13.2985 3.33435 13.3294C2.92129 13.3604 2.56137 13.0506 2.53045 12.6375C2.44485 11.4941 2.5699 10.3901 2.85332 9.34991C2.9622 8.95026 3.37445 8.71456 3.77409 8.82344Z" fill="#000000" />
<path fill-rule="evenodd" clip-rule="evenodd" d="M7.05251 4.59819C7.31974 4.91467 7.27981 5.38786 6.96332 5.65509C6.46362 6.07702 6.01644 6.55304 5.63252 7.07737C5.38782 7.41157 4.91852 7.48413 4.58432 7.23942C4.25011 6.99472 4.17756 6.52542 4.42227 6.19121C4.87866 5.56789 5.40796 5.00519 5.9956 4.509C6.31209 4.24177 6.78528 4.2817 7.05251 4.59819Z" fill="#000000" />
<path fill-rule="evenodd" clip-rule="evenodd" d="M11.8639 2.2573C17.2495 2.05081 21.784 6.2491 21.9905 11.635L21.9905 11.6351C22.0675 13.6481 21.5172 15.5306 20.5336 17.1189C20.3156 17.4711 19.8533 17.5798 19.5011 17.3617C19.149 17.1437 19.0403 16.6814 19.2583 16.3292C20.0935 14.9804 20.5566 13.3908 20.4916 11.6925C20.3169 7.13464 16.4794 3.58144 11.9213 3.7562C11.5074 3.77207 11.159 3.4494 11.1431 3.03549C11.1273 2.62158 11.4499 2.27317 11.8639 2.2573Z" fill="#000000" />
<path fill-rule="evenodd" clip-rule="evenodd" d="M9.7931 8.7302C10.2958 8.06613 11.1059 7.53516 12.2506 7.53516C13.3952 7.53516 14.2054 8.06613 14.708 8.7302C15.0124 9.13237 15.2069 9.58495 15.3082 10.0042C15.7831 10.1119 16.223 10.335 16.58 10.6759C17.104 11.1762 17.3986 11.8821 17.3986 12.7026C17.3986 13.8255 16.7321 14.7972 15.7687 15.2322C15.7593 15.2364 15.7498 15.2405 15.7402 15.2443C15.3441 15.4038 14.9534 15.462 14.6421 15.462H9.85509C9.54018 15.462 9.14927 15.3992 8.76088 15.2416C8.75196 15.238 8.74311 15.2342 8.73434 15.2302C7.7735 14.7964 7.10156 13.8282 7.10156 12.7026C7.10156 11.8819 7.39655 11.1759 7.92079 10.6757C8.27795 10.3349 8.71802 10.1119 9.19289 10.0042C9.29428 9.58494 9.48868 9.13237 9.7931 8.7302ZM10.9891 9.63551C10.7137 9.99939 10.607 10.4376 10.607 10.6787C10.607 11.0903 10.2752 11.425 9.86361 11.4287C9.47461 11.4321 9.16397 11.5628 8.95624 11.761C8.75494 11.9531 8.60156 12.2542 8.60156 12.7026C8.60156 13.2119 8.90209 13.6541 9.33866 13.8572C9.53499 13.9346 9.72749 13.962 9.85509 13.962H14.6421C14.775 13.962 14.9675 13.9359 15.1653 13.8587C15.5989 13.6565 15.8986 13.2141 15.8986 12.7026C15.8986 12.2539 15.7453 11.9528 15.5442 11.7608C15.3368 11.5628 15.0265 11.4321 14.6375 11.4287C14.2259 11.425 13.8941 11.0903 13.8941 10.6787C13.8941 10.4376 13.7875 9.99939 13.512 9.63551C13.2597 9.30219 12.8731 9.03516 12.2506 9.03516C11.6281 9.03516 11.2414 9.30219 10.9891 9.63551Z" fill="#000000" />
</svg>