<svg width="24px"  height="24px"  viewBox="0 0 25 24" fill="none" xmlns="http://www.w3.org/2000/svg">
<path d="M14.6592 15.3948H9.85913C9.48173 15.3909 9.10851 15.3156 8.75915 15.1728C8.26622 14.9544 7.84705 14.598 7.5523 14.1465C7.25755 13.6951 7.09981 13.1679 7.09814 12.6288C7.07754 12.005 7.27567 11.3937 7.65826 10.9006C8.04085 10.4076 8.58384 10.0638 9.19317 9.9288C9.34435 9.2278 9.73114 8.59976 10.2891 8.14929C10.8471 7.69882 11.5425 7.45313 12.2596 7.45313C12.9768 7.45312 13.6722 7.69882 14.2302 8.14929C14.7882 8.59976 15.175 9.2278 15.3262 9.9288C15.9364 10.0628 16.4805 10.4061 16.8641 10.8993C17.2476 11.3925 17.4465 12.0044 17.4261 12.6288C17.426 13.1638 17.2719 13.6874 16.9821 14.1371C16.6924 14.5868 16.2793 14.9436 15.7922 15.1648C15.4324 15.3124 15.048 15.3905 14.6592 15.3948ZM12.2591 8.9478C11.8242 8.9575 11.4099 9.13472 11.1025 9.44251C10.7951 9.7503 10.6183 10.1649 10.6091 10.5998C10.6089 10.7976 10.5306 10.9873 10.3913 11.1277C10.252 11.2682 10.063 11.348 9.86517 11.3498C9.69477 11.3382 9.52384 11.3635 9.36407 11.4239C9.20429 11.4842 9.0594 11.5783 8.9392 11.6996C8.819 11.8209 8.72632 11.9667 8.66747 12.1271C8.60863 12.2874 8.58497 12.4585 8.59814 12.6288C8.5986 12.8749 8.66983 13.1157 8.80334 13.3224C8.93685 13.5292 9.12701 13.6931 9.35113 13.7948C9.51253 13.8579 9.68391 13.8917 9.85717 13.8948H14.6572C14.843 13.8914 15.0267 13.8542 15.1992 13.7848C15.4162 13.6799 15.599 13.5156 15.7264 13.311C15.8539 13.1064 15.9207 12.8698 15.9191 12.6288C15.9323 12.4585 15.9087 12.2874 15.8498 12.1271C15.791 11.9667 15.6983 11.8209 15.5781 11.6996C15.4579 11.5783 15.313 11.4842 15.1532 11.4239C14.9934 11.3635 14.8226 11.3382 14.6522 11.3498C14.4544 11.348 14.2653 11.2682 14.126 11.1277C13.9867 10.9873 13.9084 10.7976 13.9081 10.5998C13.899 10.1651 13.7224 9.75061 13.4152 9.44285C13.108 9.13509 12.6939 8.95775 12.2591 8.9478Z" fill="#000000" />
<path d="M5.91876 19.2284C5.86938 19.2284 5.82016 19.2234 5.77179 19.2134L3.13879 18.6874C2.94372 18.6483 2.77219 18.5333 2.66192 18.3677C2.55165 18.2021 2.51166 17.9995 2.55078 17.8044C2.5899 17.6094 2.70488 17.4378 2.87048 17.3275C3.03607 17.2173 3.23871 17.1773 3.43377 17.2164L5.3338 17.5954L5.70977 15.7124C5.72908 15.6158 5.76722 15.524 5.82202 15.4421C5.87681 15.3603 5.94722 15.29 6.02917 15.2354C6.11112 15.1808 6.20299 15.1428 6.29962 15.1237C6.39624 15.1045 6.49569 15.1046 6.59228 15.1239C6.68887 15.1432 6.7807 15.1814 6.86254 15.2362C6.94439 15.291 7.01468 15.3613 7.06933 15.4433C7.12398 15.5252 7.1619 15.6171 7.18103 15.7138C7.20015 15.8104 7.20009 15.9098 7.18078 16.0064L6.65881 18.6254C6.62402 18.7949 6.53174 18.9472 6.39764 19.0565C6.26354 19.1658 6.09581 19.2255 5.92279 19.2254L5.91876 19.2284Z" fill="#000000" />
<path d="M18.0426 9.06792C17.9854 9.06797 17.9284 9.06159 17.8726 9.04892C17.7766 9.02677 17.6859 8.9859 17.6058 8.92865C17.5256 8.87141 17.4575 8.79891 17.4054 8.7153C17.3533 8.6317 17.3181 8.53864 17.3021 8.44145C17.286 8.34426 17.2892 8.24485 17.3116 8.14892L17.9116 5.54892C17.9578 5.35583 18.0781 5.18866 18.2465 5.08351C18.4148 4.97835 18.6178 4.94366 18.8116 4.98692L21.4276 5.59192C21.6173 5.64053 21.7806 5.76143 21.8823 5.92879C21.9841 6.09615 22.0163 6.29667 21.9722 6.4875C21.928 6.67833 21.811 6.84432 21.6461 6.94998C21.4811 7.05564 21.2814 7.09258 21.0896 7.05292L19.2036 6.61792L18.7716 8.48692C18.7335 8.65181 18.6407 8.79895 18.5084 8.90443C18.376 9.00992 18.2118 9.06753 18.0426 9.06792Z" fill="#000000" />
<path d="M5.94495 19.0617C5.7492 19.0617 5.56119 18.9853 5.42096 18.8487C3.96085 17.4259 2.98942 15.5768 2.6463 13.5671C2.30318 11.5575 2.60606 9.49077 3.51135 7.66406C4.41665 5.83735 5.87773 4.34469 7.68469 3.4006C9.49165 2.45651 11.5514 2.1096 13.5679 2.40973C13.7647 2.43877 13.9419 2.5448 14.0605 2.70449C14.1792 2.86417 14.2295 3.06444 14.2004 3.26123C14.1714 3.45802 14.0654 3.63522 13.9057 3.75383C13.746 3.87245 13.5457 3.92277 13.3489 3.89373C11.6461 3.63987 9.90653 3.93248 8.38043 4.7295C6.85433 5.52652 5.62026 6.7869 4.85559 8.32947C4.09092 9.87203 3.83505 11.6173 4.12476 13.3145C4.41446 15.0116 5.23486 16.5732 6.46796 17.7747C6.57471 17.8788 6.64803 18.0124 6.67853 18.1583C6.70903 18.3042 6.69535 18.456 6.63922 18.5941C6.58309 18.7322 6.48706 18.8505 6.3634 18.9338C6.23975 19.0171 6.09404 19.0616 5.94495 19.0617Z" fill="#000000" />
<path d="M12.2123 21.6988C11.6423 21.6987 11.0734 21.6479 10.5124 21.5468C10.4153 21.5297 10.3226 21.4936 10.2396 21.4405C10.1565 21.3875 10.0847 21.3186 10.0283 21.2378C9.97193 21.157 9.93204 21.0658 9.91094 20.9696C9.88985 20.8733 9.88791 20.7738 9.90533 20.6768C9.94281 20.4822 10.0549 20.3099 10.2176 20.1967C10.3803 20.0834 10.5808 20.0383 10.7764 20.0708C12.4709 20.3761 14.2185 20.1364 15.7682 19.3859C17.3178 18.6355 18.5897 17.4131 19.4009 15.8944C20.2121 14.3756 20.5209 12.6388 20.2829 10.9336C20.0449 9.22831 19.2724 7.6424 18.0764 6.40381C18.0079 6.33297 17.9541 6.24933 17.918 6.1577C17.8819 6.06606 17.8642 5.96821 17.866 5.86973C17.8677 5.77126 17.8888 5.67408 17.928 5.58376C17.9673 5.49344 18.024 5.41173 18.0948 5.34331C18.1657 5.27489 18.2494 5.2211 18.341 5.185C18.4326 5.1489 18.5305 5.13121 18.629 5.13293C18.7274 5.13464 18.8246 5.15574 18.9149 5.19501C19.0052 5.23429 19.0869 5.29097 19.1553 5.36181C20.4703 6.72327 21.3553 8.44169 21.7001 10.3028C22.0449 12.1639 21.8342 14.0853 21.0942 15.8275C20.3543 17.5696 19.1178 19.0554 17.5391 20.0995C15.9603 21.1436 14.1091 21.6998 12.2164 21.6988H12.2123Z" fill="#000000" />
</svg>