<svg width="24px"  height="24px"  viewBox="0 0 25 24" fill="none" xmlns="http://www.w3.org/2000/svg">
<path d="M12.1641 20.7521H7.23614C6.80751 20.7507 6.3865 20.6388 6.01374 20.4272C5.64098 20.2156 5.32908 19.9114 5.10814 19.5441L2.85114 15.7571C2.62261 15.3738 2.50195 14.9359 2.50195 14.4896C2.50195 14.0434 2.62261 13.6054 2.85114 13.2221L8.39114 3.91313C8.6119 3.54552 8.92372 3.24102 9.29647 3.02907C9.66923 2.81711 10.0903 2.70486 10.5191 2.70312H13.8091C14.2379 2.70464 14.6589 2.81684 15.0315 3.02882C15.4042 3.24081 15.7158 3.5454 15.9361 3.91313L20.2941 11.2391C20.396 11.4101 20.4258 11.6144 20.3769 11.8073C20.328 12.0002 20.2046 12.1658 20.0336 12.2676C19.8627 12.3695 19.6583 12.3992 19.4654 12.3504C19.2726 12.3015 19.107 12.1781 19.0051 12.0071L14.6511 4.67912C14.5646 4.53387 14.442 4.41349 14.2951 4.32973C14.1483 4.24596 13.9822 4.20166 13.8131 4.20113H10.5231C10.3538 4.2021 10.1875 4.24668 10.0404 4.33058C9.89326 4.41448 9.77023 4.53487 9.68314 4.68013L4.14314 13.9861C4.05327 14.1374 4.00583 14.3102 4.00583 14.4861C4.00583 14.6621 4.05327 14.8348 4.14314 14.9861L6.40014 18.7721C6.4874 18.9171 6.61053 19.0371 6.75766 19.1207C6.90478 19.2042 7.07095 19.2485 7.24014 19.2491H12.1681C12.3671 19.2491 12.5578 19.3281 12.6985 19.4688C12.8391 19.6094 12.9181 19.8002 12.9181 19.9991C12.9181 20.198 12.8391 20.3888 12.6985 20.5295C12.5578 20.6701 12.3671 20.7491 12.1681 20.7491L12.1641 20.7521Z" fill="#000000" />
<path d="M6.43485 20.4952C6.3155 20.4955 6.19783 20.467 6.09185 20.4122C5.91505 20.3208 5.78173 20.1631 5.72117 19.9735C5.66061 19.7839 5.67776 19.5781 5.76885 19.4012L14.0419 3.35918C14.087 3.27166 14.149 3.19388 14.2242 3.1303C14.2995 3.06672 14.3865 3.01858 14.4803 2.98864C14.5741 2.95869 14.673 2.94751 14.7711 2.95575C14.8693 2.964 14.9648 2.9915 15.0524 3.03667C15.1399 3.08185 15.2176 3.14381 15.2812 3.21904C15.3448 3.29428 15.3929 3.38128 15.4229 3.47512C15.4528 3.56895 15.464 3.66777 15.4558 3.76592C15.4475 3.86407 15.42 3.95964 15.3749 4.04717L7.10185 20.0952C7.03778 20.2164 6.94174 20.3177 6.82416 20.3882C6.70659 20.4587 6.57195 20.4957 6.43485 20.4952Z" fill="#000000" />
<path d="M12.597 15.1562H3.25C3.05109 15.1562 2.86032 15.0772 2.71967 14.9366C2.57902 14.7959 2.5 14.6052 2.5 14.4062C2.5 14.2073 2.57902 14.0166 2.71967 13.8759C2.86032 13.7353 3.05109 13.6562 3.25 13.6562H12.597C12.7959 13.6562 12.9867 13.7353 13.1273 13.8759C13.268 14.0166 13.347 14.2073 13.347 14.4062C13.347 14.6052 13.268 14.7959 13.1273 14.9366C12.9867 15.0772 12.7959 15.1562 12.597 15.1562Z" fill="#000000" />
<path d="M13.9732 12.923C13.8352 12.9229 13.6999 12.8849 13.5821 12.8132C13.4643 12.7414 13.3685 12.6385 13.3052 12.516L8.95021 4.05397C8.90517 3.96638 8.87782 3.87076 8.86972 3.7726C8.86163 3.67444 8.87295 3.57565 8.90304 3.48186C8.93312 3.38807 8.98139 3.30114 9.04507 3.226C9.10876 3.15087 9.18662 3.08901 9.27421 3.04396C9.36181 2.99892 9.45741 2.97157 9.55557 2.96347C9.65373 2.95538 9.75253 2.9667 9.84632 2.99678C9.9401 3.02687 10.027 3.07513 10.1022 3.13881C10.1773 3.2025 10.2392 3.28038 10.2842 3.36797L14.6392 11.83C14.698 11.9442 14.7264 12.0717 14.7218 12.2001C14.7171 12.3285 14.6796 12.4535 14.6127 12.5632C14.5459 12.6729 14.4519 12.7636 14.34 12.8266C14.228 12.8896 14.1017 12.9228 13.9732 12.923Z" fill="#000000" />
<path d="M18.1803 21.2946C17.168 21.2935 16.1974 20.891 15.4814 20.1752C14.7655 19.4594 14.3627 18.4889 14.3613 17.4766C14.3613 17.2777 14.4403 17.0869 14.581 16.9462C14.7217 16.8056 14.9124 16.7266 15.1113 16.7266C15.3102 16.7266 15.501 16.8056 15.6417 16.9462C15.7823 17.0869 15.8613 17.2777 15.8613 17.4766C15.8618 17.9227 15.9908 18.3592 16.233 18.7338C16.4752 19.1085 16.8203 19.4053 17.2269 19.5888C17.6335 19.7723 18.0844 19.8347 18.5256 19.7685C18.9668 19.7023 19.3795 19.5104 19.7143 19.2156C19.8639 19.0868 20.0582 19.0221 20.2551 19.0357C20.4521 19.0492 20.6357 19.1398 20.7663 19.2879C20.8968 19.4359 20.9637 19.6295 20.9525 19.8265C20.9413 20.0236 20.8528 20.2083 20.7063 20.3406C20.0086 20.9556 19.1104 21.2948 18.1803 21.2946Z" fill="#000000" />
<path d="M21.2502 18.2246C21.0513 18.2246 20.8605 18.1456 20.7198 18.005C20.5792 17.8643 20.5002 17.6736 20.5002 17.4746C20.4997 17.0285 20.3707 16.592 20.1285 16.2174C19.8863 15.8428 19.5412 15.5459 19.1346 15.3624C18.728 15.1789 18.2771 15.1165 17.8359 15.1827C17.3947 15.2489 16.982 15.4409 16.6472 15.7356C16.5733 15.8008 16.4873 15.8508 16.3941 15.8828C16.3009 15.9148 16.2023 15.9281 16.104 15.922C16.0057 15.9158 15.9095 15.8904 15.821 15.8471C15.7325 15.8038 15.6534 15.7435 15.5882 15.6697C15.523 15.5958 15.473 15.5098 15.441 15.4166C15.409 15.3234 15.3957 15.2248 15.4018 15.1265C15.408 15.0281 15.4334 14.932 15.4767 14.8435C15.52 14.755 15.5803 14.6758 15.6542 14.6106C16.2055 14.1247 16.8853 13.808 17.6121 13.6987C18.3388 13.5894 19.0817 13.6921 19.7515 13.9944C20.4214 14.2967 20.9899 14.7859 21.3887 15.4032C21.7876 16.0205 21.9999 16.7397 22.0002 17.4746C22.0002 17.6736 21.9212 17.8643 21.7805 18.005C21.6398 18.1456 21.4491 18.2246 21.2502 18.2246Z" fill="#000000" />
</svg>