<svg width="24px"  height="24px"  viewBox="0 0 25 24" fill="none" xmlns="http://www.w3.org/2000/svg">
<path d="M12.3322 20.9989H7.3092C6.87481 20.9974 6.44815 20.8839 6.07047 20.6693C5.69278 20.4547 5.37684 20.1463 5.1532 19.7739L2.85318 15.9139C2.622 15.525 2.5 15.0809 2.5 14.6284C2.5 14.1759 2.622 13.7318 2.85318 13.3429L8.50119 3.85489C8.72487 3.48223 9.04093 3.1736 9.41879 2.95883C9.79666 2.74406 10.2236 2.63042 10.6582 2.62891H14.0122C14.4467 2.6303 14.8735 2.74389 15.2513 2.95868C15.629 3.17347 15.9448 3.48217 16.1682 3.85489L20.6102 11.3219C20.6606 11.4065 20.6939 11.5003 20.7081 11.5978C20.7223 11.6953 20.7172 11.7946 20.693 11.8901C20.6688 11.9856 20.626 12.0754 20.5671 12.1544C20.5082 12.2334 20.4343 12.3 20.3497 12.3504C20.2651 12.4008 20.1713 12.4341 20.0738 12.4483C19.9763 12.4625 19.877 12.4574 19.7815 12.4332C19.686 12.409 19.5962 12.3662 19.5172 12.3073C19.4382 12.2484 19.3716 12.1745 19.3212 12.0899L14.8792 4.62289C14.7893 4.47278 14.6621 4.34842 14.5101 4.26187C14.358 4.17532 14.1862 4.12954 14.0112 4.12891H10.6572C10.4821 4.12956 10.3101 4.17536 10.1579 4.2619C10.0057 4.34844 9.87831 4.47277 9.78818 4.62289L4.1412 14.1089C4.04767 14.2657 3.99826 14.4448 3.99826 14.6274C3.99826 14.81 4.04767 14.9891 4.1412 15.1459L6.44119 19.0059C6.53136 19.1557 6.65858 19.2797 6.81061 19.3661C6.96264 19.4524 7.13437 19.4982 7.3092 19.4989H12.3322C12.5311 19.4989 12.7219 19.5779 12.8625 19.7186C13.0032 19.8592 13.0822 20.05 13.0822 20.2489C13.0822 20.4478 13.0032 20.6386 12.8625 20.7792C12.7219 20.9199 12.5311 20.9989 12.3322 20.9989Z" fill="#000000" />
<path d="M12.7741 15.293H3.24609C3.04718 15.293 2.85641 15.214 2.71576 15.0733C2.57511 14.9327 2.49609 14.7419 2.49609 14.543C2.49609 14.3441 2.57511 14.1533 2.71576 14.0126C2.85641 13.872 3.04718 13.793 3.24609 13.793H12.7741C12.973 13.793 13.1638 13.872 13.3044 14.0126C13.4451 14.1533 13.5241 14.3441 13.5241 14.543C13.5241 14.7419 13.4451 14.9327 13.3044 15.0733C13.1638 15.214 12.973 15.293 12.7741 15.293Z" fill="#000000" />
<path d="M14.1772 13.0172C14.039 13.0173 13.9036 12.9793 13.7857 12.9073C13.6678 12.8353 13.5721 12.7322 13.5092 12.6092L9.06916 3.98322C8.98376 3.80693 8.97073 3.60421 9.03285 3.41843C9.09496 3.23265 9.2273 3.07855 9.40156 2.98907C9.57582 2.89959 9.77816 2.88184 9.96534 2.93961C10.1525 2.99738 10.3097 3.1261 10.4032 3.29822L14.8431 11.9242C14.9016 12.0385 14.9298 12.1659 14.925 12.2942C14.9203 12.4225 14.8827 12.5474 14.8159 12.657C14.7491 12.7666 14.6553 12.8573 14.5435 12.9204C14.4316 12.9834 14.3055 13.0168 14.1772 13.0172Z" fill="#000000" />
<path d="M6.49369 20.7415C6.36507 20.7414 6.23861 20.7082 6.1265 20.6452C6.01439 20.5821 5.9204 20.4914 5.85352 20.3815C5.78664 20.2716 5.74913 20.1464 5.7446 20.0178C5.74008 19.8893 5.76868 19.7618 5.82767 19.6475L14.2607 3.29348C14.3518 3.11658 14.5094 2.98311 14.6989 2.92244C14.8884 2.86177 15.0943 2.87887 15.2712 2.96997C15.4481 3.06108 15.5816 3.21872 15.6422 3.40822C15.7029 3.59773 15.6858 3.80359 15.5947 3.98049L7.16169 20.3355C7.09835 20.4579 7.00251 20.5606 6.88468 20.6323C6.76685 20.7039 6.63158 20.7416 6.49369 20.7415Z" fill="#000000" />
<path d="M16.9676 21.3697C16.8689 21.3699 16.7712 21.3505 16.6801 21.3128C16.589 21.275 16.5062 21.2196 16.4366 21.1497L14.2976 19.0117C14.2259 18.9426 14.1687 18.8599 14.1294 18.7684C14.09 18.6769 14.0693 18.5785 14.0684 18.4789C14.0675 18.3793 14.0864 18.2805 14.1241 18.1883C14.1618 18.0962 14.2174 18.0124 14.2878 17.942C14.3582 17.8715 14.4419 17.8158 14.534 17.778C14.6262 17.7403 14.7249 17.7212 14.8245 17.722C14.9241 17.7229 15.0225 17.7435 15.114 17.7828C15.2056 17.822 15.2884 17.8791 15.3576 17.9507L16.9676 19.5597L20.7156 15.8107C20.7848 15.7391 20.8676 15.682 20.9591 15.6428C21.0506 15.6035 21.149 15.5829 21.2486 15.5821C21.3482 15.5812 21.447 15.6003 21.5391 15.638C21.6313 15.6758 21.715 15.7315 21.7854 15.8019C21.8558 15.8724 21.9114 15.9562 21.9491 16.0484C21.9867 16.1406 22.0057 16.2393 22.0048 16.3389C22.0038 16.4385 21.9831 16.5369 21.9438 16.6284C21.9044 16.7199 21.8472 16.8026 21.7756 16.8717L17.4976 21.1497C17.4281 21.2196 17.3455 21.275 17.2546 21.3127C17.1636 21.3505 17.0661 21.3699 16.9676 21.3697Z" fill="#000000" />
</svg>