<svg width="24px"  height="24px"  viewBox="0 0 25 24" fill="none" xmlns="http://www.w3.org/2000/svg">
<path fill-rule="evenodd" clip-rule="evenodd" d="M12.9112 8.54246C12.7823 8.2931 12.525 8.13654 12.2444 8.13672C11.9637 8.1369 11.7066 8.29378 11.5781 8.5433L8.58129 14.3618C8.46154 14.5943 8.47155 14.8724 8.60771 15.0956C8.74387 15.3189 8.98652 15.4552 9.24805 15.4552H15.251C15.5127 15.4552 15.7554 15.3188 15.8915 15.0952C16.0277 14.8717 16.0374 14.5934 15.9173 14.3609L12.9112 8.54246ZM10.478 13.9552L12.2459 10.5227L14.0193 13.9552H10.478Z" fill="#000000" />
<path fill-rule="evenodd" clip-rule="evenodd" d="M7.27667 21.1046H17.2327C17.6644 21.1032 18.0885 20.99 18.4635 20.7761C18.8386 20.5621 19.1518 20.2546 19.3727 19.8836L21.6467 16.0606C21.8767 15.6747 21.9981 15.2339 21.9981 14.7846C21.9981 14.3354 21.8767 13.8945 21.6467 13.5086L16.0537 4.10863C15.8318 3.7383 15.518 3.43157 15.1427 3.21817C14.7674 3.00477 14.3434 2.89195 13.9117 2.89062H10.5897C10.1578 2.89168 9.73349 3.00437 9.358 3.21779C8.98251 3.4312 8.66858 3.73809 8.44669 4.10863L2.85367 13.5086C2.62347 13.8948 2.50195 14.336 2.50195 14.7856C2.50195 15.2352 2.62347 15.6764 2.85367 16.0626L5.13367 19.8866C5.35519 20.2575 5.66904 20.5646 6.04462 20.7781C6.42019 20.9916 6.84468 21.1041 7.27667 21.1046ZM10.0989 4.5235C10.2485 4.43836 10.4176 4.39328 10.5897 4.39262H13.9157C14.0878 4.39328 14.2569 4.43836 14.4065 4.5235C14.5561 4.60864 14.6812 4.73095 14.7697 4.87862L20.3627 14.2786C20.4544 14.4326 20.5029 14.6084 20.5029 14.7876C20.5029 14.9668 20.4544 15.1427 20.3627 15.2966L18.0877 19.1206C17.9993 19.2685 17.8743 19.391 17.7247 19.4763C17.5751 19.5616 17.4059 19.6069 17.2337 19.6076H7.27768C7.10554 19.607 6.93648 19.5619 6.78687 19.4767C6.63725 19.3916 6.51216 19.2693 6.42368 19.1216L4.14267 15.2966C4.0507 15.1428 4.00214 14.9669 4.00214 14.7876C4.00214 14.6084 4.0507 14.4325 4.14267 14.2786L9.73569 4.87862C9.82417 4.73095 9.94927 4.60864 10.0989 4.5235Z" fill="#000000" />
</svg>