<svg width="24px"  height="24px"  viewBox="0 0 25 24" fill="none" xmlns="http://www.w3.org/2000/svg">
<path d="M17.2304 21.1046H7.27542C6.84366 21.1035 6.41952 20.9908 6.04407 20.7776C5.66862 20.5644 5.35458 20.2579 5.13242 19.8876L2.85242 16.0626C2.62178 15.6768 2.5 15.2357 2.5 14.7861C2.5 14.3366 2.62178 13.8955 2.85242 13.5096L8.44443 4.10963C8.66628 3.73897 8.98017 3.43195 9.35565 3.21837C9.73113 3.00478 10.1555 2.89188 10.5874 2.89062H13.9134C14.3451 2.89205 14.7691 3.00492 15.1444 3.21831C15.5197 3.43169 15.8335 3.73836 16.0554 4.10863L21.6484 13.5086C21.8771 13.8944 21.9977 14.3347 21.9977 14.7831C21.9977 15.2316 21.8771 15.6718 21.6484 16.0576L19.3734 19.8826C19.1516 20.2536 18.8378 20.561 18.4624 20.7751C18.087 20.9892 17.6626 21.1027 17.2304 21.1046ZM10.5884 4.39662C10.4163 4.39727 10.2472 4.44235 10.0976 4.5275C9.94801 4.61264 9.82292 4.73497 9.73444 4.88263L4.14142 14.2826C4.04913 14.4364 4.0004 14.6123 4.0004 14.7916C4.0004 14.9709 4.04913 15.1469 4.14142 15.3006L6.42142 19.1246C6.51002 19.2721 6.63519 19.3942 6.78479 19.4792C6.93439 19.5641 7.10338 19.6091 7.27542 19.6096H17.2304C17.403 19.6092 17.5725 19.5641 17.7225 19.4788C17.8725 19.3935 17.9979 19.2708 18.0864 19.1226L20.3604 15.2996C20.4514 15.1456 20.4994 14.97 20.4994 14.7911C20.4994 14.6122 20.4514 14.4366 20.3604 14.2826L14.7674 4.88263C14.6789 4.73497 14.5538 4.61264 14.4042 4.5275C14.2546 4.44235 14.0856 4.39727 13.9134 4.39662H10.5884Z" fill="#000000" />
<path d="M21.25 15.4531H3.25C3.05109 15.4531 2.86032 15.3741 2.71967 15.2335C2.57901 15.0928 2.5 14.902 2.5 14.7031C2.5 14.5042 2.57901 14.3134 2.71967 14.1728C2.86032 14.0321 3.05109 13.9531 3.25 13.9531H21.25C21.4489 13.9531 21.6397 14.0321 21.7803 14.1728C21.921 14.3134 22 14.5042 22 14.7031C22 14.902 21.921 15.0928 21.7803 15.2335C21.6397 15.3741 21.4489 15.4531 21.25 15.4531Z" fill="#000000" />
<path d="M18.042 20.8483C17.9041 20.8485 17.7688 20.8107 17.6511 20.7388C17.5334 20.667 17.4378 20.564 17.375 20.4413L9.015 4.2413C8.96989 4.15384 8.94246 4.05836 8.93425 3.9603C8.92604 3.86223 8.93723 3.76351 8.96718 3.66977C8.99713 3.57603 9.04524 3.4891 9.10878 3.41395C9.17232 3.33881 9.25002 3.27692 9.33748 3.23181C9.42494 3.1867 9.52045 3.15925 9.61852 3.15105C9.71658 3.14284 9.8153 3.15404 9.90904 3.18399C10.0028 3.21394 10.0897 3.26205 10.1648 3.32559C10.24 3.38913 10.3019 3.46684 10.347 3.55431L18.707 19.7493C18.7659 19.8635 18.7946 19.991 18.7901 20.1194C18.7856 20.2479 18.7482 20.373 18.6814 20.4829C18.6146 20.5927 18.5208 20.6835 18.4088 20.7467C18.2968 20.8098 18.1705 20.8431 18.042 20.8433V20.8483Z" fill="#000000" />
<path d="M6.46635 20.8492C6.33773 20.8491 6.2113 20.816 6.09919 20.7529C5.98708 20.6899 5.89306 20.5991 5.82618 20.4892C5.7593 20.3793 5.72178 20.2541 5.71726 20.1256C5.71274 19.997 5.74134 19.8695 5.80033 19.7552L14.1543 3.55519C14.1994 3.4676 14.2614 3.38975 14.3366 3.32609C14.4117 3.26243 14.4988 3.21419 14.5926 3.18416C14.6864 3.15412 14.7853 3.14286 14.8835 3.15101C14.9816 3.15917 15.0772 3.18658 15.1648 3.23169C15.2524 3.2768 15.3303 3.33871 15.394 3.41391C15.4576 3.4891 15.5058 3.5761 15.5359 3.66993C15.5659 3.76377 15.5772 3.86261 15.569 3.9608C15.5609 4.05898 15.5335 4.15459 15.4883 4.24218L7.13434 20.4422C7.07096 20.5647 6.97514 20.6675 6.85734 20.7392C6.73954 20.811 6.60429 20.849 6.46635 20.8492Z" fill="#000000" />
</svg>