<svg width="24px"  height="24px"  viewBox="0 0 25 24" fill="none" xmlns="http://www.w3.org/2000/svg">
<path d="M12.2466 20.8279H7.27466C6.84346 20.8271 6.41978 20.7148 6.0448 20.502C5.66982 20.2891 5.35628 19.9828 5.13464 19.6129L2.85565 15.7909C2.62543 15.4049 2.50391 14.9638 2.50391 14.5144C2.50391 14.065 2.62543 13.6239 2.85565 13.2379L8.44464 3.84792C8.6667 3.47767 8.98055 3.17095 9.35577 2.95741C9.731 2.74387 10.1549 2.63072 10.5867 2.62891H13.9067C14.3384 2.6302 14.7623 2.74325 15.1373 2.95705C15.5123 3.17084 15.8257 3.4781 16.0467 3.84891L20.4467 11.2389C20.4971 11.3235 20.5304 11.4173 20.5446 11.5148C20.5588 11.6123 20.5536 11.7116 20.5294 11.8071C20.5052 11.9026 20.4625 11.9924 20.4036 12.0714C20.3447 12.1504 20.2708 12.217 20.1862 12.2674C20.1015 12.3178 20.0078 12.3511 19.9103 12.3653C19.8128 12.3795 19.7135 12.3744 19.618 12.3502C19.5225 12.326 19.4327 12.2832 19.3537 12.2243C19.2747 12.1654 19.2081 12.0915 19.1577 12.0069L14.7577 4.61491C14.6694 4.46754 14.5446 4.34539 14.3953 4.26027C14.2461 4.17514 14.0774 4.1299 13.9056 4.12891H10.5856C10.4135 4.12956 10.2445 4.17464 10.0948 4.25978C9.94524 4.34492 9.82017 4.46725 9.73169 4.61491L4.14264 14.0059C4.05084 14.1595 4.00238 14.335 4.00238 14.5139C4.00238 14.6928 4.05084 14.8684 4.14264 15.0219L6.42169 18.8449C6.51036 18.9917 6.63528 19.1133 6.78448 19.1978C6.93369 19.2824 7.10217 19.3272 7.27368 19.3279H12.2457C12.4446 19.3279 12.6353 19.4069 12.776 19.5476C12.9167 19.6882 12.9957 19.879 12.9957 20.0779C12.9957 20.2768 12.9167 20.4676 12.776 20.6082C12.6353 20.7489 12.4446 20.8279 12.2457 20.8279H12.2466Z" fill="#000000" />
<path d="M18.1546 21.3704C17.1347 21.3694 16.1569 20.9637 15.4359 20.2424C14.7148 19.5212 14.3094 18.5433 14.3086 17.5234C14.3086 17.3245 14.3876 17.1338 14.5283 16.9931C14.6689 16.8525 14.8597 16.7734 15.0586 16.7734C15.2575 16.7734 15.4483 16.8525 15.5889 16.9931C15.7296 17.1338 15.8086 17.3245 15.8086 17.5234C15.8083 17.9753 15.9385 18.4176 16.1835 18.7973C16.4285 19.177 16.7779 19.4778 17.1897 19.6638C17.6015 19.8497 18.0583 19.9128 18.5051 19.8456C18.9519 19.7783 19.3698 19.5834 19.7086 19.2844C19.7819 19.2169 19.8681 19.1647 19.9619 19.1309C20.0556 19.097 20.1552 19.0823 20.2548 19.0874C20.3544 19.0925 20.4519 19.1174 20.5417 19.1606C20.6316 19.2039 20.7119 19.2646 20.778 19.3393C20.8441 19.4139 20.8946 19.501 20.9266 19.5954C20.9587 19.6899 20.9716 19.7897 20.9645 19.8892C20.9575 19.9887 20.9307 20.0857 20.8857 20.1747C20.8408 20.2637 20.7785 20.3428 20.7026 20.4074C19.9995 21.029 19.0931 21.3716 18.1546 21.3704Z" fill="#000000" />
<path d="M21.2534 18.2747C21.0545 18.2747 20.8637 18.1957 20.7231 18.055C20.5824 17.9144 20.5034 17.7236 20.5034 17.5247C20.5033 17.073 20.3728 16.631 20.1277 16.2516C19.8825 15.8723 19.5331 15.5717 19.1214 15.386C18.7096 15.2003 18.253 15.1373 17.8064 15.2047C17.3597 15.272 16.942 15.4669 16.6034 15.7657C16.5296 15.8314 16.4437 15.8819 16.3504 15.9143C16.2572 15.9468 16.1585 15.9605 16.0599 15.9548C15.9613 15.9491 15.8649 15.924 15.776 15.881C15.6871 15.838 15.6076 15.778 15.5419 15.7042C15.4762 15.6305 15.4257 15.5445 15.3933 15.4513C15.3608 15.358 15.3471 15.2593 15.3528 15.1607C15.3585 15.0622 15.3836 14.9657 15.4266 14.8768C15.4696 14.7879 15.5296 14.7084 15.6034 14.6427C16.1584 14.1528 16.843 13.8333 17.5751 13.7228C18.3071 13.6123 19.0555 13.7153 19.7304 14.0196C20.4054 14.3239 20.9782 14.8164 21.3801 15.4381C21.782 16.0599 21.996 16.7844 21.9964 17.5247C21.9964 17.7224 21.9184 17.9121 21.7792 18.0526C21.6401 18.193 21.4511 18.2729 21.2534 18.2747Z" fill="#000000" />
<path d="M12.6915 15.1789H9.24955C9.12093 15.1788 8.99447 15.1457 8.88236 15.0826C8.77025 15.0196 8.67623 14.9288 8.60935 14.8189C8.54247 14.709 8.50499 14.5838 8.50046 14.4553C8.49594 14.3268 8.52454 14.1992 8.58353 14.0849L11.5785 8.28491C11.6414 8.16252 11.7369 8.05985 11.8544 7.98822C11.9719 7.91659 12.1069 7.87877 12.2445 7.87891C12.3823 7.87881 12.5174 7.91665 12.635 7.98827C12.7527 8.05988 12.8484 8.16252 12.9115 8.28491L14.7395 11.8339C14.7847 11.9215 14.8122 12.0171 14.8204 12.1153C14.8286 12.2136 14.8174 12.3124 14.7874 12.4063C14.7574 12.5002 14.7092 12.5872 14.6456 12.6625C14.582 12.7377 14.5041 12.7997 14.4165 12.8449C14.3289 12.8901 14.2333 12.9176 14.1351 12.9258C14.0369 12.934 13.938 12.9228 13.8442 12.8928C13.7503 12.8628 13.6632 12.8146 13.5879 12.751C13.5127 12.6873 13.4507 12.6095 13.4056 12.5219L12.2435 10.2659L10.4815 13.6829H12.6915C12.8904 13.6829 13.0812 13.7619 13.2218 13.9026C13.3625 14.0432 13.4415 14.234 13.4415 14.4329C13.4415 14.6318 13.3625 14.8226 13.2218 14.9632C13.0812 15.1039 12.8904 15.1829 12.6915 15.1829V15.1789Z" fill="#000000" />
</svg>