<svg width="24px"  height="24px"  viewBox="0 0 25 24" fill="none" xmlns="http://www.w3.org/2000/svg">
<path d="M12.4124 21.1756H7.34039C6.90294 21.174 6.4733 21.0596 6.09299 20.8435C5.71268 20.6273 5.39455 20.3167 5.16937 19.9416L2.84637 16.0416C2.6139 15.6502 2.49121 15.2034 2.49121 14.7481C2.49121 14.2929 2.6139 13.8461 2.84637 13.4546L8.54639 3.87462C8.77103 3.49932 9.0889 3.18848 9.46912 2.97226C9.84934 2.75604 10.279 2.6418 10.7164 2.64062H14.1024C14.5401 2.64152 14.9701 2.75586 15.3504 2.97249C15.7307 3.18911 16.0484 3.50063 16.2724 3.87663L20.7574 11.4136C20.8592 11.5846 20.889 11.7889 20.8401 11.9818C20.7913 12.1747 20.6678 12.3403 20.4969 12.4421C20.326 12.544 20.1216 12.5737 19.9287 12.5249C19.7358 12.476 19.5702 12.3526 19.4684 12.1816L14.9824 4.64262C14.8914 4.49011 14.7624 4.36385 14.608 4.2762C14.4535 4.18855 14.279 4.14251 14.1014 4.14262H10.7154C10.5378 4.14302 10.3633 4.18925 10.2087 4.27684C10.0542 4.36443 9.92493 4.49043 9.83337 4.64262L4.13339 14.2216C4.03845 14.3808 3.98831 14.5628 3.98831 14.7481C3.98831 14.9335 4.03845 15.1154 4.13339 15.2746L6.45538 19.1746C6.54732 19.3267 6.67684 19.4526 6.83148 19.5401C6.98612 19.6277 7.16067 19.674 7.33838 19.6746H12.4094C12.6083 19.6746 12.7991 19.7537 12.9397 19.8943C13.0804 20.035 13.1594 20.2257 13.1594 20.4246C13.1594 20.6235 13.0804 20.8143 12.9397 20.9549C12.7991 21.0956 12.6083 21.1746 12.4094 21.1746L12.4124 21.1756Z" fill="#000000" />
<path d="M16.9218 21.3582C16.7228 21.3584 16.5319 21.2796 16.3908 21.1392L14.2308 18.9782C14.0943 18.8367 14.0187 18.6472 14.0205 18.4506C14.0223 18.2539 14.1013 18.0659 14.2404 17.9269C14.3796 17.7879 14.5677 17.7091 14.7643 17.7075C14.961 17.7059 15.1504 17.7816 15.2918 17.9182L16.9218 19.5482L20.7108 15.7582C20.7795 15.6845 20.8623 15.6254 20.9543 15.5844C21.0463 15.5434 21.1456 15.5214 21.2463 15.5196C21.347 15.5179 21.447 15.5364 21.5404 15.5741C21.6338 15.6118 21.7186 15.668 21.7899 15.7392C21.8611 15.8104 21.9172 15.8953 21.9549 15.9886C21.9926 16.082 22.0112 16.182 22.0094 16.2827C22.0076 16.3834 21.9856 16.4828 21.9446 16.5748C21.9036 16.6668 21.8445 16.7496 21.7708 16.8182L17.4518 21.1392C17.311 21.2794 17.1205 21.3581 16.9218 21.3582Z" fill="#000000" />
<path d="M12.8641 15.4122H9.3531C9.2244 15.4123 9.09783 15.3793 8.98558 15.3163C8.87333 15.2533 8.77917 15.1625 8.71217 15.0526C8.64517 14.9427 8.60758 14.8174 8.60301 14.6888C8.59844 14.5602 8.62708 14.4325 8.68611 14.3182L11.7401 8.39819C11.8032 8.27573 11.8988 8.17301 12.0165 8.10138C12.1342 8.02975 12.2693 7.99198 12.4071 7.99219C12.5447 7.99216 12.6796 8.03004 12.7971 8.10165C12.9146 8.17327 13.0101 8.27588 13.0731 8.39819L14.9391 12.0192C15.0302 12.1961 15.0473 12.4019 14.9866 12.5914C14.9259 12.7809 14.7925 12.9386 14.6156 13.0297C14.4387 13.1208 14.2329 13.1379 14.0433 13.0772C13.8538 13.0165 13.6962 12.8831 13.6051 12.7062L12.4051 10.3792L10.5821 13.9122H12.8621C13.061 13.9122 13.2518 13.9912 13.3924 14.1319C13.5331 14.2725 13.6121 14.4633 13.6121 14.6622C13.6121 14.8611 13.5331 15.0519 13.3924 15.1925C13.2518 15.3332 13.061 15.4122 12.8621 15.4122H12.8641Z" fill="#000000" />
</svg>