<svg width="24px"  height="24px"  viewBox="0 0 25 24" fill="none" xmlns="http://www.w3.org/2000/svg">
<path d="M13.0149 21.3386H7.78188C7.33458 21.3374 6.8952 21.2206 6.50639 20.9995C6.11758 20.7783 5.79255 20.4604 5.56287 20.0766L3.16287 16.0566C2.9246 15.6565 2.79883 15.1994 2.79883 14.7336C2.79883 14.2679 2.9246 13.8108 3.16287 13.4106L9.04688 3.52864C9.27627 3.14471 9.60107 2.82664 9.98972 2.60533C10.3784 2.38402 10.8176 2.26699 11.2649 2.26562H14.7579C15.2054 2.26675 15.6451 2.38365 16.0341 2.60497C16.4231 2.82628 16.7482 3.14449 16.9779 3.52864L21.6059 11.3056C21.7006 11.4763 21.7251 11.6772 21.6743 11.8657C21.6234 12.0542 21.5011 12.2155 21.3334 12.3153C21.1656 12.4152 20.9656 12.4458 20.7757 12.4007C20.5857 12.3556 20.4208 12.2383 20.3159 12.0736L15.6889 4.29564C15.5925 4.13462 15.4561 4.00122 15.293 3.90837C15.1299 3.81552 14.9456 3.76636 14.7579 3.76564H11.2639C11.0764 3.76623 10.8923 3.81523 10.7294 3.90791C10.5664 4.0006 10.4302 4.13381 10.3339 4.29463L4.44987 14.1776C4.34995 14.3457 4.29721 14.5376 4.29721 14.7331C4.29721 14.9287 4.34995 15.1206 4.44987 15.2886L6.84987 19.3096C6.94649 19.4704 7.08292 19.6035 7.246 19.6962C7.40908 19.7889 7.5933 19.8379 7.78087 19.8386H13.0139C13.2128 19.8386 13.4036 19.9177 13.5442 20.0583C13.6849 20.199 13.7639 20.3897 13.7639 20.5886C13.7639 20.7875 13.6849 20.9783 13.5442 21.1189C13.4036 21.2596 13.2128 21.3386 13.0139 21.3386H13.0149Z" fill="#000000" />
<path d="M13.4786 15.3971H9.85761C9.72889 15.3973 9.60227 15.3643 9.49 15.3013C9.37773 15.2383 9.28359 15.1475 9.21665 15.0375C9.14971 14.9276 9.11224 14.8022 9.10786 14.6736C9.10347 14.5449 9.13232 14.4173 9.19161 14.303L12.3416 8.19604C12.4046 8.07346 12.5002 7.97063 12.6179 7.89883C12.7356 7.82703 12.8708 7.78906 13.0086 7.78906C13.1464 7.78928 13.2815 7.82733 13.3991 7.89911C13.5167 7.97088 13.6124 8.07361 13.6756 8.19604L15.5986 11.9301C15.6898 12.107 15.7071 12.3128 15.6465 12.5024C15.5859 12.692 15.4525 12.8498 15.2756 12.941C15.0987 13.0323 14.8928 13.0495 14.7032 12.9889C14.5136 12.9283 14.3558 12.7949 14.2646 12.618L13.0076 10.1761L11.0886 13.8971H13.4786C13.6775 13.8971 13.8683 13.9761 14.0089 14.1167C14.1496 14.2574 14.2286 14.4482 14.2286 14.6471C14.2286 14.846 14.1496 15.0367 14.0089 15.1774C13.8683 15.318 13.6775 15.3971 13.4786 15.3971Z" fill="#000000" />
<path d="M18.6699 21.7369C18.575 21.74 18.4804 21.7243 18.3916 21.6908C18.3027 21.6572 18.2214 21.6065 18.1522 21.5415C18.083 21.4765 18.0273 21.3984 17.9883 21.3119C17.9493 21.2253 17.9278 21.1318 17.9249 21.0369V20.9769C17.9185 20.7781 17.9912 20.5848 18.1271 20.4395C18.263 20.2941 18.4511 20.2087 18.6499 20.2019C18.8474 20.2006 19.0379 20.2752 19.182 20.4103C19.326 20.5454 19.4126 20.7307 19.4239 20.9279C19.4314 21.13 19.3599 21.3271 19.2245 21.4774C19.0892 21.6276 18.9007 21.7193 18.6989 21.7329L18.6699 21.7369ZM18.6699 18.6559C18.471 18.6559 18.2802 18.5769 18.1396 18.4362C17.9989 18.2956 17.9199 18.1049 17.9199 17.9059V15.3359C17.9199 15.137 17.9989 14.9463 18.1396 14.8056C18.2802 14.665 18.471 14.5859 18.6699 14.5859C18.8688 14.5859 19.0596 14.665 19.2003 14.8056C19.3409 14.9463 19.4199 15.137 19.4199 15.3359V17.9059C19.4199 18.1043 19.3413 18.2946 19.2013 18.4352C19.0613 18.5758 18.8713 18.6552 18.6729 18.6559H18.6699Z" fill="#000000" />
</svg>