<svg width="24px"  height="24px"  viewBox="0 0 25 24" fill="none" xmlns="http://www.w3.org/2000/svg">
<path d="M12.6148 21.4416H7.43781C6.99448 21.4398 6.55908 21.3238 6.17371 21.1046C5.78833 20.8855 5.46599 20.5707 5.23779 20.1906L2.86578 16.2126C2.63018 15.8153 2.50586 15.362 2.50586 14.9001C2.50586 14.4382 2.63018 13.9848 2.86578 13.5876L8.68677 3.81059C8.91491 3.43039 9.23725 3.11543 9.62262 2.89612C10.008 2.67681 10.4434 2.56056 10.8868 2.55859H14.3428C14.7865 2.56008 15.2223 2.67634 15.6078 2.89607C15.9933 3.11581 16.3154 3.43155 16.5428 3.81259L21.1218 11.5046C21.1732 11.5893 21.2074 11.6833 21.2223 11.7812C21.2372 11.8792 21.2326 11.9791 21.2086 12.0752C21.1847 12.1714 21.1419 12.2618 21.0828 12.3413C21.0237 12.4208 20.9495 12.4879 20.8643 12.5385C20.7792 12.5892 20.6849 12.6225 20.5868 12.6365C20.4887 12.6505 20.3888 12.6449 20.2929 12.6201C20.197 12.5953 20.107 12.5517 20.028 12.4919C19.949 12.4321 19.8826 12.3572 19.8328 12.2716L15.2538 4.57858C15.1592 4.42042 15.0254 4.28942 14.8652 4.1983C14.7051 4.10718 14.524 4.05906 14.3398 4.05859H10.8838C10.6996 4.05945 10.5187 4.10774 10.3586 4.19882C10.1985 4.2899 10.0646 4.42069 9.96979 4.57858L4.14978 14.3536C4.05183 14.5189 4.00018 14.7075 4.00018 14.8996C4.00018 15.0917 4.05183 15.2803 4.14978 15.4456L6.52081 19.4226C6.61578 19.5803 6.74971 19.7109 6.90979 19.8018C7.06987 19.8927 7.25072 19.9408 7.43481 19.9416H12.6118C12.8107 19.9416 13.0015 20.0206 13.1422 20.1613C13.2828 20.3019 13.3618 20.4927 13.3618 20.6916C13.3618 20.8905 13.2828 21.0813 13.1422 21.2219C13.0015 21.3626 12.8107 21.4416 12.6118 21.4416H12.6148Z" fill="#000000" />
<path d="M13.068 15.5625H3.25C3.05109 15.5625 2.86032 15.4835 2.71967 15.3428C2.57901 15.2022 2.5 15.0114 2.5 14.8125C2.5 14.6136 2.57901 14.4228 2.71967 14.2822C2.86032 14.1415 3.05109 14.0625 3.25 14.0625H13.068C13.2669 14.0625 13.4577 14.1415 13.5983 14.2822C13.739 14.4228 13.818 14.6136 13.818 14.8125C13.818 15.0114 13.739 15.2022 13.5983 15.3428C13.4577 15.4835 13.2669 15.5625 13.068 15.5625Z" fill="#000000" />
<path d="M14.5128 13.216C14.3748 13.2161 14.2394 13.1781 14.1216 13.1063C14.0038 13.0345 13.9079 12.9316 13.8447 12.809L9.27076 3.91999C9.22176 3.83212 9.19093 3.73529 9.18012 3.63527C9.16931 3.53525 9.17874 3.43409 9.20783 3.33779C9.23693 3.24149 9.28511 3.15201 9.3495 3.07471C9.41388 2.99741 9.49314 2.93384 9.58259 2.88781C9.67204 2.84177 9.76986 2.81421 9.87019 2.80675C9.97051 2.79929 10.0713 2.8121 10.1666 2.8444C10.2618 2.87669 10.3496 2.92783 10.4248 2.99476C10.4999 3.06169 10.5608 3.14304 10.6038 3.23398L15.1788 12.123C15.2372 12.2373 15.2654 12.3646 15.2606 12.4929C15.2559 12.6212 15.2183 12.7461 15.1515 12.8558C15.0847 12.9654 14.9909 13.0561 14.8791 13.1191C14.7673 13.1822 14.6411 13.2155 14.5128 13.216Z" fill="#000000" />
<path d="M6.5972 21.1759C6.46858 21.1758 6.34219 21.1427 6.23008 21.0796C6.11797 21.0166 6.02395 20.9258 5.95707 20.8159C5.89019 20.706 5.85264 20.5808 5.84812 20.4523C5.8436 20.3237 5.87226 20.1962 5.93125 20.0819L14.6212 3.2299C14.7166 3.06059 14.874 2.93486 15.0602 2.87916C15.2464 2.82346 15.4469 2.84212 15.6197 2.93121C15.7924 3.02029 15.9239 3.17287 15.9865 3.35688C16.0491 3.54089 16.0379 3.74198 15.9552 3.9179L7.26523 20.7699C7.20163 20.8922 7.10572 20.9947 6.98795 21.0662C6.87018 21.1378 6.73502 21.1757 6.5972 21.1759Z" fill="#000000" />
<path d="M18.832 21.167C18.6331 21.167 18.4424 21.088 18.3018 20.9474C18.1611 20.8067 18.082 20.616 18.082 20.417V18.75H16.4141C16.2152 18.75 16.0244 18.671 15.8837 18.5304C15.7431 18.3897 15.6641 18.1989 15.6641 18C15.6641 17.8011 15.7431 17.6103 15.8837 17.4697C16.0244 17.329 16.2152 17.25 16.4141 17.25H18.082V15.582C18.082 15.3831 18.1611 15.1923 18.3018 15.0517C18.4424 14.911 18.6331 14.832 18.832 14.832C19.0309 14.832 19.2217 14.911 19.3624 15.0517C19.503 15.1923 19.582 15.3831 19.582 15.582V17.25H21.2501C21.449 17.25 21.6397 17.329 21.7804 17.4697C21.921 17.6103 22.0001 17.8011 22.0001 18C22.0001 18.1989 21.921 18.3897 21.7804 18.5304C21.6397 18.671 21.449 18.75 21.2501 18.75H19.582V20.417C19.582 20.616 19.503 20.8067 19.3624 20.9474C19.2217 21.088 19.0309 21.167 18.832 21.167Z" fill="#000000" />
</svg>