<svg width="24px"  height="24px"  viewBox="0 0 25 24" fill="none" xmlns="http://www.w3.org/2000/svg">
<path d="M12.3257 20.974H7.30865C6.87445 20.9728 6.44791 20.8595 6.07036 20.6451C5.69281 20.4307 5.37703 20.1223 5.15364 19.75L2.85365 15.894C2.62158 15.5061 2.49902 15.0625 2.49902 14.6105C2.49902 14.1585 2.62158 13.7149 2.85365 13.327L8.49565 3.84999C8.71905 3.47782 9.03465 3.16956 9.41197 2.95497C9.78929 2.74038 10.2156 2.62673 10.6496 2.625H13.9996C14.4338 2.62623 14.8602 2.73979 15.2375 2.95462C15.6148 3.16945 15.9301 3.47825 16.1526 3.851L20.5916 11.309C20.6421 11.3936 20.6753 11.4874 20.6895 11.5849C20.7037 11.6824 20.6986 11.7817 20.6744 11.8772C20.6502 11.9727 20.6075 12.0625 20.5486 12.1415C20.4897 12.2205 20.4158 12.2871 20.3311 12.3375C20.2465 12.3879 20.1528 12.4212 20.0553 12.4354C19.9578 12.4496 19.8584 12.4445 19.7629 12.4203C19.6674 12.3961 19.5776 12.3533 19.4987 12.2944C19.4197 12.2355 19.3531 12.1616 19.3026 12.077L14.8636 4.618C14.7747 4.46798 14.6483 4.34368 14.4968 4.25725C14.3454 4.17082 14.174 4.12525 13.9996 4.12502H10.6496C10.475 4.12581 10.3034 4.17157 10.1516 4.25792C9.99971 4.34427 9.87266 4.46828 9.78265 4.618L4.14265 14.094C4.04883 14.2498 3.99924 14.4282 3.99924 14.61C3.99924 14.7918 4.04883 14.9702 4.14265 15.126L6.44264 18.982C6.53232 19.1317 6.65919 19.2557 6.81093 19.3419C6.96267 19.4281 7.13414 19.4736 7.30865 19.474H12.3257C12.5246 19.474 12.7153 19.553 12.856 19.6937C12.9966 19.8343 13.0757 20.0251 13.0757 20.224C13.0757 20.4229 12.9966 20.6137 12.856 20.7543C12.7153 20.895 12.5246 20.974 12.3257 20.974Z" fill="#000000" />
<path d="M6.49335 20.7157C6.36463 20.7159 6.23801 20.6829 6.12574 20.62C6.01347 20.557 5.91933 20.4661 5.85239 20.3562C5.78546 20.2462 5.74799 20.1209 5.7436 19.9922C5.73921 19.8636 5.76806 19.736 5.82735 19.6217L14.2514 3.28871C14.2951 3.19889 14.3564 3.11871 14.4315 3.0529C14.5067 2.98708 14.5943 2.93696 14.6891 2.90545C14.7839 2.87395 14.8841 2.8617 14.9837 2.86944C15.0833 2.87718 15.1804 2.90475 15.2692 2.95053C15.358 2.9963 15.4368 3.05936 15.5009 3.136C15.565 3.21263 15.6131 3.3013 15.6425 3.3968C15.6718 3.4923 15.6818 3.5927 15.6718 3.69212C15.6619 3.79153 15.6321 3.88796 15.5843 3.97572L7.16135 20.3087C7.09806 20.4313 7.00226 20.5341 6.88444 20.6059C6.76662 20.6777 6.63132 20.7157 6.49335 20.7157Z" fill="#000000" />
<path d="M12.768 15.2812H3.25098C3.05206 15.2812 2.86129 15.2022 2.72064 15.0616C2.57999 14.9209 2.50098 14.7302 2.50098 14.5312C2.50098 14.3323 2.57999 14.1416 2.72064 14.0009C2.86129 13.8603 3.05206 13.7812 3.25098 13.7812H12.768C12.9669 13.7812 13.1577 13.8603 13.2983 14.0009C13.439 14.1416 13.518 14.3323 13.518 14.5312C13.518 14.7302 13.439 14.9209 13.2983 15.0616C13.1577 15.2022 12.9669 15.2812 12.768 15.2812Z" fill="#000000" />
<path d="M14.1687 13.0084C14.0309 13.0083 13.8957 12.9704 13.7779 12.8989C13.6601 12.8273 13.5642 12.7247 13.5007 12.6024L9.0647 3.98439C8.9736 3.80749 8.9565 3.60163 9.01717 3.41213C9.07784 3.22262 9.2113 3.06498 9.3882 2.97388C9.5651 2.88278 9.77095 2.86568 9.96045 2.92635C10.15 2.98702 10.3076 3.12048 10.3987 3.29738L14.8347 11.9144C14.8937 12.0287 14.9223 12.1562 14.9178 12.2847C14.9132 12.4133 14.8758 12.5385 14.8089 12.6484C14.742 12.7583 14.648 12.8491 14.5359 12.9121C14.4238 12.9751 14.2973 13.0083 14.1687 13.0084Z" fill="#000000" />
<path d="M15.501 21.3738C15.3021 21.3738 15.1113 21.2948 14.9706 21.1541C14.83 21.0135 14.751 20.8227 14.751 20.6238V18.8828C14.751 18.6839 14.83 18.4931 14.9706 18.3525C15.1113 18.2118 15.3021 18.1328 15.501 18.1328H17.374C17.5729 18.1328 17.7637 18.2118 17.9043 18.3525C18.045 18.4931 18.124 18.6839 18.124 18.8828C18.124 19.0817 18.045 19.2725 17.9043 19.4131C17.7637 19.5538 17.5729 19.6328 17.374 19.6328H16.251V20.6238C16.251 20.8227 16.172 21.0135 16.0313 21.1541C15.8907 21.2948 15.6999 21.3738 15.501 21.3738Z" fill="#000000" />
<path d="M21.2509 16.9239H19.3779C19.179 16.9239 18.9882 16.8449 18.8476 16.7042C18.7069 16.5636 18.6279 16.3728 18.6279 16.1739C18.6279 15.975 18.7069 15.7842 18.8476 15.6436C18.9882 15.5029 19.179 15.4239 19.3779 15.4239H20.5009V14.2969C20.5009 14.098 20.5799 13.9072 20.7206 13.7666C20.8612 13.6259 21.052 13.5469 21.2509 13.5469C21.4498 13.5469 21.6406 13.6259 21.7813 13.7666C21.9219 13.9072 22.0009 14.098 22.0009 14.2969V16.1689C22.0016 16.2678 21.9827 16.3659 21.9453 16.4574C21.9079 16.549 21.8527 16.6323 21.783 16.7025C21.7133 16.7726 21.6304 16.8283 21.5391 16.8663C21.4478 16.9043 21.3498 16.9239 21.2509 16.9239Z" fill="#000000" />
<path d="M18.2092 21.3255C17.5298 21.2713 16.8727 21.0578 16.2912 20.7023C15.7097 20.3468 15.2202 19.8594 14.8622 19.2795C14.7649 19.11 14.7377 18.9092 14.7862 18.7199C14.8347 18.5307 14.9552 18.3678 15.1221 18.266C15.2889 18.1643 15.4888 18.1316 15.6793 18.175C15.8698 18.2184 16.0359 18.3345 16.1421 18.4985C16.3669 18.8589 16.6689 19.165 17.0264 19.3945C17.3839 19.624 17.7878 19.7712 18.2092 19.8255C18.6104 19.8253 19.0046 19.7197 19.3523 19.5193C19.7 19.3189 19.9889 19.0307 20.1902 18.6835C20.2385 18.5966 20.3036 18.5201 20.3817 18.4586C20.4598 18.3971 20.5493 18.3517 20.6452 18.3251C20.741 18.2986 20.8411 18.2913 20.9397 18.3037C21.0384 18.3162 21.1336 18.3482 21.2197 18.3977C21.3059 18.4473 21.3814 18.5136 21.4417 18.5926C21.5021 18.6716 21.5461 18.7618 21.5713 18.858C21.5964 18.9542 21.6022 19.0545 21.5883 19.1529C21.5744 19.2513 21.541 19.3461 21.4902 19.4315C21.1567 20.0066 20.6782 20.4842 20.1025 20.8165C19.5268 21.1489 18.8739 21.3244 18.2092 21.3255Z" fill="#000000" />
<path d="M21.2514 16.932C21.1217 16.9322 20.9941 16.8986 20.8812 16.8346C20.7683 16.7706 20.674 16.6784 20.6074 16.567C20.3429 16.1703 19.9867 15.8433 19.5689 15.6135C19.1511 15.3837 18.6841 15.258 18.2074 15.247C17.8033 15.2437 17.4056 15.3484 17.0555 15.5504C16.7054 15.7525 16.4158 16.0444 16.2164 16.396C16.1697 16.4855 16.1053 16.5646 16.0272 16.6286C15.9491 16.6926 15.8589 16.7403 15.762 16.7686C15.6651 16.7969 15.5634 16.8053 15.4631 16.7934C15.3629 16.7814 15.266 16.7494 15.1785 16.6991C15.0909 16.6488 15.0144 16.5814 14.9535 16.5009C14.8926 16.4203 14.8486 16.3283 14.8241 16.2303C14.7996 16.1324 14.7952 16.0305 14.8111 15.9308C14.8269 15.831 14.8628 15.7356 14.9164 15.65C15.2501 15.072 15.7302 14.5921 16.3083 14.2586C16.8863 13.925 17.542 13.7496 18.2094 13.75C18.9447 13.7633 19.6654 13.9572 20.3082 14.3145C20.9509 14.6718 21.496 15.1816 21.8954 15.799C21.9634 15.9128 22 16.0425 22.0016 16.175C22.0032 16.3076 21.9697 16.4381 21.9045 16.5535C21.8393 16.6689 21.7447 16.765 21.6303 16.832C21.516 16.899 21.386 16.9345 21.2534 16.935L21.2514 16.932Z" fill="#000000" />
</svg>