<svg width="24px"  height="24px"  viewBox="0 0 25 24" fill="none" xmlns="http://www.w3.org/2000/svg">
<path d="M13.0018 21.1496H7.82678C7.3835 21.1477 6.94821 21.0315 6.56287 20.8124C6.17752 20.5933 5.85511 20.2786 5.62677 19.8986L3.25378 15.9206C3.01737 15.5235 2.89258 15.0698 2.89258 14.6076C2.89258 14.1454 3.01737 13.6918 3.25378 13.2946L9.07278 3.51863C9.30073 3.13817 9.62297 2.82295 10.0084 2.60345C10.3938 2.38396 10.8293 2.2676 11.2728 2.26562H14.7288C15.1725 2.26712 15.6083 2.38338 15.9938 2.60312C16.3793 2.82285 16.7014 3.1386 16.9288 3.51964L21.5068 11.2126C21.5572 11.2973 21.5905 11.391 21.6047 11.4885C21.6189 11.586 21.6137 11.6853 21.5895 11.7808C21.5653 11.8763 21.5226 11.9661 21.4637 12.0451C21.4048 12.1241 21.3309 12.1907 21.2463 12.2411C21.1616 12.2916 21.0679 12.3248 20.9704 12.339C20.8729 12.3532 20.7736 12.3481 20.6781 12.3239C20.5826 12.2997 20.4928 12.2569 20.4138 12.198C20.3348 12.1391 20.2682 12.0653 20.2178 11.9806L15.6398 4.28664C15.5454 4.12822 15.4116 3.99696 15.2515 3.90565C15.0913 3.81435 14.9101 3.76611 14.7258 3.76564H11.2708C11.0863 3.76634 10.9051 3.81455 10.7447 3.90562C10.5842 3.9967 10.45 4.12758 10.3548 4.28563L4.53677 14.0616C4.43841 14.2268 4.38651 14.4154 4.38651 14.6076C4.38651 14.7998 4.43841 14.9885 4.53677 15.1536L6.9068 19.1296C7.00166 19.2877 7.13572 19.4187 7.29602 19.5098C7.45632 19.6009 7.6374 19.649 7.82178 19.6496H12.9968C13.1957 19.6496 13.3864 19.7287 13.5271 19.8693C13.6678 20.01 13.7468 20.2007 13.7468 20.3996C13.7468 20.5985 13.6678 20.7893 13.5271 20.9299C13.3864 21.0706 13.1957 21.1496 12.9968 21.1496H13.0018Z" fill="#000000" />
<path d="M18.5909 21.7344C18.407 21.7407 18.2277 21.6758 18.0904 21.5532C17.9532 21.4307 17.8684 21.2599 17.8539 21.0764L17.8479 21.0064C17.8374 20.9067 17.847 20.8059 17.8761 20.71C17.9053 20.6141 17.9534 20.525 18.0176 20.448C18.0817 20.3709 18.1607 20.3076 18.2498 20.2616C18.3389 20.2156 18.4363 20.188 18.5362 20.1803C18.6362 20.1726 18.7367 20.185 18.8317 20.2169C18.9268 20.2487 19.0145 20.2992 19.0897 20.3655C19.1649 20.4318 19.2261 20.5125 19.2696 20.6028C19.3131 20.6932 19.338 20.7913 19.3429 20.8914C19.36 21.0933 19.298 21.2939 19.1697 21.4507C19.0414 21.6076 18.8571 21.7083 18.6559 21.7314C18.6339 21.7334 18.6129 21.7344 18.5909 21.7344ZM18.6008 18.6904C18.4019 18.6904 18.2112 18.6114 18.0705 18.4708C17.9299 18.3301 17.8508 18.1393 17.8508 17.9404V15.3984C17.8508 15.1995 17.9299 15.0088 18.0705 14.8681C18.2112 14.7275 18.4019 14.6484 18.6008 14.6484C18.7998 14.6484 18.9905 14.7275 19.1312 14.8681C19.2718 15.0088 19.3508 15.1995 19.3508 15.3984V17.9404C19.3508 18.1393 19.2718 18.3301 19.1312 18.4708C18.9905 18.6114 18.7998 18.6904 18.6008 18.6904Z" fill="#000000" />
<path d="M13.4547 15.2734H3.63672C3.43781 15.2734 3.24707 15.1944 3.10641 15.0538C2.96576 14.9131 2.88672 14.7223 2.88672 14.5234C2.88672 14.3245 2.96576 14.1338 3.10641 13.9931C3.24707 13.8525 3.43781 13.7734 3.63672 13.7734H13.4547C13.6537 13.7734 13.8444 13.8525 13.985 13.9931C14.1257 14.1338 14.2047 14.3245 14.2047 14.5234C14.2047 14.7223 14.1257 14.9131 13.985 15.0538C13.8444 15.1944 13.6537 15.2734 13.4547 15.2734Z" fill="#000000" />
<path d="M6.98392 20.8822C6.8553 20.8821 6.72888 20.8489 6.61677 20.7859C6.50466 20.7228 6.41064 20.632 6.34376 20.5221C6.27687 20.4123 6.23936 20.2871 6.23484 20.1585C6.23032 20.03 6.25891 19.9024 6.31791 19.7882L15.0079 2.93714C15.0517 2.84732 15.1129 2.76715 15.1881 2.70133C15.2633 2.63552 15.3509 2.58539 15.4457 2.55389C15.5405 2.52238 15.6407 2.51014 15.7403 2.51788C15.8399 2.52562 15.9369 2.55319 16.0257 2.59896C16.1145 2.64474 16.1933 2.70778 16.2574 2.78442C16.3215 2.86106 16.3697 2.94974 16.3991 3.04524C16.4284 3.14074 16.4384 3.24114 16.4284 3.34056C16.4184 3.43997 16.3887 3.5364 16.3409 3.62416L7.65092 20.4761C7.58783 20.5986 7.4922 20.7013 7.37452 20.7729C7.25684 20.8446 7.12169 20.8824 6.98392 20.8822Z" fill="#000000" />
<path d="M14.9024 12.9288C14.7647 12.929 14.6295 12.8913 14.5118 12.8196C14.3942 12.748 14.2985 12.6453 14.2354 12.5228L9.65942 3.63283C9.56831 3.45593 9.55123 3.25007 9.6119 3.06056C9.67257 2.87106 9.806 2.71342 9.9829 2.62232C10.1598 2.53122 10.3657 2.51412 10.5552 2.57479C10.7447 2.63545 10.9023 2.76892 10.9934 2.94582L15.5694 11.8348C15.6604 12.0119 15.6774 12.2178 15.6167 12.4074C15.5559 12.597 15.4224 12.7547 15.2454 12.8458C15.1394 12.9007 15.0218 12.9292 14.9024 12.9288Z" fill="#000000" />
</svg>