<svg width="24px"  height="24px"  viewBox="0 0 25 24" fill="none" xmlns="http://www.w3.org/2000/svg">
<path d="M12.3287 20.983H7.30971C6.87483 20.9825 6.44747 20.8695 6.06915 20.6551C5.69084 20.4406 5.37445 20.1319 5.15071 19.759L2.85071 15.899C2.61926 15.5109 2.49707 15.0674 2.49707 14.6155C2.49707 14.1636 2.61926 13.7201 2.85071 13.332L8.49471 3.85199C8.7181 3.47943 9.03378 3.17078 9.41128 2.95584C9.78877 2.74091 10.2153 2.62696 10.6497 2.625H14.0007C14.4354 2.62619 14.8623 2.73992 15.24 2.95512C15.6176 3.17032 15.9331 3.47966 16.1557 3.853L20.5947 11.313C20.6462 11.3977 20.6803 11.4917 20.6952 11.5896C20.7101 11.6876 20.7055 11.7875 20.6815 11.8836C20.6576 11.9798 20.6148 12.0702 20.5557 12.1497C20.4966 12.2292 20.4224 12.2963 20.3372 12.347C20.2521 12.3976 20.1578 12.4309 20.0597 12.4449C19.9616 12.4589 19.8617 12.4533 19.7658 12.4285C19.6699 12.4037 19.5799 12.3601 19.5009 12.3003C19.4219 12.2405 19.3556 12.1656 19.3057 12.08L14.8657 4.61899C14.7764 4.46876 14.6497 4.34428 14.4979 4.25769C14.3461 4.1711 14.1745 4.12539 13.9997 4.125H10.6487C10.4738 4.12611 10.3022 4.17211 10.1502 4.25861C9.9982 4.34511 9.87097 4.4692 9.78071 4.61899L4.14271 14.099C4.04973 14.2552 4.00066 14.4337 4.00066 14.6155C4.00066 14.7973 4.04973 14.9757 4.14271 15.132L6.44271 18.99C6.53295 19.1397 6.6602 19.2637 6.81221 19.3501C6.96422 19.4364 7.13589 19.4822 7.31071 19.483H12.3297C12.5286 19.483 12.7194 19.562 12.86 19.7027C13.0007 19.8433 13.0797 20.0341 13.0797 20.233C13.0797 20.4319 13.0007 20.6227 12.86 20.7633C12.7194 20.904 12.5286 20.983 12.3297 20.983H12.3287Z" fill="#000000" />
<path d="M15.499 21.3748C15.3001 21.3748 15.1093 21.2958 14.9687 21.1552C14.828 21.0145 14.749 20.8237 14.749 20.6248V18.8828C14.749 18.6839 14.828 18.4931 14.9687 18.3525C15.1093 18.2118 15.3001 18.1328 15.499 18.1328H17.373C17.5719 18.1328 17.7627 18.2118 17.9034 18.3525C18.044 18.4931 18.123 18.6839 18.123 18.8828C18.123 19.0817 18.044 19.2725 17.9034 19.4131C17.7627 19.5538 17.5719 19.6328 17.373 19.6328H16.251V20.6248C16.251 20.7235 16.2316 20.8212 16.1937 20.9123C16.1559 21.0034 16.1005 21.0862 16.0306 21.1559C15.9608 21.2255 15.8779 21.2807 15.7867 21.3183C15.6954 21.3559 15.5977 21.3751 15.499 21.3748Z" fill="#000000" />
<path d="M12.7745 15.2809H9.30048C9.17181 15.2812 9.04523 15.2483 8.93295 15.1855C8.82067 15.1226 8.72648 15.0319 8.65945 14.9221C8.59242 14.8122 8.55482 14.6869 8.55027 14.5583C8.54572 14.4298 8.57438 14.3022 8.63348 14.1879L11.6565 8.32788C11.7197 8.20548 11.8153 8.10284 11.933 8.03122C12.0506 7.9596 12.1857 7.92178 12.3235 7.92188C12.4612 7.92189 12.5963 7.95977 12.7139 8.03137C12.8315 8.10298 12.9272 8.20556 12.9905 8.32788L14.8345 11.9099C14.9257 12.0866 14.943 12.2924 14.8825 12.4819C14.822 12.6714 14.6887 12.8291 14.512 12.9204C14.3352 13.0116 14.1294 13.0289 13.9399 12.9684C13.7504 12.9079 13.5927 12.7746 13.5015 12.5979L12.3225 10.3089L10.5315 13.7809H12.7745C12.9734 13.7809 13.1642 13.8599 13.3048 14.0005C13.4455 14.1412 13.5245 14.332 13.5245 14.5309C13.5245 14.7298 13.4455 14.9206 13.3048 15.0612C13.1642 15.2019 12.9734 15.2809 12.7745 15.2809Z" fill="#000000" />
<path d="M21.2509 16.9249H19.3779C19.179 16.9249 18.9883 16.8459 18.8476 16.7052C18.707 16.5646 18.6279 16.3738 18.6279 16.1749C18.6279 15.976 18.707 15.7852 18.8476 15.6446C18.9883 15.5039 19.179 15.4249 19.3779 15.4249H20.5009V14.2969C20.5009 14.098 20.58 13.9072 20.7206 13.7666C20.8613 13.6259 21.052 13.5469 21.2509 13.5469C21.4498 13.5469 21.6406 13.6259 21.7813 13.7666C21.9219 13.9072 22.0009 14.098 22.0009 14.2969V16.1699C22.0016 16.2688 21.9827 16.3669 21.9453 16.4584C21.9079 16.55 21.8527 16.6333 21.783 16.7035C21.7133 16.7736 21.6304 16.8293 21.5391 16.8673C21.4478 16.9053 21.3498 16.9249 21.2509 16.9249Z" fill="#000000" />
<path d="M18.2082 21.3265C17.5286 21.2723 16.8713 21.0588 16.2896 20.7031C15.7079 20.3475 15.2182 19.8597 14.8602 19.2795C14.763 19.11 14.7357 18.9092 14.7843 18.7199C14.8328 18.5307 14.9533 18.3678 15.1201 18.266C15.2869 18.1643 15.4869 18.1316 15.6774 18.175C15.8679 18.2184 16.034 18.3345 16.1402 18.4985C16.3652 18.859 16.6674 19.1651 17.025 19.3948C17.3826 19.6244 17.7867 19.7719 18.2082 19.8265C18.6098 19.8262 19.0043 19.7203 19.3522 19.5195C19.7 19.3188 19.989 19.0301 20.1902 18.6825C20.2895 18.5101 20.4533 18.3842 20.6454 18.3326C20.8375 18.2809 21.0423 18.3077 21.2147 18.407C21.3871 18.5063 21.513 18.6701 21.5646 18.8622C21.6163 19.0543 21.5895 19.2591 21.4902 19.4315C21.1568 20.0069 20.6782 20.4848 20.1023 20.8173C19.5264 21.1499 18.8732 21.3254 18.2082 21.3265Z" fill="#000000" />
<path d="M21.2518 16.931C21.1222 16.931 20.9948 16.8974 20.8821 16.8334C20.7694 16.7694 20.6753 16.6773 20.6088 16.566C20.3443 16.1693 19.988 15.8421 19.5703 15.6122C19.1525 15.3822 18.6855 15.2563 18.2088 15.245C17.8046 15.2413 17.4068 15.346 17.0566 15.548C16.7065 15.7501 16.4169 16.0422 16.2178 16.394C16.172 16.485 16.1082 16.5657 16.0302 16.6312C15.9521 16.6967 15.8616 16.7457 15.764 16.7751C15.6665 16.8044 15.564 16.8136 15.4628 16.802C15.3615 16.7905 15.2637 16.7584 15.1753 16.7078C15.0869 16.6572 15.0097 16.5891 14.9485 16.5077C14.8872 16.4263 14.8432 16.3333 14.8191 16.2343C14.795 16.1353 14.7914 16.0324 14.8083 15.932C14.8253 15.8315 14.8625 15.7356 14.9178 15.65C15.2516 15.0719 15.7318 14.5919 16.3101 14.2583C16.8883 13.9248 17.5442 13.7495 18.2118 13.75C18.9473 13.7635 19.6682 13.9574 20.3111 14.3149C20.954 14.6724 21.4993 15.1823 21.8988 15.8C21.9657 15.914 22.0013 16.0437 22.002 16.1759C22.0028 16.3081 21.9686 16.4382 21.9029 16.5529C21.8373 16.6677 21.7425 16.7631 21.6282 16.8294C21.5138 16.8958 21.384 16.9309 21.2518 16.931Z" fill="#000000" />
</svg>