<svg width="24px"  height="24px"  viewBox="0 0 25 24" fill="none" xmlns="http://www.w3.org/2000/svg">
<path d="M16.466 21.75H8.03198C4.72398 21.75 2.5 19.429 2.5 15.974V8.026C2.5 4.571 4.72398 2.25 8.03198 2.25H16.467C19.776 2.25 22 4.571 22 8.026V15.974C22 19.429 19.776 21.75 16.466 21.75ZM8.03198 3.75C5.58298 3.75 4 5.428 4 8.026V15.974C4 18.574 5.58298 20.25 8.03198 20.25H16.466C18.916 20.25 20.5 18.571 20.5 15.974V8.026C20.5 5.426 18.917 3.75 16.467 3.75H8.03198Z" fill="#000000" />
<path d="M8.97497 10.0008C8.78214 10.0008 8.59362 9.94362 8.43329 9.83648C8.27295 9.72935 8.14801 9.57705 8.07422 9.39889C8.00042 9.22073 7.98111 9.0247 8.01874 8.83557C8.05636 8.64644 8.14922 8.47272 8.28558 8.33636C8.42194 8.20001 8.59566 8.10714 8.78479 8.06952C8.97392 8.0319 9.16998 8.0512 9.34814 8.125C9.5263 8.19879 9.67857 8.32376 9.7857 8.4841C9.89284 8.64444 9.95001 8.83295 9.95001 9.02578C9.94974 9.28429 9.84691 9.53214 9.66412 9.71493C9.48133 9.89772 9.23348 10.0005 8.97497 10.0008Z" fill="#000000" />
<path d="M15.475 10.0008C15.2821 10.0008 15.0936 9.94362 14.9333 9.83648C14.7729 9.72935 14.648 9.57705 14.5742 9.39889C14.5004 9.22073 14.4811 9.0247 14.5187 8.83557C14.5564 8.64644 14.6492 8.47272 14.7856 8.33636C14.9219 8.20001 15.0957 8.10714 15.2848 8.06952C15.4739 8.0319 15.67 8.0512 15.8481 8.125C16.0263 8.19879 16.1786 8.32376 16.2857 8.4841C16.3928 8.64444 16.45 8.83295 16.45 9.02578C16.4497 9.28429 16.3469 9.53214 16.1641 9.71493C15.9813 9.89772 15.7335 10.0005 15.475 10.0008Z" fill="#000000" />
<path d="M15.1389 16.7092H9.36392C9.16501 16.7092 8.97424 16.6302 8.83358 16.4895C8.69293 16.3489 8.61392 16.1581 8.61392 15.9592C8.58426 15.4632 8.65638 14.9664 8.82577 14.4993C8.99516 14.0322 9.25828 13.6047 9.59897 13.243C9.93965 12.8814 10.3507 12.5932 10.8069 12.3962C11.263 12.1993 11.7546 12.0977 12.2514 12.0977C12.7483 12.0977 13.2399 12.1993 13.6961 12.3962C14.1522 12.5932 14.5633 12.8814 14.904 13.243C15.2446 13.6047 15.5078 14.0322 15.6772 14.4993C15.8465 14.9664 15.9186 15.4632 15.8889 15.9592C15.8889 16.1581 15.8099 16.3489 15.6693 16.4895C15.5286 16.6302 15.3379 16.7092 15.1389 16.7092ZM10.2259 15.2092H14.2769C14.1702 14.7521 13.912 14.3445 13.5442 14.0528C13.1765 13.761 12.7208 13.6022 12.2514 13.6022C11.782 13.6022 11.3264 13.761 10.9586 14.0528C10.5909 14.3445 10.3327 14.7521 10.2259 15.2092Z" fill="#000000" />
</svg>