<svg width="24px"  height="24px"  viewBox="0 0 25 24" fill="none" xmlns="http://www.w3.org/2000/svg">
<path fill-rule="evenodd" clip-rule="evenodd" d="M3.9902 3.89737C4.97468 2.84117 6.37669 2.25 8.03216 2.25H16.4669C18.1262 2.25 19.5288 2.84084 20.5129 3.89765C21.4913 4.94841 22 6.39889 22 8.02638V15.9736C22 17.6011 21.4913 19.0516 20.5127 20.1024C19.5285 21.1592 18.1256 21.75 16.4659 21.75H8.03216C6.3728 21.75 4.97038 21.1591 3.98657 20.1023C3.00842 19.0515 2.5 17.601 2.5 15.9736V8.02638C2.5 6.39806 3.01117 4.94771 3.9902 3.89737ZM5.08745 4.92012C4.41024 5.64666 4 6.70951 4 8.02638V15.9736C4 17.2914 4.40861 18.3541 5.08451 19.0802C5.75475 19.8003 6.74341 20.25 8.03216 20.25H16.4659C17.7552 20.25 18.7444 19.8002 19.415 19.0801C20.0912 18.354 20.5 17.2913 20.5 15.9736V8.02638C20.5 6.70868 20.0912 5.64597 19.4151 4.91984C18.7446 4.19975 17.7556 3.75 16.4669 3.75H8.03216C6.74828 3.75 5.75921 4.19943 5.08745 4.92012Z" fill="#000000" />
<path fill-rule="evenodd" clip-rule="evenodd" d="M12.2502 13.3398C11.6698 13.3398 11.1992 13.8099 11.1992 14.3908V15.1565C11.1992 15.7374 11.6698 16.2075 12.2502 16.2075C12.8306 16.2075 13.3012 15.7374 13.3012 15.1565V14.3908C13.3012 13.8099 12.8306 13.3398 12.2502 13.3398ZM9.69922 14.3908C9.69922 12.981 10.8419 11.8398 12.2502 11.8398C13.6585 11.8398 14.8012 12.981 14.8012 14.3908V15.1565C14.8012 16.5664 13.6585 17.7075 12.2502 17.7075C10.8419 17.7075 9.69922 16.5664 9.69922 15.1565V14.3908Z" fill="#000000" />
<path fill-rule="evenodd" clip-rule="evenodd" d="M7.68256 6.93451C7.97545 6.64162 8.45033 6.64162 8.74322 6.93451L9.25296 7.44426L9.76176 6.93546C10.0547 6.64257 10.5295 6.64257 10.8224 6.93546C11.1153 7.22836 11.1153 7.70323 10.8224 7.99612L10.3136 8.50492L10.8244 9.0157C11.1173 9.3086 11.1173 9.78347 10.8244 10.0764C10.5315 10.3693 10.0566 10.3693 9.76375 10.0764L9.25296 9.56558L8.74512 10.0734C8.45223 10.3663 7.97735 10.3663 7.68446 10.0734C7.39157 9.78053 7.39157 9.30565 7.68446 9.01276L8.1923 8.50492L7.68256 7.99517C7.38967 7.70228 7.38967 7.22741 7.68256 6.93451Z" fill="#000000" />
<path fill-rule="evenodd" clip-rule="evenodd" d="M13.6767 6.93451C13.9696 6.64162 14.4445 6.64162 14.7374 6.93451L15.2466 7.44378L15.7549 6.93546C16.0478 6.64257 16.5227 6.64257 16.8156 6.93546C17.1085 7.22836 17.1085 7.70323 16.8156 7.99612L16.3073 8.50444L16.8186 9.0157C17.1114 9.3086 17.1114 9.78347 16.8186 10.0764C16.5257 10.3693 16.0508 10.3693 15.7579 10.0764L15.2466 9.5651L14.7383 10.0734C14.4454 10.3663 13.9705 10.3663 13.6777 10.0734C13.3848 9.78053 13.3848 9.30565 13.6777 9.01276L14.186 8.50444L13.6767 7.99517C13.3838 7.70228 13.3838 7.22741 13.6767 6.93451Z" fill="#000000" />
</svg>