<svg width="24px"  height="24px"  viewBox="0 0 25 24" fill="none" xmlns="http://www.w3.org/2000/svg">
<path d="M12.25 21.75C10.3216 21.75 8.43657 21.1782 6.83319 20.1068C5.22981 19.0355 3.98014 17.5128 3.24219 15.7312C2.50423 13.9496 2.31114 11.9892 2.68735 10.0979C3.06355 8.20656 3.99215 6.46928 5.35571 5.10572C6.71927 3.74215 8.45655 2.81356 10.3479 2.43735C12.2392 2.06114 14.1996 2.25422 15.9812 2.99217C17.7627 3.73013 19.2855 4.97981 20.3568 6.58319C21.4282 8.18657 22 10.0716 22 12C21.9971 14.585 20.9689 17.0632 19.1411 18.8911C17.3132 20.7189 14.835 21.7471 12.25 21.75ZM12.25 3.75C10.6183 3.75 9.02324 4.23386 7.66653 5.14038C6.30983 6.0469 5.25241 7.33538 4.62799 8.84287C4.00357 10.3504 3.84018 12.0092 4.15851 13.6095C4.47683 15.2098 5.2626 16.6799 6.41638 17.8336C7.57016 18.9874 9.04016 19.7731 10.6405 20.0915C12.2408 20.4098 13.8996 20.2464 15.4071 19.622C16.9146 18.9976 18.2031 17.9402 19.1096 16.5835C20.0161 15.2267 20.5 13.6317 20.5 12C20.4976 9.8127 19.6277 7.71567 18.081 6.16901C16.5343 4.62235 14.4373 3.75238 12.25 3.75Z" fill="#000000" />
<path d="M15.475 9.89922C15.2165 9.89895 14.9687 9.79615 14.7859 9.61336C14.6031 9.43057 14.5003 9.18273 14.5 8.92423C14.4997 8.7962 14.5247 8.66937 14.5736 8.55103C14.6224 8.43268 14.6942 8.32514 14.7846 8.23456C14.8751 8.14398 14.9826 8.07216 15.1009 8.02319C15.2192 7.97423 15.346 7.94909 15.474 7.94922C15.7326 7.94922 15.9806 8.05194 16.1634 8.23479C16.3463 8.41764 16.449 8.66564 16.449 8.92423C16.449 9.18281 16.3463 9.4308 16.1634 9.61365C15.9806 9.7965 15.7326 9.89922 15.474 9.89922H15.475Z" fill="#000000" />
<path d="M8.97501 9.89922C8.7165 9.89895 8.46865 9.79615 8.28586 9.61336C8.10307 9.43057 8.00027 9.18273 8 8.92423C7.99974 8.7962 8.02474 8.66937 8.07358 8.55103C8.12242 8.43268 8.19416 8.32514 8.28464 8.23456C8.37512 8.14398 8.4826 8.07216 8.60089 8.02319C8.71919 7.97423 8.84597 7.94909 8.974 7.94922C9.23259 7.94922 9.48058 8.05194 9.66342 8.23479C9.84627 8.41764 9.94901 8.66564 9.94901 8.92423C9.94901 9.18281 9.84627 9.4308 9.66342 9.61365C9.48058 9.7965 9.23259 9.89922 8.974 9.89922H8.97501Z" fill="#000000" />
<path d="M10.4783 15.4062H7.82031C7.6214 15.4062 7.43063 15.3272 7.28998 15.1866C7.14933 15.0459 7.07031 14.8552 7.07031 14.6562C7.07031 14.4573 7.14933 14.2666 7.28998 14.1259C7.43063 13.9853 7.6214 13.9062 7.82031 13.9062H10.4783C10.6772 13.9062 10.868 13.9853 11.0086 14.1259C11.1493 14.2666 11.2283 14.4573 11.2283 14.6562C11.2283 14.8552 11.1493 15.0459 11.0086 15.1866C10.868 15.3272 10.6772 15.4062 10.4783 15.4062Z" fill="#000000" />
</svg>