<svg width="24px"  height="24px"  viewBox="0 0 25 24" fill="none" xmlns="http://www.w3.org/2000/svg">
<path fill-rule="evenodd" clip-rule="evenodd" d="M3.99565 3.90083C4.97987 2.84491 6.3815 2.25391 8.03651 2.25391H16.4685C18.1274 2.25391 19.5297 2.84459 20.5134 3.90111C21.4916 4.95159 22.0002 6.40167 22.0002 8.02869V15.9734C22.0002 17.6004 21.4916 19.0505 20.5133 20.101C19.5293 21.1576 18.1269 21.7482 16.4676 21.7482H8.03651C6.37762 21.7482 4.97557 21.1575 3.99203 20.1009C3.01413 19.0504 2.50586 17.6003 2.50586 15.9734V8.02869C2.50586 6.40084 3.01688 4.95089 3.99565 3.90083ZM5.0929 4.92358C4.41595 5.64984 4.00586 6.71229 4.00586 8.02869V15.9734C4.00586 17.2908 4.41432 18.3531 5.08996 19.0789C5.75994 19.7986 6.74822 20.2482 8.03651 20.2482H16.4676C17.7564 20.2482 18.7452 19.7986 19.4156 19.0788C20.0915 18.3529 20.5002 17.2907 20.5002 15.9734V8.02869C20.5002 6.71146 20.0915 5.64915 19.4156 4.9233C18.7454 4.20349 17.7568 3.75391 16.4685 3.75391H8.03651C6.75309 3.75391 5.7644 4.20317 5.0929 4.92358Z" fill="#000000" />
<path fill-rule="evenodd" clip-rule="evenodd" d="M2.61316 11.9479C2.83185 11.5961 3.29431 11.4882 3.64608 11.7069L7.07511 13.8387C7.26629 13.9575 7.39397 14.156 7.42291 14.3792L8.25707 20.8157C8.31031 21.2264 8.02046 21.6026 7.60969 21.6558C7.19891 21.7091 6.82275 21.4192 6.76951 21.0085L5.98106 14.9248L2.85412 12.9808C2.50235 12.7621 2.39446 12.2996 2.61316 11.9479Z" fill="#000000" />
<path fill-rule="evenodd" clip-rule="evenodd" d="M21.8826 11.9502C22.1022 12.3014 21.9954 12.7642 21.6442 12.9837L18.5357 14.9268L17.717 21.014C17.6618 21.4245 17.2843 21.7125 16.8737 21.6573C16.4632 21.6021 16.1752 21.2246 16.2304 20.814L17.0961 14.3777C17.1259 14.1564 17.2526 13.96 17.4419 13.8417L20.8491 11.7118C21.2003 11.4922 21.663 11.599 21.8826 11.9502Z" fill="#000000" />
<path fill-rule="evenodd" clip-rule="evenodd" d="M11.2372 13.6555C9.46114 14.4517 8.00017 14.9101 6.86653 15.203C6.46549 15.3067 6.05638 15.0656 5.95274 14.6645C5.84911 14.2635 6.09021 13.8544 6.49125 13.7507C7.55541 13.4758 8.93588 13.0435 10.6255 12.2859L10.6293 12.2842L10.6293 12.2842C11.723 11.8011 12.975 11.8011 14.0688 12.2842L14.0707 12.285C15.6836 13.0029 17.0018 13.4718 18.0361 13.7532C18.4358 13.8619 18.6717 14.2741 18.5629 14.6738C18.4542 15.0735 18.042 15.3093 17.6424 15.2006C16.5176 14.8946 15.1263 14.3967 13.4618 13.6559C12.7549 13.344 11.9441 13.3439 11.2372 13.6555Z" fill="#000000" />
<path fill-rule="evenodd" clip-rule="evenodd" d="M9.44283 9.23047C9.2583 9.23047 9.06796 9.32044 8.92147 9.51157C8.66948 9.84032 8.19871 9.90255 7.86996 9.65057C7.5412 9.39859 7.47897 8.92781 7.73095 8.59906C8.1272 8.08209 8.73834 7.73047 9.44283 7.73047C10.148 7.73047 10.7575 8.08267 11.1539 8.59803C11.4065 8.92635 11.345 9.39723 11.0167 9.64978C10.6884 9.90233 10.2175 9.84091 9.96498 9.5126C9.81672 9.31985 9.62663 9.23047 9.44283 9.23047Z" fill="#000000" />
<path fill-rule="evenodd" clip-rule="evenodd" d="M15.0581 9.23047C14.8735 9.23047 14.6832 9.32044 14.5367 9.51157C14.2847 9.84032 13.8139 9.90255 13.4852 9.65057C13.1564 9.39859 13.0942 8.92781 13.3462 8.59906C13.7424 8.08209 14.3536 7.73047 15.0581 7.73047C15.7626 7.73047 16.3737 8.08209 16.7699 8.59906C17.0219 8.92781 16.9597 9.39859 16.6309 9.65057C16.3022 9.90255 15.8314 9.84032 15.5794 9.51157C15.4329 9.32044 15.2426 9.23047 15.0581 9.23047Z" fill="#000000" />
</svg>