<svg width="24px"  height="24px"  viewBox="0 0 25 24" fill="none" xmlns="http://www.w3.org/2000/svg">
<path d="M15.475 10.0008C15.2821 10.0008 15.0936 9.94362 14.9333 9.83648C14.7729 9.72935 14.648 9.57705 14.5742 9.39889C14.5004 9.22073 14.4811 9.0247 14.5187 8.83557C14.5564 8.64644 14.6492 8.47272 14.7856 8.33636C14.9219 8.20001 15.0957 8.10714 15.2848 8.06952C15.4739 8.0319 15.67 8.0512 15.8481 8.125C16.0263 8.19879 16.1786 8.32376 16.2857 8.4841C16.3928 8.64444 16.45 8.83295 16.45 9.02578C16.4497 9.28429 16.3469 9.53214 16.1641 9.71493C15.9813 9.89772 15.7335 10.0005 15.475 10.0008ZM8.97497 10.0008C8.78214 10.0008 8.59362 9.94362 8.43329 9.83648C8.27295 9.72935 8.14801 9.57705 8.07422 9.39889C8.00042 9.22073 7.98111 9.0247 8.01874 8.83557C8.05636 8.64644 8.14922 8.47272 8.28558 8.33636C8.42194 8.20001 8.59566 8.10714 8.78479 8.06952C8.97392 8.0319 9.16998 8.0512 9.34814 8.125C9.5263 8.19879 9.67857 8.32376 9.7857 8.4841C9.89284 8.64444 9.95001 8.83295 9.95001 9.02578C9.94974 9.28429 9.84691 9.53214 9.66412 9.71493C9.48133 9.89772 9.23348 10.0005 8.97497 10.0008Z" fill="#000000" />
<path d="M12.25 21.75C10.3217 21.75 8.43659 21.1782 6.83321 20.1068C5.22983 19.0355 3.98016 17.5127 3.24221 15.7312C2.50425 13.9496 2.31113 11.9892 2.68734 10.0979C3.06354 8.20655 3.99217 6.46927 5.35573 5.10571C6.7193 3.74215 8.45655 2.81355 10.3479 2.43735C12.2392 2.06114 14.1996 2.25423 15.9812 2.99219C17.7627 3.73014 19.2855 4.97981 20.3568 6.58319C21.4282 8.18657 22 10.0716 22 12C21.9971 14.585 20.9689 17.0632 19.1411 18.8911C17.3132 20.7189 14.835 21.7471 12.25 21.75ZM12.25 3.75C10.6183 3.75 9.02329 4.23386 7.66659 5.14038C6.30988 6.0469 5.25243 7.33537 4.62801 8.84286C4.00359 10.3504 3.8402 12.0092 4.15853 13.6095C4.47686 15.2098 5.26262 16.6798 6.4164 17.8336C7.57019 18.9874 9.04018 19.7732 10.6405 20.0915C12.2409 20.4098 13.8997 20.2464 15.4072 19.622C16.9147 18.9976 18.2031 17.9402 19.1096 16.5835C20.0162 15.2268 20.5 13.6317 20.5 12C20.4976 9.81269 19.6277 7.71566 18.081 6.169C16.5344 4.62235 14.4373 3.75238 12.25 3.75Z" fill="#000000" />
<path d="M7.36477 20.2985C7.18269 20.2981 7.00694 20.2315 6.87027 20.1112C6.73359 19.9909 6.64531 19.825 6.62179 19.6445L5.98477 14.7215L2.85775 12.7765C2.77417 12.7246 2.70166 12.6566 2.64431 12.5767C2.58697 12.4967 2.5459 12.4062 2.52353 12.3104C2.50115 12.2146 2.49789 12.1153 2.51388 12.0182C2.52988 11.9211 2.56485 11.8281 2.61679 11.7445C2.66873 11.6609 2.73658 11.5884 2.81656 11.531C2.89653 11.4737 2.98702 11.4326 3.08285 11.4103C3.17868 11.3879 3.27799 11.3846 3.37509 11.4006C3.47219 11.4166 3.56518 11.4516 3.64877 11.5035L7.07876 13.6355C7.17333 13.694 7.25375 13.7728 7.31411 13.8662C7.37447 13.9596 7.41326 14.0652 7.42776 14.1755L8.10977 19.4515C8.1353 19.6488 8.08153 19.8481 7.96023 20.0058C7.83893 20.1635 7.66004 20.2666 7.4628 20.2925C7.43028 20.2965 7.39753 20.2984 7.36477 20.2985Z" fill="#000000" />
<path d="M17.1345 20.3003C17.1011 20.3004 17.0677 20.2981 17.0345 20.2933C16.9369 20.2803 16.8429 20.2481 16.7577 20.1987C16.6725 20.1492 16.5979 20.0835 16.5382 20.0052C16.4785 19.9269 16.4348 19.8376 16.4097 19.7424C16.3845 19.6472 16.3783 19.5479 16.3915 19.4504L17.1016 14.1744C17.1159 14.0651 17.1543 13.9603 17.2139 13.8676C17.2736 13.775 17.353 13.6966 17.4465 13.6383L20.8536 11.5083C21.0221 11.403 21.2256 11.369 21.4192 11.4138C21.6128 11.4585 21.7808 11.5783 21.886 11.7468C21.9913 11.9154 22.0254 12.1188 21.9807 12.3125C21.9359 12.5061 21.8161 12.674 21.6475 12.7793L18.5405 14.7233L17.8776 19.6493C17.8536 19.8294 17.765 19.9947 17.6284 20.1144C17.4917 20.2342 17.3162 20.3002 17.1345 20.3003Z" fill="#000000" />
<path d="M17.8441 15.022C17.7765 15.0224 17.7092 15.0137 17.644 14.996C16.213 14.5866 14.8147 14.0701 13.4611 13.451C13.1106 13.2967 12.732 13.217 12.3491 13.217C11.9662 13.217 11.5875 13.2967 11.2371 13.451C9.82821 14.0898 8.3676 14.6076 6.87103 14.999C6.67848 15.0461 6.47519 15.0161 6.30445 14.9154C6.1337 14.8147 6.009 14.6513 5.95703 14.46C5.90777 14.2673 5.93683 14.063 6.03784 13.8917C6.13886 13.7204 6.3036 13.5961 6.49603 13.546C7.91346 13.1759 9.2968 12.6858 10.631 12.081C11.1732 11.8421 11.7591 11.7188 12.3516 11.7188C12.944 11.7188 13.5299 11.8421 14.0721 12.081C15.3562 12.669 16.6826 13.1601 18.04 13.55C18.215 13.5983 18.3666 13.7084 18.4666 13.8599C18.5666 14.0114 18.6082 14.194 18.5838 14.3739C18.5594 14.5538 18.4706 14.7187 18.3338 14.8381C18.197 14.9574 18.0216 15.0231 17.8401 15.023L17.8441 15.022Z" fill="#000000" />
</svg>