<svg width="24px"  height="24px"  viewBox="0 0 25 24" fill="none" xmlns="http://www.w3.org/2000/svg">
<path d="M15.4867 9.70001C15.2939 9.70001 15.1054 9.64281 14.945 9.53567C14.7847 9.42854 14.6597 9.27627 14.5859 9.09811C14.5121 8.91995 14.4928 8.72392 14.5305 8.53479C14.5681 8.34566 14.6609 8.17194 14.7973 8.03558C14.9337 7.89922 15.1074 7.80636 15.2965 7.76874C15.4856 7.73111 15.6817 7.75042 15.8598 7.82422C16.038 7.89801 16.1903 8.02298 16.2974 8.18332C16.4045 8.34365 16.4617 8.53217 16.4617 8.725C16.4615 8.98351 16.3586 9.23133 16.1758 9.41412C15.993 9.59691 15.7452 9.69974 15.4867 9.70001Z" fill="#000000" />
<path d="M8.98672 9.70001C8.79389 9.70001 8.60537 9.64281 8.44504 9.53567C8.2847 9.42854 8.15973 9.27627 8.08594 9.09811C8.01214 8.91995 7.99283 8.72392 8.03045 8.53479C8.06807 8.34566 8.16094 8.17194 8.2973 8.03558C8.43366 7.89922 8.60737 7.80636 8.79651 7.76874C8.98564 7.73111 9.18167 7.75042 9.35983 7.82422C9.53799 7.89801 9.69026 8.02298 9.79739 8.18332C9.90453 8.34365 9.96173 8.53217 9.96173 8.725C9.96146 8.98351 9.85863 9.23133 9.67584 9.41412C9.49305 9.59691 9.24523 9.69974 8.98672 9.70001Z" fill="#000000" />
<path d="M16.4796 21.7479H8.04855C4.74055 21.7479 2.51758 19.4269 2.51758 15.9729V8.0289C2.51758 4.5749 4.74055 2.25391 8.04855 2.25391H16.4806C19.7886 2.25391 22.0116 4.5749 22.0116 8.0289V15.9729C22.0116 19.4269 19.7876 21.7479 16.4796 21.7479ZM8.04855 3.75391C5.59955 3.75391 4.01758 5.4319 4.01758 8.0289V15.9729C4.01758 18.5729 5.59955 20.2479 8.04855 20.2479H16.4796C18.9286 20.2479 20.5116 18.5699 20.5116 15.9729V8.0289C20.5116 5.4289 18.9296 3.75391 16.4806 3.75391H8.04855Z" fill="#000000" />
<path d="M7.52227 21.6629C7.34028 21.6628 7.16455 21.5964 7.02785 21.4763C6.89115 21.3561 6.80282 21.1904 6.77929 21.0099L5.99029 14.9259L2.86028 12.9809C2.77335 12.9306 2.69742 12.8632 2.63701 12.783C2.57661 12.7027 2.53295 12.6111 2.50863 12.5136C2.4843 12.4161 2.47983 12.3147 2.49544 12.2155C2.51105 12.1162 2.54643 12.0211 2.59951 11.9358C2.65258 11.8505 2.72227 11.7768 2.8044 11.7189C2.88654 11.661 2.97946 11.6203 3.07766 11.599C3.17585 11.5778 3.27732 11.5764 3.37603 11.5951C3.47474 11.6139 3.56867 11.6522 3.65227 11.7079L7.08129 13.8399C7.17562 13.8986 7.25576 13.9775 7.31594 14.0709C7.37612 14.1642 7.41482 14.2698 7.42928 14.3799L8.26327 20.8159C8.27604 20.9137 8.2694 21.0131 8.24373 21.1083C8.21807 21.2035 8.17389 21.2927 8.1137 21.3708C8.05351 21.449 7.97849 21.5144 7.89296 21.5635C7.80744 21.6126 7.71309 21.6444 7.61529 21.6569C7.58443 21.6607 7.55336 21.6627 7.52227 21.6629Z" fill="#000000" />
<path d="M16.9871 21.6651C16.9536 21.6652 16.9202 21.6629 16.8871 21.6581C16.7894 21.6451 16.6952 21.613 16.6099 21.5637C16.5246 21.5143 16.45 21.4485 16.3901 21.3702C16.3303 21.2919 16.2865 21.2026 16.2613 21.1073C16.2361 21.012 16.2299 20.9127 16.2431 20.8151L17.1091 14.3791C17.1234 14.2698 17.1617 14.165 17.2214 14.0723C17.281 13.9796 17.3605 13.9013 17.4541 13.8431L20.8631 11.7131C20.9465 11.6605 21.0395 11.625 21.1367 11.6084C21.2339 11.5918 21.3335 11.5945 21.4296 11.6164C21.5258 11.6382 21.6167 11.6788 21.6971 11.7358C21.7776 11.7928 21.8461 11.8651 21.8986 11.9486C21.9511 12.032 21.9867 12.125 22.0033 12.2222C22.0199 12.3194 22.0172 12.4189 21.9953 12.5151C21.9734 12.6113 21.9328 12.7021 21.8758 12.7826C21.8188 12.8631 21.7465 12.9315 21.6631 12.9841L18.5531 14.9281L17.7351 21.0151C17.711 21.1959 17.6217 21.3618 17.4839 21.4814C17.3462 21.6011 17.1695 21.6664 16.9871 21.6651Z" fill="#000000" />
<path d="M17.8513 15.2273C17.7837 15.2274 17.7165 15.2183 17.6513 15.2003C16.2204 14.791 14.8224 14.2742 13.4693 13.6543C13.1184 13.5005 12.7394 13.4211 12.3563 13.4211C11.9732 13.4211 11.5942 13.5005 11.2433 13.6543C9.83398 14.2934 8.37269 14.8109 6.87531 15.2013C6.7799 15.2259 6.68058 15.2315 6.58301 15.2178C6.48545 15.204 6.39155 15.1712 6.30668 15.1211C6.13527 15.02 6.01104 14.855 5.96131 14.6623C5.91158 14.4696 5.94043 14.2651 6.04151 14.0937C6.14259 13.9223 6.30763 13.798 6.50031 13.7483C7.91774 13.3793 9.30081 12.8892 10.6343 12.2833C11.1769 12.0449 11.7631 11.9219 12.3558 11.9219C12.9485 11.9219 13.5347 12.0449 14.0773 12.2833C15.3616 12.8713 16.6879 13.3627 18.0453 13.7533C18.2212 13.8009 18.3737 13.9108 18.4745 14.0626C18.5752 14.2144 18.6173 14.3977 18.5928 14.5782C18.5683 14.7587 18.4789 14.9242 18.3413 15.0436C18.2038 15.1631 18.0275 15.2284 17.8453 15.2273H17.8513Z" fill="#000000" />
</svg>