<svg width="24px"  height="24px"  viewBox="0 0 25 24" fill="none" xmlns="http://www.w3.org/2000/svg">
<path d="M16.466 21.75H8.03198C4.72398 21.75 2.5 19.429 2.5 15.974V8.026C2.5 4.571 4.72398 2.25 8.03198 2.25H16.467C19.776 2.25 22 4.571 22 8.026V15.974C22 19.429 19.776 21.75 16.466 21.75ZM8.03198 3.75C5.58298 3.75 4 5.429 4 8.026V15.974C4 18.574 5.58298 20.25 8.03198 20.25H16.466C18.916 20.25 20.5 18.571 20.5 15.974V8.026C20.5 5.426 18.917 3.75 16.467 3.75H8.03198Z" fill="#000000" />
<path d="M8.97497 10.0008C8.78214 10.0008 8.59362 9.94362 8.43329 9.83648C8.27295 9.72935 8.14801 9.57705 8.07422 9.39889C8.00042 9.22073 7.98111 9.0247 8.01874 8.83557C8.05636 8.64644 8.14922 8.47272 8.28558 8.33636C8.42194 8.20001 8.59566 8.10714 8.78479 8.06952C8.97392 8.0319 9.16998 8.0512 9.34814 8.125C9.5263 8.19879 9.67857 8.32376 9.7857 8.4841C9.89284 8.64444 9.95001 8.83295 9.95001 9.02578C9.94974 9.28429 9.84691 9.53214 9.66412 9.71493C9.48133 9.89772 9.23348 10.0005 8.97497 10.0008Z" fill="#000000" />
<path d="M15.475 10.0008C15.2821 10.0008 15.0936 9.94362 14.9333 9.83648C14.7729 9.72935 14.648 9.57705 14.5742 9.39889C14.5004 9.22073 14.4811 9.0247 14.5187 8.83557C14.5564 8.64644 14.6492 8.47272 14.7856 8.33636C14.9219 8.20001 15.0957 8.10714 15.2848 8.06952C15.4739 8.0319 15.67 8.0512 15.8481 8.125C16.0263 8.19879 16.1786 8.32376 16.2857 8.4841C16.3928 8.64444 16.45 8.83295 16.45 9.02578C16.4497 9.28429 16.3469 9.53214 16.1641 9.71493C15.9813 9.89772 15.7335 10.0005 15.475 10.0008Z" fill="#000000" />
<path d="M16.0083 14.0664H8.48828C8.28937 14.0664 8.0986 13.9874 7.95795 13.8467C7.81729 13.7061 7.73828 13.5153 7.73828 13.3164C7.73828 13.1175 7.81729 12.9267 7.95795 12.7861C8.0986 12.6454 8.28937 12.5664 8.48828 12.5664H16.0083C16.2072 12.5664 16.398 12.6454 16.5386 12.7861C16.6793 12.9267 16.7583 13.1175 16.7583 13.3164C16.7583 13.5153 16.6793 13.7061 16.5386 13.8467C16.398 13.9874 16.2072 14.0664 16.0083 14.0664Z" fill="#000000" />
<path d="M12.2504 17.3993C11.5614 17.3974 10.9011 17.1229 10.4139 16.6357C9.92675 16.1485 9.65224 15.4883 9.65039 14.7993V13.3203C9.65039 13.1214 9.7294 12.9306 9.87006 12.79C10.0107 12.6493 10.2015 12.5703 10.4004 12.5703C10.5993 12.5703 10.7901 12.6493 10.9307 12.79C11.0714 12.9306 11.1504 13.1214 11.1504 13.3203V14.7993C11.1504 15.0922 11.2667 15.3732 11.4739 15.5803C11.681 15.7874 11.962 15.9038 12.2549 15.9038C12.5478 15.9038 12.8288 15.7874 13.0359 15.5803C13.243 15.3732 13.3594 15.0922 13.3594 14.7993V13.3203C13.3594 13.1214 13.4384 12.9306 13.579 12.79C13.7197 12.6493 13.9105 12.5703 14.1094 12.5703C14.3083 12.5703 14.4991 12.6493 14.6397 12.79C14.7804 12.9306 14.8594 13.1214 14.8594 13.3203V14.7993C14.8573 15.4898 14.5814 16.1512 14.0923 16.6386C13.6033 17.126 12.9408 17.3996 12.2504 17.3993Z" fill="#000000" />
</svg>