<svg width="24px"  height="24px"  viewBox="0 0 25 24" fill="none" xmlns="http://www.w3.org/2000/svg">
<path fill-rule="evenodd" clip-rule="evenodd" d="M3.9902 3.89737C4.97468 2.84117 6.37669 2.25 8.03216 2.25H16.4669C18.1262 2.25 19.5288 2.84084 20.5129 3.89765C21.4913 4.94841 22 6.39889 22 8.02638V15.9736C22 17.6011 21.4913 19.0516 20.5127 20.1024C19.5285 21.1592 18.1256 21.75 16.4659 21.75H8.03216C6.3728 21.75 4.97038 21.1591 3.98657 20.1023C3.00842 19.0515 2.5 17.601 2.5 15.9736V8.02638C2.5 6.39806 3.01117 4.94771 3.9902 3.89737ZM5.08745 4.92012C4.41024 5.64666 4 6.70951 4 8.02638V15.9736C4 17.2914 4.40861 18.3541 5.08451 19.0802C5.75475 19.8003 6.74341 20.25 8.03216 20.25H16.4659C17.7552 20.25 18.7444 19.8002 19.415 19.0801C20.0912 18.354 20.5 17.2913 20.5 15.9736V8.02638C20.5 6.70868 20.0912 5.64597 19.4151 4.91984C18.7446 4.19975 17.7556 3.75 16.4669 3.75H8.03216C6.74828 3.75 5.75921 4.19943 5.08745 4.92012Z" fill="#000000" />
<path fill-rule="evenodd" clip-rule="evenodd" d="M7.88574 13.0898C7.88574 12.6756 8.22153 12.3398 8.63574 12.3398H15.8649C16.2791 12.3398 16.6149 12.6756 16.6149 13.0898C16.6149 15.5983 14.7113 17.7259 12.2503 17.7259C9.78935 17.7259 7.88574 15.5983 7.88574 13.0898ZM9.46721 13.8398C9.77854 15.2395 10.9416 16.2259 12.2503 16.2259C13.5591 16.2259 14.7221 15.2395 15.0335 13.8398H9.46721Z" fill="#000000" />
<path fill-rule="evenodd" clip-rule="evenodd" d="M9.14267 8.84766C8.8491 8.84766 8.60172 9.06296 8.55811 9.35189C8.49627 9.76146 8.11412 10.0434 7.70455 9.98152C7.29498 9.91969 7.01308 9.53754 7.07491 9.12797C7.22783 8.11505 8.09743 7.34766 9.14267 7.34766C10.1911 7.34766 11.0672 8.11255 11.2124 9.13448C11.2706 9.54458 10.9854 9.92424 10.5753 9.98248C10.1652 10.0407 9.78549 9.75547 9.72726 9.34537C9.68751 9.06547 9.44668 8.84766 9.14267 8.84766Z" fill="#000000" />
<path fill-rule="evenodd" clip-rule="evenodd" d="M15.3487 8.84766C15.0539 8.84766 14.811 9.06312 14.771 9.34537C14.7127 9.75547 14.3331 10.0407 13.923 9.98248C13.5129 9.92424 13.2276 9.54458 13.2859 9.13448C13.4306 8.11489 14.3048 7.34766 15.3487 7.34766C16.3971 7.34766 17.27 8.11238 17.4233 9.12797C17.4851 9.53754 17.2032 9.91969 16.7937 9.98152C16.3841 10.0434 16.0019 9.76146 15.9401 9.35189C15.8969 9.06563 15.6508 8.84766 15.3487 8.84766Z" fill="#000000" />
</svg>