<svg width="24px"  height="24px"  viewBox="0 0 25 24" fill="none" xmlns="http://www.w3.org/2000/svg">
<path d="M12.25 21.75C10.3216 21.75 8.43657 21.1782 6.83319 20.1068C5.22981 19.0355 3.98014 17.5128 3.24219 15.7312C2.50423 13.9496 2.31114 11.9892 2.68735 10.0979C3.06355 8.20656 3.99215 6.46928 5.35571 5.10572C6.71927 3.74215 8.45655 2.81356 10.3479 2.43735C12.2392 2.06114 14.1996 2.25422 15.9812 2.99217C17.7627 3.73013 19.2855 4.97981 20.3568 6.58319C21.4282 8.18657 22 10.0716 22 12C21.9971 14.585 20.9689 17.0632 19.1411 18.8911C17.3132 20.7189 14.835 21.7471 12.25 21.75ZM12.25 3.75C10.6183 3.75 9.02324 4.23386 7.66653 5.14038C6.30983 6.0469 5.25241 7.33538 4.62799 8.84287C4.00357 10.3504 3.84018 12.0092 4.15851 13.6095C4.47683 15.2098 5.2626 16.6799 6.41638 17.8336C7.57016 18.9874 9.04016 19.7731 10.6405 20.0915C12.2408 20.4098 13.8996 20.2464 15.4071 19.622C16.9146 18.9976 18.2031 17.9402 19.1096 16.5835C20.0161 15.2267 20.5 13.6317 20.5 12C20.4976 9.8127 19.6277 7.71567 18.081 6.16901C16.5343 4.62235 14.4373 3.75238 12.25 3.75Z" fill="#000000" />
<path d="M15.8392 9.26953H14.2572C14.0583 9.26953 13.8675 9.1905 13.7269 9.04985C13.5862 8.9092 13.5072 8.71844 13.5072 8.51953C13.5072 8.32062 13.5862 8.12985 13.7269 7.9892C13.8675 7.84854 14.0583 7.76953 14.2572 7.76953H15.8392C16.0381 7.76953 16.2289 7.84854 16.3695 7.9892C16.5102 8.12985 16.5892 8.32062 16.5892 8.51953C16.5892 8.71844 16.5102 8.9092 16.3695 9.04985C16.2289 9.1905 16.0381 9.26953 15.8392 9.26953ZM10.2392 9.26953H8.6582C8.45929 9.26953 8.26852 9.1905 8.12787 9.04985C7.98722 8.9092 7.9082 8.71844 7.9082 8.51953C7.9082 8.32062 7.98722 8.12985 8.12787 7.9892C8.26852 7.84854 8.45929 7.76953 8.6582 7.76953H10.2392C10.4381 7.76953 10.6289 7.84854 10.7695 7.9892C10.9102 8.12985 10.9892 8.32062 10.9892 8.51953C10.9892 8.71844 10.9102 8.9092 10.7695 9.04985C10.6289 9.1905 10.4381 9.26953 10.2392 9.26953Z" fill="#000000" />
<path d="M12.2502 17.0879C11.2627 17.0573 10.3275 16.6367 9.6494 15.9181C8.97131 15.1995 8.60556 14.2416 8.63222 13.2539C8.63222 13.055 8.71126 12.8642 8.85192 12.7236C8.99257 12.5829 9.18331 12.5039 9.38222 12.5039H15.1192C15.3181 12.5039 15.5089 12.5829 15.6496 12.7236C15.7902 12.8642 15.8692 13.055 15.8692 13.2539C15.8956 14.2417 15.5297 15.1996 14.8514 15.9182C14.1731 16.6367 13.2379 17.0573 12.2502 17.0879ZM10.2432 13.9999C10.351 14.451 10.6077 14.8525 10.9717 15.1398C11.3357 15.4271 11.786 15.5834 12.2497 15.5834C12.7135 15.5834 13.1637 15.4271 13.5278 15.1398C13.8918 14.8525 14.1485 14.451 14.2562 13.9999H10.2432Z" fill="#000000" />
</svg>