<svg width="24px"  height="24px"  viewBox="0 0 25 24" fill="none" xmlns="http://www.w3.org/2000/svg">
<path fill-rule="evenodd" clip-rule="evenodd" d="M3.9902 3.89737C4.97468 2.84117 6.37669 2.25 8.03216 2.25H16.4669C18.1262 2.25 19.5288 2.84084 20.5129 3.89765C21.4913 4.94841 22 6.39889 22 8.02638V15.9736C22 17.6011 21.4913 19.0516 20.5127 20.1024C19.5285 21.1592 18.1256 21.75 16.4659 21.75H8.03216C6.3728 21.75 4.97038 21.1591 3.98657 20.1023C3.00842 19.0515 2.5 17.601 2.5 15.9736V8.02638C2.5 6.39806 3.01117 4.94771 3.9902 3.89737ZM5.08745 4.92012C4.41024 5.64666 4 6.70951 4 8.02638V15.9736C4 17.2914 4.40861 18.3541 5.08451 19.0802C5.75475 19.8003 6.74341 20.25 8.03216 20.25H16.4659C17.7552 20.25 18.7444 19.8002 19.415 19.0801C20.0912 18.354 20.5 17.2913 20.5 15.9736V8.02638C20.5 6.70868 20.0912 5.64597 19.4151 4.91984C18.7446 4.19975 17.7556 3.75 16.4669 3.75H8.03216C6.74828 3.75 5.75921 4.19943 5.08745 4.92012Z" fill="#000000" />
<path fill-rule="evenodd" clip-rule="evenodd" d="M7.88574 8.49609C7.88574 8.08188 8.22153 7.74609 8.63574 7.74609H10.2275C10.6417 7.74609 10.9775 8.08188 10.9775 8.49609C10.9775 8.91031 10.6417 9.24609 10.2275 9.24609H8.63574C8.22153 9.24609 7.88574 8.91031 7.88574 8.49609ZM13.5221 8.49609C13.5221 8.08188 13.8579 7.74609 14.2721 7.74609H15.8639C16.2781 7.74609 16.6139 8.08188 16.6139 8.49609C16.6139 8.91031 16.2781 9.24609 15.8639 9.24609H14.2721C13.8579 9.24609 13.5221 8.91031 13.5221 8.49609Z" fill="#000000" />
<path fill-rule="evenodd" clip-rule="evenodd" d="M7.88574 12.9141C7.88574 12.4998 8.22153 12.1641 8.63574 12.1641H15.8649C16.2791 12.1641 16.6149 12.4998 16.6149 12.9141C16.6149 15.4223 14.7116 17.5511 12.2503 17.5511C9.78911 17.5511 7.88574 15.4223 7.88574 12.9141ZM9.46719 13.6641C9.77852 15.0641 10.9418 16.0511 12.2503 16.0511C13.5589 16.0511 14.7221 15.0641 15.0335 13.6641H9.46719Z" fill="#000000" />
</svg>