<svg width="24px"  height="24px"  viewBox="0 0 25 24" fill="none" xmlns="http://www.w3.org/2000/svg">
<path d="M16.466 21.75H8.032C4.723 21.75 2.5 19.429 2.5 15.974V8.026C2.5 4.571 4.723 2.25 8.032 2.25H16.467C19.776 2.25 22 4.571 22 8.026V15.974C22 19.429 19.776 21.75 16.466 21.75ZM8.032 3.75C5.583 3.75 4 5.429 4 8.026V15.974C4 18.574 5.583 20.25 8.032 20.25H16.466C18.917 20.25 20.5 18.571 20.5 15.974V8.026C20.5 5.426 18.917 3.75 16.467 3.75H8.032Z" fill="#000000" />
<path d="M12.2506 17.4925C11.0578 17.4538 9.92892 16.9442 9.11104 16.0751C8.29315 15.2061 7.85288 14.0484 7.88657 12.8555C7.88657 12.6566 7.96558 12.4658 8.10623 12.3251C8.24688 12.1845 8.43765 12.1055 8.63657 12.1055H15.8656C16.0645 12.1055 16.2552 12.1845 16.3959 12.3251C16.5365 12.4658 16.6156 12.6566 16.6156 12.8555C16.6493 14.0486 16.2088 15.2064 15.3907 16.0754C14.5726 16.9445 13.4435 17.4541 12.2506 17.4925ZM9.46956 13.6055C9.57217 14.2697 9.90906 14.8753 10.4193 15.3127C10.9295 15.7502 11.5795 15.9907 12.2516 15.9907C12.9237 15.9907 13.5736 15.7502 14.0838 15.3127C14.5941 14.8753 14.931 14.2697 15.0336 13.6055H9.46956Z" fill="#000000" />
<path d="M15.475 9.80154C15.2165 9.80128 14.9686 9.69848 14.7859 9.51569C14.6031 9.3329 14.5003 9.08507 14.5 8.82657C14.5 8.56816 14.6026 8.3203 14.7852 8.13748C14.9678 7.95466 15.2156 7.85183 15.474 7.85156C15.7326 7.85156 15.9806 7.95427 16.1634 8.13712C16.3463 8.31996 16.449 8.56798 16.449 8.82657C16.449 9.08515 16.3463 9.33314 16.1634 9.51599C15.9806 9.69884 15.7326 9.80154 15.474 9.80154H15.475ZM8.97501 9.80154C8.7165 9.80128 8.46865 9.69848 8.28586 9.51569C8.10307 9.3329 8.00026 9.08507 8 8.82657C8 8.56816 8.10259 8.3203 8.28522 8.13748C8.46785 7.95466 8.71559 7.85183 8.974 7.85156C9.23259 7.85156 9.48057 7.95427 9.66342 8.13712C9.84627 8.31996 9.94901 8.56798 9.94901 8.82657C9.94901 9.08515 9.84627 9.33314 9.66342 9.51599C9.48057 9.69884 9.23259 9.80154 8.974 9.80154H8.97501Z" fill="#000000" />
</svg>