<svg width="24px"  height="24px"  viewBox="0 0 25 24" fill="none" xmlns="http://www.w3.org/2000/svg">
<path fill-rule="evenodd" clip-rule="evenodd" d="M12.25 3.75C7.69329 3.75 4 7.44329 4 12C4 16.5558 7.69335 20.25 12.25 20.25C16.8067 20.25 20.5 16.5558 20.5 12C20.5 7.44329 16.8067 3.75 12.25 3.75ZM2.5 12C2.5 6.61487 6.86487 2.25 12.25 2.25C17.6351 2.25 22 6.61487 22 12C22 17.3841 17.6352 21.75 12.25 21.75C6.86481 21.75 2.5 17.3841 2.5 12Z" fill="#000000" />
<path fill-rule="evenodd" clip-rule="evenodd" d="M8.63086 13.6406C8.63086 13.2264 8.96665 12.8906 9.38086 12.8906H15.1175C15.5317 12.8906 15.8675 13.2264 15.8675 13.6406C15.8675 15.7052 14.2978 17.4749 12.2492 17.4749C10.2005 17.4749 8.63086 15.7052 8.63086 13.6406ZM10.2414 14.3906C10.5308 15.3356 11.3513 15.9749 12.2492 15.9749C13.1471 15.9749 13.9675 15.3356 14.257 14.3906H10.2414Z" fill="#000000" />
<path fill-rule="evenodd" clip-rule="evenodd" d="M7.1094 7.70544C7.32823 7.35375 7.79072 7.24604 8.14242 7.46487L9.92977 8.57698C10.1495 8.71371 10.2832 8.95408 10.2835 9.21289C10.2839 9.47171 10.1507 9.71239 9.93126 9.84964L8.14391 10.9676C7.79274 11.1872 7.32999 11.0806 7.11033 10.7294C6.89068 10.3783 6.9973 9.91551 7.34848 9.69586L8.11656 9.21544L7.34997 8.73846C6.99828 8.51963 6.89057 8.05714 7.1094 7.70544Z" fill="#000000" />
<path fill-rule="evenodd" clip-rule="evenodd" d="M17.39 7.70544C17.6088 8.05714 17.5011 8.51963 17.1494 8.73846L16.3828 9.21544L17.1509 9.69586C17.5021 9.91551 17.6087 10.3783 17.389 10.7294C17.1694 11.0806 16.7066 11.1872 16.3555 10.9676L14.5681 9.84964C14.3487 9.71239 14.2155 9.47171 14.2158 9.21289C14.2161 8.95408 14.3498 8.71371 14.5696 8.57698L16.357 7.46487C16.7086 7.24604 17.1711 7.35375 17.39 7.70544Z" fill="#000000" />
</svg>