<svg width="24px"  height="24px"  viewBox="0 0 25 24" fill="none" xmlns="http://www.w3.org/2000/svg">
<path d="M12.25 21.75C10.3216 21.75 8.43657 21.1782 6.83319 20.1068C5.22981 19.0355 3.98014 17.5128 3.24219 15.7312C2.50423 13.9496 2.31114 11.9892 2.68735 10.0979C3.06355 8.20656 3.99215 6.46928 5.35571 5.10572C6.71927 3.74215 8.45655 2.81356 10.3479 2.43735C12.2392 2.06114 14.1996 2.25422 15.9812 2.99217C17.7627 3.73013 19.2855 4.97981 20.3568 6.58319C21.4282 8.18657 22 10.0716 22 12C21.9971 14.585 20.9689 17.0632 19.1411 18.8911C17.3132 20.7189 14.835 21.7471 12.25 21.75ZM12.25 3.75C10.6183 3.75 9.02324 4.23386 7.66653 5.14038C6.30983 6.0469 5.25241 7.33538 4.62799 8.84287C4.00357 10.3504 3.84018 12.0092 4.15851 13.6095C4.47683 15.2098 5.2626 16.6799 6.41638 17.8336C7.57016 18.9874 9.04016 19.7731 10.6405 20.0915C12.2408 20.4098 13.8996 20.2464 15.4071 19.622C16.9146 18.9976 18.2031 17.9402 19.1096 16.5835C20.0161 15.2267 20.5 13.6317 20.5 12C20.4976 9.8127 19.6277 7.71567 18.081 6.16901C16.5343 4.62235 14.4373 3.75238 12.25 3.75Z" fill="#000000" />
<path d="M8.975 10.0008C8.78217 10.0008 8.59365 9.94359 8.43332 9.83645C8.27298 9.72932 8.14801 9.57705 8.07422 9.39889C8.00042 9.22073 7.98111 9.0247 8.01874 8.83557C8.05636 8.64644 8.14922 8.4727 8.28558 8.33635C8.42194 8.19999 8.59566 8.10714 8.78479 8.06952C8.97392 8.0319 9.16995 8.0512 9.34811 8.125C9.52627 8.19879 9.67854 8.32376 9.78567 8.4841C9.89281 8.64444 9.95001 8.83293 9.95001 9.02577C9.94974 9.28427 9.84691 9.53213 9.66412 9.71492C9.48133 9.89771 9.23351 10.0005 8.975 10.0008Z" fill="#000000" />
<path d="M15.475 10.0008C15.2822 10.0008 15.0937 9.94359 14.9333 9.83645C14.773 9.72932 14.648 9.57705 14.5742 9.39889C14.5004 9.22073 14.4811 9.0247 14.5187 8.83557C14.5564 8.64644 14.6492 8.4727 14.7856 8.33635C14.9219 8.19999 15.0957 8.10714 15.2848 8.06952C15.4739 8.0319 15.67 8.0512 15.8481 8.125C16.0263 8.19879 16.1785 8.32376 16.2857 8.4841C16.3928 8.64444 16.45 8.83293 16.45 9.02577C16.4497 9.28427 16.3469 9.53213 16.1641 9.71492C15.9813 9.89771 15.7335 10.0005 15.475 10.0008Z" fill="#000000" />
<path d="M12.2499 16.8011C11.3446 16.7739 10.487 16.389 9.86488 15.7307C9.24279 15.0724 8.90693 14.1945 8.93089 13.2891C8.93089 13.0902 9.0099 12.8994 9.15055 12.7587C9.2912 12.6181 9.48197 12.5391 9.68089 12.5391H14.8189C15.0178 12.5391 15.2086 12.6181 15.3492 12.7587C15.4899 12.8994 15.5689 13.0902 15.5689 13.2891C15.5928 14.1945 15.257 15.0724 14.6349 15.7307C14.0128 16.389 13.1552 16.7739 12.2499 16.8011ZM10.5619 14.0391C10.6694 14.4034 10.8919 14.7231 11.1962 14.9505C11.5004 15.1779 11.87 15.3008 12.2499 15.3008C12.6297 15.3008 12.9994 15.1779 13.3036 14.9505C13.6078 14.7231 13.8303 14.4034 13.9379 14.0391H10.5619Z" fill="#000000" />
</svg>