<svg width="24px"  height="24px"  viewBox="0 0 25 24" fill="none" xmlns="http://www.w3.org/2000/svg">
<path d="M16.466 21.75H8.03201C4.72401 21.75 2.5 19.429 2.5 15.974V8.026C2.5 4.571 4.72401 2.25 8.03201 2.25H16.467C19.776 2.25 22 4.571 22 8.026V15.974C22 19.429 19.776 21.75 16.466 21.75ZM8.03201 3.75C5.58301 3.75 4 5.428 4 8.026V15.974C4 18.574 5.58301 20.25 8.03201 20.25H16.466C18.916 20.25 20.5 18.571 20.5 15.974V8.026C20.5 5.426 18.917 3.75 16.467 3.75H8.03201Z" fill="#000000" />
<path d="M14.0328 17.7695H10.4648C10.2659 17.7695 10.0752 17.6905 9.93451 17.5499C9.79386 17.4092 9.71484 17.2184 9.71484 17.0195C9.71484 16.8206 9.79386 16.6299 9.93451 16.4892C10.0752 16.3486 10.2659 16.2695 10.4648 16.2695H14.0328C14.2317 16.2695 14.4225 16.3486 14.5632 16.4892C14.7038 16.6299 14.7828 16.8206 14.7828 17.0195C14.7828 17.2184 14.7038 17.4092 14.5632 17.5499C14.4225 17.6905 14.2317 17.7695 14.0328 17.7695Z" fill="#000000" />
<path d="M15.475 14.0008C15.2822 14.0008 15.0937 13.9436 14.9333 13.8365C14.773 13.7293 14.648 13.5771 14.5742 13.3989C14.5004 13.2207 14.4811 13.0247 14.5187 12.8356C14.5564 12.6464 14.6492 12.4727 14.7856 12.3364C14.9219 12.2 15.0957 12.1071 15.2848 12.0695C15.4739 12.0319 15.67 12.0512 15.8481 12.125C16.0263 12.1988 16.1785 12.3238 16.2857 12.4841C16.3928 12.6444 16.45 12.8329 16.45 13.0258C16.4497 13.2843 16.3469 13.5321 16.1641 13.7149C15.9813 13.8977 15.7335 14.0005 15.475 14.0008Z" fill="#000000" />
<path d="M8.975 14.0008C8.78217 14.0008 8.59365 13.9436 8.43332 13.8365C8.27298 13.7293 8.14801 13.5771 8.07422 13.3989C8.00042 13.2207 7.98111 13.0247 8.01874 12.8356C8.05636 12.6464 8.14922 12.4727 8.28558 12.3364C8.42194 12.2 8.59566 12.1071 8.78479 12.0695C8.97392 12.0319 9.16995 12.0512 9.34811 12.125C9.52627 12.1988 9.67854 12.3238 9.78567 12.4841C9.89281 12.6444 9.95001 12.8329 9.95001 13.0258C9.94974 13.2843 9.84691 13.5321 9.66412 13.7149C9.48133 13.8977 9.23351 14.0005 8.975 14.0008Z" fill="#000000" />
</svg>