<svg width="24px"  height="24px"  viewBox="0 0 25 24" fill="none" xmlns="http://www.w3.org/2000/svg">
<path d="M16.466 21.75H8.03201C4.72301 21.75 2.5 19.429 2.5 15.974V8.026C2.5 4.571 4.72301 2.25 8.03201 2.25H16.467C19.776 2.25 22 4.571 22 8.026V15.974C22 19.429 19.776 21.75 16.466 21.75ZM8.03201 3.75C5.58301 3.75 4 5.428 4 8.026V15.974C4 18.574 5.58301 20.25 8.03201 20.25H16.466C18.917 20.25 20.5 18.571 20.5 15.974V8.026C20.5 5.426 18.917 3.75 16.467 3.75H8.03201Z" fill="#000000" />
<path d="M16.7112 15.4258H14.0352C13.8362 15.4258 13.6455 15.3468 13.5048 15.2061C13.3642 15.0655 13.2852 14.8747 13.2852 14.6758C13.2852 14.4769 13.3642 14.2861 13.5048 14.1454C13.6455 14.0048 13.8362 13.9258 14.0352 13.9258H16.7112C16.9101 13.9258 17.1008 14.0048 17.2415 14.1454C17.3821 14.2861 17.4612 14.4769 17.4612 14.6758C17.4612 14.8747 17.3821 15.0655 17.2415 15.2061C17.1008 15.3468 16.9101 15.4258 16.7112 15.4258Z" fill="#000000" />
<path d="M8.98282 9.96954C8.72432 9.96928 8.47646 9.86648 8.29367 9.68369C8.11088 9.5009 8.00808 9.25304 8.00781 8.99454C8.00755 8.86651 8.03255 8.73968 8.08139 8.62134C8.13023 8.50299 8.20197 8.39545 8.29245 8.30487C8.38294 8.21429 8.49041 8.14247 8.60871 8.09351C8.727 8.04454 8.85378 8.0194 8.98181 8.01953C9.2404 8.01953 9.48839 8.12227 9.67124 8.30512C9.85408 8.48796 9.95682 8.73595 9.95682 8.99454C9.95682 9.25312 9.85408 9.50111 9.67124 9.68396C9.48839 9.86681 9.2404 9.96954 8.98181 9.96954H8.98282Z" fill="#000000" />
<path d="M15.4828 9.96954C15.2243 9.96928 14.9765 9.86648 14.7937 9.68369C14.6109 9.5009 14.5081 9.25304 14.5078 8.99454C14.5076 8.86651 14.5325 8.73968 14.5814 8.62134C14.6302 8.50299 14.702 8.39545 14.7925 8.30487C14.8829 8.21429 14.9904 8.14247 15.1087 8.09351C15.227 8.04454 15.3538 8.0194 15.4818 8.01953C15.7404 8.01953 15.9884 8.12227 16.1712 8.30512C16.3541 8.48796 16.4568 8.73595 16.4568 8.99454C16.4568 9.25312 16.3541 9.50111 16.1712 9.68396C15.9884 9.86681 15.7404 9.96954 15.4818 9.96954H15.4828Z" fill="#000000" />
</svg>