<svg width="24px"  height="24px"  viewBox="0 0 25 24" fill="none" xmlns="http://www.w3.org/2000/svg">
<path d="M16.468 21.75H8.034C4.724 21.75 2.5 19.429 2.5 15.974V8.026C2.5 4.571 4.72399 2.25 8.03299 2.25H16.468C19.776 2.25 22 4.571 22 8.026V15.974C22 19.429 19.776 21.75 16.468 21.75ZM8.03299 3.75C5.58299 3.75 4 5.428 4 8.026V15.974C4 18.574 5.583 20.25 8.034 20.25H16.468C18.917 20.25 20.5 18.571 20.5 15.974V8.026C20.5 5.426 18.917 3.75 16.468 3.75H8.03299Z" fill="#000000" />
<path d="M10.4651 15.4258H7.78906C7.59015 15.4258 7.39938 15.3468 7.25873 15.2061C7.11808 15.0655 7.03906 14.8747 7.03906 14.6758C7.03906 14.4769 7.11808 14.2861 7.25873 14.1454C7.39938 14.0048 7.59015 13.9258 7.78906 13.9258H10.4651C10.664 13.9258 10.8547 14.0048 10.9954 14.1454C11.136 14.2861 11.2151 14.4769 11.2151 14.6758C11.2151 14.8747 11.136 15.0655 10.9954 15.2061C10.8547 15.3468 10.664 15.4258 10.4651 15.4258Z" fill="#000000" />
<path d="M8.98282 9.96954C8.72432 9.96928 8.47646 9.86648 8.29367 9.68369C8.11088 9.5009 8.00808 9.25304 8.00781 8.99454C8.00755 8.86651 8.03255 8.73968 8.08139 8.62134C8.13023 8.50299 8.20197 8.39545 8.29245 8.30487C8.38294 8.21429 8.49041 8.14247 8.60871 8.09351C8.727 8.04454 8.85378 8.0194 8.98181 8.01953C9.2404 8.01953 9.48839 8.12227 9.67124 8.30512C9.85408 8.48796 9.95682 8.73595 9.95682 8.99454C9.95682 9.25312 9.85408 9.50111 9.67124 9.68396C9.48839 9.86681 9.2404 9.96954 8.98181 9.96954H8.98282Z" fill="#000000" />
<path d="M15.4828 9.96953C15.2243 9.96927 14.9765 9.86646 14.7937 9.68367C14.6109 9.50088 14.5081 9.25303 14.5078 8.99452C14.507 8.86719 14.5315 8.74096 14.5799 8.62319C14.6283 8.50541 14.6997 8.39845 14.7898 8.30852C14.9028 8.19444 15.0422 8.11003 15.1956 8.06276C15.349 8.01549 15.5117 8.00683 15.6693 8.03755C15.8269 8.06828 15.9744 8.13743 16.0988 8.23888C16.2233 8.34033 16.3207 8.47094 16.3825 8.6191C16.4443 8.76726 16.4686 8.92839 16.4532 9.08818C16.4378 9.24798 16.3831 9.40151 16.2941 9.53511C16.2051 9.66872 16.0845 9.77827 15.943 9.85405C15.8014 9.92984 15.6434 9.9695 15.4828 9.96953Z" fill="#000000" />
</svg>