<svg width="24px"  height="24px"  viewBox="0 0 25 24" fill="none" xmlns="http://www.w3.org/2000/svg">
<path d="M16.466 21.75H8.032C4.723 21.75 2.5 19.429 2.5 15.974V8.026C2.5 4.571 4.723 2.25 8.032 2.25H16.467C19.776 2.25 22 4.571 22 8.026V15.974C22 19.429 19.776 21.75 16.466 21.75ZM8.032 3.75C5.583 3.75 4 5.428 4 8.026V15.974C4 18.574 5.583 20.25 8.032 20.25H16.466C18.917 20.25 20.5 18.571 20.5 15.974V8.026C20.5 5.426 18.917 3.75 16.467 3.75H8.032Z" fill="#000000" />
<path d="M14.0714 12.5312H10.5273C10.3284 12.5312 10.1377 12.4522 9.99702 12.3116C9.85637 12.1709 9.77734 11.9802 9.77734 11.7812C9.77734 11.5823 9.85637 11.3916 9.99702 11.2509C10.1377 11.1103 10.3284 11.0312 10.5273 11.0312H14.0714C14.2703 11.0312 14.461 11.1103 14.6017 11.2509C14.7423 11.3916 14.8214 11.5823 14.8214 11.7812C14.8214 11.9802 14.7423 12.1709 14.6017 12.3116C14.461 12.4522 14.2703 12.5312 14.0714 12.5312Z" fill="#000000" />
<path d="M9.02579 9.22733C8.76728 9.22706 8.51945 9.12426 8.33666 8.94147C8.15387 8.75868 8.05105 8.51086 8.05078 8.25235C8.05052 8.12432 8.07553 7.9975 8.12438 7.87915C8.17322 7.7608 8.24494 7.65326 8.33542 7.56268C8.4259 7.47211 8.53338 7.40028 8.65167 7.35132C8.76997 7.30235 8.89675 7.27721 9.02478 7.27734C9.15282 7.27734 9.27961 7.30256 9.39791 7.35156C9.5162 7.40056 9.62368 7.47236 9.71422 7.5629C9.80476 7.65343 9.87657 7.76092 9.92557 7.87921C9.97457 7.9975 9.99979 8.12431 9.99979 8.25235C9.99979 8.38039 9.97457 8.50717 9.92557 8.62546C9.87657 8.74375 9.80476 8.85124 9.71422 8.94177C9.62368 9.03231 9.5162 9.10411 9.39791 9.15311C9.27961 9.20211 9.15282 9.22733 9.02478 9.22733H9.02579Z" fill="#000000" />
<path d="M15.5258 9.22733C15.2673 9.22706 15.0194 9.12426 14.8367 8.94147C14.6539 8.75868 14.551 8.51086 14.5508 8.25235C14.5505 8.12432 14.5755 7.9975 14.6244 7.87915C14.6732 7.7608 14.7449 7.65326 14.8354 7.56268C14.9259 7.47211 15.0334 7.40028 15.1517 7.35132C15.27 7.30235 15.3968 7.27721 15.5248 7.27734C15.6528 7.27734 15.7796 7.30256 15.8979 7.35156C16.0162 7.40056 16.1237 7.47236 16.2142 7.5629C16.3048 7.65343 16.3766 7.76092 16.4256 7.87921C16.4746 7.9975 16.4998 8.12431 16.4998 8.25235C16.4998 8.38039 16.4746 8.50717 16.4256 8.62546C16.3766 8.74375 16.3048 8.85124 16.2142 8.94177C16.1237 9.03231 16.0162 9.10411 15.8979 9.15311C15.7796 9.20211 15.6528 9.22733 15.5248 9.22733H15.5258Z" fill="#000000" />
</svg>