<svg width="24px"  height="24px"  viewBox="0 0 25 24" fill="none" xmlns="http://www.w3.org/2000/svg">
<path d="M16.466 21.75H8.032C4.723 21.75 2.5 19.429 2.5 15.974V8.026C2.5 4.571 4.723 2.25 8.032 2.25H16.467C19.776 2.25 22 4.571 22 8.026V15.974C22 19.429 19.776 21.75 16.466 21.75ZM8.032 3.75C5.583 3.75 4 5.428 4 8.026V15.974C4 18.574 5.583 20.25 8.032 20.25H16.466C18.917 20.25 20.5 18.571 20.5 15.974V8.026C20.5 5.426 18.917 3.75 16.467 3.75H8.032Z" fill="#000000" />
<path d="M8.97501 10.2C8.7165 10.1997 8.46865 10.0969 8.28586 9.91412C8.10307 9.73133 8.00027 9.48351 8 9.22501C7.99974 9.09698 8.02475 8.97015 8.0736 8.85181C8.12244 8.73346 8.19416 8.62592 8.28464 8.53534C8.37512 8.44476 8.48258 8.37294 8.60088 8.32398C8.71917 8.27501 8.84597 8.24987 8.974 8.25C9.23259 8.25 9.48058 8.35274 9.66342 8.53558C9.84627 8.71843 9.94901 8.96642 9.94901 9.22501C9.94901 9.48359 9.84627 9.73158 9.66342 9.91443C9.48058 10.0973 9.23259 10.2 8.974 10.2H8.97501Z" fill="#000000" />
<path d="M15.475 10.2C15.2165 10.1997 14.9687 10.0969 14.7859 9.91412C14.6031 9.73133 14.5003 9.48351 14.5 9.22501C14.4997 9.09698 14.5248 8.97015 14.5736 8.85181C14.6224 8.73346 14.6942 8.62592 14.7846 8.53534C14.8751 8.44476 14.9826 8.37294 15.1009 8.32398C15.2192 8.27501 15.346 8.24987 15.474 8.25C15.7326 8.25 15.9806 8.35274 16.1634 8.53558C16.3463 8.71843 16.449 8.96642 16.449 9.22501C16.449 9.48359 16.3463 9.73158 16.1634 9.91443C15.9806 10.0973 15.7326 10.2 15.474 10.2H15.475Z" fill="#000000" />
<path d="M15.1311 15.6133H9.37109C9.17218 15.6133 8.98141 15.5343 8.84076 15.3936C8.70011 15.253 8.62109 15.0622 8.62109 14.8633C8.62109 14.6644 8.70011 14.4736 8.84076 14.3329C8.98141 14.1923 9.17218 14.1133 9.37109 14.1133H15.1311C15.33 14.1133 15.5208 14.1923 15.6614 14.3329C15.8021 14.4736 15.8811 14.6644 15.8811 14.8633C15.8811 15.0622 15.8021 15.253 15.6614 15.3936C15.5208 15.5343 15.33 15.6133 15.1311 15.6133Z" fill="#000000" />
</svg>