<svg width="24px"  height="24px"  viewBox="0 0 25 24" fill="none" xmlns="http://www.w3.org/2000/svg">
<path d="M16.466 21.75H8.032C4.723 21.75 2.5 19.429 2.5 15.974V8.026C2.5 4.571 4.723 2.25 8.032 2.25H16.467C19.776 2.25 22 4.571 22 8.026V15.974C22 19.429 19.776 21.75 16.466 21.75ZM8.032 3.75C5.583 3.75 4 5.428 4 8.026V15.974C4 18.574 5.583 20.25 8.032 20.25H16.466C18.917 20.25 20.5 18.571 20.5 15.974V8.026C20.5 5.426 18.917 3.75 16.467 3.75H8.032Z" fill="#000000" />
<path d="M9.26024 17.5498C8.76168 17.5496 8.27436 17.4016 7.85992 17.1245C7.44547 16.8473 7.1225 16.4535 6.93185 15.9929C6.74119 15.5322 6.69141 15.0253 6.7888 14.5364C6.88618 14.0474 7.12637 13.5983 7.47898 13.2459C7.83158 12.8934 8.28079 12.6534 8.76979 12.5562C9.25878 12.459 9.76562 12.509 10.2262 12.6998C10.6868 12.8906 11.0805 13.2138 11.3574 13.6283C11.6344 14.0429 11.7822 14.5302 11.7822 15.0288C11.7812 15.6973 11.5151 16.338 11.0423 16.8106C10.5696 17.2832 9.9287 17.549 9.26024 17.5498ZM9.26024 14.0068C9.05839 14.007 8.86113 14.067 8.69338 14.1793C8.52563 14.2916 8.39492 14.451 8.31777 14.6375C8.24061 14.8241 8.22048 15.0293 8.25991 15.2272C8.29933 15.4252 8.39656 15.607 8.53929 15.7498C8.68202 15.8925 8.86385 15.9897 9.06181 16.0291C9.25977 16.0686 9.46498 16.0484 9.6515 15.9713C9.83802 15.8941 9.99749 15.7634 10.1098 15.5957C10.222 15.4279 10.282 15.2307 10.2822 15.0288C10.2817 14.7579 10.1739 14.4983 9.98232 14.3067C9.79077 14.1152 9.53113 14.0073 9.26024 14.0068Z" fill="#000000" />
<path d="M8.975 10.0008C8.71658 10.0003 8.46889 9.89736 8.28616 9.71463C8.10342 9.5319 8.00053 9.28421 8 9.02579C7.99974 8.89776 8.02475 8.77093 8.07359 8.65259C8.12243 8.53424 8.19415 8.4267 8.28463 8.33612C8.37512 8.24554 8.48258 8.17372 8.60088 8.12476C8.71917 8.07579 8.84597 8.05065 8.974 8.05078C9.23259 8.05078 9.48058 8.15352 9.66343 8.33637C9.84628 8.51921 9.949 8.7672 9.949 9.02579C9.949 9.28437 9.84628 9.53236 9.66343 9.71521C9.48058 9.89806 9.23259 10.0008 8.974 10.0008H8.975Z" fill="#000000" />
<path d="M15.475 10.0008C15.2166 10.0003 14.9689 9.89736 14.7862 9.71463C14.6034 9.5319 14.5005 9.28421 14.5 9.02579C14.4997 8.89776 14.5247 8.77093 14.5736 8.65259C14.6224 8.53424 14.6941 8.4267 14.7846 8.33612C14.8751 8.24554 14.9826 8.17372 15.1009 8.12476C15.2192 8.07579 15.346 8.05065 15.474 8.05078C15.7326 8.05078 15.9806 8.15352 16.1634 8.33637C16.3463 8.51921 16.449 8.7672 16.449 9.02579C16.449 9.28437 16.3463 9.53236 16.1634 9.71521C15.9806 9.89806 15.7326 10.0008 15.474 10.0008H15.475Z" fill="#000000" />
</svg>