<svg width="24px"  height="24px"  viewBox="0 0 25 24" fill="none" xmlns="http://www.w3.org/2000/svg">
<path d="M16.466 21.75H8.03198C4.72398 21.75 2.5 19.429 2.5 15.974V8.026C2.5 4.571 4.72398 2.25 8.03198 2.25H16.467C19.776 2.25 22 4.571 22 8.026V15.974C22 19.429 19.776 21.75 16.466 21.75ZM8.03198 3.75C5.58298 3.75 4 5.429 4 8.026V15.974C4 18.574 5.58298 20.25 8.03198 20.25H16.466C18.916 20.25 20.5 18.571 20.5 15.974V8.026C20.5 5.426 18.917 3.75 16.467 3.75H8.03198Z" fill="#000000" />
<path d="M15.2417 17.5498C14.7431 17.5498 14.2557 17.402 13.8411 17.1249C13.4265 16.8479 13.1034 16.4542 12.9126 15.9936C12.7218 15.5329 12.6719 15.026 12.7691 14.537C12.8664 14.048 13.1065 13.5988 13.4591 13.2462C13.8116 12.8936 14.2609 12.6535 14.7499 12.5563C15.2389 12.459 15.7458 12.5089 16.2065 12.6997C16.6671 12.8905 17.0609 13.2136 17.3379 13.6282C17.6149 14.0428 17.7627 14.5302 17.7627 15.0288C17.7617 15.6971 17.4957 16.3377 17.0232 16.8103C16.5506 17.2828 15.91 17.5488 15.2417 17.5498ZM15.2417 14.0068C15.0398 14.0068 14.8425 14.0667 14.6746 14.1788C14.5067 14.291 14.3758 14.4504 14.2985 14.6369C14.2212 14.8234 14.201 15.0286 14.2403 15.2266C14.2796 15.4247 14.3767 15.6066 14.5194 15.7494C14.6621 15.8923 14.8439 15.9896 15.0419 16.0291C15.2399 16.0686 15.4452 16.0485 15.6317 15.9714C15.8183 15.8943 15.9778 15.7635 16.0901 15.5958C16.2024 15.428 16.2625 15.2307 16.2627 15.0288C16.2622 14.7581 16.1545 14.4986 15.9632 14.3071C15.7718 14.1156 15.5124 14.0076 15.2417 14.0068Z" fill="#000000" />
<path d="M8.97497 10.0008C8.78214 10.0008 8.59362 9.94362 8.43329 9.83648C8.27295 9.72935 8.14801 9.57705 8.07422 9.39889C8.00042 9.22073 7.98111 9.0247 8.01874 8.83557C8.05636 8.64644 8.14922 8.47272 8.28558 8.33636C8.42194 8.20001 8.59566 8.10714 8.78479 8.06952C8.97392 8.0319 9.16998 8.0512 9.34814 8.125C9.5263 8.19879 9.67857 8.32376 9.7857 8.4841C9.89284 8.64444 9.95001 8.83295 9.95001 9.02578C9.94974 9.28429 9.84691 9.53214 9.66412 9.71493C9.48133 9.89772 9.23348 10.0005 8.97497 10.0008Z" fill="#000000" />
<path d="M15.475 10.0008C15.2821 10.0008 15.0936 9.94362 14.9333 9.83648C14.7729 9.72935 14.648 9.57705 14.5742 9.39889C14.5004 9.22073 14.4811 9.0247 14.5187 8.83557C14.5564 8.64644 14.6492 8.47272 14.7856 8.33636C14.9219 8.20001 15.0957 8.10714 15.2848 8.06952C15.4739 8.0319 15.67 8.0512 15.8481 8.125C16.0263 8.19879 16.1786 8.32376 16.2857 8.4841C16.3928 8.64444 16.45 8.83295 16.45 9.02578C16.4497 9.28429 16.3469 9.53214 16.1641 9.71493C15.9813 9.89772 15.7335 10.0005 15.475 10.0008Z" fill="#000000" />
</svg>