<svg width="24px"  height="24px"  viewBox="0 0 25 24" fill="none" xmlns="http://www.w3.org/2000/svg">
<path d="M16.466 21.75H8.032C4.723 21.75 2.5 19.429 2.5 15.974V8.026C2.5 4.571 4.723 2.25 8.032 2.25H16.467C19.776 2.25 22 4.571 22 8.026V15.974C22 19.429 19.776 21.75 16.466 21.75ZM8.032 3.75C5.583 3.75 4 5.428 4 8.026V15.974C4 18.574 5.583 20.25 8.032 20.25H16.466C18.917 20.25 20.5 18.571 20.5 15.974V8.026C20.5 5.426 18.917 3.75 16.467 3.75H8.032Z" fill="#000000" />
<path d="M8.975 9.20001C8.7165 9.19975 8.46866 9.09691 8.28586 8.91412C8.10307 8.73133 8.00027 8.48351 8 8.22501C7.99974 8.09698 8.02475 7.97015 8.07359 7.85181C8.12243 7.73346 8.19415 7.62592 8.28463 7.53534C8.37512 7.44476 8.48259 7.37294 8.60088 7.32398C8.71918 7.27501 8.84597 7.24987 8.974 7.25C9.10204 7.25 9.22883 7.27522 9.34712 7.32422C9.46541 7.37322 9.57289 7.44505 9.66343 7.53558C9.75397 7.62612 9.82579 7.73361 9.87478 7.8519C9.92378 7.97019 9.949 8.09697 9.949 8.22501C9.949 8.35305 9.92378 8.47982 9.87478 8.59811C9.82579 8.71641 9.75397 8.82389 9.66343 8.91443C9.57289 9.00497 9.46541 9.0768 9.34712 9.12579C9.22883 9.17479 9.10204 9.20001 8.974 9.20001H8.975Z" fill="#000000" />
<path d="M15.475 9.20001C15.2165 9.19975 14.9687 9.09691 14.7859 8.91412C14.6031 8.73133 14.5003 8.48351 14.5 8.22501C14.4997 8.09698 14.5247 7.97015 14.5736 7.85181C14.6224 7.73346 14.6941 7.62592 14.7846 7.53534C14.8751 7.44476 14.9826 7.37294 15.1009 7.32398C15.2192 7.27501 15.346 7.24987 15.474 7.25C15.602 7.25 15.7288 7.27522 15.8471 7.32422C15.9654 7.37322 16.0729 7.44505 16.1634 7.53558C16.254 7.62612 16.3258 7.73361 16.3748 7.8519C16.4238 7.97019 16.449 8.09697 16.449 8.22501C16.449 8.35305 16.4238 8.47982 16.3748 8.59811C16.3258 8.71641 16.254 8.82389 16.1634 8.91443C16.0729 9.00497 15.9654 9.0768 15.8471 9.12579C15.7288 9.17479 15.602 9.20001 15.474 9.20001H15.475Z" fill="#000000" />
<path d="M12.2505 16.751C11.7517 16.751 11.2641 16.6031 10.8494 16.326C10.4346 16.0489 10.1114 15.655 9.92049 15.1941C9.72961 14.7333 9.67966 14.2262 9.77698 13.737C9.87429 13.2478 10.1145 12.7984 10.4672 12.4457C10.8199 12.093 11.2693 11.8528 11.7585 11.7555C12.2477 11.6582 12.7548 11.7081 13.2156 11.899C13.6765 12.0899 14.0704 12.4131 14.3475 12.8279C14.6246 13.2426 14.7725 13.7302 14.7725 14.229C14.7717 14.8977 14.5058 15.5387 14.033 16.0115C13.5602 16.4843 12.9191 16.7502 12.2505 16.751ZM12.2505 13.207C12.0484 13.207 11.8508 13.267 11.6827 13.3793C11.5147 13.4916 11.3837 13.6512 11.3063 13.8379C11.229 14.0247 11.2087 14.2302 11.2482 14.4284C11.2876 14.6267 11.3849 14.8088 11.5279 14.9517C11.6708 15.0946 11.8529 15.1919 12.0511 15.2314C12.2494 15.2708 12.4549 15.2506 12.6416 15.1732C12.8284 15.0959 12.988 14.9649 13.1003 14.7968C13.2126 14.6287 13.2725 14.4312 13.2725 14.229C13.2725 13.958 13.1648 13.698 12.9732 13.5064C12.7815 13.3147 12.5216 13.207 12.2505 13.207Z" fill="#000000" />
</svg>