<svg width="24px"  height="24px"  viewBox="0 0 25 24" fill="none" xmlns="http://www.w3.org/2000/svg">
<path fill-rule="evenodd" clip-rule="evenodd" d="M3.9902 3.89737C4.97468 2.84117 6.37669 2.25 8.03216 2.25H16.4669C18.1262 2.25 19.5288 2.84084 20.5129 3.89765C21.4913 4.94841 22 6.39889 22 8.02638V15.9736C22 17.6011 21.4913 19.0516 20.5127 20.1024C19.5285 21.1592 18.1256 21.75 16.4659 21.75H8.03216C6.3728 21.75 4.97038 21.1591 3.98657 20.1023C3.00842 19.0515 2.5 17.601 2.5 15.9736V8.02638C2.5 6.39806 3.01117 4.94771 3.9902 3.89737ZM5.08745 4.92012C4.41024 5.64666 4 6.70951 4 8.02638V15.9736C4 17.2914 4.40861 18.3541 5.08451 19.0802C5.75475 19.8003 6.74341 20.25 8.03216 20.25H16.4659C17.7552 20.25 18.7444 19.8002 19.415 19.0801C20.0912 18.354 20.5 17.2913 20.5 15.9736V8.02638C20.5 6.70868 20.0912 5.64597 19.4151 4.91984C18.7446 4.19975 17.7556 3.75 16.4669 3.75H8.03216C6.74828 3.75 5.75921 4.19943 5.08745 4.92012Z" fill="#000000" />
<path fill-rule="evenodd" clip-rule="evenodd" d="M8.89657 13.7569C9.22501 13.5045 9.69587 13.5662 9.94825 13.8946C10.5437 14.6695 11.3943 15.1233 12.3114 15.1233C13.2285 15.1233 14.0791 14.6695 14.6745 13.8946C14.9269 13.5662 15.3978 13.5045 15.7262 13.7569C16.0547 14.0093 16.1163 14.4801 15.8639 14.8086C15.0194 15.9076 13.7489 16.6233 12.3114 16.6233C10.8739 16.6233 9.60338 15.9076 8.75886 14.8086C8.50647 14.4801 8.56813 14.0093 8.89657 13.7569Z" fill="#000000" />
<path fill-rule="evenodd" clip-rule="evenodd" d="M9.44025 9.58594C9.25558 9.58594 9.06512 9.67598 8.91854 9.86722C8.66656 10.196 8.19578 10.2582 7.86703 10.0062C7.53827 9.75424 7.47604 9.28346 7.72802 8.95471C8.12436 8.43762 8.73563 8.08594 9.44025 8.08594C10.1449 8.08594 10.7561 8.43762 11.1525 8.95471C11.4045 9.28346 11.3422 9.75424 11.0135 10.0062C10.6847 10.2582 10.214 10.196 9.96197 9.86722C9.81539 9.67598 9.62492 9.58594 9.44025 9.58594Z" fill="#000000" />
<path fill-rule="evenodd" clip-rule="evenodd" d="M15.0574 9.58594C14.8728 9.58594 14.6823 9.67598 14.5357 9.86722C14.2837 10.196 13.813 10.2582 13.4842 10.0062C13.1555 9.75424 13.0932 9.28346 13.3452 8.95471C13.7415 8.43762 14.3528 8.08594 15.0574 8.08594C15.7621 8.08594 16.3733 8.43762 16.7697 8.95471C17.0217 9.28346 16.9594 9.75424 16.6307 10.0062C16.3019 10.2582 15.8311 10.196 15.5792 9.86722C15.4326 9.67598 15.2421 9.58594 15.0574 9.58594Z" fill="#000000" />
</svg>