<svg width="24px"  height="24px"  viewBox="0 0 25 24" fill="none" xmlns="http://www.w3.org/2000/svg">
<path fill-rule="evenodd" clip-rule="evenodd" d="M3.9902 3.89737C4.97468 2.84117 6.37669 2.25 8.03216 2.25H16.4669C18.1262 2.25 19.5288 2.84084 20.5129 3.89765C21.4913 4.94841 22 6.39889 22 8.02638V15.9736C22 17.6011 21.4913 19.0516 20.5127 20.1024C19.5285 21.1592 18.1256 21.75 16.4659 21.75H8.03216C6.3728 21.75 4.97038 21.1591 3.98657 20.1023C3.00842 19.0515 2.5 17.601 2.5 15.9736V8.02638C2.5 6.39806 3.01117 4.94771 3.9902 3.89737ZM5.08745 4.92012C4.41024 5.64666 4 6.70951 4 8.02638V15.9736C4 17.2914 4.40861 18.3541 5.08451 19.0802C5.75475 19.8003 6.74341 20.25 8.03216 20.25H16.4659C17.7552 20.25 18.7444 19.8002 19.415 19.0801C20.0912 18.354 20.5 17.2913 20.5 15.9736V8.02638C20.5 6.70868 20.0912 5.64597 19.4151 4.91984C18.7446 4.19975 17.7556 3.75 16.4669 3.75H8.03216C6.74828 3.75 5.75921 4.19943 5.08745 4.92012Z" fill="#000000" />
<path fill-rule="evenodd" clip-rule="evenodd" d="M8.89657 13.7569C9.22501 13.5045 9.69587 13.5662 9.94825 13.8946C10.5437 14.6695 11.3943 15.1233 12.3114 15.1233C12.7256 15.1233 13.0614 15.4591 13.0614 15.8733C13.0614 16.2875 12.7256 16.6233 12.3114 16.6233C10.8739 16.6233 9.60338 15.9076 8.75886 14.8086C8.50647 14.4801 8.56813 14.0093 8.89657 13.7569Z" fill="#000000" />
<path fill-rule="evenodd" clip-rule="evenodd" d="M7.86703 8.57666C8.19578 8.32467 8.66656 8.38691 8.91854 8.71566C9.06512 8.9069 9.25558 8.99694 9.44025 8.99694C9.62492 8.99694 9.81539 8.9069 9.96197 8.71566C10.214 8.38691 10.6847 8.32467 11.0135 8.57666C11.3422 8.82864 11.4045 9.29942 11.1525 9.62817C10.7561 10.1453 10.1449 10.4969 9.44025 10.4969C8.73563 10.4969 8.12436 10.1453 7.72802 9.62817C7.47604 9.29942 7.53827 8.82864 7.86703 8.57666Z" fill="#000000" />
<path fill-rule="evenodd" clip-rule="evenodd" d="M13.4842 8.57666C13.813 8.32467 14.2837 8.38691 14.5357 8.71566C14.6823 8.9069 14.8728 8.99694 15.0574 8.99694C15.2421 8.99694 15.4326 8.9069 15.5792 8.71566C15.8311 8.38691 16.3019 8.32467 16.6307 8.57666C16.9594 8.82864 17.0217 9.29942 16.7697 9.62817C16.3733 10.1453 15.7621 10.4969 15.0574 10.4969C14.3528 10.4969 13.7415 10.1453 13.3452 9.62817C13.0932 9.29942 13.1555 8.82864 13.4842 8.57666Z" fill="#000000" />
</svg>