<svg width="24px"  height="24px"  viewBox="0 0 25 24" fill="none" xmlns="http://www.w3.org/2000/svg">
<path fill-rule="evenodd" clip-rule="evenodd" d="M12.25 3.75C7.69329 3.75 4 7.44329 4 12C4 16.5558 7.69335 20.25 12.25 20.25C16.8067 20.25 20.5 16.5558 20.5 12C20.5 7.44329 16.8067 3.75 12.25 3.75ZM2.5 12C2.5 6.61487 6.86487 2.25 12.25 2.25C17.6351 2.25 22 6.61487 22 12C22 17.3841 17.6352 21.75 12.25 21.75C6.86481 21.75 2.5 17.3841 2.5 12Z" fill="#000000" />
<path fill-rule="evenodd" clip-rule="evenodd" d="M8.91406 13.6945C9.24247 13.442 9.71333 13.5036 9.96576 13.832C10.5428 14.5828 11.3652 15.0209 12.2511 15.0209C12.6653 15.0209 13.0011 15.3567 13.0011 15.7709C13.0011 16.1852 12.6653 16.5209 12.2511 16.5209C10.8447 16.5209 9.60247 15.8207 8.7765 14.7462C8.52407 14.4178 8.58566 13.9469 8.91406 13.6945Z" fill="#000000" />
<path fill-rule="evenodd" clip-rule="evenodd" d="M9.45696 9.66797C9.284 9.66797 9.1039 9.75218 8.9639 9.93439C8.71152 10.2628 8.24067 10.3245 7.91222 10.0721C7.58377 9.81978 7.52209 9.34892 7.77446 9.02047C8.16376 8.51381 8.76398 8.16797 9.45696 8.16797C10.1499 8.16797 10.7502 8.51381 11.1395 9.02047C11.3918 9.34892 11.3302 9.81978 11.0017 10.0721C10.6733 10.3245 10.2024 10.2628 9.95003 9.93439C9.81003 9.75218 9.62992 9.66797 9.45696 9.66797Z" fill="#000000" />
<path fill-rule="evenodd" clip-rule="evenodd" d="M14.9247 9.66797C14.7518 9.66797 14.5717 9.75218 14.4317 9.93439C14.1793 10.2628 13.7084 10.3245 13.38 10.0721C13.0515 9.81978 12.9899 9.34892 13.2422 9.02047C13.6315 8.51381 14.2318 8.16797 14.9247 8.16797C15.6177 8.16797 16.2179 8.51381 16.6072 9.02047C16.8596 9.34892 16.7979 9.81978 16.4695 10.0721C16.141 10.3245 15.6702 10.2628 15.4178 9.93439C15.2778 9.75218 15.0977 9.66797 14.9247 9.66797Z" fill="#000000" />
</svg>