<svg width="24px"  height="24px"  viewBox="0 0 25 24" fill="none" xmlns="http://www.w3.org/2000/svg">
<path fill-rule="evenodd" clip-rule="evenodd" d="M12.25 3.75C7.69329 3.75 4 7.44329 4 12C4 16.5558 7.69335 20.25 12.25 20.25C16.8067 20.25 20.5 16.5558 20.5 12C20.5 7.44329 16.8067 3.75 12.25 3.75ZM2.5 12C2.5 6.61487 6.86487 2.25 12.25 2.25C17.6351 2.25 22 6.61487 22 12C22 17.3841 17.6352 21.75 12.25 21.75C6.86481 21.75 2.5 17.3841 2.5 12Z" fill="#000000" />
<path fill-rule="evenodd" clip-rule="evenodd" d="M8.91309 13.6945C9.24149 13.442 9.71236 13.5036 9.96479 13.832C10.5418 14.5828 11.3642 15.0209 12.2502 15.0209C12.6644 15.0209 13.0002 15.3567 13.0002 15.7709C13.0002 16.1852 12.6644 16.5209 12.2502 16.5209C10.8438 16.5209 9.6015 15.8207 8.77552 14.7462C8.52309 14.4178 8.58468 13.9469 8.91309 13.6945Z" fill="#000000" />
<path fill-rule="evenodd" clip-rule="evenodd" d="M7.90929 8.65141C8.23774 8.39904 8.7086 8.46072 8.96097 8.78917C9.10097 8.97138 9.28107 9.05559 9.45403 9.05559C9.627 9.05559 9.8071 8.97138 9.9471 8.78917C10.1995 8.46072 10.6703 8.39904 10.9988 8.65141C11.3272 8.90378 11.3889 9.37464 11.1365 9.70309C10.7472 10.2097 10.147 10.5556 9.45403 10.5556C8.76105 10.5556 8.16083 10.2097 7.77153 9.70309C7.51916 9.37464 7.58084 8.90378 7.90929 8.65141Z" fill="#000000" />
<path fill-rule="evenodd" clip-rule="evenodd" d="M13.379 8.65141C13.7075 8.39904 14.1783 8.46072 14.4307 8.78917C14.5707 8.97138 14.7508 9.05559 14.9238 9.05559C15.0967 9.05559 15.2768 8.97138 15.4168 8.78917C15.6692 8.46072 16.14 8.39904 16.4685 8.65141C16.797 8.90378 16.8586 9.37464 16.6063 9.70309C16.217 10.2097 15.6167 10.5556 14.9238 10.5556C14.2308 10.5556 13.6306 10.2097 13.2413 9.70309C12.9889 9.37464 13.0506 8.90378 13.379 8.65141Z" fill="#000000" />
</svg>