<svg width="24px"  height="24px"  viewBox="0 0 25 24" fill="none" xmlns="http://www.w3.org/2000/svg">
<path d="M11.9785 21.75C10.0502 21.75 8.16511 21.1782 6.56173 20.1068C4.95835 19.0355 3.70868 17.5128 2.97072 15.7312C2.23277 13.9496 2.03965 11.9892 2.41585 10.0979C2.79206 8.20656 3.72069 6.46928 5.08425 5.10572C6.44781 3.74215 8.18506 2.81356 10.0764 2.43735C11.9677 2.06114 13.9281 2.25422 15.7097 2.99217C17.4913 3.73013 19.014 4.97981 20.0853 6.58319C21.1567 8.18657 21.7285 10.0716 21.7285 12C21.7285 12.1989 21.6495 12.3897 21.5089 12.5303C21.3682 12.671 21.1774 12.75 20.9785 12.75C20.7796 12.75 20.5889 12.671 20.4482 12.5303C20.3076 12.3897 20.2285 12.1989 20.2285 12C20.2285 10.3683 19.7447 8.77326 18.8382 7.41655C17.9316 6.05985 16.6432 5.00242 15.1357 4.37799C13.6282 3.75357 11.9694 3.5902 10.369 3.90853C8.7687 4.22685 7.2987 5.01259 6.14492 6.16637C4.99114 7.32015 4.20537 8.79016 3.88704 10.3905C3.56872 11.9908 3.7321 13.6496 4.35653 15.1571C4.98095 16.6646 6.0384 17.9531 7.3951 18.8596C8.75181 19.7661 10.3468 20.25 11.9785 20.25C12.1774 20.25 12.3682 20.329 12.5089 20.4697C12.6495 20.6103 12.7285 20.8011 12.7285 21C12.7285 21.1989 12.6495 21.3897 12.5089 21.5303C12.3682 21.671 12.1774 21.75 11.9785 21.75Z" fill="#000000" />
<path d="M9.00427 10.5008C8.74577 10.5005 8.49792 10.3977 8.31513 10.2149C8.13234 10.0321 8.02956 9.78428 8.0293 9.52577C8.02904 9.39774 8.054 9.27093 8.10285 9.15259C8.15169 9.03424 8.22342 8.9267 8.31391 8.83612C8.40439 8.74554 8.51183 8.67371 8.63013 8.62474C8.74842 8.57578 8.87527 8.55065 9.0033 8.55078C9.26188 8.55078 9.50984 8.6535 9.69269 8.83635C9.87554 9.0192 9.97827 9.26719 9.97827 9.52577C9.97827 9.78436 9.87554 10.0324 9.69269 10.2152C9.50984 10.3981 9.26188 10.5008 9.0033 10.5008H9.00427Z" fill="#000000" />
<path d="M15.5043 10.5008C15.2458 10.5005 14.9979 10.3977 14.8151 10.2149C14.6323 10.0321 14.5296 9.78428 14.5293 9.52577C14.529 9.39774 14.554 9.27093 14.6028 9.15259C14.6517 9.03424 14.7234 8.9267 14.8139 8.83612C14.9044 8.74554 15.0118 8.67371 15.1301 8.62474C15.2484 8.57578 15.3753 8.55065 15.5033 8.55078C15.7619 8.55078 16.0098 8.6535 16.1927 8.83635C16.3755 9.0192 16.4783 9.26719 16.4783 9.52577C16.4783 9.78436 16.3755 10.0324 16.1927 10.2152C16.0098 10.3981 15.7619 10.5008 15.5033 10.5008H15.5043Z" fill="#000000" />
<path d="M12.0305 16.85C11.0835 16.9049 10.1531 16.5838 9.44153 15.9565C8.72997 15.3292 8.29475 14.4464 8.23047 13.5C8.23047 13.3011 8.30948 13.1103 8.45013 12.9697C8.59079 12.829 8.78156 12.75 8.98047 12.75H15.0805C15.2794 12.75 15.4702 12.829 15.6108 12.9697C15.7515 13.1103 15.8305 13.3011 15.8305 13.5C15.7662 14.4464 15.331 15.3292 14.6194 15.9565C13.9079 16.5838 12.9775 16.9049 12.0305 16.85ZM9.93048 14.25C10.1662 14.5895 10.4806 14.867 10.8468 15.0585C11.213 15.2501 11.6202 15.3502 12.0335 15.3502C12.4468 15.3502 12.854 15.2501 13.2202 15.0585C13.5864 14.867 13.9008 14.5895 14.1365 14.25H9.93048Z" fill="#000000" />
<path d="M19.0216 21.7063C18.8941 21.7063 18.7686 21.6738 18.6572 21.6119C18.5457 21.55 18.4519 21.4606 18.3846 21.3523L17.5186 19.9583L16.1255 19.0933C16.0172 19.026 15.9279 18.9322 15.866 18.8207C15.804 18.7093 15.7715 18.5839 15.7715 18.4563C15.7715 18.3288 15.804 18.2034 15.866 18.0919C15.9279 17.9805 16.0172 17.8867 16.1255 17.8193L17.5186 16.9543L18.3846 15.5603C18.4566 15.4584 18.5521 15.3752 18.6629 15.3178C18.7737 15.2604 18.8968 15.2305 19.0216 15.2305C19.1464 15.2305 19.2694 15.2604 19.3802 15.3178C19.4911 15.3752 19.5865 15.4584 19.6586 15.5603L20.5246 16.9543L21.9166 17.8193C22.0251 17.8865 22.1147 17.9802 22.1768 18.0917C22.2389 18.2032 22.2716 18.3287 22.2716 18.4563C22.2716 18.584 22.2389 18.7095 22.1768 18.821C22.1147 18.9324 22.0251 19.0262 21.9166 19.0933L20.5246 19.9583L19.6586 21.3523C19.5912 21.4606 19.4974 21.55 19.386 21.6119C19.2745 21.6738 19.1491 21.7063 19.0216 21.7063ZM17.9426 18.4563L18.4586 18.7773C18.5568 18.8378 18.6397 18.9203 18.7006 19.0183L19.0216 19.5353L19.3426 19.0183C19.4034 18.9206 19.4858 18.8381 19.5836 18.7773L20.1006 18.4563L19.5836 18.1353C19.4858 18.0746 19.4034 17.9921 19.3426 17.8943L19.0216 17.3773L18.7006 17.8943C18.6397 17.9924 18.5568 18.0749 18.4586 18.1353L17.9426 18.4563Z" fill="#000000" />
</svg>