<svg width="24px"  height="24px"  viewBox="0 0 25 24" fill="none" xmlns="http://www.w3.org/2000/svg">
<path fill-rule="evenodd" clip-rule="evenodd" d="M3.93437 4.43013C4.88294 3.41237 6.23309 2.84375 7.82466 2.84375H11.2404C11.6546 2.84375 11.9904 3.17954 11.9904 3.59375C11.9904 4.00796 11.6546 4.34375 11.2404 4.34375H7.82466C6.60472 4.34375 5.66754 4.77059 5.03166 5.45284C4.39034 6.14094 4 7.14948 4 8.40286V16.0054C4 17.2597 4.38876 18.2681 5.02879 18.9558C5.66317 19.6373 6.59994 20.0645 7.82466 20.0645H15.8942C17.1195 20.0645 18.0568 19.6373 18.6915 18.9556C19.3318 18.268 19.7207 17.2596 19.7207 16.0054V13.0566C19.7207 12.6424 20.0565 12.3066 20.4707 12.3066C20.885 12.3066 21.2207 12.6424 21.2207 13.0566V16.0054C21.2207 17.5693 20.7319 18.9655 19.7892 19.9779C18.8409 20.9963 17.4899 21.5645 15.8942 21.5645H7.82466C6.2293 21.5645 4.87874 20.9962 3.9308 19.9777C2.98852 18.9654 2.5 17.5692 2.5 16.0054V8.40286C2.5 6.83806 2.99124 5.44204 3.93437 4.43013Z" fill="#000000" />
<path fill-rule="evenodd" clip-rule="evenodd" d="M11.5239 13.418C10.9867 13.418 10.5508 13.8535 10.5508 14.3911V15.124C10.5508 15.6609 10.987 16.0971 11.5239 16.0971C12.0608 16.0971 12.497 15.6609 12.497 15.124V14.3911C12.497 13.8535 12.0611 13.418 11.5239 13.418ZM9.05078 14.3911C9.05078 13.0245 10.1588 11.918 11.5239 11.918C12.889 11.918 13.997 13.0245 13.997 14.3911V15.124C13.997 16.4894 12.8893 17.5971 11.5239 17.5971C10.1585 17.5971 9.05078 16.4894 9.05078 15.124V14.3911Z" fill="#000000" />
<path fill-rule="evenodd" clip-rule="evenodd" d="M7.31139 8.58129C7.63974 8.32878 8.11062 8.39027 8.36312 8.71862C8.49913 8.89548 8.67251 8.97573 8.83697 8.97573C9.00266 8.97573 9.17594 8.89523 9.31176 8.71862C9.56427 8.39027 10.0351 8.32878 10.3635 8.58129C10.6918 8.83379 10.7533 9.30467 10.5008 9.63302C10.1163 10.1331 9.5233 10.4757 8.83697 10.4757C8.1513 10.4757 7.55842 10.1328 7.17406 9.63302C6.92156 9.30467 6.98304 8.83379 7.31139 8.58129Z" fill="#000000" />
<path fill-rule="evenodd" clip-rule="evenodd" d="M12.6844 8.58129C13.0128 8.32878 13.4837 8.39027 13.7362 8.71862C13.8722 8.89548 14.0456 8.97573 14.21 8.97573C14.3757 8.97573 14.549 8.89523 14.6848 8.71862C14.9373 8.39027 15.4082 8.32878 15.7365 8.58129C16.0649 8.83379 16.1264 9.30467 15.8739 9.63302C15.4893 10.1331 14.8964 10.4757 14.21 10.4757C13.5243 10.4757 12.9315 10.1328 12.5471 9.63302C12.2946 9.30467 12.3561 8.83379 12.6844 8.58129Z" fill="#000000" />
<path fill-rule="evenodd" clip-rule="evenodd" d="M17.8027 6.69531C17.8027 6.2811 18.1385 5.94531 18.5527 5.94531H21.2499C21.5466 5.94531 21.8153 6.12018 21.9356 6.3914C22.0558 6.66263 22.0048 6.97922 21.8056 7.19902L20.2449 8.92075H21.2499C21.6641 8.92075 21.9999 9.25654 21.9999 9.67075C21.9999 10.085 21.6641 10.4207 21.2499 10.4207H18.5527C18.2561 10.4207 17.9873 10.2459 17.8671 9.97466C17.7469 9.70344 17.7978 9.38684 17.9971 9.16704L19.5578 7.44531H18.5527C18.1385 7.44531 17.8027 7.10953 17.8027 6.69531Z" fill="#000000" />
<path fill-rule="evenodd" clip-rule="evenodd" d="M14.2852 3.18359C14.2852 2.76938 14.621 2.43359 15.0352 2.43359H16.9708C17.2675 2.43359 17.5363 2.60849 17.6565 2.87973C17.7767 3.15097 17.7257 3.46758 17.5264 3.68737L16.7276 4.56844H16.9708C17.385 4.56844 17.7208 4.90422 17.7208 5.31844C17.7208 5.73265 17.385 6.06844 16.9708 6.06844H15.0352C14.7385 6.06844 14.4697 5.89354 14.3495 5.6223C14.2293 5.35106 14.2803 5.03445 14.4796 4.81466L15.2784 3.93359H15.0352C14.621 3.93359 14.2852 3.59781 14.2852 3.18359Z" fill="#000000" />
</svg>