<svg width="24px"  height="24px"  viewBox="0 0 25 24" fill="none" xmlns="http://www.w3.org/2000/svg">
<path d="M12.25 21.75C10.3216 21.75 8.43657 21.1782 6.83319 20.1068C5.22981 19.0355 3.98014 17.5128 3.24219 15.7312C2.50423 13.9496 2.31114 11.9892 2.68735 10.0979C3.06355 8.20656 3.99215 6.46927 5.35571 5.10571C6.71927 3.74215 8.45655 2.81355 10.3479 2.43735C12.2392 2.06114 14.1996 2.25423 15.9812 2.99218C17.7627 3.73013 19.2855 4.97982 20.3568 6.5832C21.4282 8.18658 22 10.0716 22 12C21.9971 14.585 20.9689 17.0632 19.1411 18.8911C17.3132 20.7189 14.835 21.7471 12.25 21.75ZM12.25 3.75001C10.6183 3.75001 9.02324 4.23386 7.66653 5.14038C6.30983 6.0469 5.25241 7.33538 4.62799 8.84287C4.00357 10.3504 3.84018 12.0092 4.15851 13.6095C4.47683 15.2098 5.2626 16.6799 6.41638 17.8336C7.57016 18.9874 9.04016 19.7732 10.6405 20.0915C12.2408 20.4098 13.8996 20.2464 15.4071 19.622C16.9146 18.9976 18.2031 17.9402 19.1096 16.5835C20.0161 15.2268 20.5 13.6317 20.5 12C20.4976 9.8127 19.6277 7.71567 18.081 6.16901C16.5343 4.62235 14.4373 3.75239 12.25 3.75001Z" fill="#000000" />
<path d="M8.97501 10.0008C8.7165 10.0005 8.46865 9.8977 8.28586 9.71491C8.10307 9.53212 8.00027 9.28429 8 9.02578C7.99974 8.89775 8.02474 8.77093 8.07358 8.65258C8.12242 8.53423 8.19416 8.42669 8.28464 8.33611C8.37512 8.24554 8.4826 8.17371 8.60089 8.12475C8.71919 8.07578 8.84597 8.05065 8.974 8.05078C9.23259 8.05078 9.48058 8.1535 9.66342 8.33635C9.84627 8.5192 9.94901 8.76719 9.94901 9.02578C9.94901 9.28437 9.84627 9.53236 9.66342 9.71521C9.48058 9.89806 9.23259 10.0008 8.974 10.0008H8.97501Z" fill="#000000" />
<path d="M15.475 10.0008C15.2165 10.0005 14.9687 9.8977 14.7859 9.71491C14.6031 9.53212 14.5003 9.28429 14.5 9.02578C14.4997 8.89775 14.5247 8.77093 14.5736 8.65258C14.6224 8.53423 14.6942 8.42669 14.7846 8.33611C14.8751 8.24554 14.9826 8.17371 15.1009 8.12475C15.2192 8.07578 15.346 8.05065 15.474 8.05078C15.7326 8.05078 15.9806 8.1535 16.1634 8.33635C16.3463 8.5192 16.449 8.76719 16.449 9.02578C16.449 9.28437 16.3463 9.53236 16.1634 9.71521C15.9806 9.89806 15.7326 10.0008 15.474 10.0008H15.475Z" fill="#000000" />
<path d="M9.37212 16.0761C9.23213 16.0758 9.09504 16.0363 8.9763 15.9621C8.85756 15.888 8.76189 15.7821 8.70012 15.6565C8.63835 15.5309 8.61291 15.3905 8.62669 15.2512C8.64047 15.1119 8.69294 14.9792 8.77812 14.8681C9.17574 14.3187 9.69795 13.8715 10.3019 13.563C10.9059 13.2546 11.5744 13.0938 12.2526 13.0938C12.9308 13.0938 13.5993 13.2546 14.2033 13.563C14.8073 13.8715 15.3295 14.3187 15.7271 14.8681C15.8453 15.0261 15.8965 15.2244 15.8696 15.4199C15.8426 15.6153 15.7397 15.7923 15.5831 15.9124C15.4266 16.0326 15.229 16.0861 15.0332 16.0616C14.8374 16.037 14.6591 15.9362 14.5371 15.7811C14.2796 15.4141 13.9374 15.1145 13.5396 14.9076C13.1418 14.7008 12.7 14.5928 12.2516 14.5928C11.8032 14.5928 11.3615 14.7008 10.9636 14.9076C10.5658 15.1145 10.2237 15.4141 9.96611 15.7811C9.8965 15.8727 9.80669 15.947 9.70366 15.9982C9.60063 16.0493 9.48716 16.076 9.37212 16.0761Z" fill="#000000" />
</svg>