<svg width="24px"  height="24px"  viewBox="0 0 25 24" fill="none" xmlns="http://www.w3.org/2000/svg">
<path d="M16.466 21.75H8.032C4.723 21.75 2.5 19.429 2.5 15.974V8.026C2.5 4.571 4.723 2.25 8.032 2.25H16.467C19.776 2.25 22 4.571 22 8.026V15.974C22 19.429 19.776 21.75 16.466 21.75ZM8.032 3.75C5.583 3.75 4 5.429 4 8.026V15.974C4 18.574 5.583 20.25 8.032 20.25H16.466C18.917 20.25 20.5 18.571 20.5 15.974V8.026C20.5 5.426 18.917 3.75 16.467 3.75H8.032Z" fill="#000000" />
<path d="M8.975 10.5008C8.71658 10.5003 8.46889 10.3974 8.28615 10.2146C8.10342 10.0319 8.00053 9.78421 8 9.52579C8 9.26737 8.10259 9.01955 8.28522 8.83673C8.46785 8.65391 8.71559 8.55105 8.974 8.55078C9.23259 8.55078 9.48058 8.65352 9.66343 8.83636C9.84628 9.01921 9.949 9.2672 9.949 9.52579C9.949 9.78437 9.84628 10.0324 9.66343 10.2152C9.48058 10.3981 9.23259 10.5008 8.974 10.5008H8.975Z" fill="#000000" />
<path d="M15.475 10.5008C15.2166 10.5003 14.9689 10.3974 14.7862 10.2146C14.6034 10.0319 14.5005 9.78421 14.5 9.52579C14.5 9.26737 14.6026 9.01955 14.7852 8.83673C14.9678 8.65391 15.2156 8.55105 15.474 8.55078C15.7326 8.55078 15.9806 8.65352 16.1634 8.83636C16.3463 9.01921 16.449 9.2672 16.449 9.52579C16.449 9.78437 16.3463 10.0324 16.1634 10.2152C15.9806 10.3981 15.7326 10.5008 15.474 10.5008H15.475Z" fill="#000000" />
<path d="M9.29228 16.1652C9.15231 16.1651 9.01517 16.1258 8.89637 16.0518C8.77757 15.9778 8.68185 15.872 8.62004 15.7464C8.55824 15.6208 8.53281 15.4804 8.54664 15.3412C8.56046 15.2019 8.61299 15.0692 8.69828 14.9583C9.10492 14.3967 9.63891 13.9394 10.2564 13.6242C10.874 13.3089 11.5574 13.1445 12.2508 13.1445C12.9441 13.1445 13.6276 13.3089 14.2451 13.6242C14.8627 13.9394 15.3966 14.3967 15.8033 14.9583C15.8656 15.0361 15.9118 15.1256 15.9391 15.2215C15.9665 15.3175 15.9744 15.4179 15.9624 15.5169C15.9505 15.6159 15.9189 15.7115 15.8695 15.7982C15.8202 15.8849 15.754 15.9608 15.6749 16.0216C15.5959 16.0824 15.5054 16.1268 15.409 16.1523C15.3125 16.1777 15.212 16.1836 15.1132 16.1697C15.0145 16.1558 14.9195 16.1223 14.8338 16.0712C14.7481 16.0202 14.6735 15.9525 14.6143 15.8722C14.3478 15.493 13.994 15.1835 13.5827 14.9698C13.1714 14.7561 12.7148 14.6446 12.2513 14.6446C11.7878 14.6446 11.3311 14.7561 10.9198 14.9698C10.5086 15.1835 10.1547 15.493 9.88828 15.8722C9.81811 15.9635 9.72784 16.0375 9.62448 16.0883C9.52113 16.1391 9.40746 16.1654 9.29228 16.1652Z" fill="#000000" />
</svg>