<svg width="24px"  height="24px"  viewBox="0 0 25 24" fill="none" xmlns="http://www.w3.org/2000/svg">
<path fill-rule="evenodd" clip-rule="evenodd" d="M3.9902 3.89737C4.97468 2.84117 6.37669 2.25 8.03216 2.25H16.4669C18.1262 2.25 19.5288 2.84084 20.5129 3.89765C21.4913 4.94841 22 6.39889 22 8.02638V15.9736C22 17.6011 21.4913 19.0516 20.5127 20.1024C19.5285 21.1592 18.1256 21.75 16.4659 21.75H8.03216C6.3728 21.75 4.97038 21.1591 3.98657 20.1023C3.00842 19.0515 2.5 17.601 2.5 15.9736V8.02638C2.5 6.39806 3.01117 4.94771 3.9902 3.89737ZM5.08745 4.92012C4.41024 5.64666 4 6.70951 4 8.02638V15.9736C4 17.2914 4.40861 18.3541 5.08451 19.0802C5.75475 19.8003 6.74341 20.25 8.03216 20.25H16.4659C17.7552 20.25 18.7444 19.8002 19.415 19.0801C20.0912 18.354 20.5 17.2913 20.5 15.9736V8.02638C20.5 6.70868 20.0912 5.64597 19.4151 4.91984C18.7446 4.19975 17.7556 3.75 16.4669 3.75H8.03216C6.74828 3.75 5.75921 4.19943 5.08745 4.92012Z" fill="#000000" />
<path fill-rule="evenodd" clip-rule="evenodd" d="M13.4852 8.57666C13.8139 8.32467 14.2847 8.38691 14.5367 8.71566C14.6833 8.9069 14.8737 8.99694 15.0584 8.99694C15.2431 8.99694 15.4336 8.9069 15.5801 8.71566C15.8321 8.38691 16.3029 8.32467 16.6316 8.57666C16.9604 8.82864 17.0226 9.29942 16.7706 9.62817C16.3743 10.1453 15.763 10.4969 15.0584 10.4969C14.3538 10.4969 13.7425 10.1453 13.3462 9.62817C13.0942 9.29942 13.1564 8.82864 13.4852 8.57666Z" fill="#000000" />
<path fill-rule="evenodd" clip-rule="evenodd" d="M7.868 8.57666C8.19675 8.32467 8.66753 8.38691 8.91951 8.71566C9.0661 8.9069 9.25656 8.99694 9.44123 8.99694C9.6259 8.99694 9.81636 8.9069 9.96295 8.71566C10.2149 8.38691 10.6857 8.32467 11.0145 8.57666C11.3432 8.82864 11.4054 9.29942 11.1535 9.62817C10.7571 10.1453 10.1459 10.4969 9.44123 10.4969C8.7366 10.4969 8.12534 10.1453 7.729 9.62817C7.47702 9.29942 7.53925 8.82864 7.868 8.57666Z" fill="#000000" />
<path fill-rule="evenodd" clip-rule="evenodd" d="M8.60547 14.9219C8.60547 14.5077 8.94126 14.1719 9.35547 14.1719H15.2711C15.6854 14.1719 16.0211 14.5077 16.0211 14.9219C16.0211 15.3361 15.6854 15.6719 15.2711 15.6719H9.35547C8.94126 15.6719 8.60547 15.3361 8.60547 14.9219Z" fill="#000000" />
</svg>