<svg width="24px"  height="24px"  viewBox="0 0 25 24" fill="none" xmlns="http://www.w3.org/2000/svg">
<path fill-rule="evenodd" clip-rule="evenodd" d="M12.25 3.75C7.69329 3.75 4 7.44329 4 12C4 16.5558 7.69335 20.25 12.25 20.25C16.8067 20.25 20.5 16.5558 20.5 12C20.5 7.44329 16.8067 3.75 12.25 3.75ZM2.5 12C2.5 6.61487 6.86487 2.25 12.25 2.25C17.6351 2.25 22 6.61487 22 12C22 17.3841 17.6352 21.75 12.25 21.75C6.86481 21.75 2.5 17.3841 2.5 12Z" fill="#000000" />
<path fill-rule="evenodd" clip-rule="evenodd" d="M12.2502 14.5938C11.3642 14.5938 10.5418 15.0319 9.96479 15.7827C9.71236 16.1111 9.24149 16.1727 8.91309 15.9202C8.58468 15.6678 8.52309 15.1969 8.77552 14.8685C9.6015 13.794 10.8438 13.0938 12.2502 13.0938C13.6566 13.0938 14.8988 13.794 15.7248 14.8685C15.9772 15.1969 15.9156 15.6678 15.5872 15.9202C15.2588 16.1727 14.788 16.1111 14.5355 15.7827C13.9585 15.0319 13.1361 14.5938 12.2502 14.5938Z" fill="#000000" />
<path fill-rule="evenodd" clip-rule="evenodd" d="M7.90929 9.65141C8.23774 9.39904 8.7086 9.46072 8.96097 9.78917C9.10097 9.97138 9.28107 10.0556 9.45403 10.0556C9.627 10.0556 9.8071 9.97138 9.9471 9.78917C10.1995 9.46072 10.6703 9.39904 10.9988 9.65141C11.3272 9.90378 11.3889 10.3746 11.1365 10.7031C10.7472 11.2097 10.147 11.5556 9.45403 11.5556C8.76105 11.5556 8.16083 11.2097 7.77153 10.7031C7.51916 10.3746 7.58084 9.90378 7.90929 9.65141Z" fill="#000000" />
<path fill-rule="evenodd" clip-rule="evenodd" d="M13.379 9.65141C13.7075 9.39904 14.1783 9.46072 14.4307 9.78917C14.5707 9.97138 14.7508 10.0556 14.9238 10.0556C15.0967 10.0556 15.2768 9.97138 15.4168 9.78917C15.6692 9.46072 16.14 9.39904 16.4685 9.65141C16.797 9.90378 16.8586 10.3746 16.6063 10.7031C16.217 11.2097 15.6167 11.5556 14.9238 11.5556C14.2308 11.5556 13.6306 11.2097 13.2413 10.7031C12.9889 10.3746 13.0506 9.90378 13.379 9.65141Z" fill="#000000" />
</svg>