<svg width="24px"  height="24px"  viewBox="0 0 25 24" fill="none" xmlns="http://www.w3.org/2000/svg">
<path d="M12.1377 21.75C9.55183 21.75 7.07189 20.7228 5.24341 18.8943C3.41493 17.0658 2.3877 14.5859 2.3877 12C2.3877 9.41414 3.41493 6.93419 5.24341 5.10571C7.07189 3.27723 9.55183 2.25 12.1377 2.25C12.3366 2.25 12.5274 2.32902 12.668 2.46967C12.8087 2.61032 12.8877 2.80109 12.8877 3C12.8877 3.19891 12.8087 3.38968 12.668 3.53033C12.5274 3.67098 12.3366 3.75 12.1377 3.75C10.506 3.75 8.91095 4.23385 7.55424 5.14038C6.19754 6.0469 5.14011 7.33537 4.51569 8.84286C3.89126 10.3504 3.72789 12.0092 4.04622 13.6095C4.36455 15.2098 5.15028 16.6798 6.30406 17.8336C7.45785 18.9874 8.92786 19.7731 10.5282 20.0915C12.1285 20.4098 13.7873 20.2464 15.2948 19.622C16.8023 18.9976 18.0908 17.9402 18.9973 16.5835C19.9038 15.2267 20.3877 13.6317 20.3877 12C20.3877 11.8011 20.4667 11.6103 20.6074 11.4697C20.748 11.329 20.9388 11.25 21.1377 11.25C21.3366 11.25 21.5274 11.329 21.668 11.4697C21.8087 11.6103 21.8877 11.8011 21.8877 12C21.8848 14.585 20.8566 17.0632 19.0288 18.8911C17.2009 20.7189 14.7227 21.7471 12.1377 21.75Z" fill="#000000" />
<path d="M9.16348 11.0008C8.90498 11.0005 8.65714 10.8977 8.47435 10.7149C8.29156 10.5321 8.18874 10.2843 8.18848 10.0258C8.18822 9.89775 8.21323 9.77093 8.26207 9.65259C8.31091 9.53424 8.38263 9.4267 8.47312 9.33612C8.5636 9.24554 8.67107 9.17371 8.78937 9.12475C8.90767 9.07579 9.03445 9.05065 9.16248 9.05078C9.29052 9.05078 9.41731 9.076 9.5356 9.125C9.65389 9.174 9.76138 9.24582 9.85192 9.33635C9.94245 9.42689 10.0143 9.53437 10.0633 9.65267C10.1123 9.77096 10.1375 9.89774 10.1375 10.0258C10.1375 10.1538 10.1123 10.2806 10.0633 10.3989C10.0143 10.5172 9.94245 10.6247 9.85192 10.7152C9.76138 10.8057 9.65389 10.8776 9.5356 10.9266C9.41731 10.9756 9.29052 11.0008 9.16248 11.0008H9.16348Z" fill="#000000" />
<path d="M15.6635 11.0008C15.405 11.0005 15.1571 10.8977 14.9744 10.7149C14.7916 10.5321 14.6887 10.2843 14.6885 10.0258C14.6882 9.89775 14.7132 9.77093 14.7621 9.65259C14.8109 9.53424 14.8826 9.4267 14.9731 9.33612C15.0636 9.24554 15.1711 9.17371 15.2894 9.12475C15.4077 9.07579 15.5344 9.05065 15.6625 9.05078C15.7905 9.05078 15.9173 9.076 16.0356 9.125C16.1539 9.174 16.2614 9.24582 16.3519 9.33635C16.4425 9.42689 16.5143 9.53437 16.5633 9.65267C16.6123 9.77096 16.6375 9.89774 16.6375 10.0258C16.6375 10.1538 16.6123 10.2806 16.5633 10.3989C16.5143 10.5172 16.4425 10.6247 16.3519 10.7152C16.2614 10.8057 16.1539 10.8776 16.0356 10.9266C15.9173 10.9756 15.7905 11.0008 15.6625 11.0008H15.6635Z" fill="#000000" />
<path d="M12.1371 16.5213C11.4602 16.5137 10.7942 16.3495 10.1913 16.0415C9.58844 15.7336 9.06503 15.2903 8.66208 14.7463C8.54087 14.5885 8.48733 14.389 8.51321 14.1917C8.53909 13.9944 8.64227 13.8155 8.80008 13.6943C8.95788 13.5731 9.15737 13.5196 9.35466 13.5454C9.55195 13.5713 9.73088 13.6745 9.85208 13.8323C10.1094 14.1995 10.4514 14.4994 10.8491 14.7064C11.2469 14.9133 11.6887 15.0214 12.1371 15.0214C12.5855 15.0214 13.0273 14.9133 13.425 14.7064C13.8228 14.4994 14.1648 14.1995 14.4221 13.8323C14.5433 13.6745 14.7222 13.5713 14.9195 13.5454C15.1168 13.5196 15.3163 13.5731 15.4741 13.6943C15.6319 13.8155 15.7351 13.9944 15.761 14.1917C15.7868 14.389 15.7333 14.5885 15.6121 14.7463C15.2091 15.2903 14.6857 15.7336 14.0829 16.0415C13.48 16.3495 12.814 16.5137 12.1371 16.5213Z" fill="#000000" />
<path d="M19.2278 8.35022C19.0289 8.35022 18.8381 8.2712 18.6974 8.13055C18.5568 7.9899 18.4778 7.79913 18.4778 7.60022V6.21022H17.0928C16.8939 6.21022 16.7031 6.1312 16.5624 5.99055C16.4218 5.8499 16.3428 5.65913 16.3428 5.46022C16.3428 5.26131 16.4218 5.07054 16.5624 4.92989C16.7031 4.78924 16.8939 4.71022 17.0928 4.71022H18.4778V3.32422C18.4778 3.12531 18.5568 2.93454 18.6974 2.79389C18.8381 2.65324 19.0289 2.57422 19.2278 2.57422C19.4267 2.57422 19.6175 2.65324 19.7581 2.79389C19.8988 2.93454 19.9778 3.12531 19.9778 3.32422V4.71022H21.3618C21.5607 4.71022 21.7515 4.78924 21.8921 4.92989C22.0328 5.07054 22.1118 5.26131 22.1118 5.46022C22.1118 5.65913 22.0328 5.8499 21.8921 5.99055C21.7515 6.1312 21.5607 6.21022 21.3618 6.21022H19.9778V7.60022C19.9778 7.79913 19.8988 7.9899 19.7581 8.13055C19.6175 8.2712 19.4267 8.35022 19.2278 8.35022Z" fill="#000000" />
</svg>