<svg width="24px"  height="24px"  viewBox="0 0 25 24" fill="none" xmlns="http://www.w3.org/2000/svg">
<path d="M12.25 21.75C10.3216 21.75 8.43658 21.1782 6.8332 20.1068C5.22982 19.0355 3.98013 17.5128 3.24218 15.7312C2.50423 13.9496 2.31114 11.9892 2.68735 10.0979C3.06355 8.20656 3.99215 6.46928 5.35571 5.10572C6.71927 3.74215 8.45656 2.81356 10.3479 2.43735C12.2392 2.06114 14.1996 2.25422 15.9812 2.99217C17.7628 3.73013 19.2855 4.97981 20.3568 6.58319C21.4282 8.18657 22 10.0716 22 12C21.9971 14.585 20.9689 17.0632 19.1411 18.8911C17.3132 20.7189 14.835 21.7471 12.25 21.75ZM12.25 3.75C10.6183 3.75 9.02326 4.23386 7.66655 5.14038C6.30984 6.0469 5.25242 7.33538 4.628 8.84287C4.00358 10.3504 3.8402 12.0092 4.15853 13.6095C4.47686 15.2098 5.26259 16.6799 6.41637 17.8336C7.57016 18.9874 9.04017 19.7731 10.6405 20.0915C12.2409 20.4098 13.8997 20.2464 15.4071 19.622C16.9146 18.9976 18.2031 17.9402 19.1096 16.5835C20.0162 15.2267 20.5 13.6317 20.5 12C20.4976 9.8127 19.6277 7.71567 18.081 6.16901C16.5343 4.62235 14.4373 3.75238 12.25 3.75Z" fill="#000000" />
<path d="M12.2494 16.5213C11.5725 16.5136 10.9065 16.3494 10.3037 16.0414C9.70083 15.7335 9.17741 15.2902 8.7744 14.7463C8.65319 14.5885 8.59964 14.389 8.62552 14.1917C8.6514 13.9945 8.75459 13.8155 8.9124 13.6943C9.0702 13.5731 9.26969 13.5196 9.46698 13.5454C9.66427 13.5713 9.84319 13.6745 9.96439 13.8323C10.2217 14.1996 10.5637 14.4994 10.9615 14.7064C11.3592 14.9133 11.801 15.0214 12.2494 15.0214C12.6978 15.0214 13.1396 14.9133 13.5373 14.7064C13.9351 14.4994 14.2771 14.1996 14.5344 13.8323C14.5944 13.7542 14.6692 13.6886 14.7546 13.6394C14.8399 13.5902 14.9341 13.5583 15.0318 13.5454C15.1295 13.5326 15.2288 13.5392 15.3239 13.5647C15.4191 13.5903 15.5083 13.6343 15.5864 13.6943C15.6645 13.7543 15.7301 13.8292 15.7793 13.9145C15.8285 13.9998 15.8605 14.0941 15.8733 14.1917C15.8861 14.2894 15.8795 14.3887 15.854 14.4838C15.8284 14.579 15.7844 14.6682 15.7244 14.7463C15.3214 15.2903 14.798 15.7336 14.1952 16.0415C13.5923 16.3495 12.9263 16.5137 12.2494 16.5213Z" fill="#000000" />
<path d="M8.975 10.0008C8.71658 10.0003 8.46889 9.89736 8.28616 9.71463C8.10342 9.5319 8.00053 9.2842 8 9.02577C7.99974 8.89774 8.02475 8.77093 8.07359 8.65259C8.12243 8.53424 8.19415 8.4267 8.28463 8.33612C8.37512 8.24554 8.48258 8.17371 8.60088 8.12474C8.71917 8.07578 8.84597 8.05065 8.974 8.05078C9.10204 8.05078 9.22882 8.076 9.34712 8.125C9.46541 8.174 9.57289 8.24581 9.66343 8.33635C9.75397 8.42689 9.82579 8.53437 9.87479 8.65266C9.92379 8.77096 9.949 8.89773 9.949 9.02577C9.949 9.15381 9.92379 9.2806 9.87479 9.3989C9.82579 9.51719 9.75397 9.62467 9.66343 9.71521C9.57289 9.80575 9.46541 9.87756 9.34712 9.92656C9.22882 9.97556 9.10204 10.0008 8.974 10.0008H8.975Z" fill="#000000" />
<path d="M15.475 10.0008C15.2166 10.0003 14.9689 9.89736 14.7862 9.71463C14.6034 9.5319 14.5005 9.2842 14.5 9.02577C14.4997 8.89774 14.5247 8.77093 14.5736 8.65259C14.6224 8.53424 14.6941 8.4267 14.7846 8.33612C14.8751 8.24554 14.9826 8.17371 15.1009 8.12474C15.2192 8.07578 15.346 8.05065 15.474 8.05078C15.602 8.05078 15.7288 8.076 15.8471 8.125C15.9654 8.174 16.0729 8.24581 16.1634 8.33635C16.254 8.42689 16.3258 8.53437 16.3748 8.65266C16.4238 8.77096 16.449 8.89773 16.449 9.02577C16.449 9.15381 16.4238 9.2806 16.3748 9.3989C16.3258 9.51719 16.254 9.62467 16.1634 9.71521C16.0729 9.80575 15.9654 9.87756 15.8471 9.92656C15.7288 9.97556 15.602 10.0008 15.474 10.0008H15.475Z" fill="#000000" />
</svg>