<svg width="24px"  height="24px"  viewBox="0 0 25 24" fill="none" xmlns="http://www.w3.org/2000/svg">
<path fill-rule="evenodd" clip-rule="evenodd" d="M12.2643 3.92188C7.80273 3.92188 4.18652 7.53808 4.18652 11.9997C4.18652 16.4604 7.80278 20.0775 12.2643 20.0775C16.7259 20.0775 20.3421 16.4604 20.3421 11.9997C20.3421 7.53808 16.7259 3.92188 12.2643 3.92188ZM2.68652 11.9997C2.68652 6.70965 6.9743 2.42188 12.2643 2.42188C17.5543 2.42188 21.8421 6.70965 21.8421 11.9997C21.8421 17.2887 17.5544 21.5775 12.2643 21.5775C6.97425 21.5775 2.68652 17.2887 2.68652 11.9997Z" fill="#000000" />
<path fill-rule="evenodd" clip-rule="evenodd" d="M13.8065 15.8007C13.0994 15.7274 12.4021 16.0082 11.8729 16.5675C11.5883 16.8684 11.1136 16.8815 10.8127 16.5968C10.5118 16.3122 10.4986 15.8375 10.7833 15.5366C11.5941 14.6796 12.7368 14.1817 13.9613 14.3087C14.3733 14.3515 14.6726 14.7201 14.6299 15.1321C14.5871 15.5441 14.2185 15.8435 13.8065 15.8007Z" fill="#000000" />
<path fill-rule="evenodd" clip-rule="evenodd" d="M12.6738 9.96295C12.6738 8.39111 13.9477 7.11719 15.5196 7.11719C17.0914 7.11719 18.3654 8.39111 18.3654 9.96295C18.3654 11.5348 17.0914 12.8087 15.5196 12.8087C13.9477 12.8087 12.6738 11.5348 12.6738 9.96295ZM15.5196 8.61719C14.7762 8.61719 14.1738 9.21953 14.1738 9.96295C14.1738 10.7064 14.7762 11.3087 15.5196 11.3087C16.263 11.3087 16.8654 10.7064 16.8654 9.96295C16.8654 9.21953 16.263 8.61719 15.5196 8.61719Z" fill="#000000" />
<path fill-rule="evenodd" clip-rule="evenodd" d="M6.1875 9.96323C6.1875 8.39183 7.46029 7.11719 9.03258 7.11719C10.6044 7.11719 11.8783 8.39111 11.8783 9.96295C11.8783 11.5348 10.6044 12.8087 9.03258 12.8087C7.46054 12.8087 6.1875 11.5349 6.1875 9.96323ZM9.03258 8.61719C8.28961 8.61719 7.6875 9.21936 7.6875 9.96323C7.6875 10.7068 8.28935 11.3087 9.03258 11.3087C9.776 11.3087 10.3783 10.7064 10.3783 9.96295C10.3783 9.21953 9.776 8.61719 9.03258 8.61719Z" fill="#000000" />
<path fill-rule="evenodd" clip-rule="evenodd" d="M2.5 9.96484C2.5 9.55063 2.83579 9.21484 3.25 9.21484H6.93763C7.35185 9.21484 7.68763 9.55063 7.68763 9.96484C7.68763 10.3791 7.35185 10.7148 6.93763 10.7148H3.25C2.83579 10.7148 2.5 10.3791 2.5 9.96484ZM16.8601 9.96484C16.8601 9.55063 17.1959 9.21484 17.6101 9.21484H21.25C21.6642 9.21484 22 9.55063 22 9.96484C22 10.3791 21.6642 10.7148 21.25 10.7148H17.6101C17.1959 10.7148 16.8601 10.3791 16.8601 9.96484Z" fill="#000000" />
<path fill-rule="evenodd" clip-rule="evenodd" d="M10.377 9.96484C10.377 9.55063 10.7127 9.21484 11.127 9.21484H13.4212C13.8354 9.21484 14.1712 9.55063 14.1712 9.96484C14.1712 10.3791 13.8354 10.7148 13.4212 10.7148H11.127C10.7127 10.7148 10.377 10.3791 10.377 9.96484Z" fill="#000000" />
</svg>