<svg width="24px"  height="24px"  viewBox="0 0 25 24" fill="none" xmlns="http://www.w3.org/2000/svg">
<path fill-rule="evenodd" clip-rule="evenodd" d="M4.32734 4.20717C5.27809 3.18716 6.63141 2.61719 8.22701 2.61719H16.3181C17.9174 2.61719 19.2713 3.18684 20.2217 4.20745C21.1664 5.22202 21.6564 6.62131 21.6564 8.18882V15.8123C21.6564 17.3798 21.1664 18.7792 20.2215 19.7937C19.271 20.8144 17.9169 21.384 16.3172 21.384H8.22701C6.6277 21.384 5.27397 20.8143 4.32386 19.7936C3.37939 18.779 2.88965 17.3797 2.88965 15.8123V8.18882C2.88965 6.62048 3.38205 5.22133 4.32734 4.20717ZM5.4246 5.22992C4.78112 5.92028 4.38965 6.93194 4.38965 8.18882V15.8123C4.38965 17.0702 4.77958 18.0817 5.42179 18.7716C6.05835 19.4554 6.99831 19.884 8.22701 19.884H16.3172C17.5465 19.884 18.4869 19.4554 19.1238 18.7715C19.7663 18.0815 20.1564 17.07 20.1564 15.8123V8.18882C20.1564 6.9311 19.7663 5.91958 19.1239 5.22964C18.4871 4.54574 17.5468 4.11719 16.3181 4.11719H8.22701C7.00299 4.11719 6.06263 4.54542 5.4246 5.22992Z" fill="#000000" />
<path fill-rule="evenodd" clip-rule="evenodd" d="M7.64588 9.00391L7.93149 11.0366H10.1332L10.3854 9.00391H7.64588ZM6.15517 9.17485C6.03105 8.29075 6.71732 7.50391 7.60815 7.50391H10.4231C11.3055 7.50391 11.9873 8.27622 11.8786 9.15181L11.6184 11.2484C11.6183 11.2487 11.6184 11.2481 11.6184 11.2484C11.5281 11.9844 10.9029 12.5366 10.1627 12.5366H7.90309C7.17114 12.5366 6.55322 11.9977 6.45032 11.2755L6.15517 9.17485Z" fill="#000000" />
<path fill-rule="evenodd" clip-rule="evenodd" d="M14.1586 9.00391L14.4442 11.0366H16.6459L16.8981 9.00391H14.1586ZM12.6679 9.17485C12.5437 8.29075 13.23 7.50391 14.1208 7.50391H16.9358C17.8181 7.50391 18.5 8.27622 18.3913 9.15181L18.1311 11.2484C18.131 11.2487 18.1311 11.2481 18.1311 11.2484C18.0408 11.9844 17.4155 12.5366 16.6754 12.5366H14.4158C13.6838 12.5366 13.0659 11.9977 12.963 11.2755L12.6679 9.17485Z" fill="#000000" />
<path fill-rule="evenodd" clip-rule="evenodd" d="M8.97762 14.46C9.30607 14.2076 9.77692 14.2693 10.0293 14.5977C10.5954 15.3345 11.4028 15.7645 12.272 15.7645C12.9217 15.7645 13.5329 15.5248 14.0371 15.1C14.3539 14.8331 14.8271 14.8735 15.0939 15.1903C15.3608 15.5071 15.3204 15.9802 15.0036 16.2471C14.2516 16.8807 13.304 17.2645 12.272 17.2645C10.8824 17.2645 9.65511 16.5726 8.83991 15.5117C8.58752 15.1833 8.64918 14.7124 8.97762 14.46Z" fill="#000000" />
<path fill-rule="evenodd" clip-rule="evenodd" d="M10.2734 9.95312C10.2734 9.53891 10.6092 9.20312 11.0234 9.20312H13.5435C13.9577 9.20312 14.2935 9.53891 14.2935 9.95312C14.2935 10.3673 13.9577 10.7031 13.5435 10.7031H11.0234C10.6092 10.7031 10.2734 10.3673 10.2734 9.95312Z" fill="#000000" />
<path fill-rule="evenodd" clip-rule="evenodd" d="M2.5 9.95312C2.5 9.53891 2.83579 9.20312 3.25 9.20312H7.01882C7.43304 9.20312 7.76882 9.53891 7.76882 9.95312C7.76882 10.3673 7.43304 10.7031 7.01882 10.7031H3.25C2.83579 10.7031 2.5 10.3673 2.5 9.95312ZM16.7881 9.95312C16.7881 9.53891 17.1239 9.20312 17.5381 9.20312H21.25C21.6642 9.20312 22 9.53891 22 9.95312C22 10.3673 21.6642 10.7031 21.25 10.7031H17.5381C17.1239 10.7031 16.7881 10.3673 16.7881 9.95312Z" fill="#000000" />
</svg>