<svg width="24px"  height="24px"  viewBox="0 0 25 24" fill="none" xmlns="http://www.w3.org/2000/svg">
<path fill-rule="evenodd" clip-rule="evenodd" d="M15.3108 10.3828C15.3108 9.9686 15.6466 9.63281 16.0608 9.63281C19.3384 9.63281 21.9996 12.2959 21.9996 15.5813C21.9996 18.858 19.3375 21.5201 16.0608 21.5201C12.7754 21.5201 10.1123 18.8589 10.1123 15.5813C10.1123 15.1671 10.4481 14.8313 10.8623 14.8313C11.2765 14.8313 11.6123 15.1671 11.6123 15.5813C11.6123 18.0287 13.602 20.0201 16.0608 20.0201C18.5091 20.0201 20.4996 18.0296 20.4996 15.5813C20.4996 13.1225 18.5082 11.1328 16.0608 11.1328C15.6466 11.1328 15.3108 10.797 15.3108 10.3828Z" fill="#000000" />
<path fill-rule="evenodd" clip-rule="evenodd" d="M8.44659 3.98047C5.99056 3.98047 4 5.97103 4 8.42706C4 10.8831 5.99056 12.8736 8.44659 12.8736C10.9026 12.8736 12.8932 10.8831 12.8932 8.42706C12.8932 5.97103 10.9026 3.98047 8.44659 3.98047ZM2.5 8.42706C2.5 5.14261 5.16214 2.48047 8.44659 2.48047C11.731 2.48047 14.3932 5.14261 14.3932 8.42706C14.3932 11.7115 11.731 14.3736 8.44659 14.3736C5.16214 14.3736 2.5 11.7115 2.5 8.42706Z" fill="#000000" />
<path fill-rule="evenodd" clip-rule="evenodd" d="M7.00684 6.05469C7.42105 6.05469 7.75684 6.39047 7.75684 6.80469V6.86307C7.75684 7.27728 7.42105 7.61307 7.00684 7.61307C6.59262 7.61307 6.25684 7.27728 6.25684 6.86307V6.80469C6.25684 6.39047 6.59262 6.05469 7.00684 6.05469ZM9.94092 6.05469C10.3551 6.05469 10.6909 6.39047 10.6909 6.80469V6.86307C10.6909 7.27728 10.3551 7.61307 9.94092 7.61307C9.52671 7.61307 9.19092 7.27728 9.19092 6.86307V6.80469C9.19092 6.39047 9.52671 6.05469 9.94092 6.05469Z" fill="#000000" />
<path fill-rule="evenodd" clip-rule="evenodd" d="M6.55339 8.94445C6.89045 8.70369 7.35886 8.78176 7.59962 9.11882C7.77003 9.3574 8.07508 9.5296 8.44779 9.5296C8.82049 9.5296 9.12554 9.3574 9.29595 9.11882C9.53671 8.78176 10.0051 8.70369 10.3422 8.94445C10.6792 9.1852 10.7573 9.65361 10.5166 9.99067C10.0545 10.6375 9.28739 11.0296 8.44779 11.0296C7.60818 11.0296 6.84103 10.6375 6.37902 9.99067C6.13826 9.65361 6.21633 9.1852 6.55339 8.94445Z" fill="#000000" />
<path fill-rule="evenodd" clip-rule="evenodd" d="M14.6182 13.2109C15.0324 13.2109 15.3682 13.5467 15.3682 13.9609V14.0086C15.3682 14.4228 15.0324 14.7586 14.6182 14.7586C14.204 14.7586 13.8682 14.4228 13.8682 14.0086V13.9609C13.8682 13.5467 14.204 13.2109 14.6182 13.2109ZM17.5523 13.2143C17.9665 13.2143 18.3023 13.5501 18.3023 13.9643V14.0052C18.3023 14.4194 17.9665 14.7552 17.5523 14.7552C17.138 14.7552 16.8023 14.4194 16.8023 14.0052V13.9643C16.8023 13.5501 17.138 13.2143 17.5523 13.2143Z" fill="#000000" />
<path fill-rule="evenodd" clip-rule="evenodd" d="M16.0591 17.4492C15.6864 17.4492 15.3814 17.6214 15.2109 17.86C14.9702 18.1971 14.5018 18.2751 14.1647 18.0344C13.8277 17.7936 13.7496 17.3252 13.9903 16.9881C14.4524 16.3413 15.2195 15.9492 16.0591 15.9492C16.8987 15.9492 17.6659 16.3413 18.1279 16.9881C18.3686 17.3252 18.2906 17.7936 17.9535 18.0344C17.6165 18.2751 17.148 18.1971 16.9073 17.86C16.7369 17.6214 16.4318 17.4492 16.0591 17.4492Z" fill="#000000" />
<path fill-rule="evenodd" clip-rule="evenodd" d="M5.07617 15.5234C5.49039 15.5234 5.82617 15.8592 5.82617 16.2734C5.82617 17.4714 6.79707 18.4423 7.99506 18.4423C8.40927 18.4423 8.74506 18.7781 8.74506 19.1923C8.74506 19.6065 8.40927 19.9423 7.99506 19.9423C5.96865 19.9423 4.32617 18.2998 4.32617 16.2734C4.32617 15.8592 4.66196 15.5234 5.07617 15.5234Z" fill="#000000" />
<path fill-rule="evenodd" clip-rule="evenodd" d="M15.7568 4.80469C15.7568 4.39047 16.0926 4.05469 16.5068 4.05469C18.5332 4.05469 20.1757 5.69716 20.1757 7.72357C20.1757 8.13779 19.8399 8.47357 19.4257 8.47357C19.0115 8.47357 18.6757 8.13779 18.6757 7.72357C18.6757 6.52559 17.7048 5.55469 16.5068 5.55469C16.0926 5.55469 15.7568 5.2189 15.7568 4.80469Z" fill="#000000" />
</svg>