<svg width="24px"  height="24px"  viewBox="0 0 25 24" fill="none" xmlns="http://www.w3.org/2000/svg">
<path fill-rule="evenodd" clip-rule="evenodd" d="M3.9902 3.89737C4.97468 2.84117 6.37669 2.25 8.03216 2.25H16.4669C18.1262 2.25 19.5288 2.84084 20.5129 3.89765C21.4913 4.94841 22 6.39889 22 8.02638V15.9736C22 17.6011 21.4913 19.0516 20.5127 20.1024C19.5285 21.1592 18.1256 21.75 16.4659 21.75H8.03216C6.3728 21.75 4.97038 21.1591 3.98657 20.1023C3.00842 19.0515 2.5 17.601 2.5 15.9736V8.02638C2.5 6.39806 3.01117 4.94771 3.9902 3.89737ZM5.08745 4.92012C4.41024 5.64666 4 6.70951 4 8.02638V15.9736C4 17.2914 4.40861 18.3541 5.08451 19.0802C5.75475 19.8003 6.74341 20.25 8.03216 20.25H16.4659C17.7552 20.25 18.7444 19.8002 19.415 19.0801C20.0912 18.354 20.5 17.2913 20.5 15.9736V8.02638C20.5 6.70868 20.0912 5.64597 19.4151 4.91984C18.7446 4.19975 17.7556 3.75 16.4669 3.75H8.03216C6.74828 3.75 5.75921 4.19943 5.08745 4.92012Z" fill="#000000" />
<path fill-rule="evenodd" clip-rule="evenodd" d="M8.61328 16.3626C8.61328 14.2864 10.1906 12.5078 12.2501 12.5078C14.3093 12.5078 15.8879 14.2861 15.8879 16.3626C15.8879 16.7768 15.5521 17.1126 15.1379 17.1126H9.36328C8.94907 17.1126 8.61328 16.7768 8.61328 16.3626ZM10.2227 15.6126H14.2784C13.9881 14.6558 13.1588 14.0078 12.2501 14.0078C11.3416 14.0078 10.5127 14.6556 10.2227 15.6126Z" fill="#000000" />
<path fill-rule="evenodd" clip-rule="evenodd" d="M7.08091 8.08853C7.29959 7.73674 7.76204 7.62884 8.11383 7.84751L9.91383 8.96643C10.1336 9.10308 10.2675 9.3434 10.2679 9.60223C10.2683 9.86105 10.1352 10.1018 9.91581 10.2391L8.11581 11.3658C7.7647 11.5856 7.30192 11.4791 7.08215 11.128C6.86238 10.7769 6.96884 10.3141 7.31994 10.0944L8.10079 9.6056L7.32193 9.12144C6.97014 8.90276 6.86223 8.44031 7.08091 8.08853Z" fill="#000000" />
<path fill-rule="evenodd" clip-rule="evenodd" d="M17.4204 8.08853C17.639 8.44031 17.5311 8.90276 17.1793 9.12144L16.4005 9.6056L17.1813 10.0944C17.5324 10.3141 17.6389 10.7769 17.4191 11.128C17.1994 11.4791 16.7366 11.5856 16.3855 11.3658L14.5855 10.2391C14.3661 10.1018 14.233 9.86105 14.2334 9.60223C14.2338 9.3434 14.3676 9.10308 14.5874 8.96643L16.3874 7.84751C16.7392 7.62884 17.2017 7.73674 17.4204 8.08853Z" fill="#000000" />
</svg>