<svg width="24px"  height="24px"  viewBox="0 0 25 24" fill="none" xmlns="http://www.w3.org/2000/svg">
<path d="M16.467 21.75H8.03201C4.72401 21.75 2.5 19.429 2.5 15.974V8.026C2.5 4.571 4.72401 2.25 8.03201 2.25H16.466C19.776 2.25 22 4.571 22 8.026V15.974C22 19.429 19.776 21.75 16.467 21.75ZM8.03201 3.75C5.58301 3.75 4 5.429 4 8.026V15.974C4 18.574 5.58301 20.25 8.03201 20.25H16.467C18.917 20.25 20.5 18.571 20.5 15.974V8.026C20.5 5.426 18.916 3.75 16.466 3.75H8.03201Z" fill="#000000" />
<path d="M8.97399 15.5516C8.7812 15.5514 8.59279 15.494 8.43258 15.3868C8.27237 15.2795 8.14758 15.1272 8.07394 14.949C8.0003 14.7708 7.98112 14.5748 8.01885 14.3857C8.05659 14.1967 8.14952 14.023 8.28591 13.8868C8.42231 13.7505 8.59605 13.6578 8.78515 13.6202C8.97425 13.5827 9.17025 13.6021 9.34835 13.6759C9.52645 13.7497 9.67867 13.8747 9.78576 14.035C9.89285 14.1953 9.95001 14.3838 9.95001 14.5766C9.9504 14.7048 9.92541 14.8319 9.87649 14.9504C9.82757 15.0689 9.75566 15.1766 9.66494 15.2672C9.57422 15.3579 9.46648 15.4296 9.34789 15.4784C9.22931 15.5272 9.10223 15.5521 8.97399 15.5516Z" fill="#000000" />
<path d="M15.474 15.5516C15.2812 15.5514 15.0928 15.494 14.9326 15.3868C14.7724 15.2795 14.6476 15.1272 14.5739 14.949C14.5003 14.7708 14.4811 14.5748 14.5189 14.3857C14.5566 14.1967 14.6495 14.023 14.7859 13.8868C14.9223 13.7505 15.096 13.6578 15.2852 13.6202C15.4743 13.5827 15.6703 13.6021 15.8484 13.6759C16.0265 13.7497 16.1787 13.8747 16.2858 14.035C16.3929 14.1953 16.45 14.3838 16.45 14.5766C16.4504 14.7048 16.4254 14.8319 16.3765 14.9504C16.3276 15.0689 16.2557 15.1766 16.1649 15.2672C16.0742 15.3579 15.9665 15.4296 15.8479 15.4784C15.7293 15.5272 15.6022 15.5521 15.474 15.5516Z" fill="#000000" />
<path d="M15.2084 10.3996C15.0925 10.4006 14.9779 10.3747 14.8738 10.3239C14.7697 10.273 14.6788 10.1986 14.6084 10.1066C14.3419 9.72737 13.9881 9.41787 13.5768 9.20419C13.1655 8.99052 12.7088 8.87897 12.2454 8.87897C11.7819 8.87897 11.3252 8.99052 10.9139 9.20419C10.5026 9.41787 10.1488 9.72737 9.88235 10.1066C9.82233 10.1847 9.74754 10.2503 9.66219 10.2995C9.57685 10.3487 9.48263 10.3807 9.38494 10.3935C9.28725 10.4063 9.18801 10.3998 9.09286 10.3742C8.9977 10.3487 8.90848 10.3046 8.83035 10.2446C8.75221 10.1846 8.68667 10.1098 8.63744 10.0244C8.58822 9.93907 8.5563 9.84488 8.54348 9.74719C8.53067 9.64951 8.53722 9.55023 8.56277 9.45508C8.58831 9.35992 8.63233 9.27073 8.69235 9.1926C9.09909 8.631 9.63318 8.17382 10.2508 7.85855C10.8684 7.54328 11.5519 7.37891 12.2454 7.37891C12.9388 7.37891 13.6223 7.54328 14.2399 7.85855C14.8575 8.17382 15.3916 8.631 15.7984 9.1926C15.8837 9.30358 15.9362 9.43624 15.95 9.57553C15.9638 9.71482 15.9384 9.85519 15.8766 9.98077C15.8148 10.1064 15.7191 10.2121 15.6003 10.2862C15.4815 10.3602 15.3443 10.3995 15.2044 10.3996H15.2084Z" fill="#000000" />
</svg>