<svg width="24px"  height="24px"  viewBox="0 0 25 24" fill="none" xmlns="http://www.w3.org/2000/svg">
<path fill-rule="evenodd" clip-rule="evenodd" d="M15.736 3.84323C15.736 3.84325 15.736 3.84321 15.736 3.84323L20.4082 8.51445C21.3837 9.49052 21.9529 10.6731 21.9961 11.9034C22.0395 13.1418 21.5467 14.3466 20.5513 15.342L15.593 20.3003C14.5956 21.2977 13.3907 21.7914 12.1522 21.7473C10.9219 21.7035 9.74094 21.1328 8.76546 20.1573L4.0932 15.4851C3.1182 14.5101 2.54745 13.3293 2.50369 12.0991C2.45963 10.8605 2.95326 9.65543 3.95115 8.65754L8.90946 3.69923C9.90689 2.70179 11.1116 2.20839 12.3499 2.25275C13.58 2.29681 14.7607 2.86791 15.736 3.84323ZM12.2962 3.75179C11.5179 3.7239 10.7056 4.02445 9.97012 4.75989L5.01181 9.7182C4.27585 10.4542 3.97504 11.267 4.00274 12.0457C4.03073 12.8327 4.39793 13.6685 5.15386 14.4244L9.82612 19.0966C10.5825 19.8531 11.4186 20.2203 12.2055 20.2483C12.9842 20.276 13.7968 19.9751 14.5323 19.2397L19.4906 14.2814C20.2232 13.5487 20.5244 12.7361 20.497 11.956C20.4694 11.168 20.1029 10.331 19.3476 9.57522C19.3476 9.57516 19.3477 9.57529 19.3476 9.57522L14.6754 4.90395C13.9188 4.1474 13.0829 3.77996 12.2962 3.75179Z" fill="#000000" />
<path fill-rule="evenodd" clip-rule="evenodd" d="M8.76074 12.3692C8.76074 11.0816 9.80546 10.0391 11.0918 10.0391H15.8906C16.3048 10.0391 16.6406 10.3748 16.6406 10.7891C16.6406 11.2033 16.3048 11.5391 15.8906 11.5391H11.0918C10.6327 11.5391 10.2607 11.9112 10.2607 12.3692V15.3903C10.2607 15.8045 9.92496 16.1403 9.51074 16.1403C9.09653 16.1403 8.76074 15.8045 8.76074 15.3903V12.3692Z" fill="#000000" />
<path fill-rule="evenodd" clip-rule="evenodd" d="M13.1719 8.07608C13.4642 7.78267 13.9391 7.78182 14.2325 8.0742L16.4217 10.2556C16.563 10.3964 16.6424 10.5876 16.6423 10.7871C16.6423 10.9865 16.5628 11.1777 16.4215 11.3184L14.2323 13.4979C13.9387 13.7901 13.4639 13.7891 13.1716 13.4955C12.8794 13.202 12.8804 12.7271 13.174 12.4349L14.8295 10.7867L13.1737 9.13674C12.8803 8.84437 12.8795 8.3695 13.1719 8.07608Z" fill="#000000" />
</svg>