<svg width="24px"  height="24px"  viewBox="0 0 25 24" fill="none" xmlns="http://www.w3.org/2000/svg">
<path fill-rule="evenodd" clip-rule="evenodd" d="M12.2035 3.75179C11.4168 3.77996 10.5809 4.14734 9.82436 4.90389L5.15225 9.57502C5.15219 9.57509 5.15232 9.57495 5.15225 9.57502C4.39698 10.3308 4.03033 11.168 4.00269 11.956C3.97534 12.7361 4.27645 13.5487 5.00908 14.2814L9.96738 19.2397C10.7028 19.9751 11.5155 20.276 12.2942 20.2483C13.0811 20.2203 13.9172 19.8531 14.6736 19.0966L19.3458 14.4244C20.1018 13.6685 20.469 12.8327 20.497 12.0457C20.5247 11.267 20.2238 10.4542 19.4879 9.7182L14.5296 4.75989C13.7941 4.02445 12.9818 3.7239 12.2035 3.75179ZM12.1498 2.25275C13.3881 2.20839 14.5928 2.70179 15.5902 3.69923L20.5485 8.65754C21.5464 9.65543 22.0401 10.8605 21.996 12.0991C21.9522 13.3293 21.3815 14.5101 20.4065 15.4851L15.7342 20.1573C14.7588 21.1328 13.5778 21.7035 12.3475 21.7473C11.109 21.7914 9.90414 21.2977 8.90672 20.3003L3.94842 15.342C2.95303 14.3466 2.46019 13.1418 2.50362 11.9034C2.54676 10.6731 3.11578 9.49072 4.0913 8.51466L8.7637 3.84323C8.76371 3.84321 8.76368 3.84325 8.7637 3.84323C9.73904 2.86791 10.9197 2.29681 12.1498 2.25275Z" fill="#000000" />
<path fill-rule="evenodd" clip-rule="evenodd" d="M7.8584 10.7891C7.8584 10.3748 8.19418 10.0391 8.6084 10.0391H13.4071C14.6935 10.0391 15.7382 11.0816 15.7382 12.3692V15.3903C15.7382 15.8045 15.4024 16.1403 14.9882 16.1403C14.574 16.1403 14.2382 15.8045 14.2382 15.3903V12.3692C14.2382 11.9112 13.8663 11.5391 13.4071 11.5391H8.6084C8.19418 11.5391 7.8584 11.2033 7.8584 10.7891Z" fill="#000000" />
<path fill-rule="evenodd" clip-rule="evenodd" d="M11.3289 8.07608C11.6212 8.3695 11.6204 8.84437 11.327 9.13674L9.67119 10.7867L11.3268 12.4349C11.6203 12.7271 11.6214 13.202 11.3291 13.4955C11.0369 13.7891 10.562 13.7901 10.2685 13.4979L8.07925 11.3184C7.93792 11.1777 7.85844 10.9865 7.8584 10.7871C7.85835 10.5876 7.93774 10.3964 8.07901 10.2556L10.2682 8.0742C10.5616 7.78182 11.0365 7.78267 11.3289 8.07608Z" fill="#000000" />
</svg>