<svg width="24px"  height="24px"  viewBox="0 0 25 24" fill="none" xmlns="http://www.w3.org/2000/svg">
<path d="M14.5445 21.1417C14.4471 21.1438 14.3502 21.1265 14.2596 21.0907C14.1689 21.055 14.0863 21.0015 14.0166 20.9334C13.9468 20.8654 13.8913 20.7841 13.8534 20.6943C13.8154 20.6046 13.7958 20.5081 13.7955 20.4107V20.3747C13.8015 17.6827 13.1845 16.4187 12.7685 16.2257C12.4685 16.0847 11.9686 16.4747 11.7626 16.6457C10.4717 17.8771 8.86316 18.7245 7.11753 19.0927C6.92402 19.1141 6.72976 19.0594 6.57585 18.9401C6.42193 18.8209 6.32043 18.6465 6.29277 18.4538C6.2651 18.2611 6.31349 18.0651 6.42765 17.9074C6.54182 17.7497 6.7128 17.6426 6.90452 17.6087C8.36933 17.2765 9.71445 16.5475 10.7925 15.5017C11.1098 15.142 11.5296 14.888 11.9955 14.7742C12.4615 14.6603 12.9511 14.6919 13.3985 14.8647C15.0585 15.6337 15.2985 18.6477 15.2985 20.3757C15.2988 20.5769 15.2198 20.7701 15.0787 20.9134C14.9376 21.0568 14.7457 21.1388 14.5445 21.1417Z" fill="#000000" />
<path d="M6.93596 12.628C6.73705 12.6318 6.54482 12.5563 6.40154 12.4183C6.25826 12.2802 6.1757 12.091 6.17199 11.892C6.16827 11.6931 6.24374 11.5009 6.38176 11.3576C6.51979 11.2143 6.70904 11.1318 6.90795 11.128C7.51888 11.0919 8.09095 10.8163 8.49999 10.361C9.17811 9.57638 9.52388 8.55841 9.46398 7.52305C9.43343 6.54324 9.26888 5.57223 8.97496 4.63705C8.01088 4.81556 7.07585 5.12545 6.19597 5.55805C5.25286 5.99106 4.51591 6.77499 4.14196 7.74305C3.97343 8.19026 3.95107 8.6794 4.07811 9.14012C4.20515 9.60084 4.47507 10.0094 4.84899 10.307L5.40795 10.746C5.48907 10.8055 5.5574 10.8807 5.60888 10.9671C5.66035 11.0535 5.69397 11.1494 5.70763 11.2491C5.72129 11.3487 5.71473 11.4501 5.6884 11.5472C5.66208 11.6443 5.6165 11.7351 5.55437 11.8142C5.49224 11.8933 5.41485 11.9591 5.32677 12.0077C5.23869 12.0563 5.14173 12.0866 5.04168 12.097C4.94162 12.1073 4.84053 12.0974 4.74437 12.0679C4.64822 12.0383 4.55898 11.9898 4.48198 11.925L3.89898 11.467C3.29136 10.9755 2.85153 10.3073 2.64031 9.55489C2.42909 8.80245 2.45691 8.00297 2.71996 7.26705C3.21926 5.92427 4.22426 4.83024 5.51995 4.21905C6.74498 3.60526 8.06982 3.21513 9.432 3.06705C9.57888 3.06098 9.72426 3.0981 9.85027 3.17381C9.97628 3.24953 10.0774 3.36051 10.141 3.49305C10.6541 4.7657 10.9313 6.12112 10.959 7.49305C11.0278 8.92506 10.534 10.3272 9.58294 11.4C8.90358 12.1395 7.96081 12.5823 6.95794 12.633L6.93596 12.628Z" fill="#000000" />
<path d="M12.6616 21.3362C11.08 21.3835 9.51765 20.9797 8.1571 20.1718C6.79656 19.364 5.69409 18.1855 4.97864 16.7742C4.90084 16.5958 4.89532 16.3942 4.96325 16.2118C5.03119 16.0294 5.16729 15.8805 5.34283 15.7965C5.51837 15.7125 5.71965 15.6999 5.90429 15.7614C6.08894 15.8229 6.24251 15.9537 6.33264 16.1262C6.92699 17.2812 7.83764 18.2434 8.95831 18.9003C10.079 19.5572 11.3634 19.8818 12.6616 19.8362C14.7404 19.8362 16.734 19.0104 18.2039 17.5405C19.6738 16.0706 20.4996 14.0769 20.4996 11.9982C20.4996 9.91939 19.6738 7.92576 18.2039 6.45585C16.734 4.98594 14.7404 4.16016 12.6616 4.16016C12.4627 4.16016 12.2719 4.08114 12.1313 3.94049C11.9906 3.79983 11.9116 3.60907 11.9116 3.41016C11.9116 3.21124 11.9906 3.02048 12.1313 2.87983C12.2719 2.73917 12.4627 2.66016 12.6616 2.66016C13.8879 2.66016 15.1022 2.90169 16.2351 3.37097C17.368 3.84025 18.3975 4.52808 19.2646 5.39519C20.1317 6.26231 20.8195 7.29172 21.2888 8.42466C21.7581 9.5576 21.9996 10.7719 21.9996 11.9982C21.9996 13.2244 21.7581 14.4387 21.2888 15.5717C20.8195 16.7046 20.1317 17.734 19.2646 18.6011C18.3975 19.4682 17.368 20.1561 16.2351 20.6253C15.1022 21.0946 13.8879 21.3362 12.6616 21.3362Z" fill="#000000" />
<path d="M4.86513 14.614C4.68514 14.6137 4.51124 14.5487 4.37521 14.4308C4.23917 14.3129 4.15003 14.1501 4.12411 13.972C3.92388 12.9033 3.98285 11.8022 4.29604 10.761C4.60924 9.71976 5.16751 8.76885 5.92409 7.98797C6.07328 7.86279 6.2653 7.80054 6.45956 7.8144C6.65381 7.82827 6.83509 7.91715 6.96499 8.06224C7.09489 8.20734 7.16323 8.39728 7.1556 8.59188C7.14797 8.78648 7.06496 8.97048 6.92409 9.10497C6.35369 9.72163 5.93716 10.4644 5.70846 11.2727C5.47975 12.081 5.44538 12.9319 5.60812 13.756C5.62242 13.8534 5.61736 13.9526 5.59328 14.048C5.56921 14.1435 5.52658 14.2332 5.4678 14.3122C5.40901 14.3911 5.33523 14.4577 5.25069 14.5081C5.16616 14.5585 5.07252 14.5918 4.97512 14.606C4.93872 14.6115 4.90195 14.6142 4.86513 14.614Z" fill="#000000" />
<path d="M18.6652 18.8875C18.5231 18.8873 18.3839 18.847 18.2637 18.7711C18.1436 18.6951 18.0473 18.5868 17.9862 18.4585C17.8732 18.2195 17.7282 17.9585 17.5682 17.6585C17.2822 17.1295 16.9262 16.4725 16.6102 15.7225C15.7302 13.6325 16.4972 12.6895 17.0572 12.0015C17.3491 11.7345 17.53 11.3676 17.5642 10.9735C17.5842 10.2435 17.3452 10.0295 16.5122 9.40047C15.9789 9.01384 15.4798 8.58227 15.0202 8.11047C14.4952 7.47599 14.1499 6.71236 14.0203 5.8991C13.8907 5.08585 13.9814 4.25271 14.2832 3.48647C14.3535 3.30536 14.4913 3.15859 14.6677 3.07706C14.844 2.99553 15.0451 2.9856 15.2286 3.04936C15.4121 3.11312 15.5636 3.2456 15.6514 3.4189C15.7392 3.5922 15.7564 3.7928 15.6992 3.97847C15.4904 4.48584 15.4183 5.0391 15.4901 5.58304C15.5619 6.12698 15.775 6.6426 16.1082 7.07847C16.5111 7.48919 16.9491 7.86394 17.4172 8.19847C17.9247 8.46754 18.3474 8.8723 18.6382 9.3676C18.929 9.86289 19.0765 10.4292 19.0642 11.0035C19.0281 11.731 18.7284 12.4206 18.2212 12.9435C17.7482 13.5245 17.4622 13.8755 17.9932 15.1365C18.261 15.751 18.5593 16.3518 18.8872 16.9365C19.0612 17.2585 19.2182 17.5485 19.3422 17.8085C19.3845 17.8975 19.4088 17.9941 19.4138 18.0926C19.4188 18.1911 19.4043 18.2896 19.3711 18.3825C19.338 18.4754 19.2868 18.5608 19.2206 18.6339C19.1543 18.707 19.0744 18.7663 18.9852 18.8085C18.8859 18.8588 18.7765 18.8858 18.6652 18.8875Z" fill="#000000" />
</svg>