<svg width="24px"  height="24px"  viewBox="0 0 25 24" fill="none" xmlns="http://www.w3.org/2000/svg">
<path fill-rule="evenodd" clip-rule="evenodd" d="M12.2792 3.75C7.70393 3.75 3.99512 7.45892 3.99512 12.0331C3.99512 16.2651 7.16846 19.756 11.2647 20.2555C11.6758 20.3057 11.9685 20.6796 11.9184 21.0908C11.8682 21.502 11.4943 21.7946 11.0831 21.7445C6.2435 21.1543 2.49512 17.0326 2.49512 12.0331C2.49512 6.63038 6.8756 2.25 12.2792 2.25C17.3082 2.25 21.451 6.04467 22.0001 10.9276C22.0464 11.3393 21.7503 11.7105 21.3387 11.7568C20.927 11.8031 20.5558 11.5069 20.5095 11.0953C20.0448 6.96268 16.5362 3.75 12.2792 3.75Z" fill="#000000" />
<path fill-rule="evenodd" clip-rule="evenodd" d="M6.6187 4.20531C7.00809 4.06407 7.43825 4.26523 7.57949 4.65462L6.87444 4.91036C7.57949 4.65462 7.57936 4.65426 7.57949 4.65462L7.5808 4.65825L7.58289 4.6641L7.58928 4.68235C7.59448 4.69738 7.60152 4.71811 7.61009 4.74418C7.62722 4.79631 7.65048 4.86999 7.67731 4.96248C7.73087 5.14717 7.79912 5.40859 7.86105 5.7247C7.98389 6.35168 8.08706 7.21985 7.9858 8.14198C7.88422 9.06702 7.57263 10.0793 6.83625 10.9438C6.09378 11.8155 4.97588 12.4705 3.3846 12.7714C2.9776 12.8484 2.58527 12.5808 2.50831 12.1738C2.43135 11.7668 2.6989 11.3745 3.10591 11.2975C4.42187 11.0487 5.21124 10.5383 5.69435 9.97117C6.18355 9.39683 6.41586 8.69681 6.49476 7.97825C6.57399 7.25679 6.49424 6.55008 6.38904 6.01309C6.33694 5.7472 6.2799 5.52935 6.23667 5.38028C6.21509 5.30589 6.19708 5.24905 6.18504 5.21239C6.17902 5.19408 6.1745 5.18084 6.17179 5.173L6.16939 5.1661C6.02855 4.77686 6.2295 4.34648 6.6187 4.20531Z" fill="#000000" />
<path fill-rule="evenodd" clip-rule="evenodd" d="M9.13317 14.8072C9.02342 14.7381 8.71612 14.62 7.97754 15.1523L7.97529 15.1539L7.97529 15.1539C6.63904 16.1094 5.49819 16.6759 4.53635 16.9865C4.14218 17.1138 3.71945 16.8974 3.59216 16.5033C3.46487 16.1091 3.68121 15.6864 4.07538 15.5591C4.86077 15.3054 5.864 14.8194 7.10173 13.9345C8.04509 13.2551 9.05813 12.9871 9.93267 13.538C10.7069 14.0258 11.0797 15.0013 11.2564 15.98C11.33 16.3876 11.0592 16.7777 10.6516 16.8513C10.2439 16.9249 9.85382 16.6541 9.78023 16.2465C9.61931 15.3551 9.34357 14.9397 9.13317 14.8072Z" fill="#000000" />
<path fill-rule="evenodd" clip-rule="evenodd" d="M16.9133 14.1641C15.6102 14.1641 14.5537 15.2206 14.5537 16.5237C14.5537 17.8268 15.6102 18.8833 16.9133 18.8833C18.2164 18.8833 19.273 17.8268 19.273 16.5237C19.273 15.2206 18.2164 14.1641 16.9133 14.1641ZM13.0537 16.5237C13.0537 14.3922 14.7818 12.6641 16.9133 12.6641C19.0448 12.6641 20.773 14.3922 20.773 16.5237C20.773 18.6552 19.0448 20.3833 16.9133 20.3833C14.7818 20.3833 13.0537 18.6552 13.0537 16.5237Z" fill="#000000" />
<path fill-rule="evenodd" clip-rule="evenodd" d="M18.4985 18.2709C18.7911 17.9778 19.266 17.9773 19.5591 18.27L21.1237 19.8316C21.4168 20.1242 21.4173 20.5991 21.1247 20.8922C20.832 21.1854 20.3572 21.1858 20.064 20.8932L18.4995 19.3316C18.2063 19.039 18.2059 18.5641 18.4985 18.2709Z" fill="#000000" />
<path fill-rule="evenodd" clip-rule="evenodd" d="M12.8562 2.27113C13.2588 2.36837 13.5064 2.7736 13.4092 3.17623L12.6801 3.00017C13.4092 3.17623 13.4092 3.17597 13.4093 3.17571L13.4094 3.17524L13.4096 3.17447L13.4098 3.1736C13.4099 3.17331 13.4098 3.17361 13.4096 3.17449L13.407 3.18646C13.4043 3.19887 13.4 3.2199 13.3946 3.24867C13.384 3.30635 13.3695 3.39437 13.3566 3.5058C13.3306 3.73035 13.3121 4.04061 13.3403 4.38389C13.3974 5.07937 13.6354 5.82134 14.288 6.3312L14.2886 6.33164C14.6883 6.64454 15.0656 6.87583 15.4218 7.07717C15.5275 7.1369 15.6391 7.19803 15.7521 7.25992C15.9945 7.3927 16.2432 7.52894 16.4532 7.6621C16.783 7.87128 17.1136 8.12826 17.3746 8.49907C17.6397 8.87591 17.7981 9.32 17.865 9.8551C17.9164 10.2661 17.6249 10.641 17.2139 10.6924C16.8029 10.7438 16.428 10.4523 16.3766 10.0412C16.3341 9.70116 16.2459 9.50162 16.1478 9.36227C16.0455 9.21688 15.8962 9.08511 15.6498 8.92881C15.4792 8.82059 15.3033 8.72445 15.0909 8.60836C14.9691 8.54182 14.8354 8.46873 14.6838 8.38305C14.2917 8.16146 13.8447 7.88899 13.3646 7.51326C12.2562 6.64733 11.921 5.42827 11.8453 4.50667C11.8071 4.04142 11.8323 3.62912 11.8666 3.33325C11.8838 3.18447 11.9036 3.06282 11.9197 2.97587C11.9277 2.93233 11.9349 2.89731 11.9404 2.87175L11.9473 2.84055L11.9496 2.83045L11.9505 2.8268L11.9508 2.82534L11.951 2.82469C11.951 2.8244 11.9511 2.82411 12.6801 3.00017L11.9511 2.82411C12.0483 2.42147 12.4536 2.17389 12.8562 2.27113Z" fill="#000000" />
</svg>