<svg width="24px"  height="24px"  viewBox="0 0 25 24" fill="none" xmlns="http://www.w3.org/2000/svg">
<path fill-rule="evenodd" clip-rule="evenodd" d="M12.25 3.75C7.69329 3.75 4 7.44329 4 12C4 16.5567 7.69329 20.25 12.25 20.25C16.8067 20.25 20.5 16.5567 20.5 12C20.5 7.44329 16.8067 3.75 12.25 3.75ZM2.5 12C2.5 6.61487 6.86487 2.25 12.25 2.25C17.6351 2.25 22 6.61487 22 12C22 17.3851 17.6351 21.75 12.25 21.75C6.86487 21.75 2.5 17.3851 2.5 12Z" fill="#000000" />
<path fill-rule="evenodd" clip-rule="evenodd" d="M6.6109 4.19751C7.00028 4.05625 7.43045 4.25739 7.57171 4.64677L6.86668 4.90255C7.57171 4.64677 7.57184 4.64711 7.57197 4.64747L7.57227 4.64831L7.57302 4.6504L7.5751 4.65624L7.58148 4.67444C7.58667 4.68943 7.59369 4.71009 7.60223 4.73609C7.61931 4.78805 7.6425 4.86149 7.66924 4.95367C7.72263 5.13775 7.79066 5.39828 7.85239 5.71331C7.97481 6.33814 8.07766 7.20341 7.97669 8.12252C7.87541 9.04454 7.56474 10.0537 6.8305 10.9155C6.09016 11.7845 4.97562 12.4374 3.38948 12.7373C2.98248 12.8143 2.59015 12.5467 2.51319 12.1397C2.43624 11.7327 2.70379 11.3404 3.11079 11.2634C4.42168 11.0156 5.20772 10.5073 5.68868 9.94278C6.17572 9.37108 6.40707 8.67423 6.48566 7.95874C6.56458 7.24034 6.48517 6.53656 6.38038 6.00173C6.32849 5.73693 6.27167 5.51998 6.22861 5.37152C6.20713 5.29745 6.18919 5.24085 6.1772 5.20436C6.17121 5.18613 6.16671 5.17295 6.16402 5.16516L6.16164 5.15832L6.16144 5.15776C6.02057 4.76853 6.22171 4.3387 6.6109 4.19751ZM6.16112 5.1569L6.16128 5.15734L6.16136 5.15756C6.16124 5.15721 6.16116 5.15699 6.16112 5.1569ZM6.16112 5.15688C6.1611 5.15683 6.1611 5.15684 6.16112 5.1569L6.16112 5.15688Z" fill="#000000" />
<path fill-rule="evenodd" clip-rule="evenodd" d="M10.8035 14.1333C10.6905 14.0858 10.3765 14.0352 9.7192 14.5086L9.71872 14.509C7.11863 16.3786 5.24408 16.7419 4.08757 16.6613C3.67436 16.6326 3.36271 16.2743 3.39149 15.861C3.42027 15.4478 3.77858 15.1362 4.19179 15.165C4.90728 15.2148 6.44203 15.0176 8.84301 13.2911C9.67423 12.6926 10.562 12.4046 11.3849 12.7505C12.1696 13.0804 12.5966 13.8703 12.8296 14.6667C13.3048 16.2909 13.2138 18.7402 12.7317 21.1361C12.65 21.5422 12.2546 21.8051 11.8485 21.7234C11.4424 21.6417 11.1795 21.2463 11.2612 20.8402C11.7248 18.5357 11.7647 16.3687 11.39 15.0879C11.198 14.4318 10.9549 14.1969 10.8035 14.1333Z" fill="#000000" />
<path fill-rule="evenodd" clip-rule="evenodd" d="M13.3827 3.17582C13.3827 3.17582 13.3827 3.17582 13.3827 3.17582L13.3827 3.17575L13.3828 3.17535L13.383 3.17458L13.3832 3.1737C13.3832 3.17341 13.3832 3.1737 13.383 3.17457L13.3804 3.18645C13.3777 3.19879 13.3734 3.21972 13.3681 3.24835C13.3575 3.30575 13.343 3.39338 13.3302 3.50432C13.3043 3.7279 13.2858 4.03682 13.3138 4.37865C13.3706 5.07121 13.6074 5.80991 14.2568 6.31781C14.6551 6.62904 15.031 6.85919 15.386 7.0597C15.4908 7.11887 15.6014 7.17943 15.7133 7.24073C15.9555 7.37335 16.2041 7.50947 16.4141 7.64269C16.743 7.85131 17.0727 8.10771 17.3329 8.47761C17.5973 8.85354 17.7552 9.29645 17.8218 9.82985C17.8981 10.4401 17.7613 10.9288 17.5713 11.335C17.4808 11.5283 17.3773 11.705 17.2894 11.8531C17.2801 11.8687 17.2711 11.8839 17.2622 11.8988C17.1815 12.0345 17.1156 12.1454 17.0571 12.2601C16.9367 12.4961 16.8759 12.6961 16.8893 12.94C16.9034 13.1976 17.0054 13.5826 17.3589 14.1652L17.3589 14.1653C17.7469 14.8051 18.1484 15.3425 18.5141 15.832C18.6171 15.9699 18.7172 16.1039 18.8134 16.2353C19.024 16.5231 19.2274 16.815 19.3751 17.0941C19.5173 17.3629 19.6587 17.7117 19.635 18.0954C19.6094 18.5088 19.2536 18.8232 18.8402 18.7977C18.4293 18.7724 18.1161 18.4207 18.1374 18.0105C18.1365 18.009 18.1294 17.9472 18.0492 17.7954C17.9566 17.6205 17.81 17.4042 17.6029 17.1211C17.5205 17.0087 17.4301 16.8877 17.3336 16.7587C16.9642 16.2644 16.5061 15.6517 16.0764 14.9432C15.6427 14.2284 15.4234 13.6037 15.3915 13.0221C15.3589 12.4267 15.5273 11.958 15.7209 11.5785C15.803 11.4176 15.8947 11.2636 15.972 11.1337C15.9814 11.1179 15.9905 11.1025 15.9995 11.0875C16.0872 10.9397 16.1565 10.8192 16.2126 10.6994C16.3156 10.4792 16.3661 10.2775 16.3334 10.0159C16.2911 9.67752 16.2034 9.47911 16.106 9.34061C16.0044 9.19609 15.8559 9.06494 15.6106 8.90931C15.4403 8.80127 15.2645 8.70522 15.0521 8.58913C14.9313 8.52313 14.7986 8.45065 14.6484 8.36581C14.2576 8.14508 13.8118 7.87371 13.333 7.49956L13.3328 7.4994C12.228 6.63541 11.8941 5.41989 11.8188 4.50121C11.7808 4.03742 11.806 3.62646 11.8402 3.33157C11.8573 3.18327 11.8771 3.06201 11.8931 2.97533C11.9012 2.93193 11.9083 2.89702 11.9138 2.87153L11.9207 2.84042L11.923 2.83033L11.9239 2.82669L11.9242 2.82523L11.9244 2.82458C11.9244 2.82429 11.9245 2.824 12.6492 2.99913L11.9245 2.824C12.0218 2.42138 12.4271 2.17386 12.8297 2.27116C13.2321 2.36841 13.4796 2.77332 13.3827 3.17575C13.3827 3.17577 13.3827 3.1758 13.3827 3.17582Z" fill="#000000" />
</svg>