<svg width="24px"  height="24px"  viewBox="0 0 25 24" fill="none" xmlns="http://www.w3.org/2000/svg">
<path d="M14.3682 21.3614C14.2707 21.3632 14.1739 21.3457 14.0833 21.3098C13.9927 21.2738 13.9102 21.2203 13.8405 21.1521C13.7708 21.084 13.7153 21.0027 13.6773 20.913C13.6393 20.8232 13.6195 20.7268 13.6192 20.6294V20.5934C13.6252 17.9934 13.0712 16.5594 12.5552 16.3194C12.2492 16.1794 11.7622 16.5304 11.5012 16.7534C10.18 18.0133 8.5331 18.8792 6.74618 19.2534C6.64816 19.2684 6.54816 19.2638 6.45193 19.2398C6.35569 19.2159 6.26511 19.1732 6.18551 19.114C6.10591 19.0549 6.03887 18.9806 5.98818 18.8953C5.9375 18.8101 5.90423 18.7157 5.89028 18.6175C5.87633 18.5193 5.88195 18.4193 5.90689 18.3234C5.93182 18.2274 5.97557 18.1373 6.03555 18.0583C6.09552 17.9794 6.17055 17.9131 6.25631 17.8633C6.34208 17.8135 6.43686 17.7813 6.53518 17.7684C8.04257 17.4292 9.42687 16.6799 10.5352 15.6034C10.8583 15.2367 11.2859 14.9778 11.7606 14.8616C12.2353 14.7453 12.7343 14.7774 13.1902 14.9534C14.8822 15.7384 15.1272 18.8214 15.1232 20.5904C15.1245 20.7925 15.0459 20.987 14.9045 21.1314C14.7631 21.2758 14.5703 21.3585 14.3682 21.3614Z" fill="#000000" />
<path d="M12.4384 21.5595C10.8194 21.6081 9.22008 21.1947 7.82745 20.3677C6.43482 19.5407 5.30644 18.3343 4.57434 16.8895C4.49655 16.7111 4.49102 16.5095 4.55896 16.3271C4.62689 16.1448 4.76299 15.9959 4.93854 15.9119C5.11408 15.8279 5.31536 15.8153 5.5 15.8768C5.68464 15.9383 5.83822 16.069 5.92834 16.2415C6.53935 17.43 7.4759 18.4202 8.62866 19.0962C9.78142 19.7723 11.1028 20.1064 12.4384 20.0595C14.5763 20.0595 16.6266 19.2102 18.1383 17.6985C19.65 16.1868 20.4993 14.1364 20.4993 11.9985C20.4993 9.86059 19.65 7.81024 18.1383 6.29851C16.6266 4.78678 14.5763 3.9375 12.4384 3.9375C12.2394 3.9375 12.0487 3.85848 11.908 3.71783C11.7674 3.57718 11.6884 3.38641 11.6884 3.1875C11.6884 2.98859 11.7674 2.79782 11.908 2.65717C12.0487 2.51652 12.2394 2.4375 12.4384 2.4375C13.6939 2.4375 14.9372 2.6848 16.0972 3.16529C17.2572 3.64577 18.3112 4.35003 19.199 5.23785C20.0868 6.12567 20.7911 7.17967 21.2715 8.33966C21.752 9.49966 21.9993 10.7429 21.9993 11.9985C21.9993 13.2541 21.752 14.4973 21.2715 15.6573C20.7911 16.8173 20.0868 17.8713 19.199 18.7591C18.3112 19.647 17.2572 20.3512 16.0972 20.8317C14.9372 21.3122 13.6939 21.5595 12.4384 21.5595Z" fill="#000000" />
<path d="M18.5971 19.052C18.4549 19.0522 18.3155 19.012 18.1953 18.936C18.0751 18.8601 17.9789 18.7515 17.9181 18.623C17.8021 18.378 17.6531 18.105 17.4901 17.803C17.1291 17.1581 16.8014 16.4953 16.5081 15.817C15.6081 13.684 16.3911 12.723 16.9621 12.017C17.2652 11.7395 17.4529 11.3583 17.4881 10.949C17.5081 10.193 17.2611 9.97196 16.4001 9.32096C15.8539 8.92548 15.3427 8.48386 14.8721 8.00096C14.3355 7.35306 13.9827 6.57302 13.8505 5.74226C13.7182 4.9115 13.8113 4.06046 14.1201 3.27796C14.1503 3.1823 14.1994 3.09367 14.2645 3.01733C14.3296 2.94098 14.4093 2.87847 14.499 2.8335C14.5887 2.78852 14.6865 2.76199 14.7866 2.75549C14.8867 2.74898 14.9871 2.76262 15.0818 2.79561C15.1766 2.82859 15.2638 2.88025 15.3382 2.94753C15.4126 3.0148 15.4728 3.09633 15.5151 3.18727C15.5575 3.27822 15.5812 3.37673 15.5848 3.47699C15.5884 3.57725 15.5718 3.67721 15.5361 3.77096C15.3202 4.29474 15.2457 4.86605 15.3201 5.42766C15.3945 5.98928 15.6152 6.52148 15.9601 6.97096C16.3745 7.39533 16.8249 7.78311 17.3061 8.12996C17.8234 8.40434 18.2546 8.81682 18.5515 9.32155C18.8484 9.82628 18.9996 10.4035 18.9881 10.989C18.9507 11.7317 18.6443 12.4355 18.1261 12.969C17.6371 13.569 17.3411 13.934 17.8911 15.237C18.1654 15.8702 18.4718 16.489 18.8091 17.091C18.9861 17.42 19.1471 17.716 19.2731 17.982C19.3276 18.0962 19.3524 18.2223 19.345 18.3487C19.3376 18.475 19.2984 18.5974 19.2309 18.7045C19.1634 18.8115 19.0698 18.8997 18.959 18.9608C18.8481 19.022 18.7237 19.054 18.5971 19.054V19.052Z" fill="#000000" />
<path d="M7.43503 10.5419C7.0109 10.5419 6.5963 10.4161 6.24368 10.1804C5.89106 9.94476 5.61622 9.6098 5.45401 9.21792C5.29179 8.82604 5.24948 8.39485 5.33237 7.9789C5.41525 7.56295 5.61966 7.18093 5.91971 6.88116C6.21975 6.5814 6.60195 6.37736 7.01797 6.29486C7.434 6.21236 7.86514 6.2551 8.25687 6.41768C8.6486 6.58027 8.98331 6.85538 9.21866 7.20822C9.454 7.56106 9.5794 7.97578 9.57901 8.39991C9.57769 8.96794 9.35128 9.5123 8.94943 9.91378C8.54758 10.3152 8.00306 10.5411 7.43503 10.5419ZM7.43503 7.75391C7.30766 7.75391 7.18314 7.79168 7.07724 7.86244C6.97133 7.9332 6.8888 8.03378 6.84006 8.15146C6.79131 8.26913 6.77853 8.39862 6.80337 8.52354C6.82822 8.64847 6.88958 8.76322 6.97964 8.85328C7.06971 8.94335 7.18443 9.00468 7.30936 9.02953C7.43428 9.05438 7.56375 9.04163 7.68143 8.99289C7.7991 8.94414 7.89972 8.8616 7.97049 8.75569C8.04125 8.64979 8.07901 8.52528 8.07901 8.39791C8.07874 8.22719 8.01082 8.06354 7.89011 7.94282C7.76939 7.82211 7.60575 7.75417 7.43503 7.75391Z" fill="#000000" />
<path d="M7.43446 15.0049C6.16446 15.0049 2.50148 11.6639 2.50148 8.43393C2.49217 7.78014 2.61289 7.13103 2.85664 6.52431C3.10039 5.91759 3.4623 5.36537 3.92134 4.89975C4.38038 4.43412 4.9274 4.06438 5.53059 3.81202C6.13378 3.55965 6.7811 3.42969 7.43495 3.42969C8.0888 3.42969 8.73618 3.55965 9.33937 3.81202C9.94255 4.06438 10.4895 4.43412 10.9486 4.89975C11.4076 5.36537 11.7696 5.91759 12.0133 6.52431C12.2571 7.13103 12.3778 7.78014 12.3685 8.43393C12.3685 11.6639 8.70446 15.0049 7.43446 15.0049ZM7.43446 4.99993C6.52421 5.00125 5.65162 5.3635 5.00807 6.00725C4.36451 6.65099 4.00253 7.52367 4.00148 8.43393C4.00148 10.7509 6.67146 13.1219 7.43446 13.4789C8.19746 13.1229 10.8685 10.7529 10.8685 8.43393C10.8672 7.52358 10.5049 6.6509 9.86122 6.00718C9.2175 5.36347 8.34481 5.00125 7.43446 4.99993Z" fill="#000000" />
</svg>