<svg width="24px"  height="24px"  viewBox="0 0 25 24" fill="none" xmlns="http://www.w3.org/2000/svg">
<path fill-rule="evenodd" clip-rule="evenodd" d="M5.82824 2.36585C6.04585 2.22844 6.3187 2.2122 6.55107 2.32282L18.5948 8.0564C18.856 8.18076 19.0224 8.44427 19.0224 8.73358C19.0224 9.02289 18.856 9.2864 18.5948 9.41076L6.97869 14.9408V21C6.97869 21.4142 6.6429 21.75 6.22869 21.75C5.81448 21.75 5.47869 21.4142 5.47869 21V14.4838C5.47846 14.473 5.47846 14.4623 5.47869 14.4515V3C5.47869 2.74265 5.61064 2.50326 5.82824 2.36585ZM6.97869 13.2795L16.5276 8.73358L6.97869 4.1877V13.2795Z" fill="#000000" />
</svg>