<svg width="24px"  height="24px"  viewBox="0 0 25 24" fill="none" xmlns="http://www.w3.org/2000/svg">
<path fill-rule="evenodd" clip-rule="evenodd" d="M4.98145 2.25C5.39566 2.25 5.73145 2.58579 5.73145 3V3.3902H12.1858C12.6 3.3902 12.9358 3.72599 12.9358 4.1402V5.50148H19.5194C19.7823 5.50148 20.0261 5.63923 20.1618 5.86451C20.2975 6.0898 20.3053 6.36969 20.1823 6.60217L17.6786 11.3353L20.1791 15.9612C20.3032 16.1908 20.2991 16.4683 20.1682 16.694C20.0373 16.9198 19.7985 17.0613 19.5377 17.0676L12.2063 17.2467C12.0043 17.2516 11.8088 17.1748 11.6642 17.0336C11.5196 16.8925 11.438 16.699 11.438 16.4969V14.9754L5.73145 15.1172V21C5.73145 21.4142 5.39566 21.75 4.98145 21.75C4.56723 21.75 4.23145 21.4142 4.23145 21V3C4.23145 2.58579 4.56723 2.25 4.98145 2.25ZM5.73145 13.6167L11.4358 13.475V4.8902H5.73145V13.6167ZM12.9358 12.7915C12.9373 12.8105 12.938 12.8298 12.938 12.8492V15.7283L18.2776 15.598L16.1683 11.6958C16.0492 11.4754 16.048 11.21 16.1651 10.9885L18.2742 7.00148H12.9358V12.7915Z" fill="#000000" />
</svg>