<svg width="24px"  height="24px"  viewBox="0 0 25 24" fill="none" xmlns="http://www.w3.org/2000/svg">
<path fill-rule="evenodd" clip-rule="evenodd" d="M9.52621 13.644C9.59992 14.0516 9.32923 14.4418 8.92163 14.5155C7.39204 14.7921 6.14057 15.243 5.29326 15.7746C4.42007 16.3224 4.13379 16.8457 4.13379 17.2353C4.13379 17.5007 4.25707 17.8172 4.61288 18.1743C4.97183 18.5345 5.52881 18.8931 6.27661 19.2102C7.76935 19.8431 9.88292 20.2519 12.2542 20.2519C14.626 20.2519 16.7371 19.8431 18.2272 19.2103C18.9736 18.8933 19.5293 18.5349 19.8873 18.1748C20.2421 17.818 20.3653 17.5014 20.3653 17.2353C20.3653 16.8461 20.077 16.3201 19.2018 15.7706C18.3533 15.2379 17.1023 14.7872 15.5794 14.5158C15.1716 14.4432 14.8999 14.0537 14.9726 13.6459C15.0452 13.2381 15.4347 12.9664 15.8425 13.0391C17.4861 13.3319 18.9372 13.8334 19.9994 14.5002C21.0347 15.1502 21.8653 16.0711 21.8653 17.2353C21.8653 18.0119 21.4928 18.6875 20.951 19.2325C20.4123 19.7742 19.6705 20.227 18.8135 20.591C17.0967 21.3201 14.7772 21.7519 12.2542 21.7519C9.73167 21.7519 7.41004 21.3201 5.69102 20.5911C4.83294 20.2273 4.08991 19.7745 3.55032 19.233C3.00759 18.6883 2.63379 18.0126 2.63379 17.2353C2.63379 16.0715 3.46133 15.1531 4.49614 14.5039C5.55685 13.8385 7.00757 13.3373 8.65473 13.0394C9.06234 12.9657 9.45251 13.2364 9.52621 13.644Z" fill="#000000" />
<path fill-rule="evenodd" clip-rule="evenodd" d="M11.8478 2.36587C12.0653 2.22846 12.3382 2.2122 12.5706 2.3228L19.7702 5.7497C20.0315 5.87404 20.1979 6.13755 20.1979 6.42686C20.1979 6.71617 20.0315 6.97969 19.7703 7.10406L12.9982 10.3284V16.7097C12.9982 17.1239 12.6624 17.4597 12.2482 17.4597C11.834 17.4597 11.4982 17.1239 11.4982 16.7097V9.87151C11.498 9.86072 11.498 9.84994 11.4982 9.83919V3C11.4982 2.74266 11.6302 2.50328 11.8478 2.36587ZM12.9982 8.66707L17.703 6.427L12.9982 4.18761V8.66707Z" fill="#000000" />
</svg>