<svg width="24px"  height="24px"  viewBox="0 0 25 24" fill="none" xmlns="http://www.w3.org/2000/svg">
<path fill-rule="evenodd" clip-rule="evenodd" d="M4.46582 3C4.46582 2.58579 4.80161 2.25 5.21582 2.25H19.2847C19.5477 2.25 19.7914 2.38776 19.9271 2.61305C20.0628 2.83834 20.0706 3.11824 19.9476 3.35071L17.2969 8.36141L19.9444 13.2583C20.0692 13.4892 20.0643 13.7685 19.9314 13.9948C19.7986 14.2211 19.5571 14.3615 19.2947 14.365L5.96582 14.5437V21C5.96582 21.4142 5.63004 21.75 5.21582 21.75C4.80161 21.75 4.46582 21.4142 4.46582 21V13.805C4.46582 13.804 4.46582 13.803 4.46582 13.802V3ZM5.96582 13.0436L18.0356 12.8817L15.7866 8.72195C15.6674 8.50149 15.6662 8.23607 15.7834 8.01454L18.0394 3.75H5.96582V13.0436Z" fill="#000000" />
</svg>