<svg width="24px"  height="24px"  viewBox="0 0 25 24" fill="none" xmlns="http://www.w3.org/2000/svg">
<path fill-rule="evenodd" clip-rule="evenodd" d="M17.2754 2.49773C17.4516 2.69303 17.5125 2.96632 17.4361 3.21796L16.1535 7.44124L18.9017 10.7896C19.0679 10.9921 19.1164 11.2666 19.0296 11.5138C18.9429 11.761 18.7334 11.945 18.4771 11.9992L8.36774 14.137L9.61431 20.25H20.1555C20.5698 20.25 20.9055 20.5858 20.9055 21C20.9055 21.4142 20.5698 21.75 20.1555 21.75H4.34473C3.93051 21.75 3.59473 21.4142 3.59473 21C3.59473 20.5858 3.93051 20.25 4.34473 20.25H8.08344L5.02988 5.27582C4.98989 5.07971 5.02994 4.87576 5.14112 4.70934C5.2523 4.54291 5.42538 4.42783 5.62186 4.3897L16.5756 2.26375C16.8338 2.21365 17.0993 2.30243 17.2754 2.49773ZM8.06802 12.6672L16.9591 10.787L14.7396 8.08286C14.5806 7.88916 14.5289 7.62887 14.6017 7.3891L15.639 3.97352L6.65091 5.71797L8.06802 12.6672Z" fill="#000000" />
</svg>