<svg width="24px"  height="24px"  viewBox="0 0 25 24" fill="none" xmlns="http://www.w3.org/2000/svg">
<path d="M5.42782 13.2437C5.32919 13.2438 5.23153 13.2244 5.14041 13.1867C5.04928 13.1489 4.96648 13.0935 4.89681 13.0237L2.91781 11.0447C2.78112 10.9033 2.70544 10.7139 2.70706 10.5172C2.70867 10.3206 2.78749 10.1324 2.92648 9.99332C3.06547 9.8542 3.25351 9.77527 3.45016 9.77347C3.64681 9.77167 3.83629 9.84718 3.97781 9.98374L5.42782 11.4337L6.86581 9.99374C7.00651 9.85305 7.19735 9.77396 7.39633 9.77396C7.5953 9.77396 7.78615 9.85305 7.92684 9.99374C8.06754 10.1344 8.14657 10.3252 8.14657 10.5242C8.14657 10.7232 8.06754 10.914 7.92684 11.0547L5.95785 13.0237C5.88831 13.0934 5.80569 13.1487 5.71475 13.1865C5.6238 13.2242 5.52629 13.2437 5.42782 13.2437Z" fill="#000000" />
<path d="M5.41069 13.2389C5.21178 13.2389 5.02101 13.1598 4.88036 13.0192C4.73971 12.8785 4.66069 12.6878 4.66069 12.4889V9.07887C4.61782 8.43772 4.70908 7.79469 4.9287 7.19081C5.14831 6.58692 5.49142 6.03549 5.93614 5.57166C6.38086 5.10784 6.9174 4.74182 7.51152 4.49702C8.10564 4.25222 8.74432 4.13396 9.38671 4.14985H15.6747C15.8736 4.14985 16.0644 4.22886 16.205 4.36952C16.3457 4.51017 16.4247 4.70094 16.4247 4.89985C16.4247 5.09876 16.3457 5.28953 16.205 5.43019C16.0644 5.57084 15.8736 5.64985 15.6747 5.64985H9.38671C8.9409 5.63279 8.49662 5.7115 8.08379 5.88062C7.67096 6.04975 7.29915 6.30539 6.99346 6.63032C6.68776 6.95525 6.45522 7.34192 6.31157 7.76429C6.16792 8.18666 6.1165 8.63493 6.16069 9.07887V12.4889C6.16069 12.6878 6.08168 12.8785 5.94103 13.0192C5.80038 13.1598 5.60961 13.2389 5.41069 13.2389Z" fill="#000000" />
<path d="M17.6148 7.62998C17.0828 7.62978 16.5628 7.47189 16.1206 7.17618C15.6783 6.88048 15.3337 6.46028 15.1303 5.96873C14.9268 5.47718 14.8737 4.93633 14.9776 4.41459C15.0815 3.89285 15.3378 3.41362 15.714 3.03751C16.0903 2.66141 16.5696 2.40533 17.0914 2.30161C17.6131 2.1979 18.154 2.25124 18.6454 2.45487C19.1369 2.6585 19.557 3.00325 19.8525 3.44559C20.1481 3.88794 20.3058 4.40799 20.3058 4.93998C20.305 5.65334 20.0212 6.33726 19.5167 6.84159C19.0122 7.34592 18.3282 7.62945 17.6148 7.62998ZM17.6148 3.749C17.3795 3.7492 17.1496 3.81915 16.954 3.94999C16.7585 4.08082 16.6061 4.26664 16.5162 4.48405C16.4262 4.70145 16.4028 4.94068 16.4487 5.17142C16.4947 5.40217 16.608 5.61407 16.7743 5.78043C16.9407 5.9468 17.1527 6.06011 17.3834 6.10606C17.6141 6.152 17.8533 6.12856 18.0707 6.03861C18.2881 5.94867 18.474 5.79629 18.6048 5.60075C18.7357 5.4052 18.8056 5.17525 18.8058 4.93998C18.8055 4.62419 18.6799 4.32142 18.4566 4.09812C18.2333 3.87482 17.9306 3.74926 17.6148 3.749Z" fill="#000000" />
<path d="M21.0444 14.2377C20.9459 14.2379 20.8484 14.2186 20.7574 14.1808C20.6664 14.143 20.5838 14.0876 20.5145 14.0176L19.0645 12.5687L17.6265 14.0076C17.4858 14.1483 17.2949 14.2274 17.0959 14.2274C16.897 14.2274 16.7061 14.1483 16.5654 14.0076C16.4247 13.8669 16.3457 13.6761 16.3457 13.4772C16.3457 13.2782 16.4247 13.0874 16.5654 12.9467L18.5344 10.9777C18.6041 10.908 18.6868 10.8527 18.7778 10.8149C18.8689 10.7772 18.9664 10.7578 19.0649 10.7578C19.1635 10.7578 19.261 10.7772 19.3521 10.8149C19.4431 10.8527 19.5258 10.908 19.5955 10.9777L21.5745 12.9576C21.6792 13.0625 21.7505 13.1961 21.7794 13.3415C21.8083 13.4869 21.7935 13.6376 21.7368 13.7745C21.68 13.9115 21.584 14.0286 21.4608 14.111C21.3375 14.1934 21.1927 14.2375 21.0444 14.2377Z" fill="#000000" />
<path d="M15.1035 19.8468H8.81445C8.61554 19.8468 8.42477 19.7678 8.28412 19.6271C8.14347 19.4865 8.06445 19.2957 8.06445 19.0968C8.06445 18.8979 8.14347 18.7071 8.28412 18.5665C8.42477 18.4258 8.61554 18.3468 8.81445 18.3468H15.1035C15.5492 18.3637 15.9934 18.2849 16.4062 18.1157C16.8189 17.9465 17.1906 17.6909 17.4963 17.366C17.8019 17.0411 18.0344 16.6545 18.1782 16.2322C18.3219 15.8099 18.3735 15.3617 18.3295 14.9178V11.5078C18.3295 11.3089 18.4085 11.1181 18.5491 10.9775C18.6898 10.8368 18.8806 10.7578 19.0795 10.7578C19.2784 10.7578 19.4691 10.8368 19.6098 10.9775C19.7505 11.1181 19.8295 11.3089 19.8295 11.5078V14.9178C19.8723 15.5589 19.781 16.202 19.5614 16.8058C19.3418 17.4097 18.9987 17.9612 18.554 18.425C18.1092 18.8889 17.5727 19.2548 16.9786 19.4996C16.3845 19.7444 15.7458 19.8627 15.1035 19.8468Z" fill="#000000" />
<path d="M6.87457 21.7472C6.34258 21.747 5.8226 21.5891 5.38037 21.2934C4.93813 20.9977 4.59346 20.5775 4.39001 20.0859C4.18657 19.5944 4.13346 19.0535 4.23736 18.5318C4.34127 18.01 4.59757 17.5308 4.97381 17.1547C5.35006 16.7786 5.82935 16.5225 6.35113 16.4188C6.87291 16.3151 7.41373 16.3684 7.90521 16.5721C8.39668 16.7757 8.81676 17.1204 9.1123 17.5628C9.40784 18.0051 9.56555 18.5252 9.56555 19.0572C9.56449 19.7704 9.28064 20.4542 8.77618 20.9585C8.27172 21.4627 7.58785 21.7464 6.87457 21.7472ZM6.87457 17.8662C6.63929 17.8664 6.40934 17.9363 6.2138 18.0672C6.01826 18.198 5.86588 18.3838 5.77594 18.6012C5.68599 18.8186 5.66254 19.0579 5.70849 19.2886C5.75444 19.5194 5.86775 19.7313 6.03412 19.8976C6.20048 20.064 6.41244 20.1773 6.64319 20.2232C6.87393 20.2692 7.1131 20.2457 7.3305 20.1558C7.54791 20.0659 7.73379 19.9135 7.86462 19.7179C7.99546 19.5224 8.06535 19.2924 8.06555 19.0572C8.06502 18.7415 7.93936 18.4389 7.71612 18.2156C7.49288 17.9924 7.19028 17.8667 6.87457 17.8662Z" fill="#000000" />
</svg>