<svg width="24px"  height="24px"  viewBox="0 0 25 24" fill="none" xmlns="http://www.w3.org/2000/svg">
<path d="M13.6899 7.46324C13.5626 7.46357 13.4373 7.43128 13.326 7.36949C13.2146 7.3077 13.121 7.21844 13.0539 7.11022L11.6299 4.83025C11.5777 4.74682 11.5423 4.6539 11.526 4.55681C11.5097 4.45972 11.5127 4.36034 11.5348 4.26439C11.5569 4.16845 11.5977 4.07783 11.6548 3.99767C11.712 3.91751 11.7844 3.84938 11.8679 3.79723L14.1599 2.36522C14.3287 2.25914 14.5328 2.2245 14.7272 2.26885C14.9215 2.3132 15.0903 2.43292 15.1964 2.60173C15.3025 2.77054 15.3372 2.97461 15.2928 3.16899C15.2485 3.36338 15.1288 3.53215 14.9599 3.63823L13.3039 4.67223L14.3299 6.31523C14.401 6.4287 14.4403 6.5591 14.444 6.69292C14.4476 6.82674 14.4153 6.95914 14.3505 7.07628C14.2857 7.19343 14.1908 7.29107 14.0755 7.35912C13.9602 7.42717 13.8288 7.46312 13.6949 7.46324H13.6899Z" fill="#000000" />
<path d="M18.6136 16.6078C18.4806 16.6077 18.35 16.5723 18.2353 16.505C18.1206 16.4378 18.0258 16.3413 17.9608 16.2253C17.8957 16.1093 17.8627 15.9782 17.8651 15.8452C17.8676 15.7123 17.9053 15.5824 17.9746 15.4688C18.5863 14.4678 18.9227 13.323 18.9497 12.1501C18.9767 10.9773 18.6934 9.81811 18.1283 8.79001C17.5633 7.7619 16.7366 6.90137 15.732 6.2955C14.7274 5.68963 13.5805 5.35997 12.4076 5.33987C12.2086 5.33815 12.0186 5.25744 11.8792 5.11557C11.7397 4.9737 11.6624 4.78225 11.6641 4.58334C11.6658 4.38443 11.7465 4.19433 11.8883 4.0549C12.0302 3.91547 12.2216 3.83815 12.4206 3.83987H12.4336C13.8705 3.86436 15.2756 4.26808 16.5064 5.01016C17.7372 5.75224 18.75 6.80631 19.4425 8.0657C20.1349 9.3251 20.4822 10.7451 20.4494 12.1819C20.4166 13.6187 20.0048 15.0214 19.2556 16.2478C19.1886 16.358 19.0943 16.4491 18.9818 16.5122C18.8694 16.5752 18.7425 16.6081 18.6136 16.6078Z" fill="#000000" />
<path d="M9.93965 21.7514C9.77628 21.7523 9.6171 21.6998 9.48628 21.602C9.35546 21.5041 9.26019 21.3662 9.21492 21.2092C9.16965 21.0522 9.17687 20.8848 9.23549 20.7323C9.2941 20.5798 9.40087 20.4506 9.53962 20.3644L11.1956 19.3314L10.1696 17.6884C10.1134 17.6049 10.0746 17.511 10.0555 17.4122C10.0364 17.3134 10.0373 17.2119 10.0582 17.1134C10.0792 17.015 10.1197 16.9219 10.1774 16.8395C10.2351 16.757 10.3088 16.6871 10.3941 16.6337C10.4794 16.5804 10.5745 16.5447 10.6739 16.5289C10.7733 16.513 10.8748 16.5174 10.9724 16.5416C11.0701 16.5658 11.1618 16.6095 11.2423 16.6699C11.3227 16.7303 11.3902 16.8064 11.4406 16.8934L12.8657 19.1734C12.971 19.3421 13.0051 19.5458 12.9605 19.7396C12.9159 19.9335 12.7962 20.1017 12.6276 20.2074L10.3347 21.6384C10.2159 21.7117 10.0792 21.7508 9.93965 21.7514Z" fill="#000000" />
<path d="M12.0801 20.1622H12.0661C9.93565 20.113 7.90792 19.237 6.41174 17.7195C4.91556 16.2021 4.06829 14.1622 4.04913 12.0312C4.03655 10.5717 4.42016 9.13602 5.15911 7.87725C5.26016 7.70579 5.42516 7.58146 5.61785 7.53167C5.81055 7.48188 6.01518 7.5107 6.18664 7.61175C6.3581 7.7128 6.48237 7.8778 6.53216 8.07049C6.58195 8.26318 6.55319 8.46775 6.45214 8.63922C5.85097 9.66479 5.53986 10.8345 5.55212 12.0232C5.5675 13.7631 6.25909 15.4287 7.48059 16.6677C8.70208 17.9068 10.3577 18.622 12.0971 18.6622C12.296 18.6641 12.4861 18.7449 12.6254 18.8868C12.7648 19.0288 12.842 19.2203 12.8401 19.4192C12.8383 19.6182 12.7574 19.8082 12.6155 19.9475C12.4735 20.0868 12.282 20.1641 12.0831 20.1622H12.0801Z" fill="#000000" />
<path d="M7.05862 9.5019C6.54582 9.50245 6.04439 9.35084 5.61782 9.06624C5.19126 8.78163 4.85876 8.37685 4.66238 7.90315C4.466 7.42945 4.41458 6.9081 4.51467 6.40516C4.61476 5.90223 4.86186 5.44032 5.22463 5.07789C5.46465 4.83584 5.75036 4.6439 6.06521 4.51326C6.38006 4.38261 6.71774 4.31589 7.05862 4.31691C7.40336 4.31014 7.74597 4.37216 8.06643 4.4994C8.3869 4.62665 8.67876 4.81653 8.92495 5.05793C9.17115 5.29934 9.36676 5.58744 9.50027 5.90535C9.63378 6.22325 9.70254 6.56457 9.70254 6.90937C9.70254 7.25418 9.63378 7.59556 9.50027 7.91346C9.36676 8.23137 9.17115 8.51947 8.92495 8.76088C8.67876 9.00228 8.3869 9.19216 8.06643 9.31941C7.74597 9.44665 7.40336 9.50868 7.05862 9.5019ZM7.05862 5.81691C6.91518 5.81662 6.77309 5.84475 6.64059 5.89967C6.50808 5.95459 6.38782 6.03524 6.28665 6.13691C6.10834 6.31575 5.99749 6.55084 5.97305 6.8022C5.94861 7.05355 6.01204 7.30561 6.15255 7.51545C6.29306 7.7253 6.50196 7.87994 6.74368 7.95308C6.98539 8.02621 7.24502 8.01332 7.4783 7.91658C7.71157 7.81983 7.90409 7.64524 8.0231 7.4225C8.1421 7.19976 8.18025 6.94265 8.13101 6.69496C8.08176 6.44727 7.94817 6.22432 7.75302 6.06404C7.55786 5.90376 7.31317 5.81609 7.06063 5.81593L7.05862 5.81691Z" fill="#000000" />
<path d="M17.365 19.8091C16.7648 19.8094 16.1831 19.6016 15.719 19.2211C15.2548 18.8406 14.937 18.3109 14.8196 17.7223C14.7022 17.1337 14.7926 16.5226 15.0753 15.9932C15.3581 15.4638 15.8156 15.0488 16.37 14.8189C16.9244 14.589 17.5414 14.5585 18.1158 14.7326C18.6902 14.9066 19.1864 15.2745 19.52 15.7734C19.8536 16.2724 20.0038 16.8715 19.9451 17.4688C19.8864 18.0662 19.6223 18.6246 19.198 19.049C18.9579 19.2907 18.6723 19.4824 18.3577 19.6128C18.043 19.7433 17.7056 19.81 17.365 19.8091ZM17.365 16.1231C17.0753 16.1229 16.7973 16.2376 16.592 16.4421C16.4903 16.5432 16.4096 16.6636 16.3545 16.7961C16.2994 16.9285 16.2711 17.0706 16.2711 17.2141C16.2711 17.3576 16.2994 17.4996 16.3545 17.6321C16.4096 17.7646 16.4903 17.8849 16.592 17.9861C16.8 18.1857 17.0772 18.2972 17.3655 18.2972C17.6538 18.2972 17.931 18.1857 18.139 17.9861C18.2921 17.8333 18.3964 17.6386 18.4386 17.4265C18.4809 17.2145 18.4592 16.9947 18.3764 16.795C18.2936 16.5952 18.1534 16.4246 17.9735 16.3046C17.7937 16.1846 17.5822 16.1207 17.366 16.1211L17.365 16.1231Z" fill="#000000" />
</svg>