<svg width="24px"  height="24px"  viewBox="0 0 25 24" fill="none" xmlns="http://www.w3.org/2000/svg">
<path d="M9.11746 20.0714C8.19707 20.0711 7.31445 19.7052 6.66373 19.0543C6.013 18.4034 5.64746 17.5207 5.64746 16.6003V15.5504C5.64878 14.63 6.01503 13.7477 6.66589 13.097C7.31676 12.4464 8.19911 12.0804 9.11945 12.0793H15.5915C16.1129 12.0783 16.6128 11.8711 16.9822 11.5031C17.3516 11.135 17.5605 10.6358 17.5634 10.1143V9.04932C17.5644 8.78993 17.5141 8.5329 17.4156 8.29297C17.317 8.05304 17.172 7.83496 16.989 7.65112C16.806 7.46729 16.5886 7.32134 16.3491 7.22168C16.1096 7.12202 15.8528 7.07057 15.5934 7.07031H15.5884L12.6454 7.0863C12.4465 7.0863 12.2558 7.00729 12.1151 6.86664C11.9745 6.72599 11.8954 6.53522 11.8954 6.3363C11.8954 6.13739 11.9745 5.94668 12.1151 5.80603C12.2558 5.66538 12.4465 5.5863 12.6454 5.5863L15.5905 5.57031H15.5995C16.0565 5.57031 16.5091 5.66058 16.9312 5.83588C17.3532 6.01117 17.7366 6.26807 18.0591 6.59186C18.3817 6.91564 18.6372 7.29991 18.8109 7.72266C18.9846 8.1454 19.0732 8.59832 19.0714 9.05536V10.1204C19.0664 11.0384 18.6986 11.9173 18.0482 12.5652C17.3978 13.2132 16.5176 13.5778 15.5995 13.5793H9.12744C8.60477 13.5799 8.10366 13.7877 7.73398 14.1572C7.3643 14.5267 7.15625 15.0277 7.15546 15.5504V16.6003C7.15572 17.1228 7.36334 17.6239 7.7327 17.9934C8.10206 18.363 8.60297 18.5708 9.12546 18.5714H12.9715C13.1704 18.5714 13.3611 18.6504 13.5018 18.791C13.6424 18.9317 13.7215 19.1224 13.7215 19.3214C13.7215 19.5203 13.6424 19.711 13.5018 19.8517C13.3611 19.9923 13.1704 20.0714 12.9715 20.0714H9.12546H9.11746Z" fill="#000000" />
<path d="M7.29636 10.3419C6.36436 10.3419 3.77637 8.05194 3.77637 5.74194C3.79193 4.81879 4.16957 3.93872 4.82791 3.29138C5.48625 2.64404 6.37258 2.28125 7.29587 2.28125C8.21915 2.28125 9.10548 2.64404 9.76382 3.29138C10.4222 3.93872 10.7998 4.81879 10.8154 5.74194C10.8154 8.05194 8.22736 10.3419 7.29636 10.3419ZM7.29636 3.71893C6.76087 3.7192 6.24739 3.93194 5.86865 4.31049C5.48991 4.68904 5.2769 5.20243 5.27637 5.73792C5.27637 7.05692 6.70836 8.43794 7.29636 8.78894C7.88436 8.43394 9.31537 7.05792 9.31537 5.73792C9.31484 5.20261 9.10194 4.68937 8.72342 4.31085C8.3449 3.93233 7.83167 3.71946 7.29636 3.71893Z" fill="#000000" />
<path d="M7.29395 6.50372C7.1974 6.50775 7.10104 6.49231 7.01059 6.45831C6.92014 6.42431 6.83747 6.37247 6.76749 6.30585C6.6975 6.23922 6.64164 6.15916 6.60324 6.0705C6.56484 5.98183 6.54467 5.88636 6.54395 5.78973V5.71875C6.54395 5.51984 6.62296 5.32907 6.76361 5.18842C6.90426 5.04776 7.09503 4.96875 7.29395 4.96875C7.49286 4.96875 7.68363 5.04776 7.82428 5.18842C7.96493 5.32907 8.04395 5.51984 8.04395 5.71875C8.04514 5.92131 7.96757 6.11641 7.82764 6.26288C7.6877 6.40934 7.49635 6.49569 7.29395 6.50372Z" fill="#000000" />
<path d="M19.9643 21.7214C19.8651 21.7216 19.7668 21.702 19.6753 21.6637C19.5838 21.6254 19.5008 21.5692 19.4313 21.4984L15.7053 17.7374C15.5693 17.5952 15.4945 17.4054 15.4971 17.2086C15.4998 17.0119 15.5797 16.8241 15.7195 16.6857C15.8594 16.5473 16.048 16.4694 16.2448 16.4688C16.4415 16.4681 16.6306 16.5448 16.7713 16.6824L20.4973 20.4444C20.6012 20.5496 20.6717 20.6832 20.6999 20.8284C20.7281 20.9735 20.7128 21.1238 20.6558 21.2603C20.5989 21.3967 20.5028 21.5133 20.3798 21.5953C20.2568 21.6774 20.1122 21.7213 19.9643 21.7214Z" fill="#000000" />
<path d="M16.2386 21.7156C16.0907 21.7155 15.9462 21.6717 15.8232 21.5896C15.7001 21.5076 15.6041 21.391 15.5471 21.2545C15.4902 21.1181 15.4748 20.9678 15.503 20.8226C15.5312 20.6775 15.6017 20.5439 15.7056 20.4387L19.4316 16.6766C19.5005 16.6047 19.5829 16.5473 19.6742 16.5076C19.7655 16.4679 19.8637 16.4467 19.9633 16.4454C20.0628 16.444 20.1616 16.4625 20.2539 16.4998C20.3462 16.537 20.4302 16.5922 20.5009 16.6622C20.5717 16.7323 20.6278 16.8157 20.666 16.9076C20.7042 16.9995 20.7237 17.0981 20.7234 17.1976C20.7231 17.2972 20.7029 17.3956 20.6642 17.4873C20.6254 17.579 20.5688 17.6621 20.4976 17.7316L16.7716 21.4926C16.7021 21.5635 16.6192 21.6197 16.5276 21.658C16.4361 21.6963 16.3378 21.7159 16.2386 21.7156Z" fill="#000000" />
</svg>