<svg width="24px"  height="24px"  viewBox="0 0 25 24" fill="none" xmlns="http://www.w3.org/2000/svg">
<path d="M8.8963 19.259C8.4323 19.2591 7.9728 19.1678 7.5441 18.9903C7.1154 18.8128 6.72589 18.5526 6.3978 18.2245C6.0697 17.8964 5.80946 17.5068 5.63196 17.0781C5.45445 16.6494 5.36315 16.1899 5.36328 15.726V14.652C5.36434 13.7149 5.73716 12.8164 6.3999 12.1539C7.06264 11.4913 7.96116 11.1188 8.89829 11.118H15.5173C16.055 11.1169 16.5706 10.9034 16.9516 10.5239C17.3326 10.1444 17.5481 9.62972 17.5513 9.09198V8.00195C17.5524 7.73439 17.5006 7.46925 17.3989 7.22174C17.2973 6.97423 17.1478 6.74919 16.959 6.55957C16.7702 6.36995 16.5459 6.21949 16.2988 6.11676C16.0518 6.01403 15.7869 5.96107 15.5193 5.96094H15.5143L8.38428 5.97693C8.18537 5.97693 7.99463 5.89792 7.85397 5.75726C7.71332 5.61661 7.63428 5.42584 7.63428 5.22693C7.63428 5.02802 7.71332 4.83731 7.85397 4.69666C7.99463 4.556 8.18537 4.47693 8.38428 4.47693L15.5143 4.46094C16.4516 4.47673 17.348 4.84774 18.0223 5.49896C18.3526 5.82744 18.614 6.21858 18.7913 6.64941C18.9685 7.08025 19.0579 7.54209 19.0543 8.00793V9.09796C19.049 10.0323 18.6746 10.9267 18.0125 11.5861C17.3505 12.2454 16.4547 12.6164 15.5203 12.618H8.90128C8.3619 12.6185 7.84475 12.8329 7.46326 13.2142C7.08176 13.5955 6.8671 14.1126 6.8663 14.652V15.726C6.86604 15.9931 6.91846 16.2577 7.0206 16.5045C7.12274 16.7514 7.27258 16.9756 7.46152 17.1644C7.65046 17.3533 7.87478 17.503 8.12167 17.605C8.36856 17.7071 8.63316 17.7594 8.9003 17.759L12.8343 17.754C13.0332 17.754 13.224 17.833 13.3646 17.9736C13.5053 18.1143 13.5843 18.3051 13.5843 18.504C13.5843 18.7029 13.5053 18.8936 13.3646 19.0343C13.224 19.175 13.0332 19.254 12.8343 19.254L8.9003 19.259H8.8963Z" fill="#000000" />
<path d="M6.16449 8.16376C5.77464 8.16502 5.38839 8.08918 5.02798 7.94055C4.66758 7.79193 4.34012 7.57343 4.06448 7.29773C3.78894 7.02254 3.57035 6.69573 3.4212 6.336C3.27206 5.97626 3.19531 5.59066 3.19531 5.20123C3.19531 4.81181 3.27206 4.4262 3.4212 4.06647C3.57035 3.70673 3.78894 3.37993 4.06448 3.10474C4.62917 2.5661 5.37961 2.26562 6.16 2.26562C6.94039 2.26562 7.6908 2.5661 8.25549 3.10474C8.67095 3.51918 8.95395 4.0477 9.06857 4.62323C9.18319 5.19876 9.12427 5.79535 8.89929 6.33734C8.67431 6.87933 8.2934 7.34231 7.8049 7.66748C7.3164 7.99265 6.74231 8.16536 6.15549 8.16376H6.16449ZM5.12949 6.23676C5.40412 6.51139 5.77662 6.66565 6.16501 6.66565C6.5534 6.66565 6.92587 6.51139 7.2005 6.23676C7.47513 5.96212 7.62943 5.58962 7.62943 5.20123C7.62943 4.81284 7.47513 4.4404 7.2005 4.16577C6.92149 3.89954 6.55066 3.75098 6.16501 3.75098C5.77936 3.75098 5.4085 3.89954 5.12949 4.16577C4.99345 4.30173 4.88555 4.46313 4.81192 4.64081C4.73829 4.81848 4.70041 5.00891 4.70041 5.20123C4.70041 5.39356 4.73829 5.58404 4.81192 5.76172C4.88555 5.93939 4.99345 6.1008 5.12949 6.23676Z" fill="#000000" />
<path d="M16.743 21.7326C16.5635 21.7328 16.3857 21.6975 16.2198 21.629C16.0539 21.5604 15.9031 21.4598 15.7761 21.333C15.6491 21.2061 15.5483 21.0555 15.4795 20.8897C15.4107 20.7239 15.3752 20.5461 15.375 20.3666V16.5926C15.3736 16.3513 15.4367 16.114 15.5579 15.9053C15.679 15.6966 15.8538 15.5241 16.0641 15.4056C16.2738 15.2864 16.5113 15.2247 16.7525 15.2266C16.9938 15.2285 17.2302 15.2941 17.438 15.4167L20.638 17.3077C20.8411 17.4284 21.0093 17.5999 21.1261 17.8053C21.2429 18.0107 21.3044 18.2429 21.3044 18.4792C21.3044 18.7154 21.2429 18.9476 21.1261 19.153C21.0093 19.3584 20.8411 19.5299 20.638 19.6507L17.438 21.5436C17.2275 21.6677 16.9874 21.733 16.743 21.7326ZM16.876 16.8266V20.1327L19.676 18.4797L16.876 16.8266Z" fill="#000000" />
</svg>