<svg width="24px"  height="24px"  viewBox="0 0 25 24" fill="none" xmlns="http://www.w3.org/2000/svg">
<path d="M7.02148 6.36853C6.92391 6.37039 6.82693 6.35286 6.73621 6.31689C6.64549 6.28093 6.56284 6.22727 6.49304 6.15906C6.42325 6.09085 6.36772 6.00943 6.32968 5.91956C6.29164 5.82968 6.27186 5.73315 6.27148 5.63556V5.60156C6.27148 5.40265 6.3505 5.21188 6.49115 5.07123C6.6318 4.93058 6.82257 4.85156 7.02148 4.85156C7.2204 4.85156 7.41117 4.93058 7.55182 5.07123C7.69247 5.21188 7.77148 5.40265 7.77148 5.60156C7.77231 5.8023 7.69409 5.99527 7.55374 6.13879C7.41339 6.28232 7.22219 6.36485 7.02148 6.36853Z" fill="#000000" />
<path d="M8.74911 19.2737C7.86494 19.2732 7.01709 18.922 6.39151 18.2971C5.76593 17.6723 5.4137 16.8248 5.41211 15.9407V14.9407C5.41343 14.0569 5.76515 13.2098 6.39014 12.585C7.01513 11.9602 7.86239 11.6087 8.74612 11.6077H14.8891C15.3738 11.6066 15.8385 11.4142 16.182 11.0722C16.5255 10.7302 16.72 10.2664 16.7231 9.78168V8.76972C16.7242 8.52838 16.6775 8.28918 16.5859 8.06592C16.4942 7.84266 16.3594 7.63973 16.189 7.46875C16.0187 7.29777 15.8163 7.16215 15.5934 7.06964C15.3704 6.97714 15.1314 6.92956 14.8901 6.92969L12.3901 6.94367C12.1912 6.94367 12.0004 6.86465 11.8598 6.724C11.7191 6.58335 11.6401 6.39258 11.6401 6.19367C11.6401 5.99475 11.7191 5.80398 11.8598 5.66333C12.0004 5.52268 12.1912 5.44367 12.3901 5.44367L14.8901 5.42969H14.8981C15.3371 5.42916 15.772 5.51544 16.1776 5.68354C16.5831 5.85163 16.9515 6.09823 17.2614 6.40918C17.5713 6.72014 17.8167 7.08929 17.9835 7.49542C18.1503 7.90155 18.2351 8.33667 18.2331 8.7757V9.7887C18.2276 10.6698 17.874 11.5131 17.2496 12.1348C16.6251 12.7564 15.7803 13.1061 14.8991 13.1077H8.74911C8.26304 13.1082 7.79701 13.3015 7.45322 13.6451C7.10942 13.9887 6.91589 14.4546 6.9151 14.9407V15.9407C6.91589 16.4271 7.10969 16.8933 7.45392 17.237C7.79815 17.5807 8.26471 17.7737 8.75113 17.7737L12.4011 17.7687C12.6 17.7687 12.7908 17.8477 12.9315 17.9883C13.0721 18.129 13.1511 18.3198 13.1511 18.5187C13.1511 18.7176 13.0721 18.9084 12.9315 19.049C12.7908 19.1897 12.6 19.2687 12.4011 19.2687L8.74911 19.2737Z" fill="#000000" />
<path d="M17.4806 21.7523C16.5866 21.7523 14.1016 19.5603 14.1016 17.3443C14.1168 16.4583 14.4795 15.6138 15.1114 14.9926C15.7433 14.3715 16.594 14.0234 17.4801 14.0234C18.3662 14.0234 19.2168 14.3715 19.8488 14.9926C20.4807 15.6138 20.8433 16.4583 20.8586 17.3443C20.8586 19.5603 18.3756 21.7523 17.4806 21.7523ZM17.4806 15.4663C16.9826 15.4668 16.5051 15.6648 16.1529 16.0168C15.8006 16.3689 15.6024 16.8463 15.6016 17.3443C15.7014 17.9233 15.9199 18.4755 16.2432 18.9661C16.5666 19.4567 16.9878 19.8751 17.4806 20.1953C17.9729 19.8748 18.3937 19.4562 18.7169 18.9656C19.04 18.4751 19.2585 17.9231 19.3586 17.3443C19.3581 16.8464 19.16 16.369 18.8079 16.0169C18.4558 15.6648 17.9785 15.4668 17.4806 15.4663Z" fill="#000000" />
<path d="M7.01962 10.037C6.12462 10.037 3.64062 7.84497 3.64062 5.62897C3.64063 4.7328 3.99662 3.87337 4.63031 3.23969C5.264 2.606 6.12346 2.25 7.01962 2.25C7.91579 2.25 8.77525 2.606 9.40894 3.23969C10.0426 3.87337 10.3986 4.7328 10.3986 5.62897C10.3986 7.84497 7.91362 10.037 7.01962 10.037ZM7.01962 3.75098C6.52154 3.75124 6.04391 3.94916 5.69162 4.30127C5.33933 4.65338 5.14115 5.13088 5.14062 5.62897C5.24043 6.20802 5.45888 6.76017 5.78223 7.25079C6.10558 7.74141 6.52685 8.15992 7.01962 8.47998C7.51223 8.15974 7.93341 7.7412 8.25674 7.25061C8.58008 6.76002 8.79859 6.20794 8.89862 5.62897C8.89783 5.13096 8.69959 4.65362 8.34735 4.30157C7.99511 3.94952 7.51763 3.75151 7.01962 3.75098Z" fill="#000000" />
<path d="M17.4805 18.0883C17.3828 18.0902 17.2858 18.0726 17.195 18.0366C17.1042 18.0005 17.0215 17.9468 16.9517 17.8785C16.8819 17.8102 16.8264 17.7286 16.7884 17.6386C16.7504 17.5486 16.7307 17.452 16.7305 17.3543V17.3203C16.7305 17.1214 16.8095 16.9306 16.9502 16.79C17.0908 16.6493 17.2816 16.5703 17.4805 16.5703C17.6794 16.5703 17.8702 16.6493 18.0108 16.79C18.1515 16.9306 18.2305 17.1214 18.2305 17.3203C18.2313 17.5211 18.1531 17.7143 18.0128 17.858C17.8725 18.0017 17.6813 18.0844 17.4805 18.0883Z" fill="#000000" />
</svg>