<svg width="24px"  height="24px"  viewBox="0 0 25 24" fill="none" xmlns="http://www.w3.org/2000/svg">
<path d="M9.06335 19.9951C8.0923 19.9948 7.16112 19.6089 6.47458 18.9221C5.78804 18.2354 5.40234 17.3041 5.40234 16.3331V15.209C5.4034 14.238 5.7897 13.307 6.47644 12.6204C7.16319 11.9339 8.09427 11.5479 9.06534 11.5471H15.9914C16.5632 11.5458 17.1114 11.3186 17.5165 10.9149C17.9217 10.5113 18.1509 9.96396 18.1544 9.39209V8.25208C18.1553 7.96753 18.1 7.6856 17.9918 7.42243C17.8836 7.15926 17.7245 6.92003 17.5237 6.71845C17.3228 6.51687 17.0842 6.35688 16.8214 6.24768C16.5586 6.13849 16.2769 6.08216 15.9923 6.08203L12.8444 6.09809C12.6454 6.09809 12.4547 6.01907 12.314 5.87842C12.1734 5.73777 12.0944 5.547 12.0944 5.34809C12.0944 5.14917 12.1734 4.9584 12.314 4.81775C12.4547 4.6771 12.6454 4.59809 12.8444 4.59809L15.9954 4.58203H16.0023C16.4848 4.58137 16.9625 4.67608 17.4082 4.86072C17.8539 5.04536 18.2587 5.31628 18.5993 5.6579C18.9399 5.99953 19.2096 6.40516 19.3929 6.85138C19.5762 7.29761 19.6695 7.77566 19.6674 8.25806V9.39704C19.6618 10.3656 19.2737 11.2928 18.5876 11.9764C17.9015 12.6601 16.973 13.045 16.0044 13.0471H9.07834C8.50501 13.0476 7.9553 13.2755 7.5498 13.6809C7.14431 14.0862 6.91614 14.6357 6.91534 15.209V16.3331C6.91561 16.9062 7.14334 17.4558 7.54852 17.8612C7.9537 18.2666 8.50321 18.4945 9.07635 18.4951L13.1924 18.4901C13.3913 18.4901 13.582 18.5691 13.7227 18.7097C13.8633 18.8504 13.9424 19.0411 13.9424 19.2401C13.9424 19.439 13.8633 19.6297 13.7227 19.7704C13.582 19.911 13.3913 19.9901 13.1924 19.9901L9.07635 19.9951H9.06335Z" fill="#000000" />
<path d="M6.20271 8.38397C5.79978 8.38475 5.40071 8.3056 5.02857 8.15112C4.65644 7.99663 4.31862 7.76985 4.03471 7.48394C3.67818 7.12741 3.41511 6.68848 3.26875 6.20599C3.12239 5.72349 3.09726 5.21234 3.19563 4.71783C3.29399 4.22331 3.51282 3.76072 3.83268 3.37096C4.15255 2.98121 4.56357 2.67634 5.0294 2.48339C5.49522 2.29044 6.00147 2.21534 6.50324 2.26476C7.00502 2.31418 7.48684 2.4866 7.90608 2.76672C8.32531 3.04684 8.669 3.42599 8.90669 3.87066C9.14437 4.31533 9.26871 4.81177 9.26872 5.31597C9.26845 6.12914 8.94539 6.90891 8.37049 7.484C7.79559 8.05909 7.01587 8.38246 6.20271 8.38299V8.38397ZM5.09471 6.42498C5.39262 6.7107 5.78944 6.87023 6.20222 6.87023C6.615 6.87023 7.01182 6.7107 7.30973 6.42498C7.60358 6.13111 7.76866 5.73252 7.76866 5.31695C7.76866 4.90137 7.60358 4.50284 7.30973 4.20898C7.01365 3.92619 6.61864 3.77052 6.20924 3.77526C5.79984 3.78001 5.40856 3.94479 5.11912 4.23437C4.82968 4.52394 4.66506 4.9153 4.6605 5.3247C4.65594 5.7341 4.81179 6.12903 5.09471 6.42498Z" fill="#000000" />
<path d="M20.611 21.7492C20.5118 21.7492 20.4136 21.7296 20.3221 21.6913C20.2305 21.653 20.1476 21.5969 20.078 21.5262L16.091 17.5012C16.0198 17.4316 15.9632 17.3485 15.9244 17.2568C15.8857 17.1652 15.8655 17.0667 15.8652 16.9672C15.8649 16.8676 15.8845 16.769 15.9226 16.6771C15.9608 16.5851 16.0169 16.5018 16.0877 16.4318C16.1584 16.3618 16.2424 16.3065 16.3347 16.2693C16.427 16.2321 16.5258 16.2136 16.6254 16.2149C16.7249 16.2163 16.8232 16.2374 16.9144 16.2771C17.0057 16.3168 17.0882 16.3743 17.157 16.4462L21.145 20.4722C21.249 20.5775 21.3195 20.7111 21.3476 20.8564C21.3758 21.0017 21.3604 21.152 21.3033 21.2885C21.2462 21.425 21.15 21.5416 21.0268 21.6235C20.9036 21.7055 20.759 21.7492 20.611 21.7492Z" fill="#000000" />
<path d="M16.6224 21.7498C16.4745 21.7497 16.33 21.7059 16.2069 21.6239C16.0839 21.5418 15.9879 21.4252 15.9309 21.2887C15.8739 21.1522 15.8586 21.002 15.8868 20.8568C15.915 20.7117 15.9855 20.5781 16.0894 20.4729L20.0764 16.4469C20.1457 16.3765 20.2281 16.3205 20.319 16.2821C20.4099 16.2436 20.5076 16.2234 20.6063 16.2227C20.705 16.2219 20.8028 16.2406 20.8943 16.2777C20.9858 16.3148 21.0691 16.3696 21.1394 16.4389C21.2097 16.5081 21.2657 16.5906 21.3042 16.6815C21.3426 16.7724 21.3628 16.87 21.3636 16.9687C21.3643 17.0674 21.3456 17.1653 21.3085 17.2568C21.2714 17.3483 21.2167 17.4315 21.1474 17.5019L17.1594 21.5269C17.0894 21.5981 17.0058 21.6545 16.9135 21.6928C16.8213 21.7311 16.7223 21.7505 16.6224 21.7498Z" fill="#000000" />
</svg>