<svg width="24px"  height="24px"  viewBox="0 0 25 24" fill="none" xmlns="http://www.w3.org/2000/svg">
<path fill-rule="evenodd" clip-rule="evenodd" d="M3.99014 3.89731C4.97459 2.84115 6.37656 2.25 8.03197 2.25H16.4663C18.1256 2.25 19.5282 2.84082 20.5122 3.89759C21.4906 4.94832 21.9993 6.39875 21.9993 8.02618V15.9731C21.9993 17.6005 21.4906 19.051 20.512 20.1017C19.5279 21.1585 18.1251 21.7493 16.4654 21.7493H9.0453C9.03428 21.7498 9.0232 21.75 9.01207 21.75C9.00093 21.75 8.98986 21.7498 8.97884 21.7493H8.03197C6.37267 21.7493 4.9703 21.1584 3.98652 20.1016C3.0084 19.0508 2.5 17.6004 2.5 15.9731V8.02618C2.5 6.39791 3.01115 4.94762 3.99014 3.89731ZM9.76207 20.2493H16.4654C17.7546 20.2493 18.7438 19.7995 19.4143 19.0795C20.0905 18.3534 20.4993 17.2907 20.4993 15.9731V8.96147H9.76207V20.2493ZM8.26207 8.96147V20.2493H8.03197C6.74328 20.2493 5.75467 19.7996 5.08445 19.0796C4.40859 18.3535 4 17.2908 4 15.9731V8.96147H8.26207ZM4.02621 7.46147H20.4732C20.3732 6.40316 19.991 5.53906 19.4144 4.91978C18.7439 4.19973 17.755 3.75 16.4663 3.75H8.03197C6.74815 3.75 5.75913 4.19941 5.0874 4.92006C4.5099 5.53963 4.12655 6.40378 4.02621 7.46147ZM15.1433 11.8812C14.0787 11.8812 13.2158 12.7441 13.2158 13.8087C13.2158 14.487 13.6329 15.244 14.2047 15.8877C14.4795 16.1969 14.7626 16.4485 14.9902 16.6168C15.0479 16.6595 15.0992 16.6947 15.1433 16.723C15.1874 16.6947 15.2387 16.6595 15.2964 16.6168C15.5241 16.4485 15.8071 16.1969 16.0819 15.8877C16.6537 15.244 17.0708 14.487 17.0708 13.8087C17.0708 12.7441 16.208 11.8812 15.1433 11.8812ZM14.9885 16.8084C14.9885 16.8084 14.9925 16.8064 14.9998 16.804C14.992 16.8074 14.9885 16.8084 14.9885 16.8084ZM15.2868 16.804C15.2941 16.8064 15.2981 16.8084 15.2981 16.8084C15.2981 16.8084 15.2946 16.8074 15.2868 16.804ZM11.7158 13.8087C11.7158 11.9157 13.2502 10.3812 15.1433 10.3812C17.0364 10.3812 18.5708 11.9157 18.5708 13.8087C18.5708 15.0355 17.8632 16.1411 17.2033 16.8839C16.8622 17.2679 16.5026 17.5904 16.1881 17.823C16.0317 17.9386 15.8751 18.0404 15.7283 18.117C15.6179 18.1747 15.3943 18.2841 15.1433 18.2841C14.8923 18.2841 14.6687 18.1747 14.5583 18.117C14.4115 18.0404 14.2549 17.9386 14.0985 17.823C13.784 17.5904 13.4244 17.2679 13.0833 16.8839C12.4234 16.1411 11.7158 15.0355 11.7158 13.8087ZM15.1433 13.036C15.5575 13.036 15.8933 13.3718 15.8933 13.786V13.793C15.8933 14.2072 15.5575 14.543 15.1433 14.543C14.729 14.543 14.3933 14.2072 14.3933 13.793V13.786C14.3933 13.3718 14.729 13.036 15.1433 13.036Z" fill="#000000" />
</svg>