<svg width="24px"  height="24px"  viewBox="0 0 25 24" fill="none" xmlns="http://www.w3.org/2000/svg">
<path fill-rule="evenodd" clip-rule="evenodd" d="M3.99183 3.89702C4.97611 2.84104 6.37782 2.25 8.03292 2.25H16.4655C18.1245 2.25 19.5268 2.84072 20.5107 3.8973C21.4889 4.94784 21.9975 6.398 21.9975 8.02513V15.9704C21.9975 17.5975 21.4889 19.0477 20.5105 20.0983C19.5265 21.1549 18.1239 21.7455 16.4646 21.7455H9.85881C9.80461 21.7516 9.74905 21.7518 9.69294 21.7455H8.03292C6.37393 21.7455 4.97181 21.1548 3.98821 20.0981C3.01026 19.0476 2.50195 17.5974 2.50195 15.9704V8.02513C2.50195 7.27697 2.60989 6.56639 2.82156 5.91494C2.83551 5.83724 2.86142 5.7637 2.89732 5.69629C3.14718 5.01836 3.5137 4.40998 3.99183 3.89702ZM4.10595 6.9254L11.3824 8.43284L9.15423 20.2455H8.03292C6.74454 20.2455 5.75618 19.7959 5.08614 19.0761C4.41045 18.3502 4.00195 17.2878 4.00195 15.9704V8.02513C4.00195 7.63561 4.03786 7.26832 4.10595 6.9254ZM10.6807 20.2455H16.4646C17.7535 20.2455 18.7424 19.7958 19.4128 19.076C20.0888 18.3501 20.4975 17.2877 20.4975 15.9704V10.3083L12.8516 8.73607L10.6807 20.2455ZM12.5176 7.136L20.4975 8.77688V8.02513C20.4975 6.70779 20.0888 5.6454 19.4129 4.91949C18.7426 4.19962 17.7539 3.75 16.4655 3.75H8.03292C6.74941 3.75 5.76064 4.1993 5.08909 4.91977C4.92512 5.09567 4.77682 5.2913 4.6462 5.50547L12.2943 7.08991L12.5176 7.136Z" fill="#000000" />
</svg>