<svg width="24px"  height="24px"  viewBox="0 0 25 24" fill="none" xmlns="http://www.w3.org/2000/svg">
<path d="M15.5391 17.0976C15.3402 17.0976 15.1494 17.0186 15.0087 16.8779C14.8681 16.7372 14.7891 16.5465 14.7891 16.3476V9.22656C14.7891 9.02765 14.8681 8.83688 15.0087 8.69623C15.1494 8.55558 15.3402 8.47656 15.5391 8.47656C15.738 8.47656 15.9287 8.55558 16.0694 8.69623C16.21 8.83688 16.2891 9.02765 16.2891 9.22656V16.3476C16.2891 16.5465 16.21 16.7372 16.0694 16.8779C15.9287 17.0186 15.738 17.0976 15.5391 17.0976Z" fill="#000000" />
<path d="M8.71094 15.9569C8.51203 15.9569 8.32126 15.8779 8.1806 15.7373C8.03995 15.5966 7.96094 15.4059 7.96094 15.2069V8.08594C7.96094 7.88703 8.03995 7.69626 8.1806 7.5556C8.32126 7.41495 8.51203 7.33594 8.71094 7.33594C8.90985 7.33594 9.10062 7.41495 9.24127 7.5556C9.38192 7.69626 9.46094 7.88703 9.46094 8.08594V15.2069C9.46094 15.4059 9.38192 15.5966 9.24127 15.7373C9.10062 15.8779 8.90985 15.9569 8.71094 15.9569Z" fill="#000000" />
<path d="M15.609 21.6381C15.3531 21.6379 15.0993 21.5929 14.859 21.505L9.12698 19.4201C8.9587 19.358 8.77283 19.3641 8.60898 19.4371L5.021 21.0371C4.74798 21.1584 4.44897 21.2095 4.15115 21.1859C3.85334 21.1623 3.56614 21.0646 3.31567 20.9017C3.0652 20.7389 2.8594 20.5161 2.71695 20.2535C2.5745 19.9909 2.49993 19.6968 2.5 19.3981V6.72905C2.50053 6.21301 2.65036 5.70818 2.93143 5.2754C3.21249 4.84263 3.61277 4.5004 4.08398 4.29005L7.99899 2.55107C8.51759 2.31737 9.10719 2.29653 9.64099 2.49306L15.373 4.57805C15.5412 4.64055 15.7272 4.63444 15.891 4.56105L19.479 2.96107C19.752 2.83977 20.051 2.78861 20.3488 2.81224C20.6466 2.83587 20.9338 2.93355 21.1843 3.09639C21.4348 3.25923 21.6406 3.48207 21.783 3.74467C21.9255 4.00727 22.0001 4.3013 22 4.60005V17.2651C21.9995 17.781 21.8497 18.2857 21.5686 18.7184C21.2875 19.151 20.8872 19.493 20.416 19.703L16.501 21.4421C16.2207 21.5694 15.9168 21.6362 15.609 21.6381ZM15.37 20.095C15.5389 20.1558 15.7247 20.1494 15.889 20.0771L19.805 18.337C20.0112 18.2451 20.1864 18.0954 20.3094 17.9061C20.4323 17.7167 20.4979 17.4958 20.498 17.2701V4.60505C20.4983 4.55612 20.4863 4.50791 20.4631 4.46483C20.4399 4.42174 20.4062 4.38519 20.3652 4.3585C20.3242 4.33182 20.2771 4.31586 20.2283 4.31212C20.1795 4.30837 20.1306 4.31694 20.086 4.33705L16.499 5.93107C15.9806 6.16295 15.3922 6.18338 14.859 5.98805L9.125 3.90306C8.9565 3.84183 8.77083 3.84829 8.60699 3.92106L4.69098 5.66105C4.48476 5.75326 4.30964 5.90317 4.18668 6.09266C4.06372 6.28216 3.99818 6.50315 3.99799 6.72905V19.393C3.99759 19.4419 4.00949 19.4901 4.03256 19.5332C4.05564 19.5763 4.08916 19.6129 4.13007 19.6397C4.17097 19.6665 4.21796 19.6826 4.26669 19.6865C4.31543 19.6904 4.36435 19.682 4.409 19.6621L7.99698 18.0621C8.51571 17.8287 9.10531 17.8082 9.63898 18.005L15.37 20.095Z" fill="#000000" />
</svg>