<svg width="24px"  height="24px"  viewBox="0 0 25 24" fill="none" xmlns="http://www.w3.org/2000/svg">
<path fill-rule="evenodd" clip-rule="evenodd" d="M3.99019 3.89736C4.97467 2.84116 6.37667 2.25 8.03213 2.25H16.4668C18.1261 2.25 19.5287 2.84084 20.5128 3.89764C21.4912 4.9484 21.9999 6.39887 21.9999 8.02635V15.9735C21.9999 17.601 21.4912 19.0515 20.5126 20.1023C19.5284 21.1591 18.1256 21.7499 16.4658 21.7499H8.79351C8.78065 21.7502 8.76772 21.7502 8.75475 21.7499H8.03213C6.37278 21.7499 4.97037 21.159 3.98657 20.1022C3.00841 19.0514 2.5 17.6009 2.5 15.9735V8.02635C2.5 6.39803 3.01116 4.9477 3.99019 3.89736ZM9.6777 20.2499H16.4658C17.7551 20.2499 18.7443 19.8001 19.4149 19.08C20.0911 18.3539 20.4999 17.2912 20.4999 15.9735V10.9185L11.7727 9.12242L9.6777 20.2499ZM11.4399 7.52251L20.4999 9.38702V8.02635C20.4999 6.70866 20.0911 5.64595 19.415 4.91983C18.7445 4.19975 17.7555 3.75 16.4668 3.75H8.03213C6.74826 3.75 5.7592 4.19942 5.08744 4.92011C4.79125 5.23789 4.54612 5.62 4.36405 6.05956L11.2136 7.47583C11.2928 7.47967 11.3689 7.49584 11.4399 7.52251ZM10.3034 8.81935L8.15135 20.2499H8.03213C6.74339 20.2499 5.75474 19.8002 5.0845 19.0801C4.40861 18.354 4 17.2913 4 15.9735V8.02635C4 7.85323 4.00709 7.6845 4.02094 7.52035L10.3034 8.81935Z" fill="#000000" />
</svg>