<svg width="24px"  height="24px"  viewBox="0 0 25 24" fill="none" xmlns="http://www.w3.org/2000/svg">
<path fill-rule="evenodd" clip-rule="evenodd" d="M4.50098 11.9991C4.50098 7.71951 7.97049 4.25 12.25 4.25C16.5296 4.25 19.9991 7.71951 19.9991 11.9991C19.9991 16.2795 16.5297 19.7491 12.25 19.7491C7.97042 19.7491 4.50098 16.2795 4.50098 11.9991ZM12.25 5.75C8.79891 5.75 6.00098 8.54794 6.00098 11.9991C6.00098 15.4512 8.79898 18.2491 12.25 18.2491C15.7011 18.2491 18.4991 15.4512 18.4991 11.9991C18.4991 8.54794 15.7012 5.75 12.25 5.75Z" fill="#000000" />
<path fill-rule="evenodd" clip-rule="evenodd" d="M12.2483 18.25C12.6625 18.25 12.9982 18.5858 12.9982 19.0001L12.998 20.9991C12.998 21.4133 12.6622 21.749 12.248 21.749C11.8338 21.749 11.498 21.4132 11.498 20.9989L11.4982 18.9999C11.4982 18.5857 11.834 18.25 12.2483 18.25Z" fill="#000000" />
<path fill-rule="evenodd" clip-rule="evenodd" d="M3.24988 11.2503L5.25079 11.25C5.665 11.2499 6.00085 11.5857 6.00091 11.9999C6.00098 12.4141 5.66525 12.7499 5.25104 12.75L3.25012 12.7503C2.83591 12.7504 2.50007 12.4147 2.5 12.0004C2.49993 11.5862 2.83566 11.2504 3.24988 11.2503Z" fill="#000000" />
<path fill-rule="evenodd" clip-rule="evenodd" d="M12.2499 2.25C12.6642 2.24997 13 2.58573 13 2.99994L13.0001 4.99991C13.0002 5.41412 12.6644 5.74993 12.2502 5.74996C11.836 5.74999 11.5002 5.41423 11.5001 5.00002L11.5 3.00006C11.5 2.58584 11.8357 2.25003 12.2499 2.25Z" fill="#000000" />
<path fill-rule="evenodd" clip-rule="evenodd" d="M18.5 11.9999C18.5001 11.5857 18.8359 11.2499 19.2501 11.25L21.2511 11.2503C21.6653 11.2504 22.001 11.5862 22.0009 12.0004C22.0009 12.4147 21.665 12.7504 21.2508 12.7503L19.2499 12.75C18.8357 12.7499 18.4999 12.4141 18.5 11.9999Z" fill="#000000" />
</svg>