<svg width="24px"  height="24px"  viewBox="0 0 25 24" fill="none" xmlns="http://www.w3.org/2000/svg">
<path fill-rule="evenodd" clip-rule="evenodd" d="M12.2501 5.95703C8.91364 5.95703 6.20898 8.66169 6.20898 11.9982C6.20898 15.3347 8.91364 18.0393 12.2501 18.0393C15.5866 18.0393 18.2913 15.3347 18.2913 11.9982C18.2913 8.66169 15.5866 5.95703 12.2501 5.95703ZM4.70898 11.9982C4.70898 7.83326 8.08522 4.45703 12.2501 4.45703C16.415 4.45703 19.7913 7.83326 19.7913 11.9982C19.7913 16.1631 16.415 19.5393 12.2501 19.5393C8.08522 19.5393 4.70898 16.1631 4.70898 11.9982Z" fill="#000000" />
<path fill-rule="evenodd" clip-rule="evenodd" d="M12.2501 10.6719C11.5182 10.6719 10.9248 11.2652 10.9248 11.9972C10.9248 12.7286 11.5177 13.3215 12.2501 13.3215C12.9825 13.3215 13.5754 12.7286 13.5754 11.9972C13.5754 11.2652 12.982 10.6719 12.2501 10.6719ZM9.4248 11.9972C9.4248 10.4368 10.6898 9.17188 12.2501 9.17188C13.8104 9.17188 15.0754 10.4368 15.0754 11.9972C15.0754 13.558 13.81 14.8215 12.2501 14.8215C10.6902 14.8215 9.4248 13.558 9.4248 11.9972Z" fill="#000000" />
<path fill-rule="evenodd" clip-rule="evenodd" d="M12.25 16.5156C12.6642 16.5156 13 16.8514 13 17.2656V20.9978C13 21.412 12.6642 21.7478 12.25 21.7478C11.8358 21.7478 11.5 21.412 11.5 20.9978V17.2656C11.5 16.8514 11.8358 16.5156 12.25 16.5156Z" fill="#000000" />
<path fill-rule="evenodd" clip-rule="evenodd" d="M12.25 2.25C12.6642 2.25 13 2.58579 13 3V6.73318C13 7.14739 12.6642 7.48318 12.25 7.48318C11.8358 7.48318 11.5 7.14739 11.5 6.73318V3C11.5 2.58579 11.8358 2.25 12.25 2.25Z" fill="#000000" />
<path fill-rule="evenodd" clip-rule="evenodd" d="M2.5 12C2.5 11.5858 2.83579 11.25 3.25 11.25H6.98318C7.39739 11.25 7.73318 11.5858 7.73318 12C7.73318 12.4142 7.39739 12.75 6.98318 12.75H3.25C2.83579 12.75 2.5 12.4142 2.5 12Z" fill="#000000" />
<path fill-rule="evenodd" clip-rule="evenodd" d="M16.7666 12C16.7666 11.5858 17.1024 11.25 17.5166 11.25H21.2498C21.664 11.25 21.9998 11.5858 21.9998 12C21.9998 12.4142 21.664 12.75 21.2498 12.75H17.5166C17.1024 12.75 16.7666 12.4142 16.7666 12Z" fill="#000000" />
</svg>