<svg width="24px"  height="24px"  viewBox="0 0 25 24" fill="none" xmlns="http://www.w3.org/2000/svg">
<path fill-rule="evenodd" clip-rule="evenodd" d="M12.2496 3.75C7.69312 3.75 4 7.44312 4 11.9996C4 16.5561 7.69312 20.2492 12.2496 20.2492C16.8061 20.2492 20.4992 16.5561 20.4992 11.9996C20.4992 7.44312 16.8061 3.75 12.2496 3.75ZM2.5 11.9996C2.5 6.6147 6.8647 2.25 12.2496 2.25C17.6345 2.25 21.9992 6.6147 21.9992 11.9996C21.9992 17.3845 17.6345 21.7492 12.2496 21.7492C6.8647 21.7492 2.5 17.3845 2.5 11.9996Z" fill="#000000" />
<path fill-rule="evenodd" clip-rule="evenodd" d="M16.9004 12C16.9004 11.5858 17.2362 11.25 17.6504 11.25H21.2502C21.6645 11.25 22.0002 11.5858 22.0002 12C22.0002 12.4142 21.6645 12.75 21.2502 12.75H17.6504C17.2362 12.75 16.9004 12.4142 16.9004 12Z" fill="#000000" />
<path fill-rule="evenodd" clip-rule="evenodd" d="M2.5 12C2.5 11.5858 2.83579 11.25 3.25 11.25H6.84985C7.26406 11.25 7.59985 11.5858 7.59985 12C7.59985 12.4142 7.26406 12.75 6.84985 12.75H3.25C2.83579 12.75 2.5 12.4142 2.5 12Z" fill="#000000" />
<path fill-rule="evenodd" clip-rule="evenodd" d="M12.25 2.25C12.6642 2.25 13 2.58579 13 3V6.59985C13 7.01406 12.6642 7.34985 12.25 7.34985C11.8358 7.34985 11.5 7.01406 11.5 6.59985V3C11.5 2.58579 11.8358 2.25 12.25 2.25Z" fill="#000000" />
<path fill-rule="evenodd" clip-rule="evenodd" d="M12.25 16.6484C12.6642 16.6484 13 16.9842 13 17.3984V20.9983C13 21.4125 12.6642 21.7483 12.25 21.7483C11.8358 21.7483 11.5 21.4125 11.5 20.9983V17.3984C11.5 16.9842 11.8358 16.6484 12.25 16.6484Z" fill="#000000" />
</svg>