<svg width="24px"  height="24px"  viewBox="0 0 25 24" fill="none" xmlns="http://www.w3.org/2000/svg">
<path d="M14.2075 20.7429C13.6861 20.745 13.176 20.5913 12.7426 20.3014C12.3093 20.0115 11.9725 19.5986 11.7755 19.1159L9.98945 14.7959C9.93216 14.6572 9.84769 14.5313 9.74104 14.4257C9.6344 14.3201 9.50776 14.2368 9.36848 14.1809L5.20448 12.4929C4.70689 12.2917 4.28257 11.9434 3.98842 11.4945C3.69426 11.0455 3.5443 10.5174 3.55855 9.9809C3.57279 9.44438 3.75063 8.92503 4.06819 8.49235C4.38575 8.05967 4.82789 7.73431 5.33546 7.55985L17.4495 3.39286C17.9146 3.23316 18.4151 3.20677 18.8944 3.31663C19.3737 3.42649 19.8128 3.66825 20.1619 4.01457C20.511 4.36088 20.7563 4.79795 20.87 5.27638C20.9837 5.7548 20.9614 6.25549 20.8055 6.72187L16.7125 18.9469C16.545 19.4579 16.224 19.905 15.7933 20.2271C15.3626 20.5492 14.8431 20.7307 14.3055 20.7469L14.2075 20.7429ZM18.3145 4.74287C18.1858 4.74307 18.058 4.76469 17.9365 4.80686L5.82344 8.97688C5.60486 9.05198 5.41446 9.19207 5.27772 9.3784C5.14098 9.56473 5.06445 9.78841 5.05836 10.0194C5.05227 10.2505 5.11693 10.4778 5.24367 10.6711C5.3704 10.8644 5.55315 11.0144 5.76747 11.1009L9.93049 12.7879C10.2543 12.9195 10.5489 13.1139 10.7971 13.3601C11.0453 13.6062 11.2422 13.8991 11.3765 14.2219L13.1625 18.5419C13.2446 18.7599 13.3948 18.9457 13.5907 19.0718C13.7867 19.1978 14.018 19.2575 14.2504 19.2419C14.4828 19.238 14.708 19.1612 14.8943 19.0223C15.0806 18.8834 15.2185 18.6894 15.2885 18.4679L19.3815 6.24186C19.4384 6.07168 19.4542 5.89047 19.4278 5.71299C19.4014 5.53551 19.3333 5.36681 19.2293 5.22059C19.1253 5.07437 18.9883 4.95478 18.8293 4.87159C18.6703 4.7884 18.4939 4.74395 18.3145 4.74186V4.74287Z" fill="#000000" />
</svg>