<svg width="24px"  height="24px"  viewBox="0 0 25 24" fill="none" xmlns="http://www.w3.org/2000/svg">
<path fill-rule="evenodd" clip-rule="evenodd" d="M14.6122 4.75673C13.6067 2.73783 10.7233 2.75084 9.73485 4.77749L14.6122 4.75673ZM14.6122 4.75673L20.6201 16.8115C20.6201 16.8116 20.6201 16.8115 20.6201 16.8115C21.7429 19.063 19.468 21.4996 17.1447 20.5361C17.1447 20.5361 17.1447 20.5361 17.1447 20.5361L12.6347 18.6661C12.3335 18.5412 11.9934 18.5423 11.6926 18.6698L7.37249 20.4999C5.05775 21.4804 2.76608 19.0636 3.86777 16.8036L9.73485 4.77749M13.2696 5.42558C12.819 4.52071 11.5265 4.52578 11.083 5.43505L5.2161 17.4609C5.21607 17.461 5.21614 17.4608 5.2161 17.4609C4.72204 18.4749 5.7502 19.5581 6.78739 19.1187L11.1072 17.2887C11.1073 17.2887 11.1072 17.2888 11.1072 17.2887C11.7784 17.0043 12.5364 17.0014 13.2092 17.2805C13.2092 17.2805 13.2092 17.2805 13.2092 17.2805L17.7192 19.1505C18.7618 19.5829 19.7808 18.4895 19.2778 17.481L13.2696 5.42558Z" fill="#000000" />
</svg>