<svg width="24px"  height="24px"  viewBox="0 0 25 24" fill="none" xmlns="http://www.w3.org/2000/svg">
<path d="M12.3184 20.743C11.8127 20.7449 11.3166 20.6047 10.8866 20.3385C10.4566 20.0722 10.1101 19.6905 9.88642 19.2369L3.87843 7.18094C3.6312 6.68517 3.54138 6.1257 3.62098 5.57745C3.70058 5.02921 3.94582 4.51839 4.32383 4.1134C4.70184 3.70842 5.19457 3.42861 5.73603 3.31146C6.2775 3.19432 6.84183 3.24543 7.35343 3.45795L11.8634 5.32794C12.1656 5.45148 12.5042 5.45148 12.8064 5.32794L17.1254 3.49796C17.6358 3.28149 18.2002 3.22616 18.7429 3.33939C19.2857 3.45261 19.7808 3.72898 20.1621 4.13147C20.5434 4.53396 20.7926 5.04335 20.8763 5.5914C20.96 6.13945 20.8742 6.69999 20.6304 7.19794L14.7634 19.2239C14.5428 19.6815 14.1975 20.0675 13.7673 20.3376C13.3371 20.6077 12.8394 20.751 12.3314 20.7509L12.3184 20.743ZM6.30244 4.74295C6.13635 4.74512 5.97244 4.78119 5.82078 4.84894C5.66912 4.91669 5.53287 5.0147 5.42042 5.13696C5.248 5.31655 5.13603 5.54554 5.10017 5.7919C5.06431 6.03826 5.10637 6.28967 5.22044 6.51096L11.2284 18.5659C11.3276 18.7702 11.4826 18.9421 11.6755 19.0618C11.8685 19.1815 12.0914 19.2439 12.3184 19.2419H12.3244C12.5526 19.2433 12.7764 19.1796 12.9696 19.0583C13.1629 18.9369 13.3175 18.763 13.4154 18.5569L19.2824 6.53094C19.3913 6.3078 19.4295 6.05675 19.3918 5.81134C19.3541 5.56593 19.2423 5.33789 19.0715 5.15771C18.9007 4.97754 18.6789 4.85381 18.4358 4.8031C18.1928 4.75239 17.9401 4.77712 17.7114 4.87396L13.3914 6.70395C13.0593 6.84384 12.7027 6.91667 12.3423 6.91821C11.9819 6.91976 11.6248 6.84999 11.2914 6.71295L6.78044 4.84195C6.62914 4.77802 6.46668 4.74472 6.30244 4.74396V4.74295Z" fill="#000000" />
</svg>