<svg width="24px"  height="24px"  viewBox="0 0 25 24" fill="none" xmlns="http://www.w3.org/2000/svg">
<path fill-rule="evenodd" clip-rule="evenodd" d="M3.74969 7.12157C2.7691 4.80679 5.18596 2.51509 7.44599 3.6168L19.4724 9.48401C21.4997 10.4728 21.5105 13.3562 19.4932 14.3614C19.4932 14.3615 19.4932 14.3614 19.4932 14.3614L7.43789 20.3696C5.18724 21.4908 2.7496 19.2182 3.71348 16.894C3.71349 16.894 3.71347 16.894 3.71348 16.894L5.58352 12.3839C5.70845 12.0827 5.70729 11.7426 5.5798 11.4418L3.74969 7.12157C3.74969 7.12157 3.74969 7.12157 3.74969 7.12157ZM6.7885 4.96503C5.77451 4.47095 4.69148 5.49925 5.13087 6.53647L6.96086 10.8564C6.96088 10.8565 6.96084 10.8564 6.96086 10.8564C7.2453 11.5276 7.24816 12.2857 6.96914 12.9584C6.96912 12.9585 6.96915 12.9584 6.96914 12.9584L5.09909 17.4685C4.66702 18.5103 5.75943 19.5298 6.76881 19.0271C6.76885 19.0271 6.76877 19.0271 6.76881 19.0271L18.8241 13.0189C19.7288 12.5681 19.7236 11.2754 18.8149 10.8322L6.7885 4.96503C6.78857 4.96506 6.78843 4.96499 6.7885 4.96503Z" fill="#000000" />
</svg>