<svg width="24px"  height="24px"  viewBox="0 0 25 24" fill="none" xmlns="http://www.w3.org/2000/svg">
<path fill-rule="evenodd" clip-rule="evenodd" d="M5.36166 5.45895L8.2073 18.7907C8.32219 19.3294 9.0543 19.4221 9.2987 18.925L12.1194 13.1857C12.2126 12.9961 12.3814 12.8546 12.5844 12.796L18.7292 11.021C18.7293 11.021 18.7291 11.021 18.7292 11.021C19.2602 10.8673 19.2976 10.1297 18.7872 9.92246L6.15725 4.79184C5.72235 4.62707 5.27517 5.00224 5.36166 5.45895ZM3.89087 5.7537C3.57126 4.13219 5.16523 2.79855 6.70392 3.39498L6.71517 3.39934L19.3514 8.53262C19.3515 8.53264 19.3513 8.53259 19.3514 8.53262C21.1825 9.2761 21.0429 11.9134 19.1459 12.4619L13.3193 14.145L10.6448 19.5867C9.77302 21.3598 7.15261 21.0365 6.74034 19.1038C6.74033 19.1037 6.74035 19.1038 6.74034 19.1038L3.89087 5.7537Z" fill="#000000" />
</svg>