<svg width="24px"  height="24px"  viewBox="0 0 25 24" fill="none" xmlns="http://www.w3.org/2000/svg">
<path fill-rule="evenodd" clip-rule="evenodd" d="M20.7861 7.10274C20.786 7.10276 20.7861 7.10272 20.7861 7.10274L18.916 11.6128C18.7911 11.914 18.7923 12.2541 18.9198 12.5549L20.7499 16.8751C21.7305 19.1899 19.3136 21.4816 17.0536 20.3799L5.02714 14.5127C2.99983 13.5239 2.98906 10.6405 5.00638 9.63524C5.00639 9.63524 5.00636 9.63525 5.00638 9.63524L17.0617 3.6271C19.3123 2.50592 21.7499 4.77852 20.7861 7.10274ZM17.7307 4.96961C18.7401 4.4669 19.8326 5.4863 19.4005 6.52809L17.5305 11.0382C17.5305 11.0381 17.5304 11.0382 17.5305 11.0382C17.2514 11.7109 17.2542 12.4689 17.5386 13.1401C17.5386 13.1401 17.5387 13.1402 17.5386 13.1401L19.3687 17.4602C19.8081 18.4974 18.725 19.5257 17.7111 19.0317C17.7111 19.0317 17.711 19.0316 17.7111 19.0317L5.68477 13.1645C4.77601 12.7213 4.77071 11.4286 5.67541 10.9778L17.7307 4.96961C17.7308 4.96959 17.7307 4.96963 17.7307 4.96961Z" fill="#000000" />
</svg>