<svg width="24px"  height="24px"  viewBox="0 0 25 24" fill="none" xmlns="http://www.w3.org/2000/svg">
<path fill-rule="evenodd" clip-rule="evenodd" d="M12.25 3.75C7.69329 3.75 4 7.44329 4 12C4 16.5567 7.69329 20.25 12.25 20.25C16.8067 20.25 20.5 16.5567 20.5 12C20.5 7.44329 16.8067 3.75 12.25 3.75ZM2.5 12C2.5 6.61487 6.86487 2.25 12.25 2.25C17.6351 2.25 22 6.61487 22 12C22 17.3851 17.6351 21.75 12.25 21.75C6.86487 21.75 2.5 17.3851 2.5 12Z" fill="#000000" />
<path fill-rule="evenodd" clip-rule="evenodd" d="M14.2479 8.16902C15.3482 7.78969 16.4013 8.83792 16.0337 9.93878L14.072 15.7967C13.6601 17.0239 11.9439 17.0868 11.4476 15.887C11.4476 15.887 11.4476 15.8871 11.4476 15.887L10.5282 13.6644L8.37132 12.7919C7.17081 12.3059 7.21596 10.5899 8.44123 10.1675L14.2479 8.16902ZM14.5478 9.65217L12.7332 15.0707L11.8987 13.0534L11.8982 13.0523C11.7543 12.706 11.4787 12.4326 11.1329 12.291L9.17815 11.5002L14.5478 9.65217Z" fill="#000000" />
</svg>