<svg width="24px"  height="24px"  viewBox="0 0 25 24" fill="none" xmlns="http://www.w3.org/2000/svg">
<path fill-rule="evenodd" clip-rule="evenodd" d="M12.2464 3.75C9.52573 3.75 7.31934 5.95559 7.31934 8.67704C7.31934 10.4221 8.3662 12.2227 9.62783 13.6431C10.2475 14.3407 10.8905 14.914 11.4219 15.3069C11.6884 15.5039 11.9156 15.6473 12.0886 15.7376C12.1622 15.776 12.2139 15.7984 12.2464 15.8112C12.2788 15.7984 12.3306 15.776 12.4042 15.7376C12.5772 15.6473 12.8043 15.5039 13.0709 15.3069C13.6022 14.914 14.2452 14.3407 14.8649 13.6431C16.1265 12.2227 17.1734 10.4221 17.1734 8.67704C17.1734 5.95559 14.967 3.75 12.2464 3.75ZM5.81934 8.67704C5.81934 5.12699 8.69747 2.25 12.2464 2.25C15.7953 2.25 18.6734 5.12699 18.6734 8.67704C18.6734 10.9706 17.3361 13.1196 15.9864 14.6392C15.3004 15.4115 14.5809 16.0558 13.9627 16.513C13.6544 16.7409 13.3599 16.9307 13.0983 17.0673C12.8728 17.185 12.5574 17.3262 12.2464 17.3262C11.9354 17.3262 11.6199 17.185 11.3945 17.0673C11.1328 16.9307 10.8384 16.7409 10.5301 16.513C9.91181 16.0558 9.19235 15.4115 8.50634 14.6392C7.15663 13.1196 5.81934 10.9706 5.81934 8.67704Z" fill="#000000" />
<path fill-rule="evenodd" clip-rule="evenodd" d="M9.60547 8.63063C9.60547 7.17149 10.7887 5.98828 12.2478 5.98828C13.707 5.98828 14.8902 7.17149 14.8902 8.63063C14.8902 10.0898 13.707 11.273 12.2478 11.273C10.7887 11.273 9.60547 10.0898 9.60547 8.63063ZM12.2478 7.48828C11.6171 7.48828 11.1055 7.99992 11.1055 8.63063C11.1055 9.26134 11.6171 9.77297 12.2478 9.77297C12.8785 9.77297 13.3902 9.26134 13.3902 8.63063C13.3902 7.99992 12.8785 7.48828 12.2478 7.48828Z" fill="#000000" />
<path fill-rule="evenodd" clip-rule="evenodd" d="M6.4558 15.2074C6.65846 15.5687 6.52989 16.0258 6.16863 16.2285C5.24556 16.7463 4.9668 17.2501 4.9668 17.598C4.9668 17.9457 5.24512 18.4486 6.16863 18.9667L6.17262 18.9689L6.17261 18.9689C6.48301 19.1455 6.83543 19.3131 7.23192 19.4564L7.23795 19.4585L7.23794 19.4586C8.54709 19.9444 10.3028 20.2513 12.2542 20.2513C14.2065 20.2513 15.9622 19.9444 17.2713 19.4586L17.2769 19.4565L17.2769 19.4565C17.6777 19.3113 18.0161 19.1535 18.3147 18.976L18.3309 18.9667C19.2544 18.4486 19.5328 17.9457 19.5328 17.598C19.5328 17.2501 19.254 16.7463 18.3309 16.2285C17.9697 16.0258 17.8411 15.5687 18.0438 15.2074C18.2464 14.8462 18.7035 14.7176 19.0648 14.9202C20.1362 15.5213 21.0328 16.4166 21.0328 17.598C21.0328 18.7768 20.1404 19.6695 19.073 20.2703C18.6837 20.5009 18.2609 20.6953 17.7904 20.8659C16.2843 21.4243 14.3478 21.7513 12.2542 21.7513C10.1615 21.7513 8.22515 21.4244 6.71908 20.866C6.24002 20.6926 5.81184 20.4893 5.43273 20.2737C4.36263 19.6729 3.4668 18.7791 3.4668 17.598C3.4668 16.4166 4.36333 15.5213 5.43476 14.9202C5.79601 14.7176 6.25315 14.8462 6.4558 15.2074Z" fill="#000000" />
</svg>