<svg width="24px"  height="24px"  viewBox="0 0 25 24" fill="none" xmlns="http://www.w3.org/2000/svg">
<path fill-rule="evenodd" clip-rule="evenodd" d="M9.64993 13.8979C9.72363 14.3055 9.45295 14.6957 9.04534 14.7694C7.57238 15.0357 6.36909 15.4697 5.5558 15.9799C4.71662 16.5064 4.4502 17.004 4.4502 17.3659C4.4502 17.6128 4.56463 17.9116 4.90446 18.2527C5.24742 18.597 5.78124 18.9412 6.50041 19.2463C7.93588 19.8552 9.97035 20.2492 12.2543 20.2492C14.5388 20.2492 16.5709 19.8552 18.0038 19.2464C18.7216 18.9415 19.2542 18.5974 19.5962 18.2533C19.9351 17.9124 20.0495 17.6134 20.0495 17.3659C20.0495 17.0044 19.7812 16.5042 18.94 15.9761C18.1256 15.4648 16.9227 15.031 15.4563 14.7698C15.0485 14.6971 14.7768 14.3076 14.8495 13.8998C14.9221 13.492 15.3116 13.2204 15.7194 13.293C17.3065 13.5758 18.7095 14.0602 19.7376 14.7057C20.7388 15.3343 21.5495 16.2294 21.5495 17.3659C21.5495 18.1239 21.1859 18.7819 20.66 19.3108C20.1374 19.8365 19.4187 20.2751 18.5903 20.627C16.9307 21.3321 14.6901 21.7492 12.2543 21.7492C9.81899 21.7492 7.5764 21.3321 5.91463 20.6272C5.08518 20.2753 4.36534 19.8369 3.84179 19.3114C3.31511 18.7827 2.9502 18.1246 2.9502 17.3659C2.9502 16.2298 3.75788 15.3371 4.75868 14.7093C5.78537 14.0652 7.18792 13.5809 8.77845 13.2933C9.18605 13.2196 9.57622 13.4903 9.64993 13.8979Z" fill="#000000" />
<path fill-rule="evenodd" clip-rule="evenodd" d="M12.2504 3.75C10.7277 3.75 9.49414 4.98382 9.49414 6.50524C9.49414 8.02666 10.7277 9.26048 12.2504 9.26048C13.7719 9.26048 15.0056 8.0268 15.0056 6.50524C15.0056 4.98368 13.7719 3.75 12.2504 3.75ZM7.99414 6.50524C7.99414 4.15511 9.89953 2.25 12.2504 2.25C14.6004 2.25 16.5056 4.15525 16.5056 6.50524C16.5056 8.85523 14.6004 10.7605 12.2504 10.7605C9.89953 10.7605 7.99414 8.85537 7.99414 6.50524Z" fill="#000000" />
<path fill-rule="evenodd" clip-rule="evenodd" d="M12.2489 9.26172C12.6631 9.26176 12.9988 9.59759 12.9988 10.0118L12.998 16.8639C12.998 17.2782 12.6622 17.6139 12.248 17.6139C11.8338 17.6138 11.498 17.278 11.498 16.8638L11.4988 10.0116C11.4988 9.59742 11.8347 9.26167 12.2489 9.26172Z" fill="#000000" />
</svg>