<svg width="24px"  height="24px"  viewBox="0 0 25 24" fill="none" xmlns="http://www.w3.org/2000/svg">
<path d="M16.8153 16.833H7.67427C7.25145 16.8325 6.8351 16.7292 6.46108 16.532C6.08706 16.3348 5.76657 16.0496 5.52727 15.701C5.29515 15.3717 5.1479 14.9903 5.09853 14.5905C5.04916 14.1907 5.09922 13.7848 5.24428 13.409C5.81266 11.938 6.82659 10.6814 8.14428 9.81499C8.17153 9.80057 8.19433 9.77899 8.21019 9.75255C8.22606 9.72611 8.23438 9.69583 8.23427 9.66499L7.60427 5.79199C7.53328 5.3556 7.55796 4.90899 7.67659 4.48308C7.79523 4.05716 8.00498 3.66212 8.29134 3.32526C8.5777 2.9884 8.93385 2.71778 9.3351 2.53212C9.73636 2.34646 10.1732 2.2502 10.6153 2.25H13.8823C14.3244 2.2502 14.7612 2.34646 15.1625 2.53212C15.5637 2.71778 15.9199 2.9884 16.2062 3.32526C16.4926 3.66212 16.7023 4.05716 16.8209 4.48308C16.9396 4.90899 16.9643 5.3556 16.8933 5.79199L16.2633 9.66499C16.2633 9.69645 16.2718 9.72731 16.288 9.75427C16.3042 9.78123 16.3275 9.80326 16.3553 9.81799C17.673 10.6835 18.6869 11.9395 19.2553 13.41C19.4002 13.7859 19.4501 14.1918 19.4006 14.5916C19.351 14.9914 19.2036 15.3728 18.9713 15.702C18.731 16.0517 18.409 16.3374 18.0333 16.5345C17.6576 16.7316 17.2396 16.8341 16.8153 16.833ZM9.71029 9.422C9.75779 9.73921 9.71265 10.0634 9.58031 10.3556C9.44797 10.6478 9.23406 10.8955 8.96428 11.069C7.90963 11.7619 7.09835 12.7676 6.64428 13.945C6.58894 14.0933 6.57085 14.2529 6.5916 14.4098C6.61235 14.5667 6.67131 14.7162 6.76329 14.845C6.86462 14.9933 7.00047 15.1148 7.15917 15.1989C7.31787 15.2831 7.49465 15.3274 7.67427 15.328H16.8153C16.9949 15.3274 17.1717 15.2831 17.3304 15.1989C17.4891 15.1148 17.625 14.9933 17.7263 14.845C17.8183 14.7162 17.8772 14.5667 17.898 14.4098C17.9187 14.2529 17.9006 14.0933 17.8453 13.945C17.3916 12.7683 16.581 11.763 15.5273 11.07C15.2566 10.8968 15.0419 10.6489 14.9092 10.3562C14.7764 10.0636 14.7313 9.73874 14.7793 9.42099L15.4093 5.549C15.4452 5.32718 15.4325 5.10022 15.3721 4.88379C15.3117 4.66736 15.205 4.46662 15.0594 4.29546C14.9139 4.12429 14.7328 3.98679 14.5289 3.89244C14.325 3.79809 14.103 3.74915 13.8783 3.74899H10.6113C10.3866 3.74915 10.1646 3.79809 9.96065 3.89244C9.75672 3.98679 9.57572 4.12429 9.43013 4.29546C9.28455 4.46662 9.17789 4.66736 9.11748 4.88379C9.05708 5.10022 9.04437 5.32718 9.08028 5.549L9.71029 9.422Z" fill="#000000" />
<path d="M12.2441 21.7519C12.0452 21.7519 11.8545 21.6729 11.7138 21.5323C11.5732 21.3916 11.4941 21.2009 11.4941 21.0019V16.0859C11.4941 15.887 11.5732 15.6963 11.7138 15.5556C11.8545 15.415 12.0452 15.3359 12.2441 15.3359C12.4431 15.3359 12.6338 15.415 12.7745 15.5556C12.9151 15.6963 12.9941 15.887 12.9941 16.0859V20.9999C12.9944 21.0986 12.9752 21.1963 12.9376 21.2876C12.9 21.3788 12.8448 21.4617 12.7752 21.5316C12.7055 21.6014 12.6227 21.6568 12.5316 21.6947C12.4405 21.7325 12.3428 21.7519 12.2441 21.7519Z" fill="#000000" />
</svg>