<svg width="24px"  height="24px"  viewBox="0 0 25 24" fill="none" xmlns="http://www.w3.org/2000/svg">
<path fill-rule="evenodd" clip-rule="evenodd" d="M2.83956 15.3195C3.07175 13.6393 4.50748 12.3867 6.20463 12.3867C6.61884 12.3867 6.95463 12.7225 6.95463 13.1367C6.95463 13.5509 6.61884 13.8867 6.20463 13.8867C5.25734 13.8867 4.45532 14.5858 4.32547 15.5246M4.32547 15.5246L4.01707 17.7613C4.01706 17.7614 4.01708 17.7612 4.01707 17.7613C3.87097 18.8238 4.6973 19.7715 5.76874 19.7715H18.7315C19.8037 19.7715 20.6293 18.8242 20.4832 17.7615C20.4832 17.7614 20.4832 17.7615 20.4832 17.7615L20.1748 15.5246C20.0458 14.5866 19.2434 13.8867 18.2956 13.8867C17.8814 13.8867 17.5456 13.5509 17.5456 13.1367C17.5456 12.7225 17.8814 12.3867 18.2956 12.3867C19.9923 12.3867 21.4297 13.6389 21.6608 15.3201L21.9691 17.5566C22.2393 19.5198 20.7143 21.2715 18.7315 21.2715H5.76874C3.7871 21.2715 2.26088 19.5201 2.53108 17.5568L2.83956 15.3195" fill="#000000" />
<path fill-rule="evenodd" clip-rule="evenodd" d="M12.2491 4.23047C9.89908 4.23047 7.99414 6.13541 7.99414 8.48538C7.99414 9.99222 8.90002 11.5593 10.0071 12.8058C10.5495 13.4165 11.1118 13.9177 11.5751 14.2603C11.8076 14.4322 12.0039 14.5559 12.1512 14.6328C12.1921 14.6541 12.2245 14.6693 12.249 14.6801C12.2736 14.6693 12.306 14.6541 12.3469 14.6328C12.4942 14.5559 12.6905 14.4322 12.923 14.2603C13.3863 13.9177 13.9486 13.4165 14.491 12.8058C15.5981 11.5593 16.504 9.99222 16.504 8.48538C16.504 6.13541 14.599 4.23047 12.2491 4.23047ZM6.49414 8.48538C6.49414 5.30698 9.07066 2.73047 12.2491 2.73047C15.4274 2.73047 18.004 5.30698 18.004 8.48538C18.004 10.5405 16.8078 12.4562 15.6125 13.8019C15.0038 14.4873 14.365 15.0595 13.8148 15.4664C13.5405 15.6692 13.277 15.8393 13.0411 15.9625C12.8415 16.0667 12.5466 16.2008 12.2491 16.2008C11.9515 16.2008 11.6566 16.0667 11.457 15.9625C11.2211 15.8393 10.9576 15.6692 10.6833 15.4664C10.1331 15.0595 9.49429 14.4873 8.88555 13.8019C7.69034 12.4562 6.49414 10.5405 6.49414 8.48538Z" fill="#000000" />
<path fill-rule="evenodd" clip-rule="evenodd" d="M10.0078 8.44467C10.0078 7.20636 11.011 6.20312 12.2494 6.20312C13.4877 6.20312 14.4909 7.20636 14.4909 8.44467C14.4909 9.68299 13.4877 10.6862 12.2494 10.6862C11.011 10.6862 10.0078 9.68298 10.0078 8.44467ZM12.2494 7.70312C11.8395 7.70312 11.5078 8.03479 11.5078 8.44467C11.5078 8.85456 11.8395 9.18622 12.2494 9.18622C12.6592 9.18622 12.9909 8.85456 12.9909 8.44467C12.9909 8.03479 12.6592 7.70312 12.2494 7.70312Z" fill="#000000" />
</svg>