<svg width="24px"  height="24px"  viewBox="0 0 25 24" fill="none" xmlns="http://www.w3.org/2000/svg">
<path fill-rule="evenodd" clip-rule="evenodd" d="M2.5 5.28873C2.5 4.09453 3.46788 3.125 4.66373 3.125H11.7265C12.9217 3.125 13.8893 4.09486 13.8893 5.28873V6.07684C13.8893 6.9491 13.3655 7.73673 12.561 8.07345L12.5463 8.0794L12.5226 8.08872C12.2788 8.19325 12.1204 8.43326 12.1204 8.699V10.4786C12.1204 10.5857 12.1464 10.691 12.1963 10.7862L13.6444 13.5549C13.8043 13.8628 13.8893 14.206 13.8893 14.5553C13.8893 15.7492 12.9217 16.7191 11.7265 16.7191H8.94468V20.1214C8.94468 20.5356 8.60889 20.8714 8.19468 20.8714C7.78046 20.8714 7.44468 20.5356 7.44468 20.1214V16.7191H4.66373C3.46788 16.7191 2.5 15.7495 2.5 14.5553C2.5 14.206 2.58504 13.8628 2.74492 13.5549L2.74596 13.5529L4.19173 10.7887C4.19187 10.7885 4.19159 10.789 4.19173 10.7887C4.24174 10.6921 4.26789 10.5852 4.26789 10.4795V8.699C4.26789 8.4331 4.10931 8.19306 3.86637 8.08861L3.843 8.0794L3.82834 8.07345C3.02408 7.73685 2.5 6.9494 2.5 6.07781V5.28873ZM8.23842 15.2191C8.22394 15.2182 8.20936 15.2178 8.19468 15.2178C8.18 15.2178 8.16541 15.2182 8.15094 15.2191H4.66373C4.29698 15.2191 4 14.9218 4 14.5553C4 14.4496 4.02573 14.3436 4.07573 14.247C4.07558 14.2472 4.07587 14.2467 4.07573 14.247L5.52193 11.482L5.52297 11.48C5.68285 11.1721 5.76789 10.8289 5.76789 10.4795V8.699C5.76789 7.82673 5.24408 7.0391 4.43955 6.70239L4.42489 6.69644L4.40152 6.68723C4.15832 6.58267 4 6.34245 4 6.07781V5.28873C4 4.92228 4.29698 4.625 4.66373 4.625H11.7265C12.092 4.625 12.3893 4.92195 12.3893 5.28873V6.07684C12.3893 6.34274 12.2307 6.58278 11.9878 6.68723L11.9644 6.69644L11.9502 6.7022C11.1445 7.03878 10.6204 7.8265 10.6204 8.699V10.4786C10.6204 10.8287 10.7054 11.1728 10.8675 11.4823C10.8675 11.4823 10.8676 11.4824 10.8675 11.4823L12.3131 14.2461C12.313 14.2458 12.3133 14.2464 12.3131 14.2461C12.3631 14.3427 12.3893 14.4496 12.3893 14.5553C12.3893 14.9221 12.092 15.2191 11.7265 15.2191H8.23842ZM16.2779 5.07886C16.2779 4.66465 16.6137 4.32886 17.0279 4.32886H21.2497C21.6639 4.32886 21.9997 4.66465 21.9997 5.07886C21.9997 5.49308 21.6639 5.82886 21.2497 5.82886H17.0279C16.6137 5.82886 16.2779 5.49308 16.2779 5.07886ZM15.9325 11.998C15.9325 11.5838 16.2683 11.248 16.6825 11.248H21.2497C21.6639 11.248 21.9997 11.5838 21.9997 11.998C21.9997 12.4122 21.6639 12.748 21.2497 12.748H16.6825C16.2683 12.748 15.9325 12.4122 15.9325 11.998ZM13.1823 18.9171C13.1823 18.5029 13.5181 18.1671 13.9323 18.1671H21.25C21.6642 18.1671 22 18.5029 22 18.9171C22 19.3313 21.6642 19.6671 21.25 19.6671H13.9323C13.5181 19.6671 13.1823 19.3313 13.1823 18.9171Z" fill="#000000" />
</svg>