<svg width="24px"  height="24px"  viewBox="0 0 25 24" fill="none" xmlns="http://www.w3.org/2000/svg">
<path fill-rule="evenodd" clip-rule="evenodd" d="M11.8581 3.90984C12.7365 3.03005 14.1626 3.03005 15.041 3.90984L20.341 9.20988C21.2195 10.0884 21.2189 11.5125 20.3414 12.3914L19.749 12.9838C19.1077 13.6252 18.1435 13.8182 17.3041 13.474L17.3002 13.4724L17.2702 13.4599C17.2697 13.4597 17.2691 13.4594 17.2686 13.4592C16.9885 13.3451 16.6683 13.4101 16.4557 13.6232L15.1187 14.9602L15.1172 14.9617C15.0336 15.0448 14.9698 15.1496 14.9331 15.2662C14.9331 15.2663 14.9332 15.2661 14.9331 15.2662L13.9432 18.4279C13.8341 18.7751 13.642 19.0895 13.3884 19.3444L13.3866 19.3463C12.5077 20.2238 11.0835 20.2244 10.205 19.3459L4.90496 14.0459C4.02493 13.1673 4.02555 11.7424 4.90453 10.8635C5.16136 10.6066 5.47607 10.4161 5.82173 10.3075L8.98372 9.31719C9.09797 9.28142 9.20369 9.21762 9.29104 9.13095C9.29125 9.13074 9.29082 9.13117 9.29104 9.13095L10.626 7.79594C10.6261 7.79588 10.626 7.79601 10.626 7.79594C10.8398 7.5816 10.9041 7.2605 10.7904 6.98204L10.7751 6.94534C10.4325 6.1065 10.6252 5.14275 11.2666 4.50139L11.8581 3.90984ZM13.9795 4.96965C13.6871 4.67678 13.2121 4.67678 12.9197 4.96965L12.3273 5.56205C12.1146 5.77472 12.0493 6.09553 12.1629 6.37616L12.1773 6.41067C12.522 7.24986 12.3282 8.21371 11.6879 8.85544L10.3509 10.1924L10.3494 10.1939C10.0943 10.4476 9.78048 10.6395 9.43203 10.7486C9.43199 10.7486 9.43206 10.7486 9.43203 10.7486L6.27147 11.7385C6.2713 11.7385 6.27163 11.7384 6.27147 11.7385C6.15617 11.7748 6.05081 11.8385 5.96519 11.9241C5.67152 12.2178 5.67214 12.6922 5.96477 12.9844L11.2657 18.2852C11.5576 18.5772 12.032 18.5781 12.3258 18.2858C12.4123 18.1985 12.4761 18.0929 12.5118 17.9795C12.5118 17.9793 12.5117 17.9797 12.5118 17.9795L13.5018 14.8175C13.6099 14.4735 13.8001 14.1564 14.0585 13.8991C14.0588 13.8987 14.0591 13.8984 14.0595 13.8981L15.3938 12.5637C16.0353 11.9213 17.0001 11.7279 17.8394 12.072L17.8433 12.0736L17.8732 12.0862C17.8738 12.0864 17.8743 12.0866 17.8749 12.0868C18.1551 12.201 18.4756 12.1359 18.6884 11.9232L19.2799 11.3316C19.28 11.3315 19.2799 11.3317 19.2799 11.3316C19.573 11.0378 19.5725 10.5627 19.2804 10.2705L13.9795 4.96965Z" fill="#000000" />
<path fill-rule="evenodd" clip-rule="evenodd" d="M8.61451 15.6337C8.9074 15.9266 8.9074 16.4015 8.61451 16.6944L4.78033 20.5286C4.48744 20.8215 4.01256 20.8215 3.71967 20.5286C3.42678 20.2357 3.42678 19.7608 3.71967 19.4679L7.55385 15.6337C7.84675 15.3408 8.32162 15.3408 8.61451 15.6337Z" fill="#000000" />
</svg>