<svg width="24px"  height="24px"  viewBox="0 0 25 24" fill="none" xmlns="http://www.w3.org/2000/svg">
<path fill-rule="evenodd" clip-rule="evenodd" d="M12.2511 4.22656C9.89915 4.22656 7.99316 6.13254 7.99316 8.48454C7.99316 9.99184 8.89972 11.5597 10.0076 12.8069C10.5504 13.4179 11.1131 13.9194 11.5767 14.2623C11.8094 14.4343 12.0058 14.558 12.1532 14.635C12.1942 14.6564 12.2266 14.6716 12.2511 14.6824C12.2757 14.6716 12.3081 14.6564 12.3491 14.635C12.4965 14.558 12.6929 14.4343 12.9255 14.2623C13.3892 13.9194 13.9519 13.4179 14.4947 12.8069C15.6026 11.5597 16.5091 9.99184 16.5091 8.48454C16.5091 6.13264 14.6023 4.22656 12.2511 4.22656ZM6.49316 8.48454C6.49316 5.30412 9.07072 2.72656 12.2511 2.72656C15.4305 2.72656 18.0091 5.30402 18.0091 8.48454C18.0091 10.5403 16.8121 12.4567 15.6161 13.8031C15.007 14.4888 14.3678 15.0613 13.8174 15.4683C13.543 15.6713 13.2794 15.8414 13.0434 15.9646C12.8437 16.0689 12.5488 16.2031 12.2511 16.2031C11.9535 16.2031 11.6586 16.0689 11.4589 15.9646C11.2229 15.8414 10.9593 15.6713 10.6849 15.4683C10.1344 15.0613 9.49525 14.4888 8.88614 13.8031C7.69021 12.4567 6.49316 10.5403 6.49316 8.48454Z" fill="#000000" />
<path fill-rule="evenodd" clip-rule="evenodd" d="M4.31999 15.5277C4.31997 15.5278 4.32001 15.5275 4.31999 15.5277L4.01752 17.7636L4.01717 17.7662C3.87043 18.8234 4.69666 19.7756 5.76709 19.7756H18.7332C19.8036 19.7756 20.6298 18.8234 20.4831 17.7662L20.4827 17.7636L20.1803 15.5282C20.1803 15.528 20.1804 15.5284 20.1803 15.5282C20.05 14.5815 19.2486 13.8828 18.2973 13.8828H15.2168C14.8026 13.8828 14.4668 13.547 14.4668 13.1328C14.4668 12.7186 14.8026 12.3828 15.2168 12.3828H18.2973C20.0001 12.3828 21.4345 13.6362 21.6664 15.3241L21.6666 15.3256L21.9688 17.5599C21.9689 17.5605 21.969 17.561 21.9691 17.5616C22.2396 19.518 20.7154 21.2756 18.7332 21.2756H5.76709C3.78475 21.2756 2.26048 19.5178 2.53123 17.5613C2.53129 17.5609 2.53135 17.5604 2.53142 17.5599L2.83366 15.3256C3.0644 13.6369 4.50063 12.3828 6.20299 12.3828H9.28348C9.69769 12.3828 10.0335 12.7186 10.0335 13.1328C10.0335 13.547 9.69769 13.8828 9.28348 13.8828H6.20299C5.2512 13.8828 4.44947 14.5818 4.31999 15.5277Z" fill="#000000" />
<path fill-rule="evenodd" clip-rule="evenodd" d="M10.0078 8.44178C10.0078 7.20345 11.012 6.19922 12.2504 6.19922C13.4887 6.19922 14.4929 7.20345 14.4929 8.44178C14.4929 9.68012 13.4887 10.6844 12.2504 10.6844C11.012 10.6844 10.0078 9.68012 10.0078 8.44178ZM12.2504 7.69922C11.8405 7.69922 11.5078 8.03188 11.5078 8.44178C11.5078 8.85169 11.8405 9.18435 12.2504 9.18435C12.6603 9.18435 12.9929 8.85169 12.9929 8.44178C12.9929 8.03188 12.6603 7.69922 12.2504 7.69922Z" fill="#000000" />
</svg>