<svg width="24px"  height="24px"  viewBox="0 0 25 24" fill="none" xmlns="http://www.w3.org/2000/svg">
<path fill-rule="evenodd" clip-rule="evenodd" d="M6.32617 4.479C6.32617 3.24779 7.32396 2.25 8.55517 2.25H15.9452C17.1764 2.25 18.1742 3.24779 18.1742 4.479V5.304C18.1742 6.20383 17.6343 7.01286 16.8066 7.36049L16.8017 7.36252L16.7715 7.37494C16.771 7.37515 16.7705 7.37537 16.77 7.37559C16.4991 7.48957 16.3232 7.75476 16.3232 8.047V9.91C16.3232 10.0276 16.3517 10.1427 16.4059 10.2458L16.4068 10.2474L17.9219 13.1446C18.0866 13.4621 18.1742 13.8154 18.1742 14.176C18.1742 15.4065 17.1761 16.404 15.9452 16.404H13V21.0003C13 21.4145 12.6642 21.7503 12.25 21.7503C11.8358 21.7503 11.5 21.4145 11.5 21.0003V16.404H8.55517C7.32363 16.404 6.32617 15.4049 6.32617 14.175C6.32617 13.8152 6.41382 13.4619 6.57845 13.1446L6.57957 13.1424L8.09312 10.2483C8.09317 10.2482 8.09307 10.2484 8.09312 10.2483C8.14751 10.1439 8.17617 10.0276 8.17617 9.91V8.047C8.17617 7.75388 8.00038 7.48923 7.73036 7.37558L7.69374 7.3605C6.86606 7.01288 6.32617 6.20383 6.32617 5.304V4.479ZM8.55517 3.75C8.15239 3.75 7.82617 4.07621 7.82617 4.479V5.304C7.82617 5.59745 8.00141 5.86184 8.27259 5.97667L8.30753 5.99105C9.13663 6.33777 9.67617 7.14868 9.67617 8.047V9.91C9.67617 10.2703 9.58874 10.6242 9.42322 10.9417L7.90989 13.8354C7.90973 13.8357 7.90958 13.836 7.90942 13.8363C7.85436 13.9428 7.82617 14.0592 7.82617 14.175C7.82617 14.5771 8.15272 14.904 8.55517 14.904H15.9452C16.3483 14.904 16.6742 14.5775 16.6742 14.176C16.6742 14.0589 16.6458 13.9425 16.5909 13.8362C16.5907 13.836 16.591 13.8365 16.5909 13.8362L15.0784 10.9442C15.0783 10.944 15.0785 10.9444 15.0784 10.9442C14.9108 10.6254 14.8232 10.2702 14.8232 9.91V8.047C14.8232 7.1478 15.3645 6.33744 16.1928 5.99107L16.1966 5.98948L16.2278 5.97667C16.4989 5.86184 16.6742 5.59745 16.6742 5.304V4.479C16.6742 4.07621 16.348 3.75 15.9452 3.75H8.55517Z" fill="#000000" />
</svg>