<svg width="24px"  height="24px"  viewBox="0 0 25 24" fill="none" xmlns="http://www.w3.org/2000/svg">
<path fill-rule="evenodd" clip-rule="evenodd" d="M6.52122 5.36029C6.81411 5.65319 6.81411 6.12806 6.52122 6.42096C3.35751 9.58466 3.35751 14.7151 6.52122 17.8789C9.68493 21.0426 14.8154 21.0426 17.9791 17.8789C21.1428 14.7151 21.1428 9.58466 17.9791 6.42096C17.6862 6.12806 17.6862 5.65319 17.9791 5.36029C18.272 5.0674 18.7469 5.0674 19.0398 5.36029C22.7893 9.10979 22.7893 15.19 19.0398 18.9395C15.2903 22.689 9.21005 22.689 5.46056 18.9395C1.71106 15.19 1.71106 9.10979 5.46056 5.36029C5.75345 5.0674 6.22833 5.0674 6.52122 5.36029Z" fill="#000000" />
<path fill-rule="evenodd" clip-rule="evenodd" d="M7.97577 10.6745C8.38427 10.7431 8.65986 11.1298 8.59132 11.5383C8.39957 12.6811 8.7445 13.8897 9.62538 14.7706C11.0732 16.2184 13.4259 16.2184 14.8737 14.7706C15.7546 13.8897 16.0995 12.6811 15.9078 11.5383C15.8392 11.1298 16.1148 10.7431 16.5233 10.6745C16.9318 10.606 17.3186 10.8816 17.3871 11.2901C17.6559 12.8919 17.1719 14.5937 15.9344 15.8312C13.9008 17.8649 10.5983 17.8649 8.56471 15.8312C7.32723 14.5937 6.84324 12.8919 7.112 11.2901C7.18054 10.8816 7.56726 10.606 7.97577 10.6745Z" fill="#000000" />
<path fill-rule="evenodd" clip-rule="evenodd" d="M12.2487 3.75C10.8623 3.75 9.73828 4.87404 9.73828 6.26042C9.73828 7.14622 10.2778 8.10619 10.9837 8.90084C11.3255 9.28561 11.6786 9.59972 11.9653 9.8117C12.0781 9.89517 12.1739 9.9577 12.2487 10.0011C12.3236 9.9577 12.4193 9.89517 12.5322 9.8117C12.8188 9.59972 13.1719 9.28561 13.5137 8.90084C14.2196 8.10619 14.7591 7.14622 14.7591 6.26042C14.7591 4.87404 13.6351 3.75 12.2487 3.75ZM12.123 10.0642C12.123 10.0642 12.1248 10.0635 12.1282 10.0624C12.1246 10.0638 12.1229 10.0643 12.123 10.0642ZM12.3692 10.0624C12.3726 10.0635 12.3744 10.0642 12.3745 10.0642C12.3745 10.0643 12.3728 10.0638 12.3692 10.0624ZM8.23828 6.26042C8.23828 4.04561 10.0339 2.25 12.2487 2.25C14.4635 2.25 16.2591 4.04561 16.2591 6.26042C16.2591 7.69468 15.4291 9.0032 14.6351 9.89702C14.227 10.3565 13.7975 10.7416 13.424 11.0178C13.238 11.1553 13.0547 11.2742 12.8856 11.3624C12.7528 11.4317 12.5114 11.5474 12.2487 11.5474C11.986 11.5474 11.7446 11.4317 11.6118 11.3624C11.4427 11.2742 11.2594 11.1553 11.0734 11.0178C10.6999 10.7416 10.2704 10.3565 9.86229 9.89702C9.06829 9.0032 8.23828 7.69468 8.23828 6.26042Z" fill="#000000" />
<path fill-rule="evenodd" clip-rule="evenodd" d="M11.3193 6.26614C11.3193 5.75264 11.7355 5.33594 12.2495 5.33594C12.7629 5.33594 13.1798 5.75204 13.1798 6.26614C13.1798 6.78023 12.7629 7.19634 12.2495 7.19634C11.7355 7.19634 11.3193 6.77963 11.3193 6.26614Z" fill="#000000" />
</svg>