<svg width="24px"  height="24px"  viewBox="0 0 25 24" fill="none" xmlns="http://www.w3.org/2000/svg">
<path d="M16.9812 16.661H7.52125C7.08706 16.6603 6.6595 16.5544 6.27528 16.3521C5.89105 16.1499 5.5616 15.8575 5.31522 15.5C5.07909 15.1664 4.92868 14.7798 4.87724 14.3744C4.82579 13.9689 4.8749 13.557 5.02024 13.175C5.602 11.7855 6.56727 10.5902 7.80323 9.729L7.40324 7.474C7.26712 6.75335 7.32277 6.00957 7.56461 5.3172C7.80646 4.62483 8.22601 4.00817 8.78123 3.52901C9.72886 2.72933 10.9216 2.27799 12.1612 2.25C13.5389 2.28458 14.8539 2.83277 15.8482 3.787C16.3243 4.2676 16.6735 4.85895 16.8645 5.50792C17.0554 6.15689 17.0822 6.84315 16.9422 7.505L16.5212 9.728C17.8035 10.5616 18.8246 11.7401 19.4672 13.128C19.6193 13.5153 19.6732 13.9341 19.6242 14.3473C19.5751 14.7604 19.4247 15.1551 19.1862 15.496C18.9413 15.855 18.6124 16.1488 18.2282 16.3519C17.8439 16.5549 17.4159 16.661 16.9812 16.661ZM12.1592 3.75C11.2725 3.775 10.4208 4.10205 9.74525 4.677C9.39166 4.98619 9.12541 5.38275 8.97309 5.82707C8.82077 6.27139 8.78772 6.74791 8.87724 7.209L9.36423 9.939C9.3903 10.0835 9.37328 10.2326 9.31532 10.3675C9.25735 10.5025 9.16102 10.6174 9.03825 10.698C7.87948 11.4092 6.96674 12.4587 6.42323 13.705C6.36494 13.8605 6.34604 14.0279 6.3682 14.1925C6.39036 14.357 6.4529 14.5135 6.55024 14.648C6.65856 14.8056 6.80349 14.9347 6.9726 15.024C7.14172 15.1133 7.32998 15.1604 7.52125 15.161H16.9812C17.1716 15.1608 17.3591 15.114 17.5271 15.0246C17.6952 14.9351 17.8388 14.8058 17.9452 14.648C18.0446 14.5079 18.1077 14.3453 18.129 14.1748C18.1503 14.0044 18.1291 13.8313 18.0672 13.671C17.4523 12.4264 16.4826 11.3919 15.2803 10.698C15.1561 10.6167 15.0589 10.5005 15.0009 10.364C14.9429 10.2274 14.9266 10.0768 14.9542 9.931L15.4662 7.231C15.5566 6.81284 15.5433 6.37893 15.4276 5.96707C15.3118 5.55522 15.0971 5.1779 14.8022 4.868C14.0882 4.18373 13.1476 3.78583 12.1592 3.75Z" fill="#000000" />
<path d="M12.248 21.7491C12.0491 21.7491 11.8584 21.6701 11.7177 21.5295C11.5771 21.3888 11.498 21.1981 11.498 20.9991V15.9102C11.498 15.7112 11.5771 15.5205 11.7177 15.3798C11.8584 15.2392 12.0491 15.1602 12.248 15.1602C12.447 15.1602 12.6377 15.2392 12.7784 15.3798C12.919 15.5205 12.998 15.7112 12.998 15.9102V21.0002C12.9978 21.1989 12.9186 21.3894 12.778 21.5298C12.6374 21.6703 12.4468 21.7491 12.248 21.7491Z" fill="#000000" />
</svg>