<svg width="24px"  height="24px"  viewBox="0 0 25 24" fill="none" xmlns="http://www.w3.org/2000/svg">
<path fill-rule="evenodd" clip-rule="evenodd" d="M12.0953 3.75C8.35302 3.75 5.31934 6.78356 5.31934 10.5269C5.31934 12.9304 6.75451 15.3744 8.44136 17.2736C9.27365 18.2107 10.1385 18.9823 10.8571 19.5136C11.2172 19.7799 11.5293 19.9775 11.7731 20.1048C11.9607 20.2027 12.0625 20.2346 12.0953 20.245C12.128 20.2346 12.2299 20.2027 12.4174 20.1048C12.6612 19.9775 12.9733 19.7799 13.3335 19.5136C14.052 18.9823 14.9169 18.2107 15.7492 17.2736C17.4361 15.3744 18.8712 12.9304 18.8712 10.5269C18.8712 10.1127 19.207 9.77692 19.6212 9.77692C20.0354 9.77692 20.3712 10.1127 20.3712 10.5269C20.3712 13.4787 18.6457 16.2712 16.8707 18.2697C15.9721 19.2815 15.0308 20.1241 14.2253 20.7197C13.8234 21.0169 13.444 21.261 13.1116 21.4345C12.8154 21.5891 12.4433 21.75 12.0953 21.75C11.7473 21.75 11.3752 21.5891 11.079 21.4345C10.7465 21.261 10.3672 21.0169 9.96527 20.7197C9.15981 20.1241 8.21848 19.2815 7.31985 18.2697C5.54486 16.2712 3.81934 13.4787 3.81934 10.5269C3.81934 5.95525 7.52446 2.25 12.0953 2.25C12.5095 2.25 12.8453 2.58579 12.8453 3C12.8453 3.41421 12.5095 3.75 12.0953 3.75Z" fill="#000000" />
<path fill-rule="evenodd" clip-rule="evenodd" d="M8.83496 10.4654C8.83496 8.66544 10.2937 7.20703 12.0943 7.20703C13.894 7.20703 15.3526 8.66563 15.3526 10.4654C15.3526 12.2647 13.8944 13.7247 12.0943 13.7247C10.2934 13.7247 8.83496 12.2649 8.83496 10.4654ZM12.0943 8.70703C11.1218 8.70703 10.335 9.49425 10.335 10.4654C10.335 11.4368 11.1222 12.2247 12.0943 12.2247C13.0652 12.2247 13.8526 11.437 13.8526 10.4654C13.8526 9.49406 13.0656 8.70703 12.0943 8.70703Z" fill="#000000" />
<path fill-rule="evenodd" clip-rule="evenodd" d="M17.6455 2.25C18.0597 2.25 18.3955 2.58579 18.3955 3V4.53516H19.9304C20.3446 4.53516 20.6804 4.87094 20.6804 5.28516C20.6804 5.69937 20.3446 6.03516 19.9304 6.03516H18.3955V7.56811C18.3955 7.98232 18.0597 8.31811 17.6455 8.31811C17.2313 8.31811 16.8955 7.98232 16.8955 7.56811V6.03516H15.3623C14.9481 6.03516 14.6123 5.69937 14.6123 5.28516C14.6123 4.87094 14.9481 4.53516 15.3623 4.53516H16.8955V3C16.8955 2.58579 17.2313 2.25 17.6455 2.25Z" fill="#000000" />
</svg>