<svg width="24px"  height="24px"  viewBox="0 0 25 24" fill="none" xmlns="http://www.w3.org/2000/svg">
<path d="M12.2762 21.7515C11.7022 21.7515 11.1293 21.7007 10.5642 21.5995C10.4651 21.5846 10.37 21.55 10.2845 21.4977C10.199 21.4454 10.1248 21.3765 10.0664 21.295C10.0079 21.2136 9.96642 21.1213 9.94429 21.0235C9.92216 20.9257 9.91985 20.8245 9.9375 20.7258C9.95515 20.6272 9.99239 20.533 10.047 20.449C10.1017 20.3649 10.1726 20.2927 10.2557 20.2366C10.3387 20.1804 10.4322 20.1415 10.5305 20.1221C10.6288 20.1027 10.7301 20.1032 10.8282 20.1235C12.3882 20.404 13.996 20.2263 15.4571 19.612C16.9182 18.9977 18.17 17.9732 19.0609 16.6623C19.9519 15.3514 20.4438 13.8104 20.4773 12.2258C20.5107 10.6412 20.0841 9.0808 19.2492 7.73354L19.0982 9.00853C19.0749 9.20612 18.974 9.38634 18.8178 9.50956C18.6616 9.63277 18.4628 9.68887 18.2652 9.66553C18.0677 9.64219 17.8874 9.54132 17.7642 9.3851C17.641 9.22889 17.5849 9.03012 17.6082 8.83254L17.9742 5.74854C17.9908 5.60756 18.047 5.47417 18.1363 5.36386C18.2257 5.25356 18.3445 5.17088 18.479 5.12543C18.6134 5.07998 18.7581 5.07361 18.896 5.10709C19.0339 5.14057 19.1596 5.2125 19.2582 5.31453C20.5807 6.6844 21.4707 8.41317 21.8174 10.2854C22.164 12.1576 21.9521 14.0904 21.2078 15.843C20.4636 17.5955 19.22 19.0903 17.6322 20.141C16.0443 21.1917 14.1823 21.7518 12.2782 21.7515H12.2762Z" fill="#000000" />
<path d="M12.2496 16.8621C11.1916 16.8621 8.14062 14.1041 8.14062 11.4371C8.14062 10.3473 8.57353 9.3022 9.34412 8.53162C10.1147 7.76103 11.1598 7.32812 12.2496 7.32812C13.3394 7.32812 14.3845 7.76103 15.1551 8.53162C15.9257 9.3022 16.3586 10.3473 16.3586 11.4371C16.3496 14.1001 13.3036 16.8621 12.2496 16.8621ZM12.2496 8.82812C11.558 8.82918 10.895 9.10439 10.4059 9.59344C9.91689 10.0825 9.64168 10.7455 9.64062 11.4371C9.64062 13.1731 11.5626 14.9581 12.2496 15.3231C12.9376 14.9581 14.8586 13.1731 14.8586 11.4371C14.8578 10.7454 14.5827 10.0823 14.0936 9.59315C13.6045 9.10404 12.9413 8.82892 12.2496 8.82812Z" fill="#000000" />
<path d="M5.7344 18.8684C5.63278 18.8687 5.53218 18.8482 5.4388 18.8081C5.34542 18.768 5.26123 18.7093 5.1914 18.6354C3.77792 17.1495 2.87177 15.2538 2.60312 13.2207C2.33448 11.1875 2.71716 9.1215 3.69619 7.31944C4.67521 5.51737 6.2002 4.07199 8.05211 3.19088C9.90402 2.30977 11.9875 2.03829 14.0034 2.41544C14.1027 2.43068 14.198 2.46573 14.2835 2.51849C14.369 2.57125 14.4431 2.64065 14.5012 2.72259C14.5594 2.80452 14.6005 2.89731 14.6221 2.99545C14.6438 3.09358 14.6454 3.19505 14.6271 3.29385C14.6087 3.39264 14.5707 3.48674 14.5152 3.57055C14.4598 3.65436 14.3881 3.72618 14.3044 3.78173C14.2206 3.83729 14.1266 3.87546 14.0278 3.89396C13.929 3.91246 13.8276 3.91094 13.7294 3.88946C12.1715 3.59773 10.5625 3.76371 9.09707 4.36733C7.63159 4.97095 6.37246 5.98634 5.47201 7.29063C4.57155 8.59491 4.06837 10.1322 4.02337 11.7165C3.97836 13.3008 4.39344 14.8641 5.21839 16.2174L5.38039 14.9425C5.40802 14.7474 5.51126 14.5711 5.66779 14.4516C5.82432 14.3321 6.02159 14.2789 6.21698 14.3036C6.41238 14.3283 6.59024 14.4288 6.71212 14.5836C6.834 14.7383 6.89014 14.9347 6.8684 15.1305L6.4784 18.2125C6.45592 18.3938 6.36783 18.5607 6.23076 18.6815C6.0937 18.8024 5.91713 18.8689 5.7344 18.8684Z" fill="#000000" />
<path d="M12.2505 12.13C12.0647 12.13 11.883 12.0749 11.7284 11.9716C11.5739 11.8684 11.4534 11.7217 11.3822 11.55C11.311 11.3782 11.2923 11.1893 11.3285 11.007C11.3647 10.8247 11.4541 10.6572 11.5855 10.5257C11.7169 10.3942 11.8843 10.3046 12.0666 10.2682C12.2488 10.2318 12.4378 10.2503 12.6096 10.3213C12.7814 10.3923 12.9282 10.5126 13.0316 10.667C13.1351 10.8215 13.1904 11.0031 13.1905 11.189C13.1903 11.4383 13.0912 11.6774 12.915 11.8537C12.7388 12.0301 12.4999 12.1295 12.2505 12.13Z" fill="#000000" />
</svg>