<svg width="24px"  height="24px"  viewBox="0 0 25 24" fill="none" xmlns="http://www.w3.org/2000/svg">
<path fill-rule="evenodd" clip-rule="evenodd" d="M8.81458 7.80082C9.22878 7.80496 9.56119 8.14409 9.55705 8.55828L9.53935 10.3283C9.52826 11.0931 9.27385 11.8585 8.77298 12.4748L7.94509 13.5141C7.4338 14.1557 7.89244 15.0969 8.70109 15.0969H15.794C15.8432 15.0969 15.8823 15.0926 15.9207 15.0849C15.9692 15.0752 16.0184 15.0704 16.0678 15.0704H16.0767C16.4909 15.0704 16.8267 15.4061 16.8267 15.8204C16.8267 16.205 16.5372 16.522 16.1642 16.5653C16.0429 16.5865 15.9213 16.5969 15.794 16.5969H8.70109C6.63021 16.5969 5.48132 14.1991 6.77185 12.5795C6.77187 12.5795 6.77182 12.5795 6.77185 12.5795L7.60731 11.5307C7.88159 11.1941 8.03259 10.7602 8.03947 10.3081L8.05712 8.54328C8.06126 8.12909 8.40039 7.79668 8.81458 7.80082Z" fill="#000000" />
<path fill-rule="evenodd" clip-rule="evenodd" d="M12.248 15.1836C12.6623 15.1836 12.998 15.5194 12.998 15.9336V20.003C12.998 20.4172 12.6623 20.753 12.248 20.753C11.8338 20.753 11.498 20.4172 11.498 20.003V15.9336C11.498 15.5194 11.8338 15.1836 12.248 15.1836Z" fill="#000000" />
<path fill-rule="evenodd" clip-rule="evenodd" d="M4.40326 4.15326C4.69616 3.86037 5.17103 3.86037 5.46392 4.15326L20.0941 18.7834C20.387 19.0763 20.387 19.5512 20.0941 19.8441C19.8012 20.137 19.3263 20.137 19.0334 19.8441L4.40326 5.21392C4.11037 4.92103 4.11037 4.44616 4.40326 4.15326Z" fill="#000000" />
<path fill-rule="evenodd" clip-rule="evenodd" d="M9.33548 4.75C9.28404 4.75 9.23178 4.75465 9.17815 4.7644C9.13389 4.77245 9.08898 4.7765 9.04399 4.7765H9.03516C8.62094 4.7765 8.28516 4.44071 8.28516 4.0265C8.28516 3.63882 8.57931 3.31984 8.9566 3.28056C9.08199 3.26029 9.20841 3.25 9.33548 3.25H15.1564C16.3065 3.25 17.4327 4.08038 17.5547 5.34104L17.5555 5.34886C17.6206 6.10406 17.3194 6.79584 16.8134 7.26284L16.8079 7.26792C16.5557 7.4961 16.4372 7.75574 16.4364 7.99017L16.4541 10.3156C16.4541 10.3996 16.4643 10.4841 16.4828 10.6228C16.5376 11.0334 16.2491 11.4106 15.8385 11.4654C15.428 11.5201 15.0507 11.2316 14.996 10.8211L14.9942 10.8076C14.9775 10.6829 14.9543 10.5093 14.9541 10.3188L14.9364 7.99253C14.9364 7.24003 15.3109 6.60093 15.7981 6.15867C15.979 5.99062 16.0831 5.74855 16.0613 5.48175C16.0222 5.10093 15.6477 4.75 15.1564 4.75H9.33548Z" fill="#000000" />
</svg>