<svg width="24px"  height="24px"  viewBox="0 0 25 24" fill="none" xmlns="http://www.w3.org/2000/svg">
<path fill-rule="evenodd" clip-rule="evenodd" d="M9.9381 9.71831C10.0614 10.1137 9.84083 10.5343 9.4454 10.6576L6.77511 11.4904C6.65149 11.5324 6.55904 11.5916 6.49822 11.6558L6.48409 11.6703C6.35333 11.8011 6.28613 11.9779 6.28613 12.1568C6.28613 12.3473 6.35498 12.5233 6.48409 12.6524L11.593 17.7613C11.8755 18.0374 12.3195 18.0308 12.5866 17.7637C12.6725 17.6778 12.7248 17.5874 12.7487 17.5017C12.7509 17.4939 12.7532 17.4862 12.7557 17.4784L13.6 14.8002C13.7245 14.4052 14.1457 14.1859 14.5408 14.3104C14.9358 14.435 15.1551 14.8562 15.0306 15.2512L14.1895 17.9193C14.0853 18.2818 13.8853 18.5863 13.6472 18.8244C12.7891 19.6825 11.4005 19.6764 10.539 18.8286L10.5348 18.8244L10.5348 18.8244L5.42343 13.7131C4.98965 13.2793 4.78613 12.7108 4.78613 12.1568C4.78613 11.6124 4.98907 11.048 5.41639 10.6167C5.68009 10.3413 6.00027 10.1675 6.3067 10.0653L6.32058 10.0609L8.99882 9.22562C9.39425 9.1023 9.81478 9.32288 9.9381 9.71831Z" fill="#000000" />
<path fill-rule="evenodd" clip-rule="evenodd" d="M9.04347 15.208C9.33636 15.5008 9.33636 15.9757 9.04347 16.2686L5.34478 19.9673C5.05189 20.2602 4.57702 20.2602 4.28412 19.9673C3.99123 19.6744 3.99123 19.1995 4.28412 18.9066L7.98281 15.208C8.2757 14.9151 8.75058 14.9151 9.04347 15.208Z" fill="#000000" />
<path fill-rule="evenodd" clip-rule="evenodd" d="M14.1837 4.9593C13.9022 4.67787 13.4635 4.68402 13.1968 4.95504L13.1925 4.95932L13.1925 4.9593L12.6206 5.53126C12.4258 5.72601 12.3644 6.02035 12.4739 6.2831C12.4809 6.29995 12.4873 6.31706 12.4931 6.33438L12.4956 6.34188C12.7967 7.11346 12.6478 7.99881 12.0817 8.62007C11.8028 8.92625 11.3284 8.94832 11.0222 8.66935C10.716 8.39038 10.694 7.91602 10.973 7.60983C11.1456 7.42038 11.1992 7.13732 11.0951 6.87944C11.0893 6.86512 11.084 6.85062 11.0791 6.83597L11.0778 6.83207C10.7492 6.0122 10.9446 5.08594 11.5599 4.4706L12.0902 5.00093L11.5599 4.4706L12.13 3.90055C12.9892 3.03001 14.3826 3.03693 15.2443 3.89864L20.3557 9.00998C21.2114 9.86576 21.2114 11.2576 20.3557 12.1134L19.7837 12.6853C19.1503 13.3187 18.2119 13.4977 17.4002 13.1675C17.3822 13.1602 17.3646 13.1522 17.3473 13.1436L17.3406 13.1402C17.1103 13.055 16.8375 13.1055 16.6445 13.2814C16.3383 13.5603 15.8639 13.5383 15.585 13.2321C15.306 12.9259 15.3281 12.4515 15.6342 12.1726C16.2525 11.6093 17.1491 11.4395 17.9314 11.7608C17.9485 11.7679 17.9653 11.7755 17.9818 11.7838L17.9876 11.7867C18.2417 11.8802 18.5269 11.8208 18.723 11.6247L19.295 11.0527C19.565 10.7827 19.565 10.3406 19.295 10.0706L14.1837 4.9593Z" fill="#000000" />
<path fill-rule="evenodd" clip-rule="evenodd" d="M3.71967 4.43061C4.01256 4.13771 4.48744 4.13771 4.78033 4.43061L19.8175 19.4678C20.1104 19.7607 20.1104 20.2355 19.8175 20.5284C19.5246 20.8213 19.0497 20.8213 18.7568 20.5284L3.71967 5.49127C3.42678 5.19837 3.42678 4.7235 3.71967 4.43061Z" fill="#000000" />
</svg>