<svg width="24px"  height="24px"  viewBox="0 0 25 24" fill="none" xmlns="http://www.w3.org/2000/svg">
<path fill-rule="evenodd" clip-rule="evenodd" d="M12.2496 3.75C8.50731 3.75 5.47363 6.78356 5.47363 10.5269C5.47363 12.9304 6.90881 15.3744 8.59566 17.2736C9.42795 18.2107 10.2928 18.9823 11.0114 19.5136C11.3715 19.7799 11.6836 19.9775 11.9274 20.1048C12.115 20.2027 12.2168 20.2346 12.2496 20.245C12.2823 20.2346 12.3842 20.2027 12.5717 20.1048C12.8155 19.9775 13.1276 19.7799 13.4878 19.5136C14.2063 18.9823 15.0712 18.2107 15.9035 17.2736C17.5903 15.3744 19.0255 12.9304 19.0255 10.5269C19.0255 6.78356 15.9918 3.75 12.2496 3.75ZM3.97363 10.5269C3.97363 5.95525 7.67876 2.25 12.2496 2.25C16.8204 2.25 20.5255 5.95525 20.5255 10.5269C20.5255 13.4787 18.8 16.2712 17.025 18.2697C16.1264 19.2815 15.1851 20.1241 14.3796 20.7197C13.9777 21.0169 13.5983 21.261 13.2658 21.4345C12.9697 21.5891 12.5976 21.75 12.2496 21.75C11.9016 21.75 11.5295 21.5891 11.2333 21.4345C10.9008 21.261 10.5215 21.0169 10.1196 20.7197C9.31411 20.1241 8.37277 19.2815 7.47415 18.2697C5.69916 16.2712 3.97363 13.4787 3.97363 10.5269Z" fill="#000000" />
<path fill-rule="evenodd" clip-rule="evenodd" d="M12.2473 7.95312C11.7308 7.95312 11.253 8.11324 10.8519 8.38637C10.5096 8.61953 10.043 8.53101 9.80987 8.18865C9.57671 7.8463 9.66523 7.37975 10.0076 7.14658C10.6437 6.71334 11.4133 6.45312 12.2473 6.45312C14.4527 6.45312 16.2402 8.24059 16.2402 10.446C16.2402 10.7151 16.2116 10.9879 16.1615 11.2395C16.1179 11.4587 15.9788 11.6471 15.782 11.7532C15.5853 11.8593 15.3515 11.8721 15.1443 11.7882L13.5885 11.1577C13.2046 11.0021 13.0195 10.5648 13.1751 10.1809C13.3307 9.79701 13.768 9.61192 14.1519 9.76749L14.6984 9.98897C14.4838 8.83032 13.4682 7.95312 12.2473 7.95312Z" fill="#000000" />
<path fill-rule="evenodd" clip-rule="evenodd" d="M8.71596 9.07819C8.91269 8.97208 9.14649 8.95923 9.35365 9.04317L10.7898 9.625C11.1737 9.78054 11.3588 10.2178 11.2033 10.6017C11.0477 10.9856 10.6104 11.1708 10.2265 11.0152L9.79958 10.8423C10.0141 12.001 11.0298 12.8782 12.2507 12.8782C12.7679 12.8782 13.2453 12.7187 13.6453 12.4455C13.9873 12.2119 14.454 12.2998 14.6876 12.6419C14.9212 12.984 14.8333 13.4506 14.4912 13.6842C13.854 14.1194 13.084 14.3782 12.2507 14.3782C10.0453 14.3782 8.25781 12.5908 8.25781 10.3853C8.25781 10.1162 8.28639 9.84341 8.33646 9.59187C8.3801 9.37265 8.51924 9.18431 8.71596 9.07819Z" fill="#000000" />
</svg>