<svg width="24px"  height="24px"  viewBox="0 0 25 24" fill="none" xmlns="http://www.w3.org/2000/svg">
<path fill-rule="evenodd" clip-rule="evenodd" d="M3.9902 3.89737C4.97468 2.84117 6.37669 2.25 8.03216 2.25H16.4669C18.1262 2.25 19.5288 2.84084 20.5129 3.89765C21.4913 4.94841 22 6.39889 22 8.02638V15.9736C22 17.6011 21.4913 19.0516 20.5127 20.1024C19.5285 21.1592 18.1257 21.75 16.4659 21.75H8.03216C6.3728 21.75 4.97038 21.1591 3.98657 20.1023C3.00842 19.0515 2.5 17.601 2.5 15.9736V8.02638C2.5 6.39806 3.01117 4.94771 3.9902 3.89737ZM5.08745 4.92012C4.41024 5.64667 4 6.70951 4 8.02638V15.9736C4 17.2914 4.40861 18.3541 5.08451 19.0802C5.75475 19.8003 6.74341 20.25 8.03216 20.25H16.4659C17.7552 20.25 18.7444 19.8002 19.415 19.0801C20.0912 18.354 20.5 17.2913 20.5 15.9736V8.02638C20.5 6.70868 20.0912 5.64597 19.4151 4.91984C18.7446 4.19975 17.7556 3.75 16.4669 3.75H8.03216C6.74828 3.75 5.75921 4.19943 5.08745 4.92012ZM12.6166 7.02724C13.3298 6.43843 14.3229 6.59755 14.899 7.17356L17.3178 9.59237C17.8932 10.1678 18.0534 11.161 17.464 11.8739C17.113 12.299 16.6041 12.4995 16.1076 12.4784L16.1049 12.4783C15.9587 12.4716 15.8991 12.514 15.8807 12.5327L14.9254 13.5036C14.9252 13.5038 14.9249 13.5041 14.9246 13.5044C14.7888 13.6438 14.7042 13.8223 14.683 14.0128L14.5954 14.7956C14.4312 16.263 12.642 16.8922 11.5966 15.8468L10.6503 14.9005L9.45189 16.0989C9.159 16.3918 8.68412 16.3918 8.39123 16.0989C8.09834 15.806 8.09834 15.3312 8.39123 15.0383L9.58965 13.8399L8.64457 12.8948C7.60007 11.8503 8.226 10.0592 9.69582 9.89497L10.4783 9.80834C10.6688 9.78712 10.8479 9.702 10.9855 9.56713C10.9856 9.56705 10.9854 9.56721 10.9855 9.56713L11.9574 8.61181C11.9574 8.61174 11.9573 8.61188 11.9574 8.61181C11.9763 8.593 12.0192 8.53093 12.0129 8.38404C11.9919 7.88933 12.1901 7.37942 12.6166 7.02724ZM13.5715 8.184C13.5291 8.21907 13.5093 8.266 13.5116 8.32001C13.5305 8.76214 13.412 9.28401 13.0106 9.67986L12.0368 10.6371C11.6607 11.0061 11.1699 11.2406 10.6444 11.2991L9.86241 11.3857C9.86225 11.3857 9.86257 11.3857 9.86241 11.3857C9.64349 11.4105 9.54918 11.6781 9.70523 11.8341L12.6572 14.7861C12.8124 14.9413 13.0801 14.8485 13.1047 14.6288L13.1922 13.8471C13.2508 13.3199 13.485 12.8313 13.8527 12.4551L13.8545 12.4533L14.8103 11.482C15.2063 11.0784 15.7286 10.9594 16.1739 10.9799L16.1394 11.7291L16.1713 10.9798C16.2235 10.982 16.2712 10.9626 16.3074 10.9188C16.3231 10.8998 16.3383 10.8673 16.3336 10.8145C16.3286 10.7583 16.3021 10.6981 16.2571 10.653L13.8383 8.23422C13.7933 8.18923 13.7331 8.16273 13.6768 8.15773C13.6239 8.15304 13.5913 8.16765 13.5715 8.184Z" fill="#000000" />
</svg>