<svg width="24px"  height="24px"  viewBox="0 0 25 24" fill="none" xmlns="http://www.w3.org/2000/svg">
<path d="M13.3216 21.6908C13.1374 21.6908 12.9597 21.623 12.8223 21.5004C12.6849 21.3777 12.5974 21.2088 12.5766 21.0258L12.2386 18.0459C12.2204 17.8505 12.2796 17.6558 12.4033 17.5036C12.527 17.3513 12.7054 17.2536 12.9003 17.2314C13.0952 17.2092 13.2911 17.2641 13.4459 17.3846C13.6008 17.5051 13.7022 17.6814 13.7286 17.8758L14.0676 20.8559C14.0788 20.9538 14.0707 21.0529 14.0436 21.1477C14.0166 21.2424 13.9711 21.3309 13.9098 21.4081C13.8485 21.4853 13.7726 21.5497 13.6864 21.5975C13.6002 21.6453 13.5055 21.6757 13.4076 21.6868C13.3786 21.6888 13.3496 21.6908 13.3216 21.6908Z" fill="#000000" />
<path d="M11.511 5.79591C11.327 5.79562 11.1495 5.72773 11.0123 5.60511C10.8751 5.4825 10.7878 5.31374 10.767 5.13093L10.541 3.14393C10.5184 2.94621 10.5753 2.74762 10.6992 2.59187C10.8231 2.43612 11.0037 2.33597 11.2015 2.31343C11.3992 2.29088 11.5978 2.34782 11.7535 2.47169C11.9093 2.59556 12.0094 2.77623 12.032 2.97395L12.258 4.96095C12.2802 5.15863 12.2231 5.35704 12.0991 5.51264C11.9752 5.66825 11.7946 5.76831 11.597 5.7909C11.5684 5.79411 11.5397 5.79579 11.511 5.79591Z" fill="#000000" />
<path d="M12.4169 13.743C12.2329 13.7427 12.0555 13.6748 11.9183 13.5522C11.7811 13.4296 11.6938 13.2608 11.6729 13.078L11.3339 10.101C11.3114 9.90324 11.3683 9.70471 11.4922 9.54896C11.6161 9.39321 11.7967 9.293 11.9944 9.27046C12.1922 9.24791 12.3907 9.30485 12.5465 9.42872C12.7022 9.55259 12.8024 9.73326 12.8249 9.93098L13.1629 12.912C13.1854 13.1096 13.1285 13.308 13.0048 13.4636C12.881 13.6193 12.7005 13.7194 12.5029 13.742C12.4743 13.7438 12.4456 13.7441 12.4169 13.743Z" fill="#000000" />
<path d="M6.82218 11.3593C6.39364 11.3594 5.97991 11.2025 5.65918 10.9183L4.15318 9.57732C3.83115 9.29153 3.62592 8.89692 3.57683 8.46917C3.52774 8.04142 3.63826 7.61063 3.88718 7.25933L5.05218 5.61333C5.19442 5.41302 5.37714 5.24479 5.5885 5.11956C5.79987 4.99432 6.03516 4.91489 6.27918 4.88634L16.8922 3.67534C17.3532 3.62275 17.8163 3.75544 18.1796 4.04424C18.5428 4.33303 18.7765 4.75426 18.8292 5.21532L19.1702 8.19933C19.2228 8.66051 19.0901 9.12371 18.8013 9.48711C18.5126 9.85051 18.0913 10.0844 17.6302 10.1373L7.01918 11.3483C6.95375 11.3554 6.88799 11.3591 6.82218 11.3593ZM6.27618 6.48034L5.11218 8.12633C5.07672 8.17653 5.06099 8.238 5.068 8.29906C5.07501 8.36012 5.10427 8.41647 5.15018 8.45732L6.65618 9.79729C6.6828 9.81985 6.71371 9.83678 6.74705 9.8471C6.78039 9.85741 6.81547 9.86087 6.85018 9.85729L17.4612 8.64629C17.4938 8.64301 17.5254 8.63317 17.5541 8.61736C17.5828 8.60155 17.608 8.58011 17.6282 8.55431C17.6488 8.52868 17.6641 8.49923 17.6732 8.46764C17.6823 8.43605 17.685 8.40294 17.6812 8.37029L17.3402 5.3853C17.3324 5.31955 17.299 5.25953 17.2472 5.21831C17.2218 5.19737 17.1923 5.18189 17.1607 5.17278C17.129 5.16366 17.0958 5.16113 17.0632 5.16533L6.45218 6.37633C6.41765 6.38038 6.38428 6.39132 6.35404 6.4085C6.32381 6.42567 6.29734 6.44872 6.27618 6.47631V6.48034Z" fill="#000000" />
<path d="M7.40398 19.3479C6.97511 19.3468 6.56159 19.1881 6.24194 18.9022C5.92228 18.6163 5.71874 18.223 5.66998 17.7969L5.32898 14.8109C5.30253 14.5826 5.32142 14.3512 5.38456 14.1301C5.4477 13.9091 5.55384 13.7027 5.69691 13.5227C5.83997 13.3428 6.01715 13.1928 6.21828 13.0815C6.41941 12.9701 6.64053 12.8996 6.86898 12.8739L17.479 11.6599C17.7238 11.6317 17.9718 11.6556 18.2067 11.73C18.4416 11.8045 18.6581 11.9279 18.842 12.0919L20.347 13.4309C20.6687 13.717 20.8736 14.1116 20.9225 14.5393C20.9713 14.9669 20.8608 15.3976 20.612 15.7489L19.448 17.3949C19.3054 17.5952 19.1225 17.7633 18.911 17.8885C18.6995 18.0137 18.4641 18.0932 18.22 18.1219L7.60398 19.3359C7.5376 19.3437 7.47082 19.3477 7.40398 19.3479ZM17.678 13.1479H17.649L7.03898 14.3619C6.97336 14.3697 6.91346 14.403 6.87228 14.4547C6.83109 14.5064 6.81194 14.5722 6.81898 14.6379L7.15998 17.6239C7.16344 17.6566 7.17347 17.6882 7.18945 17.7169C7.20543 17.7456 7.22703 17.7708 7.25298 17.7909C7.27828 17.8117 7.30756 17.8271 7.33902 17.8362C7.37048 17.8454 7.40348 17.8479 7.43598 17.8439L18.047 16.6299C18.0817 16.6264 18.1152 16.6157 18.1456 16.5985C18.1759 16.5813 18.2022 16.5579 18.223 16.5299L19.388 14.8859C19.4233 14.8354 19.4389 14.7739 19.4319 14.7127C19.4249 14.6515 19.3958 14.595 19.35 14.5539L17.844 13.2149C17.7973 13.172 17.7363 13.1481 17.673 13.1479H17.678Z" fill="#000000" />
</svg>