<svg width="24px"  height="24px"  viewBox="0 0 25 24" fill="none" xmlns="http://www.w3.org/2000/svg">
<path d="M12.998 18C12.998 17.5858 12.6623 17.25 12.248 17.25C11.8338 17.25 11.498 17.5858 11.498 18V21C11.498 21.4142 11.8338 21.75 12.248 21.75C12.6623 21.75 12.998 21.4142 12.998 21V18Z" fill="#000000" />
<path d="M13.0059 3C13.0059 2.58579 12.6701 2.25 12.2559 2.25C11.8416 2.25 11.5059 2.58579 11.5059 3V5C11.5059 5.41421 11.8416 5.75 12.2559 5.75C12.6701 5.75 13.0059 5.41421 13.0059 5V3Z" fill="#000000" />
<path d="M13.0039 10C13.0039 9.58579 12.6681 9.25 12.2539 9.25C11.8397 9.25 11.5039 9.58579 11.5039 10V13C11.5039 13.4142 11.8397 13.75 12.2539 13.75C12.6681 13.75 13.0039 13.4142 13.0039 13V10Z" fill="#000000" />
<path d="M17.7527 10.7568H7.07269C6.82726 10.756 6.58473 10.7038 6.36079 10.6033C6.13685 10.5029 5.93649 10.3565 5.77269 10.1738L4.42869 8.67377C4.14133 8.35298 3.98242 7.93745 3.98242 7.50677C3.98242 7.0761 4.14133 6.66057 4.42869 6.33978L5.77269 4.83978C5.93662 4.65725 6.13703 4.51114 6.36095 4.41089C6.58488 4.31064 6.82735 4.25851 7.07269 4.25781H17.7527C18.2167 4.25834 18.6615 4.44286 18.9895 4.77094C19.3176 5.09901 19.5022 5.54385 19.5027 6.00781V9.01282C19.5006 9.47574 19.3153 9.91901 18.9874 10.2458C18.6595 10.5726 18.2156 10.7563 17.7527 10.7568ZM6.89069 5.8338L5.54669 7.3338C5.50571 7.37978 5.48307 7.43921 5.48307 7.50079C5.48307 7.56238 5.50571 7.62181 5.54669 7.66779L6.89069 9.16779C6.91413 9.1939 6.94281 9.21476 6.97485 9.22906C7.0069 9.24337 7.0416 9.25079 7.07669 9.25079H17.7567C17.823 9.25079 17.8866 9.22444 17.9335 9.17755C17.9804 9.13067 18.0067 9.0671 18.0067 9.00079V6.00079C18.0067 5.93449 17.9804 5.87092 17.9335 5.82404C17.8866 5.77715 17.823 5.75079 17.7567 5.75079H7.07669C7.04159 5.75074 7.00687 5.7581 6.97481 5.7724C6.94276 5.7867 6.91409 5.80764 6.89069 5.8338Z" fill="#000000" />
<path d="M6.75205 18.752C6.5218 18.7523 6.29377 18.7071 6.08097 18.6192C5.86818 18.5313 5.6748 18.4023 5.5119 18.2396C5.349 18.0768 5.21977 17.8836 5.1316 17.6709C5.04343 17.4582 4.99805 17.2302 4.99805 17V14C4.99884 13.5365 5.18319 13.0921 5.51078 12.7642C5.83836 12.4362 6.28251 12.2513 6.74605 12.25H17.428C17.6734 12.2507 17.9159 12.3028 18.1398 12.4031C18.3637 12.5033 18.5641 12.6494 18.728 12.832L20.072 14.332C20.3588 14.6531 20.5173 15.0685 20.5173 15.499C20.5173 15.9295 20.3588 16.3449 20.072 16.666L18.727 18.166C18.5632 18.3488 18.3629 18.4951 18.1389 18.5955C17.915 18.6959 17.6725 18.7483 17.427 18.749L6.75205 18.752ZM17.432 13.746H6.75205C6.68574 13.746 6.62215 13.7723 6.57527 13.8192C6.52839 13.8661 6.50205 13.9297 6.50205 13.996V17C6.50205 17.0663 6.52839 17.1299 6.57527 17.1768C6.62215 17.2236 6.68574 17.25 6.75205 17.25H17.432C17.4671 17.25 17.5018 17.2426 17.5339 17.2283C17.5659 17.214 17.5946 17.1931 17.618 17.167L18.962 15.667C19.003 15.621 19.0257 15.5616 19.0257 15.5C19.0257 15.4384 19.003 15.379 18.962 15.333L17.618 13.833C17.5946 13.8056 17.5654 13.7836 17.5326 13.7686C17.4998 13.7536 17.4641 13.7458 17.428 13.746H17.432Z" fill="#000000" />
</svg>