<svg width="24px"  height="24px"  viewBox="0 0 25 24" fill="none" xmlns="http://www.w3.org/2000/svg">
<path fill-rule="evenodd" clip-rule="evenodd" d="M3.9873 3.89761C4.97148 2.8408 6.37435 2.25 8.03411 2.25H16.4678C18.1272 2.25 19.5296 2.84086 20.5134 3.89773C21.4916 4.94853 22 6.39899 22 8.02638V15.9736C22 17.6019 21.4888 19.0523 20.5098 20.1026C19.5253 21.1588 18.1233 21.75 16.4678 21.75H8.03313C6.37379 21.75 4.97117 21.1592 3.98714 20.1024C3.00872 19.0516 2.5 17.6011 2.5 15.9736V8.02638C2.5 6.39889 3.00873 4.94838 3.9873 3.89761ZM5.085 4.91988C4.40879 5.64599 4 6.70868 4 8.02638V15.9736C4 17.2913 4.40879 18.354 5.08492 19.0802C5.75542 19.8003 6.74437 20.25 8.03313 20.25H16.4678C17.7517 20.25 18.7408 19.8006 19.4125 19.0799C20.0898 18.3533 20.5 17.2905 20.5 15.9736V8.02638C20.5 6.70857 20.0914 5.64585 19.4155 4.91976C18.7452 4.19973 17.7566 3.75 16.4678 3.75H8.03411C6.74478 3.75 5.7556 4.1998 5.085 4.91988Z" fill="#000000" />
<path fill-rule="evenodd" clip-rule="evenodd" d="M6.31543 9.41406C6.31543 8.99985 6.65122 8.66406 7.06543 8.66406H9.21473C11.3044 8.66406 12.9985 10.3581 12.9985 12.4478V16.1636C12.9985 16.5778 12.6627 16.9136 12.2485 16.9136C11.8342 16.9136 11.4985 16.5778 11.4985 16.1636V12.4478C11.4985 11.1865 10.476 10.1641 9.21473 10.1641H7.06543C6.65122 10.1641 6.31543 9.82828 6.31543 9.41406Z" fill="#000000" />
<path fill-rule="evenodd" clip-rule="evenodd" d="M9.18365 7.3017C9.47654 7.59459 9.47654 8.06947 9.18365 8.36236L8.12609 9.41992L9.18365 10.4775C9.47654 10.7704 9.47654 11.2453 9.18365 11.5381C8.89076 11.831 8.41588 11.831 8.12299 11.5381L6.5351 9.95025C6.24221 9.65736 6.24221 9.18249 6.5351 8.88959L8.12299 7.3017C8.41588 7.00881 8.89076 7.00881 9.18365 7.3017Z" fill="#000000" />
<path fill-rule="evenodd" clip-rule="evenodd" d="M15.2857 10.1641C14.0244 10.1641 13.002 11.1865 13.002 12.4478V16.1636C13.002 16.5778 12.6662 16.9136 12.252 16.9136C11.8377 16.9136 11.502 16.5778 11.502 16.1636V12.4478C11.502 10.3581 13.196 8.66406 15.2857 8.66406H17.435C17.8492 8.66406 18.185 8.99985 18.185 9.41406C18.185 9.82828 17.8492 10.1641 17.435 10.1641H15.2857Z" fill="#000000" />
<path fill-rule="evenodd" clip-rule="evenodd" d="M15.3173 7.3017C15.6102 7.00881 16.0851 7.00881 16.378 7.3017L17.9659 8.88959C18.2588 9.18249 18.2588 9.65736 17.9659 9.95025L16.378 11.5381C16.0851 11.831 15.6102 11.831 15.3173 11.5381C15.0244 11.2453 15.0244 10.7704 15.3173 10.4775L16.3749 9.41992L15.3173 8.36236C15.0244 8.06947 15.0244 7.59459 15.3173 7.3017Z" fill="#000000" />
</svg>