<svg width="24px"  height="24px"  viewBox="0 0 25 24" fill="none" xmlns="http://www.w3.org/2000/svg">
<path fill-rule="evenodd" clip-rule="evenodd" d="M12.25 3.75C7.69329 3.75 4 7.44329 4 12C4 16.5567 7.69329 20.25 12.25 20.25C16.8067 20.25 20.5 16.5567 20.5 12C20.5 7.44329 16.8067 3.75 12.25 3.75ZM2.5 12C2.5 6.61487 6.86487 2.25 12.25 2.25C17.6351 2.25 22 6.61487 22 12C22 17.3851 17.6351 21.75 12.25 21.75C6.86487 21.75 2.5 17.3851 2.5 12Z" fill="#000000" />
<path fill-rule="evenodd" clip-rule="evenodd" d="M10.5833 5.89752C10.0156 7.42275 9.64941 9.58009 9.64941 12C9.64941 14.4199 10.0156 16.5773 10.5833 18.1025C10.8682 18.8679 11.1895 19.4351 11.5082 19.7973C11.828 20.1607 12.0804 20.25 12.2494 20.25C12.4183 20.25 12.6707 20.1607 12.9905 19.7973C13.3093 19.4351 13.6305 18.8679 13.9154 18.1025C14.4831 16.5773 14.8493 14.4199 14.8493 12C14.8493 9.58009 14.4831 7.42275 13.9154 5.89752C13.6305 5.13206 13.3093 4.5649 12.9905 4.20272C12.6707 3.83935 12.4183 3.75 12.2494 3.75C12.0804 3.75 11.828 3.83935 11.5082 4.20272C11.1895 4.5649 10.8682 5.13206 10.5833 5.89752ZM10.3822 3.21171C10.864 2.66429 11.493 2.25 12.2494 2.25C13.0057 2.25 13.6347 2.66429 14.1165 3.21171C14.5994 3.76032 14.9999 4.51112 15.3212 5.37429C15.9658 7.10633 16.3493 9.44899 16.3493 12C16.3493 14.551 15.9658 16.8937 15.3212 18.6257C14.9999 19.4889 14.5994 20.2397 14.1165 20.7883C13.6347 21.3357 13.0057 21.75 12.2494 21.75C11.493 21.75 10.864 21.3357 10.3822 20.7883C9.89936 20.2397 9.49879 19.4889 9.17752 18.6257C8.53287 16.8937 8.14941 14.551 8.14941 12C8.14941 9.44899 8.53287 7.10633 9.17752 5.37429C9.49879 4.51112 9.89936 3.76032 10.3822 3.21171Z" fill="#000000" />
<path fill-rule="evenodd" clip-rule="evenodd" d="M4.45272 11.2572C4.08935 11.5771 4 11.8294 4 11.9984C4 12.1674 4.08935 12.4197 4.45272 12.7395C4.8149 13.0583 5.38206 13.3795 6.14752 13.6644C7.67275 14.2321 9.83009 14.5983 12.25 14.5983C14.6699 14.5983 16.8273 14.2321 18.3525 13.6644C19.1179 13.3795 19.6851 13.0583 20.0473 12.7395C20.4107 12.4197 20.5 12.1674 20.5 11.9984C20.5 11.8294 20.4107 11.5771 20.0473 11.2572C19.6851 10.9385 19.1179 10.6172 18.3525 10.3323C16.8273 9.76465 14.6699 9.39844 12.25 9.39844C9.83009 9.39844 7.67275 9.76465 6.14752 10.3323C5.38206 10.6172 4.8149 10.9385 4.45272 11.2572ZM5.62429 8.92654C7.35633 8.2819 9.69899 7.89844 12.25 7.89844C14.801 7.89844 17.1437 8.2819 18.8757 8.92654C19.7389 9.24781 20.4897 9.64839 21.0383 10.1312C21.5857 10.613 22 11.2421 22 11.9984C22 12.7547 21.5857 13.3837 21.0383 13.8655C20.4897 14.3484 19.7389 14.749 18.8757 15.0702C17.1437 15.7149 14.801 16.0983 12.25 16.0983C9.69899 16.0983 7.35633 15.7149 5.62429 15.0702C4.76112 14.749 4.01032 14.3484 3.46171 13.8655C2.91429 13.3837 2.5 12.7547 2.5 11.9984C2.5 11.2421 2.91429 10.613 3.46171 10.1312C4.01032 9.64839 4.76112 9.24781 5.62429 8.92654Z" fill="#000000" />
</svg>