<svg width="24px"  height="24px"  viewBox="0 0 25 24" fill="none" xmlns="http://www.w3.org/2000/svg">
<path fill-rule="evenodd" clip-rule="evenodd" d="M12.0332 3.75C7.4765 3.75 3.7832 7.44329 3.7832 12C3.7832 16.5567 7.4765 20.25 12.0332 20.25C16.5899 20.25 20.2832 16.5567 20.2832 12C20.2832 7.44329 16.5899 3.75 12.0332 3.75ZM2.2832 12C2.2832 6.61487 6.64807 2.25 12.0332 2.25C17.4183 2.25 21.7832 6.61487 21.7832 12C21.7832 17.3851 17.4183 21.75 12.0332 21.75C6.64807 21.75 2.2832 17.3851 2.2832 12Z" fill="#000000" />
<path fill-rule="evenodd" clip-rule="evenodd" d="M13.5814 2.57157C13.9324 2.35165 14.3952 2.45792 14.6151 2.80893C15.434 4.11594 16.0258 6.07803 16.3326 8.32782C16.4974 9.47038 16.5841 10.704 16.5841 11.9911C16.5841 13.277 16.4974 14.5204 16.3326 15.6632C16.0258 17.913 15.434 19.8751 14.6151 21.1821C14.3952 21.5331 13.9324 21.6394 13.5814 21.4194C13.2304 21.1995 13.1241 20.7367 13.344 20.3857C14.0037 19.3328 14.554 17.6065 14.8467 15.4578L14.8475 15.4519L14.8476 15.4519C15.0016 14.3849 15.0841 13.2124 15.0841 11.9911C15.0841 10.7691 15.0016 9.60636 14.8476 8.53916L14.8467 8.53323L14.8467 8.53323C14.554 6.38447 14.0037 4.65819 13.344 3.60534C13.1241 3.25433 13.2304 2.7915 13.5814 2.57157Z" fill="#000000" />
<path fill-rule="evenodd" clip-rule="evenodd" d="M10.4919 2.57157C10.8429 2.7915 10.9492 3.25433 10.7293 3.60534C10.0685 4.65989 9.50914 6.38757 9.21685 8.53323L9.21604 8.53916L9.21602 8.53916C9.06201 9.60597 8.98047 10.7687 8.98047 11.9911C8.98047 13.2129 9.06204 14.3853 9.21602 15.4519L9.21687 15.4578L9.21685 15.4578C9.50914 17.6035 10.0685 19.3311 10.7293 20.3857C10.9492 20.7367 10.8429 21.1995 10.4919 21.4194C10.1409 21.6394 9.67808 21.5331 9.45816 21.1821C8.64032 19.8768 8.03817 17.9161 7.73098 15.6632C7.5661 14.52 7.48047 13.2766 7.48047 11.9911C7.48047 10.7044 7.56614 9.47075 7.73098 8.3278C8.03817 6.07492 8.64032 4.11423 9.45816 2.80893C9.67808 2.45792 10.1409 2.35165 10.4919 2.57157Z" fill="#000000" />
<path fill-rule="evenodd" clip-rule="evenodd" d="M12.0322 8.94141C10.8101 8.94141 9.64738 9.02386 8.58018 9.17793L8.57425 9.17878L8.57425 9.17876C6.4288 9.47102 4.6992 10.0296 3.64295 10.6836C3.29077 10.9016 2.82852 10.7929 2.61047 10.4407C2.39243 10.0885 2.50117 9.62626 2.85335 9.40822C4.15697 8.60111 6.11573 8.0001 8.36882 7.69289C9.51138 7.5281 10.745 7.44141 12.0322 7.44141C13.3183 7.44141 14.5519 7.5281 15.6945 7.69289C17.9475 7.99996 19.8957 8.59184 21.2075 9.39695C21.5605 9.61362 21.6711 10.0755 21.4544 10.4285C21.2377 10.7815 20.7759 10.892 20.4229 10.6754C19.3573 10.0214 17.6366 9.47117 15.4891 9.17877L15.4831 9.17795L15.4831 9.17793C14.4159 9.02386 13.2532 8.94141 12.0322 8.94141Z" fill="#000000" />
<path fill-rule="evenodd" clip-rule="evenodd" d="M2.61274 13.5431C2.83279 13.1921 3.29566 13.086 3.64659 13.3061C4.69999 13.9666 6.42748 14.5261 8.5742 14.8184L8.58018 14.8192L8.58017 14.8192C9.647 14.9732 10.8097 15.0547 12.0312 15.0547C13.2536 15.0547 14.4163 14.9732 15.4831 14.8192L15.4891 14.8183L15.4891 14.8184C17.6368 14.5258 19.3539 13.9758 20.4153 13.307C20.7658 13.0861 21.2289 13.1912 21.4497 13.5417C21.6705 13.8921 21.5654 14.3552 21.215 14.576C19.8991 15.4052 17.9454 15.9973 15.6945 16.3042C14.5516 16.4691 13.3179 16.5547 12.0312 16.5547C10.7454 16.5547 9.51176 16.4691 8.36882 16.3042C6.11507 15.9971 4.15421 15.3949 2.8497 14.5769C2.49878 14.3569 2.39268 13.894 2.61274 13.5431Z" fill="#000000" />
</svg>