<svg width="24px"  height="24px"  viewBox="0 0 25 24" fill="none" xmlns="http://www.w3.org/2000/svg">
<path fill-rule="evenodd" clip-rule="evenodd" d="M4.75647 6.85711C4.29162 7.35647 4 8.09857 4 9.04083V14.9584C4 15.9006 4.29161 16.6424 4.75638 17.1415C5.21552 17.6345 5.89914 17.9514 6.81201 17.9514H15.8596C16.7719 17.9514 17.4552 17.6346 17.9143 17.1416C18.379 16.6424 18.6706 15.9006 18.6706 14.9584C18.6706 14.5442 19.0064 14.2084 19.4206 14.2084C19.8348 14.2084 20.1706 14.5442 20.1706 14.9584C20.1706 16.2102 19.7792 17.3398 19.0121 18.1637C18.2394 18.9936 17.1423 19.4514 15.8596 19.4514H6.81201C5.52891 19.4514 4.43152 18.9937 3.65865 18.1637C2.89141 17.3399 2.5 16.2102 2.5 14.9584V9.04083C2.5 7.78906 2.8914 6.65918 3.65856 5.83507C4.43136 5.00489 5.52876 4.54688 6.81201 4.54688H14.9761C15.3903 4.54688 15.7261 4.88266 15.7261 5.29688C15.7261 5.71109 15.3903 6.04688 14.9761 6.04688H6.81201C5.89929 6.04688 5.21568 6.36382 4.75647 6.85711Z" fill="#000000" />
<path fill-rule="evenodd" clip-rule="evenodd" d="M2.5 10.0547C2.5 9.64047 2.83579 9.30469 3.25 9.30469H14.1871C14.6013 9.30469 14.9371 9.64047 14.9371 10.0547C14.9371 10.4689 14.6013 10.8047 14.1871 10.8047H3.25C2.83579 10.8047 2.5 10.4689 2.5 10.0547Z" fill="#000000" />
<path fill-rule="evenodd" clip-rule="evenodd" d="M6.41504 14.8477C6.41504 14.4334 6.75083 14.0977 7.16504 14.0977H9.83192C10.2461 14.0977 10.5819 14.4334 10.5819 14.8477C10.5819 15.2619 10.2461 15.5977 9.83192 15.5977H7.16504C6.75083 15.5977 6.41504 15.2619 6.41504 14.8477Z" fill="#000000" />
<path fill-rule="evenodd" clip-rule="evenodd" d="M6.41504 14.8477C6.41504 14.4334 6.75083 14.0977 7.16504 14.0977H9.83192C10.2461 14.0977 10.5819 14.4334 10.5819 14.8477C10.5819 15.2619 10.2461 15.5977 9.83192 15.5977H7.16504C6.75083 15.5977 6.41504 15.2619 6.41504 14.8477Z" fill="#000000" />
<path fill-rule="evenodd" clip-rule="evenodd" d="M19.4199 5.14844C19.8341 5.14844 20.1699 5.48422 20.1699 5.89844V11.2419C20.1699 11.6562 19.8341 11.9919 19.4199 11.9919C19.0057 11.9919 18.6699 11.6562 18.6699 11.2419V5.89844C18.6699 5.48422 19.0057 5.14844 19.4199 5.14844Z" fill="#000000" />
<path fill-rule="evenodd" clip-rule="evenodd" d="M19.421 5.14844C19.6204 5.14844 19.8117 5.22789 19.9524 5.36923L21.7816 7.20618C22.0739 7.4997 22.0728 7.97457 21.7793 8.26684C21.4858 8.55911 21.0109 8.5581 20.7187 8.26459L19.421 6.96136L18.1233 8.26459C17.831 8.5581 17.3561 8.55911 17.0626 8.26684C16.7691 7.97457 16.7681 7.4997 17.0603 7.20618L18.8895 5.36923C19.0303 5.22789 19.2215 5.14844 19.421 5.14844Z" fill="#000000" />
</svg>