<svg width="24px"  height="24px"  viewBox="0 0 25 24" fill="none" xmlns="http://www.w3.org/2000/svg">
<path fill-rule="evenodd" clip-rule="evenodd" d="M3.7697 5.19537C4.61249 4.29121 5.80993 3.78906 7.21389 3.78906H17.2851C18.6924 3.78906 19.8905 4.29086 20.733 5.19566C21.5699 6.09441 22 7.32987 22 8.70533V15.2933C22 16.6692 21.5699 17.9048 20.7328 18.8035C19.8901 19.7082 18.6917 20.2096 17.2842 20.2096H7.21389C5.80669 20.2096 4.60879 19.7081 3.76646 18.8033C2.92978 17.9046 2.5 16.6691 2.5 15.2933V8.70533C2.5 7.329 2.93236 6.09368 3.7697 5.19537ZM4.86695 6.21814C4.33142 6.79266 4 7.64048 4 8.70533V15.2933C4 16.3597 4.33011 17.2074 4.86435 17.7812C5.39294 18.349 6.17699 18.7096 7.21389 18.7096H17.2842C18.3217 18.7096 19.1062 18.349 19.6352 17.7811C20.1697 17.2072 20.5 16.3596 20.5 15.2933V8.70533C20.5 7.6396 20.1698 6.79193 19.6352 6.21784C19.1063 5.64981 18.3219 5.28906 17.2851 5.28906H7.21389C6.18153 5.28906 5.39702 5.64946 4.86695 6.21814Z" fill="#000000" />
<path fill-rule="evenodd" clip-rule="evenodd" d="M6.45117 9.51562C6.45117 9.10141 6.78696 8.76562 7.20117 8.76562H17.2987C17.7129 8.76562 18.0487 9.10141 18.0487 9.51562C18.0487 9.92984 17.7129 10.2656 17.2987 10.2656H7.20117C6.78696 10.2656 6.45117 9.92984 6.45117 9.51562Z" fill="#000000" />
</svg>