<svg width="24px"  height="24px"  viewBox="0 0 25 24" fill="none" xmlns="http://www.w3.org/2000/svg">
<path fill-rule="evenodd" clip-rule="evenodd" d="M3.76983 4.57049C4.61279 3.66615 5.8105 3.16406 7.21486 3.16406H17.2851C18.6924 3.16406 19.8905 3.66586 20.733 4.57083C21.5699 5.46973 22 6.70543 22 8.08131V11.3748C22 11.789 21.6642 12.1248 21.25 12.1248C20.8358 12.1248 20.5 11.789 20.5 11.3748V8.08131C20.5 7.01502 20.1697 6.1671 19.6352 5.59292C19.1063 5.0248 18.3219 4.66406 17.2851 4.66406H7.21486C6.18193 4.66406 5.39721 5.02451 4.86707 5.59326C4.33146 6.16786 4 7.0159 4 8.08131V14.6683C4 15.7346 4.33028 16.5825 4.86483 17.1567C5.39373 17.7248 6.17807 18.0856 7.21486 18.0856H10.5415C10.9557 18.0856 11.2915 18.4214 11.2915 18.8356C11.2915 19.2498 10.9557 19.5856 10.5415 19.5856H7.21486C5.80755 19.5856 4.60946 19.0838 3.76696 18.1788C2.93009 17.2799 2.5 16.0442 2.5 14.6683V8.08131C2.5 6.70455 2.93232 5.46897 3.76983 4.57049Z" fill="#000000" />
<path fill-rule="evenodd" clip-rule="evenodd" d="M2.5 9.21094C2.5 8.79672 2.83579 8.46094 3.25 8.46094H21.25C21.6642 8.46094 22 8.79672 22 9.21094C22 9.62515 21.6642 9.96094 21.25 9.96094H3.25C2.83579 9.96094 2.5 9.62515 2.5 9.21094Z" fill="#000000" />
<path fill-rule="evenodd" clip-rule="evenodd" d="M13.8062 13.3965C14.2734 12.8951 14.9287 12.6289 15.6662 12.6289H18.8333C19.5721 12.6289 20.228 12.8947 20.6954 13.3968C21.1572 13.8927 21.3794 14.5585 21.3794 15.2665V18.201C21.3794 18.9086 21.1571 19.5741 20.6953 20.0699C20.2279 20.5718 19.5721 20.8376 18.8333 20.8376H15.6662C14.9274 20.8376 14.2717 20.5717 13.8044 20.0697C13.3429 19.5738 13.1211 18.9083 13.1211 18.201V15.2665C13.1211 14.5577 13.3444 13.8921 13.8062 13.3965ZM14.9036 14.4191C14.7436 14.5908 14.6211 14.869 14.6211 15.2665V18.201C14.6211 18.5989 14.7432 18.8767 14.9025 19.0478C15.056 19.2127 15.2978 19.3376 15.6662 19.3376H18.8333C19.2017 19.3376 19.4439 19.2127 19.5977 19.0476C19.7572 18.8764 19.8794 18.5987 19.8794 18.201V15.2665C19.8794 14.8681 19.7571 14.5902 19.5976 14.4189C19.4438 14.2537 19.2017 14.1289 18.8333 14.1289H15.6662C15.3004 14.1289 15.0581 14.2533 14.9036 14.4191Z" fill="#000000" />
<path fill-rule="evenodd" clip-rule="evenodd" d="M17.25 12.6289C17.6642 12.6289 18 12.9647 18 13.3789V20.0876C18 20.5018 17.6642 20.8376 17.25 20.8376C16.8358 20.8376 16.5 20.5018 16.5 20.0876V13.3789C16.5 12.9647 16.8358 12.6289 17.25 12.6289Z" fill="#000000" />
<path fill-rule="evenodd" clip-rule="evenodd" d="M13.1211 16.7344C13.1211 16.3202 13.4569 15.9844 13.8711 15.9844H20.6294C21.0436 15.9844 21.3794 16.3202 21.3794 16.7344C21.3794 17.1486 21.0436 17.4844 20.6294 17.4844H13.8711C13.4569 17.4844 13.1211 17.1486 13.1211 16.7344Z" fill="#000000" />
</svg>