<svg width="24px"  height="24px"  viewBox="0 0 25 24" fill="none" xmlns="http://www.w3.org/2000/svg">
<path fill-rule="evenodd" clip-rule="evenodd" d="M3.77032 4.85111C4.6134 3.94711 5.81105 3.44531 7.21486 3.44531H17.2861C18.6933 3.44531 19.8912 3.9468 20.7335 4.8516C21.5702 5.75033 22 6.98583 22 8.36158V14.9496C22 16.3249 21.5702 17.5604 20.7334 18.4592C19.891 19.3641 18.6929 19.8659 17.2851 19.8659C16.8709 19.8659 16.5351 19.5301 16.5351 19.1159C16.5351 18.7016 16.8709 18.3659 17.2851 18.3659C18.3225 18.3659 19.1068 18.0051 19.6355 17.4371C20.1699 16.8631 20.5 16.0154 20.5 14.9496V8.36158C20.5 7.29518 20.1699 6.44754 19.6357 5.87368C19.1071 5.30588 18.323 4.94531 17.2861 4.94531H7.21486C6.18235 4.94531 5.39757 5.30557 4.8673 5.87416C4.33162 6.44855 4 7.29631 4 8.36158V14.9496C4 16.0153 4.33024 16.863 4.86479 17.4371C5.3937 18.0051 6.17806 18.3659 7.21486 18.3659C7.62908 18.3659 7.96486 18.7016 7.96486 19.1159C7.96486 19.5301 7.62908 19.8659 7.21486 19.8659C5.80756 19.8659 4.60949 19.3641 3.767 18.4593C2.93014 17.5605 2.5 16.325 2.5 14.9496V8.36158C2.5 6.98469 2.93265 5.74931 3.77032 4.85111Z" fill="#000000" />
<path fill-rule="evenodd" clip-rule="evenodd" d="M12.25 13.0039C12.6642 13.0039 13 13.3397 13 13.7539V19.8077C13 20.222 12.6642 20.5577 12.25 20.5577C11.8358 20.5577 11.5 20.222 11.5 19.8077V13.7539C11.5 13.3397 11.8358 13.0039 12.25 13.0039Z" fill="#000000" />
<path fill-rule="evenodd" clip-rule="evenodd" d="M9.43662 16.9803C9.73013 16.688 10.205 16.689 10.4973 16.9825L12.2495 18.7422L14.0026 16.9824C14.2949 16.689 14.7698 16.688 15.0632 16.9804C15.3567 17.2727 15.3576 17.7476 15.0653 18.041L12.7807 20.3343C12.64 20.4756 12.4487 20.555 12.2493 20.555C12.0499 20.555 11.8587 20.4755 11.7179 20.3342L9.43436 18.0409C9.14209 17.7474 9.1431 17.2725 9.43662 16.9803Z" fill="#000000" />
<path fill-rule="evenodd" clip-rule="evenodd" d="M2.5 9.49219C2.5 9.07797 2.83579 8.74219 3.25 8.74219H21.25C21.6642 8.74219 22 9.07797 22 9.49219C22 9.9064 21.6642 10.2422 21.25 10.2422H3.25C2.83579 10.2422 2.5 9.9064 2.5 9.49219Z" fill="#000000" />
</svg>