<svg width="24px"  height="24px"  viewBox="0 0 25 24" fill="none" xmlns="http://www.w3.org/2000/svg">
<path fill-rule="evenodd" clip-rule="evenodd" d="M2.5 20.4805C2.5 20.0663 2.83579 19.7305 3.25 19.7305H20.6341C21.0483 19.7305 21.3841 20.0663 21.3841 20.4805C21.3841 20.8947 21.0483 21.2305 20.6341 21.2305H3.25C2.83579 21.2305 2.5 20.8947 2.5 20.4805Z" fill="#000000" />
<path fill-rule="evenodd" clip-rule="evenodd" d="M13.567 2.28366C14.6596 2.32257 15.7028 2.82933 16.56 3.68653L20.5947 7.72122C21.4518 8.57834 21.9588 9.62148 21.9979 10.7142C22.0372 11.8152 21.5978 12.8826 20.7182 13.7622L14.5509 19.9296L14.5507 19.9297C13.6711 20.8087 12.6039 21.2481 11.503 21.2089C10.4103 21.17 9.36709 20.6632 8.50988 19.806L8.50981 19.8059L4.47617 15.7713C4.47614 15.7713 4.47612 15.7713 4.4761 15.7712C3.6183 14.9134 3.11304 13.8688 3.07462 12.7762C3.03592 11.6756 3.47445 10.6084 4.35163 9.73126L10.5199 3.56297C11.3991 2.68382 12.4662 2.24446 13.567 2.28366ZM13.5136 3.78271C12.8727 3.75989 12.1978 4.00644 11.5806 4.62363L5.41229 10.7919C4.798 11.4062 4.55111 12.0811 4.5737 12.7235C4.59657 13.3738 4.8993 14.0731 5.53683 14.7106L5.53689 14.7107L9.57054 18.7453C9.57056 18.7454 9.57058 18.7454 9.5706 18.7454C10.2087 19.3835 10.907 19.6867 11.5563 19.7098C12.1974 19.7326 12.8726 19.4861 13.4902 18.8689C13.4903 18.8688 13.4904 18.8688 13.4904 18.8687L19.6576 12.7016C20.2752 12.0839 20.5218 11.4088 20.4988 10.7678C20.4756 10.1185 20.1722 9.42013 19.534 8.78188L15.4993 4.74719C14.8611 4.10902 14.1628 3.80583 13.5136 3.78271Z" fill="#000000" />
<path fill-rule="evenodd" clip-rule="evenodd" d="M17.2517 4.37983C17.5446 4.67272 17.5446 5.14759 17.2517 5.44049L6.2276 16.4646C5.9347 16.7575 5.45983 16.7575 5.16694 16.4646C4.87404 16.1717 4.87404 15.6968 5.16694 15.4039L16.1911 4.37983C16.4839 4.08693 16.9588 4.08693 17.2517 4.37983Z" fill="#000000" />
<path fill-rule="evenodd" clip-rule="evenodd" d="M13.8721 14.2939C14.165 14.5868 14.165 15.0617 13.8721 15.3545L12.0538 17.1729C11.7609 17.4658 11.286 17.4658 10.9931 17.1729C10.7002 16.88 10.7002 16.4052 10.9931 16.1123L12.8115 14.2939C13.1044 14.001 13.5793 14.001 13.8721 14.2939Z" fill="#000000" />
</svg>