<svg width="24px"  height="24px"  viewBox="0 0 25 24" fill="none" xmlns="http://www.w3.org/2000/svg">
<path fill-rule="evenodd" clip-rule="evenodd" d="M3.76983 5.19549C4.61279 4.29115 5.8105 3.78906 7.21486 3.78906H17.2851C18.6924 3.78906 19.8905 4.29086 20.733 5.19583C21.5699 6.09473 22 7.33043 22 8.70631V12.1973C22 12.6115 21.6642 12.9473 21.25 12.9473C20.8358 12.9473 20.5 12.6115 20.5 12.1973V8.70631C20.5 7.64002 20.1697 6.7921 19.6352 6.21792C19.1063 5.6498 18.3219 5.28906 17.2851 5.28906H7.21486C6.18193 5.28906 5.39721 5.64951 4.86707 6.21826C4.33146 6.79286 4 7.6409 4 8.70631V15.2933C4 16.3596 4.33028 17.2075 4.86483 17.7817C5.39373 18.3498 6.17807 18.7106 7.21486 18.7106H10.9637C11.3779 18.7106 11.7137 19.0464 11.7137 19.4606C11.7137 19.8748 11.3779 20.2106 10.9637 20.2106H7.21486C5.80755 20.2106 4.60946 19.7088 3.76696 18.8038C2.93009 17.9049 2.5 16.6692 2.5 15.2933V8.70631C2.5 7.32955 2.93232 6.09397 3.76983 5.19549Z" fill="#000000" />
<path fill-rule="evenodd" clip-rule="evenodd" d="M2.5 9.83203C2.5 9.41782 2.83579 9.08203 3.25 9.08203H21.25C21.6642 9.08203 22 9.41782 22 9.83203C22 10.2462 21.6642 10.582 21.25 10.582H3.25C2.83579 10.582 2.5 10.2462 2.5 9.83203Z" fill="#000000" />
<path fill-rule="evenodd" clip-rule="evenodd" d="M16.3457 17.043C16.3457 16.6288 16.6815 16.293 17.0957 16.293H21.2493C21.6635 16.293 21.9993 16.6288 21.9993 17.043C21.9993 17.4572 21.6635 17.793 21.2493 17.793H17.0957C16.6815 17.793 16.3457 17.4572 16.3457 17.043Z" fill="#000000" />
<path fill-rule="evenodd" clip-rule="evenodd" d="M17.4468 14.3692C17.6915 14.4994 17.8444 14.754 17.8444 15.0313V19.0545C17.8444 19.3317 17.6916 19.5863 17.4469 19.7165C17.2022 19.8468 16.9056 19.8315 16.6757 19.6767L13.6877 17.6656C13.4806 17.5262 13.3565 17.293 13.3564 17.0434C13.3564 16.7939 13.4805 16.5607 13.6875 16.4213L16.6755 14.4092C16.9055 14.2543 17.2021 14.2389 17.4468 14.3692ZM15.4494 17.0432L16.3444 17.6456V16.4405L15.4494 17.0432Z" fill="#000000" />
<path fill-rule="evenodd" clip-rule="evenodd" d="M6.67871 15.1953C6.67871 14.7811 7.0145 14.4453 7.42871 14.4453H10.3973C10.8115 14.4453 11.1473 14.7811 11.1473 15.1953C11.1473 15.6095 10.8115 15.9453 10.3973 15.9453H7.42871C7.0145 15.9453 6.67871 15.6095 6.67871 15.1953Z" fill="#000000" />
</svg>