<svg width="24px"  height="24px"  viewBox="0 0 25 24" fill="none" xmlns="http://www.w3.org/2000/svg">
<path fill-rule="evenodd" clip-rule="evenodd" d="M8.08672 5.32031C8.08672 4.9061 8.42251 4.57031 8.83672 4.57031H17.6971C18.9768 4.57031 20.0713 5.02676 20.8421 5.85466C21.6072 6.6765 21.9973 7.80323 21.9973 9.05148V14.9503C21.9973 16.1981 21.6072 17.3248 20.8421 18.1467C20.0714 18.9747 18.9769 19.4315 17.6971 19.4315H8.67911C7.3993 19.4315 6.30485 18.9747 5.53413 18.1467C4.76907 17.3248 4.37891 16.1981 4.37891 14.9503C4.37891 14.5361 4.71469 14.2003 5.12891 14.2003C5.54312 14.2003 5.87891 14.5361 5.87891 14.9503C5.87891 15.8886 6.16931 16.6276 6.63207 17.1247C7.08918 17.6158 7.76983 17.9315 8.67911 17.9315H17.6971C18.6064 17.9315 19.2871 17.6158 19.7442 17.1247C20.2069 16.6276 20.4973 15.8886 20.4973 14.9503V9.05148C20.4973 8.11259 20.2069 7.37374 19.7442 6.87678C19.2872 6.38588 18.6066 6.07031 17.6971 6.07031H8.83672C8.42251 6.07031 8.08672 5.73453 8.08672 5.32031Z" fill="#000000" />
<path fill-rule="evenodd" clip-rule="evenodd" d="M9.59766 10.0625C9.59766 9.64829 9.93344 9.3125 10.3477 9.3125H21.2502C21.6645 9.3125 22.0002 9.64829 22.0002 10.0625C22.0002 10.4767 21.6645 10.8125 21.2502 10.8125H10.3477C9.93344 10.8125 9.59766 10.4767 9.59766 10.0625Z" fill="#000000" />
<path fill-rule="evenodd" clip-rule="evenodd" d="M8.11914 14.8398C8.11914 14.4256 8.45493 14.0898 8.86914 14.0898H11.5272C11.9414 14.0898 12.2772 14.4256 12.2772 14.8398C12.2772 15.2541 11.9414 15.5898 11.5272 15.5898H8.86914C8.45493 15.5898 8.11914 15.2541 8.11914 14.8398Z" fill="#000000" />
<path fill-rule="evenodd" clip-rule="evenodd" d="M5.07227 5.16797C5.48648 5.16797 5.82227 5.50376 5.82227 5.91797V11.2438C5.82227 11.658 5.48648 11.9938 5.07227 11.9938C4.65805 11.9938 4.32227 11.658 4.32227 11.2438V5.91797C4.32227 5.50376 4.65805 5.16797 5.07227 5.16797Z" fill="#000000" />
<path fill-rule="evenodd" clip-rule="evenodd" d="M2.7208 8.8826C3.01432 8.59034 3.48919 8.59135 3.78146 8.88486L5.07326 10.1822L6.36506 8.88486C6.65733 8.59135 7.1322 8.59034 7.42572 8.8826C7.71924 9.17487 7.72025 9.64975 7.42798 9.94326L5.60472 11.7743C5.46398 11.9156 5.27273 11.9951 5.07326 11.9951C4.87379 11.9951 4.68254 11.9156 4.5418 11.7743L2.71854 9.94326C2.42627 9.64975 2.42728 9.17487 2.7208 8.8826Z" fill="#000000" />
<path fill-rule="evenodd" clip-rule="evenodd" d="M8.11914 14.8398C8.11914 14.4256 8.45493 14.0898 8.86914 14.0898H11.5272C11.9414 14.0898 12.2772 14.4256 12.2772 14.8398C12.2772 15.2541 11.9414 15.5898 11.5272 15.5898H8.86914C8.45493 15.5898 8.11914 15.2541 8.11914 14.8398Z" fill="#000000" />
</svg>