<svg width="24px"  height="24px"  viewBox="0 0 25 24" fill="none" xmlns="http://www.w3.org/2000/svg">
<path fill-rule="evenodd" clip-rule="evenodd" d="M3.77154 5.19524C4.61426 4.29116 5.8116 3.78906 7.21543 3.78906H17.2856C18.6928 3.78906 19.8908 4.29081 20.7332 5.19554C21.57 6.09421 22.0001 7.32956 22.0001 8.70489V15.2922C22.0001 16.668 21.57 17.9034 20.733 18.802C19.8903 19.7067 18.6921 20.208 17.2846 20.208H7.21543C5.80835 20.208 4.61056 19.7066 3.7683 18.8019C2.9317 17.9032 2.50195 16.6678 2.50195 15.2922V8.70489C2.50195 7.32869 2.93428 6.09348 3.77154 5.19524ZM4.86879 6.21801C4.33333 6.79246 4.00195 7.64017 4.00195 8.70489V15.2922C4.00195 16.3585 4.33202 17.206 4.86619 17.7798C5.39471 18.3475 6.17865 18.708 7.21543 18.708H17.2846C18.322 18.708 19.1065 18.3474 19.6353 17.7796C20.1698 17.2058 20.5001 16.3583 20.5001 15.2922V8.70489C20.5001 7.63929 20.1699 6.79173 19.6354 6.21772C19.1065 5.64976 18.3223 5.28906 17.2856 5.28906H7.21543C6.18319 5.28906 5.39879 5.64941 4.86879 6.21801Z" fill="#000000" />
<path fill-rule="evenodd" clip-rule="evenodd" d="M2.5 9.83594C2.5 9.42172 2.83579 9.08594 3.25 9.08594H21.2481C21.6623 9.08594 21.9981 9.42172 21.9981 9.83594C21.9981 10.2502 21.6623 10.5859 21.2481 10.5859H3.25C2.83579 10.5859 2.5 10.2502 2.5 9.83594Z" fill="#000000" />
<path fill-rule="evenodd" clip-rule="evenodd" d="M6.39941 15.1719C6.39941 14.7577 6.7352 14.4219 7.14941 14.4219H8.57759C8.9918 14.4219 9.32759 14.7577 9.32759 15.1719C9.32759 15.5861 8.9918 15.9219 8.57759 15.9219H7.14941C6.7352 15.9219 6.39941 15.5861 6.39941 15.1719Z" fill="#000000" />
<path fill-rule="evenodd" clip-rule="evenodd" d="M10.2832 15.1719C10.2832 14.7577 10.619 14.4219 11.0332 14.4219H12.4614C12.8756 14.4219 13.2114 14.7577 13.2114 15.1719C13.2114 15.5861 12.8756 15.9219 12.4614 15.9219H11.0332C10.619 15.9219 10.2832 15.5861 10.2832 15.1719Z" fill="#000000" />
</svg>