<svg width="24px"  height="24px"  viewBox="0 0 25 24" fill="none" xmlns="http://www.w3.org/2000/svg">
<path fill-rule="evenodd" clip-rule="evenodd" d="M17.25 14.2578C16.6316 14.2578 16.0678 14.4878 15.6369 14.868C15.3263 15.1421 14.8523 15.1125 14.5783 14.8019C14.3042 14.4913 14.3338 14.0173 14.6444 13.7433C15.3382 13.1311 16.2514 12.7578 17.25 12.7578C19.4265 12.7578 21.1894 14.5221 21.1894 16.6972C21.1894 17.1114 20.8537 17.4472 20.4394 17.4472C20.0252 17.4472 19.6894 17.1114 19.6894 16.6972C19.6894 15.3502 18.5977 14.2578 17.25 14.2578Z" fill="#000000" />
<path fill-rule="evenodd" clip-rule="evenodd" d="M14.0605 15.9453C14.4748 15.9453 14.8105 16.2811 14.8105 16.6953C14.8105 18.0423 15.9023 19.1347 17.25 19.1347C17.8684 19.1347 18.4322 18.9048 18.8631 18.5245C19.1737 18.2504 19.6477 18.2801 19.9217 18.5907C20.1958 18.9013 20.1662 19.3752 19.8556 19.6493C19.1618 20.2614 18.2486 20.6347 17.25 20.6347C15.0735 20.6347 13.3105 18.8705 13.3105 16.6953C13.3105 16.2811 13.6463 15.9453 14.0605 15.9453Z" fill="#000000" />
<path fill-rule="evenodd" clip-rule="evenodd" d="M3.76966 4.77366C4.61246 3.86934 5.80993 3.36719 7.21389 3.36719H17.2851C18.6924 3.36719 19.8905 3.86899 20.733 4.77395C21.5699 5.67286 22 6.90856 22 8.28443V11.5779C22 11.9922 21.6642 12.3279 21.25 12.3279C20.8358 12.3279 20.5 11.9922 20.5 11.5779V8.28443C20.5 7.21814 20.1697 6.37022 19.6352 5.79605C19.1063 5.22793 18.3219 4.86719 17.2851 4.86719H7.21389C6.18153 4.86719 5.39705 5.22758 4.86699 5.79634C4.33147 6.37095 4 7.21902 4 8.28443V14.8715C4 15.9377 4.33029 16.7857 4.86475 17.3599C5.39357 17.928 6.17767 18.2887 7.21389 18.2887H10.5415C10.9557 18.2887 11.2915 18.6245 11.2915 19.0387C11.2915 19.4529 10.9557 19.7887 10.5415 19.7887H7.21389C5.80698 19.7887 4.60913 19.2868 3.76679 18.3819C2.93009 17.483 2.5 16.2473 2.5 14.8715V8.28443C2.5 6.90768 2.93232 5.67212 3.76966 4.77366Z" fill="#000000" />
<path fill-rule="evenodd" clip-rule="evenodd" d="M2.5 9.41406C2.5 8.99985 2.83579 8.66406 3.25 8.66406H21.25C21.6642 8.66406 22 8.99985 22 9.41406C22 9.82828 21.6642 10.1641 21.25 10.1641H3.25C2.83579 10.1641 2.5 9.82828 2.5 9.41406Z" fill="#000000" />
</svg>