<svg width="24px"  height="24px"  viewBox="0 0 25 24" fill="none" xmlns="http://www.w3.org/2000/svg">
<path fill-rule="evenodd" clip-rule="evenodd" d="M16.7893 7.92969C16.7893 7.51547 17.1251 7.17969 17.5393 7.17969H18.1046C19.2589 7.17969 20.2521 7.59111 20.953 8.34357C21.6482 9.09001 21.9993 10.1104 21.9993 11.2349V16.4706C21.9993 17.591 21.6478 18.6108 20.9535 19.3578C20.2534 20.1109 19.2605 20.5259 18.1046 20.5259H10.1095C8.9535 20.5259 7.95872 20.1112 7.25649 19.359C6.55967 18.6125 6.20508 17.5925 6.20508 16.4706V16.0659C6.20508 15.6517 6.54086 15.3159 6.95508 15.3159C7.36929 15.3159 7.70508 15.6517 7.70508 16.0659V16.4706C7.70508 17.2792 7.95764 17.9119 8.353 18.3354C8.74296 18.7531 9.32541 19.0259 10.1095 19.0259H18.1046C18.8879 19.0259 19.4673 18.7534 19.8548 18.3366C20.2481 17.9135 20.4993 17.2806 20.4993 16.4706V11.2349C20.4993 10.4193 20.2477 9.78711 19.8554 9.36595C19.4687 8.95082 18.8895 8.67969 18.1046 8.67969H17.5393C17.1251 8.67969 16.7893 8.3439 16.7893 7.92969Z" fill="#000000" />
<path fill-rule="evenodd" clip-rule="evenodd" d="M3.54985 4.63461C4.25129 3.88215 5.24464 3.46875 6.39764 3.46875H14.3937C15.5491 3.46875 16.5429 3.88184 17.244 4.63498C17.9395 5.38206 18.2913 6.40296 18.2913 7.52693V12.7577C18.2913 13.8817 17.9395 14.9027 17.2438 15.6498C16.5425 16.4029 15.5485 16.8159 14.3927 16.8159H6.39764C5.24221 16.8159 4.24845 16.4028 3.54732 15.6497C2.85182 14.9026 2.5 13.8817 2.5 12.7577V7.52693C2.5 6.40201 2.85385 5.38123 3.54985 4.63461ZM4.64705 5.65742C4.25281 6.08033 4 6.71365 4 7.52693V12.7577C4 13.572 4.25192 14.2052 4.64521 14.6276C5.03285 15.044 5.61291 15.3159 6.39764 15.3159H14.3927C15.1781 15.3159 15.7583 15.044 16.1461 14.6276C16.5394 14.2051 16.7913 13.572 16.7913 12.7577V7.52693C16.7913 6.7127 16.5394 6.07951 16.1461 5.65705C15.7585 5.24065 15.1784 4.96875 14.3937 4.96875H6.39764C5.61632 4.96875 5.03585 5.24034 4.64705 5.65742Z" fill="#000000" />
<path fill-rule="evenodd" clip-rule="evenodd" d="M2.5 8.42578C2.5 8.01157 2.83579 7.67578 3.25 7.67578H17.5413C17.9556 7.67578 18.2913 8.01157 18.2913 8.42578C18.2913 8.83999 17.9556 9.17578 17.5413 9.17578H3.25C2.83579 9.17578 2.5 8.83999 2.5 8.42578Z" fill="#000000" />
</svg>