<svg width="24px"  height="24px"  viewBox="0 0 25 24" fill="none" xmlns="http://www.w3.org/2000/svg">
<path fill-rule="evenodd" clip-rule="evenodd" d="M3.76982 5.02339C4.61273 4.11925 5.81037 3.61719 7.21467 3.61719H17.2844C18.6917 3.61719 19.8897 4.11896 20.7322 5.02373C21.569 5.92245 21.9991 7.15786 21.9991 8.53325V11.6087C21.9991 12.0229 21.6633 12.3587 21.2491 12.3587C20.8349 12.3587 20.4991 12.0229 20.4991 11.6087V8.53325C20.4991 7.46758 20.1689 6.61996 19.6344 6.04591C19.1055 5.47791 18.3212 5.11719 17.2844 5.11719H7.21467C6.18179 5.11719 5.3971 5.47762 4.86697 6.04625C4.3314 6.62072 4 7.46846 4 8.53325V15.1209C4 16.1866 4.33022 17.0342 4.86473 17.6083C5.39362 18.1763 6.17793 18.537 7.21467 18.537H11.1375C11.5517 18.537 11.8875 18.8728 11.8875 19.287C11.8875 19.7012 11.5517 20.037 11.1375 20.037H7.21467C5.80742 20.037 4.6094 19.5352 3.76695 18.6305C2.93012 17.7317 2.5 16.4963 2.5 15.1209V8.53325C2.5 7.15698 2.93235 5.92168 3.76982 5.02339Z" fill="#000000" />
<path fill-rule="evenodd" clip-rule="evenodd" d="M6.4502 9.34375C6.4502 8.92954 6.78598 8.59375 7.2002 8.59375H17.2972C17.7114 8.59375 18.0472 8.92954 18.0472 9.34375C18.0472 9.75796 17.7114 10.0938 17.2972 10.0938H7.2002C6.78598 10.0938 6.4502 9.75796 6.4502 9.34375Z" fill="#000000" />
<path fill-rule="evenodd" clip-rule="evenodd" d="M14.1787 17.582C14.1787 17.1678 14.5145 16.832 14.9287 16.832H21.2498C21.664 16.832 21.9998 17.1678 21.9998 17.582C21.9998 17.9962 21.664 18.332 21.2498 18.332H14.9287C14.5145 18.332 14.1787 17.9962 14.1787 17.582Z" fill="#000000" />
<path fill-rule="evenodd" clip-rule="evenodd" d="M17.516 15.006C17.8082 15.2995 17.8072 15.7743 17.5137 16.0666L15.9915 17.5823L17.5138 19.0989C17.8073 19.3912 17.8082 19.8661 17.5158 20.1595C17.2235 20.453 16.7486 20.4539 16.4552 20.1615L14.3994 18.1135C14.2581 17.9728 14.1787 17.7815 14.1787 17.5821C14.1787 17.3827 14.2582 17.1915 14.3995 17.0507L16.4553 15.0037C16.7488 14.7114 17.2237 14.7124 17.516 15.006Z" fill="#000000" />
</svg>