<svg width="24px"  height="24px"  viewBox="0 0 25 24" fill="none" xmlns="http://www.w3.org/2000/svg">
<path fill-rule="evenodd" clip-rule="evenodd" d="M3.76987 5.02344C4.61282 4.11927 5.8105 3.61719 7.21486 3.61719H17.2851C18.6924 3.61719 19.8905 4.11898 20.733 5.02378C21.5699 5.92254 22 7.158 22 8.53346V11.609C22 12.0232 21.6642 12.359 21.25 12.359C20.8358 12.359 20.5 12.0232 20.5 11.609V8.53346C20.5 7.46773 20.1698 6.62005 19.6352 6.04597C19.1063 5.47793 18.3219 5.11719 17.2851 5.11719H7.21486C6.18193 5.11719 5.39718 5.47764 4.86702 6.04631C4.33142 6.62082 4 7.46861 4 8.53346V15.1215C4 16.1872 4.33024 17.0349 4.86479 17.6089C5.3937 18.177 6.17806 18.5377 7.21486 18.5377H12.0165C12.4307 18.5377 12.7665 18.8735 12.7665 19.2877C12.7665 19.7019 12.4307 20.0377 12.0165 20.0377H7.21486C5.80756 20.0377 4.60949 19.5359 3.767 18.6311C2.93014 17.7324 2.5 16.4969 2.5 15.1215V8.53346C2.5 7.15712 2.93237 5.92178 3.76987 5.02344Z" fill="#000000" />
<path fill-rule="evenodd" clip-rule="evenodd" d="M6.45117 9.34375C6.45117 8.92954 6.78696 8.59375 7.20117 8.59375H17.2987C17.7129 8.59375 18.0487 8.92954 18.0487 9.34375C18.0487 9.75796 17.7129 10.0938 17.2987 10.0938H7.20117C6.78696 10.0938 6.45117 9.75796 6.45117 9.34375Z" fill="#000000" />
<path fill-rule="evenodd" clip-rule="evenodd" d="M14.1777 17.5859C14.1777 17.1717 14.5135 16.8359 14.9277 16.8359H21.2491C21.6634 16.8359 21.9991 17.1717 21.9991 17.5859C21.9991 18.0002 21.6634 18.3359 21.2491 18.3359H14.9277C14.5135 18.3359 14.1777 18.0002 14.1777 17.5859Z" fill="#000000" />
<path fill-rule="evenodd" clip-rule="evenodd" d="M18.6619 15.006C18.9542 14.7124 19.429 14.7114 19.7226 15.0037L21.7784 17.0508C21.9198 17.1916 21.9992 17.3828 21.9993 17.5822C21.9993 17.7816 21.9199 17.9729 21.7786 18.1136L19.7227 20.1617C19.4292 20.4541 18.9544 20.4532 18.662 20.1597C18.3697 19.8663 18.3706 19.3914 18.664 19.0991L20.1864 17.5824L18.6642 16.0666C18.3706 15.7743 18.3696 15.2995 18.6619 15.006Z" fill="#000000" />
</svg>