<svg width="24px"  height="24px"  viewBox="0 0 25 24" fill="none" xmlns="http://www.w3.org/2000/svg">
<path fill-rule="evenodd" clip-rule="evenodd" d="M3.9902 3.89737C4.97468 2.84117 6.37669 2.25 8.03216 2.25H16.4669C18.1262 2.25 19.5288 2.84084 20.5129 3.89765C21.4913 4.94841 22 6.39889 22 8.02638V15.9736C22 17.6011 21.4913 19.0516 20.5127 20.1024C19.5285 21.1592 18.1257 21.75 16.4659 21.75H8.03216C6.3728 21.75 4.97038 21.1591 3.98657 20.1023C3.00842 19.0515 2.5 17.601 2.5 15.9736V8.02638C2.5 6.39806 3.01117 4.94771 3.9902 3.89737ZM5.08745 4.92012C4.41024 5.64667 4 6.70951 4 8.02638V15.9736C4 17.2914 4.40861 18.3541 5.08451 19.0802C5.75475 19.8003 6.74341 20.25 8.03216 20.25H16.4659C17.7552 20.25 18.7444 19.8002 19.415 19.0801C20.0912 18.354 20.5 17.2913 20.5 15.9736V8.02638C20.5 6.70868 20.0912 5.64597 19.4151 4.91984C18.7446 4.19975 17.7556 3.75 16.4669 3.75H8.03216C6.74828 3.75 5.75921 4.19943 5.08745 4.92012Z" fill="#000000" />
<path fill-rule="evenodd" clip-rule="evenodd" d="M7.87572 6.74486C8.4433 6.13697 9.24317 5.80859 10.1582 5.80859H14.342C15.2608 5.80859 16.0616 6.13628 16.6289 6.74567C17.1904 7.34883 17.4661 8.16573 17.4661 9.0494V10.6354C17.4661 11.0496 17.1303 11.3854 16.7161 11.3854C16.3019 11.3854 15.9661 11.0496 15.9661 10.6354V9.0494C15.9661 8.47362 15.7893 8.04512 15.531 7.76774C15.2786 7.49658 14.8924 7.30859 14.342 7.30859H10.1582C9.61383 7.30859 9.22668 7.49589 8.9721 7.76855C8.71216 8.04694 8.53418 8.47572 8.53418 9.0494V10.6354C8.53418 11.0496 8.19839 11.3854 7.78418 11.3854C7.36997 11.3854 7.03418 11.0496 7.03418 10.6354V9.0494C7.03418 8.16363 7.31349 7.347 7.87572 6.74486Z" fill="#000000" />
<path fill-rule="evenodd" clip-rule="evenodd" d="M5.17969 10.6406C5.17969 10.2264 5.51547 9.89062 5.92969 9.89062H18.5706C18.9848 9.89062 19.3206 10.2264 19.3206 10.6406C19.3206 11.0548 18.9848 11.3906 18.5706 11.3906H5.92969C5.51547 11.3906 5.17969 11.0548 5.17969 10.6406Z" fill="#000000" />
<path fill-rule="evenodd" clip-rule="evenodd" d="M9.16602 16.6914C9.16602 16.2772 9.5018 15.9414 9.91602 15.9414H14.5834C14.9976 15.9414 15.3334 16.2772 15.3334 16.6914C15.3334 17.1056 14.9976 17.4414 14.5834 17.4414H9.91602C9.5018 17.4414 9.16602 17.1056 9.16602 16.6914Z" fill="#000000" />
</svg>