<svg width="24px"  height="24px"  viewBox="0 0 25 24" fill="none" xmlns="http://www.w3.org/2000/svg">
<path fill-rule="evenodd" clip-rule="evenodd" d="M2.8884 4.49699C3.80746 3.511 5.11501 2.96094 6.65432 2.96094H17.8446C19.3877 2.96094 20.6959 3.51065 21.6146 4.49728C22.5276 5.47786 23 6.82905 23 8.34013V15.6601C23 17.1717 22.5276 18.523 21.6143 19.5035C20.6954 20.49 19.3869 21.0393 17.8435 21.0393H6.65432C5.11134 21.0393 3.80333 20.4899 2.88484 19.5033C1.972 18.5228 1.5 17.1716 1.5 15.6601V8.34013C1.5 6.82817 1.9748 5.47713 2.8884 4.49699ZM3.98565 5.51975C3.37385 6.1761 3 7.13965 3 8.34013V15.6601C3 16.8622 3.37232 17.8256 3.98273 18.4812C4.58748 19.1309 5.48163 19.5393 6.65432 19.5393H17.8435C19.0168 19.5393 19.9116 19.1308 20.5167 18.4811C21.1275 17.8254 21.5 16.8621 21.5 15.6601V8.34013C21.5 7.13877 21.1275 6.17537 20.5168 5.51946C19.9117 4.8696 19.0172 4.46094 17.8446 4.46094H6.65432C5.48661 4.46094 4.592 4.86925 3.98565 5.51975Z" fill="#000000" />
<path fill-rule="evenodd" clip-rule="evenodd" d="M10.2569 9.47656C8.86356 9.47656 7.7334 10.6067 7.7334 12.0001C7.7334 13.3934 8.86356 14.5236 10.2569 14.5236C11.6503 14.5236 12.7804 13.3934 12.7804 12.0001C12.7804 10.6067 11.6503 9.47656 10.2569 9.47656ZM6.2334 12.0001C6.2334 9.7783 8.03513 7.97656 10.2569 7.97656C12.4787 7.97656 14.2804 9.7783 14.2804 12.0001C14.2804 14.2219 12.4787 16.0236 10.2569 16.0236C8.03513 16.0236 6.2334 14.2219 6.2334 12.0001Z" fill="#000000" />
<path fill-rule="evenodd" clip-rule="evenodd" d="M14.2432 9.47656C12.8499 9.47656 11.7197 10.6067 11.7197 12.0001C11.7197 13.3934 12.8499 14.5236 14.2432 14.5236C15.6366 14.5236 16.7668 13.3934 16.7668 12.0001C16.7668 10.6067 15.6366 9.47656 14.2432 9.47656ZM10.2197 12.0001C10.2197 9.7783 12.0215 7.97656 14.2432 7.97656C16.465 7.97656 18.2668 9.7783 18.2668 12.0001C18.2668 14.2219 16.465 16.0236 14.2432 16.0236C12.0215 16.0236 10.2197 14.2219 10.2197 12.0001Z" fill="#000000" />
</svg>