<svg width="24px"  height="24px"  viewBox="0 0 25 24" fill="none" xmlns="http://www.w3.org/2000/svg">
<path fill-rule="evenodd" clip-rule="evenodd" d="M2.5 7.5959C2.5 4.87162 4.70899 2.66406 7.43281 2.66406H17.0682C19.7922 2.66406 22 4.87185 22 7.5959V15.0304C22 17.7543 19.7923 19.9632 17.0672 19.9632H7.43281C4.70876 19.9632 2.5 17.7544 2.5 15.0304V7.5959ZM7.43281 4.16406C5.53696 4.16406 4 5.7005 4 7.5959V15.0304C4 16.926 5.53719 18.4632 7.43281 18.4632H17.0672C18.9637 18.4632 20.5 16.9261 20.5 15.0304V7.5959C20.5 5.70028 18.9638 4.16406 17.0682 4.16406H7.43281Z" fill="#000000" />
<path fill-rule="evenodd" clip-rule="evenodd" d="M12.2516 9.84375C11.4384 9.84375 10.7803 10.5018 10.7803 11.3141C10.7803 12.1264 11.4384 12.7844 12.2516 12.7844C13.0635 12.7844 13.7219 12.1266 13.7219 11.3141C13.7219 10.5016 13.0635 9.84375 12.2516 9.84375ZM9.28027 11.3141C9.28027 9.67251 10.6109 8.34375 12.2516 8.34375C13.8915 8.34375 15.2219 9.67273 15.2219 11.3141C15.2219 12.9554 13.8915 14.2844 12.2516 14.2844C10.6109 14.2844 9.28027 12.9556 9.28027 11.3141Z" fill="#000000" />
<path fill-rule="evenodd" clip-rule="evenodd" d="M12.25 12.7852C12.6642 12.7852 13 13.1209 13 13.5352V15.3887C13 15.8029 12.6642 16.1387 12.25 16.1387C11.8358 16.1387 11.5 15.8029 11.5 15.3887V13.5352C11.5 13.1209 11.8358 12.7852 12.25 12.7852Z" fill="#000000" />
<path fill-rule="evenodd" clip-rule="evenodd" d="M12.25 6.48438C12.6642 6.48438 13 6.82016 13 7.23438V9.09859C13 9.5128 12.6642 9.84859 12.25 9.84859C11.8358 9.84859 11.5 9.5128 11.5 9.09859V7.23438C11.5 6.82016 11.8358 6.48438 12.25 6.48438Z" fill="#000000" />
<path fill-rule="evenodd" clip-rule="evenodd" d="M7.42383 11.3125C7.42383 10.8983 7.75961 10.5625 8.17383 10.5625H10.0273C10.4416 10.5625 10.7773 10.8983 10.7773 11.3125C10.7773 11.7267 10.4416 12.0625 10.0273 12.0625H8.17383C7.75961 12.0625 7.42383 11.7267 7.42383 11.3125Z" fill="#000000" />
<path fill-rule="evenodd" clip-rule="evenodd" d="M13.7256 11.3125C13.7256 10.8983 14.0614 10.5625 14.4756 10.5625H16.3291C16.7433 10.5625 17.0791 10.8983 17.0791 11.3125C17.0791 11.7267 16.7433 12.0625 16.3291 12.0625H14.4756C14.0614 12.0625 13.7256 11.7267 13.7256 11.3125Z" fill="#000000" />
<path fill-rule="evenodd" clip-rule="evenodd" d="M6.53613 18.4102C6.95035 18.4102 7.28613 18.7459 7.28613 19.1602V20.5856C7.28613 20.9998 6.95035 21.3356 6.53613 21.3356C6.12192 21.3356 5.78613 20.9998 5.78613 20.5856V19.1602C5.78613 18.7459 6.12192 18.4102 6.53613 18.4102Z" fill="#000000" />
<path fill-rule="evenodd" clip-rule="evenodd" d="M17.9678 18.4102C18.382 18.4102 18.7178 18.7459 18.7178 19.1602V20.5856C18.7178 20.9998 18.382 21.3356 17.9678 21.3356C17.5536 21.3356 17.2178 20.9998 17.2178 20.5856V19.1602C17.2178 18.7459 17.5536 18.4102 17.9678 18.4102Z" fill="#000000" />
</svg>