<svg width="24px"  height="24px"  viewBox="0 0 25 24" fill="none" xmlns="http://www.w3.org/2000/svg">
<path fill-rule="evenodd" clip-rule="evenodd" d="M17.4428 10.0938C16.459 10.0938 15.6621 10.8913 15.6621 11.8744C15.6621 12.8587 16.4592 13.656 17.4428 13.656H21.2499C21.6642 13.656 21.9999 13.9918 21.9999 14.406C21.9999 14.8203 21.6642 15.156 21.2499 15.156H17.4428C15.63 15.156 14.1621 13.6864 14.1621 11.8744C14.1621 10.0632 15.6302 8.59375 17.4428 8.59375H21.2499C21.6642 8.59375 21.9999 8.92954 21.9999 9.34375C21.9999 9.75796 21.6642 10.0938 21.2499 10.0938H17.4428Z" fill="#000000" />
<path fill-rule="evenodd" clip-rule="evenodd" d="M16.4932 11.8203C16.4932 11.4061 16.829 11.0703 17.2432 11.0703H17.2461C17.6603 11.0703 17.9961 11.4061 17.9961 11.8203C17.9961 12.2345 17.6603 12.5703 17.2461 12.5703H17.2432C16.829 12.5703 16.4932 12.2345 16.4932 11.8203Z" fill="#000000" />
<path fill-rule="evenodd" clip-rule="evenodd" d="M8.1858 4.4375C5.8738 4.4375 4 6.3113 4 8.6233V15.3727C4 17.6847 5.8738 19.5585 8.1858 19.5585H16.3139C18.6259 19.5585 20.4997 17.6847 20.4997 15.3727V8.6233C20.4997 6.3113 18.6259 4.4375 16.3139 4.4375H8.1858ZM2.5 8.6233C2.5 5.48287 5.04537 2.9375 8.1858 2.9375H16.3139C19.4543 2.9375 21.9997 5.48287 21.9997 8.6233V15.3727C21.9997 18.5131 19.4543 21.0585 16.3139 21.0585H8.1858C5.04537 21.0585 2.5 18.5131 2.5 15.3727V8.6233Z" fill="#000000" />
<path fill-rule="evenodd" clip-rule="evenodd" d="M6.7666 7.95703C6.7666 7.54282 7.10239 7.20703 7.5166 7.20703H12.5954C13.0096 7.20703 13.3454 7.54282 13.3454 7.95703C13.3454 8.37124 13.0096 8.70703 12.5954 8.70703H7.5166C7.10239 8.70703 6.7666 8.37124 6.7666 7.95703Z" fill="#000000" />
</svg>