<svg width="24px"  height="24px"  viewBox="0 0 25 24" fill="none" xmlns="http://www.w3.org/2000/svg">
<path fill-rule="evenodd" clip-rule="evenodd" d="M17.4418 10.0938C16.4577 10.0938 15.6602 10.8917 15.6602 11.8745C15.6602 12.8584 16.4579 13.6561 17.4418 13.6561H21.2491C21.6633 13.6561 21.9991 13.9919 21.9991 14.4061C21.9991 14.8203 21.6633 15.1561 21.2491 15.1561H17.4418C15.6295 15.1561 14.1602 13.6868 14.1602 11.8745C14.1602 10.0629 15.6296 8.59375 17.4418 8.59375H21.2491C21.6633 8.59375 21.9991 8.92954 21.9991 9.34375C21.9991 9.75796 21.6633 10.0938 21.2491 10.0938H17.4418Z" fill="#000000" />
<path fill-rule="evenodd" clip-rule="evenodd" d="M16.4941 11.8164C16.4941 11.4022 16.8299 11.0664 17.2441 11.0664H17.2471C17.6613 11.0664 17.9971 11.4022 17.9971 11.8164C17.9971 12.2306 17.6613 12.5664 17.2471 12.5664H17.2441C16.8299 12.5664 16.4941 12.2306 16.4941 11.8164Z" fill="#000000" />
<path fill-rule="evenodd" clip-rule="evenodd" d="M8.18589 4.4375C5.87384 4.4375 4 6.31134 4 8.62339V10.6705C4 11.0847 3.66421 11.4205 3.25 11.4205C2.83579 11.4205 2.5 11.0847 2.5 10.6705V8.62339C2.5 5.48291 5.04541 2.9375 8.18589 2.9375H16.3141C19.4546 2.9375 22 5.48291 22 8.62339V15.3729C22 18.5134 19.4546 21.0588 16.3141 21.0588H12.8883C12.4741 21.0588 12.1383 20.723 12.1383 20.3088C12.1383 19.8946 12.4741 19.5588 12.8883 19.5588H16.3141C18.6262 19.5588 20.5 17.685 20.5 15.3729V8.62339C20.5 6.31134 18.6262 4.4375 16.3141 4.4375H8.18589Z" fill="#000000" />
<path fill-rule="evenodd" clip-rule="evenodd" d="M2.5 17.0662C2.5 14.8618 4.28634 13.0742 6.49195 13.0742C7.50334 13.0742 8.42967 13.4508 9.13316 14.0728C9.44348 14.3472 9.47262 14.8212 9.19825 15.1315C8.92389 15.4418 8.44991 15.4709 8.13959 15.1966C7.70081 14.8086 7.12487 14.5742 6.49195 14.5742C5.11506 14.5742 4 15.69 4 17.0662C4 17.4804 3.66421 17.8162 3.25 17.8162C2.83579 17.8162 2.5 17.4804 2.5 17.0662Z" fill="#000000" />
<path fill-rule="evenodd" clip-rule="evenodd" d="M9.73307 16.3164C10.1473 16.3164 10.4831 16.6522 10.4831 17.0664C10.4831 19.2707 8.69672 21.0584 6.49112 21.0584C5.47972 21.0584 4.55339 20.6817 3.8499 20.0597C3.53959 19.7854 3.51045 19.3114 3.78481 19.0011C4.05918 18.6908 4.53316 18.6616 4.84347 18.936C5.28225 19.3239 5.85819 19.5584 6.49112 19.5584C7.868 19.5584 8.98307 18.4426 8.98307 17.0664C8.98307 16.6522 9.31885 16.3164 9.73307 16.3164Z" fill="#000000" />
</svg>