<svg width="24px"  height="24px"  viewBox="0 0 25 24" fill="none" xmlns="http://www.w3.org/2000/svg">
<path fill-rule="evenodd" clip-rule="evenodd" d="M16.2267 10.6562C15.4865 10.6562 14.8867 11.2559 14.8867 11.9952C14.8867 12.7345 15.4865 13.3342 16.2267 13.3342H21.2492C21.6634 13.3342 21.9992 13.67 21.9992 14.0842C21.9992 14.4984 21.6634 14.8342 21.2492 14.8342H16.2267C14.659 14.8342 13.3867 13.5638 13.3867 11.9952C13.3867 10.4266 14.659 9.15625 16.2267 9.15625H21.2492C21.6634 9.15625 21.9992 9.49204 21.9992 9.90625C21.9992 10.3205 21.6634 10.6562 21.2492 10.6562H16.2267Z" fill="#000000" />
<path fill-rule="evenodd" clip-rule="evenodd" d="M2.5 8.25366C2.5 5.3175 4.88 2.9375 7.81616 2.9375H16.6838C19.62 2.9375 22 5.3175 22 8.25366V15.7426C22 18.6788 19.62 21.0588 16.6838 21.0588H7.81616C4.88 21.0588 2.5 18.6788 2.5 15.7426V8.25366ZM7.81616 4.4375C5.70843 4.4375 4 6.14593 4 8.25366V15.7426C4 17.8504 5.70843 19.5588 7.81616 19.5588H16.6838C18.7916 19.5588 20.5 17.8504 20.5 15.7426V8.25366C20.5 6.14593 18.7916 4.4375 16.6838 4.4375H7.81616Z" fill="#000000" />
<path fill-rule="evenodd" clip-rule="evenodd" d="M8.36426 10.0312C8.77847 10.0312 9.11426 10.367 9.11426 10.7812V13.2108C9.11426 13.625 8.77847 13.9608 8.36426 13.9608C7.95004 13.9608 7.61426 13.625 7.61426 13.2108V10.7812C7.61426 10.367 7.95004 10.0312 8.36426 10.0312Z" fill="#000000" />
</svg>