<svg width="24px"  height="24px"  viewBox="0 0 25 24" fill="none" xmlns="http://www.w3.org/2000/svg">
<path fill-rule="evenodd" clip-rule="evenodd" d="M17.4409 10.0234C16.4571 10.0234 15.6602 10.821 15.6602 11.8041C15.6602 12.7885 16.4573 13.5858 17.4409 13.5858H21.2481C21.6623 13.5858 21.9981 13.9216 21.9981 14.3358C21.9981 14.75 21.6623 15.0858 21.2481 15.0858H17.4409C15.6281 15.0858 14.1602 13.6161 14.1602 11.8041C14.1602 9.99293 15.6283 8.52344 17.4409 8.52344H21.2481C21.6623 8.52344 21.9981 8.85922 21.9981 9.27344C21.9981 9.68765 21.6623 10.0234 21.2481 10.0234H17.4409Z" fill="#000000" />
<path fill-rule="evenodd" clip-rule="evenodd" d="M16.4941 11.75C16.4941 11.3358 16.8299 11 17.2441 11H17.2471C17.6613 11 17.9971 11.3358 17.9971 11.75C17.9971 12.1642 17.6613 12.5 17.2471 12.5H17.2441C16.8299 12.5 16.4941 12.1642 16.4941 11.75Z" fill="#000000" />
<path fill-rule="evenodd" clip-rule="evenodd" d="M8.18589 4.36719C5.87384 4.36719 4 6.24102 4 8.55308V11.5411C4 11.9553 3.66421 12.2911 3.25 12.2911C2.83579 12.2911 2.5 11.9553 2.5 11.5411V8.55308C2.5 5.4126 5.04541 2.86719 8.18589 2.86719H16.3141C19.4546 2.86719 22 5.4126 22 8.55308V15.3026C22 18.4431 19.4546 20.9885 16.3141 20.9885H12.8883C12.4741 20.9885 12.1383 20.6527 12.1383 20.2385C12.1383 19.8243 12.4741 19.4885 12.8883 19.4885H16.3141C18.6262 19.4885 20.5 17.6146 20.5 15.3026V8.55308C20.5 6.24102 18.6262 4.36719 16.3141 4.36719H8.18589Z" fill="#000000" />
<path fill-rule="evenodd" clip-rule="evenodd" d="M7.0293 13.0312C7.44351 13.0312 7.7793 13.367 7.7793 13.7812V20.3809C7.7793 20.7951 7.44351 21.1309 7.0293 21.1309C6.61508 21.1309 6.2793 20.7951 6.2793 20.3809V13.7812C6.2793 13.367 6.61508 13.0312 7.0293 13.0312Z" fill="#000000" />
<path fill-rule="evenodd" clip-rule="evenodd" d="M3.8516 17.1874C4.14508 16.8951 4.61995 16.896 4.91226 17.1895L7.03211 19.3179L9.15109 17.1896C9.44334 16.8961 9.91822 16.895 10.2118 17.1873C10.5053 17.4795 10.5063 17.9544 10.2141 18.2479L7.5637 20.91C7.42298 21.0513 7.23174 21.1308 7.03228 21.1308C6.83282 21.1308 6.64157 21.0514 6.50081 20.9101L3.84946 18.248C3.55716 17.9545 3.55812 17.4797 3.8516 17.1874Z" fill="#000000" />
</svg>