<svg width="24px"  height="24px"  viewBox="0 0 25 24" fill="none" xmlns="http://www.w3.org/2000/svg">
<path fill-rule="evenodd" clip-rule="evenodd" d="M17.4409 10.0469C16.4571 10.0469 15.6602 10.8444 15.6602 11.8276C15.6602 12.8119 16.4573 13.6093 17.4409 13.6093H21.2481C21.6623 13.6093 21.9981 13.945 21.9981 14.3593C21.9981 14.7735 21.6623 15.1093 21.2481 15.1093H17.4409C15.6281 15.1093 14.1602 13.6396 14.1602 11.8276C14.1602 10.0164 15.6283 8.54688 17.4409 8.54688H21.2481C21.6623 8.54688 21.9981 8.88266 21.9981 9.29688C21.9981 9.71109 21.6623 10.0469 21.2481 10.0469H17.4409Z" fill="#000000" />
<path fill-rule="evenodd" clip-rule="evenodd" d="M16.4941 11.7734C16.4941 11.3592 16.8299 11.0234 17.2441 11.0234H17.2471C17.6613 11.0234 17.9971 11.3592 17.9971 11.7734C17.9971 12.1877 17.6613 12.5234 17.2471 12.5234H17.2441C16.8299 12.5234 16.4941 12.1877 16.4941 11.7734Z" fill="#000000" />
<path fill-rule="evenodd" clip-rule="evenodd" d="M8.18589 4.39062C5.87384 4.39062 4 6.26446 4 8.57652V11.5645C4 11.9787 3.66421 12.3145 3.25 12.3145C2.83579 12.3145 2.5 11.9787 2.5 11.5645V8.57652C2.5 5.43603 5.04541 2.89062 8.18589 2.89062H16.3141C19.4546 2.89062 22 5.43603 22 8.57652V15.326C22 18.4665 19.4546 21.0119 16.3141 21.0119H12.8883C12.4741 21.0119 12.1383 20.6761 12.1383 20.2619C12.1383 19.8477 12.4741 19.5119 12.8883 19.5119H16.3141C18.6262 19.5119 20.5 17.6381 20.5 15.326V8.57652C20.5 6.26446 18.6262 4.39062 16.3141 4.39062H8.18589Z" fill="#000000" />
<path fill-rule="evenodd" clip-rule="evenodd" d="M7.68945 13.0078C8.10367 13.0078 8.43945 13.3436 8.43945 13.7578V20.3575C8.43945 20.7717 8.10367 21.1075 7.68945 21.1075C7.27524 21.1075 6.93945 20.7717 6.93945 20.3575V13.7578C6.93945 13.3436 7.27524 13.0078 7.68945 13.0078Z" fill="#000000" />
<path fill-rule="evenodd" clip-rule="evenodd" d="M7.68951 13.0078C7.88897 13.0078 8.0802 13.0873 8.22093 13.2286L10.8713 15.8907C11.1636 16.1842 11.1625 16.6591 10.869 16.9514C10.5754 17.2436 10.1006 17.2426 9.80832 16.949L7.68934 14.8207L5.56948 16.9491C5.27718 17.2426 4.80231 17.2436 4.50883 16.9513C4.21534 16.659 4.21439 16.1841 4.50669 15.8906L7.15804 13.2286C7.29879 13.0872 7.49005 13.0078 7.68951 13.0078Z" fill="#000000" />
</svg>