<svg width="24px"  height="24px"  viewBox="0 0 25 24" fill="none" xmlns="http://www.w3.org/2000/svg">
<path fill-rule="evenodd" clip-rule="evenodd" d="M17.4399 10.0938C16.4557 10.0938 15.6582 10.8917 15.6582 11.8745C15.6582 12.8584 16.4559 13.6561 17.4399 13.6561H21.2471C21.6613 13.6561 21.9971 13.9919 21.9971 14.4061C21.9971 14.8203 21.6613 15.1561 21.2471 15.1561H17.4399C15.6275 15.1561 14.1582 13.6868 14.1582 11.8745C14.1582 10.0629 15.6277 8.59375 17.4399 8.59375H21.2471C21.6613 8.59375 21.9971 8.92954 21.9971 9.34375C21.9971 9.75796 21.6613 10.0938 21.2471 10.0938H17.4399Z" fill="#000000" />
<path fill-rule="evenodd" clip-rule="evenodd" d="M16.4941 11.8203C16.4941 11.4061 16.8299 11.0703 17.2441 11.0703H17.2471C17.6613 11.0703 17.9971 11.4061 17.9971 11.8203C17.9971 12.2345 17.6613 12.5703 17.2471 12.5703H17.2441C16.8299 12.5703 16.4941 12.2345 16.4941 11.8203Z" fill="#000000" />
<path fill-rule="evenodd" clip-rule="evenodd" d="M8.18589 4.4375C5.87384 4.4375 4 6.31134 4 8.62339V11.6114C4 12.0256 3.66421 12.3614 3.25 12.3614C2.83579 12.3614 2.5 12.0256 2.5 11.6114V8.62339C2.5 5.48291 5.04541 2.9375 8.18589 2.9375H16.3141C19.4546 2.9375 22 5.48291 22 8.62339V15.3729C22 18.5134 19.4546 21.0588 16.3141 21.0588H12.8883C12.4741 21.0588 12.1383 20.723 12.1383 20.3088C12.1383 19.8946 12.4741 19.5588 12.8883 19.5588H16.3141C18.6262 19.5588 20.5 17.685 20.5 15.3729V8.62339C20.5 6.31134 18.6262 4.4375 16.3141 4.4375H8.18589Z" fill="#000000" />
<path fill-rule="evenodd" clip-rule="evenodd" d="M8.44671 15.1103C8.7396 15.4032 8.7396 15.8781 8.44671 16.171L3.78033 20.8373C3.48744 21.1302 3.01256 21.1302 2.71967 20.8373C2.42678 20.5444 2.42678 20.0696 2.71967 19.7767L7.38605 15.1103C7.67894 14.8174 8.15382 14.8174 8.44671 15.1103Z" fill="#000000" />
<path fill-rule="evenodd" clip-rule="evenodd" d="M8.44713 15.1103C8.58817 15.2513 8.66722 15.4427 8.6668 15.6422L8.65902 19.3988C8.65816 19.813 8.32168 20.1481 7.90747 20.1473C7.49325 20.1464 7.15816 19.8099 7.15902 19.3957L7.16525 16.3922L4.16171 16.3984C3.7475 16.3993 3.41102 16.0642 3.41016 15.65C3.4093 15.2358 3.74439 14.8993 4.1586 14.8984L7.91525 14.8906C8.1147 14.8902 8.3061 14.9693 8.44713 15.1103Z" fill="#000000" />
</svg>