<svg width="24px"  height="24px"  viewBox="0 0 25 24" fill="none" xmlns="http://www.w3.org/2000/svg">
<path fill-rule="evenodd" clip-rule="evenodd" d="M12.25 7.97266C12.6642 7.97266 13 8.30844 13 8.72266V8.725C13 9.13921 12.6642 9.475 12.25 9.475C11.8358 9.475 11.5 9.13921 11.5 8.725V8.72266C11.5 8.30844 11.8358 7.97266 12.25 7.97266Z" fill="#000000" />
<path fill-rule="evenodd" clip-rule="evenodd" d="M8.05454 5.80078C5.81536 5.80078 4 7.61536 4 9.85532V15.9315C4 18.1704 5.81526 19.9851 8.05454 19.9851H16.4552C18.6846 19.9851 20.5 18.1715 20.5 15.9315V9.85532C20.5 7.61428 18.6845 5.80078 16.4552 5.80078H14.7048C14.2906 5.80078 13.9548 5.46499 13.9548 5.05078C13.9548 4.63657 14.2906 4.30078 14.7048 4.30078H16.4552C19.5149 4.30078 22 6.78783 22 9.85532V15.9315C22 18.9982 19.5148 21.4851 16.4552 21.4851H8.05454C4.98723 21.4851 2.5 18.9992 2.5 15.9315V9.85532C2.5 6.78674 4.98713 4.30078 8.05454 4.30078H9.78351C10.1977 4.30078 10.5335 4.63657 10.5335 5.05078C10.5335 5.46499 10.1977 5.80078 9.78351 5.80078H8.05454Z" fill="#000000" />
<path fill-rule="evenodd" clip-rule="evenodd" d="M11.6893 4.01562C11.0544 4.01562 10.5391 4.53047 10.5391 5.16584V9.41871C10.5391 10.0541 11.0544 10.5689 11.6893 10.5689H12.8111C13.4467 10.5689 13.9613 10.0543 13.9613 9.41871V5.16584C13.9613 4.53022 13.4467 4.01562 12.8111 4.01562H11.6893ZM9.03906 5.16584C9.03906 3.70154 10.2265 2.51562 11.6893 2.51562H12.8111C14.2752 2.51562 15.4613 3.70179 15.4613 5.16584V9.41871C15.4613 10.8828 14.2752 12.0689 12.8111 12.0689H11.6893C10.2264 12.0689 9.03906 10.883 9.03906 9.41871V5.16584Z" fill="#000000" />
</svg>