<svg width="24px"  height="24px"  viewBox="0 0 25 24" fill="none" xmlns="http://www.w3.org/2000/svg">
<path fill-rule="evenodd" clip-rule="evenodd" d="M17.4409 10.0938C16.4571 10.0938 15.6602 10.8913 15.6602 11.8745C15.6602 12.8588 16.4573 13.6561 17.4409 13.6561H21.2481C21.6623 13.6561 21.9981 13.9919 21.9981 14.4061C21.9981 14.8203 21.6623 15.1561 21.2481 15.1561H17.4409C15.6281 15.1561 14.1602 13.6865 14.1602 11.8745C14.1602 10.0632 15.6283 8.59375 17.4409 8.59375H21.2481C21.6623 8.59375 21.9981 8.92954 21.9981 9.34375C21.9981 9.75796 21.6623 10.0938 21.2481 10.0938H17.4409Z" fill="#000000" />
<path fill-rule="evenodd" clip-rule="evenodd" d="M16.4922 11.8203C16.4922 11.4061 16.828 11.0703 17.2422 11.0703H17.2451C17.6593 11.0703 17.9951 11.4061 17.9951 11.8203C17.9951 12.2345 17.6593 12.5703 17.2451 12.5703H17.2422C16.828 12.5703 16.4922 12.2345 16.4922 11.8203Z" fill="#000000" />
<path fill-rule="evenodd" clip-rule="evenodd" d="M8.18589 4.4375C5.87384 4.4375 4 6.31134 4 8.62339V11.6114C4 12.0256 3.66421 12.3614 3.25 12.3614C2.83579 12.3614 2.5 12.0256 2.5 11.6114V8.62339C2.5 5.48291 5.04541 2.9375 8.18589 2.9375H16.3141C19.4546 2.9375 22 5.48291 22 8.62339V15.3729C22 18.5134 19.4546 21.0588 16.3141 21.0588H12.8883C12.4741 21.0588 12.1383 20.723 12.1383 20.3088C12.1383 19.8946 12.4741 19.5588 12.8883 19.5588H16.3141C18.6262 19.5588 20.5 17.685 20.5 15.3729V8.62339C20.5 6.31134 18.6262 4.4375 16.3141 4.4375H8.18589Z" fill="#000000" />
<path fill-rule="evenodd" clip-rule="evenodd" d="M8.44671 15.1103C8.7396 15.4032 8.7396 15.8781 8.44671 16.171L3.78033 20.8373C3.48744 21.1302 3.01256 21.1302 2.71967 20.8373C2.42678 20.5444 2.42678 20.0696 2.71967 19.7767L7.38605 15.1103C7.67894 14.8174 8.15382 14.8174 8.44671 15.1103Z" fill="#000000" />
<path fill-rule="evenodd" clip-rule="evenodd" d="M3.25934 15.8047C3.67355 15.8055 4.00864 16.142 4.00778 16.5562L4.00156 19.5598L7.0051 19.5536C7.41931 19.5527 7.75579 19.8878 7.75665 20.302C7.75751 20.7162 7.42242 21.0527 7.0082 21.0536L3.25155 21.0613C3.0521 21.0617 2.8607 20.9827 2.71967 20.8417C2.57864 20.7006 2.49959 20.5092 2.5 20.3098L2.50779 16.5531C2.50864 16.1389 2.84513 15.8038 3.25934 15.8047Z" fill="#000000" />
</svg>