<svg width="24px"  height="24px"  viewBox="0 0 25 24" fill="none" xmlns="http://www.w3.org/2000/svg">
<path fill-rule="evenodd" clip-rule="evenodd" d="M8.41699 7.43782C8.41699 5.32061 10.1337 3.60547 12.2503 3.60547C14.3661 3.60547 16.0827 5.32076 16.0827 7.43782C16.0827 9.55487 14.3661 11.2702 12.2503 11.2702C10.1337 11.2702 8.41699 9.55503 8.41699 7.43782ZM12.2503 5.10547C10.9615 5.10547 9.91699 6.14965 9.91699 7.43782C9.91699 8.72598 10.9615 9.77017 12.2503 9.77017C13.538 9.77017 14.5827 8.72614 14.5827 7.43782C14.5827 6.1495 13.538 5.10547 12.2503 5.10547Z" fill="#000000" />
<path fill-rule="evenodd" clip-rule="evenodd" d="M3.47931 12.0361C3.83048 11.8165 4.29324 11.9231 4.5129 12.2742C6.12694 14.8545 8.9855 16.563 12.2504 16.563C15.504 16.563 18.3731 14.8542 19.9869 12.2742C20.2065 11.9231 20.6693 11.8165 21.0205 12.0361C21.3716 12.2558 21.4782 12.7185 21.2586 13.0697C19.3814 16.0707 16.041 18.063 12.2504 18.063C8.44764 18.063 5.11816 16.0703 3.2412 13.0697C3.02154 12.7185 3.12815 12.2558 3.47931 12.0361Z" fill="#000000" />
<path fill-rule="evenodd" clip-rule="evenodd" d="M15.6421 15.9572C16.0283 15.8074 16.4628 15.9991 16.6125 16.3853L18.2977 20.7305C18.4475 21.1167 18.2558 21.5512 17.8696 21.701C17.4835 21.8507 17.049 21.6591 16.8992 21.2729L15.214 16.9276C15.0643 16.5414 15.2559 16.107 15.6421 15.9572Z" fill="#000000" />
<path fill-rule="evenodd" clip-rule="evenodd" d="M11.3898 9.60172C11.776 9.75149 11.9677 10.186 11.8179 10.5722L7.66821 21.2728C7.51845 21.659 7.08397 21.8507 6.69778 21.7009C6.31159 21.5511 6.11993 21.1167 6.26969 20.7305L10.4194 10.0298C10.5691 9.64362 11.0036 9.45196 11.3898 9.60172Z" fill="#000000" />
<path fill-rule="evenodd" clip-rule="evenodd" d="M12.25 2.25C12.6642 2.24998 13 2.58576 13 2.99997L13.0001 4.35585C13.0001 4.77006 12.6643 5.10586 12.2501 5.10588C11.8359 5.10589 11.5001 4.77012 11.5001 4.35591L11.5 3.00003C11.5 2.58582 11.8358 2.25002 12.25 2.25Z" fill="#000000" />
<path fill-rule="evenodd" clip-rule="evenodd" d="M13.1773 9.6017C13.5635 9.45197 13.998 9.64367 14.1477 10.0299L15.4106 13.2874C15.5604 13.6736 15.3687 14.108 14.9825 14.2578C14.5963 14.4075 14.1618 14.2158 14.0121 13.8296L12.7492 10.5721C12.5994 10.1859 12.7911 9.75143 13.1773 9.6017Z" fill="#000000" />
</svg>