<svg width="24px"  height="24px"  viewBox="0 0 25 24" fill="none" xmlns="http://www.w3.org/2000/svg">
<path fill-rule="evenodd" clip-rule="evenodd" d="M6.44051 7.96131C7.16206 7.18744 8.18435 6.76172 9.37273 6.76172H15.1279C16.3191 6.76172 17.3418 7.18709 18.063 7.96172C18.7785 8.7303 19.1412 9.78165 19.1412 10.9414V14.9092C19.1412 16.069 18.7785 17.1204 18.0628 17.889C17.3415 18.6637 16.3185 19.089 15.1269 19.089H9.37273C8.1819 19.089 7.15922 18.6635 6.43799 17.889C5.72238 17.1205 5.35938 16.0692 5.35938 14.9092V10.9414C5.35938 9.78058 5.72439 8.72937 6.44051 7.96131ZM7.53762 8.98423C7.12339 9.4285 6.85938 10.0922 6.85938 10.9414V14.9092C6.85938 15.7594 7.12248 16.423 7.53576 16.8668C7.94342 17.3046 8.55241 17.589 9.37273 17.589H15.1269C15.9484 17.589 16.5575 17.3045 16.9651 16.8668C17.3783 16.4231 17.6412 15.7596 17.6412 14.9092V10.9414C17.6412 10.0911 17.3783 9.42757 16.9651 8.98382C16.5577 8.54614 15.9487 8.26172 15.1279 8.26172H9.37273C8.55581 8.26172 7.94642 8.54578 7.53762 8.98423Z" fill="#000000" />
<path fill-rule="evenodd" clip-rule="evenodd" d="M10.2094 14.2234C10.3752 13.8438 10.8174 13.6705 11.1969 13.8364C11.9074 14.1468 12.5917 14.1468 13.3022 13.8364C13.6818 13.6705 14.124 13.8438 14.2898 14.2234C14.4556 14.6029 14.2823 15.0451 13.9028 15.2109C12.8094 15.6886 11.6898 15.6886 10.5964 15.2109C10.2168 15.0451 10.0436 14.6029 10.2094 14.2234Z" fill="#000000" />
<path fill-rule="evenodd" clip-rule="evenodd" d="M14.457 10.25C14.8712 10.25 15.207 10.5858 15.207 11V11.01C15.207 11.4242 14.8712 11.76 14.457 11.76C14.0428 11.76 13.707 11.4242 13.707 11.01V11C13.707 10.5858 14.0428 10.25 14.457 10.25Z" fill="#000000" />
<path fill-rule="evenodd" clip-rule="evenodd" d="M10.043 10.25C10.4572 10.25 10.793 10.5858 10.793 11V11.01C10.793 11.4242 10.4572 11.76 10.043 11.76C9.62876 11.76 9.29297 11.4242 9.29297 11.01V11C9.29297 10.5858 9.62876 10.25 10.043 10.25Z" fill="#000000" />
<path fill-rule="evenodd" clip-rule="evenodd" d="M3.28809 12.835C3.28809 11.4065 4.44655 10.25 5.87409 10.25H6.10955C6.52376 10.25 6.85955 10.5858 6.85955 11C6.85955 11.4142 6.52376 11.75 6.10955 11.75H5.87409C5.27394 11.75 4.78809 12.2359 4.78809 12.835C4.78809 13.4347 5.27446 13.921 5.87409 13.921H6.10955C6.52376 13.921 6.85955 14.2568 6.85955 14.671C6.85955 15.0852 6.52376 15.421 6.10955 15.421H5.87409C4.44603 15.421 3.28809 14.2631 3.28809 12.835Z" fill="#000000" />
<path fill-rule="evenodd" clip-rule="evenodd" d="M17.6406 11C17.6406 10.5858 17.9764 10.25 18.3906 10.25H18.6271C20.0551 10.25 21.2121 11.407 21.2121 12.835C21.2121 14.2626 20.0556 15.421 18.6271 15.421H18.3906C17.9764 15.421 17.6406 15.0852 17.6406 14.671C17.6406 14.2568 17.9764 13.921 18.3906 13.921H18.6271C19.2262 13.921 19.7121 13.4352 19.7121 12.835C19.7121 12.2354 19.2267 11.75 18.6271 11.75H18.3906C17.9764 11.75 17.6406 11.4142 17.6406 11Z" fill="#000000" />
<path fill-rule="evenodd" clip-rule="evenodd" d="M10.2656 4.2347C10.2656 3.13844 11.1541 2.25 12.2503 2.25C13.3466 2.25 14.235 3.13844 14.235 4.2347C14.235 5.33087 13.3467 6.21949 12.2504 6.21949C11.1541 6.21949 10.2656 5.33094 10.2656 4.2347ZM12.2503 3.75C11.9825 3.75 11.7656 3.96686 11.7656 4.2347C11.7656 4.50258 11.9826 4.71949 12.2504 4.71949C12.5181 4.71949 12.735 4.50264 12.735 4.2347C12.735 3.96686 12.5182 3.75 12.2503 3.75Z" fill="#000000" />
<path fill-rule="evenodd" clip-rule="evenodd" d="M12.25 4.71875C12.6642 4.71875 13 5.05454 13 5.46875V7.51005C13 7.92426 12.6642 8.26005 12.25 8.26005C11.8358 8.26005 11.5 7.92426 11.5 7.51005V5.46875C11.5 5.05454 11.8358 4.71875 12.25 4.71875Z" fill="#000000" />
<path fill-rule="evenodd" clip-rule="evenodd" d="M8.1582 21C8.1582 20.5858 8.49399 20.25 8.9082 20.25H15.5935C16.0077 20.25 16.3435 20.5858 16.3435 21C16.3435 21.4142 16.0077 21.75 15.5935 21.75H8.9082C8.49399 21.75 8.1582 21.4142 8.1582 21Z" fill="#000000" />
</svg>