<svg width="24px"  height="24px"  viewBox="0 0 25 24" fill="none" xmlns="http://www.w3.org/2000/svg">
<path fill-rule="evenodd" clip-rule="evenodd" d="M2.5 7.29894C2.5 4.70916 4.59979 2.60938 7.18957 2.60938H17.3114C19.9014 2.60938 22 4.7094 22 7.29894V14.2139C22 16.8034 19.9014 18.9034 17.3114 18.9034H16.2431C15.8694 18.9034 15.5116 19.0515 15.2478 19.3152L13.8253 20.7367C13.8252 20.7368 13.8254 20.7367 13.8253 20.7367C12.9552 21.6067 11.5456 21.6061 10.6751 20.7372L9.25318 19.3152C8.98942 19.0515 8.63157 18.9034 8.25789 18.9034H7.18957C4.59979 18.9034 2.5 16.8036 2.5 14.2139V7.29894ZM7.18957 4.10938C5.42821 4.10938 4 5.53759 4 7.29894V14.2139C4 15.9752 5.42821 17.4034 7.18957 17.4034H8.25789C9.02843 17.4034 9.7681 17.7088 10.3138 18.2546L11.7349 19.6756C12.0203 19.9605 12.4808 19.9599 12.7646 19.6761L14.1871 18.2546C14.1872 18.2545 14.1871 18.2546 14.1871 18.2546C14.7329 17.7089 15.4726 17.4034 16.2431 17.4034H17.3114C19.0725 17.4034 20.5 15.9755 20.5 14.2139V7.29894C20.5 5.53735 19.0725 4.10938 17.3114 4.10938H7.18957Z" fill="#000000" />
<path fill-rule="evenodd" clip-rule="evenodd" d="M10.5727 8.09467C10.8656 8.38756 10.8656 8.86244 10.5727 9.15533L8.81663 10.9114L10.5726 12.6666C10.8655 12.9594 10.8656 13.4343 10.5728 13.7272C10.28 14.0202 9.80508 14.0203 9.51213 13.7274L7.22564 11.4419C7.08494 11.3013 7.00588 11.1105 7.00586 10.9116C7.00584 10.7126 7.08486 10.5218 7.22553 10.3812L9.51202 8.09467C9.80491 7.80178 10.2798 7.80178 10.5727 8.09467Z" fill="#000000" />
<path fill-rule="evenodd" clip-rule="evenodd" d="M13.9287 8.09467C14.2215 7.80178 14.6964 7.80178 14.9893 8.09467L17.2758 10.3812C17.4165 10.5218 17.4955 10.7126 17.4955 10.9116C17.4955 11.1105 17.4164 11.3013 17.2757 11.4419L14.9892 13.7274C14.6962 14.0203 14.2214 14.0202 13.9285 13.7272C13.6357 13.4343 13.6358 12.9594 13.9288 12.6666L15.6847 10.9114L13.9287 9.15533C13.6358 8.86244 13.6358 8.38756 13.9287 8.09467Z" fill="#000000" />
</svg>