<svg width="24px"  height="24px"  viewBox="0 0 25 24" fill="none" xmlns="http://www.w3.org/2000/svg">
<path d="M16.9189 20.084C16.7549 20.0839 16.5954 20.0302 16.4649 19.9309C16.3344 19.8316 16.24 19.6923 16.1962 19.5342C16.1524 19.3762 16.1616 19.2082 16.2224 19.0559C16.2832 18.9035 16.3923 18.7754 16.5329 18.691C16.6499 18.618 19.5019 16.807 19.5019 12C19.5019 7.19295 16.6499 5.38195 16.5289 5.30695C16.3624 5.20237 16.2437 5.03661 16.1982 4.84535C16.1527 4.65409 16.1842 4.45262 16.2857 4.28431C16.3873 4.116 16.551 3.99431 16.7414 3.94543C16.9318 3.89655 17.1338 3.92439 17.3039 4.02295C17.4549 4.11295 21.0039 6.30695 21.0039 12C21.0039 17.693 17.4569 19.8869 17.3039 19.9769C17.1878 20.0472 17.0546 20.0843 16.9189 20.084Z" fill="#000000" />
<path d="M7.58007 20.084C7.44507 20.0836 7.31269 20.0467 7.19707 19.9769C7.04607 19.8869 3.49707 17.693 3.49707 12C3.49707 6.30695 7.04307 4.11295 7.19707 4.02295C7.36717 3.92439 7.56917 3.89655 7.75958 3.94543C7.95 3.99431 8.11361 4.116 8.21519 4.28431C8.31678 4.45262 8.34823 4.65409 8.30276 4.84535C8.25729 5.03661 8.13853 5.20237 7.97207 5.30695C7.84307 5.38595 5.00007 7.19995 5.00007 12C5.00007 16.8 7.85107 18.618 7.97207 18.693C8.11141 18.7785 8.21902 18.9072 8.27856 19.0595C8.33811 19.2117 8.34633 19.3793 8.30198 19.5367C8.25763 19.694 8.16313 19.8326 8.03284 19.9314C7.90254 20.0302 7.74357 20.0837 7.58007 20.084Z" fill="#000000" />
</svg>