<svg width="24px"  height="24px"  viewBox="0 0 25 24" fill="none" xmlns="http://www.w3.org/2000/svg">
<path fill-rule="evenodd" clip-rule="evenodd" d="M3.99076 3.89729C4.97547 2.84115 6.37768 2.25 8.03313 2.25H16.4678C18.1272 2.25 19.5296 2.84086 20.5134 3.89773C21.4916 4.94853 22 6.39899 22 8.02638V15.9736C22 17.6014 21.4916 19.052 20.5132 20.1027C19.5292 21.1595 18.1265 21.75 16.4669 21.75H8.03313C6.3739 21.75 4.97126 21.1595 3.98717 20.1028C3.0087 19.0521 2.5 17.6015 2.5 15.9736V8.02638C2.5 6.39795 3.01147 4.9476 3.99076 3.89729ZM5.08786 4.9202C4.41042 5.64678 4 6.70962 4 8.02638V15.9736C4 17.2919 4.40882 18.3545 5.08488 19.0805C5.75534 19.8004 6.74426 20.25 8.03313 20.25H16.4669C17.7563 20.25 18.7452 19.8004 19.4154 19.0805C20.0914 18.3546 20.5 17.292 20.5 15.9736V8.02638C20.5 6.70857 20.0914 5.64585 19.4155 4.91976C18.7452 4.19973 17.7566 3.75 16.4678 3.75H8.03313C6.74924 3.75 5.75988 4.19944 5.08786 4.9202Z" fill="#000000" />
<path fill-rule="evenodd" clip-rule="evenodd" d="M11.3135 10.3994C11.6064 10.6923 11.6064 11.1671 11.3135 11.46L9.19445 13.5791L11.3135 15.6982C11.6064 15.9911 11.6064 16.4659 11.3135 16.7588C11.0206 17.0517 10.5458 17.0517 10.2529 16.7588L7.60346 14.1094C7.46281 13.9688 7.38379 13.778 7.38379 13.5791C7.38379 13.3802 7.46281 13.1894 7.60346 13.0488L10.2529 10.3994C10.5458 10.1065 11.0206 10.1065 11.3135 10.3994Z" fill="#000000" />
<path fill-rule="evenodd" clip-rule="evenodd" d="M13.1874 7.2392C13.4803 6.94631 13.9552 6.94631 14.2481 7.2392L16.8975 9.88861C17.1904 10.1815 17.1904 10.6564 16.8975 10.9493L14.2481 13.5987C13.9552 13.8916 13.4803 13.8916 13.1874 13.5987C12.8946 13.3058 12.8946 12.8309 13.1874 12.538L15.3065 10.4189L13.1874 8.29986C12.8946 8.00697 12.8946 7.53209 13.1874 7.2392Z" fill="#000000" />
</svg>