<svg width="24px"  height="24px"  viewBox="0 0 25 24" fill="none" xmlns="http://www.w3.org/2000/svg">
<path d="M16.465 21.75H8.03201C4.72301 21.75 2.5 19.429 2.5 15.974V8.026C2.5 4.571 4.72301 2.25 8.03201 2.25H16.466C19.776 2.25 22 4.571 22 8.026V15.974C22 19.429 19.776 21.75 16.465 21.75ZM8.03201 3.75C5.58301 3.75 4 5.429 4 8.026V15.974C4 18.574 5.58301 20.25 8.03201 20.25H16.465C18.916 20.25 20.5 18.571 20.5 15.974V8.026C20.5 5.426 18.917 3.75 16.466 3.75H8.03201Z" fill="#000000" />
<path d="M9.48223 17.1547C9.34748 17.1548 9.21527 17.1178 9.10021 17.0477C8.32162 16.4814 7.69894 15.7274 7.29015 14.8558C6.88136 13.9842 6.69976 13.0233 6.76223 12.0627C6.6992 11.1019 6.88055 10.1408 7.28939 9.26914C7.69823 8.39743 8.3212 7.64349 9.10021 7.07766C9.27027 6.97675 9.4733 6.94709 9.66512 6.99512C9.85694 7.04315 10.022 7.165 10.1245 7.33414C10.2269 7.50329 10.2584 7.70604 10.2121 7.89829C10.1658 8.09053 10.0454 8.25671 9.87722 8.36066C9.32339 8.79604 8.88603 9.36183 8.60421 10.0075C8.32239 10.6531 8.20491 11.3585 8.26223 12.0607C8.20503 12.7629 8.32267 13.4683 8.60467 14.114C8.88666 14.7597 9.32421 15.3254 9.87823 15.7607C10.0172 15.847 10.1242 15.9763 10.1829 16.1289C10.2417 16.2816 10.249 16.4493 10.2037 16.6065C10.1585 16.7637 10.0631 16.9018 9.93215 16.9999C9.8012 17.0979 9.64179 17.1505 9.4782 17.1497L9.48223 17.1547Z" fill="#000000" />
<path d="M15.0146 17.1541C14.8505 17.1543 14.6909 17.1007 14.5602 17.0015C14.4295 16.9023 14.335 16.7629 14.291 16.6048C14.2471 16.4467 14.2563 16.2786 14.3171 16.1262C14.3779 15.9738 14.4869 15.8455 14.6276 15.7611C15.1805 15.3251 15.6168 14.7591 15.8977 14.1135C16.1786 13.4679 16.2954 12.7628 16.2376 12.0611C16.2948 11.3588 16.1772 10.6534 15.8952 10.0077C15.6132 9.36208 15.1756 8.79634 14.6216 8.36107C14.4541 8.25585 14.3346 8.08901 14.289 7.89652C14.2433 7.70403 14.2752 7.50131 14.3776 7.33207C14.4799 7.16331 14.6448 7.04193 14.8363 6.99452C15.0279 6.9471 15.2304 6.9775 15.3996 7.07907C16.1786 7.6449 16.8016 8.39884 17.2104 9.27055C17.6193 10.1423 17.8006 11.1033 17.7376 12.0641C17.8001 13.0248 17.6185 13.9856 17.2097 14.8572C16.8009 15.7288 16.1782 16.4829 15.3996 17.0491C15.2833 17.1187 15.1501 17.155 15.0146 17.1541Z" fill="#000000" />
</svg>