<svg width="24px"  height="24px"  viewBox="0 0 25 24" fill="none" xmlns="http://www.w3.org/2000/svg">
<path fill-rule="evenodd" clip-rule="evenodd" d="M4.5 5C4.5 4.58579 4.83579 4.25 5.25 4.25H8.43183C8.84605 4.25 9.18183 4.58579 9.18183 5C9.18183 5.41421 8.84605 5.75 8.43183 5.75H6V18.2489H8.43183C8.84605 18.2489 9.18183 18.5847 9.18183 18.9989C9.18183 19.4132 8.84605 19.7489 8.43183 19.7489H5.25C4.83579 19.7489 4.5 19.4132 4.5 18.9989V5Z" fill="#000000" />
<path fill-rule="evenodd" clip-rule="evenodd" d="M15.3184 5C15.3184 4.58579 15.6541 4.25 16.0684 4.25H19.2502C19.6644 4.25 20.0002 4.58579 20.0002 5V18.9989C20.0002 19.4132 19.6644 19.7489 19.2502 19.7489H16.0684C15.6541 19.7489 15.3184 19.4132 15.3184 18.9989C15.3184 18.5847 15.6541 18.2489 16.0684 18.2489H18.5002V5.75H16.0684C15.6541 5.75 15.3184 5.41421 15.3184 5Z" fill="#000000" />
</svg>