<svg width="24px"  height="24px"  viewBox="0 0 25 24" fill="none" xmlns="http://www.w3.org/2000/svg">
<path fill-rule="evenodd" clip-rule="evenodd" d="M2.5 12C2.5 6.61487 6.86487 2.25 12.25 2.25C17.6351 2.25 22 6.61487 22 12C22 17.3851 17.6351 21.75 12.25 21.75C6.86487 21.75 2.5 17.3851 2.5 12ZM12.25 3.75C7.69329 3.75 4 7.44329 4 12C4 16.5567 7.69329 20.25 12.25 20.25C16.8067 20.25 20.5 16.5567 20.5 12C20.5 7.44329 16.8067 3.75 12.25 3.75Z" fill="#000000" />
<path fill-rule="evenodd" clip-rule="evenodd" d="M10.7178 8.82123C11.0107 9.11413 11.0107 9.589 10.7178 9.88189L8.59875 12.001L10.7178 14.12C11.0107 14.4129 11.0107 14.8878 10.7178 15.1807C10.4249 15.4736 9.95005 15.4736 9.65716 15.1807L7.00776 12.5313C6.8671 12.3906 6.78809 12.1999 6.78809 12.001C6.78809 11.8021 6.8671 11.6113 7.00776 11.4706L9.65716 8.82123C9.95005 8.52834 10.4249 8.52834 10.7178 8.82123Z" fill="#000000" />
<path fill-rule="evenodd" clip-rule="evenodd" d="M13.7822 8.82123C14.0751 8.52834 14.5499 8.52834 14.8428 8.82123L17.4922 11.4706C17.6329 11.6113 17.7119 11.8021 17.7119 12.001C17.7119 12.1999 17.6329 12.3906 17.4922 12.5313L14.8428 15.1807C14.5499 15.4736 14.0751 15.4736 13.7822 15.1807C13.4893 14.8878 13.4893 14.4129 13.7822 14.12L15.9012 12.001L13.7822 9.88189C13.4893 9.589 13.4893 9.11413 13.7822 8.82123Z" fill="#000000" />
</svg>