<svg width="24px"  height="24px"  viewBox="0 0 25 24" fill="none" xmlns="http://www.w3.org/2000/svg">
<path fill-rule="evenodd" clip-rule="evenodd" d="M3.9902 3.89737C4.97468 2.84117 6.37669 2.25 8.03216 2.25H16.4669C18.1262 2.25 19.5288 2.84084 20.5129 3.89765C21.4913 4.94841 22 6.39889 22 8.02638V15.9736C22 17.6011 21.4913 19.0516 20.5127 20.1024C19.5285 21.1592 18.1256 21.75 16.4659 21.75H8.03216C6.3728 21.75 4.97038 21.1591 3.98657 20.1023C3.00842 19.0515 2.5 17.601 2.5 15.9736V8.02638C2.5 6.39806 3.01117 4.94771 3.9902 3.89737ZM5.08745 4.92012C4.41024 5.64666 4 6.70951 4 8.02638V15.9736C4 17.2914 4.40861 18.3541 5.08451 19.0802C5.75475 19.8003 6.74341 20.25 8.03216 20.25H16.4659C17.7552 20.25 18.7444 19.8002 19.415 19.0801C20.0912 18.354 20.5 17.2913 20.5 15.9736V8.02638C20.5 6.70868 20.0912 5.64597 19.4151 4.91984C18.7446 4.19975 17.7556 3.75 16.4669 3.75H8.03216C6.74828 3.75 5.75921 4.19943 5.08745 4.92012Z" fill="#000000" />
<path fill-rule="evenodd" clip-rule="evenodd" d="M7.26367 7.64062C7.26367 7.22641 7.59946 6.89062 8.01367 6.89062H9.99659C10.4108 6.89062 10.7466 7.22641 10.7466 7.64062C10.7466 8.05484 10.4108 8.39062 9.99659 8.39062H8.76367V15.6143H9.99659C10.4108 15.6143 10.7466 15.9501 10.7466 16.3643C10.7466 16.7785 10.4108 17.1143 9.99659 17.1143H8.01367C7.59946 17.1143 7.26367 16.7785 7.26367 16.3643V7.64062Z" fill="#000000" />
<path fill-rule="evenodd" clip-rule="evenodd" d="M13.7539 7.64062C13.7539 7.22641 14.0897 6.89062 14.5039 6.89062H16.4868C16.901 6.89062 17.2368 7.22641 17.2368 7.64062V16.3643C17.2368 16.7785 16.901 17.1143 16.4868 17.1143H14.5039C14.0897 17.1143 13.7539 16.7785 13.7539 16.3643C13.7539 15.9501 14.0897 15.6143 14.5039 15.6143H15.7368V8.39062H14.5039C14.0897 8.39062 13.7539 8.05484 13.7539 7.64062Z" fill="#000000" />
</svg>