<svg width="24px"  height="24px"  viewBox="0 0 25 24" fill="none" xmlns="http://www.w3.org/2000/svg">
<path fill-rule="evenodd" clip-rule="evenodd" d="M3.99076 3.89729C4.97547 2.84115 6.37768 2.25 8.03313 2.25H16.4678C18.1272 2.25 19.5296 2.84086 20.5134 3.89773C21.4916 4.94853 22 6.39899 22 8.02638V15.9736C22 17.601 21.4916 19.0515 20.5133 20.1023C19.5293 21.1592 18.1266 21.75 16.4669 21.75H8.03313C6.37379 21.75 4.97117 21.1592 3.98714 20.1024C3.00872 19.0516 2.5 17.6011 2.5 15.9736V8.02638C2.5 6.39795 3.01147 4.9476 3.99076 3.89729ZM5.08786 4.9202C4.41042 5.64678 4 6.70962 4 8.02638V15.9736C4 17.2913 4.40879 18.354 5.08492 19.0802C5.75542 19.8003 6.74437 20.25 8.03313 20.25H16.4669C17.7562 20.25 18.7451 19.8002 19.4154 19.0802C20.0914 18.3541 20.5 17.2914 20.5 15.9736V8.02638C20.5 6.70857 20.0914 5.64585 19.4155 4.91976C18.7452 4.19973 17.7566 3.75 16.4678 3.75H8.03313C6.74924 3.75 5.75988 4.19944 5.08786 4.9202Z" fill="#000000" />
<path fill-rule="evenodd" clip-rule="evenodd" d="M12.2494 10.7305C11.5481 10.7305 10.9805 11.2981 10.9805 11.9984C10.9805 12.6992 11.5486 13.2673 12.2494 13.2673C12.9502 13.2673 13.5183 12.6992 13.5183 11.9984C13.5183 11.2981 12.9507 10.7305 12.2494 10.7305ZM9.48047 11.9984C9.48047 10.4687 10.7206 9.23047 12.2494 9.23047C13.7782 9.23047 15.0183 10.4687 15.0183 11.9984C15.0183 13.5277 13.7786 14.7673 12.2494 14.7673C10.7201 14.7673 9.48047 13.5277 9.48047 11.9984Z" fill="#000000" />
<path fill-rule="evenodd" clip-rule="evenodd" d="M5.67969 12.0039C5.67969 11.5897 6.01547 11.2539 6.42969 11.2539H10.2311C10.6453 11.2539 10.9811 11.5897 10.9811 12.0039C10.9811 12.4181 10.6453 12.7539 10.2311 12.7539H6.42969C6.01547 12.7539 5.67969 12.4181 5.67969 12.0039ZM13.5186 12.0039C13.5186 11.5897 13.8544 11.2539 14.2686 11.2539H18.07C18.4842 11.2539 18.82 11.5897 18.82 12.0039C18.82 12.4181 18.4842 12.7539 18.07 12.7539H14.2686C13.8544 12.7539 13.5186 12.4181 13.5186 12.0039Z" fill="#000000" />
</svg>