<svg width="24px"  height="24px"  viewBox="0 0 25 24" fill="none" xmlns="http://www.w3.org/2000/svg">
<path fill-rule="evenodd" clip-rule="evenodd" d="M3.99076 3.89729C4.97547 2.84115 6.37768 2.25 8.03313 2.25H16.4678C18.1272 2.25 19.5296 2.84086 20.5134 3.89773C21.4916 4.94853 22 6.39899 22 8.02638V15.9736C22 17.601 21.4916 19.0515 20.5133 20.1023C19.5293 21.1592 18.1266 21.75 16.4669 21.75H8.03313C6.37379 21.75 4.97117 21.1592 3.98714 20.1024C3.00872 19.0516 2.5 17.6011 2.5 15.9736V8.02638C2.5 6.39795 3.01147 4.9476 3.99076 3.89729ZM5.08786 4.9202C4.41042 5.64678 4 6.70962 4 8.02638V15.9736C4 17.2913 4.40879 18.354 5.08492 19.0802C5.75542 19.8003 6.74437 20.25 8.03313 20.25H16.4669C17.7562 20.25 18.7451 19.8002 19.4154 19.0802C20.0914 18.3541 20.5 17.2914 20.5 15.9736V8.02638C20.5 6.70857 20.0914 5.64585 19.4155 4.91976C18.7452 4.19973 17.7566 3.75 16.4678 3.75H8.03313C6.74924 3.75 5.75988 4.19944 5.08786 4.9202Z" fill="#000000" />
<path fill-rule="evenodd" clip-rule="evenodd" d="M8.61182 7.65625C8.22236 7.65625 7.90625 7.97236 7.90625 8.36182C7.90625 8.75128 8.22236 9.06739 8.61182 9.06739H9.31739V8.36182C9.31739 7.97236 9.00128 7.65625 8.61182 7.65625ZM10.8174 9.06739V8.36182C10.8174 7.14393 9.82971 6.15625 8.61182 6.15625C7.39393 6.15625 6.40625 7.14393 6.40625 8.36182C6.40625 9.57971 7.39393 10.5674 8.61182 10.5674H9.31739V13.4341H8.61182C7.39426 13.4341 6.40625 14.4205 6.40625 15.6397C6.40625 16.8582 7.39458 17.8442 8.61182 17.8442C9.82905 17.8442 10.8174 16.8582 10.8174 15.6397V14.9341H13.6841V15.6397C13.6841 16.8575 14.6708 17.8442 15.8887 17.8442C17.1072 17.8442 18.0943 16.8579 18.0943 15.6397C18.0943 14.4208 17.1075 13.4341 15.8887 13.4341H15.1841V10.5674H15.8887C17.1079 10.5674 18.0943 9.57938 18.0943 8.36182C18.0943 7.14426 17.1079 6.15625 15.8887 6.15625C14.6701 6.15625 13.6841 7.14458 13.6841 8.36182V9.06739H10.8174ZM10.8174 10.5674V13.4341H13.6841V10.5674H10.8174ZM15.1841 9.06739H15.8887C16.2788 9.06739 16.5943 8.75161 16.5943 8.36182C16.5943 7.97203 16.2788 7.65625 15.8887 7.65625C15.4999 7.65625 15.1841 7.9717 15.1841 8.36182V9.06739ZM15.1841 14.9341V15.6397C15.1841 16.0291 15.4992 16.3442 15.8887 16.3442C16.2794 16.3442 16.5943 16.0288 16.5943 15.6397C16.5943 15.2492 16.2791 14.9341 15.8887 14.9341H15.1841ZM9.31739 14.9341H8.61182C8.22203 14.9341 7.90625 15.2495 7.90625 15.6397C7.90625 16.0285 8.2217 16.3442 8.61182 16.3442C9.00193 16.3442 9.31739 16.0285 9.31739 15.6397V14.9341Z" fill="#000000" />
</svg>