<svg width="24px"  height="24px"  viewBox="0 0 25 24" fill="none" xmlns="http://www.w3.org/2000/svg">
<path fill-rule="evenodd" clip-rule="evenodd" d="M2.5 7.31424C2.5 4.67495 4.63956 2.53516 7.27811 2.53516H17.2209C19.8603 2.53516 22 4.67483 22 7.31424V12.7707C22 15.4101 19.8603 17.5498 17.2209 17.5498H7.27811C4.63956 17.5498 2.5 15.41 2.5 12.7707V7.31424ZM7.27811 4.03516C5.46822 4.03516 4 5.50314 4 7.31424V12.7707C4 14.5818 5.46822 16.0498 7.27811 16.0498H17.2209C19.0319 16.0498 20.5 14.5816 20.5 12.7707V7.31424C20.5 5.50326 19.0319 4.03516 17.2209 4.03516H7.27811Z" fill="#000000" />
<path fill-rule="evenodd" clip-rule="evenodd" d="M6.55469 20.7148C6.55469 20.3006 6.89047 19.9648 7.30469 19.9648H17.193C17.6072 19.9648 17.943 20.3006 17.943 20.7148C17.943 21.1291 17.6072 21.4648 17.193 21.4648H7.30469C6.89047 21.4648 6.55469 21.1291 6.55469 20.7148Z" fill="#000000" />
<path fill-rule="evenodd" clip-rule="evenodd" d="M10.2539 16.0567C10.6628 16.1232 10.9403 16.5086 10.8738 16.9174L10.2365 20.8346C10.17 21.2435 9.78461 21.521 9.37577 21.4544C8.96693 21.3879 8.68943 21.0026 8.75594 20.5937L9.39324 16.6766C9.45975 16.2677 9.8451 15.9902 10.2539 16.0567Z" fill="#000000" />
<path fill-rule="evenodd" clip-rule="evenodd" d="M14.2449 16.0567C14.6537 15.9902 15.0391 16.2677 15.1056 16.6766L15.7429 20.5937C15.8094 21.0026 15.5319 21.3879 15.1231 21.4544C14.7142 21.521 14.3289 21.2435 14.2624 20.8346L13.6251 16.9174C13.5586 16.5086 13.8361 16.1232 14.2449 16.0567Z" fill="#000000" />
<path fill-rule="evenodd" clip-rule="evenodd" d="M12.1621 12.6133C12.1621 12.1991 12.4979 11.8633 12.9121 11.8633H15.9595C16.3737 11.8633 16.7095 12.1991 16.7095 12.6133C16.7095 13.0275 16.3737 13.3633 15.9595 13.3633H12.9121C12.4979 13.3633 12.1621 13.0275 12.1621 12.6133Z" fill="#000000" />
<path fill-rule="evenodd" clip-rule="evenodd" d="M8.00873 7.1767C8.30163 6.88381 8.7765 6.88381 9.06939 7.1767L11.2576 9.36492C11.5505 9.65781 11.5505 10.1327 11.2576 10.4256L9.06939 12.6138C8.7765 12.9067 8.30163 12.9067 8.00873 12.6138C7.71584 12.3209 7.71584 11.846 8.00873 11.5531L9.66662 9.89525L8.00873 8.23736C7.71584 7.94447 7.71584 7.46959 8.00873 7.1767Z" fill="#000000" />
</svg>