<svg width="24px"  height="24px"  viewBox="0 0 25 24" fill="none" xmlns="http://www.w3.org/2000/svg">
<path fill-rule="evenodd" clip-rule="evenodd" d="M3.99076 3.89729C4.97547 2.84115 6.37768 2.25 8.03313 2.25H16.4678C18.1272 2.25 19.5296 2.84086 20.5134 3.89773C21.4916 4.94853 22 6.39899 22 8.02638V15.9736C22 17.601 21.4916 19.0515 20.5133 20.1023C19.5293 21.1592 18.1266 21.75 16.4669 21.75H8.03313C6.37379 21.75 4.97117 21.1592 3.98714 20.1024C3.00872 19.0516 2.5 17.6011 2.5 15.9736V8.02638C2.5 6.39795 3.01147 4.9476 3.99076 3.89729ZM5.08786 4.9202C4.41042 5.64678 4 6.70962 4 8.02638V15.9736C4 17.2913 4.40879 18.354 5.08492 19.0802C5.75542 19.8003 6.74437 20.25 8.03313 20.25H16.4669C17.7562 20.25 18.7451 19.8002 19.4154 19.0802C20.0914 18.3541 20.5 17.2914 20.5 15.9736V8.02638C20.5 6.70857 20.0914 5.64585 19.4155 4.91976C18.7452 4.19973 17.7566 3.75 16.4678 3.75H8.03313C6.74924 3.75 5.75988 4.19944 5.08786 4.9202Z" fill="#000000" />
<path fill-rule="evenodd" clip-rule="evenodd" d="M15.5551 14.5039C15.0119 14.5039 14.5723 14.9436 14.5723 15.4868C14.5723 16.03 15.0119 16.4696 15.5551 16.4696C16.0983 16.4696 16.538 16.03 16.538 15.4868C16.538 14.9436 16.0983 14.5039 15.5551 14.5039ZM13.0723 15.4868C13.0723 14.1152 14.1835 13.0039 15.5551 13.0039C16.9267 13.0039 18.038 14.1152 18.038 15.4868C18.038 16.8584 16.9267 17.9696 15.5551 17.9696C14.1835 17.9696 13.0723 16.8584 13.0723 15.4868Z" fill="#000000" />
<path fill-rule="evenodd" clip-rule="evenodd" d="M9.92871 10.5C9.92871 10.0858 10.2645 9.75 10.6787 9.75H14.2602C15.3896 9.75 16.3053 10.6657 16.3053 11.795V13.7128C16.3053 14.127 15.9695 14.4628 15.5553 14.4628C15.141 14.4628 14.8053 14.127 14.8053 13.7128V11.795C14.8053 11.4941 14.5611 11.25 14.2602 11.25H10.6787C10.2645 11.25 9.92871 10.9142 9.92871 10.5Z" fill="#000000" />
<path fill-rule="evenodd" clip-rule="evenodd" d="M8.94576 9.5C8.40256 9.5 7.96289 9.93967 7.96289 10.4829C7.96289 11.0261 8.40256 11.4657 8.94576 11.4657C9.48895 11.4657 9.92862 11.0261 9.92862 10.4829C9.92862 9.93967 9.48895 9.5 8.94576 9.5ZM6.46289 10.4829C6.46289 9.11125 7.57414 8 8.94576 8C10.3174 8 11.4286 9.11125 11.4286 10.4829C11.4286 11.8545 10.3174 12.9657 8.94576 12.9657C7.57414 12.9657 6.46289 11.8545 6.46289 10.4829Z" fill="#000000" />
<path fill-rule="evenodd" clip-rule="evenodd" d="M8.94522 6.02734C9.35944 6.02729 9.69526 6.36304 9.69531 6.77726L9.69554 8.74886C9.69559 9.16307 9.35985 9.4989 8.94563 9.49894C8.53142 9.49899 8.19559 9.16325 8.19554 8.74903L8.19531 6.77743C8.19526 6.36322 8.53101 6.02739 8.94522 6.02734ZM8.94558 11.4647C9.35979 11.4647 9.69556 11.8005 9.69554 12.2147L9.69531 17.2221C9.69529 17.6363 9.35949 17.9721 8.94528 17.9721C8.53106 17.9721 8.19529 17.6363 8.19531 17.2221L8.19554 12.2146C8.19556 11.8004 8.53137 11.4647 8.94558 11.4647Z" fill="#000000" />
</svg>