<svg width="24px"  height="24px"  viewBox="0 0 25 24" fill="none" xmlns="http://www.w3.org/2000/svg">
<path fill-rule="evenodd" clip-rule="evenodd" d="M7.5417 15.8047C6.59025 15.8047 5.81836 16.5766 5.81836 17.528C5.81836 18.4795 6.59025 19.2514 7.5417 19.2514C8.49314 19.2514 9.26503 18.4795 9.26503 17.528C9.26503 16.5766 8.49314 15.8047 7.5417 15.8047ZM4.31836 17.528C4.31836 15.7482 5.76183 14.3047 7.5417 14.3047C9.32157 14.3047 10.765 15.7482 10.765 17.528C10.765 19.3079 9.32157 20.7514 7.5417 20.7514C5.76183 20.7514 4.31836 19.3079 4.31836 17.528Z" fill="#000000" />
<path fill-rule="evenodd" clip-rule="evenodd" d="M16.9597 10.2109C16.0082 10.2109 15.2363 10.9828 15.2363 11.9343C15.2363 12.8857 16.0082 13.6576 16.9597 13.6576C17.9111 13.6576 18.683 12.8857 18.683 11.9343C18.683 10.9828 17.9111 10.2109 16.9597 10.2109ZM13.7363 11.9343C13.7363 10.1544 15.1798 8.71094 16.9597 8.71094C18.7395 8.71094 20.183 10.1544 20.183 11.9343C20.183 13.7141 18.7395 15.1576 16.9597 15.1576C15.1798 15.1576 13.7363 13.7141 13.7363 11.9343Z" fill="#000000" />
<path fill-rule="evenodd" clip-rule="evenodd" d="M16.9784 13.6562C17.3926 13.6562 17.7284 13.992 17.7284 14.4062V15.5752C17.7284 17.098 16.4944 18.332 14.9717 18.332H10.0156C9.60141 18.332 9.26562 17.9962 9.26562 17.582C9.26562 17.1678 9.60141 16.832 10.0156 16.832H14.9717C15.666 16.832 16.2284 16.2695 16.2284 15.5752V14.4062C16.2284 13.992 16.5642 13.6562 16.9784 13.6562Z" fill="#000000" />
<path fill-rule="evenodd" clip-rule="evenodd" d="M7.5417 4.75C6.59025 4.75 5.81836 5.52189 5.81836 6.47334C5.81836 7.42478 6.59025 8.19667 7.5417 8.19667C8.49314 8.19667 9.26503 7.42478 9.26503 6.47334C9.26503 5.52189 8.49314 4.75 7.5417 4.75ZM4.31836 6.47334C4.31836 4.69347 5.76183 3.25 7.5417 3.25C9.32157 3.25 10.765 4.69347 10.765 6.47334C10.765 8.25321 9.32157 9.69667 7.5417 9.69667C5.76183 9.69667 4.31836 8.25321 4.31836 6.47334Z" fill="#000000" />
<path fill-rule="evenodd" clip-rule="evenodd" d="M7.54102 8.19531C7.95523 8.19531 8.29102 8.5311 8.29102 8.94531V15.052C8.29102 15.4662 7.95523 15.802 7.54102 15.802C7.1268 15.802 6.79102 15.4662 6.79102 15.052V8.94531C6.79102 8.5311 7.1268 8.19531 7.54102 8.19531Z" fill="#000000" />
</svg>