<svg width="24px"  height="24px"  viewBox="0 0 25 24" fill="none" xmlns="http://www.w3.org/2000/svg">
<path fill-rule="evenodd" clip-rule="evenodd" d="M22.0361 10.9085L22.0361 13.0886C22.0361 13.4243 22.0362 13.7138 22.0195 13.9534C22.0019 14.2057 21.9633 14.4579 21.858 14.7065C21.6301 15.2447 21.2017 15.6732 20.6635 15.9011C20.4149 16.0063 20.1627 16.045 19.9104 16.0625C19.6708 16.0792 19.3812 16.0792 19.0456 16.0792L18.722 16.0792C18.3864 16.0792 18.0968 16.0792 17.8572 16.0625C17.6049 16.045 17.3527 16.0063 17.1041 15.9011C16.5659 15.6732 16.1375 15.2447 15.9096 14.7065C15.8043 14.4579 15.7657 14.2057 15.7481 13.9534C15.7314 13.7138 15.7314 13.4243 15.7315 13.0886L15.7315 10.9085C15.7314 10.5729 15.7314 10.2833 15.7481 10.0437C15.7657 9.79145 15.8043 9.53922 15.9096 9.29063C16.1375 8.7524 16.5659 8.32398 17.1041 8.09607C17.3527 7.9908 17.6049 7.95217 17.8572 7.93462C18.0968 7.91795 18.3864 7.91796 18.722 7.91797L19.0456 7.91797C19.3812 7.91796 19.6708 7.91795 19.9104 7.93462C20.1627 7.95217 20.4149 7.9908 20.6635 8.09607C21.2017 8.32398 21.6301 8.7524 21.858 9.29063C21.9633 9.53922 22.0019 9.79145 22.0195 10.0437C22.0362 10.2833 22.0361 10.5729 22.0361 10.9085ZM20.5231 10.1479C20.511 9.97355 20.4902 9.90733 20.4768 9.87552C20.4008 9.69611 20.258 9.55331 20.0786 9.47734C20.0468 9.46387 19.9805 9.44313 19.8062 9.431C19.625 9.41839 19.3881 9.41797 19.0211 9.41797L18.7465 9.41797C18.3795 9.41797 18.1426 9.41839 17.9613 9.431C17.787 9.44313 17.7208 9.46387 17.689 9.47734C17.5096 9.55331 17.3668 9.69611 17.2908 9.87552C17.2774 9.90733 17.2566 9.97355 17.2445 10.1479C17.2319 10.3291 17.2315 10.566 17.2315 10.933L17.2315 13.0642C17.2315 13.4311 17.2319 13.6681 17.2445 13.8493C17.2566 14.0236 17.2774 14.0898 17.2908 14.1216C17.3668 14.301 17.5096 14.4438 17.689 14.5198C17.7208 14.5333 17.787 14.554 17.9613 14.5661C18.1426 14.5787 18.3795 14.5792 18.7465 14.5792L19.0211 14.5792C19.3881 14.5792 19.625 14.5787 19.8062 14.5661C19.9805 14.554 20.0468 14.5333 20.0786 14.5198C20.258 14.4438 20.4008 14.301 20.4768 14.1216C20.4902 14.0898 20.511 14.0236 20.5231 13.8493C20.5357 13.6681 20.5361 13.4311 20.5361 13.0642L20.5361 10.933C20.5361 10.566 20.5357 10.3291 20.5231 10.1479Z" fill="#000000" />
<path fill-rule="evenodd" clip-rule="evenodd" d="M8.76855 5.74834L8.76855 7.92849C8.76856 8.2641 8.76857 8.55368 8.7519 8.79325C8.73435 9.04554 8.69572 9.29776 8.59046 9.54635C8.36254 10.0846 7.93412 10.513 7.39589 10.7409C7.1473 10.8462 6.89508 10.8848 6.64279 10.9024C6.40322 10.919 6.11364 10.919 5.77803 10.919L5.4544 10.919C5.11879 10.919 4.82921 10.919 4.58965 10.9024C4.33735 10.8848 4.08513 10.8462 3.83654 10.7409C3.29831 10.513 2.86989 10.0846 2.64198 9.54635C2.53671 9.29776 2.49808 9.04554 2.48053 8.79325C2.46386 8.55368 2.46387 8.2641 2.46388 7.92849L2.46388 5.74834C2.46387 5.41273 2.46386 5.12315 2.48053 4.88358C2.49808 4.63129 2.53671 4.37906 2.64198 4.13048C2.86989 3.59224 3.29831 3.16382 3.83654 2.93591C4.08513 2.83065 4.33735 2.79202 4.58965 2.77446C4.82921 2.75779 5.11879 2.7578 5.4544 2.75781L5.77803 2.75781C6.11364 2.7578 6.40322 2.75779 6.64279 2.77446C6.89508 2.79202 7.1473 2.83065 7.39589 2.93591C7.93412 3.16382 8.36254 3.59224 8.59046 4.13048C8.69572 4.37906 8.73435 4.63129 8.7519 4.88358C8.76857 5.12315 8.76856 5.41272 8.76855 5.74834ZM7.25552 4.9877C7.24339 4.8134 7.22266 4.74717 7.20919 4.71537C7.13322 4.53596 6.99041 4.39315 6.811 4.31718C6.77919 4.30371 6.71297 4.28297 6.53867 4.27085C6.35744 4.25824 6.12052 4.25781 5.75355 4.25781L5.47888 4.25781C5.11191 4.25781 4.87499 4.25824 4.69377 4.27085C4.51946 4.28297 4.45324 4.30371 4.42143 4.31718C4.24202 4.39315 4.09922 4.53596 4.02324 4.71537C4.00978 4.74717 3.98904 4.8134 3.97691 4.9877C3.9643 5.16893 3.96388 5.40584 3.96388 5.77282L3.96388 7.90401C3.96388 8.27098 3.9643 8.5079 3.97691 8.68913C3.98904 8.86343 4.00978 8.92965 4.02324 8.96146C4.09922 9.14087 4.24202 9.28368 4.42143 9.35965C4.45324 9.37312 4.51946 9.39385 4.69377 9.40598C4.875 9.41859 5.11191 9.41901 5.47888 9.41901L5.75355 9.41901C6.12052 9.41901 6.35744 9.41859 6.53867 9.40598C6.71297 9.39385 6.77919 9.37312 6.811 9.35965C6.99041 9.28368 7.13322 9.14087 7.20919 8.96146C7.22266 8.92965 7.24339 8.86343 7.25552 8.68913C7.26813 8.5079 7.26855 8.27098 7.26855 7.90401L7.26855 5.77281C7.26855 5.40584 7.26813 5.16893 7.25552 4.9877Z" fill="#000000" />
<path fill-rule="evenodd" clip-rule="evenodd" d="M8.76855 16.0686L8.76855 18.2488C8.76856 18.5844 8.76857 18.874 8.7519 19.1136C8.73435 19.3658 8.69572 19.6181 8.59046 19.8667C8.36254 20.4049 7.93412 20.8333 7.39589 21.0612C7.1473 21.1665 6.89508 21.2051 6.64279 21.2227C6.40322 21.2393 6.11364 21.2393 5.77803 21.2393L5.4544 21.2393C5.11879 21.2393 4.82921 21.2393 4.58965 21.2227C4.33735 21.2051 4.08513 21.1665 3.83654 21.0612C3.29831 20.8333 2.86989 20.4049 2.64198 19.8667C2.53671 19.6181 2.49808 19.3659 2.48053 19.1136C2.46386 18.874 2.46387 18.5844 2.46388 18.2488L2.46388 16.0687C2.46387 15.733 2.46386 15.4435 2.48053 15.2039C2.49808 14.9516 2.53671 14.6994 2.64198 14.4508C2.86989 13.9126 3.29831 13.4841 3.83654 13.2562C4.08513 13.151 4.33735 13.1123 4.58965 13.0948C4.82921 13.0781 5.11879 13.0781 5.4544 13.0781L5.77803 13.0781C6.11364 13.0781 6.40322 13.0781 6.64279 13.0948C6.89508 13.1123 7.1473 13.151 7.39589 13.2562C7.93412 13.4841 8.36254 13.9126 8.59046 14.4508C8.69572 14.6994 8.73435 14.9516 8.7519 15.2039C8.76857 15.4435 8.76856 15.733 8.76855 16.0686ZM7.25552 15.308C7.24339 15.1337 7.22266 15.0675 7.20919 15.0357C7.13322 14.8563 6.99041 14.7135 6.811 14.6375C6.77919 14.624 6.71297 14.6033 6.53867 14.5912C6.35744 14.5785 6.12052 14.5781 5.75355 14.5781L5.47888 14.5781C5.11191 14.5781 4.87499 14.5785 4.69377 14.5912C4.51946 14.6033 4.45324 14.624 4.42143 14.6375C4.24202 14.7135 4.09922 14.8563 4.02324 15.0357C4.00978 15.0675 3.98904 15.1337 3.97691 15.308C3.9643 15.4892 3.96388 15.7262 3.96388 16.0931L3.96388 18.2243C3.96388 18.5913 3.9643 18.8282 3.97691 19.0094C3.98904 19.1837 4.00978 19.25 4.02324 19.2818C4.09922 19.4612 4.24202 19.604 4.42143 19.68C4.45324 19.6934 4.51946 19.7142 4.69377 19.7263C4.875 19.7389 5.11191 19.7393 5.47888 19.7393L5.75355 19.7393C6.12052 19.7393 6.35744 19.7389 6.53867 19.7263C6.71297 19.7142 6.77919 19.6934 6.811 19.68C6.99041 19.604 7.13322 19.4612 7.20919 19.2818C7.22266 19.25 7.24339 19.1837 7.25552 19.0094C7.26813 18.8282 7.26855 18.5913 7.26855 18.2243L7.26855 16.0931C7.26855 15.7262 7.26813 15.4892 7.25552 15.308Z" fill="#000000" />
<path fill-rule="evenodd" clip-rule="evenodd" d="M13.2715 9.53281L13.2715 14.4673C13.2715 14.8735 13.2715 15.2164 13.2519 15.4986C13.2313 15.7936 13.1868 16.0776 13.0696 16.3543C12.8113 16.9643 12.3258 17.4498 11.7158 17.7081C11.4392 17.8252 11.1551 17.8698 10.8601 17.8903C10.578 17.91 10.235 17.91 9.82881 17.91L8.01394 17.9097L8.01418 16.4097L9.80348 16.41C9.80352 16.41 9.80344 16.41 9.80348 16.41C10.2417 16.41 10.5322 16.4095 10.756 16.394C10.973 16.3789 11.0711 16.3522 11.1309 16.3268C11.3821 16.2205 11.582 16.0206 11.6884 15.7694C11.7137 15.7095 11.7404 15.6115 11.7555 15.3945C11.7711 15.1706 11.7715 14.8802 11.7715 14.442L11.7715 9.55813C11.7715 9.11986 11.7711 8.82947 11.7555 8.60558C11.7404 8.38862 11.7137 8.29055 11.6884 8.23071C11.582 7.97953 11.3821 7.7796 11.1309 7.67324C11.0711 7.6479 10.973 7.62123 10.756 7.60613C10.5321 7.59055 10.2418 7.59013 9.80348 7.59013L8.01394 7.58984L8.01418 6.08984L9.82881 6.09013C10.235 6.09012 10.578 6.09012 10.8602 6.10975C11.1551 6.13027 11.4392 6.17484 11.7158 6.29197C12.3258 6.55028 12.8113 7.03582 13.0696 7.64582C13.1868 7.92244 13.2313 8.20651 13.2519 8.50146C13.2715 8.78365 13.2715 9.12657 13.2715 9.53281Z" fill="#000000" />
<path fill-rule="evenodd" clip-rule="evenodd" d="M17.1895 12C17.1895 12.4142 16.8537 12.75 16.4395 12.75L12.5547 12.75C12.1405 12.75 11.8047 12.4142 11.8047 12C11.8047 11.5858 12.1405 11.25 12.5547 11.25L16.4395 11.25C16.8537 11.25 17.1895 11.5858 17.1895 12Z" fill="#000000" />
</svg>