<svg width="24px"  height="24px"  viewBox="0 0 25 24" fill="none" xmlns="http://www.w3.org/2000/svg">
<path fill-rule="evenodd" clip-rule="evenodd" d="M11.1595 21.7852H13.3396C13.6752 21.7852 13.9648 21.7852 14.2044 21.7685C14.4567 21.751 14.7089 21.7123 14.9575 21.6071C15.4957 21.3791 15.9241 20.9507 16.152 20.4125C16.2573 20.1639 16.2959 19.9117 16.3135 19.6594C16.3302 19.4198 16.3302 19.1302 16.3301 18.7946V18.471C16.3302 18.1354 16.3302 17.8458 16.3135 17.6062C16.2959 17.354 16.2573 17.1017 16.152 16.8531C15.9241 16.3149 15.4957 15.8865 14.9575 15.6586C14.7089 15.5533 14.4567 15.5147 14.2044 15.4971C13.9648 15.4805 13.6752 15.4805 13.3396 15.4805H11.1595C10.8239 15.4805 10.5343 15.4805 10.2947 15.4971C10.0424 15.5147 9.7902 15.5533 9.54161 15.6586C9.00338 15.8865 8.57496 16.3149 8.34704 16.8531C8.24178 17.1017 8.20315 17.354 8.1856 17.6062C8.16893 17.8458 8.16894 18.1354 8.16895 18.471V18.7946C8.16894 19.1302 8.16893 19.4198 8.1856 19.6594C8.20315 19.9117 8.24178 20.1639 8.34704 20.4125C8.57496 20.9507 9.00338 21.3791 9.54161 21.6071C9.7902 21.7123 10.0424 21.751 10.2947 21.7685C10.5343 21.7852 10.8239 21.7852 11.1595 21.7852ZM10.3988 20.2721C10.2245 20.26 10.1583 20.2393 10.1265 20.2258C9.94709 20.1498 9.80428 20.007 9.72831 19.8276C9.71484 19.7958 9.69411 19.7296 9.68198 19.5553C9.66937 19.374 9.66895 19.1371 9.66895 18.7702V18.4955C9.66895 18.1285 9.66937 17.8916 9.68198 17.7104C9.69411 17.5361 9.71484 17.4698 9.72831 17.438C9.80428 17.2586 9.94709 17.1158 10.1265 17.0398C10.1583 17.0264 10.2245 17.0056 10.3988 16.9935C10.5801 16.9809 10.817 16.9805 11.1839 16.9805H13.3151C13.6821 16.9805 13.919 16.9809 14.1003 16.9935C14.2746 17.0056 14.3408 17.0264 14.3726 17.0398C14.552 17.1158 14.6948 17.2586 14.7708 17.438C14.7842 17.4698 14.805 17.5361 14.8171 17.7104C14.8297 17.8916 14.8301 18.1285 14.8301 18.4955V18.7702C14.8301 19.1371 14.8297 19.374 14.8171 19.5553C14.805 19.7296 14.7842 19.7958 14.7708 19.8276C14.6948 20.007 14.552 20.1498 14.3726 20.2258C14.3408 20.2393 14.2746 20.26 14.1003 20.2721C13.919 20.2847 13.6821 20.2852 13.3151 20.2852H11.1839C10.817 20.2852 10.5801 20.2847 10.3988 20.2721Z" fill="#000000" />
<path fill-rule="evenodd" clip-rule="evenodd" d="M5.99931 8.51953H8.17947C8.51508 8.51954 8.80466 8.51955 9.04422 8.50288C9.29651 8.48533 9.54874 8.4467 9.79733 8.34143C10.3356 8.11352 10.764 7.6851 10.9919 7.14687C11.0972 6.89828 11.1358 6.64605 11.1533 6.39376C11.17 6.1542 11.17 5.86462 11.17 5.52901V5.20538C11.17 4.86977 11.17 4.58019 11.1533 4.34062C11.1358 4.08833 11.0972 3.83611 10.9919 3.58752C10.764 3.04928 10.3356 2.62086 9.79733 2.39295C9.54874 2.28769 9.29651 2.24906 9.04422 2.23151C8.80466 2.21484 8.51508 2.21484 8.17947 2.21485H5.99932C5.6637 2.21484 5.37412 2.21484 5.13456 2.23151C4.88227 2.24906 4.63004 2.28769 4.38145 2.39295C3.84322 2.62086 3.4148 3.04928 3.18689 3.58752C3.08162 3.83611 3.043 4.08833 3.02544 4.34062C3.00877 4.58019 3.00878 4.86977 3.00879 5.20538V5.52901C3.00878 5.86462 3.00877 6.1542 3.02544 6.39376C3.043 6.64605 3.08162 6.89828 3.18689 7.14687C3.4148 7.6851 3.84322 8.11352 4.38145 8.34143C4.63004 8.4467 4.88227 8.48533 5.13456 8.50288C5.37412 8.51955 5.6637 8.51954 5.99931 8.51953ZM5.23868 7.0065C5.06437 6.99437 4.99815 6.97363 4.96634 6.96016C4.78693 6.88419 4.64413 6.74139 4.56816 6.56198C4.55469 6.53017 4.53395 6.46395 4.52182 6.28964C4.50921 6.10841 4.50879 5.8715 4.50879 5.50453V5.22985C4.50879 4.86288 4.50921 4.62597 4.52182 4.44474C4.53395 4.27044 4.55469 4.20422 4.56816 4.17241C4.64413 3.993 4.78693 3.85019 4.96634 3.77422C4.99815 3.76075 5.06437 3.74002 5.23868 3.72789C5.41991 3.71528 5.65682 3.71485 6.02379 3.71485H8.15499C8.52196 3.71485 8.75887 3.71528 8.9401 3.72789C9.11441 3.74002 9.18063 3.76075 9.21244 3.77422C9.39185 3.85019 9.53465 3.993 9.61062 4.17241C9.62409 4.20422 9.64483 4.27044 9.65696 4.44474C9.66957 4.62597 9.66999 4.86289 9.66999 5.22986V5.50453C9.66999 5.8715 9.66957 6.10841 9.65696 6.28964C9.64483 6.46395 9.62409 6.53017 9.61062 6.56198C9.53465 6.74139 9.39185 6.88419 9.21244 6.96016C9.18063 6.97363 9.11441 6.99437 8.9401 7.0065C8.75887 7.01911 8.52196 7.01953 8.15499 7.01953H6.02379C5.65682 7.01953 5.41991 7.01911 5.23868 7.0065Z" fill="#000000" />
<path fill-rule="evenodd" clip-rule="evenodd" d="M16.3196 8.51953H18.4998C18.8354 8.51954 19.125 8.51955 19.3645 8.50288C19.6168 8.48533 19.8691 8.4467 20.1176 8.34143C20.6559 8.11352 21.0843 7.6851 21.3122 7.14687C21.4175 6.89828 21.4561 6.64605 21.4737 6.39376C21.4903 6.1542 21.4903 5.86462 21.4903 5.52901V5.20538C21.4903 4.86977 21.4903 4.58019 21.4737 4.34062C21.4561 4.08833 21.4175 3.83611 21.3122 3.58752C21.0843 3.04928 20.6559 2.62086 20.1176 2.39295C19.8691 2.28769 19.6168 2.24906 19.3645 2.23151C19.125 2.21484 18.8354 2.21484 18.4998 2.21485H16.3196C15.984 2.21484 15.6944 2.21484 15.4549 2.23151C15.2026 2.24906 14.9504 2.28769 14.7018 2.39295C14.1635 2.62086 13.7351 3.04928 13.5072 3.58752C13.4019 3.83611 13.3633 4.08833 13.3458 4.34062C13.3291 4.58019 13.3291 4.86977 13.3291 5.20538V5.52901C13.3291 5.86462 13.3291 6.1542 13.3458 6.39376C13.3633 6.64605 13.4019 6.89828 13.5072 7.14687C13.7351 7.6851 14.1635 8.11352 14.7018 8.34143C14.9504 8.4467 15.2026 8.48533 15.4549 8.50288C15.6944 8.51955 15.984 8.51954 16.3196 8.51953ZM15.559 7.0065C15.3847 6.99437 15.3185 6.97363 15.2867 6.96016C15.1072 6.88419 14.9644 6.74139 14.8885 6.56198C14.875 6.53017 14.8543 6.46395 14.8421 6.28964C14.8295 6.10841 14.8291 5.8715 14.8291 5.50453V5.22985C14.8291 4.86288 14.8295 4.62597 14.8421 4.44474C14.8543 4.27044 14.875 4.20422 14.8885 4.17241C14.9644 3.993 15.1072 3.85019 15.2867 3.77422C15.3185 3.76075 15.3847 3.74002 15.559 3.72789C15.7402 3.71528 15.9771 3.71485 16.3441 3.71485H18.4753C18.8423 3.71485 19.0792 3.71528 19.2604 3.72789C19.4347 3.74002 19.5009 3.76075 19.5327 3.77422C19.7122 3.85019 19.855 3.993 19.9309 4.17241C19.9444 4.20422 19.9651 4.27044 19.9773 4.44474C19.9899 4.62597 19.9903 4.86289 19.9903 5.22986V5.50453C19.9903 5.8715 19.9899 6.10841 19.9773 6.28964C19.9651 6.46395 19.9444 6.53017 19.9309 6.56198C19.855 6.74139 19.7122 6.88419 19.5327 6.96016C19.5009 6.97363 19.4347 6.99437 19.2604 7.0065C19.0792 7.01911 18.8423 7.01953 18.4753 7.01953H16.3441C15.9771 7.01953 15.7402 7.01911 15.559 7.0065Z" fill="#000000" />
<path fill-rule="evenodd" clip-rule="evenodd" d="M9.78281 13.0195H14.7173C15.1235 13.0195 15.4664 13.0195 15.7486 12.9999C16.0436 12.9794 16.3276 12.9348 16.6043 12.8177C17.2143 12.5594 17.6998 12.0738 17.9581 11.4638C18.0752 11.1872 18.1198 10.9031 18.1403 10.6082C18.16 10.326 18.16 9.98309 18.16 9.57686L18.1597 7.76199L16.6597 7.76223L16.66 9.55153C16.66 9.55157 16.66 9.55149 16.66 9.55153C16.66 9.98973 16.6595 10.2802 16.644 10.5041C16.6289 10.721 16.6022 10.8191 16.5768 10.879C16.4705 11.1301 16.2706 11.3301 16.0194 11.4364C15.9595 11.4618 15.8615 11.4884 15.6445 11.5035C15.4206 11.5191 15.1302 11.5195 14.692 11.5195H9.80813C9.36986 11.5195 9.07947 11.5191 8.85558 11.5035C8.63862 11.4884 8.54055 11.4618 8.48071 11.4364C8.22953 11.3301 8.0296 11.1301 7.92324 10.879C7.8979 10.8191 7.87123 10.721 7.85613 10.5041C7.84055 10.2802 7.84013 9.9898 7.84013 9.55153L7.83984 7.76199L6.33984 7.76223L6.34013 9.57686C6.34012 9.98309 6.34012 10.326 6.35975 10.6082C6.38027 10.9031 6.42484 11.1872 6.54198 11.4638C6.80028 12.0738 7.28582 12.5594 7.89582 12.8177C8.17244 12.9348 8.45651 12.9794 8.75146 12.9999C9.03365 13.0195 9.37657 13.0195 9.78281 13.0195Z" fill="#000000" />
<path fill-rule="evenodd" clip-rule="evenodd" d="M12.25 16.9414C12.6642 16.9414 13 16.6056 13 16.1914V12.3067C13 11.8924 12.6642 11.5567 12.25 11.5567C11.8358 11.5567 11.5 11.8924 11.5 12.3067V16.1914C11.5 16.6056 11.8358 16.9414 12.25 16.9414Z" fill="#000000" />
</svg>