<svg width="24px"  height="24px"  viewBox="0 0 25 24" fill="none" xmlns="http://www.w3.org/2000/svg">
<path fill-rule="evenodd" clip-rule="evenodd" d="M2.46387 13.0915L2.46387 10.9114C2.46386 10.5757 2.46385 10.2862 2.48052 10.0466C2.49807 9.79431 2.5367 9.54208 2.64197 9.29349C2.86988 8.75526 3.2983 8.32684 3.83653 8.09893C4.08512 7.99366 4.33734 7.95503 4.58964 7.93748C4.8292 7.92081 5.11878 7.92082 5.45439 7.92083L5.77802 7.92083C6.11363 7.92082 6.40321 7.92081 6.64277 7.93748C6.89507 7.95503 7.14729 7.99366 7.39588 8.09893C7.93411 8.32684 8.36253 8.75526 8.59045 9.29349C8.69571 9.54208 8.73434 9.79431 8.75189 10.0466C8.76856 10.2862 8.76855 10.5757 8.76854 10.9114L8.76854 13.0915C8.76855 13.4271 8.76856 13.7167 8.75189 13.9563C8.73434 14.2086 8.69571 14.4608 8.59045 14.7094C8.36253 15.2476 7.93411 15.676 7.39588 15.9039C7.14729 16.0092 6.89507 16.0478 6.64278 16.0654C6.40321 16.082 6.11363 16.082 5.77802 16.082L5.45439 16.082C5.11878 16.082 4.8292 16.082 4.58964 16.0654C4.33734 16.0478 4.08512 16.0092 3.83653 15.9039C3.2983 15.676 2.86988 15.2476 2.64197 14.7094C2.5367 14.4608 2.49807 14.2086 2.48052 13.9563C2.46385 13.7167 2.46386 13.4271 2.46387 13.0915ZM3.9769 13.8521C3.98903 14.0264 4.00977 14.0927 4.02323 14.1245C4.0992 14.3039 4.24201 14.4467 4.42142 14.5227C4.45323 14.5361 4.51945 14.5569 4.69376 14.569C4.87499 14.5816 5.1119 14.582 5.47887 14.582L5.75354 14.582C6.12051 14.582 6.35743 14.5816 6.53866 14.569C6.71296 14.5569 6.77918 14.5361 6.81099 14.5227C6.9904 14.4467 7.13321 14.3039 7.20918 14.1245C7.22265 14.0927 7.24338 14.0264 7.25551 13.8521C7.26812 13.6709 7.26854 13.434 7.26854 13.067L7.26854 10.9358C7.26854 10.5689 7.26812 10.3319 7.25551 10.1507C7.24338 9.97641 7.22265 9.91019 7.20918 9.87838C7.13321 9.69897 6.9904 9.55617 6.81099 9.4802C6.77918 9.46673 6.71296 9.44599 6.53865 9.43386C6.35743 9.42125 6.12051 9.42083 5.75354 9.42083L5.47887 9.42083C5.1119 9.42083 4.87498 9.42125 4.69376 9.43386C4.51945 9.44599 4.45323 9.46673 4.42142 9.4802C4.24201 9.55617 4.0992 9.69897 4.02323 9.87838C4.00977 9.91019 3.98903 9.97641 3.9769 10.1507C3.96429 10.3319 3.96387 10.5689 3.96387 10.9358L3.96387 13.067C3.96387 13.434 3.96429 13.6709 3.9769 13.8521Z" fill="#000000" />
<path fill-rule="evenodd" clip-rule="evenodd" d="M15.7314 18.2517L15.7314 16.0715C15.7314 15.7359 15.7314 15.4463 15.7481 15.2068C15.7657 14.9545 15.8043 14.7022 15.9095 14.4536C16.1375 13.9154 16.5659 13.487 17.1041 13.2591C17.3527 13.1538 17.6049 13.1152 17.8572 13.0976C18.0968 13.081 18.3864 13.081 18.722 13.081L19.0456 13.081C19.3812 13.081 19.6708 13.081 19.9104 13.0976C20.1626 13.1152 20.4149 13.1538 20.6635 13.2591C21.2017 13.487 21.6301 13.9154 21.858 14.4536C21.9633 14.7022 22.0019 14.9545 22.0195 15.2068C22.0361 15.4463 22.0361 15.7359 22.0361 16.0715L22.0361 18.2517C22.0361 18.5873 22.0361 18.8769 22.0195 19.1164C22.0019 19.3687 21.9633 19.6209 21.858 19.8695C21.6301 20.4078 21.2017 20.8362 20.6635 21.0641C20.4149 21.1694 20.1626 21.208 19.9104 21.2255C19.6708 21.2422 19.3812 21.2422 19.0456 21.2422L18.722 21.2422C18.3864 21.2422 18.0968 21.2422 17.8572 21.2255C17.6049 21.208 17.3527 21.1694 17.1041 21.0641C16.5659 20.8362 16.1375 20.4078 15.9095 19.8695C15.8043 19.6209 15.7657 19.3687 15.7481 19.1164C15.7314 18.8769 15.7314 18.5873 15.7314 18.2517ZM17.2445 19.0123C17.2566 19.1866 17.2773 19.2528 17.2908 19.2846C17.3668 19.464 17.5096 19.6068 17.689 19.6828C17.7208 19.6963 17.787 19.717 17.9613 19.7292C18.1426 19.7418 18.3795 19.7422 18.7464 19.7422L19.0211 19.7422C19.3881 19.7422 19.625 19.7418 19.8062 19.7292C19.9805 19.717 20.0468 19.6963 20.0786 19.6828C20.258 19.6068 20.4008 19.464 20.4768 19.2846C20.4902 19.2528 20.511 19.1866 20.5231 19.0123C20.5357 18.8311 20.5361 18.5942 20.5361 18.2272L20.5361 16.096C20.5361 15.729 20.5357 15.4921 20.5231 15.3109C20.511 15.1366 20.4902 15.0703 20.4768 15.0385C20.4008 14.8591 20.258 14.7163 20.0786 14.6404C20.0468 14.6269 19.9805 14.6061 19.8062 14.594C19.625 14.5814 19.3881 14.581 19.0211 14.581L18.7464 14.581C18.3795 14.581 18.1426 14.5814 17.9613 14.594C17.787 14.6061 17.7208 14.6269 17.689 14.6404C17.5096 14.7163 17.3668 14.8591 17.2908 15.0385C17.2773 15.0703 17.2566 15.1366 17.2445 15.3109C17.2319 15.4921 17.2314 15.729 17.2314 16.096L17.2314 18.2272C17.2314 18.5942 17.2319 18.8311 17.2445 19.0123Z" fill="#000000" />
<path fill-rule="evenodd" clip-rule="evenodd" d="M15.7314 7.93135L15.7314 5.7512C15.7314 5.41559 15.7314 5.12601 15.7481 4.88644C15.7657 4.63415 15.8043 4.38192 15.9095 4.13334C16.1375 3.5951 16.5659 3.16668 17.1041 2.93877C17.3527 2.83351 17.6049 2.79488 17.8572 2.77732C18.0968 2.76065 18.3864 2.76066 18.722 2.76067L19.0456 2.76067C19.3812 2.76066 19.6708 2.76065 19.9104 2.77732C20.1626 2.79488 20.4149 2.83351 20.6635 2.93877C21.2017 3.16668 21.6301 3.5951 21.858 4.13334C21.9633 4.38192 22.0019 4.63415 22.0195 4.88644C22.0361 5.12601 22.0361 5.41558 22.0361 5.7512L22.0361 7.93135C22.0361 8.26696 22.0361 8.55654 22.0195 8.7961C22.0019 9.0484 21.9633 9.30062 21.858 9.54921C21.6301 10.0874 21.2017 10.5159 20.6635 10.7438C20.4149 10.849 20.1626 10.8877 19.9104 10.9052C19.6708 10.9219 19.3812 10.9219 19.0456 10.9219L18.722 10.9219C18.3864 10.9219 18.0968 10.9219 17.8572 10.9052C17.6049 10.8877 17.3527 10.849 17.1041 10.7438C16.5659 10.5159 16.1375 10.0874 15.9095 9.54921C15.8043 9.30062 15.7657 9.0484 15.7481 8.79611C15.7314 8.55654 15.7314 8.26696 15.7314 7.93135ZM17.2445 8.69199C17.2566 8.86629 17.2773 8.93251 17.2908 8.96432C17.3668 9.14373 17.5096 9.28654 17.689 9.36251C17.7208 9.37598 17.787 9.39671 17.9613 9.40884C18.1426 9.42145 18.3795 9.42187 18.7464 9.42187L19.0211 9.42187C19.3881 9.42187 19.625 9.42145 19.8062 9.40884C19.9805 9.39671 20.0468 9.37598 20.0786 9.36251C20.258 9.28654 20.4008 9.14373 20.4768 8.96432C20.4902 8.93251 20.511 8.86629 20.5231 8.69199C20.5357 8.51076 20.5361 8.27384 20.5361 7.90687L20.5361 5.77567C20.5361 5.4087 20.5357 5.17179 20.5231 4.99056C20.511 4.81626 20.4902 4.75003 20.4768 4.71823C20.4008 4.53882 20.258 4.39601 20.0786 4.32004C20.0468 4.30657 19.9805 4.28583 19.8062 4.27371C19.625 4.2611 19.3881 4.26067 19.0211 4.26067L18.7464 4.26067C18.3795 4.26067 18.1426 4.2611 17.9613 4.27371C17.787 4.28583 17.7208 4.30657 17.689 4.32004C17.5096 4.39601 17.3668 4.53882 17.2908 4.71823C17.2773 4.75003 17.2566 4.81626 17.2445 4.99056C17.2319 5.17179 17.2314 5.4087 17.2314 5.77568L17.2314 7.90687C17.2314 8.27384 17.2319 8.51076 17.2445 8.69199Z" fill="#000000" />
<path fill-rule="evenodd" clip-rule="evenodd" d="M11.2285 14.4672L11.2285 9.53272C11.2285 9.12649 11.2285 8.78356 11.2481 8.50138C11.2687 8.20643 11.3132 7.92236 11.4304 7.64573C11.6887 7.03573 12.1742 6.55019 12.7842 6.29189C13.0608 6.17475 13.3449 6.13019 13.6398 6.10966C13.922 6.09003 14.265 6.09004 14.6712 6.09004L16.4861 6.09033L16.4858 7.59033L14.6965 7.59004C14.6965 7.59004 14.6966 7.59004 14.6965 7.59004C14.2583 7.59004 13.9678 7.59047 13.744 7.60604C13.527 7.62114 13.4289 7.64781 13.3691 7.67316C13.1179 7.77952 12.918 7.97944 12.8116 8.23062C12.7863 8.29047 12.7596 8.38853 12.7445 8.6055C12.7289 8.82939 12.7285 9.11977 12.7285 9.55804L12.7285 14.4419C12.7285 14.8801 12.7289 15.1705 12.7445 15.3944C12.7596 15.6114 12.7863 15.7094 12.8116 15.7693C12.918 16.0205 13.1179 16.2204 13.3691 16.3268C13.4289 16.3521 13.527 16.3788 13.744 16.3939C13.9679 16.4094 14.2582 16.4099 14.6965 16.4099L16.4861 16.4102L16.4858 17.9102L14.6712 17.9099C14.265 17.9099 13.922 17.9099 13.6398 17.8903C13.3449 17.8697 13.0608 17.8252 12.7842 17.708C12.1742 17.4497 11.6887 16.9642 11.4304 16.3542C11.3132 16.0776 11.2687 15.7935 11.2481 15.4985C11.2285 15.2164 11.2285 14.8734 11.2285 14.4672Z" fill="#000000" />
<path fill-rule="evenodd" clip-rule="evenodd" d="M7.31055 12C7.31055 11.5858 7.64633 11.25 8.06055 11.25L11.9453 11.25C12.3595 11.25 12.6953 11.5858 12.6953 12C12.6953 12.4142 12.3595 12.75 11.9453 12.75L8.06055 12.75C7.64633 12.75 7.31055 12.4142 7.31055 12Z" fill="#000000" />
</svg>