<svg width="24px"  height="24px"  viewBox="0 0 25 24" fill="none" xmlns="http://www.w3.org/2000/svg">
<path fill-rule="evenodd" clip-rule="evenodd" d="M3.99076 3.89729C4.97547 2.84115 6.37768 2.25 8.03313 2.25H16.4678C18.1272 2.25 19.5296 2.84086 20.5134 3.89773C21.4916 4.94853 22 6.39899 22 8.02638V15.9736C22 17.601 21.4916 19.0515 20.5133 20.1023C19.5293 21.1592 18.1266 21.75 16.4669 21.75H8.03313C6.37379 21.75 4.97117 21.1592 3.98714 20.1024C3.00872 19.0516 2.5 17.6011 2.5 15.9736V8.02638C2.5 6.39795 3.01147 4.9476 3.99076 3.89729ZM5.08786 4.9202C4.41042 5.64678 4 6.70962 4 8.02638V15.9736C4 17.2913 4.40879 18.354 5.08492 19.0802C5.75542 19.8003 6.74437 20.25 8.03313 20.25H16.4669C17.7562 20.25 18.7451 19.8002 19.4154 19.0802C20.0914 18.3541 20.5 17.2914 20.5 15.9736V8.02638C20.5 6.70857 20.0914 5.64585 19.4155 4.91976C18.7452 4.19973 17.7566 3.75 16.4678 3.75H8.03313C6.74924 3.75 5.75988 4.19944 5.08786 4.9202Z" fill="#000000" />
<path fill-rule="evenodd" clip-rule="evenodd" d="M10.2498 14.9336C9.75564 14.9336 9.35547 15.334 9.35547 15.8269C9.35547 16.3205 9.75622 16.7213 10.2498 16.7213C10.7434 16.7213 11.1441 16.3205 11.1441 15.8269C11.1441 15.334 10.7439 14.9336 10.2498 14.9336ZM7.85547 15.8269C7.85547 14.5044 8.92837 13.4336 10.2498 13.4336C11.5712 13.4336 12.6441 14.5044 12.6441 15.8269C12.6441 17.1489 11.5718 18.2213 10.2498 18.2213C8.9278 18.2213 7.85547 17.1489 7.85547 15.8269Z" fill="#000000" />
<path fill-rule="evenodd" clip-rule="evenodd" d="M10.2498 7.81641C9.75564 7.81641 9.35547 8.21677 9.35547 8.70976C9.35547 9.20333 9.75622 9.60408 10.2498 9.60408C10.7434 9.60408 11.1441 9.20333 11.1441 8.70976C11.1441 8.21677 10.7439 7.81641 10.2498 7.81641ZM7.85547 8.70976C7.85547 7.38718 8.92837 6.31641 10.2498 6.31641C11.5712 6.31641 12.6441 7.38718 12.6441 8.70976C12.6441 10.0318 11.5718 11.1041 10.2498 11.1041C8.9278 11.1041 7.85547 10.0318 7.85547 8.70976Z" fill="#000000" />
<path fill-rule="evenodd" clip-rule="evenodd" d="M14.9926 12.3306C14.9275 12.4547 14.8906 12.596 14.8906 12.7459C14.8906 13.2389 15.2908 13.6392 15.785 13.6392C16.2791 13.6392 16.6793 13.2389 16.6793 12.7459C16.6793 12.2516 16.2788 11.8516 15.785 11.8516C15.5237 11.8516 15.2886 11.9635 15.1251 12.1421C15.0918 12.2098 15.0476 12.2735 14.9926 12.3306ZM13.8297 11.3635C14.2635 10.751 14.9778 10.3516 15.785 10.3516C17.1067 10.3516 18.1793 11.4226 18.1793 12.7459C18.1793 14.0685 17.1064 15.1392 15.785 15.1392C14.4635 15.1392 13.3906 14.0685 13.3906 12.7459C13.3906 12.2343 13.551 11.7604 13.824 11.3715C13.8259 11.3688 13.8278 11.3661 13.8297 11.3635Z" fill="#000000" />
<path fill-rule="evenodd" clip-rule="evenodd" d="M6.4618 6.09569C6.70239 5.75851 7.17076 5.6802 7.50794 5.92079L9.30794 7.20511C9.64512 7.44569 9.72343 7.91407 9.48285 8.25125C9.24226 8.58843 8.77389 8.66674 8.43671 8.42616L6.63671 7.14183C6.29953 6.90125 6.22122 6.43287 6.4618 6.09569Z" fill="#000000" />
<path fill-rule="evenodd" clip-rule="evenodd" d="M10.25 9.60547C10.6642 9.60547 11 9.94126 11 10.3555V14.1827C11 14.5969 10.6642 14.9327 10.25 14.9327C9.83579 14.9327 9.5 14.5969 9.5 14.1827V10.3555C9.5 9.94126 9.83579 9.60547 10.25 9.60547Z" fill="#000000" />
<path fill-rule="evenodd" clip-rule="evenodd" d="M10.9328 9.29058C11.1736 8.95356 11.6421 8.87558 11.9791 9.1164L14.8766 11.1869C15.2136 11.4277 15.2916 11.8961 15.0508 12.2332C14.8099 12.5702 14.3415 12.6481 14.0045 12.4073L11.107 10.3368C10.77 10.096 10.692 9.62759 10.9328 9.29058Z" fill="#000000" />
</svg>