<svg width="24px"  height="24px"  viewBox="0 0 25 24" fill="none" xmlns="http://www.w3.org/2000/svg">
<path fill-rule="evenodd" clip-rule="evenodd" d="M7.5417 15.8047C6.59025 15.8047 5.81836 16.5766 5.81836 17.528C5.81836 18.4795 6.59025 19.2514 7.5417 19.2514C8.49314 19.2514 9.26503 18.4795 9.26503 17.528C9.26503 16.5766 8.49314 15.8047 7.5417 15.8047ZM4.31836 17.528C4.31836 15.7482 5.76183 14.3047 7.5417 14.3047C9.32157 14.3047 10.765 15.7482 10.765 17.528C10.765 19.3079 9.32157 20.7514 7.5417 20.7514C5.76183 20.7514 4.31836 19.3079 4.31836 17.528Z" fill="#000000" />
<path fill-rule="evenodd" clip-rule="evenodd" d="M16.9597 15.8047C16.0082 15.8047 15.2363 16.5766 15.2363 17.528C15.2363 18.4795 16.0082 19.2514 16.9597 19.2514C17.9111 19.2514 18.683 18.4795 18.683 17.528C18.683 16.5766 17.9111 15.8047 16.9597 15.8047ZM13.7363 17.528C13.7363 15.7482 15.1798 14.3047 16.9597 14.3047C18.7395 14.3047 20.183 15.7482 20.183 17.528C20.183 19.3079 18.7395 20.7514 16.9597 20.7514C15.1798 20.7514 13.7363 19.3079 13.7363 17.528Z" fill="#000000" />
<path fill-rule="evenodd" clip-rule="evenodd" d="M7.5417 4.75C6.59025 4.75 5.81836 5.52189 5.81836 6.47334C5.81836 7.42478 6.59025 8.19667 7.5417 8.19667C8.49314 8.19667 9.26503 7.42478 9.26503 6.47334C9.26503 5.52189 8.49314 4.75 7.5417 4.75ZM4.31836 6.47334C4.31836 4.69347 5.76183 3.25 7.5417 3.25C9.32157 3.25 10.765 4.69347 10.765 6.47334C10.765 8.25321 9.32157 9.69667 7.5417 9.69667C5.76183 9.69667 4.31836 8.25321 4.31836 6.47334Z" fill="#000000" />
<path fill-rule="evenodd" clip-rule="evenodd" d="M7.54102 8.19531C7.95523 8.19531 8.29102 8.5311 8.29102 8.94531V15.052C8.29102 15.4662 7.95523 15.802 7.54102 15.802C7.1268 15.802 6.79102 15.4662 6.79102 15.052V8.94531C6.79102 8.5311 7.1268 8.19531 7.54102 8.19531Z" fill="#000000" />
<path fill-rule="evenodd" clip-rule="evenodd" d="M11.9805 6.13281C11.9805 5.7186 12.3163 5.38281 12.7305 5.38281H14.9314C16.4541 5.38281 17.6881 6.61683 17.6881 8.13958V15.0513C17.6881 15.4655 17.3523 15.8013 16.9381 15.8013C16.5239 15.8013 16.1881 15.4655 16.1881 15.0513V8.13958C16.1881 7.44526 15.6257 6.88281 14.9314 6.88281H12.7305C12.3163 6.88281 11.9805 6.54703 11.9805 6.13281Z" fill="#000000" />
</svg>