<svg width="24px"  height="24px"  viewBox="0 0 25 24" fill="none" xmlns="http://www.w3.org/2000/svg">
<path fill-rule="evenodd" clip-rule="evenodd" d="M7.5417 8.19531C6.59025 8.19531 5.81836 7.42342 5.81836 6.47198C5.81836 5.52053 6.59025 4.74864 7.5417 4.74864C8.49314 4.74864 9.26503 5.52053 9.26503 6.47198C9.26503 7.42342 8.49314 8.19531 7.5417 8.19531ZM4.31836 6.47198C4.31836 8.25185 5.76183 9.69531 7.5417 9.69531C9.32157 9.69531 10.765 8.25185 10.765 6.47198C10.765 4.6921 9.32157 3.24864 7.5417 3.24864C5.76183 3.24864 4.31836 4.6921 4.31836 6.47198Z" fill="#000000" />
<path fill-rule="evenodd" clip-rule="evenodd" d="M7.5417 19.25C6.59025 19.25 5.81836 18.4781 5.81836 17.5267C5.81836 16.5752 6.59025 15.8033 7.5417 15.8033C8.49314 15.8033 9.26503 16.5752 9.26503 17.5267C9.26503 18.4781 8.49314 19.25 7.5417 19.25ZM4.31836 17.5267C4.31836 19.3065 5.76183 20.75 7.5417 20.75C9.32157 20.75 10.765 19.3065 10.765 17.5267C10.765 15.7468 9.32157 14.3033 7.5417 14.3033C5.76183 14.3033 4.31836 15.7468 4.31836 17.5267Z" fill="#000000" />
<path fill-rule="evenodd" clip-rule="evenodd" d="M16.9597 19.25C16.0082 19.25 15.2363 18.4781 15.2363 17.5267C15.2363 16.5752 16.0082 15.8033 16.9597 15.8033C17.9111 15.8033 18.683 16.5752 18.683 17.5267C18.683 18.4781 17.9111 19.25 16.9597 19.25ZM13.7363 17.5267C13.7363 19.3065 15.1798 20.75 16.9597 20.75C18.7395 20.75 20.183 19.3065 20.183 17.5267C20.183 15.7468 18.7395 14.3033 16.9597 14.3033C15.1798 14.3033 13.7363 15.7468 13.7363 17.5267Z" fill="#000000" />
<path fill-rule="evenodd" clip-rule="evenodd" d="M7.54102 15.8047C7.95523 15.8047 8.29102 15.4689 8.29102 15.0547V8.94804C8.29102 8.53382 7.95523 8.19804 7.54102 8.19804C7.1268 8.19804 6.79102 8.53382 6.79102 8.94804V15.0547C6.79102 15.4689 7.1268 15.8047 7.54102 15.8047Z" fill="#000000" />
<path fill-rule="evenodd" clip-rule="evenodd" d="M16.9776 15.8047C17.3918 15.8047 17.7276 15.4689 17.7276 15.0547V13.8849C17.7276 12.3628 16.4934 11.1289 14.9709 11.1289H7.53809C7.12387 11.1289 6.78809 11.4647 6.78809 11.8789C6.78809 12.2932 7.12387 12.6289 7.53809 12.6289H14.9709C15.6654 12.6289 16.2276 13.1916 16.2276 13.8849V15.0547C16.2276 15.4689 16.5634 15.8047 16.9776 15.8047Z" fill="#000000" />
</svg>