<svg width="24px"  height="24px"  viewBox="0 0 25 24" fill="none" xmlns="http://www.w3.org/2000/svg">
<path fill-rule="evenodd" clip-rule="evenodd" d="M6.84816 5.1875C5.8278 5.1875 5 6.0153 5 7.03566C5 8.05602 5.8278 8.88382 6.84816 8.88382C7.86852 8.88382 8.69632 8.05602 8.69632 7.03566C8.69632 6.0153 7.86852 5.1875 6.84816 5.1875ZM3.5 7.03566C3.5 5.18687 4.99937 3.6875 6.84816 3.6875C8.69695 3.6875 10.1963 5.18687 10.1963 7.03566C10.1963 8.88445 8.69695 10.3838 6.84816 10.3838C4.99937 10.3838 3.5 8.88445 3.5 7.03566Z" fill="#000000" />
<path fill-rule="evenodd" clip-rule="evenodd" d="M17.6519 15.1133C16.6315 15.1133 15.8037 15.9411 15.8037 16.9614C15.8037 17.9818 16.6315 18.8096 17.6519 18.8096C18.6722 18.8096 19.5 17.9818 19.5 16.9614C19.5 15.9411 18.6722 15.1133 17.6519 15.1133ZM14.3037 16.9614C14.3037 15.1127 15.8031 13.6133 17.6519 13.6133C19.5007 13.6133 21 15.1127 21 16.9614C21 18.8102 19.5007 20.3096 17.6519 20.3096C15.8031 20.3096 14.3037 18.8102 14.3037 16.9614Z" fill="#000000" />
<path fill-rule="evenodd" clip-rule="evenodd" d="M6.84786 8.88672C7.26208 8.88673 7.59786 9.22252 7.59785 9.63673L7.59766 19.5621C7.59765 19.9763 7.26186 20.3121 6.84764 20.3121C6.43343 20.3121 6.09765 19.9763 6.09766 19.5621L6.09785 9.6367C6.09786 9.22249 6.43365 8.88671 6.84786 8.88672Z" fill="#000000" />
<path fill-rule="evenodd" clip-rule="evenodd" d="M12.1074 7.0625C12.1074 6.64829 12.4432 6.3125 12.8574 6.3125H15.7105C17.197 6.3125 18.4022 7.51762 18.4022 9.00419V14.2998C18.4022 14.714 18.0664 15.0498 17.6522 15.0498C17.238 15.0498 16.9022 14.714 16.9022 14.2998V9.00419C16.9022 8.34605 16.3686 7.8125 15.7105 7.8125H12.8574C12.4432 7.8125 12.1074 7.47671 12.1074 7.0625Z" fill="#000000" />
</svg>