<svg width="24px"  height="24px"  viewBox="0 0 25 24" fill="none" xmlns="http://www.w3.org/2000/svg">
<path fill-rule="evenodd" clip-rule="evenodd" d="M5.375 9.375C5.375 8.96079 5.71079 8.625 6.125 8.625H18.375C18.7892 8.625 19.125 8.96079 19.125 9.375C19.125 9.78921 18.7892 10.125 18.375 10.125H6.125C5.71079 10.125 5.375 9.78921 5.375 9.375ZM5.375 14.625C5.375 14.2108 5.71079 13.875 6.125 13.875H18.375C18.7892 13.875 19.125 14.2108 19.125 14.625C19.125 15.0392 18.7892 15.375 18.375 15.375H6.125C5.71079 15.375 5.375 15.0392 5.375 14.625Z" fill="#000000" />
<path fill-rule="evenodd" clip-rule="evenodd" d="M10.4603 4.25587C10.8713 4.30725 11.1629 4.68209 11.1115 5.09311L9.36147 19.0931C9.3101 19.5041 8.93526 19.7957 8.52424 19.7443C8.11323 19.6929 7.82168 19.3181 7.87306 18.9071L9.62306 4.90705C9.67443 4.49604 10.0493 4.20449 10.4603 4.25587ZM15.9754 4.25587C16.3864 4.30725 16.6779 4.68209 16.6266 5.09311L14.8766 19.0931C14.8252 19.5041 14.4503 19.7957 14.0393 19.7443C13.6283 19.6929 13.3368 19.3181 13.3881 18.9071L15.1381 4.90705C15.1895 4.49604 15.5644 4.20449 15.9754 4.25587Z" fill="#000000" />
</svg>