<svg width="24px"  height="24px"  viewBox="0 0 25 24" fill="none" xmlns="http://www.w3.org/2000/svg">
<path fill-rule="evenodd" clip-rule="evenodd" d="M3.99076 3.89729C4.97547 2.84115 6.37768 2.25 8.03313 2.25H16.4678C18.1272 2.25 19.5296 2.84086 20.5134 3.89773C21.4916 4.94853 22 6.39899 22 8.02638V15.9736C22 17.601 21.4916 19.0515 20.5133 20.1023C19.5293 21.1592 18.1266 21.75 16.4669 21.75H8.03313C6.37379 21.75 4.97117 21.1592 3.98714 20.1024C3.00872 19.0516 2.5 17.6011 2.5 15.9736V8.02638C2.5 6.39795 3.01147 4.9476 3.99076 3.89729ZM5.08786 4.9202C4.41042 5.64678 4 6.70962 4 8.02638V15.9736C4 17.2913 4.40879 18.354 5.08492 19.0802C5.75542 19.8003 6.74437 20.25 8.03313 20.25H16.4669C17.7562 20.25 18.7451 19.8002 19.4154 19.0802C20.0914 18.3541 20.5 17.2914 20.5 15.9736V8.02638C20.5 6.70857 20.0914 5.64585 19.4155 4.91976C18.7452 4.19973 17.7566 3.75 16.4678 3.75H8.03313C6.74924 3.75 5.75988 4.19944 5.08786 4.9202Z" fill="#000000" />
<path fill-rule="evenodd" clip-rule="evenodd" d="M10.2297 8.42545C10.4909 8.74689 10.4421 9.21925 10.1207 9.48049C9.35206 10.1051 8.86328 11.0492 8.86328 12.1132C8.86328 13.9843 10.3789 15.4993 12.2494 15.4993C14.1207 15.4993 15.6355 13.9845 15.6355 12.1132C15.6355 11.0492 15.1467 10.1049 14.3788 9.48025C14.0575 9.21885 14.0089 8.74647 14.2703 8.42515C14.5317 8.10384 15.0041 8.05527 15.3254 8.31667C16.4256 9.21176 17.1355 10.5754 17.1355 12.1132C17.1355 14.8129 14.9491 16.9993 12.2494 16.9993C9.55075 16.9993 7.36328 14.813 7.36328 12.1132C7.36328 10.5754 8.0732 9.21157 9.17465 8.31643C9.49609 8.05519 9.96845 8.104 10.2297 8.42545Z" fill="#000000" />
<path fill-rule="evenodd" clip-rule="evenodd" d="M12.25 7C12.6642 7 13 7.33579 13 7.75V11.3539C13 11.7681 12.6642 12.1039 12.25 12.1039C11.8358 12.1039 11.5 11.7681 11.5 11.3539V7.75C11.5 7.33579 11.8358 7 12.25 7Z" fill="#000000" />
</svg>