<svg width="24px"  height="24px"  viewBox="0 0 25 24" fill="none" xmlns="http://www.w3.org/2000/svg">
<path fill-rule="evenodd" clip-rule="evenodd" d="M3.9902 3.89693C4.97471 2.84084 6.37671 2.25 8.03204 2.25H16.4665C18.1257 2.25 19.5283 2.84052 20.5124 3.89721C21.4908 4.94787 21.9995 6.39836 21.9995 8.02625V15.9733C21.9995 17.6007 21.4908 19.0512 20.5123 20.102C19.5281 21.1587 18.1253 21.7495 16.4655 21.7495H8.03204C6.37272 21.7495 4.97033 21.1587 3.98654 20.1018C3.00841 19.0511 2.5 17.6006 2.5 15.9733V8.02625C2.5 6.39753 3.01113 4.94717 3.9902 3.89693ZM5.08738 4.91976C4.41026 5.64611 4 6.70888 4 8.02625V15.9733C4 17.291 4.4086 18.3537 5.08447 19.0798C5.7547 19.7998 6.74333 20.2495 8.03204 20.2495H16.4655C17.7548 20.2495 18.744 19.7997 19.4146 19.0797C20.0908 18.3536 20.4995 17.2909 20.4995 15.9733V8.02625C20.4995 6.70805 20.0907 5.64541 19.4147 4.91947C18.7442 4.19956 17.7553 3.75 16.4665 3.75H8.03204C6.74809 3.75 5.75907 4.19924 5.08738 4.91976Z" fill="#000000" />
<path fill-rule="evenodd" clip-rule="evenodd" d="M5.78906 6.55078C5.78906 6.13657 6.12485 5.80078 6.53906 5.80078H6.54906C6.96328 5.80078 7.29906 6.13657 7.29906 6.55078C7.29906 6.96499 6.96328 7.30078 6.54906 7.30078H6.53906C6.12485 7.30078 5.78906 6.96499 5.78906 6.55078ZM8.2753 6.55078C8.2753 6.13657 8.61108 5.80078 9.0253 5.80078H9.0353C9.44951 5.80078 9.7853 6.13657 9.7853 6.55078C9.7853 6.96499 9.44951 7.30078 9.0353 7.30078H9.0253C8.61108 7.30078 8.2753 6.96499 8.2753 6.55078ZM10.7611 6.55078C10.7611 6.13657 11.0969 5.80078 11.5111 5.80078H11.5211C11.9354 5.80078 12.2711 6.13657 12.2711 6.55078C12.2711 6.96499 11.9354 7.30078 11.5211 7.30078H11.5111C11.0969 7.30078 10.7611 6.96499 10.7611 6.55078Z" fill="#000000" />
<path fill-rule="evenodd" clip-rule="evenodd" d="M2.5 9.49219C2.5 9.07797 2.83579 8.74219 3.25 8.74219H21.2495C21.6637 8.74219 21.9995 9.07797 21.9995 9.49219C21.9995 9.9064 21.6637 10.2422 21.2495 10.2422H3.25C2.83579 10.2422 2.5 9.9064 2.5 9.49219Z" fill="#000000" />
<path fill-rule="evenodd" clip-rule="evenodd" d="M10.9614 12.5869C11.2543 12.8798 11.2543 13.3546 10.9614 13.6475L9.49634 15.1126L10.9613 16.5768C11.2542 16.8696 11.2543 17.3445 10.9615 17.6374C10.6687 17.9304 10.1938 17.9305 9.90086 17.6377L7.90535 15.6432C7.76464 15.5025 7.68557 15.3117 7.68555 15.1128C7.68552 14.9139 7.76454 14.723 7.90522 14.5824L9.90073 12.5869C10.1936 12.294 10.6685 12.294 10.9614 12.5869Z" fill="#000000" />
<path fill-rule="evenodd" clip-rule="evenodd" d="M13.538 12.5869C13.8309 12.294 14.3058 12.294 14.5987 12.5869L16.5942 14.5824C16.7349 14.723 16.8139 14.9139 16.8139 15.1128C16.8139 15.3117 16.7348 15.5025 16.5941 15.6432L14.5986 17.6377C14.3056 17.9305 13.8307 17.9304 13.5379 17.6374C13.2451 17.3445 13.2452 16.8696 13.5382 16.5768L15.0031 15.1126L13.538 13.6475C13.2451 13.3546 13.2451 12.8798 13.538 12.5869Z" fill="#000000" />
</svg>