<svg width="24px"  height="24px"  viewBox="0 0 25 24" fill="none" xmlns="http://www.w3.org/2000/svg">
<path fill-rule="evenodd" clip-rule="evenodd" d="M8.40625 13.1038C8.40625 10.9819 10.1267 9.26172 12.2493 9.26172C13.2227 9.26172 14.114 9.6237 14.7923 10.2234C14.9784 10.3879 15.071 10.634 15.0394 10.8804C15.0079 11.1268 14.8564 11.3417 14.6348 11.4541L13.1121 12.2266C12.7427 12.414 12.2914 12.2665 12.1039 11.8971C11.9165 11.5277 12.0641 11.0763 12.4335 10.8889L12.6254 10.7916C12.503 10.7719 12.3774 10.7617 12.2493 10.7617C10.9549 10.7617 9.90625 11.8106 9.90625 13.1038C9.90625 13.518 9.57046 13.8538 9.15625 13.8538C8.74204 13.8538 8.40625 13.518 8.40625 13.1038Z" fill="#000000" />
<path fill-rule="evenodd" clip-rule="evenodd" d="M15.3424 12.3555C15.7566 12.3555 16.0924 12.6913 16.0924 13.1055C16.0924 15.2282 14.372 16.9485 12.2493 16.9485C11.2753 16.9485 10.3844 16.5852 9.70692 15.9874C9.52053 15.823 9.42773 15.5768 9.45915 15.3302C9.49057 15.0837 9.64212 14.8687 9.8638 14.7562L11.3865 13.9837C11.7559 13.7962 12.2073 13.9438 12.3947 14.3132C12.5821 14.6826 12.4346 15.1339 12.0652 15.3213L11.8734 15.4186C11.9957 15.4383 12.1213 15.4485 12.2493 15.4485C13.5436 15.4485 14.5924 14.3998 14.5924 13.1055C14.5924 12.6913 14.9282 12.3555 15.3424 12.3555Z" fill="#000000" />
<path fill-rule="evenodd" clip-rule="evenodd" d="M10.3031 4.88672C9.7631 4.88672 9.26704 5.17974 9.00577 5.65247C8.86941 5.89892 8.72267 6.15601 8.58439 6.3802C8.45464 6.59056 8.3045 6.81833 8.16229 6.97498L8.14976 6.98846C7.67544 7.48587 7.02718 7.7779 6.34163 7.80505C6.33174 7.80544 6.32184 7.80564 6.31195 7.80564C5.03578 7.80564 4.00168 8.83829 4 10.1142V15.756C4 17.61 5.50239 19.1129 7.35595 19.1129H17.1441C18.9968 19.1129 20.5 17.6099 20.5 15.756V10.1117C20.5 8.83493 19.4649 7.7998 18.1881 7.7998C18.1791 7.7998 18.1702 7.79964 18.1613 7.79932C17.4733 7.7748 16.8233 7.48074 16.3502 6.98453L16.3384 6.97191C16.196 6.81547 16.0501 6.5915 15.9255 6.38592C15.7927 6.16664 15.6531 5.91561 15.5233 5.67244C15.2637 5.18803 14.7619 4.88672 14.2154 4.88672H10.3031ZM7.69311 4.92658C8.21806 3.97702 9.21638 3.38672 10.3031 3.38672H14.2154C15.3189 3.38672 16.327 3.99591 16.8459 4.96484C16.969 5.1954 17.0949 5.42133 17.2084 5.60865C17.3252 5.80142 17.4051 5.91339 17.4429 5.95681C17.6438 6.16377 17.9165 6.28678 18.2038 6.29983C20.3018 6.30832 22 8.01176 22 10.1117V15.756C22 18.4381 19.8254 20.6129 17.1441 20.6129H7.35595C4.6735 20.6129 2.5 18.4379 2.5 15.756V10.1137C2.50242 8.01547 4.1987 6.31508 6.29447 6.30568C6.58352 6.29116 6.85549 6.1682 7.05679 5.96099C7.09863 5.91291 7.18396 5.79336 7.30772 5.59273C7.42825 5.39732 7.56191 5.1637 7.69311 4.92658Z" fill="#000000" />
</svg>