<svg width="24px"  height="24px"  viewBox="0 0 25 24" fill="none" xmlns="http://www.w3.org/2000/svg">
<path fill-rule="evenodd" clip-rule="evenodd" d="M16.1465 7.14844C16.1465 6.73422 16.4823 6.39844 16.8965 6.39844H21.125C21.5392 6.39844 21.875 6.73422 21.875 7.14844C21.875 7.56265 21.5392 7.89844 21.125 7.89844H16.8965C16.4823 7.89844 16.1465 7.56265 16.1465 7.14844Z" fill="#000000" />
<path fill-rule="evenodd" clip-rule="evenodd" d="M19.0137 4.28516C19.4279 4.28516 19.7637 4.62094 19.7637 5.03516V9.2637C19.7637 9.67791 19.4279 10.0137 19.0137 10.0137C18.5995 10.0137 18.2637 9.67791 18.2637 9.2637V5.03516C18.2637 4.62094 18.5995 4.28516 19.0137 4.28516Z" fill="#000000" />
<path fill-rule="evenodd" clip-rule="evenodd" d="M10.3031 4.88672C9.76465 4.88672 9.2675 5.18018 9.00597 5.65213C8.8696 5.89994 8.72303 6.15672 8.58459 6.38095C8.45421 6.59214 8.30451 6.81853 8.16351 6.97462C8.15876 6.97987 8.15394 6.98505 8.14905 6.99017C7.67495 7.486 7.02707 7.7779 6.34163 7.80505C6.33174 7.80544 6.32184 7.80564 6.31195 7.80564C5.0366 7.80564 4.00168 8.83844 4 10.1142V15.7569C4 17.6099 5.50227 19.1129 7.35595 19.1129H17.1441C18.9977 19.1129 20.5 17.6099 20.5 15.7569V12.0596C20.5 11.6454 20.8358 11.3096 21.25 11.3096C21.6642 11.3096 22 11.6454 22 12.0596V15.7569C22 18.4381 19.8264 20.6129 17.1441 20.6129H7.35595C4.67362 20.6129 2.5 18.4381 2.5 15.7569V10.1137C2.50242 8.01532 4.19981 6.31508 6.29447 6.30568C6.58314 6.29118 6.85502 6.16851 7.05644 5.96229C7.09965 5.91223 7.18555 5.79169 7.30825 5.59295C7.4287 5.39785 7.56215 5.1646 7.69225 4.92815L7.69314 4.92653C8.21788 3.97836 9.21692 3.38672 10.3031 3.38672H14.2154C14.6296 3.38672 14.9654 3.72251 14.9654 4.13672C14.9654 4.55093 14.6296 4.88672 14.2154 4.88672H10.3031Z" fill="#000000" />
<path fill-rule="evenodd" clip-rule="evenodd" d="M8.4082 13.1048C8.4082 10.9832 10.1284 9.26172 12.2513 9.26172C14.3742 9.26172 16.0944 10.9832 16.0944 13.1048C16.0944 15.2276 14.374 16.9479 12.2513 16.9479C10.1285 16.9479 8.4082 15.2276 8.4082 13.1048ZM12.2513 10.7617C10.9571 10.7617 9.9082 11.8113 9.9082 13.1048C9.9082 14.3991 10.957 15.4479 12.2513 15.4479C13.5456 15.4479 14.5944 14.3991 14.5944 13.1048C14.5944 11.8113 13.5455 10.7617 12.2513 10.7617Z" fill="#000000" />
</svg>