<svg width="24px"  height="24px"  viewBox="0 0 25 24" fill="none" xmlns="http://www.w3.org/2000/svg">
<path fill-rule="evenodd" clip-rule="evenodd" d="M12.6179 7.43884C12.9818 7.63664 13.1165 8.09201 12.9187 8.45595L11.3999 11.2504H14.3594C14.624 11.2504 14.8691 11.3898 15.0042 11.6173C15.1394 11.8448 15.1446 12.1267 15.0181 12.3591L12.8951 16.2578C12.697 16.6215 12.2415 16.7559 11.8777 16.5578C11.5139 16.3597 11.3796 15.9042 11.5777 15.5404L13.097 12.7504H10.1387C9.87417 12.7504 9.62923 12.6111 9.49404 12.3837C9.35885 12.1564 9.3534 11.8746 9.47971 11.6422L11.6008 7.73965C11.7986 7.37572 12.254 7.24104 12.6179 7.43884Z" fill="#000000" />
<path fill-rule="evenodd" clip-rule="evenodd" d="M12.25 3.75C7.69335 3.75 4 7.44421 4 12C4 16.5567 7.69329 20.25 12.25 20.25C16.8067 20.25 20.5 16.5567 20.5 12C20.5 7.44421 16.8067 3.75 12.25 3.75ZM2.5 12C2.5 6.61589 6.86481 2.25 12.25 2.25C17.6352 2.25 22 6.61589 22 12C22 17.3851 17.6351 21.75 12.25 21.75C6.86487 21.75 2.5 17.3851 2.5 12Z" fill="#000000" />
</svg>