<svg width="24px"  height="24px"  viewBox="0 0 25 24" fill="none" xmlns="http://www.w3.org/2000/svg">
<path fill-rule="evenodd" clip-rule="evenodd" d="M15.2275 5.20312C15.2275 4.78891 15.5633 4.45312 15.9775 4.45312H21.2503C21.6646 4.45312 22.0003 4.78891 22.0003 5.20312C22.0003 5.61734 21.6646 5.95312 21.2503 5.95312H15.9775C15.5633 5.95312 15.2275 5.61734 15.2275 5.20312Z" fill="#000000" />
<path fill-rule="evenodd" clip-rule="evenodd" d="M18.1885 12C18.1885 11.5858 18.5243 11.25 18.9385 11.25H21.2504C21.6646 11.25 22.0004 11.5858 22.0004 12C22.0004 12.4142 21.6646 12.75 21.2504 12.75H18.9385C18.5243 12.75 18.1885 12.4142 18.1885 12Z" fill="#000000" />
<path fill-rule="evenodd" clip-rule="evenodd" d="M15.2275 18.793C15.2275 18.3788 15.5633 18.043 15.9775 18.043H21.2503C21.6646 18.043 22.0003 18.3788 22.0003 18.793C22.0003 19.2072 21.6646 19.543 21.2503 19.543H15.9775C15.5633 19.543 15.2275 19.2072 15.2275 18.793Z" fill="#000000" />
<path fill-rule="evenodd" clip-rule="evenodd" d="M10.2155 3.12765C10.83 3.34462 11.2929 3.93663 11.2929 4.69769V9.22925H15.1414C15.822 9.22925 16.3293 9.65496 16.5646 10.1566C16.7992 10.6566 16.8014 11.2986 16.4414 11.8378L10.8201 20.2497C10.382 20.9046 9.63762 21.0905 9.01282 20.8699C8.39829 20.6529 7.9354 20.0609 7.9354 19.2998V14.7673H4.0869C3.4068 14.7673 2.89936 14.3423 2.66381 13.8409C2.42906 13.3411 2.42681 12.6991 2.78723 12.1603L8.40819 3.7478C8.84628 3.09289 9.59067 2.90705 10.2155 3.12765ZM9.65517 4.58148C9.65515 4.58152 9.6552 4.58144 9.65517 4.58148L4.03425 12.9939C3.99379 13.0544 3.98844 13.1328 4.0215 13.2032C4.03715 13.2365 4.05558 13.2541 4.06556 13.261C4.07211 13.2656 4.07625 13.2673 4.0869 13.2673H8.6854C9.09961 13.2673 9.4354 13.6031 9.4354 14.0173V19.2998C9.4354 19.3676 9.45384 19.4024 9.46553 19.4188C9.47953 19.4385 9.49705 19.4501 9.51222 19.4554C9.51958 19.458 9.52518 19.4587 9.52851 19.4588C9.53151 19.4589 9.53275 19.4585 9.53294 19.4584L9.53449 19.4578C9.53499 19.4575 9.5358 19.4571 9.53692 19.4563C9.53777 19.4558 9.53879 19.4551 9.53997 19.4541C9.54499 19.4503 9.55713 19.4399 9.57292 19.4163C9.57298 19.4162 9.57285 19.4164 9.57292 19.4163L15.1939 11.0048C15.2348 10.9436 15.2399 10.8646 15.2066 10.7936C15.1909 10.7601 15.1724 10.7424 15.1624 10.7355C15.1559 10.7309 15.1518 10.7292 15.1414 10.7292H10.5429C10.1287 10.7292 9.79289 10.3935 9.79289 9.97925V4.69769C9.79289 4.62988 9.77445 4.59513 9.76276 4.57871C9.74876 4.55906 9.73124 4.54743 9.71607 4.54207C9.70872 4.53948 9.70311 4.53878 9.69978 4.53869C9.6967 4.53861 9.69548 4.53903 9.69534 4.53907L9.6938 4.53975C9.69293 4.5402 9.69109 4.54124 9.68832 4.54336C9.68329 4.54719 9.67102 4.55782 9.65517 4.58148Z" fill="#000000" />
</svg>