<svg width="24px"  height="24px"  viewBox="0 0 25 24" fill="none" xmlns="http://www.w3.org/2000/svg">
<path fill-rule="evenodd" clip-rule="evenodd" d="M10.9499 2.97343C11.9435 1.60425 14.1069 2.30853 14.1069 3.99867V9.0378H18.8346C20.2603 9.0378 21.0836 10.6554 20.2462 11.8085C20.2461 11.8086 20.2462 11.8085 20.2462 11.8085L13.5516 21.0288C13.5515 21.029 13.5517 21.0286 13.5516 21.0288M10.9499 2.97343L4.25511 12.1949C4.25514 12.1949 4.25508 12.1949 4.25511 12.1949C3.41733 13.3486 4.24165 14.9648 5.66657 14.9648H10.3934M12.6069 3.99867C12.6069 3.76041 12.3028 3.66296 12.1639 3.85442L5.46885 13.0763C5.35135 13.2381 5.4667 13.4648 5.66657 13.4648H11.1434C11.5576 13.4648 11.8934 13.8006 11.8934 14.2148V20.0049C11.8934 20.2423 12.1981 20.3402 12.3371 20.1485L19.0324 10.9272C19.1503 10.7649 19.0338 10.5378 18.8346 10.5378H13.3569C12.9426 10.5378 12.6069 10.202 12.6069 9.7878V3.99867Z" fill="#000000" />
</svg>