<svg width="24px"  height="24px"  viewBox="0 0 25 24" fill="none" xmlns="http://www.w3.org/2000/svg">
<path fill-rule="evenodd" clip-rule="evenodd" d="M14.7832 17.4222C14.7874 17.008 15.1265 16.6756 15.5407 16.6797L21.2569 16.7371C21.6711 16.7413 22.0035 17.0804 21.9993 17.4946C21.9952 17.9088 21.656 18.2412 21.2418 18.2371L15.5257 18.1797C15.1115 18.1755 14.7791 17.8363 14.7832 17.4222Z" fill="#000000" />
<path fill-rule="evenodd" clip-rule="evenodd" d="M15.5412 16.6758C15.9554 16.6802 16.2877 17.0195 16.2833 17.4337C16.2776 17.9815 16.4833 18.5284 16.9004 18.9455C17.7233 19.7684 19.0582 19.7688 19.8824 18.9455C20.2888 18.5391 20.4945 18.0094 20.4996 17.4761C20.5035 17.0619 20.8424 16.7293 21.2566 16.7332C21.6708 16.7371 22.0034 17.0761 21.9995 17.4903C21.9909 18.4009 21.6381 19.3111 20.9431 20.0061L20.9429 20.0064C19.5332 21.4148 17.2488 21.4152 15.8398 20.0061C15.1263 19.2927 14.7736 18.3529 14.7834 17.4179C14.7878 17.0037 15.127 16.6715 15.5412 16.6758Z" fill="#000000" />
<path fill-rule="evenodd" clip-rule="evenodd" d="M15.8399 14.9048C17.2498 13.4952 19.5332 13.4953 20.943 14.905C21.6563 15.6184 22.0091 16.5582 21.9993 17.4923C21.995 17.9065 21.6557 18.2388 21.2415 18.2344C20.8273 18.23 20.4951 17.8907 20.4994 17.4766C20.5052 16.9298 20.2995 16.3829 19.8823 15.9657C19.0582 15.1416 17.7244 15.1416 16.9003 15.9657L16.8998 15.9662C16.494 16.3713 16.2882 16.9008 16.2832 17.4341C16.2793 17.8483 15.9403 18.1809 15.5261 18.177C15.1119 18.1731 14.7793 17.8342 14.7832 17.42C14.7918 16.5095 15.1445 15.5991 15.8399 14.9048Z" fill="#000000" />
<path fill-rule="evenodd" clip-rule="evenodd" d="M8.78074 3.61602C9.71245 2.33261 11.742 2.99113 11.742 4.57722V8.98685H15.8724C17.2105 8.98685 17.9818 10.5029 17.1978 11.5848L11.2311 19.8021C10.2999 21.0833 8.26984 20.4278 8.26984 18.8399V14.4313H4.13848C2.80223 14.4313 2.02809 12.9154 2.81459 11.8326L8.78074 3.61602C8.78071 3.61605 8.78076 3.61599 8.78074 3.61602ZM10.0619 4.44355C10.0464 4.44808 10.0228 4.45842 9.99458 4.49726L4.02829 12.714C3.96248 12.8046 4.02697 12.9313 4.13848 12.9313H9.01984C9.43406 12.9313 9.76984 13.267 9.76984 13.6813V18.8399C9.76984 18.8881 9.78299 18.9104 9.7928 18.9231C9.80616 18.9404 9.8301 18.9593 9.86423 18.9704C9.89838 18.9814 9.92902 18.9802 9.95018 18.9741C9.96583 18.9695 9.98949 18.9591 10.0176 18.9205C10.0176 18.9205 10.0176 18.9205 10.0176 18.9205L15.9832 10.7046C15.9833 10.7045 15.9831 10.7047 15.9832 10.7046C16.0491 10.6132 15.984 10.4869 15.8724 10.4869H10.992C10.5778 10.4869 10.242 10.1511 10.242 9.73685V4.57722C10.242 4.52944 10.229 4.50728 10.2192 4.49456C10.2058 4.47727 10.1818 4.45836 10.1477 4.44727C10.1135 4.43619 10.083 4.4374 10.0619 4.44355Z" fill="#000000" />
</svg>