<svg width="24px"  height="24px"  viewBox="0 0 25 24" fill="none" xmlns="http://www.w3.org/2000/svg">
<path fill-rule="evenodd" clip-rule="evenodd" d="M3.99072 3.89744C4.97544 2.84116 6.37768 2.25 8.03313 2.25H16.4678C18.1272 2.25 19.5296 2.84086 20.5135 3.89789C21.4916 4.94883 22 6.39954 22 8.02735V15.9736C22 17.601 21.4916 19.0515 20.5133 20.1023C19.5293 21.1592 18.1266 21.75 16.4669 21.75H8.03313C6.37379 21.75 4.97117 21.1592 3.98714 20.1024C3.00872 19.0516 2.5 17.6011 2.5 15.9736V8.02735C2.5 6.3985 3.01144 4.9479 3.99072 3.89744ZM5.0879 4.92028C4.41046 5.64696 4 6.71004 4 8.02735V15.9736C4 17.2913 4.40879 18.354 5.08492 19.0802C5.75542 19.8003 6.74437 20.25 8.03313 20.25H16.4669C17.7562 20.25 18.7451 19.8002 19.4154 19.0802C20.0914 18.3541 20.5 17.2914 20.5 15.9736V8.02735C20.5 6.709 20.0914 5.64603 19.4155 4.91984C18.7452 4.19973 17.7566 3.75 16.4678 3.75H8.03313C6.74924 3.75 5.75991 4.19944 5.0879 4.92028Z" fill="#000000" />
<path fill-rule="evenodd" clip-rule="evenodd" d="M12.6193 7.12249C12.9832 7.32035 13.1178 7.77575 12.92 8.13965L11.2293 11.2492H14.531C14.7956 11.2492 15.0407 11.3887 15.1758 11.6162C15.311 11.8436 15.3162 12.1255 15.1897 12.3579L12.8944 16.5728C12.6964 16.9366 12.2409 17.0709 11.8771 16.8728C11.5133 16.6747 11.379 16.2192 11.5771 15.8555L13.2686 12.7492H9.96777C9.70325 12.7492 9.45829 12.6099 9.32311 12.3825C9.18792 12.1551 9.18251 11.8734 9.30887 11.641L11.6022 7.42314C11.8 7.05924 12.2554 6.92463 12.6193 7.12249Z" fill="#000000" />
</svg>