<svg width="24px"  height="24px"  viewBox="0 0 25 24" fill="none" xmlns="http://www.w3.org/2000/svg">
<path fill-rule="evenodd" clip-rule="evenodd" d="M15.3486 3C15.3486 2.58579 15.6844 2.25 16.0986 2.25H17.3556C19.9199 2.25 21.9981 4.32821 21.9981 6.89249V8.46953C21.9981 8.88374 21.6623 9.21953 21.2481 9.21953C20.8339 9.21953 20.4981 8.88374 20.4981 8.46953V6.89249C20.4981 5.15664 19.0914 3.75 17.3556 3.75H16.0986C15.6844 3.75 15.3486 3.41421 15.3486 3Z" fill="#000000" />
<path fill-rule="evenodd" clip-rule="evenodd" d="M7.14249 3.75C5.40664 3.75 4 5.15664 4 6.89249V8.46953C4 8.88374 3.66421 9.21953 3.25 9.21953C2.83579 9.21953 2.5 8.88374 2.5 8.46953V6.89249C2.5 4.32821 4.57821 2.25 7.14249 2.25H8.43156C8.84577 2.25 9.18156 2.58579 9.18156 3C9.18156 3.41421 8.84577 3.75 8.43156 3.75H7.14249Z" fill="#000000" />
<path fill-rule="evenodd" clip-rule="evenodd" d="M3.25 14.7812C3.66421 14.7812 4 15.117 4 15.5312V17.1083C4 18.843 5.40652 20.2498 7.14249 20.2498H8.39945C8.81366 20.2498 9.14945 20.5856 9.14945 20.9998C9.14945 21.414 8.81366 21.7498 8.39945 21.7498H7.14249C4.57834 21.7498 2.5 19.6717 2.5 17.1083V15.5312C2.5 15.117 2.83579 14.7812 3.25 14.7812Z" fill="#000000" />
<path fill-rule="evenodd" clip-rule="evenodd" d="M21.2499 14.7812C21.6641 14.7812 21.9999 15.117 21.9999 15.5312V17.1083C21.9999 19.6717 19.9216 21.7498 17.3574 21.7498H16.0684C15.6541 21.7498 15.3184 21.414 15.3184 20.9998C15.3184 20.5856 15.6541 20.2498 16.0684 20.2498H17.3574C19.0934 20.2498 20.4999 18.843 20.4999 17.1083V15.5312C20.4999 15.117 20.8357 14.7812 21.2499 14.7812Z" fill="#000000" />
<path fill-rule="evenodd" clip-rule="evenodd" d="M12.249 7.85156C12.6632 7.85156 12.999 8.18735 12.999 8.60156V15.4C12.999 15.8143 12.6632 16.15 12.249 16.15C11.8348 16.15 11.499 15.8143 11.499 15.4V8.60156C11.499 8.18735 11.8348 7.85156 12.249 7.85156Z" fill="#000000" />
<path fill-rule="evenodd" clip-rule="evenodd" d="M8.09766 12C8.09766 11.5858 8.43344 11.25 8.84766 11.25H15.652C16.0662 11.25 16.402 11.5858 16.402 12C16.402 12.4142 16.0662 12.75 15.652 12.75H8.84766C8.43344 12.75 8.09766 12.4142 8.09766 12Z" fill="#000000" />
</svg>