<svg width="24px"  height="24px"  viewBox="0 0 25 24" fill="none" xmlns="http://www.w3.org/2000/svg">
<path fill-rule="evenodd" clip-rule="evenodd" d="M15.3496 3C15.3496 2.58579 15.6854 2.25 16.0996 2.25H17.3567C19.9212 2.25 21.9995 4.32838 21.9995 6.89286V8.47005C21.9995 8.88426 21.6638 9.22005 21.2495 9.22005C20.8353 9.22005 20.4995 8.88426 20.4995 8.47005V6.89286C20.4995 5.15681 19.0927 3.75 17.3567 3.75H16.0996C15.6854 3.75 15.3496 3.41421 15.3496 3Z" fill="#000000" />
<path fill-rule="evenodd" clip-rule="evenodd" d="M7.14286 3.75C5.40681 3.75 4 5.15681 4 6.89286V8.47005C4 8.88426 3.66421 9.22005 3.25 9.22005C2.83579 9.22005 2.5 8.88426 2.5 8.47005V6.89286C2.5 4.32838 4.57838 2.25 7.14286 2.25H8.43205C8.84626 2.25 9.18205 2.58579 9.18205 3C9.18205 3.41421 8.84626 3.75 8.43205 3.75H7.14286Z" fill="#000000" />
<path fill-rule="evenodd" clip-rule="evenodd" d="M3.25 14.7812C3.66421 14.7812 4 15.117 4 15.5312V17.1084C4 18.8434 5.40668 20.2503 7.14286 20.2503H8.39994C8.81415 20.2503 9.14994 20.5861 9.14994 21.0003C9.14994 21.4145 8.81415 21.7503 8.39994 21.7503H7.14286C4.5785 21.7503 2.5 19.6721 2.5 17.1084V15.5312C2.5 15.117 2.83579 14.7812 3.25 14.7812Z" fill="#000000" />
<path fill-rule="evenodd" clip-rule="evenodd" d="M21.2494 14.7812C21.6636 14.7812 21.9994 15.117 21.9994 15.5312V17.1084C21.9994 19.6721 19.9209 21.7503 17.3566 21.7503H16.0674C15.6532 21.7503 15.3174 21.4145 15.3174 21.0003C15.3174 20.5861 15.6532 20.2503 16.0674 20.2503H17.3566C19.0927 20.2503 20.4994 18.8434 20.4994 17.1084V15.5312C20.4994 15.117 20.8352 14.7812 21.2494 14.7812Z" fill="#000000" />
<path fill-rule="evenodd" clip-rule="evenodd" d="M9.96097 8.35156C9.21054 8.35156 8.60254 8.95956 8.60254 9.70999V14.2888C8.60254 15.0392 9.21053 15.6472 9.96097 15.6472H14.5398C15.2902 15.6472 15.8982 15.0392 15.8982 14.2888V9.70999C15.8982 8.95956 15.2902 8.35156 14.5398 8.35156H9.96097ZM7.10254 9.70999C7.10254 8.13113 8.38211 6.85156 9.96097 6.85156H14.5398C16.1186 6.85156 17.3982 8.13113 17.3982 9.70999V14.2888C17.3982 15.8677 16.1186 17.1472 14.5398 17.1472H9.96097C8.38211 17.1472 7.10254 15.8677 7.10254 14.2888V9.70999Z" fill="#000000" />
<path fill-rule="evenodd" clip-rule="evenodd" d="M12.25 6.85547C12.6642 6.85547 13 7.19126 13 7.60547V16.3982C13 16.8124 12.6642 17.1482 12.25 17.1482C11.8358 17.1482 11.5 16.8124 11.5 16.3982V7.60547C11.5 7.19126 11.8358 6.85547 12.25 6.85547Z" fill="#000000" />
<path fill-rule="evenodd" clip-rule="evenodd" d="M7.10254 12C7.10254 11.5858 7.43833 11.25 7.85254 11.25H16.6443C17.0585 11.25 17.3943 11.5858 17.3943 12C17.3943 12.4142 17.0585 12.75 16.6443 12.75H7.85254C7.43833 12.75 7.10254 12.4142 7.10254 12Z" fill="#000000" />
</svg>