<svg width="24px"  height="24px"  viewBox="0 0 25 24" fill="none" xmlns="http://www.w3.org/2000/svg">
<path fill-rule="evenodd" clip-rule="evenodd" d="M15.3496 3C15.3496 2.58579 15.6854 2.25 16.0996 2.25H17.3567C19.9212 2.25 21.9995 4.32838 21.9995 6.89286V8.47005C21.9995 8.88426 21.6638 9.22005 21.2495 9.22005C20.8353 9.22005 20.4995 8.88426 20.4995 8.47005V6.89286C20.4995 5.15681 19.0927 3.75 17.3567 3.75H16.0996C15.6854 3.75 15.3496 3.41421 15.3496 3Z" fill="#000000" />
<path fill-rule="evenodd" clip-rule="evenodd" d="M7.14286 3.75C5.40681 3.75 4 5.15681 4 6.89286V8.47005C4 8.88426 3.66421 9.22005 3.25 9.22005C2.83579 9.22005 2.5 8.88426 2.5 8.47005V6.89286C2.5 4.32838 4.57838 2.25 7.14286 2.25H8.43205C8.84626 2.25 9.18205 2.58579 9.18205 3C9.18205 3.41421 8.84626 3.75 8.43205 3.75H7.14286Z" fill="#000000" />
<path fill-rule="evenodd" clip-rule="evenodd" d="M3.25 14.7812C3.66421 14.7812 4 15.117 4 15.5312V17.1084C4 18.8434 5.40668 20.2503 7.14286 20.2503H8.39994C8.81415 20.2503 9.14994 20.5861 9.14994 21.0003C9.14994 21.4145 8.81415 21.7503 8.39994 21.7503H7.14286C4.5785 21.7503 2.5 19.6721 2.5 17.1084V15.5312C2.5 15.117 2.83579 14.7812 3.25 14.7812Z" fill="#000000" />
<path fill-rule="evenodd" clip-rule="evenodd" d="M21.2494 14.7812C21.6636 14.7812 21.9994 15.117 21.9994 15.5312V17.1084C21.9994 19.6721 19.9209 21.7503 17.3566 21.7503H16.0674C15.6532 21.7503 15.3174 21.4145 15.3174 21.0003C15.3174 20.5861 15.6532 20.2503 16.0674 20.2503H17.3566C19.0927 20.2503 20.4994 18.8434 20.4994 17.1084V15.5312C20.4994 15.117 20.8352 14.7812 21.2494 14.7812Z" fill="#000000" />
<path fill-rule="evenodd" clip-rule="evenodd" d="M10.0507 10.3516C9.13934 10.3516 8.40137 11.0894 8.40137 11.9999C8.40137 12.9109 9.13974 13.6493 10.0507 13.6493H14.4495C15.3605 13.6493 16.0989 12.9109 16.0989 11.9999C16.0989 11.0894 15.3609 10.3516 14.4495 10.3516H10.0507ZM6.90137 11.9999C6.90137 10.2601 8.31171 8.85156 10.0507 8.85156H14.4495C16.1885 8.85156 17.5989 10.2601 17.5989 11.9999C17.5989 13.7393 16.1889 15.1493 14.4495 15.1493H10.0507C8.31131 15.1493 6.90137 13.7393 6.90137 11.9999Z" fill="#000000" />
</svg>