<svg width="24px"  height="24px"  viewBox="0 0 25 24" fill="none" xmlns="http://www.w3.org/2000/svg">
<path fill-rule="evenodd" clip-rule="evenodd" d="M15.3486 3C15.3486 2.58579 15.6844 2.25 16.0986 2.25H17.3556C19.9199 2.25 21.9981 4.32821 21.9981 6.89249V8.46953C21.9981 8.88374 21.6623 9.21953 21.2481 9.21953C20.8339 9.21953 20.4981 8.88374 20.4981 8.46953V6.89249C20.4981 5.15664 19.0914 3.75 17.3556 3.75H16.0986C15.6844 3.75 15.3486 3.41421 15.3486 3Z" fill="#000000" />
<path fill-rule="evenodd" clip-rule="evenodd" d="M7.14249 3.75C5.40664 3.75 4 5.15664 4 6.89249V8.46953C4 8.88374 3.66421 9.21953 3.25 9.21953C2.83579 9.21953 2.5 8.88374 2.5 8.46953V6.89249C2.5 4.32821 4.57821 2.25 7.14249 2.25H8.43156C8.84577 2.25 9.18156 2.58579 9.18156 3C9.18156 3.41421 8.84577 3.75 8.43156 3.75H7.14249Z" fill="#000000" />
<path fill-rule="evenodd" clip-rule="evenodd" d="M3.25 14.7812C3.66421 14.7812 4 15.117 4 15.5312V17.1083C4 18.843 5.40652 20.2498 7.14249 20.2498H8.39945C8.81366 20.2498 9.14945 20.5856 9.14945 20.9998C9.14945 21.414 8.81366 21.7498 8.39945 21.7498H7.14249C4.57834 21.7498 2.5 19.6717 2.5 17.1083V15.5312C2.5 15.117 2.83579 14.7812 3.25 14.7812Z" fill="#000000" />
<path fill-rule="evenodd" clip-rule="evenodd" d="M21.2499 14.7812C21.6641 14.7812 21.9999 15.117 21.9999 15.5312V17.1083C21.9999 19.6717 19.9216 21.7498 17.3574 21.7498H16.0684C15.6541 21.7498 15.3184 21.414 15.3184 20.9998C15.3184 20.5856 15.6541 20.2498 16.0684 20.2498H17.3574C19.0934 20.2498 20.4999 18.843 20.4999 17.1083V15.5312C20.4999 15.117 20.8357 14.7812 21.2499 14.7812Z" fill="#000000" />
<path fill-rule="evenodd" clip-rule="evenodd" d="M9.64499 14.6025C9.93789 14.8954 9.93789 15.3702 9.64499 15.6631L8.20416 17.104C7.91127 17.3969 7.43639 17.3969 7.1435 17.104C6.8506 16.8111 6.8506 16.3362 7.1435 16.0433L8.58433 14.6025C8.87723 14.3096 9.3521 14.3096 9.64499 14.6025Z" fill="#000000" />
<path fill-rule="evenodd" clip-rule="evenodd" d="M17.3549 6.89545C17.6478 7.18834 17.6478 7.66322 17.3549 7.95611L15.9073 9.40376C15.6144 9.69665 15.1395 9.69665 14.8466 9.40376C14.5537 9.11086 14.5537 8.63599 14.8466 8.3431L16.2943 6.89545C16.5872 6.60256 17.062 6.60256 17.3549 6.89545Z" fill="#000000" />
<path fill-rule="evenodd" clip-rule="evenodd" d="M7.1435 6.89545C7.43639 6.60256 7.91127 6.60256 8.20416 6.89545L9.64499 8.33629C9.93789 8.62918 9.93789 9.10405 9.64499 9.39695C9.3521 9.68984 8.87723 9.68984 8.58433 9.39695L7.1435 7.95611C6.8506 7.66322 6.8506 7.18834 7.1435 6.89545Z" fill="#000000" />
<path fill-rule="evenodd" clip-rule="evenodd" d="M14.8468 14.5945C15.1398 14.3017 15.6147 14.3019 15.9075 14.5948L17.3551 16.0435C17.6479 16.3365 17.6477 16.8113 17.3547 17.1041C17.0618 17.3969 16.5869 17.3968 16.2941 17.1038L14.8464 15.6552C14.5537 15.3622 14.5538 14.8873 14.8468 14.5945Z" fill="#000000" />
</svg>