<svg width="24px"  height="24px"  viewBox="0 0 25 24" fill="none" xmlns="http://www.w3.org/2000/svg">
<path fill-rule="evenodd" clip-rule="evenodd" d="M15.0684 2.99609C15.0684 2.58188 15.4041 2.24609 15.8184 2.24609H17.0754C19.6399 2.24609 21.7183 4.32447 21.7183 6.88895V8.46614C21.7183 8.88035 21.3825 9.21614 20.9683 9.21614C20.5541 9.21614 20.2183 8.88035 20.2183 8.46614V6.88895C20.2183 5.1529 18.8115 3.74609 17.0754 3.74609H15.8184C15.4041 3.74609 15.0684 3.41031 15.0684 2.99609Z" fill="#000000" />
<path fill-rule="evenodd" clip-rule="evenodd" d="M6.86161 3.74609C5.12556 3.74609 3.71875 5.1529 3.71875 6.88895V8.46614C3.71875 8.88035 3.38296 9.21614 2.96875 9.21614C2.55454 9.21614 2.21875 8.88035 2.21875 8.46614V6.88895C2.21875 4.32447 4.29713 2.24609 6.86161 2.24609H8.1508C8.56501 2.24609 8.9008 2.58188 8.9008 2.99609C8.9008 3.41031 8.56501 3.74609 8.1508 3.74609H6.86161Z" fill="#000000" />
<path fill-rule="evenodd" clip-rule="evenodd" d="M2.96875 14.7812C3.38296 14.7812 3.71875 15.117 3.71875 15.5312V17.1084C3.71875 18.8434 5.12543 20.2503 6.86161 20.2503H8.11869C8.5329 20.2503 8.86869 20.5861 8.86869 21.0003C8.86869 21.4145 8.5329 21.7503 8.11869 21.7503H6.86161C4.29725 21.7503 2.21875 19.6721 2.21875 17.1084V15.5312C2.21875 15.117 2.55454 14.7812 2.96875 14.7812Z" fill="#000000" />
<path fill-rule="evenodd" clip-rule="evenodd" d="M20.9682 14.7812C21.3824 14.7812 21.7182 15.117 21.7182 15.5312V17.1084C21.7182 19.6721 19.6397 21.7503 17.0753 21.7503H15.7861C15.3719 21.7503 15.0361 21.4145 15.0361 21.0003C15.0361 20.5861 15.3719 20.2503 15.7861 20.2503H17.0753C18.8115 20.2503 20.2182 18.8434 20.2182 17.1084V15.5312C20.2182 15.117 20.554 14.7812 20.9682 14.7812Z" fill="#000000" />
<path fill-rule="evenodd" clip-rule="evenodd" d="M6.375 12C6.375 11.5858 6.71079 11.25 7.125 11.25H16.8129C17.2271 11.25 17.5629 11.5858 17.5629 12C17.5629 12.4142 17.2271 12.75 16.8129 12.75H7.125C6.71079 12.75 6.375 12.4142 6.375 12Z" fill="#000000" />
</svg>