<svg width="24px"  height="24px"  viewBox="0 0 25 24" fill="none" xmlns="http://www.w3.org/2000/svg">
<path fill-rule="evenodd" clip-rule="evenodd" d="M15.3496 3C15.3496 2.58579 15.6854 2.25 16.0996 2.25H17.3567C19.9212 2.25 21.9995 4.32838 21.9995 6.89286V8.47005C21.9995 8.88426 21.6638 9.22005 21.2495 9.22005C20.8353 9.22005 20.4995 8.88426 20.4995 8.47005V6.89286C20.4995 5.15681 19.0927 3.75 17.3567 3.75H16.0996C15.6854 3.75 15.3496 3.41421 15.3496 3Z" fill="#000000" />
<path fill-rule="evenodd" clip-rule="evenodd" d="M7.14286 3.75C5.40681 3.75 4 5.15681 4 6.89286V8.47005C4 8.88426 3.66421 9.22005 3.25 9.22005C2.83579 9.22005 2.5 8.88426 2.5 8.47005V6.89286C2.5 4.32838 4.57838 2.25 7.14286 2.25H8.43205C8.84626 2.25 9.18205 2.58579 9.18205 3C9.18205 3.41421 8.84626 3.75 8.43205 3.75H7.14286Z" fill="#000000" />
<path fill-rule="evenodd" clip-rule="evenodd" d="M3.25 14.7812C3.66421 14.7812 4 15.117 4 15.5312V17.1084C4 18.8434 5.40668 20.2503 7.14286 20.2503H8.39994C8.81415 20.2503 9.14994 20.5861 9.14994 21.0003C9.14994 21.4145 8.81415 21.7503 8.39994 21.7503H7.14286C4.5785 21.7503 2.5 19.6721 2.5 17.1084V15.5312C2.5 15.117 2.83579 14.7812 3.25 14.7812Z" fill="#000000" />
<path fill-rule="evenodd" clip-rule="evenodd" d="M21.2494 14.7812C21.6636 14.7812 21.9994 15.117 21.9994 15.5312V17.1084C21.9994 19.6721 19.9209 21.7503 17.3566 21.7503H16.0674C15.6532 21.7503 15.3174 21.4145 15.3174 21.0003C15.3174 20.5861 15.6532 20.2503 16.0674 20.2503H17.3566C19.0927 20.2503 20.4994 18.8434 20.4994 17.1084V15.5312C20.4994 15.117 20.8352 14.7812 21.2494 14.7812Z" fill="#000000" />
<path fill-rule="evenodd" clip-rule="evenodd" d="M6.65625 12C6.65625 11.5858 6.99204 11.25 7.40625 11.25H17.0941C17.5083 11.25 17.8441 11.5858 17.8441 12C17.8441 12.4142 17.5083 12.75 17.0941 12.75H7.40625C6.99204 12.75 6.65625 12.4142 6.65625 12Z" fill="#000000" />
<path fill-rule="evenodd" clip-rule="evenodd" d="M12.2497 8.6875C10.4212 8.6875 8.93945 10.1692 8.93945 11.9977C8.93945 13.8264 10.4214 15.3089 12.2497 15.3089C14.0781 15.3089 15.5608 13.8262 15.5608 11.9977C15.5608 10.1695 14.0784 8.6875 12.2497 8.6875ZM7.43945 11.9977C7.43945 9.3408 9.59275 7.1875 12.2497 7.1875C14.9063 7.1875 17.0608 9.34056 17.0608 11.9977C17.0608 14.6546 14.9066 16.8089 12.2497 16.8089C9.59252 16.8089 7.43945 14.6544 7.43945 11.9977Z" fill="#000000" />
</svg>