<svg width="24px"  height="24px"  viewBox="0 0 25 24" fill="none" xmlns="http://www.w3.org/2000/svg">
<path fill-rule="evenodd" clip-rule="evenodd" d="M21.25 15.1016C21.6642 15.1016 22 15.4373 22 15.8516V17.1078C22 19.6724 19.9215 21.7511 17.3576 21.7511H15.7803C15.3661 21.7511 15.0303 21.4153 15.0303 21.0011C15.0303 20.5869 15.3661 20.2511 15.7803 20.2511H17.3576C19.0928 20.2511 20.5 18.8442 20.5 17.1078V15.8516C20.5 15.4373 20.8357 15.1016 21.25 15.1016Z" fill="#000000" />
<path fill-rule="evenodd" clip-rule="evenodd" d="M15.0303 3C15.0303 2.58579 15.3661 2.25 15.7803 2.25H17.3576C19.9216 2.25 22 4.32979 22 6.8933V8.18263C22 8.59684 21.6642 8.93263 21.25 8.93263C20.8357 8.93263 20.5 8.59684 20.5 8.18263V6.8933C20.5 5.15773 19.0927 3.75 17.3576 3.75H15.7803C15.3661 3.75 15.0303 3.41421 15.0303 3Z" fill="#000000" />
<path fill-rule="evenodd" clip-rule="evenodd" d="M2.5 6.8933C2.5 4.32979 4.57833 2.25 7.14232 2.25H8.71969C9.1339 2.25 9.46969 2.58579 9.46969 3C9.46969 3.41421 9.1339 3.75 8.71969 3.75H7.14232C5.40724 3.75 4 5.15773 4 6.8933V8.15052C4 8.56473 3.66421 8.90052 3.25 8.90052C2.83579 8.90052 2.5 8.56473 2.5 8.15052V6.8933Z" fill="#000000" />
<path fill-rule="evenodd" clip-rule="evenodd" d="M3.25 15.0664C3.66421 15.0664 4 15.4022 4 15.8164V17.1057C4 18.8422 5.40712 20.249 7.14232 20.249H8.71969C9.1339 20.249 9.46969 20.5848 9.46969 20.999C9.46969 21.4132 9.1339 21.749 8.71969 21.749H7.14232C4.57845 21.749 2.5 19.6703 2.5 17.1057V15.8164C2.5 15.4022 2.83579 15.0664 3.25 15.0664Z" fill="#000000" />
<path fill-rule="evenodd" clip-rule="evenodd" d="M9.87598 7.94531C9.87598 7.5311 10.2118 7.19531 10.626 7.19531H13.877C14.2913 7.19531 14.627 7.5311 14.627 7.94531C14.627 8.35953 14.2913 8.69531 13.877 8.69531H10.626C10.2118 8.69531 9.87598 8.35953 9.87598 7.94531Z" fill="#000000" />
<path fill-rule="evenodd" clip-rule="evenodd" d="M6.90723 12C6.90723 11.5858 7.24301 11.25 7.65723 11.25H16.8421C17.2563 11.25 17.5921 11.5858 17.5921 12C17.5921 12.4142 17.2563 12.75 16.8421 12.75H7.65723C7.24301 12.75 6.90723 12.4142 6.90723 12Z" fill="#000000" />
<path fill-rule="evenodd" clip-rule="evenodd" d="M9.87598 16.0547C9.87598 15.6405 10.2118 15.3047 10.626 15.3047H13.877C14.2913 15.3047 14.627 15.6405 14.627 16.0547C14.627 16.4689 14.2913 16.8047 13.877 16.8047H10.626C10.2118 16.8047 9.87598 16.4689 9.87598 16.0547Z" fill="#000000" />
</svg>