<svg width="24px"  height="24px"  viewBox="0 0 25 24" fill="none" xmlns="http://www.w3.org/2000/svg">
<path fill-rule="evenodd" clip-rule="evenodd" d="M2.79766 4.85825C3.65833 3.93517 4.88152 3.42188 6.31703 3.42188H18.183C19.6218 3.42188 20.8454 3.93485 21.7055 4.85862C22.56 5.77635 23 7.03861 23 8.44539V15.5481C23 16.9553 22.5601 18.2179 21.7054 19.1358C20.845 20.0598 19.6211 20.5727 18.1819 20.5727H6.31703C4.87823 20.5727 3.6546 20.0597 2.79444 19.1358C1.93992 18.2179 1.5 16.9553 1.5 15.5481V8.44539C1.5 7.03765 1.94243 5.77552 2.79766 4.85825ZM3.89477 5.88117C3.34136 6.47472 3 7.34934 3 8.44539V15.5481C3 16.6457 3.34008 17.5205 3.89232 18.1137C4.43892 18.7008 5.2488 19.0727 6.31703 19.0727H18.1819C19.2508 19.0727 20.0609 18.7007 20.6076 18.1136C21.1599 17.5204 21.5 16.6457 21.5 15.5481V8.44539C21.5 7.34839 21.16 6.47389 20.6077 5.8808C20.0611 5.29376 19.2512 4.92188 18.183 4.92188H6.31703C5.25308 4.92188 4.44275 5.29345 3.89477 5.88117Z" fill="#000000" />
<path fill-rule="evenodd" clip-rule="evenodd" d="M5.04492 8.68359C5.45914 8.68359 5.79492 9.01938 5.79492 9.43359V14.5547C5.79492 14.9689 5.45914 15.3047 5.04492 15.3047C4.63071 15.3047 4.29492 14.9689 4.29492 14.5547V9.43359C4.29492 9.01938 4.63071 8.68359 5.04492 8.68359Z" fill="#000000" />
<path fill-rule="evenodd" clip-rule="evenodd" d="M4.29492 11.9961C4.29492 11.5819 4.63071 11.2461 5.04492 11.2461H8.28276C8.69697 11.2461 9.03276 11.5819 9.03276 11.9961C9.03276 12.4103 8.69697 12.7461 8.28276 12.7461H5.04492C4.63071 12.7461 4.29492 12.4103 4.29492 11.9961Z" fill="#000000" />
<path fill-rule="evenodd" clip-rule="evenodd" d="M8.2832 8.68359C8.69742 8.68359 9.0332 9.01938 9.0332 9.43359V14.5547C9.0332 14.9689 8.69742 15.3047 8.2832 15.3047C7.86899 15.3047 7.5332 14.9689 7.5332 14.5547V9.43359C7.5332 9.01938 7.86899 8.68359 8.2832 8.68359Z" fill="#000000" />
<path fill-rule="evenodd" clip-rule="evenodd" d="M9.96973 9.43359C9.96973 9.01938 10.3055 8.68359 10.7197 8.68359H11.5727C13.4006 8.68359 14.8838 10.1649 14.8838 11.9936C14.8838 13.8219 13.401 15.3047 11.5727 15.3047H10.7197C10.3055 15.3047 9.96973 14.9689 9.96973 14.5547V9.43359ZM11.4697 10.1836V13.8047H11.5727C12.5725 13.8047 13.3838 12.9934 13.3838 11.9936C13.3838 10.9942 12.573 10.1836 11.5727 10.1836H11.4697Z" fill="#000000" />
<path fill-rule="evenodd" clip-rule="evenodd" d="M15.4434 9.46875C15.4434 9.05454 15.7791 8.71875 16.1934 8.71875H17.9393C19.1928 8.71875 20.2071 9.73488 20.2071 10.9866C20.2071 12.2397 19.1924 13.2544 17.9393 13.2544H16.9434V14.5282C16.9434 14.9424 16.6076 15.2782 16.1934 15.2782C15.7791 15.2782 15.4434 14.9424 15.4434 14.5282V9.46875ZM16.9434 11.7544H17.9393C18.364 11.7544 18.7071 11.4113 18.7071 10.9866C18.7071 10.5626 18.3637 10.2188 17.9393 10.2188H16.9434V11.7544Z" fill="#000000" />
<path fill-rule="evenodd" clip-rule="evenodd" d="M17.406 11.8628C17.7602 11.6479 18.2214 11.7609 18.4363 12.115L19.6633 14.1377C19.8781 14.4919 19.7652 14.9531 19.4111 15.168C19.0569 15.3828 18.5957 15.2699 18.3808 14.9157L17.1538 12.893C16.939 12.5389 17.0519 12.0776 17.406 11.8628Z" fill="#000000" />
</svg>