<svg width="24px"  height="24px"  viewBox="0 0 25 24" fill="none" xmlns="http://www.w3.org/2000/svg">
<path fill-rule="evenodd" clip-rule="evenodd" d="M9.39535 8.83203C8.87301 8.83203 8.44922 9.25527 8.44922 9.77913C8.44922 10.3023 8.87329 10.7262 9.39535 10.7262C9.91865 10.7262 10.3424 10.302 10.3424 9.77913C10.3424 9.25555 9.91893 8.83203 9.39535 8.83203ZM6.94922 9.77913C6.94922 8.4274 8.04403 7.33203 9.39535 7.33203C10.7474 7.33203 11.8424 8.42712 11.8424 9.77913C11.8424 11.1299 10.7476 12.2262 9.39535 12.2262C8.04375 12.2262 6.94922 11.1296 6.94922 9.77913Z" fill="#000000" />
<path fill-rule="evenodd" clip-rule="evenodd" d="M5.07651 4.98451C4.40659 5.70256 4 6.75398 4 8.05942V15.9448C4 17.2508 4.40478 18.3024 5.07338 19.0203C5.73636 19.7323 6.7145 20.1771 7.9901 20.1771H16.3588C17.6346 20.1771 18.6156 19.7321 19.2811 19.0195C19.952 18.3012 20.3586 17.2497 20.3586 15.9448V10.9616C20.3586 10.5473 20.6944 10.2116 21.1086 10.2116C21.5228 10.2116 21.8586 10.5473 21.8586 10.9616V15.9448C21.8586 17.5613 21.351 19.001 20.3774 20.0434C19.3984 21.0916 18.0045 21.6771 16.3588 21.6771H7.9901C6.34426 21.6771 4.95235 21.0914 3.97564 20.0426C3.00455 18.9998 2.5 17.5603 2.5 15.9448V8.05942C2.5 6.44246 3.00757 5.00324 3.97974 3.96124C4.95729 2.91348 6.34875 2.32812 7.9901 2.32812H13.4567C13.8709 2.32812 14.2067 2.66391 14.2067 3.07812C14.2067 3.49234 13.8709 3.82812 13.4567 3.82812H7.9901C6.71965 3.82812 5.74107 4.27222 5.07651 4.98451Z" fill="#000000" />
<path fill-rule="evenodd" clip-rule="evenodd" d="M18.8301 2.39453C19.2443 2.39453 19.5801 2.73032 19.5801 3.14453V7.98207C19.5801 8.39629 19.2443 8.73207 18.8301 8.73207C18.4159 8.73207 18.0801 8.39629 18.0801 7.98207V3.14453C18.0801 2.73032 18.4159 2.39453 18.8301 2.39453Z" fill="#000000" />
<path fill-rule="evenodd" clip-rule="evenodd" d="M15.6621 5.5625C15.6621 5.14829 15.9979 4.8125 16.4121 4.8125H21.2497C21.6639 4.8125 21.9997 5.14829 21.9997 5.5625C21.9997 5.97671 21.6639 6.3125 21.2497 6.3125H16.4121C15.9979 6.3125 15.6621 5.97671 15.6621 5.5625Z" fill="#000000" />
<path fill-rule="evenodd" clip-rule="evenodd" d="M21.852 12.6149C21.877 13.0283 21.5621 13.3838 21.1487 13.4088C18.5188 13.568 15.4363 14.2894 13.1185 15.5831C10.7912 16.8821 9.42766 18.6279 9.69702 20.8318C9.74727 21.243 9.4547 21.617 9.04355 21.6672C8.63239 21.7175 8.25835 21.4249 8.2081 21.0138C7.83007 17.9209 9.83226 15.6994 12.3874 14.2733C14.952 12.8419 18.2685 12.0804 21.058 11.9116C21.4715 11.8865 21.8269 12.2014 21.852 12.6149Z" fill="#000000" />
</svg>