<svg width="24px"  height="24px"  viewBox="0 0 25 24" fill="none" xmlns="http://www.w3.org/2000/svg">
<path fill-rule="evenodd" clip-rule="evenodd" d="M11.5215 13.4912C10.4294 12.534 8.82086 12.4571 7.6439 13.3122L3.69457 16.1793C3.35938 16.4226 2.89038 16.3482 2.64703 16.013C2.40369 15.6778 2.47815 15.2088 2.81335 14.9654L6.76222 12.0986C6.76229 12.0986 6.76214 12.0987 6.76222 12.0986C8.50957 10.8293 10.8972 10.946 12.5143 12.3668L12.5201 12.3719L20.2139 19.2746C20.5222 19.5512 20.5479 20.0254 20.2713 20.3337C19.9947 20.642 19.5205 20.6677 19.2122 20.3911L11.5215 13.4912Z" fill="#000000" />
<path fill-rule="evenodd" clip-rule="evenodd" d="M21.7095 14.8776C21.7259 14.8927 21.742 14.9075 21.7577 14.9219C22.0627 15.2022 22.0828 15.6766 21.8026 15.9816C21.5223 16.2866 21.0479 16.3067 20.7428 16.0265C20.3059 15.625 19.8603 15.2181 19.3424 14.993C18.876 14.7903 18.3492 14.7345 17.6866 15.091C16.797 15.5726 16.0097 16.0766 15.5748 16.3691C15.2311 16.6002 14.7651 16.5089 14.534 16.1652C14.3028 15.8215 14.3941 15.3554 14.7378 15.1243C15.2 14.8135 16.0298 14.2822 16.9733 13.7714L16.9748 13.7706L16.9748 13.7706C18.087 13.1718 19.1005 13.2523 19.9404 13.6173C20.6981 13.9467 21.3065 14.5066 21.7095 14.8776Z" fill="#000000" />
<path fill-rule="evenodd" clip-rule="evenodd" d="M5.0869 4.92587C4.41026 5.65123 4 6.71277 4 8.02934V15.9762C4 17.2938 4.40845 18.3552 5.08363 19.0801C5.7532 19.7989 6.74089 20.2477 8.02823 20.2477H16.4617C17.7492 20.2477 18.7397 19.7988 19.4119 19.0793C20.0894 18.354 20.4996 17.2927 20.4996 15.9762V10.9537C20.4996 10.5395 20.8354 10.2037 21.2496 10.2037C21.6638 10.2037 21.9996 10.5395 21.9996 10.9537V15.9762C21.9996 17.6044 21.4883 19.0539 20.508 20.1032C19.5224 21.1583 18.119 21.7477 16.4617 21.7477H8.02823C6.37078 21.7477 4.96935 21.1581 3.98601 20.1024C3.00827 19.0527 2.5 17.6034 2.5 15.9762V8.02934C2.5 6.40111 3.01132 4.95188 3.99004 3.90269C4.97413 2.84773 6.37511 2.25781 8.02823 2.25781H12.2284C12.6426 2.25781 12.9784 2.5936 12.9784 3.00781C12.9784 3.42203 12.6426 3.75781 12.2284 3.75781H8.02823C6.7463 3.75781 5.75816 4.20627 5.0869 4.92587Z" fill="#000000" />
<path fill-rule="evenodd" clip-rule="evenodd" d="M18.6191 2.32812C19.0334 2.32812 19.3691 2.66391 19.3691 3.07812V7.9527C19.3691 8.36692 19.0334 8.7027 18.6191 8.7027C18.2049 8.7027 17.8691 8.36692 17.8691 7.9527V3.07812C17.8691 2.66391 18.2049 2.32812 18.6191 2.32812Z" fill="#000000" />
<path fill-rule="evenodd" clip-rule="evenodd" d="M15.4326 5.51562C15.4326 5.10141 15.7684 4.76562 16.1826 4.76562H21.0582C21.4724 4.76562 21.8082 5.10141 21.8082 5.51562C21.8082 5.92984 21.4724 6.26562 21.0582 6.26562H16.1826C15.7684 6.26562 15.4326 5.92984 15.4326 5.51562Z" fill="#000000" />
</svg>