<svg width="24px"  height="24px"  viewBox="0 0 25 24" fill="none" xmlns="http://www.w3.org/2000/svg">
<path fill-rule="evenodd" clip-rule="evenodd" d="M3.99141 3.90197C4.97693 2.84707 6.38021 2.25781 8.03734 2.25781H16.4723C18.1253 2.25781 19.5261 2.84756 20.5101 3.90237C21.4887 4.95141 21.9999 6.40045 21.9999 8.02854V15.9763C21.9999 17.6034 21.4918 19.0527 20.5142 20.1025C19.531 21.1583 18.1297 21.748 16.4723 21.748H8.03734C6.3801 21.748 4.97682 21.1585 3.99134 20.1033C3.01123 19.0539 2.5 17.6044 2.5 15.9763V8.02854C2.5 6.40043 3.01124 4.95115 3.99141 3.90197ZM5.08751 4.92597C4.41015 5.65101 4 6.71209 4 8.02854V15.9763C4 17.2928 4.41016 18.3542 5.08758 19.0795C5.75964 19.799 6.75002 20.248 8.03734 20.248H16.4723C17.7595 20.248 18.747 19.7992 19.4165 19.0803C20.0916 18.3553 20.4999 17.2938 20.4999 15.9763V8.02854C20.4999 6.71207 20.0898 5.65075 19.4133 4.92557C18.7422 4.20615 17.7542 3.75781 16.4723 3.75781H8.03734C6.74991 3.75781 5.75952 4.20664 5.08751 4.92597Z" fill="#000000" />
<path fill-rule="evenodd" clip-rule="evenodd" d="M6.3252 9.17928C6.3252 7.8211 7.42602 6.71875 8.78572 6.71875C10.1442 6.71875 11.2463 7.82082 11.2463 9.17928C11.2463 10.5377 10.1442 11.6398 8.78572 11.6398C7.42602 11.6398 6.3252 10.5375 6.3252 9.17928ZM8.78572 8.21875C8.255 8.21875 7.8252 8.64897 7.8252 9.17928C7.8252 9.70959 8.255 10.1398 8.78572 10.1398C9.31575 10.1398 9.74625 9.70931 9.74625 9.17928C9.74625 8.64925 9.31575 8.21875 8.78572 8.21875Z" fill="#000000" />
<path fill-rule="evenodd" clip-rule="evenodd" d="M18.161 12.0025L21.7683 15.4543C22.0676 15.7407 22.0781 16.2154 21.7917 16.5147C21.5053 16.814 21.0306 16.8244 20.7313 16.5381L17.1235 13.0859C16.4666 12.4564 15.4258 12.4735 14.7856 13.1265C14.7854 13.1267 14.7858 13.1263 14.7856 13.1265L6.98509 21.1225C6.69585 21.419 6.22101 21.4248 5.92451 21.1356C5.62802 20.8464 5.62214 20.3715 5.91139 20.075L13.7134 12.0776C14.9246 10.8408 16.9062 10.8005 18.161 12.0025Z" fill="#000000" />
</svg>