<svg width="24px"  height="24px"  viewBox="0 0 25 24" fill="none" xmlns="http://www.w3.org/2000/svg">
<path fill-rule="evenodd" clip-rule="evenodd" d="M10.1262 12.2627C9.63838 11.5778 8.61019 11.6125 8.16966 12.3279L4.39367 18.4594C3.91155 19.2422 4.47443 20.2497 5.39361 20.2497H19.1058C20.024 20.2497 20.5865 19.2445 20.1079 18.4629L18.2542 15.4325C18.2542 15.4325 18.2543 15.4326 18.2542 15.4325C17.8376 14.7519 16.8768 14.6758 16.3579 15.2833C15.2281 16.6082 13.1543 16.5162 12.1453 15.0984L10.1262 12.2627C10.1262 12.2627 10.1262 12.2627 10.1262 12.2627ZM6.89242 11.5414C7.89603 9.91162 10.2375 9.83317 11.3481 11.3926L13.3673 14.2285C13.8105 14.8513 14.7212 14.8913 15.2168 14.3098C16.397 12.928 18.5843 13.0983 19.5337 14.6495L21.3871 17.6796C21.3871 17.6797 21.387 17.6795 21.3871 17.6796C22.4778 19.4613 21.1952 21.7497 19.1058 21.7497H5.39361C3.30106 21.7497 2.01866 19.4554 3.11644 17.6729M3.11644 17.6729L6.89242 11.5414C6.89242 11.5414 6.89242 11.5414 6.89242 11.5414" fill="#000000" />
<path fill-rule="evenodd" clip-rule="evenodd" d="M13.6191 5.7587C13.6191 3.82113 15.1903 2.25 17.1278 2.25C19.0654 2.25 20.6365 3.82113 20.6365 5.7587C20.6365 7.69626 19.0654 9.2674 17.1278 9.2674C15.1903 9.2674 13.6191 7.69626 13.6191 5.7587ZM17.1278 3.75C16.0187 3.75 15.1191 4.64956 15.1191 5.7587C15.1191 6.86784 16.0187 7.7674 17.1278 7.7674C18.237 7.7674 19.1365 6.86784 19.1365 5.7587C19.1365 4.64956 18.237 3.75 17.1278 3.75Z" fill="#000000" />
</svg>