<svg width="24px"  height="24px"  viewBox="0 0 25 24" fill="none" xmlns="http://www.w3.org/2000/svg">
<path fill-rule="evenodd" clip-rule="evenodd" d="M6.29883 9.19692C6.29883 7.84625 7.39356 6.75 8.74575 6.75C10.0967 6.75 11.1927 7.84597 11.1927 9.19692C11.1927 10.5479 10.0967 11.6438 8.74575 11.6438C7.39356 11.6438 6.29883 10.5476 6.29883 9.19692ZM8.74575 8.25C8.22254 8.25 7.79883 8.67412 7.79883 9.19692C7.79883 9.71971 8.22254 10.1438 8.74575 10.1438C9.26826 10.1438 9.69266 9.71943 9.69266 9.19692C9.69266 8.6744 9.26826 8.25 8.74575 8.25Z" fill="#000000" />
<path fill-rule="evenodd" clip-rule="evenodd" d="M18.0504 11.9933L21.6291 15.4176C21.9283 15.704 21.9388 16.1787 21.6524 16.478C21.3661 16.7773 20.8913 16.7877 20.592 16.5014L17.013 13.0766C16.3637 12.4544 15.3349 12.4714 14.7021 13.1168C14.7019 13.117 14.7023 13.1166 14.7021 13.1168L6.96361 21.0492C6.67436 21.3456 6.19952 21.3515 5.90303 21.0623C5.60654 20.773 5.60066 20.2982 5.88991 20.0017L13.6298 12.0679C14.8337 10.8387 16.8033 10.7986 18.0504 11.9933Z" fill="#000000" />
<path fill-rule="evenodd" clip-rule="evenodd" d="M5.07638 4.98437C4.40654 5.70232 4 6.75362 4 8.0589V15.9434C4 17.2493 4.40473 18.3007 5.07324 19.0186C5.73614 19.7305 6.71416 20.1752 7.9896 20.1752H16.3575C17.6331 20.1752 18.6139 19.7303 19.2794 19.0178C19.9502 18.2996 20.3567 17.2482 20.3567 15.9434V10.9607C20.3567 10.5465 20.6925 10.2107 21.1067 10.2107C21.5209 10.2107 21.8567 10.5465 21.8567 10.9607V15.9434C21.8567 17.5598 21.3491 18.9993 20.3756 20.0417C19.3967 21.0897 18.003 21.6752 16.3575 21.6752H7.9896C6.34391 21.6752 4.95213 21.0896 3.97551 20.0409C3.00451 18.9982 2.5 17.5588 2.5 15.9434V8.0589C2.5 6.44209 3.00752 5.003 3.97961 3.96109C4.95707 2.91343 6.34841 2.32812 7.9896 2.32812H13.4556C13.8698 2.32812 14.2056 2.66391 14.2056 3.07812C14.2056 3.49234 13.8698 3.82812 13.4556 3.82812H7.9896C6.71931 3.82812 5.74085 4.27217 5.07638 4.98437Z" fill="#000000" />
<path fill-rule="evenodd" clip-rule="evenodd" d="M18.8301 2.39453C19.2443 2.39453 19.5801 2.73032 19.5801 3.14453V7.98157C19.5801 8.39578 19.2443 8.73157 18.8301 8.73157C18.4159 8.73157 18.0801 8.39578 18.0801 7.98157V3.14453C18.0801 2.73032 18.4159 2.39453 18.8301 2.39453Z" fill="#000000" />
<path fill-rule="evenodd" clip-rule="evenodd" d="M15.6631 5.5625C15.6631 5.14829 15.9989 4.8125 16.4131 4.8125H21.2501C21.6643 4.8125 22.0001 5.14829 22.0001 5.5625C22.0001 5.97671 21.6643 6.3125 21.2501 6.3125H16.4131C15.9989 6.3125 15.6631 5.97671 15.6631 5.5625Z" fill="#000000" />
</svg>