<svg width="24px"  height="24px"  viewBox="0 0 25 24" fill="none" xmlns="http://www.w3.org/2000/svg">
<path fill-rule="evenodd" clip-rule="evenodd" d="M9.01522 7.67969C8.48491 7.67969 8.05469 8.10949 8.05469 8.64022C8.05469 9.17026 8.48519 9.60076 9.01522 9.60076C9.54595 9.60076 9.97576 9.17053 9.97576 8.64022C9.97576 8.10922 9.54623 7.67969 9.01522 7.67969ZM6.55469 8.64022C6.55469 7.28051 7.65704 6.17969 9.01522 6.17969C10.3747 6.17969 11.4758 7.28079 11.4758 8.64022C11.4758 9.9984 10.3749 11.1008 9.01522 11.1008C7.65676 11.1008 6.55469 9.99868 6.55469 8.64022Z" fill="#000000" />
<path fill-rule="evenodd" clip-rule="evenodd" d="M17.7415 12.0989L21.6903 14.9654C22.0255 15.2087 22.1 15.6777 21.8566 16.0129C21.6133 16.3481 21.1443 16.4226 20.8091 16.1793L16.86 13.3125C15.6831 12.4573 14.0739 12.5339 12.9819 13.4912L5.29092 20.3918C4.98261 20.6685 4.50844 20.6428 4.23181 20.3345C3.95519 20.0262 3.98087 19.552 4.28917 19.2754L11.989 12.3668C13.6061 10.9459 15.9942 10.8293 17.7415 12.0989Z" fill="#000000" />
<path fill-rule="evenodd" clip-rule="evenodd" d="M5.16175 14.9971C4.64367 15.2224 4.19796 15.6294 3.76134 16.0306C3.45633 16.3108 2.98188 16.2907 2.70163 15.9857C2.42138 15.6807 2.44146 15.2063 2.74648 14.926C2.76222 14.9116 2.77831 14.8967 2.79475 14.8816C3.19751 14.5109 3.80593 13.9509 4.56365 13.6215C5.40351 13.2563 6.41733 13.1755 7.52951 13.7746L7.53147 13.7756C8.47348 14.2866 9.30447 14.8173 9.76768 15.1298C10.1111 15.3615 10.2016 15.8276 9.96998 16.171C9.73833 16.5144 9.27218 16.605 8.9288 16.3733C8.49558 16.081 7.70691 15.5773 6.81727 15.0947C6.15516 14.7384 5.62841 14.7942 5.16175 14.9971Z" fill="#000000" />
<path fill-rule="evenodd" clip-rule="evenodd" d="M5.08667 4.92166C4.41018 5.64685 4 6.70818 4 8.02465V15.9725C4 17.29 4.40838 18.3515 5.08347 19.0764C5.75295 19.7953 6.74047 20.2442 8.02763 20.2442H16.4626C17.75 20.2442 18.7404 19.7952 19.4124 19.0756C20.0898 18.3503 20.5 17.2889 20.5 15.9725V8.02465C20.5 6.7082 20.0898 5.64711 19.4125 4.92207C18.7405 4.20274 17.7501 3.75391 16.4626 3.75391H8.02763C6.74577 3.75391 5.75778 4.20225 5.08667 4.92166ZM3.98983 3.89847C4.97382 2.84365 6.37466 2.25391 8.02763 2.25391H16.4626C18.1198 2.25391 19.5231 2.84316 20.5086 3.89806C21.4888 4.94725 22 6.39654 22 8.02465V15.9725C22 17.6006 21.4888 19.0501 20.5087 20.0995C19.5232 21.1546 18.1199 21.7442 16.4626 21.7442H8.02763C6.37023 21.7442 4.96893 21.1545 3.98574 20.0987C3.00815 19.0489 2.5 17.5995 2.5 15.9725V8.02465C2.5 6.39656 3.01122 4.94751 3.98983 3.89847Z" fill="#000000" />
</svg>