<svg width="24px"  height="24px"  viewBox="0 0 24 24" fill="none" xmlns="http://www.w3.org/2000/svg">
<path fill-rule="evenodd" clip-rule="evenodd" d="M4.85032 4.92555C4.17384 5.65072 3.76367 6.71203 3.76367 8.02848V15.9762C3.76367 17.2937 4.17204 18.3551 4.84712 19.0801C5.51659 19.799 6.50409 20.2478 7.79123 20.2478H16.2261C17.5134 20.2478 18.5038 19.7988 19.1758 19.0793C19.8532 18.354 20.2634 17.2926 20.2634 15.9762V8.02848C20.2634 6.71204 19.8532 5.65098 19.1759 4.92595C18.5039 4.20663 17.5135 3.75781 16.2261 3.75781H7.79123C6.50939 3.75781 5.52142 4.20615 4.85032 4.92555ZM3.75348 3.90235C4.73746 2.84755 6.13827 2.25781 7.79123 2.25781H16.2261C17.8832 2.25781 19.2865 2.84706 20.272 3.90195C21.2521 4.95112 21.7634 6.40039 21.7634 8.02848V15.9762C21.7634 17.6042 21.2522 19.0537 20.2721 20.1031C19.2866 21.1582 17.8833 21.7478 16.2261 21.7478H7.79123C6.13384 21.7478 4.73257 21.1581 3.74939 20.1023C2.77182 19.0525 2.26367 17.6032 2.26367 15.9762V8.02848C2.26367 6.4004 2.77488 4.95138 3.75348 3.90235Z" fill="#000000" />
<path fill-rule="evenodd" clip-rule="evenodd" d="M21.7618 12.6227C21.7868 13.0361 21.4719 13.3916 21.0585 13.4166C18.4072 13.5771 15.2994 14.3044 12.9623 15.6088C10.6157 16.9186 9.23889 18.6801 9.51081 20.9049C9.56106 21.3161 9.26849 21.6901 8.85734 21.7404C8.44618 21.7906 8.07214 21.498 8.02189 21.0869C7.64131 17.973 9.65679 15.736 12.2312 14.299C14.8151 12.8569 18.1569 12.0895 20.9678 11.9194C21.3813 11.8943 21.7368 12.2092 21.7618 12.6227Z" fill="#000000" />
<path fill-rule="evenodd" clip-rule="evenodd" d="M9.14535 8.83203C8.62301 8.83203 8.19922 9.25527 8.19922 9.77913C8.19922 10.3023 8.62329 10.7262 9.14535 10.7262C9.66865 10.7262 10.0924 10.302 10.0924 9.77913C10.0924 9.25555 9.66893 8.83203 9.14535 8.83203ZM6.69922 9.77913C6.69922 8.4274 7.79403 7.33203 9.14535 7.33203C10.4974 7.33203 11.5924 8.42712 11.5924 9.77913C11.5924 11.1299 10.4976 12.2262 9.14535 12.2262C7.79375 12.2262 6.69922 11.1296 6.69922 9.77913Z" fill="#000000" />
</svg>