<svg width="24px"  height="24px"  viewBox="0 0 25 24" fill="none" xmlns="http://www.w3.org/2000/svg">
<path fill-rule="evenodd" clip-rule="evenodd" d="M5.09049 4.92519C4.41407 5.65012 4.00391 6.71113 4.00391 8.02741V15.9737C4.00391 17.291 4.41227 18.3522 5.08729 19.0769C5.75671 19.7956 6.74417 20.2443 8.03123 20.2443H16.464C17.7507 20.2443 18.7408 19.7955 19.4127 19.0761C20.09 18.3511 20.5001 17.29 20.5001 15.9737V8.02741C20.5001 6.71115 20.09 5.65036 19.4128 4.92555C18.7409 4.20644 17.7508 3.75781 16.464 3.75781H8.03123C6.74946 3.75781 5.76155 4.206 5.09049 4.92519ZM3.99377 3.90186C4.97775 2.84731 6.37849 2.25781 8.03123 2.25781H16.464C18.1205 2.25781 19.5235 2.84687 20.5088 3.9015C21.4888 4.95043 22.0001 6.39943 22.0001 8.02741V15.9737C22.0001 17.6017 21.4888 19.0509 20.5089 20.1C19.5236 21.1549 18.1206 21.7443 16.464 21.7443H8.03123C6.37406 21.7443 4.97286 21.1548 3.98967 20.0993C3.01209 19.0497 2.50391 17.6006 2.50391 15.9737V8.02741C2.50391 6.39945 3.01515 4.95066 3.99377 3.90186Z" fill="#000000" />
<path fill-rule="evenodd" clip-rule="evenodd" d="M9.44487 8.33594C8.91377 8.33594 8.48438 8.76547 8.48438 9.29546C8.48438 9.82545 8.91377 10.255 9.44487 10.255C9.97472 10.255 10.4044 9.82573 10.4044 9.29546C10.4044 8.76519 9.97472 8.33594 9.44487 8.33594ZM6.98438 9.29546C6.98438 7.93593 8.08645 6.83594 9.44487 6.83594C10.8026 6.83594 11.9044 7.93621 11.9044 9.29546C11.9044 10.6547 10.8026 11.755 9.44487 11.755C8.08645 11.755 6.98438 10.655 6.98438 9.29546Z" fill="#000000" />
<path fill-rule="evenodd" clip-rule="evenodd" d="M21.997 10.7865C22.0136 11.2004 21.6915 11.5493 21.2776 11.5658C17.1599 11.7304 13.6312 14.2079 11.9521 17.7282C11.4603 18.7674 11.1326 19.8863 10.9962 21.079C10.9491 21.4905 10.5774 21.786 10.1659 21.7389C9.75432 21.6919 9.45885 21.3201 9.5059 20.9086C9.66139 19.5485 10.0359 18.2704 10.5967 17.0855L10.5976 17.0836C12.5071 13.0794 16.5225 10.2547 21.2177 10.067C21.6316 10.0505 21.9805 10.3726 21.997 10.7865Z" fill="#000000" />
<path fill-rule="evenodd" clip-rule="evenodd" d="M2.50252 13.111C2.53616 12.6982 2.8981 12.3908 3.31095 12.4244C6.75762 12.7052 9.80036 14.398 11.8556 16.9308C12.1166 17.2525 12.0674 17.7248 11.7458 17.9858C11.4242 18.2468 10.9518 18.1976 10.6908 17.876C8.8853 15.6509 6.21471 14.166 3.18913 13.9194C2.77629 13.8858 2.46888 13.5239 2.50252 13.111Z" fill="#000000" />
</svg>