<svg width="24px"  height="24px"  viewBox="0 0 25 24" fill="none" xmlns="http://www.w3.org/2000/svg">
<path fill-rule="evenodd" clip-rule="evenodd" d="M10.1939 8.48828C9.6653 8.48828 9.2373 8.91628 9.2373 9.44488C9.2373 9.97347 9.6653 10.4015 10.1939 10.4015C10.7225 10.4015 11.1505 9.97347 11.1505 9.44488C11.1505 8.91628 10.7225 8.48828 10.1939 8.48828ZM7.7373 9.44488C7.7373 8.08785 8.83687 6.98828 10.1939 6.98828C11.5509 6.98828 12.6505 8.08785 12.6505 9.44488C12.6505 10.8019 11.5509 11.9015 10.1939 11.9015C8.83687 11.9015 7.7373 10.8019 7.7373 9.44488Z" fill="#000000" />
<path fill-rule="evenodd" clip-rule="evenodd" d="M13.802 13.9498L7.34474 19.7458C7.03649 20.0225 6.5623 19.9969 6.28562 19.6886C6.00893 19.3804 6.03453 18.9062 6.34278 18.6295L12.8095 12.825C14.4243 11.4078 16.8074 11.2907 18.5517 12.5582L21.1596 14.4558C21.4946 14.6995 21.5685 15.1686 21.3248 15.5035C21.0811 15.8385 20.612 15.9124 20.2771 15.6687L17.6699 13.7717C16.4963 12.9189 14.8921 12.9955 13.802 13.9498Z" fill="#000000" />
<path fill-rule="evenodd" clip-rule="evenodd" d="M12.25 3.75C7.69335 3.75 4 7.44421 4 12C4 16.5567 7.69329 20.25 12.25 20.25C16.8067 20.25 20.5 16.5567 20.5 12C20.5 7.44421 16.8067 3.75 12.25 3.75ZM2.5 12C2.5 6.61589 6.86481 2.25 12.25 2.25C17.6352 2.25 22 6.61589 22 12C22 17.3851 17.6351 21.75 12.25 21.75C6.86487 21.75 2.5 17.3851 2.5 12Z" fill="#000000" />
<path fill-rule="evenodd" clip-rule="evenodd" d="M5.44393 14.059C6.27786 13.7056 7.27788 13.6385 8.36941 14.23L8.37271 14.2318L8.37271 14.2318C9.25151 14.7137 10.0461 15.2075 10.5287 15.5377C10.7683 15.663 10.9318 15.9138 10.9318 16.2029C10.9318 16.6171 10.596 16.9529 10.1818 16.9529H10.1721C10.019 16.9529 9.86949 16.906 9.74379 16.8186C9.32198 16.5251 8.53838 16.0334 7.65321 15.5479C7.00384 15.1966 6.48648 15.2463 6.02916 15.4401C5.5222 15.6549 5.07935 16.0515 4.65048 16.4504C4.3472 16.7325 3.87263 16.7154 3.59051 16.4121C3.30839 16.1088 3.32554 15.6343 3.62882 15.3521L3.63535 15.3461C4.04334 14.9665 4.66344 14.3897 5.44393 14.059Z" fill="#000000" />
</svg>