<svg width="24px"  height="24px"  viewBox="0 0 25 24" fill="none" xmlns="http://www.w3.org/2000/svg">
<path fill-rule="evenodd" clip-rule="evenodd" d="M3.9902 3.89737C4.97468 2.84117 6.37669 2.25 8.03216 2.25H13.2376C13.6518 2.25 13.9876 2.58579 13.9876 3C13.9876 3.41421 13.6518 3.75 13.2376 3.75H8.03216C6.74828 3.75 5.75921 4.19943 5.08745 4.92012C4.41024 5.64667 4 6.70951 4 8.02638V15.9736C4 17.2914 4.40861 18.3541 5.08451 19.0802C5.75475 19.8003 6.74341 20.25 8.03216 20.25H16.4659C17.7552 20.25 18.7444 19.8002 19.415 19.0801C20.0912 18.354 20.5 17.2913 20.5 15.9736V10.9453C20.5 10.5311 20.8358 10.1953 21.25 10.1953C21.6642 10.1953 22 10.5311 22 10.9453V15.9736C22 17.6011 21.4913 19.0516 20.5127 20.1024C19.5285 21.1592 18.1257 21.75 16.4659 21.75H8.03216C6.3728 21.75 4.97038 21.1591 3.98657 20.1023C3.00842 19.0515 2.5 17.601 2.5 15.9736V8.02638C2.5 6.39806 3.01117 4.94771 3.9902 3.89737Z" fill="#000000" />
<path fill-rule="evenodd" clip-rule="evenodd" d="M10.4988 12.1484L10.4987 12.1484L10.4987 12.1484M10.4988 12.1484C10.4988 12.1484 10.4987 12.1484 10.4987 12.1484L10.4988 12.1484ZM10.5312 12.1939L12.1793 14.5088C12.1794 14.509 12.1795 14.5091 12.1796 14.5092C12.7312 15.286 13.8672 15.3361 14.4848 14.6098C14.485 14.6095 14.4853 14.6092 14.4856 14.6088L15.0558 13.9413L16.5958 16.4588H7.90482L10.5312 12.1939ZM12.791 14.0749L12.791 14.0748L12.791 14.0749C11.1138 10.426 9.83245 10.4675 9.28308 11.36C9.28305 11.3601 9.28303 11.3601 9.283 11.3602C9.28297 11.3602 9.28294 11.3603 9.28291 11.3603L6.59309 15.7282C6.59302 15.7283 6.59295 15.7284 6.59288 15.7286C6.59286 15.7286 6.59284 15.7286 6.59281 15.7287C5.99153 16.7043 6.69551 17.9588 7.83857 17.9588H16.6615C17.8059 17.9588 18.5054 16.7063 17.9095 15.7317L17.9094 15.7315L16.3088 13.1152L16.3082 13.1141C15.7884 12.2678 14.5933 12.172 13.9475 12.9293C13.9474 12.9294 13.9473 12.9295 13.9472 12.9296L13.3741 13.6006L11.7207 11.2784C11.7207 11.2784 11.7207 11.2784 11.7207 11.2784M13.4027 13.6408L13.4026 13.6408L13.4027 13.6408Z" fill="#000000" />
<path fill-rule="evenodd" clip-rule="evenodd" d="M18.4893 2.27734C18.9035 2.27734 19.2393 2.61313 19.2393 3.02734V7.89221C19.2393 8.30642 18.9035 8.64221 18.4893 8.64221C18.075 8.64221 17.7393 8.30642 17.7393 7.89221V3.02734C17.7393 2.61313 18.075 2.27734 18.4893 2.27734Z" fill="#000000" />
<path fill-rule="evenodd" clip-rule="evenodd" d="M15.3086 5.46094C15.3086 5.04672 15.6444 4.71094 16.0586 4.71094H20.9235C21.3377 4.71094 21.6735 5.04672 21.6735 5.46094C21.6735 5.87515 21.3377 6.21094 20.9235 6.21094H16.0586C15.6444 6.21094 15.3086 5.87515 15.3086 5.46094Z" fill="#000000" />
</svg>