<svg width="24px"  height="24px"  viewBox="0 0 25 24" fill="none" xmlns="http://www.w3.org/2000/svg">
<path fill-rule="evenodd" clip-rule="evenodd" d="M3.9902 3.89737C4.97468 2.84117 6.37669 2.25 8.03216 2.25H16.4669C18.1262 2.25 19.5288 2.84084 20.5129 3.89765C21.4913 4.94841 22 6.39889 22 8.02638V15.9736C22 17.6011 21.4913 19.0516 20.5127 20.1024C19.5285 21.1592 18.1257 21.75 16.4659 21.75H8.03216C6.3728 21.75 4.97038 21.1591 3.98657 20.1023C3.00842 19.0515 2.5 17.601 2.5 15.9736V8.02638C2.5 6.39806 3.01117 4.94771 3.9902 3.89737ZM5.08745 4.92012C4.41024 5.64667 4 6.70951 4 8.02638V15.9736C4 17.2914 4.40861 18.3541 5.08451 19.0802C5.75475 19.8003 6.74341 20.25 8.03216 20.25H16.4659C17.7552 20.25 18.7444 19.8002 19.415 19.0801C20.0912 18.354 20.5 17.2913 20.5 15.9736V8.02638C20.5 6.70868 20.0912 5.64597 19.4151 4.91984C18.7446 4.19975 17.7556 3.75 16.4669 3.75H8.03216C6.74828 3.75 5.75921 4.19943 5.08745 4.92012Z" fill="#000000" />
<path fill-rule="evenodd" clip-rule="evenodd" d="M10.4988 12.1445L10.4987 12.1445L10.4987 12.1445M10.4988 12.1445C10.4988 12.1445 10.4987 12.1445 10.4987 12.1445L10.4988 12.1445ZM10.5312 12.19L12.1793 14.5049C12.1794 14.505 12.1795 14.5052 12.1796 14.5053C12.7312 15.2821 13.8672 15.3322 14.4848 14.6059C14.485 14.6056 14.4853 14.6052 14.4856 14.6049L15.0558 13.9374L16.5958 16.4549H7.90482L10.5312 12.19ZM12.791 14.0709L12.791 14.0709L12.791 14.0709C11.1138 10.4221 9.83245 10.4636 9.28308 11.3561C9.28305 11.3562 9.28303 11.3562 9.283 11.3563C9.28297 11.3563 9.28294 11.3564 9.28291 11.3564L6.59309 15.7243C6.59302 15.7244 6.59295 15.7245 6.59288 15.7247C6.59286 15.7247 6.59284 15.7247 6.59281 15.7248C5.99153 16.7004 6.69551 17.9549 7.83857 17.9549H16.6615C17.8059 17.9549 18.5054 16.7024 17.9095 15.7278L17.9094 15.7276L16.3088 13.1113L16.3082 13.1102C15.7884 12.2639 14.5933 12.168 13.9475 12.9254C13.9474 12.9255 13.9473 12.9256 13.9472 12.9257L13.3741 13.5967L11.7207 11.2745C11.7207 11.2745 11.7207 11.2745 11.7207 11.2745M13.4027 13.6369L13.4026 13.6369L13.4027 13.6369Z" fill="#000000" />
<path fill-rule="evenodd" clip-rule="evenodd" d="M12.6709 8.31664C12.6709 7.06081 13.6887 6.04297 14.9446 6.04297C16.1991 6.04297 17.2182 7.0605 17.2182 8.31664C17.2182 9.57341 16.1985 10.5893 14.9446 10.5893C13.6894 10.5893 12.6709 9.5731 12.6709 8.31664ZM14.9446 7.54297C14.5172 7.54297 14.1709 7.88924 14.1709 8.31664C14.1709 8.74343 14.5165 9.08935 14.9446 9.08935C15.3719 9.08935 15.7182 8.74312 15.7182 8.31664C15.7182 7.88955 15.3713 7.54297 14.9446 7.54297Z" fill="#000000" />
</svg>