<svg width="24px"  height="24px"  viewBox="0 0 25 24" fill="none" xmlns="http://www.w3.org/2000/svg">
<path fill-rule="evenodd" clip-rule="evenodd" d="M3.9902 3.89737C4.97468 2.84117 6.37669 2.25 8.03216 2.25H16.4669C18.1262 2.25 19.5288 2.84084 20.5129 3.89765C21.4913 4.94841 22 6.39889 22 8.02638V15.9736C22 17.6011 21.4913 19.0516 20.5127 20.1024C19.5285 21.1592 18.1257 21.75 16.4659 21.75H8.03216C6.3728 21.75 4.97038 21.1591 3.98657 20.1023C3.00842 19.0515 2.5 17.601 2.5 15.9736V8.02638C2.5 6.39806 3.01117 4.94771 3.9902 3.89737ZM5.08745 4.92012C4.41024 5.64667 4 6.70951 4 8.02638V15.9736C4 17.2914 4.40861 18.3541 5.08451 19.0802C5.75475 19.8003 6.74341 20.25 8.03216 20.25H16.4659C17.7552 20.25 18.7444 19.8002 19.415 19.0801C20.0912 18.354 20.5 17.2913 20.5 15.9736V8.02638C20.5 6.70868 20.0912 5.64597 19.4151 4.91984C18.7446 4.19975 17.7556 3.75 16.4669 3.75H8.03216C6.74828 3.75 5.75921 4.19943 5.08745 4.92012Z" fill="#000000" />
<path fill-rule="evenodd" clip-rule="evenodd" d="M5.51206 2.79458C5.90608 2.66683 6.32906 2.88268 6.45681 3.27671L10.3779 15.3718C10.5056 15.7658 10.2897 16.1888 9.89571 16.3165C9.50169 16.4442 9.07872 16.2283 8.95099 15.8343L5.02993 3.73932C4.90218 3.3453 5.11804 2.92232 5.51206 2.79458Z" fill="#000000" />
<path fill-rule="evenodd" clip-rule="evenodd" d="M18.7604 2.81765C19.0035 3.153 18.9287 3.62195 18.5934 3.86508L8.47913 11.1956C8.14369 11.4386 7.67477 11.3637 7.43175 11.0283C7.18874 10.6928 7.26367 10.2239 7.5991 9.98088L17.713 2.65065C18.0483 2.40753 18.5173 2.48229 18.7604 2.81765Z" fill="#000000" />
<path fill-rule="evenodd" clip-rule="evenodd" d="M11.5256 7.17843C11.768 6.84251 12.2367 6.76666 12.5727 7.00901L16.8343 10.0836C16.8643 10.1053 16.8925 10.129 16.9186 10.1544L21.6895 13.6095C22.025 13.8524 22.1 14.3213 21.8571 14.6568C21.6141 14.9923 21.1452 15.0673 20.8097 14.8244L15.9556 11.309C15.9263 11.2878 15.8988 11.2647 15.8732 11.2399L11.695 8.22547C11.3591 7.98312 11.2833 7.51434 11.5256 7.17843Z" fill="#000000" />
<path fill-rule="evenodd" clip-rule="evenodd" d="M16.396 9.94531C16.8103 9.94531 17.146 10.2811 17.146 10.6953V10.7041C17.146 10.7829 17.1336 10.8612 17.1092 10.9361L13.7593 21.2312C13.6311 21.6251 13.2079 21.8405 12.814 21.7123C12.4201 21.5841 12.2047 21.1609 12.3329 20.767L15.6651 10.5265C15.7417 10.1936 16.0399 9.94531 16.396 9.94531Z" fill="#000000" />
<path fill-rule="evenodd" clip-rule="evenodd" d="M2.5 15.6172C2.5 15.203 2.83579 14.8672 3.25 14.8672H14.7612C15.1755 14.8672 15.5112 15.203 15.5112 15.6172C15.5112 16.0314 15.1755 16.3672 14.7612 16.3672H3.25C2.83579 16.3672 2.5 16.0314 2.5 15.6172Z" fill="#000000" />
</svg>