<svg width="24px"  height="24px"  viewBox="0 0 25 24" fill="none" xmlns="http://www.w3.org/2000/svg">
<path fill-rule="evenodd" clip-rule="evenodd" d="M7.82071 6.59924C8.21474 6.47153 8.6377 6.68742 8.76542 7.08145L10.0098 10.9208L10.0099 10.9208L11.157 14.4595C11.2847 14.8535 11.0688 15.2765 10.6748 15.4042C10.2808 15.5319 9.85781 15.3161 9.73008 14.922L8.58294 11.3833L8.58293 11.3833L7.3385 7.54395C7.21079 7.14992 7.42668 6.72696 7.82071 6.59924Z" fill="#000000" />
<path fill-rule="evenodd" clip-rule="evenodd" d="M16.2042 6.14579C16.4473 6.48116 16.3725 6.95011 16.0371 7.19322L9.73701 11.7595C9.4016 12.0025 8.93266 11.9276 8.68961 11.5922C8.44657 11.2568 8.52144 10.7879 8.85685 10.5448L15.1567 5.97876C15.4921 5.73565 15.961 5.81043 16.2042 6.14579Z" fill="#000000" />
<path fill-rule="evenodd" clip-rule="evenodd" d="M11.632 8.58079C11.8744 8.24487 12.3432 8.169 12.6791 8.41134L15.742 10.621C15.7672 10.6391 15.791 10.6587 15.8134 10.6795L19.0648 13.0337C19.4003 13.2767 19.4753 13.7456 19.2324 14.0811C18.9895 14.4166 18.5206 14.4916 18.1851 14.2487L14.8634 11.8435C14.8389 11.8258 14.8158 11.8068 14.7939 11.7866L11.8015 9.62783C11.4656 9.38549 11.3897 8.91672 11.632 8.58079Z" fill="#000000" />
<path fill-rule="evenodd" clip-rule="evenodd" d="M15.3039 10.4766C15.7181 10.4766 16.0539 10.8123 16.0539 11.2266V11.2334C16.0539 11.3122 16.0414 11.3905 16.017 11.4655L13.6187 18.8357C13.4905 19.2296 13.0673 19.445 12.6734 19.3168C12.2795 19.1887 12.0641 18.7654 12.1923 18.3716L14.5746 11.0507C14.6537 10.7213 14.9502 10.4766 15.3039 10.4766Z" fill="#000000" />
<path fill-rule="evenodd" clip-rule="evenodd" d="M5.65039 14.7656C5.65039 14.3514 5.98618 14.0156 6.40039 14.0156H14.1277C14.542 14.0156 14.8777 14.3514 14.8777 14.7656C14.8777 15.1798 14.542 15.5156 14.1277 15.5156H6.40039C5.98618 15.5156 5.65039 15.1798 5.65039 14.7656Z" fill="#000000" />
<path fill-rule="evenodd" clip-rule="evenodd" d="M12.25 3.75C7.69335 3.75 4 7.44421 4 12C4 16.5567 7.69329 20.25 12.25 20.25C16.8067 20.25 20.5 16.5567 20.5 12C20.5 7.44421 16.8067 3.75 12.25 3.75ZM2.5 12C2.5 6.61589 6.86481 2.25 12.25 2.25C17.6352 2.25 22 6.61589 22 12C22 17.3851 17.6351 21.75 12.25 21.75C6.86487 21.75 2.5 17.3851 2.5 12Z" fill="#000000" />
</svg>