<svg width="24px"  height="24px"  viewBox="0 0 25 24" fill="none" xmlns="http://www.w3.org/2000/svg">
<path fill-rule="evenodd" clip-rule="evenodd" d="M6.07455 4.53286C6.46857 4.40511 6.89155 4.62096 7.0193 5.01498L8.7512 10.3566L10.3469 15.2799C10.4746 15.674 10.2587 16.0969 9.86467 16.2246C9.47064 16.3523 9.04768 16.1364 8.91997 15.7424L5.59243 5.47761C5.46468 5.08359 5.68053 4.66061 6.07455 4.53286Z" fill="#000000" />
<path fill-rule="evenodd" clip-rule="evenodd" d="M17.4128 3.7942C17.6559 4.12955 17.5812 4.59851 17.2458 4.84164L8.47913 11.1953C8.14369 11.4383 7.67477 11.3634 7.43175 11.028C7.18874 10.6925 7.26367 10.2236 7.5991 9.98058L16.3654 3.62722C16.7007 3.38409 17.1697 3.45885 17.4128 3.7942Z" fill="#000000" />
<path fill-rule="evenodd" clip-rule="evenodd" d="M11.5256 7.17843C11.768 6.84251 12.2367 6.76666 12.5727 7.00901L16.8343 10.0836C16.8643 10.1053 16.8925 10.129 16.9186 10.1544L21.457 13.4412C21.7925 13.6841 21.8675 14.153 21.6245 14.4885C21.3816 14.824 20.9127 14.899 20.5772 14.656L15.9556 11.309C15.9263 11.2878 15.8988 11.2647 15.8732 11.2399L11.695 8.22547C11.3591 7.98312 11.2833 7.51434 11.5256 7.17843Z" fill="#000000" />
<path fill-rule="evenodd" clip-rule="evenodd" d="M16.3971 9.94141C16.8113 9.94141 17.1471 10.2772 17.1471 10.6914V10.7011C17.1471 10.78 17.1346 10.8583 17.1103 10.9332L13.773 21.1884C13.6448 21.5822 13.2216 21.7976 12.8277 21.6695C12.4338 21.5413 12.2184 21.1181 12.3466 20.7242L15.6654 10.5258C15.7408 10.1913 16.0398 9.94141 16.3971 9.94141Z" fill="#000000" />
<path fill-rule="evenodd" clip-rule="evenodd" d="M3.25977 15.6172C3.25977 15.203 3.59555 14.8672 4.00977 14.8672H14.7611C15.1753 14.8672 15.5111 15.203 15.5111 15.6172C15.5111 16.0314 15.1753 16.3672 14.7611 16.3672H4.00977C3.59555 16.3672 3.25977 16.0314 3.25977 15.6172Z" fill="#000000" />
<path fill-rule="evenodd" clip-rule="evenodd" d="M12.25 3.75C7.69335 3.75 4 7.44421 4 12C4 16.5567 7.69329 20.25 12.25 20.25C16.8067 20.25 20.5 16.5567 20.5 12C20.5 7.44421 16.8067 3.75 12.25 3.75ZM2.5 12C2.5 6.61589 6.86481 2.25 12.25 2.25C17.6352 2.25 22 6.61589 22 12C22 17.3851 17.6351 21.75 12.25 21.75C6.86487 21.75 2.5 17.3851 2.5 12Z" fill="#000000" />
</svg>