<svg width="24px"  height="24px"  viewBox="0 0 25 24" fill="none" xmlns="http://www.w3.org/2000/svg">
<path fill-rule="evenodd" clip-rule="evenodd" d="M13.9542 7.75299C14.3129 7.54584 14.7716 7.6687 14.9787 8.0274L21.0879 18.6064C21.2951 18.9651 21.1722 19.4238 20.8135 19.6309C20.4548 19.8381 19.9961 19.7152 19.7889 19.3565L13.6797 8.77753C13.4726 8.41884 13.5955 7.96013 13.9542 7.75299Z" fill="#000000" />
<path fill-rule="evenodd" clip-rule="evenodd" d="M9.4209 8.40234C9.4209 7.98813 9.75668 7.65234 10.1709 7.65234H21.25C21.6642 7.65234 22 7.98813 22 8.40234C22 8.81656 21.6642 9.15234 21.25 9.15234H10.1709C9.75668 9.15234 9.4209 8.81656 9.4209 8.40234Z" fill="#000000" />
<path fill-rule="evenodd" clip-rule="evenodd" d="M13.6645 2.35065C14.0232 2.5578 14.1461 3.01651 13.9389 3.3752L8.7414 12.3751C8.53424 12.7338 8.07554 12.8566 7.71684 12.6495C7.35815 12.4423 7.2353 11.9836 7.44245 11.6249L12.64 2.62505C12.8471 2.26635 13.3058 2.1435 13.6645 2.35065Z" fill="#000000" />
<path fill-rule="evenodd" clip-rule="evenodd" d="M3.68855 4.37407C4.04726 4.16694 4.50596 4.28981 4.71309 4.64852L10.8213 15.2265C11.0285 15.5852 10.9056 16.0439 10.5469 16.2511C10.1882 16.4582 9.72947 16.3353 9.52234 15.9766L3.41411 5.39861C3.20698 5.03991 3.32985 4.5812 3.68855 4.37407Z" fill="#000000" />
<path fill-rule="evenodd" clip-rule="evenodd" d="M2.5 15.5977C2.5 15.1834 2.83579 14.8477 3.25 14.8477H14.3291C14.7433 14.8477 15.0791 15.1834 15.0791 15.5977C15.0791 16.0119 14.7433 16.3477 14.3291 16.3477H3.25C2.83579 16.3477 2.5 16.0119 2.5 15.5977Z" fill="#000000" />
<path fill-rule="evenodd" clip-rule="evenodd" d="M16.7836 11.3506C17.1423 11.5577 17.2652 12.0164 17.0581 12.3752L11.8615 21.375C11.6544 21.7337 11.1957 21.8566 10.837 21.6495C10.4783 21.4424 10.3554 20.9837 10.5625 20.625L15.7591 11.6251C15.9662 11.2664 16.4249 11.1435 16.7836 11.3506Z" fill="#000000" />
<path fill-rule="evenodd" clip-rule="evenodd" d="M3.99018 3.89734C4.97465 2.84116 6.37664 2.25 8.03209 2.25H16.4667C18.126 2.25 19.5286 2.84084 20.5126 3.89763C21.491 4.94838 21.9997 6.39883 21.9997 8.0263V15.9734C21.9997 17.6009 21.491 19.0514 20.5124 20.1021C19.5283 21.1589 18.1254 21.7497 16.4657 21.7497H8.03209C6.37275 21.7497 4.97035 21.1589 3.98656 20.102C3.00841 19.0512 2.5 17.6008 2.5 15.9734V8.0263C2.5 6.398 3.01116 4.94768 3.99018 3.89734ZM5.08743 4.9201C4.41023 5.64663 4 6.70946 4 8.0263V15.9734C4 17.2912 4.4086 18.3539 5.08449 19.08C5.75472 19.8 6.74336 20.2497 8.03209 20.2497H16.4657C17.755 20.2497 18.7442 19.7999 19.4147 19.0799C20.0909 18.3538 20.4997 17.2911 20.4997 15.9734V8.0263C20.4997 6.70862 20.0909 5.64593 19.4148 4.91982C18.7443 4.19974 17.7554 3.75 16.4667 3.75H8.03209C6.74823 3.75 5.75918 4.19942 5.08743 4.9201Z" fill="#000000" />
</svg>