<svg width="24px"  height="24px"  viewBox="0 0 25 24" fill="none" xmlns="http://www.w3.org/2000/svg">
<path fill-rule="evenodd" clip-rule="evenodd" d="M15.3046 9.86205C14.1239 8.6814 12.2097 8.6814 11.029 9.86205C9.84839 11.0427 9.84839 12.9569 11.029 14.1376C12.2097 15.3182 14.1239 15.3182 15.3046 14.1376C15.5975 13.8447 16.0723 13.8447 16.3652 14.1376C16.6581 14.4305 16.6581 14.9053 16.3652 15.1982C14.5988 16.9647 11.7348 16.9647 9.96839 15.1982C8.20194 13.4318 8.20194 10.5678 9.96839 8.80139C11.7348 7.03495 14.5988 7.03495 16.3652 8.80139C16.6581 9.09429 16.6581 9.56916 16.3652 9.86205C16.0723 10.1549 15.5975 10.1549 15.3046 9.86205Z" fill="#000000" />
<path fill-rule="evenodd" clip-rule="evenodd" d="M18.4478 6.16626C16.2605 3.97896 13.15 3.27562 10.3673 4.06005C9.96867 4.17244 9.55437 3.94036 9.44199 3.54168C9.3296 3.14301 9.56168 2.72871 9.96036 2.61632C13.2443 1.69059 16.9219 2.51909 19.5084 5.1056C23.316 8.91321 23.316 15.0866 19.5084 18.8942C15.7008 22.7018 9.52746 22.7018 5.71985 18.8942C3.06593 16.2403 2.26285 12.4378 3.30655 9.0901C3.42984 8.69465 3.85035 8.47403 4.24579 8.59732C4.64123 8.7206 4.86185 9.14111 4.73857 9.53656C3.85426 12.373 4.53626 15.5893 6.78051 17.8335C10.0023 21.0554 15.2259 21.0554 18.4478 17.8335C21.6696 14.6117 21.6696 9.38809 18.4478 6.16626Z" fill="#000000" />
<path fill-rule="evenodd" clip-rule="evenodd" d="M6.36036 4.68994C5.82916 4.68994 5.39844 5.12056 5.39844 5.65239C5.39844 6.18422 5.82916 6.61484 6.36036 6.61484C6.89217 6.61484 7.32334 6.18362 7.32334 5.65239C7.32334 5.12116 6.89217 4.68994 6.36036 4.68994ZM3.89844 5.65239C3.89844 4.2927 5.00017 3.18994 6.36036 3.18994C7.71996 3.18994 8.82334 4.2921 8.82334 5.65239C8.82334 7.01267 7.71997 8.11484 6.36036 8.11484C5.00016 8.11484 3.89844 7.01208 3.89844 5.65239Z" fill="#000000" />
</svg>