<svg width="24px"  height="24px"  viewBox="0 0 25 24" fill="none" xmlns="http://www.w3.org/2000/svg">
<path fill-rule="evenodd" clip-rule="evenodd" d="M10.1764 8.02895C13.3153 4.89009 18.4044 4.89009 21.5432 8.02895L21.0359 8.53622L21.5432 8.02895C22.363 8.84872 22.363 10.1778 21.5432 10.9976C20.7235 11.8174 19.3943 11.8174 18.5746 10.9976C17.0753 9.49826 14.6444 9.49826 13.145 10.9976C11.6457 12.4969 11.6457 14.9278 13.145 16.4271C14.6444 17.9264 17.0753 17.9264 18.5746 16.4271C19.3943 15.6074 20.7235 15.6074 21.5432 16.4271C22.363 17.2469 22.363 18.576 21.5432 19.3958C18.4044 22.5346 13.3153 22.5346 10.1764 19.3958C7.03755 16.2569 7.03755 11.1678 10.1764 8.02895ZM20.4826 9.08961C17.9295 6.53654 13.7901 6.53654 11.2371 9.08961C8.684 11.6427 8.684 15.782 11.2371 18.3351C13.7901 20.8882 17.9295 20.8882 20.4826 18.3351C20.7165 18.1011 20.7165 17.7218 20.4826 17.4878C20.2486 17.2538 19.8692 17.2538 19.6352 17.4878C17.5501 19.5729 14.1695 19.5729 12.0844 17.4878C9.99927 15.4027 9.99928 12.022 12.0844 9.93693C14.1695 7.85181 17.5501 7.85181 19.6352 9.93693C19.8692 10.1709 20.2486 10.1709 20.4826 9.93693C20.7165 9.70295 20.7165 9.32359 20.4826 9.08961Z" fill="#000000" />
<path fill-rule="evenodd" clip-rule="evenodd" d="M5.53224 3.75C5.00103 3.75 4.57031 4.18062 4.57031 4.71245C4.57031 5.24428 5.00103 5.6749 5.53224 5.6749C6.06404 5.6749 6.49521 5.24368 6.49521 4.71245C6.49521 4.18122 6.06405 3.75 5.53224 3.75ZM3.07031 4.71245C3.07031 3.35275 4.17204 2.25 5.53224 2.25C6.89184 2.25 7.99521 3.35216 7.99521 4.71245C7.99521 6.07273 6.89184 7.1749 5.53224 7.1749C4.17204 7.1749 3.07031 6.07213 3.07031 4.71245Z" fill="#000000" />
</svg>