<svg width="24px"  height="24px"  viewBox="0 0 25 24" fill="none" xmlns="http://www.w3.org/2000/svg">
<path fill-rule="evenodd" clip-rule="evenodd" d="M10.0758 4.72995C8.76922 3.42335 6.6508 3.42335 5.34421 4.72995C4.03761 6.03655 4.03761 8.15496 5.34421 9.46156C5.39184 9.50919 5.44048 9.55503 5.49005 9.59909C5.70611 9.79113 5.79257 10.0902 5.7123 10.3679C4.95518 12.9871 5.60946 15.9247 7.67127 17.9865C10.6893 21.0045 15.5825 21.0045 18.6006 17.9865C21.6186 14.9684 21.6186 10.0752 18.6006 7.05713C16.5388 4.99537 13.6014 4.34108 10.9822 5.09811C10.7045 5.17838 10.4054 5.09191 10.2134 4.87585C10.1693 4.82626 10.1235 4.7776 10.0758 4.72995ZM11.0043 3.54195C9.10384 1.7779 6.13249 1.82035 4.28355 3.66929C2.43463 5.5182 2.39216 8.4895 4.15613 10.39C3.44472 13.3988 4.26177 16.6983 6.61061 19.0471C10.2144 22.651 16.0574 22.651 19.6613 19.0471C23.2651 15.4433 23.2651 9.60031 19.6613 5.99647C17.3125 3.64768 14.0131 2.83063 11.0043 3.54195Z" fill="#000000" />
<path fill-rule="evenodd" clip-rule="evenodd" d="M15.4775 11.3699C14.5117 10.4041 12.9458 10.4041 11.98 11.3699C11.0142 12.3357 11.0142 13.9016 11.98 14.8674C12.9458 15.8332 14.5117 15.8332 15.4775 14.8674C15.7704 14.5745 16.2453 14.5745 16.5382 14.8674C16.8311 15.1603 16.8311 15.6352 16.5382 15.9281C14.9866 17.4797 12.4709 17.4797 10.9193 15.9281C9.36771 14.3765 9.36771 11.8608 10.9193 10.3092C12.4709 8.75761 14.9866 8.75761 16.5382 10.3092C16.8311 10.6021 16.8311 11.077 16.5382 11.3699C16.2453 11.6628 15.7704 11.6628 15.4775 11.3699Z" fill="#000000" />
<path fill-rule="evenodd" clip-rule="evenodd" d="M7.86816 8.10617C7.86816 7.58448 8.29099 7.16113 8.81316 7.16113C9.33473 7.16113 9.75827 7.58388 9.75827 8.10617C9.75827 8.62846 9.33473 9.05121 8.81316 9.05121C8.29098 9.05121 7.86816 8.62786 7.86816 8.10617Z" fill="#000000" />
</svg>