<svg width="24px"  height="24px"  viewBox="0 0 25 24" fill="none" xmlns="http://www.w3.org/2000/svg">
<path fill-rule="evenodd" clip-rule="evenodd" d="M21.0839 16.0252C20.1142 15.0554 18.5418 15.0554 17.5721 16.0252C16.6023 16.995 16.6023 18.5673 17.5721 19.5371C18.5418 20.5068 20.1142 20.5068 21.0839 19.5371C21.3768 19.2442 21.8517 19.2442 22.1446 19.5371C22.4375 19.83 22.4375 20.3048 22.1446 20.5977C20.589 22.1533 18.067 22.1533 16.5114 20.5977C14.9558 19.0422 14.9558 16.5201 16.5114 14.9645C18.067 13.409 20.589 13.409 22.1446 14.9645C22.4375 15.2574 22.4375 15.7323 22.1446 16.0252C21.8517 16.3181 21.3768 16.3181 21.0839 16.0252Z" fill="#000000" />
<path fill-rule="evenodd" clip-rule="evenodd" d="M13.4336 13.5194C13.4336 12.9974 13.8567 12.5737 14.3792 12.5737C14.9011 12.5737 15.3249 12.9968 15.3249 13.5194C15.3249 14.042 14.9011 14.465 14.3792 14.465C13.8567 14.465 13.4336 14.0414 13.4336 13.5194Z" fill="#000000" />
<path fill-rule="evenodd" clip-rule="evenodd" d="M2.86426 3.18149C2.86426 2.65946 3.28735 2.23584 3.80986 2.23584C4.33178 2.23584 4.75559 2.65886 4.75559 3.18149C4.75559 3.70412 4.33178 4.12715 3.80986 4.12715C3.28735 4.12715 2.86426 3.70352 2.86426 3.18149Z" fill="#000000" />
<path fill-rule="evenodd" clip-rule="evenodd" d="M5.9043 4.51562C5.9043 3.82527 6.46394 3.26562 7.1543 3.26562H10.2543C10.6685 3.26562 11.0043 3.60141 11.0043 4.01562C11.0043 4.42984 10.6685 4.76562 10.2543 4.76562H7.4043V10.8957C7.4043 11.3099 7.06851 11.6457 6.6543 11.6457C6.24008 11.6457 5.9043 11.3099 5.9043 10.8957V4.51562Z" fill="#000000" />
<path fill-rule="evenodd" clip-rule="evenodd" d="M5.9043 7.74658C5.9043 7.33237 6.24008 6.99658 6.6543 6.99658H10.2543C10.6685 6.99658 11.0043 7.33237 11.0043 7.74658C11.0043 8.1608 10.6685 8.49658 10.2543 8.49658H6.6543C6.24008 8.49658 5.9043 8.1608 5.9043 7.74658Z" fill="#000000" />
<path fill-rule="evenodd" clip-rule="evenodd" d="M19.7244 10.0406C20.0172 10.3334 20.4919 10.3335 20.7848 10.0408L22.144 8.68258C22.437 8.38979 22.4372 7.91492 22.1444 7.62192C21.8516 7.32892 21.3767 7.32875 21.0837 7.62154L20.2549 8.44978L19.4268 7.62173C19.1339 7.32883 18.659 7.32883 18.3662 7.62173C18.0733 7.91462 18.0733 8.38949 18.3662 8.68239L19.7244 10.0406Z" fill="#000000" />
<path fill-rule="evenodd" clip-rule="evenodd" d="M20.2539 10.1821C20.6681 10.1821 21.0039 9.84634 21.0039 9.43213V6.20593C21.0039 4.56465 19.6736 3.23572 18.0337 3.23572H16.8574C16.4432 3.23572 16.1074 3.57151 16.1074 3.98572C16.1074 4.39994 16.4432 4.73572 16.8574 4.73572H18.0337C18.8456 4.73572 19.5039 5.3935 19.5039 6.20593V9.43213C19.5039 9.84634 19.8397 10.1821 20.2539 10.1821Z" fill="#000000" />
<path fill-rule="evenodd" clip-rule="evenodd" d="M6.50417 14.9311C6.21135 14.6383 5.73662 14.6382 5.44369 14.9309L4.08453 16.2891C3.79153 16.5819 3.79136 17.0568 4.08415 17.3498C4.37693 17.6428 4.85181 17.6429 5.14481 17.3501L5.97365 16.5219L6.8017 17.35C7.09459 17.6428 7.56947 17.6428 7.86236 17.35C8.15525 17.0571 8.15525 16.5822 7.86236 16.2893L6.50417 14.9311Z" fill="#000000" />
<path fill-rule="evenodd" clip-rule="evenodd" d="M5.97463 14.7896C5.56042 14.7896 5.22463 15.1253 5.22463 15.5396V18.7658C5.22463 20.407 6.55495 21.736 8.19483 21.736H9.37109C9.78531 21.736 10.1211 21.4002 10.1211 20.986C10.1211 20.5717 9.78531 20.236 9.37109 20.236H8.19483C7.38296 20.236 6.72463 19.5782 6.72463 18.7658V15.5396C6.72463 15.1253 6.38884 14.7896 5.97463 14.7896Z" fill="#000000" />
</svg>