<svg width="24px"  height="24px"  viewBox="0 0 25 24" fill="none" xmlns="http://www.w3.org/2000/svg">
<path fill-rule="evenodd" clip-rule="evenodd" d="M8.15189 4.68256C9.04926 3.49643 10.4853 2.54785 12.5547 2.54785C14.6241 2.54785 16.0601 3.49643 16.9575 4.68256C17.6364 5.57998 18.0112 6.61571 18.1448 7.48979C19.1848 7.62031 20.1379 8.04667 20.8743 8.75206C21.7771 9.61685 22.3047 10.8538 22.3047 12.3368C22.3047 14.3215 21.122 16.0285 19.4272 16.7944C19.0498 16.965 18.6055 16.7972 18.4349 16.4198C18.2643 16.0423 18.4321 15.5981 18.8095 15.4275C19.9869 14.8954 20.8047 13.7107 20.8047 12.3368C20.8047 11.2239 20.4172 10.3913 19.8367 9.8353C19.2507 9.27401 18.4181 8.94718 17.4513 8.94677C17.0373 8.94659 16.7017 8.61086 16.7017 8.19677C16.7017 7.5379 16.4314 6.47333 15.7613 5.58757C15.1143 4.73241 14.1018 4.04785 12.5547 4.04785C11.0075 4.04785 9.99509 4.73241 9.34811 5.58757C8.67799 6.47333 8.40771 7.5379 8.40771 8.19677C8.40771 8.60848 8.07583 8.94321 7.66414 8.94674C6.69456 8.95505 5.85963 9.28315 5.27275 9.8432C4.69225 10.3972 4.30469 11.2248 4.30469 12.3368C4.30469 13.711 5.12167 14.8954 6.29969 15.4274C6.67719 15.5979 6.84502 16.0421 6.67455 16.4196C6.50407 16.7971 6.05984 16.9649 5.68233 16.7945C3.98619 16.0285 2.80469 14.3213 2.80469 12.3368C2.80469 10.8528 3.33367 9.62022 4.23719 8.75802C4.97411 8.0548 5.92657 7.62967 6.96394 7.49407C7.09693 6.61909 7.47184 5.58144 8.15189 4.68256Z" fill="#000000" />
<path fill-rule="evenodd" clip-rule="evenodd" d="M11.7838 13.2739L10.5018 16.4021H11.5584C12.2229 16.4021 12.7068 17.032 12.5356 17.6741L12.3038 18.5435L14.2588 16.312H13.2067C12.5087 16.312 12.0205 15.6216 12.2531 14.9635C12.2584 14.9487 12.2641 14.934 12.2703 14.9195L12.9714 13.2739H11.7838ZM10.5128 12.4197C10.6634 12.031 11.0377 11.7739 11.4558 11.7739H13.7113C14.4093 11.7739 14.8975 12.4643 14.6649 13.1224C14.6596 13.1372 14.6539 13.1519 14.6477 13.1664L13.9466 14.812H15.3365C16.2058 14.812 16.6701 15.836 16.0972 16.4898L15.6845 16.1282L16.0972 16.4898L12.0534 21.1055C11.3484 21.9103 10.0397 21.2122 10.3154 20.1785L10.9224 17.9021H9.77327C9.07019 17.9021 8.5816 17.2024 8.82375 16.5423C8.82696 16.5336 8.83034 16.5249 8.83389 16.5162L10.5128 12.4197Z" fill="#000000" />
</svg>