<svg width="24px"  height="24px"  viewBox="0 0 25 24" fill="none" xmlns="http://www.w3.org/2000/svg">
<path fill-rule="evenodd" clip-rule="evenodd" d="M8.60025 4.19637C9.41872 3.11479 10.7296 2.25 12.614 2.25C14.4984 2.25 15.8095 3.11476 16.6281 4.19628C17.2322 4.99433 17.5722 5.91264 17.7009 6.6983C18.6243 6.83011 19.4732 7.21519 20.1342 7.84589C20.9617 8.63557 21.4438 9.76261 21.4438 11.1139C21.4438 12.9247 20.369 14.4895 18.8189 15.19C18.8091 15.1945 18.7991 15.1987 18.789 15.2028C18.1449 15.4608 17.5072 15.557 17.0077 15.557H8.21509C7.71151 15.557 7.07473 15.455 6.4394 15.1971C6.43038 15.1935 6.42143 15.1896 6.41256 15.1856C4.86459 14.4861 3.78418 12.9269 3.78418 11.1139C3.78418 9.76249 4.26663 8.63543 5.09438 7.8458C5.75546 7.21517 6.60456 6.83011 7.52798 6.6983C7.65655 5.91271 7.99633 4.99443 8.60025 4.19637ZM9.79637 5.10151C9.20524 5.88268 8.96771 6.82179 8.96771 7.39717C8.96771 7.80875 8.63602 8.14344 8.22446 8.14714C7.37118 8.15483 6.64096 8.44349 6.12976 8.93116C5.62499 9.41268 5.28418 10.1348 5.28418 11.1139C5.28418 12.311 5.99357 13.3441 7.01706 13.8127C7.46195 13.991 7.90079 14.057 8.21509 14.057H17.0077C17.3257 14.057 17.7664 13.994 18.2159 13.8164C19.2365 13.3484 19.9438 12.3126 19.9438 11.1139C19.9438 10.1347 19.6031 9.41254 19.0986 8.93107C18.5876 8.44348 17.8577 8.15483 17.0044 8.14714C16.5929 8.14344 16.2612 7.80875 16.2612 7.39717C16.2612 6.82191 16.0235 5.88282 15.4321 5.1016C14.8639 4.35096 13.9764 3.75 12.614 3.75C11.2517 3.75 10.3644 4.35093 9.79637 5.10151Z" fill="#000000" />
<path fill-rule="evenodd" clip-rule="evenodd" d="M11.859 14.1129C12.2423 14.2699 12.4257 14.708 12.2686 15.0913L11.2797 17.5041H11.8438C12.4592 17.5041 12.9101 18.078 12.7712 18.6721L13.5579 17.7742H13.1188C12.4616 17.7742 12.002 17.1243 12.221 16.5047C12.2263 16.4898 12.232 16.4751 12.2382 16.4606L13.0097 14.6499C13.1721 14.2688 13.6126 14.0915 13.9937 14.2539C14.3747 14.4162 14.552 14.8568 14.3897 15.2378L13.9481 16.2742H14.7662C15.5845 16.2742 16.0216 17.2383 15.4824 17.8538L14.9182 17.3596L15.4824 17.8538L12.3545 21.4241C11.6907 22.1817 10.4587 21.5245 10.7182 20.5513L11.1308 19.0041H10.463C9.80111 19.0041 9.34113 18.3454 9.5691 17.724C9.57231 17.7152 9.57569 17.7065 9.57923 17.6979L10.8806 14.5224C11.0377 14.1391 11.4758 13.9558 11.859 14.1129Z" fill="#000000" />
<path fill-rule="evenodd" clip-rule="evenodd" d="M7.68257 14.2697C8.06363 14.4321 8.24092 14.8726 8.07856 15.2537L7.6304 16.3055H8.46298C9.28264 16.3055 9.72044 17.2711 9.18031 17.8876L8.61619 17.3934L9.18031 17.8876L7.60473 19.686C7.33178 19.9976 6.85794 20.0288 6.54638 19.7559C6.23482 19.4829 6.20353 19.0091 6.47649 18.6975L7.25804 17.8055H6.80336C6.14518 17.8055 5.68485 17.1545 5.90419 16.534C5.90944 16.5191 5.91516 16.5044 5.92134 16.4899L6.6986 14.6657C6.86097 14.2846 7.3015 14.1073 7.68257 14.2697Z" fill="#000000" />
<path fill-rule="evenodd" clip-rule="evenodd" d="M17.9914 14.2697C18.3725 14.4321 18.5498 14.8726 18.3874 15.2537L17.9392 16.3055H18.7718C19.5915 16.3055 20.0293 17.2711 19.4892 17.8876L18.925 17.3934L19.4892 17.8876L17.9136 19.686C17.6406 19.9976 17.1668 20.0288 16.8552 19.7559C16.5437 19.4829 16.5124 19.0091 16.7853 18.6975L17.5669 17.8055H17.1122C16.454 17.8055 15.9937 17.1545 16.213 16.534C16.2183 16.5191 16.224 16.5044 16.2302 16.4899L17.0074 14.6657C17.1698 14.2846 17.6103 14.1073 17.9914 14.2697Z" fill="#000000" />
</svg>