<svg width="24px"  height="24px"  viewBox="0 0 25 24" fill="none" xmlns="http://www.w3.org/2000/svg">
<path fill-rule="evenodd" clip-rule="evenodd" d="M8.23529 7.10951C9.11578 5.94598 10.525 5.01562 12.5546 5.01562C12.9688 5.01562 13.3046 5.35141 13.3046 5.76562C13.3046 6.17984 12.9688 6.51562 12.5546 6.51562C11.047 6.51562 10.0614 7.18212 9.43142 8.01466C8.77826 8.87778 8.51502 9.91523 8.51502 10.5562C8.51502 10.9678 8.18333 11.3024 7.77177 11.3062C6.82737 11.3147 6.01477 11.6343 5.44396 12.1789C4.87959 12.7172 4.50195 13.5221 4.50195 14.6054C4.50195 15.4595 4.82562 16.2363 5.35807 16.8226C5.63654 17.1292 5.61372 17.6035 5.30708 17.882C5.00045 18.1605 4.52612 18.1377 4.24765 17.831C3.47439 16.9796 3.00195 15.8468 3.00195 14.6054C3.00195 13.1498 3.52123 11.94 4.40859 11.0935C5.12927 10.406 6.05946 9.9895 7.07204 9.85444C7.20411 8.99859 7.57153 7.98665 8.23529 7.10951Z" fill="#000000" />
<path fill-rule="evenodd" clip-rule="evenodd" d="M9.16554 15.958C10.3507 15.958 11.3115 16.9188 11.3115 18.104C11.3115 19.2892 10.3507 20.25 9.16554 20.25H5.6772C5.02804 20.25 4.50193 19.7238 4.50193 19.0748C4.50193 18.4258 5.02805 17.8996 5.6772 17.8996C5.83148 17.8996 5.97714 17.929 6.11035 17.9819C6.30631 18.0596 6.52594 18.0513 6.71547 17.959C6.90499 17.8666 7.0469 17.6988 7.10644 17.4966C7.36847 16.6065 8.19231 15.958 9.16554 15.958ZM12.8115 18.104C12.8115 16.0904 11.1792 14.458 9.16554 14.458C7.76195 14.458 6.54478 15.2507 5.93527 16.412C5.85026 16.4038 5.76417 16.3996 5.6772 16.3996C4.19967 16.3996 3.00193 17.5973 3.00193 19.0748C3.00193 20.5523 4.19968 21.75 5.6772 21.75H9.16554C11.1792 21.75 12.8115 20.1176 12.8115 18.104Z" fill="#000000" />
<path fill-rule="evenodd" clip-rule="evenodd" d="M15.4507 3.75C14.2655 3.75 13.3047 4.71078 13.3047 5.89599C13.3047 7.0812 14.2655 8.04198 15.4507 8.04198H18.939C19.5882 8.04198 20.1143 7.5158 20.1143 6.86682C20.1143 6.21779 19.5882 5.69163 18.939 5.69163C18.7847 5.69163 18.6391 5.72101 18.5059 5.77387C18.3099 5.85163 18.0903 5.84332 17.9007 5.75098C17.7112 5.65864 17.5693 5.4908 17.5098 5.28856C17.2477 4.3985 16.4239 3.75 15.4507 3.75ZM11.8047 5.89599C11.8047 3.88235 13.437 2.25 15.4507 2.25C16.8543 2.25 18.0714 3.04273 18.6809 4.20397C18.766 4.1958 18.852 4.19163 18.939 4.19163C20.4165 4.19163 21.6143 5.38932 21.6143 6.86682C21.6143 8.34429 20.4165 9.54198 18.939 9.54198H15.4507C13.437 9.54198 11.8047 7.90962 11.8047 5.89599Z" fill="#000000" />
<path fill-rule="evenodd" clip-rule="evenodd" d="M16.7173 8.14888C17.1031 7.99802 17.5381 8.18845 17.689 8.57421C17.8598 9.01109 17.975 9.44802 18.0378 9.85437C19.0503 9.98944 19.9803 10.406 20.7008 11.0935C21.5879 11.94 22.1069 13.1498 22.1069 14.6053C22.1069 16.551 20.952 18.2324 19.2866 18.985C19.2768 18.9894 19.2668 18.9937 19.2567 18.9977C18.5635 19.2754 17.8772 19.3789 17.341 19.3789H12.084C11.6698 19.3789 11.334 19.0431 11.334 18.6289C11.334 18.2147 11.6698 17.8789 12.084 17.8789H17.341C17.6957 17.8789 18.185 17.8086 18.6836 17.6114C19.8196 17.0912 20.6069 15.939 20.6069 14.6053C20.6069 13.5219 20.2294 12.717 19.6653 12.1787C19.0947 11.6342 18.2824 11.3146 17.338 11.3061C16.9265 11.3024 16.5948 10.9677 16.5948 10.5561C16.5948 10.1888 16.5071 9.67066 16.292 9.12053C16.1411 8.73476 16.3316 8.29974 16.7173 8.14888Z" fill="#000000" />
</svg>