<svg width="24px"  height="24px"  viewBox="0 0 25 24" fill="none" xmlns="http://www.w3.org/2000/svg">
<path fill-rule="evenodd" clip-rule="evenodd" d="M8.07498 6.96551C8.95138 5.80738 10.3541 4.88135 12.3742 4.88135C12.7884 4.88135 13.1242 5.21713 13.1242 5.63135C13.1242 6.04556 12.7884 6.38135 12.3742 6.38135C10.8762 6.38135 9.89702 7.04353 9.2711 7.87066C8.62204 8.72838 8.36049 9.75935 8.36049 10.396C8.36049 10.8076 8.02881 11.1422 7.61724 11.1459C6.67885 11.1544 5.87168 11.472 5.3048 12.0128C4.74436 12.5474 4.36914 13.3468 4.36914 14.4233C4.36914 15.2717 4.69066 16.0434 5.21957 16.6257C5.49804 16.9324 5.47522 17.4067 5.16858 17.6852C4.86195 17.9637 4.38763 17.9408 4.10915 17.6342C3.33942 16.7866 2.86914 15.659 2.86914 14.4233C2.86914 12.9745 3.38599 11.7702 4.26942 10.9274C4.98618 10.2437 5.91101 9.82927 6.91771 9.69442C7.04957 8.84318 7.41517 7.83743 8.07498 6.96551Z" fill="#000000" />
<path fill-rule="evenodd" clip-rule="evenodd" d="M14.584 6.06445C14.584 5.65024 14.9198 5.31445 15.334 5.31445L18.3594 5.31445C18.7736 5.31445 19.1094 5.65024 19.1094 6.06445C19.1094 6.47867 18.7736 6.81445 18.3594 6.81445L15.334 6.81445C14.9198 6.81445 14.584 6.47867 14.584 6.06445Z" fill="#000000" />
<path fill-rule="evenodd" clip-rule="evenodd" d="M16.96 3C16.96 2.58579 17.2957 2.25 17.71 2.25H21.1298C21.544 2.25 21.8798 2.58579 21.8798 3C21.8798 3.41421 21.544 3.75 21.1298 3.75H17.71C17.2957 3.75 16.96 3.41421 16.96 3Z" fill="#000000" />
<path fill-rule="evenodd" clip-rule="evenodd" d="M3.68359 20.8584C3.68359 20.4442 4.01938 20.1084 4.43359 20.1084L9.87254 20.1084C10.2868 20.1084 10.6225 20.4442 10.6225 20.8584C10.6225 21.2726 10.2868 21.6084 9.87254 21.6084L4.43359 21.6084C4.01938 21.6084 3.68359 21.2726 3.68359 20.8584Z" fill="#000000" />
<path fill-rule="evenodd" clip-rule="evenodd" d="M19.0098 21C19.0098 20.5858 19.3456 20.25 19.7598 20.25L21.4902 20.25C21.9044 20.25 22.2402 20.5858 22.2402 21C22.2402 21.4142 21.9044 21.75 21.4902 21.75L19.7598 21.75C19.3456 21.75 19.0098 21.4142 19.0098 21Z" fill="#000000" />
<path fill-rule="evenodd" clip-rule="evenodd" d="M6.40332 17.1299C6.40332 16.7157 6.73911 16.3799 7.15332 16.3799H10.5732C10.9874 16.3799 11.3232 16.7157 11.3232 17.1299C11.3232 17.5441 10.9874 17.8799 10.5732 17.8799H7.15332C6.73911 17.8799 6.40332 17.5441 6.40332 17.1299Z" fill="#000000" />
<path fill-rule="evenodd" clip-rule="evenodd" d="M4.9248 3C4.9248 2.58579 5.26059 2.25 5.6748 2.25H7.75237C8.16658 2.25 8.50237 2.58579 8.50237 3C8.50237 3.41421 8.16658 3.75 7.75237 3.75H5.6748C5.26059 3.75 4.9248 3.41421 4.9248 3Z" fill="#000000" />
<path fill-rule="evenodd" clip-rule="evenodd" d="M16.5134 7.998C16.8991 7.84714 17.3342 8.03757 17.485 8.42333C17.6546 8.85702 17.7692 9.2908 17.8317 9.69443C18.8384 9.82929 19.763 10.2437 20.4796 10.9275C21.3628 11.7703 21.8793 12.9746 21.8793 14.4233C21.8793 16.3601 20.7297 18.0338 19.0719 18.7829C19.0621 18.7874 19.0521 18.7916 19.042 18.7957C18.352 19.0721 17.6689 19.1751 17.1351 19.1751H12.8994C12.4852 19.1751 12.1494 18.8393 12.1494 18.4251C12.1494 18.0108 12.4852 17.6751 12.8994 17.6751H17.1351C17.4874 17.6751 17.9735 17.6053 18.469 17.4093C19.5973 16.8926 20.3793 15.748 20.3793 14.4233C20.3793 13.3467 20.0043 12.5473 19.4441 12.0127C18.8774 11.472 18.0705 11.1544 17.1322 11.1459C16.7206 11.1422 16.3889 10.8076 16.3889 10.396C16.3889 10.0313 16.3019 9.51639 16.0881 8.96965C15.9372 8.58389 16.1276 8.14886 16.5134 7.998Z" fill="#000000" />
</svg>