<svg width="24px"  height="24px"  viewBox="0 0 25 24" fill="none" xmlns="http://www.w3.org/2000/svg">
<path fill-rule="evenodd" clip-rule="evenodd" d="M8.15194 5.04334C9.04935 3.85743 10.4854 2.90918 12.5547 2.90918C14.624 2.90918 16.06 3.85743 16.9574 5.04334C17.6365 5.94065 18.0113 6.97632 18.1448 7.85038C19.1849 7.98125 20.1379 8.4078 20.8743 9.11331C21.7771 9.97819 22.3047 11.2151 22.3047 12.6981C22.3047 14.6828 21.122 16.3898 19.4272 17.1557C19.0498 17.3263 18.6055 17.1586 18.4349 16.7811C18.2643 16.4037 18.4321 15.9594 18.8095 15.7888C19.9869 15.2567 20.8047 14.0721 20.8047 12.6981C20.8047 11.5852 20.4172 10.7526 19.8367 10.1965C19.2506 9.63501 18.4179 9.30795 17.451 9.30713C17.0371 9.30677 16.7017 8.97109 16.7017 8.55713C16.7017 7.89828 16.4314 6.83398 15.7613 5.94848C15.1144 5.09358 14.1019 4.40918 12.5547 4.40918C11.0075 4.40918 9.995 5.09358 9.34806 5.94848C8.67798 6.83398 8.40771 7.89828 8.40771 8.55713C8.40771 8.96871 8.07603 9.30339 7.66446 9.3071C6.69478 9.31582 5.85975 9.64415 5.2728 10.2044C4.69224 10.7585 4.30469 11.5862 4.30469 12.6981C4.30469 14.0723 5.12167 15.2567 6.29969 15.7887C6.67719 15.9592 6.84502 16.4034 6.67455 16.7809C6.50407 17.1584 6.05984 17.3263 5.68233 17.1558C3.98619 16.3898 2.80469 14.6826 2.80469 12.6981C2.80469 11.2141 3.33368 9.98157 4.23715 9.11927C4.97407 8.41593 5.92653 7.9906 6.96391 7.85466C7.09688 6.9797 7.4718 5.94211 8.15194 5.04334Z" fill="#000000" />
<path fill-rule="evenodd" clip-rule="evenodd" d="M9.80078 13.418C10.215 13.418 10.5508 13.7538 10.5508 14.168V18.9657C10.5508 19.3799 10.215 19.7157 9.80078 19.7157C9.38657 19.7157 9.05078 19.3799 9.05078 18.9657V14.168C9.05078 13.7538 9.38657 13.418 9.80078 13.418ZM15.307 13.418C15.7212 13.418 16.057 13.7538 16.057 14.168V18.9657C16.057 19.3799 15.7212 19.7157 15.307 19.7157C14.8928 19.7157 14.557 19.3799 14.557 18.9657V14.168C14.557 13.7538 14.8928 13.418 15.307 13.418ZM12.5534 14.7943C12.9676 14.7943 13.3034 15.1301 13.3034 15.5443V20.343C13.3034 20.7572 12.9676 21.093 12.5534 21.093C12.1392 21.093 11.8034 20.7572 11.8034 20.343V15.5443C11.8034 15.1301 12.1392 14.7943 12.5534 14.7943Z" fill="#000000" />
</svg>