<svg width="24px"  height="24px"  viewBox="0 0 25 24" fill="none" xmlns="http://www.w3.org/2000/svg">
<path fill-rule="evenodd" clip-rule="evenodd" d="M8.15194 5.67957C9.04935 4.49366 10.4854 3.54541 12.5547 3.54541C14.624 3.54541 16.06 4.49366 16.9574 5.67957C17.6365 6.57688 18.0113 7.61255 18.1448 8.48662C19.1849 8.61748 20.1379 9.04403 20.8743 9.74954C21.7771 10.6144 22.3047 11.8513 22.3047 13.3343C22.3047 15.3191 21.122 17.0261 19.4272 17.7919C19.0498 17.9625 18.6055 17.7948 18.4349 17.4173C18.2643 17.0399 18.4321 16.5956 18.8095 16.425C19.9869 15.893 20.8047 14.7083 20.8047 13.3343C20.8047 12.2214 20.4172 11.3888 19.8367 10.8327C19.2506 10.2712 18.4179 9.94418 17.451 9.94336C17.0371 9.943 16.7017 9.60732 16.7017 9.19336C16.7017 8.53451 16.4314 7.47021 15.7613 6.58471C15.1144 5.72981 14.1019 5.04541 12.5547 5.04541C11.0075 5.04541 9.995 5.72981 9.34806 6.58471C8.67798 7.47021 8.40771 8.53451 8.40771 9.19336C8.40771 9.60494 8.07603 9.93962 7.66446 9.94333C6.69478 9.95205 5.85975 10.2804 5.2728 10.8406C4.69224 11.3947 4.30469 12.2224 4.30469 13.3343C4.30469 14.7085 5.12167 15.893 6.29969 16.425C6.67719 16.5954 6.84502 17.0397 6.67455 17.4172C6.50407 17.7947 6.05984 17.9625 5.68233 17.792C3.98619 17.0261 2.80469 15.3188 2.80469 13.3343C2.80469 11.8504 3.33368 10.6178 4.23715 9.7555C4.97407 9.05216 5.92653 8.62683 6.96391 8.49089C7.09688 7.61593 7.4718 6.57835 8.15194 5.67957Z" fill="#000000" />
<path fill-rule="evenodd" clip-rule="evenodd" d="M9.73833 15.8945C9.73833 15.4803 10.0741 15.1445 10.4883 15.1445H15.2841C15.6983 15.1445 16.0341 15.4803 16.0341 15.8945C16.0341 16.3087 15.6983 16.6445 15.2841 16.6445H10.4883C10.0741 16.6445 9.73833 16.3087 9.73833 15.8945ZM6.99805 19.7047C6.99805 19.2905 7.33383 18.9547 7.74805 18.9547H11.8589C12.2731 18.9547 12.6089 19.2905 12.6089 19.7047C12.6089 20.1189 12.2731 20.4547 11.8589 20.4547H7.74805C7.33383 20.4547 6.99805 20.1189 6.99805 19.7047ZM14.5348 19.7047C14.5348 19.2905 14.8706 18.9547 15.2848 18.9547H17.3397C17.7539 18.9547 18.0897 19.2905 18.0897 19.7047C18.0897 20.1189 17.7539 20.4547 17.3397 20.4547H15.2848C14.8706 20.4547 14.5348 20.1189 14.5348 19.7047Z" fill="#000000" />
</svg>