<svg width="24px"  height="24px"  viewBox="0 0 25 24" fill="none" xmlns="http://www.w3.org/2000/svg">
<path fill-rule="evenodd" clip-rule="evenodd" d="M8.15194 5.30066C9.04935 4.11476 10.4854 3.1665 12.5547 3.1665C14.624 3.1665 16.06 4.11476 16.9574 5.30066C17.6365 6.19797 18.0113 7.23364 18.1448 8.10771C19.1849 8.23857 20.1379 8.66512 20.8743 9.37063C21.7771 10.2355 22.3047 11.4724 22.3047 12.9554C22.3047 14.9402 21.122 16.6472 19.4272 17.413C19.0498 17.5836 18.6055 17.4159 18.4349 17.0384C18.2643 16.661 18.4321 16.2167 18.8095 16.0461C19.9869 15.5141 20.8047 14.3294 20.8047 12.9554C20.8047 11.8425 20.4172 11.0099 19.8367 10.4538C19.2506 9.89233 18.4179 9.56528 17.451 9.56445C17.0371 9.5641 16.7017 9.22841 16.7017 8.81445C16.7017 8.1556 16.4314 7.0913 15.7613 6.20581C15.1144 5.3509 14.1019 4.6665 12.5547 4.6665C11.0075 4.6665 9.995 5.3509 9.34806 6.20581C8.67798 7.0913 8.40771 8.1556 8.40771 8.81445C8.40771 9.22603 8.07603 9.56071 7.66446 9.56442C6.69478 9.57315 5.85975 9.90148 5.2728 10.4617C4.69224 11.0158 4.30469 11.8435 4.30469 12.9554C4.30469 14.3296 5.12167 15.5141 6.29969 16.0461C6.67719 16.2165 6.84502 16.6608 6.67455 17.0383C6.50407 17.4158 6.05984 17.5836 5.68233 17.4131C3.98619 16.6472 2.80469 14.9399 2.80469 12.9554C2.80469 11.4715 3.33368 10.2389 4.23715 9.37659C4.97407 8.67325 5.92653 8.24793 6.96391 8.11199C7.09688 7.23703 7.4718 6.19944 8.15194 5.30066Z" fill="#000000" />
<path fill-rule="evenodd" clip-rule="evenodd" d="M15.2991 14.9885C15.7068 14.9153 16.0967 15.1865 16.1698 15.5942L16.1766 15.6321C16.2498 16.0398 15.9786 16.4297 15.5709 16.5028C15.1632 16.576 14.7734 16.3048 14.7002 15.8971L14.6934 15.8592C14.6203 15.4515 14.8914 15.0617 15.2991 14.9885ZM9.80911 14.989C10.2168 15.0621 10.488 15.452 10.4148 15.8597L10.408 15.8976C10.3348 16.3053 9.94501 16.5765 9.53731 16.5033C9.12961 16.4301 8.85843 16.0403 8.9316 15.6326L8.93841 15.5947C9.01159 15.187 9.40141 14.9158 9.80911 14.989ZM12.4182 16.4294C12.8259 16.3562 13.2157 16.6274 13.2889 17.0351L13.2957 17.0731C13.3689 17.4808 13.0977 17.8706 12.69 17.9438C12.2823 18.017 11.8925 17.7458 11.8193 17.3381L11.8125 17.3001C11.7393 16.8924 12.0105 16.5026 12.4182 16.4294ZM9.80589 17.8679C10.2139 17.9393 10.4868 18.3279 10.4154 18.7359L10.4086 18.7748C10.3372 19.1829 9.94854 19.4557 9.54053 19.3843C9.13251 19.3129 8.85963 18.9243 8.93103 18.5163L8.93784 18.4774C9.00924 18.0693 9.39788 17.7965 9.80589 17.8679ZM15.5677 17.8679C15.9757 17.9393 16.2486 18.3279 16.1772 18.7359L16.1704 18.7748C16.099 19.1828 15.7104 19.4557 15.3024 19.3843C14.8943 19.3129 14.6215 18.9243 14.6929 18.5163L14.6997 18.4774C14.7711 18.0694 15.1597 17.7965 15.5677 17.8679ZM12.6868 19.3083C13.0948 19.3797 13.3677 19.7684 13.2963 20.1764L13.2895 20.2153C13.2181 20.6233 12.8294 20.8962 12.4214 20.8248C12.0134 20.7534 11.7405 20.3647 11.8119 19.9567L11.8188 19.9178C11.8902 19.5098 12.2788 19.2369 12.6868 19.3083Z" fill="#000000" />
</svg>