<svg width="24px"  height="24px"  viewBox="0 0 25 24" fill="none" xmlns="http://www.w3.org/2000/svg">
<path fill-rule="evenodd" clip-rule="evenodd" d="M14.8564 14.4531C13.274 14.4531 11.9912 15.7359 11.9912 17.3183C11.9912 18.9007 13.274 20.1834 14.8564 20.1834H19.211C20.1242 20.1834 20.8644 19.4432 20.8644 18.5302C20.8644 17.6171 20.1242 16.8769 19.211 16.8769C18.9945 16.8769 18.7893 16.9182 18.6016 16.9927C18.4056 17.0705 18.186 17.0622 17.9964 16.9698C17.8069 16.8775 17.665 16.7096 17.6055 16.5074C17.2557 15.3192 16.1561 14.4531 14.8564 14.4531ZM10.4912 17.3183C10.4912 14.9075 12.4455 12.9531 14.8564 12.9531C16.582 12.9531 18.0726 13.9541 18.7813 15.4061C18.922 15.3868 19.0654 15.3769 19.211 15.3769C20.9526 15.3769 22.3644 16.7887 22.3644 18.5302C22.3644 20.2717 20.9526 21.6834 19.211 21.6834H14.8564C12.4455 21.6834 10.4912 19.7291 10.4912 17.3183Z" fill="#000000" />
<path fill-rule="evenodd" clip-rule="evenodd" d="M9.0545 3.81641C10.2476 3.81641 11.2148 4.78361 11.2148 5.97675C11.2148 6.39096 11.5506 6.72675 11.9648 6.72675C12.3791 6.72675 12.7148 6.39096 12.7148 5.97675C12.7148 3.95519 11.0761 2.31641 9.0545 2.31641C7.64449 2.31641 6.42187 3.11327 5.81035 4.28029C5.72423 4.27193 5.637 4.26766 5.54887 4.26766C4.06606 4.26766 2.86405 5.46963 2.86405 6.9524C2.86405 8.43514 4.06607 9.6371 5.54887 9.6371H9.0545C9.46871 9.6371 9.8045 9.30131 9.8045 8.8871C9.8045 8.47288 9.46871 8.1371 9.0545 8.1371H5.54887C4.89444 8.1371 4.36405 7.60665 4.36405 6.9524C4.36405 6.2981 4.89445 5.76766 5.54887 5.76766C5.70439 5.76766 5.85123 5.79728 5.98554 5.85057C6.18149 5.92833 6.40113 5.92002 6.59066 5.82768C6.78018 5.73534 6.92209 5.5675 6.98163 5.36526C7.24541 4.46925 8.07475 3.81641 9.0545 3.81641Z" fill="#000000" />
<path fill-rule="evenodd" clip-rule="evenodd" d="M9.33755 7.19916C10.167 6.10301 11.4954 5.22656 13.4057 5.22656C15.3159 5.22656 16.6444 6.10299 17.4741 7.19907C18.0889 8.01117 18.4338 8.9461 18.5631 9.74429C19.5023 9.8767 20.3657 10.2674 21.0372 10.9082C21.8753 11.708 22.364 12.8497 22.364 14.2196C22.364 15.311 21.9779 16.3159 21.3344 17.0992C21.0715 17.4193 20.5989 17.4656 20.2788 17.2027C19.9587 16.9397 19.9124 16.4671 20.1754 16.1471C20.606 15.6229 20.864 14.9519 20.864 14.2196C20.864 13.2218 20.5168 12.485 20.0017 11.9934C19.4801 11.4957 18.7355 11.2015 17.866 11.1937C17.4545 11.19 17.1228 10.8553 17.1228 10.4437C17.1228 9.85678 16.8805 8.90019 16.2781 8.1044C15.6989 7.33918 14.7939 6.72656 13.4057 6.72656C12.0175 6.72656 11.1127 7.33916 10.5337 8.10431C9.93151 8.90005 9.6894 9.85665 9.6894 10.4437C9.6894 10.8553 9.35772 11.19 8.94616 11.1937C8.07667 11.2015 7.3318 11.4957 6.81 11.9935C6.29463 12.4851 5.94727 13.2219 5.94727 14.2196C5.94727 15.4407 6.67094 16.4944 7.71495 16.9723C8.16847 17.1541 8.61591 17.2215 8.93674 17.2215H11.2369C11.6511 17.2215 11.9869 17.5572 11.9869 17.9715C11.9869 18.3857 11.6511 18.7215 11.2369 18.7215H8.93674C8.42663 18.7215 7.78125 18.618 7.13728 18.3567C7.12826 18.3531 7.11932 18.3492 7.11045 18.3452C5.54196 17.6364 4.44727 16.0566 4.44727 14.2196C4.44727 12.8496 4.93627 11.7078 5.77462 10.9081C6.4463 10.2674 7.30981 9.8767 8.24907 9.74429C8.37829 8.94617 8.723 8.01127 9.33755 7.19916Z" fill="#000000" />
<path fill-rule="evenodd" clip-rule="evenodd" d="M17.1683 3.97914C17.1443 3.99351 17.1188 4.00879 17.0904 4.02499C16.7307 4.23032 16.2726 4.10516 16.0673 3.74543C15.8619 3.3857 15.9871 2.92761 16.3468 2.72227C16.3558 2.71715 16.3678 2.70978 16.3826 2.70061C16.5014 2.62734 16.8068 2.43894 17.2795 2.35836C17.7993 2.26975 18.4734 2.31035 19.3848 2.58823C20.1141 2.81055 20.5565 2.78012 20.8009 2.72866C20.9263 2.70224 21.0204 2.66598 21.0997 2.63162C21.1045 2.62956 21.1162 2.62437 21.1311 2.61773C21.1662 2.60217 21.2191 2.57864 21.2427 2.56885C21.2438 2.56841 21.2452 2.56779 21.247 2.56701C21.2799 2.55295 21.4326 2.48764 21.6136 2.48764C22.0278 2.48764 22.3636 2.82342 22.3636 3.23764C22.3636 3.59199 22.1179 3.88894 21.7875 3.96737C21.7853 3.9684 21.783 3.96945 21.7805 3.97059C21.7657 3.97732 21.7449 3.98684 21.6958 4.0081C21.562 4.06603 21.3674 4.14224 21.11 4.19646C20.5885 4.30628 19.8882 4.30984 18.9474 4.02303C18.1889 3.79179 17.7584 3.79837 17.5315 3.83703C17.3555 3.86705 17.2775 3.91371 17.1683 3.97914ZM21.8183 3.95403C21.8382 3.94574 21.8341 3.94915 21.8127 3.95635C21.8145 3.95561 21.8163 3.95484 21.8183 3.95403Z" fill="#000000" />
<path fill-rule="evenodd" clip-rule="evenodd" d="M21.201 7.37434C20.7319 7.47313 20.1097 7.47437 19.2832 7.22238C18.887 7.10159 18.6637 6.68247 18.7845 6.28626C18.9053 5.89006 19.3244 5.66679 19.7206 5.78758C20.3356 5.97508 20.6999 5.94696 20.8918 5.90654C20.9911 5.88564 21.0654 5.85707 21.1302 5.82902C21.1324 5.82808 21.1396 5.82489 21.1496 5.82045C21.1792 5.80729 21.2335 5.78318 21.255 5.77425C21.2558 5.77392 21.257 5.77341 21.2585 5.77275C21.2867 5.76062 21.436 5.69629 21.6146 5.69629C22.0288 5.69629 22.3646 6.03208 22.3646 6.44629C22.3646 6.79711 22.1237 7.09166 21.7983 7.17361C21.7868 7.17891 21.769 7.18698 21.7263 7.2055C21.6071 7.25712 21.4322 7.32564 21.201 7.37434ZM21.8306 7.15942C21.8479 7.15223 21.8432 7.15572 21.8224 7.16285C21.8248 7.16183 21.8275 7.1607 21.8306 7.15942Z" fill="#000000" />
<path fill-rule="evenodd" clip-rule="evenodd" d="M5.72267 19.9541C5.16598 19.8368 4.41305 19.8317 3.39549 20.1419C2.99928 20.2627 2.77602 20.6819 2.89681 21.0781C3.01761 21.4743 3.43672 21.6975 3.83293 21.5767C4.63895 21.331 5.13399 21.363 5.41355 21.4219C5.55661 21.452 5.66395 21.4934 5.75312 21.532C5.75973 21.5349 5.77416 21.5413 5.79194 21.5492C5.82991 21.5661 5.88317 21.5897 5.90829 21.6002C5.90953 21.6007 5.91115 21.6014 5.91313 21.6022C5.94902 21.6175 6.10407 21.6836 6.28686 21.6836C6.70108 21.6836 7.03686 21.3478 7.03686 20.9336C7.03686 20.5771 6.78809 20.2786 6.45467 20.2024C6.45011 20.2004 6.44556 20.1983 6.44041 20.196C6.42357 20.1883 6.40029 20.1777 6.34919 20.1556C6.2056 20.0934 5.99774 20.012 5.72267 19.9541ZM6.48387 20.215C6.50562 20.2241 6.50203 20.2207 6.48027 20.2135C6.48143 20.214 6.48263 20.2145 6.48387 20.215Z" fill="#000000" />
</svg>