<svg width="24px"  height="24px"  viewBox="0 0 25 24" fill="none" xmlns="http://www.w3.org/2000/svg">
<path fill-rule="evenodd" clip-rule="evenodd" d="M8.15189 5.31879C9.04926 4.13266 10.4853 3.18408 12.5547 3.18408C14.6241 3.18408 16.0601 4.13266 16.9575 5.31879C17.6364 6.21621 18.0112 7.25194 18.1448 8.12602C19.1848 8.25654 20.1379 8.6829 20.8743 9.38829C21.7771 10.2531 22.3047 11.49 22.3047 12.973C22.3047 14.9577 21.122 16.6647 19.4272 17.4306C19.0498 17.6012 18.6055 17.4335 18.4349 17.056C18.2643 16.6786 18.4321 16.2343 18.8095 16.0637C19.9869 15.5316 20.8047 14.347 20.8047 12.973C20.8047 11.8601 20.4172 11.0275 19.8367 10.4715C19.2507 9.91024 18.4181 9.58341 17.4513 9.583C17.0373 9.58282 16.7017 9.24709 16.7017 8.833C16.7017 8.17413 16.4314 7.10956 15.7613 6.2238C15.1143 5.36864 14.1018 4.68408 12.5547 4.68408C11.0075 4.68408 9.99509 5.36864 9.34811 6.2238C8.67799 7.10956 8.40771 8.17413 8.40771 8.833C8.40771 9.24471 8.07583 9.57944 7.66414 9.58297C6.69456 9.59129 5.85963 9.91938 5.27275 10.4794C4.69225 11.0334 4.30469 11.8611 4.30469 12.973C4.30469 14.3472 5.12167 15.5316 6.29969 16.0636C6.67719 16.2341 6.84502 16.6783 6.67455 17.0558C6.50407 17.4333 6.05984 17.6012 5.68233 17.4307C3.98619 16.6647 2.80469 14.9575 2.80469 12.973C2.80469 11.489 3.33367 10.2565 4.23719 9.39425C4.97411 8.69103 5.92657 8.2659 6.96394 8.1303C7.09693 7.25533 7.47184 6.21767 8.15189 5.31879Z" fill="#000000" />
<path fill-rule="evenodd" clip-rule="evenodd" d="M12.9217 12.5678C13.2856 12.7657 13.4202 13.2211 13.2223 13.585L11.9647 15.8977H14.4053C14.6699 15.8977 14.9149 16.0371 15.0501 16.2646C15.1852 16.4921 15.1905 16.774 15.0639 17.0064L13.2017 20.4255C13.0035 20.7892 12.548 20.9235 12.1843 20.7253C11.8205 20.5272 11.6863 20.0717 11.8844 19.708L13.1427 17.3977H10.7031C10.4386 17.3977 10.1936 17.2583 10.0584 17.0309C9.92327 16.8036 9.91787 16.5218 10.0442 16.2894L11.9046 12.8684C12.1025 12.5045 12.5579 12.3699 12.9217 12.5678Z" fill="#000000" />
</svg>