<svg width="24px"  height="24px"  viewBox="0 0 25 24" fill="none" xmlns="http://www.w3.org/2000/svg">
<path fill-rule="evenodd" clip-rule="evenodd" d="M15.3411 4.729C18.3915 4.729 20.8643 7.2018 20.8643 10.2522C20.8643 11.8341 20.2002 13.2596 19.1336 14.2675C18.8326 14.552 18.8191 15.0267 19.1036 15.3277C19.3881 15.6288 19.8628 15.6422 20.1638 15.3577C21.5178 14.0783 22.3643 12.2635 22.3643 10.2522C22.3643 6.37337 19.2199 3.229 15.3411 3.229C12.4183 3.229 9.91383 5.01392 8.85575 7.55204C8.51057 7.47532 8.15211 7.4349 7.78474 7.4349C5.06715 7.4349 2.86426 9.63775 2.86426 12.3552C2.86426 15.0726 5.06716 17.2754 7.78474 17.2754H10.1949C10.6091 17.2754 10.9449 16.9396 10.9449 16.5254C10.9449 16.1112 10.6091 15.7754 10.1949 15.7754H7.78474C5.89553 15.7754 4.36426 14.2441 4.36426 12.3552C4.36426 10.4662 5.89554 8.9349 7.78474 8.9349C8.23133 8.9349 8.65619 9.0202 9.04559 9.17471C9.24155 9.25247 9.46118 9.24416 9.65071 9.15182C9.84023 9.05948 9.98214 8.89164 10.0417 8.6894C10.7159 6.3994 12.8345 4.729 15.3411 4.729Z" fill="#000000" />
<path fill-rule="evenodd" clip-rule="evenodd" d="M14.204 12.8433C12.4291 12.8433 10.9902 14.2821 10.9902 16.0571C10.9902 17.832 12.4291 19.2709 14.204 19.2709H18.9786C20.0198 19.2709 20.8638 18.4269 20.8638 17.3859C20.8638 16.3448 20.0198 15.5008 18.9786 15.5008C18.7319 15.5008 18.498 15.5479 18.2837 15.6329C18.0878 15.7106 17.8682 15.7023 17.6786 15.61C17.4891 15.5176 17.3472 15.3498 17.2877 15.1476C16.8953 13.8149 15.6621 12.8433 14.204 12.8433ZM9.49023 16.0571C9.49023 13.4537 11.6007 11.3433 14.204 11.3433C16.0862 11.3433 17.7095 12.446 18.4654 14.0396C18.6329 14.014 18.8043 14.0008 18.9786 14.0008C20.8482 14.0008 22.3638 15.5163 22.3638 17.3859C22.3638 19.2554 20.8482 20.7709 18.9786 20.7709H14.204C11.6007 20.7709 9.49023 18.6604 9.49023 16.0571Z" fill="#000000" />
</svg>