<svg width="24px"  height="24px"  viewBox="0 0 25 24" fill="none" xmlns="http://www.w3.org/2000/svg">
<path fill-rule="evenodd" clip-rule="evenodd" d="M15.3411 6.47656C18.3915 6.47656 20.8643 8.94936 20.8643 11.9998C20.8643 15.0502 18.3915 17.523 15.3411 17.523H7.78474C5.89553 17.523 4.36426 15.9916 4.36426 14.1028C4.36426 12.2138 5.89554 10.6825 7.78474 10.6825C8.23133 10.6825 8.65619 10.7678 9.04559 10.9223C9.24155 11 9.46118 10.9917 9.65071 10.8994C9.84023 10.807 9.98214 10.6392 10.0417 10.437C10.7159 8.14696 12.8345 6.47656 15.3411 6.47656ZM22.3643 11.9998C22.3643 8.12093 19.2199 4.97656 15.3411 4.97656C12.4183 4.97656 9.91383 6.76148 8.85575 9.2996C8.51057 9.22288 8.15211 9.18246 7.78474 9.18246C5.06715 9.18246 2.86426 11.3853 2.86426 14.1028C2.86426 16.8201 5.06716 19.023 7.78474 19.023H15.3411C19.2199 19.023 22.3643 15.8786 22.3643 11.9998Z" fill="#000000" />
</svg>