<svg width="24px"  height="24px"  viewBox="0 0 25 24" fill="none" xmlns="http://www.w3.org/2000/svg">
<path fill-rule="evenodd" clip-rule="evenodd" d="M8.15194 4.45154C9.04935 3.26564 10.4854 2.31738 12.5547 2.31738C14.624 2.31738 16.06 3.26564 16.9574 4.45154C17.6365 5.34885 18.0113 6.38452 18.1448 7.25859C19.1849 7.38945 20.1379 7.816 20.8743 8.52151C21.7771 9.3864 22.3047 10.6233 22.3047 12.1063C22.3047 14.091 21.122 15.798 19.4272 16.5639C19.0498 16.7345 18.6055 16.5668 18.4349 16.1893C18.2643 15.8119 18.4321 15.3676 18.8095 15.197C19.9869 14.6649 20.8047 13.4803 20.8047 12.1063C20.8047 10.9934 20.4172 10.1608 19.8367 9.60466C19.2506 9.04321 18.4179 8.71616 17.451 8.71533C17.0371 8.71497 16.7017 8.37929 16.7017 7.96533C16.7017 7.30648 16.4314 6.24218 15.7613 5.35669C15.1144 4.50178 14.1019 3.81738 12.5547 3.81738C11.0075 3.81738 9.995 4.50178 9.34806 5.35669C8.67798 6.24218 8.40771 7.30648 8.40771 7.96533C8.40771 8.37691 8.07603 8.71159 7.66446 8.7153C6.69478 8.72403 5.85975 9.05236 5.2728 9.61256C4.69224 10.1667 4.30469 10.9944 4.30469 12.1063C4.30469 13.4805 5.12167 14.6649 6.29969 15.1969C6.67719 15.3674 6.84502 15.8116 6.67455 16.1891C6.50407 16.5666 6.05984 16.7345 5.68233 16.564C3.98619 15.798 2.80469 14.0908 2.80469 12.1063C2.80469 10.6223 3.33368 9.38977 4.23715 8.52747C4.97407 7.82413 5.92653 7.3988 6.96391 7.26287C7.09688 6.3879 7.4718 5.35032 8.15194 4.45154Z" fill="#000000" />
<path fill-rule="evenodd" clip-rule="evenodd" d="M12.4223 20.1457C12.83 20.0725 13.2198 20.3437 13.293 20.7514L13.3018 20.8002C13.375 21.2079 13.1038 21.5978 12.6961 21.6709C12.2884 21.7441 11.8985 21.4729 11.8254 21.0652L11.8166 21.0164C11.7434 20.6087 12.0146 20.2189 12.4223 20.1457Z" fill="#000000" />
<path fill-rule="evenodd" clip-rule="evenodd" d="M7.75509 21.5333C7.98714 21.6673 8.27304 21.6673 8.50509 21.5333L9.80413 20.7833C10.0362 20.6493 10.1791 20.4017 10.1791 20.1338V18.6338C10.1791 18.3658 10.0362 18.1182 9.80413 17.9843L8.50509 17.2343C8.27304 17.1003 7.98714 17.1003 7.75509 17.2343L6.45605 17.9843C6.224 18.1182 6.08105 18.3658 6.08105 18.6338V20.1338C6.08105 20.4017 6.224 20.6493 6.45605 20.7833L7.75509 21.5333ZM7.58105 19.7008V19.0668L8.13009 18.7498L8.67913 19.0668V19.7008L8.13009 20.0178L7.58105 19.7008Z" fill="#000000" />
<path fill-rule="evenodd" clip-rule="evenodd" d="M16.6047 21.5333C16.8368 21.6673 17.1227 21.6673 17.3547 21.5333L18.6537 20.7833C18.8858 20.6493 19.0287 20.4017 19.0287 20.1338V18.6338C19.0287 18.3658 18.8858 18.1182 18.6537 17.9843L17.3547 17.2343C17.1227 17.1003 16.8368 17.1003 16.6047 17.2343L15.3057 17.9843C15.0736 18.1182 14.9307 18.3658 14.9307 18.6338V20.1338C14.9307 20.4017 15.0736 20.6493 15.3057 20.7833L16.6047 21.5333ZM16.4307 19.7008V19.0668L16.9797 18.7498L17.5287 19.0668V19.7008L16.9797 20.0178L16.4307 19.7008Z" fill="#000000" />
<path fill-rule="evenodd" clip-rule="evenodd" d="M12.1799 18.3321C12.4119 18.4661 12.6978 18.4661 12.9299 18.3321L14.2289 17.5821C14.461 17.4482 14.6039 17.2006 14.6039 16.9326V15.4326C14.6039 15.1647 14.461 14.9171 14.2289 14.7831L12.9299 14.0331C12.6978 13.8991 12.4119 13.8991 12.1799 14.0331L10.8809 14.7831C10.6488 14.9171 10.5059 15.1647 10.5059 15.4326V16.9326C10.5059 17.2006 10.6488 17.4482 10.8809 17.5821L12.1799 18.3321ZM12.0059 16.4996V15.8656L12.5549 15.5486L13.1039 15.8656V16.4996L12.5549 16.8166L12.0059 16.4996Z" fill="#000000" />
</svg>