<svg width="24px"  height="24px"  viewBox="0 0 25 24" fill="none" xmlns="http://www.w3.org/2000/svg">
<path fill-rule="evenodd" clip-rule="evenodd" d="M11.0092 9.30174C11.7947 8.26371 13.0532 7.43359 14.8603 7.43359C16.6674 7.43359 17.926 8.26371 18.7114 9.30174C19.2836 10.0579 19.6087 10.9266 19.7352 11.6746C20.6115 11.8045 21.4175 12.1731 22.0466 12.7736C22.8422 13.5331 23.3045 14.6161 23.3045 15.9113C23.3045 17.6513 22.2733 19.1526 20.7834 19.8261C20.7736 19.8306 20.7636 19.8348 20.7535 19.8389C20.1349 20.0868 19.5237 20.1781 19.0442 20.1781H10.67C10.1872 20.1781 9.57645 20.081 8.96627 19.8333C8.95733 19.8297 8.94845 19.8259 8.93965 19.8219C7.45266 19.1504 6.41504 17.6535 6.41504 15.9113C6.41504 14.6159 6.87776 13.533 7.67365 12.7735C8.30296 12.173 9.10906 11.8045 9.98542 11.6746C10.112 10.9266 10.437 10.0579 11.0092 9.30174ZM12.2054 10.2069C11.6471 10.9446 11.4232 11.8315 11.4232 12.3718C11.4232 12.7834 11.0915 13.1181 10.6799 13.1218C9.87496 13.1289 9.18862 13.4012 8.70917 13.8587C8.23612 14.3101 7.91504 14.9883 7.91504 15.9113C7.91504 17.0376 8.58167 18.0084 9.5439 18.4489C9.96263 18.6166 10.3753 18.6781 10.67 18.6781H19.0442C19.3438 18.6781 19.7576 18.6195 20.1802 18.4526C21.1409 18.0116 21.8045 17.0392 21.8045 15.9113C21.8045 14.9881 21.4836 14.3099 21.0108 13.8586C20.5317 13.4012 19.8457 13.1289 19.0407 13.1218C18.6292 13.1181 18.2974 12.7834 18.2974 12.3718C18.2974 11.8315 18.0735 10.9446 17.5153 10.2069C16.9802 9.49972 16.1452 8.93359 14.8603 8.93359C13.5755 8.93359 12.7404 9.49972 12.2054 10.2069Z" fill="#000000" />
<path fill-rule="evenodd" clip-rule="evenodd" d="M7.60008 6.59362C7.04283 7.33167 6.81935 8.21855 6.81935 8.75742C6.81935 9.17017 6.48584 9.50534 6.0731 9.50741C5.26716 9.51144 4.58 9.78292 4.09992 10.2401C3.62607 10.6914 3.30469 11.3699 3.30469 12.2915C3.30469 13.4238 3.98043 14.3964 4.9469 14.8315C5.32461 15.0015 5.49298 15.4455 5.32296 15.8232C5.15294 16.2009 4.70891 16.3693 4.3312 16.1993C2.8479 15.5316 1.80469 14.0371 1.80469 12.2915C1.80469 10.9969 2.26818 9.91321 3.06544 9.15392C3.69583 8.55356 4.5035 8.18558 5.38199 8.058C5.50869 7.31166 5.83294 6.44475 6.40298 5.68977C7.1867 4.65177 8.44309 3.82031 10.2478 3.82031C12.0609 3.82031 13.3179 4.65331 14.1058 5.68631C14.357 6.01566 14.2937 6.48628 13.9643 6.73749C13.635 6.98869 13.1644 6.92534 12.9132 6.596C12.3735 5.88842 11.5374 5.32031 10.2478 5.32031C8.96706 5.32031 8.13422 5.88618 7.60008 6.59362Z" fill="#000000" />
</svg>