<svg width="24px"  height="24px"  viewBox="0 0 25 24" fill="none" xmlns="http://www.w3.org/2000/svg">
<path fill-rule="evenodd" clip-rule="evenodd" d="M8.15189 5.31879C9.04926 4.13266 10.4853 3.18408 12.5547 3.18408C14.6241 3.18408 16.0601 4.13266 16.9575 5.31879C17.6364 6.21621 18.0112 7.25194 18.1448 8.12602C19.1848 8.25654 20.1379 8.6829 20.8743 9.38829C21.7771 10.2531 22.3047 11.49 22.3047 12.973C22.3047 14.9577 21.122 16.6647 19.4272 17.4306C19.0498 17.6012 18.6055 17.4335 18.4349 17.056C18.2643 16.6786 18.4321 16.2343 18.8095 16.0637C19.9869 15.5316 20.8047 14.347 20.8047 12.973C20.8047 11.8601 20.4172 11.0275 19.8367 10.4715C19.2507 9.91024 18.4181 9.58341 17.4513 9.583C17.0373 9.58282 16.7017 9.24709 16.7017 8.833C16.7017 8.17413 16.4314 7.10956 15.7613 6.2238C15.1143 5.36864 14.1018 4.68408 12.5547 4.68408C11.0075 4.68408 9.99509 5.36864 9.34811 6.2238C8.67799 7.10956 8.40771 8.17413 8.40771 8.833C8.40771 9.24471 8.07583 9.57944 7.66414 9.58297C6.69456 9.59129 5.85963 9.91938 5.27275 10.4794C4.69225 11.0334 4.30469 11.8611 4.30469 12.973C4.30469 14.3472 5.12167 15.5316 6.29969 16.0636C6.67719 16.2341 6.84502 16.6783 6.67455 17.0558C6.50407 17.4333 6.05984 17.6012 5.68233 17.4307C3.98619 16.6647 2.80469 14.9575 2.80469 12.973C2.80469 11.489 3.33367 10.2565 4.23719 9.39425C4.97411 8.69103 5.92657 8.2659 6.96394 8.1303C7.09693 7.25533 7.47184 6.21767 8.15189 5.31879Z" fill="#000000" />
<path fill-rule="evenodd" clip-rule="evenodd" d="M11.6395 11.8091C12.3185 10.8736 13.7964 11.3552 13.7964 12.5096V14.3326H15.481C16.4553 14.3326 17.0175 15.4378 16.4455 16.2255C16.4455 16.2255 16.4454 16.2256 16.4454 16.2256L13.4703 20.3231C13.4703 20.3232 13.4702 20.3233 13.4701 20.3234C13.4701 20.3235 13.47 20.3235 13.47 20.3236C12.7908 21.2597 11.3126 20.7772 11.3126 19.6235V17.8001H9.6285C8.65492 17.8001 8.09158 16.6959 8.66398 15.9077C8.66401 15.9076 8.66403 15.9076 8.66406 15.9075L11.6394 11.8093C11.6394 11.8092 11.6395 11.8092 11.6395 11.8091ZM12.2964 13.4575L10.2327 16.3001H12.0626C12.4769 16.3001 12.8126 16.6359 12.8126 17.0501V18.6759L14.8771 15.8326H13.0464C12.6322 15.8326 12.2964 15.4968 12.2964 15.0826V13.4575ZM15.2318 15.3441L15.2317 15.3442L15.2318 15.3441Z" fill="#000000" />
</svg>