<svg width="24px"  height="24px"  viewBox="0 0 25 24" fill="none" xmlns="http://www.w3.org/2000/svg">
<path fill-rule="evenodd" clip-rule="evenodd" d="M8.15194 5.1615C9.04935 3.9756 10.4854 3.02734 12.5547 3.02734C14.624 3.02734 16.06 3.9756 16.9574 5.1615C17.6365 6.05881 18.0113 7.09448 18.1448 7.96855C19.1849 8.09941 20.1379 8.52596 20.8743 9.23147C21.7771 10.0964 22.3047 11.3333 22.3047 12.8163C22.3047 14.801 21.122 16.508 19.4272 17.2739C19.0498 17.4445 18.6055 17.2767 18.4349 16.8993C18.2643 16.5218 18.4321 16.0775 18.8095 15.907C19.9869 15.3749 20.8047 14.1902 20.8047 12.8163C20.8047 11.7034 20.4172 10.8708 19.8367 10.3146C19.2506 9.75317 18.4179 9.42612 17.451 9.42529C17.0371 9.42493 16.7017 9.08925 16.7017 8.67529C16.7017 8.01644 16.4314 6.95214 15.7613 6.06665C15.1144 5.21174 14.1019 4.52734 12.5547 4.52734C11.0075 4.52734 9.995 5.21174 9.34806 6.06665C8.67798 6.95214 8.40771 8.01644 8.40771 8.67529C8.40771 9.08687 8.07603 9.42155 7.66446 9.42526C6.69478 9.43399 5.85975 9.76232 5.2728 10.3225C4.69224 10.8766 4.30469 11.7043 4.30469 12.8163C4.30469 14.1905 5.12167 15.3749 6.29969 15.9069C6.67719 16.0774 6.84502 16.5216 6.67455 16.8991C6.50407 17.2766 6.05984 17.4444 5.68233 17.274C3.98619 16.508 2.80469 14.8008 2.80469 12.8163C2.80469 11.3323 3.33368 10.0997 4.23715 9.23743C4.97407 8.53409 5.92653 8.10877 6.96391 7.97283C7.09688 7.09787 7.4718 6.06028 8.15194 5.1615Z" fill="#000000" />
<path fill-rule="evenodd" clip-rule="evenodd" d="M10.8398 14.5276C11.2368 14.6459 11.4626 15.0636 11.3443 15.4606L10.8607 17.0825C10.7424 17.4795 10.3247 17.7053 9.92771 17.587C9.53076 17.4686 9.30491 17.0509 9.42326 16.654L9.90682 15.032C10.0252 14.6351 10.4429 14.4092 10.8398 14.5276ZM15.5004 14.5276C15.8974 14.6459 16.1232 15.0636 16.0049 15.4606L15.5213 17.0825C15.403 17.4795 14.9852 17.7053 14.5883 17.587C14.1913 17.4686 13.9655 17.0509 14.0838 16.654L14.5674 15.032C14.6857 14.6351 15.1035 14.4092 15.5004 14.5276ZM12.5551 17.5028C12.9488 17.6317 13.1634 18.0554 13.0345 18.449L12.5431 19.9493C12.4142 20.343 11.9906 20.5576 11.5969 20.4286C11.2033 20.2997 10.9887 19.8761 11.1176 19.4825L11.609 17.9821C11.7379 17.5885 12.1615 17.3739 12.5551 17.5028ZM8.11787 18.2814C8.51865 18.386 8.75875 18.7957 8.65414 19.1965L8.33696 20.4117C8.23235 20.8125 7.82264 21.0526 7.42186 20.948C7.02107 20.8434 6.78097 20.4337 6.88558 20.0329L7.20277 18.8176C7.30738 18.4169 7.71708 18.1768 8.11787 18.2814ZM16.2475 18.2814C16.6483 18.386 16.8884 18.7957 16.7838 19.1965L16.4666 20.4117C16.362 20.8125 15.9523 21.0526 15.5515 20.948C15.1507 20.8434 14.9106 20.4337 15.0152 20.0329L15.3324 18.8176C15.437 18.4169 15.8467 18.1768 16.2475 18.2814Z" fill="#000000" />
</svg>