<svg width="24px"  height="24px"  viewBox="0 0 25 24" fill="none" xmlns="http://www.w3.org/2000/svg">
<path fill-rule="evenodd" clip-rule="evenodd" d="M12.3594 20.1771C10.6742 19.5899 9.11642 19.5431 7.9235 19.6647C7.51142 19.7067 7.14333 19.4067 7.10133 18.9946C7.05934 18.5825 7.35936 18.2144 7.77144 18.1724C9.13127 18.0338 10.9169 18.086 12.8529 18.7606C13.2441 18.8969 13.4507 19.3244 13.3144 19.7156C13.1781 20.1067 12.7506 20.3133 12.3594 20.1771Z" fill="#000000" />
<path fill-rule="evenodd" clip-rule="evenodd" d="M20.503 19.1798C20.6627 19.5619 20.4824 20.0012 20.1002 20.161L19.811 19.4689C20.1002 20.161 20.1004 20.1609 20.1002 20.161L20.0986 20.1616L20.0965 20.1625L20.0908 20.1648L20.0736 20.1718C20.0595 20.1774 20.0403 20.1849 20.0161 20.1941C19.9676 20.2125 19.8992 20.2376 19.8121 20.2671C19.6381 20.3262 19.3889 20.4035 19.0755 20.4817C18.4496 20.638 17.5623 20.7991 16.502 20.824C16.0879 20.8337 15.7443 20.5058 15.7346 20.0917C15.7249 19.6776 16.0527 19.3341 16.4668 19.3244C17.3965 19.3026 18.1724 19.1611 18.7123 19.0264C18.9818 18.9591 19.1912 18.8939 19.33 18.8468C19.3993 18.8232 19.4508 18.8043 19.4833 18.7919C19.4995 18.7858 19.5109 18.7813 19.5174 18.7787L19.5221 18.7768C19.9042 18.6173 20.3433 18.7977 20.503 19.1798Z" fill="#000000" />
<path fill-rule="evenodd" clip-rule="evenodd" d="M4.81147 13.315L4.52222 12.623C4.14005 12.7828 3.95975 13.2221 4.1195 13.6043C4.27918 13.9863 4.71819 14.1666 5.10024 14.0072M5.10073 14.007L5.10161 14.0066L5.12084 13.9991C5.13968 13.9917 5.1704 13.9801 5.21237 13.9651C5.29636 13.9351 5.42515 13.8917 5.59371 13.8427C5.93121 13.7448 6.42574 13.6252 7.0374 13.5453C8.26193 13.3853 9.94062 13.3861 11.7693 14.0233C12.9526 14.4355 14.0803 14.6154 15.0885 14.6612C15.5023 14.68 15.853 14.3598 15.8718 13.946C15.8906 13.5322 15.5704 13.1816 15.1566 13.1628C14.2758 13.1227 13.2934 12.9658 12.2628 12.6068C10.1621 11.8748 8.23849 11.8756 6.84309 12.0579C6.14477 12.1492 5.57492 12.2863 5.17552 12.4022C4.97564 12.4602 4.81786 12.5131 4.70739 12.5526C4.65213 12.5724 4.60865 12.5888 4.57759 12.6009L4.54037 12.6156L4.52888 12.6203L4.52494 12.6219L4.52343 12.6225L4.52278 12.6228C4.52249 12.6229 4.52222 12.623 4.81147 13.315" fill="#000000" />
<path fill-rule="evenodd" clip-rule="evenodd" d="M3.55474 16.9337L3.11619 16.3252C2.78017 16.5674 2.70412 17.0362 2.94633 17.3722C3.18769 17.7071 3.65401 17.7837 3.98978 17.5446L3.99681 17.5398C4.00523 17.5341 4.02084 17.5238 4.04353 17.5095C4.08894 17.481 4.16259 17.4369 4.26363 17.3831C4.46579 17.2755 4.77686 17.1296 5.1902 16.9921C6.01495 16.7179 7.25199 16.4758 8.85439 16.6439C9.26635 16.6871 9.63534 16.3882 9.67857 15.9763C9.72179 15.5643 9.42288 15.1953 9.01093 15.1521C7.17299 14.9592 5.72107 15.2349 4.71695 15.5688C4.21585 15.7354 3.8275 15.916 3.55886 16.059C3.4245 16.1305 3.3199 16.1927 3.2459 16.2392C3.2089 16.2624 3.17952 16.2817 3.15788 16.2963L3.13121 16.3146L3.12224 16.3209L3.11884 16.3233L3.11742 16.3243L3.11678 16.3248C3.11648 16.325 3.11619 16.3252 3.55474 16.9337Z" fill="#000000" />
<path fill-rule="evenodd" clip-rule="evenodd" d="M8.48584 5.17221C9.36313 4.01291 10.7672 3.08594 12.7894 3.08594C14.8116 3.08594 16.2159 4.01288 17.0934 5.17212C17.7543 6.04516 18.1205 7.05229 18.2525 7.9046C19.2604 8.0395 20.1863 8.4544 20.9037 9.13902C21.7877 9.98263 22.3048 11.1881 22.3048 12.6383C22.3048 14.577 21.1541 16.2523 19.4946 17.0022C19.4847 17.0067 19.4748 17.011 19.4647 17.015C17.8445 17.6641 15.8723 17.755 14.1049 17.3783C13.6998 17.292 13.4413 16.8935 13.5277 16.4884C13.614 16.0833 14.0124 15.8249 14.4175 15.9112C15.938 16.2353 17.5939 16.1441 18.8914 15.6287C20.0215 15.1113 20.8048 13.965 20.8048 12.6383C20.8048 11.5602 20.4292 10.7596 19.8681 10.2242C19.3007 9.68269 18.4926 9.36463 17.5529 9.35617C17.1414 9.35246 16.8097 9.01778 16.8097 8.6062C16.8097 7.96876 16.5476 6.93639 15.8974 6.07745C15.2703 5.24908 14.2895 4.58594 12.7894 4.58594C11.2893 4.58594 10.3088 5.24905 9.68196 6.07736C9.03201 6.93625 8.77009 7.96863 8.77009 8.6062C8.77009 9.01778 8.43841 9.35246 8.02685 9.35617C6.93783 9.36597 6.02552 9.79041 5.45512 10.5036C5.1964 10.827 4.72443 10.8795 4.40096 10.6208C4.07748 10.3621 4.02499 9.89013 4.28371 9.56666C5.03479 8.62759 6.12225 8.06608 7.32726 7.90466C7.45916 7.05241 7.82516 6.04529 8.48584 5.17221Z" fill="#000000" />
</svg>