<svg width="24px"  height="24px"  viewBox="0 0 25 24" fill="none" xmlns="http://www.w3.org/2000/svg">
<path fill-rule="evenodd" clip-rule="evenodd" d="M8.04713 7.18646C8.92897 6.02114 10.3403 5.08936 12.3731 5.08936C12.7873 5.08936 13.1231 5.42514 13.1231 5.83936C13.1231 6.25357 12.7873 6.58936 12.3731 6.58936C10.8624 6.58936 9.87462 7.25728 9.24326 8.09161C8.58875 8.95652 8.32495 9.99612 8.32495 10.6385C8.32495 11.0501 7.99326 11.3848 7.5817 11.3885C6.63531 11.397 5.82091 11.7173 5.2488 12.2631C4.68313 12.8027 4.30469 13.6094 4.30469 14.695C4.30469 15.3505 4.49477 15.9595 4.82248 16.4723C5.04552 16.8214 4.94337 17.2851 4.59432 17.5082C4.24528 17.7312 3.78153 17.629 3.55849 17.28C3.0813 16.5332 2.80469 15.6453 2.80469 14.695C2.80469 13.2371 3.32477 12.0255 4.21343 11.1777C4.93541 10.489 5.86737 10.0718 6.8819 9.9367C7.01405 9.07932 7.38206 8.06533 8.04713 7.18646Z" fill="#000000" />
<path fill-rule="evenodd" clip-rule="evenodd" d="M9.89087 14.7822C11.3486 14.7822 12.5303 15.9639 12.5303 17.4216C12.5303 18.8793 11.3486 20.061 9.89087 20.061H5.80821C4.97787 20.061 4.30491 19.388 4.30491 18.5579C4.30491 17.7277 4.97788 17.0547 5.80821 17.0547C6.00519 17.0547 6.19164 17.0922 6.36228 17.1599C6.55824 17.2377 6.77788 17.2294 6.9674 17.137C7.15692 17.0447 7.29883 16.8769 7.35837 16.6746C7.68062 15.58 8.69363 14.7822 9.89087 14.7822ZM14.0303 17.4216C14.0303 15.1355 12.177 13.2822 9.89087 13.2822C8.26645 13.2822 6.86177 14.2175 6.18384 15.578C6.06065 15.5626 5.93527 15.5547 5.80821 15.5547C4.1495 15.5547 2.80491 16.8992 2.80491 18.5579C2.80491 20.2165 4.14951 21.561 5.80821 21.561H9.89087C12.177 21.561 14.0303 19.7078 14.0303 17.4216Z" fill="#000000" />
<path fill-rule="evenodd" clip-rule="evenodd" d="M14.3184 5.83936C14.3184 5.42514 14.6541 5.08936 15.0684 5.08936L18.986 5.08936C19.4002 5.08936 19.736 5.42514 19.736 5.83935C19.736 6.25357 19.4002 6.58936 18.986 6.58936L15.0684 6.58936C14.6541 6.58936 14.3184 6.25357 14.3184 5.83936Z" fill="#000000" />
<path fill-rule="evenodd" clip-rule="evenodd" d="M18.7197 8.37598C18.7197 7.96176 19.0555 7.62598 19.4697 7.62598H21.555C21.9692 7.62598 22.305 7.96176 22.305 8.37598C22.305 8.79019 21.9692 9.12598 21.555 9.12598H19.4697C19.0555 9.12598 18.7197 8.79019 18.7197 8.37598Z" fill="#000000" />
<path fill-rule="evenodd" clip-rule="evenodd" d="M16.998 3.18945C16.998 2.77524 17.3338 2.43945 17.748 2.43945H21.1927C21.6069 2.43945 21.9427 2.77524 21.9427 3.18945C21.9427 3.60367 21.6069 3.93945 21.1927 3.93945H17.748C17.3338 3.93945 16.998 3.60367 16.998 3.18945Z" fill="#000000" />
<path fill-rule="evenodd" clip-rule="evenodd" d="M4.875 3.18945C4.875 2.77524 5.21079 2.43945 5.625 2.43945H7.71761C8.13182 2.43945 8.46761 2.77524 8.46761 3.18945C8.46761 3.60367 8.13182 3.93945 7.71761 3.93945H5.625C5.21079 3.93945 4.875 3.60367 4.875 3.18945Z" fill="#000000" />
<path fill-rule="evenodd" clip-rule="evenodd" d="M16.5439 8.22847C16.9297 8.07761 17.3647 8.26804 17.5155 8.6538C17.6868 9.09173 17.8023 9.52971 17.8651 9.93697C18.8795 10.0721 19.8113 10.4893 20.5331 11.1781C21.4215 12.0259 21.9413 13.2374 21.9413 14.6952C21.9413 16.6439 20.7847 18.3278 19.1168 19.0815C19.1069 19.086 19.0969 19.0902 19.0869 19.0942C18.3926 19.3724 17.7052 19.476 17.1682 19.476H13.1016C12.6873 19.476 12.3516 19.1402 12.3516 18.726C12.3516 18.3118 12.6873 17.976 13.1016 17.976H17.1682C17.5237 17.976 18.014 17.9056 18.5138 17.7079C19.6523 17.1866 20.4413 16.0318 20.4413 14.6952C20.4413 13.6095 20.063 12.8029 19.4976 12.2633C18.9257 11.7176 18.1116 11.3972 17.1652 11.3887C16.7537 11.385 16.422 11.0503 16.422 10.6388C16.422 10.2706 16.3342 9.75137 16.1186 9.20012C15.9677 8.81435 16.1581 8.37933 16.5439 8.22847Z" fill="#000000" />
</svg>