<svg width="24px"  height="24px"  viewBox="0 0 25 24" fill="none" xmlns="http://www.w3.org/2000/svg">
<path d="M12.634 21.72C12.224 21.72 11.884 21.4 11.884 20.99V20.96C11.884 20.55 12.224 20.21 12.634 20.21C13.044 20.21 13.384 20.55 13.384 20.96C13.384 21.37 13.044 21.73 12.634 21.73V21.72ZM19.004 19.12C18.814 19.12 18.624 19.05 18.474 18.9C18.184 18.61 18.154 18.11 18.444 17.82C18.734 17.52 19.184 17.5 19.484 17.79L19.534 17.84C19.824 18.13 19.834 18.61 19.534 18.9C19.384 19.05 19.194 19.12 19.004 19.12ZM6.29402 19.08C6.11402 19.08 5.92403 19.01 5.78403 18.88C5.48403 18.59 5.46403 18.13 5.74403 17.83L5.76402 17.81C6.04402 17.51 6.52402 17.5 6.82402 17.78C7.12402 18.07 7.13403 18.54 6.85403 18.84C6.70403 19 6.50402 19.08 6.29402 19.08ZM21.624 12.75H21.584C21.174 12.75 20.834 12.41 20.834 12C20.834 11.59 21.174 11.25 21.584 11.25C21.994 11.25 22.354 11.59 22.354 12C22.354 12.41 22.044 12.75 21.624 12.75ZM3.67403 12.75H3.62402C3.21402 12.75 2.87402 12.41 2.87402 12C2.87402 11.59 3.21402 11.25 3.62402 11.25C4.03402 11.25 4.40402 11.59 4.40402 12C4.40402 12.41 4.09403 12.75 3.67403 12.75ZM6.30403 6.41C6.10403 6.41 5.90402 6.33002 5.76402 6.18002C5.47402 5.88002 5.48403 5.39002 5.78403 5.11002C6.08403 4.82002 6.54403 4.83 6.83403 5.13L6.85403 5.14999C7.14403 5.44999 7.12402 5.92002 6.82402 6.21002C6.67402 6.35002 6.49403 6.42001 6.30403 6.42001V6.41ZM18.964 6.38C18.774 6.38 18.574 6.31 18.434 6.16C18.144 5.86 18.134 5.41 18.434 5.12L18.484 5.08002C18.784 4.79002 19.254 4.80001 19.544 5.10001C19.834 5.40001 19.824 5.87 19.524 6.16C19.374 6.31 19.174 6.38 18.964 6.38ZM12.624 3.79001C12.214 3.79001 11.874 3.45001 11.874 3.04001C11.874 2.63001 12.214 2.27002 12.624 2.27002C13.034 2.27002 13.374 2.59 13.374 3V3.03C13.374 3.44 13.034 3.78 12.624 3.78V3.79001Z" fill="#000000" />
<path d="M12.624 17.9906C9.31402 17.9906 6.62402 15.3006 6.62402 11.9906C6.62402 9.33056 8.41402 6.96055 10.964 6.23055C11.254 6.15055 11.594 6.26056 11.784 6.49056C11.974 6.72056 12.014 7.08054 11.874 7.35054C11.054 8.88054 11.354 10.8105 12.574 12.0405C13.804 13.2705 15.724 13.5606 17.254 12.7406C17.514 12.6006 17.874 12.6305 18.114 12.8205C18.354 13.0105 18.464 13.3605 18.374 13.6505C17.644 16.2105 15.274 18.0005 12.614 18.0005L12.624 17.9906ZM9.98402 8.35054C8.84402 9.18054 8.12402 10.5306 8.12402 11.9906C8.12402 14.4706 10.144 16.4906 12.624 16.4906C14.084 16.4906 15.434 15.7705 16.264 14.6305C14.574 14.8905 12.784 14.3505 11.524 13.1005C10.264 11.8405 9.72402 10.0606 9.98402 8.36055V8.35054Z" fill="#000000" />
</svg>