<svg width="24px"  height="24px"  viewBox="0 0 25 24" fill="none" xmlns="http://www.w3.org/2000/svg">
<path d="M18.4704 21.7398C18.2804 21.7398 18.0904 21.6698 17.9404 21.5198C17.6504 21.2298 17.6204 20.7298 17.9104 20.4298C18.2004 20.1398 18.6504 20.1097 18.9404 20.3997L18.9904 20.4498C19.2804 20.7398 19.2904 21.2198 18.9904 21.5098C18.8404 21.6598 18.6504 21.7298 18.4604 21.7298L18.4704 21.7398ZM21.5404 14.2798H21.4904C21.0804 14.2798 20.7404 13.9398 20.7404 13.5298C20.7404 13.1198 21.0804 12.7798 21.4904 12.7798C21.9004 12.7798 22.2704 13.1198 22.2704 13.5298C22.2704 13.9398 21.9604 14.2798 21.5404 14.2798ZM3.60036 6.85977C3.41036 6.85977 3.21038 6.77976 3.06038 6.62976C2.77038 6.32976 2.76038 5.84975 3.06038 5.55975C3.36038 5.26975 3.82037 5.25975 4.11037 5.55975L4.13035 5.57977C4.42035 5.87977 4.41037 6.34977 4.12037 6.63977C3.97037 6.77977 3.79036 6.84976 3.60036 6.84976V6.85977ZM18.4304 6.81976C18.2404 6.81976 18.0504 6.74977 17.9104 6.60977C17.6204 6.31977 17.5904 5.86977 17.8804 5.57977L17.9304 5.52975C18.2204 5.23975 18.7004 5.23975 18.9904 5.52975C19.2804 5.81975 19.2804 6.29975 18.9904 6.58975C18.8404 6.73975 18.6304 6.81976 18.4204 6.81976H18.4304ZM11.0104 3.77975C10.6004 3.77975 10.2604 3.43975 10.2604 3.02975C10.2604 2.61975 10.6004 2.25977 11.0104 2.25977C11.4204 2.25977 11.7604 2.57978 11.7604 2.98978V3.02975C11.7604 3.43975 11.4204 3.77975 11.0104 3.77975Z" fill="#000000" />
<path d="M10.9901 20.7197C7.03005 20.7197 3.80005 17.4997 3.80005 13.5297C3.80005 10.3397 5.94004 7.49971 9.01004 6.61971C9.30004 6.53971 9.65006 6.64972 9.84006 6.87972C10.0301 7.11972 10.06 7.48972 9.92004 7.75972C8.89004 9.68972 9.26004 12.1397 10.82 13.6997C12.38 15.2597 14.82 15.6297 16.76 14.5897C17.02 14.4497 17.3901 14.4897 17.6201 14.6697C17.8501 14.8597 17.96 15.2097 17.89 15.4897C17.01 18.5697 14.17 20.7097 10.98 20.7097L10.9901 20.7197ZM8.00006 8.69972C6.36006 9.71972 5.31006 11.5397 5.31006 13.5297C5.31006 16.6697 7.86006 19.2197 11.0001 19.2197C12.9901 19.2197 14.81 18.1597 15.83 16.5197C13.69 16.9897 11.37 16.3597 9.77005 14.7597C8.17005 13.1597 7.54004 10.8397 8.01004 8.69972H8.00006Z" fill="#000000" />
<path d="M11.0001 20.7193C9.08006 20.7193 7.27006 19.9693 5.91006 18.6093C4.55006 17.2493 3.80005 15.4393 3.80005 13.5193C3.80005 11.5993 4.55006 9.78935 5.91006 8.42935C7.27006 7.06935 9.07006 6.31934 11.0001 6.31934C12.9301 6.31934 14.73 7.06935 16.08 8.42935C17.43 9.78935 18.1901 11.5893 18.1901 13.5193C18.1901 15.4493 17.44 17.2493 16.08 18.6093C14.72 19.9693 12.9201 20.7193 11.0001 20.7193ZM11.0001 7.82935C9.48006 7.82935 8.05006 8.41933 6.97006 9.49933C5.89006 10.5793 5.30005 11.9993 5.30005 13.5293C5.30005 15.0593 5.89006 16.4793 6.97006 17.5593C8.05006 18.6393 9.47006 19.2293 11.0001 19.2293C12.5301 19.2293 13.9501 18.6393 15.0201 17.5593C16.1 16.4793 16.6901 15.0493 16.6901 13.5293C16.6901 12.0093 16.1 10.5793 15.0201 9.49933C13.9401 8.41933 12.5201 7.82935 11.0001 7.82935Z" fill="#000000" />
</svg>