<svg width="24px"  height="24px"  viewBox="0 0 25 24" fill="none" xmlns="http://www.w3.org/2000/svg">
<path d="M12.7906 21.7519C10.3006 21.7519 7.79057 20.8119 6.11057 18.9819C3.07057 15.6619 4.6206 10.7419 6.0206 8.36188C6.1706 8.11188 6.44057 7.96189 6.74057 7.99189C7.03057 8.02189 7.28058 8.2219 7.37058 8.5019C7.65058 9.3419 8.08061 9.96192 8.47061 10.4019C8.69061 8.95192 9.1206 8.01192 9.5206 7.15192C10.0406 6.02192 10.4906 5.04188 10.4906 2.98188C10.4906 2.74188 10.6106 2.51189 10.8106 2.37189C11.0106 2.23189 11.2706 2.20193 11.5006 2.28193C14.7106 3.44193 15.9506 6.00196 16.0706 8.56196C16.8406 7.83196 17.8406 7.13193 18.9806 6.91193C19.2206 6.86193 19.4706 6.94188 19.6406 7.11188C19.8106 7.28188 19.9006 7.53192 19.8606 7.77192C19.6206 9.24192 19.9806 10.6519 20.3306 12.0219C20.9906 14.5919 21.6706 17.252 18.2806 19.942C16.7406 21.162 14.7706 21.7619 12.7906 21.7619V21.7519ZM6.66062 10.4819C5.79062 12.6319 5.24061 15.8119 7.22061 17.9719C9.68061 20.6419 14.5006 21.0219 17.3406 18.7619C19.9606 16.6719 19.5006 14.8719 18.8706 12.3819C18.5906 11.2819 18.2806 10.0619 18.2806 8.7519C17.1006 9.4119 16.1106 10.6819 15.7706 11.2319C15.5806 11.5419 15.1906 11.6619 14.8506 11.5219C14.5106 11.3819 14.3206 11.0319 14.4006 10.6719C14.6406 9.52194 15.1106 5.88188 11.9506 4.11188C11.8006 5.78188 11.3406 6.79192 10.8906 7.77192C10.3906 8.85192 9.93062 9.87192 9.85062 11.9019C9.85062 12.1619 9.70062 12.3919 9.48062 12.5219C9.26062 12.6519 8.98059 12.6519 8.76059 12.5419C8.70059 12.5119 7.57057 11.9119 6.67057 10.4719L6.66062 10.4819Z" fill="#000000" />
<path d="M12.6709 21.7323C11.9209 21.7323 11.1609 21.5423 10.4809 21.1523C9.05092 20.3223 8.33089 18.8524 8.57089 17.2124C8.78089 15.7824 9.40088 15.0224 10.0609 14.2124C10.4409 13.7424 10.8709 13.2224 11.3109 12.4624C11.4309 12.2524 11.6509 12.1124 11.8909 12.0924C12.1309 12.0724 12.3709 12.1723 12.5309 12.3523C13.1909 13.1323 13.5109 14.0423 13.6509 14.7923C13.7909 14.5323 13.9009 14.2724 13.9509 14.0924C14.0209 13.8624 14.1909 13.6823 14.4209 13.6023C14.6509 13.5223 14.9009 13.5523 15.0909 13.6823C15.7809 14.1523 16.8109 15.7823 16.8809 17.5123C16.9309 18.8323 16.4109 19.9723 15.3909 20.7823C14.6109 21.4023 13.6409 21.7223 12.6709 21.7223V21.7323ZM11.9409 14.2523C11.6909 14.5923 11.4509 14.8923 11.2309 15.1623C10.6209 15.9123 10.2109 16.4123 10.0609 17.4323C9.85088 18.8823 10.8109 19.6023 11.2309 19.8523C12.0809 20.3423 13.4109 20.4623 14.4609 19.6223C15.1209 19.1023 15.4209 18.4324 15.3909 17.5824C15.3609 16.8724 15.1109 16.2223 14.8509 15.7423C14.5009 16.3123 13.9609 16.9023 13.1909 17.0724C12.9609 17.1224 12.7109 17.0723 12.5309 16.9023C12.3509 16.7423 12.2509 16.5123 12.2809 16.2723C12.2809 16.2723 12.3509 15.2623 11.9409 14.2523Z" fill="#000000" />
</svg>