<svg width="24px"  height="24px"  viewBox="0 0 25 24" fill="none" xmlns="http://www.w3.org/2000/svg">
<path d="M12.6963 21.7471C10.8263 21.7471 8.8063 21.1072 6.8463 19.5572C3.4563 16.4572 4.32636 12.8472 4.96636 10.2172C5.18636 9.30721 5.39635 8.45716 5.39635 7.78716C5.39635 7.56716 5.48636 7.36721 5.65636 7.21721C5.82636 7.07721 6.03634 7.00716 6.25634 7.03716C7.09634 7.15716 8.08632 7.73719 9.11632 8.69719C9.43632 6.48719 10.7363 3.62718 13.6963 2.30718C13.9163 2.20718 14.1663 2.22722 14.3763 2.34722C14.5863 2.46722 14.7263 2.67716 14.7463 2.91716C14.7463 2.95716 15.1963 6.89712 16.5163 10.2471C16.9663 9.80712 17.5263 9.11717 17.7463 8.17717C17.8163 7.88717 18.0563 7.66711 18.3463 7.61711C18.6463 7.56711 18.9363 7.69719 19.1063 7.94719C22.1563 12.6872 20.8264 17.2472 18.1564 19.6572C16.7664 20.9172 14.8363 21.7471 12.6963 21.7471ZM6.80633 8.8272C6.71633 9.3872 6.57632 9.9672 6.42632 10.5772C5.81632 13.0972 5.11634 15.9472 7.81634 18.4172C11.2863 21.1772 15.0164 20.4772 17.1464 18.5472C18.9764 16.8972 20.2863 13.7772 18.5663 10.0672C17.7663 11.3972 16.6363 12.0572 16.5763 12.0872C16.3963 12.1872 16.1763 12.2171 15.9763 12.1471C15.7763 12.0871 15.6064 11.9371 15.5264 11.7471C14.2964 9.06712 13.6663 5.83717 13.4163 4.17717C10.8563 5.89717 10.3363 9.2072 10.5963 10.4572C10.6663 10.7972 10.4963 11.1372 10.1863 11.2872C9.87633 11.4372 9.50631 11.3572 9.28631 11.0872C8.32631 9.90721 7.46634 9.19721 6.82634 8.83721L6.80633 8.8272Z" fill="#000000" />
<path d="M12.8464 21.7468C12.1564 21.7468 11.4664 21.5669 10.8464 21.2169C9.54638 20.4669 8.8964 19.1268 9.1164 17.6368C9.3064 16.3368 9.86644 15.6368 10.4664 14.9068C10.8164 14.4768 11.1764 14.0268 11.5564 13.3768C11.6964 13.1368 11.9564 12.9668 12.2364 13.0068C12.5164 13.0168 12.7664 13.1769 12.8864 13.4369C13.2364 14.1669 13.9064 14.8869 14.5464 15.5969C15.5764 16.7169 16.5464 17.7668 16.4564 19.0268C16.4064 19.7168 16.0164 20.3468 15.3164 20.9068C14.6064 21.4668 13.7264 21.7568 12.8464 21.7568V21.7468ZM12.1864 15.1468C11.9864 15.4068 11.8064 15.6469 11.6264 15.8569C11.0664 16.5469 10.7264 16.9569 10.5964 17.8569C10.4164 19.0969 11.2264 19.7069 11.5964 19.9169C12.3264 20.3369 13.4764 20.4469 14.3764 19.7269C14.7364 19.4369 14.9364 19.1668 14.9564 18.9068C15.0064 18.3068 14.2064 17.4468 13.4464 16.6168C13.0164 16.1468 12.5664 15.6668 12.1964 15.1568L12.1864 15.1468Z" fill="#000000" />
</svg>