<svg width="24px"  height="24px"  viewBox="0 0 25 24" fill="none" xmlns="http://www.w3.org/2000/svg">
<path d="M12.697 21.7464C10.747 21.7464 8.81705 21.1164 7.24705 19.8664C5.20705 18.2464 4.17703 15.9865 4.28703 13.3465C4.42703 9.95651 6.45703 6.57644 7.84703 5.64644C8.04703 5.51644 8.28704 5.48648 8.51704 5.56648C8.73704 5.64648 8.91704 5.82647 8.98704 6.05647C8.98704 6.07647 9.61703 8.0565 11.037 8.9565C11.177 7.4965 11.717 4.89644 13.707 2.52644C13.867 2.33644 14.097 2.23642 14.347 2.25642C14.587 2.27642 14.807 2.41642 14.927 2.62642C15.927 4.34642 16.897 5.54651 17.757 6.59651C19.197 8.35651 20.427 9.87646 20.857 12.7965C21.337 16.0365 19.927 18.9465 17.097 20.5765C15.737 21.3565 14.217 21.7464 12.697 21.7464ZM7.99705 7.57649C7.05705 8.73649 5.88703 11.0165 5.78703 13.4165C5.69703 15.5865 6.50704 17.3665 8.17704 18.6965C10.477 20.5265 13.757 20.7664 16.347 19.2764C18.627 17.9664 19.757 15.6264 19.377 13.0164C19.007 10.5064 17.997 9.26646 16.597 7.54646C15.867 6.65646 15.0571 5.6565 14.2171 4.3365C12.3771 7.0965 12.497 9.97642 12.497 10.0064C12.507 10.2364 12.407 10.4664 12.227 10.6164C12.047 10.7664 11.807 10.8264 11.577 10.7764C9.67704 10.3364 8.55705 8.68648 7.99705 7.56648V7.57649Z" fill="#000000" />
<path d="M12.5769 21.7459C11.8169 21.7459 11.0669 21.556 10.3869 21.166C8.9569 20.336 8.2369 18.866 8.4769 17.226C8.6869 15.796 9.30692 15.036 9.96692 14.226C10.3469 13.756 10.7769 13.236 11.2069 12.476C11.3269 12.266 11.5469 12.126 11.7869 12.106C12.0369 12.086 12.2669 12.1859 12.4269 12.3659C13.0869 13.1459 13.4069 14.056 13.5569 14.806C13.6969 14.546 13.8069 14.286 13.8569 14.106C13.9269 13.876 14.0969 13.6959 14.3269 13.6159C14.5569 13.5359 14.7969 13.566 14.9969 13.696C15.6869 14.166 16.7169 15.796 16.7869 17.526C16.8369 18.846 16.3169 19.986 15.2969 20.796C14.5169 21.416 13.5469 21.7359 12.5769 21.7359V21.7459ZM11.8469 14.266C11.5969 14.606 11.3569 14.906 11.1369 15.176C10.5269 15.926 10.1169 16.426 9.96692 17.446C9.75692 18.896 10.7169 19.6159 11.1369 19.8659C11.9869 20.3559 13.3169 20.4759 14.3669 19.6359C15.0269 19.1159 15.3269 18.446 15.2969 17.596C15.2669 16.886 15.0169 16.2359 14.7569 15.7559C14.4069 16.3259 13.8669 16.916 13.0969 17.086C12.8569 17.136 12.6169 17.086 12.4369 16.916C12.2569 16.756 12.1669 16.526 12.1869 16.286C12.1869 16.266 12.2569 15.276 11.8469 14.266Z" fill="#000000" />
</svg>