<svg width="24px"  height="24px"  viewBox="0 0 25 24" fill="none" xmlns="http://www.w3.org/2000/svg">
<path d="M10.5823 21.7537C10.5123 21.7537 10.4523 21.7538 10.3823 21.7238C7.56233 20.9438 5.69233 19.4638 4.82233 17.3038C3.61233 14.3038 4.68232 10.6838 5.97232 8.48384C6.15232 8.18384 6.50232 8.05375 6.84232 8.14375C7.17232 8.24375 7.39232 8.56376 7.37232 8.90376C7.31232 9.90376 7.59233 10.7838 7.94233 11.4738C8.21233 9.96383 8.91234 9.05383 9.55234 8.22383C10.4823 7.00383 11.2223 6.04377 10.5523 3.16377C10.4923 2.89377 10.5823 2.61379 10.7823 2.43379C10.9823 2.25379 11.2823 2.19378 11.5323 2.29378C14.8723 3.50378 16.1123 6.10384 16.4023 8.36384C17.3223 7.55384 18.4323 7.11374 19.1923 7.00374C19.4523 6.96374 19.7023 7.06375 19.8623 7.26375C20.0323 7.46375 20.0823 7.72383 20.0123 7.97383C19.6023 9.33383 19.9723 10.7338 20.3623 12.2238C21.1523 15.2238 22.0423 18.6238 16.1923 21.6638C15.9223 21.8038 15.5823 21.7638 15.3523 21.5638C15.1223 21.3638 15.0323 21.0337 15.1423 20.7437C15.9123 18.6237 15.6923 17.4838 15.1823 16.6438C14.7123 17.6338 13.9723 18.5538 13.3023 18.7038C13.0523 18.7638 12.7823 18.6837 12.6023 18.4937C12.4223 18.3037 12.3523 18.0438 12.4123 17.7838C12.7123 16.5738 12.2723 15.6338 11.9923 15.1938C11.9123 15.0738 11.8323 14.9638 11.7523 14.8638C11.6323 15.4138 11.4223 15.9538 11.2223 16.4738C10.6723 17.8738 10.2023 19.0738 11.2123 20.5638C11.3923 20.8238 11.3823 21.1638 11.2023 21.4238C11.0623 21.6238 10.8323 21.7338 10.5923 21.7338L10.5823 21.7537ZM6.29233 11.4538C5.73233 13.1938 5.57234 15.1537 6.21234 16.7437C6.73234 18.0237 7.73234 19.0238 9.21234 19.7038C8.91234 18.2838 9.40233 17.0138 9.82233 15.9438C10.1523 15.1138 10.4323 14.3937 10.3323 13.7437C10.2723 13.3337 10.5523 12.9537 10.9523 12.8837C11.5123 12.8037 12.1823 13.1238 12.7823 13.7738C13.0323 14.0538 13.6323 14.7938 13.8923 15.8938C14.0223 15.5938 14.1223 15.2837 14.1623 14.9937C14.1923 14.6937 14.4023 14.4538 14.6823 14.3638C14.9623 14.2738 15.2723 14.3638 15.4723 14.5838L15.5823 14.7138C16.4123 15.6538 17.4823 16.8738 17.0623 19.4138C20.1423 17.2638 19.5923 15.1738 18.9223 12.6138C18.6023 11.3938 18.2723 10.1538 18.3523 8.86384C17.5523 9.26384 16.6523 10.0138 16.3223 11.1738C16.2123 11.5638 15.8123 11.7938 15.4223 11.6938C15.0323 11.5938 14.7823 11.2038 14.8623 10.8138C14.9023 10.6138 15.7423 6.40378 12.2623 4.29378C12.5123 6.83378 11.5823 8.05375 10.7423 9.14375C9.95234 10.1838 9.20232 11.1638 9.34232 13.4438C9.36232 13.7338 9.21234 14.0038 8.96234 14.1438C8.71234 14.2838 8.40233 14.2638 8.16233 14.1038C7.64233 13.7338 6.80233 12.7838 6.29233 11.4538Z" fill="#000000" />
</svg>