<svg width="24px"  height="24px"  viewBox="0 0 25 24" fill="none" xmlns="http://www.w3.org/2000/svg">
<path d="M20.3515 13.8902C20.3015 13.8902 20.2515 13.8901 20.2015 13.8701L18.3415 13.4802C18.0815 13.4302 17.8715 13.2302 17.7815 12.9802L17.1814 11.1802C17.1014 10.9302 17.1515 10.6502 17.3315 10.4402L18.5915 9.02016C18.7715 8.82016 19.0415 8.73017 19.3015 8.78017L21.1615 9.16018C21.4215 9.21018 21.6415 9.40018 21.7215 9.66018L22.3215 11.4702C22.4015 11.7202 22.3515 12.0002 22.1715 12.2002L20.9115 13.6201C20.7715 13.7801 20.5615 13.8701 20.3515 13.8701V13.8902ZM19.0715 12.1002L20.0815 12.3102L20.7715 11.5402L20.4415 10.5502L19.4314 10.3402L18.7414 11.1102L19.0715 12.0902V12.1002Z" fill="#000000" />
<path d="M12.8413 17.5501C12.7413 17.5501 12.6414 17.53 12.5414 17.49L10.8014 16.74C10.5514 16.63 10.3814 16.4 10.3514 16.14L10.1313 14.25C10.1013 13.98 10.2113 13.7201 10.4313 13.5601L11.9613 12.4301C12.1713 12.2701 12.4613 12.2401 12.7113 12.3501L14.4513 13.1101C14.7013 13.2201 14.8613 13.4501 14.9013 13.7101L15.1213 15.5901C15.1513 15.8601 15.0413 16.1201 14.8213 16.2801L13.2914 17.4101C13.1614 17.5101 13.0013 17.5601 12.8413 17.5601V17.5501ZM11.7914 15.5301L12.7413 15.9401L13.5713 15.3201L13.4513 14.3001L12.5013 13.88L11.6714 14.49L11.7914 15.52V15.5301Z" fill="#000000" />
<path d="M4.86178 13.8801C4.64178 13.8801 4.44177 13.7901 4.29177 13.6201L3.05178 12.1801C2.88178 11.9801 2.82176 11.7001 2.91176 11.4401L3.54177 9.6401C3.63177 9.3901 3.85178 9.20011 4.11178 9.15011L5.98177 8.80013C6.24177 8.75013 6.51173 8.84013 6.69173 9.05013L7.93172 10.4901C8.10172 10.6901 8.16174 10.9702 8.07174 11.2302L7.44173 13.0201C7.35173 13.2701 7.14173 13.4601 6.87173 13.5101L5.00173 13.8701C5.00173 13.8701 4.90178 13.8801 4.86178 13.8801ZM4.47176 11.5301L5.14174 12.3101L6.16176 12.1102L6.50173 11.1401L5.82174 10.3502L4.81173 10.5401L4.47176 11.5201V11.5301Z" fill="#000000" />
<path d="M16.9416 20.2104C16.5616 20.2104 16.2416 19.9303 16.2016 19.5503C16.1016 18.7203 16.0316 16.5703 17.4716 14.5003C17.7116 14.1603 18.1716 14.0703 18.5116 14.3103C18.8516 14.5503 18.9416 15.0104 18.7016 15.3504C17.5616 17.0004 17.6116 18.7203 17.6916 19.3803C17.7416 19.7903 17.4416 20.1604 17.0316 20.2104C17.0016 20.2104 16.9716 20.2104 16.9416 20.2104Z" fill="#000000" />
<path d="M12.5716 10.5901C12.2116 10.5901 11.8917 10.3301 11.8317 9.96008C11.8117 9.83008 11.3516 6.75003 13.3716 4.04003C13.6216 3.71003 14.0917 3.64001 14.4217 3.89001C14.7517 4.14001 14.8216 4.61006 14.5716 4.94006C12.9416 7.12006 13.3116 9.7001 13.3116 9.7301C13.3716 10.1401 13.0916 10.5201 12.6816 10.5801C12.6416 10.5801 12.6016 10.5801 12.5616 10.5801L12.5716 10.5901Z" fill="#000000" />
<path d="M8.06159 20.2103C8.06159 20.2103 8.03161 20.2103 8.02161 20.2103C7.61161 20.1903 7.29159 19.8303 7.31159 19.4203C7.36159 18.5403 7.25162 17.2103 6.40162 15.8903C6.18162 15.5403 6.2816 15.0803 6.6316 14.8503C6.9816 14.6303 7.44164 14.7303 7.67164 15.0803C8.73164 16.7403 8.87159 18.4003 8.81159 19.5103C8.79159 19.9103 8.46159 20.2203 8.06159 20.2203V20.2103Z" fill="#000000" />
<path d="M20.5715 20.2603H4.0415C3.6315 20.2603 3.2915 19.9203 3.2915 19.5103C3.2915 19.1003 3.6315 18.7603 4.0415 18.7603H20.5715C20.9815 18.7603 21.3215 19.1003 21.3215 19.5103C21.3215 19.9203 20.9815 20.2603 20.5715 20.2603Z" fill="#000000" />
</svg>