<svg width="24px"  height="24px"  viewBox="0 0 25 24" fill="none" xmlns="http://www.w3.org/2000/svg">
<path d="M12.3525 12.9116C11.1025 12.9116 10.0925 11.9016 10.0925 10.6516C10.0925 9.40161 11.1025 8.3916 12.3525 8.3916C13.6025 8.3916 14.6125 9.40161 14.6125 10.6516C14.6125 11.9016 13.6025 12.9116 12.3525 12.9116ZM12.3525 9.8916C11.9325 9.8916 11.5925 10.2316 11.5925 10.6516C11.5925 11.0716 11.9325 11.4116 12.3525 11.4116C12.7725 11.4116 13.1125 11.0716 13.1125 10.6516C13.1125 10.2316 12.7725 9.8916 12.3525 9.8916Z" fill="#000000" />
<path d="M5.77295 16.771C4.52295 16.771 3.51294 15.761 3.51294 14.511C3.51294 13.261 4.52295 12.251 5.77295 12.251C7.02295 12.251 8.03296 13.261 8.03296 14.511C8.03296 15.761 7.02295 16.771 5.77295 16.771ZM5.77295 13.751C5.35295 13.751 5.01294 14.091 5.01294 14.511C5.01294 14.931 5.35295 15.271 5.77295 15.271C6.19295 15.271 6.53296 14.931 6.53296 14.511C6.53296 14.091 6.19295 13.751 5.77295 13.751Z" fill="#000000" />
<path d="M19.8525 16.771C18.6025 16.771 17.5925 15.761 17.5925 14.511C17.5925 13.261 18.6025 12.251 19.8525 12.251C21.1025 12.251 22.1125 13.261 22.1125 14.511C22.1125 15.761 21.1025 16.771 19.8525 16.771ZM19.8525 13.751C19.4325 13.751 19.0925 14.091 19.0925 14.511C19.0925 14.931 19.4325 15.271 19.8525 15.271C20.2725 15.271 20.6125 14.931 20.6125 14.511C20.6125 14.091 20.2725 13.751 19.8525 13.751Z" fill="#000000" />
<path d="M18.7127 10.1311C18.0827 10.1311 17.6527 9.84109 17.3427 9.62109C17.1527 9.49109 16.9927 9.38118 16.8127 9.33118C16.0527 9.11118 13.7527 8.44118 13.7527 5.83118C13.7527 3.79118 15.4627 2.37109 17.9127 2.37109C20.1027 2.37109 21.8827 4.15119 21.8827 6.34119C21.8827 7.97119 20.9027 9.41113 19.4027 10.0311C19.1527 10.1011 18.9327 10.1311 18.7227 10.1311H18.7127ZM17.9027 3.87109C16.5827 3.87109 15.2427 4.48118 15.2427 5.83118C15.2427 6.90118 15.7927 7.48111 17.2227 7.89111C17.6327 8.01111 17.9327 8.22111 18.1827 8.39111C18.5427 8.64111 18.6327 8.69108 18.8927 8.61108C19.7627 8.25108 20.3727 7.35119 20.3727 6.34119C20.3727 4.98119 19.2627 3.87109 17.9027 3.87109Z" fill="#000000" />
<path d="M6.49287 10.1411C5.96287 10.1411 5.38289 10.0011 4.76289 9.65113C2.98289 8.62113 2.6029 6.40112 3.8329 4.26112C4.9429 2.35112 7.40289 1.69115 9.32289 2.79115C10.7329 3.60115 11.5229 5.2212 11.2929 6.8412C11.0429 7.8912 10.3529 8.22116 9.90291 8.43116C9.69291 8.53116 9.51289 8.62111 9.38289 8.75111C8.96289 9.15111 7.92287 10.1511 6.49287 10.1511V10.1411ZM7.32289 3.75111C6.45289 3.75111 5.6029 4.20111 5.1429 5.00111C4.4729 6.17111 4.3229 7.66121 5.5229 8.35121C6.4729 8.89121 7.26292 8.70114 8.35292 7.66114C8.66292 7.37114 8.99289 7.20119 9.26289 7.08119C9.68289 6.88119 9.7629 6.82117 9.8329 6.56117C9.9629 5.62117 9.4629 4.60121 8.5829 4.10121C8.1829 3.87121 7.75289 3.76112 7.32289 3.76112V3.75111Z" fill="#000000" />
<path d="M12.7829 21.741C12.1129 21.741 11.4329 21.571 10.8129 21.211C9.4029 20.401 8.6429 18.8411 8.8729 17.2211C9.1229 16.1911 9.7929 15.861 10.2429 15.651C10.4429 15.551 10.6229 15.4711 10.7529 15.3411C11.3129 14.8011 13.0229 13.141 15.2929 14.441C17.0529 15.461 17.4229 17.641 16.2129 19.751C15.4829 21.011 14.1529 21.7211 12.7829 21.7211V21.741ZM11.5629 19.911C12.7329 20.581 14.2429 20.181 14.9229 19.011C15.5829 17.871 15.723 16.421 14.553 15.741C13.623 15.211 12.853 15.401 11.803 16.421C11.493 16.711 11.1629 16.871 10.9029 17.001C10.4929 17.191 10.413 17.251 10.363 17.501C10.233 18.431 10.7029 19.401 11.5729 19.901L11.5629 19.911Z" fill="#000000" />
</svg>