<svg width="24px"  height="24px"  viewBox="0 0 25 24" fill="none" xmlns="http://www.w3.org/2000/svg">
<path d="M10.196 20.7511C10.196 20.7511 10.116 20.7511 10.076 20.7511L8.09602 20.4311C7.83602 20.3911 7.60603 20.2112 7.51603 19.9612L6.80601 18.0912C6.71601 17.8412 6.756 17.5612 6.926 17.3512L8.19602 15.8011C8.36602 15.5911 8.63601 15.4911 8.89601 15.5311L10.866 15.8512C11.126 15.8912 11.356 16.0712 11.446 16.3212L12.156 18.1912C12.246 18.4412 12.206 18.7211 12.036 18.9311L10.766 20.4812C10.626 20.6612 10.406 20.7611 10.186 20.7611L10.196 20.7511ZM8.76603 19.0111L9.88603 19.1912L10.606 18.3112L10.206 17.2511L9.08601 17.0712L8.36601 17.9512L8.76603 19.0111Z" fill="#000000" />
<path d="M5.0663 13.4009C4.8463 13.4009 4.63632 13.3008 4.48632 13.1308L3.20629 11.5909C3.03629 11.3809 2.98631 11.1009 3.07631 10.8509L3.76632 8.97094C3.85632 8.72094 4.0763 8.54083 4.3463 8.49083L6.3163 8.15087C6.5863 8.11087 6.8463 8.20088 7.0263 8.41088L8.30629 9.95092C8.47629 10.1609 8.5263 10.4409 8.4363 10.6909L7.7463 12.5709C7.6563 12.8209 7.43631 13.0009 7.16631 13.0509L5.19631 13.3909C5.19631 13.3909 5.1163 13.4009 5.0663 13.4009ZM4.63631 10.9609L5.36629 11.8309L6.48632 11.6409L6.8763 10.5709L6.14629 9.70092L5.0263 9.89086L4.63631 10.9609Z" fill="#000000" />
<path d="M17.8263 17.9609C17.8263 17.9609 17.7563 17.9609 17.7163 17.9609L15.7363 17.6809C15.4763 17.6409 15.2463 17.4709 15.1463 17.2209L14.3963 15.3708C14.2963 15.1208 14.3363 14.8408 14.4963 14.6308L15.7263 13.0508C15.8863 12.8408 16.1563 12.7308 16.4163 12.7708L18.3963 13.0408C18.6663 13.0808 18.8863 13.2508 18.9863 13.5008L19.7363 15.3609C19.8363 15.6109 19.7963 15.8909 19.6363 16.1009L18.4063 17.6809C18.2663 17.8609 18.0463 17.9709 17.8163 17.9709L17.8263 17.9609ZM16.3763 16.2508L17.4963 16.4108L18.1963 15.5108L17.7663 14.4509L16.6463 14.3008L15.9463 15.2009L16.3763 16.2508Z" fill="#000000" />
<path d="M11.1563 14.751C11.0563 14.751 10.9463 14.7311 10.8463 14.6811C10.4663 14.5111 10.2963 14.0711 10.4663 13.6911L13.3563 7.2311C13.5263 6.8511 13.9663 6.6811 14.3463 6.8511C14.7263 7.0211 14.8963 7.46109 14.7263 7.84109L11.8363 14.301C11.7163 14.581 11.4363 14.741 11.1563 14.741V14.751Z" fill="#000000" />
<path d="M17.7762 11.9711C17.7162 11.9711 17.6463 11.971 17.5763 11.941C17.1763 11.831 16.9463 11.421 17.0463 11.021C17.9663 7.631 21.1663 7.00108 21.2963 6.97108C21.6963 6.89108 22.0963 7.16105 22.1663 7.57105C22.2463 7.98105 21.9763 8.37105 21.5663 8.44105C21.4763 8.46105 19.1563 8.94102 18.4863 11.411C18.3963 11.741 18.0963 11.9611 17.7663 11.9611L17.7762 11.9711Z" fill="#000000" />
<path d="M8.98644 9.0405C8.77644 9.0405 8.57641 8.9605 8.42641 8.7905C8.14641 8.4805 8.17644 8.01056 8.48644 7.73056C8.55644 7.66056 10.2764 6.05055 9.56642 3.60055C9.44642 3.20055 9.67643 2.7905 10.0764 2.6705C10.4664 2.5505 10.8864 2.78051 11.0064 3.18051C11.9964 6.55051 9.59642 8.76055 9.49642 8.85055C9.35642 8.98055 9.17642 9.0405 8.99642 9.0405H8.98644Z" fill="#000000" />
<path d="M21.4461 21.3613H4.03613C3.62613 21.3613 3.28613 21.0213 3.28613 20.6113C3.28613 20.2013 3.62613 19.8613 4.03613 19.8613H21.4461C21.8561 19.8613 22.1961 20.2013 22.1961 20.6113C22.1961 21.0213 21.8561 21.3613 21.4461 21.3613Z" fill="#000000" />
</svg>