<svg width="24px"  height="24px"  viewBox="0 0 25 24" fill="none" xmlns="http://www.w3.org/2000/svg">
<path d="M18.1738 14.3539C17.3738 14.3539 16.8339 13.9738 16.4039 13.6838C16.1239 13.4938 15.8638 13.3139 15.5638 13.2239C13.7938 12.7139 11.4438 11.6738 11.4438 8.54382C11.4438 5.83382 13.7439 3.94385 17.0439 3.94385C19.9839 3.94385 22.3738 6.3338 22.3738 9.2738C22.3738 11.4538 21.0639 13.3939 19.0339 14.2239C18.7239 14.3139 18.4338 14.3539 18.1838 14.3539H18.1738ZM17.0339 5.44385C14.9939 5.44385 12.9338 6.40382 12.9338 8.54382C12.9338 10.2238 13.8139 11.1638 15.9739 11.7838C16.5039 11.9438 16.9038 12.2038 17.2438 12.4438C17.7838 12.8138 18.0139 12.9538 18.5239 12.8038C19.9139 12.2338 20.8539 10.8438 20.8539 9.2738C20.8539 7.1638 19.1339 5.44385 17.0239 5.44385H17.0339Z" fill="#000000" />
<path d="M6.18388 17.1842C5.66388 17.1842 5.09392 17.0443 4.47392 16.6943C3.71392 16.2643 3.19392 15.5942 2.97392 14.7742C2.69392 13.7442 2.91387 12.5142 3.55387 11.3942C4.08387 10.4742 4.94391 9.81423 5.96391 9.54423C6.98391 9.27423 8.04391 9.41425 8.96391 9.94425C10.3739 10.7543 11.1339 12.3142 10.9039 13.9342C10.6539 14.9642 9.98393 15.2842 9.54393 15.5042C9.33393 15.6042 9.16391 15.6942 9.02391 15.8142C8.60391 16.2142 7.57387 17.1943 6.17387 17.1943L6.18388 17.1842ZM6.99388 10.9042C6.78388 10.9042 6.56392 10.9342 6.35392 10.9842C5.71392 11.1542 5.18392 11.5642 4.85392 12.1342C4.40392 12.9142 4.24387 13.7242 4.42387 14.3742C4.54387 14.8142 4.81392 15.1542 5.22392 15.3842C6.14392 15.9242 6.92387 15.7343 7.98387 14.7143C8.28387 14.4243 8.62389 14.2542 8.88389 14.1342C9.29389 13.9342 9.36387 13.8842 9.42387 13.6342C9.55387 12.7042 9.0739 11.7342 8.2039 11.2342C7.8239 11.0142 7.40387 10.9042 6.98387 10.9042H6.99388Z" fill="#000000" />
<path d="M13.5138 21.384C13.0138 21.384 12.5238 21.254 12.0738 20.994C11.0438 20.404 10.4938 19.2541 10.6538 18.0741C10.8538 17.2441 11.3838 16.9841 11.7138 16.8341C11.8338 16.7741 11.9338 16.734 11.9938 16.674C13.0938 15.614 14.2138 15.394 15.3238 16.034C16.6238 16.794 16.9138 18.394 16.0238 19.924C15.6438 20.594 15.0138 21.074 14.2738 21.274C14.0238 21.344 13.7738 21.374 13.5238 21.374L13.5138 21.384ZM14.0638 17.184C13.7838 17.184 13.4639 17.344 13.0339 17.764C12.7939 17.994 12.5438 18.1041 12.3638 18.1941C12.2938 18.2341 12.1738 18.284 12.1538 18.304C12.0738 18.854 12.3338 19.404 12.8338 19.684C13.1538 19.864 13.5238 19.9141 13.8838 19.8241C14.2438 19.7241 14.5439 19.494 14.7239 19.174C14.8039 19.034 15.4538 17.8541 14.5638 17.3341C14.3938 17.2341 14.2338 17.174 14.0638 17.174V17.184Z" fill="#000000" />
<path d="M7.4535 7.4141C7.1035 7.4141 6.7435 7.31405 6.3935 7.11405C5.3035 6.47405 5.04352 5.10415 5.78352 3.83415C6.44352 2.67415 7.93353 2.27412 9.10353 2.93412C9.96353 3.44412 10.4335 4.40406 10.2935 5.37406C10.1235 6.12406 9.63348 6.35416 9.37349 6.47416C9.30349 6.50416 9.2235 6.54413 9.2035 6.56413C8.6235 7.11413 8.0435 7.39408 7.4535 7.39408V7.4141ZM7.8935 4.11405C7.5735 4.11405 7.25351 4.28415 7.08351 4.58415C7.06351 4.62415 6.5735 5.47413 7.1435 5.81413C7.3835 5.95413 7.62352 6.02407 8.16352 5.50407C8.36352 5.30407 8.57347 5.21407 8.73347 5.13407C8.76347 5.12407 8.7935 5.10416 8.8235 5.09416C8.8435 4.75416 8.66353 4.42406 8.35353 4.24406C8.20353 4.16406 8.0535 4.12406 7.8935 4.12406V4.11405Z" fill="#000000" />
</svg>