<svg width="24px"  height="24px"  viewBox="0 0 25 24" fill="none" xmlns="http://www.w3.org/2000/svg">
<path fill-rule="evenodd" clip-rule="evenodd" d="M12.5547 2.25C12.8575 2.25 13.1306 2.43209 13.247 2.71162C13.7995 4.03794 15.4577 4.48226 16.5993 3.60986C16.8399 3.42599 17.1674 3.40485 17.4297 3.55625C17.6919 3.70766 17.8374 4.0019 17.7985 4.3022C17.6137 5.72705 18.8276 6.94095 20.2525 6.75622C20.5528 6.71729 20.847 6.86276 20.9984 7.125C21.1498 7.38724 21.1287 7.7148 20.9448 7.9554C20.0724 9.09699 20.5167 10.7552 21.8431 11.3077C22.1226 11.4241 22.3047 11.6972 22.3047 12C22.3047 12.3028 22.1226 12.5759 21.8431 12.6923C20.5167 13.2448 20.0724 14.903 20.9448 16.0446C21.1287 16.2852 21.1498 16.6128 20.9984 16.875C20.847 17.1372 20.5528 17.2827 20.2525 17.2438C18.8276 17.059 17.6137 18.2729 17.7985 19.6978C17.8374 19.9981 17.6919 20.2923 17.4297 20.4437C17.1674 20.5952 16.8399 20.574 16.5993 20.3901C15.4577 19.5177 13.7995 19.9621 13.247 21.2884C13.1306 21.5679 12.8575 21.75 12.5547 21.75C12.2519 21.75 11.9788 21.5679 11.8623 21.2884C11.3099 19.9621 9.65168 19.5177 8.51008 20.3901C8.26949 20.574 7.94193 20.5952 7.67969 20.4437C7.41745 20.2923 7.27198 19.9981 7.31091 19.6978C7.49564 18.2729 6.28174 17.059 4.85689 17.2438C4.55659 17.2827 4.26234 17.1372 4.11094 16.875C3.95954 16.6128 3.98068 16.2852 4.16454 16.0446C5.03695 14.903 4.59263 13.2448 3.26631 12.6923C2.98678 12.5759 2.80469 12.3028 2.80469 12C2.80469 11.6972 2.98678 11.4241 3.26631 11.3077C4.59263 10.7552 5.03695 9.09699 4.16454 7.9554C3.98068 7.7148 3.95954 7.38724 4.11094 7.125C4.26234 6.86276 4.55659 6.71729 4.85689 6.75622C6.28174 6.94095 7.49564 5.72705 7.31091 4.3022C7.27198 4.0019 7.41745 3.70766 7.67969 3.55625C7.94193 3.40485 8.26949 3.42599 8.51008 3.60986C9.65168 4.48226 11.3099 4.03794 11.8623 2.71162C11.9788 2.43209 12.2519 2.25 12.5547 2.25ZM8.74134 5.39508C8.43069 6.77933 7.33401 7.876 5.94977 8.18665C6.37286 9.54077 5.97145 11.0388 4.92799 12C5.97145 12.9612 6.37286 14.4592 5.94977 15.8134C7.33402 16.124 8.43069 17.2207 8.74134 18.6049C10.0955 18.1818 11.5935 18.5832 12.5547 19.6267C13.5158 18.5832 15.0139 18.1818 16.368 18.6049C16.6787 17.2207 17.7754 16.124 19.1596 15.8134C18.7365 14.4592 19.1379 12.9612 20.1814 12C19.1379 11.0388 18.7365 9.54077 19.1596 8.18665C17.7754 7.876 16.6787 6.77933 16.368 5.39508C15.0139 5.81818 13.5158 5.41677 12.5547 4.3733C11.5935 5.41677 10.0955 5.81818 8.74134 5.39508Z" fill="#000000" />
<path fill-rule="evenodd" clip-rule="evenodd" d="M10.0309 14.3898C10.3792 14.1657 10.8433 14.2665 11.0674 14.6148C11.1961 14.8149 11.6518 15.1796 12.2603 15.2833C12.8014 15.3755 13.4581 15.2597 14.0811 14.5326C14.3506 14.2181 14.8241 14.1816 15.1386 14.4511C15.4532 14.7206 15.4897 15.1941 15.2201 15.5086C14.238 16.6548 13.0445 16.9385 12.0084 16.762C11.0396 16.597 10.191 16.0251 9.80585 15.4264C9.58176 15.078 9.6825 14.6139 10.0309 14.3898Z" fill="#000000" />
<path fill-rule="evenodd" clip-rule="evenodd" d="M9.91924 9.8833C9.40555 9.8833 8.98926 10.2996 8.98926 10.8133C8.98926 11.327 9.40553 11.7433 9.91924 11.7433C10.433 11.7433 10.8492 11.327 10.8492 10.8133C10.8492 10.2996 10.4329 9.8833 9.91924 9.8833ZM7.48926 10.8133C7.48926 9.47117 8.57711 8.3833 9.91924 8.3833C11.2614 8.3833 12.3492 9.47117 12.3492 10.8133C12.3492 12.1554 11.2614 13.2433 9.91924 13.2433C8.57712 13.2433 7.48926 12.1554 7.48926 10.8133Z" fill="#000000" />
<path fill-rule="evenodd" clip-rule="evenodd" d="M15.1898 9.8833C14.6761 9.8833 14.2598 10.2996 14.2598 10.8133C14.2598 11.327 14.676 11.7433 15.1898 11.7433C15.7035 11.7433 16.1197 11.327 16.1197 10.8133C16.1197 10.2996 15.7034 9.8833 15.1898 9.8833ZM12.7598 10.8133C12.7598 9.47117 13.8476 8.3833 15.1898 8.3833C16.5319 8.3833 17.6197 9.47117 17.6197 10.8133C17.6197 12.1554 16.5319 13.2433 15.1898 13.2433C13.8476 13.2433 12.7598 12.1554 12.7598 10.8133Z" fill="#000000" />
<path fill-rule="evenodd" clip-rule="evenodd" d="M12.4822 11.1648C12.3151 11.1605 12.224 11.2142 12.1733 11.2748C11.9071 11.5921 11.434 11.6336 11.1167 11.3674C10.7993 11.1012 10.7578 10.6281 11.024 10.3108C11.4255 9.83217 11.9935 9.65178 12.5205 9.66525C13.0403 9.67853 13.5593 9.87645 13.9741 10.2045C14.299 10.4614 14.3541 10.9331 14.0972 11.258C13.8403 11.5829 13.3686 11.638 13.0437 11.381C12.8664 11.2408 12.6564 11.1692 12.4822 11.1648Z" fill="#000000" />
<path fill-rule="evenodd" clip-rule="evenodd" d="M16.1328 10.8135C16.1328 10.3993 16.4686 10.0635 16.8828 10.0635H20.1362C20.5504 10.0635 20.8862 10.3993 20.8862 10.8135C20.8862 11.2277 20.5504 11.5635 20.1362 11.5635H16.8828C16.4686 11.5635 16.1328 11.2277 16.1328 10.8135Z" fill="#000000" />
<path fill-rule="evenodd" clip-rule="evenodd" d="M4.23633 10.8135C4.23633 10.3993 4.57211 10.0635 4.98633 10.0635H8.23975C8.65396 10.0635 8.98975 10.3993 8.98975 10.8135C8.98975 11.2277 8.65396 11.5635 8.23975 11.5635H4.98633C4.57211 11.5635 4.23633 11.2277 4.23633 10.8135Z" fill="#000000" />
</svg>