<svg width="24px"  height="24px"  viewBox="0 0 25 24" fill="none" xmlns="http://www.w3.org/2000/svg">
<path fill-rule="evenodd" clip-rule="evenodd" d="M12.5547 2.25C12.8575 2.25 13.1306 2.43209 13.247 2.71162C13.7995 4.03794 15.4577 4.48226 16.5993 3.60986C16.8399 3.42599 17.1674 3.40485 17.4297 3.55625C17.6919 3.70766 17.8374 4.0019 17.7985 4.3022C17.6137 5.72705 18.8276 6.94095 20.2525 6.75622C20.5528 6.71729 20.847 6.86276 20.9984 7.125C21.1498 7.38724 21.1287 7.7148 20.9448 7.9554C20.0724 9.09699 20.5167 10.7552 21.8431 11.3077C22.1226 11.4241 22.3047 11.6972 22.3047 12C22.3047 12.3028 22.1226 12.5759 21.8431 12.6923C20.5167 13.2448 20.0724 14.903 20.9448 16.0446C21.1287 16.2852 21.1498 16.6128 20.9984 16.875C20.847 17.1372 20.5528 17.2827 20.2525 17.2438C18.8276 17.059 17.6137 18.2729 17.7985 19.6978C17.8374 19.9981 17.6919 20.2923 17.4297 20.4437C17.1674 20.5952 16.8399 20.574 16.5993 20.3901C15.4577 19.5177 13.7995 19.9621 13.247 21.2884C13.1306 21.5679 12.8575 21.75 12.5547 21.75C12.2519 21.75 11.9788 21.5679 11.8623 21.2884C11.3099 19.9621 9.65168 19.5177 8.51008 20.3901C8.26949 20.574 7.94193 20.5952 7.67969 20.4437C7.41745 20.2923 7.27198 19.9981 7.31091 19.6978C7.49564 18.2729 6.28174 17.059 4.85689 17.2438C4.55659 17.2827 4.26234 17.1372 4.11094 16.875C3.95954 16.6128 3.98068 16.2852 4.16454 16.0446C5.03695 14.903 4.59263 13.2448 3.26631 12.6923C2.98678 12.5759 2.80469 12.3028 2.80469 12C2.80469 11.6972 2.98678 11.4241 3.26631 11.3077C4.59263 10.7552 5.03695 9.09699 4.16454 7.9554C3.98068 7.7148 3.95954 7.38724 4.11094 7.125C4.26234 6.86276 4.55659 6.71729 4.85689 6.75622C6.28174 6.94095 7.49564 5.72705 7.31091 4.3022C7.27198 4.0019 7.41745 3.70766 7.67969 3.55625C7.94193 3.40485 8.26949 3.42599 8.51008 3.60986C9.65168 4.48226 11.3099 4.03794 11.8623 2.71162C11.9788 2.43209 12.2519 2.25 12.5547 2.25ZM8.74134 5.39508C8.43069 6.77933 7.33401 7.876 5.94977 8.18665C6.37286 9.54077 5.97145 11.0388 4.92799 12C5.97145 12.9612 6.37286 14.4592 5.94977 15.8134C7.33402 16.124 8.43069 17.2207 8.74134 18.6049C10.0955 18.1818 11.5935 18.5832 12.5547 19.6267C13.5158 18.5832 15.0139 18.1818 16.368 18.6049C16.6787 17.2207 17.7754 16.124 19.1596 15.8134C18.7365 14.4592 19.1379 12.9612 20.1814 12C19.1379 11.0388 18.7365 9.54077 19.1596 8.18665C17.7754 7.876 16.6787 6.77933 16.368 5.39508C15.0139 5.81818 13.5158 5.41677 12.5547 4.3733C11.5935 5.41677 10.0955 5.81818 8.74134 5.39508Z" fill="#000000" />
<path fill-rule="evenodd" clip-rule="evenodd" d="M9.41074 12.9601C9.7591 12.7361 10.2232 12.8368 10.4473 13.1852C10.6516 13.5028 11.2993 14.0054 12.14 14.1486C12.9133 14.2803 13.8422 14.1058 14.7016 13.1029C14.9711 12.7884 15.4445 12.7519 15.7591 13.0214C16.0736 13.2909 16.1101 13.7644 15.8406 14.0789C14.6222 15.5009 13.1564 15.8433 11.8881 15.6273C10.6871 15.4227 9.6465 14.7129 9.18573 13.9967C8.96164 13.6483 9.06238 13.1842 9.41074 12.9601Z" fill="#000000" />
<path fill-rule="evenodd" clip-rule="evenodd" d="M15.2277 9.81299C14.9514 9.81299 14.7275 10.037 14.7275 10.3129C14.7275 10.7271 14.3918 11.0629 13.9775 11.0629C13.5633 11.0629 13.2275 10.7271 13.2275 10.3129C13.2275 9.20838 14.1231 8.31299 15.2277 8.31299C16.3324 8.31299 17.2275 9.20858 17.2275 10.3129C17.2275 10.7271 16.8918 11.0629 16.4775 11.0629C16.0633 11.0629 15.7275 10.7271 15.7275 10.3129C15.7275 10.0368 15.5038 9.81299 15.2277 9.81299Z" fill="#000000" />
<path fill-rule="evenodd" clip-rule="evenodd" d="M9.88196 9.81299C9.60566 9.81299 9.38184 10.037 9.38184 10.3129C9.38184 10.7271 9.04605 11.0629 8.63184 11.0629C8.21762 11.0629 7.88184 10.7271 7.88184 10.3129C7.88184 9.20838 8.77742 8.31299 9.88196 8.31299C10.9867 8.31299 11.8818 9.20858 11.8818 10.3129C11.8818 10.7271 11.546 11.0629 11.1318 11.0629C10.7176 11.0629 10.3818 10.7271 10.3818 10.3129C10.3818 10.0368 10.1581 9.81299 9.88196 9.81299Z" fill="#000000" />
</svg>