<svg width="24px"  height="24px"  viewBox="0 0 25 24" fill="none" xmlns="http://www.w3.org/2000/svg">
<path d="M12.5868 21.7342C10.9168 21.7342 9.24673 21.3143 7.73673 20.4443C5.48673 19.1443 3.86675 17.0443 3.19675 14.5243C2.52675 12.0143 2.86678 9.38424 4.16678 7.13424C6.32678 3.38424 10.7668 1.50425 14.9568 2.55425C15.2468 2.62425 15.5067 2.91425 15.5567 3.20425C15.6067 3.52425 15.4667 3.84424 15.1867 4.01424C13.1067 5.31424 11.7867 7.64424 11.7367 10.1042C11.9167 10.2742 12.4068 10.5443 12.7068 10.7143C13.5268 11.1743 14.2368 11.5743 14.4068 12.2143C14.6368 13.0843 13.8968 13.6842 13.3568 14.1142C13.2568 14.1942 13.1168 14.3043 13.0168 14.4043C14.3368 16.3343 16.4868 17.5242 18.8268 17.6042C18.8268 17.6042 18.8268 17.6042 18.8368 17.6042C19.1368 17.6142 19.4467 17.8443 19.5567 18.1243C19.6667 18.4043 19.5767 18.7842 19.3667 18.9842C17.5067 20.7842 15.0468 21.7143 12.5768 21.7143L12.5868 21.7342ZM12.6167 3.76424C9.72674 3.76424 6.95677 5.30424 5.46677 7.88424C4.36677 9.79424 4.07677 12.0042 4.64677 14.1342C5.21677 16.2642 6.57673 18.0442 8.48673 19.1442C11.1967 20.7042 14.5567 20.5643 17.1167 18.9043C14.8567 18.3843 12.8668 16.9942 11.6068 14.9842C11.0368 14.0842 11.9467 13.3543 12.4367 12.9643C12.5767 12.8543 12.7768 12.6943 12.8968 12.5643C12.7068 12.4443 12.2667 12.1943 11.9867 12.0343C11.0967 11.5343 10.2467 11.0543 10.2467 10.2543C10.2467 7.79426 11.2967 5.43425 13.0667 3.77425C12.9167 3.77425 12.7667 3.76424 12.6267 3.76424H12.6167Z" fill="#000000" />
<path d="M11.317 17.8643C10.747 17.8643 10.107 17.7143 9.43702 17.3243C9.07702 17.1143 8.95706 16.6543 9.16706 16.2943C9.37706 15.9343 9.83703 15.8143 10.197 16.0243C11.827 16.9743 12.7671 15.6543 12.7771 15.6443C12.9971 15.2943 13.457 15.1943 13.817 15.4143C14.167 15.6343 14.2671 16.1043 14.0471 16.4543C13.6671 17.0443 12.667 17.8643 11.327 17.8643H11.317Z" fill="#000000" />
<path d="M7.56665 10.1243C7.15665 10.1243 6.81665 9.78433 6.81665 9.37433C6.81665 8.93433 7.00665 8.29433 7.25665 7.87433C7.46665 7.51433 7.92668 7.39432 8.28668 7.61432C8.64668 7.82432 8.76669 8.28432 8.54669 8.64432C8.42669 8.85432 8.31665 9.24431 8.31665 9.38431C8.31665 9.79431 7.97665 10.1343 7.56665 10.1343V10.1243Z" fill="#000000" />
<path d="M18.8669 12.2844C18.5769 12.2844 18.307 12.1143 18.187 11.8543L17.4269 10.2244L15.797 9.45435C15.537 9.33435 15.3669 9.06436 15.3669 8.77436C15.3669 8.48436 15.537 8.21437 15.797 8.09437L17.4269 7.32435L18.187 5.69437C18.437 5.16438 19.297 5.16438 19.547 5.69437L20.3069 7.32435L21.937 8.09437C22.197 8.21437 22.3669 8.48436 22.3669 8.77436C22.3669 9.06436 22.197 9.33435 21.937 9.45435L20.3069 10.2244L19.547 11.8543C19.427 12.1143 19.1569 12.2844 18.8669 12.2844ZM17.877 8.78437L18.3069 8.98435C18.4669 9.05435 18.597 9.18437 18.667 9.34437L18.8669 9.77436L19.067 9.34437C19.137 9.18437 19.2669 9.05435 19.4269 8.98435L19.857 8.78437L19.4269 8.58436C19.2669 8.51436 19.137 8.38437 19.067 8.22437L18.8669 7.79435L18.667 8.22437C18.597 8.38437 18.4669 8.51436 18.3069 8.58436L17.877 8.78437Z" fill="#000000" />
<path d="M16.887 14.6643C16.477 14.6643 16.137 14.3243 16.137 13.9143C16.137 13.5043 16.477 13.1543 16.887 13.1543C17.297 13.1543 17.637 13.4843 17.637 13.8943V13.9143C17.637 14.3243 17.297 14.6643 16.887 14.6643Z" fill="#000000" />
</svg>