<svg width="24px"  height="24px"  viewBox="0 0 25 24" fill="none" xmlns="http://www.w3.org/2000/svg">
<path fill-rule="evenodd" clip-rule="evenodd" d="M12.5547 2.25C12.8575 2.25 13.1306 2.43209 13.247 2.71162C13.7995 4.03794 15.4577 4.48226 16.5993 3.60986C16.8399 3.42599 17.1674 3.40485 17.4297 3.55625C17.6919 3.70766 17.8374 4.0019 17.7985 4.3022C17.6137 5.72705 18.8276 6.94095 20.2525 6.75622C20.5528 6.71729 20.847 6.86276 20.9984 7.125C21.1498 7.38724 21.1287 7.7148 20.9448 7.9554C20.0724 9.09699 20.5167 10.7552 21.8431 11.3077C22.1226 11.4241 22.3047 11.6972 22.3047 12C22.3047 12.3028 22.1226 12.5759 21.8431 12.6923C20.5167 13.2448 20.0724 14.903 20.9448 16.0446C21.1287 16.2852 21.1498 16.6128 20.9984 16.875C20.847 17.1372 20.5528 17.2827 20.2525 17.2438C18.8276 17.059 17.6137 18.2729 17.7985 19.6978C17.8374 19.9981 17.6919 20.2923 17.4297 20.4437C17.1674 20.5952 16.8399 20.574 16.5993 20.3901C15.4577 19.5177 13.7995 19.9621 13.247 21.2884C13.1306 21.5679 12.8575 21.75 12.5547 21.75C12.2519 21.75 11.9788 21.5679 11.8623 21.2884C11.3099 19.9621 9.65168 19.5177 8.51008 20.3901C8.26949 20.574 7.94193 20.5952 7.67969 20.4437C7.41745 20.2923 7.27198 19.9981 7.31091 19.6978C7.49564 18.2729 6.28174 17.059 4.85689 17.2438C4.55659 17.2827 4.26234 17.1372 4.11094 16.875C3.95954 16.6128 3.98068 16.2852 4.16454 16.0446C5.03695 14.903 4.59263 13.2448 3.26631 12.6923C2.98678 12.5759 2.80469 12.3028 2.80469 12C2.80469 11.6972 2.98678 11.4241 3.26631 11.3077C4.59263 10.7552 5.03695 9.09699 4.16454 7.9554C3.98068 7.7148 3.95954 7.38724 4.11094 7.125C4.26234 6.86276 4.55659 6.71729 4.85689 6.75622C6.28174 6.94095 7.49564 5.72705 7.31091 4.3022C7.27198 4.0019 7.41745 3.70766 7.67969 3.55625C7.94193 3.40485 8.26949 3.42599 8.51008 3.60986C9.65168 4.48226 11.3099 4.03794 11.8623 2.71162C11.9788 2.43209 12.2519 2.25 12.5547 2.25ZM8.74134 5.39508C8.43069 6.77933 7.33401 7.876 5.94977 8.18665C6.37286 9.54077 5.97145 11.0388 4.92799 12C5.97145 12.9612 6.37286 14.4592 5.94977 15.8134C7.33402 16.124 8.43069 17.2207 8.74134 18.6049C10.0955 18.1818 11.5935 18.5832 12.5547 19.6267C13.5158 18.5832 15.0139 18.1818 16.368 18.6049C16.6787 17.2207 17.7754 16.124 19.1596 15.8134C18.7365 14.4592 19.1379 12.9612 20.1814 12C19.1379 11.0388 18.7365 9.54077 19.1596 8.18665C17.7754 7.876 16.6787 6.77933 16.368 5.39508C15.0139 5.81818 13.5158 5.41677 12.5547 4.3733C11.5935 5.41677 10.0955 5.81818 8.74134 5.39508Z" fill="#000000" />
<path fill-rule="evenodd" clip-rule="evenodd" d="M10.0309 14.3898C10.3792 14.1657 10.8433 14.2665 11.0674 14.6148C11.1961 14.8149 11.6518 15.1796 12.2603 15.2833C12.8014 15.3755 13.4581 15.2597 14.0811 14.5326C14.3506 14.2181 14.8241 14.1816 15.1386 14.4511C15.4532 14.7206 15.4897 15.1941 15.2201 15.5086C14.238 16.6548 13.0445 16.9385 12.0084 16.762C11.0396 16.597 10.191 16.0251 9.80585 15.4264C9.58176 15.078 9.6825 14.6139 10.0309 14.3898Z" fill="#000000" />
<path fill-rule="evenodd" clip-rule="evenodd" d="M8.93648 10.1227C8.95012 10.2128 8.96075 10.3032 8.9709 10.3896C8.97347 10.4115 8.97602 10.4332 8.97858 10.4545C9.02911 10.8762 9.08989 11.3615 9.13892 11.748C9.14198 11.7721 9.16267 11.7922 9.19059 11.7922H10.6613C10.6826 11.7922 10.7019 11.7795 10.7104 11.76L11.407 10.1605C10.4991 10.0615 9.7935 10.0495 8.93648 10.1227ZM13.9075 10.1619C14.777 10.0691 15.409 10.0568 16.2092 10.1262C16.1733 10.275 16.1555 10.4065 16.1464 10.5024C16.1418 10.5514 16.1393 10.5925 16.138 10.6235C16.1376 10.6325 16.1373 10.6407 16.1371 10.648L16.0502 11.7428C16.048 11.7707 16.0248 11.7922 15.9968 11.7922H14.7679C14.7023 11.7922 14.6426 11.754 14.6151 11.6944L13.9075 10.1619ZM17.6365 10.686C17.6365 10.688 17.6365 10.6901 17.6364 10.6922C17.6363 10.7098 17.6355 10.7273 17.6341 10.7448L17.5455 11.8615C17.4814 12.6693 16.8072 13.2922 15.9968 13.2922H14.7679C14.1173 13.2922 13.526 12.9139 13.2532 12.3232L12.6604 11.0392L12.0857 12.3589C11.8388 12.9257 11.2795 13.2922 10.6613 13.2922H9.19059C8.41078 13.2922 7.7494 12.7139 7.65084 11.9367C7.60166 11.549 7.54038 11.0598 7.48923 10.633C7.48749 10.6184 7.48581 10.6044 7.48419 10.5909C7.47077 10.4786 7.46149 10.4011 7.4517 10.3363C7.44489 10.2912 7.43955 10.2648 7.43611 10.2501C7.42913 10.2424 7.41791 10.2306 7.40073 10.2138C7.40073 10.2138 7.40074 10.2139 7.40073 10.2138C7.40049 10.2136 7.39785 10.2112 7.39243 10.2071C7.38679 10.2029 7.38051 10.1988 7.37447 10.1951C7.37042 10.1927 7.36727 10.1909 7.36552 10.19C7.0681 10.0497 6.89621 9.73134 6.94325 9.40477C6.99095 9.07357 7.25228 8.81403 7.58381 8.76862C9.41749 8.51746 10.4639 8.50921 12.2801 8.75741C12.5054 8.78821 12.7287 8.79597 13.0279 8.75684C14.8349 8.52055 15.7171 8.52278 17.524 8.76852C17.7989 8.80591 18.0307 8.99199 18.1266 9.2523C18.2226 9.51261 18.167 9.80462 17.9821 10.0115L17.9813 10.0123L17.9801 10.0137L17.9767 10.0175L17.9655 10.0298C17.9564 10.0398 17.9438 10.0535 17.929 10.069C17.9038 10.0957 17.857 10.1445 17.8076 10.1883C17.7591 10.2314 17.7043 10.3259 17.6681 10.4747C17.652 10.541 17.6438 10.6013 17.6397 10.6438C17.6378 10.6645 17.6369 10.6796 17.6366 10.6874C17.6365 10.6897 17.6365 10.6913 17.6364 10.6922C17.6364 10.6926 17.6364 10.6921 17.6364 10.6922L17.6364 10.691L17.6365 10.6887L17.6365 10.686ZM12.3357 10.3361C12.3357 10.3359 12.3358 10.3362 12.3357 10.3361V10.3361Z" fill="#000000" />
</svg>