<svg width="24px"  height="24px"  viewBox="0 0 25 24" fill="none" xmlns="http://www.w3.org/2000/svg">
<path fill-rule="evenodd" clip-rule="evenodd" d="M6.30856 2.84709C7.58652 2.47168 9.30765 2.25 11.1772 2.25C13.0468 2.25 14.768 2.47168 16.0459 2.84709C16.68 3.03335 17.2477 3.26969 17.6739 3.56567C18.0778 3.84621 18.5137 4.29675 18.5137 4.93478C18.5137 5.57282 18.0778 6.02336 17.6739 6.3039C17.2477 6.59988 16.68 6.83622 16.0459 7.02248C14.768 7.39789 13.0468 7.61957 11.1772 7.61957C9.30765 7.61957 7.58652 7.39789 6.30856 7.02248C5.6745 6.83622 5.10677 6.59988 4.68059 6.3039C4.27665 6.02336 3.84082 5.57282 3.84082 4.93478C3.84082 4.29675 4.27665 3.84621 4.68059 3.56567C5.10677 3.26969 5.6745 3.03335 6.30856 2.84709ZM5.33312 4.98589C5.33307 4.98589 5.33337 4.98507 5.33418 4.98345C5.33358 4.98509 5.33317 4.9859 5.33312 4.98589ZM5.3712 4.93478C5.40053 4.90301 5.45102 4.85687 5.53624 4.79769C5.77665 4.63072 6.17347 4.45015 6.73132 4.28628C7.83718 3.96143 9.40926 3.75 11.1772 3.75C12.9452 3.75 14.5173 3.96143 15.6232 4.28628C16.181 4.45015 16.5778 4.63072 16.8183 4.79769C16.9035 4.85687 16.954 4.903 16.9833 4.93478C16.954 4.96656 16.9035 5.0127 16.8183 5.07188C16.5778 5.23885 16.181 5.41942 15.6232 5.58329C14.5173 5.90814 12.9452 6.11957 11.1772 6.11957C9.40926 6.11957 7.83718 5.90814 6.73132 5.58329C6.17347 5.41942 5.77665 5.23885 5.53624 5.07188C5.45102 5.0127 5.40053 4.96656 5.3712 4.93478ZM17.0214 4.98589C17.0213 4.9859 17.0209 4.98509 17.0203 4.98345C17.0211 4.98507 17.0214 4.98589 17.0214 4.98589ZM17.0203 4.88612C17.0209 4.88448 17.0213 4.88367 17.0214 4.88368C17.0214 4.88368 17.0211 4.8845 17.0203 4.88612ZM5.33418 4.88612C5.33337 4.8845 5.33307 4.88368 5.33312 4.88368C5.33317 4.88367 5.33358 4.88448 5.33418 4.88612Z" fill="#000000" />
<path fill-rule="evenodd" clip-rule="evenodd" d="M5.28225 11.3489C5.49845 10.9956 5.96013 10.8844 6.31345 11.1006C6.68854 11.3301 7.34954 11.5616 8.25687 11.7328C9.14853 11.901 10.2236 12.0009 11.3872 12.0009C11.8014 12.0009 12.1372 12.3367 12.1372 12.7509C12.1372 13.1651 11.8014 13.5009 11.3872 13.5009C10.1426 13.5009 8.9735 13.3944 7.97883 13.2068C6.99984 13.0221 6.13234 12.7483 5.53052 12.3801C5.1772 12.1639 5.06605 11.7022 5.28225 11.3489Z" fill="#000000" />
<path fill-rule="evenodd" clip-rule="evenodd" d="M18.0295 15.1536C18.187 15.5367 18.004 15.9749 17.6209 16.1324C16.351 16.6543 14.1649 17.0209 11.8922 16.5916C11.4852 16.5147 11.2175 16.1224 11.2944 15.7154C11.3713 15.3084 11.7636 15.0408 12.1706 15.1176C14.1533 15.4922 16.0449 15.1584 17.0507 14.745C17.4338 14.5875 17.872 14.7704 18.0295 15.1536Z" fill="#000000" />
<path fill-rule="evenodd" clip-rule="evenodd" d="M19.0043 7.24C19.1092 6.83928 19.519 6.59944 19.9197 6.7043C20.5274 6.86331 21.0785 7.07574 21.4961 7.35054C21.8858 7.60704 22.337 8.04136 22.337 8.67869C22.337 9.11459 22.1196 9.46022 21.8749 9.70332C21.6326 9.94411 21.3177 10.1338 20.9846 10.2853C20.3151 10.5901 19.4197 10.8092 18.4242 10.9319C17.8265 11.0056 15.6591 11.2542 12.9893 10.9322C12.5781 10.8825 12.285 10.509 12.3346 10.0977C12.3842 9.6865 12.7578 9.39334 13.169 9.44296C15.6633 9.74388 17.6926 9.51075 18.2407 9.44319C19.1497 9.33115 19.8816 9.13935 20.3632 8.92013C20.5636 8.82893 20.695 8.74443 20.7743 8.67842C20.7487 8.65732 20.7151 8.63227 20.6714 8.60353C20.444 8.45383 20.0666 8.29323 19.54 8.15544C19.1393 8.05058 18.8994 7.64072 19.0043 7.24ZM20.8523 8.75876C20.8522 8.75877 20.8513 8.75739 20.85 8.75458C20.8518 8.75734 20.8524 8.75874 20.8523 8.75876ZM20.8527 8.59922C20.8534 8.59794 20.8538 8.5973 20.8539 8.5973C20.8539 8.5973 20.8536 8.59794 20.8527 8.59922Z" fill="#000000" />
<path fill-rule="evenodd" clip-rule="evenodd" d="M5.59056 14.9234C5.74891 15.3062 5.56701 15.7448 5.18426 15.9032C4.83442 16.0479 4.60814 16.1905 4.48153 16.3068C4.44428 16.3411 4.42116 16.3675 4.40708 16.3863C4.42618 16.4119 4.46215 16.452 4.52808 16.5058C4.70213 16.6478 5.00028 16.8108 5.43859 16.9667C6.30781 17.2759 7.56646 17.5008 9.02467 17.5572C9.43858 17.5732 9.76113 17.9218 9.74513 18.3357C9.72912 18.7496 9.3806 19.0721 8.9667 19.0561C7.40781 18.9958 5.98942 18.7547 4.93588 18.38C4.4128 18.1939 3.93813 17.9604 3.57971 17.668C3.22766 17.3807 2.8916 16.9524 2.8916 16.3862C2.8916 15.8798 3.16248 15.4817 3.46677 15.2022C3.77119 14.9225 4.17288 14.6983 4.6108 14.5171C4.99355 14.3588 5.4322 14.5407 5.59056 14.9234ZM4.38691 16.3524C4.38702 16.3524 4.3876 16.3537 4.38831 16.3563C4.38715 16.3537 4.3868 16.3524 4.38691 16.3524ZM4.38822 16.4159C4.38743 16.4187 4.38679 16.4201 4.38666 16.4201C4.38653 16.4201 4.38692 16.4187 4.38822 16.4159Z" fill="#000000" />
<path fill-rule="evenodd" clip-rule="evenodd" d="M4.7265 4.16759C5.13372 4.24342 5.40236 4.635 5.32654 5.04221C4.78438 7.95383 5.97757 10.3737 7.37648 12.9137C7.46338 13.0715 7.55138 13.2301 7.63989 13.3896C8.92839 15.7122 10.3232 18.2263 9.95564 21.0952C9.903 21.5061 9.52727 21.7965 9.11642 21.7438C8.70556 21.6912 8.41516 21.3155 8.46779 20.9046C8.77058 18.5411 7.61281 16.4447 6.25984 13.9948C6.19449 13.8765 6.12869 13.7574 6.06257 13.6373C4.67451 11.117 3.20135 8.26128 3.85188 4.76763C3.92771 4.36041 4.31929 4.09177 4.7265 4.16759ZM17.8492 4.41294C18.2607 4.46005 18.5561 4.83184 18.509 5.24337C18.3699 6.45877 18.4264 7.76286 18.4911 9.16666L18.4939 9.22889C18.5568 10.5923 18.6236 12.0429 18.4849 13.4751C18.343 14.9396 17.9846 16.4159 17.1721 17.8185C16.3577 19.2244 15.1113 20.5144 13.2546 21.6411C12.9005 21.856 12.4393 21.7431 12.2244 21.389C12.0095 21.0349 12.1224 20.5736 12.4765 20.3587C14.1457 19.3458 15.201 18.2287 15.8741 17.0666C16.5492 15.9013 16.8642 14.6488 16.9919 13.3305C17.1202 12.0056 17.0576 10.6458 16.9932 9.24766L16.9926 9.23566C16.9291 7.8556 16.8636 6.42869 17.0188 5.07278C17.0659 4.66126 17.4377 4.36583 17.8492 4.41294Z" fill="#000000" />
</svg>