<svg width="24px"  height="24px"  viewBox="0 0 25 24" fill="none" xmlns="http://www.w3.org/2000/svg">
<path fill-rule="evenodd" clip-rule="evenodd" d="M12.0697 3.75C8.84142 3.75 6.1584 4.71192 4.84746 5.98387C4.55018 6.27231 4.07536 6.26514 3.78692 5.96785C3.49848 5.67057 3.50565 5.19575 3.80293 4.90731C5.4969 3.26374 8.62369 2.25 12.0697 2.25C14.6072 2.25 16.9417 2.79741 18.6689 3.7194C20.364 4.62427 21.6529 6.00161 21.6529 7.71516C21.6529 9.17409 20.7115 10.3936 19.4049 11.2705C18.0865 12.1554 16.2865 12.7764 14.2712 13.0394C12.6677 13.2486 10.8952 13.2905 9.26503 13.0616C7.98495 12.8818 6.78534 12.4618 5.91434 11.8264C5.04169 11.1898 4.3999 10.2475 4.57226 9.08439C4.57485 9.06695 4.57805 9.04961 4.58185 9.0324C4.81778 7.96539 5.60443 7.2034 6.54123 6.68924C7.48104 6.17343 8.65754 5.85531 9.87236 5.6996C12.2806 5.39092 15.0833 5.69306 16.8842 6.63911C17.2508 6.83175 17.3919 7.28518 17.1993 7.65187C17.0067 8.01856 16.5532 8.15966 16.1865 7.96702C14.7472 7.21089 12.2834 6.90284 10.0631 7.18743C8.96362 7.32835 7.98534 7.60773 7.26294 8.00421C6.55068 8.39513 6.16854 8.85062 6.05262 9.32971C6.00325 9.73304 6.19647 10.1755 6.79835 10.6146C7.41457 11.0641 8.35912 11.4197 9.47364 11.5762C10.9431 11.7825 12.577 11.7477 14.0772 11.552C15.9243 11.311 17.4886 10.7502 18.5689 10.0251C19.6611 9.292 20.1529 8.47319 20.1529 7.71516C20.1529 6.82459 19.4643 5.84436 17.9625 5.04267C16.4927 4.25811 14.4106 3.75 12.0697 3.75Z" fill="#000000" />
<path fill-rule="evenodd" clip-rule="evenodd" d="M9.13025 11.896C9.27097 12.2856 9.06924 12.7155 8.67966 12.8562C7.88711 13.1425 7.48215 13.529 7.3527 13.9274C7.30458 14.1931 7.40598 14.5222 7.85187 14.8968C8.31336 15.2846 9.05004 15.624 9.94559 15.8131C11.1313 16.0634 12.468 16.127 13.7065 16.0511C15.4719 15.9429 16.9282 15.4635 17.8287 14.8123C18.1643 14.5695 18.6332 14.6449 18.8759 14.9805C19.1187 15.3161 19.0433 15.785 18.7077 16.0277C17.5069 16.8962 15.7468 17.4289 13.7982 17.5483C12.4556 17.6305 10.9802 17.5646 9.63573 17.2807C8.57659 17.0571 7.58987 16.6359 6.88693 16.0452C6.18242 15.4533 5.67038 14.5951 5.89243 13.5815C5.8962 13.5643 5.90058 13.5472 5.90556 13.5303C6.2216 12.4562 7.1637 11.809 8.17006 11.4455C8.55963 11.3047 8.98952 11.5065 9.13025 11.896Z" fill="#000000" />
<path fill-rule="evenodd" clip-rule="evenodd" d="M10.1179 16.3239C10.2829 16.7038 10.1087 17.1455 9.72875 17.3106C9.17697 17.5502 8.8821 17.8682 8.78106 18.2238C8.73779 18.4821 8.82472 18.7626 9.12457 19.0578C9.44198 19.3704 9.95852 19.6479 10.5994 19.7995C11.4646 20.0041 12.4499 20.0483 13.3694 19.9711C14.1575 19.905 14.867 19.7211 15.4514 19.4563C15.8286 19.2853 16.2731 19.4525 16.4441 19.8298C16.615 20.2071 16.4478 20.6516 16.0705 20.8225C15.3134 21.1656 14.4343 21.3871 13.4948 21.4659C12.4534 21.5533 11.3049 21.5077 10.2541 21.2592C9.41476 21.0607 8.62984 20.6758 8.07217 20.1267C7.50531 19.5686 7.13981 18.7957 7.3131 17.9131C7.31602 17.8983 7.31938 17.8835 7.32319 17.8689C7.57289 16.9086 8.30969 16.2915 9.1312 15.9347C9.51112 15.7697 9.95288 15.9439 10.1179 16.3239Z" fill="#000000" />
</svg>