<svg width="24px"  height="24px"  viewBox="0 0 25 24" fill="none" xmlns="http://www.w3.org/2000/svg">
<path fill-rule="evenodd" clip-rule="evenodd" d="M18.6802 11.444C18.9514 11.1309 18.9173 10.6572 18.6042 10.3861C17.5939 9.51139 15.7184 8.90539 13.6695 8.73723C12.3761 8.63107 11.1526 8.70988 10.1487 8.94097C9.745 9.03389 9.49309 9.43644 9.58601 9.8401C9.67892 10.2438 10.0815 10.4957 10.4851 10.4027C11.3146 10.2118 12.3806 10.1365 13.5468 10.2322C15.4611 10.3893 16.962 10.9484 17.6223 11.5201C17.9355 11.7912 18.4091 11.7572 18.6802 11.444Z" fill="#000000" />
<path fill-rule="evenodd" clip-rule="evenodd" d="M12.0772 3.75C8.88986 3.75 6.2425 4.6998 4.95 5.95385C4.65272 6.24229 4.1779 6.23512 3.88946 5.93784C3.60102 5.64056 3.60819 5.16574 3.90547 4.8773C5.581 3.25162 8.67214 2.25 12.0772 2.25C14.5847 2.25 16.8921 2.79094 18.5997 3.70245C20.2752 4.59684 21.5519 5.95972 21.5519 7.65728C21.5519 9.10261 20.6193 10.3096 19.3275 11.1767C18.0238 12.0517 16.2445 12.6654 14.2529 12.9253C12.6684 13.132 10.9168 13.1735 9.30566 12.9472C8.04027 12.7695 6.85383 12.3542 5.99195 11.7255C5.12842 11.0956 4.49174 10.1618 4.66266 9.00836C4.66525 8.99092 4.66845 8.97358 4.67225 8.95637C4.90607 7.8989 5.68555 7.14445 6.61214 6.63589C7.54175 6.12568 8.70502 5.81123 9.90565 5.65734C12.2855 5.3523 15.0559 5.65069 16.8368 6.58629C17.2035 6.77893 17.3446 7.23236 17.152 7.59905C16.9593 7.96574 16.5059 8.10684 16.1392 7.9142C14.7198 7.16852 12.2882 6.86422 10.0964 7.14516C9.0111 7.28427 8.04605 7.55997 7.33386 7.95086C6.63187 8.33614 6.25685 8.78407 6.14303 9.25367C6.09505 9.64743 6.28331 10.0813 6.87596 10.5137C7.48305 10.9565 8.41444 11.3073 9.51426 11.4618C10.9647 11.6655 12.5777 11.6311 14.0588 11.4379C15.8822 11.2 17.4259 10.6464 18.4915 9.9312C19.569 9.20801 20.0519 8.40171 20.0519 7.65728C20.0519 6.7827 19.3755 5.81693 17.8933 5.02572C16.4432 4.25163 14.3882 3.75 12.0772 3.75Z" fill="#000000" />
<path fill-rule="evenodd" clip-rule="evenodd" d="M20.2565 12.5888C20.5278 12.9018 20.494 13.3755 20.181 13.6468C18.849 14.8015 16.78 15.603 14.4309 15.9095C12.8464 16.1162 11.0948 16.1577 9.48368 15.9314C9.07349 15.8738 8.78767 15.4946 8.84527 15.0844C8.90288 14.6742 9.2821 14.3884 9.69229 14.446C11.1427 14.6497 12.7558 14.6153 14.2369 14.4221C16.4024 14.1395 18.1591 13.4144 19.1985 12.5134C19.5115 12.2421 19.9852 12.2758 20.2565 12.5888Z" fill="#000000" />
<path fill-rule="evenodd" clip-rule="evenodd" d="M18.5428 16.419C18.8869 16.6496 18.9789 17.1155 18.7484 17.4596C17.6277 19.1319 16.0674 20.1789 14.6476 20.8163C13.2326 21.4516 11.9127 21.7004 11.2027 21.7482C10.902 21.7684 10.6184 21.6067 10.4827 21.3376C10.347 21.0684 10.3855 20.7442 10.5806 20.5145C10.5957 20.4967 10.6112 20.4785 10.6269 20.46C11.154 19.8404 12.0248 18.8169 11.8832 17.5662C11.8366 17.1546 12.1325 16.7832 12.5441 16.7366C12.9557 16.69 13.3271 16.9859 13.3737 17.3975C13.4822 18.3558 13.2182 19.2058 12.864 19.8893C13.2311 19.7754 13.6267 19.6304 14.0332 19.4479C15.2779 18.8891 16.5812 17.9991 17.5023 16.6246C17.7328 16.2805 18.1987 16.1884 18.5428 16.419Z" fill="#000000" />
</svg>