<svg width="24px"  height="24px"  viewBox="0 0 25 24" fill="none" xmlns="http://www.w3.org/2000/svg">
<path fill-rule="evenodd" clip-rule="evenodd" d="M18.4478 6.16626C16.2605 3.97896 13.15 3.27562 10.3673 4.06005C9.96867 4.17244 9.55437 3.94036 9.44199 3.54168C9.3296 3.14301 9.56168 2.72871 9.96036 2.61632C13.2443 1.69059 16.9219 2.51909 19.5084 5.1056C23.316 8.91321 23.316 15.0866 19.5084 18.8942C15.7008 22.7018 9.52746 22.7018 5.71985 18.8942C3.06593 16.2403 2.26285 12.4378 3.30655 9.0901C3.42984 8.69465 3.85035 8.47403 4.24579 8.59732C4.64123 8.7206 4.86185 9.14111 4.73857 9.53656C3.85426 12.373 4.53626 15.5893 6.78051 17.8335C10.0023 21.0554 15.2259 21.0554 18.4478 17.8335C21.6696 14.6117 21.6696 9.38809 18.4478 6.16626Z" fill="#000000" />
<path fill-rule="evenodd" clip-rule="evenodd" d="M6.36036 4.68994C5.82916 4.68994 5.39844 5.12056 5.39844 5.65239C5.39844 6.18422 5.82916 6.61484 6.36036 6.61484C6.89217 6.61484 7.32334 6.18362 7.32334 5.65239C7.32334 5.12116 6.89217 4.68994 6.36036 4.68994ZM3.89844 5.65239C3.89844 4.2927 5.00017 3.18994 6.36036 3.18994C7.71996 3.18994 8.82334 4.2921 8.82334 5.65239C8.82334 7.01267 7.71997 8.11484 6.36036 8.11484C5.00016 8.11484 3.89844 7.01208 3.89844 5.65239Z" fill="#000000" />
<path fill-rule="evenodd" clip-rule="evenodd" d="M10.0752 7.51123C10.4894 7.51123 10.8252 7.84702 10.8252 8.26123V15.7385C10.8252 16.1527 10.4894 16.4885 10.0752 16.4885C9.66098 16.4885 9.3252 16.1527 9.3252 15.7385V8.26123C9.3252 7.84702 9.66098 7.51123 10.0752 7.51123Z" fill="#000000" />
<path fill-rule="evenodd" clip-rule="evenodd" d="M15.7125 7.76432C15.9869 8.07458 15.9579 8.54856 15.6477 8.823L10.5802 13.3055C10.2699 13.58 9.79594 13.5509 9.5215 13.2407C9.24706 12.9304 9.27609 12.4564 9.58635 12.182L14.6538 7.69948C14.9641 7.42504 15.4381 7.45407 15.7125 7.76432Z" fill="#000000" />
<path fill-rule="evenodd" clip-rule="evenodd" d="M15.6309 16.3166C15.9503 16.0529 15.9955 15.5801 15.7317 15.2607L12.1995 10.9827C11.9357 10.6633 11.463 10.6182 11.1436 10.8819C10.8242 11.1456 10.779 11.6184 11.0428 11.9378L14.5751 16.2158C14.8388 16.5352 15.3115 16.5803 15.6309 16.3166Z" fill="#000000" />
</svg>