<svg width="24px"  height="24px"  viewBox="0 0 25 24" fill="none" xmlns="http://www.w3.org/2000/svg">
<path fill-rule="evenodd" clip-rule="evenodd" d="M5.53224 3.75C5.00103 3.75 4.57031 4.18062 4.57031 4.71245C4.57031 5.24428 5.00103 5.6749 5.53224 5.6749C6.06404 5.6749 6.49521 5.24368 6.49521 4.71245C6.49521 4.18122 6.06405 3.75 5.53224 3.75ZM3.07031 4.71245C3.07031 3.35275 4.17204 2.25 5.53224 2.25C6.89184 2.25 7.99521 3.35216 7.99521 4.71245C7.99521 6.07273 6.89184 7.1749 5.53224 7.1749C4.17204 7.1749 3.07031 6.07213 3.07031 4.71245Z" fill="#000000" />
<path fill-rule="evenodd" clip-rule="evenodd" d="M18.7834 5.34342C19.6562 4.61705 20.9526 4.73574 21.679 5.60853C22.4053 6.48133 22.2867 7.77771 21.4139 8.50408L16.6185 12.495L21.6473 18.2253C22.3963 19.0787 22.3116 20.3778 21.4582 21.1268C20.6047 21.8758 19.3057 21.7911 18.5567 20.9376L13.4567 15.1263L13.0222 15.488V19.5816C13.0222 20.7171 12.1017 21.6376 10.9662 21.6376C9.83067 21.6376 8.91016 20.7171 8.91016 19.5816V6.92375C8.91016 5.78824 9.83067 4.86773 10.9662 4.86773C12.1017 4.86773 13.0222 5.78824 13.0222 6.92375V10.1382L18.7834 5.34342ZM20.526 6.56807C20.3296 6.33203 19.979 6.29994 19.743 6.49637L19.2685 5.92631L19.743 6.49637L12.752 12.3146C12.5284 12.5007 12.2173 12.5407 11.9539 12.4172C11.6905 12.2937 11.5222 12.029 11.5222 11.7381V6.92375C11.5222 6.61667 11.2733 6.36773 10.9662 6.36773C10.6591 6.36773 10.4102 6.61667 10.4102 6.92375V19.5816C10.4102 19.8887 10.6591 20.1376 10.9662 20.1376C11.2733 20.1376 11.5222 19.8887 11.5222 19.5816V15.1364C11.5222 14.9137 11.6212 14.7024 11.7924 14.5599L13.0588 13.506C13.3713 13.246 13.8341 13.2822 14.1023 13.5878L19.6841 19.9482C19.8866 20.179 20.238 20.2019 20.4688 19.9994C20.6996 19.7968 20.7225 19.4455 20.5199 19.2147L14.9832 12.9057C14.8498 12.7537 14.7834 12.5541 14.7992 12.3524C14.815 12.1507 14.9117 11.964 15.0672 11.8346L20.4543 7.35113C20.6904 7.15469 20.7225 6.8041 20.526 6.56807Z" fill="#000000" />
</svg>