<svg width="24px"  height="24px"  viewBox="0 0 25 24" fill="none" xmlns="http://www.w3.org/2000/svg">
<path fill-rule="evenodd" clip-rule="evenodd" d="M10.0758 4.72995C8.76922 3.42335 6.6508 3.42335 5.34421 4.72995C4.03761 6.03655 4.03761 8.15496 5.34421 9.46156C5.39184 9.50919 5.44048 9.55503 5.49005 9.59909C5.70611 9.79113 5.79257 10.0902 5.7123 10.3679C4.95518 12.9871 5.60946 15.9247 7.67127 17.9865C10.6893 21.0045 15.5825 21.0045 18.6006 17.9865C21.6186 14.9684 21.6186 10.0752 18.6006 7.05713C16.5388 4.99537 13.6014 4.34108 10.9822 5.09811C10.7045 5.17838 10.4054 5.09191 10.2134 4.87585C10.1693 4.82626 10.1235 4.7776 10.0758 4.72995ZM11.0043 3.54195C9.10384 1.7779 6.13249 1.82035 4.28355 3.66929C2.43463 5.5182 2.39216 8.4895 4.15613 10.39C3.44472 13.3988 4.26177 16.6983 6.61061 19.0471C10.2144 22.651 16.0574 22.651 19.6613 19.0471C23.2651 15.4433 23.2651 9.60031 19.6613 5.99647C17.3125 3.64768 14.0131 2.83063 11.0043 3.54195Z" fill="#000000" />
<path fill-rule="evenodd" clip-rule="evenodd" d="M7.86816 8.10617C7.86816 7.58448 8.29099 7.16113 8.81316 7.16113C9.33473 7.16113 9.75827 7.58388 9.75827 8.10617C9.75827 8.62846 9.33473 9.05121 8.81316 9.05121C8.29098 9.05121 7.86816 8.62786 7.86816 8.10617Z" fill="#000000" />
<path fill-rule="evenodd" clip-rule="evenodd" d="M11.3867 9.16748C11.8009 9.16748 12.1367 9.50327 12.1367 9.91748V16.3199C12.1367 16.7341 11.8009 17.0699 11.3867 17.0699C10.9725 17.0699 10.6367 16.7341 10.6367 16.3199V9.91748C10.6367 9.50327 10.9725 9.16748 11.3867 9.16748Z" fill="#000000" />
<path fill-rule="evenodd" clip-rule="evenodd" d="M16.5828 9.43773C16.8478 9.75611 16.8045 10.229 16.4861 10.494L11.8743 14.3321C11.5559 14.5971 11.083 14.5538 10.8181 14.2354C10.5531 13.917 10.5964 13.4442 10.9148 13.1792L15.5266 9.34102C15.845 9.07606 16.3179 9.11935 16.5828 9.43773Z" fill="#000000" />
<path fill-rule="evenodd" clip-rule="evenodd" d="M16.5023 16.8835C16.8137 16.6103 16.8446 16.1364 16.5714 15.8251L13.3567 12.1621C13.0835 11.8507 12.6096 11.8198 12.2983 12.093C11.9869 12.3663 11.9561 12.8401 12.2293 13.1515L15.4439 16.8145C15.7172 17.1258 16.191 17.1567 16.5023 16.8835Z" fill="#000000" />
</svg>