<svg width="24px"  height="24px"  viewBox="0 0 25 24" fill="none" xmlns="http://www.w3.org/2000/svg">
<path d="M5.47019 19.8246C5.28019 19.8246 5.09016 19.7545 4.94016 19.6045C4.65016 19.3145 4.65016 18.8345 4.94016 18.5445L19.0602 4.42453C19.3502 4.13453 19.8301 4.13453 20.1201 4.42453C20.4101 4.71453 20.4101 5.19453 20.1201 5.48453L6.00015 19.6045C5.85015 19.7545 5.66019 19.8246 5.47019 19.8246Z" fill="#000000" />
<path d="M3.61037 15.3245C3.32037 15.3245 3.04037 15.1545 2.92037 14.8745C2.76037 14.4945 2.92039 14.0545 3.31039 13.8845C3.69038 13.7245 4.15039 13.8844 4.32039 14.2644C4.49039 14.6444 4.3304 15.0745 3.9504 15.2445L3.91042 15.2644C3.81042 15.3044 3.71037 15.3245 3.61037 15.3245ZM3.66042 8.64444C3.56042 8.64444 3.46038 8.62444 3.37038 8.58444C2.99038 8.42444 2.80041 7.97445 2.96041 7.59445C3.12041 7.21445 3.55038 7.03448 3.93038 7.19448H3.96041C4.34041 7.36448 4.52037 7.80447 4.36037 8.18447C4.24037 8.47447 3.96037 8.64444 3.67037 8.64444H3.66042ZM8.35042 3.94448C8.06042 3.94448 7.78042 3.77447 7.66042 3.49447C7.50042 3.11447 7.66043 2.65447 8.04043 2.49447C8.42043 2.32447 8.86041 2.49448 9.02041 2.87448V2.90445C9.20041 3.28445 9.0204 3.72444 8.6404 3.89444C8.5404 3.93444 8.44041 3.95443 8.34041 3.95443L8.35042 3.94448ZM14.9904 3.91446C14.9004 3.91446 14.8104 3.89447 14.7204 3.86447C14.3404 3.70447 14.1504 3.29446 14.3104 2.91446L14.3304 2.85446C14.4904 2.47446 14.9304 2.29443 15.3104 2.45443C15.6904 2.61443 15.8704 3.05448 15.7104 3.43448C15.5904 3.72448 15.2904 3.91446 14.9904 3.91446Z" fill="#000000" />
<path d="M16.9902 21.6042C16.9902 21.6042 16.9602 21.6042 16.9402 21.6042C14.5202 21.3842 12.5202 19.5742 12.0702 17.2042C11.9902 16.7942 12.2602 16.4042 12.6702 16.3242C13.0702 16.2542 13.4702 16.5142 13.5502 16.9242C13.7802 18.1142 14.5402 19.1142 15.5802 19.6642C15.1402 18.2442 15.3402 16.6442 16.2102 15.3542C17.0802 14.0742 18.5002 13.2942 19.9902 13.1942C19.1002 12.4342 17.8902 12.0842 16.6902 12.3142C16.2902 12.3842 15.8902 12.1242 15.8102 11.7142C15.7302 11.3042 16.0002 10.9142 16.4102 10.8342C18.7802 10.3842 21.2002 11.5742 22.2902 13.7342C22.4302 14.0042 22.3802 14.3642 22.1802 14.5942C21.9802 14.8242 21.6302 14.9242 21.3402 14.8242C19.9102 14.3842 18.3102 14.9442 17.4502 16.2042C16.5902 17.4642 16.6602 19.1642 17.6102 20.3342C17.8002 20.5642 17.8302 20.9242 17.6902 21.1942C17.5602 21.4442 17.2702 21.6042 17.0002 21.6042H16.9902Z" fill="#000000" />
<path d="M7.99022 13.7845C7.80022 13.7845 7.61025 13.7146 7.46025 13.5646C5.61025 11.7146 5.61025 8.69453 7.46025 6.84453C9.31025 4.99453 12.3302 4.99453 14.1802 6.84453C14.4702 7.13453 14.4702 7.61453 14.1802 7.90453C13.8902 8.19453 13.4102 8.19453 13.1202 7.90453C11.8502 6.63453 9.79025 6.63453 8.52025 7.90453C7.25025 9.17453 7.25025 11.2346 8.52025 12.5046C8.81025 12.7946 8.81025 13.2746 8.52025 13.5646C8.37025 13.7146 8.18022 13.7845 7.99022 13.7845Z" fill="#000000" />
</svg>