<svg width="24px"  height="24px"  viewBox="0 0 25 24" fill="none" xmlns="http://www.w3.org/2000/svg">
<path fill-rule="evenodd" clip-rule="evenodd" d="M17.5753 2.5467C17.7302 2.75087 17.7701 3.02001 17.6811 3.26036C17.1378 4.72828 17.451 5.85062 18.0726 6.46956C18.6923 7.08655 19.7983 7.38236 21.2251 6.82031C21.4658 6.72546 21.7385 6.76143 21.9464 6.91547C22.1543 7.06951 22.2682 7.31986 22.2476 7.57782C22.061 9.91384 20.2473 11.7939 17.9377 12.0816C17.5266 12.1328 17.1519 11.8411 17.1007 11.43C17.0495 11.019 17.3412 10.6443 17.7523 10.5931C18.9717 10.4412 19.9935 9.64944 20.472 8.56686C19.1126 8.76182 17.8766 8.39103 17.0143 7.53255C16.1451 6.66714 15.7623 5.41228 15.9498 4.0209C14.8303 4.50837 14.0199 5.57322 13.8969 6.84015C13.8569 7.25242 13.4903 7.5542 13.078 7.51418C12.6657 7.47416 12.3639 7.10751 12.404 6.69523C12.6342 4.32265 14.5376 2.44747 16.9165 2.25251C17.1719 2.23158 17.4204 2.34252 17.5753 2.5467Z" fill="#000000" />
<path fill-rule="evenodd" clip-rule="evenodd" d="M7.68947 7.72854C8.49232 6.66761 9.77841 5.81934 11.6262 5.81934C13.4741 5.81934 14.7602 6.66761 15.563 7.72854C16.1509 8.50534 16.4835 9.39831 16.6116 10.1652C17.5155 10.2921 18.3449 10.6706 18.9905 11.2891C19.8025 12.067 20.274 13.1772 20.274 14.5012C20.274 16.2803 19.2138 17.8102 17.6949 18.4966C17.3174 18.6672 16.8732 18.4995 16.7026 18.122C16.532 17.7445 16.6997 17.3003 17.0772 17.1297C18.0787 16.6771 18.774 15.6695 18.774 14.5012C18.774 13.5473 18.4425 12.8414 17.9528 12.3723C17.4576 11.8979 16.7505 11.6181 15.9228 11.6174C15.5089 11.6171 15.1735 11.2814 15.1735 10.8674C15.1735 10.3085 14.9424 9.39421 14.3669 8.63369C13.8145 7.90375 12.952 7.31934 11.6262 7.31934C10.3005 7.31934 9.43796 7.90375 8.8856 8.63369C8.31008 9.39421 8.07903 10.3085 8.07903 10.8674C8.07903 11.279 7.74734 11.6137 7.33578 11.6174C6.50509 11.6249 5.7957 11.9059 5.29962 12.3794C4.80994 12.8467 4.47852 13.5483 4.47852 14.5012C4.47852 15.6697 5.17312 16.6771 6.17513 17.1296C6.55264 17.3001 6.72046 17.7443 6.54999 18.1218C6.37951 18.4993 5.93528 18.6672 5.55778 18.4967C4.03764 17.8102 2.97852 16.28 2.97852 14.5012C2.97852 13.1762 3.45138 12.0698 4.26397 11.2943C4.91 10.6777 5.73883 10.3003 6.64019 10.1693C6.7678 9.4015 7.10059 8.50673 7.68947 7.72854Z" fill="#000000" />
<path fill-rule="evenodd" clip-rule="evenodd" d="M5.70629 4.55983C5.81574 4.16034 6.22831 3.92521 6.6278 4.03466L6.6549 4.04208C7.05439 4.15153 7.28952 4.56411 7.18007 4.9636C7.07063 5.36309 6.65805 5.59822 6.25856 5.48877L6.23146 5.48135C5.83197 5.3719 5.59684 4.95932 5.70629 4.55983Z" fill="#000000" />
<path fill-rule="evenodd" clip-rule="evenodd" d="M10.3034 15.9182C10.6985 16.0428 10.9177 16.464 10.7932 16.859L10.5378 17.6691H11.6284C11.872 17.6691 12.1003 17.7873 12.2409 17.9861C12.3814 18.185 12.4167 18.4397 12.3355 18.6692L11.5794 20.8059C11.4412 21.1963 11.0127 21.4009 10.6222 21.2627C10.2317 21.1245 10.0272 20.696 10.1653 20.3055L10.5675 19.1691H9.51487C9.27594 19.1691 9.05131 19.0552 8.91003 18.8625C8.76875 18.6698 8.72773 18.4214 8.79958 18.1935L9.36261 16.408C9.48718 16.0129 9.9084 15.7937 10.3034 15.9182ZM14.382 15.9148C14.7789 16.0332 15.0048 16.4509 14.8864 16.8478L14.4621 18.2711C14.3437 18.6681 13.926 18.8939 13.5291 18.7756C13.1321 18.6573 12.9063 18.2395 13.0246 17.8426L13.449 16.4193C13.5673 16.0223 13.985 15.7965 14.382 15.9148ZM7.90055 19.208C8.30134 19.3127 8.54144 19.7224 8.43683 20.1231L8.15849 21.1896C8.05388 21.5903 7.64418 21.8304 7.24339 21.7258C6.8426 21.6212 6.6025 21.2115 6.70711 20.8107L6.98545 19.7443C7.09006 19.3435 7.49977 19.1034 7.90055 19.208ZM15.0345 19.208C15.4353 19.3127 15.6754 19.7224 15.5708 20.1231L15.2925 21.1896C15.1879 21.5903 14.7782 21.8304 14.3774 21.7258C13.9766 21.6212 13.7365 21.2115 13.8411 20.8107L14.1194 19.7443C14.224 19.3435 14.6337 19.1034 15.0345 19.208Z" fill="#000000" />
</svg>