<svg width="24px"  height="24px"  viewBox="0 0 25 24" fill="none" xmlns="http://www.w3.org/2000/svg">
<path fill-rule="evenodd" clip-rule="evenodd" d="M17.5753 2.5467C17.7302 2.75087 17.7701 3.02001 17.6811 3.26036C17.1378 4.72828 17.451 5.85062 18.0726 6.46956C18.6923 7.08655 19.7983 7.38236 21.2251 6.82031C21.4658 6.72546 21.7385 6.76143 21.9464 6.91547C22.1543 7.06951 22.2682 7.31986 22.2476 7.57782C22.061 9.91384 20.2473 11.7939 17.9377 12.0816C17.5266 12.1328 17.1519 11.8411 17.1007 11.43C17.0495 11.019 17.3412 10.6443 17.7523 10.5931C18.9717 10.4412 19.9935 9.64944 20.472 8.56686C19.1126 8.76182 17.8766 8.39103 17.0143 7.53255C16.1451 6.66714 15.7623 5.41228 15.9498 4.0209C14.8303 4.50837 14.0199 5.57322 13.8969 6.84015C13.8569 7.25242 13.4903 7.5542 13.078 7.51418C12.6657 7.47416 12.3639 7.10751 12.404 6.69523C12.6342 4.32265 14.5376 2.44747 16.9165 2.25251C17.1719 2.23158 17.4204 2.34252 17.5753 2.5467Z" fill="#000000" />
<path fill-rule="evenodd" clip-rule="evenodd" d="M7.68947 7.72854C8.49232 6.66761 9.77841 5.81934 11.6262 5.81934C13.4741 5.81934 14.7602 6.66761 15.563 7.72854C16.1509 8.50534 16.4835 9.39831 16.6116 10.1652C17.5155 10.2921 18.3449 10.6706 18.9905 11.2891C19.8025 12.067 20.274 13.1772 20.274 14.5012C20.274 16.2803 19.2138 17.8102 17.6949 18.4966C17.3174 18.6672 16.8732 18.4995 16.7026 18.122C16.532 17.7445 16.6997 17.3003 17.0772 17.1297C18.0787 16.6771 18.774 15.6695 18.774 14.5012C18.774 13.5473 18.4425 12.8414 17.9528 12.3723C17.4576 11.8979 16.7505 11.6181 15.9228 11.6174C15.5089 11.6171 15.1735 11.2814 15.1735 10.8674C15.1735 10.3085 14.9424 9.39421 14.3669 8.63369C13.8145 7.90375 12.952 7.31934 11.6262 7.31934C10.3005 7.31934 9.43796 7.90375 8.8856 8.63369C8.31008 9.39421 8.07903 10.3085 8.07903 10.8674C8.07903 11.279 7.74734 11.6137 7.33578 11.6174C6.50509 11.6249 5.7957 11.9059 5.29962 12.3794C4.80994 12.8467 4.47852 13.5483 4.47852 14.5012C4.47852 15.6697 5.17312 16.6771 6.17513 17.1296C6.55264 17.3001 6.72046 17.7443 6.54999 18.1218C6.37951 18.4993 5.93528 18.6672 5.55778 18.4967C4.03764 17.8102 2.97852 16.28 2.97852 14.5012C2.97852 13.1762 3.45138 12.0698 4.26397 11.2943C4.91 10.6777 5.73883 10.3003 6.64019 10.1693C6.7678 9.4015 7.10059 8.50673 7.68947 7.72854Z" fill="#000000" />
<path fill-rule="evenodd" clip-rule="evenodd" d="M10.1477 15.9148C10.5446 16.0331 10.7705 16.4508 10.6521 16.8478L10.2278 18.2711C10.1094 18.668 9.69171 18.8939 9.29476 18.7755C8.89782 18.6572 8.67196 18.2395 8.79031 17.8425L9.21465 16.4192C9.333 16.0223 9.75073 15.7964 10.1477 15.9148ZM14.2375 15.9148C14.6344 16.0331 14.8603 16.4508 14.7419 16.8478L14.3176 18.2711C14.1992 18.668 13.7815 18.8939 13.3845 18.7755C12.9876 18.6572 12.7617 18.2395 12.8801 17.8425L13.3044 16.4192C13.4228 16.0223 13.8405 15.7964 14.2375 15.9148ZM11.6552 18.5264C12.0489 18.6553 12.2635 19.0789 12.1345 19.4725L11.7034 20.7891C11.5745 21.1828 11.1508 21.3974 10.7572 21.2684C10.3636 21.1395 10.149 20.7159 10.2779 20.3223L10.709 19.0057C10.838 18.6121 11.2616 18.3975 11.6552 18.5264ZM7.75602 19.208C8.15681 19.3126 8.39691 19.7223 8.2923 20.1231L8.01396 21.1895C7.90935 21.5903 7.49964 21.8304 7.09886 21.7258C6.69807 21.6212 6.45797 21.2115 6.56258 20.8107L6.84092 19.7443C6.94553 19.3435 7.35524 19.1034 7.75602 19.208ZM14.89 19.208C15.2908 19.3126 15.5309 19.7223 15.4263 20.1231L15.1479 21.1895C15.0433 21.5903 14.6336 21.8304 14.2328 21.7258C13.832 21.6212 13.5919 21.2115 13.6966 20.8107L13.9749 19.7443C14.0795 19.3435 14.4892 19.1034 14.89 19.208Z" fill="#000000" />
<path fill-rule="evenodd" clip-rule="evenodd" d="M5.70653 4.55983C5.81598 4.16034 6.22856 3.92521 6.62805 4.03466L6.65515 4.04208C7.05464 4.15153 7.28977 4.56411 7.18032 4.9636C7.07087 5.36309 6.65829 5.59822 6.2588 5.48877L6.2317 5.48135C5.83221 5.3719 5.59708 4.95932 5.70653 4.55983Z" fill="#000000" />
</svg>