<svg width="24px"  height="24px"  viewBox="0 0 25 24" fill="none" xmlns="http://www.w3.org/2000/svg">
<path fill-rule="evenodd" clip-rule="evenodd" d="M15.9014 8.86328C18.6429 8.86328 20.8652 11.0856 20.8652 13.8271C20.8652 16.5686 18.6429 18.7909 15.9014 18.7909H9.0189C7.33508 18.7909 5.9703 17.4261 5.9703 15.7426C5.9703 14.059 7.3351 12.6941 9.0189 12.6941C9.41708 12.6941 9.79569 12.7702 10.1427 12.9078C10.3386 12.9856 10.5582 12.9773 10.7478 12.885C10.9373 12.7926 11.0792 12.6248 11.1387 12.4225C11.7447 10.3644 13.6488 8.86328 15.9014 8.86328ZM22.3652 13.8271C22.3652 10.2572 19.4713 7.36328 15.9014 7.36328C13.2312 7.36328 10.9403 8.98203 9.95434 11.2906C9.65209 11.2274 9.33914 11.1941 9.0189 11.1941C6.50671 11.1941 4.4703 13.2305 4.4703 15.7426C4.4703 18.2546 6.50672 20.2909 9.0189 20.2909H15.9014C19.4713 20.2909 22.3652 17.397 22.3652 13.8271Z" fill="#000000" />
<path fill-rule="evenodd" clip-rule="evenodd" d="M7.31046 5.07844C7.15555 5.28261 7.11563 5.55175 7.2046 5.7921C7.71657 7.17523 7.4191 8.22412 6.84172 8.79897C6.2663 9.37187 5.23317 9.65295 3.88936 9.12357C3.6486 9.02872 3.37594 9.06469 3.16801 9.21873C2.96008 9.37277 2.84625 9.62312 2.86685 9.88108C3.01442 11.7292 4.22554 13.2771 5.88623 13.915C6.2729 14.0635 6.70677 13.8705 6.85529 13.4838C7.00382 13.0971 6.81077 12.6633 6.42411 12.5148C5.64113 12.214 5.00568 11.6173 4.65343 10.8639C5.92722 11.0285 7.08604 10.6724 7.90005 9.86195C8.7211 9.0445 9.08833 7.86742 8.9301 6.56325C9.94888 7.0324 10.6821 8.01577 10.7953 9.18135L10.7968 9.19596C10.8075 9.28716 10.8211 9.44621 10.825 9.60633C10.827 9.68591 10.8263 9.75849 10.8229 9.81875C10.8194 9.87984 10.8141 9.90776 10.8136 9.9106C10.8135 9.91081 10.8135 9.91088 10.8135 9.91083C10.7144 10.313 10.9601 10.7194 11.3623 10.8185C11.7645 10.9176 12.1709 10.6718 12.27 10.2697C12.3271 10.038 12.3292 9.76042 12.3246 9.56975C12.3195 9.36175 12.3026 9.16013 12.2875 9.02918C12.0639 6.76175 10.2437 4.97065 7.96922 4.78425C7.71379 4.76332 7.46536 4.87426 7.31046 5.07844Z" fill="#000000" />
<path fill-rule="evenodd" clip-rule="evenodd" d="M12.074 3.72868C12.4775 3.63478 12.8806 3.8857 12.9745 4.28913L12.979 4.3084C13.0729 4.71183 12.822 5.115 12.4186 5.20889C12.0151 5.30279 11.612 5.05187 11.5181 4.64844L11.5136 4.62917C11.4197 4.22574 11.6706 3.82258 12.074 3.72868ZM16.8374 4.5231C17.1891 4.74198 17.2967 5.20449 17.0778 5.55615L17.0689 5.57055C16.85 5.92221 16.3875 6.02985 16.0358 5.81097C15.6842 5.5921 15.5765 5.12958 15.7954 4.77792L15.8044 4.76353C16.0232 4.41187 16.4857 4.30422 16.8374 4.5231Z" fill="#000000" />
</svg>