<svg width="24px"  height="24px"  viewBox="0 0 25 24" fill="none" xmlns="http://www.w3.org/2000/svg">
<path d="M16.4856 19.4743C15.4256 19.4743 14.3556 19.2643 13.3356 18.8343C12.9556 18.6743 12.7756 18.2343 12.9356 17.8543C13.0956 17.4743 13.5356 17.2942 13.9156 17.4542C15.8656 18.2742 18.0556 18.1043 19.8256 17.0543C17.3556 16.3643 15.3456 14.3943 14.6656 11.8543C13.9856 9.31427 14.7456 6.60425 16.5256 4.77425H16.4856C14.1656 4.77425 11.9456 6.0043 10.7556 8.0743C9.69561 9.9143 9.58563 12.1643 10.4656 14.1043C10.6356 14.4843 10.4656 14.9243 10.0956 15.0943C9.72564 15.2643 9.27565 15.0943 9.10565 14.7243C8.02565 12.3443 8.16563 9.5843 9.46563 7.3243C11.2656 4.2043 14.9556 2.64424 18.4456 3.51424C18.7356 3.58424 18.9856 3.86426 19.0356 4.15426C19.0856 4.45426 18.9256 4.80426 18.6656 4.96426C16.5056 6.31426 15.4556 8.99426 16.1256 11.4643C16.7856 13.9443 19.0356 15.7343 21.5956 15.8143C21.8956 15.8143 22.2056 16.0443 22.3156 16.3243C22.4256 16.6043 22.3356 16.9843 22.1156 17.1943C20.5756 18.6843 18.5556 19.4643 16.4956 19.4643L16.4856 19.4743Z" fill="#000000" />
<path d="M11.8156 20.7248H7.68555C7.36555 20.7248 7.01557 20.6548 6.70557 20.5248C5.78557 20.1048 5.20557 19.2148 5.20557 18.2348C5.20557 17.0248 5.94557 16.0948 7.02557 15.8248C7.29557 14.7948 8.18554 13.6748 9.74554 13.6748C11.3055 13.6748 12.1956 14.7948 12.4656 15.8248C13.5556 16.0948 14.2856 17.0348 14.2856 18.2348C14.2856 19.2148 13.7056 20.1048 12.8256 20.5148C12.4756 20.6548 12.1255 20.7248 11.8055 20.7248H11.8156ZM9.75555 15.1848C8.67555 15.1848 8.44556 16.2348 8.44556 16.4948C8.44556 16.9048 8.11557 17.2448 7.70557 17.2448C7.47557 17.2448 6.71558 17.3248 6.71558 18.2448C6.71558 18.6348 6.94554 18.9948 7.30554 19.1548C7.47554 19.2248 7.64556 19.2348 7.69556 19.2348H11.8256C11.8256 19.2348 12.0456 19.2348 12.2556 19.1448C12.5756 18.9948 12.8055 18.6448 12.8055 18.2448C12.8055 17.3248 12.0556 17.2548 11.8156 17.2448C11.4056 17.2448 11.0756 16.9048 11.0756 16.4948C11.0756 16.2348 10.8456 15.1848 9.75555 15.1848Z" fill="#000000" />
<path d="M8.62549 5.66504C8.21549 5.66504 7.87549 5.32504 7.87549 4.91504C7.87549 4.50504 8.21549 4.16504 8.62549 4.16504C9.03549 4.16504 9.37549 4.49504 9.37549 4.91504C9.37549 5.33504 9.03549 5.67505 8.62549 5.67505V5.66504Z" fill="#000000" />
<path d="M5.33575 12.4644C5.00575 12.4644 4.71572 12.2444 4.61572 11.9344C4.43572 11.3444 3.98575 10.8944 3.39575 10.7144C3.07575 10.6144 2.86572 10.3244 2.86572 9.99445C2.86572 9.66445 3.08575 9.37441 3.39575 9.27441C3.98575 9.09441 4.43572 8.64444 4.61572 8.05444C4.71572 7.73444 5.00575 7.52441 5.33575 7.52441C5.66575 7.52441 5.95573 7.74444 6.05573 8.05444C6.23573 8.64444 6.68576 9.09441 7.27576 9.27441C7.59576 9.37441 7.80573 9.66445 7.80573 9.99445C7.80573 10.3244 7.58576 10.6144 7.27576 10.7144C6.68576 10.8944 6.23573 11.3544 6.05573 11.9344C5.95573 12.2544 5.66575 12.4644 5.33575 12.4644ZM5.10577 9.99445C5.18577 10.0644 5.26575 10.1444 5.33575 10.2244C5.40575 10.1444 5.48573 10.0644 5.56573 9.99445C5.48573 9.92445 5.40575 9.8444 5.33575 9.7644C5.26575 9.8444 5.18577 9.92445 5.10577 9.99445Z" fill="#000000" />
</svg>