<svg width="24px"  height="24px"  viewBox="0 0 25 25" fill="none" xmlns="http://www.w3.org/2000/svg">
<path d="M16.4965 21.7006C16.2065 21.7006 15.9365 21.5406 15.8165 21.2606C15.6465 20.8806 15.8165 20.4406 16.1965 20.2706C17.9865 19.4606 19.4265 18.0706 20.2865 16.3406C17.1465 17.3106 13.6065 16.4906 11.2265 14.1006C8.84649 11.7206 8.01649 8.18064 8.98649 5.03064C6.49649 6.27064 4.75649 8.6706 4.39649 11.4906C4.34649 11.9006 3.96649 12.1906 3.55649 12.1406C3.14649 12.0906 2.85648 11.7106 2.90648 11.3006C3.40648 7.3706 6.19648 4.12064 10.0165 3.03064C10.3065 2.95064 10.6765 3.0706 10.8665 3.3006C11.0765 3.5606 11.1065 3.91062 10.9465 4.20062C9.41649 7.08062 9.96649 10.7206 12.2865 13.0406C14.6065 15.3606 18.2465 15.9106 21.1365 14.3706C21.4065 14.2306 21.7965 14.2606 22.0265 14.4506C22.2765 14.6506 22.3865 14.9906 22.2965 15.3006C21.4865 18.1206 19.4965 20.4206 16.8165 21.6306C16.7165 21.6806 16.6065 21.7006 16.5065 21.7006H16.4965Z" fill="#000000" />
<path d="M19.7462 10.3607H15.3962C15.0662 10.3607 14.6962 10.2908 14.3762 10.1608C13.4162 9.73077 12.8262 8.80076 12.8262 7.78076C12.8262 6.52076 13.5962 5.55075 14.7362 5.27075C15.0162 4.19075 15.9362 3.01074 17.5762 3.01074C19.2162 3.01074 20.1362 4.19075 20.4162 5.27075C21.5562 5.55075 22.3262 6.52076 22.3262 7.78076C22.3262 8.80076 21.7262 9.72075 20.8062 10.1407C20.4562 10.2807 20.0862 10.3607 19.7562 10.3607H19.7462ZM17.5662 4.51074C16.3962 4.51074 16.1362 5.66073 16.1362 5.94073C16.1362 6.35073 15.8062 6.69073 15.3962 6.69073C14.8762 6.69073 14.3162 6.98076 14.3162 7.78076C14.3162 8.21076 14.5662 8.60076 14.9562 8.78076C15.1362 8.85076 15.3262 8.86072 15.3962 8.86072H19.7462C19.7962 8.86072 19.9862 8.86074 20.2062 8.76074C20.5662 8.60074 20.8162 8.21076 20.8162 7.78076C20.8162 6.98076 20.2562 6.69073 19.7362 6.69073C19.3262 6.69073 18.9962 6.35073 18.9962 5.94073C18.9962 5.66073 18.7462 4.51074 17.5662 4.51074Z" fill="#000000" />
<path d="M5.13646 22.1213C4.92646 22.1213 4.71647 22.0313 4.56647 21.8613C4.29647 21.5513 4.32647 21.0713 4.64647 20.8013C4.95647 20.5313 5.42648 20.5613 5.69648 20.8813C5.96648 21.2013 5.92647 21.6814 5.61647 21.9514C5.47647 22.0714 5.29647 22.1313 5.12647 22.1313L5.13646 22.1213Z" fill="#000000" />
<path d="M6.13637 18.3811C6.00637 18.3811 5.87638 18.3512 5.75638 18.2812L4.39638 17.4911C4.16638 17.3611 4.02637 17.1112 4.02637 16.8412V15.2611C4.02637 14.9911 4.16637 14.7411 4.40637 14.6111L5.76637 13.8211C5.99637 13.6911 6.28637 13.6911 6.51637 13.8211L7.87637 14.6111C8.10637 14.7411 8.25638 14.9911 8.25638 15.2611V16.8412C8.25638 17.1112 8.11637 17.3611 7.87637 17.4911L6.51637 18.2812C6.39637 18.3512 6.26637 18.3811 6.13637 18.3811ZM5.52637 16.4112L6.13637 16.7611L6.74637 16.4112V15.7011L6.13637 15.3512L5.52637 15.7011V16.4112Z" fill="#000000" />
<path d="M11.1964 22.8206C11.0664 22.8206 10.9364 22.7906 10.8264 22.7206L9.46642 21.9306C9.23642 21.8006 9.08643 21.5506 9.08643 21.2806V19.7006C9.08643 19.4306 9.22642 19.1806 9.45642 19.0506L10.8164 18.2606C11.0464 18.1306 11.3364 18.1306 11.5664 18.2606L12.9364 19.0506C13.1664 19.1806 13.3164 19.4306 13.3164 19.7006V21.2806C13.3164 21.5506 13.1764 21.8006 12.9364 21.9306L11.5664 22.7206C11.4464 22.7906 11.3164 22.8206 11.1964 22.8206ZM10.5864 20.8506L11.1964 21.2006L11.8164 20.8506V20.1406L11.1964 19.7906L10.5864 20.1406V20.8506Z" fill="#000000" />
</svg>