<svg width="24px"  height="24px"  viewBox="0 0 25 24" fill="none" xmlns="http://www.w3.org/2000/svg">
<path fill-rule="evenodd" clip-rule="evenodd" d="M7.9897 8.35897C8.73716 7.3843 9.92767 6.60986 11.6271 6.60986C13.3416 6.60986 14.5375 7.39791 15.2836 8.38352C15.7779 9.03644 16.0779 9.77787 16.2183 10.4416C16.2297 10.4415 16.2412 10.4415 16.2527 10.4415C18.1579 10.4415 19.7024 11.986 19.7024 13.8912C19.7024 15.7964 18.1579 17.3409 16.2527 17.3409C15.8385 17.3409 15.5027 17.0051 15.5027 16.5909C15.5027 16.1767 15.8385 15.8409 16.2527 15.8409C17.3295 15.8409 18.2024 14.968 18.2024 13.8912C18.2024 12.8144 17.3295 11.9415 16.2527 11.9415C16.1254 11.9415 16.001 11.9536 15.8805 11.9769C15.8021 12.0134 15.7163 12.0368 15.626 12.0442C15.3406 12.1409 15.0849 12.3021 14.8756 12.5109C14.5824 12.8035 14.1075 12.8029 13.815 12.5097C13.5224 12.2165 13.523 11.7416 13.8162 11.4491C14.0884 11.1775 14.4062 10.951 14.757 10.7819C14.6643 10.3236 14.4532 9.77181 14.0876 9.28885C13.592 8.63411 12.8196 8.10986 11.6271 8.10986C10.8163 8.10986 10.2 8.35222 9.73294 8.71283C10.3005 8.92762 10.7394 9.29396 11.0567 9.71308C11.5392 10.3504 11.7469 11.1137 11.7469 11.6733C11.7469 12.0875 11.4111 12.4233 10.9969 12.4233C10.5826 12.4233 10.2469 12.0875 10.2469 11.6733C10.2469 11.4289 10.139 10.9861 9.86072 10.6184C9.60557 10.2813 9.21431 10.0112 8.58483 10.0112C7.95537 10.0112 7.56427 10.2813 7.30924 10.6183C7.03107 10.9859 6.92328 11.4287 6.92328 11.6733C6.92328 12.0695 6.61509 12.3973 6.21964 12.4218L6.11625 12.4282C6.10082 12.4292 6.08536 12.4297 6.06989 12.4297C5.1279 12.4297 4.36426 13.1933 4.36426 14.1353C4.36426 15.0773 5.1279 15.8409 6.06989 15.8409C6.48411 15.8409 6.81989 16.1767 6.81989 16.5909C6.81989 17.0051 6.48411 17.3409 6.06989 17.3409C4.29947 17.3409 2.86426 15.9057 2.86426 14.1353C2.86426 12.5546 4.00841 11.241 5.51375 10.9777C5.61678 10.5608 5.81105 10.1123 6.11312 9.71317C6.49917 9.20302 7.06553 8.77106 7.82455 8.5954L7.96874 8.38769C7.9755 8.37795 7.98249 8.36838 7.9897 8.35897Z" fill="#000000" />
<path fill-rule="evenodd" clip-rule="evenodd" d="M7.88436 5.25049C6.82116 5.25049 5.94655 6.0618 5.84722 7.09859C5.80772 7.51091 5.44144 7.81315 5.02911 7.77365C4.61679 7.73414 4.31455 7.36787 4.35406 6.95554C4.52639 5.15667 6.04071 3.75049 7.88436 3.75049C9.84309 3.75049 11.431 5.33835 11.431 7.29708C11.431 7.71129 11.0952 8.04708 10.681 8.04708C10.2667 8.04708 9.93095 7.71129 9.93095 7.29708C9.93095 6.16678 9.01466 5.25049 7.88436 5.25049Z" fill="#000000" />
<path fill-rule="evenodd" clip-rule="evenodd" d="M5.18761 7.79214C4.79235 7.72728 4.41934 7.99512 4.35447 8.39038C4.2874 8.79913 3.90166 9.07611 3.49292 9.00903C3.08417 8.94195 2.80719 8.55622 2.87427 8.14747C3.07329 6.93472 4.21776 6.11292 5.43052 6.31194C6.16221 6.43201 6.75136 6.89696 7.05932 7.51007C7.24524 7.88021 7.09589 8.33099 6.72575 8.51691C6.3556 8.70283 5.90482 8.55348 5.7189 8.18334C5.61724 7.98093 5.42536 7.83116 5.18761 7.79214Z" fill="#000000" />
<path fill-rule="evenodd" clip-rule="evenodd" d="M17.687 3.37189C17.8419 3.57607 17.8818 3.84521 17.7929 4.08555C17.2491 5.55451 17.5625 6.67775 18.1847 7.29723C18.805 7.91475 19.9118 8.21074 21.3396 7.64829C21.5804 7.55345 21.853 7.58942 22.0609 7.74346C22.2689 7.8975 22.3827 8.14785 22.3621 8.4058C22.1877 10.5902 20.5915 12.3752 18.4982 12.835C18.0936 12.9238 17.6936 12.6679 17.6048 12.2633C17.5159 11.8588 17.7718 11.4587 18.1764 11.3699C19.2582 11.1323 20.1494 10.3849 20.5866 9.39491C19.2262 9.59025 17.9892 9.21928 17.1264 8.36021C16.2566 7.49422 15.8736 6.23842 16.0615 4.84597C14.9407 5.33366 14.1294 6.3995 14.0063 7.66767C13.9663 8.07994 13.5996 8.38172 13.1874 8.3417C12.7751 8.30168 12.4733 7.93503 12.5133 7.52275C12.7437 5.14893 14.6481 3.27277 17.0283 3.07771C17.2837 3.05677 17.5321 3.16772 17.687 3.37189Z" fill="#000000" />
<path fill-rule="evenodd" clip-rule="evenodd" d="M13.4579 15.231C14.6159 15.231 15.5547 16.1697 15.5547 17.3278C15.5547 18.4858 14.6159 19.4246 13.4579 19.4246H10.0288C9.3977 19.4246 8.88622 18.913 8.88622 18.2821C8.88622 17.6511 9.39771 17.1396 10.0288 17.1396C10.1788 17.1396 10.3204 17.1682 10.4499 17.2196C10.6458 17.2973 10.8655 17.289 11.055 17.1967C11.2445 17.1043 11.3864 16.9365 11.446 16.7342C11.702 15.8646 12.507 15.231 13.4579 15.231ZM17.0547 17.3278C17.0547 15.3413 15.4444 13.731 13.4579 13.731C12.0763 13.731 10.8778 14.5096 10.2752 15.651C10.194 15.6435 10.1118 15.6396 10.0288 15.6396C8.56932 15.6396 7.38622 16.8227 7.38622 18.2821C7.38622 19.7415 8.56933 20.9246 10.0288 20.9246H13.4579C15.4444 20.9246 17.0547 19.3142 17.0547 17.3278Z" fill="#000000" />
</svg>