<svg width="24px"  height="24px"  viewBox="0 0 25 24" fill="none" xmlns="http://www.w3.org/2000/svg">
<path fill-rule="evenodd" clip-rule="evenodd" d="M17.5645 2.52033C17.7194 2.72451 17.7594 2.99364 17.6704 3.23399C17.127 4.70191 17.4402 5.82425 18.0619 6.4432C18.6816 7.06018 19.7876 7.35599 21.2143 6.79394C21.4551 6.6991 21.7277 6.73506 21.9357 6.88911C22.1436 7.04315 22.2574 7.2935 22.2368 7.55145C22.0503 9.88747 20.2365 11.7676 17.9269 12.0552C17.5159 12.1064 17.1412 11.8147 17.09 11.4036C17.0388 10.9926 17.3305 10.6179 17.7415 10.5667C18.961 10.4148 19.9828 9.62307 20.4612 8.54049C19.1019 8.73546 17.8658 8.36467 17.0036 7.50618C16.1343 6.64077 15.7516 5.38592 15.9391 3.99453C14.8195 4.482 14.0092 5.54685 13.8862 6.81378C13.8462 7.22606 13.4795 7.52783 13.0672 7.48781C12.655 7.44779 12.3532 7.08114 12.3932 6.66886C12.6235 4.29629 14.5268 2.42111 16.9058 2.22614C17.1612 2.20521 17.4096 2.31616 17.5645 2.52033Z" fill="#000000" />
<path fill-rule="evenodd" clip-rule="evenodd" d="M5.69579 4.53297C5.80524 4.13348 6.21781 3.89835 6.61731 4.0078L6.6444 4.01522C7.0439 4.12467 7.27902 4.53725 7.16958 4.93674C7.06013 5.33623 6.64755 5.57136 6.24806 5.46191L6.22096 5.45449C5.82147 5.34504 5.58634 4.93247 5.69579 4.53297Z" fill="#000000" />
<path fill-rule="evenodd" clip-rule="evenodd" d="M7.69386 7.69993C8.49576 6.64024 9.78035 5.79297 11.626 5.79297C13.4716 5.79297 14.7562 6.64024 15.5581 7.69993C16.145 8.47553 16.4772 9.36707 16.6053 10.1329C17.5078 10.2597 18.336 10.6378 18.9807 11.2554C19.7917 12.0324 20.2627 13.1414 20.2627 14.4638C20.2627 16.2408 19.2037 17.769 17.6866 18.4546C17.3091 18.6251 16.8649 18.4574 16.6943 18.0799C16.5237 17.7025 16.6914 17.2582 17.0689 17.0876C18.0687 16.6358 18.7627 15.63 18.7627 14.4638C18.7627 13.5114 18.4318 12.8068 17.943 12.3386C17.4487 11.865 16.7429 11.5858 15.9166 11.585C15.5026 11.5847 15.1672 11.249 15.1672 10.835C15.1672 10.2772 14.9365 9.36435 14.362 8.60507C13.8106 7.87639 12.9495 7.29297 11.626 7.29297C10.3024 7.29297 9.4414 7.87639 8.88998 8.60507C8.31541 9.36435 8.08475 10.2772 8.08475 10.835C8.08475 11.2466 7.75306 11.5813 7.3415 11.585C6.5122 11.5925 5.80406 11.873 5.30889 12.3456C4.82012 12.8121 4.48926 13.5124 4.48926 14.4638C4.48926 15.6303 5.18264 16.6359 6.18289 17.0876C6.5604 17.258 6.72823 17.7023 6.55775 18.0798C6.38727 18.4573 5.94304 18.6251 5.56554 18.4546C4.04715 17.7689 2.98926 16.2406 2.98926 14.4638C2.98926 13.1404 3.46156 12.0352 4.27324 11.2605C4.91837 10.6448 5.74596 10.2679 6.64596 10.137C6.77352 9.37027 7.10588 8.47692 7.69386 7.69993Z" fill="#000000" />
<path fill-rule="evenodd" clip-rule="evenodd" d="M14.0144 16.154C14.4221 16.0808 14.8119 16.352 14.8851 16.7597L14.8911 16.793C14.9642 17.2007 14.693 17.5905 14.2853 17.6637C13.8776 17.7368 13.4878 17.4657 13.4146 17.058L13.4087 17.0247C13.3355 16.617 13.6067 16.2272 14.0144 16.154ZM9.23625 16.1544C9.64395 16.2276 9.91513 16.6174 9.84196 17.0251L9.83599 17.0584C9.76281 17.4661 9.37299 17.7373 8.96529 17.6641C8.55759 17.5909 8.28641 17.2011 8.35958 16.7934L8.36555 16.7601C8.43872 16.3524 8.82855 16.0813 9.23625 16.1544ZM11.4898 17.4167C11.8975 17.3435 12.2874 17.6147 12.3605 18.0224L12.3665 18.0557C12.4397 18.4633 12.1685 18.8532 11.7608 18.9264C11.3531 18.9995 10.9633 18.7284 10.8901 18.3207L10.8841 18.2874C10.8109 17.8797 11.0821 17.4899 11.4898 17.4167ZM9.23303 18.6771C9.64104 18.7485 9.91392 19.1372 9.84253 19.5452L9.83656 19.5793C9.76516 19.9873 9.37652 20.2602 8.96851 20.1888C8.56049 20.1174 8.28761 19.7288 8.35901 19.3208L8.36498 19.2866C8.43638 18.8786 8.82502 18.6058 9.23303 18.6771ZM14.2821 18.6771C14.6901 18.7485 14.963 19.1372 14.8916 19.5452L14.8857 19.5793C14.8143 19.9873 14.4256 20.2602 14.0176 20.1888C13.6096 20.1174 13.3367 19.7288 13.4081 19.3208L13.4141 19.2867C13.4855 18.8786 13.8741 18.6058 14.2821 18.6771ZM11.7576 19.9394C12.1656 20.0108 12.4385 20.3995 12.3671 20.8075L12.3611 20.8416C12.2897 21.2496 11.9011 21.5225 11.493 21.4511C11.085 21.3797 10.8122 20.991 10.8836 20.583L10.8895 20.5489C10.9609 20.1409 11.3496 19.868 11.7576 19.9394Z" fill="#000000" />
</svg>