<svg width="24px"  height="24px"  viewBox="0 0 25 24" fill="none" xmlns="http://www.w3.org/2000/svg">
<path fill-rule="evenodd" clip-rule="evenodd" d="M7.62944 9.10985C8.40187 8.10261 9.63175 7.30225 11.3891 7.30225C13.162 7.30225 14.3975 8.11666 15.1685 9.13524C15.7269 9.87279 16.0455 10.7196 16.1711 11.4509C17.0262 11.58 17.813 11.9409 18.4282 12.5279C19.21 13.274 19.6638 14.3375 19.6638 15.6087C19.6638 16.0229 19.3281 16.3587 18.9138 16.3587C18.4996 16.3587 18.1638 16.0229 18.1638 15.6087C18.1638 14.7096 17.8514 14.0509 17.3926 13.6131C16.9274 13.1692 16.2607 12.9043 15.4774 12.8973C15.0659 12.8936 14.7342 12.5589 14.7342 12.1473C14.7342 11.6224 14.5163 10.7588 13.9726 10.0406C13.452 9.35286 12.64 8.80225 11.3891 8.80225C10.1566 8.80225 9.35094 9.33676 8.83005 10.0093L8.51949 10.4566C8.28328 10.7969 7.81596 10.8813 7.4757 10.645C7.13543 10.4088 7.05108 9.94152 7.28728 9.60125L7.60848 9.13856C7.61524 9.12883 7.62222 9.11925 7.62944 9.10985Z" fill="#000000" />
<path fill-rule="evenodd" clip-rule="evenodd" d="M5.67749 10.5186C6.19827 9.83036 7.03717 9.28027 8.22449 9.28027C9.41179 9.28027 10.2508 9.83034 10.7717 10.5185C11.2694 11.176 11.4835 11.9635 11.4835 12.5392C11.4835 12.9535 11.1477 13.2892 10.7335 13.2892C10.3192 13.2892 9.98346 12.9535 9.98346 12.5392C9.98346 12.2787 9.86928 11.8116 9.5757 11.4238C9.30525 11.0665 8.88976 10.7803 8.22449 10.7803C7.55925 10.7803 7.14392 11.0665 6.87361 11.4237C6.58015 11.8115 6.46603 12.2786 6.46603 12.5392C6.46603 12.9508 6.13434 13.2855 5.72278 13.2892C5.30685 13.293 4.97208 13.4328 4.74698 13.6475C4.52831 13.8561 4.36426 14.1812 4.36426 14.6599C4.36426 15.2148 4.69416 15.6943 5.17111 15.9098C5.54857 16.0804 5.71629 16.5246 5.54572 16.9021C5.37514 17.2796 4.93087 17.4473 4.55341 17.2767C3.55908 16.8274 2.86426 15.8256 2.86426 14.6599C2.86426 13.8089 3.16995 13.0789 3.7116 12.5622C4.08622 12.2048 4.54948 11.9723 5.04969 11.8627C5.1532 11.4218 5.35619 10.9431 5.67749 10.5186Z" fill="#000000" />
<path fill-rule="evenodd" clip-rule="evenodd" d="M7.57005 6.65967C6.7872 6.65967 6.143 7.25711 6.06988 8.0204C6.03037 8.43273 5.6641 8.73496 5.25177 8.69546C4.83944 8.65595 4.53721 8.28968 4.57671 7.87735C4.72285 6.35198 6.00676 5.15967 7.57005 5.15967C9.23084 5.15967 10.5772 6.50601 10.5772 8.16681C10.5772 8.58102 10.2414 8.91681 9.82718 8.91681C9.41297 8.91681 9.07718 8.58102 9.07718 8.16681C9.07718 7.33444 8.40242 6.65967 7.57005 6.65967Z" fill="#000000" />
<path fill-rule="evenodd" clip-rule="evenodd" d="M4.79823 8.63672C4.55855 8.63672 4.36426 8.83101 4.36426 9.07069C4.36426 9.4849 4.02847 9.82069 3.61426 9.82069C3.20004 9.82069 2.86426 9.4849 2.86426 9.07069C2.86426 8.00259 3.73013 7.13672 4.79823 7.13672C5.63152 7.13672 6.33991 7.66337 6.61233 8.39949C6.75609 8.78795 6.55772 9.21941 6.16925 9.36317C5.78079 9.50693 5.34933 9.30856 5.20557 8.92009C5.14393 8.75352 4.98377 8.63672 4.79823 8.63672Z" fill="#000000" />
<path fill-rule="evenodd" clip-rule="evenodd" d="M17.505 3.83137C17.6599 4.03554 17.6998 4.30468 17.6108 4.54503C17.0421 6.0814 17.368 7.26305 18.0254 7.9176C18.6809 8.57018 19.8457 8.87788 21.3394 8.28945C21.5802 8.19461 21.8528 8.23058 22.0608 8.38462C22.2687 8.53866 22.3825 8.78901 22.3619 9.04696C22.1689 11.4638 20.2924 13.4091 17.9028 13.7067C17.4917 13.7578 17.117 13.4661 17.0658 13.0551C17.0146 12.6441 17.3063 12.2694 17.7174 12.2182C19.0165 12.0564 20.1019 11.2029 20.5943 10.0405C19.1662 10.2601 17.868 9.87756 16.9671 8.98058C16.0593 8.07675 15.664 6.75941 15.8753 5.29784C14.6743 5.79933 13.8013 6.92988 13.6704 8.27865C13.6304 8.69093 13.2637 8.9927 12.8514 8.95268C12.4391 8.91267 12.1374 8.54601 12.1774 8.13373C12.4157 5.67904 14.3849 3.73889 16.8462 3.53718C17.1017 3.51625 17.3501 3.62719 17.505 3.83137Z" fill="#000000" />
<path fill-rule="evenodd" clip-rule="evenodd" d="M8.14062 14.2124C8.55484 14.2124 8.89062 14.5482 8.89062 14.9624V16.2169C8.89062 16.6311 8.55484 16.9669 8.14062 16.9669C7.72641 16.9669 7.39062 16.6311 7.39062 16.2169V14.9624C7.39062 14.5482 7.72641 14.2124 8.14062 14.2124ZM14.726 14.2124C15.1402 14.2124 15.476 14.5482 15.476 14.9624V16.2169C15.476 16.6311 15.1402 16.9669 14.726 16.9669C14.3117 16.9669 13.976 16.6311 13.976 16.2169V14.9624C13.976 14.5482 14.3117 14.2124 14.726 14.2124ZM11.4339 15.4669C11.8481 15.4669 12.1839 15.8027 12.1839 16.2169V17.4714C12.1839 17.8856 11.8481 18.2214 11.4339 18.2214C11.0196 18.2214 10.6839 17.8856 10.6839 17.4714V16.2169C10.6839 15.8027 11.0196 15.4669 11.4339 15.4669ZM8.14062 17.9755C8.55484 17.9755 8.89062 18.3113 8.89062 18.7255V19.98C8.89062 20.3942 8.55484 20.73 8.14062 20.73C7.72641 20.73 7.39062 20.3942 7.39062 19.98V18.7255C7.39062 18.3113 7.72641 17.9755 8.14062 17.9755ZM14.726 17.9755C15.1402 17.9755 15.476 18.3113 15.476 18.7255V19.98C15.476 20.3942 15.1402 20.73 14.726 20.73C14.3117 20.73 13.976 20.3942 13.976 19.98V18.7255C13.976 18.3113 14.3117 17.9755 14.726 17.9755ZM11.4339 19.2296C11.8481 19.2296 12.1839 19.5654 12.1839 19.9796V21.2341C12.1839 21.6483 11.8481 21.9841 11.4339 21.9841C11.0196 21.9841 10.6839 21.6483 10.6839 21.2341V19.9796C10.6839 19.5654 11.0196 19.2296 11.4339 19.2296Z" fill="#000000" />
</svg>