<svg width="24px"  height="24px"  viewBox="0 0 25 24" fill="none" xmlns="http://www.w3.org/2000/svg">
<path d="M11.6319 21.745C10.3419 21.745 9.02193 21.465 7.75194 20.905C5.94194 20.105 4.46196 18.615 3.68196 16.795C2.47196 13.975 2.63193 10.945 4.12193 8.46497C5.57193 6.05497 8.11194 4.475 10.9119 4.245C11.1719 4.225 11.4119 4.33498 11.5719 4.53498C11.7319 4.73498 11.762 5.005 11.682 5.245C10.662 7.985 11.012 10.565 12.612 12.125C14.182 13.665 16.7019 13.965 19.3419 12.925C19.5819 12.825 19.8519 12.865 20.0619 13.025C20.2719 13.175 20.382 13.425 20.3619 13.685C20.132 16.495 18.552 19.045 16.112 20.505C14.742 21.325 13.2019 21.735 11.6319 21.735V21.745ZM9.89195 5.935C8.03195 6.395 6.40195 7.58501 5.39195 9.25501C4.13195 11.345 4.01194 13.815 5.04194 16.215C5.67194 17.685 6.87193 18.895 8.34193 19.545C10.7119 20.585 13.262 20.475 15.332 19.235C17.012 18.235 18.2019 16.605 18.6619 14.745C15.8919 15.475 13.2919 14.945 11.5419 13.225C9.75194 11.475 9.16194 8.81501 9.88194 5.94501L9.89195 5.935Z" fill="#000000" />
<path d="M18.7419 9.47488C18.4119 9.47488 18.1318 9.26486 18.0318 8.95486C17.6618 7.82486 16.7719 6.93492 15.6519 6.57492C15.3419 6.47492 15.1318 6.1849 15.1318 5.8649C15.1318 5.5449 15.3419 5.25488 15.6519 5.15488C16.7719 4.79488 17.6618 3.90487 18.0318 2.77487C18.1318 2.46487 18.4219 2.25488 18.7419 2.25488C19.0619 2.25488 19.3518 2.46487 19.4518 2.77487C19.8218 3.90487 20.7118 4.79488 21.8318 5.15488C22.1418 5.25488 22.3518 5.5449 22.3518 5.8649C22.3518 6.1849 22.1418 6.47492 21.8318 6.57492C20.7018 6.94492 19.8118 7.83486 19.4518 8.95486C19.3518 9.26486 19.0619 9.47488 18.7419 9.47488ZM17.5219 5.8649C17.9919 6.2049 18.4019 6.61487 18.7419 7.08487C19.0819 6.61487 19.4919 6.2049 19.9619 5.8649C19.4919 5.5249 19.0819 5.11487 18.7419 4.64487C18.4019 5.11487 17.9919 5.5249 17.5219 5.8649Z" fill="#000000" />
</svg>