<svg width="24px"  height="24px"  viewBox="0 0 25 24" fill="none" xmlns="http://www.w3.org/2000/svg">
<path d="M14.9404 21.5975C14.6104 21.5975 14.3105 21.3775 14.2205 21.0375C14.1105 20.6375 14.3504 20.2275 14.7504 20.1175C19.1404 18.9375 21.7604 14.4075 20.5804 10.0175C20.0104 7.88753 18.6404 6.10752 16.7404 5.00752C14.8304 3.90752 12.6104 3.60751 10.4804 4.18751C8.3504 4.75751 6.57045 6.11751 5.47045 8.02751C4.37045 9.93751 4.08044 12.1575 4.65044 14.2875C4.76044 14.6875 4.52041 15.0975 4.12041 15.2075C3.71041 15.3175 3.31043 15.0775 3.20043 14.6775C2.53043 12.1575 2.8704 9.53751 4.1704 7.27751C5.4704 5.01751 7.58045 3.40753 10.0904 2.73753C12.6104 2.06753 15.2304 2.40753 17.4904 3.70753C19.7504 5.00753 21.3604 7.10752 22.0304 9.62752C23.4204 14.8175 20.3304 20.1775 15.1404 21.5675C15.0704 21.5875 15.0104 21.5975 14.9504 21.5975H14.9404Z" fill="#000000" />
<path d="M16.0204 10.9569C15.1404 10.9569 14.3304 10.3669 14.0904 9.47693C13.8004 8.41693 14.4404 7.31692 15.5004 7.02692C16.5604 6.73692 17.6604 7.37693 17.9504 8.43693C18.2404 9.49693 17.6004 10.5969 16.5404 10.8869C16.3704 10.9369 16.2004 10.9569 16.0204 10.9569ZM16.0204 8.45695C16.0204 8.45695 15.9304 8.45693 15.8904 8.47693C15.6204 8.54693 15.4704 8.82695 15.5404 9.08695C15.6104 9.35695 15.8904 9.50693 16.1504 9.43693C16.4204 9.36693 16.5704 9.08694 16.5004 8.82694C16.4404 8.60694 16.2404 8.45695 16.0204 8.45695Z" fill="#000000" />
<path d="M6.1501 9.70707C5.2801 9.70707 4.45009 9.23705 4.01009 8.43705C3.81009 8.07705 3.94008 7.61706 4.31008 7.41706C4.68008 7.21706 5.1301 7.34705 5.3301 7.71705C5.5401 8.09705 5.9801 8.28707 6.4001 8.17707C6.9101 8.03707 7.21009 7.51707 7.07009 7.01707C6.98009 6.66707 6.68009 6.39707 6.32009 6.32707C5.91009 6.25707 5.64011 5.86707 5.72011 5.45707C5.79011 5.04707 6.19011 4.78706 6.59011 4.85706C7.52011 5.02706 8.2701 5.71705 8.5201 6.62705C8.8701 7.92705 8.09012 9.27705 6.79012 9.62705C6.58012 9.68705 6.3601 9.70707 6.1501 9.70707Z" fill="#000000" />
<path d="M11.0801 9.70703C10.6701 9.70703 10.3301 9.36703 10.3301 8.95703C10.3301 8.54703 10.6601 8.20703 11.0801 8.20703C11.4901 8.20703 11.8301 8.54703 11.8301 8.95703C11.8301 9.36703 11.4901 9.70703 11.0801 9.70703Z" fill="#000000" />
<path d="M18.2402 14.6768C17.8302 14.6768 17.4902 14.3368 17.4902 13.9268C17.4902 13.5168 17.8202 13.1768 18.2402 13.1768C18.6502 13.1768 18.9902 13.5168 18.9902 13.9268C18.9902 14.3368 18.6502 14.6768 18.2402 14.6768Z" fill="#000000" />
<path d="M8.12012 12.8975C7.71012 12.8975 7.37012 12.5575 7.37012 12.1475C7.37012 11.7375 7.70012 11.3975 8.12012 11.3975C8.53012 11.3975 8.87012 11.7375 8.87012 12.1475C8.87012 12.5575 8.53012 12.8975 8.12012 12.8975Z" fill="#000000" />
<path d="M10.9001 21.5867H6.47015C6.13015 21.5867 5.77012 21.5167 5.44012 21.3767C4.47012 20.9367 3.87012 19.9967 3.87012 18.9767C3.87012 17.6967 4.66013 16.7067 5.82013 16.4367C6.10013 15.3467 7.03013 14.1367 8.70013 14.1367C10.3701 14.1367 11.3001 15.3367 11.5801 16.4367C12.7401 16.7167 13.5201 17.7067 13.5201 18.9767C13.5201 20.0067 12.9101 20.9467 11.9801 21.3667C11.6201 21.5167 11.2502 21.5867 10.9102 21.5867H10.9001ZM8.69012 15.6367C7.48012 15.6367 7.22015 16.8167 7.22015 17.1067C7.22015 17.5167 6.8901 17.8567 6.4801 17.8567C5.9401 17.8567 5.37012 18.1567 5.37012 18.9767C5.37012 19.4167 5.63015 19.8167 6.03015 20.0067C6.15015 20.0567 6.33015 20.0967 6.47015 20.0967H10.9001C10.9701 20.0967 11.1601 20.0967 11.3801 19.9967C11.7501 19.8267 12.0101 19.4267 12.0101 18.9867C12.0101 18.1667 11.4301 17.8667 10.9001 17.8667C10.4901 17.8667 10.1602 17.5267 10.1602 17.1167C10.1602 16.8267 9.90012 15.6467 8.69012 15.6467V15.6367Z" fill="#000000" />
</svg>