<svg width="24px"  height="24px"  viewBox="0 0 25 24" fill="none" xmlns="http://www.w3.org/2000/svg">
<path fill-rule="evenodd" clip-rule="evenodd" d="M7.62944 8.27928C8.40187 7.27204 9.63175 6.47168 11.3891 6.47168C13.162 6.47168 14.3975 7.2861 15.1685 8.30467C15.7269 9.04222 16.0455 9.88898 16.1711 10.6204C17.0262 10.7495 17.813 11.1104 18.4282 11.6974C19.21 12.4434 19.6638 13.5069 19.6638 14.7781C19.6638 15.1923 19.3281 15.5281 18.9138 15.5281C18.4996 15.5281 18.1638 15.1923 18.1638 14.7781C18.1638 13.879 17.8514 13.2204 17.3926 12.7826C16.9274 12.3386 16.2607 12.0738 15.4774 12.0667C15.0659 12.063 14.7342 11.7283 14.7342 11.3168C14.7342 10.7918 14.5163 9.92828 13.9726 9.21C13.452 8.52229 12.64 7.97168 11.3891 7.97168C10.1566 7.97168 9.35094 8.5062 8.83005 9.17869L8.51949 9.62607C8.28328 9.96633 7.81596 10.0507 7.4757 9.81448C7.13543 9.57827 7.05108 9.11095 7.28728 8.77069L7.60848 8.308C7.61524 8.29826 7.62222 8.28869 7.62944 8.27928Z" fill="#000000" />
<path fill-rule="evenodd" clip-rule="evenodd" d="M5.67749 9.68751C6.19827 8.99931 7.03717 8.44922 8.22449 8.44922C9.41179 8.44922 10.2508 8.99928 10.7717 9.68742C11.2694 10.345 11.4835 11.1324 11.4835 11.7082C11.4835 12.1224 11.1477 12.4582 10.7335 12.4582C10.3192 12.4582 9.98346 12.1224 9.98346 11.7082C9.98346 11.4476 9.86928 10.9806 9.5757 10.5927C9.30525 10.2355 8.88976 9.94922 8.22449 9.94922C7.55925 9.94922 7.14392 10.2355 6.87361 10.5927C6.58015 10.9804 6.46603 11.4475 6.46603 11.7082C6.46603 12.1198 6.13434 12.4544 5.72278 12.4582C5.30685 12.4619 4.97208 12.6017 4.74698 12.8165C4.52831 13.0251 4.36426 13.3502 4.36426 13.8289C4.36426 14.3838 4.69416 14.8632 5.17111 15.0787C5.54857 15.2493 5.71629 15.6936 5.54572 16.0711C5.37514 16.4485 4.93087 16.6162 4.55341 16.4457C3.55908 15.9963 2.86426 14.9945 2.86426 13.8289C2.86426 12.9779 3.16995 12.2478 3.7116 11.7311C4.08622 11.3738 4.54948 11.1413 5.04969 11.0317C5.1532 10.5908 5.35619 10.1121 5.67749 9.68751Z" fill="#000000" />
<path fill-rule="evenodd" clip-rule="evenodd" d="M7.57005 5.8291C6.7872 5.8291 6.143 6.42654 6.06988 7.18983C6.03037 7.60216 5.6641 7.90439 5.25177 7.86489C4.83944 7.82539 4.53721 7.45911 4.57671 7.04678C4.72285 5.52141 6.00676 4.3291 7.57005 4.3291C9.23084 4.3291 10.5772 5.67544 10.5772 7.33624C10.5772 7.75045 10.2414 8.08624 9.82718 8.08624C9.41297 8.08624 9.07718 7.75045 9.07718 7.33624C9.07718 6.50387 8.40242 5.8291 7.57005 5.8291Z" fill="#000000" />
<path fill-rule="evenodd" clip-rule="evenodd" d="M4.79823 7.80615C4.55855 7.80615 4.36426 8.00045 4.36426 8.24012C4.36426 8.65434 4.02847 8.99012 3.61426 8.99012C3.20004 8.99012 2.86426 8.65434 2.86426 8.24012C2.86426 7.17202 3.73013 6.30615 4.79823 6.30615C5.63152 6.30615 6.33991 6.8328 6.61233 7.56892C6.75609 7.95739 6.55772 8.38884 6.16925 8.5326C5.78079 8.67636 5.34933 8.47799 5.20557 8.08952C5.14393 7.92295 4.98377 7.80615 4.79823 7.80615Z" fill="#000000" />
<path fill-rule="evenodd" clip-rule="evenodd" d="M13.5907 13.4927C13.974 13.6498 14.1574 14.0879 14.0003 14.4711L13.0114 16.884H13.5755C14.1909 16.884 14.6418 17.4579 14.5029 18.052L15.2896 17.1541H14.8505C14.1933 17.1541 13.7337 16.5041 13.9527 15.8846C13.958 15.8697 13.9637 15.855 13.9699 15.8405L14.7414 14.0297C14.9038 13.6487 15.3443 13.4714 15.7254 13.6338C16.1064 13.7961 16.2837 14.2367 16.1214 14.6177L15.6798 15.6541H16.4979C17.3162 15.6541 17.7533 16.6182 17.2141 17.2337L16.6499 16.7395L17.2141 17.2337L14.0862 20.8039C13.4224 21.5616 12.1904 20.9044 12.4499 19.9311L12.8625 18.384H12.1947C11.5328 18.384 11.0728 17.7253 11.3008 17.1039C11.304 17.0951 11.3074 17.0864 11.3109 17.0778L12.6123 13.9023C12.7694 13.519 13.2074 13.3357 13.5907 13.4927Z" fill="#000000" />
<path fill-rule="evenodd" clip-rule="evenodd" d="M8.41298 14.6521C8.79536 14.8113 8.97626 15.2504 8.81703 15.6327L8.51537 16.3572H9.66596C9.92019 16.3572 10.1571 16.4859 10.2954 16.6993C10.4336 16.9126 10.4544 17.1815 10.3505 17.4135L9.44797 19.4302C9.27876 19.8082 8.83509 19.9776 8.45702 19.8083C8.07895 19.6391 7.90963 19.1955 8.07884 18.8174L8.5086 17.8572H7.39063C7.13989 17.8572 6.90574 17.7319 6.76663 17.5233C6.62753 17.3146 6.60187 17.0503 6.69826 16.8188L7.43229 15.0561C7.59152 14.6737 8.03059 14.4928 8.41298 14.6521Z" fill="#000000" />
<path fill-rule="evenodd" clip-rule="evenodd" d="M17.2823 2.86896C17.4372 3.07314 17.4772 3.34228 17.3882 3.58262C16.8195 5.119 17.1454 6.30065 17.8028 6.95519C18.4582 7.60778 19.6231 7.91548 21.1168 7.32705C21.3575 7.2322 21.6302 7.26817 21.8381 7.42221C22.046 7.57626 22.1599 7.82661 22.1393 8.08456C21.9463 10.5014 20.0697 12.4467 17.6801 12.7443C17.2691 12.7954 16.8944 12.5037 16.8432 12.0927C16.792 11.6817 17.0837 11.3069 17.4947 11.2558C18.7938 11.094 19.8792 10.2404 20.3717 9.07807C18.9435 9.29772 17.6454 8.91516 16.7444 8.01818C15.8366 7.11435 15.4414 5.79701 15.6527 4.33543C14.4517 4.83693 13.5786 5.96747 13.4477 7.31625C13.4077 7.72853 13.041 8.0303 12.6288 7.99028C12.2165 7.95026 11.9147 7.58361 11.9547 7.17133C12.193 4.71664 14.1623 2.77649 16.6236 2.57478C16.879 2.55384 17.1274 2.66479 17.2823 2.86896Z" fill="#000000" />
</svg>