<svg width="24px"  height="24px"  viewBox="0 0 25 24" fill="none" xmlns="http://www.w3.org/2000/svg">
<path fill-rule="evenodd" clip-rule="evenodd" d="M15.3623 6.56689C18.2273 6.56689 20.5498 8.88937 20.5498 11.7544C20.5498 13.2401 19.9262 14.5789 18.9244 15.5256C18.6233 15.8101 18.6099 16.2847 18.8943 16.5858C19.1788 16.8869 19.6535 16.9003 19.9546 16.6158C21.2438 15.3976 22.0498 13.6695 22.0498 11.7544C22.0498 8.06095 19.0558 5.06689 15.3623 5.06689C12.5912 5.06689 10.2149 6.75202 9.20005 9.15235C8.88063 9.08376 8.5495 9.04769 8.21043 9.04769C5.61612 9.04769 3.51315 11.1506 3.51315 13.7448C3.51315 16.3389 5.61613 18.4418 8.21043 18.4418H10.4916C10.9059 18.4418 11.2416 18.106 11.2416 17.6918C11.2416 17.2776 10.9059 16.9418 10.4916 16.9418H8.21043C6.4445 16.9418 5.01315 15.5104 5.01315 13.7448C5.01315 11.9791 6.44451 10.5477 8.21043 10.5477C8.62796 10.5477 9.02507 10.6274 9.389 10.7718C9.58496 10.8496 9.80459 10.8413 9.99412 10.749C10.1836 10.6566 10.3256 10.4888 10.3851 10.2865C11.0183 8.1357 13.0082 6.56689 15.3623 6.56689Z" fill="#000000" />
<path fill-rule="evenodd" clip-rule="evenodd" d="M14.2868 14.2471C12.629 14.2471 11.2852 15.5909 11.2852 17.2487C11.2852 18.9065 12.629 20.2504 14.2868 20.2504H18.8058C19.7692 20.2504 20.55 19.4696 20.55 18.5064C20.55 17.5432 19.7692 16.7624 18.8058 16.7624C18.5775 16.7624 18.3611 16.8059 18.163 16.8846C17.967 16.9623 17.7474 16.954 17.5579 16.8617C17.3683 16.7693 17.2264 16.6015 17.1669 16.3992C16.8004 15.1545 15.6485 14.2471 14.2868 14.2471ZM9.78516 17.2487C9.78516 14.7625 11.8006 12.7471 14.2868 12.7471C16.0737 12.7471 17.6163 13.7878 18.3435 15.2952C18.4947 15.2736 18.6491 15.2624 18.8058 15.2624C20.5976 15.2624 22.05 16.7148 22.05 18.5064C22.05 20.298 20.5976 21.7504 18.8058 21.7504H14.2868C11.8006 21.7504 9.78516 19.735 9.78516 17.2487Z" fill="#000000" />
<path fill-rule="evenodd" clip-rule="evenodd" d="M7.27961 2.9276C7.12082 3.12877 7.07574 3.39709 7.16007 3.6391C7.59739 4.89403 7.30745 5.81899 6.79196 6.31288C6.27847 6.80486 5.35815 7.04456 4.15754 6.54476C3.91864 6.44531 3.64535 6.47603 3.4345 6.62606C3.22365 6.77608 3.10503 7.0242 3.12068 7.2825C3.22466 8.99943 4.32047 10.4566 5.84933 11.0778C6.23307 11.2337 6.67056 11.0491 6.82649 10.6653C6.98241 10.2816 6.79773 9.84408 6.41398 9.68815C5.7556 9.42064 5.22028 8.91784 4.90906 8.28781C6.04144 8.42594 7.0807 8.1136 7.82969 7.39599C8.58603 6.67133 8.94808 5.62761 8.85881 4.46313C9.70702 4.91635 10.3006 5.77946 10.3786 6.78325L10.3799 6.79789C10.3879 6.87971 10.3974 7.02332 10.3982 7.16749C10.3986 7.2391 10.3967 7.30358 10.3927 7.35633C10.3893 7.40041 10.3854 7.42282 10.3844 7.42831C10.3841 7.43004 10.3841 7.43009 10.3845 7.42861C10.2777 7.82882 10.5156 8.23983 10.9158 8.34662C11.316 8.45341 11.727 8.21554 11.8338 7.81533C11.8924 7.59559 11.8991 7.33443 11.8982 7.1597C11.8972 6.96763 11.8852 6.78138 11.8735 6.65976C11.7063 4.55285 10.05 2.8595 7.9439 2.64612C7.68892 2.62028 7.4384 2.72644 7.27961 2.9276Z" fill="#000000" />
<path fill-rule="evenodd" clip-rule="evenodd" d="M12.1202 2.08366C12.5236 1.98976 12.9268 2.24068 13.0207 2.64411L13.0248 2.662C13.1187 3.06543 12.8678 3.46859 12.4644 3.56249C12.061 3.65639 11.6578 3.40546 11.5639 3.00203L11.5597 2.98415C11.4658 2.58072 11.7168 2.17756 12.1202 2.08366Z" fill="#000000" />
<path fill-rule="evenodd" clip-rule="evenodd" d="M15.4379 2.68025C15.7896 2.89913 15.8972 3.36164 15.6784 3.7133L15.67 3.72666C15.4512 4.07833 14.9887 4.18597 14.637 3.9671C14.2853 3.74823 14.1777 3.28571 14.3966 2.93405L14.4049 2.92069C14.6238 2.56903 15.0863 2.46138 15.4379 2.68025Z" fill="#000000" />
</svg>