<svg width="24px"  height="24px"  viewBox="0 0 25 24" fill="none" xmlns="http://www.w3.org/2000/svg">
<path d="M12.4443 21.725C8.28433 21.725 4.57434 18.925 3.42434 14.925C3.34434 14.635 3.46434 14.255 3.70434 14.075C3.95434 13.875 4.30431 13.845 4.58431 13.995C7.28431 15.435 10.6843 14.925 12.8543 12.755C15.0243 10.585 15.5343 7.18505 14.1043 4.48505C13.9643 4.21505 14.0043 3.83503 14.1943 3.59503C14.4043 3.33503 14.7343 3.23502 15.0543 3.33502C19.0443 4.47502 21.8343 8.18503 21.8343 12.345C21.8343 17.515 17.6243 21.725 12.4543 21.725H12.4443ZM5.44433 15.955C6.77433 18.525 9.47433 20.225 12.4443 20.225C16.7943 20.225 20.3243 16.685 20.3243 12.345C20.3243 9.37503 18.6243 6.67503 16.0543 5.34503C16.9243 8.29503 16.1343 11.585 13.9043 13.815C11.6743 16.045 8.38432 16.825 5.43432 15.955H5.44433ZM15.4243 3.76502C15.4243 3.76502 15.4243 3.77504 15.4243 3.78504C15.4243 3.78504 15.4243 3.78502 15.4243 3.76502Z" fill="#000000" />
<path d="M7.3743 10.2349C7.0443 10.2349 6.7543 10.0149 6.6543 9.7049C6.2543 8.3949 5.23432 7.37491 3.92432 6.97491C3.60432 6.87491 3.39429 6.58488 3.39429 6.25488C3.39429 5.92488 3.61432 5.63491 3.92432 5.53491C5.23432 5.13491 6.2543 4.11493 6.6543 2.80493C6.7543 2.48493 7.0443 2.2749 7.3743 2.2749C7.7043 2.2749 7.9943 2.49493 8.0943 2.80493C8.4943 4.11493 9.51431 5.13491 10.8243 5.53491C11.1443 5.63491 11.3543 5.92488 11.3543 6.25488C11.3543 6.58488 11.1343 6.87491 10.8243 6.97491C9.51431 7.37491 8.4943 8.3949 8.0943 9.7049C7.9943 10.0249 7.7043 10.2349 7.3743 10.2349ZM5.86429 6.25488C6.45429 6.65488 6.9743 7.16489 7.3743 7.76489C7.7743 7.17489 8.28431 6.66488 8.88431 6.25488C8.29431 5.85488 7.7743 5.34487 7.3743 4.74487C6.9743 5.33487 6.46429 5.85488 5.86429 6.25488Z" fill="#000000" />
</svg>