<svg width="24px"  height="24px"  viewBox="0 0 25 24" fill="none" xmlns="http://www.w3.org/2000/svg">
<path d="M5.27412 18.2477C4.56412 18.2477 3.8441 18.0577 3.2241 17.6777C2.8741 17.4677 2.7541 16.9976 2.9741 16.6476C3.1841 16.2976 3.6541 16.1776 4.0041 16.3976C4.7741 16.8676 5.77412 16.8676 6.55412 16.3976C7.79412 15.6376 9.41412 15.6376 10.6541 16.3976C11.0041 16.6176 11.1241 17.0777 10.9041 17.4277C10.6841 17.7777 10.2241 17.8977 9.87409 17.6777C9.10409 17.2077 8.10411 17.2077 7.33411 17.6777C6.71411 18.0577 5.9941 18.2477 5.2841 18.2477H5.27412Z" fill="#000000" />
<path d="M13.0043 21.2176C11.8343 21.2176 10.6543 20.9976 9.53426 20.5376C7.25426 19.6076 5.47428 17.8376 4.52428 15.5676C3.57428 13.2976 3.56428 10.7876 4.49428 8.50762C6.04428 4.71762 9.96426 2.38758 14.0343 2.83758C14.3343 2.86758 14.6243 3.11758 14.7143 3.39758C14.8143 3.70758 14.7143 4.03761 14.4643 4.24761C12.1543 6.16761 11.3543 9.43758 12.5143 12.2176C12.6743 12.5976 12.4943 13.0376 12.1143 13.1976C11.7343 13.3576 11.2943 13.1776 11.1343 12.7976C9.94426 9.9476 10.4443 6.66762 12.3143 4.31762C9.49426 4.58762 6.97425 6.39763 5.87425 9.07763C5.09425 10.9876 5.10427 13.0876 5.89427 14.9876C6.69427 16.8876 8.18426 18.3676 10.0943 19.1476C12.7843 20.2476 15.8343 19.7176 18.0043 17.8976C15.9443 17.6876 14.0043 16.7076 12.6043 15.1276C12.3243 14.8176 12.3543 14.3476 12.6643 14.0676C12.9743 13.7876 13.4443 13.8176 13.7243 14.1276C15.1943 15.7776 17.3743 16.6276 19.5543 16.3976C19.8643 16.3676 20.1943 16.5476 20.3443 16.8076C20.5043 17.0876 20.4743 17.4376 20.2743 17.6876C18.4843 19.9576 15.7743 21.2076 12.9943 21.2076L13.0043 21.2176ZM13.8643 4.31762C13.8643 4.31762 13.8643 4.31762 13.8743 4.31762C13.8743 4.31762 13.8743 4.31762 13.8643 4.31762Z" fill="#000000" />
<path d="M20.454 9.3177C19.914 9.3177 19.384 9.17771 18.914 8.88771C18.454 8.60771 17.854 8.60771 17.384 8.88771C17.034 9.10771 16.574 8.98771 16.354 8.63771C16.134 8.28771 16.254 7.82768 16.604 7.60768C17.544 7.03768 18.754 7.03768 19.684 7.60768C20.144 7.88768 20.744 7.88768 21.214 7.60768C21.564 7.38768 22.034 7.50768 22.244 7.85768C22.454 8.20768 22.344 8.67771 21.994 8.88771C21.524 9.16771 20.984 9.3177 20.454 9.3177Z" fill="#000000" />
<path d="M11.2343 13.3577C10.6943 13.3577 10.1643 13.2177 9.69431 12.9277C9.34431 12.7077 9.22431 12.2477 9.44431 11.8977C9.65431 11.5477 10.1143 11.4277 10.4743 11.6477C10.9343 11.9277 11.5343 11.9277 12.0043 11.6477C12.9443 11.0777 14.1543 11.0777 15.0843 11.6477C15.5443 11.9277 16.1443 11.9277 16.6143 11.6477C17.5543 11.0777 18.7643 11.0777 19.6943 11.6477C20.1543 11.9277 20.7543 11.9277 21.2243 11.6477C21.5843 11.4377 22.0443 11.5477 22.2543 11.8977C22.4743 12.2477 22.3543 12.7177 22.0043 12.9277C21.0643 13.4977 19.8543 13.4977 18.9243 12.9277C18.4643 12.6477 17.8643 12.6477 17.3943 12.9277C16.4543 13.4977 15.2443 13.4977 14.3143 12.9277C13.8443 12.6477 13.2443 12.6477 12.7843 12.9277C12.3143 13.2077 11.7843 13.3577 11.2443 13.3577H11.2343Z" fill="#000000" />
</svg>