<svg width="24px"  height="24px"  viewBox="0 0 25 24" fill="none" xmlns="http://www.w3.org/2000/svg">
<path d="M5.53872 17.4327C5.30872 17.4327 5.07873 17.3227 4.92873 17.1227C2.95873 14.4327 2.56876 10.8727 3.89876 7.83267C5.56876 4.03267 9.59876 1.7627 13.7088 2.3227C14.0088 2.3627 14.2987 2.61268 14.3787 2.90268C14.4687 3.22268 14.3587 3.55272 14.0987 3.75272C11.7187 5.63272 10.8187 8.9427 11.9287 11.7927C12.0787 12.1827 11.8887 12.6127 11.4987 12.7627C11.1087 12.9127 10.6788 12.7227 10.5288 12.3327C9.38877 9.41267 9.98875 6.09272 11.9488 3.75272C9.06875 3.94272 6.44876 5.72271 5.26876 8.43271C4.14876 10.9927 4.47874 13.9827 6.12874 16.2327C6.37874 16.5627 6.29877 17.0327 5.96877 17.2827C5.83877 17.3827 5.67877 17.4327 5.52877 17.4327H5.53872ZM13.5087 3.81272C13.5087 3.81272 13.5188 3.81272 13.5288 3.81272C13.5288 3.81272 13.5187 3.81272 13.5087 3.81272Z" fill="#000000" />
<path d="M7.37908 21.7419H7.30907C6.50907 21.7419 5.67905 21.3919 5.09905 20.8119C4.56905 20.2719 4.27905 19.5819 4.28905 18.8619C4.24905 16.4019 6.7391 14.0819 6.8391 13.9919C7.1291 13.7319 7.56906 13.7319 7.85906 13.9919C7.96906 14.0919 10.4491 16.4118 10.4091 18.8918C10.4191 19.5918 10.1391 20.2819 9.60906 20.8219C9.02906 21.4119 8.18908 21.7618 7.37908 21.7618V21.7419ZM7.3391 20.2419C7.7591 20.2419 8.22905 20.0619 8.53905 19.7519C8.70905 19.5819 8.91911 19.2918 8.90911 18.8918C8.92911 17.7118 8.02905 16.4019 7.34905 15.6219C6.66905 16.4019 5.76905 17.7019 5.78905 18.8619C5.78905 19.2919 5.98911 19.5819 6.15911 19.7519C6.46911 20.0619 6.9491 20.2519 7.3391 20.2419Z" fill="#000000" />
<path d="M20.1087 8.93266C19.5387 8.93266 18.9687 8.78265 18.4687 8.48265C17.9487 8.16265 17.2687 8.16265 16.7487 8.48265C16.3887 8.70265 15.9287 8.58265 15.7187 8.23265C15.4987 7.88265 15.6187 7.41262 15.9687 7.20262C16.9587 6.59262 18.2487 6.59262 19.2487 7.20262C19.7687 7.52262 20.4487 7.52262 20.9687 7.20262C21.3187 6.98262 21.7787 7.10262 21.9987 7.45262C22.2187 7.80262 22.0987 8.26265 21.7487 8.48265C21.2487 8.78265 20.6787 8.93266 20.1087 8.93266Z" fill="#000000" />
<path d="M20.1087 13.0919C19.5387 13.0919 18.9687 12.9419 18.4687 12.6419C17.9487 12.3219 17.2687 12.3219 16.7487 12.6419C15.7587 13.2519 14.4687 13.2519 13.4687 12.6419C12.9487 12.3219 12.2687 12.3219 11.7487 12.6419C10.7587 13.2419 9.46873 13.2519 8.46873 12.6419C8.11873 12.4319 7.99873 11.962 8.21873 11.612C8.42873 11.262 8.8887 11.142 9.2487 11.362C9.7687 11.682 10.4487 11.682 10.9687 11.362C11.9687 10.762 13.2487 10.762 14.2487 11.362C14.7687 11.682 15.4487 11.682 15.9687 11.362C16.9587 10.752 18.2487 10.762 19.2487 11.362C19.7687 11.682 20.4487 11.682 20.9687 11.362C21.3287 11.142 21.7887 11.262 21.9987 11.612C22.2187 11.962 22.0987 12.4319 21.7487 12.6419C21.2487 12.9419 20.6787 13.0919 20.1087 13.0919Z" fill="#000000" />
<path d="M12.4492 20.9427C11.4092 20.9427 10.3591 20.7726 9.34913 20.4126C8.95913 20.2726 8.75917 19.8426 8.88917 19.4526C9.02917 19.0626 9.45913 18.8626 9.84913 18.9926C12.4391 19.9126 15.3092 19.3827 17.3992 17.6927C15.6492 17.4727 13.9791 16.7026 12.6691 15.4826C12.3691 15.2026 12.3492 14.7226 12.6292 14.4226C12.9092 14.1226 13.3892 14.1027 13.6892 14.3827C15.1192 15.7127 17.0491 16.3926 18.9791 16.2426C19.2791 16.2126 19.6192 16.4026 19.7592 16.6726C19.9092 16.9626 19.8791 17.3127 19.6691 17.5627C17.8591 19.7427 15.1792 20.9526 12.4492 20.9526V20.9427ZM19.1091 17.7326C19.1091 17.7326 19.0992 17.7326 19.0892 17.7326C19.0892 17.7326 19.0991 17.7326 19.1091 17.7326Z" fill="#000000" />
</svg>