<svg width="24px"  height="24px"  viewBox="0 0 25 24" fill="none" xmlns="http://www.w3.org/2000/svg">
<path fill-rule="evenodd" clip-rule="evenodd" d="M17.5645 2.52033C17.7194 2.72451 17.7594 2.99364 17.6704 3.23399C17.127 4.70191 17.4402 5.82425 18.0619 6.4432C18.6816 7.06018 19.7876 7.35599 21.2143 6.79394C21.4551 6.6991 21.7277 6.73506 21.9357 6.88911C22.1436 7.04315 22.2574 7.2935 22.2368 7.55145C22.0503 9.88747 20.2365 11.7676 17.9269 12.0552C17.5159 12.1064 17.1412 11.8147 17.09 11.4036C17.0388 10.9926 17.3305 10.6179 17.7415 10.5667C18.961 10.4148 19.9828 9.62307 20.4612 8.54049C19.1019 8.73546 17.8658 8.36467 17.0036 7.50618C16.1343 6.64077 15.7516 5.38592 15.9391 3.99453C14.8195 4.482 14.0092 5.54685 13.8862 6.81378C13.8462 7.22606 13.4795 7.52783 13.0672 7.48781C12.655 7.44779 12.3532 7.08114 12.3932 6.66886C12.6235 4.29629 14.5268 2.42111 16.9058 2.22614C17.1612 2.20521 17.4096 2.31616 17.5645 2.52033Z" fill="#000000" />
<path fill-rule="evenodd" clip-rule="evenodd" d="M5.69555 4.53297C5.80499 4.13348 6.21757 3.89835 6.61706 4.0078L6.64416 4.01522C7.04365 4.12467 7.27878 4.53725 7.16933 4.93674C7.05988 5.33623 6.64731 5.57136 6.24781 5.46191L6.22072 5.45449C5.82122 5.34504 5.5861 4.93247 5.69555 4.53297Z" fill="#000000" />
<path fill-rule="evenodd" clip-rule="evenodd" d="M7.69381 7.69993C8.49566 6.64005 9.78026 5.79248 11.626 5.79248C13.4717 5.79248 14.7563 6.64005 15.5581 7.69993C16.145 8.47561 16.4772 9.3672 16.6053 10.133C17.5078 10.2596 18.3359 10.6375 18.9806 11.255C19.7917 12.0319 20.2627 13.1409 20.2627 14.4633C20.2627 16.2403 19.2037 17.7685 17.6866 18.4541C17.3091 18.6246 16.8649 18.4569 16.6943 18.0795C16.5237 17.702 16.6914 17.2577 17.0689 17.0872C18.0687 16.6354 18.7627 15.6295 18.7627 14.4633C18.7627 13.5109 18.4318 12.8064 17.943 12.3383C17.4488 11.8648 16.7431 11.5858 15.9169 11.5854C15.5028 11.5852 15.1672 11.2495 15.1672 10.8354C15.1672 10.2775 14.9365 9.36444 14.3619 8.60494C13.8105 7.87603 12.9494 7.29248 11.626 7.29248C10.3025 7.29248 9.44149 7.87603 8.89003 8.60494C8.31543 9.36444 8.08475 10.2775 8.08475 10.8354C8.08475 11.2471 7.75287 11.5819 7.34118 11.5854C6.51199 11.5925 5.80395 11.8728 5.30885 12.3453C4.82013 12.8117 4.48926 13.5119 4.48926 14.4633C4.48926 15.6298 5.18264 16.6354 6.18289 17.0871C6.5604 17.2576 6.72823 17.7018 6.55775 18.0793C6.38727 18.4568 5.94304 18.6246 5.56554 18.4541C4.04715 17.7685 2.98926 16.2401 2.98926 14.4633C2.98926 13.1399 3.46155 12.0347 4.27329 11.2601C4.91841 10.6445 5.746 10.2678 6.64599 10.1371C6.77357 9.37039 7.10591 8.477 7.69381 7.69993Z" fill="#000000" />
<path fill-rule="evenodd" clip-rule="evenodd" d="M9.21289 14.2451C9.6271 14.2451 9.96289 14.5809 9.96289 14.9951V19.8206C9.96289 20.2348 9.6271 20.5706 9.21289 20.5706C8.79868 20.5706 8.46289 20.2348 8.46289 19.8206V14.9951C8.46289 14.5809 8.79868 14.2451 9.21289 14.2451ZM14.038 14.2451C14.4522 14.2451 14.788 14.5809 14.788 14.9951V19.8206C14.788 20.2348 14.4522 20.5706 14.038 20.5706C13.6238 20.5706 13.288 20.2348 13.288 19.8206V14.9951C13.288 14.5809 13.6238 14.2451 14.038 14.2451ZM11.6259 15.4516C12.0401 15.4516 12.3759 15.7874 12.3759 16.2016V21.0267C12.3759 21.4409 12.0401 21.7767 11.6259 21.7767C11.2117 21.7767 10.8759 21.4409 10.8759 21.0267V16.2016C10.8759 15.7874 11.2117 15.4516 11.6259 15.4516Z" fill="#000000" />
</svg>