<svg width="24px"  height="24px"  viewBox="0 0 25 24" fill="none" xmlns="http://www.w3.org/2000/svg">
<path d="M12.7864 21.7328C12.0664 21.7328 11.3465 21.6528 10.6465 21.5028C10.2465 21.4128 9.98645 21.0128 10.0764 20.6128C10.1664 20.2128 10.5665 19.9528 10.9665 20.0428C11.5565 20.1728 12.1764 20.2428 12.7864 20.2428C15.9964 20.2428 18.9164 18.3828 20.3264 15.5828C17.1864 16.5528 13.6464 15.7328 11.2664 13.3428C8.88645 10.9628 8.05646 7.42279 9.02646 4.28279C6.22646 5.69279 4.36646 8.60277 4.36646 11.8228C4.36646 13.6428 4.93645 15.3728 6.01645 16.8328C6.26645 17.1628 6.19645 17.6328 5.85645 17.8828C5.52645 18.1328 5.05646 18.0628 4.80646 17.7228C3.53646 16.0028 2.85645 13.9628 2.85645 11.8228C2.85645 7.41277 5.81645 3.49279 10.0464 2.28279C10.3364 2.20279 10.7065 2.3128 10.8965 2.5428C11.1065 2.7928 11.1365 3.14281 10.9965 3.42281C9.45646 6.32281 10.0064 9.96279 12.3264 12.2828C14.6464 14.6028 18.2865 15.1528 21.1765 13.6128C21.4365 13.4728 21.8364 13.5128 22.0664 13.6928C22.3164 13.8928 22.4264 14.2228 22.3464 14.5328C21.1264 18.7828 17.2064 21.7428 12.7964 21.7428L12.7864 21.7328Z" fill="#000000" />
<path d="M9.78668 21.7328H5.43671C5.10671 21.7328 4.73669 21.6628 4.41669 21.5228C3.46669 21.0928 2.8667 20.1728 2.8667 19.1528C2.8667 17.8928 3.6367 16.9228 4.7767 16.6428C5.0567 15.5628 5.9767 14.3828 7.6167 14.3828C9.2567 14.3828 10.1767 15.5628 10.4567 16.6428C11.5967 16.9228 12.3667 17.8928 12.3667 19.1528C12.3667 20.1728 11.7667 21.0928 10.8467 21.5128C10.4867 21.6528 10.1267 21.7228 9.79669 21.7228L9.78668 21.7328ZM7.6167 15.8928C6.4467 15.8928 6.18671 17.0328 6.18671 17.3228C6.18671 17.7328 5.85669 18.0728 5.44669 18.0728C4.92669 18.0728 4.3667 18.3628 4.3667 19.1628C4.3667 19.5928 4.61668 19.9828 5.00668 20.1528C5.19668 20.2328 5.38671 20.2328 5.43671 20.2328H9.78668C9.85668 20.2328 10.0367 20.2328 10.2567 20.1428C10.6167 19.9828 10.8667 19.5928 10.8667 19.1628C10.8667 18.3628 10.3067 18.0728 9.78668 18.0728C9.37668 18.0728 9.04669 17.7328 9.04669 17.3228C9.04669 17.0428 8.7967 15.8928 7.6167 15.8928Z" fill="#000000" />
<path d="M13.5264 4.92285C13.1164 4.92285 12.7764 4.58285 12.7764 4.17285C12.7764 3.76285 13.1164 3.42285 13.5264 3.42285C13.9364 3.42285 14.2764 3.75285 14.2764 4.17285C14.2764 4.59285 13.9364 4.93286 13.5264 4.93286V4.92285Z" fill="#000000" />
<path d="M18.3765 11.0928C18.0465 11.0928 17.7565 10.8729 17.6565 10.5629C17.2565 9.25287 16.2365 8.23282 14.9265 7.83282C14.6065 7.73282 14.3965 7.44285 14.3965 7.11285C14.3965 6.78285 14.6165 6.49282 14.9265 6.39282C16.2365 5.99282 17.2565 4.97284 17.6565 3.66284C17.7565 3.34284 18.0465 3.13281 18.3765 3.13281C18.7065 3.13281 18.9965 3.35284 19.0965 3.66284C19.4965 4.97284 20.5165 5.99282 21.8265 6.39282C22.1465 6.49282 22.3565 6.78285 22.3565 7.11285C22.3565 7.44285 22.1365 7.73282 21.8265 7.83282C20.5165 8.23282 19.4965 9.25287 19.0965 10.5629C18.9965 10.8829 18.7065 11.0928 18.3765 11.0928ZM16.8665 7.11285C17.4565 7.51285 17.9765 8.02286 18.3765 8.62286C18.7765 8.03286 19.2865 7.52285 19.8865 7.11285C19.2965 6.71285 18.7765 6.20284 18.3765 5.60284C17.9765 6.19284 17.4665 6.70285 16.8665 7.11285Z" fill="#000000" />
</svg>