<svg width="24px"  height="24px"  viewBox="0 0 25 24" fill="none" xmlns="http://www.w3.org/2000/svg">
<path fill-rule="evenodd" clip-rule="evenodd" d="M7.58851 8.23123C8.35523 7.23144 9.5761 6.43701 11.3202 6.43701C13.0797 6.43701 14.3062 7.24539 15.0715 8.25643C15.6243 8.98674 15.9404 9.82495 16.0657 10.5498C16.9126 10.6786 17.692 11.0366 18.3016 11.6183C19.0779 12.3591 19.5284 13.415 19.5284 14.6767C19.5284 15.0909 19.1926 15.4267 18.7784 15.4267C18.3642 15.4267 18.0284 15.0909 18.0284 14.6767C18.0284 13.7871 17.7194 13.1361 17.2661 12.7035C16.8064 12.2648 16.1472 12.0028 15.3723 11.9959C14.9608 11.9922 14.6291 11.6575 14.6291 11.2459C14.6291 10.727 14.4135 9.87249 13.8755 9.16175C13.3607 8.48159 12.5577 7.93701 11.3202 7.93701C10.1009 7.93701 9.30429 8.4656 8.78912 9.13064L8.4814 9.57392C8.2452 9.91419 7.77788 9.99854 7.43761 9.76234C7.09735 9.52613 7.01299 9.05881 7.2492 8.71854L7.56755 8.25995C7.57431 8.25021 7.5813 8.24063 7.58851 8.23123Z" fill="#000000" />
<path fill-rule="evenodd" clip-rule="evenodd" d="M5.65396 9.62743C6.17125 8.94385 7.0046 8.39746 8.18374 8.39746C9.36284 8.39746 10.1963 8.94383 10.7137 9.62734C11.2079 10.2803 11.4205 11.0622 11.4205 11.6342C11.4205 12.0485 11.0847 12.3842 10.6705 12.3842C10.2563 12.3842 9.92052 12.0485 9.92052 11.6342C9.92052 11.3774 9.80779 10.9159 9.51771 10.5327C9.25076 10.18 8.84082 9.89746 8.18374 9.89746C7.52668 9.89746 7.11689 10.18 6.85008 10.5326C6.56012 10.9157 6.44745 11.3773 6.44745 11.6342C6.44745 12.0458 6.11576 12.3805 5.7042 12.3842C5.29341 12.3879 4.96328 12.526 4.74154 12.7375C4.52624 12.9429 4.36426 13.2634 4.36426 13.7362C4.36426 14.2835 4.68963 14.7564 5.16008 14.969C5.53754 15.1395 5.70526 15.5838 5.53468 15.9613C5.36411 16.3387 4.91984 16.5064 4.54238 16.3359C3.55455 15.8895 2.86426 14.8942 2.86426 13.7362C2.86426 12.891 3.16787 12.1657 3.70616 11.6522C4.07741 11.298 4.53619 11.0674 5.0315 10.9581C5.1346 10.5214 5.33592 10.0477 5.65396 9.62743Z" fill="#000000" />
<path fill-rule="evenodd" clip-rule="evenodd" d="M7.53554 5.81348C6.76306 5.81348 6.12738 6.403 6.05523 7.15618C6.01573 7.56851 5.64945 7.87074 5.23712 7.83124C4.8248 7.79174 4.52256 7.42546 4.56206 7.01313C4.70723 5.49788 5.98262 4.31348 7.53554 4.31348C9.18531 4.31348 10.5227 5.65088 10.5227 7.30066C10.5227 7.71487 10.1869 8.05066 9.77272 8.05066C9.3585 8.05066 9.02272 7.71487 9.02272 7.30066C9.02272 6.47931 8.35688 5.81348 7.53554 5.81348Z" fill="#000000" />
<path fill-rule="evenodd" clip-rule="evenodd" d="M4.78776 7.77344C4.55387 7.77344 4.36426 7.96305 4.36426 8.19694C4.36426 8.61115 4.02847 8.94694 3.61426 8.94694C3.20004 8.94694 2.86426 8.61115 2.86426 8.19694C2.86426 7.13462 3.72544 6.27344 4.78776 6.27344C5.61655 6.27344 6.3211 6.79725 6.59204 7.52937C6.73581 7.91784 6.53743 8.34929 6.14897 8.49305C5.7605 8.63681 5.32905 8.43844 5.18528 8.04998C5.12512 7.88739 4.9688 7.77344 4.78776 7.77344Z" fill="#000000" />
<path fill-rule="evenodd" clip-rule="evenodd" d="M12.1045 19.4421C12.5122 19.3689 12.902 19.6401 12.9751 20.0478L12.9839 20.0966C13.0571 20.5043 12.7859 20.8942 12.3782 20.9673C11.9705 21.0405 11.5807 20.7693 11.5075 20.3616L11.4987 20.3128C11.4256 19.9051 11.6968 19.5153 12.1045 19.4421Z" fill="#000000" />
<path fill-rule="evenodd" clip-rule="evenodd" d="M7.47701 20.8297C7.70906 20.9637 7.99496 20.9637 8.22701 20.8297L9.51456 20.0863C9.74661 19.9524 9.88956 19.7048 9.88956 19.4368V17.9501C9.88956 17.6821 9.74661 17.4345 9.51456 17.3005L8.22701 16.5572C7.99496 16.4232 7.70906 16.4232 7.47701 16.5572L6.18945 17.3005C5.9574 17.4345 5.81445 17.6821 5.81445 17.9501V19.4368C5.81445 19.7048 5.9574 19.9524 6.18945 20.0863L7.47701 20.8297ZM7.31445 19.0038V18.3831L7.85201 18.0727L8.38956 18.3831V19.0038L7.85201 19.3142L7.31445 19.0038Z" fill="#000000" />
<path fill-rule="evenodd" clip-rule="evenodd" d="M16.2475 20.8297C16.4796 20.9637 16.7655 20.9637 16.9975 20.8297L18.2851 20.0863C18.5171 19.9524 18.6601 19.7048 18.6601 19.4368V17.9501C18.6601 17.6821 18.5171 17.4345 18.2851 17.3005L16.9975 16.5572C16.7655 16.4232 16.4796 16.4232 16.2475 16.5572L14.96 17.3005C14.7279 17.4345 14.585 17.6821 14.585 17.9501V19.4368C14.585 19.7048 14.7279 19.9524 14.96 20.0863L16.2475 20.8297ZM16.085 19.0038V18.3831L16.6225 18.0727L17.1601 18.3831V19.0038L16.6225 19.3142L16.085 19.0038Z" fill="#000000" />
<path fill-rule="evenodd" clip-rule="evenodd" d="M11.8618 17.6568C12.0938 17.7908 12.3797 17.7908 12.6118 17.6568L13.8993 16.9135C14.1314 16.7795 14.2743 16.5319 14.2743 16.264V14.7772C14.2743 14.5093 14.1314 14.2617 13.8993 14.1277L12.6118 13.3843C12.3797 13.2504 12.0938 13.2504 11.8618 13.3843L10.5742 14.1277C10.3422 14.2617 10.1992 14.5093 10.1992 14.7772V16.264C10.1992 16.5319 10.3422 16.7795 10.5742 16.9135L11.8618 17.6568ZM11.6992 15.8309V15.2102L12.2368 14.8999L12.7743 15.2102V15.8309L12.2368 16.1413L11.6992 15.8309Z" fill="#000000" />
<path fill-rule="evenodd" clip-rule="evenodd" d="M17.7529 3.04736C18.1524 3.15682 18.3875 3.5694 18.278 3.96889L18.2726 3.98875C18.1631 4.38824 17.7505 4.62336 17.3511 4.5139C16.9516 4.40444 16.7165 3.99186 16.8259 3.59237L16.8314 3.57251C16.9408 3.17302 17.3534 2.9379 17.7529 3.04736ZM12.7889 3.67863C13.1488 3.47355 13.6068 3.59903 13.8119 3.95891L13.8206 3.97425C14.0257 4.33413 13.9002 4.79212 13.5404 4.9972C13.1805 5.20229 12.7225 5.07681 12.5174 4.71693L12.5087 4.70159C12.3036 4.34171 12.4291 3.88372 12.7889 3.67863ZM21.7227 6.1087C21.9278 6.46858 21.8023 6.92657 21.4424 7.13167L21.4064 7.15221C21.0465 7.3573 20.5885 7.23182 20.3834 6.87194C20.1783 6.51207 20.3038 6.05407 20.6637 5.84898L20.6997 5.82844C21.0596 5.62335 21.5176 5.74883 21.7227 6.1087ZM20.8646 10.6907C20.9741 10.2912 21.3867 10.0561 21.7861 10.1655L21.8126 10.1728C22.2121 10.2823 22.4472 10.6948 22.3378 11.0943C22.2283 11.4938 21.8158 11.7289 21.4163 11.6195L21.3898 11.6122C20.9903 11.5028 20.7552 11.0902 20.8646 10.6907Z" fill="#000000" />
<path fill-rule="evenodd" clip-rule="evenodd" d="M16.0193 6.67236C15.048 6.67236 14.1964 7.18796 13.7243 7.96382C13.5091 8.3177 13.0477 8.43005 12.6938 8.21476C12.3399 7.99948 12.2276 7.53809 12.4429 7.18422C13.1756 5.9797 14.5029 5.17236 16.0193 5.17236C18.33 5.17236 20.2023 7.04556 20.2023 9.35534C20.2023 10.8029 19.4667 12.0784 18.3522 12.8285C18.0085 13.0597 17.5425 12.9686 17.3112 12.625C17.08 12.2813 17.1711 11.8153 17.5147 11.584C18.2326 11.1009 18.7023 10.2829 18.7023 9.35534C18.7023 7.8738 17.5014 6.67236 16.0193 6.67236Z" fill="#000000" />
</svg>