<svg width="24px"  height="24px"  viewBox="0 0 25 24" fill="none" xmlns="http://www.w3.org/2000/svg">
<path d="M12.7589 21.7447C7.58891 21.7447 3.37891 17.5347 3.37891 12.3647C3.37891 8.19472 6.16891 4.4847 10.1789 3.3447C10.4689 3.2647 10.8289 3.37472 11.0189 3.61472C11.2289 3.86472 11.2589 4.22468 11.0989 4.51468C9.66891 7.20468 10.1789 10.6047 12.3489 12.7747C14.5189 14.9447 17.9189 15.4547 20.6189 14.0147C20.8789 13.8747 21.2589 13.9047 21.4989 14.0947C21.7389 14.2847 21.8589 14.6447 21.7789 14.9347C20.6289 18.9547 16.9189 21.7547 12.7589 21.7547V21.7447ZM9.13891 5.36472C6.56891 6.70472 4.87891 9.39472 4.87891 12.3647C4.87891 16.7147 8.41891 20.2447 12.7589 20.2447C15.7289 20.2447 18.4289 18.5447 19.7589 15.9747C16.8089 16.8447 13.5189 16.0547 11.2889 13.8247C9.05891 11.5947 8.27891 8.30471 9.13891 5.35471V5.36472Z" fill="#000000" />
<path d="M14.9189 6.40509C14.5089 6.40509 14.1689 6.06509 14.1689 5.65509V5.07513H13.5889C13.1789 5.07513 12.8389 4.73513 12.8389 4.32513C12.8389 3.91513 13.1789 3.57513 13.5889 3.57513H14.1689V2.99512C14.1689 2.58512 14.5089 2.24512 14.9189 2.24512C15.3289 2.24512 15.6689 2.58512 15.6689 2.99512V3.57513H16.2489C16.6589 3.57513 16.9989 3.91513 16.9989 4.32513C16.9989 4.73513 16.6589 5.07513 16.2489 5.07513H15.6689V5.65509C15.6689 6.06509 15.3289 6.40509 14.9189 6.40509Z" fill="#000000" />
<path d="M19.1492 12.005C18.7392 12.005 18.3992 11.665 18.3992 11.255V10.055H17.1992C16.7892 10.055 16.4492 9.71499 16.4492 9.30499C16.4492 8.89499 16.7892 8.55499 17.1992 8.55499H18.3992V7.35498C18.3992 6.94498 18.7392 6.60498 19.1492 6.60498C19.5592 6.60498 19.8992 6.94498 19.8992 7.35498V8.55499H21.0992C21.5092 8.55499 21.8492 8.89499 21.8492 9.30499C21.8492 9.71499 21.5092 10.055 21.0992 10.055H19.8992V11.255C19.8992 11.665 19.5592 12.005 19.1492 12.005Z" fill="#000000" />
</svg>