<svg width="24px"  height="24px"  viewBox="0 0 25 24" fill="none" xmlns="http://www.w3.org/2000/svg">
<path d="M13.6528 20.1415H13.6428C13.2328 20.1415 12.8928 19.8015 12.8928 19.3915C12.8928 18.9815 13.2328 18.6415 13.6428 18.6415C13.6428 18.6415 13.6428 18.6415 13.6528 18.6415C17.0828 18.6415 20.0228 16.2015 20.7228 12.9315C18.4328 13.0615 15.8928 12.1215 14.2128 10.4515C12.6928 8.93147 11.9128 6.62143 12.1028 4.34143C10.2228 4.75143 8.5528 5.91146 7.5228 7.56146C6.2728 9.56146 6.0728 11.9414 6.9728 14.2814C7.1228 14.6714 6.9328 15.1015 6.5428 15.2515C6.1528 15.4015 5.7228 15.2015 5.5728 14.8215C4.5128 12.0715 4.7628 9.13147 6.2528 6.76147C7.7128 4.44147 10.2128 2.92147 12.9328 2.70147C13.1728 2.68147 13.4028 2.77147 13.5628 2.95147C13.7228 3.13147 13.7828 3.37145 13.7328 3.61145C13.2728 5.68145 13.8928 8.00148 15.2828 9.39148C16.6328 10.7415 19.1828 11.8315 21.4528 11.3215C21.6828 11.2715 21.9328 11.3214 22.1128 11.4814C22.2928 11.6414 22.3928 11.8714 22.3728 12.1114C22.0128 16.6114 18.1928 20.1415 13.6628 20.1415H13.6528Z" fill="#000000" />
<path d="M11.5825 21.3015H5.96254C5.56254 21.3015 5.12254 21.2115 4.72254 21.0515C3.58254 20.5315 2.85254 19.4215 2.85254 18.1915C2.85254 16.6315 3.84254 15.4315 5.28254 15.1315C5.57254 13.7915 6.70254 12.2515 8.77254 12.2515C10.8425 12.2515 11.9625 13.7915 12.2625 15.1315C13.7025 15.4215 14.6925 16.6215 14.6925 18.1915C14.6925 19.4215 13.9725 20.5414 12.8525 21.0414C12.4325 21.2114 11.9925 21.3015 11.5825 21.3015ZM8.77254 13.7515C7.08254 13.7515 6.71254 15.4015 6.71254 15.8115C6.71254 16.2215 6.38254 16.5615 5.97254 16.5615C5.23254 16.5615 4.36254 17.0015 4.36254 18.1915C4.36254 18.8315 4.74254 19.4114 5.32254 19.6714C5.60254 19.7814 5.87254 19.8015 5.97254 19.8015H11.5925C11.6925 19.8015 11.9625 19.7914 12.2725 19.6614C12.8225 19.4114 13.2025 18.8315 13.2025 18.1915C13.2025 17.0015 12.3325 16.5715 11.5925 16.5615C11.1825 16.5615 10.8525 16.2215 10.8525 15.8115C10.8525 15.4015 10.4825 13.7515 8.79254 13.7515H8.77254Z" fill="#000000" />
</svg>