<svg width="24px"  height="24px"  viewBox="0 0 25 24" fill="none" xmlns="http://www.w3.org/2000/svg">
<path fill-rule="evenodd" clip-rule="evenodd" d="M17.6236 2.83088C17.7785 3.03505 17.8185 3.30419 17.7295 3.54454C17.177 5.03706 17.4948 6.18072 18.1293 6.81246C18.7618 7.44225 19.889 7.74233 21.3398 7.1708C21.5806 7.07595 21.8532 7.11192 22.0611 7.26596C22.2691 7.42 22.3829 7.67035 22.3623 7.9283C22.1734 10.2934 20.3371 12.1969 17.9987 12.4881C17.5877 12.5393 17.213 12.2476 17.1618 11.8366C17.1106 11.4255 17.4023 11.0508 17.8134 10.9996C19.0614 10.8442 20.1061 10.0303 20.5896 8.919C19.2056 9.12282 17.9471 8.7478 17.071 7.87545C16.1878 6.9962 15.8006 5.71886 15.9966 4.30222C14.8478 4.7948 14.015 5.88328 13.8891 7.17962C13.8491 7.5919 13.4824 7.89367 13.0702 7.85365C12.6579 7.81364 12.3561 7.44698 12.3961 7.0347C12.6293 4.63261 14.5563 2.73408 16.9649 2.53669C17.2203 2.51576 17.4687 2.6267 17.6236 2.83088Z" fill="#000000" />
<path fill-rule="evenodd" clip-rule="evenodd" d="M5.59911 4.86989C5.70856 4.47039 6.12113 4.23527 6.52063 4.34472L6.54772 4.35214C6.94722 4.46159 7.18234 4.87416 7.0729 5.27366C6.96345 5.67315 6.55087 5.90828 6.15138 5.79883L6.12428 5.7914C5.72479 5.68196 5.48966 5.26938 5.59911 4.86989Z" fill="#000000" />
<path fill-rule="evenodd" clip-rule="evenodd" d="M7.63242 8.08568C8.44376 7.01351 9.74333 6.15625 11.6111 6.15625C13.4788 6.15625 14.7784 7.01351 15.5897 8.08568C16.1868 8.87468 16.5234 9.78224 16.6515 10.5597C17.5651 10.6912 18.405 11.0729 19.0592 11.6973C19.88 12.4806 20.3579 13.5984 20.3579 14.9377C20.3579 16.7352 19.2867 18.2811 17.752 18.9746C17.3745 19.1452 16.9303 18.9775 16.7597 18.6C16.5891 18.2225 16.7568 17.7783 17.1343 17.6077C18.1516 17.1479 18.8579 16.1244 18.8579 14.9377C18.8579 13.9704 18.5214 13.2575 18.0236 12.7824C17.5193 12.3011 16.7987 12.0158 15.9555 12.0082C15.5439 12.0045 15.2122 11.6698 15.2122 11.2583C15.2122 10.6904 14.9776 9.76258 14.3936 8.99082C13.8328 8.24966 12.9568 7.65625 11.6111 7.65625C10.2654 7.65625 9.38941 8.24966 8.82854 8.99082C8.24453 9.76258 8.00995 10.6904 8.00995 11.2583C8.00995 11.6698 7.67826 12.0045 7.2667 12.0082C6.42352 12.0158 5.70282 12.3011 5.19858 12.7824C4.70073 13.2575 4.36426 13.9704 4.36426 14.9377C4.36426 16.1247 5.06986 17.148 6.0877 17.6076C6.4652 17.7781 6.63303 18.2223 6.46255 18.5998C6.29208 18.9773 5.84785 19.1451 5.47034 18.9747C3.93438 18.281 2.86426 16.735 2.86426 14.9377C2.86426 13.5984 3.34217 12.4806 4.16293 11.6973C4.81713 11.0729 5.65706 10.6912 6.57062 10.5597C6.69876 9.78224 7.03535 8.87468 7.63242 8.08568Z" fill="#000000" />
<path fill-rule="evenodd" clip-rule="evenodd" d="M11.6106 14.7197C12.0248 14.7197 12.3606 15.0554 12.3607 15.4696L12.3609 16.8181L13.6073 16.1253C13.9694 15.9241 14.426 16.0545 14.6272 16.4165C14.8285 16.7786 14.6981 17.2352 14.336 17.4364L13.1552 18.0927L14.3359 18.7487C14.698 18.9499 14.8285 19.4065 14.6273 19.7686C14.4261 20.1307 13.9695 20.2611 13.6075 20.0599L12.3609 19.3674L12.3607 20.7159C12.3606 21.1301 12.0248 21.4659 11.6106 21.4658C11.1963 21.4657 10.8606 21.1299 10.8607 20.7157L10.8609 19.3675L9.61433 20.06C9.25223 20.2611 8.79563 20.1306 8.5945 19.7685C8.39336 19.4064 8.52384 18.9498 8.88595 18.7487L10.0669 18.0927L8.88584 17.4364C8.52377 17.2352 8.39336 16.7786 8.59455 16.4166C8.79575 16.0545 9.25237 15.9241 9.61443 16.1253L10.8609 16.8179L10.8607 15.4699C10.8606 15.0556 11.1963 14.7198 11.6106 14.7197Z" fill="#000000" />
</svg>