<svg width="24px"  height="24px"  viewBox="0 0 25 24" fill="none" xmlns="http://www.w3.org/2000/svg">
<path fill-rule="evenodd" clip-rule="evenodd" d="M7.89062 20.3124C7.89062 17.704 10.0052 15.5894 12.6137 15.5894C15.2222 15.5894 17.3368 17.704 17.3368 20.3124C17.3368 20.7267 17.001 21.0624 16.5868 21.0624C16.1726 21.0624 15.8368 20.7267 15.8368 20.3124C15.8368 18.5324 14.3938 17.0894 12.6137 17.0894C10.8337 17.0894 9.39062 18.5324 9.39062 20.3124C9.39062 20.7267 9.05484 21.0624 8.64062 21.0624C8.22641 21.0624 7.89062 20.7267 7.89062 20.3124Z" fill="#000000" />
<path fill-rule="evenodd" clip-rule="evenodd" d="M5.4043 20.3124C5.4043 16.3302 8.63249 13.1021 12.6147 13.1021C16.5968 13.1021 19.825 16.3302 19.825 20.3124C19.825 20.7266 19.4893 21.0624 19.075 21.0624C18.6608 21.0624 18.325 20.7266 18.325 20.3124C18.325 17.1587 15.7684 14.6021 12.6147 14.6021C9.46092 14.6021 6.9043 17.1587 6.9043 20.3124C6.9043 20.7266 6.56851 21.0624 6.1543 21.0624C5.74008 21.0624 5.4043 20.7266 5.4043 20.3124Z" fill="#000000" />
<path fill-rule="evenodd" clip-rule="evenodd" d="M2.86426 20.3125C2.86426 14.9277 7.22948 10.5625 12.6143 10.5625C17.999 10.5625 22.3643 14.9277 22.3643 20.3125C22.3643 20.7267 22.0285 21.0625 21.6143 21.0625C21.2 21.0625 20.8643 20.7267 20.8643 20.3125C20.8643 15.7562 17.1706 12.0625 12.6143 12.0625C8.05791 12.0625 4.36426 15.7562 4.36426 20.3125C4.36426 20.7267 4.02847 21.0625 3.61426 21.0625C3.20004 21.0625 2.86426 20.7267 2.86426 20.3125Z" fill="#000000" />
<path fill-rule="evenodd" clip-rule="evenodd" d="M13.7568 9.61143C13.3436 7.7824 11.5259 6.63406 9.69612 7.04746C7.86637 7.46085 6.71892 9.2791 7.13215 11.1081C7.226 11.5235 7.39148 11.9022 7.61207 12.2354C7.84075 12.5807 7.74615 13.0461 7.40078 13.2748C7.05541 13.5035 6.59006 13.4089 6.36138 13.0635C6.04195 12.5811 5.80355 12.0341 5.66903 11.4387C5.07328 8.80183 6.72753 6.18035 9.36556 5.58434C12.0036 4.98832 14.6242 6.64399 15.2199 9.28087C15.3509 9.86077 15.3732 10.4415 15.2995 11.0007C15.2453 11.4114 14.8685 11.7004 14.4578 11.6462C14.0472 11.592 13.7582 11.2152 13.8123 10.8045C13.8633 10.4184 13.8482 10.016 13.7568 9.61143Z" fill="#000000" />
<path fill-rule="evenodd" clip-rule="evenodd" d="M15.0574 3.05295C15.4076 3.27409 15.5123 3.73729 15.2911 4.08753L14.6489 5.10464C14.4278 5.45488 13.9646 5.55953 13.6143 5.33838C13.2641 5.11724 13.1595 4.65404 13.3806 4.3038L14.0228 3.28669C14.244 2.93645 14.7072 2.8318 15.0574 3.05295ZM8.80117 3.08688C9.2052 2.99559 9.60673 3.24912 9.69801 3.65315L9.70194 3.67053C9.79322 4.07456 9.53969 4.47609 9.13566 4.56738C8.73163 4.65866 8.3301 4.40513 8.23882 4.0011L8.23489 3.98372C8.14361 3.57969 8.39714 3.17816 8.80117 3.08688ZM3.13742 5.74646C3.35856 5.39622 3.82176 5.29157 4.172 5.51271L5.18911 6.15493C5.53935 6.37608 5.644 6.83928 5.42286 7.18952C5.20171 7.53975 4.73851 7.6444 4.38827 7.42326L3.37116 6.78104C3.02092 6.55989 2.91627 6.09669 3.13742 5.74646ZM17.7307 8.71376C17.822 9.11779 17.5685 9.51932 17.1644 9.6106L17.1337 9.61755C16.7296 9.70883 16.3281 9.4553 16.2368 9.05127C16.1455 8.64724 16.3991 8.24571 16.8031 8.15443L16.8339 8.14748C17.2379 8.0562 17.6394 8.30973 17.7307 8.71376ZM4.65179 11.6687C4.74308 12.0727 4.48954 12.4742 4.08552 12.5655L4.05489 12.5724C3.65086 12.6637 3.24933 12.4102 3.15805 12.0062C3.06676 11.6021 3.32029 11.2006 3.72432 11.1093L3.75495 11.1024C4.15898 11.0111 4.56051 11.2647 4.65179 11.6687Z" fill="#000000" />
</svg>