<svg width="24px"  height="24px"  viewBox="0 0 25 24" fill="none" xmlns="http://www.w3.org/2000/svg">
<path fill-rule="evenodd" clip-rule="evenodd" d="M20.6143 14.8604C19.9394 14.8604 19.271 14.9933 18.6474 15.2516C18.0239 15.5099 17.4573 15.8885 16.98 16.3657C16.5027 16.843 16.1241 17.4096 15.8658 18.0332C15.6076 18.6568 15.4746 19.3251 15.4746 20.0001C15.4746 20.4143 15.1388 20.7501 14.7246 20.7501C14.3104 20.7501 13.9746 20.4143 13.9746 20.0001C13.9746 19.1281 14.1464 18.2647 14.48 17.4592C14.8137 16.6536 15.3028 15.9216 15.9193 15.3051C16.5359 14.6885 17.2678 14.1994 18.0734 13.8658C18.879 13.5321 19.7424 13.3604 20.6143 13.3604C21.0285 13.3604 21.3643 13.6961 21.3643 14.1104C21.3643 14.5246 21.0285 14.8604 20.6143 14.8604Z" fill="#000000" />
<path fill-rule="evenodd" clip-rule="evenodd" d="M20.6142 9.80469C19.2754 9.80469 17.9496 10.0684 16.7127 10.5808C15.4757 11.0931 14.3518 11.8441 13.4051 12.7908C12.4584 13.7375 11.7074 14.8614 11.195 16.0984C10.6827 17.3353 10.4189 18.6611 10.4189 20C10.4189 20.4142 10.0832 20.75 9.66895 20.75C9.25473 20.75 8.91895 20.4142 8.91895 20C8.91895 18.4641 9.22145 16.9433 9.80919 15.5244C10.3969 14.1054 11.2584 12.8162 12.3444 11.7302C13.4304 10.6441 14.7197 9.78268 16.1386 9.19494C17.5576 8.60719 19.0784 8.30469 20.6142 8.30469C21.0284 8.30469 21.3642 8.64047 21.3642 9.05469C21.3642 9.4689 21.0284 9.80469 20.6142 9.80469Z" fill="#000000" />
<path fill-rule="evenodd" clip-rule="evenodd" d="M20.6143 4.75C18.6116 4.75 16.6285 5.14445 14.7783 5.91084C12.9281 6.67722 11.247 7.80053 9.83088 9.21662C8.41478 10.6327 7.29148 12.3139 6.52509 14.1641C5.75871 16.0143 5.36426 17.9973 5.36426 20C5.36426 20.4142 5.02847 20.75 4.61426 20.75C4.20004 20.75 3.86426 20.4142 3.86426 20C3.86426 17.8004 4.29751 15.6223 5.13927 13.5901C5.98104 11.5578 7.21484 9.71134 8.77022 8.15596C10.3256 6.60058 12.1721 5.36678 14.2043 4.52502C16.2365 3.68325 18.4146 3.25 20.6143 3.25C21.0285 3.25 21.3643 3.58579 21.3643 4C21.3643 4.41421 21.0285 4.75 20.6143 4.75Z" fill="#000000" />
</svg>