<svg width="24px"  height="24px"  viewBox="0 0 25 24" fill="none" xmlns="http://www.w3.org/2000/svg">
<path fill-rule="evenodd" clip-rule="evenodd" d="M14.9868 12.8892C15.506 12.2033 16.3422 11.6553 17.5255 11.6553C18.7083 11.6553 19.5443 12.2035 20.0632 12.8892C20.3829 13.3117 20.5851 13.7878 20.6884 14.2267C21.1863 14.3362 21.6473 14.5678 22.0202 14.9238C22.56 15.439 22.8643 16.1668 22.8643 17.0147C22.8643 18.1735 22.1765 19.1752 21.1828 19.6248C21.1723 19.6295 21.1617 19.634 21.151 19.6383C20.7459 19.7995 20.3432 19.8619 20.0202 19.8619H15.0256C14.6993 19.8619 14.2967 19.7963 13.8967 19.635C13.887 19.631 13.8773 19.6269 13.8678 19.6226C12.8772 19.1738 12.1855 18.1755 12.1855 17.0147C12.1855 16.1668 12.4899 15.439 13.0297 14.9238C13.4026 14.5678 13.8636 14.3362 14.3615 14.2267C14.4649 13.7878 14.6671 13.3116 14.9868 12.8892ZM16.1828 13.7945C15.8911 14.1799 15.7777 14.6441 15.7777 14.9031C15.7777 15.3147 15.4459 15.6494 15.0343 15.653C14.6209 15.6567 14.2886 15.7957 14.0654 16.0088C13.8485 16.2158 13.6855 16.5387 13.6855 17.0147C13.6855 17.5595 14.0062 18.032 14.4726 18.2497C14.6837 18.3325 14.8889 18.3619 15.0256 18.3619H20.0202C20.1599 18.3619 20.3664 18.3334 20.58 18.251C21.0445 18.0338 21.3643 17.5609 21.3643 17.0147C21.3643 16.5387 21.2014 16.2158 20.9845 16.0088C20.7612 15.7957 20.429 15.6567 20.0156 15.653C19.604 15.6494 19.2722 15.3147 19.2722 14.9031C19.2722 14.6441 19.1588 14.1798 18.8671 13.7944C18.5986 13.4395 18.1862 13.1553 17.5255 13.1553C16.8641 13.1553 16.4514 13.4397 16.1828 13.7945Z" fill="#000000" />
<path fill-rule="evenodd" clip-rule="evenodd" d="M9.57319 11.6207C10.3908 10.8031 11.4998 10.3442 12.6558 10.3442C12.8994 10.3442 13.1441 10.3639 13.3861 10.4053C13.7944 10.4751 14.0687 10.8627 13.9989 11.271C13.9291 11.6793 13.5415 11.9536 13.1333 11.8838C12.9788 11.8574 12.8188 11.8442 12.6558 11.8442C11.8974 11.8442 11.1701 12.1453 10.634 12.6812C10.0971 13.2191 9.79565 13.9458 9.79565 14.7033V16.7492C9.79565 17.1634 9.45987 17.4992 9.04565 17.4992C8.63144 17.4992 8.29565 17.1634 8.29565 16.7492V14.7033C8.29565 13.5465 8.75619 12.439 9.57279 11.6211L9.57319 11.6207Z" fill="#000000" />
<path fill-rule="evenodd" clip-rule="evenodd" d="M7.4939 9.35962C8.8627 7.99196 10.7181 7.22266 12.654 7.22266C14.1776 7.22266 15.6507 7.69889 16.8764 8.56753C17.2144 8.80703 17.2942 9.27515 17.0547 9.6131C16.8152 9.95105 16.3471 10.0309 16.0091 9.79136C15.0349 9.10093 13.8644 8.72266 12.654 8.72266C11.1164 8.72266 9.64223 9.33363 8.55434 10.4205C8.55426 10.4206 8.55419 10.4206 8.55412 10.4207M8.55412 10.4207C7.4665 11.5085 6.85547 12.9835 6.85547 14.5212V16.7478C6.85547 17.162 6.51968 17.4978 6.10547 17.4978C5.69126 17.4978 5.35547 17.162 5.35547 16.7478V14.5212C5.35547 12.5854 6.12472 10.7288 7.49368 9.35984L7.4939 9.35962" fill="#000000" />
<path fill-rule="evenodd" clip-rule="evenodd" d="M5.37854 7.15296C7.30831 5.22319 9.926 4.13867 12.6556 4.13867C15.0583 4.13867 17.3747 4.97835 19.2116 6.49728C19.5309 6.76124 19.5757 7.234 19.3117 7.55321C19.0477 7.87243 18.575 7.91722 18.2558 7.65326C16.6869 6.35601 14.7083 5.63867 12.6556 5.63867C10.3239 5.63867 8.0877 6.56512 6.4392 8.21362C4.79071 9.86211 3.86426 12.0983 3.86426 14.43V16.747C3.86426 17.1613 3.52847 17.497 3.11426 17.497C2.70004 17.497 2.36426 17.1613 2.36426 16.747V14.43C2.36426 11.7004 3.44878 9.08272 5.37854 7.15296Z" fill="#000000" />
</svg>