<svg width="24px"  height="24px"  viewBox="0 0 25 24" fill="none" xmlns="http://www.w3.org/2000/svg">
<path fill-rule="evenodd" clip-rule="evenodd" d="M2.86426 16.1602C2.86426 15.7459 3.20004 15.4102 3.61426 15.4102C6.47091 15.4102 8.78668 17.7259 8.78668 20.5826C8.78668 20.9968 8.4509 21.3326 8.03668 21.3326C7.62247 21.3326 7.28668 20.9968 7.28668 20.5826C7.28668 18.5544 5.64248 16.9102 3.61426 16.9102C3.20004 16.9102 2.86426 16.5744 2.86426 16.1602Z" fill="#000000" />
<path fill-rule="evenodd" clip-rule="evenodd" d="M2.86426 13.3916C2.86426 12.9774 3.20004 12.6416 3.61426 12.6416C7.99995 12.6416 11.5553 16.1969 11.5553 20.5826C11.5553 20.9968 11.2195 21.3326 10.8053 21.3326C10.391 21.3326 10.0553 20.9968 10.0553 20.5826C10.0553 17.0253 7.17153 14.1416 3.61426 14.1416C3.20004 14.1416 2.86426 13.8058 2.86426 13.3916Z" fill="#000000" />
<path fill-rule="evenodd" clip-rule="evenodd" d="M2.86426 10.5649C2.86426 10.1507 3.20004 9.81494 3.61426 9.81494C9.56118 9.81494 14.3821 14.6359 14.3821 20.5828C14.3821 20.997 14.0463 21.3328 13.6321 21.3328C13.2179 21.3328 12.8821 20.997 12.8821 20.5828C12.8821 15.4643 8.73275 11.3149 3.61426 11.3149C3.20004 11.3149 2.86426 10.9792 2.86426 10.5649Z" fill="#000000" />
<path fill-rule="evenodd" clip-rule="evenodd" d="M15.7769 2.66748C16.1911 2.66748 16.5269 3.00327 16.5269 3.41748V3.43821C16.5269 3.85243 16.1911 4.18821 15.7769 4.18821C15.3627 4.18821 15.0269 3.85243 15.0269 3.43821V3.41748C15.0269 3.00327 15.3627 2.66748 15.7769 2.66748ZM20.4422 4.58237C20.7351 4.87526 20.7351 5.35013 20.4422 5.64303L20.4127 5.67256C20.1198 5.96545 19.6449 5.96545 19.352 5.67256C19.0591 5.37967 19.0591 4.9048 19.352 4.6119L19.3816 4.58237C19.6744 4.28948 20.1493 4.28948 20.4422 4.58237ZM11.1287 4.59944C11.4216 4.30655 11.8965 4.30655 12.1894 4.59945L12.2019 4.61201C12.4948 4.90491 12.4948 5.37978 12.2019 5.67267C11.909 5.96556 11.4342 5.96556 11.1413 5.67267L11.1287 5.6601C10.8358 5.3672 10.8358 4.89233 11.1287 4.59944ZM9.18066 9.25594C9.18066 8.84173 9.51645 8.50594 9.93066 8.50594H9.96271C10.3769 8.50594 10.7127 8.84173 10.7127 9.25594C10.7127 9.67016 10.3769 10.0059 9.96271 10.0059H9.93066C9.51645 10.0059 9.18066 9.67016 9.18066 9.25594ZM20.8366 9.25594C20.8366 8.84173 21.1724 8.50594 21.5866 8.50594H21.6142C22.0285 8.50594 22.3642 8.84173 22.3642 9.25594C22.3642 9.67016 22.0285 10.0059 21.6142 10.0059H21.5866C21.1724 10.0059 20.8366 9.67016 20.8366 9.25594ZM19.352 12.8313C19.6449 12.5385 20.1198 12.5385 20.4127 12.8313L20.4422 12.8609C20.7351 13.1538 20.7351 13.6286 20.4422 13.9215C20.1493 14.2144 19.6744 14.2144 19.3816 13.9215L19.352 13.892C19.0591 13.5991 19.0591 13.1242 19.352 12.8313ZM15.7769 14.3157C16.1911 14.3157 16.5269 14.6515 16.5269 15.0657V15.0864C16.5269 15.5006 16.1911 15.8364 15.7769 15.8364C15.3627 15.8364 15.0269 15.5006 15.0269 15.0864V15.0657C15.0269 14.6515 15.3627 14.3157 15.7769 14.3157Z" fill="#000000" />
<path fill-rule="evenodd" clip-rule="evenodd" d="M15.773 6.80225C14.4216 6.80225 13.3262 7.89784 13.3262 9.24844C13.3262 10.5998 14.4217 11.6953 15.773 11.6953C17.1241 11.6953 18.2192 10.6 18.2192 9.24844C18.2192 7.89765 17.1242 6.80225 15.773 6.80225ZM11.8262 9.24844C11.8262 7.06922 13.5933 5.30225 15.773 5.30225C17.9528 5.30225 19.7192 7.06941 19.7192 9.24844C19.7192 11.428 17.9529 13.1953 15.773 13.1953C13.5932 13.1953 11.8262 11.4282 11.8262 9.24844Z" fill="#000000" />
</svg>