<svg width="24px"  height="24px"  viewBox="0 0 25 24" fill="none" xmlns="http://www.w3.org/2000/svg">
<path fill-rule="evenodd" clip-rule="evenodd" d="M2.86426 16.1602C2.86426 15.7459 3.20004 15.4102 3.61426 15.4102C6.47091 15.4102 8.78668 17.7259 8.78668 20.5826C8.78668 20.9968 8.4509 21.3326 8.03668 21.3326C7.62247 21.3326 7.28668 20.9968 7.28668 20.5826C7.28668 18.5544 5.64248 16.9102 3.61426 16.9102C3.20004 16.9102 2.86426 16.5744 2.86426 16.1602Z" fill="#000000" />
<path fill-rule="evenodd" clip-rule="evenodd" d="M2.86426 13.3916C2.86426 12.9774 3.20004 12.6416 3.61426 12.6416C7.99995 12.6416 11.5553 16.1969 11.5553 20.5826C11.5553 20.9968 11.2195 21.3326 10.8053 21.3326C10.391 21.3326 10.0553 20.9968 10.0553 20.5826C10.0553 17.0253 7.17153 14.1416 3.61426 14.1416C3.20004 14.1416 2.86426 13.8058 2.86426 13.3916Z" fill="#000000" />
<path fill-rule="evenodd" clip-rule="evenodd" d="M2.86426 10.5649C2.86426 10.1507 3.20004 9.81494 3.61426 9.81494C9.56118 9.81494 14.3821 14.6359 14.3821 20.5828C14.3821 20.997 14.0463 21.3328 13.6321 21.3328C13.2179 21.3328 12.8821 20.997 12.8821 20.5828C12.8821 15.4643 8.73275 11.3149 3.61426 11.3149C3.20004 11.3149 2.86426 10.9792 2.86426 10.5649Z" fill="#000000" />
<path fill-rule="evenodd" clip-rule="evenodd" d="M13.3273 4.06784C13.9163 3.2896 14.8632 2.66748 16.2101 2.66748C17.5569 2.66748 18.504 3.28958 19.093 4.06775C19.4782 4.57662 19.7135 5.15401 19.8245 5.67517C20.4206 5.79125 20.9714 6.05906 21.4116 6.47911C22.0185 7.05834 22.3645 7.87923 22.3645 8.84467C22.3645 10.1563 21.5858 11.2898 20.4627 11.7974C20.4528 11.8019 20.4428 11.8061 20.4327 11.8101C19.9706 11.9953 19.5124 12.0649 19.1489 12.0649H13.2677C12.9001 12.0649 12.4424 11.9909 11.9866 11.806C11.9776 11.8023 11.9687 11.7985 11.9598 11.7945C10.8387 11.2879 10.0557 10.1585 10.0557 8.84467C10.0557 7.8791 10.4018 7.0582 11.009 6.47903C11.4492 6.05903 12.0001 5.79125 12.5962 5.67516C12.7071 5.15407 12.9422 4.57672 13.3273 4.06784ZM14.5235 4.97299C14.1619 5.45082 14.0195 6.02593 14.0195 6.35864C14.0195 6.77022 13.6878 7.10491 13.2762 7.10861C12.7602 7.11326 12.3349 7.28717 12.0443 7.56438C11.7602 7.83545 11.5557 8.25143 11.5557 8.84467C11.5557 9.54261 11.9678 10.1459 12.5644 10.4216C12.8296 10.5269 13.0892 10.5649 13.2677 10.5649H19.1489C19.3311 10.5649 19.5921 10.5284 19.8596 10.4238C20.4533 10.1487 20.8645 9.54422 20.8645 8.84467C20.8645 8.2513 20.66 7.83531 20.376 7.5643C20.0856 7.28716 19.6605 7.11326 19.1445 7.10861C18.7329 7.10491 18.4012 6.77022 18.4012 6.35864C18.4012 6.02605 18.2588 5.45096 17.897 4.97308C17.5584 4.52577 17.0349 4.16748 16.2101 4.16748C15.3853 4.16748 14.8619 4.52575 14.5235 4.97299Z" fill="#000000" />
</svg>