<svg width="24px"  height="24px"  viewBox="0 0 25 24" fill="none" xmlns="http://www.w3.org/2000/svg">
<path fill-rule="evenodd" clip-rule="evenodd" d="M15.2217 7.63276C14.9288 7.33986 14.454 7.33986 14.1611 7.63275L9.16203 12.6317C8.86913 12.9246 8.86913 13.3995 9.16202 13.6924C9.45491 13.9853 9.92979 13.9853 10.2227 13.6924L15.2217 8.69342C15.5146 8.40053 15.5146 7.92565 15.2217 7.63276ZM7.53173 15.3227C7.23884 15.0298 6.76396 15.0298 6.47107 15.3227L3.39724 18.3965C3.10435 18.6894 3.10435 19.1642 3.39724 19.4571C3.69013 19.75 4.165 19.75 4.4579 19.4571L7.53172 16.3833C7.82462 16.0904 7.82462 15.6156 7.53173 15.3227Z" fill="#000000" />
<path fill-rule="evenodd" clip-rule="evenodd" d="M21.753 6.2392C21.4601 5.94631 20.9852 5.94631 20.6923 6.2392L18.0014 8.93013C17.7085 9.22302 17.7085 9.69789 18.0014 9.99079C18.2943 10.2837 18.7691 10.2837 19.062 9.99079L21.753 7.29986C22.0459 7.00697 22.0459 6.5321 21.753 6.2392ZM16.3711 11.6211C16.0782 11.3282 15.6033 11.3282 15.3104 11.6211L9.92849 17.0029C9.6356 17.2958 9.63559 17.7707 9.92849 18.0636C10.2214 18.3565 10.6963 18.3565 10.9891 18.0636L16.3711 12.6817C16.664 12.3888 16.664 11.914 16.3711 11.6211Z" fill="#000000" />
<path fill-rule="evenodd" clip-rule="evenodd" d="M14.9083 3.46577C14.6154 3.17287 14.1405 3.17287 13.8476 3.46576L8.46568 8.84762C8.17279 9.14051 8.17279 9.61538 8.46568 9.90828C8.75857 10.2012 9.23344 10.2012 9.52634 9.90828L14.9083 4.52643C15.2012 4.23354 15.2012 3.75866 14.9083 3.46577ZM6.83539 11.5386C6.54249 11.2457 6.06762 11.2457 5.77472 11.5385L3.08377 14.2295C2.79087 14.5224 2.79087 14.9972 3.08376 15.2901C3.37665 15.583 3.85153 15.583 4.14442 15.2901L6.83538 12.5992C7.12827 12.3063 7.12828 11.8314 6.83539 11.5386Z" fill="#000000" />
<path fill-rule="evenodd" clip-rule="evenodd" d="M9.8399 3.91303C9.54701 3.62014 9.07214 3.62013 8.77924 3.91303L4.40226 8.28996C4.10936 8.58285 4.10936 9.05773 4.40225 9.35062C4.69514 9.64352 5.17001 9.64352 5.46291 9.35063L9.8399 4.97369C10.1328 4.6808 10.1328 4.20593 9.8399 3.91303Z" fill="#000000" />
<path fill-rule="evenodd" clip-rule="evenodd" d="M22.1446 10.3544C21.8517 10.0615 21.3768 10.0615 21.0839 10.3544L16.7069 14.7314C16.414 15.0243 16.414 15.4991 16.7069 15.792C16.9998 16.0849 17.4747 16.0849 17.7676 15.792L22.1446 11.4151C22.4375 11.1222 22.4375 10.6473 22.1446 10.3544Z" fill="#000000" />
<path fill-rule="evenodd" clip-rule="evenodd" d="M15.2217 17.0996C14.9288 16.8067 14.454 16.8067 14.1611 17.0995L11.5668 19.6938C11.2739 19.9867 11.2739 20.4616 11.5668 20.7545C11.8597 21.0473 12.3346 21.0474 12.6275 20.7545L15.2217 18.1602C15.5146 17.8673 15.5146 17.3925 15.2217 17.0996Z" fill="#000000" />
<path fill-rule="evenodd" clip-rule="evenodd" d="M6.13092 3.24555C5.83803 2.95266 5.36315 2.95265 5.07026 3.24555L3.73516 4.58063C3.44226 4.87352 3.44226 5.34839 3.73515 5.64129C4.02804 5.93418 4.50292 5.93419 4.79581 5.6413L6.13091 4.30621C6.42381 4.01332 6.42381 3.53845 6.13092 3.24555Z" fill="#000000" />
<path fill-rule="evenodd" clip-rule="evenodd" d="M20.6231 16.3354C20.3302 16.0425 19.8553 16.0425 19.5624 16.3354L18.2273 17.6705C17.9345 17.9634 17.9344 18.4382 18.2273 18.7311C18.5202 19.024 18.9951 19.024 19.288 18.7311L20.6231 17.3961C20.916 17.1032 20.916 16.6283 20.6231 16.3354Z" fill="#000000" />
<path fill-rule="evenodd" clip-rule="evenodd" d="M19.543 3.46577C19.2501 3.17287 18.7753 3.17287 18.4824 3.46576L17.1473 4.80084C16.8544 5.09374 16.8544 5.56861 17.1473 5.8615C17.4402 6.1544 17.915 6.1544 18.2079 5.86151L19.543 4.52643C19.8359 4.23354 19.8359 3.75866 19.543 3.46577Z" fill="#000000" />
</svg>