<svg width="24px"  height="24px"  viewBox="0 0 25 24" fill="none" xmlns="http://www.w3.org/2000/svg">
<path d="M12.5907 21.7323C10.9207 21.7323 9.25074 21.3123 7.74074 20.4423C3.09074 17.7523 1.49073 11.7923 4.17073 7.13228C6.33073 3.38228 10.7707 1.5023 14.9607 2.5523C15.2507 2.6223 15.5107 2.91229 15.5607 3.20229C15.6107 3.52229 15.4707 3.84229 15.1907 4.01229C13.1107 5.31229 11.7907 7.64229 11.7507 10.1023C11.9307 10.2723 12.4207 10.5423 12.7207 10.7123C13.5407 11.1723 14.2507 11.5723 14.4207 12.2123C14.6507 13.0823 13.9107 13.6823 13.3707 14.1123C13.2707 14.1923 13.1307 14.3023 13.0307 14.4023C14.3507 16.3323 16.5007 17.5223 18.8407 17.6023C18.8407 17.6023 18.8407 17.6023 18.8507 17.6023C19.1507 17.6123 19.4607 17.8423 19.5707 18.1223C19.6807 18.4023 19.5907 18.7823 19.3807 18.9823C17.5207 20.7823 15.0607 21.7123 12.5907 21.7123V21.7323ZM12.6307 3.76229C9.74072 3.76229 6.97073 5.30228 5.48073 7.88228C3.21073 11.8223 4.56075 16.8623 8.50075 19.1423C11.2107 20.7023 14.5707 20.5623 17.1307 18.9023C14.8707 18.3823 12.8807 16.9923 11.6207 14.9823C11.0507 14.0823 11.9607 13.3523 12.4507 12.9623C12.5907 12.8523 12.7908 12.6923 12.9108 12.5623C12.7208 12.4423 12.2807 12.1923 12.0007 12.0323C11.1107 11.5323 10.2607 11.0523 10.2607 10.2523C10.2607 7.79231 11.3107 5.4323 13.0807 3.7723C12.9307 3.7723 12.7807 3.76229 12.6407 3.76229H12.6307Z" fill="#000000" />
<path d="M12.6204 21.7523C8.31044 21.7523 4.37042 18.8723 3.20042 14.5223C2.53042 12.0023 2.87042 9.38227 4.17042 7.12227C5.47042 4.86227 7.57044 3.25226 10.0904 2.58226C12.6004 1.91226 15.2304 2.25226 17.4904 3.55226C19.7504 4.85226 21.3604 6.95227 22.0304 9.47227C23.4204 14.6623 20.3304 20.0222 15.1404 21.4122C14.3004 21.6422 13.4504 21.7423 12.6204 21.7423V21.7523ZM12.6304 3.75227C11.9104 3.75227 11.1904 3.84225 10.4804 4.04225C8.35042 4.61225 6.57044 5.97225 5.47044 7.88225C4.37044 9.79225 4.08044 12.0123 4.65044 14.1423C5.83044 18.5323 10.3604 21.1523 14.7504 19.9723C19.1404 18.7923 21.7604 14.2623 20.5804 9.87227C20.0104 7.74227 18.6404 5.96226 16.7404 4.86226C15.4704 4.13226 14.0604 3.75227 12.6304 3.75227Z" fill="#000000" />
<path d="M11.3107 18.9724C11.2507 18.9724 11.1906 18.9723 11.1306 18.9523C10.7306 18.8523 10.4806 18.4523 10.5806 18.0423C11.0806 15.9923 12.6207 15.4823 13.2507 15.3523C13.6507 15.2723 14.0506 15.5324 14.1306 15.9424C14.2106 16.3524 13.9506 16.7423 13.5406 16.8223C13.0006 16.9323 12.3107 17.2823 12.0307 18.3923C11.9507 18.7323 11.6406 18.9623 11.3006 18.9623L11.3107 18.9724Z" fill="#000000" />
<path d="M8.24069 11.0627C7.89069 11.0627 7.58068 10.8227 7.51068 10.4627C7.49068 10.3727 7.4607 10.3627 7.4407 10.3627C7.3907 10.3627 7.32069 10.3627 7.27069 10.4327C7.02069 10.7627 6.5507 10.8327 6.2207 10.5827C5.8907 10.3327 5.82067 9.86268 6.07067 9.53268C6.47067 9.01268 7.13069 8.76267 7.77069 8.90267C8.38069 9.04267 8.84068 9.52265 8.98068 10.1627C9.06068 10.5727 8.80069 10.9627 8.40069 11.0527C8.35069 11.0627 8.3007 11.0727 8.2507 11.0727L8.24069 11.0627Z" fill="#000000" />
</svg>