<svg width="24px"  height="24px"  viewBox="0 0 25 24" fill="none" xmlns="http://www.w3.org/2000/svg">
<path fill-rule="evenodd" clip-rule="evenodd" d="M7.37362 6.73695C6.24988 7.10474 4.77939 7.58601 3.22475 6.64084C2.87081 6.42566 2.75833 5.9643 2.97351 5.61037C3.18869 5.25643 3.65005 5.14395 4.00399 5.35913C4.93151 5.92303 5.7724 5.68197 6.98149 5.28702C7.00586 5.27906 7.03039 5.27103 7.05509 5.26294C8.17884 4.89516 9.64934 4.41388 11.204 5.35909C12.1315 5.92301 12.9724 5.68196 14.1815 5.28701C14.2059 5.27905 14.2304 5.27102 14.2551 5.26294C15.3788 4.89515 16.8493 4.41389 18.404 5.35909C19.2611 5.88022 20.3676 5.88022 21.2247 5.35909C21.5787 5.14391 22.04 5.25638 22.2552 5.61031C22.4704 5.96425 22.3579 6.42561 22.004 6.64079C20.6681 7.45298 18.9606 7.45298 17.6247 6.64079C16.6972 6.07687 15.8563 6.31793 14.6472 6.71287C14.6229 6.72083 14.5983 6.72886 14.5736 6.73695C13.4499 7.10473 11.9794 7.586 10.4247 6.64079C9.49722 6.07687 8.65633 6.31792 7.44725 6.71287C7.42288 6.72083 7.39833 6.72887 7.37362 6.73695Z" fill="#000000" />
<path fill-rule="evenodd" clip-rule="evenodd" d="M7.37362 14.737C6.24988 15.1047 4.77939 15.586 3.22475 14.6408C2.87081 14.4257 2.75833 13.9643 2.97351 13.6104C3.18869 13.2564 3.65005 13.1439 4.00399 13.3591C4.93151 13.923 5.7724 13.682 6.98149 13.287C7.00586 13.2791 7.03039 13.271 7.05509 13.2629C8.17884 12.8952 9.64934 12.4139 11.204 13.3591C11.5579 13.5743 11.6704 14.0356 11.4552 14.3896C11.24 14.7435 10.7787 14.856 10.4247 14.6408C9.49722 14.0769 8.65633 14.3179 7.44725 14.7129C7.42288 14.7208 7.39833 14.7289 7.37362 14.737Z" fill="#000000" />
<path fill-rule="evenodd" clip-rule="evenodd" d="M7.85521 9.61048C8.0704 9.96441 7.95792 10.4258 7.60399 10.641C6.26813 11.4531 4.56062 11.4532 3.22475 10.641C2.87081 10.4258 2.75833 9.96446 2.97351 9.61053C3.18869 9.25659 3.65005 9.14411 4.00399 9.35929C4.86112 9.8804 5.9676 9.88038 6.82473 9.35926C7.17866 9.14407 7.64002 9.25655 7.85521 9.61048Z" fill="#000000" />
<path fill-rule="evenodd" clip-rule="evenodd" d="M7.37362 18.737C6.24988 19.1047 4.77939 19.586 3.22475 18.6408C2.87081 18.4257 2.75833 17.9643 2.97351 17.6104C3.18869 17.2564 3.65005 17.1439 4.00399 17.3591C4.93151 17.923 5.7724 17.682 6.98149 17.287C7.00586 17.2791 7.03039 17.271 7.05509 17.2629C8.17884 16.8952 9.64934 16.4139 11.204 17.3591C12.1315 17.923 12.9724 17.682 14.1815 17.287C14.2059 17.2791 14.2304 17.271 14.2551 17.2629C15.3788 16.8952 16.8493 16.4139 18.404 17.3591C19.2611 17.8802 20.3676 17.8802 21.2247 17.3591C21.5787 17.1439 22.04 17.2564 22.2552 17.6103C22.4704 17.9642 22.3579 18.4256 22.004 18.6408C20.6681 19.453 18.9606 19.453 17.6247 18.6408C16.6972 18.0769 15.8563 18.3179 14.6472 18.7129C14.6229 18.7208 14.5983 18.7289 14.5736 18.7369C13.4499 19.1047 11.9794 19.586 10.4247 18.6408C9.49722 18.0769 8.65633 18.3179 7.44725 18.7129C7.42288 18.7208 7.39833 18.7289 7.37362 18.737Z" fill="#000000" />
<path fill-rule="evenodd" clip-rule="evenodd" d="M17.3729 13.6105C17.5881 13.2565 18.0495 13.1441 18.4034 13.3593C19.2605 13.8804 20.367 13.8804 21.2242 13.3593C21.5781 13.1441 22.0394 13.2565 22.2546 13.6105C22.4698 13.9644 22.3573 14.4258 22.0034 14.641C20.6675 15.4532 18.96 15.4532 17.6242 14.641C17.2702 14.4258 17.1577 13.9644 17.3729 13.6105Z" fill="#000000" />
<path fill-rule="evenodd" clip-rule="evenodd" d="M17.7813 10.7129C16.5722 10.3179 15.7313 10.0769 14.8038 10.6408C14.4499 10.856 13.9885 10.7435 13.7733 10.3896C13.5581 10.0356 13.6706 9.57428 14.0245 9.35909C15.5792 8.41389 17.0497 8.89515 18.1734 9.26294C18.1981 9.27102 18.2227 9.27905 18.247 9.28701C19.4561 9.68196 20.297 9.92301 21.2245 9.35909C21.5785 9.14391 22.0398 9.25638 22.255 9.61031C22.4702 9.96425 22.3577 10.4256 22.0038 10.6408C20.4492 11.586 18.9787 11.1047 17.8549 10.7369C17.8302 10.7289 17.8057 10.7208 17.7813 10.7129Z" fill="#000000" />
</svg>