<svg width="24px"  height="24px"  viewBox="0 0 25 24" fill="none" xmlns="http://www.w3.org/2000/svg">
<path fill-rule="evenodd" clip-rule="evenodd" d="M18.453 5.40425C17.6982 5.37437 16.6555 5.84818 15.8415 7.34918C15.8355 7.36028 15.8292 7.37122 15.8226 7.382C15.8106 7.40172 15.7986 7.42152 15.7865 7.44137C15.3036 8.23371 14.7645 9.11845 14.116 9.7916C13.4358 10.4977 12.5608 11.0492 11.4163 11.009C9.99861 11.0008 8.85188 9.84907 8.85188 8.42949C8.85188 7.00883 10.0003 5.8564 11.4195 5.85C11.1167 5.56791 10.7397 5.41963 10.3496 5.40426C9.5883 5.37425 8.54142 5.84989 7.72834 7.34918C7.72232 7.36028 7.71602 7.37122 7.70946 7.382C6.08417 10.0484 4.69582 10.8755 3.7767 11.0795C3.37233 11.1693 2.97176 10.9143 2.882 10.5099C2.79223 10.1055 3.04728 9.70495 3.45165 9.61518C3.8123 9.53513 4.90766 9.09093 6.41913 6.61687C7.424 4.77539 8.92947 3.84712 10.4086 3.90542C11.904 3.96436 13.1358 5.03106 13.4859 6.65507C13.5416 6.91359 13.4571 7.18236 13.2634 7.36243C13.0697 7.54249 12.7955 7.60724 12.5417 7.53283C12.1053 7.40486 11.8992 7.34997 11.4314 7.34997C10.8352 7.34997 10.3519 7.83329 10.3519 8.42949C10.3519 9.02569 10.8352 9.509 11.4314 9.509C11.4413 9.509 11.4511 9.5092 11.461 9.50959C12.0353 9.53226 12.5271 9.27897 13.0358 8.7509C13.5596 8.20716 14.0198 7.4577 14.5322 6.61704C15.5361 4.77714 17.0363 3.847 18.5124 3.90542C20.0054 3.96452 21.2304 5.03373 21.5799 6.65507C21.6357 6.91359 21.5511 7.18236 21.3575 7.36243C21.1638 7.54249 20.8895 7.60724 20.6358 7.53283C20.1993 7.40486 19.9932 7.34997 19.5254 7.34997C18.9292 7.34997 18.4459 7.83329 18.4459 8.42949C18.4459 9.02569 18.9292 9.509 19.5254 9.509C19.5353 9.509 19.5452 9.5092 19.555 9.50959C20.1042 9.53127 20.6715 9.29808 21.1049 8.89722C21.409 8.61596 21.8835 8.63446 22.1648 8.93854C22.446 9.24262 22.4275 9.71713 22.1234 9.99839C21.4455 10.6255 20.5084 11.044 19.5104 11.009C18.0927 11.0008 16.9459 9.84908 16.9459 8.42949C16.9459 7.0079 18.0959 5.8549 19.5163 5.84999C19.2148 5.56748 18.8399 5.41956 18.453 5.40425Z" fill="#000000" />
<path fill-rule="evenodd" clip-rule="evenodd" d="M7.1246 14.8898C6.00086 15.2576 4.53037 15.7388 2.97573 14.7937C2.62179 14.5785 2.50931 14.1171 2.72449 13.7632C2.93967 13.4093 3.40103 13.2968 3.75496 13.512C4.68249 14.0759 5.52338 13.8348 6.73247 13.4398C6.75683 13.4319 6.78136 13.4239 6.80607 13.4158C7.92982 13.048 9.40032 12.5667 10.955 13.5119C11.8825 14.0758 12.7234 13.8348 13.9325 13.4398C13.9568 13.4319 13.9814 13.4239 14.0061 13.4158C15.1298 13.048 16.6003 12.5667 18.155 13.5119C19.0121 14.033 20.1186 14.033 20.9757 13.5119C21.3296 13.2967 21.791 13.4092 22.0062 13.7631C22.2214 14.1171 22.1089 14.5784 21.755 14.7936C20.4191 15.6058 18.7116 15.6058 17.3757 14.7936C16.4482 14.2297 15.6073 14.4708 14.3982 14.8657C14.3739 14.8737 14.3493 14.8817 14.3246 14.8898C13.2009 15.2576 11.7304 15.7388 10.1757 14.7936C9.2482 14.2297 8.40731 14.4708 7.19823 14.8657C7.17385 14.8737 7.14931 14.8817 7.1246 14.8898Z" fill="#000000" />
<path fill-rule="evenodd" clip-rule="evenodd" d="M7.1246 19.5841C6.00086 19.9519 4.53037 20.4332 2.97573 19.488C2.62179 19.2728 2.50931 18.8115 2.72449 18.4575C2.93967 18.1036 3.40103 17.9911 3.75496 18.2063C4.68249 18.7702 5.52338 18.5291 6.73247 18.1342C6.75683 18.1262 6.78136 18.1182 6.80607 18.1101C7.92982 17.7423 9.40032 17.2611 10.955 18.2063C11.8825 18.7702 12.7234 18.5291 13.9325 18.1342C13.9568 18.1262 13.9814 18.1182 14.0061 18.1101C15.1298 17.7423 16.6003 17.2611 18.155 18.2063C19.0121 18.7274 20.1186 18.7274 20.9757 18.2063C21.3296 17.9911 21.791 18.1035 22.0062 18.4575C22.2214 18.8114 22.1089 19.2728 21.755 19.488C20.4191 20.3002 18.7116 20.3002 17.3757 19.488C16.4482 18.924 15.6073 19.1651 14.3982 19.56C14.3739 19.568 14.3493 19.576 14.3246 19.5841C13.2009 19.9519 11.7304 20.4332 10.1757 19.488C9.2482 18.924 8.40731 19.1651 7.19823 19.56C7.17385 19.568 7.14931 19.576 7.1246 19.5841Z" fill="#000000" />
</svg>