<svg width="24px"  height="24px"  viewBox="0 0 25 24" fill="none" xmlns="http://www.w3.org/2000/svg">
<path fill-rule="evenodd" clip-rule="evenodd" d="M9.7851 2.46967C10.078 2.17678 10.5529 2.17678 10.8458 2.46967L12.6348 4.25873L14.4017 2.4919C14.6946 2.199 15.1694 2.199 15.4623 2.4919C15.7552 2.78479 15.7552 3.25966 15.4623 3.55256L13.1652 5.84972C13.0245 5.99038 12.8337 6.06939 12.6348 6.06939C12.4359 6.06939 12.2451 5.99038 12.1045 5.84972L9.7851 3.53033C9.49221 3.23744 9.49221 2.76256 9.7851 2.46967Z" fill="#000000" />
<path fill-rule="evenodd" clip-rule="evenodd" d="M12.1046 18.1522C12.3975 17.8594 12.8722 17.8594 13.165 18.1522L15.4622 20.4484C15.7552 20.7412 15.7553 21.2161 15.4624 21.509C15.1696 21.802 14.6947 21.8021 14.4018 21.5093L12.6348 19.7431L10.8456 21.5315C10.5527 21.8243 10.0778 21.8242 9.78499 21.5313C9.49216 21.2383 9.49226 20.7634 9.78521 20.4706L12.1046 18.1522Z" fill="#000000" />
<path fill-rule="evenodd" clip-rule="evenodd" d="M19.4607 4.77431C19.8608 4.8816 20.0982 5.29289 19.9909 5.69297L19.3357 8.13633L21.749 8.78296C22.1491 8.89016 22.3866 9.30141 22.2794 9.70151C22.1722 10.1016 21.7609 10.3391 21.3608 10.2319L18.2229 9.39107C18.0307 9.33958 17.8669 9.21386 17.7674 9.04157C17.668 8.86927 17.6411 8.66452 17.6926 8.47237L18.5421 5.30447C18.6493 4.90439 19.0606 4.66703 19.4607 4.77431Z" fill="#000000" />
<path fill-rule="evenodd" clip-rule="evenodd" d="M2.95027 14.3101C3.05741 13.91 3.46862 13.6725 3.86874 13.7796L7.03761 14.6281C7.22977 14.6796 7.39362 14.8053 7.4931 14.9775C7.59258 15.1498 7.61955 15.3546 7.56806 15.5467L6.72728 18.6847C6.62008 19.0848 6.20883 19.3222 5.80873 19.215C5.40863 19.1078 5.17119 18.6965 5.27839 18.2964L5.92503 15.8831L3.48076 15.2286C3.08064 15.1214 2.84313 14.7102 2.95027 14.3101Z" fill="#000000" />
<path fill-rule="evenodd" clip-rule="evenodd" d="M19.0575 8.28574C19.2646 8.64444 19.1417 9.10314 18.783 9.31027L15.8856 10.9833C15.5269 11.1904 15.0682 11.0675 14.8611 10.7088C14.654 10.3501 14.7769 9.89139 15.1356 9.68427L18.0329 8.01127C18.3916 7.80414 18.8503 7.92703 19.0575 8.28574ZM10.3543 13.3112C10.5614 13.6699 10.4385 14.1286 10.0798 14.3357L7.21793 15.9882C6.85922 16.1953 6.40053 16.0724 6.1934 15.7137C5.98627 15.355 6.10916 14.8963 6.46786 14.6892L9.32972 13.0367C9.68843 12.8296 10.1471 12.9524 10.3543 13.3112Z" fill="#000000" />
<path fill-rule="evenodd" clip-rule="evenodd" d="M12.625 4.57275C13.0392 4.57273 13.375 4.9085 13.375 5.32271L13.3752 8.6684C13.3752 9.08261 13.0394 9.41841 12.6252 9.41844C12.211 9.41846 11.8752 9.08269 11.8752 8.66848L11.875 5.32279C11.875 4.90858 12.2107 4.57278 12.625 4.57275ZM12.6255 14.6227C13.0397 14.6226 13.3755 14.9584 13.3755 15.3726L13.3757 18.6773C13.3757 19.0915 13.04 19.4273 12.6258 19.4274C12.2115 19.4274 11.8757 19.0916 11.8757 18.6774L11.8755 15.3727C11.8755 14.9585 12.2113 14.6227 12.6255 14.6227Z" fill="#000000" />
<path fill-rule="evenodd" clip-rule="evenodd" d="M19.0572 15.7138C19.2644 15.3551 19.1415 14.8964 18.7828 14.6892L15.8854 13.0162C15.5267 12.8091 15.068 12.932 14.8609 13.2907C14.6537 13.6494 14.7766 14.1081 15.1353 14.3152L18.0327 15.9882C18.3914 16.1954 18.8501 16.0725 19.0572 15.7138ZM10.354 10.6884C10.5611 10.3296 10.4383 9.87095 10.0795 9.66382L7.21769 8.01132C6.85898 7.8042 6.40028 7.92708 6.19316 8.28579C5.98603 8.6445 6.10891 9.1032 6.46762 9.31032L9.32948 10.9628C9.68819 11.1699 10.1469 11.0471 10.354 10.6884Z" fill="#000000" />
<path fill-rule="evenodd" clip-rule="evenodd" d="M22.2794 14.2865C22.3866 14.6866 22.1491 15.0979 21.749 15.2051L19.3357 15.8517L19.9909 18.2951C20.0982 18.6952 19.8608 19.1065 19.4607 19.2137C19.0606 19.321 18.6493 19.0837 18.5421 18.6836L17.6926 15.5157C17.6411 15.3235 17.668 15.1188 17.7674 14.9465C17.8669 14.7742 18.0307 14.6485 18.2229 14.597L21.3608 13.7562C21.7609 13.649 22.1722 13.8864 22.2794 14.2865Z" fill="#000000" />
<path fill-rule="evenodd" clip-rule="evenodd" d="M5.80873 4.77428C6.20883 4.66707 6.62008 4.90451 6.72728 5.30461L7.56806 8.44256C7.61955 8.63471 7.59258 8.83945 7.4931 9.01173C7.39362 9.184 7.22977 9.30969 7.03761 9.36114L3.86874 10.2097C3.46862 10.3168 3.05741 10.0793 2.95027 9.67917C2.84313 9.27905 3.08064 8.86784 3.48076 8.7607L5.92503 8.10621L5.27839 5.69283C5.17119 5.29273 5.40863 4.88148 5.80873 4.77428Z" fill="#000000" />
<path fill-rule="evenodd" clip-rule="evenodd" d="M12.6143 9.46973C11.2168 9.46973 10.084 10.6026 10.084 12C10.084 13.3974 11.2168 14.5303 12.6143 14.5303C14.0117 14.5303 15.1445 13.3974 15.1445 12C15.1445 10.6026 14.0117 9.46973 12.6143 9.46973ZM8.58398 12C8.58398 9.77414 10.3884 7.96973 12.6143 7.96973C14.8401 7.96973 16.6445 9.77414 16.6445 12C16.6445 14.2259 14.8401 16.0303 12.6143 16.0303C10.3884 16.0303 8.58398 14.2259 8.58398 12Z" fill="#000000" />
</svg>