<svg width="24px"  height="24px"  viewBox="0 0 25 24" fill="none" xmlns="http://www.w3.org/2000/svg">
<path fill-rule="evenodd" clip-rule="evenodd" d="M9.91584 2.46979C10.2087 2.17683 10.6835 2.17672 10.9765 2.46955L12.6255 4.11783L14.2526 2.49074C14.5455 2.19784 15.0204 2.19784 15.3133 2.49074C15.6061 2.78363 15.6061 3.2585 15.3133 3.5514L13.1559 5.7087C12.8631 6.00155 12.3883 6.0016 12.0954 5.70882L9.91608 3.53045C9.62312 3.23762 9.62301 2.76274 9.91584 2.46979Z" fill="#000000" />
<path fill-rule="evenodd" clip-rule="evenodd" d="M12.0954 18.2928C12.3883 18 12.8631 18.0001 13.1559 18.2929L15.3133 20.4502C15.6061 20.7431 15.6061 21.218 15.3133 21.5109C15.0204 21.8038 14.5455 21.8038 14.2526 21.5109L12.6255 19.8838L10.9765 21.5321C10.6835 21.8249 10.2087 21.8248 9.91584 21.5318C9.62301 21.2389 9.62312 20.764 9.91608 20.4712L12.0954 18.2928Z" fill="#000000" />
<path fill-rule="evenodd" clip-rule="evenodd" d="M19.4179 4.80238C19.8194 4.90396 20.0626 5.31184 19.961 5.71341L19.3894 7.97296L21.6203 8.53772C22.0219 8.63938 22.265 9.0473 22.1633 9.44885C22.0617 9.85039 21.6537 10.0935 21.2522 9.99185L18.2944 9.24306C17.8929 9.14142 17.6498 8.73358 17.7514 8.33207L18.5068 5.34555C18.6084 4.94398 19.0163 4.7008 19.4179 4.80238Z" fill="#000000" />
<path fill-rule="evenodd" clip-rule="evenodd" d="M3.04731 14.5602C3.14901 14.1586 3.55696 13.9156 3.9585 14.0173L6.94502 14.7737C7.34644 14.8754 7.58949 15.2831 7.48799 15.6846L6.74017 18.6424C6.63863 19.044 6.23078 19.2872 5.82921 19.1857C5.42763 19.0842 5.18439 18.6763 5.28593 18.2747L5.84999 16.0437L3.5902 15.4714C3.18867 15.3697 2.9456 14.9617 3.04731 14.5602Z" fill="#000000" />
<path fill-rule="evenodd" clip-rule="evenodd" d="M22.1974 14.4765C22.3027 14.8771 22.0633 15.2872 21.6627 15.3925L19.4084 15.9851L19.9941 18.2107C20.0995 18.6112 19.8602 19.0214 19.4596 19.1268C19.059 19.2322 18.6488 18.993 18.5434 18.5924L17.7669 15.6413C17.7163 15.4489 17.7441 15.2443 17.8444 15.0724C17.9447 14.9006 18.1091 14.7756 18.3015 14.7251L21.2813 13.9418C21.682 13.8365 22.0921 14.0759 22.1974 14.4765Z" fill="#000000" />
<path fill-rule="evenodd" clip-rule="evenodd" d="M5.73278 4.86961C6.13335 4.76419 6.54354 5.00346 6.64896 5.40403L7.43318 8.38385C7.4838 8.57622 7.45593 8.78082 7.35571 8.95264C7.25548 9.12446 7.0911 9.24942 6.89873 9.30004L3.94763 10.0766C3.54706 10.182 3.13688 9.94272 3.03147 9.54215C2.92606 9.14157 3.16534 8.73139 3.56592 8.62598L5.79168 8.04029L5.19836 5.78579C5.09293 5.38522 5.3322 4.97503 5.73278 4.86961Z" fill="#000000" />
<path fill-rule="evenodd" clip-rule="evenodd" d="M12.6151 9.84326C11.4247 9.84326 10.46 10.8086 10.46 11.9984C10.46 13.189 11.4245 14.1535 12.6151 14.1535C13.8057 14.1535 14.7702 13.189 14.7702 11.9984C14.7702 10.8086 13.8055 9.84326 12.6151 9.84326ZM8.95996 11.9984C8.95996 9.98049 10.5959 8.34326 12.6151 8.34326C14.6343 8.34326 16.2702 9.98049 16.2702 11.9984C16.2702 14.0174 14.6341 15.6535 12.6151 15.6535C10.5961 15.6535 8.95996 14.0174 8.95996 11.9984Z" fill="#000000" />
</svg>