<svg width="24px"  height="24px"  viewBox="0 0 25 24" fill="none" xmlns="http://www.w3.org/2000/svg">
<path fill-rule="evenodd" clip-rule="evenodd" d="M9.97065 3.67133C10.2635 3.37844 10.7384 3.37844 11.0313 3.67133L12.6357 5.2757L14.2196 3.69176C14.5125 3.39887 14.9874 3.39887 15.2803 3.69176C15.5732 3.98466 15.5732 4.45953 15.2803 4.75242L13.166 6.86669C12.8731 7.15959 12.3982 7.15959 12.1053 6.86669L9.97065 4.73199C9.67775 4.4391 9.67775 3.96422 9.97065 3.67133Z" fill="#000000" />
<path fill-rule="evenodd" clip-rule="evenodd" d="M12.1053 17.1337C12.3982 16.8408 12.8731 16.8408 13.166 17.1337L15.2803 19.248C15.5732 19.5409 15.5732 20.0158 15.2803 20.3087C14.9874 20.6016 14.5125 20.6016 14.2196 20.3087L12.6357 18.7247L11.0313 20.3291C10.7384 20.622 10.2635 20.622 9.97065 20.3291C9.67775 20.0362 9.67775 19.5613 9.97065 19.2684L12.1053 17.1337Z" fill="#000000" />
<path fill-rule="evenodd" clip-rule="evenodd" d="M12.6243 2.25C13.0385 2.25 13.3743 2.58579 13.3743 3V21C13.3743 21.4142 13.0385 21.75 12.6243 21.75C12.2101 21.75 11.8743 21.4142 11.8743 21V3C11.8743 2.58579 12.2101 2.25 12.6243 2.25Z" fill="#000000" />
<path fill-rule="evenodd" clip-rule="evenodd" d="M20.9532 9.34516C21.2461 9.63805 21.2461 10.1129 20.9532 10.4058L19.3488 12.0102L20.9327 13.5941C21.2256 13.887 21.2256 14.3619 20.9327 14.6548C20.6399 14.9477 20.165 14.9477 19.8721 14.6548L17.7578 12.5405C17.4649 12.2476 17.4649 11.7728 17.7578 11.4799L19.8925 9.34516C20.1854 9.05226 20.6603 9.05226 20.9532 9.34516Z" fill="#000000" />
<path fill-rule="evenodd" clip-rule="evenodd" d="M7.49127 11.4799C7.78416 11.7728 7.78416 12.2476 7.49127 12.5405L5.377 14.6548C5.0841 14.9477 4.60923 14.9477 4.31634 14.6548C4.02344 14.3619 4.02344 13.887 4.31634 13.5941L5.90028 12.0102L4.2959 10.4058C4.00301 10.1129 4.00301 9.63805 4.2959 9.34516C4.5888 9.05226 5.06367 9.05226 5.35656 9.34516L7.49127 11.4799Z" fill="#000000" />
<path fill-rule="evenodd" clip-rule="evenodd" d="M22.375 11.9985C22.375 12.4127 22.0392 12.7485 21.625 12.7485L3.625 12.7485C3.21079 12.7485 2.875 12.4127 2.875 11.9985C2.875 11.5843 3.21079 11.2485 3.625 11.2485L21.625 11.2485C22.0392 11.2485 22.375 11.5843 22.375 11.9985Z" fill="#000000" />
<path fill-rule="evenodd" clip-rule="evenodd" d="M17.2441 7.37934C17.537 7.67223 17.537 8.1471 17.2441 8.44L9.06549 16.6187C8.77259 16.9116 8.29772 16.9116 8.00483 16.6187C7.71193 16.3258 7.71193 15.8509 8.00483 15.558L16.1835 7.37934C16.4764 7.08644 16.9513 7.08644 17.2441 7.37934Z" fill="#000000" />
<path fill-rule="evenodd" clip-rule="evenodd" d="M8.00605 7.37934C8.29894 7.08644 8.77381 7.08644 9.06671 7.37934L17.2454 15.558C17.5383 15.8509 17.5383 16.3258 17.2454 16.6187C16.9525 16.9116 16.4776 16.9116 16.1847 16.6187L8.00605 8.44C7.71315 8.1471 7.71315 7.67223 8.00605 7.37934Z" fill="#000000" />
</svg>