<svg width="24px"  height="24px"  viewBox="0 0 25 24" fill="none" xmlns="http://www.w3.org/2000/svg">
<path fill-rule="evenodd" clip-rule="evenodd" d="M11.7412 11.9214C12.1305 11.7797 12.5608 11.9804 12.7025 12.3697L13.7821 15.3359L15.811 12.9179C16.0773 12.6006 16.5504 12.5593 16.8677 12.8255C17.185 13.0918 17.2264 13.5648 16.9601 13.8821L14.9313 16.3L18.0395 16.8481C18.4475 16.92 18.7198 17.309 18.6479 17.7169C18.576 18.1248 18.187 18.3972 17.7791 18.3253L14.6707 17.7772L15.7502 20.7433C15.8919 21.1325 15.6912 21.5629 15.302 21.7046C14.9128 21.8462 14.4824 21.6455 14.3407 21.2563L13.2612 18.2903L11.2322 20.7084C10.966 21.0257 10.4929 21.067 10.1756 20.8008C9.85829 20.5345 9.8169 20.0615 10.0832 19.7442L12.1122 17.3261L9.00343 16.7779C8.59551 16.706 8.32314 16.317 8.39506 15.9091C8.46699 15.5011 8.85599 15.2288 9.26391 15.3007L12.3725 15.8488L11.293 12.8827C11.1513 12.4935 11.352 12.0631 11.7412 11.9214Z" fill="#000000" />
<path fill-rule="evenodd" clip-rule="evenodd" d="M15.8099 2.29543C16.1991 2.15377 16.6295 2.35446 16.7711 2.74369L17.6517 5.16302L19.3065 3.19093C19.5727 2.87363 20.0458 2.83224 20.3631 3.09849C20.6804 3.36474 20.7218 3.83781 20.4556 4.15512L18.8007 6.12724L21.3361 6.57429C21.744 6.64622 22.0164 7.03521 21.9445 7.44313C21.8725 7.85105 21.4836 8.12343 21.0756 8.0515L18.5403 7.60446L19.4209 10.0237C19.5625 10.413 19.3618 10.8434 18.9726 10.985C18.5834 11.1267 18.153 10.926 18.0113 10.5368L17.1308 8.11745L15.4757 10.0899C15.2095 10.4072 14.7364 10.4486 14.4191 10.1823C14.1018 9.91606 14.0604 9.44299 14.3266 9.12569L15.9817 7.1533L13.4461 6.7062C13.0381 6.63428 12.7658 6.24528 12.8377 5.83736C12.9096 5.42944 13.2986 5.15706 13.7065 5.22899L16.2422 5.67609L15.3616 3.25672C15.2199 2.86749 15.4206 2.4371 15.8099 2.29543Z" fill="#000000" />
<path fill-rule="evenodd" clip-rule="evenodd" d="M5.64551 5.64114C6.03474 5.49947 6.46512 5.70016 6.60679 6.08939L7.16252 7.61625L8.20685 6.37167C8.4731 6.05437 8.94617 6.01298 9.26348 6.27923C9.58078 6.54548 9.62217 7.01855 9.35592 7.33585L8.31151 8.58053L9.9117 8.86268C10.3196 8.93461 10.592 9.32361 10.5201 9.73153C10.4481 10.1394 10.0591 10.4118 9.65123 10.3399L8.05116 10.0578L8.60691 11.5847C8.74858 11.9739 8.54789 12.4043 8.15866 12.546C7.76942 12.6876 7.33904 12.4869 7.19737 12.0977L6.64158 10.5707L5.59692 11.8157C5.33067 12.133 4.8576 12.1743 4.5403 11.9081C4.22299 11.6418 4.1816 11.1688 4.44785 10.8515L5.49243 9.60659L3.89211 9.32441C3.48419 9.25248 3.21181 8.86349 3.28374 8.45557C3.35566 8.04765 3.74466 7.77527 4.15258 7.8472L5.75303 8.1294L5.19725 6.60242C5.05558 6.21319 5.25627 5.78281 5.64551 5.64114Z" fill="#000000" />
</svg>