<svg width="24px"  height="24px"  viewBox="0 0 25 24" fill="none" xmlns="http://www.w3.org/2000/svg">
<path fill-rule="evenodd" clip-rule="evenodd" d="M9.633 2.46967C9.92589 2.17678 10.4008 2.17678 10.6937 2.46967L12.6269 4.40293L14.5366 2.49325C14.8295 2.20036 15.3044 2.20036 15.5973 2.49325C15.8901 2.78614 15.8901 3.26102 15.5973 3.55391L13.1572 5.99392C13.0166 6.13457 12.8258 6.21359 12.6269 6.21359C12.428 6.21359 12.2372 6.13457 12.0966 5.99392L9.633 3.53033C9.34011 3.23744 9.34011 2.76256 9.633 2.46967Z" fill="#000000" />
<path fill-rule="evenodd" clip-rule="evenodd" d="M12.6269 17.7861C12.8258 17.7861 13.0166 17.8652 13.1572 18.0058L15.5973 20.4458C15.8901 20.7387 15.8901 21.2136 15.5973 21.5065C15.3044 21.7994 14.8295 21.7994 14.5366 21.5065L12.6269 19.5968L10.6937 21.53C10.4008 21.8229 9.92589 21.8229 9.633 21.53C9.34011 21.2372 9.34011 20.7623 9.633 20.4694L12.0966 18.0058C12.2372 17.8652 12.428 17.7861 12.6269 17.7861Z" fill="#000000" />
<path fill-rule="evenodd" clip-rule="evenodd" d="M12.6133 4.3252C13.0275 4.3252 13.3633 4.66098 13.3633 5.0752V18.924C13.3633 19.3382 13.0275 19.674 12.6133 19.674C12.1991 19.674 11.8633 19.3382 11.8633 18.924V5.0752C11.8633 4.66098 12.1991 4.3252 12.6133 4.3252Z" fill="#000000" />
<path fill-rule="evenodd" clip-rule="evenodd" d="M22.1448 9.01752C22.4377 9.31041 22.4377 9.78529 22.1448 10.0782L20.2116 12.0114L22.1213 13.9211C22.4141 14.214 22.4141 14.6889 22.1213 14.9818C21.8284 15.2747 21.3535 15.2747 21.0606 14.9818L18.6206 12.5418C18.4799 12.4011 18.4009 12.2103 18.4009 12.0114C18.4009 11.8125 18.4799 11.6218 18.6206 11.4811L21.0842 9.01752C21.3771 8.72463 21.8519 8.72463 22.1448 9.01752Z" fill="#000000" />
<path fill-rule="evenodd" clip-rule="evenodd" d="M6.82812 12.0114C6.82812 12.2103 6.74911 12.4011 6.60845 12.5418L4.16845 14.9818C3.87556 15.2747 3.40068 15.2747 3.10779 14.9818C2.8149 14.6889 2.8149 14.214 3.10779 13.9211L5.01746 12.0114L3.08421 10.0782C2.79132 9.78529 2.79132 9.31041 3.08421 9.01752C3.3771 8.72463 3.85198 8.72463 4.14487 9.01752L6.60845 11.4811C6.74911 11.6218 6.82812 11.8125 6.82812 12.0114Z" fill="#000000" />
<path fill-rule="evenodd" clip-rule="evenodd" d="M20.2891 11.9985C20.2891 12.4127 19.9533 12.7485 19.5391 12.7485L5.69028 12.7485C5.27607 12.7485 4.94028 12.4127 4.94028 11.9985C4.94029 11.5843 5.27607 11.2485 5.69029 11.2485L19.5391 11.2485C19.9533 11.2485 20.2891 11.5843 20.2891 11.9985Z" fill="#000000" />
<path fill-rule="evenodd" clip-rule="evenodd" d="M18.6243 5.9898C18.9172 6.2827 19.3921 6.2827 19.685 5.9898L19.6931 5.98164C19.986 5.68875 19.986 5.21388 19.6931 4.92098C19.4003 4.62809 18.9254 4.62809 18.6325 4.92098L18.6243 4.92914C18.3314 5.22204 18.3314 5.69691 18.6243 5.9898Z" fill="#000000" />
<path fill-rule="evenodd" clip-rule="evenodd" d="M18.6243 19.0626C18.9172 19.3554 19.3921 19.3554 19.685 19.0626L19.6931 19.0544C19.986 18.7615 19.986 18.2866 19.6931 17.9937C19.4003 17.7008 18.9254 17.7008 18.6325 17.9937L18.6243 18.0019C18.3314 18.2948 18.3314 18.7697 18.6243 19.0626Z" fill="#000000" />
<path fill-rule="evenodd" clip-rule="evenodd" d="M5.53546 5.9898C5.82835 6.2827 6.30322 6.2827 6.59612 5.9898L6.60428 5.98164C6.89717 5.68875 6.89717 5.21388 6.60428 4.92098C6.31138 4.62809 5.83651 4.62809 5.54362 4.92098L5.53546 4.92914C5.24256 5.22204 5.24256 5.69691 5.53546 5.9898Z" fill="#000000" />
<path fill-rule="evenodd" clip-rule="evenodd" d="M5.53546 19.0626C5.82835 19.3554 6.30322 19.3554 6.59612 19.0626L6.60428 19.0544C6.89717 18.7615 6.89717 18.2866 6.60428 17.9937C6.31138 17.7008 5.83651 17.7008 5.54362 17.9937L5.53546 18.0019C5.24256 18.2948 5.24256 18.7697 5.53546 19.0626Z" fill="#000000" />
<path fill-rule="evenodd" clip-rule="evenodd" d="M7.89962 7.28266C8.19252 6.98976 8.66739 6.98976 8.96028 7.28266L12.6153 10.9377L16.2703 7.28266C16.5632 6.98976 17.038 6.98976 17.3309 7.28266C17.6238 7.57555 17.6238 8.05043 17.3309 8.34332L13.6759 11.9983L17.3319 15.6543C17.6248 15.9472 17.6248 16.4221 17.3319 16.715C17.039 17.0079 16.5642 17.0079 16.2713 16.715L12.6153 13.059L8.95929 16.715C8.66639 17.0079 8.19152 17.0079 7.89863 16.715C7.60573 16.4221 7.60573 15.9472 7.89863 15.6543L11.5546 11.9983L7.89962 8.34332C7.60673 8.05043 7.60673 7.57555 7.89962 7.28266Z" fill="#000000" />
</svg>