<svg width="24px"  height="24px"  viewBox="0 0 25 24" fill="none" xmlns="http://www.w3.org/2000/svg">
<path fill-rule="evenodd" clip-rule="evenodd" d="M12.6143 2.25C13.0285 2.25 13.3643 2.58579 13.3643 3V21C13.3643 21.4142 13.0285 21.75 12.6143 21.75C12.2 21.75 11.8643 21.4142 11.8643 21V3C11.8643 2.58579 12.2 2.25 12.6143 2.25Z" fill="#000000" />
<path fill-rule="evenodd" clip-rule="evenodd" d="M9.58393 4.25922C9.87683 3.96632 10.3517 3.96633 10.6446 4.25923L12.6142 6.22889L14.5839 4.25922C14.8768 3.96633 15.3516 3.96633 15.6445 4.25922C15.9374 4.55211 15.9374 5.02699 15.6445 5.31988L13.1445 7.81988C13.0039 7.96053 12.8131 8.03955 12.6142 8.03955C12.4153 8.03955 12.2245 7.96053 12.0839 7.81988L9.58392 5.31988C9.29103 5.02698 9.29104 4.55211 9.58393 4.25922Z" fill="#000000" />
<path fill-rule="evenodd" clip-rule="evenodd" d="M9.41987 19.7408C9.71277 20.0337 10.1876 20.0337 10.4805 19.7408L12.6146 17.6067L14.7487 19.7408C15.0416 20.0337 15.5165 20.0337 15.8093 19.7408C16.1022 19.4479 16.1022 18.973 15.8093 18.6801L13.1449 16.0157C13.0043 15.875 12.8135 15.796 12.6146 15.796C12.4157 15.796 12.2249 15.875 12.0842 16.0157L9.41986 18.6801C9.12697 18.973 9.12697 19.4479 9.41987 19.7408Z" fill="#000000" />
<path fill-rule="evenodd" clip-rule="evenodd" d="M21.0576 7.12511C21.2647 7.48382 21.1418 7.94252 20.7831 8.14962L5.19464 17.1496C4.83592 17.3567 4.37723 17.2338 4.17012 16.8751C3.96301 16.5164 4.08592 16.0577 4.44464 15.8506L20.0331 6.85059C20.3918 6.64348 20.8505 6.76639 21.0576 7.12511Z" fill="#000000" />
<path fill-rule="evenodd" clip-rule="evenodd" d="M17.8024 5.50515C18.2025 5.61237 18.4399 6.02362 18.3327 6.42372L17.6118 9.11429L20.3024 9.83523C20.7025 9.94244 20.9399 10.3537 20.8327 10.7538C20.7255 11.1539 20.3143 11.3913 19.9142 11.2841L16.4991 10.3691C16.307 10.3176 16.1431 10.1919 16.0437 10.0196C15.9442 9.84735 15.9173 9.64263 15.9688 9.45049L16.8839 6.03548C16.9911 5.63538 17.4023 5.39794 17.8024 5.50515Z" fill="#000000" />
<path fill-rule="evenodd" clip-rule="evenodd" d="M4.31374 13.1038C4.20654 13.504 4.44398 13.9152 4.84408 14.0224L7.75929 14.8035L6.97816 17.7187C6.87095 18.1188 7.10839 18.5301 7.50849 18.6373C7.90859 18.7445 8.31984 18.5071 8.42705 18.107L9.4023 14.4673C9.45378 14.2751 9.42683 14.0704 9.32737 13.8982C9.22792 13.7259 9.0641 13.6002 8.87196 13.5487L5.2323 12.5735C4.8322 12.4663 4.42095 12.7037 4.31374 13.1038Z" fill="#000000" />
<path fill-rule="evenodd" clip-rule="evenodd" d="M21.0576 16.8749C21.2647 16.5162 21.1418 16.0575 20.7831 15.8504L5.19464 6.85038C4.83592 6.64327 4.37723 6.76618 4.17012 7.1249C3.96301 7.48362 4.08592 7.94231 4.44464 8.14941L20.0331 17.1494C20.3918 17.3565 20.8505 17.2336 21.0576 16.8749Z" fill="#000000" />
<path fill-rule="evenodd" clip-rule="evenodd" d="M17.8024 18.4948C18.2025 18.3876 18.4399 17.9764 18.3327 17.5763L17.6118 14.8857L20.3024 14.1648C20.7025 14.0576 20.9399 13.6463 20.8327 13.2462C20.7255 12.8461 20.3143 12.6087 19.9142 12.7159L16.4991 13.6309C16.307 13.6824 16.1431 13.8081 16.0437 13.9804C15.9442 14.1527 15.9173 14.3574 15.9688 14.5495L16.8839 17.9645C16.9911 18.3646 17.4023 18.6021 17.8024 18.4948Z" fill="#000000" />
<path fill-rule="evenodd" clip-rule="evenodd" d="M4.31374 10.8962C4.20654 10.496 4.44398 10.0848 4.84408 9.9776L7.75929 9.1965L6.97816 6.28126C6.87095 5.88116 7.10839 5.46991 7.50849 5.3627C7.90859 5.2555 8.31984 5.49293 8.42705 5.89303L9.4023 9.53272C9.45378 9.72486 9.42683 9.92958 9.32737 10.1018C9.22792 10.2741 9.0641 10.3998 8.87196 10.4513L5.2323 11.4265C4.8322 11.5337 4.42095 11.2963 4.31374 10.8962Z" fill="#000000" />
</svg>