<svg width="24px"  height="24px"  viewBox="0 0 25 24" fill="none" xmlns="http://www.w3.org/2000/svg">
<path fill-rule="evenodd" clip-rule="evenodd" d="M9.97065 3.67133C10.2635 3.37844 10.7384 3.37844 11.0313 3.67133L12.6357 5.2757L14.2196 3.69176C14.5125 3.39887 14.9874 3.39887 15.2803 3.69176C15.5732 3.98466 15.5732 4.45953 15.2803 4.75242L13.166 6.86669C12.8731 7.15959 12.3982 7.15959 12.1053 6.86669L9.97065 4.73199C9.67775 4.4391 9.67775 3.96422 9.97065 3.67133Z" fill="#000000" />
<path fill-rule="evenodd" clip-rule="evenodd" d="M12.1053 17.1337C12.3982 16.8408 12.8731 16.8408 13.166 17.1337L15.2803 19.248C15.5732 19.5409 15.5732 20.0158 15.2803 20.3087C14.9874 20.6016 14.5125 20.6016 14.2196 20.3087L12.6357 18.7247L11.0313 20.3291C10.7384 20.622 10.2635 20.622 9.97065 20.3291C9.67775 20.0362 9.67775 19.5613 9.97065 19.2684L12.1053 17.1337Z" fill="#000000" />
<path fill-rule="evenodd" clip-rule="evenodd" d="M12.624 2.25C13.0382 2.25 13.374 2.58579 13.374 3V21C13.374 21.4142 13.0382 21.75 12.624 21.75C12.2098 21.75 11.874 21.4142 11.874 21V3C11.874 2.58579 12.2098 2.25 12.624 2.25Z" fill="#000000" />
<path fill-rule="evenodd" clip-rule="evenodd" d="M18.4834 5.51079C18.884 5.61637 19.1231 6.02665 19.0175 6.42718L18.439 8.62205L20.6047 9.19355C21.0052 9.29924 21.2442 9.70959 21.1385 10.1101C21.0328 10.5106 20.6225 10.7496 20.222 10.6439L17.3313 9.88109C16.9309 9.77543 16.6919 9.36521 16.7974 8.96476L17.567 6.04487C17.6726 5.64433 18.0829 5.40522 18.4834 5.51079Z" fill="#000000" />
<path fill-rule="evenodd" clip-rule="evenodd" d="M4.09038 13.8984C4.19596 13.4979 4.60624 13.2587 5.00677 13.3643L7.92666 14.1339C8.11903 14.1846 8.28337 14.3097 8.38353 14.4816C8.48368 14.6535 8.51144 14.8581 8.4607 15.0505L7.69789 17.9421C7.59223 18.3427 7.18191 18.5817 6.78139 18.476C6.38088 18.3704 6.14185 17.96 6.2475 17.5595L6.81897 15.3932L4.62446 14.8148C4.22392 14.7092 3.98481 14.2989 4.09038 13.8984Z" fill="#000000" />
<path fill-rule="evenodd" clip-rule="evenodd" d="M21.0478 7.09088C21.2563 7.4488 21.1352 7.90796 20.7773 8.11645L5.22333 17.1768C4.86541 17.3853 4.40625 17.2641 4.19776 16.9062C3.98927 16.5483 4.1104 16.0891 4.46832 15.8806L20.0223 6.82032C20.3802 6.61183 20.8393 6.73296 21.0478 7.09088Z" fill="#000000" />
<path fill-rule="evenodd" clip-rule="evenodd" d="M6.74554 5.51079C7.14607 5.40522 7.55635 5.64433 7.66193 6.04487L8.43155 8.96476C8.5371 9.36521 8.2981 9.77543 7.89768 9.88109L5.00698 10.6439C4.60647 10.7496 4.19612 10.5106 4.09044 10.1101C3.98475 9.70959 4.22375 9.29924 4.62425 9.19355L6.78999 8.62205L6.21146 6.42718C6.10589 6.02665 6.34501 5.61637 6.74554 5.51079Z" fill="#000000" />
<path fill-rule="evenodd" clip-rule="evenodd" d="M21.1373 13.8984C21.2429 14.2989 21.0038 14.7092 20.6032 14.8148L18.4087 15.3932L18.9802 17.5595C19.0858 17.96 18.8468 18.3704 18.4463 18.476C18.0458 18.5817 17.6355 18.3427 17.5298 17.9421L16.767 15.0505C16.7163 14.8581 16.744 14.6535 16.8442 14.4816C16.9443 14.3097 17.1087 14.1846 17.301 14.1339L20.2209 13.3643C20.6215 13.2587 21.0317 13.4979 21.1373 13.8984Z" fill="#000000" />
<path fill-rule="evenodd" clip-rule="evenodd" d="M4.18067 7.09088C4.38916 6.73296 4.84832 6.61183 5.20624 6.82032L20.7602 15.8806C21.1181 16.0891 21.2392 16.5483 21.0307 16.9062C20.8223 17.2641 20.3631 17.3853 20.0052 17.1768L4.45123 8.11645C4.09331 7.90796 3.97218 7.4488 4.18067 7.09088Z" fill="#000000" />
</svg>