<svg width="24px"  height="24px"  viewBox="0 0 25 24" fill="none" xmlns="http://www.w3.org/2000/svg">
<path fill-rule="evenodd" clip-rule="evenodd" d="M12.6143 2.25C13.0285 2.25 13.3643 2.58579 13.3643 3L13.3643 8.75541C13.3643 9.16962 13.0285 9.50541 12.6143 9.50541C12.2 9.50541 11.8643 9.16962 11.8643 8.75541L11.8643 3C11.8643 2.58579 12.2 2.25 12.6143 2.25Z" fill="#000000" />
<path fill-rule="evenodd" clip-rule="evenodd" d="M15.7775 3.95256C15.9721 4.31823 15.8334 4.77239 15.4677 4.96695L12.9667 6.29761C12.7465 6.41479 12.4824 6.41479 12.2621 6.29761L9.76115 4.96695C9.39547 4.77239 9.25675 4.31823 9.45131 3.95256C9.64587 3.58688 10.1 3.44816 10.4657 3.64272L12.6144 4.78595L14.7631 3.64272C15.1288 3.44816 15.583 3.58688 15.7775 3.95256Z" fill="#000000" />
<path fill-rule="evenodd" clip-rule="evenodd" d="M12.6143 21.75C13.0285 21.75 13.3643 21.4142 13.3643 21L13.3643 15.2146C13.3643 14.8004 13.0285 14.4646 12.6143 14.4646C12.2 14.4646 11.8643 14.8004 11.8643 15.2146L11.8643 21C11.8643 21.4142 12.2 21.75 12.6143 21.75Z" fill="#000000" />
<path fill-rule="evenodd" clip-rule="evenodd" d="M15.7775 20.0474C15.9721 19.6818 15.8334 19.2276 15.4677 19.033L12.9667 17.7024C12.7465 17.5852 12.4824 17.5852 12.2621 17.7024L9.76115 19.033C9.39547 19.2276 9.25675 19.6818 9.45131 20.0474C9.64587 20.4131 10.1 20.5518 10.4657 20.3573L12.6144 19.2141L14.7631 20.3573C15.1288 20.5518 15.583 20.4131 15.7775 20.0474Z" fill="#000000" />
<path fill-rule="evenodd" clip-rule="evenodd" d="M21.0569 7.12391C21.2647 7.48224 21.1426 7.94116 20.7843 8.14893L15.7825 11.0491C15.4241 11.2568 14.9652 11.1348 14.7574 10.7765C14.5497 10.4181 14.6717 9.9592 15.0301 9.75143L20.0319 6.85128C20.3902 6.64351 20.8492 6.76557 21.0569 7.12391Z" fill="#000000" />
<path fill-rule="evenodd" clip-rule="evenodd" d="M21.1653 10.7158C20.9459 11.0671 20.4832 11.174 20.1319 10.9546L17.729 9.45403C17.5174 9.32189 17.3854 9.09319 17.3767 8.84387L17.2786 6.01261C17.2643 5.59865 17.5882 5.25143 18.0022 5.23709C18.4162 5.22274 18.7634 5.5467 18.7777 5.96066L18.862 8.39312L20.9264 9.68235C21.2778 9.90175 21.3847 10.3644 21.1653 10.7158Z" fill="#000000" />
<path fill-rule="evenodd" clip-rule="evenodd" d="M4.17034 16.8741C4.37691 17.2332 4.83542 17.3568 5.19445 17.1502L10.207 14.2662C10.566 14.0596 10.6896 13.6011 10.483 13.2421C10.2765 12.883 9.81795 12.7595 9.45892 12.966L4.44639 15.85C4.08736 16.0566 3.96377 16.5151 4.17034 16.8741Z" fill="#000000" />
<path fill-rule="evenodd" clip-rule="evenodd" d="M7.22601 18.7627C7.63998 18.7484 7.96393 18.4012 7.94958 17.9872L7.85147 15.1559C7.84283 14.9066 7.71079 14.6779 7.49919 14.5458L5.09631 13.0452C4.74498 12.8258 4.2823 12.9327 4.0629 13.284C3.84349 13.6354 3.95044 14.098 4.30177 14.3175L6.36619 15.6067L6.45048 18.0391C6.46483 18.4531 6.81204 18.7771 7.22601 18.7627Z" fill="#000000" />
<path fill-rule="evenodd" clip-rule="evenodd" d="M21.0574 16.8753C21.2647 16.5167 21.1421 16.0579 20.7835 15.8506L15.7819 12.9589C15.4233 12.7516 14.9645 12.8743 14.7572 13.2329C14.5499 13.5914 14.6725 14.0502 15.0311 14.2575L20.0327 17.1492C20.3913 17.3565 20.8501 17.2339 21.0574 16.8753Z" fill="#000000" />
<path fill-rule="evenodd" clip-rule="evenodd" d="M21.1653 13.2842C20.9459 12.9329 20.4832 12.826 20.1319 13.0454L17.729 14.546C17.5174 14.6781 17.3854 14.9068 17.3767 15.1561L17.2786 17.9874C17.2643 18.4014 17.5882 18.7486 18.0022 18.7629C18.4162 18.7773 18.7634 18.4533 18.7777 18.0393L18.862 15.6069L20.9264 14.3177C21.2778 14.0982 21.3847 13.6356 21.1653 13.2842Z" fill="#000000" />
<path fill-rule="evenodd" clip-rule="evenodd" d="M4.16961 7.12713C4.37549 6.7677 4.83376 6.64322 5.19319 6.84909L10.2277 9.73278C10.5872 9.93866 10.7116 10.3969 10.5058 10.7564C10.2999 11.1158 9.84162 11.2403 9.48219 11.0344L4.44765 8.1507C4.08822 7.94482 3.96374 7.48656 4.16961 7.12713Z" fill="#000000" />
<path fill-rule="evenodd" clip-rule="evenodd" d="M7.22601 5.2368C7.63998 5.25114 7.96393 5.59836 7.94958 6.01232L7.85147 8.84358C7.84283 9.0929 7.71079 9.3216 7.49919 9.45374L5.09631 10.9543C4.74498 11.1737 4.2823 11.0668 4.0629 10.7155C3.84349 10.3641 3.95044 9.90146 4.30177 9.68206L6.36619 8.39283L6.45048 5.96037C6.46483 5.54641 6.81204 5.22245 7.22601 5.2368Z" fill="#000000" />
<path fill-rule="evenodd" clip-rule="evenodd" d="M12.2388 8.13173C12.4708 7.99776 12.7567 7.99776 12.9888 8.13173L15.7764 9.74117C16.0085 9.87514 16.1514 10.1227 16.1514 10.3907V13.6096C16.1514 13.8775 16.0085 14.1251 15.7764 14.2591L12.9888 15.8685C12.7567 16.0025 12.4708 16.0025 12.2388 15.8685L9.45117 14.2591C9.21912 14.1251 9.07617 13.8775 9.07617 13.6096V10.3907C9.07617 10.1227 9.21912 9.87514 9.45117 9.74117L12.2388 8.13173ZM10.5762 10.8237V13.1765L12.6138 14.353L14.6514 13.1765V10.8237L12.6138 9.64728L10.5762 10.8237Z" fill="#000000" />
</svg>