<svg width="24px"  height="24px"  viewBox="0 0 25 24" fill="none" xmlns="http://www.w3.org/2000/svg">
<path fill-rule="evenodd" clip-rule="evenodd" d="M12.6143 2.25C13.0285 2.25 13.3643 2.58579 13.3643 3L13.3643 8.93743C13.3643 9.35164 13.0285 9.68743 12.6143 9.68743C12.2 9.68743 11.8643 9.35164 11.8643 8.93743L11.8643 3C11.8643 2.58579 12.2 2.25 12.6143 2.25Z" fill="#000000" />
<path fill-rule="evenodd" clip-rule="evenodd" d="M9.7383 7.01357C9.96233 6.88422 10.2372 6.87946 10.4656 7.00097L12.6143 8.1442L14.763 7.00097C14.9914 6.87946 15.2663 6.88422 15.4903 7.01357C15.7143 7.14291 15.8559 7.37858 15.8648 7.63711L15.9491 10.0696L18.0136 11.3588C18.233 11.4958 18.3663 11.7363 18.3663 11.9949C18.3663 12.2536 18.233 12.4941 18.0136 12.6311L15.9491 13.9203L15.8648 16.3528C15.8559 16.6113 15.7143 16.847 15.4903 16.9763C15.2663 17.1057 14.9914 17.1104 14.763 16.9889L12.6143 15.8457L10.4656 16.9889C10.2372 17.1104 9.96233 17.1057 9.7383 16.9763C9.51427 16.847 9.37271 16.6113 9.36375 16.3528L9.27946 13.9203L7.21503 12.6311C6.99562 12.4941 6.8623 12.2536 6.8623 11.9949C6.8623 11.7362 6.99562 11.4958 7.21503 11.3588L9.27946 10.0696L9.36375 7.63711C9.37271 7.37858 9.51427 7.14291 9.7383 7.01357ZM10.8213 8.8893L10.7647 10.5203C10.7561 10.7696 10.6241 10.9983 10.4125 11.1305L9.02822 11.9949L10.4125 12.8594C10.6241 12.9915 10.7561 13.2202 10.7647 13.4696L10.8213 15.1006L12.262 14.334C12.4823 14.2168 12.7463 14.2168 12.9666 14.334L14.4073 15.1006L14.4639 13.4696C14.4725 13.2202 14.6045 12.9915 14.8161 12.8594L16.2004 11.9949L14.8161 11.1305C14.6045 10.9983 14.4725 10.7696 14.4639 10.5203L14.4073 8.8893L12.9666 9.65586C12.7463 9.77304 12.4823 9.77304 12.262 9.65586L10.8213 8.8893Z" fill="#000000" />
<path fill-rule="evenodd" clip-rule="evenodd" d="M15.7775 3.95256C15.9721 4.31823 15.8334 4.77239 15.4677 4.96695L12.9667 6.29761C12.7465 6.41479 12.4824 6.41479 12.2621 6.29761L9.76115 4.96695C9.39547 4.77239 9.25675 4.31823 9.45131 3.95256C9.64587 3.58688 10.1 3.44816 10.4657 3.64272L12.6144 4.78595L14.7631 3.64272C15.1288 3.44816 15.583 3.58688 15.7775 3.95256Z" fill="#000000" />
<path fill-rule="evenodd" clip-rule="evenodd" d="M12.6143 21.75C13.0285 21.75 13.3643 21.4142 13.3643 21L13.3643 15.0626C13.3643 14.6484 13.0285 14.3126 12.6143 14.3126C12.2 14.3126 11.8643 14.6484 11.8643 15.0626L11.8643 21C11.8643 21.4142 12.2 21.75 12.6143 21.75Z" fill="#000000" />
<path fill-rule="evenodd" clip-rule="evenodd" d="M15.7775 20.0474C15.9721 19.6818 15.8334 19.2276 15.4677 19.033L12.9667 17.7024C12.7465 17.5852 12.4824 17.5852 12.2621 17.7024L9.76115 19.033C9.39547 19.2276 9.25675 19.6818 9.45131 20.0474C9.64587 20.4131 10.1 20.5518 10.4657 20.3573L12.6144 19.2141L14.7631 20.3573C15.1288 20.5518 15.583 20.4131 15.7775 20.0474Z" fill="#000000" />
<path fill-rule="evenodd" clip-rule="evenodd" d="M21.0576 7.1251C21.2647 7.48382 21.1418 7.94252 20.7831 8.14962L15.6411 11.1183C15.2824 11.3254 14.8237 11.2025 14.6166 10.8438C14.4095 10.4851 14.5324 10.0264 14.8911 9.8193L20.0331 6.85059C20.3918 6.64348 20.8505 6.76639 21.0576 7.1251Z" fill="#000000" />
<path fill-rule="evenodd" clip-rule="evenodd" d="M21.1653 10.7158C20.9459 11.0671 20.4832 11.174 20.1319 10.9546L17.729 9.45403C17.5174 9.32189 17.3854 9.09319 17.3767 8.84387L17.2786 6.01261C17.2643 5.59865 17.5882 5.25143 18.0022 5.23709C18.4162 5.22274 18.7634 5.5467 18.7777 5.96066L18.862 8.39312L20.9264 9.68235C21.2778 9.90175 21.3847 10.3644 21.1653 10.7158Z" fill="#000000" />
<path fill-rule="evenodd" clip-rule="evenodd" d="M4.1709 16.8751C4.37801 17.2338 4.8367 17.3567 5.19542 17.1496L10.3374 14.1809C10.6961 13.9738 10.819 13.5151 10.6119 13.1564C10.4048 12.7977 9.9461 12.6748 9.58738 12.8819L4.44542 15.8506C4.0867 16.0577 3.96379 16.5164 4.1709 16.8751Z" fill="#000000" />
<path fill-rule="evenodd" clip-rule="evenodd" d="M7.22601 18.7627C7.63998 18.7484 7.96393 18.4012 7.94958 17.9872L7.85147 15.1559C7.84283 14.9066 7.71079 14.6779 7.49919 14.5458L5.09631 13.0452C4.74498 12.8258 4.2823 12.9327 4.0629 13.284C3.84349 13.6354 3.95044 14.098 4.30177 14.3175L6.36619 15.6067L6.45048 18.0391C6.46483 18.4531 6.81204 18.7771 7.22601 18.7627Z" fill="#000000" />
<path fill-rule="evenodd" clip-rule="evenodd" d="M21.0576 16.8749C21.2647 16.5162 21.1418 16.0575 20.7831 15.8504L15.6411 12.8817C15.2824 12.6746 14.8237 12.7975 14.6166 13.1562C14.4095 13.5149 14.5324 13.9736 14.8911 14.1807L20.0331 17.1494C20.3918 17.3565 20.8505 17.2336 21.0576 16.8749Z" fill="#000000" />
<path fill-rule="evenodd" clip-rule="evenodd" d="M21.1653 13.2842C20.9459 12.9329 20.4832 12.826 20.1319 13.0454L17.729 14.546C17.5174 14.6781 17.3854 14.9068 17.3767 15.1561L17.2786 17.9874C17.2643 18.4014 17.5882 18.7486 18.0022 18.7629C18.4162 18.7773 18.7634 18.4533 18.7777 18.0393L18.862 15.6069L20.9264 14.3177C21.2778 14.0982 21.3847 13.6356 21.1653 13.2842Z" fill="#000000" />
<path fill-rule="evenodd" clip-rule="evenodd" d="M4.1709 7.12489C4.37801 6.76618 4.8367 6.64327 5.19542 6.85038L10.3374 9.81909C10.6961 10.0262 10.819 10.4849 10.6119 10.8436C10.4048 11.2023 9.9461 11.3252 9.58738 11.1181L4.44542 8.14941C4.0867 7.94231 3.96379 7.48361 4.1709 7.12489Z" fill="#000000" />
<path fill-rule="evenodd" clip-rule="evenodd" d="M7.22601 5.2368C7.63998 5.25114 7.96393 5.59836 7.94958 6.01232L7.85147 8.84358C7.84283 9.0929 7.71079 9.3216 7.49919 9.45374L5.09631 10.9543C4.74498 11.1737 4.2823 11.0668 4.0629 10.7155C3.84349 10.3641 3.95044 9.90146 4.30177 9.68206L6.36619 8.39283L6.45048 5.96037C6.46483 5.54641 6.81204 5.22245 7.22601 5.2368Z" fill="#000000" />
</svg>