<svg width="24px"  height="24px"  viewBox="0 0 25 24" fill="none" xmlns="http://www.w3.org/2000/svg">
<path fill-rule="evenodd" clip-rule="evenodd" d="M8.88559 2.29854C9.2731 2.15224 9.70584 2.3478 9.85214 2.73531L9.86248 2.7627C10.0088 3.15022 9.81322 3.58296 9.4257 3.72926C9.03818 3.87555 8.60544 3.68 8.45915 3.29248L8.44881 3.26509C8.30251 2.87757 8.49807 2.44483 8.88559 2.29854ZM16.8024 2.53976C17.1799 2.71033 17.3476 3.1546 17.177 3.53207L17.163 3.56319C16.9924 3.94065 16.5481 4.10837 16.1707 3.9378C15.7932 3.76723 15.6255 3.32296 15.796 2.9455L15.8101 2.91438C15.9807 2.53691 16.4249 2.36919 16.8024 2.53976ZM3.07344 7.71286C3.24402 7.3354 3.68829 7.16768 4.06575 7.33825L4.11385 7.35999C4.49131 7.53057 4.65903 7.97484 4.48846 8.3523C4.31788 8.72976 3.87361 8.89748 3.49615 8.7269L3.44805 8.70516C3.07059 8.53459 2.90287 8.09032 3.07344 7.71286ZM22.2524 8.30809C22.3987 8.69561 22.2032 9.12835 21.8156 9.27465L21.7513 9.29894C21.3638 9.44524 20.931 9.24969 20.7847 8.86217C20.6384 8.47465 20.834 8.04191 21.2215 7.89562L21.2859 7.87132C21.6734 7.72502 22.1061 7.92057 22.2524 8.30809ZM4.28688 15.101C4.43317 15.4885 4.23761 15.9212 3.85009 16.0675L3.8227 16.0778C3.43518 16.2241 3.00244 16.0286 2.85615 15.641C2.70986 15.2535 2.90542 14.8208 3.29294 14.6745L3.32033 14.6642C3.70785 14.5179 4.14059 14.7134 4.28688 15.101ZM20.5707 15.6198C20.7412 15.2423 21.1855 15.0746 21.563 15.2452L21.6045 15.2639C21.9819 15.4345 22.1496 15.8788 21.9791 16.2562C21.8085 16.6337 21.3642 16.8014 20.9868 16.6308L20.9453 16.6121C20.5678 16.4415 20.4001 15.9973 20.5707 15.6198ZM8.90073 20.0254C9.27819 20.196 9.4459 20.6402 9.27532 21.0177L9.26126 21.0488C9.09068 21.4263 8.64641 21.594 8.26895 21.4234C7.89149 21.2529 7.72377 20.8086 7.89435 20.4311L7.90842 20.4C8.07899 20.0225 8.52327 19.8548 8.90073 20.0254ZM15.6458 20.2342C16.0333 20.0879 16.466 20.2834 16.6123 20.671L16.6366 20.7353C16.7829 21.1228 16.5873 21.5556 16.1998 21.7019C15.8123 21.8482 15.3796 21.6526 15.2333 21.2651L15.209 21.2007C15.0627 20.8132 15.2582 20.3805 15.6458 20.2342Z" fill="#000000" />
<path fill-rule="evenodd" clip-rule="evenodd" d="M9.56309 12.0646C9.91145 11.8405 10.3755 11.9413 10.5996 12.2896C10.7283 12.4897 11.184 12.8545 11.7925 12.9581C12.3337 13.0503 12.9903 12.9345 13.6133 12.2074C13.8828 11.8929 14.3563 11.8564 14.6708 12.1259C14.9854 12.3954 15.0219 12.8689 14.7524 13.1834C13.7702 14.3297 12.5767 14.6133 11.5406 14.4368C10.5719 14.2718 9.72321 13.6999 9.33808 13.1012C9.11399 12.7528 9.21472 12.2887 9.56309 12.0646Z" fill="#000000" />
<path fill-rule="evenodd" clip-rule="evenodd" d="M9.82775 10.0997C9.59728 10.4253 9.14899 10.5147 8.81016 10.2967C8.4618 10.0726 8.36106 9.60853 8.58515 9.26017C8.80509 8.91826 9.23436 8.64749 9.69606 8.56885C10.2251 8.47874 10.8237 8.63397 11.2898 9.17793C11.5593 9.49247 11.5228 9.96594 11.2083 10.2354C10.8938 10.505 10.4203 10.4685 10.1508 10.1539C10.0857 10.0779 10.0395 10.0579 10.022 10.0517C10.0023 10.0449 9.97927 10.0422 9.94794 10.0475C9.91328 10.0535 9.87613 10.0683 9.8456 10.0874C9.8378 10.0923 9.83187 10.0965 9.82775 10.0997Z" fill="#000000" />
<path fill-rule="evenodd" clip-rule="evenodd" d="M14.0856 10.0997C13.8551 10.4253 13.4068 10.5147 13.068 10.2967C12.7196 10.0726 12.6189 9.60853 12.843 9.26017C13.0629 8.91826 13.4922 8.64749 13.9539 8.56885C14.4829 8.47874 15.0815 8.63397 15.5476 9.17793C15.8172 9.49247 15.7807 9.96594 15.4661 10.2354C15.1516 10.505 14.6781 10.4685 14.4086 10.1539C14.3435 10.0779 14.2974 10.0579 14.2798 10.0517C14.2601 10.0449 14.2371 10.0422 14.2057 10.0475C14.1711 10.0535 14.1339 10.0683 14.1034 10.0874C14.0956 10.0923 14.0897 10.0965 14.0856 10.0997Z" fill="#000000" />
<path fill-rule="evenodd" clip-rule="evenodd" d="M12.5554 5.75C9.10315 5.75 6.30469 8.54866 6.30469 11.9993C6.30469 15.4514 9.10325 18.25 12.5554 18.25C16.0073 18.25 18.8047 15.4516 18.8047 11.9993C18.8047 8.54847 16.0074 5.75 12.5554 5.75ZM4.80469 11.9993C4.80469 7.72004 8.27492 4.25 12.5554 4.25C16.836 4.25 20.3047 7.72023 20.3047 11.9993C20.3047 16.2797 16.8361 19.75 12.5554 19.75C8.27482 19.75 4.80469 16.2799 4.80469 11.9993Z" fill="#000000" />
</svg>