<svg width="24px"  height="24px"  viewBox="0 0 25 24" fill="none" xmlns="http://www.w3.org/2000/svg">
<path fill-rule="evenodd" clip-rule="evenodd" d="M12.5551 8.75C10.7599 8.75 9.30469 10.2054 9.30469 11.9996C9.30469 13.7947 10.76 15.25 12.5551 15.25C14.35 15.25 15.8047 13.7949 15.8047 11.9996C15.8047 10.2052 14.3501 8.75 12.5551 8.75ZM7.80469 11.9996C7.80469 9.37675 9.93163 7.25 12.5551 7.25C15.1787 7.25 17.3047 9.37694 17.3047 11.9996C17.3047 14.623 15.1788 16.75 12.5551 16.75C9.93153 16.75 7.80469 14.6232 7.80469 11.9996Z" fill="#000000" />
<path fill-rule="evenodd" clip-rule="evenodd" d="M12.5547 2.25C12.9162 2.25 13.2263 2.50786 13.2922 2.8633C13.6413 4.74661 15.9391 5.49322 17.3285 4.1748C17.5908 3.92597 17.9932 3.8996 18.2856 4.11208C18.5781 4.32456 18.6774 4.71542 18.5217 5.04171C17.6972 6.77054 19.1173 8.7252 21.0164 8.47526C21.3748 8.42809 21.7158 8.64329 21.8275 8.98708C21.9392 9.33088 21.7898 9.70545 21.4721 9.87795C19.7889 10.792 19.7889 13.208 21.4721 14.1221C21.7898 14.2946 21.9392 14.6691 21.8275 15.0129C21.7158 15.3567 21.3748 15.5719 21.0164 15.5247C19.1173 15.2748 17.6972 17.2295 18.5217 18.9583C18.6774 19.2846 18.5781 19.6754 18.2856 19.8879C17.9932 20.1004 17.5908 20.074 17.3285 19.8252C15.9391 18.5068 13.6413 19.2534 13.2922 21.1367C13.2263 21.4921 12.9162 21.75 12.5547 21.75C12.1932 21.75 11.8832 21.4921 11.8173 21.1367C11.4682 19.2534 9.17033 18.5068 7.7809 19.8252C7.51868 20.074 7.11627 20.1004 6.82382 19.8879C6.53136 19.6754 6.43209 19.2846 6.5877 18.9583C7.41224 17.2295 5.9921 15.2748 4.09308 15.5247C3.73468 15.5719 3.39363 15.3567 3.28192 15.0129C3.17021 14.6691 3.31964 14.2946 3.63732 14.1221C5.32057 13.208 5.32057 10.792 3.63732 9.87795C3.31964 9.70545 3.17021 9.33088 3.28192 8.98708C3.39363 8.64329 3.73468 8.42809 4.09308 8.47526C5.9921 8.7252 7.41224 6.77054 6.5877 5.04171C6.43209 4.71542 6.53136 4.32456 6.82382 4.11208C7.11627 3.8996 7.51868 3.92597 7.7809 4.1748C9.17033 5.49322 11.4682 4.74661 11.8173 2.8633C11.8832 2.50786 12.1932 2.25 12.5547 2.25ZM12.5547 4.81005C11.5763 6.08561 9.86988 6.64006 8.32857 6.18321C8.28677 7.79025 7.23215 9.24182 5.71667 9.77818C6.62745 11.1029 6.62745 12.8971 5.71667 14.2218C7.23215 14.7582 8.28677 16.2097 8.32858 17.8168C9.86988 17.3599 11.5763 17.9144 12.5547 19.1899C13.5331 17.9144 15.2396 17.3599 16.7809 17.8168C16.8227 16.2097 17.8773 14.7582 19.3928 14.2218C18.482 12.8971 18.482 11.1029 19.3928 9.77818C17.8773 9.24182 16.8227 7.79025 16.7809 6.18321C15.2396 6.64006 13.5331 6.08561 12.5547 4.81005Z" fill="#000000" />
</svg>