<svg width="24px"  height="24px"  viewBox="0 0 25 24" fill="none" xmlns="http://www.w3.org/2000/svg">
<path fill-rule="evenodd" clip-rule="evenodd" d="M12.5551 8.75C10.7599 8.75 9.30469 10.2054 9.30469 11.9996C9.30469 13.7947 10.76 15.25 12.5551 15.25C14.35 15.25 15.8047 13.7949 15.8047 11.9996C15.8047 10.2052 14.3501 8.75 12.5551 8.75ZM7.80469 11.9996C7.80469 9.37675 9.93163 7.25 12.5551 7.25C15.1787 7.25 17.3047 9.37694 17.3047 11.9996C17.3047 14.623 15.1788 16.75 12.5551 16.75C9.93153 16.75 7.80469 14.6232 7.80469 11.9996Z" fill="#000000" />
<path fill-rule="evenodd" clip-rule="evenodd" d="M12.5547 2.25C12.8575 2.25 13.1306 2.43209 13.247 2.71162C13.7995 4.03794 15.4577 4.48226 16.5993 3.60986C16.8399 3.42599 17.1674 3.40485 17.4297 3.55625C17.6919 3.70766 17.8374 4.0019 17.7985 4.3022C17.6137 5.72705 18.8276 6.94095 20.2525 6.75622C20.5528 6.71729 20.847 6.86276 20.9984 7.125C21.1498 7.38724 21.1287 7.7148 20.9448 7.9554C20.0724 9.09699 20.5167 10.7552 21.8431 11.3077C22.1226 11.4241 22.3047 11.6972 22.3047 12C22.3047 12.3028 22.1226 12.5759 21.8431 12.6923C20.5167 13.2448 20.0724 14.903 20.9448 16.0446C21.1287 16.2852 21.1498 16.6128 20.9984 16.875C20.847 17.1372 20.5528 17.2827 20.2525 17.2438C18.8276 17.059 17.6137 18.2729 17.7985 19.6978C17.8374 19.9981 17.6919 20.2923 17.4297 20.4437C17.1674 20.5952 16.8399 20.574 16.5993 20.3901C15.4577 19.5177 13.7995 19.9621 13.247 21.2884C13.1306 21.5679 12.8575 21.75 12.5547 21.75C12.2519 21.75 11.9788 21.5679 11.8623 21.2884C11.3099 19.9621 9.65168 19.5177 8.51008 20.3901C8.26949 20.574 7.94193 20.5952 7.67969 20.4437C7.41745 20.2923 7.27198 19.9981 7.31091 19.6978C7.49564 18.2729 6.28174 17.059 4.85689 17.2438C4.55659 17.2827 4.26234 17.1372 4.11094 16.875C3.95954 16.6128 3.98068 16.2852 4.16454 16.0446C5.03695 14.903 4.59263 13.2448 3.26631 12.6923C2.98678 12.5759 2.80469 12.3028 2.80469 12C2.80469 11.6972 2.98678 11.4241 3.26631 11.3077C4.59263 10.7552 5.03695 9.09699 4.16454 7.9554C3.98068 7.7148 3.95954 7.38724 4.11094 7.125C4.26234 6.86276 4.55659 6.71729 4.85689 6.75622C6.28174 6.94095 7.49564 5.72705 7.31091 4.3022C7.27198 4.0019 7.41745 3.70766 7.67969 3.55625C7.94193 3.40485 8.26949 3.42599 8.51008 3.60986C9.65168 4.48226 11.3099 4.03794 11.8623 2.71162C11.9788 2.43209 12.2519 2.25 12.5547 2.25ZM8.74134 5.39508C8.43069 6.77933 7.33401 7.876 5.94977 8.18665C6.37286 9.54077 5.97145 11.0388 4.92799 12C5.97145 12.9612 6.37286 14.4592 5.94977 15.8134C7.33402 16.124 8.43069 17.2207 8.74134 18.6049C10.0955 18.1818 11.5935 18.5832 12.5547 19.6267C13.5158 18.5832 15.0139 18.1818 16.368 18.6049C16.6787 17.2207 17.7754 16.124 19.1596 15.8134C18.7365 14.4592 19.1379 12.9612 20.1814 12C19.1379 11.0388 18.7365 9.54077 19.1596 8.18665C17.7754 7.876 16.6787 6.77933 16.368 5.39508C15.0139 5.81818 13.5158 5.41677 12.5547 4.3733C11.5935 5.41677 10.0955 5.81818 8.74134 5.39508Z" fill="#000000" />
</svg>