<svg width="24px"  height="24px"  viewBox="0 0 25 24" fill="none" xmlns="http://www.w3.org/2000/svg">
<path fill-rule="evenodd" clip-rule="evenodd" d="M8.88534 2.29854C9.27286 2.15224 9.7056 2.3478 9.85189 2.73531L9.86223 2.7627C10.0085 3.15022 9.81298 3.58296 9.42546 3.72926C9.03794 3.87555 8.6052 3.68 8.4589 3.29248L8.44856 3.26509C8.30227 2.87757 8.49782 2.44483 8.88534 2.29854ZM16.8022 2.53976C17.1796 2.71033 17.3473 3.1546 17.1768 3.53207L17.1627 3.56319C16.9921 3.94065 16.5479 4.10837 16.1704 3.9378C15.7929 3.76723 15.6252 3.32296 15.7958 2.9455L15.8099 2.91438C15.9804 2.53691 16.4247 2.36919 16.8022 2.53976ZM3.0732 7.71286C3.24377 7.3354 3.68804 7.16768 4.06551 7.33825L4.11361 7.35999C4.49107 7.53057 4.65879 7.97484 4.48821 8.3523C4.31764 8.72976 3.87337 8.89748 3.49591 8.7269L3.4478 8.70516C3.07034 8.53459 2.90263 8.09032 3.0732 7.71286ZM22.2522 8.30809C22.3985 8.69561 22.2029 9.12835 21.8154 9.27465L21.751 9.29894C21.3635 9.44524 20.9308 9.24969 20.7845 8.86217C20.6382 8.47465 20.8337 8.04191 21.2213 7.89562L21.2856 7.87132C21.6731 7.72502 22.1059 7.92057 22.2522 8.30809ZM4.28663 15.101C4.43292 15.4885 4.23736 15.9212 3.84984 16.0675L3.82245 16.0778C3.43493 16.2241 3.0022 16.0286 2.85591 15.641C2.70962 15.2535 2.90518 14.8208 3.2927 14.6745L3.32009 14.6642C3.70761 14.5179 4.14034 14.7134 4.28663 15.101ZM20.5704 15.6198C20.741 15.2423 21.1853 15.0746 21.5627 15.2452L21.6042 15.2639C21.9817 15.4345 22.1494 15.8788 21.9788 16.2562C21.8083 16.6337 21.364 16.8014 20.9865 16.6308L20.945 16.6121C20.5676 16.4415 20.3998 15.9973 20.5704 15.6198ZM8.90048 20.0254C9.27794 20.196 9.44565 20.6402 9.27508 21.0177L9.26101 21.0488C9.09043 21.4263 8.64616 21.594 8.2687 21.4234C7.89124 21.2529 7.72353 20.8086 7.89411 20.4311L7.90817 20.4C8.07875 20.0225 8.52302 19.8548 8.90048 20.0254ZM15.6455 20.2342C16.033 20.0879 16.4658 20.2834 16.6121 20.671L16.6364 20.7353C16.7826 21.1228 16.5871 21.5556 16.1996 21.7019C15.8121 21.8482 15.3793 21.6526 15.233 21.2651L15.2087 21.2007C15.0624 20.8132 15.258 20.3805 15.6455 20.2342Z" fill="#000000" />
<path fill-rule="evenodd" clip-rule="evenodd" d="M12.5553 6.25C9.37927 6.25 6.80469 8.82478 6.80469 11.9994C6.80469 15.1753 9.37937 17.75 12.5553 17.75C15.7311 17.75 18.3047 15.1755 18.3047 11.9994C18.3047 8.82458 15.7312 6.25 12.5553 6.25ZM5.30469 11.9994C5.30469 7.99616 8.55104 4.75 12.5553 4.75C16.5598 4.75 19.8047 7.99635 19.8047 11.9994C19.8047 16.0036 16.5599 19.25 12.5553 19.25C8.55094 19.25 5.30469 16.0037 5.30469 11.9994Z" fill="#000000" />
<path fill-rule="evenodd" clip-rule="evenodd" d="M12.555 9.5C11.174 9.5 10.0547 10.6195 10.0547 11.9997C10.0547 12.4139 9.7189 12.7497 9.30469 12.7497C8.89047 12.7497 8.55469 12.4139 8.55469 11.9997C8.55469 9.79092 10.3458 8 12.555 8C12.9692 8 13.305 8.33579 13.305 8.75C13.305 9.16421 12.9692 9.5 12.555 9.5Z" fill="#000000" />
</svg>