<svg width="24px"  height="24px"  viewBox="0 0 25 24" fill="none" xmlns="http://www.w3.org/2000/svg">
<path fill-rule="evenodd" clip-rule="evenodd" d="M19.4493 5.10541C19.7422 5.39831 19.7422 5.87318 19.4493 6.16607L18.4792 7.13613C18.1863 7.42903 17.7115 7.42903 17.4186 7.13613C17.1257 6.84324 17.1257 6.36837 17.4186 6.07547L18.3886 5.10541C18.6815 4.81252 19.1564 4.81252 19.4493 5.10541ZM5.66108 5.10589C5.95397 4.81299 6.42884 4.81299 6.72174 5.10589L7.6918 6.07595C7.98469 6.36884 7.98469 6.84372 7.6918 7.13661C7.39891 7.4295 6.92403 7.4295 6.63114 7.13661L5.66108 6.16655C5.36818 5.87365 5.36818 5.39878 5.66108 5.10589ZM7.6918 16.8634C7.98469 17.1563 7.98469 17.6311 7.6918 17.924L6.72174 18.8941C6.42884 19.187 5.95397 19.187 5.66108 18.8941C5.36818 18.6012 5.36818 18.1263 5.66108 17.8334L6.63114 16.8634C6.92403 16.5705 7.39891 16.5705 7.6918 16.8634ZM17.4186 16.8634C17.7115 16.5705 18.1863 16.5705 18.4792 16.8634L19.4493 17.8334C19.7422 18.1263 19.7422 18.6012 19.4493 18.8941C19.1564 19.187 18.6815 19.187 18.3886 18.8941L17.4186 17.924C17.1257 17.6311 17.1257 17.1563 17.4186 16.8634Z" fill="#000000" />
<path fill-rule="evenodd" clip-rule="evenodd" d="M12.5549 8.55469C10.6516 8.55469 9.10938 10.0976 9.10938 12.0002C9.10938 13.9038 10.6517 15.4466 12.5549 15.4466C14.4581 15.4466 16.0004 13.9038 16.0004 12.0002C16.0004 10.0976 14.4582 8.55469 12.5549 8.55469ZM7.60938 12.0002C7.60938 9.26941 9.8229 7.05469 12.5549 7.05469C15.2868 7.05469 17.5004 9.26941 17.5004 12.0002C17.5004 14.7318 15.287 16.9466 12.5549 16.9466C9.82279 16.9466 7.60938 14.7318 7.60938 12.0002Z" fill="#000000" />
<path fill-rule="evenodd" clip-rule="evenodd" d="M12.5546 3.60156C12.9688 3.60156 13.3046 3.93735 13.3046 4.35156V4.37188C13.3046 4.78609 12.9688 5.12188 12.5546 5.12188C12.1404 5.12188 11.8046 4.78609 11.8046 4.37188V4.35156C11.8046 3.93735 12.1404 3.60156 12.5546 3.60156ZM4.14062 12.0001C4.14062 11.5858 4.47641 11.2501 4.89062 11.2501H4.92643C5.34065 11.2501 5.67643 11.5858 5.67643 12.0001C5.67643 12.4143 5.34065 12.7501 4.92643 12.7501H4.89062C4.47641 12.7501 4.14062 12.4143 4.14062 12.0001ZM19.4326 12.0001C19.4326 11.5858 19.7684 11.2501 20.1826 11.2501H20.2186C20.6328 11.2501 20.9686 11.5858 20.9686 12.0001C20.9686 12.4143 20.6328 12.7501 20.2186 12.7501H20.1826C19.7684 12.7501 19.4326 12.4143 19.4326 12.0001ZM12.5546 18.8781C12.9688 18.8781 13.3046 19.2139 13.3046 19.6281V19.6523C13.3046 20.0666 12.9688 20.4023 12.5546 20.4023C12.1404 20.4023 11.8046 20.0666 11.8046 19.6523V19.6281C11.8046 19.2139 12.1404 18.8781 12.5546 18.8781Z" fill="#000000" />
</svg>