<svg width="24px"  height="24px"  viewBox="0 0 25 24" fill="none" xmlns="http://www.w3.org/2000/svg">
<path fill-rule="evenodd" clip-rule="evenodd" d="M8.88559 2.29854C9.2731 2.15224 9.70584 2.3478 9.85214 2.73531L9.86248 2.7627C10.0088 3.15022 9.81322 3.58296 9.4257 3.72926C9.03818 3.87555 8.60544 3.68 8.45915 3.29248L8.44881 3.26509C8.30251 2.87757 8.49807 2.44483 8.88559 2.29854ZM16.8024 2.53976C17.1799 2.71033 17.3476 3.1546 17.177 3.53207L17.163 3.56319C16.9924 3.94065 16.5481 4.10837 16.1707 3.9378C15.7932 3.76723 15.6255 3.32296 15.796 2.9455L15.8101 2.91438C15.9807 2.53691 16.4249 2.36919 16.8024 2.53976ZM3.07344 7.71286C3.24402 7.3354 3.68829 7.16768 4.06575 7.33825L4.11385 7.35999C4.49131 7.53057 4.65903 7.97484 4.48846 8.3523C4.31788 8.72976 3.87361 8.89748 3.49615 8.7269L3.44805 8.70516C3.07059 8.53459 2.90287 8.09032 3.07344 7.71286ZM22.2524 8.30809C22.3987 8.69561 22.2032 9.12835 21.8156 9.27465L21.7513 9.29894C21.3638 9.44524 20.931 9.24969 20.7847 8.86217C20.6384 8.47465 20.834 8.04191 21.2215 7.89562L21.2859 7.87132C21.6734 7.72502 22.1061 7.92057 22.2524 8.30809ZM4.28688 15.101C4.43317 15.4885 4.23761 15.9212 3.85009 16.0675L3.8227 16.0778C3.43518 16.2241 3.00244 16.0286 2.85615 15.641C2.70986 15.2535 2.90542 14.8208 3.29294 14.6745L3.32033 14.6642C3.70785 14.5179 4.14059 14.7134 4.28688 15.101ZM20.5707 15.6198C20.7412 15.2423 21.1855 15.0746 21.563 15.2452L21.6045 15.2639C21.9819 15.4345 22.1496 15.8788 21.9791 16.2562C21.8085 16.6337 21.3642 16.8014 20.9868 16.6308L20.9453 16.6121C20.5678 16.4415 20.4001 15.9973 20.5707 15.6198ZM8.90073 20.0254C9.27819 20.196 9.4459 20.6402 9.27532 21.0177L9.26126 21.0488C9.09068 21.4263 8.64641 21.594 8.26895 21.4234C7.89149 21.2529 7.72377 20.8086 7.89435 20.4311L7.90842 20.4C8.07899 20.0225 8.52327 19.8548 8.90073 20.0254ZM15.6458 20.2342C16.0333 20.0879 16.466 20.2834 16.6123 20.671L16.6366 20.7353C16.7829 21.1228 16.5873 21.5556 16.1998 21.7019C15.8123 21.8482 15.3796 21.6526 15.2333 21.2651L15.209 21.2007C15.0627 20.8132 15.2582 20.3805 15.6458 20.2342Z" fill="#000000" />
<path fill-rule="evenodd" clip-rule="evenodd" d="M12.5547 2.75C12.9052 2.75 13.209 2.99282 13.2863 3.33475C13.7781 5.51234 16.277 6.54742 18.1646 5.35545C18.461 5.16828 18.8476 5.21139 19.0954 5.45926C19.3433 5.70713 19.3864 6.09364 19.1992 6.39004C18.0073 8.27764 19.0423 10.7765 21.2199 11.2684C21.5619 11.3457 21.8047 11.6495 21.8047 12C21.8047 12.3505 21.5619 12.6543 21.2199 12.7316C19.0423 13.2235 18.0073 15.7224 19.1992 17.61C19.3864 17.9064 19.3433 18.2929 19.0954 18.5407C18.8476 18.7886 18.461 18.8317 18.1646 18.6446C16.277 17.4526 13.7781 18.4877 13.2863 20.6653C13.209 21.0072 12.9052 21.25 12.5547 21.25C12.2041 21.25 11.9004 21.0072 11.8231 20.6653C11.3312 18.4877 8.83233 17.4526 6.94473 18.6446C6.64833 18.8317 6.26182 18.7886 6.01395 18.5407C5.76608 18.2929 5.72297 17.9064 5.91013 17.61C7.10211 15.7224 6.06703 13.2235 3.88944 12.7316C3.54751 12.6543 3.30469 12.3505 3.30469 12C3.30469 11.6495 3.54751 11.3457 3.88944 11.2684C6.06703 10.7765 7.10211 8.27764 5.91013 6.39004C5.72297 6.09364 5.76608 5.70714 6.01395 5.45926C6.26182 5.21139 6.64833 5.16828 6.94473 5.35545C8.83233 6.54742 11.3312 5.51234 11.8231 3.33475C11.9004 2.99282 12.2041 2.75 12.5547 2.75ZM12.5547 5.33277C11.5058 6.83781 9.64617 7.60809 7.84024 7.28556C8.16277 9.09148 7.3925 10.9511 5.88745 12C7.3925 13.0489 8.16277 14.9085 7.84024 16.7144C9.64617 16.3919 11.5058 17.1622 12.5547 18.6672C13.6036 17.1622 15.4632 16.3919 17.2691 16.7144C16.9466 14.9085 17.7169 13.0489 19.2219 12C17.7169 10.9511 16.9466 9.09148 17.2691 7.28556C15.4632 7.60809 13.6036 6.83781 12.5547 5.33277Z" fill="#000000" />
<path fill-rule="evenodd" clip-rule="evenodd" d="M10.0201 12.572C10.3685 12.3479 10.8325 12.4486 11.0566 12.797C11.1853 12.997 11.6411 13.3618 12.2495 13.4654C12.7907 13.5576 13.4473 13.4419 14.0704 12.7147C14.3399 12.4002 14.8133 12.3637 15.1279 12.6332C15.4424 12.9027 15.4789 13.3762 15.2094 13.6907C14.2272 14.837 13.0338 15.1206 11.9977 14.9441C11.0289 14.7791 10.1802 14.2072 9.79511 13.6085C9.57102 13.2601 9.67176 12.7961 10.0201 12.572Z" fill="#000000" />
<path fill-rule="evenodd" clip-rule="evenodd" d="M10.2858 10.5621C10.0553 10.8877 9.607 10.9771 9.26816 10.7591C8.9198 10.535 8.81906 10.0709 9.04316 9.72257C9.2631 9.38067 9.69237 9.10989 10.1541 9.03125C10.6831 8.94114 11.2817 9.09637 11.7478 9.64033C12.0174 9.95487 11.9809 10.4283 11.6663 10.6979C11.3518 10.9674 10.8783 10.9309 10.6088 10.6163C10.5437 10.5403 10.4976 10.5203 10.48 10.5142C10.4603 10.5073 10.4373 10.5046 10.4059 10.5099C10.3713 10.5159 10.3341 10.5307 10.3036 10.5498C10.2958 10.5547 10.2899 10.5589 10.2858 10.5621Z" fill="#000000" />
<path fill-rule="evenodd" clip-rule="evenodd" d="M14.5436 10.5621C14.3131 10.8877 13.8648 10.9771 13.526 10.7591C13.1776 10.535 13.0769 10.0709 13.301 9.72257C13.5209 9.38067 13.9502 9.10989 14.4119 9.03125C14.9409 8.94114 15.5396 9.09637 16.0057 9.64033C16.2752 9.95487 16.2387 10.4283 15.9241 10.6979C15.6096 10.9674 15.1361 10.9309 14.8666 10.6163C14.8015 10.5403 14.7554 10.5203 14.7378 10.5142C14.7181 10.5073 14.6951 10.5046 14.6638 10.5099C14.6291 10.5159 14.5919 10.5307 14.5614 10.5498C14.5536 10.5547 14.5477 10.5589 14.5436 10.5621Z" fill="#000000" />
</svg>