<svg width="24px"  height="24px"  viewBox="0 0 25 24" fill="none" xmlns="http://www.w3.org/2000/svg">
<path fill-rule="evenodd" clip-rule="evenodd" d="M12.5548 2.25C12.969 2.25 13.3048 2.58579 13.3048 3V4.3719C13.3048 4.78612 12.969 5.1219 12.5548 5.1219C12.1406 5.1219 11.8048 4.78612 11.8048 4.3719V3C11.8048 2.58579 12.1406 2.25 12.5548 2.25ZM19.4489 5.10549C19.7418 5.39839 19.7418 5.87326 19.4489 6.16616L18.4788 7.13622C18.1859 7.42911 17.711 7.42911 17.4181 7.13622C17.1253 6.84332 17.1253 6.36845 17.4181 6.07556L18.3882 5.10549C18.6811 4.8126 19.156 4.8126 19.4489 5.10549ZM5.66066 5.10597C5.95355 4.81308 6.42842 4.81308 6.72132 5.10597L7.69138 6.07603C7.98427 6.36893 7.98427 6.8438 7.69138 7.13669C7.39849 7.42959 6.92361 7.42959 6.63072 7.13669L5.66066 6.16663C5.36776 5.87374 5.36776 5.39886 5.66066 5.10597ZM2.80469 12.0001C2.80469 11.5859 3.14047 11.2501 3.55469 11.2501H21.5547C21.9689 11.2501 22.3047 11.5859 22.3047 12.0001C22.3047 12.4143 21.9689 12.7501 21.5547 12.7501H3.55469C3.14047 12.7501 2.80469 12.4143 2.80469 12.0001Z" fill="#000000" />
<path fill-rule="evenodd" clip-rule="evenodd" d="M7.67021 16.8632C7.96311 17.1561 7.96311 17.631 7.67021 17.9239L7.66021 17.9339C7.36732 18.2268 6.89245 18.2268 6.59955 17.9339C6.30666 17.641 6.30666 17.1661 6.59955 16.8732L6.60955 16.8632C6.90245 16.5703 7.37732 16.5703 7.67021 16.8632Z" fill="#000000" />
<path fill-rule="evenodd" clip-rule="evenodd" d="M12.5547 18.8779C12.9689 18.8779 13.3047 19.2137 13.3047 19.6279V19.6379C13.3047 20.0521 12.9689 20.3879 12.5547 20.3879C12.1405 20.3879 11.8047 20.0521 11.8047 19.6379V19.6279C11.8047 19.2137 12.1405 18.8779 12.5547 18.8779Z" fill="#000000" />
<path fill-rule="evenodd" clip-rule="evenodd" d="M17.4179 16.8632C17.7108 16.5703 18.1857 16.5703 18.4786 16.8632L18.4886 16.8732C18.7815 17.1661 18.7815 17.641 18.4886 17.9339C18.1957 18.2268 17.7208 18.2268 17.4279 17.9339L17.4179 17.9239C17.125 17.631 17.125 17.1561 17.4179 16.8632Z" fill="#000000" />
<path fill-rule="evenodd" clip-rule="evenodd" d="M12.5549 8.55469C10.6516 8.55469 9.10938 10.0976 9.10938 12.0002C9.10938 13.9038 10.6517 15.4466 12.5549 15.4466C14.4581 15.4466 16.0004 13.9038 16.0004 12.0002C16.0004 10.0976 14.4582 8.55469 12.5549 8.55469ZM7.60938 12.0002C7.60938 9.26941 9.8229 7.05469 12.5549 7.05469C15.2868 7.05469 17.5004 9.26941 17.5004 12.0002C17.5004 14.7318 15.287 16.9466 12.5549 16.9466C9.82279 16.9466 7.60938 14.7318 7.60938 12.0002Z" fill="#000000" />
</svg>