<svg width="24px"  height="24px"  viewBox="0 0 25 24" fill="none" xmlns="http://www.w3.org/2000/svg">
<path fill-rule="evenodd" clip-rule="evenodd" d="M19.9033 12.0001C19.9033 12.4143 19.5675 12.7501 19.1533 12.7501L17.7814 12.7501C17.3672 12.7501 17.0314 12.4143 17.0314 12.0001C17.0314 11.5859 17.3672 11.2501 17.7814 11.2501L19.1533 11.2501C19.5675 11.2501 19.9033 11.5859 19.9033 12.0001ZM17.0478 18.8942C16.7549 19.1871 16.2801 19.1871 15.9872 18.8942L15.0171 17.9241C14.7242 17.6312 14.7242 17.1564 15.0171 16.8635C15.31 16.5706 15.7849 16.5706 16.0778 16.8635L17.0478 17.8335C17.3407 18.1264 17.3407 18.6013 17.0478 18.8942ZM17.0474 5.10597C17.3402 5.39886 17.3402 5.87374 17.0474 6.16663L16.0773 7.13669C15.7844 7.42959 15.3095 7.42959 15.0166 7.13669C14.7237 6.8438 14.7237 6.36893 15.0166 6.07603L15.9867 5.10597C16.2796 4.81308 16.7545 4.81308 17.0474 5.10597ZM10.1532 2.25C10.5675 2.25 10.9032 2.58579 10.9032 3L10.9032 21C10.9032 21.4142 10.5675 21.75 10.1532 21.75C9.73903 21.75 9.40324 21.4142 9.40324 21L9.40324 3C9.40324 2.58579 9.73903 2.25 10.1532 2.25Z" fill="#000000" />
<path fill-rule="evenodd" clip-rule="evenodd" d="M13.5986 12.0002C13.5986 10.0969 12.0557 8.55469 10.1531 8.55469C8.24948 8.55469 6.70667 10.097 6.70667 12.0002C6.70667 13.9034 8.24948 15.4457 10.1531 15.4457C12.0557 15.4457 13.5986 13.9035 13.5986 12.0002ZM10.1531 7.05469C12.8839 7.05469 15.0986 9.26821 15.0986 12.0002C15.0986 14.7322 12.8839 16.9457 10.1531 16.9457C7.42151 16.9457 5.20667 14.7323 5.20667 12.0002C5.20667 9.2681 7.42151 7.05469 10.1531 7.05469Z" fill="#000000" />
</svg>