<svg width="24px"  height="24px"  viewBox="0 0 25 24" fill="none" xmlns="http://www.w3.org/2000/svg">
<path fill-rule="evenodd" clip-rule="evenodd" d="M16.9638 11.563C17.378 11.563 17.7138 11.8988 17.7138 12.313C17.7138 14.4543 16.3542 16.2762 14.4529 16.9649C14.0635 17.106 13.6334 16.9047 13.4923 16.5152C13.3512 16.1258 13.5526 15.6957 13.942 15.5546C15.2682 15.0742 16.2138 13.8033 16.2138 12.313C16.2138 11.8988 16.5496 11.563 16.9638 11.563Z" fill="#000000" />
<path fill-rule="evenodd" clip-rule="evenodd" d="M9.92937 3.26588C10.3357 3.18545 10.7303 3.44965 10.8107 3.85598L11.0387 5.00754C11.1191 5.41387 10.8549 5.80847 10.4486 5.8889C10.0422 5.96933 9.64764 5.70514 9.56721 5.29881L9.33927 4.14724C9.25884 3.74091 9.52304 3.34631 9.92937 3.26588ZM4.5481 6.8546C4.77854 6.5104 5.24438 6.4182 5.58857 6.64864L6.56401 7.30173C6.9082 7.53217 7.00041 7.99801 6.76996 8.3422C6.53952 8.68639 6.07368 8.7786 5.72949 8.54815L4.75405 7.89507C4.40986 7.66462 4.31765 7.19879 4.5481 6.8546ZM5.90306 12.678C5.98349 13.0843 5.7193 13.4789 5.31297 13.5594L4.1614 13.7873C3.75507 13.8677 3.36047 13.6036 3.28004 13.1972C3.19961 12.7909 3.46381 12.3963 3.87014 12.3159L5.0217 12.0879C5.42803 12.0075 5.82263 12.2717 5.90306 12.678Z" fill="#000000" />
<path fill-rule="evenodd" clip-rule="evenodd" d="M15.4124 21.5486C15.0061 21.629 14.6115 21.3648 14.5311 20.9585L14.3031 19.8069C14.2227 19.4006 14.4869 19.006 14.8932 18.9256C15.2996 18.8451 15.6942 19.1093 15.7746 19.5156L16.0025 20.6672C16.083 21.0735 15.8188 21.4681 15.4124 21.5486ZM20.7937 17.9599C20.5633 18.304 20.0974 18.3963 19.7532 18.1658L18.7778 17.5127C18.4336 17.2823 18.3414 16.8164 18.5718 16.4723C18.8023 16.1281 19.2681 16.0359 19.6123 16.2663L20.5877 16.9194C20.9319 17.1498 21.0241 17.6157 20.7937 17.9599ZM19.4387 12.1364C19.3583 11.7301 19.6225 11.3355 20.0288 11.2551L21.1804 11.0271C21.5867 10.9467 21.9813 11.2109 22.0618 11.6172C22.1422 12.0236 21.878 12.4182 21.4717 12.4986L20.3201 12.7265C19.9138 12.807 19.5192 12.5428 19.4387 12.1364Z" fill="#000000" />
<path fill-rule="evenodd" clip-rule="evenodd" d="M11.9009 8.13866C12.0553 8.52304 11.8688 8.95977 11.4845 9.11414C10.2157 9.62368 9.32227 10.8651 9.32227 12.313C9.32227 12.7272 8.98648 13.063 8.57227 13.063C8.15805 13.063 7.82227 12.7272 7.82227 12.313C7.82227 10.2319 9.10756 8.45227 10.9255 7.7222C11.3098 7.56783 11.7466 7.75429 11.9009 8.13866Z" fill="#000000" />
<path fill-rule="evenodd" clip-rule="evenodd" d="M19.1284 4.26907C19.3696 4.58781 19.462 4.97193 19.462 5.17717C19.462 5.58877 19.7938 5.92347 20.2054 5.92714C20.5444 5.93016 20.8094 6.04387 20.984 6.21057C21.1523 6.37119 21.2852 6.62654 21.2852 7.01714C21.2852 7.45514 21.03 7.83269 20.6594 8.00684C20.4882 8.07295 20.3223 8.09531 20.2104 8.09531H15.8571C15.7496 8.09531 15.5843 8.07212 15.4138 8.00521C15.0413 7.83105 14.7852 7.45362 14.7852 7.01714C14.7852 6.6267 14.9181 6.37137 15.0865 6.21068C15.2613 6.04389 15.5265 5.93016 15.8655 5.92714C16.2771 5.92347 16.6088 5.58877 16.6088 5.17717C16.6088 4.97193 16.7013 4.58781 16.9425 4.26907C17.1605 3.98091 17.4929 3.75 18.0354 3.75C18.578 3.75 18.9104 3.98091 19.1284 4.26907ZM20.3246 3.36395C19.8561 2.7449 19.1002 2.25 18.0354 2.25C16.9707 2.25 16.2148 2.7449 15.7463 3.36395C15.4735 3.7245 15.2957 4.12859 15.1989 4.50719C14.7715 4.611 14.3751 4.81616 14.0509 5.12546C13.5597 5.59421 13.2852 6.25437 13.2852 7.01714C13.2852 8.0694 13.9122 8.97303 14.8094 9.37823C14.8182 9.38221 14.8271 9.38601 14.8361 9.38964C15.1981 9.53658 15.5618 9.59531 15.8571 9.59531H20.2104C20.502 9.59531 20.8656 9.54035 21.2329 9.3931C21.243 9.38907 21.2529 9.38482 21.2628 9.38035C22.1625 8.97366 22.7852 8.06722 22.7852 7.01714C22.7852 6.25453 22.5109 5.59438 22.0198 5.12557C21.6957 4.81621 21.2993 4.61102 20.872 4.5072C20.7752 4.1286 20.5974 3.7245 20.3246 3.36395Z" fill="#000000" />
<path fill-rule="evenodd" clip-rule="evenodd" d="M9.12841 16.4239C9.3696 16.7426 9.46204 17.1267 9.46204 17.332C9.46204 17.7436 9.79377 18.0783 10.2054 18.0819C10.5444 18.0849 10.8094 18.1987 10.984 18.3654C11.1523 18.526 11.2852 18.7813 11.2852 19.1719C11.2852 19.6099 11.03 19.9875 10.6594 20.1616C10.4882 20.2277 10.3223 20.2501 10.2104 20.2501H5.85714C5.74961 20.2501 5.58428 20.2269 5.41385 20.16C5.04128 19.9858 4.78516 19.6084 4.78516 19.1719C4.78516 18.7815 4.91806 18.5262 5.08646 18.3655C5.26126 18.1987 5.52647 18.0849 5.86552 18.0819C6.2771 18.0783 6.60883 17.7436 6.60883 17.332C6.60883 17.1267 6.70128 16.7426 6.94247 16.4239C7.16051 16.1357 7.4929 15.9048 8.03544 15.9048C8.57798 15.9048 8.91036 16.1357 9.12841 16.4239ZM10.3246 15.5187C9.85612 14.8997 9.1002 14.4048 8.03544 14.4048C6.97067 14.4048 6.21475 14.8997 5.74632 15.5187C5.4735 15.8793 5.29568 16.2834 5.19886 16.662C4.77153 16.7658 4.37508 16.9709 4.05094 17.2802C3.5597 17.749 3.28516 18.4092 3.28516 19.1719C3.28516 20.2242 3.91216 21.1278 4.80945 21.533C4.81825 21.537 4.82712 21.5408 4.83607 21.5444C5.19811 21.6914 5.56179 21.7501 5.85714 21.7501H10.2104C10.502 21.7501 10.8656 21.6951 11.2329 21.5479C11.243 21.5439 11.2529 21.5396 11.2628 21.5351C12.1625 21.1284 12.7852 20.222 12.7852 19.1719C12.7852 18.4093 12.5109 17.7492 12.0198 17.2804C11.6957 16.971 11.2993 16.7658 10.872 16.662C10.7752 16.2834 10.5974 15.8793 10.3246 15.5187Z" fill="#000000" />
</svg>