<svg width="24px"  height="24px"  viewBox="0 0 25 24" fill="none" xmlns="http://www.w3.org/2000/svg">
<path fill-rule="evenodd" clip-rule="evenodd" d="M18.6137 4.06379C18.9628 4.28673 19.0651 4.75046 18.8421 5.09956L18.2103 6.08892C17.9874 6.43802 17.5237 6.54029 17.1746 6.31736C16.8255 6.09442 16.7232 5.63069 16.9461 5.28159L17.5779 4.29223C17.8009 3.94313 18.2646 3.84085 18.6137 4.06379ZM22.3181 9.36607C22.4073 9.77056 22.1517 10.1708 21.7472 10.26L20.6009 10.5128C20.1964 10.602 19.7962 10.3465 19.707 9.94197C19.6177 9.53747 19.8733 9.13725 20.2778 9.04804L21.4242 8.7952C21.8287 8.70599 22.2289 8.96158 22.3181 9.36607Z" fill="#000000" />
<path fill-rule="evenodd" clip-rule="evenodd" d="M7.08888 14.8723C7.17809 15.2768 6.92251 15.677 6.51801 15.7662L5.37165 16.0191C4.96716 16.1083 4.56693 15.8527 4.47772 15.4482C4.38851 15.0437 4.6441 14.6435 5.04859 14.5543L6.19495 14.3015C6.59944 14.2122 6.99967 14.4678 7.08888 14.8723ZM9.62128 18.4969C9.97038 18.7199 10.0727 19.1836 9.84972 19.5327L9.21791 20.5221C8.99498 20.8712 8.53125 20.9734 8.18215 20.7505C7.83305 20.5276 7.73077 20.0638 7.95371 19.7147L8.58551 18.7254C8.80845 18.3763 9.27218 18.274 9.62128 18.4969Z" fill="#000000" />
<path fill-rule="evenodd" clip-rule="evenodd" d="M7.54236 4.48143C7.2119 4.91815 7.08244 5.44384 7.08244 5.74342C7.08244 6.15503 6.75071 6.48972 6.33912 6.49339C5.86892 6.49758 5.48536 6.65594 5.22499 6.9045C4.97098 7.14698 4.78516 7.52138 4.78516 8.06195C4.78516 8.69418 5.15535 9.23922 5.69201 9.48854C5.93406 9.58304 6.16986 9.6156 6.33456 9.6156H11.82C11.9801 9.6156 12.2152 9.58163 12.4556 9.48632C12.9942 9.23713 13.3659 8.69265 13.3659 8.06195C13.3659 7.52154 13.18 7.14715 12.9258 6.90461C12.6652 6.65596 12.2814 6.49758 11.8112 6.49339C11.3996 6.48972 11.0679 6.15503 11.0679 5.74342C11.0679 5.44384 10.9384 4.91815 10.6079 4.48143C10.3006 4.0753 9.82671 3.75 9.07515 3.75C8.32359 3.75 7.84968 4.0753 7.54236 4.48143ZM6.34622 3.57631C6.90392 2.83929 7.80136 2.25 9.07515 2.25C10.3489 2.25 11.2464 2.83929 11.8041 3.57631C12.1598 4.04646 12.3804 4.57844 12.4881 5.0629C13.0404 5.17619 13.5511 5.42798 13.9613 5.81939C14.5383 6.37 14.8659 7.14921 14.8659 8.06195C14.8659 9.30847 14.1232 10.3792 13.0599 10.8593C13.0511 10.8633 13.0422 10.8671 13.0333 10.8708C12.6014 11.0461 12.1681 11.1156 11.82 11.1156H6.33456C5.99002 11.1156 5.55673 11.0504 5.11862 10.8748C5.10856 10.8708 5.09859 10.8665 5.08871 10.8621C4.02289 10.3802 3.28516 9.30629 3.28516 8.06195C3.28516 7.14937 3.61239 6.37017 4.18924 5.8195C4.59933 5.42803 5.10997 5.17621 5.66221 5.0629C5.76993 4.57845 5.99045 4.04647 6.34622 3.57631Z" fill="#000000" />
<path fill-rule="evenodd" clip-rule="evenodd" d="M15.4613 15.1157C15.1308 15.5524 15.0014 16.0781 15.0014 16.3777C15.0014 16.7893 14.6697 17.124 14.2581 17.1277C13.7879 17.1319 13.4043 17.2902 13.1439 17.5388C12.8899 17.7813 12.7041 18.1557 12.7041 18.6962C12.7041 19.3285 13.0743 19.8735 13.611 20.1228C13.853 20.2173 14.0888 20.2499 14.2535 20.2499H19.7389C19.8991 20.2499 20.1341 20.2159 20.3745 20.1206C20.9131 19.8714 21.2848 19.3269 21.2848 18.6962C21.2848 18.1558 21.0989 17.7814 20.8447 17.5389C20.5841 17.2902 20.2004 17.1319 19.7301 17.1277C19.3185 17.124 18.9868 16.7893 18.9868 16.3777C18.9868 16.0781 18.8573 15.5524 18.5269 15.1157C18.2196 14.7096 17.7457 14.3843 16.9941 14.3843C16.2425 14.3843 15.7686 14.7096 15.4613 15.1157ZM14.2652 14.2106C14.8229 13.4736 15.7203 12.8843 16.9941 12.8843C18.2679 12.8843 19.1653 13.4736 19.723 14.2106C20.0788 14.6807 20.2993 15.2127 20.407 15.6972C20.9593 15.8105 21.4701 16.0623 21.8802 16.4537C22.4573 17.0043 22.7848 17.7835 22.7848 18.6962C22.7848 19.9427 22.0422 21.0134 20.9788 21.4936C20.97 21.4976 20.9612 21.5014 20.9522 21.505C20.5203 21.6803 20.0871 21.7499 19.7389 21.7499H14.2535C13.909 21.7499 13.4757 21.6847 13.0376 21.5091C13.0275 21.505 13.0175 21.5008 13.0077 21.4963C11.9418 21.0145 11.2041 19.9406 11.2041 18.6962C11.2041 17.7836 11.5313 17.0044 12.1082 16.4538C12.5183 16.0623 13.0289 15.8105 13.5812 15.6972C13.6889 15.2127 13.9094 14.6807 14.2652 14.2106Z" fill="#000000" />
<path fill-rule="evenodd" clip-rule="evenodd" d="M13.3939 7.95306C13.4765 7.54717 13.8725 7.28513 14.2784 7.36776C16.8566 7.89267 18.5936 10.3558 18.189 12.9831C18.1439 13.2757 18.074 13.5589 17.9815 13.8308C17.8481 14.2229 17.4221 14.4326 17.0299 14.2992C16.6378 14.1658 16.428 13.7398 16.5614 13.3476C16.6258 13.1584 16.6748 12.9604 16.7065 12.7548C16.9886 10.9226 15.777 9.20364 13.9792 8.83761C13.5733 8.75497 13.3113 8.35895 13.3939 7.95306Z" fill="#000000" />
<path fill-rule="evenodd" clip-rule="evenodd" d="M9.80934 9.7341C10.1831 9.91267 10.3413 10.3604 10.1627 10.7342C10.0204 11.032 9.91842 11.3561 9.86527 11.7012C9.57427 13.5907 10.8694 15.358 12.7586 15.649C13.0406 15.6924 13.3188 15.7005 13.5893 15.6769C14.0019 15.641 14.3656 15.9463 14.4015 16.359C14.4375 16.7716 14.1321 17.1353 13.7194 17.1712C13.3304 17.2051 12.9318 17.1933 12.5303 17.1315C9.82198 16.7144 7.96571 14.1808 8.38274 11.4729C8.45847 10.9812 8.60442 10.5162 8.80928 10.0875C8.98786 9.71374 9.4356 9.55552 9.80934 9.7341Z" fill="#000000" />
</svg>