<svg width="24px"  height="24px"  viewBox="0 0 25 24" fill="none" xmlns="http://www.w3.org/2000/svg">
<path fill-rule="evenodd" clip-rule="evenodd" d="M19.4065 9.54561C19.801 9.41943 20.2232 9.63697 20.3493 10.0315C20.6021 10.8218 20.7383 11.6634 20.7383 12.5354C20.7383 17.0706 17.0618 20.7471 12.5265 20.7471C10.6415 20.7471 8.90299 20.1111 7.51672 19.0423C7.18868 18.7894 7.12777 18.3185 7.38067 17.9904C7.63358 17.6624 8.10453 17.6015 8.43257 17.8544C9.56564 18.7279 10.9844 19.2471 12.5265 19.2471C16.2333 19.2471 19.2383 16.2422 19.2383 12.5354C19.2383 11.8203 19.1267 11.1328 18.9206 10.4884C18.7945 10.0939 19.012 9.6718 19.4065 9.54561Z" fill="#000000" />
<path fill-rule="evenodd" clip-rule="evenodd" d="M16.6286 5.31971C16.3673 5.66496 16.2666 6.0809 16.2666 6.30733C16.2666 6.71894 15.9348 7.05363 15.5233 7.0573C15.1548 7.06059 14.8631 7.18433 14.6692 7.36942C14.4817 7.54844 14.3369 7.83053 14.3369 8.25483C14.3369 8.73648 14.618 9.15166 15.0258 9.3427C15.213 9.41519 15.3946 9.43984 15.5184 9.43984H20.126C20.2453 9.43984 20.4263 9.41423 20.6125 9.34093C21.0223 9.14991 21.3044 8.73495 21.3044 8.25483C21.3044 7.83069 21.1596 7.54861 20.9719 7.36953C20.7779 7.18435 20.486 7.06059 20.1175 7.0573C19.7059 7.05363 19.3742 6.71894 19.3742 6.30733C19.3742 6.0809 19.2734 5.66496 19.0122 5.31971C18.7741 5.00505 18.4099 4.75293 17.8204 4.75293C17.2309 4.75293 16.8667 5.00505 16.6286 5.31971ZM15.4324 4.41459C15.9209 3.76904 16.7086 3.25293 17.8204 3.25293C18.9321 3.25293 19.7198 3.76904 20.2083 4.41459C20.4996 4.7996 20.6872 5.23214 20.7867 5.63468C21.242 5.74084 21.664 5.95655 22.0075 6.28431C22.518 6.77145 22.8044 7.45836 22.8044 8.25483C22.8044 9.35074 22.1514 10.2919 21.2168 10.714C21.208 10.7179 21.1992 10.7217 21.1902 10.7254C20.8125 10.8787 20.4332 10.9398 20.126 10.9398H15.5184C15.2148 10.9398 14.8356 10.8826 14.4523 10.729C14.4423 10.7249 14.4323 10.7207 14.4224 10.7162C13.4855 10.2926 12.8369 9.34856 12.8369 8.25483C12.8369 7.45852 13.1231 6.77162 13.6335 6.28442C13.9769 5.9566 14.3988 5.74086 14.854 5.63469C14.9536 5.23215 15.1411 4.7996 15.4324 4.41459Z" fill="#000000" />
<path fill-rule="evenodd" clip-rule="evenodd" d="M6.09635 13.5365C5.83511 13.8818 5.73434 14.2977 5.73434 14.5241C5.73434 14.9357 5.40262 15.2704 4.99103 15.2741C4.62253 15.2774 4.33088 15.4011 4.13699 15.5862C3.94946 15.7652 3.80469 16.0473 3.80469 16.4716C3.80469 16.9533 4.08573 17.3685 4.49358 17.5595C4.68073 17.632 4.86237 17.6566 4.98613 17.6566H9.59374C9.71308 17.6566 9.89409 17.631 10.0802 17.5577C10.4901 17.3667 10.7722 16.9517 10.7722 16.4716C10.7722 16.0475 10.6274 15.7654 10.4397 15.5863C10.2456 15.4011 9.95378 15.2774 9.58527 15.2741C9.17368 15.2704 8.84195 14.9357 8.84195 14.5241C8.84195 14.2977 8.74119 13.8818 8.47994 13.5365C8.24184 13.2218 7.87765 12.9697 7.28815 12.9697C6.69864 12.9697 6.33446 13.2218 6.09635 13.5365ZM4.90021 12.6314C5.3887 11.9858 6.17642 11.4697 7.28815 11.4697C8.39988 11.4697 9.1876 11.9858 9.67608 12.6314C9.96742 13.0164 10.155 13.4489 10.2545 13.8515C10.7097 13.9576 11.1317 14.1733 11.4752 14.5011C11.9858 14.9882 12.2722 15.6752 12.2722 16.4716C12.2722 17.5675 11.6192 18.5087 10.6846 18.9308C10.6758 18.9347 10.6669 18.9385 10.658 18.9422C10.2803 19.0955 9.90095 19.1566 9.59374 19.1566H4.98613C4.68261 19.1566 4.30337 19.0994 3.92012 18.9458C3.91006 18.9417 3.90008 18.9375 3.89021 18.933C2.95323 18.5094 2.30469 17.5654 2.30469 16.4716C2.30469 15.6753 2.59087 14.9884 3.10124 14.5012C3.44465 14.1734 3.8666 13.9577 4.32182 13.8515C4.42134 13.4489 4.60887 13.0164 4.90021 12.6314Z" fill="#000000" />
<path fill-rule="evenodd" clip-rule="evenodd" d="M4.31445 12.535C4.31445 7.99977 7.99098 4.32324 12.5262 4.32324C13.7272 4.32324 14.8699 4.58155 15.9001 5.04635C16.2777 5.2167 16.4457 5.66087 16.2753 6.03844C16.105 6.416 15.6608 6.58398 15.2832 6.41363C14.4431 6.03458 13.5103 5.82324 12.5262 5.82324C8.8194 5.82324 5.81445 8.82819 5.81445 12.535C5.81445 12.8874 5.84155 13.233 5.89364 13.5699C5.95694 13.9792 5.67641 14.3624 5.26706 14.4257C4.85771 14.489 4.47455 14.2084 4.41126 13.7991C4.34748 13.3866 4.31445 12.9644 4.31445 12.535Z" fill="#000000" />
</svg>