<svg width="24px"  height="24px"  viewBox="0 0 25 24" fill="none" xmlns="http://www.w3.org/2000/svg">
<path fill-rule="evenodd" clip-rule="evenodd" d="M17.7169 4.24951C18.1164 4.35896 18.3515 4.77155 18.242 5.17104L18.2365 5.19108C18.1271 5.59057 17.7145 5.82568 17.315 5.71623C16.9155 5.60677 16.6804 5.19418 16.7899 4.79469L16.7954 4.77465C16.9048 4.37516 17.3174 4.14005 17.7169 4.24951ZM12.7138 4.88577C13.0736 4.68068 13.5316 4.80617 13.7367 5.16605L13.7455 5.18152C13.9506 5.5414 13.8251 5.9994 13.4652 6.20448C13.1054 6.40957 12.6474 6.28408 12.4423 5.9242L12.4335 5.90873C12.2284 5.54885 12.3539 5.09086 12.7138 4.88577ZM21.718 7.33502C21.9231 7.69489 21.7977 8.15289 21.4378 8.35798L21.4014 8.3787C21.0415 8.5838 20.5836 8.45832 20.3785 8.09844C20.1734 7.73857 20.2988 7.28057 20.6587 7.07548L20.6951 7.05476C21.055 6.84967 21.513 6.97514 21.718 7.33502ZM20.8646 11.9563C20.9741 11.5569 21.3866 11.3217 21.7861 11.4312L21.8128 11.4385C22.2123 11.548 22.4475 11.9605 22.338 12.36C22.2286 12.7595 21.816 12.9946 21.4165 12.8852L21.3898 12.8779C20.9903 12.7684 20.7551 12.3558 20.8646 11.9563Z" fill="#000000" />
<path fill-rule="evenodd" clip-rule="evenodd" d="M15.9698 7.89404C14.9874 7.89404 14.126 8.41554 13.6487 9.20023C13.4334 9.55411 12.972 9.66646 12.6181 9.45117C12.2642 9.23589 12.1519 8.7745 12.3672 8.42063C13.1053 7.20728 14.4423 6.39404 15.9698 6.39404C18.2974 6.39404 20.1834 8.28095 20.1834 10.6076C20.1834 12.0658 19.4425 13.3507 18.3198 14.1062C17.9761 14.3375 17.5101 14.2464 17.2788 13.9027C17.0475 13.5591 17.1387 13.093 17.4823 12.8618C18.2084 12.3732 18.6834 11.5458 18.6834 10.6076C18.6834 9.10919 17.4688 7.89404 15.9698 7.89404Z" fill="#000000" />
<path fill-rule="evenodd" clip-rule="evenodd" d="M7.62944 9.63133C8.40187 8.62409 9.63175 7.82373 11.3891 7.82373C13.162 7.82373 14.3975 8.63815 15.1685 9.65672C15.7269 10.3943 16.0455 11.241 16.1711 11.9724C17.0262 12.1015 17.813 12.4624 18.4282 13.0494C19.21 13.7954 19.6638 14.859 19.6638 16.1302C19.6638 16.5444 19.3281 16.8802 18.9138 16.8802C18.4996 16.8802 18.1638 16.5444 18.1638 16.1302C18.1638 15.231 17.8514 14.5724 17.3926 14.1346C16.9274 13.6907 16.2607 13.4258 15.4774 13.4188C15.0659 13.4151 14.7342 13.0804 14.7342 12.6688C14.7342 12.1439 14.5163 11.2803 13.9726 10.562C13.452 9.87434 12.64 9.32373 11.3891 9.32373C10.1566 9.32373 9.35094 9.85825 8.83005 10.5307L8.51949 10.9781C8.28328 11.3184 7.81596 11.4027 7.4757 11.1665C7.13543 10.9303 7.05108 10.463 7.28728 10.1227L7.60848 9.66005C7.61524 9.65031 7.62222 9.64074 7.62944 9.63133Z" fill="#000000" />
<path fill-rule="evenodd" clip-rule="evenodd" d="M5.67749 11.04C6.19827 10.3518 7.03717 9.80176 8.22449 9.80176C9.41179 9.80176 10.2508 10.3518 10.7717 11.04C11.2694 11.6975 11.4835 12.485 11.4835 13.0607C11.4835 13.4749 11.1477 13.8107 10.7335 13.8107C10.3192 13.8107 9.98346 13.4749 9.98346 13.0607C9.98346 12.8002 9.86928 12.3331 9.5757 11.9453C9.30525 11.588 8.88976 11.3018 8.22449 11.3018C7.55925 11.3018 7.14392 11.588 6.87361 11.9452C6.58015 12.333 6.46603 12.8 6.46603 13.0607C6.46603 13.4723 6.13434 13.807 5.72278 13.8107C5.30685 13.8144 4.97208 13.9543 4.74698 14.169C4.52831 14.3776 4.36426 14.7027 4.36426 15.1814C4.36426 15.7363 4.69416 16.2157 5.17111 16.4313C5.54857 16.6019 5.71629 17.0461 5.54572 17.4236C5.37514 17.8011 4.93087 17.9688 4.55341 17.7982C3.55908 17.3489 2.86426 16.3471 2.86426 15.1814C2.86426 14.3304 3.16995 13.6004 3.7116 13.0837C4.08622 12.7263 4.54948 12.4938 5.04969 12.3842C5.1532 11.9433 5.35619 11.4646 5.67749 11.04Z" fill="#000000" />
<path fill-rule="evenodd" clip-rule="evenodd" d="M11.1735 16.2939C10.3895 16.2939 9.75391 16.9295 9.75391 17.7135C9.75391 18.1277 9.41812 18.4635 9.00391 18.4635C8.58969 18.4635 8.25391 18.1277 8.25391 17.7135C8.25391 16.1011 9.56104 14.7939 11.1735 14.7939C12.7859 14.7939 14.093 16.1011 14.093 17.7135C14.093 18.1277 13.7573 18.4635 13.343 18.4635C12.9288 18.4635 12.593 18.1277 12.593 17.7135C12.593 16.9295 11.9575 16.2939 11.1735 16.2939Z" fill="#000000" />
<path fill-rule="evenodd" clip-rule="evenodd" d="M13.8945 18.4639C13.5833 18.4639 13.3311 18.7161 13.3311 19.0273C13.3311 19.4415 12.9953 19.7773 12.5811 19.7773C12.1668 19.7773 11.8311 19.4415 11.8311 19.0273C11.8311 17.8877 12.7549 16.9639 13.8945 16.9639C15.0341 16.9639 15.958 17.8877 15.958 19.0273C15.958 19.4415 15.6222 19.7773 15.208 19.7773C14.7937 19.7773 14.458 19.4415 14.458 19.0273C14.458 18.7161 14.2057 18.4639 13.8945 18.4639Z" fill="#000000" />
<path fill-rule="evenodd" clip-rule="evenodd" d="M7.57005 7.18115C6.7872 7.18115 6.143 7.77859 6.06988 8.54188C6.03037 8.95421 5.6641 9.25644 5.25177 9.21694C4.83944 9.17744 4.53721 8.81116 4.57671 8.39883C4.72285 6.87346 6.00676 5.68115 7.57005 5.68115C9.23084 5.68115 10.5772 7.02749 10.5772 8.68829C10.5772 9.1025 10.2414 9.43829 9.82718 9.43829C9.41297 9.43829 9.07718 9.1025 9.07718 8.68829C9.07718 7.85592 8.40242 7.18115 7.57005 7.18115Z" fill="#000000" />
<path fill-rule="evenodd" clip-rule="evenodd" d="M4.79823 9.15869C4.55855 9.15869 4.36426 9.35299 4.36426 9.59266C4.36426 10.0069 4.02847 10.3427 3.61426 10.3427C3.20004 10.3427 2.86426 10.0069 2.86426 9.59266C2.86426 8.52456 3.73013 7.65869 4.79823 7.65869C5.63152 7.65869 6.33991 8.18534 6.61233 8.92146C6.75609 9.30993 6.55772 9.74138 6.16925 9.88514C5.78079 10.0289 5.34933 9.83053 5.20557 9.44206C5.14393 9.27549 4.98377 9.15869 4.79823 9.15869Z" fill="#000000" />
</svg>