<svg width="24px"  height="24px"  viewBox="0 0 25 24" fill="none" xmlns="http://www.w3.org/2000/svg">
<path fill-rule="evenodd" clip-rule="evenodd" d="M10.6793 2.43212C11.0858 2.35244 11.4799 2.61737 11.5596 3.02385L11.8235 4.37013C11.9032 4.77661 11.6382 5.17071 11.2318 5.25039C10.8253 5.33006 10.4312 5.06514 10.3515 4.65866L10.0876 3.31238C10.0079 2.9059 10.2729 2.51179 10.6793 2.43212ZM17.994 3.90818C18.3377 4.13926 18.4291 4.60527 18.198 4.94903L17.4326 6.08757C17.2016 6.43134 16.7355 6.52268 16.3918 6.2916C16.048 6.06051 15.9567 5.59451 16.1878 5.25074L16.9531 4.1122C17.1842 3.76844 17.6502 3.67709 17.994 3.90818ZM4.46333 6.56086C4.69442 6.2171 5.16042 6.12575 5.50419 6.35684L6.64273 7.12219C6.98649 7.35327 7.07783 7.81928 6.84675 8.16304C6.61567 8.50681 6.14966 8.59815 5.8059 8.36706L4.66735 7.60171C4.32359 7.37063 4.23225 6.90462 4.46333 6.56086ZM22.1227 10.1247C22.2023 10.5312 21.9374 10.9253 21.5309 11.0049L20.1846 11.2688C19.7782 11.3485 19.3841 11.0836 19.3044 10.6771C19.2247 10.2706 19.4896 9.87652 19.8961 9.79684L21.2424 9.53295C21.6489 9.45328 22.043 9.7182 22.1227 10.1247ZM5.80508 13.3232C5.88475 13.7296 5.61983 14.1237 5.21335 14.2034L3.86706 14.4673C3.46058 14.547 3.06648 14.2821 2.9868 13.8756C2.90713 13.4691 3.17205 13.075 3.57853 12.9953L4.92482 12.7314C5.3313 12.6518 5.7254 12.9167 5.80508 13.3232ZM8.71773 17.7082C9.06149 17.9393 9.15284 18.4053 8.92175 18.749L8.1564 19.8876C7.92532 20.2313 7.45931 20.3227 7.11555 20.0916C6.77178 19.8605 6.68044 19.3945 6.91153 19.0507L7.67688 17.9122C7.90796 17.5684 8.37397 17.4771 8.71773 17.7082Z" fill="#000000" />
<path fill-rule="evenodd" clip-rule="evenodd" d="M12.5549 8.55469C10.6516 8.55469 9.10938 10.0976 9.10938 12.0002C9.10938 13.1862 9.7074 14.2325 10.6217 14.8537C10.9643 15.0865 11.0533 15.5529 10.8205 15.8955C10.5878 16.2382 10.1213 16.3272 9.7787 16.0944C8.4708 15.2058 7.60938 13.7037 7.60938 12.0002C7.60938 9.26941 9.8229 7.05469 12.5549 7.05469C14.7348 7.05469 16.5829 8.46436 17.242 10.4191C17.3744 10.8116 17.1635 11.2371 16.771 11.3694C16.3785 11.5018 15.953 11.2909 15.8207 10.8984C15.3609 9.53502 14.0717 8.55469 12.5549 8.55469Z" fill="#000000" />
<path fill-rule="evenodd" clip-rule="evenodd" d="M15.7806 14.7441C15.4502 15.1808 15.3207 15.7065 15.3207 16.0061C15.3207 16.4177 14.989 16.7524 14.5774 16.7561C14.1072 16.7603 13.7236 16.9186 13.4633 17.1672C13.2093 17.4097 13.0234 17.7841 13.0234 18.3246C13.0234 18.9569 13.3936 19.5019 13.9303 19.7512C14.1723 19.8457 14.4081 19.8783 14.5728 19.8783H20.0583C20.2184 19.8783 20.4535 19.8443 20.6939 19.749C21.2324 19.4998 21.6041 18.9553 21.6041 18.3246C21.6041 17.7842 21.4182 17.4098 21.1641 17.1673C20.9035 16.9187 20.5197 16.7603 20.0495 16.7561C19.6379 16.7524 19.3061 16.4177 19.3061 16.0061C19.3061 15.7065 19.1767 15.1808 18.8462 14.7441C18.5389 14.338 18.065 14.0127 17.3134 14.0127C16.5619 14.0127 16.088 14.338 15.7806 14.7441ZM14.5845 13.839C15.1422 13.102 16.0396 12.5127 17.3134 12.5127C18.5872 12.5127 19.4847 13.102 20.0424 13.839C20.3981 14.3092 20.6186 14.8411 20.7264 15.3256C21.2786 15.4389 21.7894 15.6907 22.1996 16.0821C22.7766 16.6327 23.1041 17.4119 23.1041 18.3246C23.1041 19.5712 22.3615 20.6419 21.2982 21.122C21.2894 21.126 21.2805 21.1298 21.2716 21.1335C20.8396 21.3087 20.4064 21.3783 20.0583 21.3783H14.5728C14.2283 21.3783 13.795 21.3131 13.3569 21.1375C13.3468 21.1335 13.3369 21.1292 13.327 21.1248C12.2612 20.6429 11.5234 19.569 11.5234 18.3246C11.5234 17.4121 11.8507 16.6329 12.4275 16.0822C12.8376 15.6907 13.3483 15.4389 13.9005 15.3256C14.0082 14.8411 14.2287 14.3092 14.5845 13.839Z" fill="#000000" />
</svg>