<svg width="24px"  height="24px"  viewBox="0 0 25 24" fill="none" xmlns="http://www.w3.org/2000/svg">
<path fill-rule="evenodd" clip-rule="evenodd" d="M15.7294 7.97998C18.5652 7.97998 20.864 10.2788 20.864 13.1146C20.864 15.9504 18.5652 18.2492 15.7294 18.2492H8.64113C6.8946 18.2492 5.47898 16.8335 5.47898 15.0873C5.47898 13.341 6.89461 11.9254 8.64113 11.9254C9.05409 11.9254 9.44682 12.0042 9.80674 12.147C10.0027 12.2248 10.2223 12.2165 10.4119 12.1241C10.6014 12.0318 10.7433 11.864 10.8028 11.6617C11.4296 9.5328 13.3993 7.97998 15.7294 7.97998ZM22.364 13.1146C22.364 9.45038 19.3936 6.47998 15.7294 6.47998C12.9821 6.47998 10.626 8.14942 9.61794 10.5281C9.30257 10.4607 8.97574 10.4254 8.64113 10.4254C6.06622 10.4254 3.97898 12.5126 3.97898 15.0873C3.97898 17.662 6.06623 19.7492 8.64113 19.7492H15.7294C19.3936 19.7492 22.364 16.7788 22.364 13.1146Z" fill="#000000" />
<path fill-rule="evenodd" clip-rule="evenodd" d="M7.47623 4.26676C7.87967 4.17286 8.28283 4.42379 8.37673 4.82722L8.38121 4.84649C8.47511 5.24992 8.22419 5.65308 7.82076 5.74698C7.41733 5.84088 7.01416 5.58995 6.92026 5.18652L6.91578 5.16726C6.82188 4.76383 7.0728 4.36066 7.47623 4.26676ZM12.2396 5.06119C12.5913 5.28006 12.6989 5.74257 12.48 6.09424L12.4711 6.10863C12.2522 6.46029 11.7897 6.56794 11.438 6.34906C11.0863 6.13018 10.9787 5.66767 11.1976 5.31601L11.2065 5.30161C11.4254 4.94995 11.8879 4.84231 12.2396 5.06119ZM3.53354 7.0705C3.75242 6.71884 4.21494 6.61121 4.5666 6.83009L4.60042 6.85115C4.95208 7.07004 5.05971 7.53255 4.84083 7.88421C4.62194 8.23586 4.15943 8.3435 3.80777 8.12461L3.77394 8.10355C3.42229 7.88467 3.31465 7.42215 3.53354 7.0705ZM4.24047 11.5093C4.33435 11.9127 4.0834 12.3159 3.67997 12.4098L3.65428 12.4158C3.25084 12.5096 2.84769 12.2587 2.75381 11.8552C2.65994 11.4518 2.91089 11.0487 3.31432 10.9548L3.34001 10.9488C3.74345 10.8549 4.1466 11.1059 4.24047 11.5093Z" fill="#000000" />
<path fill-rule="evenodd" clip-rule="evenodd" d="M8.9884 7.81738C9.90869 7.81738 10.7159 8.30478 11.1647 9.03895C11.3807 9.39236 11.8424 9.50371 12.1958 9.28766C12.5492 9.0716 12.6605 8.60997 12.4445 8.25656C11.7345 7.09528 10.4526 6.31738 8.9884 6.31738C6.75257 6.31738 4.94086 8.12993 4.94086 10.3649C4.94086 11.0808 5.12725 11.7553 5.45473 12.3403C5.65706 12.7018 6.11408 12.8308 6.47552 12.6284C6.83696 12.4261 6.96594 11.9691 6.76362 11.6077C6.55823 11.2407 6.44086 10.8177 6.44086 10.3649C6.44086 8.95816 7.58119 7.81738 8.9884 7.81738Z" fill="#000000" />
</svg>