<svg width="24px"  height="24px"  viewBox="0 0 25 24" fill="none" xmlns="http://www.w3.org/2000/svg">
<path fill-rule="evenodd" clip-rule="evenodd" d="M7.93013 8.35897C8.67759 7.3843 9.8681 6.60986 11.5675 6.60986C13.282 6.60986 14.478 7.39791 15.2241 8.38352C15.7183 9.03644 16.0183 9.77787 16.1587 10.4416C16.1702 10.4415 16.1816 10.4415 16.1931 10.4415C18.0984 10.4415 19.6429 11.986 19.6429 13.8912C19.6429 15.7964 18.0984 17.3409 16.1931 17.3409C15.7789 17.3409 15.4431 17.0051 15.4431 16.5909C15.4431 16.1767 15.7789 15.8409 16.1931 15.8409C17.2699 15.8409 18.1429 14.968 18.1429 13.8912C18.1429 12.8144 17.2699 11.9415 16.1931 11.9415C16.0658 11.9415 15.9414 11.9536 15.821 11.9769C15.7425 12.0134 15.6567 12.0368 15.5664 12.0442C15.281 12.1409 15.0254 12.3021 14.8161 12.5109C14.5228 12.8035 14.048 12.8029 13.7554 12.5097C13.4629 12.2165 13.4634 11.7416 13.7566 11.4491C14.0288 11.1775 14.3466 10.951 14.6974 10.7819C14.6047 10.3236 14.3937 9.77181 14.0281 9.28885C13.5324 8.63411 12.76 8.10986 11.5675 8.10986C10.7567 8.10986 10.1404 8.35222 9.67337 8.71283C10.2409 8.92762 10.6799 9.29396 10.9971 9.71308C11.4796 10.3504 11.6873 11.1137 11.6873 11.6733C11.6873 12.0875 11.3515 12.4233 10.9373 12.4233C10.5231 12.4233 10.1873 12.0875 10.1873 11.6733C10.1873 11.4289 10.0794 10.9861 9.80115 10.6184C9.546 10.2813 9.15474 10.0112 8.52526 10.0112C7.8958 10.0112 7.50469 10.2813 7.24967 10.6183C6.9715 10.9859 6.86371 11.4287 6.86371 11.6733C6.86371 12.0695 6.55552 12.3973 6.16007 12.4218L6.05668 12.4282C6.04125 12.4292 6.02579 12.4297 6.01032 12.4297C5.06833 12.4297 4.30469 13.1933 4.30469 14.1353C4.30469 15.0773 5.06833 15.8409 6.01032 15.8409C6.42453 15.8409 6.76032 16.1767 6.76032 16.5909C6.76032 17.0051 6.42453 17.3409 6.01032 17.3409C4.2399 17.3409 2.80469 15.9057 2.80469 14.1353C2.80469 12.5546 3.94884 11.241 5.45418 10.9777C5.55721 10.5608 5.75148 10.1123 6.05355 9.71317C6.4396 9.20302 7.00596 8.77106 7.76498 8.5954L7.90917 8.38769C7.91593 8.37795 7.92292 8.36838 7.93013 8.35897Z" fill="#000000" />
<path fill-rule="evenodd" clip-rule="evenodd" d="M7.82479 5.25049C6.76159 5.25049 5.88698 6.0618 5.78765 7.09859C5.74815 7.51091 5.38187 7.81315 4.96954 7.77365C4.55722 7.73414 4.25498 7.36787 4.29449 6.95554C4.46682 5.15667 5.98114 3.75049 7.82479 3.75049C9.78352 3.75049 11.3714 5.33835 11.3714 7.29708C11.3714 7.71129 11.0356 8.04708 10.6214 8.04708C10.2072 8.04708 9.87138 7.71129 9.87138 7.29708C9.87138 6.16678 8.95509 5.25049 7.82479 5.25049Z" fill="#000000" />
<path fill-rule="evenodd" clip-rule="evenodd" d="M5.12804 7.79214C4.73278 7.72728 4.35977 7.99512 4.2949 8.39038C4.22783 8.79913 3.84209 9.07611 3.43335 9.00903C3.0246 8.94195 2.74762 8.55622 2.8147 8.14747C3.01372 6.93472 4.15819 6.11292 5.37095 6.31194C6.10264 6.43201 6.69179 6.89696 6.99975 7.51007C7.18567 7.88021 7.03632 8.33099 6.66618 8.51691C6.29603 8.70283 5.84525 8.55348 5.65933 8.18334C5.55767 7.98093 5.36579 7.83116 5.12804 7.79214Z" fill="#000000" />
<path fill-rule="evenodd" clip-rule="evenodd" d="M13.3973 15.231C14.5554 15.231 15.4941 16.1697 15.4941 17.3278C15.4941 18.4858 14.5554 19.4246 13.3973 19.4246H9.96825C9.33715 19.4246 8.82568 18.913 8.82568 18.2821C8.82568 17.6511 9.33716 17.1396 9.96825 17.1396C10.1183 17.1396 10.2599 17.1682 10.3893 17.2196C10.5853 17.2973 10.8049 17.289 10.9945 17.1967C11.184 17.1043 11.3259 16.9365 11.3854 16.7342C11.6415 15.8646 12.4464 15.231 13.3973 15.231ZM16.9941 17.3278C16.9941 15.3413 15.3838 13.731 13.3973 13.731C12.0157 13.731 10.8172 14.5096 10.2146 15.651C10.1334 15.6435 10.0512 15.6396 9.96825 15.6396C8.50877 15.6396 7.32568 16.8227 7.32568 18.2821C7.32568 19.7415 8.50879 20.9246 9.96825 20.9246H13.3973C15.3838 20.9246 16.9941 19.3142 16.9941 17.3278Z" fill="#000000" />
<path fill-rule="evenodd" clip-rule="evenodd" d="M17.6324 3.17919C18.0319 3.28865 18.267 3.70123 18.1576 4.10072L18.1524 4.11973C18.0429 4.51921 17.6303 4.75433 17.2308 4.64487C16.8313 4.53542 16.5962 4.12283 16.7057 3.72334L16.7109 3.70434C16.8204 3.30485 17.2329 3.06973 17.6324 3.17919ZM12.8593 3.78618C13.2191 3.58109 13.6771 3.70658 13.8822 4.06645L13.8906 4.08113C14.0957 4.441 13.9702 4.899 13.6103 5.10408C13.2504 5.30917 12.7924 5.18368 12.5873 4.8238L12.579 4.80913C12.3739 4.44925 12.4994 3.99126 12.8593 3.78618ZM21.4496 6.12292C21.6547 6.4828 21.5292 6.94079 21.1693 7.14588L21.1348 7.16553C20.775 7.37062 20.317 7.24515 20.1119 6.88527C19.9068 6.52539 20.0323 6.0674 20.3921 5.86231L20.4266 5.84266C20.7865 5.63757 21.2445 5.76305 21.4496 6.12292ZM20.5691 10.5135C20.6785 10.114 21.0911 9.87892 21.4906 9.98837L21.5159 9.99531C21.9154 10.1048 22.1505 10.5173 22.0411 10.9168C21.9316 11.3163 21.5191 11.5514 21.1196 11.442L21.0942 11.4351C20.6947 11.3256 20.4596 10.913 20.5691 10.5135Z" fill="#000000" />
<path fill-rule="evenodd" clip-rule="evenodd" d="M15.9656 6.71094C15.0483 6.71094 14.2439 7.19782 13.7981 7.9307C13.5828 8.28457 13.1214 8.39692 12.7675 8.18164C12.4137 7.96635 12.3013 7.50496 12.5166 7.15109C13.2232 5.98956 14.5031 5.21094 15.9656 5.21094C18.1939 5.21094 19.9996 7.0174 19.9996 9.24488C19.9996 10.5339 19.3944 11.682 18.4556 12.4195C18.1298 12.6753 17.6583 12.6187 17.4025 12.2929C17.1466 11.9672 17.2033 11.4957 17.529 11.2398C18.1213 10.7746 18.4996 10.0542 18.4996 9.24488C18.4996 7.84563 17.3653 6.71094 15.9656 6.71094Z" fill="#000000" />
</svg>