<svg width="24px"  height="24px"  viewBox="0 0 25 24" fill="none" xmlns="http://www.w3.org/2000/svg">
<path fill-rule="evenodd" clip-rule="evenodd" d="M12.5616 2.48047C12.9758 2.48047 13.3116 2.81626 13.3116 3.23047V3.26241C13.3116 3.67663 12.9758 4.01241 12.5616 4.01241C12.1474 4.01241 11.8116 3.67663 11.8116 3.26241V3.23047C11.8116 2.81626 12.1474 2.48047 12.5616 2.48047ZM19.4623 5.31183C19.7552 5.60473 19.7552 6.0796 19.4623 6.37249L19.4168 6.41799C19.1239 6.71088 18.6491 6.71088 18.3562 6.41799C18.0633 6.1251 18.0633 5.65023 18.3562 5.35733L18.4017 5.31184C18.6946 5.01894 19.1694 5.01894 19.4623 5.31183ZM5.68714 5.33813C5.98004 5.04524 6.45491 5.04524 6.7478 5.33814L6.76716 5.3575C7.06005 5.65039 7.06005 6.12527 6.76715 6.41816C6.47426 6.71105 5.99939 6.71105 5.70649 6.41815L5.68713 6.39879C5.39424 6.1059 5.39425 5.63102 5.68714 5.33813ZM2.80469 12.2253C2.80469 11.8111 3.14047 11.4753 3.55469 11.4753H3.60405C4.01827 11.4753 4.35405 11.8111 4.35405 12.2253C4.35405 12.6396 4.01827 12.9753 3.60405 12.9753H3.55469C3.14047 12.9753 2.80469 12.6396 2.80469 12.2253ZM20.7621 12.2253C20.7621 11.8111 21.0979 11.4753 21.5121 11.4753H21.5547C21.9689 11.4753 22.3047 11.8111 22.3047 12.2253C22.3047 12.6396 21.9689 12.9753 21.5547 12.9753H21.5121C21.0979 12.9753 20.7621 12.6396 20.7621 12.2253ZM18.3562 18.0204C18.6491 17.7275 19.1239 17.7275 19.4168 18.0204L19.4623 18.0659C19.7552 18.3588 19.7552 18.8337 19.4623 19.1266C19.1694 19.4195 18.6945 19.4195 18.4017 19.1266L18.3562 19.0811C18.0633 18.7882 18.0633 18.3133 18.3562 18.0204Z" fill="#000000" />
<path fill-rule="evenodd" clip-rule="evenodd" d="M16.6327 11.3215C16.1396 9.06994 13.9146 7.64368 11.6623 8.13689C9.40972 8.63014 7.98367 10.8561 8.47667 13.1075C8.56527 13.5121 8.30908 13.912 7.90446 14.0006C7.49983 14.0892 7.09999 13.833 7.01139 13.4283C6.34114 10.3675 8.27979 7.34202 11.3414 6.67161C14.4032 6.00115 17.4277 7.94001 18.0979 11.0007C18.7683 14.0622 16.831 17.0877 13.7691 17.7582C13.3644 17.8468 12.9646 17.5906 12.876 17.1859C12.7874 16.7813 13.0436 16.3815 13.4482 16.2929C15.7005 15.7997 17.1259 13.5742 16.6327 11.3215Z" fill="#000000" />
<path fill-rule="evenodd" clip-rule="evenodd" d="M5.93971 13.821C6.5083 13.0696 7.42301 12.4688 8.72229 12.4688C10.0216 12.4688 10.9363 13.0696 11.5049 13.821C11.8708 14.3046 12.0965 14.8524 12.2054 15.3496C12.7729 15.464 13.2976 15.7214 13.7182 16.1229C14.3055 16.6835 14.6392 17.4773 14.6392 18.4081C14.6392 19.6762 13.8874 20.7705 12.8013 21.2615C12.7914 21.266 12.7815 21.2702 12.7714 21.2743C12.3247 21.4533 11.8829 21.5198 11.5319 21.5198H5.90835C5.55379 21.5198 5.11206 21.4489 4.67162 21.2702C4.66268 21.2665 4.6538 21.2627 4.645 21.2588C3.56141 20.7694 2.80469 19.6783 2.80469 18.4081C2.80469 17.4771 3.13868 16.6834 3.72616 16.1228C4.14685 15.7214 4.6716 15.4639 5.23923 15.3496C5.3481 14.8524 5.57374 14.3046 5.93971 13.821ZM7.13586 14.7261C6.79451 15.1772 6.66053 15.7201 6.66053 16.0312C6.66053 16.4428 6.3288 16.7775 5.91721 16.7812C5.43099 16.7855 5.03273 16.9494 4.76169 17.208C4.49704 17.4605 4.30469 17.8494 4.30469 18.4081C4.30469 19.0625 4.69047 19.6274 5.24932 19.8857C5.49823 19.9845 5.74177 20.0198 5.90835 20.0198H11.5319C11.703 20.0198 11.9473 19.986 12.198 19.888C12.755 19.6295 13.1392 19.0641 13.1392 18.4081C13.1392 17.8493 12.9469 17.4604 12.6824 17.2079C12.4116 16.9494 12.0136 16.7855 11.5274 16.7812C11.1158 16.7775 10.7841 16.4428 10.7841 16.0312C10.7841 15.7201 10.6501 15.1772 10.3087 14.7261C9.99052 14.3056 9.49935 13.9688 8.72229 13.9688C7.94524 13.9688 7.45406 14.3056 7.13586 14.7261Z" fill="#000000" />
</svg>