<svg width="24px"  height="24px"  viewBox="0 0 25 24" fill="none" xmlns="http://www.w3.org/2000/svg">
<path fill-rule="evenodd" clip-rule="evenodd" d="M11.3168 8.12282C11.513 8.48762 11.3764 8.9424 11.0116 9.13859C9.90225 9.73518 9.23438 10.9331 9.30905 12.1891C9.33364 12.6026 9.01837 12.9578 8.60489 12.9823C8.1914 13.0069 7.83628 12.6917 7.8117 12.2782C7.70236 10.4391 8.67711 8.6909 10.3011 7.81752C10.6659 7.62133 11.1207 7.75801 11.3168 8.12282Z" fill="#000000" />
<path fill-rule="evenodd" clip-rule="evenodd" d="M12.6915 2.2627C13.0987 2.3382 13.3677 2.72956 13.2922 3.13684C12.8457 5.54538 10.4332 6.80716 8.32862 6.18334C8.28682 7.79039 7.23219 9.24196 5.71672 9.77832C6.96037 11.5872 6.50585 14.2715 4.35315 15.4404C3.98914 15.638 3.53382 15.5032 3.33616 15.1392C3.1385 14.7752 3.27336 14.3198 3.63737 14.1222C5.32062 13.2082 5.32062 10.7921 3.63737 9.87808C3.31969 9.70558 3.17026 9.33102 3.28197 8.98722C3.39367 8.64342 3.73473 8.42822 4.09313 8.47539C5.99215 8.72533 7.41229 6.77068 6.58775 5.04184C6.43214 4.71556 6.53141 4.3247 6.82386 4.11222C7.11632 3.89974 7.51872 3.92611 7.78095 4.17493C9.17037 5.49335 11.4682 4.74674 11.8173 2.86343C11.8928 2.45616 12.2842 2.1872 12.6915 2.2627Z" fill="#000000" />
<path fill-rule="evenodd" clip-rule="evenodd" d="M18.2075 4.26907C18.4487 4.58781 18.5411 4.97193 18.5411 5.17717C18.5411 5.58877 18.8729 5.92347 19.2845 5.92714C19.6235 5.93016 19.8885 6.04387 20.0631 6.21057C20.2314 6.37119 20.3643 6.62654 20.3643 7.01714C20.3643 7.45514 20.1091 7.83269 19.7385 8.00684C19.5673 8.07295 19.4014 8.09531 19.2895 8.09531H14.9362C14.8287 8.09531 14.6634 8.07212 14.4929 8.00521C14.1204 7.83105 13.8643 7.45362 13.8643 7.01714C13.8643 6.6267 13.9972 6.37137 14.1656 6.21068C14.3404 6.04389 14.6056 5.93016 14.9446 5.92714C15.3562 5.92347 15.6879 5.58877 15.6879 5.17717C15.6879 4.97193 15.7804 4.58781 16.0216 4.26907C16.2396 3.98091 16.572 3.75 17.1145 3.75C17.6571 3.75 17.9895 3.98091 18.2075 4.26907ZM19.4037 3.36395C18.9352 2.7449 18.1793 2.25 17.1145 2.25C16.0498 2.25 15.2939 2.7449 14.8254 3.36395C14.5526 3.7245 14.3748 4.12859 14.278 4.50719C13.8506 4.611 13.4542 4.81616 13.13 5.12546C12.6388 5.59421 12.3643 6.25437 12.3643 7.01714C12.3643 8.0694 12.9913 8.97303 13.8885 9.37823C13.8973 9.38221 13.9062 9.38601 13.9152 9.38964C14.2772 9.53658 14.6409 9.59531 14.9362 9.59531H19.2895C19.5811 9.59531 19.9447 9.54035 20.312 9.3931C20.3221 9.38907 20.3321 9.38482 20.3419 9.38035C21.2416 8.97366 21.8643 8.06722 21.8643 7.01714C21.8643 6.25453 21.59 5.59438 21.0989 5.12557C20.7748 4.81621 20.3784 4.61102 19.9511 4.5072C19.8543 4.1286 19.6765 3.7245 19.4037 3.36395Z" fill="#000000" />
<path fill-rule="evenodd" clip-rule="evenodd" d="M9.08837 16.4239C9.32956 16.7426 9.422 17.1267 9.422 17.332C9.422 17.7436 9.75373 18.0783 10.1653 18.0819C10.5043 18.0849 10.7694 18.1987 10.944 18.3654C11.1122 18.526 11.2451 18.7813 11.2451 19.1719C11.2451 19.6099 10.9899 19.9875 10.6194 20.1616C10.4482 20.2277 10.2822 20.2501 10.1703 20.2501H5.8171C5.70957 20.2501 5.54424 20.2269 5.37381 20.16C5.00124 19.9858 4.74512 19.6084 4.74512 19.1719C4.74512 18.7815 4.87802 18.5262 5.04642 18.3655C5.22122 18.1987 5.48644 18.0849 5.82548 18.0819C6.23706 18.0783 6.56879 17.7436 6.56879 17.332C6.56879 17.1267 6.66124 16.7426 6.90243 16.4239C7.12047 16.1357 7.45286 15.9048 7.9954 15.9048C8.53794 15.9048 8.87032 16.1357 9.08837 16.4239ZM10.2845 15.5187C9.81608 14.8997 9.06016 14.4048 7.9954 14.4048C6.93063 14.4048 6.17471 14.8997 5.70628 15.5187C5.43346 15.8793 5.25564 16.2834 5.15882 16.662C4.73149 16.7658 4.33504 16.9709 4.0109 17.2802C3.51966 17.749 3.24512 18.4092 3.24512 19.1719C3.24512 20.2242 3.87212 21.1278 4.76941 21.533C4.77821 21.537 4.78709 21.5408 4.79603 21.5444C5.15808 21.6914 5.52175 21.7501 5.8171 21.7501H10.1703C10.4619 21.7501 10.8255 21.6951 11.1929 21.5479C11.2029 21.5439 11.2129 21.5396 11.2228 21.5351C12.1224 21.1284 12.7451 20.222 12.7451 19.1719C12.7451 18.4093 12.4708 17.7492 11.9797 17.2804C11.6557 16.971 11.2593 16.7658 10.832 16.662C10.7352 16.2834 10.5573 15.8793 10.2845 15.5187Z" fill="#000000" />
<path fill-rule="evenodd" clip-rule="evenodd" d="M16.5081 11.0335C16.9217 11.0106 17.2755 11.3273 17.2984 11.7409C17.4183 13.906 16.036 15.9441 13.8622 16.5663C13.464 16.6803 13.0488 16.4499 12.9348 16.0516C12.8208 15.6534 13.0512 15.2382 13.4494 15.1242C14.9351 14.6989 15.8827 13.3052 15.8007 11.8238C15.7778 11.4102 16.0945 11.0564 16.5081 11.0335Z" fill="#000000" />
<path fill-rule="evenodd" clip-rule="evenodd" d="M19.5483 10.9372C19.9605 10.9778 20.2618 11.3448 20.2213 11.757C20.131 12.6752 20.5495 13.6214 21.4718 14.1222C21.7895 14.2947 21.9389 14.6693 21.8272 15.0131C21.7155 15.3569 21.3744 15.5721 21.016 15.5249C19.117 15.275 17.6969 17.2296 18.5214 18.9585C18.677 19.2848 18.5778 19.6756 18.2853 19.8881C17.9929 20.1006 17.5905 20.0742 17.3282 19.8254C16.7456 19.2725 16.0131 19.084 15.3244 19.1856C14.9146 19.246 14.5334 18.9629 14.473 18.5531C14.4125 18.1433 14.6957 17.7621 15.1055 17.7017C15.657 17.6203 16.2294 17.6551 16.7805 17.8184C16.8218 16.2104 17.877 14.7579 19.3935 14.2216C18.8611 13.4467 18.6398 12.5121 18.7285 11.6103C18.769 11.198 19.136 10.8967 19.5483 10.9372Z" fill="#000000" />
</svg>