<svg width="24px"  height="24px"  viewBox="0 0 25 24" fill="none" xmlns="http://www.w3.org/2000/svg">
<path fill-rule="evenodd" clip-rule="evenodd" d="M9.3983 5.45147C9.71493 5.86991 9.83866 6.37367 9.83866 6.65865C9.83866 7.07025 10.1704 7.40495 10.582 7.40862C11.0319 7.41263 11.3971 7.56407 11.6441 7.79995C11.8849 8.02975 12.0625 8.38571 12.0625 8.90305C12.0625 9.5052 11.7101 10.0243 11.1992 10.262C10.9681 10.3521 10.7431 10.3831 10.5866 10.3831H5.27654C5.12455 10.3831 4.9003 10.3508 4.67075 10.2599C4.15787 10.0223 3.80408 9.50367 3.80408 8.90305C3.80408 8.38587 3.98176 8.02992 4.22266 7.80006C4.46995 7.56409 4.83538 7.41263 5.28528 7.40862C5.69687 7.40495 6.0286 7.07025 6.0286 6.65865C6.0286 6.37367 6.15233 5.86991 6.46896 5.45147C6.76245 5.06361 7.21445 4.75293 7.93363 4.75293C8.65282 4.75293 9.10481 5.06361 9.3983 5.45147ZM10.5944 4.54635C10.0506 3.8276 9.17504 3.25293 7.93363 3.25293C6.69222 3.25293 5.81669 3.8276 5.27282 4.54635C4.92999 4.99941 4.716 5.51138 4.6098 5.97955C4.07697 6.09152 3.58401 6.33614 3.18713 6.71484C2.62339 7.25277 2.30408 8.01354 2.30408 8.90305C2.30408 10.1195 3.02879 11.1643 4.06641 11.6329C4.07521 11.6368 4.08408 11.6406 4.09303 11.6443C4.51412 11.8152 4.93659 11.8831 5.27654 11.8831H10.5866C10.923 11.8831 11.3454 11.8195 11.7726 11.6482C11.7827 11.6442 11.7926 11.64 11.8025 11.6355C12.8426 11.1653 13.5625 10.1173 13.5625 8.90305C13.5625 8.0137 13.2435 7.25294 12.6799 6.71495C12.2831 6.33619 11.7903 6.09154 11.2575 5.97955C11.1513 5.51138 10.9373 4.99941 10.5944 4.54635Z" fill="#000000" />
<path fill-rule="evenodd" clip-rule="evenodd" d="M16.6825 17.8505C14.0506 19.8864 10.2519 19.6963 7.83686 17.2813C6.22042 15.6648 5.60015 13.4293 5.9785 11.3353C6.05215 10.9277 5.78142 10.5376 5.3738 10.4639C4.96619 10.3903 4.57605 10.661 4.5024 11.0686C4.04038 13.6257 4.79749 16.3632 6.7762 18.3419C9.73187 21.2976 14.3789 21.5289 17.6003 19.037C17.9279 18.7835 17.9881 18.3125 17.7346 17.9848C17.4812 17.6572 17.0101 17.5971 16.6825 17.8505Z" fill="#000000" />
<path fill-rule="evenodd" clip-rule="evenodd" d="M20.0317 13.4149C20.4458 13.4221 20.7874 13.0922 20.7946 12.678C20.8317 10.5303 20.0304 8.36822 18.3906 6.72848C16.1442 4.48206 12.9209 3.8103 10.0915 4.7091C9.69672 4.83451 9.47835 5.2562 9.60376 5.65097C9.72917 6.04574 10.1509 6.26411 10.5456 6.1387C12.8618 5.40292 15.4953 5.95443 17.33 7.78914C18.6703 9.12951 19.3252 10.8943 19.2948 12.6521C19.2876 13.0662 19.6175 13.4078 20.0317 13.4149Z" fill="#000000" />
<path fill-rule="evenodd" clip-rule="evenodd" d="M18.9551 13.2236C20.1762 13.2236 21.166 14.2135 21.166 15.4345C21.166 16.6556 20.1762 17.6454 18.9551 17.6454H15.3886C14.7156 17.6454 14.1701 17.0999 14.1701 16.4271C14.1701 15.7543 14.7156 15.2088 15.3886 15.2088C15.5485 15.2088 15.6995 15.2392 15.8376 15.2941C16.0336 15.3718 16.2532 15.3635 16.4428 15.2712C16.6323 15.1788 16.7742 15.011 16.8337 14.8087C17.1037 13.8918 17.9524 13.2236 18.9551 13.2236ZM22.666 15.4345C22.666 13.385 21.0046 11.7236 18.9551 11.7236C17.5225 11.7236 16.2807 12.535 15.6621 13.7224C15.572 13.7134 15.4808 13.7088 15.3886 13.7088C13.8872 13.7088 12.6701 14.9258 12.6701 16.4271C12.6701 17.9284 13.8872 19.1454 15.3886 19.1454H18.9551C21.0046 19.1454 22.666 17.484 22.666 15.4345Z" fill="#000000" />
</svg>