<svg width="24px"  height="24px"  viewBox="0 0 25 24" fill="none" xmlns="http://www.w3.org/2000/svg">
<path fill-rule="evenodd" clip-rule="evenodd" d="M12.5548 2.25C12.969 2.25 13.3048 2.58579 13.3048 3V4.3719C13.3048 4.78612 12.969 5.1219 12.5548 5.1219C12.1406 5.1219 11.8048 4.78612 11.8048 4.3719V3C11.8048 2.58579 12.1406 2.25 12.5548 2.25ZM19.4489 5.10548C19.7418 5.39837 19.7418 5.87325 19.4489 6.16615L6.72133 18.8942C6.42844 19.1871 5.95357 19.1871 5.66067 18.8942C5.36777 18.6013 5.36776 18.1264 5.66065 17.8335L18.3882 5.1055C18.6811 4.81261 19.156 4.8126 19.4489 5.10548ZM5.66066 5.10597C5.95355 4.81308 6.42842 4.81308 6.72132 5.10597L7.69138 6.07603C7.98427 6.36893 7.98427 6.8438 7.69138 7.13669C7.39849 7.42959 6.92361 7.42959 6.63072 7.13669L5.66066 6.16663C5.36776 5.87374 5.36776 5.39886 5.66066 5.10597ZM2.80469 12.0001C2.80469 11.5859 3.14047 11.2501 3.55469 11.2501H4.92659C5.3408 11.2501 5.67659 11.5859 5.67659 12.0001C5.67659 12.4143 5.3408 12.7501 4.92659 12.7501H3.55469C3.14047 12.7501 2.80469 12.4143 2.80469 12.0001ZM19.4328 12.0001C19.4328 11.5859 19.7686 11.2501 20.1828 11.2501H21.5547C21.9689 11.2501 22.3047 11.5859 22.3047 12.0001C22.3047 12.4143 21.9689 12.7501 21.5547 12.7501H20.1828C19.7686 12.7501 19.4328 12.4143 19.4328 12.0001ZM17.4181 16.8635C17.711 16.5706 18.1859 16.5706 18.4788 16.8635L19.4489 17.8335C19.7418 18.1264 19.7418 18.6013 19.4489 18.8942C19.156 19.1871 18.6811 19.1871 18.3882 18.8942L17.4181 17.9241C17.1253 17.6312 17.1253 17.1564 17.4181 16.8635ZM12.5548 18.8781C12.969 18.8781 13.3048 19.2139 13.3048 19.6281V21C13.3048 21.4142 12.969 21.75 12.5548 21.75C12.1406 21.75 11.8048 21.4142 11.8048 21V19.6281C11.8048 19.2139 12.1406 18.8781 12.5548 18.8781Z" fill="#000000" />
<path fill-rule="evenodd" clip-rule="evenodd" d="M14.9912 9.56387C13.6459 8.21856 11.4644 8.21803 10.1186 9.56387C8.77272 10.9097 8.77324 13.0912 10.1186 14.4365C10.4115 14.7294 10.4115 15.2043 10.1186 15.4972C9.82567 15.7901 9.3508 15.7901 9.0579 15.4972C7.12696 13.5663 7.12611 10.435 9.0579 8.50321C10.9897 6.57142 14.1209 6.57227 16.0519 8.50321C16.3448 8.79611 16.3448 9.27098 16.0519 9.56387C15.759 9.85677 15.2841 9.85677 14.9912 9.56387Z" fill="#000000" />
<path fill-rule="evenodd" clip-rule="evenodd" d="M16.5808 10.5983C16.9898 10.5332 17.3742 10.8121 17.4392 11.2212C17.6792 12.7303 17.2178 14.3327 16.0524 15.498C14.8303 16.7202 13.128 17.168 11.5559 16.8448C11.1502 16.7614 10.8889 16.3649 10.9723 15.9591C11.0557 15.5534 11.4522 15.2921 11.858 15.3755C12.957 15.6015 14.1412 15.2879 14.9918 14.4374C15.803 13.6261 16.1256 12.5118 15.9579 11.4568C15.8928 11.0477 16.1717 10.6633 16.5808 10.5983Z" fill="#000000" />
</svg>