<svg width="24px"  height="24px"  viewBox="0 0 25 24" fill="none" xmlns="http://www.w3.org/2000/svg">
<path fill-rule="evenodd" clip-rule="evenodd" d="M17.6592 2.47949C18.0587 2.58895 18.2938 3.00153 18.1844 3.40102L18.1788 3.42134C18.0693 3.82083 17.6567 4.05595 17.2573 3.94649C16.8578 3.83703 16.6227 3.42444 16.7321 3.02495L16.7377 3.00463C16.8471 2.60514 17.2597 2.37003 17.6592 2.47949ZM12.5936 3.1237C12.9535 2.91862 13.4115 3.0441 13.6166 3.40398L13.6255 3.41967C13.8306 3.77955 13.7051 4.23755 13.3453 4.44263C12.9854 4.64772 12.5274 4.52223 12.3223 4.16235L12.3134 4.14666C12.1083 3.78678 12.2338 3.32879 12.5936 3.1237ZM21.7104 5.6035C21.9154 5.96338 21.79 6.42137 21.4301 6.62646L21.3932 6.64748C21.0333 6.85257 20.5753 6.72709 20.3702 6.36722C20.1652 6.00734 20.2906 5.54934 20.6505 5.34425L20.6874 5.32324C21.0473 5.11815 21.5053 5.24363 21.7104 5.6035ZM20.8642 10.2875C20.9737 9.888 21.3863 9.65287 21.7858 9.76232L21.8129 9.76974C22.2123 9.87919 22.4475 10.2918 22.338 10.6913C22.2286 11.0908 21.816 11.3259 21.4165 11.2164L21.3894 11.209C20.9899 11.0996 20.7548 10.687 20.8642 10.2875Z" fill="#000000" />
<path fill-rule="evenodd" clip-rule="evenodd" d="M15.8904 6.1543C14.8924 6.1543 14.0172 6.68291 13.5306 7.47884C13.3146 7.83224 12.8529 7.94359 12.4995 7.72754C12.1461 7.51149 12.0348 7.04985 12.2508 6.69645C12.9985 5.47342 14.3485 4.6543 15.8904 4.6543C18.2449 4.6543 20.1528 6.56305 20.1528 8.91668C20.1528 10.4011 19.3937 11.708 18.2457 12.4703C17.9007 12.6995 17.4352 12.6055 17.206 12.2604C16.9769 11.9154 17.0709 11.4499 17.4159 11.2208C18.1629 10.7247 18.6528 9.87781 18.6528 8.91668C18.6528 7.39129 17.4163 6.1543 15.8904 6.1543Z" fill="#000000" />
<path fill-rule="evenodd" clip-rule="evenodd" d="M7.42109 7.95872C8.20103 6.92806 9.4508 6.104 11.245 6.104C13.0392 6.104 14.289 6.92806 15.0689 7.95872C15.6347 8.70645 15.9571 9.56504 16.0838 10.3058C16.9547 10.4316 17.7542 10.7985 18.3778 11.3959C19.1678 12.1527 19.6257 13.2322 19.6257 14.5177C19.6257 16.247 18.5952 17.734 17.1189 18.4012C16.7415 18.5717 16.2972 18.404 16.1266 18.0266C15.9561 17.6491 16.1238 17.2048 16.5012 17.0343C17.4602 16.6009 18.1257 15.6362 18.1257 14.5177C18.1257 13.6023 17.8078 12.9271 17.3402 12.4791C16.8669 12.0257 16.1903 11.7575 15.3963 11.7568C14.9823 11.7564 14.647 11.4207 14.647 11.0068C14.647 10.4721 14.4254 9.59412 13.8728 8.86387C13.3433 8.16421 12.5171 7.604 11.245 7.604C9.97288 7.604 9.14668 8.16421 8.61722 8.86387C8.06461 9.59412 7.84305 10.4721 7.84305 11.0068C7.84305 11.4184 7.51136 11.753 7.0998 11.7567C6.30279 11.7639 5.62382 12.0335 5.14976 12.4859C4.68209 12.9323 4.36426 13.6033 4.36426 14.5177C4.36426 15.6365 5.02922 16.6009 5.9886 17.0342C6.3661 17.2047 6.53393 17.6489 6.36345 18.0264C6.19298 18.4039 5.74875 18.5717 5.37124 18.4012C3.89373 17.734 2.86426 16.2467 2.86426 14.5177C2.86426 13.2312 3.32353 12.1554 4.11411 11.4009C4.73812 10.8053 5.53705 10.4396 6.40555 10.3099C6.53172 9.56818 6.85422 8.70782 7.42109 7.95872Z" fill="#000000" />
<path fill-rule="evenodd" clip-rule="evenodd" d="M9.82388 15.8596C10.2208 15.9779 10.4467 16.3957 10.3283 16.7926L9.91833 18.1678C9.79999 18.5647 9.38226 18.7906 8.98531 18.6722C8.58836 18.5539 8.36251 18.1362 8.48086 17.7392L8.89086 16.364C9.0092 15.9671 9.42693 15.7412 9.82388 15.8596ZM13.7754 15.8596C14.1723 15.9779 14.3982 16.3957 14.2798 16.7926L13.8699 18.1678C13.7515 18.5647 13.3338 18.7906 12.9368 18.6722C12.5399 18.5539 12.314 18.1362 12.4324 17.7392L12.8424 16.364C12.9607 15.9671 13.3784 15.7412 13.7754 15.8596ZM11.2811 18.3831C11.6748 18.512 11.8894 18.9356 11.7604 19.3293L11.3438 20.6013C11.2149 20.995 10.7913 21.2096 10.3977 21.0807C10.004 20.9518 9.78942 20.5281 9.91834 20.1345L10.3349 18.8624C10.4639 18.4688 10.8875 18.2542 11.2811 18.3831ZM7.51224 19.0412C7.91302 19.1458 8.15312 19.5556 8.04851 19.9563L7.77958 20.9867C7.67497 21.3875 7.26527 21.6276 6.86448 21.523C6.4637 21.4184 6.2236 21.0087 6.32821 20.6079L6.59714 19.5775C6.70175 19.1767 7.11145 18.9366 7.51224 19.0412ZM14.405 19.0412C14.8058 19.1458 15.0459 19.5556 14.9413 19.9563L14.6724 20.9867C14.5678 21.3875 14.1581 21.6276 13.7573 21.523C13.3565 21.4184 13.1164 21.0087 13.221 20.6079L13.4899 19.5775C13.5946 19.1767 14.0043 18.9366 14.405 19.0412Z" fill="#000000" />
</svg>