<svg width="24px"  height="24px"  viewBox="0 0 25 24" fill="none" xmlns="http://www.w3.org/2000/svg">
<path fill-rule="evenodd" clip-rule="evenodd" d="M17.7169 3.72802C18.1164 3.83748 18.3515 4.25006 18.242 4.64955L18.2365 4.66959C18.1271 5.06908 17.7145 5.3042 17.315 5.19474C16.9155 5.08528 16.6804 4.6727 16.7899 4.27321L16.7954 4.25317C16.9048 3.85368 17.3174 3.61856 17.7169 3.72802ZM12.7138 4.36429C13.0736 4.1592 13.5316 4.28469 13.7367 4.64456L13.7455 4.66004C13.9506 5.01992 13.8251 5.47791 13.4652 5.683C13.1054 5.88808 12.6474 5.7626 12.4423 5.40272L12.4335 5.38724C12.2284 5.02737 12.3539 4.56937 12.7138 4.36429ZM21.718 6.81353C21.9231 7.17341 21.7977 7.63141 21.4378 7.8365L21.4014 7.85722C21.0415 8.06231 20.5836 7.93683 20.3785 7.57696C20.1734 7.21708 20.2988 6.75909 20.6587 6.554L20.6951 6.53327C21.055 6.32818 21.513 6.45366 21.718 6.81353ZM20.8646 11.4349C20.9741 11.0354 21.3866 10.8003 21.7861 10.9097L21.8128 10.917C22.2123 11.0265 22.4475 11.4391 22.338 11.8385C22.2286 12.238 21.816 12.4732 21.4165 12.3637L21.3898 12.3564C20.9903 12.2469 20.7551 11.8344 20.8646 11.4349Z" fill="#000000" />
<path fill-rule="evenodd" clip-rule="evenodd" d="M15.9698 7.37256C14.9874 7.37256 14.126 7.89406 13.6487 8.67875C13.4334 9.03262 12.972 9.14497 12.6181 8.92969C12.2642 8.71441 12.1519 8.25302 12.3672 7.89914C13.1053 6.6858 14.4423 5.87256 15.9698 5.87256C18.2974 5.87256 20.1834 7.75947 20.1834 10.0862C20.1834 11.5443 19.4425 12.8292 18.3198 13.5847C17.9761 13.816 17.5101 13.7249 17.2788 13.3812C17.0475 13.0376 17.1387 12.5715 17.4823 12.3403C18.2084 11.8517 18.6834 11.0243 18.6834 10.0862C18.6834 8.5877 17.4688 7.37256 15.9698 7.37256Z" fill="#000000" />
<path fill-rule="evenodd" clip-rule="evenodd" d="M7.62944 9.10985C8.40187 8.10261 9.63175 7.30225 11.3891 7.30225C13.162 7.30225 14.3975 8.11666 15.1685 9.13524C15.7269 9.87279 16.0455 10.7196 16.1711 11.4509C17.0262 11.58 17.813 11.9409 18.4282 12.5279C19.21 13.274 19.6638 14.3375 19.6638 15.6087C19.6638 16.0229 19.3281 16.3587 18.9138 16.3587C18.4996 16.3587 18.1638 16.0229 18.1638 15.6087C18.1638 14.7096 17.8514 14.0509 17.3926 13.6131C16.9274 13.1692 16.2607 12.9043 15.4774 12.8973C15.0659 12.8936 14.7342 12.5589 14.7342 12.1473C14.7342 11.6224 14.5163 10.7588 13.9726 10.0406C13.452 9.35286 12.64 8.80225 11.3891 8.80225C10.1566 8.80225 9.35094 9.33676 8.83005 10.0093L8.51949 10.4566C8.28328 10.7969 7.81596 10.8813 7.4757 10.645C7.13543 10.4088 7.05108 9.94152 7.28728 9.60125L7.60848 9.13856C7.61524 9.12883 7.62222 9.11925 7.62944 9.10985Z" fill="#000000" />
<path fill-rule="evenodd" clip-rule="evenodd" d="M5.67749 10.5186C6.19827 9.83036 7.03717 9.28027 8.22449 9.28027C9.41179 9.28027 10.2508 9.83034 10.7717 10.5185C11.2694 11.176 11.4835 11.9635 11.4835 12.5392C11.4835 12.9535 11.1477 13.2892 10.7335 13.2892C10.3192 13.2892 9.98346 12.9535 9.98346 12.5392C9.98346 12.2787 9.86928 11.8116 9.5757 11.4238C9.30525 11.0665 8.88976 10.7803 8.22449 10.7803C7.55925 10.7803 7.14392 11.0665 6.87361 11.4237C6.58015 11.8115 6.46603 12.2786 6.46603 12.5392C6.46603 12.9508 6.13434 13.2855 5.72278 13.2892C5.30685 13.293 4.97208 13.4328 4.74698 13.6475C4.52831 13.8561 4.36426 14.1812 4.36426 14.6599C4.36426 15.2148 4.69416 15.6943 5.17111 15.9098C5.54857 16.0804 5.71629 16.5246 5.54572 16.9021C5.37514 17.2796 4.93087 17.4473 4.55341 17.2767C3.55908 16.8274 2.86426 15.8256 2.86426 14.6599C2.86426 13.8089 3.16995 13.0789 3.7116 12.5622C4.08622 12.2048 4.54948 11.9723 5.04969 11.8627C5.1532 11.4218 5.35619 10.9431 5.67749 10.5186Z" fill="#000000" />
<path fill-rule="evenodd" clip-rule="evenodd" d="M7.57005 6.65967C6.7872 6.65967 6.143 7.25711 6.06988 8.0204C6.03037 8.43273 5.6641 8.73496 5.25177 8.69546C4.83944 8.65595 4.53721 8.28968 4.57671 7.87735C4.72285 6.35198 6.00676 5.15967 7.57005 5.15967C9.23084 5.15967 10.5772 6.50601 10.5772 8.16681C10.5772 8.58102 10.2414 8.91681 9.82718 8.91681C9.41297 8.91681 9.07718 8.58102 9.07718 8.16681C9.07718 7.33444 8.40242 6.65967 7.57005 6.65967Z" fill="#000000" />
<path fill-rule="evenodd" clip-rule="evenodd" d="M4.79823 8.63672C4.55855 8.63672 4.36426 8.83101 4.36426 9.07069C4.36426 9.4849 4.02847 9.82069 3.61426 9.82069C3.20004 9.82069 2.86426 9.4849 2.86426 9.07069C2.86426 8.00259 3.73013 7.13672 4.79823 7.13672C5.63152 7.13672 6.33991 7.66337 6.61233 8.39949C6.75609 8.78795 6.55772 9.21941 6.16925 9.36317C5.78079 9.50693 5.34933 9.30856 5.20557 8.92009C5.14393 8.75352 4.98377 8.63672 4.79823 8.63672Z" fill="#000000" />
<path fill-rule="evenodd" clip-rule="evenodd" d="M8.15625 14.2124C8.57046 14.2124 8.90625 14.5482 8.90625 14.9624V16.2169C8.90625 16.6311 8.57046 16.9669 8.15625 16.9669C7.74204 16.9669 7.40625 16.6311 7.40625 16.2169V14.9624C7.40625 14.5482 7.74204 14.2124 8.15625 14.2124ZM14.7416 14.2124C15.1558 14.2124 15.4916 14.5482 15.4916 14.9624V16.2169C15.4916 16.6311 15.1558 16.9669 14.7416 16.9669C14.3274 16.9669 13.9916 16.6311 13.9916 16.2169V14.9624C13.9916 14.5482 14.3274 14.2124 14.7416 14.2124ZM11.4495 15.4669C11.8637 15.4669 12.1995 15.8027 12.1995 16.2169V17.4714C12.1995 17.8856 11.8637 18.2214 11.4495 18.2214C11.0353 18.2214 10.6995 17.8856 10.6995 17.4714V16.2169C10.6995 15.8027 11.0353 15.4669 11.4495 15.4669ZM8.15625 17.9755C8.57046 17.9755 8.90625 18.3113 8.90625 18.7255V19.98C8.90625 20.3942 8.57046 20.73 8.15625 20.73C7.74204 20.73 7.40625 20.3942 7.40625 19.98V18.7255C7.40625 18.3113 7.74204 17.9755 8.15625 17.9755ZM14.7416 17.9755C15.1558 17.9755 15.4916 18.3113 15.4916 18.7255V19.98C15.4916 20.3942 15.1558 20.73 14.7416 20.73C14.3274 20.73 13.9916 20.3942 13.9916 19.98V18.7255C13.9916 18.3113 14.3274 17.9755 14.7416 17.9755ZM11.4495 19.2296C11.8637 19.2296 12.1995 19.5654 12.1995 19.9796V21.2341C12.1995 21.6483 11.8637 21.9841 11.4495 21.9841C11.0353 21.9841 10.6995 21.6483 10.6995 21.2341V19.9796C10.6995 19.5654 11.0353 19.2296 11.4495 19.2296Z" fill="#000000" />
</svg>