<svg width="24px"  height="24px"  viewBox="0 0 25 24" fill="none" xmlns="http://www.w3.org/2000/svg">
<path fill-rule="evenodd" clip-rule="evenodd" d="M17.7169 3.72851C18.1164 3.83797 18.3515 4.25055 18.242 4.65004L18.2365 4.67008C18.1271 5.06957 17.7145 5.30469 17.315 5.19523C16.9155 5.08577 16.6804 4.67319 16.7899 4.2737L16.7954 4.25366C16.9048 3.85417 17.3174 3.61905 17.7169 3.72851ZM12.7138 4.36477C13.0736 4.15969 13.5316 4.28517 13.7367 4.64505L13.7455 4.66053C13.9506 5.02041 13.8251 5.4784 13.4652 5.68349C13.1054 5.88857 12.6474 5.76309 12.4423 5.40321L12.4335 5.38773C12.2284 5.02785 12.3539 4.56986 12.7138 4.36477ZM21.718 6.81402C21.9231 7.1739 21.7977 7.63189 21.4378 7.83699L21.4014 7.85771C21.0415 8.0628 20.5836 7.93732 20.3785 7.57745C20.1734 7.21757 20.2988 6.75957 20.6587 6.55448L20.6951 6.53376C21.055 6.32867 21.513 6.45415 21.718 6.81402ZM20.8646 11.4354C20.9741 11.0359 21.3866 10.8007 21.7861 10.9102L21.8128 10.9175C22.2123 11.027 22.4475 11.4395 22.338 11.839C22.2286 12.2385 21.816 12.4736 21.4165 12.3642L21.3898 12.3569C20.9903 12.2474 20.7551 11.8348 20.8646 11.4354Z" fill="#000000" />
<path fill-rule="evenodd" clip-rule="evenodd" d="M15.9698 7.37256C14.9874 7.37256 14.126 7.89406 13.6487 8.67875C13.4334 9.03262 12.972 9.14497 12.6181 8.92969C12.2642 8.71441 12.1519 8.25302 12.3672 7.89914C13.1053 6.6858 14.4423 5.87256 15.9698 5.87256C18.2974 5.87256 20.1834 7.75947 20.1834 10.0862C20.1834 11.5443 19.4425 12.8292 18.3198 13.5847C17.9761 13.816 17.5101 13.7249 17.2788 13.3812C17.0475 13.0376 17.1387 12.5715 17.4823 12.3403C18.2084 11.8517 18.6834 11.0243 18.6834 10.0862C18.6834 8.5877 17.4688 7.37256 15.9698 7.37256Z" fill="#000000" />
<path fill-rule="evenodd" clip-rule="evenodd" d="M7.62944 9.10985C8.40187 8.10261 9.63175 7.30225 11.3891 7.30225C13.162 7.30225 14.3975 8.11666 15.1685 9.13524C15.7269 9.87279 16.0455 10.7196 16.1711 11.4509C17.0262 11.58 17.813 11.9409 18.4282 12.5279C19.21 13.274 19.6638 14.3375 19.6638 15.6087C19.6638 16.0229 19.3281 16.3587 18.9138 16.3587C18.4996 16.3587 18.1638 16.0229 18.1638 15.6087C18.1638 14.7096 17.8514 14.0509 17.3926 13.6131C16.9274 13.1692 16.2607 12.9043 15.4774 12.8973C15.0659 12.8936 14.7342 12.5589 14.7342 12.1473C14.7342 11.6224 14.5163 10.7588 13.9726 10.0406C13.452 9.35286 12.64 8.80225 11.3891 8.80225C10.1566 8.80225 9.35094 9.33676 8.83005 10.0093L8.51949 10.4566C8.28328 10.7969 7.81596 10.8813 7.4757 10.645C7.13543 10.4088 7.05108 9.94152 7.28728 9.60125L7.60848 9.13856C7.61524 9.12883 7.62222 9.11925 7.62944 9.10985Z" fill="#000000" />
<path fill-rule="evenodd" clip-rule="evenodd" d="M5.67749 10.5181C6.19827 9.82987 7.03717 9.27979 8.22449 9.27979C9.41179 9.27979 10.2508 9.82985 10.7717 10.518C11.2694 11.1755 11.4835 11.963 11.4835 12.5387C11.4835 12.953 11.1477 13.2887 10.7335 13.2887C10.3192 13.2887 9.98346 12.953 9.98346 12.5387C9.98346 12.2782 9.86928 11.8112 9.5757 11.4233C9.30525 11.066 8.88976 10.7798 8.22449 10.7798C7.55925 10.7798 7.14392 11.066 6.87361 11.4232C6.58015 11.811 6.46603 12.2781 6.46603 12.5387C6.46603 12.9503 6.13434 13.285 5.72278 13.2887C5.30685 13.2925 4.97208 13.4323 4.74698 13.6471C4.52831 13.8556 4.36426 14.1807 4.36426 14.6595C4.36426 15.2143 4.69416 15.6938 5.17111 15.9093C5.54857 16.0799 5.71629 16.5242 5.54572 16.9016C5.37514 17.2791 4.93087 17.4468 4.55341 17.2762C3.55908 16.8269 2.86426 15.8251 2.86426 14.6595C2.86426 13.8084 3.16995 13.0784 3.7116 12.5617C4.08622 12.2043 4.54948 11.9719 5.04969 11.8622C5.1532 11.4213 5.35619 10.9427 5.67749 10.5181Z" fill="#000000" />
<path fill-rule="evenodd" clip-rule="evenodd" d="M7.57005 6.65967C6.7872 6.65967 6.143 7.25711 6.06988 8.0204C6.03037 8.43273 5.6641 8.73496 5.25177 8.69546C4.83944 8.65595 4.53721 8.28968 4.57671 7.87735C4.72285 6.35198 6.00676 5.15967 7.57005 5.15967C9.23084 5.15967 10.5772 6.50601 10.5772 8.16681C10.5772 8.58102 10.2414 8.91681 9.82718 8.91681C9.41297 8.91681 9.07718 8.58102 9.07718 8.16681C9.07718 7.33444 8.40242 6.65967 7.57005 6.65967Z" fill="#000000" />
<path fill-rule="evenodd" clip-rule="evenodd" d="M4.79823 8.63721C4.55855 8.63721 4.36426 8.8315 4.36426 9.07118C4.36426 9.48539 4.02847 9.82118 3.61426 9.82118C3.20004 9.82118 2.86426 9.48539 2.86426 9.07118C2.86426 8.00307 3.73013 7.13721 4.79823 7.13721C5.63152 7.13721 6.33991 7.66386 6.61233 8.39998C6.75609 8.78844 6.55772 9.2199 6.16925 9.36366C5.78079 9.50742 5.34933 9.30905 5.20557 8.92058C5.14393 8.754 4.98377 8.63721 4.79823 8.63721Z" fill="#000000" />
<path fill-rule="evenodd" clip-rule="evenodd" d="M8.15625 14.2124C8.57046 14.2124 8.90625 14.5482 8.90625 14.9624V19.98C8.90625 20.3942 8.57046 20.73 8.15625 20.73C7.74204 20.73 7.40625 20.3942 7.40625 19.98V14.9624C7.40625 14.5482 7.74204 14.2124 8.15625 14.2124ZM14.7416 14.2124C15.1558 14.2124 15.4916 14.5482 15.4916 14.9624V19.98C15.4916 20.3942 15.1558 20.73 14.7416 20.73C14.3274 20.73 13.9916 20.3942 13.9916 19.98V14.9624C13.9916 14.5482 14.3274 14.2124 14.7416 14.2124ZM11.4495 15.4669C11.8637 15.4669 12.1995 15.8027 12.1995 16.2169V21.2341C12.1995 21.6483 11.8637 21.9841 11.4495 21.9841C11.0353 21.9841 10.6995 21.6483 10.6995 21.2341V16.2169C10.6995 15.8027 11.0353 15.4669 11.4495 15.4669Z" fill="#000000" />
</svg>