<svg width="24px"  height="24px"  viewBox="0 0 25 24" fill="none" xmlns="http://www.w3.org/2000/svg">
<path fill-rule="evenodd" clip-rule="evenodd" d="M9.49183 8.6995C9.80665 8.96868 9.84366 9.44211 9.57448 9.75693C8.98858 10.4422 8.6355 11.3301 8.6355 12.3021C8.6355 12.7163 8.29971 13.0521 7.8855 13.0521C7.47128 13.0521 7.1355 12.7163 7.1355 12.3021C7.1355 10.9592 7.62507 9.72874 8.43439 8.78216C8.70357 8.46733 9.177 8.43032 9.49183 8.6995Z" fill="#000000" />
<path fill-rule="evenodd" clip-rule="evenodd" d="M19.4326 12.1328C19.4326 11.7186 19.7684 11.3828 20.1826 11.3828H21.5545C21.9687 11.3828 22.3045 11.7186 22.3045 12.1328C22.3045 12.547 21.9687 12.8828 21.5545 12.8828H20.1826C19.7684 12.8828 19.4326 12.547 19.4326 12.1328Z" fill="#000000" />
<path fill-rule="evenodd" clip-rule="evenodd" d="M2.80469 12.1328C2.80469 11.7186 3.14047 11.3828 3.55469 11.3828H4.92658C5.34079 11.3828 5.67658 11.7186 5.67658 12.1328C5.67658 12.547 5.34079 12.8828 4.92658 12.8828H3.55469C3.14047 12.8828 2.80469 12.547 2.80469 12.1328Z" fill="#000000" />
<path fill-rule="evenodd" clip-rule="evenodd" d="M19.4501 5.23774C19.743 5.53063 19.743 6.0055 19.4501 6.2984L18.48 7.26845C18.1871 7.56134 17.7123 7.56134 17.4194 7.26845C17.1265 6.97556 17.1265 6.50068 17.4194 6.20779L18.3894 5.23774C18.6823 4.94484 19.1572 4.94484 19.4501 5.23774Z" fill="#000000" />
<path fill-rule="evenodd" clip-rule="evenodd" d="M5.66156 5.23774C5.95446 4.94484 6.42933 4.94484 6.72222 5.23774L7.69228 6.20779C7.98517 6.50068 7.98517 6.97556 7.69228 7.26845C7.39939 7.56134 6.92451 7.56134 6.63162 7.26845L5.66156 6.2984C5.36867 6.0055 5.36867 5.53063 5.66156 5.23774Z" fill="#000000" />
<path fill-rule="evenodd" clip-rule="evenodd" d="M8.1435 17.2787C7.70387 17.4898 7.18769 17.734 6.23004 17.734C5.24477 17.734 4.67542 17.4608 4.26852 17.2655C4.16875 17.2176 4.07875 17.1744 3.99477 17.1411C3.60977 16.9883 3.42154 16.5523 3.57434 16.1673C3.72713 15.7823 4.16311 15.5941 4.54811 15.7469C4.73361 15.8205 4.87949 15.8895 5.00971 15.951C5.36836 16.1206 5.60827 16.234 6.23004 16.234C6.85392 16.234 7.13299 16.1 7.48197 15.9324L7.4943 15.9265C7.93393 15.7154 8.45011 15.4712 9.40777 15.4712C10.365 15.4712 10.8811 15.7154 11.32 15.9269L11.3336 15.9335C11.6812 16.101 11.957 16.234 12.5738 16.234C13.1971 16.234 13.4758 16.1001 13.8247 15.9325L13.8372 15.9265C14.2767 15.7154 14.7929 15.4712 15.7506 15.4712C16.7121 15.4712 17.2302 15.7147 17.6718 15.9261L17.6854 15.9326C18.0357 16.1003 18.3149 16.234 18.938 16.234C19.4091 16.234 19.6781 16.1562 19.8979 16.0662C19.9964 16.0258 20.083 15.9842 20.1908 15.9324C20.2235 15.9167 20.2581 15.9 20.2955 15.8822C20.4474 15.81 20.6282 15.7277 20.8432 15.6573C21.2368 15.5284 21.6604 15.7429 21.7894 16.1366C21.9183 16.5302 21.7038 16.9538 21.3101 17.0828C21.1865 17.1233 21.0736 17.1732 20.9396 17.2369C20.9154 17.2484 20.8894 17.2609 20.862 17.2741C20.7486 17.3287 20.6104 17.3953 20.4663 17.4543C20.0719 17.6158 19.6102 17.734 18.938 17.734C17.9804 17.734 17.4643 17.4897 17.0242 17.2791L17.013 17.2738C16.663 17.1062 16.381 16.9712 15.7506 16.9712C15.1266 16.9712 14.8476 17.1052 14.4987 17.2728L14.4865 17.2787C14.0471 17.4897 13.5311 17.734 12.5738 17.734C11.6204 17.734 11.1063 17.489 10.6689 17.2782L10.6578 17.2729C10.3104 17.1055 10.0318 16.9712 9.40777 16.9712C8.78389 16.9712 8.50481 17.1052 8.15584 17.2728L8.1435 17.2787Z" fill="#000000" />
<path fill-rule="evenodd" clip-rule="evenodd" d="M8.2957 21.0293C8.05516 21.1442 7.71602 21.3063 7.31477 21.3977C6.91091 21.4898 6.50891 21.237 6.41686 20.8331C6.32482 20.4293 6.5776 20.0273 6.98146 19.9352C7.20705 19.8838 7.34397 19.8186 7.54559 19.7227C7.63565 19.6798 7.73861 19.6308 7.86815 19.5741C8.27689 19.3953 8.75742 19.249 9.49882 19.249C10.4522 19.249 10.9663 19.494 11.4038 19.7048L11.4148 19.7101C11.7622 19.8775 12.0409 20.0118 12.6649 20.0118C13.2888 20.0118 13.5679 19.8778 13.9167 19.7102L13.9289 19.7044C14.3684 19.4933 14.8844 19.249 15.8416 19.249C16.5872 19.249 17.0703 19.3948 17.4809 19.5736C17.6131 19.6312 17.7176 19.6809 17.8088 19.7242C18.0092 19.8194 18.1452 19.884 18.3699 19.9353C18.7737 20.0274 19.0264 20.4295 18.9342 20.8333C18.8421 21.2372 18.44 21.4898 18.0362 21.3977C17.6371 21.3066 17.2981 21.1451 17.0575 21.0304C16.9912 20.9989 16.9324 20.9709 16.8819 20.9488C16.6358 20.8416 16.356 20.749 15.8416 20.749C15.2184 20.749 14.9396 20.8829 14.5908 21.0505L14.5783 21.0565C14.1387 21.2676 13.6225 21.5118 12.6649 21.5118C11.7076 21.5118 11.1916 21.2676 10.7526 21.0561L10.7391 21.0496C10.3915 20.882 10.1156 20.749 9.49882 20.749C8.99092 20.749 8.71447 20.8411 8.46938 20.9484C8.41927 20.9703 8.36113 20.9981 8.2957 21.0293Z" fill="#000000" />
<path fill-rule="evenodd" clip-rule="evenodd" d="M15.6181 8.69946C15.933 8.43031 16.4064 8.46736 16.6756 8.78221C17.4848 9.72884 17.9741 10.9593 17.9741 12.3021C17.9741 12.7163 17.6383 13.0521 17.2241 13.0521C16.8099 13.0521 16.4741 12.7163 16.4741 12.3021C16.4741 11.33 16.1211 10.4421 15.5354 9.75688C15.2662 9.44203 15.3033 8.9686 15.6181 8.69946Z" fill="#000000" />
<path fill-rule="evenodd" clip-rule="evenodd" d="M13.0852 2.60283C13.0851 2.60276 13.085 2.60268 13.0849 2.60261L13.0852 2.60283ZM13.0852 2.60286L15.6586 5.17751C15.9515 5.47047 15.9514 5.94534 15.6584 6.23817C15.3654 6.53099 14.8906 6.53088 14.5977 6.23792L13.3045 4.94407V9.00561C13.3045 9.41983 12.9687 9.75561 12.5545 9.75561C12.1403 9.75561 11.8045 9.41983 11.8045 9.00561V4.94391L10.5109 6.23795C10.218 6.5309 9.74317 6.53098 9.45023 6.23813C9.15729 5.94529 9.1572 5.47042 9.45005 5.17747L12.0239 2.60278L12.0239 2.60276C12.0239 2.6027 12.024 2.60263 12.0241 2.60257M13.0832 2.60089C12.937 2.45551 12.7457 2.38281 12.5545 2.38281L13.0832 2.60089ZM12.5521 2.38282C12.4513 2.38313 12.3552 2.40333 12.2675 2.43969L12.5521 2.38282ZM12.2673 2.43975C12.1796 2.47608 12.0973 2.52979 12.0258 2.60089L12.2673 2.43975Z" fill="#000000" />
</svg>