<svg width="24px"  height="24px"  viewBox="0 0 25 24" fill="none" xmlns="http://www.w3.org/2000/svg">
<path d="M12.5642 21.72C12.1542 21.72 11.8142 21.4 11.8142 20.99V20.96C11.8142 20.55 12.1542 20.21 12.5642 20.21C12.9742 20.21 13.3142 20.55 13.3142 20.96C13.3142 21.37 12.9742 21.73 12.5642 21.73V21.72ZM21.5542 12.75H21.5142C21.1042 12.75 20.7642 12.41 20.7642 12C20.7642 11.59 21.1042 11.25 21.5142 11.25C21.9242 11.25 22.2842 11.59 22.2842 12C22.2842 12.41 21.9742 12.75 21.5542 12.75ZM3.6042 12.75H3.5542C3.1442 12.75 2.8042 12.41 2.8042 12C2.8042 11.59 3.1442 11.25 3.5542 11.25C3.9642 11.25 4.3242 11.59 4.3242 12C4.3242 12.41 4.0142 12.75 3.5942 12.75H3.6042ZM6.2342 6.41C6.0442 6.41 5.8442 6.33002 5.6942 6.18002C5.4042 5.88002 5.4042 5.40002 5.6942 5.11002C5.9942 4.82002 6.4542 4.82002 6.7442 5.11002L6.7642 5.13C7.0542 5.43 7.0442 5.9 6.7542 6.19C6.6042 6.33 6.4242 6.39999 6.2342 6.39999V6.41ZM18.8942 6.38C18.7042 6.38 18.5142 6.31001 18.3742 6.17001C18.0842 5.88001 18.0642 5.42 18.3542 5.13L18.4042 5.09C18.6942 4.8 19.1742 4.8 19.4642 5.09C19.7542 5.38 19.7542 5.85999 19.4642 6.14999C19.3142 6.29999 19.1042 6.38 18.9042 6.38H18.8942ZM12.5542 3.79001C12.1442 3.79001 11.8042 3.45001 11.8042 3.04001C11.8042 2.63001 12.1442 2.27002 12.5542 2.27002C12.9642 2.27002 13.3042 2.59 13.3042 3V3.03C13.3042 3.44 12.9642 3.78 12.5542 3.78V3.79001Z" fill="#000000" />
<path d="M12.5545 17.6601C11.2945 17.6601 10.0745 17.2401 9.06447 16.4501C7.87447 15.5101 7.11447 14.1701 6.93447 12.6701C6.75447 11.1701 7.16447 9.68012 8.10447 8.49012C9.04447 7.30012 10.3845 6.54011 11.8945 6.36011C15.0045 5.99011 17.8345 8.2101 18.2045 11.3101C18.2545 11.7201 17.9645 12.0901 17.5545 12.1401C17.1545 12.1801 16.7645 11.9001 16.7245 11.4901C16.4445 9.21012 14.3645 7.5701 12.0845 7.8501C10.9745 7.9801 9.98447 8.54011 9.30447 9.42011C8.61447 10.3001 8.31447 11.3901 8.44447 12.5001C8.57447 13.6101 9.13447 14.6001 10.0145 15.2801C10.8945 15.9601 11.9845 16.2701 13.0945 16.1401C13.4945 16.0901 13.8745 16.3801 13.9245 16.7901C13.9745 17.2001 13.6845 17.5701 13.2745 17.6201C13.0445 17.6501 12.8145 17.6601 12.5845 17.6601H12.5545Z" fill="#000000" />
<path d="M19.2746 21.2101C19.2746 21.2101 19.2246 21.2101 19.2046 21.2101C18.4046 21.2101 17.5746 20.8601 16.9946 20.2801C16.4646 19.7401 16.1746 19.0501 16.1846 18.3301C16.1446 15.8701 18.6346 13.5501 18.7346 13.4601C19.0246 13.2001 19.4646 13.2001 19.7546 13.4601C19.8646 13.5601 22.3446 15.8801 22.3046 18.3601C22.3146 19.0601 22.0346 19.7501 21.4946 20.2901C20.9146 20.8801 20.0846 21.2201 19.2646 21.2201L19.2746 21.2101ZM19.2346 19.7101C19.6646 19.7001 20.1346 19.5301 20.4346 19.2201C20.6046 19.0501 20.8146 18.7501 20.8046 18.3501C20.8246 17.1701 19.9246 15.8601 19.2446 15.0801C18.5646 15.8601 17.6646 17.1601 17.6846 18.3201C17.6846 18.7501 17.8846 19.0401 18.0546 19.2201C18.3646 19.5301 18.7846 19.7001 19.2346 19.7101Z" fill="#000000" />
<path d="M6.06452 21.4904C6.06452 21.4904 6.02452 21.4904 6.00452 21.4904C5.35452 21.4904 4.66452 21.2004 4.18452 20.7204C3.74452 20.2704 3.50452 19.7004 3.51452 19.1004C3.48452 17.1804 5.31452 15.4304 5.52452 15.2404C5.81452 14.9804 6.25452 14.9804 6.54452 15.2404C6.75452 15.4304 8.58453 17.1804 8.55452 19.1204C8.56453 19.6904 8.32452 20.2704 7.88452 20.7204C7.40452 21.2004 6.72453 21.4904 6.05453 21.4904H6.06452ZM6.04452 16.8904C5.56452 17.4704 5.01452 18.3304 5.02452 19.1004C5.02452 19.3704 5.14452 19.5604 5.25452 19.6604C5.45452 19.8604 5.79453 20.0004 6.03453 19.9904C6.28453 19.9904 6.63452 19.8704 6.83452 19.6604C6.94452 19.5504 7.07452 19.3704 7.06452 19.1204C7.07452 18.3404 6.52452 17.4704 6.04452 16.8804V16.8904Z" fill="#000000" />
</svg>