<svg width="24px"  height="24px"  viewBox="0 0 25 24" fill="none" xmlns="http://www.w3.org/2000/svg">
<path fill-rule="evenodd" clip-rule="evenodd" d="M12.5616 2.66406C12.9758 2.66406 13.3116 2.99985 13.3116 3.41406V3.44601C13.3116 3.86023 12.9758 4.19601 12.5616 4.19601C12.1474 4.19601 11.8116 3.86023 11.8116 3.44601V3.41406C11.8116 2.99985 12.1474 2.66406 12.5616 2.66406ZM19.4624 5.49549C19.7552 5.78842 19.7552 6.26329 19.4623 6.55615L19.4168 6.60164C19.1238 6.8945 18.649 6.89445 18.3561 6.60152C18.0632 6.3086 18.0633 5.83372 18.3562 5.54086L18.4017 5.49537C18.6946 5.20251 19.1695 5.20257 19.4624 5.49549ZM5.68714 5.52126C5.98003 5.22837 6.4549 5.22837 6.7478 5.52126L6.76716 5.54062C7.06005 5.83352 7.06005 6.30839 6.76716 6.60128C6.47426 6.89418 5.99939 6.89418 5.7065 6.60128L5.68714 6.58192C5.39424 6.28903 5.39424 5.81416 5.68714 5.52126ZM12.5588 8.22354C10.2538 8.22354 8.38564 10.0911 8.38564 12.3957C8.38564 12.8099 8.04985 13.1457 7.63564 13.1457C7.22142 13.1457 6.88564 12.8099 6.88564 12.3957C6.88564 9.26226 9.42572 6.72354 12.5588 6.72354C15.691 6.72354 18.231 9.26236 18.231 12.3957C18.231 12.8099 17.8952 13.1457 17.481 13.1457C17.0668 13.1457 16.731 12.8099 16.731 12.3957C16.731 10.091 14.8628 8.22354 12.5588 8.22354ZM2.80469 12.3957C2.80469 11.9815 3.14047 11.6457 3.55469 11.6457H3.60406C4.01827 11.6457 4.35406 11.9815 4.35406 12.3957C4.35406 12.8099 4.01827 13.1457 3.60406 13.1457H3.55469C3.14047 13.1457 2.80469 12.8099 2.80469 12.3957ZM20.7621 12.3957C20.7621 11.9815 21.0979 11.6457 21.5121 11.6457H21.5547C21.9689 11.6457 22.3047 11.9815 22.3047 12.3957C22.3047 12.8099 21.9689 13.1457 21.5547 13.1457H21.5121C21.0979 13.1457 20.7621 12.8099 20.7621 12.3957Z" fill="#000000" />
<path fill-rule="evenodd" clip-rule="evenodd" d="M13.0852 21.112C13.0851 21.1121 13.085 21.1122 13.0849 21.1122L13.0852 21.112ZM13.0852 21.112L15.6586 18.5373C15.9515 18.2444 15.9514 17.7695 15.6584 17.4767C15.3654 17.1839 14.8906 17.184 14.5977 17.4769L13.3045 18.7708V14.7092C13.3045 14.295 12.9687 13.9592 12.5545 13.9592C12.1403 13.9592 11.8045 14.295 11.8045 14.7092V18.7709L10.5109 17.4769C10.218 17.1839 9.74317 17.1839 9.45023 17.4767C9.15729 17.7696 9.1572 18.2444 9.45005 18.5374L12.0239 21.1121L12.0239 21.1121C12.0239 21.1121 12.024 21.1122 12.0241 21.1123M13.0832 21.1139C12.937 21.2593 12.7457 21.332 12.5545 21.332L13.0832 21.1139ZM12.5521 21.332C12.4513 21.3317 12.3552 21.3115 12.2675 21.2752L12.5521 21.332ZM12.2673 21.2751C12.1796 21.2388 12.0973 21.1851 12.0258 21.1139L12.2673 21.2751Z" fill="#000000" />
</svg>