<svg width="24px"  height="24px"  viewBox="0 0 25 24" fill="none" xmlns="http://www.w3.org/2000/svg">
<path fill-rule="evenodd" clip-rule="evenodd" d="M3.64062 16.4009C3.64062 15.9867 3.97641 15.6509 4.39062 15.6509H20.7166C21.1308 15.6509 21.4666 15.9867 21.4666 16.4009C21.4666 16.8151 21.1308 17.1509 20.7166 17.1509H4.39062C3.97641 17.1509 3.64062 16.8151 3.64062 16.4009Z" fill="#000000" />
<path fill-rule="evenodd" clip-rule="evenodd" d="M7.37695 20.2817C7.37695 19.8675 7.71274 19.5317 8.12695 19.5317H16.982C17.3962 19.5317 17.732 19.8675 17.732 20.2817C17.732 20.696 17.3962 21.0317 16.982 21.0317H8.12695C7.71274 21.0317 7.37695 20.696 7.37695 20.2817Z" fill="#000000" />
<path fill-rule="evenodd" clip-rule="evenodd" d="M12.5575 8.31396C10.3849 8.31396 8.62402 10.0743 8.62402 12.2466C8.62402 12.6608 8.28824 12.9966 7.87402 12.9966C7.45981 12.9966 7.12402 12.6608 7.12402 12.2466C7.12402 9.24544 9.55681 6.81396 12.5575 6.81396C15.5574 6.81396 17.9901 9.24554 17.9901 12.2466C17.9901 12.6608 17.6543 12.9966 17.2401 12.9966C16.8259 12.9966 16.4901 12.6608 16.4901 12.2466C16.4901 10.0742 14.7292 8.31396 12.5575 8.31396Z" fill="#000000" />
<path fill-rule="evenodd" clip-rule="evenodd" d="M12.561 2.95312C12.9752 2.95312 13.311 3.28891 13.311 3.70312V3.73351C13.311 4.14773 12.9752 4.48351 12.561 4.48351C12.1468 4.48351 11.811 4.14773 11.811 3.73351V3.70312C11.811 3.28891 12.1468 2.95312 12.561 2.95312Z" fill="#000000" />
<path fill-rule="evenodd" clip-rule="evenodd" d="M5.99311 5.68354C6.286 5.39064 6.76087 5.39064 7.05377 5.68354L7.07218 5.70195C7.36508 5.99485 7.36508 6.46972 7.07218 6.76261C6.77929 7.05551 6.30442 7.05551 6.01152 6.76261L5.99311 6.7442C5.70021 6.4513 5.70021 5.97643 5.99311 5.68354Z" fill="#000000" />
<path fill-rule="evenodd" clip-rule="evenodd" d="M3.2417 12.2471C3.2417 11.8329 3.57749 11.4971 3.9917 11.4971H4.03866C4.45288 11.4971 4.78866 11.8329 4.78866 12.2471C4.78866 12.6613 4.45288 12.9971 4.03866 12.9971H3.9917C3.57749 12.9971 3.2417 12.6613 3.2417 12.2471Z" fill="#000000" />
<path fill-rule="evenodd" clip-rule="evenodd" d="M20.3232 12.2471C20.3232 11.8329 20.659 11.4971 21.0732 11.4971H21.1138C21.528 11.4971 21.8638 11.8329 21.8638 12.2471C21.8638 12.6613 21.528 12.9971 21.1138 12.9971H21.0732C20.659 12.9971 20.3232 12.6613 20.3232 12.2471Z" fill="#000000" />
<path fill-rule="evenodd" clip-rule="evenodd" d="M19.1503 5.65571C19.4432 5.9486 19.4432 6.42347 19.1503 6.71637L19.107 6.75965C18.8141 7.05254 18.3392 7.05254 18.0463 6.75965C17.7534 6.46675 17.7534 5.99188 18.0463 5.69899L18.0896 5.65571C18.3825 5.36281 18.8574 5.36281 19.1503 5.65571Z" fill="#000000" />
</svg>