<svg width="24px"  height="24px"  viewBox="0 0 25 24" fill="none" xmlns="http://www.w3.org/2000/svg">
<path fill-rule="evenodd" clip-rule="evenodd" d="M12.555 8.26953C10.3909 8.26953 8.63574 10.0247 8.63574 12.1888C8.63574 12.603 8.29996 12.9388 7.88574 12.9388C7.47153 12.9388 7.13574 12.603 7.13574 12.1888C7.13574 9.19624 9.56245 6.76953 12.555 6.76953C15.5487 6.76953 17.9743 9.19634 17.9743 12.1888C17.9743 12.603 17.6386 12.9388 17.2243 12.9388C16.8101 12.9388 16.4743 12.603 16.4743 12.1888C16.4743 10.0246 14.7201 8.26953 12.555 8.26953Z" fill="#000000" />
<path fill-rule="evenodd" clip-rule="evenodd" d="M12.5547 2.26953C12.9689 2.26953 13.3047 2.60532 13.3047 3.01953V4.39142C13.3047 4.80564 12.9689 5.14142 12.5547 5.14142C12.1405 5.14142 11.8047 4.80564 11.8047 4.39142V3.01953C11.8047 2.60532 12.1405 2.26953 12.5547 2.26953Z" fill="#000000" />
<path fill-rule="evenodd" clip-rule="evenodd" d="M19.4326 12.0195C19.4326 11.6053 19.7684 11.2695 20.1826 11.2695H21.5545C21.9687 11.2695 22.3045 11.6053 22.3045 12.0195C22.3045 12.4337 21.9687 12.7695 21.5545 12.7695H20.1826C19.7684 12.7695 19.4326 12.4337 19.4326 12.0195Z" fill="#000000" />
<path fill-rule="evenodd" clip-rule="evenodd" d="M2.80469 12.0195C2.80469 11.6053 3.14047 11.2695 3.55469 11.2695H4.92658C5.34079 11.2695 5.67658 11.6053 5.67658 12.0195C5.67658 12.4337 5.34079 12.7695 4.92658 12.7695H3.55469C3.14047 12.7695 2.80469 12.4337 2.80469 12.0195Z" fill="#000000" />
<path fill-rule="evenodd" clip-rule="evenodd" d="M19.4481 5.12836C19.741 5.42125 19.741 5.89613 19.4481 6.18902L18.4781 7.15908C18.1852 7.45197 17.7103 7.45197 17.4174 7.15908C17.1245 6.86618 17.1245 6.39131 17.4174 6.09842L18.3875 5.12836C18.6804 4.83547 19.1552 4.83547 19.4481 5.12836Z" fill="#000000" />
<path fill-rule="evenodd" clip-rule="evenodd" d="M5.65961 5.12836C5.9525 4.83547 6.42738 4.83547 6.72027 5.12836L7.69033 6.09842C7.98322 6.39131 7.98322 6.86618 7.69033 7.15908C7.39743 7.45197 6.92256 7.45197 6.62967 7.15908L5.65961 6.18902C5.36672 5.89613 5.36672 5.42125 5.65961 5.12836Z" fill="#000000" />
<path fill-rule="evenodd" clip-rule="evenodd" d="M3.38574 16.4893C3.38574 16.075 3.72153 15.7393 4.13574 15.7393H20.9711C21.3853 15.7393 21.7211 16.075 21.7211 16.4893C21.7211 16.9035 21.3853 17.2393 20.9711 17.2393H4.13574C3.72153 17.2393 3.38574 16.9035 3.38574 16.4893Z" fill="#000000" />
<path fill-rule="evenodd" clip-rule="evenodd" d="M7.23828 20.4951C7.23828 20.0809 7.57407 19.7451 7.98828 19.7451H17.1196C17.5339 19.7451 17.8696 20.0809 17.8696 20.4951C17.8696 20.9093 17.5339 21.2451 17.1196 21.2451H7.98828C7.57407 21.2451 7.23828 20.9093 7.23828 20.4951Z" fill="#000000" />
</svg>