<svg width="24px"  height="24px"  viewBox="0 0 25 24" fill="none" xmlns="http://www.w3.org/2000/svg">
<path fill-rule="evenodd" clip-rule="evenodd" d="M16.4875 2.48653C16.8713 2.64224 17.0562 3.07963 16.9005 3.46346L16.3525 4.81425C16.1968 5.19808 15.7594 5.38301 15.3756 5.22729C14.9918 5.07158 14.8068 4.6342 14.9626 4.25037L15.5105 2.89958C15.6663 2.51575 16.1036 2.33082 16.4875 2.48653Z" fill="#000000" />
<path fill-rule="evenodd" clip-rule="evenodd" d="M22.1068 8.02937C22.2681 8.41088 22.0896 8.85093 21.7081 9.01223L20.3655 9.57989C19.984 9.74119 19.5439 9.56268 19.3826 9.18116C19.2213 8.79965 19.3998 8.3596 19.7814 8.1983L21.124 7.63064C21.5055 7.46934 21.9455 7.64785 22.1068 8.02937Z" fill="#000000" />
<path fill-rule="evenodd" clip-rule="evenodd" d="M8.59266 2.54688C8.97417 2.38557 9.41422 2.56409 9.57552 2.9456L10.1432 4.28821C10.3045 4.66973 10.126 5.10977 9.74445 5.27107C9.36294 5.43238 8.92289 5.25386 8.76159 4.87235L8.19393 3.52974C8.03263 3.14823 8.21114 2.70818 8.59266 2.54688Z" fill="#000000" />
<path fill-rule="evenodd" clip-rule="evenodd" d="M3.05391 8.16634C2.8982 8.55017 3.08313 8.98756 3.46696 9.14327L4.81775 9.69125C5.20158 9.84697 5.63897 9.66204 5.79468 9.27821C5.95039 8.89438 5.76546 8.45699 5.38163 8.30128L4.03084 7.75329C3.64701 7.59758 3.20963 7.78251 3.05391 8.16634Z" fill="#000000" />
<path fill-rule="evenodd" clip-rule="evenodd" d="M12.611 8.01123C10.2855 8.01123 8.3996 9.89716 8.3996 12.2226V13.2915C8.3996 13.7057 8.06381 14.0415 7.6496 14.0415H3.66626C3.25205 14.0415 2.91626 13.7057 2.91626 13.2915C2.91626 12.8773 3.25205 12.5415 3.66626 12.5415H6.8996V12.2226C6.8996 9.06873 9.4571 6.51123 12.611 6.51123C15.766 6.51123 18.3224 9.06883 18.3224 12.2226V12.5415H21.5547C21.9689 12.5415 22.3047 12.8773 22.3047 13.2915C22.3047 13.7057 21.9689 14.0415 21.5547 14.0415H17.5724C17.1581 14.0415 16.8224 13.7057 16.8224 13.2915V12.2226C16.8224 9.89705 14.9374 8.01123 12.611 8.01123Z" fill="#000000" />
<path fill-rule="evenodd" clip-rule="evenodd" d="M13.1417 21.5427L15.8762 18.8069C16.169 18.514 16.1689 18.0391 15.8759 17.7463C15.5829 17.4535 15.1081 17.4536 14.8152 17.7465L13.361 19.2014V14.7725C13.361 14.3583 13.0252 14.0225 12.611 14.0225C12.1968 14.0225 11.861 14.3583 11.861 14.7725V19.2016L10.4064 17.7465C10.1136 17.4535 9.63868 17.4535 9.34574 17.7463C9.05279 18.0392 9.05271 18.514 9.34556 18.807L12.0806 21.5429M13.1417 21.5427C13.1416 21.5427 13.1416 21.5427 13.1416 21.5428L13.1417 21.5427ZM13.1397 21.5446C12.9935 21.69 12.8023 21.7627 12.611 21.7627L13.1397 21.5446ZM12.6086 21.7627C12.5078 21.7624 12.4117 21.7422 12.324 21.7058L12.6086 21.7627ZM12.3239 21.7058C12.2355 21.6692 12.1527 21.615 12.0808 21.5431C12.0807 21.5431 12.0807 21.543 12.0806 21.543" fill="#000000" />
</svg>