<svg width="24px"  height="24px"  viewBox="0 0 25 24" fill="none" xmlns="http://www.w3.org/2000/svg">
<path fill-rule="evenodd" clip-rule="evenodd" d="M8.57823 3.75C7.33547 3.75 6.32856 4.75692 6.32856 5.99968V12.0224C6.32856 12.2575 6.21833 12.4789 6.03079 12.6207C4.99756 13.4017 4.32812 14.6205 4.32812 15.9999C4.32812 18.347 6.23115 20.25 8.57823 20.25C10.9253 20.25 12.8283 18.347 12.8283 15.9999C12.8283 14.6202 12.1596 13.4015 11.1266 12.6207C10.9391 12.4789 10.8289 12.2575 10.8289 12.0224V5.99968C10.8289 4.75723 9.82131 3.75 8.57823 3.75ZM4.82856 5.99968C4.82856 3.92849 6.50705 2.25 8.57823 2.25C10.6491 2.25 12.3289 3.92817 12.3289 5.99968V11.6647C13.543 12.713 14.3283 14.2569 14.3283 15.9999C14.3283 19.1754 11.7537 21.75 8.57823 21.75C5.40272 21.75 2.82812 19.1754 2.82812 15.9999C2.82812 14.2566 3.61451 12.7128 4.82856 11.6647V5.99968Z" fill="#000000" />
<path fill-rule="evenodd" clip-rule="evenodd" d="M8.57757 15.2759C8.17773 15.2759 7.85352 15.6004 7.85352 15.9999C7.85352 16.3988 8.17708 16.723 8.57757 16.723C8.97676 16.723 9.30065 16.3991 9.30065 15.9999C9.30065 15.6001 8.97612 15.2759 8.57757 15.2759ZM6.35352 15.9999C6.35352 14.7726 7.34865 13.7759 8.57757 13.7759C9.80583 13.7759 10.8007 14.773 10.8007 15.9999C10.8007 17.2276 9.80519 18.223 8.57757 18.223C7.3493 18.223 6.35352 17.2279 6.35352 15.9999Z" fill="#000000" />
<path fill-rule="evenodd" clip-rule="evenodd" d="M8.57812 7.25C8.99234 7.25 9.32812 7.58579 9.32812 8V14.5267C9.32812 14.9409 8.99234 15.2767 8.57812 15.2767C8.16391 15.2767 7.82812 14.9409 7.82812 14.5267V8C7.82812 7.58579 8.16391 7.25 8.57812 7.25Z" fill="#000000" />
<path fill-rule="evenodd" clip-rule="evenodd" d="M16.9747 7.4292C16.8365 7.4292 16.7246 7.54127 16.7246 7.6791C16.7246 7.81722 16.8366 7.9292 16.9747 7.9292C17.1126 7.9292 17.2246 7.81741 17.2246 7.6791C17.2246 7.54108 17.1127 7.4292 16.9747 7.4292ZM15.2246 7.6791C15.2246 6.71265 16.0083 5.9292 16.9747 5.9292C17.9414 5.9292 18.7246 6.71285 18.7246 7.6791C18.7246 8.64546 17.9414 9.4292 16.9747 9.4292C16.0082 9.4292 15.2246 8.64565 15.2246 7.6791Z" fill="#000000" />
<path fill-rule="evenodd" clip-rule="evenodd" d="M18.9292 2.58187C19.2429 2.69934 19.4406 3.01055 19.4138 3.34442C19.3001 4.7557 20.3268 6.00253 21.7337 6.1618C22.0665 6.19947 22.334 6.45326 22.3891 6.78364C22.4442 7.11403 22.2736 7.4409 21.971 7.58455C20.692 8.1918 20.1255 9.70436 20.6911 11.0024C20.8248 11.3094 20.7388 11.668 20.4802 11.8809C20.2217 12.0938 19.8533 12.1095 19.5776 11.9193C18.4122 11.1152 16.819 11.381 15.9777 12.5197C15.7786 12.7891 15.4251 12.8939 15.1114 12.7764C14.7978 12.6589 14.6 12.3477 14.6269 12.0138C14.6819 11.3303 14.4702 10.6866 14.0763 10.1845C13.8207 9.85858 13.8777 9.38713 14.2036 9.13149C14.5295 8.87584 15.0009 8.9328 15.2566 9.25871C15.5583 9.64342 15.7924 10.0823 15.9429 10.5558C16.8483 10.005 17.9377 9.82331 18.9729 10.0503C18.9486 8.99094 19.336 7.95667 20.0501 7.17377C19.1205 6.66505 18.4185 5.81248 18.0976 4.80256C17.1922 5.35327 16.1027 5.53496 15.0676 5.30787C15.0803 5.86594 14.979 6.41693 14.7761 6.9273C14.6231 7.31222 14.1871 7.50022 13.8021 7.34721C13.4172 7.19421 13.2292 6.75813 13.3822 6.37321C13.6323 5.74415 13.6399 5.02235 13.3496 4.35589C13.2158 4.04882 13.3018 3.69027 13.5604 3.47735C13.819 3.26444 14.1874 3.24879 14.4631 3.43899C15.6285 4.24302 17.2216 3.9773 18.063 2.83855C18.262 2.56916 18.6155 2.4644 18.9292 2.58187Z" fill="#000000" />
</svg>