<svg width="24px"  height="24px"  viewBox="0 0 25 24" fill="none" xmlns="http://www.w3.org/2000/svg">
<path d="M12.4389 21.74C12.0089 21.74 11.5989 21.52 11.3589 21.14L5.35891 11.7201C5.10891 11.3201 5.08891 10.82 5.31891 10.41C5.54891 10 5.97891 9.75 6.44891 9.75H11.9889L10.3089 3.88C10.1989 3.49 10.2689 3.08001 10.5189 2.76001C10.7689 2.43001 11.1389 2.25 11.5489 2.25H18.7789C19.1589 2.25 19.5189 2.42008 19.7689 2.71008C20.0089 3.00008 20.1189 3.39001 20.0489 3.76001L18.0989 14.49C17.9889 15.1 17.4489 15.55 16.8289 15.55H13.7389V20.4601C13.7389 21.0401 13.3689 21.5301 12.8189 21.7001C12.6989 21.7401 12.5689 21.75 12.4489 21.75L12.4389 21.74ZM6.83891 11.25L12.2289 19.7201V15.3201C12.2289 14.6101 12.8089 14.04 13.5189 14.04H16.6489L18.5189 3.73999H11.8289L13.5089 9.6001C13.6189 10.0001 13.5389 10.41 13.2989 10.74C13.0489 11.06 12.6789 11.25 12.2789 11.25H6.84891H6.83891Z" fill="#000000" />
</svg>