<svg width="24px"  height="24px"  viewBox="0 0 25 24" fill="none" xmlns="http://www.w3.org/2000/svg">
<path d="M13.1581 21.7455C13.0281 21.7455 12.8981 21.7156 12.7781 21.6656L6.40809 19.0956C6.12809 18.9856 5.9081 18.7356 5.8381 18.4256C5.7681 18.1256 5.8481 17.8056 6.0581 17.5756L7.2881 16.1656L3.8281 13.3456C3.6281 13.1956 3.4981 12.9456 3.4781 12.6756C3.4581 12.4056 3.5581 12.1356 3.7581 11.9456L7.1081 8.37554C7.2981 8.17554 7.5281 8.02561 7.8281 8.07561C8.0981 8.07561 8.3581 8.20557 8.53809 8.40557L12.9181 13.8556C13.1981 14.2256 13.1981 14.6956 12.9281 15.0356L11.6881 16.5456L13.9781 20.2856C14.1981 20.6456 14.1581 21.1056 13.8781 21.4156C13.6981 21.6256 13.4381 21.7355 13.1681 21.7355L13.1581 21.7455ZM13.3281 20.2756H13.3581C13.3581 20.2756 13.3381 20.2756 13.3281 20.2756ZM7.67809 17.9955L11.8081 19.6656L10.1781 17.0156C9.96809 16.6556 9.9981 16.2256 10.2481 15.9156C10.2481 15.9156 10.2481 15.9156 10.2581 15.9056L11.4481 14.4556L7.7581 9.86553L5.2281 12.5656L8.6681 15.3556C9.0881 15.7356 9.12809 16.3156 8.79809 16.7156L7.68809 17.9855L7.67809 17.9955ZM7.18809 18.5556L7.1681 18.5756C7.1681 18.5756 7.17809 18.5656 7.18809 18.5556ZM4.7481 12.1756L4.7781 12.1956C4.7781 12.1956 4.7581 12.1756 4.7481 12.1756Z" fill="#000000" />
<path d="M16.9987 16.4852C16.9087 16.4852 16.8187 16.4753 16.7287 16.4453C16.3287 16.3253 16.0586 15.9753 16.0486 15.5653L15.9287 11.5753L14.0087 10.7652C13.5987 10.5652 13.3887 10.1853 13.4287 9.78527L14.1987 3.09533C14.2287 2.82533 14.3787 2.57528 14.5987 2.42528C14.8187 2.26528 15.0987 2.21527 15.3687 2.28527L20.0887 3.50524C20.2887 3.53524 20.5187 3.69527 20.6586 3.91527C20.7986 4.14527 20.8387 4.42529 20.7687 4.68529L19.5787 8.77526L21.0687 9.21532C21.3587 9.30532 21.5987 9.52529 21.6987 9.80529C21.7987 10.0953 21.7587 10.4053 21.5887 10.6553L17.7887 16.0753C17.6087 16.3353 17.3187 16.4852 17.0087 16.4852H16.9987ZM14.9587 9.54528L16.8287 10.3353C17.2087 10.5453 17.3986 10.8453 17.4086 11.1853L17.4887 13.8652L19.8987 10.4353L18.6187 10.0553C18.3887 9.99529 18.1787 9.83534 18.0587 9.60534C17.9387 9.38534 17.9087 9.12524 17.9787 8.87524L19.1687 4.80529L15.6187 3.88524L14.9687 9.54528H14.9587ZM19.6787 4.9453C19.6787 4.9453 19.7387 4.96532 19.7687 4.96532L19.6787 4.9453Z" fill="#000000" />
</svg>