<svg width="24px"  height="24px"  viewBox="0 0 25 24" fill="none" xmlns="http://www.w3.org/2000/svg">
<path d="M15.3282 16.2252C15.1482 16.2252 14.9582 16.1852 14.7882 16.0852C14.3282 15.8352 14.0982 15.3052 14.2282 14.7952L15.2282 11.0251H13.0982C12.7282 11.0251 12.3782 10.8452 12.1682 10.5452C11.9582 10.2452 11.9082 9.85513 12.0382 9.50513C12.0382 9.50513 12.0382 9.48522 12.0482 9.47522L14.5082 3.48523C14.6582 3.06523 15.0882 2.76514 15.5582 2.76514H18.8482C19.2182 2.76514 19.5682 2.94512 19.7782 3.24512C19.9882 3.54512 20.0382 3.92514 19.9182 4.26514L18.6782 7.18518H21.2282C21.6782 7.18518 22.0682 7.43521 22.2582 7.84521C22.4482 8.25521 22.3782 8.72519 22.0882 9.06519L16.1782 15.8052C15.9582 16.0552 15.6482 16.1852 15.3282 16.1952V16.2252ZM13.6582 9.53516H15.7182C16.0682 9.53516 16.3982 9.69522 16.6182 9.97522C16.8382 10.2552 16.9082 10.6152 16.8182 10.9552L16.0982 13.6652L20.4382 8.71521H18.1382C17.7682 8.71521 17.4282 8.53523 17.2182 8.23523C17.0082 7.93523 16.9482 7.5552 17.0682 7.2052L18.3082 4.28516H15.8182L13.6682 9.53516H13.6582ZM15.9082 4.04517V4.0752C15.9082 4.0752 15.9082 4.05517 15.9082 4.04517Z" fill="#000000" />
<path d="M5.9287 21.2351C5.7487 21.2351 5.57869 21.1951 5.40869 21.1051C4.95869 20.8651 4.73869 20.3551 4.86869 19.8651L5.72869 16.635H3.94869C3.59869 16.635 3.25869 16.465 3.05869 16.165C2.85869 15.875 2.8087 15.495 2.9287 15.165V15.145L5.10869 9.81506C5.25869 9.41506 5.66869 9.125 6.11869 9.125H9.04869C9.39869 9.125 9.73869 9.29508 9.93869 9.58508C10.1387 9.87508 10.1887 10.2451 10.0787 10.5751L9.01869 13.0651H11.1587C11.5887 13.0651 11.9787 13.3251 12.1587 13.7151C12.3287 14.1051 12.2587 14.565 11.9687 14.875L6.72869 20.8651C6.51869 21.1051 6.21869 21.2351 5.90869 21.2351H5.9287ZM4.55869 15.125H6.26869C6.60869 15.125 6.92869 15.2851 7.13869 15.5551C7.34869 15.8251 7.4087 16.165 7.3187 16.495L6.76869 18.545L10.2587 14.5551H8.39869C8.04869 14.5551 7.70869 14.3851 7.50869 14.0951C7.30869 13.8051 7.25869 13.4351 7.36869 13.1051L8.4287 10.6151H6.39869L4.54869 15.125H4.55869Z" fill="#000000" />
</svg>