<svg width="24px"  height="24px"  viewBox="0 0 25 24" fill="none" xmlns="http://www.w3.org/2000/svg">
<path fill-rule="evenodd" clip-rule="evenodd" d="M5.3301 6.10775C4.99523 6.4236 4.90039 6.68365 4.90039 6.8764C4.90039 7.06915 4.99523 7.3292 5.3301 7.64504C5.66647 7.9623 6.19357 8.28257 6.90719 8.56726C8.33023 9.13496 10.3475 9.50279 12.6139 9.50279C14.8802 9.50279 16.8975 9.13496 18.3206 8.56726C19.0342 8.28257 19.5613 7.9623 19.8977 7.64504C20.2325 7.3292 20.3274 7.06915 20.3274 6.8764C20.3274 6.68365 20.2325 6.4236 19.8977 6.10775C19.5613 5.79049 19.0342 5.47023 18.3206 5.18554C16.8975 4.61783 14.8802 4.25 12.6139 4.25C10.3475 4.25 8.33023 4.61783 6.90719 5.18554C6.19357 5.47023 5.66647 5.79049 5.3301 6.10775ZM6.35139 3.79231C7.99153 3.138 10.206 2.75 12.6139 2.75C15.0218 2.75 17.2362 3.138 18.8764 3.79231C19.6943 4.11863 20.4067 4.52592 20.9269 5.01655C21.4486 5.5086 21.8274 6.13678 21.8274 6.8764C21.8274 7.61601 21.4486 8.2442 20.9269 8.73624C20.4067 9.22688 19.6943 9.63417 18.8764 9.96048C17.2362 10.6148 15.0218 11.0028 12.6139 11.0028C10.206 11.0028 7.99153 10.6148 6.35139 9.96048C5.53342 9.63417 4.82107 9.22688 4.30089 8.73624C3.7792 8.2442 3.40039 7.61601 3.40039 6.8764C3.40039 6.13678 3.7792 5.5086 4.30089 5.01655C4.82107 4.52592 5.53342 4.11863 6.35139 3.79231Z" fill="#000000" />
<path fill-rule="evenodd" clip-rule="evenodd" d="M6.29057 11.3343C6.65373 11.1351 7.10963 11.268 7.30883 11.6311C7.45106 11.8904 7.86012 12.2402 8.6413 12.5539C9.39342 12.8559 10.3839 13.0807 11.5156 13.1707C11.9285 13.2036 12.2366 13.5649 12.2037 13.9778C12.1709 14.3908 11.8095 14.6989 11.3966 14.666C10.1483 14.5667 9.00388 14.3159 8.08235 13.9459C7.18988 13.5875 6.38654 13.0687 5.99369 12.3525C5.79449 11.9894 5.9274 11.5335 6.29057 11.3343Z" fill="#000000" />
<path fill-rule="evenodd" clip-rule="evenodd" d="M17.6762 15.2049C18.0312 15.4182 18.1461 15.879 17.9328 16.234C17.5291 16.906 16.7071 17.3577 15.8369 17.6435C14.9283 17.942 13.8093 18.1118 12.6143 18.1118C12.2 18.1118 11.8643 17.7761 11.8643 17.3618C11.8643 16.9476 12.2 16.6118 12.6143 16.6118C13.6771 16.6118 14.6348 16.4595 15.3688 16.2184C16.1414 15.9646 16.5282 15.6592 16.647 15.4615C16.8603 15.1065 17.3211 14.9916 17.6762 15.2049Z" fill="#000000" />
<path fill-rule="evenodd" clip-rule="evenodd" d="M8.75735 18.8911C9.08262 18.6346 9.5542 18.6904 9.81067 19.0156C9.90365 19.1336 10.1808 19.3304 10.7189 19.4949C11.23 19.6512 11.8864 19.7501 12.6148 19.7501C13.0291 19.7501 13.3648 20.0859 13.3648 20.5001C13.3648 20.9143 13.0291 21.2501 12.6148 21.2501C11.7598 21.2501 10.9531 21.1351 10.2803 20.9294C9.63437 20.7319 9.00675 20.4187 8.63276 19.9444C8.3763 19.6191 8.43208 19.1475 8.75735 18.8911Z" fill="#000000" />
<path fill-rule="evenodd" clip-rule="evenodd" d="M18.9379 11.3343C19.3011 11.5335 19.434 11.9894 19.2348 12.3525C18.9137 12.9379 18.3219 13.3847 17.6574 13.7168C16.9775 14.0567 16.1407 14.3172 15.2171 14.4865C14.8096 14.5611 14.4188 14.2913 14.3442 13.8839C14.2696 13.4765 14.5393 13.0857 14.9468 13.011C15.7689 12.8604 16.4635 12.6367 16.9867 12.3751C17.5253 12.1059 17.8083 11.8341 17.9196 11.6311C18.1189 11.268 18.5747 11.1351 18.9379 11.3343Z" fill="#000000" />
<path fill-rule="evenodd" clip-rule="evenodd" d="M7.55234 15.2049C7.90741 14.9916 8.36817 15.1065 8.58149 15.4615C8.64063 15.56 8.78164 15.7078 9.06048 15.8709C9.33254 16.0299 9.69635 16.1801 10.1415 16.3035C10.5407 16.4142 10.7746 16.8274 10.664 17.2266C10.5534 17.6258 10.1401 17.8597 9.74094 17.749C9.20449 17.6004 8.71381 17.4057 8.30338 17.1658C7.89973 16.9298 7.53023 16.6244 7.29569 16.234C7.08238 15.879 7.19728 15.4182 7.55234 15.2049Z" fill="#000000" />
<path fill-rule="evenodd" clip-rule="evenodd" d="M16.4717 18.8911C16.797 19.1475 16.8528 19.6191 16.5963 19.9444C16.3516 20.2548 16.0047 20.4882 15.641 20.6629C15.2677 20.8422 14.8196 20.6849 14.6403 20.3115C14.4609 19.9381 14.6183 19.4901 14.9916 19.3107C15.2386 19.1921 15.366 19.0821 15.4184 19.0156C15.6749 18.6904 16.1465 18.6346 16.4717 18.8911Z" fill="#000000" />
</svg>