<svg width="24px"  height="24px"  viewBox="0 0 25 24" fill="none" xmlns="http://www.w3.org/2000/svg">
<path fill-rule="evenodd" clip-rule="evenodd" d="M7.33674 6.90038C7.47655 7.29028 7.2738 7.7197 6.8839 7.85951C6.06455 8.15331 5.45049 8.4931 5.05535 8.83595C4.6586 9.1802 4.55176 9.46183 4.55176 9.66076C4.55176 9.85049 4.64804 10.1137 5.00094 10.4371C5.35434 10.7609 5.90726 11.0869 6.65384 11.3763C8.14216 11.953 10.2492 12.3258 12.6141 12.3258C14.979 12.3258 17.086 11.953 18.5743 11.3763C19.3209 11.0869 19.8738 10.7609 20.2272 10.4371C20.5801 10.1137 20.6764 9.85049 20.6764 9.66076C20.6764 9.4721 20.5813 9.21095 20.2333 8.89006C19.8846 8.56851 19.3387 8.24412 18.6004 7.95543C18.2146 7.80457 18.0242 7.36956 18.1751 6.98379C18.3259 6.59802 18.7609 6.40759 19.1467 6.55844C19.9866 6.88687 20.717 7.29565 21.2502 7.78737C21.7841 8.27975 22.1764 8.91196 22.1764 9.66076C22.1764 10.4141 21.7795 11.0492 21.2406 11.543C20.7021 12.0364 19.9645 12.4462 19.1163 12.7749C17.4152 13.4341 15.1161 13.8258 12.6141 13.8258C10.1121 13.8258 7.81293 13.4341 6.11182 12.7749C5.26368 12.4462 4.52607 12.0364 3.98761 11.543C3.44865 11.0492 3.05176 10.4141 3.05176 9.66076C3.05176 8.8687 3.48952 8.20863 4.07232 7.70297C4.65673 7.1959 5.45717 6.77758 6.37761 6.44754C6.76751 6.30773 7.19693 6.51047 7.33674 6.90038Z" fill="#000000" />
<path fill-rule="evenodd" clip-rule="evenodd" d="M7.33674 6.90038C7.47655 7.29028 7.2738 7.7197 6.8839 7.85951C6.06455 8.15331 5.45049 8.4931 5.05535 8.83595C4.6586 9.1802 4.55176 9.46183 4.55176 9.66076C4.55176 9.85049 4.64804 10.1137 5.00094 10.4371C5.35434 10.7609 5.90726 11.0869 6.65384 11.3763C8.14216 11.953 10.2492 12.3258 12.6141 12.3258C14.979 12.3258 17.086 11.953 18.5743 11.3763C19.3209 11.0869 19.8738 10.7609 20.2272 10.4371C20.5801 10.1137 20.6764 9.85049 20.6764 9.66076C20.6764 9.4721 20.5813 9.21095 20.2333 8.89006C19.8846 8.56851 19.3387 8.24412 18.6004 7.95543C18.2146 7.80457 18.0242 7.36956 18.1751 6.98379C18.3259 6.59802 18.7609 6.40759 19.1467 6.55844C19.9866 6.88687 20.717 7.29565 21.2502 7.78737C21.7841 8.27975 22.1764 8.91196 22.1764 9.66076C22.1764 10.4141 21.7795 11.0492 21.2406 11.543C20.7021 12.0364 19.9645 12.4462 19.1163 12.7749C17.4152 13.4341 15.1161 13.8258 12.6141 13.8258C10.1121 13.8258 7.81293 13.4341 6.11182 12.7749C5.26368 12.4462 4.52607 12.0364 3.98761 11.543C3.44865 11.0492 3.05176 10.4141 3.05176 9.66076C3.05176 8.8687 3.48952 8.20863 4.07232 7.70297C4.65673 7.1959 5.45717 6.77758 6.37761 6.44754C6.76751 6.30773 7.19693 6.51047 7.33674 6.90038Z" fill="#000000" />
<path fill-rule="evenodd" clip-rule="evenodd" d="M7.44757 15.086C7.22902 15.2863 7.20703 15.4142 7.20703 15.4618C7.20703 15.5095 7.22902 15.6374 7.44757 15.8377C7.66662 16.0384 8.02513 16.2536 8.53148 16.4498C9.53934 16.8404 10.9826 17.098 12.6144 17.098C14.5349 17.098 16.1791 16.7415 17.1653 16.2431C17.535 16.0562 17.9862 16.2045 18.173 16.5741C18.3599 16.9438 18.2116 17.395 17.842 17.5818C16.5774 18.221 14.6787 18.598 12.6144 18.598C10.8455 18.598 9.21011 18.3215 7.98946 17.8484C7.38155 17.6129 6.83834 17.3139 6.43424 16.9436C6.02963 16.5729 5.70703 16.0731 5.70703 15.4618C5.70703 14.8506 6.02963 14.3508 6.43424 13.9801C6.83834 13.6098 7.38155 13.3108 7.98946 13.0753C9.21011 12.6022 10.8455 12.3257 12.6144 12.3257C13.0286 12.3257 13.3644 12.6615 13.3644 13.0757C13.3644 13.4899 13.0286 13.8257 12.6144 13.8257C10.9826 13.8257 9.53934 14.0833 8.53148 14.4739C8.02513 14.6701 7.66662 14.8853 7.44757 15.086Z" fill="#000000" />
<path fill-rule="evenodd" clip-rule="evenodd" d="M7.44757 15.086C7.22902 15.2863 7.20703 15.4142 7.20703 15.4618C7.20703 15.5095 7.22902 15.6374 7.44757 15.8377C7.66662 16.0384 8.02513 16.2536 8.53148 16.4498C9.53934 16.8404 10.9826 17.098 12.6144 17.098C14.5349 17.098 16.1791 16.7415 17.1653 16.2431C17.535 16.0562 17.9862 16.2045 18.173 16.5741C18.3599 16.9438 18.2116 17.395 17.842 17.5818C16.5774 18.221 14.6787 18.598 12.6144 18.598C10.8455 18.598 9.21011 18.3215 7.98946 17.8484C7.38155 17.6129 6.83834 17.3139 6.43424 16.9436C6.02963 16.5729 5.70703 16.0731 5.70703 15.4618C5.70703 14.8506 6.02963 14.3508 6.43424 13.9801C6.83834 13.6098 7.38155 13.3108 7.98946 13.0753C9.21011 12.6022 10.8455 12.3257 12.6144 12.3257C13.0286 12.3257 13.3644 12.6615 13.3644 13.0757C13.3644 13.4899 13.0286 13.8257 12.6144 13.8257C10.9826 13.8257 9.53934 14.0833 8.53148 14.4739C8.02513 14.6701 7.66662 14.8853 7.44757 15.086Z" fill="#000000" />
<path fill-rule="evenodd" clip-rule="evenodd" d="M9.3159 19.4237C9.32833 19.4084 9.34686 19.3882 9.37411 19.3632C9.48738 19.2594 9.69282 19.1315 10.01 19.0086C10.6396 18.7646 11.5602 18.5977 12.6147 18.5977C13.0289 18.5977 13.3647 18.2619 13.3647 17.8477C13.3647 17.4334 13.0289 17.0977 12.6147 17.0977C11.4231 17.0977 10.3104 17.2835 9.468 17.6099C9.04924 17.7722 8.6591 17.9839 8.36078 18.2572C8.06195 18.531 7.79785 18.9243 7.79785 19.4237C7.79785 19.9231 8.06195 20.3164 8.36078 20.5902C8.6591 20.8635 9.04924 21.0752 9.468 21.2375C10.3104 21.5639 11.4231 21.7498 12.6147 21.7498C13.851 21.7498 15.0049 21.5496 15.8597 21.1983C16.2428 21.0408 16.4257 20.6025 16.2682 20.2194C16.1107 19.8363 15.6724 19.6534 15.2893 19.8109C14.6609 20.0692 13.7113 20.2498 12.6147 20.2498C11.5602 20.2498 10.6396 20.0828 10.01 19.8388C9.69282 19.7159 9.48738 19.588 9.37411 19.4842C9.34686 19.4592 9.32833 19.439 9.3159 19.4237ZM9.29224 19.46C9.2921 19.46 9.29253 19.4586 9.29393 19.4558C9.29307 19.4586 9.29237 19.46 9.29224 19.46ZM9.29393 19.3916C9.29253 19.3888 9.2921 19.3874 9.29224 19.3874C9.29237 19.3874 9.29307 19.3888 9.29393 19.3916Z" fill="#000000" />
<path fill-rule="evenodd" clip-rule="evenodd" d="M9.3159 19.4237C9.32833 19.4084 9.34686 19.3882 9.37411 19.3632C9.48738 19.2594 9.69282 19.1315 10.01 19.0086C10.6396 18.7646 11.5602 18.5977 12.6147 18.5977C13.0289 18.5977 13.3647 18.2619 13.3647 17.8477C13.3647 17.4334 13.0289 17.0977 12.6147 17.0977C11.4231 17.0977 10.3104 17.2835 9.468 17.6099C9.04924 17.7722 8.6591 17.9839 8.36078 18.2572C8.06195 18.531 7.79785 18.9243 7.79785 19.4237C7.79785 19.9231 8.06195 20.3164 8.36078 20.5902C8.6591 20.8635 9.04924 21.0752 9.468 21.2375C10.3104 21.5639 11.4231 21.7498 12.6147 21.7498C13.851 21.7498 15.0049 21.5496 15.8597 21.1983C16.2428 21.0408 16.4257 20.6025 16.2682 20.2194C16.1107 19.8363 15.6724 19.6534 15.2893 19.8109C14.6609 20.0692 13.7113 20.2498 12.6147 20.2498C11.5602 20.2498 10.6396 20.0828 10.01 19.8388C9.69282 19.7159 9.48738 19.588 9.37411 19.4842C9.34686 19.4592 9.32833 19.439 9.3159 19.4237ZM9.29224 19.46C9.2921 19.46 9.29253 19.4586 9.29393 19.4558C9.29307 19.4586 9.29237 19.46 9.29224 19.46ZM9.29393 19.3916C9.29253 19.3888 9.2921 19.3874 9.29224 19.3874C9.29237 19.3874 9.29307 19.3888 9.29393 19.3916Z" fill="#000000" />
<path fill-rule="evenodd" clip-rule="evenodd" d="M11.2048 2.30622C11.5881 2.46329 11.7714 2.90134 11.6144 3.28461L10.5524 5.87578H11.6151C12.2801 5.87578 12.7644 6.50614 12.593 7.14868L12.3583 8.0291L14.3276 5.78126H13.268C12.5695 5.78126 12.081 5.09043 12.3137 4.43185C12.3182 4.41935 12.3229 4.40697 12.328 4.39472L13.0247 2.71317C13.1832 2.3305 13.6219 2.14881 14.0046 2.30736C14.3873 2.4659 14.569 2.90464 14.4104 3.28731L13.9986 4.28126H15.4037C16.2736 4.28126 16.7382 5.30606 16.165 5.96035L12.1099 10.5888C11.4044 11.3941 10.0948 10.6956 10.3707 9.6611L10.9801 7.37578H9.82502C9.12143 7.37578 8.6325 6.67562 8.87482 6.01508C8.87804 6.00631 8.88141 5.99761 8.88496 5.98897L10.2264 2.71578C10.3835 2.33251 10.8215 2.14914 11.2048 2.30622Z" fill="#000000" />
</svg>