<svg width="24px"  height="24px"  viewBox="0 0 25 24" fill="none" xmlns="http://www.w3.org/2000/svg">
<path fill-rule="evenodd" clip-rule="evenodd" d="M5.3301 6.10775C4.99523 6.4236 4.90039 6.68365 4.90039 6.8764C4.90039 7.06915 4.99523 7.3292 5.3301 7.64504C5.66647 7.9623 6.19357 8.28257 6.90719 8.56726C8.33023 9.13496 10.3475 9.50279 12.6139 9.50279C14.8802 9.50279 16.8975 9.13496 18.3206 8.56726C19.0342 8.28257 19.5613 7.9623 19.8977 7.64504C20.2325 7.3292 20.3274 7.06915 20.3274 6.8764C20.3274 6.68365 20.2325 6.4236 19.8977 6.10775C19.5613 5.79049 19.0342 5.47023 18.3206 5.18554C16.8975 4.61783 14.8802 4.25 12.6139 4.25C10.3475 4.25 8.33023 4.61783 6.90719 5.18554C6.19357 5.47023 5.66647 5.79049 5.3301 6.10775ZM6.35139 3.79231C7.99153 3.138 10.206 2.75 12.6139 2.75C15.0218 2.75 17.2362 3.138 18.8764 3.79231C19.6943 4.11863 20.4067 4.52592 20.9269 5.01655C21.4486 5.5086 21.8274 6.13678 21.8274 6.8764C21.8274 7.61601 21.4486 8.2442 20.9269 8.73624C20.4067 9.22688 19.6943 9.63417 18.8764 9.96048C17.2362 10.6148 15.0218 11.0028 12.6139 11.0028C10.206 11.0028 7.99153 10.6148 6.35139 9.96048C5.53342 9.63417 4.82107 9.22688 4.30089 8.73624C3.7792 8.2442 3.40039 7.61601 3.40039 6.8764C3.40039 6.13678 3.7792 5.5086 4.30089 5.01655C4.82107 4.52592 5.53342 4.11863 6.35139 3.79231Z" fill="#000000" />
<path fill-rule="evenodd" clip-rule="evenodd" d="M6.29057 11.3343C6.65373 11.1351 7.10963 11.268 7.30883 11.6311C7.47783 11.9392 8.00961 12.354 9.01262 12.6902C9.9732 13.0121 11.2269 13.2138 12.6146 13.2138C14.0024 13.2138 15.2561 13.0121 16.2167 12.6902C17.2197 12.354 17.7514 11.9392 17.9204 11.6311C18.1196 11.268 18.5755 11.1351 18.9387 11.3343C19.3019 11.5335 19.4348 11.9894 19.2356 12.3525C18.7852 13.1737 17.7899 13.7449 16.6933 14.1124C15.5544 14.4942 14.1361 14.7138 12.6146 14.7138C11.0932 14.7138 9.67489 14.4942 8.53593 14.1124C7.43941 13.7449 6.4441 13.1737 5.99369 12.3525C5.79449 11.9894 5.9274 11.5335 6.29057 11.3343Z" fill="#000000" />
<path fill-rule="evenodd" clip-rule="evenodd" d="M7.55234 15.2049C7.90741 14.9916 8.36817 15.1065 8.58149 15.4615C8.70028 15.6592 9.0871 15.9646 9.8597 16.2184C10.5938 16.4595 11.5514 16.6118 12.6143 16.6118C13.6771 16.6118 14.6348 16.4595 15.3688 16.2184C16.1414 15.9646 16.5282 15.6592 16.647 15.4615C16.8603 15.1065 17.3211 14.9916 17.6762 15.2049C18.0312 15.4182 18.1461 15.879 17.9328 16.234C17.5291 16.906 16.7071 17.3577 15.8369 17.6435C14.9283 17.942 13.8093 18.1118 12.6143 18.1118C11.4192 18.1118 10.3002 17.942 9.39157 17.6435C8.52145 17.3577 7.69941 16.906 7.29569 16.234C7.08238 15.879 7.19728 15.4182 7.55234 15.2049Z" fill="#000000" />
<path fill-rule="evenodd" clip-rule="evenodd" d="M8.75735 18.8911C9.08262 18.6346 9.5542 18.6904 9.81067 19.0156C9.90365 19.1336 10.1808 19.3304 10.7189 19.4949C11.23 19.6512 11.8864 19.7501 12.6148 19.7501C13.3433 19.7501 13.9997 19.6512 14.5108 19.4949C15.0488 19.3304 15.326 19.1336 15.419 19.0156C15.6755 18.6904 16.1471 18.6346 16.4723 18.8911C16.7976 19.1475 16.8534 19.6191 16.5969 19.9444C16.2229 20.4187 15.5953 20.7319 14.9494 20.9294C14.2765 21.1351 13.4699 21.2501 12.6148 21.2501C11.7598 21.2501 10.9531 21.1351 10.2803 20.9294C9.63437 20.7319 9.00675 20.4187 8.63276 19.9444C8.3763 19.6191 8.43208 19.1475 8.75735 18.8911Z" fill="#000000" />
</svg>