<svg width="24px"  height="24px"  viewBox="0 0 25 24" fill="none" xmlns="http://www.w3.org/2000/svg">
<path fill-rule="evenodd" clip-rule="evenodd" d="M2.86426 3.99609C2.86426 3.58188 3.20004 3.24609 3.61426 3.24609H21.6143C22.0285 3.24609 22.3643 3.58188 22.3643 3.99609C22.3643 4.41031 22.0285 4.74609 21.6143 4.74609H3.61426C3.20004 4.74609 2.86426 4.41031 2.86426 3.99609Z" fill="#000000" />
<path fill-rule="evenodd" clip-rule="evenodd" d="M4.53882 8.12207C4.53882 7.70786 4.8746 7.37207 5.28882 7.37207H19.9395C20.3537 7.37207 20.6895 7.70786 20.6895 8.12207C20.6895 8.53628 20.3537 8.87207 19.9395 8.87207H5.28882C4.8746 8.87207 4.53882 8.53628 4.53882 8.12207Z" fill="#000000" />
<path fill-rule="evenodd" clip-rule="evenodd" d="M8.12695 12.0503C8.12695 11.6361 8.46274 11.3003 8.87695 11.3003H21.6143C22.0286 11.3003 22.3643 11.6361 22.3643 12.0503C22.3643 12.4645 22.0286 12.8003 21.6143 12.8003H8.87695C8.46274 12.8003 8.12695 12.4645 8.12695 12.0503Z" fill="#000000" />
<path fill-rule="evenodd" clip-rule="evenodd" d="M11.0449 15.9971C11.0449 15.5829 11.3807 15.2471 11.7949 15.2471H17.595C18.0093 15.2471 18.345 15.5829 18.345 15.9971C18.345 16.4113 18.0093 16.7471 17.595 16.7471H11.7949C11.3807 16.7471 11.0449 16.4113 11.0449 15.9971Z" fill="#000000" />
<path fill-rule="evenodd" clip-rule="evenodd" d="M9 20.0039C9 19.5897 9.33579 19.2539 9.75 19.2539H13.8398C14.254 19.2539 14.5898 19.5897 14.5898 20.0039C14.5898 20.4181 14.254 20.7539 13.8398 20.7539H9.75C9.33579 20.7539 9 20.4181 9 20.0039Z" fill="#000000" />
</svg>