<svg width="24px"  height="24px"  viewBox="0 0 25 24" fill="none" xmlns="http://www.w3.org/2000/svg">
<path fill-rule="evenodd" clip-rule="evenodd" d="M14.9331 8.18719C13.7212 8.81303 13.0333 9.8568 12.8807 10.4941C12.7842 10.897 12.3794 11.1453 11.9766 11.0488C11.5737 10.9523 11.3254 10.5475 11.4219 10.1447C11.6869 9.03883 12.6877 7.65851 14.2449 6.8544C15.8502 6.02546 18.0209 5.81659 20.5877 7.02619C20.9624 7.20277 21.123 7.64966 20.9464 8.02435C20.7698 8.39904 20.3229 8.55965 19.9482 8.38307C17.7757 7.35927 16.097 7.58619 14.9331 8.18719Z" fill="#000000" />
<path fill-rule="evenodd" clip-rule="evenodd" d="M10.2956 15.8128C11.5076 15.187 12.1954 14.1432 12.3481 13.5059C12.4446 13.103 12.8494 12.8547 13.2522 12.9512C13.655 13.0477 13.9033 13.4525 13.8068 13.8553C13.5419 14.9612 12.541 16.3415 10.9839 17.1456C9.37861 17.9745 7.20784 18.1834 4.64108 16.9738C4.26639 16.7972 4.10578 16.3503 4.28236 15.9756C4.45893 15.601 4.90582 15.4404 5.28052 15.6169C7.45302 16.6407 9.13178 16.4138 10.2956 15.8128Z" fill="#000000" />
<path fill-rule="evenodd" clip-rule="evenodd" d="M16.95 10.9432C15.6505 10.5288 14.426 10.7805 13.8674 11.1232C13.5143 11.3398 13.0525 11.2291 12.8359 10.8761C12.6193 10.523 12.73 10.0612 13.083 9.84458C14.0523 9.24997 15.7361 8.98165 17.4057 9.51414C19.127 10.0631 20.8096 11.4504 21.7693 14.1206C21.9094 14.5105 21.707 14.94 21.3172 15.0801C20.9273 15.2202 20.4978 15.0178 20.3577 14.628C19.5454 12.3678 18.1979 11.3412 16.95 10.9432Z" fill="#000000" />
<path fill-rule="evenodd" clip-rule="evenodd" d="M8.27829 13.0563C9.5778 13.4707 10.8022 13.219 11.3609 12.8763C11.7139 12.6598 12.1757 12.7704 12.3923 13.1235C12.6089 13.4765 12.4983 13.9383 12.1452 14.1549C11.1759 14.7495 9.49219 15.0179 7.82253 14.4854C6.10129 13.9364 4.41863 12.5492 3.45897 9.87886C3.31888 9.48906 3.52132 9.0595 3.91112 8.91941C4.30093 8.77932 4.73049 8.98175 4.87058 9.37156C5.68283 11.6317 7.03035 12.6583 8.27829 13.0563Z" fill="#000000" />
<path fill-rule="evenodd" clip-rule="evenodd" d="M16.8973 13.2531C15.9791 12.2444 14.7929 11.8501 14.1377 11.8676C13.7237 11.8786 13.3791 11.5519 13.368 11.1378C13.357 10.7238 13.6837 10.3792 14.0978 10.3681C15.2345 10.3378 16.8268 10.9473 18.0065 12.2433C19.2227 13.5793 19.9863 15.6221 19.4822 18.4144C19.4087 18.8221 19.0186 19.0929 18.6109 19.0193C18.2033 18.9457 17.9325 18.5556 18.0061 18.148C18.4327 15.7845 17.7791 14.2217 16.8973 13.2531Z" fill="#000000" />
<path fill-rule="evenodd" clip-rule="evenodd" d="M8.33146 10.7469C9.24965 11.7556 10.4359 12.1499 11.091 12.1324C11.5051 12.1214 11.8497 12.4481 11.8607 12.8622C11.8718 13.2762 11.5451 13.6208 11.131 13.6319C9.99427 13.6622 8.40194 13.0527 7.22221 11.7567C6.00604 10.4207 5.24245 8.37793 5.74651 5.58556C5.8201 5.17794 6.21019 4.90714 6.61782 4.98072C7.02544 5.0543 7.29624 5.4444 7.22266 5.85203C6.79602 8.21549 7.44971 9.77831 8.33146 10.7469Z" fill="#000000" />
<path fill-rule="evenodd" clip-rule="evenodd" d="M13.6703 16.336C14.0847 15.0365 13.8331 13.812 13.4904 13.2534C13.2738 12.9003 13.3844 12.4385 13.7375 12.2219C14.0905 12.0053 14.5524 12.116 14.7689 12.469C15.3636 13.4383 15.6319 15.1221 15.0994 16.7917C14.5504 18.513 13.1632 20.1956 10.4929 21.1553C10.1031 21.2954 9.67351 21.0929 9.53342 20.7031C9.39333 20.3133 9.59577 19.8838 9.98557 19.7437C12.2457 18.9314 13.2723 17.5839 13.6703 16.336Z" fill="#000000" />
<path fill-rule="evenodd" clip-rule="evenodd" d="M11.5572 7.66403C11.1428 8.96354 11.3945 10.188 11.7372 10.7466C11.9538 11.0997 11.8431 11.5615 11.4901 11.7781C11.137 11.9947 10.6752 11.884 10.4586 11.531C9.86398 10.5617 9.59566 8.87794 10.1282 7.20827C10.6771 5.48703 12.0644 3.80437 14.7347 2.84471C15.1245 2.70462 15.554 2.90706 15.6941 3.29686C15.8342 3.68667 15.6318 4.11623 15.242 4.25632C12.9818 5.06858 11.9552 6.41609 11.5572 7.66403Z" fill="#000000" />
<path fill-rule="evenodd" clip-rule="evenodd" d="M10.143 4.45295C9.76925 5.07198 9.60322 5.62053 9.55944 6.08878C9.52088 6.50119 9.15529 6.80426 8.74288 6.7657C8.33046 6.72714 8.02739 6.36155 8.06596 5.94914C8.13308 5.23128 8.38189 4.4677 8.85897 3.6776C9.07308 3.32301 9.53409 3.20913 9.88868 3.42324C10.2433 3.63735 10.3571 4.09836 10.143 4.45295Z" fill="#000000" />
<path fill-rule="evenodd" clip-rule="evenodd" d="M15.0857 19.5471C15.4595 18.928 15.6255 18.3795 15.6693 17.9112C15.7079 17.4988 16.0735 17.1957 16.4859 17.2343C16.8983 17.2729 17.2014 17.6384 17.1628 18.0509C17.0957 18.7687 16.8469 19.5323 16.3698 20.3224C16.1557 20.677 15.6947 20.7909 15.3401 20.5768C14.9855 20.3627 14.8716 19.9016 15.0857 19.5471Z" fill="#000000" />
<path fill-rule="evenodd" clip-rule="evenodd" d="M12.6149 11.0034C12.0649 11.0034 11.6191 11.4492 11.6191 11.9991C11.6191 12.5491 12.0649 12.9949 12.6149 12.9949C13.1648 12.9949 13.6106 12.5491 13.6106 11.9991C13.6106 11.4492 13.1648 11.0034 12.6149 11.0034ZM10.1191 11.9991C10.1191 10.6208 11.2365 9.50342 12.6149 9.50342C13.9932 9.50342 15.1106 10.6208 15.1106 11.9991C15.1106 13.3775 13.9932 14.4949 12.6149 14.4949C11.2365 14.4949 10.1191 13.3775 10.1191 11.9991Z" fill="#000000" />
</svg>