<svg width="24px"  height="24px"  viewBox="0 0 25 24" fill="none" xmlns="http://www.w3.org/2000/svg">
<path fill-rule="evenodd" clip-rule="evenodd" d="M11.1769 13.6963C11.6591 13.6974 12.2786 13.531 12.8933 13.1565C13.508 12.782 13.94 12.3077 14.1601 11.8787C14.387 11.4365 14.341 11.1619 14.2619 11.032C14.1827 10.9021 13.9598 10.7354 13.4628 10.7342C12.9806 10.7331 12.361 10.8995 11.7464 11.274C11.1317 11.6485 10.6997 12.1227 10.4796 12.5518C10.2527 12.994 10.2986 13.2685 10.3778 13.3985C10.4569 13.5284 10.6799 13.6951 11.1769 13.6963ZM11.1734 15.1963C10.3869 15.1944 9.54989 14.9226 9.09682 14.1789C8.64374 13.4353 8.78596 12.5668 9.14498 11.867C9.51075 11.1541 10.1543 10.4875 10.9659 9.99304C11.7775 9.49855 12.665 9.23234 13.4663 9.2342C14.2527 9.23603 15.0898 9.50792 15.5428 10.2516C15.9959 10.9952 15.8537 11.8637 15.4947 12.5634C15.1289 13.2764 14.4854 13.9429 13.6737 14.4374C12.8621 14.9319 11.9747 15.1981 11.1734 15.1963Z" fill="#000000" />
<path fill-rule="evenodd" clip-rule="evenodd" d="M7.92816 16.413C9.08855 16.6225 10.5343 16.5153 12.096 16.0533C12.4932 15.9359 12.9104 16.1626 13.0279 16.5598C13.1454 16.957 12.9186 17.3742 12.5214 17.4917C10.7948 18.0025 9.1067 18.1501 7.6616 17.8891C6.21432 17.6277 4.95552 16.9419 4.22548 15.7437C3.22601 14.1033 3.53156 12.0441 4.55234 10.1602C5.58343 8.25722 7.41027 6.38389 9.76666 4.94821C12.1394 3.50255 14.7382 2.79986 16.9869 2.81652C19.2025 2.83294 21.2567 3.56094 22.2546 5.19878C22.4702 5.55251 22.3581 6.01398 22.0044 6.22949C21.6506 6.44501 21.1892 6.33297 20.9737 5.97924C20.3664 4.98248 18.9556 4.33115 16.9757 4.31648C15.0289 4.30205 12.7016 4.91649 10.5471 6.22918C8.37624 7.55183 6.75502 9.24359 5.87118 10.8748C4.97701 12.525 4.90075 13.9691 5.50645 14.9632C5.95155 15.6938 6.76994 16.2038 7.92816 16.413Z" fill="#000000" />
<path fill-rule="evenodd" clip-rule="evenodd" d="M8.22089 19.6797C10.1669 19.7401 12.508 19.1807 14.6929 17.9193C16.8944 16.6482 18.5551 14.9952 19.4772 13.3854C20.4101 11.7567 20.5204 10.3148 19.9383 9.30665C19.5106 8.56581 18.7045 8.0366 17.5515 7.80015C16.3964 7.56327 14.9486 7.63635 13.3764 8.06129C12.9765 8.16936 12.5648 7.93282 12.4567 7.53296C12.3486 7.13309 12.5851 6.72132 12.985 6.61325C14.7232 6.14344 16.4143 6.03573 17.8529 6.33073C19.2936 6.62618 20.5358 7.34154 21.2374 8.55665C22.1978 10.2202 21.8438 12.2716 20.7788 14.1309C19.7031 16.009 17.8325 17.8387 15.4429 19.2183C13.0367 20.6075 10.422 21.2487 8.17437 21.179C5.95974 21.1102 3.92325 20.3339 2.96431 18.673C2.7572 18.3143 2.88011 17.8556 3.23882 17.6485C3.59754 17.4414 4.05624 17.5643 4.26334 17.923C4.84694 18.9338 6.24191 19.6183 8.22089 19.6797Z" fill="#000000" />
</svg>