<svg width="24px"  height="24px"  viewBox="0 0 25 24" fill="none" xmlns="http://www.w3.org/2000/svg">
<path fill-rule="evenodd" clip-rule="evenodd" d="M12.6143 2.25C13.0285 2.25 13.3643 2.58579 13.3643 3V4.3719C13.3643 4.78612 13.0285 5.1219 12.6143 5.1219C12.2001 5.1219 11.8643 4.78612 11.8643 4.3719V3C11.8643 2.58579 12.2001 2.25 12.6143 2.25ZM19.5084 5.10549C19.8013 5.39839 19.8013 5.87326 19.5084 6.16616L18.5384 7.13622C18.2455 7.42911 17.7706 7.42911 17.4777 7.13622C17.1848 6.84332 17.1848 6.36845 17.4777 6.07556L18.4478 5.10549C18.7407 4.8126 19.2155 4.8126 19.5084 5.10549ZM5.72023 5.10597C6.01312 4.81308 6.48799 4.81308 6.78089 5.10597L7.75095 6.07603C8.04384 6.36893 8.04384 6.8438 7.75095 7.13669C7.45806 7.42959 6.98318 7.42959 6.69029 7.13669L5.72023 6.16663C5.42733 5.87374 5.42733 5.39886 5.72023 5.10597ZM2.86426 12.0001C2.86426 11.5859 3.20004 11.2501 3.61426 11.2501H4.98616C5.40037 11.2501 5.73616 11.5859 5.73616 12.0001C5.73616 12.4143 5.40037 12.7501 4.98616 12.7501H3.61426C3.20004 12.7501 2.86426 12.4143 2.86426 12.0001ZM19.4924 12.0001C19.4924 11.5859 19.8281 11.2501 20.2424 11.2501H21.6143C22.0285 11.2501 22.3643 11.5859 22.3643 12.0001C22.3643 12.4143 22.0285 12.7501 21.6143 12.7501H20.2424C19.8281 12.7501 19.4924 12.4143 19.4924 12.0001ZM7.75095 16.8635C8.04384 17.1564 8.04384 17.6312 7.75095 17.9241L6.78089 18.8942C6.48799 19.1871 6.01312 19.1871 5.72023 18.8942C5.42733 18.6013 5.42733 18.1264 5.72023 17.8335L6.69029 16.8635C6.98318 16.5706 7.45806 16.5706 7.75095 16.8635Z" fill="#000000" />
<path fill-rule="evenodd" clip-rule="evenodd" d="M13.5064 8.67292C11.6676 8.18022 9.77823 9.27065 9.28565 11.109C8.90498 12.5297 9.46993 13.9823 10.5978 14.7961C10.9337 15.0385 11.0095 15.5072 10.7671 15.8432C10.5247 16.1791 10.056 16.2549 9.72006 16.0125C8.10395 14.8464 7.2896 12.7628 7.83676 10.7208C8.54387 8.08179 11.2561 6.51704 13.8947 7.22403C16.5324 7.93081 18.0987 10.6421 17.3917 13.281C17.2845 13.6811 16.8732 13.9185 16.4731 13.8113C16.073 13.7041 15.8356 13.2929 15.9428 12.8928C16.4354 11.0543 15.3442 9.16534 13.5064 8.67292Z" fill="#000000" />
<path fill-rule="evenodd" clip-rule="evenodd" d="M12.8496 15.7622C13.2638 15.7622 13.5996 16.098 13.5996 16.5122V19.5223C13.5996 19.9244 13.9256 20.2504 14.3277 20.2504C14.7298 20.2504 15.0558 19.9244 15.0558 19.5223V16.5122C15.0558 16.098 15.3916 15.7622 15.8058 15.7622C16.22 15.7622 16.5558 16.098 16.5558 16.5122V19.5223C16.5558 20.7528 15.5583 21.7504 14.3277 21.7504C13.0972 21.7504 12.0996 20.7528 12.0996 19.5223V16.5122C12.0996 16.098 12.4354 15.7622 12.8496 15.7622Z" fill="#000000" />
<path fill-rule="evenodd" clip-rule="evenodd" d="M17.8421 15.8131C18.228 15.6627 18.6628 15.8536 18.8133 16.2395L19.8642 18.9356L20.9158 16.2394C21.0663 15.8535 21.5011 15.6627 21.887 15.8132C22.2729 15.9637 22.4638 16.3985 22.3133 16.7844L20.5627 21.2727C20.4504 21.5607 20.1729 21.7502 19.8639 21.7502C19.5548 21.7502 19.2774 21.5606 19.1651 21.2726L17.4157 16.7843C17.2652 16.3984 17.4561 15.9636 17.8421 15.8131Z" fill="#000000" />
</svg>