<svg width="24px"  height="24px"  viewBox="0 0 25 24" fill="none" xmlns="http://www.w3.org/2000/svg">
<path fill-rule="evenodd" clip-rule="evenodd" d="M5.22741 17.1589C5.79525 17.2105 6.29391 17.2945 6.76414 17.4353C7.31883 17.6014 7.80857 17.8386 8.31326 18.1612C9.96438 17.5458 11.3296 17.2207 12.7243 17.2239C14.1153 17.2271 15.4778 17.5567 17.123 18.1593C17.6669 17.7953 18.1809 17.5419 18.7519 17.3772C19.2146 17.2438 19.6944 17.1747 20.227 17.1393C19.8647 13.3167 16.6456 10.3262 12.7281 10.3262C8.8039 10.3262 5.58054 13.3269 5.22741 17.1589ZM3.69531 17.859C3.69531 12.8703 7.73944 8.82617 12.7281 8.82617C17.7168 8.82617 21.7609 12.8703 21.7609 17.859C21.7609 18.2679 21.4334 18.6014 21.0246 18.6089C20.2048 18.6238 19.6508 18.6791 19.1676 18.8185C18.6962 18.9545 18.2496 19.1832 17.6735 19.6051C17.4684 19.7553 17.2011 19.7914 16.9635 19.701C15.2178 19.0364 13.9524 18.7267 12.7209 18.7239C11.491 18.7211 10.2281 19.0244 8.48902 19.6992C8.25563 19.7898 7.99244 19.758 7.7874 19.6143C7.25309 19.2401 6.81777 19.0171 6.33395 18.8723C5.83991 18.7244 5.25787 18.6465 4.41139 18.6082C4.01078 18.5901 3.69531 18.26 3.69531 17.859Z" fill="#000000" />
<path fill-rule="evenodd" clip-rule="evenodd" d="M12.7285 17.2402C13.1427 17.2402 13.4785 17.576 13.4785 17.9902V21.0002C13.4785 21.4144 13.1427 21.7502 12.7285 21.7502C12.3143 21.7502 11.9785 21.4144 11.9785 21.0002V17.9902C11.9785 17.576 12.3143 17.2402 12.7285 17.2402Z" fill="#000000" />
<path fill-rule="evenodd" clip-rule="evenodd" d="M12.7285 7.29395C13.1427 7.29395 13.4785 7.62973 13.4785 8.04395L13.4785 9.5763C13.4785 9.99051 13.1427 10.3263 12.7285 10.3263C12.3143 10.3263 11.9785 9.99051 11.9785 9.5763L11.9785 8.04395C11.9785 7.62973 12.3143 7.29395 12.7285 7.29395Z" fill="#000000" />
<path fill-rule="evenodd" clip-rule="evenodd" d="M16.5516 2.29197C16.9427 2.42827 17.1493 2.85585 17.013 3.247L15.7473 6.87949C15.611 7.27064 15.1834 7.47723 14.7922 7.34093C14.4011 7.20464 14.1945 6.77706 14.3308 6.38591L15.5966 2.75341C15.7329 2.36227 16.1605 2.15567 16.5516 2.29197Z" fill="#000000" />
<path fill-rule="evenodd" clip-rule="evenodd" d="M11.7774 2.29197C12.1685 2.42827 12.3751 2.85585 12.2388 3.247L11.5803 5.13689C11.444 5.52804 11.0164 5.73463 10.6252 5.59833C10.2341 5.46203 10.0275 5.03445 10.1638 4.6433L10.8224 2.75341C10.9587 2.36227 11.3862 2.15567 11.7774 2.29197Z" fill="#000000" />
<path fill-rule="evenodd" clip-rule="evenodd" d="M20.1229 2.29197C20.5141 2.42827 20.7207 2.85585 20.5844 3.247L19.8381 5.38872C19.7018 5.77987 19.2742 5.98646 18.8831 5.85016C18.4919 5.71386 18.2853 5.28628 18.4216 4.89514L19.1679 2.75341C19.3042 2.36227 19.7318 2.15567 20.1229 2.29197Z" fill="#000000" />
<path fill-rule="evenodd" clip-rule="evenodd" d="M21.2567 6.72654C21.6479 6.86284 21.8545 7.29042 21.7182 7.68157L20.9719 9.82329C20.8356 10.2144 20.408 10.421 20.0168 10.2847C19.6257 10.1484 19.4191 9.72085 19.5554 9.32971L20.3017 7.18798C20.438 6.79684 20.8656 6.59024 21.2567 6.72654Z" fill="#000000" />
<path fill-rule="evenodd" clip-rule="evenodd" d="M5.51572 2.24642C5.90614 2.38479 6.11046 2.81346 5.97208 3.20388L5.28029 5.15577H7.36353C7.6057 5.15577 7.83298 5.27271 7.97377 5.46976C8.11456 5.66681 8.15153 5.91972 8.07305 6.14883L7.05927 9.10823C6.92504 9.50009 6.49855 9.70893 6.10669 9.57469C5.71483 9.44046 5.50599 9.01397 5.64023 8.62211L6.31382 6.65577H4.21875C3.97518 6.65577 3.74677 6.53749 3.60622 6.33855C3.46566 6.13961 3.43047 5.88481 3.51184 5.65523L4.55826 2.70278C4.69663 2.31237 5.1253 2.10804 5.51572 2.24642Z" fill="#000000" />
</svg>