<svg width="24px"  height="24px"  viewBox="0 0 25 24" fill="none" xmlns="http://www.w3.org/2000/svg">
<path fill-rule="evenodd" clip-rule="evenodd" d="M5.22741 17.1589C5.79525 17.2105 6.29391 17.2945 6.76414 17.4353C7.31883 17.6014 7.80857 17.8386 8.31326 18.1612C9.96438 17.5458 11.3296 17.2207 12.7243 17.2239C14.1153 17.2271 15.4778 17.5567 17.123 18.1593C17.6669 17.7953 18.1809 17.5419 18.7519 17.3772C19.2146 17.2438 19.6944 17.1747 20.227 17.1393C19.8647 13.3167 16.6456 10.3262 12.7281 10.3262C8.8039 10.3262 5.58054 13.3269 5.22741 17.1589ZM3.69531 17.859C3.69531 12.8703 7.73944 8.82617 12.7281 8.82617C17.7168 8.82617 21.7609 12.8703 21.7609 17.859C21.7609 18.2679 21.4334 18.6014 21.0246 18.6089C20.2048 18.6238 19.6508 18.6791 19.1676 18.8185C18.6962 18.9545 18.2496 19.1832 17.6735 19.6051C17.4684 19.7553 17.2011 19.7914 16.9635 19.701C15.2178 19.0364 13.9524 18.7267 12.7209 18.7239C11.491 18.7211 10.2281 19.0244 8.48902 19.6992C8.25563 19.7898 7.99244 19.758 7.7874 19.6143C7.25309 19.2401 6.81777 19.0171 6.33395 18.8723C5.83991 18.7244 5.25787 18.6465 4.41139 18.6082C4.01078 18.5901 3.69531 18.26 3.69531 17.859Z" fill="#000000" />
<path fill-rule="evenodd" clip-rule="evenodd" d="M12.7285 17.2402C13.1427 17.2402 13.4785 17.576 13.4785 17.9902V21.0002C13.4785 21.4144 13.1427 21.7502 12.7285 21.7502C12.3143 21.7502 11.9785 21.4144 11.9785 21.0002V17.9902C11.9785 17.576 12.3143 17.2402 12.7285 17.2402Z" fill="#000000" />
<path fill-rule="evenodd" clip-rule="evenodd" d="M12.7285 7.29395C13.1427 7.29395 13.4785 7.62973 13.4785 8.04395L13.4785 9.5763C13.4785 9.99051 13.1427 10.3263 12.7285 10.3263C12.3143 10.3263 11.9785 9.99051 11.9785 9.5763L11.9785 8.04395C11.9785 7.62973 12.3143 7.29395 12.7285 7.29395Z" fill="#000000" />
<path fill-rule="evenodd" clip-rule="evenodd" d="M17.4911 2.29197C17.8822 2.42827 18.0888 2.85585 17.9525 3.247L16.6867 6.87949C16.5504 7.27064 16.1228 7.47723 15.7317 7.34093C15.3405 7.20464 15.1339 6.77706 15.2702 6.38591L16.536 2.75341C16.6723 2.36227 17.0999 2.15567 17.4911 2.29197Z" fill="#000000" />
<path fill-rule="evenodd" clip-rule="evenodd" d="M9.52485 2.29197C9.916 2.42827 10.1226 2.85585 9.9863 3.247L8.66913 7.02694C8.53283 7.41808 8.10525 7.62468 7.71411 7.48838C7.32296 7.35208 7.11637 6.9245 7.25266 6.53335L8.56983 2.75341C8.70613 2.36227 9.13371 2.15567 9.52485 2.29197Z" fill="#000000" />
<path fill-rule="evenodd" clip-rule="evenodd" d="M13.2041 2.29197C13.5953 2.42827 13.8019 2.85585 13.6656 3.247L13.007 5.13689C12.8707 5.52804 12.4431 5.73463 12.052 5.59833C11.6609 5.46203 11.4543 5.03445 11.5906 4.6433L12.2491 2.75341C12.3854 2.36227 12.813 2.15567 13.2041 2.29197Z" fill="#000000" />
<path fill-rule="evenodd" clip-rule="evenodd" d="M5.18782 2.29197C5.57897 2.42827 5.78556 2.85585 5.64926 3.247L4.92694 5.31987C4.79064 5.71102 4.36306 5.91761 3.97192 5.78131C3.58077 5.64501 3.37418 5.21743 3.51048 4.82629L4.2328 2.75341C4.3691 2.36227 4.79667 2.15567 5.18782 2.29197Z" fill="#000000" />
<path fill-rule="evenodd" clip-rule="evenodd" d="M21.2567 2.29197C21.6479 2.42827 21.8545 2.85585 21.7182 3.247L20.9719 5.38872C20.8356 5.77987 20.408 5.98646 20.0168 5.85016C19.6257 5.71386 19.4191 5.28628 19.5554 4.89514L20.3017 2.75341C20.438 2.36227 20.8656 2.15567 21.2567 2.29197Z" fill="#000000" />
</svg>