<svg width="24px"  height="24px"  viewBox="0 0 25 24" fill="none" xmlns="http://www.w3.org/2000/svg">
<path fill-rule="evenodd" clip-rule="evenodd" d="M4.86903 12.4025C5.46166 12.4552 5.98018 12.5419 6.46847 12.6881C7.04049 12.8593 7.54535 13.1044 8.06676 13.4387C9.76968 12.8032 11.1749 12.4681 12.6098 12.4714C14.041 12.4746 15.4436 12.8145 17.1407 13.4367C17.7025 13.0597 18.2322 12.7981 18.8205 12.6284C19.3014 12.4896 19.8007 12.4186 20.3568 12.3828C19.9934 8.42594 16.6655 5.32715 12.6138 5.32715C8.55544 5.32715 5.22322 8.4362 4.86903 12.4025ZM3.33789 13.1031C3.33789 7.98012 7.49087 3.82715 12.6138 3.82715C17.7368 3.82715 21.8898 7.98012 21.8898 13.1031C21.8898 13.512 21.5622 13.8455 21.1534 13.853C20.309 13.8684 19.7364 13.9253 19.2362 14.0696C18.7478 14.2105 18.2857 14.4474 17.6914 14.8827C17.4862 15.0329 17.219 15.069 16.9814 14.9786C15.1834 14.2941 13.8779 13.9743 12.6064 13.9714C11.3365 13.9685 10.0336 14.2817 8.24233 14.9768C8.00894 15.0674 7.74575 15.0356 7.54071 14.8919C6.98934 14.5057 6.53913 14.275 6.03828 14.1251C5.52721 13.9721 4.92602 13.8918 4.05396 13.8523C3.65335 13.8342 3.33789 13.5041 3.33789 13.1031Z" fill="#000000" />
<path fill-rule="evenodd" clip-rule="evenodd" d="M13.1132 4.01743L12.614 4.57715L12.0847 4.04583C12.366 3.7656 12.8169 3.75314 13.1132 4.01743ZM12.6365 5.6916C12.6318 5.69746 12.627 5.70336 12.6223 5.70931C12.296 6.11774 11.8572 6.72249 11.4178 7.49688C10.5376 9.04805 9.66699 11.2573 9.66699 13.9241C9.66699 14.3383 9.33121 14.6741 8.91699 14.6741C8.50278 14.6741 8.16699 14.3383 8.16699 13.9241C8.16699 10.9272 9.14491 8.46296 10.1132 6.75658C10.598 5.90221 11.0835 5.23216 11.4504 4.773C11.634 4.54319 11.7884 4.36556 11.8989 4.2434C11.9542 4.1823 11.9985 4.13502 12.03 4.10197C12.0458 4.08544 12.0584 4.07246 12.0676 4.06309L12.0788 4.05174L12.0824 4.0481L12.0837 4.0468L12.0847 4.04583C12.0849 4.0456 12.0847 4.04583 12.614 4.57715C13.1132 4.01743 13.1129 4.01718 13.1132 4.01743L13.1144 4.01847L13.1159 4.01982L13.1199 4.02344L13.1319 4.03437C13.1416 4.0433 13.1548 4.05549 13.1711 4.07094C13.2037 4.10184 13.2491 4.14578 13.3055 4.20264C13.4182 4.31633 13.5749 4.48188 13.7607 4.6983C14.1321 5.13082 14.6217 5.76855 15.11 6.60342C16.0872 8.27465 17.061 10.7408 17.061 13.9241C17.061 14.3383 16.7252 14.6741 16.311 14.6741C15.8968 14.6741 15.561 14.3383 15.561 13.9241C15.561 11.0578 14.6863 8.85047 13.8151 7.36062C13.3853 6.62558 12.9568 6.06638 12.6365 5.6916Z" fill="#000000" />
<path fill-rule="evenodd" clip-rule="evenodd" d="M12.6144 12.4883C13.0286 12.4883 13.3644 12.8241 13.3644 13.2383V19.3366C13.3644 20.6696 12.2838 21.7502 10.9508 21.7502C9.61774 21.7502 8.53711 20.6696 8.53711 19.3366V19.0288C8.53711 18.6146 8.8729 18.2788 9.28711 18.2788C9.70132 18.2788 10.0371 18.6146 10.0371 19.0288V19.3366C10.0371 19.8412 10.4462 20.2502 10.9508 20.2502C11.4554 20.2502 11.8644 19.8412 11.8644 19.3366V13.2383C11.8644 12.8241 12.2002 12.4883 12.6144 12.4883Z" fill="#000000" />
<path fill-rule="evenodd" clip-rule="evenodd" d="M12.6143 2.25C13.0285 2.25 13.3643 2.58579 13.3643 3L13.3643 4.57733C13.3643 4.99155 13.0285 5.32733 12.6143 5.32733C12.2 5.32733 11.8643 4.99155 11.8643 4.57733L11.8643 3C11.8643 2.58579 12.2 2.25 12.6143 2.25Z" fill="#000000" />
</svg>