<svg width="24px"  height="24px"  viewBox="0 0 25 24" fill="none" xmlns="http://www.w3.org/2000/svg">
<path d="M9.55925 21.2898C8.77925 21.2898 7.97927 20.9498 7.38927 20.3598C6.80927 19.7798 6.49926 19.0198 6.50926 18.2298C6.46926 15.6098 8.97928 13.1097 9.08928 12.9997C9.37928 12.7097 9.84927 12.7097 10.1393 12.9997C10.2493 13.0997 12.7593 15.6097 12.7193 18.2597C12.7293 19.0297 12.4193 19.7897 11.8393 20.3697C11.2293 20.9797 10.4393 21.2998 9.59929 21.2998H9.54924L9.55925 21.2898ZM9.60924 19.7898H9.62926C10.0593 19.7898 10.4793 19.6098 10.7893 19.2998C10.9993 19.0998 11.2392 18.7497 11.2292 18.2597C11.2492 16.8797 10.2592 15.4398 9.61925 14.6598C8.97925 15.4398 7.98926 16.8698 8.00926 18.2298C8.00926 18.7498 8.23926 19.0898 8.44926 19.2998C8.75926 19.6198 9.19924 19.8098 9.60924 19.7898Z" fill="#000000" />
<path d="M4.78907 10.7496C4.26907 10.7496 3.76906 10.5296 3.39906 10.1596C3.04906 9.79964 2.85903 9.32968 2.86903 8.82968C2.84903 7.39968 4.12905 6.09969 4.26905 5.95969C4.55905 5.66969 5.02904 5.66969 5.31904 5.95969C5.46904 6.09969 6.74906 7.39971 6.71906 8.85971C6.71906 9.32971 6.53904 9.79964 6.18904 10.1596C5.81904 10.5396 5.30902 10.7496 4.79902 10.7496H4.78907ZM4.78907 7.67966C4.55907 8.02966 4.34902 8.44968 4.35902 8.82968C4.35902 8.94968 4.38906 9.02971 4.46906 9.10971C4.63906 9.28971 4.93903 9.28971 5.11903 9.10971C5.18903 9.03971 5.22901 8.94971 5.22901 8.85971C5.22901 8.46971 5.02902 8.03967 4.79902 7.68967L4.78907 7.67966Z" fill="#000000" />
<path d="M16.359 7.71024H16.299C15.819 7.71024 15.319 7.50017 14.959 7.13017C14.599 6.77017 14.399 6.2902 14.409 5.7902C14.389 4.3502 15.669 3.0602 15.819 2.9102C16.109 2.6302 16.579 2.6302 16.869 2.9102C17.019 3.0502 18.299 4.35022 18.269 5.81022C18.269 6.29022 18.079 6.76016 17.719 7.12016C17.349 7.49016 16.859 7.70023 16.359 7.70023V7.71024ZM16.339 4.65019C16.109 5.00019 15.899 5.42021 15.909 5.80021C15.909 5.92021 15.949 6.00023 16.019 6.07023C16.099 6.15023 16.219 6.21024 16.319 6.21024H16.329C16.449 6.21024 16.569 6.16023 16.659 6.07023C16.729 6.00023 16.769 5.91023 16.769 5.82023C16.769 5.43023 16.569 5.00019 16.339 4.65019Z" fill="#000000" />
<path d="M19.7493 14.4096C19.0893 14.4096 18.4193 14.1296 17.9293 13.6296C17.4493 13.1496 17.1993 12.5196 17.2093 11.8696C17.1793 9.7796 19.1693 7.78969 19.2593 7.70969C19.5493 7.41969 20.0193 7.41969 20.3093 7.70969C20.3893 7.78969 22.3893 9.77963 22.3593 11.8996C22.3693 12.5296 22.1193 13.1596 21.6393 13.6396C21.1393 14.1396 20.4893 14.4396 19.7793 14.4196H19.7493V14.4096ZM19.7793 12.9096C20.0693 12.9096 20.3593 12.7797 20.5693 12.5697C20.6993 12.4397 20.8593 12.2096 20.8493 11.8896C20.8593 11.0096 20.2793 10.0296 19.7793 9.37961C19.2793 10.0296 18.6893 10.9996 18.7093 11.8696C18.7093 12.2096 18.8593 12.4397 18.9893 12.5797C19.1993 12.7897 19.4893 12.8796 19.7693 12.9196L19.7793 12.9096Z" fill="#000000" />
<path d="M12.7192 12.6496C12.1892 12.6496 11.6692 12.4296 11.2892 12.0396C10.9292 11.6696 10.7291 11.1897 10.7391 10.6897C10.7191 9.20967 12.0391 7.85969 12.1891 7.70969C12.4791 7.41969 12.9491 7.41969 13.2391 7.70969C13.3891 7.85969 14.7191 9.20969 14.6891 10.7097C14.6891 11.1997 14.4992 11.6797 14.1392 12.0497C13.7592 12.4397 13.2392 12.6596 12.7092 12.6596L12.7192 12.6496ZM12.7192 9.42966C12.4692 9.80966 12.2391 10.2697 12.2391 10.6797C12.2391 10.8197 12.2791 10.9096 12.3591 10.9896C12.5491 11.1796 12.8892 11.1796 13.0792 10.9896C13.1592 10.9096 13.1991 10.8197 13.1991 10.7097C13.1991 10.2797 12.9692 9.80966 12.7192 9.42966Z" fill="#000000" />
<path d="M8.6792 9.9104C8.2692 9.9104 7.9292 9.5704 7.9292 9.1604V4.94043C7.9292 4.53043 8.2692 4.19043 8.6792 4.19043C9.0892 4.19043 9.4292 4.53043 9.4292 4.94043V9.1604C9.4292 9.5704 9.0892 9.9104 8.6792 9.9104Z" fill="#000000" />
<path d="M19.229 19.6301C18.819 19.6301 18.479 19.2901 18.479 18.8801V16.3701C18.479 15.9601 18.819 15.6201 19.229 15.6201C19.639 15.6201 19.979 15.9601 19.979 16.3701V18.8801C19.979 19.2901 19.639 19.6301 19.229 19.6301Z" fill="#000000" />
<path d="M5.14941 17.1196C4.73941 17.1196 4.39941 16.7796 4.39941 16.3696V13.1396C4.39941 12.7296 4.73941 12.3896 5.14941 12.3896C5.55941 12.3896 5.89941 12.7296 5.89941 13.1396V16.3696C5.89941 16.7796 5.55941 17.1196 5.14941 17.1196Z" fill="#000000" />
<path d="M15.729 18.9596C15.319 18.9596 14.979 18.6196 14.979 18.2096V12.8096C14.979 12.3996 15.319 12.0596 15.729 12.0596C16.139 12.0596 16.479 12.3996 16.479 12.8096V18.2096C16.479 18.6196 16.139 18.9596 15.729 18.9596Z" fill="#000000" />
</svg>