<svg width="24px"  height="24px"  viewBox="0 0 25 24" fill="none" xmlns="http://www.w3.org/2000/svg">
<path d="M12.4844 7.73607C11.9244 7.73607 11.3444 7.48616 10.9244 7.07616C10.5344 6.68616 10.3344 6.18612 10.3444 5.66612C10.3144 4.06612 11.8344 2.60615 12.0144 2.44615C12.3044 2.17615 12.7444 2.17615 13.0344 2.44615C13.2044 2.60615 14.7244 4.05614 14.7044 5.68614C14.7144 6.18614 14.5044 6.68616 14.1244 7.07616C13.7044 7.49616 13.0745 7.71607 12.5245 7.73607H12.4945H12.4844ZM12.5144 6.23607C12.7144 6.23607 12.9144 6.1561 13.0444 6.0161C13.1444 5.9161 13.1944 5.80614 13.1944 5.68614C13.1944 5.15614 12.8544 4.56607 12.5144 4.11607C12.1744 4.55607 11.8245 5.14611 11.8345 5.65611C11.8345 5.79611 11.8844 5.90609 11.9844 6.00609C12.1144 6.14609 12.2744 6.25618 12.5044 6.22618L12.5144 6.23607Z" fill="#000000" />
<path d="M17.9846 20.2666C17.4346 20.2666 16.8446 20.0167 16.4346 19.6067C16.0446 19.2167 15.8446 18.7166 15.8546 18.1866C15.8346 16.5866 17.3546 15.1267 17.5246 14.9667C17.8146 14.6967 18.2546 14.6967 18.5446 14.9667C18.7146 15.1267 20.2346 16.5767 20.2146 18.2067C20.2146 18.7067 20.0146 19.2067 19.6346 19.5967C19.2146 20.0167 18.6346 20.2466 18.0346 20.2566H18.0046L17.9846 20.2666ZM18.0246 16.6566C17.6846 17.0966 17.3446 17.6866 17.3446 18.1966C17.3446 18.3366 17.3946 18.4466 17.4946 18.5466C17.6246 18.6766 17.8246 18.7866 18.0146 18.7666C18.2146 18.7666 18.4146 18.6866 18.5446 18.5466C18.6446 18.4466 18.6946 18.3367 18.6946 18.2167C18.6946 17.6867 18.3546 17.0966 18.0146 16.6466L18.0246 16.6566Z" fill="#000000" />
<path d="M18.6442 13.2466H18.5542C17.7542 13.2466 16.9342 12.8966 16.3242 12.2866C15.7342 11.6966 15.4142 10.9265 15.4342 10.1165C15.3942 7.43655 17.9742 4.88658 18.0942 4.77658C18.3842 4.48658 18.8542 4.48658 19.1442 4.77658C19.2542 4.88658 21.8342 7.44658 21.7942 10.1466C21.8042 10.9266 21.4942 11.6966 20.9042 12.2866C20.2942 12.8966 19.4742 13.2466 18.6542 13.2466H18.6442ZM18.6042 6.43662C17.9442 7.22662 16.9042 8.71656 16.9242 10.1266C16.9242 10.6666 17.1642 11.0265 17.3742 11.2365C17.7042 11.5665 18.1742 11.7666 18.5942 11.7466C19.0442 11.7366 19.5042 11.5565 19.8342 11.2365C20.0442 11.0265 20.2942 10.6666 20.2842 10.1566C20.3042 8.72659 19.2642 7.23663 18.6042 6.44663V6.43662Z" fill="#000000" />
<path d="M10.0146 21.7463C10.0146 21.7463 9.95463 21.7463 9.93463 21.7463C8.92463 21.7463 7.86461 21.2963 7.10461 20.5363C6.36461 19.7963 5.97463 18.8264 5.99463 17.8164C5.94463 14.3164 9.31463 10.9664 9.46463 10.8264C9.75463 10.5364 10.2246 10.5364 10.5146 10.8264C10.6546 10.9664 14.0346 14.3264 13.9846 17.8464C14.0046 18.8364 13.6046 19.8064 12.8746 20.5464C12.1146 21.3064 11.0546 21.7563 10.0246 21.7563L10.0146 21.7463ZM9.97461 20.2463H10.0046C10.6546 20.2463 11.3246 19.9564 11.8046 19.4764C12.1246 19.1564 12.4946 18.6164 12.4846 17.8364C12.5146 15.6864 10.8646 13.4764 9.99463 12.4664C9.12463 13.4864 7.46461 15.6864 7.50461 17.8164C7.49461 18.6164 7.86463 19.1564 8.18463 19.4764C8.67463 19.9664 9.36463 20.2963 9.99463 20.2463H9.97461Z" fill="#000000" />
<path d="M5.89421 11.2366C5.89421 11.2366 5.82421 11.2366 5.79421 11.2366C5.19421 11.2366 4.57421 10.9766 4.11421 10.5166C3.66421 10.0666 3.42422 9.47662 3.43422 8.86662C3.40422 6.95662 5.14419 5.22666 5.34419 5.03666C5.63419 4.75666 6.0942 4.75666 6.3842 5.03666C6.5842 5.22666 8.32421 6.95664 8.29421 8.88664C8.30421 9.47664 8.06421 10.0666 7.61421 10.5166C7.15421 10.9766 6.53422 11.2366 5.90422 11.2366H5.89421ZM5.8542 6.7067C5.4142 7.2867 4.91421 8.11673 4.92421 8.85673C4.92421 9.14673 5.0542 9.33669 5.1642 9.44669C5.3442 9.62669 5.60422 9.74672 5.83422 9.72672C6.11422 9.72672 6.35421 9.62669 6.54421 9.44669C6.65421 9.33669 6.7942 9.14664 6.7842 8.88664C6.7942 8.12664 6.2942 7.2867 5.8542 6.7067Z" fill="#000000" />
</svg>