<svg width="24px"  height="24px"  viewBox="0 0 25 24" fill="none" xmlns="http://www.w3.org/2000/svg">
<path fill-rule="evenodd" clip-rule="evenodd" d="M18.1438 13.9621C17.7296 13.9704 17.4007 14.3129 17.409 14.727L17.4091 14.7298C17.4288 15.7364 16.4087 16.6171 15.294 16.6029C14.8798 16.5976 14.5398 16.9291 14.5345 17.3433C14.5292 17.7575 14.8607 18.0975 15.2749 18.1028C17.0074 18.1249 18.9492 16.7674 18.9088 14.7005L18.9087 14.6968C18.9004 14.2827 18.5579 13.9537 18.1438 13.9621Z" fill="#000000" />
<path d="M15.3489 21.74H15.1989C13.4289 21.74 11.5589 20.92 10.1889 19.55C8.86892 18.22 8.1689 16.5501 8.1989 14.8401C8.0989 8.60006 14.5589 3.66006 14.8289 3.46006C15.0989 3.26006 15.4589 3.26006 15.7289 3.46006C15.9989 3.67006 22.4589 8.59996 22.3589 14.86C22.3889 16.56 21.6889 18.23 20.3689 19.56C18.9989 20.94 17.1289 21.75 15.3489 21.75V21.74ZM15.2789 20.24C16.6989 20.24 18.1989 19.61 19.3089 18.49C20.3389 17.45 20.8889 16.17 20.8689 14.86C20.9389 10.23 16.6989 6.21999 15.2889 5.00999C13.8789 6.21999 9.62891 10.22 9.70891 14.82C9.67891 16.16 10.2389 17.44 11.2689 18.48C12.3589 19.58 13.8389 20.23 15.2289 20.23H15.2889L15.2789 20.24Z" fill="#000000" />
<path d="M8.07895 15.45C8.01895 15.45 7.95897 15.45 7.90897 15.45C6.64897 15.45 5.29895 14.86 4.31895 13.87C3.35895 12.91 2.84896 11.69 2.86896 10.44C2.79896 6.03004 7.34896 2.54 7.54896 2.4C7.81896 2.2 8.18895 2.2 8.44895 2.4C8.55895 2.48 11.129 4.44 12.409 7.27C12.579 7.65 12.4089 8.08999 12.0389 8.25999C11.6589 8.42999 11.219 8.25999 11.049 7.88999C10.229 6.07999 8.74895 4.62996 8.00895 3.97996C6.93895 4.91996 4.32894 7.52005 4.37894 10.45C4.35894 11.32 4.71895 12.15 5.38895 12.82C6.10895 13.55 7.07896 13.9601 7.98896 13.9601C8.21896 13.9701 8.42896 13.94 8.70896 13.89C9.11896 13.81 9.50894 14.0701 9.59894 14.4701C9.68894 14.8701 9.41896 15.27 9.01896 15.36C8.66896 15.43 8.36896 15.4701 8.08896 15.4701L8.07895 15.45Z" fill="#000000" />
</svg>