<svg width="24px"  height="24px"  viewBox="0 0 25 24" fill="none" xmlns="http://www.w3.org/2000/svg">
<path d="M12.6736 15.7551H12.5536C11.2536 15.7551 9.87359 15.1551 8.86359 14.1351C7.88359 13.1551 7.36359 11.9051 7.38359 10.6351C7.31359 6.11511 11.9736 2.54512 12.1736 2.39512C12.4436 2.19512 12.8036 2.19512 13.0736 2.39512C13.2736 2.54512 17.9336 6.10513 17.8536 10.6551C17.8736 11.9051 17.3536 13.1451 16.3736 14.1251C15.3636 15.1351 13.9836 15.7451 12.6636 15.7451L12.6736 15.7551ZM12.6236 3.9752C11.5336 4.9352 8.83359 7.60511 8.88359 10.6351C8.86359 11.5251 9.23359 12.3852 9.92359 13.0752C10.6536 13.8152 11.6436 14.2451 12.5736 14.2451H12.6536C13.6036 14.2451 14.5836 13.8052 15.3236 13.0752C16.0136 12.3852 16.3836 11.5251 16.3636 10.6651C16.4136 7.60514 13.7236 4.9352 12.6236 3.9752Z" fill="#000000" />
<path d="M11.1832 18.905C8.5232 18.905 4.0332 18.3651 4.0332 16.3351C4.0332 15.2751 5.2432 14.4951 7.5332 14.0751C7.9432 13.9951 8.3332 14.2651 8.4032 14.6751C8.4732 15.0851 8.2132 15.4751 7.8032 15.5451C6.4032 15.8051 5.7832 16.1551 5.5832 16.3251C5.9932 16.6951 7.8632 17.395 11.1832 17.395C12.8332 17.395 14.4232 17.205 15.5532 16.875C15.9532 16.755 16.3632 16.985 16.4832 17.385C16.6032 17.785 16.3732 18.1951 15.9732 18.3151C14.6932 18.6951 12.9932 18.895 11.1832 18.895V18.905Z" fill="#000000" />
<path d="M9.42321 21.7549C7.44321 21.7549 5.44321 21.615 3.63321 21.345C3.22321 21.285 2.94321 20.9049 3.00321 20.4949C3.06321 20.0849 3.44321 19.805 3.85321 19.865C5.59321 20.125 7.52321 20.2549 9.42321 20.2549C16.7532 20.2549 20.7432 18.485 20.7432 17.575C20.7432 17.315 20.2232 16.6549 18.2532 16.0149C17.8632 15.8849 17.6432 15.465 17.7632 15.075C17.8932 14.685 18.3132 14.465 18.7032 14.585C21.0432 15.335 22.2332 16.335 22.2332 17.565C22.2332 20.305 15.7832 21.7449 9.41321 21.7449L9.42321 21.7549Z" fill="#000000" />
<path d="M12.6433 13.1752H12.6133C12.2033 13.1752 11.8633 12.8352 11.8733 12.4152C11.8733 12.0052 12.2133 11.6752 12.6233 11.6752C12.6233 11.6752 12.6333 11.6752 12.6433 11.6752C12.9933 11.6752 13.3633 11.5151 13.6133 11.2651C13.7533 11.1251 13.9133 10.8852 13.9133 10.5652C13.9133 10.1552 14.2333 9.80518 14.6533 9.80518H14.6733C15.0833 9.80518 15.4133 10.1352 15.4233 10.5452C15.4333 11.2052 15.1733 11.8352 14.6933 12.3252C14.1633 12.8652 13.4033 13.1752 12.6533 13.1752H12.6433Z" fill="#000000" />
</svg>