<svg width="24px"  height="24px"  viewBox="0 0 25 24" fill="none" xmlns="http://www.w3.org/2000/svg">
<path d="M13.3899 21.6224H13.2999C12.3099 21.6224 11.2799 21.1925 10.5599 20.4625C9.90992 19.8025 9.55992 18.9524 9.56992 18.0724C9.51992 14.9424 12.7099 11.9725 12.8499 11.8425C13.1399 11.5825 13.5799 11.5825 13.8699 11.8425C14.0099 11.9625 17.1999 14.9325 17.1399 18.0825C17.1599 18.9525 16.8099 19.7924 16.1499 20.4524C15.4299 21.1824 14.3999 21.6125 13.3899 21.6125V21.6224ZM13.3599 13.4725C12.5499 14.3625 11.0399 16.2524 11.0699 18.0724C11.0599 18.7124 11.3599 19.1524 11.6199 19.4124C12.0599 19.8624 12.7099 20.1224 13.3399 20.1224C13.9699 20.1224 14.6399 19.8624 15.0799 19.4124C15.3399 19.1524 15.6399 18.7125 15.6299 18.1125C15.6599 16.3825 14.2799 14.4925 13.3499 13.4825L13.3599 13.4725Z" fill="#000000" />
<path d="M6.5596 13.8124H6.5096C5.4996 13.8124 4.4596 13.3724 3.7396 12.6424C3.0896 11.9824 2.7396 11.1424 2.7596 10.2624C2.7096 7.14238 5.8996 4.1624 6.0296 4.0324C6.3196 3.7724 6.7596 3.7724 7.0496 4.0324C7.1896 4.1624 10.3796 7.1324 10.3196 10.2824C10.3396 11.1324 9.9896 11.9824 9.3396 12.6424C8.6096 13.3824 7.5796 13.8124 6.5596 13.8124ZM6.5396 12.3124H6.5496C7.1796 12.3124 7.8296 12.0325 8.2696 11.5825C8.5296 11.3225 8.8296 10.8824 8.8196 10.2824C8.8496 8.4524 7.3496 6.5524 6.5396 5.6524C5.7296 6.5424 4.2296 8.44237 4.2596 10.2524C4.2496 10.8824 4.5496 11.3225 4.8096 11.5825C5.2496 12.0325 5.9096 12.3124 6.5296 12.3124H6.5396Z" fill="#000000" />
<path d="M18.7896 12.1324C18.7896 12.1324 18.7296 12.1324 18.6896 12.1324C17.7196 12.1324 16.7196 11.7124 16.0196 11.0024C15.3796 10.3524 15.0296 9.5224 15.0496 8.6524C14.9996 5.6024 18.1096 2.69244 18.2496 2.57244C18.5396 2.31244 18.9796 2.31244 19.2696 2.57244C19.3996 2.69244 22.5096 5.59242 22.4696 8.67242C22.4896 9.51242 22.1396 10.3424 21.4996 10.9924C20.7896 11.7024 19.7896 12.1224 18.8096 12.1224L18.7896 12.1324ZM18.7396 10.6324C19.3696 10.6124 19.9896 10.3824 20.4196 9.94244C20.6696 9.69244 20.9696 9.27243 20.9496 8.68243C20.9796 7.01243 19.6496 5.19245 18.7496 4.20245C17.9596 5.07245 16.5196 6.90241 16.5396 8.66241C16.5296 9.27241 16.8196 9.69245 17.0696 9.95245C17.4996 10.3824 18.1596 10.6424 18.7296 10.6424L18.7396 10.6324Z" fill="#000000" />
</svg>