<svg width="24px"  height="24px"  viewBox="0 0 25 24" fill="none" xmlns="http://www.w3.org/2000/svg">
<path fill-rule="evenodd" clip-rule="evenodd" d="M17.6247 6.64084C16.7676 6.11972 15.6611 6.11972 14.804 6.64084C13.4681 7.45303 11.7606 7.45303 10.4247 6.64084C9.56761 6.11972 8.46112 6.11972 7.60399 6.64085C6.26813 7.45303 4.56062 7.45305 3.22475 6.64089C2.87081 6.42571 2.75833 5.96435 2.97351 5.61042C3.18869 5.25648 3.65005 5.144 4.00399 5.35918C4.86112 5.88029 5.9676 5.88027 6.82473 5.35915L7.21436 6L6.82473 5.35915C8.1606 4.54696 9.86813 4.54695 11.204 5.35914L10.8144 5.99999L11.204 5.35914C12.0611 5.88027 13.1676 5.88027 14.0247 5.35914C15.3606 4.54695 17.0681 4.54695 18.404 5.35914C19.2611 5.88027 20.3676 5.88027 21.2247 5.35914C21.5787 5.14396 22.04 5.25643 22.2552 5.61036C22.4704 5.9643 22.3579 6.42566 22.004 6.64084C20.6681 7.45303 18.9606 7.45303 17.6247 6.64084Z" fill="#000000" />
<path fill-rule="evenodd" clip-rule="evenodd" d="M17.6247 12.6408C16.7676 12.1197 15.6611 12.1197 14.804 12.6408C13.4681 13.453 11.7606 13.453 10.4247 12.6408C9.56761 12.1197 8.46112 12.1197 7.60399 12.6408C6.26813 13.453 4.56062 13.4531 3.22475 12.6409C2.87081 12.4257 2.75833 11.9644 2.97351 11.6104C3.18869 11.2565 3.65005 11.144 4.00399 11.3592C4.86112 11.8803 5.9676 11.8803 6.82473 11.3591L7.21436 12L6.82473 11.3591C8.1606 10.547 9.86813 10.547 11.204 11.3591L10.8144 12L11.204 11.3591C12.0611 11.8803 13.1676 11.8803 14.0247 11.3591C15.3606 10.547 17.0681 10.547 18.404 11.3591C19.2611 11.8803 20.3676 11.8803 21.2247 11.3591C21.5787 11.144 22.04 11.2564 22.2552 11.6104C22.4704 11.9643 22.3579 12.4257 22.004 12.6408C20.6681 13.453 18.9606 13.453 17.6247 12.6408Z" fill="#000000" />
<path fill-rule="evenodd" clip-rule="evenodd" d="M17.6247 18.6408C16.7676 18.1197 15.6611 18.1197 14.804 18.6408C13.4681 19.453 11.7606 19.453 10.4247 18.6408C9.56761 18.1197 8.46112 18.1197 7.60399 18.6408C6.26813 19.453 4.56062 19.4531 3.22475 18.6409C2.87081 18.4257 2.75833 17.9644 2.97351 17.6104C3.18869 17.2565 3.65005 17.144 4.00399 17.3592C4.86112 17.8803 5.9676 17.8803 6.82473 17.3591L7.21436 18L6.82473 17.3591C8.1606 16.547 9.86813 16.547 11.204 17.3591L10.8144 18L11.204 17.3591C12.0611 17.8803 13.1676 17.8803 14.0247 17.3591C15.3606 16.547 17.0681 16.547 18.404 17.3591C19.2611 17.8803 20.3676 17.8803 21.2247 17.3591C21.5787 17.144 22.04 17.2564 22.2552 17.6104C22.4704 17.9643 22.3579 18.4257 22.004 18.6408C20.6681 19.453 18.9606 19.453 17.6247 18.6408Z" fill="#000000" />
</svg>