<svg width="24px"  height="24px"  viewBox="0 0 25 24" fill="none" xmlns="http://www.w3.org/2000/svg">
<path fill-rule="evenodd" clip-rule="evenodd" d="M11.6739 6.21281C12.3913 6.32144 13.3338 6.6578 14.3082 7.22037C15.2826 7.78293 16.0451 8.43101 16.4979 8.99798C16.7259 9.2834 16.8501 9.51684 16.9011 9.68164C16.924 9.75562 16.928 9.80014 16.9277 9.82313C16.908 9.83491 16.8674 9.85364 16.7918 9.8708C16.6236 9.90903 16.3594 9.91819 15.9982 9.86351C15.2808 9.75488 14.3383 9.41852 13.3639 8.85595C12.3895 8.29338 11.6269 7.64531 11.1742 7.07834C10.9462 6.79292 10.822 6.55948 10.771 6.39468C10.7481 6.32069 10.744 6.27618 10.7444 6.25319C10.7641 6.2414 10.8047 6.22267 10.8802 6.20551C11.0485 6.16729 11.3127 6.15813 11.6739 6.21281ZM10.7283 6.26508C10.7285 6.26515 10.7296 6.26423 10.7314 6.26211C10.7291 6.26396 10.7282 6.26502 10.7283 6.26508ZM10.7456 6.23745C10.7465 6.23484 10.7468 6.23341 10.7467 6.23335C10.7466 6.23329 10.7461 6.2346 10.7456 6.23745ZM16.9437 9.81123C16.9436 9.81117 16.9425 9.81209 16.9407 9.81421C16.9429 9.81236 16.9438 9.8113 16.9437 9.81123ZM16.9265 9.83886C16.9255 9.84147 16.9253 9.8429 16.9254 9.84296C16.9255 9.84303 16.926 9.84172 16.9265 9.83886ZM10.5479 4.7428C10.1331 4.83705 9.69671 5.05638 9.4404 5.50033C9.18408 5.94428 9.21231 6.43186 9.33809 6.83821C9.4635 7.24338 9.70537 7.64287 10.002 8.01437C10.5985 8.76125 11.5194 9.52306 12.6139 10.155C13.7084 10.7869 14.8286 11.2035 15.7736 11.3466C16.2437 11.4178 16.7106 11.4275 17.1242 11.3335C17.539 11.2393 17.9754 11.0199 18.2317 10.576C18.488 10.132 18.4598 9.64446 18.334 9.23811C18.2086 8.83293 17.9667 8.43345 17.67 8.06195C17.0736 7.31507 16.1527 6.55326 15.0582 5.92133C13.9637 5.2894 12.8435 4.87282 11.8984 4.72972C11.4284 4.65854 10.9615 4.64882 10.5479 4.7428Z" fill="#000000" />
<path fill-rule="evenodd" clip-rule="evenodd" d="M9.29646 7.29077C9.70922 7.32552 10.0157 7.68829 9.98091 8.10104C9.88187 9.2775 10.5061 10.9824 11.4142 12.4106C11.8586 13.1095 12.3367 13.6867 12.7627 14.0579C12.9763 14.244 13.1543 14.3586 13.2879 14.4177C13.3777 14.4575 13.4228 14.4617 13.4337 14.4623C13.8329 14.3717 14.2321 14.6185 14.3285 15.0177C14.4257 15.4204 14.178 15.8256 13.7754 15.9228C13.3769 16.0189 12.9931 15.9276 12.6809 15.7894C12.3647 15.6495 12.0598 15.435 11.7772 15.1887C11.2108 14.6951 10.6436 13.9942 10.1484 13.2154C9.17744 11.6884 8.34605 9.63996 8.48619 7.97521C8.52094 7.56246 8.88371 7.25602 9.29646 7.29077Z" fill="#000000" />
<path fill-rule="evenodd" clip-rule="evenodd" d="M7.24231 12.3386C7.65506 12.3734 7.9615 12.7361 7.92675 13.1489C7.84999 14.0606 8.3386 15.4158 9.07162 16.5687C9.42844 17.1298 9.8092 17.588 10.1427 17.8786C10.3101 18.0245 10.4431 18.1084 10.5348 18.149C10.5631 18.1615 10.5825 18.1678 10.594 18.1709C10.9837 18.0977 11.3666 18.3423 11.4607 18.7322C11.5579 19.1348 11.3103 19.54 10.9076 19.6372C10.5431 19.7252 10.1981 19.6403 9.92775 19.5206C9.65347 19.3993 9.39358 19.2154 9.15721 19.0094C8.68331 18.5964 8.21348 18.0146 7.80583 17.3735C7.00994 16.1218 6.31417 14.4231 6.43203 13.0231C6.46678 12.6103 6.82955 12.3039 7.24231 12.3386ZM10.607 18.1737C10.607 18.1737 10.6066 18.1737 10.6057 18.1735L10.607 18.1737Z" fill="#000000" />
<path fill-rule="evenodd" clip-rule="evenodd" d="M10.3075 5.25389C9.92278 5.10026 9.48641 5.28755 9.33278 5.67222L4.3633 18.1152C4.17949 18.491 4.28604 18.8646 4.38082 19.0775C4.48919 19.3208 4.66261 19.5477 4.84661 19.7456C5.22115 20.1484 5.76637 20.5655 6.38937 20.9252C7.01236 21.2848 7.64619 21.5485 8.18228 21.6714C8.44564 21.7319 8.72883 21.7686 8.99378 21.7408C9.22558 21.7164 9.60251 21.6218 9.8361 21.2745L18.1197 10.7448C18.3758 10.4192 18.3195 9.94772 17.994 9.69162C17.6684 9.43551 17.1969 9.49181 16.9408 9.81735L8.73624 20.2466C8.68311 20.2416 8.61078 20.2308 8.51765 20.2094C8.1636 20.1282 7.67003 19.9325 7.13937 19.6261C6.6087 19.3197 6.19244 18.9901 5.94507 18.7241C5.87996 18.6541 5.8344 18.5968 5.80352 18.5533L10.7258 6.22857C10.8794 5.8439 10.6921 5.40752 10.3075 5.25389ZM5.74739 18.4581C5.74731 18.458 5.74785 18.4597 5.74928 18.4631C5.74819 18.4598 5.74747 18.4581 5.74739 18.4581ZM8.84691 20.2476C8.84682 20.2475 8.84499 20.2478 8.84165 20.2484C8.84532 20.248 8.84699 20.2476 8.84691 20.2476Z" fill="#000000" />
<path fill-rule="evenodd" clip-rule="evenodd" d="M20.0957 2.25C19.6815 2.25 19.3457 2.58579 19.3457 3V21C19.3457 21.4142 19.6815 21.75 20.0957 21.75C20.5099 21.75 20.8457 21.4142 20.8457 21V3C20.8457 2.58579 20.5099 2.25 20.0957 2.25Z" fill="#000000" />
<path fill-rule="evenodd" clip-rule="evenodd" d="M20.7932 4.32098C20.7477 3.90927 20.3771 3.61242 19.9654 3.65793L10.7443 4.67727C10.3326 4.72278 10.0357 5.09343 10.0812 5.50514C10.1267 5.91684 10.4974 6.2137 10.9091 6.16819L20.1302 5.14884C20.5419 5.10333 20.8388 4.73269 20.7932 4.32098Z" fill="#000000" />
<path fill-rule="evenodd" clip-rule="evenodd" d="M20.3797 3.73705C19.9995 3.5727 19.558 3.74769 19.3936 4.1279L16.9432 9.79679C16.7789 10.177 16.9538 10.6185 17.3341 10.7828C17.7143 10.9472 18.1557 10.7722 18.3201 10.392L20.7705 4.72307C20.9349 4.34286 20.7599 3.9014 20.3797 3.73705Z" fill="#000000" />
</svg>