<svg width="24px"  height="24px"  viewBox="0 0 25 24" fill="none" xmlns="http://www.w3.org/2000/svg">
<path fill-rule="evenodd" clip-rule="evenodd" d="M17.9569 13.2079C18.1327 13.583 17.971 14.0295 17.5959 14.2052C16.764 14.595 15.6396 14.7533 14.5907 14.7756C13.5304 14.7983 12.4382 14.6838 11.6312 14.4537C11.2329 14.3402 11.002 13.9252 11.1156 13.5269C11.2292 13.1285 11.6442 12.8977 12.0425 13.0112C12.6675 13.1894 13.603 13.2964 14.5587 13.276C15.5259 13.2554 16.4058 13.1063 16.9596 12.8469C17.3347 12.6712 17.7812 12.8328 17.9569 13.2079Z" fill="#000000" />
<path fill-rule="evenodd" clip-rule="evenodd" d="M4.04089 14.0106C4.25246 13.6545 4.71266 13.5373 5.06876 13.7489C6.06314 14.3397 7.15484 14.7676 7.9261 14.8129C8.3396 14.8371 8.65516 15.192 8.63091 15.6055C8.60666 16.019 8.25179 16.3345 7.83829 16.3103C6.71375 16.2443 5.37567 15.676 4.30257 15.0384C3.94647 14.8269 3.82931 14.3667 4.04089 14.0106Z" fill="#000000" />
<path fill-rule="evenodd" clip-rule="evenodd" d="M13.913 2.61702C14.1245 2.26092 14.5847 2.14376 14.9408 2.35534C15.9352 2.94615 17.0269 3.37407 17.7982 3.4193C18.2117 3.44355 18.5272 3.79842 18.503 4.21192C18.4787 4.62543 18.1239 4.94098 17.7104 4.91673C16.5858 4.85078 15.2477 4.28248 14.1746 3.64489C13.8185 3.43332 13.7014 2.97312 13.913 2.61702Z" fill="#000000" />
<path fill-rule="evenodd" clip-rule="evenodd" d="M2.9696 8.15315C3.18117 7.79705 3.64137 7.67989 3.99747 7.89147C5.68514 8.8942 7.59162 9.65619 8.9986 9.7387C9.4121 9.76295 9.72765 10.1178 9.7034 10.5313C9.67916 10.9448 9.32429 11.2604 8.91078 11.2361C7.15054 11.1329 4.99767 10.2305 3.23128 9.18103C2.87518 8.96945 2.75802 8.50925 2.9696 8.15315Z" fill="#000000" />
<path fill-rule="evenodd" clip-rule="evenodd" d="M22.2589 19.4491C22.0473 19.093 21.5871 18.9758 21.231 19.1874C20.2367 19.7782 19.145 20.2061 18.3737 20.2513C17.9602 20.2756 17.6446 20.6305 17.6689 21.044C17.6931 21.4575 18.048 21.773 18.4615 21.7488C19.5861 21.6828 20.9241 21.1145 21.9972 20.4769C22.3533 20.2653 22.4705 19.8052 22.2589 19.4491Z" fill="#000000" />
<path fill-rule="evenodd" clip-rule="evenodd" d="M22.2589 9.52034C22.0473 9.16424 21.5871 9.04708 21.231 9.25866C20.2367 9.84947 19.145 10.2774 18.3737 10.3226C17.9602 10.3469 17.6446 10.7017 17.6689 11.1152C17.6931 11.5287 18.048 11.8443 18.4615 11.8201C19.5861 11.7541 20.9241 11.1858 21.9972 10.5482C22.3533 10.3366 22.4705 9.87644 22.2589 9.52034Z" fill="#000000" />
<path fill-rule="evenodd" clip-rule="evenodd" d="M21.603 15.4386C21.8101 15.7973 21.6872 16.256 21.3285 16.4631C20.0433 17.2051 18.1301 17.8544 16.3765 18.2585C15.6901 18.4167 15.0144 18.5405 14.3951 18.6178C14.4301 18.6853 14.4602 18.7568 14.4835 18.8323C14.5744 19.1269 14.5466 19.439 14.3883 19.7135C14.2457 19.9607 14.0308 20.1201 13.8444 20.2233C13.6525 20.3296 13.4361 20.4064 13.2189 20.4641C12.7844 20.5795 12.2525 20.6428 11.6838 20.6676C10.5405 20.7176 9.13099 20.6168 7.79571 20.3799C6.47461 20.1456 5.14755 19.7645 4.21361 19.2113C3.85722 19.0002 3.73943 18.5402 3.95052 18.1838C4.1616 17.8274 4.62164 17.7096 4.97803 17.9207C5.68236 18.3379 6.80148 18.6801 8.05771 18.903C9.29976 19.1233 10.5987 19.2136 11.6183 19.1691C12.0833 19.1487 12.4665 19.1013 12.7498 19.0353C12.5497 18.8959 12.2541 18.7234 11.8335 18.5208C11.4774 18.3492 11.3156 17.9307 11.4636 17.5642C11.6116 17.1977 12.0187 17.009 12.394 17.1328C12.6056 17.2027 13.0581 17.2367 13.7501 17.1779C14.4123 17.1216 15.2058 16.989 16.0397 16.7968C17.7203 16.4095 19.4736 15.802 20.5785 15.1641C20.9372 14.957 21.3959 15.0799 21.603 15.4386ZM13.1444 18.8944C13.1445 18.8944 13.1437 18.8951 13.1419 18.8963C13.1435 18.895 13.1444 18.8944 13.1444 18.8944Z" fill="#000000" />
<path fill-rule="evenodd" clip-rule="evenodd" d="M3.94677 3.79263C3.73968 4.15135 3.8626 4.61004 4.22132 4.81714C5.50649 5.55908 7.41968 6.20842 9.17332 6.6125C9.85968 6.77066 10.5354 6.89448 11.1547 6.97176C11.1197 7.03934 11.0896 7.11082 11.0663 7.18626C10.9754 7.48095 11.0032 7.79298 11.1615 8.06753C11.3041 8.31474 11.519 8.47412 11.7054 8.57732C11.8974 8.68358 12.1137 8.76038 12.3309 8.81809C12.7654 8.93354 13.2973 8.99679 13.866 9.02163C15.0093 9.07156 16.4188 8.97081 17.7541 8.73394C19.0752 8.49958 20.4023 8.11847 21.3362 7.5653C21.6926 7.35422 21.8104 6.89418 21.5993 6.53779C21.3882 6.1814 20.9282 6.06361 20.5718 6.2747C19.8674 6.69186 18.7483 7.03415 17.4921 7.257C16.25 7.47733 14.9511 7.56759 13.9315 7.52306C13.4665 7.50275 13.0833 7.45532 12.8001 7.38928C13.0001 7.24992 13.2957 7.07736 13.7163 6.87476C14.0724 6.70321 14.2342 6.28473 14.0862 5.91821C13.9382 5.55169 13.5311 5.36297 13.1558 5.48685C12.9442 5.55666 12.4917 5.59071 11.7997 5.53188C11.1375 5.47559 10.344 5.34296 9.51013 5.15081C7.82947 4.76354 6.07624 4.15597 4.97128 3.51807C4.61256 3.31098 4.15387 3.4339 3.94677 3.79263ZM12.4054 7.24838C12.4053 7.2484 12.4061 7.24906 12.4079 7.25032C12.4063 7.24899 12.4054 7.24837 12.4054 7.24838Z" fill="#000000" />
</svg>