<svg width="24px"  height="24px"  viewBox="0 0 25 24" fill="none" xmlns="http://www.w3.org/2000/svg">
<path fill-rule="evenodd" clip-rule="evenodd" d="M7.41347 3.47023C9.43411 3.11637 11.1046 3.318 12.3712 3.79988C12.7583 3.94717 12.9528 4.3804 12.8055 4.76755C12.6582 5.15469 12.225 5.34914 11.8378 5.20185C10.852 4.82681 9.45847 4.63493 7.67222 4.94775C7.26422 5.0192 6.87554 4.74637 6.80409 4.33836C6.73264 3.93036 7.00547 3.54168 7.41347 3.47023Z" fill="#000000" />
<path fill-rule="evenodd" clip-rule="evenodd" d="M15.1386 15.5619C15.8864 15.8782 16.4918 16.4753 16.8788 17.3871L16.8878 17.4084L16.8955 17.4303C17.4407 18.9731 16.4896 20.6663 14.7808 20.7093L14.7714 20.7096L14.7621 20.7096C13.6751 20.7098 12.6977 19.8867 12.5923 18.7523C12.5186 17.959 12.8842 17.2263 13.4891 16.7948C13.3732 16.8017 13.2531 16.8143 13.1291 16.8326C11.995 16.9996 10.8001 17.5871 10.0134 17.974L9.98994 17.9855C9.15447 18.3963 8.18575 18.6154 7.30611 18.6783C6.44609 18.7397 5.56402 18.6593 4.93496 18.3725C4.55806 18.2007 4.39179 17.7559 4.56359 17.379C4.73538 17.0021 5.1802 16.8358 5.5571 17.0076C5.8585 17.145 6.4512 17.2355 7.19918 17.1821C7.92755 17.13 8.70009 16.9482 9.32808 16.6395C9.3531 16.6272 9.3789 16.6145 9.40544 16.6014C10.166 16.2268 11.5392 15.5505 12.9106 15.3486C13.6293 15.2428 14.4146 15.2556 15.1386 15.5619ZM15.4643 18.7438C15.3286 19.023 15.0559 19.1984 14.7526 19.2095C14.406 19.2049 14.1159 18.936 14.0859 18.6135C14.0523 18.2519 14.3182 17.9315 14.6798 17.8979C15.0415 17.8643 15.3618 18.1302 15.3954 18.4918C15.4038 18.5818 15.4277 18.6666 15.4643 18.7438Z" fill="#000000" />
<path fill-rule="evenodd" clip-rule="evenodd" d="M2.9163 13.1396C3.06797 12.7542 3.50339 12.5647 3.88884 12.7164C4.2084 12.8421 4.82907 12.9447 5.60098 12.956C6.3561 12.967 7.17155 12.8894 7.85318 12.7109C8.25388 12.606 8.66378 12.8457 8.76872 13.2464C8.87367 13.6471 8.63391 14.057 8.23321 14.162C7.3911 14.3825 6.43567 14.4684 5.57905 14.4558C4.73921 14.4436 3.90726 14.3356 3.33959 14.1122C2.95414 13.9605 2.76463 13.5251 2.9163 13.1396Z" fill="#000000" />
<path fill-rule="evenodd" clip-rule="evenodd" d="M18.5013 15.7149C18.6529 16.1003 19.0884 16.2898 19.4738 16.1381C19.5148 16.122 19.6795 16.0855 19.9454 16.0816C20.1946 16.078 20.4541 16.1043 20.6574 16.1575C21.0581 16.2624 21.468 16.0227 21.5729 15.622C21.6779 15.2213 21.4381 14.8114 21.0374 14.7064C20.6736 14.6112 20.2741 14.5766 19.9235 14.5818C19.5896 14.5867 19.2137 14.6285 18.9245 14.7423C18.5391 14.894 18.3496 15.3294 18.5013 15.7149Z" fill="#000000" />
<path fill-rule="evenodd" clip-rule="evenodd" d="M18.4892 5.38379C17.6727 5.38379 16.9903 6.0568 16.9903 6.80631C16.9903 7.37159 17.4152 7.8597 17.9701 7.93837C18.1219 7.9599 18.3335 7.9308 18.5147 7.78176C18.8346 7.51863 19.3073 7.56466 19.5704 7.88457C19.8335 8.20447 19.7875 8.67711 19.4676 8.94023C18.9043 9.40354 18.2483 9.49282 17.7595 9.42352C16.4629 9.23968 15.4903 8.1166 15.4903 6.80631C15.4903 5.16217 16.912 3.88379 18.4892 3.88379C19.9141 3.88379 20.9981 4.51122 21.6533 5.45685C22.2925 6.37932 22.4923 7.55586 22.2863 8.64455C22.079 9.74054 21.4504 10.798 20.3724 11.4458C19.2877 12.0977 17.8435 12.279 16.1091 11.807C15.6522 11.6826 15.0561 11.4475 14.4145 11.1943C14.2248 11.1195 14.031 11.043 13.8357 10.9674C12.9462 10.6231 11.9465 10.2623 10.8973 10.0152C8.78845 9.51842 6.60982 9.50923 4.78858 10.8829C4.45789 11.1323 3.98761 11.0664 3.73818 10.7357C3.48875 10.405 3.55463 9.93477 3.88533 9.68534C6.22636 7.91962 8.94814 8.01498 11.2412 8.55513C12.393 8.82644 13.4696 9.21724 14.3772 9.56858C14.6113 9.65919 14.8299 9.74537 15.034 9.82577C15.6505 10.0687 16.1332 10.259 16.503 10.3596C17.9365 10.7498 18.9411 10.556 19.5997 10.1602C20.2649 9.76041 20.674 9.09768 20.8125 8.36576C20.9523 7.62653 20.8058 6.86739 20.4204 6.31116C20.051 5.77809 19.4321 5.38379 18.4892 5.38379Z" fill="#000000" />
</svg>