<svg width="24px"  height="24px"  viewBox="0 0 25 24" fill="none" xmlns="http://www.w3.org/2000/svg">
<path fill-rule="evenodd" clip-rule="evenodd" d="M2.97252 5.08284C3.18679 4.72835 3.64786 4.61469 4.00234 4.82896C4.60189 5.19136 5.62482 5.71351 6.84837 6.17244C7.23619 6.31791 7.43267 6.75023 7.2872 7.13806C7.14173 7.52589 6.70941 7.72236 6.32158 7.5769C5.01516 7.08688 3.90843 6.52493 3.22639 6.11267C2.87191 5.8984 2.75824 5.43733 2.97252 5.08284Z" fill="#000000" />
<path fill-rule="evenodd" clip-rule="evenodd" d="M11.072 3.91992C10.4357 3.91992 9.91992 4.43574 9.91992 5.07204C9.91992 5.65158 10.4458 6.31287 11.1312 6.56306C11.5877 6.72973 12.1684 6.74096 12.9095 6.60306C13.6488 6.46548 14.4731 6.19472 15.3884 5.86779C15.6063 5.78996 15.8294 5.7088 16.057 5.62601C17.6881 5.0326 19.549 4.35565 21.3763 4.2219C21.7894 4.19166 22.1488 4.50204 22.1791 4.91515C22.2093 5.32826 21.8989 5.68766 21.4858 5.7179C19.8825 5.83525 18.2357 6.43226 16.5806 7.03231C16.3515 7.11537 16.1222 7.19848 15.8929 7.28039C14.9752 7.60816 14.0519 7.91622 13.1839 8.07774C12.3177 8.23894 11.4316 8.26957 10.6167 7.9721C9.517 7.57061 8.41992 6.45163 8.41992 5.07204C8.41992 3.60731 9.60731 2.41992 11.072 2.41992C12.5777 2.41992 13.6859 3.70766 13.4966 5.16844C13.4434 5.57922 13.0672 5.86906 12.6564 5.81581C12.2456 5.76257 11.9558 5.38641 12.009 4.97563C12.0827 4.40701 11.6674 3.91992 11.072 3.91992Z" fill="#000000" />
<path fill-rule="evenodd" clip-rule="evenodd" d="M22.0734 18.9172C21.8591 19.2716 21.398 19.3853 21.0436 19.171C20.444 18.8086 19.4211 18.2865 18.1975 17.8276C17.8097 17.6821 17.6132 17.2498 17.7587 16.8619C17.9042 16.4741 18.3365 16.2776 18.7243 16.4231C20.0307 16.9131 21.1375 17.4751 21.8195 17.8873C22.174 18.1016 22.2877 18.5627 22.0734 18.9172Z" fill="#000000" />
<path fill-rule="evenodd" clip-rule="evenodd" d="M13.9729 20.0801C14.6092 20.0801 15.125 19.5643 15.125 18.928C15.125 18.3484 14.5991 17.6871 13.9138 17.4369C13.4573 17.2703 12.8765 17.259 12.1355 17.3969C11.3962 17.5345 10.5719 17.8053 9.65654 18.1322C9.43863 18.21 9.21552 18.2912 8.98795 18.374C7.35677 18.9674 5.49597 19.6443 3.66859 19.7781C3.25548 19.8083 2.89608 19.498 2.86584 19.0849C2.83561 18.6717 3.14598 18.3123 3.55909 18.2821C5.16245 18.1647 6.8092 17.5677 8.46432 16.9677C8.69342 16.8846 8.92268 16.8015 9.152 16.7196C10.0697 16.3918 10.9931 16.0838 11.861 15.9223C12.7273 15.7611 13.6134 15.7304 14.4282 16.0279C15.5279 16.4294 16.625 17.5484 16.625 18.928C16.625 20.3927 15.4376 21.5801 13.9729 21.5801C12.4672 21.5801 11.359 20.2923 11.5483 18.8316C11.6016 18.4208 11.9777 18.1309 12.3885 18.1842C12.7993 18.2374 13.0891 18.6136 13.0359 19.0244C12.9622 19.593 13.3775 20.0801 13.9729 20.0801Z" fill="#000000" />
<path fill-rule="evenodd" clip-rule="evenodd" d="M18.1174 8.45873C19.2677 8.13104 20.4441 7.93345 21.7387 8.15252C22.1471 8.22163 22.4221 8.60873 22.353 9.01714C22.2839 9.42554 21.8968 9.7006 21.4884 9.63149C20.5036 9.46485 19.5725 9.60389 18.5283 9.90134C18.0045 10.0506 17.4667 10.2351 16.8786 10.437L16.8717 10.4393C16.2867 10.6401 15.6576 10.8558 14.9819 11.0534C12.2336 11.8572 8.76426 12.3453 3.56118 10.7487C3.16519 10.6272 2.94269 10.2076 3.06421 9.81164C3.18572 9.41565 3.60524 9.19315 4.00123 9.31467C8.88748 10.8141 12.0549 10.3467 14.5608 9.61376C15.1987 9.42721 15.7967 9.22241 16.3848 9.02058L16.412 9.01124C16.9851 8.81454 17.555 8.61895 18.1174 8.45873Z" fill="#000000" />
<path fill-rule="evenodd" clip-rule="evenodd" d="M8.84286 15.0423C7.17537 15.6139 5.52644 16.1691 3.65692 15.8528C3.24852 15.7836 2.97346 15.3965 3.04257 14.9881C3.11168 14.5797 3.49878 14.3047 3.90719 14.3738C5.34757 14.6175 6.64629 14.2096 8.35644 13.6234C8.74827 13.4891 9.1748 13.6978 9.30912 14.0896C9.44344 14.4815 9.23469 14.908 8.84286 15.0423Z" fill="#000000" />
<path fill-rule="evenodd" clip-rule="evenodd" d="M22.3313 14.1935C22.2098 14.5894 21.7903 14.812 21.3943 14.6904C19.4684 14.0994 17.8153 13.816 16.3715 13.731C15.958 13.7067 15.6425 13.3518 15.6668 12.9383C15.6911 12.5248 16.0461 12.2093 16.4596 12.2336C18.0342 12.3262 19.8055 12.6338 21.8343 13.2564C22.2303 13.378 22.4528 13.7975 22.3313 14.1935Z" fill="#000000" />
</svg>