<svg width="24px"  height="24px"  viewBox="0 0 25 24" fill="none" xmlns="http://www.w3.org/2000/svg">
<path fill-rule="evenodd" clip-rule="evenodd" d="M12.9883 16.4609C12.9883 16.0467 13.3241 15.7109 13.7383 15.7109H19.8331C21.2023 15.7109 22.1466 16.7694 22.1466 18.0251C22.1466 19.3024 21.1114 20.3386 19.8331 20.3386C19.0339 20.3386 18.3298 19.9327 17.9152 19.3193C17.6832 18.9762 17.7733 18.5099 18.1165 18.278C18.4597 18.046 18.9259 18.1361 19.1579 18.4793C19.3055 18.6977 19.553 18.8386 19.8331 18.8386C20.2826 18.8386 20.6466 18.4744 20.6466 18.0251C20.6466 17.5529 20.3297 17.2109 19.8331 17.2109H13.7383C13.3241 17.2109 12.9883 16.8752 12.9883 16.4609Z" fill="#000000" />
<path fill-rule="evenodd" clip-rule="evenodd" d="M12.8994 7.39551C12.8994 7.80972 12.5636 8.14551 12.1494 8.14551H6.05461C4.68535 8.14551 3.74113 7.08707 3.74113 5.83138C3.74113 4.55407 4.77625 3.51789 6.05461 3.51789C6.8538 3.51789 7.55792 3.92375 7.97253 4.5371C8.2045 4.88026 8.11436 5.3465 7.77119 5.57847C7.42802 5.81044 6.96178 5.7203 6.72982 5.37714C6.58221 5.15878 6.3347 5.01789 6.05461 5.01789C5.60508 5.01789 5.24112 5.38209 5.24112 5.83138C5.24112 6.30358 5.558 6.64551 6.05461 6.64551H12.1494C12.5636 6.64551 12.8994 6.98129 12.8994 7.39551Z" fill="#000000" />
<path fill-rule="evenodd" clip-rule="evenodd" d="M9.58887 10.2866C9.58887 10.7008 9.92465 11.0366 10.3389 11.0366H19.0201C20.7852 11.0366 21.997 9.68106 21.997 8.05874C21.997 6.41507 20.6651 5.08177 19.0201 5.08177C17.9919 5.08177 17.0858 5.60363 16.5519 6.39346C16.32 6.73662 16.4101 7.20286 16.7533 7.43483C17.0964 7.6668 17.5627 7.57666 17.7946 7.23349C18.0615 6.83866 18.511 6.58177 19.0201 6.58177C19.8362 6.58177 20.497 7.2431 20.497 8.05874C20.497 8.89756 19.9126 9.53662 19.0201 9.53662H10.3389C9.92465 9.53662 9.58887 9.87241 9.58887 10.2866Z" fill="#000000" />
<path fill-rule="evenodd" clip-rule="evenodd" d="M2.86426 10.2866C2.86426 9.87241 3.20004 9.53662 3.61426 9.53662H6.87629C7.2905 9.53662 7.62629 9.87241 7.62629 10.2866C7.62629 10.7008 7.2905 11.0366 6.87629 11.0366H3.61426C3.20004 11.0366 2.86426 10.7008 2.86426 10.2866Z" fill="#000000" />
<path fill-rule="evenodd" clip-rule="evenodd" d="M17.6025 13.7192C17.6025 13.305 17.9383 12.9692 18.3525 12.9692H21.6146C22.0288 12.9692 22.3646 13.305 22.3646 13.7192C22.3646 14.1335 22.0288 14.4692 21.6146 14.4692H18.3525C17.9383 14.4692 17.6025 14.1335 17.6025 13.7192Z" fill="#000000" />
<path fill-rule="evenodd" clip-rule="evenodd" d="M9.58887 20.4766C9.58887 20.0623 9.92465 19.7266 10.3389 19.7266H13.6009C14.0151 19.7266 14.3509 20.0623 14.3509 20.4766C14.3509 20.8908 14.0151 21.2266 13.6009 21.2266H10.3389C9.92465 21.2266 9.58887 20.8908 9.58887 20.4766Z" fill="#000000" />
<path fill-rule="evenodd" clip-rule="evenodd" d="M11.3994 3.52344C11.3994 3.10922 11.7352 2.77344 12.1494 2.77344H15.4114C15.8257 2.77344 16.1614 3.10922 16.1614 3.52344C16.1614 3.93765 15.8257 4.27344 15.4114 4.27344H12.1494C11.7352 4.27344 11.3994 3.93765 11.3994 3.52344Z" fill="#000000" />
<path fill-rule="evenodd" clip-rule="evenodd" d="M15.2852 13.7192C15.2852 13.305 14.9494 12.9692 14.5352 12.9692H6.93244C5.16728 12.9692 3.95547 14.3248 3.95547 15.9471C3.95547 17.5908 5.28745 18.9241 6.93244 18.9241C7.96063 18.9241 8.86667 18.4022 9.40057 17.6124C9.63254 17.2692 9.54239 16.803 9.19923 16.571C8.85606 16.3391 8.38982 16.4292 8.15785 16.7724C7.89096 17.1672 7.44153 17.4241 6.93244 17.4241C6.11628 17.4241 5.45547 16.7628 5.45547 15.9471C5.45547 15.1083 6.03993 14.4692 6.93244 14.4692H14.5352C14.9494 14.4692 15.2852 14.1335 15.2852 13.7192Z" fill="#000000" />
</svg>