<svg width="24px"  height="24px"  viewBox="0 0 25 24" fill="none" xmlns="http://www.w3.org/2000/svg">
<path fill-rule="evenodd" clip-rule="evenodd" d="M7.95815 20.2329C9.49262 21.7674 11.9792 21.7674 13.5137 20.2329C15.048 18.6986 15.0482 16.2123 13.5142 14.6778C12.7479 13.9102 11.7407 13.5265 10.7365 13.5265H5.375C4.96079 13.5265 4.625 13.8623 4.625 14.2765C4.625 14.6907 4.96079 15.0265 5.375 15.0265H10.7365C11.3594 15.0265 11.9794 15.2636 12.4526 15.7376L12.453 15.738C13.4017 16.6867 13.4017 18.2236 12.453 19.1723C11.5044 20.121 9.9675 20.121 9.01881 19.1723C8.72592 18.8794 8.25104 18.8794 7.95815 19.1723C7.66526 19.4652 7.66526 19.94 7.95815 20.2329Z" fill="#000000" />
<path fill-rule="evenodd" clip-rule="evenodd" d="M2.86426 9.01123C2.86426 9.42544 3.20004 9.76123 3.61426 9.76123H12.3965C13.3096 9.76123 14.2254 9.41253 14.9228 8.71518C16.3177 7.32029 16.3173 5.05852 14.9231 3.66287C13.5278 2.26614 11.2658 2.26844 9.87048 3.66232C9.57744 3.95507 9.57719 4.42994 9.86994 4.72298C10.1627 5.01603 10.6376 5.01627 10.9306 4.72353C11.7412 3.91372 13.0535 3.91376 13.8619 4.72298C14.6713 5.53327 14.6709 6.84572 13.8621 7.65452C13.4576 8.05901 12.9284 8.26123 12.3965 8.26123H3.61426C3.20004 8.26123 2.86426 8.59702 2.86426 9.01123Z" fill="#000000" />
<path fill-rule="evenodd" clip-rule="evenodd" d="M17.0839 16.4637C18.2918 17.6716 20.2507 17.6716 21.4586 16.4637C22.6665 15.2558 22.6665 13.2969 21.4586 12.089L21.458 12.0885C20.8542 11.486 20.0624 11.1834 19.2713 11.1834H15.6143C15.2 11.1834 14.8643 11.5192 14.8643 11.9334C14.8643 12.3476 15.2 12.6834 15.6143 12.6834H19.2713C19.68 12.6834 20.086 12.8387 20.3982 13.15C21.02 13.7721 21.0199 14.781 20.3979 15.403C19.7758 16.0252 18.7667 16.0252 18.1446 15.403C17.8517 15.1102 17.3768 15.1102 17.0839 15.403C16.791 15.6959 16.791 16.1708 17.0839 16.4637Z" fill="#000000" />
</svg>