<svg width="24px"  height="24px"  viewBox="0 0 25 24" fill="none" xmlns="http://www.w3.org/2000/svg">
<path fill-rule="evenodd" clip-rule="evenodd" d="M4.08224 18.3141L4.08454 18.3123C4.08894 18.3089 4.09711 18.3027 4.10896 18.2938C4.13267 18.2762 4.17101 18.2484 4.22319 18.2127C4.32767 18.1412 4.48689 18.0386 4.6945 17.9233C5.11095 17.6919 5.71438 17.4134 6.45546 17.2282C7.91933 16.8622 9.94577 16.85 12.1982 18.352C14.8544 20.1226 17.328 20.1347 19.1369 19.6826C20.0322 19.4588 20.7584 19.1237 21.2625 18.8438C21.5151 18.7034 21.7139 18.5759 21.8523 18.4812C21.9216 18.4338 21.976 18.3945 22.0146 18.3658C22.0339 18.3515 22.0493 18.3397 22.0607 18.3309L22.0747 18.32L22.0795 18.3162L22.0813 18.3148C22.0816 18.3145 22.0827 18.3137 21.6143 17.728L22.0827 18.3137C22.4062 18.055 22.4587 17.583 22.2 17.2595C21.9418 16.9367 21.4711 16.8837 21.1477 17.1408C21.1473 17.1411 21.1468 17.1414 21.1464 17.1418L21.1441 17.1436C21.1397 17.1469 21.1315 17.1532 21.1197 17.162C21.096 17.1796 21.0576 17.2074 21.0055 17.2431C20.901 17.3146 20.7418 17.4171 20.5342 17.5324C20.1177 17.7637 19.5143 18.0421 18.7732 18.2274C17.3092 18.5933 15.2828 18.6054 13.0304 17.104M4.08108 18.315C3.75769 18.572 3.28688 18.5193 3.02863 18.1965C2.76988 17.873 2.82232 17.4011 3.14576 17.1423L3.61424 17.7279C3.14576 17.1423 3.14543 17.1426 3.14576 17.1423L3.14718 17.1412L3.14899 17.1397L3.15374 17.136L3.1678 17.125C3.17918 17.1162 3.19459 17.1045 3.2139 17.0902C3.25253 17.0614 3.30688 17.0221 3.37616 16.9747C3.51459 16.88 3.71336 16.7524 3.96602 16.6121C4.47008 16.332 5.19629 15.9968 6.09163 15.7729C7.90057 15.3207 10.3742 15.3329 13.0304 17.104" fill="#000000" />
<path fill-rule="evenodd" clip-rule="evenodd" d="M4.08224 6.86095L4.08108 6.86188L4.08176 6.86133L4.08224 6.86095ZM4.08224 6.86095L4.08454 6.85919C4.08894 6.85579 4.09711 6.84954 4.10896 6.84073C4.13267 6.82311 4.17101 6.79528 4.22319 6.75958C4.32767 6.68809 4.48689 6.58553 4.6945 6.47018C5.11095 6.23881 5.71438 5.96033 6.45546 5.77505C7.91933 5.40905 9.94577 5.39692 12.1982 6.89885C14.8544 8.67001 17.328 8.68213 19.1369 8.22986C20.0323 8.006 20.7585 7.67078 21.2626 7.39074C21.5152 7.25037 21.714 7.1228 21.8524 7.02807C21.9217 6.98067 21.976 6.94137 22.0147 6.91265C22.034 6.89829 22.0494 6.88656 22.0608 6.87776L22.0748 6.86682L22.0796 6.86307L22.0814 6.86163L22.0821 6.86103C22.0825 6.86076 22.0828 6.8605 21.6143 6.27485L22.0828 6.8605C22.4063 6.60174 22.4587 6.12977 22.1999 5.80633C21.9417 5.48352 21.4711 5.43065 21.1477 5.68767C21.1472 5.68803 21.1468 5.68838 21.1463 5.68874L21.144 5.69051C21.1396 5.6939 21.1315 5.70015 21.1196 5.70896C21.0959 5.72659 21.0576 5.75441 21.0054 5.79012C20.9009 5.86161 20.7417 5.96417 20.5341 6.07951C20.1176 6.31088 19.5142 6.58937 18.7731 6.77465C17.3092 7.14065 15.2828 7.15277 13.0304 5.65085C10.3742 3.87969 7.90059 3.86756 6.09163 4.31984C5.19629 4.54369 4.47008 4.87891 3.96602 5.15896C3.71336 5.29932 3.51459 5.4269 3.37616 5.52162C3.30688 5.56902 3.25253 5.60832 3.2139 5.63704C3.19459 5.65141 3.17918 5.66314 3.1678 5.67193L3.15374 5.68288L3.14899 5.68663L3.14718 5.68806L3.14643 5.68867C3.14609 5.68894 3.14576 5.6892 3.61424 6.27479L3.14576 5.6892C2.82232 5.94795 2.76988 6.41992 3.02863 6.74337C3.28688 7.06618 3.75751 7.11905 4.0809 6.86202" fill="#000000" />
<path fill-rule="evenodd" clip-rule="evenodd" d="M4.08224 12.5865L4.08108 12.5875L4.08176 12.5869L4.08224 12.5865ZM4.08224 12.5865L4.08454 12.5848C4.08894 12.5814 4.09711 12.5751 4.10896 12.5663C4.13267 12.5487 4.17101 12.5209 4.22319 12.4852C4.32767 12.4137 4.48689 12.3111 4.6945 12.1958C5.11095 11.9644 5.71438 11.6859 6.45546 11.5006C7.91933 11.1346 9.94577 11.1225 12.1982 12.6244C14.8544 14.3956 17.328 14.4077 19.1369 13.9554C20.0323 13.7316 20.7585 13.3964 21.2626 13.1163C21.5152 12.976 21.714 12.8484 21.8524 12.7537C21.9217 12.7063 21.976 12.667 22.0147 12.6382C22.034 12.6239 22.0494 12.6121 22.0608 12.6034L22.0748 12.5924L22.0796 12.5887L22.0814 12.5872L22.0821 12.5866C22.0825 12.5863 22.0828 12.5861 21.6143 12.0004L22.0828 12.5861C22.4063 12.3273 22.4587 11.8554 22.1999 11.5319C21.9417 11.2091 21.4711 11.1562 21.1477 11.4133C21.1472 11.4136 21.1468 11.414 21.1463 11.4143L21.144 11.4161C21.1396 11.4195 21.1315 11.4257 21.1196 11.4345C21.0959 11.4522 21.0576 11.48 21.0054 11.5157C20.9009 11.5872 20.7417 11.6898 20.5341 11.8051C20.1176 12.0365 19.5142 12.315 18.7731 12.5002C17.3092 12.8662 15.2828 12.8784 13.0304 11.3764C10.3742 9.60528 7.90059 9.59315 6.09163 10.0454C5.19629 10.2693 4.47008 10.6045 3.96602 10.8845C3.71336 11.0249 3.51459 11.1525 3.37616 11.2472C3.30688 11.2946 3.25253 11.3339 3.2139 11.3626C3.19459 11.377 3.17918 11.3887 3.1678 11.3975L3.15374 11.4085L3.14899 11.4122L3.14718 11.4136L3.14643 11.4143C3.14609 11.4145 3.14576 11.4148 3.61424 12.0004L3.14576 11.4148C2.82232 11.6735 2.76988 12.1455 3.02863 12.469C3.28688 12.7918 3.75751 12.8446 4.0809 12.5876" fill="#000000" />
</svg>