<svg width="24px"  height="24px"  viewBox="0 0 25 24" fill="none" xmlns="http://www.w3.org/2000/svg">
<path fill-rule="evenodd" clip-rule="evenodd" d="M21.1194 14.4333C21.4602 14.6688 21.5456 15.136 21.3101 15.4767C18.3397 19.7753 14.1389 21.4485 11.9803 21.7429C11.5699 21.7988 11.1918 21.5115 11.1359 21.1011C11.0799 20.6907 11.3672 20.3126 11.7777 20.2566C13.5633 20.0131 17.3696 18.5406 20.0761 14.624C20.3115 14.2832 20.7787 14.1979 21.1194 14.4333Z" fill="#000000" />
<path fill-rule="evenodd" clip-rule="evenodd" d="M19.2081 2.29154C19.5995 2.42716 19.8068 2.85438 19.6712 3.24576C19.0837 4.94129 17.8343 6.95448 16.5281 8.58469C15.9334 9.32688 15.3133 10.007 14.7192 10.5543C15.2439 10.7222 15.745 11.067 15.8608 11.6995C15.9671 12.2804 15.6788 12.8213 15.3903 13.2122C15.0779 13.6357 14.6311 14.0637 14.119 14.4711C13.0901 15.2898 11.6902 16.1104 10.2495 16.7242C8.82086 17.333 7.27379 17.7721 5.96303 17.7553C5.54885 17.75 5.2174 17.4099 5.22272 16.9957C5.22803 16.5816 5.5681 16.2501 5.98228 16.2554C6.99141 16.2684 8.31504 15.918 9.66156 15.3443C10.9962 14.7756 12.276 14.0207 13.185 13.2974C13.6419 12.9338 13.9786 12.5992 14.1834 12.3216C14.2907 12.1762 14.3395 12.0773 14.3621 12.0191C14.3297 12.0049 14.2832 11.9878 14.2179 11.9697C13.9089 11.8841 13.3632 11.8399 12.4913 11.9116C12.1001 11.9437 11.7503 11.6689 11.689 11.2812C11.6277 10.8936 11.8757 10.5242 12.2577 10.4341C12.5051 10.3758 12.9465 10.1214 13.5409 9.59713C14.1091 9.09599 14.7383 8.41959 15.3575 7.64675C16.604 6.09113 17.7428 4.22945 18.2539 2.75465C18.3895 2.36327 18.8167 2.15593 19.2081 2.29154ZM14.429 12.0591C14.4283 12.0594 14.4237 12.0562 14.4177 12.0487C14.4268 12.0551 14.4298 12.0588 14.429 12.0591Z" fill="#000000" />
<path fill-rule="evenodd" clip-rule="evenodd" d="M21.4787 7.74502C21.8636 7.89785 22.0518 8.33384 21.899 8.71883C20.0271 13.4341 17.6082 15.8084 15.1945 17.2463C14.8386 17.4583 14.3783 17.3416 14.1663 16.9858C13.9543 16.6299 14.071 16.1696 14.4268 15.9576C16.5404 14.6985 18.748 12.5908 20.5048 8.16536C20.6577 7.78038 21.0937 7.59218 21.4787 7.74502Z" fill="#000000" />
<path fill-rule="evenodd" clip-rule="evenodd" d="M13.5701 3.23895C13.9382 3.42884 14.0827 3.8812 13.8928 4.24932C12.0131 7.89334 9.00391 9.76763 6.74925 10.4597C6.35327 10.5812 5.93374 10.3587 5.8122 9.96275C5.69066 9.56677 5.91313 9.14724 6.30911 9.02569C8.22817 8.43666 10.8879 6.80262 12.5597 3.56167C12.7496 3.19355 13.2019 3.04906 13.5701 3.23895Z" fill="#000000" />
<path fill-rule="evenodd" clip-rule="evenodd" d="M10.6333 10.872C10.9173 11.1735 10.9031 11.6481 10.6016 11.9322C9.5966 12.8789 8.29445 13.541 7.11881 13.966C5.95121 14.3881 4.82236 14.6068 4.12305 14.6068C3.70883 14.6068 3.37305 14.271 3.37305 13.8568C3.37305 13.4426 3.70883 13.1068 4.12305 13.1068C4.58942 13.1068 5.53806 12.9424 6.60886 12.5553C7.67163 12.1712 8.76878 11.598 9.57308 10.8403C9.87458 10.5563 10.3492 10.5705 10.6333 10.872Z" fill="#000000" />
<path fill-rule="evenodd" clip-rule="evenodd" d="M9.20754 2.67454C9.54783 2.91072 9.63222 3.37804 9.39604 3.71832C8.76022 4.6344 7.82552 5.36479 6.94557 5.89796C6.0618 6.43343 5.17368 6.80571 4.57118 6.98044C4.17335 7.09581 3.75733 6.86684 3.64196 6.46902C3.52659 6.07119 3.75556 5.65517 4.15338 5.5398C4.61842 5.40494 5.38644 5.08878 6.16827 4.61507C6.9539 4.13905 7.69425 3.53952 8.16377 2.86304C8.39994 2.52276 8.86726 2.43836 9.20754 2.67454Z" fill="#000000" />
</svg>