<svg width="24px"  height="24px"  viewBox="0 0 25 24" fill="none" xmlns="http://www.w3.org/2000/svg">
<path d="M5.41796 14.3417C4.65796 14.3417 3.89797 14.1417 3.22797 13.7417C2.87797 13.5317 2.75796 13.0717 2.96796 12.7117C3.17796 12.3617 3.63796 12.2417 3.99796 12.4517C4.85796 12.9717 5.96796 12.9717 6.82796 12.4517C7.17796 12.2417 7.63796 12.3517 7.85796 12.7117C8.06796 13.0617 7.95797 13.5317 7.59797 13.7417C6.93797 14.1417 6.16796 14.3417 5.40796 14.3417H5.41796Z" fill="#000000" />
<path d="M19.818 20.3413C19.058 20.3413 18.298 20.1413 17.628 19.7413C16.768 19.2213 15.658 19.2213 14.808 19.7413C13.478 20.5413 11.758 20.5413 10.428 19.7413C9.56797 19.2213 8.45796 19.2213 7.60796 19.7413C6.27796 20.5413 4.55797 20.5413 3.22797 19.7413C2.87797 19.5313 2.75796 19.0713 2.96796 18.7113C3.17796 18.3613 3.63796 18.2413 3.99796 18.4513C4.85796 18.9713 5.96796 18.9713 6.82796 18.4513C8.15796 17.6413 9.87797 17.6413 11.208 18.4513C12.058 18.9613 13.168 18.9613 14.028 18.4513C15.358 17.6413 17.078 17.6413 18.408 18.4513C19.258 18.9613 20.368 18.9613 21.228 18.4513C21.578 18.2413 22.038 18.3513 22.258 18.7113C22.468 19.0613 22.358 19.5313 21.998 19.7413C21.338 20.1413 20.568 20.3413 19.808 20.3413H19.818Z" fill="#000000" />
<path d="M12.9087 16.1816H12.8587C12.1787 16.1816 11.4587 15.8815 10.9687 15.3815C10.5087 14.9215 10.2687 14.3216 10.2787 13.7016C10.2487 11.7016 12.1687 9.87156 12.3887 9.67156C12.6787 9.41156 13.1187 9.41156 13.4087 9.67156C13.6287 9.87156 15.5487 11.7016 15.5187 13.7216C15.5287 14.3116 15.2887 14.9116 14.8287 15.3716C14.3287 15.8716 13.6187 16.1716 12.9187 16.1716L12.9087 16.1816ZM12.8787 14.6816H12.8887C13.2087 14.6816 13.5287 14.5516 13.7487 14.3316C13.8687 14.2116 14.0087 14.0116 13.9987 13.7416C14.0087 12.8916 13.3987 11.9516 12.8887 11.3316C12.3787 11.9516 11.7587 12.8816 11.7787 13.7116C11.7787 14.0116 11.9187 14.2116 12.0287 14.3316C12.2487 14.5516 12.5387 14.7016 12.8787 14.6816Z" fill="#000000" />
<path d="M6.66823 10.3816C5.98823 10.3816 5.26823 10.0817 4.77823 9.58165C4.31823 9.12165 4.07824 8.5316 4.08824 7.9016C4.05824 5.9016 5.96823 4.07168 6.18823 3.86168C6.47823 3.59168 6.91824 3.59168 7.20824 3.86168C7.42824 4.06168 9.34823 5.90162 9.30823 7.92162C9.31823 8.51162 9.07824 9.11164 8.61824 9.57164C8.11824 10.0816 7.38823 10.3217 6.68823 10.3717H6.65823L6.66823 10.3816ZM6.69823 8.88158C6.98823 8.86158 7.34824 8.7516 7.56824 8.5316C7.68824 8.4116 7.82824 8.21164 7.81824 7.94164C7.82824 7.09164 7.21824 6.14159 6.70824 5.52159C6.19824 6.14159 5.57823 7.08161 5.59823 7.91161C5.59823 8.21161 5.72823 8.4116 5.84823 8.5316C6.06823 8.7516 6.37823 8.93158 6.69823 8.88158Z" fill="#000000" />
<path d="M18.2179 10.3511H18.1679C17.4979 10.3511 16.7979 10.0611 16.3079 9.5711C15.8579 9.1211 15.6179 8.54108 15.6379 7.93108C15.6079 5.97108 17.4779 4.18113 17.6979 3.98113C17.9879 3.72113 18.4279 3.72113 18.7179 3.98113C18.9279 4.18113 20.8079 5.96109 20.7779 7.94109C20.7879 8.53109 20.5479 9.11109 20.1079 9.56109C19.6179 10.0511 18.9179 10.3411 18.2379 10.3411L18.2179 10.3511ZM18.1879 8.85113C18.5179 8.87113 18.8079 8.72104 19.0179 8.51104C19.1279 8.40104 19.2679 8.2111 19.2579 7.9511C19.2679 7.1311 18.6879 6.23115 18.1979 5.62115C17.6979 6.22115 17.1179 7.12106 17.1379 7.91106C17.1379 8.20106 17.2679 8.39103 17.3779 8.50103C17.5879 8.71103 17.9279 8.86112 18.1979 8.84112L18.1879 8.85113Z" fill="#000000" />
<path d="M19.8184 14.3417C19.0584 14.3417 18.2984 14.1417 17.6284 13.7417C17.2784 13.5317 17.1584 13.0717 17.3684 12.7117C17.5784 12.3517 18.0484 12.2417 18.3984 12.4517C19.2584 12.9717 20.3684 12.9717 21.2284 12.4517C21.5784 12.2417 22.0384 12.3517 22.2584 12.7117C22.4684 13.0617 22.3583 13.5317 21.9983 13.7417C21.3383 14.1417 20.5683 14.3417 19.8083 14.3417H19.8184Z" fill="#000000" />
</svg>