<svg width="24px"  height="24px"  viewBox="0 0 25 24" fill="none" xmlns="http://www.w3.org/2000/svg">
<path fill-rule="evenodd" clip-rule="evenodd" d="M9.59974 4.89536C9.16927 5.47945 8.74065 6.38376 8.44944 7.47055C8.15824 8.55735 8.07728 9.55482 8.15803 10.2759C8.19868 10.6389 8.27592 10.8918 8.35639 11.0444C8.39251 11.1129 8.42111 11.1472 8.4376 11.1633C8.45989 11.1576 8.50184 11.1422 8.56737 11.1009C8.71336 11.009 8.9067 10.8286 9.1234 10.5346C9.55387 9.95047 9.98249 9.04616 10.2737 7.95936C10.5649 6.87257 10.6459 5.8751 10.5651 5.15403C10.5245 4.79103 10.4472 4.53815 10.3667 4.38554C10.3306 4.31704 10.302 4.28268 10.2855 4.26667C10.2632 4.27229 10.2213 4.28774 10.1558 4.32901C10.0098 4.42094 9.81644 4.60132 9.59974 4.89536ZM10.3053 4.26373C10.3053 4.26386 10.3038 4.26399 10.3011 4.26377C10.3039 4.26349 10.3053 4.26361 10.3053 4.26373ZM10.2735 4.2564C10.271 4.25521 10.2699 4.25437 10.2699 4.25425C10.2699 4.25412 10.2712 4.25472 10.2735 4.2564ZM8.41785 11.1662C8.41788 11.1661 8.41932 11.1659 8.42209 11.1661C8.4192 11.1664 8.41782 11.1663 8.41785 11.1662ZM8.44959 11.1735C8.45209 11.1747 8.45328 11.1755 8.45324 11.1757C8.45321 11.1758 8.45195 11.1752 8.44959 11.1735ZM9.35648 3.0597C9.71643 2.83304 10.1801 2.67957 10.6752 2.81225C11.1704 2.94493 11.4952 3.30966 11.6936 3.68593C11.8914 4.06112 12.0029 4.51462 12.0558 4.98709C12.1622 5.93697 12.0497 7.1268 11.7226 8.34759C11.3955 9.56839 10.898 10.655 10.3309 11.4245C10.0488 11.8072 9.72557 12.1442 9.36666 12.3702C9.00671 12.5969 8.54306 12.7503 8.04789 12.6177C7.55273 12.485 7.22793 12.1203 7.02953 11.744C6.83171 11.3688 6.72026 10.9153 6.66735 10.4428C6.56098 9.49295 6.67344 8.30312 7.00055 7.08233C7.32766 5.86153 7.82518 4.77488 8.39224 4.00545C8.6743 3.62273 8.99757 3.28571 9.35648 3.0597Z" fill="#000000" />
<path fill-rule="evenodd" clip-rule="evenodd" d="M9.94838 3.25621C10.1325 2.88515 10.5825 2.73357 10.9536 2.91766L21.5135 8.15646C21.9051 8.31282 22.0663 8.67597 22.1299 8.86354C22.2109 9.10265 22.2435 9.37608 22.252 9.64051C22.2693 10.1791 22.1908 10.8509 22.0276 11.5409C21.8646 12.23 21.6353 12.8597 21.379 13.3227C21.2539 13.5487 21.0992 13.7776 20.9107 13.9505C20.7553 14.0931 20.4139 14.3397 19.974 14.2441L8.23456 12.6568C7.82408 12.6013 7.53631 12.2236 7.59181 11.8131C7.64731 11.4026 8.02506 11.1149 8.43554 11.1704L19.9849 12.7319C20.0085 12.6963 20.036 12.6516 20.0666 12.5963C20.2387 12.2854 20.4265 11.7932 20.5679 11.1955C20.7091 10.5987 20.7648 10.0627 20.7528 9.6886C20.7494 9.58214 20.7408 9.50117 20.7314 9.44289L10.2869 4.26139C9.91587 4.0773 9.76429 3.62727 9.94838 3.25621ZM20.702 9.3269C20.7022 9.3265 20.7042 9.33059 20.7077 9.34036C20.7036 9.33218 20.7019 9.3273 20.702 9.3269ZM19.8904 12.8505C19.8905 12.8504 19.8921 12.8489 19.8952 12.8465C19.892 12.8494 19.8904 12.8506 19.8904 12.8505Z" fill="#000000" />
<path fill-rule="evenodd" clip-rule="evenodd" d="M3.60547 2.25C4.01968 2.25 4.35547 2.58579 4.35547 3V21C4.35547 21.4142 4.01968 21.75 3.60547 21.75C3.19126 21.75 2.85547 21.4142 2.85547 21V3C2.85547 2.58579 3.19126 2.25 3.60547 2.25Z" fill="#000000" />
<path fill-rule="evenodd" clip-rule="evenodd" d="M10.2542 3.30478C10.4931 3.64314 10.4125 4.11112 10.0741 4.35004L4.82872 8.05369L8.63102 11.2804C8.94684 11.5484 8.9856 12.0217 8.71759 12.3375C8.44958 12.6533 7.97629 12.6921 7.66047 12.4241L3.12019 8.57112C2.94337 8.42106 2.84591 8.19764 2.85621 7.96595C2.86652 7.73426 2.98343 7.52038 3.17288 7.38661L9.20895 3.1247C9.54732 2.88578 10.0153 2.96641 10.2542 3.30478Z" fill="#000000" />
<path fill-rule="evenodd" clip-rule="evenodd" d="M8.06785 16.2571C8.11221 15.8453 8.48203 15.5474 8.89386 15.5918L13.2615 16.0622C13.6734 16.1066 13.9713 16.4764 13.9269 16.8882C13.8825 17.3001 13.5127 17.598 13.1009 17.5536L8.73322 17.0832C8.32139 17.0388 8.02349 16.669 8.06785 16.2571Z" fill="#000000" />
<path fill-rule="evenodd" clip-rule="evenodd" d="M12.2192 19.6014C12.2636 19.1896 12.6334 18.8917 13.0452 18.936L15.9554 19.2495C16.3672 19.2938 16.6651 19.6637 16.6207 20.0755C16.5764 20.4873 16.2066 20.7852 15.7947 20.7409L12.8846 20.4274C12.4728 20.383 12.1749 20.0132 12.2192 19.6014Z" fill="#000000" />
</svg>