<svg width="24px"  height="24px"  viewBox="0 0 25 24" fill="none" xmlns="http://www.w3.org/2000/svg">
<path fill-rule="evenodd" clip-rule="evenodd" d="M10.1721 3.8418C9.69541 3.8418 9.26763 4.04799 8.97227 4.3786C8.69632 4.6875 8.22219 4.7142 7.91329 4.43825C7.60439 4.16229 7.57769 3.68816 7.85365 3.37926C8.42229 2.74274 9.2516 2.3418 10.1721 2.3418C11.8899 2.3418 13.2825 3.73403 13.2825 5.45126C13.2825 7.14889 12.0065 8.56169 10.1721 8.56169H3.61426C3.20004 8.56169 2.86426 8.2259 2.86426 7.81169C2.86426 7.39747 3.20004 7.06169 3.61426 7.06169H10.1721C11.1379 7.06169 11.7825 6.36119 11.7825 5.45126C11.7825 4.56286 11.0619 3.8418 10.1721 3.8418Z" fill="#000000" />
<path fill-rule="evenodd" clip-rule="evenodd" d="M2.86426 16.189C2.86426 15.7748 3.20004 15.439 3.61426 15.439H13.4695C15.3137 15.439 16.579 16.8539 16.579 18.5494C16.579 20.2662 15.1877 21.6589 13.4695 21.6589C12.3956 21.6589 11.4492 21.1138 10.8915 20.2888C10.6595 19.9456 10.7497 19.4794 11.0928 19.2474C11.436 19.0154 11.9022 19.1056 12.1342 19.4487C12.4249 19.8788 12.9147 20.1589 13.4695 20.1589C14.3589 20.1589 15.079 19.4382 15.079 18.5494C15.079 17.6374 14.4411 16.939 13.4695 16.939H3.61426C3.20004 16.939 2.86426 16.6032 2.86426 16.189Z" fill="#000000" />
<path fill-rule="evenodd" clip-rule="evenodd" d="M18.7343 6.89746C18.1268 6.89746 17.5801 7.15058 17.1913 7.55884C16.9057 7.8588 16.4309 7.8704 16.131 7.58475C15.831 7.2991 15.8194 6.82437 16.1051 6.52441C16.7652 5.83126 17.6994 5.39746 18.7343 5.39746C20.7396 5.39746 22.3643 7.02374 22.3643 9.02843C22.3643 9.98973 22.0433 10.8954 21.402 11.5701C20.7561 12.2495 19.8366 12.6403 18.7467 12.6583L18.7343 12.6585V12.6584H3.61426C3.20004 12.6584 2.86426 12.3226 2.86426 11.9084C2.86426 11.4942 3.20004 11.1584 3.61426 11.1584H18.7277C19.459 11.145 19.9777 10.8912 20.3148 10.5366C20.6574 10.1762 20.8643 9.65697 20.8643 9.02843C20.8643 7.85151 19.9105 6.89746 18.7343 6.89746Z" fill="#000000" />
</svg>