<svg width="24px"  height="24px"  viewBox="0 0 25 24" fill="none" xmlns="http://www.w3.org/2000/svg">
<path fill-rule="evenodd" clip-rule="evenodd" d="M11.9194 8.25218C7.82185 7.30849 5.06668 9.61987 4.23133 10.8287C3.99585 11.1694 3.5287 11.2548 3.18794 11.0193C2.84718 10.7838 2.76183 10.3167 2.99732 9.9759C4.08262 8.4054 7.40569 5.67338 12.256 6.79045C12.6597 6.88341 12.9115 7.286 12.8186 7.68964C12.7256 8.09329 12.323 8.34515 11.9194 8.25218Z" fill="#000000" />
<path fill-rule="evenodd" clip-rule="evenodd" d="M16.0354 3.66268C16.1927 4.04587 16.0095 4.48401 15.6263 4.64129C13.2963 5.59766 11.0155 5.13692 10.1038 4.75777C9.72134 4.59871 9.54024 4.15972 9.6993 3.77727C9.85836 3.39481 10.2973 3.21371 10.6798 3.37277C11.3122 3.63576 13.1729 4.02689 15.0568 3.25363C15.44 3.09635 15.8781 3.27949 16.0354 3.66268Z" fill="#000000" />
<path fill-rule="evenodd" clip-rule="evenodd" d="M11.2642 18.1742C11.5666 18.4573 11.5823 18.9319 11.2992 19.2343C9.83351 20.7999 7.97568 20.6319 7.16884 20.3151C6.78328 20.1638 6.59342 19.7285 6.74479 19.3429C6.89616 18.9574 7.33143 18.7675 7.71699 18.9189C8.11457 19.075 9.26642 19.2108 10.2041 18.2092C10.4872 17.9068 10.9618 17.8911 11.2642 18.1742Z" fill="#000000" />
<path fill-rule="evenodd" clip-rule="evenodd" d="M19.0473 7.2627C18.0016 7.2627 17.1539 8.11042 17.1539 9.15615C17.1539 9.57036 16.8181 9.90615 16.4039 9.90615C15.9897 9.90615 15.6539 9.57036 15.6539 9.15615C15.6539 7.282 17.1732 5.7627 19.0473 5.7627C20.8952 5.7627 22.042 7.04053 22.3049 8.45306C22.5642 9.84649 21.9797 11.4655 20.3703 12.1735C19.3674 12.6148 18.1978 12.6329 17.2396 12.5352C16.2657 12.4358 15.4117 12.2057 14.9778 12.0651C11.644 10.9847 9.26822 11.5163 7.65906 12.4888C6.01611 13.4818 5.10426 14.9758 4.80439 15.8899C4.67527 16.2835 4.25154 16.4979 3.85797 16.3688C3.46439 16.2396 3.25001 15.8159 3.37912 15.4223C3.77976 14.2011 4.90394 12.4013 6.88317 11.2051C8.8962 9.98843 11.7287 9.43537 15.4402 10.6381C15.8008 10.755 16.5486 10.9569 17.3919 11.0429C18.2507 11.1306 19.1135 11.0877 19.7663 10.8005C20.6396 10.4163 20.9829 9.54815 20.8302 8.72748C20.681 7.9259 20.076 7.2627 19.0473 7.2627Z" fill="#000000" />
<path fill-rule="evenodd" clip-rule="evenodd" d="M13.4426 15.023C11.9946 15.0754 10.5921 15.5051 9.58382 16.2262C9.2469 16.4672 8.77844 16.3894 8.53748 16.0525C8.29652 15.7155 8.37431 15.2471 8.71122 15.0061C10.0038 14.0817 11.7065 13.5848 13.3883 13.5239C15.0697 13.4631 16.8132 13.8354 18.1748 14.7478C19.2705 15.4821 19.9469 17.1648 18.9635 18.4851C18.3367 19.3266 17.2348 19.6203 16.312 19.4009C15.8351 19.2875 15.3729 19.0313 15.0297 18.6085C14.6829 18.1811 14.4939 17.6281 14.4939 16.9882C14.4939 16.574 14.8297 16.2382 15.2439 16.2382C15.6581 16.2382 15.9939 16.574 15.9939 16.9882C15.9939 17.3247 16.0889 17.5332 16.1944 17.6632C16.3036 17.7978 16.4622 17.8948 16.659 17.9416C17.0836 18.0425 17.5408 17.8841 17.7606 17.589C18.0885 17.1488 17.9389 16.3954 17.3397 15.9939C16.3019 15.2984 14.891 14.9706 13.4426 15.023Z" fill="#000000" />
</svg>