<svg width="24px"  height="24px"  viewBox="0 0 25 24" fill="none" xmlns="http://www.w3.org/2000/svg">
<path d="M19.8155 7.41377C19.0555 7.41377 18.2854 7.21379 17.6254 6.80379C16.7654 6.28379 15.6655 6.28379 14.8055 6.80379C14.3055 7.10379 13.7455 7.30374 13.1855 7.37374C12.7755 7.41374 12.3954 7.13383 12.3454 6.72383C12.2954 6.31383 12.5855 5.93375 12.9955 5.88375C13.3555 5.83375 13.7155 5.71375 14.0255 5.51375C15.3555 4.70375 17.0755 4.70375 18.4055 5.51375C19.2555 6.03375 20.3655 6.03375 21.2255 5.51375C21.5855 5.29375 22.0455 5.41375 22.2555 5.76375C22.4755 6.11375 22.3555 6.57378 22.0055 6.79378C21.3355 7.20378 20.5754 7.40376 19.8155 7.40376V7.41377Z" fill="#000000" />
<path d="M12.6157 13.4135C11.8557 13.4135 11.0857 13.2135 10.4257 12.8035C9.94565 12.5135 9.38565 12.3835 8.79565 12.4235C8.38565 12.4435 8.02566 12.1435 7.99566 11.7235C7.96566 11.3135 8.27564 10.9535 8.69564 10.9235C9.58564 10.8635 10.4556 11.0634 11.2056 11.5234C12.0656 12.0434 13.1657 12.0434 14.0257 11.5234C14.3757 11.3034 14.8457 11.4234 15.0557 11.7734C15.2757 12.1234 15.1557 12.5835 14.8057 12.8035C14.1357 13.2135 13.3757 13.4135 12.6157 13.4135Z" fill="#000000" />
<path d="M5.41552 19.4139C4.65552 19.4139 3.88552 19.2139 3.22552 18.8039C2.87552 18.5839 2.76552 18.1239 2.97552 17.7739C3.18552 17.4239 3.65551 17.3039 4.00551 17.5239C4.86551 18.0439 5.96552 18.0439 6.82552 17.5239C7.17552 17.3039 7.64552 17.4239 7.85552 17.7739C8.07552 18.1239 7.95552 18.5939 7.60552 18.8039C6.93552 19.2139 6.17552 19.4139 5.41552 19.4139Z" fill="#000000" />
<path d="M4.79539 14.9138C4.27539 14.9138 3.7754 14.6938 3.4054 14.3238C3.0554 13.9638 2.86538 13.4937 2.87538 12.9937C2.85538 11.5637 4.1354 10.2638 4.2754 10.1238C4.5654 9.83375 5.03539 9.83375 5.32539 10.1238C5.47539 10.2638 6.75538 11.5638 6.72538 13.0238C6.72538 13.4938 6.54538 13.9638 6.19538 14.3238C5.82538 14.7038 5.3154 14.9138 4.8054 14.9138H4.79539ZM4.79539 11.8438C4.56539 12.1938 4.3554 12.6137 4.3654 12.9937C4.3654 13.1137 4.39538 13.1938 4.47538 13.2738C4.64538 13.4538 4.94538 13.4538 5.12538 13.2738C5.19538 13.2038 5.23539 13.1138 5.23539 13.0238C5.23539 12.6338 5.0354 12.2039 4.8054 11.8539L4.79539 11.8438Z" fill="#000000" />
<path d="M10.9356 20.404C10.3756 20.404 9.82557 20.174 9.42557 19.764C9.04557 19.374 8.83556 18.8641 8.84556 18.3341C8.82556 16.7541 10.2456 15.314 10.4056 15.154C10.6956 14.864 11.1656 14.864 11.4556 15.154C11.6156 15.314 13.0356 16.754 13.0156 18.364C13.0156 18.874 12.8156 19.384 12.4356 19.774C12.0356 20.184 11.4856 20.414 10.9256 20.414L10.9356 20.404ZM10.9356 16.8541C10.6356 17.2841 10.3456 17.8341 10.3456 18.3341C10.3456 18.4841 10.3956 18.6041 10.4956 18.7141C10.7356 18.9541 11.1356 18.9541 11.3656 18.7141C11.4656 18.6141 11.5156 18.494 11.5156 18.364C11.5156 17.854 11.2356 17.294 10.9256 16.864L10.9356 16.8541Z" fill="#000000" />
<path d="M19.7159 15.5442C19.0859 15.5442 18.4359 15.2642 17.9459 14.7842C17.4659 14.3042 17.1959 13.6641 17.2159 13.0041C17.1859 10.9141 19.1759 8.93422 19.2659 8.85422C19.5559 8.56422 20.0259 8.56422 20.3159 8.85422C20.3959 8.93422 22.3959 10.9142 22.3659 13.0342C22.3759 13.6742 22.1159 14.3042 21.6359 14.7942C21.1359 15.2942 20.4259 15.5642 19.7759 15.5542H19.7259L19.7159 15.5442ZM19.7859 10.5241C19.2859 11.1741 18.6959 12.1341 18.7159 13.0041C18.7159 13.3541 18.8759 13.5842 19.0059 13.7242C19.2159 13.9342 19.4759 14.0642 19.7659 14.0442C20.0659 14.0242 20.3559 13.9242 20.5659 13.7142C20.7059 13.5842 20.8659 13.3441 20.8559 13.0241C20.8659 12.1441 20.2859 11.1641 19.7859 10.5141V10.5241Z" fill="#000000" />
<path d="M9.45544 8.74338H9.39544C8.90544 8.74338 8.39543 8.53341 8.01543 8.15341C7.64543 7.78341 7.44544 7.29342 7.45544 6.78342C7.43544 5.30342 8.75545 3.95344 8.90545 3.80344C9.19545 3.51344 9.66544 3.51344 9.95544 3.80344C10.1054 3.95344 11.4254 5.30345 11.4054 6.81345C11.4054 7.30345 11.2154 7.78342 10.8454 8.16342C10.4654 8.54342 9.95543 8.75339 9.44543 8.75339L9.45544 8.74338ZM9.43545 5.52341C9.18545 5.90341 8.94544 6.36342 8.95544 6.78342C8.95544 6.91342 8.99543 7.01348 9.07543 7.09348C9.16543 7.18348 9.29544 7.22338 9.42544 7.24338C9.57544 7.27338 9.69543 7.18348 9.79543 7.09348C9.87543 7.01348 9.91543 6.91345 9.91543 6.81345C9.91543 6.38345 9.68545 5.90341 9.43545 5.52341Z" fill="#000000" />
<path d="M5.42552 7.42397C4.64552 7.42397 3.89551 7.21398 3.22551 6.81398C2.87551 6.60398 2.75553 6.14395 2.96553 5.78395C3.17553 5.42395 3.63553 5.31394 3.99553 5.52394C4.46553 5.80394 4.99552 5.94396 5.54552 5.91396C5.94552 5.88396 6.30551 6.21393 6.32551 6.63393C6.34551 7.04393 6.02551 7.39396 5.60551 7.41396C5.54551 7.41396 5.47551 7.41396 5.41551 7.41396L5.42552 7.42397Z" fill="#000000" />
<path d="M19.8158 19.4135C19.0558 19.4135 18.2858 19.2135 17.6258 18.8035C16.7658 18.2835 15.6659 18.2835 14.8059 18.8035C14.4459 19.0235 13.9859 18.9035 13.7759 18.5535C13.5559 18.2035 13.6759 17.7435 14.0259 17.5235C15.3559 16.7135 17.0759 16.7135 18.4059 17.5235C19.2559 18.0435 20.3658 18.0435 21.2258 17.5235C21.5858 17.3035 22.0458 17.4235 22.2558 17.7735C22.4758 18.1235 22.3558 18.5835 22.0058 18.8035C21.3358 19.2135 20.5758 19.4135 19.8158 19.4135Z" fill="#000000" />
</svg>