<svg width="24px"  height="24px"  viewBox="0 0 25 24" fill="none" xmlns="http://www.w3.org/2000/svg">
<path fill-rule="evenodd" clip-rule="evenodd" d="M10.0572 19.996C8.12297 19.9519 5.89903 19.3216 3.23999 17.7898C2.88108 17.583 2.75774 17.1244 2.96451 16.7655C3.17128 16.4066 3.62986 16.2833 3.98877 16.49C6.48942 17.9307 8.46887 18.4594 10.0913 18.4964C11.7078 18.5332 13.0368 18.0836 14.2475 17.4533C14.8577 17.1357 15.4342 16.7741 16.0086 16.4021C16.1196 16.3302 16.2311 16.2576 16.343 16.1846C16.8006 15.8864 17.2644 15.5841 17.7238 15.316C18.8722 14.6457 20.1307 14.1027 21.5976 14.2416C22.01 14.2806 22.3126 14.6466 22.2736 15.0589C22.2345 15.4713 21.8686 15.7739 21.4562 15.7349C20.4611 15.6407 19.5394 15.9931 18.4799 16.6115C18.0556 16.8591 17.6313 17.1356 17.177 17.4316C17.0614 17.5069 16.9439 17.5835 16.824 17.6612C16.2419 18.0381 15.6163 18.4318 14.9402 18.7838C13.5782 19.4929 11.9973 20.0402 10.0572 19.996Z" fill="#000000" />
<path fill-rule="evenodd" clip-rule="evenodd" d="M19.379 12.0953C18.703 12.4431 18.171 12.874 17.9053 13.1426C17.6141 13.4371 17.1392 13.4398 16.8447 13.1485C16.5502 12.8572 16.5475 12.3824 16.8388 12.0879C17.2127 11.7098 17.8723 11.1836 18.6928 10.7615C19.512 10.34 20.5481 9.99339 21.6555 10.0543C22.0691 10.0771 22.386 10.4308 22.3632 10.8444C22.3404 11.258 21.9867 11.5748 21.5731 11.5521C20.8215 11.5107 20.0563 11.7468 19.379 12.0953Z" fill="#000000" />
<path fill-rule="evenodd" clip-rule="evenodd" d="M19.0125 20.4075C18.5013 20.6705 18.1005 20.996 17.9053 21.1934C17.6141 21.4879 17.1392 21.4905 16.8447 21.1993C16.5502 20.908 16.5475 20.4331 16.8388 20.1386C17.1422 19.8318 17.6706 19.411 18.3263 19.0736C18.9807 18.7369 19.8184 18.4545 20.7212 18.5042C21.1347 18.527 21.4516 18.8807 21.4288 19.2943C21.406 19.7079 21.0523 20.0247 20.6387 20.002C20.0919 19.9719 19.525 20.1438 19.0125 20.4075Z" fill="#000000" />
<path fill-rule="evenodd" clip-rule="evenodd" d="M16.9276 4.49292C16.4164 4.75593 16.0156 5.08146 15.8204 5.27884C15.5291 5.57335 15.0542 5.57599 14.7597 5.28473C14.4652 4.99346 14.4626 4.5186 14.7538 4.22408C15.0573 3.91725 15.5857 3.49643 16.2413 3.15909C16.8958 2.8224 17.7335 2.54 18.6362 2.58968C19.0498 2.61245 19.3666 2.96618 19.3438 3.37977C19.3211 3.79335 18.9673 4.11018 18.5538 4.08741C18.0069 4.05732 17.44 4.22927 16.9276 4.49292Z" fill="#000000" />
<path fill-rule="evenodd" clip-rule="evenodd" d="M10.1461 6.92156C8.4513 7.03957 7.28909 6.12537 6.84466 5.53149C6.59648 5.19986 6.12645 5.13221 5.79482 5.38039C5.46318 5.62857 5.39553 6.0986 5.64371 6.43023C6.325 7.3406 7.94284 8.57861 10.2503 8.41794C10.6635 8.38917 10.9751 8.03087 10.9463 7.61766C10.9176 7.20444 10.5593 6.89279 10.1461 6.92156Z" fill="#000000" />
<path fill-rule="evenodd" clip-rule="evenodd" d="M6.0735 14.3127C6.34579 14.0005 6.81956 13.9682 7.1317 14.2405C7.53033 14.5882 8.34072 14.9268 9.36629 15.0138C10.3722 15.0993 11.4904 14.9331 12.4759 14.3867C12.8382 14.1859 13.2947 14.3168 13.4955 14.6791C13.6963 15.0413 13.5655 15.4978 13.2032 15.6986C11.9129 16.4139 10.4868 16.6144 9.23939 16.5085C8.01155 16.4042 6.85939 15.9935 6.14566 15.3709C5.83352 15.0986 5.80121 14.6248 6.0735 14.3127Z" fill="#000000" />
<path fill-rule="evenodd" clip-rule="evenodd" d="M10.0572 12.2074C8.12297 12.1633 5.89903 11.5331 3.23999 10.0012C2.88108 9.79443 2.75774 9.33585 2.96451 8.97694C3.17128 8.61802 3.62986 8.49469 3.98877 8.70146C6.48942 10.1421 8.46887 10.6708 10.0913 10.7078C11.7078 10.7446 13.0368 10.295 14.2475 9.66475C14.8577 9.34708 15.4342 8.9855 16.0086 8.61355C16.1196 8.54167 16.2311 8.46898 16.343 8.39606C16.8006 8.09783 17.2644 7.79553 17.7238 7.5274C18.8722 6.85715 20.1307 6.31408 21.5976 6.453C22.01 6.49205 22.3126 6.858 22.2736 7.27037C22.2345 7.68274 21.8686 7.98537 21.4562 7.94632C20.4611 7.85208 19.5394 8.20451 18.4799 8.82289C18.0556 9.07053 17.6313 9.347 17.177 9.64305C17.0614 9.71835 16.9439 9.79491 16.824 9.87258C16.2419 10.2496 15.6163 10.6433 14.9402 10.9952C13.5782 11.7043 11.9973 12.2516 10.0572 12.2074Z" fill="#000000" />
</svg>