<svg width="24px"  height="24px"  viewBox="0 0 25 24" fill="none" xmlns="http://www.w3.org/2000/svg">
<path d="M10.4119 20.7196C9.43193 20.7196 8.50194 20.3395 7.80194 19.6395C7.51194 19.3495 7.51194 18.8696 7.80194 18.5796C8.09194 18.2896 8.57194 18.2896 8.86194 18.5796C9.68194 19.4096 11.122 19.4096 11.952 18.5796C12.362 18.1696 12.5919 17.6196 12.5919 17.0396C12.5919 16.4596 12.362 15.9095 11.952 15.4895C11.542 15.0795 10.9919 14.8496 10.4119 14.8496H6.98193C6.57193 14.8496 6.23193 14.5096 6.23193 14.0996C6.23193 13.6896 6.57193 13.3496 6.98193 13.3496H10.4119C11.3919 13.3496 12.322 13.7296 13.012 14.4296C13.712 15.1296 14.0919 16.0596 14.0919 17.0396C14.0919 18.0196 13.712 18.9495 13.012 19.6395C12.322 20.3395 11.3919 20.7196 10.4119 20.7196Z" fill="#000000" />
<path d="M12.8718 9.99023H3.8418C3.4318 9.99023 3.0918 9.65023 3.0918 9.24023C3.0918 8.83023 3.4318 8.49023 3.8418 8.49023H12.8718C13.3718 8.49023 13.8418 8.30032 14.1818 7.95032C14.9018 7.22032 14.9018 6.04031 14.1818 5.32031C13.8318 4.97031 13.3618 4.78027 12.8718 4.78027C12.3718 4.78027 11.9118 4.97032 11.5618 5.33032C11.2718 5.62032 10.7918 5.62032 10.5018 5.33032C10.2118 5.04032 10.2118 4.56026 10.5018 4.27026C11.1318 3.64026 11.9818 3.28027 12.8718 3.28027C13.7718 3.28027 14.6118 3.63026 15.2418 4.27026C16.5518 5.58026 16.5518 7.71026 15.2418 9.02026C14.6118 9.65026 13.7718 10.0002 12.8618 10.0002L12.8718 9.99023Z" fill="#000000" />
<path d="M18.7816 17.0204C18.0016 17.0204 17.2716 16.7104 16.7216 16.1604C16.4316 15.8704 16.4316 15.3905 16.7216 15.1005C17.0116 14.8105 17.4916 14.8105 17.7816 15.1005C18.0516 15.3705 18.4016 15.5204 18.7816 15.5204C19.1616 15.5204 19.5116 15.3705 19.7816 15.1005C20.0516 14.8305 20.2016 14.4805 20.2016 14.1005C20.2016 13.7205 20.0516 13.3605 19.7816 13.1005C19.5216 12.8405 19.1616 12.6904 18.7816 12.6904H14.6416C14.2316 12.6904 13.8916 12.3504 13.8916 11.9404C13.8916 11.5304 14.2316 11.1904 14.6416 11.1904H18.7816C19.5616 11.1904 20.2916 11.4904 20.8416 12.0404C21.3916 12.6004 21.7016 13.3305 21.7016 14.1105C21.7016 14.8905 21.4016 15.6204 20.8416 16.1704C20.2916 16.7204 19.5616 17.0304 18.7816 17.0304V17.0204Z" fill="#000000" />
<path d="M4.07191 20.7197C3.97191 20.7197 3.86191 20.6996 3.76191 20.6496C3.38191 20.4796 3.22191 20.0296 3.39191 19.6596L3.85187 18.6496C4.02187 18.2696 4.47187 18.1096 4.84187 18.2796C5.22187 18.4496 5.38186 18.8996 5.21186 19.2696L4.7519 20.2796C4.6319 20.5596 4.35191 20.7197 4.07191 20.7197Z" fill="#000000" />
<path d="M19.3019 6.78986C19.2019 6.78986 19.0919 6.76992 18.9919 6.71992C18.6119 6.54992 18.4519 6.09993 18.6219 5.72993L19.5319 3.71992C19.7019 3.33992 20.1519 3.17992 20.5219 3.34992C20.9019 3.51992 21.0619 3.96991 20.8919 4.33991L19.9819 6.34992C19.8519 6.62992 19.5819 6.78986 19.3019 6.78986Z" fill="#000000" />
<path d="M15.7516 20.7197C15.6516 20.7197 15.5416 20.6996 15.4416 20.6496C15.0616 20.4796 14.9016 20.0296 15.0716 19.6596L15.6316 18.4396C15.8016 18.0596 16.2516 17.8996 16.6216 18.0696C17.0016 18.2396 17.1616 18.6896 16.9916 19.0596L16.4316 20.2796C16.3016 20.5596 16.0316 20.7197 15.7516 20.7197Z" fill="#000000" />
<path d="M5.92152 7.08002C5.82152 7.08002 5.71152 7.05996 5.61152 7.00996C5.23152 6.83996 5.07152 6.38997 5.24152 6.01997L6.1515 4.00996C6.3215 3.62996 6.77155 3.46996 7.14155 3.63996C7.52155 3.80996 7.68154 4.25995 7.51154 4.62995L6.60151 6.63996C6.47151 6.91996 6.20152 7.08002 5.92152 7.08002Z" fill="#000000" />
<path d="M4.30147 14.8603C3.94147 14.8603 3.62148 14.5903 3.56148 14.2303C3.52148 14.0103 3.58146 13.7902 3.72146 13.6202C4.01146 13.2802 4.59149 13.2802 4.88149 13.6202C5.02149 13.7902 5.09147 14.0203 5.05147 14.2303C4.98147 14.5903 4.67148 14.8603 4.31148 14.8603H4.30147Z" fill="#000000" />
<path d="M21.1316 19.2197C20.9116 19.2197 20.6915 19.1197 20.5515 18.9497C20.4115 18.7797 20.3516 18.5497 20.3916 18.3297C20.4616 17.9797 20.7716 17.7197 21.1316 17.7197C21.4916 17.7197 21.8015 17.9797 21.8715 18.3297C21.9115 18.5497 21.8615 18.7797 21.7115 18.9497C21.5615 19.1197 21.3516 19.2197 21.1316 19.2197Z" fill="#000000" />
<path d="M21.3815 10.0002C21.0215 10.0002 20.7115 9.74026 20.6415 9.39026C20.6215 9.29026 20.6215 9.19034 20.6415 9.10034C20.7115 8.75034 21.0215 8.49023 21.3815 8.49023C21.7415 8.49023 22.0514 8.75034 22.1214 9.10034C22.1414 9.20034 22.1414 9.30026 22.1214 9.39026C22.0514 9.74026 21.7415 10.0002 21.3815 10.0002Z" fill="#000000" />
</svg>