<svg width="24px"  height="24px"  viewBox="0 0 25 24" fill="none" xmlns="http://www.w3.org/2000/svg">
<path fill-rule="evenodd" clip-rule="evenodd" d="M8.58312 3.75C7.34036 3.75 6.33344 4.75692 6.33344 5.99968V12.0224C6.33344 12.2575 6.22321 12.4789 6.03567 12.6207C5.00244 13.4017 4.33301 14.6205 4.33301 15.9999C4.33301 18.347 6.23603 20.25 8.58312 20.25C10.9302 20.25 12.8332 18.347 12.8332 15.9999C12.8332 14.6202 12.1645 13.4015 11.1315 12.6207C10.944 12.4789 10.8338 12.2575 10.8338 12.0224V5.99968C10.8338 4.75723 9.82619 3.75 8.58312 3.75ZM4.83344 5.99968C4.83344 3.92849 6.51193 2.25 8.58312 2.25C10.654 2.25 12.3338 3.92817 12.3338 5.99968V11.6647C13.5479 12.713 14.3332 14.2569 14.3332 15.9999C14.3332 19.1754 11.7586 21.75 8.58312 21.75C5.40761 21.75 2.83301 19.1754 2.83301 15.9999C2.83301 14.2566 3.61939 12.7128 4.83344 11.6647V5.99968Z" fill="#000000" />
<path fill-rule="evenodd" clip-rule="evenodd" d="M8.58208 15.2764C8.18134 15.2764 7.85742 15.6011 7.85742 15.9997C7.85742 16.3985 8.18099 16.7228 8.58148 16.7228C8.98067 16.7228 9.30456 16.3989 9.30456 15.9997C9.30456 15.5999 8.98073 15.2764 8.58208 15.2764ZM6.35742 15.9997C6.35742 14.7715 7.35407 13.7764 8.58208 13.7764C9.81025 13.7764 10.8046 14.7726 10.8046 15.9997C10.8046 17.2273 9.80909 18.2228 8.58148 18.2228C7.35321 18.2228 6.35742 17.2276 6.35742 15.9997Z" fill="#000000" />
<path fill-rule="evenodd" clip-rule="evenodd" d="M8.58203 9.73096C8.99624 9.73096 9.33203 10.0667 9.33203 10.481V14.5266C9.33203 14.9408 8.99624 15.2766 8.58203 15.2766C8.16782 15.2766 7.83203 14.9408 7.83203 14.5266V10.481C7.83203 10.0667 8.16782 9.73096 8.58203 9.73096Z" fill="#000000" />
<path fill-rule="evenodd" clip-rule="evenodd" d="M16.3915 3.54633C16.6844 3.25344 17.1593 3.25344 17.4522 3.54633L17.8968 3.9909L18.332 3.55567C18.6249 3.26278 19.0998 3.26278 19.3927 3.55567C19.6856 3.84857 19.6856 4.32344 19.3927 4.61633L18.4271 5.58189C18.2865 5.72254 18.0957 5.80156 17.8968 5.80156C17.6979 5.80156 17.5071 5.72254 17.3664 5.58189L16.3915 4.60699C16.0987 4.3141 16.0987 3.83922 16.3915 3.54633Z" fill="#000000" />
<path fill-rule="evenodd" clip-rule="evenodd" d="M17.3666 10.138C17.6594 9.84527 18.1341 9.84527 18.427 10.138L19.3925 11.1032C19.6855 11.396 19.6856 11.8709 19.3928 12.1638C19.0999 12.4568 18.6251 12.4569 18.3321 12.164L17.8968 11.7289L17.4521 12.1734C17.1591 12.4662 16.6843 12.4661 16.3914 12.1732C16.0986 11.8802 16.0987 11.4053 16.3917 11.1125L17.3666 10.138Z" fill="#000000" />
<path fill-rule="evenodd" clip-rule="evenodd" d="M17.8916 4.30176C18.3058 4.30176 18.6416 4.63754 18.6416 5.05176V10.6651C18.6416 11.0794 18.3058 11.4151 17.8916 11.4151C17.4774 11.4151 17.1416 11.0794 17.1416 10.6651V5.05176C17.1416 4.63754 17.4774 4.30176 17.8916 4.30176Z" fill="#000000" />
<path fill-rule="evenodd" clip-rule="evenodd" d="M20.8775 4.40273C21.2776 4.51001 21.5149 4.92131 21.4076 5.32139L21.2449 5.92839L21.8392 6.08764C22.2393 6.19485 22.4768 6.6061 22.3696 7.0062C22.2624 7.4063 21.8511 7.64374 21.451 7.53654L20.1321 7.18314C19.9399 7.13165 19.7761 7.00592 19.6766 6.83363C19.5772 6.66134 19.5502 6.45659 19.6018 6.26444L19.9588 4.93289C20.0661 4.53281 20.4774 4.29545 20.8775 4.40273Z" fill="#000000" />
<path fill-rule="evenodd" clip-rule="evenodd" d="M13.4056 8.71831C13.5127 8.31819 13.9239 8.08068 14.3241 8.18782L15.656 8.54447C15.8482 8.59592 16.012 8.72161 16.1115 8.89389C16.211 9.06616 16.238 9.2709 16.1865 9.46305L15.8331 10.782C15.7259 11.1821 15.3146 11.4196 14.9145 11.3123C14.5144 11.2051 14.277 10.7939 14.3842 10.3938L14.5434 9.7994L13.9361 9.63677C13.536 9.52964 13.2985 9.11842 13.4056 8.71831Z" fill="#000000" />
<path fill-rule="evenodd" clip-rule="evenodd" d="M20.9726 6.08115C21.1798 6.43985 21.0569 6.89855 20.6982 7.10568L15.8371 9.91258C15.4784 10.1197 15.0197 9.99682 14.8125 9.63811C14.6054 9.2794 14.7283 8.8207 15.087 8.61358L19.9481 5.80668C20.3068 5.59955 20.7655 5.72244 20.9726 6.08115Z" fill="#000000" />
<path fill-rule="evenodd" clip-rule="evenodd" d="M22.3696 8.70842C22.4768 9.10852 22.2393 9.51977 21.8392 9.62698L21.2449 9.78623L21.4076 10.3932C21.5149 10.7933 21.2776 11.2046 20.8775 11.3119C20.4774 11.4192 20.0661 11.1818 19.9588 10.7817L19.6018 9.45018C19.5502 9.25803 19.5772 9.05328 19.6766 8.88099C19.7761 8.70869 19.9399 8.58297 20.1321 8.53148L21.451 8.17808C21.8511 8.07088 22.2624 8.30832 22.3696 8.70842Z" fill="#000000" />
<path fill-rule="evenodd" clip-rule="evenodd" d="M14.9145 4.40269C15.3146 4.29549 15.7259 4.53293 15.8331 4.93303L16.1865 6.25199C16.238 6.44414 16.211 6.64888 16.1115 6.82116C16.012 6.99343 15.8482 7.11912 15.656 7.17057L14.3241 7.52723C13.9239 7.63436 13.5127 7.39685 13.4056 6.99674C13.2985 6.59662 13.536 6.18541 13.9361 6.07827L14.5434 5.91564L14.3842 5.32125C14.277 4.92115 14.5144 4.5099 14.9145 4.40269Z" fill="#000000" />
<path fill-rule="evenodd" clip-rule="evenodd" d="M14.8125 6.07626C15.0197 5.71755 15.4784 5.59467 15.8371 5.8018L20.6982 8.60869C21.0569 8.81582 21.1798 9.27452 20.9726 9.63323C20.7655 9.99194 20.3068 10.1148 19.9481 9.90769L15.087 7.1008C14.7283 6.89367 14.6054 6.43497 14.8125 6.07626Z" fill="#000000" />
</svg>