<svg width="24px"  height="24px"  viewBox="0 0 25 24" fill="none" xmlns="http://www.w3.org/2000/svg">
<path fill-rule="evenodd" clip-rule="evenodd" d="M12.5576 2.25154C13.9502 2.29865 15.045 3.45928 15.011 4.85125C15.0154 5.01907 15.0618 5.18061 15.1455 5.32113C15.1508 5.3301 15.156 5.33918 15.161 5.34837C15.4552 5.82411 16.0776 5.97892 16.5614 5.69274L16.5696 5.68791C17.783 4.9908 19.3332 5.40618 20.0346 6.61845L20.0355 6.61993L20.6173 7.63085C20.6306 7.6539 20.6426 7.67757 20.6532 7.70176C21.2946 8.90326 20.8746 10.4039 19.6897 11.0934C19.3317 11.3018 18.8725 11.1804 18.6642 10.8224C18.4559 10.4644 18.5772 10.0053 18.9352 9.79695C19.4286 9.50988 19.5986 8.87908 19.3155 8.38196C19.3052 8.36376 19.2956 8.34517 19.2868 8.32626L18.7363 7.36966C18.7361 7.36945 18.7364 7.36987 18.7363 7.36966C18.4496 6.87496 17.8165 6.70385 17.3201 6.98673C16.1192 7.69347 14.5722 7.29611 13.861 6.0973C13.8548 6.08684 13.8488 6.07624 13.8431 6.0655C13.6285 5.69584 13.5163 5.27923 13.5108 4.85735C13.5107 4.84601 13.5108 4.83467 13.5112 4.82333C13.5298 4.24944 13.0789 3.7687 12.5043 3.7506L12.4905 3.75017C12.4902 3.75016 12.4908 3.75017 12.4905 3.75017L12.4826 3.75001L11.2961 3.75C10.7286 3.75 10.2675 4.21108 10.2675 4.7786V4.80166C10.2482 6.19312 9.11337 7.30995 7.72189 7.30719L7.71612 7.30718C7.28403 7.303 6.86082 7.18502 6.48898 6.96609C5.99306 6.6828 5.35981 6.85346 5.07301 7.34857L5.06511 7.3619L4.44482 8.38349C4.16469 8.87957 4.3358 9.5102 4.82979 9.79602C5.61571 10.25 6.1003 11.0878 6.1003 11.9961C6.1003 12.9041 5.61591 13.7438 4.82826 14.1971L4.82709 14.1978C4.33426 14.4802 4.16367 15.1087 4.44621 15.6017C4.45162 15.6111 4.45682 15.6207 4.4618 15.6303L5.0387 16.6247L5.04667 16.6388C5.32189 17.1377 5.94645 17.322 6.44717 17.0554C6.46006 17.0478 6.47245 17.041 6.4842 17.0349C7.68524 16.3535 9.21308 16.765 9.90964 17.9603C9.91462 17.9689 9.91942 17.9775 9.92406 17.9862C10.1388 18.3552 10.2546 18.7744 10.2587 19.2015L10.2588 19.2088C10.2588 19.7838 10.7254 20.25 11.3 20.25H12.1309C12.5452 20.25 12.8809 20.5858 12.8809 21C12.8809 21.4142 12.5452 21.75 12.1309 21.75H11.3C9.89902 21.75 8.7612 20.6152 8.75879 19.2132C8.75668 19.0468 8.71078 18.882 8.6252 18.7366C8.62253 18.7321 8.6154 18.7201 8.608 18.7067C8.60683 18.7045 8.60556 18.7022 8.60421 18.6997C8.31496 18.2229 7.69643 18.0644 7.21365 18.3457C7.20425 18.3512 7.19474 18.3565 7.18512 18.3615C5.95889 19.0376 4.4173 18.5934 3.73753 17.3711L3.14967 16.3578C3.14234 16.3451 3.13538 16.3323 3.1288 16.3192C2.4571 15.1122 2.87873 13.5859 4.08067 12.8967C4.40188 12.7116 4.6003 12.3683 4.6003 11.9961C4.6003 11.6243 4.40213 11.2811 4.07926 11.0948C2.86699 10.3933 2.45098 8.84279 3.14809 7.62941L3.15732 7.61378L3.77927 6.58946C4.48241 5.38459 6.02868 4.97033 7.24036 5.66784L7.24817 5.67234C7.39393 5.7586 7.55945 5.80506 7.72778 5.80719C8.29498 5.80676 8.75726 5.35232 8.76754 4.78533V4.7786C8.76754 3.38265 9.90019 2.25 11.2961 2.25L12.4737 2.25C12.4905 2.24999 12.522 2.24998 12.5576 2.25154ZM9.91255 17.9667C9.91145 17.9648 9.91147 17.9649 9.91255 17.9667ZM11.8889 10.2777C10.9357 10.2777 10.1665 11.0466 10.1665 11.999C10.1665 12.7451 10.6461 13.382 11.3225 13.6097C11.7151 13.7419 11.9262 14.1673 11.794 14.5598C11.6619 14.9524 11.2365 15.1635 10.8439 15.0313C9.57249 14.6033 8.66653 13.4051 8.66653 11.999C8.66653 10.2174 10.108 8.77766 11.8889 8.77766C13.2948 8.77766 14.493 9.68346 14.9211 10.9539C15.0534 11.3464 14.8424 11.7718 14.4499 11.9041C14.0574 12.0364 13.6319 11.8254 13.4996 11.4329C13.272 10.7574 12.6351 10.2777 11.8889 10.2777ZM17.3689 14.5943C16.1182 14.5943 15.1036 15.6082 15.1036 16.8595C15.1036 18.1101 16.1183 19.1248 17.3689 19.1248C17.957 19.1248 18.4928 18.9006 18.8954 18.5332C18.9059 18.5228 18.9166 18.5128 18.9276 18.5032C19.3628 18.0904 19.6341 17.5065 19.6341 16.8595C19.6341 15.608 18.6204 14.5943 17.3689 14.5943ZM20.446 19.0299C20.8795 18.4164 21.1341 17.6676 21.1341 16.8595C21.1341 14.7796 19.4488 13.0943 17.3689 13.0943C15.29 13.0943 13.6036 14.7794 13.6036 16.8595C13.6036 18.9385 15.2899 20.6248 17.3689 20.6248C18.0976 20.6248 18.7778 20.4178 19.3541 20.0595L20.4098 21.1131C20.703 21.4057 21.1779 21.4053 21.4705 21.1121C21.7631 20.8189 21.7626 20.344 21.4695 20.0514L20.446 19.0299Z" fill="#000000" />
</svg>