<svg width="24px"  height="24px"  viewBox="0 0 25 24" fill="none" xmlns="http://www.w3.org/2000/svg">
<path fill-rule="evenodd" clip-rule="evenodd" d="M12.6344 9.12098C14.2238 9.12098 15.5133 10.4091 15.5133 12C15.5133 13.59 14.2242 14.879 12.6344 14.879C11.0436 14.879 9.7555 13.589 9.7555 12C9.7555 10.41 11.0441 9.12098 12.6344 9.12098ZM14.0133 12C14.0133 11.238 13.3961 10.621 12.6344 10.621C11.8727 10.621 11.2555 11.238 11.2555 12C11.2555 12.762 11.8727 13.379 12.6344 13.379C13.3956 13.379 14.0133 12.761 14.0133 12Z" fill="#000000" />
<path fill-rule="evenodd" clip-rule="evenodd" d="M4.58558 11.9996C4.07874 11.1095 3.67737 10.2268 3.39222 9.37696C2.63196 7.11097 2.6305 4.83204 4.04847 3.41395C5.46595 1.99696 7.74524 1.99806 10.0114 2.75794C10.8615 3.04322 11.7438 3.44434 12.6339 3.95118C13.5241 3.44447 14.4069 3.04322 15.2565 2.75794C17.5231 1.99806 19.8019 1.99696 21.2199 3.41395C22.6373 4.83204 22.6364 7.11097 21.8761 9.37696C21.5909 10.2269 21.1901 11.1097 20.6832 12C21.1901 12.8903 21.5909 13.7731 21.8761 14.6231C22.6359 16.889 22.6373 19.168 21.2203 20.5859C19.8024 22.0031 17.5236 22.002 15.2575 21.242C14.4074 20.957 13.5245 20.5558 12.6344 20.0488C11.7443 20.5558 10.861 20.957 10.0109 21.242C7.74476 22.002 5.46546 22.0031 4.04798 20.5859C2.63099 19.168 2.63196 16.889 3.39222 14.6231C3.67737 13.773 4.07874 12.89 4.58558 11.9996ZM20.4542 8.90003C21.1583 6.80006 20.9562 5.27198 20.1593 4.47498C19.3624 3.67799 17.8341 3.47596 15.734 4.17994C15.2042 4.3578 14.6539 4.58912 14.0914 4.87159C15.1417 5.60121 16.1832 6.4701 17.174 7.46095C18.1647 8.45155 19.0333 9.49281 19.7628 10.5431C20.0455 9.98048 20.2765 9.42982 20.4542 8.90003ZM18.9313 12.0003C18.1867 10.8339 17.2409 9.64942 16.1129 8.521C14.985 7.39307 13.8004 6.44727 12.6339 5.70289C11.4674 6.44727 10.2833 7.39307 9.1554 8.521C8.02747 9.64942 7.08167 10.8336 6.33704 11.9999C7.08167 13.1663 8.02747 14.3506 9.1554 15.479C10.2833 16.6068 11.4679 17.5527 12.6344 18.2973C13.8009 17.5527 14.985 16.6068 16.1129 15.479C17.2409 14.3507 18.1867 13.1665 18.9313 12.0003ZM14.0909 19.1284C14.6534 19.411 15.2042 19.6423 15.734 19.82C17.8341 20.5241 19.3629 20.322 20.1598 19.525C20.9562 18.729 21.1583 17.2 20.4537 15.1C20.276 14.5703 20.0446 14.0198 19.7623 13.4572C19.0328 14.5073 18.1642 15.5486 17.1735 16.5389C16.1827 17.5298 15.1412 18.3987 14.0909 19.1284ZM11.1774 19.1284C10.1271 18.3987 9.08558 17.5298 8.09485 16.5389C7.10413 15.5485 6.23548 14.5072 5.50599 13.4569C5.22327 14.0195 4.99232 14.5702 4.81458 15.1C4.10999 17.2 4.31214 18.729 5.10853 19.525C5.9054 20.322 7.43421 20.5241 9.53431 19.82C10.0641 19.6423 10.6149 19.411 11.1774 19.1284ZM5.50599 10.5427C6.23548 9.49244 7.10413 8.45081 8.09437 7.45997C9.08509 6.46949 10.1266 5.60108 11.1769 4.87159C10.6144 4.58912 10.0641 4.3578 9.53431 4.17994C7.43421 3.47596 5.90589 3.67799 5.10901 4.47498C4.31214 5.271 4.10999 6.80006 4.81458 8.90003C4.99232 9.4297 5.22376 9.98023 5.50599 10.5427Z" fill="#000000" />
</svg>